<svg width="54" height="60" viewBox="0 0 54 60" fill="none" xmlns="http://www.w3.org/2000/svg">
<path d="M51.7635 59.5723L52.2123 59.5547C52.3223 59.5503 52.6171 59.5503 52.8239 59.4799C53.2683 59.3523 53.6468 59.0311 53.8404 58.6219C53.9372 58.4195 53.9944 58.1951 53.9988 57.9707C54.0032 57.8431 53.9944 57.7815 53.9944 57.7023L53.9856 57.4778L53.9548 56.5802C53.9152 55.3834 53.8668 54.1909 53.8052 53.0117C53.6952 50.904 53.5807 48.836 53.704 46.6799C53.7348 46.1255 53.7084 45.5227 53.7084 44.9418C53.7128 43.8858 53.7172 42.8298 53.7216 41.7737C53.726 41.2941 53.8008 40.7881 53.7744 40.3437C53.7128 39.2481 53.6732 38.1524 53.6688 37.0568C53.6644 36.5112 53.6688 35.9612 53.682 35.4111C53.6996 34.8655 53.7216 34.3155 53.7172 33.7567C53.5807 32.8943 53.5764 32.0362 53.4311 31.187C53.3827 30.7602 53.3343 30.3334 53.2859 29.9022C53.2463 29.4709 53.1275 29.0529 53.0483 28.6217C52.9515 28.1949 52.8591 27.7681 52.7623 27.3413L52.3487 26.0872C52.2035 25.6736 52.0979 25.2424 51.9263 24.842C51.7591 24.4372 51.6007 24.0324 51.4511 23.6232C51.3719 23.4075 51.2795 23.1743 51.1827 22.9499C51.0771 22.7255 50.9407 22.5143 50.8175 22.3163C49.3434 19.905 47.6582 17.6126 45.5593 15.6765C43.3328 13.5908 40.6663 11.976 37.8106 11.0123C37.441 10.8583 37.0494 10.7527 36.6578 10.6383C36.2662 10.5195 35.8746 10.4007 35.483 10.2819C35.0958 10.1411 34.6866 10.0751 34.2861 9.98272C33.8857 9.89472 33.4809 9.80231 33.0805 9.71431C31.1532 9.3931 29.2216 9.1775 27.2987 8.96189C24.5046 8.65388 21.7325 8.31947 18.9692 7.91465L18.3092 7.81785C18.1772 7.79145 18.0628 7.71665 17.9792 7.61984C17.9 7.51864 17.8516 7.39543 17.8472 7.27223C17.8472 7.24143 17.8472 7.21063 17.8516 7.17983L17.8736 7.04782L17.9264 6.70021C18.0628 5.77178 18.2036 4.84775 18.34 3.91932L18.5424 2.51128C18.626 1.84246 18.3708 1.10323 17.8604 0.632418C17.3632 0.157203 16.6284 -0.089203 15.9156 0.0296009C15.5723 0.0780024 15.1983 0.267207 15.0355 0.350809L14.4019 0.663222C12.6858 1.51245 10.983 2.46727 9.28893 3.3869L4.19797 6.1634L1.65469 7.54944L1.33788 7.72105C1.29388 7.74305 1.21467 7.79145 1.13987 7.83545C1.06507 7.87945 0.999065 7.93226 0.933064 7.98506C0.669052 8.20066 0.453449 8.48227 0.317043 8.79028C0.0398369 9.4107 0.0838432 10.1587 0.431454 10.7439C2.29711 13.0144 4.16717 15.2893 6.03723 17.5598L8.59371 20.7235L9.86536 22.3075L10.0238 22.5055C10.081 22.5759 10.1162 22.6287 10.213 22.7299C10.3758 22.9147 10.5782 23.0687 10.7982 23.1919C11.2426 23.4384 11.7662 23.5132 12.259 23.4384C12.9938 23.3239 13.6759 22.8003 13.9663 22.1051C14.0543 21.9071 14.0719 21.8323 14.1203 21.7047L14.2479 21.3483L14.5075 20.6399L15.5371 17.8106C15.5723 17.7182 15.6559 17.6522 15.7527 17.639C15.7747 17.639 15.8011 17.6346 15.8231 17.639L15.9903 17.6742L16.5448 17.7886L18.7536 18.2506L23.1758 19.179L27.5935 20.1074L29.8024 20.5695C30.1676 20.6487 30.546 20.7191 30.9024 20.8071L31.9145 21.0975C33.6393 21.6431 35.2498 22.5275 36.6534 23.654L37.6698 24.5428C37.9778 24.8684 38.3079 25.1808 38.6115 25.5108C40.8467 27.9881 42.224 31.253 42.3648 34.6103C42.3956 34.9095 42.3648 35.2087 42.3692 35.5123C42.3648 35.816 42.3736 36.102 42.3472 36.432L42.2416 38.3548L42.026 42.1962L41.5948 49.8832C41.5156 51.3353 41.432 52.7917 41.3528 54.2393L41.2032 56.413L41.1152 57.4954L41.0932 57.7682C41.0844 57.9443 41.0887 58.1291 41.124 58.3095C41.19 58.6703 41.3528 59.0135 41.5904 59.2951C41.8544 59.6119 42.1712 59.7879 42.4264 59.8803C42.686 59.9727 42.8928 59.9815 43.0204 59.9683C43.2844 59.9331 43.2404 59.8583 42.9808 59.7351C42.5452 59.4931 42.2812 59.1323 42.1448 58.6879C42.0832 58.4635 42.0568 58.2127 42.114 57.9575C42.1844 57.7111 42.2768 57.4338 42.3472 57.0862C42.5496 56.149 42.7124 55.2778 42.7256 54.1029C42.7432 52.4001 43.016 50.618 42.8928 48.9372C42.8752 48.6996 42.906 48.3564 42.9368 48.0791C43.2052 45.5843 43.3768 43.0806 43.5132 40.5725L43.7024 36.806C43.7464 36.1856 43.7288 35.5343 43.7332 34.8919C43.7332 34.5707 43.6848 34.2539 43.6628 33.9327C43.632 33.6115 43.6188 33.2903 43.5528 32.9779C43.3196 31.319 42.8532 29.6821 42.114 28.1729C41.894 27.6757 41.5948 27.2137 41.3352 26.7341C41.0316 26.2808 40.7323 25.8232 40.3979 25.3964C39.4343 24.1336 38.2375 23.0687 36.9702 22.1403C36.0242 21.4187 35.0034 20.8247 33.9473 20.5739C33.7273 20.5211 33.1465 20.3054 32.9617 20.1778C32.6097 19.9226 32.1741 19.7686 31.7164 19.6234C31.2588 19.465 30.7836 19.3814 30.3084 19.2934L22.6346 17.8106C20.7469 17.4322 18.8548 17.0229 16.9804 16.6005L16.3864 16.4641L16.0739 16.3937C15.9331 16.3673 15.7879 16.3541 15.6471 16.3673C15.0707 16.4069 14.5339 16.8073 14.3359 17.3618L13.1611 20.4023L12.8662 21.1591C12.8178 21.2779 12.765 21.4275 12.7254 21.5199C12.6902 21.5947 12.6506 21.6651 12.6022 21.7267C12.413 21.9687 12.0786 22.0919 11.7794 22.0391C11.6078 22.0083 11.4538 21.9335 11.3306 21.8191L11.2426 21.7179L11.0974 21.5331L10.8026 21.1679L9.62334 19.7114L7.26047 16.7941C6.89965 16.3453 6.56524 15.8789 6.20003 15.4301C5.52681 14.6073 4.8536 13.7184 4.15837 12.9968C3.38835 12.196 2.82512 11.5404 2.3059 10.6383C2.2311 10.5107 2.1431 10.3743 2.0375 10.2291C1.9891 10.1587 1.93629 10.0883 1.8835 10.0179C1.86589 9.98712 1.8483 9.95632 1.8351 9.92551C1.7823 9.80671 1.75149 9.66151 1.78669 9.52511C1.80429 9.4415 1.8395 9.3623 1.8879 9.2919C1.9143 9.2567 1.94509 9.2259 1.97589 9.1951C1.99789 9.1819 2.0111 9.16869 2.0331 9.14669L2.1871 9.05429C2.59192 8.80788 2.99234 8.56148 3.38835 8.31507C4.34318 7.72545 5.23201 7.16223 6.35844 6.71781C6.96566 6.48021 7.74009 6.02699 8.36491 5.63978C9.74655 4.79495 11.1678 3.99413 12.6066 3.2197C13.3283 2.83249 14.0499 2.45407 14.7803 2.08006L15.8715 1.52125C16.0256 1.45085 16.1091 1.41564 16.2368 1.40684C16.3556 1.39364 16.4744 1.40685 16.5844 1.44645C16.8924 1.54325 17.1344 1.82486 17.1784 2.12407C17.1872 2.19887 17.1916 2.27807 17.1828 2.35727C17.1828 2.38367 17.1696 2.47168 17.1608 2.53768L17.1344 2.74449L17.0244 3.57172L16.58 6.87182L16.5668 6.97302C16.558 7.02142 16.5536 7.08743 16.5492 7.14463C16.5404 7.26343 16.5448 7.38224 16.5624 7.50104C16.5932 7.73865 16.6724 7.96745 16.7912 8.17426C17.0288 8.58787 17.4336 8.90468 17.9 9.03229C18.01 9.06309 18.1464 9.08509 18.2476 9.09829L18.4544 9.12469L18.868 9.17749L19.6953 9.2831L23.0042 9.69671C24.7334 9.90792 26.4759 10.0971 28.2139 10.2863L30.238 10.5063L32.1917 10.7527C32.5217 10.7791 32.8341 10.8627 33.1553 10.9332L34.1101 11.1444C34.7525 11.2588 35.3686 11.4832 35.989 11.6768C38.4663 12.482 40.8159 13.6744 42.9324 15.2145C43.7244 15.8657 44.5825 16.4729 45.2469 17.2386C46.0829 18.0614 46.7869 18.9898 47.535 19.8742L48.547 21.2911C48.7274 21.5199 48.877 21.7707 49.0222 22.0215L49.4754 22.7695C50.9099 25.1896 51.7679 27.9089 52.1287 30.6634C52.1639 30.9846 52.1991 31.3102 52.2343 31.6314L52.2915 32.111C52.3003 32.2738 52.3091 32.4322 52.3179 32.5906L52.4235 34.2627C52.4499 34.8259 52.4367 35.4199 52.4411 35.9964L52.4147 39.4857C52.3883 41.8089 52.3531 44.1322 52.3707 46.4555C52.4015 50.2176 52.5071 53.9709 52.5951 57.7199L52.5995 57.8651C52.5995 57.8827 52.5995 57.9047 52.5907 57.9267C52.5819 57.9663 52.5555 58.0015 52.5291 58.0323C52.4983 58.0587 52.4631 58.0851 52.4191 58.0983C52.4103 58.1027 52.3971 58.1027 52.3839 58.1071C52.3751 58.1071 52.3663 58.1115 52.3091 58.1115L52.0363 58.1203L49.867 58.1819L45.5285 58.3095C45.3393 58.3139 45.1413 58.2963 44.9521 58.3051C43.302 58.3623 42.7828 58.6219 43.5616 59.0179C44.2525 59.3699 45.3437 59.5723 46.8309 59.5679L51.7591 59.5107L51.7635 59.5723Z" fill="#69B9CB"/>
</svg>
