<svg width="26" height="25" viewBox="0 0 26 25" fill="none" xmlns="http://www.w3.org/2000/svg">
<path d="M14.7421 10.893C14.246 10.1985 13.4325 9.74219 12.5198 9.74219C11.6071 9.74219 10.7936 10.1985 10.2976 10.893C9.98015 11.3493 9.78174 11.9049 9.78174 12.5001C9.78174 14.0081 11.0119 15.2382 12.5198 15.2382C14.0278 15.2382 15.2579 14.0081 15.2579 12.5001C15.2579 11.9049 15.0595 11.3493 14.7421 10.893Z" fill="#C0E3EB"/>
<path d="M16.468 10.9141C16.6664 11.3109 16.7855 11.9458 16.7855 12.5014C16.7855 14.8426 14.8807 16.7672 12.5196 16.7672C10.1585 16.7672 8.25374 14.8625 8.25374 12.5014C8.25374 11.926 8.37279 11.3109 8.5712 10.9141H6.17041V17.2831C6.17041 18.1164 6.90454 18.8506 7.73787 18.8506H17.3014C18.1347 18.8506 18.8688 18.1164 18.8688 17.2831V10.9141H16.468Z" fill="#C0E3EB"/>
<path d="M18.1546 6.50812H15.853V9.14701H18.4721V6.84542V6.48828L18.1546 6.50812Z" fill="#C0E3EB"/>
<path d="M18.7497 0H6.28937C2.83699 0 0.0195312 2.81746 0.0195312 6.26984V18.75C0.0195312 22.1825 2.83699 25 6.28937 25H18.7695C22.2219 25 25.0394 22.1825 25.0394 18.7302V6.26984C25.0195 2.81746 22.2021 0 18.7497 0ZM20.2576 10.8929V17.2817C20.2576 18.9484 18.9679 20.2381 17.3013 20.2381H7.73778C6.07112 20.2381 4.78144 18.9484 4.78144 17.2817V10.8929V7.71825C4.78144 6.05159 6.07112 4.7619 7.73778 4.7619H17.3013C18.9679 4.7619 20.2576 6.05159 20.2576 7.71825V10.8929Z" fill="#C0E3EB"/>
</svg>
