<svg width="26" height="25" viewBox="0 0 26 25" fill="none" xmlns="http://www.w3.org/2000/svg">
<path d="M18.7302 0H6.26984C2.81746 0 0 2.81746 0 6.26984V18.75C0 22.1825 2.81746 25 6.26984 25H18.75C22.2024 25 25.0198 22.1825 25.0198 18.7302V6.26984C25 2.81746 22.1825 0 18.7302 0ZM18.7103 9.36508C18.7103 9.50397 18.7103 9.64286 18.7103 9.78175C18.7103 13.9484 15.496 18.75 9.60317 18.75C7.79762 18.75 6.11111 18.2341 4.70238 17.3413C4.96032 17.3611 5.19841 17.381 5.45635 17.381C6.96429 17.381 8.33333 16.8849 9.4246 16.0317C8.01587 16.0119 6.84524 15.0992 6.42857 13.8492C6.62698 13.8889 6.8254 13.9087 7.02381 13.9087C7.32143 13.9087 7.61905 13.869 7.87698 13.7897C6.44841 13.4921 5.35714 12.2222 5.35714 10.6944V10.6548C5.75397 10.8929 6.26984 11.0317 6.78571 11.0516C5.93254 10.496 5.35714 9.52381 5.35714 8.43254C5.35714 7.85714 5.51587 7.32143 5.79365 6.84524C7.38095 8.75 9.72222 10 12.381 10.1389C12.3214 9.90079 12.3016 9.6627 12.3016 9.4246C12.3016 7.67857 13.7302 6.26984 15.496 6.26984C16.4087 6.26984 17.2421 6.64683 17.8373 7.26191C18.5714 7.12302 19.246 6.86508 19.8611 6.4881C19.623 7.22222 19.1071 7.8373 18.4524 8.23413C19.1071 8.15476 19.7222 7.99603 20.2976 7.7381C19.8611 8.37302 19.3254 8.92857 18.7103 9.36508Z" fill="#C0E3EB"/>
</svg>
