<svg width="25" height="25" viewBox="0 0 25 25" fill="none" xmlns="http://www.w3.org/2000/svg">
<path d="M10.8936 10.0391V14.6026L15.0999 12.3407L10.8936 10.0391Z" fill="#C0E3EB"/>
<path d="M18.7302 0H6.25C2.81746 0 0 2.81746 0 6.26984V18.75C0 22.1825 2.81746 25 6.25 25H18.7302C22.1825 25 25 22.1825 25 18.7302V6.26984C25 2.81746 22.1825 0 18.7302 0ZM20.2381 13.1151C20.2381 14.4246 20.119 15.754 20.119 15.754C20.119 15.754 19.9802 16.8651 19.5238 17.3611C18.9286 18.0159 18.2738 18.0159 17.9762 18.0556C15.7937 18.2143 12.5198 18.2341 12.5198 18.2341C12.5198 18.2341 8.45238 18.1746 7.20238 18.0556C6.86508 17.996 6.07143 18.0159 5.47619 17.3611C5 16.8651 4.88095 15.754 4.88095 15.754C4.88095 15.754 4.7619 14.4246 4.7619 13.1151V11.8849C4.7619 10.5754 4.88095 9.24603 4.88095 9.24603C4.88095 9.24603 5.01984 8.13492 5.47619 7.63889C6.07143 6.98413 6.72619 6.96429 7.02381 6.9246C9.22619 6.76587 12.5 6.74603 12.5 6.74603C12.5 6.74603 15.7738 6.76587 17.9564 6.9246C18.254 6.96429 18.9286 6.98413 19.5238 7.61905C20 8.11508 20.119 9.24603 20.119 9.24603C20.119 9.24603 20.2381 10.5754 20.2381 11.8849V13.1151Z" fill="#C0E3EB"/>
</svg> 
