<?xml version="1.0" encoding="utf-8"?><svg xmlns="http://www.w3.org/2000/svg" xmlns:xlink="http://www.w3.org/1999/xlink"><symbol viewBox="0 0 11 9" id="acardion" xmlns="http://www.w3.org/2000/svg"><path d="M6.326 7.79a1 1 0 01-1.652 0L.938 2.313A1 1 0 011.764.75h7.472a1 1 0 01.826 1.564L6.326 7.789z"/></symbol><symbol viewBox="0 0 24 24" id="anger" xmlns="http://www.w3.org/2000/svg"><path d="M12 0C5.383 0 0 5.383 0 12c0 6.616 5.383 12 12 12 6.616 0 12-5.384 12-12 0-6.617-5.384-12-12-12zM6 11.25c0-.81.435-1.517 1.079-1.912l-1.55-1.254a.75.75 0 11.942-1.167l3.192 2.582a2.24 2.24 0 01.837 1.751c0 1.24-1.01 2.25-2.25 2.25S6 12.49 6 11.25zm10.293 8.017a.748.748 0 01-1.06.026 4.689 4.689 0 00-6.467 0 .75.75 0 11-1.034-1.087 6.184 6.184 0 018.534 0 .75.75 0 01.027 1.061zm2.178-11.183L16.92 9.338A2.244 2.244 0 0118 11.25c0 1.24-1.01 2.25-2.25 2.25s-2.25-1.01-2.25-2.25c0-.684.305-1.322.835-1.75l3.194-2.583a.749.749 0 011.055.11.753.753 0 01-.113 1.057z"/></symbol><symbol viewBox="0 0 25 25" id="bcba" xmlns="http://www.w3.org/2000/svg"><path d="M22.754 5.908c-.547 0-1.04.208-1.426.54l-6.67-3.812c.023-.127.04-.257.04-.39C14.697 1.035 13.71 0 12.5 0c-1.211 0-2.197 1.035-2.197 2.246 0 .21.039.41.094.602L3.503 7.773c-.357-.25-.789-.4-1.257-.4C1.035 7.373 0 8.36 0 9.57c0 1.17.97 2.121 2.126 2.185l2.283 7.763a2.92 2.92 0 00-1.43 2.503c0 1.616 1.313 2.979 2.93 2.979 1.41 0 2.59-1.051 2.867-2.382l10.481-.5a2.198 2.198 0 002.032 1.368 2.2 2.2 0 002.197-2.197c0-.868-.51-1.612-1.241-1.97l1.009-9.079C24.224 10.012 25 9.144 25 8.105c0-1.211-1.035-2.197-2.246-2.197zm-8.828-2.004l6.67 3.812c-.023.127-.04.256-.04.39 0 .114.017.223.034.332l-5.216 2.81a2.914 2.914 0 00-1.599-.89l-.407-6.095c.206-.09.39-.215.558-.359zm-2.683.14c.199.139.423.24.663.307l.408 6.114a2.929 2.929 0 00-1.536 1.178L4.439 9.53a2.168 2.168 0 00-.09-.562l6.894-4.925zM7.225 19.418a2.89 2.89 0 00-1.317-.327c-.033 0-.063.008-.095.01L3.53 11.344a2.21 2.21 0 00.439-.427l6.353 2.117c-.005.067-.02.13-.02.198 0 .647.217 1.24.573 1.725l-3.65 4.462zm11.971 1.236l-10.504.5a2.92 2.92 0 00-.36-.777l3.676-4.493a2.89 2.89 0 001.224.277c.542 0 1.044-.158 1.48-.415l4.6 4.6a2.177 2.177 0 00-.116.308zm1.593-1.5a2.17 2.17 0 00-.441.157l-4.6-4.6c.256-.436.414-.938.414-1.48 0-.24-.037-.471-.093-.696l5.216-2.808c.153.139.325.255.513.347l-1.009 9.08z"/></symbol><symbol viewBox="0 0 25 24" id="book" xmlns="http://www.w3.org/2000/svg"><path d="M24.613 5.254c-.21-.28-.506-.495-.887-.645.02.35-.004.635-.074.856l-4.504 14.817c-.08.26-.255.468-.525.623-.27.155-.55.232-.841.232H3.926c-1.201 0-1.922-.35-2.162-1.05-.1-.27-.095-.486.015-.646.11-.15.3-.225.57-.225h13.046c.931 0 1.574-.173 1.93-.518.355-.346.713-1.114 1.073-2.305l4.113-13.6c.22-.741.13-1.392-.27-1.952S21.27 0 20.529 0H9.105c-.13 0-.385.045-.765.135L8.354.09a3.133 3.133 0 00-.713-.083 1.003 1.003 0 00-.54.173 1.74 1.74 0 00-.398.353 2.58 2.58 0 00-.293.48 7.746 7.746 0 00-.24.54c-.065.166-.14.341-.225.527a3.384 3.384 0 01-.248.457 7.24 7.24 0 01-.255.316c-.11.13-.2.245-.27.345-.07.1-.115.19-.135.27-.02.09-.01.223.03.398.04.175.055.303.045.383-.04.38-.178.863-.413 1.448-.235.586-.448 1.009-.638 1.269-.04.05-.15.163-.33.338-.18.175-.29.327-.33.457-.04.05-.043.19-.008.42.035.231.048.391.038.481-.04.34-.165.79-.376 1.351-.21.56-.42 1.021-.63 1.381a2.46 2.46 0 01-.255.346c-.14.17-.226.31-.255.42-.02.08-.018.22.007.42.025.2.022.35-.007.45-.08.38-.23.838-.45 1.374a9.99 9.99 0 01-.677 1.373 3.6 3.6 0 01-.247.353 3.661 3.661 0 00-.248.353c-.06.1-.1.205-.12.315-.01.06.005.158.045.293.04.135.055.243.045.323-.01.14-.03.325-.06.556a5.48 5.48 0 00-.045.405c-.22.6-.21 1.236.03 1.907.28.78.778 1.438 1.494 1.974.715.535 1.458.803 2.229.803h13.856c.65 0 1.264-.218 1.84-.653.575-.436.958-.973 1.148-1.614L24.883 7.19c.22-.721.13-1.366-.27-1.937zm-15.973.03l.315-.96a.67.67 0 01.248-.339.63.63 0 01.383-.142h9.127c.14 0 .24.047.3.142.06.096.07.208.03.338l-.315.961a.67.67 0 01-.248.338.629.629 0 01-.383.142H8.97c-.14 0-.24-.047-.3-.142-.06-.095-.07-.208-.03-.338zM7.394 9.127l.315-.96a.67.67 0 01.248-.338.628.628 0 01.383-.143h9.127c.14 0 .24.048.3.143.06.095.07.207.03.338l-.315.96a.67.67 0 01-.248.338.628.628 0 01-.383.143H7.724c-.14 0-.24-.048-.3-.143-.06-.095-.07-.208-.03-.338z"/></symbol><symbol viewBox="0 0 22 25" id="brein-1" xmlns="http://www.w3.org/2000/svg"><path d="M14.716 10.12a.759.759 0 10.002 1.518.759.759 0 00-.002-1.518z"/><path d="M19.452 8.54c.003-1.406.002-1.41-.018-1.502-.427-1.94-1.654-3.735-3.455-5.051C14.227.707 12.115 0 10.031 0h-.004a9.973 9.973 0 00-6.989 2.849A9.96 9.96 0 00.003 9.76a9.967 9.967 0 00.76 4.11c1.043 2.507 1.57 5.223 1.57 8.072V25h11.183v-3.514h2.26a4.255 4.255 0 004.254-4.254V15.89l.847.004a.953.953 0 00.894-1.293l-2.32-6.06zm-4.737 4.56a2.225 2.225 0 01-2.001-3.188l-1.35-1.349a2.64 2.64 0 01-1.274.327 2.64 2.64 0 01-1.287-.334L7.447 9.912A2.225 2.225 0 015.445 13.1a2.225 2.225 0 01-2.223-2.222 2.225 2.225 0 013.189-2.002L7.767 7.52a2.64 2.64 0 01-.334-1.287 2.66 2.66 0 012.657-2.657 2.66 2.66 0 012.657 2.657c0 .472-.124.915-.341 1.3l1.343 1.343a2.225 2.225 0 013.188 2.002 2.225 2.225 0 01-2.222 2.223z"/><path d="M10.09 5.041c-.658 0-1.193.535-1.193 1.192a1.193 1.193 0 101.192-1.192zM5.444 10.12a.759.759 0 000 1.516.759.759 0 000-1.516z"/></symbol><symbol viewBox="0 0 23 25" id="brein-2" xmlns="http://www.w3.org/2000/svg"><path d="M10.417 8.333a1.042 1.042 0 100-2.083 1.042 1.042 0 000 2.083z"/><path d="M20.086 17.551a10.415 10.415 0 10-18-7.34L.073 15.238a1.042 1.042 0 00.502 1.319l1.507.753v4.565a1.042 1.042 0 001.042 1.042H8.73l.754 1.507a1.042 1.042 0 00.932.576h10.417a1.042 1.042 0 001.001-1.328l-1.749-6.12zm-4.46-13.384h2.083v6.25h-2.084v-6.25zm-6.25 13.541H7.291v-6.25h2.083v6.25zM7.291 7.292a3.125 3.125 0 116.25 0 3.125 3.125 0 01-6.25 0zm7.291 10.416a3.125 3.125 0 110-6.25 3.125 3.125 0 010 6.25z"/><path d="M14.584 15.625a1.042 1.042 0 100-2.083 1.042 1.042 0 000 2.083z"/></symbol><symbol viewBox="0 0 25 25" id="call" xmlns="http://www.w3.org/2000/svg"><path d="M15.883 16.266l-3.233 3.233c-.68.68-2.833-.367-4.806-2.34-1.967-1.966-3.014-4.12-2.334-4.8l3.234-3.233L3.37 3.753.69 6.433c-1.973 1.973.427 7.58 5.367 12.513 4.94 4.94 10.54 7.34 12.513 5.36l2.68-2.68-5.367-5.36zM12.498 0v2.5c5.513 0 10 4.486 10 10h2.5c0-6.907-5.6-12.5-12.5-12.5z"/><path d="M12.498 5v2.5c2.76 0 5 2.24 5 5h2.5c0-4.133-3.367-7.5-7.5-7.5z"/></symbol><symbol viewBox="0 0 25 23" id="chat" xmlns="http://www.w3.org/2000/svg"><path d="M12.5 0C5.608 0 0 4.887 0 10.895c0 2.1.686 4.134 1.987 5.893-.247 2.637-.907 4.596-1.865 5.523a.394.394 0 00-.078.465.418.418 0 00.43.22c.17-.023 4.09-.57 6.925-2.154 1.61.629 3.325.948 5.101.948 6.892 0 12.5-4.888 12.5-10.895C25 4.887 19.392 0 12.5 0zM6.667 12.509c-.92 0-1.667-.724-1.667-1.614 0-.89.748-1.614 1.667-1.614s1.666.724 1.666 1.614c0 .89-.747 1.614-1.666 1.614zm5.833 0c-.92 0-1.667-.724-1.667-1.614 0-.89.748-1.614 1.667-1.614.92 0 1.667.724 1.667 1.614 0 .89-.748 1.614-1.667 1.614zm5.833 0c-.919 0-1.666-.724-1.666-1.614 0-.89.747-1.614 1.666-1.614.92 0 1.667.724 1.667 1.614 0 .89-.747 1.614-1.667 1.614z"/></symbol><symbol viewBox="0 0 25 25" id="chat-2" xmlns="http://www.w3.org/2000/svg"><path d="M17.308 8.654A8.654 8.654 0 101.504 13.53L.368 16.94l3.41-1.137a8.654 8.654 0 0013.53-7.15z"/><path d="M25 16.346a8.657 8.657 0 00-6.06-8.257 10.24 10.24 0 01-.795 4.576 10.267 10.267 0 01-2.207 3.274 10.265 10.265 0 01-7.85 3 8.657 8.657 0 0013.134 4.557l3.41 1.137-1.137-3.41A8.613 8.613 0 0025 16.346z"/></symbol><symbol viewBox="0 0 16 16" id="clock" xmlns="http://www.w3.org/2000/svg"><g opacity=".8" stroke-width=".3"><path d="M8 1C4.131 1 1 4.13 1 8c0 3.869 3.13 7 7 7 3.869 0 7-3.13 7-7 0-3.869-3.13-7-7-7zm0 12.906A5.903 5.903 0 012.094 8 5.903 5.903 0 018 2.094 5.903 5.903 0 0113.906 8 5.903 5.903 0 018 13.906z"/><path d="M8.545 6.453V3.625a.547.547 0 10-1.094 0v2.828a1.643 1.643 0 00-.933 2.254L5.301 9.924a.547.547 0 10.773.774L7.291 9.48A1.642 1.642 0 009.64 8c0-.713-.457-1.32-1.094-1.547zm-.547 2.094A.547.547 0 118 7.452a.547.547 0 01-.002 1.095z"/></g></symbol><symbol viewBox="0 0 23 25" id="copy" xmlns="http://www.w3.org/2000/svg"><path d="M22.943 2.865A2.864 2.864 0 0020.078 0H8.098a2.864 2.864 0 00-2.864 2.865v14.062A2.864 2.864 0 008.1 19.792h11.98a2.864 2.864 0 002.864-2.865V2.865zm-4.948 12.24h-7.813a.782.782 0 010-1.563h7.813a.782.782 0 010 1.562zm0-3.126h-7.813a.782.782 0 010-1.562h7.813a.782.782 0 010 1.562zm0-3.125h-7.813a.782.782 0 010-1.562h7.813a.782.782 0 010 1.562z"/><path d="M8.098 21.354a4.432 4.432 0 01-4.427-4.427V2.864c0-.09.021-.173.026-.26H2.89A2.867 2.867 0 00.025 5.468v16.667a2.867 2.867 0 002.865 2.864h12.5a2.867 2.867 0 002.864-2.864v-.782H8.098z"/></symbol><symbol viewBox="0 0 25 22" id="desk" xmlns="http://www.w3.org/2000/svg"><path d="M24.219 0H.78A.78.78 0 000 .781v1.563c0 .431.35.781.781.781h.781v12.5c0 .863.702 1.563 1.563 1.563h8.594v1.925l-1.996 1.33a.78.78 0 10.866 1.3L12.5 20.47l1.91 1.274a.78.78 0 10.866-1.3l-1.995-1.331v-1.925h8.594c.863 0 1.563-.7 1.563-1.563v-12.5h.78c.432 0 .782-.35.782-.781V.78a.78.78 0 00-.781-.78z"/></symbol><symbol viewBox="0 0 529.578 529.578" id="down" xmlns="http://www.w3.org/2000/svg"><path d="M266.032 529.578c146.691 0 263.546-119.342 263.546-263.546S410.237 0 266.032 0 0 119.342 0 266.032s119.342 263.546 266.032 263.546zm0-504.715c131.773 0 238.683 106.91 238.683 238.683s-106.91 238.683-238.683 238.683S27.349 395.319 27.349 263.546 134.259 24.863 266.032 24.863z"/><path d="M261.06 348.08c2.486 2.486 4.973 2.486 7.459 2.486s4.973 0 7.459-2.486L407.75 228.738c4.973-4.973 4.973-12.431 0-17.404-4.973-4.973-12.431-4.973-17.404 0L266.032 323.217 141.718 211.334c-4.973-4.973-12.431-4.973-17.404 0-4.973 4.973-4.973 12.431 0 17.404L261.06 348.08z"/></symbol><symbol viewBox="0 0 17 17" id="download" xmlns="http://www.w3.org/2000/svg"><path d="M7.172 0h2.656c.442 0 .797.355.797.797v5.578h2.912c.59 0 .886.714.468 1.132l-5.05 5.054a.643.643 0 01-.907 0L2.992 7.507a.663.663 0 01.468-1.132h2.915V.797c0-.442.355-.797.797-.797zM17 12.484v3.72a.795.795 0 01-.797.796H.797A.795.795 0 010 16.203v-3.719c0-.441.355-.796.797-.796h4.87l1.628 1.626a1.701 1.701 0 002.41 0l1.627-1.627h4.871c.442 0 .797.356.797.797zm-4.117 2.922a.666.666 0 00-.664-.664.666.666 0 00-.664.664c0 .365.299.664.664.664a.666.666 0 00.664-.664zm2.125 0a.666.666 0 00-.664-.664.666.666 0 00-.664.664c0 .365.299.664.664.664a.666.666 0 00.664-.664z"/></symbol><symbol viewBox="0 0 30 30" id="elementary" xmlns="http://www.w3.org/2000/svg"><path d="M28.5 12h-6V9c0-.9-.6-1.5-1.5-1.5h-4.5V6l6-2.25-6-2.25C16.5.6 15.9 0 15 0s-1.5.6-1.5 1.5v6H9c-.9 0-1.5.6-1.5 1.5v3h-6c-.9 0-1.5.6-1.5 1.5V30h12v-6c0-.9.6-1.5 1.5-1.5h3c.9 0 1.5.6 1.5 1.5v6h12V13.5c0-.9-.6-1.5-1.5-1.5zM6 27H3v-3h3v3zm0-6H3v-3h3v3zm9-4.5c-1.65 0-3-1.35-3-3s1.35-3 3-3 3 1.35 3 3-1.35 3-3 3zM27 27h-3v-3h3v3zm0-6h-3v-3h3v3z"/></symbol><symbol viewBox="0 0 23 21" id="envelopes" xmlns="http://www.w3.org/2000/svg"><path d="M16.25 16.104a3.126 3.126 0 01-2.708 1.604H8.625l-4.969 2.98a1.041 1.041 0 01-1.573-.896v-2.26A3.126 3.126 0 010 14.582v-6.25a3.125 3.125 0 013.125-3.125h1.042v4.167a5.208 5.208 0 005.208 5.208h4.344l2.531 1.521zM19.792 0H9.375A3.125 3.125 0 006.25 3.125v6.25A3.125 3.125 0 009.375 12.5h4.917l4.968 2.98a1.042 1.042 0 001.573-.897v-2.26a3.124 3.124 0 002.084-2.948v-6.25A3.125 3.125 0 0019.792 0z"/></symbol><symbol viewBox="0 0 27 25" id="error" xmlns="http://www.w3.org/2000/svg"><path d="M25.965 19.157L16.593 1.902A3.854 3.854 0 0013.25 0a3.854 3.854 0 00-3.342 1.902l-.016.027-9.341 17.2a3.844 3.844 0 00-.037 3.907A3.844 3.844 0 003.893 25h18.663c1.416 0 2.73-.734 3.43-1.964a3.83 3.83 0 00-.02-3.879zM11.696 7.901a1.554 1.554 0 113.109 0v6.218a1.554 1.554 0 11-3.109 0V7.9zm1.555 13.99a2.334 2.334 0 01-2.332-2.332 2.334 2.334 0 012.332-2.331 2.334 2.334 0 012.331 2.331 2.334 2.334 0 01-2.332 2.332z"/></symbol><symbol viewBox="0 0 24 14" id="eye" xmlns="http://www.w3.org/2000/svg"><path d="M23.944 7.013C21.113 3.75 17.2 0 12 0 9.9 0 7.975.594 5.944 1.863 4.23 2.938 2.475 4.45.063 6.938L0 7l.419.431C3.862 10.956 6.837 14 12 14c2.281 0 4.494-.744 6.762-2.275 1.932-1.306 3.575-2.963 4.894-4.3L24 7.081l-.056-.069zM12 12c-2.756 0-5-2.244-5-5s2.244-5 5-5 5 2.244 5 5-2.244 5-5 5z"/><path d="M11.652 5.174c0-.431.125-.837.344-1.175a3.002 3.002 0 00-2.994 3.013 3 3 0 002.994 3.006c1.65 0 3-1.344 3-3.006a2.158 2.158 0 01-1.175.343 2.185 2.185 0 01-2.169-2.181z"/></symbol><symbol viewBox="0 0 26 26" id="friendship" xmlns="http://www.w3.org/2000/svg"><g clip-path="url(#asclip0)"><path d="M5.657 19.58c1.8 0 3.264-1.463 3.264-3.263 0-1.8-1.464-3.263-3.264-3.263a3.267 3.267 0 00-3.263 3.263c0 1.8 1.464 3.264 3.263 3.264zM21.105 5.063A5.058 5.058 0 0016.042 0C14.929 0 13.872.356 13 1.014A5.027 5.027 0 009.958 0a5.058 5.058 0 00-5.063 5.063 5.03 5.03 0 001.483 3.58l6.083 6.084a.759.759 0 001.078 0l6.083-6.084a5.03 5.03 0 001.483-3.58zM5.657 19.581A5.657 5.657 0 000 25.238c0 .42.341.762.762.762h9.79a.762.762 0 00.762-.762 5.657 5.657 0 00-5.657-5.657zm11.423-3.264c0 1.8 1.464 3.264 3.263 3.264 1.8 0 3.264-1.464 3.264-3.264 0-1.8-1.464-3.263-3.264-3.263a3.267 3.267 0 00-3.263 3.263zm3.263 3.264a5.657 5.657 0 00-5.657 5.657c0 .42.34.762.762.762h9.79a.762.762 0 00.762-.762 5.657 5.657 0 00-5.657-5.657z"/></g><defs><clipPath id="asclip0"><path d="M0 0h26v26H0z"/></clipPath></defs></symbol><symbol viewBox="0 0 25 25" id="game" xmlns="http://www.w3.org/2000/svg"><path d="M22.554 6.793h-4.348V2.446A2.448 2.448 0 0015.761 0H9.239a2.448 2.448 0 00-2.446 2.446v4.347H2.446A2.448 2.448 0 000 9.24v6.522a2.448 2.448 0 002.446 2.445h4.347v4.348A2.448 2.448 0 009.24 25h6.522a2.448 2.448 0 002.445-2.446v-4.348h4.348A2.448 2.448 0 0025 15.761V9.239a2.448 2.448 0 00-2.446-2.446zM6.283 13.554a.815.815 0 11-1.153 1.153l-1.63-1.63a.815.815 0 010-1.153l1.63-1.63a.815.815 0 111.153 1.152L5.229 12.5l1.054 1.054zm4.01-8.424l1.63-1.63a.815.815 0 011.153 0l1.63 1.63a.815.815 0 11-1.152 1.153L12.5 5.229l-1.054 1.054a.815.815 0 11-1.153-1.153zm2.207 4.924a2.448 2.448 0 012.446 2.446 2.448 2.448 0 01-2.446 2.446 2.448 2.448 0 01-2.446-2.446 2.448 2.448 0 012.446-2.446zm2.207 9.816l-1.63 1.63a.813.813 0 01-1.153 0l-1.63-1.63a.815.815 0 111.152-1.153l1.054 1.054 1.054-1.054a.815.815 0 111.153 1.153zm6.793-6.794l-1.63 1.63a.813.813 0 01-1.153 0 .815.815 0 010-1.152l1.054-1.054-1.054-1.054a.815.815 0 111.153-1.153l1.63 1.63a.815.815 0 010 1.153z"/></symbol><symbol viewBox="0 0 26 26" id="growth" xmlns="http://www.w3.org/2000/svg"><path d="M18.297 20.8H8.982A2.714 2.714 0 007.1 23.38V26h13.077v-2.62a2.714 2.714 0 00-1.881-2.58zM14.272 8.266l-.633-1.283-.632 1.283-1.416.205 1.024.999-.241 1.41 1.265-.666 1.266.665-.241-1.41 1.024-.998-1.416-.205z"/><path d="M21.594 4.619V1H5.686v3.619H2v4.646a3.898 3.898 0 003.893 3.893h.248a7.254 7.254 0 003.713 4.036l1.012.475v1.666h5.548v-1.666l1.012-.475a7.242 7.242 0 003.713-4.036h.247a3.898 3.898 0 003.894-3.893V4.619h-3.686zM3.464 9.265V6.084h2.222v4.545c0 .357.027.711.078 1.06a2.432 2.432 0 01-2.3-2.424zm12.774.716l.435 2.538-.754.548-2.28-1.198-2.278 1.198-.754-.548.435-2.538-1.843-1.797.288-.887 2.547-.37 1.14-2.308h.932l1.14 2.308 2.547.37.288.887-1.843 1.797zm7.577-.716a2.431 2.431 0 01-2.3 2.425 7.21 7.21 0 00.079-1.06V6.083h2.22v3.18z"/></symbol><symbol viewBox="0 0 25 25" id="hand-heart" xmlns="http://www.w3.org/2000/svg"><path d="M19.1 0c-1.527 0-2.875.79-3.663 1.987A4.385 4.385 0 0011.774 0C9.19 0 7.387 2.024 7.387 4.922c0 3.586 3.108 5.654 6.759 8.854l1.382 1.212 1.941-1.702c3.33-2.914 6.017-5.056 6.017-8.364C23.486 2.024 21.682 0 19.1 0zm1.901 18.394l-3.418 2.212H8.838V19.14h4.394c.865 0 1.656-.381 2.198-.996a2.901 2.901 0 00.732-1.934h-4.57c-.41 0-.572-.293-.835-.483a5.073 5.073 0 00-3.384-1.275c-1.187 0-2.687.47-4.008 1.758H0V25h17.188L25 19.14a2.92 2.92 0 00-3.999-.746z"/></symbol><symbol viewBox="0 0 25 22" id="heart" xmlns="http://www.w3.org/2000/svg"><path d="M12.5 21.622a.732.732 0 01-.366-.098c-.123-.071-3.047-1.769-6.012-4.326-1.757-1.516-3.16-3.02-4.17-4.469C.646 10.854-.01 9.05 0 7.368.013 5.41.714 3.57 1.974 2.184 3.257.776 4.968 0 6.793 0 9.13 0 11.268 1.31 12.5 3.385 13.73 1.31 15.87 0 18.208 0c1.724 0 3.369.7 4.631 1.97 1.386 1.395 2.174 3.366 2.16 5.407-.01 1.68-.679 3.48-1.988 5.353-1.012 1.449-2.413 2.952-4.164 4.467-2.954 2.557-5.857 4.255-5.979 4.326a.733.733 0 01-.368.099z"/></symbol><symbol viewBox="0 0 21 25" id="hend" xmlns="http://www.w3.org/2000/svg"><path d="M5.243 25h5.978c1.668 0 3.211-.87 4.027-2.28l5.171-8.928-.292-.215-.016-.013a2.374 2.374 0 00-1.67-.538 2.356 2.356 0 00-1.601.762l-1.492 1.632a.458.458 0 01-.473.118.388.388 0 01-.284-.361l-.008-11.23c0-.765-.635-1.388-1.414-1.388-.762 0-1.384.594-1.413 1.335l-.001 3.544v5.174a.362.362 0 01-.124.27.45.45 0 01-.302.111h-.001a.45.45 0 01-.301-.11.363.363 0 01-.126-.269V3.975a1.993 1.993 0 010-.091V1.383C10.903.618 10.269 0 9.489 0h-.043C8.665 0 8.02.613 8.02 1.379v11.237c0 .212-.191.384-.427.384s-.427-.172-.427-.384V2.831c0-.765-.621-1.388-1.4-1.388-.784 0-1.405.623-1.405 1.388v9.785c0 .212-.192.384-.427.384-.236 0-.427-.172-.427-.384V6.848c0-.766-.648-1.366-1.428-1.366h-.04c-.778 0-1.413.608-1.415 1.371-.008 3.152-.003 8.709.003 13.683C.628 23 2.7 25 5.243 25z"/></symbol><symbol viewBox="0 0 30 30" id="high-school" xmlns="http://www.w3.org/2000/svg"><path d="M29.999 26.481H0V30h29.999v-3.519zM15 0L0 5.546v3.252h30V5.546L14.999 0zM6.61 10.556H2.199v14.168h4.41V10.556zm7.063 0h-4.41v14.168h4.41V10.556zm7.064 0h-4.411v14.168h4.41V10.556zm7.063 0h-4.41v14.168h4.41V10.556z"/></symbol><symbol viewBox="0 0 25 25" id="info" xmlns="http://www.w3.org/2000/svg"><path d="M21.339 3.661A12.418 12.418 0 0012.5 0C9.161 0 6.022 1.3 3.661 3.661A12.418 12.418 0 000 12.5c0 3.339 1.3 6.478 3.661 8.839A12.418 12.418 0 0012.5 25c3.339 0 6.478-1.3 8.839-3.661A12.418 12.418 0 0025 12.5c0-3.339-1.3-6.478-3.661-8.839zM12.5 4.67a1.878 1.878 0 110 3.756 1.878 1.878 0 010-3.756zm1.878 15.85h-3.756a1.603 1.603 0 010-3.206h.046v-3.949a1.833 1.833 0 01.263-3.646H12.5c1.012 0 1.832.82 1.832 1.833v5.762h.046a1.603 1.603 0 110 3.206z"/></symbol><symbol viewBox="0 0 31 30" id="kindergarten" xmlns="http://www.w3.org/2000/svg"><path d="M28.636 27.272h-1.363v-8.181h1.373a1.364 1.364 0 000-2.728H1.373a1.364 1.364 0 100 2.728h1.354v8.181H1.364a1.364 1.364 0 100 2.728h12.272v-4.092a1.364 1.364 0 112.728 0V30h12.272a1.364 1.364 0 100-2.728zm-4.727-14.999c0-.753-.61-1.364-1.364-1.364h-7.092V8.182h5.003c.753 0 1.364-.61 1.364-1.364V1.364C21.82.61 21.21 0 20.456 0H14.09c-.753 0-1.364.61-1.364 1.364v9.545h-5.27c-.754 0-1.364.61-1.364 1.364v1.363H23.91v-1.363z"/></symbol><symbol viewBox="0 0 25 25" id="lifebuoy" xmlns="http://www.w3.org/2000/svg"><path d="M12.5 0C5.635 0 0 5.675 0 12.5 0 19.367 5.675 25 12.5 25 19.366 25 25 19.325 25 12.5 25 5.638 19.326 0 12.5 0zm5.119 2.787c1.955 1.034 3.609 2.64 4.643 4.594l-4.1 1.8a6.596 6.596 0 00-2.343-2.344l1.8-4.05zM7.38 2.737l1.8 4.1a6.595 6.595 0 00-2.344 2.345l-4.05-1.8c1.034-1.956 2.64-3.61 4.594-4.644zm0 19.476a11.055 11.055 0 01-4.594-4.594l4.05-1.8a6.594 6.594 0 002.345 2.344l-1.8 4.05zM7.373 12.5c0-2.827 2.3-5.127 5.127-5.127s5.127 2.3 5.127 5.127-2.3 5.127-5.127 5.127A5.133 5.133 0 017.373 12.5zm10.246 9.713l-1.8-4.05a6.595 6.595 0 002.344-2.345l4.1 1.8c-1.035 1.956-2.69 3.561-4.644 4.595z"/></symbol><symbol viewBox="0 0 16 16" id="link" xmlns="http://www.w3.org/2000/svg"><path d="M16 1.714v12.572c0 .947-.768 1.714-1.714 1.714H1.714A1.714 1.714 0 010 14.286V1.714C0 .767.767 0 1.714 0h12.572C15.233 0 16 .767 16 1.714zm-3.143.572H8.858c-.761 0-1.146.923-.606 1.463l1.142 1.142-6.983 6.983a.429.429 0 000 .607l1.108 1.108a.429.429 0 00.607 0l6.983-6.983 1.142 1.142c.537.537 1.463.16 1.463-.606v-4a.857.857 0 00-.857-.856z"/></symbol><symbol viewBox="0 0 59 32" id="link-vector" xmlns="http://www.w3.org/2000/svg"><path d="M53.898 2l-28.013 8.097A.758.758 0 0125 9.498l-1.378-7.205a.757.757 0 00-1.26-.406L3.044 20.21a.755.755 0 00.438 1.299l2.606.263c.088.008.176 0 .255-.016L55.548 9.69a.752.752 0 00.574-.733V5.076c.016-.47-1.754-3.172-2.224-3.077z"/><path d="M48.79 4.669c-1.554.279-3.108.613-4.67.837-1.395.19-2.758.374-4.057.98-.335.16-.733.215-1.1.327-.67.199-1.339.382-2 .597-.303.096-.582.32-.877.359-1.45.191-2.853.526-4.176 1.163-1.171.024-2.175.542-3.243.949-.263.104-.534.191-.805.287l-.94.303c-.36.12-.734.247-1.085.303a1.442 1.442 0 01-1.052-.152c-.366-.2-.541-.574-.63-.996-.19-1.49-.254-2.16-.446-3.116-.087-.447-.183-.9-.279-1.347l-.143-.614-.104-.406-.04-.152c-.08-.263-.087-.55-.199-.813-.151-.255-.534-.302-.725-.103-.207.167-.43.327-.677.502l-.39.27-.567.407c-.86.614-1.65 1.371-2.43 2.112-.925.877-1.794 1.825-2.702 2.718-1.323 1.299-2.598 2.63-3.786 4.049a141.837 141.837 0 01-4.917 5.594l-.327.343-.295.295a1.162 1.162 0 01-.183.151c-.135.104-.31.215-.486.35-.183.16-.064.447.12.44l.59.15c.11.032.23.056.358.032l.096-.015.047-.008.12-.024.47-.096 1.873-.398c1.873-.415 3.73-.901 5.579-1.395 1.73-.47 3.427-1.012 5.156-1.49l15.334-4.216 3.666-1.068a39.252 39.252 0 011.849-.47l6.91-1.579 6.59-1.593c.032 0 .08-.016.08-.056 0-.096.008.135.008-.55l.016-1.443v-.67c0-.023 0-.039-.016-.055l-.008-.016-.064-.111-.151-.247a7.225 7.225 0 00-.359-.503c-.239-.31-.558-.661-.749-.78-.016 0-.056-.048-.04-.025-.008.016.024-.023.056-.055l.088-.096c.055-.064.111-.135.159-.2a3.63 3.63 0 00.271-.382c.295-.287.367-.685.406-.693.024-.096-.016-.151-.008-.144 0 .008.04.08-.015.184-.024.016-.056.135-.096.223a1.61 1.61 0 01-.144.255c-.032.04-.055.08-.095.112a.515.515 0 00-.056.063l-.032.048.008-.008.088-.08c.12-.12.295-.175.47-.215.359-.063.765-.008 1.203.255.295.184.566.375.805.622.24.263.43.502.606 1.036.04.183.088.359.08.55v.494l.024.86c.008.59-.016 1.109-.216 1.738-.055.183-.031.454-.023.678.04.334-.032.7-.271.956-.232.263-.55.35-.893.478l-1.124.335-.996.27c-.661.176-1.33.335-2 .487l-4.033.885c-1.052.239-2.096.573-3.14.844-.677.184-1.363.351-2.048.51-.996.232-2 .415-2.989.686-.741.207-1.434.51-2.207.287-.16-.048-.55.071-.662.199-.446.486-1.068.598-1.69.733-1.673.383-3.355.733-5.02 1.148-1.236.303-2.455.67-3.666 1.052-1.881.597-3.73 1.267-5.611 1.857-1.57.494-3.172.908-4.758 1.363-.366.103-.717.27-1.084.366-.677.183-1.37.446-2.04.478-.741.04-1.299.144-1.88.622-.328.263-.917.39-1.396.478a9.17 9.17 0 01-.94.112l-.47.031c-.167.008-.271.008-.59.048a3.95 3.95 0 01-.916.024c-.311-.016-.526-.127-.79-.191a7.948 7.948 0 00-1.641-.263 6.199 6.199 0 01-1.092-.2 4.527 4.527 0 01-.526-.159 1.525 1.525 0 01-.247-.326 1.988 1.988 0 01-.279-1.013c0-.366.128-.605.263-.844.136-.247.303-.526.55-.821.239-.295.59-.582.893-.869l.916-.86.646-.63 1.131-1.156 6.017-6.415c.79-.837 1.618-1.634 2.44-2.447a154.482 154.482 0 013.888-3.698l2.63-2.415a2.888 2.888 0 011.73-.853c.55-.08 1.347.168 1.753.582.335.335.67.83.845 1.586.095.494.199.973.319 1.45l.358 1.411c.096.39.175.781.247 1.172.072.39.136.78.2 1.18l.04.294.023.152-.008.024-.024.103c-.016.088-.024.215.072.247.088.024.175-.04.255-.071l2.447-.893c.414-.16.829-.359 1.259-.454 2.997-.67 5.85-1.841 8.814-2.622 2.4-.638 4.83-1.14 7.245-1.674 1.873-.414 3.745-.781 5.618-1.172.12-.023.24-.087.367-.111 1.076-.2 1.53.151 1.243.988-.263.741-.845 1.291-1.793 1.554-1.044.287-2.104.534-3.148.797l.04.112z"/><path d="M29.169 30.93l-3.212-6.551a.66.66 0 01.478-.94l30.094-5.372a.656.656 0 00.534-.773L54.95 6.208a.669.669 0 00-.781-.526L23.82 11.715a.662.662 0 01-.789-.662l.104-7.595a.665.665 0 00-1.1-.51L.845 21.486a.66.66 0 00.223 1.123l27.296 9.23c.55.199 1.06-.383.805-.91z"/><path d="M24.936 24.848a3.665 3.665 0 01-.111-.877c.008-.279.12-.605.327-.845.207-.263.462-.374.733-.47a3.74 3.74 0 01.956-.23l1.02-.12.742-.064 1.386-.096c1.65-.087 3.276-.167 4.886-.685.414-.136.884-.167 1.33-.247.806-.152 1.619-.287 2.423-.454.367-.072.734-.28 1.084-.295 1.722-.08 3.411-.32 5.053-.861 1.37.064 2.622-.383 3.929-.71 1.307-.326 2.662-.502 3.93-.972a4.26 4.26 0 011.083-.239c.653-.032 1.466-.135 1.785-.167.231-.048.51-.008.686-.2.183-.19.063-.461.023-.693l-.43-1.904c-.51-2.28-.86-4.59-1.02-6.918l-.024-.383c-.008-.12-.024-.23-.032-.35a15.48 15.48 0 00-.08-.598.53.53 0 00-.414-.399c-.398-.007-.797.128-1.195.192-1.443.287-2.933.677-4.4.988-2.144.462-4.255.972-6.351 1.61a204.675 204.675 0 01-8.464 2.375c-1.443.374-2.957.574-4.44.82l-2.247.367-1.123.176-1.626.279a3.206 3.206 0 01-.821.024c-.255-.032-.454-.064-.694-.184a1.539 1.539 0 01-.59-.518 1.852 1.852 0 01-.27-.67c-.136-.477-.072-1.123-.064-1.697l.048-1.275.048-1.817.008-1.004c0-.24 0-.47-.016-.686-.032-.247-.407-.302-.55-.087l-.502.502-.231.239-.104.111-.271.263-2.311 2.176L4.175 20.96c-.597.542-.406.406-.454.47-.016.048.048.088.112.064l.032-.008.215.072 7.898 2.789 11.357 3.873c1.075.367 2.143.75 3.22 1.1.541.175 1.075.343 1.617.502l.407.12.207.055.104.024.047.016.024.008h.008l-.374 1.108v.008c-.024.088-.008.096-.016.072-.008-.016-.024-.04-.016-.032s.04.016.04.016c-.008 0-.024 0-.056.016-.048.024-.048.016.016-.008.032-.016.047-.008.04-.008-.008 0-.016 0-.024-.008l.047.032a.781.781 0 01.088.08c.096.119.12.318-.032.485a.533.533 0 01-.334.16c-.136.016-.263.032-.407.032-.78.016-1.498-.008-2.335-.39-1.211-.559-2.63-.718-3.738-1.515-.16-.112-.414-.183-.63-.223-3.84-.821-7.483-2.303-11.173-3.61-1.203-.43-2.446-.765-3.666-1.164a136.71 136.71 0 01-2.367-.789l-1.92-.693c-.367-.128-.75-.263-1.052-.423-.303-.175-.582-.27-.813-.518-.303-.335-.327-.924-.072-1.211.215-.303.534-.654.996-.909a3.5 3.5 0 01.462-.223c.231-.095.614-.454.702-.653.247-.702.836-1.164 1.41-1.65 1.546-1.315 3.116-2.606 4.639-3.945a79.936 79.936 0 003.291-3.076c1.658-1.634 3.26-3.316 4.933-4.941.694-.678 1.41-1.347 2.128-2.009l1.706-1.546c.31-.287.63-.566.932-.733.295-.152.574-.263.805-.319.231-.064.399-.135.71-.112a1.7 1.7 0 01.852.303c.367.271.47.487.654.797.175.303.326.757.31 1.34-.015.326-.04.637-.071.948-.04.398-.072.757-.096 1.1l-.024.502a2.208 2.208 0 000 .326c.008.375.08.741.231 1.148.088.223.128.518.136.82.008.152 0 .312 0 .463l-.008.231-.008.112c0 .016 0 .008-.008.016l-.112.175c-.056.08-.135.223-.103.343.032.143.135.16.27.167a.518.518 0 00.208-.048l.048-.024.151-.056a5.43 5.43 0 00.319-.135c.47-.223 1.171-.287 1.745-.31 2.55-.112 5.045-.646 7.524-1.244l10.081-2.526c1.315-.327 2.654-.598 3.985-.893l3.26-.677 1.299-.255a2.87 2.87 0 011.426 0c.415.103.869.382 1.156.725.279.319.486.725.598 1.251l.366 2.072.255 1.482.494 2.973c.136.821.263 1.658.478 2.439l.128.462.064.231.087.39c.12.574.311 1.204.231 1.722a2.286 2.286 0 01-.645 1.387c-.367.366-.79.59-1.403.71l-.853.135-.637.095-.909.112c-2.263.263-4.463.797-6.654 1.33-.51.128-1.02.296-1.538.36-3.603.454-7.11 1.41-10.688 1.976-1.45.231-2.9.422-4.351.614l-2.184.27-.502.056-.104-.016-.255-.016c-.095-.008-.19.056-.207.136-.008.072.016.151.032.239l.032.151.024.088.104.263.438 1.068.877 2.136c.055.135.151.263.207.398.47 1.196.23 1.77-.686 1.546-.813-.199-1.514-.805-2.016-1.849l-1.697-3.69a2.857 2.857 0 01-.128-.334l-.136-.032z"/></symbol><symbol viewBox="0 0 16 22" id="markder" xmlns="http://www.w3.org/2000/svg"><path d="M7.968 0C3.574 0 0 3.574 0 7.968c0 5.452 7.13 13.456 7.434 13.794a.718.718 0 001.067 0c.304-.338 7.434-8.342 7.434-13.794C15.935 3.574 12.361 0 7.968 0zm0 11.976a4.013 4.013 0 01-4.01-4.008 4.013 4.013 0 014.01-4.01 4.013 4.013 0 014.008 4.01 4.013 4.013 0 01-4.008 4.008z"/></symbol><symbol viewBox="0 0 490.8 490.8" id="next" xmlns="http://www.w3.org/2000/svg"><path d="M231.696 3.128c-4.237-4.093-10.99-3.975-15.083.262-3.992 4.134-3.992 10.687 0 14.82l227.115 227.136-227.136 227.115c-4.237 4.093-4.355 10.845-.262 15.083 4.093 4.237 10.845 4.354 15.083.262.089-.086.176-.173.262-.262l234.667-234.667c4.164-4.165 4.164-10.917 0-15.083L231.696 3.128z"/><path d="M274.363 237.795L39.696 3.128a10.668 10.668 0 00-15.083 15.083l227.115 227.136L24.592 472.461c-4.237 4.093-4.354 10.845-.262 15.083 4.093 4.237 10.845 4.354 15.083.262.089-.086.176-.173.262-.262l234.667-234.667c4.169-4.159 4.179-10.911.021-15.082z"/><path d="M224.144 490.68a10.667 10.667 0 01-7.552-18.219l227.136-227.115L216.592 18.232c-4.093-4.237-3.975-10.99.262-15.083 4.134-3.992 10.687-3.992 14.82 0l234.667 234.667c4.164 4.165 4.164 10.917 0 15.083L231.675 487.565a10.66 10.66 0 01-7.531 3.115z"/><path d="M32.144 490.68a10.667 10.667 0 01-7.552-18.219l227.136-227.115L24.592 18.232c-4.171-4.171-4.171-10.933 0-15.104s10.933-4.171 15.104 0l234.667 234.667c4.164 4.165 4.164 10.917 0 15.083L39.696 487.544a10.665 10.665 0 01-7.552 3.136z"/></symbol><symbol viewBox="0 0 49 89" id="pay-vector" xmlns="http://www.w3.org/2000/svg"><path d="M5.213 61.177L16.8 56.48c.439-.175.665-.717.505-1.196L1.77 10.03c-.183-.526.11-1.108.614-1.236l28.28-6.857c.505-.12.987.263 1.031.82l3.97 47.034c.043.534.49.909.972.837l9.546-1.563c.636-.103 1.14.566.928 1.228l-11.95 36.913c-.197.598-.87.813-1.33.422L4.987 62.772c-.526-.447-.402-1.34.226-1.595z"/><path d="M14.621 58.586l1.024-.487.511-.24.746-.334c.336-.167.629-.343.855-.598a1.83 1.83 0 00.424-.989c.044-.375-.044-.71-.153-1.077-.059-.183-.132-.358-.198-.534l-.182-.47a166.72 166.72 0 00-1.2-2.895c-1.008-2.352-1.995-4.665-2.653-7.217-.168-.662-.453-1.331-.68-2.001L11.88 38.09c-.182-.558-.263-1.188-.482-1.682-1.06-2.448-1.974-4.936-2.632-7.552-.935-1.866-1.418-3.883-2.017-5.901-.6-2.017-1.345-4.011-1.82-6.053a10.089 10.089 0 00-.526-1.658 69.055 69.055 0 01-.965-2.432l-.446-1.229-.366-1.036c-.073-.247-.219-.502-.124-.766.08-.263.336-.39.578-.414l1.93-.423a96.8 96.8 0 009.802-2.68c1.71-.566 3.537-1.004 5.328-1.435 2.127-.51 4.276-.949 6.41-1.435l1.835-.415 1.689-.367c.168-.032.336-.08.504-.087.169 0 .337.095.446.23.117.144.154.336.146.527l.015.55.11 3.03c.124 4.594.3 9.211.54 13.828.125 2.345.41 4.721.651 7.082.483 4.72 1.024 9.425 1.477 14.154.168 1.77.321 3.549.468 5.335l.11 1.332.072.933c.022.35.088.678.183.965.183.582.71 1.076 1.272 1.196.27.055.57.063.884.024l.907-.136 3.845-.542 1.922-.255.958-.128c.204-.032.204-.024.27-.032l.16-.016c.147 0 .308-.072.432.032.073.056.117.16.11.255-.008.104-.059.192-.088.28l-.095.262-.248.718-1.177 3.477-2.354 6.946-4.715 13.9-2.317 6.658-.46 1.363-.22.678v.008c.008.024-.007.032-.029.024l-2.376-2.001-4.78-4.052-13.625-11.698a1621.914 1621.914 0 00-3.86-3.31l-1.9-1.69-.936-.861-.234-.215-.058-.056-.03-.024-.54.734-.037.04c-.044.031.007 0 .022.007-.007.008-.058-.056-.007.016.022.056.022.048-.008-.008-.022-.04-.022-.024-.007-.016.022.016-.03-.016-.058-.024a.462.462 0 00-.11-.015.34.34 0 00-.22.08c-.13.103-.226.342-.109.63.139.286.329.597.577.94.68.933 1.345 1.763 2.435 2.576 1.586 1.18 2.99 2.791 4.7 3.748.24.135.533.415.767.646 4.167 4.17 8.757 7.815 13.23 11.603 1.463 1.236 2.873 2.543 4.32 3.82l1.419 1.235c.314.263.621.559.943.79.321.215.606.414.986.414.366 0 .739-.183.973-.47.219-.295.358-.654.497-1.06l.621-2.002.578-1.763c.46-1.34.994-2.615 1.045-3.963.014-.287.256-.989.424-1.204.621-.837.95-1.97 1.3-3.086.951-3.03 1.88-6.06 2.859-9.083.723-2.233 1.498-4.45 2.295-6.643l1.886-5.095.475-1.276.614-1.715c.117-.334.197-.677.227-.98.029-.296.044-.567-.044-.87-.154-.606-.65-1.132-1.155-1.291a2.9 2.9 0 00-1.243-.112c-2.66.383-5.328.765-7.996 1.14l-.242.032c-.073.008-.058 0-.087 0l-.125-.016c-.073-.008-.146-.016-.204-.072-.059-.047-.073-.127-.066-.207 0-.096.007-.104 0-.263-.051-.654-.11-1.3-.22-1.906-.24-1.34-.358-2.4-.167-3.676.102-.718-.008-1.834-.11-2.735-.132-1.165-.344-2.313-.556-3.437-.248-1.356-.497-2.624-.402-4.123.052-.806-.11-1.89-.27-2.783-.687-3.924-.994-7.935-1.236-11.954l-.46-8.174-.22-4.082-.13-2.233c-.023-.311-.037-.622-.074-.925a3.12 3.12 0 00-.234-.798A2.387 2.387 0 0031.843.532c-.497-.255-.994-.319-1.616-.2-1.747.4-3.5.806-5.255 1.205-5.987 1.371-11.93 2.91-17.872 4.465-1.162.303-2.347.63-3.516.838l-.446.08-.797.167c-.57.104-1.06.319-1.41.654-.38.343-.673.845-.783 1.38-.117.526-.087 1.036.103 1.634l.577 1.675.417 1.156.862 2.305c1.272 3.31 2.296 6.69 3.319 10.071.241.79.438 1.603.724 2.36 2.002 5.296 3.552 10.75 5.445 16.07.768 2.152 1.564 4.29 2.369 6.426l1.213 3.198.307.798.037.103.007.016.022.032.036.072c.073.088.08.247-.022.31l-.087.057c-2.734 1.26-5.46 2.512-8.194 3.772-.198.087-.417.143-.614.239-1.704.805-2.106 1.467-1.053 1.81.936.303 2.2.183 3.772-.462 1.732-.718 3.45-1.468 5.168-2.21l.065.033z"/></symbol><symbol viewBox="0 0 21 25" id="pazl" xmlns="http://www.w3.org/2000/svg"><path d="M17.188 8.854c-.54 0-1.074.12-1.562.352V5.729a.521.521 0 00-.521-.521h-2.956a3.646 3.646 0 10-6.589 0H.52a.52.52 0 00-.52.52v4.443a.52.52 0 00.868.388 2.604 2.604 0 110 3.882.52.52 0 00-.868.388v4.442a.521.521 0 00.52.521h5.04a3.646 3.646 0 106.589 0h2.956a.52.52 0 00.52-.52v-3.478a3.645 3.645 0 101.563-6.94z"/></symbol><symbol viewBox="0 0 70 110" id="pensil" xmlns="http://www.w3.org/2000/svg"><path d="M18.352 26.434l-2.978.232a.355.355 0 00-.285.17l-2.558 4.25a.32.32 0 00-.042.135 884.436 884.436 0 00-1.697 29.012 892.953 892.953 0 00-.786 35.938c-.01 4.746 3.788 8.737 8.948 9.406 4.633.6 9.668 1.059 15.063 1.27 3.657.144 7.162.167 10.491.095 5.766-.126 10.474-4.367 10.627-9.599.65-22.38 1.299-44.76 1.954-67.143.003-.166-.133-.306-.314-.324l-38.35-3.443a.337.337 0 00-.073.001z"/><path d="M13.098 33.257c-.269 2.74-.503 5.507-.81 8.217-.275 2.423-.55 4.795-.552 7.279 0 .638-.076 1.33-.114 2l-.2 3.643c-.024.553.028 1.137-.034 1.65a76.802 76.802 0 00-.353 3.777 46.138 46.138 0 00-.06 3.792c-.28 1.97-.201 3.918-.205 5.9.002 1.983-.104 4.003 0 5.962.025.522.03 1.118-.013 1.641-.243 3.201-.24 6.4-.238 9.617.002 1.727-.017 3.449-.062 5.169l-.083 2.58c-.027.86-.092 1.727-.07 2.546.098 1.77.87 3.596 2.17 4.985 1.51 1.682 3.726 2.804 6.08 3.165 3.502.469 7.055.747 10.59.869 4.734.146 9.503.138 14.263-.031l.912-.031c.31-.008.563-.038.851-.053.283-.005.554-.063.83-.101l.417-.06.406-.099a10.59 10.59 0 003.084-1.235c1.891-1.142 3.339-2.884 4.016-4.857.18-.492.284-.998.372-1.51l.078-.772.036-.83.14-3.34c.128-3.343.206-6.699.277-10.045l.13-9.367.533-27.777c.029-2.227.062-4.445.09-6.672.016-1.111.049-2.226.086-3.336l.182-4.903c0-.01.008-.028-.008-.029l-.015-.005h-.01l-.151-.017-1.95-.186-3.898-.361-19.478-1.749c-3.685-.336-7.357-.691-11.037-.89-.515-.03-.857-.075-1.014-.14.028-.405.042-.58.054-.797-.155 1.213-.043.339-.08.607l.028-.018c.021-.008.043-.021.07-.034.712-.335 1.295-.694 3.09-.767 1.216-.054 2.342-.074 3.822.116 2.142.275 4.43.293 6.518.722.293.061.73.087 1.084.105 6.37.297 12.722 1.006 19.083 1.601l2.918.247 1.569.124c.16.013.321.03.465.061.144.03.283.056.395.161a.525.525 0 01.185.355c.021.129.036.267.035.413l-.013.482-.104 3.69c-.06 1.786-.158 3.57-.187 5.352-.025 1.343.022 2.646-.275 3.862-.062.252-.067.962-.014 1.21.21.952.152 2.066.11 3.176l-.325 8.998c-.064 2.22-.092 4.443-.098 6.653 0 3.435 0 6.856.005 10.291-.018 2.871-.089 5.759-.128 8.638-.012.667.024 1.327.007 1.988-.026 1.224-.004 2.508-.123 3.656-.13 1.276-.178 2.272-.002 3.45.099.662.056 1.71.013 2.57a43.347 43.347 0 01-.122 1.64c-.055.551-.092 1.065-.193 1.67-.233 1.404-.705 2.639-1.33 4.052a3.252 3.252 0 01-.326.599c-.137.201-.275.417-.437.622-.341.4-.703.798-1.083 1.111a12.572 12.572 0 01-2.699 1.822c-.98.487-2.016.89-3.106 1.116a6.82 6.82 0 01-.818.154c-.274.034-.546.101-.824.111l-.831.059c-.279.019-.53.016-.792.027l-3.142.064c-5.689.086-11.375-.07-17.04-.541a128.288 128.288 0 01-3.33-.324l-1.667-.2-.908-.148c-.299-.062-.595-.143-.887-.214-.91-.262-1.792-.599-2.597-1.059a10.93 10.93 0 01-2.223-1.605c-.678-.605-1.227-1.313-1.716-2.047a10.36 10.36 0 01-1.105-2.377c-.236-.835-.417-1.691-.415-2.557-.027-.45-.003-.81-.002-1.207l.016-1.172.08-4.69c.027-1.23.065-2.476.032-3.684-.067-2.795.006-5.579.148-8.368.166-3.361.175-6.701.194-10.045.005-.776-.015-1.567.027-2.337.159-2.684.245-5.363.388-8.043.127-2.677.239-5.354.424-8.033.292-4.329.672-8.65 1.032-12.97l.21-2.474.11-1.235.055-.617.013-.155c.01-.052.007-.156.024-.231.022-.084.05-.168.077-.247l.02-.06c-.003-.015.023-.018-.007-.034l.013-.028.061-.115 1.453-2.262.706-1.1.413-.648c.09-.147.19-.284.309-.391a1.02 1.02 0 01.452-.229c.107-.023.218-.046.34-.054l.4-.038c.084-.005.168-.015.252-.02 2.1-.106 2.782.122 1.826.624a5.82 5.82 0 01-.956.384c-.187.057-.385.108-.598.16-.208.05-.49.099-.554.128-.06.026-.128.027-.178.067-.056.04-.067.116-.098.17l-.043.088a8.854 8.854 0 00-.11.199c-.08.133-.164.27-.248.413l-1.906 3.077a.233.233 0 00-.046.111l-.014.18-.037.528-.076 1.06.098.015z"/><path d="M19.72 106.33c-4.988-.653-8.665-4.509-8.664-9.086l.413-8.868 4.436 1.181 7.543 2.223 11.223.87 10.4-.623 10.069-1.33-.466 7.752c-.14 5.045-4.682 9.129-10.254 9.241a168.32 168.32 0 01-10.14-.109 163.299 163.299 0 01-14.56-1.251z"/><path d="M52.697 91.418c-.545.012-1.087.06-1.634.023-.488-.025-.965-.067-1.415.135-.117.051-.256.047-.38.067-.23.035-.465.066-.696.115-.106.02-.206.113-.305.103-.505-.057-.992-.028-1.46.163-.407-.127-.76.04-1.138.134-.378.09-.769.088-1.136.254a.592.592 0 01-.316.053c-.636-.096-1.247.006-1.87.076a6.213 6.213 0 01-2.014-.075c-.356-.075-.728-.066-1.09-.056l-1.296.07c-.63.025-1.251.055-1.882.16-.84.134-1.694.236-2.547.265-.432.02-.872-.06-1.303-.122-.855-.146-1.716-.287-2.572-.432a40.854 40.854 0 00-1.943-.233c-.61-.054-1.221-.086-1.83-.158a73.34 73.34 0 01-5.373-.854c-.429-.089-.86-.15-1.29-.23a7.676 7.676 0 01-.632-.163c-.77-.23-1.534-.49-2.299-.733a83.788 83.788 0 01-3.262-1.11c-.607-.233-1.203-.483-1.857-.612-.185-.033-.192-.146-.037-.32.274-.297.53-.623.907-.717.257-.065.487-.096.7.042.317.203.754.18 1.008.513.036.047.11.06.173.069 1.133.135 2.125.597 3.174.95.344.111.705.177 1.055.266.228.063.452.116.68.183.325.096.642.227.979.292.254.051.516.044.676.314.035.056.167.077.23.04.233-.151.43-.077.64-.024.554.14 1.1.317 1.667.422.415.083.84.144 1.264.174.665.044 1.327.057 1.988.088.553.028 1.096.11 1.648.143.128.008.258-.016.386-.004.231.023.48.006.685.108.23.108.415.146.664-.01.14-.085.335-.05.496-.015.204.049.4.141.597.229.236.104.456.21.736.098.147-.059.34.002.495.065.687.287 1.414.3 2.132.293.982-.03 1.962-.106 2.932-.183a49 49 0 011.146-.048c1.186-.041 2.372-.024 3.564-.015.233 0 .47.005.696-.048a5.846 5.846 0 011.587-.116c.642.02 1.27-.112 1.888-.259.146-.036.284-.095.433-.095 1.025-.01 2.002-.333 3.005-.452.814-.1 1.642-.13 2.468-.202.637-.051 1.278-.09 1.92-.145.04-.002.082-.03.122-.033.367-.023.554.208.494.639-.051.378-.237.635-.564.7-.361.073-.73.114-1.095.168l.002.05zM13.51 79.507c.442.282.899.546 1.328.85.382.273.76.547 1.262.594.128.012.242.086.362.13.218.08.44.155.664.222.102.029.238-.004.319.05.406.28.86.455 1.374.476.297.282.705.266 1.087.324.383.063.744.205 1.153.175a.577.577 0 01.313.059c.548.306 1.167.396 1.778.508.657.115 1.293.3 1.907.592.326.15.693.216 1.05.281.426.088.866.1 1.294.157a9.2 9.2 0 001.887.088c.846-.036 1.698-.098 2.536-.094.427-.015.852.073 1.274.133.85.117 1.699.239 2.557.303.647.037 1.291.044 1.938.01.601-.019 1.202-.105 1.801-.155a61.91 61.91 0 005.292-.646 29.33 29.33 0 001.248-.254c.206-.042.417-.075.627-.099.78-.097 1.566-.195 2.339-.334a62.2 62.2 0 003.303-.704c.62-.148 1.25-.281 1.816-.571.16-.08.248 0 .257.221.012.387.053.78-.177 1.08-.153.203-.308.364-.582.38-.393.021-.735.288-1.167.16-.063-.017-.134.01-.191.038-1.023.51-2.176.622-3.3.794-.366.06-.725.164-1.087.233-.236.044-.472.089-.713.12-.35.042-.703.057-1.045.127-.257.052-.502.15-.77-.036-.058-.04-.194-.011-.233.05-.154.223-.373.229-.592.247l-1.77.12c-.433.034-.865.107-1.296.18-.668.114-1.339.272-2.014.354-.566.08-1.137.1-1.71.138-.135.01-.262.052-.396.057-.244.013-.5.06-.727-.02-.252-.086-.449-.107-.69.072-.136.1-.343.083-.515.064-.216-.026-.434-.11-.641-.19-.251-.096-.482-.194-.768-.072-.154.063-.354.015-.518-.048-.718-.28-1.46-.301-2.213-.323l-1.53-.027-1.532-.063c-.4-.023-.797-.087-1.19-.136-1.239-.158-2.442-.458-3.628-.788-.234-.063-.466-.14-.713-.158a5.233 5.233 0 01-1.602-.404c-.618-.242-1.274-.353-1.935-.468-.152-.026-.32-.027-.46-.085-.972-.42-2.042-.577-3.019-.985-.79-.324-1.534-.731-2.274-1.138-.573-.312-1.123-.659-1.669-1-.038-.025-.087-.028-.12-.048-.308-.206-.278-.487.08-.776.32-.255.64-.344.932-.201.32.153.64.325.956.487l.054-.051z"/><path d="M42.73 80.476c.13-.528.226-1.064.397-1.59.151-.468.312-.921.18-1.412-.035-.124.007-.258.01-.39.006-.233.017-.471.012-.705-.003-.108-.086-.225-.053-.32.169-.487.23-.971.081-1.468.22-.376.086-.76.037-1.143-.048-.388.012-.78-.134-1.163a.499.499 0 01-.015-.318c.194-.617.156-1.239.135-1.864a5.797 5.797 0 01.274-1.996c.116-.35.126-.724.135-1.084.014-.433-.025-.87-.027-1.303.001-.63-.03-1.255-.153-1.886a26.65 26.65 0 01-.361-2.533c-.04-.43.044-.864.09-1.29.098-.863.233-1.722.31-2.585.056-.65.064-1.298.055-1.952-.005-.61-.065-1.212-.077-1.822-.035-1.801-.054-3.601-.084-5.402-.008-.434-.048-.865-.06-1.3a6.53 6.53 0 01.013-.647c.056-.801.128-1.601.173-2.398.058-1.147.09-2.295.154-3.442.035-.651.096-1.3-.025-1.951-.035-.183.087-.239.345-.16.442.134.902.244 1.154.562.174.215.305.418.227.676-.112.379.08.785-.204 1.148-.04.051-.03.13-.013.19.26 1.132.058 2.25-.026 3.371-.025.37.008.737.009 1.107 0 .24-.006.478-.023.715-.024.345-.08.693-.073 1.04.009.263.083.516-.191.743-.057.046-.051.187.01.235.24.195.203.407.188.625-.041.583-.109 1.164-.128 1.743-.014.433.01.863.05 1.294.066.672.18 1.337.236 2.008.047.559.04 1.12.065 1.681.007.132.052.262.054.389.005.239.052.49-.044.709-.103.242-.133.435.076.672.115.134.095.337.068.501-.037.212-.127.422-.216.626-.109.247-.222.479-.069.751.081.147.024.348-.046.51-.287.713-.295 1.449-.25 2.183.06.998.162 1.993.227 2.987.027.391.021.781.02 1.171.007 1.214-.104 2.426-.227 3.637-.022.238-.055.48-.017.716.09.546.042 1.085-.055 1.625-.115.646-.053 1.298.02 1.95.016.153.065.307.038.456-.164 1.039.016 2.083-.073 3.12-.07.84-.23 1.673-.374 2.508-.11.647-.246 1.287-.372 1.932-.008.044.01.089.002.132-.085.365-.404.473-.886.278-.423-.167-.664-.42-.64-.755.025-.369.078-.731.114-1.1 0-.01-.02-.01-.042-.012zm-16.623-40.04c-.13.538-.221 1.083-.393 1.619-.151.473-.313.941-.176 1.437.034.129-.007.263-.011.394-.006.239-.018.482-.013.72.003.108.086.23.052.33-.169.497-.23.991-.083 1.497-.22.382-.086.775-.038 1.168.048.392-.013.794.132 1.182a.526.526 0 01.015.328c-.194.627-.158 1.263-.138 1.903a5.897 5.897 0 01-.277 2.035c-.116.359-.127.738-.136 1.108-.015.443.024.884.025 1.328-.002.643.034 1.279.156 1.92.161.858.284 1.718.358 2.576.04.436-.04.88-.092 1.316-.098.876-.23 1.755-.307 2.633-.057.66-.06 1.322-.058 1.985.005.62.07 1.238.08 1.857.033 1.835.055 3.67.088 5.504.007.44.046.88.058 1.325.007.22.002.439-.014.662-.056.816-.13 1.63-.17 2.447-.06 1.166-.094 2.339-.154 3.505-.035.661-.092 1.325.023 1.986.035.187-.087.243-.345.164-.442-.134-.903-.244-1.16-.572-.172-.22-.303-.428-.226-.69.113-.384-.084-.8.2-1.173.042-.052.031-.13.014-.195-.263-1.151-.055-2.29.025-3.435.026-.374-.007-.75-.007-1.126 0-.244.007-.487.024-.73.02-.355.081-.702.074-1.058-.008-.269-.082-.527.193-.759.057-.05.05-.187-.01-.24-.24-.194-.203-.416-.187-.635.041-.592.104-1.183.124-1.776a11.02 11.02 0 00-.048-1.32c-.065-.68-.18-1.36-.239-2.047-.046-.568-.044-1.143-.063-1.71-.007-.132-.051-.266-.053-.398-.005-.244-.051-.5.045-.723.103-.248.133-.446-.076-.687-.114-.134-.094-.342-.066-.511.037-.217.127-.431.217-.64.109-.252.222-.49.07-.766-.081-.151-.024-.353.041-.52.288-.728.297-1.473.252-2.222-.058-1.012-.16-2.028-.228-3.046-.026-.396-.02-.795-.019-1.195-.005-1.239.108-2.47.227-3.706.022-.242.055-.489.018-.725-.09-.556-.041-1.104.056-1.654.117-.661.05-1.323-.022-1.986-.016-.152-.064-.31-.038-.46.165-1.058-.013-2.121.072-3.179.07-.854.232-1.707.372-2.556.11-.657.247-1.311.369-1.967.008-.043-.01-.088-.002-.132.085-.375.405-.482.88-.288.424.172.664.43.64.765-.02.374-.073.746-.115 1.119.015.01.037.012.064.014zM30.18 5.494c2.616-3.377 8.128-3.314 10.495.124l15.388 22.344a.297.297 0 01-.058.398l-10.403 9.032a.37.37 0 01-.501-.015l-9.515-9.952c-.133-.141-.374-.139-.518-.001l-10.02 9.805c-.15.147-.41.134-.536-.026L14.88 25.909c-.094-.103 15.3-20.415 15.3-20.415z"/><path d="M34.971 2.401a7.364 7.364 0 012.562.397c.411.122.78.321 1.151.502.341.225.694.433.98.712.543.453.934 1.016 1.3 1.564.336.541.71 1.07 1.145 1.58.226.261.405.581.607.87l1.114 1.583c.17.24.42.452.55.686.644 1.175 1.37 2.293 2.267 3.322.43.96 1.138 1.737 1.788 2.572.652.836 1.225 1.738 1.947 2.52.189.21.384.46.518.704.825 1.476 1.843 2.846 2.855 4.233.448.617.885 1.246 1.306 1.88l.615.96.648 1.058c.094.172.179.325.206.498.02.187-.101.358-.25.472-.221.198-.526.416-.714.57-.203.162-.407.33-.605.492-.398.338-.796.682-1.193 1.02-.935.811-1.836 1.656-2.761 2.477a86.348 86.348 0 00-3.91 3.648l-.347.346c-.173.163-.34.327-.513.491a2.765 2.765 0 01-.432.319.852.852 0 01-.494.134c-.195-.005-.333-.076-.47-.153a1.965 1.965 0 01-.431-.327l-.42-.401-.286-.265-.554-.515c-.735-.69-1.47-1.386-2.21-2.077-.862-.823-1.65-1.734-2.457-2.615L36.075 29l-.302-.33-.108-.122-.056-.068-.117-.14c-.038-.044-.08-.106-.15-.114-.071-.013-.121.036-.166.075l-.144.128-.188.168-.335.319a185.652 185.652 0 00-3.954 3.878l-3.595 3.69-1.142 1.146a1.943 1.943 0 01-.56.377 1.148 1.148 0 01-.626.11c-.24-.026-.387-.107-.568-.213-.181-.107-.352-.283-.511-.471l-1.317-1.486-2.273-2.56-4.55-5.113-1.427-1.588c-.12-.108-.136-.22-.184-.335l-.126-.34-.008-.02v-.004c-.17.01.227-.012.186-.014v-.005l.001-.01-.002-.041-.003-.084-.002-.167c-.022-.108.035-.236.086-.364.052-.123.088-.251.15-.374l.243-.346.262-.373c.35-.5.712-.984 1.075-1.464l4.105-5.34 5.837-7.67c1.11-1.449 2.24-2.878 3.22-4.388.277-.424.473-.498.558-.224.152.476.358.905.04 1.726-.216.557-.442 1.062-.94 1.615-.718.802-1.236 1.796-2.08 2.499-.12.101-.238.277-.332.426-1.654 2.64-3.682 5.072-5.607 7.564-.627.817-1.21 1.658-1.817 2.489l-1.2 1.602c-.587.771-1.203 1.528-1.75 2.315l-.212.32c-.044.095-.196.204-.06.29.14.179.234.35.375.701.046.133.305.415.438.482.519.257.887.72 1.266 1.176 1.03 1.23 2.043 2.474 3.094 3.691.774.902 1.58 1.787 2.393 2.653l1.368 1.437c.128.123.248.235.363.329.069.04.179.018.23-.05l.16-.192c.053-.085.498-.557.835-.913 1.085-1.147 2.215-2.264 3.325-3.401.258-.262.481-.544.739-.806.476-.48.94-1.006 1.455-1.4.57-.437.976-.808 1.29-1.388.09-.163.239-.342.413-.524.084-.09.179-.178.268-.267.145-.132.284-.27.418-.393.21-.19.414-.413.64-.541a1.61 1.61 0 01.655-.215c.243-.026.517.024.694.117.188.088.388.227.557.421.191.233.383.46.57.688.102.135.21.266.322.397.226.257.478.501.794.721.34.24.69.67.959 1.032 1.2 1.596 2.623 3.05 4.084 4.473l1.694 1.643.215.205.105.103c.028.03.028.025.048.04l.14.113c.038.035.09.074.155.04.055-.034.085-.089.124-.129l.08-.093.328-.306.667-.623 1.34-1.242c.812-.752 1.653-1.488 2.489-2.229.887-.79 1.783-1.57 2.689-2.344l1.358-1.157.171-.146.022-.013.044-.03c.037-.021.02-.06.001-.084l-1.554-2.352c-.357-.543-.717-1.1-1.118-1.602-.932-1.17-1.751-2.395-2.528-3.645-.94-1.51-2.021-2.924-3.108-4.338-.25-.328-.533-.648-.752-.989-1.514-2.402-3.31-4.631-4.89-6.99l-.946-1.435-.233-.36-.208-.284c-.122-.201-.299-.363-.46-.538-.658-.683-1.58-1.16-2.594-1.375-1.566-.34-3.353-.026-4.701.937-.083.065-.157.155-.24.22-.195.135-.344.263-.475.354a.966.966 0 01-.363.16c-.208.032-.347-.087-.363-.399-.008-.27.04-.607.26-.917a2.67 2.67 0 01.395-.488 5.69 5.69 0 01.597-.45c1.031-.616 2.244-.939 3.44-.993l.011-.06z"/><path d="M40.511 5.01c-2.34-3.45-7.771-3.533-10.344-.153l-4.48 5.884a.294.294 0 00.034.403c.756.683 3.39 2.744 9.396 3.058 4.248.223 7.726-1.019 9.855-1.943.188-.084.255-.295.146-.455l-4.607-6.793z"/></symbol><symbol viewBox="0 0 21 39" id="pin" xmlns="http://www.w3.org/2000/svg"><path d="M14.75 21.897l1.74 15.954c.013.13-.17.175-.217.053l-5.665-15.135 4.142-.872z"/><path d="M14.529 23.529c.102.437.191.878.316 1.307.11.383.224.76.19 1.167-.008.105.023.216.034.32.02.198.042.392.055.588.006.089-.03.188-.005.269.122.399.186.8.147 1.219.141.307.097.629.1.95.002.324.06.645.013.97a.662.662 0 00.014.266c.144.507.17 1.025.202 1.545.017.28.05.557.097.832l.04.205c.013.066.03.146.04.182l.095.314c.08.257.108.534.133.778.028.25.028.443.036.634l.008.12c.028.354.028.642-.06.526a1.016 1.016 0 01-.09-.15c-.002-.027-.069-.058-.124-.147-.053-.088-.066-.202-.094-.296-.103-.382-.175-.676-.23-.9-.053-.222-.058-.139-.092-.189a2.163 2.163 0 01-.313-.526c-.013-.022-.077-.191-.124-.308l-.142-.382-.268-.767c-.164-.48-.3-.967-.46-1.446l-1.435-4.267-.324-1.03a7.87 7.87 0 00-.186-.507l-.37-.931-.186-.465-.048-.117-.005-.011-.008-.014-.014-.027.038-.012.424-.088 1.194-.258c.53-.116 1.058-.246 1.601-.285.153-.011.189-.08.106-.2-.144-.205-.27-.424-.552-.504-.19-.055-.365-.091-.573-.011-.3.114-.648.078-.925.28a.314.314 0 01-.155.039 6.74 6.74 0 00-1.042.127l-.26.053-.344.074-.668.156.355.88.089.239.075.219.144.437c.066.189.135.374.207.56.106.269.227.532.319.806.07.208.102.421.3.557.04.028.074.139.057.188-.063.189.011.352.078.521.18.452.368.898.537 1.355.125.338.233.681.33 1.028.15.537.277 1.08.432 1.618.13.448.285.889.427 1.332.033.103.044.213.08.313.064.188.108.394.216.551.12.178.183.325.147.543-.02.036.025.197.066.325.045.133.1.271.15.39.13.308.274.568.402.787.157.274.271.43.39.989.067.307.178.526.258.651.044.072.086.144.13.219l.061.116c.02.036.039.058.058.092.072.077.139.14.197.213.03.036.06.075.088.116l.084.122c.058.089.105.172.155.255l.183.302.041.064c.011.02.025.044.083.044a.317.317 0 00.152-.033c.034-.02.025-.03.036-.044.05-.109.12-.153.23-.239a.505.505 0 00.125-.155c.036-.1.091-.166.083-.416l-.003-.016c-.085-.911-.194-1.895-.31-2.86l-.174-1.428-.111-.762c-.028-.197-.064-.397-.058-.593.008-.457-.056-.9-.144-1.347-.106-.534-.12-1.077-.128-1.62-.003-.128.011-.255-.01-.38-.159-.856-.14-1.728-.258-2.587-.095-.696-.239-1.383-.369-2.072-.102-.532-.219-1.061-.327-1.593-.008-.036 0-.072-.008-.108-.07-.302-.244-.38-.476-.208a.656.656 0 00-.278.642c.04.305.092.607.136.91l-.033-.006z"/><path d="M15.476 28.548a188.406 188.406 0 01-3.264-1.493l-1.604-4.286 4.142-.872.726 6.651z"/><path d="M12.423 15.444c3.43-.578 4.36-.324 4.903-.116.186.072 2.898 1.139 3.09 2.934.26 2.468-4.35 5.313-8.536 5.793-2.808.321-7.152-.227-7.839-2.471-.512-1.676 1.244-3.555 1.584-3.901 1.258-1.28 3.122-1.618 6.798-2.239z"/><path d="M14.227 15.588c.476-.11.961-.185 1.438-.27.42-.073.861-.126 1.26.052.1.047.216.063.324.105.194.075.393.166.582.266.086.047.155.133.24.163.425.142.824.374 1.106.72.33.142.53.444.682.738.155.288.313.595.268.911a.854.854 0 00-.005.252 1.41 1.41 0 01-.116.754 2.989 2.989 0 01-.424.684c-.369.457-.782.884-1.197 1.335a3.971 3.971 0 01-.787.612c-.335.214-.695.383-1.055.555a7.505 7.505 0 01-1.618.576c-.748.163-1.499.296-2.244.38-.38.04-.756.132-1.135.18-.765.099-1.546.155-2.327.116a8.858 8.858 0 01-1.732-.26A7.308 7.308 0 016 22.89c-.679-.34-1.266-.84-1.421-1.435-.17-.587.047-1.288.432-1.922.183-.308.415-.59.656-.868l.363-.41a4.12 4.12 0 01.712-.626c.266-.177.56-.327.87-.457.906-.363 1.939-.557 2.967-.762.587-.113 1.174-.232 1.778-.257.17-.009.213-.078.128-.2-.144-.208-.272-.432-.58-.518-.207-.058-.401-.097-.634-.022-.338.11-.726.07-1.041.271a.395.395 0 01-.175.04c-1.05.05-2.08.346-3.055.797-.316.155-.643.294-.937.504a3.933 3.933 0 00-.534.446c-.238.239-.432.502-.643.754-.158.188-.335.366-.34.629 0 .055-.073.16-.125.183-.197.088-.286.282-.369.476a3.473 3.473 0 00-.299 1.693c0 .11.033.216.053.324.016.11.052.213.088.319.078.204.175.41.3.59.382.573.933 1 1.518 1.31.493.258 1.019.424 1.543.568.121.036.238.083.36.11.224.05.46.117.678.103.244-.016.427-.005.635.125.116.072.315.083.476.08.208 0 .413-.036.612-.075.241-.044.463-.1.723-.022.139.042.333.009.488-.033.684-.175 1.374-.26 2.064-.38.936-.155 1.861-.39 2.764-.717.352-.13.695-.291 1.034-.46 1.047-.532 2.033-1.23 2.828-2.172.158-.183.299-.388.457-.579a2.72 2.72 0 00.449-.759c.11-.283.18-.596.177-.92 0-.787-.308-1.54-.74-2.086-.097-.133-.194-.268-.316-.368a11.46 11.46 0 00-1.299-.931c-.454-.266-.875-.518-1.462-.673-.468-.114-.912-.12-1.327-.1-.418.022-.823.075-1.22.139-.611.097-1.207.238-1.797.38-.039.007-.08.005-.119.016-.335.091-.413.268-.213.49.177.197.418.285.72.236l.994-.17.006.037z"/><path d="M13.234 8.339l1.892 8.882a3.759 3.759 0 01-1.737 1.892c-1.3.662-2.529.31-2.781.232L8.2 18.611l-2.65-8.458 7.684-1.814zM8.022 18.34c-.939-2.782-1.878-5.56-2.82-8.342l2.82 8.342z"/><path d="M8.277 17.85c-.086-.084-.158-.173-.266-.247-.097-.067-.194-.13-.15-.247.012-.03-.013-.05-.021-.075-.014-.044-.03-.088-.04-.135-.002-.023.034-.059.012-.072-.105-.07-.155-.153-.108-.275-.125-.038-.078-.135-.07-.219.006-.083-.038-.15.014-.249.014-.025.014-.05-.005-.066-.125-.089-.133-.216-.152-.344a.494.494 0 00-.225-.346c-.072-.05-.094-.122-.116-.191-.028-.083-.025-.175-.045-.258a.85.85 0 01-.008-.393c.042-.192.064-.374.064-.552 0-.091-.061-.16-.103-.238-.086-.152-.19-.3-.266-.457a1.563 1.563 0 01-.116-.371c-.025-.12-.022-.25-.044-.369-.064-.357-.136-.712-.2-1.069-.016-.086-.016-.177-.027-.263a.495.495 0 00-.036-.125c-.064-.147-.136-.293-.192-.443-.08-.213-.15-.435-.23-.648-.047-.122-.105-.239-.074-.385.008-.042-.056-.034-.178.022-.21.097-.432.19-.543.293-.074.07-.13.13-.08.17.072.055-.005.166.153.19.022.003.022.02.016.037-.077.263.075.448.164.656.03.067.027.144.044.216a.776.776 0 00.044.136c.025.064.07.122.08.191.009.053-.016.114.128.114.03 0 .033.027.006.047-.109.075-.08.11-.064.152.047.108.105.21.138.321a.81.81 0 01.034.26c-.003.142-.028.292-.028.43.003.117.03.225.044.338.003.025-.014.058-.008.083.008.048-.003.103.053.133.06.03.083.064-.009.144-.052.045-.033.08-.01.108.027.037.08.061.135.09.064.03.13.057.066.135-.033.041.006.072.045.091.174.095.21.236.221.388.017.205.011.416.022.62.006.081.025.156.042.233.053.239.16.457.274.674.022.041.05.085.042.135-.02.122.027.22.1.308.085.108.083.246.077.385-.003.033-.017.07 0 .094.128.177.086.41.177.598.072.153.189.291.297.433.083.108.18.213.268.318.006.009-.002.02.006.025.058.058.222.028.446-.086.2-.1.305-.188.28-.249-.028-.07-.07-.13-.105-.197.005.009.016.006.027 0zM13.235 8.339l1.892 8.881a3.759 3.759 0 01-1.737 1.892c-1.3.663-2.529.31-2.781.233"/><path d="M12.977 9.04c.091.16.166.326.28.481.1.139.202.272.16.444-.01.044.017.083.025.127.014.078.034.152.042.23.003.036-.033.08-.011.11.108.142.163.297.113.472.13.102.08.24.075.371-.005.13.045.252-.01.393-.015.036-.015.078.007.106.13.183.142.39.161.595.022.222.097.433.238.626.075.103.1.225.122.341.028.141.03.285.05.43.03.205.044.412.014.631-.042.291-.061.58-.058.862 0 .144.063.277.11.412.092.272.203.54.283.815.03.102.056.208.075.313l.028.158.01.08.006.04v.016c.003.044 0 .083-.039.113-.016.02-.027.023-.047.047l-.077.108c-.3.43-.687.784-1.125 1.012-.105.055-.222.088-.33.13a.913.913 0 00-.16.07 2.69 2.69 0 01-.604.229 3.244 3.244 0 01-.942.047c-.177-.014-.366-.03-.51-.15-.038-.033-.072.023-.094.153-.036.23-.077.468-.008.629.047.108.1.194.197.177.135-.025.263.1.407-.028.02-.019.044-.008.066 0 .377.186.79.075 1.16-.03.126-.03.253-.047.38-.078.08-.025.158-.052.236-.086.11-.052.21-.121.321-.169.083-.036.189-.038.183-.202 0-.033.042-.052.075-.033.122.072.18.017.238-.03.164-.128.3-.28.446-.422a5.28 5.28 0 01.34-.304c.184-.155.377-.316.533-.51.033-.042.06-.08.094-.13a2.36 2.36 0 00.11-.205l.053-.105.025-.053c.003-.02-.003-.039-.005-.058l-.03-.233a.463.463 0 01-.004-.105.265.265 0 00.003-.067c-.01-.077.003-.166-.055-.227-.064-.07-.089-.13.005-.227.053-.056.034-.12.011-.172-.027-.066-.086-.125-.14-.183-.067-.069-.137-.136-.073-.238.033-.055-.005-.116-.047-.16-.18-.206-.222-.447-.235-.69-.02-.333-.017-.668-.03-1-.006-.13-.031-.258-.048-.386-.058-.399-.175-.784-.294-1.166-.025-.075-.052-.152-.044-.233.02-.188-.033-.357-.108-.526-.091-.2-.089-.421-.086-.64 0-.05.017-.105-.003-.152-.135-.325-.094-.682-.19-1.014-.078-.269-.2-.524-.314-.784-.086-.2-.188-.396-.282-.596-.006-.014 0-.03-.006-.041-.06-.111-.23-.117-.463-.006-.204.097-.315.202-.288.307.03.12.075.233.114.35l-.036.013z"/><path d="M14.337 13.522l-8.092-2.371 6.99-2.812 1.102 5.183z"/><path d="M1.666 6.292c.208-.313.427-.588.596-.801 1.909-2.427 4.859-2.926 6.056-3.108 1.473-.228 4.429-.421 6.29.404l1.1-.3.51 2.032c1.418 4.717-8.366 7.53-11.99 6.369-.866-.277-2.783-.892-3.143-2.344L.595 6.58l1.071-.288z"/><path d="M3.047 5.203c.274-.377.626-.696.958-1.034.31-.288.637-.57 1.064-.684.108-.033.21-.097.319-.141.194-.086.393-.16.595-.227.092-.03.205-.017.283-.058a2.74 2.74 0 011.277-.347c.318-.172.676-.152 1.022-.169.349-.014.698-.075 1.047-.02a.839.839 0 00.288-.002c.554-.122 1.12-.1 1.679-.053.601.05 1.194.084 1.795.109.321.016.645.105.947.224l.155.064c.056.013.106.069.164.036l.321-.075.471-.103.15-.036c.044.203.074.374.108.582.044.25.08.499.11.75l.073.585.091-.33-.128.1.04.247a2.82 2.82 0 01-.128 1.463c-.12.304-.233.623-.416.922-.37.596-.908 1.133-1.523 1.574a8.292 8.292 0 01-1.513.817c-.496.213-1.016.357-1.534.513-.768.221-1.552.387-2.338.498-.787.111-1.582.16-2.352.12a6.698 6.698 0 01-1.075-.15 7.028 7.028 0 00-.255-.056l-.24-.063c-.671-.189-1.33-.413-1.865-.748-.38-.239-.693-.535-.842-.862-.047-.08-.064-.166-.094-.25l-.097-.376-.194-.762-.047-.174-.006-.017a.085.085 0 01-.008-.036.09.09 0 01.047.003l.01.005.006.003s-.002.003.025-.003l.23-.036c.167-.022.203-.097.108-.21-.169-.194-.299-.408-.628-.46a1.742 1.742 0 00-.829.088l.003.006c.163.454.18.961.388 1.222.03.041.041.11.047.169.025.257.06.512.11.764.064.275.17.552.341.779.333.462.798.778 1.266 1.025.308.163.613.327.934.457.208.086.418.155.629.222.15.05.318.083.479.122l.485.088c.24.042.479.11.706-.017.047-.024.175-.01.216.023.166.127.374.124.574.11.545-.019 1.083-.09 1.617-.163.397-.053.793-.105 1.189-.16.615-.087 1.235-.175 1.842-.333a12.39 12.39 0 001.499-.513c.113-.044.235-.069.349-.124.205-.095.434-.175.598-.319.186-.155.335-.26.582-.282.141-.009.302-.13.43-.233.165-.128.301-.297.434-.454.158-.194.288-.388.535-.519a.99.99 0 00.33-.387c.351-.646.703-1.3.841-2.059.078-.485.047-.98-.052-1.462l-.122.484.183-.16-.056-.305-.127-.71-.064-.354-.033-.177-.017-.089-.025-.127c-.085-.396-.18-.8-.277-1.205l-.753.194-.651.169-.08.019-.009.003c-.005.002-.01.002-.016-.003l-.106-.042c-.072-.03-.147-.05-.219-.074-.146-.045-.293-.092-.44-.122a9.569 9.569 0 00-1.753-.23c-.228-.011-.457-.011-.68-.042a5.582 5.582 0 00-1.534.02c-.61.083-1.221.097-1.836.146-.142.012-.291.009-.427.045-.964.24-1.97.415-2.89.875A7.59 7.59 0 002.77 4.175a7.86 7.86 0 00-1.128 1.507c-.022.033-.055.061-.074.097-.18.302-.106.477.199.488a.75.75 0 00.673-.327l.141-.2.147-.188c.097-.125.191-.255.305-.369l.014.02z"/><path d="M15.595 2.186c2.061 4.94-8.141 7.931-11.859 6.737C2.87 8.646.952 8.031.592 6.58c-.307-1.228.67-2.41 1.18-3.056C3.681 1.097 6.631.598 7.828.416c2.01-.308 6.798-.557 7.767 1.77z"/><path d="M15.445 3.787c.003.41-.11.829-.271 1.244-.153.366-.355.731-.712.961-.086.064-.167.147-.25.222-.15.136-.313.258-.482.374-.075.055-.183.072-.246.13-.305.302-.67.538-1.089.654-.25.247-.582.319-.903.413-.319.102-.632.238-.97.269a.73.73 0 00-.265.072c-.485.246-1.02.362-1.554.448a18.47 18.47 0 00-1.704.377 3.833 3.833 0 01-.945.11c-.376.015-.753-.032-1.124-.068l-.402-.061-.388-.097c-.125-.045-.246-.086-.371-.139a5.684 5.684 0 01-.371-.174c-.643-.327-1.263-.696-1.704-1.153-.222-.23-.435-.443-.562-.703a1.603 1.603 0 01-.144-.862c.027-.313.147-.637.304-.947.122-.233.275-.46.44-.68.167-.215.355-.445.536-.636.163-.194.36-.352.545-.521.202-.15.394-.31.607-.446 1.224-.85 2.692-1.3 4.194-1.493.371-.05.728-.07 1.097-.092.183-.01.366-.025.548-.041a14.988 14.988 0 012.03-.061c.957.047 1.918.207 2.699.573.435.205.806.502.92.881.027.105.102.114.205.022.174-.16.37-.34.321-.659-.042-.208-.116-.413-.335-.546-.302-.194-.582-.476-.956-.485A.427.427 0 0113.98.61c-.444-.26-.945-.4-1.446-.477a11.058 11.058 0 00-1.51-.102c-.327-.006-.657-.034-.983-.03-.214 0-.427.008-.638.024-.307.022-.615.072-.92.094-.23.017-.462.003-.65.17-.04.033-.161.046-.208.021-.183-.096-.371-.052-.56-.01-.51.107-1.013.257-1.51.42-.368.12-.736.247-1.102.383-.568.21-1.133.462-1.65.806-.222.136-.42.31-.624.474-.188.18-.39.352-.565.551-.083.089-.183.163-.263.255-.133.158-.3.318-.388.512-.097.216-.189.369-.402.499-.119.072-.216.255-.28.41a2.27 2.27 0 00-.15.64c-.021.269-.021.504-.11.795-.05.158-.006.385.064.554.296.756.806 1.322 1.365 1.745.38.297.793.524 1.208.726a12.291 12.291 0 00.945.402l.352.116c.368.097.742.158 1.108.186.57.053 1.135.039 1.692-.017a12.935 12.935 0 001.643-.268c.213-.045.424-.106.637-.128.496-.052.97-.197 1.427-.382.55-.225 1.119-.39 1.684-.587.13-.048.271-.084.39-.15.834-.477 1.729-.898 2.463-1.61.579-.579 1.058-1.327 1.252-2.18a3.45 3.45 0 00-.147-1.945c-.016-.038-.02-.083-.038-.119-.153-.332-.336-.36-.518-.119a.835.835 0 00-.161.321.999.999 0 000 .352c.014.07.033.139.047.208l.02.21c.024.142.01.283.005.424l-.014.003z"/></symbol><symbol viewBox="0 0 512 512" id="play" xmlns="http://www.w3.org/2000/svg"><path d="M437.019 74.98C388.667 26.628 324.38 0 256 0 187.619 0 123.332 26.629 74.98 74.98 26.629 123.332 0 187.62 0 256c0 68.381 26.629 132.668 74.98 181.02C123.332 485.371 187.619 512 256 512c68.38 0 132.667-26.629 181.019-74.98C485.371 388.667 512 324.38 512 256s-26.629-132.667-74.981-181.02zm-36.132 193.502L208.086 397.014a14.987 14.987 0 01-8.321 2.52 14.999 14.999 0 01-14.999-15V127.467a15 15 0 0123.32-12.48L400.887 243.52a15.001 15.001 0 010 24.962z"/></symbol><symbol viewBox="0 0 25 25" id="search" xmlns="http://www.w3.org/2000/svg"><path d="M18.346 16.137a10.088 10.088 0 001.966-5.98C20.312 4.556 15.756 0 10.156 0 4.556 0 0 4.556 0 10.156c0 5.6 4.556 10.156 10.156 10.156 2.237 0 4.301-.736 5.981-1.966L22.791 25 25 22.79l-6.654-6.653zm-8.19 1.05a7.039 7.039 0 01-7.031-7.03 7.039 7.039 0 017.031-7.032 7.039 7.039 0 017.031 7.031 7.039 7.039 0 01-7.03 7.031z"/></symbol><symbol viewBox="0 0 30 30" id="secondary" xmlns="http://www.w3.org/2000/svg"><path d="M29.25 27h-.75V10.5c0-.9-.6-1.5-1.5-1.5V7.5c0-.9-.6-1.5-1.5-1.5h-3.75L15 0 7.5 6h-3C3.6 6 3 6.6 3 7.5V9c-.9 0-1.5.6-1.5 1.5V27H.75c-.45 0-.75.3-.75.75v1.5c0 .45.3.75.75.75h28.5c.45 0 .75-.3.75-.75v-1.5c0-.45-.3-.75-.75-.75zM14.55 3c.9 0 1.5.6 1.5 1.5s-.6 1.5-1.5 1.5c-.75 0-1.5-.6-1.5-1.5s.6-1.5 1.5-1.5zM9 24H4.5v-4.5H9V24zm0-7.5H4.5V12H9v4.5zM18 27h-6v-4.5c0-1.65 1.35-3 3-3s3 1.35 3 3V27zm0-10.5h-6V12h6v4.5zm7.5 7.5H21v-4.5h4.5V24zm0-7.5H21V12h4.5v4.5z"/></symbol><symbol viewBox="0 0 56 64" id="turn-left" xmlns="http://www.w3.org/2000/svg"><path d="M50.86 63.12h-9.069a1.5 1.5 0 01-1.5-1.46l-.643-23.572c-.22-8.172-6.512-14.89-14.653-15.652l-8.483-.792a1.49 1.49 0 01-1.338-1.241l-1.082-6.402a1.5 1.5 0 011.852-1.703l27.63 7.097a1.49 1.49 0 011.069 1.048L55.206 58.13c.141.505.01 1.051-.352 1.434l-2.908 3.089a1.497 1.497 0 01-1.087.466z"/><path d="M44.14 62.487l-1.403.062-.704.03c-.269.01-.383.023-.542-.017a1.056 1.056 0 01-.7-.607c-.065-.154-.078-.304-.1-.564l-.062-.695c-.154-1.65-.313-3.27-.238-4.959.022-.436-.022-.906-.03-1.364-.018-.827-.036-1.654-.058-2.482-.004-.378.058-.774.022-1.122-.167-1.716-.25-3.427-.163-5.157-.206-1.337-.118-2.666-.105-4.017.009-.678-.009-1.355-.013-2.038-.013-.686.022-1.346.022-2.041 0-.365 0-.788-.075-1.149-.431-2.2-1.122-4.343-2.24-6.3-.58-1.061-1.346-2.007-2.16-2.887-.867-.836-1.787-1.615-2.825-2.2-1.074-.674-2.262-1.246-3.454-1.734a18.567 18.567 0 00-4.476-1.082 145.84 145.84 0 01-6.538-.797l-1.087-.158-.546-.08a1.134 1.134 0 01-.21-.04.743.743 0 01-.164-.065.926.926 0 01-.493-.651l-.03-.216-.07-.546c-.194-1.46-.388-2.921-.577-4.387-.053-.37-.11-.743-.172-1.117l-.044-.269c-.004-.044-.013-.088-.009-.127 0-.084.014-.168.049-.242a.728.728 0 01.352-.374.84.84 0 01.255-.066c.044.004.088-.005.136.008.031.005.031 0 .084.014l.136.03c2.949.704 5.901 1.378 8.845 2.095a313.92 313.92 0 016.622 1.716c2.05.568 4.097 1.135 6.147 1.707l4.563 1.237 1.14.308.136.04c.022.008.044.012.062.021a.618.618 0 01.304.246.945.945 0 01.061.115c.01.018.014.04.022.062l.027.097.154.572.303 1.144 2.438 9.139c.378 1.465.761 2.93 1.14 4.4.193.73.396 1.461.607 2.191l2.336 8.101 3.279 11.621.118.414.036.132a.498.498 0 01-.053.343c-.013.022-.022.04-.04.062-.017.022-.017.022-.079.088l-.295.312-.59.62-1.188 1.228-.602.603-.154.15-.075.074c-.018.018-.018.018-.031.022a.506.506 0 01-.11.053c-.084.022-.132.04-.163.093-.026.048-.035.127.022.228a.765.765 0 00.55.388c.278.061.643-.137 1.096-.454.616-.435 1.17-.862 1.764-1.57.216-.256.445-.506.678-.753.106-.11.268-.273.37-.453a1.78 1.78 0 00.242-1.214c-.04-.225-.097-.37-.15-.533a8.246 8.246 0 00-.37-.933 3.285 3.285 0 01-.189-.647c-.818-3.85-2.015-7.612-3.106-11.405-.357-1.236-.67-2.49-1.004-3.736l-.673-2.416c-.334-1.166-.7-2.332-1.008-3.502-.233-.885-.404-1.76-.84-2.495-.092-.154-.211-.62-.207-.796.018-.678-.206-1.4-.418-2.126-.567-1.962-1.148-3.92-1.698-5.887l-.59-2.192-.282-1.095a2.248 2.248 0 00-.228-.63 1.91 1.91 0 00-.467-.545 1.922 1.922 0 00-.484-.286c-.193-.075-.325-.106-.462-.15l-.84-.25-1.677-.502c-1.117-.33-2.24-.665-3.361-.995-1.88-.54-3.78-1.043-5.672-1.566-.436-.123-.863-.273-1.298-.392-.806-.215-1.642-.48-2.416-.607-.863-.14-1.523-.295-2.253-.664-.41-.207-1.109-.379-1.676-.506-.731-.163-1.466-.282-2.192-.4-.871-.142-1.685-.265-2.57-.63-.475-.194-1.166-.33-1.733-.427l-.942-.171-.47-.093-.247-.048c-.114-.018-.225-.044-.339-.044a2.175 2.175 0 00-2.134 1.39c-.08.211-.128.436-.132.66-.018.22.03.475.053.607l.167.955.286 1.906.37 2.587.092.647.022.163c.009.057.026.154.044.228a2.268 2.268 0 001.9 1.694l.177.023.325.04.647.078 1.298.159 2.596.312 2.038.224c.673.075 1.386.124 2.002.234 3.951.554 7.691 2.627 10.156 5.817.233.317.475.633.7.96.202.342.395.685.576 1.029.77 1.619 1.346 3.309 1.659 5.073.066.264.088.533.11.801l.07.805c.03.555.03 1.136.04 1.699.013 1.14.004 2.275-.005 3.414-.004.528-.03 1.065-.004 1.589.202 3.648.119 7.295.26 10.934.057 1.474.127 2.944.21 4.414l.062 1.104.031.55a2.421 2.421 0 001.421 2.103c.269.124.56.194.85.207.066.005.158.005.202.005l.136-.005.278-.009c2.27-.079 4.536-.162 6.807-.242.15-.004.303.014.453.005 1.294-.057 1.703-.317 1.091-.713-.541-.352-1.395-.554-2.565-.55l-3.864.057-.013-.057z"/><path d="M45.192 58.94h9.205c.58 0 1.047-.471 1.047-1.048v-23.39c0-13.104-10.098-23.99-23.162-24.976l-12.021-1.24a1.048 1.048 0 01-.933-1.162l.524-4.643c.136-1.223-1.149-2.098-2.236-1.526l-14.04 7.37a1.532 1.532 0 00-.467 2.336l9.584 11.52a1.531 1.531 0 002.622-.471l1.474-4.193a1.048 1.048 0 011.192-.682l15.062 3.005a15.835 15.835 0 0112.338 16.35l-1.236 21.64a1.048 1.048 0 001.047 1.11z"/><path d="M53.764 59.572l.448-.017c.11-.005.405-.005.612-.075a1.635 1.635 0 001.016-.858c.097-.203.154-.427.159-.651.004-.128-.005-.19-.005-.269l-.008-.224-.031-.898c-.04-1.197-.088-2.39-.15-3.568-.11-2.108-.224-4.176-.101-6.332.03-.554.004-1.157.004-1.738l.014-3.168c.004-.48.079-.986.052-1.43a63.067 63.067 0 01-.092-4.933c.018-.546.04-1.096.035-1.654-.136-.863-.14-1.72-.286-2.57l-.145-1.285c-.04-.431-.159-.85-.238-1.28-.096-.427-.189-.854-.286-1.28l-.413-1.255c-.145-.413-.251-.845-.423-1.245a31.7 31.7 0 01-.475-1.219 13.34 13.34 0 00-.268-.673c-.106-.224-.242-.436-.365-.634-1.475-2.411-3.16-4.703-5.259-6.64-2.226-2.085-4.893-3.7-7.748-4.664-.37-.154-.762-.26-1.153-.374l-1.175-.356c-.387-.14-.796-.207-1.197-.3-.4-.087-.805-.18-1.206-.268-1.927-.32-3.858-.537-5.781-.752a235.187 235.187 0 01-8.33-1.047l-.66-.097a.595.595 0 01-.33-.198.607.607 0 01-.132-.348c0-.03 0-.061.005-.092l.022-.132.052-.348c.137-.928.278-1.852.414-2.78l.202-1.409A2.245 2.245 0 0019.86.632 2.307 2.307 0 0017.916.03c-.344.048-.718.237-.88.32l-.634.313c-1.716.85-3.419 1.804-5.113 2.724L6.198 6.163 3.655 7.55l-.317.172c-.044.022-.123.07-.198.114-.075.044-.14.097-.207.15-.264.216-.48.497-.616.805a2.157 2.157 0 00.114 1.954c1.866 2.27 3.736 4.545 5.606 6.816l2.557 3.164 1.271 1.584.159.198c.057.07.092.123.189.224.163.185.365.339.585.462.445.246.968.321 1.461.246a2.276 2.276 0 001.707-1.333c.088-.198.106-.273.154-.4l.128-.357.26-.708 1.03-2.83a.271.271 0 01.215-.171c.022 0 .048-.004.07 0l.167.035.555.115 2.209.462 4.422.928 4.418.928 2.208.463c.366.079.744.15 1.1.237l1.012.29a14.685 14.685 0 014.74 2.557l1.016.889c.308.325.638.638.941.968 2.236 2.477 3.613 5.742 3.754 9.1.03.299 0 .598.004.901-.004.304.005.59-.022.92l-.105 1.923-.216 3.841-.431 7.687c-.08 1.452-.163 2.909-.242 4.356l-.15 2.174-.088 1.082-.022.273a2.132 2.132 0 00.497 1.527c.264.317.581.493.836.585.26.093.467.101.594.088.264-.035.22-.11-.04-.233a1.73 1.73 0 01-.835-1.047 1.506 1.506 0 01-.031-.73c.07-.247.163-.524.233-.872.203-.937.365-1.808.379-2.983.017-1.703.29-3.485.167-5.166-.018-.237.013-.58.044-.858.268-2.495.44-4.998.576-7.507l.19-3.766c.043-.62.026-1.272.03-1.914 0-.321-.048-.638-.07-.96-.031-.32-.044-.642-.11-.954-.233-1.659-.7-3.296-1.439-4.805-.22-.497-.52-.96-.779-1.439-.303-.453-.603-.91-.937-1.338-.964-1.262-2.16-2.327-3.428-3.256-.946-.721-1.967-1.315-3.023-1.566-.22-.053-.8-.269-.985-.396-.352-.255-.788-.41-1.246-.555-.457-.158-.932-.242-1.408-.33l-7.673-1.482c-1.888-.379-3.78-.788-5.655-1.21l-.594-.137-.312-.07a1.533 1.533 0 00-1.738.968l-1.175 3.04-.295.757c-.048.119-.101.268-.14.36a1.07 1.07 0 01-.124.208.88.88 0 01-.823.312.882.882 0 01-.448-.22l-.088-.101-.146-.185-.294-.365-1.18-1.457-2.363-2.917c-.36-.449-.695-.915-1.06-1.364-.673-.823-1.346-1.712-2.042-2.433-.77-.801-1.333-1.457-1.852-2.359a4.95 4.95 0 00-.269-.409c-.048-.07-.1-.14-.153-.211a.925.925 0 01-.049-.092.623.623 0 01.14-.73.262.262 0 00.058-.05l.154-.092c.405-.246.805-.493 1.201-.739.955-.59 1.844-1.153 2.97-1.597.608-.238 1.382-.691 2.007-1.078a88.894 88.894 0 014.242-2.42c.721-.388 1.443-.766 2.173-1.14l1.091-.559c.155-.07.238-.105.366-.114a.773.773 0 01.347.04c.308.096.55.378.594.677.01.075.014.154.005.233 0 .027-.013.115-.022.18l-.027.207-.11.828-.444 3.3-.013.101c-.009.048-.013.114-.018.172a1.825 1.825 0 00.242 1.03c.238.413.643.73 1.109.857.11.031.246.053.348.066l.206.027.414.052.827.106 3.31.414c1.728.21 3.47.4 5.209.59l2.024.22 1.954.246c.33.026.642.11.963.18l.955.211c.642.115 1.259.34 1.879.533a24.881 24.881 0 016.943 3.537c.792.652 1.65 1.259 2.315 2.025.836.822 1.54 1.75 2.288 2.635l1.012 1.417c.18.229.33.48.475.73l.453.748c1.435 2.42 2.293 5.14 2.654 7.894l.105.968.057.48.027.48.105 1.672c.027.563.014 1.157.018 1.733l-.026 3.49c-.027 2.323-.062 4.646-.044 6.97.03 3.762.136 7.515.224 11.264l.005.145c0 .018 0 .04-.01.062a.257.257 0 01-.06.105.306.306 0 01-.11.066c-.01.005-.023.005-.036.01-.009 0-.018.004-.075.004l-.273.008-2.169.062-4.338.127c-.19.005-.388-.013-.577-.004-1.65.057-2.17.317-1.39.713.69.352 1.782.554 3.269.55l4.928-.057.005.061z"/><path d="M40.968 63.36c-.022-.11-.022-.202-.066-.334-.044-.119-.088-.238.044-.202.035.009.027-.022.035-.036.022-.022.04-.044.07-.057.014-.009.08.031.067.005-.049-.128-.035-.198.11-.154-.093-.15.03-.102.101-.106.07 0 .08-.062.207-.013.035.013.053.009.044-.013-.053-.154.04-.176.119-.212.088-.035.11-.132.048-.299-.03-.088.004-.123.035-.154.04-.04.11-.048.159-.079.066-.048.158-.075.299-.053.189.027.352.031.493.013.07-.008.066-.088.083-.145.035-.119.044-.255.093-.36.035-.08.105-.128.176-.177.07-.044.171-.052.246-.092.216-.114.422-.233.638-.348.053-.026.123-.04.176-.061a.13.13 0 00.062-.057c.053-.089.096-.19.158-.269.088-.119.194-.22.277-.339.049-.066.084-.15.225-.132.04.005-.027-.066-.194-.202-.282-.233-.576-.48-.766-.594-.127-.08-.228-.137-.21-.075.026.088-.137.013 0 .198.017.026.004.026-.01.022-.281-.061-.277.137-.351.26-.023.04-.084.048-.124.075a.176.176 0 00-.061.066c-.027.04-.027.092-.07.114-.032.018-.106-.009.034.158.031.035.01.04-.035.01-.167-.115-.167-.08-.18-.058-.04.066-.062.145-.114.198-.04.04-.097.057-.172.066-.115.013-.255 0-.361.017-.088.014-.145.062-.22.088-.018.005-.062-.008-.075 0-.026.018-.083.01-.053.075.036.075.031.106-.118.01-.084-.054-.097-.027-.097 0 0 .034.03.1.066.166.04.08.083.159-.04.093-.066-.035-.053.013-.026.061.097.212.022.269-.084.3-.145.04-.312.057-.462.092-.057.013-.097.048-.14.075-.137.088-.199.237-.256.391-.013.031-.017.066-.066.062-.114-.009-.14.057-.14.15 0 .11-.11.123-.225.132-.026 0-.07-.014-.075.013-.013.167-.233.145-.295.268-.048.101-.04.251-.048.387-.005.106.009.23.017.348 0 .009-.017 0-.013.009.014.075.194.26.506.506.278.22.45.334.471.3.027-.04.035-.098.049-.146l.04.04zM12.494 21.951c.026.062.343.691 1.078.819.735.128 1.24-.356 1.29-.405-.643 1.602-1.286 3.204-1.924 4.805a1.126 1.126 0 01-1.94.273l-9.87-12.95a1.116 1.116 0 01-.158-1.082l1.188-3.402a.206.206 0 01.352-.061l9.984 12.003z"/><path d="M13.585 23.341a2.209 2.209 0 00.357-.22l.056-.048.027-.022v.013l.004.062.018.317c.017.26-.031.686-.352 1.152-.08.115-.106.256-.159.388-.097.233-.189.47-.295.704-.048.105-.162.189-.18.299a3.75 3.75 0 01-.194.774c-.044.12-.1.251-.158.352a.534.534 0 01-.22.212c-.04.167-.198.277-.36.303a.796.796 0 01-.467-.088.899.899 0 01-.344-.268 2.005 2.005 0 01-.15-.242 2.169 2.169 0 01-.131-.29.709.709 0 00-.19-.287c-.518-.444-.88-1.007-1.262-1.566a7.978 7.978 0 00-1.439-1.62c-.3-.25-.537-.571-.774-.884-.282-.37-.524-.77-.797-1.148a13.588 13.588 0 01-1.078-1.72 37.103 37.103 0 00-1.342-2.381c-.242-.396-.568-.735-.871-1.087l-.92-1.052-.458-.528c-.14-.171-.338-.387-.36-.435a.486.486 0 01-.062-.234c.004-.097.013-.114.088-.32l.374-.986c.097-.251.202-.502.312-.753.062-.123.106-.18.15-.255l.049-.084.044-.083a.062.062 0 01.079-.04c.066.044.097.132.136.19l.101.17.022.04.01.018.052.07.22.29 1.764 2.311c.282.37.546.757.823 1.13.137.186.286.366.44.542.568.651 1.144 1.29 1.703 1.95l2.38 2.838c.454.532.925 1.051 1.277 1.663.1.171.215.158.33-.035.202-.33.431-.652.383-1.052-.031-.268-.08-.506-.304-.686-.321-.264-.466-.705-.893-.872-.062-.022-.106-.092-.137-.154-.576-1.087-1.456-1.931-2.253-2.842-.26-.3-.484-.63-.726-.942-.158-.202-.32-.4-.488-.594-.242-.282-.51-.546-.735-.845-.167-.224-.29-.48-.62-.532-.07-.013-.154-.132-.15-.207.026-.282-.136-.444-.29-.62-.414-.471-.84-.933-1.237-1.417-.145-.18-.29-.361-.427-.55l-.501-.696c-.15-.202-.3-.444-.467-.633a3.022 3.022 0 00-.48-.423.43.43 0 00-.277-.1.49.49 0 00-.286.087c-.118.093-.264.198-.404.383a1.397 1.397 0 00-.163.282l-.471 1.2-.3.731c-.052.128-.14.242-.188.374-.093.238-.23.475-.238.722 0 .057-.026.171-.04.273a6.104 6.104 0 01-.044.299c-.03.19-.057.378-.096.625a.88.88 0 00.079.466c.035.084.079.163.132.238.048.075.114.15.136.171.159.168.348.308.537.445.229.167.449.312.52.625.034.167.202.312.347.422.642.488 1.104 1.127 1.536 1.791l1.72 2.72c.229.351.475.69.722 1.033.756 1.065 1.593 2.073 2.429 3.072.162.198.338.391.457.616.282.519.651.968 1.056 1.395.123.127.233.26.344.4l.158.211.075.106c.026.04.092.114.136.167.405.475 1.07.774 1.72.73.304-.013.625-.079.885-.25.229-.15.422-.343.585-.56.07-.11.154-.224.203-.342l.079-.176.04-.097c.105-.26.22-.515.338-.77.233-.51.476-1.012.665-1.54l.805-2.315a5.065 5.065 0 01-.445-.33c-.066-.057-.132-.114-.193-.171-.026-.022-.07-.07-.084-.075a.053.053 0 01-.022.022.31.31 0 01-.132.022c-.15 0-.466-.097-.937-.308l-.211.061-.053.014h-.017l-.036-.005a.41.41 0 01-.119-.022.709.709 0 01-.224-.097c-.022-.017-.03-.048-.057-.066a.425.425 0 00-.339-.079.612.612 0 00-.4.273c-.22.321-.163.783.29 1.056.11.066.224.119.348.158l.162.049.058.004a.848.848 0 00.32-.053l-.034.066z"/><path d="M10.69 20.706c.083.088.14.175.259.268.105.08.215.158.092.229-.03.017-.004.04-.009.061-.004.04-.004.075-.017.11-.005.018-.08.031-.057.049.118.083.15.163.008.233.168.07.04.123-.013.18-.053.058-.022.123-.154.176-.035.014-.048.031-.026.049.136.105.079.202.04.299-.045.106-.005.216.145.326.079.061.074.118.07.176-.004.07-.057.136-.075.202a.486.486 0 01-.202.29c-.167.124-.3.251-.392.383-.048.066 0 .137.022.207.044.14.123.282.15.422a.613.613 0 01-.031.308c-.026.097-.101.19-.136.282-.102.282-.185.563-.282.845-.022.066-.07.136-.101.202a.202.202 0 00-.013.102c.013.127.04.26.044.387.004.185-.014.365-.01.55.005.105.027.207-.096.308-.035.026.062.04.277.04.365 0 .748.004.968-.036.15-.026.264-.053.212-.097-.075-.066.096-.118-.12-.189-.03-.009-.021-.022-.004-.03.26-.168.132-.353.115-.533-.01-.057.035-.114.048-.172a.339.339 0 00.009-.114c-.005-.057-.04-.114-.018-.167.013-.04.088-.08-.127-.128-.044-.009-.031-.03.017-.035.203-.018.18-.057.176-.088-.008-.092-.04-.19-.035-.282a.367.367 0 01.093-.202c.079-.101.202-.203.272-.304.062-.088.08-.176.12-.26.008-.021.052-.039.056-.056.014-.036.062-.075-.008-.115-.075-.044-.093-.075.087-.101.102-.018.093-.049.075-.075-.022-.035-.088-.07-.154-.11-.079-.044-.162-.084-.026-.123.075-.018.03-.053-.018-.084-.207-.127-.184-.242-.118-.356.087-.154.21-.308.303-.462.035-.062.044-.123.062-.185.053-.19.009-.387-.044-.58-.01-.04-.027-.08.013-.115.097-.084.075-.167.018-.26-.07-.105.008-.207.092-.308.018-.022.062-.044.048-.07-.097-.172.093-.326.062-.493-.026-.137-.123-.273-.207-.414-.062-.105-.15-.215-.229-.32-.004-.01.014-.014.005-.023-.053-.062-.313-.092-.713-.084-.352.01-.559.036-.555.088.005.058.031.12.053.18.013.018-.004.018-.022.018zm-2.394-2.802c.083.084.14.167.26.25.105.076.215.15.092.212-.031.018-.005.04-.01.057-.004.036-.004.07-.017.102-.004.017-.079.026-.057.044.119.079.15.15.009.215.167.066.04.114-.013.167-.053.053-.022.115-.154.163-.036.013-.049.03-.027.044.137.097.08.185.04.277-.044.097-.005.198.145.304.08.057.075.11.07.163-.004.061-.057.123-.074.189a.44.44 0 01-.203.264 1.827 1.827 0 00-.391.348c-.049.061 0 .127.022.193.044.128.123.26.15.387.021.097 0 .19-.032.287-.026.087-.1.171-.136.26-.101.259-.185.518-.282.778-.022.061-.07.123-.1.185-.014.03-.018.061-.014.097.013.118.04.237.044.356.004.167-.013.339-.009.506.005.097.027.194-.097.282-.035.026.062.04.278.04.365 0 .748.008.968-.027.15-.022.264-.044.21-.088-.074-.062.098-.11-.118-.176-.03-.009-.022-.022-.004-.027.26-.15.132-.32.114-.488-.009-.053.035-.106.049-.159a.287.287 0 00.008-.105c-.004-.053-.04-.106-.017-.154.013-.04.088-.07-.128-.119-.044-.009-.03-.03.018-.035.202-.018.18-.049.176-.08-.013-.087-.04-.17-.035-.259a.335.335 0 01.092-.185c.08-.092.202-.184.273-.281.061-.08.079-.159.119-.242.008-.018.052-.036.057-.053.013-.035.061-.07-.01-.106-.074-.04-.091-.07.089-.092.101-.013.092-.044.075-.07a.533.533 0 00-.154-.102c-.08-.04-.163-.079-.027-.114.075-.018.031-.049-.017-.075-.207-.119-.185-.224-.12-.33.089-.14.212-.282.305-.422.035-.058.044-.115.061-.168.053-.176.009-.356-.044-.537-.009-.035-.026-.07.013-.105.093-.075.075-.154.018-.238-.07-.1.009-.189.092-.281.018-.022.062-.04.049-.066-.097-.159.092-.3.061-.458-.026-.123-.123-.255-.206-.383-.062-.096-.15-.198-.23-.299-.004-.004.014-.013.005-.017-.053-.058-.312-.088-.713-.084-.352.004-.559.03-.554.08.004.052.03.11.053.162.017.013-.005.013-.022.013zM5.994 15.5c.084.08.14.16.26.238.105.07.215.141.092.203-.03.017-.004.035-.009.053-.004.03-.004.066-.017.096-.005.014-.08.027-.058.04.12.075.15.145.01.207.166.061.039.11-.014.158-.053.049-.022.106-.154.154-.035.013-.048.027-.026.044.136.093.079.176.04.26-.045.092-.005.185.144.286.08.053.075.105.07.154-.004.061-.056.119-.074.176a.42.42 0 01-.202.25 1.786 1.786 0 00-.392.326c-.048.058 0 .12.022.18.044.124.123.247.15.37a.47.47 0 01-.031.269c-.027.083-.101.163-.137.246-.1.247-.184.489-.281.735-.022.057-.07.114-.102.176-.013.03-.017.057-.013.088.013.11.04.224.044.334.005.159-.013.317-.009.48.005.092.027.18-.096.264-.036.022.061.035.277.04.365.004.748.013.968-.018.15-.022.264-.044.211-.08-.075-.056.097-.1-.119-.166-.03-.01-.022-.018-.004-.027.26-.14.132-.303.114-.462-.008-.053.036-.101.049-.15a.242.242 0 00.009-.096c-.005-.049-.04-.097-.018-.145.013-.036.088-.066-.128-.11-.044-.01-.03-.027.018-.031.202-.013.18-.044.176-.075-.009-.084-.04-.163-.035-.246.004-.062.04-.12.092-.176.08-.088.203-.176.273-.264.062-.075.08-.15.119-.225.009-.018.053-.03.057-.048.013-.031.062-.066-.009-.101-.075-.04-.092-.067.088-.088.101-.014.093-.04.075-.066a.464.464 0 00-.154-.097c-.08-.04-.163-.075-.026-.106.074-.018.03-.048-.018-.07-.207-.11-.185-.212-.119-.313.088-.132.211-.264.304-.396.035-.053.044-.105.061-.158.053-.167.01-.339-.044-.506-.008-.035-.026-.07.014-.097.092-.07.074-.145.017-.224-.07-.093.009-.18.093-.264.017-.022.061-.04.048-.062-.097-.15.092-.286.062-.431-.027-.119-.124-.242-.207-.361-.062-.092-.154-.19-.229-.282-.004-.004.013-.013.004-.017-.052-.053-.312-.084-.712-.084-.352 0-.56.027-.555.07.005.053.03.106.053.155.013-.01-.004-.01-.022-.01zm-2.538-3.52c.083.075.14.155.26.23.105.07.215.136.092.193-.031.013-.005.035-.009.053-.004.03-.004.062-.018.092-.004.014-.079.027-.057.04.12.075.15.14.009.198.167.062.04.106-.013.154s-.022.101-.154.145c-.035.013-.049.027-.027.04.137.092.08.171.04.25-.044.089-.004.181.145.278.08.053.075.101.07.15-.004.057-.057.114-.074.171a.42.42 0 01-.203.242 1.655 1.655 0 00-.391.317c-.049.053 0 .114.022.176.044.119.123.238.15.356a.44.44 0 01-.031.26c-.027.08-.102.158-.137.238-.101.237-.185.47-.281.708-.022.057-.07.11-.102.167a.155.155 0 00-.013.088c.013.11.04.216.044.326.005.154-.013.308-.009.462.005.088.027.176-.096.255-.036.022.061.035.277.04.365.004.748.013.968-.014.15-.017.264-.04.211-.079-.075-.057.097-.101-.119-.163-.03-.008-.022-.017-.004-.026.26-.136.132-.295.114-.444-.009-.049.035-.097.049-.146a.235.235 0 00.008-.096c-.004-.049-.04-.097-.017-.141.013-.035.088-.066-.128-.11-.044-.009-.03-.027.018-.031.202-.013.18-.044.176-.07-.009-.08-.04-.159-.035-.238.004-.057.04-.114.092-.167.08-.084.202-.168.273-.251.061-.07.08-.145.119-.22.008-.018.052-.03.057-.049.013-.03.061-.061-.009-.096-.075-.04-.092-.066.088-.084.101-.013.093-.04.075-.061a.468.468 0 00-.154-.093c-.08-.04-.163-.075-.027-.101.075-.013.031-.044-.017-.07-.207-.11-.185-.207-.119-.3.088-.127.211-.255.304-.382.035-.049.044-.102.061-.155.053-.158.01-.325-.044-.492-.008-.031-.026-.066.014-.097.092-.066.074-.141.017-.216-.07-.092.009-.176.093-.255.017-.018.061-.035.048-.057-.097-.145.092-.273.062-.414-.027-.114-.124-.233-.207-.347-.062-.093-.15-.18-.23-.273-.004-.005.014-.01.005-.018-.053-.053-.312-.083-.713-.083-.352 0-.558.021-.554.066.004.048.03.1.053.15.013-.005-.005-.005-.022-.005z"/></symbol><symbol viewBox="0 0 29 22" id="users" xmlns="http://www.w3.org/2000/svg"><path d="M8.592 0c-2.85 0-5.17 2.459-5.17 5.481s2.32 5.481 5.17 5.481 5.17-2.459 5.17-5.481S11.441 0 8.591 0zm11.756.782h-.035c-1.197.01-2.314.515-3.147 1.423a4.813 4.813 0 00-1.252 3.31 4.813 4.813 0 001.307 3.29c.839.885 1.95 1.37 3.134 1.37h.035c1.196-.01 2.314-.514 3.146-1.422a4.813 4.813 0 001.253-3.31c-.021-2.578-2.01-4.66-4.441-4.66zm.215 10.291h-.43c-1.999 0-3.823.76-5.2 2.006.344.264.672.553.983.864a9.955 9.955 0 012.914 6.54h9.491v-1.652c0-4.277-3.48-7.758-7.758-7.758zm-3.396 9.413a8.322 8.322 0 00-3.343-6.162 8.294 8.294 0 00-4.973-1.646h-.517A8.334 8.334 0 000 21.012V22h17.184v-.99c0-.176-.006-.351-.017-.525z"/></symbol></svg>