<?xml version="1.0" encoding="utf-8"?><svg xmlns="http://www.w3.org/2000/svg" xmlns:xlink="http://www.w3.org/1999/xlink"><symbol viewBox="0 0 26 25" id="facebook" xmlns="http://www.w3.org/2000/svg"><path d="M18.75 0H6.27C2.837 0 .02 2.817.02 6.27v12.48C.02 22.183 2.837 25 6.27 25h12.48c3.452 0 6.27-2.817 6.27-6.27V6.27c0-3.453-2.818-6.27-6.27-6.27zm-2.877 12.5h-2.361v7.738h-2.977V12.5H8.948V9.325h1.389V7.976c0-1.27.635-3.274 3.313-3.274h2.441v2.64h-1.726c-.278 0-.655.178-.655.793v1.19h2.44l-.277 3.175z"/></symbol><symbol viewBox="0 0 26 25" id="instagram" xmlns="http://www.w3.org/2000/svg"><path d="M14.742 10.893a2.734 2.734 0 00-2.222-1.15 2.73 2.73 0 00-2.222 1.15 2.819 2.819 0 00-.516 1.607 2.744 2.744 0 002.738 2.738 2.744 2.744 0 002.738-2.738 2.82 2.82 0 00-.516-1.607z"/><path d="M16.468 10.914c.198.397.317 1.032.317 1.587a4.272 4.272 0 01-4.265 4.266 4.26 4.26 0 01-4.266-4.266c0-.575.119-1.19.317-1.587h-2.4v6.37c0 .832.734 1.567 1.567 1.567H17.3c.834 0 1.568-.735 1.568-1.568v-6.369h-2.401zm1.687-4.406h-2.302v2.639h2.62V6.488l-.318.02z"/><path d="M18.75 0H6.29C2.836 0 .02 2.817.02 6.27v12.48C.02 22.183 2.837 25 6.29 25h12.48c3.452 0 6.27-2.817 6.27-6.27V6.27C25.02 2.817 22.201 0 18.75 0zm1.508 10.893v6.389c0 1.666-1.29 2.956-2.957 2.956H7.738c-1.667 0-2.957-1.29-2.957-2.956V7.718c0-1.666 1.29-2.956 2.957-2.956H17.3c1.667 0 2.957 1.29 2.957 2.956v3.175z"/></symbol><symbol viewBox="0 0 25 25" id="pinterest" xmlns="http://www.w3.org/2000/svg"><path d="M18.73 0H6.25C2.817 0 0 2.817 0 6.27v12.48C0 22.183 2.817 25 6.25 25h12.48c3.453 0 6.27-2.817 6.27-6.27V6.27C25 2.817 22.183 0 18.73 0zm-4.98 15.972c-.992 0-1.944-.516-2.262-1.11 0 0-.536 2.063-.655 2.46-.396 1.408-1.587 2.817-1.666 2.936a.122.122 0 01-.219-.06c-.02-.178-.317-1.964.02-3.412l1.19-4.881s-.297-.576-.297-1.409c0-1.33.794-2.321 1.786-2.321.833 0 1.25.615 1.25 1.349 0 .813-.536 2.044-.814 3.174-.238.953.496 1.727 1.469 1.727 1.746 0 2.936-2.183 2.936-4.762 0-1.965-1.369-3.433-3.85-3.433-2.797 0-4.563 2.024-4.563 4.286 0 .774.238 1.33.615 1.766.18.198.199.277.14.496-.04.159-.14.555-.199.714-.06.218-.258.317-.456.218-1.29-.516-1.885-1.885-1.885-3.432 0-2.54 2.222-5.595 6.607-5.595 3.532 0 5.853 2.48 5.853 5.138-.02 3.532-2.024 6.151-5 6.151z"/></symbol><symbol viewBox="0 0 26 25" id="twitter" xmlns="http://www.w3.org/2000/svg"><path d="M18.73 0H6.27C2.817 0 0 2.817 0 6.27v12.48C0 22.183 2.817 25 6.27 25h12.48c3.452 0 6.27-2.817 6.27-6.27V6.27C25 2.817 22.183 0 18.73 0zm-.02 9.365v.417c0 4.166-3.214 8.968-9.107 8.968a9.135 9.135 0 01-4.9-1.409c.257.02.495.04.753.04a6.39 6.39 0 003.969-1.35 3.197 3.197 0 01-2.996-2.182c.198.04.396.06.595.06.297 0 .595-.04.853-.12a3.17 3.17 0 01-2.52-3.095v-.04c.397.239.913.378 1.429.398a3.138 3.138 0 01-1.429-2.62c0-.575.159-1.11.437-1.587a9.166 9.166 0 006.587 3.294 2.918 2.918 0 01-.08-.714c0-1.746 1.43-3.155 3.195-3.155a3.25 3.25 0 012.341.992 5.957 5.957 0 002.024-.774 3.23 3.23 0 01-1.409 1.746 6.34 6.34 0 001.846-.496 6.515 6.515 0 01-1.588 1.627z"/></symbol><symbol viewBox="0 0 25 25" id="youtube" xmlns="http://www.w3.org/2000/svg"><path d="M10.894 10.04v4.563L15.1 12.34l-4.206-2.302z"/><path d="M18.73 0H6.25C2.817 0 0 2.817 0 6.27v12.48C0 22.183 2.817 25 6.25 25h12.48c3.453 0 6.27-2.817 6.27-6.27V6.27C25 2.817 22.183 0 18.73 0zm1.508 13.115c0 1.31-.119 2.639-.119 2.639s-.139 1.111-.595 1.607c-.595.655-1.25.655-1.548.695-2.182.158-5.456.178-5.456.178s-4.068-.06-5.318-.178c-.337-.06-1.13-.04-1.726-.695-.476-.496-.595-1.607-.595-1.607s-.12-1.33-.12-2.639v-1.23c0-1.31.12-2.639.12-2.639s.139-1.111.595-1.607c.595-.655 1.25-.675 1.548-.714 2.202-.16 5.476-.179 5.476-.179s3.274.02 5.456.179c.298.04.973.06 1.568.694.476.496.595 1.627.595 1.627s.12 1.33.12 2.639v1.23z"/></symbol></svg>