<svg width="26" height="25" viewBox="0 0 26 25" fill="none" xmlns="http://www.w3.org/2000/svg">
<path d="M18.7497 0H6.26953C2.83699 0 0.0195312 2.81746 0.0195312 6.26984V18.75C0.0195312 22.1825 2.83699 25 6.26953 25H18.7497C22.2021 25 25.0195 22.1825 25.0195 18.7302V6.26984C25.0195 2.81746 22.2021 0 18.7497 0ZM15.8727 12.5H13.5116V20.2381H10.5354V12.5H8.9481V9.3254H10.337V7.97619C10.337 6.70635 10.9719 4.70238 13.6505 4.70238H16.091V7.34127H14.3648C14.087 7.34127 13.71 7.51984 13.71 8.13492V9.3254H16.1505L15.8727 12.5Z" fill="#C0E3EB"/>
</svg>
