<svg viewBox="0 0 25 25" fill="none" xmlns="http://www.w3.org/2000/svg"><path d="M18.7302 0H6.25C2.81746 0 0 2.81746 0 6.26984V18.75C0 22.1825 2.81746 25 6.25 25H18.7302C22.1825 25 25 22.1825 25 18.7302V6.26984C25 2.81746 22.1825 0 18.7302 0ZM13.75 15.9722C12.7579 15.9722 11.8056 15.4563 11.4881 14.8611C11.4881 14.8611 10.9524 16.9246 10.8333 17.3214C10.4365 18.7302 9.24603 20.1389 9.16667 20.2579C9.10714 20.3373 8.96825 20.3175 8.94841 20.1984C8.92857 20.0198 8.63095 18.2341 8.96825 16.7857C9.14683 16.0516 10.1587 11.9048 10.1587 11.9048C10.1587 11.9048 9.86111 11.3294 9.86111 10.496C9.86111 9.16667 10.6548 8.1746 11.6468 8.1746C12.4802 8.1746 12.8968 8.78968 12.8968 9.52381C12.8968 10.3373 12.3611 11.5675 12.0833 12.6984C11.8452 13.6508 12.5794 14.4246 13.5516 14.4246C15.2976 14.4246 16.4881 12.2421 16.4881 9.6627C16.4881 7.69841 15.119 6.23016 12.6389 6.23016C9.84127 6.23016 8.0754 8.25397 8.0754 10.5159C8.0754 11.2897 8.31349 11.8452 8.69048 12.2817C8.86905 12.4802 8.88889 12.5595 8.82936 12.7778C8.78968 12.9365 8.69048 13.3333 8.63095 13.4921C8.57143 13.7103 8.37302 13.8095 8.1746 13.7103C6.88492 13.1944 6.28968 11.8254 6.28968 10.2778C6.28968 7.7381 8.5119 4.68254 12.8968 4.68254C16.4286 4.68254 18.75 7.1627 18.75 9.82143C18.7302 13.3532 16.7262 15.9722 13.75 15.9722Z" fill="#C0E3EB"/></svg>
