<svg width="24" height="24" viewBox="0 0 24 24" fill="none" xmlns="http://www.w3.org/2000/svg">
<path d="M12 0C5.3835 0 0 5.3835 0 12C0 18.6165 5.3835 24 12 24C18.6165 24 24 18.6165 24 12C24 5.3835 18.6165 0 12 0ZM6 11.25C6 10.44 6.435 9.7335 7.0785 9.3375L5.529 8.0835C5.2065 7.8225 5.1555 7.35 5.4165 7.029C5.676 6.708 6.15 6.657 6.471 6.9165L9.663 9.4995C10.1955 9.93 10.5 10.5675 10.5 11.25C10.5 12.4905 9.4905 13.5 8.25 13.5C7.0095 13.5 6 12.4905 6 11.25ZM16.293 19.2675C16.146 19.422 15.948 19.5 15.75 19.5C15.564 19.5 15.378 19.431 15.2325 19.293C13.4205 17.568 10.5795 17.5695 8.766 19.293C8.4675 19.5765 7.992 19.569 7.7055 19.266C7.4205 18.966 7.431 18.4905 7.7325 18.2055C10.1235 15.93 13.8735 15.927 16.266 18.2055C16.5675 18.492 16.5795 18.9675 16.293 19.2675ZM18.471 8.0835L16.92 9.3375C17.565 9.7335 18 10.44 18 11.25C18 12.4905 16.9905 13.5 15.75 13.5C14.5095 13.5 13.5 12.4905 13.5 11.25C13.5 10.566 13.8045 9.9285 14.3355 9.4995L17.529 6.9165C17.8515 6.6555 18.324 6.705 18.5835 7.0275C18.843 7.35 18.7935 7.8225 18.471 8.0835Z" fill="#36A18B"/>
</svg>
