<svg width="25" height="25" viewBox="0 0 25 25" fill="none" xmlns="http://www.w3.org/2000/svg">
<path d="M22.7539 5.9082C22.2075 5.9082 21.7131 6.11591 21.3284 6.44722L14.658 2.63557C14.6809 2.50874 14.6973 2.37942 14.6973 2.24609C14.6973 1.03455 13.7115 0 12.5 0C11.2885 0 10.3027 1.03455 10.3027 2.24609C10.3027 2.45628 10.3416 2.65541 10.3971 2.84805L3.50323 7.77302C3.14636 7.52277 2.71416 7.37305 2.24609 7.37305C1.03455 7.37305 0 8.35876 0 9.57031C0 10.7407 0.97084 11.6915 2.12574 11.7554L4.40884 19.5181C3.55587 20.0306 2.97852 20.9558 2.97852 22.0215C2.97852 23.6372 4.29249 25 5.9082 25C7.31945 25 8.49953 23.9487 8.77609 22.6183L19.2572 22.1189C19.5854 22.9198 20.3712 23.4863 21.2891 23.4863C22.5006 23.4863 23.4863 22.5006 23.4863 21.2891C23.4863 20.4214 22.9767 19.6768 22.2448 19.3197L23.254 10.24C24.2245 10.0124 25 9.1444 25 8.10547C25 6.89392 23.9655 5.9082 22.7539 5.9082ZM13.9256 3.90434L20.5959 7.71599C20.573 7.84283 20.5566 7.97215 20.5566 8.10547C20.5566 8.21953 20.5734 8.32882 20.5902 8.4383L15.3736 11.2471C14.9557 10.7965 14.4032 10.4759 13.7753 10.3577L13.3684 4.26273C13.574 4.17385 13.7581 4.04835 13.9256 3.90434ZM11.2429 4.04339C11.4418 4.18282 11.6665 4.28352 11.9061 4.35143L12.3138 10.4647C11.6779 10.6764 11.1368 11.0905 10.778 11.6425L4.43916 9.52988C4.43554 9.33437 4.40063 9.14822 4.34895 8.96835L11.2429 4.04339ZM7.22523 19.4189C6.82755 19.2165 6.38428 19.0918 5.9082 19.0918C5.8754 19.0918 5.84507 19.1004 5.81264 19.1015L3.53107 11.3445C3.6974 11.2236 3.84274 11.0785 3.96957 10.9167L10.3228 13.0341C10.3182 13.101 10.3027 13.1645 10.3027 13.2324C10.3027 13.8788 10.5198 14.4716 10.8757 14.9567L7.22523 19.4189ZM19.1961 20.6553L8.69236 21.1555C8.60596 20.8786 8.4919 20.6137 8.33206 20.3785L12.0081 15.8854C12.3817 16.0587 12.7939 16.1621 13.2324 16.1621C13.7741 16.1621 14.2757 16.0044 14.7114 15.7471L19.3121 20.3478C19.265 20.4462 19.2284 20.5492 19.1961 20.6553ZM20.789 19.1545C20.6345 19.1908 20.488 19.245 20.3478 19.3121L15.7471 14.7114C16.0044 14.2757 16.1621 13.7741 16.1621 13.2324C16.1621 12.9915 16.1245 12.7607 16.0694 12.5364L21.2851 9.72805C21.4384 9.86671 21.6105 9.98325 21.7981 10.0748L20.789 19.1545Z" fill="#E9A5AD"/>
</svg>
