<svg width="25" height="24" viewBox="0 0 25 24" fill="none" xmlns="http://www.w3.org/2000/svg">
<path d="M24.6126 5.25406C24.4028 4.9738 24.1073 4.7588 23.7264 4.60862C23.7467 4.95908 23.7218 5.24434 23.6517 5.46471L19.1481 20.2816C19.0678 20.5418 18.8926 20.7495 18.6227 20.9046C18.3524 21.0599 18.0722 21.1375 17.782 21.1375H3.92577C2.7248 21.1375 2.00433 20.7877 1.76403 20.0866C1.66397 19.8163 1.66902 19.6013 1.77917 19.4412C1.88917 19.2909 2.07931 19.2157 2.34968 19.2157H15.3953C16.3261 19.2157 16.9691 19.043 17.3244 18.6977C17.68 18.3524 18.0377 17.5841 18.3977 16.3933L22.5111 2.79209C22.7312 2.05153 22.6412 1.40093 22.2408 0.840623C21.8404 0.280313 21.27 0 20.5294 0H9.10521C8.97512 0 8.71984 0.0449048 8.33952 0.13503L8.35445 0.0898621C8.07419 0.029919 7.83647 0.00247136 7.64134 0.00725629C7.44626 0.0124619 7.26606 0.0699336 7.10096 0.180197C6.93585 0.290303 6.80314 0.407771 6.70313 0.53281C6.60306 0.657954 6.50537 0.818118 6.41035 1.0132C6.31544 1.20854 6.23525 1.38873 6.17021 1.55384C6.10517 1.71895 6.03003 1.8942 5.94511 2.07955C5.85993 2.26469 5.77758 2.41728 5.69745 2.53733C5.63735 2.61741 5.55243 2.72247 5.44222 2.85261C5.33227 2.98269 5.24215 3.09785 5.17211 3.19791C5.10212 3.29797 5.05695 3.38805 5.03708 3.46818C5.0172 3.55815 5.02709 3.69076 5.0671 3.86601C5.10706 4.04101 5.12215 4.16852 5.11201 4.24865C5.07204 4.62892 4.93439 5.11173 4.69929 5.69738C4.4642 6.28293 4.2513 6.7059 4.06122 6.96596C4.0212 7.01592 3.9112 7.12855 3.731 7.30375C3.55081 7.47885 3.44075 7.63133 3.40084 7.76142C3.36078 7.81143 3.35825 7.95161 3.39327 8.18176C3.42829 8.41207 3.44096 8.57207 3.43087 8.66214C3.39064 9.0025 3.26576 9.45281 3.05549 10.0133C2.84521 10.5737 2.63515 11.0342 2.42488 11.3944C2.39496 11.4544 2.30999 11.5694 2.1697 11.7397C2.02973 11.9099 1.94449 12.05 1.91452 12.1598C1.89454 12.2399 1.89717 12.38 1.92209 12.5802C1.94696 12.7803 1.94449 12.9304 1.91452 13.0304C1.83454 13.4104 1.68437 13.8685 1.46416 14.4041C1.244 14.9392 1.01879 15.3976 0.788431 15.7775C0.728594 15.8778 0.64583 15.9955 0.540877 16.1304C0.435767 16.2653 0.353266 16.3831 0.293165 16.4831C0.23317 16.5831 0.193102 16.6882 0.173069 16.7984C0.163078 16.8585 0.178222 16.956 0.218236 17.0913C0.258198 17.2262 0.273289 17.3338 0.263141 17.4141C0.253045 17.5541 0.23317 17.7395 0.203146 17.9698C0.173069 18.1997 0.157978 18.3346 0.157978 18.3746C-0.0621813 18.9753 -0.0522959 19.6109 0.188055 20.2817C0.468315 21.0619 0.966105 21.7203 1.68169 22.2557C2.39732 22.7912 3.1403 23.0586 3.91104 23.0586H17.7674C18.4177 23.0586 19.0307 22.8408 19.6062 22.4057C20.1817 21.9703 20.5646 21.4326 20.7545 20.7917L24.8827 7.1908C25.1031 6.47002 25.0131 5.82452 24.6126 5.25406ZM8.63971 5.28409L8.95504 4.32321C8.995 4.19312 9.0775 4.08055 9.20265 3.98548C9.32779 3.89057 9.45546 3.84288 9.58554 3.84288H18.7131C18.8532 3.84288 18.9532 3.89036 19.0133 3.98548C19.0732 4.0806 19.0835 4.19312 19.0435 4.32321L18.7279 5.28409C18.6877 5.41423 18.6055 5.52654 18.4801 5.62187C18.3548 5.71678 18.2274 5.76426 18.0974 5.76426H8.97008C8.82989 5.76426 8.72988 5.71694 8.66978 5.62187C8.60973 5.52654 8.59974 5.41423 8.63971 5.28409ZM7.39378 9.12723L7.70906 8.16651C7.74903 8.03642 7.83163 7.92384 7.95667 7.82878C8.08182 7.73366 8.20933 7.68618 8.33957 7.68618H17.4668C17.607 7.68618 17.7072 7.7335 17.7672 7.82878C17.8271 7.9239 17.8372 8.03642 17.7971 8.16651L17.4818 9.12723C17.4419 9.25732 17.3593 9.37 17.2342 9.46496C17.1089 9.56008 16.9816 9.60756 16.8513 9.60756H7.724C7.58392 9.60756 7.48386 9.56024 7.42386 9.46496C7.36371 9.37 7.35377 9.25732 7.39378 9.12723Z" fill="#E9A5AD"/>
</svg>  
