<svg width="22" height="25" viewBox="0 0 22 25" fill="none" xmlns="http://www.w3.org/2000/svg">
<path d="M14.7159 10.1201C14.2979 10.1201 13.958 10.4601 13.958 10.878C13.958 11.2958 14.298 11.6358 14.7159 11.6358C15.1337 11.6358 15.4737 11.2958 15.4737 10.878C15.4738 10.4601 15.1338 10.1201 14.7159 10.1201Z" fill="#36A18B"/>
<path d="M19.4518 8.54092C19.4553 7.13384 19.4545 7.13008 19.4343 7.03848C19.007 5.09741 17.78 3.30342 15.9792 1.98691C14.2274 0.706299 12.1148 0.000683594 10.0306 0C10.0295 0 10.0285 0 10.0274 0C7.40769 0 4.92547 1.01157 3.03797 2.84854C1.1491 4.68682 0.0714136 7.14189 0.00349364 9.76147C-0.0334204 11.1855 0.222341 12.5682 0.763748 13.871C1.8055 16.3779 2.33367 19.0938 2.33367 21.9435V25H13.5156V21.4862H15.7753C18.125 21.4862 20.0299 19.5813 20.0299 17.2316V15.8901L20.8768 15.8944C21.5466 15.8978 22.0106 15.227 21.7712 14.6014L19.4518 8.54092ZM14.7152 13.1007C13.4896 13.1007 12.4925 12.1037 12.4925 10.878C12.4925 10.5321 12.572 10.2043 12.7136 9.91211L11.3648 8.56328C10.9862 8.77119 10.5518 8.88975 10.0902 8.88975C9.62337 8.88975 9.18455 8.76831 8.80291 8.55601L7.44671 9.91221C7.58831 10.2044 7.6678 10.5321 7.6678 10.878C7.6678 12.1037 6.67068 13.1007 5.4451 13.1007C4.21951 13.1007 3.22239 12.1037 3.22239 10.878C3.22239 9.65239 4.21946 8.65532 5.4451 8.65532C5.79104 8.65532 6.11873 8.73481 6.41096 8.87642L7.76717 7.52022C7.55486 7.13857 7.43342 6.69976 7.43342 6.23291C7.43342 4.76797 8.62527 3.57612 10.0903 3.57612C11.5552 3.57612 12.747 4.76797 12.747 6.23291C12.747 6.70493 12.6227 7.14824 12.406 7.53286L13.7495 8.87637C14.0417 8.73481 14.3694 8.65532 14.7153 8.65532C15.9409 8.65532 16.938 9.65244 16.938 10.878C16.938 12.1036 15.9408 13.1007 14.7152 13.1007Z" fill="#36A18B"/>
<path d="M10.0894 5.04102C9.43222 5.04102 8.89746 5.57573 8.89746 6.23296C8.89746 6.89023 9.43217 7.42495 10.0894 7.42495C10.7467 7.42495 11.2814 6.89023 11.2814 6.23296C11.2814 5.57578 10.7467 5.04102 10.0894 5.04102Z" fill="#36A18B"/>
<path d="M5.44438 10.1201C5.02651 10.1201 4.68652 10.4601 4.68652 10.878C4.68652 11.2958 5.02651 11.6358 5.44438 11.6358C5.8623 11.6358 6.20225 11.2958 6.20225 10.878C6.2023 10.4601 5.8623 10.1201 5.44438 10.1201Z" fill="#36A18B"/>
</svg>