<svg width="23" height="25" viewBox="0 0 23 25" fill="none" xmlns="http://www.w3.org/2000/svg">
<path d="M10.4167 8.33334C10.992 8.33334 11.4583 7.86697 11.4583 7.29167C11.4583 6.71637 10.992 6.25 10.4167 6.25C9.84137 6.25 9.375 6.71637 9.375 7.29167C9.375 7.86697 9.84137 8.33334 10.4167 8.33334Z" fill="#36A18B"/>
<path d="M20.0862 17.5511C21.2445 16.3195 22.0855 14.8245 22.5367 13.1951C22.9879 11.5657 23.0356 9.85103 22.6758 8.19907C22.3161 6.54711 21.5595 5.00757 20.4716 3.71341C19.3837 2.41925 17.9971 1.40937 16.4316 0.771001C14.866 0.13263 13.1686 -0.115044 11.486 0.0493689C9.80331 0.213782 8.18596 0.78534 6.7736 1.71468C5.36125 2.64402 4.19636 3.9032 3.37954 5.38347C2.56271 6.86375 2.11851 8.52061 2.0853 10.211L0.0744827 15.2381C-0.02254 15.4807 -0.0248531 15.7509 0.0680019 15.9951C0.160857 16.2393 0.342099 16.4397 0.575788 16.5566L2.08335 17.3104V21.875C2.08335 22.1512 2.1931 22.4162 2.38845 22.6116C2.5838 22.8069 2.84875 22.9167 3.12502 22.9167H8.73131L9.48509 24.4242C9.57161 24.5972 9.70459 24.7427 9.86914 24.8444C10.0337 24.9461 10.2233 25 10.4167 25H20.8335C20.9947 25 21.1538 24.9626 21.2981 24.8907C21.4425 24.8187 21.5681 24.7143 21.6652 24.5855C21.7623 24.4568 21.8282 24.3072 21.8577 24.1487C21.8871 23.9901 21.8794 23.8269 21.835 23.6719L20.0862 17.5511ZM15.6251 4.16653H17.7085V10.4166H15.6251V4.16653ZM9.37506 17.7083H7.29172V11.4582H9.37506V17.7083ZM7.29172 7.29155C7.29172 6.67348 7.475 6.06929 7.81838 5.55538C8.16176 5.04147 8.64982 4.64093 9.22085 4.40441C9.79187 4.16788 10.4202 4.10599 11.0264 4.22657C11.6326 4.34715 12.1894 4.64478 12.6265 5.08183C13.0635 5.51887 13.3611 6.07569 13.4817 6.68189C13.6023 7.28808 13.5404 7.91642 13.3039 8.48744C13.0674 9.05847 12.6668 9.54653 12.1529 9.88991C11.639 10.2333 11.0348 10.4166 10.4167 10.4166C9.58822 10.4156 8.7939 10.0861 8.20804 9.50024C7.62219 8.91439 7.29265 8.12007 7.29172 7.29155ZM14.5834 17.7083C13.9654 17.7083 13.3612 17.525 12.8473 17.1816C12.3334 16.8382 11.9328 16.3502 11.6963 15.7792C11.4598 15.2081 11.3979 14.5798 11.5185 13.9736C11.639 13.3674 11.9367 12.8106 12.3737 12.3735C12.8108 11.9365 13.3676 11.6389 13.9738 11.5183C14.58 11.3977 15.2083 11.4596 15.7793 11.6961C16.3503 11.9326 16.8384 12.3332 17.1818 12.8471C17.5252 13.361 17.7085 13.9652 17.7085 14.5833C17.7075 15.4118 17.378 16.2061 16.7921 16.792C16.2063 17.3778 15.412 17.7074 14.5834 17.7083Z" fill="#36A18B"/>
<path d="M14.5837 15.6253C15.159 15.6253 15.6253 15.159 15.6253 14.5837C15.6253 14.0084 15.159 13.542 14.5837 13.542C14.0084 13.542 13.542 14.0084 13.542 14.5837C13.542 15.159 14.0084 15.6253 14.5837 15.6253Z" fill="#36A18B"/>
</svg> 
