<svg width="25" height="25" viewBox="0 0 25 25" fill="none" xmlns="http://www.w3.org/2000/svg">
<path d="M15.8833 16.2658L12.6501 19.4991C11.9701 20.179 9.81684 19.1324 7.84357 17.1591C5.87697 15.1925 4.83034 13.0393 5.51032 12.3593L8.74354 9.12608L3.37039 3.75293L0.690486 6.43284C-1.28278 8.4061 1.11714 14.0126 6.05697 18.9457C10.9968 23.8856 16.5966 26.2855 18.5699 24.3056L21.2498 21.6256L15.8833 16.2658Z" fill="#001951"/>
<path d="M12.498 0V2.49991C18.0112 2.49991 22.4977 6.98642 22.4977 12.4996H24.9976C24.9977 5.59314 19.3979 0 12.498 0Z" fill="#001951"/>
<path d="M12.498 5V7.49991C15.2579 7.49991 17.4979 9.73983 17.4979 12.4997H19.9978C19.9978 8.36655 16.6312 5 12.498 5Z" fill="#001951"/>
</svg>
