<svg width="25" height="23" viewBox="0 0 25 23" fill="none" xmlns="http://www.w3.org/2000/svg">
<path d="M12.5 0C5.60753 0 3.35943e-05 4.8873 3.35943e-05 10.8947C3.35943e-05 12.9946 0.685867 15.0287 1.9867 16.7876C1.74045 19.4253 1.08045 21.3835 0.122117 22.3112C-0.00454973 22.4339 -0.0362164 22.6215 0.0437836 22.7765C0.114617 22.9149 0.26045 23 0.4167 23C0.435867 23 0.455034 22.9988 0.474617 22.996C0.643367 22.973 4.56337 22.4266 7.39878 20.8416C9.00878 21.4707 10.7238 21.7895 12.5 21.7895C19.3925 21.7895 25 16.9022 25 10.8947C25 4.8873 19.3925 0 12.5 0ZM6.6667 12.5088C5.74753 12.5088 5.00003 11.7849 5.00003 10.8947C5.00003 10.0046 5.74753 9.2807 6.6667 9.2807C7.58587 9.2807 8.33337 10.0046 8.33337 10.8947C8.33337 11.7849 7.58587 12.5088 6.6667 12.5088ZM12.5 12.5088C11.5809 12.5088 10.8334 11.7849 10.8334 10.8947C10.8334 10.0046 11.5809 9.2807 12.5 9.2807C13.4192 9.2807 14.1667 10.0046 14.1667 10.8947C14.1667 11.7849 13.4192 12.5088 12.5 12.5088ZM18.3334 12.5088C17.4142 12.5088 16.6667 11.7849 16.6667 10.8947C16.6667 10.0046 17.4142 9.2807 18.3334 9.2807C19.2525 9.2807 20 10.0046 20 10.8947C20 11.7849 19.2525 12.5088 18.3334 12.5088Z" fill="#36A18B"/>
</svg> 
