<svg width="25" height="25" viewBox="0 0 25 25" fill="none" xmlns="http://www.w3.org/2000/svg">
<path d="M17.3077 8.65385C17.3077 3.87445 13.4332 0 8.65385 0C3.87445 0 0 3.87445 0 8.65385C0 10.4626 0.555275 12.1415 1.50418 13.5302L0.367528 16.9402L3.77758 15.8035C5.16615 16.7524 6.84506 17.3077 8.65385 17.3077C13.4332 17.3077 17.3077 13.4332 17.3077 8.65385Z" fill="#001951"/>
<path d="M24.9993 16.3462C24.9993 12.4708 22.4515 9.19106 18.9398 8.08887C18.9499 8.27645 18.9554 8.4648 18.9554 8.65392C18.9554 10.044 18.6827 11.3933 18.1451 12.6645C17.6261 13.8914 16.8835 14.993 15.9379 15.9386C14.9923 16.8843 13.8907 17.6268 12.6637 18.1458C11.3926 18.6835 10.0432 18.9561 8.65317 18.9561C8.46399 18.9561 8.27564 18.9499 8.08789 18.9397C9.18982 22.4519 12.4697 25.0001 16.3455 25.0001C18.1543 25.0001 19.8332 24.4448 21.2218 23.4959L24.6319 24.6325L23.4952 21.2225C24.4441 19.834 24.9993 18.155 24.9993 16.3462Z" fill="#001951"/>
</svg>
