<svg width="16" height="16" viewBox="0 0 16 16" fill="none" xmlns="http://www.w3.org/2000/svg">
<g opacity="0.8">
<path d="M8 1C4.13132 1 1 4.13078 1 8C1 11.8687 4.13078 15 8 15C11.8687 15 15 11.8692 15 8C15 4.1313 11.8692 1 8 1ZM8 13.9062C4.73579 13.9062 2.09375 11.2647 2.09375 8C2.09375 4.73579 4.73535 2.09375 8 2.09375C11.2642 2.09375 13.9062 4.73535 13.9062 8C13.9062 11.2642 11.2647 13.9062 8 13.9062Z" fill="#001F65" stroke="#001F65" stroke-width="0.3"/>
<path d="M8.54522 6.45344V3.625C8.54522 3.32296 8.30038 3.07812 7.99834 3.07812C7.6963 3.07812 7.45147 3.32296 7.45147 3.625V6.45344C6.81496 6.67919 6.35772 7.28707 6.35772 8C6.35772 8.25296 6.41536 8.49271 6.51806 8.70689L5.3008 9.92415C5.08722 10.1377 5.08724 10.484 5.30083 10.6975C5.51438 10.9111 5.86063 10.9111 6.07422 10.6975L7.29145 9.48028C7.50563 9.58298 7.74536 9.6406 7.99834 9.6406C8.90298 9.6406 9.63897 8.90461 9.63897 7.99997C9.63897 7.28707 9.18172 6.67921 8.54522 6.45344ZM7.99834 8.54688C7.69679 8.54688 7.45147 8.30155 7.45147 8C7.45147 7.69845 7.69679 7.45312 7.99834 7.45312C8.29989 7.45312 8.54522 7.69845 8.54522 8C8.54522 8.30155 8.29989 8.54688 7.99834 8.54688Z" fill="#001F65" stroke="#001F65" stroke-width="0.3"/>
</g>
</svg>
