<svg width="23" height="25" viewBox="0 0 23 25" fill="none" xmlns="http://www.w3.org/2000/svg">
<path d="M22.9426 2.86465C22.9426 1.28231 21.6603 0 20.0781 0H8.09883C6.51669 0 5.23438 1.28231 5.23438 2.86465V16.9271C5.23438 18.5093 6.51669 19.7916 8.09883 19.7916H20.0781C21.6603 19.7916 22.9426 18.5093 22.9426 16.9271V2.86465ZM17.9947 15.1041H10.1822C9.75098 15.1041 9.40098 14.7541 9.40098 14.3229C9.40098 13.8916 9.75098 13.5416 10.1822 13.5416H17.9947C18.426 13.5416 18.776 13.8916 18.776 14.3229C18.776 14.7541 18.426 15.1041 17.9947 15.1041ZM17.9947 11.9791H10.1822C9.75098 11.9791 9.40098 11.6291 9.40098 11.1979C9.40098 10.7666 9.75098 10.4166 10.1822 10.4166H17.9947C18.426 10.4166 18.776 10.7666 18.776 11.1979C18.776 11.6291 18.426 11.9791 17.9947 11.9791ZM17.9947 8.8541H10.1822C9.75098 8.8541 9.40098 8.5041 9.40098 8.07285C9.40098 7.6416 9.75098 7.2916 10.1822 7.2916H17.9947C18.426 7.2916 18.776 7.6416 18.776 8.07285C18.776 8.5041 18.426 8.8541 17.9947 8.8541Z" fill="#3E649D"/>
<path d="M8.09824 21.3535C5.65665 21.3535 3.67129 19.3672 3.67129 16.9266V2.86406C3.67129 2.77441 3.69208 2.69106 3.69723 2.60352H2.89004C1.3098 2.60352 0.0253906 3.88792 0.0253906 5.46816V22.1348C0.0253906 23.715 1.3098 24.9994 2.89004 24.9994H15.39C16.9703 24.9994 18.2545 23.715 18.2545 22.1348V21.3535H8.09824Z" fill="#3E649D"/>
</svg>
