<svg width="25" height="22" viewBox="0 0 25 22" fill="none" xmlns="http://www.w3.org/2000/svg">
<path d="M24.2188 0H0.78125C0.35 0 0 0.348437 0 0.78125V2.34375C0 2.775 0.35 3.125 0.78125 3.125H1.5625V15.625C1.5625 16.4875 2.26406 17.1875 3.125 17.1875H11.7188V19.1125L9.72344 20.4437C9.36406 20.6828 9.26719 21.1688 9.50625 21.5266C9.74375 21.8844 10.2266 21.9813 10.5891 21.7438L12.5 20.4703L14.4109 21.7438C14.5437 21.8328 14.6938 21.875 14.8438 21.875C15.0953 21.875 15.3422 21.7531 15.4938 21.5266C15.7328 21.1688 15.6359 20.6828 15.2766 20.4437L13.2812 19.1125V17.1875H21.875C22.7375 17.1875 23.4375 16.4875 23.4375 15.625V3.125H24.2188C24.65 3.125 25 2.775 25 2.34375V0.78125C25 0.348437 24.65 0 24.2188 0Z" fill="#E9A5AD"/>
</svg>
