<?xml version="1.0" encoding="UTF-8"?>
<svg width="17px" height="17px" viewBox="0 0 17 17" version="1.1" xmlns="http://www.w3.org/2000/svg" xmlns:xlink="http://www.w3.org/1999/xlink">
    <title>Download_Icon</title>
    <g id="Page-1" stroke="none" stroke-width="1" fill="none" fill-rule="evenodd">
        <path d="M7.171875,0 L9.828125,0 C10.2697266,0 10.625,0.355273437 10.625,0.796875 L10.625,6.375 L13.5369141,6.375 C14.1279297,6.375 14.4234375,7.08886719 14.0050781,7.50722656 L8.95488281,12.5607422 C8.70585937,12.8097656 8.29746094,12.8097656 8.0484375,12.5607422 L2.99160156,7.50722656 C2.57324219,7.08886719 2.86875,6.375 3.45976562,6.375 L6.375,6.375 L6.375,0.796875 C6.375,0.355273437 6.73027344,0 7.171875,0 Z M17,12.484375 L17,16.203125 C17,16.6447266 16.6447266,17 16.203125,17 L0.796875,17 C0.355273437,17 0,16.6447266 0,16.203125 L0,12.484375 C0,12.0427734 0.355273437,11.6875 0.796875,11.6875 L5.66777344,11.6875 L7.29472656,13.3144531 C7.96210937,13.9818359 9.03789062,13.9818359 9.70527344,13.3144531 L11.3322266,11.6875 L16.203125,11.6875 C16.6447266,11.6875 17,12.0427734 17,12.484375 Z M12.8828125,15.40625 C12.8828125,15.0410156 12.5839844,14.7421875 12.21875,14.7421875 C11.8535156,14.7421875 11.5546875,15.0410156 11.5546875,15.40625 C11.5546875,15.7714844 11.8535156,16.0703125 12.21875,16.0703125 C12.5839844,16.0703125 12.8828125,15.7714844 12.8828125,15.40625 Z M15.0078125,15.40625 C15.0078125,15.0410156 14.7089844,14.7421875 14.34375,14.7421875 C13.9785156,14.7421875 13.6796875,15.0410156 13.6796875,15.40625 C13.6796875,15.7714844 13.9785156,16.0703125 14.34375,16.0703125 C14.7089844,16.0703125 15.0078125,15.7714844 15.0078125,15.40625 Z" id="Download_Icon" fill="#001951" fill-rule="nonzero"></path>
    </g>
</svg>