<svg width="30" height="30" viewBox="0 0 30 30" fill="none" xmlns="http://www.w3.org/2000/svg">
<path d="M28.5 12H22.5V9C22.5 8.1 21.9 7.5 21 7.5H16.5V6L22.5 3.75L16.5 1.5C16.5 0.6 15.9 0 15 0C14.1 0 13.5 0.6 13.5 1.5V7.5H9C8.1 7.5 7.5 8.1 7.5 9V12H1.5C0.6 12 0 12.6 0 13.5V30H12V24C12 23.1 12.6 22.5 13.5 22.5H16.5C17.4 22.5 18 23.1 18 24V30H30V13.5C30 12.6 29.4 12 28.5 12ZM6 27H3V24H6V27ZM6 21H3V18H6V21ZM15 16.5C13.35 16.5 12 15.15 12 13.5C12 11.85 13.35 10.5 15 10.5C16.65 10.5 18 11.85 18 13.5C18 15.15 16.65 16.5 15 16.5ZM27 27H24V24H27V27ZM27 21H24V18H27V21Z" fill="#EAC15B"/>
</svg>
