<svg width="23" height="21" viewBox="0 0 23 21" fill="none" xmlns="http://www.w3.org/2000/svg">
<path d="M16.25 16.1042C15.9809 16.5873 15.5884 16.9903 15.1126 17.2722C14.6367 17.554 14.0947 17.7045 13.5417 17.7083H8.625L3.65625 20.6875C3.49546 20.7829 3.31196 20.8333 3.125 20.8333C2.94605 20.8328 2.77027 20.7861 2.61458 20.6979C2.45368 20.6075 2.3197 20.4759 2.22636 20.3167C2.13301 20.1574 2.08365 19.9762 2.08333 19.7917V17.5313C1.4738 17.3157 0.946101 16.9165 0.572976 16.3885C0.19985 15.8605 -0.0003385 15.2298 4.29659e-07 14.5833V8.33333C4.29659e-07 7.50453 0.329241 6.70968 0.915292 6.12363C1.50134 5.53757 2.2962 5.20833 3.125 5.20833H4.16667V9.375C4.16667 10.7563 4.7154 12.0811 5.69215 13.0578C6.6689 14.0346 7.99366 14.5833 9.375 14.5833H13.7188L16.25 16.1042ZM19.7917 0H9.375C8.5462 0 7.75134 0.32924 7.16529 0.915291C6.57924 1.50134 6.25 2.2962 6.25 3.125V9.375C6.25 10.2038 6.57924 10.9987 7.16529 11.5847C7.75134 12.1708 8.5462 12.5 9.375 12.5H14.2917L19.2604 15.4792C19.4212 15.5746 19.6047 15.6249 19.7917 15.625C19.9706 15.6245 20.1464 15.5778 20.3021 15.4896C20.463 15.3991 20.597 15.2676 20.6903 15.1083C20.7837 14.9491 20.833 14.7679 20.8333 14.5833V12.3229C21.4429 12.1074 21.9706 11.7082 22.3437 11.1802C22.7168 10.6522 22.917 10.0215 22.9167 9.375V3.125C22.9167 2.2962 22.5874 1.50134 22.0014 0.915291C21.4153 0.32924 20.6205 0 19.7917 0Z" fill="#E9A5AD"/>
</svg>
