<svg width="27" height="25" viewBox="0 0 27 25" fill="none" xmlns="http://www.w3.org/2000/svg">
<path d="M25.9652 19.157L16.5925 1.90212C15.8851 0.711236 14.6357 0 13.2505 0C11.8653 0 10.616 0.711236 9.90857 1.90212C9.90323 1.91123 9.89873 1.92034 9.8934 1.92945L0.551877 19.1297C-0.170695 20.3457 -0.184361 21.806 0.514659 23.0357C1.21528 24.266 2.47749 25 3.89308 25H22.5562C23.9718 25 25.2859 24.266 25.9865 23.0357C26.6855 21.8061 26.6719 20.3456 25.9652 19.157ZM11.6961 7.90067C11.6961 7.04212 12.392 6.3462 13.2505 6.3462C14.1091 6.3462 14.805 7.04217 14.805 7.90067V14.1186C14.805 14.9771 14.1091 15.6731 13.2505 15.6731C12.392 15.6731 11.6961 14.977 11.6961 14.1186V7.90067ZM13.2505 21.8911C11.9648 21.8911 10.9188 20.8451 10.9188 19.5593C10.9188 18.2735 11.9647 17.2276 13.2505 17.2276C14.5363 17.2276 15.5823 18.2735 15.5823 19.5593C15.5823 20.8451 14.5364 21.8911 13.2505 21.8911Z" fill="#C47881"/>
</svg>
