<svg width="24" height="14" viewBox="0 0 24 14" fill="none" xmlns="http://www.w3.org/2000/svg">
<path d="M23.9438 7.0125C21.1125 3.75 17.2 0 12 0C9.9 0 7.975 0.59375 5.94375 1.8625C4.23125 2.9375 2.475 4.45 0.0625 6.9375L0 7L0.41875 7.43125C3.8625 10.9562 6.8375 14 12 14C14.2813 14 16.4938 13.2563 18.7625 11.725C20.6938 10.4188 22.3375 8.7625 23.6563 7.425L24 7.08125L23.9438 7.0125ZM12 12C9.24375 12 7 9.75625 7 7C7 4.24375 9.24375 2 12 2C14.7563 2 17 4.24375 17 7C17 9.75625 14.7563 12 12 12Z" fill="#001951"/>
<path d="M11.652 5.17402C11.652 4.74277 11.777 4.33652 11.9957 3.99902C10.3395 3.99902 9.00195 5.34902 9.00195 7.01152C9.00195 8.67402 10.3457 10.0178 11.9957 10.0178C13.6457 10.0178 14.9957 8.67402 14.9957 7.01152C14.6582 7.23027 14.252 7.35527 13.8207 7.35527C12.627 7.34902 11.652 6.37402 11.652 5.17402Z" fill="#001951" />
</svg>
