<svg width="26" height="26" viewBox="0 0 26 26" fill="none" xmlns="http://www.w3.org/2000/svg">
<g clip-path="url(#clip0)">
<path d="M5.6571 19.5809C7.45667 19.5809 8.92079 18.1168 8.92079 16.3172C8.92079 14.5176 7.45667 13.0537 5.6571 13.0537C3.85774 13.0537 2.39362 14.5178 2.39362 16.3172C2.39362 18.1168 3.85774 19.5809 5.6571 19.5809Z" fill="#C67982"/>
<path d="M21.1048 5.06285C21.1048 2.26135 18.8399 0 16.0417 0C14.9293 0 13.872 0.355865 13 1.01364C12.1278 0.355865 11.0705 0 9.95811 0C7.15662 0 4.89526 2.26492 4.89526 5.06285C4.89526 6.41609 5.42172 7.68761 6.37764 8.64333L12.4615 14.727C12.61 14.8757 12.805 14.9501 13 14.9501C13.1948 14.9501 13.3898 14.8757 13.5386 14.727L19.6222 8.64333C20.5781 7.68761 21.1048 6.41609 21.1048 5.06285Z" fill="#C67982"/>
<path d="M5.65695 19.5811C2.53271 19.5811 0 22.1138 0 25.238C0 25.6587 0.340988 25.9997 0.761719 25.9997H10.5524C10.9731 25.9997 11.3141 25.6587 11.3141 25.238C11.3141 22.1138 8.78139 19.5811 5.65695 19.5811Z" fill="#C67982"/>
<path d="M17.0797 16.3172C17.0797 18.1168 18.5436 19.5809 20.3431 19.5809C22.1427 19.5809 23.6066 18.1168 23.6066 16.3172C23.6066 14.5176 22.1427 13.0537 20.3431 13.0537C18.5436 13.0537 17.0797 14.5178 17.0797 16.3172Z" fill="#C67982"/>
<path d="M20.3431 19.5811C17.2186 19.5811 14.6859 22.1138 14.6859 25.238C14.6859 25.6587 15.0269 25.9997 15.4476 25.9997H25.2383C25.659 25.9997 26 25.6587 26 25.238C26 22.1138 23.4673 19.5811 20.3431 19.5811Z" fill="#C67982"/>
</g>
<defs>
<clipPath id="clip0">
<rect width="26" height="26" fill="white"/>
</clipPath>
</defs>
</svg>
