<svg width="25" height="25" viewBox="0 0 25 25" fill="none" xmlns="http://www.w3.org/2000/svg">
<path d="M22.5543 6.79346H18.2065V2.44565C18.2065 1.09707 17.1095 0 15.7609 0H9.23911C7.89053 0 6.79346 1.09707 6.79346 2.44565V6.79346H2.44565C1.09707 6.79346 0 7.89053 0 9.23911V15.7608C0 17.1094 1.09707 18.2065 2.44565 18.2065H6.79346V22.5543C6.79346 23.9029 7.89053 25 9.23911 25H15.7608C17.1094 25 18.2065 23.9029 18.2065 22.5543V18.2065H22.5543C23.9029 18.2065 25 17.1095 25 15.7609V9.23911C25 7.89053 23.9029 6.79346 22.5543 6.79346ZM6.28286 13.5541C6.60127 13.8722 6.60127 14.3886 6.28286 14.7068C6.12363 14.8661 5.91504 14.9457 5.70649 14.9457C5.49795 14.9457 5.28931 14.8661 5.13013 14.7068L3.49971 13.0764C3.1813 12.7583 3.1813 12.2418 3.49971 11.9236L5.13013 10.2932C5.44854 9.9748 5.96445 9.9748 6.28291 10.2932C6.60132 10.6114 6.60132 11.1278 6.28291 11.446L5.22886 12.5L6.28286 13.5541ZM10.2932 5.13018L11.9236 3.49976C12.242 3.18135 12.7579 3.18135 13.0764 3.49976L14.7068 5.13018C15.0252 5.44834 15.0252 5.96475 14.7068 6.28291C14.5476 6.44214 14.339 6.52178 14.1304 6.52178C13.9219 6.52178 13.7132 6.44214 13.5541 6.28291L12.5 5.22886L11.4459 6.28291C11.1275 6.60132 10.6116 6.60132 10.2932 6.28291C9.97471 5.96479 9.97471 5.44839 10.2932 5.13018ZM12.5 10.0543C13.8486 10.0543 14.9457 11.1514 14.9457 12.5C14.9457 13.8486 13.8486 14.9457 12.5 14.9457C11.1514 14.9457 10.0543 13.8486 10.0543 12.5C10.0543 11.1514 11.1514 10.0543 12.5 10.0543ZM14.7068 19.8698L13.0764 21.5002C12.9171 21.6595 12.7085 21.7391 12.5 21.7391C12.2915 21.7391 12.0828 21.6595 11.9236 21.5002L10.2932 19.8698C9.9748 19.5517 9.9748 19.0353 10.2932 18.717C10.6116 18.3986 11.1275 18.3986 11.446 18.717L12.5 19.7711L13.5541 18.7171C13.8725 18.3987 14.3884 18.3987 14.7068 18.7171C15.0253 19.0353 15.0253 19.5517 14.7068 19.8698ZM21.5003 13.0764L19.8699 14.7068C19.7106 14.866 19.5021 14.9457 19.2935 14.9457C19.085 14.9457 18.8763 14.866 18.7171 14.7068C18.3987 14.3886 18.3987 13.8722 18.7171 13.554L19.7711 12.5L18.7171 11.4459C18.3987 11.1278 18.3987 10.6114 18.7171 10.2932C19.0355 9.97476 19.5514 9.97476 19.8699 10.2932L21.5003 11.9236C21.8188 12.2418 21.8188 12.7582 21.5003 13.0764Z" fill="#3E649D"/>
</svg>
