<svg width="26" height="26" viewBox="0 0 26 26" fill="none" xmlns="http://www.w3.org/2000/svg">
<path d="M18.2968 20.7998H8.98158C7.89159 21.1508 7.10052 22.1744 7.10052 23.3795V26H20.1779V23.3795C20.1779 22.1744 19.3868 21.1508 18.2968 20.7998Z" fill="#C47982"/>
<path d="M14.2723 8.26582L13.6394 6.9834L13.0065 8.26582L11.5913 8.47148L12.6153 9.46968L12.3736 10.8792L13.6394 10.2137L14.9052 10.8792L14.6635 9.46968L15.6875 8.47148L14.2723 8.26582Z" fill="#C47982"/>
<path d="M21.5938 4.61885V1H5.68594V4.61885H2V9.26484C2 11.4116 3.74653 13.1582 5.89336 13.1582H6.14097C6.31689 13.6309 6.54238 14.0864 6.81587 14.5171C7.55508 15.6815 8.60552 16.607 9.85366 17.1937L10.8655 17.6693V19.335H16.4143V17.6693L17.4261 17.1938C18.6743 16.607 19.7247 15.6815 20.4639 14.5172C20.7374 14.0864 20.9628 13.631 21.1388 13.1583H21.3864C23.5332 13.1583 25.2797 11.4117 25.2797 9.26494V4.61895H21.5938V4.61885ZM3.46484 9.26489V6.08374H5.68589V10.6293C5.68589 10.9861 5.71255 11.3403 5.76411 11.6899C4.48491 11.6225 3.46484 10.5606 3.46484 9.26489ZM16.2378 9.98106L16.6731 12.5188L15.9186 13.0667L13.6398 11.8686L11.3611 13.0666L10.6066 12.5188L11.0418 9.98101L9.19873 8.18438L9.48652 7.29702L12.0342 6.92686L13.1733 4.6188H14.1064L15.2455 6.92686L17.7932 7.29702L18.081 8.18438L16.2378 9.98106ZM23.8148 9.26489C23.8148 10.5606 22.7948 11.6225 21.5156 11.6899C21.5671 11.3403 21.5938 10.986 21.5938 10.6293V6.08374H23.8148V9.26489Z" fill="#C47982"/>
</svg>
