<svg width="25" height="25" viewBox="0 0 25 25" fill="none" xmlns="http://www.w3.org/2000/svg">
<path d="M19.0995 0C17.5725 0 16.2249 0.790381 15.4367 1.98696C14.6485 0.790381 13.3009 0 11.7739 0C9.19106 0 7.38721 2.02417 7.38721 4.92168C7.38721 8.50825 10.4947 10.5755 14.1457 13.7762L15.5282 14.9878L17.4694 13.2855C20.7994 10.3723 23.4862 8.23008 23.4862 4.92168C23.4862 2.02417 21.6823 0 19.0995 0Z" fill="#36A18B"/>
<path d="M21.001 18.3936L17.583 20.6055H8.83789V19.1406H13.2324C14.0967 19.1406 14.8877 18.7598 15.4297 18.1445C15.8838 17.6318 16.1621 16.958 16.1621 16.2109H11.5918C11.1816 16.2109 11.0205 15.918 10.7568 15.7275C9.80464 14.8779 8.58892 14.4531 7.37305 14.4531C6.18628 14.4531 4.68618 14.9239 3.36548 16.2109H0V25C4.09341 25 13.0682 25 17.1875 25L25 19.1406C24.1064 17.8809 22.3486 17.5 21.001 18.3936Z" fill="#36A18B"/>
</svg>
