<svg width="25" height="22" viewBox="0 0 25 22" fill="none" xmlns="http://www.w3.org/2000/svg">
<path d="M12.5 21.6217C12.3735 21.6217 12.2471 21.589 12.1338 21.5236C12.0108 21.4526 9.08741 19.7552 6.12209 17.1977C4.36457 15.6819 2.96164 14.1785 1.95237 12.7293C0.646316 10.854 -0.0104695 9.05023 0.000126176 7.36795C0.0125285 5.41044 0.71365 3.56952 1.97449 2.18427C3.25661 0.775682 4.96765 0 6.7925 0C9.13121 0 11.2694 1.31006 12.5001 3.38534C13.7307 1.3101 15.8689 0 18.2076 0C19.9316 0 21.5765 0.699901 22.8394 1.9708C24.2253 3.36547 25.0128 5.33607 24.9999 7.37723C24.9892 9.05657 24.3201 10.8576 23.0112 12.7303C21.9988 14.1788 20.5978 15.6816 18.8472 17.1969C15.8927 19.7542 12.9903 21.4515 12.8682 21.5225C12.7544 21.5886 12.6272 21.6217 12.5 21.6217Z" fill="#E9A5AD"/>
</svg>
