<svg width="21" height="25" viewBox="0 0 21 25" fill="none" xmlns="http://www.w3.org/2000/svg">
<path d="M5.24305 25H11.2206C12.8886 25 14.4321 24.1292 15.2485 22.7192L20.4191 13.7918L20.1273 13.577C20.1218 13.5727 20.1164 13.5684 20.1111 13.5642C19.6618 13.1842 19.0572 12.9891 18.4419 13.026C17.8134 13.069 17.2331 13.3451 16.8398 13.7879L15.3483 15.4203C15.2339 15.5453 15.0443 15.5924 14.8747 15.5378C14.7049 15.4832 14.5917 15.3389 14.5915 15.1768L14.5829 3.94694C14.5822 3.18154 13.948 2.55898 13.169 2.55898C12.4072 2.55898 11.7847 3.15263 11.7559 3.89361C11.7559 5.0278 11.7552 6.26242 11.7549 7.43751C11.7544 10.0952 11.754 12.3891 11.7549 12.6116C11.7554 12.7131 11.7106 12.8105 11.6308 12.8823C11.5508 12.9538 11.4424 12.9938 11.3294 12.9934H11.328C11.2153 12.9943 11.1072 12.9547 11.0269 12.8836C10.9469 12.8125 10.9016 12.7154 10.9011 12.6144C10.9002 12.3904 10.9006 10.0978 10.9011 7.43879C10.9011 6.29176 10.9016 5.08733 10.9018 3.97542C10.9011 3.96643 10.9006 3.95808 10.9006 3.94908C10.9006 3.92724 10.9011 3.90625 10.9018 3.88441C10.9018 2.95089 10.9018 2.08869 10.9018 1.38282C10.9023 0.617633 10.2679 0 9.48845 0H9.44509C8.66562 0 8.01884 0.612707 8.01884 1.37854V12.6161C8.01884 12.8279 7.82755 12.9998 7.59195 12.9998C7.3561 12.9998 7.16505 12.8279 7.16505 12.6161V2.83139C7.16505 2.06556 6.544 1.44257 5.76453 1.44257C4.98053 1.44257 4.35972 2.06556 4.35972 2.83139V12.6161C4.35972 12.8279 4.16842 12.9998 3.93282 12.9998C3.69698 12.9998 3.50592 12.8279 3.50592 12.6161V6.84836C3.50592 6.08231 2.85771 5.48246 2.078 5.48246H2.03727C1.2597 5.48246 0.62531 6.0896 0.623404 6.85307C0.615305 10.0048 0.620307 15.5616 0.625548 20.5357C0.62793 23.0002 2.69953 25 5.24305 25Z" fill="#369E88"/>
</svg> 
 