<svg width="25" height="25" viewBox="0 0 25 25" fill="none" xmlns="http://www.w3.org/2000/svg">
<path d="M21.3389 3.66113C18.9779 1.3002 15.8389 0 12.5 0C9.16108 0 6.02212 1.3002 3.66113 3.66113C1.3002 6.02212 0 9.16113 0 12.5C0 15.8389 1.3002 18.9779 3.66113 21.3389C6.02212 23.6998 9.16108 25 12.5 25C15.8389 25 18.9779 23.6998 21.3389 21.3389C23.6998 18.9779 25 15.8389 25 12.5C25 9.16113 23.6998 6.02212 21.3389 3.66113ZM12.5 4.66987C13.5374 4.66987 14.3783 5.51079 14.3783 6.54814C14.3783 7.5855 13.5374 8.42642 12.5 8.42642C11.4626 8.42642 10.6217 7.5855 10.6217 6.54814C10.6217 5.51079 11.4626 4.66987 12.5 4.66987ZM14.3783 20.5204H10.6217C9.73623 20.5204 9.01836 19.8026 9.01836 18.917C9.01836 18.0315 9.73618 17.3137 10.6217 17.3137H10.6675V13.3652C9.78057 13.2373 9.09897 12.4741 9.09897 11.5517C9.09897 10.5396 9.91938 9.71919 10.9314 9.71919H12.5C13.512 9.71919 14.3325 10.5396 14.3325 11.5517V17.3137H14.3783C15.2638 17.3137 15.9816 18.0315 15.9816 18.917C15.9816 19.8026 15.2638 20.5204 14.3783 20.5204Z" fill="#E9A5AD"/>
</svg>
