<svg width="31" height="30" viewBox="0 0 31 30" fill="none" xmlns="http://www.w3.org/2000/svg">
<path d="M28.6364 27.2724H27.2727V19.0906H28.6456C29.3987 19.0906 30.0093 18.48 30.0093 17.7269C30.0093 16.9738 29.3987 16.3633 28.6456 16.3633H25.9091H25.3767H23.9091H6.09091H5.015H4.09091H1.37291C0.619818 16.3633 0.00927273 16.9738 0.00927273 17.7269C0.00927273 18.48 0.619818 19.0906 1.37291 19.0906H2.72727V27.2724H1.36364C0.610546 27.2724 0 27.8829 0 28.636C0 29.3891 0.610546 29.9996 1.36364 29.9996H4.09091H4.95755H13.6364V27.2724V25.9082C13.6364 25.155 14.2469 24.5446 15 24.5446C15.7531 24.5446 16.3636 25.155 16.3636 25.9082V27.2724V29.9996H25.5871H25.9091H28.6364C29.3895 29.9996 30 29.3891 30 28.636C30 27.8829 29.3895 27.2724 28.6364 27.2724Z" fill="#EAC15B"/>
<path d="M23.909 12.2727C23.909 11.5196 23.2985 10.9091 22.5454 10.9091H15.4526V8.18182H20.4562C21.2093 8.18182 21.8198 7.57128 21.8198 6.81818V1.36364C21.8198 0.610546 21.2093 0 20.4562 0H14.089C13.3359 0 12.7254 0.610546 12.7254 1.36364V6.81818V10.9091H7.45446C6.70137 10.9091 6.09082 11.5196 6.09082 12.2727V13.6364H23.909V12.2727Z" fill="#EAC15B"/>
</svg>
