<svg width="25" height="25" viewBox="0 0 25 25" fill="none" xmlns="http://www.w3.org/2000/svg">
<path d="M12.5 0C5.63491 0 0 5.6751 0 12.5C0 19.3668 5.67539 25 12.5 25C19.3657 25 25 19.3252 25 12.5C25 5.6377 19.3256 0 12.5 0ZM17.6187 2.78667C19.5736 3.821 21.2278 5.42642 22.2622 7.3813L18.1627 9.18159C17.5918 8.21152 16.7885 7.4082 15.8185 6.83735L17.6187 2.78667ZM7.38125 2.73784L9.18154 6.83735C8.21147 7.4082 7.40815 8.21152 6.8373 9.18159L2.78662 7.3813C3.821 5.42637 5.42637 3.77217 7.38125 2.73784ZM7.38125 22.2133C5.42637 21.179 3.821 19.5736 2.78662 17.6187L6.8373 15.8184C7.40815 16.7885 8.21147 17.5918 9.18154 18.1626L7.38125 22.2133ZM7.37305 12.5C7.37305 9.67329 9.67329 7.37305 12.5 7.37305C15.3267 7.37305 17.627 9.67329 17.627 12.5C17.627 15.3267 15.3267 17.627 12.5 17.627C9.67329 17.627 7.37305 15.3267 7.37305 12.5ZM17.6187 22.2133L15.8185 18.1626C16.7885 17.5918 17.5918 16.7885 18.1627 15.8184L22.2622 17.6187C21.2278 19.5736 19.5736 21.179 17.6187 22.2133Z" fill="#E9A5AD"/>
</svg>
