<?xml version="1.0" encoding="UTF-8"?>
<svg width="16px" height="16px" viewBox="0 0 16 16" version="1.1" xmlns="http://www.w3.org/2000/svg" xmlns:xlink="http://www.w3.org/1999/xlink">
    <title>ExternalLink_Icon</title>
    <g id="Page-1" stroke="none" stroke-width="1" fill="none" fill-rule="evenodd">
        <path d="M16,1.71428571 L16,14.2857143 C16,15.2325 15.2325,16 14.2857143,16 L1.71428571,16 C0.7675,16 0,15.2325 0,14.2857143 L0,1.71428571 C0,0.7675 0.7675,0 1.71428571,0 L14.2857143,0 C15.2325,0 16,0.7675 16,1.71428571 Z M12.8571429,2.28571429 L8.85817857,2.28571429 C8.097,2.28571429 7.71246429,3.20932143 8.25207143,3.74896429 L9.39435714,4.89135714 L2.41125,11.8744643 C2.24389286,12.0418214 2.24389286,12.3131786 2.41125,12.4805714 L3.51942857,13.58875 C3.68682143,13.7561071 3.95817857,13.7561071 4.12553571,13.58875 L11.1086071,6.60567857 L12.2510357,7.74821429 C12.7877857,8.28489286 13.7142857,7.90803571 13.7142857,7.14210714 L13.7142857,3.14285714 C13.7142857,2.66946429 13.3305357,2.28571429 12.8571429,2.28571429 Z" id="ExternalLink_Icon" fill="#FFFFFF" fill-rule="nonzero"></path>
    </g>
</svg>