<svg width="59" height="32" viewBox="0 0 59 32" fill="none" xmlns="http://www.w3.org/2000/svg">
<path d="M53.8983 1.99935L25.885 10.0965C25.4786 10.1762 25.0801 9.90526 25.0004 9.49881L23.6216 2.29423C23.5101 1.71244 22.7928 1.48131 22.3625 1.88777L3.04405 20.21C2.57384 20.6563 2.84481 21.4373 3.48238 21.509L6.08844 21.772C6.17611 21.78 6.26378 21.772 6.34348 21.7561L55.548 9.69007C55.8827 9.61037 56.1218 9.30749 56.1218 8.95683L56.1218 5.07562C56.1378 4.60541 54.3685 1.90372 53.8983 1.99935Z" fill="#DAAE3F"/>
<path d="M48.7899 4.66877C47.2359 4.9477 45.6818 5.28242 44.1197 5.50557C42.725 5.69684 41.3622 5.88013 40.0632 6.48582C39.7285 6.64521 39.33 6.70098 38.9634 6.81255C38.2939 7.01179 37.6245 7.1951 36.963 7.41028C36.6602 7.50591 36.3812 7.72907 36.0863 7.76892C34.6359 7.96019 33.2332 8.29493 31.9102 8.9325C30.7387 8.95641 29.7345 9.47444 28.6666 9.88089C28.4036 9.9845 28.1326 10.0722 27.8617 10.1678L26.9212 10.4706C26.5626 10.5902 26.188 10.7177 25.8374 10.7735C25.5026 10.8612 25.1042 10.8054 24.7854 10.6221C24.4188 10.4228 24.2435 10.0483 24.1558 9.62586C23.9645 8.13554 23.9008 7.46611 23.7095 6.50975C23.6218 6.06345 23.5262 5.60918 23.4305 5.16288L23.2871 4.5492L23.1835 4.14275L23.1436 3.99132C23.0639 3.72832 23.056 3.4414 22.9444 3.1784C22.793 2.92337 22.4104 2.8756 22.2192 3.07484C22.012 3.2422 21.7888 3.40155 21.5417 3.57688L21.1512 3.84787L20.5854 4.25433C19.7247 4.86799 18.9357 5.62508 18.1546 6.36626C17.2302 7.24292 16.3615 8.19133 15.4529 9.08393C14.13 10.383 12.8548 11.7139 11.6674 13.1325C10.0814 15.0373 8.43966 16.9021 6.75009 18.7272L6.42335 19.0699L6.12846 19.3647C6.07268 19.4205 6.01689 19.4683 5.94516 19.5162C5.80968 19.6198 5.63435 19.7313 5.45902 19.8668C5.27571 20.0262 5.39525 20.3132 5.57856 20.3052L6.16831 20.4566C6.27989 20.4885 6.39943 20.5124 6.52694 20.4885L6.62259 20.4725L6.6704 20.4645L6.78994 20.4407L7.26015 20.345L9.13302 19.9466C11.0059 19.5321 12.8628 19.046 14.7118 18.5519C16.4412 18.0817 18.1387 17.5397 19.8681 17.0615L35.2017 12.8456L38.8677 11.7777C39.4814 11.6023 40.103 11.4509 40.7167 11.3074L47.6264 9.72947L54.2173 8.13554C54.2491 8.13554 54.297 8.11959 54.297 8.07975C54.297 7.98411 54.3049 8.21523 54.3049 7.52984L54.3209 6.08734L54.3209 5.41787C54.3209 5.39396 54.3209 5.37806 54.3049 5.36212L54.297 5.34617L54.2332 5.23458L54.0818 4.98752C53.9702 4.82016 53.8507 4.64482 53.7232 4.48543C53.4841 4.17462 53.1653 3.82397 52.974 3.70442C52.9581 3.70442 52.9182 3.65658 52.9341 3.68049C52.9262 3.69643 52.9581 3.65658 52.9899 3.6247L53.0776 3.52907C53.1334 3.46531 53.1892 3.39358 53.237 3.32982C53.3406 3.20231 53.4283 3.07481 53.508 2.9473C53.8028 2.66039 53.8746 2.26191 53.9144 2.25394C53.9383 2.15831 53.8985 2.10253 53.9064 2.11049C53.9064 2.11847 53.9463 2.19018 53.8905 2.29378C53.8666 2.30972 53.8347 2.42929 53.7949 2.51695C53.755 2.60462 53.7072 2.69229 53.6514 2.77199C53.6195 2.81184 53.5956 2.85165 53.5558 2.88353C53.5398 2.89947 53.5239 2.91542 53.5 2.9473L53.4681 2.99511L53.4761 2.98714L53.5638 2.90746C53.6833 2.78791 53.8586 2.73211 54.034 2.69226C54.3926 2.62851 54.799 2.6843 55.2374 2.9473C55.5323 3.1306 55.8032 3.32189 56.0423 3.56895C56.2814 3.83195 56.4727 4.07103 56.648 4.605C56.6878 4.7883 56.7357 4.96363 56.7277 5.1549L56.7277 5.64902L56.7516 6.50975C56.7596 7.0995 56.7357 7.61752 56.5364 8.24713C56.4806 8.43043 56.5046 8.70138 56.5125 8.92453C56.5524 9.25925 56.4806 9.62586 56.2415 9.88089C56.0104 10.1439 55.6916 10.2315 55.3489 10.3591L54.2252 10.6938L53.229 10.9648C52.5675 11.1401 51.8981 11.2995 51.2287 11.4509L47.196 12.3356C46.144 12.5746 45.1 12.9094 44.056 13.1803C43.3786 13.3636 42.6932 13.531 42.0078 13.6904C41.0116 13.9215 40.0074 14.1048 39.0192 14.3758C38.278 14.583 37.5846 14.8858 36.8116 14.6627C36.6522 14.6149 36.2617 14.7344 36.1501 14.8619C35.7038 15.3481 35.0822 15.4596 34.4605 15.5951C32.7869 15.9777 31.1053 16.3283 29.4397 16.7427C28.2044 17.0456 26.985 17.4122 25.7736 17.7947C23.8928 18.3925 22.0438 19.0619 20.163 19.6517C18.593 20.1458 16.9911 20.5602 15.4051 21.0145C15.0385 21.1181 14.6879 21.2854 14.3212 21.3811C13.6438 21.5644 12.9505 21.8274 12.281 21.8592C11.5398 21.8991 10.982 22.0027 10.4002 22.4809C10.0734 22.7439 9.48368 22.8714 9.0055 22.959C8.69469 23.0148 8.38388 23.0467 8.06509 23.0706L7.59487 23.1025C7.42751 23.1105 7.32391 23.1105 7.00513 23.1503C6.68634 23.1981 6.38349 23.1982 6.08861 23.1742C5.7778 23.1583 5.56262 23.0467 5.29963 22.983C4.79754 22.8475 4.29545 22.7598 3.65788 22.72C3.31519 22.6961 2.93264 22.6164 2.56603 22.5207C2.38273 22.4729 2.19944 22.4251 2.04005 22.3613C1.95238 22.2737 1.8647 22.1621 1.79298 22.0346C1.62562 21.7557 1.50608 21.3731 1.51405 21.0224C1.51405 20.6558 1.64156 20.4167 1.77705 20.1777C1.91253 19.9306 2.07988 19.6517 2.32694 19.3568C2.56603 19.0619 2.9167 18.775 3.21955 18.4881L4.13605 17.6274L4.78159 16.9978L5.91328 15.8422L11.9304 9.42662C12.7194 8.58981 13.5482 7.79284 14.3691 6.97993C15.6442 5.72073 16.9433 4.49339 18.2583 3.28201L20.8882 0.867234C21.5019 0.253573 22.1395 0.0782347 22.6176 0.0144778C23.1675 -0.0652189 23.9645 0.181825 24.371 0.596246C24.7057 0.93097 25.0404 1.42508 25.2157 2.1822C25.3114 2.67631 25.415 3.1545 25.5345 3.63268C25.6541 4.10289 25.7736 4.57311 25.8932 5.04332C25.9888 5.43383 26.0685 5.82432 26.1402 6.21483C26.2119 6.60534 26.2757 6.99589 26.3395 7.39437L26.3793 7.68924L26.4032 7.84067L26.3953 7.86455L26.3713 7.96816C26.3554 8.05583 26.3474 8.18334 26.4431 8.21522C26.5307 8.23913 26.6184 8.1754 26.6981 8.14352L29.1448 7.25092C29.5592 7.09153 29.9736 6.89228 30.404 6.79665C33.4006 6.1272 36.2537 4.95563 39.2184 4.1746C41.6173 3.53703 44.048 3.03497 46.4628 2.501C48.3357 2.08658 50.2085 1.72 52.0814 1.32949C52.2009 1.30558 52.3205 1.24181 52.448 1.2179C53.5239 1.01866 53.9782 1.36932 53.6913 2.20613C53.4283 2.9473 52.8465 3.49722 51.8981 3.76022C50.8541 4.04712 49.7941 4.29418 48.7501 4.55718L48.7899 4.66877Z" fill="#DAAE3F"/>
<path d="M29.169 30.9298L25.9572 24.3788C25.7659 23.9803 26.005 23.5101 26.4354 23.4384L56.5288 18.0668C56.8954 18.0031 57.1344 17.6524 57.0627 17.2938L54.9508 6.20802C54.879 5.84939 54.5284 5.61027 54.1697 5.682L23.8214 11.715C23.4069 11.7947 23.0244 11.4759 23.0324 11.0535L23.136 3.45849C23.1439 2.88467 22.4665 2.57384 22.0362 2.94842L0.844895 21.4858C0.462353 21.8205 0.581896 22.4501 1.06804 22.6095L28.3641 31.8384C28.914 32.0376 29.424 31.4558 29.169 30.9298Z" fill="#F5E3B4"/>
<path d="M24.9365 24.848C24.8568 24.5212 24.825 24.2343 24.825 23.9713C24.8329 23.6924 24.9445 23.3656 25.1517 23.1265C25.3589 22.8635 25.614 22.7519 25.8849 22.6563C26.1639 22.5447 26.4906 22.4651 26.8413 22.4252L27.8614 22.3056L28.6026 22.2419L29.9893 22.1463C31.639 22.0586 33.2648 21.9789 34.8747 21.4609C35.2891 21.3254 35.7593 21.2935 36.2056 21.2138C37.0105 21.0624 37.8235 20.9269 38.6284 20.7595C38.995 20.6878 39.3616 20.4806 39.7122 20.4647C41.4337 20.385 43.1232 20.1459 44.765 19.604C46.1358 19.6677 47.387 19.2214 48.694 18.8947C50.001 18.5679 51.3559 18.3925 52.6231 17.9223C52.9578 17.8028 53.3563 17.7072 53.7069 17.6833C54.3604 17.6514 55.1734 17.5478 55.4921 17.5159C55.7233 17.4681 56.0022 17.508 56.1775 17.3167C56.3608 17.1254 56.2413 16.8545 56.2014 16.6233C56.058 15.9937 55.9145 15.3561 55.7711 14.7186C55.261 12.4393 54.9103 10.1281 54.7509 7.80094L54.727 7.41836C54.7191 7.29882 54.7031 7.18724 54.6952 7.0677C54.6713 6.86846 54.6473 6.66921 54.6155 6.46997C54.5677 6.27073 54.4003 6.10337 54.201 6.07149C53.8026 6.06352 53.4041 6.19905 53.0056 6.2628C51.5631 6.54971 50.0728 6.94022 48.6064 7.25103C46.4625 7.71327 44.3506 8.22329 42.2546 8.86086C39.4572 9.71362 36.628 10.5026 33.7908 11.2358C32.3483 11.6104 30.8341 11.8096 29.3517 12.0567L27.1043 12.4233L25.9806 12.5986L24.3548 12.8776C24.0599 12.9254 23.7809 12.9254 23.5339 12.9015C23.2788 12.8696 23.0796 12.8377 22.8405 12.7182C22.6094 12.6066 22.3942 12.4153 22.2508 12.2001C22.0993 11.977 22.0356 11.7698 21.9798 11.5307C21.8443 11.0525 21.9081 10.407 21.916 9.83319L21.9639 8.55801L22.0117 6.74096L22.0196 5.73678C22.0196 5.49769 22.0196 5.26659 22.0037 5.0514C21.9718 4.80435 21.5973 4.74857 21.4538 4.96375L20.9517 5.46584L20.7206 5.70492L20.617 5.81646L20.346 6.07947L18.0348 8.25521L4.17563 20.9588C3.57791 21.5007 3.76918 21.3652 3.72136 21.429C3.70542 21.4768 3.76919 21.5167 3.83294 21.4928L3.86482 21.4848L4.08 21.5565L11.9779 24.3459L23.3346 28.2191C24.4105 28.5857 25.4785 28.9683 26.5544 29.319C27.0963 29.4943 27.6303 29.6617 28.1722 29.8211L28.5787 29.9406L28.7859 29.9964L28.8895 30.0203L28.9373 30.0362L28.9612 30.0442L28.9692 30.0442L28.5946 31.152L28.5946 31.1599C28.5707 31.2476 28.5866 31.2556 28.5787 31.2316C28.5707 31.2157 28.5548 31.1918 28.5627 31.1998C28.5707 31.2078 28.6026 31.2157 28.6026 31.2157C28.5946 31.2157 28.5787 31.2157 28.5468 31.2316C28.499 31.2556 28.499 31.2476 28.5627 31.2237C28.5946 31.2077 28.6105 31.2157 28.6026 31.2157C28.5946 31.2157 28.5866 31.2157 28.5787 31.2078L28.6265 31.2396C28.6584 31.2635 28.6823 31.2874 28.7141 31.3193C28.8098 31.4388 28.8337 31.6381 28.6823 31.8055C28.6105 31.8852 28.491 31.9489 28.3475 31.9649C28.2121 31.9808 28.0846 31.9967 27.9411 31.9967C27.1601 32.0127 26.4428 31.9888 25.606 31.6062C24.3946 31.0484 22.976 30.889 21.8682 30.092C21.7088 29.9804 21.4538 29.9087 21.2386 29.8689C17.3973 29.048 13.7551 27.5656 10.0652 26.2586C8.86178 25.8282 7.61851 25.4935 6.39916 25.095C5.61016 24.84 4.82118 24.577 4.03219 24.306L2.1115 23.6127C1.7449 23.4852 1.36235 23.3497 1.0595 23.1903C0.756656 23.015 0.477728 22.9193 0.246608 22.6723C-0.0562381 22.3375 -0.0801562 21.7478 0.174872 21.4609C0.390052 21.158 0.708838 20.8074 1.17108 20.5524C1.3225 20.4647 1.47392 20.3929 1.63332 20.3292C1.86444 20.2336 2.24698 19.8749 2.33465 19.6757C2.58171 18.9743 3.17146 18.5121 3.74528 18.026C5.29139 16.711 6.8614 15.4199 8.3836 14.081C9.50732 13.0928 10.6071 12.0567 11.6751 11.0047C13.3327 9.37093 14.9346 7.68937 16.6083 6.06356C17.3016 5.38615 18.0189 4.71668 18.7362 4.0552L20.4417 2.50909C20.7525 2.22218 21.0713 1.94326 21.3741 1.7759C21.669 1.62447 21.9479 1.51288 22.179 1.45709C22.4102 1.39333 22.5775 1.3216 22.8883 1.3455C23.1752 1.36144 23.494 1.47302 23.7411 1.64835C24.1077 1.91932 24.2113 2.1345 24.3946 2.44532C24.5699 2.74816 24.7214 3.20243 24.7054 3.78421C24.6895 4.11097 24.6656 4.42178 24.6337 4.7326C24.5938 5.13108 24.562 5.48972 24.5381 5.83241C24.5301 5.99978 24.5221 6.16714 24.5141 6.3345C24.5062 6.50984 24.5062 6.54971 24.5141 6.66129C24.5221 7.03586 24.5938 7.40242 24.7453 7.80887C24.8329 8.03202 24.8728 8.32692 24.8807 8.62976C24.8887 8.78119 24.8807 8.94059 24.8807 9.09202L24.8728 9.32312L24.8648 9.4347C24.8648 9.45064 24.8648 9.44269 24.8568 9.45066L24.7453 9.62597C24.6895 9.70566 24.6098 9.84911 24.6417 9.96866C24.6735 10.1121 24.7771 10.1281 24.9126 10.136C24.9764 10.136 25.0481 10.1201 25.1198 10.0882L25.1677 10.0643L25.3191 10.0085C25.4227 9.96865 25.5343 9.92084 25.6379 9.87302C26.1081 9.64987 26.8094 9.58611 27.3832 9.5622C29.9335 9.45062 32.428 8.91666 34.9066 8.31894L44.9881 5.79257C46.3031 5.46582 47.642 5.19485 48.973 4.89998L52.2325 4.22253L53.5316 3.96754C54.0576 3.84003 54.5597 3.85597 54.9582 3.96754C55.3726 4.07115 55.8269 4.35006 56.1138 4.69276C56.3927 5.01154 56.5999 5.418 56.7115 5.944L57.0781 8.01608L57.3331 9.49847L57.8272 12.4711C57.9627 13.292 58.0902 14.1288 58.3054 14.9098L58.4329 15.3721L58.4967 15.6032L58.5843 15.9937C58.7039 16.5675 58.8952 17.1971 58.8155 17.7152C58.7756 18.1933 58.5525 18.7193 58.1699 19.1019C57.8033 19.4685 57.3809 19.6916 56.7673 19.8112L55.9145 19.9467L55.2769 20.0423L54.3684 20.1539C52.105 20.4169 49.9054 20.9508 47.7138 21.4848C47.2037 21.6123 46.6937 21.7797 46.1756 21.8434C42.5734 22.2977 39.0667 23.254 35.4883 23.8199C34.0379 24.051 32.5874 24.2423 31.1369 24.4336L28.9532 24.7045L28.4512 24.7603L28.3475 24.7443L28.0925 24.7284C27.9969 24.7205 27.9012 24.7842 27.8853 24.8639C27.8773 24.9356 27.9012 25.0153 27.9172 25.103L27.9491 25.2544L27.973 25.3421L28.0766 25.6051L28.5149 26.673L29.3916 28.8089C29.4474 28.9444 29.543 29.0719 29.5988 29.2074C30.069 30.4028 29.8299 30.9766 28.9134 30.7535C28.1005 30.5542 27.3992 29.9485 26.8971 28.9045L25.1995 25.2146C25.1517 25.103 25.1039 24.9914 25.072 24.8799L24.9365 24.848Z" fill="#DAAE3F"/>
</svg>
