<svg width="49" height="89" viewBox="0 0 49 89" fill="none" xmlns="http://www.w3.org/2000/svg">
<path d="M5.21343 61.1772L16.7992 56.4803C17.2378 56.3049 17.4644 55.7626 17.3036 55.2841L1.77057 10.0295C1.58783 9.50319 1.88024 8.92107 2.3846 8.79348L30.6656 1.9355C31.17 1.81589 31.6524 2.19866 31.6962 2.75687L35.6654 49.7898C35.7092 50.3241 36.1551 50.6989 36.6376 50.6271L46.1839 49.0641C46.8199 48.9605 47.3243 49.6303 47.1123 50.2922L35.161 87.2056C34.9636 87.8037 34.2912 88.019 33.8307 87.6283L4.98683 62.7721C4.46054 62.3255 4.5848 61.4324 5.21343 61.1772Z" fill="#F1D1D5"/>
<path d="M14.6214 58.5855L15.6448 58.0991L16.1564 57.8599L16.902 57.525C17.2383 57.3575 17.5307 57.1821 17.7573 56.9269C17.9839 56.6637 18.1447 56.3049 18.1812 55.9381C18.2251 55.5633 18.1374 55.2283 18.0277 54.8615C17.9692 54.6781 17.8962 54.5027 17.8304 54.3272L17.6476 53.8567C17.2529 52.8839 16.8582 51.919 16.4488 50.962C15.4401 48.6096 14.4533 46.297 13.7954 43.7452C13.6273 43.0834 13.3423 42.4135 13.1157 41.7436L11.8803 38.0914C11.6976 37.5332 11.6172 36.9032 11.3979 36.4088C10.338 33.9606 9.42428 31.4726 8.76641 28.857C7.83078 26.991 7.34833 24.9735 6.74894 22.956C6.14955 20.9385 5.40398 18.9449 4.92885 16.9034C4.80459 16.3612 4.62187 15.7551 4.40258 15.2448C4.06633 14.4394 3.7447 13.6339 3.4377 12.8126L2.99182 11.5845L2.62634 10.5479C2.55324 10.3006 2.40702 10.0455 2.50204 9.7823C2.58245 9.51915 2.83832 9.39157 3.07953 9.36765L5.00924 8.94499C8.32051 8.21932 11.5953 7.33418 14.8115 6.26561C16.5219 5.69942 18.3493 5.26083 20.1402 4.83022C22.2673 4.31985 24.4164 3.88126 26.5508 3.39482L28.3855 2.98016L30.074 2.61333C30.2421 2.58144 30.4103 2.53359 30.5784 2.52562C30.7465 2.52562 30.9146 2.62131 31.0243 2.75687C31.1412 2.90041 31.1778 3.0918 31.1705 3.28318L31.1851 3.83342L31.2947 6.86369C31.419 11.4569 31.5944 16.0741 31.8356 20.6913C31.9599 23.0357 32.245 25.4121 32.4862 27.7725C32.9686 32.4934 33.5096 37.1982 33.9628 41.9271C34.1309 43.6974 34.2843 45.4757 34.4305 47.2619L34.5402 48.5936L34.6133 49.5267C34.6352 49.8775 34.701 50.2045 34.796 50.4916C34.9788 51.0737 35.5051 51.5681 36.0679 51.6877C36.3384 51.7435 36.6381 51.7515 36.9524 51.7116L37.8588 51.5761L41.7036 51.0338L43.6261 50.7786L44.5836 50.651C44.7883 50.6191 44.7883 50.6271 44.8541 50.6191L45.0149 50.6032C45.1611 50.6032 45.3219 50.5314 45.4462 50.6351C45.5193 50.6909 45.5631 50.7946 45.5558 50.8903C45.5485 50.9939 45.4974 51.0817 45.4681 51.1694L45.3731 51.4325L45.1245 52.1502L43.9477 55.6271L41.594 62.5727L36.8793 76.4721L34.5622 83.1307L34.1016 84.4943L33.8823 85.1722V85.1801C33.8896 85.2041 33.875 85.212 33.8531 85.2041L31.4775 83.2025L26.697 79.1515L13.0718 67.4531C11.7853 66.3446 10.4988 65.2442 9.21229 64.1437L7.3118 62.4531L6.37619 61.5919L6.14227 61.3766L6.08378 61.3208L6.05456 61.2968L5.51361 62.0305C5.49899 62.0464 5.48438 62.0624 5.47707 62.0704C5.43321 62.1023 5.4844 62.0704 5.49902 62.0783C5.49171 62.0863 5.44054 62.0225 5.49171 62.0943C5.51363 62.1501 5.51363 62.1421 5.48439 62.0863C5.46246 62.0464 5.46245 62.0624 5.47707 62.0704C5.499 62.0863 5.44782 62.0544 5.41858 62.0464C5.38934 62.0385 5.34551 62.0305 5.30896 62.0305C5.23587 62.0305 5.15547 62.0544 5.08968 62.1102C4.95811 62.2139 4.86307 62.4531 4.98002 62.7402C5.11891 63.0273 5.30894 63.3383 5.55747 63.6812C6.23726 64.6142 6.90245 65.4435 7.99159 66.2569C9.57778 67.4371 10.9812 69.048 12.6917 70.0049C12.9329 70.1404 13.2253 70.4195 13.4592 70.6508C17.6257 74.8214 22.2162 78.4657 26.6897 82.2535C28.1516 83.4896 29.5623 84.7974 31.0096 86.0733L32.4277 87.3093C32.742 87.5724 33.0491 87.8675 33.3707 88.0988C33.6923 88.3141 33.9774 88.5134 34.3575 88.5134C34.7229 88.5134 35.0957 88.33 35.3297 88.0429C35.5489 87.7479 35.6878 87.389 35.8267 86.9823L36.448 84.9808L37.0255 83.2184C37.486 81.8787 38.0196 80.6028 38.0708 79.2552C38.0854 78.9681 38.3266 78.2663 38.4947 78.051C39.116 77.2137 39.445 76.0814 39.7958 74.9649C40.7461 71.9347 41.6744 68.9044 42.6539 65.8821C43.3775 63.6493 44.1524 61.4324 44.9491 59.2395C45.5777 57.5409 46.2064 55.8424 46.835 54.1438L47.3102 52.8679L47.9241 51.1534C48.0411 50.8185 48.1215 50.4756 48.1507 50.1726C48.18 49.8775 48.1946 49.6064 48.1069 49.3034C47.9534 48.6973 47.4563 48.171 46.952 48.0115C46.6084 47.9078 46.1991 47.8361 45.7094 47.8999C43.0486 48.2826 40.3806 48.6654 37.7126 49.0402L37.4714 49.0721C37.3983 49.0801 37.4129 49.0721 37.3837 49.0721L37.2594 49.0562C37.1863 49.0482 37.1132 49.0402 37.0547 48.9844C36.9962 48.9365 36.9816 48.8568 36.9889 48.7771C36.9889 48.6814 36.9962 48.6734 36.9889 48.5139C36.9377 47.86 36.8793 47.2141 36.7696 46.608C36.5284 45.2683 36.4115 44.2077 36.6015 42.9318C36.7039 42.2141 36.5942 41.0977 36.4919 40.1966C36.3603 39.0324 36.1483 37.884 35.9363 36.7597C35.6878 35.404 35.4393 34.1361 35.5343 32.6369C35.5855 31.8315 35.4247 30.747 35.2638 29.8538C34.5767 25.9304 34.2697 21.9193 34.0285 17.9002C33.875 15.173 33.7215 12.4537 33.568 9.72649L33.3487 5.64359L33.2172 3.41077C33.1952 3.09978 33.1806 2.78877 33.1441 2.48575C33.0929 2.19069 33.0198 1.91956 32.9102 1.68831C32.7055 1.20985 32.3108 0.771255 31.8429 0.532021C31.3459 0.27684 30.8488 0.213051 30.2275 0.332664C28.4805 0.731384 26.7262 1.13807 24.9719 1.53679C18.9853 2.90839 13.0426 4.44745 7.09984 6.00245C5.9376 6.30548 4.75344 6.63242 3.5839 6.83975L3.13798 6.9195L2.34125 7.08697C1.7711 7.19064 1.28136 7.40594 0.930498 7.74086C0.550397 8.08376 0.258006 8.58614 0.148362 9.12043C0.0314076 9.64674 0.0606569 10.1571 0.250707 10.7552L0.828153 12.4298L1.24481 13.5861L2.10734 15.8907C3.37922 19.2001 4.40255 22.5812 5.4259 25.9623C5.66712 26.7518 5.86447 27.5652 6.14955 28.3228C8.15239 33.6177 9.70204 39.0722 11.5952 44.3912C12.3627 46.5442 13.1595 48.6814 13.9636 50.8185L15.177 54.0162L15.484 54.8137L15.5205 54.9173L15.5278 54.9333L15.5498 54.9652L15.5863 55.0369C15.6594 55.1247 15.6667 55.2842 15.5644 55.3479L15.4767 55.4038C12.7428 56.6637 10.0164 57.9157 7.28258 59.1757C7.08522 59.2634 6.86591 59.3192 6.66855 59.4149C4.9654 60.2203 4.56337 60.8822 5.61596 61.2251C6.55159 61.5281 7.81618 61.4085 9.38776 60.7626C11.1201 60.0449 12.8379 59.2953 14.5556 58.5537L14.6214 58.5855Z" fill="#F8AFB8"/>
</svg>
