<svg width="21" height="25" viewBox="0 0 21 25" fill="none" xmlns="http://www.w3.org/2000/svg">
<path d="M17.1882 8.85402C16.6477 8.85374 16.1139 8.97384 15.6256 9.2056V5.7289C15.6256 5.59076 15.5707 5.45828 15.4731 5.3606C15.3754 5.26292 15.2429 5.20805 15.1048 5.20805H12.1489C12.4124 4.65232 12.5311 4.03897 12.4938 3.42507C12.4565 2.81116 12.2646 2.21666 11.9358 1.69689C11.607 1.17712 11.1521 0.748965 10.6133 0.452275C10.0746 0.155584 9.46955 0 8.85451 0C8.23948 0 7.63444 0.155584 7.0957 0.452275C6.55696 0.748965 6.10203 1.17712 5.77325 1.69689C5.44446 2.21666 5.2525 2.81116 5.21524 3.42507C5.17797 4.03897 5.29661 4.65232 5.56011 5.20805H0.520854C0.382715 5.20805 0.250234 5.26292 0.152555 5.3606C0.0548756 5.45828 0 5.59076 0 5.7289V10.1713C5.804e-06 10.2718 0.029124 10.3702 0.0838385 10.4546C0.138553 10.539 0.216524 10.6057 0.308336 10.6468C0.400149 10.6878 0.501876 10.7014 0.601236 10.6858C0.700595 10.6703 0.793337 10.6264 0.868263 10.5593C1.24294 10.224 1.70666 10.0044 2.20344 9.92686C2.70021 9.84935 3.2088 9.91731 3.66781 10.1225C4.12681 10.3277 4.5166 10.6614 4.79011 11.0833C5.06362 11.5052 5.20917 11.9972 5.20917 12.5C5.20917 13.0028 5.06362 13.4948 4.79011 13.9167C4.5166 14.3386 4.12681 14.6723 3.66781 14.8775C3.2088 15.0827 2.70021 15.1506 2.20344 15.0731C1.70666 14.9956 1.24294 14.776 0.868263 14.4407C0.793337 14.3736 0.700595 14.3297 0.601236 14.3142C0.501876 14.2986 0.400149 14.3122 0.308336 14.3532C0.216524 14.3943 0.138553 14.461 0.0838385 14.5454C0.029124 14.6298 5.804e-06 14.7282 0 14.8287V19.2711C0 19.4092 0.0548756 19.5417 0.152555 19.6394C0.250234 19.7371 0.382715 19.792 0.520854 19.792H5.56011C5.29661 20.3477 5.17797 20.961 5.21524 21.5749C5.2525 22.1888 5.44446 22.7833 5.77325 23.3031C6.10203 23.8229 6.55696 24.251 7.0957 24.5477C7.63444 24.8444 8.23948 25 8.85451 25C9.46955 25 10.0746 24.8444 10.6133 24.5477C11.1521 24.251 11.607 23.8229 11.9358 23.3031C12.2646 22.7833 12.4565 22.1888 12.4938 21.5749C12.5311 20.961 12.4124 20.3477 12.1489 19.792H15.1048C15.2429 19.792 15.3754 19.7371 15.4731 19.6394C15.5707 19.5417 15.6256 19.4092 15.6256 19.2711V15.7944C16.1197 16.0287 16.6601 16.1488 17.2069 16.1459C17.7537 16.143 18.2928 16.0172 18.7844 15.7778C19.2759 15.5383 19.7073 15.1914 20.0467 14.7626C20.386 14.3338 20.6245 13.8342 20.7446 13.3008C20.8647 12.7674 20.8633 12.2138 20.7405 11.6809C20.6176 11.1481 20.3765 10.6498 20.035 10.2228C19.6935 9.79574 19.2603 9.45101 18.7675 9.21408C18.2747 8.97715 17.735 8.8541 17.1882 8.85402Z" fill="#36A18B"/>
</svg>
