<svg width="70" height="110" viewBox="0 0 70 110" fill="none" xmlns="http://www.w3.org/2000/svg">
<path d="M18.3517 26.4342L15.3744 26.6656C15.2537 26.6738 15.1441 26.7395 15.0893 26.8363L12.5313 31.0853C12.5071 31.1268 12.4929 31.1734 12.4891 31.2207C11.7799 40.6632 11.2088 50.3354 10.7918 60.2335C10.2755 72.5446 10.0256 84.5275 10.0063 96.1711C9.99679 100.917 13.7944 104.908 18.954 105.577C23.5868 106.177 28.6223 106.636 34.0168 106.847C37.6738 106.991 41.1787 107.014 44.5085 106.942C50.2744 106.816 54.9819 102.575 55.1347 97.3432C55.7842 74.9635 56.4336 52.5838 57.0886 30.1996C57.0915 30.0338 56.9565 29.8944 56.7754 29.8759L18.4248 26.4331C18.3937 26.4316 18.3729 26.4306 18.3517 26.4342Z" fill="white"/>
<path d="M13.0975 33.2569C12.8291 35.9976 12.5952 38.7636 12.2874 41.474C12.0133 43.8973 11.7381 46.2686 11.7362 48.7526C11.7368 49.3914 11.6601 50.0832 11.6216 50.7532C11.555 51.9659 11.4881 53.1834 11.4215 54.3962C11.3978 54.9486 11.4499 55.5332 11.3876 56.0459C11.2387 57.3066 11.1214 58.5643 11.0354 59.8234C10.9598 61.083 10.9467 62.3457 10.9749 63.6152C10.6956 65.5841 10.7735 67.5326 10.7702 69.515C10.7721 71.4976 10.6665 73.5176 10.7696 75.4768C10.7954 75.9985 10.7995 76.5949 10.7573 77.1181C10.5144 80.319 10.5175 83.5177 10.519 86.7353C10.5206 88.4624 10.5018 90.1837 10.457 91.9039L10.3741 94.4833C10.3465 95.3431 10.2817 96.2106 10.3044 97.0302C10.4019 98.7999 11.1745 100.626 12.4738 102.015C13.9847 103.697 16.1995 104.819 18.5542 105.18C22.0555 105.649 25.6088 105.927 29.1435 106.049C33.8784 106.195 38.6468 106.187 43.4072 106.018L44.3194 105.987C44.6285 105.979 44.8819 105.949 45.1705 105.934C45.4532 105.929 45.7245 105.871 45.9995 105.833L46.4173 105.773L46.8226 105.674C47.9092 105.425 48.9623 105.008 49.9074 104.439C51.798 103.297 53.2456 101.555 53.9225 99.5824C54.1035 99.0897 54.2071 98.5837 54.2954 98.0723L54.3735 97.3001L54.4092 96.4692L54.5482 93.1307C54.6771 89.787 54.7547 86.4313 54.8263 83.0849C54.8696 79.9594 54.9122 76.8434 54.9555 73.7179L55.4895 45.941C55.5178 43.7138 55.5506 41.4962 55.5789 39.269C55.5954 38.1579 55.628 37.0428 55.6653 35.9327L55.847 31.0302C55.8477 31.0208 55.8545 31.0022 55.8389 31.0014L55.8236 30.9959L55.8132 30.9954L55.6629 30.9786L53.7123 30.7932L49.8154 30.432L30.3369 28.6834C26.6523 28.3468 22.9798 27.9919 19.2998 27.7928C18.7847 27.7628 18.4433 27.7177 18.2864 27.6532C18.314 27.2477 18.3281 27.0733 18.3404 26.8563C18.1849 28.0694 18.2973 27.1948 18.26 27.4627L18.2876 27.4451C18.3092 27.4367 18.3311 27.4236 18.3583 27.4107C19.0701 27.0765 19.6533 26.7171 21.4471 26.644C22.6643 26.5901 23.7899 26.5695 25.2697 26.7602C27.4117 27.0355 29.7001 27.0529 31.7879 27.4816C32.0809 27.5432 32.518 27.5694 32.872 27.5867C39.2415 27.8844 45.5936 28.5929 51.9547 29.1883L54.8727 29.4352L56.4415 29.5594C56.6025 29.572 56.7632 29.5893 56.9071 29.62C57.051 29.6507 57.1901 29.6764 57.3018 29.7813C57.4144 29.8767 57.477 30.0076 57.4875 30.1358C57.5085 30.2646 57.5235 30.4026 57.5221 30.5492L57.5093 31.0312L57.4047 34.7214C57.3441 36.507 57.2471 38.2908 57.2182 40.0732C57.1934 41.4158 57.2397 42.7193 56.9428 43.9349C56.8806 44.1874 56.8756 44.8969 56.9287 45.1455C57.1393 46.0974 57.0808 47.2113 57.0382 48.3211L56.714 57.3189C56.6496 59.5397 56.6217 61.7622 56.6158 63.9716C56.6154 67.4067 56.6162 70.8277 56.621 74.2631C56.6034 77.1343 56.5322 80.0219 56.4931 82.9015C56.4811 83.5681 56.5167 84.2275 56.4998 84.8891C56.4742 86.1134 56.496 87.3967 56.377 88.5454C56.2479 89.8213 56.1988 90.8173 56.3755 91.9947C56.4736 92.6572 56.4308 93.7055 56.3875 94.5645C56.359 95.112 56.3148 95.6587 56.2655 96.2052C56.2105 96.7561 56.1742 97.27 56.0731 97.8755C55.8395 99.2788 55.3685 100.514 54.7421 101.927C54.6636 102.122 54.5532 102.324 54.4166 102.526C54.2801 102.727 54.1425 102.943 53.9796 103.148C53.6388 103.548 53.2773 103.946 52.8965 104.259C52.0866 104.967 51.1837 105.595 50.1982 106.081C49.2179 106.568 48.1816 106.971 47.0917 107.197C46.8245 107.269 46.5491 107.312 46.2742 107.351C45.9996 107.385 45.7276 107.452 45.4497 107.462L44.6189 107.521C44.3403 107.54 44.0896 107.537 43.8273 107.548L40.6855 107.612C34.996 107.698 29.3103 107.542 23.6449 107.071C22.5336 106.979 21.4239 106.868 20.3149 106.747L18.6477 106.547L17.7396 106.399C17.4414 106.337 17.1447 106.256 16.8525 106.185C15.9431 105.923 15.0606 105.586 14.2562 105.126C13.4398 104.683 12.6946 104.136 12.0332 103.521C11.3555 102.916 10.8063 102.208 10.3166 101.474C9.84374 100.727 9.47956 99.9282 9.21216 99.0965C8.97638 98.2617 8.79457 97.4058 8.79654 96.54C8.77021 96.0892 8.79394 95.7308 8.79467 95.3334L8.81097 94.1607L8.89177 89.4709C8.91784 88.2419 8.95585 86.9947 8.92274 85.7865C8.85573 82.9916 8.92893 80.2082 9.07058 77.4187C9.23747 74.058 9.24586 70.7179 9.26504 67.3735C9.27019 66.5978 9.25045 65.8067 9.29167 65.0375C9.45098 62.353 9.53664 59.6743 9.67996 56.9938C9.80727 54.3172 9.91896 51.6398 10.1039 48.9613C10.3961 44.632 10.7764 40.3117 11.1359 35.9904L11.3461 33.5166L11.4563 32.2823L11.5114 31.6652L11.5239 31.5096C11.5333 31.458 11.5313 31.3538 11.5478 31.2789C11.5703 31.1948 11.5979 31.1111 11.6252 31.032L11.6458 30.9715C11.6417 30.9571 11.6682 30.9536 11.6381 30.9379L11.6508 30.9102L11.7123 30.7949L13.1653 28.5333L13.8712 27.4323L14.2841 26.7854C14.3744 26.6384 14.4744 26.5013 14.5928 26.3936C14.7169 26.2813 14.8856 26.1997 15.0452 26.165C15.1516 26.1418 15.2633 26.1189 15.3842 26.1106L15.7845 26.0734C15.8686 26.0681 15.953 26.058 16.0371 26.0526C18.1367 25.9472 18.8189 26.1746 17.8635 26.6767C17.5961 26.8151 17.2771 26.9461 16.9071 27.0605C16.7196 27.1176 16.522 27.1694 16.3087 27.2205C16.1007 27.2718 15.8198 27.3195 15.7546 27.3495C15.695 27.3749 15.627 27.3764 15.5767 27.4165C15.5212 27.4563 15.5099 27.5315 15.4793 27.5868L15.4356 27.6745C15.399 27.739 15.3625 27.8034 15.3255 27.8726C15.2468 28.006 15.1625 28.1438 15.0778 28.2863L13.172 31.3632C13.1486 31.3952 13.1295 31.4368 13.1265 31.4745L13.112 31.6536L13.0746 32.1817L12.9993 33.2426L13.0975 33.2569Z" fill="#8ED8C8"/>
<path d="M19.7194 106.33C14.7317 105.677 11.0547 101.821 11.0559 97.2437L11.4688 88.376L15.9052 89.5571L23.4476 91.7803L34.6709 92.6504L45.0706 92.0267L55.1396 90.6972L54.6736 98.4489C54.5346 103.494 49.9921 107.578 44.4196 107.69C41.2016 107.753 37.8141 107.725 34.2794 107.581C29.0654 107.368 24.198 106.917 19.7194 106.33Z" fill="#8ED8C8"/>
<path d="M52.6975 91.4177C52.1523 91.4299 51.6096 91.4781 51.063 91.4409C50.5748 91.4162 50.0978 91.3742 49.6482 91.5758C49.5308 91.6271 49.3925 91.6233 49.2675 91.6427C49.0374 91.6782 48.8026 91.709 48.5716 91.7579C48.4662 91.7785 48.3657 91.871 48.2675 91.8607C47.7618 91.8036 47.2749 91.8327 46.8062 92.0242C46.3995 91.8968 46.0463 92.0639 45.6686 92.1578C45.2912 92.2472 44.9004 92.2462 44.5325 92.4124C44.4354 92.4559 44.3199 92.4803 44.217 92.4652C43.5805 92.3689 42.9697 92.4713 42.3462 92.5415C41.6772 92.6269 41.0012 92.6 40.3327 92.466C39.9768 92.3909 39.605 92.4 39.2431 92.4098L37.9467 92.4801C37.3165 92.5052 36.6959 92.5353 36.065 92.6409C35.2244 92.7743 34.3711 92.8757 33.518 92.9053C33.0861 92.9243 32.6464 92.8442 32.2153 92.7826C31.3596 92.6374 30.4987 92.4963 29.6429 92.3511C28.9966 92.2542 28.3484 92.1841 27.6998 92.1184C27.0901 92.0641 26.4788 92.032 25.8703 91.9598C24.0694 91.7446 22.2788 91.4539 20.4972 91.1055C20.068 91.0172 19.6369 90.9555 19.207 90.8761C18.9924 90.8319 18.7837 90.7746 18.5753 90.7129C17.8046 90.4832 17.0412 90.2225 16.2764 89.9796C15.1829 89.6276 14.0899 89.2666 13.0143 88.8708C12.4073 88.6374 11.8113 88.3868 11.1573 88.2581C10.9716 88.2246 10.9647 88.1121 11.1204 87.9378C11.3936 87.6405 11.6491 87.3153 12.0268 87.2214C12.2837 87.1562 12.5135 87.1251 12.7265 87.2633C13.0437 87.4659 13.4808 87.4428 13.7345 87.776C13.7708 87.8229 13.8441 87.8363 13.9078 87.8446C15.0413 87.9795 16.0331 88.442 17.082 88.7959C17.4256 88.906 17.7871 88.9724 18.1371 89.0606C18.3653 89.1235 18.5891 89.1772 18.817 89.2445C19.1418 89.3401 19.4591 89.4711 19.796 89.536C20.0497 89.587 20.3124 89.5803 20.4716 89.8497C20.5073 89.9055 20.6394 89.9269 20.7014 89.8903C20.9347 89.7385 21.1323 89.813 21.3414 89.8658C21.8956 90.0065 22.4424 90.1825 23.0089 90.288C23.4237 90.3711 23.8499 90.4324 24.2733 90.4622C24.9382 90.5064 25.6004 90.5191 26.2613 90.5497C26.8135 90.5782 27.3569 90.66 27.9088 90.6929C28.0369 90.7006 28.1672 90.6771 28.295 90.6892C28.526 90.7119 28.7746 90.6954 28.9802 90.7973C29.2101 90.9051 29.3955 90.9431 29.6439 90.7877C29.7835 90.702 29.9791 90.7361 30.1398 90.7725C30.3442 90.8206 30.5406 90.913 30.7373 91.0009C30.9725 91.1046 31.1926 91.2118 31.4727 91.0986C31.6202 91.0403 31.8139 91.1011 31.9678 91.1641C32.6552 91.4515 33.3817 91.4636 34.0997 91.4572C35.0816 91.4263 36.0617 91.3505 37.0319 91.2741C37.4145 91.2522 37.7964 91.2392 38.1783 91.2262C39.3638 91.185 40.5501 91.2023 41.742 91.2108C41.9746 91.2112 42.2117 91.2164 42.4381 91.1628C42.9609 91.0462 43.4873 91.0194 44.0247 91.0471C44.6665 91.0675 45.2944 90.9348 45.9133 90.7882C46.0593 90.7521 46.1971 90.6931 46.3455 90.693C47.3705 90.6826 48.3481 90.3603 49.3511 90.241C50.1646 90.1418 50.9931 90.1107 51.8195 90.0392C52.4565 89.9877 53.0975 89.9498 53.7397 89.8941C53.7794 89.892 53.8211 89.8632 53.8608 89.8611C54.2285 89.8383 54.4152 90.0689 54.3552 90.4999C54.304 90.8776 54.1176 91.1353 53.7914 91.2009C53.43 91.2733 53.061 91.314 52.696 91.3683L52.6975 91.4177Z" fill="#8ED8C8"/>
<path d="M13.5106 79.507C13.9516 79.7887 14.4087 80.0533 14.8382 80.3568C15.2203 80.6305 15.5974 80.904 16.0998 80.9514C16.2279 80.9634 16.3416 81.0373 16.4625 81.0803C16.6799 81.1604 16.9025 81.2363 17.1258 81.3032C17.2279 81.3317 17.3641 81.2992 17.4445 81.3533C17.851 81.633 18.3046 81.8076 18.8187 81.8288C19.1159 82.111 19.5236 82.0945 19.9062 82.1528C20.2885 82.2156 20.6502 82.358 21.0589 82.3281C21.1685 82.3211 21.2814 82.3366 21.372 82.3868C21.9204 82.6928 22.5387 82.7828 23.1504 82.895C23.8067 83.0097 24.443 83.1951 25.0568 83.4869C25.3833 83.6362 25.7504 83.7026 26.1076 83.7684C26.5327 83.8561 26.9731 83.8685 27.4005 83.925C28.0237 84.0153 28.6508 84.052 29.2882 84.0131C30.1337 83.9773 30.986 83.915 31.8237 83.9192C32.2512 83.9038 32.6763 83.9916 33.0984 84.0522C33.9478 84.1693 34.7969 84.2909 35.6551 84.3546C36.3019 84.3925 36.946 84.3988 37.593 84.3649C38.1943 84.3462 38.7954 84.2603 39.394 84.2101C41.1743 84.0675 42.9396 83.8567 44.686 83.564C45.1028 83.4897 45.5206 83.402 45.9338 83.3095C46.1401 83.2677 46.3506 83.2351 46.5606 83.2115C47.3411 83.1136 48.1265 83.016 48.9 82.8773C50.01 82.6775 51.1084 82.4321 52.2029 82.1731C52.8233 82.0254 53.4526 81.8917 54.0188 81.6017C54.1782 81.5212 54.2666 81.6027 54.2756 81.8232C54.2877 82.2099 54.329 82.6028 54.0993 82.9036C53.946 83.1056 53.7907 83.267 53.5169 83.2824C53.1237 83.3042 52.7823 83.5715 52.3502 83.4429C52.2869 83.4258 52.2156 83.453 52.159 83.4811C51.1359 83.9912 49.9826 84.1032 48.8596 84.2753C48.4934 84.3347 48.1339 84.4393 47.772 84.5079C47.5358 84.5524 47.2996 84.5969 47.0594 84.6277C46.7093 84.6701 46.3561 84.6852 46.014 84.755C45.7574 84.8073 45.5124 84.9051 45.2431 84.7188C45.1864 84.6796 45.0505 84.7075 45.0115 84.7681C44.8566 84.9924 44.6381 84.9976 44.4186 85.0161L42.6498 85.1369C42.2161 85.1699 41.7844 85.2433 41.3528 85.3168C40.6852 85.4303 40.0145 85.5885 39.3393 85.6701C38.7733 85.7492 38.2017 85.7696 37.6287 85.8078C37.4942 85.8179 37.3672 85.8598 37.2329 85.8654C36.9891 85.8781 36.7328 85.9259 36.5055 85.8453C36.2539 85.7587 36.057 85.7382 35.8161 85.9171C35.6801 86.0168 35.473 86.0002 35.3009 85.9811C35.0846 85.955 34.8675 85.8705 34.66 85.791C34.4089 85.6955 34.178 85.5967 33.8916 85.719C33.7384 85.7819 33.5385 85.7343 33.3744 85.6708C32.6557 85.3908 31.9134 85.3698 31.1613 85.3482L29.6311 85.3214L28.0985 85.2585C27.6986 85.2351 27.3015 85.1714 26.9084 85.1215C25.6702 84.9637 24.4669 84.6643 23.2807 84.3344C23.0472 84.2714 22.8146 84.1949 22.5681 84.176C22.0061 84.1296 21.4759 83.9863 20.9656 83.7724C20.3483 83.5298 19.6918 83.4195 19.0306 83.3045C18.8788 83.2776 18.7103 83.2767 18.5706 83.2192C17.5991 82.7987 16.5294 82.6417 15.552 82.2344C14.762 81.9098 14.0176 81.5026 13.2782 81.0958C12.7054 80.7839 12.155 80.4375 11.6092 80.0958C11.5713 80.0711 11.5219 80.0682 11.4887 80.0483C11.1811 79.8418 11.2111 79.5608 11.5689 79.272C11.8896 79.017 12.2083 78.928 12.5006 79.0708C12.8218 79.2243 13.1418 79.3956 13.4574 79.5577L13.5106 79.507Z" fill="#8ED8C8"/>
<path d="M42.7309 80.4763C42.8592 79.9478 42.9558 79.4125 43.127 78.8866C43.278 78.418 43.4388 77.9646 43.3064 77.474C43.272 77.3501 43.3136 77.2161 43.3174 77.0847C43.323 76.8511 43.3343 76.6129 43.3291 76.3786C43.3259 76.2712 43.2426 76.154 43.2762 76.0585C43.4447 75.5715 43.5054 75.0877 43.3572 74.5913C43.5771 74.2146 43.4426 73.8311 43.3941 73.448C43.3459 73.06 43.4055 72.6687 43.2603 72.2847C43.2245 72.1801 43.2109 72.0673 43.2448 71.9669C43.4385 71.3498 43.4013 70.7284 43.3804 70.1032C43.3576 69.4291 43.4416 68.7664 43.6544 68.1065C43.7702 67.7576 43.7803 67.3829 43.7893 67.0227C43.8034 66.5897 43.764 66.1535 43.762 65.7196C43.763 65.0908 43.7314 64.4649 43.6088 63.8336C43.4469 62.9952 43.3285 62.1497 43.2479 61.3015C43.2082 60.8702 43.2923 60.4365 43.3382 60.0103C43.436 59.1485 43.5714 58.289 43.6478 57.4259C43.704 56.7761 43.7116 56.1282 43.7035 55.4745C43.6977 54.8649 43.6377 54.2617 43.6265 53.6517C43.591 51.8508 43.5716 50.0509 43.5415 48.2504C43.5342 47.8161 43.4944 47.3847 43.4817 46.9501C43.4752 46.7352 43.4798 46.5162 43.4947 46.3026C43.5507 45.5016 43.6227 44.7017 43.6676 43.905C43.7263 42.7581 43.7581 41.6096 43.8221 40.463C43.8569 39.8119 43.9184 39.1624 43.7971 38.5117C43.7615 38.3292 43.8837 38.2732 44.1417 38.352C44.5841 38.4859 45.0443 38.5964 45.2964 38.9138C45.4696 39.129 45.6006 39.3318 45.5234 39.5904C45.4109 39.9687 45.603 40.3751 45.3194 40.7383C45.2782 40.7894 45.2889 40.8681 45.3062 40.9276C45.5659 42.0595 45.3641 43.1783 45.2804 44.2993C45.2546 44.6682 45.288 45.0358 45.289 45.4064C45.2885 45.6452 45.2826 45.8837 45.266 46.1215C45.2419 46.4662 45.1853 46.8138 45.1934 47.1603C45.2018 47.4241 45.2756 47.6771 45.0015 47.9043C44.9446 47.9496 44.9508 48.0914 45.0121 48.1389C45.2512 48.3337 45.2149 48.546 45.1996 48.7644C45.1589 49.3469 45.0914 49.9278 45.0725 50.5068C45.0583 50.9398 45.082 51.3701 45.1218 51.8015C45.1878 52.4733 45.3027 53.1383 45.358 53.8094C45.405 54.368 45.3981 54.9281 45.4234 55.4902C45.4303 55.6222 45.475 55.7517 45.4769 55.8785C45.4817 56.1177 45.5287 56.3691 45.4327 56.5875C45.3297 56.8299 45.3001 57.0231 45.5094 57.26C45.6238 57.3936 45.6042 57.5971 45.5766 57.7612C45.5402 57.9735 45.4503 58.1826 45.3608 58.3868C45.2521 58.6338 45.1391 58.8658 45.2921 59.1382C45.3733 59.2845 45.3162 59.4858 45.2458 59.6473C44.9593 60.3613 44.9509 61.0968 44.9964 61.8308C45.0558 62.8287 45.1583 63.8244 45.2233 64.8179C45.2497 65.2094 45.244 65.5991 45.2437 65.989C45.2502 67.2032 45.1387 68.4151 45.0164 69.6264C44.9944 69.864 44.9614 70.1057 44.9986 70.3419C45.0895 70.8885 45.0412 71.4266 44.9443 71.9667C44.8292 72.613 44.8912 73.2651 44.9639 73.9177C44.9801 74.0698 45.0285 74.2239 45.0019 74.3734C44.838 75.4116 45.0178 76.4558 44.9291 77.4937C44.8597 78.3328 44.6993 79.1664 44.5549 80.001C44.4452 80.6476 44.3091 81.2878 44.1833 81.9334C44.1749 81.9768 44.1932 82.0217 44.1848 82.0651C44.1001 82.4305 43.7807 82.538 43.2995 82.3433C42.8756 82.1764 42.6351 81.9231 42.6586 81.5882C42.6843 81.2193 42.7366 80.8568 42.773 80.4885C42.7737 80.4788 42.7523 80.4775 42.7309 80.4763Z" fill="#8ED8C8"/>
<path d="M26.1066 40.4356C25.9776 40.9738 25.8857 41.5192 25.7139 42.0548C25.5625 42.5283 25.4007 42.9963 25.5382 43.492C25.5722 43.6208 25.5306 43.7547 25.5268 43.8861C25.5209 44.1246 25.5093 44.3677 25.5141 44.6069C25.5173 44.7143 25.6002 44.8363 25.5663 44.9366C25.3972 45.4334 25.3358 45.927 25.4833 46.4331C25.263 46.8147 25.3969 47.2078 25.4448 47.6006C25.4926 47.9935 25.4323 48.3945 25.5773 48.7834C25.613 48.888 25.6263 49.0058 25.592 49.111C25.3977 49.7379 25.4339 50.3737 25.4538 51.0135C25.4759 51.6973 25.3963 52.375 25.1771 53.0492C25.0606 53.4078 25.0502 53.7873 25.0405 54.1572C25.0257 54.5999 25.0648 55.0411 25.0661 55.4847C25.0642 56.1281 25.1004 56.764 25.2224 57.405C25.383 58.2629 25.5057 59.1233 25.5802 59.9809C25.6197 60.4171 25.5403 60.8609 25.4883 61.2965C25.3895 62.1729 25.2581 63.0521 25.1807 63.9298C25.1239 64.5893 25.1206 65.2522 25.1227 65.9152C25.1278 66.5346 25.1922 67.1527 25.2027 67.7724C25.2358 69.6073 25.2583 71.4416 25.2914 73.2765C25.2984 73.7156 25.3375 74.1567 25.3495 74.601C25.3557 74.8208 25.3511 75.0398 25.3355 75.2631C25.2785 76.0787 25.2055 76.8933 25.1646 77.7098C25.1046 78.8761 25.0711 80.0489 25.0112 81.2152C24.9757 81.876 24.9186 82.5405 25.0338 83.2006C25.0691 83.388 24.9469 83.444 24.6889 83.3651C24.2465 83.2312 23.7863 83.1207 23.5295 82.7932C23.3567 82.5732 23.226 82.3655 23.3035 82.1021C23.4163 81.7189 23.2195 81.3024 23.5037 80.9296C23.545 80.8784 23.5343 80.7998 23.5173 80.7354C23.2536 79.5837 23.4621 78.4458 23.5422 77.3002C23.5683 76.9264 23.5355 76.5491 23.5348 76.1737C23.5357 75.93 23.5419 75.6866 23.5589 75.4439C23.5783 75.0892 23.6402 74.7419 23.6328 74.3856C23.6247 74.117 23.5513 73.8592 23.8256 73.6271C23.8829 73.5769 23.8764 73.44 23.8155 73.3876C23.5763 73.1928 23.6133 72.9708 23.6286 72.7524C23.67 72.1601 23.7328 71.5692 23.7527 70.9756C23.7672 70.5378 23.7441 70.0977 23.705 69.6566C23.6397 68.9751 23.5258 68.2955 23.4662 67.6095C23.4198 67.0412 23.4224 66.4661 23.4028 65.8995C23.3959 65.7674 23.3515 65.6332 23.3499 65.5015C23.3455 65.2575 23.2988 65.0011 23.3951 64.7778C23.4984 64.5305 23.5284 64.3325 23.3194 64.0908C23.205 63.9572 23.225 63.7488 23.2529 63.5798C23.2896 63.3627 23.3798 63.1488 23.4697 62.9397C23.5787 62.6879 23.6921 62.4509 23.5394 62.1736C23.4585 62.0225 23.5156 61.8212 23.581 61.6546C23.8685 60.926 23.8776 60.1807 23.8331 59.4322C23.7747 58.4196 23.6735 57.4044 23.6048 56.3864C23.5787 55.9899 23.5851 55.5906 23.5862 55.1909C23.5813 53.9525 23.6942 52.7211 23.8128 51.4851C23.8351 51.2427 23.8684 50.9961 23.8312 50.7599C23.741 50.2036 23.79 49.6557 23.8875 49.1059C24.0036 48.445 23.9369 47.7829 23.8649 47.1205C23.8486 46.9684 23.8006 46.8095 23.8272 46.66C23.9925 45.6024 23.814 44.5387 23.8986 43.4811C23.969 42.6274 24.1308 41.7743 24.2708 40.9248C24.3812 40.2684 24.5184 39.6137 24.6395 38.958C24.6479 38.9146 24.6295 38.8697 24.6379 38.8263C24.7233 38.4512 25.0427 38.3437 25.5185 38.5381C25.9422 38.7098 26.1823 38.968 26.1589 39.3029C26.1381 39.677 26.0852 40.0492 26.0431 40.422C26.0584 40.4327 26.0799 40.434 26.1066 40.4356Z" fill="#8ED8C8"/>
<path d="M30.1792 5.4936C32.7961 2.11687 38.3083 2.18038 40.6755 5.61822L56.0625 27.9619C56.1497 28.0873 56.126 28.2539 56.0046 28.3599L45.6021 37.3918C45.4584 37.5199 45.2285 37.5087 45.1008 37.3767L35.5855 27.4255C35.4534 27.284 35.2122 27.2861 35.0678 27.4236L25.0486 37.2291C24.8983 37.3756 24.6379 37.3629 24.5124 37.203L14.8803 25.9088C14.7861 25.8063 30.1792 5.4936 30.1792 5.4936Z" fill="white"/>
<path d="M34.971 2.4011C35.8518 2.3736 36.7281 2.52718 37.5331 2.79824C37.9445 2.92024 38.3136 3.11924 38.6842 3.29972C39.0254 3.52529 39.3783 3.73285 39.6638 4.01154C40.2073 4.46531 40.598 5.02798 40.9643 5.57553C41.3003 6.11698 41.6732 6.64627 42.1094 7.15534C42.3346 7.41718 42.514 7.73724 42.7164 8.02589L43.8304 9.60886C44.0008 9.84948 44.2507 10.0614 44.3806 10.2954C45.0244 11.47 45.75 12.5879 46.6472 13.6166C47.0774 14.5763 47.7845 15.354 48.4355 16.1895C49.0866 17.025 49.6602 17.9266 50.3823 18.7097C50.5708 18.9187 50.766 19.1698 50.9003 19.4133C51.725 20.8894 52.7434 22.2586 53.7552 23.646C54.2032 24.2626 54.6398 24.8925 55.0607 25.5264L55.6759 26.4857L56.3241 27.5442C56.4179 27.7161 56.503 27.8689 56.53 28.0422C56.5506 28.2292 56.4288 28.4 56.2808 28.5138C56.059 28.7124 55.7535 28.9301 55.5662 29.0839C55.3629 29.2461 55.1591 29.4131 54.9609 29.5756C54.5632 29.9145 54.1652 30.258 53.7676 30.5969C52.833 31.4075 51.9316 32.2523 51.0065 33.0726C49.6607 34.2633 48.3499 35.465 47.0964 36.7206L46.7496 37.0666C46.5769 37.2303 46.4093 37.3943 46.2367 37.558C46.0978 37.6862 45.9454 37.7904 45.8047 37.8767C45.6692 37.9632 45.495 38.0199 45.3108 38.011C45.1159 38.0064 44.9779 37.9347 44.8403 37.8584C44.6928 37.7769 44.5476 37.6676 44.4098 37.5309L43.9905 37.1295L43.7038 36.8647L43.1499 36.35C42.4151 35.6593 41.6808 34.9639 40.9409 34.2729C40.0781 33.4505 39.2895 32.5387 38.4828 31.6585L36.0747 29L35.7729 28.6694L35.6646 28.548L35.6085 28.4802L35.4915 28.3398C35.454 28.2961 35.4129 28.2337 35.3416 28.2257C35.2707 28.213 35.2205 28.2617 35.1761 28.3014L35.0321 28.4293L34.8437 28.597L34.5094 28.9156C33.1673 30.1856 31.8533 31.4894 30.5547 32.7939L26.9596 36.4849L25.8179 37.6296C25.6389 37.807 25.4394 37.9229 25.2578 38.0072C25.0916 38.0922 24.8615 38.1416 24.6323 38.1167C24.3929 38.0913 24.2454 38.0098 24.064 37.9035C23.8826 37.7971 23.712 37.6215 23.5527 37.4326L22.2356 35.9469L19.9631 33.3878L15.4127 28.2742L13.9858 26.6855C13.8662 26.5775 13.8497 26.4652 13.8025 26.3513L13.6762 26.0105L13.6675 25.9915L13.6679 25.9869C13.4975 25.9973 13.8949 25.9746 13.854 25.9726L13.8544 25.968L13.8551 25.9587L13.8534 25.9168L13.85 25.8329L13.8483 25.6655C13.8263 25.5575 13.8829 25.43 13.9345 25.3023C13.9856 25.1792 14.0218 25.0508 14.0832 24.9282L14.3273 24.582L14.589 24.2087C14.9381 23.7094 15.3014 23.2247 15.6644 22.7446L19.7694 17.4045L25.6062 9.73452C26.7162 8.28611 27.8452 6.85719 28.8267 5.34683C29.1028 4.92306 29.299 4.84877 29.3845 5.12251C29.5356 5.59931 29.7421 6.02767 29.4232 6.8492C29.2081 7.40607 28.9819 7.91124 28.4845 8.46387C27.7664 9.26626 27.2485 10.2596 26.4049 10.9629C26.2836 11.0641 26.1665 11.2398 26.0721 11.3887C24.4177 14.029 22.3898 16.4609 20.4648 18.9534C19.8381 19.7695 19.2555 20.6109 18.6481 21.4419L17.4485 23.044C16.8613 23.8155 16.2446 24.5716 15.6973 25.359C15.6268 25.4672 15.5563 25.5753 15.4862 25.6789C15.4424 25.7744 15.2896 25.8833 15.4265 25.9689C15.566 26.1477 15.6599 26.3195 15.8008 26.6703C15.8465 26.8026 16.106 27.0847 16.2392 27.1516C16.7577 27.4089 17.1257 27.8728 17.5046 28.328C18.5344 29.5583 19.5477 30.8016 20.5991 32.019C21.3731 32.9208 22.1794 33.8056 22.9923 34.6721L24.3597 36.1092C24.4884 36.2316 24.6076 36.3442 24.7233 36.438C24.7919 36.4785 24.9016 36.4559 24.9534 36.3887L25.113 36.1964C25.1662 36.1106 25.6106 35.6391 25.948 35.2834C27.0334 34.136 28.1626 33.0186 29.2728 31.8817C29.5306 31.6198 29.7541 31.3376 30.0118 31.0756C30.4877 30.5963 30.952 30.07 31.4672 29.6763C32.0373 29.2387 32.4427 28.8677 32.7573 28.2877C32.8477 28.1246 32.9959 27.9458 33.1701 27.7636C33.2544 27.6746 33.349 27.5862 33.4384 27.4975C33.5828 27.365 33.7225 27.2275 33.856 27.1037C34.0667 26.9139 34.2699 26.6912 34.4962 26.5626C34.7327 26.4344 34.9124 26.3734 35.1509 26.3476C35.3944 26.3221 35.6678 26.3724 35.8452 26.4646C36.0333 26.5526 36.2325 26.6923 36.4016 26.8864C36.5932 27.1187 36.7853 27.3465 36.9722 27.5739C37.0742 27.709 37.1817 27.8397 37.2943 27.9706C37.5199 28.2279 37.7722 28.4724 38.0882 28.6921C38.4283 28.9316 38.7785 29.3621 39.0469 29.7237C40.2471 31.3201 41.6697 32.7737 43.1307 34.1966L44.8255 35.8399L45.0399 36.0455L45.1445 36.1481C45.173 36.1774 45.1733 36.1728 45.1927 36.1876L45.3324 36.3013C45.3707 36.3356 45.4239 36.3754 45.4884 36.3413C45.5426 36.3067 45.5727 36.2524 45.612 36.2124L45.6916 36.1186L46.0196 35.8135L46.6871 35.19L48.0269 33.9479C48.8385 33.1965 49.6796 32.4604 50.516 31.7195C51.4026 30.9298 52.2987 30.1499 53.2047 29.3751L54.5632 28.2176L54.7344 28.0723L54.756 28.0594L54.7996 28.029C54.8373 28.0076 54.8199 27.9695 54.8013 27.9454L53.2467 25.5928C52.8903 25.0504 52.5299 24.4938 52.1291 23.9911C51.1971 22.8213 50.3776 21.5965 49.6012 20.3459C48.661 18.8364 47.5795 17.4224 46.4928 16.0081C46.2422 15.6799 45.9601 15.3595 45.7413 15.019C44.2268 12.6172 42.4309 10.3879 40.8511 8.02946L39.9049 6.59403L39.6722 6.23419L39.4643 5.94989C39.342 5.74877 39.1651 5.58687 39.0047 5.41182C38.3464 4.72938 37.4245 4.25284 36.4095 4.0368C34.8445 3.69676 33.0565 4.01084 31.7087 4.97365C31.6263 5.03943 31.5522 5.12886 31.4697 5.19464C31.2738 5.32936 31.1246 5.457 30.9938 5.54836C30.8579 5.63948 30.7357 5.6894 30.6314 5.70765C30.4233 5.73951 30.284 5.62128 30.2684 5.30905C30.2596 5.03898 30.3077 4.70191 30.5283 4.3917C30.6337 4.23404 30.756 4.05855 30.9227 3.90383C31.0943 3.75399 31.2969 3.60103 31.5196 3.45364C32.5512 2.8383 33.7645 2.51526 34.9609 2.46106L34.971 2.4011Z" fill="#8ED8C8"/>
<path d="M40.5114 5.0109C38.1715 1.56092 32.7397 1.4773 30.1673 4.85683L25.6871 10.7406C25.5914 10.8663 25.6032 11.0396 25.7214 11.1438C26.477 11.8273 29.1118 13.888 35.117 14.2024C39.3655 14.4248 42.8432 13.1834 44.972 12.2588C45.1605 12.1753 45.2274 11.9641 45.1185 11.8044L40.5114 5.0109Z" fill="#8ED8C8"/>
</svg>
