<svg width="21" height="39" viewBox="0 0 21 39" fill="none" xmlns="http://www.w3.org/2000/svg">
<path d="M14.7498 21.8967L16.4895 37.851C16.5033 37.9812 16.3205 38.0256 16.2734 37.9037L10.6085 22.7694L14.7498 21.8967Z" fill="white"/>
<path d="M14.5289 23.5286C14.6314 23.9663 14.7201 24.4068 14.8447 24.8362C14.9555 25.2185 15.0691 25.5953 15.0359 26.0025C15.0275 26.1078 15.058 26.2186 15.0691 26.3239C15.0885 26.5206 15.1106 26.7145 15.1245 26.9112C15.13 26.9998 15.094 27.0995 15.119 27.1799C15.2409 27.5788 15.3045 27.9805 15.2658 28.3988C15.407 28.7063 15.3628 29.0277 15.3655 29.349C15.3683 29.6732 15.4264 29.9945 15.3794 30.3187C15.3683 30.4045 15.3683 30.5015 15.3932 30.5846C15.5373 31.0916 15.5622 31.6096 15.5954 32.1305C15.6121 32.4103 15.6453 32.6873 15.6924 32.9616L15.7312 33.1666C15.745 33.233 15.7616 33.3134 15.7727 33.3494L15.8669 33.6625C15.9472 33.9201 15.9749 34.1971 15.9999 34.4409C16.0276 34.6902 16.0276 34.8842 16.0359 35.0753L16.0442 35.1945C16.0719 35.5491 16.0719 35.8371 15.9833 35.7208C15.9528 35.682 15.9251 35.6294 15.8946 35.5712C15.8918 35.5435 15.8254 35.513 15.77 35.4244C15.7173 35.3357 15.7035 35.2222 15.6758 35.128C15.5733 34.7457 15.5012 34.452 15.4458 34.2276C15.3932 34.006 15.3877 34.0891 15.3544 34.0392C15.2935 33.97 15.1771 33.812 15.0414 33.5128C15.0276 33.4907 14.9638 33.3217 14.9167 33.2053L14.7755 32.823L14.5068 32.0557C14.3433 31.5764 14.2076 31.0888 14.0469 30.6095L12.612 26.3432L12.2879 25.3127C12.2325 25.1409 12.1688 24.9719 12.1023 24.8057L11.7311 23.8749L11.5455 23.4095L11.4984 23.2931C11.4929 23.282 11.4956 23.2876 11.4928 23.282L11.4846 23.2682L11.4707 23.2405L11.5095 23.2294L11.9333 23.1408L13.1272 22.8831C13.6563 22.7667 14.1854 22.6365 14.7284 22.5977C14.8807 22.5867 14.9167 22.5174 14.8336 22.3983C14.6896 22.1933 14.5649 21.9744 14.2824 21.8941C14.0913 21.8387 13.9167 21.8027 13.709 21.883C13.4098 21.9966 13.0608 21.9606 12.7837 22.1628C12.745 22.1905 12.6813 22.1988 12.6286 22.2016C12.2768 22.2155 11.9306 22.2625 11.5871 22.329L11.3266 22.3817L10.9832 22.4565L10.3155 22.6116L10.6701 23.4926L10.7588 23.7308L10.8336 23.9497L10.9776 24.3874C11.0441 24.5758 11.1133 24.7614 11.1854 24.947C11.2906 25.2157 11.4125 25.4789 11.5039 25.7532C11.5732 25.9609 11.6064 26.1742 11.8031 26.31C11.8447 26.3377 11.8779 26.4485 11.8613 26.4984C11.7976 26.6868 11.8724 26.8502 11.9388 27.0192C12.1189 27.4708 12.3073 27.9168 12.4763 28.3739C12.6009 28.7119 12.7089 29.0554 12.8059 29.4017C12.9555 29.9391 13.0829 30.4821 13.238 31.0196C13.3682 31.4683 13.5234 31.9088 13.6647 32.3521C13.6979 32.4546 13.709 32.5654 13.745 32.6651C13.8087 32.8535 13.853 33.0585 13.961 33.2164C14.0802 33.3937 14.1439 33.5406 14.1079 33.7594C14.0885 33.7954 14.1328 33.9561 14.1744 34.0836C14.2187 34.2165 14.2741 34.355 14.3239 34.4741C14.4541 34.7816 14.5982 35.0421 14.7256 35.2609C14.8835 35.5352 14.9971 35.6903 15.1162 36.2499C15.1827 36.5574 15.2935 36.7763 15.3738 36.901C15.4181 36.973 15.4597 37.045 15.504 37.1198L15.565 37.2362C15.5844 37.2722 15.6037 37.2943 15.6231 37.3276C15.6951 37.4052 15.7616 37.4689 15.8198 37.5409C15.8503 37.5769 15.8808 37.6157 15.9085 37.6573L15.9915 37.7792C16.0497 37.8678 16.0968 37.9509 16.1467 38.034L16.3295 38.336L16.371 38.3997C16.3821 38.4191 16.396 38.444 16.4542 38.444C16.5068 38.4468 16.5733 38.4302 16.6065 38.4108C16.6398 38.3914 16.6315 38.3803 16.6425 38.3665C16.6924 38.2584 16.7617 38.2141 16.8725 38.1282C16.914 38.1033 16.9555 38.0396 16.9971 37.9731C17.0331 37.8733 17.0885 37.8068 17.0802 37.5575L17.0774 37.5409C16.9916 36.6295 16.8835 35.646 16.7672 34.6819L16.5927 33.2525L16.4819 32.4906C16.4542 32.2939 16.4182 32.0945 16.4237 31.8978C16.432 31.4407 16.3683 30.9974 16.2796 30.5514C16.1744 30.0167 16.1605 29.4737 16.1522 28.9307C16.1495 28.8033 16.1633 28.6759 16.1411 28.5512C15.9832 27.6952 16.0027 26.8225 15.8835 25.9637C15.7894 25.2684 15.6453 24.5813 15.5151 23.8915C15.4126 23.3596 15.2963 22.8305 15.1882 22.2986C15.1799 22.2626 15.1882 22.2265 15.1799 22.1905C15.1107 21.8886 14.9361 21.811 14.7035 21.9827C14.4985 22.1351 14.3904 22.3512 14.4264 22.6255C14.4652 22.9302 14.5179 23.2322 14.5622 23.5341L14.5289 23.5286Z" fill="#DAAE3F"/>
<path d="M15.4756 28.5483C14.4451 28.0912 13.2124 27.5233 12.2124 27.0551L10.6085 22.7694L14.7498 21.8967L15.4756 28.5483Z" fill="#DAAE3F"/>
<path d="M12.4234 15.4445C15.8528 14.8656 16.7836 15.1204 17.3265 15.3282C17.5121 15.4002 20.2241 16.4668 20.4152 18.262C20.6756 20.7303 16.0661 23.5754 11.8804 24.0547C9.07153 24.3761 4.72798 23.8276 4.04099 21.5836C3.52851 19.9076 5.28477 18.0293 5.62549 17.683C6.88313 16.4031 8.74741 16.0651 12.4234 15.4445Z" fill="white"/>
<path d="M14.2269 15.5885C14.7034 15.4777 15.1882 15.4029 15.6646 15.3171C16.0857 15.245 16.5261 15.1924 16.925 15.3697C17.0248 15.4168 17.1411 15.4334 17.2491 15.475C17.4431 15.5498 17.6425 15.6412 17.8309 15.7409C17.9167 15.788 17.986 15.8739 18.0719 15.9044C18.4957 16.0457 18.8946 16.2784 19.1772 16.6246C19.5068 16.7659 19.7063 17.0679 19.8586 17.3616C20.0138 17.6497 20.1716 17.9572 20.1273 18.273C20.1135 18.3533 20.1107 18.442 20.1218 18.5251C20.1606 18.7716 20.1079 19.0348 20.0055 19.2786C19.9002 19.5224 19.7534 19.7496 19.5816 19.9629C19.2132 20.42 18.8004 20.8466 18.3849 21.2982C18.1605 21.5364 17.8807 21.7331 17.5982 21.9104C17.263 22.1237 16.9029 22.2927 16.5428 22.4645C16.0248 22.7138 15.4846 22.9161 14.925 23.0407C14.1771 23.2042 13.4264 23.3372 12.6812 23.4203C12.3017 23.4618 11.925 23.5532 11.5455 23.6003C10.7809 23.7 9.99972 23.7555 9.21854 23.7167C8.63404 23.689 8.04954 23.5976 7.48721 23.4563C6.96088 23.3233 6.46226 23.1238 5.99965 22.8911C5.32096 22.5504 4.73369 22.0517 4.57857 21.4561C4.40959 20.8688 4.62568 20.1679 5.01072 19.5335C5.19355 19.226 5.42624 18.9434 5.66724 18.6664L6.03011 18.2564C6.25449 18.0181 6.47335 17.8104 6.74206 17.6303C7.00799 17.453 7.30159 17.3034 7.61185 17.1732C8.51768 16.8103 9.55096 16.6163 10.5787 16.4113C11.166 16.2977 11.7532 16.1786 12.3571 16.1537C12.5261 16.1454 12.5704 16.0761 12.4845 15.9542C12.3405 15.7464 12.213 15.522 11.9056 15.4362C11.6978 15.378 11.5039 15.3392 11.2712 15.414C10.9333 15.5248 10.5454 15.4833 10.2296 15.6855C10.1853 15.7132 10.1133 15.7215 10.0551 15.7243C9.00524 15.7742 7.97475 16.0706 6.99966 16.5221C6.68386 16.6773 6.35699 16.8158 6.06335 17.0263C5.87221 17.1593 5.69217 17.3089 5.52874 17.4724C5.29051 17.7106 5.09658 17.9738 4.88605 18.2259C4.72815 18.4143 4.55087 18.5916 4.54533 18.8548C4.54533 18.9102 4.47332 19.0154 4.42068 19.0376C4.224 19.1262 4.13534 19.3202 4.05223 19.5141C3.82508 20.0321 3.70044 20.6167 3.75307 21.2068C3.75307 21.3176 3.7863 21.4228 3.80569 21.5309C3.82231 21.6417 3.85834 21.7442 3.89435 21.8495C3.97192 22.0545 4.06886 22.2595 4.19351 22.4396C4.57579 23.013 5.12704 23.4396 5.71154 23.7499C6.20463 24.0076 6.73097 24.1738 7.25452 24.3179C7.37641 24.3539 7.49273 24.401 7.61462 24.4287C7.839 24.4785 8.07448 24.545 8.29332 24.5312C8.5371 24.5146 8.7199 24.5256 8.92766 24.6558C9.04401 24.7279 9.24348 24.7389 9.40415 24.7362C9.61191 24.7362 9.81689 24.7002 10.0163 24.6614C10.2573 24.617 10.4789 24.5616 10.7393 24.6392C10.8778 24.6807 11.0718 24.6475 11.2269 24.6059C11.9111 24.4314 12.6009 24.3455 13.2906 24.2264C14.2269 24.0713 15.1522 23.8358 16.0552 23.5089C16.407 23.3787 16.7505 23.218 17.0885 23.049C18.1356 22.5171 19.1218 21.819 19.9168 20.8771C20.0747 20.6943 20.216 20.4893 20.3739 20.2981C20.5567 20.0765 20.7118 19.8272 20.8226 19.539C20.9334 19.2565 21.0027 18.9434 20.9999 18.6193C20.9999 17.8325 20.6924 17.079 20.2603 16.5332C20.1633 16.4003 20.0664 16.2645 19.9445 16.1648C19.5179 15.8129 19.0913 15.5082 18.6453 15.2339C18.191 14.968 17.7699 14.7159 17.1827 14.5608C16.7145 14.4472 16.2713 14.4416 15.8558 14.461C15.4375 14.4832 15.0331 14.5358 14.6369 14.5995C14.0247 14.6965 13.4291 14.8378 12.8391 14.9791C12.8003 14.9874 12.7588 14.9846 12.72 14.9957C12.3848 15.0871 12.3072 15.2644 12.5067 15.486C12.684 15.6827 12.925 15.7714 13.2269 15.7215L14.2214 15.5525L14.2269 15.5885Z" fill="#DAAE3F"/>
<path d="M13.234 8.33887L15.126 17.2206C15.0124 17.4948 14.5554 18.5171 13.3891 19.1127C12.0899 19.7748 10.86 19.4229 10.6079 19.3454L8.20065 18.6113L5.54964 10.1534L13.234 8.33887Z" fill="white"/>
<path d="M8.02246 18.3397C7.08339 15.5583 6.1443 12.7797 5.20245 9.99829L8.02246 18.3397Z" fill="white"/>
<path d="M8.27721 17.8493C8.19134 17.7662 8.11933 17.6775 8.01129 17.6027C7.91434 17.5362 7.81737 17.4725 7.86169 17.3562C7.87277 17.3257 7.84786 17.3063 7.83955 17.2814C7.82569 17.237 7.80907 17.1927 7.80076 17.1456C7.79799 17.1234 7.83401 17.0874 7.81185 17.0736C7.70659 17.0043 7.65672 16.9212 7.70381 16.7993C7.57916 16.7605 7.62625 16.6636 7.63456 16.5804C7.6401 16.4973 7.59576 16.4308 7.64839 16.3311C7.66224 16.3062 7.66227 16.2812 7.64288 16.2646C7.51822 16.176 7.5099 16.0485 7.49051 15.9211C7.47111 15.7854 7.40185 15.669 7.26611 15.5748C7.19409 15.525 7.17195 15.4529 7.14979 15.3837C7.12208 15.3006 7.12484 15.2091 7.10545 15.126C7.07775 15.0041 7.06389 14.8767 7.09713 14.7327C7.13869 14.5415 7.16084 14.3586 7.16084 14.1813C7.16084 14.0899 7.0999 14.0207 7.05835 13.9431C6.97247 13.7907 6.86722 13.6439 6.79243 13.486C6.73425 13.3697 6.70377 13.2422 6.67607 13.1148C6.65114 12.9956 6.65393 12.8654 6.63177 12.7463C6.56806 12.389 6.49604 12.0344 6.43233 11.677C6.41571 11.5911 6.41568 11.4997 6.4046 11.4138C6.39906 11.3695 6.38521 11.3307 6.36859 11.2891C6.30488 11.1423 6.23287 10.9955 6.17747 10.8459C6.09713 10.6326 6.02789 10.411 5.94756 10.1976C5.90047 10.0757 5.84229 9.95938 5.87276 9.81256C5.88107 9.771 5.81735 9.7793 5.69547 9.83471C5.48494 9.93167 5.2633 10.0259 5.1525 10.1284C5.0777 10.1976 5.02232 10.2586 5.07219 10.2974C5.14421 10.3528 5.06663 10.4636 5.22452 10.4885C5.24668 10.4913 5.2467 10.5079 5.24116 10.5245C5.1636 10.7877 5.31594 10.9733 5.40459 11.1811C5.43506 11.2476 5.4323 11.3251 5.44892 11.3972C5.46 11.4443 5.47386 11.4886 5.49325 11.5329C5.51818 11.5966 5.56248 11.6548 5.57356 11.7241C5.58187 11.7767 5.55696 11.8376 5.70101 11.8376C5.73148 11.8376 5.73422 11.8654 5.70652 11.8848C5.59849 11.9596 5.62619 11.9956 5.64282 12.0371C5.68991 12.1451 5.74808 12.2477 5.78132 12.3585C5.80625 12.4416 5.81733 12.5275 5.81456 12.6189C5.81179 12.7602 5.78687 12.9098 5.78687 13.0483C5.78964 13.1646 5.81735 13.2727 5.8312 13.3863C5.83397 13.4112 5.81734 13.4444 5.82288 13.4694C5.83119 13.5165 5.82013 13.5719 5.87553 13.6023C5.93647 13.6328 5.95863 13.6661 5.86721 13.7464C5.81458 13.7907 5.83396 13.8268 5.85612 13.8545C5.88382 13.8905 5.93645 13.9154 5.99185 13.9431C6.05557 13.9736 6.12205 14.0013 6.05834 14.0788C6.02509 14.1204 6.06389 14.1509 6.10267 14.1703C6.27719 14.2645 6.31321 14.4058 6.32429 14.5581C6.34091 14.7631 6.33536 14.9737 6.34644 15.1787C6.35198 15.259 6.37138 15.3338 6.388 15.4114C6.44063 15.6496 6.54866 15.8685 6.66224 16.0846C6.6844 16.1261 6.71211 16.1705 6.7038 16.2203C6.68441 16.3422 6.7315 16.4392 6.80352 16.5278C6.88939 16.6359 6.88663 16.7744 6.88109 16.9129C6.87832 16.9462 6.86447 16.9822 6.88109 17.0071C7.00852 17.1844 6.96693 17.4171 7.05835 17.6055C7.13037 17.7579 7.24674 17.8964 7.35477 18.0376C7.43788 18.1457 7.53482 18.251 7.62347 18.3562C7.62901 18.3646 7.6207 18.3756 7.62901 18.3812C7.68719 18.4393 7.85062 18.4089 8.075 18.2953C8.27445 18.1956 8.37972 18.1069 8.35479 18.046C8.32708 17.9767 8.28553 17.9158 8.24952 17.8493C8.25506 17.8576 8.26613 17.8548 8.27721 17.8493Z" fill="#DAAE3F"/>
<path d="M13.235 8.33862L15.127 17.2203C15.0134 17.4946 14.5563 18.5168 13.3901 19.1124C12.0909 19.7745 10.861 19.4227 10.6089 19.3451" fill="white"/>
<path d="M12.977 9.03939C13.0684 9.20007 13.1432 9.36629 13.2567 9.52143C13.3565 9.65995 13.459 9.79291 13.4174 9.96467C13.4064 10.009 13.434 10.0478 13.4424 10.0921C13.4562 10.1697 13.4756 10.2445 13.4839 10.3221C13.4867 10.3581 13.4507 10.4024 13.4728 10.4329C13.5809 10.5742 13.6363 10.7293 13.5864 10.9038C13.7166 11.0063 13.6667 11.1448 13.6612 11.275C13.6557 11.4052 13.7055 11.5271 13.6501 11.6684C13.6363 11.7044 13.6363 11.746 13.6584 11.7737C13.7886 11.9565 13.7997 12.1643 13.8191 12.3693C13.8413 12.591 13.916 12.8015 14.0573 12.9954C14.1321 13.0979 14.1571 13.2198 14.1792 13.3362C14.2069 13.4775 14.2097 13.6215 14.2291 13.7656C14.2595 13.9706 14.2734 14.1783 14.2429 14.3972C14.2014 14.6881 14.182 14.9762 14.1848 15.2588C14.1848 15.4028 14.2485 15.5358 14.2955 15.6715C14.387 15.943 14.4978 16.2118 14.5781 16.486C14.6086 16.5885 14.6335 16.6938 14.6529 16.7991L14.6806 16.957L14.6917 17.0373L14.6972 17.0761V17.0927C14.7 17.137 14.6972 17.1758 14.6584 17.2063C14.6418 17.2257 14.6307 17.2285 14.6113 17.2534L14.5338 17.3615C14.2346 17.7909 13.8468 18.1454 13.4091 18.3726C13.3039 18.428 13.1875 18.4613 13.0795 18.5028C13.0241 18.5195 12.9714 18.5444 12.9188 18.5721C12.7277 18.6663 12.5282 18.7549 12.3149 18.802C12.0102 18.8657 11.6889 18.8768 11.3731 18.8491C11.1958 18.8353 11.0074 18.8187 10.8634 18.6995C10.8246 18.6663 10.7913 18.7217 10.7692 18.8519C10.7332 19.0818 10.6916 19.3201 10.7609 19.4807C10.8079 19.5888 10.8606 19.6747 10.9576 19.658C11.0933 19.6331 11.2207 19.7578 11.3648 19.6304C11.3841 19.611 11.4091 19.622 11.4312 19.6304C11.808 19.816 12.2207 19.7052 12.5919 19.5999C12.7166 19.5694 12.844 19.5528 12.9714 19.5223C13.0518 19.4974 13.1293 19.4697 13.2069 19.4364C13.3177 19.3838 13.4174 19.3146 13.5282 19.2675C13.6114 19.2314 13.7166 19.2286 13.7111 19.0652C13.7111 19.032 13.7526 19.0126 13.7859 19.032C13.9077 19.104 13.9659 19.0486 14.0241 19.0015C14.1875 18.874 14.3232 18.7217 14.4701 18.5804C14.5753 18.4751 14.6917 18.3754 14.8108 18.2757C14.9936 18.1205 15.1875 17.9599 15.3427 17.7659C15.3759 17.7244 15.4036 17.6856 15.4368 17.6357C15.4756 17.5692 15.5144 17.5028 15.5477 17.4307L15.6003 17.3255L15.6252 17.2728C15.628 17.2534 15.6224 17.234 15.6197 17.2146L15.5892 16.9819C15.5837 16.9487 15.5837 16.9016 15.5864 16.8767C15.5892 16.8545 15.592 16.8323 15.5892 16.8102C15.5781 16.7326 15.592 16.6439 15.5338 16.583C15.4701 16.5137 15.4451 16.4528 15.5393 16.3558C15.592 16.3004 15.5726 16.2367 15.5504 16.1841C15.5227 16.1176 15.4645 16.0594 15.4091 16.0012C15.3427 15.932 15.2734 15.8655 15.3371 15.763C15.3704 15.7076 15.3316 15.6466 15.29 15.6023C15.11 15.3973 15.0684 15.1563 15.0546 14.9125C15.0352 14.58 15.0379 14.2448 15.0241 13.9124C15.0186 13.7822 14.9936 13.6547 14.977 13.5273C14.9188 13.1284 14.8025 12.7433 14.6834 12.361C14.6584 12.2862 14.6307 12.2087 14.639 12.1283C14.6584 11.9399 14.6058 11.7709 14.531 11.6019C14.4396 11.4025 14.4424 11.1808 14.4451 10.962C14.4451 10.9121 14.4618 10.8567 14.4424 10.8096C14.3066 10.4855 14.3482 10.1281 14.2512 9.79569C14.1737 9.52697 14.0518 9.27211 13.9382 9.0117C13.8523 8.81223 13.7498 8.61553 13.6557 8.41607C13.6501 8.40222 13.6557 8.38559 13.6501 8.37451C13.5892 8.2637 13.4202 8.25815 13.1875 8.36896C12.9825 8.46592 12.8717 8.57119 12.8994 8.67647C12.9299 8.79559 12.9742 8.90918 13.013 9.02553L12.977 9.03939Z" fill="#DAAE3F"/>
<path d="M14.3369 13.5222L6.24537 11.1508L13.2344 8.33887L14.3369 13.5222Z" fill="#DAAE3F"/>
<path d="M1.66647 6.2916C1.87423 5.97855 2.09307 5.70428 2.26205 5.49097C4.17067 3.06416 7.12086 2.56549 8.31756 2.38265C9.79127 2.15548 12.747 1.96157 14.6085 2.78712L15.7083 2.48792L16.218 4.51858C17.6363 9.23645 7.85217 12.0483 4.22884 10.8876C3.36179 10.6105 1.44486 9.99551 1.08475 8.54386L0.594427 6.5797L1.66647 6.2916Z" fill="white"/>
<path d="M3.04683 5.20279C3.32107 4.82603 3.6729 4.50743 4.00532 4.16945C4.31557 3.88133 4.64244 3.59877 5.06904 3.48519C5.17707 3.45194 5.27958 3.38822 5.38761 3.3439C5.58152 3.25802 5.78094 3.18322 5.98316 3.11673C6.07458 3.08625 6.18816 3.1001 6.26572 3.05854C6.65908 2.848 7.09122 2.71502 7.54275 2.71225C7.86131 2.54049 8.21868 2.55989 8.56494 2.54327C8.91398 2.52942 9.26302 2.46847 9.61206 2.52387C9.70348 2.53772 9.80872 2.54049 9.90013 2.5211C10.4542 2.39921 11.0193 2.42137 11.5788 2.46846C12.18 2.51833 12.7728 2.55158 13.3739 2.57651C13.6952 2.59313 14.0193 2.68178 14.3213 2.80091L14.4764 2.86463C14.5318 2.87849 14.5817 2.93388 14.6398 2.90063L14.9612 2.82585L15.4321 2.72335L15.5817 2.68733C15.626 2.88956 15.6565 3.06132 15.6897 3.26909C15.734 3.51842 15.7701 3.76776 15.8005 4.01986C15.8255 4.21378 15.8476 4.4077 15.8726 4.60439L15.964 4.27472L15.8365 4.37445L15.8753 4.62101C15.9584 5.13352 15.9196 5.63219 15.7479 6.08375C15.6288 6.38849 15.5152 6.70707 15.3324 7.00626C14.9612 7.60188 14.4238 8.13932 13.8088 8.57981C13.3406 8.9067 12.8254 9.17268 12.2963 9.39707C11.8004 9.61039 11.2797 9.75444 10.7616 9.90958C9.99431 10.1312 9.21038 10.2974 8.42366 10.4082C7.63695 10.519 6.84192 10.5689 6.07183 10.5274C5.70063 10.5107 5.34051 10.4498 4.99701 10.3777C4.91391 10.3584 4.82802 10.339 4.74215 10.3224L4.50115 10.2586C3.83078 10.0703 3.17149 9.84584 2.63685 9.51063C2.25735 9.27238 1.94431 8.97596 1.79472 8.64906C1.74763 8.56872 1.73102 8.48284 1.70055 8.39973L1.6036 8.02297L1.4097 7.26113L1.3626 7.08661L1.35705 7.06999C1.35151 7.05891 1.34874 7.04506 1.34874 7.03398C1.36259 7.0312 1.38199 7.03121 1.39584 7.03675L1.40693 7.04228L1.41244 7.04505C1.41244 7.04505 1.4097 7.04782 1.4374 7.04228L1.66731 7.00626C1.83352 6.9841 1.86953 6.90931 1.77535 6.79573C1.60637 6.60181 1.47617 6.38848 1.14652 6.33585C0.905519 6.30537 0.589727 6.31646 0.318254 6.4245L0.321028 6.43005C0.484465 6.88438 0.501093 7.39134 0.708853 7.65175C0.739325 7.69331 0.750383 7.76256 0.755922 7.82074C0.780855 8.07838 0.816873 8.33325 0.866735 8.58535C0.930449 8.85961 1.03571 9.13666 1.20746 9.36383C1.53987 9.82648 2.00527 10.1423 2.47343 10.3888C2.78091 10.5523 3.08562 10.7157 3.40696 10.8459C3.61472 10.9318 3.82525 11.0011 4.03578 11.0676C4.18537 11.1174 4.35434 11.1507 4.51501 11.1895L4.99978 11.2781C5.24079 11.3197 5.479 11.3889 5.70615 11.2615C5.75324 11.2366 5.88068 11.2504 5.92223 11.2836C6.08844 11.4111 6.29621 11.4083 6.49566 11.3945C7.04138 11.3751 7.57878 11.3031 8.11341 11.231C8.50954 11.1784 8.90568 11.1257 9.30181 11.0703C9.91678 10.9844 10.5373 10.8958 11.1439 10.7379C11.6509 10.6022 12.1495 10.4276 12.6426 10.2254C12.7561 10.1811 12.878 10.1561 12.9916 10.1007C13.1966 10.0065 13.4265 9.92621 13.59 9.78215C13.7756 9.62701 13.9251 9.52174 14.1717 9.49957C14.313 9.49126 14.4736 9.36934 14.6011 9.26684C14.7673 9.13941 14.903 8.97045 15.036 8.81254C15.1939 8.61861 15.3241 8.42466 15.5706 8.29445C15.698 8.21688 15.8255 8.059 15.9002 7.90663C16.2521 7.26115 16.6039 6.60734 16.7424 5.84827C16.8199 5.36346 16.7895 4.86758 16.6897 4.38554L16.5679 4.87035L16.7507 4.70967L16.6953 4.40494L16.5679 3.69573L16.5042 3.34112L16.4709 3.16382L16.4543 3.07517L16.4294 2.94774C16.3435 2.55158 16.2493 2.14711 16.1523 1.74264L15.3989 1.93656L14.7479 2.10555L14.6676 2.12494L14.6592 2.12772C14.6537 2.13049 14.6481 2.13049 14.6426 2.12494L14.5373 2.0834C14.4653 2.05293 14.3905 2.03353 14.3185 2.0086C14.1717 1.96427 14.0249 1.91717 13.878 1.8867C13.2908 1.74818 12.7063 1.68446 12.1246 1.65676C11.8974 1.64568 11.6675 1.64569 11.4459 1.61521C10.9334 1.54319 10.4182 1.56535 9.91122 1.63461C9.30179 1.71772 8.68959 1.73156 8.07463 1.78143C7.93335 1.79251 7.78375 1.78975 7.64801 1.82576C6.68401 2.06678 5.67847 2.2413 4.75878 2.70118C4.01916 3.07517 3.346 3.58491 2.76981 4.17499C2.32659 4.6321 1.9471 5.15846 1.64239 5.68205C1.62022 5.7153 1.58698 5.74299 1.56759 5.77901C1.38753 6.08097 1.46231 6.25551 1.76703 6.26659C2.03573 6.27767 2.26844 6.17794 2.44019 5.93969L2.58146 5.74022L2.72826 5.55184C2.82521 5.42717 2.91942 5.29698 3.033 5.1834L3.04683 5.20279Z" fill="#DAAE3F"/>
<path d="M15.5951 2.1859C17.656 7.12539 7.45362 10.1173 3.7361 8.92332C2.86905 8.64629 0.952125 8.03128 0.592008 6.57963C0.284523 5.35238 1.26238 4.16944 1.77209 3.52395C3.68071 1.09714 6.63089 0.598493 7.82759 0.415652C9.83871 0.108145 14.6255 -0.14118 15.5951 2.1859Z" fill="white"/>
<path d="M15.445 3.78723C15.4478 4.19724 15.3342 4.61555 15.1736 5.0311C15.0212 5.39679 14.819 5.76248 14.4617 5.99241C14.3758 6.05613 14.2954 6.13924 14.2123 6.21404C14.0628 6.34978 13.8993 6.47169 13.7303 6.58804C13.6555 6.64345 13.5475 6.66006 13.4838 6.71824C13.1791 7.02021 12.8134 7.25568 12.3951 7.37203C12.1458 7.61859 11.8134 7.69062 11.4921 7.78481C11.1735 7.88731 10.8605 8.02305 10.5225 8.05352C10.4339 8.06183 10.3341 8.084 10.2566 8.12555C9.77181 8.37211 9.23718 8.48847 8.70255 8.57435C8.12913 8.67131 7.56679 8.79877 6.99891 8.95114C6.69696 9.03425 6.37285 9.05639 6.05428 9.06193C5.67755 9.07578 5.30083 9.02868 4.92963 8.99267L4.52794 8.93173L4.14015 8.83477C4.01549 8.79045 3.89358 8.74889 3.76892 8.69626C3.6415 8.64085 3.51962 8.58544 3.39774 8.52173C2.75507 8.19483 2.13455 7.82636 1.6941 7.36926C1.47249 7.13932 1.25921 6.92601 1.13179 6.6656C1.00436 6.40796 0.960034 6.11431 0.987736 5.80403C1.01544 5.49099 1.13455 5.16686 1.29244 4.85659C1.41433 4.62388 1.56668 4.39671 1.73288 4.17785C1.89909 3.96177 2.08748 3.73183 2.26754 3.54068C2.43097 3.34676 2.62764 3.18885 2.81324 3.01986C3.01546 2.87026 3.20659 2.70957 3.41989 2.57382C4.64428 1.72333 6.11246 1.27455 7.61387 1.08063C7.98507 1.03076 8.34244 1.01137 8.71086 0.989203C8.89369 0.978122 9.07652 0.964264 9.25935 0.947642C9.93526 0.886694 10.6167 0.856229 11.2898 0.886702C12.2455 0.933798 13.2068 1.09448 13.9879 1.46016C14.4229 1.66517 14.7941 1.96159 14.9076 2.34112C14.9354 2.4464 15.0101 2.45471 15.1126 2.36329C15.2872 2.20261 15.4838 2.02254 15.434 1.70395C15.3924 1.49618 15.3176 1.29116 15.0988 1.15819C14.7968 0.964266 14.5171 0.681693 14.1431 0.673382C14.0905 0.670612 14.0295 0.637373 13.9797 0.60967C13.5364 0.349259 13.035 0.210734 12.5336 0.133164C12.0322 0.0555953 11.5253 0.0389747 11.0239 0.0306637C10.697 0.0251231 10.3674 -0.00257616 10.0405 0.000194172C9.82721 0.000194172 9.61393 0.0085126 9.4034 0.0251346C9.09591 0.0472972 8.78841 0.0971536 8.4837 0.119316C8.25377 0.135938 8.02109 0.122083 7.83272 0.288302C7.79394 0.321546 7.67205 0.335403 7.62496 0.31047C7.44213 0.213508 7.25376 0.257839 7.06539 0.299394C6.55569 0.407437 6.05153 0.557023 5.55568 0.720473C5.18725 0.839597 4.81883 0.967033 4.45317 1.10278C3.8853 1.31332 3.32017 1.56543 2.80215 1.90895C2.58054 2.0447 2.38386 2.21922 2.17887 2.38267C1.9905 2.56274 1.78831 2.73452 1.61379 2.93398C1.53068 3.02263 1.43094 3.09742 1.35061 3.18884C1.21764 3.34675 1.05142 3.50743 0.96278 3.70135C0.865826 3.91743 0.774425 4.0698 0.561124 4.2C0.442009 4.27203 0.345052 4.45489 0.281338 4.61002C0.198235 4.80949 0.153902 5.03111 0.131741 5.24997C0.109579 5.51869 0.109606 5.75417 0.0209618 6.04505C-0.0289001 6.20296 0.0154171 6.43013 0.0846691 6.59912C0.381074 7.35542 0.890759 7.92056 1.45033 8.34442C1.82983 8.64085 2.24258 8.86801 2.6581 9.07025C2.86586 9.16998 3.07916 9.2614 3.28693 9.34728C3.39496 9.3916 3.48915 9.43037 3.60272 9.47193L3.95454 9.58829C4.32296 9.68526 4.69693 9.74622 5.06259 9.77392C5.63324 9.82656 6.19834 9.81269 6.75514 9.75728C7.31193 9.70187 7.86043 9.61323 8.39784 9.48857C8.61114 9.44424 8.82165 9.38331 9.03495 9.36114C9.5308 9.30851 10.0045 9.16445 10.4616 8.97884C11.0128 8.75444 11.5807 8.58822 12.1458 8.39153C12.276 8.34443 12.4173 8.30841 12.5364 8.24192C13.3702 7.76542 14.265 7.34433 14.9991 6.63236C15.578 6.05336 16.0572 5.30537 16.2512 4.45211C16.4007 3.79277 16.3259 3.10019 16.1043 2.50734C16.0877 2.46855 16.0849 2.42423 16.0655 2.38822C15.9132 2.05578 15.7304 2.02807 15.5475 2.26909C15.4672 2.37437 15.4118 2.47963 15.3869 2.59044C15.3703 2.70126 15.3619 2.81762 15.3869 2.94228C15.4007 3.01154 15.4201 3.0808 15.434 3.15006L15.4534 3.3606C15.4783 3.50189 15.4644 3.64317 15.4589 3.78445L15.445 3.78723Z" fill="#DAAE3F"/>
</svg>
