<svg width="30" height="30" viewBox="0 0 30 30" fill="none" xmlns="http://www.w3.org/2000/svg">
<path d="M29.25 27H28.5V10.5C28.5 9.6 27.9 9 27 9V7.5C27 6.6 26.4 6 25.5 6H21.75L15 0L7.5 6H4.5C3.6 6 3 6.6 3 7.5V9C2.1 9 1.5 9.6 1.5 10.5V27H0.75C0.3 27 0 27.3 0 27.75V29.25C0 29.7 0.3 30 0.75 30H29.25C29.7 30 30 29.7 30 29.25V27.75C30 27.3 29.7 27 29.25 27ZM14.55 3C15.45 3 16.05 3.6 16.05 4.5C16.05 5.4 15.45 6 14.55 6C13.8 6 13.05 5.4 13.05 4.5C13.05 3.6 13.65 3 14.55 3ZM9 24H4.5V19.5H9V24ZM9 16.5H4.5V12H9V16.5ZM18 27H12V22.5C12 20.85 13.35 19.5 15 19.5C16.65 19.5 18 20.85 18 22.5V27ZM18 16.5H12V12H18V16.5ZM25.5 24H21V19.5H25.5V24ZM25.5 16.5H21V12H25.5V16.5Z" fill="#EAC15B"/>
</svg>
