<svg width="56" height="64" viewBox="0 0 56 64" fill="none" xmlns="http://www.w3.org/2000/svg">
<path d="M50.86 63.1203H41.7911C40.9771 63.1203 40.3127 62.4735 40.2907 61.6595L39.6482 38.0875C39.4282 29.9163 33.1359 23.1972 24.9955 22.4359L16.5119 21.6439C15.8342 21.5823 15.2842 21.0718 15.1742 20.403L14.0917 14.0007C13.9113 12.9314 14.8926 12.0294 15.9442 12.2978L43.5732 19.3954C44.0925 19.5274 44.5017 19.9278 44.6425 20.4426L55.2074 58.1305C55.3482 58.6365 55.2162 59.1822 54.8554 59.565L51.9468 62.6539C51.6696 62.9487 51.2736 63.1203 50.86 63.1203Z" fill="#417A87"/>
<path d="M44.1403 62.4871L42.7366 62.5487L42.0326 62.5795C41.7642 62.5883 41.6498 62.6015 41.4913 62.5619C41.1921 62.4871 40.9193 62.2583 40.7917 61.9546C40.7257 61.8006 40.7125 61.651 40.6905 61.3914L40.6289 60.6962C40.4749 59.0461 40.3165 57.4268 40.3913 55.7371C40.4133 55.3015 40.3693 54.8307 40.3605 54.3731C40.3429 53.5458 40.3253 52.7186 40.3033 51.8913C40.2989 51.5129 40.3605 51.1169 40.3253 50.7693C40.1581 49.0532 40.0745 47.3415 40.1625 45.6122C39.9557 44.2746 40.0437 42.9457 40.0569 41.5948C40.0657 40.9172 40.0481 40.2396 40.0437 39.5575C40.0305 38.8711 40.0657 38.2111 40.0657 37.5158C40.0657 37.1506 40.0657 36.7282 39.9909 36.3674C39.5596 34.1673 38.8688 32.0243 37.7512 30.0662C37.1703 29.0058 36.4047 28.0597 35.5906 27.1797C34.7238 26.3437 33.8042 25.5648 32.7657 24.9796C31.6921 24.3064 30.504 23.7343 29.3115 23.2459C27.8771 22.6959 26.3678 22.3439 24.8365 22.1635C22.6408 21.939 20.4671 21.6882 18.2978 21.367L17.2109 21.2086L16.6653 21.1294C16.5597 21.1162 16.5113 21.1074 16.4541 21.0898C16.3969 21.0722 16.3441 21.0546 16.2913 21.0238C16.0845 20.9226 15.9217 20.7378 15.8425 20.531C15.8205 20.4782 15.8072 20.4254 15.7984 20.3726L15.7677 20.1569L15.6973 19.6113C15.5036 18.1504 15.31 16.6896 15.1208 15.2243C15.068 14.8547 15.0108 14.4807 14.9492 14.1066L14.9052 13.8382C14.9008 13.7942 14.892 13.7502 14.8964 13.7106C14.8964 13.627 14.9096 13.5434 14.9448 13.4686C15.0064 13.3102 15.1384 13.1738 15.2968 13.0946C15.376 13.0594 15.464 13.0374 15.552 13.0286C15.596 13.033 15.64 13.0242 15.6884 13.0374C15.7192 13.0418 15.7192 13.0374 15.772 13.0506L15.9085 13.0814C18.8566 13.7854 21.8092 14.4587 24.7529 15.1759C26.9662 15.7171 29.1707 16.3024 31.3752 16.892C33.4257 17.4596 35.4718 18.0272 37.5224 18.5993L42.0854 19.8357L43.225 20.1437L43.3614 20.1834C43.3834 20.1922 43.4054 20.1965 43.423 20.2053C43.4627 20.2229 43.5022 20.2406 43.5419 20.267C43.6167 20.3154 43.6782 20.377 43.7267 20.4518C43.7487 20.487 43.7707 20.5266 43.7883 20.5662C43.7971 20.5838 43.8015 20.6058 43.8103 20.6278L43.8367 20.7246L43.9907 21.2966L44.2943 22.4407L46.732 31.5799C47.1104 33.0452 47.4932 34.5105 47.8717 35.9801C48.0653 36.7106 48.2677 37.441 48.4789 38.1714L50.8154 46.2723L54.0936 57.8932L54.2124 58.3069L54.2476 58.4389C54.252 58.4609 54.2564 58.4873 54.2564 58.5093C54.2608 58.6017 54.2432 58.6985 54.1948 58.7821C54.1816 58.8041 54.1728 58.8217 54.1552 58.8437C54.1376 58.8657 54.1376 58.8657 54.076 58.9317L53.7812 59.2441L53.1915 59.8645L52.0035 61.0922L51.4006 61.695L51.2466 61.8446L51.1718 61.9194C51.1542 61.937 51.1542 61.937 51.141 61.9414C51.1058 61.9634 51.0706 61.981 51.031 61.9942C50.9474 62.0162 50.899 62.0338 50.8682 62.0866C50.8418 62.135 50.833 62.2143 50.8902 62.3155C50.9958 62.4915 51.163 62.6587 51.4402 62.7027C51.7175 62.7643 52.0827 62.5663 52.5359 62.2495C53.1519 61.8138 53.7064 61.387 54.3004 60.6786C54.516 60.4234 54.7448 60.1726 54.978 59.9261C55.0836 59.8161 55.2464 59.6533 55.3476 59.4729C55.4576 59.2925 55.5325 59.0945 55.5765 58.8877C55.6205 58.6809 55.6205 58.4653 55.5897 58.2585C55.5501 58.034 55.4929 57.8888 55.4401 57.726C55.3344 57.4048 55.2112 57.0924 55.0704 56.7932C54.9912 56.6216 54.9252 56.362 54.8812 56.1463C54.0628 52.2962 52.8659 48.534 51.7747 44.741C51.4182 43.5045 51.1058 42.2505 50.7714 41.0052L50.0982 38.5895C49.7638 37.4234 49.3985 36.2574 49.0905 35.0869C48.8573 34.2025 48.6857 33.3268 48.2501 32.592C48.1577 32.438 48.0389 31.9715 48.0433 31.7955C48.0609 31.1179 47.8365 30.3963 47.6253 29.6702C47.0576 27.7077 46.4768 25.7496 45.9268 23.7827L45.3371 21.5914L45.0555 20.4958C45.0203 20.333 44.9455 20.0645 44.8267 19.8665C44.7079 19.6597 44.5495 19.4705 44.3603 19.3209C44.2151 19.2021 44.0479 19.1053 43.8763 19.0349C43.6827 18.9601 43.5506 18.9293 43.4142 18.8853L42.5738 18.6345L40.8973 18.1328C39.7797 17.8028 38.6576 17.4684 37.5356 17.1384C35.6567 16.5972 33.7558 16.0955 31.8637 15.5719C31.428 15.4487 31.0012 15.2991 30.5656 15.1803C29.7604 14.9647 28.9243 14.7007 28.1499 14.5731C27.2874 14.4323 26.6274 14.2783 25.897 13.9086C25.4877 13.7018 24.7881 13.5302 24.2205 13.4026C23.49 13.2398 22.7552 13.121 22.0292 13.0022C21.1579 12.8614 20.3439 12.7382 19.4594 12.373C18.9842 12.1794 18.2934 12.0429 17.7257 11.9461L16.7841 11.7745L16.3133 11.6821L16.0669 11.6337C15.9525 11.6161 15.8425 11.5897 15.7281 11.5897C14.7952 11.5325 13.9064 12.1309 13.5939 12.9802C13.5147 13.1914 13.4663 13.4158 13.4619 13.6402C13.4443 13.8602 13.4927 14.1154 13.5147 14.2475L13.6819 15.2023L13.968 17.1076L14.3376 19.6949L14.43 20.3418L14.452 20.5046C14.4608 20.5618 14.4784 20.6586 14.496 20.7334C14.5356 20.8918 14.5884 21.0458 14.6632 21.191C14.9492 21.7762 15.508 22.2295 16.1549 22.3835C16.2341 22.4055 16.3177 22.4187 16.3969 22.4275L16.5729 22.4495L16.8985 22.4891L17.5453 22.5683L18.8434 22.7267L21.4395 23.0391C22.1172 23.1139 22.7992 23.1887 23.4768 23.2635C24.1501 23.3383 24.8629 23.3867 25.4789 23.4967C29.4303 24.0511 33.1705 26.1236 35.6347 29.3138C35.8679 29.6306 36.1099 29.9474 36.3343 30.2731C36.5367 30.6163 36.7303 30.9595 36.9107 31.3027C37.6808 32.922 38.2572 34.6117 38.5696 36.3762C38.6356 36.6402 38.6576 36.9086 38.6796 37.177L38.75 37.9822C38.7808 38.5367 38.7808 39.1175 38.7896 39.6807C38.8028 40.8204 38.794 41.9556 38.7852 43.0953C38.7808 43.6233 38.7544 44.1602 38.7808 44.6838C38.9832 48.3316 38.8996 51.9793 39.0404 55.6183C39.0976 57.0924 39.168 58.5621 39.2516 60.0317L39.3132 61.1362L39.344 61.6862C39.3572 61.9767 39.4232 62.2803 39.5464 62.5531C39.7841 63.1031 40.2285 63.5475 40.7653 63.7895C41.0337 63.9128 41.3241 63.9832 41.6146 63.9964C41.6806 64.0008 41.773 64.0007 41.817 64.0007L41.9534 63.9964L42.2306 63.9875C44.5011 63.9083 46.7672 63.8247 49.0377 63.7455C49.1873 63.7411 49.3413 63.7587 49.4909 63.7499C50.7846 63.6927 51.1938 63.4331 50.5822 63.0371C50.041 62.6851 49.1873 62.4827 48.0169 62.4871L44.1535 62.5443L44.1403 62.4871Z" fill="#69B9CB"/>
<path d="M45.192 58.9396H54.3971C54.9779 58.9396 55.4443 58.4688 55.4443 57.8924V34.5012C55.4443 21.3976 45.346 10.5116 32.282 9.526L20.2608 8.28516C19.68 8.22356 19.262 7.70434 19.328 7.12352L19.8516 2.48137C19.988 1.25813 18.7032 0.382504 17.6163 0.954523L3.57547 8.32476C2.71304 8.77797 2.48423 9.91321 3.10905 10.6612L12.6926 22.1808C13.4538 23.096 14.919 22.832 15.3151 21.71L16.7891 17.5167C16.9607 17.0238 17.4711 16.7334 17.9815 16.8346L33.0432 19.8399C40.6027 21.5384 45.8212 28.4554 45.3812 36.1909L44.1448 57.8308C44.1096 58.4336 44.5892 58.9396 45.192 58.9396Z" fill="#417A87"/>
<path d="M53.7635 59.5723L54.2123 59.5547C54.3223 59.5503 54.6171 59.5503 54.8239 59.4799C55.2683 59.3523 55.6468 59.0311 55.8404 58.6219C55.9372 58.4195 55.9944 58.1951 55.9988 57.9707C56.0032 57.8431 55.9944 57.7815 55.9944 57.7023L55.9856 57.4778L55.9548 56.5802C55.9152 55.3834 55.8668 54.1909 55.8052 53.0117C55.6952 50.904 55.5807 48.836 55.704 46.6799C55.7348 46.1255 55.7084 45.5227 55.7084 44.9418C55.7128 43.8858 55.7172 42.8298 55.7216 41.7737C55.726 41.2941 55.8008 40.7881 55.7744 40.3437C55.7128 39.2481 55.6732 38.1524 55.6688 37.0568C55.6644 36.5112 55.6688 35.9612 55.682 35.4111C55.6996 34.8655 55.7216 34.3155 55.7172 33.7567C55.5807 32.8943 55.5764 32.0362 55.4311 31.187C55.3827 30.7602 55.3343 30.3334 55.2859 29.9022C55.2463 29.4709 55.1275 29.0529 55.0483 28.6217C54.9515 28.1949 54.8591 27.7681 54.7623 27.3413L54.3487 26.0872C54.2035 25.6736 54.0979 25.2424 53.9263 24.842C53.7591 24.4372 53.6007 24.0324 53.4511 23.6232C53.3719 23.4075 53.2795 23.1743 53.1827 22.9499C53.0771 22.7255 52.9407 22.5143 52.8175 22.3163C51.3434 19.905 49.6582 17.6126 47.5593 15.6765C45.3328 13.5908 42.6663 11.976 39.8106 11.0123C39.441 10.8583 39.0494 10.7527 38.6578 10.6383C38.2662 10.5195 37.8746 10.4007 37.483 10.2819C37.0958 10.1411 36.6866 10.0751 36.2861 9.98272C35.8857 9.89472 35.4809 9.80231 35.0805 9.71431C33.1532 9.3931 31.2216 9.1775 29.2987 8.96189C26.5046 8.65388 23.7325 8.31947 20.9692 7.91465L20.3092 7.81785C20.1772 7.79145 20.0628 7.71665 19.9792 7.61984C19.9 7.51864 19.8516 7.39543 19.8472 7.27223C19.8472 7.24143 19.8472 7.21063 19.8516 7.17983L19.8736 7.04782L19.9264 6.70021C20.0628 5.77178 20.2036 4.84775 20.34 3.91932L20.5424 2.51128C20.626 1.84246 20.3708 1.10323 19.8604 0.632418C19.3632 0.157203 18.6284 -0.089203 17.9156 0.0296009C17.5723 0.0780024 17.1983 0.267207 17.0355 0.350809L16.4019 0.663222C14.6858 1.51245 12.983 2.46727 11.2889 3.3869L6.19797 6.1634L3.65469 7.54944L3.33788 7.72105C3.29388 7.74305 3.21467 7.79145 3.13987 7.83545C3.06507 7.87945 2.99907 7.93226 2.93306 7.98506C2.66905 8.20066 2.45345 8.48227 2.31704 8.79028C2.03984 9.4107 2.08384 10.1587 2.43145 10.7439C4.29711 13.0144 6.16717 15.2893 8.03723 17.5598L10.5937 20.7235L11.8654 22.3075L12.0238 22.5055C12.081 22.5759 12.1162 22.6287 12.213 22.7299C12.3758 22.9147 12.5782 23.0687 12.7982 23.1919C13.2426 23.4384 13.7662 23.5132 14.259 23.4384C14.9938 23.3239 15.6759 22.8003 15.9663 22.1051C16.0543 21.9071 16.0719 21.8323 16.1203 21.7047L16.2479 21.3483L16.5075 20.6399L17.5371 17.8106C17.5723 17.7182 17.6559 17.6522 17.7527 17.639C17.7747 17.639 17.8011 17.6346 17.8231 17.639L17.9903 17.6742L18.5448 17.7886L20.7536 18.2506L25.1758 19.179L29.5935 20.1074L31.8024 20.5695C32.1676 20.6487 32.546 20.7191 32.9024 20.8071L33.9145 21.0975C35.6393 21.6431 37.2498 22.5275 38.6534 23.654L39.6698 24.5428C39.9778 24.8684 40.3079 25.1808 40.6115 25.5108C42.8467 27.9881 44.224 31.253 44.3648 34.6103C44.3956 34.9095 44.3648 35.2087 44.3692 35.5123C44.3648 35.816 44.3736 36.102 44.3472 36.432L44.2416 38.3548L44.026 42.1962L43.5948 49.8832C43.5156 51.3353 43.432 52.7917 43.3528 54.2393L43.2032 56.413L43.1152 57.4954L43.0932 57.7682C43.0844 57.9443 43.0887 58.1291 43.124 58.3095C43.19 58.6703 43.3528 59.0135 43.5904 59.2951C43.8544 59.6119 44.1712 59.7879 44.4264 59.8803C44.686 59.9727 44.8928 59.9815 45.0204 59.9683C45.2844 59.9331 45.2404 59.8583 44.9808 59.7351C44.5452 59.4931 44.2812 59.1323 44.1448 58.6879C44.0832 58.4635 44.0568 58.2127 44.114 57.9575C44.1844 57.7111 44.2768 57.4338 44.3472 57.0862C44.5496 56.149 44.7124 55.2778 44.7256 54.1029C44.7432 52.4001 45.016 50.618 44.8928 48.9372C44.8752 48.6996 44.906 48.3564 44.9368 48.0791C45.2052 45.5843 45.3768 43.0806 45.5132 40.5725L45.7024 36.806C45.7464 36.1856 45.7288 35.5343 45.7332 34.8919C45.7332 34.5707 45.6848 34.2539 45.6628 33.9327C45.632 33.6115 45.6188 33.2903 45.5528 32.9779C45.3196 31.319 44.8532 29.6821 44.114 28.1729C43.894 27.6757 43.5948 27.2137 43.3352 26.7341C43.0316 26.2808 42.7323 25.8232 42.3979 25.3964C41.4343 24.1336 40.2375 23.0687 38.9702 22.1403C38.0242 21.4187 37.0034 20.8247 35.9473 20.5739C35.7273 20.5211 35.1465 20.3054 34.9617 20.1778C34.6097 19.9226 34.1741 19.7686 33.7164 19.6234C33.2588 19.465 32.7836 19.3814 32.3084 19.2934L24.6346 17.8106C22.7469 17.4322 20.8548 17.0229 18.9804 16.6005L18.3864 16.4641L18.0739 16.3937C17.9331 16.3673 17.7879 16.3541 17.6471 16.3673C17.0707 16.4069 16.5339 16.8073 16.3359 17.3618L15.1611 20.4023L14.8662 21.1591C14.8178 21.2779 14.765 21.4275 14.7254 21.5199C14.6902 21.5947 14.6506 21.6651 14.6022 21.7267C14.413 21.9687 14.0786 22.0919 13.7794 22.0391C13.6078 22.0083 13.4538 21.9335 13.3306 21.8191L13.2426 21.7179L13.0974 21.5331L12.8026 21.1679L11.6233 19.7114L9.26047 16.7941C8.89965 16.3453 8.56524 15.8789 8.20003 15.4301C7.52681 14.6073 6.8536 13.7184 6.15837 12.9968C5.38835 12.196 4.82512 11.5404 4.3059 10.6383C4.2311 10.5107 4.1431 10.3743 4.0375 10.2291C3.9891 10.1587 3.93629 10.0883 3.8835 10.0179C3.86589 9.98712 3.8483 9.95632 3.8351 9.92551C3.7823 9.80671 3.75149 9.66151 3.78669 9.52511C3.80429 9.4415 3.8395 9.3623 3.8879 9.2919C3.9143 9.2567 3.94509 9.2259 3.97589 9.1951C3.99789 9.1819 4.0111 9.16869 4.0331 9.14669L4.1871 9.05429C4.59192 8.80788 4.99234 8.56148 5.38835 8.31507C6.34318 7.72545 7.23201 7.16223 8.35844 6.71781C8.96566 6.48021 9.74009 6.02699 10.3649 5.63978C11.7466 4.79495 13.1678 3.99413 14.6066 3.2197C15.3283 2.83249 16.0499 2.45407 16.7803 2.08006L17.8715 1.52125C18.0256 1.45085 18.1091 1.41564 18.2368 1.40684C18.3556 1.39364 18.4744 1.40685 18.5844 1.44645C18.8924 1.54325 19.1344 1.82486 19.1784 2.12407C19.1872 2.19887 19.1916 2.27807 19.1828 2.35727C19.1828 2.38367 19.1696 2.47168 19.1608 2.53768L19.1344 2.74449L19.0244 3.57172L18.58 6.87182L18.5668 6.97302C18.558 7.02142 18.5536 7.08743 18.5492 7.14463C18.5404 7.26343 18.5448 7.38224 18.5624 7.50104C18.5932 7.73865 18.6724 7.96745 18.7912 8.17426C19.0288 8.58787 19.4336 8.90468 19.9 9.03229C20.01 9.06309 20.1464 9.08509 20.2476 9.09829L20.4544 9.12469L20.868 9.17749L21.6953 9.2831L25.0042 9.69671C26.7334 9.90792 28.4759 10.0971 30.2139 10.2863L32.238 10.5063L34.1917 10.7527C34.5217 10.7791 34.8341 10.8627 35.1553 10.9332L36.1101 11.1444C36.7525 11.2588 37.3686 11.4832 37.989 11.6768C40.4663 12.482 42.8159 13.6744 44.9324 15.2145C45.7244 15.8657 46.5825 16.4729 47.2469 17.2386C48.0829 18.0614 48.7869 18.9898 49.535 19.8742L50.547 21.2911C50.7274 21.5199 50.877 21.7707 51.0222 22.0215L51.4754 22.7695C52.9099 25.1896 53.7679 27.9089 54.1287 30.6634C54.1639 30.9846 54.1991 31.3102 54.2343 31.6314L54.2915 32.111C54.3003 32.2738 54.3091 32.4322 54.3179 32.5906L54.4235 34.2627C54.4499 34.8259 54.4367 35.4199 54.4411 35.9964L54.4147 39.4857C54.3883 41.8089 54.3531 44.1322 54.3707 46.4555C54.4015 50.2176 54.5071 53.9709 54.5951 57.7199L54.5995 57.8651C54.5995 57.8827 54.5995 57.9047 54.5907 57.9267C54.5819 57.9663 54.5555 58.0015 54.5291 58.0323C54.4983 58.0587 54.4631 58.0851 54.4191 58.0983C54.4103 58.1027 54.3971 58.1027 54.3839 58.1071C54.3751 58.1071 54.3663 58.1115 54.3091 58.1115L54.0363 58.1203L51.867 58.1819L47.5285 58.3095C47.3393 58.3139 47.1413 58.2963 46.9521 58.3051C45.302 58.3623 44.7828 58.6219 45.5616 59.0179C46.2525 59.3699 47.3437 59.5723 48.8309 59.5679L53.7591 59.5107L53.7635 59.5723Z" fill="#69B9CB"/>
<path d="M40.9682 63.3605C40.9462 63.2505 40.9462 63.1581 40.9022 63.0261C40.8582 62.9073 40.8142 62.7885 40.9462 62.8237C40.9814 62.8325 40.9726 62.8016 40.9814 62.7884C41.0034 62.7664 41.021 62.7444 41.0518 62.7312C41.065 62.7224 41.131 62.762 41.1178 62.7356C41.0694 62.608 41.0826 62.5376 41.2278 62.5816C41.1354 62.432 41.2586 62.4804 41.329 62.476C41.3994 62.476 41.4082 62.4144 41.5358 62.4628C41.571 62.476 41.5886 62.4716 41.5798 62.4496C41.527 62.2956 41.6194 62.2736 41.6986 62.2384C41.7866 62.2032 41.8086 62.1064 41.747 61.9392C41.7162 61.8512 41.7514 61.816 41.7822 61.7852C41.8218 61.7456 41.8922 61.7368 41.9406 61.706C42.0066 61.6576 42.099 61.6312 42.2398 61.6532C42.429 61.6796 42.5918 61.684 42.7327 61.6664C42.8031 61.6576 42.7987 61.5784 42.8163 61.5212C42.8515 61.4024 42.8603 61.266 42.9087 61.1604C42.9439 61.0812 43.0143 61.0328 43.0847 60.9844C43.1551 60.9404 43.2563 60.9316 43.3311 60.892C43.5467 60.7775 43.7535 60.6587 43.9691 60.5443C44.0219 60.5179 44.0923 60.5047 44.1451 60.4827C44.1715 60.4695 44.1935 60.4519 44.2067 60.4255C44.2595 60.3375 44.3035 60.2363 44.3651 60.1571C44.4531 60.0383 44.5587 59.9371 44.6423 59.8183C44.6907 59.7523 44.726 59.6687 44.8668 59.6863C44.9064 59.6907 44.8404 59.6203 44.6732 59.4839C44.3915 59.2507 44.0967 59.0043 43.9075 58.8899C43.7799 58.8107 43.6787 58.7534 43.6963 58.815C43.7227 58.9031 43.5599 58.8283 43.6963 59.0131C43.7139 59.0395 43.7007 59.0395 43.6875 59.0351C43.4059 58.9735 43.4103 59.1715 43.3355 59.2947C43.3135 59.3343 43.2519 59.3431 43.2123 59.3695C43.1859 59.3871 43.1639 59.4091 43.1507 59.4355C43.1243 59.4751 43.1243 59.5279 43.0803 59.5499C43.0495 59.5675 42.9747 59.5411 43.1155 59.7083C43.1463 59.7435 43.1243 59.7479 43.0803 59.7171C42.9131 59.6027 42.9131 59.6379 42.8999 59.6599C42.8603 59.7259 42.8383 59.8051 42.7855 59.8579C42.7459 59.8975 42.6886 59.9151 42.6138 59.9239C42.4994 59.9371 42.3586 59.9239 42.253 59.9415C42.165 59.9547 42.1078 60.0031 42.033 60.0295C42.0154 60.0339 41.9714 60.0207 41.9582 60.0295C41.9318 60.0471 41.8746 60.0383 41.9054 60.1043C41.9406 60.1791 41.9362 60.2099 41.7866 60.1131C41.703 60.0603 41.6898 60.0867 41.6898 60.1131C41.6898 60.1483 41.7206 60.2143 41.7558 60.2803C41.7954 60.3595 41.8394 60.4387 41.7162 60.3727C41.6502 60.3375 41.6634 60.3859 41.6898 60.4343C41.7866 60.6455 41.7118 60.7027 41.6062 60.7336C41.461 60.7732 41.2938 60.7908 41.1442 60.826C41.087 60.8392 41.0474 60.8743 41.0034 60.9007C40.867 60.9888 40.8054 61.1384 40.7481 61.2924C40.7349 61.3232 40.7306 61.3584 40.6821 61.354C40.5677 61.3452 40.5413 61.4112 40.5413 61.5036C40.5413 61.6136 40.4313 61.6268 40.3169 61.6356C40.2905 61.6356 40.2465 61.6224 40.2421 61.6488C40.2289 61.816 40.0089 61.794 39.9473 61.9172C39.8989 62.0184 39.9077 62.168 39.8989 62.3044C39.8945 62.41 39.9077 62.5332 39.9165 62.652C39.9165 62.6608 39.8989 62.652 39.9033 62.6608C39.9165 62.7356 40.0969 62.9205 40.4093 63.1669C40.6866 63.3869 40.8581 63.5013 40.8802 63.4661C40.9066 63.4265 40.9154 63.3693 40.9286 63.3209C40.9418 63.3341 40.955 63.3473 40.9682 63.3605Z" fill="#69B9CB"/>
<path d="M12.494 21.9515C12.5204 22.0131 12.8372 22.6424 13.5721 22.77C14.3069 22.8976 14.8129 22.4136 14.8613 22.3652C14.2189 23.9668 13.5765 25.5685 12.9384 27.1702C12.6172 27.9842 11.5304 28.1383 10.9979 27.443L1.12823 14.4932C0.890616 14.1852 0.82902 13.7715 0.969827 13.4107L2.15788 10.0093C2.21068 9.85974 2.4087 9.82453 2.5099 9.94774L12.494 21.9515Z" fill="#417A87"/>
<path d="M13.5846 23.3414C13.6286 23.3194 13.6727 23.2974 13.7167 23.271C13.7915 23.227 13.8663 23.1786 13.9411 23.1214L13.9983 23.073L14.0247 23.051V23.0642L14.0291 23.1258L14.0467 23.4426C14.0643 23.7022 14.0159 24.1291 13.6947 24.5955C13.6154 24.7099 13.5891 24.8507 13.5363 24.9827C13.4394 25.2159 13.347 25.4535 13.2414 25.6867C13.193 25.7923 13.0786 25.8759 13.061 25.9859C13.0214 26.2544 12.9598 26.514 12.8674 26.7604C12.8234 26.8792 12.7662 27.0112 12.709 27.1124C12.6562 27.2048 12.577 27.2796 12.489 27.3236C12.4494 27.4908 12.291 27.6008 12.1282 27.6272C11.961 27.6536 11.7982 27.6052 11.6618 27.5392C11.5253 27.4732 11.4065 27.3896 11.3185 27.2708C11.2833 27.2268 11.2129 27.1124 11.1689 27.0288C11.1205 26.9364 11.0721 26.8396 11.0369 26.7384C10.9973 26.6328 10.9313 26.5228 10.8477 26.4524C10.3285 26.008 9.96767 25.4447 9.58485 24.8859C9.18003 24.2875 8.70481 23.7418 8.14598 23.2666C7.84677 23.0158 7.60915 22.6946 7.37154 22.3822C7.08992 22.0126 6.84791 21.6121 6.5751 21.2337C6.17908 20.6837 5.80947 20.1205 5.49705 19.5132C5.07903 18.7036 4.6302 17.9071 4.15498 17.1327C3.91296 16.7367 3.58736 16.3979 3.28374 16.0458L2.36408 14.9942L1.90647 14.4662C1.76566 14.2946 1.56765 14.0789 1.54565 14.0305C1.50605 13.9601 1.48404 13.8765 1.48404 13.7973C1.48844 13.7005 1.49725 13.6829 1.57205 13.4761L1.94607 12.4905C2.04288 12.2397 2.14848 11.9888 2.25848 11.738C2.32009 11.6148 2.36409 11.5576 2.40809 11.4828L2.4565 11.3992L2.5005 11.3156C2.5093 11.2892 2.5401 11.2628 2.5797 11.276C2.64571 11.32 2.67651 11.408 2.71611 11.4652L2.81731 11.6368L2.83932 11.6764L2.84811 11.694L2.90091 11.7644L3.12092 12.0549L4.88542 14.365C5.16703 14.7346 5.43104 15.1218 5.70825 15.4958C5.84466 15.6806 5.99427 15.861 6.14828 16.037C6.71591 16.6883 7.29233 17.3263 7.85116 17.9863L10.2317 20.8245C10.6849 21.3569 11.1557 21.8761 11.5077 22.4878C11.6089 22.6594 11.7234 22.6462 11.8378 22.4526C12.0402 22.1226 12.269 21.8013 12.2206 21.4009C12.1898 21.1325 12.1414 20.8949 11.917 20.7145C11.5958 20.4505 11.4506 20.0104 11.0237 19.8432C10.9621 19.8212 10.9181 19.7508 10.8873 19.6892C10.3109 18.6024 9.43084 17.7575 8.6344 16.8467C8.37479 16.5475 8.15038 16.2175 7.90836 15.905C7.74996 15.7026 7.58716 15.5046 7.41995 15.311C7.17793 15.0294 6.90952 14.7654 6.6851 14.4662C6.5179 14.2418 6.39469 13.9865 6.06467 13.9337C5.99427 13.9205 5.91066 13.8017 5.91506 13.7269C5.94147 13.4453 5.77866 13.2825 5.62465 13.1065C5.21103 12.6357 4.78421 12.1737 4.38819 11.6896C4.24298 11.5092 4.09777 11.3288 3.96137 11.1396L3.45975 10.4444C3.31014 10.242 3.16053 9.99995 2.99333 9.81074C2.82612 9.62593 2.65891 9.49392 2.5137 9.38831C2.4433 9.33551 2.36409 9.28711 2.23649 9.28711C2.11768 9.28711 2.00328 9.33111 1.95048 9.37511C1.83167 9.46752 1.68646 9.57313 1.54565 9.75794C1.48845 9.83274 1.43125 9.92954 1.38284 10.0396L0.912016 11.2408L0.612804 11.9712C0.560001 12.0989 0.472 12.2133 0.423598 12.3453C0.331194 12.5829 0.194783 12.8205 0.185983 13.0669C0.185983 13.1241 0.159583 13.2385 0.146382 13.3397C0.133182 13.4409 0.119978 13.5421 0.102377 13.6389C0.0715752 13.8281 0.0451736 14.0173 0.00557137 14.2638C-0.0164289 14.3958 0.014369 14.5674 0.0847721 14.7302C0.119974 14.8138 0.163984 14.893 0.216787 14.9678C0.26519 15.0426 0.331192 15.1174 0.353193 15.1394C0.5116 15.3066 0.700811 15.4474 0.89002 15.5838C1.11883 15.751 1.33884 15.8962 1.40924 16.2087C1.44444 16.3759 1.61166 16.5211 1.75686 16.6311C2.3993 17.1195 2.86132 17.7575 3.29254 18.422L5.01303 21.1413C5.24184 21.4933 5.48824 21.8321 5.73465 22.1754C6.49149 23.2402 7.32754 24.2479 8.16358 25.2467C8.32639 25.4447 8.50239 25.6383 8.6212 25.8627C8.90281 26.382 9.27244 26.8308 9.67726 27.2576C9.80047 27.3852 9.91047 27.5172 10.0205 27.658L10.1789 27.8692L10.2537 27.9748C10.2801 28.0144 10.3461 28.0893 10.3901 28.1421C10.7949 28.6173 11.4594 28.9165 12.1106 28.8725C12.4142 28.8593 12.7354 28.7933 12.995 28.6217C13.2238 28.4721 13.4174 28.2785 13.5803 28.0628C13.6507 27.9528 13.7343 27.8384 13.7827 27.7196L13.8619 27.5436L13.9015 27.4468C14.0071 27.1872 14.1215 26.932 14.2403 26.6768C14.4735 26.1664 14.7155 25.6647 14.9047 25.1367L15.71 22.8222C15.5516 22.7166 15.4019 22.6066 15.2655 22.4922C15.1995 22.435 15.1335 22.3778 15.0719 22.3206C15.0455 22.2986 15.0015 22.2502 14.9883 22.2458C14.9839 22.2546 14.9751 22.2634 14.9663 22.2678C14.9399 22.281 14.8959 22.2898 14.8343 22.2898C14.6847 22.2898 14.3679 22.193 13.8971 21.9817L13.6859 22.0434L13.6331 22.0566H13.6155L13.5803 22.0522C13.5231 22.0478 13.501 22.0434 13.4614 22.0302C13.3866 22.0126 13.3118 21.9817 13.237 21.9333C13.215 21.9157 13.2062 21.8849 13.1798 21.8673C13.0742 21.7969 12.9686 21.7617 12.841 21.7881C12.7222 21.8189 12.5594 21.8717 12.4406 22.0609C12.2206 22.3822 12.2778 22.8442 12.731 23.117C12.841 23.183 12.9554 23.2358 13.0786 23.2754L13.2414 23.3238L13.2986 23.3282C13.3998 23.3326 13.5099 23.315 13.6199 23.2754L13.5846 23.3414Z" fill="#69B9CB"/>
<path d="M10.6892 20.7055C10.7728 20.7935 10.83 20.8815 10.9488 20.9739C11.0544 21.0531 11.1644 21.1323 11.0412 21.2027C11.0104 21.2203 11.0368 21.2423 11.0324 21.2643C11.028 21.3039 11.028 21.3391 11.0148 21.3743C11.0104 21.3919 10.9356 21.4051 10.9576 21.4227C11.0764 21.5063 11.1073 21.5855 10.9664 21.6559C11.1337 21.7263 11.006 21.7791 10.9532 21.8363C10.9004 21.8935 10.9312 21.9595 10.7992 22.0123C10.764 22.0255 10.7508 22.0431 10.7728 22.0607C10.9092 22.1663 10.852 22.2631 10.8124 22.3599C10.7684 22.4656 10.808 22.5756 10.9576 22.6856C11.0368 22.7472 11.0324 22.8044 11.028 22.8616C11.0236 22.932 10.9708 22.998 10.9532 23.064C10.9268 23.1652 10.8784 23.262 10.7508 23.3544C10.5836 23.4776 10.4516 23.6052 10.3592 23.7372C10.3108 23.8032 10.3592 23.8736 10.3812 23.944C10.4252 24.0848 10.5044 24.2256 10.5308 24.3664C10.5528 24.4721 10.5308 24.5733 10.5 24.6745C10.4736 24.7713 10.3988 24.8637 10.3636 24.9561C10.2624 25.2377 10.1788 25.5193 10.082 25.8009C10.06 25.8669 10.0116 25.9373 9.9808 26.0033C9.9676 26.0385 9.96319 26.0693 9.96759 26.1045C9.98079 26.2321 10.0072 26.3641 10.0116 26.4918C10.016 26.6766 9.9984 26.857 10.0028 27.0418C10.0072 27.1474 10.0292 27.2486 9.90599 27.3498C9.87079 27.3762 9.9676 27.3894 10.1832 27.3894C10.5484 27.3894 10.9312 27.3938 11.1512 27.3542C11.3009 27.3278 11.4153 27.3014 11.3625 27.2574C11.2877 27.1914 11.4593 27.1386 11.2437 27.0682C11.2129 27.0594 11.2217 27.0462 11.2393 27.0374C11.4989 26.8702 11.3713 26.6854 11.3537 26.505C11.3449 26.4478 11.3889 26.3905 11.4021 26.3333C11.4109 26.2937 11.4153 26.2585 11.4109 26.2189C11.4065 26.1617 11.3713 26.1045 11.3933 26.0517C11.4065 26.0121 11.4813 25.9725 11.2657 25.9241C11.2217 25.9153 11.2349 25.8933 11.2833 25.8889C11.4857 25.8713 11.4637 25.8317 11.4593 25.8009C11.4505 25.7085 11.4197 25.6117 11.4241 25.5193C11.4285 25.4489 11.4637 25.3829 11.5165 25.3169C11.5957 25.2157 11.7189 25.1145 11.7893 25.0133C11.8509 24.9253 11.8685 24.8373 11.9081 24.7537C11.9169 24.7317 11.9609 24.7141 11.9653 24.6965C11.9785 24.6613 12.0269 24.6217 11.9565 24.5821C11.8817 24.5381 11.8641 24.5073 12.0445 24.4808C12.1457 24.4632 12.1369 24.4324 12.1193 24.406C12.0973 24.3708 12.0313 24.3356 11.9653 24.296C11.8861 24.252 11.8025 24.2124 11.9389 24.1728C12.0137 24.1552 11.9697 24.12 11.9213 24.0892C11.7145 23.9616 11.7365 23.8472 11.8025 23.7328C11.8905 23.5788 12.0137 23.4248 12.1061 23.2708C12.1413 23.2092 12.1501 23.1476 12.1677 23.086C12.2205 22.8968 12.1765 22.6988 12.1237 22.5052C12.1149 22.4656 12.0973 22.4259 12.1369 22.3907C12.2337 22.3071 12.2117 22.2235 12.1545 22.1311C12.0841 22.0255 12.1633 21.9243 12.2469 21.8231C12.2645 21.8011 12.3085 21.7791 12.2953 21.7527C12.1985 21.5811 12.3877 21.4271 12.3569 21.2599C12.3305 21.1235 12.2337 20.9871 12.1501 20.8463C12.0885 20.7407 12.0005 20.6307 11.9213 20.5251C11.9169 20.5163 11.9345 20.5119 11.9257 20.5031C11.8729 20.4414 11.6133 20.4106 11.2129 20.4194C10.8608 20.4282 10.654 20.4546 10.6584 20.5075C10.6628 20.5647 10.6892 20.6263 10.7112 20.6879C10.7244 20.7055 10.7068 20.7055 10.6892 20.7055Z" fill="#69B9CB"/>
<path d="M8.29568 17.9041C8.37928 17.9877 8.43648 18.0713 8.55529 18.1549C8.66089 18.2297 8.7709 18.3045 8.64769 18.3661C8.61689 18.3837 8.64329 18.4057 8.63889 18.4233C8.63449 18.4585 8.63449 18.4937 8.62129 18.5245C8.61689 18.5421 8.5421 18.5509 8.5641 18.5685C8.6829 18.6477 8.7137 18.7181 8.57289 18.7841C8.7401 18.8501 8.6125 18.8985 8.55969 18.9513C8.50689 19.0041 8.53769 19.0657 8.40568 19.1141C8.37048 19.1273 8.35728 19.1449 8.37928 19.1581C8.51569 19.2549 8.45848 19.3429 8.41888 19.4353C8.37488 19.5321 8.41449 19.6334 8.5641 19.739C8.6433 19.7962 8.63889 19.849 8.63449 19.9018C8.63009 19.9634 8.57729 20.025 8.55969 20.091C8.53329 20.1834 8.48489 20.2714 8.35729 20.355C8.19008 20.4694 8.06246 20.5838 7.96566 20.7026C7.91726 20.7642 7.96565 20.8302 7.98766 20.8962C8.03166 21.0238 8.11087 21.1558 8.13728 21.2834C8.15928 21.3802 8.13727 21.4726 8.10647 21.5695C8.08007 21.6575 8.00527 21.7411 7.97006 21.8291C7.86886 22.0887 7.78525 22.3483 7.68844 22.6079C7.66644 22.6695 7.61805 22.7311 7.58725 22.7927C7.57405 22.8235 7.56965 22.8543 7.57405 22.8895C7.58725 23.0083 7.61364 23.1271 7.61804 23.2459C7.62244 23.4131 7.60484 23.5847 7.60924 23.752C7.61364 23.8488 7.63564 23.9456 7.51244 24.0336C7.47724 24.06 7.57404 24.0732 7.78965 24.0732C8.15487 24.0732 8.53768 24.082 8.75769 24.0468C8.9073 24.0248 9.02171 24.0028 8.96891 23.9588C8.89411 23.8972 9.06572 23.8488 8.85011 23.7828C8.81931 23.774 8.8281 23.7608 8.8457 23.7564C9.10532 23.6068 8.97772 23.4351 8.96011 23.2679C8.95131 23.2151 8.99531 23.1623 9.00851 23.1095C9.01731 23.0743 9.02172 23.0391 9.01732 23.0039C9.01292 22.9511 8.97771 22.8983 8.99971 22.8499C9.01292 22.8103 9.08772 22.7795 8.8721 22.7311C8.8281 22.7223 8.84131 22.7003 8.88971 22.6959C9.09212 22.6783 9.07012 22.6475 9.06572 22.6167C9.05251 22.5287 9.02612 22.4451 9.03052 22.3571C9.03492 22.2955 9.07012 22.2339 9.12292 22.1723C9.20212 22.0799 9.32533 21.9875 9.39573 21.8907C9.45733 21.8115 9.47493 21.7323 9.51453 21.6487C9.52333 21.6311 9.56734 21.6135 9.57174 21.5959C9.58494 21.5606 9.63335 21.5254 9.56294 21.4902C9.48814 21.4506 9.47054 21.4198 9.65095 21.3978C9.75216 21.3846 9.74335 21.3538 9.72575 21.3274C9.70375 21.2966 9.63774 21.2614 9.57174 21.2262C9.49253 21.1866 9.40893 21.147 9.54534 21.1118C9.62014 21.0942 9.57614 21.0634 9.52773 21.037C9.32092 20.9182 9.34293 20.8126 9.40893 20.707C9.49694 20.5662 9.62014 20.4254 9.71255 20.2846C9.74775 20.2274 9.75656 20.1702 9.77416 20.1174C9.82696 19.9414 9.78296 19.761 9.73015 19.5805C9.72135 19.5453 9.70375 19.5101 9.74335 19.4749C9.83576 19.4001 9.81816 19.3209 9.76096 19.2373C9.69055 19.1361 9.76975 19.0481 9.85336 18.9557C9.87096 18.9337 9.91496 18.9161 9.90175 18.8897C9.80495 18.7313 9.99417 18.5905 9.96336 18.4321C9.93696 18.3089 9.84016 18.1769 9.75655 18.0493C9.69495 17.9525 9.60694 17.8513 9.52773 17.7501C9.52333 17.7457 9.54094 17.7369 9.53214 17.7325C9.47933 17.6753 9.21972 17.6445 8.8193 17.6489C8.46729 17.6533 8.26047 17.6797 8.26487 17.7281C8.26927 17.7809 8.29567 17.8381 8.31767 17.8909C8.33527 17.9041 8.31328 17.9041 8.29568 17.9041Z" fill="#69B9CB"/>
<path d="M5.99392 15.5008C6.07752 15.58 6.13474 15.6592 6.25354 15.7384C6.35915 15.8088 6.46915 15.8792 6.34594 15.9408C6.31514 15.9584 6.34154 15.976 6.33714 15.9936C6.33274 16.0244 6.33274 16.0596 6.31954 16.0904C6.31514 16.1036 6.24034 16.1168 6.26234 16.13C6.38115 16.2048 6.41194 16.2752 6.27113 16.3368C6.43834 16.3984 6.31074 16.4468 6.25793 16.4952C6.20513 16.5436 6.23593 16.6008 6.10392 16.6492C6.06872 16.6624 6.05552 16.6756 6.07752 16.6932C6.21393 16.7856 6.15673 16.8692 6.11712 16.9528C6.07312 17.0452 6.11273 17.1377 6.26234 17.2389C6.34154 17.2917 6.33714 17.3445 6.33274 17.3929C6.32834 17.4545 6.27554 17.5117 6.25793 17.5689C6.23153 17.6569 6.18313 17.7405 6.05553 17.8197C5.88832 17.9253 5.76071 18.0353 5.6639 18.1453C5.6155 18.2025 5.66391 18.2641 5.68591 18.3257C5.72991 18.4489 5.80912 18.5721 5.83552 18.6953C5.85752 18.7877 5.83551 18.8757 5.80471 18.9637C5.77831 19.0473 5.70351 19.1265 5.66831 19.2102C5.5671 19.4566 5.4835 19.6986 5.3867 19.945C5.3647 20.0022 5.31629 20.0594 5.28549 20.121C5.27229 20.1518 5.26789 20.1782 5.27229 20.209C5.28549 20.319 5.31189 20.4334 5.31629 20.5434C5.32069 20.7018 5.30308 20.8602 5.30749 21.023C5.31189 21.1154 5.33389 21.2035 5.21068 21.2871C5.17548 21.3091 5.27228 21.3223 5.4879 21.3267C5.85311 21.3311 6.23594 21.3399 6.45595 21.3091C6.60556 21.2871 6.71995 21.2651 6.66715 21.2299C6.59235 21.1726 6.76396 21.1287 6.54835 21.0626C6.51755 21.0538 6.52635 21.045 6.54395 21.0362C6.80356 20.8954 6.67596 20.7326 6.65836 20.5742C6.64956 20.5214 6.69357 20.473 6.70677 20.4246C6.71557 20.3938 6.71996 20.3586 6.71556 20.3278C6.71116 20.2794 6.67596 20.231 6.69796 20.1826C6.71116 20.1474 6.78597 20.1166 6.57036 20.0726C6.52636 20.0638 6.53955 20.0462 6.58795 20.0418C6.79036 20.0286 6.76836 19.9978 6.76396 19.967C6.75516 19.8834 6.72436 19.8042 6.72876 19.7206C6.73316 19.659 6.76836 19.6018 6.82116 19.5446C6.90037 19.4566 7.02357 19.3686 7.09397 19.2806C7.15558 19.2058 7.17319 19.1309 7.21279 19.0561C7.22159 19.0385 7.26559 19.0253 7.26999 19.0077C7.28319 18.9769 7.33159 18.9417 7.26118 18.9065C7.18638 18.8669 7.16879 18.8405 7.34919 18.8185C7.4504 18.8053 7.44159 18.7789 7.42399 18.7525C7.40199 18.7217 7.336 18.6865 7.26999 18.6557C7.19079 18.6161 7.10719 18.5809 7.24359 18.5501C7.3184 18.5325 7.27439 18.5017 7.22599 18.4797C7.01918 18.3697 7.04117 18.2685 7.10717 18.1673C7.19518 18.0353 7.31839 17.9033 7.41079 17.7713C7.44599 17.7185 7.4548 17.6657 7.4724 17.6129C7.5252 17.4457 7.4812 17.2741 7.42839 17.1068C7.41959 17.0716 7.40199 17.0364 7.4416 17.01C7.534 16.9396 7.5164 16.8648 7.4592 16.7856C7.3888 16.6932 7.468 16.6052 7.5516 16.5216C7.5692 16.4996 7.61321 16.482 7.60001 16.46C7.50321 16.3104 7.69241 16.174 7.66161 16.0288C7.6352 15.91 7.5384 15.7868 7.4548 15.668C7.39319 15.5756 7.30079 15.4788 7.22599 15.3864C7.22159 15.382 7.23919 15.3732 7.23039 15.3688C7.17759 15.316 6.91797 15.2852 6.51755 15.2852C6.16553 15.2852 5.95873 15.3116 5.96313 15.3556C5.96753 15.4084 5.99393 15.4612 6.01593 15.5096C6.02913 15.5008 6.01152 15.5008 5.99392 15.5008Z" fill="#69B9CB"/>
<path d="M3.45583 11.9807C3.53944 12.0555 3.59664 12.1347 3.71544 12.2096C3.82105 12.28 3.93105 12.346 3.80785 12.4032C3.77704 12.4164 3.80345 12.4384 3.79905 12.456C3.79465 12.4868 3.79465 12.5176 3.78145 12.5484C3.77704 12.5616 3.70225 12.5748 3.72425 12.588C3.84306 12.6628 3.87386 12.7288 3.73305 12.786C3.90026 12.8476 3.77265 12.8916 3.71985 12.94C3.66705 12.9884 3.69785 13.0412 3.56584 13.0852C3.53064 13.0984 3.51744 13.1116 3.53944 13.1248C3.67585 13.2172 3.61864 13.2964 3.57904 13.3756C3.53504 13.4636 3.57465 13.556 3.72425 13.6528C3.80346 13.7056 3.79905 13.754 3.79465 13.8024C3.79024 13.8596 3.73745 13.9168 3.71985 13.974C3.69345 14.0577 3.64505 14.1368 3.51744 14.2161C3.35023 14.3173 3.22262 14.4229 3.12582 14.5329C3.07741 14.5857 3.12581 14.6473 3.14781 14.7089C3.19181 14.8277 3.27103 14.9465 3.29743 15.0653C3.31943 15.1533 3.29743 15.2413 3.26663 15.3249C3.24023 15.4041 3.16542 15.4833 3.13022 15.5625C3.02902 15.8001 2.94541 16.0333 2.8486 16.271C2.8266 16.3282 2.77821 16.381 2.7474 16.4382C2.7342 16.4646 2.7298 16.4954 2.7342 16.5262C2.7474 16.6362 2.77379 16.7418 2.7782 16.8518C2.7826 17.0058 2.765 17.1598 2.7694 17.3138C2.7738 17.4018 2.7958 17.4898 2.67259 17.569C2.63739 17.591 2.7342 17.6042 2.94981 17.6086C3.31503 17.613 3.69784 17.6218 3.91785 17.5954C4.06746 17.5778 4.18187 17.5558 4.12907 17.5162C4.05426 17.459 4.22588 17.415 4.01027 17.3534C3.97946 17.3446 3.98826 17.3358 4.00586 17.327C4.26547 17.1906 4.13787 17.0322 4.12027 16.8826C4.11147 16.8342 4.15547 16.7858 4.16867 16.7374C4.17747 16.7066 4.18188 16.6758 4.17748 16.6406C4.17308 16.5922 4.13787 16.5438 4.15987 16.4998C4.17307 16.4646 4.24787 16.4338 4.03226 16.3898C3.98826 16.381 4.00146 16.3634 4.04987 16.359C4.25228 16.3458 4.23027 16.315 4.22587 16.2886C4.21707 16.2094 4.18628 16.1301 4.19068 16.0509C4.19508 15.9937 4.23027 15.9365 4.28308 15.8837C4.36228 15.8001 4.48548 15.7165 4.55589 15.6329C4.61749 15.5625 4.63509 15.4877 4.67469 15.4129C4.68349 15.3953 4.72749 15.3821 4.73189 15.3645C4.74509 15.3337 4.7935 15.3029 4.7231 15.2677C4.64829 15.2281 4.6307 15.2017 4.81111 15.1841C4.91231 15.1709 4.90351 15.1445 4.8859 15.1225C4.8639 15.0917 4.7979 15.0609 4.73189 15.0301C4.65269 14.9905 4.56909 14.9553 4.70549 14.9289C4.7803 14.9157 4.73629 14.8849 4.68789 14.8585C4.48108 14.7485 4.50308 14.6517 4.56909 14.5593C4.65709 14.4317 4.7803 14.3041 4.8727 14.1765C4.90791 14.1281 4.91671 14.0753 4.93431 14.0224C4.98712 13.864 4.94311 13.6968 4.89031 13.5296C4.88151 13.4988 4.86391 13.4636 4.90351 13.4328C4.99591 13.3668 4.97832 13.292 4.92111 13.2172C4.85071 13.1248 4.92991 13.0412 5.01351 12.962C5.03112 12.9444 5.07511 12.9268 5.06191 12.9048C4.96511 12.7596 5.15432 12.632 5.12352 12.4912C5.09712 12.3768 5.00031 12.258 4.91671 12.1436C4.85511 12.0511 4.76709 11.9631 4.68789 11.8707C4.68349 11.8663 4.70109 11.8619 4.69229 11.8531C4.63949 11.8003 4.37988 11.7695 3.97946 11.7695C3.62744 11.7695 3.42063 11.7915 3.42503 11.8355C3.42943 11.8839 3.45583 11.9367 3.47783 11.9851C3.49103 11.9807 3.47343 11.9807 3.45583 11.9807Z" fill="#69B9CB"/>
</svg>
