<svg width="29" height="22" viewBox="0 0 29 22" fill="none" xmlns="http://www.w3.org/2000/svg">
<path d="M8.59185 0C5.74137 0 3.42236 2.45879 3.42236 5.48103C3.42236 8.50327 5.74137 10.9621 8.59185 10.9621C11.4423 10.9621 13.7614 8.50327 13.7614 5.48103C13.7614 2.45879 11.4424 0 8.59185 0Z" fill="#36A18B"/>
<path d="M20.3478 0.782227C20.3361 0.782227 20.3242 0.782282 20.3126 0.782337C19.1163 0.792239 17.9989 1.29733 17.1663 2.20467C16.3483 3.09598 15.9035 4.27183 15.9137 5.51555C15.924 6.75927 16.3882 7.9276 17.2208 8.80535C18.0599 9.68991 19.1715 10.1757 20.3545 10.1757C20.3663 10.1757 20.3782 10.1756 20.3902 10.1756C21.5864 10.1657 22.7038 9.66054 23.5364 8.75325C24.3545 7.86194 24.7992 6.68609 24.789 5.44231C24.7677 2.86492 22.7788 0.782227 20.3478 0.782227Z" fill="#36A18B"/>
<path d="M20.5627 11.0732H20.1334C18.1343 11.0732 16.31 11.8333 14.9326 13.079C15.2772 13.3434 15.6053 13.6316 15.9161 13.9425C16.8333 14.8596 17.5535 15.9283 18.0569 17.1187C18.5104 18.1907 18.7693 19.3203 18.8296 20.4836H28.3213V18.8313C28.3213 14.5537 24.8408 11.0732 20.5627 11.0732Z" fill="#36A18B"/>
<path d="M17.1673 20.4861C17.0107 17.9643 15.7324 15.7461 13.8245 14.3245C12.4367 13.2901 10.7152 12.6777 8.85054 12.6777H8.33389C3.73106 12.6778 0 16.4088 0 21.0116V22.0007H17.1839V21.0116C17.1839 20.8352 17.1783 20.6598 17.1673 20.4861Z" fill="#36A18B"/>
</svg>
