<svg width="45" height="55" viewBox="0 0 45 55" fill="none" xmlns="http://www.w3.org/2000/svg">
<path d="M38.9076 16.2364C38.4376 15.4764 37.7176 14.3164 37.0076 13.1664L35.8976 11.3464C35.6176 10.9064 35.3375 10.4864 35.2375 10.0364C35.1475 9.6264 34.8675 9.28641 34.5375 8.98641C34.3275 8.78641 34.0776 8.56641 33.9076 8.31641L32.8276 6.6264C32.4876 6.1164 32.1575 5.6464 31.7375 5.2164C31.1875 4.6464 30.6076 4.1664 30.0676 3.6264C29.7176 3.2664 29.2775 3.2164 28.8475 3.1664C28.3175 3.0964 28.1776 3.0264 27.9076 2.5864C27.7376 2.3264 27.5576 2.27641 27.3776 2.39641C27.1876 2.53641 27.0976 2.6464 26.6376 2.5864C25.3176 2.3664 23.9576 2.4564 22.6576 2.7864C22.2876 2.8564 21.6875 3.21641 21.7375 2.72641C21.7375 2.69641 21.6776 2.6664 21.6476 2.6764C21.0176 2.8964 20.4175 3.1864 19.8475 3.5364C19.3875 4.2164 18.3976 4.54641 17.7776 5.14641C17.6576 5.26641 17.4075 5.4264 17.2975 5.4464C16.6375 5.5364 16.0076 6.2764 15.3676 6.4364C14.9576 6.5364 14.7476 6.76641 14.5876 7.05641C14.4376 7.32641 14.2376 7.55641 13.8676 7.80641L8.77759 11.3764C7.72759 12.0964 6.65755 12.8164 5.61755 13.5264C3.84755 14.8564 2.64757 16.9264 2.19757 19.1264C1.92757 20.3964 1.82754 21.7264 1.97754 23.0464C2.06754 23.5564 2.13758 24.0364 2.39758 24.4864C2.83758 25.4264 3.43757 26.2364 4.07757 27.0464C4.72757 27.8664 5.36755 28.7064 5.98755 29.5464C7.22755 31.2464 8.42755 32.9864 9.61755 34.7264C9.97755 35.2564 10.2275 35.8764 10.5975 36.3664C10.9875 36.8764 11.3776 37.3064 11.6776 37.9064C11.8776 38.3264 12.2775 38.7464 12.6075 39.0464C13.4075 39.6664 14.1776 40.2664 15.0176 40.8064C15.8576 41.3164 16.7576 41.7664 17.7176 42.0464C18.9576 42.4064 20.2875 42.6164 21.6075 42.4464C22.9375 42.2764 24.2176 41.7564 25.3376 41.0364C25.5476 40.8964 25.7476 40.7664 25.9576 40.6264C26.1476 40.4964 26.5875 40.2264 26.9875 40.2164C27.3975 40.1764 27.7976 40.2864 28.1276 40.4964C28.4576 40.7064 28.7076 41.0264 28.8376 41.3864C28.9676 41.7864 28.9675 42.0164 29.0375 42.3064C29.2675 43.3764 29.5575 44.4164 29.7275 45.5164C29.7875 45.8964 29.8776 46.2864 29.9676 46.6564C30.3476 48.1464 30.7875 49.6364 30.6075 51.1464L30.7275 51.8064L30.7875 52.1264C30.7975 52.1564 30.8076 52.1664 30.8176 52.1764C30.8276 52.1964 30.8976 52.2064 30.9376 52.1964C30.9576 52.1864 30.9675 52.1864 30.9775 52.1664C30.9875 52.1364 30.9876 52.1764 31.0276 52.0364C31.1576 51.6064 31.2475 51.0864 31.4275 50.7664C31.9375 49.8864 32.1076 49.1064 32.0876 48.1764C32.0776 47.6664 32.2676 46.9964 32.3876 46.3864C32.4676 45.9464 32.5776 45.5264 32.8876 45.2864C32.9776 45.2164 33.1576 44.7964 33.1576 44.6464C33.1576 44.0564 33.4676 43.5664 33.5876 43.0664C33.7676 42.3264 33.9676 41.7464 34.3376 41.1864C34.4576 41.0064 34.5776 40.5764 34.5876 40.3364C34.6376 38.7664 35.0776 37.1364 35.5276 35.5064L35.8076 34.5064L35.9476 34.0064L36.0176 33.7564L36.0576 33.6264C36.0776 33.5464 36.1076 33.4764 36.1376 33.4064C36.2576 33.1164 36.4376 32.8464 36.6576 32.6264C36.7576 32.5264 36.9176 32.3964 36.9976 32.3464L37.2076 32.1964L38.0576 31.5964C38.6576 31.1864 39.1476 30.8264 39.6176 30.4264C40.0876 30.0164 40.5176 29.5664 40.9076 29.0764C41.1076 28.7964 41.3476 28.5064 41.4476 28.1964C41.8776 27.1564 42.2976 26.1064 42.5076 24.9864C42.5776 24.5464 42.5876 24.1064 42.5676 23.6664C42.9076 23.3564 42.5775 23.0464 42.5475 22.7364C42.5175 22.3064 42.5176 21.8864 42.3676 21.4164C42.1576 20.8564 42.0176 20.2264 41.7676 19.6464C41.5576 19.1664 41.4376 18.7964 41.3876 18.4964C41.3576 18.1964 41.4376 17.9564 41.6276 17.7464C41.6876 17.6764 41.7576 17.6164 41.8276 17.5664C42.0376 17.4264 42.2475 17.5264 42.6075 17.9964C43.0375 18.5664 43.4776 19.2264 43.6576 19.9064C44.0476 21.3664 44.3876 22.7964 44.3676 24.2764C44.3376 25.3664 44.1576 26.4464 43.8076 27.4964C43.4376 28.5364 42.9076 29.5264 42.2176 30.4164L41.4976 31.2364L40.7076 31.9964L39.8475 32.6764L39.0176 33.2664L38.2375 33.8364L38.0576 33.9764C38.0376 33.9964 38.0176 34.0164 37.9976 34.0364C37.9676 34.0764 37.9476 34.1264 37.9276 34.1764L37.4775 35.9764C37.1875 37.0864 36.9075 38.2464 36.5475 39.3064C35.8975 41.2064 35.3976 43.1364 34.7676 45.0264C34.6076 45.5164 34.4376 46.0164 34.3276 46.5064C33.9276 48.2564 33.4876 49.9864 32.8876 51.6964C32.8276 51.8764 32.7376 52.1164 32.7476 52.2464C32.7576 52.3664 32.7576 52.4864 32.7576 52.6064C32.7476 52.6464 32.7676 52.6364 32.7476 52.7264C32.7276 52.8164 32.6975 52.8964 32.6675 52.9864C32.5875 53.1664 32.4875 53.3364 32.3475 53.4964C31.7675 54.1564 30.8076 54.3264 30.0276 53.9564C29.6276 53.7764 29.2676 53.4164 29.0776 53.0164C28.9776 52.8264 28.9276 52.5764 28.8976 52.4464L28.8676 52.2564C28.8276 52.0064 28.7876 51.7464 28.7476 51.5064L27.3676 43.6364L27.1576 42.4364L27.1075 42.1364L27.0975 42.0664V42.0764C27.0975 42.0864 27.1075 42.0864 27.0975 42.0964C27.1075 42.1264 27.1276 42.1564 27.1476 42.1764C27.1876 42.2164 27.2276 42.2364 27.3076 42.2264C27.3276 42.2364 27.4175 42.1864 27.3475 42.2264C27.1875 42.3464 27.0176 42.4564 26.8176 42.5864C25.2776 43.6164 23.4876 44.2864 21.6376 44.5164C20.4976 44.6364 19.3276 44.6264 18.1976 44.4364C17.0676 44.2264 15.9676 43.8664 14.9676 43.3164C13.7376 42.6264 12.6076 41.8864 11.6476 40.8964C11.1976 40.4564 10.8276 39.9464 10.4576 39.4464L9.53754 38.0764L7.67755 35.3464L4.43756 30.7164L2.80755 28.4064L2.39758 27.8264L1.96759 27.1564C1.65759 26.7164 1.45758 26.2164 1.20758 25.7364C1.09758 25.4664 0.977543 25.1864 0.857543 24.9264C0.0475425 23.1364 -0.162448 21.0664 0.117552 19.0864C0.407552 17.0964 1.26754 15.2064 2.47754 13.6164C3.06754 12.8764 3.71758 12.1864 4.45758 11.5964C5.23758 10.9664 5.85759 10.5764 6.52759 10.0864L10.5276 7.2964C12.3476 6.0464 14.1976 4.8464 16.0276 3.6164L18.2875 2.1064C18.6775 1.8564 19.1575 1.56641 19.5975 1.32641C20.0675 1.11641 20.5276 0.866405 21.0276 0.716405C23.1076 -0.0535952 25.4376 -0.243596 27.5276 0.346404C27.8276 0.446404 28.1476 0.526404 28.4576 0.616404L29.3776 0.946404C30.8976 1.5364 32.2676 2.47641 33.3876 3.6364C33.9476 4.20641 34.4476 4.8764 34.8676 5.5064L36.0676 7.3364C36.4576 7.9264 36.7775 8.5064 36.8575 9.1064C36.8975 9.3964 37.1476 9.87641 37.3776 10.2364C38.0376 11.2664 38.6576 12.3364 39.4676 13.2664C40.0076 13.8764 40.2976 14.5564 40.6976 15.2064C40.7276 15.2564 40.7076 15.3764 40.6576 15.3764C40.4476 15.3664 40.5076 15.5464 40.6776 15.8064C40.9976 16.2764 41.4976 16.6664 41.6476 17.2064C41.8276 17.8564 41.2675 17.6564 41.1675 18.0064C41.0575 18.3864 40.5076 17.8864 40.2476 17.9764C40.2076 17.9864 40.0076 17.7464 39.8976 17.6064C39.6176 17.2464 39.3976 16.9364 38.9076 16.2364Z" fill="#C0E3EB"/>
<path d="M28.4971 30.2663C28.2571 30.4263 27.9771 30.4963 27.6871 30.4663C26.6171 30.3363 25.5871 30.2263 24.6871 30.1263C22.0371 29.8363 19.7471 29.5963 17.9071 29.0663C15.8571 28.4763 14.4471 27.5463 13.4871 26.1363C12.5571 24.7663 12.1671 23.1863 12.3871 21.6863C12.6071 20.1663 13.447 18.8463 14.727 17.9663C15.687 17.3063 16.7771 17.0163 17.9571 17.0863C18.5571 17.1263 19.1571 17.2463 19.7671 17.4663C19.7871 16.8263 19.8871 16.2063 20.0671 15.6463C20.4371 14.5163 21.1071 13.6163 22.0671 12.9563C23.3571 12.0763 24.8871 11.7863 26.3871 12.1363C27.8671 12.4763 29.1971 13.4163 30.1271 14.7863C31.0871 16.1963 31.4371 17.8363 31.2371 19.9663C31.0571 21.8663 30.4571 24.0863 29.7471 26.6663C29.5071 27.5463 29.2371 28.5463 28.9671 29.5863C28.8971 29.8663 28.7271 30.1063 28.4971 30.2663Z" fill="#C0E3EB"/>
<path d="M28.4971 30.2663C28.2571 30.4263 27.9771 30.4963 27.6871 30.4663C26.6171 30.3363 25.5871 30.2263 24.6871 30.1263C22.0371 29.8363 19.7471 29.5963 17.9071 29.0663C15.8571 28.4763 14.4471 27.5463 13.4871 26.1363C12.5571 24.7663 12.1671 23.1863 12.3871 21.6863C12.6071 20.1663 13.447 18.8463 14.727 17.9663C15.687 17.3063 16.7771 17.0163 17.9571 17.0863C18.5571 17.1263 19.1571 17.2463 19.7671 17.4663C19.7871 16.8263 19.8871 16.2063 20.0671 15.6463C20.4371 14.5163 21.1071 13.6163 22.0671 12.9563C23.3571 12.0763 24.8871 11.7863 26.3871 12.1363C27.8671 12.4763 29.1971 13.4163 30.1271 14.7863C31.0871 16.1963 31.4371 17.8363 31.2371 19.9663C31.0571 21.8663 30.4571 24.0863 29.7471 26.6663C29.5071 27.5463 29.2371 28.5463 28.9671 29.5863C28.8971 29.8663 28.7271 30.1063 28.4971 30.2663Z" fill="#C0E3EB"/>
<path d="M27.1971 32.1663C26.8371 32.0763 26.287 31.9463 25.737 31.8063C25.447 31.7363 25.1571 31.6563 24.8771 31.5863C24.6671 31.5363 24.4571 31.5063 24.3071 31.3063C24.1671 31.1263 23.987 31.1463 23.787 31.2263C23.667 31.2763 23.5171 31.3363 23.3971 31.3163C22.8471 31.1963 22.287 31.0763 21.737 30.9663C21.367 30.8963 21.0071 30.8163 20.6971 30.5763C20.4971 30.4163 20.2871 30.5263 20.0671 30.6163C19.7971 30.7263 19.727 30.6463 19.607 30.2963C19.537 30.0763 19.467 30.0463 19.357 30.1963C19.257 30.3463 19.1871 30.5063 18.9671 30.4563C18.3371 30.3063 17.6871 30.1463 17.0571 29.8963C16.8771 29.8263 16.5271 29.7863 16.7771 29.4263C16.7871 29.4063 16.7871 29.3463 16.7771 29.3463C16.4971 29.2163 16.2171 29.0763 15.9471 28.9163C15.4771 29.0463 15.237 28.5563 14.847 28.4663C14.767 28.4463 14.6571 28.3663 14.6571 28.2963C14.6171 27.8963 14.137 27.8263 14.107 27.4463C14.087 27.2163 13.9571 27.1763 13.7471 27.1763C13.5671 27.1763 13.417 27.1263 13.287 26.9663C12.697 26.2263 12.2271 25.3963 11.9471 24.4763C11.7871 23.9063 11.6871 23.2963 11.7571 22.7063C11.8871 21.6463 12.1171 20.6163 12.6571 19.7163C12.9671 19.1963 13.427 18.7863 13.917 18.4763C14.107 18.3563 14.2671 18.2363 14.4071 18.0563C14.9571 17.3263 15.8171 16.7963 16.7671 16.6163C17.7171 16.4263 18.707 16.5463 19.607 16.8463C19.717 16.8863 19.827 16.9463 19.927 17.0163L19.287 17.4563C19.337 17.2963 19.3871 17.1363 19.3871 16.9763C19.3871 16.6963 19.3471 16.4263 19.5071 16.1563C19.6071 15.9763 19.637 15.7063 19.617 15.4863C19.537 14.4563 20.267 13.5463 21.037 12.9363C21.547 12.5263 22.147 12.2863 22.727 12.0463C23.307 11.8063 23.9171 11.5763 24.5671 11.4863C24.6871 11.4663 24.807 11.4463 24.917 11.4463C25.457 11.4763 25.9671 11.6763 26.4671 11.7463C26.9471 11.8063 27.4571 11.8663 27.8971 12.1063C28.0471 12.1863 28.2171 12.2563 28.3771 12.3163C29.0371 12.5563 29.737 12.9263 29.867 13.7063C30.137 13.9963 30.387 14.3063 30.617 14.6363C30.727 14.7963 30.9071 14.9763 30.9071 15.1563C30.9171 15.6563 31.0871 15.9263 31.4971 16.2163C31.7171 16.3763 31.8171 16.6863 31.9471 16.9563C32.0371 17.1463 32.0971 17.3463 31.8871 17.5263C31.8271 17.5763 31.807 17.7863 31.857 17.8463C32.057 18.0763 31.9171 18.3463 31.9571 18.5763C32.0171 18.9163 31.9871 19.1863 31.7771 19.4563C31.7071 19.5463 31.7071 19.7363 31.7671 19.8363C32.1271 20.5263 32.067 21.2763 31.977 22.0063C31.817 23.1963 31.547 24.3463 31.177 25.4563C31.127 25.6063 31.0771 25.7763 31.0871 25.9363C31.0971 26.4863 30.9271 26.9863 30.7771 27.4963C30.7171 27.6963 30.707 27.9063 30.677 28.1063C30.337 28.1663 30.5871 28.3763 30.5571 28.5263C30.517 28.7263 30.3771 28.8863 30.3771 29.1263C30.3771 29.2663 30.347 29.4163 30.297 29.5563C30.237 29.7163 30.1871 29.8863 30.1271 30.0363C29.9571 30.5163 29.6471 30.7663 29.3971 30.8363C29.1371 30.9063 28.9271 30.8063 28.7471 30.6063C28.6871 30.5363 28.6271 30.4663 28.5771 30.3963C28.4371 30.1863 28.4371 30.0463 28.5071 29.8763C28.5971 29.6663 28.4871 29.4563 28.6271 29.1563C28.8971 28.5963 28.8771 27.9963 28.9471 27.4163C29.0471 26.5563 29.1671 25.7063 29.4071 24.8763C29.5571 24.3363 29.687 23.7963 29.8071 23.2463C29.9271 22.7263 29.947 22.1963 29.987 21.6763C30.027 21.2163 30.0371 20.7463 30.1271 20.3163C30.2871 19.5463 30.237 18.7863 30.227 18.0663C30.227 17.8763 30.2071 17.6863 30.1371 17.5163C29.8971 16.9063 29.6071 16.3863 29.3771 15.8163C29.3471 15.7563 29.3171 15.6763 29.2571 15.6663C28.7971 15.6063 28.6971 15.2463 28.4571 15.0063C27.8471 14.3763 27.1271 13.8963 26.3371 13.6663C25.3771 13.3763 24.357 13.4763 23.477 13.9063C22.917 14.1863 22.4771 14.5863 22.0571 14.9763C21.7771 15.2263 21.677 15.5763 21.547 15.9163C21.357 16.4063 21.217 16.9463 21.177 17.5163L21.047 19.5263L19.2671 18.8163C19.1171 18.7563 18.9571 18.7063 18.8071 18.6663C17.5871 18.3463 16.4371 18.5263 15.5071 19.2063C15.4471 19.2563 15.3871 19.3163 15.3371 19.3863C14.7171 20.2563 14.2171 21.0363 14.0671 22.0363C13.9271 22.9663 14.1971 23.9563 14.6971 24.8463C15.0371 25.4563 15.4271 26.0063 15.9671 26.4563C16.4171 26.8263 16.947 27.1263 17.537 27.3963C18.167 27.6863 18.897 27.8363 19.597 28.1763C19.807 28.2763 20.0371 28.3163 20.2571 28.3763C21.3971 28.6463 22.5771 28.8463 23.7671 29.0663C24.0571 29.1163 24.3171 29.2163 24.5171 29.5163C24.6171 29.6663 24.8271 29.7563 24.9971 29.7863C25.4971 29.8863 25.9971 30.0463 26.5171 29.9663C26.8671 29.9163 27.1471 30.0963 27.4571 30.1763C27.4771 30.1863 27.507 30.2763 27.487 30.3063C27.417 30.4663 27.487 30.5263 27.607 30.5463C27.877 30.5863 28.0671 30.3663 28.3371 30.4363C28.7071 30.4863 28.6871 30.8963 28.9471 31.0663C29.2971 31.2063 28.867 31.6763 28.867 31.9463C28.877 31.9863 28.5871 32.1363 28.4071 32.1663C28.2171 32.2163 28.0171 32.2363 27.7571 32.2363C27.6571 32.2363 27.4171 32.2163 27.3971 32.2063C27.3571 32.1863 27.2771 32.1763 27.1971 32.1663Z" fill="#C0E3EB"/>
</svg>
