<svg width="44" height="59" viewBox="0 0 44 59" fill="none" xmlns="http://www.w3.org/2000/svg">
<path d="M10.0423 47.2891C9.91848 47.4542 9.7534 47.5506 9.60201 47.6882C9.69835 47.4542 9.7809 47.1927 9.91853 47C10.3727 46.3532 10.8269 45.6926 11.281 45.0319C11.4875 44.2474 12.6849 43.6006 12.3821 42.7335C12.3683 42.6922 12.6299 42.2518 12.7812 42.0729C13.0565 41.7426 13.3731 41.3572 13.6483 41.1921C14.3502 40.7379 14.653 39.7882 15.176 39.1276C15.2586 39.0175 15.3411 38.9074 15.4237 38.7973C15.5751 38.5771 15.7815 38.0954 15.809 37.7238C15.9054 36.9118 15.6164 36.1961 15.176 35.7006C14.7356 35.1914 14.0887 34.9299 13.5106 34.8886C13.3868 34.8886 13.1803 34.8886 13.139 34.9024L13.0014 34.9575L12.7261 35.0675C12.4784 35.1776 12.0518 35.3015 11.7765 35.274C10.3039 35.0951 8.87255 35.4116 7.42743 35.2465C6.8081 35.1776 5.96856 35.0951 5.70706 34.8886C4.9501 34.3381 4.20687 34.5033 3.43614 34.751C3.13335 34.8473 2.81682 34.9162 2.50027 34.9575L2.00482 35.0125L1.7571 35.0262C1.78462 35.0262 1.81216 35.04 1.85345 35.0538C1.99108 35.1226 2.05985 35.2327 2.07362 35.3566C2.08738 35.4254 2.04607 35.5217 2.04607 35.5355L2.33512 35.1088C2.66543 34.6409 3.27104 34.3243 3.49124 33.8977C3.72521 33.4435 3.57383 32.9618 3.75274 32.4526C4.05553 31.558 4.24815 30.6083 5.15651 29.7413C5.43177 29.4798 5.69328 29.0118 5.94101 28.6265C6.29885 28.0897 6.6705 27.7319 7.11091 27.3465C7.96422 26.5895 8.66611 25.4885 9.06523 24.3187C9.31296 23.6167 9.60194 22.8873 9.79463 22.1992C9.98731 21.5248 10.3176 20.8779 10.758 20.3137C11.6939 19.13 12.327 17.8638 12.9739 16.5701C13.7033 15.125 14.3777 13.6386 15.231 12.2623C16.6899 9.9226 17.9836 7.50031 19.5526 5.20189C20.2683 4.15591 20.86 2.99982 21.4794 1.87126C21.5344 1.74739 21.7685 1.38955 21.9887 1.23816C22.2227 1.04548 22.4704 0.949135 22.5667 0.880321C22.842 0.687639 23.0484 0.563777 23.0484 0.412385C23.0621 0.274755 22.8695 0.0820721 22.4153 0.0132572C21.9749 -0.0417946 21.2455 0.0545432 20.5848 0.68764C20.4334 0.866559 20.2683 1.05925 20.0894 1.25193C19.993 1.37579 19.8967 1.51342 19.7866 1.66481C18.0111 4.45869 16.1531 7.2113 14.4327 10.0327C12.5197 13.1707 10.6342 16.3499 8.88631 19.5429C7.04207 22.9286 4.89502 26.1629 3.00949 29.5073C2.3351 30.7047 1.57815 31.8745 0.958821 33.0719C0.683561 33.6087 0.394559 34.1317 0.1193 34.6547C-0.100908 35.1777 -0.00454694 35.797 0.312001 36.2374C0.601024 36.6916 1.20658 36.9668 1.67452 36.9531C2.77556 36.9531 3.87655 36.9806 4.97758 37.0219C5.80336 37.0632 6.6429 37.1045 7.46868 37.1045L12.1619 37.1182H12.7537H13.0427C13.0978 37.1182 13.0978 37.1182 13.1253 37.132C13.1941 37.1457 13.2629 37.2558 13.2491 37.3247C13.2491 37.3522 13.2354 37.366 13.2216 37.3935L13.0702 37.6412L12.7675 38.1504L12.1619 39.1551L9.90475 42.9262L5.36299 50.5234L3.21597 54.0604L2.14242 55.8359L1.88092 56.2763C1.77081 56.469 1.60567 56.813 1.63319 57.1571C1.64696 57.8453 2.11495 58.4095 2.72052 58.616C3.02331 58.7261 3.38109 58.7398 3.69764 58.616C4.00042 58.5196 4.28943 58.2581 4.37201 58.1893L5.14273 57.5012L6.68418 56.1111C7.70264 55.189 8.72112 54.2394 9.71205 53.2897C10.1112 52.9044 10.5379 52.5465 10.9508 52.2024L34.513 32.081L36.4673 30.4294L37.4445 29.6037L37.9261 29.1908L38.1876 28.9705C38.3528 28.8192 38.5042 28.6402 38.6005 28.42C39.0272 27.5667 38.6832 26.4794 37.8161 26.039C37.6097 25.9289 37.3756 25.8601 37.1554 25.8326L36.8389 25.7913L36.2058 25.7225L33.6597 25.4472L28.5673 24.8967L26.0212 24.6214L25.7046 24.5939L25.6771 24.7728L25.6634 24.8004C25.6496 24.8141 25.7047 24.7591 25.6909 24.7728C25.6909 24.7728 25.6221 24.7728 25.6496 24.7728C25.7046 24.8004 25.5946 24.7591 25.8423 24.8829L26.0625 24.649L36.2058 14.0652L39.9218 10.1566L41.7798 8.21599L42.7157 7.25258L43.1836 6.77087L43.4313 6.50937C43.5827 6.34422 43.7066 6.13778 43.7892 5.91757C44.0369 5.22942 43.8168 4.43117 43.2387 3.97699C42.991 3.74302 42.5092 3.61916 42.3303 3.60539L41.8211 3.52282L39.7704 3.1925L35.6691 2.53188L27.4801 1.19687C26.4754 1.03172 25.4707 0.90785 24.466 0.797746C24.1357 0.756457 23.7365 0.783984 23.475 0.852799C22.8557 1.00419 22.6768 1.596 23.1585 1.9676C23.5714 2.28415 24.0806 2.58693 24.6449 2.86219C24.7688 2.93101 25.2367 2.80714 25.5532 2.83467C25.9937 2.87596 26.6543 2.91724 26.847 3.04111C27.4801 3.48152 28.3609 3.48152 29.1179 3.63292C31.1823 4.03204 33.2743 4.38989 35.3525 4.74772C36.3434 4.92664 37.3481 5.14685 38.1326 4.80278C38.1877 4.77525 38.7107 4.88535 38.752 4.95417C39.096 5.44964 40.0456 5.60102 40.7751 5.69736C41.0641 5.73865 41.3531 5.7937 41.6559 5.84875C41.7798 5.87628 42 5.91757 42.055 5.93133C41.9587 5.91757 41.8349 5.87629 41.7385 5.79371C41.5458 5.64232 41.4908 5.40834 41.5596 5.20189C41.6009 5.09179 41.6697 5.00921 41.7385 4.96792C41.8073 4.91287 41.7247 5.03674 41.6972 5.07803L41.6146 5.25696C41.1604 6.31671 40.4448 6.94979 39.5502 7.3902C38.807 7.74804 38.1601 8.31234 37.5133 9.00049C36.1783 10.4043 34.8295 11.7944 33.5495 13.2395C32.3109 14.6158 31.0584 15.937 29.6959 17.1757C28.2095 18.5382 26.7369 19.942 25.512 21.5386C25.2505 21.8826 24.9752 22.2129 24.6999 22.5432L24.2733 23.0387L23.998 23.3553C23.8191 23.5617 23.6815 23.8232 23.5989 24.0985C23.2411 25.2133 23.8742 26.4657 25.0028 26.8235C25.1404 26.8648 25.278 26.8923 25.4156 26.9199L25.6083 26.9474L25.9386 26.9887L26.5855 27.0575C27.3975 27.1538 28.2233 27.1676 29.0353 27.2089C29.1179 27.2089 29.1866 27.0988 29.2279 27.03C29.2417 27.0024 29.1178 26.9336 29.049 26.9336L28.2233 26.8511C28.1407 26.8373 28.0444 26.8098 28.0031 26.7685C27.9618 26.7409 27.9755 26.6996 27.9618 26.6584C28.5811 26.6859 29.1867 26.6997 29.806 26.7547C30.1914 26.7822 30.4391 26.9061 30.5217 27.1125C30.6318 27.4016 31.0447 27.608 31.6916 27.6218C32.655 27.6355 33.4807 27.8695 34.3616 28.0484C34.8433 28.1448 35.3388 28.2136 35.8342 28.2686L36.5774 28.3512L36.7701 28.3787C36.8389 28.3787 36.9215 28.3925 36.8251 28.3925C36.7288 28.3787 36.6049 28.3237 36.5086 28.2549C36.2058 28.0209 36.2058 27.6768 36.2746 27.3878C36.3021 27.1814 36.5499 26.9474 36.2609 27.1814C36.0957 27.3052 35.9443 27.4429 35.7929 27.5805C35.4901 27.8558 35.2149 28.1448 34.9396 28.4475C34.3891 29.0394 33.8661 29.6449 33.2192 30.1542C33.0816 30.2643 32.999 30.5395 32.9027 30.7185C32.7651 31.0075 32.5449 31.2827 32.2283 31.3791C31.0034 31.6956 29.9161 32.7003 28.8426 33.705C28.4573 34.0629 27.7966 34.6684 27.8104 34.7923C27.8654 35.2465 27.425 35.6456 26.9571 36.0722C26.3515 36.609 25.9111 36.7742 25.3743 36.7742C24.7412 36.7742 23.5439 37.9027 23.2549 38.6597C24.0806 38.6046 23.2549 39.1964 22.9108 39.568C22.4841 40.036 22.0162 40.4764 21.562 40.9306C21.1491 41.3435 20.7637 41.6738 20.3921 41.5774C20.0893 41.4949 19.6214 41.6875 19.181 42.0867C17.5982 43.518 15.8917 44.7154 14.2263 46.0091C10.8957 48.5966 7.74396 51.4593 4.56471 54.2669C4.1243 54.666 3.68387 55.0514 3.25721 55.4643L2.62417 56.0974C2.18376 56.5103 2.80307 55.9735 3.20219 56.0974C3.80776 56.2075 4.12429 56.5653 4.12429 57.2122C4.11052 57.3636 4.0693 57.5012 4.01424 57.5838C3.95919 57.6663 4.00041 57.5975 4.02794 57.5425L4.11051 57.3911L4.46836 56.7993C6.03734 54.1981 7.59259 51.5693 9.23038 49.0232C10.125 47.6331 10.7718 46.3257 11.1985 44.9356C11.0333 45.8164 10.5791 46.5734 10.0423 47.2891ZM18.0386 43.7382C18.1074 43.7657 17.9423 44.0685 17.8322 44.2475C17.4606 44.8117 16.9376 45.0595 16.4422 45.2521C16.3321 45.2934 16.222 45.2384 16.2082 45.1696C16.1945 45.1008 16.2908 44.9218 16.3871 44.8255C16.6899 44.5089 17.0202 44.2062 17.4606 43.7933C17.6395 43.7795 17.9148 43.6832 18.0386 43.7382ZM24.6311 23.4654C24.6587 23.4378 24.7413 23.4791 24.7275 23.5204C24.7 23.6443 24.7137 23.7681 24.576 23.9195C24.2595 24.2636 24.1632 24.8279 24.2733 25.2546C24.3696 25.695 24.6312 26.0528 24.8926 26.3418C24.9477 26.4106 24.5623 26.3556 24.3834 26.1629C23.9981 25.7775 23.6402 25.1169 23.9842 24.181C24.0393 24.0709 24.1357 23.892 24.3008 23.7269C24.4798 23.5479 24.5073 23.5617 24.6311 23.4654ZM36.2195 27.9796C36.1645 27.9659 36.1094 27.897 36.137 27.8695C36.1645 27.842 36.2608 27.7869 36.3159 27.8007L36.9765 27.897C36.9765 27.9108 36.8802 27.897 36.8389 27.8558C36.8251 27.842 36.7838 27.842 36.7563 27.8282C36.7288 27.8695 36.715 27.9383 36.7425 27.9796C36.7701 28.0897 37.1554 28.131 36.715 28.0897C36.5361 28.0622 36.3709 28.0209 36.2195 27.9796Z" fill="#C0E3EB"/>
</svg>
