<svg width="50" height="49" viewBox="0 0 50 49" fill="none" xmlns="http://www.w3.org/2000/svg">
<path d="M11.0921 26.157C11.0921 25.6676 11.1699 25.1781 11.1922 24.6775C11.3479 23.0534 11.7484 21.4071 12.527 19.8943C12.705 19.5717 12.8719 19.2268 13.0721 18.9042C13.5171 18.2924 14.0288 17.7251 14.6072 17.2468C14.7073 17.1578 14.8408 17.091 14.8964 16.9687C15.219 16.368 15.8197 16.0565 16.3648 15.7339C16.9432 15.4002 17.4994 15.022 18.089 14.7328C18.3559 14.5882 18.634 14.4213 18.9677 14.3212C19.2792 14.2211 19.6129 14.1098 19.9689 14.2211C20.1914 14.2767 20.4584 14.1655 20.6809 14.0542C21.0479 13.8651 21.4372 13.8985 21.8266 13.9318C22.6942 14.0653 23.5731 13.9652 24.4296 14.1766C24.7188 14.2544 24.9969 14.3546 25.275 14.4547C25.3751 14.488 25.4752 14.5548 25.5753 14.5548C26.2984 14.577 26.9102 14.9886 27.5554 15.2334C28.5899 15.5893 29.4019 16.3569 30.2362 17.0132C31.4932 18.07 32.6056 19.3269 33.362 20.8175C33.5511 21.2291 33.718 21.6518 33.8849 22.0745C33.9961 22.5195 34.1185 22.9422 34.2075 23.4094C34.4077 24.7665 33.9516 26.0569 33.3176 27.1025C33.1062 27.4585 32.9394 27.8367 32.7058 28.1704C32.0828 29.0826 31.1484 29.6499 30.3808 30.3618C29.7913 30.9069 29.1016 31.3073 28.3897 31.6633C28.1561 31.7745 27.9002 31.8747 27.6666 31.9748C26.9102 32.3419 26.1204 32.6422 25.3084 32.8758C24.374 33.1539 23.395 33.3541 22.3828 33.3764C21.2481 33.3986 20.0245 33.1539 19.0123 32.4309C17.8331 31.6411 17.2324 30.1505 16.9543 29.0047C16.3536 27.0135 16.2202 24.811 16.832 22.6864C16.9321 22.3415 17.1101 22.0078 17.2658 21.6852C17.4327 21.3626 17.7108 21.0956 17.9444 20.8287C18.2336 20.5617 18.534 20.3059 18.8121 20.0389C19.1458 19.8275 19.4127 19.5049 19.791 19.3603C20.8589 18.7485 22.2159 18.7819 23.2949 19.238C24.0514 19.5939 24.73 20.0277 25.3418 20.5394C25.5754 20.7508 25.8423 20.9399 26.087 21.129C26.3206 21.3515 26.5543 21.5628 26.7879 21.7964C26.9547 21.9633 27.0659 22.2192 27.1772 22.4305C27.6221 23.3427 27.5888 24.4995 27.0215 25.3004C26.9547 25.3894 26.8546 25.4451 26.7767 25.5118C25.9758 26.2015 24.9747 26.4351 24.018 26.6353C23.7733 26.6798 23.5508 26.7911 23.3172 26.8467C23.2616 26.8578 23.1392 26.791 23.1392 26.7577C23.1392 26.6353 23.1281 26.4796 23.1726 26.4128C23.2393 26.3127 23.3506 26.2571 23.4618 26.2237C23.9958 26.0791 24.5297 25.89 25.008 25.6564C25.2082 25.5563 25.3862 25.4451 25.5642 25.3227C26.0314 25.0112 26.3429 24.6442 26.3985 24.2771C26.5765 23.5985 25.7645 22.5195 24.9079 21.7964C23.5174 20.5506 21.593 19.9054 20.0913 20.7286C19.9466 20.8287 19.8132 20.9288 19.6797 21.04C19.5462 21.1513 19.4572 21.307 19.3348 21.4182C18.2447 22.5417 17.9555 24.4217 18.089 26.1681C18.1668 27.058 18.3226 27.9479 18.5784 28.8267C18.7787 29.7834 19.0678 30.4063 19.5907 30.9403C20.2359 31.6188 21.2593 31.9748 22.3716 31.9748C23.9846 31.9748 25.6532 31.4186 27.166 30.651C28.6789 29.8835 30.1139 28.8935 31.2374 27.6365C32.372 26.3572 33.1952 24.7665 32.7391 23.2203C32.3609 21.5851 31.4154 20.1056 30.2029 18.8931C28.4119 17.18 26.0871 15.9119 23.6064 15.5226C22.7277 15.3557 21.8377 15.4447 20.9812 15.5226C20.158 15.6561 19.4127 15.8118 18.6229 16.1789C18.4672 16.2456 18.3003 16.3012 18.1446 16.3791C17.0989 16.8908 16.1534 17.536 15.3525 18.3036C14.7184 18.9265 14.1956 19.6495 13.7729 20.4505C13.3947 21.2625 13.061 22.119 12.8496 23.0312C12.4825 24.4884 12.4047 26.0235 12.3713 27.5586C12.3713 28.3595 12.3824 29.1493 12.4047 29.9503C12.4047 30.1727 12.3491 30.3952 12.2712 30.6177C12.2156 30.7623 12.0821 30.9069 11.8374 30.8847C11.6149 30.8735 11.4925 30.7623 11.4591 30.5954C11.3479 29.9947 11.1588 29.394 11.1254 28.7822C11.0142 27.9146 11.0587 27.0358 11.0921 26.157Z" fill="#C0E3EB"/>
<path d="M21.6601 47.8704C21.649 47.8259 21.649 47.7814 21.6379 47.7258C21.6045 47.5701 21.649 47.4143 21.6823 47.2697C21.6935 47.2364 21.649 47.203 21.6601 47.1696C21.6824 47.1029 21.7158 47.0362 21.738 46.9694C21.738 46.9583 21.7714 46.9472 21.7269 46.936C21.471 46.8693 21.5489 46.8137 21.5489 46.7581C21.5489 46.7024 21.4599 46.6357 21.4265 46.5689C21.3931 46.5133 21.2263 46.4466 21.5155 46.4021C21.6045 46.391 21.5488 46.3576 21.471 46.3353C21.3486 46.2908 21.3709 46.2686 21.4376 46.2352C21.5822 46.1574 21.3931 46.0795 21.4376 46.0016C21.4488 45.9794 21.4821 45.946 21.4932 45.9238C21.5044 45.9126 21.5378 45.9015 21.5155 45.8904C21.3153 45.8236 21.5044 45.768 21.4376 45.7013C21.3375 45.6012 21.5266 45.5122 21.56 45.4121C21.6156 45.2675 21.6045 45.1117 21.6156 44.9671C21.6267 44.8893 21.6267 44.8114 21.649 44.7224C21.6712 44.6112 21.7046 44.4999 21.7157 44.3998C21.7157 44.3664 21.6601 44.3219 21.6267 44.2885C21.56 44.1884 21.7936 44.0994 21.7046 43.9993C21.6379 43.9215 21.6824 43.8547 21.7269 43.7769C21.738 43.7546 21.7825 43.7324 21.7936 43.7101C21.8159 43.6323 21.827 43.5544 21.8381 43.4765C21.8381 43.3875 21.8269 43.2985 21.8158 43.2095C21.8047 43.1094 21.8159 43.0093 21.8047 42.8981C21.7825 42.7757 21.7825 42.6645 21.7157 42.5421C21.6045 42.3419 21.7046 42.1528 21.7046 41.9637C21.7046 41.8969 21.7491 41.8413 21.8826 41.7857C22.0272 41.7189 21.9604 41.6522 21.8937 41.5855C21.7936 41.4742 21.8158 41.3741 21.916 41.274C21.9827 41.2072 22.0606 41.1294 22.0717 41.0626C22.0828 41.007 21.9938 40.9403 21.9716 40.8846C21.9604 40.8624 21.9827 40.8402 22.0161 40.8179C22.1385 40.74 22.3832 40.6622 22.3387 40.5732C22.3387 40.5621 22.3832 40.5509 22.3943 40.5509C22.5389 40.462 22.6835 40.373 22.8059 40.2728C22.8392 40.2506 22.7836 40.2283 22.7947 40.195C22.7947 40.1838 22.8949 40.1838 22.9171 40.1838C23.0395 40.195 23.1952 40.195 23.2508 40.2061C23.3287 40.2172 23.362 40.2284 23.362 40.2395C23.362 40.2951 23.3509 40.3618 23.3509 40.4174C23.3509 40.4397 23.362 40.4619 23.3509 40.4953C23.3398 40.562 23.3287 40.6288 23.3287 40.6955C23.3287 40.8179 23.3065 40.9403 23.3287 41.0738C23.3621 41.274 23.2953 41.4742 23.262 41.6744C23.2508 41.7189 23.3176 41.7634 23.3176 41.7968C23.2397 42.1639 23.3621 42.5421 23.3176 42.9092C23.3065 43.0316 23.2397 43.1428 23.2286 43.2652C23.2063 43.4432 23.2286 43.61 23.2174 43.788C23.2063 43.9659 23.1619 44.1328 23.1285 44.3108C23.0951 44.4888 23.0729 44.6668 23.0506 44.8447C23.0284 45.0227 23.0395 45.2007 23.0172 45.3676C22.9838 45.6234 22.9282 45.8681 22.8949 46.124C22.8837 46.213 22.9616 46.302 22.9727 46.4021C22.9839 46.4911 22.9505 46.5689 22.9393 46.6579C22.9393 46.6802 22.9282 46.6913 22.9282 46.7135C22.9504 46.8359 22.9949 46.9472 22.9949 47.0695C23.0061 47.2586 23.0172 47.4477 22.9616 47.6368C22.9171 47.7815 22.9393 47.9372 22.9393 48.0929C22.9393 48.1708 22.9394 48.2487 22.9171 48.3265C22.906 48.3488 22.8392 48.371 22.7502 48.3821C22.6946 48.3933 22.55 48.4044 22.3053 48.3933C22.0828 48.3821 21.9716 48.371 21.9382 48.3488C21.8492 48.282 21.7046 48.2264 21.6712 48.1597C21.6378 48.0373 21.6713 47.9594 21.6601 47.8704C21.6713 47.8704 21.6713 47.8704 21.6601 47.8704Z" fill="#C0E3EB"/>
<path d="M41.9734 41.9191C41.9289 41.8969 41.8955 41.8635 41.851 41.8413C41.7064 41.7634 41.6063 41.6299 41.5062 41.4964C41.484 41.463 41.4284 41.4742 41.4061 41.4408C41.3616 41.3852 41.3282 41.3073 41.2949 41.2406C41.2837 41.2295 41.2949 41.1961 41.2615 41.2295C41.039 41.3741 41.0501 41.274 41.0056 41.2406C40.95 41.1961 40.8499 41.2183 40.7721 41.2072C40.7053 41.1961 40.5496 41.2739 40.6942 41.0181C40.7387 40.9402 40.6831 40.9625 40.6163 41.007C40.5051 41.0737 40.494 41.0404 40.5051 40.9625C40.5385 40.8068 40.3493 40.8957 40.3159 40.8067C40.3048 40.7734 40.2937 40.74 40.2937 40.7066C40.2937 40.6955 40.3049 40.6621 40.2826 40.6733C40.0935 40.7845 40.1714 40.5954 40.0824 40.5954C39.9378 40.5954 39.9823 40.3952 39.9266 40.3062C39.8376 40.1616 39.7153 40.0726 39.6041 39.9614C39.5485 39.8946 39.4817 39.839 39.4261 39.7722C39.3482 39.6832 39.2926 39.5831 39.2036 39.4941C39.1813 39.4719 39.1034 39.4941 39.0589 39.483C38.9366 39.4719 39.0145 39.2272 38.881 39.2272C38.7809 39.2272 38.7475 39.1382 38.7141 39.0603C38.703 39.038 38.7142 38.9824 38.703 38.9602C38.6474 38.8934 38.6029 38.8267 38.5362 38.7711C38.4694 38.7043 38.3804 38.6599 38.3025 38.6042C38.2135 38.5375 38.1357 38.4596 38.0467 38.404C37.9355 38.3372 37.8465 38.2594 37.7019 38.2371C37.4683 38.1926 37.3793 37.9924 37.2235 37.8478C37.1791 37.8033 37.1456 37.7254 37.1901 37.5808C37.2346 37.4251 37.1234 37.4362 37.0233 37.4362C36.8676 37.4473 36.8008 37.3584 36.7897 37.2138C36.7786 37.1136 36.7674 37.0135 36.7118 36.9579C36.6673 36.9134 36.5672 36.9356 36.5005 36.9245C36.4782 36.9134 36.4783 36.88 36.4783 36.8466C36.4894 36.6909 36.5672 36.4573 36.4671 36.4239C36.456 36.4239 36.4783 36.3795 36.4783 36.3683C36.4894 36.2015 36.5005 36.0235 36.4783 35.8566C36.4671 35.8121 36.4226 35.8344 36.4004 35.8121C36.4004 35.8121 36.4337 35.7231 36.456 35.7009C36.5227 35.6008 36.6117 35.4673 36.6562 35.4339C36.7118 35.3783 36.7452 35.3672 36.7564 35.3672C36.8231 35.4117 36.8898 35.4784 36.9454 35.5229L37.0122 35.5674L37.1679 35.7231C37.2792 35.8121 37.3681 35.9122 37.4905 35.979C37.6907 36.0902 37.8131 36.2793 37.9577 36.4351C37.9911 36.4684 38.0689 36.4462 38.0912 36.4796C38.347 36.791 38.7364 36.9468 39.0033 37.2249C39.0923 37.3138 39.148 37.4473 39.237 37.5363C39.3705 37.6698 39.5262 37.7699 39.6485 37.9034C39.782 38.0369 39.8933 38.1815 40.0156 38.3261L40.405 38.7488C40.5384 38.8823 40.683 39.0047 40.8165 39.1382C41.0056 39.3384 41.1725 39.5609 41.3616 39.75C41.4283 39.8167 41.5507 39.8279 41.6286 39.8835C41.7064 39.9391 41.751 40.017 41.8177 40.0837C41.8288 40.0948 41.8399 40.1171 41.851 40.1282C41.9623 40.1949 42.0846 40.2394 42.1848 40.3173C42.3405 40.4397 42.5074 40.5509 42.6186 40.7289C42.7076 40.8735 42.8522 40.9514 42.9746 41.0515C43.0413 41.1071 43.1081 41.1627 43.1526 41.2295C43.1637 41.2517 43.1303 41.3184 43.0969 41.3963C43.0635 41.4519 42.9857 41.5632 42.8188 41.7411C42.6631 41.908 42.5741 41.9859 42.5519 41.9859C42.4406 42.0192 42.3072 42.0749 42.2293 42.0637C42.0847 42.0526 42.0401 41.9748 41.9734 41.9191Z" fill="#C0E3EB"/>
<path d="M48.9467 24.1883C48.9022 24.1994 48.8577 24.1995 48.8021 24.2106C48.6463 24.244 48.4906 24.1994 48.346 24.1661C48.3126 24.155 48.2792 24.1994 48.2459 24.1883C48.1791 24.1661 48.1124 24.1327 48.0456 24.0993C48.0345 24.0993 48.0234 24.066 48.0123 24.1105C47.9456 24.3663 47.8899 24.2773 47.8343 24.2773C47.7675 24.2773 47.7119 24.3663 47.6452 24.3997C47.5896 24.433 47.5228 24.5999 47.4783 24.3107C47.4672 24.2217 47.4338 24.2773 47.4116 24.3552C47.3671 24.4776 47.3337 24.4553 47.3115 24.3886C47.2448 24.244 47.1557 24.4331 47.0779 24.3886C47.0556 24.3774 47.0222 24.3441 47 24.3329C46.9889 24.3218 46.9778 24.2884 46.9667 24.3107C46.8888 24.5109 46.8442 24.3218 46.7775 24.3886C46.6774 24.4887 46.5885 24.2995 46.4883 24.2551C46.3437 24.1994 46.188 24.2106 46.0434 24.1883C45.9655 24.1772 45.8876 24.1661 45.7986 24.1549C45.6874 24.1327 45.5873 24.0882 45.476 24.0771C45.4427 24.0771 45.3982 24.1327 45.3648 24.1661C45.2647 24.2328 45.1757 23.9992 45.0756 24.0771C44.9977 24.1438 44.931 24.0882 44.8531 24.0437C44.8308 24.0326 44.8086 23.9881 44.7864 23.977C44.7085 23.9547 44.6306 23.9325 44.5527 23.9325C44.4637 23.9325 44.3748 23.9436 44.2858 23.9436C44.1857 23.9436 44.0856 23.9436 43.9743 23.9547C43.852 23.9658 43.7407 23.977 43.6184 24.0326C43.4181 24.1438 43.229 24.0437 43.0399 24.0326C42.9732 24.0326 42.9176 23.9881 42.8619 23.8546C42.8063 23.71 42.7285 23.7767 42.6617 23.8435C42.5505 23.9436 42.4503 23.9214 42.3502 23.8212C42.2835 23.7545 42.2167 23.6766 42.1389 23.6655C42.0832 23.6544 42.0165 23.7434 41.9609 23.7656C41.9387 23.7767 41.9164 23.7545 41.8942 23.7211C41.8163 23.5988 41.7384 23.354 41.6494 23.3874C41.6383 23.3874 41.6271 23.3429 41.6271 23.3318C41.5382 23.1872 41.4492 23.0426 41.3602 22.9202C41.3379 22.8868 41.3157 22.9424 41.2823 22.9313C41.2712 22.9313 41.2712 22.8312 41.2712 22.809C41.2824 22.6866 41.2935 22.5309 41.3046 22.4753C41.3157 22.3974 41.3379 22.364 41.349 22.364C41.4047 22.364 41.4714 22.3751 41.5271 22.3862C41.5493 22.3862 41.5716 22.3751 41.6049 22.3862C41.6717 22.3974 41.7384 22.4085 41.8052 22.4085C41.9275 22.4196 42.0499 22.4307 42.1833 22.4196C42.3836 22.3862 42.5838 22.453 42.7841 22.4864C42.8286 22.4975 42.873 22.4308 42.9064 22.4419C43.2735 22.5198 43.6517 22.4085 44.0188 22.453C44.1412 22.4641 44.2524 22.5309 44.3748 22.5531C44.5528 22.5753 44.7196 22.5531 44.8976 22.5754C45.0755 22.5976 45.2424 22.6421 45.4093 22.6643C45.5873 22.6977 45.7652 22.7311 45.9432 22.7534C46.1212 22.7756 46.2992 22.7756 46.4661 22.7978C46.7219 22.8312 46.9666 22.8979 47.2225 22.9313C47.3115 22.9424 47.4116 22.8646 47.5006 22.8646C47.5896 22.8534 47.6674 22.8868 47.7564 22.8979C47.7787 22.8979 47.7898 22.9091 47.812 22.9091C47.9344 22.8868 48.0456 22.8423 48.168 22.8423C48.3571 22.8312 48.5462 22.8201 48.7353 22.8868C48.8799 22.9425 49.0357 22.9091 49.1914 22.9091C49.2693 22.9091 49.3471 22.9091 49.425 22.9313C49.4472 22.9424 49.4695 23.0092 49.4806 23.0982C49.4917 23.1538 49.4917 23.2984 49.4806 23.5431C49.4695 23.7656 49.4472 23.8768 49.4361 23.9102C49.3694 23.9992 49.3027 24.1438 49.247 24.1661C49.1024 24.2106 49.0245 24.1772 48.9467 24.1883C48.9467 24.1772 48.9467 24.1772 48.9467 24.1883Z" fill="#C0E3EB"/>
<path d="M38.6569 2.02934C38.6458 2.07384 38.6236 2.11833 38.6124 2.16282C38.5679 2.31856 38.4678 2.4298 38.3677 2.55217C38.3454 2.57441 38.3677 2.63003 38.3455 2.65228C38.301 2.7079 38.2342 2.74127 38.1786 2.79689C38.1675 2.80802 38.1341 2.79689 38.1675 2.83026C38.3677 3.00825 38.2676 3.01937 38.2453 3.07499C38.2231 3.13061 38.2676 3.21958 38.2676 3.29745C38.2787 3.36419 38.3899 3.49768 38.1119 3.40869C38.0229 3.37532 38.0674 3.43095 38.123 3.48657C38.212 3.57556 38.1786 3.59781 38.1119 3.59781C37.9561 3.59781 38.0784 3.76467 38.0117 3.80917C37.9895 3.82029 37.9561 3.84252 37.9228 3.85364C37.9116 3.85364 37.8671 3.85366 37.8894 3.87591C38.0451 4.03164 37.8449 3.99828 37.8672 4.08727C37.9117 4.22075 37.7003 4.22075 37.6224 4.28749C37.5112 4.39873 37.4556 4.5322 37.3666 4.65456C37.3221 4.7213 37.2776 4.78804 37.2331 4.85478C37.1663 4.94377 37.0774 5.02165 37.0217 5.11064C36.9995 5.14402 37.0439 5.19964 37.0439 5.25526C37.0551 5.37762 36.8103 5.34426 36.8437 5.47775C36.866 5.57787 36.7881 5.62233 36.7214 5.6557C36.6991 5.66683 36.6435 5.66683 36.6324 5.68907C36.5767 5.74469 36.5322 5.81145 36.4877 5.87819C36.4432 5.95606 36.421 6.04506 36.3765 6.13406C36.332 6.22305 36.2876 6.31204 36.2542 6.41215C36.2208 6.52339 36.1652 6.6346 36.1763 6.76809C36.1874 6.99057 36.0095 7.12406 35.9205 7.29091C35.8871 7.34653 35.8203 7.37991 35.6757 7.36879C35.52 7.35766 35.5533 7.45778 35.5756 7.54677C35.6201 7.69139 35.5534 7.76924 35.4199 7.81374C35.3309 7.84711 35.2308 7.86937 35.1863 7.93612C35.1529 7.98061 35.1974 8.08073 35.1974 8.14747C35.1974 8.16972 35.164 8.18084 35.1307 8.18084C34.986 8.20309 34.7413 8.1586 34.7302 8.25872C34.7302 8.26984 34.6857 8.25872 34.6745 8.25872C34.5077 8.28097 34.3408 8.29208 34.1851 8.31432C34.1517 8.32545 34.1851 8.36994 34.1629 8.38107C34.1629 8.38107 34.0739 8.34768 34.0516 8.33656C33.9515 8.28094 33.8069 8.19195 33.7624 8.15857C33.6957 8.11408 33.6846 8.08072 33.6846 8.0696C33.7068 8.01398 33.7513 7.96948 33.7735 7.92498C33.7846 7.90273 33.7847 7.88049 33.8069 7.85824C33.8403 7.80262 33.8848 7.74701 33.9181 7.69139C33.9737 7.58015 34.0516 7.48002 34.085 7.35765C34.1406 7.15742 34.2964 7.01282 34.4187 6.84597C34.441 6.81259 34.4076 6.74586 34.4299 6.71248C34.6635 6.42326 34.7302 6.03395 34.9304 5.72248C34.9972 5.62236 35.1084 5.5445 35.1751 5.44438C35.2641 5.29977 35.3309 5.13291 35.4199 4.9883C35.5089 4.84369 35.6312 4.7102 35.7313 4.56559C35.8426 4.42097 35.9427 4.27635 36.0428 4.13174C36.1429 3.98713 36.2097 3.82027 36.3098 3.67566C36.4544 3.4643 36.6212 3.26407 36.7658 3.05272C36.8103 2.97485 36.7881 2.86361 36.8215 2.77462C36.8549 2.69676 36.9104 2.63001 36.9661 2.56327C36.9772 2.55214 36.9995 2.54104 36.9995 2.5188C37.0328 2.40756 37.044 2.2852 37.0996 2.17396C37.1775 2.0071 37.2442 1.82912 37.3888 1.68451C37.5 1.57327 37.5445 1.41753 37.6113 1.29516C37.6446 1.22842 37.678 1.15056 37.7336 1.09494C37.7447 1.08382 37.8226 1.09493 37.9116 1.11718C37.9672 1.13943 38.1007 1.19504 38.3121 1.3174C38.5123 1.42864 38.6013 1.49537 38.6124 1.51762C38.6681 1.61774 38.7571 1.72899 38.7682 1.80685C38.7459 1.89584 38.6792 1.95148 38.6569 2.02934C38.6458 2.02934 38.6458 2.02934 38.6569 2.02934Z" fill="#C0E3EB"/>
<path d="M19.4456 0.360338C19.4568 0.404834 19.4679 0.438189 19.4902 0.482685C19.5458 0.616171 19.5346 0.771921 19.5235 0.916532C19.5235 0.949903 19.568 0.972136 19.5569 1.00551C19.5458 1.07225 19.5236 1.13899 19.5124 1.20573C19.5124 1.21685 19.479 1.2391 19.5346 1.2391C19.7905 1.26135 19.7237 1.3281 19.7349 1.38372C19.746 1.43933 19.835 1.48385 19.8906 1.53947C19.9351 1.58396 20.102 1.61733 19.8239 1.70632C19.7349 1.73969 19.8016 1.7508 19.8795 1.76192C20.013 1.78417 19.9907 1.81756 19.9351 1.85093C19.8016 1.93992 20.0019 1.99552 19.9685 2.07339C19.9574 2.09564 19.9351 2.12902 19.924 2.15127C19.9129 2.16239 19.8795 2.17351 19.9129 2.18464C20.1242 2.21801 19.9462 2.29587 20.013 2.35149C20.1242 2.42935 19.9573 2.5406 19.9351 2.64072C19.9017 2.78533 19.9351 2.91882 19.9462 3.06343C19.9462 3.1413 19.9573 3.21916 19.9462 3.29702C19.9351 3.39714 19.9129 3.50838 19.924 3.60849C19.924 3.64186 19.9907 3.67525 20.0241 3.6975C20.102 3.77537 19.8795 3.89773 19.9796 3.9756C20.0575 4.04234 20.013 4.10909 19.9796 4.18695C19.9685 4.2092 19.924 4.24255 19.924 4.26479C19.9129 4.34266 19.9129 4.40942 19.9129 4.48729C19.924 4.57628 19.9462 4.65416 19.9685 4.74315C19.9907 4.84326 19.9907 4.93223 20.0241 5.03234C20.0575 5.14358 20.0797 5.25483 20.1576 5.35495C20.2911 5.5218 20.2243 5.72202 20.2355 5.90001C20.2355 5.95562 20.2021 6.02238 20.0797 6.08913C19.9462 6.16699 20.0241 6.22263 20.102 6.27825C20.2132 6.36724 20.2021 6.46733 20.1131 6.56744C20.0464 6.64531 19.9907 6.71207 19.9796 6.78994C19.9796 6.84555 20.0686 6.90117 20.102 6.95679C20.1131 6.97903 20.0909 7.00128 20.0575 7.02353C19.9463 7.11252 19.7126 7.2015 19.746 7.29049C19.746 7.30161 19.7015 7.31274 19.6904 7.32386C19.5569 7.3906 19.4123 7.55748 19.2899 7.51298C19.2788 7.50186 19.29 7.50186 19.3011 7.51298C19.3233 7.5241 19.2788 7.49072 19.4123 7.56859C19.4123 7.56859 19.5124 7.63535 19.5346 7.6576C19.5013 7.63535 19.4568 7.60198 19.4456 7.59086C19.3678 7.53524 19.2677 7.47961 19.1675 7.44624C19.0452 7.40174 18.9117 7.36836 18.7671 7.36836C18.7337 7.39061 18.7449 7.424 18.7449 7.45737C18.7449 7.51299 18.756 7.4351 18.756 7.4351C18.756 7.42398 18.7449 7.40175 18.7449 7.3795C18.7449 7.335 18.7671 7.30163 18.756 7.23488C18.756 7.12364 18.756 7.0124 18.7338 6.91228C18.6781 6.7343 18.7226 6.54519 18.7338 6.35609C18.7338 6.32272 18.667 6.28934 18.667 6.24484C18.7004 5.9 18.5335 5.56631 18.5224 5.22147C18.5224 5.11023 18.5669 4.98787 18.5669 4.87663C18.5557 4.70977 18.5224 4.55404 18.5113 4.39831C18.5001 4.23145 18.5224 4.07571 18.5224 3.90886C18.5224 3.742 18.5335 3.57513 18.5224 3.40827C18.5113 3.24141 18.489 3.08567 18.4779 2.91882C18.4779 2.67409 18.5001 2.4405 18.489 2.19577C18.489 2.10678 18.4 2.04003 18.3778 1.95104C18.3555 1.87318 18.3666 1.79531 18.3666 1.70632C18.3666 1.69519 18.3778 1.67294 18.3666 1.66181C18.3222 1.5617 18.2666 1.45046 18.2443 1.35035C18.2109 1.17236 18.1553 1.0055 18.1887 0.827522C18.2109 0.682911 18.1553 0.54942 18.1442 0.404809C18.133 0.326942 18.1219 0.260219 18.133 0.182352C18.133 0.160104 18.1998 0.137849 18.2888 0.104477C18.3444 0.0822292 18.4779 0.0599733 18.7226 0.0266016C18.9451 0.00435389 19.0564 -0.00675776 19.0897 0.00436611C19.1898 0.0488616 19.3344 0.0822278 19.3789 0.137847C19.4456 0.193467 19.4234 0.282471 19.4456 0.360338Z" fill="#C0E3EB"/>
<path d="M0.925011 13.253C0.98063 13.2642 1.02514 13.2864 1.08076 13.2975C1.25874 13.3309 1.40333 13.431 1.54794 13.5311C1.58132 13.5534 1.63691 13.5311 1.65916 13.5534C1.7259 13.5979 1.78156 13.6646 1.83718 13.7091C1.8483 13.7203 1.84828 13.7536 1.88165 13.7091C2.04851 13.4978 2.07073 13.5979 2.13747 13.6201C2.20422 13.6424 2.29324 13.5867 2.38224 13.5867C2.4601 13.5756 2.58247 13.4533 2.52685 13.7425C2.5046 13.8315 2.56024 13.787 2.61586 13.7314C2.70485 13.6312 2.72708 13.6646 2.73821 13.7425C2.76046 13.9094 2.91616 13.7647 2.9829 13.8426C3.00515 13.8649 3.02738 13.8982 3.03851 13.9316C3.04963 13.9427 3.03853 13.9872 3.06078 13.965C3.20539 13.7981 3.19428 14.0095 3.28327 13.9761C3.42788 13.9316 3.4501 14.1429 3.53909 14.2097C3.67258 14.3209 3.82834 14.3654 3.98408 14.4433C4.06194 14.4878 4.15096 14.5212 4.2177 14.5768C4.31782 14.6435 4.4179 14.7214 4.52914 14.777C4.56251 14.7993 4.62926 14.7548 4.67375 14.7436C4.80724 14.7214 4.80723 14.9772 4.94071 14.9439C5.04083 14.9105 5.09646 14.9884 5.1632 15.0551C5.18545 15.0774 5.18543 15.133 5.20768 15.1441C5.28554 15.1997 5.3523 15.2442 5.43017 15.2776C5.51916 15.3221 5.61928 15.3443 5.7194 15.3777C5.83064 15.4111 5.93073 15.4667 6.04197 15.489C6.17545 15.5223 6.29787 15.5668 6.44248 15.5557C6.6872 15.5334 6.85404 15.7003 7.04314 15.7893C7.10988 15.8227 7.15436 15.8783 7.16549 16.034C7.17661 16.1897 7.27673 16.1564 7.37684 16.123C7.52145 16.0674 7.6216 16.1341 7.68835 16.2676C7.73284 16.3566 7.7773 16.4567 7.85516 16.5012C7.91078 16.5346 8.01091 16.479 8.07765 16.479C8.0999 16.479 8.12212 16.5123 8.12212 16.5457C8.16662 16.6903 8.1555 16.9462 8.26674 16.9573C8.27786 16.9573 8.26675 17.0018 8.27788 17.024C8.32237 17.1909 8.36686 17.3689 8.41136 17.5246C8.42248 17.558 8.46698 17.5246 8.48923 17.5468C8.48923 17.5468 8.46702 17.647 8.4559 17.6692C8.40028 17.7805 8.33353 17.9251 8.31128 17.9696C8.26678 18.0363 8.24453 18.0586 8.2334 18.0586C8.16666 18.0363 8.111 18.0029 8.05538 17.9696C8.03314 17.9584 7.99976 17.9584 7.97751 17.9473C7.91077 17.9139 7.84403 17.8806 7.77729 17.8472C7.65492 17.7916 7.53259 17.7248 7.38798 17.6915C7.1655 17.6358 6.97641 17.4912 6.77618 17.38C6.73168 17.3577 6.66494 17.4022 6.63156 17.38C6.2756 17.1575 5.84173 17.113 5.47464 16.9239C5.35227 16.8572 5.25217 16.7571 5.14093 16.6903C4.96295 16.6013 4.77387 16.5457 4.60701 16.4567C4.42903 16.3677 4.27327 16.2565 4.09529 16.1675C3.91731 16.0674 3.75048 15.9673 3.5725 15.8783C3.39452 15.7893 3.21649 15.7225 3.03851 15.6224C2.78266 15.4889 2.54907 15.3221 2.29323 15.1997C2.20423 15.1552 2.08191 15.1886 1.98179 15.1552C1.8928 15.133 1.81489 15.0662 1.7259 15.0217C1.70365 15.0106 1.69255 14.9884 1.68143 14.9884C1.54794 14.9661 1.41448 14.955 1.29212 14.9105C1.09189 14.8437 0.891636 14.777 0.713654 14.6435C0.580168 14.5323 0.402205 14.4989 0.246471 14.4322C0.168603 14.3988 0.079588 14.3654 0.0128447 14.3098C-0.00940301 14.2987 0.00172087 14.2208 0.0128447 14.1318C0.0239686 14.0762 0.0684804 13.9427 0.168595 13.7202C0.257586 13.5089 0.3243 13.4199 0.346547 13.3977C0.446662 13.342 0.557912 13.2308 0.635779 13.2308C0.758142 13.1641 0.83602 13.2308 0.925011 13.253C0.925011 13.253 0.925011 13.2642 0.925011 13.253Z" fill="#C0E3EB"/>
<path d="M0.69247 42.3534C0.725841 42.32 0.759243 42.2866 0.792614 42.2421C0.892729 42.1086 1.04845 42.0308 1.19306 41.9529C1.22643 41.9307 1.22643 41.8862 1.2598 41.8639C1.32654 41.8306 1.40442 41.8083 1.48229 41.786C1.49341 41.786 1.52681 41.7972 1.50456 41.7527C1.39332 41.508 1.4934 41.5413 1.53789 41.4968C1.58239 41.4523 1.5824 41.3411 1.61577 41.2744C1.63802 41.2076 1.58239 41.0407 1.81599 41.2187C1.89386 41.2743 1.87163 41.2076 1.83826 41.1409C1.79377 41.0185 1.82712 41.0185 1.89387 41.0408C2.0496 41.0964 1.99396 40.8961 2.08295 40.8739C2.11633 40.8628 2.14973 40.8628 2.1831 40.8628C2.19422 40.8628 2.22756 40.885 2.21643 40.8516C2.13857 40.6514 2.31659 40.7515 2.32771 40.6625C2.34996 40.5179 2.53904 40.5958 2.65028 40.5513C2.80602 40.4846 2.91724 40.3733 3.05073 40.2843C3.11747 40.2398 3.19535 40.1842 3.27322 40.1397C3.37333 40.0841 3.49573 40.0396 3.58472 39.9617C3.61809 39.9395 3.60693 39.8616 3.61805 39.8171C3.65143 39.6948 3.88504 39.8171 3.90729 39.6837C3.92953 39.5835 4.01852 39.5724 4.10751 39.5501C4.14088 39.539 4.1854 39.5613 4.20765 39.5501C4.28552 39.5168 4.36333 39.4723 4.43007 39.4167C4.50794 39.361 4.57469 39.2832 4.64143 39.2164C4.7193 39.1386 4.80832 39.0718 4.88619 38.9939C4.97518 38.8938 5.0642 38.816 5.11982 38.6825C5.20881 38.46 5.43127 38.4044 5.587 38.2709C5.64262 38.2264 5.72048 38.2153 5.85396 38.282C5.99857 38.3488 6.00972 38.2487 6.02085 38.1486C6.0431 37.9928 6.1432 37.9483 6.28781 37.9483C6.38793 37.9483 6.49916 37.9594 6.56591 37.9149C6.62153 37.8816 6.61041 37.7703 6.64378 37.7147C6.65491 37.6925 6.68829 37.6925 6.72166 37.7036C6.86627 37.737 7.08868 37.8704 7.1443 37.7814C7.1443 37.7703 7.18885 37.8037 7.19998 37.8037C7.36683 37.8482 7.5337 37.8927 7.68943 37.9261C7.73392 37.9372 7.72279 37.8816 7.74504 37.8705C7.75616 37.8705 7.82292 37.9372 7.83405 37.9594C7.91191 38.0595 8.0009 38.1819 8.03427 38.2264C8.07876 38.2931 8.07873 38.3265 8.0676 38.3376C8.02311 38.3821 7.96747 38.4155 7.91185 38.4489C7.8896 38.46 7.87849 38.4934 7.85625 38.5045C7.80063 38.549 7.73391 38.5824 7.67829 38.6269C7.56706 38.7047 7.45578 38.7826 7.36679 38.8827C7.22218 39.0496 7.01085 39.1386 6.83287 39.2609C6.7995 39.2832 6.7995 39.361 6.76613 39.3833C6.41016 39.5835 6.18768 39.9284 5.85396 40.1508C5.74272 40.2287 5.60923 40.251 5.49799 40.3288C5.34226 40.4401 5.20875 40.5736 5.06414 40.6848C4.90841 40.796 4.74156 40.885 4.58583 40.974C4.41897 41.0741 4.25211 41.1742 4.09637 41.2855C3.94064 41.3967 3.79606 41.5191 3.64032 41.6192C3.40672 41.7749 3.16199 41.8973 2.93951 42.053C2.86165 42.1086 2.82824 42.231 2.76149 42.2977C2.69475 42.3645 2.6058 42.409 2.52794 42.4535C2.51681 42.4646 2.49452 42.4646 2.4834 42.4757C2.40553 42.5758 2.3277 42.6871 2.2387 42.7761C2.09409 42.9096 1.94948 43.0542 1.74925 43.1432C1.59352 43.2099 1.49343 43.3434 1.35994 43.4435C1.2932 43.4991 1.23758 43.5547 1.14859 43.5881C1.12634 43.5992 1.05958 43.5548 0.992836 43.4991C0.948341 43.4658 0.848215 43.3656 0.703605 43.1654C0.570118 42.9874 0.503383 42.8873 0.503383 42.8539C0.492259 42.7427 0.458866 42.587 0.481113 42.5202C0.547857 42.4535 0.63685 42.4201 0.69247 42.3534C0.69247 42.3534 0.703594 42.3645 0.69247 42.3534Z" fill="#C0E3EB"/>
</svg>
