<svg width="666" height="431" viewBox="0 0 666 431" fill="none" xmlns="http://www.w3.org/2000/svg">
<path d="M72.8619 83.7137C72.5735 83.7137 72.1229 83.6597 71.6784 83.6176C71.4501 83.5996 71.2097 83.5395 70.9814 83.5095C70.8072 83.4854 70.645 83.4674 70.5128 83.3472C70.3927 83.2331 70.2545 83.2331 70.0983 83.2691C69.9961 83.2932 69.882 83.3232 69.7859 83.3052C69.3413 83.191 68.9087 83.0348 68.4761 82.8426C68.3319 82.7945 68.1937 82.7044 68.0616 82.6143C67.9354 82.5242 67.8152 82.434 67.7251 82.2898C67.611 82.1096 67.4247 82.1096 67.2445 82.0195C67.0222 81.9174 66.9801 81.8332 67.0342 81.5869C67.0763 81.4307 67.0522 81.3706 66.9321 81.3706C66.8179 81.3646 66.6918 81.4007 66.6137 81.1964C66.3493 80.6136 66.3493 79.9287 66.5476 79.382C66.6077 79.2318 66.6677 78.9434 66.872 79.1297C66.884 79.1417 66.9201 79.1357 66.9261 79.1237C67.0462 78.9074 67.1724 78.6911 67.3286 78.5229C67.3346 78.1924 67.6711 78.0422 67.8333 77.7899C67.8633 77.7358 67.9414 77.6697 67.9895 77.6697C68.2478 77.6697 68.4521 77.3814 68.6984 77.3994C68.8606 77.4354 68.9327 77.3633 68.9988 77.2372C69.0589 77.123 69.149 77.0449 69.3052 77.0209C70.0322 76.8707 70.7351 76.9728 71.372 77.099C71.7745 77.1771 72.159 77.2672 72.5315 77.3754C73.2044 77.5796 73.9073 77.5856 74.5742 77.4234C74.6703 77.3994 74.7664 77.3814 74.8686 77.3633L75.1569 77.2732C75.3492 77.2191 75.5535 77.1591 75.7517 77.093C75.914 77.0449 76.0401 76.9788 76.1723 76.8767C77.2117 76.0656 78.5695 75.627 79.9513 75.6451C80.1616 75.6571 80.3658 75.7412 80.5641 75.7532C80.7684 75.7652 80.9666 75.7352 81.1709 75.8433C81.3031 75.9154 81.4953 75.9395 81.6575 75.9274C82.3905 75.9214 83.0274 76.378 83.544 76.8527C83.7063 77.0209 83.8685 77.1831 84.0067 77.3633C84.1388 77.5496 84.271 77.7298 84.4152 77.9041C84.5414 78.0903 84.6735 78.2765 84.8177 78.4568C84.9559 78.637 85.064 78.8473 85.1842 79.0456C85.2263 79.1237 85.2863 79.1898 85.3044 79.2679C85.4065 79.6464 85.4606 80.0309 85.5327 80.3973C85.5867 80.5716 85.6288 80.7458 85.6408 80.926C85.6588 81.1063 85.6949 81.2925 85.6588 81.4728C85.6408 81.5989 85.6348 81.7311 85.6348 81.8633C85.6468 82.1276 85.5867 82.386 85.5206 82.6383C85.4365 82.8846 85.2803 83.1009 85.0701 83.2571C84.9078 83.5035 84.7817 83.7738 84.5834 83.9901C84.4873 84.1042 84.4092 84.2665 84.295 84.3205C83.9526 84.4407 83.8204 84.651 83.6702 84.9514C83.5921 85.1196 83.4059 85.2758 83.2376 85.402C83.1175 85.4981 82.9853 85.5822 82.8351 85.5101C82.787 85.4861 82.6368 85.5161 82.6008 85.5582C82.4566 85.7144 82.2523 85.7144 82.0841 85.7624C81.8378 85.8345 81.6275 85.9006 81.3932 85.7805C81.3211 85.7444 81.1709 85.7624 81.0988 85.8045C80.8465 85.9547 80.5521 85.9607 80.2577 85.9787C79.9873 85.9547 79.705 85.9186 79.4286 85.8465C78.5214 85.6363 77.6442 85.1917 76.9353 84.6329C76.8392 84.5548 76.731 84.4767 76.6229 84.4347C76.2444 84.2725 75.95 84.0322 75.6616 83.8279C75.5475 83.7618 75.4153 83.7017 75.3011 83.6597C75.3072 83.4554 75.1449 83.5695 75.0608 83.5395C74.9407 83.5155 74.8566 83.4073 74.7184 83.4133C74.6343 83.4193 74.5501 83.4013 74.472 83.3773C74.3879 83.3653 74.2978 83.3472 74.2137 83.3352C73.9193 83.3052 73.7691 83.179 73.703 82.8486C73.691 82.7945 73.685 82.7404 73.679 82.6864C73.667 82.5362 73.7271 82.4581 73.9073 82.416C74.1296 82.3559 74.3819 82.3079 74.6042 82.3619C75.0728 82.5061 75.5355 82.5782 75.968 82.7645C76.5989 83.0408 77.1396 83.4073 77.6442 83.7618C77.9747 83.9901 78.3111 84.2004 78.6716 84.3566C79.008 84.5248 79.3745 84.5969 79.741 84.669C79.8972 84.711 80.0715 84.7231 80.2337 84.7531C80.4019 84.7831 80.5581 84.8132 80.6903 84.8252C81.1889 84.9333 81.7116 84.8072 82.2103 84.639C82.3425 84.6089 82.4746 84.5548 82.5828 84.4647C82.9853 84.1884 83.2977 83.8399 83.6642 83.5335C83.7002 83.4974 83.7483 83.4494 83.7483 83.4073C83.7483 83.1009 83.9346 82.9147 84.0727 82.6984C84.3791 82.1036 84.5293 81.4487 84.4633 80.8059C84.3912 80.0128 84.0006 79.2859 83.4359 78.583C83.0874 78.1684 82.6909 77.8259 82.3004 77.5015C82.0481 77.3033 81.7597 77.2011 81.4773 77.105C80.9546 76.9187 80.3899 76.7986 79.7951 76.8166C78.7797 76.8587 77.7464 77.1831 76.7671 77.6517C76.701 77.6818 76.6349 77.7238 76.5748 77.7659C76.3645 77.9221 76.1963 78.0543 75.932 78.1984C75.6436 78.3486 75.3612 78.5229 75.0308 78.601C74.3939 78.8293 73.709 78.8353 73.0842 78.8052C71.9067 78.7091 70.8913 78.4027 70.1223 78.3607C69.6116 78.3426 69.2752 78.4087 68.8907 78.6911L68.6624 78.8894C68.5843 78.9554 68.5182 79.0576 68.4461 79.1417C68.2899 79.3219 68.1697 79.4841 68.0856 79.6464C67.9114 80.0188 67.8994 80.3132 67.9594 80.6557C67.9895 80.7578 68.0375 80.86 68.1337 80.9501C68.5242 81.4487 69.3533 81.7491 70.1523 81.9414C70.3566 81.9834 70.5368 82.0495 70.675 82.2418C70.7471 82.3319 70.9033 82.38 71.0295 82.398C71.396 82.4581 71.7745 82.5302 72.153 82.44C72.3993 82.386 72.6216 82.4761 72.8559 82.4881C72.8739 82.4881 72.904 82.5422 72.898 82.5602C72.8619 82.6623 72.922 82.6924 73.0181 82.6864C73.1984 82.6804 73.3726 82.5542 73.5468 82.6563C73.7571 82.7765 73.6189 82.9988 73.709 83.155C73.8052 83.3292 73.5829 83.4494 73.5648 83.6116C73.5648 83.6356 73.4627 83.6597 73.4026 83.6657C73.2644 83.6957 73.1383 83.6957 72.8619 83.7137Z" fill="white"/>
<path d="M8.27149 77.1653C7.63464 77.1713 6.64934 77.2554 5.71811 77.5378C5.22546 77.676 4.74482 77.8502 4.30024 78.0785C3.96379 78.2407 3.6694 78.439 3.363 78.5351C3.08062 78.6253 2.85232 78.8475 2.67809 79.1119C2.55793 79.2741 2.4618 79.4844 2.32362 79.6346C1.75888 80.3435 1.35634 81.1786 1.33832 82.0918C1.31429 82.6926 1.41642 83.2814 1.50053 83.8702C1.55461 84.2607 1.78291 84.519 2.0052 84.7894C2.29959 85.1078 2.32362 85.246 2.35366 85.6125C2.36568 85.8348 2.43177 85.967 2.59398 86.009C2.75619 86.0511 2.86434 86.027 3.10466 86.3334C3.45312 86.748 3.82561 87.1145 4.25818 87.3968C4.69075 87.6672 5.15937 87.8595 5.66404 87.9556C5.94641 88.0217 6.48112 87.9796 6.30689 88.232C6.29487 88.244 6.33693 88.28 6.35495 88.28C6.87764 88.304 7.41235 88.25 7.94105 88.1538C8.49378 87.8414 9.2688 87.8114 9.87561 87.511C9.98976 87.4569 10.212 87.3848 10.2962 87.3848C10.8008 87.4029 11.4497 87.0123 11.9604 86.9943C12.2848 86.9823 12.5071 86.8681 12.7053 86.7119C12.8916 86.5738 13.1079 86.4536 13.4623 86.3635C14.2734 86.1532 15.1205 85.991 15.9917 85.991C16.8568 85.985 17.746 86.1532 18.5511 86.5257C19.4643 86.9402 20.4075 87.3067 21.3508 87.529C22.2039 87.7273 23.0991 87.7333 23.9282 87.4209C24.7633 87.1325 25.5383 86.6158 26.3854 86.2073C27.3467 85.7387 28.4822 85.3902 29.5516 85.6365C29.9662 85.7326 30.3266 85.8348 30.7232 85.967C31.5222 86.2133 32.2552 86.6218 33.0002 86.9523C33.7452 87.3007 34.4841 87.535 35.2952 87.6492C36.9234 87.9376 38.5515 88.0818 40.1436 87.7453C40.6243 87.6552 41.1289 87.5951 41.5795 87.4269C42.0361 87.2286 42.4326 87.0364 42.9193 86.8501C43.2617 86.742 43.6523 86.4836 43.9406 86.2674C45.2143 85.264 46.6262 84.3088 47.8458 83.2454C48.2123 82.8789 48.5728 82.5064 48.8371 82.0738C49.0954 81.6472 49.2577 81.1666 49.2216 80.686C49.1916 80.1993 48.9573 79.7367 48.6148 79.3582C48.2724 78.9797 47.8338 78.6733 47.3712 78.409C47.1969 78.3128 47.0227 78.2287 46.8485 78.1446C46.0674 77.7361 45.2083 77.3816 44.3311 77.2314C43.496 77.0872 42.6549 77.0572 41.7958 77.0031C41.4954 76.9851 41.189 76.9911 40.8946 77.0091C39.699 77.0932 38.5515 77.3155 37.392 77.2975C36.7251 77.4537 36.0162 77.6339 35.3132 77.7781C34.9528 77.8322 34.5382 77.9464 34.2438 77.9223C33.4267 77.8322 32.8139 77.8923 32.0149 77.8502C31.5883 77.8142 30.9695 77.5318 30.5549 77.1833C30.2485 76.943 30.0082 76.7087 29.9301 76.4564C29.9181 76.4203 29.858 76.3422 29.7859 76.2701C29.7138 76.2101 29.6297 76.156 29.5817 76.138C29.2212 76.0478 28.9148 75.8676 28.5303 75.8976C27.9956 75.9037 27.563 76.0358 26.9742 75.9577C26.794 75.9337 26.4095 75.9337 26.1932 75.9157C25.8447 75.9097 25.4602 75.7895 25.1418 75.5672C24.8174 75.3509 24.571 75.0565 24.3668 74.7561C23.9642 74.1614 23.7059 73.5365 23.3935 72.9958C22.9008 72.0886 22.246 71.4818 21.3327 71.2715C20.4316 71.0372 19.3682 71.1394 18.3708 71.3316C18.1005 71.3917 17.8301 71.4938 17.5898 71.596C16.8028 72.0105 16.1599 72.5032 15.6673 73.2602C15.481 73.5606 15.3248 73.897 15.1626 74.2515C14.8562 74.4197 14.9103 74.7381 14.748 75.0205C14.6399 75.2127 14.5378 75.387 14.3756 75.5672C14.2314 75.7535 14.0812 75.9337 13.8769 76.132C13.6606 76.4023 13.3182 76.5705 12.9937 76.7448C12.8255 76.7988 12.6513 76.8469 12.477 76.895L12.2187 76.9611L11.9724 76.9791C11.696 76.9971 11.4497 77.0151 11.2574 76.9851C11.0652 76.949 10.909 76.907 10.7828 76.8589C10.5305 76.7568 10.4103 76.6306 10.3803 76.4624C10.3743 76.4083 10.3622 76.3542 10.3743 76.3002C10.4043 76.15 10.5725 76.0899 11.0111 76.0899C11.5518 76.1019 12.0865 75.9457 12.5311 75.8195C13.0178 75.6453 13.4083 75.2908 13.6726 74.8402C13.937 74.3776 14.1352 73.879 14.3756 73.3683C14.724 72.6173 15.2107 71.8483 15.9196 71.2896C16.256 70.9832 16.6646 70.8029 17.0611 70.5866L17.6859 70.3703C17.8962 70.2922 18.1065 70.2322 18.3228 70.2081L19.1579 70.0639C19.4402 70.0399 19.7166 69.9978 20.005 70.0039C20.5757 69.9858 21.1645 70.0279 21.7473 70.1961C22.3 70.3523 22.8468 70.6167 23.2973 71.0012C23.754 71.3797 24.1144 71.8483 24.3908 72.3169C24.8895 73.152 25.2379 74.0532 25.6705 74.5639C26.031 75.0265 26.5657 75.1226 27.2566 74.9965C28.0316 74.8643 29.0469 74.7141 29.9782 75.2308C30.4348 75.5011 30.7592 75.8556 31.0536 76.1139C31.5583 76.5705 31.9908 76.7988 32.5796 76.895C32.7178 76.931 32.868 76.943 33.0242 76.943C33.1804 76.949 33.3306 76.9731 33.4928 76.9611C33.8173 76.931 34.1357 76.9611 34.4781 76.901C34.6163 76.8829 34.8086 76.8649 34.8927 76.8229C35.2051 76.6787 35.5656 76.5525 35.9381 76.4624C36.3346 76.3723 36.7431 76.2822 37.1336 76.192C39.3025 75.7174 41.5375 75.6693 43.7364 75.9878C45.0761 76.192 46.4099 76.5405 47.6896 77.1894C48.3264 77.5198 48.9513 77.9283 49.486 78.5291C50.0207 79.1119 50.4412 79.971 50.4352 80.8782C50.4172 82.0017 49.8825 82.9149 49.3177 83.6118C48.735 84.3208 48.0501 84.8555 47.4132 85.3181C46.6022 85.9189 45.8391 86.5077 44.998 87.0364C43.454 87.9916 41.6997 88.7186 39.8312 89.007C38.2331 89.2893 36.5809 89.0851 35.109 88.8207C34.9287 88.7907 34.7365 88.7546 34.5202 88.7066C34.3099 88.6645 34.1056 88.6044 33.9074 88.5384C33.5048 88.4122 33.1263 88.244 32.7599 88.0757C32.0329 87.7273 31.3961 87.3308 30.7832 87.0424C30.615 86.9583 30.4408 86.8982 30.2786 86.8441C29.1551 86.4836 28.314 86.6699 27.1484 87.2587C26.5957 87.529 26.037 87.8775 25.3761 88.2139C24.7212 88.5504 23.9342 88.8628 23.0991 88.9589C21.519 89.1391 20.0891 88.7126 18.8274 88.2139L17.9022 87.8234L17.5417 87.6792L17.1692 87.5711C16.6646 87.4509 16.1299 87.4149 15.5771 87.4509C14.0571 87.547 12.453 88.1298 10.7828 88.6825C9.40699 89.1211 7.93504 89.6198 6.25883 89.5597C5.36965 89.5297 4.43842 89.2713 3.65138 88.7967C2.86434 88.3341 2.23951 87.6552 1.80093 86.9883C1.66275 86.7961 1.52457 86.5918 1.39239 86.3815C1.25421 86.1772 1.11603 85.967 1.00188 85.7507C0.383059 84.6753 -0.0495126 83.4076 0.00455884 82.0918C0.0345985 80.7701 0.61136 79.5024 1.45848 78.5652C1.86702 78.1026 2.32963 77.7541 2.79224 77.6279C3.01454 77.5558 3.39905 77.3516 3.70545 77.1894C4.58862 76.7207 5.54388 76.4324 6.48713 76.144C7.11796 75.9517 7.71875 75.9637 8.32556 75.9637C8.36761 75.9637 8.44572 76.0118 8.42168 76.0358C8.32556 76.144 8.46975 76.156 8.71006 76.162C9.15465 76.162 9.64129 76.0659 10.0498 76.2281C10.5305 76.4143 10.1219 76.5826 10.2781 76.7688C10.4343 76.9731 9.88762 77.0091 9.82754 77.1653C9.81553 77.1833 9.59323 77.1833 9.46707 77.1833C9.15465 77.1533 8.87829 77.1293 8.27149 77.1653Z" fill="white"/>
<path d="M119.521 409.875L115.241 409.225C114.481 409.105 113.921 409.915 114.291 410.595L116.381 414.385C116.531 414.655 116.531 414.975 116.401 415.245L114.461 419.115C114.121 419.805 114.711 420.585 115.471 420.445L119.721 419.625C120.021 419.565 120.331 419.665 120.551 419.875L123.631 422.915C124.181 423.455 125.111 423.135 125.201 422.365L125.741 418.065C125.781 417.765 125.961 417.495 126.231 417.355L130.071 415.365C130.751 415.015 130.731 414.025 130.041 413.695L126.121 411.855C125.841 411.725 125.651 411.465 125.601 411.165L124.891 406.895C124.761 406.135 123.821 405.845 123.301 406.415L120.341 409.575C120.131 409.815 119.821 409.925 119.521 409.875Z" fill="white"/>
<path d="M117.131 408.785L116.381 408.775L116.011 408.765L115.511 408.745C115.211 408.735 114.971 408.765 114.741 408.875C114.031 409.205 113.811 410.075 114.041 410.725C114.091 410.905 114.231 411.095 114.331 411.285L114.771 412.115C114.831 412.245 114.831 412.415 114.921 412.515C115.351 413.015 115.701 413.555 115.881 414.205C115.971 414.275 116.061 414.385 116.111 414.445C116.341 414.705 116.211 415.065 116.001 415.285C115.721 415.715 115.521 416.195 115.171 416.575C115.081 416.675 114.991 416.805 114.961 416.935C114.871 417.245 114.761 417.535 114.631 417.815C114.501 418.105 114.381 418.325 114.151 418.755C114.021 418.995 113.921 419.235 113.891 419.495C113.831 420.075 114.201 420.665 114.751 420.845C115.021 420.945 115.311 420.935 115.601 420.855C115.891 420.785 116.191 420.675 116.371 420.605C116.811 420.425 117.291 420.335 117.761 420.245C118.321 420.135 118.891 420.085 119.461 419.995L119.681 419.965C119.961 419.895 120.261 420.035 120.401 420.265C120.631 420.535 120.871 420.835 121.091 421.135C121.371 421.505 121.651 421.875 121.931 422.245L122.361 422.795L122.581 423.065L122.961 423.495C123.181 423.725 123.411 423.905 123.681 424.025C124.511 424.405 125.581 423.915 125.901 423.095C125.991 422.895 126.041 422.675 126.071 422.435L126.131 421.785L126.181 420.935L126.301 419.225C126.341 418.835 126.391 418.255 126.431 418.175C126.511 417.975 126.661 417.975 127.131 417.735C127.861 417.405 128.591 417.085 129.321 416.755L130.411 416.235C131.191 415.875 131.631 415.075 131.501 414.255C131.441 413.855 131.251 413.475 130.961 413.195C130.701 412.915 130.201 412.705 129.861 412.535L127.131 411.125L126.911 411.005C126.841 410.965 126.731 410.915 126.761 410.915C126.751 410.895 126.751 410.875 126.761 410.865L126.771 410.845L126.781 410.835C126.781 410.835 126.791 410.835 126.781 410.765C126.751 410.485 126.701 410.205 126.651 409.925L126.351 408.365L126.201 407.585L126.101 407.045C126.061 406.795 126.021 406.535 125.921 406.325C125.691 405.715 125.161 405.245 124.541 405.075C123.911 404.905 123.231 405.025 122.711 405.435C122.461 405.635 122.161 405.975 121.991 406.165L121.601 406.585L120.831 407.415L119.961 408.355C119.811 408.505 119.661 408.655 119.501 408.805L119.671 408.965C119.671 408.975 119.671 408.945 119.671 408.975C119.631 409.365 119.761 409.915 120.321 409.865C120.711 409.755 120.921 409.675 121.131 409.375C121.411 408.945 121.911 408.695 122.061 408.165C122.081 408.085 122.161 408.025 122.231 407.975C122.531 407.755 122.821 407.515 123.091 407.265C123.331 407.065 123.431 406.885 123.671 406.765C123.891 406.655 124.181 406.695 124.371 406.855C124.581 407.015 124.591 407.295 124.651 407.555C124.731 407.975 124.771 408.505 124.841 408.965C124.881 409.275 124.931 409.585 124.991 409.895C125.081 410.365 125.181 410.745 125.251 411.285C125.291 411.725 125.601 412.185 126.081 412.125C126.091 412.125 126.101 412.125 126.111 412.125C126.211 412.135 126.341 412.205 126.371 412.285C126.491 412.595 126.761 412.695 127.021 412.805C127.721 413.115 128.431 413.405 129.131 413.735L129.451 413.895L129.701 414.035C129.861 414.125 129.961 414.295 129.951 414.475C129.961 414.815 129.621 415.025 129.361 415.055L129.231 415.085C129.181 415.095 129.071 415.145 128.991 415.175L128.471 415.385C127.791 415.665 127.121 415.995 126.451 416.295C126.291 416.365 126.121 416.395 125.971 416.475C125.481 416.665 124.981 417.105 124.901 417.635C124.831 418.295 124.891 418.425 124.631 418.725C124.501 418.875 124.471 419.145 124.471 419.365C124.461 419.645 124.501 419.935 124.541 420.215C124.591 420.555 124.651 420.875 124.451 421.205C124.351 421.355 124.351 421.735 124.411 421.725C124.521 421.885 124.531 422.195 124.331 422.295C124.131 422.415 123.901 422.265 123.801 422.085L123.781 422.065L123.721 421.985L123.561 421.805L123.241 421.435L122.601 420.685L121.961 419.935L121.641 419.565C121.511 419.425 121.481 419.365 121.231 419.105C120.791 418.675 120.141 418.485 119.531 418.605L118.921 418.705C118.131 418.835 117.341 418.985 116.561 419.155L115.971 419.285C115.841 419.315 115.891 419.315 115.841 419.335C115.791 419.365 115.711 419.365 115.651 419.325C115.601 419.295 115.571 419.225 115.651 419.175L115.721 419.135C115.711 419.215 115.901 418.855 116.021 418.595C116.151 418.325 116.261 418.045 116.371 417.765C116.521 417.365 116.721 416.975 116.931 416.605L117.261 416.055C117.301 415.995 117.411 415.805 117.501 415.625C117.581 415.445 117.641 415.245 117.661 415.045C117.711 414.675 117.681 414.265 117.481 413.935L117.451 413.875L117.141 413.375L116.891 412.935L116.431 412.025L115.981 411.115L115.741 410.665C115.701 410.595 115.731 410.645 115.711 410.625C115.671 410.655 115.561 410.485 115.701 410.425C115.741 410.415 115.691 410.395 115.821 410.405L116.201 410.425C117.051 410.465 117.911 410.495 118.771 410.535C118.831 410.535 118.881 410.565 118.941 410.565C119.431 410.575 119.631 410.305 119.471 409.825C119.331 409.395 119.051 409.125 118.611 409.065C118.131 409.005 117.651 408.965 117.161 408.915L117.131 408.785Z" fill="white"/>
<path d="M101.672 428.155L102.272 430.055C102.382 430.395 102.822 430.465 103.032 430.175L104.172 428.545C104.252 428.435 104.382 428.365 104.522 428.365L106.512 428.385C106.862 428.385 107.072 427.985 106.862 427.705L105.662 426.115C105.582 426.005 105.552 425.855 105.602 425.725L106.232 423.835C106.342 423.495 106.022 423.185 105.692 423.295L103.812 423.945C103.682 423.995 103.532 423.965 103.422 423.885L101.822 422.705C101.542 422.495 101.132 422.705 101.142 423.055L101.172 425.045C101.172 425.185 101.112 425.315 100.992 425.395L99.3715 426.545C99.0815 426.755 99.1515 427.195 99.4915 427.305L101.392 427.885C101.522 427.915 101.622 428.015 101.672 428.155Z" fill="white"/>
<path d="M101.471 429.925C101.761 430.155 101.961 430.475 102.201 430.585C102.471 430.685 102.891 430.555 103.061 430.445C103.121 430.415 103.171 430.305 103.231 430.235C103.331 430.105 103.441 429.975 103.551 429.855C103.601 429.805 103.691 429.805 103.721 429.725C103.801 429.535 103.871 429.375 103.961 429.235C104.011 429.165 104.061 429.105 104.121 429.045C104.171 429.005 104.221 428.975 104.271 428.955L104.291 428.945C104.241 428.645 104.511 428.605 104.691 428.705C104.781 428.735 104.851 428.745 104.951 428.755C105.111 428.775 105.271 428.805 105.461 428.875C105.561 428.915 105.681 428.935 105.761 428.905C105.841 428.885 105.911 428.865 105.991 428.845C106.281 428.695 106.701 428.735 107.041 428.645C107.251 428.555 107.411 428.295 107.381 428.055C107.381 427.825 107.101 427.605 106.901 427.395C106.671 427.185 106.531 426.985 106.391 426.775C106.251 426.575 106.101 426.255 106.021 426.135L105.991 426.095C105.901 425.985 105.851 425.835 105.941 425.695C105.981 425.635 106.021 425.565 106.071 425.515L106.141 425.435L106.251 425.255C106.411 424.995 106.571 424.705 106.741 424.385C106.871 423.995 107.021 423.515 107.011 423.125C106.961 422.805 106.561 422.505 106.261 422.475C105.491 422.625 104.701 422.925 104.021 423.115C103.851 423.165 103.831 423.205 103.721 423.215C103.621 423.215 103.561 423.125 103.501 423.075C103.521 423.075 103.241 422.845 103.081 422.695L102.491 422.185L102.221 422.045L101.731 421.815C101.651 421.785 101.561 421.735 101.481 421.715C101.411 421.705 101.331 421.705 101.241 421.715C100.881 421.765 100.471 421.975 100.411 422.305L100.201 423.555L100.091 424.205L100.031 424.535C100.021 424.615 100.011 424.605 100.011 424.605L100.001 424.615C99.9811 424.635 99.9211 424.625 99.9011 424.605L99.8911 424.595C99.8811 424.595 99.9311 424.565 99.7711 424.685L98.6611 425.515C98.4711 425.825 98.2711 426.135 98.0711 426.435C97.9211 426.755 98.0111 427.525 98.3311 427.735L99.7911 428.385C100.071 428.505 100.341 428.615 100.611 428.745C100.741 428.805 100.881 428.875 101.011 428.955L101.231 428.255C101.261 428.235 101.301 428.205 101.331 428.185C101.481 428.065 101.581 427.895 101.521 427.715C101.381 427.475 101.411 427.365 101.261 427.375C101.031 427.395 101.031 427.195 100.631 427.335C100.571 427.355 100.541 427.335 100.531 427.315C100.421 427.125 100.231 427.065 100.021 426.955C99.9311 426.885 99.8711 426.765 99.8811 426.655C99.8911 426.535 99.9811 426.485 100.071 426.405C100.171 426.325 100.331 426.245 100.451 426.185L100.501 426.155C100.581 426.105 100.661 426.055 100.731 425.995C100.781 425.945 101.051 425.725 101.251 425.565C101.411 425.455 101.591 425.265 101.351 425.015C101.301 424.965 101.321 424.875 101.371 424.855C101.401 424.845 101.421 424.825 101.441 424.815C101.591 424.715 101.561 424.505 101.561 424.475C101.541 424.255 101.501 423.995 101.501 423.765C101.511 423.605 101.491 423.435 101.691 423.415C101.831 423.405 102.001 423.515 102.101 423.665C102.181 423.785 102.271 423.915 102.351 424.025L102.401 424.095L102.471 424.215L102.501 424.265C102.511 424.275 102.501 424.275 102.521 424.295L102.661 424.415C102.761 424.505 102.851 424.635 102.971 424.705C103.171 424.835 103.431 424.955 103.671 424.865C103.921 424.765 104.081 424.685 104.371 424.795C104.621 424.825 104.551 424.845 104.561 424.815C104.561 424.785 104.571 424.705 104.601 424.615C104.641 424.505 104.741 424.365 104.701 424.545C104.671 424.645 104.711 424.575 104.781 424.495C104.921 424.315 105.101 424.195 105.201 424.255C105.301 424.305 105.261 424.455 105.171 424.555C105.101 424.665 105.031 424.765 104.961 424.845C104.901 424.895 104.851 424.935 104.811 424.955L104.781 424.965L104.681 425.185C104.601 425.345 104.541 425.515 104.501 425.685C104.421 426.065 104.531 426.445 104.761 426.765L104.841 426.875L104.991 427.085C105.001 427.095 104.991 427.095 104.991 427.095V427.105C104.991 427.115 105.001 427.115 105.021 427.125C105.041 427.135 105.151 427.165 105.181 427.265C105.191 427.295 105.191 427.335 105.111 427.295C104.951 427.205 104.961 427.215 104.951 427.255L104.961 427.285C104.971 427.325 104.941 427.325 104.931 427.305C104.571 427.275 104.191 427.205 103.851 427.325C103.691 427.375 103.511 427.435 103.401 427.555C103.321 427.645 103.241 427.745 103.181 427.845L102.951 428.185C102.951 428.195 102.941 428.185 102.941 428.185C102.931 428.185 102.921 428.165 102.921 428.155C102.911 428.125 102.911 428.055 102.931 428.075C102.951 428.135 102.851 428.375 102.761 428.375C102.741 428.375 102.711 428.375 102.691 428.375C102.601 428.305 102.491 428.215 102.381 428.085C102.371 428.075 102.381 428.045 102.371 428.035C102.281 427.945 101.971 427.955 101.571 428.195C101.221 428.415 101.071 428.725 101.171 428.995C101.271 429.295 101.391 429.565 101.501 429.835L101.471 429.925Z" fill="white"/>
<path d="M632.042 47.2891C631.918 47.4542 631.753 47.5506 631.602 47.6882C631.698 47.4542 631.781 47.1927 631.919 47C632.373 46.3532 632.827 45.6926 633.281 45.0319C633.487 44.2474 634.685 43.6006 634.382 42.7335C634.368 42.6922 634.63 42.2518 634.781 42.0729C635.057 41.7426 635.373 41.3572 635.648 41.1921C636.35 40.7379 636.653 39.7883 637.176 39.1276C637.259 39.0175 637.341 38.9074 637.424 38.7973C637.575 38.5771 637.782 38.0954 637.809 37.7238C637.905 36.9118 637.616 36.1961 637.176 35.7006C636.736 35.1914 636.089 34.9299 635.511 34.8886C635.387 34.8886 635.18 34.8886 635.139 34.9024L635.001 34.9575L634.726 35.0675C634.478 35.1776 634.052 35.3015 633.776 35.274C632.304 35.0951 630.873 35.4116 629.427 35.2465C628.808 35.1776 627.969 35.0951 627.707 34.8886C626.95 34.3381 626.207 34.5033 625.436 34.751C625.133 34.8473 624.817 34.9162 624.5 34.9575L624.005 35.0125L623.757 35.0262C623.785 35.0262 623.812 35.04 623.853 35.0538C623.991 35.1226 624.06 35.2327 624.074 35.3566C624.087 35.4254 624.046 35.5217 624.046 35.5355L624.335 35.1088C624.665 34.6409 625.271 34.3243 625.491 33.8977C625.725 33.4435 625.574 32.9618 625.753 32.4526C626.056 31.558 626.248 30.6083 627.157 29.7413C627.432 29.4798 627.693 29.0118 627.941 28.6265C628.299 28.0897 628.67 27.7319 629.111 27.3465C629.964 26.5895 630.666 25.4885 631.065 24.3187C631.313 23.6167 631.602 22.8873 631.795 22.1992C631.987 21.5248 632.318 20.8779 632.758 20.3136C633.694 19.13 634.327 17.8638 634.974 16.5701C635.703 15.125 636.378 13.6386 637.231 12.2623C638.69 9.9226 639.984 7.50031 641.553 5.20189C642.268 4.15591 642.86 2.99982 643.479 1.87126C643.534 1.74739 643.768 1.38955 643.989 1.23816C644.223 1.04548 644.47 0.949135 644.567 0.880321C644.842 0.687639 645.048 0.563777 645.048 0.412385C645.062 0.274755 644.87 0.0820721 644.415 0.0132572C643.975 -0.0417946 643.245 0.0545432 642.585 0.68764C642.433 0.866559 642.268 1.05925 642.089 1.25193C641.993 1.37579 641.897 1.51342 641.787 1.66481C640.011 4.45869 638.153 7.2113 636.433 10.0327C634.52 13.1707 632.634 16.3499 630.886 19.5429C629.042 22.9286 626.895 26.1629 625.009 29.5073C624.335 30.7047 623.578 31.8745 622.959 33.0719C622.684 33.6087 622.395 34.1317 622.119 34.6547C621.899 35.1777 621.995 35.797 622.312 36.2374C622.601 36.6916 623.207 36.9668 623.675 36.9531C624.776 36.9531 625.877 36.9806 626.978 37.0219C627.803 37.0632 628.643 37.1045 629.469 37.1045L634.162 37.1182H634.754H635.043C635.098 37.1182 635.098 37.1182 635.125 37.132C635.194 37.1457 635.263 37.2558 635.249 37.3247C635.249 37.3522 635.235 37.366 635.222 37.3935L635.07 37.6412L634.767 38.1504L634.162 39.1551L631.905 42.9262L627.363 50.5234L625.216 54.0604L624.142 55.8359L623.881 56.2763C623.771 56.469 623.606 56.813 623.633 57.1571C623.647 57.8453 624.115 58.4095 624.721 58.616C625.023 58.7261 625.381 58.7398 625.698 58.616C626 58.5196 626.289 58.2581 626.372 58.1893L627.143 57.5012L628.684 56.1111C629.703 55.189 630.721 54.2394 631.712 53.2897C632.111 52.9044 632.538 52.5465 632.951 52.2025L656.513 32.081L658.467 30.4294L659.444 29.6037L659.926 29.1908L660.188 28.9705C660.353 28.8192 660.504 28.6402 660.601 28.42C661.027 27.5667 660.683 26.4794 659.816 26.039C659.61 25.9289 659.376 25.8601 659.155 25.8326L658.839 25.7913L658.206 25.7225L655.66 25.4472L650.567 24.8967L648.021 24.6214L647.705 24.5939L647.677 24.7728L647.663 24.8004C647.65 24.8141 647.705 24.7591 647.691 24.7728C647.691 24.7728 647.622 24.7728 647.65 24.7728C647.705 24.8004 647.595 24.7591 647.842 24.8829L648.062 24.649L658.206 14.0652L661.922 10.1566L663.78 8.21599L664.716 7.25258L665.184 6.77087L665.431 6.50937C665.583 6.34422 665.707 6.13778 665.789 5.91757C666.037 5.22942 665.817 4.43117 665.239 3.97699C664.991 3.74302 664.509 3.61916 664.33 3.60539L663.821 3.52282L661.77 3.1925L657.669 2.53188L649.48 1.19687C648.475 1.03172 647.471 0.90785 646.466 0.797746C646.136 0.756457 645.737 0.783984 645.475 0.852799C644.856 1.00419 644.677 1.596 645.158 1.9676C645.571 2.28415 646.081 2.58693 646.645 2.86219C646.769 2.93101 647.237 2.80714 647.553 2.83467C647.994 2.87596 648.654 2.91724 648.847 3.04111C649.48 3.48152 650.361 3.48152 651.118 3.63291C653.182 4.03204 655.274 4.38989 657.352 4.74772C658.343 4.92664 659.348 5.14685 660.133 4.80278C660.188 4.77525 660.711 4.88535 660.752 4.95417C661.096 5.44964 662.046 5.60102 662.775 5.69736C663.064 5.73865 663.353 5.7937 663.656 5.84875C663.78 5.87628 664 5.91757 664.055 5.93133C663.959 5.91757 663.835 5.87629 663.739 5.79371C663.546 5.64232 663.491 5.40834 663.56 5.20189C663.601 5.09179 663.67 5.00921 663.739 4.96792C663.807 4.91287 663.725 5.03674 663.697 5.07803L663.615 5.25696C663.16 6.31671 662.445 6.94979 661.55 7.3902C660.807 7.74804 660.16 8.31234 659.513 9.00049C658.178 10.4043 656.829 11.7944 655.55 13.2395C654.311 14.6158 653.058 15.937 651.696 17.1757C650.21 18.5382 648.737 19.942 647.512 21.5386C647.251 21.8826 646.975 22.2129 646.7 22.5432L646.273 23.0387L645.998 23.3553C645.819 23.5617 645.682 23.8232 645.599 24.0985C645.241 25.2133 645.874 26.4657 647.003 26.8235C647.14 26.8648 647.278 26.8923 647.416 26.9199L647.608 26.9474L647.939 26.9887L648.585 27.0575C649.397 27.1538 650.223 27.1676 651.035 27.2089C651.118 27.2089 651.187 27.0988 651.228 27.03C651.242 27.0024 651.118 26.9336 651.049 26.9336L650.223 26.8511C650.141 26.8373 650.044 26.8098 650.003 26.7685C649.962 26.7409 649.976 26.6996 649.962 26.6584C650.581 26.6859 651.187 26.6997 651.806 26.7547C652.191 26.7822 652.439 26.9061 652.522 27.1125C652.632 27.4016 653.045 27.608 653.692 27.6218C654.655 27.6355 655.481 27.8695 656.362 28.0484C656.843 28.1448 657.339 28.2136 657.834 28.2686L658.577 28.3512L658.77 28.3787C658.839 28.3787 658.921 28.3925 658.825 28.3925C658.729 28.3787 658.605 28.3237 658.509 28.2549C658.206 28.0209 658.206 27.6768 658.275 27.3878C658.302 27.1814 658.55 26.9474 658.261 27.1814C658.096 27.3052 657.944 27.4429 657.793 27.5805C657.49 27.8558 657.215 28.1448 656.94 28.4475C656.389 29.0394 655.866 29.6449 655.219 30.1542C655.082 30.2643 654.999 30.5395 654.903 30.7185C654.765 31.0075 654.545 31.2827 654.228 31.3791C653.003 31.6956 651.916 32.7003 650.843 33.705C650.457 34.0629 649.797 34.6684 649.81 34.7923C649.865 35.2465 649.425 35.6456 648.957 36.0722C648.352 36.609 647.911 36.7742 647.374 36.7742C646.741 36.7742 645.544 37.9027 645.255 38.6597C646.081 38.6046 645.255 39.1964 644.911 39.568C644.484 40.036 644.016 40.4764 643.562 40.9306C643.149 41.3435 642.764 41.6738 642.392 41.5774C642.089 41.4949 641.621 41.6875 641.181 42.0867C639.598 43.518 637.892 44.7154 636.226 46.0091C632.896 48.5966 629.744 51.4593 626.565 54.2669C626.124 54.666 625.684 55.0514 625.257 55.4643L624.624 56.0974C624.184 56.5103 624.803 55.9735 625.202 56.0974C625.808 56.2075 626.124 56.5653 626.124 57.2122C626.111 57.3636 626.069 57.5012 626.014 57.5838C625.959 57.6663 626 57.5975 626.028 57.5425L626.111 57.3911L626.468 56.7993C628.037 54.1981 629.593 51.5693 631.23 49.0232C632.125 47.6331 632.772 46.3257 633.198 44.9356C633.033 45.8164 632.579 46.5734 632.042 47.2891ZM640.039 43.7382C640.107 43.7657 639.942 44.0685 639.832 44.2475C639.461 44.8117 638.938 45.0595 638.442 45.2521C638.332 45.2934 638.222 45.2384 638.208 45.1696C638.194 45.1008 638.291 44.9218 638.387 44.8255C638.69 44.5089 639.02 44.2062 639.461 43.7933C639.64 43.7795 639.915 43.6832 640.039 43.7382ZM646.631 23.4654C646.659 23.4378 646.741 23.4791 646.727 23.5204C646.7 23.6443 646.714 23.7681 646.576 23.9195C646.259 24.2636 646.163 24.8279 646.273 25.2546C646.37 25.695 646.631 26.0528 646.893 26.3418C646.948 26.4106 646.562 26.3556 646.383 26.1629C645.998 25.7775 645.64 25.1169 645.984 24.181C646.039 24.0709 646.136 23.892 646.301 23.7269C646.48 23.5479 646.507 23.5617 646.631 23.4654ZM658.22 27.9796C658.164 27.9659 658.109 27.897 658.137 27.8695C658.164 27.842 658.261 27.7869 658.316 27.8007L658.976 27.897C658.976 27.9108 658.88 27.897 658.839 27.8558C658.825 27.842 658.784 27.842 658.756 27.8282C658.729 27.8695 658.715 27.9383 658.743 27.9796C658.77 28.0897 659.155 28.131 658.715 28.0897C658.536 28.0622 658.371 28.0209 658.22 27.9796Z" fill="white"/>
<path d="M571.092 355.157C571.092 354.668 571.17 354.178 571.192 353.678C571.348 352.054 571.749 350.407 572.527 348.895C572.705 348.572 572.872 348.227 573.072 347.904C573.517 347.293 574.029 346.725 574.607 346.247C574.708 346.158 574.841 346.091 574.897 345.969C575.219 345.368 575.82 345.057 576.365 344.734C576.943 344.4 577.5 344.022 578.089 343.733C578.356 343.588 578.634 343.422 578.968 343.321C579.279 343.221 579.613 343.11 579.969 343.221C580.192 343.277 580.459 343.166 580.681 343.054C581.048 342.865 581.437 342.899 581.827 342.932C582.694 343.066 583.573 342.965 584.43 343.177C584.719 343.255 584.997 343.355 585.275 343.455C585.375 343.488 585.475 343.555 585.576 343.555C586.299 343.577 586.91 343.989 587.556 344.234C588.59 344.59 589.402 345.357 590.236 346.013C591.493 347.07 592.606 348.327 593.362 349.818C593.551 350.229 593.718 350.652 593.885 351.075C593.996 351.52 594.119 351.942 594.208 352.41C594.408 353.767 593.952 355.057 593.318 356.103C593.106 356.459 592.94 356.837 592.706 357.171C592.083 358.083 591.149 358.65 590.381 359.362C589.792 359.907 589.102 360.308 588.39 360.664C588.156 360.775 587.9 360.875 587.667 360.975C586.91 361.342 586.121 361.642 585.309 361.876C584.374 362.154 583.395 362.354 582.383 362.377C581.248 362.399 580.025 362.154 579.013 361.431C577.833 360.641 577.233 359.151 576.955 358.005C576.354 356.014 576.22 353.811 576.832 351.687C576.932 351.342 577.11 351.008 577.266 350.685C577.433 350.363 577.711 350.096 577.945 349.829C578.234 349.562 578.534 349.306 578.812 349.039C579.146 348.828 579.413 348.505 579.791 348.361C580.859 347.749 582.216 347.782 583.295 348.238C584.052 348.594 584.73 349.028 585.342 349.54C585.576 349.751 585.843 349.94 586.087 350.129C586.321 350.352 586.554 350.563 586.788 350.797C586.955 350.964 587.066 351.219 587.177 351.431C587.622 352.343 587.589 353.5 587.022 354.301C586.955 354.39 586.855 354.445 586.777 354.512C585.976 355.202 584.975 355.435 584.018 355.636C583.774 355.68 583.551 355.791 583.317 355.847C583.262 355.858 583.139 355.791 583.139 355.758C583.139 355.636 583.128 355.48 583.173 355.413C583.24 355.313 583.351 355.257 583.462 355.224C583.996 355.079 584.53 354.89 585.008 354.657C585.208 354.557 585.386 354.445 585.564 354.323C586.032 354.011 586.343 353.644 586.399 353.277C586.577 352.599 585.765 351.52 584.908 350.797C583.518 349.551 581.593 348.906 580.092 349.729C579.947 349.829 579.813 349.929 579.68 350.04C579.546 350.152 579.457 350.307 579.335 350.418C578.245 351.542 577.956 353.422 578.089 355.168C578.167 356.058 578.323 356.948 578.579 357.827C578.779 358.784 579.068 359.407 579.591 359.941C580.236 360.619 581.259 360.975 582.372 360.975C583.985 360.975 585.653 360.419 587.166 359.651C588.679 358.884 590.114 357.894 591.238 356.637C592.372 355.357 593.195 353.767 592.739 352.221C592.361 350.585 591.416 349.106 590.203 347.893C588.412 346.18 586.087 344.912 583.607 344.523C582.728 344.356 581.838 344.445 580.981 344.523C580.158 344.656 579.413 344.812 578.623 345.179C578.467 345.246 578.301 345.301 578.145 345.379C577.099 345.891 576.154 346.536 575.353 347.304C574.719 347.927 574.196 348.65 573.773 349.451C573.395 350.263 573.061 351.119 572.85 352.031C572.483 353.489 572.405 355.024 572.372 356.559C572.372 357.36 572.383 358.15 572.405 358.95C572.405 359.173 572.349 359.395 572.271 359.618C572.216 359.763 572.082 359.907 571.838 359.885C571.615 359.874 571.493 359.763 571.459 359.596C571.348 358.995 571.159 358.394 571.126 357.782C571.014 356.915 571.059 356.036 571.092 355.157Z" fill="white"/>
<path d="M581.659 376.87C581.648 376.826 581.648 376.781 581.637 376.726C581.604 376.57 581.648 376.414 581.682 376.269C581.693 376.236 581.648 376.203 581.659 376.169C581.682 376.103 581.715 376.036 581.737 375.969C581.737 375.958 581.771 375.947 581.726 375.936C581.47 375.869 581.548 375.813 581.548 375.758C581.548 375.702 581.459 375.635 581.426 375.569C581.392 375.513 581.226 375.446 581.515 375.402C581.604 375.391 581.548 375.357 581.47 375.335C581.348 375.291 581.37 375.268 581.437 375.235C581.582 375.157 581.392 375.079 581.437 375.001C581.448 374.979 581.481 374.946 581.493 374.924C581.504 374.912 581.537 374.901 581.515 374.89C581.315 374.823 581.504 374.768 581.437 374.701C581.337 374.601 581.526 374.512 581.559 374.412C581.615 374.267 581.604 374.111 581.615 373.967C581.626 373.889 581.626 373.811 581.648 373.722C581.671 373.611 581.704 373.5 581.715 373.4C581.715 373.366 581.659 373.322 581.626 373.288C581.559 373.188 581.793 373.099 581.704 372.999C581.637 372.921 581.682 372.854 581.726 372.777C581.737 372.754 581.782 372.732 581.793 372.71C581.815 372.632 581.826 372.554 581.837 372.476C581.837 372.387 581.826 372.298 581.815 372.209C581.804 372.109 581.815 372.009 581.804 371.898C581.782 371.775 581.782 371.664 581.715 371.542C581.604 371.342 581.704 371.153 581.704 370.963C581.704 370.897 581.748 370.841 581.882 370.785C582.026 370.719 581.96 370.652 581.893 370.585C581.793 370.474 581.815 370.374 581.915 370.274C581.982 370.207 582.06 370.129 582.071 370.062C582.082 370.007 581.993 369.94 581.971 369.884C581.96 369.862 581.982 369.84 582.015 369.818C582.138 369.74 582.382 369.662 582.338 369.573C582.338 369.562 582.382 369.551 582.394 369.551C582.538 369.462 582.683 369.373 582.805 369.273C582.838 369.25 582.783 369.228 582.794 369.195C582.794 369.184 582.894 369.184 582.916 369.184C583.039 369.195 583.194 369.195 583.25 369.206C583.328 369.217 583.361 369.228 583.361 369.239C583.361 369.295 583.35 369.362 583.35 369.417C583.35 369.439 583.361 369.462 583.35 369.495C583.339 369.562 583.328 369.629 583.328 369.695C583.328 369.818 583.306 369.94 583.328 370.074C583.361 370.274 583.295 370.474 583.261 370.674C583.25 370.719 583.317 370.763 583.317 370.797C583.239 371.164 583.361 371.542 583.317 371.909C583.306 372.031 583.239 372.143 583.228 372.265C583.206 372.443 583.228 372.61 583.217 372.788C583.206 372.966 583.161 373.133 583.128 373.311C583.094 373.489 583.072 373.667 583.05 373.844C583.028 374.022 583.039 374.2 583.016 374.367C582.983 374.623 582.928 374.868 582.894 375.124C582.883 375.213 582.961 375.302 582.972 375.402C582.983 375.491 582.95 375.569 582.939 375.658C582.939 375.68 582.927 375.691 582.927 375.713C582.95 375.836 582.994 375.947 582.994 376.069C583.005 376.258 583.016 376.447 582.961 376.637C582.916 376.781 582.939 376.937 582.939 377.093C582.939 377.171 582.939 377.248 582.916 377.326C582.905 377.349 582.839 377.371 582.75 377.382C582.694 377.393 582.549 377.404 582.305 377.393C582.082 377.382 581.971 377.371 581.937 377.349C581.849 377.282 581.704 377.226 581.67 377.159C581.637 377.037 581.671 376.959 581.659 376.87C581.671 376.87 581.671 376.87 581.659 376.87Z" fill="white"/>
<path d="M601.973 370.919C601.929 370.897 601.896 370.864 601.851 370.841C601.706 370.763 601.606 370.63 601.506 370.496C601.484 370.463 601.428 370.474 601.406 370.441C601.362 370.385 601.328 370.307 601.295 370.241C601.284 370.229 601.295 370.196 601.262 370.229C601.039 370.374 601.05 370.274 601.006 370.241C600.95 370.196 600.85 370.218 600.772 370.207C600.705 370.196 600.55 370.274 600.694 370.018C600.739 369.94 600.683 369.962 600.616 370.007C600.505 370.074 600.494 370.04 600.505 369.962C600.538 369.807 600.349 369.896 600.316 369.807C600.305 369.773 600.294 369.74 600.294 369.707C600.294 369.696 600.305 369.662 600.283 369.673C600.094 369.785 600.171 369.595 600.082 369.595C599.938 369.595 599.982 369.395 599.927 369.306C599.838 369.162 599.715 369.073 599.604 368.961C599.548 368.895 599.482 368.839 599.426 368.772C599.348 368.683 599.293 368.583 599.204 368.494C599.181 368.472 599.103 368.494 599.059 368.483C598.937 368.472 599.014 368.227 598.881 368.227C598.781 368.227 598.747 368.138 598.714 368.06C598.703 368.038 598.714 367.982 598.703 367.96C598.647 367.893 598.603 367.827 598.536 367.771C598.469 367.704 598.38 367.66 598.303 367.604C598.214 367.537 598.136 367.46 598.047 367.404C597.935 367.337 597.846 367.259 597.702 367.237C597.468 367.193 597.379 366.992 597.224 366.848C597.179 366.803 597.146 366.725 597.19 366.581C597.235 366.425 597.123 366.436 597.023 366.436C596.868 366.447 596.801 366.358 596.79 366.214C596.779 366.114 596.767 366.014 596.712 365.958C596.667 365.913 596.567 365.936 596.5 365.925C596.478 365.913 596.478 365.88 596.478 365.847C596.489 365.691 596.567 365.457 596.467 365.424C596.456 365.424 596.478 365.379 596.478 365.368C596.489 365.201 596.501 365.023 596.478 364.857C596.467 364.812 596.423 364.834 596.4 364.812C596.4 364.812 596.434 364.723 596.456 364.701C596.523 364.601 596.612 364.467 596.656 364.434C596.712 364.378 596.745 364.367 596.756 364.367C596.823 364.412 596.89 364.478 596.945 364.523L597.012 364.567L597.168 364.723C597.279 364.812 597.368 364.912 597.491 364.979C597.691 365.09 597.813 365.279 597.958 365.435C597.991 365.468 598.069 365.446 598.091 365.48C598.347 365.791 598.736 365.947 599.003 366.225C599.092 366.314 599.148 366.447 599.237 366.536C599.37 366.67 599.526 366.77 599.649 366.903C599.782 367.037 599.893 367.182 600.016 367.326L600.405 367.749C600.538 367.882 600.683 368.005 600.817 368.138C601.006 368.338 601.172 368.561 601.362 368.75C601.428 368.817 601.551 368.828 601.629 368.883C601.706 368.939 601.751 369.017 601.818 369.084C601.829 369.095 601.84 369.117 601.851 369.128C601.962 369.195 602.085 369.239 602.185 369.317C602.34 369.44 602.507 369.551 602.619 369.729C602.708 369.873 602.852 369.951 602.975 370.051C603.041 370.107 603.108 370.163 603.153 370.229C603.164 370.252 603.13 370.318 603.097 370.396C603.064 370.452 602.986 370.563 602.819 370.741C602.663 370.908 602.574 370.986 602.552 370.986C602.441 371.019 602.307 371.075 602.229 371.064C602.085 371.053 602.04 370.975 601.973 370.919Z" fill="white"/>
<path d="M608.947 353.189C608.902 353.2 608.858 353.2 608.802 353.211C608.647 353.244 608.491 353.2 608.346 353.166C608.313 353.155 608.279 353.2 608.246 353.189C608.179 353.166 608.113 353.133 608.046 353.1C608.035 353.1 608.024 353.066 608.013 353.111C607.946 353.367 607.89 353.278 607.835 353.278C607.768 353.278 607.712 353.367 607.645 353.4C607.59 353.433 607.523 353.6 607.479 353.311C607.467 353.222 607.434 353.278 607.412 353.355C607.367 353.478 607.334 353.456 607.312 353.389C607.245 353.244 607.156 353.433 607.078 353.389C607.056 353.378 607.022 353.344 607 353.333C606.989 353.322 606.978 353.289 606.967 353.311C606.889 353.511 606.844 353.322 606.778 353.389C606.678 353.489 606.589 353.3 606.489 353.255C606.344 353.2 606.188 353.211 606.044 353.189C605.966 353.177 605.888 353.166 605.799 353.155C605.688 353.133 605.588 353.088 605.476 353.077C605.443 353.077 605.398 353.133 605.365 353.166C605.265 353.233 605.176 352.999 605.076 353.077C604.998 353.144 604.931 353.088 604.853 353.044C604.831 353.033 604.809 352.988 604.787 352.977C604.709 352.955 604.631 352.933 604.553 352.933C604.464 352.933 604.375 352.944 604.286 352.944C604.186 352.944 604.086 352.944 603.975 352.955C603.852 352.966 603.741 352.977 603.619 353.033C603.418 353.144 603.229 353.044 603.04 353.033C602.973 353.033 602.918 352.988 602.862 352.855C602.807 352.71 602.729 352.777 602.662 352.844C602.551 352.944 602.451 352.922 602.35 352.821C602.284 352.755 602.217 352.677 602.139 352.666C602.083 352.655 602.017 352.744 601.961 352.766C601.939 352.777 601.917 352.755 601.894 352.721C601.817 352.599 601.739 352.354 601.65 352.388C601.639 352.388 601.627 352.343 601.627 352.332C601.538 352.187 601.449 352.043 601.36 351.92C601.338 351.887 601.316 351.943 601.283 351.932C601.271 351.932 601.271 351.831 601.271 351.809C601.283 351.687 601.294 351.531 601.305 351.476C601.316 351.398 601.338 351.364 601.349 351.364C601.405 351.364 601.472 351.375 601.527 351.386C601.55 351.386 601.572 351.375 601.605 351.386C601.672 351.398 601.739 351.409 601.805 351.409C601.928 351.42 602.05 351.431 602.184 351.42C602.384 351.386 602.584 351.453 602.784 351.487C602.829 351.498 602.873 351.431 602.907 351.442C603.274 351.52 603.652 351.409 604.019 351.453C604.141 351.464 604.253 351.531 604.375 351.553C604.553 351.576 604.72 351.553 604.898 351.576C605.076 351.598 605.243 351.642 605.41 351.665C605.588 351.698 605.765 351.731 605.943 351.754C606.121 351.776 606.299 351.776 606.466 351.798C606.722 351.831 606.967 351.898 607.223 351.932C607.312 351.943 607.412 351.865 607.501 351.865C607.59 351.854 607.668 351.887 607.757 351.898C607.779 351.898 607.79 351.909 607.812 351.909C607.935 351.887 608.046 351.843 608.168 351.843C608.357 351.831 608.546 351.82 608.736 351.887C608.88 351.943 609.036 351.909 609.192 351.909C609.27 351.909 609.347 351.909 609.425 351.932C609.447 351.943 609.47 352.009 609.481 352.098C609.492 352.154 609.492 352.299 609.481 352.543C609.47 352.766 609.447 352.877 609.436 352.91C609.37 352.999 609.303 353.144 609.247 353.166C609.103 353.211 609.025 353.177 608.947 353.189C608.947 353.177 608.947 353.177 608.947 353.189Z" fill="white"/>
<path d="M598.656 331.03C598.645 331.074 598.623 331.119 598.611 331.163C598.567 331.319 598.467 331.43 598.367 331.552C598.344 331.575 598.367 331.63 598.344 331.653C598.3 331.708 598.233 331.742 598.178 331.797C598.166 331.808 598.133 331.797 598.166 331.831C598.367 332.008 598.267 332.02 598.244 332.075C598.222 332.131 598.267 332.22 598.267 332.298C598.278 332.364 598.389 332.498 598.111 332.409C598.022 332.376 598.066 332.431 598.122 332.487C598.211 332.576 598.178 332.598 598.111 332.598C597.955 332.598 598.077 332.765 598.011 332.809C597.988 332.821 597.955 332.843 597.922 332.854C597.911 332.854 597.866 332.854 597.888 332.876C598.044 333.032 597.844 332.999 597.866 333.088C597.911 333.221 597.699 333.221 597.621 333.288C597.51 333.399 597.455 333.532 597.366 333.655C597.321 333.722 597.277 333.788 597.232 333.855C597.165 333.944 597.076 334.022 597.021 334.111C596.999 334.144 597.043 334.2 597.043 334.256C597.054 334.378 596.809 334.345 596.843 334.478C596.865 334.578 596.787 334.623 596.72 334.656C596.698 334.667 596.643 334.667 596.631 334.689C596.576 334.745 596.531 334.812 596.487 334.878C596.442 334.956 596.42 335.045 596.376 335.134C596.331 335.223 596.287 335.312 596.253 335.412C596.22 335.524 596.164 335.635 596.175 335.768C596.186 335.991 596.008 336.124 595.92 336.291C595.886 336.347 595.819 336.38 595.675 336.369C595.519 336.358 595.552 336.458 595.575 336.547C595.619 336.692 595.552 336.769 595.419 336.814C595.33 336.847 595.23 336.87 595.185 336.936C595.152 336.981 595.196 337.081 595.196 337.148C595.196 337.17 595.163 337.181 595.13 337.181C594.985 337.203 594.74 337.159 594.729 337.259C594.729 337.27 594.685 337.259 594.674 337.259C594.507 337.281 594.34 337.292 594.184 337.315C594.151 337.326 594.184 337.37 594.162 337.381C594.162 337.381 594.073 337.348 594.051 337.337C593.951 337.281 593.806 337.192 593.761 337.159C593.695 337.114 593.684 337.081 593.684 337.07C593.706 337.014 593.75 336.97 593.773 336.925C593.784 336.903 593.784 336.881 593.806 336.858C593.839 336.803 593.884 336.747 593.917 336.692C593.973 336.58 594.051 336.48 594.084 336.358C594.14 336.158 594.295 336.013 594.418 335.846C594.44 335.813 594.407 335.746 594.429 335.713C594.662 335.424 594.729 335.034 594.929 334.723C594.996 334.623 595.107 334.545 595.174 334.445C595.263 334.3 595.33 334.133 595.419 333.989C595.508 333.844 595.63 333.71 595.73 333.566C595.842 333.421 595.942 333.277 596.042 333.132C596.142 332.987 596.209 332.821 596.309 332.676C596.453 332.465 596.62 332.264 596.765 332.053C596.809 331.975 596.787 331.864 596.821 331.775C596.854 331.697 596.909 331.63 596.965 331.564C596.976 331.552 596.998 331.541 596.998 331.519C597.032 331.408 597.043 331.285 597.099 331.174C597.176 331.007 597.243 330.829 597.388 330.685C597.499 330.574 597.544 330.418 597.61 330.295C597.644 330.229 597.677 330.151 597.733 330.095C597.744 330.084 597.822 330.095 597.911 330.117C597.966 330.14 598.1 330.195 598.311 330.318C598.511 330.429 598.6 330.496 598.611 330.518C598.667 330.618 598.756 330.729 598.767 330.807C598.745 330.896 598.678 330.952 598.656 331.03C598.645 331.03 598.645 331.03 598.656 331.03Z" fill="white"/>
<path d="M579.446 329.36C579.457 329.405 579.468 329.438 579.491 329.483C579.546 329.616 579.535 329.772 579.524 329.917C579.524 329.95 579.569 329.972 579.557 330.006C579.546 330.072 579.524 330.139 579.513 330.206C579.513 330.217 579.48 330.239 579.535 330.239C579.791 330.261 579.724 330.328 579.735 330.384C579.746 330.439 579.835 330.484 579.891 330.539C579.936 330.584 580.102 330.617 579.824 330.706C579.735 330.74 579.802 330.751 579.88 330.762C580.013 330.784 579.991 330.818 579.936 330.851C579.802 330.94 580.002 330.996 579.969 331.073C579.958 331.096 579.936 331.129 579.925 331.151C579.913 331.162 579.88 331.174 579.913 331.185C580.125 331.218 579.947 331.296 580.013 331.351C580.125 331.429 579.958 331.541 579.936 331.641C579.902 331.785 579.936 331.919 579.947 332.063C579.947 332.141 579.958 332.219 579.947 332.297C579.936 332.397 579.913 332.508 579.925 332.608C579.925 332.642 579.991 332.675 580.025 332.698C580.102 332.775 579.88 332.898 579.98 332.976C580.058 333.042 580.013 333.109 579.98 333.187C579.969 333.209 579.925 333.243 579.925 333.265C579.913 333.343 579.913 333.409 579.913 333.487C579.924 333.576 579.947 333.654 579.969 333.743C579.991 333.843 579.991 333.932 580.025 334.032C580.058 334.144 580.08 334.255 580.158 334.355C580.292 334.522 580.225 334.722 580.236 334.9C580.236 334.956 580.203 335.022 580.08 335.089C579.947 335.167 580.025 335.223 580.102 335.278C580.214 335.367 580.203 335.467 580.114 335.567C580.047 335.645 579.991 335.712 579.98 335.79C579.98 335.846 580.069 335.901 580.102 335.957C580.114 335.979 580.091 336.001 580.058 336.024C579.947 336.113 579.713 336.201 579.746 336.29C579.746 336.302 579.702 336.313 579.691 336.324C579.557 336.391 579.413 336.557 579.29 336.513C579.279 336.502 579.29 336.502 579.302 336.513C579.324 336.524 579.279 336.491 579.413 336.569C579.413 336.569 579.513 336.635 579.535 336.658C579.502 336.635 579.457 336.602 579.446 336.591C579.368 336.535 579.268 336.48 579.168 336.446C579.046 336.402 578.912 336.368 578.768 336.368C578.734 336.391 578.745 336.424 578.745 336.457C578.745 336.513 578.756 336.435 578.756 336.435C578.756 336.424 578.745 336.402 578.745 336.379C578.745 336.335 578.768 336.302 578.756 336.235C578.756 336.124 578.756 336.012 578.734 335.912C578.679 335.734 578.723 335.545 578.734 335.356C578.734 335.323 578.668 335.289 578.668 335.245C578.701 334.9 578.534 334.566 578.523 334.221C578.523 334.11 578.567 333.988 578.567 333.877C578.556 333.71 578.523 333.554 578.512 333.398C578.501 333.231 578.523 333.076 578.523 332.909C578.523 332.742 578.534 332.575 578.523 332.408C578.512 332.241 578.489 332.086 578.478 331.919C578.478 331.674 578.501 331.44 578.489 331.196C578.489 331.107 578.401 331.04 578.378 330.951C578.356 330.873 578.367 330.795 578.367 330.706C578.367 330.695 578.378 330.673 578.367 330.662C578.323 330.562 578.267 330.45 578.245 330.35C578.211 330.172 578.156 330.006 578.189 329.828C578.211 329.683 578.156 329.549 578.145 329.405C578.134 329.327 578.122 329.26 578.134 329.182C578.134 329.16 578.2 329.138 578.289 329.104C578.345 329.082 578.478 329.06 578.723 329.027C578.946 329.004 579.057 328.993 579.09 329.004C579.19 329.049 579.335 329.082 579.379 329.138C579.446 329.193 579.424 329.282 579.446 329.36Z" fill="white"/>
<path d="M560.925 342.253C560.981 342.264 561.025 342.287 561.081 342.298C561.259 342.331 561.403 342.431 561.548 342.531C561.581 342.554 561.637 342.531 561.659 342.554C561.726 342.598 561.782 342.665 561.837 342.709C561.848 342.72 561.848 342.754 561.882 342.709C562.049 342.498 562.071 342.598 562.137 342.62C562.204 342.643 562.293 342.587 562.382 342.587C562.46 342.576 562.582 342.454 562.527 342.743C562.505 342.832 562.56 342.787 562.616 342.732C562.705 342.631 562.727 342.665 562.738 342.743C562.76 342.91 562.916 342.765 562.983 342.843C563.005 342.865 563.027 342.898 563.039 342.932C563.05 342.943 563.039 342.987 563.061 342.965C563.205 342.798 563.194 343.01 563.283 342.976C563.428 342.932 563.45 343.143 563.539 343.21C563.673 343.321 563.828 343.366 563.984 343.444C564.062 343.488 564.151 343.521 564.218 343.577C564.318 343.644 564.418 343.722 564.529 343.777C564.563 343.8 564.629 343.755 564.674 343.744C564.807 343.722 564.807 343.977 564.941 343.944C565.041 343.911 565.096 343.989 565.163 344.055C565.185 344.078 565.185 344.133 565.208 344.144C565.286 344.2 565.352 344.244 565.43 344.278C565.519 344.322 565.619 344.345 565.719 344.378C565.831 344.411 565.931 344.467 566.042 344.489C566.175 344.523 566.298 344.567 566.442 344.556C566.687 344.534 566.854 344.701 567.043 344.79C567.11 344.823 567.154 344.879 567.165 345.034C567.177 345.19 567.277 345.157 567.377 345.123C567.521 345.068 567.622 345.134 567.688 345.268C567.733 345.357 567.777 345.457 567.855 345.501C567.911 345.535 568.011 345.479 568.078 345.479C568.1 345.479 568.122 345.513 568.122 345.546C568.167 345.691 568.156 345.946 568.267 345.958C568.278 345.958 568.267 346.002 568.278 346.024C568.322 346.191 568.367 346.369 568.411 346.525C568.422 346.558 568.467 346.525 568.489 346.547C568.489 346.547 568.467 346.647 568.456 346.669C568.4 346.781 568.334 346.925 568.311 346.97C568.267 347.037 568.245 347.059 568.233 347.059C568.167 347.037 568.111 347.003 568.055 346.97C568.033 346.959 568 346.959 567.978 346.948C567.911 346.914 567.844 346.881 567.777 346.847C567.655 346.792 567.533 346.725 567.388 346.692C567.166 346.636 566.976 346.491 566.776 346.38C566.732 346.358 566.665 346.402 566.632 346.38C566.276 346.158 565.842 346.113 565.475 345.924C565.352 345.857 565.252 345.757 565.141 345.691C564.963 345.602 564.774 345.546 564.607 345.457C564.429 345.368 564.273 345.257 564.095 345.168C563.917 345.068 563.75 344.967 563.572 344.879C563.395 344.79 563.216 344.723 563.039 344.623C562.783 344.489 562.549 344.322 562.293 344.2C562.204 344.155 562.082 344.189 561.982 344.155C561.893 344.133 561.815 344.066 561.726 344.022C561.704 344.011 561.693 343.989 561.681 343.989C561.548 343.966 561.414 343.955 561.292 343.911C561.092 343.844 560.892 343.777 560.714 343.644C560.58 343.533 560.402 343.499 560.246 343.432C560.169 343.399 560.08 343.366 560.013 343.31C559.991 343.299 560.002 343.221 560.013 343.132C560.024 343.076 560.068 342.943 560.169 342.72C560.258 342.509 560.324 342.42 560.347 342.398C560.447 342.342 560.558 342.231 560.636 342.231C560.758 342.164 560.836 342.231 560.925 342.253C560.925 342.264 560.925 342.253 560.925 342.253Z" fill="white"/>
<path d="M560.691 371.353C560.725 371.32 560.758 371.287 560.792 371.242C560.892 371.109 561.047 371.031 561.192 370.953C561.225 370.931 561.225 370.886 561.259 370.864C561.326 370.831 561.403 370.808 561.481 370.786C561.492 370.786 561.526 370.797 561.504 370.753C561.392 370.508 561.492 370.541 561.537 370.497C561.581 370.452 561.581 370.341 561.615 370.274C561.637 370.208 561.581 370.041 561.815 370.219C561.893 370.274 561.871 370.208 561.837 370.141C561.793 370.019 561.826 370.019 561.893 370.041C562.049 370.096 561.993 369.896 562.082 369.874C562.115 369.863 562.149 369.863 562.182 369.863C562.193 369.863 562.227 369.885 562.215 369.852C562.138 369.651 562.316 369.752 562.327 369.663C562.349 369.518 562.538 369.596 562.649 369.551C562.805 369.485 562.916 369.373 563.05 369.284C563.116 369.24 563.194 369.184 563.272 369.14C563.372 369.084 563.495 369.04 563.584 368.962C563.617 368.94 563.606 368.862 563.617 368.817C563.65 368.695 563.884 368.817 563.906 368.684C563.929 368.584 564.018 368.572 564.107 368.55C564.14 368.539 564.184 368.561 564.207 368.55C564.285 368.517 564.362 368.472 564.429 368.417C564.507 368.361 564.574 368.283 564.64 368.216C564.718 368.139 564.807 368.072 564.885 367.994C564.974 367.894 565.063 367.816 565.119 367.682C565.208 367.46 565.43 367.404 565.586 367.271C565.642 367.226 565.72 367.215 565.853 367.282C565.998 367.349 566.009 367.249 566.02 367.149C566.042 366.993 566.142 366.948 566.287 366.948C566.387 366.948 566.498 366.959 566.565 366.915C566.621 366.882 566.609 366.77 566.643 366.715C566.654 366.692 566.687 366.692 566.721 366.704C566.865 366.737 567.088 366.87 567.143 366.781C567.143 366.77 567.188 366.804 567.199 366.804C567.366 366.848 567.533 366.893 567.688 366.926C567.733 366.937 567.722 366.882 567.744 366.87C567.755 366.87 567.822 366.937 567.833 366.959C567.911 367.06 568 367.182 568.033 367.226C568.078 367.293 568.078 367.327 568.067 367.338C568.022 367.382 567.966 367.416 567.911 367.449C567.889 367.46 567.878 367.493 567.855 367.504C567.8 367.549 567.733 367.582 567.677 367.627C567.566 367.705 567.455 367.783 567.366 367.883C567.221 368.05 567.01 368.139 566.832 368.261C566.799 368.283 566.799 368.361 566.765 368.383C566.409 368.584 566.187 368.928 565.853 369.151C565.742 369.229 565.608 369.251 565.497 369.329C565.341 369.44 565.208 369.574 565.063 369.685C564.907 369.796 564.741 369.885 564.585 369.974C564.418 370.074 564.251 370.174 564.095 370.285C563.94 370.397 563.795 370.519 563.639 370.619C563.406 370.775 563.161 370.897 562.939 371.053C562.861 371.109 562.827 371.231 562.761 371.298C562.694 371.364 562.605 371.409 562.527 371.453C562.516 371.465 562.494 371.465 562.482 371.476C562.405 371.576 562.327 371.687 562.238 371.776C562.093 371.91 561.949 372.054 561.748 372.143C561.593 372.21 561.492 372.343 561.359 372.443C561.292 372.499 561.237 372.555 561.148 372.588C561.125 372.599 561.059 372.555 560.992 372.499C560.947 372.466 560.847 372.366 560.703 372.165C560.569 371.987 560.502 371.887 560.502 371.854C560.491 371.743 560.458 371.587 560.48 371.52C560.547 371.453 560.636 371.42 560.691 371.353C560.703 371.364 560.691 371.353 560.691 371.353Z" fill="white"/>
</svg>
