<svg width="729" height="729" viewBox="0 0 729 729" fill="none" xmlns="http://www.w3.org/2000/svg">
<path opacity="0.1" d="M364.5 583C362.102 583 359.713 582.961 357.334 582.885L357.27 584.884C352.432 584.728 347.633 584.416 342.879 583.953L343.073 581.963C338.298 581.498 333.568 580.88 328.889 580.113L328.566 582.087C323.793 581.304 319.071 580.369 314.407 579.285L314.859 577.337C310.197 576.254 305.593 575.022 301.05 573.646L300.471 575.56C295.849 574.16 291.293 572.612 286.805 570.922L287.51 569.051C283.035 567.365 278.63 565.538 274.3 563.573L273.474 565.394C269.083 563.401 264.77 561.269 260.539 559.003L261.483 557.24C257.273 554.985 253.145 552.596 249.105 550.078L248.047 551.776C243.959 549.228 239.959 546.55 236.055 543.747L237.222 542.123C233.346 539.34 229.564 536.434 225.884 533.41L224.614 534.955C220.895 531.9 217.278 528.725 213.768 525.436L215.135 523.977C211.656 520.717 208.283 517.344 205.023 513.865L203.564 515.232C200.275 511.722 197.1 508.105 194.045 504.386L195.59 503.116C192.566 499.436 189.66 495.654 186.877 491.778L185.253 492.945C182.45 489.041 179.772 485.041 177.224 480.953L178.922 479.895C176.404 475.855 174.015 471.727 171.76 467.517L169.997 468.461C167.731 464.23 165.599 459.917 163.606 455.526L165.427 454.7C163.462 450.37 161.635 445.965 159.949 441.49L158.078 442.195C156.388 437.707 154.84 433.151 153.44 428.529L155.354 427.95C153.978 423.407 152.746 418.803 151.663 414.141L149.715 414.593C148.631 409.929 147.696 405.207 146.913 400.434L148.887 400.111C148.12 395.432 147.502 390.702 147.037 385.927L145.047 386.121C144.584 381.367 144.272 376.568 144.116 371.73L146.115 371.666C146.039 369.287 146 366.898 146 364.5C146 362.102 146.039 359.713 146.115 357.334L144.116 357.27C144.272 352.432 144.584 347.633 145.047 342.879L147.037 343.073C147.502 338.298 148.12 333.568 148.887 328.889L146.913 328.566C147.696 323.793 148.631 319.071 149.715 314.407L151.663 314.859C152.746 310.197 153.978 305.593 155.354 301.05L153.44 300.471C154.84 295.849 156.388 291.293 158.078 286.805L159.95 287.51C161.635 283.035 163.462 278.63 165.427 274.3L163.606 273.474C165.599 269.083 167.731 264.77 169.997 260.539L171.76 261.483C174.015 257.273 176.404 253.145 178.922 249.105L177.224 248.047C179.772 243.959 182.45 239.959 185.253 236.055L186.877 237.222C189.66 233.346 192.566 229.564 195.59 225.884L194.045 224.614C197.1 220.895 200.275 217.278 203.564 213.768L205.023 215.135C208.283 211.656 211.656 208.283 215.135 205.023L213.768 203.564C217.278 200.275 220.895 197.1 224.614 194.045L225.884 195.59C229.564 192.566 233.346 189.66 237.222 186.877L236.055 185.253C239.959 182.45 243.959 179.772 248.047 177.224L249.105 178.922C253.145 176.404 257.273 174.015 261.483 171.76L260.539 169.997C264.77 167.731 269.083 165.599 273.474 163.606L274.3 165.427C278.63 163.462 283.035 161.635 287.51 159.949L286.805 158.078C291.293 156.388 295.849 154.84 300.471 153.44L301.05 155.354C305.593 153.978 310.197 152.746 314.859 151.663L314.407 149.715C319.071 148.631 323.793 147.696 328.566 146.913L328.889 148.887C333.568 148.12 338.298 147.502 343.073 147.037L342.879 145.047C347.633 144.584 352.432 144.272 357.27 144.116L357.334 146.115C359.713 146.039 362.102 146 364.5 146C366.898 146 369.287 146.039 371.666 146.115L371.73 144.116C376.568 144.272 381.367 144.584 386.121 145.047L385.927 147.037C390.702 147.502 395.432 148.12 400.111 148.887L400.434 146.913C405.207 147.696 409.929 148.631 414.593 149.715L414.141 151.663C418.803 152.746 423.407 153.978 427.95 155.354L428.529 153.44C433.151 154.84 437.707 156.388 442.195 158.078L441.49 159.95C445.965 161.635 450.37 163.463 454.7 165.427L455.526 163.606C459.917 165.599 464.23 167.731 468.461 169.997L467.517 171.76C471.727 174.015 475.855 176.404 479.895 178.922L480.953 177.224C485.041 179.772 489.041 182.45 492.945 185.253L491.778 186.877C495.654 189.66 499.436 192.566 503.116 195.59L504.386 194.045C508.105 197.1 511.722 200.275 515.232 203.564L513.865 205.023C517.344 208.283 520.717 211.656 523.977 215.135L525.436 213.768C528.725 217.278 531.9 220.895 534.955 224.614L533.41 225.884C536.434 229.564 539.34 233.346 542.123 237.222L543.747 236.055C546.55 239.959 549.228 243.959 551.776 248.047L550.078 249.105C552.596 253.145 554.985 257.273 557.24 261.483L559.003 260.539C561.269 264.77 563.401 269.083 565.394 273.474L563.573 274.3C565.538 278.63 567.365 283.035 569.051 287.51L570.922 286.805C572.612 291.293 574.16 295.849 575.56 300.471L573.646 301.05C575.022 305.593 576.254 310.197 577.337 314.859L579.285 314.407C580.369 319.071 581.304 323.793 582.087 328.566L580.113 328.889C580.88 333.568 581.498 338.298 581.963 343.073L583.953 342.879C584.416 347.633 584.728 352.432 584.884 357.27L582.885 357.334C582.961 359.713 583 362.102 583 364.5C583 366.898 582.961 369.287 582.885 371.666L584.884 371.73C584.728 376.568 584.416 381.367 583.953 386.121L581.963 385.927C581.498 390.702 580.88 395.432 580.113 400.111L582.087 400.434C581.304 405.207 580.369 409.929 579.285 414.593L577.337 414.141C576.254 418.803 575.022 423.407 573.646 427.95L575.56 428.529C574.16 433.151 572.612 437.707 570.922 442.195L569.05 441.49C567.365 445.965 565.538 450.37 563.573 454.7L565.394 455.526C563.401 459.917 561.269 464.23 559.003 468.461L557.24 467.517C554.985 471.727 552.596 475.855 550.078 479.895L551.776 480.953C549.228 485.041 546.55 489.041 543.747 492.944L542.123 491.778C539.34 495.654 536.434 499.436 533.41 503.116L534.955 504.386C531.9 508.105 528.725 511.722 525.436 515.232L523.977 513.865C520.717 517.344 517.344 520.717 513.865 523.977L515.232 525.436C511.722 528.725 508.105 531.9 504.386 534.955L503.116 533.41C499.436 536.434 495.654 539.34 491.778 542.123L492.944 543.747C489.041 546.55 485.041 549.228 480.953 551.776L479.895 550.078C475.855 552.596 471.727 554.985 467.517 557.24L468.461 559.003C464.23 561.269 459.917 563.401 455.526 565.394L454.7 563.573C450.37 565.538 445.965 567.365 441.49 569.051L442.195 570.922C437.707 572.612 433.151 574.16 428.529 575.56L427.95 573.646C423.407 575.022 418.803 576.254 414.141 577.337L414.593 579.285C409.929 580.369 405.207 581.304 400.434 582.087L400.111 580.113C395.432 580.88 390.702 581.498 385.927 581.963L386.121 583.953C381.367 584.416 376.568 584.728 371.73 584.884L371.666 582.885C369.287 582.961 366.898 583 364.5 583Z" stroke="#001951" stroke-width="4" stroke-dasharray="15 15"/>
<path opacity="0.2" d="M364.5 727C361.988 727 359.481 726.974 356.981 726.924L356.94 728.923C351.899 728.821 346.883 728.616 341.894 728.31L342.016 726.314C337.014 726.008 332.039 725.601 327.094 725.094L326.89 727.083C321.871 726.569 316.882 725.953 311.926 725.236L312.212 723.257C307.249 722.54 302.318 721.723 297.423 720.807L297.055 722.773C292.102 721.846 287.185 720.819 282.305 719.694L282.754 717.746C277.874 716.621 273.031 715.398 268.228 714.078L267.699 716.006C262.845 714.673 258.031 713.241 253.26 711.714L253.87 709.809C249.104 708.283 244.381 706.662 239.703 704.946L239.014 706.824C234.287 705.091 229.606 703.263 224.974 701.342L225.74 699.494C221.117 697.577 216.542 695.567 212.018 693.467L211.176 695.281C206.613 693.162 202.102 690.952 197.644 688.653L198.561 686.875C194.116 684.582 189.724 682.201 185.389 679.732L184.399 681.47C180.03 678.982 175.717 676.406 171.464 673.746L172.524 672.05C168.286 669.399 164.106 666.662 159.988 663.843L158.858 665.494C154.711 662.654 150.625 659.732 146.603 656.728L147.8 655.126C143.795 652.135 139.854 649.063 135.98 645.913L134.718 647.465C130.819 644.295 126.987 641.046 123.224 637.721L124.549 636.222C120.805 632.913 117.13 629.528 113.526 626.07L112.141 627.513C108.517 624.035 104.965 620.483 101.487 616.859L102.93 615.474C99.4716 611.87 96.0868 608.195 92.7781 604.451L91.2795 605.776C87.9541 602.013 84.7053 598.181 81.5354 594.282L83.0872 593.02C79.9369 589.146 76.865 585.205 73.874 581.2L72.2716 582.397C69.268 578.375 66.3455 574.289 63.5065 570.142L65.1569 569.012C62.3377 564.894 59.6013 560.714 56.9501 556.476L55.2545 557.536C52.5936 553.283 50.018 548.97 47.5302 544.601L49.2682 543.611C46.7994 539.276 44.4176 534.884 42.1249 530.439L40.3475 531.356C38.0481 526.898 35.838 522.387 33.7195 517.824L35.5335 516.982C33.4329 512.458 31.423 507.883 29.5059 503.26L27.6585 504.026C25.7374 499.394 23.9091 494.713 22.1759 489.986L24.0537 489.297C22.3383 484.619 20.7166 479.896 19.1909 475.13L17.2861 475.74C15.759 470.969 14.3274 466.156 12.9936 461.302L14.9222 460.772C13.6025 455.969 12.3792 451.126 11.2544 446.246L9.30553 446.695C8.1808 441.815 7.15406 436.898 6.22748 431.945L8.19337 431.577C7.27748 426.682 6.45999 421.751 5.74304 416.788L3.76358 417.074C3.04755 412.118 2.43124 407.129 1.91677 402.11L3.90634 401.906C3.39942 396.961 2.9919 391.986 2.68582 386.984L0.689557 387.106C0.384302 382.117 0.179397 377.101 0.0768355 372.06L2.07642 372.019C2.02556 369.519 2 367.012 2 364.5C2 361.988 2.02556 359.481 2.07642 356.981L0.0768349 356.94C0.179396 351.899 0.3843 346.883 0.689555 341.894L2.68582 342.016C2.9919 337.014 3.39942 332.039 3.90634 327.094L1.91676 326.89C2.43123 321.871 3.04754 316.882 3.76357 311.926L5.74303 312.212C6.45998 307.249 7.27746 302.318 8.19335 297.423L6.22746 297.055C7.15404 292.102 8.18079 287.185 9.30551 282.305L11.2544 282.754C12.3792 277.874 13.6025 273.031 14.9221 268.228L12.9936 267.699C14.3273 262.845 15.7589 258.031 17.2861 253.26L19.1909 253.87C20.7166 249.104 22.3383 244.381 24.0536 239.703L22.1759 239.014C23.9091 234.287 25.7374 229.606 27.6585 224.974L29.5059 225.74C31.4229 221.117 33.4329 216.542 35.5335 212.018L33.7195 211.176C35.8379 206.613 38.048 202.102 40.3474 197.644L42.1249 198.561C44.4175 194.116 46.7994 189.724 49.2681 185.389L47.5301 184.399C50.018 180.03 52.5936 175.717 55.2545 171.464L56.9501 172.524C59.6012 168.286 62.3376 164.106 65.1568 159.988L63.5065 158.858C66.3455 154.711 69.268 150.625 72.2716 146.603L73.874 147.8C76.865 143.795 79.9369 139.854 83.0871 135.98L81.5353 134.718C84.7052 130.819 87.954 126.987 91.2794 123.224L92.778 124.549C96.0867 120.805 99.4715 117.13 102.93 113.526L101.487 112.141C104.965 108.517 108.517 104.965 112.141 101.487L113.526 102.93C117.13 99.4716 120.805 96.0868 124.549 92.7781L123.224 91.2795C126.987 87.9541 130.819 84.7053 134.718 81.5354L135.98 83.0872C139.854 79.9369 143.795 76.865 147.8 73.874L146.603 72.2716C150.625 69.268 154.711 66.3455 158.858 63.5065L159.988 65.1569C164.106 62.3377 168.286 59.6013 172.524 56.9501L171.464 55.2545C175.717 52.5936 180.03 50.018 184.399 47.5302L185.389 49.2682C189.724 46.7994 194.116 44.4176 198.561 42.1249L197.644 40.3474C202.102 38.0481 206.613 35.838 211.176 33.7195L212.018 35.5335C216.542 33.4329 221.117 31.423 225.74 29.5059L224.974 27.6585C229.606 25.7374 234.287 23.9091 239.014 22.1759L239.703 24.0537C244.381 22.3383 249.104 20.7166 253.87 19.1909L253.26 17.2861C258.031 15.759 262.844 14.3274 267.698 12.9936L268.228 14.9222C273.031 13.6025 277.874 12.3792 282.754 11.2544L282.305 9.30553C287.185 8.1808 292.102 7.15406 297.055 6.22748L297.423 8.19337C302.318 7.27748 307.249 6.45999 312.212 5.74304L311.926 3.76359C316.882 3.04755 321.871 2.43124 326.89 1.91677L327.094 3.90634C332.039 3.39942 337.014 2.9919 342.016 2.68582L341.894 0.689557C346.883 0.384302 351.899 0.179397 356.94 0.0768355L356.981 2.07642C359.481 2.02556 361.988 2 364.5 2C367.012 2 369.519 2.02556 372.019 2.07642L372.06 0.0768348C377.101 0.179396 382.117 0.3843 387.106 0.689555L386.984 2.68582C391.986 2.9919 396.961 3.39942 401.906 3.90634L402.11 1.91676C407.129 2.43123 412.118 3.04754 417.074 3.76357L416.788 5.74303C421.751 6.45998 426.682 7.27746 431.577 8.19335L431.945 6.22746C436.898 7.15404 441.815 8.18079 446.695 9.30551L446.246 11.2544C451.126 12.3792 455.969 13.6025 460.772 14.9221L461.301 12.9936C466.155 14.3273 470.969 15.7589 475.74 17.2861L475.13 19.1909C479.896 20.7166 484.619 22.3383 489.297 24.0536L489.986 22.1759C494.713 23.9091 499.394 25.7374 504.026 27.6585L503.26 29.5059C507.883 31.4229 512.458 33.4329 516.982 35.5335L517.824 33.7194C522.387 35.8379 526.898 38.048 531.356 40.3474L530.439 42.1249C534.884 44.4175 539.276 46.7994 543.611 49.2681L544.601 47.5301C548.97 50.018 553.283 52.5936 557.536 55.2545L556.476 56.9501C560.714 59.6012 564.894 62.3376 569.012 65.1568L570.142 63.5065C574.289 66.3455 578.375 69.268 582.397 72.2716L581.2 73.874C585.205 76.865 589.146 79.9369 593.02 83.0871L594.282 81.5353C598.181 84.7052 602.013 87.954 605.776 91.2794L604.451 92.778C608.195 96.0867 611.87 99.4715 615.474 102.93L616.859 101.487C620.483 104.965 624.035 108.517 627.513 112.141L626.07 113.526C629.528 117.13 632.913 120.805 636.222 124.549L637.721 123.224C641.046 126.987 644.295 130.819 647.465 134.718L645.913 135.98C649.063 139.854 652.135 143.795 655.126 147.8L656.728 146.603C659.732 150.625 662.654 154.711 665.494 158.858L663.843 159.988C666.662 164.106 669.399 168.286 672.05 172.524L673.746 171.464C676.406 175.717 678.982 180.03 681.47 184.399L679.732 185.389C682.201 189.724 684.582 194.116 686.875 198.561L688.653 197.644C690.952 202.102 693.162 206.613 695.281 211.176L693.467 212.018C695.567 216.542 697.577 221.117 699.494 225.74L701.341 224.974C703.263 229.606 705.091 234.287 706.824 239.014L704.946 239.703C706.662 244.381 708.283 249.104 709.809 253.87L711.714 253.26C713.241 258.031 714.673 262.844 716.006 267.698L714.078 268.228C715.397 273.031 716.621 277.874 717.746 282.754L719.694 282.305C720.819 287.185 721.846 292.102 722.773 297.055L720.807 297.423C721.723 302.318 722.54 307.249 723.257 312.212L725.236 311.926C725.952 316.882 726.569 321.871 727.083 326.89L725.094 327.094C725.601 332.039 726.008 337.014 726.314 342.016L728.31 341.894C728.616 346.883 728.821 351.899 728.923 356.94L726.924 356.981C726.974 359.481 727 361.988 727 364.5C727 367.012 726.974 369.519 726.924 372.019L728.923 372.06C728.821 377.101 728.616 382.117 728.31 387.106L726.314 386.984C726.008 391.986 725.601 396.961 725.094 401.906L727.083 402.11C726.569 407.129 725.953 412.118 725.236 417.074L723.257 416.788C722.54 421.751 721.723 426.682 720.807 431.577L722.773 431.945C721.846 436.898 720.819 441.815 719.694 446.695L717.746 446.246C716.621 451.126 715.398 455.969 714.078 460.772L716.006 461.301C714.673 466.155 713.241 470.969 711.714 475.74L709.809 475.13C708.283 479.896 706.662 484.619 704.946 489.297L706.824 489.986C705.091 494.713 703.263 499.394 701.342 504.026L699.494 503.26C697.577 507.883 695.567 512.458 693.467 516.982L695.281 517.824C693.162 522.387 690.952 526.898 688.653 531.356L686.875 530.439C684.582 534.884 682.201 539.276 679.732 543.611L681.47 544.601C678.982 548.97 676.406 553.283 673.746 557.536L672.05 556.476C669.399 560.714 666.662 564.894 663.843 569.012L665.494 570.142C662.654 574.289 659.732 578.375 656.728 582.397L655.126 581.2C652.135 585.205 649.063 589.146 645.913 593.02L647.465 594.282C644.295 598.181 641.046 602.013 637.721 605.776L636.222 604.451C632.913 608.195 629.528 611.87 626.07 615.474L627.513 616.859C624.035 620.483 620.483 624.035 616.859 627.513L615.474 626.07C611.87 629.528 608.195 632.913 604.451 636.222L605.776 637.721C602.013 641.046 598.181 644.295 594.282 647.465L593.02 645.913C589.146 649.063 585.205 652.135 581.2 655.126L582.397 656.728C578.375 659.732 574.289 662.654 570.142 665.494L569.012 663.843C564.894 666.662 560.714 669.399 556.476 672.05L557.536 673.746C553.283 676.406 548.97 678.982 544.601 681.47L543.611 679.732C539.276 682.201 534.884 684.582 530.439 686.875L531.356 688.653C526.898 690.952 522.387 693.162 517.824 695.281L516.982 693.467C512.458 695.567 507.883 697.577 503.26 699.494L504.026 701.341C499.394 703.263 494.713 705.091 489.986 706.824L489.297 704.946C484.619 706.662 479.896 708.283 475.13 709.809L475.74 711.714C470.969 713.241 466.156 714.673 461.302 716.006L460.772 714.078C455.969 715.397 451.126 716.621 446.246 717.746L446.695 719.694C441.815 720.819 436.898 721.846 431.945 722.773L431.577 720.807C426.682 721.723 421.751 722.54 416.788 723.257L417.074 725.236C412.118 725.952 407.129 726.569 402.11 727.083L401.906 725.094C396.961 725.601 391.986 726.008 386.984 726.314L387.106 728.31C382.117 728.616 377.101 728.821 372.06 728.923L372.019 726.924C369.519 726.974 367.012 727 364.5 727Z" stroke="#001951" stroke-width="4" stroke-dasharray="15 15"/>
</svg>
