<svg width="138" height="120" viewBox="0 0 138 120" fill="none" xmlns="http://www.w3.org/2000/svg">
<path d="M30.5562 47.4393C30.5562 47.4393 33.666 34.9712 21.8315 28.0716C13.6009 23.2762 2.35343 26.5255 0.993279 32.1114C-0.349434 37.616 8.27069 45.0677 9.48553 45.7652C16.8966 50.0142 30.5562 47.4393 30.5562 47.4393Z" fill="#F1D1D5"/>
<path d="M31.754 43.7773C31.6494 42.7077 31.4692 41.644 31.1553 40.6384C31.0391 40.1851 30.8356 39.7608 30.7077 39.319C30.638 39.0981 30.5915 38.8772 30.5334 38.6505C30.4694 38.4297 30.4229 38.203 30.388 37.9647C30.3532 37.7205 30.2369 37.4822 30.1613 37.2381C30.0044 36.8021 29.801 36.3836 29.6382 35.9535C29.5569 35.7617 29.5685 35.5059 29.4464 35.349C29.1383 34.9653 28.8535 34.5701 28.6094 34.1632L28.435 33.8493L28.2374 33.547C28.1095 33.3436 27.9933 33.1286 27.8886 32.9077C27.5689 32.6752 27.3655 32.3671 27.1272 32.0823C26.8889 31.7975 26.6796 31.4836 26.4471 31.1813C26.0054 30.5478 25.3601 30.1118 24.9009 29.4899C24.7789 29.3271 24.6103 29.1644 24.4359 29.0539C23.8954 28.7458 23.349 28.4668 22.8433 28.1181L22.0818 27.6008L21.2797 27.1241C20.1114 26.4731 18.8151 26.0663 17.5015 25.95C16.804 25.8802 16.0948 25.7582 15.3915 25.6536C14.5545 25.5489 13.7175 25.4268 12.8688 25.4152C11.6366 25.392 10.4159 25.4559 9.17202 25.5431C7.5038 25.6535 5.81813 26.0604 4.22548 26.8161C3.41753 27.2055 2.69095 27.81 2.04575 28.4843C1.39474 29.1527 0.842543 29.9549 0.487974 30.8616C0.12178 31.7626 -0.00607491 32.7682 0.0753021 33.704C0.203178 35.1107 0.650734 36.4069 1.22037 37.5926C1.74932 38.7087 2.35385 39.7666 3.05717 40.7605C4.10344 42.2195 5.28338 43.5622 6.55634 44.8235C7.20735 45.4571 7.82349 46.05 8.63145 46.6603C8.90464 46.858 9.09648 46.9393 9.30573 47.0556L9.93347 47.3869C10.1427 47.4915 10.352 47.6194 10.5671 47.7066L11.2122 47.9682C12.0376 48.3285 12.8805 48.5901 13.7291 48.8517C14.1534 48.9737 14.5894 49.0377 15.0195 49.1191C15.8216 49.276 16.6238 49.3167 17.4201 49.4097C18.2164 49.4562 19.0186 49.5143 19.8091 49.5317C22.0876 49.6015 24.3488 49.5259 26.5924 49.2992C27.8712 49.1714 29.1209 48.9853 30.4229 48.9214C30.7891 48.904 30.9054 48.747 30.7077 48.5029C30.3822 48.067 30.1265 47.602 29.4929 47.4043C29.0628 47.2706 28.6733 47.1718 28.1851 47.3055C27.4759 47.4973 26.697 47.352 26.0053 47.7066C25.9065 47.7589 25.7612 47.7589 25.6392 47.7473C23.4827 47.5845 21.3553 47.8112 19.2104 47.7356C18.5129 47.6891 17.8154 47.6194 17.1295 47.5031C16.6819 47.4334 16.2343 47.3927 15.7868 47.3229C15.1474 47.1951 14.4789 47.1718 13.8628 46.9626C13.392 46.8114 12.956 46.6254 12.4503 46.7533C12.3457 46.7766 12.1016 46.6778 12.0434 46.5789C11.8051 46.2069 11.4157 46.1139 11.0437 45.957C10.5729 45.7245 10.0323 45.5036 9.60796 45.2769C9.17783 44.9979 8.74187 44.6375 8.32918 44.283C7.71886 43.7424 7.14923 43.1495 6.63191 42.5217C5.82396 41.551 5.10899 40.5106 4.44054 39.4701C3.88253 38.604 3.32455 37.7321 2.91186 36.8195C2.81304 36.6103 2.77235 36.3836 2.68516 36.1744C2.52241 35.7907 2.44102 35.3722 2.23758 35.0351C2.02832 34.6689 1.9295 34.3318 2.12132 33.9423C2.22013 33.7273 2.1969 33.425 2.17365 33.1809C2.16783 32.8728 2.10969 32.5589 2.1155 32.2334C2.09806 31.844 2.18527 31.4429 2.53984 31.1581C2.7491 31.0186 2.87115 30.728 3.00484 30.478C3.56285 29.3678 4.71955 28.5831 5.93439 28.0949C7.59679 27.4206 9.40454 27.1183 11.189 27.0544C11.8865 27.0369 12.5898 27.0021 13.2874 27.0428C15.4555 27.1416 17.6177 27.5078 19.6347 28.2983C20.0242 28.461 20.4369 28.6121 20.774 28.8621C21.1751 29.1295 21.5645 29.4317 21.9714 29.6991C22.3783 29.9723 22.8084 30.2048 23.2327 30.4548C23.7094 30.7977 24.1569 31.1755 24.5871 31.5708C25.0114 31.9719 25.3369 32.4659 25.6973 32.9077C25.8658 33.1169 26.0054 33.3494 26.1623 33.5587C26.4587 33.9074 26.7377 34.2736 27.0109 34.6456C27.255 35.0351 27.4527 35.4536 27.6677 35.8547C27.9003 36.2499 28.0223 36.6975 28.2025 37.116L28.4583 37.7496C28.528 37.9705 28.5978 38.1855 28.6733 38.4006C28.9465 39.0923 29.1209 39.8189 29.3418 40.5396C29.4987 41.272 29.6789 42.0161 29.7603 42.7717C29.9056 43.94 29.9928 45.1316 29.9289 46.3174C29.923 46.3929 29.8882 46.4743 29.8882 46.5499C29.8533 47.2125 30.1265 47.4915 30.7135 47.2939C31.2251 47.0963 31.5912 46.6429 31.6494 45.9744C31.6901 45.6082 31.7075 45.2362 31.7075 44.87C31.7191 44.5038 31.7133 44.1376 31.6901 43.7656L31.754 43.7773Z" fill="#F39BA6"/>
<path d="M13.8888 38.2382C14.2783 38.2673 14.6561 38.337 15.063 38.3312C15.4234 38.3254 15.7896 38.3254 16.0279 38.616C16.0918 38.6916 16.1907 38.6974 16.272 38.7381C16.4232 38.8137 16.5743 38.8834 16.7138 38.9648C16.7777 39.0055 16.8068 39.1275 16.8823 39.1275C17.266 39.1334 17.5973 39.2496 17.8182 39.5693C18.1611 39.4937 18.3181 39.7669 18.5273 39.9587C18.7308 40.1506 18.9923 40.2494 19.1435 40.5284C19.1841 40.6039 19.2423 40.6562 19.3178 40.6679C19.7886 40.726 20.1258 41.0166 20.4745 41.2898C20.8407 41.5863 21.265 41.7897 21.7707 41.8885C22.0439 41.935 22.2532 42.0978 22.4624 42.2431C22.7124 42.4175 22.9158 42.6616 23.1484 42.8592C23.4855 43.1499 23.8052 43.4521 24.0435 43.859C24.3574 44.3996 24.7178 44.882 25.0665 45.3703C25.2467 45.6144 25.5199 45.7597 25.764 45.9341C26.2465 46.2945 26.758 46.6316 27.2114 47.0269C27.5485 47.3291 27.8507 47.6663 28.1355 48.0266C28.3971 48.3638 28.6064 48.7358 28.8563 49.0787C29.5829 50.1017 30.2688 51.1422 30.9024 52.2175C31.0477 52.4791 31.1697 52.7581 31.3092 53.0197C31.379 53.1533 31.4662 53.2754 31.5475 53.3975C31.8731 53.8451 32.2044 54.2868 32.5008 54.7518C32.9251 55.4203 33.2971 56.1178 33.6866 56.8095C33.9075 57.1989 34.14 57.5884 34.1981 58.0534C34.2155 58.1871 34.3492 58.1638 34.5817 58.0011C34.9828 57.7163 35.4071 57.4373 35.5641 57.1118C35.6745 56.8909 35.7443 56.6932 35.5931 56.5596C35.3723 56.3619 35.442 56.0015 35.0584 55.9027C35.0061 55.8911 34.9886 55.833 34.9828 55.7865C34.8898 54.9204 34.3376 54.2926 33.8784 53.63C33.7273 53.4091 33.6401 53.1534 33.5064 52.9267C33.4192 52.7755 33.3262 52.6302 33.2332 52.4907C33.0937 52.2873 32.9135 52.1071 32.7915 51.8862C32.6985 51.7235 32.6694 51.52 32.3381 51.5433C32.2683 51.5491 32.2276 51.4619 32.2625 51.3921C32.4078 51.1306 32.2858 51.0201 32.187 50.8981L31.3848 49.9274C31.1988 49.6833 31.036 49.4101 30.8965 49.1252C30.6698 48.6893 30.4781 48.2243 30.2339 47.7941C30.0189 47.4396 29.7573 47.1257 29.5248 46.7886C29.4666 46.713 29.4492 46.6025 29.3911 46.527C29.2807 46.3933 29.1993 46.2189 29.0191 46.1608C28.8214 46.1027 28.7052 46.0155 28.7575 45.7307C28.7866 45.5679 28.6703 45.4691 28.5715 45.3993C28.4378 45.3063 28.2634 45.2657 28.0891 45.225C27.8856 45.1727 27.6822 45.1378 27.6647 44.8704C27.6531 44.7309 27.5078 44.6669 27.3799 44.6321C26.8045 44.4751 26.4208 44.1148 26.0779 43.6962C25.5954 43.1499 25.1363 42.5628 24.6306 42.028C24.4329 41.8188 24.2062 41.6386 23.9912 41.4526C23.3169 40.8655 22.538 40.4179 21.7475 39.9994C21.5906 39.9181 21.4336 39.8425 21.3115 39.7088C21.0384 39.3949 20.6838 39.2147 20.3002 39.081C19.8352 38.9241 19.4748 38.6044 19.1028 38.2847C19.0156 38.2091 18.9458 38.1045 18.8412 38.0696C18.103 37.8313 17.5217 37.2791 16.8068 37.0001C16.2255 36.7734 15.6036 36.6572 14.9932 36.5351C14.5166 36.4421 14.0342 36.384 13.5575 36.32C13.5285 36.3142 13.5052 36.2852 13.4703 36.2793C13.1913 36.2561 12.9995 36.5525 12.9356 37.0873C12.8833 37.5639 12.9472 37.872 13.1681 37.9476C13.4122 38.0289 13.668 38.0813 13.9121 38.151L13.8888 38.2382Z" fill="#F39BA6"/>
<path d="M16.7519 38.0692C16.6415 37.9878 16.5717 37.9064 16.4148 37.825C16.2753 37.7495 16.13 37.6855 16.2985 37.639C16.3392 37.6274 16.3044 37.61 16.3102 37.5925C16.316 37.5635 16.316 37.5344 16.3334 37.5054C16.3392 37.4937 16.438 37.4821 16.409 37.4704C16.252 37.4007 16.2055 37.3426 16.3857 37.2903C16.1649 37.2379 16.3276 37.1973 16.3973 37.1508C16.4671 37.1043 16.4206 37.0578 16.5892 37.0054C16.6357 36.9938 16.6531 36.9764 16.6182 36.9648C16.4322 36.8892 16.4962 36.8136 16.5427 36.7323C16.5892 36.6451 16.5252 36.5637 16.3102 36.4998C16.1997 36.4649 16.1997 36.4184 16.1939 36.3777C16.1881 36.3254 16.2462 36.2672 16.2578 36.2091C16.2753 36.1277 16.3276 36.0464 16.4671 35.9418C16.6589 35.8081 16.8042 35.6686 16.8972 35.5291C16.9438 35.4593 16.8624 35.4186 16.8159 35.3663C16.7229 35.2675 16.5892 35.1861 16.5136 35.0873C16.4555 35.0175 16.4555 34.9304 16.4613 34.8374C16.4671 34.756 16.531 34.6456 16.5427 34.5584C16.5717 34.2968 16.5717 34.0294 16.5717 33.762C16.5717 33.6981 16.6008 33.6167 16.6066 33.5469C16.6066 33.5121 16.595 33.483 16.5775 33.4598C16.5078 33.3668 16.4148 33.2912 16.3509 33.1982C16.2579 33.0645 16.1939 32.9192 16.0893 32.7971C16.0312 32.7274 15.9556 32.6692 16.0311 32.5065C16.0544 32.46 15.944 32.5239 15.7115 32.6867C15.3162 32.9657 14.9035 33.2563 14.6826 33.4423C14.5315 33.5702 14.4153 33.669 14.4908 33.6516C14.6013 33.6342 14.4327 33.7853 14.7059 33.669C14.7466 33.6516 14.7349 33.669 14.7233 33.6807C14.5024 33.9538 14.7117 33.9654 14.8047 34.0585C14.8338 34.0875 14.8047 34.1457 14.8105 34.1922C14.8163 34.2212 14.8221 34.2445 14.8396 34.2619C14.8628 34.291 14.9268 34.3026 14.9209 34.3491C14.9151 34.384 14.8454 34.4421 15.1186 34.3491C15.1767 34.3316 15.1709 34.3491 15.107 34.384C14.8745 34.5118 14.9093 34.5177 14.9268 34.5409C14.9733 34.5874 15.0372 34.6339 15.0546 34.692C15.0721 34.7385 15.0488 34.7967 15.0023 34.8606C14.9384 34.9594 14.8163 35.0815 14.7524 35.1687C14.7001 35.2442 14.7001 35.3024 14.671 35.3721C14.6652 35.3895 14.6129 35.4186 14.6129 35.4303C14.607 35.4535 14.5547 35.4942 14.6477 35.4942C14.7524 35.4884 14.7814 35.5058 14.5606 35.5872C14.4385 35.6337 14.4559 35.6453 14.4792 35.6569C14.5141 35.6685 14.6071 35.6627 14.6942 35.6627C14.8047 35.6627 14.921 35.6569 14.7524 35.7267C14.6652 35.7615 14.7233 35.7674 14.7873 35.7674C15.0779 35.7732 15.0721 35.8545 15.0082 35.9475C14.921 36.0696 14.7931 36.1859 14.6884 36.2963C14.6477 36.337 14.6478 36.3777 14.6303 36.4184C14.5896 36.5404 14.6652 36.6451 14.7524 36.7555C14.7698 36.7788 14.7931 36.802 14.7466 36.8253C14.6303 36.8834 14.6594 36.9299 14.7408 36.9822C14.8396 37.0461 14.7408 37.1101 14.6361 37.1682C14.6129 37.1798 14.5548 37.1973 14.5722 37.2089C14.7059 37.3135 14.4617 37.3949 14.5082 37.4937C14.5431 37.5751 14.6768 37.6623 14.7815 37.7611C14.8686 37.8308 14.9733 37.918 15.0721 37.9994C15.0779 38.0052 15.0546 38.0052 15.0604 38.0111C15.1302 38.0576 15.4673 38.1273 15.9847 38.1912C16.4439 38.2494 16.7171 38.2552 16.7171 38.2145C16.7171 38.168 16.6822 38.1098 16.6589 38.0633L16.7519 38.0692Z" fill="#F39BA6"/>
<path d="M22.544 34.0818C22.7067 34.1457 22.8346 34.2329 23.038 34.2852C23.2182 34.3317 23.4042 34.3782 23.3054 34.5526C23.2822 34.5991 23.3287 34.6107 23.3403 34.6456C23.3635 34.7037 23.3868 34.7561 23.3926 34.8142C23.3984 34.8433 23.317 34.9072 23.3577 34.913C23.5554 34.9653 23.6425 35.0641 23.5205 35.2385C23.7646 35.2443 23.6484 35.3955 23.6193 35.5059C23.5902 35.6221 23.6658 35.6977 23.5379 35.843C23.503 35.8837 23.4972 35.9128 23.5321 35.9302C23.7588 36.0116 23.7472 36.1802 23.7472 36.3429C23.753 36.5173 23.8576 36.6509 24.1017 36.7498C24.2296 36.8021 24.2529 36.8951 24.2761 36.9823C24.3052 37.0869 24.2703 37.209 24.2819 37.3194C24.2994 37.4764 24.2761 37.6449 24.1599 37.8309C24.0087 38.0809 23.8867 38.3192 23.8169 38.5401C23.782 38.6505 23.8692 38.7435 23.9215 38.8365C24.032 39.0283 24.1773 39.2143 24.2587 39.4178C24.3168 39.5689 24.3168 39.7316 24.311 39.8886C24.2994 40.0397 24.2296 40.1966 24.2064 40.3478C24.1482 40.7953 24.0843 41.2313 23.9913 41.6614C23.968 41.7661 23.9157 41.8707 23.8867 41.9753C23.8692 42.0276 23.875 42.0799 23.8808 42.1264C23.9099 42.3124 23.9622 42.5043 23.9681 42.6961C23.9855 42.9693 23.9622 43.2425 23.9681 43.5156C23.9739 43.6726 23.9971 43.8295 23.8344 43.969C23.7879 44.0097 23.9157 44.033 24.1948 44.0388C24.6772 44.0446 25.1829 44.062 25.4793 43.9981C25.6769 43.9574 25.8339 43.9167 25.7642 43.8412C25.6653 43.7365 25.8978 43.6435 25.6072 43.5331C25.5665 43.5157 25.5781 43.4982 25.6014 43.4808C25.9443 43.2018 25.7758 42.8995 25.7351 42.6147C25.7234 42.5217 25.7758 42.4229 25.7874 42.3299C25.799 42.2659 25.799 42.2078 25.7874 42.1439C25.7758 42.0567 25.7235 41.9637 25.7467 41.8765C25.7641 41.8067 25.8513 41.737 25.5607 41.6905C25.5026 41.6789 25.5142 41.644 25.584 41.6265C25.8455 41.5684 25.8164 41.5103 25.8048 41.458C25.7758 41.3069 25.7176 41.1615 25.7118 41.0104C25.706 40.9 25.7351 40.7837 25.7932 40.6675C25.8804 40.4873 26.0083 40.2955 26.078 40.1095C26.1362 39.9525 26.1304 39.8014 26.1594 39.6502C26.1652 39.6154 26.2175 39.5747 26.2175 39.5398C26.2175 39.4759 26.2756 39.4003 26.171 39.3538C26.0606 39.3015 26.0315 39.255 26.2524 39.1562C26.3803 39.0981 26.357 39.0457 26.3221 39.0051C26.2815 38.9527 26.1827 38.9121 26.0897 38.8714C25.9734 38.8249 25.8513 38.7842 26.0141 38.6796C26.1013 38.6214 26.0315 38.5808 25.9618 38.5517C25.6479 38.418 25.6363 38.2262 25.6653 38.0169C25.7118 37.7379 25.799 37.4415 25.8397 37.1567C25.8571 37.0462 25.8397 36.9416 25.8281 36.8311C25.7932 36.4998 25.6305 36.2034 25.4561 35.9186C25.4212 35.8604 25.3747 35.8081 25.4037 35.7326C25.4735 35.5582 25.3921 35.4245 25.2701 35.3141C25.1189 35.1804 25.148 34.9885 25.1829 34.7851C25.1887 34.7386 25.2294 34.6805 25.1945 34.6456C24.9678 34.4363 25.0783 34.0818 24.9155 33.8435C24.7876 33.6516 24.5667 33.5005 24.3633 33.3494C24.2064 33.2331 24.0204 33.1285 23.846 33.0239C23.8343 33.0181 23.8518 32.9948 23.8344 32.989C23.7239 32.9367 23.4042 33.0646 22.9567 33.3436C22.5614 33.5877 22.3463 33.7679 22.3928 33.8319C22.4393 33.9074 22.5149 33.9714 22.5846 34.0411L22.544 34.0818Z" fill="#F39BA6"/>
<path d="M17.7818 112.413C16.8369 111.479 11.3501 105.877 11.2509 97.0593C11.1308 86.4302 18.9356 80.0298 20.1624 79.0588C20.7575 78.5889 31.5067 70.377 43.4618 75.5297C53.6524 79.9254 56.1269 90.33 56.3462 91.3271C58.1212 99.4138 55.2342 107.688 49.4602 112.946C42.9867 118.845 35.1924 118.86 32.958 118.772C30.9481 118.688 23.7228 118.286 17.7818 112.413Z" fill="#F1D1D5"/>
<path d="M13.4324 107.851C12.6597 106.248 12.028 104.567 11.6887 102.855C11.365 101.331 11.2763 99.8219 11.0048 98.2714C10.9474 97.8694 10.9526 97.4257 10.9421 97.0028L10.9787 95.8438C10.9943 95.4575 10.9891 95.0712 11.0466 94.6901C11.0831 94.3403 11.0413 93.9592 11.1144 93.6407C11.1875 93.244 11.3128 92.8577 11.4172 92.4713C11.5268 92.085 11.6052 91.6935 11.72 91.3124C11.9654 90.5502 12.1429 89.7671 12.383 88.9997C12.5449 88.7282 12.6754 88.4411 12.8163 88.1644C12.9625 87.8877 13.093 87.611 13.2183 87.3239C13.4532 86.7444 13.7404 86.191 14.0118 85.622C14.6122 84.51 15.364 83.4711 16.0479 82.4113C16.2201 82.1242 16.4603 81.8214 16.7057 81.5917C17.4418 80.8764 18.1779 80.1717 18.9453 79.4878C19.3316 79.1432 19.7075 78.8143 20.1303 78.4907C20.5428 78.1774 20.9604 77.8799 21.3937 77.5979C23.2366 76.392 25.2569 75.4575 27.3713 74.9198C27.9351 74.7841 28.5094 74.6431 29.0784 74.4761C29.6579 74.3403 30.2426 74.2098 30.8169 74.0741L32.9051 73.7191C33.6099 73.6616 34.3146 73.5781 35.0194 73.552L36.5595 73.5729L36.9458 73.5781L37.3269 73.6199L38.0943 73.6982C39.128 73.7504 40.1199 74.001 41.1431 74.168C43.837 74.7841 46.4681 75.9221 48.7652 77.6032C49.3551 78.0208 49.8772 78.5324 50.4201 79.0179C50.9056 79.5609 51.4277 80.0777 51.8714 80.6467L52.5449 81.5029C52.7694 81.7848 52.9573 82.0981 53.1661 82.3904C53.589 82.9751 53.9336 83.612 54.3042 84.2281C54.9933 85.4915 55.5937 86.7966 56.0949 88.1383C56.476 89.1511 56.8048 90.1691 57.0502 91.2497C57.1494 91.7822 57.259 92.3095 57.3478 92.8472C57.4104 93.385 57.494 93.9227 57.5409 94.4604C57.7184 96.4703 57.6819 98.5115 57.3374 100.516C56.3194 106.452 52.9677 112.017 48.003 115.609C46.8127 116.47 45.565 117.264 44.2285 117.88C43.8996 118.047 43.5603 118.193 43.2157 118.318C42.8711 118.449 42.5318 118.595 42.182 118.699C39.5874 119.561 36.8832 119.968 34.1685 119.999C30.2948 120.031 26.3846 119.222 22.8816 117.483C20.8978 116.486 19.0862 115.202 17.3791 113.797C16.8936 113.406 16.8309 113.187 17.1755 113.16C17.7759 113.113 18.2979 113.009 19.2167 113.463C19.8589 113.75 20.4123 114.038 21.0648 114.549C21.5242 114.946 22.0881 115.212 22.6153 115.531C23.1687 115.807 23.6908 116.121 24.1867 116.47C24.3277 116.575 24.5522 116.663 24.7401 116.731C28.1335 117.817 31.6574 118.548 35.2491 118.376C36.4133 118.318 37.5723 118.115 38.7104 117.875C39.4517 117.718 40.1826 117.525 40.9082 117.311C41.4303 117.149 41.9575 116.998 42.4692 116.794C42.9912 116.616 43.4872 116.387 43.9831 116.152C44.3642 115.985 44.6983 115.75 45.0533 115.578C45.4136 115.405 45.7634 115.243 46.1445 115.15C46.3063 115.113 46.6717 114.868 46.7657 114.737C46.9432 114.476 47.1625 114.236 47.4183 114.027C47.6689 113.813 47.956 113.63 48.2118 113.406C49.6579 112.273 50.963 110.947 52.0593 109.464C52.8476 108.352 53.5472 107.167 54.0849 105.92C54.9359 103.993 55.4475 101.947 55.719 99.8898C55.9591 98.1722 56.0426 96.4233 55.8756 94.7058C55.8547 94.309 55.7346 93.9227 55.6929 93.5259C55.6668 93.3432 55.6407 93.1605 55.6145 92.9778L55.4997 92.4348C55.4266 92.0746 55.3744 91.7039 55.3379 91.375C55.2543 90.6337 55.0768 90.0386 54.654 89.4434C54.4034 89.1145 54.1998 88.5194 54.0066 88.0495C53.7822 87.4283 53.5577 86.8122 53.3384 86.2014C53.1922 85.8412 53.0565 85.4862 52.8842 85.1417C52.6963 84.8076 52.4718 84.4839 52.1847 84.1706C51.8714 83.8365 51.5425 83.3197 51.2972 82.8655C50.1486 80.9182 48.4415 79.2998 46.5256 78.0835C43.8996 76.4546 40.9239 75.4523 37.9116 75.1495L37.0241 75.0555C36.7318 75.0138 36.429 75.0399 36.1314 75.0294C35.5362 75.0347 34.9411 74.9772 34.346 75.0503L32.9625 75.1599L31.5843 75.374C31.1196 75.4262 30.6759 75.5671 30.2165 75.6611L29.5326 75.8125L28.8591 76.0109C27.0633 76.5277 25.3092 77.2377 23.6438 78.1148C22.9912 78.4593 22.3282 78.8248 21.7592 79.2685C21.425 79.5191 21.0962 79.7749 20.8038 80.0203C20.4906 80.2865 20.1826 80.558 19.8745 80.8347C19.2585 81.3933 18.6529 81.9623 18.0734 82.5627C16.6639 84.0088 15.5624 85.7212 14.7375 87.5223C14.56 87.9503 14.4034 88.3941 14.1946 88.7961C13.5211 90.2317 13.0617 91.7613 12.8059 93.3171C12.5918 94.878 12.4979 96.4546 12.5866 98.026C12.5866 98.6629 12.691 99.2946 12.738 99.9315C12.7798 100.25 12.8372 100.563 12.8894 100.876C12.9364 101.195 12.9886 101.508 13.0669 101.816C13.3175 103.074 13.7299 104.296 14.2154 105.497C14.9777 107.34 15.9748 109.109 17.2068 110.712C17.2904 110.816 17.3895 110.91 17.4731 111.015C18.1831 111.902 18.2562 112.372 17.5253 112.315C16.8779 112.252 16.1366 111.808 15.4579 110.926C14.7114 109.955 14.0693 108.911 13.4898 107.835L13.4324 107.851Z" fill="#F39BA6"/>
<path d="M24.9076 93.9112C25.3827 93.4257 25.8264 92.9036 26.312 92.4233C26.7557 92.0005 27.1525 91.5463 27.3352 90.9407C27.3822 90.7841 27.497 90.6536 27.5753 90.5074C27.7215 90.2463 27.8729 89.9853 28.0086 89.7191C28.0713 89.599 28.0661 89.4319 28.1548 89.338C28.2018 89.2858 28.2592 89.2231 28.3219 89.1396L28.4941 88.9151C28.6038 88.7689 28.703 88.6228 28.797 88.4714C28.9953 88.487 29.1885 88.487 29.3817 88.4766C29.58 88.4661 29.7889 88.4452 29.9403 88.4139C30.4205 88.6332 30.9113 88.5027 31.4072 88.4609C31.9032 88.4192 32.3991 88.4766 32.8951 88.3409C33.0256 88.3043 33.177 88.2939 33.3023 88.3252C34.0906 88.5236 34.8893 88.4922 35.6881 88.4766C36.1162 88.4713 36.5443 88.487 36.9724 88.534C37.1864 88.5549 37.4005 88.5862 37.6093 88.628C37.839 88.675 38.0635 88.7219 38.2932 88.7689C38.4289 88.8002 38.5594 88.8211 38.6951 88.842C38.7317 88.8368 38.7526 88.8681 38.7735 88.8994L38.8361 88.9882L38.9614 89.1553C39.118 89.3536 39.2694 89.552 39.426 89.7504C39.7706 90.1889 40.1465 90.6066 40.4858 91.0503C40.9713 91.7029 41.4568 92.345 41.9998 92.9663C42.36 93.3787 42.7045 93.812 43.0334 94.261C43.1953 94.4855 43.3571 94.7099 43.5085 94.9449L43.7382 95.2946L43.8478 95.4721C43.8844 95.5348 43.9105 95.5713 43.9784 95.6914C44.0932 95.9002 44.2028 96.1195 44.3073 96.3387L44.4586 96.6676C44.4691 96.6937 44.4848 96.7251 44.4952 96.7512L44.443 96.8295L44.3438 96.9809C44.088 97.3672 43.7382 97.8632 43.6234 98.0093C42.9708 98.9073 42.2921 99.7791 41.6604 100.687C41.1854 101.371 40.752 102.081 40.324 102.797C39.9272 103.465 39.5774 104.159 39.1859 104.833L38.8465 105.396L38.6534 105.71C38.6168 105.751 38.6012 105.84 38.5437 105.845L38.361 105.866L37.1342 106.012C36.5495 106.08 35.9648 106.138 35.3749 106.185C34.2002 106.279 33.0204 106.321 31.8353 106.321C31.2663 106.321 30.6972 106.341 30.1282 106.326L29.9141 106.315L29.5487 106.289L28.7291 106.206C28.6664 106.195 28.5986 106.2 28.5464 106.174L28.4472 106.007L28.2488 105.678L27.8729 105.041L27.4918 104.373L26.7192 103.042L24.4482 99.2675C24.0253 98.5523 23.6234 97.8214 23.07 97.1845C22.9134 97.007 22.976 96.8817 23.237 96.8243C23.686 96.7251 24.135 96.5946 24.5631 96.7982C24.8554 96.9391 25.1008 97.0853 25.2209 97.4038C25.3931 97.8684 25.8317 98.2025 25.8578 98.7455C25.863 98.8238 25.9204 98.9021 25.9778 98.9595C26.975 100.03 27.5858 101.345 28.3062 102.593C28.5411 103 28.8283 103.376 29.0789 103.773L29.3242 104.159L29.4861 104.431C29.5278 104.613 29.7158 104.572 29.8567 104.608C29.9768 104.629 30.2378 104.655 30.4467 104.66C30.7808 104.671 31.0992 104.608 31.3863 104.88C31.449 104.937 31.6213 104.932 31.6839 104.874C31.9293 104.65 32.2008 104.686 32.4722 104.697C33.2083 104.733 33.9497 104.775 34.6858 104.76C35.2339 104.744 35.7768 104.681 36.3146 104.592C36.5234 104.556 36.7322 104.519 36.941 104.478C37.1446 104.436 37.3952 104.384 37.4474 104.352C37.5414 104.311 37.6406 104.3 37.6563 104.175L37.7032 104.039L37.7137 104.008L37.7502 103.94L37.8233 103.799C38.1522 103.162 38.5281 102.551 38.8779 101.925C38.9614 101.779 39.0032 101.617 39.0867 101.471C39.2433 101.21 39.3686 100.912 39.5931 100.714C39.8437 100.494 39.9899 100.301 39.9742 99.941C39.9638 99.7373 40.1151 99.5233 40.2457 99.3563C40.4179 99.1422 40.632 98.9595 40.8408 98.7768C41.0966 98.5575 41.342 98.3591 41.3942 97.9832C41.4203 97.7796 41.603 97.5917 41.7648 97.4455C41.9423 97.2837 42.1094 97.1166 42.2608 96.9391C42.3548 96.8243 42.3652 96.8295 42.407 96.7825C42.4435 96.746 42.4801 96.7042 42.5114 96.6624C42.5636 96.6207 42.5323 96.5737 42.5062 96.5267C42.4853 96.4797 42.4592 96.4327 42.4331 96.3857L42.1303 95.8637C41.4829 94.7987 40.7468 93.7911 39.9899 92.8201L39.118 91.6611L38.4341 90.7684L38.0896 90.3247C38.0478 90.2725 38.0687 90.2986 38.0635 90.2829L38.0582 90.2724L38.0426 90.2463C38.0321 90.2307 38.006 90.2307 37.9852 90.2255L37.4579 90.1837L36.2989 90.0897C35.9961 90.0636 35.6881 90.0323 35.3853 90.0636C34.6858 90.1472 33.9966 90.095 33.3075 89.9958C32.4774 89.8757 31.6422 89.9331 30.8121 89.9958C30.6189 90.0114 30.4205 90.0532 30.2326 90.0271L29.8985 89.9905C29.7941 89.9801 29.6322 89.9697 29.6688 89.9697C29.6531 89.9645 29.6375 89.9645 29.627 89.9697C29.6218 89.9906 29.6218 90.0114 29.6375 90.0062H29.6427C29.6427 90.0062 29.6479 90.001 29.6427 90.0062L29.6218 90.0427L29.5435 90.1942L29.3869 90.497C29.1781 90.8989 28.964 91.3009 28.7239 91.6872C28.4263 92.1519 28.1339 92.6217 27.7946 93.0602C27.4553 93.4988 27.1055 93.9216 26.7505 94.3445C26.2023 94.9971 25.6124 95.6131 25.0225 96.2187C24.9859 96.2604 24.965 96.3179 24.9233 96.3544C24.5735 96.6938 24.2394 96.6154 24.0097 96.1456C23.8061 95.7332 23.8009 95.3416 24.0619 95.0127L24.9442 93.9373L24.9076 93.9112Z" fill="#F39BA6"/>
<path d="M17.3162 97.5395L24.0403 96.3074L29.3026 104.974L24.7294 110.586L17.3162 105.386V97.5395Z" fill="#F39BA6"/>
<path d="M18.9404 96.4796C19.4468 96.4953 19.9532 96.4744 20.4648 96.5318C20.919 96.584 21.3679 96.6362 21.7856 96.4117C21.8952 96.3543 22.0205 96.3647 22.1406 96.3386C22.3546 96.2969 22.5739 96.2603 22.7879 96.2081C22.8871 96.182 22.9706 96.0776 23.0698 96.0881C23.4666 96.1142 23.8007 96.1037 24.1714 96.0098C24.2706 96.1507 24.3854 96.2812 24.5212 96.4013C24.6203 96.9547 24.9023 97.1322 25.1424 97.4141C25.3826 97.6908 25.5339 98.0249 25.8524 98.2494C25.9359 98.3068 26.0038 98.3956 26.0299 98.4895C26.1865 99.069 26.5415 99.5336 26.8808 100.014C27.2463 100.526 27.523 101.084 27.6848 101.711C27.7736 102.045 27.9563 102.337 28.1338 102.629C28.3426 102.974 28.6036 103.287 28.8281 103.627C29.0631 103.976 29.4128 104.483 29.8409 105.01L29.6216 105.402C29.5016 105.621 29.3554 105.877 29.2144 106.112L28.9378 106.639C28.7498 106.989 28.5514 107.333 28.3426 107.673C28.1338 108.017 27.8258 108.294 27.5491 108.581L26.7034 109.448L26.2805 109.881L26.0717 110.1L25.7637 110.45C25.4556 110.805 25.1581 111.16 24.8605 111.536L23.7015 110.763L23.4248 110.58L23.2891 110.497L23.1951 110.445L22.8245 110.236C22.5791 110.095 22.3285 109.959 22.0884 109.813L17.8075 107.161C17.6352 107.056 17.4577 106.957 17.2854 106.858L17.1497 106.78L16.8991 106.623L16.3875 106.299L16.0273 106.059V105.281L16.1004 102.755L16.1213 99.5441C16.1317 98.9385 16.163 98.3329 16.0221 97.7273C15.9803 97.5603 16.1004 97.5028 16.351 97.5655C16.7843 97.6751 17.2385 97.7639 17.4995 98.051C17.677 98.2494 17.8075 98.4321 17.7448 98.6775C17.6509 99.0325 17.8545 99.4083 17.5935 99.7529C17.5569 99.7999 17.5674 99.873 17.583 99.9304C17.8806 100.975 17.724 102.024 17.6874 103.073C17.677 103.418 17.724 103.757 17.7344 104.102C17.7449 104.316 17.7449 104.566 17.7396 104.749L17.7083 105.177C17.7709 105.229 17.8388 105.276 17.9119 105.318C17.9902 105.365 18.0581 105.381 18.1416 105.449C18.2304 105.522 18.2982 105.626 18.3139 105.793C18.3191 105.866 18.434 105.924 18.5071 105.903C18.7838 105.809 18.9351 105.944 19.097 106.065C19.5303 106.393 19.9532 106.738 20.3969 107.046C20.7258 107.276 21.0808 107.474 21.441 107.657C21.9996 107.939 22.5843 108.184 23.1429 108.476C23.3778 108.597 23.6023 108.732 23.8268 108.868C24.0356 108.993 24.3384 109.186 24.3437 109.16C24.375 109.171 24.4167 109.134 24.4376 109.145C24.4794 109.16 24.5055 109.124 24.542 109.207C24.5473 109.213 24.5525 109.218 24.5577 109.228C24.6099 109.312 24.683 109.249 24.5995 109.019C24.5473 108.894 24.5577 108.905 24.5838 108.905H24.589L24.6203 108.878L24.683 108.831C24.7248 108.8 24.7665 108.774 24.8135 108.743C24.9023 108.685 24.9962 108.638 25.085 108.586C25.3042 108.466 25.5235 108.362 25.56 108.064C25.5809 107.907 25.7376 107.793 25.8785 107.709C26.4998 107.349 26.9174 106.806 27.2933 106.232L27.9041 105.271L27.9772 105.151L28.0137 105.088L28.0189 105.067L28.0346 104.989C28.0398 104.942 28.045 104.9 28.0398 104.874C27.9981 104.843 27.9563 104.817 27.925 104.801L27.8832 104.775C27.8728 104.77 27.878 104.775 27.8623 104.754L27.784 104.639L27.4812 104.185C26.8495 103.245 26.317 102.243 25.7898 101.241C25.6853 101.042 25.5862 100.839 25.4348 100.677C25.0798 100.301 24.8396 99.8573 24.6412 99.3875C24.4011 98.8236 24.0095 98.3486 23.618 97.8839L23.4718 97.7273C23.4405 97.6856 23.4457 97.7064 23.4405 97.7012C23.4353 97.7012 23.4353 97.7012 23.4405 97.696C23.4614 97.6699 23.4509 97.6386 23.4457 97.6281C23.4301 97.6334 23.4144 97.6438 23.4039 97.6542C23.3987 97.6594 23.3935 97.6699 23.3935 97.6751V97.6803L23.3309 97.696L23.2004 97.7325C22.8454 97.8213 22.4903 97.91 22.1301 97.957C21.3523 98.0614 20.5587 98.0823 19.7704 98.1189C19.1596 98.1502 18.5488 98.1502 17.938 98.1606C17.8962 98.1606 17.8597 98.1867 17.8232 98.1867C17.4734 98.1815 17.3115 97.8996 17.3846 97.4036C17.4525 96.9651 17.63 96.6884 17.938 96.6414C18.2773 96.5892 18.6219 96.5631 18.9613 96.5266L18.9404 96.4796Z" fill="#F39BA6"/>
<path d="M26.3711 81.2254L28.9448 88.7482L38.6133 89.1084L41.3385 81.8518L34.3586 76.7461L26.3711 81.2254Z" fill="#F39BA6"/>
<path d="M27.6842 82.7548C27.752 83.2821 27.8564 83.8042 27.8878 84.3419C27.9139 84.8222 27.9295 85.292 28.2219 85.694C28.295 85.7984 28.3054 85.9342 28.3524 86.0542C28.4307 86.2735 28.5038 86.4928 28.5926 86.7068C28.6343 86.806 28.7544 86.8791 28.7544 86.9835C28.7648 87.2341 28.7962 87.4742 28.8692 87.7039C28.9371 87.9336 29.0206 88.0798 29.1459 88.1947C29.1251 88.2991 29.1303 88.3983 29.1459 88.487C29.3443 88.5288 29.6158 88.4505 29.809 88.4139C30.1535 88.3669 30.5607 88.4244 30.9314 88.2834C31.0306 88.2469 31.1454 88.2364 31.2446 88.2678C31.845 88.4557 32.4558 88.4192 33.0718 88.3983C33.7296 88.3774 34.3822 88.4557 35.0295 88.6645C35.3741 88.7742 35.7343 88.7846 36.0945 88.795C36.5174 88.8107 36.9455 88.7689 37.3683 88.7689L37.6868 88.7637L37.9269 88.748C38.0783 88.7376 38.2193 88.7167 38.3446 88.6906C38.3707 88.5392 38.3864 88.3878 38.3916 88.2521V88.0537C38.3916 87.9963 38.4177 87.8605 38.4281 87.7666L38.5325 87.1506C38.6056 86.7381 38.6944 86.3309 38.7883 85.929C38.8823 85.5165 39.0911 85.1407 39.2739 84.7543L39.822 83.6058L40.0935 83.0315L40.3388 82.4938C40.4015 82.3737 40.4537 82.238 40.4955 82.1127C40.3649 82.0187 40.2396 81.9456 40.0987 81.8621C39.6027 81.5332 39.0755 81.2513 38.5743 80.9276L36.3555 79.4868L35.2488 78.7663L34.6954 78.4061L34.4187 78.2234L34.3561 78.1816H34.3456H34.33C34.3091 78.1816 34.2934 78.1868 34.283 78.2025C34.2673 78.2338 34.2673 78.2651 34.2725 78.2808C34.2673 78.286 34.2882 78.2808 34.2621 78.2965L34.1264 78.38L33.8497 78.5314C33.1553 78.8968 32.4506 79.2414 31.7614 79.6173L28.8118 81.2461C28.2532 81.5489 27.679 81.8308 27.1934 82.2641C27.0577 82.3842 26.9481 82.3111 26.8854 82.0605C26.7758 81.6272 26.6296 81.1834 26.7706 80.8128C26.8645 80.557 26.969 80.3482 27.2248 80.2751C27.5954 80.1759 27.8408 79.8052 28.2898 79.8574C28.3524 79.8627 28.4151 79.8157 28.4568 79.7739C29.2712 78.9804 30.3101 78.5784 31.2864 78.072C31.6048 77.9049 31.8972 77.6909 32.2052 77.503C32.4036 77.3829 32.6072 77.268 32.816 77.1584L33.2754 76.9339L33.5103 76.8138C33.6095 76.7616 33.7035 76.7042 33.7975 76.6468C34.0011 76.5215 34.2203 76.344 34.4135 76.3179C34.4814 76.4014 34.5388 76.5006 34.5858 76.6207C34.6223 76.7146 34.7424 76.7877 34.8103 76.7616C35.0608 76.6468 35.3532 76.8974 35.4837 77.0018C35.9327 77.3515 36.3712 77.7222 36.8306 78.0563C37.1752 78.3017 37.5354 78.5209 37.9113 78.7245C38.4908 79.0378 39.0963 79.3092 39.6706 79.6329C40.1509 79.8992 40.6051 80.2124 41.0697 80.4996L41.3203 80.6405C41.4195 80.6927 41.5187 80.7501 41.6127 80.8128C41.9363 81.0373 42.3383 81.2618 42.5628 81.5123L42.5315 81.5645C42.2704 82.0031 42.1556 82.2537 42.2287 82.6609C42.2496 82.7757 42.2182 82.9271 42.1712 83.0837L42.1295 83.2038L42.1034 83.2717C42.0825 83.3134 42.0669 83.35 42.046 83.3865C41.9468 83.5745 41.8006 83.7363 41.6544 83.9034C41.4769 84.1018 41.3047 84.2792 41.3621 84.582C41.3934 84.7439 41.2733 84.9109 41.1637 85.0415C40.6782 85.6157 40.4432 86.2944 40.2605 86.9887L39.9421 88.2469L39.8638 88.5601L39.7072 89.0822L39.3574 90.2203L38.757 90.2359C38.4124 90.2411 38.0574 90.2411 37.6972 90.2359H37.1021C35.9118 90.2411 34.7267 90.1367 33.5417 90.0166C33.3067 89.9958 33.0718 89.9645 32.8421 90.001C32.3096 90.0897 31.7823 90.0427 31.255 89.9488C30.9366 89.8913 30.6181 89.8809 30.2997 89.8914C30.1379 89.8966 29.9812 89.907 29.8194 89.9227L28.911 89.954C28.6343 89.9644 28.3263 90.001 28.0601 89.9801L28.0496 89.9435C27.9087 89.4424 27.7625 88.9777 27.6006 88.5131L27.5015 88.2417L27.4336 88.0642L27.2874 87.7092C27.089 87.2393 26.8854 86.7695 26.7445 86.284C26.5148 85.4904 26.3634 84.676 26.1963 83.8616C26.0658 83.2351 25.9666 82.5982 25.8518 81.9718C25.8465 81.93 25.81 81.8934 25.8048 81.8517C25.7526 81.4862 26.0084 81.2826 26.5096 81.2879C26.9533 81.2931 27.2613 81.4445 27.3553 81.7525C27.4649 82.0971 27.5432 82.4468 27.6372 82.7966L27.6842 82.7548Z" fill="#F39BA6"/>
<path d="M43.3725 96.678L50.723 98.0719L51.1042 106.399L43.3725 111.113L38.0319 104.973L43.3725 96.678Z" fill="#F39BA6"/>
<path d="M45.3403 96.2915C45.831 96.4899 46.3322 96.657 46.8073 96.8971C47.2353 97.1112 47.6478 97.3304 48.1385 97.273C48.2638 97.2573 48.3891 97.3148 48.5092 97.3356C48.7337 97.3774 48.9581 97.4192 49.1878 97.4505C49.2922 97.4661 49.4176 97.3983 49.5063 97.4453C49.6107 97.4975 49.6995 97.5445 49.8248 97.5862C49.9501 97.6332 50.0753 97.6698 50.2006 97.7011C50.4512 97.7637 50.707 97.7951 51.0307 97.7951L51.0725 97.9204C50.989 98.2284 50.9837 98.4424 51.0098 98.6617C51.0412 98.8757 51.1038 99.1159 51.1404 99.2881C51.2187 99.6588 51.1926 100.04 51.3648 100.405C51.4118 100.499 51.4327 100.614 51.4066 100.713C51.2656 101.324 51.3544 101.925 51.4275 102.53C51.5058 103.177 51.4797 103.83 51.3231 104.488C51.2395 104.838 51.2604 105.198 51.2813 105.553C51.297 105.856 51.3387 106.2 51.3753 106.545L50.9524 106.837C50.6131 107.056 50.3834 107.223 50.138 107.411C49.8978 107.599 49.6629 107.798 49.4384 108.017C48.8433 108.602 48.2221 109.155 47.5799 109.672C47.251 109.933 46.8595 110.1 46.4836 110.293L45.3507 110.857L44.7869 111.139C44.7138 111.175 44.5468 111.269 44.4058 111.342L43.9777 111.583L43.2155 112.032L42.5421 111.269C42.3228 111.029 42.0461 110.726 41.9313 110.606C41.5241 110.178 41.0751 109.792 40.6627 109.369L38.9033 107.558L38.0263 106.649L37.7913 106.404L37.3894 105.97L36.575 105.083L36.7629 104.765L37.3633 103.731L37.5094 103.475L37.5825 103.334L37.7287 103.057C37.8279 102.875 37.9427 102.697 38.0628 102.52C38.5066 101.878 38.9608 101.246 39.3888 100.593L41.216 97.7898C41.5658 97.2626 41.9365 96.7509 42.161 96.1453C42.2236 95.9731 42.3541 95.9887 42.5264 96.1819C42.8292 96.5108 43.1633 96.8345 43.2155 97.2312C43.252 97.4975 43.2625 97.7324 43.0693 97.9099C42.7927 98.1709 42.7509 98.6095 42.3333 98.7713C42.2758 98.7922 42.2445 98.8653 42.2236 98.9227C41.8843 99.9981 41.1586 100.833 40.5374 101.737C40.3338 102.029 40.1824 102.358 39.9996 102.666C39.8796 102.864 39.7595 103.063 39.629 103.256C39.441 103.532 39.2218 103.793 39.0547 104.091C38.9973 104.195 38.9399 104.331 38.8772 104.41C38.825 104.477 38.7415 104.519 38.564 104.561C38.4909 104.577 38.4387 104.681 38.4857 104.723C38.5953 104.817 38.6162 104.874 38.5849 104.942C38.6319 104.979 38.658 105.02 38.6893 105.062L39.0495 105.532C39.227 105.751 39.4045 105.976 39.5924 106.185C39.8691 106.498 40.1719 106.79 40.4904 107.067C40.9811 107.5 41.5084 107.897 41.9991 108.33C42.4063 108.696 42.777 109.098 43.1633 109.479C43.2416 109.552 43.4087 109.667 43.4035 109.651C43.4505 109.688 43.5027 109.656 43.5027 109.787C43.5027 109.849 43.5183 109.907 43.534 109.922C43.5653 109.902 43.6018 109.823 43.6175 109.677C43.6279 109.531 43.6332 109.547 43.654 109.557L43.6801 109.578C43.6906 109.588 43.6958 109.604 43.7637 109.578C43.8681 109.552 43.9777 109.536 44.0821 109.515C44.3379 109.468 44.5885 109.437 44.7295 109.165C44.8078 109.019 45.001 108.962 45.1628 108.925C45.8937 108.774 46.494 108.388 47.0631 107.954C47.8357 107.37 48.5927 106.754 49.3601 106.158C49.5115 106.044 49.6681 105.934 49.8248 105.83C49.8509 105.803 49.8561 105.793 49.8717 105.777L49.8822 105.762C49.877 105.746 49.8717 105.73 49.8717 105.72V105.699L49.8874 105.621L49.8665 104.785C49.8613 104.232 49.8665 103.673 49.8717 103.12C49.8769 102.89 49.8874 102.65 49.83 102.426C49.6995 101.904 49.6995 101.376 49.7517 100.849C49.783 100.531 49.7673 100.212 49.7308 99.8989C49.7099 99.7423 49.689 99.5857 49.6577 99.4291L49.6159 99.1942C49.6055 99.142 49.6003 99.142 49.5951 99.142L49.5794 99.1315C49.5585 99.1211 49.5063 99.1367 49.522 99.1263C49.5376 99.1106 49.5481 99.095 49.5533 99.0845C49.5481 99.0741 49.5272 99.0741 49.5115 99.0793C49.5011 99.0845 49.4959 99.0845 49.4854 99.0898C49.4959 99.095 49.4698 99.0897 49.4384 99.0845L49.3549 99.0741L49.1931 99.0532C48.7545 99.001 48.3212 98.9488 47.8931 98.8444C47.0944 98.6565 46.3165 98.3798 45.5334 98.1292C44.9278 97.9308 44.3327 97.7063 43.7324 97.4975C43.6906 97.4818 43.6488 97.4975 43.607 97.4818C43.2677 97.3461 43.2155 97.0224 43.4661 96.5943C43.6906 96.2132 43.9673 96.0201 44.2857 96.0879C44.6355 96.161 44.9801 96.2654 45.3246 96.3542L45.3403 96.2915Z" fill="#F39BA6"/>
<path d="M25.9366 110.967C26.0201 111.259 26.1297 111.53 26.1767 111.844C26.2185 112.126 26.255 112.402 26.5213 112.522C26.5892 112.554 26.6048 112.632 26.6466 112.684C26.7249 112.783 26.7928 112.888 26.8815 112.982C26.9181 113.023 27.0277 113.023 27.0329 113.081C27.0695 113.378 27.1895 113.613 27.4714 113.728C27.4297 114.01 27.6646 114.088 27.8369 114.219C28.0092 114.349 28.0979 114.543 28.3381 114.616C28.4007 114.637 28.4529 114.678 28.4633 114.736C28.479 114.83 28.5051 114.908 28.5416 114.986C28.5782 115.065 28.6252 115.138 28.6461 115.174C28.7087 115.263 28.7922 115.326 28.8601 115.388L28.8862 115.409C28.9958 115.394 29.0898 115.399 29.189 115.43C29.2621 115.461 29.4761 115.519 29.6328 115.608C29.8207 115.707 30.0191 115.702 30.2122 115.702C30.4419 115.702 30.6716 115.644 30.9014 115.629C31.2355 115.608 31.5696 115.55 31.8985 115.409C32.3422 115.221 32.7912 115.07 33.2349 114.966C33.4647 114.913 33.6944 114.976 33.9241 115.007C34.3835 115.07 34.8429 115.169 35.3023 115.211C35.6468 115.242 35.9966 115.221 36.3412 115.19C36.6649 115.164 36.9885 115.08 37.307 115.044L38.111 114.96L38.3146 114.939C38.3824 114.934 38.3615 114.924 38.3877 114.919C38.4138 114.903 38.4398 114.892 38.4607 114.877L38.4816 114.809L38.4868 114.778C38.4868 114.767 38.4816 114.767 38.5286 114.71L38.9097 114.203C39.0507 114.021 39.1655 113.812 39.296 113.624C39.3639 113.53 39.4422 113.446 39.5205 113.363C39.8285 113.065 40.147 112.778 40.4446 112.475L41.7027 111.144C41.9429 110.899 42.2039 110.664 42.3344 110.314C42.371 110.215 42.4753 110.272 42.6372 110.471C42.9139 110.81 43.2114 111.154 43.2898 111.452C43.342 111.656 43.3681 111.823 43.2271 111.88C43.0235 111.964 43.0235 112.261 42.6946 112.23C42.6476 112.225 42.6268 112.261 42.6163 112.298C42.4284 112.935 41.9063 113.269 41.4782 113.686C41.3373 113.822 41.2381 114 41.118 114.151C41.0397 114.25 40.9509 114.344 40.8622 114.433C40.7317 114.564 40.5751 114.668 40.4654 114.819C40.3819 114.934 40.3506 115.086 40.0791 115.002C40.0217 114.986 39.9799 115.049 40.0112 115.106C40.1209 115.341 40.0217 115.404 39.9382 115.488L39.5936 115.811C39.4474 115.952 39.3012 116.093 39.1655 116.245L39.0872 116.333C38.8366 116.344 38.5599 116.38 38.3093 116.427C37.9543 116.516 37.5993 116.652 37.2443 116.735C36.9468 116.803 36.6492 116.819 36.3516 116.861C36.2838 116.871 36.2159 116.923 36.148 116.928C36.0227 116.939 35.887 116.996 35.7721 116.913C35.6416 116.819 35.5372 116.803 35.4171 117.012C35.3493 117.132 35.2396 117.116 35.1509 117.096C35.036 117.069 34.9264 116.986 34.8116 116.908C34.681 116.814 34.5558 116.709 34.4096 116.871C34.3313 116.955 34.2268 116.908 34.1381 116.85C33.7518 116.594 33.3655 116.62 32.9739 116.688C32.4466 116.782 31.9194 116.918 31.3869 117.022C31.178 117.064 30.9692 117.069 30.7656 117.085C30.4419 117.111 30.1183 117.106 29.7946 117.09L29.3091 117.054L28.4581 117.002C28.3276 116.991 28.1971 116.981 28.0666 116.986C28.0092 116.908 27.9465 116.834 27.8786 116.772C27.6907 116.605 27.5132 116.396 27.3566 116.177C27.2574 116.041 27.2522 116.02 27.2104 115.942C27.1791 115.879 27.1478 115.811 27.1217 115.738C26.9912 115.404 26.7145 115.18 26.4325 114.955C26.3699 114.903 26.2811 114.866 26.2446 114.793C26.0149 114.271 25.5189 113.953 25.2266 113.478C24.9917 113.097 24.8298 112.658 24.6523 112.235C24.5166 111.906 24.4017 111.567 24.2764 111.233C24.266 111.212 24.2399 111.201 24.2295 111.181C24.1668 110.982 24.3809 110.753 24.8194 110.549C25.2057 110.371 25.4772 110.33 25.5764 110.481C25.686 110.643 25.7695 110.826 25.8635 110.998L25.9366 110.967Z" fill="#F39BA6"/>
<path d="M26.6317 117.696C29.5291 118.599 31.9306 118.724 32.959 118.766C34.259 118.818 37.4383 118.834 41.1397 117.68L38.9262 115.926H28.626L26.6317 117.696Z" fill="#F39BA6"/>
<path d="M28.0933 117.325C28.417 117.513 28.7511 117.665 29.0748 117.879C29.3619 118.072 29.6543 118.26 30.0041 118.171C30.0928 118.15 30.1816 118.197 30.2651 118.208C30.4269 118.229 30.5836 118.255 30.7454 118.26C30.8185 118.265 30.9072 118.187 30.9699 118.223C31.2831 118.406 31.6172 118.479 31.967 118.349C32.2124 118.568 32.4839 118.437 32.7501 118.39C33.0164 118.343 33.2826 118.39 33.5436 118.244C33.6115 118.202 33.6898 118.187 33.7577 118.218C34.1753 118.385 34.6034 118.317 35.021 118.255C35.47 118.182 35.9242 118.208 36.3993 118.338C36.6499 118.411 36.9057 118.375 37.151 118.343C37.4434 118.302 37.7305 118.202 38.0177 118.135C38.4771 118.03 38.7642 117.915 38.9156 117.733C39.0983 117.498 39.067 117.336 38.9834 117.242C38.9887 117.221 38.926 117.205 38.9469 117.195C38.9521 117.184 38.973 117.169 38.9782 117.153C38.9887 117.08 38.9573 116.934 38.7746 116.73C38.7485 116.704 38.7172 116.673 38.6911 116.647L38.5658 116.641L38.3883 116.647L37.8402 116.673C37.4225 116.699 36.9996 116.782 36.582 116.819L32.8493 117.106C32.5517 117.132 32.2489 117.184 31.9514 117.216C31.8 117.231 31.6538 117.231 31.5024 117.226C30.949 117.205 30.3904 117.164 29.837 117.153L29.0905 117.143L28.5423 117.612C28.1978 117.905 27.8375 118.176 27.5974 118.578C27.5295 118.693 27.4199 118.631 27.2894 118.411C27.0597 118.03 26.8091 117.649 26.7986 117.315C26.7934 117.085 26.8039 116.897 26.9814 116.824C27.2424 116.72 27.3155 116.386 27.6809 116.407C27.7331 116.412 27.7645 116.365 27.7853 116.323C27.8636 116.177 27.9315 116.062 28.0464 115.926C28.1717 115.775 28.3126 115.634 28.4588 115.493C29.174 115.472 29.576 115.54 30.0719 115.561C30.3278 115.571 30.5836 115.524 30.8341 115.514C31.0012 115.503 31.163 115.503 31.3301 115.509C31.5703 115.519 31.8104 115.561 32.0505 115.54C32.2333 115.524 32.4055 115.441 32.5674 115.697C32.6039 115.749 32.6979 115.738 32.7292 115.676C32.8597 115.436 33.0059 115.462 33.1573 115.472C33.5593 115.493 33.9613 115.529 34.3685 115.529C34.666 115.529 34.9636 115.488 35.2612 115.43C35.7206 115.342 36.18 115.206 36.6446 115.122C37.031 115.054 37.4173 115.039 37.8036 114.997C37.8924 114.987 37.9811 114.934 38.0698 114.929C38.1534 114.919 38.2369 114.908 38.3204 114.903C38.404 114.898 38.4718 114.903 38.6285 114.945C38.8582 115.018 39.0252 115.044 39.2654 114.955C39.3176 114.966 39.3802 114.966 39.4481 114.966C39.6256 114.955 39.8396 115.143 39.9962 115.295C40.1998 115.498 40.3565 115.733 40.487 115.937C40.6488 116.193 40.7271 116.38 41.1604 116.537C41.4006 116.626 41.5363 116.803 41.6042 116.934C41.7608 117.221 41.9644 117.461 42.2411 117.706L42.4604 117.894L42.5804 117.988L42.6118 118.014L42.5804 118.025L42.5178 118.046C42.3507 118.103 42.1941 118.166 42.0323 118.229C41.5885 118.411 41.1396 118.599 40.6958 118.782C40.2051 118.975 39.6778 119.179 39.0879 119.351L38.7381 119.45L38.5136 119.508L38.1012 119.602C37.2398 119.795 36.3575 119.836 35.4752 119.821C35.303 119.821 35.1255 119.805 34.9584 119.857C34.5721 119.983 34.1753 119.962 33.7838 119.889C33.3087 119.8 32.8441 119.873 32.369 119.941C32.2594 119.957 32.1445 119.998 32.0401 119.977C31.2988 119.805 30.5209 119.93 29.7796 119.769C29.1792 119.633 28.605 119.398 28.0359 119.158C27.5974 118.97 27.1798 118.745 26.7621 118.521C26.736 118.505 26.6995 118.516 26.6734 118.5C26.4384 118.359 26.4541 118.041 26.7099 117.628C26.9344 117.258 27.1589 117.075 27.3729 117.148C27.6078 117.221 27.8375 117.325 28.0673 117.404L28.0933 117.325Z" fill="#F39BA6"/>
<path d="M16.5613 111.076L17.3235 105.386L13.5491 105.271C14.6558 107.887 15.5277 109.844 16.5613 111.076Z" fill="#F39BA6"/>
<path d="M15.9084 110.283C16.0389 110.105 16.1381 109.917 16.3052 109.745C16.4566 109.594 16.6132 109.442 16.4931 109.249C16.4618 109.197 16.5035 109.155 16.5088 109.108C16.5192 109.025 16.5297 108.936 16.5297 108.852C16.5297 108.81 16.4461 108.758 16.4827 108.727C16.6497 108.57 16.7124 108.398 16.5819 108.2C16.8011 108.09 16.6706 107.933 16.6288 107.787C16.5871 107.641 16.6497 107.505 16.514 107.343C16.4774 107.302 16.467 107.26 16.5035 107.223C16.6027 107.124 16.6445 107.015 16.6602 106.9C16.6654 106.848 16.6706 106.78 16.6654 106.738L16.6497 106.634C16.6236 106.487 16.6915 106.367 16.916 106.08C17.036 105.924 17.0465 105.809 17.0621 105.699C17.0674 105.668 17.0674 105.636 17.0621 105.61C16.9473 105.626 16.8168 105.657 16.7176 105.662C16.5244 105.678 16.2999 105.73 16.1172 105.866C16.0546 105.913 16.0024 105.955 15.9606 105.997L15.898 106.054C15.8875 106.075 15.8614 106.091 15.8144 106.111C15.7361 106.143 15.6578 106.174 15.5795 106.205C15.5377 106.237 15.5273 106.263 15.5116 106.289C15.4803 106.341 15.4333 106.279 15.3707 106.247C15.2558 106.179 15.0418 106.075 14.8486 106.028C14.7755 106.012 14.7181 106.007 14.6711 106.007C14.6294 105.997 14.6816 106.049 14.6868 106.07L14.7442 106.158C14.8225 106.273 14.9687 106.399 15.0366 106.472C15.141 106.587 15.2245 106.665 15.2976 106.712C15.308 106.722 15.3132 106.712 15.3289 106.738L15.3968 106.842L15.5273 107.046L15.7935 107.448C15.8823 107.573 15.9919 107.688 16.0859 107.813C16.1329 107.876 16.1642 107.944 16.1955 108.012C16.2999 108.273 16.3887 108.534 16.5088 108.779C16.681 109.129 16.8899 109.447 17.0778 109.761C17.1874 109.938 17.2814 110.126 17.5111 110.183C17.5738 110.199 17.4955 110.288 17.2919 110.434C16.9369 110.685 16.5662 110.946 16.2895 111.019C16.1016 111.066 15.9449 111.087 15.9397 110.967C15.9293 110.794 15.6735 110.784 15.8144 110.518C15.8353 110.481 15.8092 110.465 15.7831 110.455C15.3028 110.262 15.2193 109.808 15.0574 109.426C15.0052 109.301 14.8956 109.202 14.8225 109.087C14.7755 109.014 14.7338 108.936 14.6972 108.852C14.6502 108.732 14.6294 108.602 14.5563 108.492C14.4989 108.414 14.384 108.362 14.5824 108.174C14.6241 108.132 14.5876 108.095 14.525 108.106C14.2796 108.147 14.2691 108.064 14.243 107.986C14.17 107.782 14.1177 107.573 14.029 107.38C13.9611 107.234 13.8306 107.03 13.6897 106.848C13.4652 106.555 13.1624 106.2 12.9066 105.803C12.6925 105.475 12.5359 105.146 12.3375 104.791C12.2905 104.707 12.1861 104.592 12.1444 104.509C12.0974 104.378 11.8155 104.081 12.1861 104.237C12.4837 104.336 12.6038 104.357 12.4837 104.143C12.4158 104.023 12.5777 104.039 12.7186 104.065C12.8961 104.096 13.1258 104.185 13.3347 104.269C13.5905 104.373 13.7993 104.477 13.8463 104.321C13.8724 104.237 14.0447 104.295 14.1804 104.352C14.7808 104.624 15.1149 104.613 15.5482 104.556C15.851 104.467 16.5818 104.357 17.3023 104.274C17.5894 104.242 17.8661 104.242 18.148 104.237C18.3255 104.232 18.503 104.232 18.6805 104.237C18.597 104.9 18.4508 105.61 18.3099 106.258C18.2733 106.419 18.2316 106.576 18.2577 106.733C18.2733 106.811 18.2733 106.942 18.2785 106.989C18.2838 107.041 18.2785 107.088 18.2733 107.135C18.2577 107.234 18.2211 107.328 18.1689 107.422C18.0488 107.646 18.1063 107.892 18.1689 108.137C18.1846 108.194 18.2263 108.257 18.2002 108.309C18.0279 108.67 18.1898 109.072 18.0958 109.442C18.0175 109.74 17.8557 110.027 17.7095 110.319C17.5999 110.544 17.4589 110.763 17.3284 110.982C17.318 110.998 17.3388 111.014 17.3284 111.029C17.2449 111.155 16.9316 111.155 16.4722 111.029C16.065 110.92 15.8405 110.8 15.8614 110.679C15.8875 110.549 15.9397 110.418 15.9867 110.288L15.9084 110.283Z" fill="#F39BA6"/>
<path d="M52.3833 108.075C52.2215 107.85 52.0387 107.652 51.8978 107.391C51.8351 107.276 51.7777 107.156 51.6942 107.072C51.6211 106.989 51.5167 106.926 51.3444 106.905C51.2557 106.895 51.2087 106.827 51.1408 106.785C51.026 106.717 50.9163 106.644 50.791 106.582L50.7858 106.561C50.7754 106.503 50.6866 106.472 50.7127 106.394C50.8432 106.033 50.8693 105.746 50.6971 105.527C50.8902 105.334 50.7336 105.156 50.6657 104.974C50.5979 104.791 50.6292 104.598 50.4673 104.42C50.4256 104.373 50.4047 104.316 50.4308 104.269C50.5822 103.961 50.5091 103.663 50.4517 103.36C50.3891 103.037 50.4308 102.713 50.5979 102.384C50.6866 102.207 50.6762 102.029 50.6657 101.852C50.6553 101.643 50.5874 101.434 50.5613 101.225C50.5248 100.922 50.4517 100.625 50.3003 100.327C50.0915 99.9305 49.9244 99.5337 49.7991 99.1317C49.7365 98.9281 49.7887 98.7141 49.8096 98.5053C49.8148 98.4583 49.82 98.3382 49.8305 98.2234L49.8513 97.8945L50.0393 97.5864L50.128 97.4403L50.1907 97.3515C50.2742 97.2314 50.3525 97.1114 50.4256 96.9861C50.5874 96.7146 50.7023 96.4223 50.8067 96.1195C50.9059 95.8428 50.9529 95.54 51.0468 95.2581L51.8821 92.7679C51.95 92.5695 51.9865 92.3555 52.0492 92.1518C52.0805 92.0527 52.1223 91.9535 52.1745 91.8647L53.1194 90.001L53.2604 90.0375L54.8265 90.4343L55.3747 90.57L55.7767 90.6796C56.0795 90.7632 56.3771 90.8728 56.7164 90.8102C56.8104 90.7945 56.8104 90.9146 56.7216 91.1495C56.565 91.5567 56.4084 91.9848 56.2048 92.204C56.0638 92.3502 55.9385 92.4598 55.8289 92.3659C55.6723 92.2301 55.4373 92.3816 55.3225 92.084C55.3068 92.0422 55.2703 92.0422 55.2337 92.0527C55.0928 92.0892 54.9571 92.1048 54.8265 92.0996C54.6804 92.0892 54.6386 92.0892 54.5446 92.0683C54.3828 92.0265 54.2053 91.9378 54.0173 91.8699L53.986 91.9221C53.9234 92.0266 53.9025 92.1884 53.8659 92.3032C53.8398 92.3815 53.8085 92.4494 53.772 92.5173C53.7198 92.6113 53.5893 92.7835 53.5475 92.9297C53.511 93.0498 53.5318 93.196 53.2499 93.1907C53.1925 93.1907 53.1768 93.2534 53.2238 93.3004C53.4013 93.4831 53.3335 93.5666 53.2865 93.6554C53.1507 93.906 52.9941 94.1409 52.8792 94.3967C52.7957 94.5846 52.7383 94.7934 52.707 95.0075C52.6496 95.3364 52.6391 95.6862 52.5765 96.0151C52.5243 96.2865 52.4251 96.5423 52.352 96.8034C52.3363 96.866 52.3572 96.9443 52.3363 97.0017C52.2998 97.1114 52.2998 97.2419 52.1797 97.3098C52.044 97.3776 51.9865 97.4559 52.1327 97.6439C52.2162 97.7483 52.164 97.8371 52.1118 97.8997C52.044 97.9832 51.9291 98.0407 51.8143 98.0981C51.7777 98.1137 51.7464 98.1346 51.7151 98.1503C51.6837 98.1659 51.6733 98.1555 51.6577 98.1659C51.6316 98.1764 51.6368 98.2025 51.7098 98.239C51.7255 98.2495 51.7412 98.2547 51.7412 98.2599C51.7621 98.2756 51.7255 98.286 51.6785 98.3017C51.6472 98.3121 51.6211 98.3226 51.6002 98.3487C51.5794 98.3956 51.5585 98.4374 51.548 98.4844C51.5219 98.5732 51.5063 98.6619 51.501 98.7507C51.4906 98.9282 51.5219 99.1056 51.5689 99.2779C51.689 99.753 51.8456 100.228 51.9709 100.703C52.0179 100.891 52.0335 101.079 52.0596 101.267C52.1379 101.852 52.1014 102.442 52.0596 103.031C52.0492 103.146 52.0335 103.266 52.0857 103.376C52.2058 103.632 52.1901 103.893 52.1275 104.159C52.0544 104.478 52.1536 104.786 52.2632 105.099C52.2893 105.172 52.3415 105.24 52.3311 105.313C52.2684 105.798 52.3363 105.652 52.3781 105.663C52.399 105.652 52.4042 105.642 52.399 105.652C52.3937 105.663 52.3624 105.657 52.4721 105.746C52.5504 105.814 52.6235 105.887 52.6965 105.965L53.1299 106.425C53.3543 106.66 53.5579 106.921 53.7772 107.166C53.7929 107.182 53.819 107.177 53.8346 107.192C53.9495 107.344 53.8346 107.636 53.5162 107.991C53.2343 108.304 53.0046 108.45 52.8688 108.356C52.7227 108.257 52.5921 108.132 52.4512 108.012L52.3833 108.075Z" fill="#F39BA6"/>
<path d="M25.414 82.0865C25.1112 82.0134 24.8136 81.9769 24.5108 81.862C24.2394 81.7628 23.9731 81.6532 23.733 81.8307C23.6703 81.8777 23.592 81.8516 23.5241 81.862C23.3988 81.8777 23.2683 81.8933 23.143 81.9194C23.0856 81.9299 23.0334 82.0291 22.976 82.003C22.6941 81.8881 22.4278 81.8777 22.1772 82.0708C21.9475 81.8986 21.7596 82.0656 21.556 82.1491C21.3524 82.2327 21.1383 82.217 20.9504 82.3945C20.8982 82.4415 20.8408 82.4624 20.7833 82.4415C20.6946 82.4102 20.6058 82.3945 20.5223 82.3841C20.4806 82.3788 20.4388 82.3788 20.3918 82.3788C20.3605 82.3788 20.3344 82.3788 20.3083 82.3841C20.1986 82.3945 20.0994 82.4363 20.0107 82.4676L19.9898 82.4728C19.9481 82.5824 19.9011 82.666 19.8175 82.7443L19.7549 82.8017L19.6557 82.8957C19.5878 82.9583 19.5095 83.0158 19.4312 83.0732C19.2485 83.1932 19.1545 83.3708 19.0606 83.543C18.9457 83.7519 18.8831 83.9816 18.7786 84.1956C18.6325 84.5036 18.5124 84.8273 18.4706 85.1927C18.4132 85.6835 18.3192 86.1533 18.1887 86.6023C18.1209 86.832 17.9486 87.0095 17.8076 87.1974C17.5257 87.5785 17.2073 87.9388 16.941 88.3303C16.7426 88.6226 16.586 88.9411 16.4398 89.2648C16.3041 89.5676 16.2153 89.8965 16.0848 90.1993L15.9804 90.4342C15.9491 90.5073 15.8969 90.6169 15.9073 90.6169C15.9021 90.6639 15.8969 90.7057 15.8917 90.7474C15.923 90.784 15.9491 90.8153 15.9752 90.8414C15.9804 90.8466 15.9856 90.8518 15.9961 90.8623L16.0483 90.9719L16.1527 91.1912L16.5703 92.0578C16.6748 92.2718 16.8053 92.4754 16.9149 92.6842C16.9671 92.7886 17.0089 92.8983 17.0454 93.0131C17.1707 93.4308 17.2856 93.8537 17.4213 94.2661L18.0425 96.0359C18.1522 96.37 18.2461 96.7145 18.4967 97.0017C18.5698 97.08 18.4706 97.1531 18.22 97.2C17.792 97.2888 17.3482 97.3932 17.0454 97.3253C16.8418 97.2783 16.68 97.2209 16.6904 97.0643C16.7061 96.8398 16.445 96.7041 16.6225 96.4222C16.6487 96.3804 16.6226 96.3491 16.5965 96.323C16.1109 95.8531 16.0483 95.2215 15.8708 94.6368C15.8134 94.4436 15.6985 94.2713 15.6202 94.0886C15.568 93.9685 15.521 93.8484 15.4845 93.7232C15.427 93.5457 15.4062 93.3525 15.3174 93.1802C15.2548 93.0497 15.1295 92.9505 15.3278 92.7417C15.3696 92.6999 15.3331 92.632 15.2652 92.6268C15.0094 92.6112 14.9937 92.4963 14.9572 92.3815C14.8684 92.0787 14.7954 91.7654 14.6857 91.4679C14.6492 91.3739 14.5813 91.2173 14.5134 91.0763C14.4403 90.9301 14.362 90.7839 14.2785 90.6326L14.2681 90.6169C14.3412 90.3768 14.4195 90.1366 14.4926 89.8965C14.5604 89.6615 14.5813 89.5154 14.6387 89.3274C14.7275 89.0298 14.8632 88.7584 14.9728 88.4713C14.9989 88.4034 14.9885 88.3198 15.0198 88.2572C15.072 88.1371 15.0877 87.9909 15.2234 87.9283C15.3696 87.8552 15.4375 87.7717 15.3174 87.5629C15.2495 87.4428 15.3122 87.354 15.3748 87.2862C15.4531 87.1974 15.5837 87.1348 15.7089 87.0773C15.8603 87.0043 16.0117 86.9416 15.9439 86.738C15.9073 86.6284 16.0065 86.5553 16.1005 86.5083C16.5129 86.2891 16.6904 85.9288 16.8262 85.5477C17.0089 85.0309 17.155 84.4932 17.3273 83.9711C17.3952 83.7675 17.4944 83.5796 17.5831 83.3864C17.7241 83.0836 17.8859 82.8017 18.0634 82.5198L18.3401 82.1074L18.7943 81.4026C18.8778 81.2773 18.9614 81.152 19.0292 81.0163C19.1128 81.0058 19.1911 80.985 19.2642 80.9641C19.5043 80.8805 19.781 80.8283 20.0577 80.8022C20.2247 80.7866 20.2822 80.7866 20.3553 80.7866C20.4283 80.7918 20.5066 80.797 20.5797 80.8074C20.94 80.8544 21.2845 80.7291 21.6238 80.5934C21.7022 80.5621 21.7805 80.5047 21.864 80.5099C22.4383 80.5673 22.976 80.2906 23.545 80.2697C24.0044 80.2541 24.4743 80.3272 24.9389 80.3794C25.2991 80.4211 25.6594 80.489 26.0196 80.5464C26.0457 80.5516 26.0666 80.5255 26.0874 80.5308C26.2963 80.5725 26.3902 80.8753 26.3537 81.3556C26.3172 81.7785 26.2127 82.0343 26.0352 82.0499C25.8369 82.0656 25.6333 82.0499 25.4296 82.0499L25.414 82.0865Z" fill="#F39BA6"/>
<path d="M12.0066 91.2331L14.81 90.6589L19.6704 81.9927L19.5816 80.0715C17.8745 81.5437 13.7137 85.0467 12.0066 91.2331Z" fill="#F39BA6"/>
<path d="M13.068 90.2515C13.4282 90.2828 13.778 90.2881 14.1434 90.3612C14.2896 90.4186 14.488 90.4708 14.655 90.4447C14.6968 90.3768 14.7333 90.2828 14.7333 90.1784C14.7333 90.1001 14.7908 90.0636 14.8221 90.0062C14.89 89.8809 14.9683 89.7451 15.0309 89.6094C15.057 89.5467 15.0205 89.4371 15.0727 89.3953C15.3546 89.1917 15.5425 88.9359 15.5582 88.5809C15.8558 88.4609 15.8453 88.1789 15.9132 87.9336C15.9811 87.6882 16.1429 87.4846 16.1272 87.1975C16.122 87.1192 16.1481 87.0461 16.2055 87.0043C16.5449 86.7381 16.691 86.357 16.8477 85.9863C17.0199 85.5843 17.2758 85.2345 17.6464 84.9526C17.8448 84.8012 17.9596 84.5924 18.0693 84.3836C18.205 84.1382 18.2938 83.8667 18.4138 83.6162C18.5913 83.2507 18.7375 82.8748 18.8158 82.452L18.8994 82.0291C18.915 81.9143 18.8941 81.8725 18.8889 81.8046C18.8471 81.7315 18.8158 81.7107 18.7793 81.6271L18.6749 81.2304C18.607 80.9589 18.6592 80.6718 18.6749 80.3951L18.6958 80.1132L20.1627 80.7448C19.7712 81.0007 19.3796 81.2408 19.0194 81.5227C18.6958 81.7733 18.4086 82.0709 18.1424 82.3789C17.8866 82.6608 17.6934 83.0001 17.4585 83.2977C16.7798 84.1904 16.1586 85.1145 15.6365 86.0803C15.5164 86.3152 15.4225 86.5658 15.3076 86.8007C15.2502 86.9208 15.1927 87.0356 15.1197 87.1453C14.8534 87.5473 14.5924 87.9597 14.3679 88.393C14.0547 89.0142 13.7989 89.6616 13.5483 90.3089C13.4021 90.6744 13.2716 91.0503 13.282 91.4627C13.2872 91.5775 13.1619 91.5828 12.9322 91.4731C12.5355 91.2904 12.1178 91.1077 11.9299 90.8414C11.7994 90.6587 11.7106 90.4969 11.8255 90.3507C11.9821 90.1419 11.8777 89.8234 12.2118 89.6825C12.2588 89.6616 12.264 89.6094 12.264 89.5676C12.2536 89.1709 12.3475 88.8106 12.5094 88.4765C12.666 88.1372 12.8539 87.8187 13.0419 87.5003C13.162 87.2914 13.2246 87.0513 13.329 86.832C13.3969 86.6911 13.4752 86.5553 13.5587 86.4196C13.684 86.2264 13.825 86.0437 13.9294 85.8454C14.0077 85.694 14.0286 85.506 14.3261 85.5165C14.3888 85.5165 14.4253 85.4381 14.3888 85.3755C14.253 85.1406 14.3575 85.0362 14.4462 84.9265L15.1666 84.0286C15.3389 83.8041 15.4799 83.5535 15.6208 83.3029C15.8297 82.9062 16.0176 82.4885 16.2577 82.1022C16.4666 81.789 16.7067 81.5018 16.9469 81.2095C16.9991 81.1416 17.0252 81.0476 17.0826 80.9798C17.187 80.8597 17.2705 80.7031 17.4376 80.6613C17.6203 80.6143 17.7247 80.5412 17.6986 80.2854C17.683 80.1393 17.7926 80.0557 17.8866 79.9983C18.0119 79.92 18.1685 79.8887 18.3251 79.8574C18.513 79.8208 18.6957 79.7947 18.7218 79.5598C18.7375 79.4397 18.8628 79.3927 18.9777 79.3666L21.0346 78.9072L20.5125 80.0349L20.5073 80.0453C20.2776 80.5256 20.3194 80.9954 20.4081 81.4601L20.4342 81.5854L20.4655 81.7838L20.5282 82.2014L20.2985 82.7443L20.1784 83.0941L19.9383 83.7728C19.8495 84.0129 19.7346 84.2322 19.625 84.4619C19.2857 85.1719 18.8472 85.8193 18.4034 86.4666C18.3147 86.5919 18.2207 86.7172 18.1841 86.8738C18.1058 87.234 17.9127 87.5212 17.6777 87.7874C17.3958 88.1111 17.2653 88.5183 17.1452 88.9307C17.1191 89.0247 17.1139 89.1395 17.0513 89.2126C16.832 89.4737 16.6911 89.7817 16.5553 90.0897L16.3517 90.5491L16.2369 90.7736C16.1586 90.9145 16.075 91.0659 15.9863 91.2017L15.6261 91.7759L14.9891 91.8595L14.6811 91.896C14.5872 91.9064 14.4514 91.9221 14.4149 91.9221L13.7623 91.9273C13.3394 91.9325 12.9061 91.9064 12.4781 91.896C12.4519 91.896 12.4258 91.9221 12.3997 91.9169C12.1544 91.896 12.0186 91.6089 12.0343 91.1286C12.05 90.7005 12.1544 90.429 12.3632 90.3977C12.5981 90.3612 12.8383 90.3455 13.0732 90.3246L13.068 90.2515Z" fill="#F39BA6"/>
<path d="M32.3877 74.0312C33.3378 75.3415 34.3558 76.7511 34.3558 76.7511L37.3055 74.5689C35.3269 74.2974 34.1627 73.7962 32.3877 74.0312Z" fill="#F39BA6"/>
<path d="M33.3025 74.0103C33.3025 74.1878 33.3286 74.3497 33.2972 74.5533C33.2659 74.736 33.2294 74.9135 33.4277 74.9344C33.4799 74.9396 33.4747 74.9866 33.4956 75.0179C33.5374 75.0701 33.5687 75.1223 33.6209 75.1641C33.6418 75.1849 33.7305 75.1588 33.7253 75.1954C33.6783 75.3781 33.7462 75.54 33.9237 75.5139C33.8193 75.707 33.9811 75.6861 34.0594 75.6914C34.1377 75.6966 34.1638 75.801 34.2787 75.6966C34.31 75.6653 34.3257 75.6653 34.3205 75.707C34.3048 75.9681 34.4092 76.0098 34.4719 76.0255C34.571 75.9002 34.6285 75.9211 34.759 76.0568C34.8321 76.1247 34.9052 76.0672 34.9678 76.015C35.0461 75.9524 35.1035 75.8428 35.1662 75.7749C35.2654 75.6757 35.3176 75.5608 35.2602 75.4303C35.1766 75.258 35.0305 75.1798 34.8843 75.1536C34.806 75.1432 34.8999 75.1536 34.9678 75.1432C35.0879 75.1328 35.328 75.0753 35.4794 75.0179C35.5107 75.0075 35.5316 74.997 35.5473 74.9866L35.5682 74.9709C35.5682 74.9657 35.5473 74.9657 35.5316 74.9657C35.4846 74.9657 35.422 74.9657 35.3594 74.9709C35.2236 74.9761 34.9887 75.0231 34.8791 75.0336C34.5397 75.0753 34.3257 75.1223 34.2056 75.2006C34.1743 75.2215 34.1377 75.2685 34.1221 75.2946C34.1116 75.3102 34.1169 75.3103 34.1169 75.305C34.1169 75.2998 34.1221 75.2946 34.1221 75.2842C34.1116 75.2737 34.1638 75.2737 34.0907 75.2581C33.9968 75.232 33.908 75.2111 33.8141 75.1954C33.553 75.1588 33.2972 75.1693 33.0362 75.1589C32.89 75.1537 32.7386 75.138 32.6081 75.2946C32.5716 75.3363 32.5455 75.2215 32.5246 74.9709C32.4933 74.5376 32.4619 74.0834 32.5194 73.8172C32.5559 73.6345 32.6029 73.4935 32.6864 73.5509C32.8013 73.6397 32.9057 73.4256 33.0258 73.6814C33.0414 73.718 33.0623 73.7076 33.078 73.6867C33.3912 73.3787 33.7305 73.5509 34.0386 73.6136C34.143 73.6345 34.2422 73.5979 34.3622 73.5979C34.451 73.6031 34.5397 73.6136 34.6233 73.6292C34.7433 73.6605 34.8477 73.718 34.9783 73.718C35.0722 73.718 35.2236 73.6658 35.1349 73.9059C35.114 73.9581 35.1662 73.9529 35.2236 73.9007C35.4533 73.7023 35.5212 73.7441 35.5891 73.765C35.7822 73.8224 35.9493 73.8903 36.1581 73.9268C36.3199 73.9529 36.5183 73.9477 36.7741 73.932C37.1657 73.9059 37.6877 73.8485 38.168 73.8381C38.5648 73.8276 38.8728 73.8589 39.2434 73.8694C39.327 73.8694 39.5149 73.8485 39.5932 73.8537C39.6976 73.859 39.8751 73.8537 39.9221 73.8746C39.8908 73.8955 39.8438 73.9164 39.7707 73.9425C39.4523 74.0678 39.327 74.1304 39.7237 74.1043C39.943 74.0886 39.8125 74.1722 39.6872 74.2348C39.5254 74.3184 39.2539 74.4227 38.9981 74.5115C38.6849 74.6211 38.4029 74.7047 38.6013 74.7621C38.7057 74.7934 38.5126 74.8665 38.3403 74.9239C37.5833 75.1693 37.4006 75.3311 37.2074 75.5608C36.9568 75.8636 36.6802 76.2343 36.2991 76.6519C36.1424 76.819 35.9806 76.9443 35.8292 77.08C35.3437 77.5029 34.8008 77.8266 34.3309 78.0876C34.263 78.1242 34.2004 78.1555 34.1325 78.2181C34.1116 78.1972 34.0908 78.1763 34.0647 78.1659C33.8767 78.0928 33.7096 77.8161 33.5844 77.5133C33.433 77.1531 33.2137 76.9965 32.9474 76.7929C32.8848 76.7459 32.8013 76.7146 32.7699 76.6415C32.7386 76.5736 32.7073 76.511 32.6708 76.4536L32.6133 76.3648L32.582 76.3231C32.5402 76.2656 32.488 76.2187 32.4306 76.1717C32.321 76.0777 32.2061 75.9889 32.1383 75.8584C32.0338 75.6496 32.0025 75.3938 31.9503 75.1484C31.9138 74.9605 31.8981 74.7517 31.872 74.5533C31.872 74.5376 31.8459 74.5428 31.8459 74.5272C31.8407 74.4071 32.0756 74.1983 32.4828 73.9633C32.843 73.7545 33.078 73.6658 33.125 73.7441C33.1772 73.8328 33.2033 73.932 33.245 74.026L33.3025 74.0103Z" fill="#F39BA6"/>
<path d="M56.4983 92.1358C56.4513 91.8644 56.4095 91.5929 56.3469 91.3214C56.1746 90.5383 54.6136 83.9656 49.0276 79.0479C48.871 80.5984 48.6987 82.1854 48.6987 82.1854L53.7992 91.4258L56.4983 92.1358Z" fill="#F39BA6"/>
<path d="M55.4895 90.9718C55.4947 90.5854 55.4582 90.2043 55.4791 89.8024C55.4999 89.4474 55.5208 89.0819 55.2598 88.8157C55.1919 88.7478 55.1919 88.6434 55.1606 88.5599C55.0979 88.4032 55.0353 88.2466 54.957 88.0952C54.9205 88.0274 54.8108 87.9856 54.8108 87.9073C54.8108 87.5262 54.6959 87.1921 54.4088 86.9415C54.4715 86.6074 54.2157 86.4299 54.0434 86.2106C53.8711 85.9913 53.7667 85.7303 53.5057 85.5685C53.4378 85.5267 53.3856 85.4588 53.3751 85.3857C53.3125 84.9159 53.0149 84.5766 52.7539 84.2163C52.4511 83.8509 52.2423 83.4228 52.1118 82.9321C52.0387 82.671 51.8769 82.4622 51.7202 82.2534C51.5375 82.0028 51.2817 81.8097 51.0781 81.58C50.7492 81.2145 50.4882 81.0214 50.2533 80.9848C49.9557 80.9378 49.8252 81.0579 49.7938 81.178C49.7834 81.1832 49.7886 81.2145 49.7886 81.2406C49.7886 81.2615 49.7834 81.2719 49.773 81.2824C49.7573 81.298 49.7364 81.2981 49.7155 81.3189C49.6477 81.3972 49.5276 81.5539 49.4597 81.841C49.4441 81.9036 49.4336 81.9715 49.4232 82.0394L49.4754 82.1333L49.5537 82.2586L49.8095 82.6659C50.0444 83.0365 50.3316 83.3758 50.5717 83.7465L52.7069 87.0146C52.8792 87.2756 53.0776 87.521 53.2551 87.782C53.3438 87.9125 53.4221 88.0482 53.49 88.1892C53.751 88.706 53.9912 89.2333 54.2627 89.7449L54.6072 90.3923L55.3015 90.5854C55.7557 90.716 56.1995 90.8674 56.685 90.8517C56.8207 90.8465 56.8312 90.9718 56.7215 91.2015C56.5284 91.5982 56.3509 92.0211 56.0638 92.2143C55.8706 92.3448 55.6983 92.4387 55.5312 92.3291C55.2911 92.1673 54.957 92.2926 54.7638 91.9689C54.7377 91.9219 54.6803 91.9219 54.6333 91.9271C54.4558 91.9376 54.3357 91.948 54.1269 91.9219C53.9233 91.8958 53.7145 91.8592 53.5057 91.807C53.4221 91.6661 53.3386 91.5147 53.2603 91.3685L53.1454 91.1441L53.0672 90.9718L52.7487 90.2879C52.6286 90.0477 52.4615 89.8389 52.3206 89.6144C52.2318 89.4683 52.1431 89.3168 52.0648 89.1654C51.9499 88.941 51.8664 88.7008 51.7307 88.492C51.6263 88.3354 51.4644 88.2153 51.6106 87.9386C51.6419 87.8812 51.5793 87.8029 51.5114 87.8029C51.2399 87.8029 51.1877 87.6515 51.1146 87.5105C50.9267 87.1346 50.7597 86.7483 50.5561 86.3777C50.4047 86.1062 50.2219 85.8504 50.0183 85.6102C49.7103 85.2291 49.3553 84.8793 49.0525 84.4982C48.7967 84.1798 48.5879 83.83 48.3582 83.5011C48.306 83.4228 48.2172 83.3654 48.165 83.2871C48.118 83.2192 48.0658 83.1461 48.0136 83.073C47.998 83.0522 47.951 82.9634 47.9196 82.9008C47.8883 82.8329 47.8622 82.7598 47.8518 82.6919C47.8257 82.5719 47.7996 82.4674 47.7526 82.3735C47.7787 82.2064 47.7474 82.0655 47.6377 81.8828C47.5333 81.7053 47.5803 81.4233 47.6273 81.2145C47.6847 80.9378 47.7996 80.6977 47.8988 80.4888C48.0241 80.233 48.1442 80.0764 48.0397 79.6013C47.9875 79.3403 48.0606 79.1367 48.1337 79.0166C48.2903 78.7452 48.3791 78.4476 48.4417 78.0822L48.4783 77.795L48.4939 77.6436L48.4992 77.5653C48.5096 77.5549 48.5305 77.5914 48.5461 77.5967C48.6871 77.7167 48.828 77.8264 48.9638 77.936C49.3449 78.2336 49.7573 78.5259 50.1854 78.8705L51.5532 80.0138C51.6419 80.0921 51.7568 80.1861 51.8247 80.2644L51.9917 80.4419L52.2945 80.7656C52.6182 81.0997 52.8896 81.4703 53.1507 81.8514C53.4169 82.2273 53.6414 82.6293 53.8659 83.0313C53.9546 83.1879 54.0382 83.3497 54.1687 83.475C54.4663 83.7674 54.6698 84.1276 54.8004 84.5244C54.957 84.9994 55.2754 85.3805 55.5678 85.7825C55.6357 85.8765 55.7349 85.9548 55.7714 86.0644C55.9959 86.8266 56.5075 87.4583 56.7372 88.2205C56.9304 88.8313 57.0087 89.4787 57.087 90.1156C57.1444 90.6063 57.1601 91.1284 57.1444 91.6191C57.1444 91.6504 57.1705 91.6818 57.1653 91.7131C57.1496 92.0002 56.8573 92.136 56.3717 92.0942C55.9437 92.0577 55.6722 91.9376 55.6409 91.7079L55.5417 90.9509L55.4895 90.9718Z" fill="#F39BA6"/>
<path d="M41.6905 81.1155C41.774 81.2251 41.8628 81.2982 41.9411 81.4496C42.0142 81.5853 42.0873 81.7211 42.1708 81.5801C42.1917 81.5436 42.2126 81.5801 42.2335 81.5801C42.2752 81.5801 42.3118 81.5853 42.3535 81.5697C42.3692 81.5645 42.3953 81.4757 42.411 81.507C42.484 81.6584 42.5676 81.7002 42.6563 81.5436C42.7085 81.7472 42.7816 81.6062 42.8495 81.5436C42.9174 81.4862 42.98 81.5279 43.0531 81.3817C43.074 81.34 43.0896 81.3295 43.1053 81.3556C43.1993 81.5279 43.3089 81.4705 43.4133 81.4339C43.5281 81.3922 43.6378 81.4496 43.7422 81.6428C43.7944 81.742 43.8571 81.742 43.9197 81.742C43.9928 81.742 44.0659 81.6898 44.139 81.6793C44.2434 81.6584 44.353 81.6114 44.4626 81.4705C44.6088 81.2878 44.7602 81.1468 44.9012 81.0476C44.9743 80.9954 45.0473 81.0633 45.1152 81.0998C45.2562 81.1677 45.3971 81.2721 45.5381 81.3191C45.6477 81.3556 45.7573 81.34 45.867 81.3139C45.9714 81.293 46.0758 81.2095 46.175 81.1834C46.4778 81.0946 46.7858 81.0215 47.0886 80.938C47.1617 80.9171 47.2348 80.8649 47.3079 80.8388C47.3444 80.8232 47.381 80.8284 47.4175 80.8336C47.548 80.8649 47.6837 80.9119 47.8143 80.9276C48.0074 80.9537 48.1954 80.9484 48.3885 80.9745C48.4981 80.9902 48.6026 81.0267 48.7174 80.891C48.7487 80.8545 48.7539 80.9693 48.7331 81.2199C48.6913 81.6532 48.6548 82.1022 48.5921 82.3632C48.5504 82.5355 48.5086 82.6712 48.4668 82.6033C48.4094 82.5094 48.3311 82.7077 48.2789 82.4415C48.2737 82.405 48.258 82.4154 48.2475 82.4311C48.0492 82.7182 47.8665 82.5511 47.6785 82.5094C47.6159 82.4937 47.5532 82.5407 47.4906 82.5511C47.4488 82.5564 47.4123 82.5564 47.3705 82.5511C47.3131 82.5407 47.2556 82.4937 47.1982 82.5146C47.1564 82.5303 47.1095 82.6086 47.0781 82.3475C47.0729 82.2953 47.0468 82.3058 47.0364 82.3684C46.9946 82.6034 46.9581 82.5773 46.9268 82.5668C46.8328 82.5459 46.7336 82.499 46.6396 82.499C46.5665 82.499 46.4934 82.5303 46.4203 82.5877C46.3055 82.6712 46.1854 82.8017 46.0706 82.88C45.9766 82.9427 45.8826 82.9531 45.7835 82.9949C45.7626 83.0053 45.7365 83.0523 45.7156 83.0576C45.6738 83.068 45.6321 83.1202 45.5955 83.0367C45.559 82.9427 45.5276 82.9218 45.4807 83.1306C45.4545 83.2455 45.418 83.235 45.3919 83.2142C45.3554 83.1881 45.324 83.1045 45.2927 83.021C45.2562 82.9218 45.2196 82.8226 45.1674 82.9792C45.1413 83.0628 45.11 83.0106 45.0839 82.9531C44.9743 82.6921 44.849 82.7078 44.7237 82.7756C44.5514 82.8644 44.3791 82.9897 44.2121 83.0889C44.1442 83.1254 44.0815 83.1306 44.0137 83.1411C43.8101 83.1828 43.6065 83.1097 43.4081 83.0314C43.3716 83.0158 43.3298 82.9897 43.288 83.0367C43.194 83.1411 43.1053 83.1097 43.0166 83.0314C42.9121 82.9375 42.7973 83.021 42.6877 83.1097C42.6616 83.1306 42.6354 83.1776 42.6093 83.1619C42.4423 83.0314 42.2596 83.2403 42.0873 83.1828C41.9463 83.1411 41.8158 83.0105 41.6801 82.8957C41.5757 82.8122 41.4713 82.6921 41.3668 82.5929C41.3616 82.5877 41.3512 82.6086 41.346 82.5981C41.2885 82.5303 41.2833 82.217 41.3303 81.7472C41.3773 81.3295 41.4295 81.0894 41.4817 81.0998C41.5443 81.1103 41.6018 81.152 41.6644 81.1781C41.6853 81.1572 41.6853 81.1364 41.6905 81.1155Z" fill="#F39BA6"/>
<path d="M61.7683 23.5797C60.7241 25.9707 59.7009 28.3983 58.6255 30.7475C57.6649 32.8462 56.72 34.9031 55.9996 37.1532C55.8168 37.7326 55.5453 38.333 55.3156 38.9229C54.9032 39.9983 54.4856 41.079 54.0731 42.1544C53.8904 42.6452 53.7704 43.1933 53.5668 43.6371C53.3214 44.18 53.0551 44.7334 52.8463 45.2763C52.7471 45.5478 52.6323 45.8141 52.5748 46.096C52.5017 46.3779 52.4339 46.6598 52.4078 46.9469C52.2564 48.0954 52.3973 49.2857 52.8359 50.3507C53.2117 52.1362 54.5326 53.5875 56.0727 54.475C56.271 54.5794 56.4641 54.6942 56.6677 54.7934L57.289 55.0649L58.6151 55.5608C59.4973 55.9002 60.4004 56.1665 61.2984 56.4066C61.7735 56.5319 62.3112 56.7042 62.7706 56.8973L63.8252 57.3254C64.1906 57.4716 64.5091 57.5916 64.8432 57.6595C65.5166 57.8057 66.2318 57.811 66.9105 57.6439C68.2783 57.3359 69.4582 56.3962 70.0951 55.1537C71.6247 52.2615 73.1961 49.4006 74.8354 46.5867C75.7072 45.0884 76.5111 43.4596 77.289 41.8621C78.2183 39.9618 79.0693 38.025 79.9463 36.0986C81.2149 33.3004 82.4052 30.4917 83.4702 27.636C84.9267 23.8302 86.2162 19.9305 87.6258 16.0777C87.9807 15.0963 88.3671 14.12 88.7639 13.1385C88.9831 12.6217 89.1189 12.2353 89.218 11.7864C89.3016 11.3426 89.359 10.8937 89.3329 10.4395C89.265 8.6175 88.2679 6.87907 86.6495 5.89761C84.9058 4.78563 83.0682 3.80935 81.1575 3.00017C80.4422 2.69737 79.7114 2.41547 78.9753 2.15966L78.4219 1.97173C78.2392 1.9143 78.0356 1.8464 77.8946 1.80986C77.5814 1.72633 77.2525 1.68982 76.9288 1.7107C76.2815 1.74202 75.6394 1.98735 75.1277 2.38934C74.8667 2.58772 74.6474 2.82785 74.4595 3.0941C74.3603 3.22461 74.2872 3.37082 74.2141 3.51177L74.1149 3.73628L74.0105 4.0077C72.9351 6.76416 71.9484 9.55198 70.9513 12.3345C69.4739 16.4588 68.0695 20.6144 66.7435 24.7908C65.3861 28.9568 64.2533 33.1907 63.0578 37.4037L62.2172 40.4473L62.0084 41.2095L61.904 41.5906L61.8466 41.8673C61.7944 42.2275 61.81 42.593 61.8935 42.9428C62.0554 43.6423 62.4939 44.2635 63.0943 44.6238C63.1622 44.6707 63.2353 44.7073 63.3084 44.7386C63.371 44.7751 63.4702 44.8169 63.5798 44.8587L63.8931 44.984L64.0444 45.0467L64.1645 45.0832C64.4778 45.1876 64.8067 45.2294 65.1356 45.2085C65.7933 45.1719 66.4459 44.8744 66.921 44.3889C67.0358 44.2636 67.1402 44.1331 67.2394 43.9973L67.3699 43.778L67.5422 43.4596L68.2209 42.1754C68.6698 41.314 69.1084 40.4525 69.5312 39.5807C71.964 34.5898 74.0262 29.4162 75.7542 24.1383C76.7356 21.1416 77.6179 18.1137 78.213 15.0388C78.3749 14.1774 78.5576 13.9216 78.7247 14.3027C79.017 14.9553 79.3616 15.5034 79.2363 17.0487C79.1528 18.0929 79.0327 19.0639 78.6203 20.2855C78.0251 22.05 77.6388 23.9973 76.8035 25.6522C76.6834 25.8872 76.5791 26.2473 76.4955 26.5397C74.9972 31.8334 72.7054 36.8921 70.2047 41.7994L68.9779 44.2113C68.7899 44.5976 68.5342 45.0675 68.2053 45.4278C67.8816 45.8036 67.49 46.122 67.0567 46.3622C65.9447 47.0095 64.5038 47.0983 63.324 46.6076L62.7184 46.3622C62.5044 46.263 62.2955 46.1534 62.1024 46.0229C61.7108 45.7619 61.3611 45.4382 61.0792 45.0727C60.5049 44.3366 60.1812 43.4178 60.1499 42.4938C60.0977 41.789 60.2961 41.0895 60.4736 40.5309C60.6563 39.9462 60.8651 39.3823 61.1523 38.8655C61.2723 38.6462 61.4498 37.9988 61.455 37.7587C61.4811 36.8242 61.8048 35.8219 62.1076 34.8091C62.9429 32.0839 63.7365 29.3432 64.624 26.6389C65.2556 24.629 65.8925 22.6086 66.519 20.6039C67.49 17.4872 68.4558 14.3758 69.5208 11.2852C70.4083 8.70103 71.3898 6.13249 72.366 3.56919L72.5331 3.12023C72.6114 2.94273 72.6741 2.75478 72.768 2.58772C72.9403 2.23794 73.1648 1.90905 73.4311 1.6167C74.3864 0.525602 75.9473 -0.153092 77.3256 0.0296276C77.7067 0.0661716 78.0565 0.154949 78.3801 0.25414C78.6568 0.34811 78.923 0.431645 79.1893 0.520394C79.7061 0.682232 80.2178 0.812751 80.792 0.917163C81.4394 1.03202 82.3895 1.43397 83.1413 1.79941C84.1071 2.26404 85.0259 2.81744 85.9029 3.38648C86.425 3.73626 86.9314 4.07036 87.4483 4.41492C87.6936 4.57154 88.0016 4.7804 88.2888 4.97878C88.4297 5.08319 88.5759 5.19282 88.7221 5.30245C88.863 5.41731 89.0092 5.53734 89.1554 5.65742C89.4686 5.91845 89.7871 6.29956 90.0533 6.71721C90.3091 7.1453 90.5336 7.61511 90.6641 8.05364C90.9773 9.01945 91.1131 10.0323 91.0348 11.0242C91.0035 11.5201 90.9147 12.0161 90.7894 12.4964C90.7372 12.7365 90.638 12.9715 90.5649 13.2064L90.3144 13.8328C89.6461 15.493 89.0144 17.174 88.3932 18.855C87.537 21.1364 86.7435 23.4387 85.856 25.7044C84.9685 27.9701 84.0653 30.2306 83.1204 32.4807C82.3791 34.24 81.5908 35.989 80.7973 37.7326C78.3227 43.1516 75.5924 48.4452 72.7158 53.6554C72.4339 54.167 72.1468 54.6786 71.8649 55.1954C71.7239 55.4565 71.5882 55.7122 71.4472 55.9681C71.2749 56.2708 71.0974 56.5685 70.8938 56.8451C69.9593 58.1451 68.4819 59.043 66.9001 59.304C66.1118 59.4397 65.2921 59.4241 64.5091 59.257C63.6738 59.0691 63.1256 58.8028 62.4887 58.5679C60.9904 57.978 59.466 57.4768 57.9677 56.913L56.8401 56.4953C56.6469 56.4222 56.4328 56.3231 56.2292 56.2343C56.0204 56.1508 55.8168 56.0516 55.6236 55.9368C54.8197 55.5243 54.0993 54.9605 53.4519 54.3184C52.8411 53.7337 52.3138 53.0341 51.9275 52.2928C51.2801 50.9772 50.9042 49.5363 50.8729 48.0746C50.8781 47.3437 50.9199 46.6128 51.087 45.8976C51.1288 45.7201 51.1601 45.5374 51.207 45.3651L51.3741 44.8431C51.489 44.4724 51.5986 44.2061 51.7082 43.9033C52.6009 41.5227 53.4832 39.1422 54.4282 36.7877C55.9526 32.9714 57.5605 29.1917 59.1475 25.412C60.3848 22.4937 61.6221 19.5859 62.8594 16.6728C62.9429 16.4796 63.0003 16.2708 63.0838 16.0829C63.7991 14.428 64.2951 14.0103 64.4256 14.9761C64.5404 15.8323 64.3316 17.0278 63.7364 18.5418L61.7161 23.5379L61.7683 23.5797Z" fill="#F39BA6"/>
<path d="M91.588 89.6734C94.6681 87.8253 88.795 53.1033 97.1322 52.7013C102.588 52.435 102.588 77.1753 102.588 77.1753C102.588 77.1753 104.347 51.3335 111.191 51.3335C115.352 51.3335 113.593 77.1753 113.593 77.1753C113.593 77.1753 121.497 53.7715 125.652 54.4606C130.935 55.3429 125.036 79.3732 125.036 79.3732C125.036 79.3732 133.452 66.7133 135.686 67.7522C139.471 69.5116 135.274 79.3785 132.695 90.9942C130.925 98.966 129.479 100.49 128.644 101.644C122.88 109.673 111.755 109.397 108.659 109.392C105.563 109.386 96.3596 109.24 88.5861 102.438C87.3645 101.367 82.2223 96.669 80.2228 88.8799C79.1056 84.5259 78.8028 78.5223 80.489 77.8749C85.0727 76.1156 88.8576 90.6392 91.588 89.6734Z" fill="#F1D1D5"/>
<path d="M91.7232 76.2668C91.744 72.4714 91.744 68.6291 92.0573 64.8598C92.2035 63.1788 92.3914 61.5187 92.6629 59.8586C92.95 58.2036 93.258 56.533 93.9576 54.8938C94.3282 54.0637 94.9495 53.1814 95.8787 52.7116C96.3016 52.5027 96.7558 52.3931 97.2361 52.3879C97.732 52.3879 98.2175 52.5915 98.583 52.8839C99.3191 53.479 99.7419 54.2673 100.107 55.0451C100.431 55.7604 100.776 56.5121 100.943 57.2117C101.736 60.6677 102.076 64.1237 102.535 67.6059C102.556 70.3467 102.827 73.0196 102.942 75.7656C102.963 76.2302 102.973 76.6948 102.984 77.1699L102.196 77.1439C102.337 74.852 102.598 72.5602 102.775 70.3049C102.833 69.5845 102.937 68.7596 103.073 68.0444C103.496 65.8622 103.929 63.6852 104.456 61.5187C104.989 59.3521 105.584 57.1856 106.523 55.1026C106.962 54.1629 107.463 53.2336 108.173 52.4088C108.873 51.5996 109.859 50.8374 111.154 50.8217C111.64 50.8061 112.083 51.0671 112.402 51.4169C112.689 51.7405 112.866 52.0851 113.013 52.4297C113.3 53.1136 113.467 53.8079 113.603 54.497C113.858 55.8752 113.968 57.2483 114.031 58.6213C114.135 61.1533 114.192 63.8001 114.182 66.3895C114.172 69.4748 114.13 72.555 113.978 75.6351C113.952 76.1572 113.921 76.6792 113.895 77.196L113.3 77.076C114.563 73.3276 115.9 69.6367 117.325 65.9666C118.207 63.7061 119.152 61.4613 120.269 59.2634C120.833 58.1671 121.433 57.0812 122.175 56.0318C122.551 55.5098 122.942 54.993 123.464 54.5127C123.725 54.2725 124.012 54.0376 124.388 53.8444C124.743 53.6513 125.291 53.4947 125.798 53.5782C126.685 53.7087 127.385 54.3404 127.74 54.946C128.126 55.5568 128.314 56.1728 128.466 56.7732C128.847 58.4124 128.852 60.0099 128.8 61.5918C128.737 63.1684 128.57 64.7293 128.372 66.2694C127.776 70.7695 126.852 75.1705 125.772 79.561L124.393 78.9554C125.344 77.5719 126.315 76.225 127.317 74.8833C128.45 73.3746 129.604 71.8815 130.857 70.4458C131.488 69.7306 132.136 69.0258 132.866 68.3628C133.237 68.0339 133.613 67.7103 134.088 67.4232C134.198 67.3501 134.328 67.2822 134.469 67.2195C134.621 67.136 134.798 67.0838 134.976 67.0421C135.148 66.9846 135.331 67.0055 135.508 66.9898C135.597 67.0002 135.68 67.0316 135.769 67.0524C135.811 67.0629 135.853 67.0786 135.9 67.0786L136.025 67.1308C137.278 67.7416 137.654 68.8745 137.836 69.8351C138.024 71.041 137.93 72.1739 137.789 73.2806C137.649 74.3874 137.44 75.4628 137.21 76.5278C136.745 78.6578 136.202 80.7513 135.659 82.8343C134.845 85.9301 134.078 88.9841 133.409 92.1216C133.054 93.6982 132.652 95.2697 132.151 96.8358C131.645 98.3916 131.044 99.9786 130.058 101.446L129.692 101.962C129.572 102.129 129.478 102.27 129.332 102.443L128.539 103.44C128.288 103.784 127.97 104.072 127.672 104.374C127.364 104.667 127.087 104.996 126.748 105.257C125.464 106.379 124.007 107.272 122.498 108.024C120.969 108.734 119.382 109.276 117.763 109.678C116.145 110.07 114.501 110.31 112.861 110.456C111.285 110.592 109.692 110.623 108.158 110.629C106.581 110.634 104.989 110.55 103.407 110.347C101.83 110.143 100.254 109.819 98.7187 109.37C95.8787 108.514 93.1275 107.282 90.6582 105.601C89.4261 104.755 88.2619 103.837 87.1604 102.819C86.0745 101.79 85.0826 100.683 84.1742 99.5088C81.7623 96.4182 79.9664 92.8264 79.0058 88.9997C78.536 87.089 78.2436 85.1679 78.134 83.1997C78.0818 82.213 78.0766 81.2211 78.1914 80.177C78.2593 79.6549 78.3376 79.1224 78.5412 78.5429C78.6456 78.2506 78.7657 77.9583 79.0163 77.598C79.2773 77.2274 79.6375 76.935 80.0552 76.7628C80.3684 76.674 80.572 76.5957 80.8226 76.5696C81.068 76.5539 81.3238 76.5122 81.5639 76.5591C81.8041 76.5853 82.0547 76.6166 82.2635 76.7001L82.5924 76.8097C82.6968 76.8515 82.7908 76.9037 82.8847 76.9507C83.5895 77.3109 84.122 77.7755 84.5762 78.2506C85.0252 78.7309 85.4219 79.2216 85.7769 79.728C86.4974 80.7304 87.0925 81.7589 87.6772 82.7716C88.2619 83.7896 88.8153 84.8024 89.3896 85.7735C89.6767 86.2538 89.969 86.734 90.2771 87.1673C90.5746 87.5954 90.9035 88.0183 91.1959 88.2636C91.2324 88.2949 91.269 88.3263 91.3055 88.3576C91.3368 88.3837 91.3577 88.3837 91.3786 88.4046C91.3943 88.415 91.4256 88.4516 91.4204 88.4412L91.3943 88.509C91.3786 88.5612 91.3629 88.6134 91.3525 88.6604C91.3421 88.7022 91.3368 88.7022 91.3264 88.723C91.3107 88.7596 91.3055 88.8014 91.3055 88.8379C91.3055 88.958 91.3055 88.8849 91.3003 88.8901C91.2898 88.8849 91.2898 88.8693 91.3055 88.9006C91.3055 88.9006 91.3107 88.9266 91.3055 88.911C91.3055 88.8849 91.3055 88.8536 91.3055 88.8379C91.3003 88.864 91.2951 88.8901 91.2794 88.9214C91.2429 88.9684 91.175 88.9893 91.0967 89.0206C91.0132 89.0311 90.914 89.0206 90.8043 89.0154C90.6947 88.9893 90.5798 88.9528 90.4546 88.9058C89.9534 88.6865 89.3635 88.1958 88.6743 87.3135C87.7399 86.1128 86.9724 84.9225 86.1058 83.2885C85.4741 82.1034 84.738 80.9339 83.8871 79.9055C83.459 79.3991 82.9996 78.9188 82.4932 78.5691C81.9868 78.2141 81.4334 77.9896 80.8539 78.0731C80.7861 78.0836 80.713 78.0992 80.6242 78.1201C80.358 78.188 80.1544 78.4594 80.0395 78.757C79.7106 79.6079 79.6689 80.6103 79.6636 81.5761C79.6689 82.5524 79.7472 83.5338 79.8568 84.5101C80.097 86.4626 80.4781 88.4046 81.0784 90.2684C82.2844 94.0011 84.3256 97.4832 86.9933 100.386C87.8599 101.341 88.8205 102.197 89.8437 102.986C90.8565 103.784 91.9424 104.484 93.0544 105.131C94.5109 105.941 96.0301 106.651 97.6015 107.214C99.8881 108.018 102.279 108.593 104.696 108.817C106.523 109.005 108.298 108.921 109.974 109.167C110.324 109.219 111.295 109.182 111.629 109.099C112.919 108.796 114.422 108.692 115.91 108.425C117.915 108.081 119.893 107.528 121.736 106.687C123.579 105.852 125.286 104.708 126.701 103.273C127.26 102.777 127.682 102.15 128.158 101.581C128.633 100.965 129.05 100.37 129.4 99.7176C130.094 98.4124 130.575 96.9716 130.992 95.5255C131.645 93.2702 132.052 90.9679 132.553 88.6291C133.06 86.306 133.623 83.9984 134.203 81.7014C134.683 79.7802 135.184 77.8643 135.602 75.9483C135.811 74.993 135.994 74.0324 136.119 73.0875C136.239 72.1478 136.317 71.1924 136.202 70.3467C136.155 69.9603 136.056 69.6001 135.91 69.3338C135.879 69.2555 135.837 69.2033 135.795 69.1459C135.759 69.0833 135.717 69.0311 135.67 68.9893C135.592 68.8901 135.461 68.8118 135.44 68.7909L135.409 68.7753C135.367 68.7492 135.32 68.7544 135.273 68.7596C135.216 68.7752 135.231 68.7753 135.08 68.8536C134.819 69.0102 134.532 69.2242 134.25 69.4696C133.681 69.9551 133.133 70.5137 132.6 71.0357C131.384 72.2417 130.517 73.3015 129.708 74.7058C129.254 75.4941 128.392 76.6374 127.698 77.5771C127.098 78.3811 126.497 79.1851 125.902 79.9734L123.981 79.1276C124.117 78.6578 124.253 78.1932 124.388 77.7286C124.869 76.0266 125.302 74.4239 125.495 72.5237C125.599 71.5056 125.892 70.1222 126.121 68.9893C126.628 66.4939 126.999 63.9515 127.093 61.4143C127.134 60.1509 127.108 58.8771 126.905 57.6711C126.8 57.076 126.649 56.4912 126.403 56.0266C126.163 55.5463 125.84 55.2697 125.521 55.2331C125.516 55.2331 125.516 55.2331 125.511 55.2331C125.411 55.2227 125.349 55.2383 125.229 55.2801C125.114 55.3166 124.973 55.4106 124.837 55.5045C124.561 55.7082 124.284 55.9953 124.023 56.2981C123.501 56.9141 123.031 57.6294 122.592 58.3603C121.715 59.8325 120.953 61.3986 120.227 62.9857C118.792 66.165 117.528 69.4435 116.338 72.7429C115.764 74.3404 115.19 75.9535 114.652 77.5562L112.423 77.1125C112.485 76.0736 112.538 75.0139 112.579 73.9593C112.731 70.0543 112.814 66.1493 112.715 62.2705C112.658 60.3336 112.558 58.3968 112.318 56.5174C112.193 55.5829 112.036 54.6484 111.786 53.8131C111.661 53.4007 111.509 52.9935 111.337 52.7272C111.295 52.6541 111.253 52.602 111.217 52.555C111.165 52.4976 111.191 52.5236 111.17 52.4975C111.144 52.4766 111.107 52.461 111.065 52.4558L110.961 52.461C110.904 52.4714 110.846 52.4819 110.794 52.4871C110.679 52.5184 110.569 52.5497 110.455 52.6072C110.225 52.7116 109.99 52.8682 109.765 53.0666C109.269 53.5051 108.81 54.1316 108.429 54.805C108.043 55.4837 107.714 56.2198 107.448 56.9663C106.821 58.7048 106.341 60.5215 105.902 62.3539C105.469 64.1916 105.098 66.0501 104.759 67.9191C104.206 71.0097 103.856 74.1577 103.668 77.2587L101.454 77.1856C101.423 75.7656 101.355 74.3195 101.272 72.8943C101.209 71.8345 101.099 70.7591 101.052 69.715C100.864 66.0606 100.494 62.3957 99.6741 58.924C99.4653 58.0627 99.2199 57.2169 98.9223 56.4234C98.6247 55.6403 98.2489 54.8781 97.8312 54.4082C97.6224 54.1681 97.4292 54.0533 97.3196 54.0272C97.2465 54.0115 97.2361 54.001 97.1108 54.0167C96.9803 54.0271 96.8654 54.0585 96.7558 54.0898C96.3173 54.2255 95.8735 54.7059 95.5029 55.3636C94.9129 56.4495 94.5475 57.8329 94.2812 59.2216C94.0202 60.6259 93.8531 62.072 93.7278 63.5286C93.4877 66.4469 93.4251 69.4122 93.4094 72.3827C93.4094 74.685 93.4094 76.982 93.4042 79.279C93.3937 81.5865 93.3937 83.894 93.211 86.238C93.1849 86.5461 93.1797 86.875 93.1379 87.183C92.9709 88.5247 92.6106 89.4957 92.0781 89.8507C91.8119 90.0125 91.6762 89.976 91.6918 89.8559C91.7023 89.7306 91.8067 89.5218 91.8223 89.2086C91.8641 88.6552 91.8171 87.9818 91.8015 87.136C91.7806 86.2903 91.7701 85.2879 91.791 84.1185C91.8328 81.5343 91.7962 78.9241 91.7649 76.3086L91.7232 76.2668Z" fill="#F39BA6"/>
</svg>
