<svg width="1360" height="815" viewBox="0 0 1360 815" fill="none" xmlns="http://www.w3.org/2000/svg">
<path d="M0.134214 181.876C-0.132841 179.609 -0.0243379 177.287 0.668335 175.165C1.2859 173.268 2.17888 171.588 3.13861 169.812C3.42236 169.37 3.7645 168.92 4.15673 168.535C4.82437 167.787 5.60886 167.144 6.41837 166.549C6.79392 166.292 7.14442 165.914 7.5617 165.762C8.57984 165.376 9.63135 165.143 10.6745 164.974C11.7177 164.846 12.7693 164.741 13.8208 164.685C15.4315 165.087 17.0171 165.111 18.6278 165.408C20.2385 165.673 21.7907 166.228 23.3847 166.517C23.8103 166.59 24.2776 166.726 24.6615 166.919C27.0233 168.02 29.4184 169.025 31.8219 169.869C34.409 170.769 36.9878 171.629 39.5999 172.448C40.9936 172.89 42.5125 173.115 44.0064 173.228C45.8006 173.381 47.5364 173.26 49.3557 173.099C51.9261 172.971 54.4465 172.424 56.825 171.564C59.9963 170.383 63.0006 168.824 65.7546 166.975C67.1483 166.027 68.6171 165.135 69.9524 164.09C72.6229 162.009 75.0181 159.557 76.7122 156.688C77.071 156.166 77.288 155.587 77.5634 155.025C77.6886 154.743 77.8305 154.462 77.9473 154.173L78.231 153.289C78.665 152.115 78.857 150.926 78.9488 149.736C78.9738 148.627 78.8569 147.526 78.5648 146.465C78.2477 145.413 77.8055 144.392 77.2547 143.411C75.5772 140.502 72.9901 137.995 70.3362 135.527C67.6657 133.06 64.8533 130.601 62.2912 127.796C61.0644 126.446 59.8544 125.055 58.7778 123.528C58.2604 122.757 57.768 121.961 57.334 121.125C56.5496 119.582 55.8652 117.967 55.3978 116.287C54.8804 114.583 54.6718 112.751 54.7052 110.983C54.7553 108.427 55.3061 105.96 56.1573 103.653C57.0002 101.339 58.1101 99.1608 59.3786 97.1194C60.8224 94.7968 62.4247 92.6027 63.9519 90.3846C64.3692 89.7497 64.6697 89.6693 64.8115 90.1355C65.0536 90.9311 65.3874 91.6545 64.9451 92.8841C64.628 93.7119 64.3692 94.4834 63.6599 95.271C62.6501 96.4444 62.0575 97.9392 60.9476 99.0402C60.789 99.1929 60.6388 99.4662 60.5554 99.6993C59.6708 101.765 58.8279 103.806 58.1853 105.912C57.5343 108.009 57.1671 110.187 57.2839 112.357C57.359 113.788 57.768 115.146 58.2687 116.504C58.5942 117.38 58.9446 118.248 59.3536 119.092C59.9294 120.322 60.5721 121.543 61.3816 122.652C61.9908 123.496 62.7002 124.22 62.9756 125.192C63.034 125.393 63.4012 125.811 63.6015 125.899C64.386 126.229 64.92 126.896 65.5125 127.539C67.0898 129.267 68.7673 130.946 70.4949 132.578C71.7967 133.783 73.0986 134.981 74.3921 136.186C76.395 138.075 78.4063 140.068 79.8417 142.616C80.4593 143.661 80.8849 144.834 81.2104 146.031C81.5108 147.237 81.6277 148.491 81.611 149.736C81.5943 150.307 81.5943 150.878 81.5275 151.448C81.419 151.963 81.3523 152.501 81.2271 153.007C81.0769 153.506 80.9016 153.988 80.6846 154.43C80.5678 154.671 80.4593 154.904 80.3675 155.129C80.2507 155.346 80.1505 155.555 80.0587 155.772C79.8835 156.198 79.7666 156.64 79.7082 157.162C79.6498 157.749 79.1407 158.496 78.7568 159.107C78.5148 159.509 78.2144 159.863 77.8973 160.2C77.5801 160.538 77.263 160.867 76.9542 161.197C76.5954 161.599 76.1614 161.912 75.8026 162.306C75.427 162.676 75.1265 163.126 74.801 163.608C74.4589 164.13 73.7829 164.685 73.2237 165.111C70.6617 166.895 68.1497 168.671 65.4542 170.238C61.8072 172.36 57.8097 174.016 53.5368 174.843C52.6939 174.996 51.8593 175.173 50.9998 175.221L48.5295 175.422C45.8506 175.631 43.1468 175.438 40.5513 174.972C37.9475 174.514 35.4272 173.799 32.9903 172.923C32.0306 172.577 31.0792 172.191 30.1195 171.894C29.0096 171.532 27.9329 171.13 26.9398 170.712C25.9384 170.287 24.9286 169.853 23.9188 169.427C21.4986 168.398 18.9366 167.739 16.4329 167.433C15.8487 167.353 15.2562 167.345 14.7054 167.265C13.7289 167.088 12.7693 167.08 11.8429 167.128C10.9333 167.216 10.0737 167.417 9.30587 167.747C8.92198 167.916 8.5548 168.108 8.1876 168.35C7.8204 168.575 7.4365 168.872 7.12771 169.153C6.96081 169.298 6.78557 169.427 6.62701 169.579L6.17632 170.053C5.85085 170.351 5.60886 170.72 5.32512 171.066C3.6143 173.365 2.61282 176.362 2.64621 179.416C2.62117 181.779 3.20533 184.158 4.29024 186.344C4.36535 186.489 4.46553 186.625 4.54064 186.762C5.23332 187.943 5.11646 188.635 4.10666 188.482C3.65601 188.41 3.197 188.209 2.74635 187.871C2.32073 187.517 1.94518 187.011 1.59467 186.376C0.943723 184.93 0.451355 183.427 0.200992 181.884L0.134214 181.876Z" fill="#A0D0DB"/>
<path d="M68.7297 80.8018L58.2729 92.8087C58.0726 93.0337 58.2144 93.3793 58.5148 93.4195C60.9684 93.749 63.7474 94.2794 66.7602 95.1313C70.4822 96.1922 73.6702 97.4942 76.2824 98.7559C76.5828 98.9006 76.9166 98.6434 76.8332 98.33C75.4061 92.8408 73.9874 87.3437 72.5603 81.8545" fill="#C0E3EB"/>
<path d="M68.129 83.2833C67.5782 83.6611 67.0607 84.079 66.4682 84.4166C65.9341 84.7139 65.4 85.0032 65.1997 85.5819C65.1496 85.7346 64.9994 85.823 64.8993 85.9436C64.7157 86.1606 64.5237 86.3695 64.3568 86.6025C64.2817 86.707 64.2984 86.9 64.1816 86.9562C63.6141 87.2616 63.1802 87.6635 62.9882 88.2662C62.4374 88.4189 62.3205 88.9011 62.0869 89.3109C61.8532 89.7208 61.4943 90.0343 61.3775 90.5326C61.3441 90.6611 61.2774 90.7817 61.1605 90.854C61.0186 90.9344 60.8768 91.0389 60.76 91.1273C60.6765 91.1835 60.593 91.2559 60.5263 91.3282C60.3844 91.4729 60.2675 91.6416 60.1757 91.7862L60.0673 91.9551C59.9588 92.1399 59.7918 92.3006 59.5665 92.5257C59.4747 92.6543 59.4831 92.823 59.5332 92.9034C59.5916 92.9677 59.6416 93.0239 59.7001 93.1043C59.8252 93.2731 60.2425 93.3294 60.6013 93.3857C61.052 93.458 61.461 93.4419 62.0285 93.5303C62.8046 93.6428 63.5807 93.7232 64.3902 93.6911C65.4751 93.6509 66.56 93.699 67.6283 93.8357C68.1707 93.908 68.6714 94.1652 69.1721 94.3742C70.1819 94.8001 71.1417 95.3064 72.1265 95.7484C72.4937 95.9172 72.8775 96.0699 73.2531 96.2145L73.5368 96.319L73.6787 96.3673L73.9375 96.4476C74.046 96.4798 74.1377 96.4879 74.2212 96.4959C74.3798 96.5039 74.4798 96.4879 74.58 96.4959C74.6301 96.5039 74.6969 96.528 74.7386 96.4396C74.7803 96.3512 74.7053 96.2387 74.6719 96.1583C74.5884 95.9815 74.5049 95.8288 74.4382 95.7082L74.338 95.5475L74.2879 95.4833L74.2629 95.4511L74.2045 95.2743L73.6871 93.7473C73.5202 93.257 73.3115 92.7828 73.1362 92.2926C73.0528 92.0515 72.986 91.8024 72.9276 91.5532C72.7273 90.621 72.5521 89.6807 72.3268 88.7565L71.3337 84.7862C71.1584 84.0308 71.0082 83.2753 70.5993 82.5761C70.4824 82.3832 70.6493 82.2707 71.0582 82.2546C71.7676 82.2305 72.4937 82.1663 72.9944 82.4315C73.3282 82.6083 73.5953 82.7851 73.5786 83.1146C73.5452 83.5888 73.9792 83.9745 73.6871 84.505C73.6453 84.5773 73.6871 84.6657 73.7288 84.73C74.5217 85.9114 74.6134 87.2615 74.8971 88.5715C74.9889 88.9975 75.1725 89.4074 75.306 89.8253C75.3895 90.0986 75.4646 90.3718 75.523 90.6451C75.6148 91.0469 75.6483 91.4648 75.7901 91.8506C75.8903 92.148 76.0989 92.4052 75.7651 92.7749C75.6983 92.8552 75.7567 93.0079 75.8652 93.04C76.2908 93.1606 76.3159 93.4258 76.3659 93.675L76.5746 94.6957L76.7081 95.2984L76.875 95.9574C77.0336 96.5923 77.3424 97.3317 77.4592 97.9586C77.5427 98.4568 77.6262 98.8667 77.5844 99.2605C77.526 99.4855 77.2923 99.7026 77.117 99.7829C76.9585 99.8472 76.8166 99.8633 76.6664 99.9035C76.4827 99.9356 76.2575 99.9597 76.0238 99.9597C75.7317 99.8954 75.4646 99.9035 75.1308 99.7749C74.7469 99.6141 74.363 99.4534 73.9708 99.3088C73.7204 99.2204 73.4534 99.1802 73.2031 99.0837C72.9694 99.0034 72.7273 98.9149 72.4936 98.8265C72.3184 98.7622 72.2183 98.7141 72.1181 98.6015C71.9011 98.3604 71.6925 98.2479 71.317 98.4488C71.1083 98.5613 70.8829 98.4568 70.716 98.3604C70.4907 98.2318 70.3071 98.0309 70.1152 97.8299C69.8899 97.5969 69.6812 97.3478 69.289 97.4764C69.0804 97.5407 68.8801 97.3879 68.7216 97.2513C68.0289 96.6084 67.1693 96.3753 66.293 96.2467C65.0996 96.0619 63.8895 95.9815 62.6961 95.8851C62.2287 95.8449 61.7698 95.7646 61.3108 95.7003L59.4747 95.4109L58.4065 95.2421C58.056 95.1859 57.8224 95.0412 57.5303 94.9448C57.3467 94.8081 57.138 94.6635 57.0045 94.5349C56.8877 94.3902 56.7708 94.2857 56.6623 94.1089C56.5455 93.916 56.4537 93.6106 56.4453 93.3936C56.4453 93.2007 56.4788 93.04 56.5205 92.8391C56.5956 92.5257 56.7458 92.156 56.9378 91.7622L57.0462 91.5693C57.3383 91.1353 57.6972 90.6933 58.0811 90.2674C58.273 90.0504 58.4733 89.8414 58.6736 89.6405C58.7904 89.5199 58.8322 89.4878 58.8906 89.4315L59.0658 89.2868C59.6917 88.7805 60.1006 88.1054 60.4928 87.4223C60.5846 87.2616 60.6431 87.0768 60.785 86.9562C61.7614 86.1284 62.3206 84.9711 63.1969 84.0709C63.9062 83.3396 64.724 82.7047 65.5168 82.0456C66.126 81.5393 66.777 81.0571 67.4113 80.5669C67.453 80.5348 67.4613 80.4704 67.503 80.4463C67.8786 80.1811 68.346 80.3821 68.7883 81.0009C69.1805 81.5555 69.2807 82.0136 69.0053 82.3109C68.7048 82.6324 68.371 82.9298 68.0455 83.2432L68.129 83.2833Z" fill="#A0D0DB"/>
<path d="M68.7312 80.8046C56.697 76.3442 52.7581 63.7184 50.9805 58.0123C50.2711 55.7218 43.1023 31.2738 59.9852 14.4126C61.7043 12.6928 76.5009 -1.66102 92.6577 3.0164C111.068 8.35284 113.722 33.3473 114.005 36.4575C115.224 49.7343 110.567 67.2947 95.9959 76.3442C93.6091 77.823 81.3078 85.466 68.7312 80.8046Z" fill="#C0E3EB"/>
<path d="M59.4632 76.1635C57.5103 74.0016 55.9163 71.5745 54.7563 69.0429C53.7215 66.7765 52.9621 64.5102 51.8772 62.2438C51.6018 61.6571 51.4265 60.9819 51.2095 60.347C50.8256 59.1897 50.4501 58.0324 50.1079 56.843C49.9577 56.3045 49.674 55.7661 49.6072 55.2517C49.2651 52.7201 48.9563 50.2287 48.4806 47.7132C48.6308 45.712 48.3303 43.7832 48.2802 41.782C48.2301 39.7809 48.4722 37.7636 48.5223 35.7625C48.5306 35.2321 48.6057 34.6293 48.756 34.1069C49.6072 30.9565 50.4751 27.8301 51.7854 24.8003C53.154 21.5454 55.2237 18.5718 57.7357 16.0884C58.4033 15.4294 59.0876 14.7543 59.7719 14.0792C60.473 13.4121 61.1824 12.7611 61.9084 12.1262C63.6359 10.6314 65.4052 9.18484 67.3163 7.89895C70.087 6.04245 73.0163 4.41097 76.1291 3.06882C80.2685 1.2525 85.0336 0.320235 89.8072 0.858701C92.2274 1.13999 94.606 1.95972 96.7758 3.04469C101.166 5.22266 104.587 8.73473 107.141 12.5763C109.085 15.4696 110.604 18.5799 111.848 21.7624C112.999 24.7441 113.951 27.782 114.61 30.9003C116.646 40.1506 115.929 50.0118 112.49 58.9969C111.631 61.1427 110.713 63.2885 109.503 65.3058L108.593 66.8167L107.55 68.2473C104.929 71.7594 101.658 74.8374 97.9357 77.2726C95.3236 79.0407 92.4862 80.4953 89.5152 81.6526C86.5442 82.7938 83.4063 83.6538 80.1516 83.9511C76.4629 84.2967 72.6907 83.927 69.0688 82.9787C68.0423 82.7215 67.792 82.4483 68.3011 82.2072C69.1773 81.7571 69.8866 81.3151 71.5724 81.3312C72.1483 81.3071 72.6907 81.299 73.2582 81.3392C73.8174 81.3713 74.4183 81.3714 75.0859 81.5C75.57 81.6044 76.0706 81.6205 76.5714 81.6205C77.0721 81.6205 77.5812 81.6366 78.0819 81.6125C79.0917 81.5241 80.0932 81.524 81.0863 81.5481C81.37 81.5642 81.7622 81.4919 82.0877 81.4196C84.9335 80.6883 87.6875 79.7157 90.3664 78.5424C91.7017 77.9476 93.0202 77.3128 94.2888 76.5975C95.5823 75.8983 96.7674 75.0544 97.9775 74.2588C98.7453 73.7042 99.4463 73.0613 100.172 72.4505C100.89 71.8397 101.508 71.1084 102.184 70.4574C102.634 70.0395 103.01 69.5572 103.41 69.0991L104.604 67.7088L106.198 65.587C106.698 64.8637 107.149 64.1003 107.608 63.3448C107.967 62.7823 108.184 62.1634 108.509 61.6089C108.802 61.0463 109.194 60.5399 109.603 60.0577C109.778 59.8568 110.045 59.2058 110.045 58.9406C110.095 57.944 110.496 56.9395 110.871 55.9108C111.839 53.1301 112.641 50.2689 113.033 47.3355C113.191 46.2586 113.266 45.1655 113.35 44.0806C113.358 42.9875 113.433 41.9026 113.358 40.8177C113.308 39.138 113.116 37.4663 112.874 35.8107C112.599 34.1552 112.248 32.5156 111.856 30.8761C111.188 28.1436 110.429 25.4272 109.394 22.8232C109.169 22.2205 108.843 21.658 108.601 21.0552C108.126 19.9702 107.533 18.8772 107.132 17.8405C106.707 16.6832 106.231 15.8231 105.346 15.0355C104.846 14.5935 104.303 13.7578 103.836 13.0987L102.951 11.8129C102.659 11.3869 102.376 10.9529 102.058 10.551C101.341 9.54643 100.548 8.66237 99.3545 8.01942C98.6952 7.70599 97.9608 7.06312 97.3016 6.58894C94.4558 4.40293 90.7086 3.30189 87.0282 3.26974C81.9876 3.20545 77.0888 4.86102 72.7074 7.2801C70.9882 8.23648 69.2941 9.25716 67.6834 10.4064C65.1965 12.1906 62.7679 14.1435 60.6983 16.3054C58.6036 18.4673 56.7676 20.8703 55.2737 23.4662C54.9983 23.9886 54.7146 24.511 54.4392 25.0253C54.1805 25.5558 53.9635 26.1023 53.7549 26.6407C52.8619 29.1562 52.0774 31.6879 51.4432 34.2918C50.6754 37.4342 50.5753 40.689 50.7756 43.8877C50.8173 44.6351 50.9425 45.3906 50.9425 46.1219C51.0092 48.7017 51.3764 51.2736 51.9522 53.7891C52.236 55.0428 52.5782 56.2965 52.9621 57.4779L54.1972 61.199C55.5492 65.1531 57.2433 68.9626 59.6969 72.2818C61.6163 74.8134 63.953 77.0475 66.7654 78.6629C66.949 78.7755 67.1577 78.8558 67.3497 78.9442C68.9854 79.7559 69.3943 80.4551 68.276 80.7686C67.7753 80.9052 67.166 80.9213 66.4734 80.8088C65.7723 80.7043 65.0463 80.3507 64.2368 79.9087C62.5177 78.8237 60.9152 77.5619 59.5466 76.0993L59.4632 76.1635Z" fill="#A0D0DB"/>
<path d="M61.5754 32.7721C61.25 33.423 60.9746 34.0981 60.5824 34.7491C60.2319 35.3277 59.9565 35.9305 60.0733 36.6056C60.1067 36.7824 60.0232 36.9512 59.9981 37.128C59.9397 37.4415 59.9231 37.7629 59.9147 38.0844C59.9147 38.229 60.0399 38.3979 59.9814 38.5264C59.706 39.1694 59.5475 39.8364 59.8313 40.5035C59.5141 41.0178 59.7395 41.5322 59.8396 42.0546C59.9314 42.569 59.9397 43.0993 60.2151 43.5896C60.2902 43.7182 60.3236 43.8709 60.2902 44.0155C60.0565 44.8755 60.3487 45.6872 60.5239 46.5069C60.7325 47.3829 60.9078 48.2509 60.816 49.2073C60.8076 49.7056 60.9745 50.1878 61.1331 50.6539C61.2249 50.9352 61.3418 51.2085 61.4586 51.4818C61.6005 51.747 61.7423 52.0041 61.8675 52.2774C62.0511 52.6632 62.2431 53.0489 62.4601 53.4186C62.6938 53.7802 62.9692 54.1178 63.2612 54.4392C64.0123 55.3233 64.8553 56.119 65.5897 56.9628C65.9986 57.3647 66.2656 57.871 66.566 58.3532C66.8665 58.8434 67.2337 59.2774 67.5675 59.7435C67.7428 59.9686 67.9014 60.2097 68.0933 60.4267L68.6858 61.0535C68.9946 61.3589 69.3034 61.6724 69.6372 61.9457C69.9877 62.2029 70.3466 62.452 70.7138 62.7011C71.3647 63.1914 72.1575 63.4726 72.8669 63.8664C75.0117 64.9433 77.3067 65.7069 79.6601 66.1248C80.2192 66.2453 80.8117 66.2453 81.3792 66.3177C81.663 66.3579 81.9467 66.39 82.2305 66.4382C83.2736 66.6311 84.3336 66.7919 85.4101 66.8481C86.9457 66.9365 88.4979 66.8642 90.0335 66.7276C90.9014 66.6472 91.786 66.5748 92.5789 66.1971C92.8042 66.0926 92.921 66.2534 92.9127 66.6472C92.896 67.3303 92.921 68.0456 92.5538 68.5117C92.3034 68.8332 92.0531 69.0823 91.6609 69.0422C91.0934 68.9859 90.5509 69.3556 89.9667 69.01C89.8833 68.9618 89.7748 68.9859 89.6914 69.018C88.1141 69.6127 86.4366 69.4119 84.8175 69.2672C84.2834 69.227 83.7494 69.2431 83.2069 69.2189C82.8564 69.2109 82.5143 69.1466 82.1721 69.0984C81.6714 69.018 81.179 68.8894 80.6866 68.8171C80.311 68.7689 79.9188 68.8172 79.6768 68.3671C79.6267 68.2787 79.4264 68.2465 79.343 68.3188C78.9925 68.6082 78.692 68.4876 78.3916 68.3992C77.5654 68.1822 76.7976 67.8125 75.9881 67.5554C75.3955 67.3384 74.803 67.1293 74.1854 66.9766C73.7014 66.8561 73.2424 66.6793 72.7584 66.5427C72.2827 66.39 71.7903 66.2534 71.3479 66.0284C70.5969 65.6667 69.8458 65.2729 69.1531 64.7987C68.9862 64.6942 68.786 64.638 68.6274 64.5335C68.3353 64.3326 67.9764 64.1718 67.8011 63.8745C67.6259 63.5208 67.4424 63.3039 66.9583 63.3119C66.6829 63.3119 66.4743 63.0949 66.3074 62.902C66.1071 62.6529 65.9485 62.3636 65.84 62.0421C65.6981 61.6644 65.5896 61.3107 65.1306 61.1821C64.8803 61.1098 64.7468 60.8366 64.655 60.6035C64.4547 60.0811 64.2377 59.5908 63.9289 59.1569C63.6368 58.7148 63.2612 58.3291 62.9525 57.8951C62.5102 57.3245 62.0094 56.77 61.5922 56.1752C61.1749 55.5725 60.7493 54.9777 60.3487 54.3509C60.0649 53.8526 59.8396 53.3221 59.5892 52.8078C59.1803 52.0041 58.9717 51.1362 58.713 50.2923C58.471 49.4404 58.3624 48.5563 58.2038 47.6964C58.1371 47.3588 58.1371 47.0052 58.0036 46.6837C57.7282 45.9283 57.5863 45.1488 57.6781 44.3531C57.7615 43.4048 57.5028 42.4805 57.3777 41.5402C57.3443 41.3232 57.2608 41.0982 57.2859 40.8812C57.3359 40.5034 57.3443 40.1257 57.3527 39.748C57.3777 39.3702 57.386 38.9926 57.386 38.6148C57.386 37.8594 57.3694 37.0958 57.5446 36.3564C57.6698 35.7537 57.82 35.159 58.0036 34.5723L58.6629 32.8524C58.9717 31.9684 59.4807 31.1405 59.8896 30.3047C59.9147 30.2484 59.9064 30.1761 59.9398 30.1279C60.1985 29.6618 60.7159 29.6618 61.3585 30.1279C61.9259 30.5378 62.1931 30.9638 62.0512 31.3817C61.8926 31.8478 61.684 32.2979 61.5004 32.756L61.5754 32.7721Z" fill="#A0D0DB"/>
<path d="M1279.74 709.28L1305.95 675.02L1357.25 794.543L1312.56 791.087L1279.74 709.28Z" fill="#C0E3EB"/>
<path d="M1286.89 697.996C1289.29 695.143 1291.65 692.234 1294.08 689.445C1296.24 686.953 1298.37 684.526 1300.22 681.73C1300.69 681.006 1301.31 680.291 1301.85 679.576C1302.97 678.105 1304.08 676.634 1305.2 675.164C1305.49 674.778 1305.79 674.312 1306.11 673.854C1306.3 674.223 1306.49 674.625 1306.65 675.051C1307.05 676.08 1307.43 677.108 1307.82 678.129C1308.12 678.917 1308.44 679.704 1308.76 680.484C1309.42 682.043 1310.13 683.578 1310.92 685.097C1311.67 687.645 1312.91 689.959 1314.05 692.362C1315.19 694.773 1316.19 697.281 1317.46 699.611C1317.79 700.23 1318.14 700.954 1318.37 701.621C1319.81 705.663 1321.6 709.569 1323.37 713.515C1325.26 717.742 1327.01 722.018 1328.55 726.358C1329.37 728.664 1330.39 731.019 1331.38 733.326C1332.57 736.074 1333.83 738.791 1335.03 741.531C1336.77 745.51 1338.56 749.44 1340.47 753.313C1343.02 758.497 1345.53 763.745 1347.98 769.017C1349.22 771.702 1350.32 774.506 1351.45 777.263L1354.82 785.549C1356.02 788.474 1356.78 790.411 1358.87 795.354L1359.05 795.788C1356.18 795.563 1353.3 795.33 1350.41 795.105C1348.15 794.944 1345.89 794.791 1343.63 794.631C1339.32 794.373 1335 794.116 1330.69 793.859L1311.44 792.581L1303.57 773.598C1302.41 770.85 1301.25 768.109 1300.09 765.361C1299.51 763.986 1298.95 762.604 1298.41 761.214L1292.34 745.775L1283.53 723.714C1281.87 719.535 1280.25 715.356 1278.38 711.281C1277.85 710.14 1277.88 709.698 1278.43 709.995C1279.38 710.501 1280.29 710.855 1281.48 712.703C1282.28 713.957 1282.99 715.147 1283.57 716.858C1284.4 719.342 1285.74 721.801 1286.31 724.349C1286.39 724.71 1286.6 725.193 1286.79 725.586C1290.11 732.595 1292.77 739.892 1295.6 747.117C1296.53 749.48 1297.55 751.81 1298.52 754.157L1300.36 758.738C1301.24 760.964 1302.06 763.207 1302.99 765.409C1303.68 767.072 1304.46 768.648 1304.68 770.303C1304.73 770.649 1305.09 771.525 1305.31 771.798C1306.14 772.851 1306.65 774.249 1307.2 775.632C1308.66 779.369 1310.1 783.13 1311.6 786.851L1312.42 788.86L1313.1 790.467C1314.53 790.54 1315.97 790.62 1317.39 790.693C1322.15 790.902 1326.88 791.11 1331.64 791.319C1335.61 791.52 1339.6 791.81 1343.58 792.043C1344.5 792.099 1345.42 792.091 1346.34 792.155C1348.02 792.268 1349.81 792.316 1351.38 792.565C1352.25 792.702 1353.03 792.806 1353.8 792.854C1353.87 792.862 1354.03 792.87 1354.05 792.862L1354.13 792.854C1354.18 792.846 1354.23 792.838 1354.27 792.814C1354.36 792.782 1354.41 792.726 1354.4 792.645C1354.39 792.573 1354.38 792.533 1354.39 792.509C1354.31 792.412 1354.31 792.38 1354.31 792.316C1354.3 792.276 1354.31 792.268 1354.3 792.187L1353.93 791.151C1353.7 790.459 1353.47 789.768 1353.24 789.085C1352.7 787.438 1352.21 785.895 1351.24 784.279C1350.72 783.411 1350.24 782.109 1349.88 781.032C1348.29 776.291 1346.26 771.653 1344.16 767.048C1341.29 760.812 1338.42 754.575 1335.55 748.339C1334.44 745.895 1333.36 743.412 1332.27 740.945C1328.89 733.27 1325.68 725.538 1322.48 717.791C1321.86 716.272 1321.23 714.721 1320.52 713.266C1318.89 709.882 1317.46 706.451 1316.09 702.971C1314.45 698.784 1312.55 694.717 1310.65 690.658C1310.21 689.71 1309.72 688.77 1309.33 687.821C1308.52 685.788 1307.67 683.771 1306.8 681.762L1305.58 679.005C1305.54 678.957 1305.52 678.941 1305.5 678.941C1305.49 678.973 1305.48 679.005 1305.48 679.021C1305.48 679.029 1305.48 679.037 1305.48 679.045L1305.41 679.134L1305.09 679.56L1302.52 682.919C1298.92 687.532 1295.21 692.065 1291.53 696.606C1288.67 700.102 1285.81 703.59 1282.95 707.078C1282.76 707.311 1282.6 707.568 1282.41 707.801C1280.77 709.778 1279.87 710.14 1280.01 708.749C1280.12 707.512 1280.84 705.944 1282.26 704.112L1287.01 698.084L1286.89 697.996Z" fill="#A0D0DB"/>
<path d="M1352.98 791.59C1352.17 790.449 1351.31 789.34 1350.56 788.167C1349.89 787.122 1349.24 786.093 1348.21 785.305C1347.95 785.105 1347.75 784.807 1347.52 784.558C1347.1 784.108 1346.69 783.642 1346.26 783.2C1346.06 782.999 1345.76 782.87 1345.62 782.645C1344.93 781.552 1344.12 780.564 1343.06 779.776C1342.63 778.836 1341.8 778.249 1341.04 777.566C1340.29 776.883 1339.65 776.079 1338.8 775.501C1338.57 775.348 1338.35 775.139 1338.21 774.914C1337.31 773.54 1336.15 772.398 1335 771.233C1333.77 769.987 1332.66 768.637 1331.71 767.158C1331.21 766.371 1330.55 765.664 1329.9 764.956C1329.14 764.12 1328.31 763.341 1327.53 762.521C1326.4 761.332 1325.24 760.182 1323.97 759.114C1322.28 757.691 1320.62 756.22 1319.01 754.701C1318.19 753.93 1317.5 753.022 1316.78 752.154C1315.34 750.418 1313.94 748.65 1312.47 746.938C1311.37 745.652 1310.2 744.414 1309.02 743.185C1307.92 742.035 1306.76 740.95 1305.65 739.817C1302.37 736.442 1299.1 733.05 1295.82 729.675C1295.04 728.863 1294.21 728.083 1293.42 727.28C1293.02 726.878 1292.64 726.46 1292.27 726.034C1290.89 724.459 1289.53 722.868 1288.13 721.308C1286.14 719.074 1284.1 716.864 1282.11 714.63C1280.97 713.36 1279.87 712.066 1278.57 710.957C1278.2 710.644 1278.25 710.41 1278.66 710.29C1279.39 710.073 1280.1 709.8 1280.96 710.137C1281.54 710.37 1282.05 710.611 1282.43 711.182C1282.99 712.01 1283.94 712.58 1284.28 713.569C1284.33 713.706 1284.48 713.842 1284.6 713.947C1286.93 715.811 1288.72 718.15 1290.65 720.36C1291.29 721.083 1291.99 721.742 1292.66 722.442C1293.08 722.892 1293.51 723.358 1293.92 723.824C1294.52 724.499 1295.08 725.214 1295.71 725.865C1296.19 726.356 1296.73 726.757 1296.84 727.481C1296.86 727.633 1297.11 727.882 1297.27 727.915C1297.88 728.035 1298.23 728.477 1298.6 728.895C1299.6 730.036 1300.58 731.21 1301.6 732.327C1302.36 733.155 1303.17 733.958 1303.99 734.73C1305.27 735.927 1306.6 737.077 1307.87 738.282C1308.93 739.295 1309.93 740.364 1310.98 741.4C1311.22 741.641 1311.5 741.834 1311.74 742.083C1312.17 742.534 1312.67 742.96 1312.96 743.474C1313.29 744.045 1313.6 744.438 1314.26 744.671C1314.62 744.8 1314.97 745.21 1315.23 745.547C1315.57 745.989 1315.85 746.48 1316.12 746.962C1316.44 747.541 1316.73 748.095 1317.39 748.457C1317.75 748.65 1318.04 749.092 1318.26 749.469C1319.23 751.125 1320.54 752.523 1321.92 753.865C1323.78 755.69 1325.68 757.474 1327.56 759.29C1328.29 760.006 1328.99 760.753 1329.7 761.492C1331.89 763.791 1333.95 766.202 1336 768.613C1336.4 769.087 1336.8 769.577 1337.26 769.987C1338.35 770.928 1339.27 771.996 1340.13 773.122C1341.16 774.472 1342.41 775.637 1343.67 776.794C1343.96 777.068 1344.28 777.309 1344.52 777.614C1346.21 779.752 1348.29 781.544 1350.07 783.602C1351.5 785.265 1352.83 787.017 1354.17 788.745C1355.22 790.079 1356.22 791.446 1357.24 792.788C1357.3 792.876 1357.4 792.94 1357.47 793.029C1358.04 793.808 1357.87 794.347 1356.99 794.492C1356.22 794.612 1355.5 794.387 1354.92 793.736C1354.29 793.013 1353.69 792.265 1353.07 791.534C1353.04 791.55 1353.01 791.566 1352.98 791.59Z" fill="#A0D0DB"/>
<path d="M1307.44 679.993C1307.36 681.408 1307.31 682.83 1307.16 684.228C1307.02 685.482 1306.88 686.712 1307.18 687.966C1307.26 688.287 1307.22 688.649 1307.25 688.986C1307.29 689.605 1307.31 690.232 1307.37 690.851C1307.4 691.132 1307.56 691.421 1307.52 691.687C1307.36 692.989 1307.37 694.283 1307.7 695.56C1307.44 696.589 1307.72 697.57 1307.88 698.574C1308.04 699.587 1308.03 700.615 1308.33 701.604C1308.42 701.869 1308.46 702.175 1308.42 702.44C1308.25 704.087 1308.44 705.719 1308.6 707.366C1308.77 709.127 1308.79 710.895 1308.59 712.663C1308.48 713.603 1308.55 714.584 1308.61 715.54C1308.67 716.681 1308.83 717.814 1308.92 718.956C1309.06 720.611 1309.24 722.251 1309.56 723.882C1309.98 726.06 1310.35 728.262 1310.64 730.472C1310.79 731.597 1310.76 732.747 1310.78 733.888C1310.81 736.17 1310.78 738.453 1310.84 740.727C1310.89 742.439 1311.02 744.151 1311.17 745.863C1311.3 747.454 1311.53 749.045 1311.68 750.637C1312.11 755.362 1312.52 760.088 1312.95 764.813C1313.05 765.947 1313.2 767.08 1313.31 768.213C1313.37 768.776 1313.41 769.346 1313.42 769.917C1313.51 772.031 1313.57 774.144 1313.67 776.25C1313.82 779.272 1314.01 782.294 1314.15 785.315C1314.23 787.027 1314.27 788.747 1314.6 790.435C1314.69 790.909 1314.52 791.078 1314.1 790.917C1313.39 790.644 1312.66 790.435 1312.19 789.639C1311.88 789.101 1311.63 788.594 1311.7 787.895C1311.79 786.883 1311.4 785.846 1311.77 784.841C1311.82 784.697 1311.79 784.496 1311.75 784.335C1311.11 781.41 1311.19 778.436 1311.09 775.47C1311.05 774.506 1310.92 773.533 1310.84 772.569C1310.79 771.942 1310.76 771.315 1310.73 770.688C1310.69 769.772 1310.7 768.856 1310.62 767.948C1310.55 767.265 1310.39 766.606 1310.76 765.963C1310.84 765.826 1310.79 765.465 1310.69 765.344C1310.29 764.878 1310.29 764.307 1310.28 763.737C1310.22 762.202 1310.19 760.667 1310.1 759.132C1310.03 757.998 1309.91 756.865 1309.75 755.74C1309.51 753.988 1309.19 752.252 1308.96 750.508C1308.77 749.045 1308.66 747.575 1308.51 746.104C1308.47 745.766 1308.37 745.429 1308.34 745.091C1308.29 744.464 1308.16 743.813 1308.26 743.219C1308.37 742.56 1308.37 742.045 1308 741.467C1307.79 741.137 1307.78 740.599 1307.79 740.165C1307.8 739.602 1307.9 739.039 1307.99 738.485C1308.11 737.818 1308.23 737.191 1307.94 736.5C1307.78 736.122 1307.83 735.592 1307.9 735.158C1308.19 733.229 1308.05 731.3 1307.83 729.379C1307.53 726.767 1307.16 724.171 1306.86 721.568C1306.73 720.547 1306.66 719.518 1306.58 718.489C1306.31 715.299 1306.24 712.1 1306.17 708.902C1306.15 708.275 1306.15 707.632 1306.05 707.021C1305.8 705.598 1305.75 704.176 1305.79 702.745C1305.83 701.017 1305.6 699.322 1305.34 697.626C1305.29 697.232 1305.19 696.83 1305.19 696.436C1305.23 693.688 1304.73 690.971 1304.64 688.231C1304.58 686.013 1304.65 683.795 1304.69 681.576C1304.73 679.865 1304.8 678.153 1304.86 676.441C1304.86 676.328 1304.83 676.216 1304.83 676.103C1304.88 675.131 1305.35 674.793 1306.14 675.211C1306.83 675.581 1307.25 676.208 1307.29 677.084C1307.33 678.056 1307.32 679.021 1307.34 679.993C1307.37 679.993 1307.41 679.993 1307.44 679.993Z" fill="#A0D0DB"/>
<path d="M1308.31 716.453L1352.28 730.26L1329.82 764.369" fill="#C0E3EB"/>
<path d="M1312.34 716.491C1313.3 716.965 1314.29 717.391 1315.22 717.921C1316.05 718.395 1316.86 718.87 1317.85 718.942C1318.1 718.958 1318.34 719.095 1318.59 719.167C1319.04 719.304 1319.49 719.448 1319.94 719.569C1320.15 719.625 1320.41 719.561 1320.58 719.665C1321.44 720.172 1322.35 720.525 1323.37 720.581C1324 721.104 1324.79 721.12 1325.56 721.256C1326.32 721.393 1327.04 721.69 1327.84 721.698C1328.05 721.698 1328.29 721.747 1328.46 721.851C1329.56 722.47 1330.77 722.751 1331.98 723.057C1333.28 723.386 1334.53 723.868 1335.7 724.535C1336.33 724.889 1337.04 725.106 1337.73 725.323C1338.56 725.58 1339.41 725.757 1340.24 725.99C1341.45 726.336 1342.66 726.625 1343.92 726.786C1345.6 727.011 1347.28 727.292 1348.93 727.638C1349.35 727.726 1349.76 727.855 1350.17 728.007C1350.84 728.249 1351.52 728.49 1352.2 728.731L1354.42 729.526L1351.28 733.89C1350.54 734.919 1349.87 735.996 1349.22 737.081C1348.61 738.094 1348.06 739.146 1347.46 740.159L1342.07 749.168C1341.64 749.892 1341.25 750.639 1340.83 751.362C1340.62 751.724 1340.39 752.078 1340.14 752.423C1339.25 753.709 1338.34 754.979 1337.47 756.273L1333.75 761.858C1333.04 762.911 1332.3 763.94 1331.79 765.105C1331.65 765.435 1331.43 765.435 1331.16 765.113C1330.71 764.567 1330.2 764.036 1330.18 763.321C1330.17 762.831 1330.2 762.405 1330.56 762.027C1331.1 761.489 1331.26 760.669 1332.01 760.275C1332.12 760.219 1332.18 760.082 1332.22 759.97C1333.03 757.904 1334.44 756.201 1335.7 754.4C1336.11 753.814 1336.44 753.171 1336.81 752.568C1337.06 752.174 1337.32 751.78 1337.57 751.403C1337.96 750.848 1338.38 750.318 1338.73 749.739C1338.98 749.305 1339.14 748.823 1339.74 748.654C1339.87 748.622 1340 748.381 1339.97 748.252C1339.84 747.754 1340.11 747.424 1340.35 747.079C1341 746.146 1341.68 745.23 1342.3 744.282C1342.76 743.583 1343.17 742.843 1343.55 742.104C1344.14 740.947 1344.67 739.749 1345.28 738.6C1345.79 737.635 1346.36 736.711 1346.9 735.763C1347.03 735.546 1347.1 735.297 1347.23 735.08C1347.47 734.686 1347.66 734.228 1348.01 733.939C1348.41 733.609 1348.64 733.312 1348.6 732.765C1348.57 732.46 1348.81 732.138 1349.02 731.881C1349.08 731.801 1349.15 731.72 1349.22 731.648L1349.34 731.535C1349.38 731.495 1349.37 731.528 1349.4 731.52C1349.47 731.52 1349.55 731.511 1349.64 731.479C1349.85 731.431 1350.19 731.206 1349.92 731.166C1349.85 731.158 1349.84 731.142 1349.87 731.118C1349.83 731.102 1349.85 731.053 1349.87 731.005C1349.89 730.909 1349.84 730.82 1349.74 730.732C1349.69 730.692 1349.63 730.652 1349.57 730.611L1349.47 730.555L1349.42 730.531L1349.29 730.483C1348.61 730.242 1347.9 730.057 1347.19 729.888L1341.35 728.594C1340.6 728.417 1339.84 728.2 1339.09 727.991C1336.76 727.34 1334.49 726.521 1332.21 725.693C1331.77 725.532 1331.31 725.355 1330.85 725.283C1329.76 725.114 1328.75 724.752 1327.76 724.327C1326.57 723.804 1325.29 723.547 1324 723.298C1323.7 723.242 1323.39 723.225 1323.12 723.105C1321.2 722.301 1319.12 721.996 1317.16 721.313C1315.58 720.758 1314.05 720.075 1312.5 719.416C1311.31 718.91 1310.14 718.363 1308.96 717.833C1308.88 717.801 1308.78 717.801 1308.71 717.768C1308.04 717.447 1307.97 716.925 1308.54 716.338C1309.04 715.816 1309.63 715.615 1310.25 715.824C1310.94 716.057 1311.63 716.33 1312.31 716.587L1312.34 716.491Z" fill="#A0D0DB"/>
<path d="M1315.06 745.039C1315.59 744.983 1316.11 744.886 1316.66 744.895C1317.16 744.903 1317.64 744.919 1317.97 744.533C1318.05 744.436 1318.19 744.428 1318.3 744.38C1318.5 744.292 1318.71 744.203 1318.91 744.099C1319 744.051 1319.05 743.882 1319.15 743.89C1319.67 743.914 1320.12 743.786 1320.45 743.376C1320.92 743.512 1321.15 743.167 1321.44 742.934C1321.73 742.701 1322.11 742.612 1322.33 742.259C1322.39 742.162 1322.48 742.098 1322.59 742.098C1323.24 742.098 1323.74 741.784 1324.26 741.487C1324.81 741.174 1325.43 740.997 1326.13 741.005C1326.51 741.013 1326.82 740.86 1327.14 740.723C1327.52 740.555 1327.86 740.314 1328.23 740.129C1328.76 739.864 1329.27 739.55 1329.72 739.116C1330.32 738.537 1330.96 738.015 1331.62 737.549C1331.96 737.316 1332.38 737.236 1332.77 737.115C1333.57 736.874 1334.39 736.689 1335.16 736.424C1335.75 736.223 1336.3 735.95 1336.85 735.668C1337.36 735.403 1337.83 735.058 1338.33 734.784C1339.83 733.965 1341.35 733.169 1342.85 732.357C1343.21 732.164 1343.55 731.923 1343.91 731.722C1344.08 731.618 1344.27 731.537 1344.47 731.465C1345.18 731.2 1345.9 730.951 1346.61 730.669C1347.62 730.26 1348.61 729.81 1349.62 729.408C1350.2 729.175 1350.78 728.982 1351.26 728.54C1351.39 728.419 1351.52 728.556 1351.63 728.933C1351.81 729.584 1352.02 730.26 1351.92 730.742C1351.85 731.071 1351.77 731.328 1351.49 731.336C1351.1 731.344 1350.88 731.787 1350.38 731.553C1350.32 731.521 1350.26 731.57 1350.21 731.61C1349.42 732.446 1348.34 732.647 1347.34 733.024C1347.01 733.145 1346.72 733.354 1346.41 733.506C1346.21 733.611 1346 733.699 1345.79 733.78C1345.48 733.9 1345.16 733.965 1344.87 734.125C1344.65 734.246 1344.48 734.455 1344.11 734.182C1344.03 734.125 1343.92 734.198 1343.92 734.302C1343.91 734.704 1343.71 734.752 1343.52 734.824C1343 735.017 1342.46 735.178 1341.95 735.403C1341.58 735.572 1341.23 735.781 1340.89 736.022C1340.37 736.4 1339.88 736.842 1339.35 737.203C1338.91 737.509 1338.43 737.742 1337.97 738.015C1337.87 738.079 1337.79 738.2 1337.68 738.256C1337.48 738.361 1337.31 738.537 1337.06 738.505C1336.78 738.465 1336.6 738.513 1336.54 738.899C1336.5 739.116 1336.32 739.172 1336.16 739.205C1335.96 739.245 1335.72 739.213 1335.49 739.18C1335.2 739.14 1334.94 739.084 1334.8 739.413C1334.74 739.59 1334.53 739.59 1334.34 739.574C1333.55 739.486 1332.92 739.791 1332.33 740.169C1331.53 740.675 1330.75 741.238 1329.95 741.76C1329.64 741.961 1329.3 742.122 1328.98 742.291C1327.95 742.821 1326.86 743.183 1325.75 743.536C1325.53 743.609 1325.31 743.665 1325.13 743.818C1324.73 744.171 1324.24 744.34 1323.72 744.436C1323.09 744.557 1322.58 744.927 1322.08 745.296C1321.97 745.385 1321.87 745.513 1321.72 745.546C1320.74 745.763 1319.97 746.454 1319.04 746.783C1318.28 747.048 1317.47 747.185 1316.67 747.354C1316.05 747.482 1315.42 747.571 1314.79 747.675C1314.75 747.683 1314.72 747.732 1314.68 747.732C1314.31 747.772 1314.01 747.386 1313.86 746.655C1313.71 746.012 1313.77 745.578 1314.06 745.465C1314.39 745.337 1314.73 745.256 1315.07 745.152C1315.08 745.104 1315.07 745.071 1315.06 745.039Z" fill="#A0D0DB"/>
<path d="M45.7915 770.336L18.6771 812.481C18.3934 812.915 18.9275 813.413 19.3698 813.132L60.8718 786.498L45.7915 770.336Z" fill="#C0E3EB"/>
<path d="M43.9392 775.402C42.9961 776.559 42.0948 777.749 41.1017 778.858C40.2171 779.846 39.3408 780.811 38.8234 782.048C38.6899 782.37 38.4395 782.651 38.2475 782.956C37.897 783.511 37.5382 784.057 37.2044 784.612C37.0541 784.869 37.0041 785.199 36.8121 785.408C35.8774 786.428 35.093 787.537 34.5755 788.807C33.7327 789.539 33.3655 790.535 32.8731 791.475C32.3807 792.424 31.7381 793.3 31.3792 794.312C31.2874 794.578 31.1289 794.859 30.9369 795.076C29.7769 796.386 28.934 797.881 28.0577 799.368C27.1147 800.967 26.0465 802.478 24.7947 803.876C24.127 804.624 23.5846 805.492 23.0421 806.335C22.4162 807.316 22.0574 808.039 21.59 808.811L21.4481 809.044C21.1477 809.542 20.889 810.016 20.7137 810.394C20.6303 810.587 20.5552 810.748 20.5218 810.884C20.4967 811.053 20.9641 811.206 21.3146 810.916C23.2174 809.349 24.1103 808.497 24.536 808.031C24.5193 808.031 24.6945 807.911 24.8114 807.83L25.1869 807.581C25.4373 807.412 25.696 807.26 25.963 807.099C26.4888 806.794 27.0146 806.488 27.5403 806.183C29.635 804.953 31.7631 803.772 33.8495 802.51C35.4101 801.562 36.9373 800.549 38.4478 799.528C39.8582 798.572 41.2102 797.543 42.6206 796.579L55.1137 788.028L56.5992 786.983L57.342 786.452L57.7092 786.187C57.801 786.123 57.7425 786.155 57.7592 786.147V786.139C57.7509 786.115 57.7425 786.123 57.7592 786.123H57.7676C57.7759 786.123 57.7843 786.115 57.7926 786.099V786.091V786.083L57.7259 786.01L57.1834 785.4L54.9885 782.98L48.4707 775.956C47.244 774.622 46.0506 773.264 44.6569 772.091C44.2646 771.761 44.2897 771.52 44.7236 771.399C45.4664 771.19 46.1757 770.917 47.077 771.279C47.6863 771.528 48.2204 771.793 48.646 772.388C49.2552 773.256 50.2567 773.867 50.6572 774.895C50.7157 775.04 50.8742 775.185 51.0078 775.297C53.4864 777.274 55.4392 779.726 57.5339 782.048C58.2182 782.804 58.9777 783.511 59.687 784.242C60.2295 784.805 60.8888 785.504 61.4646 786.131L61.9069 786.621C60.9806 787.192 60.0542 787.73 59.2197 788.301C58.6188 788.719 58.0931 789.209 57.3086 789.233C57.1417 789.241 56.8329 789.466 56.7745 789.619C56.5491 790.206 56.015 790.495 55.4976 790.816C54.1039 791.676 52.6935 792.512 51.3165 793.396C50.2984 794.055 49.3136 794.754 48.3456 795.478C46.8517 796.603 45.3996 797.784 43.8974 798.901C42.6373 799.834 41.327 800.702 40.0418 801.61C39.7414 801.819 39.491 802.076 39.1906 802.285C38.6398 802.663 38.0973 803.113 37.4965 803.346C36.8288 803.603 36.3531 803.876 36.0026 804.487C35.8023 804.833 35.3099 805.13 34.901 805.355C34.3753 805.644 33.7994 805.861 33.2403 806.078C32.5643 806.335 31.9217 806.56 31.421 807.171C31.1539 807.501 30.6365 807.742 30.1942 807.911C29.2261 808.296 28.3165 808.779 27.4318 809.309C26.9895 809.574 26.5639 809.856 26.1383 810.145L24.1437 811.503L21.2312 813.512C20.2547 814.131 19.6288 814.212 19.1281 814.332C18.8527 814.388 18.6774 814.412 18.4605 814.445C18.352 814.453 18.2769 814.469 18.1851 814.469C18.0933 814.469 17.9013 814.396 17.7344 814.276C17.5675 814.155 17.4173 813.986 17.3338 813.866C17.2504 813.737 17.2587 813.697 17.2337 813.633L17.0918 813.183L17.025 812.861C17.0083 812.749 17.0083 812.588 17 812.459C17.0334 812.138 17.0167 811.792 17.3589 811.214L18.352 809.63L20.9057 805.604L22.291 803.49C23.2257 802.092 24.1771 800.71 25.1368 799.327C25.5124 798.789 25.9046 798.242 26.1884 797.656C26.856 796.306 27.6989 795.076 28.6085 793.878C29.7018 792.432 30.553 790.857 31.3959 789.273C31.5879 788.904 31.7548 788.51 31.9968 788.172C33.7243 785.85 34.9845 783.262 36.6035 780.883C37.9137 778.954 39.3408 777.106 40.7345 775.241C41.8111 773.802 42.9294 772.388 44.031 770.957C44.1061 770.861 44.1394 770.74 44.2146 770.652C44.8572 769.848 45.4497 769.832 45.8336 770.62C46.1674 771.319 46.134 772.083 45.6249 772.846C45.0658 773.69 44.4649 774.518 43.8807 775.354L43.9392 775.402Z" fill="#A0D0DB"/>
<path d="M45.1641 797.5L45.79 770.336L60.8619 786.49L45.1641 797.5Z" fill="#A0D0DB"/>
<path d="M86.3164 786.488L83.2453 782.976C80.9169 774.457 72.4546 765.391 68.2735 761.952C67.4306 761.261 63.4665 758.038 58.7096 754.976L54.37 750.025L46.0996 744.857L40.9421 749.888C36.5441 753.2 39.9574 764.258 42.1773 769.41C49.9219 787.404 72.8301 801.533 80.1491 795.232C80.508 794.927 80.8335 794.605 81.1339 794.284L85.6655 789.904L86.3164 786.488Z" fill="#C0E3EB"/>
<path d="M81.5835 781.706C81.1579 780.067 80.507 778.451 79.8727 776.836C79.2802 775.413 78.6543 773.983 77.5193 772.817C77.2355 772.512 77.0186 772.118 76.7599 771.781C76.2925 771.154 75.8168 770.535 75.2994 769.94C75.0741 769.667 74.7236 769.458 74.54 769.185C73.6804 767.794 72.6122 766.549 71.2936 765.544C70.6343 764.419 69.5494 763.704 68.5229 762.932C67.5047 762.169 66.4949 761.309 65.3349 760.714C65.0261 760.553 64.7007 760.336 64.4586 760.103C62.9565 758.649 61.2039 757.499 59.418 756.398L58.7003 755.948C58.5167 755.82 58.0827 755.611 57.8657 755.281C57.4985 754.855 57.1397 754.429 56.7892 753.995C56.0881 753.119 55.4289 752.219 54.8029 751.295L54.4441 750.781C54.3273 750.628 54.2104 750.475 54.0936 750.314L53.6429 750.009L53.1339 749.679L52.1074 749.037C50.8639 748.257 49.5703 747.558 48.3102 746.802L47.0834 746.079L46.1487 745.565C45.8566 745.886 45.5979 746.192 45.3392 746.497C44.9636 746.923 44.5964 747.349 44.2376 747.783C43.3196 748.868 42.4767 749.929 41.4585 751.006C40.7993 751.761 40.5072 752.87 40.4321 754.076C40.3486 755.289 40.2985 756.631 40.407 757.974C40.6407 760.666 41.2249 763.414 42.0845 766.075C42.7354 768.084 43.5866 770.005 44.6298 771.829C45.5979 773.541 46.7496 775.14 47.9346 776.715C51.4898 781.353 55.8127 785.467 60.6615 788.77C61.8298 789.558 63.0483 790.265 64.275 790.932C64.8843 791.27 65.4935 791.607 66.111 791.937C67.246 792.548 68.3977 793.11 69.5744 793.576C70.7511 794.059 71.9529 794.428 73.1463 794.653C74.0059 794.838 74.8404 794.886 75.6499 794.886C76.4427 794.846 77.1771 794.71 77.8197 794.469C78.1118 794.308 78.4206 794.187 78.6543 793.978L78.8546 793.842L79.0799 793.617L79.5389 793.175L81.6169 791.182L82.9605 789.904C83.3695 789.51 84.0204 788.883 83.8702 789.012V788.979V788.963V788.955L83.8869 788.867L83.987 788.168C84.0538 787.702 84.1039 787.235 84.1456 786.769C84.1957 786.167 84.421 786.014 84.7715 786.303C85.3807 786.802 86.0317 787.235 86.2486 788.32C86.3571 788.907 86.4573 789.341 86.3071 790.233C86.1402 790.402 85.9566 790.571 85.7479 790.739C84.688 791.559 83.987 792.684 82.7686 793.279C82.6017 793.36 82.4264 793.552 82.2929 793.721C81.692 794.436 81.1078 795.184 80.3484 795.867C79.5556 796.582 78.5207 796.984 77.5026 797.209C75.4329 797.635 73.3883 797.289 71.4855 796.791C70.2337 796.478 68.9986 796.108 67.8052 795.65L66.6618 795.168L65.5519 794.629C64.4837 794.091 63.4739 793.44 62.439 792.861C61.6713 792.403 60.8451 792.058 60.4278 791.27C60.336 791.109 59.9437 790.86 59.7435 790.844C59.0091 790.772 58.4332 790.306 57.849 789.855C56.2801 788.626 54.8196 787.284 53.3675 785.942C52.2993 784.945 51.2227 783.94 50.1712 782.92C48.5355 781.336 46.9415 779.705 45.5061 777.913C44.3043 776.418 43.2862 774.786 42.3014 773.131C42.0845 772.745 41.8091 772.391 41.5921 771.998C41.2165 771.274 40.7742 770.519 40.5906 769.771C40.3987 768.936 40.19 768.317 39.5975 767.69C39.272 767.336 39.0467 766.669 38.9048 766.123C38.7129 765.416 38.6211 764.692 38.5543 763.977C38.4709 763.117 38.4208 762.313 37.9785 761.47C37.7365 761.011 37.6781 760.32 37.6781 759.75C37.6697 758.488 37.6113 757.234 37.628 755.956C37.6447 754.678 37.7031 753.368 38.0786 752.01C38.3457 751.094 38.788 750.154 39.5391 749.35C40.1567 748.779 40.6824 748.136 41.2583 747.534L42.9524 745.693L43.378 745.235L43.5866 745.002L43.8954 744.681L45.5061 743.017L45.8316 742.688C47.3004 743.572 48.7692 744.456 50.238 745.34L52.8167 746.915L55.5958 748.675L57.7739 751.255L59.7601 753.642L59.8102 753.698L59.8186 753.714L59.8353 753.738C59.8436 753.754 59.8603 753.762 59.8686 753.77L60.3527 754.1C60.6948 754.325 61.037 754.55 61.3959 754.743C63.0399 755.659 64.5254 756.768 65.9358 757.974C67.6216 759.428 69.4659 760.666 71.2602 762.137C71.6691 762.474 72.1114 762.788 72.4619 763.165C74.8738 765.842 77.4776 768.333 79.5139 771.307C81.1496 773.71 82.5015 776.313 83.5364 779.046C83.7283 779.576 83.8952 780.123 84.0705 780.661C84.1623 780.927 84.2207 781.208 84.2875 781.481L84.3876 781.899L84.4377 782.108L84.4627 782.212C84.4627 782.229 84.4627 782.229 84.4627 782.237C84.4627 782.253 84.4544 782.325 84.4794 782.357C84.5128 782.413 84.4877 782.397 84.5795 782.51L85.0719 783.161L86.0567 784.455C86.1402 784.567 86.2653 784.664 86.3488 784.776C87.0832 785.773 86.958 786.376 85.9983 786.4C85.147 786.424 84.3125 786.054 83.5864 785.202L82.2929 783.651C82.2595 783.603 82.2094 783.563 82.1844 783.514L82.1343 783.346L82.0342 782.992L81.909 782.534L81.6753 781.698L81.5835 781.706Z" fill="#A0D0DB"/>
<path d="M73.7852 756.627C71.8157 755.012 52.9299 739.677 46.4539 744.556C42.0558 747.867 45.4691 758.926 47.689 764.077C55.4336 782.072 78.3419 796.2 85.6608 789.899C96.6852 780.4 80.1946 761.899 73.7852 756.627Z" fill="#C0E3EB"/>
<path d="M68.1644 753.77C66.8876 752.637 65.544 751.568 64.2588 750.459C63.1154 749.471 61.9554 748.506 60.4866 747.935C60.1111 747.791 59.7522 747.542 59.3934 747.341C58.7257 746.987 58.0497 746.642 57.3571 746.328C57.0399 746.183 56.6477 746.167 56.3806 745.991C55.0537 745.155 53.5682 744.528 51.9909 744.431C50.881 743.869 49.5958 743.965 48.5192 744.279C47.451 744.568 46.4495 745.147 46.1157 746.151C46.0323 746.408 45.9154 746.69 45.7652 746.931C45.3312 747.686 45.1226 748.603 45.0642 749.527C45.0141 750.459 45.0976 751.407 45.2311 752.348C45.5566 754.389 45.8737 756.422 46.1992 758.472C46.3577 759.581 46.7416 760.682 47.1339 761.759C47.6012 763.037 48.2355 764.25 48.8363 765.464C49.7376 767.216 50.8059 768.879 52.0744 770.39C53.7769 772.408 55.5962 774.32 57.4989 776.145C58.4587 777.077 59.3349 778.106 60.2947 779.07C62.1891 780.991 64.192 782.847 66.3952 784.447C68.0476 785.652 69.8252 786.705 71.6695 787.589C73.3887 788.409 75.1996 789.028 76.9939 789.462C78.3209 789.799 79.6645 789.976 80.933 789.936C82.1931 789.896 83.3615 789.598 84.171 788.979C84.3713 788.827 84.5716 788.682 84.7969 788.433C85.0056 788.208 85.2476 787.999 85.4312 787.758L85.9903 787.043L86.4493 786.279C87.0085 785.234 87.3173 784.085 87.4007 782.896C87.4842 781.746 87.3173 780.565 87.0419 779.383C86.8833 778.797 86.7498 778.202 86.5662 777.599C85.9319 775.381 84.9138 773.187 83.6703 771.09C81.876 768.092 79.6645 765.279 77.2777 762.635C75.9257 761.14 74.5153 759.653 72.8796 758.528C72.4206 758.223 72.4039 757.973 72.8295 757.813C73.5556 757.539 74.265 757.202 75.2998 757.588C75.9925 757.853 76.6184 758.15 77.1441 758.817C77.9119 759.782 79.0386 760.521 79.531 761.687C79.5977 761.855 79.773 762.024 79.9315 762.161C82.6772 764.588 84.6801 767.674 86.4243 770.832C87.0001 771.861 87.601 772.898 88.1101 773.967C88.4272 774.674 88.7193 775.389 88.9613 776.121C89.3118 777.189 89.5455 778.29 89.7541 779.4C89.9211 780.227 90.1213 781.071 89.7041 781.843C89.6123 782.004 89.629 782.446 89.7291 782.606C90.0462 783.233 89.9377 783.965 89.7374 784.664C89.2701 786.576 88.1769 788.312 86.7832 789.695C86.5161 789.944 86.2741 790.209 85.9903 790.45C85.6732 790.675 85.3895 790.956 85.039 791.125C84.6968 791.31 84.363 791.519 83.9958 791.64L83.4533 791.849C83.2697 791.905 83.0778 791.945 82.8942 792.001C81.7342 792.307 80.5324 792.403 79.364 792.347C78.1873 792.323 77.044 792.13 75.9174 791.881C74.0396 791.439 72.2621 790.723 70.5512 789.936C70.1507 789.759 69.7417 789.614 69.3495 789.421C68.6318 789.068 67.8723 788.706 67.2965 788.216C66.6789 787.645 66.1448 787.3 65.327 787.131C64.868 787.035 64.3005 786.649 63.8832 786.287C63.3324 785.837 62.84 785.323 62.381 784.792C61.8135 784.173 61.3295 783.563 60.4866 783.177C60.0193 782.976 59.5936 782.462 59.2515 782.044C57.7576 780.163 56.0719 778.491 54.4111 776.756C52.1662 774.401 50.0631 771.885 48.2855 769.121C47.935 768.582 47.6012 768.028 47.3008 767.457C46.9837 766.894 46.6832 766.324 46.4162 765.737C45.5149 763.929 44.8389 762.064 44.2547 760.168C43.6872 758.271 43.2365 756.334 42.9528 754.341C42.8443 753.561 42.7775 752.758 42.6357 751.97C42.3352 750.162 42.377 748.201 43.2032 746.224C43.7039 745.058 44.5134 743.805 45.7736 743.001C47.0087 742.165 48.4608 741.852 49.746 741.779C50.3636 741.731 50.9561 741.739 51.5236 741.828C53.4514 742.237 55.1872 742.808 56.8647 743.459C58.5338 744.11 60.1361 744.857 61.6299 745.741C64.0501 747.18 66.2617 748.852 68.4148 750.564C70.0755 751.882 71.6528 753.28 73.2134 754.702C73.3136 754.799 73.4471 754.863 73.5473 754.96C74.4152 755.795 74.3818 756.398 73.4638 756.591C72.6459 756.768 71.8031 756.567 70.9685 755.908L68.2229 753.706L68.1644 753.77Z" fill="#A0D0DB"/>
<path d="M92.4038 727.203L61.7175 757.614C60.3405 758.981 59.8815 760.958 60.4907 762.766C60.8496 763.827 61.3503 764.976 62.0597 766.157C63.6537 768.802 65.715 770.65 67.5593 771.904C69.629 773.302 72.4247 773.117 74.2524 771.438C84.6592 761.906 95.0576 752.382 105.464 742.851L92.4038 727.203Z" fill="#C0E3EB"/>
<path d="M77.4002 766.969C78.6187 766.077 79.8121 765.137 81.0639 764.301C82.1822 763.554 83.2921 762.83 84.1183 761.753C84.3353 761.472 84.6524 761.255 84.9195 761.014C85.4035 760.564 85.8959 760.122 86.3716 759.656C86.5886 759.447 86.7221 759.133 86.9641 758.981C88.1408 758.217 89.1924 757.333 90.0353 756.224C91.0451 755.718 91.671 754.842 92.397 754.046C93.1231 753.25 93.9827 752.551 94.6002 751.659C94.7671 751.426 94.9841 751.185 95.2261 751.024C96.6949 750.036 97.9134 748.79 99.1568 747.56C100.492 746.242 101.936 745.029 103.513 743.976C103.839 743.751 104.031 743.622 104.289 743.421C104.531 743.228 104.765 743.027 104.999 742.819L104.548 742.272L104.056 741.701L103.463 741.042L102.245 739.692C101.093 738.366 99.9079 737.088 98.6144 735.891C96.8869 734.283 95.2011 732.636 93.5654 730.932C93.3567 730.715 93.1565 730.49 92.9645 730.265L92.6808 729.92L92.614 729.823L92.3303 729.357L92.3219 729.349L91.9046 729.646L91.7794 729.735L91.4623 730.016L90.7863 730.619C89.8934 731.422 89.0004 732.234 88.1158 733.062C86.7889 734.308 85.5204 735.61 84.2602 736.928C83.0835 738.149 81.9819 739.435 80.8135 740.665L70.4067 751.595L67.9532 754.263C67.5442 754.705 67.1103 755.131 66.6763 755.549L64.2394 757.872L63.0627 758.997C62.8123 759.246 62.6037 759.535 62.4535 759.849C62.2365 760.299 62.1364 760.805 62.1531 761.311C62.1697 761.56 62.2115 761.81 62.2782 762.059C62.3033 762.163 62.37 762.348 62.4285 762.509L62.6204 763.007C63.1462 764.325 63.8555 765.571 64.7151 766.712C65.6832 768.006 66.8682 769.203 68.3287 769.983C68.7376 770.2 68.7543 770.425 68.3788 770.642C67.7278 771.012 67.0852 771.438 66.1172 771.197C65.4662 771.028 64.882 770.803 64.4063 770.2C63.7303 769.34 62.7122 768.641 62.4368 767.532C62.3951 767.379 62.2615 767.21 62.1364 767.074C61.0515 765.868 60.2753 764.422 59.7746 762.887C59.2405 761.207 59.6077 759.326 60.6592 757.936C60.8261 757.703 61.0097 757.486 61.21 757.277L61.7441 756.706L62.804 755.581C63.2713 755.099 63.7387 754.633 64.2227 754.166C64.9237 753.491 65.6582 752.856 66.3258 752.149C66.8265 751.619 67.2354 751.032 67.9949 750.839C68.1534 750.799 68.4122 750.518 68.4372 750.357C68.529 749.738 68.988 749.344 69.4303 748.927C70.607 747.801 71.8171 746.692 72.9688 745.543C73.82 744.691 74.6379 743.799 75.4223 742.891C76.6491 741.484 77.8091 740.03 79.0443 738.623C80.0708 737.45 81.1724 736.333 82.2322 735.184C82.4743 734.918 82.6745 734.613 82.9249 734.348C83.3839 733.866 83.8179 733.311 84.352 732.965C84.9529 732.58 85.3534 732.218 85.5704 731.543C85.6873 731.165 86.1129 730.771 86.4634 730.466C86.9141 730.072 87.4315 729.743 87.9405 729.421C88.5498 729.027 89.1256 728.674 89.4844 727.975C89.5095 727.926 89.5345 727.878 89.5679 727.838C89.5929 727.798 89.6263 727.75 89.7098 727.661C89.8517 727.508 90.0019 727.356 90.1604 727.211C90.4776 726.914 90.8197 726.641 91.1118 726.415C91.5958 726.038 92.0465 725.676 92.4805 725.314C92.9061 725.901 93.315 726.448 93.7239 726.97L94.3332 727.741L94.8756 728.409C95.4014 729.052 95.9605 729.662 96.528 730.273L102.27 736.325C103.012 737.12 103.722 737.948 104.44 738.768L105.691 740.223L108.003 743.003L105.758 745.029L104.373 746.25L101.969 748.324C101.46 748.758 100.934 749.192 100.5 749.69C99.499 750.839 98.3557 751.828 97.1539 752.768C95.7102 753.901 94.4667 755.227 93.2316 756.562C92.9478 756.875 92.6808 757.22 92.3553 757.478C90.0686 759.31 88.1575 761.52 85.9627 763.433C84.1851 764.984 82.3157 766.431 80.463 767.901C79.0359 769.035 77.5755 770.136 76.1317 771.253C76.0399 771.325 75.9648 771.43 75.873 771.502C75.0385 772.121 74.4543 772 74.2957 771.148C74.1538 770.393 74.3959 769.661 75.0885 769.035C75.8563 768.351 76.6575 767.692 77.4419 767.025L77.4002 766.969Z" fill="#A0D0DB"/>
<path d="M91.828 755.348L90.3008 729.285L92.4038 727.203L105.473 742.851L91.828 755.348Z" fill="#A0D0DB"/>
<path d="M118.919 748.854C119.061 748.58 119.186 748.291 119.286 748.002L121.531 742.754L114.513 730.313L95.9189 715.26L92.0466 718.908C90.5278 719.76 89.6682 721.786 89.4595 723.819C88.1827 736.421 108.621 755.122 116.866 750.911C117.809 750.429 118.452 749.705 118.886 748.894H118.894L118.919 748.854Z" fill="#C0E3EB"/>
<path d="M119.538 744.4L120.122 743.411C120.239 743.21 120.272 743.186 120.339 743.082L120.539 742.8C120.472 742.543 120.447 742.374 120.264 741.86C119.922 740.823 119.588 739.803 118.845 738.959C118.653 738.742 118.553 738.444 118.403 738.187C118.136 737.721 117.877 737.247 117.585 736.789C117.451 736.58 117.201 736.419 117.134 736.202C116.784 735.117 116.3 734.121 115.524 733.253C115.373 732.344 114.747 731.701 114.23 730.978L114.03 730.697L113.22 730.11C112.911 729.901 112.594 729.7 112.244 729.548C112.018 729.451 111.793 729.298 111.643 729.114C110.691 728.013 109.515 727.177 108.346 726.317C107.095 725.393 105.943 724.356 104.933 723.166C104.399 722.531 103.723 722.001 103.064 721.471C102.279 720.844 101.445 720.281 100.644 719.662C99.4835 718.77 98.3068 717.926 97.0383 717.187L96.813 717.05L96.6711 716.986L96.4124 716.874C96.2538 716.809 96.112 716.753 95.9868 716.713C95.7865 717.01 95.6446 717.251 95.5278 717.444L94.301 718.843C94.1341 719.027 93.9588 719.204 93.7836 719.373L93.1911 719.911C93.1076 719.984 93.0325 720.064 92.9323 720.112C92.8405 720.161 92.7237 720.241 92.707 720.241C92.6403 720.273 92.5818 720.321 92.5151 720.353C92.3899 720.442 92.2647 720.546 92.1395 720.667C91.6555 721.165 91.2466 721.905 90.9795 722.708C90.6958 723.512 90.5956 724.388 90.5789 725.288C90.5622 726.638 90.8627 728.013 91.3467 729.323C91.789 730.552 92.4149 731.718 93.0826 732.859C95.0354 736.266 97.6475 739.352 100.585 742.029C101.295 742.672 102.054 743.258 102.813 743.837L103.923 744.729C105.284 745.846 106.702 746.891 108.213 747.735C110.341 748.94 112.778 749.784 114.706 749.607C115.799 749.535 116.625 749.069 116.934 748.177C116.976 748.056 117.034 747.992 117.134 747.992L119.312 747.004V747.012L117.067 748.153C117.168 748.121 117.301 748.169 117.443 748.297L119.229 747.389L119.221 747.405L117.518 748.177L117.526 748.185C118.036 748.667 118.603 749.198 118.428 750.033C118.303 750.588 118.01 751.126 117.334 751.384C117.092 751.48 116.85 751.544 116.617 751.657L116.266 751.81L115.899 751.906C115.407 752.059 114.889 752.067 114.414 751.898C114.28 751.858 114.096 751.866 113.938 751.882C112.536 752.075 111.117 751.777 109.84 751.303C108.563 750.813 107.387 750.138 106.243 749.455C105.876 749.222 105.492 749.005 105.117 748.796L103.998 748.113C103.531 747.799 103.08 747.462 102.63 747.124L100.769 745.541C100.285 745.171 99.7589 744.842 99.6421 744.191C99.6171 744.054 99.3667 743.853 99.2165 743.837C98.6406 743.789 98.3068 743.403 97.9563 743.041C97.0383 742.029 96.162 740.992 95.3192 739.931L93.383 737.608C92.3732 736.411 91.3717 735.173 90.5372 733.807C89.8278 732.674 89.2937 731.436 88.8013 730.166C88.6928 729.869 88.5259 729.596 88.4258 729.29C88.2589 728.736 88.0336 728.141 88.0669 727.579C88.1337 726.944 88.0586 726.494 87.7081 725.931C87.5161 725.618 87.4661 725.087 87.5412 724.653C87.6079 724.099 87.7498 723.56 87.9751 723.038C88.2339 722.411 88.5259 721.88 88.5259 721.125C88.5343 720.715 88.8347 720.225 89.1519 719.871C89.494 719.477 89.8612 719.092 90.2701 718.738C90.4788 718.561 90.6958 718.392 90.9294 718.24C91.0296 718.167 91.2048 718.063 91.2549 718.039C91.2966 718.023 91.3384 717.999 91.3717 717.967C91.9893 717.42 92.5902 716.809 93.166 716.19L93.6083 715.708L94.301 714.993L95.8533 713.394L98.6073 715.411L100.377 716.632C101.119 717.155 101.829 717.717 102.546 718.264C104.783 719.976 106.903 721.816 109.014 723.665C109.431 724.026 109.84 724.404 110.308 724.693C111.393 725.36 112.336 726.172 113.237 727.048C113.604 727.41 113.996 727.747 114.405 728.061L115.023 728.527L115.34 728.752L115.916 729.178L116.258 729.732L116.475 730.046L116.884 730.625C117.084 730.906 117.326 731.179 117.468 731.484C118.469 733.646 119.93 735.559 121.032 737.657C121.399 738.356 121.741 739.063 122.075 739.77L122.567 740.839L122.625 740.976L122.717 741.169L122.959 741.659L123.435 742.615L122.625 744.263C121.924 745.573 121.182 746.859 120.456 748.161C120.414 748.233 120.406 748.322 120.372 748.394L120.406 748.314L120.381 748.362C119.88 749.27 119.337 749.262 118.82 748.579C118.57 748.265 118.394 747.96 118.336 747.662L118.361 747.598C118.319 747.301 118.369 746.995 118.511 746.674C118.853 745.91 119.237 745.163 119.604 744.408L119.538 744.4Z" fill="#A0D0DB"/>
<path d="M97.8072 714.276C95.7209 714.582 94.5692 716.84 94.3272 719.106C93.1254 730.591 112.403 747.637 120.181 743.795C123.244 742.284 123.019 738.242 122.652 736.932C119.339 724.941 103.582 713.432 97.8072 714.276Z" fill="#C0E3EB"/>
<path d="M96.0628 717.153C95.5454 717.892 95.2199 718.824 94.9696 719.797C94.7109 720.657 94.6024 721.605 95.003 722.473C95.1198 722.698 95.1198 722.955 95.1782 723.204C95.2784 723.646 95.4369 724.08 95.5871 724.514C95.6539 724.715 95.8792 724.868 95.9043 725.061C95.9627 725.543 96.0712 726.017 96.2715 726.451C96.4467 726.901 96.7221 727.303 97.0559 727.673C97.1227 728.484 97.7152 729.023 98.2076 729.61C98.6917 730.196 99.0922 730.863 99.7265 731.338C99.9018 731.458 100.06 731.627 100.144 731.804C100.67 732.929 101.571 733.805 102.455 734.665C103.432 735.573 104.308 736.553 105.118 737.638C105.552 738.209 106.127 738.699 106.712 739.133C107.396 739.672 108.164 740.106 108.907 740.564C109.975 741.239 111.118 741.777 112.328 742.115C113.939 742.549 115.566 742.862 117.018 742.83C117.744 742.806 118.42 742.838 119.046 742.702C119.672 742.557 120.198 742.276 120.632 741.818C121.066 741.367 121.4 740.733 121.567 740.025C121.7 739.495 121.742 738.916 121.708 738.354C121.692 738.072 121.658 737.791 121.6 737.534C121.575 737.389 121.542 737.301 121.5 737.164L121.35 736.73C120.982 735.645 120.423 734.633 119.864 733.628C118.212 730.63 115.983 727.914 113.471 725.495C112.862 724.916 112.211 724.386 111.569 723.847C111.243 723.582 110.934 723.301 110.626 723.011C109.491 721.959 108.314 720.938 107.054 720.022C105.251 718.736 103.315 717.587 101.362 716.783C100.811 716.558 100.261 716.357 99.7265 716.244C99.1924 716.116 98.675 716.116 98.3078 716.228C98.1325 716.301 98.0324 716.124 98.0574 715.738C98.1158 715.071 98.2327 714.324 98.942 713.97C99.4177 713.745 99.9101 713.616 100.444 713.849C101.195 714.195 102.13 714.179 102.689 714.87C102.764 714.967 102.923 715.007 103.056 715.039C105.41 715.593 107.304 717.072 109.123 718.471C109.724 718.929 110.367 719.339 110.968 719.797C111.36 720.094 111.736 720.407 112.103 720.737C112.637 721.211 113.113 721.742 113.647 722.2C114.047 722.553 114.523 722.827 114.556 723.445C114.565 723.574 114.773 723.759 114.915 723.767C115.466 723.783 115.725 724.145 116.017 724.474C116.801 725.374 117.519 726.323 118.245 727.263C118.788 727.954 119.355 728.637 119.914 729.328C120.79 730.397 121.675 731.482 122.393 732.688C122.994 733.7 123.469 734.785 123.887 735.902C123.987 736.184 124.137 736.361 124.237 736.706C124.396 737.317 124.538 737.879 124.421 738.41C124.287 738.989 124.22 739.407 124.496 739.993C124.638 740.323 124.521 740.829 124.379 741.223C124.179 741.737 123.862 742.203 123.486 742.621C123.044 743.136 122.543 743.489 122.192 744.164C121.984 744.518 121.466 744.799 121.032 744.928C119.105 745.498 117.369 745.474 115.691 745.306C113.438 745.016 111.318 744.309 109.366 743.377C108.598 743.015 107.88 742.565 107.162 742.123C104.967 740.7 103.048 738.965 101.337 737.076C101.012 736.698 100.67 736.32 100.286 735.999C99.3843 735.268 98.6666 734.375 98.0658 733.403C97.3314 732.246 96.4467 731.201 95.6038 730.1C95.4119 729.843 95.1699 729.594 95.0363 729.312C94.1267 727.295 92.9249 725.334 92.4993 723.019C92.1739 721.155 92.2823 719.162 92.9917 717.265C93.2671 716.542 93.6427 715.835 94.1601 715.184C94.6858 714.549 95.3535 713.946 96.2047 713.584C96.3132 713.536 96.4134 713.456 96.5302 713.415C97.0393 713.263 97.4148 713.351 97.5901 713.544C97.7653 713.737 97.7486 714.042 97.6568 714.436C97.4816 715.127 97.3814 715.553 97.0393 715.802C96.6387 716.084 96.2548 716.542 95.9544 717.072L96.0628 717.153Z" fill="#A0D0DB"/>
</svg>
