<svg width="281" height="892" viewBox="0 0 281 892" fill="none" xmlns="http://www.w3.org/2000/svg">
<path d="M208.85 284.346L185.886 216.07C185.727 215.602 186.377 215.293 186.641 215.715L217.474 265.162L216.031 211.619C216.02 211.128 216.705 211.014 216.853 211.486L234.989 270.365L227.63 286.324L219.848 288.979L208.85 284.346Z" fill="#F5E3B4"/>
<path d="M203.741 272.959C202.797 269.631 201.8 266.291 200.931 262.967C200.155 260.005 199.41 257.091 198.189 254.215C197.874 253.473 197.648 252.628 197.374 251.832L195.892 247.49C195.656 246.832 195.291 246.179 195.133 245.555C194.341 242.469 193.395 239.449 192.131 236.51C191.892 235.279 191.514 234.104 191.098 232.947L190.437 231.213C190.202 230.605 189.967 229.996 189.729 229.376C189.169 227.856 188.625 226.276 188.059 224.665C187.761 223.827 187.451 222.992 187.149 222.161C186.851 221.322 186.396 220.249 186.196 219.544C185.948 218.754 185.857 218.149 185.863 217.814C185.872 217.305 185.785 216.742 185.672 216.125C185.624 215.817 185.516 215.513 185.492 215.18C185.533 214.99 185.838 214.795 186.078 214.815C186.325 214.84 186.356 215.041 186.474 215.157C186.875 215.696 187.311 216.225 187.74 216.731L189.223 218.399C189.519 218.713 189.958 219.457 190.348 220.066L191.549 221.99L193.944 225.903L195.026 227.73L195.833 229.139C196.363 230.081 196.878 231.033 197.392 231.985C198.475 234.016 199.757 236.054 201.003 238.052C202.489 240.43 204.049 242.762 205.559 245.133C207.75 248.571 209.963 251.953 212.292 255.266L213.886 257.54L214.271 258.088L214.483 258.364L214.871 258.856C215.352 259.459 215.706 259.875 215.97 260.16C215.893 259.496 215.808 258.828 215.735 258.156C215.704 257.954 215.695 257.784 215.685 257.614L215.655 255.862C215.647 254.462 215.637 253.051 215.625 251.658C215.576 246.058 215.584 240.461 215.498 234.858C215.464 232.756 215.411 230.652 215.352 228.544C215.267 226.121 215.183 223.699 215.106 221.281L214.931 216.549L214.836 214.11C214.818 213.325 214.939 212.977 215.019 212.547C215.195 211.795 215.359 211.268 215.501 210.797L215.695 210.151C215.712 210.103 215.715 210.046 215.752 209.999C215.793 209.945 215.898 209.879 216.024 209.844C216.278 209.756 216.608 209.789 216.649 209.87C216.999 210.312 217.393 210.691 217.98 211.345C218.273 211.716 218.653 212.019 219.025 213.375L220.147 216.92L223.589 227.709L228.95 244.339L231.588 252.304C232.021 253.637 232.432 254.975 232.842 256.314L237.097 270.511L236.146 272.557L229.053 287.893L222.357 290.157L219.786 291.029C217.923 290.25 216.064 289.463 214.202 288.683C212.559 288.01 210.908 287.37 209.243 286.771C208.133 286.372 207.859 286.052 208.421 285.848C209.394 285.501 210.237 285.06 212.26 285.455C213.63 285.722 214.892 286.024 216.413 286.773C217.001 287.069 217.624 287.337 218.244 287.593C218.786 287.814 219.336 288.04 219.883 288.254L220.466 288.063L221.299 287.81C221.854 287.651 222.412 287.523 222.982 287.441C223.325 287.384 223.79 287.213 224.161 287.055L227.192 285.834C229.183 281.008 232.089 275.103 234.35 270.333L234.199 269.83C233.528 267.588 232.746 265.301 232.027 263.041L230.651 258.613C230.005 256.463 229.409 254.292 228.721 252.165C228.2 250.56 227.588 249.03 227.538 247.45C227.526 247.114 227.247 246.276 227.061 246.006C226.34 244.975 225.971 243.631 225.572 242.289C224.488 238.678 223.443 235.049 222.324 231.447C221.499 228.777 220.616 226.123 219.709 223.494C219.239 222.209 218.839 221.225 218.524 220.503C218.362 220.14 218.231 219.842 218.109 219.598L217.942 219.261L217.863 219.11C217.855 219.056 217.774 219.01 217.668 219.095C217.586 219.155 217.556 219.293 217.576 219.411L217.602 219.756L217.647 220.392L217.727 221.494L217.863 223.315C217.879 223.441 217.902 223.57 217.926 223.681L217.963 223.837L217.999 224.42C218.056 225.955 218.191 227.573 218.095 229.02C217.993 230.629 217.99 231.877 218.37 233.354C218.578 234.18 218.601 235.501 218.6 236.576C218.597 237.96 218.504 239.332 218.412 240.685C218.302 242.309 218.182 243.83 218.481 245.57C218.645 246.506 218.594 247.805 218.533 248.866C218.388 251.215 218.362 253.575 218.4 255.942L218.44 257.864L218.521 260.634L218.737 266.349L218.886 269.883C216.466 266.151 214.041 262.425 211.628 258.696L206.87 251.529C205.482 249.421 204.134 247.278 202.771 245.145C200.656 241.828 198.58 238.495 196.524 235.144L193.457 230.113L192.691 228.853L192.582 228.636L192.336 228.166C192.203 227.906 191.981 227.479 191.946 227.576C191.924 227.699 191.931 227.771 191.813 227.587C191.786 227.533 191.686 227.554 191.704 227.574C191.707 227.585 191.696 227.589 191.684 227.592C191.666 227.591 191.636 227.574 191.599 227.572C191.527 227.579 191.689 228.06 191.857 228.446C191.944 228.651 192.036 228.829 192.112 228.969L192.167 229.059L192.435 229.763L192.989 231.242C193.332 232.154 193.731 233.07 194.01 233.994C195.974 240.452 198.442 246.722 200.526 253.122C202.208 258.305 203.745 263.522 205.316 268.729C206.509 272.762 207.692 276.779 208.882 280.8C208.962 281.068 209.083 281.331 209.16 281.588C209.821 283.883 209.585 284.757 208.506 283.929C207.55 283.191 206.673 281.82 205.995 279.776L203.824 272.968L203.741 272.959Z" fill="#EBC464"/>
<path d="M217.874 268.539C217.024 270.526 217.665 273.129 219.639 274.428C221.358 275.562 223.623 275.397 225.079 274.269C227.46 272.436 227.567 268.145 225.146 266.389C222.884 264.762 219.057 265.781 217.874 268.539Z" fill="#F5E3B4"/>
<path d="M218.743 269.944C218.54 270.197 218.423 270.489 218.216 270.817C218.031 271.109 217.876 271.467 218.196 271.688C218.28 271.745 218.248 271.834 218.282 271.911C218.331 272.046 218.392 272.177 218.469 272.298C218.507 272.349 218.666 272.343 218.651 272.421C218.574 272.794 218.715 273.107 219.097 273.17C219.004 273.553 219.35 273.575 219.584 273.641C219.818 273.706 219.966 273.907 220.281 273.795C220.366 273.766 220.425 273.781 220.456 273.846C220.634 274.248 221.04 274.285 221.394 274.293C221.778 274.299 222.119 274.415 222.546 274.687C222.771 274.835 223.019 274.792 223.233 274.739C223.508 274.682 223.729 274.498 223.962 274.379C224.3 274.193 224.587 273.911 224.687 273.513C224.843 273 224.877 272.516 224.915 272.091C224.937 271.881 225.093 271.728 225.223 271.55C225.447 271.173 225.681 270.745 225.756 270.273C225.794 269.917 225.745 269.56 225.608 269.239C225.5 268.936 225.26 268.693 225.083 268.476C224.542 267.809 223.885 267.551 223.144 267.575C222.971 267.573 222.778 267.657 222.609 267.697C222.525 267.726 222.434 267.733 222.344 267.72C222.016 267.718 221.649 267.732 221.315 267.842C220.835 268.005 220.43 268.308 220.111 268.63C219.917 268.8 219.728 269.013 219.836 269.317C219.866 269.401 219.677 269.342 219.317 269.157C218.701 268.825 218.056 268.478 217.798 268.079C217.613 267.809 217.518 267.551 217.723 267.445C218 267.283 217.971 266.84 218.465 266.908C218.536 266.919 218.565 266.868 218.576 266.816C218.853 265.869 219.823 265.578 220.619 265.372C220.887 265.292 221.132 265.151 221.401 265.071C221.57 265.012 221.759 265.003 221.938 264.979C222.207 264.948 222.47 265.03 222.737 264.988C222.93 264.972 223.159 264.86 223.275 265.285C223.3 265.377 223.399 265.375 223.453 265.279C223.653 264.928 223.826 264.998 223.982 265.048C224.426 265.204 224.833 265.426 225.227 265.669C225.531 265.833 225.823 266.018 226.158 266.18C226.633 266.469 227.173 266.797 227.544 267.269C227.714 267.463 227.835 267.677 227.944 267.894C228.06 268.116 228.153 268.343 228.235 268.574C228.283 268.678 228.383 268.774 228.419 268.882C228.468 269.084 228.588 269.298 228.483 269.5C228.361 269.731 228.323 269.884 228.674 270.084C228.872 270.196 228.855 270.38 228.809 270.529C228.757 270.722 228.615 270.903 228.467 271.061C228.282 271.266 228.09 271.418 228.301 271.693C228.41 271.842 228.281 272.001 228.157 272.115C227.607 272.606 227.405 273.131 227.187 273.734C226.888 274.533 226.39 275.373 225.649 276.028C225.36 276.28 225.026 276.458 224.693 276.617C223.633 277.118 222.424 277.147 221.334 276.866C221.118 276.82 220.915 276.734 220.68 276.755C220.149 276.802 219.652 276.587 219.259 276.237C218.784 275.831 218.23 275.612 217.663 275.28C217.531 275.205 217.375 275.155 217.296 275.023C216.765 274.168 215.988 273.455 215.752 272.457C215.564 271.663 215.67 270.831 215.865 270.079C216.025 269.492 216.31 268.957 216.63 268.48C216.647 268.451 216.634 268.405 216.662 268.372C216.884 268.101 217.36 268.236 218.021 268.642C218.613 268.998 218.924 269.233 218.874 269.389C218.809 269.555 218.716 269.735 218.65 269.92L218.743 269.944Z" fill="#EBC464"/>
<path d="M253.842 265.048C248.162 260.777 240.39 263.602 239.317 263.989C232.888 266.328 227.22 272.59 226.929 280.439C226.72 286.067 229.225 293.599 235.582 296.307C243.26 299.572 252.063 293.914 255.888 287.621C260.093 280.711 260.237 269.852 253.842 265.048Z" fill="#F5E3B4"/>
<path d="M249.458 264.307C248.38 263.868 247.206 263.616 245.999 263.404C244.923 263.217 243.8 263.112 242.743 263.556C242.473 263.674 242.152 263.675 241.865 263.754C241.333 263.888 240.802 264.021 240.286 264.212C240.051 264.301 239.851 264.517 239.619 264.55C238.496 264.734 237.384 265.138 236.552 265.953C235.622 266.122 235.007 266.828 234.381 267.451C233.748 268.069 233.035 268.642 232.611 269.437C232.494 269.642 232.336 269.853 232.154 270.001C231.01 270.871 230.263 272.132 229.669 273.413C229.029 274.793 228.409 276.155 227.796 277.589C227.482 278.361 227.353 279.218 227.308 280.064C227.238 281.071 227.361 282.081 227.496 283.069C227.683 284.512 228.089 285.926 228.764 287.192C229.672 288.882 230.739 290.43 232.007 291.694C232.349 291.995 232.616 292.36 232.942 292.672L233.406 293.169L233.913 293.622C235.275 294.805 236.955 295.684 238.787 295.99C240.162 296.23 241.599 296.089 242.979 295.76C244.274 295.46 245.474 294.815 246.646 294.203C250.085 292.265 253.023 289.266 254.699 285.83C255.101 285.003 255.395 284.113 255.65 283.222C255.802 282.785 255.913 282.335 256.05 281.889C256.543 280.241 256.854 278.519 256.887 276.793C256.91 274.335 256.451 271.874 255.366 269.812C254.769 268.648 254.002 267.543 252.862 266.942C252.566 266.764 252.589 266.535 252.934 266.305C253.54 265.904 254.156 265.469 255.013 265.666C255.582 265.807 256.062 266.07 256.425 266.625C256.647 267.052 256.95 267.438 257.238 267.835C257.499 268.245 257.686 268.7 257.716 269.192C257.723 269.332 257.828 269.488 257.896 269.624C259.417 271.992 259.627 274.942 259.406 277.646C259.362 278.541 259.317 279.436 259.212 280.336C259.117 280.912 258.995 281.482 258.867 282.049C258.627 282.862 258.346 283.662 258.058 284.457C257.886 285.066 257.724 285.691 257.116 286.043C256.988 286.116 256.877 286.43 256.903 286.571C257.027 287.136 256.734 287.599 256.457 288.052C255.664 289.258 254.734 290.347 253.773 291.389L252.685 292.534L251.561 293.657C250.364 294.789 249.095 295.878 247.629 296.75C246.385 297.437 245.053 298.006 243.638 298.364C243.315 298.471 243.007 298.605 242.664 298.662C242.047 298.776 241.392 298.956 240.792 298.818C240.46 298.754 240.171 298.716 239.887 298.739C239.601 298.731 239.319 298.784 238.994 298.928C238.631 299.09 238.069 299.022 237.628 298.877C237.064 298.711 236.521 298.489 236.034 298.154C235.439 297.786 234.937 297.442 234.184 297.333C233.768 297.3 233.338 296.948 233.023 296.633C231.626 295.257 230.292 293.974 229.112 292.488C227.53 290.483 226.35 288.164 225.642 285.696C225.351 284.726 225.205 283.723 225.09 282.717C224.914 281.153 224.991 279.52 225.294 277.949C225.579 276.376 226.092 274.846 226.802 273.428C227.059 272.857 227.396 272.332 227.616 271.759C228.173 270.458 229.006 269.284 230.038 268.322C231.255 267.154 232.382 265.925 233.671 264.817C233.979 264.566 234.258 264.279 234.601 264.087C236.99 262.801 239.452 261.489 242.128 261.045C244.285 260.693 246.543 260.728 248.722 261.242C250.407 261.62 252.02 262.344 253.415 263.332C253.502 263.401 253.617 263.437 253.703 263.506C254.465 264.143 254.379 264.685 253.582 265.065C252.872 265.426 252.276 265.417 251.651 265.119L251.142 264.839L250.604 264.61C250.247 264.436 249.873 264.31 249.49 264.199L249.458 264.307Z" fill="#EBC464"/>
<path d="M210.89 277.135C212.394 277.08 217.257 277.135 221.208 280.683C225.881 284.884 226.667 291.641 225.148 296.659C223.064 303.536 215.798 309.934 208.207 308.423C201.478 307.083 197.933 300.219 197.046 295.324C196.752 293.713 195.74 286.74 200.689 281.572C204.535 277.539 209.545 277.183 210.89 277.135Z" fill="#F5E3B4"/>
<path d="M215.275 276.344C216.451 276.781 217.592 277.314 218.562 278.061C219.436 278.722 220.146 279.466 221.13 279.968C221.383 280.102 221.582 280.332 221.782 280.543C222.166 280.907 222.542 281.285 222.886 281.685C223.046 281.863 223.335 281.969 223.417 282.181C223.909 283.207 224.351 284.167 225.054 285.061C225.084 285.979 225.589 286.674 225.9 287.49C226.21 288.307 226.303 289.183 226.624 290.015C226.721 290.235 226.763 290.502 226.728 290.734C226.538 292.157 226.566 293.539 226.38 294.955C226.182 296.46 225.626 297.947 224.702 299.145C224.203 299.782 223.84 300.506 223.393 301.172C223.141 301.581 222.893 301.982 222.611 302.375C222.344 302.775 222.07 303.172 221.749 303.531C220.861 304.615 219.884 305.6 218.864 306.608C217.497 307.953 215.811 309.077 213.87 309.745C212.882 310.084 211.797 310.135 210.746 310.109C208.633 310.059 206.588 309.428 204.781 308.448C203.425 307.715 202.172 306.817 201.059 305.776C200.037 304.797 199.075 303.746 198.294 302.564C197.14 300.812 196.27 298.902 195.674 296.867C195.068 294.816 194.852 292.677 194.918 290.534C194.962 289.503 195.034 288.459 195.237 287.421C195.348 286.903 195.492 286.394 195.674 285.887C196.363 284.03 197.425 282.3 198.735 280.816C200.583 278.66 203.05 277.05 205.7 276.175C207.209 275.668 208.735 275.422 210.311 275.088C210.761 274.996 210.906 275.184 210.759 275.595C210.509 276.306 210.342 277.044 209.727 277.527C209.313 277.863 208.955 278.135 208.408 278.143C207.592 278.163 206.899 278.699 206.026 278.58C205.899 278.566 205.759 278.641 205.65 278.715C203.681 280.027 201.716 281.214 200.215 283.035C199.991 283.343 199.774 283.656 199.579 283.981L199.061 284.994C198.87 285.448 198.636 285.877 198.467 286.343C198.19 286.999 197.913 287.675 197.799 288.385C197.687 288.922 197.757 289.447 197.273 289.888C197.174 289.977 197.169 290.275 197.261 290.385C197.593 290.807 197.547 291.246 197.515 291.693C197.469 292.898 197.485 294.128 197.719 295.318C197.887 296.198 198.195 297.052 198.566 297.864C199.154 299.129 199.949 300.27 200.763 301.343C201.45 302.229 202.131 303.111 202.948 303.838C203.131 304.01 203.375 304.11 203.562 304.274C203.896 304.59 204.342 304.777 204.586 305.148C204.882 305.53 205.194 305.766 205.727 305.681C206.031 305.622 206.346 305.801 206.601 305.966C206.947 306.124 207.249 306.412 207.591 306.646C208 306.898 208.401 307.214 208.956 307.006C209.241 306.897 209.594 307.059 209.898 307.155C211.255 307.665 212.757 307.377 214.073 306.818C215.873 306.04 217.459 304.82 218.777 303.39C219.026 303.105 219.29 302.829 219.554 302.553L220.284 301.68C221.723 299.815 222.973 297.773 223.651 295.543C223.784 295.105 223.918 294.648 223.909 294.188C223.902 293.127 223.991 292.102 224.052 291.042C224.129 289.767 223.766 288.514 223.249 287.396C223.128 287.133 222.967 286.887 222.883 286.626C222.629 285.677 222.124 284.827 221.531 284.082C220.95 283.315 220.245 282.681 219.551 282.044C218.434 281.011 217.148 280.085 215.651 279.446C214.505 278.939 213.266 278.563 211.968 278.357C211.885 278.349 211.794 278.374 211.711 278.366C210.986 278.244 210.702 277.772 211.057 276.996C211.377 276.315 211.96 275.92 212.733 275.992C213.589 276.072 214.424 276.257 215.241 276.49L215.275 276.344Z" fill="#EBC464"/>
<path d="M32.6136 41.7556C35.654 43.4366 38.7454 45.0944 41.7266 46.8118C44.3898 48.3457 46.9995 49.8537 49.8932 51.088C50.6388 51.4022 51.401 51.8366 52.1546 52.2144C53.5293 52.8946 54.9102 53.5824 56.2848 54.2627C56.9127 54.5658 57.6246 54.793 58.1876 55.118C58.877 55.5107 59.5776 55.9323 60.2715 56.2766C60.6191 56.4418 60.9579 56.6271 61.3245 56.7382C61.6892 56.8701 62.0545 56.995 62.4319 57.0652C63.9358 57.4085 65.5314 57.3693 66.9978 56.9201C69.4115 56.6433 71.4996 55.0723 72.8673 53.1406C73.0304 52.8906 73.2066 52.6488 73.3633 52.3912L73.8004 51.6012L74.6224 49.9047C75.1818 48.7771 75.6469 47.6128 76.0767 46.4521C76.3018 45.8378 76.5969 45.1463 76.91 44.5611L77.6084 43.2161C77.8475 42.7498 78.0462 42.3425 78.1777 41.908C78.455 41.0333 78.5508 40.0857 78.4135 39.1652C78.1749 37.3136 77.0754 35.6327 75.5072 34.6341C71.8626 32.2472 68.2647 29.8089 64.7375 27.2865C62.8592 25.9447 60.7995 24.6767 58.7781 23.4472C56.374 21.9793 53.9119 20.6108 51.4667 19.2089C47.9143 17.1798 44.3383 15.2532 40.6844 13.4869C35.8195 11.0836 30.8094 8.89008 25.8763 6.54322C24.6192 5.95078 23.3728 5.31741 22.1208 4.6696C21.4628 4.31477 20.9674 4.08687 20.3845 3.89965C19.8066 3.73384 19.2185 3.60202 18.6131 3.58026C16.1891 3.44415 13.7606 4.55041 12.2585 6.57423C10.5679 8.74798 9.04556 11.0632 7.73565 13.496C7.24545 14.4066 6.78102 15.3406 6.35053 16.2847L6.0327 16.9951C5.93389 17.2302 5.8186 17.4918 5.75266 17.6741C5.60305 18.079 5.51383 18.5105 5.50135 18.9422C5.46255 19.8044 5.70812 20.6861 6.17758 21.4143C6.4082 21.785 6.69935 22.1055 7.02902 22.3877C7.18974 22.5354 7.37451 22.6504 7.55231 22.7648L7.83765 22.9242L8.18454 23.0963C11.7056 24.8641 15.2792 26.5182 18.8445 28.1855C24.129 30.656 29.4642 33.0336 34.8367 35.3098C40.1915 37.6264 45.6642 39.6536 51.1013 41.7614L55.0321 43.2535L56.0167 43.6249L56.5091 43.8107L56.8687 43.9211C57.3398 44.035 57.8263 44.0597 58.3004 43.9923C59.2479 43.8646 60.126 43.3602 60.6781 42.609C60.7488 42.5248 60.8063 42.4324 60.8569 42.3394C60.9131 42.2609 60.9808 42.1346 61.0497 41.9944L61.2548 41.5947L61.3566 41.4018L61.4199 41.2471C61.5972 40.8447 61.6934 40.4139 61.7065 39.9753C61.7397 39.0986 61.4262 38.1966 60.8415 37.5065C60.6896 37.3387 60.5295 37.1841 60.3619 37.0357L60.0874 36.8355L59.6866 36.5675L58.0682 35.5084C56.9818 34.8063 55.8942 34.118 54.7908 33.4492C48.4759 29.6045 41.8727 26.2285 35.0897 23.2826C31.2386 21.6095 27.3337 20.0641 23.3309 18.8935C22.2089 18.5721 21.8925 18.2981 22.4185 18.1239C23.3199 17.8173 24.0895 17.4284 26.1226 17.7863C27.4965 18.0266 28.769 18.3063 30.3374 19.0047C32.6029 20.0127 35.1367 20.7665 37.2271 22.0793C37.5237 22.2676 37.9882 22.4507 38.3655 22.5977C45.1978 25.2411 51.6202 28.9073 57.8159 32.8316L60.8614 34.7574C61.3502 35.0545 61.9414 35.452 62.3782 35.9327C62.8364 36.4085 63.2099 36.9671 63.4745 37.5714C64.1948 39.126 64.1337 41.0473 63.3367 42.5507L62.9362 43.323C62.7781 43.5945 62.6069 43.8578 62.4099 44.0977C62.0153 44.5844 61.5427 45.0079 61.0232 45.3363C59.976 46.0063 58.7178 46.3214 57.4888 46.2483C56.5479 46.2301 55.6451 45.8802 54.9265 45.5756C54.174 45.2608 53.4524 44.9139 52.8028 44.4691C52.527 44.2827 51.6908 43.9671 51.373 43.9304C50.1374 43.7798 48.8486 43.2263 47.5434 42.6992C44.0342 41.2536 40.499 39.8614 37.0239 38.3492C34.4375 37.2623 31.838 36.1673 29.2579 35.0879C25.2463 33.4138 21.2411 31.7473 17.2758 29.9518C13.9599 28.4545 10.6763 26.8345 7.3991 25.2221L6.8246 24.9449C6.59899 24.8191 6.35759 24.7127 6.14777 24.5673C5.70542 24.2955 5.29724 23.9571 4.94268 23.5678C3.61468 22.1658 2.90857 20.0121 3.32185 18.2076C3.41759 17.7069 3.57869 17.2541 3.75037 16.8373C3.90928 16.4821 4.05307 16.1396 4.20377 15.7976C4.48247 15.1325 4.719 14.4703 4.92869 13.7219C5.16129 12.8779 5.8121 11.6681 6.38988 10.7168C7.12573 9.49401 7.97343 8.34459 8.83669 7.25241C9.36521 6.60368 9.871 5.97372 10.3919 5.33126C10.63 5.02539 10.9452 4.64296 11.2438 4.2869C11.3997 4.11299 11.5632 3.93282 11.7267 3.75263C11.8965 3.58 12.0737 3.40105 12.2511 3.22215C12.636 2.83926 13.1808 2.46437 13.7675 2.16321C14.3668 1.87718 15.0176 1.63792 15.6152 1.51931C16.9345 1.22387 18.2941 1.16955 19.5995 1.39645C20.2531 1.49953 20.8996 1.67871 21.5208 1.90442C21.8327 2.00344 22.1319 2.16414 22.4343 2.29019L23.2337 2.70014C25.3518 3.79208 27.5021 4.8382 29.6537 5.87045C32.5721 7.28865 35.5259 8.62638 38.4196 10.0842C41.3134 11.542 44.1982 13.0199 47.0641 14.5518C49.3046 15.753 51.5254 17.0151 53.7387 18.2835C60.616 22.2367 67.2954 26.5134 73.846 30.9736C74.4893 31.4109 75.1319 31.855 75.7821 32.2929C76.1107 32.5122 76.433 32.7239 76.7547 32.9426C77.1347 33.2085 77.5073 33.4808 77.8488 33.7851C79.4563 35.1853 80.4634 37.2554 80.6132 39.385C80.6953 40.447 80.5728 41.5317 80.2542 42.5492C79.9014 43.6333 79.4803 44.327 79.0898 45.1422C78.1218 47.0555 77.2682 49.0142 76.3348 50.9307L75.6411 52.3739C75.5202 52.6209 75.3622 52.8924 75.2192 53.1513C75.0826 53.4178 74.9258 53.6755 74.7496 53.9173C74.103 54.932 73.2662 55.8171 72.3345 56.5957C71.4835 57.333 70.4906 57.9452 69.4599 58.3654C67.6353 59.0604 65.6783 59.38 63.7365 59.2401C62.7681 59.1425 61.8044 58.9964 60.8769 58.6861C60.6468 58.6088 60.4084 58.5446 60.1858 58.4609L59.5144 58.1746C59.0372 57.9763 58.6978 57.798 58.31 57.6151C55.2646 56.1361 52.218 54.6709 49.2137 53.126C44.3434 50.6314 39.5318 48.0306 34.7177 45.4575C31.0022 43.455 27.3006 41.4538 23.592 39.4519C23.3462 39.3172 23.0765 39.2152 22.8377 39.0811C20.7324 37.9275 20.2402 37.2181 21.5369 37.165C22.6862 37.1189 24.2454 37.5442 26.1787 38.5211L32.5517 41.8196L32.6136 41.7556Z" fill="#EBC464"/>
<path d="M144.207 873.008L204.93 742.215C204.999 742.069 205.15 741.991 205.31 742.022L229.394 746.77C229.617 746.813 229.736 747.047 229.641 747.25C229.641 747.25 167.882 880.576 167.72 880.519L144.411 873.468C144.219 873.419 144.124 873.192 144.207 873.008Z" fill="#F5E3B4"/>
<path d="M149.564 859.112C151.435 855.416 153.276 851.673 155.178 848.049C156.873 844.809 158.547 841.631 159.945 838.168C160.308 837.273 160.789 836.345 161.208 835.431C161.977 833.768 162.739 832.11 163.502 830.451C163.842 829.692 164.111 828.846 164.468 828.163C166.245 824.793 167.884 821.384 169.3 817.834C170.795 815.249 171.85 812.521 173.036 809.776C174.216 807.035 175.548 804.305 176.607 801.538C176.89 800.807 177.246 799.98 177.614 799.278C179.845 795.002 181.803 790.6 183.788 786.176C185.919 781.436 188.166 776.763 190.566 772.189C191.843 769.754 193.05 767.135 194.236 764.578C195.621 761.518 197.002 758.463 198.387 755.403C199.365 753.238 200.332 751.083 201.299 748.928L202.713 745.683L204.187 742.238C204.259 742.072 204.343 741.923 204.431 741.789C204.506 741.683 204.566 741.581 204.674 741.493C204.776 741.41 204.91 741.355 205.034 741.343C205.274 741.318 205.545 741.321 205.831 741.376L207.237 741.609L209.635 741.994C211.237 742.257 212.838 742.521 214.444 742.78C217.655 743.327 220.865 743.875 224.08 744.418C224.86 744.562 225.639 744.706 226.429 744.852C227.425 745.053 228.43 745.255 229.431 745.452C229.803 745.535 230.098 745.688 230.322 745.854C230.437 745.94 230.523 746.013 230.616 746.117C230.714 746.225 230.796 746.382 230.845 746.53C230.893 746.688 230.906 746.803 230.907 746.936C230.892 747.082 230.913 747.208 230.867 747.371C230.748 747.709 230.701 748.025 230.512 748.376C230.071 749.307 229.625 750.233 229.18 751.16C226.283 757.202 223.388 763.235 220.491 769.278C218.34 773.828 216.24 778.418 214.154 783.004C212.233 787.297 210.321 791.58 208.399 795.873L191.148 833.957C189.778 837.014 188.413 840.066 187.047 843.127C186.362 844.651 185.653 846.176 184.94 847.687L176.993 864.539L172.932 873.22L170.897 877.56L169.863 879.743L169.423 880.665C169.37 880.842 169.215 880.915 169.09 881.026L168.707 881.337C168.587 881.408 168.463 881.455 168.338 881.521L168.25 881.566L168.203 881.586L168.183 881.593L168.177 881.598C168.041 881.288 168.361 882.021 168.324 881.944L168.309 881.947L168.075 881.967C167.763 881.98 167.466 882.033 167.142 882.019L159.309 879.639C154.477 878.165 149.664 876.658 144.796 875.383C144.455 875.294 144.173 875.21 143.954 875.128L143.878 875.101C143.868 875.1 143.736 875.047 143.669 875.02C143.594 874.983 143.529 874.947 143.464 874.91C143.203 874.755 143.002 874.552 142.856 874.339C142.569 873.92 142.495 873.488 142.513 873.169C142.566 872.509 142.815 872.297 142.827 872.368C142.88 872.432 142.717 872.815 142.901 873.426C143.065 873.937 143.481 874.305 143.928 874.425C143.976 874.44 144.077 874.465 144.083 874.451L144.134 874.436L144.23 874.412L144.428 874.358C144.697 874.292 144.979 874.232 145.304 874.192C145.954 874.111 146.778 874.111 147.987 874.3C149.624 874.552 151.141 874.822 153.055 875.493C155.842 876.465 158.894 877.105 161.566 878.278C161.944 878.445 162.52 878.603 162.987 878.715C164.298 879.062 165.605 879.404 166.922 879.747L167.378 879.868C167.398 879.87 167.416 879.881 167.431 879.878L167.461 879.827L167.512 879.714L167.614 879.497L168.061 878.507L169.194 876.028L171.509 871.085C173.076 867.797 174.638 864.504 176.205 861.216C177.422 858.642 178.57 856.027 179.754 853.435L182.088 848.405C183.231 845.972 184.417 843.558 185.517 841.115C186.353 839.271 187.079 837.446 188.157 835.934C188.382 835.617 188.818 834.645 188.9 834.274C189.22 832.841 189.952 831.342 190.661 829.826L196.426 817.575C197.828 814.547 199.194 811.485 200.525 808.435C202.577 803.687 204.618 798.957 206.671 794.21C208.406 790.248 210.213 786.299 211.987 782.342C212.397 781.427 212.754 780.501 213.164 779.586C213.923 777.913 214.67 776.124 215.498 774.601C216.416 772.914 217.069 771.56 217.562 769.835C217.839 768.867 218.519 767.437 219.082 766.281C219.808 764.796 220.598 763.348 221.37 761.932C222.301 760.227 223.19 758.636 223.873 756.648C224.239 755.581 224.959 754.199 225.562 753.082C226.233 751.838 226.881 750.578 227.52 749.306L227.98 748.386L228.189 747.984L228.295 747.772C228.341 747.708 228.345 747.615 228.287 747.555C228.157 747.482 227.999 747.476 227.846 747.43L226.261 747.109L224.19 746.709L220.031 745.94L212.045 744.517L208.052 743.81L206.099 743.466L205.855 743.441C205.757 743.43 205.754 743.558 205.723 743.619L203.127 749.525C201.906 752.281 200.64 755.037 199.38 757.789C195.474 766.353 191.447 774.845 187.397 783.33C186.604 784.995 185.788 786.688 185.079 788.356C183.436 792.234 181.647 796.007 179.789 799.773C177.551 804.304 175.547 808.914 173.543 813.524C173.077 814.601 172.638 815.7 172.132 816.739C168.583 823.992 165.456 831.412 162.008 838.691C159.221 844.582 156.331 850.413 153.466 856.252C151.231 860.754 149.013 865.243 146.783 869.74C146.639 870.036 146.517 870.359 146.369 870.65C145.085 873.207 144.328 873.849 144.333 872.36C144.335 871.043 144.836 869.194 145.931 866.855L149.61 859.146L149.564 859.112Z" fill="#EBC464"/>
<path d="M164.26 854.817C164.159 854.648 164.048 854.533 163.957 854.312C163.878 854.116 163.805 853.916 163.645 854.082C163.606 854.123 163.582 854.071 163.547 854.072C163.489 854.066 163.431 854.05 163.372 854.054C163.347 854.057 163.291 854.164 163.276 854.123C163.199 853.908 163.089 853.828 162.922 854.008C162.882 853.728 162.751 853.897 162.641 853.959C162.531 854.022 162.44 853.944 162.309 854.123C162.274 854.168 162.243 854.185 162.223 854.138C162.116 853.886 161.948 853.932 161.783 853.96C161.607 853.986 161.456 853.877 161.341 853.603C161.282 853.454 161.19 853.44 161.097 853.426C160.991 853.405 160.872 853.457 160.754 853.454C160.591 853.452 160.425 853.49 160.236 853.643C159.979 853.843 159.732 853.991 159.499 854.09C159.381 854.142 159.293 854.034 159.196 853.97C159.002 853.842 158.817 853.67 158.615 853.575C158.465 853.5 158.298 853.493 158.13 853.495C157.971 853.499 157.801 853.575 157.641 853.588C157.173 853.629 156.707 853.65 156.24 853.681C156.131 853.689 156.008 853.736 155.893 853.749C155.838 853.758 155.785 853.747 155.732 853.727C155.542 853.658 155.355 853.56 155.164 853.501C154.885 853.423 154.599 853.379 154.326 853.296C154.168 853.245 154.018 853.171 153.82 853.323C153.766 853.367 153.782 853.211 153.87 852.889C154.016 852.332 154.165 851.745 154.316 851.425C154.417 851.209 154.504 851.04 154.548 851.138C154.618 851.279 154.771 851.038 154.788 851.4C154.792 851.449 154.813 851.442 154.83 851.419C155.189 851.091 155.424 851.357 155.685 851.457C155.775 851.491 155.873 851.447 155.966 851.452C156.03 851.454 156.084 851.464 156.146 851.485C156.231 851.514 156.303 851.59 156.392 851.58C156.457 851.571 156.546 851.482 156.53 851.826C156.527 851.899 156.563 851.888 156.591 851.812C156.705 851.513 156.75 851.557 156.802 851.577C156.939 851.636 157.074 851.714 157.214 851.743C157.321 851.764 157.438 851.732 157.561 851.685C157.747 851.605 157.949 851.458 158.134 851.389C158.293 851.331 158.435 851.341 158.581 851.311C158.612 851.305 158.662 851.246 158.697 851.244C158.756 851.241 158.832 851.179 158.869 851.301C158.904 851.433 158.945 851.472 159.061 851.208C159.126 851.056 159.171 851.091 159.207 851.124C159.252 851.168 159.285 851.285 159.307 851.401C159.342 851.543 159.372 851.679 159.48 851.493C159.54 851.39 159.577 851.468 159.598 851.549C159.708 851.916 159.889 851.93 160.087 851.876C160.357 851.8 160.635 851.681 160.91 851.6C161.017 851.567 161.115 851.577 161.214 851.577C161.525 851.575 161.806 851.722 162.081 851.874C162.132 851.904 162.187 851.949 162.261 851.897C162.421 851.785 162.552 851.848 162.663 851.973C162.795 852.125 162.981 852.045 163.168 851.956C163.214 851.936 163.265 851.877 163.297 851.905C163.516 852.12 163.831 851.891 164.076 852.005C164.274 852.094 164.445 852.304 164.618 852.485C164.757 852.623 164.882 852.798 165.014 852.96C165.022 852.971 165.04 852.948 165.048 852.959C165.116 853.064 165.065 853.473 164.894 854.078C164.74 854.614 164.616 854.913 164.534 854.889C164.448 854.861 164.366 854.793 164.282 854.745C164.276 854.759 164.268 854.793 164.26 854.817Z" fill="#EBC464"/>
<path d="M165.059 844.621C165.006 844.468 164.953 844.359 164.916 844.148C164.881 843.961 164.851 843.771 164.744 843.947C164.715 843.989 164.705 843.943 164.685 843.941C164.646 843.937 164.618 843.924 164.577 843.94C164.562 843.943 164.52 844.058 164.51 844.012C164.477 843.806 164.415 843.741 164.301 843.931C164.3 843.655 164.203 843.832 164.127 843.904C164.05 843.975 164.008 843.901 163.905 844.093C163.88 844.14 163.859 844.157 163.848 844.122C163.798 843.885 163.693 843.943 163.591 843.982C163.478 844.019 163.394 843.927 163.346 843.67C163.321 843.53 163.263 843.524 163.21 843.513C163.147 843.502 163.061 843.562 162.996 843.57C162.897 843.58 162.788 843.633 162.657 843.802C162.481 844.025 162.316 844.186 162.161 844.303C162.081 844.359 162.037 844.261 161.978 844.21C161.866 844.105 161.764 843.947 161.653 843.866C161.566 843.803 161.467 843.812 161.362 843.826C161.266 843.841 161.153 843.933 161.052 843.962C160.757 844.04 160.47 844.095 160.177 844.163C160.111 844.181 160.031 844.237 159.955 844.264C159.919 844.275 159.89 844.272 159.857 844.254C159.749 844.198 159.639 844.118 159.52 844.081C159.358 844.025 159.182 844.007 159.015 843.945C158.925 843.911 158.838 843.848 158.703 844.012C158.668 844.057 158.689 843.907 158.772 843.58C158.908 843.021 159.048 842.434 159.165 842.105C159.243 841.881 159.314 841.716 159.334 841.807C159.364 841.943 159.479 841.688 159.463 842.042C159.458 842.091 159.474 842.078 159.486 842.059C159.734 841.705 159.852 841.949 160.011 842.034C160.063 842.064 160.127 842.012 160.187 842.008C160.227 842.002 160.26 842.011 160.293 842.029C160.345 842.049 160.383 842.117 160.439 842.098C160.484 842.088 160.544 841.986 160.504 842.332C160.497 842.4 160.523 842.388 160.54 842.311C160.636 842.01 160.656 842.046 160.689 842.065C160.769 842.107 160.845 842.179 160.933 842.188C160.996 842.2 161.074 842.163 161.149 842.102C161.272 842.011 161.407 841.847 161.529 841.766C161.63 841.693 161.719 841.692 161.812 841.652C161.833 841.644 161.869 841.579 161.889 841.581C161.929 841.575 161.98 841.507 161.993 841.621C162.005 841.746 162.026 841.783 162.118 841.511C162.168 841.363 162.195 841.386 162.217 841.413C162.242 841.455 162.251 841.564 162.259 841.673C162.27 841.808 162.275 841.947 162.36 841.743C162.406 841.634 162.423 841.71 162.425 841.789C162.462 842.143 162.576 842.14 162.702 842.065C162.875 841.969 163.057 841.83 163.231 841.724C163.299 841.687 163.363 841.688 163.418 841.679C163.609 841.65 163.773 841.775 163.933 841.905C163.964 841.933 163.995 841.971 164.04 841.916C164.146 841.794 164.225 841.846 164.282 841.961C164.357 842.097 164.475 842 164.599 841.899C164.626 841.878 164.663 841.812 164.679 841.844C164.798 842.033 165.01 841.789 165.154 841.878C165.27 841.954 165.359 842.14 165.456 842.303C165.532 842.43 165.594 842.594 165.663 842.734C165.667 842.74 165.679 842.721 165.684 842.727C165.718 842.824 165.647 843.231 165.495 843.837C165.361 844.376 165.251 844.68 165.208 844.661C165.156 844.641 165.113 844.577 165.063 844.538C165.075 844.564 165.062 844.592 165.059 844.621Z" fill="#EBC464"/>
<path d="M167.054 837.494C167.021 837.342 166.972 837.238 166.949 837.034C166.928 836.854 166.908 836.664 166.811 836.842C166.786 836.889 166.776 836.843 166.762 836.837C166.733 836.834 166.704 836.821 166.673 836.837C166.658 836.841 166.616 836.955 166.616 836.911C166.597 836.711 166.55 836.642 166.441 836.838C166.449 836.573 166.366 836.747 166.3 836.819C166.233 836.891 166.196 836.823 166.107 837.011C166.083 837.058 166.066 837.081 166.06 837.041C166.03 836.806 165.939 836.871 165.846 836.91C165.748 836.954 165.683 836.864 165.655 836.609C165.64 836.47 165.596 836.47 165.547 836.465C165.494 836.455 165.423 836.521 165.367 836.53C165.282 836.546 165.192 836.601 165.077 836.767C164.92 836.993 164.779 837.161 164.644 837.28C164.578 837.342 164.544 837.245 164.495 837.196C164.407 837.088 164.323 836.941 164.233 836.863C164.16 836.806 164.075 836.812 163.989 836.838C163.908 836.859 163.81 836.947 163.727 836.979C163.477 837.066 163.233 837.13 162.988 837.213C162.932 837.232 162.862 837.289 162.799 837.322C162.768 837.339 162.744 837.331 162.716 837.318C162.622 837.269 162.536 837.196 162.441 837.157C162.303 837.108 162.162 837.089 162.024 837.04C161.948 837.012 161.876 836.946 161.754 837.116C161.72 837.162 161.746 837.007 161.824 836.684C161.956 836.12 162.095 835.533 162.207 835.209C162.285 834.985 162.342 834.813 162.357 834.908C162.377 835.043 162.482 834.788 162.456 835.14C162.451 835.189 162.467 835.176 162.479 835.158C162.698 834.8 162.792 835.037 162.923 835.109C162.964 835.138 163.025 835.08 163.075 835.076C163.105 835.069 163.138 835.077 163.167 835.09C163.209 835.109 163.237 835.176 163.283 835.156C163.319 835.145 163.375 835.038 163.334 835.384C163.322 835.456 163.347 835.444 163.371 835.363C163.461 835.056 163.477 835.097 163.505 835.11C163.571 835.147 163.627 835.216 163.7 835.229C163.753 835.239 163.817 835.197 163.883 835.134C163.991 835.037 164.112 834.877 164.215 834.784C164.301 834.713 164.376 834.706 164.454 834.66C164.475 834.652 164.502 834.586 164.517 834.583C164.547 834.576 164.599 834.507 164.602 834.621C164.608 834.75 164.625 834.781 164.707 834.508C164.757 834.361 164.78 834.378 164.791 834.414C164.806 834.455 164.815 834.564 164.813 834.672C164.82 834.801 164.816 834.939 164.895 834.74C164.936 834.636 164.948 834.706 164.95 834.785C164.968 835.137 165.063 835.122 165.174 835.05C165.323 834.947 165.481 834.8 165.635 834.693C165.694 834.654 165.743 834.65 165.799 834.641C165.96 834.608 166.096 834.72 166.222 834.842C166.249 834.865 166.27 834.901 166.315 834.847C166.412 834.723 166.466 834.768 166.514 834.882C166.569 835.016 166.674 834.913 166.778 834.81C166.8 834.783 166.836 834.728 166.848 834.753C166.943 834.936 167.126 834.688 167.241 834.774C167.332 834.843 167.402 835.028 167.475 835.183C167.531 835.307 167.579 835.465 167.633 835.609C167.638 835.614 167.649 835.596 167.648 835.606C167.673 835.702 167.602 836.109 167.45 836.715C167.316 837.254 167.22 837.565 167.183 837.541C167.14 837.522 167.102 837.464 167.067 837.421C167.065 837.44 167.062 837.47 167.054 837.494Z" fill="#EBC464"/>
<path d="M169.865 831.226C169.826 831.079 169.778 830.965 169.755 830.761C169.73 830.576 169.71 830.386 169.607 830.568C169.583 830.615 169.572 830.569 169.558 830.563C169.529 830.56 169.495 830.551 169.465 830.558C169.45 830.562 169.409 830.676 169.408 830.631C169.385 830.427 169.332 830.362 169.233 830.559C169.236 830.288 169.149 830.466 169.088 830.534C169.026 830.602 168.984 830.538 168.895 830.727C168.871 830.773 168.853 830.796 168.848 830.756C168.818 830.521 168.717 830.585 168.63 830.62C168.531 830.664 168.461 830.578 168.429 830.318C168.414 830.179 168.365 830.174 168.316 830.169C168.263 830.158 168.187 830.22 168.132 830.229C168.047 830.245 167.947 830.298 167.832 830.464C167.675 830.69 167.525 830.857 167.389 830.976C167.319 831.033 167.279 830.94 167.236 830.886C167.143 830.783 167.064 830.632 166.964 830.553C166.891 830.496 166.801 830.506 166.71 830.526C166.625 830.542 166.526 830.641 166.439 830.666C166.184 830.749 165.935 830.817 165.676 830.894C165.614 830.917 165.544 830.974 165.482 830.997C165.451 831.014 165.427 831.006 165.399 830.993C165.305 830.944 165.215 830.866 165.115 830.831C164.972 830.777 164.826 830.762 164.688 830.713C164.607 830.68 164.534 830.623 164.414 830.784C164.38 830.829 164.405 830.674 164.483 830.352C164.615 829.788 164.754 829.2 164.867 828.876C164.944 828.652 165.006 828.486 165.021 828.571C165.042 828.707 165.147 828.451 165.126 828.799C165.121 828.848 165.137 828.835 165.149 828.816C165.373 828.464 165.472 828.697 165.603 828.769C165.65 828.794 165.705 828.74 165.754 828.736C165.785 828.729 165.819 828.737 165.847 828.75C165.889 828.769 165.917 828.836 165.973 828.817C166.009 828.806 166.069 828.704 166.024 829.045C166.017 829.113 166.037 829.105 166.06 829.024C166.151 828.717 166.167 828.758 166.195 828.771C166.265 828.813 166.327 828.878 166.4 828.891C166.453 828.901 166.521 828.864 166.592 828.797C166.701 828.7 166.821 828.539 166.928 828.452C167.02 828.377 167.089 828.375 167.178 828.329C167.198 828.322 167.225 828.255 167.245 828.257C167.275 828.251 167.326 828.182 167.329 828.296C167.336 828.425 167.358 828.452 167.444 828.184C167.494 828.036 167.517 828.053 167.534 828.085C167.555 828.121 167.558 828.235 167.561 828.349C167.567 828.478 167.567 828.621 167.643 828.417C167.683 828.312 167.695 828.383 167.697 828.462C167.721 828.81 167.815 828.805 167.926 828.732C168.079 828.634 168.243 828.483 168.397 828.376C168.46 828.333 168.509 828.338 168.56 828.324C168.727 828.287 168.868 828.405 168.998 828.531C169.025 828.554 169.046 828.591 169.091 828.536C169.187 828.413 169.252 828.459 169.299 828.572C169.355 828.706 169.463 828.609 169.573 828.502C169.6 828.48 169.631 828.419 169.648 828.441C169.748 828.628 169.936 828.376 170.055 828.468C170.151 828.542 170.226 828.722 170.304 828.883C170.36 829.007 170.412 829.17 170.472 829.31C170.476 829.315 170.488 829.297 170.487 829.306C170.512 829.403 170.44 829.81 170.289 830.416C170.155 830.955 170.054 831.26 170.016 831.246C169.974 831.227 169.935 831.169 169.9 831.126C169.881 831.168 169.873 831.202 169.865 831.226Z" fill="#EBC464"/>
<path d="M179.008 825.005C178.907 824.837 178.795 824.722 178.705 824.5C178.626 824.305 178.553 824.105 178.393 824.271C178.354 824.311 178.33 824.259 178.295 824.261C178.237 824.255 178.179 824.239 178.119 824.243C178.095 824.245 178.039 824.353 178.024 824.312C177.947 824.097 177.837 824.016 177.67 824.197C177.63 823.916 177.499 824.085 177.389 824.148C177.279 824.211 177.194 824.128 177.057 824.311C177.022 824.357 176.991 824.373 176.971 824.327C176.864 824.074 176.696 824.121 176.53 824.148C176.355 824.175 176.204 824.065 176.089 823.792C176.03 823.643 175.932 823.633 175.845 823.614C175.739 823.593 175.62 823.645 175.502 823.643C175.339 823.641 175.173 823.678 174.984 823.831C174.727 824.032 174.48 824.179 174.247 824.279C174.124 824.325 174.041 824.223 173.944 824.159C173.75 824.03 173.565 823.858 173.363 823.763C173.213 823.689 173.046 823.681 172.878 823.684C172.719 823.687 172.549 823.763 172.389 823.777C171.921 823.817 171.455 823.838 170.988 823.869C170.879 823.878 170.756 823.924 170.641 823.937C170.586 823.946 170.532 823.936 170.48 823.916C170.29 823.847 170.103 823.748 169.911 823.689C169.633 823.611 169.352 823.563 169.074 823.485C168.916 823.434 168.766 823.359 168.568 823.512C168.514 823.555 168.53 823.399 168.617 823.078C168.764 822.52 168.913 821.934 169.064 821.614C169.165 821.397 169.252 821.228 169.296 821.327C169.365 821.467 169.518 821.226 169.536 821.588C169.54 821.638 169.561 821.63 169.578 821.607C169.937 821.279 170.172 821.545 170.433 821.646C170.523 821.68 170.621 821.636 170.714 821.64C170.778 821.642 170.832 821.652 170.894 821.674C170.979 821.702 171.051 821.779 171.14 821.768C171.205 821.76 171.294 821.67 171.278 822.014C171.275 822.088 171.311 822.077 171.339 822.001C171.453 821.702 171.498 821.746 171.545 821.77C171.682 821.829 171.817 821.907 171.957 821.936C172.063 821.957 172.18 821.924 172.303 821.878C172.489 821.798 172.692 821.651 172.877 821.582C173.036 821.524 173.178 821.534 173.324 821.504C173.354 821.497 173.405 821.439 173.439 821.437C173.499 821.433 173.574 821.372 173.611 821.494C173.647 821.626 173.687 821.665 173.803 821.401C173.868 821.249 173.914 821.284 173.95 821.317C173.995 821.361 174.027 821.478 174.05 821.594C174.085 821.735 174.115 821.872 174.223 821.686C174.283 821.583 174.319 821.661 174.341 821.742C174.451 822.109 174.632 822.122 174.83 822.069C175.099 821.993 175.378 821.874 175.653 821.793C175.76 821.76 175.857 821.77 175.956 821.77C176.267 821.768 176.548 821.915 176.824 822.067C176.875 822.097 176.929 822.142 177.004 822.09C177.163 821.978 177.295 822.041 177.405 822.166C177.538 822.318 177.724 822.238 177.911 822.149C177.957 822.129 178.007 822.07 178.034 822.102C178.253 822.317 178.568 822.088 178.813 822.202C179.011 822.292 179.182 822.502 179.356 822.682C179.494 822.82 179.62 822.996 179.751 823.157C179.76 823.168 179.777 823.145 179.786 823.156C179.858 823.267 179.802 823.671 179.631 824.275C179.477 824.812 179.353 825.11 179.271 825.087C179.185 825.058 179.103 824.99 179.025 824.938C179.019 824.952 179.011 824.976 179.008 825.005Z" fill="#EBC464"/>
<path d="M178.63 815.729C178.577 815.576 178.514 815.466 178.477 815.255C178.442 815.069 178.408 814.873 178.291 815.048C178.262 815.09 178.252 815.044 178.232 815.042C178.193 815.038 178.16 815.03 178.119 815.035C178.104 815.039 178.059 815.148 178.053 815.108C178.02 814.902 177.953 814.831 177.834 815.026C177.828 814.754 177.731 814.931 177.655 814.993C177.579 815.064 177.532 814.995 177.429 815.177C177.399 815.228 177.383 815.241 177.372 815.205C177.322 814.968 177.208 815.026 177.101 815.059C176.983 815.101 176.894 815.003 176.842 814.741C176.817 814.6 176.759 814.594 176.7 814.588C176.637 814.577 176.552 814.637 176.477 814.644C176.377 814.654 176.259 814.706 176.123 814.87C175.943 815.088 175.773 815.253 175.613 815.365C175.534 815.421 175.484 815.327 175.421 815.271C175.304 815.16 175.196 815.006 175.077 814.925C174.984 814.866 174.88 814.87 174.769 814.888C174.669 814.907 174.551 814.994 174.445 815.018C174.137 815.09 173.84 815.143 173.532 815.215C173.456 815.232 173.376 815.288 173.3 815.314C173.264 815.325 173.225 815.321 173.196 815.309C173.079 815.252 172.969 815.172 172.845 815.129C172.673 815.072 172.493 815.049 172.321 814.992C172.221 814.957 172.134 814.893 171.994 815.052C171.96 815.097 171.976 814.941 172.054 814.619C172.195 814.056 172.329 813.473 172.452 813.15C172.533 812.931 172.6 812.76 172.62 812.851C172.651 812.988 172.77 812.738 172.759 813.087C172.754 813.136 172.77 813.123 172.787 813.1C173.04 812.751 173.173 812.992 173.332 813.077C173.389 813.103 173.458 813.056 173.517 813.052C173.558 813.046 173.591 813.055 173.629 813.068C173.681 813.089 173.719 813.157 173.78 813.143C173.825 813.133 173.885 813.031 173.85 813.372C173.843 813.441 173.869 813.429 173.896 813.353C173.991 813.051 174.017 813.094 174.045 813.106C174.134 813.15 174.211 813.222 174.303 813.237C174.371 813.244 174.444 813.212 174.529 813.151C174.657 813.056 174.797 812.897 174.918 812.816C175.024 812.748 175.113 812.747 175.211 812.703C175.232 812.696 175.268 812.63 175.288 812.632C175.328 812.626 175.379 812.558 175.392 812.673C175.404 812.797 175.43 812.829 175.521 812.567C175.571 812.42 175.604 812.438 175.625 812.474C175.65 812.517 175.658 812.626 175.671 812.741C175.682 812.875 175.693 813.009 175.777 812.816C175.823 812.707 175.84 812.783 175.851 812.863C175.894 813.213 176.012 813.215 176.143 813.145C176.32 813.054 176.513 812.906 176.695 812.812C176.769 812.77 176.827 812.776 176.892 812.768C177.093 812.739 177.263 812.86 177.431 813.001C177.462 813.029 177.493 813.066 177.544 813.007C177.66 812.886 177.734 812.933 177.795 813.053C177.87 813.189 177.993 813.098 178.122 812.993C178.149 812.971 178.19 812.911 178.208 812.933C178.336 813.123 178.553 812.884 178.701 812.978C178.817 813.055 178.916 813.242 179.017 813.411C179.093 813.537 179.165 813.702 179.238 813.848C179.247 813.859 179.254 813.835 179.263 813.846C179.302 813.948 179.236 814.351 179.075 814.956C178.936 815.49 178.83 815.799 178.778 815.779C178.722 815.754 178.673 815.694 178.629 815.65C178.641 815.676 178.633 815.7 178.63 815.729Z" fill="#EBC464"/>
<path d="M181.332 809.263C181.279 809.11 181.216 809 181.179 808.789C181.144 808.603 181.114 808.412 180.997 808.587C180.968 808.629 180.958 808.583 180.938 808.581C180.899 808.577 180.866 808.569 180.826 808.575C180.81 808.578 180.765 808.687 180.759 808.647C180.726 808.441 180.664 808.375 180.54 808.565C180.534 808.293 180.442 808.466 180.366 808.537C180.289 808.608 180.242 808.539 180.144 808.727C180.114 808.778 180.098 808.791 180.087 808.755C180.037 808.518 179.927 808.581 179.82 808.614C179.707 808.652 179.618 808.564 179.571 808.298C179.546 808.157 179.488 808.151 179.429 808.145C179.366 808.133 179.281 808.194 179.212 808.196C179.112 808.206 179.003 808.259 178.868 808.423C178.687 808.641 178.517 808.806 178.362 808.923C178.282 808.979 178.233 808.885 178.179 808.83C178.062 808.72 177.965 808.567 177.845 808.485C177.752 808.426 177.648 808.43 177.543 808.444C177.442 808.463 177.325 808.55 177.229 808.575C176.93 808.648 176.628 808.705 176.325 808.773C176.249 808.79 176.169 808.846 176.098 808.868C176.062 808.879 176.029 808.871 176 808.858C175.883 808.801 175.773 808.721 175.653 808.684C175.481 808.627 175.306 808.609 175.135 808.542C175.035 808.507 174.948 808.444 174.812 808.607C174.778 808.653 174.798 808.502 174.881 808.175C175.018 807.617 175.157 807.029 175.275 806.701C175.357 806.482 175.424 806.312 175.444 806.403C175.474 806.539 175.594 806.29 175.577 806.643C175.572 806.692 175.588 806.679 175.6 806.66C175.853 806.311 175.981 806.556 176.141 806.632C176.192 806.662 176.262 806.605 176.321 806.601C176.361 806.596 176.395 806.604 176.433 806.618C176.485 806.638 176.523 806.706 176.583 806.693C176.629 806.682 176.689 806.58 176.653 806.922C176.646 806.99 176.672 806.978 176.695 806.906C176.79 806.605 176.815 806.647 176.843 806.66C176.923 806.703 177.005 806.77 177.091 806.789C177.154 806.801 177.232 806.764 177.317 806.704C177.446 806.608 177.58 806.455 177.707 806.369C177.813 806.301 177.902 806.3 177.995 806.26C178.015 806.253 178.051 806.187 178.071 806.189C178.111 806.184 178.163 806.115 178.175 806.23C178.187 806.354 178.214 806.387 178.305 806.124C178.354 805.977 178.387 805.995 178.404 806.026C178.429 806.068 178.437 806.178 178.45 806.292C178.461 806.427 178.466 806.566 178.556 806.367C178.602 806.259 178.619 806.334 178.63 806.415C178.668 806.769 178.787 806.761 178.922 806.696C179.099 806.606 179.286 806.462 179.47 806.358C179.543 806.316 179.602 806.322 179.667 806.314C179.867 806.285 180.032 806.411 180.201 806.542C180.233 806.57 180.263 806.607 180.314 806.548C180.43 806.427 180.499 806.479 180.561 806.589C180.636 806.725 180.759 806.634 180.883 806.533C180.91 806.511 180.95 806.451 180.968 806.473C181.091 806.668 181.309 806.419 181.457 806.513C181.573 806.589 181.672 806.777 181.769 806.94C181.844 807.066 181.916 807.231 181.98 807.376C181.989 807.387 181.996 807.363 182.005 807.374C182.044 807.476 181.978 807.879 181.817 808.484C181.678 809.018 181.572 809.328 181.53 809.308C181.478 809.288 181.429 809.229 181.38 809.18C181.344 809.2 181.335 809.234 181.332 809.263Z" fill="#EBC464"/>
<path d="M183.579 802.926C183.536 802.774 183.473 802.664 183.44 802.458C183.409 802.277 183.385 802.082 183.268 802.258C183.243 802.304 183.229 802.254 183.209 802.252C183.17 802.248 183.142 802.235 183.106 802.246C183.091 802.249 183.05 802.364 183.044 802.323C183.015 802.123 182.958 802.053 182.845 802.244C182.848 801.973 182.751 802.15 182.68 802.217C182.609 802.284 182.566 802.22 182.468 802.407C182.444 802.454 182.422 802.472 182.416 802.431C182.376 802.195 182.272 802.254 182.169 802.293C182.061 802.336 181.977 802.243 181.934 801.982C181.909 801.842 181.855 801.841 181.802 801.83C181.739 801.819 181.664 801.88 181.599 801.888C181.503 801.903 181.4 801.952 181.269 802.121C181.098 802.34 180.938 802.506 180.788 802.619C180.713 802.681 180.669 802.582 180.615 802.528C180.508 802.418 180.41 802.265 180.3 802.184C180.217 802.126 180.119 802.126 180.018 802.145C179.923 802.16 179.814 802.258 179.718 802.282C179.433 802.361 179.156 802.417 178.872 802.496C178.806 802.514 178.726 802.57 178.659 802.598C178.623 802.609 178.594 802.606 178.566 802.593C178.458 802.537 178.357 802.458 178.248 802.422C178.086 802.366 177.92 802.349 177.763 802.288C177.673 802.254 177.59 802.196 177.46 802.356C177.426 802.402 177.446 802.251 177.529 801.924C177.666 801.365 177.805 800.778 177.923 800.449C178 800.225 178.067 800.055 178.087 800.146C178.113 800.277 178.233 800.027 178.206 800.38C178.201 800.429 178.217 800.416 178.229 800.397C178.472 800.047 178.586 800.286 178.741 800.366C178.787 800.39 178.856 800.343 178.912 800.334C178.946 800.333 178.985 800.337 179.014 800.35C179.06 800.374 179.093 800.437 179.154 800.423C179.195 800.408 179.254 800.315 179.214 800.651C179.207 800.72 179.228 800.712 179.251 800.631C179.342 800.324 179.367 800.366 179.395 800.379C179.475 800.422 179.542 800.493 179.63 800.502C179.693 800.513 179.76 800.476 179.836 800.414C179.954 800.318 180.089 800.164 180.206 800.077C180.302 800.008 180.387 800.002 180.479 799.962C180.5 799.955 180.531 799.894 180.551 799.886C180.592 799.88 180.643 799.812 180.646 799.925C180.658 800.05 180.679 800.087 180.771 799.815C180.821 799.667 180.848 799.69 180.864 799.721C180.89 799.763 180.893 799.877 180.901 799.986C180.912 800.12 180.918 800.259 180.997 800.06C181.043 799.951 181.06 800.027 181.062 800.106C181.095 800.455 181.203 800.456 181.33 800.381C181.497 800.289 181.675 800.145 181.844 800.034C181.907 799.991 181.966 799.997 182.027 799.983C182.217 799.954 182.368 800.073 182.517 800.202C182.549 800.23 182.575 800.262 182.62 800.207C182.727 800.085 182.795 800.137 182.853 800.251C182.918 800.386 183.036 800.29 183.16 800.189C183.187 800.167 183.223 800.102 183.24 800.133C183.353 800.327 183.561 800.077 183.695 800.165C183.807 800.236 183.891 800.427 183.978 800.589C184.044 800.714 184.106 800.878 184.175 801.019C184.179 801.024 184.191 801.006 184.196 801.011C184.23 801.108 184.159 801.515 184.007 802.122C183.873 802.66 183.767 802.97 183.72 802.946C183.668 802.925 183.63 802.867 183.585 802.823C183.59 802.873 183.587 802.902 183.579 802.926Z" fill="#EBC464"/>
<path d="M190.403 797.17C190.302 797.002 190.19 796.887 190.1 796.665C190.021 796.47 189.948 796.27 189.788 796.436C189.749 796.476 189.725 796.424 189.69 796.426C189.631 796.42 189.574 796.404 189.514 796.408C189.489 796.41 189.434 796.518 189.418 796.477C189.342 796.262 189.232 796.181 189.065 796.362C189.025 796.081 188.894 796.25 188.784 796.313C188.674 796.376 188.583 796.297 188.451 796.476C188.417 796.522 188.386 796.538 188.366 796.492C188.259 796.239 188.091 796.286 187.925 796.313C187.75 796.34 187.598 796.23 187.483 795.957C187.425 795.808 187.332 795.793 187.24 795.779C187.134 795.758 187.015 795.81 186.897 795.808C186.734 795.806 186.567 795.843 186.379 795.996C186.121 796.197 185.874 796.344 185.642 796.444C185.519 796.49 185.436 796.388 185.339 796.324C185.145 796.195 184.96 796.023 184.758 795.928C184.607 795.854 184.44 795.846 184.272 795.849C184.114 795.852 183.943 795.928 183.784 795.942C183.316 795.982 182.85 796.003 182.383 796.034C182.274 796.043 182.151 796.089 182.036 796.102C181.981 796.111 181.927 796.101 181.875 796.081C181.685 796.012 181.498 795.914 181.306 795.854C181.028 795.776 180.742 795.732 180.469 795.65C180.311 795.599 180.161 795.524 179.963 795.677C179.909 795.72 179.925 795.564 180.012 795.243C180.158 794.685 180.308 794.099 180.459 793.779C180.56 793.562 180.647 793.393 180.691 793.492C180.76 793.632 180.913 793.391 180.93 793.753C180.935 793.803 180.956 793.795 180.973 793.772C181.332 793.444 181.566 793.71 181.827 793.811C181.918 793.845 182.016 793.801 182.109 793.805C182.173 793.807 182.226 793.817 182.288 793.839C182.374 793.867 182.445 793.944 182.535 793.933C182.6 793.925 182.688 793.835 182.673 794.179C182.67 794.253 182.706 794.242 182.733 794.166C182.848 793.867 182.893 793.911 182.94 793.935C183.077 793.994 183.212 794.072 183.352 794.101C183.458 794.122 183.575 794.089 183.698 794.043C183.884 793.963 184.087 793.816 184.272 793.747C184.43 793.689 184.573 793.699 184.719 793.669C184.749 793.662 184.799 793.604 184.834 793.602C184.894 793.598 184.969 793.537 185.006 793.659C185.042 793.791 185.082 793.83 185.198 793.566C185.263 793.414 185.309 793.449 185.345 793.482C185.39 793.526 185.422 793.643 185.445 793.759C185.479 793.9 185.51 794.037 185.618 793.851C185.678 793.748 185.714 793.826 185.735 793.907C185.846 794.274 186.027 794.287 186.225 794.234C186.494 794.158 186.773 794.039 187.048 793.958C187.155 793.925 187.252 793.935 187.351 793.935C187.662 793.933 187.943 794.08 188.218 794.232C188.27 794.262 188.324 794.307 188.399 794.255C188.558 794.143 188.69 794.206 188.8 794.331C188.933 794.483 189.119 794.403 189.305 794.314C189.352 794.294 189.402 794.235 189.434 794.263C189.654 794.478 189.968 794.249 190.213 794.363C190.411 794.452 190.582 794.662 190.756 794.843C190.895 794.981 191.02 795.156 191.151 795.318C191.16 795.329 191.177 795.306 191.186 795.317C191.258 795.428 191.202 795.831 191.031 796.436C190.877 796.972 190.753 797.27 190.671 797.247C190.585 797.219 190.504 797.151 190.425 797.099C190.413 797.117 190.41 797.146 190.403 797.17Z" fill="#EBC464"/>
<path d="M192.264 786.896C192.201 786.741 192.134 786.626 192.082 786.418C192.037 786.231 191.997 786.039 191.876 786.209C191.842 786.255 191.827 786.204 191.808 786.202C191.769 786.198 191.731 786.185 191.685 786.195C191.665 786.202 191.624 786.307 191.613 786.271C191.57 786.064 191.498 785.998 191.371 786.182C191.364 785.91 191.257 786.086 191.176 786.152C191.095 786.218 191.039 786.148 190.931 786.334C190.901 786.385 190.879 786.403 190.869 786.357C190.81 786.119 190.685 786.176 190.569 786.208C190.446 786.245 190.343 786.15 190.281 785.887C190.246 785.746 190.187 785.74 190.125 785.728C190.052 785.716 189.962 785.771 189.887 785.778C189.778 785.786 189.655 785.833 189.51 785.996C189.32 786.213 189.136 786.371 188.961 786.487C188.871 786.542 188.817 786.442 188.754 786.387C188.627 786.275 188.506 786.114 188.376 786.032C188.274 785.972 188.156 785.97 188.041 785.983C187.93 786.001 187.808 786.082 187.693 786.105C187.36 786.169 187.034 786.22 186.702 786.284C186.622 786.295 186.537 786.356 186.456 786.377C186.415 786.393 186.381 786.384 186.343 786.37C186.216 786.313 186.091 786.226 185.958 786.183C185.772 786.119 185.572 786.094 185.381 786.035C185.271 785.999 185.174 785.934 185.025 786.092C184.98 786.136 185.006 785.981 185.084 785.659C185.226 785.096 185.365 784.508 185.487 784.185C185.574 783.962 185.646 783.797 185.666 783.888C185.706 784.025 185.825 783.776 185.818 784.13C185.813 784.179 185.834 784.172 185.851 784.149C186.124 783.802 186.271 784.049 186.449 784.136C186.506 784.162 186.585 784.116 186.65 784.108C186.694 784.107 186.733 784.111 186.771 784.125C186.828 784.15 186.875 784.22 186.941 784.202C186.987 784.192 187.056 784.09 187.025 784.437C187.018 784.506 187.044 784.493 187.072 784.417C187.167 784.116 187.198 784.154 187.23 784.172C187.32 784.216 187.41 784.294 187.512 784.31C187.585 784.322 187.667 784.291 187.758 784.226C187.896 784.132 188.049 783.98 188.181 783.9C188.296 783.833 188.395 783.833 188.498 783.794C188.524 783.782 188.559 783.727 188.58 783.719C188.62 783.713 188.681 783.645 188.698 783.766C188.714 783.896 188.741 783.928 188.837 783.662C188.892 783.509 188.924 783.537 188.946 783.564C188.971 783.606 188.989 783.717 189.002 783.831C189.018 783.961 189.028 784.105 189.118 783.907C189.168 783.804 189.185 783.88 189.196 783.96C189.244 784.315 189.377 784.314 189.522 784.25C189.718 784.162 189.92 784.025 190.117 783.926C190.195 783.89 190.259 783.892 190.334 783.885C190.554 783.858 190.738 783.985 190.926 784.128C190.963 784.152 190.998 784.195 191.053 784.141C191.178 784.021 191.257 784.073 191.328 784.194C191.413 784.331 191.546 784.241 191.684 784.147C191.716 784.121 191.757 784.061 191.773 784.092C191.916 784.289 192.148 784.047 192.316 784.143C192.451 784.221 192.554 784.414 192.67 784.579C192.756 784.706 192.838 784.872 192.916 785.024C192.925 785.034 192.932 785.01 192.941 785.021C192.985 785.12 192.918 785.532 192.757 786.137C192.613 786.675 192.507 786.985 192.45 786.959C192.394 786.934 192.336 786.873 192.281 786.828C192.276 786.833 192.273 786.862 192.264 786.896Z" fill="#EBC464"/>
<path d="M194.737 781.179C194.684 781.026 194.621 780.916 194.584 780.705C194.549 780.519 194.519 780.328 194.402 780.504C194.373 780.545 194.363 780.5 194.344 780.498C194.305 780.493 194.271 780.485 194.231 780.491C194.216 780.494 194.17 780.603 194.164 780.563C194.131 780.357 194.069 780.292 193.946 780.481C193.939 780.209 193.847 780.382 193.771 780.453C193.695 780.524 193.647 780.455 193.549 780.643C193.525 780.69 193.503 780.707 193.492 780.671C193.442 780.434 193.328 780.492 193.225 780.53C193.113 780.568 193.023 780.48 192.971 780.218C192.946 780.077 192.888 780.071 192.829 780.065C192.766 780.054 192.681 780.114 192.612 780.117C192.512 780.126 192.397 780.184 192.267 780.343C192.087 780.561 191.917 780.726 191.758 780.838C191.678 780.894 191.628 780.8 191.575 780.746C191.458 780.635 191.356 780.476 191.236 780.395C191.143 780.336 191.039 780.34 190.934 780.354C190.833 780.373 190.716 780.46 190.62 780.484C190.316 780.562 190.019 780.615 189.716 780.683C189.64 780.699 189.561 780.755 189.489 780.778C189.454 780.789 189.42 780.78 189.386 780.772C189.269 780.715 189.158 780.635 189.039 780.598C188.867 780.541 188.687 780.517 188.521 780.456C188.421 780.421 188.333 780.358 188.198 780.521C188.164 780.567 188.184 780.416 188.267 780.089C188.404 779.531 188.543 778.943 188.661 778.615C188.742 778.396 188.809 778.226 188.83 778.317C188.86 778.453 188.979 778.204 188.963 778.557C188.958 778.606 188.974 778.593 188.986 778.574C189.239 778.226 189.366 778.471 189.531 778.552C189.582 778.582 189.656 778.53 189.712 778.521C189.752 778.515 189.785 778.524 189.823 778.537C189.876 778.557 189.913 778.625 189.973 778.612C190.019 778.602 190.079 778.499 190.044 778.841C190.037 778.91 190.063 778.897 190.085 778.826C190.18 778.525 190.205 778.567 190.233 778.58C190.313 778.622 190.395 778.69 190.482 778.709C190.545 778.72 190.622 778.684 190.708 778.623C190.836 778.528 190.97 778.374 191.097 778.288C191.203 778.22 191.292 778.22 191.39 778.175C191.411 778.168 191.447 778.102 191.467 778.104C191.507 778.099 191.558 778.03 191.571 778.145C191.583 778.269 191.609 778.302 191.7 778.04C191.75 777.892 191.783 777.91 191.799 777.941C191.824 777.983 191.833 778.093 191.846 778.208C191.857 778.342 191.867 778.476 191.952 778.283C191.997 778.174 192.014 778.25 192.026 778.33C192.063 778.684 192.182 778.676 192.317 778.611C192.494 778.521 192.682 778.377 192.865 778.273C192.939 778.231 192.997 778.237 193.062 778.229C193.263 778.2 193.427 778.326 193.596 778.457C193.628 778.485 193.659 778.522 193.709 778.463C193.825 778.342 193.894 778.394 193.961 778.509C194.036 778.645 194.159 778.554 194.283 778.453C194.31 778.431 194.35 778.371 194.368 778.393C194.491 778.588 194.709 778.339 194.857 778.434C194.973 778.51 195.072 778.697 195.168 778.86C195.244 778.986 195.316 779.152 195.385 779.302C195.393 779.313 195.401 779.289 195.409 779.3C195.448 779.402 195.382 779.805 195.221 780.41C195.082 780.944 194.977 781.253 194.93 781.229C194.878 781.209 194.829 781.149 194.78 781.1C194.748 781.126 194.74 781.15 194.737 781.179Z" fill="#EBC464"/>
<path d="M196.925 775.597C196.871 775.444 196.809 775.334 196.771 775.123C196.736 774.937 196.706 774.746 196.585 774.916C196.556 774.958 196.546 774.912 196.527 774.91C196.488 774.906 196.45 774.892 196.414 774.903C196.399 774.907 196.353 775.016 196.347 774.976C196.314 774.77 196.247 774.699 196.124 774.888C196.123 774.612 196.021 774.794 195.945 774.855C195.864 774.921 195.817 774.852 195.715 775.034C195.685 775.085 195.663 775.103 195.657 775.062C195.608 774.825 195.493 774.883 195.386 774.916C195.264 774.953 195.18 774.86 195.128 774.598C195.103 774.458 195.044 774.452 194.981 774.44C194.914 774.423 194.829 774.484 194.754 774.491C194.65 774.495 194.536 774.552 194.396 774.711C194.211 774.923 194.036 775.093 193.872 775.199C193.792 775.255 193.738 775.156 193.685 775.101C193.568 774.991 193.466 774.832 193.341 774.745C193.249 774.686 193.14 774.685 193.03 774.703C192.925 774.717 192.807 774.804 192.701 774.827C192.388 774.894 192.088 774.942 191.775 775.008C191.699 775.025 191.619 775.081 191.538 775.102C191.502 775.114 191.463 775.11 191.431 775.091C191.313 775.035 191.199 774.949 191.079 774.912C190.903 774.85 190.723 774.826 190.547 774.764C190.447 774.729 190.355 774.66 190.215 774.818C190.177 774.859 190.201 774.713 190.284 774.386C190.431 773.829 190.58 773.242 190.702 772.919C190.784 772.701 190.86 772.531 190.88 772.622C190.911 772.758 191.036 772.505 191.014 772.863C191.009 772.911 191.025 772.898 191.037 772.88C191.299 772.532 191.427 772.777 191.59 772.868C191.642 772.898 191.716 772.846 191.776 772.842C191.816 772.837 191.849 772.845 191.887 772.859C191.94 772.879 191.981 772.952 192.038 772.933C192.083 772.923 192.147 772.826 192.108 773.163C192.101 773.231 192.127 773.219 192.149 773.147C192.244 772.846 192.275 772.884 192.307 772.902C192.391 772.95 192.473 773.018 192.56 773.036C192.627 773.053 192.705 773.017 192.79 772.957C192.923 772.867 193.062 772.708 193.194 772.628C193.3 772.56 193.393 772.565 193.491 772.52C193.512 772.513 193.548 772.447 193.573 772.445C193.613 772.439 193.669 772.376 193.682 772.491C193.694 772.615 193.72 772.648 193.816 772.381C193.872 772.229 193.899 772.251 193.92 772.288C193.945 772.33 193.954 772.44 193.966 772.555C193.977 772.689 193.983 772.828 194.072 772.63C194.122 772.526 194.135 772.597 194.146 772.677C194.184 773.031 194.307 773.029 194.442 772.964C194.629 772.874 194.821 772.736 195.004 772.632C195.078 772.59 195.141 772.601 195.206 772.593C195.411 772.57 195.581 772.691 195.749 772.832C195.78 772.86 195.811 772.897 195.866 772.844C195.982 772.722 196.061 772.775 196.122 772.895C196.197 773.031 196.324 772.945 196.454 772.84C196.48 772.818 196.521 772.758 196.543 772.785C196.666 772.98 196.893 772.742 197.041 772.836C197.161 772.918 197.26 773.106 197.357 773.269C197.433 773.395 197.499 773.564 197.573 773.71C197.582 773.721 197.589 773.697 197.598 773.708C197.637 773.81 197.561 774.212 197.4 774.817C197.256 775.355 197.145 775.66 197.093 775.639C197.037 775.614 196.988 775.555 196.944 775.511C196.941 775.54 196.938 775.569 196.925 775.597Z" fill="#EBC464"/>
<path d="M203.542 769.124C203.445 768.961 203.339 768.841 203.258 768.621C203.184 768.431 203.116 768.226 202.961 768.398C202.922 768.438 202.902 768.392 202.868 768.383C202.815 768.373 202.758 768.357 202.702 768.366C202.677 768.369 202.622 768.476 202.606 768.435C202.53 768.22 202.424 768.145 202.267 768.326C202.231 768.051 202.106 768.216 201.996 768.279C201.886 768.341 201.805 768.264 201.677 768.448C201.643 768.494 201.612 768.511 201.596 768.47C201.493 768.222 201.336 768.27 201.175 768.293C201.01 768.32 200.862 768.216 200.757 767.944C200.703 767.8 200.611 767.786 200.528 767.772C200.426 767.757 200.313 767.805 200.204 767.803C200.051 767.802 199.889 767.845 199.701 767.998C199.453 768.2 199.215 768.358 198.988 768.453C198.874 768.5 198.791 768.398 198.694 768.334C198.51 768.206 198.335 768.035 198.142 767.941C197.996 767.872 197.839 767.866 197.681 767.869C197.532 767.874 197.366 767.955 197.217 767.97C196.768 768.012 196.322 768.035 195.873 768.078C195.764 768.087 195.65 768.134 195.54 768.152C195.485 768.161 195.432 768.151 195.389 768.132C195.209 768.064 195.031 767.967 194.844 767.913C194.581 767.832 194.309 767.794 194.046 767.712C193.892 767.667 193.752 767.593 193.559 767.741C193.505 767.785 193.521 767.629 193.609 767.307C193.755 766.75 193.904 766.163 194.046 765.842C194.147 765.626 194.228 765.461 194.268 765.554C194.327 765.694 194.481 765.453 194.498 765.815C194.502 765.865 194.518 765.851 194.54 765.834C194.88 765.504 195.104 765.769 195.356 765.868C195.436 765.901 195.534 765.857 195.628 765.862C195.682 765.863 195.745 765.874 195.797 765.894C195.873 765.922 195.944 765.998 196.034 765.988C196.099 765.98 196.183 765.885 196.162 766.233C196.159 766.306 196.195 766.295 196.222 766.219C196.327 765.919 196.372 765.963 196.424 765.983C196.557 766.037 196.677 766.118 196.822 766.143C196.924 766.158 197.036 766.13 197.149 766.083C197.331 765.998 197.528 765.855 197.703 765.784C197.852 765.726 197.985 765.734 198.131 765.705C198.161 765.698 198.211 765.639 198.236 765.637C198.296 765.633 198.371 765.572 198.398 765.693C198.434 765.825 198.47 765.858 198.581 765.598C198.64 765.452 198.687 765.476 198.723 765.509C198.768 765.553 198.791 765.669 198.823 765.786C198.853 765.923 198.883 766.069 198.992 765.873C199.052 765.77 199.084 765.843 199.105 765.924C199.205 766.289 199.382 766.298 199.57 766.243C199.83 766.166 200.099 766.046 200.359 765.959C200.467 765.926 200.554 765.935 200.653 765.935C200.954 765.931 201.221 766.072 201.482 766.227C201.533 766.257 201.583 766.297 201.652 766.25C201.811 766.138 201.929 766.195 202.034 766.324C202.162 766.47 202.338 766.39 202.515 766.299C202.557 766.274 202.602 766.219 202.639 766.253C202.848 766.467 203.153 766.237 203.379 766.349C203.567 766.437 203.728 766.646 203.897 766.821C204.027 766.958 204.146 767.138 204.273 767.294C204.282 767.305 204.299 767.282 204.308 767.293C204.376 767.399 204.314 767.807 204.143 768.411C203.99 768.948 203.87 769.251 203.793 769.224C203.708 769.195 203.635 769.128 203.557 769.076C203.558 769.066 203.55 769.1 203.542 769.124Z" fill="#EBC464"/>
<path d="M205.093 759.908C205.03 759.754 204.963 759.638 204.92 759.432C204.875 759.245 204.841 759.049 204.719 759.229C204.685 759.274 204.675 759.229 204.651 759.221C204.612 759.217 204.574 759.204 204.528 759.214C204.508 759.222 204.467 759.326 204.456 759.29C204.413 759.084 204.347 759.013 204.218 759.207C204.212 758.934 204.11 759.107 204.024 759.177C203.943 759.242 203.891 759.178 203.788 759.36C203.758 759.411 203.736 759.428 203.726 759.383C203.667 759.145 203.553 759.202 203.436 759.235C203.314 759.271 203.22 759.178 203.158 758.915C203.123 758.773 203.064 758.767 203.001 758.756C202.929 758.743 202.844 758.804 202.764 758.805C202.655 758.814 202.536 758.866 202.391 759.028C202.201 759.246 202.021 759.41 201.852 759.521C201.762 759.576 201.713 759.482 201.65 759.426C201.523 759.314 201.411 759.155 201.276 759.077C201.179 759.012 201.065 759.015 200.945 759.033C200.84 759.046 200.713 759.132 200.601 759.16C200.273 759.23 199.953 759.276 199.63 759.341C199.555 759.358 199.465 759.413 199.384 759.435C199.343 759.45 199.309 759.442 199.276 759.423C199.149 759.366 199.029 759.285 198.901 759.237C198.715 759.173 198.52 759.153 198.334 759.09C198.229 759.049 198.132 758.985 197.987 759.148C197.943 759.193 197.969 759.037 198.047 758.715C198.188 758.152 198.322 757.569 198.45 757.241C198.532 757.023 198.604 756.848 198.629 756.944C198.664 757.076 198.788 756.832 198.777 757.181C198.772 757.23 198.788 757.217 198.81 757.199C199.077 756.857 199.22 757.099 199.398 757.186C199.455 757.212 199.533 757.165 199.593 757.162C199.633 757.156 199.676 757.165 199.715 757.179C199.771 757.205 199.814 757.268 199.875 757.255C199.92 757.245 199.99 757.143 199.955 757.485C199.947 757.553 199.973 757.541 200.001 757.465C200.096 757.164 200.127 757.202 200.159 757.22C200.249 757.264 200.335 757.337 200.432 757.356C200.504 757.369 200.586 757.338 200.672 757.277C200.804 757.187 200.954 757.03 201.085 756.95C201.196 756.877 201.29 756.882 201.402 756.844C201.428 756.832 201.463 756.777 201.484 756.769C201.524 756.763 201.585 756.695 201.598 756.81C201.614 756.94 201.64 756.973 201.737 756.706C201.792 756.554 201.824 756.582 201.84 756.613C201.866 756.655 201.878 756.77 201.897 756.88C201.913 757.01 201.923 757.155 202.012 756.957C202.062 756.853 202.075 756.924 202.086 757.004C202.134 757.359 202.267 757.358 202.402 757.293C202.589 757.203 202.796 757.062 202.984 756.963C203.057 756.921 203.125 756.928 203.195 756.925C203.409 756.903 203.589 757.025 203.772 757.162C203.809 757.186 203.84 757.224 203.889 757.174C204.006 757.053 204.094 757.107 204.161 757.222C204.245 757.359 204.378 757.269 204.512 757.169C204.544 757.143 204.585 757.083 204.601 757.114C204.739 757.306 204.972 757.064 205.134 757.164C205.259 757.241 205.368 757.43 205.479 757.599C205.565 757.727 205.641 757.897 205.72 758.039C205.729 758.049 205.736 758.026 205.745 758.036C205.789 758.135 205.718 758.542 205.561 759.152C205.417 759.69 205.316 759.996 205.26 759.97C205.203 759.944 205.155 759.885 205.1 759.84C205.109 759.851 205.096 759.879 205.093 759.908Z" fill="#EBC464"/>
<path d="M207.288 753.906C207.235 753.752 207.168 753.637 207.125 753.43C207.09 753.244 207.05 753.052 206.934 753.228C206.905 753.269 206.895 753.224 206.875 753.222C206.836 753.218 206.798 753.204 206.762 753.215C206.742 753.223 206.701 753.327 206.696 753.287C206.663 753.081 206.591 753.015 206.473 753.2C206.466 752.928 206.369 753.105 206.288 753.171C206.207 753.237 206.16 753.168 206.057 753.359C206.027 753.411 206.011 753.424 205.999 753.388C205.95 753.151 205.835 753.208 205.723 753.246C205.601 753.283 205.516 753.19 205.464 752.928C205.439 752.788 205.376 752.786 205.318 752.77C205.245 752.758 205.165 752.814 205.091 752.821C204.981 752.829 204.872 752.882 204.737 753.046C204.557 753.264 204.377 753.428 204.217 753.54C204.138 753.596 204.084 753.497 204.025 753.446C203.908 753.336 203.796 753.176 203.671 753.099C203.578 753.04 203.47 753.039 203.359 753.057C203.254 753.071 203.141 753.163 203.035 753.187C202.727 753.259 202.42 753.311 202.107 753.377C202.032 753.394 201.952 753.45 201.875 753.477C201.839 753.488 201.8 753.484 201.768 753.466C201.65 753.409 201.53 753.328 201.411 753.291C201.235 753.228 201.049 753.209 200.873 753.147C200.773 753.112 200.681 753.043 200.536 753.206C200.497 753.246 200.518 753.095 200.596 752.773C200.737 752.21 200.871 751.627 200.999 751.299C201.08 751.081 201.147 750.91 201.172 751.006C201.208 751.138 201.327 750.889 201.311 751.243C201.306 751.292 201.322 751.278 201.339 751.256C201.602 750.908 201.729 751.153 201.894 751.234C201.95 751.259 202.019 751.212 202.079 751.208C202.119 751.203 202.153 751.211 202.191 751.225C202.243 751.245 202.285 751.318 202.346 751.295C202.392 751.285 202.452 751.183 202.421 751.53C202.414 751.598 202.44 751.586 202.467 751.51C202.562 751.209 202.588 751.251 202.626 751.265C202.715 751.308 202.792 751.38 202.884 751.395C202.952 751.402 203.034 751.371 203.114 751.315C203.242 751.219 203.386 751.067 203.513 750.981C203.619 750.913 203.713 750.908 203.811 750.873C203.831 750.866 203.868 750.8 203.893 750.798C203.933 750.792 203.989 750.729 204.001 750.844C204.018 750.974 204.039 751.001 204.136 750.734C204.191 750.582 204.218 750.604 204.239 750.641C204.265 750.683 204.277 750.798 204.286 750.907C204.297 751.042 204.308 751.176 204.392 750.982C204.437 750.874 204.454 750.949 204.466 751.03C204.513 751.385 204.632 751.377 204.767 751.312C204.95 751.218 205.142 751.079 205.329 750.98C205.403 750.938 205.461 750.945 205.532 750.932C205.736 750.909 205.907 751.03 206.08 751.166C206.112 751.194 206.148 751.227 206.197 751.178C206.313 751.057 206.392 751.109 206.455 751.219C206.529 751.355 206.662 751.265 206.786 751.165C206.813 751.143 206.853 751.083 206.875 751.11C207.004 751.301 207.226 751.057 207.379 751.157C207.504 751.234 207.598 751.426 207.7 751.584C207.776 751.711 207.848 751.876 207.926 752.027C207.934 752.038 207.942 752.014 207.951 752.025C207.989 752.127 207.923 752.53 207.762 753.135C207.618 753.673 207.518 753.979 207.465 753.958C207.409 753.933 207.361 753.874 207.311 753.834C207.304 753.848 207.296 753.882 207.288 753.906Z" fill="#EBC464"/>
</svg>
