<svg width="199" height="696" viewBox="0 0 199 696" fill="none" xmlns="http://www.w3.org/2000/svg">
<path d="M181.737 21.6309L187.3 24.0239C187.444 24.07 187.53 24.2195 187.49 24.3691C185.747 30.7832 183.187 37.1858 180.777 44.1177C176.267 57.1071 171.866 69.4636 166.78 79.7837C166.723 79.8988 166.596 79.9621 166.47 79.9333C160.228 78.6447 154.044 76.1596 147.17 74.2728C140.244 72.3687 133.732 70.3265 127.663 68.2268C127.513 68.175 127.439 68.014 127.49 67.8644C127.634 67.4502 127.778 67.0418 127.922 66.6276" fill="#F5E3B4"/>
<path d="M186.392 22.7355L186.801 22.9541C187.002 23.0519 187.186 23.1554 187.387 23.2417C187.566 23.3223 187.71 23.4316 187.836 23.5409C187.957 23.6444 188.072 23.7595 188.124 23.9378C188.193 24.1104 188.106 24.2714 188.066 24.444L187.928 24.9445L187.79 25.4277C187.744 25.5888 187.698 25.7556 187.646 25.8592L187.347 26.5725C186.875 27.6482 186.392 28.6837 186.174 29.8629C186.116 30.1678 185.978 30.4727 185.88 30.7718L185.328 32.4286C185.247 32.6817 185.247 32.9751 185.138 33.1937C184.586 34.2809 184.143 35.3969 183.896 36.5935C183.366 37.4046 183.205 38.3307 182.946 39.2454C182.688 40.1601 182.319 41.046 182.164 41.9836C182.124 42.231 182.043 42.5071 181.934 42.7315C181.255 44.1063 180.818 45.5732 180.358 47.0402C179.863 48.6106 179.259 50.1466 178.523 51.6192C178.126 52.4016 177.827 53.2645 177.527 54.1101C177.165 55.111 176.866 56.135 176.515 57.1417C176.009 58.6029 175.531 60.064 175.134 61.5539C174.605 63.5501 174.007 65.5405 173.345 67.5136C173.006 68.5146 172.54 69.4868 172.097 70.4589C171.217 72.4033 170.262 74.3132 169.342 76.2403C169.06 76.8155 168.784 77.3966 168.513 77.9776L167.587 79.9507C167.478 80.1751 167.34 80.3591 167.19 80.5087C167.023 80.6583 166.782 80.7561 166.569 80.687L165.056 80.4857L163.946 80.2671C163.209 80.1118 162.467 79.9507 161.737 79.7666C157.405 78.6621 153.2 77.2642 148.977 76.131C147.959 75.8549 146.947 75.6363 145.906 75.3832C145.388 75.2566 144.876 75.1128 144.364 74.9632C142.465 74.3995 140.584 73.8012 138.692 73.2144C135.988 72.3745 133.284 71.5289 130.604 70.6143L129.2 70.131L127.29 69.4925C126.893 69.1876 126.375 69.0265 126.226 68.4916C126.209 68.434 126.18 68.3823 126.186 68.3247L126.22 68.1349L126.289 67.761L126.416 66.9959C126.537 66.225 126.709 66.041 126.91 66.3919C127.089 66.6737 127.273 66.8923 127.422 67.1224C127.572 67.3468 127.664 67.5769 127.745 67.8243C127.791 67.9393 127.969 68.0198 128.136 68.0083C128.297 68.0141 128.435 68.0256 128.561 68.0429C128.723 68.0716 128.843 68.1061 129.016 68.1924C129.867 68.5894 130.868 68.6929 131.651 69.2567C131.76 69.3372 131.944 69.3832 132.094 69.412C134.809 69.9642 137.386 70.9594 140.021 71.7878C140.884 72.0582 141.764 72.2653 142.632 72.5011L144.324 72.9843C145.14 73.2259 145.946 73.5021 146.768 73.7034C147.39 73.853 148.017 73.9393 148.5 74.3707C148.603 74.4627 148.926 74.5433 149.064 74.5088C149.576 74.3822 150.076 74.5663 150.582 74.7274L154.667 76.0792C155.673 76.4014 156.697 76.689 157.721 76.9479C159.309 77.3505 160.908 77.6842 162.496 78.0294L164.481 78.4723L165.476 78.6794C165.579 78.7024 165.579 78.6966 165.631 78.7082L165.746 78.7254L165.971 78.7542C166.143 78.8059 166.12 78.6621 166.149 78.5931L166.155 78.5701L166.183 78.4781L166.339 78.1329C166.454 77.8855 166.58 77.6439 166.73 77.4368C167.081 76.9306 167.294 76.5107 167.322 75.9066C167.34 75.5672 167.558 75.1243 167.742 74.7619C167.984 74.2959 168.277 73.8645 168.565 73.433C168.904 72.9153 169.232 72.4321 169.336 71.759C169.393 71.3966 169.635 70.9709 169.848 70.6258C170.791 69.1013 171.453 67.4331 172.04 65.7303C172.839 63.4293 173.57 61.1052 174.306 58.7812C174.599 57.8723 174.916 56.9691 175.232 56.066C176.199 53.2472 177.257 50.4687 178.316 47.6845C178.523 47.138 178.741 46.5857 178.885 46.0277C179.213 44.7334 179.673 43.4908 180.191 42.254C180.818 40.7699 181.272 39.2339 181.715 37.7037C181.819 37.3471 181.894 36.9731 182.038 36.6395C183.033 34.2809 183.671 31.8073 184.505 29.4257L186.185 24.7604L186.11 24.6971L186.064 24.6569L186.041 24.6338C186.036 24.6281 186.03 24.6223 185.978 24.5993L185.501 24.3577L184.546 23.8687L182.636 22.8851C182.544 22.839 182.434 22.816 182.342 22.7643C181.537 22.3386 181.41 21.9129 182.009 21.6022C182.538 21.3319 183.194 21.3204 183.942 21.654C184.77 22.0222 185.581 22.4133 186.398 22.793L186.392 22.7355Z" fill="#EBC464"/>
<path d="M183.17 20.0205C180.058 28.7644 176.825 39.1076 172.149 49.0078C168.219 57.326 164.417 64.3327 160.402 71.253C160.338 71.3681 159.384 71.115 159.257 71.0804C146.216 67.278 133.169 63.4755 120.128 59.6731C119.967 59.6271 119.881 59.4545 119.944 59.2992C120.571 57.7172 121.198 56.1352 121.825 54.5533" fill="#F5E3B4"/>
<path d="M182.464 24.5481C181.946 25.6929 181.457 26.8664 180.893 27.9881C180.393 28.9891 179.892 29.967 179.668 31.0888C179.61 31.3764 179.467 31.664 179.369 31.9517L178.822 33.5279C178.742 33.7695 178.742 34.0514 178.632 34.2585C178.086 35.2882 177.649 36.3524 177.401 37.4971C176.878 38.2622 176.705 39.1481 176.441 40.0225C176.17 40.8912 175.791 41.7311 175.601 42.6285C175.549 42.8643 175.463 43.1232 175.342 43.336C174.611 44.6189 174.088 45.988 173.524 47.3571C172.909 48.8182 172.184 50.2219 171.315 51.545C170.855 52.2525 170.475 53.0349 170.096 53.8057C169.641 54.7204 169.244 55.6581 168.796 56.5785C168.146 57.9073 167.524 59.2419 166.972 60.6168C166.236 62.4519 165.43 64.2697 164.567 66.0645C164.13 66.9734 163.566 67.842 163.031 68.7049L161.26 71.5525C160.995 71.7883 160.788 72.1795 160.38 72.1335C160.006 72.1507 159.597 72.0414 159.212 71.9436L157.676 71.4547C156.22 70.9944 154.742 70.586 153.264 70.1891C151.883 69.8209 150.491 69.5103 149.11 69.1479L136.84 65.9034L133.883 65.1671C133.394 65.0405 132.899 64.8967 132.416 64.7529L127.015 63.0904L123.132 61.9456L121.187 61.3761L120.468 61.1633C120.163 61.0655 119.83 60.9965 119.553 60.8699C119.277 60.7433 119.082 60.5708 118.944 60.3982C118.788 60.2256 118.65 59.9035 118.633 59.7021C118.593 59.449 118.598 59.1269 118.731 58.7817L119.139 57.7635L119.582 56.6417C119.858 55.9284 120.111 55.2094 120.319 54.473C120.434 54.0588 120.606 53.9783 120.802 54.2314C121.147 54.6629 121.527 55.054 121.521 55.8364C121.515 56.3714 121.486 56.8546 121.193 57.4011C121.084 57.5967 120.997 57.8095 120.917 58.0224L120.721 58.5516C120.669 58.6954 120.606 58.8392 120.526 58.9888C120.491 59.0636 120.416 59.1441 120.405 59.2362C120.388 59.3282 120.422 59.4202 120.462 59.4663C120.514 59.5238 120.669 59.5583 120.796 59.5756L121.199 59.6331C121.325 59.6504 121.435 59.6676 121.613 59.7079C121.935 59.7769 122.257 59.846 122.579 59.9265C123.224 60.0818 123.856 60.2601 124.489 60.45C125.755 60.8296 127.009 61.2496 128.274 61.635C129.103 61.8881 129.948 62.0837 130.782 62.3081C131.323 62.4576 131.864 62.6129 132.399 62.774C133.181 63.0099 133.952 63.286 134.734 63.4873C135.327 63.6427 135.925 63.7232 136.38 64.1489C136.478 64.2409 136.788 64.3157 136.915 64.2812C137.404 64.1489 137.887 64.3215 138.37 64.471C139.682 64.8737 140.982 65.2994 142.299 65.6791C143.271 65.961 144.261 66.2026 145.244 66.4269C146.78 66.7721 148.316 67.0654 149.852 67.4163C151.135 67.7097 152.401 68.0664 153.678 68.3885C153.971 68.4633 154.276 68.4921 154.569 68.5726C155.11 68.7164 155.691 68.82 156.169 69.0558C156.698 69.3147 157.129 69.4643 157.71 69.3895C158.038 69.3492 158.493 69.493 158.861 69.6253C159.097 69.7116 159.333 69.8094 159.557 69.913C159.58 69.959 159.626 70.0165 159.695 70.074C159.735 70.1028 159.793 70.1603 159.845 70.1546C159.879 70.1431 159.914 70.1143 159.948 70.074C159.977 70.0395 160 69.9993 160.011 69.9532C160.006 69.9475 160.052 69.8554 160.069 69.7922C160.092 69.7231 160.115 69.6541 160.138 69.5793C160.224 69.2399 160.506 68.8603 160.753 68.5554C161.841 67.2208 162.663 65.7078 163.423 64.1661C164.452 62.0722 165.425 59.9552 166.397 57.8383C166.776 57.0099 167.191 56.1931 167.587 55.3704C168.819 52.8105 170.136 50.2852 171.401 47.754C171.649 47.2535 171.913 46.7588 172.086 46.2353C172.494 45.033 173.018 43.894 173.582 42.755C174.255 41.3859 174.732 39.942 175.181 38.4923C175.284 38.1529 175.359 37.802 175.503 37.4856C176.498 35.2594 177.102 32.8893 177.959 30.6113C178.655 28.7647 179.426 26.9469 180.18 25.1176C180.761 23.7082 181.376 22.3103 181.98 20.9067C182.021 20.8146 182.032 20.7053 182.078 20.6191C182.441 19.8252 182.849 19.6814 183.2 20.2394C183.511 20.7341 183.574 21.3611 183.304 22.0975C183.01 22.9086 182.688 23.7082 182.377 24.5193L182.464 24.5481Z" fill="#EBC464"/>
<path d="M141.833 4.42509L183.763 17.3972C183.936 17.4489 184.011 17.656 183.919 17.8114C178.897 26.4 175.497 33.5734 173.294 38.6185C171.913 41.7766 171.303 43.4104 169.744 46.8964C166.166 54.9098 162.749 61.1513 160.385 65.2299C160.327 65.3335 160.206 65.3853 160.086 65.3565C151.566 63.6019 144.709 61.7669 140.021 60.4035C130.04 57.5157 118.874 53.2991 115.624 52.0508C115.169 51.8724 115.008 51.3144 115.302 50.9232C118.08 47.2703 129.194 31.7211 133.129 25.3242C135.925 20.7739 139.284 14.0319 141.47 4.62644C141.511 4.47112 141.672 4.37332 141.833 4.42509Z" fill="#F5E3B4"/>
<path d="M150.364 6.20218C152.636 7.0248 154.943 7.82442 157.181 8.6873C159.177 9.45815 161.133 10.2175 163.267 10.7065C163.819 10.833 164.389 11.0459 164.952 11.2184C165.976 11.5291 167 11.8397 168.019 12.1504C168.485 12.2884 169.002 12.3459 169.422 12.5128C171.499 13.3239 173.599 14.0199 175.779 14.5089C177.372 15.2337 179.052 15.5846 180.738 16.0333C181.152 16.1484 181.566 16.2635 181.98 16.3785L183.441 16.81C183.729 16.8962 183.965 17.017 184.172 17.1379C184.39 17.2241 184.54 17.5865 184.385 17.7936C184.166 18.2654 183.953 18.7486 183.752 19.2548C183.694 19.3871 183.643 19.5252 183.585 19.6632C183.528 19.8013 183.476 19.8876 183.412 20.0026C183.297 20.2212 183.171 20.4341 183.044 20.6239C181.497 22.9767 180.22 25.4791 178.972 28.0102C177.631 30.7255 176.262 33.4119 174.824 36.0639C174.059 37.4732 173.391 39.0207 172.747 40.5336C171.976 42.3399 171.263 44.1635 170.504 45.9756C169.376 48.5987 168.26 51.1989 167.144 53.8048C165.66 57.2966 164.021 60.7597 162.237 64.148C162.001 64.5909 161.846 64.8786 161.386 65.6782L161.092 66.0118L160.949 66.1786C160.897 66.2247 160.834 66.2592 160.765 66.2937C160.483 66.426 160.224 66.4375 159.902 66.403C159.746 66.38 159.585 66.3397 159.424 66.3052L158.999 66.2132L158.452 66.0924C157.727 65.9198 157.002 65.7472 156.283 65.5746C152.464 64.6657 148.678 63.6302 144.893 62.5775C142.051 61.7837 139.204 60.9956 136.374 60.1499C133.733 59.3618 131.093 58.591 128.47 57.7396C126.318 57.0378 124.178 56.313 122.044 55.5709L118.845 54.4434L117.252 53.8681L115.308 53.1548C115.003 52.9534 114.617 52.8096 114.416 52.5335C114.192 52.2631 114.042 51.9007 114.008 51.5383C113.979 51.1701 114.025 50.8307 114.272 50.5201L114.87 49.5652C114.986 49.3753 115.037 49.3121 115.106 49.2143L115.302 48.9381L115.699 48.3859L116.487 47.2814L119.605 42.8289C120.721 41.2239 121.797 39.5959 122.89 37.9795C123.436 37.1741 124 36.3687 124.558 35.5749C126.64 32.6181 128.74 29.6612 130.707 26.6526C133.555 22.39 135.833 17.8339 137.605 13.042C138.617 10.3325 139.474 7.55979 139.992 4.71802C140.015 4.62022 140.032 4.52819 140.049 4.44765C140.061 4.40738 140.073 4.36711 140.078 4.33259C140.067 4.37286 140.142 4.07373 140.234 3.90691C140.642 3.17058 141.332 3.01525 141.706 3.03826C142.103 3.06702 142.241 3.19358 142.195 3.2281C142.155 3.27412 141.919 3.2396 141.551 3.35466C141.24 3.46395 141.016 3.67105 140.884 3.90691C140.815 4.02771 140.774 4.15427 140.757 4.28082C140.746 4.33835 140.74 4.41889 140.751 4.4534L140.78 4.51092C140.861 4.67199 140.941 4.83882 141.01 5.03441C141.137 5.41983 141.229 5.91455 141.189 6.63363C141.131 7.61157 141.033 8.51473 140.625 9.64224C140.021 11.2645 139.641 13.0708 138.761 14.5607C138.634 14.7678 138.519 15.1014 138.433 15.3718C137.639 17.7994 136.598 20.1465 135.373 22.4015C134.159 24.6622 132.726 26.7964 131.306 28.9134C130.391 30.3055 129.471 31.6976 128.556 33.0898C127.952 33.9872 127.342 34.8788 126.721 35.7647C125.818 37.0476 124.88 38.3131 123.994 39.6017C123.327 40.5796 122.74 41.5691 121.889 42.2709C121.71 42.4205 121.365 42.9324 121.29 43.151C121.014 43.9852 120.427 44.7618 119.846 45.5499L117.494 48.7368L116.309 50.3245L115.871 50.8998C115.71 51.0724 115.687 51.3427 115.82 51.5326C115.935 51.7167 116.171 51.7512 116.355 51.8317L118.541 52.6198C119.317 52.8844 120.1 53.149 120.876 53.4137C123.741 54.3571 126.617 55.2257 129.499 56.1059C131.91 56.8479 134.314 57.6188 136.736 58.3206C137.294 58.4817 137.864 58.5967 138.422 58.7578C139.451 59.0512 140.544 59.3101 141.488 59.6725C142.535 60.0752 143.369 60.3283 144.427 60.3743C145.02 60.4031 145.906 60.6504 146.619 60.8633C147.539 61.1336 148.443 61.4615 149.334 61.7722C150.404 62.1518 151.405 62.5085 152.63 62.6178C153.286 62.6753 154.155 62.9399 154.862 63.1643C155.863 63.4864 156.876 63.7683 157.9 64.0272C158.412 64.1537 158.929 64.2803 159.441 64.3896L159.787 64.4701C159.925 64.5104 159.965 64.3436 160.028 64.2573L160.776 62.9112L161.61 61.3465C163.681 57.3714 165.568 53.3159 167.351 49.2143C168.053 47.6093 168.761 45.9986 169.434 44.3648C170.498 41.8279 171.556 39.3141 172.695 36.7887C173.84 34.2691 175.06 31.7897 176.325 29.3333C176.82 28.3726 177.349 27.4005 177.792 26.4283C178.828 24.179 180.024 22.0333 181.307 19.9279L182.147 18.53C182.204 18.4264 182.302 18.2769 182.325 18.2078C182.314 18.133 182.21 18.1503 182.153 18.1273L182.055 18.11L182.032 18.1043L181.917 18.0698L181.646 17.995L180.576 17.6959L178.431 17.1091C177.769 16.9308 177.09 16.7812 176.458 16.5626C171.994 15.0382 167.432 13.8761 162.951 12.438C159.326 11.276 155.737 10.0219 152.141 8.7851C149.369 7.81866 146.607 6.85223 143.835 5.8858C143.651 5.82252 143.455 5.78225 143.277 5.71897C141.706 5.15522 141.298 4.672 142.207 4.41313C143.012 4.18303 144.145 4.25206 145.583 4.70652L150.329 6.25396L150.364 6.20218Z" fill="#EBC464"/>
<path d="M143.403 26.2795C143.38 26.8145 143.437 27.3437 143.483 27.896C143.524 28.3792 143.621 28.9027 144.047 29.2018C144.151 29.2766 144.214 29.3974 144.295 29.5009C144.456 29.6735 144.617 29.8403 144.812 29.9669C144.893 30.0359 145.048 30.0072 145.106 30.0877C145.255 30.2833 145.451 30.4444 145.681 30.5076C145.796 30.5479 145.911 30.5767 146.026 30.5997C146.147 30.6169 146.273 30.5824 146.394 30.5537C146.567 30.686 146.757 30.7262 146.947 30.6745C147.136 30.6285 147.32 30.5939 147.499 30.5019C147.677 30.4213 147.861 30.3811 148.039 30.3121C148.212 30.2258 148.385 30.128 148.523 29.9899C148.597 29.9209 148.69 29.8461 148.793 29.8288C149.109 29.7771 149.403 29.6563 149.662 29.4779C149.932 29.3226 150.162 29.0925 150.398 28.8854C150.887 28.4137 151.405 27.9938 151.98 27.5738C152.302 27.361 152.498 27.0216 152.688 26.6937C152.889 26.2967 153.015 25.8653 153.061 25.4511C153.119 25.152 153.073 24.8644 152.981 24.6228C152.872 24.3811 152.676 24.1625 152.446 24.013C151.83 23.5988 151.031 23.501 150.703 23.7253C150.519 23.8174 150.248 23.8979 149.99 24.0935C149.742 24.2891 149.506 24.548 149.351 24.8298C149.196 25.1002 149.132 25.4281 149.178 25.5892C149.201 25.664 149.23 25.7387 149.282 25.7963C149.334 25.8538 149.391 25.9056 149.512 25.9746C149.725 26.1069 150.024 26.222 150.346 26.3313C150.939 26.5384 151.612 26.6879 152.256 26.9468C153.211 27.3207 154.143 27.8154 155.012 28.4022C155.874 28.9775 156.726 29.7195 157.41 30.5249C157.738 30.8988 158.055 31.2325 158.319 31.4798L158.688 31.8365C159.119 32.2449 159.746 32.6246 160.408 32.8432C161.362 33.1596 162.444 33.2056 163.543 33.1136C164.164 33.0618 164.808 32.987 165.395 32.6821C165.556 32.6016 165.648 32.7109 165.648 32.9928C165.648 33.4817 165.671 33.988 165.407 34.3446C165.222 34.5862 165.033 34.7646 164.739 34.7531C164.314 34.7185 163.894 35.0004 163.451 34.7473C163.387 34.7128 163.307 34.73 163.238 34.7531C162.018 35.1615 160.689 34.8623 159.516 34.3849C159.13 34.2296 158.728 34.103 158.354 33.8959C158.112 33.7694 157.876 33.614 157.664 33.4357C157.347 33.1768 157.088 32.8547 156.824 32.5728C156.622 32.36 156.381 32.1931 156.45 31.8192C156.467 31.7387 156.363 31.6351 156.277 31.6351C155.949 31.6409 155.834 31.4511 155.696 31.2785C155.328 30.8125 154.931 30.3638 154.459 29.9842C154.108 29.708 153.723 29.4779 153.32 29.2823C152.693 28.9832 152.026 28.7991 151.376 28.5978C150.812 28.4194 150.254 28.2354 149.696 28.057C149.558 28.0168 149.403 28.011 149.253 27.9535C148.994 27.8557 148.649 27.7579 148.413 27.4933C148.293 27.3495 148.149 27.1942 148.005 27.0618C147.867 26.918 147.689 26.8145 147.487 26.6707C147.234 26.5154 147.108 26.1012 147.079 25.7503C147.044 25.3188 147.182 24.9679 147.332 24.6688C147.516 24.3006 147.74 24.0647 147.763 23.6391C147.781 23.4089 147.988 23.1904 148.183 23.0523C148.609 22.7417 149.012 22.4598 149.472 22.2239C149.921 21.9881 150.467 21.7982 151.037 21.7982C151.796 21.7867 152.48 22.0341 153.085 22.4137C153.677 22.7992 154.223 23.3399 154.54 24.1568C154.672 24.4904 154.672 24.8183 154.701 25.1577C154.695 25.4741 154.643 25.7618 154.592 26.0609C154.137 27.7522 153.113 28.8797 151.991 29.8116C151.773 29.9957 151.537 30.1683 151.341 30.3753C151.123 30.6285 150.864 30.8413 150.576 31.0081C150.3 31.1922 149.99 31.3245 149.667 31.4396C149.294 31.5949 148.891 31.7099 148.517 31.8825C148.109 31.9976 147.723 32.1874 147.263 32.2507C147.056 32.2852 146.843 32.3715 146.624 32.3427C145.871 32.2392 145.094 32.0896 144.387 31.7329C143.685 31.382 143.092 30.8816 142.684 30.289C142.022 29.3284 141.752 28.2584 141.62 27.2459C141.522 26.4578 141.562 25.6755 141.654 24.9276C141.66 24.8759 141.643 24.8241 141.648 24.7781C141.729 24.3466 142.074 24.2431 142.586 24.4502C143.046 24.6343 143.299 24.8701 143.305 25.198C143.305 25.5604 143.311 25.9228 143.34 26.2852L143.403 26.2795Z" fill="#EBC464"/>
<path d="M138.174 39.5155C138.467 39.6363 138.761 39.7226 139.037 39.9009C139.284 40.0562 139.52 40.2231 139.796 40.0793C139.865 40.0447 139.934 40.085 140.003 40.0908C140.13 40.1023 140.256 40.1138 140.389 40.1138C140.446 40.1138 140.521 40.0217 140.567 40.062C140.814 40.2461 141.067 40.3266 141.355 40.1886C141.528 40.4359 141.752 40.3094 141.971 40.2748C142.189 40.2461 142.391 40.3209 142.626 40.2001C142.69 40.1655 142.753 40.1598 142.805 40.2058C143.104 40.4474 143.443 40.4589 143.788 40.4934C144.157 40.528 144.496 40.6775 144.789 40.9709C144.945 41.1262 145.135 41.1837 145.324 41.2355C145.549 41.3045 145.79 41.3333 146.026 41.3908C146.36 41.4829 146.693 41.5807 147.085 41.5922C147.597 41.621 148.103 41.7302 148.575 41.9028C148.81 41.9949 148.977 42.1962 149.15 42.3688C149.501 42.7139 149.8 43.0993 150.134 43.4272C150.381 43.6746 150.663 43.876 150.945 44.06C151.209 44.2269 151.508 44.3477 151.773 44.48C152.561 44.8999 153.332 45.1818 154.114 45.2681C154.304 45.2911 154.5 45.2566 154.69 45.2623C154.782 45.2681 154.879 45.2738 154.977 45.2911C155.334 45.3544 155.696 45.4176 156.059 45.4234C156.588 45.4291 157.111 45.3486 157.641 45.2566C157.94 45.2048 158.25 45.1588 158.492 44.9172C158.561 44.8482 158.624 44.9632 158.682 45.2393C158.774 45.711 158.883 46.2057 158.803 46.5221C158.751 46.7407 158.682 46.9133 158.521 46.8846C158.291 46.8385 158.124 47.1089 157.859 46.8615C157.825 46.827 157.784 46.85 157.756 46.8731C157.203 47.3103 156.536 47.2067 155.915 47.1722C155.714 47.1607 155.506 47.2067 155.299 47.2125C155.167 47.2182 155.029 47.2009 154.897 47.1837C154.701 47.1492 154.517 47.0859 154.321 47.0686C154.178 47.0571 154.011 47.1204 153.942 46.8155C153.93 46.7522 153.85 46.7522 153.809 46.8155C153.648 47.0456 153.533 46.9766 153.418 46.9363C153.102 46.8328 152.808 46.6602 152.504 46.5394C152.279 46.4474 152.049 46.3611 151.796 46.3093C151.422 46.2058 151.014 46.131 150.651 45.9814C150.341 45.8606 150.093 45.6765 149.811 45.527C149.748 45.4924 149.662 45.4924 149.599 45.4522C149.489 45.3774 149.34 45.3429 149.305 45.1933C149.265 45.0322 149.202 44.9517 148.96 45.0495C148.822 45.107 148.747 45.0265 148.695 44.9517C148.626 44.8597 148.598 44.7216 148.569 44.5835C148.534 44.4224 148.506 44.2499 148.293 44.3074C148.178 44.3362 148.132 44.2326 148.103 44.1291C147.982 43.6804 147.66 43.4848 147.309 43.3525C147.073 43.2662 146.831 43.1856 146.59 43.1339C146.354 43.0706 146.112 43.0246 145.877 42.9901C145.692 42.9498 145.526 42.8865 145.347 42.852C145.209 42.8175 145.077 42.7772 144.945 42.7312C144.795 42.6852 144.651 42.6391 144.507 42.5816L143.639 42.248C143.524 42.202 143.409 42.1502 143.282 42.1732C142.983 42.2307 142.73 42.1387 142.471 42.0064C142.166 41.8453 141.821 41.8856 141.482 41.9373C141.401 41.9488 141.315 41.9949 141.246 41.9661C140.74 41.759 140.193 41.9316 139.675 41.8395C139.255 41.7648 138.841 41.6037 138.415 41.4771C138.088 41.3678 137.754 41.2585 137.42 41.155C137.397 41.1492 137.374 41.1722 137.351 41.1607C137.161 41.0917 137.087 40.7523 137.173 40.2288C137.248 39.7686 137.374 39.4982 137.558 39.504C137.76 39.5155 137.961 39.5558 138.162 39.5845L138.174 39.5155Z" fill="#EBC464"/>
<path d="M146.361 9.87856C146.395 9.55066 146.476 9.20551 146.596 8.88336C146.711 8.59573 146.832 8.33111 146.694 8.04924C146.654 7.97445 146.694 7.89967 146.694 7.82489C146.694 7.68683 146.7 7.54876 146.694 7.4107C146.694 7.34742 146.591 7.27264 146.637 7.21512C146.844 6.94474 146.93 6.68012 146.803 6.35798C147.051 6.1854 146.982 5.94379 146.976 5.70218C146.982 5.46057 147.08 5.25348 147.034 4.98311C147.016 4.90833 147.034 4.83929 147.085 4.79327C147.252 4.66096 147.344 4.49989 147.436 4.33306C147.534 4.17199 147.609 3.99942 147.689 3.82684C147.77 3.63701 147.891 3.47018 148.052 3.33787C148.207 3.19981 148.38 3.08475 148.587 3.00422C148.817 2.92944 148.961 2.77987 149.116 2.6303C149.289 2.44622 149.461 2.26214 149.645 2.08381C149.916 1.8307 150.203 1.60059 150.445 1.26694C150.617 1.06559 150.807 0.858503 151.009 0.67442C151.221 0.507595 151.44 0.329267 151.682 0.191205C151.935 0.0646478 152.217 0.0301306 152.51 0.0186254C153.074 -0.0389005 153.701 0.0473953 154.224 0.133684C154.633 0.208468 155.035 0.248728 155.438 0.323512C155.628 0.346522 155.818 0.386792 156.013 0.415555C156.209 0.444318 156.399 0.478831 156.589 0.547862C157.693 0.904523 158.786 1.54307 159.614 2.54977C159.793 2.80288 160.034 3.02723 160.19 3.30336C160.27 3.44142 160.334 3.59098 160.385 3.7348C160.5 4.00517 160.535 4.29855 160.598 4.58618C160.667 4.86806 160.673 5.15569 160.696 5.43181C160.765 6.23717 160.684 7.01377 160.523 7.7501C160.437 8.17004 160.253 8.53821 160.288 8.99266C160.293 9.11922 160.161 9.11347 159.914 8.9754C159.482 8.7453 159.028 8.5267 158.803 8.27934C158.654 8.10676 158.539 7.9687 158.648 7.85365C158.815 7.68108 158.648 7.43371 158.959 7.28989C159.005 7.26688 158.999 7.22662 158.987 7.1921C158.936 7.03103 158.907 6.87571 158.907 6.72614C158.895 6.57657 158.884 6.43276 158.895 6.28895C158.901 6.14513 158.936 5.99556 158.941 5.85175V5.41455C158.947 5.21897 158.838 5.04639 158.78 4.87381C158.734 4.75876 158.717 4.63796 158.677 4.52866C158.614 4.36759 158.591 4.1835 158.504 4.03394C158.429 3.91888 158.28 3.87286 158.458 3.61399C158.493 3.56222 158.441 3.5047 158.372 3.52196C158.107 3.58523 158.073 3.48744 158.004 3.40115L157.751 3.03873C157.653 2.92943 157.549 2.82014 157.44 2.72235C157.279 2.57278 157.055 2.49224 156.853 2.4117C156.508 2.31966 156.151 2.2909 155.818 2.25063C155.542 2.21036 155.277 2.14708 155.012 2.12407C154.949 2.12407 154.88 2.16434 154.817 2.15284C154.708 2.14133 154.581 2.1701 154.495 2.0723C154.397 1.95725 154.305 1.92274 154.173 2.13558C154.098 2.25063 154.017 2.24488 153.942 2.21612C153.85 2.1816 153.758 2.08956 153.666 1.99752C153.563 1.89972 153.448 1.79618 153.35 1.98026C153.304 2.0723 153.206 2.03778 153.12 1.98601C152.746 1.76166 152.372 1.88822 152.067 2.08956C151.854 2.22762 151.653 2.37144 151.469 2.54977C151.279 2.71084 151.106 2.88917 150.945 3.0675C150.807 3.19981 150.669 3.31486 150.543 3.44142C150.117 3.81534 149.714 4.18925 149.3 4.58043C149.225 4.66097 149.151 4.74726 149.133 4.86806C149.116 5.00612 149.07 5.12117 149.001 5.22472C148.949 5.33402 148.874 5.43756 148.782 5.5296C148.547 5.75395 148.558 6.09336 148.575 6.404C148.575 6.47878 148.61 6.55356 148.575 6.61684C148.466 6.83544 148.46 7.0828 148.454 7.31866C148.449 7.56027 148.518 7.80763 148.477 8.04349C148.466 8.14128 148.443 8.23907 148.42 8.33687C148.408 8.44041 148.397 8.53821 148.38 8.64175L148.265 9.27454C148.23 9.61395 148.19 9.96485 148.155 10.31C148.155 10.333 148.178 10.3503 148.178 10.3733C148.144 10.5746 147.833 10.7357 147.31 10.776C146.849 10.8105 146.556 10.7299 146.522 10.5344C146.487 10.3158 146.476 10.0914 146.458 9.87281L146.361 9.87856Z" fill="#EBC464"/>
<path d="M160.368 13.4974C160.391 13.3593 160.42 13.2213 160.443 13.0774C160.483 12.9336 160.529 12.7956 160.598 12.6575C160.719 12.4101 160.845 12.18 160.667 11.9614C160.621 11.9039 160.644 11.8349 160.65 11.7716C160.65 11.6566 160.656 11.5415 160.644 11.4264C160.638 11.3747 160.54 11.3172 160.575 11.2654C160.753 11.0295 160.776 10.8052 160.644 10.5463C160.891 10.3852 160.765 10.1896 160.725 9.9883C160.684 9.78696 160.765 9.60863 160.661 9.37853C160.632 9.31525 160.633 9.25773 160.679 9.21171C160.949 8.96435 160.96 8.64795 161.064 8.34306C161.156 8.01516 161.352 7.71603 161.714 7.55496C161.898 7.46292 161.984 7.30759 162.082 7.16378C162.214 7.00271 162.295 6.79562 162.416 6.62304C162.583 6.35843 162.778 6.12832 162.893 5.78316C162.974 5.55306 163.095 5.36322 163.21 5.16188C163.33 4.96054 163.469 4.77071 163.63 4.60388C163.791 4.43706 164.021 4.35652 164.239 4.28749C164.458 4.2127 164.682 4.14943 164.901 4.08615C165.131 4.04013 165.35 3.99411 165.568 3.93083C165.902 3.8618 166.212 3.72949 166.552 3.6432C166.707 3.60293 166.863 3.5339 167.024 3.48213C167.19 3.43611 167.363 3.39584 167.536 3.36708C168.537 3.24052 169.52 3.34406 170.498 3.61444C170.728 3.68347 170.981 3.72374 171.217 3.81003C171.332 3.85605 171.447 3.91357 171.551 3.97685C171.936 4.24147 172.299 4.53485 172.638 4.86275C173.127 5.32295 173.587 5.84644 173.909 6.46772C174.088 6.82438 174.209 7.18679 174.473 7.51469C174.554 7.60673 174.439 7.67576 174.163 7.71603C173.685 7.79082 173.19 7.89436 172.874 7.85985C172.655 7.83684 172.506 7.81382 172.517 7.68727C172.535 7.49743 172.281 7.44566 172.443 7.16954C172.466 7.12927 172.437 7.10626 172.408 7.09475C171.879 6.86465 171.729 6.4217 171.367 6.07079C171.252 5.96149 171.091 5.90972 170.953 5.82918C170.861 5.78316 170.774 5.72564 170.688 5.66811C170.567 5.58182 170.452 5.47252 170.308 5.42075C170.199 5.38623 170.061 5.42651 170.078 5.12162C170.084 5.05834 170.021 5.04683 169.975 5.0986C169.796 5.31145 169.727 5.25392 169.641 5.21365C169.411 5.11011 169.181 4.98931 168.928 4.93753C168.744 4.89151 168.548 4.90877 168.358 4.93753C168.065 5.00081 167.771 5.12736 167.524 5.23091C167.421 5.27693 167.323 5.3057 167.225 5.32871C167.121 5.36323 167.018 5.40349 166.92 5.44376C166.874 5.46102 166.84 5.5243 166.794 5.54156C166.707 5.57032 166.632 5.66812 166.523 5.59909C166.402 5.53005 166.316 5.53005 166.305 5.77741C166.299 5.90972 166.224 5.93273 166.155 5.93273C166.069 5.93848 165.959 5.88096 165.85 5.82918C165.718 5.76591 165.58 5.70262 165.557 5.91547C165.545 6.02477 165.447 6.01327 165.361 5.98451C164.964 5.85795 164.711 6.0708 164.498 6.28939C164.228 6.62304 164.003 6.98545 163.825 7.34787C163.745 7.48018 163.653 7.60098 163.578 7.72754C163.451 7.92313 163.296 8.09571 163.175 8.28554C163.037 8.46962 162.87 8.6422 162.755 8.84354C162.703 8.91833 162.64 8.99886 162.652 9.09665C162.657 9.32675 162.6 9.51659 162.456 9.68916C162.376 9.79846 162.324 9.91352 162.324 10.0458C162.33 10.1781 162.358 10.3105 162.393 10.4428C162.41 10.506 162.45 10.5693 162.427 10.6211C162.312 10.8052 162.347 11.018 162.376 11.2251C162.41 11.4322 162.433 11.6278 162.427 11.8349C162.427 12.1685 162.301 12.5194 162.249 12.8876C162.22 13.1695 162.157 13.4629 162.117 13.7677C162.117 13.785 162.14 13.8023 162.134 13.8195C162.094 13.9921 161.777 14.1359 161.26 14.1934C160.799 14.2395 160.517 14.1877 160.489 14.0209C160.46 13.8368 160.46 13.647 160.448 13.4629L160.368 13.4974Z" fill="#EBC464"/>
<path d="M171.505 17.6559C171.539 17.328 171.62 16.9828 171.74 16.6607C171.855 16.3731 171.976 16.1085 171.832 15.8266C171.792 15.7518 171.832 15.677 171.832 15.6022C171.832 15.4642 171.838 15.3261 171.832 15.188C171.827 15.1248 171.729 15.05 171.775 14.9925C171.982 14.7221 172.068 14.4575 171.942 14.1353C172.189 13.9627 172.12 13.7211 172.114 13.4795C172.12 13.2379 172.218 13.0308 172.172 12.7605C172.155 12.6857 172.172 12.6166 172.224 12.5706C172.39 12.4383 172.482 12.2772 172.574 12.1104C172.672 11.9493 172.747 11.7768 172.828 11.6042C172.908 11.4143 173.029 11.2475 173.19 11.1152C173.345 10.9772 173.518 10.8621 173.725 10.7816C173.955 10.7068 174.099 10.5572 174.254 10.4076C174.427 10.2236 174.599 10.0395 174.783 9.86115C175.054 9.60803 175.341 9.37793 175.583 9.04428C175.756 8.84294 175.945 8.63585 176.147 8.45176C176.36 8.28494 176.578 8.10661 176.82 7.96855C177.073 7.84199 177.355 7.80748 177.648 7.79597C178.212 7.73844 178.839 7.82473 179.363 7.91102C179.771 7.9858 180.174 8.02607 180.576 8.10086C180.766 8.12387 180.956 8.16414 181.152 8.1929C181.347 8.22166 181.537 8.25618 181.727 8.32521C182.831 8.68187 183.924 9.3204 184.753 10.3271C184.931 10.5802 185.173 10.8046 185.328 11.0807C185.408 11.2188 185.472 11.3683 185.524 11.5121C185.639 11.7825 185.673 12.0759 185.736 12.3635C185.805 12.6454 185.811 12.933 185.834 13.2092C185.903 14.0145 185.823 14.7911 185.662 15.5274C185.575 15.9474 185.391 16.3155 185.426 16.77C185.431 16.8966 185.299 16.8908 185.052 16.7527C184.62 16.5226 184.166 16.304 183.942 16.0567C183.792 15.8841 183.677 15.746 183.786 15.631C183.953 15.4584 183.786 15.2111 184.097 15.0672C184.143 15.0442 184.137 15.004 184.126 14.9694C184.068 14.8084 184.045 14.653 184.045 14.5035C184.034 14.3539 184.022 14.2101 184.034 14.0663C184.039 13.9225 184.074 13.7729 184.08 13.6291V13.1919C184.085 12.9963 183.976 12.8237 183.919 12.6512C183.878 12.5361 183.855 12.4153 183.815 12.306C183.752 12.1449 183.729 11.9608 183.642 11.8113C183.568 11.6962 183.418 11.6502 183.596 11.3913C183.631 11.3396 183.579 11.282 183.51 11.2993C183.246 11.3626 183.211 11.2648 183.142 11.1785L182.889 10.8161C182.791 10.7068 182.688 10.5975 182.578 10.4997C182.417 10.3501 182.193 10.2696 181.991 10.189C181.646 10.097 181.29 10.0682 180.956 10.028C180.68 9.98771 180.415 9.92443 180.151 9.90142C180.087 9.90142 180.018 9.94169 179.955 9.93018C179.846 9.91868 179.719 9.94744 179.633 9.84965C179.535 9.7346 179.443 9.70008 179.311 9.91293C179.236 10.028 179.155 10.0222 179.081 9.99346C178.989 9.95895 178.897 9.8669 178.805 9.77486C178.701 9.67707 178.586 9.57352 178.488 9.7576C178.442 9.84965 178.344 9.81513 178.258 9.76335C177.884 9.539 177.51 9.66556 177.205 9.8669C176.992 10.005 176.791 10.1488 176.607 10.3271C176.417 10.4882 176.245 10.6665 176.084 10.8448C175.945 10.9772 175.807 11.0922 175.681 11.2188C175.255 11.5927 174.853 11.9666 174.438 12.3578C174.364 12.4383 174.289 12.5246 174.272 12.6454C174.254 12.7835 174.208 12.8985 174.139 13.0021C174.087 13.1114 174.013 13.2149 173.921 13.3069C173.685 13.5313 173.696 13.8707 173.713 14.1813C173.713 14.2561 173.748 14.3309 173.713 14.3942C173.604 14.6128 173.598 14.8601 173.593 15.096C173.587 15.3376 173.656 15.585 173.616 15.8208C173.604 15.9186 173.581 16.0164 173.558 16.1142C173.547 16.2178 173.535 16.3156 173.518 16.4191L173.403 17.0519C173.368 17.3913 173.328 17.7422 173.294 18.0873C173.294 18.1104 173.317 18.1276 173.317 18.1506C173.282 18.352 172.971 18.513 172.448 18.5533C171.988 18.5878 171.694 18.5073 171.66 18.3117C171.625 18.0931 171.614 17.8687 171.597 17.6501L171.505 17.6559Z" fill="#EBC464"/>
<path d="M184.707 27.1654C184.172 28.3217 183.672 29.501 183.096 30.6285C182.584 31.6409 182.078 32.6246 181.848 33.7579C181.79 34.0513 181.647 34.3389 181.543 34.6323L180.991 36.2257C180.91 36.4674 180.91 36.755 180.801 36.9678C180.254 38.0148 179.817 39.0905 179.576 40.2468C179.052 41.0291 178.885 41.9208 178.626 42.8067C178.362 43.6868 177.982 44.544 177.804 45.4529C177.758 45.6945 177.672 45.9591 177.551 46.172C176.832 47.4836 176.302 48.8699 175.756 50.2563C175.169 51.7405 174.479 53.1786 173.656 54.5477C173.213 55.2783 172.868 56.0894 172.512 56.8775C172.092 57.8209 171.729 58.7874 171.321 59.7308C170.722 61.1057 170.159 62.4805 169.664 63.8899C169.002 65.7768 168.283 67.6579 167.495 69.5045C167.093 70.4479 166.569 71.3453 166.074 72.2484L164.884 74.3884L164.28 75.4526L163.371 77.1266L161.49 76.5514C160.011 76.0969 158.515 75.6885 157.026 75.2973C155.628 74.9291 154.218 74.6243 152.82 74.2618L140.395 71.0346L137.398 70.2983C136.897 70.1718 136.403 70.0337 135.914 69.8841L130.437 68.2331L122.568 65.9551L122.01 65.7883L121.733 65.7077C121.601 65.6675 121.4 65.5984 121.239 65.5122C120.571 65.1843 120.059 64.5745 119.841 63.8727C119.732 63.5218 119.686 63.1478 119.72 62.7797C119.737 62.5956 119.772 62.4115 119.824 62.2332L119.916 61.9743L119.967 61.8363C120.105 61.4738 120.232 61.1114 120.347 60.7433C120.479 60.3291 120.652 60.2485 120.842 60.5074C121.17 60.9504 121.544 61.353 121.515 62.1469C121.509 62.4115 121.463 62.6991 121.486 62.8602C121.503 63.0443 121.526 63.2169 121.572 63.424C121.647 63.7404 121.912 63.9532 122.263 64.028C122.711 64.1488 123.149 64.2926 123.54 64.5515C123.649 64.6263 123.827 64.6608 123.977 64.6838C126.629 65.1037 129.154 66.0069 131.714 66.7777C132.548 67.0308 133.405 67.2207 134.251 67.445C134.798 67.5946 135.344 67.7442 135.891 67.911C136.679 68.1469 137.461 68.4172 138.261 68.6243C138.865 68.7796 139.469 68.8544 139.929 69.2859C140.027 69.3779 140.343 69.4527 140.47 69.4182C140.964 69.2859 141.448 69.4584 141.942 69.6022C143.271 70.0049 144.588 70.4249 145.923 70.8045C146.907 71.0864 147.908 71.328 148.909 71.5466C150.462 71.8918 152.021 72.1794 153.574 72.5303C154.868 72.8237 156.157 73.1746 157.451 73.491C157.75 73.5658 158.055 73.5945 158.354 73.6751C158.901 73.8189 159.488 73.9224 159.971 74.1525C160.512 74.4114 160.943 74.561 161.536 74.4862C161.702 74.4632 161.898 74.4919 162.099 74.538L162.186 74.561L162.197 74.5667C162.203 74.5725 162.214 74.5782 162.226 74.5897L162.318 74.6818C162.358 74.6933 162.416 74.6933 162.485 74.6645C162.519 74.7163 162.755 74.3711 162.893 74.141C163.043 73.8879 163.164 73.6175 163.233 73.2896C163.307 72.9387 163.572 72.5418 163.802 72.2254C164.826 70.8161 165.585 69.2513 166.281 67.6579C167.225 65.4949 168.105 63.3089 168.985 61.1229C169.33 60.2658 169.71 59.4202 170.078 58.5688C171.211 55.9226 172.437 53.3167 173.656 50.705C173.898 50.193 174.145 49.6753 174.318 49.1403C174.721 47.9035 175.244 46.7645 175.796 45.6025C176.464 44.2161 176.924 42.7434 177.367 41.2708C177.47 40.9256 177.545 40.5689 177.683 40.2468C178.667 37.9803 179.277 35.5815 180.151 33.2689C180.859 31.3993 181.647 29.5642 182.429 27.7177C183.027 26.291 183.666 24.8817 184.299 23.4723C184.339 23.3802 184.356 23.2709 184.402 23.1789C184.776 22.3793 185.196 22.2412 185.535 22.8107C185.84 23.3169 185.886 23.9497 185.61 24.6861C185.3 25.5029 184.966 26.3083 184.649 27.1194L184.707 27.1654Z" fill="#EBC464"/>
<path d="M79.7556 654.675C79.5297 654.549 79.4812 654.251 79.651 654.066C87.1641 645.564 94.8058 636.204 102.364 625.942C105.503 621.681 108.485 617.461 111.312 613.294C111.368 613.216 111.444 613.162 111.539 613.13C112.539 612.872 117.117 611.494 119.157 606.86C120.714 603.326 119.831 600.073 119.533 599.116C119.516 599.077 119.515 599.04 119.519 598.997C119.608 593.312 119.536 587.31 119.24 581.04C118.826 572.266 118.029 564.05 117.002 556.456C116.957 556.116 117.335 555.88 117.62 556.076C128.413 563.437 140.197 570.894 152.999 578.206C161.332 582.972 169.476 587.321 177.387 591.302C177.535 591.373 177.619 591.533 177.605 591.704C176.808 599.253 176.013 606.812 175.216 614.361C174.836 617.972 174.454 621.573 174.074 625.184C174.067 625.243 174.073 625.311 174.098 625.365C176.012 630.129 175.481 635.081 172.624 638.032C171.385 639.313 169.912 640.001 168.646 640.376C168.576 640.398 168.514 640.434 168.465 640.489C164.107 645.449 159.665 650.791 155.223 656.523C148.059 665.773 141.845 674.784 136.462 683.334C136.353 683.51 136.137 683.571 135.955 683.485C128.637 680.039 121.209 676.432 113.694 672.644C101.909 666.698 90.5994 660.696 79.7556 654.675Z" fill="#F5E3B4"/>
<path d="M88.3502 642.229C91.176 639.02 93.9381 635.71 96.6828 632.488C99.1179 629.595 101.544 626.777 103.582 623.481C104.118 622.635 104.774 621.786 105.378 620.934C106.464 619.388 107.553 617.836 108.639 616.29C109.129 615.584 109.55 614.773 110.048 614.144L110.796 613.179C110.959 612.953 111.145 612.733 111.438 612.69L112.149 612.496C112.555 612.371 112.964 612.231 113.356 612.051C114.143 611.712 114.899 611.279 115.583 610.756C116.963 609.731 118.044 608.317 118.65 606.734C119.276 605.636 119.613 604.376 119.665 603.109C119.709 601.827 119.523 600.589 119.098 599.341C119.011 599.098 119.021 598.77 119.015 598.576L119.004 597.924C118.954 594.837 119.005 591.695 118.724 588.65C118.651 587.846 118.605 586.916 118.624 586.097C118.713 581.117 118.35 576.147 117.874 571.159C117.437 566.634 117.005 562.112 116.577 557.612C116.561 557.446 116.573 557.328 116.579 557.206L116.605 556.844L116.655 556.119C116.618 555.894 116.813 555.635 117.093 555.574C117.36 555.504 117.568 555.744 117.82 555.871C118.517 556.3 119.184 556.708 119.873 557.159C120.502 557.593 121.127 558.034 121.762 558.473C122.97 559.297 124.204 560.112 125.419 560.915C128.321 562.822 131.291 564.633 134.242 566.459C138.531 569.119 142.846 571.654 147.254 574.021C153.152 577.188 159.116 580.313 165.118 583.373C168.173 584.929 171.22 586.633 174.269 588.248L177.799 590.1C178.069 590.24 178.287 590.415 178.46 590.603C178.64 590.805 178.761 591.091 178.786 591.345C178.834 591.605 178.815 591.909 178.774 592.205L178.683 592.973L178.429 595.099L177.912 599.354L176.909 607.869C176.322 613.051 175.805 618.248 175.292 623.439L175.138 625.076C175.127 625.141 175.174 625.201 175.189 625.257L175.344 625.658C175.466 625.954 175.554 626.272 175.651 626.577C176.033 627.821 176.274 629.108 176.347 630.429C176.5 633.047 175.894 635.852 174.186 638.1C173.551 638.92 172.796 639.654 171.931 640.226C171.505 640.517 171.051 640.77 170.592 640.992C170.358 641.104 170.126 641.2 169.894 641.296C169.687 641.382 169.328 641.504 169.342 641.496C169.275 641.502 169.232 641.561 169.193 641.615L168.799 642.074L167.924 643.102L166.186 645.165C163.876 647.921 161.62 650.716 159.405 653.542C154.972 659.198 150.726 664.998 146.673 670.919C144.725 673.764 142.86 676.669 141.006 679.573C140.546 680.301 140.079 681.024 139.619 681.752L138.923 682.845L138.471 683.561C138.234 683.916 138.025 684.318 137.754 684.621C137.487 684.89 137.244 685.051 136.924 685.182C136.76 685.246 136.577 685.286 136.413 685.313C136.249 685.34 136.1 685.332 135.929 685.318C135.594 685.294 135.217 685.15 134.871 684.964L133.921 684.498L131.757 683.429L127.421 681.287L118.753 677.013L112.538 673.971L106.366 670.833C102.262 668.722 98.1759 666.587 94.1031 664.407C89.4879 661.937 84.9157 659.407 80.2617 657.054C78.9535 656.393 78.6241 656.02 79.2702 655.978C80.3948 655.9 81.3584 655.706 83.7253 656.594C85.3294 657.196 86.8054 657.788 88.6086 658.868C91.2285 660.437 94.1999 661.706 96.6774 663.435C97.0277 663.678 97.5829 663.951 98.0341 664.167C106.176 667.989 114.112 672.288 122.228 676.236C124.873 677.542 127.554 678.774 130.215 680.047L135.276 682.502C135.492 682.604 135.692 682.729 135.92 682.803C136.043 682.819 136.152 682.744 136.209 682.64L136.403 682.345L137.426 680.772C138.184 679.606 138.946 678.434 139.705 677.278C140.84 675.514 141.88 673.754 143.25 672.404C143.535 672.12 144.144 671.2 144.295 670.838C144.86 669.424 145.891 668.029 146.908 666.615C149.655 662.824 152.497 659.101 155.375 655.404C157.511 652.676 159.651 649.942 161.782 647.22C163.45 645.116 165.126 643.026 166.822 640.959L167.459 640.186C167.615 640.008 167.774 639.788 167.971 639.64C168.178 639.49 168.427 639.434 168.669 639.336C169.24 639.122 169.777 638.866 170.284 638.552C171.288 637.925 172.119 637.084 172.714 636.081C173.721 634.406 174.096 632.349 173.961 630.323C173.895 629.306 173.697 628.286 173.404 627.296C173.321 627.046 173.255 626.799 173.163 626.561L173.025 626.199L172.914 625.902C172.869 625.788 172.834 625.672 172.805 625.561C172.752 625.333 172.771 625.093 172.8 624.851L172.844 624.375L172.923 623.536C173.017 622.499 173.056 621.476 173.156 620.444C173.342 618.549 173.469 616.549 173.775 614.777C174.113 612.811 174.305 611.274 174.202 609.416C174.143 608.377 174.33 606.746 174.504 605.422C174.722 603.723 175.013 602.049 175.3 600.39C175.645 598.402 175.981 596.551 175.989 594.375C175.99 593.833 176.044 593.192 176.122 592.542C176.135 592.461 176.154 592.384 176.176 592.291C176.196 592.188 176.101 592.156 176.044 592.097C176.02 592.08 176.003 592.067 175.983 592.044C175.947 592.018 175.981 592.033 175.882 591.971L175.644 591.836L175.172 591.56L174.225 591.014L172.311 589.936C171.023 589.235 169.739 588.528 168.45 587.827C165.852 586.455 163.247 585.079 160.653 583.701C153.58 579.978 146.574 576.149 139.666 572.109C136.965 570.528 134.278 568.875 131.617 567.213C128.734 565.419 125.885 563.577 123.062 561.699L119.294 559.159L119.065 558.986C119.012 558.947 118.969 559.007 118.992 559.051L118.999 559.192L119.004 559.322L119.005 559.359L119.021 559.488L119.08 560.047L119.323 562.277L119.75 566.741C119.92 568.656 120.058 570.603 120.265 572.481C120.753 576.835 120.952 581.189 120.985 585.559C121.05 589.998 121.112 594.416 121.174 598.834C121.177 598.818 121.212 598.934 121.237 599.024L121.315 599.307L121.453 599.868C121.536 600.245 121.608 600.623 121.66 601.004C121.856 602.367 121.865 603.814 121.555 605.175C120.994 607.615 119.681 609.894 117.844 611.578C116.928 612.422 115.91 613.12 114.833 613.685C114.295 613.968 113.741 614.221 113.164 614.431C113.026 614.485 112.875 614.531 112.726 614.587L112.516 614.653C112.501 614.66 112.501 614.66 112.501 614.66C112.491 614.662 112.483 614.674 112.48 614.69L109.156 619.497C107.995 621.16 106.824 622.826 105.645 624.477C101.698 629.985 97.3967 635.22 93.0661 640.407C89.7103 644.403 86.2481 648.295 82.7305 652.139C82.5032 652.391 82.2868 652.679 82.0536 652.928C81.5467 653.469 81.1068 653.904 80.7426 654.221C80.65 654.3 80.5618 654.372 80.4778 654.438C80.4358 654.471 80.3938 654.505 80.3561 654.532L80.2996 654.573L80.2851 654.58L80.2808 654.586L79.9861 654.329L79.9801 654.324C79.952 654.313 79.9844 654.319 79.9741 654.32C79.9527 654.35 80.0369 654.22 79.9286 654.396C79.89 654.45 79.8189 654.498 79.7079 654.464C79.6089 654.438 79.459 654.294 79.5069 654.038C79.9049 652.668 80.9266 651.021 82.6759 648.993C84.6037 646.768 86.5331 644.552 88.4251 642.301L88.3502 642.229Z" fill="#EBC464"/>
<path d="M122.376 599.028C122.999 599.458 123.65 599.836 124.235 600.32C124.749 600.763 125.252 601.197 125.94 601.285C126.117 601.303 126.263 601.427 126.428 601.5L127.319 601.897C127.46 601.953 127.647 601.907 127.758 602.005C128.278 602.478 128.865 602.82 129.57 602.91C129.922 603.39 130.481 603.43 130.996 603.583C131.51 603.736 131.969 604.03 132.533 604.065C132.681 604.072 132.832 604.126 132.943 604.224C133.608 604.811 134.415 605.111 135.211 605.44C136.063 605.79 136.852 606.267 137.557 606.911C137.928 607.25 138.391 607.475 138.838 607.697C139.371 607.963 139.939 608.155 140.481 608.409C141.266 608.765 142.07 609.081 142.926 609.29C144.066 609.567 145.195 609.899 146.29 610.289C146.848 610.483 147.343 610.839 147.851 611.141C148.867 611.754 149.869 612.412 150.897 612.998C151.674 613.44 152.483 613.814 153.296 614.181C154.057 614.521 154.849 614.792 155.618 615.119L162.416 618.055C162.96 618.293 163.522 618.48 164.075 618.706C164.351 618.814 164.619 618.944 164.879 619.086C165.852 619.596 166.808 620.13 167.793 620.612C169.197 621.315 170.623 621.951 172.029 622.601C172.829 622.987 173.606 623.329 174.474 623.483C174.717 623.522 174.731 623.704 174.516 624.002C174.152 624.509 173.804 625.056 173.269 625.232C172.91 625.354 172.583 625.418 172.279 625.199C171.837 624.881 171.222 624.918 170.899 624.36C170.855 624.283 170.75 624.253 170.659 624.241C169.077 623.999 167.77 623.122 166.392 622.42C165.939 622.194 165.459 622.03 164.994 621.821C164.692 621.686 164.396 621.545 164.103 621.398C163.683 621.177 163.276 620.911 162.836 620.73C162.502 620.59 162.137 620.544 162.013 620.074C161.986 619.973 161.807 619.908 161.709 619.955C161.329 620.144 161.086 619.978 160.826 619.836C160.122 619.456 159.428 619.048 158.709 618.702C158.177 618.446 157.624 618.22 157.062 618.033C156.187 617.738 155.284 617.496 154.412 617.185C153.685 616.924 152.989 616.596 152.273 616.307C152.104 616.24 151.917 616.223 151.759 616.154C151.458 616.018 151.118 615.937 150.894 615.694C150.645 615.424 150.421 615.282 150.009 615.402C149.778 615.471 149.534 615.331 149.345 615.204C149.102 615.039 148.89 614.805 148.684 614.575C148.439 614.299 148.216 614.03 147.785 614.063C147.556 614.08 147.34 613.888 147.175 613.715C146.45 612.949 145.537 612.518 144.594 612.156C143.318 611.664 142.012 611.213 140.728 610.733C140.223 610.541 139.744 610.314 139.25 610.094C137.732 609.409 136.277 608.588 134.836 607.76C134.552 607.6 134.265 607.421 133.956 607.334C133.222 607.133 132.576 606.785 131.955 606.365C131.204 605.861 130.353 605.584 129.498 605.312C129.298 605.25 129.079 605.228 128.907 605.114C127.699 604.352 126.292 603.992 125.035 603.36C124.018 602.836 123.056 602.197 122.073 601.626L120.943 600.93L119.816 600.282C119.764 600.254 119.702 600.264 119.655 600.229C119.233 599.972 119.214 599.496 119.641 598.952C120.026 598.468 120.461 598.266 120.902 598.447C121.386 598.641 121.866 598.869 122.31 599.107L122.376 599.028Z" fill="#EBC464"/>
<path d="M79.2777 646.101C80.4237 645.314 81.5407 644.479 82.6977 643.727C83.7356 643.053 84.7488 642.387 85.529 641.391C85.7298 641.137 86.0227 640.932 86.2637 640.698C86.7111 640.277 87.1543 639.863 87.5882 639.423C87.7872 639.222 87.9138 638.933 88.1271 638.788C89.1874 638.057 90.1337 637.208 90.8774 636.149C91.7805 635.649 92.3226 634.808 92.9602 634.035C93.5918 633.258 94.3427 632.567 94.8653 631.702C95.0019 631.475 95.1959 631.243 95.4058 631.077C96.6841 630.069 97.7019 628.818 98.7419 627.574C99.8505 626.235 101.042 624.983 102.362 623.841C103.063 623.231 103.679 622.489 104.276 621.759C104.993 620.89 105.637 619.968 106.324 619.077C107.319 617.783 108.246 616.458 109.075 615.053L109.486 614.344C109.644 614.086 109.715 613.938 109.976 613.537L110.669 612.461L111.036 611.901L111.082 611.825C111.101 611.811 111.126 611.839 111.148 611.846L111.289 611.902L111.572 612.024L112.761 612.536L113.356 612.792L113.734 612.946L115.247 613.573C116.27 614.002 117.249 614.579 118.231 615.114C120.202 616.188 122.156 617.286 124.152 618.325C125.652 619.096 127.185 619.81 128.725 620.502C130.162 621.147 131.63 621.724 133.07 622.353L145.898 627.981L149.006 629.275C149.52 629.492 150.033 629.734 150.537 629.979L156.144 632.719L164.236 636.524C165.766 637.254 167.267 637.999 168.898 638.539C169.147 638.646 169.434 638.825 169.67 639.076C169.906 639.327 170.076 639.631 170.161 639.891C170.321 640.423 170.252 640.709 170.222 640.85C170.213 640.889 170.202 640.917 170.189 640.935C170.218 640.856 170.107 641.175 169.917 641.4C169.735 641.641 169.432 641.848 169.163 641.944C168.602 642.12 168.315 642.004 168.193 641.971C168.065 641.923 168.055 641.899 168.102 641.896C168.16 641.892 168.282 641.935 168.622 641.917C168.787 641.9 169.028 641.856 169.269 641.722C169.517 641.592 169.731 641.357 169.849 641.143C169.901 641.045 169.957 640.904 169.963 640.872L169.949 640.853L169.92 640.805C169.899 640.771 169.876 640.728 169.859 640.688C169.705 640.387 169.46 640.048 169.124 639.86C168.804 639.676 168.439 639.667 168.285 639.755C167.981 639.925 167.642 640.044 167.194 640.038C166.592 640.031 166.047 639.983 165.467 639.619C164.627 639.087 163.565 638.902 162.833 638.158C162.726 638.054 162.541 637.985 162.386 637.936C159.573 637.089 157.016 635.647 154.385 634.37C153.527 633.951 152.634 633.607 151.759 633.213C151.191 632.958 150.633 632.701 150.073 632.434C149.261 632.04 148.474 631.6 147.648 631.25C147.025 630.983 146.381 630.809 145.979 630.221C145.896 630.098 145.568 629.962 145.415 629.987C144.836 630.087 144.344 629.814 143.845 629.564C142.488 628.895 141.142 628.198 139.774 627.557C138.759 627.081 137.72 626.65 136.68 626.245C135.06 625.614 133.42 625.049 131.804 624.402C130.452 623.864 129.13 623.248 127.79 622.681C127.478 622.548 127.151 622.475 126.844 622.335C126.281 622.085 125.663 621.875 125.188 621.515C124.666 621.121 124.226 620.877 123.558 620.886C123.185 620.889 122.719 620.644 122.337 620.432C121.855 620.158 121.408 619.809 120.97 619.475C120.446 619.071 119.96 618.676 119.232 618.569C118.838 618.512 118.406 618.219 118.058 617.96C116.527 616.803 114.8 615.995 113.057 615.22L112.223 614.856L111.897 614.757C111.848 614.749 111.796 614.72 111.755 614.727L111.676 614.887L111.543 615.172C110.872 616.193 110.12 617.326 109.391 618.377C108.812 619.219 108.179 620.023 107.558 620.835C105.622 623.362 103.501 625.73 101.32 628.044C100.887 628.494 100.451 628.949 100.084 629.446C99.2454 630.599 98.2584 631.618 97.2143 632.578C95.9551 633.736 94.8679 635.046 93.7688 636.346C93.5131 636.651 93.2829 636.984 92.9881 637.242C90.9388 639.046 89.1926 641.157 87.1433 642.961C85.4857 644.421 83.7346 645.759 81.9758 647.083C80.6213 648.11 79.226 649.08 77.841 650.048C77.7511 650.11 77.6781 650.211 77.5822 650.269C76.7797 650.805 76.2667 650.663 76.1995 649.863C76.1414 649.151 76.4138 648.495 77.0779 647.95L79.3235 646.189L79.2777 646.101Z" fill="#EBC464"/>
<path d="M115.89 560.677C115.873 562.023 115.887 563.374 115.799 564.704C115.719 565.897 115.62 567.066 115.919 568.25C115.995 568.558 115.971 568.894 116.002 569.215C116.051 569.803 116.089 570.391 116.147 570.977C116.175 571.241 116.32 571.517 116.292 571.769C116.173 573.005 116.188 574.23 116.491 575.444C116.26 576.419 116.523 577.35 116.658 578.308C116.793 579.265 116.784 580.246 117.038 581.189C117.11 581.441 117.141 581.725 117.115 581.987C116.949 583.552 117.091 585.103 117.199 586.665C117.295 588.356 117.329 589.919 117.35 591.601C117.353 592.49 117.543 593.397 117.719 594.284C117.934 595.344 118.231 596.391 118.437 597.463C118.734 599.026 118.993 600.58 119.175 602.214C119.24 603.483 118.928 604.545 118.731 605.561C118.685 605.801 118.616 606.086 118.528 606.384C118.46 606.68 118.346 606.951 118.244 607.231C118.035 607.786 117.767 608.309 117.486 608.813C116.901 609.841 116.063 610.677 115.243 611.464C114.419 612.257 113.545 612.968 112.643 613.631C112.4 613.791 112.247 613.953 111.827 614.185L111.114 614.559C110.644 614.81 110.176 615.07 109.708 615.331C108.316 616.132 106.967 617.026 105.654 617.956C104.426 618.819 103.272 619.781 102.09 620.706C98.5921 623.44 95.2461 626.366 92.1053 629.484C91.3542 630.239 90.6405 631.029 89.9132 631.8C89.5488 632.181 89.18 632.568 88.7976 632.935C87.3958 634.317 86.0135 635.722 84.6942 637.19C82.8096 639.293 81.0417 641.498 79.3215 643.737C78.3498 645.012 77.3721 646.282 76.6356 647.708C76.4317 648.104 76.2103 648.135 76.0125 647.794C75.6702 647.212 75.28 646.66 75.4206 645.81C75.5226 645.241 75.6535 644.719 76.1131 644.244C76.7786 643.546 77.1461 642.57 78.0135 642.044C78.1385 641.971 78.2382 641.807 78.3104 641.669C79.6906 639.185 81.6733 637.135 83.5953 635.068C84.2172 634.393 84.7999 633.671 85.4141 632.981C85.8155 632.537 86.2348 632.105 86.6499 631.679C87.2715 631.067 87.9187 630.483 88.5224 629.858C88.9718 629.384 89.3479 628.849 90.0259 628.712C90.1679 628.678 90.4012 628.43 90.4307 628.288C90.5327 627.719 90.9628 627.385 91.3674 627.024C92.4568 626.052 93.6032 625.138 94.7105 624.178C95.5392 623.48 96.3364 622.75 97.1319 622.009C98.368 620.87 99.5769 619.694 100.87 618.614C101.955 617.711 103.098 616.877 104.242 616.043C104.506 615.852 104.735 615.61 105.005 615.423C105.496 615.08 105.982 614.669 106.528 614.464C107.128 614.235 107.552 613.997 107.888 613.442C108.079 613.127 108.533 612.874 108.907 612.681C109.387 612.429 109.907 612.26 110.417 612.093C110.483 612.077 110.601 612.026 110.613 612.034C110.64 612.035 110.651 612.044 110.701 612.025C110.832 611.957 110.967 611.882 111.091 611.799C111.337 611.632 111.555 611.418 111.729 611.126C111.909 610.812 112.308 610.547 112.648 610.339C114.136 609.417 115.305 608.031 115.987 606.53C116.115 606.278 116.193 606.017 116.294 605.764C116.365 605.489 116.433 605.294 116.515 604.954C116.667 604.339 116.828 603.739 116.935 603.2C116.985 602.929 117.023 602.675 117.033 602.447C117.041 602.335 117.039 602.225 117.03 602.137L116.992 601.711C116.953 601.149 116.874 600.567 116.78 599.992C116.633 599.09 116.495 598.175 116.295 597.244C115.69 594.373 115 591.268 114.994 588.031C114.987 587.41 115.008 586.828 114.923 586.241C114.731 584.898 114.717 583.558 114.766 582.207C114.822 580.581 114.623 578.971 114.405 577.374C114.355 577.003 114.262 576.629 114.259 576.255C114.283 573.655 113.814 571.099 113.678 568.52C113.569 566.432 113.575 564.335 113.523 562.242L113.454 557.393C113.452 557.283 113.409 557.18 113.413 557.074C113.409 556.148 113.813 555.813 114.52 556.177C115.14 556.497 115.544 557.069 115.622 557.904C115.704 558.822 115.748 559.742 115.793 560.661L115.89 560.677Z" fill="#EBC464"/>
<path d="M111.851 561.824C111.743 562.389 111.678 562.958 111.513 563.527C111.364 564.036 111.207 564.53 111.455 565.016C111.518 565.143 111.478 565.286 111.496 565.425C111.52 565.669 111.533 565.914 111.573 566.16C111.592 566.273 111.725 566.378 111.69 566.489C111.528 567.015 111.518 567.533 111.778 568.028C111.536 568.452 111.771 568.829 111.894 569.225C112.016 569.621 111.994 570.031 112.245 570.411C112.309 570.511 112.343 570.626 112.315 570.742C112.14 571.413 112.286 572.052 112.412 572.695C112.546 573.389 112.54 574.091 112.357 574.81C112.255 575.19 112.309 575.582 112.35 575.965C112.397 576.415 112.532 576.857 112.606 577.308C112.717 577.958 112.863 578.598 113.145 579.226C113.513 580.061 113.825 580.911 114.08 581.765C114.209 582.202 114.178 582.659 114.19 583.121C114.217 584.027 114.192 584.942 114.256 585.848C114.303 586.525 114.413 587.202 114.549 587.87C114.671 588.492 114.871 589.107 115.01 589.732L116.222 595.259C116.32 595.701 116.464 596.13 116.578 596.575C116.636 596.797 116.666 597.019 116.697 597.24C116.796 598.072 116.868 598.902 116.993 599.735C117.165 600.918 117.384 602.099 117.57 603.274C117.675 603.947 117.753 604.619 118.071 605.246C118.162 605.421 118.008 605.509 117.645 605.51C117.023 605.507 116.374 605.528 115.959 605.275C115.673 605.105 115.451 604.936 115.488 604.646C115.541 604.232 115.191 603.862 115.487 603.414C115.53 603.354 115.496 603.275 115.459 603.213C114.839 602.124 114.864 600.919 114.721 599.747C114.673 599.36 114.55 598.991 114.468 598.614C114.417 598.37 114.371 598.119 114.341 597.872C114.293 597.511 114.3 597.136 114.217 596.786C114.153 596.523 113.997 596.274 114.321 595.974C114.385 595.911 114.351 595.769 114.257 595.737C113.896 595.596 113.901 595.363 113.874 595.136C113.806 594.526 113.775 593.915 113.687 593.308C113.619 592.861 113.5 592.422 113.355 591.982C113.134 591.307 112.842 590.644 112.636 589.962C112.458 589.39 112.359 588.811 112.222 588.233C112.19 588.102 112.101 587.974 112.075 587.847C112.025 587.602 111.915 587.351 111.996 587.101C112.093 586.827 112.091 586.617 111.763 586.418C111.582 586.305 111.573 586.091 111.575 585.911C111.586 585.683 111.674 585.448 111.751 585.214C111.853 584.934 111.958 584.675 111.706 584.421C111.568 584.285 111.611 584.063 111.672 583.889C111.932 583.089 111.808 582.33 111.617 581.576C111.335 580.559 111.057 579.535 110.782 578.521C110.68 578.122 110.623 577.71 110.552 577.306C110.34 576.04 110.29 574.763 110.265 573.477C110.255 573.226 110.267 572.971 110.179 572.727C109.973 572.171 109.954 571.606 110.008 571.028C110.068 570.329 109.885 569.663 109.691 568.989C109.65 568.833 109.562 568.679 109.573 568.524C109.65 567.411 109.256 566.349 109.24 565.251C109.227 564.363 109.338 563.465 109.419 562.573C109.487 561.888 109.595 561.196 109.687 560.502C109.691 560.459 109.662 560.411 109.67 560.363C109.743 559.971 110.167 559.823 110.837 559.962C111.436 560.085 111.791 560.322 111.805 560.667C111.815 561.055 111.794 561.438 111.778 561.825L111.851 561.824Z" fill="#EBC464"/>
<path d="M112.298 600.785C111.546 599.176 110.757 597.567 110.119 595.912C109.556 594.429 109.047 592.985 108.239 591.579C108.017 591.221 107.913 590.774 107.747 590.375C107.468 589.63 107.214 588.877 106.998 588.106C106.884 587.761 106.695 587.408 106.677 587.069C106.572 585.39 106.509 583.779 106.227 582.145C106.454 580.86 106.246 579.614 106.174 578.331C106.102 577.047 106.195 575.747 106.03 574.479C105.985 574.138 105.981 573.755 106.032 573.42C106.356 571.371 106.399 569.311 106.467 567.241C106.503 566.135 106.575 565.028 106.681 563.936L106.852 562.302L106.872 562.099L106.881 561.997L106.889 561.949L106.89 561.922L106.895 561.916L107.259 561.925L107.27 561.923C107.331 561.913 107.29 561.92 107.292 561.93C107.298 561.935 107.277 561.901 107.302 561.929L107.314 561.937L107.602 562.09L107.594 562.102L107.564 562.144L107.509 562.232L107.395 562.403L107.167 562.746C106.514 563.716 106.011 564.83 105.565 565.94C105.027 567.255 104.629 568.625 104.251 569.993C103.695 571.974 103.329 573.992 103.235 576.035C103.189 577.396 103.168 578.757 103.22 580.107C103.241 580.783 103.318 581.455 103.358 582.118C103.387 582.455 103.393 582.786 103.436 583.116L103.582 584.108C103.738 585.452 103.897 586.816 104.124 588.174C104.611 590.87 105.444 593.525 106.663 596.033C107.59 597.904 108.732 599.676 110 601.35C110.586 602.133 111.228 602.877 111.881 603.618L112.875 604.714C113.395 605.288 113.963 605.959 114.503 606.592L115.116 607.314L115.423 607.68L115.501 607.772L115.54 607.818C115.542 607.829 115.511 607.834 115.497 607.841L115.291 607.938L113.643 608.744L112.036 609.516C111.719 609.668 111.623 609.726 111.448 609.818L110.964 610.076C109.675 610.76 108.397 611.479 107.146 612.235C104.632 613.74 102.182 615.346 99.819 617.068C98.6797 617.896 97.5856 618.775 96.5076 619.656L94.86 620.952C92.814 622.549 90.8413 624.208 88.9833 626.022C86.3246 628.609 83.8864 631.418 81.6288 634.366C80.3473 636.034 79.1108 637.752 78.1566 639.619C77.8891 640.141 77.6539 640.217 77.4672 639.847C77.1517 639.203 76.7693 638.602 77.032 637.532C77.2089 636.809 77.4137 636.159 77.9945 635.49C78.8224 634.529 79.3814 633.274 80.4427 632.517C80.5935 632.408 80.7335 632.201 80.8461 632.019C82.8166 628.828 85.5208 626.165 88.2554 623.624C89.1461 622.789 90.0155 621.92 90.9241 621.098C91.5241 620.579 92.1223 620.05 92.7435 619.564C93.6423 618.844 94.5981 618.183 95.4927 617.468C96.1747 616.936 96.7877 616.335 97.6418 616.18C97.8205 616.146 98.1812 615.871 98.2603 615.711C98.5685 615.082 99.1815 614.708 99.787 614.32C101.416 613.264 103.083 612.282 104.75 611.299C105.978 610.562 107.21 609.819 108.432 609.077L109.866 608.217C110.322 607.948 110.924 607.602 111.094 607.479L111.731 607.06C111.763 607.028 111.839 607.011 111.822 606.971L111.678 606.831L111.411 606.585L111.214 606.407L111.121 606.322L111.101 606.299L111.038 606.235L110.923 606.107C110.608 605.763 110.303 605.407 109.987 605.053C109.37 604.338 108.762 603.61 108.187 602.861C107.92 602.515 107.592 602.216 107.342 601.846C106.877 601.185 106.321 600.522 106.035 599.8C105.692 599.019 105.401 598.429 104.768 597.874C104.59 597.719 104.415 597.484 104.267 597.224C104.123 596.958 103.996 596.657 103.885 596.396C103.595 595.717 103.39 595.008 103.242 594.295C103.141 593.869 103.053 593.462 102.919 593.057C102.805 592.649 102.655 592.242 102.404 591.835C102.138 591.4 101.975 590.721 101.934 590.148C101.593 587.666 101.291 585.203 101.058 582.708C100.799 579.307 100.995 575.926 101.569 572.562C101.791 571.247 102.144 569.952 102.518 568.664C103.114 566.666 103.887 564.723 104.805 562.857C105.04 562.392 105.275 561.927 105.521 561.471L105.707 561.125C105.67 561.189 105.84 560.84 106.08 560.632C106.316 560.404 106.638 560.247 106.955 560.184C107.593 560.065 108.232 560.271 108.677 560.799C108.893 561.064 109.026 561.395 109.06 561.7C109.072 561.772 109.074 561.845 109.075 561.919L109.071 561.961L109.07 562.014L109.059 562.206L109.038 562.599C108.981 563.635 108.892 564.639 108.807 565.638C108.74 566.423 108.654 567.221 108.676 567.997C108.715 569.792 108.572 571.563 108.387 573.331C108.165 575.463 108.228 577.59 108.36 579.696C108.398 580.185 108.478 580.677 108.457 581.16C108.419 582.835 108.539 584.506 108.821 586.077C109.085 587.598 109.651 589.037 110.249 590.572C111.23 593.035 112.362 595.525 113.575 597.992C114.519 599.902 115.472 601.811 116.413 603.774C116.472 603.907 116.57 604.023 116.628 604.155C117.133 605.316 116.906 605.858 116.047 605.629C115.299 605.435 114.631 604.918 114.106 603.961L112.383 600.756L112.298 600.785Z" fill="#EBC464"/>
<path d="M80.0998 269.179C81.1047 266.574 85.5585 265.868 91.4479 263.624C92.0595 263.39 99.2791 260.604 104.109 256.561C108.615 252.791 114.935 244.945 113.616 236.871C108.437 205.165 51.3315 217.88 36.1122 233.27C24.1793 245.347 10.7944 269.797 20.7176 286.17C38.1439 314.924 82.4139 293.412 85.3487 283.616C87.4974 276.455 78.601 273.068 80.0998 269.179Z" fill="#F5E3B4"/>
<path d="M90.7794 262.626C94.0321 261.548 97.2574 260.106 100.271 258.492C101.622 257.764 102.921 256.971 104.106 256.018C105.291 255.065 106.385 253.958 107.327 252.702C107.804 252.044 108.394 251.407 108.892 250.719C109.787 249.479 110.604 248.179 111.277 246.818C111.551 246.175 111.759 245.476 112.009 244.892C113.393 242.066 113.831 238.742 112.78 235.732C112.636 233.214 111.409 230.979 110.067 228.943C109.709 228.443 109.344 227.948 108.982 227.441C108.585 226.972 108.145 226.525 107.73 226.074C107.329 225.598 106.837 225.226 106.358 224.846C105.866 224.473 105.419 224.067 104.86 223.794C104.293 223.489 103.686 223.076 103.161 222.693C99.8771 220.449 95.9027 219.308 91.9169 218.717C87.6211 218.078 83.2714 217.892 78.9007 217.873C77.7385 217.885 76.5524 217.955 75.3524 218.051C74.1609 218.198 72.9581 218.324 71.7862 218.524C68.9786 218.971 66.2128 219.634 63.4595 220.354C59.4759 221.408 55.5948 222.776 51.9126 224.534C47.0253 226.897 42.2208 229.658 38.3382 233.234C37.3952 234.141 36.4066 235.118 35.4668 236.152C34.5084 237.168 33.5872 238.22 32.6918 239.285C29.144 243.594 25.9762 248.271 23.4894 253.293C21.6463 257.072 20.1647 261.062 19.3212 265.145C18.9306 267.055 18.6747 268.976 18.586 270.9C18.5154 272.824 18.6044 274.736 18.8706 276.618C19.2834 279.397 20.1228 282.097 21.4959 284.503L22.013 285.405L22.6167 286.28C23.0238 286.854 23.3917 287.459 23.8418 288.01L25.1982 289.625C25.6445 290.169 26.1863 290.617 26.6751 291.12C28.7078 293.037 30.9981 294.66 33.5242 295.845C36.0537 297.019 38.7583 297.796 41.5305 298.234C42.8587 298.465 44.2191 298.532 45.5618 298.617C46.9241 298.619 48.2759 298.635 49.6355 298.527C50.3143 298.506 50.9955 298.438 51.6767 298.369C52.3579 298.301 53.0363 298.262 53.7127 298.15C58.7493 297.502 63.7386 296.142 68.4537 294.147C71.8247 292.72 75.0975 291.005 78.0262 288.903C79.4743 287.856 80.8875 286.726 82.0071 285.476C82.2824 285.164 82.5177 284.846 82.7749 284.534C82.9666 284.22 83.198 283.895 83.343 283.597C83.606 283.089 83.8067 282.273 83.8258 281.601C83.909 280.029 83.175 278.461 81.9685 276.886C81.3743 276.098 80.675 275.321 79.951 274.427C79.5906 273.975 79.215 273.494 78.8552 272.922C78.5026 272.347 78.1434 271.655 77.9821 270.747C77.8103 269.716 78.0597 268.958 78.2419 268.695C78.427 268.403 78.5458 268.506 78.6249 268.896C78.7658 269.575 79.0778 270.127 79.4873 270.654C79.9006 271.188 80.4143 271.669 81.1446 272.384C82.1428 273.343 83.1875 274.13 84.1705 275.631C84.8667 276.714 85.612 277.871 86.0205 279.209C86.4251 280.539 86.4159 282.025 85.8949 283.241C85.7767 283.589 85.5897 284.084 85.437 284.506C84.6848 286.341 83.3296 287.753 81.9421 289.035C80.5282 290.284 79.0137 291.431 77.4076 292.406C74.2258 294.413 70.7889 295.958 67.2952 297.275C65.018 298.147 62.6916 298.944 60.3209 299.572C58.7839 299.986 57.2189 300.294 55.6562 300.556C54.5087 300.716 53.3688 300.891 52.208 300.957C51.6314 300.997 51.0592 301.063 50.4749 301.089L48.7476 301.162C47.0126 301.221 45.2891 301.301 43.7633 300.734C43.4409 300.629 42.5382 300.558 42.2048 300.589C41.5713 300.677 40.8949 300.651 40.1918 300.575C39.5021 300.454 38.7963 300.269 38.0942 300.091C37.1366 299.865 36.2259 299.485 35.2884 299.193C34.371 298.835 33.4848 298.414 32.5884 298.027C31.7332 297.544 30.8537 297.101 30.0229 296.578C29.2236 296.01 28.3718 295.516 27.6074 294.892C25.267 293.158 23.2933 290.989 21.4877 288.721L20.5009 287.351L20.0074 286.666C19.8523 286.427 19.7116 286.18 19.5636 285.937C19.2678 285.45 18.961 284.96 18.7225 284.443C18.4769 283.93 18.1915 283.429 17.9889 282.893C17.0813 280.791 16.4752 278.547 16.1663 276.273C15.6687 272.453 15.9871 268.576 16.7162 264.849C16.894 263.99 17.0097 263.119 17.2386 262.27C17.627 260.702 18.1011 259.07 18.7306 257.695C19.4582 256.176 19.9763 254.989 20.3146 253.447C20.4162 253.016 20.6133 252.488 20.8463 251.941C21.1013 251.4 21.3888 250.851 21.6556 250.351C22.3534 249.087 23.1548 247.896 23.9681 246.746C24.9612 245.38 25.9026 244.124 26.7253 242.49C27.1568 241.607 28.0016 240.55 28.7287 239.721C30.3383 237.889 31.9478 236.057 33.6166 234.267C35.2491 232.477 37.1109 230.704 39.0923 229.207C44.5029 225.149 50.5986 222.308 56.8611 220.022C58.1 219.602 59.3384 219.163 60.5973 218.815L62.4869 218.269L64.3927 217.787C72.3134 215.852 80.5483 214.972 88.7619 215.815C89.5672 215.911 90.3763 216.013 91.1854 216.116C91.9955 216.255 92.7978 216.38 93.5888 216.483C97.2613 217.039 100.893 218.261 104.138 220.278C108.06 222.633 111.436 226.088 113.53 230.263C113.815 230.728 113.98 231.247 114.193 231.75C114.395 232.25 114.586 232.765 114.751 233.265C114.982 234.164 115.136 235.076 115.341 235.979C115.453 236.415 115.509 236.901 115.551 237.394C115.607 237.879 115.663 238.364 115.643 238.844C115.686 240.791 115.382 242.709 114.822 244.507C113.708 248.118 111.781 251.324 109.414 254.066C108.447 255.169 107.424 256.22 106.316 257.197C105.207 258.173 103.995 259.058 102.776 259.845C100.321 261.419 97.7663 262.669 95.1575 263.782C94.144 264.211 93.1406 264.608 92.0857 264.976C91.0412 265.33 90.0144 265.665 88.9796 265.968C86.9323 266.598 84.835 267.116 83.0642 267.903C82.8491 268.017 82.6202 268.158 82.4271 268.279C81.5355 268.781 81.1631 269.136 80.8549 269.3C80.5314 269.435 80.2458 269.348 80.1909 268.623C80.1894 267.998 80.5582 267.222 81.2322 266.588C81.9023 265.946 82.8155 265.432 83.8805 265.03C86.2342 264.163 88.536 263.545 90.7822 262.735L90.7794 262.626Z" fill="#EBC464"/>
<path d="M53.4384 290.532C55.4943 292.786 58.9528 292.647 61.111 291.81C64.7801 290.39 67.8394 285.735 66.1149 281.667C64.8735 278.73 61.4269 276.784 58.1778 277.438C54.2311 278.233 52.8631 282.402 52.6137 283.161C52.327 284.022 51.0499 287.912 53.4384 290.532Z" fill="#EBC464"/>
<path d="M55.5627 290.671C55.8983 291.007 56.3266 291.276 56.7778 291.588C57.1808 291.861 57.6525 292.125 58.1404 291.883C58.2589 291.83 58.3979 291.866 58.5249 291.863C58.7571 291.849 58.996 291.814 59.2238 291.776C59.3285 291.748 59.4117 291.593 59.5177 291.619C60.0297 291.751 60.558 291.672 60.9147 291.271C61.376 291.412 61.65 291.045 61.9153 290.766C62.192 290.508 62.5471 290.328 62.6926 289.91C62.7261 289.8 62.7964 289.708 62.901 289.68C63.5283 289.493 63.8999 288.964 64.2136 288.447C64.5517 287.89 64.9423 287.397 65.4785 286.918C65.7515 286.653 65.9022 286.297 65.9803 285.943C66.1038 285.518 66.0888 285.075 66.1106 284.65C66.1058 284.036 66.0168 283.402 65.6479 282.9C65.1836 282.218 64.6757 281.678 64.1262 281.217C63.8551 280.984 63.6795 280.654 63.4504 280.362C62.9779 279.786 62.4046 279.245 61.7017 278.892C61.1755 278.629 60.5909 278.499 60.0205 278.499C59.4827 278.491 58.9633 278.639 58.4803 278.786C57.0417 279.211 55.9901 280.277 55.2884 281.672C55.1263 282.007 55.0157 282.369 54.9051 282.732C54.8443 282.911 54.7797 283.084 54.6969 283.257C54.563 283.558 54.4127 283.932 54.294 284.262C54.1792 284.599 54.0753 284.94 54.0077 285.28C53.815 286.265 53.854 287.22 54.0847 287.999C54.2014 288.442 54.3797 288.881 54.8349 289.062C54.9523 289.11 54.8438 289.269 54.5226 289.495C53.9621 289.876 53.38 290.269 52.8379 290.236C52.4811 290.205 52.1768 290.1 52.0997 289.782C52.0645 289.543 51.929 289.358 51.8293 289.154C51.7511 288.938 51.6872 288.714 51.8259 288.456C51.8675 288.379 51.8294 288.307 51.7878 288.246C51.4065 287.686 51.2947 287.009 51.3219 286.369C51.3453 285.722 51.4928 285.101 51.6409 284.497C51.7324 284.099 51.7728 283.691 51.8715 283.289C51.9376 283.033 52.0112 282.791 52.1136 282.535C52.2605 282.171 52.4738 281.846 52.6026 281.483C52.7083 281.215 52.729 280.891 53.2115 280.864C53.3094 280.858 53.364 280.719 53.3144 280.626C53.1016 280.26 53.2785 280.074 53.4296 279.874C53.8374 279.344 54.3306 278.888 54.8167 278.436C55.1862 278.111 55.5552 277.767 55.9572 277.434C56.5685 276.906 57.2944 276.455 58.1042 276.162C58.7846 275.919 59.5069 275.893 60.2258 275.878C60.393 275.881 60.5659 275.826 60.7298 275.84C61.0355 275.861 61.3732 275.856 61.6214 276.046C61.8854 276.283 62.1018 276.361 62.4927 276.162C62.7115 276.054 62.9613 276.161 63.1461 276.283C63.3791 276.444 63.5738 276.672 63.7398 276.914C63.9436 277.211 64.103 277.475 64.5172 277.476C64.746 277.473 64.9077 277.691 65.0074 277.895C65.4549 278.77 66.0444 279.376 66.6296 280.095C67.4133 281.049 68.0401 282.261 68.2919 283.58C68.3567 283.84 68.3742 284.097 68.3664 284.359C68.3658 284.617 68.3799 284.886 68.3429 285.145C68.2138 286.768 67.4996 288.243 66.5597 289.415C66.3694 289.645 66.1682 289.872 66.0443 290.14C65.7444 290.769 65.2372 291.251 64.6504 291.6C63.9493 292.029 63.3604 292.581 62.6875 293.115C62.5308 293.235 62.3711 293.384 62.18 293.44C60.8494 293.827 59.6214 294.388 58.2438 294.358C57.1418 294.31 56.0362 293.979 55.0449 293.43C54.2714 293.014 53.6059 292.421 53.0766 291.755C53.0427 291.709 52.9806 291.696 52.9539 291.646C52.6743 291.224 52.9583 290.825 53.6282 290.459C54.2227 290.124 54.5973 289.998 54.805 290.163C55.0245 290.368 55.2623 290.573 55.5283 290.744L55.5627 290.671Z" fill="#EBC464"/>
<path d="M36.9847 285.244C37.4506 284.996 37.8884 284.643 38.3582 284.264C38.7932 283.941 39.1965 283.524 39.1745 282.947C39.1598 282.798 39.2583 282.672 39.3018 282.529C39.3789 282.277 39.445 282.021 39.4891 281.758C39.5079 281.637 39.3986 281.484 39.4651 281.384C39.7869 280.9 39.9281 280.319 39.6964 279.78C40.0162 279.361 39.7691 278.932 39.6241 278.521C39.4792 278.111 39.4752 277.671 39.1501 277.32C39.0642 277.228 39.0142 277.116 39.0257 277C39.0983 276.29 38.7768 275.651 38.4065 275.094C38.0094 274.487 37.707 273.884 37.4267 273.15C37.2607 272.769 36.9589 272.479 36.6261 272.252C36.2375 271.971 35.7791 271.801 35.3426 271.638C35.0336 271.489 34.684 271.455 34.3554 271.391C34.01 271.381 33.6718 271.368 33.3364 271.464C32.4445 271.672 31.6608 271.997 30.9479 272.386C30.7687 272.482 30.5704 272.541 30.376 272.608C30.1739 272.66 29.9718 272.713 29.7778 272.798C28.9971 273.094 28.1938 273.503 27.559 274.108C27.0839 274.563 26.7023 275.125 26.4636 275.731C26.2382 276.292 26.1557 276.898 26.1156 277.462C25.9554 279.148 26.5657 280.847 27.6161 282.284C27.8609 282.623 28.1812 282.931 28.4529 283.182C28.5531 283.266 28.7283 283.44 28.8481 283.578C29.3598 284.125 29.9508 284.647 30.6073 285.034C31.5552 285.587 32.5801 285.888 33.5254 285.918C34.0565 285.948 34.6183 285.897 35.015 285.502C35.125 285.397 35.2452 285.554 35.342 285.926C35.5006 286.586 35.6707 287.269 35.4296 287.783C35.2636 288.111 35.0489 288.382 34.6993 288.347C34.2035 288.28 33.6855 288.62 33.2276 288.192C33.168 288.132 33.0701 288.138 32.9908 288.162C32.276 288.34 31.5357 288.228 30.8862 287.976C30.2258 287.721 29.617 287.355 29.044 286.97C28.6707 286.718 28.2552 286.525 27.8814 286.255C27.6479 286.076 27.4145 285.896 27.2092 285.684C26.8999 285.379 26.6513 285.033 26.3448 284.7C26.1243 284.458 25.8325 284.273 26.0096 283.811C26.0507 283.715 25.9386 283.591 25.8296 283.594C25.4083 283.597 25.2857 283.35 25.1741 283.106C24.8559 282.456 24.6166 281.765 24.4136 281.073C24.2516 280.561 24.0785 280.046 23.9303 279.508C23.7092 278.679 23.4863 277.776 23.5643 276.851C23.6135 276.08 23.8486 275.329 24.1242 274.603C24.1927 274.438 24.2095 274.245 24.2889 274.083C24.4338 273.785 24.5597 273.451 24.8383 273.266C25.1604 273.076 25.341 272.897 25.2893 272.437C25.2756 272.187 25.4883 271.981 25.6699 271.839C25.9084 271.647 26.2257 271.552 26.5138 271.454C26.8669 271.339 27.218 271.29 27.3635 270.872C27.4597 270.656 27.7372 270.572 27.9723 270.53C29.0218 270.376 29.8585 269.995 30.8055 269.665C32.0693 269.222 33.4986 269.004 34.9387 269.203C35.497 269.302 36.0534 269.465 36.5792 269.71C38.2611 270.415 39.526 271.858 40.2725 273.346C40.429 273.64 40.5568 273.949 40.7486 274.206C41.2326 274.804 41.4366 275.532 41.5278 276.256C41.6266 277.133 41.8945 277.947 42.106 278.828C42.1584 279.03 42.2437 279.242 42.2164 279.45C42.1514 280.175 42.0826 280.892 42.0176 281.617C41.9412 282.32 41.8323 283.031 41.5624 283.699C41.1217 284.789 40.3773 285.793 39.4758 286.623C38.7952 287.279 37.9202 287.727 37.0745 288.039C37.0205 288.059 36.9746 288.111 36.9206 288.13C36.4013 288.278 36.1078 287.882 35.9975 287.122C35.8929 286.442 35.9223 286.031 36.187 285.871C36.3299 285.777 36.4804 285.697 36.6381 285.613L37.0735 285.307L36.9847 285.244Z" fill="#EBC464"/>
<path d="M38.6474 260.182C39.1437 260.267 39.6671 260.283 40.2341 260.294C40.7433 260.317 41.2946 260.281 41.6025 259.823C41.6757 259.701 41.8315 259.682 41.9347 259.6C42.1345 259.457 42.3342 259.313 42.5116 259.145C42.5895 259.067 42.5958 258.889 42.7004 258.861C43.2341 258.705 43.6542 258.371 43.7635 257.816C44.2508 257.695 44.3079 257.232 44.4104 256.837C44.5315 256.46 44.7587 256.109 44.6931 255.675C44.6683 255.559 44.687 255.439 44.7649 255.36C45.232 254.872 45.3131 254.213 45.3369 253.584C45.3814 252.907 45.4706 252.28 45.6923 251.573C45.8134 251.196 45.72 250.813 45.6271 250.449C45.5599 250.236 45.4602 250.031 45.3644 249.834L45.0194 249.273C44.6681 248.751 44.2094 248.287 43.6158 248.088C42.8311 247.807 42.0731 247.713 41.3313 247.685C40.9606 247.68 40.6039 247.511 40.217 247.441C39.45 247.279 38.6017 247.207 37.7767 247.333C37.1581 247.433 36.5866 247.672 36.0609 247.998C35.5711 248.305 35.1681 248.74 34.7714 249.136C33.5921 250.325 32.8607 251.837 32.8688 253.286C32.8633 253.638 32.9376 253.985 33.0152 254.321C33.0485 254.487 33.0747 254.657 33.0937 254.831C33.1683 255.472 33.3302 256.122 33.647 256.717C34.0973 257.563 34.7728 258.261 35.5343 258.776C35.9597 259.074 36.4421 259.323 36.9809 259.229C37.1257 259.207 37.1341 259.396 36.9982 259.763C36.7566 260.397 36.5011 261.058 36.0399 261.349C35.7322 261.532 35.4264 261.648 35.1738 261.433C34.8315 261.119 34.2439 261.156 34.0981 260.571C34.0815 260.488 33.997 260.45 33.9239 260.434C32.5733 260.04 31.8209 258.747 31.3039 257.569C31.1231 257.178 30.8921 256.813 30.7434 256.396C30.6313 256.133 30.577 255.859 30.5118 255.58C30.4433 255.175 30.4508 254.757 30.3932 254.356C30.3457 254.059 30.2355 253.731 30.636 253.481C30.7182 253.428 30.7178 253.272 30.629 253.209C30.2848 252.96 30.347 252.697 30.417 252.448C30.5665 251.761 30.8698 251.121 31.1592 250.507C31.3835 250.047 31.5931 249.577 31.8284 249.12C32.1914 248.403 32.5975 247.662 33.1553 247.034C33.6291 246.524 34.2069 246.106 34.7961 245.709C34.9356 245.626 35.0518 245.481 35.1914 245.398C35.4527 245.249 35.7309 245.046 36.0438 245.063C36.4006 245.094 36.6246 245.048 36.8217 244.658C36.9322 244.434 37.2036 244.391 37.4176 244.378C37.6932 244.36 37.986 244.443 38.2716 244.53C38.6049 244.638 38.9024 244.765 39.2264 244.509C39.4042 244.36 39.6645 244.451 39.8737 244.533C40.7743 244.946 41.6412 245.036 42.5802 245.245C43.8296 245.518 45.1414 246.098 46.1553 247.104C46.3706 247.283 46.5291 247.512 46.6947 247.737C46.8674 247.957 47.0115 248.193 47.1379 248.448C47.9981 249.977 48.0868 251.733 47.8464 253.269C47.7961 253.572 47.7094 253.875 47.7355 254.184C47.7684 254.902 47.5497 255.58 47.1982 256.181C46.7883 256.914 46.5393 257.691 46.2111 258.491C46.1322 258.671 46.0795 258.883 45.949 259.036C45.7047 259.285 45.4714 259.538 45.2424 259.816L44.5321 260.59C44.0651 261.078 43.5503 261.545 42.9449 261.877C41.9634 262.418 40.8229 262.713 39.6874 262.774C38.8027 262.841 37.9158 262.678 37.1177 262.441C37.0628 262.424 37.0017 262.447 36.9539 262.427C36.4916 262.25 36.4791 261.759 36.8211 261.071C37.1177 260.453 37.3782 260.131 37.6624 260.163C37.8262 260.177 37.9868 260.202 38.1544 260.223L38.6564 260.251L38.6474 260.182Z" fill="#EBC464"/>
<path d="M56.0911 242.871C56.399 243.121 56.816 243.23 57.2644 243.433C57.6684 243.604 58.1259 243.738 58.4772 243.413C58.5661 243.338 58.6898 243.345 58.8016 243.313C58.9999 243.254 59.1943 243.187 59.3812 243.106C59.4672 243.06 59.5103 242.899 59.6087 242.911C60.0897 242.968 60.5297 242.844 60.7765 242.409C61.2225 242.521 61.3981 242.142 61.6128 241.872C61.8313 241.608 62.1504 241.447 62.2419 241.049C62.2683 240.943 62.3281 240.865 62.4184 240.845C62.9773 240.685 63.3072 240.234 63.5717 239.78C63.8682 239.3 64.2215 238.91 64.709 238.512C64.9833 238.301 65.0623 237.983 65.1528 237.687C65.1845 237.504 65.1979 237.322 65.2076 237.133C65.192 236.948 65.1692 236.767 65.1755 236.589C65.1224 236.075 64.9531 235.567 64.5622 235.195C64.059 234.7 63.5305 234.346 63.0033 234.047C62.7417 233.901 62.5713 233.633 62.3441 233.414C61.8935 232.982 61.3525 232.571 60.7255 232.344C60.2527 232.182 59.7464 232.129 59.2615 232.203C58.8091 232.269 58.3996 232.451 58.0378 232.652C56.9436 233.189 56.2068 234.207 55.767 235.472C55.666 235.783 55.6161 236.104 55.5519 236.433C55.5159 236.59 55.4728 236.751 55.4187 236.908C55.3206 237.19 55.2124 237.506 55.1229 237.839C55.0291 238.146 54.9534 238.453 54.9102 238.752C54.7687 239.61 54.8158 240.458 54.9836 241.05C55.0756 241.378 55.2067 241.676 55.5411 241.682C55.6247 241.684 55.5234 241.839 55.2471 242.115C54.7648 242.574 54.2357 243.049 53.7102 243.099C53.3834 243.107 53.0443 243.058 53.0001 242.75C52.9206 242.342 52.4589 242.045 52.7477 241.55C52.786 241.484 52.7516 241.42 52.703 241.363C51.9938 240.342 52.2751 239.125 52.5031 238.102C52.5779 237.759 52.5757 237.392 52.6361 237.056C52.674 236.833 52.7229 236.614 52.7971 236.391C52.8943 236.072 53.0645 235.77 53.1436 235.452C53.2063 235.207 53.1845 234.924 53.6374 234.876C53.7353 234.87 53.7684 234.742 53.6972 234.66C53.4347 234.34 53.5719 234.166 53.6834 233.978C53.9904 233.483 54.3528 233.023 54.7376 232.588C55.0125 232.258 55.2869 231.909 55.5905 231.564C56.0528 231.032 56.6015 230.473 57.2939 230.132C57.8635 229.82 58.5037 229.709 59.1405 229.609C59.2891 229.594 59.4286 229.511 59.581 229.503C59.8566 229.485 60.1533 229.438 60.3896 229.588C60.6522 229.77 60.8466 229.841 61.1702 229.568C61.3518 229.425 61.5863 229.503 61.7591 229.585C61.9869 229.685 62.1779 229.905 62.3535 230.097C62.5702 230.331 62.7186 230.593 63.0975 230.492C63.3034 230.447 63.4609 230.639 63.574 230.8C64.0511 231.557 64.6437 231.996 65.2643 232.54C66.0859 233.271 66.8442 234.229 67.2308 235.421C67.3238 235.648 67.3485 235.901 67.3837 236.14C67.4227 236.386 67.4435 236.633 67.428 236.88C67.459 237.664 67.2384 238.407 66.9651 239.086C66.6623 239.744 66.2855 240.35 65.8371 240.855C65.6717 241.063 65.4729 241.242 65.3738 241.488C65.1231 242.054 64.6791 242.447 64.1782 242.75C63.5733 243.1 63.1287 243.613 62.6258 244.12C62.5054 244.239 62.404 244.394 62.253 244.456C61.1488 244.888 60.2837 245.579 59.1238 245.819C58.2017 245.988 57.1905 245.938 56.1814 245.684C55.4024 245.482 54.6437 245.077 54.0412 244.533C54.004 244.497 53.9419 244.484 53.9047 244.449C53.5829 244.087 53.8301 243.67 54.4247 243.197C54.9586 242.765 55.2549 242.562 55.4277 242.644C55.6087 242.76 55.8155 242.889 56.0504 242.984L56.0911 242.871Z" fill="#EBC464"/>
<path d="M81.6413 237.087C81.8752 237.423 82.1616 237.684 82.4322 238.037C82.6656 238.354 82.9854 238.644 83.3772 238.481C83.4704 238.432 83.5664 238.491 83.6609 238.496C83.8286 238.517 84.0063 238.505 84.173 238.49C84.2528 238.485 84.3179 238.33 84.3914 238.365C84.7562 238.566 85.1618 238.516 85.3923 238.154C85.7638 238.333 85.9331 237.995 86.1014 237.758C86.2664 237.532 86.5354 237.398 86.548 237.042C86.5529 236.947 86.5911 236.881 86.6704 236.857C87.1425 236.707 87.342 236.269 87.4875 235.851C87.6392 235.393 87.8726 235.002 88.2689 234.589C88.4702 234.362 88.521 234.077 88.5355 233.794C88.5634 233.466 88.4786 233.134 88.4267 232.812C88.353 232.345 88.1709 231.899 87.81 231.567C87.3336 231.122 86.8628 230.756 86.4044 230.448C86.1753 230.294 86.067 230.039 85.9014 229.814C85.5707 229.383 85.1888 228.943 84.6951 228.672C84.3269 228.482 83.9037 228.412 83.4934 228.419C83.1126 228.447 82.7457 228.587 82.4151 228.727C81.4112 229.105 80.6502 229.887 80.2388 230.842C80.1393 231.07 80.1023 231.329 80.0611 231.563C80.0314 231.68 80.0088 231.793 79.9572 231.903C79.793 232.303 79.6734 232.735 79.6726 233.131C79.6727 233.701 79.883 234.252 80.2132 234.803C80.3993 235.118 80.6221 235.45 81.061 235.566C81.1928 235.606 81.1063 235.772 80.8004 236.026C80.2775 236.461 79.7484 236.936 79.2788 237.039C78.9644 237.105 78.6849 237.116 78.6096 236.871C78.51 236.528 78.0348 236.413 78.2 235.911C78.2201 235.846 78.1752 235.796 78.127 235.757C77.2136 235.13 77.1174 233.93 77.1974 232.94C77.2253 232.612 77.173 232.272 77.2119 231.948C77.2245 231.73 77.2882 231.521 77.3447 231.316C77.4462 231.023 77.6025 230.746 77.6968 230.457C77.76 230.23 77.7569 229.965 78.204 229.975C78.2985 229.98 78.3321 229.87 78.2753 229.781C78.0453 229.453 78.1867 229.304 78.3063 229.148C78.6519 228.743 79.0276 228.378 79.4296 228.044C79.7207 227.779 80.0117 227.513 80.3062 227.237C80.7751 226.822 81.3047 226.365 81.9449 226.116C82.4805 225.895 83.0605 225.844 83.6442 225.8C83.7823 225.8 83.9223 225.735 84.057 225.746C84.3078 225.75 84.5906 225.728 84.7877 225.909C85.0107 226.103 85.1692 226.193 85.5085 225.966C85.7049 225.834 85.9074 225.938 86.0554 226.043C86.2478 226.18 86.4019 226.383 86.5202 226.605C86.6686 226.867 86.7764 227.104 87.1352 227.069C87.3272 227.05 87.4589 227.228 87.518 227.408C87.828 228.163 88.2796 228.631 88.776 229.149C89.4405 229.844 90.05 230.66 90.4424 231.656C90.5869 232.048 90.6592 232.461 90.7024 232.87C90.8515 234.152 90.4991 235.425 89.8984 236.509C89.7731 236.723 89.644 236.929 89.5884 237.171C89.4724 237.748 89.0808 238.204 88.6177 238.561C88.0471 238.976 87.6178 239.517 87.0495 240.022C86.9142 240.131 86.7909 240.279 86.6251 240.331C85.4899 240.687 84.2596 241.158 83.0584 240.924C82.1089 240.73 81.3292 240.216 80.6727 239.692C80.1681 239.279 79.7562 238.8 79.3839 238.308C79.3577 238.276 79.3104 238.273 79.2841 238.241C79.0837 237.934 79.3491 237.517 79.948 237.069C80.4718 236.671 80.834 236.487 81.012 236.631C81.2016 236.797 81.3844 236.985 81.5849 237.154L81.6413 237.087Z" fill="#EBC464"/>
<path d="M95.5832 243.453C95.701 243.795 95.901 244.084 96.0813 244.457C96.2353 244.798 96.473 245.141 96.87 245.04C96.9746 245.012 97.0386 245.097 97.1298 245.113C97.2907 245.156 97.4445 245.203 97.6117 245.206C97.6881 245.211 97.7866 245.085 97.8425 245.138C98.1365 245.414 98.5162 245.488 98.825 245.204C99.1195 245.498 99.3629 245.212 99.588 245.065C99.8054 244.903 100.084 244.874 100.218 244.554C100.249 244.474 100.302 244.418 100.378 244.423C100.863 244.487 101.166 244.141 101.435 243.833C101.72 243.488 102.044 243.232 102.543 243.013C102.809 242.89 102.937 242.647 103.033 242.412C103.156 242.125 103.181 241.808 103.224 241.509C103.289 241.079 103.252 240.629 103.013 240.232C102.698 239.71 102.357 239.294 102.032 238.924C101.871 238.743 101.839 238.493 101.749 238.256C101.57 237.799 101.329 237.311 100.942 236.947C100.655 236.667 100.284 236.506 99.9148 236.417C99.5638 236.328 99.1945 236.378 98.8649 236.415C98.3681 236.45 97.9032 236.596 97.4622 236.822C97.0316 237.033 96.5718 237.379 96.318 237.679C96.2128 237.827 96.1023 238.052 96.0124 238.229C95.9751 238.331 95.9043 238.406 95.8374 238.487C95.5907 238.784 95.3564 239.139 95.2319 239.527C95.0538 240.091 95.0401 240.687 95.1377 241.234C95.189 241.537 95.2451 241.885 95.5871 242.043C95.6754 242.088 95.533 242.201 95.1813 242.369C94.5635 242.643 93.9169 242.932 93.4398 242.883C93.1193 242.851 92.8662 242.756 92.8745 242.512C92.9129 242.17 92.51 241.897 92.8671 241.513C92.9129 241.461 92.8824 241.404 92.8556 241.354C92.2701 240.479 92.6029 239.428 92.9555 238.587C93.0608 238.301 93.1145 237.987 93.2379 237.7C93.313 237.513 93.4102 237.333 93.533 237.166C93.6975 236.922 93.9322 236.723 94.0895 236.483C94.2157 236.306 94.278 236.042 94.6964 236.206C94.788 236.24 94.8511 236.151 94.8159 236.051C94.6824 235.662 94.8869 235.562 95.0408 235.471C95.4699 235.205 95.9305 235.034 96.3797 234.841C96.7103 234.701 97.0476 234.54 97.3883 234.368C97.923 234.111 98.5303 233.852 99.1752 233.784C99.7222 233.723 100.266 233.829 100.8 233.95C100.924 233.976 101.069 233.954 101.189 233.991C101.41 234.076 101.679 234.098 101.808 234.324C101.942 234.574 102.083 234.683 102.45 234.543C102.659 234.469 102.829 234.599 102.931 234.738C103.069 234.912 103.159 235.132 103.212 235.37C103.288 235.652 103.32 235.902 103.67 235.936C103.863 235.953 103.926 236.158 103.942 236.343C104.027 237.126 104.35 237.662 104.678 238.279C105.113 239.096 105.457 240.053 105.512 241.073C105.53 241.468 105.468 241.87 105.379 242.257C105.124 243.488 104.359 244.539 103.452 245.307C103.263 245.454 103.078 245.589 102.945 245.789C102.634 246.258 102.147 246.554 101.609 246.684C100.974 246.856 100.431 247.201 99.8022 247.471C99.6512 247.533 99.5089 247.646 99.356 247.635C98.2722 247.587 97.1442 247.801 96.1122 247.366C95.2971 247.027 94.6311 246.416 94.0985 245.761C93.6823 245.256 93.3913 244.675 93.1729 244.092C93.1538 244.056 93.1061 244.036 93.0942 243.996C92.9941 243.635 93.375 243.331 94.0769 243.077C94.6995 242.847 95.0821 242.753 95.1881 242.918C95.3055 243.104 95.4086 243.297 95.5369 243.487L95.5832 243.453Z" fill="#EBC464"/>
</svg>
