<svg width="710" height="139" viewBox="0 0 710 139" fill="none" xmlns="http://www.w3.org/2000/svg">
<path d="M646.444 100.278L654.567 84.159C654.624 84.0439 654.734 83.9576 654.86 83.9289L693.224 75.5243C693.339 75.5013 693.46 75.5243 693.558 75.5876L708.612 85.7467C708.779 85.8618 708.848 86.0746 708.773 86.2644L688.829 136.663C688.72 136.939 688.369 137.025 688.145 136.83L646.548 100.795C646.392 100.669 646.352 100.456 646.444 100.278Z" fill="#F1D1D5"/>
<path d="M649.373 92.6271C650.494 90.654 651.599 88.6464 652.749 86.7135C652.997 86.2994 653.238 85.8909 653.486 85.4767L653.848 84.8554L654.222 84.1881C654.303 84.0558 654.366 83.912 654.481 83.8142C654.596 83.7049 654.751 83.6761 654.901 83.6416L655.729 83.4633C656.241 83.3483 656.753 83.2102 657.265 83.0548C657.771 82.8995 658.341 82.8132 658.876 82.6982C659.854 82.4796 660.837 82.261 661.81 82.0367C662.253 81.9331 662.701 81.7318 663.121 81.6743C665.192 81.3866 667.229 80.9839 669.236 80.3627C670.876 80.2304 672.406 79.7298 673.994 79.3157C675.576 78.9015 677.215 78.5851 678.763 78.0789C679.171 77.9408 679.648 77.82 680.08 77.7567C682.703 77.3713 685.269 76.7385 687.857 76.123C689.244 75.7951 690.636 75.4902 692.028 75.2198L692.551 75.1221L692.862 75.0646C692.983 75.0415 693.098 75.0185 693.219 75.007C693.455 74.9725 693.69 75.0703 693.88 75.2084L694.387 75.5765C694.956 76.0022 695.52 76.4336 696.078 76.8708C697.269 77.8027 698.58 78.6829 699.863 79.5458C701.393 80.5755 702.952 81.5534 704.488 82.5659C705.161 83.0031 705.828 83.4403 706.496 83.8775L708.613 85.2293C708.889 85.4249 709.188 85.609 709.24 85.9657C709.274 86.2878 709.142 86.6042 709.021 86.9436L708.739 87.7605L708.486 88.5198C707.376 91.8966 706.214 95.2791 705.006 98.6444C704.39 100.359 703.648 102.056 702.941 103.747C701.525 107.141 700.076 110.512 698.678 113.912C697.631 116.466 696.63 119.049 695.646 121.632C694.749 124.048 693.852 126.464 692.948 128.88L690.918 134.241L690.411 135.582L690.009 136.629C689.871 137.037 689.669 137.394 689.445 137.607C689.336 137.71 689.238 137.808 689.083 137.889C688.933 137.969 688.749 138.021 688.571 138.038C688.392 138.05 688.243 138.032 688.105 137.992C687.961 137.963 687.8 137.894 687.639 137.814C687.305 137.63 686.989 137.302 686.661 137.043L685.971 136.456L677.204 129.07L672.964 125.555C672.262 124.968 671.566 124.364 670.876 123.76L663.208 117.007L652.163 107.406C650.08 105.582 648.015 103.747 645.829 102.061C645.754 101.998 645.685 101.946 645.622 101.895L645.559 101.837L645.472 101.751C645.415 101.693 645.369 101.63 645.323 101.567C645.231 101.44 645.167 101.308 645.116 101.181C644.92 100.664 645.012 100.238 645.104 100.002C645.208 99.7661 645.305 99.6914 645.34 99.7316C645.38 99.7719 645.351 99.9272 645.369 100.186C645.403 100.635 645.639 100.98 645.938 101.175C646.007 101.216 646.105 101.273 646.157 101.279H646.289C646.381 101.285 646.473 101.291 646.571 101.302C646.962 101.348 647.417 101.486 648.009 101.808C648.815 102.251 649.545 102.688 650.339 103.471C651.495 104.61 652.928 105.553 653.94 106.819C654.084 106.997 654.337 107.198 654.55 107.36C658.364 110.23 661.867 113.498 665.457 116.656C666.63 117.685 667.844 118.675 669.041 119.687L671.342 121.678C672.452 122.65 673.533 123.651 674.661 124.594C675.512 125.308 676.387 125.94 676.956 126.815C677.077 126.999 677.526 127.367 677.727 127.448C678.492 127.764 679.165 128.385 679.856 128.995C681.714 130.629 683.554 132.285 685.43 133.908L686.477 134.799L687.483 135.645C687.725 135.829 687.938 136.036 688.179 136.18C688.318 136.232 688.484 136.14 688.53 135.996L688.674 135.576C689.106 134.322 689.543 133.074 689.974 131.82C690.446 130.485 690.912 129.145 691.384 127.81C692.189 125.578 693.046 123.357 693.88 121.125C694.07 120.608 694.22 120.084 694.415 119.572C694.778 118.629 695.106 117.622 695.543 116.771C696.026 115.827 696.348 115.074 696.486 114.084C696.567 113.526 696.895 112.727 697.177 112.077C697.539 111.243 697.953 110.443 698.362 109.649C698.851 108.7 699.322 107.814 699.581 106.681C699.719 106.077 700.087 105.3 700.404 104.679C701.796 101.918 702.918 99.0183 703.993 96.0902L706.024 90.5045L707.031 87.7087L707.284 87.0126L707.41 86.6617C707.439 86.5812 707.433 86.5869 707.439 86.5754L707.445 86.5409C707.451 86.4949 707.474 86.4547 707.462 86.4086C707.445 86.3626 707.387 86.3511 707.353 86.3281L707.29 86.2993L706.962 86.0922C705.564 85.2063 704.183 84.2802 702.797 83.3655C700.64 81.9446 698.505 80.5007 696.377 79.0395L693.225 76.8594C693.196 76.8306 693.155 76.796 693.109 76.819H693.092L693.04 76.8306L692.805 76.8766L692.333 76.9744L690.44 77.3598C689.451 77.5612 688.438 77.7567 687.478 78.0213C685.251 78.6311 683.002 79.0913 680.741 79.5055C678.015 80.0003 675.34 80.6848 672.671 81.3809C672.049 81.542 671.428 81.7375 670.801 81.8526C666.446 82.6694 662.184 83.843 657.858 84.7404L656.212 85.074L655.798 85.1545L655.695 85.1776L655.643 85.1891C655.637 85.1891 655.637 85.1891 655.637 85.1891L655.631 85.1833C655.62 85.1776 655.603 85.1776 655.591 85.1891C654.452 87.2773 653.319 89.3655 652.18 91.4479C650.845 93.8582 649.516 96.2685 648.182 98.6789C648.095 98.8342 648.026 99.0183 647.94 99.1736C647.169 100.537 646.64 100.83 646.514 99.933C646.398 99.1391 646.629 98.0921 647.273 96.8323L649.453 92.6847L649.373 92.6271Z" fill="#F8AFB8"/>
<path d="M648.792 99.1449C649.568 99.0817 650.339 98.9838 651.116 98.9666C651.812 98.9551 652.496 98.9493 653.135 98.633C653.302 98.5524 653.497 98.5409 653.681 98.5007C654.009 98.4201 654.343 98.3453 654.671 98.2533C654.82 98.213 654.958 98.0807 655.102 98.0807C655.827 98.0749 656.523 97.9599 657.173 97.6263C657.76 97.7125 658.255 97.4364 658.778 97.2408C659.302 97.051 659.865 96.9647 660.36 96.6771C660.492 96.6023 660.653 96.5448 660.803 96.539C661.718 96.516 662.575 96.2456 663.443 95.9925C664.375 95.7222 665.325 95.5611 666.308 95.5381C666.832 95.5266 667.349 95.4 667.861 95.2792C668.471 95.1353 669.064 94.934 669.668 94.7729C670.542 94.5428 671.405 94.2782 672.245 93.9215C673.367 93.4441 674.511 93.0126 675.668 92.6215C676.254 92.4201 676.881 92.3454 677.497 92.2418C678.728 92.0232 679.965 91.8506 681.184 91.609C682.105 91.4307 683.014 91.1949 683.917 90.9475C684.763 90.7174 685.591 90.4297 686.431 90.1939C688.927 89.4921 691.43 88.8133 693.932 88.1172C694.53 87.9504 695.123 87.7491 695.721 87.5765C696.02 87.4902 696.325 87.4154 696.63 87.3521C697.763 87.1163 698.897 86.8977 700.024 86.6446C701.641 86.2879 703.246 85.8967 704.862 85.5343C705.777 85.333 706.697 85.1546 707.572 84.7922C707.819 84.6887 707.928 84.798 707.894 85.0856C707.836 85.5918 707.819 86.1038 707.451 86.4893C707.198 86.7481 706.956 86.9552 706.571 86.9725C706.013 86.9955 705.501 87.3464 704.908 87.1853C704.822 87.1623 704.718 87.2025 704.638 87.237C703.142 87.9216 701.52 88.1229 699.932 88.4566C699.414 88.5659 698.908 88.7385 698.396 88.8708C698.063 88.9571 697.729 89.0376 697.395 89.1124C696.906 89.2159 696.412 89.285 695.928 89.4231C695.566 89.5266 695.232 89.6992 694.835 89.4978C694.755 89.4576 694.565 89.5151 694.513 89.5956C694.312 89.912 694.007 89.9523 693.702 90.0156C692.879 90.1882 692.051 90.332 691.234 90.5276C690.63 90.6714 690.032 90.8554 689.445 91.0568C688.53 91.3732 687.633 91.7356 686.718 92.0404C685.953 92.2936 685.171 92.4949 684.394 92.725C684.216 92.7768 684.049 92.8746 683.871 92.9264C683.543 93.0184 683.204 93.1622 682.87 93.145C682.502 93.1277 682.226 93.168 681.955 93.4729C681.806 93.6397 681.518 93.6972 681.276 93.726C680.972 93.7662 680.655 93.749 680.339 93.7317C679.965 93.7087 679.608 93.68 679.269 93.9388C679.085 94.0769 678.791 94.0884 678.55 94.0826C677.468 94.0481 676.444 94.3127 675.438 94.6291C674.068 95.0605 672.711 95.5265 671.342 95.9637C670.807 96.1363 670.26 96.2687 669.714 96.4182C668.023 96.8727 666.302 97.2005 664.582 97.5227C664.243 97.586 663.898 97.6435 663.582 97.7701C662.845 98.0634 662.086 98.213 661.303 98.3108C660.366 98.4316 659.48 98.7365 658.594 99.0529C658.387 99.1277 658.186 99.2312 657.973 99.26C656.483 99.4728 655.073 100.042 653.607 100.336C652.416 100.572 651.208 100.715 650.005 100.876C649.073 101.003 648.142 101.095 647.21 101.204C647.146 101.21 647.089 101.25 647.031 101.256C646.496 101.302 646.255 101.009 646.381 100.451C646.491 99.9503 646.772 99.6109 647.244 99.5131C647.762 99.4038 648.285 99.3233 648.809 99.2255C648.803 99.191 648.797 99.168 648.792 99.1449Z" fill="#F8AFB8"/>
<path d="M657.236 85.5223C657.702 86.1896 658.202 86.8396 658.628 87.5357C659.008 88.1569 659.376 88.7667 659.991 89.1867C660.153 89.296 660.262 89.4685 660.4 89.6123C660.647 89.8712 660.889 90.1359 661.142 90.3832C661.257 90.4983 661.447 90.5558 661.527 90.6881C661.919 91.3381 662.39 91.9076 663.023 92.3333C663.259 92.9086 663.765 93.2135 664.214 93.5932C664.427 93.7772 664.628 93.9786 664.829 94.1742L664.979 94.3122L665.088 94.3985C665.163 94.4503 665.238 94.4905 665.307 94.5136L665.341 94.5251C665.422 94.5423 665.485 94.5884 665.537 94.6919C665.6 94.8645 665.779 94.968 665.911 94.9048C666.032 94.8415 666.089 94.6919 666.176 94.5711C666.256 94.4445 666.331 94.3065 666.4 94.1742L666.722 93.5816C667.211 92.69 667.792 91.8616 668.494 91.1138C668.868 90.7168 669.155 90.2336 669.443 89.7619C669.782 89.2039 670.076 88.6114 670.404 88.0477C670.881 87.225 671.324 86.3909 671.686 85.505C672.17 84.32 672.699 83.1522 673.263 82.0074C673.527 81.484 673.729 81.2309 674.338 80.3047C674.448 80.1494 674.569 80.017 674.689 79.9135C674.868 79.7639 675.034 79.6431 675.288 79.5799C675.529 79.5166 675.788 79.5396 675.984 79.6201C676.421 79.7409 676.864 80.1666 677.284 80.4715C677.813 80.8972 678.308 81.2999 678.831 81.7025C679.608 82.3008 680.425 82.8531 681.242 83.3996C682.007 83.9058 682.806 84.366 683.571 84.8665L686.436 86.7476L687.868 87.691L688.582 88.1627L688.674 88.2203C688.697 88.2375 688.691 88.226 688.697 88.2317L688.726 88.2432L688.777 88.2605C688.823 88.2662 688.864 88.3007 688.892 88.2432C688.904 88.203 688.887 88.1454 688.875 88.1109C688.869 88.0937 688.858 88.0822 688.852 88.0707L688.841 88.0592L688.881 87.8406C688.944 87.5184 689.019 87.202 689.105 86.8856L690.06 83.3766L691.337 78.3315C691.585 77.3766 691.855 76.4332 691.941 75.4437C691.964 75.1676 692.114 75.1101 692.356 75.2769C692.775 75.5646 693.23 75.8234 693.391 76.3469C693.5 76.7036 693.575 77.0257 693.408 77.3939C693.172 77.9288 693.241 78.5674 692.821 79.0506C692.764 79.1196 692.747 79.2347 692.741 79.3325C692.649 81.0525 692.074 82.6632 691.625 84.3085C691.481 84.8435 691.395 85.3957 691.274 85.9422C691.199 86.2931 691.113 86.644 691.021 86.995C690.889 87.5012 690.716 87.9959 690.612 88.5136C690.561 88.761 690.52 89.0256 690.451 89.2672C690.388 89.5088 690.267 89.6986 690.101 89.7446C690.031 89.7676 689.98 89.9805 689.98 90.1128C689.991 90.3602 689.859 90.5385 689.681 90.6133C689.496 90.6938 689.307 90.6421 689.151 90.5673C688.944 90.481 688.714 90.3602 688.49 90.1934L687.477 89.434L686.66 88.8358C686.131 88.4618 685.573 88.1167 685.009 87.7888C684.129 87.2826 683.226 86.8223 682.352 86.3104C681.621 85.8789 680.925 85.4015 680.206 84.9528C680.039 84.8492 679.849 84.7802 679.688 84.6709C679.389 84.4695 679.044 84.3027 678.825 84.0324C678.578 83.7332 678.354 83.5434 677.94 83.5319C677.704 83.5261 677.462 83.3363 677.272 83.1695C677.025 82.9566 676.818 82.6978 676.611 82.4446C676.49 82.2893 676.369 82.1398 676.231 82.019C676.185 81.9614 676.122 81.9384 676.047 81.9959C675.978 82.0707 675.955 81.9557 675.863 81.8636C675.736 81.7486 675.662 81.8348 675.564 81.9039C675.5 81.9614 675.466 81.9902 675.385 82.1053C675.276 82.2663 675.173 82.4331 675.069 82.6C674.868 82.9336 674.678 83.2788 674.499 83.624L672.452 87.6508C672.181 88.1742 671.876 88.6804 671.583 89.1924C670.668 90.7859 669.65 92.3103 668.62 93.829C668.419 94.1282 668.206 94.4273 668.062 94.7552L667.936 95.0371L667.665 95.5203C667.47 95.8482 667.286 96.2221 667.044 96.4694C666.785 96.7111 666.584 96.8319 666.291 96.9124C665.991 96.9987 665.617 96.9699 665.376 96.8606C665.123 96.757 664.829 96.5787 664.565 96.3026C664.329 96.0437 664.087 95.7906 663.846 95.5375L663.598 95.2901L663.385 95.0888C663.104 94.8242 662.81 94.5711 662.517 94.318C662.344 94.1684 662.143 94.0361 662.005 93.8577C661.027 92.6152 659.784 91.6315 658.749 90.4465C657.909 89.4916 657.144 88.4676 656.362 87.4666C655.758 86.69 655.182 85.8904 654.59 85.1081C654.55 85.0563 654.486 85.0218 654.452 84.97C654.124 84.5098 654.256 84.1531 654.814 83.9863C655.309 83.8425 655.758 83.9288 656.091 84.3027C656.465 84.7169 656.816 85.1483 657.173 85.574L657.236 85.5223Z" fill="#F8AFB8"/>
<path d="M668.5 98.9143C668.926 99.898 669.38 100.87 669.76 101.865C670.099 102.757 670.421 103.631 671.031 104.391C671.192 104.586 671.29 104.839 671.417 105.064C671.652 105.472 671.883 105.886 672.124 106.283C672.233 106.467 672.429 106.617 672.498 106.807C672.837 107.739 673.28 108.607 673.919 109.372C674.103 110.149 674.615 110.724 675.052 111.357C675.489 111.99 675.835 112.697 676.352 113.273C676.49 113.428 676.617 113.618 676.692 113.814C677.14 114.981 677.808 116.028 678.463 117.092C679.165 118.231 679.769 119.422 680.247 120.676C680.5 121.344 680.868 121.988 681.23 122.621C681.656 123.374 682.134 124.093 682.577 124.835C683.215 125.917 683.882 126.97 684.63 127.976C685.096 128.603 685.556 129.242 686.011 129.886L686.35 130.369L686.494 130.519C686.58 130.605 686.655 130.674 686.718 130.72L686.764 130.755C686.822 130.795 686.868 130.881 686.926 131.008C686.949 131.077 686.995 131.152 687.064 131.175C687.127 131.198 687.19 131.175 687.196 131.135C687.282 130.709 687.391 130.68 687.518 128.471C687.599 127.177 687.627 125.877 687.639 124.582C687.65 123.374 687.604 122.16 687.61 120.952L687.685 110.189L687.662 107.601C687.662 107.169 687.673 106.738 687.696 106.306L687.955 101.52L688.226 94.6574C688.283 93.3573 688.369 92.063 688.26 90.7686C688.231 90.4062 688.364 90.2912 688.634 90.4408C689.106 90.6939 689.595 90.8952 689.859 91.528C690.038 91.9537 690.17 92.3564 690.084 92.8741C689.951 93.6277 690.147 94.433 689.831 95.1694C689.785 95.2729 689.796 95.4283 689.808 95.5491C690.055 97.7926 689.796 100.03 689.675 102.268C689.635 102.999 689.664 103.735 689.652 104.471C689.646 104.949 689.629 105.42 689.606 105.898C689.572 106.588 689.497 107.279 689.497 107.969C689.497 108.492 689.566 108.999 689.267 109.459C689.204 109.557 689.209 109.827 689.273 109.925C689.52 110.304 689.474 110.73 689.451 111.162C689.388 112.324 689.301 113.48 689.261 114.642C689.232 115.499 689.244 116.362 689.273 117.219C689.324 118.554 689.422 119.882 689.468 121.211C689.503 122.327 689.48 123.443 689.485 124.559C689.485 124.818 689.531 125.077 689.531 125.33C689.526 125.802 689.572 126.302 689.462 126.745C689.342 127.234 689.307 127.62 689.526 128.086C689.647 128.345 689.618 128.753 689.583 129.081C689.56 129.294 689.526 129.507 689.48 129.714L689.411 130.024L689.37 130.18L689.33 130.45C689.192 131.336 689.06 131.934 689.192 133.05C689.238 133.372 689.204 133.648 689.129 133.856C689.089 133.948 689.042 134.022 688.996 134.097C688.95 134.155 688.899 134.201 688.853 134.252C688.766 134.339 688.692 134.39 688.623 134.477C688.554 134.534 688.502 134.609 688.438 134.684C688.358 134.759 688.197 134.856 688.013 134.891C687.829 134.931 687.627 134.914 687.507 134.851C687.397 134.787 687.322 134.707 687.23 134.638L686.937 134.391C686.73 134.206 686.477 134.005 686.229 133.62L685.74 132.809L685.131 131.813L684.814 131.301L684.601 130.968L683.79 129.719L682.168 127.223C681.748 126.567 681.357 125.894 680.96 125.227C679.718 123.144 678.59 121.004 677.468 118.859C677.25 118.439 677.031 118.007 676.755 117.622C676.122 116.736 675.616 115.787 675.156 114.809C674.603 113.629 673.879 112.548 673.154 111.478C672.987 111.231 672.786 110.989 672.659 110.724C671.756 108.849 670.531 107.164 669.553 105.334C668.765 103.856 668.057 102.331 667.338 100.818C666.78 99.6506 666.251 98.4656 665.71 97.292C665.675 97.2173 665.612 97.1482 665.578 97.0734C665.279 96.3946 665.463 96.0265 666.084 96.0725C666.636 96.1128 667.108 96.4062 667.424 96.9872C667.775 97.6315 668.103 98.2873 668.437 98.9373L668.5 98.9143Z" fill="#F8AFB8"/>
<path d="M10.7725 38.368L2.54635 41.5952C1.55116 41.9864 1.00466 43.0564 1.27503 44.0861C3.07559 50.9834 4.79561 58.1224 6.41784 65.4972C9.06403 77.5201 11.204 89.1001 12.9355 100.18C13.1254 101.399 13.948 102.446 15.1215 102.843C18.1704 103.873 19.2576 101.957 21.5241 101.957C26.0974 101.963 30.7053 102.705 32.5691 101.692C32.5748 101.687 35.7215 85.1078 35.7215 85.1078L14.7648 36.9932L10.7725 38.368Z" fill="#F8AFB8"/>
<path d="M4.42844 41.7443L3.00755 42.2103L2.70842 42.3139C2.63364 42.3426 2.55886 42.3829 2.48983 42.4232C2.34601 42.5095 2.21945 42.6245 2.11591 42.7568C1.90306 43.0272 1.78801 43.3781 1.79951 43.7347C1.79951 43.8901 1.85704 44.1489 1.89156 44.3963L2.00661 45.1269C2.27698 46.8699 2.53584 48.5842 3.1111 50.2869C3.26067 50.7299 3.34121 51.2246 3.45626 51.6906L4.08904 54.2505C4.18684 54.6359 4.38242 55.0271 4.4342 55.3952C4.70457 57.2131 5.08999 58.9906 5.68826 60.7336C5.80906 62.1718 6.29228 63.5006 6.69496 64.8812C7.08614 66.2619 7.33925 67.7058 7.80521 69.0576C7.92602 69.4143 8.03532 69.8342 8.08134 70.2139C8.38047 72.5207 8.90971 74.7757 9.41018 77.0537C9.94517 79.4928 10.3594 81.9549 10.6067 84.4343C10.739 85.7516 10.9921 87.115 11.228 88.4496L12.1369 93.207C12.5511 95.5138 12.9883 97.7975 13.5003 100.07C13.6498 100.714 14.0065 101.272 14.4897 101.646C14.7313 101.83 14.9959 101.974 15.2778 102.054C15.577 102.135 15.9394 102.216 16.25 102.244C16.9058 102.302 17.4811 102.198 18.1138 101.934C18.7409 101.692 19.4657 101.255 20.4091 101.019C20.645 100.961 20.8981 100.915 21.1455 100.898L21.5251 100.875H21.83C22.2384 100.875 22.6526 100.887 23.0611 100.91C23.8779 100.95 24.6948 101.013 25.4944 101.071C26.6449 101.151 27.7839 101.249 28.8999 101.289C29.4579 101.307 30.0102 101.312 30.5394 101.284C30.7983 101.261 31.0687 101.249 31.3045 101.197C31.4541 101.169 31.4829 101.174 31.5461 101.157C31.6037 101.14 31.6612 101.134 31.7187 101.111C31.7532 101.088 31.8223 101.088 31.8395 101.048L31.874 100.91L31.9085 100.772L31.9718 100.478L32.2537 99.1321C32.7369 96.7621 33.1684 94.3748 33.5883 91.9932C33.9565 89.7784 34.3189 87.5637 34.687 85.349C34.7273 85.1879 34.6755 85.2166 34.4627 84.7161L33.945 83.5714L32.9037 81.2876L30.8271 76.7143L26.6737 67.5735L24.6373 63.1957C24.3036 62.4652 23.9757 61.7288 23.6651 60.9867L20.1675 52.749L15.0707 40.985L14.3229 39.2477L14.087 38.6955L14.0525 38.6264C14.0295 38.6379 14.0007 38.6494 13.9835 38.661L13.9547 38.6782L13.5578 38.8278C13.0171 39.0349 12.4763 39.2477 11.9413 39.4663C11.3143 39.7252 11.0669 39.6734 11.2165 39.334C11.4754 38.7415 11.6422 38.1547 12.6489 37.5104C12.7985 37.4184 12.948 37.3206 13.0976 37.2286C13.2529 37.1365 13.3795 37.056 13.6096 36.9524C14.0295 36.7511 14.5185 36.5555 15.0362 36.3887C15.088 36.5152 15.1398 36.6533 15.1973 36.7971C15.3641 37.2458 15.5597 37.706 15.7323 38.0972C15.8818 38.4251 16.0314 38.7587 16.181 39.0866C16.4744 39.7482 16.7505 40.4155 16.8943 41.1116C16.9346 41.3071 17.0611 41.566 17.1704 41.7731C19.1378 45.4663 20.6507 49.378 22.2845 53.2323C22.8195 54.4921 23.412 55.7289 23.9757 56.9772L25.0457 59.4163C25.5519 60.6013 26.0236 61.8094 26.5586 62.9771C26.9613 63.863 27.4215 64.6857 27.5136 65.6061C27.5308 65.7959 27.7494 66.2619 27.8817 66.3999C28.3995 66.9292 28.6928 67.6713 29.0035 68.4133C29.8491 70.4095 30.6775 72.4171 31.5461 74.4018C32.1904 75.8687 32.8692 77.3298 33.5653 78.768C34.1118 79.884 34.664 80.9942 35.2105 82.1102L36.0331 83.7785L36.2402 84.1984L36.5106 84.7679C36.6774 84.9865 36.5796 85.2396 36.5451 85.4813L36.4588 86.0278C36.1482 88.0814 35.7743 90.1351 35.4291 92.1888C35.3486 92.6662 35.3141 93.1437 35.2335 93.6154C35.0782 94.4841 34.9689 95.4102 34.7273 96.2098C34.4569 97.0957 34.3016 97.7975 34.3707 98.6777C34.4109 99.1724 34.2556 99.9145 34.1175 100.519L34.014 100.944L33.9565 101.18C33.9392 101.318 33.8644 101.422 33.8126 101.542C33.7034 101.767 33.6056 102.014 33.4905 102.204L33.3985 102.336L33.3755 102.371V102.377C33.41 102.405 33.2949 102.308 33.4502 102.446L33.4387 102.451L33.4215 102.463L33.3524 102.515L33.0763 102.727C32.7197 102.866 32.3515 102.952 32.0063 103.05C31.805 103.078 31.6957 103.084 31.5576 103.101C31.4196 103.119 31.293 103.119 31.1665 103.124C30.9076 103.136 30.6602 103.142 30.4129 103.147C29.9181 103.165 29.4349 103.182 28.9114 103.268C28.3534 103.36 27.5883 103.28 26.9786 103.182C25.6267 102.981 24.2864 102.831 22.946 102.779C22.6124 102.762 22.273 102.756 21.9393 102.751C21.7782 102.751 21.5884 102.745 21.4561 102.751C21.318 102.762 21.1857 102.762 21.0477 102.791C20.5069 102.871 19.9547 103.13 19.3104 103.418C18.4532 103.82 17.2912 104.154 16.1867 104.028C15.9106 104.005 15.646 103.953 15.3814 103.901C15.1167 103.826 14.8866 103.786 14.5875 103.671C14.018 103.458 13.5003 103.113 13.0746 102.681C12.6489 102.25 12.321 101.732 12.1024 101.169C11.9931 100.892 11.9126 100.582 11.8608 100.306L11.7285 99.6269L11.1992 96.9059C10.9404 95.485 10.6758 94.0526 10.4169 92.626C9.60577 88.1907 8.86369 83.744 8.08134 79.303C7.92602 78.4343 7.77645 77.5427 7.55785 76.7028C7.04587 74.7469 6.67195 72.7795 6.3383 70.7949C5.92411 68.4076 5.35461 66.0663 4.6643 63.7537C4.50898 63.213 4.3249 62.6722 4.20985 62.1315C3.439 58.3405 2.30574 54.6416 1.45436 50.8794C1.1092 49.355 0.78706 47.8306 0.47642 46.3004L0.246316 45.1556C0.177285 44.7472 0.079492 44.4941 0.00470839 43.7808C-0.0643226 42.5382 0.631737 41.3244 1.69597 40.7549C1.79951 40.6974 1.90306 40.6456 2.00661 40.6053L2.16193 40.5421L2.27122 40.5075L2.69692 40.358L3.55405 40.0646L5.26832 39.4778L8.69111 38.3101C8.84068 38.2583 8.98449 38.1777 9.13406 38.126C10.4399 37.6945 10.9691 37.8556 10.5549 38.5747C10.1868 39.2132 9.43895 39.7942 8.28268 40.2372C7.0056 40.7261 5.71702 41.1864 4.4342 41.6638L4.42844 41.7443Z" fill="#F8AFB8"/>
<path d="M25.4239 68.7236C25.4239 68.7236 29.4967 93.5632 30.7163 100.996C30.8601 101.864 31.8955 102.261 32.5686 101.692C37.0211 97.9467 42.6816 95.6745 47.1917 91.9583C54.3191 86.0907 54.7218 88.7369 72.3132 77.8012C76.1444 75.4196 81.6497 71.8588 84.5375 69.9834C85.6822 69.2413 86.1942 67.8435 85.8145 66.5376C84.7503 62.9192 83.7321 59.0593 82.8174 54.9634C81.5001 49.0613 80.5739 43.4985 79.9239 38.3672C61.7572 48.486 43.5906 58.6048 25.4239 68.7236Z" fill="#F1D1D5"/>
<path d="M27.5825 76.7948C27.8414 79.0958 28.1405 81.4141 28.3534 83.6979C28.5432 85.7401 28.7158 87.742 29.2163 89.7784C29.3428 90.3019 29.4003 90.8829 29.4924 91.4409C29.665 92.4476 29.8318 93.46 30.0044 94.4667C30.0849 94.9269 30.2632 95.3929 30.2977 95.8243C30.3668 96.647 30.4588 97.4581 30.5681 98.275C30.6256 98.6834 30.6832 99.0861 30.7522 99.4887L30.8615 100.093L30.9708 100.645C31.0053 100.829 31.0456 101.013 31.1664 101.157C31.2814 101.295 31.4425 101.399 31.6151 101.433C31.874 101.606 32.2421 101.577 32.4895 101.364C32.7253 101.197 33.0762 100.898 33.3984 100.645C34.0484 100.127 34.6927 99.5923 35.3773 99.0976C36.7406 98.1024 38.2363 97.2683 39.5709 96.2846C39.9218 96.02 40.3475 95.7553 40.7444 95.554C41.9467 94.9442 43.103 94.2712 44.2132 93.5291C44.7655 93.1551 45.3062 92.764 45.8355 92.3556C46.359 91.9471 46.8594 91.5214 47.4002 91.0785C48.5219 90.135 49.7357 89.2664 51.0301 88.5416C52.3244 87.811 53.6878 87.253 55.0454 86.7525C56.4893 86.2175 57.9562 85.556 59.3656 84.8484C61.0511 84.0201 62.6733 83.0881 64.3013 82.162C66.6656 80.8158 68.9551 79.3777 71.1756 77.8303C74.1324 75.7421 77.095 73.6136 80.1094 71.5599C80.8745 71.0365 81.6626 70.536 82.4622 70.0413L83.6645 69.3049L83.9636 69.1209C84.0384 69.0691 84.1017 69.0346 84.1592 68.9828C84.2858 68.8908 84.3951 68.7757 84.4986 68.6607C84.9013 68.1774 85.0624 67.4986 84.9128 66.8716L84.2052 64.1679C83.7393 62.3443 83.3021 60.5092 82.8764 58.6742C82.2378 55.9187 81.6108 53.1517 81.0355 50.3789C80.5006 47.7903 79.9598 45.2074 79.5341 42.5957L79.212 40.5765L79.1084 40.0185L78.815 40.1969L78.677 40.2831L78.608 40.3234L78.3491 40.473L76.2609 41.6753L72.0788 44.0741L63.7203 48.8775L58.8708 51.7135C58.0597 52.1852 57.2429 52.6397 56.4202 53.0884L47.2679 58.0874L34.2095 65.3356C31.7359 66.699 29.2565 68.0394 26.875 69.5408C26.2077 69.9607 25.92 69.9722 26.0466 69.5868C26.2594 68.9195 26.3687 68.2867 27.4099 67.3836C28.1175 66.768 28.7906 66.2215 29.8203 65.7326C31.3102 65.0192 32.7253 63.978 34.2843 63.4431C34.5029 63.3683 34.7905 63.1957 35.0149 63.0461C39.0992 60.3942 43.4482 58.1737 47.7338 55.8324C49.1317 55.0673 50.5008 54.2447 51.8872 53.4566L54.5967 51.9436C55.914 51.2188 57.2544 50.5285 58.5487 49.7807C59.5266 49.2169 60.4413 48.6014 61.4768 48.354C61.6954 48.3023 62.2073 47.9974 62.3569 47.8363C62.9322 47.215 63.7605 46.7893 64.5832 46.3406C66.7979 45.1268 69.0299 43.936 71.2331 42.705C72.8669 41.7961 74.4834 40.8469 76.0768 39.8862L77.8544 38.8047L80.5121 37.2285L81.0413 40.519L81.4497 42.751C81.8869 45.121 82.3126 47.5026 82.8188 49.8554C82.9339 50.4019 83.1007 50.9312 83.2158 51.4777C83.4344 52.4786 83.7163 53.5141 83.8371 54.4748C83.9694 55.539 84.1362 56.3559 84.5906 57.2648C84.8438 57.771 85.0393 58.6281 85.1947 59.3299C85.3903 60.2273 85.5341 61.1305 85.6836 62.0221C85.862 63.0921 86.023 64.0988 86.5178 65.1688C86.6501 65.4565 86.7594 65.8074 86.8572 66.1813C86.9895 66.6415 87.0297 67.2167 86.9607 67.6769C86.8284 68.7182 86.2992 69.6731 85.5283 70.3289C85.3442 70.4842 85.1084 70.6453 84.93 70.7488L84.4181 71.0537L83.4056 71.675C82.0595 72.5149 80.7364 73.3893 79.4133 74.2809C75.8295 76.6913 72.3146 79.1764 68.6215 81.4717C67.1833 82.3806 65.6992 83.2319 64.2092 84.0718C61.8967 85.3777 59.4979 86.5742 57.0703 87.6499C55.8622 88.1964 54.6484 88.7027 53.5152 89.2549C52.3762 89.8071 51.3004 90.4284 50.2535 91.1302C49.8508 91.4236 49.4366 91.6997 49.0339 92.0104C48.637 92.3268 48.2516 92.6374 47.8719 92.9768C46.0368 94.6163 43.9774 95.8876 41.9065 97.0266C39.4156 98.4015 37.034 99.8627 34.9113 101.548L34.1865 102.152L33.8356 102.457L33.4847 102.745C33.3581 102.837 33.2316 102.94 33.0992 103.009C32.3859 103.418 31.5 103.424 30.7867 103.078C30.0619 102.733 29.5442 102.049 29.4003 101.215L28.9114 98.3095L28.4282 95.6403C28.106 93.857 27.7896 92.0794 27.5135 90.2904C26.9612 86.6835 26.5125 83.0709 26.0351 79.4583C25.6842 76.6683 25.3333 73.884 24.9881 71.094C24.9651 70.9099 24.9133 70.7258 24.8903 70.5418C24.7062 68.954 24.9593 68.396 25.5921 69.0576C26.1559 69.6443 26.5873 70.6453 26.8117 72.0719L27.5077 76.8005L27.5825 76.7948Z" fill="#F8AFB8"/>
<path d="M10.7736 41.5953C12.6316 45.7141 14.4725 50.2644 16.1695 55.2404C18.0793 60.8377 19.529 66.1531 20.6335 71.0658C21.0362 72.8548 22.9805 73.8155 24.6546 73.0677C32.1847 69.7024 38.1559 66.5672 42.3207 64.2605C52.29 58.738 56.9266 55.1829 68.8574 48.5789C72.7001 46.4504 76.1574 44.6384 79.0683 43.1657C81.9848 41.6873 83.3137 38.253 82.1574 35.1927C80.9896 32.092 79.8449 28.859 78.7289 25.4995C77.0779 20.5063 75.657 15.6914 74.4317 11.0836C74.0578 9.6857 72.5276 8.94361 71.2045 9.53037C61.4884 13.8045 51.266 18.7 40.6697 24.3145C29.8606 30.0441 19.8972 35.86 10.7736 41.5953Z" fill="#F1D1D5"/>
<path d="M14.9846 49.5511C15.7727 51.9269 16.5435 54.3315 17.159 56.7303C17.7113 58.8703 18.1945 60.9757 18.9596 63.0985C19.1552 63.645 19.2875 64.2605 19.4486 64.8472C19.7305 65.9115 20.0066 66.9814 20.2885 68.0457C20.415 68.5346 20.6336 69.0236 20.7084 69.4838C20.8062 70.0418 20.8925 70.6401 21.0018 71.1578C21.1111 71.6525 21.4045 72.1012 21.7956 72.4349C22.5952 73.1079 23.786 73.2 24.6719 72.619C26.3919 72.0897 27.9221 71.2096 29.5156 70.3755C31.1033 69.5471 32.7658 68.782 34.273 67.8386C34.6699 67.5855 35.1474 67.3266 35.5846 67.1367C38.2423 65.9805 40.7619 64.5596 43.2758 63.0869C45.9737 61.5165 48.6717 59.9806 51.4272 58.5309C52.8941 57.7601 54.361 56.8454 55.8049 55.9537C57.5249 54.8952 59.2162 53.7908 60.9477 52.738C63.4616 51.2194 65.9582 49.7122 68.4318 48.1647C71.7741 46.1513 75.1739 44.1667 78.5909 42.2165C79.3157 41.8024 79.9658 41.2616 80.472 40.5943C80.9667 39.9213 81.3406 39.1332 81.4787 38.2933C81.634 37.4591 81.5823 36.5848 81.3291 35.7679C81.2774 35.5781 81.1911 35.325 81.1105 35.0891L80.8747 34.37L80.3972 32.9319L78.4701 27.1793C77.4807 24.3088 76.5775 21.3979 75.6686 18.4986L74.4145 14.4316L73.8048 12.3952L73.5114 11.3712C73.4423 11.1411 73.3503 10.9743 73.2122 10.8132C73.0109 10.5888 72.729 10.422 72.4299 10.3702C72.2803 10.3357 72.1308 10.3415 71.9812 10.3645C71.9064 10.3702 71.8374 10.3933 71.7626 10.4163C71.7281 10.4278 71.6936 10.445 71.659 10.4565C71.6303 10.4623 71.5785 10.4853 71.5152 10.5198L68.6619 11.8314C66.7636 12.7115 64.871 13.6032 62.9841 14.5063C59.2104 16.3184 55.4655 18.1765 51.7493 20.0864C49.9603 21.0068 48.2 21.9617 46.4282 22.9109C45.5366 23.3768 44.6449 23.8428 43.759 24.3087C40.4455 26.0115 37.1435 27.7373 33.8761 29.5263C29.1992 32.092 24.5799 34.767 19.9893 37.4937C17.3834 39.0411 14.789 40.5886 12.3154 42.3144C11.6251 42.7976 11.3202 42.8321 11.441 42.4351C11.6481 41.7391 11.7516 41.0833 12.8389 40.0766C13.5752 39.392 14.277 38.7823 15.3585 38.207C16.9289 37.3671 18.4131 36.2108 20.0641 35.5666C20.3 35.4745 20.5991 35.2789 20.8407 35.1179C25.1724 32.1725 29.8262 29.7162 34.4456 27.2195C35.9585 26.4084 37.4427 25.5398 38.9498 24.7172C39.9278 24.1822 40.9115 23.6587 41.9009 23.1467C43.3391 22.4047 44.8002 21.6971 46.2211 20.9435C47.2968 20.374 48.3093 19.7585 49.4195 19.5168C49.6497 19.4651 50.2192 19.1659 50.386 19.0049C51.0418 18.3893 51.9564 17.9636 52.8653 17.5265C55.3159 16.3414 57.7838 15.2024 60.2402 14.0461C62.058 13.189 63.87 12.3031 65.6706 11.4172C67.0685 10.7269 68.4606 10.0366 69.8585 9.35203L70.9112 8.84005C71.3772 8.62145 71.9064 8.5179 72.4241 8.55242C73.4711 8.60419 74.4778 9.22547 75.0128 10.1689C75.1221 10.3645 75.2141 10.5716 75.2774 10.7844C75.3465 10.9915 75.3752 11.1066 75.427 11.2734L75.7031 12.2053L76.2554 14.0749C76.6235 15.3232 76.9974 16.5658 77.3944 17.8026C77.5784 18.3721 77.8028 18.9301 77.9811 19.4996C78.3148 20.5523 78.7175 21.6396 78.9476 22.652C79.2007 23.7795 79.4538 24.6424 80.0233 25.5743C80.3454 26.092 80.6503 26.9894 80.8862 27.7258C81.1911 28.6692 81.4327 29.6241 81.6743 30.5676C81.9619 31.7008 82.2208 32.7651 82.8018 33.8868C82.9571 34.1974 83.0952 34.5426 83.2332 34.9741C83.3828 35.4343 83.4749 35.9232 83.5094 36.3662C83.6647 38.3221 83.1009 40.2837 81.9332 41.8081C81.3464 42.5675 80.6158 43.2117 79.7932 43.7007L77.5209 44.9663C73.4941 47.2443 69.45 49.4591 65.521 51.8752C63.9736 52.8128 62.4204 53.7505 60.8672 54.6881C56.0638 57.6277 51.2604 60.6478 46.2844 63.4148C45.3065 63.9556 44.3112 64.4963 43.3736 65.0773C41.2106 66.4177 38.9614 67.5855 36.6661 68.6727C33.8991 69.9785 31.2184 71.4052 28.5031 72.78C27.8704 73.1022 27.2433 73.4473 26.599 73.7235L25.7534 74.0801C25.46 74.2009 25.2472 74.3102 24.7755 74.4771C23.9298 74.7417 23.0037 74.7474 22.1638 74.4655C21.3239 74.2009 20.5646 73.6659 20.0411 72.9469C19.7707 72.5902 19.5694 72.1875 19.4256 71.7676L19.3335 71.4512L19.276 71.2096L19.1667 70.7724C18.5972 68.4368 17.9587 66.1243 17.3374 63.806C16.3307 60.0553 15.2722 56.3161 14.0527 52.6287C13.1092 49.7812 12.114 46.9509 11.021 44.1552C10.9463 43.9711 10.8485 43.7928 10.7737 43.6087C10.1524 42.0152 10.2329 41.3824 11.044 41.9059C11.7574 42.3776 12.4707 43.3153 13.069 44.7534C13.7305 46.3469 14.3345 47.9576 14.927 49.5741L14.9846 49.5511Z" fill="#F8AFB8"/>
<path d="M13.6668 41.5945H10.7733L1.20673 42.0259C1.20673 40.2771 7.41952 37.5619 9.77233 36.1698C27.2544 25.8209 44.5927 16.8641 61.5974 9.09809C62.9205 8.95427 64.3759 8.85648 65.9521 8.85073C68.1265 8.84498 70.0939 9.0118 71.8082 9.24766C52.4277 20.028 33.0473 30.8141 13.6668 41.5945Z" fill="#F1D1D5"/>
<path d="M6.81571 42.6011L5.37757 42.5838L5.0094 42.578L4.47441 42.5838L3.43319 42.5896H2.43224H2.31144L2.23665 42.5723L2.08709 42.532L1.7822 42.4573L1.17818 42.3249L0.87329 42.2674L0.723726 42.2387C0.694963 42.2099 0.735231 42.1121 0.740983 42.0546C0.86754 41.5829 1.1149 41.2319 1.43129 40.8983C1.74768 40.5646 2.12735 40.2598 2.53579 39.9721C2.94422 39.6845 3.36416 39.4141 3.7841 39.1438C4.22705 38.8619 4.53769 38.6605 4.91161 38.4017C5.28553 38.1428 5.72847 37.9472 6.14266 37.7229L8.38617 36.5263C8.72557 36.3423 9.03046 36.0661 9.34685 35.9166C10.9403 35.1745 12.4763 34.3058 13.9202 33.2761C15.2202 32.7756 16.3132 31.9588 17.4868 31.2167C18.6545 30.4688 19.9028 29.8188 21.0188 29.0019C21.3122 28.7833 21.6689 28.5647 22.0025 28.4152C24.0447 27.489 25.9661 26.3557 27.9277 25.2455C30.0216 24.0547 32.1731 22.9732 34.3879 22.0413C35.5671 21.5408 36.7464 20.9253 37.9084 20.327L42.0273 18.1296C44.0349 17.0941 46.0138 16.0356 47.9582 14.9081C50.5641 13.4067 53.2161 11.9455 55.9083 10.5534C57.2774 9.84583 58.727 9.24757 60.1537 8.63204L61.333 8.12005L62.0118 8.06254L62.5353 8.02801L63.5822 7.98199C64.2783 7.95898 64.9743 7.95323 65.6704 7.96474C66.401 7.98199 66.9072 7.99351 68.144 8.06254C69.2083 8.13157 70.2092 8.24087 71.1526 8.36743L73.5975 8.69531L73.9139 8.74134L73.9944 8.75284C74.0174 8.75859 74.0634 8.7586 74.0232 8.77585L73.8909 8.85638L73.3731 9.16703L72.3434 9.79406L71.3194 10.4211L70.1517 11.0826L67.8967 12.3597C66.0213 13.4642 64.146 14.5687 62.2706 15.6732L45.4961 25.3663L41.4865 27.7306C40.8192 28.1218 40.1404 28.5015 39.4559 28.8696L31.874 32.9942L21.0591 38.9827C19.0112 40.1102 16.9518 41.2147 14.9959 42.4803C14.4494 42.8369 14.202 42.8254 14.2768 42.463C14.4149 41.8417 14.4609 41.2434 15.3008 40.4496C15.8703 39.9088 16.4168 39.4371 17.2739 39.0402C18.5165 38.465 19.667 37.5733 20.9843 37.1706C21.1684 37.1131 21.4043 36.9693 21.5884 36.8427C24.9421 34.5992 28.5605 32.7871 32.1098 30.86C33.2661 30.2272 34.3994 29.5427 35.5441 28.8869L37.7876 27.6328C38.8806 27.0346 39.9909 26.4708 41.0666 25.8495C41.8777 25.3778 42.6256 24.8543 43.5057 24.6933C43.6898 24.6588 44.1155 24.4056 44.2305 24.2618C44.685 23.7096 45.3753 23.3587 46.0541 22.9905C47.8892 21.9895 49.7415 21.0116 51.5651 19.9934C52.9169 19.2398 54.2515 18.4459 55.5689 17.6463C57.6053 16.3808 59.636 15.1267 61.6724 13.8611C63.3866 12.8199 65.1354 11.8305 66.867 10.8123L67.1661 10.6282C67.2236 10.5879 67.2236 10.5822 67.2466 10.5534C67.2869 10.5131 67.3157 10.4786 67.3617 10.4499C67.54 10.3348 67.5227 10.2773 67.9082 10.1622C68.0232 10.1277 68.1325 10.0932 68.2188 10.0587L68.3339 10.0069C68.3511 9.99539 68.4259 9.97238 68.3626 9.97238C68.2188 9.96663 67.9369 9.98964 67.5803 10.0817C67.1891 10.1852 67.2121 10.1737 67.1776 10.145C67.1603 10.1277 67.1488 10.099 67.1028 10.0587C67.0798 10.0414 67.0568 10.0184 67.0223 9.9954C66.9072 9.97239 66.6771 9.94362 66.5103 9.92061C65.6359 9.80556 64.8075 9.71352 63.8699 9.93787C63.3694 10.0587 62.6676 10.0587 62.0923 10.0529C61.9312 10.0529 61.9255 10.0414 61.8737 10.0357L61.7989 10.0472L61.5803 10.1277L61.1431 10.2888L60.2745 10.6282C59.6992 10.8583 59.124 11.1056 58.5602 11.3588C57.427 11.8765 56.3052 12.423 55.195 12.9925C52.0195 14.609 48.8844 16.3002 45.7492 17.9857C44.5239 18.653 43.2698 19.2743 42.033 19.9301C38.1788 21.9435 34.2901 23.8879 30.4243 25.8783C29.665 26.2637 28.8941 26.6607 28.1751 27.1036C26.5183 28.1276 24.8213 29.0422 23.084 29.9109C20.9958 30.9636 19.0227 32.1889 17.0553 33.4314C16.6009 33.7248 16.1522 34.047 15.6804 34.2943C14.0295 35.163 12.436 36.1351 10.8483 37.1073C9.18003 38.1428 7.51753 38.9654 5.92406 39.8398L4.98639 40.3575C4.90585 40.3978 4.91736 40.3806 4.8886 40.3863C4.84258 40.3921 4.76204 40.4151 4.65274 40.4841C4.62398 40.5014 4.60097 40.5186 4.5722 40.5474C4.54344 40.5762 4.52618 40.6049 4.53769 40.6049C4.54919 40.6164 4.56645 40.6337 4.59521 40.6452C4.65274 40.6739 4.77355 40.697 4.93462 40.72H8.29413C9.4619 40.7315 10.6182 40.697 11.7917 40.7718C11.947 40.7775 12.1081 40.7545 12.2577 40.766C13.5923 40.8408 14.0064 41.1802 13.3852 41.6979C12.8329 42.1581 11.9643 42.4227 10.7792 42.417C9.4619 42.4688 8.14456 42.486 6.82722 42.5148L6.81571 42.6011Z" fill="#F8AFB8"/>
<path d="M22.1634 31.4246L26.3341 29.2846C26.4721 29.2099 26.5297 29.0373 26.4664 28.8992C25.7531 27.369 25.3274 26.1265 24.7291 23.7277C24.1078 21.2368 23.8605 18.999 23.7799 17.1869C22.6697 16.9511 21.5594 16.7095 20.4492 16.4736C20.104 18.3375 19.8221 20.9204 20.0925 23.9693C20.3629 26.9951 21.082 29.4802 21.7608 31.275C21.8183 31.4361 22.0081 31.5052 22.1634 31.4246Z" fill="#F8AFB8"/>
<path d="M23.1874 29.9692C23.6304 29.8714 24.0561 29.7391 24.5163 29.6873C24.9189 29.647 25.3734 29.578 25.5172 29.3191C25.5287 29.2961 25.5517 29.2789 25.5747 29.2674C25.6208 29.2444 25.684 29.2271 25.7301 29.2041C25.8451 29.1293 26.0292 29.1005 26.0465 28.9337C26.0522 28.8589 25.9084 28.7669 25.9256 28.7266C25.9602 28.6173 25.9487 28.4678 25.8969 28.3182C25.8394 28.1686 25.7531 28.0421 25.5862 27.8695C25.6725 27.4898 25.4137 27.2597 25.2411 26.9721C25.0685 26.6902 25.0167 26.3623 24.7579 26.1092C24.6888 26.0402 24.6486 25.9539 24.6486 25.8618C24.6773 25.3096 24.4817 24.8321 24.3034 24.3431C24.1136 23.8197 24.0388 23.2559 24.1251 22.6749C24.1711 22.3643 24.1021 22.0651 24.0503 21.7717C23.9813 21.4208 23.8605 21.0757 23.7914 20.7248C23.6879 20.2128 23.5613 19.7066 23.3542 19.2061C23.2852 19.045 23.2219 18.884 23.1644 18.7229L23.0781 18.4755C23.0494 18.4065 23.0206 18.2799 22.9976 18.2684C22.9113 18.1419 22.8365 18.0671 22.779 18.0268C22.7675 18.0268 22.756 18.0326 22.7445 18.0326C22.5949 18.0613 22.6294 17.9981 22.4396 17.9233C21.5767 17.6702 21.5479 17.5494 21.1568 17.4228C21.0705 17.371 21.082 17.4631 21.0647 17.5091C21.0532 17.5666 21.0417 17.6299 21.0359 17.6874C21.0187 17.814 21.0187 17.9348 21.0187 18.0556L21.0129 18.372L21.0187 18.7344L21.0359 19.4592C21.0417 20.8859 21.1395 22.3067 21.3638 23.6989C21.4156 24.0325 21.5134 24.3604 21.5882 24.6941C21.6227 24.8609 21.6457 25.0277 21.663 25.1945C21.7263 25.8158 21.7895 26.4371 21.9103 27.0526C22.0829 27.9328 22.3303 28.7957 22.5891 29.6528C22.6639 29.8944 22.733 30.1418 22.825 30.3776C22.871 30.4984 22.9228 30.6135 22.9861 30.7228L23.0091 30.763L23.0148 30.7746L23.0206 30.7803L22.0369 31.1542H22.0311C22.0254 31.1542 22.0254 31.16 22.0254 31.16C22.0311 31.1542 22.0311 31.1485 22.0311 31.1485C22.0311 31.1485 22.0196 31.1254 22.0311 31.1427V31.1485C22.0369 31.1254 22.0254 31.1945 22.0024 31.2462C21.9794 31.2923 21.9506 31.3383 21.9103 31.3671C21.8356 31.4303 21.7148 31.4591 21.5997 31.3958C21.3293 31.252 21.151 31.183 21.1395 30.9414C21.128 30.6077 20.8116 30.3604 20.9957 29.9749C21.0187 29.9232 20.9899 29.8656 20.9554 29.8196C20.3686 29.0258 20.2996 28.0593 20.1501 27.1389C20.104 26.8398 19.9947 26.5464 19.9257 26.2473C19.8854 26.0517 19.8509 25.8561 19.8279 25.6605C19.7991 25.3729 19.8049 25.0795 19.7474 24.7976C19.7014 24.5848 19.5921 24.3834 19.8567 24.1591C19.9142 24.1131 19.8854 24.0038 19.8164 23.9692C19.546 23.8369 19.5575 23.6529 19.5518 23.4745V22.0134C19.5403 21.6567 19.5 21.2943 19.4482 20.9319C19.3619 20.3739 19.2354 19.8044 19.1951 19.2349C19.1779 18.999 19.1779 18.7574 19.1836 18.5215L19.2124 17.768C19.2239 17.5896 19.2009 17.3883 19.2181 17.1984C19.2584 16.859 19.2642 16.4506 19.4022 16.2033C19.5518 15.9329 19.6093 15.7315 19.4828 15.139C19.4712 15.0988 19.4655 15.0527 19.4597 15.0125C19.454 14.9664 19.4885 14.9895 19.5058 14.9779C19.5518 14.9722 19.6093 14.9722 19.6726 14.9779C19.7991 14.9895 19.943 15.0297 20.0753 15.0642C20.4147 15.162 20.7656 15.3173 21.0762 15.4727C21.4616 15.6625 21.732 15.8351 22.1347 15.743C22.29 15.6798 22.4281 15.7661 22.5489 15.8581C22.6582 15.9386 22.7675 16.0134 22.8825 16.0709C23.0321 16.14 23.2449 16.209 23.4233 16.2608C23.7914 16.3701 24.1711 16.4449 24.568 16.5081L24.6256 16.9568L24.7694 17.9118L24.8096 18.1591L24.8442 18.3029L24.9189 18.5963L25.2353 19.7468C25.3216 20.046 25.3676 20.3509 25.4367 20.65C25.638 21.5877 25.7646 22.5311 25.9199 23.486C25.9544 23.6758 25.9774 23.8714 26.0752 24.0383C26.2996 24.4294 26.3801 24.8494 26.4261 25.2808C26.4779 25.8043 26.7253 26.2588 26.9956 26.6844C27.0589 26.7822 27.151 26.8743 27.174 26.9893C27.197 27.0871 27.22 27.1792 27.2487 27.2712L27.3005 27.4093L27.4156 27.6854C27.5824 28.0478 27.7665 28.4275 27.8528 28.7784C27.8643 28.9395 27.8988 29.1178 27.8873 29.2731C27.87 29.4342 27.8182 29.6298 27.7435 29.7851C27.6112 30.067 27.3926 30.3373 27.0129 30.5329L26.8921 30.5905L26.4204 30.8091L26.1845 30.9126C26.1097 30.9471 26.0177 30.9874 25.9889 30.9932L25.4942 31.1657L24.4933 31.4821C23.9813 31.6432 23.452 31.7813 22.9343 31.9251C22.8998 31.9366 22.8768 31.9711 22.8423 31.9768C22.5374 32.0459 22.2958 31.787 22.1865 31.2635C22.0887 30.7976 22.1462 30.4696 22.3936 30.3488C22.6639 30.2223 22.9516 30.1187 23.2334 30.0037L23.1874 29.9692Z" fill="#F8AFB8"/>
<path d="M51.1729 16.3528L55.1479 14.6673C55.2515 14.6213 55.3147 14.5177 55.2917 14.4027C54.9753 12.418 54.4404 10.3644 53.2036 7.52833C52.519 5.96363 51.7654 4.59451 51.0233 3.42674C49.844 1.5629 47.5545 0.746042 45.4721 1.47662C41.6063 2.83423 36.8144 4.88789 31.6716 8.02881C26.6841 11.0777 19.4474 14.3969 20.5691 17.0316C21.5816 17.2905 22.0245 17.4055 23.0427 17.6644C26.3447 15.4842 29.9113 13.2809 33.7541 11.1007C37.6946 8.86295 42.4807 6.46987 46.3982 4.60603C47.3532 4.15157 48.4807 4.67506 48.7395 5.69902C49.5276 8.81117 50.4998 14.3337 50.8507 16.1687C50.868 16.3298 51.0291 16.4103 51.1729 16.3528Z" fill="#F1D1D5"/>
<path d="M54.2686 14.1377C54.3377 14.1319 54.4182 14.0974 54.424 14.0284L54.4355 13.8385V13.6257V13.5681L54.424 13.4588L54.401 13.246C54.3377 12.6765 54.2571 12.1127 54.1766 11.5432C54.0385 10.5308 53.8372 9.52409 53.2965 8.61518C53.1584 8.37932 53.0779 8.09744 52.9628 7.83858C52.7615 7.36687 52.5486 6.90666 52.307 6.4522C52.1977 6.24511 52.0021 6.07254 51.9331 5.86544C51.7605 5.35922 51.5477 4.87024 51.2888 4.40428C51.0242 3.94408 50.7251 3.48387 50.3454 3.16748C50.0175 2.41389 49.2236 2.05724 48.4931 1.86165C47.7567 1.66606 46.9456 1.55675 46.2495 1.86739C46.0655 1.94217 45.8641 2.02271 45.6685 2.05148C44.3339 2.3276 43.0914 2.8741 41.8546 3.43785C40.5315 4.04187 39.1854 4.58837 37.7932 5.04283C37.0512 5.28444 36.3321 5.65835 35.6303 6.02652C34.7961 6.47522 34.0023 6.98144 33.1969 7.47616C32.0349 8.18373 30.8959 8.96608 29.7799 9.7772C28.2957 10.8702 26.7713 11.9057 25.3101 12.9641C24.5738 13.5049 23.7627 13.9536 23.0551 14.4771C22.7042 14.7417 22.3648 15.0063 22.0714 15.2939L21.8643 15.5068C21.8011 15.5815 21.7378 15.6621 21.7148 15.6736C21.6572 15.7369 21.6055 15.8059 21.5594 15.8864C21.5134 15.967 21.4847 16.059 21.4732 16.1568C21.4732 16.2028 21.4674 16.2546 21.4789 16.3006L21.4962 16.3754L21.5594 16.3984L21.8298 16.4962L21.9736 16.5422L22.3015 16.6343L22.8883 16.8011L25.3734 15.1559C26.4837 14.4138 27.5651 13.6372 28.6869 12.9124C32.0061 10.7666 35.4289 8.73599 38.9035 6.83763L41.3944 5.4455C41.8143 5.22115 42.24 5.00831 42.6657 4.80121L45.0645 3.68521L45.6628 3.40908L45.8296 3.33431L46.1057 3.22501C46.2956 3.16748 46.4854 3.1157 46.6867 3.09269C47.4806 2.98915 48.2917 3.20775 48.9187 3.68521C49.3674 4.03036 49.7241 4.50783 49.9139 5.03707L49.9772 5.23841C50.0002 5.3132 50.0175 5.37072 50.0232 5.39949L50.0808 5.63534L50.1958 6.10704L50.61 7.97663C50.8746 9.21919 51.1162 10.4618 51.3406 11.6986C51.5994 13.1022 51.818 14.5231 52.2265 15.8749C51.8295 15.9497 51.4441 16.0303 51.0702 16.0993H51.0645L51.0702 16.0935C51.0702 16.0935 51.0702 16.0935 51.0702 16.0878C51.0645 16.0763 51.0645 16.0763 51.0702 16.0878C51.0702 16.0935 51.0702 16.0878 51.0702 16.0993V16.105L51.0817 16.0993H51.0875L51.2485 16.0705H51.2428L51.2313 16.0648L51.1853 16.0418C50.9379 15.9152 50.702 15.7369 50.5007 15.4262C50.2246 15.0063 50.0002 14.6094 49.9657 14.0341C49.9139 13.2 49.5343 12.3774 49.6666 11.5202C49.6838 11.3994 49.6378 11.2384 49.5975 11.106C49.2006 9.93827 48.9245 8.74173 48.6714 7.54519L48.286 5.7619C48.1882 5.31895 47.82 4.95078 47.3598 4.85298C47.2102 4.81847 47.0549 4.81846 46.9053 4.84723C46.7443 4.88174 46.6465 4.92203 46.4509 5.02557L45.3809 5.58356C44.9149 5.81941 44.449 6.04952 43.9773 6.26811C43.2927 6.59026 42.5909 6.8894 41.9293 7.24606C41.4289 7.51643 40.9744 7.84434 40.3877 7.82708C40.2669 7.82133 40.0022 7.97089 39.939 8.08019C39.6973 8.49438 39.2659 8.68421 38.846 8.89705C37.707 9.46656 36.5622 10.0246 35.4519 10.6401C34.6293 11.0945 33.8297 11.595 33.0474 12.1185C31.8336 12.9296 30.6658 13.7982 29.4692 14.6266C28.4625 15.3054 27.4501 15.99 26.4376 16.6688C26.2075 16.8299 26.0004 17.0254 25.7703 17.1808C25.3389 17.4684 24.919 17.8193 24.4645 18.0034C24.3782 18.0379 24.3034 18.0724 24.2114 18.1127C24.0906 18.1817 23.9698 18.245 23.8605 18.314C23.6361 18.4521 23.429 18.5959 23.2162 18.7685C22.9688 18.734 22.71 18.7167 22.4166 18.7167C22.3533 18.7167 22.2843 18.711 22.2095 18.7052L22.1002 18.6937H22.0369C21.9506 18.688 21.8528 18.6764 21.7608 18.6534C21.6687 18.6362 21.5709 18.6074 21.4789 18.5844C21.3063 18.5326 21.1338 18.4866 20.9727 18.4406L20.3514 18.245C20.1903 18.1472 20.058 18.0379 19.92 17.9344L19.7186 17.779L19.6208 17.7043C19.6036 17.6928 19.5863 17.6812 19.5748 17.664L19.5575 17.595C19.5173 17.4051 19.477 17.221 19.454 17.037C19.3965 16.5998 19.454 16.1741 19.5921 15.7599C19.6381 15.5528 19.7531 15.3515 19.8222 15.1386C19.9315 14.9373 20.012 14.7129 20.1271 14.4886C20.3111 14.0686 20.6908 13.758 21.0302 13.5279C21.7665 13.0274 22.4684 12.5902 23.1587 12.1415C23.8375 11.6928 24.5163 11.2384 25.2008 10.7839L30.6485 7.19429C31.3388 6.72833 32.0982 6.25662 32.8403 5.81367C35.1586 4.42155 37.6149 3.27102 40.1173 2.26432C40.612 2.06873 41.1125 1.8789 41.5784 1.63729C42.6484 1.06778 43.7874 0.670856 44.9495 0.342959C45.7433 0.0898451 46.681 -0.0367041 47.5554 0.00931663C48.4413 0.0725951 49.3272 0.29694 50.1325 0.722632C50.5122 0.912467 50.8804 1.14256 51.1853 1.43595C51.4384 1.70057 51.6742 1.98244 51.8928 2.27582L52.1862 2.71878L52.4221 3.09845C52.7327 3.60468 53.0433 4.11091 53.3367 4.62864C53.9292 5.6526 54.4757 6.72833 54.8957 7.82132C55.2408 8.71297 55.5285 9.63338 55.7586 10.5711C55.8736 11.037 55.9772 11.5145 56.0635 11.9919L56.1843 12.7053L56.3166 13.5912C56.3396 13.896 56.4316 14.2239 56.3626 14.4828C56.3396 14.6151 56.3396 14.7589 56.2936 14.8797C56.2475 15.0063 56.1612 15.1386 56.0692 15.2249C55.8909 15.3975 55.6493 15.5585 55.3501 15.6563L54.9244 15.8174L54.5735 15.944L52.5544 16.6228C52.4681 16.6515 52.3876 16.7091 52.2955 16.7378C51.5247 16.9852 51.1565 16.7723 51.3061 16.1453C51.4384 15.5873 51.8238 15.1386 52.4968 14.8625C53.2102 14.5691 54.1536 14.2124 54.3492 14.1607L54.2686 14.1377Z" fill="#F8AFB8"/>
<path d="M47.515 4.50195C48.0845 4.64577 48.5735 5.08295 48.7288 5.70998C49.5687 9.01197 50.6099 15.0177 50.8918 16.4731L55.3155 14.5977C54.9991 12.5556 54.4756 10.4559 53.1928 7.53932C52.8016 6.64191 52.3817 5.81353 51.9618 5.04844L47.515 4.50195Z" fill="#F8AFB8"/>
<path d="M56.483 68.5979C55.5913 68.9545 54.5674 68.5403 54.1992 67.6545C53.3824 65.6986 52.5885 63.432 51.95 60.8779C51.4725 58.9623 51.1503 57.1617 50.9317 55.5165C50.8627 54.9815 52.3239 52.4791 52.7035 52.0937C53.6067 51.1791 53.5607 52.0707 55.2002 51.1273C55.8272 50.7706 56.437 50.4715 57.018 50.2241C58.0937 49.7639 59.296 50.4715 59.4513 51.6278C59.6814 53.365 60.0899 55.3612 60.8032 57.5184C61.4475 59.4685 64.0994 59.5491 64.853 60.9584C65.2269 61.666 63.2193 64.1281 62.6325 64.6746C61.9652 65.3016 61.1714 65.9574 60.2452 66.5902C58.9106 67.4991 57.6163 68.1377 56.483 68.5979Z" fill="#F8AFB8"/>
<path d="M53.8545 68.6496C53.7337 68.4598 53.6302 68.2585 53.5612 68.0456C53.4921 67.8328 53.4806 67.7235 53.4403 67.5567C53.3713 67.246 53.3138 66.9411 53.2793 66.6247C53.216 66.061 53.1757 65.5145 52.8421 65.0428C52.7558 64.922 52.7385 64.7609 52.6925 64.6228C52.6062 64.364 52.5199 64.1051 52.4221 63.852C52.3761 63.737 52.2438 63.6392 52.2438 63.5183C52.2265 62.9258 52.1173 62.3793 51.7951 61.8788C51.8929 61.3956 51.6283 61.016 51.4615 60.596C51.2889 60.1761 51.2371 59.7274 50.9782 59.3305C50.9092 59.2269 50.8689 59.0946 50.8747 58.9738C50.9092 58.2317 50.7194 57.5357 50.5583 56.8281C50.518 56.6383 50.4778 56.4484 50.4548 56.2528L50.4202 55.9652L50.3972 55.6258C50.3915 55.3612 50.472 55.1023 50.5928 54.878C50.6964 54.6881 50.8172 54.5213 50.9495 54.366C51.2256 54.0323 51.4212 53.6527 51.634 53.2845C51.8929 52.8473 52.077 52.3929 52.4049 51.9442L52.4854 51.8464C52.75 51.553 53.1125 51.2481 53.5554 51.2136C53.7855 51.1848 53.9006 51.156 54.0271 51.1043C54.1537 51.0525 54.2745 50.9777 54.3895 50.8914C54.5564 50.7706 54.7174 50.6268 54.89 50.4772L55.4998 50.0285L56.1268 49.5856L56.449 49.3727L56.61 49.2634L56.8689 49.1426C57.611 48.8378 58.5141 49.0218 59.1469 49.4648C59.797 49.8905 60.2284 50.6153 60.3204 51.3516C60.3492 51.5645 60.3435 51.6278 60.355 51.7658L60.378 52.1282C60.3952 52.3698 60.424 52.6115 60.4527 52.8473C60.5448 53.5664 60.7174 54.2797 60.9245 54.9757C61.1201 55.6258 61.3904 56.2528 61.632 56.8799L61.7528 57.1963C61.7874 57.2595 61.8219 57.3171 61.8506 57.3804L61.9714 57.5472L62.121 57.7025C62.3338 57.9038 62.6445 58.0937 63.0126 58.272C63.3866 58.4561 63.8123 58.6286 64.2955 58.876C64.5543 59.0198 64.7442 59.1061 65.0951 59.3765C65.4345 59.6469 65.7279 59.969 65.958 60.3314L66.0615 60.5558C66.05 60.642 66.1018 60.7169 66.119 60.7974C66.1593 60.9585 66.1881 61.1253 66.1766 61.2921C66.1766 61.7408 65.9925 62.1895 65.8199 62.6267C65.6819 62.9258 65.561 63.1789 65.423 63.4263C65.2849 63.6736 65.1238 63.898 64.957 64.1108C64.6464 64.5078 64.3242 64.8817 63.9676 65.2556C63.8008 65.434 63.5419 65.6813 63.3751 65.8194L62.8171 66.2969C61.7356 67.1943 60.5851 68.0111 59.3483 68.6784C58.6464 69.0581 57.9216 69.363 57.2486 69.8117C57.0587 69.9382 56.9437 69.8462 56.9149 69.5586C56.8689 69.0638 56.7768 68.5634 56.9897 68.1549C57.1335 67.8788 57.2658 67.6545 57.5592 67.5912C57.9906 67.4991 58.2783 67.0907 58.7845 67.1367C58.8593 67.1425 58.9226 67.0849 58.9743 67.0389C59.889 66.1243 60.9935 65.5317 61.9714 64.7206C62.2993 64.4502 62.5294 64.1569 62.7825 63.829L63.2773 63.2077C63.5189 62.9086 63.7835 62.6209 63.9618 62.2873C64.0309 62.1607 64.0769 62.0284 64.1517 61.9191C64.2322 61.7983 64.3012 61.7638 64.4911 61.6948C64.5659 61.666 64.6004 61.5337 64.5428 61.4877C64.3127 61.3151 64.3703 61.177 64.2725 61.0332L64.261 61.016C64.1402 60.8261 64.0309 60.6938 63.795 60.527C63.5591 60.3544 63.2888 60.1934 62.9954 60.0438C62.5582 59.8194 62.0807 59.6296 61.5975 59.365C61.2236 59.1579 60.8382 58.8933 60.5045 58.5194C60.3434 58.3295 60.1939 58.1224 60.0846 57.8923C59.958 57.6564 59.9005 57.5241 59.8085 57.3286C59.5381 56.7245 59.3425 56.0918 59.1354 55.459C59.0894 55.3152 58.9973 55.1771 58.9571 55.0333C58.8823 54.7629 58.7557 54.4868 58.7903 54.2107C58.8305 53.9 58.8075 53.6757 58.5314 53.4513C58.3761 53.3248 58.3473 53.0832 58.3358 52.8818C58.3243 52.6287 58.3703 52.3641 58.4221 52.1052C58.4393 52.0304 58.4509 51.9499 58.4681 51.8751C58.4739 51.8176 58.4854 51.7543 58.4911 51.6968C58.4969 51.6278 58.4624 51.5587 58.3531 51.5357C58.2438 51.5127 58.2495 51.4264 58.2438 51.3229C58.2265 51.0928 58.0309 50.9087 57.8066 50.8684C57.6973 50.8512 57.5822 50.8511 57.4729 50.8914C57.4096 50.9144 57.3866 50.9259 57.3003 50.972L57.0415 51.1273L55.6666 52.0132C55.3962 52.203 55.1028 52.3871 54.7347 52.5424C54.5506 52.6172 54.3435 52.6862 54.1192 52.7323C54.0214 52.7553 53.889 52.7668 53.8258 52.7783C53.751 52.7898 53.7452 52.7955 53.7395 52.8013C53.7165 52.8185 53.6992 52.8358 53.6877 52.8588C53.6762 52.876 53.6705 52.8933 53.6244 52.9451C53.6359 52.9451 53.5899 53.0026 53.5381 53.0832C53.2333 53.5779 52.8823 54.1762 52.5775 54.7227C52.4279 54.9873 52.2726 55.3037 52.1978 55.4647C52.1863 55.4647 52.169 55.4992 52.1633 55.5222C52.1575 55.505 52.1633 55.6143 52.1748 55.6948L52.1978 55.9479C52.2208 56.2125 52.2381 56.4829 52.3301 56.7361C52.5429 57.3171 52.6235 57.9096 52.6638 58.5194C52.7098 59.2557 52.9686 59.9402 53.2448 60.6133C53.308 60.7686 53.4058 60.9239 53.4288 61.085C53.5957 62.2413 54.1594 63.2825 54.4873 64.387C54.7577 65.2844 54.959 66.2048 55.2121 67.1195C55.2467 67.2345 55.2352 67.223 55.2409 67.2748C55.2467 67.3093 55.2582 67.3496 55.2697 67.3841C55.2927 67.4531 55.3329 67.5279 55.3847 67.5969C55.494 67.7292 55.6608 67.85 55.8679 67.8903C55.8967 67.8961 55.9197 67.8731 55.9485 67.8788C56.0635 67.9018 56.1728 67.9708 56.2706 68.1089C56.3684 68.247 56.4547 68.4426 56.4374 68.7187C56.4259 69.2076 56.029 69.6046 55.4595 69.5125C54.844 69.4147 54.286 69.0696 53.9178 68.5921L53.8545 68.6496Z" fill="#F8AFB8"/>
<path d="M58.1641 66.0149C57.2724 66.3715 56.2485 65.9574 55.8803 65.0715C55.0634 63.1156 54.2696 60.8491 53.6311 58.2949C53.1536 56.3793 52.8315 54.5787 52.6129 52.9335C52.5438 52.3985 52.7106 51.852 53.0903 51.4666C53.9935 50.5519 55.2418 49.4819 56.8813 48.5443C57.5083 48.1876 58.1181 47.8885 58.6991 47.6411C59.7748 47.1809 60.9771 47.8885 61.1324 49.0448C61.3625 50.782 61.771 52.7782 62.4843 54.9354C63.1286 56.8856 63.8937 58.571 64.6473 59.9747C65.0212 60.6822 64.8946 61.5451 64.3136 62.0916C63.6463 62.7187 62.8524 63.3744 61.9263 64.0072C60.5917 64.9219 59.2974 65.5604 58.1641 66.0149Z" fill="#F1D1D5"/>
<path d="M55.638 66.1814C55.5057 66.0088 55.4079 65.819 55.3216 65.6234C55.2813 65.5256 55.2468 65.422 55.2238 65.33L55.1778 65.1114C55.1145 64.8181 55.0627 64.5189 55.034 64.2198C54.9822 63.679 54.9419 63.1555 54.614 62.7126C54.5277 62.5975 54.5162 62.448 54.4702 62.3099C54.3839 62.0625 54.3034 61.8152 54.2056 61.5736C54.1653 61.4643 54.033 61.3722 54.0273 61.2572C54.0158 60.6934 53.9065 60.1699 53.5901 59.6925C53.6879 59.2265 53.429 58.8699 53.2564 58.4729C53.0896 58.076 53.0321 57.6446 52.7732 57.2707C52.7042 57.1729 52.6582 57.052 52.6639 56.9312C52.6984 56.2179 52.5028 55.5621 52.3418 54.8891C52.2555 54.5267 52.1979 54.1585 52.1749 53.7903C52.1634 53.6062 52.1634 53.4164 52.1692 53.2323L52.1864 52.9447C52.1922 52.8296 52.2152 52.7203 52.244 52.611C52.3648 52.1623 52.5258 51.7194 52.8307 51.3743C53.1759 51.0061 53.475 50.6494 53.8317 50.31C54.3437 49.8325 54.8556 49.3551 55.3446 48.8259C55.6725 48.475 56.0292 48.1413 56.4031 47.8306C56.7885 47.5373 57.1912 47.2612 57.6054 46.9908C57.8182 46.8527 58.0368 46.7434 58.2727 46.6456C58.6293 46.5133 59.0148 46.4615 59.3887 46.4788C60.148 46.5133 60.8441 46.8815 61.2985 47.428C61.5286 47.6983 61.7012 48.0147 61.8105 48.3484C61.8623 48.5152 61.8968 48.682 61.9198 48.8546C61.9428 49.0214 61.9428 49.0962 61.9543 49.2228C62.0176 49.9131 62.1614 50.5977 62.334 51.265C62.4951 51.892 62.7367 52.496 62.9438 53.1058C63.5593 54.9121 64.3244 56.6609 65.2448 58.3119C65.3541 58.5075 65.4749 58.7031 65.6015 58.8929L65.7856 59.1805L65.8833 59.3358C65.9351 59.4279 65.9869 59.5199 66.0272 59.612C66.1997 59.9974 66.286 60.4231 66.2745 60.8487C66.2573 61.6369 65.9236 62.425 65.3656 62.9772L65.2621 63.0808L65.193 63.144L65.0607 63.2591L64.7904 63.4892L64.2496 63.9321C63.2084 64.772 62.1039 65.5429 60.9189 66.1699C60.2458 66.5266 59.5498 66.8199 58.9112 67.2514C58.7329 67.3722 58.6178 67.2801 58.5891 66.9925C58.5315 66.4978 58.4453 65.9973 58.6351 65.6004C58.7674 65.33 58.894 65.1114 59.1758 65.0539C59.59 64.9676 59.8604 64.5764 60.3494 64.6282C60.4184 64.634 60.4817 64.5822 60.5334 64.5362C61.4078 63.656 62.4663 63.1095 63.4155 62.3502C63.5708 62.2294 63.7089 62.0856 63.8469 61.9475C63.9965 61.7922 64.0943 61.6829 64.1691 61.5563C64.2726 61.3952 64.3359 61.2169 64.3762 61.0271C64.4279 60.7567 64.4279 60.4461 64.2726 60.1987C64.1288 59.9628 63.9102 59.7443 64.0483 59.3876C64.077 59.3128 63.9965 59.1863 63.9102 59.169C63.5823 59.1 63.5075 58.8699 63.4097 58.6513C63.1509 58.0587 62.938 57.4432 62.6964 56.8449C62.5181 56.402 62.311 55.9706 62.0981 55.5391C61.7645 54.8718 61.3963 54.2045 61.1145 53.5027C60.8786 52.9159 60.7118 52.3062 60.5334 51.7022C60.4932 51.5641 60.4069 51.4318 60.3724 51.288C60.3091 51.0291 60.194 50.7587 60.2401 50.4941C60.2918 50.2007 60.2803 49.9821 60.01 49.7635C59.8604 49.6369 59.8374 49.4069 59.8374 49.217C59.8546 49.148 59.9237 49.0559 59.9524 48.9351C59.9985 48.7971 59.9697 48.5958 59.7568 48.6705C59.6533 48.7108 59.613 48.636 59.5613 48.5497C59.4347 48.3656 59.2103 48.3081 58.986 48.3829C58.6351 48.5382 58.3072 48.728 57.9793 48.9351C57.0819 49.4529 56.311 50.1662 55.5805 50.8623L54.7118 51.6791L54.056 52.3292C53.9812 52.404 53.9985 52.3867 53.9812 52.4097C53.9697 52.4212 53.9582 52.4385 53.9467 52.4557C53.9237 52.4903 53.9065 52.5247 53.8892 52.5708C53.8029 52.565 53.918 53.4452 53.964 54.0492C53.987 54.3023 54.0043 54.5612 54.1021 54.797C54.3207 55.3435 54.4012 55.913 54.4415 56.494C54.4932 57.1959 54.7463 57.8459 55.0225 58.4902C55.0857 58.6398 55.1835 58.7836 55.2065 58.9389C55.3676 60.0434 55.9256 61.0271 56.242 62.0798C56.4951 62.9197 56.7022 63.8458 56.9208 64.657C56.9266 64.9158 57.1509 65.2495 57.5536 65.3358C57.5766 65.3473 57.6054 65.3128 57.6284 65.3185C57.7377 65.3415 57.8412 65.4105 57.939 65.5486C58.0311 65.6867 58.1231 65.8822 58.1116 66.1584C58.1059 66.6473 57.7377 67.0328 57.1912 66.9637C56.6044 66.889 56.0637 66.5726 55.684 66.1411L55.638 66.1814Z" fill="#F8AFB8"/>
</svg>
