<svg width="148" height="105" viewBox="0 0 148 105" fill="none" xmlns="http://www.w3.org/2000/svg">
<path d="M102.392 71.7534C104.384 71.4394 106.396 71.1647 108.387 71.0764C110.173 71.0273 111.9 71.047 113.715 70.939C114.186 70.9194 114.687 70.9881 115.177 71.0077C116.06 71.0764 116.953 71.1549 117.826 71.3021C118.229 71.3708 118.67 71.3315 119.023 71.4492C120.819 71.9398 122.546 72.5285 124.322 73.0976C125.578 73.8139 126.912 74.2358 128.286 74.6381C129.649 75.0502 131.033 75.4917 132.436 75.6094C132.809 75.6389 133.221 75.7075 133.584 75.7762C134.143 75.894 134.702 75.9823 135.272 76.0117C136.057 76.0706 136.861 76.0313 137.793 75.9136C138.421 76.1589 138.98 76.1393 139.5 76.1C139.608 76.0706 139.481 76.1687 139.471 76.1981L139.363 76.3453L139.147 76.6397L138.686 77.2872L136.881 78.5824L135.389 79.6126C134.516 80.2013 133.643 80.7704 132.75 81.3297C131.622 82.0263 130.503 82.8407 129.404 83.6452L125.519 86.5397C124.577 87.2461 123.645 87.9428 122.713 88.6492L121.329 89.7187L119.848 90.8961L119.524 91.1512C119.406 91.2101 119.278 91.0825 119.151 91.0629L118.425 90.798L117.326 90.4055C116.59 90.17 115.864 89.9149 115.118 89.6991C113.647 89.2477 112.145 88.8749 110.644 88.5609C109.114 88.2371 107.563 87.9231 106.003 87.7367C102.883 87.3541 99.7041 87.4129 96.5643 87.9035C94.2193 88.2567 91.8939 88.9141 89.5882 89.6206C87.4394 90.2878 85.3201 91.0629 83.2007 91.8184C81.5033 92.4169 79.8255 93.0449 78.1379 93.6728L75.6163 94.6344L72.7022 95.7725L71.7995 95.331L71.2893 95.0955L70.2394 94.6442C69.533 94.3498 68.8266 94.0555 68.1103 93.7906C66.6778 93.2411 65.2355 92.7407 63.7735 92.2795C62.2625 91.7791 60.7123 91.3867 59.1816 90.9844L56.8661 90.3761C54.001 89.6696 51.1164 89.0122 48.1925 88.5707C44.0127 87.8839 39.7838 87.5405 35.555 87.4227C34.358 87.4031 33.1511 87.3344 31.9541 87.3737C30.7571 87.4129 29.56 87.4816 28.3728 87.5797C27.7056 87.6386 27.48 87.5307 27.7252 87.2952C28.1373 86.8733 28.4611 86.4416 29.6189 86.157C30.4038 85.9706 31.1397 85.8234 32.1209 85.8529C33.5436 85.9314 35.0546 85.794 36.4479 86.0589C36.6441 86.0982 36.9286 86.0883 37.1641 86.0785C41.3635 86.0197 45.5728 86.5691 49.7133 87.2952C51.0674 87.5307 52.4214 87.776 53.7852 88.0114L56.3951 88.6001C57.6608 88.8847 58.8971 89.2968 60.153 89.6009C61.0949 89.856 62.027 90.0621 62.8022 90.5527C62.969 90.6508 63.4595 90.798 63.646 90.8078C64.372 90.8176 65.1374 91.0923 65.8929 91.3671C67.9435 92.1226 69.9647 92.9566 71.9467 93.8789L72.7807 94.2811C73.8894 93.8396 74.9981 93.3883 76.097 92.9467C78.4028 92.0048 80.7085 91.0531 83.0437 90.1798C85.0061 89.4538 86.9979 88.7964 88.9995 88.1488L90.3731 87.6877C91.2365 87.4424 92.1294 87.1284 92.9634 87.0106C93.8955 86.8635 94.6118 86.7261 95.4458 86.3729C95.9069 86.1668 96.682 86.0589 97.31 85.9902C98.1244 85.9019 98.9387 85.8921 99.7335 85.8921C100.695 85.9117 101.588 85.9608 102.618 85.8038C103.168 85.7351 103.943 85.7842 104.571 85.8823C107.328 86.265 110.055 86.7359 112.754 87.4326C114.579 87.9035 116.374 88.4824 118.14 89.13L118.798 89.3851L119.131 89.5126L119.22 89.5421L119.298 89.5617L119.367 89.5028L119.426 89.4538L119.7 89.2379L121.908 87.5503C123.076 86.6869 124.243 85.8136 125.421 84.9404C127.246 83.5962 129.08 82.2716 130.935 80.9568L133.712 78.9945L135.105 78.0133L135.281 77.8956L135.38 77.8269L135.438 77.7974L135.566 77.7189L135.693 77.6404C135.801 77.5718 135.919 77.4933 135.9 77.4638C135.89 77.4638 135.909 77.4442 135.87 77.4638C135.635 77.5325 135.536 77.5521 135.448 77.562C135.389 77.562 135.34 77.562 135.281 77.5521L134.928 77.5227C134.781 77.5129 134.644 77.4933 134.496 77.4736C134.212 77.4344 133.918 77.405 133.633 77.3559C131.111 76.9438 128.708 76.2766 126.363 75.4819C125.813 75.3053 125.264 75.1188 124.744 74.8834C121.29 73.2448 117.62 72.5776 113.882 72.4402C110.86 72.3323 107.799 72.5384 104.737 72.9897C102.383 73.3429 100.028 73.8041 97.6828 74.3339C97.5357 74.3731 97.3689 74.4222 97.2217 74.4615C95.8873 74.7656 95.3869 74.5988 95.8971 74.0003C96.3484 73.4803 97.1628 72.9995 98.3795 72.6953C99.7139 72.3519 101.068 72.0772 102.422 71.8025L102.392 71.7534Z" fill="#DAA114"/>
<path d="M28.8524 84.8226C29.3724 84.6263 29.8728 84.4105 30.4026 84.2535C30.8736 84.1161 31.3446 83.9886 31.6978 83.6157C31.7861 83.5176 31.9234 83.4784 32.0314 83.4097C32.2374 83.2821 32.4435 83.1644 32.6397 83.027C32.728 82.9682 32.7869 82.8406 32.885 82.8112C33.3854 82.6738 33.8269 82.458 34.1801 82.0655C34.6119 82.0262 34.867 81.7123 35.1711 81.467C35.4753 81.2217 35.8383 81.0451 36.0934 80.7311C36.1621 80.6428 36.2602 80.5741 36.3584 80.5447C36.9765 80.3582 37.4965 79.9854 38.0165 79.6224C38.5758 79.2397 39.1841 78.9355 39.8611 78.7393C40.2144 78.6314 40.5381 78.4351 40.8521 78.2487C41.225 78.0231 41.5782 77.7483 41.951 77.5128C42.4907 77.1694 43.0009 76.7966 43.4817 76.3649C44.1194 75.7762 44.7768 75.2267 45.4636 74.6969C45.807 74.4319 46.2191 74.2553 46.6116 74.0591C47.3966 73.6568 48.1913 73.2938 48.9664 72.8817C49.5453 72.5677 50.1046 72.2145 50.654 71.8515C51.1741 71.5179 51.6549 71.1352 52.1651 70.7918L54.4414 69.2808L55.0105 68.8981L55.452 68.6136L55.5893 68.5253L55.7463 68.5155L56.0603 68.4959L57.483 68.3781C57.9245 68.3291 58.3661 68.2898 58.8076 68.2407C59.0234 68.2211 59.2491 68.2113 59.465 68.2211L61.9179 68.2702C63.0855 68.28 64.2629 68.28 65.4305 68.3094C66.0977 68.3291 66.7551 68.3781 67.4223 68.2604C67.6087 68.2309 67.6676 68.3389 67.5891 68.5744C67.4615 68.9766 67.3536 69.3985 67.0298 69.634C66.814 69.791 66.6079 69.9186 66.343 69.8499C65.9603 69.7518 65.5482 69.9382 65.1754 69.6831C65.1263 69.6438 65.0479 69.6536 64.9792 69.6733C63.841 69.9382 62.7028 69.7812 61.5647 69.7616C61.1918 69.7518 60.819 69.8008 60.4461 69.8204C60.2008 69.8302 59.9654 69.8303 59.7201 69.8303C59.3668 69.8303 59.0136 69.791 58.6702 69.8204C58.4053 69.8401 58.1502 69.9284 57.9049 69.6929C57.8558 69.6438 57.7185 69.6635 57.6694 69.7223C57.4928 69.948 57.2671 69.9284 57.0513 69.9382H56.1781C55.9622 69.8989 55.8346 70.0363 55.5403 70.1933C55.1674 70.419 54.8044 70.6741 54.461 70.939C53.9214 71.3609 53.4111 71.8122 52.8715 72.2243C52.4201 72.5677 51.9394 72.8719 51.4684 73.1957C51.3605 73.2742 51.2722 73.3821 51.1642 73.4508C50.9582 73.5783 50.7718 73.7549 50.5363 73.804C50.2714 73.8531 50.0948 73.9414 49.9966 74.2357C49.9378 74.4025 49.7612 74.4908 49.6042 74.5595C49.4079 74.6478 49.1823 74.6969 48.9664 74.7361C48.7015 74.7852 48.4464 74.8244 48.2894 75.0992C48.2011 75.2463 48.0049 75.3052 47.8381 75.3444C47.0826 75.5112 46.4546 75.9135 45.8561 76.3452C45.0515 76.9438 44.2274 77.5521 43.4228 78.1604C43.099 78.3959 42.7654 78.6019 42.4318 78.8178C41.4016 79.485 40.3125 80.0639 39.2234 80.633C39.0075 80.7409 38.7917 80.8488 38.6052 81.0156C38.1833 81.3885 37.7026 81.6436 37.1924 81.8594C36.584 82.1243 36.0542 82.5364 35.544 82.9485C35.4263 83.0466 35.3183 83.1644 35.1711 83.2233C34.2096 83.6648 33.405 84.381 32.4729 84.8814C31.7174 85.2837 30.9325 85.6173 30.1475 85.9705C29.5392 86.2257 28.9309 86.4906 28.3127 86.7457C28.2735 86.7653 28.2441 86.8045 28.2048 86.8144C27.8516 86.9517 27.5965 86.7653 27.5278 86.2943C27.4591 85.8724 27.5572 85.5585 27.8516 85.3917C28.1754 85.2052 28.5188 85.0482 28.8426 84.8814L28.8524 84.8226Z" fill="#DAA114"/>
<path d="M141.925 87.3933C141.424 87.7662 140.855 88.1096 140.345 88.453L139.256 89.1496C138.569 89.5813 137.892 90.0032 137.205 90.4055C135.979 91.1316 134.772 91.838 133.663 92.7898C133.379 93.0351 133.026 93.2411 132.712 93.4766L130.985 94.7227C130.72 94.9189 130.494 95.1838 130.239 95.331C128.954 96.0767 127.737 96.9009 126.618 97.882C125.569 98.4021 124.725 99.1674 123.812 99.8935L122.419 100.953L121.703 101.512C121.556 101.64 121.379 101.748 121.183 101.767C120.996 101.787 120.761 101.787 120.643 101.797C120.339 101.826 119.986 101.826 119.682 101.787C117.817 101.552 115.943 101.532 114.059 101.493C112.038 101.454 110.027 101.316 108.025 101.061C106.966 100.924 105.847 100.884 104.748 100.835L100.833 100.747C98.9396 100.688 97.0557 100.669 95.1817 100.718C92.6699 100.786 90.1286 100.826 87.5972 100.816C86.3119 100.816 84.9971 100.698 83.702 100.62L79.8067 100.355L78.2663 100.237C78.0994 100.237 78.07 100.413 78.0504 100.531L77.9719 100.875C77.9327 101.051 77.8738 101.218 77.8247 101.395C77.6579 101.915 77.4225 102.435 77.0496 102.915C76.6768 103.386 76.1469 103.769 75.5877 103.975C75.0186 104.191 74.4397 104.24 73.8902 104.23C73.3408 104.211 72.8011 104.152 72.2615 103.985C71.506 103.759 70.7407 103.337 70.201 102.68C69.9263 102.356 69.7104 101.993 69.5534 101.611C69.4651 101.424 69.4063 101.228 69.3572 101.032C69.3376 100.933 69.3082 100.835 69.2885 100.737L69.2591 100.61C69.2395 100.541 69.2591 100.453 69.1904 100.404C69.1315 100.345 69.0432 100.374 68.9745 100.374L52.9422 100.207L49.0371 100.198C48.3896 100.198 47.7322 100.178 47.0846 100.149L39.8435 99.8836L29.4235 99.5795L28.0106 99.5402C27.5593 99.5108 27.0196 99.55 26.7056 99.4323C26.3917 99.3244 26.1856 99.1772 26.0482 99.0496C25.9599 98.981 25.9207 98.9417 25.8422 98.8338C25.7637 98.7259 25.6852 98.5787 25.6362 98.4217C25.5871 98.2647 25.5675 98.0881 25.5675 97.9507C25.5675 97.8035 25.5577 97.7349 25.7343 97.6171L26.4996 96.9401C27.0098 96.4888 27.5102 96.0178 28.0204 95.537C28.5993 94.9778 28.8446 94.9189 28.7563 95.2917C28.6876 95.6057 28.668 95.8804 28.5895 96.1454C28.511 96.4103 28.354 96.6752 28.2167 96.9205C28.1087 97.0971 28.0302 97.2247 27.9223 97.3522C27.8732 97.4209 27.7849 97.47 27.7261 97.5583C27.677 97.6466 27.6672 97.7937 27.7064 97.9115C27.7849 98.0979 28.0204 98.039 28.2068 98.0586H28.825C29.031 98.0586 29.2175 98.0685 29.4137 98.0881C29.5707 98.1077 29.9435 98.1568 30.1986 98.2255C30.3556 98.2647 30.5911 98.2549 30.7775 98.2451C34.1625 98.0587 37.5476 98.3039 40.9326 98.4315C42.0414 98.4707 43.1501 98.4609 44.2588 98.4806L46.4174 98.5394C47.4574 98.5787 48.5073 98.6474 49.5473 98.6572C50.3323 98.667 51.0976 98.6081 51.804 98.873C51.9512 98.9319 52.3633 98.9221 52.5105 98.873C53.0697 98.667 53.7173 98.7062 54.3747 98.7357L59.6338 98.9319C60.9289 98.9613 62.2339 98.9613 63.529 98.9515L66.5413 98.8828L68.0522 98.8436L68.8078 98.8338H69.3376C69.5437 98.8338 69.7497 98.8436 69.9263 98.8927C70.1716 98.9417 70.4267 99.1085 70.5739 99.3342C70.721 99.55 70.7799 99.8051 70.8192 100.109C70.829 100.237 70.8584 100.413 70.8682 100.482C70.878 100.551 70.8977 100.61 70.9173 100.678C70.9565 100.806 70.9958 100.933 71.0448 101.051C71.143 101.297 71.2705 101.512 71.4275 101.699C71.7316 102.081 72.1535 102.346 72.6539 102.494C72.9483 102.592 73.2721 102.601 73.5959 102.621C74.214 102.68 74.7831 102.572 75.1952 102.454C75.6661 102.327 75.9801 101.983 76.0292 101.424C76.039 101.267 76.088 101.081 76.1469 100.875L76.2352 100.551L76.2745 100.384L76.2941 100.286C76.3137 100.217 76.3235 100.158 76.3333 100.099C76.4118 99.8149 76.5001 99.5402 76.5885 99.2753C76.7062 99.0496 76.9122 98.8436 77.1477 98.716C77.393 98.5885 77.6285 98.5492 77.913 98.5492C78.178 98.5689 78.5018 98.6081 78.6882 98.6277C79.4437 98.7455 80.1403 98.873 80.9645 98.7553C81.406 98.6964 82.0045 98.7651 82.4951 98.8436C84.6733 99.1772 86.8809 99.2459 89.0886 99.2655L98.0761 99.3244C99.2535 99.3342 100.431 99.3734 101.608 99.4127C105.268 99.5206 108.918 99.7266 112.578 99.9523C113.294 99.9916 114.02 100.05 114.727 100.031C116.365 100.001 117.994 100.09 119.613 100.227C120.054 100.256 120.486 100.286 120.918 100.315C120.937 100.315 120.967 100.315 120.987 100.306L121.104 100.217L121.693 99.7855C122.478 99.1968 123.243 98.5983 124.018 97.99C124.381 97.7054 124.725 97.4013 125.098 97.156C127.717 95.4291 130.151 93.4471 132.721 91.6614C134.801 90.2191 136.931 88.8454 139.05 87.4522C139.315 87.2756 139.315 87.2854 139.374 87.2559L139.56 87.1676C139.688 87.0891 139.864 87.0303 140.021 86.9027C140.08 86.8242 140.07 86.7163 140.011 86.6771C139.953 86.6476 139.884 86.6476 139.815 86.6378L139.285 86.5691C139.227 86.5593 139.177 86.5789 139.109 86.5789C138 86.5201 137.647 86.2257 138.177 85.7842C138.412 85.588 138.706 85.431 139.079 85.3328C139.55 85.2249 140.335 85.1661 141.101 85.1759C141.522 85.1955 141.787 85.3132 142.013 85.4113C142.121 85.4604 142.229 85.4996 142.317 85.5585C142.415 85.6272 142.523 85.7548 142.592 85.9117C142.651 86.0687 142.67 86.2453 142.641 86.3925C142.612 86.5397 142.543 86.6084 142.474 86.7163C142.347 86.9027 142.18 87.148 141.905 87.3933H141.925Z" fill="#DAA114"/>
<path d="M93.9835 69.84C93.9148 68.5841 93.8461 67.3282 93.905 66.092C93.9638 64.9832 94.0423 63.9138 93.905 62.7952C93.8657 62.5107 93.905 62.1967 93.9148 61.8925C93.9148 61.3431 93.954 60.7936 93.9638 60.2442C93.9638 59.9891 93.9148 59.7241 93.9541 59.4985C94.1699 58.3701 94.3563 57.2516 94.3956 56.0938C94.739 55.25 94.788 54.3669 94.9647 53.4741C95.1413 52.591 95.4651 51.7276 95.6417 50.8347C95.6907 50.5992 95.7888 50.3343 95.8968 50.1283C96.613 48.8331 97.241 47.5184 98.0455 46.2723C98.8207 45.1047 99.7724 44.0646 100.861 43.211L101.293 43.7703L100.783 44.0352C100.047 44.408 99.3309 44.879 98.6244 45.3401C97.7904 45.8896 96.9761 46.4783 96.1519 47.0376C94.9548 47.852 93.7774 48.6958 92.6491 49.6082C91.1381 50.8151 89.6075 52.0219 88.0572 53.1895C87.2624 53.7782 86.4088 54.3081 85.565 54.8379C83.8774 55.9074 82.1996 56.9769 80.5414 58.0954C79.3051 58.9392 78.0885 59.8223 76.9013 60.7348C75.7925 61.5786 74.7132 62.4714 73.6438 63.3545C72.9766 63.8941 72.3192 64.4436 71.6912 65.0029C71.3675 65.2776 71.0633 65.5621 70.7591 65.8467C70.6021 65.984 70.4746 66.1312 70.3274 66.2784C70.1998 66.4059 70.0429 66.5924 70.0331 66.6218C68.944 68.5253 68.2767 70.8408 67.9922 73.1171C67.8352 74.0591 67.8745 75.0108 67.8352 75.9626C67.8548 76.4335 67.8647 76.9143 67.8745 77.3853C67.8548 78.2683 68.0118 79.1416 68.0609 80.0246C68.1884 80.8979 68.3749 81.7711 68.5319 82.6443C68.9047 83.861 69.1794 85.1169 69.6995 86.3041L70.4059 88.0997L71.2497 89.8363C71.8384 91.1805 72.6626 92.407 73.4966 93.604C73.7419 93.9376 73.7125 94.1044 73.4377 94.1044C72.957 94.0946 72.4958 94.1437 71.9169 93.6531C71.5244 93.3195 71.181 92.9859 70.9161 92.4364C70.5138 91.6515 69.9644 90.8764 69.7878 89.9835C69.7681 89.856 69.6798 89.699 69.6013 89.5812C68.8557 88.4921 68.4239 87.2362 67.9333 86.0294C67.6979 85.4112 67.5605 84.7637 67.3839 84.1357C67.2073 83.498 67.0307 82.87 66.9326 82.2126C66.7952 81.3688 66.5205 80.5348 66.4518 79.6714C66.3831 79.1121 66.3242 78.5627 66.2752 78.0034C66.2752 77.189 66.2654 76.3746 66.285 75.5603C66.3144 74.9519 66.2653 74.3436 66.5597 73.8236C66.6284 73.7157 66.6578 73.4017 66.6186 73.2839C66.4714 72.8228 66.5401 72.3224 66.6578 71.822C66.9522 70.4778 67.3741 69.1728 67.9039 67.8973C68.2081 67.2105 68.4926 66.5335 68.8851 65.8663C69.0911 65.5719 69.2678 65.3855 69.4542 65.1795C70.5433 64.0217 71.6814 62.9718 72.8588 61.9612C73.8498 61.1174 74.88 60.3227 75.9005 59.5279C76.1359 59.3415 76.3518 59.1256 76.5873 58.949C77.0288 58.6154 77.4605 58.2328 77.9315 57.9973C78.4515 57.7324 78.8244 57.4871 79.1383 57.0161C79.315 56.7512 79.7074 56.4863 80.0312 56.2802C80.4531 56.0153 80.8946 55.7995 81.3362 55.5836C81.866 55.3285 82.3664 55.093 82.7883 54.6122C83.014 54.3571 83.4261 54.1315 83.7695 53.9647C85.2903 53.219 86.6737 52.2378 88.0474 51.237L93.6106 47.1455C94.3367 46.6157 95.0922 46.1055 95.8379 45.6051C97.3783 44.565 98.9384 43.5642 100.508 42.5732L101.823 44.2707L100.852 45.193C100.557 45.5266 100.243 45.8504 99.949 46.1938C99.635 46.6059 99.272 46.9983 99.0463 47.4693C98.4576 48.4995 97.9278 49.5494 97.3783 50.6189C96.7308 51.914 96.3874 53.3367 96.1519 54.7496C96.093 55.0832 96.0636 55.4168 95.9949 55.7406C95.4356 57.9973 95.4454 60.3619 95.3964 62.6873C95.3669 64.581 95.3473 66.4844 95.465 68.3879C95.5533 69.8597 95.6711 71.3314 95.8771 72.7934C95.887 72.8915 95.9262 72.9798 95.9458 73.0779C96.0636 73.9021 95.8477 74.2259 95.3277 73.9511C94.8665 73.696 94.5133 73.176 94.376 72.4107C94.2288 71.5571 94.1208 70.7035 94.0227 69.8498L93.9835 69.84Z" fill="#DAA114"/>
<path d="M73.2212 93.2801C73.5646 93.1035 73.8884 92.9073 74.2514 92.7601C74.5752 92.6325 74.899 92.5148 75.056 92.1812C75.0952 92.0929 75.1835 92.0536 75.2522 91.9948C75.3699 91.8868 75.4975 91.7789 75.6054 91.6513C75.6545 91.5925 75.6643 91.4846 75.733 91.4551C76.0764 91.3276 76.3511 91.1313 76.5081 90.7879C76.8319 90.7487 76.93 90.4739 77.0968 90.2483C77.2538 90.0226 77.4893 89.8754 77.5874 89.5909C77.6168 89.5124 77.6659 89.4535 77.7346 89.4241C78.1565 89.2475 78.441 88.9237 78.7354 88.5999C79.0493 88.2565 79.432 87.9818 79.8931 87.8052C80.1384 87.707 80.3249 87.5304 80.5113 87.3636C80.7369 87.1576 80.9234 86.9221 81.1294 86.7062C81.4434 86.4021 81.7279 86.0685 81.9536 85.676C82.2676 85.156 82.6012 84.6654 82.974 84.1944C83.1604 83.959 83.4254 83.802 83.6706 83.6155C84.1514 83.2525 84.6616 82.9287 85.1326 82.5559C85.4858 82.2713 85.8096 81.9574 86.1236 81.6336C86.4179 81.3294 86.6828 80.9958 86.9674 80.6818C87.8308 79.7792 88.7041 78.8765 89.5675 77.9738C89.7736 77.7579 89.96 77.5225 90.166 77.2968C90.2641 77.1889 90.3819 77.0809 90.4898 76.9926C90.9215 76.6394 91.3532 76.296 91.7751 75.9232C92.3737 75.4031 92.9623 74.8537 93.5609 74.3337C93.9043 74.0393 94.2575 73.7548 94.5028 73.3623C94.5715 73.2544 94.6794 73.3034 94.7971 73.5095C95.013 73.8627 95.2485 74.2257 95.2485 74.5495C95.2485 74.7752 95.2288 74.9518 95.062 75.0303C94.8069 75.1382 94.7285 75.4718 94.3654 75.462C94.3164 75.462 94.2869 75.5012 94.2575 75.5405C93.865 76.2666 93.188 76.6787 92.5895 77.1791C92.3933 77.3458 92.2363 77.5421 92.0499 77.7285C91.9321 77.8462 91.8144 77.9542 91.6868 78.0621C91.5004 78.2191 91.2944 78.3467 91.1276 78.5233C91 78.6508 90.9215 78.8274 90.637 78.7587C90.5781 78.7489 90.5192 78.8176 90.529 78.8863C90.5879 79.1414 90.4604 79.2199 90.3426 79.318C90.0286 79.5731 89.7049 79.8184 89.4105 80.0931C89.1947 80.2992 88.9886 80.5249 88.8022 80.7603C88.5177 81.1332 88.2625 81.5355 87.9682 81.9083C87.7229 82.2125 87.4482 82.4872 87.1832 82.7816C87.1244 82.8502 87.0851 82.9483 87.0263 83.0072C86.9085 83.125 86.8202 83.2819 86.6534 83.331C86.467 83.3801 86.3591 83.4586 86.3689 83.7137C86.3787 83.851 86.261 83.9393 86.1628 84.008C86.0353 84.0865 85.8783 84.1258 85.7213 84.1748C85.5349 84.2239 85.3485 84.2631 85.3092 84.4986C85.2896 84.6262 85.1522 84.685 85.0345 84.7145C84.5047 84.8715 84.1416 85.2247 83.808 85.6171C83.3567 86.147 82.925 86.6964 82.4834 87.2361C82.3068 87.4421 82.1106 87.6285 81.9242 87.8248C81.3256 88.4233 80.6683 88.9433 79.9913 89.4633C79.8637 89.5615 79.7165 89.6596 79.6282 89.8068C79.4124 90.1305 79.118 90.366 78.7942 90.5622C78.4018 90.8075 78.127 91.1706 77.8523 91.5336C77.7836 91.6219 77.7444 91.7298 77.6561 91.7789C77.0379 92.1812 76.6455 92.8091 76.0764 93.2605C75.6152 93.6235 75.105 93.9277 74.6144 94.2416C74.2318 94.4869 73.8295 94.7126 73.437 94.9481C73.4076 94.9677 73.3978 94.9972 73.3782 95.0168C73.1427 95.1443 72.8876 94.9775 72.6815 94.5654C72.4951 94.2024 72.4755 93.9179 72.6521 93.7707C72.8483 93.6039 73.0642 93.4567 73.2604 93.3095C73.2506 93.3095 73.2408 93.2899 73.2212 93.2801Z" fill="#DAA114"/>
<path d="M70.3458 96.5966C69.7866 96.3022 69.2371 96.0079 68.6582 95.7037C68.1676 95.429 67.677 95.1444 67.0883 95.115C66.9412 95.1052 66.794 95.0267 66.6468 94.9875C66.3819 94.909 66.117 94.8206 65.8422 94.752C65.7245 94.7225 65.5675 94.7716 65.4596 94.7127C64.9396 94.438 64.3901 94.2516 63.7818 94.2516C63.3893 93.9572 62.9282 93.9768 62.467 93.918C62.0157 93.8591 61.5643 93.7315 61.0934 93.7708C60.9658 93.7806 60.8284 93.761 60.7205 93.7119C60.0435 93.3979 59.3174 93.29 58.5816 93.1723C57.7966 93.0643 57.0313 92.8681 56.2954 92.5443C55.903 92.3775 55.4712 92.2892 55.0493 92.2205C54.5391 92.142 54.0289 92.1028 53.5187 92.0341C52.7828 91.936 52.047 91.8575 51.2915 91.8869C50.2907 91.9262 49.2899 91.9164 48.2989 91.8869C47.7887 91.8771 47.2883 91.7594 46.7879 91.6711C45.7871 91.4847 44.7863 91.2884 43.7659 91.1511C43.0103 91.0431 42.2352 90.9843 41.4699 90.9548C40.7537 90.9254 40.0374 90.945 39.3211 90.9254C37.2018 90.8861 35.0825 90.8371 32.9632 90.8665C32.453 90.8665 31.9427 90.9058 31.4325 90.9254H31.0499L30.5887 90.9156L27.6746 90.8371L27.1644 90.7292C27.0467 90.6801 27.0172 90.6212 26.9387 90.5624L26.5168 90.2288C26.3893 90.1405 26.3402 90.1012 26.2519 89.905C26.1636 89.7185 26.1146 89.4634 26.1342 89.2966C26.1342 89.1397 26.1735 89.0808 26.1931 88.9729C26.2421 88.8551 26.2617 88.757 26.35 88.6098C26.4285 88.4725 26.5169 88.3155 26.7131 88.1487C26.8897 87.9819 27.2135 87.8249 27.4882 87.6581L29.2053 86.6965L30.4317 86.0097C30.7653 85.8135 31.0891 85.6074 31.3835 85.3523C31.5503 85.215 31.668 85.2738 31.7171 85.5191C31.7955 85.941 31.9133 86.3629 31.7073 86.7652C31.5699 87.0301 31.4325 87.2558 31.1284 87.3539C30.9125 87.4226 30.7261 87.56 30.52 87.6777C30.3042 87.8053 30.2355 87.8249 29.9608 87.8445C29.8823 87.8445 29.8332 87.8936 29.794 87.9328C29.4898 88.2664 29.2249 88.4528 28.8226 88.6687C28.7245 88.7276 28.6166 88.7668 28.5086 88.8453C28.4105 88.9238 28.3811 89.0612 28.4203 89.1691C28.4596 89.277 28.5675 89.3065 28.6656 89.3065L28.9796 89.3261C29.1955 89.3359 29.4604 89.3163 29.7057 89.3065L29.9608 89.2966C30.157 89.2868 30.3434 89.2966 30.5397 89.2966C30.7457 89.3065 31.2755 89.3653 31.6582 89.3555C31.9722 89.3457 32.2763 89.277 32.5413 89.5321C32.6001 89.5812 32.7571 89.5812 32.816 89.5223C33.0417 89.3065 33.2968 89.3359 33.5519 89.3555L35.6221 89.4929C36.1323 89.5125 36.6524 89.5027 37.1626 89.4831C37.9573 89.4536 38.7521 89.3751 39.5566 89.3457C40.2238 89.3359 40.891 89.3751 41.5582 89.3849C41.7152 89.3849 41.8722 89.3555 42.0194 89.3555C42.3039 89.3653 42.6081 89.3359 42.8632 89.4438C43.1477 89.5616 43.3734 89.6008 43.6678 89.434C43.8346 89.3359 44.07 89.3751 44.2663 89.4144C44.5214 89.4634 44.7568 89.5616 45.0021 89.6597C45.2867 89.7774 45.5614 89.8952 45.895 89.7872C46.0716 89.7284 46.3071 89.8069 46.4935 89.8854C47.3177 90.2288 48.191 90.2974 49.0642 90.3465C50.2514 90.425 51.4386 90.4544 52.6258 90.5427C53.087 90.582 53.5482 90.6507 54.0191 90.7095C55.4614 90.8861 56.8743 91.2295 58.2774 91.573C58.5521 91.6416 58.8367 91.7103 59.1212 91.73C59.7786 91.779 60.3967 91.9458 61.0149 92.1519C61.7508 92.407 62.5357 92.4855 63.301 92.6032C63.4776 92.6326 63.6739 92.6326 63.8407 92.6915C65.0181 93.1232 66.2838 93.2213 67.4612 93.6531C68.4129 93.9965 69.3548 94.3595 70.2673 94.801C70.964 95.1444 71.6704 95.4878 72.3671 95.8214C72.4161 95.8411 72.4652 95.8411 72.5142 95.8705C72.9067 96.0765 72.9361 96.3905 72.5829 96.7437C72.2689 97.0479 71.9255 97.1657 71.5527 97.0283C71.1504 96.8811 70.7481 96.7045 70.3556 96.5377L70.3458 96.5966Z" fill="#DAA114"/>
<path d="M69.2193 98.2059C68.6404 97.9704 68.0321 97.8134 67.4532 97.5878C66.9332 97.3817 66.4131 97.1757 65.8441 97.2247C65.6969 97.2346 65.5497 97.1855 65.3927 97.1659C65.118 97.1364 64.8433 97.107 64.5686 97.0874C64.441 97.0776 64.3036 97.1462 64.1957 97.107C63.6462 96.901 63.087 96.8028 62.4983 96.8912C62.0764 96.6459 61.625 96.7538 61.1737 96.7734C60.7224 96.793 60.271 96.7145 59.8197 96.8225C59.7019 96.8519 59.5646 96.8519 59.4468 96.8127C58.7404 96.587 58.0143 96.5968 57.2784 96.5968C56.4935 96.587 55.7184 96.4889 54.9629 96.273C54.5508 96.1553 54.1191 96.1454 53.6972 96.1258C53.1968 96.1062 52.6865 96.1356 52.1763 96.1258C51.4405 96.116 50.7144 96.1455 49.9785 96.2534C48.9973 96.4104 48.0162 96.5085 47.0448 96.5968C46.5444 96.636 46.044 96.5772 45.5338 96.5379C44.533 96.4594 43.5224 96.3613 42.5216 96.3221C41.7661 96.2926 41.0106 96.3024 40.2453 96.3319C39.5388 96.3613 38.8324 96.4496 38.1259 96.479L31.611 96.8715C30.62 96.9402 29.629 97.0089 28.638 97.0678C28.1867 97.0874 27.7353 97.107 27.2938 97.1266L27.284 97.0678C27.2349 96.8323 27.1564 96.5281 27.1074 96.3613C27.0681 96.2338 27.0093 96.0768 26.97 95.9983L26.9308 95.7726L26.8032 94.8503L30.2668 92.8193L31.5128 92.0932C31.8366 91.897 32.1506 91.6811 32.445 91.4358C32.6118 91.2985 32.7197 91.3573 32.7786 91.6026C32.8669 92.0245 32.9846 92.4464 32.7982 92.8389C32.6706 93.1038 32.5332 93.3295 32.2389 93.4374C32.023 93.5159 31.8465 93.6533 31.6502 93.771C31.4736 93.8789 31.3853 93.9182 31.1106 93.9378C31.0321 93.9378 30.983 93.9869 30.9536 94.0261C30.7181 94.3008 30.512 94.4676 30.2275 94.6443C29.8252 94.8994 29.2071 95.1937 28.638 95.4979C28.6282 95.5077 28.5988 95.5175 28.5988 95.5175C28.8735 95.5077 29.3052 95.4488 29.6094 95.4292C29.8252 95.4096 30.0117 95.4096 30.1785 95.3998L30.4041 95.4096C30.5709 95.4194 30.7475 95.4292 30.9634 95.4096C31.2185 95.3899 31.4245 95.3016 31.503 95.5469C31.5226 95.596 31.6698 95.5764 31.7385 95.5175C31.9838 95.282 32.0623 95.3115 32.3665 95.3115C33.0435 95.3115 33.7303 95.3311 34.4073 95.3213C34.9077 95.3115 35.4179 95.2624 35.9183 95.2035C36.6934 95.1054 37.4686 94.968 38.2535 94.8896C38.9011 94.8209 39.5585 94.8012 40.2158 94.7522C40.363 94.7424 40.52 94.6933 40.6672 94.6835C40.9419 94.6737 41.2363 94.6246 41.5012 94.7031C41.7955 94.7914 42.0212 94.8111 42.2861 94.6148C42.4333 94.5069 42.6786 94.5167 42.8748 94.5363C43.1201 94.5658 43.3752 94.6345 43.6107 94.7129C43.9051 94.8013 44.1798 94.8994 44.4938 94.7522C44.6606 94.6737 44.896 94.7228 45.0923 94.7816C45.9361 95.0367 46.7897 95.0269 47.6531 94.968C48.8109 94.8994 49.9883 94.8209 51.1461 94.7522C51.6073 94.7326 52.0586 94.7424 52.5198 94.7522C53.9425 94.762 55.3651 94.8896 56.778 95.0465C57.0528 95.076 57.3373 95.1152 57.612 95.0858C58.2498 95.0171 58.8876 95.0956 59.5155 95.2231C60.271 95.3703 61.0363 95.3507 61.8115 95.3311C61.9881 95.3311 62.1745 95.2918 62.3511 95.3311C63.5579 95.596 64.804 95.5077 66.0109 95.7236C66.992 95.91 67.9536 96.1749 68.9151 96.43C69.6412 96.6753 70.3869 96.9206 71.113 97.1561C71.162 97.1757 71.2209 97.1659 71.2602 97.1855C71.6722 97.3327 71.7409 97.6467 71.4368 98.0391C71.1718 98.3825 70.848 98.5493 70.4752 98.461C70.0631 98.3629 69.651 98.2452 69.2487 98.1372L69.2193 98.2059Z" fill="#DAA114"/>
<path d="M75.8723 95.1347C76.8044 94.9875 77.7463 94.8306 78.6784 94.7423C79.5124 94.6736 80.3268 94.6147 81.1215 94.2909C81.3276 94.2124 81.5631 94.1928 81.7887 94.1437L83.0054 93.869C83.1918 93.8298 83.3684 93.7022 83.545 93.7022C84.4183 93.663 85.2621 93.5452 86.0863 93.2312C86.7829 93.2999 87.4109 93.0448 88.0683 92.878C88.7256 92.7112 89.4125 92.6327 90.0502 92.3972C90.217 92.3286 90.4231 92.2893 90.5997 92.2893C91.7084 92.2795 92.7779 92.0833 93.867 91.9165C95.0346 91.73 96.212 91.6712 97.3992 91.7399C98.0271 91.7889 98.6747 91.7202 99.3125 91.6908C100.068 91.6516 100.833 91.5436 101.589 91.5142C102.698 91.4553 103.787 91.3964 104.895 91.2689C106.367 91.1217 107.868 91.0432 109.379 91.0923C110.145 91.1021 110.91 91.2591 111.675 91.4063C113.196 91.681 114.697 92.0833 116.179 92.5444C117.288 92.8878 118.406 93.2509 119.485 93.7022L119.868 93.8592L120.025 93.9181C120.074 93.9279 120.123 93.9769 120.162 93.9377L120.28 93.8199C120.29 93.7905 120.565 93.5747 120.761 93.4079L121.379 92.8976L128.748 86.9714L130.494 85.5192C130.789 85.2837 131.093 85.0483 131.397 84.8226L134.792 82.3304L137.058 80.6232L137.451 80.3288L137.549 80.2601L137.529 80.2503C137.5 80.2405 137.451 80.2111 137.402 80.2013H137.382H137.372L137.274 80.1718L136.862 80.0639C136.587 79.9952 136.303 79.9364 136.028 79.8873C135.714 79.8284 135.645 79.7009 135.822 79.5046C136.136 79.171 136.411 78.808 137.009 78.7295C137.431 78.6804 137.706 78.6314 138.334 78.8767C138.726 79.0337 139.158 79.1416 139.59 79.2593C140.021 79.3771 140.453 79.5243 140.581 79.6812L140.532 79.7107C140.365 79.7892 140.267 79.8775 140.188 79.956C139.855 80.2994 139.393 80.6918 138.903 81.1039L138.187 81.6828L137.598 82.1342L135.204 83.861C134.684 84.2437 134.193 84.6656 133.693 85.0679L132.692 85.8332C132.201 86.1962 131.691 86.5298 131.22 86.9125C130.867 87.197 130.563 87.5306 130.082 87.5895C129.984 87.5993 129.798 87.7563 129.768 87.8544C129.641 88.2273 129.327 88.4333 129.022 88.659C128.198 89.2575 127.364 89.8462 126.55 90.4643C125.951 90.9255 125.372 91.4063 124.803 91.9067C123.93 92.6916 123.057 93.4765 122.184 94.2517L121.624 94.7226L120.879 95.3211L120.388 95.7038C120.349 95.7627 120.3 95.7234 120.251 95.7038L120.113 95.6449L119.829 95.5174L118.907 95.1249C118.7 95.0464 118.494 94.9875 118.288 94.9189C117.906 94.7913 117.494 94.6932 117.17 94.4871C116.807 94.2517 116.483 94.1634 116.061 94.232C115.826 94.2811 115.502 94.1634 115.237 94.075C114.894 93.9671 114.56 93.8101 114.236 93.6531C113.844 93.4569 113.471 93.2901 112.98 93.3588C112.725 93.3882 112.392 93.2803 112.127 93.1822C111.538 92.9663 110.92 92.8388 110.292 92.7308C109.664 92.6523 109.036 92.6131 108.398 92.5837C106.681 92.5542 104.964 92.6131 103.247 92.7406L101.226 92.8486C99.1359 92.9761 97.0362 93.0841 94.9365 93.2411C94.5244 93.2705 94.1025 93.2999 93.71 93.3882C92.7877 93.6041 91.8556 93.6924 90.9137 93.7709C89.7755 93.8494 88.6766 94.1143 87.5875 94.389C87.3324 94.4577 87.0773 94.546 86.8222 94.5755C85.0168 94.7815 83.2899 95.3408 81.5238 95.6842C80.0913 95.9687 78.6392 96.1944 77.2067 96.4495C76.0979 96.6555 74.9794 96.8616 73.8707 97.0578C73.802 97.0676 73.7333 97.1069 73.6548 97.1265C73.0171 97.2442 72.7423 97.0186 72.9091 96.5084C73.0563 96.057 73.4095 95.7136 73.9786 95.5664C74.6066 95.3996 75.2345 95.2623 75.8723 95.1249V95.1347Z" fill="#DAA114"/>
<path d="M61.6234 94.3688C61.172 94.2217 60.7207 94.1137 60.2792 93.9273C59.8867 93.7605 59.4942 93.6035 59.0723 93.7016C58.9644 93.7311 58.8466 93.6918 58.7387 93.682C58.5327 93.6722 58.3266 93.6526 58.1304 93.6428C58.0323 93.6428 57.9341 93.7114 57.8458 93.682C57.4337 93.5054 57.0119 93.4465 56.5801 93.5643C56.2662 93.3582 55.9227 93.4661 55.5892 93.5054C55.2556 93.5348 54.9121 93.476 54.5785 93.6035C54.4902 93.6329 54.3921 93.6428 54.3038 93.6133C53.774 93.4269 53.2343 93.4465 52.6947 93.4563C52.1158 93.4662 51.5369 93.3876 50.9678 93.1816C50.6637 93.0737 50.3399 93.0639 50.0259 93.0442C49.653 93.0246 49.2704 93.0639 48.8975 93.0639C48.3481 93.0639 47.8085 93.0835 47.259 93.2012C46.5329 93.3484 45.797 93.4563 45.0612 93.5348C44.6883 93.5741 44.3155 93.4956 43.9426 93.4563C43.1969 93.368 42.4513 93.2503 41.7056 93.1914C41.1463 93.1424 40.5772 93.1424 40.0179 93.1522C39.4881 93.162 38.9681 93.2307 38.4382 93.2405L33.7581 93.3975C33.3852 93.4269 33.0026 93.4465 32.6297 93.476C32.5218 93.476 32.4727 93.4858 32.3157 93.4858L31.7565 93.476L29.5292 93.3975L29.1465 93.3386L28.9798 93.2111L28.6363 92.9756C28.4597 92.8284 28.234 92.7793 28.1359 92.5635C27.9888 92.3378 27.9103 91.9159 27.9495 91.6902C27.9103 91.5921 28.0869 91.5038 28.2242 91.3861L28.6363 91.0721L29.4703 90.4441C30.1081 89.9634 30.736 89.5316 31.2953 88.9429C31.4523 88.7761 31.5602 88.8252 31.6191 89.0803C31.727 89.512 31.8153 89.9143 31.8055 90.2087C31.7957 90.4049 31.8448 90.5226 31.6387 90.5717C31.2953 90.66 31.413 90.817 30.7655 90.8955C30.6673 90.9053 30.6379 90.9347 30.6281 90.9642C30.5889 91.0623 30.53 91.1506 30.4417 91.2291C30.3534 91.2978 30.1964 91.3861 30.2062 91.5725C30.1964 91.7393 30.3338 91.8865 30.4613 91.8767L30.893 91.9257C31.0304 91.9355 31.2168 91.9159 31.3836 91.9061L31.6191 91.8865C31.7663 91.8767 31.9036 91.8865 32.041 91.8865L32.3452 91.9159C32.4531 91.9257 32.6297 91.9355 32.7769 91.9257C33.0026 91.9159 33.2282 91.8374 33.4245 92.0925C33.4637 92.1416 33.5814 92.1318 33.6305 92.0729C33.7973 91.857 33.9837 91.8766 34.1701 91.8963C34.6803 91.9257 35.1808 91.9748 35.691 91.9846C36.0638 91.9944 36.4367 91.9649 36.8193 91.9257C37.3982 91.857 37.9771 91.7393 38.5658 91.6804C39.0564 91.6314 39.5372 91.6314 40.0277 91.6019C40.1357 91.5921 40.2534 91.5529 40.3613 91.5529C40.5674 91.5529 40.7832 91.5038 40.9795 91.5823C41.1953 91.6804 41.3621 91.7 41.5682 91.5038C41.6859 91.3959 41.8625 91.4155 41.9999 91.4351C42.1863 91.4646 42.3629 91.5529 42.5494 91.6314C42.7652 91.7295 42.9615 91.8276 43.2068 91.6902C43.3343 91.6117 43.5109 91.6706 43.6483 91.7295C44.2664 91.9944 44.9042 91.9944 45.542 91.9453C46.4054 91.8766 47.2786 91.808 48.1421 91.7393C48.4855 91.7197 48.819 91.7295 49.1625 91.7295C50.2221 91.7295 51.272 91.8374 52.3218 91.965C52.5279 91.9846 52.7339 92.0238 52.94 91.9846C53.4207 91.9159 53.8819 91.9649 54.3529 92.0631C54.9121 92.1808 55.4812 92.1318 56.0503 92.0827C56.1877 92.0729 56.3152 92.0336 56.4526 92.0631C57.3553 92.2397 58.2678 92.1121 59.1802 92.2299C59.9063 92.3182 60.6324 92.5144 61.3584 92.6812C61.9177 92.8088 62.4672 92.9952 63.0264 93.1424C63.0657 93.1522 63.1049 93.1424 63.1442 93.1522C63.4581 93.2503 63.517 93.5545 63.311 93.9764C63.1245 94.3492 62.8891 94.5454 62.6045 94.5062C62.2906 94.4571 61.9864 94.3885 61.6724 94.3296L61.6234 94.3688Z" fill="#DAA114"/>
<path d="M77.3919 96.5477C78.324 96.479 79.2561 96.4103 80.1882 96.4103C81.0124 96.4005 81.8268 96.4397 82.6411 96.1846C82.8472 96.1159 83.0827 96.1258 83.3083 96.0865L84.525 95.9393C84.7114 95.9099 84.8978 95.8118 85.0744 95.8216C85.9379 95.8608 86.7817 95.8118 87.6157 95.5959C88.2927 95.7235 88.9305 95.5371 89.5976 95.4193C90.2648 95.3212 90.9418 95.3212 91.5992 95.1446C91.7758 95.0955 91.9721 95.0661 92.1487 95.0857C93.2378 95.1642 94.3073 95.1053 95.3964 95.0367C96.564 94.9484 97.7316 95.017 98.8795 95.2133C99.4977 95.3212 100.135 95.3016 100.773 95.331C101.529 95.3702 102.274 95.3604 103.03 95.3801C104.119 95.3997 105.208 95.4586 106.297 95.4389C107.033 95.4291 107.769 95.4095 108.505 95.4389C109.241 95.488 109.977 95.537 110.712 95.6057C111.458 95.6842 112.214 95.8216 112.94 96.0473C114.402 96.4594 115.883 96.7929 117.316 97.3228C117.855 97.4994 118.405 97.6662 118.954 97.833L119.435 97.9704C119.484 97.9409 119.533 97.8919 119.582 97.8624L119.837 97.6662L122.32 95.7235L129.757 90.0817L131.523 88.6983C131.817 88.4726 132.122 88.2568 132.436 88.0409L135.86 85.6861L138.293 83.9592L138.46 83.8415C138.47 83.8219 138.578 83.7924 138.519 83.7826C138.489 83.7728 138.45 83.7434 138.391 83.7335H138.352L137.95 83.6354C137.675 83.5667 137.4 83.5177 137.126 83.4686C136.812 83.4196 136.743 83.2822 136.929 83.086C137.243 82.7524 137.518 82.3893 138.097 82.3108C138.293 82.2814 138.489 82.2618 138.676 82.2716C138.862 82.2814 139.176 82.3599 139.431 82.458C139.814 82.615 140.256 82.7229 140.697 82.8407C141.119 82.9584 141.57 83.1056 141.649 83.2626C141.482 83.3411 141.384 83.4294 141.305 83.4981C140.972 83.8218 140.511 84.2045 140.02 84.5872L139.255 85.1661L138.666 85.588L136.252 87.2265C135.732 87.5896 135.232 87.9918 134.722 88.3745L133.711 89.1006C133.221 89.444 132.701 89.7579 132.23 90.121C131.867 90.3957 131.562 90.7097 131.082 90.7489C130.984 90.7587 130.797 90.9059 130.758 91.004C130.63 91.3671 130.306 91.5633 130.002 91.7792C129.168 92.3482 128.325 92.9075 127.51 93.4962C126.902 93.9279 126.313 94.3989 125.744 94.8698C124.861 95.6155 123.978 96.371 123.095 97.1167C122.349 97.7251 121.564 98.304 120.799 98.9025L120.524 99.138C120.377 99.2655 120.22 99.3832 120.063 99.501L119.837 99.6678C119.798 99.6972 119.759 99.7267 119.729 99.7463L119.592 99.707L119.052 99.5598C118.591 99.4225 118.503 99.3931 118.317 99.2949C117.944 99.0889 117.63 98.981 117.198 99.0497C116.963 99.0889 116.629 98.981 116.364 98.8829C116.021 98.7651 115.707 98.5591 115.373 98.4217C114.981 98.2451 114.608 98.0587 114.127 98.1077C113.872 98.1273 113.548 98.0096 113.283 97.8919C112.135 97.3522 110.879 97.1952 109.633 97.0677C107.946 96.8518 106.229 96.8715 104.541 96.7831L102.539 96.7243C100.459 96.6458 98.389 96.5771 96.3089 96.4986C95.8968 96.4986 95.4847 96.4888 95.0824 96.5379C94.1503 96.6654 93.228 96.6458 92.3057 96.636C91.1871 96.6261 90.0784 96.7341 88.9795 96.9303C88.7244 96.9696 88.4693 97.0382 88.2142 97.0481C86.4186 97.0677 84.6721 97.47 82.8962 97.6564C81.4637 97.8036 80.0214 97.9017 78.5791 98.0292C77.4703 98.1372 76.3616 98.2255 75.2529 98.3628C75.1842 98.3726 75.1057 98.4021 75.0371 98.4119C74.4091 98.4707 74.154 98.2353 74.3502 97.7447C74.5268 97.3032 74.8997 96.999 75.4786 96.8911C76.1065 96.7831 76.7443 96.6948 77.382 96.6065L77.3919 96.5477Z" fill="#DAA114"/>
<path d="M65.9712 25.5891C65.6866 26.5702 65.4217 27.571 65.098 28.5326C64.8036 29.396 64.5191 30.2398 64.4798 31.1719C64.47 31.4074 64.3915 31.6625 64.3424 31.898L64.0971 33.2324C64.0677 33.4385 64.107 33.6641 64.0383 33.8407C63.7243 34.7336 63.5183 35.6461 63.4888 36.5978C63.165 37.2846 63.165 38.0205 63.0865 38.7466L62.959 39.6787C62.9394 39.7964 62.9295 39.9142 62.9295 40.0221C62.9099 40.1202 62.9786 40.238 63.116 40.2478C63.2631 40.2576 63.3907 40.1889 63.479 40.2183C63.636 40.238 63.7636 40.2478 64.0285 40.2282C64.3228 40.2085 64.6172 40.1791 64.9115 40.1399C65.5002 40.0712 66.0889 39.9731 66.6776 39.8749L67.2762 39.7866L67.963 39.6983C68.5222 39.6395 69.0717 39.5806 69.5917 39.5512C69.5328 40.238 69.4544 40.8954 69.3661 41.4841C69.2483 42.1611 69.2189 42.8675 69.1894 43.5642C69.16 44.3883 69.1796 45.2223 69.16 46.0465L69.1502 46.9492L69.16 47.636C69.1796 48.0481 69.2091 48.4013 69.2679 48.627L69.3366 48.8429C69.4348 49.1274 69.5329 49.1666 69.6114 49.0882L69.7781 48.5681C69.8959 48.1757 69.9253 48.2443 70.0136 48.107L70.0234 48.0874C70.1117 47.95 70.2295 47.7734 70.3865 47.5183L70.5042 47.322L70.7691 46.7824L71.299 45.6639C71.819 44.5355 72.3096 43.3875 72.7805 42.2396L74.0463 39.0017L75.0176 36.6174L75.5082 35.4204L75.7535 34.8219C75.8025 34.6845 75.7927 34.7042 75.8123 34.6453C75.8222 34.5668 75.8909 34.4981 75.832 34.4294C75.7535 34.3902 75.6652 34.4491 75.5965 34.4589L75.5474 34.4687L75.5278 34.4785H75.518L75.4395 34.4883L74.8017 34.5668L73.5262 34.7238L71.0733 35.0574C70.6612 35.1064 70.2491 35.1555 69.837 35.1849L66.2753 35.4891L66.0301 32.1041L65.51 25.54L65.3629 23.6758L65.2647 22.7535L65.1961 22.2923L65.1568 22.0667L65.147 22.0078L65.1372 21.9784V21.9685C65.5787 21.9293 64.156 22.047 66.1184 21.89H66.1282C66.1674 21.8802 66.1773 21.8802 66.1773 21.8802C66.1674 21.9391 66.138 21.841 66.1773 21.89C66.2263 21.8999 66.2165 21.8999 66.1674 21.89C66.138 21.8704 66.1674 21.89 66.1674 21.8999C66.1674 21.9195 66.1773 21.8802 66.1773 21.8802C66.1969 21.8901 66.089 21.8704 66.1773 21.9195C66.2263 21.9587 66.2754 21.998 66.3146 22.047C66.4029 22.1452 66.4814 22.2629 66.5599 22.4003C66.7561 22.7927 66.9131 23.1558 66.8935 23.6562C66.8641 24.392 67.1192 25.1377 66.9327 25.8736C66.9033 25.9815 66.9327 26.1189 66.9524 26.2366C67.4037 28.3462 67.4331 30.5047 67.5705 32.6535C67.5901 32.9381 67.6097 33.1147 67.6294 33.2913L67.6981 33.8113L68.0905 33.7622L68.5517 33.7132L69.2287 33.6543C69.8861 33.5954 70.5533 33.5758 71.2106 33.4973C71.7012 33.4384 72.182 33.3109 72.653 33.5071C72.7511 33.5464 73.016 33.5071 73.0945 33.4483C73.4281 33.1932 73.8402 33.1735 74.2523 33.1441L76.0871 33.0067C76.4599 32.9675 76.8132 32.9675 77.0879 33.0165C77.2253 33.0362 77.3626 33.046 77.4902 33.1637C77.6079 33.2815 77.6668 33.4581 77.6471 33.5856C77.6079 33.7819 77.5686 33.9977 77.5 34.2332C77.4215 34.4785 77.3037 34.7238 77.2056 34.9789L76.9407 35.6461L76.7249 36.225C76.303 37.4318 75.881 38.6387 75.4591 39.8357C75.0863 40.8365 74.6742 41.8275 74.2817 42.8185C74.1934 43.0441 74.1346 43.2894 74.0463 43.5151C73.8696 43.937 73.7323 44.3981 73.487 44.7514C73.2221 45.1537 73.0553 45.4774 73.0553 45.9582C73.0553 46.2231 72.8885 46.5764 72.7511 46.8609C72.5647 47.2239 72.3292 47.5673 72.1035 47.9009C72.0545 47.9598 71.9171 48.2247 71.8288 48.3719C71.7307 48.5485 71.6424 48.7153 71.5541 48.8821C71.3873 49.2353 71.2401 49.5984 71.0929 50.1086C70.9359 50.6678 70.6318 51.2369 70.4159 51.6098C70.2 51.9826 69.994 52.3358 69.7978 52.7087C69.4053 52.7577 68.9932 53.3366 68.5811 53.6898V53.68C68.3653 53.1895 68.1003 52.846 67.7569 52.6596L67.7962 48.4602L67.8551 45.5657C67.8747 44.6434 67.9139 43.7113 67.9532 42.789L68.0317 41.4448L68.0709 41.2584L67.8747 41.2388C67.4724 41.278 66.972 41.3173 66.5501 41.4154C66.0399 41.5331 65.5297 41.6116 65.0194 41.6705L64.2443 41.749L63.6066 41.8079C63.3711 41.8275 63.1258 41.8569 62.9001 41.8569C62.3605 41.8079 62.0563 41.6999 61.7227 41.2878C61.5755 41.0818 61.5363 40.9248 61.497 40.7089C61.448 40.4931 61.4676 40.2282 61.5265 39.9436L61.6639 39.1096L61.7325 38.6289L61.8503 37.7065C61.8797 37.422 61.8895 37.1277 61.9582 36.8431C62.4488 34.9102 62.6254 32.9184 63.0375 30.9757C63.3711 29.4058 63.793 27.8458 64.1855 26.2955C64.5093 25.0985 64.833 23.9015 65.147 22.7044C65.1666 22.6259 65.1666 22.5376 65.1863 22.4591C65.3825 21.7821 65.7063 21.6153 66.0791 22.0274C66.4127 22.3904 66.5403 22.8908 66.4127 23.5188L65.9516 25.5793L65.9712 25.5891Z" fill="#DAA114"/>
<path d="M51.5376 45.8995C51.5376 46.606 51.5769 47.3124 51.5376 48.0189C51.5082 48.6468 51.4689 49.265 51.6946 49.8537C51.7535 50.0107 51.7437 50.1873 51.7731 50.3541L51.9203 51.2568C51.9497 51.3941 52.0478 51.5217 52.038 51.659C51.9988 52.3164 52.0478 52.9444 52.2931 53.5527C52.1852 54.112 52.3716 54.4161 52.4697 54.7203C52.4992 54.789 52.5188 54.8675 52.5286 54.946C52.5188 55.0048 52.5777 54.9656 52.6169 54.946L52.7445 54.8871C52.9113 54.8086 53.0781 54.7203 53.2154 54.5927C53.2841 54.5241 53.3528 54.4848 53.4313 54.4848C54.1966 54.3671 54.9619 54.0139 55.688 53.6999C56.0805 53.5331 56.4042 53.4055 56.8752 53.2584C57.405 53.0817 57.9251 52.9346 58.3568 52.8561L58.3862 53.0719C58.4647 53.7097 58.6315 54.2689 58.759 54.7203C58.916 55.2599 59.1221 55.78 59.2889 56.3098C59.5342 57.0849 59.8089 57.8404 60.1719 58.5763C60.6527 59.528 61.1139 60.6073 61.5456 61.4315C61.5456 61.4511 61.6045 61.4511 61.5358 61.4806L61.261 61.6376C61.1826 61.6768 61.1237 61.716 61.055 61.7553L60.898 61.873C60.8588 61.9123 60.8293 61.9417 60.8195 61.9613C60.8097 61.981 60.8391 61.9712 60.741 61.9221C60.6625 61.873 60.6135 61.8927 60.4565 61.8338C60.3191 61.7847 60.1818 61.7553 60.0444 61.7161C59.9463 61.6964 59.9463 61.6964 59.9561 61.7062V61.6964L59.9659 61.6376L60.0346 61.2647L60.1818 60.4602C60.3682 59.3711 60.5644 58.2721 60.7116 57.1634C60.8195 56.3294 60.8784 55.4954 60.9275 54.6614C60.9667 53.8765 60.9569 53.0915 60.9961 52.3164L61.1237 48.8529L61.1433 48.0287C61.1335 47.9796 61.1237 47.9306 61.1139 47.8913C61.0943 47.8619 61.104 47.8128 61.0648 47.8226L60.9471 47.8913C60.9274 47.9011 60.9176 47.911 60.898 47.9306L60.8784 47.9502L60.692 48.0189L59.907 48.2936C59.6421 48.3819 59.3772 48.4604 59.1025 48.5193L57.6013 48.8921L55.9136 49.3238L55.3936 49.4612L55.1385 49.5299C55.0993 49.5397 55.0502 49.5593 55.011 49.5593L54.9129 49.4612L54.1377 48.7155L53.2939 47.9011L51.6946 46.3607C51.0961 45.772 50.5074 45.1735 49.8107 44.6829C49.6145 44.5455 49.6342 44.418 49.8598 44.3101C50.2523 44.1236 50.6349 43.898 51.0961 43.9961C51.4101 44.0648 51.675 44.1531 51.881 44.4278C52.1754 44.8301 52.6758 45.0557 52.8622 45.566C52.8916 45.6346 52.9701 45.7033 53.0388 45.7426C53.657 46.1448 54.2064 46.6158 54.7264 47.126L55.1091 47.5087L55.3642 47.7834C55.4329 47.9306 55.58 47.8128 55.6978 47.8128L56.1393 47.7049C56.6005 47.5872 57.0518 47.4204 57.5031 47.283C57.7975 47.1947 58.0918 47.1064 58.396 47.0377C58.8277 46.9298 59.2693 46.8415 59.701 46.7041C60.0346 46.5962 60.2995 46.449 60.692 46.5864C60.7704 46.6158 60.9569 46.5569 61.0354 46.4686C61.1825 46.3116 61.369 46.2135 61.5456 46.135C61.7026 46.0958 61.8498 46.0958 61.9969 46.0958L62.3011 46.0762H62.3796H62.3992H62.409C62.4188 46.0663 62.3207 46.1939 62.36 46.135C62.3698 46.1448 62.3796 46.1547 62.3894 46.1645C62.409 46.2037 62.4286 46.243 62.4483 46.2822C62.5268 46.4294 62.5758 46.6354 62.5758 46.8709C62.5758 47.3321 62.5268 47.9208 62.5071 48.2936C62.4777 48.8529 62.4679 49.4121 62.4875 49.9714C62.5071 50.8348 62.566 51.7081 62.5758 52.5715C62.5758 53.2976 62.5268 54.0237 62.5071 54.7399C62.4973 54.9067 62.5366 55.0735 62.5268 55.2403C62.5071 55.5445 62.5366 55.8781 62.4286 56.1528C62.3109 56.4668 62.2716 56.7121 62.4384 57.0261C62.5366 57.2027 62.4973 57.4676 62.4581 57.6736C62.409 57.9484 62.3011 58.2133 62.203 58.4782C62.0852 58.7922 61.9577 59.0865 62.0656 59.4495C62.1245 59.6458 62.046 59.9009 61.9773 60.1069C61.8105 60.5583 61.7026 61.0292 61.6241 61.5002L61.5652 61.873C61.5554 61.9417 61.5456 61.9908 61.5162 62.1183L61.5063 62.1674C61.4965 62.1968 61.4573 62.2851 61.4278 62.3342C61.3984 62.3636 61.4377 62.3636 61.261 62.5206C61.1139 62.6482 60.849 62.6776 60.7705 62.658C60.6723 62.6482 60.5546 62.6089 60.4663 62.5501C60.3486 62.4716 60.3878 62.4912 60.3486 62.4617C60.2504 62.3636 60.2406 62.3244 60.2112 62.2949L60.1621 62.2164C59.9953 61.9025 59.9267 61.7062 59.8187 61.4708C59.3085 60.2541 58.8277 59.0669 58.3666 57.8502C58.19 57.3793 58.0428 56.8887 57.8858 56.4079C57.7386 55.9369 57.5915 55.466 57.4639 54.995L57.4247 54.8478V54.8282V54.789L57.4148 54.6909H57.3167H57.2578L56.8458 54.8282C56.5514 54.9263 56.2571 55.0146 55.9823 55.1618C55.3642 55.5052 54.7068 55.7211 54.02 55.9075C53.3234 56.1234 52.5973 56.3981 51.881 56.6925L51.6063 56.8102L51.4689 56.8691L51.4002 56.8985C51.3806 56.8985 51.3904 56.8592 51.3806 56.8396L51.2727 56.3L51.047 55.1814C50.9784 54.8478 50.8704 54.4161 50.841 54.1316C50.7625 52.7972 50.37 51.5119 50.2229 50.1971C50.1051 49.1276 50.0659 48.0385 50.007 46.9592C49.9776 46.1252 49.9481 45.2716 49.9089 44.4376C49.9089 44.3787 49.8794 44.3297 49.8794 44.2708C49.8696 43.79 50.1346 43.5644 50.5957 43.6821C51.0078 43.7802 51.2727 44.0451 51.3316 44.4769C51.3905 44.9478 51.4297 45.4286 51.4788 45.9094L51.5376 45.8995Z" fill="#DAA114"/>
<path d="M76.575 52.6794C76.6731 52.5813 76.7516 52.4832 76.889 52.3949C77.0166 52.3164 77.1441 52.2281 77.0166 52.13C76.9773 52.1005 77.0166 52.0809 77.0166 52.0613C77.0166 52.0122 77.0166 51.973 77.0067 51.9239C76.9969 51.9043 76.9184 51.8749 76.9479 51.8651C77.0852 51.7768 77.1343 51.6885 76.9871 51.5903C77.1736 51.5217 77.046 51.453 76.9871 51.3745C76.9283 51.296 76.9773 51.2273 76.8301 51.1488C76.7909 51.1292 76.7811 51.1096 76.8105 51.0899C76.9675 50.982 76.9184 50.8643 76.889 50.7465C76.8498 50.619 76.9086 50.4914 77.0853 50.3737C77.1834 50.3148 77.1834 50.2363 77.1834 50.1775C77.1834 50.099 77.1343 50.0107 77.1245 49.9322C77.1049 49.8144 77.0558 49.6967 76.9283 49.5691C76.7615 49.4023 76.6241 49.2453 76.5358 49.0785C76.4867 49.0001 76.5554 48.9216 76.5848 48.8333C76.6535 48.6763 76.7516 48.5193 76.7909 48.3525C76.8203 48.2347 76.8105 48.1072 76.7909 47.9894C76.7713 47.8717 76.6928 47.754 76.6731 47.646C76.5947 47.3026 76.526 46.9592 76.4475 46.6256C76.4279 46.5471 76.3788 46.4588 76.3592 46.3803C76.3494 46.3411 76.3494 46.3018 76.3592 46.2626C76.3886 46.1154 76.4279 45.9682 76.4475 45.8112C76.4671 45.5954 76.4671 45.3795 76.4965 45.1637C76.5064 45.0459 76.5456 44.9184 76.418 44.7908C76.3788 44.7516 76.4965 44.7516 76.732 44.7712C77.1343 44.8104 77.566 44.8497 77.8015 44.9184C77.9683 44.9674 78.086 45.0067 78.0272 45.0557C77.9389 45.1244 78.1253 45.2029 77.8702 45.2618C77.8309 45.2716 77.8505 45.2814 77.8604 45.301C78.1253 45.5267 77.9683 45.7327 77.929 45.9388C77.9192 46.0075 77.9585 46.0762 77.9683 46.1448C77.9781 46.1939 77.9781 46.2331 77.9683 46.2822C77.9585 46.3509 77.9192 46.4098 77.929 46.4784C77.9389 46.5275 78.0173 46.5766 77.7721 46.6158C77.723 46.6256 77.7328 46.6452 77.7917 46.6649C78.0174 46.7041 77.9879 46.7532 77.9781 46.7924C77.9585 46.9003 77.9094 47.0083 77.9094 47.1162C77.9094 47.1947 77.9389 47.283 77.9879 47.3615C78.0664 47.489 78.194 47.6166 78.2626 47.7441C78.3215 47.8521 78.3313 47.96 78.3706 48.0679C78.3804 48.0974 78.4295 48.117 78.4295 48.1464C78.4393 48.1955 78.4883 48.2445 78.4098 48.2838C78.3215 48.323 78.3019 48.3623 78.4981 48.4113C78.6061 48.4408 78.5962 48.48 78.5766 48.5095C78.5472 48.5487 78.4687 48.588 78.4 48.6174C78.3117 48.6566 78.2136 48.6959 78.3608 48.7548C78.4393 48.7842 78.3902 48.8234 78.3313 48.8529C78.086 48.9804 78.1057 49.1178 78.1645 49.2552C78.243 49.4416 78.3608 49.6378 78.4589 49.8242C78.4981 49.9027 78.4981 49.9714 78.5079 50.0499C78.5472 50.2756 78.4785 50.5012 78.4 50.7269C78.3804 50.7662 78.3608 50.8152 78.4 50.8643C78.4981 50.9722 78.4687 51.0703 78.3902 51.1684C78.3019 51.2862 78.3804 51.4137 78.4589 51.5413C78.4785 51.5707 78.5276 51.6002 78.5079 51.6296C78.3804 51.816 78.5766 52.0221 78.5276 52.2183C78.4883 52.3753 78.3608 52.5225 78.2529 52.6794C78.1744 52.7972 78.0664 52.9149 77.9683 53.0327C77.9585 53.0425 77.9781 53.0523 77.9683 53.0523C77.8996 53.121 77.6151 53.1308 77.1736 53.0817C76.7811 53.0327 76.5554 52.9836 76.5652 52.9149C76.575 52.8462 76.6143 52.7776 76.6437 52.7089C76.6143 52.6794 76.5946 52.6794 76.575 52.6794Z" fill="#DAA114"/>
<path d="M54.0863 65.0616C54.0372 64.934 53.9783 64.8359 53.9489 64.6789C53.9194 64.5318 53.8998 64.3846 53.7723 64.4827C53.7428 64.5121 53.733 64.4729 53.7134 64.4631C53.6742 64.4533 53.6349 64.4336 53.5957 64.4238C53.576 64.4238 53.527 64.4925 53.5172 64.4631C53.4975 64.3061 53.4289 64.2374 53.2915 64.3453C53.3013 64.1491 53.1934 64.2472 53.1051 64.2766C53.0266 64.3061 52.9775 64.2374 52.8598 64.3453C52.8304 64.3748 52.8009 64.3748 52.8009 64.3453C52.7617 64.1589 52.6439 64.1687 52.5262 64.1687C52.3986 64.1687 52.3201 64.0706 52.2809 63.8646C52.2613 63.7566 52.2024 63.737 52.1435 63.7174C52.0748 63.6879 51.9865 63.7076 51.908 63.6978C51.8001 63.6781 51.6824 63.6879 51.5352 63.7664C51.339 63.8744 51.1525 63.9529 50.9759 63.9823C50.8876 64.0019 50.8386 63.9136 50.7895 63.8646C50.6718 63.7566 50.5736 63.6094 50.4559 63.5211C50.3676 63.4525 50.2597 63.423 50.1419 63.4034C50.034 63.3838 49.9065 63.423 49.7985 63.4132C49.4747 63.3838 49.1608 63.3347 48.8468 63.3053C48.7683 63.2955 48.68 63.3151 48.6015 63.3151C48.5623 63.3151 48.523 63.2955 48.4936 63.2758C48.3758 63.2072 48.2679 63.1189 48.1403 63.0502C47.9637 62.9619 47.7773 62.8932 47.6007 62.8049C47.5026 62.7558 47.4143 62.6773 47.2573 62.7558C47.2181 62.7755 47.2475 62.6773 47.3456 62.4615C47.5222 62.0886 47.6988 61.706 47.846 61.4999C47.9441 61.3626 48.0226 61.2546 48.0422 61.3331C48.0717 61.4411 48.209 61.2939 48.1698 61.5392C48.16 61.5784 48.1796 61.5686 48.1992 61.5588C48.4838 61.3724 48.6015 61.5882 48.7683 61.6962C48.8173 61.7256 48.8958 61.7158 48.9645 61.7256C49.0038 61.7354 49.043 61.7452 49.0823 61.7649C49.1313 61.7943 49.1706 61.8531 49.2393 61.863C49.2883 61.863 49.357 61.8139 49.2981 62.0494C49.2883 62.0984 49.3177 62.0984 49.3472 62.0494C49.4649 61.8531 49.4845 61.8924 49.514 61.912C49.6023 61.9709 49.6808 62.0396 49.7691 62.0788C49.8378 62.1083 49.9163 62.0984 50.0046 62.0788C50.1419 62.0494 50.2989 61.9709 50.4363 61.9415C50.5442 61.9218 50.6423 61.9415 50.7503 61.9415C50.7699 61.9415 50.8091 61.9022 50.8386 61.912C50.8778 61.9218 50.9367 61.8826 50.9465 61.9709C50.9563 62.069 50.9759 62.0984 51.0839 61.9316C51.1427 61.8335 51.1722 61.863 51.1918 61.8924C51.2114 61.9316 51.2212 62.0101 51.2212 62.0984C51.2212 62.1966 51.231 62.3045 51.3292 62.1769C51.3782 62.1083 51.3978 62.1671 51.3978 62.226C51.4174 62.4909 51.545 62.5203 51.6824 62.5105C51.8786 62.4909 52.0748 62.4419 52.2711 62.4222C52.3496 62.4124 52.4084 62.432 52.4771 62.4419C52.6832 62.4811 52.8598 62.6087 53.0168 62.7558C53.0462 62.7853 53.0756 62.8147 53.1345 62.7951C53.2621 62.7362 53.3308 62.7951 53.3896 62.8932C53.4583 63.0109 53.5957 62.9815 53.733 62.9423C53.7625 62.9324 53.8115 62.903 53.8213 62.9226C53.9391 63.0992 54.1844 62.9815 54.3315 63.0894C54.4493 63.1777 54.5376 63.3445 54.6357 63.4917C54.7044 63.6094 54.7731 63.7468 54.8417 63.8744C54.8417 63.8842 54.8614 63.8646 54.8614 63.8744C54.8908 63.9529 54.8025 64.2374 54.6063 64.6299C54.4297 64.9831 54.3021 65.1793 54.253 65.1499C54.1942 65.1205 54.1549 65.0616 54.1059 65.0125C54.1059 65.0223 54.0961 65.042 54.0863 65.0616Z" fill="#DAA114"/>
<path d="M88.3795 45.5069C88.4874 45.5167 88.5757 45.5167 88.7131 45.556C88.8406 45.5854 88.9682 45.6246 88.8799 45.5069C88.8602 45.4775 88.8897 45.4873 88.8995 45.4775C88.9093 45.4579 88.9191 45.4382 88.9289 45.4186C88.9289 45.4088 88.8701 45.3499 88.8897 45.3597C89.0271 45.399 89.0859 45.3794 88.9878 45.2616C89.1644 45.3401 89.0663 45.2322 89.0369 45.1733C89.0074 45.1144 89.0565 45.1046 88.9584 44.9967C88.9289 44.9673 88.9289 44.9476 88.9486 44.9575C89.1154 44.9967 89.0957 44.9182 89.0957 44.8495C89.0957 44.771 89.1644 44.7514 89.3508 44.8005C89.449 44.8201 89.4588 44.7907 89.4784 44.7612C89.498 44.7318 89.4784 44.6631 89.4882 44.6239C89.498 44.565 89.4882 44.4865 89.4097 44.3688C89.3018 44.2118 89.2331 44.0646 89.1939 43.9468C89.1742 43.888 89.2429 43.888 89.292 43.8684C89.3803 43.8389 89.5078 43.8193 89.5765 43.7801C89.6354 43.7506 89.655 43.6917 89.6648 43.6231C89.6746 43.5642 89.6354 43.4759 89.6452 43.4072C89.655 43.2208 89.6746 43.0344 89.6943 42.8479C89.6943 42.7989 89.6746 42.74 89.6746 42.6909C89.6746 42.6713 89.6844 42.6517 89.7041 42.6321C89.7629 42.583 89.8316 42.5438 89.8807 42.4849C89.9493 42.4064 89.9984 42.3083 90.0671 42.2396C90.1063 42.2004 90.1652 42.1611 90.0867 42.0434C90.0671 42.0139 90.1554 42.063 90.3516 42.2004C90.6852 42.4358 91.0385 42.6811 91.2249 42.8381C91.3524 42.9461 91.4505 43.0344 91.3819 43.0147C91.2935 42.9951 91.4309 43.1325 91.2052 43.0245C91.1758 43.0049 91.1758 43.0245 91.1856 43.0344C91.3622 43.2698 91.1758 43.2797 91.0973 43.3483C91.0679 43.368 91.0875 43.4268 91.0777 43.4563C91.0679 43.4759 91.0581 43.4955 91.0483 43.5151C91.0286 43.5348 90.9698 43.5446 90.9698 43.574C90.9698 43.6034 91.0188 43.6623 90.803 43.5446C90.7539 43.5249 90.7637 43.5348 90.803 43.574C90.9796 43.7114 90.9501 43.7114 90.9305 43.731C90.8913 43.7702 90.8226 43.7899 90.803 43.8389C90.7833 43.8684 90.7932 43.9272 90.8128 43.9861C90.852 44.0842 90.9207 44.202 90.9502 44.3001C90.9796 44.3786 90.96 44.4276 90.96 44.4963C90.96 44.5159 90.9992 44.5454 90.9894 44.565C90.9894 44.5846 91.0188 44.6337 90.9403 44.614C90.852 44.5846 90.8324 44.5846 90.9796 44.7122C91.0679 44.7808 91.0483 44.7907 91.0188 44.7907C90.9894 44.7907 90.9109 44.771 90.8422 44.7416C90.7539 44.7122 90.6656 44.6729 90.7735 44.7808C90.8324 44.8397 90.7834 44.8201 90.7343 44.8103C90.4988 44.7318 90.4792 44.8005 90.4988 44.8888C90.5282 45.0163 90.5773 45.1635 90.6067 45.2911C90.6166 45.3401 90.6067 45.3794 90.5969 45.4088C90.5773 45.5265 90.4694 45.5854 90.3516 45.6443C90.332 45.6541 90.3026 45.6639 90.3222 45.7031C90.3811 45.8013 90.332 45.8307 90.2437 45.8307C90.1456 45.8307 90.175 45.9288 90.2143 46.0269C90.2241 46.0466 90.2535 46.0858 90.2339 46.0858C90.0867 46.1054 90.2045 46.2918 90.1162 46.3507C90.0475 46.3998 89.9003 46.39 89.7826 46.3998C89.6844 46.4096 89.5667 46.3998 89.4588 46.3998C89.4489 46.3998 89.4686 46.4096 89.4588 46.4096C89.3901 46.3998 89.135 46.2526 88.7817 45.9877C88.4678 45.762 88.2912 45.6148 88.3108 45.5952C88.3402 45.5756 88.3795 45.5658 88.4187 45.5462C88.4187 45.5265 88.3991 45.5167 88.3795 45.5069Z" fill="#DAA114"/>
<path d="M2.96833 91.7494C3.71402 91.5433 4.44989 91.3078 5.19558 91.141C5.86278 90.9939 6.52998 90.8565 7.10888 90.464C7.25605 90.3659 7.45228 90.3169 7.61908 90.2482L8.5512 89.8459C8.68857 89.7772 8.80631 89.6398 8.95349 89.6104C9.65012 89.4632 10.3173 89.2277 10.906 88.8156C11.4849 88.7764 11.9264 88.4428 12.417 88.1779C12.9076 87.913 13.4374 87.7266 13.879 87.3831C13.9967 87.2948 14.1439 87.2163 14.2911 87.1771C14.6835 87.0888 15.0662 86.9612 15.439 86.8042L15.9885 86.5688L16.2534 86.451L16.4202 86.3627L16.5674 86.2842C16.8323 86.1763 16.9697 85.8329 16.8421 85.568C16.6949 85.3325 16.5085 85.1559 16.1553 84.7242C15.8315 84.3219 15.4194 83.9883 15.0171 83.6449C14.5462 83.2426 14.036 82.8894 13.5552 82.4969C12.8586 81.9278 12.1423 81.398 11.3672 80.9172L10.5528 80.407L10.1309 80.1225L9.50294 79.6613C9.13009 79.367 8.88479 79.0824 8.75724 78.7194C8.62969 78.3465 8.64933 77.905 8.83575 77.5322C9.02217 77.1201 9.39501 76.8355 9.8071 76.7276C10.229 76.5804 10.8569 76.6491 11.3573 76.6295C12.5936 76.6393 13.8299 76.6884 15.076 76.6884C16.0081 76.6785 16.9402 76.6295 17.8625 76.5706C18.726 76.4921 19.5992 76.4136 20.4626 76.3351L21.2378 76.2763L21.6204 76.2468C21.6989 76.237 21.7284 76.237 21.7382 76.237L21.7872 76.2272C21.9246 76.2272 22.0423 76.1193 22.0227 75.9917C22.0129 75.9329 21.9736 75.8838 21.9442 75.8347C21.9344 75.8151 21.9442 75.8347 21.9148 75.7759L21.8363 75.5993L21.6695 75.246L20.3449 72.4595L19.5109 70.8013C19.3735 70.5266 19.246 70.2421 19.1282 69.9575L18.6671 68.839C18.5493 68.5741 18.4708 68.319 18.4414 68.0737C18.4218 67.848 18.4316 67.6321 18.4905 67.4065C18.6769 66.494 19.6483 65.7973 20.5313 65.8955C20.8747 65.8955 21.2672 66.0721 21.64 66.1898L22.3661 66.4351L23.5337 66.8276L25.8689 67.6223C26.7519 67.9265 27.6252 68.2601 28.5377 68.4269C28.7928 68.4759 28.8419 68.6035 28.6751 68.7997C28.3807 69.1333 28.1256 69.4964 27.6252 69.5847C27.2818 69.6435 26.9776 69.673 26.644 69.4964C26.1534 69.2413 25.5549 69.2314 25.1232 68.8292C25.0643 68.7703 24.9564 68.7507 24.8681 68.731C24.0635 68.6035 23.2884 68.3778 22.5329 68.1129L21.4144 67.7008C21.1593 67.6223 20.8944 67.4457 20.6 67.4359C20.1879 67.4555 19.9917 67.9755 20.1977 68.2895C20.3056 68.525 20.3645 68.6624 20.5019 68.9665C20.6883 69.4277 20.8551 69.8986 21.071 70.3402C21.2378 70.6738 21.4536 70.9779 21.3653 71.3802C21.3457 71.4685 21.434 71.6451 21.5125 71.6844C21.8265 71.8414 21.9246 72.1357 22.0423 72.4203C22.3563 73.1954 22.6605 73.9705 22.9941 74.7358L23.4356 75.6876C23.6122 76.0506 23.6613 76.4725 23.4945 76.8453C23.2786 77.3359 22.8076 77.6107 22.2582 77.6597C21.7872 77.7088 21.5615 77.748 21.2672 77.7873L20.4234 77.8952C19.6286 77.9835 18.8241 78.0326 18.0293 78.1012C17.8429 78.1209 17.6663 78.1699 17.4799 78.1797C17.1365 78.1994 16.7832 78.2681 16.4595 78.1994C16.1062 78.1209 15.8217 78.1209 15.5077 78.3269C15.3311 78.4447 15.0367 78.4447 14.8013 78.4348C14.4971 78.425 14.1929 78.3564 13.8888 78.2877C13.5257 78.2092 13.1921 78.1307 12.8095 78.2877C12.6034 78.376 12.3189 78.3367 12.0834 78.2877C11.9461 78.268 11.8185 78.2484 11.691 78.2288L11.4947 78.2092C11.4358 78.1994 11.4358 78.1895 11.3966 78.1895C11.2887 78.1601 11.1611 78.1503 11.0434 78.1503C10.7785 78.1012 10.592 78.3956 10.7196 78.6115C10.7883 78.7586 10.9551 78.8175 11.063 78.8862C11.1219 78.8862 11.7204 79.3375 12.1227 79.6221L13.4375 80.5836C13.8888 80.9172 14.3205 81.2704 14.7522 81.6237C15.4292 82.1633 16.0964 82.7324 16.744 83.3015L17.9312 84.3513C18.5297 84.8713 18.726 85.6072 18.5199 86.3137C18.3433 86.8631 17.9606 87.2556 17.4308 87.5303C17.1659 87.6579 16.9108 87.7854 16.6557 87.913C16.4791 88.0013 16.3025 88.0798 16.1259 88.1485C15.7726 88.2956 15.3998 88.4232 15.0269 88.5409C14.1341 88.8255 13.3099 89.267 12.4857 89.6987C12.2993 89.7968 12.1128 89.9342 11.9068 89.9931C10.4841 90.464 9.19877 91.2293 7.8055 91.769C6.68696 92.2007 5.52919 92.5637 4.38122 92.9366C3.49816 93.2113 2.60529 93.486 1.71243 93.7608C1.65356 93.7804 1.60448 93.8196 1.54561 93.8393C1.0354 93.9864 0.770507 93.7804 0.829377 93.28C0.878436 92.8286 1.11391 92.4852 1.55544 92.3086C2.04602 92.1124 2.54643 91.9358 3.03702 91.7592L2.96833 91.7494Z" fill="#DAA114"/>
<path d="M33.2575 63.521C33.3066 63.364 33.3164 63.2168 33.4047 63.05C33.4734 62.9029 33.5519 62.7459 33.3851 62.687C33.336 62.6674 33.3556 62.6281 33.3458 62.5987C33.3262 62.5496 33.3066 62.4908 33.2674 62.4417C33.2477 62.4221 33.1692 62.4221 33.1791 62.3926C33.2674 62.2357 33.2575 62.1081 33.0711 62.0492C33.2085 61.8922 33.0515 61.853 32.9632 61.7941C32.8749 61.7353 32.8749 61.6273 32.7081 61.5881C32.659 61.5783 32.6394 61.5586 32.659 61.5292C32.7473 61.333 32.6394 61.2152 32.5511 61.0877C32.453 60.9503 32.4432 60.7835 32.5413 60.5677C32.6002 60.4499 32.5609 60.3714 32.5217 60.2929C32.4824 60.1948 32.3941 60.1163 32.3451 60.028C32.2666 59.8906 32.1684 59.7729 31.982 59.6748C31.7465 59.5472 31.5405 59.4099 31.3737 59.2529C31.2854 59.1744 31.305 59.0566 31.2952 58.9487C31.2756 58.7329 31.2854 58.4974 31.2461 58.2913C31.2167 58.1343 31.1382 57.997 31.0597 57.8498C30.9812 57.7223 30.8537 57.6143 30.7752 57.4868C30.5299 57.1139 30.2944 56.7313 30.0491 56.3584C29.9902 56.2701 29.9019 56.1916 29.8431 56.1033C29.8136 56.0641 29.794 56.015 29.7744 55.9562C29.7253 55.7697 29.6861 55.5735 29.6272 55.3871C29.5389 55.1222 29.431 54.867 29.3427 54.6021C29.2936 54.455 29.2642 54.2882 29.0876 54.19C29.0385 54.1606 29.1366 54.1115 29.3623 54.0429C29.7547 53.9251 30.157 53.7878 30.4121 53.7681C30.5888 53.7583 30.7163 53.7583 30.6869 53.8368C30.6378 53.9546 30.8537 53.9742 30.6574 54.1508C30.628 54.1802 30.6476 54.19 30.6673 54.1998C31.0303 54.3568 30.991 54.661 31.0597 54.9259C31.0793 55.0142 31.1578 55.0829 31.1971 55.1614C31.2265 55.2104 31.2461 55.2693 31.2658 55.3184C31.2854 55.3969 31.2854 55.495 31.3344 55.5637C31.3737 55.6127 31.462 55.6422 31.2658 55.7894C31.2265 55.8188 31.2461 55.8482 31.305 55.8384C31.5307 55.7992 31.5209 55.858 31.5405 55.9071C31.5797 56.0445 31.5896 56.1916 31.6484 56.3192C31.6877 56.4173 31.7563 56.5056 31.8446 56.5841C31.982 56.7018 32.1586 56.8098 32.2862 56.9373C32.3941 57.0453 32.453 57.163 32.5413 57.2709C32.5609 57.3004 32.6198 57.3102 32.6296 57.3396C32.659 57.3887 32.7375 57.4279 32.6786 57.5064C32.6198 57.5947 32.6198 57.6438 32.8258 57.6241C32.9436 57.6143 32.9436 57.6634 32.9436 57.7124C32.9436 57.7713 32.8847 57.8498 32.8356 57.9185C32.7768 58.0068 32.7081 58.0951 32.8651 58.1049C32.9534 58.1049 32.9239 58.1736 32.8847 58.2325C32.7277 58.4876 32.8062 58.6446 32.9338 58.7819C33.1006 58.9782 33.3066 59.1548 33.493 59.3412C33.5617 59.4197 33.6009 59.4982 33.65 59.5865C33.7972 59.8416 33.856 60.1458 33.8953 60.4401C33.9051 60.499 33.9051 60.5578 33.964 60.5971C34.1013 60.6854 34.1308 60.8129 34.1112 60.9601C34.0915 61.1367 34.2289 61.2545 34.3663 61.3722C34.3957 61.4017 34.4546 61.4213 34.4546 61.4605C34.4349 61.7353 34.7195 61.9021 34.7686 62.1572C34.8078 62.3632 34.7784 62.5987 34.7587 62.8244C34.7489 63.001 34.7097 63.1874 34.6802 63.364C34.6802 63.3738 34.6999 63.3836 34.6999 63.3934C34.6704 63.5014 34.4153 63.6289 33.9836 63.7565C33.6009 63.8644 33.3753 63.8938 33.3458 63.8153C33.3164 63.727 33.3164 63.6289 33.3066 63.5406C33.2968 63.5112 33.2772 63.521 33.2575 63.521Z" fill="#DAA114"/>
<path d="M144.169 38.3445C145.072 38.9038 145.974 39.4631 146.887 40.0223L147.044 40.1204C147.26 40.2578 147.407 40.405 147.554 40.5423C147.701 40.6503 147.848 40.8269 147.848 41.0624C147.858 41.2978 147.731 41.5235 147.554 41.6216C147.387 41.7492 147.221 41.8767 147.044 42.0043C146.828 42.1613 146.514 42.2692 146.249 42.4066L145.042 43.0149C144.866 43.113 144.709 43.2798 144.532 43.3289C143.649 43.6134 142.815 43.9765 142.06 44.5161C141.667 44.5946 141.255 44.7908 140.98 44.9576C140.882 45.0165 140.774 45.0754 140.725 45.1931C140.676 45.301 140.706 45.4286 140.696 45.5463C140.656 46.1939 140.509 46.9592 140.549 47.6755C140.558 47.8717 140.539 48.0876 140.49 48.2642C140.333 48.8234 140.225 49.3925 140.136 49.9714C140.048 50.5797 140.009 51.0115 139.901 51.9239L139.872 52.1987C139.803 52.6206 139.685 52.9149 139.538 53.17C139.352 53.4448 138.871 53.5429 138.606 53.3761C138.105 53.121 137.458 52.2772 137.105 51.816C136.712 51.2764 136.222 50.7858 135.751 50.305C135.182 49.7261 134.583 49.1865 134.014 48.6174L133.278 47.9011C133.18 47.7932 133.052 47.6853 132.895 47.7245L132.424 47.8423C132.032 47.9404 131.639 48.0385 131.257 48.1562C130.501 48.3623 129.746 48.5782 128.99 48.7842L127.852 49.0786L127.283 49.2159L126.341 49.422L125.909 49.5103C125.595 49.5691 125.331 49.5299 125.125 49.4808C124.918 49.422 124.761 49.3729 124.565 49.1963C124.379 49.0295 124.241 48.7842 124.192 48.5585C124.153 48.3427 124.183 48.1661 124.212 47.9306C124.251 47.6755 124.408 47.3517 124.585 47.0573L125.066 46.1939L125.674 45.1539L126.871 43.0541L127.371 42.1417L127.803 41.3175C127.872 41.2194 127.891 41.0918 127.803 40.9937L127.499 40.4442L125.802 37.5105C125.37 36.7256 125.095 36.2841 124.291 34.7632C124.153 34.4395 124.134 34.1647 124.124 33.9489C124.114 33.733 124.212 33.4288 124.398 33.1934C124.604 32.9481 124.82 32.8401 125.036 32.7813C125.262 32.7028 125.576 32.6537 125.949 32.7224L131.483 33.5368L132.199 33.6349L132.552 33.684L132.719 33.7036L132.729 33.6938C132.748 33.684 132.748 33.6545 132.738 33.6447C132.729 33.6545 132.748 33.6251 132.787 33.5858L132.886 33.4779L133.092 33.262L133.514 32.8303L136.732 29.6317C137.095 29.2687 137.448 28.8762 137.821 28.5426C138.213 28.2483 138.518 28.1894 138.822 28.16C139.175 28.1305 139.646 28.3071 139.881 28.5328C140.087 28.729 140.323 28.9939 140.431 29.4845L141 33.3994L141.255 35.195L141.412 36.0878L141.51 36.5294L141.559 36.755L141.589 36.8629L141.598 36.8924L140.872 37.0003L140.853 37.0101C140.804 37.0297 140.764 37.0396 140.715 37.0396C140.519 36.9905 140.323 36.7845 140.156 36.5294C139.94 36.1663 139.754 35.8229 139.744 35.3225C139.724 34.6063 139.43 33.8998 139.577 33.1737C139.597 33.0756 139.567 32.9285 139.538 32.8205C139.391 32.3103 139.273 31.8001 139.175 31.2899C139.096 30.9072 139.047 30.6129 138.998 30.2597C138.979 30.083 138.792 29.9457 138.616 29.9849C138.449 30.034 138.351 30.191 138.223 30.2989L137.32 31.1722C136.84 31.6529 136.388 32.1729 135.917 32.6733L134.985 33.6349L134.289 34.3119L133.533 35.0674C133.317 35.2931 132.994 35.3323 132.709 35.2636C132.356 35.195 132.209 35.1263 131.983 34.9595C131.904 34.8908 131.649 34.8614 131.551 34.9006C131.178 35.0674 130.786 34.9693 130.384 34.9006C129.314 34.7044 128.254 34.4787 127.185 34.3021L126.714 34.2334L126.322 34.1844C126.194 34.1745 126.076 34.1549 125.959 34.1549C125.841 34.1647 125.743 34.2727 125.723 34.41C125.703 34.6259 125.909 34.7927 125.998 34.9497L126.312 35.3716L127.303 36.9414C127.842 37.8343 128.343 38.7468 128.863 39.6495C128.922 39.7574 128.99 39.8555 129.059 39.9536C129.128 40.0518 129.187 40.1303 129.304 40.3559C129.589 40.8073 129.648 41.3862 129.383 41.8473L129.196 42.1711C129.157 42.23 129.118 42.2888 129.079 42.3379C128.784 42.7107 128.608 43.0149 128.578 43.4859C128.568 43.7508 128.382 44.0844 128.215 44.3493C128.009 44.6927 127.754 45.0067 127.509 45.3108C127.214 45.6837 126.93 46.0271 126.822 46.5373C126.793 46.6747 126.724 46.8219 126.645 46.9592C126.596 47.0475 126.577 47.0671 126.557 47.077L126.488 47.126C126.351 47.2438 126.125 47.4204 126.076 47.6558C126.106 47.9404 126.42 47.8128 126.606 47.7834L127.293 47.6264L130.001 47.0083L131.355 46.6943L132.032 46.5373L132.395 46.4588C132.601 46.4196 132.817 46.3607 133.023 46.3607C133.425 46.3509 133.818 46.5177 134.112 46.812L135.309 47.9895C136.114 48.7842 136.899 49.5888 137.684 50.4129L138.262 51.0311L138.321 51.1194C138.351 51.1488 138.37 51.1979 138.41 51.2371C138.449 51.2666 138.508 51.2568 138.527 51.2175C138.537 51.1881 138.557 51.1488 138.567 51.0998C138.567 51.0703 138.567 51.0311 138.557 50.9918L138.547 50.9624C138.547 50.9428 138.557 50.8447 138.557 50.7956L138.586 50.4228C138.616 50.1677 138.645 49.9224 138.684 49.6771C138.763 49.1767 138.851 48.6861 138.959 48.1857C139.087 47.5872 139.175 46.9886 139.244 46.3901L139.332 45.4875C139.352 44.9478 139.499 44.3591 139.96 44.0255C140.038 43.9666 140.117 43.9078 140.205 43.8587L140.666 43.5938C140.764 43.5349 140.863 43.4859 140.97 43.4368C141.863 43.0542 142.727 42.6126 143.58 42.1515L144.866 41.4647L145.484 41.1409C145.484 41.1409 145.484 41.1409 145.494 41.1409C145.513 41.1605 145.66 41.131 145.611 41.0624C145.602 41.0526 145.602 41.0329 145.582 41.0133C145.562 40.9937 145.592 41.0035 145.533 40.9741L145.307 40.8367L144.385 40.3069C143.345 39.6985 142.305 39.0804 141.265 38.4623C141.196 38.423 141.118 38.4034 141.049 38.3641C140.46 38.0011 140.392 37.6479 140.882 37.3928C141.314 37.1671 141.824 37.1671 142.374 37.4418L144.189 38.4132L144.169 38.3445Z" fill="#DAA114"/>
<path d="M109.927 4.67075L114.784 3.52278C115.068 3.4541 115.304 3.73864 115.186 4.00355L113.135 8.5562C113.086 8.66412 113.096 8.78187 113.155 8.87998L115.745 13.1481C115.893 13.3934 115.696 13.7074 115.412 13.6779L110.447 13.1383C110.329 13.1285 110.221 13.1677 110.143 13.256L106.885 17.0335C106.699 17.2494 106.336 17.1611 106.277 16.8765L105.257 11.9903C105.237 11.8824 105.159 11.7843 105.051 11.7352L100.449 9.80228C100.184 9.69435 100.155 9.32151 100.41 9.17433L104.746 6.69197C104.845 6.6331 104.913 6.53498 104.923 6.41724L105.335 1.44269C105.355 1.15815 105.708 1.02079 105.914 1.21702L109.613 4.57264C109.701 4.66094 109.819 4.69038 109.927 4.67075Z" fill="#DAA114"/>
<path d="M112.115 3.42429L112.626 3.37524C112.792 3.35561 112.949 3.3458 113.224 3.30655C113.695 3.2575 114.176 3.15938 114.509 3.20844C114.647 3.22806 114.774 3.24768 114.912 3.26731C115.02 3.27712 115.167 3.29674 115.285 3.42429C115.402 3.54203 115.451 3.71864 115.412 3.85601C115.383 3.99337 115.353 4.12093 115.353 4.25829C115.353 4.39566 115.245 4.6017 115.167 4.78812L114.735 5.78892C114.686 5.91647 114.706 6.08327 114.627 6.18139C114.245 6.6916 113.96 7.23124 113.842 7.85919C113.666 8.02599 113.548 8.25166 113.499 8.40865C113.469 8.50677 113.43 8.58526 113.45 8.68338C113.469 8.78149 113.558 8.85018 113.617 8.92867C113.715 9.0366 113.862 9.26227 113.999 9.4585C114.137 9.65474 114.284 9.85097 114.47 10.0178C114.568 10.1061 114.657 10.2238 114.706 10.3514C114.843 10.7242 115.02 11.0774 115.226 11.411C115.481 11.8526 115.844 12.3235 116.07 12.7749C116.177 13.0104 116.236 13.2164 116.276 13.4028C116.315 13.6089 116.148 13.9032 115.932 13.9817C115.55 14.07 114.99 14.0406 114.411 13.864C114.127 13.7855 113.842 13.7364 113.597 13.6972C113.371 13.6579 113.136 13.6383 112.91 13.6187C112.371 13.5598 111.821 13.5598 111.272 13.5108L110.722 13.4715C110.614 13.4715 110.506 13.4421 110.408 13.5108C110.32 13.5794 110.271 13.6874 110.212 13.7659C110.104 13.9425 109.898 14.2368 109.761 14.4723C109.505 14.8942 109.25 15.3063 108.976 15.7184L108.77 16.0226C108.711 16.1207 108.642 16.2188 108.505 16.4052L107.739 17.4158C107.651 17.5336 107.553 17.6317 107.455 17.7102C107.121 17.9555 106.915 18.0438 106.611 18.0536C106.444 18.0536 106.238 17.9947 106.091 17.8966C105.944 17.7985 105.885 17.7102 105.797 17.5826C105.62 17.3569 105.453 16.9841 105.394 16.4935L105.179 15.2082L104.933 13.5892L104.815 12.9613L104.708 12.4609C104.688 12.3824 104.678 12.2745 104.58 12.2548L104.256 12.1371C103.54 11.8624 102.804 11.6465 102.088 11.3816L100.361 10.7144C99.9881 10.5574 99.7624 10.3416 99.6054 10.1551C99.5171 10.057 99.4681 9.98834 99.4092 9.85097C99.3504 9.71361 99.3307 9.537 99.3405 9.38001C99.3798 9.05622 99.4681 8.93848 99.6251 8.68338C99.7625 8.43808 100.116 8.21242 100.489 8.00637L101.529 7.37842L102.117 7.00557L103.304 6.25988L103.658 6.03421L103.825 5.92628V5.90666C103.825 5.88704 103.815 5.86741 103.795 5.8576H103.785L103.795 5.6908L103.834 5.28852L104.001 3.78733L104.089 2.96315L104.227 1.50119L104.237 1.40308C104.276 1.05967 104.394 0.814375 104.511 0.637764C104.649 0.451341 104.727 0.353225 104.923 0.225673C105.12 0.0883088 105.424 0 105.62 0C105.787 0 105.983 0.0196273 106.209 0.0883094C106.434 0.156992 106.709 0.343411 106.954 0.598516L107.72 1.29515L108.652 2.14877L109.555 2.98277C109.712 3.12013 109.869 3.24768 110.025 3.37524L110.271 3.56165L110.398 3.64996L110.428 3.66958L110.447 3.6794L109.878 4.30735C109.869 4.32697 109.898 4.2681 109.859 4.34659C109.751 4.50358 109.476 4.48396 109.27 4.45452C108.966 4.39565 108.691 4.32697 108.485 4.06205C108.191 3.6794 107.69 3.47335 107.504 2.97295C107.474 2.90427 107.396 2.8454 107.327 2.80615C107.023 2.61973 106.856 2.5118 106.69 2.39406C106.523 2.27632 106.376 2.15858 106.219 2.02121C106.14 1.96234 106.071 1.86423 105.963 1.85442C105.856 1.8446 105.748 1.91329 105.718 2.01141L105.63 2.60992L105.591 2.94352C105.561 3.20843 105.551 3.78733 105.532 4.21905C105.512 4.52321 105.492 4.81756 105.463 5.12172L105.306 6.54442C105.286 6.81915 105.071 7.00557 104.835 7.10369C104.688 7.16256 104.521 7.2018 104.394 7.17237C104.315 7.16256 104.168 7.26068 104.148 7.33917C104.06 7.65315 103.805 7.76108 103.569 7.88863L101.803 8.84037C101.646 8.93849 101.489 9.0366 101.362 9.12491C101.293 9.17397 101.234 9.21322 101.185 9.27209C101.136 9.33096 101.136 9.42907 101.195 9.50757C101.273 9.62531 101.45 9.63512 101.578 9.67436L101.96 9.75286C102.255 9.81173 102.314 9.78229 102.843 9.9589C103.511 10.1748 104.168 10.4299 104.835 10.6653C104.923 10.685 105.012 10.7144 105.1 10.7438C105.237 10.7831 105.375 10.8223 105.512 10.8812C105.905 11.048 106.209 11.4012 106.268 11.8329C106.277 11.9311 106.287 12.0194 106.297 12.1077C106.297 12.5394 106.317 12.7062 106.572 12.9711C106.709 13.1085 106.758 13.3636 106.778 13.5696C106.807 13.8345 106.788 14.1191 106.768 14.384C106.758 14.5508 106.739 14.7078 106.758 14.8648L106.778 14.9825C106.778 14.9923 106.788 15.0119 106.797 15.0218C106.817 15.0414 106.837 15.061 106.876 15.061C106.954 15.061 106.925 15.1297 106.896 15.2474C106.866 15.3554 106.847 15.4731 106.847 15.6006C106.827 15.7184 106.866 15.8558 106.954 15.8754C107.043 15.9048 107.102 15.8165 107.16 15.7478C107.219 15.6791 107.278 15.6006 107.327 15.5222L107.416 15.3848L107.514 15.218C107.553 15.1591 107.68 14.9825 107.759 14.8746L108.308 14.1093L108.858 13.3439L109.133 12.9613C109.28 12.7749 109.466 12.5001 109.682 12.3432C109.957 12.1273 110.3 12.039 110.653 12.0684L111.743 12.1567L112.881 12.2647L113.45 12.3333C113.617 12.353 113.911 12.3922 113.852 12.3922L113.999 12.4413C114.048 12.4707 114.176 12.4903 114.176 12.4216C114.176 12.3922 114.166 12.3432 114.088 12.2941L113.989 12.2352L113.96 12.2156C113.95 12.2058 113.96 12.2254 113.901 12.1273C113.725 11.8329 113.568 11.5288 113.42 11.2246C113.244 10.8518 113.028 10.4985 112.802 10.1649L112.361 9.52719C112.135 9.21321 112.017 8.85999 112.047 8.48714C112.057 8.34978 112.086 8.21242 112.135 8.06524C112.204 7.87882 112.312 7.60409 112.341 7.55503C112.665 6.97614 112.91 6.37762 113.155 5.76929L113.332 5.30815L113.411 5.11191L113.401 5.1021C113.391 5.09229 113.381 5.1021 113.401 5.09229C113.43 5.09229 113.509 5.00398 113.489 4.96473C113.489 4.94511 113.469 4.91567 113.44 4.89605C113.42 4.88624 113.401 4.87643 113.381 4.86662C113.342 4.86662 113.371 4.83718 113.195 4.86662C112.39 4.96473 111.566 5.06285 110.752 5.16097C110.703 5.17078 110.644 5.20022 110.595 5.20022C110.124 5.24928 109.918 4.99417 110.035 4.51339C110.133 4.09149 110.379 3.79714 110.791 3.70883C111.242 3.61071 111.703 3.54204 112.155 3.45373L112.115 3.42429Z" fill="#DAA114"/>
</svg>
