<svg width="161" height="88" viewBox="0 0 161 88" fill="none" xmlns="http://www.w3.org/2000/svg">
<path d="M106.966 75.2703C108.025 76.3289 109.068 77.4112 110.134 78.4303L110.861 79.1334L111.659 79.9471C111.912 79.6074 112.149 79.2914 112.401 78.9754C112.654 78.6673 112.852 78.4382 113.097 78.1775C113.334 77.9247 113.547 77.6087 113.768 77.3243L115.001 75.7759C115.19 75.5468 115.435 75.3335 115.593 75.1044C116.351 73.9589 117.173 72.8686 118.121 71.8653C118.492 71.2412 118.816 70.8383 119.148 70.4749C119.322 70.7356 119.488 70.9963 119.662 71.257C119.938 71.6678 120.286 72.126 120.594 72.5526C120.862 72.9318 121.321 73.5717 121.763 74.2433C121.818 74.3302 121.882 74.4171 121.937 74.504C122.134 74.2828 122.363 74.0062 122.553 73.7376C122.861 73.3189 123.169 72.9002 123.477 72.4815L124.283 71.4545C124.836 70.783 125.389 70.1115 125.95 69.44L126.819 68.3814L127.356 67.6783C127.704 68.3024 128.044 68.9344 128.391 69.5585C128.849 70.3564 129.395 71.5414 129.892 72.6L129.9 72.6237L131.686 69.0845C132.468 67.5124 133.274 65.9639 134.127 64.4392C135.272 62.4089 136.402 60.347 137.5 58.2692C137.777 57.7399 138.045 57.1948 138.298 56.6497C138.725 55.7491 139.143 54.8485 139.57 53.9479L140.234 52.5337C140.131 52.2019 140.068 51.8306 140.044 51.4277C139.641 51.5225 139.222 51.6726 138.78 51.8543L137.476 53.0789L134.877 55.4805L132.855 57.3054L129.363 60.3628L129.173 60.5208L128.992 59.952L128.454 58.4351L126.946 54.2323L120.61 60.6867L119.417 61.8796L119.148 62.1482L119.132 62.1561C119.124 62.1561 119.117 62.1561 119.117 62.1482L119.117 62.1403L119.117 62.1245L118.729 61.4609L115.617 56.2231L113.507 58.6168L107.132 65.8138C105.931 67.1805 104.738 68.5552 103.458 69.835C103.103 70.1984 103.056 70.3722 103.324 70.3564C103.79 70.3327 104.217 70.3643 104.944 69.8429C105.434 69.4874 105.876 69.1477 106.326 68.5631C106.982 67.7257 107.835 66.9831 108.388 66.0745C108.467 65.9481 108.617 65.7901 108.736 65.6716C109.858 64.5735 110.924 63.4201 111.959 62.243L114.969 58.7748L115.411 58.2771L116.265 59.8097L117.268 61.5399L117.971 62.7091L118.864 64.2259L119.014 64.0679C119.338 63.7361 119.677 63.4122 119.993 63.0725C120.254 62.7881 120.452 62.5353 120.61 62.2272C120.673 62.1008 120.949 61.8322 121.076 61.7611C121.566 61.5162 121.968 61.0659 122.379 60.6235L125.729 57.0684L126.519 56.2705L126.969 57.6451L127.657 59.7782L128.059 61.0185L128.636 62.717L129.94 61.5794C131.164 60.4971 132.397 59.4069 133.621 58.3245L134.451 57.6293C134.948 57.1869 135.486 56.7445 135.904 56.2784C136.133 56.0177 136.347 55.7965 136.576 55.599C136.647 55.5358 136.639 55.5437 136.663 55.5279C136.678 55.52 136.702 55.5121 136.718 55.5121C136.757 55.5042 136.789 55.5121 136.805 55.5516C136.844 55.6306 136.852 55.6148 136.908 55.5516L136.955 55.4884C137.026 55.3857 137.168 55.1882 137.366 54.9433C137.532 54.7379 137.737 54.4851 137.863 54.3666C137.84 54.4298 137.737 54.5957 137.555 54.8564C137.334 55.1724 137.397 55.125 137.429 55.1645C137.437 55.1724 137.437 55.1724 137.445 55.1803C137.468 55.2356 137.437 55.362 137.382 55.5279L137.279 55.7965L137.216 55.9387L137.066 56.2547C136.647 57.1395 136.197 58.0164 135.746 58.8933L131.875 66.2641L130.398 69.1872L129.908 70.1668L129.853 70.0562L129.837 70.0246L129.774 69.8982L129.458 69.2425L127.625 65.4109L126.029 67.4334C125.792 67.7336 125.555 68.0417 125.31 68.3419C125.105 68.6026 124.891 68.8633 124.67 69.1003C124.165 69.6691 123.683 70.2458 123.209 70.8383L122.514 71.731L122.174 72.1813L122.087 72.2919C122.071 72.3156 122.079 72.3077 122.071 72.3156L122.047 72.3551C122.024 72.4025 122 72.4499 121.968 72.4973C121.929 72.4499 121.882 72.3946 121.842 72.3393L121.218 71.4782L119.211 68.6974L119.172 68.6421C118.69 69.2267 118.168 69.8271 117.687 70.467C115.909 72.8765 114.021 75.0096 112.236 77.3243L111.619 78.1301C111.619 78.138 111.619 78.1617 111.604 78.1854C111.58 78.1696 111.596 78.217 111.509 78.1301L110.671 77.2532L108.989 75.4994L105.204 71.6046C105.125 71.5177 105.046 71.4229 104.967 71.336C104.241 70.6013 103.854 70.5144 103.909 71.1148C103.964 71.6441 104.28 72.2761 104.904 72.9634L106.998 75.2229L106.966 75.2703Z" fill="#87B1D9"/>
<path d="M1.41051 22.9251C0.422994 26.0456 -0.153716 29.3558 0.0358869 32.5949C0.146488 34.0406 0.383491 35.4468 0.738996 36.8372C1.1419 38.2118 1.62381 39.5706 2.26372 40.8979C2.40592 41.2534 2.64292 41.5773 2.84043 41.9249C3.04583 42.2725 3.25913 42.6122 3.50403 42.9282L4.13605 43.8051C4.35725 44.0895 4.60215 44.3502 4.83916 44.6267C5.28946 45.1876 5.81877 45.6774 6.32438 46.1909C6.77468 46.6649 7.31189 47.1152 7.7859 47.4945C10.2349 49.272 13.0632 50.3385 15.9704 51.0653C18.2851 51.3734 20.5683 51.6183 22.9225 51.563C25.2688 51.5077 27.631 51.1206 29.9141 50.694C30.5224 50.6071 31.2018 50.4017 31.8022 50.2279C33.6035 49.6433 35.3889 49.0192 37.1348 48.2766C38.8807 47.5498 40.603 46.736 42.2541 45.788C45.7854 43.7814 49.143 41.2297 51.3945 37.7931C51.6868 37.3349 51.9475 36.8451 52.2082 36.3553C52.4136 35.8418 52.6901 35.3441 52.8165 34.7911C53.0061 34.2618 53.0693 33.693 53.1404 33.1321C53.1325 32.5633 53.1483 31.9944 53.014 31.4414C52.8639 30.7857 52.5637 30.13 52.0581 29.6481C51.5604 29.1504 50.8652 28.8976 50.1937 28.8265C48.8191 28.6843 47.4998 29.1109 46.291 29.6244C44.5293 30.4065 42.9256 31.4809 41.4325 32.6502C39.9393 33.8273 38.541 35.1308 37.2217 36.4975C33.7062 40.179 30.8226 44.5161 28.7291 49.2404C27.6705 51.642 26.8726 54.2175 26.3196 56.8008C25.2056 61.9833 25.0476 67.379 26.051 72.5931L26.3433 74.0704L26.7857 75.5083C27.0385 76.4879 27.5046 77.3885 27.9075 78.3128C28.8634 80.0824 30.001 81.8205 31.581 83.1319C31.7548 83.2899 31.9207 83.4637 32.1103 83.6138L32.687 84.0246C33.082 84.2932 33.4534 84.5934 33.8642 84.8304C34.7016 85.2728 35.5232 85.7705 36.4238 86.0628C38.1776 86.7896 40.0658 87.1214 41.9381 87.3031C44.7268 87.5401 47.5235 87.2557 50.2253 86.6553C52.935 86.0549 55.5579 85.1464 58.078 84.0167C60.5902 82.8633 62.984 81.4649 65.2592 79.9007C67.5344 78.3365 69.6359 76.5195 71.6109 74.5839C73.5069 72.7116 75.1975 70.6497 76.7539 68.4771C77.4649 67.3474 78.2312 66.2493 78.8237 65.0485C80.0403 62.8839 80.933 60.5533 81.6914 58.1912C82.3708 55.7817 82.9002 53.4037 83.1688 50.9231C83.2715 50.0383 83.3347 49.1456 83.3347 48.2292C83.3426 47.3207 83.2873 46.3963 83.1056 45.4641C82.9239 44.5398 82.6316 43.576 82.0311 42.707C81.7388 42.2725 81.3517 41.8854 80.9172 41.5536C80.4748 41.2455 79.9771 41.0006 79.4715 40.8505C78.4524 40.5661 77.4412 40.5819 76.509 40.7162C75.5688 40.8584 74.6761 41.1191 73.8229 41.4272C72.1165 42.0513 70.5365 42.8808 69.0118 43.7814C65.5673 45.8433 62.4231 48.2608 59.3341 50.7335C58.473 51.4287 58.2518 51.7605 58.6942 51.6183C59.4526 51.3892 60.0925 51.2707 61.6726 50.2437C62.747 49.5485 63.7424 48.9007 64.9827 47.929C66.7918 46.5228 68.8775 45.3219 70.7577 44.0737C71.0184 43.892 71.4371 43.6945 71.7768 43.5365C73.3015 42.8413 74.8815 42.2251 76.5011 41.9644C77.3069 41.838 78.1364 41.8064 78.8948 41.996C79.6611 42.1619 80.3405 42.5885 80.8303 43.1968C81.802 44.445 82.039 46.1751 82.0943 47.8184C82.118 49.4853 81.9442 51.168 81.6677 52.8349C81.4702 53.9173 81.2727 55.0075 80.9646 56.0661C80.6723 57.1247 80.3958 58.1912 79.985 59.2182C79.5426 60.577 78.9185 61.8648 78.3418 63.1683C77.8441 64.0768 77.3938 65.0169 76.8566 65.9017C76.2878 66.7707 75.7979 67.6871 75.1501 68.5009C74.6761 69.125 74.2337 69.757 73.7597 70.3337C73.2857 70.9183 72.8433 71.495 72.4562 72.1033C72.2903 72.3561 71.7136 72.9407 71.4766 73.1224C71.0184 73.4542 70.5997 73.8887 70.1336 74.2995C69.6675 74.7103 69.2014 75.1607 68.7274 75.6031C66.1361 77.9415 63.2921 80.0034 60.2268 81.6861C57.9516 82.9028 55.5737 83.9693 53.1167 84.7119C52.1608 84.9963 51.197 85.2412 50.2332 85.4624C49.2536 85.6283 48.2898 85.8574 47.3022 85.9364C45.343 86.205 43.3601 86.1576 41.4167 85.9759C38.1934 85.573 34.9781 84.4749 32.5606 82.3339C32.0392 81.8046 31.4704 81.3385 31.0359 80.7302C30.6093 80.2009 30.1511 79.6716 29.8351 79.0554C29.4796 78.4629 29.1004 77.902 28.8397 77.3095C28.1366 76.0534 27.8443 74.9395 27.6152 73.628C27.5757 72.8617 27.2992 71.7241 27.1649 70.7524C26.9753 69.5042 26.8331 68.2639 26.7304 67.0314C26.6119 65.5541 26.5724 64.1479 26.8252 62.5679C26.9595 61.7147 27.0622 60.5375 27.1807 59.5658C27.6705 55.284 29.0925 51.0732 31.0833 47.1942C33.8089 41.9486 37.514 37.169 42.0882 33.5192C43.8815 32.1208 45.8328 30.8331 47.9027 30.1853C48.7006 29.9483 49.5143 29.814 50.2095 29.9246C50.9047 30.0431 51.3945 30.3749 51.7026 30.9753C51.8448 31.2834 51.9554 31.631 52.0107 32.0181C52.0423 32.2077 52.0265 32.4053 52.0423 32.5949C52.0423 32.7924 52.0818 32.982 52.0344 33.1795C51.9712 33.5745 51.9554 33.9695 51.8053 34.3566L51.6315 34.9412L51.3708 35.51C50.6756 37.0347 49.5696 38.4251 48.3451 39.6813C47.1047 40.9295 45.7301 42.0829 44.2528 43.0941C43.684 43.5049 43.0757 43.8762 42.4832 44.2633C41.867 44.6188 41.2587 44.9743 40.6425 45.2903C37.7668 46.7282 34.8201 47.9764 31.7548 48.9244C29.9062 49.4932 28.0181 49.8961 26.1221 50.1647C24.2181 50.4017 22.3063 50.4886 20.4103 50.4096C19.5334 50.3227 18.6406 50.2674 17.7874 50.141C16.2706 49.9988 14.8091 49.6038 13.3792 49.1535C11.9888 48.6084 10.6062 48.008 9.39752 47.139C6.94059 45.4878 4.90235 43.1336 3.43293 40.5819C2.27952 38.4725 1.55271 36.142 1.30781 33.7325C1.0708 31.3229 1.2525 28.8502 1.77391 26.4407C2.57182 22.7118 4.07284 19.1173 5.97677 15.7755C6.11107 15.5622 6.25328 15.3331 6.37968 15.1198C7.5094 13.2475 7.7938 12.5839 6.87738 13.208C6.07947 13.7926 5.09986 14.946 4.12025 16.7314C3.05373 18.7143 2.15312 20.7763 1.43421 22.9093L1.41051 22.9251Z" fill="#87B1D9"/>
<path d="M94.2205 55.8688C94.0151 57.0222 95.0895 58.1835 96.6063 58.4442C98.131 58.7128 99.5294 57.986 99.7348 56.8326C99.9402 55.6792 99.5057 54.0992 97.9888 53.8306C96.4641 53.562 94.4259 54.7075 94.2205 55.8688Z" fill="#87B1D9"/>
<path d="M93.6975 56.7053C93.8318 56.9423 93.9978 57.1398 94.2032 57.2741C94.3928 57.3926 94.5824 57.4637 94.6298 57.677C94.6456 57.7323 94.7009 57.756 94.7404 57.7876C94.8036 57.8587 94.8826 57.9061 94.9458 57.9772C94.9774 58.0088 94.9774 58.0878 95.0169 58.0957C95.246 58.1194 95.4119 58.1905 95.5304 58.3801C95.7279 58.309 95.8148 58.4591 95.9491 58.5618C96.0834 58.6487 96.2414 58.6724 96.3678 58.8146C96.3994 58.8541 96.4468 58.8778 96.4942 58.862C96.7628 58.783 96.9998 58.8541 97.2605 58.8857C97.537 58.9252 97.8214 58.8383 98.0426 58.6487C98.1611 58.546 98.2954 58.5065 98.4297 58.4591C98.5877 58.4038 98.7615 58.3643 98.9195 58.2853C99.1328 58.1747 99.3461 58.0562 99.6305 57.9061C99.9781 57.7244 100.294 57.3768 100.444 56.9502C100.515 56.7606 100.492 56.5552 100.468 56.3656C100.428 55.9785 100.31 55.6072 100.176 55.2517C100.081 54.9831 99.9702 54.7145 99.8359 54.4459C99.7095 54.201 99.5594 53.9403 99.3461 53.7191C98.6825 53.0712 97.7187 52.8974 96.9129 52.9448C96.7154 52.9606 96.51 52.9527 96.3204 52.9843C96.2177 52.9922 96.1308 53.0239 96.036 53.0634C95.6963 53.1898 95.3882 53.3715 95.0801 53.5532C94.6456 53.8218 94.2111 54.1299 93.8556 54.596C93.6581 54.8725 93.4922 55.1648 93.2867 55.5598C93.2314 55.6704 93.3104 55.7178 93.508 55.7178C93.8477 55.7099 94.1953 55.7415 94.4086 55.7099C94.5587 55.6862 94.6772 55.6862 94.6614 55.5914C94.6614 55.4492 94.851 55.4413 94.7799 55.2201C94.772 55.1885 94.7957 55.1727 94.8194 55.1648C95.2302 55.0384 95.4514 54.7461 95.7832 54.5249C95.8938 54.4617 96.0202 54.4301 96.1387 54.3985L96.3678 54.3116C96.4784 54.2642 96.5811 54.1931 96.6996 54.1852C96.7865 54.1694 96.8813 54.2168 96.9287 54.0114C96.9366 53.9719 96.9919 53.9719 97.0156 54.0114C97.1104 54.1773 97.1736 54.1457 97.2447 54.1378C97.4343 54.1062 97.6318 54.0667 97.8135 54.0983C97.9557 54.1141 98.0821 54.1773 98.1927 54.2563C98.3665 54.3827 98.4692 54.5723 98.5561 54.7224C98.6272 54.8567 98.7141 54.9594 98.7615 55.1016C98.7773 55.1332 98.7536 55.1806 98.7694 55.2122C98.7931 55.2675 98.7852 55.3386 98.8563 55.3702C98.9432 55.4018 98.9827 55.4492 98.8484 55.5598C98.7694 55.623 98.801 55.6625 98.8247 55.702C98.8563 55.7494 98.9353 55.7889 98.9985 55.8363C99.0775 55.8916 99.1723 55.9548 99.0538 56.0417C98.9906 56.0891 99.038 56.1444 99.0775 56.1839C99.275 56.3814 99.2355 56.6658 99.1407 56.808C99.0143 57.0213 98.7852 57.1398 98.564 57.2188C98.4771 57.2504 98.3981 57.2978 98.3112 57.3294C98.0426 57.44 97.7424 57.5585 97.4106 57.6454C97.3474 57.6612 97.2763 57.677 97.2052 57.6454C97.0551 57.5585 96.905 57.5664 96.747 57.598C96.5495 57.6217 96.3757 57.519 96.2414 57.3768C96.2098 57.3452 96.1861 57.2978 96.1466 57.2899C95.8464 57.2583 95.7042 56.9581 95.5225 56.8159C95.3645 56.6974 95.1907 56.5947 95.0485 56.4525C94.9458 56.3419 94.8352 56.2155 94.772 56.0496C94.772 56.0417 94.7878 56.0259 94.7799 56.018C94.7404 55.9311 94.5113 55.8363 94.1558 55.8442C93.8398 55.8521 93.6265 55.9627 93.6423 56.1286C93.6502 56.3103 93.7054 56.492 93.7607 56.65L93.6975 56.7053Z" fill="#87B1D9"/>
<path d="M143.86 32.2787C146.333 32.2787 147.889 30.8013 147.889 28.692C147.889 26.5906 145.472 24.1021 142.999 24.1021C140.526 24.1021 138.52 25.8085 138.52 27.9099C138.52 30.0113 141.387 32.2787 143.86 32.2787Z" fill="#87B1D9"/>
<path d="M145.16 32.6979C145.5 32.5399 145.84 32.3661 146.116 32.1133C146.361 31.8763 146.551 31.6472 146.859 31.5208C146.946 31.4892 146.993 31.4102 147.056 31.347C147.175 31.2364 147.277 31.1258 147.38 30.9994C147.428 30.9441 147.53 30.9283 147.546 30.8572C147.641 30.5175 147.751 30.2331 147.965 29.9645C147.902 29.6801 148.06 29.4747 148.139 29.2219C148.218 28.9691 148.202 28.7163 148.289 28.4398C148.312 28.3687 148.32 28.2818 148.289 28.2107C148.091 27.7999 148.02 27.4049 147.862 27.002C147.696 26.5832 147.42 26.2119 147.033 25.967C146.835 25.8327 146.669 25.6668 146.511 25.493C146.306 25.3034 146.132 25.0822 145.911 24.9163C145.603 24.6714 145.294 24.4265 144.939 24.1421C144.489 23.7787 143.936 23.5101 143.327 23.3837C143.003 23.3126 142.703 23.3758 142.403 23.4311C141.803 23.5338 141.234 23.7629 140.705 24.0315C140.31 24.2448 139.907 24.4502 139.543 24.7267C139.211 24.9874 138.848 25.2481 138.579 25.6115C138.176 26.133 137.876 26.765 137.766 27.4523C137.71 27.7841 137.702 28.1633 137.75 28.5267C137.805 28.8901 137.908 29.2298 138.042 29.5458C138.169 29.8539 138.311 30.1462 138.485 30.4227C138.571 30.5491 138.674 30.6755 138.785 30.794C139.188 31.2206 139.638 31.5761 140.104 31.8921C140.776 32.3503 141.502 32.7137 142.3 32.9349C142.759 33.0534 143.217 33.1166 143.714 33.2352C143.857 33.2747 143.896 33.1878 143.849 32.9902C143.77 32.6584 143.707 32.3108 143.541 32.1054C143.422 31.9711 143.327 31.8447 143.169 31.8684C142.932 31.9079 142.751 31.6867 142.482 31.821C142.443 31.8368 142.403 31.8131 142.371 31.7894C141.818 31.3628 141.194 31.1653 140.633 30.7861C140.452 30.6676 140.31 30.4938 140.152 30.3437L139.859 30.0435C139.717 29.9013 139.559 29.7591 139.456 29.5853C139.385 29.451 139.346 29.3088 139.117 29.2772C139.069 29.2693 139.038 29.1903 139.069 29.1508C139.172 28.977 139.109 28.8822 139.061 28.7637C138.919 28.4714 138.84 28.1554 138.84 27.8394C138.848 27.5945 138.911 27.3575 139.014 27.1442C139.164 26.8045 139.433 26.5358 139.678 26.2909C139.883 26.0776 140.096 25.888 140.333 25.7221C140.389 25.6905 140.468 25.6747 140.523 25.6431C140.618 25.572 140.76 25.5483 140.823 25.4298C140.894 25.3034 140.989 25.2481 141.163 25.335C141.258 25.3824 141.352 25.3429 141.423 25.2955C141.51 25.2323 141.597 25.1375 141.684 25.0506C141.787 24.94 141.897 24.8294 142.063 24.9242C142.15 24.9716 142.245 24.9084 142.324 24.8531C142.687 24.5924 143.122 24.6161 143.485 24.7188C143.999 24.8689 144.457 25.1612 144.868 25.493C145.026 25.6273 145.2 25.7458 145.35 25.8801C145.832 26.2989 146.298 26.7571 146.653 27.2785C146.724 27.3812 146.803 27.4839 146.811 27.6103C146.859 27.8947 146.938 28.1238 147.04 28.3608C147.143 28.6294 147.072 28.9849 146.946 29.2693C146.914 29.3325 146.859 29.3957 146.851 29.4589C146.811 29.9566 146.416 30.2726 146.1 30.5807C145.84 30.8414 145.531 31.11 145.144 31.3154C144.844 31.4734 144.512 31.6077 144.157 31.7025C144.133 31.7104 144.109 31.6946 144.086 31.7025C143.888 31.7578 143.809 31.9948 143.92 32.3503C144.015 32.6584 144.196 32.8401 144.425 32.8164C144.678 32.7848 144.923 32.7217 145.168 32.6506L145.16 32.6979Z" fill="#87B1D9"/>
<path d="M45.6434 11.13C45.6434 10.893 45.6829 10.6876 45.6434 10.4111C45.6039 10.1583 45.5565 9.91339 45.8251 9.94499C45.8962 9.95289 45.8883 9.8897 45.9199 9.8581C45.9752 9.8028 46.0226 9.74749 46.0937 9.70009C46.1253 9.68429 46.2438 9.74748 46.2359 9.69218C46.1806 9.42358 46.2517 9.26559 46.5361 9.31299C46.4018 9.01279 46.6467 9.07599 46.7968 9.04439C46.9548 9.01279 46.9943 8.87848 47.2471 8.94168C47.3182 8.95748 47.3577 8.94959 47.3498 8.89429C47.3024 8.57038 47.5078 8.48348 47.6974 8.38078C47.8949 8.27018 47.9897 8.04897 47.9344 7.70136C47.9028 7.51176 47.9897 7.43275 48.0766 7.34585C48.1714 7.24315 48.3373 7.19575 48.4479 7.10885C48.6138 6.98245 48.8192 6.88765 49.1116 6.88765C49.5066 6.87975 49.8621 6.83235 50.1702 6.73755C50.3282 6.69015 50.3519 6.52426 50.4151 6.38206C50.5415 6.11345 50.6205 5.79743 50.7706 5.55253C50.8812 5.36293 51.0471 5.22862 51.2288 5.10222C51.3947 4.98372 51.6238 4.92843 51.7976 4.81783C52.3111 4.49392 52.8088 4.14633 53.3223 3.81452C53.4487 3.73552 53.5988 3.68812 53.7331 3.61702C53.7963 3.57752 53.8437 3.5301 53.8911 3.4748C54.0412 3.26149 54.1755 3.0245 54.3414 2.8191C54.5784 2.52679 54.847 2.26608 55.084 1.96587C55.2183 1.79997 55.3289 1.61037 55.6291 1.59457C55.716 1.59457 55.5975 1.46028 55.3052 1.21538C54.7996 0.796672 54.2782 0.354268 53.9148 0.156766C53.6699 0.0224637 53.4803 -0.0644337 53.4961 0.0619681C53.5119 0.251571 53.2038 0.14096 53.4092 0.496465C53.4408 0.543865 53.4092 0.551771 53.3776 0.551771C52.8009 0.51227 52.7219 0.946764 52.5086 1.25487C52.4375 1.35757 52.3032 1.39709 52.2084 1.46819C52.1452 1.51559 52.0899 1.57088 52.0425 1.63408C51.9714 1.72888 51.9477 1.85527 51.845 1.91847C51.766 1.96588 51.6238 1.94218 51.8529 2.26608C51.9003 2.33718 51.8529 2.35299 51.7739 2.29769C51.4658 2.10019 51.45 2.1792 51.4105 2.2345C51.2999 2.3925 51.213 2.57418 51.0787 2.70849C50.976 2.81119 50.8417 2.8744 50.6837 2.9218C50.4388 2.9929 50.1386 3.0087 49.8937 3.0877C49.6962 3.1509 49.554 3.26941 49.3802 3.36421C49.3407 3.38791 49.2538 3.36421 49.2222 3.38791C49.159 3.43531 49.0404 3.43529 49.08 3.56959C49.1274 3.7276 49.1037 3.7908 48.8193 3.6249C48.6612 3.5301 48.6296 3.59331 48.6138 3.65651C48.598 3.73551 48.6375 3.86981 48.677 4.00412C48.7244 4.16212 48.7876 4.32012 48.5506 4.22532C48.4242 4.17002 48.4321 4.27272 48.4637 4.37542C48.5822 4.80993 48.3926 4.96793 48.1556 5.07064C47.8238 5.21284 47.4604 5.30764 47.1207 5.44194C46.9864 5.49724 46.8916 5.58413 46.7889 5.65524C46.465 5.89224 46.2596 6.24774 46.07 6.61905C46.0305 6.69015 46.0068 6.76916 45.8962 6.77706C45.6592 6.79286 45.5644 6.95085 45.5249 7.15625C45.4775 7.40905 45.2326 7.47226 44.9877 7.52756C44.9324 7.54336 44.8376 7.52756 44.8218 7.58286C44.727 7.96207 44.253 7.98576 44.0713 8.28596C43.9212 8.52296 43.8738 8.85478 43.8027 9.16289C43.7474 9.39989 43.7237 9.66849 43.6842 9.9292C43.6842 9.945 43.6526 9.9371 43.6447 9.9529C43.6368 10.1109 43.9528 10.4585 44.5137 10.9009C45.0114 11.2959 45.3353 11.4855 45.3985 11.3986C45.4696 11.3038 45.5091 11.1774 45.5644 11.0589C45.596 11.0826 45.6197 11.1063 45.6434 11.13Z" fill="#87B1D9"/>
<path d="M56.9872 11.1295C56.9872 10.8925 57.0267 10.6871 56.9872 10.4106C56.9477 10.1578 56.9003 9.9129 57.1689 9.9445C57.24 9.9524 57.2321 9.88921 57.2637 9.85761C57.319 9.80231 57.3664 9.747 57.4375 9.6996C57.4691 9.6838 57.5876 9.74699 57.5797 9.69169C57.5244 9.42309 57.5955 9.2651 57.8799 9.3125C57.7456 9.0123 57.9905 9.0755 58.1406 9.0439C58.2986 9.0123 58.3381 8.87799 58.5909 8.9412C58.662 8.957 58.7015 8.9491 58.6936 8.8938C58.6462 8.56989 58.8516 8.483 59.0412 8.38029C59.2387 8.26969 59.3335 8.04848 59.2782 7.70087C59.2466 7.51127 59.3335 7.43226 59.4204 7.34536C59.5152 7.24266 59.6811 7.19527 59.7917 7.10836C59.9576 6.98196 60.163 6.88716 60.4553 6.88716C60.8503 6.87926 61.2058 6.83186 61.5139 6.73706C61.6719 6.68966 61.6956 6.52377 61.7588 6.38157C61.8852 6.11296 61.9642 5.79695 62.1143 5.55204C62.2249 5.36244 62.3908 5.22813 62.5725 5.10173C62.7384 4.98323 62.9675 4.92794 63.1413 4.81734C63.6548 4.49343 64.1525 4.14584 64.6661 3.81403C64.7925 3.73503 64.9426 3.68763 65.0769 3.61653C65.1401 3.57703 65.1875 3.52961 65.2349 3.47431C65.385 3.26101 65.5193 3.02401 65.6852 2.81861C65.9222 2.52631 66.1908 2.26559 66.4278 1.96539C66.5621 1.79948 66.6727 1.60988 66.9729 1.59408C67.0598 1.59408 66.9413 1.45979 66.649 1.21489C66.1434 0.796183 65.622 0.35378 65.2586 0.156277C65.0137 0.0219754 64.8241 -0.064922 64.8399 0.0614798C64.8557 0.251082 64.5476 0.140471 64.753 0.495976C64.7846 0.543377 64.753 0.551283 64.7214 0.551283C64.1447 0.511782 64.0656 0.946276 63.8523 1.25438C63.7812 1.35708 63.6469 1.3966 63.5521 1.4677C63.4889 1.5151 63.4336 1.57039 63.3862 1.63359C63.3151 1.7284 63.2914 1.85479 63.1887 1.91799C63.1097 1.96539 62.9675 1.94169 63.1966 2.26559C63.244 2.33669 63.1966 2.3525 63.1176 2.2972C62.8095 2.0997 62.7937 2.17871 62.7542 2.23401C62.6436 2.39201 62.5567 2.5737 62.4224 2.708C62.3197 2.8107 62.1854 2.87392 62.0274 2.92132C61.7825 2.99242 61.4823 3.00821 61.2374 3.08721C61.0399 3.15041 60.8977 3.26892 60.7239 3.36372C60.6844 3.38742 60.5975 3.36372 60.5659 3.38742C60.5027 3.43482 60.3842 3.4348 60.4237 3.56911C60.4711 3.72711 60.4474 3.79032 60.163 3.62441C60.005 3.52961 59.9734 3.59282 59.9576 3.65602C59.9418 3.73502 59.9813 3.86933 60.0208 4.00363C60.0682 4.16163 60.1314 4.31963 59.8944 4.22483C59.768 4.16953 59.7759 4.27223 59.8075 4.37493C59.926 4.80944 59.7364 4.96745 59.4994 5.07015C59.1676 5.21235 58.8042 5.30715 58.4645 5.44145C58.3302 5.49675 58.2354 5.58365 58.1327 5.65475C57.8088 5.89175 57.6034 6.24726 57.4138 6.61856C57.3743 6.68966 57.3506 6.76867 57.24 6.77657C57.003 6.79237 56.9082 6.95036 56.8686 7.15576C56.8212 7.40857 56.5763 7.47177 56.3314 7.52707C56.2761 7.54287 56.1813 7.52707 56.1655 7.58238C56.0707 7.96158 55.5967 7.98527 55.415 8.28547C55.2649 8.52248 55.2175 8.85429 55.1464 9.1624C55.0911 9.3994 55.0674 9.66801 55.0279 9.92871C55.0279 9.94451 54.9963 9.93661 54.9884 9.95241C54.9805 10.1104 55.2965 10.458 55.8574 10.9004C56.3551 11.2954 56.6791 11.485 56.7423 11.3981C56.8134 11.3033 56.8529 11.1769 56.9082 11.0584C56.9398 11.0821 56.9635 11.1058 56.9872 11.1295Z" fill="#87B1D9"/>
<path d="M68.4911 11.1295C68.4911 10.8925 68.5306 10.6871 68.4911 10.4106C68.4516 10.1578 68.4042 9.9129 68.6728 9.9445C68.7439 9.9524 68.736 9.88921 68.7676 9.85761C68.8229 9.80231 68.8703 9.747 68.9414 9.6996C68.973 9.6838 69.0915 9.74699 69.0836 9.69169C69.0283 9.42309 69.0994 9.2651 69.3838 9.3125C69.2495 9.0123 69.4944 9.0755 69.6445 9.0439C69.8025 9.0123 69.842 8.87799 70.0948 8.9412C70.1659 8.957 70.2054 8.9491 70.1975 8.8938C70.1501 8.56989 70.3555 8.483 70.5451 8.38029C70.7426 8.26969 70.8374 8.04848 70.7821 7.70087C70.7505 7.51127 70.8374 7.43226 70.9243 7.34536C71.0191 7.24266 71.185 7.19527 71.2956 7.10836C71.4615 6.98196 71.6669 6.88716 71.9592 6.88716C72.3542 6.87926 72.7097 6.83186 73.0178 6.73706C73.1758 6.68966 73.1995 6.52377 73.2627 6.38157C73.3891 6.11296 73.4681 5.79695 73.6182 5.55204C73.7288 5.36244 73.8947 5.22813 74.0764 5.10173C74.2423 4.98323 74.4714 4.92794 74.6452 4.81734C75.1587 4.49343 75.6565 4.14584 76.17 3.81403C76.2964 3.73503 76.4465 3.68763 76.5808 3.61653C76.644 3.57703 76.6914 3.52961 76.7388 3.47431C76.8889 3.26101 77.0232 3.02401 77.1891 2.81861C77.4261 2.52631 77.6947 2.26559 77.9317 1.96539C78.066 1.79948 78.1766 1.60988 78.4768 1.59408C78.5637 1.59408 78.4452 1.45979 78.1529 1.21489C77.6473 0.796183 77.1259 0.35378 76.7625 0.156277C76.5176 0.0219754 76.328 -0.064922 76.3438 0.0614798C76.3596 0.251082 76.0515 0.140471 76.2569 0.495976C76.2885 0.543377 76.2569 0.551283 76.2253 0.551283C75.6486 0.511782 75.5696 0.946276 75.3563 1.25438C75.2852 1.35708 75.1509 1.3966 75.056 1.4677C74.9928 1.5151 74.9375 1.57039 74.8901 1.63359C74.819 1.7284 74.7953 1.85479 74.6926 1.91799C74.6136 1.96539 74.4714 1.94169 74.7005 2.26559C74.7479 2.33669 74.7005 2.3525 74.6215 2.2972C74.3134 2.0997 74.2976 2.17871 74.2581 2.23401C74.1475 2.39201 74.0606 2.5737 73.9263 2.708C73.8236 2.8107 73.6893 2.87392 73.5313 2.92132C73.2864 2.99242 72.9862 3.00821 72.7413 3.08721C72.5438 3.15041 72.4016 3.26892 72.2278 3.36372C72.1883 3.38742 72.1014 3.36372 72.0698 3.38742C72.0066 3.43482 71.8881 3.4348 71.9276 3.56911C71.975 3.72711 71.9513 3.79032 71.6669 3.62441C71.5089 3.52961 71.4773 3.59282 71.4615 3.65602C71.4457 3.73502 71.4852 3.86933 71.5247 4.00363C71.5721 4.16163 71.6353 4.31963 71.3983 4.22483C71.2719 4.16953 71.2798 4.27223 71.3114 4.37493C71.4299 4.80944 71.2403 4.96745 71.0033 5.07015C70.6715 5.21235 70.3081 5.30715 69.9684 5.44145C69.8341 5.49675 69.7393 5.58365 69.6366 5.65475C69.3127 5.89175 69.1073 6.24726 68.9177 6.61856C68.8782 6.68966 68.8545 6.76867 68.7439 6.77657C68.5069 6.79237 68.4121 6.95036 68.3726 7.15576C68.3251 7.40857 68.0803 7.47177 67.8353 7.52707C67.78 7.54287 67.6852 7.52707 67.6694 7.58238C67.5746 7.96158 67.1006 7.98527 66.9189 8.28547C66.7688 8.52248 66.7214 8.85429 66.6503 9.1624C66.595 9.3994 66.5713 9.66801 66.5318 9.92871C66.5318 9.94451 66.5002 9.93661 66.4923 9.95241C66.4844 10.1104 66.8004 10.458 67.3613 10.9004C67.859 11.2954 68.183 11.485 68.2462 11.3981C68.3173 11.3033 68.3568 11.1769 68.4121 11.0584C68.4358 11.0821 68.4595 11.1058 68.4911 11.1295Z" fill="#87B1D9"/>
<path d="M80.577 11.13C80.577 10.893 80.6165 10.6876 80.577 10.4111C80.5375 10.1583 80.4901 9.91339 80.7587 9.94499C80.8298 9.95289 80.8219 9.8897 80.8535 9.8581C80.9088 9.8028 80.9562 9.74749 81.0273 9.70009C81.0589 9.68429 81.1774 9.74748 81.1695 9.69218C81.1142 9.42358 81.1853 9.26559 81.4697 9.31299C81.3354 9.01279 81.5803 9.07599 81.7304 9.04439C81.8884 9.01279 81.9279 8.87848 82.1807 8.94168C82.2518 8.95748 82.2913 8.94959 82.2834 8.89429C82.236 8.57038 82.4414 8.48348 82.631 8.38078C82.8285 8.27018 82.9233 8.04897 82.868 7.70136C82.8364 7.51176 82.9233 7.43275 83.0102 7.34585C83.105 7.24315 83.2709 7.19575 83.3815 7.10885C83.5474 6.98245 83.7529 6.88765 84.0452 6.88765C84.4402 6.87975 84.7957 6.83235 85.1038 6.73755C85.2618 6.69015 85.2855 6.52426 85.3487 6.38206C85.4751 6.11345 85.5541 5.79743 85.7042 5.55253C85.8148 5.36293 85.9807 5.22862 86.1624 5.10222C86.3283 4.98372 86.5574 4.92843 86.7312 4.81783C87.2447 4.49392 87.7424 4.14633 88.2559 3.81452C88.3823 3.73552 88.5324 3.68812 88.6667 3.61702C88.7299 3.57752 88.7773 3.5301 88.8247 3.4748C88.9748 3.26149 89.1091 3.0245 89.275 2.8191C89.512 2.52679 89.7806 2.26608 90.0176 1.96587C90.1519 1.79997 90.2625 1.61037 90.5627 1.59457C90.6496 1.59457 90.5311 1.46028 90.2388 1.21538C89.7332 0.796672 89.2118 0.354268 88.8484 0.156766C88.6035 0.0224637 88.4139 -0.0644337 88.4297 0.0619681C88.4455 0.251571 88.1374 0.14096 88.3428 0.496465C88.3744 0.543865 88.3428 0.551771 88.3112 0.551771C87.7345 0.51227 87.6555 0.946764 87.4422 1.25487C87.3711 1.35757 87.2368 1.39709 87.142 1.46819C87.0788 1.51559 87.0235 1.57088 86.9761 1.63408C86.905 1.72888 86.8813 1.85527 86.7786 1.91847C86.6996 1.96588 86.5574 1.94218 86.7865 2.26608C86.8339 2.33718 86.7865 2.35299 86.7075 2.29769C86.3994 2.10019 86.3836 2.1792 86.3441 2.2345C86.2335 2.3925 86.1466 2.57418 86.0123 2.70849C85.9096 2.81119 85.7753 2.8744 85.6173 2.9218C85.3724 2.9929 85.0722 3.0087 84.8273 3.0877C84.6298 3.1509 84.4876 3.26941 84.3138 3.36421C84.2743 3.38791 84.1874 3.36421 84.1558 3.38791C84.0926 3.43531 83.974 3.43529 84.0135 3.56959C84.061 3.7276 84.0372 3.7908 83.7528 3.6249C83.5948 3.5301 83.5632 3.59331 83.5474 3.65651C83.5316 3.73551 83.5711 3.86981 83.6106 4.00412C83.658 4.16212 83.7212 4.32012 83.4842 4.22532C83.3578 4.17002 83.3657 4.27272 83.3973 4.37542C83.5158 4.80993 83.3262 4.96793 83.0892 5.07064C82.7574 5.21284 82.394 5.30764 82.0543 5.44194C81.92 5.49724 81.8252 5.58413 81.7225 5.65524C81.3986 5.89224 81.1932 6.24774 81.0036 6.61905C80.9641 6.69015 80.9404 6.76916 80.8298 6.77706C80.5928 6.79286 80.498 6.95085 80.4585 7.15625C80.4111 7.40905 80.1662 7.47226 79.9213 7.52756C79.866 7.54336 79.7712 7.52756 79.7554 7.58286C79.6606 7.96207 79.1866 7.98576 79.0049 8.28596C78.8548 8.52296 78.8074 8.85478 78.7363 9.16289C78.681 9.39989 78.6573 9.66849 78.6178 9.9292C78.6178 9.945 78.5862 9.9371 78.5783 9.9529C78.5704 10.1109 78.8864 10.4585 79.4473 10.9009C79.945 11.2959 80.2689 11.4855 80.3321 11.3986C80.4032 11.3038 80.4427 11.1774 80.498 11.0589C80.5296 11.0826 80.5533 11.1063 80.577 11.13Z" fill="#87B1D9"/>
<path d="M92.4354 11.13C92.4354 10.893 92.4749 10.6876 92.4354 10.4111C92.3959 10.1583 92.3485 9.91339 92.6171 9.94499C92.6882 9.95289 92.6803 9.8897 92.7119 9.8581C92.7672 9.8028 92.8146 9.74749 92.8857 9.70009C92.9173 9.68429 93.0358 9.74748 93.0279 9.69218C92.9726 9.42358 93.0437 9.26559 93.3281 9.31299C93.1938 9.01279 93.4387 9.07599 93.5888 9.04439C93.7468 9.01279 93.7863 8.87848 94.0391 8.94168C94.1102 8.95748 94.1497 8.94959 94.1418 8.89429C94.0944 8.57038 94.2998 8.48348 94.4894 8.38078C94.6869 8.27018 94.7817 8.04897 94.7264 7.70136C94.6948 7.51176 94.7817 7.43275 94.8686 7.34585C94.9634 7.24315 95.1293 7.19575 95.2399 7.10885C95.4058 6.98245 95.6112 6.88765 95.9035 6.88765C96.2985 6.87975 96.6541 6.83235 96.9622 6.73755C97.1202 6.69015 97.1439 6.52426 97.2071 6.38206C97.3335 6.11345 97.4125 5.79743 97.5626 5.55253C97.6732 5.36293 97.8391 5.22862 98.0208 5.10222C98.1867 4.98372 98.4158 4.92843 98.5896 4.81783C99.1031 4.49392 99.6008 4.14633 100.114 3.81452C100.241 3.73552 100.391 3.68812 100.525 3.61702C100.588 3.57752 100.636 3.5301 100.683 3.4748C100.833 3.26149 100.968 3.0245 101.133 2.8191C101.37 2.52679 101.639 2.26608 101.876 1.96587C102.01 1.79997 102.121 1.61037 102.421 1.59457C102.508 1.59457 102.39 1.46028 102.097 1.21538C101.592 0.796672 101.07 0.354268 100.707 0.156766C100.462 0.0224637 100.272 -0.0644337 100.288 0.0619681C100.304 0.251571 99.9958 0.14096 100.201 0.496465C100.233 0.543865 100.201 0.551771 100.17 0.551771C99.5929 0.51227 99.5139 0.946764 99.3006 1.25487C99.2295 1.35757 99.0952 1.39709 99.0004 1.46819C98.9372 1.51559 98.8819 1.57088 98.8345 1.63408C98.7634 1.72888 98.7397 1.85527 98.637 1.91847C98.558 1.96588 98.4158 1.94218 98.6449 2.26608C98.6923 2.33718 98.6449 2.35299 98.5659 2.29769C98.2578 2.10019 98.242 2.1792 98.2025 2.2345C98.0919 2.3925 98.005 2.57418 97.8707 2.70849C97.768 2.81119 97.6337 2.8744 97.4757 2.9218C97.2308 2.9929 96.9306 3.0087 96.6857 3.0877C96.4882 3.1509 96.3459 3.26941 96.1721 3.36421C96.1326 3.38791 96.0457 3.36421 96.0141 3.38791C95.9509 3.43531 95.8324 3.43529 95.8719 3.56959C95.9193 3.7276 95.8956 3.7908 95.6112 3.6249C95.4532 3.5301 95.4216 3.59331 95.4058 3.65651C95.39 3.73551 95.4295 3.86981 95.469 4.00412C95.5164 4.16212 95.5796 4.32012 95.3426 4.22532C95.2162 4.17002 95.2241 4.27272 95.2557 4.37542C95.3742 4.80993 95.1846 4.96793 94.9476 5.07064C94.6158 5.21284 94.2524 5.30764 93.9127 5.44194C93.7784 5.49724 93.6836 5.58413 93.5809 5.65524C93.257 5.89224 93.0516 6.24774 92.862 6.61905C92.8225 6.69015 92.7988 6.76916 92.6882 6.77706C92.4512 6.79286 92.3564 6.95085 92.3169 7.15625C92.2695 7.40905 92.0246 7.47226 91.7797 7.52756C91.7244 7.54336 91.6296 7.52756 91.6138 7.58286C91.519 7.96207 91.045 7.98576 90.8633 8.28596C90.7132 8.52296 90.6658 8.85478 90.5947 9.16289C90.5394 9.39989 90.5157 9.66849 90.4762 9.9292C90.4762 9.945 90.4446 9.9371 90.4367 9.9529C90.4288 10.1109 90.7448 10.4585 91.3057 10.9009C91.8034 11.2959 92.1273 11.4855 92.1905 11.3986C92.2616 11.3038 92.3011 11.1774 92.3564 11.0589C92.388 11.0826 92.4117 11.1063 92.4354 11.13Z" fill="#87B1D9"/>
<path d="M104.182 11.13C104.182 10.893 104.222 10.6876 104.182 10.4111C104.143 10.1583 104.096 9.91339 104.364 9.94499C104.435 9.95289 104.427 9.8897 104.459 9.8581C104.514 9.8028 104.562 9.74749 104.633 9.70009C104.664 9.68429 104.783 9.74748 104.775 9.69218C104.72 9.42358 104.791 9.26559 105.075 9.31299C104.941 9.01279 105.186 9.07599 105.336 9.04439C105.494 9.01279 105.533 8.87848 105.786 8.94168C105.857 8.95748 105.897 8.94959 105.889 8.89429C105.841 8.57038 106.047 8.48348 106.236 8.38078C106.434 8.27018 106.529 8.04897 106.474 7.70136C106.442 7.51176 106.529 7.43275 106.616 7.34585C106.711 7.24315 106.876 7.19575 106.987 7.10885C107.153 6.98245 107.358 6.88765 107.651 6.88765C108.046 6.87975 108.401 6.83235 108.709 6.73755C108.867 6.69015 108.891 6.52426 108.954 6.38206C109.081 6.11345 109.16 5.79743 109.31 5.55253C109.42 5.36293 109.586 5.22862 109.768 5.10222C109.934 4.98372 110.163 4.92843 110.337 4.81783C110.85 4.49392 111.348 4.14633 111.861 3.81452C111.988 3.73552 112.138 3.68812 112.272 3.61702C112.335 3.57752 112.383 3.5301 112.43 3.4748C112.58 3.26149 112.715 3.0245 112.88 2.8191C113.117 2.52679 113.386 2.26608 113.623 1.96587C113.757 1.79997 113.868 1.61037 114.168 1.59457C114.255 1.59457 114.137 1.46028 113.844 1.21538C113.339 0.796672 112.817 0.354268 112.454 0.156766C112.209 0.0224637 112.019 -0.0644337 112.035 0.0619681C112.051 0.251571 111.743 0.14096 111.948 0.496465C111.98 0.543865 111.948 0.551771 111.917 0.551771C111.34 0.51227 111.261 0.946764 111.048 1.25487C110.977 1.35757 110.842 1.39709 110.747 1.46819C110.684 1.51559 110.629 1.57088 110.582 1.63408C110.51 1.72888 110.487 1.85527 110.384 1.91847C110.305 1.96588 110.163 1.94218 110.392 2.26608C110.439 2.33718 110.392 2.35299 110.313 2.29769C110.005 2.10019 109.989 2.1792 109.95 2.2345C109.839 2.3925 109.752 2.57418 109.618 2.70849C109.515 2.81119 109.381 2.8744 109.223 2.9218C108.978 2.9929 108.678 3.0087 108.433 3.0877C108.235 3.1509 108.093 3.26941 107.919 3.36421C107.88 3.38791 107.793 3.36421 107.761 3.38791C107.698 3.43531 107.58 3.43529 107.619 3.56959C107.666 3.7276 107.643 3.7908 107.358 3.6249C107.2 3.5301 107.169 3.59331 107.153 3.65651C107.137 3.73551 107.177 3.86981 107.216 4.00412C107.264 4.16212 107.327 4.32012 107.09 4.22532C106.963 4.17002 106.971 4.27272 107.003 4.37542C107.121 4.80993 106.932 4.96793 106.695 5.07064C106.363 5.21284 105.999 5.30764 105.66 5.44194C105.525 5.49724 105.431 5.58413 105.328 5.65524C105.004 5.89224 104.799 6.24774 104.609 6.61905C104.57 6.69015 104.546 6.76916 104.435 6.77706C104.198 6.79286 104.103 6.95085 104.064 7.15625C104.017 7.40905 103.772 7.47226 103.527 7.52756C103.471 7.54336 103.377 7.52756 103.361 7.58286C103.266 7.96207 102.792 7.98576 102.61 8.28596C102.46 8.52296 102.413 8.85478 102.342 9.16289C102.286 9.39989 102.263 9.66849 102.223 9.9292C102.223 9.945 102.192 9.9371 102.184 9.9529C102.176 10.1109 102.492 10.4585 103.053 10.9009C103.55 11.2959 103.874 11.4855 103.938 11.3986C104.009 11.3038 104.048 11.1774 104.103 11.0589C104.135 11.0826 104.159 11.1063 104.182 11.13Z" fill="#87B1D9"/>
<path d="M115.741 11.13C115.741 10.893 115.781 10.6876 115.741 10.4111C115.702 10.1583 115.654 9.91339 115.923 9.94499C115.994 9.95289 115.986 9.8897 116.018 9.8581C116.073 9.8028 116.12 9.74749 116.191 9.70009C116.223 9.68429 116.341 9.74748 116.334 9.69218C116.278 9.42358 116.349 9.26559 116.634 9.31299C116.499 9.01279 116.744 9.07599 116.894 9.04439C117.052 9.01279 117.092 8.87848 117.345 8.94168C117.416 8.95748 117.455 8.94959 117.447 8.89429C117.4 8.57038 117.605 8.48348 117.795 8.38078C117.993 8.27018 118.087 8.04897 118.032 7.70136C118 7.51176 118.087 7.43275 118.174 7.34585C118.269 7.24315 118.435 7.19575 118.546 7.10885C118.712 6.98245 118.917 6.88765 119.209 6.88765C119.604 6.87975 119.96 6.83235 120.268 6.73755C120.426 6.69015 120.45 6.52426 120.513 6.38206C120.639 6.11345 120.718 5.79743 120.868 5.55253C120.979 5.36293 121.145 5.22862 121.326 5.10222C121.492 4.98372 121.721 4.92843 121.895 4.81783C122.409 4.49392 122.906 4.14633 123.42 3.81452C123.546 3.73552 123.696 3.68812 123.831 3.61702C123.894 3.57752 123.941 3.5301 123.989 3.4748C124.139 3.26149 124.273 3.0245 124.439 2.8191C124.676 2.52679 124.945 2.26608 125.182 1.96587C125.316 1.79997 125.427 1.61037 125.727 1.59457C125.814 1.59457 125.695 1.46028 125.403 1.21538C124.897 0.796672 124.376 0.354268 124.012 0.156766C123.768 0.0224637 123.578 -0.0644337 123.594 0.0619681C123.61 0.251571 123.301 0.14096 123.507 0.496465C123.538 0.543865 123.507 0.551771 123.475 0.551771C122.899 0.51227 122.82 0.946764 122.606 1.25487C122.535 1.35757 122.401 1.39709 122.306 1.46819C122.243 1.51559 122.188 1.57088 122.14 1.63408C122.069 1.72888 122.045 1.85527 121.943 1.91847C121.864 1.96588 121.721 1.94218 121.951 2.26608C121.998 2.33718 121.951 2.35299 121.872 2.29769C121.563 2.10019 121.548 2.1792 121.508 2.2345C121.398 2.3925 121.311 2.57418 121.176 2.70849C121.074 2.81119 120.939 2.8744 120.781 2.9218C120.536 2.9929 120.236 3.0087 119.991 3.0877C119.794 3.1509 119.652 3.26941 119.478 3.36421C119.438 3.38791 119.351 3.36421 119.32 3.38791C119.257 3.43531 119.138 3.43529 119.178 3.56959C119.225 3.7276 119.201 3.7908 118.917 3.6249C118.759 3.5301 118.727 3.59331 118.711 3.65651C118.696 3.73551 118.735 3.86981 118.775 4.00412C118.822 4.16212 118.885 4.32012 118.648 4.22532C118.522 4.17002 118.53 4.27272 118.561 4.37542C118.68 4.80993 118.49 4.96793 118.253 5.07064C117.921 5.21284 117.558 5.30764 117.218 5.44194C117.084 5.49724 116.989 5.58413 116.887 5.65524C116.563 5.89224 116.357 6.24774 116.168 6.61905C116.128 6.69015 116.104 6.76916 115.994 6.77706C115.757 6.79286 115.662 6.95085 115.623 7.15625C115.575 7.40905 115.33 7.47226 115.085 7.52756C115.03 7.54336 114.935 7.52756 114.919 7.58286C114.825 7.96207 114.351 7.98576 114.169 8.28596C114.019 8.52296 113.971 8.85478 113.9 9.16289C113.845 9.39989 113.821 9.66849 113.782 9.9292C113.782 9.945 113.75 9.9371 113.742 9.9529C113.734 10.1109 114.05 10.4585 114.611 10.9009C115.109 11.2959 115.433 11.4855 115.496 11.3986C115.567 11.3038 115.607 11.1774 115.662 11.0589C115.694 11.0826 115.717 11.1063 115.741 11.13Z" fill="#87B1D9"/>
<path d="M128.288 11.1295C128.288 10.8925 128.327 10.6871 128.288 10.4106C128.248 10.1578 128.201 9.9129 128.47 9.9445C128.541 9.9524 128.533 9.88921 128.564 9.85761C128.62 9.80231 128.667 9.747 128.738 9.6996C128.77 9.6838 128.888 9.74699 128.88 9.69169C128.825 9.42309 128.896 9.2651 129.181 9.3125C129.046 9.0123 129.291 9.0755 129.441 9.0439C129.599 9.0123 129.639 8.87799 129.892 8.9412C129.963 8.957 130.002 8.9491 129.994 8.8938C129.947 8.56989 130.152 8.483 130.342 8.38029C130.539 8.26969 130.634 8.04848 130.579 7.70087C130.547 7.51127 130.634 7.43226 130.721 7.34536C130.816 7.24266 130.982 7.19527 131.092 7.10836C131.258 6.98196 131.464 6.88716 131.756 6.88716C132.151 6.87926 132.507 6.83186 132.815 6.73706C132.973 6.68966 132.996 6.52377 133.06 6.38157C133.186 6.11296 133.265 5.79695 133.415 5.55204C133.526 5.36244 133.692 5.22813 133.873 5.10173C134.039 4.98323 134.268 4.92794 134.442 4.81734C134.956 4.49343 135.453 4.14584 135.967 3.81403C136.093 3.73503 136.243 3.68763 136.378 3.61653C136.441 3.57703 136.488 3.52961 136.536 3.47431C136.686 3.26101 136.82 3.02401 136.986 2.81861C137.223 2.52631 137.492 2.26559 137.729 1.96539C137.863 1.79948 137.973 1.60988 138.274 1.59408C138.361 1.59408 138.242 1.45979 137.95 1.21489C137.444 0.796183 136.923 0.35378 136.559 0.156277C136.314 0.0219754 136.125 -0.064922 136.141 0.0614798C136.156 0.251082 135.848 0.140471 136.054 0.495976C136.085 0.543377 136.054 0.551283 136.022 0.551283C135.445 0.511782 135.366 0.946276 135.153 1.25438C135.082 1.35708 134.948 1.3966 134.853 1.4677C134.79 1.5151 134.734 1.57039 134.687 1.63359C134.616 1.7284 134.592 1.85479 134.49 1.91799C134.411 1.96539 134.268 1.94169 134.497 2.26559C134.545 2.33669 134.497 2.3525 134.418 2.2972C134.11 2.0997 134.095 2.17871 134.055 2.23401C133.944 2.39201 133.858 2.5737 133.723 2.708C133.621 2.8107 133.486 2.87392 133.328 2.92132C133.083 2.99242 132.783 3.00821 132.538 3.08721C132.341 3.15041 132.198 3.26892 132.025 3.36372C131.985 3.38742 131.898 3.36372 131.867 3.38742C131.803 3.43482 131.685 3.4348 131.724 3.56911C131.772 3.72711 131.748 3.79032 131.464 3.62441C131.306 3.52961 131.274 3.59282 131.258 3.65602C131.243 3.73502 131.282 3.86933 131.322 4.00363C131.369 4.16163 131.432 4.31963 131.195 4.22483C131.069 4.16953 131.077 4.27223 131.108 4.37493C131.227 4.80944 131.037 4.96745 130.8 5.07015C130.468 5.21235 130.105 5.30715 129.765 5.44145C129.631 5.49675 129.536 5.58365 129.433 5.65475C129.11 5.89175 128.904 6.24726 128.715 6.61856C128.675 6.68966 128.651 6.76867 128.541 6.77657C128.304 6.79237 128.209 6.95036 128.169 7.15576C128.122 7.40857 127.877 7.47177 127.632 7.52707C127.577 7.54287 127.482 7.52707 127.466 7.58238C127.372 7.96158 126.898 7.98527 126.716 8.28547C126.566 8.52248 126.518 8.85429 126.447 9.1624C126.392 9.3994 126.368 9.66801 126.329 9.92871C126.329 9.94451 126.297 9.93661 126.289 9.95241C126.281 10.1104 126.597 10.458 127.158 10.9004C127.656 11.2954 127.98 11.485 128.043 11.3981C128.114 11.3033 128.154 11.1769 128.209 11.0584C128.241 11.0821 128.264 11.1058 128.288 11.1295Z" fill="#87B1D9"/>
<path d="M139.632 11.13C139.632 10.893 139.671 10.6876 139.632 10.4111C139.592 10.1583 139.545 9.91339 139.813 9.94499C139.884 9.95289 139.877 9.8897 139.908 9.8581C139.963 9.8028 140.011 9.74749 140.082 9.70009C140.114 9.68429 140.232 9.74748 140.224 9.69218C140.169 9.42358 140.24 9.26559 140.524 9.31299C140.39 9.01279 140.635 9.07599 140.785 9.04439C140.943 9.01279 140.983 8.87848 141.235 8.94168C141.307 8.95748 141.346 8.94959 141.338 8.89429C141.291 8.57038 141.496 8.48348 141.686 8.38078C141.883 8.27018 141.978 8.04897 141.923 7.70136C141.891 7.51176 141.978 7.43275 142.065 7.34585C142.16 7.24315 142.326 7.19575 142.436 7.10885C142.602 6.98245 142.808 6.88765 143.1 6.88765C143.495 6.87975 143.85 6.83235 144.158 6.73755C144.316 6.69015 144.34 6.52426 144.403 6.38206C144.53 6.11345 144.609 5.79743 144.759 5.55253C144.869 5.36293 145.035 5.22862 145.217 5.10222C145.383 4.98372 145.612 4.92843 145.786 4.81783C146.299 4.49392 146.797 4.14633 147.311 3.81452C147.437 3.73552 147.587 3.68812 147.721 3.61702C147.785 3.57752 147.832 3.5301 147.879 3.4748C148.03 3.26149 148.164 3.0245 148.33 2.8191C148.567 2.52679 148.835 2.26608 149.072 1.96587C149.207 1.79997 149.317 1.61037 149.617 1.59457C149.704 1.59457 149.586 1.46028 149.294 1.21538C148.788 0.796672 148.267 0.354268 147.903 0.156766C147.658 0.0224637 147.469 -0.0644337 147.484 0.0619681C147.5 0.251571 147.192 0.14096 147.397 0.496465C147.429 0.543865 147.398 0.551771 147.366 0.551771C146.789 0.51227 146.71 0.946764 146.497 1.25487C146.426 1.35757 146.291 1.39709 146.197 1.46819C146.133 1.51559 146.078 1.57088 146.031 1.63408C145.96 1.72888 145.936 1.85527 145.833 1.91847C145.754 1.96588 145.612 1.94218 145.841 2.26608C145.889 2.33718 145.841 2.35299 145.762 2.29769C145.454 2.10019 145.438 2.1792 145.399 2.2345C145.288 2.3925 145.201 2.57418 145.067 2.70849C144.964 2.81119 144.83 2.8744 144.672 2.9218C144.427 2.9929 144.127 3.0087 143.882 3.0877C143.684 3.1509 143.542 3.26941 143.368 3.36421C143.329 3.38791 143.242 3.36421 143.21 3.38791C143.147 3.43531 143.029 3.43529 143.068 3.56959C143.116 3.7276 143.092 3.7908 142.808 3.6249C142.65 3.5301 142.618 3.59331 142.602 3.65651C142.586 3.73551 142.626 3.86981 142.665 4.00412C142.713 4.16212 142.776 4.32012 142.539 4.22532C142.413 4.17002 142.42 4.27272 142.452 4.37542C142.571 4.80993 142.381 4.96793 142.144 5.07064C141.812 5.21284 141.449 5.30764 141.109 5.44194C140.975 5.49724 140.88 5.58413 140.777 5.65524C140.453 5.89224 140.248 6.24774 140.058 6.61905C140.019 6.69015 139.995 6.76916 139.884 6.77706C139.647 6.79286 139.553 6.95085 139.513 7.15625C139.466 7.40905 139.221 7.47226 138.976 7.52756C138.921 7.54336 138.826 7.52756 138.81 7.58286C138.715 7.96207 138.241 7.98576 138.06 8.28596C137.909 8.52296 137.862 8.85478 137.791 9.16289C137.736 9.39989 137.712 9.66849 137.672 9.9292C137.672 9.945 137.641 9.9371 137.633 9.9529C137.625 10.1109 137.941 10.4585 138.502 10.9009C139 11.2959 139.324 11.4855 139.387 11.3986C139.458 11.3038 139.497 11.1774 139.553 11.0589C139.584 11.0826 139.608 11.1063 139.632 11.13Z" fill="#87B1D9"/>
<path d="M150.62 12.4735C150.62 12.2365 150.659 12.031 150.62 11.7545C150.58 11.5017 150.533 11.2568 150.802 11.2884C150.873 11.2963 150.865 11.2331 150.896 11.2015C150.952 11.1462 150.999 11.0909 151.07 11.0435C151.102 11.0277 151.22 11.0909 151.212 11.0356C151.157 10.767 151.228 10.609 151.513 10.6564C151.378 10.3562 151.623 10.4194 151.773 10.3878C151.931 10.3562 151.971 10.2219 152.224 10.2851C152.295 10.3009 152.334 10.293 152.326 10.2377C152.279 9.91381 152.484 9.82691 152.674 9.72421C152.872 9.61361 152.966 9.39242 152.911 9.04481C152.879 8.85521 152.966 8.7762 153.053 8.6893C153.148 8.5866 153.314 8.5392 153.425 8.4523C153.59 8.3259 153.796 8.2311 154.088 8.2311C154.483 8.2232 154.839 8.1758 155.147 8.081C155.305 8.0336 155.328 7.86768 155.392 7.72548C155.518 7.45688 155.597 7.14088 155.747 6.89598C155.858 6.70638 156.024 6.57207 156.205 6.44567C156.371 6.32717 156.6 6.27185 156.774 6.16125C157.288 5.83735 157.785 5.48975 158.299 5.15795C158.425 5.07895 158.575 5.03154 158.71 4.96044C158.773 4.92094 158.82 4.87355 158.868 4.81825C159.018 4.60494 159.152 4.36793 159.318 4.16253C159.555 3.87022 159.824 3.60953 160.061 3.30932C160.195 3.14342 160.306 2.95382 160.606 2.93802C160.693 2.93802 160.574 2.80371 160.282 2.5588C159.776 2.1401 159.255 1.69769 158.891 1.50019C158.646 1.37379 158.457 1.27899 158.473 1.40539C158.488 1.595 158.18 1.48441 158.386 1.83991C158.417 1.88732 158.386 1.8952 158.354 1.8952C157.777 1.8557 157.698 2.29021 157.485 2.59832C157.414 2.70102 157.28 2.74051 157.185 2.81161C157.122 2.85901 157.066 2.91431 157.019 2.97751C156.948 3.07231 156.924 3.19872 156.822 3.26192C156.743 3.30933 156.6 3.28563 156.829 3.60953C156.877 3.68063 156.829 3.69644 156.75 3.64114C156.442 3.44364 156.427 3.52262 156.387 3.57792C156.276 3.73593 156.19 3.91763 156.055 4.05194C155.953 4.15464 155.818 4.21783 155.66 4.26523C155.415 4.33633 155.115 4.35215 154.87 4.43115C154.673 4.49435 154.531 4.61283 154.357 4.70763C154.317 4.73133 154.23 4.70763 154.199 4.73133C154.136 4.77873 154.017 4.77875 154.057 4.92095C154.104 5.07896 154.08 5.14214 153.796 4.97624C153.638 4.88143 153.606 4.94464 153.59 5.00784C153.575 5.08684 153.614 5.22115 153.654 5.35545C153.701 5.51345 153.764 5.67145 153.527 5.57665C153.401 5.52135 153.409 5.62405 153.44 5.72676C153.559 6.16126 153.369 6.31927 153.132 6.42197C152.8 6.56417 152.437 6.65897 152.097 6.79328C151.963 6.84858 151.868 6.93547 151.765 7.00657C151.442 7.24357 151.236 7.59908 151.047 7.97038C151.007 8.04148 150.983 8.1205 150.873 8.1284C150.636 8.1442 150.541 8.30218 150.501 8.50759C150.454 8.76039 150.209 8.82359 149.964 8.87889C149.909 8.89469 149.814 8.8789 149.798 8.9342C149.704 9.3134 149.23 9.33712 149.048 9.63732C148.898 9.87432 148.85 10.2061 148.779 10.5142C148.724 10.7512 148.7 11.0198 148.661 11.2805C148.661 11.2963 148.629 11.2884 148.621 11.3042C148.613 11.4622 148.929 11.8098 149.49 12.2523C149.988 12.6473 150.312 12.8369 150.375 12.75C150.446 12.6552 150.486 12.5287 150.541 12.4102C150.565 12.426 150.596 12.4498 150.62 12.4735Z" fill="#87B1D9"/>
<path d="M125.637 33.0934C125.526 33.0855 125.408 33.0776 125.297 33.0618C124.918 33.0065 124.539 33.0539 124.167 33.0934C124.081 33.1013 124.002 33.0459 123.915 33.0538C123.749 33.0775 123.583 33.125 123.409 33.1566C123.377 33.1645 123.346 33.204 123.322 33.1408C123.18 32.7774 123.038 32.8879 122.895 32.88C122.745 32.8721 122.595 32.7537 122.445 32.6904C122.303 32.6351 122.161 32.3981 122.019 32.8089C121.971 32.9432 121.908 32.8484 121.861 32.7378C121.774 32.5561 121.695 32.5878 121.608 32.6747C121.418 32.8722 121.229 32.5956 121.031 32.6588C120.968 32.6825 120.897 32.7141 120.834 32.7378C120.81 32.7457 120.786 32.801 120.762 32.7615C120.604 32.4692 120.454 32.7379 120.296 32.6431C120.059 32.5008 119.814 32.7615 119.577 32.801C119.214 32.8721 118.843 32.8405 118.479 32.8563C118.282 32.8642 118.084 32.8722 117.887 32.888C117.618 32.9117 117.35 32.959 117.081 32.9748C116.994 32.9748 116.899 32.888 116.812 32.8485C116.575 32.7458 116.331 33.0775 116.093 32.9511C115.912 32.8563 115.73 32.9195 115.556 32.9748C115.493 32.9906 115.438 33.0539 115.375 33.0618C115.185 33.0855 114.987 33.1092 114.798 33.1092C114.577 33.1092 114.355 33.0776 114.134 33.0697C113.881 33.0539 113.629 33.0617 113.376 33.0301C113.091 32.9985 112.799 32.9907 112.515 32.888C112.041 32.722 111.567 32.8485 111.093 32.8485C110.935 32.8485 110.785 32.9038 110.627 33.0934C110.461 33.2988 110.295 33.1961 110.129 33.0934C109.876 32.9433 109.623 32.9749 109.378 33.1092C109.197 33.204 109.023 33.2988 108.841 33.3146C108.699 33.3225 108.557 33.1961 108.415 33.1566C108.359 33.1408 108.304 33.1802 108.257 33.2197C108.043 33.3856 107.83 33.7254 107.617 33.6701C107.593 33.6622 107.569 33.7254 107.546 33.7491C107.309 33.9466 107.072 34.1441 106.827 34.3179C106.763 34.3574 106.708 34.2863 106.645 34.2942C106.629 34.2942 106.605 34.4364 106.605 34.468C106.613 34.6418 106.621 34.863 106.637 34.942C106.661 35.0526 106.692 35.0921 106.724 35.1C106.866 35.1079 107.016 35.0921 107.158 35.0921C107.222 35.0921 107.277 35.1079 107.34 35.1C107.498 35.0921 107.664 35.0763 107.822 35.0763C108.13 35.0763 108.43 35.0526 108.738 35.0921C109.236 35.1553 109.734 35.0684 110.232 35.0368C110.334 35.0289 110.437 35.1237 110.54 35.1158C111.448 35.0289 112.357 35.2185 113.257 35.179C113.55 35.1632 113.85 35.0842 114.142 35.0684C114.569 35.0526 114.995 35.0921 115.422 35.0763C115.849 35.0605 116.275 35.0131 116.702 34.9815C117.144 34.9499 117.579 34.9183 118.021 34.8946C118.456 34.8788 118.89 34.8946 119.317 34.8709C119.941 34.8393 120.565 34.7682 121.189 34.7445C121.41 34.7366 121.631 34.8472 121.853 34.863C122.066 34.8788 122.271 34.8472 122.485 34.8393C122.524 34.8393 122.572 34.8156 122.611 34.8235C122.895 34.863 123.188 34.9262 123.472 34.942C123.938 34.9657 124.397 34.9973 124.863 34.9262C125.234 34.863 125.605 34.9183 125.977 34.9183C126.166 34.9183 126.364 34.9262 126.553 34.9025C126.609 34.8946 126.656 34.7919 126.711 34.6655C126.743 34.5786 126.774 34.3811 126.767 34.0335C126.759 33.7096 126.735 33.5516 126.695 33.5121C126.553 33.3778 126.411 33.1802 126.269 33.1249C126.063 33.0538 125.858 33.0934 125.661 33.0934C125.637 33.1013 125.637 33.0934 125.637 33.0934Z" fill="#87B1D9"/>
<path d="M111.032 40.6132C111.111 40.5421 111.19 40.471 111.276 40.4078C111.561 40.1866 111.774 39.9022 111.995 39.6099C112.043 39.5467 112.138 39.5308 112.185 39.4676C112.28 39.3412 112.351 39.1911 112.438 39.0568C112.454 39.0331 112.438 38.9778 112.509 39.0094C112.864 39.1675 112.88 38.9936 112.975 38.8988C113.078 38.804 113.259 38.7803 113.402 38.725C113.536 38.6697 113.797 38.7329 113.591 38.3537C113.528 38.2273 113.631 38.251 113.741 38.2905C113.923 38.3616 113.955 38.2747 113.947 38.1641C113.923 37.8955 114.255 37.9587 114.334 37.7849C114.365 37.7296 114.381 37.6585 114.405 37.5953C114.413 37.5716 114.389 37.5163 114.436 37.5321C114.752 37.6269 114.658 37.3346 114.824 37.2951C115.084 37.2319 115.053 36.8843 115.171 36.6947C115.361 36.3945 115.622 36.1654 115.843 35.9047C115.969 35.7625 116.088 35.6203 116.206 35.4781C116.364 35.2727 116.498 35.0594 116.672 34.8698C116.728 34.8066 116.854 34.8066 116.941 34.775C117.17 34.6802 117.083 34.2852 117.328 34.2141C117.518 34.1588 117.589 33.9929 117.66 33.827C117.683 33.7717 117.676 33.6927 117.707 33.6453C117.81 33.4952 117.92 33.353 118.047 33.2187C118.189 33.0686 118.355 32.9343 118.505 32.7842C118.679 32.6183 118.837 32.4444 119.019 32.2864C119.224 32.1047 119.421 31.9151 119.682 31.7887C120.109 31.5754 120.322 31.1567 120.622 30.8249C120.725 30.7143 120.78 30.5721 120.733 30.3351C120.693 30.0823 120.875 30.0349 121.049 29.9875C121.317 29.9164 121.46 29.711 121.515 29.4503C121.554 29.2607 121.594 29.0711 121.697 28.9368C121.776 28.8262 121.965 28.8104 122.084 28.7314C122.131 28.6998 122.139 28.6445 122.139 28.5734C122.147 28.3048 122.021 27.9335 122.194 27.815C122.21 27.7992 122.179 27.7439 122.179 27.7123C122.171 27.42 122.163 27.104 122.131 26.8512C122.123 26.8275 122.147 26.8038 122.163 26.8038L122.187 26.7959C122.147 26.7722 122.313 26.8828 122.392 26.8986C122.4 26.8986 122.431 26.9065 122.479 26.9223C122.503 26.9302 122.503 26.9381 122.526 26.946C122.558 26.9539 122.574 26.9302 122.574 26.9302C122.558 26.9381 122.534 26.9618 122.487 26.9223C122.4 26.9065 122.305 26.8749 122.218 26.8196C122.139 26.7643 121.934 26.6774 121.815 26.5984C121.728 26.551 121.641 26.4957 121.562 26.4404L121.499 26.4009L121.491 26.4167L121.46 26.4641L121.373 26.5984L121.27 26.709C121.183 26.8196 121.104 26.9381 121.009 27.0487C120.828 27.262 120.662 27.4832 120.441 27.6728C120.085 27.973 119.84 28.3759 119.556 28.7472C119.5 28.8262 119.358 28.8262 119.303 28.9052C118.797 29.5925 118.078 30.0902 117.525 30.738C117.344 30.9513 117.217 31.212 117.036 31.4174C116.775 31.7176 116.475 31.9862 116.206 32.2864C115.945 32.5867 115.701 32.9106 115.448 33.2266C115.187 33.5505 114.926 33.8744 114.658 34.1825C114.389 34.4906 114.097 34.775 113.836 35.0831C113.457 35.5334 113.101 36.0074 112.714 36.4498C112.58 36.6078 112.351 36.6789 112.193 36.8211C112.043 36.9554 111.932 37.1134 111.806 37.2714C111.782 37.303 111.766 37.3425 111.735 37.3662C111.521 37.5321 111.284 37.6822 111.087 37.8718C110.771 38.172 110.439 38.4643 110.194 38.8277C109.997 39.12 109.712 39.3412 109.475 39.594C109.349 39.7284 109.215 39.8469 109.112 39.997C109.08 40.0365 109.12 40.1471 109.175 40.2656C109.215 40.3446 109.333 40.5026 109.594 40.7396C109.831 40.9608 109.965 41.0477 110.02 41.0477C110.21 41.0477 110.447 41.0872 110.573 41.024C110.755 40.9371 110.858 40.7633 111 40.629L111.032 40.6132Z" fill="#87B1D9"/>
<path d="M109.916 28.3672C109.987 28.4541 110.058 28.5331 110.121 28.6279C110.334 28.9281 110.619 29.1572 110.903 29.3863C110.966 29.4337 110.982 29.5364 111.045 29.5838C111.172 29.6866 111.322 29.7655 111.456 29.8603C111.48 29.8761 111.535 29.8682 111.504 29.9393C111.338 30.2869 111.512 30.3107 111.606 30.4134C111.701 30.524 111.717 30.7057 111.772 30.8558C111.828 30.9901 111.749 31.2508 112.136 31.0691C112.262 31.0059 112.238 31.1165 112.191 31.2271C112.12 31.4088 112.199 31.4404 112.317 31.4404C112.586 31.4325 112.515 31.7564 112.689 31.8512C112.744 31.8828 112.815 31.9065 112.878 31.9302C112.902 31.9381 112.957 31.9144 112.941 31.9618C112.831 32.2699 113.131 32.1988 113.163 32.3647C113.218 32.6333 113.566 32.6175 113.755 32.7518C114.047 32.9572 114.269 33.2337 114.521 33.4707C114.656 33.605 114.798 33.7393 114.94 33.8578C115.138 34.0237 115.351 34.1817 115.533 34.3634C115.596 34.4266 115.588 34.553 115.62 34.6399C115.706 34.8769 116.101 34.8137 116.165 35.0665C116.212 35.2561 116.378 35.3351 116.536 35.422C116.591 35.4536 116.67 35.4457 116.718 35.4852C116.86 35.6037 117.002 35.7222 117.129 35.8565C117.271 36.0145 117.397 36.1883 117.539 36.3463C117.697 36.528 117.863 36.7018 118.013 36.8993C118.179 37.1205 118.361 37.326 118.479 37.6025C118.669 38.0449 119.072 38.2898 119.38 38.6216C119.483 38.7322 119.625 38.7954 119.862 38.7796C120.115 38.7559 120.154 38.9455 120.186 39.1272C120.233 39.4037 120.423 39.5617 120.684 39.6486C120.865 39.7118 121.055 39.7671 121.181 39.8856C121.284 39.9804 121.276 40.1621 121.339 40.2964C121.363 40.3438 121.418 40.3596 121.489 40.3675C121.75 40.407 122.137 40.3359 122.232 40.5334C122.24 40.5571 122.303 40.5334 122.335 40.5334C122.635 40.5887 122.927 40.6203 123.22 40.7388C123.299 40.7862 123.267 40.8415 123.346 41.0074C123.354 41.0153 123.362 41.0232 123.378 41.039C123.401 41.0548 123.433 41.1575 123.441 41.2286C123.464 41.3866 123.425 41.513 123.449 41.513C123.543 41.5209 123.67 41.5209 123.788 41.4103C123.852 41.355 123.907 41.2839 123.938 41.1812C123.978 41.1022 123.978 40.9126 123.986 40.881C124.017 40.802 124.025 40.7072 124.01 40.6124C123.986 40.5176 124.002 40.5176 123.978 40.4781C123.82 40.2095 123.725 40.1384 123.622 40.0041L123.512 39.854L123.18 39.4906C122.982 39.2615 122.769 39.0482 122.595 38.8033C122.319 38.4004 121.924 38.1002 121.576 37.7684C121.505 37.6973 121.505 37.563 121.434 37.4998C120.77 36.9151 120.32 36.1488 119.688 35.5405C119.483 35.343 119.23 35.1929 119.025 34.9954C118.732 34.711 118.472 34.3871 118.179 34.0948C117.887 33.8104 117.571 33.5418 117.263 33.2732C116.947 32.9888 116.631 32.7123 116.331 32.42C116.03 32.1277 115.754 31.8196 115.454 31.5352C115.011 31.1244 114.545 30.7452 114.111 30.3265C113.961 30.1764 113.889 29.9473 113.755 29.7814C113.629 29.6234 113.463 29.5048 113.313 29.3626C113.281 29.3389 113.242 29.3152 113.218 29.2836C113.052 29.0624 112.91 28.8175 112.728 28.6042C112.436 28.2724 112.151 27.9248 111.788 27.6562C111.496 27.4429 111.282 27.1506 111.038 26.8899C110.911 26.7556 110.785 26.6134 110.635 26.5028C110.595 26.4712 110.485 26.5028 110.358 26.5581C110.279 26.5897 110.113 26.7082 109.868 26.961C109.639 27.1901 109.544 27.3244 109.544 27.3718C109.544 27.5614 109.497 27.7984 109.56 27.9327C109.647 28.1223 109.813 28.2329 109.947 28.3751L109.916 28.3672Z" fill="#87B1D9"/>
</svg>
