<svg width="48" height="55" viewBox="0 0 48 55" fill="none" xmlns="http://www.w3.org/2000/svg">
<path d="M0 50.8805C0.265152 49.7934 0.450763 48.693 0.821976 47.6192C1.15342 46.6514 1.49812 45.7101 1.12691 44.729C1.0341 44.4771 1.11365 44.1987 1.11365 43.9335C1.11365 43.4562 1.11365 42.9657 1.07387 42.4884C1.06062 42.2631 0.835233 42.0377 0.914779 41.8388C1.28599 40.8445 1.39206 39.8369 0.981071 38.8426C1.48486 38.0604 1.1269 37.2915 0.967811 36.5093C0.808719 35.7271 0.914778 34.9184 0.530307 34.1494C0.424246 33.9373 0.384479 33.7119 0.464025 33.4998C0.888269 32.227 0.729171 30.9676 0.62311 29.6948C0.503791 28.3293 0.636371 26.9638 1.11365 25.6115C1.36554 24.8824 1.35228 24.1266 1.35228 23.3842C1.35228 22.4959 1.20645 21.6209 1.16668 20.7327C1.08713 19.3937 1.00759 18.0546 0.92804 16.6759C0.821979 14.78 1.1269 12.7914 1.86933 10.9221C2.06819 10.458 2.33335 10.0205 2.63827 9.60956L3.65911 8.46938C5.07767 6.99779 6.74813 5.87091 8.47162 4.92962C9.74435 4.18719 11.1099 3.59061 12.4887 3.03379C13.7879 2.58303 15.127 2.09248 16.5455 1.93339C17.0493 1.88036 17.6194 1.81409 18.0834 1.78757L19.4622 1.70803L22.2198 1.54894L27.7217 1.23073C28.61 1.1777 29.485 1.04512 30.36 0.978836C30.7975 0.939064 31.2482 0.939091 31.6857 0.965607C33.3164 1.03189 34.9471 1.15119 36.591 1.19096L43.6176 1.29705C44.9433 1.33682 46.2691 1.42962 47.5949 1.08492C47.9661 0.992115 48.0854 1.28379 47.9396 1.92015C47.6877 3.02054 47.4888 4.17392 46.8524 4.82354C46.4149 5.26104 46.0172 5.60577 45.4869 5.43342C44.718 5.19478 43.896 5.69857 43.127 5.02243C43.021 4.92963 42.8619 4.95612 42.7293 4.9959C40.4357 5.73832 38.1422 5.31408 35.8486 5.20802C35.0929 5.16825 34.3505 5.28759 33.5948 5.3141C33.1043 5.32736 32.627 5.32736 32.1365 5.3141C31.4338 5.28759 30.7179 5.16826 30.0153 5.22129C29.4849 5.26106 28.9679 5.45993 28.4906 4.81031C28.3846 4.67773 28.1062 4.70426 28.0134 4.86335C27.6289 5.45994 27.1914 5.39363 26.7539 5.38037C25.5607 5.32735 24.3808 5.20802 23.1876 5.20802C22.3126 5.20802 21.4243 5.30084 20.5493 5.43342C19.2103 5.6588 17.7387 5.9637 16.6383 6.24212L15.1932 6.61332C14.716 6.7459 14.2652 6.93153 13.8144 7.09062C13.6156 7.19668 13.4432 7.39552 13.2444 7.47506C12.8599 7.63416 12.5285 7.91257 12.1042 7.89931C11.6269 7.8728 11.269 7.9656 11.2159 8.64174C11.1762 9.01295 10.8845 9.15882 10.6194 9.25162C10.3012 9.41071 9.89019 9.45049 9.4792 9.50352C8.98867 9.56981 8.5114 9.68912 8.44511 10.2857C8.40534 10.5906 8.10041 10.7762 7.79549 10.8823C7.10609 11.1077 6.62882 11.5717 6.17806 12.0622C5.80684 12.6058 5.4754 13.1758 5.2898 13.8255C4.71972 15.5357 4.61366 17.3122 4.77275 18.9959C4.81252 19.3274 4.81252 19.6323 4.82577 19.9903L4.87881 21.1835C5.01138 23.6627 4.85229 26.1285 4.66669 28.6077C4.62692 29.0982 4.57388 29.5888 4.6932 30.0661C4.97161 31.1664 4.90532 32.2668 4.70646 33.3805C4.48108 34.7062 4.70646 36.032 4.9451 37.3578C4.99813 37.6627 5.1307 37.9809 5.09093 38.2858C4.78601 40.407 5.32956 42.5282 5.21025 44.6494C5.11744 46.3597 4.79927 48.0699 4.53411 49.7934C4.32199 51.1192 4.04358 52.4317 3.80494 53.7574C3.79168 53.8502 3.84472 53.9298 3.8182 54.0226C3.64585 54.7783 2.86365 55.0169 1.67046 54.659C0.609853 54.3408 2.83243e-06 53.8502 0.0132605 53.1741C0.0397757 52.4184 0.132575 51.676 0.185606 50.9203L0 50.8805Z" fill="#8ED6C7"/>
</svg>
