<svg width="148" height="203" viewBox="0 0 148 203" fill="none" xmlns="http://www.w3.org/2000/svg">
<path d="M101.236 78.1528C104.279 76.327 98.4765 42.0238 106.713 41.6267C112.103 41.3636 112.103 65.8055 112.103 65.8055C112.103 65.8055 113.841 40.2754 120.603 40.2754C124.713 40.2754 122.975 65.8055 122.975 65.8055C122.975 65.8055 130.784 42.684 134.889 43.3648C140.109 44.2364 134.281 67.9769 134.281 67.9769C134.281 67.9769 142.595 55.4697 144.802 56.4961C148.541 58.2342 144.395 67.9821 141.847 79.4577C140.098 87.3334 138.67 88.8393 137.844 89.9792C132.15 97.9116 121.16 97.6383 118.101 97.6331C115.043 97.6279 105.95 97.4835 98.2702 90.7631C97.0633 89.7058 91.9831 85.064 90.0077 77.3689C88.904 73.0674 88.6049 67.1362 90.2708 66.4967C94.7991 64.7586 98.5384 79.107 101.236 78.1528Z" fill="#CFE2F4"/>
<path d="M101.37 64.9083C101.391 61.1588 101.391 57.3628 101.701 53.639C101.845 51.9782 102.031 50.3381 102.299 48.698C102.582 47.0631 102.887 45.4126 103.578 43.7931C103.944 42.9731 104.558 42.1014 105.476 41.6372C105.894 41.4309 106.342 41.3226 106.817 41.3175C107.307 41.3175 107.787 41.5187 108.148 41.8075C108.875 42.3954 109.293 43.1742 109.654 43.9427C109.973 44.6493 110.314 45.392 110.479 46.0831C111.263 49.4974 111.598 52.9118 112.052 56.3519C112.072 59.0596 112.341 61.7003 112.454 64.4132C112.475 64.8722 112.485 65.3312 112.495 65.8006L111.717 65.7748C111.856 63.5106 112.114 61.2465 112.289 59.0184C112.346 58.3066 112.449 57.4917 112.583 56.7851C113.001 54.6292 113.429 52.4785 113.95 50.3381C114.476 48.1977 115.064 46.0573 115.992 43.9995C116.425 43.0711 116.921 42.153 117.622 41.3381C118.313 40.5387 119.288 39.7857 120.567 39.7702C121.047 39.7547 121.485 40.0126 121.8 40.3582C122.083 40.6779 122.259 41.0184 122.403 41.3588C122.687 42.0344 122.852 42.7204 122.986 43.4012C123.239 44.7628 123.347 46.1192 123.409 47.4757C123.512 49.9771 123.569 52.592 123.558 55.1502C123.548 58.1983 123.507 61.2413 123.357 64.2843C123.332 64.8 123.301 65.3158 123.275 65.8264L122.687 65.7078C123.935 62.0046 125.255 58.3582 126.663 54.7324C127.535 52.4992 128.468 50.2814 129.572 48.1101C130.129 47.027 130.722 45.9541 131.455 44.9175C131.826 44.4017 132.213 43.8911 132.729 43.4167C132.987 43.1794 133.27 42.9473 133.642 42.7565C133.992 42.5656 134.534 42.4109 135.034 42.4934C135.911 42.6224 136.602 43.2464 136.953 43.8447C137.334 44.4481 137.52 45.0567 137.67 45.6499C138.046 47.2694 138.051 48.8476 138 50.4103C137.938 51.9679 137.773 53.51 137.577 55.0315C136.989 59.4774 136.076 63.8253 135.008 68.1628L133.647 67.5645C134.585 66.1977 135.545 64.8671 136.535 63.5415C137.654 62.051 138.794 60.5759 140.032 59.1576C140.656 58.451 141.295 57.7547 142.017 57.0997C142.384 56.7748 142.755 56.455 143.224 56.1714C143.333 56.0992 143.462 56.0321 143.601 55.9702C143.75 55.8877 143.926 55.8361 144.101 55.7949C144.271 55.7382 144.452 55.7587 144.627 55.7433C144.715 55.7536 144.797 55.7845 144.885 55.8051C144.926 55.8155 144.968 55.831 145.014 55.831L145.138 55.8825C146.376 56.486 146.747 57.6052 146.928 58.5542C147.113 59.7456 147.02 60.8648 146.881 61.9582C146.742 63.0516 146.536 64.1141 146.309 65.1662C145.85 67.2705 145.313 69.3387 144.777 71.3966C143.972 74.4551 143.214 77.4722 142.554 80.5719C142.203 82.1295 141.806 83.682 141.311 85.2293C140.811 86.7662 140.217 88.3341 139.243 89.7834L138.882 90.294C138.763 90.4591 138.67 90.5983 138.526 90.7685L137.742 91.7537C137.494 92.0941 137.18 92.3777 136.886 92.6769C136.581 92.9657 136.308 93.2906 135.973 93.5485C134.704 94.6574 133.265 95.5393 131.775 96.282C130.263 96.9835 128.695 97.5198 127.097 97.917C125.498 98.3038 123.873 98.541 122.254 98.6854C120.696 98.8195 119.123 98.8505 117.607 98.8557C116.049 98.8608 114.476 98.7783 112.913 98.5771C111.356 98.376 109.798 98.0562 108.282 97.6127C105.476 96.7668 102.758 95.5497 100.318 93.8889C99.1011 93.0534 97.951 92.1456 96.8627 91.1399C95.7899 90.1238 94.81 89.0304 93.9126 87.87C91.5298 84.8167 89.7555 81.2682 88.8066 77.4877C88.3424 75.6 88.0535 73.702 87.9452 71.7576C87.8936 70.7828 87.8885 69.8029 88.002 68.7714C88.069 68.2556 88.1464 67.7295 88.3475 67.157C88.4507 66.8682 88.5693 66.5794 88.8169 66.2235C89.0747 65.8573 89.4306 65.5685 89.8432 65.3983C90.1527 65.3107 90.3538 65.2333 90.6014 65.2075C90.8438 65.192 91.0965 65.1508 91.3338 65.1972C91.571 65.223 91.8186 65.2539 92.0249 65.3364L92.3498 65.4447C92.453 65.486 92.5458 65.5376 92.6386 65.584C93.3349 65.9399 93.861 66.3989 94.3097 66.8682C94.7533 67.3427 95.1452 67.8275 95.496 68.3278C96.2077 69.3181 96.7957 70.3342 97.3733 71.3347C97.951 72.3405 98.4977 73.341 99.065 74.3004C99.3487 74.7749 99.6375 75.2493 99.9418 75.6774C100.236 76.1003 100.561 76.5181 100.85 76.7605C100.886 76.7914 100.922 76.8224 100.958 76.8533C100.989 76.8791 101.009 76.8791 101.03 76.8997C101.046 76.9101 101.076 76.9462 101.071 76.9359L101.046 77.0029C101.03 77.0545 101.015 77.106 101.004 77.1525C100.994 77.1937 100.989 77.1937 100.978 77.2143C100.963 77.2505 100.958 77.2918 100.958 77.3279C100.958 77.4465 100.958 77.3743 100.953 77.3794C100.942 77.3743 100.942 77.3588 100.958 77.3898C100.958 77.3898 100.963 77.4155 100.958 77.4C100.958 77.3742 100.958 77.3433 100.958 77.3279C100.953 77.3536 100.948 77.3794 100.932 77.4103C100.896 77.4568 100.829 77.4774 100.752 77.5084C100.669 77.5187 100.571 77.5084 100.463 77.5032C100.354 77.4774 100.241 77.4413 100.117 77.3949C99.622 77.1783 99.0392 76.6935 98.3584 75.8218C97.4352 74.6356 96.677 73.4597 95.8209 71.8453C95.1968 70.6746 94.4696 69.5192 93.6289 68.5032C93.206 68.0029 92.7521 67.5284 92.2518 67.1828C91.7515 66.8321 91.2048 66.6104 90.6323 66.6929C90.5653 66.7032 90.4931 66.7187 90.4054 66.7393C90.1424 66.8063 89.9412 67.0745 89.8277 67.3685C89.5028 68.2092 89.4616 69.1995 89.4564 70.1536C89.4616 71.1181 89.5389 72.0877 89.6472 73.0522C89.8845 74.9811 90.261 76.8998 90.8541 78.741C92.0455 82.4287 94.0621 85.8688 96.6977 88.7365C97.5538 89.6803 98.5028 90.5261 99.5137 91.3049C100.514 92.0941 101.587 92.7852 102.686 93.4247C104.125 94.2241 105.625 94.9256 107.178 95.4826C109.437 96.2769 111.799 96.8442 114.187 97.0659C115.992 97.2516 117.746 97.1691 119.401 97.4115C119.747 97.4631 120.706 97.427 121.036 97.3445C122.31 97.0453 123.796 96.9422 125.266 96.6791C127.246 96.3387 129.201 95.792 131.021 94.9617C132.842 94.1364 134.529 93.0069 135.926 91.5886C136.478 91.0986 136.896 90.4797 137.365 89.9175C137.835 89.3089 138.247 88.721 138.593 88.0763C139.279 86.7869 139.753 85.3634 140.166 83.9347C140.811 81.7066 141.213 79.4322 141.708 77.1215C142.208 74.8264 142.765 72.5467 143.338 70.2774C143.812 68.3794 144.307 66.4866 144.72 64.5937C144.926 63.6499 145.107 62.7009 145.231 61.7674C145.349 60.839 145.427 59.8952 145.313 59.0596C145.267 58.678 145.169 58.3221 145.024 58.059C144.993 57.9817 144.952 57.9301 144.911 57.8734C144.875 57.8115 144.834 57.7599 144.787 57.7187C144.71 57.6207 144.581 57.5433 144.56 57.5227L144.529 57.5072C144.488 57.4814 144.442 57.4865 144.395 57.4917C144.338 57.5072 144.354 57.5072 144.204 57.5846C143.946 57.7393 143.663 57.9507 143.384 58.1931C142.822 58.6728 142.281 59.2246 141.754 59.7404C140.553 60.9318 139.697 61.9788 138.897 63.3662C138.448 64.145 137.597 65.2745 136.911 66.2029C136.318 66.9972 135.725 67.7914 135.137 68.5702L133.239 67.7347C133.373 67.2705 133.507 66.8115 133.642 66.3525C134.116 64.6711 134.544 63.0877 134.735 61.2104C134.838 60.2046 135.127 58.8379 135.354 57.7187C135.854 55.2533 136.22 52.7416 136.313 50.235C136.354 48.9868 136.329 47.7284 136.128 46.537C136.024 45.949 135.875 45.3713 135.632 44.9123C135.395 44.4378 135.075 44.1645 134.761 44.1284C134.756 44.1284 134.756 44.1284 134.75 44.1284C134.652 44.1181 134.591 44.1335 134.472 44.1748C134.358 44.2109 134.219 44.3037 134.085 44.3965C133.812 44.5977 133.538 44.8814 133.281 45.1805C132.765 45.7891 132.301 46.4957 131.867 47.2178C131.001 48.6722 130.248 50.2195 129.531 51.7874C128.113 54.9284 126.864 58.1673 125.689 61.4269C125.121 63.0052 124.554 64.5989 124.023 66.1822L121.82 65.7439C121.882 64.7175 121.934 63.6705 121.975 62.6287C122.125 58.7708 122.207 54.9129 122.109 51.0808C122.052 49.1674 121.954 47.2539 121.717 45.3972C121.593 44.4739 121.439 43.5507 121.191 42.7255C121.067 42.318 120.918 41.9158 120.748 41.6527C120.706 41.5805 120.665 41.529 120.629 41.4826C120.577 41.4258 120.603 41.4515 120.583 41.4258C120.557 41.4051 120.521 41.3897 120.479 41.3845L120.376 41.3897C120.319 41.4 120.263 41.4103 120.211 41.4155C120.098 41.4464 119.989 41.4774 119.876 41.5341C119.649 41.6373 119.417 41.792 119.195 41.988C118.705 42.4212 118.251 43.0401 117.875 43.7054C117.493 44.3759 117.168 45.1032 116.905 45.8407C116.286 47.5582 115.812 49.353 115.378 51.1633C114.95 52.9788 114.584 54.8149 114.249 56.6613C113.702 59.7146 113.357 62.8247 113.171 65.8883L110.984 65.8161C110.953 64.4132 110.886 62.9846 110.804 61.5765C110.742 60.5295 110.633 59.4671 110.587 58.4356C110.401 54.8253 110.035 51.2046 109.225 47.7748C109.019 46.9238 108.777 46.0882 108.483 45.3043C108.189 44.5306 107.817 43.7776 107.405 43.3135C107.199 43.0762 107.008 42.9628 106.899 42.937C106.827 42.9215 106.817 42.9112 106.693 42.9266C106.564 42.937 106.451 42.9679 106.342 42.9989C105.909 43.133 105.471 43.6075 105.105 44.2573C104.522 45.3301 104.161 46.6968 103.898 48.0688C103.64 49.4561 103.475 50.8848 103.351 52.3238C103.114 55.2069 103.052 58.1364 103.036 61.0711C103.036 63.3456 103.036 65.6149 103.031 67.8843C103.021 70.1639 103.021 72.4436 102.84 74.7593C102.815 75.0636 102.809 75.3886 102.768 75.6929C102.603 77.0184 102.247 77.9777 101.721 78.3284C101.458 78.4883 101.324 78.4522 101.34 78.3336C101.35 78.2098 101.453 78.0035 101.468 77.694C101.51 77.1473 101.463 76.482 101.448 75.6465C101.427 74.8109 101.417 73.8207 101.438 72.6654C101.479 70.1124 101.443 67.5336 101.412 64.9496L101.37 64.9083Z" fill="#87B1D9"/>
<path d="M28.6388 57.6731C28.7935 57.7247 28.9327 57.7453 29.1029 57.833C29.2525 57.9155 29.4021 57.9981 29.4485 57.8227C29.464 57.7763 29.5001 57.7969 29.531 57.7866C29.5826 57.766 29.6342 57.7454 29.6806 57.7144C29.7012 57.6989 29.6961 57.6112 29.727 57.6267C29.8869 57.7195 30.0055 57.7144 30.0519 57.5236C30.2067 57.6731 30.2376 57.5081 30.2943 57.4204C30.3511 57.3327 30.4542 57.3379 30.48 57.1625C30.4852 57.1161 30.5058 57.0903 30.5368 57.1109C30.7327 57.2089 30.8411 57.1058 30.9597 57.0078C31.0886 56.9098 31.2485 56.8995 31.46 57.013C31.5734 57.0749 31.6508 57.0388 31.7282 57.0027C31.821 56.9666 31.8932 56.8737 31.9809 56.8222C32.1098 56.7499 32.2233 56.6416 32.3058 56.4611C32.4141 56.2187 32.5431 56.0072 32.6875 55.837C32.7597 55.7494 32.8783 55.77 32.9814 55.7648C33.1878 55.7493 33.4095 55.7648 33.6107 55.7287C33.7602 55.703 33.8944 55.6307 34.0233 55.5482C34.1419 55.4708 34.2451 55.3419 34.3637 55.2594C34.7144 55.0118 35.0703 54.7797 35.421 54.5373C35.5035 54.4806 35.5809 54.3929 35.6582 54.3258C35.6995 54.2949 35.7459 54.2743 35.7923 54.2639C35.9729 54.2175 36.1585 54.1866 36.3391 54.1298C36.5918 54.0473 36.8342 53.9391 37.0869 53.8565C37.2313 53.8101 37.3809 53.7843 37.4686 53.6038C37.4944 53.5522 37.5459 53.6554 37.6233 53.8926C37.7574 54.3001 37.9018 54.723 37.9276 54.9912C37.9482 55.1717 37.9534 55.311 37.8709 55.2749C37.7574 55.2233 37.7419 55.4399 37.5666 55.2336C37.5408 55.2026 37.5305 55.2233 37.5201 55.2439C37.386 55.6101 37.0869 55.5637 36.8342 55.6256C36.7517 55.6462 36.6898 55.7236 36.6176 55.7648C36.5711 55.7906 36.5196 55.8164 36.468 55.8319C36.3906 55.8525 36.2978 55.8422 36.2359 55.8938C36.1843 55.9299 36.1585 56.0278 36.0193 55.8112C35.9883 55.7648 35.9626 55.7906 35.978 55.8525C36.0244 56.0846 35.9677 56.0794 35.9213 56.0949C35.7872 56.1259 35.6479 56.1413 35.5242 56.1929C35.4313 56.2341 35.354 56.3012 35.2817 56.394C35.1683 56.5333 35.0754 56.7138 34.962 56.8479C34.8691 56.9562 34.7505 57.0181 34.6474 57.1058C34.6216 57.1264 34.6164 57.1832 34.5906 57.1986C34.5442 57.2296 34.5133 57.3018 34.4307 57.245C34.3431 57.1832 34.2966 57.178 34.3224 57.3946C34.3379 57.5133 34.2915 57.5184 34.2451 57.5184C34.1883 57.5133 34.1161 57.4565 34.0388 57.3998C33.9511 57.3328 33.8634 57.2605 33.8634 57.4307C33.8634 57.5235 33.8015 57.4926 33.7448 57.4514C33.4972 57.2812 33.3476 57.3637 33.2135 57.4874C33.033 57.6576 32.868 57.8691 32.6926 58.0497C32.6256 58.1219 32.5431 58.1579 32.4657 58.2095C32.2233 58.3591 31.9396 58.4055 31.6508 58.4416C31.5941 58.4468 31.5322 58.4467 31.5012 58.5138C31.4239 58.6582 31.3001 58.6789 31.1557 58.6582C30.9855 58.6324 30.8772 58.7665 30.7688 58.9109C30.7431 58.9419 30.7276 59.0038 30.6915 58.9986C30.4233 58.9729 30.2789 59.2617 30.0365 59.3081C29.8405 59.3442 29.6187 59.303 29.3969 59.2772C29.2267 59.2565 29.0514 59.2101 28.876 59.1791C28.8657 59.1791 28.8605 59.1998 28.8502 59.1946C28.7471 59.1637 28.6078 58.8904 28.4737 58.4416C28.3551 58.0445 28.319 57.8021 28.3964 57.7815C28.4789 57.7608 28.5717 57.7608 28.6594 57.7505C28.6542 57.7144 28.6491 57.6937 28.6388 57.6731Z" fill="#87B1D9"/>
<path d="M3.88938 67.4615C4.0338 67.5183 4.16274 67.5389 4.32262 67.6369C4.46188 67.7194 4.60114 67.8122 4.6424 67.6369C4.65271 67.5904 4.69397 67.611 4.7146 67.6007C4.76102 67.5801 4.80744 67.5647 4.8487 67.5337C4.86933 67.5183 4.85901 67.4306 4.88996 67.4512C5.03953 67.5492 5.14784 67.544 5.1891 67.3635C5.33867 67.5182 5.3593 67.3532 5.41087 67.2707C5.46245 67.183 5.55529 67.1933 5.57592 67.0231C5.58108 66.9767 5.59655 66.956 5.62749 66.9715C5.80801 67.0747 5.91116 66.9715 6.01431 66.8839C6.12778 66.791 6.27735 66.7858 6.4785 66.9045C6.58165 66.9663 6.65386 66.9354 6.72606 66.9045C6.80859 66.8684 6.87564 66.7859 6.953 66.7343C7.06647 66.6621 7.16962 66.564 7.24182 66.3835C7.33466 66.1463 7.44813 65.9452 7.57191 65.7801C7.6338 65.6976 7.74211 65.7234 7.84011 65.7182C8.03094 65.7079 8.23724 65.7337 8.42292 65.7028C8.56217 65.6821 8.6808 65.6099 8.79942 65.5326C8.90773 65.4604 8.99541 65.3366 9.10372 65.2592C9.41833 65.0271 9.7381 64.8053 10.0527 64.5784C10.1301 64.5216 10.192 64.4391 10.2693 64.3772C10.3054 64.3463 10.3467 64.3308 10.3931 64.3205C10.5582 64.2792 10.7284 64.2535 10.8934 64.2019C11.1255 64.1297 11.3421 64.0265 11.5742 63.9543C11.7032 63.9131 11.8424 63.8925 11.9198 63.7171C11.9404 63.6655 11.9971 63.7686 12.0745 64.0059C12.2086 64.4133 12.353 64.8363 12.3891 65.0993C12.4097 65.2747 12.4201 65.4139 12.3479 65.3778C12.2395 65.3211 12.2344 65.5377 12.0642 65.3263C12.0384 65.2953 12.0281 65.3108 12.0229 65.3314C11.9095 65.6925 11.6361 65.6305 11.3988 65.6873C11.3215 65.7027 11.2699 65.7749 11.2029 65.8162C11.1616 65.842 11.1152 65.8626 11.0636 65.8729C10.9914 65.8936 10.9089 65.8781 10.847 65.9245C10.8006 65.9606 10.7799 66.0535 10.6407 65.8369C10.6097 65.7904 10.5891 65.8162 10.6046 65.8729C10.6562 66.105 10.6046 66.0999 10.5582 66.1102C10.4395 66.136 10.3106 66.1463 10.1971 66.1927C10.1146 66.2288 10.0424 66.2959 9.98051 66.3835C9.88251 66.5176 9.79999 66.693 9.702 66.822C9.61948 66.9251 9.51117 66.9819 9.41833 67.0695C9.3977 67.0902 9.39254 67.1469 9.36675 67.1623C9.32549 67.1933 9.29455 67.2655 9.22234 67.2036C9.13982 67.1366 9.0934 67.1365 9.12951 67.348C9.14498 67.4666 9.10372 67.4718 9.06246 67.4667C9.01088 67.4615 8.93868 67.3996 8.87163 67.3428C8.78911 67.2758 8.70658 67.1985 8.71174 67.3687C8.71174 67.4563 8.65501 67.4254 8.60343 67.3841C8.37134 67.2088 8.23208 67.281 8.11861 67.4048C7.95873 67.5698 7.81432 67.7709 7.65443 67.9411C7.59254 68.0082 7.52034 68.0443 7.44813 68.0907C7.22636 68.23 6.96847 68.2661 6.70544 68.297C6.65386 68.3022 6.59712 68.3022 6.57133 68.3641C6.50429 68.5034 6.39082 68.524 6.25672 68.4982C6.09683 68.4673 6.004 68.5962 5.91116 68.7354C5.89053 68.7664 5.88022 68.8283 5.84412 68.8231C5.59655 68.7922 5.47277 69.0707 5.25099 69.1068C5.07047 69.1377 4.86417 69.0861 4.66302 69.0552C4.5083 69.0294 4.33809 68.9778 4.17821 68.9417C4.16789 68.9417 4.1679 68.9623 4.15758 68.9572C4.05959 68.9211 3.92549 68.6477 3.78623 68.2042C3.66245 67.807 3.62634 67.5698 3.69339 67.5492C3.77076 67.5285 3.85328 67.5337 3.9358 67.5286C3.90486 67.4976 3.8997 67.4821 3.88938 67.4615Z" fill="#87B1D9"/>
<path d="M9.06703 65.9482L5.44639 25.7447L8.6441 24.0375L31.0332 57.5258L35.5307 55.7516L13.1054 22.5728L2.51172 27.1011L5.63722 67.5676L9.06703 65.9482Z" fill="#87B1D9"/>
<path d="M7.60802 58.0039C7.51003 55.7655 7.38109 53.5065 7.32435 51.2888C7.27794 49.3083 7.23667 47.3638 6.91174 45.3626C6.82922 44.8469 6.8086 44.2796 6.76218 43.738C6.66934 42.7529 6.5765 41.7627 6.48366 40.7776C6.43724 40.3289 6.3083 39.8646 6.29799 39.4469C6.25673 37.3838 6.11232 35.3363 5.77192 33.2939C5.82349 31.6744 5.53982 30.1065 5.33352 28.5025C5.28194 28.0486 5.23037 27.5999 5.17879 27.1409L5.00859 25.4956L5.62234 25.15L6.17937 24.8303C6.48366 24.6497 6.78281 24.4641 7.07679 24.2681C7.16447 24.2114 7.2573 24.1494 7.3553 24.0927C7.49455 24.0153 7.63381 23.9328 7.77822 23.8503C8.06705 23.6904 8.36619 23.5357 8.63438 23.4068L8.84069 23.3088L10.1198 25.3615C10.4602 25.9031 10.8109 26.4343 11.1668 26.9655C11.8785 28.028 12.6109 29.0801 13.3433 30.1375C14.9473 32.4532 16.4636 34.8153 17.8613 37.2394C18.6092 38.5288 19.4808 39.8234 20.3267 41.0922C21.3375 42.6034 22.3949 44.0836 23.4212 45.5844C24.9066 47.7661 26.4075 49.9116 27.9805 52.0108C28.6046 52.8463 29.2235 53.687 29.8476 54.5277L30.7811 55.7965C30.9204 55.9873 31.137 56.2916 31.1628 56.3071L31.3485 56.5288L31.725 56.338L32.7049 55.91L33.69 55.4818C33.8138 55.4199 33.8705 55.3839 33.953 55.3426L34.0665 55.2859C33.9995 55.1982 33.9427 55.1208 33.8911 55.0383L33.3805 54.2595C32.937 53.5735 32.4934 52.8876 32.0499 52.2068C30.0694 49.169 28.1198 46.1105 26.1238 43.083C24.6229 40.8085 23.0757 38.5546 21.5232 36.3111C20.0585 34.2274 18.5937 32.1489 17.1289 30.0704L14.7152 26.5993L13.5083 24.8612L12.9049 23.9947L12.7553 23.7987L3.70372 27.8217L3.71919 27.9042L3.72435 27.9248V27.9352L3.72951 28.0125L3.76045 28.3426L3.87907 29.6681C4.05443 31.4733 4.22979 33.2784 4.40515 35.0836C4.48767 35.9862 4.55988 36.8887 4.62177 37.7965L5.3232 47.859L6.41662 62.2693L6.60745 64.879L6.66934 65.6733C6.67449 65.7094 6.67966 65.7455 6.68997 65.7661C6.73123 65.7403 6.76733 65.7094 6.78796 65.6836C6.79312 65.6784 6.79828 65.6682 6.79828 65.663L7.11289 65.4979L7.76274 65.1523C8.43323 64.7913 8.70659 64.7914 8.55702 65.1369C8.42808 65.4361 8.31977 65.73 8.11347 66.0447C8.01031 66.2045 7.88137 66.3696 7.71117 66.5398C7.53581 66.7151 7.35014 66.8905 7.01489 67.1174C6.52492 67.4578 5.94212 67.824 5.2871 68.185C5.2149 67.7105 5.15816 67.1122 5.13237 66.4469C5.12206 66.189 5.10658 65.9311 5.09627 65.6681L5.055 65.0595C5.0189 64.6521 4.9828 64.2446 4.9467 63.8424C4.87965 63.0275 4.82808 62.2177 4.90028 61.4234C4.92091 61.2016 4.88481 60.8767 4.8487 60.6189C4.19369 55.9564 3.98739 51.232 3.6573 46.5231C3.54899 44.9861 3.38394 43.4492 3.24985 41.9071L3.0126 38.9105C2.90945 37.4613 2.83724 36.0016 2.7083 34.5575C2.61031 33.4692 2.44527 32.4119 2.62063 31.4062C2.65673 31.1947 2.59999 30.6222 2.52263 30.4262C2.37306 30.0497 2.29054 29.632 2.23381 29.1987C2.20802 28.9821 2.18738 28.7603 2.16675 28.5385C2.15128 28.2961 2.13065 28.0486 2.11517 27.801L2.04297 26.8056L8.41776 24.134L10.6768 23.1437C11.5484 22.7517 12.4149 22.3598 13.2814 21.9678C13.4103 22.1534 13.5444 22.334 13.6734 22.5197C15.365 24.8406 17.0516 27.1563 18.7433 29.4773C20.11 31.3804 21.4407 33.3196 22.792 35.2383C23.1066 35.6818 23.447 36.0996 23.7565 36.5432C24.3238 37.3632 24.9582 38.1988 25.4121 39.0188C25.9175 39.9317 26.3559 40.6125 27.0676 41.2933C27.4648 41.675 27.9341 42.3919 28.3106 42.9798C28.7903 43.738 29.2235 44.5168 29.6464 45.2853C30.157 46.2085 30.6264 47.0802 31.3897 47.9312C31.7972 48.385 32.2304 49.1122 32.5656 49.7157C33.1072 50.6802 33.6797 51.6292 34.278 52.5627L35.1857 53.9604L36.6195 56.0801L34.7989 56.8177L33.4527 57.3747C32.545 57.7564 31.6321 58.1329 30.7244 58.5145L29.6258 56.926L28.8883 55.8841L27.4132 53.8056L24.4631 49.6383C23.5192 48.3025 22.6063 46.9409 21.678 45.5896C18.8052 41.381 16.0252 37.1157 13.2556 32.84C12.714 32.0045 12.1673 31.1431 11.5794 30.354C10.9037 29.436 10.2539 28.5025 9.62464 27.5587L8.69628 26.1352L8.46934 25.7741L8.36619 25.6091L8.35587 25.5833L8.29914 25.4543L8.29398 25.4388C8.25272 25.4491 8.21146 25.4647 8.15988 25.4853L8.12378 25.5008L7.94326 25.5936L7.54097 25.8051L6.74154 26.228L6.63324 26.2898L6.56619 26.3311L6.58166 26.4291L6.59198 26.4755L6.62292 26.7437L6.75186 27.8578L7.02521 30.0807C7.10258 30.7099 7.21089 31.3443 7.25215 31.9684C7.5255 36.3317 8.12378 40.6538 8.46934 45.0016C8.74785 48.5191 8.94384 52.0417 9.1553 55.5541C9.30487 58.2721 9.45444 60.9799 9.60401 63.6979C9.61433 63.8784 9.65043 64.059 9.66075 64.2395C9.73295 65.7868 9.47507 66.3025 8.94384 65.6165C8.4745 65.0079 8.14441 64.0126 8.02579 62.62L7.68023 58.0039H7.60802Z" fill="#87B1D9"/>
<path d="M6.26874 47.9487C6.50083 47.9641 6.72777 47.9487 6.97533 48.0054C7.19711 48.057 7.41373 48.1086 7.53751 47.9023C7.56846 47.8507 7.63035 47.861 7.67677 47.8404C7.76445 47.8043 7.84696 47.7682 7.92949 47.7218C7.96559 47.7011 7.97591 47.6032 8.02233 47.6135C8.25442 47.6754 8.45041 47.6393 8.56903 47.4175C8.78565 47.5413 8.86817 47.3555 8.9868 47.2421C9.10542 47.1286 9.26531 47.108 9.34267 46.912C9.3633 46.8604 9.39941 46.8295 9.45098 46.8398C9.73981 46.9017 9.94611 46.7521 10.1576 46.618C10.3845 46.4736 10.6475 46.422 10.9622 46.4943C11.1272 46.5304 11.2613 46.4736 11.3954 46.4169C11.5553 46.3498 11.6894 46.2364 11.8441 46.1538C12.0659 46.0404 12.2722 45.896 12.4475 45.6691C12.6796 45.3699 12.9324 45.112 13.2006 44.8851C13.3347 44.7716 13.5203 44.7664 13.6905 44.7303C14.0309 44.6581 14.3816 44.622 14.7117 44.5292C14.9593 44.4621 15.1914 44.3435 15.4183 44.2197C15.6298 44.1063 15.8206 43.9361 16.0269 43.8174C16.6458 43.4564 17.2699 43.1057 17.8888 42.7498C18.0384 42.6622 18.1776 42.5487 18.3221 42.4559C18.3943 42.4095 18.4716 42.3785 18.5541 42.3527C18.8533 42.2547 19.1627 42.1722 19.4619 42.0639C19.8848 41.9092 20.3026 41.7235 20.7255 41.5687C20.9679 41.481 21.2155 41.414 21.4011 41.1871C21.4527 41.1252 21.5198 41.2232 21.5868 41.4604C21.7054 41.873 21.8395 42.3011 21.8241 42.5848C21.8137 42.7756 21.7931 42.9304 21.6693 42.9097C21.494 42.8788 21.4269 43.1263 21.1897 42.9407C21.1587 42.9149 21.1329 42.9355 21.1175 42.9613C20.8183 43.3997 20.349 43.4255 19.9261 43.5595C19.7868 43.606 19.6733 43.704 19.5392 43.771C19.4567 43.8123 19.369 43.8535 19.2814 43.8793C19.1524 43.9257 19.008 43.9361 18.8894 44.0083C18.8017 44.0598 18.7398 44.1733 18.5541 43.9722C18.518 43.9309 18.4716 43.9619 18.4768 44.0289C18.4974 44.2765 18.4097 44.2816 18.3272 44.3074C18.1054 44.3796 17.8785 44.4261 17.667 44.5189C17.5123 44.586 17.3679 44.6839 17.2338 44.8025C17.0223 44.9831 16.8315 45.21 16.62 45.3802C16.4395 45.5246 16.2435 45.6226 16.0527 45.7464C16.0114 45.7774 15.9805 45.8393 15.9341 45.865C15.8516 45.9115 15.7845 45.9991 15.671 45.9578C15.5473 45.9114 15.4699 45.9217 15.4647 46.1487C15.4596 46.2776 15.3822 46.2931 15.3152 46.3034C15.2275 46.3137 15.1192 46.2673 15.016 46.226C14.8871 46.1745 14.7633 46.1178 14.7272 46.3034C14.7066 46.4014 14.6137 46.3859 14.5312 46.3602C14.1702 46.2364 13.9123 46.3653 13.6699 46.5407C13.345 46.7779 13.0304 47.0461 12.7054 47.2937C12.5765 47.3865 12.4372 47.4536 12.3031 47.5258C11.8802 47.7527 11.4109 47.8765 10.9415 47.9951C10.8487 48.0158 10.7507 48.0312 10.6837 48.1086C10.5238 48.2891 10.3175 48.3458 10.0957 48.3561C9.82233 48.3716 9.62118 48.5521 9.42003 48.7326C9.37361 48.7739 9.33751 48.8461 9.27562 48.8513C8.84754 48.8925 8.5484 49.2484 8.15642 49.3618C7.83665 49.4547 7.48078 49.465 7.13522 49.4959C6.86702 49.5166 6.58851 49.5114 6.32032 49.5218C6.30484 49.5218 6.29453 49.5476 6.2739 49.5476C6.11402 49.5424 5.95413 49.2742 5.84582 48.8203C5.74783 48.418 5.74267 48.1602 5.87161 48.1137C6.01086 48.0673 6.15528 48.0467 6.29969 48.0157C6.28422 47.9848 6.27905 47.9693 6.26874 47.9487Z" fill="#87B1D9"/>
<path d="M0.47965 26.0032C0.69627 26.0393 0.902571 26.0444 1.12951 26.1218C1.33065 26.1888 1.5318 26.261 1.65043 26.0702C1.68137 26.0186 1.73811 26.0341 1.77937 26.0186C1.86189 25.9876 1.93925 25.9619 2.01661 25.9258C2.05272 25.9052 2.06303 25.8123 2.10429 25.8278C2.32091 25.9051 2.49627 25.8897 2.6149 25.6834C2.81089 25.8278 2.8934 25.6473 3.00687 25.5441C3.12034 25.441 3.26475 25.4358 3.34727 25.2501C3.3679 25.1985 3.40401 25.1727 3.44527 25.1882C3.71347 25.2707 3.9043 25.1418 4.10544 25.0284C4.32206 24.9097 4.56447 24.8788 4.85329 24.9768C5.00802 25.0284 5.1318 24.9819 5.25558 24.9355C5.40516 24.8839 5.5341 24.7808 5.67851 24.7138C5.88482 24.6209 6.0808 24.4919 6.25101 24.2908C6.47794 24.0174 6.72034 23.7802 6.97307 23.5842C7.10201 23.4862 7.27221 23.4914 7.43209 23.4708C7.74671 23.4295 8.07679 23.4192 8.38625 23.3573C8.61834 23.3109 8.83496 23.218 9.04642 23.1149C9.24757 23.0169 9.42808 22.8725 9.62407 22.7693C10.2069 22.465 10.7948 22.1762 11.3828 21.8771C11.5221 21.8049 11.6562 21.7069 11.7903 21.6244C11.8573 21.5831 11.9347 21.5573 12.0069 21.5418C12.2905 21.4696 12.5742 21.418 12.8527 21.3355C13.2499 21.2169 13.6418 21.0725 14.039 20.9538C14.2659 20.8868 14.498 20.8455 14.6785 20.6392C14.7301 20.5825 14.7868 20.6856 14.8436 20.928C14.9416 21.3458 15.0499 21.7842 15.0292 22.0627C15.0138 22.2536 14.988 22.398 14.8797 22.3722C14.7198 22.3309 14.6476 22.563 14.4361 22.3619C14.4052 22.3309 14.3845 22.3516 14.3691 22.3774C14.0802 22.7848 13.6418 22.7693 13.2447 22.8673C13.1158 22.8982 13.0023 22.986 12.8837 23.0427C12.8063 23.0788 12.7238 23.1097 12.6413 23.1303C12.5226 23.1613 12.3885 23.1613 12.2751 23.2232C12.1926 23.2696 12.1307 23.3728 11.9656 23.1613C11.9295 23.1149 11.8883 23.1458 11.8934 23.2077C11.9037 23.4501 11.8212 23.4501 11.749 23.4708C11.5427 23.5223 11.3312 23.5481 11.1353 23.6203C10.9857 23.6719 10.8516 23.7596 10.7226 23.8627C10.5215 24.0226 10.3358 24.2289 10.1347 24.3837C9.96448 24.5126 9.7788 24.59 9.59828 24.6983C9.55702 24.7241 9.53123 24.7859 9.48481 24.8066C9.40745 24.8427 9.3404 24.9252 9.23725 24.8736C9.12378 24.8169 9.05158 24.8221 9.04126 25.0439C9.0361 25.1676 8.95874 25.1831 8.89685 25.1831C8.81433 25.1831 8.71634 25.1315 8.61834 25.0799C8.49972 25.018 8.39141 24.951 8.35014 25.1315C8.32951 25.2295 8.24184 25.2037 8.16963 25.1676C7.83955 25.0129 7.59714 25.1212 7.3702 25.2708C7.06075 25.4771 6.7616 25.7143 6.45731 25.9309C6.33868 26.0135 6.20458 26.065 6.07564 26.1269C5.67335 26.3178 5.24011 26.3951 4.80171 26.4725C4.71403 26.4879 4.62636 26.4931 4.55931 26.5653C4.40974 26.7304 4.21375 26.7665 4.00745 26.7613C3.75472 26.751 3.56389 26.9109 3.3679 27.0759C3.32148 27.112 3.28539 27.179 3.22865 27.179C2.83152 27.1842 2.54269 27.5091 2.1765 27.5865C1.87736 27.6484 1.54727 27.6278 1.2275 27.6278C0.979936 27.6278 0.722055 27.5968 0.469333 27.5813C0.45386 27.5813 0.443544 27.602 0.428071 27.602C0.278501 27.5814 0.144406 27.308 0.0515687 26.8438C-0.0257953 26.4364 -0.0206395 26.1785 0.0979852 26.1475C0.226925 26.1114 0.36618 26.1063 0.500277 26.0856C0.489962 26.0444 0.484808 26.0238 0.47965 26.0032Z" fill="#87B1D9"/>
<path d="M36.4736 24.1401C37.0667 25.7234 37.6908 27.3068 38.2323 28.8953C38.7172 30.3137 39.1917 31.7011 39.9395 33.0369C40.1355 33.3825 40.2748 33.7847 40.445 34.1561L41.3682 36.1985C41.5126 36.508 41.7344 36.7968 41.8375 37.0959C42.3378 38.571 42.9258 39.9997 43.7046 41.3561C44.014 42.5424 44.6329 43.579 45.1796 44.6673C45.7315 45.7555 46.1957 46.9056 46.8249 47.9423C46.9899 48.2157 47.155 48.5458 47.2581 48.8552C47.4129 49.2936 47.5728 49.7269 47.7481 50.1601L48.0112 50.8048L48.2278 51.3051L48.3309 51.5372C48.3567 51.6197 48.4444 51.6713 48.5269 51.661L49.0117 51.5269L49.7235 51.3206L50.4713 51.0937C52.488 50.4799 54.4943 49.8713 56.516 49.2988C57.5888 48.9842 58.6719 48.5303 59.7138 48.0507C60.9516 47.4782 62.1378 46.8025 63.2931 46.0908C64.9642 45.0592 66.5424 43.8524 67.7338 42.3618C68.5178 41.3664 69.1625 40.2678 69.3894 39.128C69.5029 38.5658 69.5183 37.9985 69.4203 37.4621C69.3894 37.3229 69.3739 37.1991 69.3275 37.0546L69.1934 36.6059C69.116 36.3016 69.0026 36.018 68.8943 35.7343C68.4559 34.5739 67.8834 33.4753 67.0479 32.6191C66.2072 31.7681 65.1292 31.1544 63.9172 30.8191C62.7155 30.4632 61.4003 30.391 60.0903 30.4426C58.1149 30.5509 56.1395 31.0202 54.2261 31.6392C52.4364 32.2271 50.7034 32.9853 48.9911 33.7847L48.3722 34.0736L47.6759 32.4438C50.1361 31.3865 52.6117 30.2466 54.4994 28.6065C55.4226 27.7761 56.1602 26.822 56.6089 25.7028C56.8461 25.1561 57.0163 24.5475 57.1453 23.9544C57.2639 23.3716 57.3206 22.7681 57.3155 22.1647C57.3 20.9578 57.0008 19.7561 56.4954 18.7091C56.2427 18.1882 55.9435 17.6982 55.598 17.2701C54.2725 15.6919 52.0444 14.8564 49.7132 14.7687C48.0421 14.681 46.3195 14.8718 44.6278 15.2432C42.9361 15.63 41.265 16.1715 39.6301 16.8111C37.7836 17.5641 35.963 18.4254 34.2971 19.5395C34.2404 19.5756 34.1836 19.6116 34.1321 19.6374L34.1114 19.6477C33.9412 19.3538 33.771 19.065 33.606 18.7813L33.6111 18.7865C33.6163 18.7865 33.606 18.7865 33.606 18.7865C33.6111 18.7865 33.606 18.7865 33.606 18.7865C33.6163 18.7865 33.6111 18.7865 33.606 18.7813L33.7556 19.0289L33.7607 19.003L33.7865 18.8999C33.8071 18.8277 33.8278 18.7606 33.8587 18.6884C33.9722 18.3996 34.1682 18.0902 34.5395 17.7395C35.0398 17.2546 35.5401 16.8523 36.324 16.5429C36.8811 16.3056 37.4381 16.0271 38.0106 15.7795C38.2942 15.6506 38.5779 15.532 38.8667 15.4237C39.1607 15.3257 39.4599 15.2586 39.759 15.2122C39.9292 15.1864 40.1561 15.0884 40.3315 15.0059C43.5808 13.5257 47.2839 12.8449 50.9097 13.3143C52.0908 13.4484 53.2771 13.7475 54.3808 14.2684C54.7263 14.4592 55.0977 14.6088 55.4072 14.8666C55.7269 15.1039 56.0673 15.3206 56.3304 15.6249C57.202 16.414 57.7642 17.4609 58.1923 18.5079C58.512 19.3022 58.7854 20.1223 58.6255 20.9166C58.5997 21.0816 58.6358 21.52 58.7132 21.6695C58.9711 22.2627 58.9195 22.9899 58.8009 23.6965C58.4708 25.5842 57.6456 27.4099 56.3252 28.8231C55.3659 29.8804 54.2209 30.716 53.0501 31.4587C51.5132 32.4231 49.9143 33.2432 48.2845 33.9859L47.6862 32.5934L48.6043 32.1343C50.2186 31.3555 51.8948 30.6953 53.6071 30.1125C54.0043 29.9836 54.386 29.8134 54.7934 29.6947C55.5361 29.4781 56.3149 29.2306 57.0524 29.1739C57.8673 29.1068 58.4914 29.0294 59.2238 28.7458C59.6364 28.5807 60.3275 28.5446 60.8897 28.5601C61.6169 28.5807 62.339 28.689 63.0352 28.8644C63.8759 29.081 64.6238 29.3441 65.5573 29.54C65.8049 29.6071 66.0937 29.7154 66.3722 29.865C66.6404 30.0352 66.9241 30.1951 67.1407 30.3911C68.1464 31.206 68.9768 32.1962 69.5957 33.2845C70.2095 34.3727 70.6375 35.5383 70.9264 36.7245C71.1533 37.5859 71.1636 38.5401 70.9625 39.4169C70.7716 40.2988 70.4055 41.1189 69.9567 41.8564C69.049 43.3315 67.8421 44.5228 66.5682 45.5647C65.5625 46.3796 64.4794 47.081 63.3808 47.7257C59.9458 49.7217 56.2478 51.0678 52.5086 52.1458C51.7711 52.3521 51.0232 52.5481 50.3114 52.7905C50.1103 52.8627 49.904 52.9297 49.6977 52.9916L49.316 53.1051L48.7384 53.265C47.9699 53.4765 47.3097 53.1721 46.9745 52.4604C46.5722 51.5527 46.4948 51.3618 46.3091 50.9183L45.8243 49.7114C45.0662 47.7928 44.1533 45.9515 43.2404 44.1154C43.0289 43.6873 42.7865 43.2644 42.6112 42.8312C41.3836 39.7727 39.857 36.8535 38.5624 33.8363C37.5154 31.3916 36.551 28.916 35.571 26.4506C34.8283 24.5372 34.0805 22.634 33.3378 20.7257C33.2914 20.6019 33.214 20.4781 33.1676 20.3543C32.755 19.2609 32.8839 18.8019 33.5338 19.1166C34.1114 19.3951 34.6427 20.0036 35.0604 20.9681C35.5246 22.0357 35.963 23.1085 36.4117 24.1813L36.4736 24.1401Z" fill="#87B1D9"/>
<path d="M48.143 52.2254C51.2428 51.3022 52.625 50.8277 54.9923 49.9045L39.9012 16.0552C37.8175 16.7566 35.5946 17.618 33.2324 18.665L48.143 52.2254Z" fill="#87B1D9"/>
<path d="M51.5587 50.3775C52.0744 50.2589 52.5902 50.1196 53.1008 49.9855L53.4876 49.8823C53.5908 49.8565 53.6475 49.8514 53.7404 49.8308L54.2974 49.7225L54.4418 49.6915C54.4831 49.6812 54.4418 49.6297 54.4469 49.5987L54.4005 49.3821C54.3644 49.2273 54.3128 49.0572 54.251 48.8818C54.1117 48.495 53.9002 48.0256 53.6424 47.6285C53.5083 47.417 53.4257 47.1591 53.3226 46.9219C53.1266 46.4938 52.9358 46.0606 52.7346 45.6325C52.6418 45.4365 52.4716 45.2663 52.4149 45.0755C52.1467 44.1213 51.7856 43.2136 51.2389 42.3781C51.1048 41.5993 50.6716 40.9649 50.3002 40.2892C49.9289 39.6084 49.6504 38.876 49.2017 38.2417C49.0831 38.0715 48.9747 37.8652 48.918 37.6692C48.5621 36.4675 47.9999 35.3534 47.4532 34.229C46.8653 33.0222 46.3702 31.7792 45.9937 30.4898C45.7925 29.8038 45.4882 29.1282 45.1891 28.4629C44.8332 27.6738 44.4309 26.9053 44.0647 26.1213C43.5335 24.9815 42.9713 23.8623 42.3369 22.7792C41.4859 21.3299 40.671 19.8548 39.8871 18.3591C39.7891 18.1683 39.6962 17.9774 39.6034 17.7814L39.4899 17.5184L39.4641 17.441L39.4125 17.2657C39.4074 17.2502 39.4022 17.2296 39.3971 17.2193L39.3558 17.2244L39.2733 17.2399L39.1856 17.2605L39.0567 17.2915C39.036 17.2915 38.9071 17.3379 38.8091 17.3637L38.5048 17.4617L37.2876 17.8588C36.4779 18.1322 35.6681 18.421 34.8739 18.7356L34.3736 18.9367L34.1673 19.0244C34.1724 19.0812 34.2189 19.1585 34.2446 19.2256L34.8842 20.582C35.3999 21.6806 35.9673 22.7534 36.4933 23.8468L41.13 33.5895L42.2802 35.9156C42.471 36.3024 42.6464 36.6996 42.8166 37.0967L44.6991 41.5219L47.4739 47.8245C47.9948 49.021 48.4899 50.2228 49.1449 51.3471C49.3255 51.6618 49.2687 51.8165 48.9902 51.7958C48.5002 51.7546 48.0206 51.7649 47.5306 51.3007C47.2005 50.9861 46.9169 50.6766 46.7621 50.1764C46.5404 49.444 46.0298 48.7941 45.9627 47.9998C45.9524 47.8863 45.8802 47.7523 45.8131 47.644C44.6372 45.715 43.8636 43.5952 42.9816 41.5271C42.6928 40.8514 42.3524 40.1964 42.0429 39.5311C41.8418 39.0978 41.6458 38.6646 41.4601 38.2262C41.1868 37.5918 40.9444 36.9368 40.6452 36.3127C40.4183 35.8434 40.1398 35.4101 40.181 34.8789C40.1913 34.7654 40.0676 34.5231 39.9696 34.456C39.6034 34.2136 39.4538 33.8113 39.2836 33.4142C38.8297 32.3414 38.3913 31.2634 37.9168 30.1958C37.5661 29.4067 37.1793 28.6331 36.7822 27.8749C36.1581 26.6938 35.4979 25.5333 34.8842 24.3471C34.3684 23.3568 33.9042 22.3356 33.4091 21.3299C33.2956 21.0978 33.1461 20.8864 33.0326 20.6491C32.981 20.5408 32.9294 20.4325 32.8727 20.3242L32.62 19.7878C32.4395 19.3958 32.2744 18.9987 32.1661 18.6531C32.1352 18.5603 32.1042 18.4674 32.0784 18.3746L32.032 18.2405C32.032 18.2198 32.0011 18.1889 32.0269 18.1838L32.0991 18.1579C32.2899 18.0857 32.4653 18.0136 32.6303 17.9362C32.9604 17.7815 33.2389 17.6061 33.5638 17.3534C33.6567 17.2812 33.7701 17.209 33.9042 17.1367C33.9507 17.111 34.0022 17.08 34.0538 17.0542L34.1724 16.9923C34.3323 16.915 34.5077 16.8479 34.6676 16.7963C35.075 16.6519 35.5082 16.5694 35.926 16.4869C36.4315 16.3889 36.906 16.3115 37.365 15.9711C37.6074 15.7906 38.0097 15.6978 38.3398 15.6359C38.8091 15.5327 39.4229 15.3729 39.9489 15.2233L40.1501 15.1666L40.2481 15.1356C40.279 15.1304 40.3203 15.0995 40.3254 15.1562L40.4905 15.5689L40.8257 16.3683L41.1197 17.0388L41.3466 17.5391L41.8315 18.5242L44.5598 23.8313C44.9157 24.5276 45.2355 25.2394 45.5707 25.946C46.6074 28.1431 47.5358 30.3866 48.459 32.6302C48.6395 33.0686 48.8149 33.5225 49.0521 33.9299C49.5885 34.8789 50.0063 35.8743 50.3828 36.8904C50.8315 38.1179 51.4401 39.268 52.0538 40.413C52.1982 40.6812 52.3684 40.9391 52.4716 41.2176C53.2091 43.1672 54.251 44.9827 55.0556 46.8961L56.4068 50.1969L56.5152 50.4651L56.5409 50.5322C56.5461 50.5528 56.4997 50.5529 56.4842 50.5632L56.3398 50.6147L55.7621 50.8159L54.6378 51.2079L54.0911 51.3935L53.7868 51.4863L53.173 51.6669C51.9043 52.0383 50.62 52.3322 49.3512 52.6159C49.2687 52.6365 49.1862 52.6778 49.1037 52.6984C48.3765 52.848 48.067 52.621 48.2682 52.0743C48.4435 51.5895 48.8406 51.2233 49.475 51.0376L51.5742 50.4342L51.5587 50.3775Z" fill="#87B1D9"/>
<path d="M87.3692 1.85164C86.9308 1.7846 86.4873 1.71241 86.0386 1.68147C85.595 1.64021 85.1463 1.58863 84.6976 1.55769C83.9033 1.47517 83.0988 1.4442 82.3251 1.72787C82.124 1.80523 81.897 1.81555 81.6856 1.85681C81.2936 1.92386 80.9119 2.04767 80.5303 2.15083C80.3549 2.2024 80.195 2.3313 80.0351 2.36224C79.2099 2.47055 78.4105 2.72845 77.7348 3.22358C77.4047 3.28032 77.1108 3.40412 76.8374 3.56916C76.5692 3.74968 76.3217 3.95598 76.0638 4.14681C75.5687 4.55426 75.0013 4.8895 74.63 5.42589C74.532 5.56514 74.3927 5.69406 74.2535 5.78689C73.4076 6.37486 72.7681 7.20528 72.2575 8.09239C71.7159 9.0517 71.2208 10.0161 70.705 11.0219C70.5761 11.2952 70.4678 11.5789 70.3749 11.8729C70.2976 12.172 70.2357 12.4763 70.1738 12.7755C70.1119 13.1365 70.081 13.5027 70.0449 13.8637L69.9984 14.9571C69.983 16.0144 70.0706 17.0666 70.3234 18.0878C70.6689 19.4494 71.1125 20.7697 71.6334 22.054C71.8964 22.7038 72.0821 23.395 72.34 24.0551C72.8403 25.3806 73.4386 26.6855 74.2174 27.8872C74.8002 28.7898 75.4913 29.6202 76.2598 30.3577C76.9715 31.054 77.7709 31.642 78.5962 32.168C79.8082 32.9571 81.1285 33.5554 82.4953 33.8855C83.8621 34.2156 85.2804 34.2672 86.673 34.066L87.6684 33.8649L88.6432 33.5864C88.9681 33.4884 89.2879 33.3698 89.6128 33.2769C90.8145 32.8849 91.9853 32.3588 93.0942 31.7038C94.6724 30.7394 96.1062 29.5325 97.4059 28.1915L97.9578 27.6191L98.4684 27.0104C98.814 26.6081 99.1028 26.1594 99.3658 25.7004C99.5102 25.4425 99.665 25.4322 99.7991 25.6643C100.031 26.0666 100.299 26.4586 100.181 27.0414C100.103 27.4437 99.9899 27.7892 99.6443 28.0987C99.1647 28.5525 98.8243 29.1921 98.1899 29.4809C98.1022 29.5222 98.0197 29.6253 97.9526 29.713C96.7767 31.2912 95.1056 32.4053 93.3985 33.344C92.8466 33.6637 92.2896 33.9835 91.7119 34.2723C91.3354 34.4528 90.9435 34.5973 90.5566 34.752C90.273 34.8603 89.9738 34.9273 89.685 35.015C89.3962 35.1027 89.1022 35.1852 88.8082 35.2523C88.3698 35.3709 87.9469 35.5618 87.493 35.3554C87.4002 35.3142 87.1681 35.3606 87.0907 35.4379C86.8019 35.7319 86.4099 35.7062 86.0334 35.7319C85.5177 35.7732 85.0019 35.701 84.4913 35.6855C83.9807 35.6133 83.4701 35.5617 82.9646 35.4534C82.2168 35.3038 81.4741 35.1285 80.7469 34.8964C79.6122 34.5509 78.4982 34.0815 77.4821 33.4419C77.0437 33.1944 76.6569 32.8643 76.2495 32.5703C75.873 32.2402 75.4707 31.9256 75.1199 31.5697C74.9497 31.4098 74.7538 31.2757 74.5887 31.1159C74.2999 30.8064 73.9646 30.497 73.7687 30.136C73.5727 29.7234 73.3767 29.45 72.9641 29.2385C72.7371 29.1148 72.5411 28.8053 72.3864 28.5474C72.1904 28.2121 72.0718 27.8408 71.9429 27.4849C71.7933 27.0569 71.6953 26.6391 71.3239 26.2884C71.1331 26.0975 71.0248 25.7468 70.9526 25.4631C70.6431 24.1944 70.179 23.0081 69.7509 21.7806C69.1939 20.1147 68.7709 18.387 68.6059 16.5973C68.5646 16.2465 68.5492 15.8958 68.5543 15.5399C68.5492 15.1841 68.5492 14.8333 68.5801 14.4774C68.6832 12.27 69.3125 10.0522 70.4368 8.10781C70.6638 7.72615 70.8907 7.34451 71.1125 6.968C71.2363 6.74623 71.3549 6.52444 71.4993 6.31298C71.6489 6.11183 71.8088 5.91067 71.9686 5.71984C72.2781 5.31755 72.6752 5.00298 73.0466 4.66774C73.9956 3.92504 74.8775 3.1256 75.8833 2.46543C76.1102 2.29523 76.3371 2.13019 76.5899 2.02189C78.3434 1.26888 80.0919 0.495216 81.9589 0.196075C83.4649 -0.0360168 84.9864 -0.0411694 86.4821 0.0722978C87.6323 0.17545 88.7721 0.355933 89.881 0.618971C89.9532 0.634443 90.0357 0.629311 90.1079 0.644784C90.7423 0.804669 90.8816 1.13476 90.5051 1.55253C90.175 1.91872 89.7417 2.09923 89.195 2.0064C88.5864 1.94966 87.9881 1.82586 87.3744 1.78976L87.3692 1.85164Z" fill="#87B1D9"/>
<path d="M72.9926 6.21533C72.9358 6.3288 72.8069 6.46288 72.3685 7.03537C65.5141 15.9477 73.1267 33.2721 82.921 34.9689C84.1743 35.1856 85.3192 35.1855 86.1909 34.6234L72.9926 6.21533Z" fill="#87B1D9"/>
<path d="M71.9414 9.07421C71.7196 9.40946 71.5081 9.74986 71.307 10.1057C71.1316 10.4719 70.915 10.8226 70.75 11.1991C70.5901 11.5292 70.4199 11.8594 70.327 12.2152C70.2187 12.566 70.1517 12.9321 70.1826 13.3138C70.1981 13.5098 70.131 13.7109 70.1104 13.912C70.0898 14.2782 70.0588 14.6444 70.0588 15.0158C70.064 15.186 70.1517 15.3613 70.1207 15.5161C70.0382 15.8977 70.0124 16.2794 70.0279 16.6662C70.0331 17.0479 70.1104 17.4295 70.229 17.8009C70.1568 18.1104 70.1929 18.4095 70.26 18.6983C70.327 18.9871 70.4199 19.276 70.5179 19.5648C70.6159 19.8536 70.6777 20.1476 70.7654 20.4364C70.8583 20.7252 70.9666 21.0089 71.1161 21.2719C71.1935 21.4112 71.2657 21.5763 71.2863 21.7361C71.405 22.7109 71.8279 23.5981 72.256 24.4697C72.7408 25.3929 73.1534 26.3419 73.5608 27.3166C73.7723 27.8376 74.1024 28.3224 74.4428 28.7814C74.8451 29.3333 75.3196 29.8181 75.7838 30.3132C76.4542 31.0301 77.2176 31.649 78.048 32.1441C79.1672 32.7888 80.3379 33.2995 81.5139 33.6141C82.1173 33.7688 82.6898 33.9803 83.3087 34.1144C83.6182 34.1763 83.9173 34.2227 84.2113 34.2433L84.4073 34.2588L84.5001 34.2691C84.562 34.2743 84.629 34.2743 84.6961 34.2691C84.8353 34.2588 84.9798 34.2227 85.1242 34.1608C85.0932 34.0422 85.0417 33.9132 84.9901 33.774L84.9282 33.6141L84.7889 33.2995L84.464 32.598L83.7832 31.2055C83.3551 30.3442 82.8755 29.5087 82.4371 28.6473L78.574 21.0037L77.6147 19.1832C77.4548 18.8789 77.3104 18.5694 77.1712 18.2548L75.6342 14.7631L73.3545 9.80145C72.9265 8.86277 72.5242 7.90862 71.9671 7.03699C71.8124 6.78942 71.8743 6.66048 72.1477 6.65017C72.617 6.63985 73.0812 6.58313 73.5247 6.92354C73.8239 7.15563 74.0766 7.38252 74.1952 7.78482C74.3654 8.37278 74.8141 8.8628 74.8296 9.51266C74.8296 9.6055 74.8915 9.70861 74.9482 9.79113C75.9643 11.2817 76.5729 12.9631 77.2949 14.598C77.5322 15.1293 77.821 15.6398 78.0789 16.1659C78.2439 16.5063 78.4038 16.8467 78.5586 17.1923C78.7803 17.6926 78.9763 18.2135 79.2239 18.6983C79.4147 19.0697 79.6571 19.3946 79.5798 19.8433C79.5643 19.9361 79.6674 20.127 79.7551 20.1734C80.0904 20.3384 80.2141 20.6634 80.3482 20.9728C80.7196 21.8187 81.0755 22.6748 81.4674 23.5103C81.7563 24.1292 82.0812 24.7327 82.4164 25.331C82.9425 26.2542 83.5099 27.1516 84.0256 28.08C84.4588 28.8537 84.8457 29.6531 85.2583 30.4422C85.3563 30.6227 85.4852 30.7877 85.5781 30.9683C85.7483 31.3035 85.9649 31.6387 86.0371 31.9946C86.0783 32.1906 86.1248 32.3608 86.2073 32.5155C86.2485 32.5929 86.2949 32.6599 86.3568 32.727C86.4187 32.794 86.4806 32.8353 86.6096 32.9952C86.7437 33.1447 86.8778 33.3665 86.9964 33.6089C87.1202 33.8514 87.244 34.1144 87.2543 34.3C87.3007 34.5579 87.3316 34.8055 87.3574 35.0376C87.4348 35.1769 87.2078 35.2078 87.0892 35.2748L86.6921 35.4347C86.0783 35.6926 85.5213 35.7803 84.8354 36.0021C84.3712 36.131 84.0823 36.064 83.7729 35.9866C82.5351 35.641 81.354 35.3367 80.1884 34.8932C78.605 34.3052 77.1557 33.4181 75.8663 32.3453C75.3557 31.9327 74.9018 31.4479 74.4583 30.9734C73.0915 29.4571 72.0187 27.7138 71.2038 25.8829C71.0439 25.5218 70.884 25.1556 70.6984 24.8152C70.4714 24.4232 70.2754 24.0209 70.1259 23.5929C69.966 23.1751 69.8422 22.7419 69.7442 22.2983C69.4967 21.2462 69.1614 20.225 68.8829 19.1728C68.821 18.9304 68.7282 18.6828 68.7075 18.4353C68.5838 16.6972 68.3362 14.9384 68.6044 13.1694C68.8262 11.7459 69.311 10.3585 69.9815 9.08454C70.4766 8.08912 71.1987 7.2072 71.9104 6.40778C71.9568 6.3562 71.9878 6.28911 72.0342 6.23754C72.2457 6.02092 72.4365 5.93325 72.5654 5.98998C72.6892 6.05187 72.9007 6.09312 72.9987 6.36131C73.174 6.82034 73.1018 7.26391 72.813 7.6662L72.323 8.32639L71.8795 9.01749L71.9414 9.07421Z" fill="#87B1D9"/>
<path d="M32.0483 115.396L29.1239 115.808C29.0053 115.824 28.9022 115.901 28.8557 116.01L26.6638 120.77C26.6431 120.816 26.6328 120.868 26.6328 120.92C26.6792 131.23 26.8804 141.782 27.2517 152.572C27.7159 165.992 28.4173 179.041 29.3199 191.708C29.6861 196.87 33.7555 201.007 38.9079 201.455C43.5343 201.858 48.5475 202.085 53.8959 202.023C57.5217 201.982 60.9876 201.817 64.273 201.559C69.9618 201.11 74.2787 196.241 74.0157 190.542C72.8862 166.162 71.7566 141.782 70.6323 117.397C70.622 117.216 70.4776 117.072 70.297 117.062L32.1205 115.391C32.0896 115.391 32.0689 115.391 32.0483 115.396Z" fill="#CFE2F4"/>
<path d="M27.411 123.003C27.3646 126.005 27.3543 129.032 27.2666 132.003C27.1892 134.659 27.1067 137.259 27.3027 139.966C27.3543 140.663 27.3336 141.421 27.3491 142.153C27.38 143.479 27.411 144.809 27.4419 146.135C27.4626 146.738 27.5606 147.373 27.5399 147.935C27.4935 149.317 27.478 150.694 27.4935 152.071C27.5193 153.448 27.607 154.825 27.7359 156.208C27.6173 158.369 27.8494 160.489 28.0041 162.65C28.164 164.811 28.2207 167.018 28.4786 169.148C28.5457 169.715 28.5972 170.365 28.5972 170.938C28.6127 174.44 28.8706 177.926 29.1285 181.434C29.2677 183.316 29.3863 185.193 29.4792 187.071L29.603 189.887C29.6442 190.826 29.6494 191.775 29.7371 192.667C29.9743 194.591 30.882 196.54 32.2746 197.984C33.8992 199.738 36.1737 200.842 38.5256 201.11C42.0173 201.435 45.5451 201.548 49.042 201.491C53.7251 201.399 58.4288 201.136 63.1119 200.697L64.0093 200.615C64.3136 200.589 64.5612 200.542 64.8448 200.511C65.1233 200.491 65.3864 200.413 65.6546 200.357L66.062 200.269L66.454 200.14C67.5062 199.81 68.5119 199.299 69.399 198.629C71.1732 197.283 72.4626 195.307 72.9732 193.121C73.1125 192.574 73.1744 192.017 73.2208 191.455L73.2363 190.609L73.2053 189.701L73.0764 186.055C72.9371 182.403 72.7463 178.741 72.5503 175.09C72.344 171.68 72.1377 168.282 71.9314 164.872L70.2448 134.566C70.0953 132.137 69.9509 129.718 69.8013 127.289C69.7291 126.077 69.6724 124.86 69.6208 123.648L69.4093 118.294C69.4093 118.284 69.4145 118.263 69.399 118.263L69.3835 118.258H69.3732L69.2236 118.248L67.2844 118.15L63.411 117.964L44.0546 117.098C40.3927 116.927 36.7411 116.737 33.0947 116.716C32.5841 116.711 32.2437 116.68 32.0838 116.618C32.0786 116.174 32.0786 115.984 32.0735 115.746C32.0167 117.077 32.058 116.118 32.0425 116.412L32.0683 116.391C32.0889 116.381 32.1096 116.365 32.1353 116.35C32.811 115.947 33.3577 115.525 35.1216 115.349C36.3182 115.225 37.427 115.143 38.9021 115.272C41.0374 115.458 43.2964 115.354 45.3904 115.71C45.6844 115.762 46.1176 115.767 46.4683 115.767C52.7761 115.751 59.0993 116.185 65.4225 116.494L68.3211 116.608L69.8787 116.659C70.0385 116.664 70.1984 116.675 70.3428 116.701C70.4873 116.726 70.6265 116.747 70.7451 116.855C70.8638 116.953 70.936 117.093 70.9566 117.232C70.9875 117.371 71.0133 117.521 71.0236 117.68L71.0494 118.207L71.2403 122.235C71.3228 124.184 71.3692 126.134 71.4827 128.078C71.5652 129.543 71.7148 130.961 71.5188 132.302C71.4775 132.581 71.5291 133.354 71.6013 133.623C71.885 134.649 71.9159 135.866 71.9623 137.078L72.3595 146.903C72.4729 149.327 72.6225 151.752 72.7927 154.16C73.0661 157.905 73.3394 161.634 73.6179 165.378C73.8294 168.509 73.9893 171.66 74.1801 174.801C74.2214 175.528 74.309 176.245 74.3451 176.967C74.4173 178.303 74.5411 179.701 74.5153 180.959C74.4895 182.357 74.5205 183.445 74.7887 184.719C74.9383 185.436 74.9795 186.581 75.0053 187.519C75.0208 188.118 75.0208 188.716 75.0156 189.314C75.0053 189.918 75.0105 190.48 74.9589 191.145C74.8403 192.687 74.4741 194.059 73.9686 195.632C73.9067 195.849 73.8139 196.076 73.6953 196.303C73.5767 196.53 73.458 196.772 73.3136 197.004C73.0093 197.458 72.6844 197.912 72.3337 198.273C71.591 199.088 70.7503 199.82 69.8168 200.403C68.8884 200.986 67.8981 201.481 66.8408 201.785C66.583 201.878 66.3148 201.94 66.0466 201.997C65.7784 202.048 65.5153 202.136 65.242 202.162L64.4271 202.27C64.1537 202.306 63.9062 202.317 63.6483 202.342L60.5537 202.58C54.9474 202.977 49.3256 203.111 43.6987 202.899C42.595 202.858 41.4912 202.796 40.3875 202.724L38.7268 202.595L37.819 202.482C37.5199 202.43 37.2207 202.358 36.9268 202.296C36.0087 202.059 35.1113 201.739 34.2809 201.28C33.4402 200.842 32.6614 200.285 31.96 199.65C31.2431 199.026 30.6448 198.283 30.1033 197.51C29.5772 196.721 29.1543 195.87 28.8242 194.977C28.525 194.08 28.2775 193.157 28.2104 192.213C28.1485 191.723 28.1434 191.331 28.1124 190.898L28.0351 189.619L27.7411 184.502C27.6689 183.161 27.607 181.8 27.478 180.485C27.1892 177.442 27.0396 174.404 26.9571 171.356C26.854 167.683 26.5961 164.042 26.3485 160.396C26.2918 159.55 26.2093 158.689 26.1886 157.848C26.1319 154.913 26.003 151.989 25.9308 149.059C25.8431 146.135 25.7399 143.211 25.709 140.281C25.6522 135.546 25.6832 130.817 25.6935 126.087L25.7038 123.38L25.7141 122.028L25.7193 121.353V121.182C25.7245 121.126 25.7141 121.012 25.7244 120.93C25.7399 120.837 25.7606 120.744 25.7812 120.656L25.7967 120.589C25.7915 120.574 25.8173 120.569 25.7863 120.553L25.7967 120.522L25.8482 120.393L27.1015 117.851L27.7101 116.613L28.066 115.886C28.1434 115.721 28.231 115.566 28.3394 115.442C28.4528 115.313 28.6127 115.215 28.7674 115.169C28.8706 115.138 28.9789 115.107 29.0975 115.091L29.4895 115.029C29.572 115.019 29.6545 115.004 29.7371 114.993C31.8001 114.766 32.4912 114.978 31.5886 115.576C31.3359 115.741 31.0316 115.901 30.6757 116.045C30.4952 116.118 30.3044 116.185 30.0981 116.252C29.897 116.319 29.6236 116.386 29.5617 116.422C29.505 116.453 29.4379 116.458 29.3915 116.505C29.3399 116.551 29.3348 116.633 29.309 116.695L29.2729 116.793C29.2419 116.866 29.211 116.938 29.18 117.015C29.113 117.165 29.0408 117.319 28.9686 117.479L27.3336 120.935C27.313 120.971 27.2975 121.017 27.2975 121.059V121.255L27.3027 121.832L27.313 122.993L27.411 123.003Z" fill="#87B1D9"/>
<path d="M71.911 183.126C71.3437 183.177 70.7815 183.27 70.209 183.265C69.6984 183.27 69.1982 183.254 68.7443 183.517C68.6257 183.585 68.4812 183.59 68.3523 183.621C68.1151 183.677 67.8726 183.729 67.6354 183.801C67.5271 183.832 67.4291 183.946 67.3259 183.94C66.7947 183.909 66.2893 183.976 65.8148 184.229C65.3815 184.111 65.0256 184.327 64.6388 184.461C64.252 184.59 63.8446 184.616 63.4732 184.833C63.3752 184.889 63.2566 184.926 63.1483 184.915C62.4778 184.848 61.8486 185.008 61.2039 185.132C60.5127 185.276 59.8062 185.292 59.0996 185.183C58.7231 185.122 58.3362 185.158 57.9597 185.194L56.6136 185.364C55.9586 185.436 55.3139 185.513 54.664 185.679C53.7976 185.89 52.9156 186.065 52.0285 186.158C51.5798 186.21 51.1156 186.148 50.6617 186.107C49.7591 185.998 48.8514 185.895 47.9488 185.787C47.268 185.72 46.5872 185.684 45.9064 185.653C45.2669 185.632 44.6274 185.637 43.9878 185.596C42.095 185.472 40.2073 185.261 38.3248 184.982C37.8709 184.91 37.417 184.869 36.9631 184.807C36.7362 184.771 36.5144 184.719 36.2927 184.662C35.4726 184.451 34.6577 184.203 33.8428 183.976C32.6772 183.646 31.5116 183.306 30.3614 182.924C29.7116 182.697 29.072 182.45 28.3809 182.347C28.1849 182.321 28.1694 182.192 28.319 181.981C28.5821 181.619 28.8245 181.228 29.2113 181.093C29.4743 181.001 29.7116 180.949 29.9437 181.093C30.2892 181.305 30.7431 181.248 31.0319 181.614C31.0732 181.666 31.1505 181.676 31.2176 181.681C32.409 181.759 33.4766 182.223 34.5958 182.558C34.962 182.661 35.3437 182.713 35.715 182.79C35.9574 182.847 36.1947 182.893 36.4371 182.955C36.7826 183.043 37.123 183.172 37.4789 183.224C37.7471 183.265 38.0205 183.239 38.2061 183.538C38.2474 183.6 38.3866 183.616 38.4485 183.569C38.6806 183.378 38.8921 183.45 39.1139 183.497C39.7018 183.621 40.2846 183.786 40.8829 183.868C41.3213 183.935 41.77 183.976 42.2136 183.982C42.9099 183.987 43.601 183.956 44.2921 183.946C44.8698 183.94 45.4422 183.997 46.0199 183.997C46.154 183.997 46.2881 183.961 46.4222 183.966C46.6646 183.977 46.9225 183.94 47.1443 184.044C47.3918 184.152 47.5878 184.183 47.8354 183.987C47.9746 183.879 48.1809 183.904 48.3511 183.935C48.5678 183.977 48.7792 184.069 48.9907 184.157C49.2434 184.26 49.4806 184.369 49.7643 184.219C49.9139 184.142 50.1202 184.198 50.2852 184.26C51.0228 184.544 51.7809 184.508 52.5288 184.451C53.55 184.348 54.566 184.193 55.5718 184.038C55.9689 183.987 56.366 183.946 56.7632 183.904C57.9958 183.775 59.2337 183.714 60.4767 183.641C60.7191 183.626 60.9666 183.615 61.1987 183.538C61.7351 183.368 62.2818 183.301 62.844 183.296C63.5145 183.275 64.1592 183.079 64.7936 182.868C64.9431 182.816 65.0824 182.739 65.2371 182.728C66.3047 182.646 67.3002 182.207 68.3368 182.001C69.1775 181.831 70.0388 181.738 70.895 181.599C71.5552 181.496 72.2205 181.408 72.8858 181.3C72.9271 181.295 72.9683 181.258 73.0096 181.253C73.3913 181.202 73.6027 181.454 73.5718 181.955C73.546 182.393 73.3706 182.703 73.0354 182.801C72.664 182.909 72.2824 182.981 71.9059 183.069L71.911 183.126Z" fill="#87B1D9"/>
<path d="M30.2568 172.849C30.7364 173.143 31.2316 173.416 31.7009 173.736C32.1187 174.025 32.5313 174.313 33.0573 174.334C33.1914 174.339 33.3152 174.417 33.4442 174.458C33.6763 174.535 33.9135 174.607 34.1508 174.669C34.2591 174.695 34.3983 174.649 34.486 174.705C34.9296 174.999 35.4144 175.17 35.9508 175.159C36.2809 175.464 36.7038 175.417 37.1061 175.458C37.5084 175.505 37.8952 175.644 38.3181 175.582C38.4316 175.567 38.5502 175.577 38.6482 175.629C39.2413 175.943 39.8912 176.005 40.5359 176.093C41.227 176.18 41.9026 176.351 42.5628 176.645C42.9135 176.794 43.3003 176.846 43.6768 176.897C44.1256 176.97 44.5846 176.954 45.0333 176.99C45.6883 177.052 46.3433 177.052 47.0035 176.964C47.8803 176.866 48.7622 176.737 49.6339 176.686C50.0774 176.639 50.5261 176.712 50.9697 176.753C51.862 176.83 52.7542 176.913 53.6517 176.928C54.3273 176.928 54.9978 176.892 55.6683 176.81C56.2923 176.748 56.9113 176.608 57.5302 176.511C59.3714 176.227 61.192 175.866 62.9869 175.412C63.415 175.298 63.8431 175.17 64.266 175.035C64.4774 174.974 64.6941 174.922 64.9107 174.881C65.7153 174.716 66.525 174.551 67.3193 174.339C68.4591 174.035 69.5835 173.679 70.7027 173.308C71.3371 173.096 71.9818 172.9 72.5491 172.529C72.709 172.426 72.807 172.513 72.8327 172.766C72.874 173.21 72.9462 173.658 72.7296 174.019C72.5852 174.262 72.4356 174.458 72.152 174.494C71.7445 174.545 71.4093 174.876 70.9502 174.757C70.8832 174.741 70.811 174.778 70.7542 174.814C69.7279 175.469 68.5365 175.675 67.3812 175.948C67.0047 176.041 66.6385 176.186 66.2671 176.289C66.0247 176.356 65.7823 176.423 65.5347 176.474C65.1737 176.547 64.8075 176.588 64.4568 176.691C64.1938 176.768 63.9462 176.897 63.6522 176.701C63.5903 176.66 63.4511 176.701 63.415 176.774C63.2706 177.042 63.0436 177.062 62.8167 177.098L60.9858 177.356C60.537 177.423 60.0935 177.537 59.6499 177.65C58.964 177.826 58.278 178.053 57.5817 178.192C56.9989 178.321 56.4058 178.383 55.8127 178.465C55.6734 178.486 55.5445 178.543 55.4052 178.558C55.1525 178.589 54.8895 178.661 54.6471 178.584C54.3789 178.501 54.1726 178.491 53.9353 178.713C53.8012 178.837 53.5846 178.831 53.4041 178.821C53.1771 178.806 52.9451 178.723 52.7233 178.646C52.4551 178.553 52.2075 178.455 51.9187 178.615C51.764 178.697 51.5525 178.656 51.3772 178.594C50.6087 178.321 49.835 178.347 49.0511 178.372L47.4574 178.445L45.8585 178.476C45.4407 178.476 45.023 178.429 44.6104 178.398C43.3107 178.3 42.0367 178.037 40.7783 177.738C40.5307 177.681 40.2832 177.609 40.0253 177.604C39.4373 177.588 38.8751 177.46 38.3284 177.248C37.6682 177.011 36.9771 176.928 36.2808 176.841C36.121 176.82 35.9456 176.83 35.796 176.774C34.7542 176.356 33.6299 176.247 32.5829 175.845C31.737 175.525 30.9324 175.108 30.133 174.69C29.5141 174.37 28.9158 174.009 28.3227 173.653C28.2814 173.627 28.2298 173.627 28.1937 173.607C27.8585 173.39 27.8688 173.065 28.2195 172.709C28.5341 172.395 28.8591 172.271 29.1737 172.415C29.5192 172.57 29.8648 172.745 30.2052 172.911L30.2568 172.849Z" fill="#87B1D9"/>
<path d="M60.9561 172.37C61.0438 171.803 61.1005 171.231 61.2295 170.663C61.3429 170.158 61.4667 169.668 61.3068 169.157C61.2656 169.028 61.2965 168.884 61.2913 168.745C61.281 168.497 61.2759 168.244 61.2553 167.997C61.2449 167.883 61.1573 167.765 61.183 167.662C61.312 167.136 61.3378 166.62 61.1624 166.104C61.3481 165.691 61.1934 165.294 61.1212 164.892C61.0489 164.485 61.0799 164.067 60.9149 163.67C60.8736 163.561 60.853 163.443 60.8787 163.334C61.0232 162.669 60.9458 162.014 60.8839 161.354C60.8169 160.642 60.853 159.936 61.0129 159.224C61.1005 158.847 61.085 158.45 61.0696 158.068C61.0541 157.609 60.9871 157.15 60.9561 156.691C60.9148 156.026 60.8426 155.366 60.6828 154.706C60.4713 153.829 60.3011 152.942 60.167 152.05C60.0999 151.596 60.1515 151.132 60.167 150.678C60.2031 149.76 60.2753 148.842 60.2908 147.924C60.3011 147.232 60.265 146.546 60.2134 145.855C60.167 145.211 60.069 144.576 60.0174 143.932C59.8627 142.028 59.7234 140.125 59.5739 138.222C59.5378 137.763 59.4707 137.309 59.4295 136.85C59.4088 136.623 59.3985 136.391 59.3985 136.164C59.3985 135.313 59.414 134.462 59.4037 133.616C59.383 132.399 59.3366 131.182 59.3212 129.965C59.3108 129.274 59.3263 128.582 59.1664 127.902C59.12 127.711 59.2335 127.644 59.4862 127.711C59.9194 127.824 60.3681 127.912 60.6312 128.232C60.8117 128.448 60.951 128.655 60.8942 128.933C60.8117 129.341 61.0232 129.758 60.7756 130.161C60.7395 130.217 60.755 130.3 60.7756 130.362C61.1005 131.543 60.9819 132.74 60.9767 133.931C60.9767 134.323 61.0335 134.71 61.0593 135.102C61.0747 135.354 61.085 135.607 61.085 135.86C61.085 136.226 61.0541 136.597 61.085 136.964C61.1108 137.242 61.1985 137.505 60.9509 137.763C60.8994 137.815 60.9149 137.964 60.9767 138.011C61.2192 138.201 61.1985 138.428 61.1985 138.66C61.1985 139.279 61.1727 139.898 61.1934 140.512C61.2088 140.971 61.2604 141.425 61.3275 141.879C61.4358 142.585 61.5905 143.282 61.6885 143.988C61.771 144.576 61.802 145.169 61.8639 145.762C61.8793 145.902 61.9309 146.036 61.9412 146.17C61.9618 146.423 62.0237 146.686 61.9464 146.923C61.8639 147.186 61.8484 147.392 62.065 147.629C62.1836 147.764 62.1785 147.98 62.163 148.156C62.1424 148.383 62.0701 148.609 61.9979 148.831C61.9103 149.099 61.8174 149.352 61.9825 149.631C62.0701 149.78 62.0289 149.997 61.9722 150.172C61.7452 150.946 61.7865 151.725 61.8793 152.498C62.0031 153.55 62.1681 154.597 62.2971 155.644C62.3487 156.057 62.3693 156.47 62.3951 156.882C62.4828 158.167 62.457 159.456 62.4209 160.745C62.4157 160.998 62.4002 161.256 62.4518 161.503C62.5756 162.076 62.5653 162.648 62.5086 163.226C62.4415 163.917 62.5446 164.603 62.6581 165.289C62.6839 165.449 62.7406 165.609 62.7252 165.769C62.6375 166.878 62.8799 167.971 62.8644 169.075C62.8541 169.967 62.7561 170.859 62.6736 171.752C62.6117 172.443 62.524 173.129 62.4467 173.82C62.4415 173.866 62.4621 173.913 62.457 173.959C62.4002 174.351 62.1011 174.485 61.6266 174.31C61.2088 174.16 60.9613 173.907 60.9613 173.552C60.9613 173.16 60.9871 172.773 60.9974 172.381C60.9974 172.37 60.9767 172.37 60.9561 172.37Z" fill="#87B1D9"/>
<path d="M40.5271 131.159C40.4394 131.736 40.3878 132.319 40.2589 132.897C40.1454 133.407 40.0216 133.913 40.1867 134.428C40.2279 134.563 40.197 134.707 40.2021 134.846C40.2125 135.099 40.2176 135.357 40.2382 135.61C40.2486 135.723 40.3362 135.847 40.3105 135.955C40.1815 136.491 40.1557 137.018 40.3311 137.544C40.1454 137.961 40.3001 138.369 40.3723 138.781C40.4446 139.194 40.4136 139.622 40.5786 140.024C40.6199 140.133 40.6405 140.257 40.6148 140.37C40.4703 141.046 40.5477 141.716 40.6096 142.392C40.6766 143.114 40.6457 143.836 40.4807 144.563C40.393 144.95 40.4085 145.352 40.4239 145.744C40.4394 146.214 40.5064 146.678 40.5374 147.147C40.5787 147.828 40.656 148.498 40.8159 149.169C41.0274 150.066 41.2027 150.969 41.3317 151.871C41.3987 152.33 41.3523 152.805 41.3317 153.269C41.2955 154.203 41.2285 155.141 41.213 156.075C41.2027 156.776 41.244 157.478 41.2904 158.179C41.3368 158.834 41.44 159.484 41.4915 160.139C41.6463 162.078 41.7907 164.018 41.9454 165.957C41.9815 166.421 42.0486 166.885 42.0898 167.355C42.1104 167.587 42.1208 167.819 42.1208 168.056C42.1208 168.922 42.1053 169.789 42.1208 170.655C42.1414 171.893 42.1878 173.136 42.2084 174.374C42.2188 175.075 42.2084 175.782 42.3632 176.473C42.4096 176.669 42.2961 176.736 42.0434 176.669C41.6102 176.556 41.1615 176.468 40.8933 176.138C40.7128 175.916 40.5735 175.705 40.6302 175.421C40.7127 175.008 40.4961 174.58 40.7437 174.168C40.7798 174.111 40.7643 174.028 40.7437 173.961C40.4136 172.76 40.5374 171.542 40.5374 170.325C40.5374 169.928 40.4807 169.531 40.4549 169.134C40.4394 168.876 40.4291 168.618 40.4291 168.36C40.4239 167.984 40.46 167.612 40.4291 167.236C40.4033 166.952 40.3156 166.684 40.5632 166.421C40.6147 166.364 40.5993 166.22 40.5374 166.168C40.295 165.977 40.3156 165.74 40.3156 165.508C40.3156 164.879 40.3362 164.25 40.3156 163.62C40.3001 163.156 40.2486 162.692 40.1815 162.228C40.0732 161.511 39.9185 160.799 39.8153 160.077C39.7328 159.479 39.6967 158.87 39.64 158.272C39.6245 158.133 39.5729 157.994 39.5626 157.854C39.542 157.596 39.4801 157.328 39.5574 157.086C39.64 156.818 39.6554 156.606 39.4388 156.364C39.3202 156.23 39.3254 156.008 39.3408 155.827C39.3615 155.595 39.4337 155.363 39.5059 155.136C39.5936 154.863 39.6864 154.605 39.5213 154.321C39.4337 154.167 39.4749 153.95 39.5265 153.769C39.7534 152.98 39.7122 152.191 39.6193 151.402C39.4956 150.334 39.3305 149.267 39.1964 148.194C39.1448 147.776 39.1242 147.353 39.0984 146.93C39.0107 145.62 39.0365 144.31 39.0675 142.995C39.0726 142.737 39.0881 142.474 39.0365 142.227C38.9127 141.644 38.9231 141.061 38.9798 140.473C39.0468 139.767 38.9385 139.07 38.8251 138.374C38.7993 138.214 38.7425 138.049 38.758 137.889C38.8457 136.76 38.6033 135.646 38.6136 134.521C38.6239 133.613 38.7219 132.701 38.7993 131.793C38.8612 131.091 38.9489 130.39 39.0211 129.689C39.0262 129.642 39.0056 129.596 39.0107 129.549C39.0675 129.147 39.3666 129.013 39.836 129.188C40.2537 129.343 40.5013 129.601 40.5013 129.957C40.5064 130.354 40.4807 130.751 40.4652 131.148C40.4807 131.159 40.5013 131.159 40.5271 131.159Z" fill="#87B1D9"/>
<path d="M42.5697 93.3673C44.9267 89.4888 50.4763 89.2618 53.1376 92.9392L70.4362 116.84C70.5342 116.974 70.5239 117.159 70.4104 117.283L60.6831 127.841C60.5491 127.99 60.317 127.99 60.1777 127.851L49.7955 117.35C49.6511 117.201 49.4086 117.216 49.2745 117.376L39.996 128.769C39.8568 128.939 39.5937 128.939 39.4545 128.769L28.8453 116.788C28.7421 116.68 42.5697 93.3673 42.5697 93.3673Z" fill="#CFE2F4"/>
<path d="M47.1062 89.6381C47.9882 89.5607 48.8804 89.6845 49.7108 89.9423C50.1337 90.0558 50.5205 90.2569 50.9074 90.4374C51.2684 90.6695 51.6397 90.881 51.9492 91.175C52.532 91.6495 52.9704 92.2529 53.383 92.8409C53.7647 93.4237 54.1824 93.9911 54.6621 94.5326C54.9096 94.8111 55.116 95.1566 55.3429 95.4661L56.591 97.163C56.7819 97.4209 57.05 97.6427 57.1996 97.8954C57.9423 99.1641 58.7624 100.366 59.7475 101.459C60.2581 102.501 61.0317 103.326 61.7538 104.219C62.4758 105.111 63.1257 106.08 63.9148 106.911C64.1211 107.133 64.3377 107.401 64.4925 107.664C65.4415 109.258 66.5761 110.722 67.7057 112.208C68.2059 112.868 68.6959 113.543 69.1704 114.224L69.8667 115.256L70.6042 116.396C70.7125 116.581 70.8105 116.746 70.8518 116.937C70.8879 117.143 70.7796 117.34 70.6403 117.474C70.434 117.706 70.1452 117.964 69.9698 118.144C69.779 118.335 69.5882 118.531 69.4025 118.722C69.0311 119.119 68.6598 119.521 68.2884 119.918C67.4168 120.867 66.5813 121.852 65.72 122.812C64.4667 124.204 63.2495 125.607 62.0942 127.067L61.7744 127.469C61.6145 127.66 61.4598 127.851 61.2999 128.042C61.171 128.191 61.0266 128.315 60.8925 128.418C60.7635 128.521 60.5933 128.593 60.4076 128.593C60.2117 128.599 60.0672 128.526 59.9228 128.449C59.7681 128.366 59.6134 128.253 59.4638 128.109L59.0099 127.686L58.7005 127.407L58.1022 126.866C57.3079 126.138 56.5137 125.406 55.7142 124.679C54.7807 123.812 53.9142 122.843 53.0323 121.909L50.3967 119.088L50.0667 118.737L49.948 118.608L49.8861 118.536L49.7572 118.387C49.7159 118.34 49.6695 118.273 49.5973 118.268C49.5251 118.258 49.4787 118.314 49.4374 118.361L49.3033 118.51L49.128 118.706L48.8185 119.078C47.5755 120.558 46.3635 122.074 45.1669 123.591L41.8609 127.877L40.8088 129.207C40.6437 129.413 40.4529 129.553 40.2775 129.656C40.1176 129.759 39.8907 129.826 39.6586 129.811C39.4162 129.795 39.2615 129.713 39.0707 129.604C38.8798 129.496 38.6941 129.31 38.5188 129.109L37.0747 127.531L34.5836 124.813L29.5961 119.382L28.0334 117.695C27.9045 117.582 27.8787 117.458 27.8219 117.334L27.6672 116.963L27.6569 116.942V116.937C27.4867 116.958 27.8838 116.911 27.8426 116.911V116.906V116.896L27.8374 116.85L27.8271 116.757L27.8116 116.571C27.7807 116.452 27.8271 116.308 27.8683 116.164C27.9096 116.024 27.9354 115.88 27.987 115.741L28.2036 115.344L28.4357 114.915C28.7451 114.343 29.0701 113.786 29.395 113.234L33.0775 107.091L38.3073 98.2719C39.3028 96.606 40.3188 94.9607 41.1801 93.2329C41.4225 92.7481 41.6134 92.6552 41.7217 92.9544C41.9125 93.4753 42.1549 93.9395 41.9022 94.8679C41.732 95.4971 41.5463 96.0696 41.0924 96.7091C40.4374 97.6375 39.999 98.767 39.2099 99.5922C39.0965 99.7108 38.9933 99.912 38.9108 100.082C37.4666 103.099 35.6305 105.905 33.9027 108.773C33.3406 109.711 32.8248 110.676 32.2833 111.63L31.2105 113.471C30.6844 114.358 30.1274 115.23 29.6426 116.133C29.5807 116.256 29.5188 116.38 29.4569 116.499C29.4208 116.607 29.2764 116.736 29.4208 116.824C29.5755 117.015 29.6838 117.2 29.854 117.582C29.9108 117.726 30.1944 118.025 30.3337 118.092C30.8752 118.35 31.2827 118.846 31.7004 119.33C32.8351 120.64 33.9543 121.966 35.1096 123.26C35.9606 124.22 36.8426 125.158 37.7297 126.076L39.2202 127.598C39.3595 127.727 39.4884 127.845 39.6122 127.943C39.6844 127.985 39.7927 127.954 39.8391 127.877L39.9836 127.655C40.03 127.557 40.4374 127.01 40.7469 126.597C41.7423 125.267 42.7841 123.967 43.8053 122.647C44.0426 122.342 44.2437 122.017 44.481 121.713C44.9194 121.156 45.3423 120.548 45.8271 120.083C46.3635 119.568 46.74 119.134 47.0082 118.474C47.0856 118.288 47.2197 118.082 47.3796 117.871C47.4569 117.768 47.5446 117.664 47.6271 117.561C47.7612 117.407 47.8901 117.247 48.0139 117.102C48.2099 116.88 48.3956 116.623 48.6122 116.468C48.8391 116.313 49.0145 116.236 49.2518 116.195C49.4942 116.153 49.7727 116.194 49.9584 116.287C50.1543 116.375 50.3658 116.519 50.5515 116.726C50.7629 116.973 50.9744 117.216 51.1807 117.458C51.2942 117.603 51.4128 117.742 51.5366 117.881C51.7841 118.154 52.0575 118.412 52.3927 118.639C52.7538 118.887 53.1406 119.346 53.4397 119.733C54.7756 121.44 56.3228 122.977 57.9062 124.478L59.7423 126.211L59.9744 126.427L60.0879 126.535C60.1188 126.566 60.1188 126.561 60.1395 126.577L60.289 126.695C60.3303 126.731 60.387 126.773 60.4489 126.731C60.5005 126.69 60.5263 126.628 60.5624 126.582L60.6346 126.474L60.9389 126.118L61.5578 125.391L62.8008 123.941C63.5538 123.064 64.3377 122.203 65.1165 121.337C65.9417 120.413 66.7773 119.501 67.6231 118.593L68.8919 117.236L69.0518 117.066L69.0724 117.051L69.1137 117.015C69.1498 116.989 69.1292 116.947 69.1085 116.922L67.3549 114.395C66.9526 113.812 66.5452 113.213 66.1016 112.677C65.0701 111.429 64.1469 110.114 63.265 108.768C62.1973 107.143 60.9956 105.632 59.7887 104.121C59.5102 103.77 59.2008 103.429 58.9532 103.063C57.2357 100.479 55.25 98.1017 53.4707 95.5693L52.4031 94.0272L52.14 93.6404L51.9079 93.336C51.7687 93.1194 51.5778 92.9492 51.4025 92.7635C50.6856 92.0415 49.7211 91.5618 48.6844 91.3762C47.0856 91.0822 45.3165 91.5257 44.0426 92.6656C43.9652 92.7429 43.8982 92.8461 43.8208 92.9234C43.6351 93.0833 43.4959 93.2329 43.3721 93.3412C43.2431 93.4495 43.1245 93.5114 43.0214 93.5372C42.8151 93.5836 42.6655 93.4598 42.6242 93.1143C42.5933 92.8151 42.6139 92.4386 42.8099 92.0828C42.9027 91.9022 43.0111 91.701 43.1658 91.5205C43.3257 91.3452 43.5165 91.1647 43.728 90.9893C44.7131 90.2518 45.9045 89.8289 47.101 89.7051L47.1062 89.6381Z" fill="#87B1D9"/>
<path d="M53.1428 92.9449C50.4814 89.2676 44.9319 89.4894 42.5748 93.373L38.4694 100.135C38.3817 100.279 38.4075 100.47 38.5364 100.578C39.3617 101.29 42.2138 103.415 48.3668 103.415C52.7198 103.415 56.1703 101.842 58.2694 100.697C58.4551 100.594 58.5067 100.356 58.3829 100.186L53.1428 92.9449Z" fill="#87B1D9"/>
</svg>
