<svg width="634" height="130" viewBox="0 0 634 130" fill="none" xmlns="http://www.w3.org/2000/svg">
<path d="M583.981 80C585.068 80.2652 586.168 80.4508 587.242 80.822C588.21 81.1534 589.151 81.4981 590.132 81.1269C590.384 81.0341 590.663 81.1136 590.928 81.1136C591.405 81.1136 591.896 81.1136 592.373 81.0739C592.598 81.0606 592.824 80.8352 593.022 80.9148C594.017 81.286 595.024 81.3921 596.019 80.9811C596.801 81.4849 597.57 81.1269 598.352 80.9678C599.134 80.8087 599.943 80.9148 600.712 80.5303C600.924 80.4242 601.149 80.3845 601.362 80.464C602.634 80.8883 603.894 80.7292 605.166 80.6231C606.532 80.5038 607.898 80.6364 609.25 81.1136C609.979 81.3655 610.735 81.3523 611.477 81.3523C612.365 81.3523 613.24 81.2064 614.129 81.1667C615.468 81.0871 616.807 81.0076 618.185 80.928C620.081 80.822 622.07 81.1269 623.939 81.8693C624.403 82.0682 624.841 82.3333 625.252 82.6383L626.392 83.6591C627.864 85.0777 628.99 86.7481 629.932 88.4716C630.674 89.7444 631.271 91.1099 631.828 92.4887C632.278 93.7879 632.769 95.127 632.928 96.5455C632.981 97.0493 633.047 97.6194 633.074 98.0834L633.153 99.4622L633.312 102.22L633.631 107.722C633.684 108.61 633.816 109.485 633.882 110.36C633.922 110.797 633.922 111.248 633.896 111.686C633.829 113.316 633.71 114.947 633.67 116.591L633.564 123.618C633.525 124.943 633.432 126.269 633.776 127.595C633.869 127.966 633.578 128.085 632.941 127.94C631.841 127.688 630.687 127.489 630.038 126.852C629.6 126.415 629.256 126.017 629.428 125.487C629.667 124.718 629.163 123.896 629.839 123.127C629.932 123.021 629.905 122.862 629.865 122.729C629.123 120.436 629.547 118.142 629.653 115.849C629.693 115.093 629.574 114.351 629.547 113.595C629.534 113.104 629.534 112.627 629.547 112.136C629.574 111.434 629.693 110.718 629.64 110.015C629.6 109.485 629.401 108.968 630.051 108.491C630.184 108.385 630.157 108.106 629.998 108.013C629.401 107.629 629.468 107.191 629.481 106.754C629.534 105.561 629.653 104.381 629.653 103.188C629.653 102.313 629.56 101.424 629.428 100.549C629.203 99.2103 628.898 97.7387 628.619 96.6383L628.248 95.1932C628.115 94.716 627.93 94.2652 627.771 93.8144C627.665 93.6156 627.466 93.4432 627.386 93.2444C627.227 92.8599 626.949 92.5285 626.962 92.1042C626.989 91.6269 626.896 91.269 626.22 91.2159C625.848 91.1762 625.703 90.8845 625.61 90.6194C625.451 90.3012 625.411 89.8902 625.358 89.4792C625.292 88.9887 625.172 88.5114 624.576 88.4451C624.271 88.4053 624.085 88.1004 623.979 87.7955C623.754 87.1061 623.29 86.6288 622.799 86.1781C622.256 85.8068 621.685 85.4754 621.036 85.2898C619.326 84.7197 617.549 84.6137 615.865 84.7728C615.534 84.8125 615.229 84.8125 614.871 84.8258L613.678 84.8788C611.199 85.0114 608.733 84.8523 606.254 84.6667C605.763 84.6269 605.273 84.5739 604.795 84.6932C603.695 84.9716 602.595 84.9053 601.481 84.7065C600.155 84.4811 598.829 84.7065 597.504 84.9451C597.199 84.9981 596.88 85.1307 596.576 85.0909C594.454 84.786 592.333 85.3296 590.212 85.2102C588.502 85.1174 586.791 84.7993 585.068 84.5341C583.742 84.322 582.43 84.0436 581.104 83.8049C581.011 83.7917 580.932 83.8447 580.839 83.8182C580.083 83.6459 579.844 82.8636 580.202 81.6705C580.521 80.6099 581.011 80 581.687 80.0133C582.443 80.0398 583.185 80.1326 583.941 80.1856L583.981 80Z" fill="#E4C985"/>
<path d="M28.9198 107.507L95.3297 8.1562C95.405 8.04562 95.5388 8.00086 95.6655 8.0468L114.781 15.0073C114.958 15.0706 115.025 15.2777 114.922 15.4313C114.922 15.4313 47.341 116.725 47.2155 116.658L29.0284 107.91C28.8773 107.845 28.8284 107.647 28.9198 107.507Z" fill="white"/>
<path d="M35.0826 96.8102C37.0857 94.0225 39.0706 91.1923 41.0907 88.468C42.8922 86.0312 44.6685 83.6423 46.2546 80.9848C46.6665 80.2982 47.1782 79.5999 47.6385 78.905C48.4796 77.6415 49.3158 76.3808 50.1519 75.1202C50.5269 74.5416 50.8555 73.8836 51.2347 73.3692C53.1203 70.8367 54.8969 68.2545 56.5096 65.5282C58.0632 63.6024 59.2756 61.5027 60.5964 59.4064C61.9123 57.3129 63.3512 55.2476 64.5719 53.1164C64.8964 52.5541 65.2938 51.9225 65.685 51.3945C68.0573 48.1782 70.2222 44.8232 72.4119 41.4538C74.7614 37.8445 77.1979 34.3045 79.7466 30.8654C81.1028 29.0348 82.4253 27.044 83.7226 25.1013C85.2475 22.7726 86.7675 20.4468 88.2925 18.1181C89.3691 16.4706 90.4359 14.829 91.5026 13.1873L93.0747 10.7111L94.7217 8.07803C94.8012 7.95172 94.8894 7.84036 94.9784 7.74179C95.0533 7.66475 95.1154 7.58848 95.2148 7.53049C95.3092 7.4754 95.4259 7.44723 95.5295 7.45342C95.7286 7.46373 95.9502 7.50096 96.1771 7.58165L97.2993 7.95244L99.2138 8.57353C100.491 8.99354 101.769 9.41353 103.051 9.83064C105.61 10.6885 108.169 11.5463 110.733 12.4012C111.353 12.6188 111.973 12.8365 112.6 13.0563C113.39 13.348 114.188 13.6418 114.982 13.9307C115.276 14.0457 115.498 14.2092 115.661 14.374C115.744 14.4589 115.805 14.5296 115.868 14.6261C115.934 14.7275 115.981 14.8663 116.002 14.9938C116.022 15.1292 116.017 15.2249 116.001 15.3342C115.97 15.4522 115.972 15.5578 115.913 15.6853C115.773 15.947 115.694 16.1997 115.494 16.4627C115.014 17.1692 114.531 17.8708 114.048 18.5723C110.905 23.1507 107.765 27.7212 104.622 32.2995C102.28 35.751 99.9747 39.2413 97.6819 42.7309C95.5604 46.0005 93.4489 49.2644 91.3275 52.534L72.3426 81.5181C70.8305 83.846 69.3234 86.171 67.8142 88.5038C67.0591 89.6638 66.2834 90.8226 65.5069 91.9686L56.8501 104.754L52.4172 111.344L50.1968 114.638L49.0717 116.294L48.5936 116.993C48.5278 117.131 48.3911 117.171 48.2748 117.245L47.922 117.451C47.814 117.494 47.7071 117.517 47.5962 117.555L47.5179 117.581L47.4773 117.591L47.4595 117.595L47.4546 117.598C47.3829 117.326 47.5507 117.968 47.5308 117.899L47.518 117.9L47.3238 117.887C47.0666 117.857 46.817 117.863 46.5532 117.811L40.4432 114.862C36.6746 113.039 32.9251 111.191 29.1024 109.525C28.8345 109.409 28.6137 109.304 28.4452 109.21L28.3864 109.177C28.3785 109.175 28.2766 109.115 28.2257 109.085C28.1689 109.044 28.1201 109.006 28.0712 108.968C27.8778 108.808 27.739 108.616 27.6466 108.423C27.4648 108.043 27.4593 107.68 27.5147 107.421C27.6426 106.887 27.8732 106.746 27.8744 106.805C27.9092 106.865 27.7271 107.158 27.7997 107.681C27.8693 108.12 28.163 108.475 28.5134 108.63C28.5506 108.649 28.6301 108.682 28.6372 108.671L28.6807 108.666L28.7627 108.658L28.9316 108.639C29.1597 108.619 29.3987 108.607 29.6699 108.615C30.2123 108.631 30.8869 108.737 31.853 109.046C33.1612 109.461 34.3687 109.875 35.8509 110.669C38.0085 111.821 40.4265 112.734 42.4649 114.035C42.7528 114.221 43.2042 114.423 43.5723 114.575C44.6018 115.026 45.6284 115.473 46.6629 115.922L47.0211 116.079C47.0368 116.083 47.0505 116.095 47.0633 116.094L47.0944 116.056L47.1507 115.97L47.2612 115.805L47.7538 115.052L48.9981 113.167L51.524 109.414C53.2265 106.922 54.9262 104.425 56.6287 101.932C57.9538 99.9802 59.227 97.9849 60.5276 96.0136L63.08 92.1927C64.3268 90.346 65.6059 88.5205 66.8183 86.6606C67.7381 85.2579 68.5651 83.856 69.6411 82.7551C69.8658 82.524 70.3464 81.784 70.4615 81.4904C70.9064 80.3582 71.6966 79.2243 72.4703 78.0734L78.7543 68.7775C80.2888 66.4765 81.798 64.1437 83.2766 61.8154C85.5631 58.1896 87.8377 54.5775 90.1243 50.9517C92.0503 47.9293 94.0343 44.9264 95.9918 41.9123C96.4443 41.2153 96.8545 40.5029 97.3069 39.8059C98.1422 38.5325 98.9817 37.1633 99.8539 36.0215C100.821 34.7575 101.528 33.7321 102.152 32.382C102.503 31.6246 103.242 30.5404 103.851 29.6657C104.634 28.5426 105.466 27.4575 106.279 26.3968C107.258 25.1192 108.189 23.9297 109.002 22.3896C109.439 21.5621 110.204 20.5227 110.841 19.6848C111.549 18.7522 112.24 17.8025 112.925 16.8429L113.419 16.1484L113.642 15.8453L113.755 15.6858C113.801 15.639 113.817 15.5633 113.777 15.5066C113.68 15.4304 113.552 15.4051 113.432 15.3484L112.175 14.8833L110.53 14.2911L107.222 13.1312L100.865 10.9467L97.6857 9.85833L96.1303 9.3274L95.9336 9.27568C95.8549 9.25499 95.8359 9.35938 95.8028 9.40535L92.9234 13.9099C91.5719 16.0109 90.184 18.1064 88.801 20.1991C84.5101 26.7131 80.1294 33.153 75.73 39.5839C74.8681 40.8462 73.9844 42.1279 73.1904 43.4039C71.3509 46.3691 69.4041 49.2304 67.4023 52.0773C64.9918 55.5023 62.7628 59.0212 60.5338 62.5402C60.0147 63.3626 59.5151 64.207 58.9679 64.9927C55.1364 70.4792 51.6292 76.1563 47.8772 81.6764C44.8434 86.1446 41.7334 90.5507 38.642 94.9659C36.2378 98.3673 33.8485 101.76 31.4492 105.158C31.2936 105.382 31.1525 105.631 30.9939 105.85C29.6159 107.78 28.9141 108.21 29.1084 106.991C29.2784 105.913 29.9244 104.463 31.1191 102.687L35.1157 96.8441L35.0826 96.8102Z" fill="#E4C985"/>
<path d="M47.6636 95.1691C47.6022 95.0184 47.5257 94.91 47.4797 94.717C47.4403 94.5468 47.4058 94.3737 47.2535 94.4893C47.2166 94.5175 47.2034 94.4719 47.1748 94.4686C47.1276 94.4562 47.0824 94.4359 47.0332 94.4314C47.0125 94.4301 46.9533 94.5113 46.9458 94.4757C46.9106 94.2898 46.8307 94.2099 46.6713 94.3362C46.6741 94.1014 46.5454 94.2232 46.4472 94.2605C46.3491 94.2978 46.2849 94.2221 46.1541 94.3517C46.1201 94.3848 46.0924 94.3943 46.082 94.3537C46.0265 94.1331 45.8832 94.1501 45.7441 94.1514C45.5971 94.1506 45.4869 94.0417 45.4277 93.8032C45.3986 93.6736 45.325 93.65 45.2512 93.6264C45.1668 93.5958 45.0628 93.6231 44.9663 93.6062C44.8334 93.5839 44.6922 93.593 44.5183 93.6945C44.2819 93.8258 44.0608 93.9148 43.8579 93.9667C43.754 93.994 43.696 93.8947 43.6248 93.8297C43.4823 93.6997 43.353 93.5353 43.1994 93.4318C43.0859 93.3515 42.9501 93.3242 42.8122 93.3048C42.6822 93.2875 42.5327 93.328 42.4006 93.3185C42.0122 93.2921 41.6279 93.25 41.2416 93.2157C41.1509 93.2087 41.0441 93.2311 40.9485 93.227C40.9021 93.2274 40.8598 93.2121 40.8196 93.1889C40.6726 93.1082 40.5318 93.0038 40.3827 92.931C40.1649 92.8317 39.9359 92.7588 39.723 92.6566C39.6005 92.5949 39.4869 92.5146 39.3052 92.614C39.2555 92.643 39.2886 92.5172 39.4012 92.265C39.592 91.8273 39.789 91.3659 39.9538 91.1232C40.0643 90.9588 40.1566 90.8317 40.1802 90.9178C40.2192 91.0416 40.3752 90.8639 40.343 91.1625C40.3405 91.2039 40.3583 91.2001 40.3753 91.1836C40.7115 90.9607 40.8693 91.2083 41.0702 91.3242C41.1397 91.3636 41.2259 91.3399 41.3017 91.3557C41.3538 91.3652 41.396 91.3805 41.4441 91.4057C41.5108 91.4401 41.5592 91.5117 41.6342 91.5146C41.6884 91.5162 41.772 91.4541 41.7154 91.7336C41.7038 91.7936 41.7345 91.7891 41.7667 91.7303C41.8988 91.5 41.9298 91.5418 41.97 91.565C42.0748 91.6304 42.1754 91.7116 42.2864 91.7534C42.3709 91.784 42.4707 91.7724 42.5775 91.75C42.7398 91.7085 42.9245 91.6141 43.0847 91.5805C43.2222 91.5535 43.3373 91.5796 43.4607 91.5742C43.4864 91.5726 43.5352 91.5307 43.5638 91.534C43.6131 91.5386 43.6826 91.498 43.6972 91.6027C43.7096 91.7154 43.7377 91.7522 43.8665 91.5505C43.9389 91.4349 43.9721 91.4689 43.9973 91.5008C44.0284 91.5426 44.04 91.6424 44.0438 91.7401C44.0541 91.8606 44.0616 91.9762 44.1738 91.8374C44.2359 91.7612 44.2558 91.8295 44.2628 91.8987C44.3064 92.2129 44.453 92.2473 44.6219 92.2286C44.8521 92.2008 45.0956 92.1386 45.3308 92.1079C45.4227 92.0942 45.5014 92.1149 45.5821 92.1277C45.8372 92.1654 46.0484 92.3218 46.2547 92.4812C46.2928 92.5123 46.3317 92.5562 46.3992 92.5235C46.5441 92.4522 46.6439 92.5205 46.7185 92.6368C46.8076 92.778 46.9699 92.7366 47.1342 92.6873C47.1748 92.6769 47.2237 92.6351 47.246 92.662C47.3985 92.8661 47.6854 92.7186 47.8714 92.8432C48.0221 92.9417 48.1352 93.1355 48.2545 93.3056C48.3506 93.436 48.4305 93.5959 48.5175 93.7449C48.5233 93.7548 48.5403 93.7383 48.5461 93.7482C48.5883 93.8435 48.4936 94.1718 48.2767 94.6448C48.0822 95.0647 47.9423 95.2929 47.8785 95.2635C47.8119 95.2292 47.7535 95.1633 47.6909 95.1133C47.6839 95.124 47.6727 95.1505 47.6636 95.1691Z" fill="#E4C985"/>
<path d="M49.6169 86.9223C49.5929 86.7898 49.5635 86.6937 49.5597 86.5161C49.5547 86.3591 49.5547 86.1993 49.4445 86.3302C49.4156 86.3604 49.4131 86.3218 49.3973 86.3177C49.3658 86.3094 49.3443 86.2954 49.3087 86.3028C49.2959 86.3037 49.2474 86.3919 49.245 86.3534C49.2441 86.1807 49.2014 86.119 49.0842 86.2607C49.1186 86.0341 49.0163 86.1671 48.9447 86.2156C48.8731 86.264 48.8482 86.1986 48.739 86.3423C48.7129 86.3775 48.693 86.3891 48.6884 86.3585C48.678 86.1581 48.5849 86.1925 48.4959 86.2111C48.399 86.2277 48.3418 86.1411 48.3355 85.925C48.333 85.8066 48.2858 85.7942 48.2436 85.7789C48.1935 85.7615 48.116 85.8 48.0618 85.7984C47.979 85.7934 47.8829 85.8228 47.7542 85.9446C47.5815 86.1053 47.4263 86.2159 47.2842 86.2921C47.2118 86.3277 47.1882 86.2417 47.1464 86.1928C47.0677 86.0922 47.0043 85.9493 46.9243 85.8694C46.861 85.8065 46.7782 85.8016 46.6904 85.7995C46.6104 85.7996 46.5061 85.8604 46.4192 85.8712C46.1682 85.8978 45.9264 85.9057 45.6776 85.9244C45.6212 85.9306 45.5488 85.9662 45.4825 85.9782C45.4519 85.9828 45.4283 85.9766 45.4039 85.9576C45.3227 85.8984 45.2428 85.8185 45.1496 85.773C45.0241 85.7063 44.8825 85.6691 44.7541 85.5975C44.6845 85.5582 44.6211 85.4952 44.4895 85.612C44.4555 85.6451 44.4915 85.5242 44.6012 85.2671C44.7841 84.8273 44.9733 84.3639 45.1115 84.11C45.2034 83.9365 45.2829 83.8101 45.2878 83.8872C45.2953 84.0027 45.422 83.8089 45.3632 84.0963C45.3529 84.1356 45.3678 84.1269 45.3798 84.1133C45.6286 83.8548 45.6941 84.0697 45.8134 84.1599C45.8515 84.191 45.9111 84.1562 45.9604 84.1607C45.9939 84.1611 46.0204 84.1723 46.0448 84.1913C46.085 84.2145 46.107 84.275 46.1555 84.2667C46.194 84.2642 46.256 84.188 46.1787 84.4663C46.1642 84.5213 46.187 84.5147 46.2114 84.4538C46.3277 84.2195 46.3401 84.2521 46.3646 84.2712C46.4242 84.3163 46.4776 84.385 46.5484 84.4037C46.5985 84.421 46.6668 84.4011 46.7364 84.3605C46.8486 84.3017 46.9803 84.185 47.0904 84.134C47.1827 84.0868 47.2556 84.0975 47.3368 84.0768C47.3546 84.0731 47.3927 84.0242 47.4084 84.0283C47.4419 84.0287 47.4929 83.979 47.4887 84.0747C47.4826 84.1782 47.495 84.2109 47.6051 84.0001C47.6647 83.8854 47.6841 83.9074 47.6986 83.9322C47.714 83.9699 47.7069 84.0605 47.6999 84.1512C47.6917 84.2626 47.6784 84.3769 47.7741 84.2212C47.8254 84.138 47.8296 84.2021 47.8209 84.2671C47.8065 84.562 47.9001 84.574 48.0131 84.528C48.1667 84.4717 48.3335 84.3809 48.4892 84.3167C48.5497 84.2948 48.6018 84.3043 48.6482 84.3038C48.808 84.3038 48.9269 84.4276 49.0408 84.5542C49.0632 84.5812 49.0835 84.6159 49.1274 84.577C49.23 84.4904 49.2876 84.5434 49.3199 84.6445C49.3638 84.7654 49.4732 84.7015 49.5874 84.6349C49.6123 84.6204 49.6503 84.5715 49.6599 84.5992C49.7328 84.7698 49.9381 84.5967 50.0446 84.6878C50.1295 84.7648 50.1788 84.9291 50.2372 85.0749C50.2832 85.1879 50.3131 85.3304 50.352 85.4542C50.3549 85.4591 50.3669 85.4455 50.3698 85.4504C50.3856 85.5345 50.2751 85.8587 50.0739 86.3358C49.8951 86.7598 49.766 86.9951 49.7337 86.974C49.6935 86.9508 49.6666 86.8932 49.6306 86.8543C49.6372 86.8771 49.6231 86.8987 49.6169 86.9223Z" fill="#E4C985"/>
<path d="M52.1641 81.3402C52.1558 81.2118 52.1292 81.1208 52.1362 80.9502C52.142 80.8003 52.1498 80.6425 52.0475 80.7754C52.0215 80.8106 52.019 80.7721 52.0082 80.7651C51.9846 80.7589 51.9631 80.7448 51.9353 80.7543C51.9225 80.7551 51.8741 80.8433 51.8795 80.8069C51.8894 80.6413 51.8595 80.5788 51.7453 80.7254C51.7854 80.5088 51.696 80.6409 51.6322 80.6914C51.5685 80.742 51.5465 80.6815 51.45 80.8244C51.424 80.8596 51.407 80.8762 51.4074 80.8426C51.4128 80.6464 51.3304 80.6878 51.2492 80.7085C51.1631 80.7321 51.1217 80.6497 51.1311 80.4377C51.1365 80.3214 51.1001 80.316 51.0607 80.3056C51.0185 80.2903 50.9518 80.3359 50.9055 80.3363C50.8334 80.3384 50.7531 80.372 50.6371 80.4929C50.4802 80.6578 50.3436 80.7774 50.2174 80.8578C50.1557 80.9005 50.1399 80.8164 50.1059 80.7696C50.0479 80.6703 49.9982 80.5394 49.934 80.4637C49.8814 80.4078 49.8115 80.402 49.7373 80.412C49.6682 80.419 49.5767 80.4791 49.5055 80.494C49.2889 80.5338 49.0815 80.555 48.8699 80.5919C48.8214 80.6002 48.7568 80.6378 48.7013 80.6569C48.6736 80.6664 48.655 80.6573 48.6335 80.6433C48.5631 80.5911 48.5017 80.5203 48.4292 80.476C48.3224 80.4185 48.2094 80.3845 48.1025 80.327C48.0437 80.2947 47.9932 80.231 47.8723 80.3548C47.8384 80.388 47.8793 80.2641 47.984 80.0099C48.164 79.5651 48.3532 79.1017 48.4864 78.8507C48.5783 78.6772 48.6471 78.5439 48.6471 78.6238C48.6467 78.7372 48.7655 78.5413 48.6989 78.8267C48.6885 78.866 48.7034 78.8573 48.7154 78.8437C48.9406 78.579 48.9875 78.7848 49.0852 78.8609C49.1155 78.8899 49.1722 78.8501 49.2136 78.8526C49.2393 78.851 49.2657 78.8621 49.2873 78.8762C49.3196 78.8973 49.3337 78.9557 49.3743 78.9454C49.4049 78.9408 49.4641 78.8597 49.3867 79.1379C49.3673 79.1959 49.3901 79.1893 49.4194 79.1255C49.5328 78.8861 49.5403 78.9217 49.5618 78.9358C49.6107 78.9739 49.6484 79.0384 49.7064 79.0579C49.7486 79.0732 49.8062 79.0463 49.8679 79.0036C49.9693 78.9378 50.0881 78.8218 50.1846 78.7589C50.2641 78.7125 50.3262 78.7162 50.3966 78.6884C50.4144 78.6847 50.4446 78.6337 50.4574 78.6329C50.4831 78.6312 50.534 78.5815 50.522 78.6751C50.5109 78.7815 50.5204 78.8093 50.6226 78.5964C50.6822 78.4817 50.6988 78.4987 50.7034 78.5293C50.7108 78.565 50.7038 78.6556 50.6889 78.7442C50.6778 78.8506 50.6567 78.9629 50.7473 78.8101C50.7937 78.7297 50.7949 78.7889 50.7863 78.8539C50.7561 79.1446 50.836 79.1446 50.9362 79.0994C51.0712 79.034 51.2194 78.9342 51.3593 78.8658C51.4119 78.8418 51.4533 78.8443 51.4997 78.8438C51.6359 78.8376 51.7333 78.9473 51.8207 79.0628C51.8401 79.0847 51.8526 79.1175 51.8965 79.0786C51.9913 78.9899 52.0302 79.0338 52.0546 79.1328C52.0828 79.2495 52.1814 79.1787 52.2799 79.1079C52.3018 79.0884 52.3379 79.0474 52.3445 79.0702C52.3988 79.2317 52.5805 79.0523 52.6634 79.1372C52.7296 79.2051 52.7632 79.3653 52.803 79.5019C52.8332 79.6108 52.8523 79.7462 52.8784 79.8708C52.8813 79.8758 52.8933 79.8622 52.8912 79.87C52.8991 79.952 52.7887 80.2763 52.5875 80.7534C52.4087 81.1774 52.2903 81.4196 52.263 81.3956C52.2307 81.3745 52.2067 81.3219 52.1835 81.2822C52.1793 81.2979 52.1732 81.3216 52.1641 81.3402Z" fill="#E4C985"/>
<path d="M55.2666 76.5648C55.2534 76.4393 55.2289 76.3404 55.2359 76.1698C55.2388 76.0149 55.2466 75.8572 55.1394 75.993C55.1133 76.0282 55.1108 75.9897 55.1 75.9826C55.0764 75.9764 55.05 75.9653 55.0243 75.9669C55.0114 75.9677 54.963 76.056 54.9684 76.0195C54.9754 75.8489 54.9406 75.7893 54.8342 75.938C54.8714 75.7165 54.777 75.8515 54.7183 75.8991C54.6595 75.9467 54.6325 75.8892 54.5361 76.0321C54.51 76.0673 54.493 76.0838 54.4934 76.0503C54.4988 75.854 54.4085 75.8934 54.3323 75.9112C54.2462 75.9348 54.1998 75.8553 54.2064 75.6383C54.2118 75.522 54.1724 75.5116 54.1331 75.5013C54.0908 75.486 54.0213 75.5266 53.9749 75.527C53.9029 75.5291 53.8147 75.5606 53.6987 75.6815C53.5418 75.8464 53.3974 75.964 53.2711 76.0444C53.2065 76.0821 53.1857 76.0009 53.1568 75.9512C53.0938 75.8547 53.049 75.721 52.977 75.6431C52.9244 75.5873 52.8495 75.5844 52.7724 75.5894C52.7004 75.5915 52.6068 75.6594 52.5327 75.6693C52.3132 75.7042 52.1008 75.7283 51.8785 75.7581C51.8251 75.7693 51.7605 75.807 51.707 75.8182C51.6793 75.8277 51.6607 75.8186 51.6392 75.8045C51.5687 75.7524 51.5045 75.6766 51.4271 75.6352C51.3173 75.5727 51.1993 75.5417 51.0925 75.4842C51.0308 75.4469 50.9782 75.391 50.8594 75.507C50.8254 75.5401 50.8664 75.4163 50.9711 75.162C51.1511 74.7173 51.3402 74.2539 51.4735 74.0029C51.5654 73.8294 51.637 73.701 51.6391 73.7731C51.6387 73.8865 51.7575 73.6906 51.6959 73.973C51.6855 74.0124 51.7004 74.0037 51.7124 73.99C51.9405 73.7303 51.9923 73.9332 52.0901 74.0094C52.1253 74.0355 52.177 73.9986 52.2184 74.0011C52.2441 73.9994 52.2706 74.0106 52.2922 74.0247C52.3245 74.0458 52.3386 74.1042 52.387 74.0959C52.4176 74.0913 52.4797 74.0151 52.3995 74.2884C52.385 74.3435 52.4028 74.3398 52.4322 74.276C52.5456 74.0367 52.553 74.0722 52.5746 74.0863C52.6263 74.1294 52.669 74.191 52.727 74.2105C52.7692 74.2258 52.8297 74.2039 52.8963 74.1583C52.9978 74.0924 53.1166 73.9764 53.2159 73.9184C53.3004 73.8692 53.3576 73.8758 53.4358 73.8501C53.4536 73.8464 53.4838 73.7954 53.4996 73.7996C53.5252 73.7979 53.5762 73.7482 53.5642 73.8418C53.553 73.9482 53.5675 73.973 53.6726 73.7652C53.7322 73.6504 53.7488 73.6674 53.7583 73.6951C53.7708 73.7279 53.7588 73.8215 53.7468 73.9151C53.7356 74.0215 53.7175 74.1387 53.8052 73.9809C53.8516 73.9005 53.8528 73.9597 53.8441 74.0248C53.819 74.3125 53.8968 74.3204 53.997 74.2753C54.1349 74.2148 54.288 74.112 54.428 74.0436C54.4855 74.0167 54.5249 74.0271 54.5684 74.0217C54.7096 74.0126 54.8098 74.1272 54.9001 74.2477C54.9195 74.2697 54.932 74.3024 54.9759 74.2634C55.0707 74.1748 55.1175 74.2207 55.1419 74.3197C55.1701 74.4364 55.2716 74.3706 55.3751 74.2969C55.3999 74.2824 55.433 74.2364 55.4446 74.2563C55.5018 74.4227 55.6885 74.2405 55.7743 74.3303C55.8434 74.4032 55.8819 74.5605 55.9246 74.7021C55.9549 74.811 55.9768 74.9514 56.0079 75.0731C56.0108 75.0781 56.0228 75.0644 56.0208 75.0723C56.0287 75.1543 55.9182 75.4785 55.717 75.9556C55.5382 76.3796 55.417 76.6169 55.3876 76.6008C55.3553 76.5797 55.3312 76.5271 55.308 76.4874C55.2869 76.5197 55.2757 76.5462 55.2666 76.5648Z" fill="#E4C985"/>
<path d="M63.543 72.6398C63.4816 72.4891 63.405 72.3807 63.359 72.1877C63.3196 72.0175 63.2852 71.8444 63.1329 71.96C63.096 71.9882 63.0828 71.9426 63.0542 71.9393C63.007 71.9269 62.9619 71.9067 62.9126 71.9021C62.8919 71.9009 62.8327 71.9821 62.8252 71.9464C62.79 71.7605 62.71 71.6806 62.5506 71.8069C62.5535 71.5722 62.4248 71.6939 62.3266 71.7312C62.2285 71.7685 62.1693 71.6899 62.0335 71.8224C61.9995 71.8555 61.9718 71.865 61.9614 71.8245C61.9059 71.6038 61.7626 71.6208 61.6235 71.6221C61.4765 71.6213 61.3663 71.5124 61.3071 71.2739C61.2781 71.1443 61.1994 71.1236 61.1306 71.0971C61.0461 71.0665 60.9422 71.0938 60.8457 71.0769C60.7128 71.0546 60.5716 71.0637 60.3977 71.1652C60.1613 71.2965 59.9402 71.3856 59.7373 71.4374C59.6305 71.4598 59.5754 71.3654 59.5041 71.3004C59.3617 71.1704 59.2325 71.0061 59.0788 70.9026C58.9653 70.8223 58.8295 70.7949 58.6916 70.7755C58.5616 70.7582 58.4121 70.7988 58.28 70.7893C57.8916 70.7629 57.5073 70.7207 57.121 70.6864C57.0303 70.6794 56.9235 70.7018 56.8278 70.6977C56.7814 70.6981 56.7392 70.6828 56.699 70.6596C56.552 70.5789 56.4112 70.4745 56.2621 70.4017C56.0443 70.3024 55.8203 70.2267 55.6024 70.1273C55.4798 70.0657 55.3664 69.9854 55.1846 70.0848C55.1349 70.1138 55.168 69.9879 55.2806 69.7357C55.4714 69.298 55.6684 68.8366 55.8332 68.5939C55.9437 68.4295 56.036 68.3024 56.0596 68.3885C56.0985 68.5123 56.2546 68.3346 56.2224 68.6332C56.2199 68.6746 56.2377 68.6709 56.2547 68.6543C56.5908 68.4314 56.7487 68.6791 56.9496 68.7949C57.0191 68.8343 57.1053 68.8106 57.181 68.8264C57.2332 68.8359 57.2754 68.8512 57.3235 68.8764C57.3902 68.9108 57.4386 68.9824 57.5136 68.9853C57.5678 68.987 57.6514 68.9248 57.5948 69.2043C57.5832 69.2643 57.6138 69.2598 57.6461 69.201C57.7782 68.9707 57.8093 69.0126 57.8445 69.0387C57.9492 69.1041 58.0499 69.1852 58.1608 69.227C58.2453 69.2576 58.3451 69.246 58.4519 69.2236C58.6142 69.1821 58.7989 69.0877 58.9592 69.0541C59.0966 69.0272 59.2117 69.0532 59.3351 69.0478C59.3608 69.0462 59.4097 69.0043 59.4382 69.0076C59.4875 69.0122 59.5571 68.9716 59.5716 69.0763C59.584 69.189 59.6122 69.2258 59.7409 69.0242C59.8134 68.9086 59.8465 68.9425 59.8717 68.9744C59.9028 69.0162 59.9144 69.116 59.9182 69.2137C59.9286 69.3342 59.936 69.4498 60.0482 69.311C60.1103 69.2348 60.1302 69.3032 60.1373 69.3723C60.1808 69.6866 60.3274 69.7209 60.4963 69.7022C60.7266 69.6744 60.97 69.6123 61.2052 69.5816C61.2972 69.5679 61.3759 69.5886 61.4566 69.6014C61.7117 69.639 61.9229 69.7955 62.1291 69.9549C62.1672 69.9859 62.2062 70.0298 62.2737 69.9971C62.4186 69.9258 62.5184 69.9941 62.5929 70.1104C62.682 70.2516 62.8443 70.2102 63.0087 70.1609C63.0492 70.1505 63.0981 70.1087 63.1155 70.1385C63.2679 70.3426 63.5549 70.1951 63.7408 70.3197C63.8916 70.4182 64.0046 70.612 64.1239 70.7822C64.22 70.9126 64.3 71.0724 64.387 71.2215C64.3928 71.2314 64.4097 71.2148 64.4155 71.2247C64.4607 71.3249 64.363 71.6483 64.1462 72.1213C63.9516 72.5412 63.8118 72.7694 63.748 72.74C63.6813 72.7057 63.6229 72.6398 63.5653 72.5869C63.5583 72.5976 63.5492 72.6162 63.543 72.6398Z" fill="#E4C985"/>
<path d="M64.4189 64.9962C64.3948 64.8637 64.3575 64.7656 64.3538 64.5879C64.3487 64.431 64.3458 64.2663 64.2278 64.3951C64.1989 64.4253 64.1964 64.3868 64.1806 64.3826C64.1492 64.3743 64.1227 64.3632 64.0891 64.3628C64.0763 64.3636 64.0249 64.4469 64.0254 64.4133C64.0245 64.2406 63.9789 64.174 63.8568 64.3185C63.8861 64.0949 63.7839 64.2279 63.7144 64.2685C63.6427 64.3169 63.6129 64.2544 63.5057 64.3902C63.4746 64.4284 63.4597 64.437 63.4552 64.4064C63.4448 64.206 63.3437 64.2383 63.2518 64.252C63.15 64.2714 63.0899 64.18 63.0808 63.9588C63.0782 63.8404 63.031 63.828 62.9838 63.8156C62.9337 63.7982 62.8563 63.8367 62.7942 63.833C62.7113 63.8281 62.6074 63.8554 62.4758 63.9722C62.3002 64.128 62.14 64.2414 61.9951 64.3127C61.9226 64.3483 61.8941 64.2651 61.8493 64.2113C61.7677 64.1058 61.6994 63.9658 61.6116 63.8838C61.5432 63.8238 61.4575 63.8139 61.3648 63.8147C61.2799 63.8177 61.1726 63.8736 61.0828 63.8794C60.8211 63.8989 60.5714 63.9048 60.3097 63.9243C60.2455 63.9284 60.1731 63.9641 60.1068 63.9761C60.0762 63.9807 60.0447 63.9723 60.0232 63.9583C59.9341 63.897 59.8542 63.8172 59.7581 63.7667C59.6248 63.6979 59.4803 63.6557 59.3469 63.587C59.2695 63.5457 59.2061 63.4827 59.0715 63.5945C59.0376 63.6276 59.0707 63.5018 59.1754 63.2475C59.3633 62.8048 59.5474 62.3443 59.6886 62.0954C59.7834 61.9269 59.86 61.7956 59.865 61.8726C59.8724 61.9882 60.002 61.7993 59.9482 62.0837C59.9379 62.1231 59.9528 62.1144 59.9697 62.0978C60.2214 61.8444 60.2997 62.0584 60.419 62.1487C60.4621 62.1768 60.5246 62.147 60.5739 62.1515C60.6074 62.1519 60.634 62.1631 60.6634 62.1792C60.7035 62.2024 60.7255 62.2629 60.7768 62.2596C60.8154 62.2571 60.8774 62.1809 60.805 62.4563C60.7905 62.5113 60.8133 62.5047 60.8456 62.4459C60.9619 62.2115 60.9773 62.2492 60.9988 62.2632C61.0663 62.3104 61.1197 62.3792 61.1934 62.4028C61.2485 62.4172 61.3119 62.4002 61.3893 62.3617C61.5065 62.3 61.641 62.1881 61.7511 62.1372C61.8464 62.0949 61.9192 62.1057 62.0054 62.0821C62.0232 62.0783 62.0613 62.0295 62.077 62.0336C62.1105 62.034 62.1614 61.9843 62.1573 62.08C62.1511 62.1835 62.1686 62.2133 62.2766 62.0104C62.3362 61.8957 62.3606 61.9147 62.373 61.9474C62.3884 61.9851 62.3813 62.0758 62.3772 62.1714C62.3689 62.2828 62.3607 62.3942 62.4543 62.2464C62.5056 62.1631 62.5098 62.2273 62.5089 62.2944C62.4995 62.5863 62.596 62.6032 62.7119 62.5622C62.8684 62.5108 63.0452 62.4143 63.2067 62.36C63.2721 62.3352 63.3193 62.3476 63.3735 62.3492C63.5412 62.3513 63.6651 62.4722 63.7848 62.6088C63.8072 62.6357 63.8274 62.6705 63.8763 62.6286C63.9868 62.5441 64.0415 62.5922 64.0767 62.6982C64.1207 62.8191 64.2328 62.7602 64.3521 62.6906C64.3769 62.6761 64.4179 62.6322 64.4295 62.6521C64.5103 62.8248 64.7186 62.6566 64.8279 62.7526C64.9128 62.8296 64.97 62.9961 65.0313 63.1468C65.0773 63.2599 65.115 63.4044 65.1569 63.5332C65.1627 63.5431 65.1717 63.5244 65.1775 63.5343C65.1962 63.6234 65.0907 63.9447 64.8817 64.4197C64.7 64.8388 64.5738 65.079 64.5336 65.0559C64.4905 65.0277 64.4586 64.973 64.4276 64.9312C64.4342 64.954 64.4251 64.9726 64.4189 64.9962Z" fill="#E4C985"/>
<path d="M67.4554 60.0456C67.4314 59.9131 67.3941 59.815 67.3903 59.6374C67.3853 59.4804 67.3853 59.3206 67.2673 59.4494C67.2383 59.4796 67.2358 59.4411 67.2201 59.4369C67.1886 59.4287 67.1621 59.4175 67.1286 59.4171C67.1157 59.4179 67.0644 59.5012 67.0648 59.4676C67.0639 59.295 67.0213 59.2332 66.8962 59.3728C66.9256 59.1492 66.8283 59.2793 66.7567 59.3278C66.6851 59.3762 66.6552 59.3137 66.5509 59.4545C66.5199 59.4926 66.505 59.5013 66.5004 59.4707C66.49 59.2703 66.3919 59.3075 66.2999 59.3212C66.2031 59.3378 66.1409 59.2542 66.1368 59.0302C66.1342 58.9117 66.087 58.8993 66.0398 58.8869C65.9897 58.8695 65.9123 58.908 65.8551 58.9014C65.7723 58.8965 65.6763 58.9259 65.5446 59.0427C65.3691 59.1985 65.2089 59.3119 65.0668 59.3882C64.9944 59.4238 64.9658 59.3406 64.9289 59.2888C64.8473 59.1832 64.7869 59.0454 64.6991 58.9634C64.6307 58.9034 64.545 58.8935 64.4572 58.8914C64.3723 58.8943 64.2651 58.9502 64.1831 58.9581C63.9293 58.9797 63.6746 58.9885 63.4179 59.0051C63.3537 59.0092 63.2812 59.0449 63.22 59.054C63.1893 59.0586 63.1628 59.0474 63.1413 59.0333C63.0523 58.9721 62.9723 58.8922 62.8791 58.8466C62.7458 58.7779 62.6042 58.7407 62.4729 58.6641C62.3954 58.6227 62.3321 58.5598 62.2004 58.6766C62.1665 58.7097 62.2025 58.5888 62.3121 58.3316C62.4951 57.8918 62.6842 57.4284 62.8224 57.1746C62.9172 57.006 62.9938 56.8748 62.9988 56.9518C63.0063 57.0673 63.1358 56.8785 63.0771 57.1659C63.0668 57.2052 63.0816 57.1965 63.0937 57.1828C63.3454 56.9293 63.4187 57.1463 63.5401 57.2287C63.5782 57.2597 63.6427 57.2221 63.692 57.2266C63.7256 57.227 63.7521 57.2382 63.7815 57.2543C63.8217 57.2775 63.8436 57.3379 63.8949 57.3346C63.9335 57.3321 63.9955 57.2559 63.9231 57.5313C63.9087 57.5863 63.9314 57.5797 63.9587 57.5238C64.0751 57.2894 64.0904 57.3271 64.1119 57.3412C64.1716 57.3863 64.2299 57.4521 64.2987 57.4786C64.3488 57.496 64.4171 57.4761 64.4945 57.4375C64.6117 57.3758 64.7413 57.2669 64.8564 57.2131C64.9516 57.1708 65.0245 57.1815 65.1057 57.1608C65.1235 57.1571 65.1615 57.1082 65.1773 57.1123C65.2108 57.1127 65.2618 57.063 65.2576 57.1587C65.2514 57.2622 65.2688 57.292 65.3769 57.0891C65.4365 56.9744 65.4609 56.9935 65.4705 57.0212C65.4858 57.0589 65.4788 57.1496 65.4747 57.2452C65.4664 57.3566 65.4531 57.4709 65.5517 57.3201C65.603 57.2369 65.6071 57.3011 65.6063 57.3681C65.5919 57.663 65.6905 57.6721 65.8093 57.636C65.9658 57.5847 66.1377 57.491 66.3012 57.4289C66.3666 57.404 66.4138 57.4164 66.4681 57.4181C66.6358 57.4201 66.7546 57.5439 66.8764 57.6727C66.8988 57.6996 66.9191 57.7343 66.9679 57.6925C67.0784 57.608 67.1281 57.6589 67.1654 57.7571C67.2094 57.878 67.3216 57.8191 67.4358 57.7524C67.4607 57.7379 67.5017 57.694 67.5133 57.7139C67.5891 57.8895 67.7994 57.7134 67.9087 57.8095C67.9936 57.8865 68.0508 58.0529 68.1092 58.1987C68.1552 58.3117 68.1929 58.4562 68.2269 58.5829C68.2327 58.5928 68.2418 58.5742 68.2476 58.5841C68.2663 58.6731 68.1608 58.9945 67.9518 59.4695C67.7701 59.8886 67.6438 60.1288 67.6115 60.1076C67.5713 60.0845 67.5395 60.0299 67.5055 59.9831C67.4728 59.9955 67.4616 60.022 67.4554 60.0456Z" fill="#E4C985"/>
<path d="M70.102 55.1441C70.0858 55.0137 70.0485 54.9155 70.0477 54.7429C70.0456 54.5909 70.0505 54.4282 69.9325 54.557C69.9064 54.5922 69.901 54.5487 69.8853 54.5445C69.8538 54.5362 69.8323 54.5222 69.8017 54.5267C69.7888 54.5276 69.7404 54.6158 69.7408 54.5823C69.7428 54.4146 69.7051 54.35 69.588 54.4916C69.6252 54.2701 69.5229 54.403 69.4563 54.4485C69.3896 54.4941 69.3627 54.4366 69.2584 54.5774C69.2323 54.6126 69.2124 54.6242 69.2128 54.5906C69.2103 54.3923 69.1172 54.4267 69.0281 54.4454C68.9342 54.4669 68.877 54.3804 68.8757 54.1613C68.8732 54.0429 68.8289 54.0354 68.7866 54.0201C68.7365 54.0028 68.667 54.0433 68.6127 54.0417C68.5328 54.0417 68.4417 54.0683 68.313 54.19C68.1453 54.3479 67.993 54.4634 67.8559 54.5367C67.7864 54.5773 67.7627 54.4912 67.7259 54.4395C67.6521 54.336 67.5916 54.1981 67.5117 54.1182C67.4512 54.0602 67.3705 54.0473 67.2856 54.0503C67.2057 54.0503 67.1042 54.1162 67.0223 54.124C66.7792 54.1527 66.5453 54.1627 66.3022 54.1913C66.2459 54.1976 66.1734 54.2331 66.115 54.2472C66.0844 54.2518 66.0608 54.2456 66.0393 54.2315C65.9581 54.1723 65.886 54.0945 65.8007 54.0511C65.6752 53.9844 65.5415 53.9493 65.421 53.8797C65.3514 53.8404 65.2909 53.7824 65.1642 53.8963C65.1303 53.9295 65.1663 53.8086 65.276 53.5514C65.4589 53.1116 65.648 52.6482 65.7863 52.3943C65.8781 52.2208 65.9547 52.0895 65.9597 52.1665C65.9643 52.2771 66.0938 52.0882 66.0272 52.3735C66.0169 52.4129 66.0318 52.4042 66.0438 52.3905C66.2876 52.135 66.3503 52.3449 66.4666 52.4302C66.5018 52.4563 66.5643 52.4265 66.6107 52.426C66.6393 52.4293 66.6707 52.4376 66.6923 52.4517C66.7275 52.4778 66.7465 52.5332 66.7979 52.5299C66.8335 52.5224 66.8935 52.4541 66.8182 52.7245C66.8037 52.7796 66.8216 52.7759 66.8509 52.7121C66.9643 52.4728 66.9797 52.5104 67.0012 52.5245C67.0608 52.5696 67.1064 52.6362 67.1772 52.6549C67.2273 52.6722 67.2878 52.6503 67.3573 52.6097C67.4666 52.5459 67.5962 52.437 67.7035 52.3811C67.7908 52.3367 67.8608 52.3425 67.942 52.3218C67.9598 52.3181 67.9929 52.2721 68.0107 52.2684C68.0442 52.2688 68.0951 52.2191 68.0832 52.3127C68.077 52.4162 68.0894 52.4489 68.1995 52.2381C68.2591 52.1234 68.2785 52.1453 68.2881 52.1731C68.3034 52.2107 68.2914 52.3043 68.2844 52.395C68.2761 52.5064 68.2629 52.6207 68.3536 52.4679C68.4049 52.3846 68.409 52.4488 68.4004 52.5138C68.383 52.8037 68.4717 52.8186 68.5847 52.7726C68.7333 52.7191 68.8973 52.6234 69.0501 52.5542C69.1076 52.5273 69.1548 52.5397 69.2062 52.5364C69.366 52.5364 69.4741 52.6531 69.5802 52.7777C69.6025 52.8047 69.6199 52.8345 69.6638 52.7955C69.7665 52.709 69.8162 52.7599 69.8485 52.8609C69.8845 52.9798 69.9938 52.9159 70.1081 52.8492C70.133 52.8347 70.1711 52.7859 70.1806 52.8136C70.2485 52.9871 70.451 52.809 70.5495 52.898C70.6315 52.97 70.6759 53.1373 70.7264 53.281C70.7646 53.392 70.7944 53.5344 70.8333 53.6582C70.8362 53.6631 70.8482 53.6495 70.8511 53.6545C70.8669 53.7385 70.7564 54.0628 70.5553 54.5399C70.3765 54.9639 70.2502 55.2041 70.215 55.178C70.1749 55.1548 70.1509 55.1022 70.1198 55.0604C70.1173 55.1018 70.1111 55.1255 70.102 55.1441Z" fill="#E4C985"/>
<path d="M76.4263 51.3C76.365 51.1493 76.2884 51.0408 76.2423 50.8479C76.203 50.6777 76.1685 50.5046 76.0162 50.6201C75.9793 50.6483 75.9661 50.6028 75.9375 50.5995C75.8903 50.5871 75.8452 50.5668 75.7959 50.5623C75.7752 50.561 75.716 50.6422 75.7085 50.6066C75.6733 50.4207 75.5934 50.3407 75.434 50.4671C75.4368 50.2323 75.3081 50.3541 75.2099 50.3914C75.1118 50.4287 75.0476 50.3529 74.9168 50.4826C74.8828 50.5157 74.8551 50.5252 74.8447 50.4846C74.7892 50.2639 74.6459 50.2809 74.5068 50.2822C74.3598 50.2814 74.2496 50.1726 74.1904 49.9341C74.1614 49.8045 74.0877 49.7809 74.0139 49.7573C73.9295 49.7267 73.8255 49.754 73.729 49.737C73.5961 49.7147 73.4549 49.7239 73.281 49.8253C73.0446 49.9567 72.8235 50.0458 72.6206 50.0976C72.5138 50.12 72.4587 50.0255 72.3875 49.9605C72.245 49.8306 72.1158 49.6662 71.9621 49.5627C71.8486 49.4824 71.7128 49.4551 71.5749 49.4357C71.4449 49.4183 71.2954 49.4589 71.1633 49.4494C70.7749 49.423 70.3906 49.3809 70.0043 49.3466C69.9136 49.3396 69.8068 49.3619 69.7112 49.3578C69.6648 49.3582 69.6225 49.3429 69.5823 49.3197C69.4353 49.239 69.2945 49.1347 69.1454 49.0619C68.9276 48.9625 68.6986 48.8897 68.4857 48.7875C68.3631 48.7258 68.2497 48.6455 68.0679 48.745C68.0182 48.774 68.0513 48.648 68.1639 48.3958C68.3547 47.9581 68.5517 47.4968 68.7165 47.2541C68.827 47.0897 68.9193 46.9625 68.9429 47.0487C68.9819 47.1725 69.1379 46.9948 69.1057 47.2934C69.1032 47.3348 69.121 47.331 69.138 47.3144C69.4742 47.0916 69.632 47.3392 69.8329 47.4551C69.9024 47.4944 69.9886 47.4708 70.0643 47.4865C70.1165 47.496 70.1587 47.5113 70.2068 47.5366C70.2735 47.5709 70.3219 47.6426 70.3969 47.6455C70.4511 47.6471 70.5347 47.5849 70.4781 47.8645C70.4665 47.9245 70.4971 47.92 70.5294 47.8611C70.6615 47.6309 70.6926 47.6727 70.7278 47.6988C70.8325 47.7642 70.9332 47.8453 71.0441 47.8871C71.1286 47.9177 71.2284 47.9061 71.3352 47.8837C71.4975 47.8423 71.6822 47.7479 71.8425 47.7143C71.9799 47.6874 72.095 47.7134 72.2184 47.708C72.2441 47.7063 72.293 47.6645 72.3215 47.6678C72.3708 47.6723 72.4404 47.6317 72.4549 47.7365C72.4673 47.8491 72.4955 47.886 72.6242 47.6843C72.6967 47.5688 72.7298 47.6027 72.755 47.6346C72.7861 47.6764 72.7978 47.7762 72.8015 47.8739C72.8119 47.9944 72.8194 48.1099 72.9315 47.9712C72.9936 47.895 73.0136 47.9633 73.0206 48.0325C73.0642 48.3467 73.2107 48.381 73.3797 48.3624C73.6099 48.3346 73.8534 48.2724 74.0886 48.2417C74.1805 48.2281 74.2592 48.2488 74.3399 48.2616C74.595 48.2992 74.8062 48.4557 75.0125 48.615C75.0506 48.6461 75.0895 48.6899 75.157 48.6572C75.3019 48.586 75.4017 48.6542 75.4762 48.7706C75.5653 48.9118 75.7276 48.8703 75.892 48.821C75.9326 48.8107 75.9814 48.7688 76.0038 48.7957C76.1562 48.9998 76.4431 48.8524 76.6291 48.977C76.7798 49.0755 76.8929 49.2693 77.0122 49.4394C77.1083 49.5699 77.1883 49.7297 77.2753 49.8787C77.2811 49.8887 77.298 49.872 77.3038 49.882C77.349 49.9822 77.2513 50.3056 77.0345 50.7785C76.8399 51.1984 76.7 51.4267 76.6363 51.3973C76.5696 51.3629 76.5112 51.2971 76.4536 51.2441C76.4416 51.2578 76.4354 51.2813 76.4263 51.3Z" fill="#E4C985"/>
<path d="M79.2599 43.1247C79.2279 42.9902 79.1877 42.8871 79.1711 42.7102C79.1583 42.5512 79.1504 42.3894 79.0295 42.5132C78.9955 42.5463 78.9901 42.5028 78.9744 42.4987C78.9429 42.4904 78.9135 42.4743 78.875 42.4768C78.8572 42.4805 78.8108 42.5609 78.8063 42.5302C78.7975 42.3555 78.747 42.2918 78.6191 42.4264C78.6485 42.2027 78.5383 42.3336 78.4638 42.3771C78.3893 42.4206 78.3516 42.356 78.2394 42.4947C78.2083 42.5328 78.1885 42.5445 78.186 42.5059C78.1677 42.3035 78.0588 42.3337 77.959 42.3453C77.8543 42.3598 77.7814 42.2691 77.7644 42.046C77.754 41.9255 77.7068 41.9131 77.6567 41.8957C77.5987 41.8763 77.5184 41.9098 77.4563 41.9061C77.3656 41.8991 77.2587 41.9215 77.1192 42.0362C76.9358 42.1899 76.7648 42.2963 76.6071 42.3684C76.5267 42.4019 76.4953 42.3138 76.4505 42.26C76.3611 42.1523 76.282 42.0053 76.1863 41.9213C76.1101 41.8592 76.0136 41.8423 75.9179 41.8381C75.8252 41.839 75.715 41.8899 75.6173 41.8937C75.337 41.9041 75.0637 41.9038 74.7834 41.9142C74.7163 41.9134 74.6389 41.9519 74.5697 41.9589C74.5341 41.9664 74.5076 41.9552 74.4782 41.9391C74.3813 41.8758 74.2906 41.7888 74.1866 41.7362C74.0425 41.6605 73.8823 41.6142 73.7332 41.5413C73.6479 41.4979 73.5767 41.4329 73.4342 41.5426C73.3924 41.5737 73.4334 41.4498 73.5381 41.1956C73.726 40.7529 73.9151 40.2895 74.0562 40.0406C74.156 39.8691 74.2355 39.7429 74.2405 39.8199C74.2558 39.9375 74.3854 39.7486 74.3345 40.038C74.3241 40.0774 74.342 40.0736 74.3589 40.0571C74.6264 39.8077 74.7155 40.0289 74.8505 40.1232C74.8936 40.1514 74.9639 40.1236 75.0182 40.1253C75.0546 40.1307 75.0861 40.1389 75.1155 40.155C75.1585 40.1832 75.1884 40.2457 75.2447 40.2395C75.2832 40.237 75.3532 40.1629 75.2837 40.4432C75.2692 40.4983 75.292 40.4917 75.3243 40.4329C75.4406 40.1985 75.4608 40.2333 75.4853 40.2523C75.5528 40.2995 75.617 40.3752 75.6985 40.4009C75.7565 40.4203 75.8278 40.4054 75.9101 40.364C76.0352 40.3043 76.1805 40.1995 76.2985 40.1506C76.4016 40.1104 76.4824 40.1233 76.5714 40.1046C76.5942 40.098 76.6301 40.057 76.648 40.0533C76.6815 40.0537 76.7403 40.0061 76.7391 40.1067C76.7358 40.2152 76.7532 40.245 76.8662 40.0392C76.9308 39.9215 76.9531 39.9484 76.9676 39.9733C76.983 40.011 76.9838 40.1037 76.9797 40.1994C76.9764 40.3078 76.9661 40.4271 77.0646 40.2763C77.1188 40.1981 77.123 40.2622 77.1221 40.3293C77.1156 40.6262 77.2249 40.6424 77.3516 40.6084C77.5238 40.5611 77.7065 40.4746 77.8808 40.4195C77.9491 40.3996 78.0013 40.4091 78.0634 40.4128C78.2468 40.419 78.3814 40.5469 78.5168 40.6876C78.5442 40.7116 78.5674 40.7514 78.6191 40.7145C78.7375 40.6321 78.7951 40.6851 78.8382 40.7932C78.89 40.9161 79.0101 40.8594 79.1351 40.7997C79.1649 40.7823 79.2059 40.7384 79.2154 40.7661C79.307 40.9458 79.5281 40.7768 79.6531 40.877C79.7538 40.9582 79.8139 41.1296 79.888 41.2795C79.9419 41.3946 79.9875 41.5411 80.0322 41.6749C80.038 41.6848 80.0471 41.6662 80.0529 41.6761C80.0765 41.7623 79.9689 42.0915 79.7599 42.5664C79.5733 42.9884 79.447 43.2286 79.404 43.2005C79.3609 43.1724 79.3211 43.1156 79.2822 43.0717C79.2772 43.0746 79.271 43.0982 79.2599 43.1247Z" fill="#E4C985"/>
<path d="M82.018 38.7588C81.994 38.6263 81.9567 38.5281 81.9529 38.3505C81.9479 38.1935 81.9479 38.0337 81.8299 38.1625C81.8009 38.1927 81.7985 38.1542 81.7827 38.1501C81.7512 38.1418 81.7247 38.1307 81.6912 38.1303C81.6783 38.1311 81.627 38.2143 81.6275 38.1808C81.6266 38.0081 81.5839 37.9464 81.4589 38.086C81.4882 37.8624 81.3909 37.9924 81.3193 38.0409C81.2477 38.0893 81.2179 38.0268 81.1135 38.1676C81.0875 38.2028 81.0676 38.2144 81.063 38.1838C81.0526 37.9834 80.9516 38.0157 80.8626 38.0344C80.7657 38.051 80.7036 37.9673 80.6944 37.7462C80.6919 37.6278 80.6447 37.6154 80.5975 37.603C80.5474 37.5856 80.47 37.6241 80.4128 37.6175C80.33 37.6126 80.2289 37.6449 80.1023 37.7588C79.9267 37.9145 79.7665 38.028 79.6216 38.0993C79.5492 38.1349 79.5206 38.0517 79.4837 37.9999C79.4021 37.8943 79.3387 37.7515 79.2509 37.6695C79.1826 37.6095 79.0968 37.5996 79.0091 37.5975C78.9242 37.6005 78.8169 37.6564 78.735 37.6642C78.4762 37.6887 78.2265 37.6946 77.9698 37.7112C77.9056 37.7154 77.8331 37.751 77.7718 37.7601C77.7412 37.7647 77.7147 37.7535 77.6882 37.7423C77.5991 37.681 77.5192 37.6012 77.4261 37.5557C77.2927 37.487 77.1482 37.4448 77.0198 37.3731C76.9423 37.3318 76.879 37.2688 76.7473 37.3856C76.7134 37.4187 76.7494 37.2978 76.859 37.0407C77.042 36.6009 77.2311 36.1375 77.3693 35.8836C77.4641 35.715 77.5407 35.5837 77.5457 35.6608C77.5531 35.7763 77.6827 35.5874 77.624 35.8748C77.6137 35.9142 77.6285 35.9055 77.6406 35.8918C77.8923 35.6384 77.9656 35.8553 78.0898 35.9426C78.1279 35.9737 78.1954 35.9409 78.2418 35.9405C78.2754 35.9409 78.3019 35.9521 78.3313 35.9683C78.3714 35.9914 78.3934 36.0519 78.4447 36.0485C78.4832 36.0461 78.5453 35.9699 78.4729 36.2453C78.4585 36.3003 78.4812 36.2937 78.5086 36.2378C78.6249 36.0034 78.6402 36.0411 78.6617 36.0552C78.7214 36.1003 78.7798 36.1661 78.8485 36.1926C78.8986 36.21 78.9669 36.1901 79.0443 36.1515C79.1615 36.0898 79.2911 35.9809 79.4062 35.927C79.5014 35.8848 79.5743 35.8955 79.6605 35.8719C79.6783 35.8682 79.7163 35.8193 79.7321 35.8234C79.7656 35.8238 79.8165 35.7741 79.8124 35.8698C79.8062 35.9733 79.8236 36.0031 79.9316 35.8002C79.9913 35.6855 80.0157 35.7045 80.0252 35.7323C80.0405 35.7699 80.0335 35.8606 80.0294 35.9563C80.0211 36.0677 80.0129 36.1791 80.1064 36.0312C80.1578 35.948 80.1619 36.0122 80.1611 36.0792C80.1467 36.3741 80.2452 36.3831 80.364 36.3471C80.5206 36.2957 80.6924 36.2021 80.8559 36.1399C80.9214 36.1151 80.9686 36.1275 81.0228 36.1291C81.1905 36.1312 81.3094 36.255 81.4312 36.3838C81.4535 36.4107 81.4738 36.4454 81.5227 36.4036C81.6332 36.3191 81.6829 36.37 81.7231 36.4731C81.767 36.594 81.8793 36.5352 81.9935 36.4685C82.0184 36.454 82.0593 36.41 82.0709 36.4299C82.1467 36.6055 82.3571 36.4295 82.4664 36.5256C82.5513 36.6026 82.6085 36.7689 82.6669 36.9147C82.7129 37.0277 82.7506 37.1722 82.7875 37.3039C82.7933 37.3139 82.8024 37.2952 82.8082 37.3052C82.8268 37.3942 82.7213 37.7155 82.5123 38.1905C82.3306 38.6096 82.2044 38.8498 82.1692 38.8237C82.129 38.8005 82.0971 38.7459 82.0632 38.6991C82.0334 38.7165 82.0242 38.7352 82.018 38.7588Z" fill="#E4C985"/>
<path d="M84.5175 34.4681C84.4935 34.3356 84.4562 34.2375 84.4524 34.0598C84.4474 33.9029 84.4474 33.7431 84.3265 33.8669C84.2975 33.8971 84.295 33.8586 84.2793 33.8545C84.2478 33.8462 84.2184 33.8301 84.1878 33.8347C84.1749 33.8355 84.1236 33.9187 84.124 33.8852C84.1232 33.7125 84.0776 33.6459 83.9526 33.7854C83.9869 33.5589 83.8797 33.6948 83.8101 33.7354C83.7356 33.7789 83.7058 33.7163 83.5986 33.8522C83.5675 33.8903 83.5476 33.9019 83.548 33.8683C83.5376 33.6679 83.4366 33.7002 83.3447 33.7139C83.2399 33.7284 83.1828 33.6419 83.1736 33.4208C83.1711 33.3024 83.1239 33.2899 83.0738 33.2726C83.0208 33.2502 82.9434 33.2888 82.8813 33.2851C82.7955 33.2751 82.6945 33.3074 82.5599 33.4193C82.3815 33.57 82.2163 33.6865 82.0685 33.7527C81.9961 33.7884 81.9646 33.7002 81.9277 33.6484C81.8461 33.5428 81.7827 33.4 81.692 33.3131C81.6237 33.253 81.5351 33.2381 81.4423 33.239C81.3545 33.2369 81.2472 33.2928 81.1574 33.2987C80.8928 33.3132 80.6403 33.3141 80.3757 33.3287C80.3115 33.3328 80.239 33.3684 80.1698 33.3755C80.1392 33.38 80.1077 33.3718 80.0833 33.3527C79.9943 33.2915 79.9115 33.2066 79.8183 33.1611C79.682 33.0874 79.5375 33.0452 79.4012 32.9716C79.3238 32.9302 79.2575 32.8623 79.123 32.9741C79.0861 33.0023 79.125 32.8863 79.2347 32.6291C79.4255 32.1914 79.6225 31.7301 79.7636 31.4812C79.8584 31.3126 79.9429 31.1834 79.9478 31.2604C79.9553 31.3759 80.0899 31.1842 80.0262 31.4745C80.0158 31.5138 80.0307 31.5051 80.0427 31.4915C80.3023 31.2401 80.3756 31.457 80.4978 31.5522C80.5359 31.5833 80.6034 31.5506 80.6527 31.5551C80.6862 31.5555 80.7127 31.5667 80.7421 31.5828C80.7823 31.606 80.8072 31.6714 80.8556 31.6631C80.8941 31.6606 80.9591 31.5894 80.8838 31.8598C80.8693 31.9149 80.8921 31.9083 80.9194 31.8524C81.0357 31.618 81.056 31.6528 81.0805 31.6718C81.143 31.7219 81.2014 31.7877 81.2702 31.8142C81.3232 31.8366 81.3915 31.8167 81.4689 31.7781C81.589 31.7214 81.7235 31.6095 81.8415 31.5607C81.9368 31.5184 82.0125 31.5341 82.0986 31.5104C82.1164 31.5067 82.1545 31.4578 82.1752 31.4591C82.2088 31.4595 82.2626 31.4148 82.2585 31.5104C82.2523 31.6139 82.2697 31.6437 82.3827 31.4379C82.4473 31.3203 82.4667 31.3422 82.4791 31.375C82.4945 31.4126 82.4875 31.5034 82.4834 31.599C82.4751 31.7104 82.4619 31.8247 82.5604 31.6739C82.6146 31.5956 82.6158 31.6549 82.615 31.7219C82.6006 32.0168 82.7021 32.0308 82.8209 31.9948C82.9853 31.9454 83.16 31.8568 83.3235 31.7947C83.389 31.7698 83.4391 31.7872 83.4933 31.7888C83.6639 31.7958 83.7878 31.9167 83.9075 32.0533C83.9298 32.0802 83.9501 32.115 84.0019 32.0781C84.1124 31.9937 84.17 32.0467 84.2052 32.1527C84.2491 32.2736 84.3642 32.2197 84.4835 32.1501C84.5083 32.1356 84.5493 32.0917 84.5638 32.1166C84.6396 32.2921 84.8557 32.126 84.9651 32.2221C85.0529 32.304 85.1101 32.4705 85.1685 32.6162C85.2145 32.7293 85.2472 32.8766 85.289 33.0054C85.2948 33.0153 85.304 32.9967 85.3098 33.0066C85.3284 33.0957 85.215 33.4149 85.006 33.8899C84.8193 34.3119 84.6902 34.5471 84.6501 34.524C84.607 34.4958 84.5751 34.4412 84.5441 34.3994C84.5378 34.423 84.5316 34.4466 84.5175 34.4681Z" fill="#E4C985"/>
<path d="M90.7646 30.0096C90.7062 29.8639 90.6345 29.7525 90.5964 29.5616C90.5599 29.3964 90.5304 29.2204 90.381 29.3409C90.3441 29.3691 90.3338 29.3285 90.3073 29.3174C90.265 29.3021 90.2199 29.2818 90.1736 29.2822C90.1529 29.281 90.0936 29.3622 90.0862 29.3266C90.0509 29.1407 89.9739 29.0657 89.8224 29.1941C89.8281 28.9643 89.7043 29.0831 89.6062 29.1204C89.5081 29.1577 89.4517 29.084 89.3238 29.2186C89.2899 29.2518 89.2622 29.2613 89.2547 29.2257C89.2021 29.01 89.0666 29.029 88.9325 29.0274C88.7933 29.0287 88.6861 28.9248 88.6347 28.6883C88.6085 28.5637 88.5349 28.5402 88.469 28.5186C88.3874 28.493 88.2885 28.5174 88.1999 28.5025C88.0748 28.4823 87.9365 28.4964 87.7626 28.5979C87.5341 28.7313 87.3188 28.8303 87.1208 28.8792C87.0219 28.9036 86.9668 28.8092 86.8956 28.7442C86.761 28.6163 86.6396 28.454 86.4938 28.3526C86.3832 28.2772 86.2553 28.252 86.1252 28.2346C86.0031 28.2193 85.8565 28.265 85.7323 28.2575C85.3596 28.2353 84.9911 28.1972 84.6184 28.175C84.5277 28.1679 84.4288 28.1924 84.336 28.1933C84.2897 28.1937 84.2474 28.1784 84.2151 28.1573C84.0759 28.0786 83.943 27.9764 83.7968 27.9085C83.5918 27.8083 83.3736 27.7425 83.1686 27.6423C83.0489 27.5856 82.9433 27.5075 82.7665 27.604C82.7168 27.633 82.7499 27.507 82.8625 27.2548C83.0533 26.8171 83.2503 26.3558 83.4072 26.111C83.5177 25.9466 83.605 25.8224 83.6258 25.9035C83.6569 26.0253 83.8129 25.8476 83.7807 26.1462C83.7782 26.1876 83.7931 26.1789 83.813 26.1673C84.1335 25.9403 84.2834 26.1858 84.4764 26.2996C84.5381 26.3369 84.6242 26.3132 84.7 26.3289C84.7443 26.3364 84.7944 26.3538 84.8346 26.377C84.8934 26.4093 84.9418 26.4809 85.0168 26.4838C85.071 26.4854 85.1518 26.4183 85.0901 26.7007C85.0786 26.7608 85.1092 26.7562 85.1415 26.6974C85.2656 26.4651 85.2967 26.5069 85.3369 26.53C85.4387 26.5905 85.5265 26.6725 85.6425 26.7114C85.7241 26.737 85.8189 26.7283 85.9179 26.7038C86.0773 26.6574 86.257 26.5659 86.4093 26.5303C86.5389 26.5012 86.6462 26.5252 86.7696 26.5198C86.7953 26.5182 86.8441 26.4763 86.8648 26.4775C86.9141 26.4821 86.9837 26.4415 86.9903 26.5442C87.0028 26.6568 87.028 26.6887 87.1518 26.4899C87.2192 26.3773 87.2544 26.4034 87.2797 26.4352C87.3108 26.477 87.3145 26.5748 87.3261 26.6746C87.3336 26.7901 87.3391 26.9135 87.4533 26.7669C87.5154 26.6907 87.5324 26.7541 87.5394 26.8232C87.5751 27.1354 87.7188 27.1647 87.8799 27.144C88.1022 27.1141 88.3378 27.0499 88.5623 27.0122C88.6542 26.9985 88.725 27.0171 88.8057 27.0299C89.0529 27.0655 89.2534 27.2149 89.4468 27.3752C89.4849 27.4062 89.521 27.4451 89.5835 27.4152C89.7284 27.344 89.8174 27.4053 89.887 27.5245C89.9732 27.6607 90.1276 27.6172 90.2841 27.5658C90.3218 27.5505 90.3657 27.5116 90.391 27.5434C90.5355 27.7455 90.8146 27.596 90.9848 27.7164C91.1277 27.8129 91.2329 28.0046 91.3493 28.1697C91.4375 28.2981 91.5125 28.4608 91.5966 28.6049C91.6024 28.6148 91.6193 28.5982 91.6251 28.6082C91.6674 28.7034 91.5648 29.0297 91.3479 29.5027C91.1534 29.9226 91.0164 30.1557 90.9576 30.1234C90.8909 30.0891 90.8404 30.0253 90.7828 29.9723C90.7849 29.9645 90.7737 29.991 90.7646 30.0096Z" fill="#E4C985"/>
<path d="M93.2119 22.6623C93.18 22.5277 93.1398 22.4246 93.131 22.2498C93.1182 22.0908 93.1153 21.9261 92.9923 22.0578C92.9584 22.0909 92.9558 22.0524 92.9372 22.0433C92.9057 22.035 92.8763 22.0188 92.8378 22.0213C92.82 22.0251 92.7736 22.1054 92.7691 22.0748C92.7604 21.9 92.7148 21.8334 92.5848 21.9758C92.6141 21.7522 92.509 21.8802 92.4295 21.9266C92.355 21.9701 92.3202 21.9105 92.213 22.0463C92.1819 22.0844 92.1621 22.096 92.1596 22.0575C92.1413 21.855 92.0403 21.8874 91.9405 21.899C91.8357 21.9135 91.7707 21.8249 91.7537 21.6017C91.7433 21.4812 91.6961 21.4688 91.646 21.4514C91.588 21.4319 91.5106 21.4705 91.4456 21.4619C91.3549 21.4548 91.2509 21.4821 91.1114 21.5969C90.928 21.7505 90.7599 21.862 90.6071 21.9312C90.5268 21.9647 90.4982 21.8815 90.4535 21.8277C90.364 21.72 90.2928 21.5751 90.1921 21.494C90.1209 21.429 90.0273 21.417 89.9267 21.4158C89.8389 21.4138 89.7238 21.4676 89.629 21.4763C89.3515 21.4917 89.0832 21.4885 88.8108 21.5009C88.7466 21.5051 88.6663 21.5387 88.5971 21.5457C88.5615 21.5532 88.535 21.5419 88.5106 21.5229C88.4136 21.4596 88.3259 21.3776 88.2269 21.3222C88.0828 21.2464 87.9254 21.205 87.7813 21.1293C87.7009 21.0829 87.6297 21.0179 87.4902 21.1327C87.4484 21.1637 87.4894 21.0399 87.5941 20.7857C87.782 20.343 87.9661 19.8825 88.1122 19.6307C88.207 19.4621 88.2885 19.3279 88.2964 19.4099C88.3089 19.5225 88.4413 19.3387 88.3876 19.6232C88.3772 19.6625 88.3922 19.6538 88.412 19.6422C88.6745 19.3958 88.7607 19.6119 88.8957 19.7063C88.9388 19.7345 89.0091 19.7066 89.0584 19.7112C89.0919 19.7116 89.1263 19.7248 89.1557 19.741C89.1988 19.7691 89.2257 19.8267 89.2771 19.8233C89.3156 19.8208 89.3856 19.7467 89.3132 20.0221C89.2987 20.0772 89.3214 20.0706 89.3537 20.0118C89.47 19.7774 89.4903 19.8122 89.5148 19.8312C89.5823 19.8784 89.6435 19.9491 89.7201 19.9777C89.7781 19.9971 89.8494 19.9822 89.9268 19.9437C90.0468 19.8869 90.1893 19.7772 90.3073 19.7283C90.4075 19.6831 90.4832 19.6989 90.5801 19.6823C90.6029 19.6757 90.6389 19.6347 90.6567 19.6309C90.6903 19.6313 90.7491 19.5837 90.7449 19.6794C90.7417 19.7879 90.7591 19.8177 90.8721 19.6119C90.9366 19.4942 90.959 19.5211 90.9685 19.5489C90.9838 19.5866 90.9797 19.6822 90.9806 19.775C90.9773 19.8834 90.967 20.0027 91.0655 19.852C91.1197 19.7737 91.121 19.8329 91.1202 19.9C91.1136 20.1969 91.2229 20.213 91.3418 20.177C91.5061 20.1277 91.6937 20.0381 91.8601 19.9809C91.9255 19.9561 91.9806 19.9706 92.0377 19.9772C92.2162 19.9863 92.348 20.1092 92.4805 20.245C92.5078 20.269 92.5281 20.3038 92.5749 20.2698C92.6855 20.1853 92.7509 20.2404 92.7911 20.3435C92.8429 20.4665 92.9629 20.4097 93.085 20.3451C93.1148 20.3277 93.1558 20.2838 93.1654 20.3115C93.254 20.4862 93.4751 20.3173 93.5952 20.4203C93.688 20.4994 93.753 20.668 93.8222 20.8207C93.8761 20.9358 93.9167 21.0853 93.9635 21.2112C93.9693 21.2211 93.9784 21.2025 93.9842 21.2124C94.0079 21.2985 93.8974 21.6227 93.6913 22.1027C93.5046 22.5247 93.3833 22.762 93.3403 22.7339C93.2972 22.7057 93.2653 22.651 93.2264 22.6072C93.2322 22.6171 93.2181 22.6387 93.2119 22.6623Z" fill="#E4C985"/>
<path d="M95.7723 18.029C95.7483 17.8965 95.7081 17.7934 95.6994 17.6187C95.6944 17.4618 95.6865 17.2998 95.5685 17.4286C95.5395 17.4589 95.537 17.4204 95.5213 17.4163C95.4898 17.408 95.4604 17.3918 95.4297 17.3964C95.4119 17.4001 95.3656 17.4804 95.366 17.4469C95.3651 17.2742 95.3146 17.2105 95.1946 17.3472C95.2239 17.1236 95.1216 17.2565 95.0471 17.3C94.9726 17.3435 94.9427 17.281 94.8335 17.4247C94.8024 17.4628 94.7875 17.4715 94.783 17.4408C94.7726 17.2404 94.6716 17.2728 94.5747 17.2893C94.4699 17.3039 94.4127 17.2173 94.4036 16.9962C94.4011 16.8777 94.3489 16.8683 94.3037 16.848C94.2458 16.8285 94.1733 16.8642 94.1112 16.8604C94.0205 16.8534 93.9245 16.8829 93.7928 16.9997C93.6173 17.1554 93.4492 17.2668 93.3043 17.3381C93.2318 17.3737 93.2003 17.2855 93.1585 17.2366C93.0769 17.1311 93.0056 16.9862 92.9129 16.9071C92.8445 16.8471 92.7559 16.8322 92.6632 16.8331C92.5754 16.831 92.471 16.8919 92.3812 16.8977C92.1195 16.9172 91.8619 16.921 91.5973 16.9356C91.5332 16.9397 91.4607 16.9754 91.3945 16.9874C91.3638 16.9919 91.3324 16.9837 91.3079 16.9646C91.2189 16.9034 91.1311 16.8214 91.0379 16.7759C90.9016 16.7022 90.7521 16.6629 90.6159 16.5892C90.5385 16.5478 90.4722 16.4799 90.3327 16.5946C90.2958 16.6228 90.3318 16.5019 90.4365 16.2476C90.6244 15.8049 90.8086 15.3444 90.9547 15.0926C91.0495 14.924 91.1261 14.7928 91.134 14.8748C91.1464 14.9874 91.2759 14.7986 91.2172 15.086C91.2069 15.1253 91.2218 15.1166 91.2387 15.1C91.4983 14.8486 91.5717 15.0656 91.6959 15.1529C91.739 15.1811 91.8015 15.1512 91.8507 15.1558C91.8843 15.1562 91.9108 15.1673 91.9402 15.1835C91.9804 15.2067 92.0053 15.2721 92.0587 15.2609C92.0972 15.2584 92.1593 15.1822 92.0898 15.4625C92.0753 15.5176 92.0981 15.511 92.1304 15.4522C92.2467 15.2178 92.262 15.2555 92.2914 15.2716C92.3589 15.3188 92.4123 15.3875 92.486 15.4111C92.5411 15.4256 92.6123 15.4107 92.6848 15.3751C92.8019 15.3133 92.9394 15.2065 93.0545 15.1526C93.1497 15.1104 93.2276 15.1182 93.3116 15.1025C93.3294 15.0987 93.3675 15.0498 93.3882 15.0511C93.4218 15.0515 93.4756 15.0068 93.4715 15.1024C93.4682 15.2109 93.4827 15.2358 93.5957 15.0299C93.6603 14.9123 93.6797 14.9343 93.6921 14.967C93.7075 15.0047 93.7033 15.1003 93.6963 15.191C93.6881 15.3024 93.6798 15.4138 93.7734 15.2659C93.8247 15.1827 93.8289 15.2469 93.828 15.3139C93.8215 15.6108 93.92 15.6199 94.0389 15.5839C94.2004 15.5296 94.3751 15.4409 94.5415 15.3838C94.6069 15.3589 94.6541 15.3713 94.7133 15.3701C94.8839 15.3771 95.0078 15.4979 95.1325 15.6317C95.1548 15.6586 95.1801 15.6905 95.2269 15.6565C95.3374 15.572 95.395 15.625 95.4323 15.7231C95.4762 15.844 95.5963 15.7873 95.7105 15.7206C95.7354 15.7061 95.7763 15.6621 95.7908 15.687C95.8716 15.8596 96.0849 15.6886 96.1971 15.7896C96.2899 15.8686 96.3421 16.038 96.4055 16.1808C96.4514 16.2939 96.4892 16.4384 96.5339 16.5721C96.5397 16.5821 96.5488 16.5634 96.5546 16.5733C96.5733 16.6624 96.4678 16.9837 96.2588 17.4587C96.0721 17.8807 95.9508 18.118 95.9107 18.0949C95.8676 18.0667 95.8357 18.012 95.7997 17.9731C95.7926 17.9839 95.7814 18.0104 95.7723 18.029Z" fill="#E4C985"/>
<path d="M117.331 58.0451L107.842 68.2986C107.743 68.3902 107.84 68.5463 107.966 68.4994L121.618 62.1373C121.66 62.1191 121.712 62.1286 121.745 62.1626L133.846 73.3437C133.937 73.4307 134.088 73.3358 134.044 73.2149L128.368 57.4182C128.356 57.3855 128.361 57.3491 128.377 57.3197L134.229 46.8376C134.286 46.7307 134.173 46.6169 134.066 46.6728L123.764 52.006C123.724 52.0292 123.675 52.0246 123.64 51.9986L109.697 42.4654C109.597 42.3971 109.467 42.5061 109.518 42.6162L117.352 57.8993C117.384 57.954 117.37 58.0091 117.331 58.0451Z" fill="#DCAF3F"/>
<path d="M114.348 62.4909L113.538 63.2497L113.135 63.6315C113.001 63.7562 112.844 63.9082 112.792 63.9451C112.403 64.2719 112.012 64.5937 111.623 64.9205C111.406 65.1073 111.183 65.297 110.966 65.4838C110.256 66.1047 109.427 66.9214 109.344 67.1898C109.338 67.2134 109.317 67.2457 109.281 67.2867C109.242 67.3227 109.182 67.391 109.227 67.4577C109.268 67.5272 109.337 67.4866 109.38 67.4684L109.551 67.3955C110.011 67.1801 110.451 66.9762 110.936 66.7335C111.163 66.6208 111.554 66.3325 111.664 66.3151C111.95 66.2683 112.402 66.1178 112.888 65.9007C113.131 65.7922 113.378 65.6679 113.622 65.5387L113.99 65.3241L114.426 65.0561C115.48 64.8074 116.357 64.2221 117.291 63.7105C118.225 63.1989 119.229 62.7858 120.11 62.1848C120.229 62.1024 120.358 62.027 120.49 61.9566C120.622 61.8862 120.87 61.7748 121.042 61.7147C121.182 61.6592 121.326 61.6086 121.461 61.5895C121.6 61.5754 121.72 61.5186 121.858 61.5844C122.086 61.7115 122.313 61.9185 122.518 62.1321L123.043 62.6446L123.512 63.0835C124.146 63.6663 124.796 64.2327 125.446 64.799C126.842 66.0157 128.161 67.3172 129.371 68.7161C130.067 69.5089 130.65 70.0409 131.27 70.6118L131.719 71.0158L132.521 71.7063L132.9 72.0247L133.089 72.1877C133.15 72.225 133.212 72.3422 133.301 72.2772C133.382 72.2101 133.303 72.1095 133.277 72.0312L133.184 71.7795L132.988 71.2739L132.584 70.2844C132.313 69.6368 132.034 69.0335 131.781 68.5549L131.719 68.4378L131.687 68.3831L131.642 68.2829L131.46 67.8899L131.099 67.1012L130.39 65.5101C129.922 64.4447 129.466 63.3786 129.012 62.3046C128.555 61.2128 128.215 60.0592 127.845 58.923L127.508 57.9008C127.428 57.661 127.372 57.4275 127.424 57.1973C127.474 56.9749 127.609 56.7496 127.732 56.538L128.702 54.9257L130.537 51.8499L131.207 50.68L131.634 49.9176C131.825 49.5598 132.004 49.2156 132.156 48.9067L132.257 48.7017C132.265 48.6703 132.304 48.6342 132.266 48.6032C132.22 48.57 132.169 48.6198 132.129 48.643L131.613 48.9574L130.791 49.4772L124.379 52.9731C124.122 53.1032 123.878 53.1653 123.62 53.1563C123.376 53.1257 123.13 53.0359 122.892 52.8682L121.861 52.1848L120.267 51.1434L117.083 49.0654L114.063 47.1443L113.314 46.6488L113.172 46.5524L113.169 46.5474C113.168 46.5346 113.159 46.5197 113.137 46.4928C113.112 46.4609 113.065 46.4149 113.01 46.3669C112.948 46.3296 112.985 46.3814 112.99 46.4121L113.05 46.5499L113.753 47.9249L115.914 52.165C116.725 53.7702 117.515 55.387 118.465 56.911C118.533 57.0174 118.581 57.1098 118.606 57.1881C118.655 57.3396 118.702 57.4654 118.735 57.5793C118.819 57.9631 118.742 58.2878 118.633 58.5115C118.398 58.9546 118.153 59.0246 118.162 58.9724C118.14 58.912 118.368 58.6858 118.412 58.2138C118.428 58.0117 118.389 57.8208 118.307 57.656C118.191 57.4237 118.172 57.4946 118.135 57.4764L117.919 57.4491C117.774 57.4276 117.63 57.3982 117.485 57.356C117.193 57.2666 116.887 57.106 116.567 56.7864C116.129 56.3559 115.746 55.9398 115.483 55.2608C115.098 54.2803 114.393 53.3927 114.181 52.3443C114.148 52.1969 114.041 52.0131 113.949 51.8669C113.096 50.5661 112.356 49.2064 111.653 47.8185C110.915 46.304 109.623 43.9412 109.483 42.9834C109.422 42.7864 109.354 42.6129 109.287 42.4187C109.274 42.3731 109.253 42.3255 109.239 42.28C109.228 42.2266 109.28 42.1561 109.338 42.1292C109.405 42.0965 109.441 42.1354 109.484 42.1507L109.606 42.2124C109.947 42.3734 110.277 42.5067 110.689 42.6863C110.896 42.7786 111.126 42.877 111.403 43.055L112.715 43.9549L114.257 45.0461C114.647 45.3251 115.041 45.6012 115.439 45.8616C116.042 46.2556 116.674 46.5731 117.05 47.1726C117.131 47.2989 117.448 47.5001 117.599 47.5187C118.168 47.5927 118.642 47.9487 119.131 48.296C120.449 49.2187 121.748 50.1658 123.083 51.0719L123.573 51.3985C123.645 51.43 123.711 51.5314 123.795 51.4821L124.022 51.3566C124.581 51.0368 125.135 50.7199 125.687 50.398L128.059 48.9735L129.243 48.2627L129.851 47.901L130.831 47.3554L132.532 46.423C132.816 46.2706 133.131 46.08 133.355 46.0294C133.475 45.9855 133.57 45.9768 133.682 45.9515L133.951 45.9212C134.29 45.8967 134.512 45.9132 134.732 45.9248C134.787 45.9392 134.813 45.904 134.914 45.9852C134.955 46.0212 135 46.075 135.012 46.1077C135.025 46.1404 135.02 46.1562 135.027 46.1789L135.073 46.4854C135.097 46.6978 135.2 46.8973 135.152 47.2717C135.142 47.5971 134.778 48.1828 134.516 48.6818C134.238 49.1974 133.936 49.7196 133.619 50.1913C133.28 50.6953 132.946 51.23 132.857 51.4085C132.72 51.6752 132.625 51.9572 132.571 52.288C132.51 52.6632 132.227 53.1481 131.982 53.5378C131.669 54.0402 131.307 54.5044 130.95 54.9658C130.519 55.517 130.112 56.0281 129.901 56.7636C129.849 56.9474 129.719 57.2034 129.625 57.3512C129.6 57.3993 129.502 57.4366 129.488 57.5045C129.48 57.5359 129.477 57.5774 129.475 57.6188C129.479 57.6494 129.466 57.6374 129.486 57.7057L129.531 57.8858L129.725 58.6183C129.862 59.1044 130.009 59.5847 130.174 60.0612C130.499 61.0173 130.862 61.958 131.242 62.895L132.801 66.7075L133.195 67.6565L133.81 69.2356L134.494 71.0011L134.844 71.9091C134.959 72.2084 135.102 72.5447 135.129 72.762C135.167 72.9529 135.16 73.0771 135.164 73.2212C135.151 73.3355 135.143 73.4598 135.123 73.5513C135.082 73.7422 135.032 73.8846 134.981 74.0143C134.931 74.1232 134.876 74.235 134.83 74.3154C134.826 74.3311 134.765 74.3866 134.693 74.435C134.614 74.4814 134.586 74.4909 134.568 74.4947C134.52 74.503 134.474 74.5162 134.413 74.5254C134.263 74.5531 134.103 74.5867 133.846 74.5698C133.602 74.5392 133.298 74.5434 132.803 74.1398L130.049 71.5905L128.155 69.8054L125.329 67.0855C124.856 66.6289 124.379 66.1545 123.874 65.7567C123.281 65.2897 122.716 64.8004 122.173 64.2916L121.769 63.9079L121.568 63.7121C121.532 63.6731 121.546 63.6852 121.537 63.6703C121.514 63.6305 121.483 63.5551 121.425 63.582L121.374 63.5854L121.344 63.59L121.201 63.6533L120.587 63.9251C120.176 64.1115 119.776 64.305 119.374 64.5064C118.57 64.909 117.782 65.3286 116.993 65.7561C116.624 65.9579 116.267 66.1795 115.889 66.3407L114.898 66.7657L113.271 67.5156L109.449 69.333L108.962 69.5708C108.804 69.6429 108.612 69.7481 108.506 69.7705L108.318 69.8264L108.17 69.8463C108.063 69.8687 107.978 69.8717 107.908 69.8659C107.589 69.8659 107.401 69.7956 107.24 69.7364C107.148 69.7037 107.107 69.6677 107.045 69.6305C106.983 69.5932 106.929 69.558 106.901 69.5212L106.791 69.4123C106.764 69.3883 106.662 69.2479 106.641 69.2003C106.623 69.1705 106.617 69.1477 106.607 69.12C106.552 68.9792 106.502 68.8148 106.518 68.5328C106.516 68.4736 106.524 68.3958 106.544 68.3043C106.559 68.2156 106.57 68.1428 106.614 68.0239C106.645 67.9187 106.682 67.8106 106.764 67.6765C106.793 67.6127 106.828 67.546 106.895 67.4669C106.949 67.3887 106.998 67.3132 107.095 67.2167L109.747 64.4902L111.001 63.2051L111.589 62.6025L111.933 62.2683C113.227 61.027 114.516 59.7886 115.809 58.5473C115.894 58.4644 115.96 58.3597 116.048 58.2818C116.794 57.5864 117.263 57.5793 117.316 58.2873C117.362 58.9134 117.104 59.5901 116.474 60.2573C115.78 60.9957 115.061 61.7152 114.349 62.4367L114.348 62.4909Z" fill="#DCAF3F"/>
</svg>
