<svg width="535" height="117" viewBox="0 0 535 117" fill="none" xmlns="http://www.w3.org/2000/svg">
<path d="M484.584 69C485.671 69.2652 486.772 69.4508 487.846 69.822C488.813 70.1534 489.755 70.4981 490.736 70.1269C490.988 70.0341 491.266 70.1136 491.531 70.1136C492.009 70.1136 492.499 70.1136 492.976 70.0739C493.202 70.0606 493.427 69.8352 493.626 69.9148C494.62 70.286 495.628 70.3921 496.622 69.9811C497.404 70.4849 498.173 70.1269 498.956 69.9678C499.738 69.8087 500.546 69.9148 501.315 69.5303C501.528 69.4242 501.753 69.3845 501.965 69.464C503.238 69.8883 504.497 69.7292 505.77 69.6231C507.136 69.5038 508.501 69.6364 509.853 70.1136C510.582 70.3655 511.338 70.3523 512.081 70.3523C512.969 70.3523 513.844 70.2064 514.732 70.1667C516.071 70.0871 517.41 70.0076 518.789 69.928C520.685 69.822 522.673 70.1269 524.543 70.8693C525.007 71.0682 525.444 71.3333 525.855 71.6383L526.995 72.6591C528.467 74.0777 529.594 75.7481 530.535 77.4716C531.278 78.7444 531.874 80.1099 532.431 81.4887C532.882 82.7879 533.372 84.127 533.531 85.5455C533.584 86.0493 533.651 86.6194 533.677 87.0834L533.757 88.4622L533.916 91.2198L534.234 96.7217C534.287 97.61 534.42 98.485 534.486 99.36C534.526 99.7975 534.526 100.248 534.499 100.686C534.433 102.316 534.314 103.947 534.274 105.591L534.168 112.618C534.128 113.943 534.035 115.269 534.38 116.595C534.473 116.966 534.181 117.085 533.545 116.94C532.444 116.688 531.291 116.489 530.641 115.852C530.204 115.415 529.859 115.017 530.031 114.487C530.27 113.718 529.766 112.896 530.442 112.127C530.535 112.021 530.509 111.862 530.469 111.729C529.727 109.436 530.151 107.142 530.257 104.849C530.297 104.093 530.177 103.351 530.151 102.595C530.137 102.104 530.137 101.627 530.151 101.136C530.177 100.434 530.297 99.7179 530.244 99.0153C530.204 98.4849 530.005 97.9679 530.655 97.4906C530.787 97.3846 530.761 97.1062 530.601 97.0134C530.005 96.6289 530.071 96.1914 530.084 95.7539C530.137 94.5607 530.257 93.3808 530.257 92.1876C530.257 91.3126 530.164 90.4243 530.031 89.5493C529.806 88.2103 529.501 86.7387 529.223 85.6383L528.852 84.1932C528.719 83.716 528.533 83.2652 528.374 82.8144C528.268 82.6156 528.069 82.4432 527.99 82.2444C527.831 81.8599 527.552 81.5285 527.566 81.1042C527.592 80.6269 527.499 80.269 526.823 80.2159C526.452 80.1762 526.306 79.8845 526.213 79.6194C526.054 79.3012 526.014 78.8902 525.961 78.4792C525.895 77.9887 525.776 77.5114 525.179 77.4451C524.874 77.4053 524.689 77.1004 524.583 76.7955C524.357 76.1061 523.893 75.6288 523.403 75.1781C522.859 74.8068 522.289 74.4754 521.639 74.2898C519.929 73.7197 518.153 73.6137 516.469 73.7728C516.137 73.8125 515.833 73.8125 515.475 73.8258L514.281 73.8788C511.802 74.0114 509.336 73.8523 506.857 73.6667C506.367 73.6269 505.876 73.5739 505.399 73.6932C504.298 73.9716 503.198 73.9053 502.084 73.7065C500.759 73.4811 499.433 73.7065 498.107 73.9451C497.802 73.9981 497.484 74.1307 497.179 74.0909C495.058 73.786 492.937 74.3296 490.815 74.2102C489.105 74.1174 487.395 73.7993 485.671 73.5341C484.346 73.322 483.033 73.0436 481.707 72.8049C481.615 72.7917 481.535 72.8447 481.442 72.8182C480.687 72.6459 480.448 71.8636 480.806 70.6705C481.124 69.6099 481.615 69 482.291 69.0133C483.046 69.0398 483.789 69.1326 484.545 69.1856L484.584 69Z" fill="#E4C985"/>
<path d="M1.56929 52.9296L109.005 0.598295C109.125 0.540769 109.263 0.569535 109.35 0.673081L122.351 16.3201C122.471 16.4639 122.425 16.6768 122.259 16.7573C122.259 16.7573 12.8328 70.1758 12.758 70.055L1.45999 53.3323C1.3622 53.2 1.41973 53.0043 1.56929 52.9296Z" fill="white"/>
<path d="M12.2814 46.7973C15.4165 45.3995 18.5574 43.9556 21.6753 42.621C24.4596 41.4244 27.1978 40.2566 29.9073 38.7609C30.6091 38.3755 31.403 38.0304 32.1508 37.6622C33.5141 36.9949 34.8718 36.3276 36.2294 35.6603C36.8449 35.3497 37.4604 34.947 38.0472 34.6939C40.9522 33.4571 43.7883 32.1225 46.5552 30.5808C48.8678 29.7006 50.9732 28.4983 53.1707 27.3536C55.3625 26.2088 57.6463 25.1504 59.7747 23.9251C60.3385 23.6029 61 23.2578 61.604 22.9989C65.2742 21.4169 68.835 19.6106 72.4246 17.8043C76.2731 15.8714 80.1619 14.0421 84.0966 12.3566C86.1906 11.4592 88.3363 10.4065 90.436 9.3825C92.9269 8.13994 95.412 6.8974 97.9028 5.65484C99.6631 4.77469 101.412 3.89457 103.161 3.01442L105.767 1.66826L108.516 0.224359C108.649 0.155328 108.781 0.103608 108.908 0.0633402C109.011 0.0345773 109.103 0 109.218 0C109.327 0 109.443 0.0345352 109.529 0.092061C109.696 0.20136 109.868 0.34518 110.024 0.529263L110.806 1.41518L112.146 2.9166C113.038 3.9233 113.93 4.93001 114.827 5.93671C116.605 7.96737 118.382 9.99801 120.165 12.0287C120.591 12.5292 121.017 13.0296 121.448 13.5359C121.983 14.1859 122.524 14.8417 123.065 15.4917C123.26 15.7391 123.37 15.9922 123.427 16.2166C123.456 16.3316 123.473 16.4236 123.479 16.5387C123.485 16.6595 123.456 16.8033 123.41 16.9241C123.358 17.0507 123.306 17.1312 123.237 17.2175C123.151 17.3038 123.099 17.3958 122.984 17.4764C122.731 17.6317 122.535 17.81 122.231 17.9366C121.46 18.3048 120.689 18.6672 119.918 19.0296C114.896 21.3997 109.88 23.764 104.858 26.134C101.096 27.9346 97.3448 29.7869 93.6057 31.645C90.1254 33.3995 86.6565 35.1541 83.1762 36.9086L52.1698 52.3716C49.6904 53.6199 47.2168 54.8682 44.7374 56.1223C43.5006 56.7435 42.2466 57.3533 40.9983 57.9516L27.077 64.6304L19.9265 68.0877L16.3485 69.8134L14.5421 70.6763L13.777 71.0387C13.6505 71.125 13.5124 71.0905 13.3743 71.0963H12.9659C12.8509 71.079 12.7473 71.0445 12.6323 71.0215L12.5517 71.0042L12.5115 70.9927L12.4942 70.9869H12.4885C12.5632 70.7165 12.3849 71.3551 12.4022 71.2861L12.3907 71.2803L12.2296 71.171C12.0225 71.0157 11.8039 70.8949 11.6026 70.7166L7.8116 65.0905C5.47605 61.616 3.16928 58.1299 0.707171 54.7647C0.534593 54.5288 0.396519 54.3274 0.298725 54.1606L0.264211 54.1031C0.258458 54.0973 0.200948 53.9938 0.172185 53.942C0.143422 53.8787 0.120409 53.8212 0.0973982 53.7637C0.0111094 53.5279 -0.0119206 53.292 0.00533719 53.0791C0.0398527 52.6592 0.218179 52.3428 0.396509 52.1472C0.776179 51.7503 1.04656 51.7445 1.0178 51.7963C1.0178 51.8653 0.712908 52.0264 0.511568 52.5154C0.350495 52.9296 0.425273 53.384 0.649624 53.6947C0.672634 53.7292 0.724422 53.7982 0.735927 53.7924L0.776199 53.8097L0.850986 53.8443L1.00628 53.9133C1.21337 54.0111 1.42622 54.1204 1.65633 54.2642C2.11653 54.5518 2.64579 54.9832 3.32459 55.7368C4.245 56.755 5.07914 57.7215 5.95928 59.1539C7.24211 61.2363 8.87008 63.244 9.97458 65.3954C10.1299 65.7003 10.4175 66.103 10.6591 66.4194C11.3207 67.3283 11.9822 68.2315 12.6495 69.1404L12.8796 69.4568C12.8911 69.4683 12.8969 69.4855 12.9084 69.4913L12.9544 69.474L13.0464 69.428L13.2248 69.3417L14.0301 68.939L16.0551 67.9381L20.1279 65.9707C22.8546 64.6764 25.5813 63.3763 28.3081 62.0819C30.4365 61.0637 32.542 59.9823 34.6589 58.9353L38.7893 56.9219C40.7969 55.9554 42.8218 55.0235 44.8065 54.0283C46.3079 53.2805 47.7288 52.4866 49.213 52.0782C49.5236 51.9919 50.3117 51.595 50.5591 51.3994C51.514 50.6458 52.7681 50.0648 54.0164 49.4608L64.1294 44.5998C66.6145 43.386 69.0939 42.132 71.5445 40.8664C75.3469 38.8875 79.1322 36.9144 82.9346 34.9355C86.1216 33.296 89.3488 31.7025 92.5587 30.0861C93.3008 29.7121 94.0141 29.3037 94.7562 28.9298C96.1195 28.251 97.5347 27.4917 98.8635 26.9452C100.336 26.3411 101.464 25.8119 102.683 24.9605C103.368 24.483 104.553 23.9193 105.519 23.4706C106.762 22.8953 108.027 22.3776 109.264 21.8713C110.754 21.2616 112.158 20.7036 113.636 19.7831C114.43 19.2884 115.615 18.7765 116.587 18.3738C117.669 17.9251 118.744 17.4533 119.82 16.9701L120.597 16.6192L120.942 16.4697L121.12 16.3892C121.184 16.3719 121.235 16.3144 121.23 16.2454C121.184 16.1303 121.086 16.044 121.011 15.9347L120.16 14.8992L119.038 13.5589L116.766 10.8897L112.376 5.79865L110.179 3.25598L109.103 2.0134L108.959 1.86959C108.902 1.81206 108.833 1.89265 108.781 1.91566L104.024 4.35475C101.797 5.48801 99.5423 6.59823 97.2931 7.70848C90.3037 11.1715 83.274 14.5253 76.2329 17.8618C74.8522 18.5176 73.4429 19.1792 72.114 19.881C69.0306 21.5147 65.907 23.0046 62.743 24.4542C58.9348 26.1973 55.2359 28.1129 51.537 30.0285C50.6741 30.4772 49.817 30.9547 48.9483 31.3573C42.8736 34.1646 36.983 37.2998 30.96 40.1761C26.0876 42.5059 21.1806 44.7437 16.2851 46.9987C12.4942 48.7244 8.72051 50.4502 4.93531 52.176C4.68795 52.291 4.4406 52.4349 4.19324 52.5442C2.03026 53.5164 1.20763 53.5336 1.98999 52.5786C2.6803 51.733 3.96886 50.8069 5.89598 49.875L12.2929 46.8433L12.2814 46.7973Z" fill="#E4C985"/>
<path d="M23.9755 51.7215C23.9985 51.5604 23.987 51.4281 24.0445 51.2383C24.0963 51.0715 24.1538 50.9046 23.964 50.9276C23.918 50.9334 23.9294 50.8874 23.9064 50.8701C23.8719 50.8356 23.8432 50.7953 23.8029 50.7666C23.7856 50.7551 23.6936 50.7954 23.7051 50.7609C23.7684 50.5825 23.7396 50.4732 23.5383 50.502C23.6591 50.3006 23.4865 50.3409 23.383 50.3237C23.2794 50.3064 23.2622 50.2086 23.0838 50.2546C23.0378 50.2661 23.009 50.2604 23.0206 50.2201C23.0838 50.0015 22.9515 49.944 22.8307 49.875C22.7041 49.8002 22.6639 49.6506 22.7329 49.4147C22.7732 49.2882 22.7214 49.2307 22.6697 49.1732C22.6121 49.1041 22.5086 49.0753 22.4338 49.0121C22.3302 48.9258 22.2037 48.8625 22.0023 48.8625C21.732 48.8567 21.4961 48.8222 21.2948 48.7647C21.1912 48.7359 21.1912 48.6209 21.1625 48.5289C21.105 48.3448 21.0762 48.1376 20.9956 47.9708C20.9381 47.8443 20.8346 47.7523 20.7253 47.666C20.6217 47.5854 20.4722 47.5451 20.3629 47.4703C20.0407 47.2517 19.7301 47.0217 19.4137 46.7973C19.3389 46.7456 19.2354 46.711 19.1548 46.6593C19.1146 46.6363 19.0858 46.6017 19.0628 46.5615C18.9765 46.4176 18.9075 46.2566 18.8154 46.1185C18.6773 45.9229 18.5163 45.7446 18.384 45.549C18.3092 45.4339 18.2516 45.3074 18.0446 45.3016C17.987 45.3016 18.0791 45.2096 18.3034 45.0485C18.6888 44.7666 19.0915 44.4675 19.3562 44.341C19.5345 44.2547 19.6783 44.1914 19.6553 44.2777C19.6265 44.4043 19.8509 44.3295 19.6725 44.5711C19.6495 44.6056 19.6668 44.6113 19.6898 44.6056C20.0925 44.5826 20.104 44.876 20.219 45.0773C20.2593 45.1463 20.3456 45.1694 20.4031 45.2211C20.4434 45.2556 20.4722 45.2901 20.5009 45.3362C20.5412 45.3994 20.5469 45.4857 20.6102 45.526C20.6562 45.5547 20.7598 45.5432 20.5699 45.7561C20.5297 45.8021 20.5584 45.8136 20.616 45.7791C20.8461 45.6468 20.8518 45.6985 20.8748 45.7388C20.9324 45.8481 20.9784 45.9689 21.0532 46.061C21.1107 46.13 21.2027 46.1703 21.3063 46.2048C21.4674 46.2508 21.6744 46.2623 21.8298 46.3141C21.9621 46.3601 22.0484 46.4407 22.1577 46.4982C22.1807 46.5097 22.244 46.4982 22.267 46.5155C22.3072 46.5442 22.3878 46.5442 22.3475 46.642C22.3015 46.7455 22.3072 46.7915 22.5201 46.6822C22.6409 46.619 22.6524 46.665 22.6581 46.7053C22.6639 46.757 22.6236 46.8491 22.5776 46.9354C22.5258 47.0447 22.4741 47.1482 22.6409 47.085C22.7329 47.0504 22.7157 47.1194 22.6869 47.1827C22.5661 47.4761 22.6754 47.5797 22.8307 47.6487C23.0436 47.7407 23.2852 47.8097 23.5038 47.9018C23.5901 47.9363 23.6476 47.9938 23.7109 48.0456C23.9122 48.2067 24.0158 48.4483 24.1136 48.6899C24.1308 48.7359 24.1423 48.7935 24.2171 48.7992C24.3782 48.8107 24.4299 48.92 24.4357 49.0581C24.4415 49.2249 24.6025 49.2709 24.7693 49.3112C24.8096 49.3227 24.8729 49.3112 24.8786 49.3457C24.9074 49.5988 25.2295 49.6161 25.3273 49.8174C25.4079 49.9785 25.4079 50.2028 25.4251 50.4099C25.4424 50.571 25.4309 50.7493 25.4309 50.9219C25.4309 50.9334 25.4539 50.9277 25.4539 50.9392C25.4424 51.0427 25.195 51.2786 24.7693 51.5777C24.3897 51.8423 24.1538 51.9689 24.1136 51.9114C24.0733 51.8481 24.056 51.7618 24.0273 51.687C24.0157 51.6928 23.9927 51.71 23.9755 51.7215Z" fill="#E4C985"/>
<path d="M29.8205 45.5837C29.8665 45.4571 29.8895 45.3593 29.9758 45.204C30.0506 45.0659 30.1311 44.9279 29.9701 44.9854C29.9298 44.9969 29.947 44.9624 29.9355 44.9508C29.9125 44.9278 29.901 44.9048 29.8665 44.8933C29.855 44.8876 29.7687 44.9394 29.786 44.9049C29.8723 44.7553 29.8665 44.6805 29.6939 44.7438C29.8377 44.5654 29.6824 44.6287 29.5961 44.6345C29.5098 44.6402 29.5214 44.5712 29.3545 44.6403C29.3143 44.6575 29.2912 44.6575 29.3027 44.6287C29.3948 44.4504 29.297 44.4331 29.2107 44.4044C29.1187 44.3699 29.1129 44.2663 29.2165 44.0764C29.274 43.9729 29.2395 43.9384 29.2107 43.9039C29.1762 43.8636 29.0899 43.8579 29.0439 43.8291C28.9748 43.7831 28.8771 43.7601 28.7045 43.8003C28.4744 43.8521 28.2845 43.8694 28.1235 43.8636C28.0429 43.8578 28.0659 43.7716 28.0544 43.7083C28.0372 43.5818 28.0544 43.4264 28.0257 43.3171C28.0027 43.2308 27.9336 43.1849 27.8588 43.1388C27.7898 43.0986 27.669 43.0986 27.5885 43.0641C27.3584 42.9605 27.1455 42.8454 26.9212 42.7361C26.8694 42.7131 26.7889 42.7074 26.7256 42.6844C26.6968 42.6729 26.6796 42.6556 26.6681 42.6269C26.6278 42.5348 26.599 42.4255 26.5415 42.3392C26.4667 42.2184 26.3632 42.1149 26.2884 41.9883C26.2481 41.9193 26.2251 41.833 26.0525 41.8675C26.0065 41.879 26.0986 41.7927 26.3229 41.6259C26.7026 41.3383 27.0995 41.0334 27.3469 40.8838C27.5137 40.7803 27.646 40.7112 27.6115 40.7802C27.5597 40.8838 27.7668 40.7802 27.5712 40.9988C27.5424 41.0276 27.5597 41.0276 27.577 41.0219C27.9221 40.9241 27.8704 41.1426 27.9279 41.2807C27.9452 41.3267 28.0142 41.3267 28.0544 41.3555C28.0832 41.3727 28.1004 41.3957 28.1119 41.4245C28.135 41.4648 28.1235 41.5281 28.1695 41.5454C28.204 41.5626 28.296 41.5281 28.089 41.7294C28.0487 41.7697 28.0717 41.7754 28.1235 41.7352C28.3421 41.5914 28.3363 41.6259 28.3478 41.6546C28.3766 41.7237 28.3881 41.8099 28.4399 41.8617C28.4744 41.902 28.5434 41.9192 28.6239 41.9192C28.7505 41.925 28.9231 41.8905 29.0439 41.902C29.1474 41.9078 29.205 41.9538 29.2855 41.9768C29.3028 41.9826 29.3603 41.9595 29.3718 41.971C29.4005 41.9883 29.4696 41.9711 29.4178 42.0516C29.3603 42.1379 29.3545 42.1724 29.5559 42.0458C29.6652 41.9768 29.6709 42.0056 29.6709 42.0343C29.6652 42.0746 29.6134 42.1493 29.5616 42.2241C29.4983 42.3162 29.4293 42.4082 29.5904 42.3219C29.6767 42.2759 29.6479 42.3334 29.6076 42.3852C29.4466 42.6326 29.5214 42.6901 29.6422 42.7074C29.8032 42.7362 29.993 42.7419 30.1599 42.7649C30.2231 42.7764 30.2634 42.8109 30.3037 42.8339C30.4417 42.9145 30.482 43.0813 30.5166 43.2481C30.5223 43.2826 30.5223 43.3229 30.5798 43.3114C30.7121 43.2884 30.7351 43.3632 30.7121 43.4667C30.6891 43.5933 30.8157 43.5932 30.948 43.5932C30.9768 43.5932 31.0343 43.5702 31.0285 43.599C31.0055 43.7831 31.2701 43.737 31.3161 43.8694C31.3507 43.9787 31.3104 44.1455 31.2874 44.3008C31.2701 44.4216 31.2241 44.5597 31.1954 44.6863C31.1954 44.692 31.2126 44.6863 31.2126 44.692C31.1838 44.7725 30.925 44.9969 30.5108 45.3075C30.1426 45.5836 29.9125 45.7217 29.8953 45.6872C29.8723 45.6469 29.878 45.5836 29.8665 45.5319C29.8608 45.5549 29.8377 45.5664 29.8205 45.5837Z" fill="#E4C985"/>
<path d="M34.8302 42.0457C34.8878 41.9307 34.9108 41.8387 35.0028 41.6948C35.0833 41.5683 35.1696 41.4359 35.0143 41.4992C34.974 41.5165 34.9913 41.482 34.9855 41.4705C34.9683 41.4532 34.9568 41.4302 34.928 41.4244C34.9165 41.4187 34.8302 41.4704 34.8532 41.4417C34.9453 41.3036 34.951 41.2346 34.7784 41.3036C34.9223 41.1368 34.7784 41.2058 34.6979 41.2173C34.6174 41.2288 34.6289 41.1656 34.4735 41.2404C34.4333 41.2576 34.4103 41.2634 34.4275 41.2346C34.5311 41.0678 34.439 41.062 34.3585 41.039C34.2722 41.016 34.278 40.924 34.393 40.7456C34.4563 40.6479 34.4275 40.6248 34.3988 40.5961C34.37 40.5616 34.2895 40.5673 34.2492 40.5443C34.1859 40.5098 34.0996 40.4983 33.9385 40.5443C33.7199 40.6076 33.5416 40.6421 33.3921 40.6478C33.3173 40.6536 33.346 40.5731 33.3403 40.5155C33.3403 40.4005 33.3633 40.2624 33.346 40.1646C33.3288 40.0898 33.2713 40.0496 33.2022 40.0208C33.139 39.9921 33.0297 39.9978 32.9606 39.9748C32.7535 39.9 32.5637 39.8137 32.3623 39.7389C32.3163 39.7217 32.2415 39.7217 32.184 39.7102C32.1553 39.7044 32.1438 39.6872 32.1323 39.6642C32.0977 39.5836 32.0805 39.4915 32.0402 39.4168C31.9769 39.3132 31.8964 39.2269 31.8331 39.1234C31.7986 39.0659 31.7871 38.9854 31.6203 39.0314C31.5743 39.0429 31.672 38.9566 31.8906 38.7898C32.2703 38.4964 32.6672 38.1915 32.9088 38.0419C33.0757 37.9383 33.2022 37.8578 33.162 37.9269C33.1044 38.0247 33.3058 37.9153 33.1044 38.1282C33.0757 38.157 33.0929 38.157 33.1102 38.1512C33.4381 38.0362 33.3748 38.2375 33.4208 38.3525C33.4323 38.3928 33.5014 38.3871 33.5359 38.4101C33.5589 38.4216 33.5761 38.4446 33.5876 38.4676C33.6049 38.5021 33.5877 38.5596 33.6279 38.5712C33.6567 38.5827 33.7487 38.5424 33.5416 38.7438C33.4956 38.784 33.5186 38.7898 33.5761 38.7495C33.7947 38.5999 33.7832 38.6344 33.7947 38.6575C33.8177 38.715 33.8178 38.7897 33.858 38.8357C33.8868 38.8703 33.9501 38.876 34.0248 38.8703C34.1457 38.8645 34.3067 38.8243 34.4218 38.8185C34.5138 38.8185 34.5656 38.853 34.6404 38.8645C34.6576 38.8703 34.7094 38.8415 34.7209 38.8473C34.7439 38.8588 34.813 38.8415 34.7554 38.9163C34.6922 39.0026 34.6864 39.0313 34.882 38.899C34.9913 38.83 34.997 38.8531 34.9855 38.8818C34.974 38.9163 34.9223 38.9911 34.8647 39.0601C34.8015 39.1464 34.7267 39.2327 34.882 39.1464C34.9625 39.1004 34.9338 39.1521 34.8935 39.2039C34.7209 39.4398 34.79 39.48 34.8993 39.4916C35.0488 39.5031 35.2271 39.4916 35.3825 39.5031C35.44 39.5088 35.4745 39.5318 35.5147 39.5548C35.6356 39.6181 35.6643 39.7619 35.6816 39.9057C35.6873 39.9345 35.6816 39.969 35.7391 39.9575C35.8657 39.9288 35.8772 39.9863 35.8484 40.0841C35.8139 40.1991 35.9347 40.1877 36.0555 40.1761C36.0843 40.1704 36.136 40.1531 36.1303 40.1761C36.0958 40.343 36.3432 40.2797 36.3719 40.3947C36.3949 40.4868 36.3431 40.6421 36.3086 40.7801C36.2798 40.8894 36.2281 41.016 36.1878 41.1368C36.1878 41.1425 36.2051 41.1368 36.1993 41.1425C36.1648 41.2173 35.9059 41.4417 35.4918 41.7523C35.1236 42.0285 34.8992 42.178 34.8877 42.1435C34.8705 42.109 34.8762 42.0514 34.8762 42.0054C34.8647 42.0169 34.8475 42.0342 34.8302 42.0457Z" fill="#E4C985"/>
<path d="M39.916 39.4856C39.9677 39.3705 39.9965 39.2727 40.0885 39.1289C40.1691 38.9966 40.2554 38.8643 40.0943 38.9276C40.054 38.9449 40.0713 38.9103 40.0655 38.8988C40.0483 38.8816 40.031 38.8586 40.008 38.8471C39.9965 38.8413 39.9102 38.8931 39.9332 38.8643C40.0253 38.7205 40.0253 38.6515 39.8584 38.7263C40.0023 38.5537 39.8527 38.6227 39.7779 38.6342C39.7031 38.6457 39.7089 38.5825 39.5535 38.6573C39.5133 38.6745 39.4903 38.6803 39.5075 38.6515C39.6111 38.4847 39.5133 38.4732 39.4385 38.4502C39.3522 38.4272 39.3522 38.3351 39.4673 38.151C39.5305 38.0532 39.5018 38.0245 39.473 37.9957C39.4442 37.9612 39.3637 37.9612 39.3235 37.9382C39.2602 37.9037 39.1681 37.8864 39.007 37.9324C38.7884 37.9957 38.6044 38.0245 38.4548 38.0302C38.38 38.0302 38.403 37.9496 38.403 37.8921C38.3973 37.7771 38.426 37.639 38.403 37.5355C38.3858 37.4607 38.3225 37.4205 38.2534 37.386C38.1902 37.3514 38.0751 37.3629 38.0061 37.3341C37.799 37.2536 37.6034 37.1673 37.3963 37.081C37.3445 37.0638 37.2698 37.0638 37.218 37.0465C37.1892 37.0407 37.1777 37.0235 37.1662 37.0005C37.1317 36.92 37.1144 36.8221 37.0684 36.7474C37.0051 36.6381 36.9189 36.5518 36.8556 36.4483C36.8211 36.385 36.8038 36.3102 36.6427 36.3505C36.5967 36.362 36.6945 36.2757 36.9131 36.1088C37.2928 35.8154 37.6897 35.5106 37.9313 35.361C38.0981 35.2575 38.2247 35.1827 38.1902 35.2459C38.1327 35.3437 38.334 35.2344 38.1384 35.4473C38.1097 35.476 38.1269 35.476 38.1441 35.4703C38.472 35.361 38.4145 35.5623 38.4606 35.6774C38.4778 35.7176 38.5411 35.7119 38.5756 35.7349C38.5986 35.7464 38.6159 35.7695 38.6274 35.7925C38.6446 35.827 38.6274 35.8845 38.6734 35.9017C38.7022 35.9132 38.7942 35.8788 38.5871 36.0743C38.5468 36.1146 38.5641 36.1204 38.6216 36.0801C38.8402 35.9305 38.8287 35.965 38.8402 35.988C38.8632 36.0513 38.869 36.1261 38.9093 36.1721C38.938 36.2066 39.0013 36.2182 39.0818 36.2124C39.2026 36.2067 39.3637 36.1663 39.4788 36.1663C39.5765 36.1663 39.6226 36.2009 39.7031 36.2182C39.7204 36.2239 39.7722 36.1951 39.7837 36.2066C39.8067 36.2181 39.8757 36.2009 39.8182 36.2757C39.7549 36.362 39.7549 36.3907 39.9505 36.2642C40.0598 36.1951 40.0655 36.2181 40.0598 36.2469C40.054 36.2814 39.9965 36.3562 39.939 36.431C39.8757 36.5173 39.8009 36.6093 39.9562 36.5173C40.0368 36.4713 40.008 36.523 39.9677 36.5748C39.8009 36.8107 39.8642 36.8567 39.9735 36.8682C40.123 36.8855 40.3071 36.8739 40.4625 36.8854C40.5257 36.8912 40.5545 36.92 40.5948 36.9372C40.7213 37.0005 40.7501 37.1501 40.7673 37.2996C40.7731 37.3284 40.7673 37.3629 40.8249 37.3514C40.9514 37.3226 40.9687 37.3859 40.9399 37.4837C40.9054 37.5988 41.0262 37.593 41.1528 37.5815C41.1815 37.5815 41.2333 37.5585 41.2333 37.5815C41.1988 37.7541 41.4519 37.6908 41.4807 37.8116C41.5037 37.9094 41.4576 38.0647 41.4231 38.2085C41.3944 38.3178 41.3426 38.4501 41.3081 38.5709C41.3081 38.5767 41.3253 38.571 41.3196 38.5767C41.2851 38.6515 41.0262 38.8758 40.612 39.1864C40.2439 39.4626 40.0195 39.6064 40.0023 39.5777C39.985 39.5431 39.9907 39.4856 39.9907 39.4396C39.9562 39.4569 39.9332 39.4741 39.916 39.4856Z" fill="#E4C985"/>
<path d="M49.0453 40.2681C49.0683 40.1071 49.0568 39.9748 49.1143 39.7849C49.1661 39.6181 49.2236 39.4513 49.0338 39.4743C48.9878 39.48 48.9993 39.434 48.9763 39.4168C48.9417 39.3823 48.913 39.342 48.8727 39.3133C48.8555 39.3018 48.7634 39.342 48.7749 39.3075C48.8382 39.1292 48.8094 39.0198 48.6081 39.0486C48.7289 38.8473 48.5563 38.8876 48.4528 38.8703C48.3492 38.853 48.3377 38.7553 48.1536 38.8013C48.1076 38.8128 48.0789 38.807 48.0904 38.7667C48.1537 38.5481 48.0213 38.4906 47.9005 38.4216C47.774 38.3468 47.7337 38.1973 47.8027 37.9614C47.843 37.8349 47.7855 37.7773 47.7394 37.7198C47.6819 37.6508 47.5784 37.622 47.5036 37.5587C47.4001 37.4724 47.2735 37.4091 47.0722 37.4091C46.8018 37.4034 46.5659 37.3689 46.3646 37.3114C46.2611 37.2769 46.261 37.1675 46.2323 37.0755C46.1747 36.8914 46.146 36.6843 46.0655 36.5175C46.0079 36.391 45.9044 36.2989 45.7951 36.2126C45.6916 36.1321 45.542 36.0918 45.4327 36.017C45.1105 35.7984 44.7999 35.5683 44.4835 35.344C44.4087 35.2922 44.3052 35.2577 44.2246 35.2059C44.1844 35.1829 44.1556 35.1484 44.1326 35.1081C44.0463 34.9643 43.9773 34.8032 43.8852 34.6651C43.7472 34.4695 43.5919 34.2912 43.4538 34.0956C43.379 33.9806 43.3215 33.8541 43.1144 33.8483C43.0568 33.8483 43.1489 33.7562 43.3732 33.5952C43.7587 33.3133 44.1614 33.0142 44.426 32.8876C44.6043 32.8013 44.7481 32.738 44.7251 32.8243C44.6963 32.9509 44.9207 32.8761 44.7424 33.1177C44.7194 33.1522 44.7366 33.1579 44.7596 33.1522C45.1623 33.1292 45.1738 33.4226 45.2889 33.6239C45.3291 33.693 45.4154 33.716 45.473 33.7678C45.5132 33.8023 45.542 33.8368 45.5707 33.8828C45.611 33.9461 45.6168 34.0324 45.68 34.0727C45.7261 34.1014 45.8296 34.0899 45.6398 34.3027C45.5995 34.3487 45.6283 34.3603 45.6858 34.3257C45.9159 34.1934 45.9217 34.2452 45.9389 34.2855C45.9964 34.3948 46.0425 34.5156 46.1172 34.6076C46.1748 34.6766 46.2668 34.7169 46.3704 34.7514C46.5314 34.7975 46.7385 34.809 46.8938 34.8608C47.0261 34.9068 47.1124 34.9873 47.2217 35.0448C47.2447 35.0563 47.308 35.0448 47.331 35.0621C47.3713 35.0909 47.4518 35.0908 47.4116 35.1886C47.3656 35.2922 47.3713 35.3382 47.5841 35.2289C47.7049 35.1657 47.7164 35.2116 47.7222 35.2519C47.728 35.3037 47.6877 35.3957 47.6417 35.482C47.5899 35.5913 47.5381 35.6949 47.7049 35.6316C47.797 35.5971 47.7797 35.6661 47.751 35.7294C47.6302 36.0228 47.7395 36.1263 47.8948 36.1953C48.1076 36.2874 48.3492 36.3564 48.5678 36.4485C48.6541 36.483 48.7117 36.5405 48.7749 36.5923C48.9763 36.7534 49.0798 36.995 49.1776 37.2366C49.1948 37.2826 49.2064 37.3401 49.2812 37.3459C49.4422 37.3574 49.494 37.4666 49.4998 37.6047C49.5055 37.7715 49.6666 37.8176 49.8334 37.8578C49.8737 37.8693 49.9369 37.8578 49.9369 37.8923C49.9657 38.1454 50.2879 38.1627 50.3857 38.3641C50.4662 38.5251 50.4662 38.7495 50.4834 38.9566C50.5007 39.1177 50.4892 39.296 50.4892 39.4686C50.4892 39.4801 50.5122 39.4743 50.5122 39.4858C50.5007 39.5951 50.2533 39.8252 49.8276 40.1243C49.448 40.3889 49.2121 40.5155 49.1719 40.458C49.1316 40.3947 49.1143 40.3084 49.0913 40.2337C49.0798 40.2394 49.0625 40.2509 49.0453 40.2681Z" fill="#E4C985"/>
<path d="M53.6533 34.1072C53.6993 33.9807 53.7166 33.8771 53.8029 33.7218C53.8776 33.5837 53.9582 33.4399 53.7913 33.4917C53.7511 33.5032 53.7683 33.4687 53.7568 33.4572C53.7338 33.4342 53.7166 33.4112 53.6878 33.3939C53.6763 33.3881 53.59 33.4342 53.6073 33.4054C53.6936 33.2558 53.6878 33.1753 53.5095 33.2386C53.6475 33.0602 53.4922 33.1235 53.4117 33.1235C53.3254 33.1293 53.3311 33.0603 53.1701 33.1235C53.124 33.1408 53.1068 33.1408 53.1183 33.112C53.2103 32.9337 53.1068 32.9107 53.0205 32.8761C52.9227 32.8416 52.917 32.7324 53.0205 32.5368C53.078 32.4332 53.0435 32.3987 53.009 32.3642C52.9745 32.3239 52.8882 32.3181 52.8364 32.2836C52.7674 32.2376 52.6638 32.2089 52.4913 32.2434C52.2612 32.2894 52.0656 32.3066 51.9045 32.2951C51.824 32.2894 51.8412 32.2031 51.8297 32.1341C51.8125 32.0018 51.824 31.8464 51.7895 31.7314C51.7607 31.6451 51.6917 31.5934 51.6111 31.5473C51.5363 31.5071 51.4155 31.5013 51.335 31.461C51.0991 31.346 50.8806 31.2252 50.6447 31.1101C50.5872 31.0814 50.5066 31.0756 50.4433 31.0526C50.4146 31.0411 50.3916 31.0181 50.3801 30.995C50.334 30.8972 50.3053 30.788 50.2478 30.696C50.1672 30.5694 50.0637 30.4601 49.9831 30.3336C49.9371 30.2588 49.9141 30.1724 49.7415 30.2012C49.6955 30.2127 49.7875 30.1207 50.0061 29.9539C50.3916 29.6662 50.7828 29.3613 51.0301 29.2175C51.1969 29.1197 51.3293 29.045 51.2947 29.114C51.243 29.2176 51.4501 29.1197 51.2602 29.3383C51.2315 29.3671 51.2487 29.3671 51.2717 29.3613C51.6169 29.2693 51.5766 29.4936 51.6341 29.6317C51.6571 29.6777 51.7262 29.6835 51.7664 29.7122C51.7952 29.7295 51.8125 29.7525 51.8297 29.7813C51.8527 29.8215 51.8412 29.8849 51.8872 29.9079C51.9218 29.9251 52.0138 29.8906 51.8125 30.0919C51.7722 30.1322 51.7952 30.1379 51.8527 30.1034C52.0713 29.9596 52.0656 29.9999 52.0771 30.0229C52.1116 30.0977 52.1231 30.184 52.1749 30.2415C52.2151 30.2818 52.2784 30.299 52.3647 30.3048C52.497 30.3105 52.6696 30.2817 52.7904 30.2932C52.894 30.3047 52.9515 30.3508 53.0378 30.3738C53.055 30.3795 53.1126 30.3565 53.1241 30.368C53.1528 30.3853 53.2218 30.368 53.1701 30.4486C53.1125 30.5349 53.1126 30.5694 53.3082 30.4486C53.4175 30.3795 53.4289 30.4083 53.4232 30.4428C53.4174 30.4831 53.3656 30.5578 53.3139 30.6384C53.2506 30.7304 53.1873 30.8225 53.3427 30.742C53.429 30.6959 53.4002 30.7535 53.3657 30.811C53.2103 31.0584 53.2851 31.1216 53.4059 31.1446C53.567 31.1791 53.7683 31.1849 53.9352 31.2194C54.0042 31.2309 54.0387 31.2654 54.0847 31.2942C54.2286 31.3805 54.2746 31.5473 54.3091 31.7256C54.3148 31.7601 54.3148 31.8004 54.3781 31.7889C54.5162 31.7716 54.5392 31.8407 54.5162 31.95C54.4932 32.0765 54.6197 32.0823 54.7578 32.0823C54.7865 32.0823 54.8441 32.065 54.8441 32.088C54.8268 32.2779 55.0914 32.2376 55.1375 32.3757C55.172 32.485 55.1374 32.6576 55.1144 32.8186C55.0972 32.9394 55.0569 33.0833 55.0282 33.2156C55.0282 33.2271 55.0454 33.2155 55.0454 33.227C55.0166 33.3133 54.7635 33.5377 54.3436 33.8426C53.9754 34.113 53.7453 34.2568 53.7223 34.2165C53.6993 34.1705 53.6993 34.1072 53.6936 34.0555C53.6878 34.0785 53.6705 34.09 53.6533 34.1072Z" fill="#E4C985"/>
<path d="M58.7729 31.363C58.8189 31.2364 58.8361 31.1329 58.9224 30.9776C58.9972 30.8396 59.0777 30.7015 58.9109 30.7533C58.8706 30.7648 58.8879 30.7302 58.8764 30.7187C58.8534 30.6957 58.8361 30.6727 58.8074 30.6554C58.7959 30.6497 58.7096 30.6957 58.7268 30.667C58.8131 30.5174 58.8074 30.4426 58.629 30.5001C58.7671 30.3218 58.6175 30.3851 58.5312 30.3908C58.4449 30.3966 58.4507 30.3276 58.2896 30.3966C58.2436 30.4139 58.2263 30.4138 58.2378 30.3851C58.3299 30.2067 58.2263 30.1895 58.1401 30.155C58.048 30.1204 58.0365 30.0169 58.1458 29.8213C58.2033 29.7178 58.1688 29.6832 58.1343 29.6487C58.0998 29.6085 58.0135 29.6027 57.9675 29.5682C57.8984 29.5222 57.8006 29.4992 57.6281 29.5337C57.398 29.5797 57.2024 29.597 57.0413 29.5912C56.9608 29.5855 56.978 29.4992 56.9723 29.4359C56.955 29.3036 56.9723 29.154 56.9378 29.039C56.909 28.9527 56.84 28.9009 56.7652 28.8549C56.6904 28.8146 56.5696 28.8088 56.4948 28.7743C56.2647 28.665 56.0404 28.5442 55.8103 28.4292C55.7527 28.4004 55.6722 28.3947 55.6147 28.3717C55.5859 28.3602 55.5687 28.3372 55.5571 28.3142C55.5111 28.2164 55.4824 28.1071 55.4248 28.0208C55.3443 27.8942 55.2408 27.7907 55.166 27.6584C55.12 27.5836 55.097 27.4973 54.9244 27.5318C54.8784 27.5433 54.9704 27.457 55.1947 27.2902C55.5744 27.0026 55.9713 26.6976 56.2187 26.5481C56.3855 26.4503 56.5178 26.3755 56.4833 26.4446C56.4315 26.5481 56.6386 26.4503 56.443 26.6689C56.4143 26.6977 56.4315 26.6976 56.4488 26.6919C56.7939 26.5999 56.7479 26.8243 56.8112 26.9566C56.8285 27.0026 56.9032 27.0026 56.9435 27.0313C56.9723 27.0486 56.9896 27.0716 57.0068 27.1004C57.0298 27.1406 57.0183 27.2039 57.0643 27.2269C57.0988 27.2442 57.1909 27.2096 56.9895 27.411C56.9493 27.4512 56.9723 27.457 57.024 27.4225C57.2426 27.2787 57.2369 27.3189 57.2484 27.3419C57.2772 27.411 57.2944 27.4973 57.3404 27.5548C57.3749 27.5951 57.444 27.6123 57.5303 27.6181C57.6626 27.6238 57.8294 27.5951 57.956 27.6066C58.0595 27.6181 58.1171 27.6641 58.1976 27.6871C58.2149 27.6928 58.2724 27.6698 58.2839 27.6813C58.3126 27.6986 58.3817 27.6813 58.3299 27.7619C58.2724 27.8482 58.2724 27.8827 58.468 27.7619C58.5773 27.6928 58.5888 27.7217 58.583 27.7504C58.5773 27.7907 58.5255 27.8655 58.4737 27.946C58.4104 28.038 58.3414 28.13 58.5025 28.0495C58.5888 28.0035 58.56 28.061 58.5255 28.1185C58.3644 28.3659 58.4449 28.4235 58.5657 28.4522C58.7268 28.4867 58.9224 28.4925 59.095 28.5212C59.164 28.5328 59.1985 28.5673 59.2445 28.596C59.3884 28.6823 59.4286 28.8491 59.4689 29.0217C59.4746 29.0562 59.4746 29.0965 59.5379 29.085C59.676 29.0677 59.6932 29.1368 59.676 29.2403C59.653 29.3669 59.7795 29.3726 59.9119 29.3726C59.9406 29.3726 59.9982 29.3554 59.9982 29.3784C59.9751 29.5682 60.2455 29.5222 60.2915 29.6602C60.326 29.7695 60.2915 29.9421 60.2685 30.0975C60.2513 30.2183 60.211 30.362 60.1765 30.4886C60.1765 30.5001 60.1937 30.4886 60.1937 30.5001C60.165 30.5864 59.9119 30.8108 59.4919 31.1157C59.1238 31.386 58.8937 31.5298 58.8764 31.4953C58.8534 31.455 58.8534 31.3918 58.8476 31.3343C58.8131 31.3285 58.7901 31.3457 58.7729 31.363Z" fill="#E4C985"/>
<path d="M63.5305 28.4637C63.5822 28.3429 63.5995 28.2394 63.6858 28.0898C63.7606 27.9575 63.8469 27.8194 63.68 27.8712C63.6398 27.8884 63.657 27.8481 63.6455 27.8366C63.6225 27.8136 63.611 27.7906 63.5823 27.7791C63.5708 27.7734 63.4845 27.8252 63.5017 27.7964C63.588 27.6526 63.588 27.5778 63.4154 27.6411C63.5592 27.4685 63.4039 27.5317 63.3234 27.5375C63.2428 27.5432 63.2486 27.48 63.0875 27.549C63.0473 27.5663 63.0243 27.5663 63.0415 27.5375C63.1393 27.3649 63.0415 27.3477 62.9552 27.319C62.8632 27.2902 62.8574 27.1866 62.9667 26.9968C63.0243 26.8932 62.9897 26.8644 62.961 26.8299C62.9265 26.7897 62.8459 26.7897 62.7999 26.7609C62.7309 26.7206 62.6388 26.6977 62.4663 26.7379C62.2419 26.7897 62.0521 26.8127 61.8968 26.807C61.8162 26.807 61.8392 26.7207 61.8334 26.6574C61.8219 26.5308 61.8392 26.3812 61.8105 26.2719C61.7874 26.1914 61.7242 26.1396 61.6494 26.0993C61.5804 26.0591 61.4596 26.0648 61.3848 26.0303C61.1604 25.9325 60.9533 25.8233 60.729 25.7255C60.6772 25.7025 60.5966 25.6967 60.5391 25.6794C60.5104 25.6679 60.4931 25.6507 60.4816 25.6277C60.4413 25.5356 60.4183 25.4321 60.3665 25.3515C60.2918 25.2307 60.194 25.133 60.1249 25.0122C60.0847 24.9431 60.0617 24.8626 59.8948 24.8971C59.8488 24.9086 59.9409 24.8223 60.1652 24.6555C60.5449 24.3679 60.9418 24.063 61.1892 23.9134C61.356 23.8099 61.4883 23.735 61.4538 23.8041C61.402 23.9019 61.6091 23.8041 61.4078 24.0169C61.379 24.0457 61.3963 24.0457 61.4135 24.0399C61.7529 23.9421 61.7012 24.155 61.7587 24.2873C61.776 24.3276 61.845 24.3334 61.8852 24.3564C61.9082 24.3736 61.9312 24.3966 61.9428 24.4196C61.96 24.4599 61.9485 24.5174 61.9945 24.5404C62.0291 24.5519 62.1153 24.5232 61.914 24.7188C61.8737 24.759 61.891 24.7648 61.9485 24.7245C62.1671 24.575 62.1614 24.6152 62.1729 24.6382C62.2016 24.7073 62.2074 24.7878 62.2592 24.8396C62.2937 24.8798 62.357 24.8913 62.4375 24.8913C62.5641 24.8913 62.7309 24.8626 62.8517 24.8683C62.9495 24.8741 63.007 24.9144 63.0875 24.9374C63.1048 24.9431 63.1566 24.9201 63.1738 24.9259C63.2026 24.9431 63.2716 24.9259 63.2141 25.0006C63.1566 25.0869 63.1508 25.1214 63.3521 24.9949C63.4614 24.9259 63.4672 24.9546 63.4614 24.9834C63.4557 25.0236 63.3982 25.0984 63.3464 25.1732C63.2831 25.2652 63.2141 25.3573 63.3694 25.271C63.4557 25.225 63.4269 25.2825 63.3867 25.3343C63.2256 25.5759 63.2946 25.6334 63.4154 25.6507C63.5707 25.6795 63.7606 25.6794 63.9274 25.6967C63.9907 25.7024 64.0252 25.7369 64.0712 25.76C64.2093 25.8405 64.2438 25.9959 64.2726 26.1569C64.2783 26.1914 64.2783 26.2259 64.3358 26.2144C64.4682 26.1914 64.4854 26.2605 64.4624 26.364C64.4336 26.4848 64.5602 26.4848 64.6925 26.4848C64.7213 26.4848 64.7788 26.4618 64.773 26.4905C64.7443 26.6746 65.0089 26.6228 65.0492 26.7494C65.0837 26.8529 65.0377 27.0198 65.0089 27.1694C64.9859 27.2844 64.9399 27.4224 64.9111 27.549C64.9111 27.5548 64.9283 27.549 64.9283 27.5548C64.8996 27.6353 64.6407 27.8597 64.2265 28.1703C63.8584 28.4465 63.6283 28.5902 63.611 28.5499C63.588 28.5097 63.5938 28.4521 63.588 28.4004C63.565 28.4349 63.5477 28.4522 63.5305 28.4637Z" fill="#E4C985"/>
<path d="M70.9286 28.3314C70.9516 28.1703 70.9401 28.038 70.9977 27.8482C71.0494 27.6814 71.1069 27.5145 70.9171 27.5375C70.8711 27.5433 70.8826 27.4973 70.8596 27.48C70.825 27.4455 70.7963 27.4053 70.756 27.3765C70.7388 27.365 70.6467 27.4053 70.6582 27.3707C70.7215 27.1924 70.6928 27.0831 70.4914 27.1118C70.6122 26.9105 70.4396 26.9508 70.3361 26.9335C70.2325 26.9163 70.2153 26.8185 70.0369 26.8645C69.9909 26.876 69.9622 26.8702 69.9737 26.83C70.037 26.6114 69.9046 26.5538 69.7838 26.4848C69.6573 26.41 69.617 26.2605 69.686 26.0247C69.7263 25.8981 69.6746 25.8405 69.6228 25.783C69.5653 25.714 69.4617 25.6852 69.3869 25.6219C69.2834 25.5356 69.1568 25.4724 68.9555 25.4724C68.6851 25.4666 68.4492 25.4321 68.2479 25.3746C68.1444 25.3401 68.1444 25.2308 68.1156 25.1387C68.0581 24.9546 68.0293 24.7476 67.9488 24.5807C67.8912 24.4542 67.7877 24.3621 67.6784 24.2758C67.5749 24.1953 67.4253 24.1551 67.316 24.0803C66.9938 23.8617 66.6832 23.6315 66.3668 23.4072C66.292 23.3554 66.1885 23.3209 66.108 23.2691C66.0677 23.2461 66.0389 23.2116 66.0159 23.1713C65.9296 23.0275 65.8606 22.8664 65.7685 22.7284C65.6305 22.5328 65.4694 22.3544 65.3371 22.1589C65.2623 22.0438 65.2048 21.9173 64.9977 21.9115C64.9401 21.9115 65.0322 21.8195 65.2565 21.6584C65.642 21.3765 66.0447 21.0774 66.3093 20.9508C66.4876 20.8645 66.6314 20.8013 66.6084 20.8876C66.5797 21.0141 66.804 20.9393 66.6257 21.1809C66.6027 21.2155 66.6199 21.2212 66.6429 21.2154C67.0456 21.1924 67.0571 21.4858 67.1722 21.6872C67.2124 21.7562 67.2987 21.7792 67.3563 21.831C67.3965 21.8655 67.4253 21.9 67.454 21.946C67.4943 22.0093 67.5001 22.0956 67.5633 22.1359C67.6094 22.1647 67.7129 22.1531 67.5231 22.3659C67.4828 22.412 67.5116 22.4235 67.5691 22.389C67.7992 22.2567 67.805 22.3085 67.8222 22.3487C67.8797 22.458 67.9258 22.5788 68.0005 22.6708C68.0581 22.7399 68.1501 22.7801 68.2537 22.8147C68.4147 22.8607 68.6218 22.8722 68.7771 22.924C68.9094 22.97 68.9957 23.0505 69.105 23.1081C69.128 23.1196 69.1913 23.1081 69.2143 23.1253C69.2546 23.1541 69.3351 23.1541 69.2949 23.2519C69.2489 23.3554 69.2546 23.4015 69.4674 23.2922C69.5882 23.2289 69.5997 23.2749 69.6055 23.3151C69.6113 23.3669 69.571 23.459 69.525 23.5453C69.4732 23.6546 69.4214 23.7581 69.5883 23.6948C69.6803 23.6603 69.6631 23.7294 69.6343 23.7926C69.5135 24.086 69.6228 24.1895 69.7781 24.2586C69.991 24.3506 70.2326 24.4197 70.4512 24.5117C70.5374 24.5462 70.595 24.6038 70.6582 24.6555C70.8596 24.8166 70.9631 25.0582 71.0609 25.2998C71.0782 25.3458 71.0897 25.4033 71.1645 25.4091C71.3255 25.4206 71.3773 25.5299 71.3831 25.6679C71.3888 25.8347 71.5499 25.8808 71.7167 25.9211C71.757 25.9326 71.8203 25.921 71.826 25.9556C71.8548 26.2087 72.1769 26.226 72.2747 26.4273C72.3552 26.5884 72.3552 26.8127 72.3725 27.0198C72.3898 27.1809 72.3783 27.3592 72.3783 27.5318C72.3783 27.5433 72.4013 27.5375 72.4013 27.549C72.3898 27.6583 72.1424 27.8884 71.7167 28.1876C71.3371 28.4522 71.1012 28.5788 71.0609 28.5213C71.0207 28.458 71.0034 28.3717 70.9804 28.2969C70.9631 28.3026 70.9459 28.3199 70.9286 28.3314Z" fill="#E4C985"/>
<path d="M77.4977 22.6997C77.538 22.5674 77.5552 22.458 77.63 22.297C77.6991 22.1532 77.7739 22.0094 77.607 22.0554C77.561 22.0669 77.5783 22.0266 77.5668 22.0151C77.5438 21.9921 77.5265 21.9633 77.492 21.9461C77.4747 21.9403 77.3942 21.9863 77.4057 21.9576C77.4862 21.8023 77.4747 21.7218 77.2964 21.7735C77.4344 21.5952 77.2734 21.6527 77.1871 21.6527C77.1008 21.6527 77.1008 21.5779 76.934 21.6412C76.8879 21.6584 76.8649 21.6585 76.8822 21.624C76.9685 21.4399 76.8592 21.4111 76.7671 21.3708C76.6694 21.3305 76.6521 21.2155 76.7499 21.0141C76.8017 20.9049 76.7671 20.8704 76.7326 20.8301C76.6924 20.7841 76.6061 20.7726 76.5543 20.738C76.4795 20.6863 76.376 20.6518 76.1976 20.6805C75.9618 20.7208 75.7604 20.7265 75.5879 20.7092C75.5016 20.6977 75.5188 20.6057 75.5073 20.5367C75.4843 20.3986 75.4901 20.2318 75.4498 20.111C75.4153 20.019 75.3405 19.9557 75.26 19.9039C75.1794 19.8579 75.0586 19.8464 74.9723 19.8004C74.725 19.6681 74.4891 19.53 74.2418 19.3977C74.1842 19.3632 74.0979 19.3574 74.0347 19.3287C74.0002 19.3172 73.9829 19.2942 73.9656 19.2654C73.9139 19.1619 73.8793 19.041 73.8161 18.9432C73.7298 18.8052 73.6147 18.6844 73.5227 18.5463C73.4709 18.4658 73.4422 18.3738 73.2638 18.3968C73.2121 18.4025 73.3098 18.3162 73.5284 18.1494C73.9139 17.8617 74.3108 17.5568 74.5582 17.413C74.7307 17.3152 74.863 17.2462 74.8285 17.3153C74.7825 17.4246 74.9896 17.3267 74.7998 17.5511C74.771 17.5798 74.7883 17.5856 74.8113 17.5799C75.1679 17.4993 75.1334 17.7352 75.2025 17.8848C75.2255 17.9308 75.3003 17.9423 75.3463 17.9711C75.375 17.9941 75.398 18.017 75.4153 18.0458C75.4383 18.0918 75.4326 18.1609 75.4843 18.1839C75.5188 18.2012 75.6166 18.1724 75.4153 18.3795C75.375 18.4198 75.398 18.4255 75.4556 18.391C75.6742 18.2472 75.6742 18.2875 75.6857 18.3162C75.7202 18.391 75.7374 18.4887 75.795 18.552C75.8352 18.598 75.9043 18.6211 75.9963 18.6268C76.1344 18.6383 76.3127 18.6211 76.4392 18.6383C76.5485 18.6556 76.6118 18.7074 76.6981 18.7361C76.7211 18.7419 76.7729 18.7246 76.7901 18.7304C76.8189 18.7476 76.8937 18.7362 76.8419 18.8225C76.7844 18.9145 76.7844 18.949 76.9857 18.8282C77.1008 18.7592 77.1066 18.7937 77.1066 18.8225C77.1008 18.8627 77.0548 18.9432 77.003 19.0238C76.9455 19.1158 76.8765 19.2136 77.0375 19.133C77.1238 19.0928 77.095 19.1503 77.0605 19.2078C76.9052 19.4609 76.9915 19.53 77.118 19.5645C77.2906 19.6105 77.492 19.6278 77.6703 19.6681C77.7393 19.6853 77.7796 19.7199 77.8314 19.7544C77.9867 19.8522 78.0385 20.0305 78.0845 20.2203C78.096 20.2548 78.096 20.3008 78.1593 20.2951C78.3031 20.2836 78.3261 20.3584 78.3088 20.4734C78.2916 20.6057 78.4239 20.6173 78.5619 20.6288C78.5965 20.6288 78.654 20.6115 78.6483 20.6402C78.6367 20.8416 78.9129 20.8071 78.9704 20.9566C79.0164 21.0774 78.9819 21.2558 78.9704 21.4226C78.9589 21.5492 78.9244 21.6987 78.8956 21.8368C78.8956 21.8483 78.9128 21.8368 78.9128 21.8483C78.8898 21.9346 78.631 22.1647 78.2111 22.4696C77.8371 22.7399 77.607 22.8838 77.584 22.8377C77.561 22.7917 77.5553 22.7227 77.5438 22.6651C77.538 22.6651 77.5207 22.6824 77.4977 22.6997Z" fill="#E4C985"/>
<path d="M82.0766 20.3182C82.1226 20.1916 82.1399 20.088 82.2261 19.9327C82.3009 19.7947 82.3815 19.6566 82.2147 19.7084C82.1744 19.7199 82.1917 19.6854 82.1802 19.6739C82.1571 19.6509 82.1399 19.6279 82.1111 19.6106C82.0996 19.6049 82.0133 19.6509 82.0306 19.6221C82.1169 19.4726 82.1111 19.3978 81.9328 19.4553C82.0708 19.277 81.9213 19.3402 81.835 19.3459C81.7487 19.3517 81.7544 19.2827 81.5934 19.3517C81.5531 19.369 81.5301 19.3689 81.5416 19.3402C81.6336 19.1619 81.5301 19.1389 81.4438 19.1101C81.3518 19.0756 81.3403 18.972 81.4438 18.7764C81.5013 18.6729 81.4668 18.6384 81.4323 18.6039C81.3978 18.5636 81.3115 18.5579 81.2655 18.5234C81.1964 18.4773 81.0929 18.4543 80.9261 18.4888C80.696 18.5348 80.5004 18.5521 80.3393 18.5406C80.2588 18.5349 80.276 18.4486 80.2703 18.3853C80.253 18.253 80.2703 18.0976 80.2358 17.9826C80.207 17.8963 80.138 17.8446 80.0632 17.7985C79.9884 17.7583 79.8676 17.7525 79.7928 17.718C79.557 17.6087 79.3384 17.4879 79.1083 17.3728C79.0507 17.3441 78.9702 17.3383 78.9127 17.3153C78.8839 17.3038 78.8666 17.2808 78.8494 17.2578C78.8034 17.16 78.7746 17.0507 78.7171 16.9644C78.6365 16.8379 78.533 16.7286 78.4582 16.602C78.4122 16.5272 78.3892 16.4409 78.2166 16.4754C78.1706 16.4869 78.2626 16.4007 78.487 16.2338C78.8666 15.9462 79.2636 15.6413 79.5109 15.4917C79.6778 15.3939 79.8101 15.3191 79.7755 15.3882C79.7238 15.4917 79.9309 15.3939 79.7353 15.6125C79.7065 15.6413 79.7238 15.6413 79.741 15.6356C80.0862 15.5435 80.0402 15.7678 80.1034 15.9059C80.1207 15.9519 80.1955 15.9577 80.2358 15.9807C80.2645 15.998 80.2818 16.021 80.299 16.0497C80.3221 16.09 80.3105 16.1533 80.3566 16.1763C80.3911 16.1935 80.4831 16.159 80.2818 16.3604C80.2415 16.4007 80.2645 16.4064 80.3163 16.3719C80.5349 16.2281 80.5291 16.2683 80.5406 16.2914C80.5694 16.3604 80.5867 16.4467 80.6327 16.5042C80.6672 16.5445 80.7362 16.5617 80.8225 16.5675C80.9548 16.5732 81.1216 16.5445 81.2482 16.556C81.3517 16.5675 81.4093 16.6135 81.4956 16.6365C81.5128 16.6423 81.5704 16.6192 81.5819 16.6307C81.6106 16.648 81.6797 16.6308 81.6279 16.7113C81.5704 16.7976 81.5704 16.8321 81.7659 16.7113C81.8752 16.6423 81.8868 16.671 81.881 16.6998C81.8753 16.74 81.8235 16.8148 81.7717 16.8953C81.7084 16.9874 81.6451 17.0795 81.8005 16.9989C81.8867 16.9529 81.858 17.0104 81.8235 17.0679C81.6624 17.3153 81.7429 17.3728 81.8637 17.4016C82.0248 17.4361 82.2204 17.4418 82.393 17.4706C82.462 17.4821 82.4965 17.5166 82.5425 17.5454C82.6863 17.6317 82.7266 17.7986 82.7669 17.9711C82.7726 18.0057 82.7726 18.0459 82.8359 18.0344C82.974 18.0172 82.9912 18.0861 82.974 18.1954C82.951 18.322 83.0775 18.3278 83.2099 18.3278C83.2386 18.3278 83.2962 18.3105 83.2962 18.3335C83.2731 18.5233 83.5435 18.4774 83.5895 18.6154C83.624 18.7247 83.5895 18.8972 83.5665 19.0526C83.5493 19.1734 83.509 19.3172 83.4745 19.4495C83.4745 19.461 83.4917 19.4495 83.4917 19.461C83.463 19.5473 83.2099 19.7716 82.7899 20.0765C82.4218 20.3469 82.1917 20.4907 82.1744 20.4505C82.1514 20.4102 82.1514 20.3469 82.1456 20.2894C82.1111 20.2894 82.0938 20.3009 82.0766 20.3182Z" fill="#E4C985"/>
<path d="M86.4024 17.8735C86.4484 17.7469 86.4657 17.6433 86.552 17.488C86.6267 17.3499 86.7073 17.2119 86.5404 17.2579C86.5002 17.2694 86.5174 17.2349 86.5059 17.2234C86.4829 17.2004 86.4657 17.1716 86.4369 17.1601C86.4254 17.1544 86.3391 17.2004 86.3564 17.1717C86.4426 17.0221 86.4369 16.9415 86.2586 16.9991C86.4024 16.8207 86.2413 16.884 86.1608 16.884C86.0745 16.884 86.0803 16.815 85.9192 16.8783C85.8732 16.8955 85.8501 16.8955 85.8674 16.8668C85.9594 16.6884 85.8559 16.6654 85.7696 16.6309C85.6718 16.5906 85.6661 16.4871 85.7696 16.2915C85.8271 16.1879 85.7926 16.1534 85.7581 16.1131C85.7236 16.0671 85.6373 16.0614 85.5855 16.0269C85.5165 15.9751 85.4129 15.9521 85.2404 15.9808C85.0103 16.0211 84.8089 16.0384 84.6479 16.0211C84.5673 16.0154 84.5846 15.9233 84.5788 15.8601C84.5616 15.7277 84.5788 15.5724 84.5443 15.4516C84.5156 15.3654 84.4465 15.3078 84.366 15.2618C84.2912 15.2157 84.1704 15.21 84.0898 15.1697C83.854 15.0489 83.6354 14.9224 83.3996 14.8016C83.342 14.7728 83.2615 14.767 83.1982 14.7383C83.1694 14.7268 83.1464 14.7037 83.1349 14.675C83.0889 14.5772 83.0602 14.4622 83.0026 14.3759C82.9221 14.2436 82.8185 14.1343 82.738 14.002C82.692 13.9272 82.669 13.8352 82.4964 13.8639C82.4504 13.8697 82.5424 13.7891 82.7668 13.6223C83.1522 13.3404 83.5548 13.0413 83.8022 12.8975C83.969 12.7997 84.1071 12.7306 84.0726 12.7996C84.0208 12.9032 84.2337 12.8054 84.0323 13.024C84.0036 13.0528 84.0208 13.0528 84.0381 13.047C84.389 12.9607 84.343 13.1851 84.4005 13.3289C84.4178 13.3749 84.4925 13.3807 84.5328 13.4094C84.5616 13.4267 84.5788 13.4497 84.5961 13.4785C84.6191 13.5187 84.6076 13.5878 84.6536 13.605C84.6881 13.6223 84.7802 13.5935 84.5788 13.7891C84.5386 13.8294 84.5616 13.8352 84.6133 13.8007C84.8319 13.6568 84.8319 13.6971 84.8434 13.7259C84.8722 13.8006 84.8895 13.8869 84.9355 13.9445C84.97 13.9905 85.039 14.0077 85.1253 14.0135C85.2576 14.025 85.4302 13.9962 85.5568 14.0135C85.6603 14.025 85.7178 14.0767 85.8041 14.0997C85.8214 14.1055 85.8789 14.0825 85.8962 14.094C85.9249 14.1112 85.994 14.0997 85.9422 14.1803C85.8847 14.2666 85.8847 14.3011 86.086 14.1803C86.2011 14.1112 86.2068 14.14 86.2011 14.1745C86.1953 14.2148 86.1435 14.2896 86.0918 14.3702C86.0285 14.4622 85.9594 14.5542 86.1205 14.4737C86.2068 14.4334 86.178 14.4852 86.1435 14.5427C85.9824 14.79 86.063 14.8533 86.1838 14.8821C86.3506 14.9223 86.5462 14.9339 86.7188 14.9626C86.7878 14.9741 86.8223 15.0144 86.8683 15.0432C87.0122 15.1352 87.0582 15.302 87.0927 15.4804C87.0985 15.5149 87.0985 15.5551 87.1617 15.5494C87.2998 15.5321 87.3228 15.6069 87.2998 15.7162C87.2768 15.8428 87.4033 15.8543 87.5414 15.8543C87.5702 15.8543 87.6277 15.837 87.6277 15.8658C87.6047 16.0556 87.8751 16.0211 87.9211 16.1592C87.9556 16.2742 87.9211 16.4468 87.8981 16.6022C87.8808 16.723 87.8348 16.8667 87.806 16.9991C87.806 17.0106 87.8233 16.9991 87.8233 17.0106C87.7945 17.0969 87.5356 17.3154 87.1157 17.6203C86.7418 17.8907 86.5117 18.0287 86.4887 17.9885C86.4657 17.9425 86.4657 17.8792 86.4599 17.8275C86.4427 17.8447 86.4254 17.862 86.4024 17.8735Z" fill="#E4C985"/>
<path d="M94.0424 17.1716C94.0654 17.0163 94.0596 16.8839 94.1229 16.6998C94.1746 16.5388 94.2379 16.3719 94.0481 16.4007C94.0021 16.4064 94.0136 16.3662 93.9963 16.3432C93.9676 16.3087 93.9388 16.2684 93.8985 16.2454C93.8813 16.2339 93.7892 16.2742 93.8007 16.2397C93.864 16.0613 93.8353 15.9578 93.6397 15.9923C93.7605 15.7967 93.5936 15.8369 93.4901 15.8197C93.3866 15.8024 93.375 15.7104 93.1967 15.7622C93.1507 15.7737 93.1219 15.768 93.1334 15.7334C93.1967 15.5206 93.0702 15.4688 92.9551 15.3997C92.8343 15.3307 92.794 15.1869 92.8688 14.9568C92.9091 14.836 92.8573 14.7785 92.8113 14.7267C92.7538 14.6635 92.656 14.6347 92.5869 14.5772C92.4891 14.4966 92.3626 14.4391 92.1613 14.4391C91.8966 14.4391 91.6608 14.4161 91.4652 14.3586C91.3674 14.3298 91.3674 14.2205 91.3386 14.1284C91.2869 13.9501 91.2638 13.7487 91.1891 13.5877C91.1315 13.4669 91.0337 13.3806 90.9302 13.3C90.8324 13.2252 90.6828 13.1908 90.5793 13.1217C90.2687 12.9146 89.9695 12.6961 89.6589 12.489C89.5841 12.4372 89.4863 12.4084 89.4058 12.3624C89.3655 12.3394 89.3367 12.3049 89.3195 12.2704C89.2389 12.1323 89.1757 11.977 89.0836 11.8447C88.9571 11.6548 88.8017 11.488 88.6752 11.2981C88.6004 11.1888 88.5486 11.0681 88.3473 11.0623C88.2898 11.0623 88.3818 10.9703 88.6062 10.8092C88.9916 10.5273 89.3943 10.2282 89.6531 10.0959C89.8315 10.0096 89.9695 9.94631 89.9465 10.0268C89.912 10.1476 90.1363 10.0729 89.958 10.3145C89.935 10.349 89.9523 10.349 89.9753 10.349C90.3665 10.3145 90.3722 10.6021 90.4815 10.7977C90.516 10.861 90.6023 10.884 90.6598 10.9357C90.6944 10.9645 90.7289 11.0048 90.7519 11.0451C90.7864 11.1026 90.7921 11.1888 90.8554 11.2291C90.9014 11.2579 91.005 11.2406 90.8094 11.4535C90.7691 11.4995 90.7979 11.511 90.8554 11.4765C91.0798 11.3384 91.0855 11.3902 91.1085 11.4304C91.166 11.534 91.2006 11.6491 91.2811 11.7411C91.3386 11.8044 91.4249 11.8446 91.5227 11.8734C91.6838 11.9137 91.8851 11.9252 92.0347 11.9712C92.1612 12.0115 92.2418 12.0863 92.3511 12.1438C92.3741 12.1553 92.4374 12.1438 92.4546 12.1553C92.4949 12.184 92.5754 12.1841 92.5294 12.2761C92.4834 12.3797 92.4891 12.4199 92.6962 12.3106C92.8113 12.2473 92.8285 12.2876 92.8343 12.3279C92.84 12.3797 92.794 12.466 92.7537 12.558C92.702 12.6615 92.6445 12.7708 92.8171 12.7018C92.9091 12.6673 92.8918 12.7306 92.863 12.7939C92.7365 13.0815 92.8458 13.1792 92.9954 13.2425C93.2025 13.3288 93.4383 13.3921 93.6512 13.4726C93.7375 13.5072 93.7892 13.5589 93.8525 13.6107C94.0481 13.766 94.1459 13.9962 94.2322 14.232C94.2494 14.278 94.261 14.3298 94.33 14.3355C94.4911 14.347 94.5371 14.4449 94.5371 14.5829C94.5428 14.744 94.6981 14.7842 94.8592 14.8187C94.8995 14.8245 94.957 14.813 94.9628 14.8533C94.9858 15.1006 95.3022 15.1122 95.3884 15.302C95.4632 15.4573 95.4575 15.6759 95.4747 15.8773C95.4863 16.0326 95.469 16.2109 95.469 16.3777C95.469 16.3892 95.492 16.3834 95.492 16.3949C95.4805 16.4985 95.2274 16.7286 94.8017 17.0278C94.422 17.2924 94.1862 17.4247 94.1517 17.3672C94.1114 17.3039 94.0999 17.2233 94.0769 17.1485C94.0826 17.1428 94.0596 17.1601 94.0424 17.1716Z" fill="#E4C985"/>
<path d="M99.8583 12.0576C99.8986 11.9253 99.9158 11.8159 99.9963 11.6606C100.065 11.5168 100.146 11.373 99.9733 11.4248C99.9273 11.4363 99.9446 11.4017 99.9331 11.3845C99.9101 11.3615 99.8928 11.3327 99.8583 11.3155C99.841 11.3097 99.7605 11.3557 99.772 11.327C99.8525 11.1717 99.8468 11.0911 99.6627 11.1486C99.8007 10.9703 99.6454 11.0278 99.5534 11.0278C99.4671 11.0278 99.4671 10.9588 99.306 11.0221C99.26 11.0393 99.237 11.0393 99.2543 11.0048C99.3406 10.8207 99.237 10.7977 99.145 10.7575C99.0472 10.7172 99.0357 10.6079 99.1335 10.4066C99.1852 10.2973 99.1507 10.2627 99.1162 10.2224C99.076 10.1764 98.9896 10.1707 98.9379 10.1305C98.8631 10.0787 98.7595 10.0499 98.5812 10.0786C98.3453 10.1189 98.144 10.1304 97.9772 10.1132C97.8909 10.1017 97.9081 10.0154 97.8966 9.94634C97.8736 9.80827 97.8851 9.64721 97.8391 9.52641C97.8104 9.43437 97.7356 9.37686 97.6493 9.32508C97.5745 9.27906 97.4479 9.26753 97.3617 9.22726C97.1143 9.10071 96.8842 8.96268 96.6426 8.83613C96.5851 8.80736 96.4988 8.79586 96.4355 8.7671C96.401 8.75559 96.3837 8.73252 96.3722 8.70376C96.3205 8.60021 96.2859 8.4852 96.2284 8.38741C96.1421 8.24935 96.0271 8.13426 95.9408 7.9962C95.8948 7.91567 95.866 7.82362 95.6877 7.85239C95.6359 7.85814 95.7337 7.77189 95.9523 7.60506C96.3377 7.31744 96.7289 7.01253 96.982 6.86872C97.1488 6.77092 97.2869 6.69611 97.2524 6.7709C97.2063 6.87444 97.4134 6.78242 97.2236 7.00102C97.1948 7.02978 97.2121 7.02981 97.2351 7.02981C97.586 6.94927 97.5515 7.17938 97.6205 7.32895C97.6435 7.37497 97.7183 7.38642 97.7586 7.41518C97.7873 7.43244 97.8104 7.46121 97.8276 7.48997C97.8506 7.53599 97.8449 7.59926 97.8909 7.62227C97.9254 7.63953 98.0232 7.61081 97.8219 7.81215C97.7816 7.85242 97.8046 7.85818 97.8621 7.82367C98.0807 7.67985 98.0807 7.72012 98.0922 7.74888C98.1268 7.82366 98.144 7.91565 98.1958 7.97893C98.2361 8.02495 98.3051 8.04796 98.3914 8.05371C98.5237 8.06522 98.702 8.04221 98.8286 8.05947C98.9379 8.07098 98.9954 8.12277 99.0874 8.15729C99.1104 8.16304 99.1622 8.14578 99.1795 8.15153C99.2083 8.16879 99.283 8.1573 99.2312 8.23784C99.1737 8.32988 99.1737 8.3644 99.3751 8.24359C99.4901 8.17456 99.4959 8.20907 99.4901 8.23784C99.4844 8.2781 99.4326 8.35863 99.3866 8.43916C99.329 8.5312 99.26 8.62903 99.4211 8.5485C99.5074 8.50823 99.4786 8.56 99.4441 8.61753C99.2888 8.87064 99.3751 8.93966 99.4959 8.96842C99.6627 9.00869 99.8698 9.0259 100.042 9.06042C100.111 9.07192 100.152 9.1122 100.198 9.14672C100.347 9.24451 100.399 9.41711 100.445 9.60119C100.457 9.63571 100.457 9.67598 100.514 9.67022C100.652 9.65297 100.681 9.73353 100.664 9.84283C100.646 9.97514 100.779 9.98658 100.917 9.99233C100.951 9.99233 101.009 9.97508 101.003 10.0038C100.992 10.1994 101.268 10.1649 101.319 10.3145C101.36 10.4296 101.331 10.6079 101.314 10.7747C101.302 10.9013 101.262 11.0508 101.239 11.1832C101.239 11.1947 101.256 11.1832 101.256 11.1947C101.233 11.281 100.974 11.5053 100.554 11.8159C100.18 12.0863 99.9561 12.2301 99.9331 12.1841C99.9101 12.1381 99.9101 12.0748 99.8986 12.0173C99.8986 12.0288 99.8755 12.0403 99.8583 12.0576Z" fill="#E4C985"/>
<path d="M104.408 9.34804C104.454 9.22148 104.471 9.11222 104.552 8.9569C104.626 8.81884 104.701 8.67501 104.534 8.72678C104.494 8.73829 104.511 8.70381 104.5 8.6923C104.477 8.66929 104.46 8.64047 104.431 8.62896C104.413 8.62321 104.333 8.66924 104.35 8.64048C104.436 8.49091 104.425 8.41042 104.252 8.46795C104.39 8.28961 104.235 8.35285 104.149 8.35285C104.063 8.35285 104.068 8.28382 103.901 8.35285C103.855 8.37011 103.838 8.3701 103.85 8.34133C103.942 8.163 103.838 8.14004 103.746 8.10553C103.648 8.06526 103.643 7.96166 103.746 7.76608C103.804 7.66253 103.763 7.62805 103.735 7.58778C103.694 7.54176 103.614 7.536 103.562 7.50148C103.487 7.44971 103.39 7.42673 103.217 7.46124C102.987 7.50726 102.786 7.51874 102.624 7.50724C102.544 7.50149 102.561 7.40943 102.55 7.34615C102.532 7.21384 102.544 7.05279 102.504 6.93774C102.475 6.85145 102.406 6.79395 102.325 6.74793C102.251 6.70191 102.13 6.70189 102.049 6.66162C101.813 6.54657 101.589 6.42001 101.353 6.29921C101.296 6.27045 101.215 6.26471 101.152 6.2417C101.123 6.23019 101.1 6.20719 101.089 6.17843C101.042 6.08063 101.008 5.96557 100.95 5.87928C100.87 5.74697 100.761 5.63766 100.68 5.50535C100.634 5.43057 100.611 5.33853 100.433 5.36729C100.387 5.37305 100.479 5.28673 100.697 5.1199C101.083 4.83227 101.474 4.52737 101.727 4.38355C101.894 4.28576 102.026 4.21102 101.992 4.2858C101.946 4.38935 102.153 4.29157 101.957 4.51016C101.928 4.53893 101.946 4.53888 101.969 4.53313C102.32 4.44684 102.274 4.67125 102.337 4.80931C102.36 4.85533 102.429 4.86102 102.469 4.88978C102.498 4.90704 102.515 4.93005 102.532 4.95881C102.555 4.99908 102.544 5.06816 102.596 5.08542C102.63 5.10268 102.722 5.06814 102.521 5.27523C102.481 5.3155 102.504 5.32126 102.561 5.28675C102.78 5.14293 102.774 5.1832 102.791 5.21196C102.826 5.28675 102.837 5.37304 102.889 5.43056C102.929 5.47083 102.998 5.49384 103.079 5.49959C103.211 5.50534 103.384 5.48233 103.51 5.49383C103.614 5.50534 103.677 5.55137 103.758 5.58014C103.775 5.58589 103.832 5.56287 103.85 5.57438C103.879 5.59164 103.948 5.58014 103.896 5.66068C103.838 5.75272 103.838 5.78148 104.04 5.66068C104.155 5.59165 104.16 5.62041 104.155 5.65492C104.149 5.69519 104.097 5.77571 104.045 5.85049C103.982 5.94253 103.919 6.0346 104.074 5.95407C104.16 5.90805 104.132 5.96557 104.097 6.0231C103.942 6.27621 104.022 6.33372 104.143 6.36248C104.31 6.39699 104.506 6.40851 104.678 6.44302C104.747 6.45453 104.782 6.48905 104.833 6.51781C104.977 6.60985 105.023 6.77668 105.064 6.95501C105.069 6.98953 105.075 7.02979 105.133 7.02404C105.271 7.00678 105.294 7.08158 105.276 7.18513C105.253 7.31169 105.386 7.32319 105.518 7.32319C105.547 7.32319 105.604 7.30587 105.604 7.33463C105.587 7.52447 105.857 7.48421 105.903 7.62802C105.944 7.74307 105.903 7.91566 105.886 8.07098C105.869 8.19178 105.829 8.33564 105.8 8.4737C105.8 8.48521 105.817 8.47364 105.817 8.48515C105.788 8.57144 105.535 8.79583 105.115 9.10072C104.741 9.37109 104.517 9.51492 104.494 9.47465C104.471 9.42863 104.471 9.36533 104.46 9.31356C104.448 9.31931 104.425 9.33653 104.408 9.34804Z" fill="#E4C985"/>
<path d="M102.86 54.7759L89.4963 58.8487C89.364 58.8775 89.3698 59.0616 89.5021 59.0846L104.499 60.4709C104.545 60.4767 104.585 60.5112 104.597 60.5572L109.412 76.3136C109.446 76.4344 109.625 76.4286 109.648 76.3021L112.708 59.7979C112.714 59.7634 112.737 59.7346 112.766 59.7174L123.103 53.6139C123.206 53.5506 123.166 53.3953 123.045 53.3895L111.46 52.8028C111.414 52.8028 111.373 52.774 111.356 52.7337L104.119 37.4721C104.068 37.3628 103.901 37.3916 103.889 37.5124L102.952 54.6608C102.952 54.7241 102.911 54.7644 102.86 54.7759Z" fill="#DCAF3F"/>
<path d="M98.0394 57.1116L96.9579 57.359L96.4172 57.4856C96.2388 57.5258 96.026 57.5776 95.9627 57.5834C95.4622 57.6697 94.9618 57.7502 94.4613 57.8365C94.1794 57.8882 93.8918 57.94 93.6099 57.9918C92.6837 58.1701 91.5562 58.4578 91.3491 58.6476C91.3319 58.6649 91.2974 58.6821 91.2456 58.6994C91.1938 58.7109 91.1075 58.7396 91.1133 58.8201C91.1133 58.9007 91.1938 58.9007 91.2398 58.9064L91.4239 58.9295C91.9301 58.9755 92.4134 59.0215 92.9541 59.056C93.2072 59.0733 93.6904 59.0215 93.794 59.0618C94.0644 59.1653 94.5303 59.2631 95.0596 59.3206C95.3242 59.3494 95.6003 59.3667 95.8764 59.3782H96.3021L96.8141 59.3667C97.8496 59.6831 98.9023 59.6198 99.9665 59.6486C101.031 59.6773 102.106 59.8268 103.171 59.7521C103.315 59.7406 103.464 59.7406 103.614 59.7464C103.763 59.7521 104.034 59.7809 104.212 59.8154C104.361 59.8384 104.511 59.8671 104.638 59.9189C104.764 59.9764 104.896 59.9879 104.983 60.1145C105.115 60.3388 105.207 60.6322 105.276 60.9199L105.472 61.6274L105.656 62.243C105.909 63.0656 106.185 63.8825 106.461 64.6993C107.054 66.4539 107.537 68.2429 107.876 70.0607C108.078 71.0962 108.314 71.8498 108.561 72.6551L108.745 73.2304L109.09 74.2313L109.257 74.6973L109.337 74.9331C109.372 74.9964 109.366 75.1288 109.476 75.1173C109.579 75.1 109.562 74.9734 109.579 74.8929L109.625 74.6283L109.711 74.0933L109.861 73.0348C109.953 72.3388 110.016 71.6772 110.039 71.1364L110.045 71.0042V70.9409L110.057 70.8315L110.097 70.4001L110.183 69.5372L110.373 67.8057C110.505 66.6494 110.649 65.499 110.799 64.3427C110.954 63.1692 111.242 62.0013 111.495 60.8335L111.719 59.7808C111.771 59.5335 111.84 59.3034 112.001 59.1308C112.156 58.964 112.386 58.8374 112.599 58.7166L114.25 57.8134L117.385 56.0819L118.553 55.4089L119.307 54.9659C119.652 54.7531 119.98 54.546 120.267 54.3561L120.457 54.2296C120.48 54.2066 120.532 54.1951 120.515 54.149C120.492 54.0973 120.423 54.1146 120.377 54.1146L119.773 54.1261L118.8 54.1606L111.5 53.9477C111.213 53.9305 110.971 53.8614 110.753 53.7234C110.557 53.5738 110.39 53.3725 110.269 53.1079L109.723 51.9976L108.872 50.2948L107.169 46.895L105.529 43.7138L105.132 42.9085L105.058 42.7532V42.7475C105.063 42.7359 105.063 42.7187 105.058 42.6842C105.052 42.6439 105.035 42.5806 105.012 42.5116C104.977 42.4483 104.983 42.5116 104.971 42.5404L104.954 42.6899L104.868 44.2316L104.597 48.9832C104.488 50.778 104.356 52.5728 104.408 54.3676C104.413 54.4942 104.408 54.5978 104.39 54.6783C104.356 54.8336 104.333 54.9659 104.304 55.081C104.183 55.4549 103.953 55.6965 103.746 55.8346C103.32 56.0992 103.073 56.0359 103.107 55.9957C103.119 55.9324 103.43 55.8518 103.706 55.4664C103.821 55.2996 103.884 55.1155 103.896 54.9314C103.913 54.6725 103.861 54.7243 103.838 54.6898L103.665 54.5575C103.55 54.4655 103.441 54.3677 103.338 54.2584C103.13 54.034 102.946 53.7406 102.831 53.3034C102.67 52.7109 102.549 52.1587 102.664 51.4396C102.826 50.3984 102.664 49.2766 103.01 48.2642C103.056 48.1203 103.056 47.9075 103.05 47.735C102.969 46.1818 103.015 44.6343 103.107 43.0811C103.234 41.4013 103.309 38.7092 103.671 37.8118C103.717 37.6104 103.746 37.4263 103.786 37.225C103.798 37.179 103.803 37.1272 103.815 37.0812C103.832 37.0294 103.913 36.9949 103.976 37.0006C104.051 37.0064 104.062 37.0582 104.091 37.0927L104.166 37.2077C104.379 37.5183 104.597 37.8002 104.862 38.1627C104.994 38.3467 105.144 38.548 105.293 38.8414L105.972 40.2796L106.755 41.9996C106.95 42.4368 107.152 42.874 107.364 43.2997C107.686 43.944 108.072 44.5365 108.095 45.2441C108.101 45.3936 108.273 45.7273 108.394 45.8193C108.849 46.1702 109.079 46.7167 109.326 47.2632C109.999 48.7244 110.643 50.197 111.339 51.6524L111.598 52.1817C111.644 52.245 111.65 52.3658 111.748 52.3658L112.007 52.3715C112.651 52.3773 113.289 52.383 113.928 52.383L116.695 52.3485L118.076 52.3313L118.783 52.3255L119.905 52.3485L121.844 52.4003C122.166 52.4118 122.534 52.4061 122.753 52.4751C122.879 52.4981 122.965 52.5383 123.075 52.5728L123.322 52.6822C123.627 52.8317 123.811 52.9583 123.995 53.0791C124.035 53.1193 124.076 53.1021 124.122 53.2229C124.139 53.2747 124.15 53.3437 124.145 53.3782C124.139 53.4127 124.127 53.4242 124.122 53.4472L124.007 53.7349C123.92 53.9305 123.909 54.1548 123.679 54.454C123.506 54.7301 122.896 55.0523 122.419 55.3514C121.918 55.6563 121.395 55.9554 120.883 56.2028C120.336 56.4674 119.778 56.7608 119.612 56.8701C119.358 57.0312 119.134 57.2267 118.921 57.4856C118.68 57.779 118.191 58.0551 117.782 58.2679C117.259 58.544 116.712 58.7626 116.172 58.9812C115.522 59.2401 114.912 59.476 114.359 60.0052C114.221 60.1375 113.98 60.2928 113.824 60.3734C113.778 60.4021 113.675 60.3849 113.629 60.4367C113.606 60.4597 113.583 60.4942 113.56 60.5287C113.548 60.5575 113.543 60.5402 113.525 60.6093L113.474 60.7876L113.272 61.5181C113.146 62.0071 113.031 62.496 112.933 62.9908C112.732 63.9802 112.57 64.9754 112.427 65.9764L111.851 70.055L111.713 71.0732L111.449 72.7472L111.15 74.6168L110.994 75.5774C110.942 75.8938 110.896 76.2562 110.81 76.4576C110.747 76.6417 110.678 76.7452 110.609 76.8718C110.54 76.9638 110.471 77.0674 110.407 77.1364C110.275 77.2802 110.16 77.378 110.051 77.4643C109.953 77.5333 109.849 77.6024 109.769 77.6484C109.757 77.6599 109.677 77.6771 109.591 77.6829C109.499 77.6829 109.47 77.6771 109.453 77.6714C109.407 77.6541 109.36 77.6426 109.303 77.6196C109.159 77.5678 109.004 77.516 108.791 77.3722C108.595 77.2227 108.331 77.0731 108.106 76.4749L107.013 72.8853L106.277 70.3887L105.207 66.6149C105.029 65.9821 104.856 65.3321 104.62 64.7338C104.344 64.032 104.103 63.3245 103.89 62.6111L103.734 62.0761L103.66 61.8058C103.648 61.754 103.654 61.7713 103.654 61.754C103.654 61.708 103.665 61.6274 103.602 61.6216L103.556 61.5987L103.527 61.5872L103.372 61.5699L102.705 61.4951C102.256 61.4491 101.813 61.4146 101.364 61.3858C100.467 61.3283 99.5753 61.2938 98.6779 61.265C98.258 61.2535 97.8381 61.265 97.4296 61.2132L96.3596 61.0809L94.5763 60.9083L90.3597 60.5517L89.819 60.5114C89.6464 60.4942 89.4278 60.4884 89.3242 60.4539L89.1344 60.4079L88.9963 60.3504C88.8928 60.3158 88.818 60.2756 88.7605 60.2353C88.4843 60.0743 88.3578 59.9189 88.2485 59.7866C88.1852 59.7118 88.168 59.6601 88.1334 59.5968C88.0989 59.5335 88.0702 59.476 88.0644 59.43L88.0241 59.2804C88.0126 59.2459 87.9954 59.0733 88.0011 59.0215C88.0011 58.987 88.0069 58.964 88.0126 58.9352C88.0357 58.7857 88.0759 58.6188 88.2312 58.3829C88.26 58.3312 88.306 58.2679 88.3693 58.1989C88.4268 58.1299 88.4728 58.0723 88.5706 57.9918C88.6512 57.917 88.7375 57.8422 88.8755 57.7674C88.9331 57.7272 88.9963 57.6869 89.0941 57.6524C89.1804 57.6122 89.2609 57.5718 89.3933 57.5373L93.0577 56.5191L94.7892 56.0417L95.6003 55.8173L96.0663 55.7023C97.8093 55.2823 99.5466 54.8624 101.29 54.4424C101.405 54.4137 101.514 54.3562 101.629 54.3332C102.624 54.1088 103.033 54.3389 102.722 54.9775C102.446 55.5412 101.882 55.9956 101.002 56.2545C100.03 56.5421 99.0461 56.801 98.0682 57.0656L98.0394 57.1116Z" fill="#DCAF3F"/>
</svg>
