<svg width="78" height="66" viewBox="0 0 78 66" fill="none" xmlns="http://www.w3.org/2000/svg">
<path d="M12.1631 5.80852C12.5294 7.4767 12.6869 9.23708 12.4312 10.9012C12.2003 12.3967 11.7732 13.7246 11.6726 15.2215C11.6287 15.6092 11.4653 15.9864 11.3417 16.3671C11.1115 17.0496 10.8423 17.7188 10.583 18.3888C10.4564 18.6889 10.4632 19.0709 10.2912 19.3169C9.40193 20.5342 8.61232 21.7601 8.18648 23.1885C7.31297 23.9956 7.03451 25.1156 6.72141 26.1724C6.41006 27.2093 6.01639 28.269 6.27074 29.2649C6.35858 29.5236 6.36411 29.8051 6.34237 30.0542C6.23381 30.8377 6.48651 31.6226 6.86483 32.3483C7.08518 32.6988 7.2947 33.0584 7.58913 33.3651L8.00913 33.8435L8.4824 34.2863C8.79763 34.5849 9.18647 34.9601 9.55539 35.3336C9.9243 35.7071 10.249 36.1269 10.5638 36.5459C11.1708 37.412 11.6586 38.3781 11.9402 39.4065C12.2374 40.4864 12.551 41.6079 12.633 42.7393C12.7365 44.0834 12.6481 45.4409 12.3241 46.7376C11.8708 48.5952 11.1312 50.3978 11.0132 52.0939C10.9845 52.6535 11.0198 53.1686 11.1453 53.571C11.2798 53.9843 11.4755 54.2724 11.7735 54.5393C12.0341 54.7729 12.536 55.1178 12.9808 55.4277L13.6676 55.839L14.3614 56.1705C15.299 56.5837 16.1877 56.9825 17.2129 57.082C19.23 57.3183 21.2103 55.6859 23.47 54.6385C25.1747 53.8538 26.8487 52.8456 28.7007 51.9834C29.5693 51.5774 30.486 51.1956 31.5135 50.924C32.5302 50.6614 33.6751 50.5405 34.8419 50.7428C35.2785 50.801 35.6873 50.9471 36.1079 51.0741C36.476 51.2267 36.8359 51.3585 37.1815 51.5393C37.7991 52.858 37.7175 51.3985 38.3437 51.8145C39.5644 52.6639 40.6461 53.6116 41.6481 54.5523C42.6501 55.493 43.5914 56.4385 44.5233 57.2626C45.446 58.076 46.3784 58.7797 47.187 59.0611C47.9756 59.3408 48.4868 59.2348 49.1864 58.9245C49.5299 58.7838 49.9229 58.5371 50.3258 58.2912C50.5173 58.1674 50.7014 58.0128 50.8929 57.889L51.6442 57.3322C52.1399 56.9438 52.6736 56.5789 53.2065 56.2239C53.9039 54.5699 54.9771 54.9245 56.1737 54.3263C57.9117 53.5044 59.8416 52.8999 61.8454 52.7135C63.5007 51.5848 65.6139 50.8357 67.4628 51.3886C69.4033 53.9973 71.3533 53.9667 73.2628 54.7458C73.8059 54.9638 73.8513 55.2489 73.4232 55.5528C72.6837 56.0905 71.9978 56.7032 70.9747 56.6942C70.2596 56.7221 69.6501 56.6889 69.014 56.272C68.5467 55.9903 68.0118 55.7931 67.4826 55.6465C67.2188 55.5632 66.9559 55.47 66.7056 55.3478C66.4536 55.2454 66.2041 55.1133 65.9798 54.923C65.8482 54.8212 65.6307 54.7821 65.4505 54.7764C63.818 54.7343 62.6375 55.7138 61.0984 55.9809C59.5693 56.2489 58.0393 56.7578 56.6187 57.5071C55.6834 57.9876 54.9289 57.6607 54.4495 59.2334C53.9005 59.6573 53.3915 60.0846 52.791 60.5241C51.9197 61.1908 50.9103 61.715 49.8052 62.0702C48.9977 62.3511 47.9979 62.5348 47.3211 61.8935C47.1813 61.7709 46.7572 61.6837 46.5718 61.7378C45.8484 61.9757 45.1698 61.5852 44.6125 61.1853C43.0713 60.0971 41.9356 58.7331 40.7171 57.5125C39.823 56.6013 39.6024 57.6129 38.6112 56.8939C37.8369 56.3345 37.1219 54.8667 36.3003 54.5039C35.8941 54.3279 35.4762 54.1709 35.0647 54.0547C34.6732 53.9402 34.3353 53.9007 33.9659 53.8785C32.7652 53.8339 31.4275 54.209 30.0529 54.892C29.7393 55.0353 29.4568 55.2816 29.1414 55.4448C28.5522 55.7547 27.9634 56.1751 27.3166 56.3395C26.5885 56.5168 26.0651 56.7623 25.6348 57.4374C25.3908 57.8176 24.8159 58.0786 24.3277 58.2668C23.7039 58.5135 23.0099 58.6437 22.3285 58.7448C21.4943 58.8727 21.096 59.8603 20.2793 60.3611C19.834 60.6334 19.1188 60.6613 18.5319 60.6C17.2486 60.4679 15.973 60.2462 14.7738 59.8403C13.5637 59.4436 12.4507 58.8546 11.4352 58.1837C11.0831 57.9622 10.7536 57.7126 10.4349 57.4539L9.94643 57.07L9.41037 56.5413C8.71326 55.7879 8.20859 54.6697 8.10976 53.6172C7.99101 52.5628 8.13253 51.6316 8.30608 50.7935C8.47875 49.9654 8.70512 49.2122 8.90808 48.4972C9.22553 47.3906 9.58495 46.378 9.75897 45.4195C10.0506 43.9192 10.0558 42.5946 9.63737 41.2933C9.22892 39.9929 8.43932 38.6893 7.37938 37.4925L6.71951 36.7724C6.43417 36.4765 6.14707 36.2005 5.8392 35.9327C5.48499 35.6207 5.16676 35.2416 4.85675 34.8833C4.55931 34.4959 4.28701 34.0505 4.03376 33.6169C3.59314 32.685 3.23269 31.6397 3.2062 30.5633C3.13821 29.2725 3.28677 28.0307 3.54618 26.899C3.81469 25.7781 4.1659 24.7448 4.53355 23.753C4.71215 23.3168 4.84616 22.8166 5.09015 22.4364C6.82237 19.7268 7.93908 17.0538 8.70142 14.5305C9.34058 12.4984 9.65272 10.4177 9.3416 8.23232C9.11738 6.54643 8.61422 4.83619 7.89751 3.1575C7.84643 3.05266 7.75377 2.96426 7.70356 2.84946C7.29456 1.90029 7.6101 1.27536 8.63754 1.23456C9.53287 1.21235 10.3717 1.6068 10.8306 2.56032C11.353 3.58966 11.7481 4.69824 12.0717 5.82063L12.1631 5.80852Z" fill="#E4C985"/>
</svg>
