<svg width="82" height="60" viewBox="0 0 82 60" fill="none" xmlns="http://www.w3.org/2000/svg">
<path d="M80.5988 59.0928L70.6367 58.8553L69.0933 9.63447L75.8571 9.60107C77.3078 9.60849 78.4951 10.755 78.5582 12.2057L80.5988 59.0928Z" fill="#3D649D"/>
<path d="M75.4999 59.5054C74.7912 59.4535 74.0826 59.4015 73.3739 59.3496C72.6393 59.2902 71.9083 59.2309 71.1811 59.1715C70.9177 59.1492 70.6543 59.127 70.3908 59.1047L70.4094 58.1066L70.4131 57.3052C70.4094 56.7858 70.3834 56.2626 70.3241 55.7321C70.287 55.4018 70.2981 55.0457 70.287 54.7006C70.2647 54.0736 70.2424 53.4465 70.2202 52.8232C70.2053 52.5375 70.1348 52.2407 70.146 51.9773C70.2091 50.6712 70.1979 49.3763 70.0421 48.074C70.1534 47.0537 70.0161 46.0556 69.9419 45.0353C69.8677 44.015 69.864 42.9724 69.723 41.9669C69.6859 41.6998 69.6636 41.3918 69.6748 41.121C69.7416 39.4662 69.6488 37.8188 69.5635 36.1603C69.4744 34.3831 69.4559 32.6059 69.5338 30.8361C69.5746 29.8937 69.5412 28.9067 69.5078 27.9421C69.4707 26.7919 69.3928 25.6454 69.3483 24.4952C69.2778 22.8256 69.1887 21.1708 69.0366 19.5197C68.8325 17.3084 68.6582 15.0822 68.5135 12.8523C68.4801 12.3255 68.4615 11.7912 68.4541 11.2569C68.443 10.4963 68.4281 9.73571 68.417 8.9751C68.558 8.9751 68.6953 8.97881 68.8363 8.97881L70.1979 8.98994L71.0587 9.00478L72.7803 9.03817L74.5018 9.06785L75.3626 9.07899L75.793 9.0827C75.9377 9.08641 76.1306 9.09383 76.2902 9.1198C77.3068 9.2645 78.2306 9.91751 78.7018 10.8302C78.828 11.0529 78.9096 11.2977 78.9801 11.5463C79.0061 11.6725 79.0358 11.7949 79.0506 11.9248C79.0617 12.0509 79.0803 12.1882 79.0803 12.2884L79.1508 13.5796C79.2547 15.1861 79.3586 16.7927 79.4625 18.3992L80.2898 32.6949L80.5162 36.1269C80.5533 36.6983 80.5755 37.2734 80.5978 37.8448L80.8204 44.2228L81.2026 53.3538C81.2693 55.0828 81.3213 56.808 81.4957 58.5185C81.5439 59.0008 81.4697 59.1566 81.2842 58.986C80.9614 58.6892 80.6312 58.4554 80.4086 57.6354C80.2602 57.0789 80.1414 56.5632 80.1563 55.8656C80.1785 54.8527 79.9893 53.7953 80.134 52.7972C80.1526 52.6562 80.1377 52.4522 80.1192 52.2889C79.7778 49.3281 79.763 46.3376 79.6554 43.3546C79.622 42.3788 79.5441 41.4067 79.4921 40.4309L79.4068 38.5349C79.3734 37.6148 79.3623 36.6946 79.3103 35.7782C79.2695 35.0881 79.1805 34.4165 79.3363 33.7857C79.3697 33.6522 79.3437 33.2886 79.2955 33.1624C79.1063 32.6801 79.0988 32.1087 79.0803 31.5336C79.0246 29.9864 78.9875 28.4429 78.917 26.8995C78.8651 25.7567 78.7872 24.6139 78.6981 23.4749C78.5497 21.7088 78.3976 19.9501 78.2492 18.184C78.1379 16.7073 78.06 15.2195 77.9672 13.7391C77.945 13.3978 77.893 13.0601 77.8745 12.7151C77.8633 12.5592 77.8522 12.3997 77.8448 12.2401C77.8299 12.1214 77.8151 12.0064 77.7854 11.8914C77.7298 11.6651 77.6444 11.4536 77.5554 11.2532C77.355 10.808 76.9877 10.5149 76.5276 10.5C76.4015 10.4963 76.2494 10.4741 76.0861 10.4592C76.0045 10.4481 75.934 10.4518 75.8375 10.4444C75.7188 10.4407 75.6038 10.4407 75.4925 10.4369C74.9248 10.4221 74.3645 10.3665 73.8117 10.3108C73.1476 10.2477 72.5243 10.1772 71.8119 10.2922C71.4297 10.3553 70.8954 10.3219 70.4613 10.2811L70.1237 10.2514L70.0458 10.244L70.0161 10.2366L69.9567 10.2255C69.8751 10.2106 69.7787 10.1958 69.6785 10.1846C69.6711 10.2477 69.6636 10.3182 69.6599 10.3924L69.6562 10.5074V10.7189L69.6785 11.832C69.7007 12.5741 69.7378 13.3161 69.7824 14.0582C69.9456 16.6925 70.1052 19.3231 70.2684 21.9537C70.3315 22.9851 70.3686 24.024 70.4094 25.0592C70.5467 28.2797 70.6023 31.5002 70.6543 34.7207C70.6654 35.3515 70.6691 35.9971 70.7211 36.6167C70.8435 38.0526 70.8695 39.4847 70.8621 40.9243C70.8546 42.657 70.9697 44.3749 71.0921 46.0927C71.1218 46.4935 71.17 46.8979 71.17 47.2912C71.17 50.059 71.4075 52.8084 71.4631 55.5651L71.4854 57.1939L71.4891 57.9508C71.4817 57.9694 71.4743 57.9916 71.4668 58.0213C71.4817 58.0287 71.5076 58.0399 71.5373 58.051L72.3833 58.0992L74.0974 58.1994C75.8153 58.307 77.5294 58.4183 79.2435 58.5259C79.3548 58.5333 79.4736 58.5222 79.5849 58.5296C80.5607 58.6001 80.8649 58.8264 80.3974 59.1529C79.9819 59.4386 79.3289 59.5945 78.4458 59.5685L75.5221 59.4498L75.4999 59.5054Z" fill="black"/>
<path d="M16.5028 59.0933H68.5394C70.0198 59.0933 71.2219 57.8911 71.2219 56.4107V12.3031C71.2219 10.8227 70.0198 9.62061 68.5394 9.62061H16.5028C15.0224 9.62061 13.8203 10.8227 13.8203 12.3031V56.4107C13.8203 57.8911 15.0224 59.0933 16.5028 59.0933Z" fill="#3D649D"/>
<path d="M25.5972 58.5592C28.1276 58.6334 30.6803 58.6854 33.1847 58.7893C35.422 58.882 37.6148 58.9785 39.9003 58.8746C40.4903 58.8486 41.1284 58.8709 41.7443 58.8709C42.8648 58.8672 43.9853 58.8635 45.1021 58.8598C45.6141 58.8561 46.1484 58.793 46.6196 58.8153C48.946 58.9191 51.2649 58.9488 53.5986 58.8338C55.4167 58.9748 57.2087 58.8746 59.0342 58.8301C60.8596 58.7856 62.7222 58.8153 64.5254 58.7077C65.004 58.678 65.5531 58.6668 66.0392 58.6891C66.7775 58.7188 67.5122 58.7373 68.2505 58.7522L68.5288 58.7559L68.7737 58.7485L69.0148 58.7151L69.2486 58.6557C69.5565 58.5592 69.8459 58.3997 70.0908 58.1845C70.5806 57.7578 70.8774 57.1234 70.8848 56.4741C70.8774 55.7357 70.8737 55.0011 70.8662 54.259C70.8329 51.0793 70.87 47.9033 71.0035 44.7459C71.074 43.0651 71.0703 41.3027 71.0703 39.5775C71.0518 37.522 71.0369 35.4702 71.0184 33.411C71.0035 30.4279 70.9627 27.4671 70.8625 24.5063C70.729 20.5474 70.6214 16.5626 70.5472 12.5703C70.5397 12.2883 70.5397 12.1251 70.5026 11.9359C70.4618 11.7541 70.4099 11.5686 70.3171 11.4053C70.1465 11.0677 69.8793 10.7783 69.5491 10.5853C69.3859 10.4889 69.2115 10.4072 69.026 10.3664C68.9369 10.3367 68.8367 10.3293 68.744 10.3108C68.6438 10.3071 68.5659 10.2959 68.4249 10.2959C67.9129 10.2885 67.3971 10.2848 66.8851 10.2774C62.7853 10.2291 58.6891 10.1809 54.5893 10.1327C51.5098 10.1104 48.4191 10.1253 45.3359 10.1475C42.4567 10.1809 39.585 10.218 36.7095 10.2514L23.9128 10.3516L17.5163 10.3998L16.7148 10.4072H16.5145L16.3698 10.4147C16.277 10.4184 16.1843 10.4406 16.0915 10.4555C15.7279 10.5408 15.3903 10.7374 15.138 11.012C14.8857 11.2866 14.715 11.6353 14.6668 11.9989C14.6482 12.088 14.6482 12.1845 14.6445 12.2772L14.6482 12.6705L14.6556 13.4682C14.6816 15.5163 14.7076 17.5644 14.7336 19.6124C14.7447 20.6365 14.7447 21.6642 14.741 22.6883L14.689 34.0899L14.6742 50.4226C14.6705 51.9661 14.6705 53.5095 14.6668 55.053L14.6742 56.2069C14.6779 56.4258 14.6779 56.526 14.7002 56.6633C14.7187 56.7931 14.7521 56.9193 14.804 57.038C14.9896 57.5241 15.4125 57.9099 15.8949 58.0546C16.1657 58.1363 16.3475 58.1585 16.4403 58.1993C16.5293 58.2439 16.533 58.3107 16.4069 58.3923C16.1917 58.537 15.9542 58.6631 15.5906 58.6743C15.4088 58.678 15.1973 58.6483 14.9525 58.5481C14.7076 58.4516 14.4367 58.2773 14.177 57.9841C13.8357 57.5834 13.5945 57.0826 13.5426 56.5149C13.498 55.9806 13.4943 55.45 13.5129 54.823C13.5797 53.0198 13.435 51.1164 13.6205 49.3392C13.6464 49.0869 13.639 48.7233 13.6279 48.4302C13.4164 43.1171 13.5277 37.778 13.5537 32.4426C13.5611 30.6988 13.5277 28.9549 13.5203 27.2074L13.5166 23.8125C13.524 22.1688 13.5537 20.5215 13.5388 18.8852C13.5277 17.646 13.4683 16.4476 13.6502 15.3271C13.6873 15.0933 13.6798 14.4403 13.6353 14.214C13.55 13.7762 13.5129 13.3013 13.498 12.8078C13.4943 12.5555 13.4795 12.3254 13.5017 12.0286C13.5314 11.7466 13.5871 11.461 13.6984 11.1938C13.9804 10.4703 14.5555 9.87295 15.2604 9.55758C15.6129 9.39804 15.995 9.3127 16.3809 9.30157C16.7519 9.29415 17.0784 9.30157 17.4272 9.30157L21.5716 9.31641C23.6159 9.31641 25.664 9.28673 27.7009 9.24592C30.8658 9.17171 34.0158 9.10122 37.1807 9.02701C39.8261 8.97878 42.4864 8.96765 45.1392 8.93796C45.7514 8.93054 46.3599 8.89344 46.9721 8.88973C48.1 8.88231 49.2836 8.8415 50.341 8.90086C51.5172 8.96765 52.4336 8.97878 53.517 8.83037C54.1255 8.74503 55.0939 8.75616 55.8805 8.771C56.8934 8.78955 57.8951 8.84892 58.8858 8.90457C60.0731 8.97136 61.1824 9.04556 62.4625 8.93054C63.1489 8.87118 64.0987 8.90457 64.8779 8.94538C65.7349 8.98991 66.5957 9.0233 67.4602 9.04556L68.1095 9.0604C68.3284 9.06782 68.5251 9.06411 68.7996 9.08637C69.3154 9.12719 69.8162 9.3127 70.2503 9.58726C71.1223 10.1401 71.6973 11.1344 71.7307 12.1733L71.7641 14.7965C71.8421 19.5085 71.9237 24.2169 72.0016 28.9289C72.0313 30.7767 72.035 32.6318 72.0461 34.4832C72.0832 40.2416 72.0387 45.9962 71.9868 51.7509C71.9756 52.8788 71.9608 54.029 71.9942 55.1384L72.0201 56.103L72.0239 56.3442C72.0276 56.4184 72.0201 56.5446 72.0164 56.641C72.0053 56.8488 71.9793 57.0566 71.9237 57.2606C71.727 58.0769 71.2224 58.8115 70.5286 59.2827C70.1836 59.5202 69.794 59.6946 69.3859 59.7911C68.9926 59.8949 68.5102 59.8987 68.232 59.8875L66.3063 59.8541C63.212 59.7911 60.1361 59.8541 57.064 59.9209C56.348 59.9358 55.6245 59.9729 54.9158 59.9617C49.9774 59.8764 45.0465 60.0285 40.1192 59.9951C36.1307 59.9692 32.1496 59.8801 28.1684 59.8059C25.0963 59.7391 22.0279 59.6686 18.9596 59.6018C18.7592 59.5981 18.5477 59.613 18.3474 59.6055C16.5998 59.5573 16.047 59.3384 16.8744 59.0045C17.6053 58.7077 18.7629 58.537 20.3435 58.5407L25.5713 58.5889L25.5972 58.5592Z" fill="black"/>
<path d="M14.8974 50.8629L63.4017 48.3139C63.6355 48.3028 63.8655 48.2471 64.0844 48.1618C65.2161 47.7091 66.6482 46.9411 67.9617 45.6128C71.8797 41.6539 71.3862 36.0811 71.2415 34.8864C71.2304 34.8048 71.2267 34.7269 71.2267 34.6452V11.7009C71.2267 10.5507 70.2954 9.61572 69.1415 9.61572H15.8472C14.7193 9.61572 13.7954 10.5136 13.7657 11.6415L12.7046 48.7183C12.6675 49.939 13.6804 50.9259 14.8974 50.8629Z" fill="#CFE2F3"/>
<path d="M23.0736 49.8997C25.3628 49.8551 27.6706 49.7846 29.9376 49.7698C31.9634 49.7587 33.9447 49.7475 36.0039 49.536C36.5345 49.4804 37.1133 49.4767 37.6661 49.4433C38.6753 49.3876 39.6882 49.332 40.6974 49.2726C41.1575 49.2429 41.6398 49.1576 42.0665 49.1539C44.1739 49.1465 46.2665 49.0648 48.3665 48.8422C50.0139 48.8979 51.6278 48.7086 53.2715 48.5788C54.9189 48.4489 56.5996 48.3896 58.221 48.1966C58.6514 48.1447 59.1486 48.1076 59.5864 48.1039C60.2542 48.1002 60.9184 48.0816 61.5862 48.0593L62.5843 48.0185L63.0852 47.9963C63.2559 47.9851 63.4228 47.9851 63.5527 47.9629C63.69 47.9406 63.8272 47.9035 63.9608 47.8479C64.1129 47.7848 64.2613 47.7217 64.4097 47.6549C64.7066 47.5213 64.996 47.3729 65.278 47.2134C65.8419 46.8906 66.3799 46.5233 66.8734 46.104C67.9419 45.2135 68.8361 44.1264 69.504 42.9094C70.1718 41.6925 70.6504 40.3642 70.9287 38.9839C71.0882 38.2493 71.155 37.4813 71.1736 36.7058C71.181 36.3199 71.1662 35.9304 71.1439 35.5408C71.1291 35.3478 71.1142 35.1549 71.0882 34.962C71.0771 34.8692 71.0734 34.7542 71.066 34.654V34.3609C71.0474 32.502 71.0289 30.6469 71.014 28.788C70.9992 26.0906 70.9584 23.4155 70.8582 20.7404C70.7988 18.952 70.7395 17.1562 70.6801 15.3567C70.6541 14.4588 70.6319 13.5572 70.6059 12.6556L70.5911 11.9803C70.5874 11.8764 70.5874 11.7391 70.5799 11.6575C70.5762 11.5796 70.5651 11.5017 70.5465 11.4275C70.476 11.1269 70.3128 10.8524 70.079 10.6557C69.8453 10.4517 69.5485 10.3329 69.2405 10.3144L69.1181 10.307H68.9437H68.5949L67.9011 10.3033C66.9735 10.2921 66.0423 10.2773 65.1184 10.2662C61.4118 10.2179 57.7127 10.1697 54.0024 10.1215C51.2197 10.0992 48.4259 10.114 45.6395 10.1363C43.0386 10.1697 40.4414 10.2068 37.8405 10.2402L26.2793 10.3515L20.4987 10.3997L17.6046 10.4257L16.1576 10.4368C16.0463 10.4405 15.8979 10.4368 15.8163 10.4405C15.7421 10.4405 15.6716 10.4554 15.6011 10.4665C15.4601 10.4999 15.3265 10.5519 15.2041 10.6298C14.9704 10.7782 14.7811 11.0045 14.6958 11.2642C14.6513 11.3941 14.629 11.5277 14.6253 11.6649L14.6142 12.3588L14.5734 15.1378C14.5585 16.0617 14.5325 16.9892 14.4991 17.9168L14.1504 28.2166L13.7126 42.9725C13.6718 44.3676 13.6272 45.7627 13.5864 47.154L13.5642 48.1966L13.5567 48.7198C13.5604 48.8422 13.5679 48.9313 13.5938 49.0314C13.6829 49.4247 14.0057 49.755 14.3767 49.8663C14.5845 49.9219 14.7255 49.9405 14.7997 49.9776C14.8702 50.0184 14.8776 50.0815 14.7811 50.1705C14.6105 50.3226 14.4064 50.4636 14.0799 50.4859C13.7682 50.5007 13.271 50.4005 12.8332 49.818C12.6922 49.6214 12.5884 49.3988 12.5179 49.1576C12.4474 48.9164 12.4399 48.653 12.4288 48.4341C12.4066 47.9703 12.4103 47.4768 12.4474 46.9166C12.5587 45.2877 12.4659 43.5662 12.6997 41.967C12.7331 41.7407 12.7331 41.4105 12.7293 41.1433C12.6551 36.3385 12.9074 31.5151 13.0707 26.6954C13.1226 25.1222 13.1338 23.5416 13.1709 21.9648L13.2562 18.8963C13.3044 17.4122 13.3786 15.9244 13.4046 14.444C13.4157 13.8837 13.412 13.3346 13.4343 12.7966C13.4454 12.5294 13.464 12.2623 13.49 12.0026C13.5048 11.8727 13.5196 11.7429 13.5419 11.613C13.5642 11.472 13.6013 11.3347 13.6532 11.2049C13.6977 11.0973 13.7608 10.8932 13.8573 10.704C13.9463 10.5073 14.065 10.3329 14.1207 10.2328C14.3359 9.8506 14.7403 9.51668 15.2375 9.37198C15.3599 9.33116 15.4898 9.31261 15.6196 9.29406C15.7532 9.28293 15.8868 9.27922 15.9944 9.27922C16.2244 9.27922 16.4545 9.28293 16.6845 9.28293L24.1755 9.32374C26.0233 9.32374 27.8747 9.29406 29.715 9.25324C32.5756 9.17904 35.4214 9.10854 38.282 9.03434C40.6714 8.9861 43.0757 8.97497 45.4762 8.94529C46.029 8.93787 46.5782 8.90077 47.131 8.89705C48.1476 8.88963 49.2199 8.84882 50.1734 8.90819C51.2346 8.97497 52.0657 8.9861 53.0452 8.83769C53.5943 8.75235 54.4699 8.76348 55.1823 8.77833C56.0987 8.79688 57.004 8.85624 57.8982 8.91189C58.9705 8.97868 59.976 9.05289 61.1336 8.93787C61.7532 8.8785 62.614 8.9119 63.3189 8.95271C64.8698 9.04176 66.4318 9.08257 67.9976 9.09741L69.1775 9.10112C69.6635 9.10854 70.1533 9.24953 70.5614 9.51668C70.9732 9.78011 71.3109 10.1623 71.5186 10.6075C71.6225 10.8301 71.7004 11.0676 71.7338 11.3125C71.7598 11.4349 71.7598 11.5573 71.7672 11.6798L71.7709 11.9766C71.8488 16.236 71.9305 20.4918 72.0084 24.7512C72.0381 26.4208 72.0418 28.0979 72.0529 29.7712L72.0678 33.6745V34.6466L72.0752 34.795L72.1049 35.0547C72.1197 35.2254 72.1382 35.3998 72.1457 35.5705C72.1865 36.2569 72.1902 36.9433 72.1382 37.626C72.0529 38.9914 71.7821 40.353 71.3183 41.6554C70.8545 42.9577 70.1755 44.1969 69.2888 45.2729C69.1144 45.4844 68.9214 45.681 68.7396 45.8851C68.5578 46.0892 68.3649 46.2858 68.1608 46.4713C67.7601 46.8424 67.3372 47.1911 66.9068 47.5139C66.4096 47.885 65.879 48.2152 65.3262 48.4972C65.0516 48.6381 64.7696 48.768 64.484 48.8867C64.1908 49.024 63.7122 49.139 63.3746 49.1428C62.217 49.2021 61.0594 49.2466 59.8981 49.28C57.1042 49.3617 54.3289 49.5731 51.5574 49.7846C50.9118 49.8329 50.2588 49.9034 49.6206 49.9256C45.1571 50.074 40.7159 50.4599 36.2673 50.6603C32.6646 50.8235 29.0657 50.9237 25.4704 51.0387C22.6914 51.1166 19.9199 51.1945 17.1483 51.2725C16.9665 51.2762 16.7773 51.3021 16.5955 51.3059C15.0149 51.3392 14.5029 51.1463 15.2338 50.7753C15.8794 50.4451 16.9145 50.2187 18.3393 50.1482L23.0625 49.9516L23.0736 49.8997Z" fill="black"/>
<path d="M74.3931 11.7691C74.3375 12.3701 74.3078 12.9749 74.2225 13.5722C74.1445 14.1028 74.0666 14.626 74.1891 15.1639C74.2187 15.3012 74.2002 15.4533 74.2076 15.598C74.2187 15.8615 74.2262 16.1286 74.2447 16.392C74.2521 16.5108 74.3189 16.6369 74.3041 16.7482C74.2187 17.3011 74.2076 17.8502 74.3412 18.3993C74.215 18.8334 74.3301 19.2527 74.3894 19.683C74.4488 20.1134 74.4302 20.555 74.5564 20.9779C74.5898 21.0892 74.6046 21.2191 74.5898 21.3341C74.4933 22.0354 74.5601 22.7292 74.612 23.4304C74.6714 24.1799 74.6566 24.9331 74.549 25.6862C74.4933 26.087 74.5081 26.5025 74.523 26.9106C74.5415 27.3967 74.5972 27.8827 74.6232 28.3651C74.664 29.07 74.727 29.7675 74.8495 30.4651C75.0127 31.3963 75.15 32.335 75.2576 33.2774C75.3133 33.7561 75.2836 34.2458 75.2762 34.7319C75.265 35.704 75.2242 36.6723 75.2279 37.6444C75.2316 38.3753 75.2687 39.1026 75.3133 39.8335C75.3541 40.5125 75.4357 41.1914 75.4839 41.8704C75.6212 43.8851 75.7511 45.8998 75.8883 47.9144C75.9217 48.3968 75.9737 48.8828 76.0108 49.3651C76.0293 49.6063 76.0367 49.8512 76.0405 50.0924C76.0553 50.9902 76.0553 51.8918 76.0738 52.7897C76.1035 54.0772 76.1555 55.3646 76.1852 56.6521C76.2037 57.383 76.2037 58.1139 76.3261 58.8374C76.3595 59.0415 76.2816 59.1083 76.0998 59.0378C75.7882 58.9154 75.4617 58.8226 75.265 58.4775C75.1315 58.2438 75.0313 58.0286 75.0647 57.7318C75.1166 57.3014 74.9571 56.8562 75.1315 56.4332C75.1574 56.3738 75.1463 56.2885 75.1315 56.218C74.8792 54.9676 74.9497 53.7024 74.9348 52.4409C74.9311 52.0291 74.8829 51.6173 74.8606 51.2054C74.8458 50.9383 74.8346 50.6712 74.8309 50.404C74.8235 50.0144 74.8421 49.6249 74.8161 49.239C74.7938 48.9459 74.727 48.6639 74.9014 48.3931C74.9385 48.3374 74.9237 48.1816 74.8792 48.1296C74.7048 47.9293 74.7159 47.6844 74.7122 47.4432C74.7048 46.7902 74.7122 46.1335 74.6862 45.4805C74.6677 44.9982 74.6269 44.5121 74.5712 44.0335C74.4822 43.2877 74.3597 42.5457 74.2781 41.7999C74.2076 41.1766 74.1779 40.5458 74.126 39.9225C74.1149 39.7778 74.074 39.6368 74.0629 39.4921C74.0481 39.225 73.9961 38.9467 74.0481 38.6944C74.1037 38.4162 74.1112 38.1973 73.9516 37.945C73.8626 37.804 73.8626 37.5739 73.8737 37.3884C73.8848 37.1472 73.9331 36.9098 73.985 36.6723C74.0444 36.3904 74.1074 36.1232 73.985 35.8264C73.9182 35.6669 73.9479 35.4405 73.9813 35.255C74.1334 34.4388 74.0926 33.6151 74.0147 32.7951C73.9108 31.682 73.7772 30.5727 73.6659 29.4596C73.6214 29.0255 73.6029 28.584 73.5769 28.1462C73.4953 26.7845 73.4953 25.4228 73.5027 24.0612C73.5027 23.794 73.5101 23.5232 73.4693 23.2597C73.3728 22.655 73.3728 22.0465 73.4062 21.438C73.447 20.7034 73.358 19.9799 73.2689 19.2527C73.2467 19.0857 73.2059 18.915 73.2133 18.7443C73.2615 17.5719 73.0723 16.4143 73.0649 15.2456C73.0612 14.3032 73.1168 13.357 73.1613 12.4146C73.1947 11.6874 73.2504 10.9565 73.2949 10.2293C73.2986 10.1811 73.2801 10.1328 73.2875 10.0846C73.3209 9.66905 73.5361 9.53177 73.8774 9.71728C74.1779 9.88053 74.3597 10.1477 74.3672 10.5224C74.3746 10.9342 74.3634 11.3461 74.356 11.7616C74.3634 11.7653 74.3783 11.7691 74.3931 11.7691Z" fill="black"/>
<path d="M13.8206 57.5205L63.7274 48.2969L13.8206 50.9831V57.5205Z" fill="black"/>
<path d="M18.3096 56.1477C19.6008 55.9845 20.8956 55.799 22.1794 55.6654C23.3259 55.5504 24.4464 55.4391 25.5817 55.1237C25.8748 55.0421 26.2013 55.005 26.5093 54.9493L28.2012 54.6265C28.4572 54.5746 28.7169 54.4633 28.9581 54.441C30.1528 54.326 31.3252 54.1368 32.4791 53.8103C33.4215 53.7806 34.3046 53.5135 35.221 53.2983C36.1338 53.0868 37.0762 52.9421 37.9703 52.6638C38.2078 52.5896 38.4824 52.5302 38.7309 52.5043C40.241 52.3447 41.7177 52.0293 43.2092 51.7214C44.8084 51.3912 46.4149 51.1352 48.0326 50.9682C48.463 50.9237 48.9008 50.8606 49.3386 50.7864C49.7171 50.7196 50.1029 50.6491 50.4814 50.5823C51.357 50.4191 52.0805 50.2447 52.8114 50.0963C53.5127 49.9553 54.1397 49.818 54.4996 49.7104C54.6926 49.6511 54.8039 49.6028 54.7816 49.5731C54.7111 49.4618 54.1546 49.4655 53.5349 49.5063C53.3717 49.5212 53.2047 49.5397 53.0378 49.5546C52.6185 49.5954 52.5332 49.5991 52.5183 49.5917C52.5072 49.5843 52.574 49.562 52.5443 49.5546C52.4886 49.5323 52.4219 49.5063 52.2067 49.4878C52.0286 49.473 51.7466 49.4655 51.3756 49.473C51.075 49.4767 50.7077 49.4952 50.3404 49.5175L48.9899 49.6139C47.5169 49.729 46.0476 49.8403 44.5783 49.9553L31.4848 50.868L28.3422 51.1129C27.819 51.15 27.2922 51.1797 26.769 51.2057L20.9253 51.4654L14.6772 51.7919C14.6772 51.8698 14.6735 51.6769 14.6735 52.2965C14.6661 53.8808 14.6438 55.4613 14.744 57.0382C14.7737 57.4797 14.6884 57.6244 14.5103 57.4575C14.2023 57.1718 13.8795 56.9455 13.694 56.1849C13.5679 55.6691 13.4751 55.1905 13.5196 54.5523C13.553 54.0885 13.5345 53.6136 13.5308 53.1424C13.527 52.905 13.5308 52.6712 13.5456 52.4338C13.553 52.315 13.5641 52.2 13.5753 52.085C13.5901 51.9663 13.6087 51.8624 13.6309 51.7177C13.6569 51.5656 13.6495 51.3466 13.6383 51.1537L13.6161 50.7827L14.7997 50.664L15.7829 50.5786C16.4396 50.5267 17.0963 50.4896 17.7568 50.4562C19.0739 50.4005 20.3948 50.3486 21.7119 50.2929C22.6061 50.2521 23.4966 50.1705 24.3907 50.1148L26.1308 50.0184C26.9731 49.9776 27.819 49.9627 28.6575 49.9033C29.292 49.8588 29.9042 49.7661 30.4867 49.9182C30.6091 49.9516 30.9431 49.9219 31.0544 49.8737C31.4959 49.6807 32.0191 49.6696 32.5422 49.6473C33.9595 49.5843 35.3731 49.536 36.7905 49.4581C37.8368 49.3987 38.8868 49.3171 39.9257 49.2207C41.5433 49.0611 43.1536 48.9016 44.7676 48.742C46.1181 48.6196 47.4798 48.538 48.8377 48.4341C48.9936 48.4229 49.1494 48.4044 49.3052 48.3858L49.4202 48.371L49.6169 48.3525L50.0324 48.3228C50.5519 48.2894 51.0862 48.2523 51.6093 48.2189C52.1362 48.1855 52.6556 48.1632 53.0675 48.1706C53.995 48.1855 54.6183 48.1669 56.2138 47.9295C57.1228 47.7959 58.0763 47.7551 58.7627 47.7328C59.6569 47.7032 60.2765 47.7291 60.7737 47.7588C61.0074 47.7736 61.2004 47.7885 61.4601 47.7922C61.371 47.8553 61.538 47.8738 62.1057 47.8219C62.588 47.7774 62.447 47.8701 62.3654 47.9369C62.1873 48.0742 62.3988 48.1373 62.7067 48.1855C63.0184 48.23 63.4228 48.2597 63.7679 48.3005L63.5453 48.3858C63.1334 48.5491 62.8403 48.7049 62.6919 48.8533C62.5435 49.0018 62.5361 49.1427 62.6362 49.28L61.5788 49.4952C60.0576 49.8069 58.3064 50.1334 56.5885 50.4636L52.4812 51.2353L49.0455 51.8587L44.6822 52.6007C44.1108 52.6972 43.5283 52.7862 42.9755 52.9235C41.6917 53.2389 40.3969 53.4578 39.0946 53.647C37.5214 53.8733 35.9816 54.2221 34.4456 54.5746C34.0857 54.6562 33.7295 54.7601 33.3696 54.8121C30.8615 55.1868 28.4052 55.7953 25.9119 56.222C23.8973 56.567 21.8715 56.8527 19.8494 57.1495C18.2873 57.3684 16.729 57.5873 15.167 57.8062C15.0631 57.8211 14.9592 57.8545 14.859 57.8693C13.9686 57.9843 13.6495 57.8211 14.0057 57.413C14.321 57.0531 14.8739 56.7748 15.6716 56.6338C16.5509 56.478 17.434 56.3407 18.317 56.196L18.3096 56.1477Z" fill="black"/>
<path d="M59.7613 45.4165C60.3178 45.1976 61.4977 44.6373 62.4513 43.387C63.735 41.6988 63.7424 39.8808 63.7239 39.3279V18.6245H18.3918L17.813 39.0311" fill="#CFE2F3"/>
<path d="M62.3727 42.5457C62.9738 41.6924 63.3152 40.6312 63.4228 39.5627C63.5081 38.5646 63.612 37.5666 63.5044 36.5425C63.4784 36.2791 63.5007 35.9897 63.5007 35.7114L63.4895 34.1977C63.4858 33.9676 63.4228 33.7265 63.445 33.515C63.5489 32.465 63.5786 31.4224 63.4636 30.3724C63.6046 29.5524 63.5044 28.7473 63.4599 27.9236C63.4153 27.0999 63.445 26.2614 63.3374 25.4489C63.3077 25.2337 63.2966 24.9851 63.3189 24.7662C63.4376 23.4379 63.3931 22.1097 63.3634 20.7703C63.356 20.4104 63.3523 20.0542 63.3523 19.6943L63.356 19.3084L63.3671 18.9708L62.651 18.9225C62.2948 18.9003 61.9387 18.8743 61.5825 18.8409C60.8256 18.7704 60.0316 18.7741 59.2524 18.7741C58.3286 18.7741 57.401 18.8149 56.4771 18.8261C55.134 18.8409 53.7983 18.8817 52.4663 18.9819C50.6817 19.1155 48.8896 19.2231 47.0901 19.2973C46.1774 19.3344 45.2461 19.2899 44.3223 19.2676C42.4746 19.2231 40.6306 19.1526 38.7828 19.1229C37.3952 19.1006 36.0039 19.1155 34.6162 19.1377C33.3213 19.1711 32.0264 19.2082 30.7316 19.2416L19.2742 19.4457C19.2483 19.4494 19.226 19.4568 19.2149 19.4642C19.2186 19.4828 19.2223 19.4939 19.2297 19.5088L19.2371 19.5236C19.2408 19.5422 19.2446 19.4939 19.2408 19.6089V20.581C19.2371 21.0411 19.226 21.5049 19.2075 21.965L19.0071 27.0962L18.7845 34.45C18.7363 35.8413 18.6732 37.2289 18.7363 38.6129C18.7548 39.0024 18.6658 39.1249 18.4914 38.9765C18.1908 38.7167 17.8755 38.509 17.7085 37.8374C17.5972 37.3811 17.5119 36.9581 17.5749 36.4015C17.664 35.5927 17.5453 34.7319 17.753 33.9379C17.7827 33.8266 17.779 33.6634 17.7716 33.5298C17.6306 31.133 17.8087 28.7325 17.9014 26.3282C17.9311 25.5453 17.92 24.7551 17.9348 23.9722C17.9423 23.4639 17.9571 22.9519 17.9756 22.4436C18.0016 21.7052 18.0536 20.9632 18.061 20.2248C18.061 20.0839 18.061 19.9466 18.061 19.8093V19.6052L18.0684 19.3715C18.087 19.019 18.1278 18.6777 18.2242 18.4662C18.2242 18.4625 18.2279 18.4588 18.2279 18.4476C18.3912 18.481 18.6843 18.4699 18.7882 18.4291C18.9774 18.3437 19.3151 18.3066 19.5043 18.2918C19.7269 18.277 19.9569 18.2807 20.187 18.2844C21.4299 18.2992 22.6766 18.3252 23.9195 18.3252C24.8396 18.3252 25.7635 18.2955 26.6799 18.2547C28.1047 18.1805 29.5257 18.11 30.9505 18.0358C32.1415 17.9876 33.3399 17.9764 34.5346 17.9467C34.8091 17.9393 35.0837 17.9022 35.3583 17.8985C35.8666 17.8911 36.3971 17.8503 36.8758 17.9096C37.4063 17.9764 37.8182 17.9876 38.3079 17.8392C38.5825 17.7538 39.0166 17.7649 39.3728 17.7798C39.8291 17.7983 40.2818 17.8577 40.727 17.9134C41.2613 17.9801 41.7622 18.0543 42.3373 17.9393C42.6452 17.88 43.0756 17.9134 43.4244 17.9542C44.9716 18.136 46.5373 18.1174 48.0993 18.0692C50.2216 17.9913 52.3439 17.9096 54.4662 17.8317C55.2973 17.8021 56.1321 17.7983 56.9669 17.7872C58.0948 17.7724 59.219 17.7724 60.3432 17.7798L64.5062 17.828L64.4913 19.646C64.4802 20.1544 64.4653 20.6701 64.4987 21.171C64.5767 22.3286 64.5581 23.4787 64.5024 24.6363C64.4394 26.0277 64.5025 27.4116 64.5692 28.7955C64.5841 29.1183 64.6212 29.4448 64.6101 29.7602C64.5247 31.9863 64.6768 34.2014 64.6434 36.4201C64.6286 37.318 64.6026 38.2159 64.5655 39.1137L64.5544 39.4551C64.5507 39.5812 64.5433 39.7074 64.5358 39.8335C64.5173 40.0858 64.4802 40.3344 64.4357 40.583C64.3429 41.0765 64.2056 41.5588 64.0164 42.0226C63.4339 43.4622 62.3357 44.6494 61.0259 45.3655C60.9406 45.4138 60.859 45.4768 60.7699 45.5213C60.384 45.7069 60.0984 45.7514 59.9499 45.7032C59.7978 45.6549 59.783 45.5102 59.8906 45.2839C60.0761 44.8795 60.4211 44.527 60.9406 44.1411C61.5194 43.7145 62.024 43.1876 62.4099 42.5754L62.3727 42.5457Z" fill="black"/>
<path d="M20.1943 24.6138C20.7434 24.6992 21.3 24.7585 21.8417 24.8736C22.3277 24.9738 22.8026 25.0814 23.2998 24.9849C23.4297 24.9589 23.5669 24.9849 23.7005 24.9886C23.9454 24.9923 24.1866 24.996 24.4314 24.9923C24.5427 24.9886 24.6615 24.9292 24.7616 24.9515C25.2662 25.0628 25.7708 25.0999 26.2791 24.996C26.6724 25.1445 27.062 25.048 27.4627 25.0109C27.8597 24.9738 28.2641 25.0109 28.6611 24.907C28.765 24.881 28.8875 24.8699 28.9914 24.8921C29.6295 25.022 30.2751 24.9886 30.9207 24.9701C31.6145 24.9478 32.3046 24.9997 32.9873 25.1408C33.3509 25.2187 33.7368 25.2187 34.1115 25.2261C34.5605 25.2335 35.0057 25.2001 35.4547 25.1964C36.104 25.1927 36.7495 25.163 37.3951 25.074C38.2596 24.9552 39.1278 24.8624 39.9997 24.8031C40.4413 24.7734 40.8902 24.8253 41.3354 24.855C42.2259 24.9144 43.1164 24.9997 44.0105 25.0443C44.6821 25.0777 45.3537 25.074 46.0252 25.0665C46.6523 25.0591 47.2793 25.0072 47.9026 24.996C49.7615 24.9552 51.6166 24.9255 53.4755 24.8884C53.9207 24.881 54.3696 24.8476 54.8149 24.8365C55.0375 24.829 55.2601 24.8327 55.4827 24.8402C56.3101 24.8699 57.1375 24.9144 57.9649 24.9367C59.1485 24.9701 60.3358 24.9812 61.5193 25.0146C62.1909 25.0331 62.8624 25.0702 63.534 24.9812C63.7232 24.9552 63.7826 25.0406 63.7084 25.2187C63.5822 25.5267 63.4783 25.8458 63.1556 26.024C62.9366 26.1464 62.7289 26.2355 62.4617 26.1872C62.0722 26.113 61.6529 26.2503 61.2707 26.0573C61.2151 26.0314 61.1372 26.0388 61.0741 26.0462C59.9128 26.2355 58.7552 26.1056 57.5939 26.0611C57.2154 26.0462 56.8332 26.0722 56.4548 26.0759C56.2099 26.0796 55.9613 26.0759 55.7165 26.0648C55.3603 26.0536 55.0004 26.0165 54.6442 26.024C54.3733 26.0314 54.1136 26.0833 53.8725 25.8978C53.8205 25.857 53.6795 25.8644 53.6313 25.9089C53.4383 26.0759 53.2157 26.0536 52.9931 26.0425C52.3921 26.0202 51.791 25.9794 51.1899 25.972C50.7447 25.9646 50.2995 25.9868 49.8542 26.0165C49.1641 26.0685 48.4777 26.1538 47.7876 26.1984C47.2125 26.2355 46.6337 26.2355 46.0549 26.2577C45.9213 26.2614 45.7878 26.2948 45.6542 26.2986C45.4093 26.3023 45.1496 26.3394 44.9233 26.2763C44.6673 26.2058 44.4706 26.1909 44.2295 26.3357C44.0959 26.4173 43.8844 26.4062 43.7137 26.3876C43.4948 26.3654 43.2759 26.3023 43.0607 26.2429C42.8047 26.1724 42.5635 26.0945 42.2816 26.2021C42.1294 26.2614 41.9254 26.2206 41.7547 26.1761C41.0089 25.9831 40.2557 25.9868 39.4989 26.024C38.4711 26.0759 37.4471 26.1538 36.4193 26.2095C36.0186 26.2318 35.6142 26.2281 35.2098 26.2355C33.9557 26.2503 32.7053 26.1835 31.4513 26.1093C31.2064 26.0945 30.9541 26.0759 30.7129 26.1019C30.1527 26.1687 29.5961 26.139 29.0359 26.0796C28.3643 26.0054 27.6928 26.0573 27.0249 26.113C26.8691 26.1241 26.7095 26.1575 26.5574 26.1427C25.4851 26.0388 24.4092 26.1724 23.3369 26.1204C22.4687 26.0796 21.6042 25.9757 20.7397 25.8866C20.0719 25.8161 19.4077 25.7271 18.7399 25.6491C18.6953 25.6454 18.6508 25.6566 18.6063 25.6529C18.2279 25.5972 18.1091 25.3783 18.2946 25.0443C18.4579 24.7511 18.7139 24.5841 19.059 24.5953C19.4374 24.6064 19.8159 24.6398 20.1943 24.6658C20.1906 24.6435 20.1943 24.6286 20.1943 24.6138Z" fill="black"/>
<path d="M20.1943 33.4668C20.7434 33.5522 21.3 33.6115 21.8417 33.7265C22.3277 33.8267 22.8026 33.9343 23.2998 33.8378C23.4297 33.8118 23.5669 33.8378 23.7005 33.8415C23.9454 33.8452 24.1866 33.8489 24.4314 33.8452C24.5427 33.8415 24.6615 33.7822 24.7616 33.8044C25.2662 33.9157 25.7708 33.9528 26.2791 33.8489C26.6724 33.9973 27.062 33.9009 27.4627 33.8638C27.8597 33.8267 28.2641 33.8638 28.6611 33.7599C28.765 33.7339 28.8875 33.7228 28.9914 33.7451C29.6295 33.8749 30.2751 33.8415 30.9207 33.823C31.6145 33.8007 32.3046 33.8527 32.9873 33.9936C33.3509 34.0715 33.7368 34.0715 34.1115 34.079C34.5605 34.0864 35.0057 34.053 35.4547 34.0493C36.104 34.0456 36.7495 34.0159 37.3951 33.9269C38.2596 33.8081 39.1278 33.7154 39.9997 33.656C40.4413 33.6264 40.8902 33.6783 41.3354 33.708C42.2259 33.7673 43.1164 33.8527 44.0105 33.8972C44.6821 33.9306 45.3537 33.9269 46.0252 33.9194C46.6523 33.912 47.2793 33.8601 47.9026 33.8489C49.7615 33.8081 51.6166 33.7785 53.4755 33.7414C53.9207 33.7339 54.3696 33.7005 54.8149 33.6894C55.0375 33.682 55.2601 33.6857 55.4827 33.6931C56.3101 33.7228 57.1375 33.7673 57.9649 33.7896C59.1485 33.823 60.3358 33.8341 61.5193 33.8675C62.1909 33.886 62.8624 33.9231 63.534 33.8341C63.7232 33.8081 63.7826 33.8935 63.7084 34.0715C63.5822 34.3795 63.4783 34.6985 63.1556 34.8766C62.9366 34.999 62.7289 35.0881 62.4617 35.0398C62.0722 34.9656 61.6529 35.1029 61.2707 34.91C61.2151 34.884 61.1372 34.8914 61.0741 34.8989C59.9128 35.0881 58.7552 34.9582 57.5939 34.9137C57.2154 34.8988 56.8332 34.9248 56.4548 34.9285C56.2099 34.9322 55.9613 34.9285 55.7165 34.9174C55.3603 34.9063 55.0004 34.8692 54.6442 34.8766C54.3733 34.884 54.1136 34.9359 53.8725 34.7505C53.8205 34.7096 53.6795 34.7171 53.6313 34.7616C53.4383 34.9285 53.2157 34.9063 52.9931 34.8951C52.3921 34.8729 51.791 34.8321 51.1899 34.8246C50.7447 34.8172 50.2995 34.8395 49.8542 34.8692C49.1641 34.9211 48.4777 35.0064 47.7876 35.051C47.2125 35.0881 46.6337 35.0881 46.0549 35.1103C45.9213 35.114 45.7878 35.1474 45.6542 35.1511C45.4093 35.1548 45.1496 35.1919 44.9233 35.1289C44.6673 35.0584 44.4706 35.0435 44.2295 35.1882C44.0959 35.2698 43.8844 35.2587 43.7137 35.2402C43.4948 35.2179 43.2759 35.1548 43.0607 35.0955C42.8047 35.025 42.5635 34.9471 42.2816 35.0547C42.1294 35.114 41.9254 35.0732 41.7547 35.0287C41.0089 34.8358 40.2557 34.8395 39.4989 34.8766C38.4711 34.9285 37.4471 35.0064 36.4193 35.0621C36.0186 35.0843 35.6142 35.0806 35.2098 35.0881C33.9557 35.1029 32.7053 35.0361 31.4513 34.9619C31.2064 34.9471 30.9541 34.9285 30.7129 34.9545C30.1527 35.0213 29.5961 34.9916 29.0359 34.9322C28.3643 34.858 27.6928 34.91 27.0249 34.9656C26.8691 34.9768 26.7095 35.0101 26.5574 34.9953C25.4851 34.8914 24.4092 35.025 23.3369 34.973C22.4687 34.9322 21.6042 34.8284 20.7397 34.7393C20.0719 34.6688 19.4077 34.5798 18.7399 34.5019C18.6953 34.4982 18.6508 34.5093 18.6063 34.5056C18.2279 34.4499 18.1091 34.2311 18.2946 33.8972C18.4579 33.6041 18.7139 33.4371 19.059 33.4483C19.4374 33.4594 19.8159 33.4928 20.1943 33.5188C20.1906 33.4965 20.1943 33.4817 20.1943 33.4668Z" fill="black"/>
<path d="M27.9864 19.5384C27.901 19.7833 27.8417 20.0356 27.7266 20.2767C27.6228 20.4919 27.5189 20.7071 27.6153 20.9335C27.6413 20.9928 27.6116 21.0559 27.6116 21.1153C27.6079 21.2266 27.6042 21.3342 27.6079 21.4455C27.6116 21.4974 27.671 21.5531 27.6487 21.5976C27.5374 21.8239 27.5003 22.0503 27.6042 22.284C27.4558 22.4584 27.5523 22.6365 27.5894 22.8183C27.6265 23.0001 27.5894 23.1819 27.6895 23.3637C27.7155 23.4119 27.7266 23.4676 27.7044 23.5121C27.5745 23.7978 27.6042 24.0909 27.6265 24.384C27.6487 24.6994 27.5968 25.0111 27.4521 25.3153C27.3742 25.4786 27.3705 25.6529 27.3668 25.8236C27.3593 26.0277 27.3927 26.2317 27.3964 26.4321C27.4001 26.7252 27.4298 27.0183 27.5189 27.3151C27.6376 27.7121 27.7266 28.1054 27.7897 28.5024C27.8194 28.7028 27.7675 28.9068 27.7378 29.1072C27.6784 29.5079 27.5931 29.9086 27.5448 30.313C27.5114 30.6173 27.5115 30.9215 27.5226 31.2258C27.53 31.5115 27.5782 31.7934 27.5931 32.0791C27.6339 32.9214 27.6599 33.7636 27.697 34.6095C27.7044 34.8136 27.7378 35.014 27.7489 35.218C27.7563 35.3182 27.7526 35.4221 27.7452 35.5223C27.7155 35.897 27.671 36.268 27.6487 36.6428C27.6153 37.177 27.6042 37.715 27.5708 38.2493C27.5523 38.5536 27.5152 38.8578 27.6042 39.162C27.6302 39.2474 27.5448 39.2734 27.3668 39.2325C27.0588 39.1658 26.7397 39.1101 26.5616 38.958C26.4392 38.8541 26.3501 38.7576 26.3984 38.6389C26.4726 38.4645 26.3353 38.2716 26.5282 38.1046C26.5542 38.0824 26.5468 38.0453 26.5394 38.0156C26.3501 37.485 26.4837 36.9619 26.5282 36.4387C26.5431 36.268 26.5171 36.0936 26.5134 35.923C26.5134 35.8117 26.5134 35.7004 26.5245 35.5891C26.5357 35.4258 26.5728 35.2663 26.5653 35.103C26.5579 34.9806 26.506 34.8618 26.6915 34.7579C26.7323 34.7357 26.7249 34.6726 26.6804 34.6466C26.5134 34.5539 26.5357 34.4537 26.5468 34.3535C26.569 34.0827 26.6099 33.8118 26.6173 33.5373C26.6247 33.3369 26.6062 33.1329 26.5728 32.9325C26.5208 32.6171 26.4355 32.3055 26.391 31.9901C26.3539 31.7267 26.3539 31.4669 26.3316 31.2035C26.3279 31.1441 26.2945 31.0811 26.2908 31.0217C26.2871 30.9104 26.25 30.7917 26.313 30.6915C26.3835 30.5765 26.3984 30.4874 26.2537 30.3761C26.1721 30.313 26.1832 30.2166 26.2017 30.1424C26.224 30.0422 26.2871 29.9457 26.3464 29.853C26.4169 29.7379 26.4948 29.6304 26.3872 29.5005C26.3279 29.43 26.3687 29.3372 26.4132 29.263C26.6062 28.9328 26.6062 28.5878 26.569 28.2464C26.5208 27.7789 26.4429 27.3114 26.3872 26.8439C26.365 26.6621 26.3687 26.4766 26.365 26.2948C26.3501 25.7271 26.4169 25.1595 26.4911 24.5955C26.506 24.4842 26.5245 24.3729 26.4986 24.2616C26.4318 24.0056 26.4614 23.7533 26.5245 23.5047C26.5987 23.2042 26.5505 22.8962 26.4948 22.592C26.4837 22.5215 26.4503 22.4473 26.4652 22.3805C26.5728 21.8981 26.4392 21.4047 26.4911 20.9223C26.5319 20.529 26.6358 20.1432 26.7286 19.7536C26.7991 19.4531 26.8881 19.1525 26.9698 18.8557C26.9735 18.8372 26.9623 18.8149 26.966 18.7963C27.0217 18.6257 27.2443 18.5812 27.5745 18.6739C27.8676 18.7592 28.0346 18.878 28.0235 19.0338C28.0086 19.2045 27.9789 19.3752 27.953 19.5458C27.9567 19.5347 27.9715 19.5384 27.9864 19.5384Z" fill="black"/>
<path d="M37.0729 19.5086C36.9986 19.7572 36.9467 20.0058 36.8428 20.2507C36.7501 20.4696 36.6536 20.6848 36.7575 20.9074C36.7835 20.9668 36.7612 21.0261 36.7612 21.0892C36.7649 21.1968 36.7612 21.3081 36.7723 21.4157C36.776 21.464 36.8391 21.5196 36.8168 21.5641C36.713 21.7905 36.6833 22.0168 36.7983 22.2468C36.6573 22.4249 36.7575 22.5993 36.802 22.7774C36.8465 22.9555 36.8168 23.1373 36.9244 23.3154C36.9541 23.3636 36.9653 23.4156 36.943 23.4638C36.8243 23.7532 36.8688 24.0389 36.8985 24.3283C36.9319 24.64 36.8948 24.9479 36.7612 25.2559C36.6907 25.4191 36.6944 25.5935 36.6944 25.7605C36.6944 25.9608 36.7352 26.1612 36.7463 26.3615C36.7612 26.6509 36.802 26.9403 36.9022 27.2297C37.0358 27.6156 37.1434 28.0052 37.2176 28.3948C37.2547 28.5914 37.2101 28.7955 37.1879 28.9958C37.1434 29.3965 37.0729 29.7972 37.0432 30.198C37.0209 30.4985 37.0358 30.799 37.058 31.0996C37.0766 31.3815 37.1359 31.6598 37.1619 31.9418C37.2324 32.7729 37.2955 33.6077 37.366 34.4388C37.3845 34.6392 37.4216 34.8395 37.4439 35.0399C37.455 35.1401 37.455 35.2402 37.4513 35.3404C37.4365 35.7114 37.4068 36.0825 37.3994 36.4535C37.3882 36.9841 37.3957 37.5183 37.3845 38.0489C37.3771 38.3494 37.3548 38.65 37.455 38.9505C37.4847 39.0359 37.3994 39.0618 37.2213 39.0321C36.9133 38.9765 36.5905 38.9357 36.405 38.791C36.2788 38.6945 36.1861 38.6017 36.2306 38.4793C36.2974 38.3049 36.1527 38.1157 36.3382 37.945C36.3642 37.9191 36.3568 37.8857 36.3456 37.856C36.1341 37.3365 36.2455 36.8171 36.2714 36.294C36.2788 36.1233 36.2454 35.9526 36.238 35.7819C36.2306 35.6706 36.2306 35.5593 36.2343 35.4517C36.2417 35.2922 36.2714 35.1289 36.2566 34.9694C36.2455 34.8469 36.1861 34.7319 36.3679 34.6206C36.405 34.5984 36.3976 34.5353 36.3531 34.513C36.1824 34.4277 36.2009 34.3275 36.2083 34.2273C36.2232 33.9565 36.2492 33.6893 36.2492 33.4185C36.2492 33.2181 36.2195 33.0178 36.1787 32.8211C36.1156 32.5132 36.0191 32.2052 35.9598 31.8973C35.9115 31.6375 35.9004 31.3778 35.8707 31.1218C35.8633 31.0625 35.8262 31.0031 35.8225 30.9437C35.8151 30.8324 35.7742 30.7174 35.8336 30.6135C35.9004 30.4985 35.9115 30.4094 35.7631 30.3018C35.6778 30.2425 35.6889 30.1497 35.7037 30.0718C35.7223 29.9716 35.7817 29.8752 35.8373 29.7787C35.9041 29.6637 35.9783 29.5561 35.8633 29.4299C35.8039 29.3631 35.8373 29.2704 35.8781 29.1925C36.0599 28.8585 36.0414 28.5172 35.9931 28.1796C35.9264 27.7195 35.8299 27.2594 35.7557 26.7993C35.726 26.6175 35.7223 26.4394 35.7112 26.2576C35.6741 25.6937 35.7186 25.1334 35.7705 24.5732C35.7817 24.4619 35.7965 24.3506 35.7631 24.243C35.6852 23.9907 35.7037 23.7421 35.7594 23.4898C35.8225 23.1892 35.7594 22.8887 35.6926 22.5882C35.6778 22.5177 35.6407 22.4472 35.6518 22.3767C35.7371 21.8943 35.585 21.412 35.6184 20.9334C35.6444 20.5438 35.7334 20.1542 35.8076 19.7684C35.867 19.4678 35.9449 19.1673 36.0117 18.8705C36.0154 18.8519 36.0006 18.8297 36.008 18.8111C36.0562 18.6404 36.2751 18.5848 36.6091 18.6664C36.9059 18.7369 37.0766 18.8519 37.0729 19.004C37.0654 19.1747 37.0395 19.3454 37.0246 19.5161C37.0432 19.5086 37.058 19.5086 37.0729 19.5086Z" fill="black"/>
<path d="M46.5008 19.4046C46.4266 19.6532 46.3746 19.9018 46.2708 20.1467C46.178 20.3656 46.0815 20.5808 46.1854 20.8034C46.2114 20.8628 46.1891 20.9221 46.1891 20.9852C46.1891 21.0928 46.1891 21.2041 46.2003 21.3117C46.204 21.3599 46.267 21.4156 46.2448 21.4601C46.1409 21.6865 46.1112 21.9128 46.2262 22.1428C46.0852 22.3209 46.1854 22.4953 46.2299 22.6734C46.2745 22.8515 46.2448 23.0333 46.3524 23.2114C46.3821 23.2596 46.3932 23.3116 46.3709 23.3598C46.2522 23.6492 46.2967 23.9349 46.3264 24.2243C46.3598 24.536 46.3227 24.8439 46.1891 25.1519C46.1186 25.3151 46.1223 25.4895 46.1223 25.6565C46.1223 25.8568 46.1632 26.0572 46.1743 26.2575C46.1891 26.5469 46.2299 26.8363 46.3301 27.1257C46.4637 27.5116 46.5713 27.9012 46.6455 28.2908C46.6826 28.4874 46.6381 28.6915 46.6158 28.8918C46.5713 29.2925 46.5008 29.6932 46.4711 30.094C46.4488 30.3945 46.4637 30.695 46.4859 30.9956C46.5045 31.2775 46.5639 31.5558 46.5898 31.8378C46.6603 32.6689 46.7234 33.5037 46.7939 34.3348C46.8124 34.5352 46.8495 34.7355 46.8718 34.9359C46.8829 35.036 46.8829 35.1362 46.8792 35.2364C46.8644 35.6074 46.8347 35.9785 46.8273 36.3495C46.8162 36.8801 46.8236 37.4143 46.8124 37.9449C46.805 38.2454 46.7828 38.546 46.8829 38.8465C46.9126 38.9318 46.8273 38.9578 46.6492 38.9281C46.3413 38.8725 46.0185 38.8317 45.833 38.687C45.7068 38.5905 45.614 38.4977 45.6586 38.3753C45.7254 38.2009 45.5807 38.0117 45.7662 37.841C45.7921 37.8151 45.7847 37.7817 45.7736 37.752C45.5621 37.2325 45.6734 36.7131 45.6994 36.1899C45.7068 36.0193 45.6734 35.8486 45.666 35.6779C45.6586 35.5666 45.6586 35.4553 45.6623 35.3477C45.6697 35.1882 45.6994 35.0249 45.6845 34.8654C45.6734 34.7429 45.614 34.6279 45.7958 34.5166C45.8329 34.4943 45.8255 34.4313 45.781 34.409C45.6103 34.3237 45.6289 34.2235 45.6363 34.1233C45.6511 33.8525 45.6771 33.5853 45.6771 33.3145C45.6771 33.1141 45.6474 32.9138 45.6066 32.7171C45.5436 32.4092 45.4471 32.1012 45.3877 31.7933C45.3395 31.5335 45.3284 31.2738 45.2987 31.0178C45.2913 30.9584 45.2542 30.8991 45.2504 30.8397C45.243 30.7284 45.2022 30.6134 45.2616 30.5095C45.3284 30.3945 45.3395 30.3054 45.1911 30.1978C45.1057 30.1385 45.1169 30.0457 45.1317 29.9678C45.1503 29.8676 45.2096 29.7712 45.2653 29.6747C45.3321 29.5597 45.4063 29.4521 45.2913 29.3259C45.2319 29.2591 45.2653 29.1664 45.3061 29.0885C45.4879 28.7545 45.4693 28.4132 45.4211 28.0756C45.3543 27.6155 45.2579 27.1554 45.1837 26.6953C45.154 26.5135 45.1503 26.3354 45.1391 26.1536C45.102 25.5897 45.1466 25.0294 45.1985 24.4692C45.2096 24.3579 45.2245 24.2466 45.1911 24.139C45.1132 23.8867 45.1317 23.6381 45.1874 23.3858C45.2504 23.0852 45.1874 22.7847 45.1206 22.4842C45.1057 22.4137 45.0686 22.3432 45.0798 22.2727C45.1651 21.7903 45.013 21.308 45.0464 20.8294C45.0724 20.4398 45.1614 20.0502 45.2356 19.6644C45.295 19.3638 45.3729 19.0633 45.4397 18.7665C45.4434 18.7479 45.4285 18.7257 45.436 18.7071C45.4842 18.5364 45.7031 18.4808 46.037 18.5624C46.3338 18.6329 46.5045 18.7479 46.5008 18.9C46.4934 19.0707 46.4674 19.2414 46.4488 19.4121C46.4711 19.4046 46.4859 19.4046 46.5008 19.4046Z" fill="black"/>
<path d="M55.3829 19.5086C55.3087 19.7572 55.2568 20.0058 55.1529 20.2507C55.0601 20.4696 54.9636 20.6848 55.0675 20.9074C55.0935 20.9668 55.0712 21.0261 55.0712 21.0892C55.0712 21.1968 55.0712 21.3081 55.0824 21.4157C55.0861 21.464 55.1492 21.5196 55.1269 21.5641C55.023 21.7905 54.9933 22.0168 55.1084 22.2468C54.9674 22.4249 55.0675 22.5993 55.1121 22.7774C55.1566 22.9555 55.1269 23.1373 55.2345 23.3154C55.2642 23.3636 55.2753 23.4156 55.2531 23.4638C55.1343 23.7532 55.1788 24.0389 55.2085 24.3283C55.2419 24.64 55.2048 24.9479 55.0712 25.2559C55.0008 25.4191 55.0045 25.5935 55.0045 25.7605C55.0045 25.9608 55.0453 26.1612 55.0564 26.3615C55.0713 26.6509 55.1121 26.9403 55.2122 27.2297C55.3458 27.6156 55.4534 28.0052 55.5276 28.3948C55.5647 28.5914 55.5202 28.7955 55.4979 28.9958C55.4534 29.3965 55.3829 29.7972 55.3532 30.198C55.331 30.4985 55.3458 30.799 55.3681 31.0996C55.3866 31.3815 55.446 31.6598 55.472 31.9418C55.5462 32.7729 55.6055 33.6077 55.676 34.4388C55.6946 34.6392 55.7317 34.8395 55.7539 35.0399C55.7651 35.1401 55.7651 35.2402 55.7614 35.3404C55.7465 35.7114 55.7168 36.0825 55.7094 36.4535C55.6983 36.9841 55.7057 37.5183 55.6946 38.0489C55.6872 38.3494 55.6649 38.65 55.7651 38.9505C55.7948 39.0359 55.7094 39.0618 55.5313 39.0321C55.2234 38.9765 54.9006 38.9357 54.7151 38.791C54.5889 38.6945 54.4961 38.6017 54.5407 38.4793C54.6075 38.3049 54.4628 38.1157 54.6483 37.945C54.6742 37.9191 54.6668 37.8857 54.6557 37.856C54.4442 37.3365 54.5555 36.8171 54.5815 36.294C54.5889 36.1233 54.5555 35.9526 54.5481 35.7819C54.5407 35.6706 54.5407 35.5593 54.5444 35.4517C54.5518 35.2922 54.5815 35.1289 54.5666 34.9694C54.5555 34.8469 54.4961 34.7319 54.678 34.6206C54.7151 34.5984 54.7076 34.5353 54.6631 34.513C54.4924 34.4277 54.511 34.3275 54.5184 34.2273C54.5332 33.9565 54.5592 33.6893 54.5592 33.4185C54.5592 33.2181 54.5295 33.0178 54.4887 32.8211C54.4256 32.5132 54.3292 32.2052 54.2698 31.8973C54.2216 31.6375 54.2104 31.3778 54.1808 31.1218C54.1733 31.0625 54.1362 31.0031 54.1325 30.9437C54.1251 30.8324 54.0843 30.7174 54.1437 30.6135C54.2104 30.4985 54.2216 30.4094 54.0732 30.3018C53.9878 30.2425 53.999 30.1497 54.0138 30.0718C54.0323 29.9716 54.0917 29.8752 54.1474 29.7787C54.2142 29.6637 54.2884 29.5561 54.1733 29.4299C54.114 29.3631 54.1474 29.2704 54.1882 29.1925C54.37 28.8585 54.3514 28.5172 54.3032 28.1796C54.2364 27.7195 54.1399 27.2594 54.0657 26.7993C54.0361 26.6175 54.0324 26.4394 54.0212 26.2576C53.9841 25.6937 54.0286 25.1334 54.0806 24.5732C54.0917 24.4619 54.1066 24.3506 54.0732 24.243C53.9952 23.9907 54.0138 23.7421 54.0695 23.4898C54.1325 23.1892 54.0695 22.8887 54.0027 22.5882C53.9878 22.5177 53.9507 22.4472 53.9619 22.3767C54.0472 21.8943 53.8951 21.412 53.9285 20.9334C53.9544 20.5438 54.0435 20.1542 54.1177 19.7684C54.1771 19.4678 54.255 19.1673 54.3218 18.8705C54.3255 18.8519 54.3106 18.8297 54.318 18.8111C54.3663 18.6404 54.5852 18.5848 54.9191 18.6664C55.2159 18.7369 55.3866 18.8519 55.3829 19.004C55.3755 19.1747 55.3495 19.3454 55.3347 19.5161C55.3532 19.5086 55.3681 19.5086 55.3829 19.5086Z" fill="black"/>
<path d="M77.8041 56.9714C77.8486 56.3703 77.8672 55.7618 77.9414 55.1645C78.0082 54.6302 78.0786 54.1071 77.9451 53.5728C77.9117 53.4355 77.9265 53.2834 77.9191 53.1387C77.9043 52.8752 77.8931 52.6081 77.8672 52.3447C77.856 52.2259 77.7893 52.0998 77.8041 51.9885C77.8783 51.4319 77.8783 50.8828 77.7373 50.3374C77.856 49.8996 77.7336 49.4803 77.6668 49.0499C77.6 48.6196 77.6074 48.178 77.4776 47.7588C77.4442 47.6475 77.4256 47.5176 77.4405 47.4026C77.5221 46.6976 77.4442 46.0038 77.3774 45.3026C77.3069 44.5531 77.3069 43.7999 77.3997 43.0467C77.4479 42.646 77.4256 42.2267 77.4034 41.8186C77.3774 41.3326 77.3106 40.8502 77.2772 40.3642C77.2253 39.6592 77.1474 38.9617 77.0138 38.2642C76.832 37.3329 76.6762 36.3979 76.5537 35.4555C76.4907 34.9769 76.5092 34.4871 76.5092 34.001C76.5018 33.029 76.5241 32.0569 76.5018 31.0848C76.487 30.3538 76.435 29.6266 76.3757 28.8957C76.32 28.2167 76.2272 27.5415 76.1679 26.8588C75.9935 24.8441 75.8265 22.8294 75.6522 20.8147C75.6113 20.3324 75.5483 19.85 75.5 19.364C75.4778 19.1228 75.4629 18.8779 75.4555 18.6368C75.4258 17.7352 75.4073 16.8373 75.3702 15.9357C75.3145 14.6482 75.2403 13.3608 75.1884 12.0733C75.1587 11.3424 75.1439 10.6114 75.0066 9.89165C74.9695 9.68758 75.0474 9.6208 75.2292 9.68758C75.5446 9.8026 75.8711 9.89165 76.0714 10.233C76.2087 10.463 76.3163 10.6782 76.2829 10.9751C76.2384 11.4054 76.4053 11.847 76.2384 12.2774C76.2161 12.3367 76.2272 12.4221 76.2421 12.4926C76.5166 13.7392 76.4684 15.0081 76.5092 16.2696C76.5204 16.6815 76.576 17.0933 76.6094 17.5051C76.628 17.7723 76.6428 18.0394 76.6539 18.3066C76.6688 18.6961 76.6576 19.0857 76.691 19.4753C76.717 19.7684 76.7912 20.0504 76.6205 20.3212C76.5834 20.3769 76.602 20.5327 76.6502 20.5847C76.8283 20.785 76.8246 21.0262 76.832 21.2674C76.8506 21.9204 76.858 22.5771 76.8914 23.2301C76.9173 23.7124 76.9693 24.1985 77.0361 24.6771C77.1362 25.4229 77.2735 26.1612 77.37 26.907C77.4516 27.5303 77.4924 28.1574 77.5555 28.7844C77.5703 28.9291 77.6149 29.0701 77.626 29.2148C77.6483 29.4819 77.7039 29.7602 77.6557 30.0125C77.6037 30.2945 77.6037 30.5097 77.7633 30.762C77.856 30.903 77.856 31.1293 77.8523 31.3185C77.8449 31.5597 77.8004 31.8009 77.7559 32.0346C77.7039 32.3203 77.6446 32.5837 77.7744 32.8805C77.8449 33.0401 77.8189 33.2664 77.7855 33.4519C77.6483 34.2719 77.7039 35.0956 77.7967 35.9118C77.9228 37.0249 78.0749 38.1306 78.2048 39.2437C78.2567 39.6778 78.2827 40.1193 78.3161 40.5534C78.4237 41.9151 78.446 43.2767 78.4645 44.6421C78.4682 44.9093 78.4645 45.1838 78.5127 45.4436C78.6203 46.0483 78.6315 46.6531 78.6129 47.2653C78.5869 47.9999 78.6871 48.7234 78.791 49.4469C78.817 49.6139 78.8615 49.7846 78.8578 49.9515C78.8318 51.124 79.0433 52.2816 79.0693 53.4503C79.0915 54.3965 79.0507 55.3426 79.0248 56.285C79.0062 57.0159 78.9617 57.7431 78.932 58.4741C78.9283 58.5223 78.9468 58.5705 78.9431 58.6188C78.9172 59.0343 78.702 59.1753 78.3606 58.9972C78.0564 58.8377 77.8709 58.5742 77.856 58.1995C77.8412 57.7877 77.8449 57.3721 77.8412 56.9603C77.8338 56.9714 77.8189 56.9714 77.8041 56.9714Z" fill="black"/>
<path d="M20.7024 12.3217C20.7766 11.9729 20.8285 11.6205 20.9324 11.2754C21.0251 10.9675 21.1216 10.6669 21.0177 10.3516C20.9918 10.2699 21.014 10.1809 21.014 10.0993C21.014 9.94344 21.014 9.79132 21.0029 9.63549C20.9992 9.56499 20.9361 9.49079 20.9584 9.42771C21.0548 9.10863 21.0994 8.78584 21.0029 8.45192C21.1476 8.20333 21.0808 7.95104 21.066 7.68761C21.0585 7.55775 21.0734 7.4279 21.0771 7.29433C21.0882 7.16447 21.0994 7.03461 21.0697 6.89733C21.0548 6.82313 21.0623 6.74521 21.0919 6.68214C21.1847 6.48549 21.2626 6.29256 21.3257 6.0885C21.3888 5.88815 21.4147 5.67666 21.4815 5.47631C21.5483 5.25741 21.6299 5.04592 21.7338 4.84557C21.8525 4.64893 21.9898 4.46341 22.1457 4.29645C22.3089 4.11465 22.4462 3.91059 22.5649 3.69911C22.7022 3.44681 22.8617 3.20564 23.0176 2.95706C23.2736 2.62314 23.511 2.27437 23.7633 1.91819C24.0824 1.42102 24.5165 0.994344 25.01 0.62332C25.266 0.441518 25.5777 0.352472 25.8745 0.256006C26.483 0.0927554 27.1063 -4.52661e-07 27.7259 0.0111303L28.071 0L28.416 0.0185509C28.6461 0.0296816 28.8798 0.0296814 29.1098 0.070494C29.544 0.115017 29.9743 0.192932 30.3973 0.31537C31.6328 0.738337 32.7237 1.5212 33.5919 2.48586C33.7848 2.72702 34.0111 2.94964 34.1966 3.20193C34.2857 3.32808 34.3673 3.46165 34.4415 3.59893C34.7198 4.10723 34.935 4.64151 35.1242 5.17949C35.1984 5.36871 35.2615 5.56536 35.3134 5.762C35.3691 5.95864 35.4285 6.15157 35.4804 6.34822C35.5546 6.74521 35.6622 7.14221 35.6919 7.54662C35.7141 7.77666 35.7438 8.00298 35.7587 8.22931C35.7735 8.45934 35.8032 8.68566 35.8626 8.91199C35.8959 9.04185 35.8143 9.08266 35.6325 9.03443C35.3209 8.9528 34.9981 8.89344 34.8051 8.70051C34.6753 8.56694 34.5751 8.45192 34.6122 8.28125C34.6604 8.03266 34.4786 7.79892 34.6382 7.5392C34.6604 7.5021 34.6456 7.45387 34.6307 7.41676C34.2931 6.75263 34.2486 6.04027 33.9889 5.36871C33.9184 5.1461 33.7885 4.94946 33.6735 4.74539C33.5993 4.61553 33.5436 4.47455 33.4657 4.34469C33.3581 4.15547 33.2728 3.9514 33.1466 3.7696C33.039 3.64345 32.898 3.5507 32.9574 3.32066C32.9685 3.27243 32.9092 3.20564 32.8572 3.20935C32.6606 3.21306 32.579 3.10918 32.4936 3.00529C32.2747 2.71218 32.0187 2.44876 31.7516 2.20388C31.5364 2.04434 31.31 1.88851 31.0652 1.78462C30.8685 1.71042 30.6793 1.62879 30.4826 1.57314C30.2823 1.52862 30.0857 1.47667 29.8964 1.42473C29.7332 1.39876 29.5699 1.36166 29.4141 1.32455C29.2583 1.28003 29.0913 1.28003 28.9318 1.26148C28.8575 1.25406 28.7796 1.27632 28.7091 1.26519C28.5719 1.26519 28.4309 1.29858 28.3047 1.22809C28.1674 1.15017 28.0487 1.13162 27.9263 1.29487C27.8558 1.38392 27.7445 1.38392 27.6517 1.37279C27.533 1.35424 27.4068 1.31713 27.2807 1.28745C27.1323 1.25035 26.9764 1.20212 26.8503 1.34311C26.7872 1.42844 26.6685 1.42844 26.5646 1.41731C26.4533 1.40618 26.3383 1.40618 26.227 1.42102C26.1194 1.44328 26.0155 1.47667 25.9153 1.51749C25.8151 1.5583 25.7112 1.59911 25.6185 1.65848C25.5257 1.72155 25.4367 1.78462 25.3513 1.85141C25.1065 2.01837 24.9098 2.25582 24.6983 2.45618C24.6019 2.56748 24.5091 2.68621 24.4163 2.80123C24.3199 2.91254 24.2308 3.02755 24.1529 3.1537C24.0268 3.34663 23.8672 3.50988 23.7485 3.71024C23.3404 4.29274 22.9693 4.90864 22.6503 5.56536C22.5909 5.69521 22.5204 5.82507 22.5018 5.96606C22.4907 6.3074 22.3571 6.5968 22.2495 6.90846C22.179 7.09397 22.1382 7.28691 22.116 7.48355C22.1085 7.68019 22.116 7.88054 22.1271 8.07719C22.1308 8.16994 22.1531 8.2627 22.1419 8.35174C22.116 8.50757 22.1011 8.6634 22.0974 8.81923C22.09 8.97135 22.0974 9.1346 22.1085 9.30898C22.1308 9.64662 22.1605 9.98796 22.1457 10.3256C22.1197 10.8747 22.0306 11.4238 21.9564 11.9692C21.8971 12.3922 21.8191 12.8152 21.7524 13.2381C21.7487 13.2641 21.7635 13.2938 21.7561 13.3235C21.7078 13.5646 21.4889 13.6388 21.155 13.5275C20.8582 13.4273 20.6875 13.2678 20.6912 13.0489C20.6986 12.8077 20.7246 12.5703 20.7395 12.3291L20.7024 12.3217Z" fill="black"/>
<path d="M21.2575 15.6284C22.1591 15.6284 22.89 14.8976 22.89 13.9961C22.89 13.0946 22.1591 12.3638 21.2575 12.3638C20.3559 12.3638 19.625 13.0946 19.625 13.9961C19.625 14.8976 20.3559 15.6284 21.2575 15.6284Z" fill="black"/>
<path d="M23.3439 14.5815C23.2289 14.7188 23.1176 14.8486 22.958 14.9265C22.8096 14.997 22.6723 15.0304 22.6723 15.1937C22.6723 15.2345 22.6278 15.2456 22.6055 15.2716C22.5684 15.3198 22.5165 15.3569 22.4757 15.4089C22.4571 15.4312 22.4757 15.4979 22.4386 15.4979C22.2679 15.4979 22.1603 15.535 22.0935 15.6946C21.9414 15.613 21.8969 15.7354 21.8078 15.8133C21.7188 15.8838 21.6112 15.8801 21.5184 15.9989C21.4925 16.0322 21.4591 16.0471 21.4294 16.0285C21.2439 15.9246 21.0806 15.958 20.8988 15.958C20.7059 15.9543 20.5204 15.8541 20.4239 15.6538C20.3719 15.5499 20.294 15.5054 20.2161 15.4497C20.1271 15.3866 20.0158 15.3421 19.9267 15.2679C19.7969 15.1603 19.6744 15.049 19.5 14.9451C19.2663 14.8004 19.0808 14.574 18.9695 14.3069C18.9138 14.1696 18.9472 14.0212 18.9806 13.8839C19.04 13.6019 19.1735 13.3533 19.3071 13.1233C19.4073 12.9489 19.5037 12.7782 19.6113 12.6112C19.7189 12.4591 19.8154 12.281 19.9638 12.1511C20.3942 11.7541 21.0138 11.5352 21.6446 11.5612C21.7967 11.5649 21.9562 11.5686 22.1121 11.5983C22.19 11.6168 22.2642 11.6391 22.3347 11.6799C22.5944 11.8172 22.817 12.0064 23.0137 12.2105C23.2956 12.5036 23.522 12.8561 23.637 13.2494C23.6964 13.4758 23.7149 13.6947 23.8188 13.9247C23.8485 13.9915 23.7669 14.0101 23.5888 13.9878C23.2771 13.9507 22.9543 13.9321 22.7688 13.8802C22.6426 13.8431 22.5388 13.8245 22.5796 13.7689C22.6315 13.6798 22.4757 13.6501 22.6278 13.5203C22.6501 13.5017 22.6352 13.4906 22.6204 13.4795C22.3495 13.3533 22.3347 13.1492 22.1789 12.9711C22.1306 12.9155 22.0527 12.9006 21.9896 12.8709C21.9488 12.8524 21.9117 12.8264 21.8709 12.8079C21.8152 12.7708 21.7633 12.7188 21.6965 12.7114C21.6446 12.704 21.5889 12.7559 21.5815 12.563C21.5815 12.5222 21.5481 12.5296 21.5296 12.5704C21.4628 12.7337 21.4331 12.704 21.3923 12.6966C21.2847 12.678 21.1734 12.6446 21.0621 12.6706C20.9804 12.6854 20.9062 12.73 20.8469 12.7967C20.7504 12.8969 20.7022 13.0379 20.6576 13.1418C20.6168 13.2272 20.5686 13.2939 20.5389 13.3719C20.5315 13.3904 20.55 13.4275 20.5426 13.4424C20.5278 13.472 20.5463 13.5203 20.4833 13.5129C20.4091 13.5054 20.3794 13.5277 20.5055 13.6205C20.576 13.6724 20.5538 13.6835 20.5352 13.6984C20.5129 13.7132 20.4462 13.7169 20.3831 13.7281C20.3126 13.7392 20.2272 13.7615 20.3348 13.8208C20.3905 13.8505 20.3534 13.8691 20.3089 13.8876C20.1196 13.973 20.1382 14.1177 20.2087 14.2141C20.3089 14.3514 20.4573 14.4405 20.5871 14.4924C20.6354 14.5147 20.6725 14.5444 20.7096 14.5703C20.8357 14.6371 20.9211 14.7447 21.0546 14.8301C21.0806 14.8486 21.1066 14.8709 21.14 14.8412C21.2142 14.7781 21.2698 14.7967 21.3403 14.8449C21.4257 14.9006 21.5073 14.8226 21.5481 14.7336C21.5592 14.7113 21.5629 14.6779 21.5778 14.6779C21.7262 14.7039 21.7336 14.511 21.819 14.459C21.8932 14.4108 22.0156 14.3811 22.1269 14.3032C22.2122 14.2475 22.3087 14.1733 22.3829 14.0768C22.3866 14.0694 22.3718 14.062 22.3792 14.0546C22.4312 14.0026 22.6538 13.9692 22.984 14.0138C23.2771 14.0546 23.4478 14.1399 23.4329 14.2438C23.4107 14.3551 23.3661 14.4627 23.3179 14.5666L23.3439 14.5815Z" fill="black"/>
<path d="M39.3315 12.3217C39.4057 11.9729 39.4576 11.6205 39.5615 11.2754C39.6542 10.9675 39.7507 10.6669 39.6468 10.3516C39.6209 10.2699 39.6431 10.1809 39.6431 10.0993C39.6431 9.94344 39.6431 9.79132 39.632 9.63549C39.6283 9.56499 39.5652 9.49079 39.5875 9.42771C39.6839 9.10863 39.7285 8.78584 39.632 8.45192C39.7767 8.20333 39.7099 7.95104 39.6951 7.68761C39.6876 7.55775 39.7025 7.4279 39.7062 7.29433C39.7173 7.16447 39.7285 7.03461 39.6988 6.89733C39.6839 6.82313 39.6914 6.74521 39.721 6.68214C39.8138 6.48549 39.8917 6.29256 39.9548 6.0885C40.0179 5.88815 40.0438 5.67666 40.1106 5.47631C40.1774 5.25741 40.259 5.04592 40.3629 4.84557C40.4816 4.64893 40.6189 4.46341 40.7748 4.29645C40.938 4.11465 41.0753 3.91059 41.194 3.69911C41.3313 3.44681 41.4908 3.20564 41.6467 2.95706C41.9027 2.62314 42.1401 2.27437 42.3924 1.91819C42.7115 1.42102 43.1456 0.994344 43.6391 0.62332C43.8951 0.441518 44.2068 0.352472 44.5036 0.256006C45.1121 0.0927554 45.7354 -4.52661e-07 46.355 0.0111303L46.7038 0L47.0488 0.0185509C47.2789 0.0296816 47.5126 0.0296814 47.7427 0.070494C48.1768 0.115017 48.6072 0.192932 49.0301 0.31537C50.2657 0.738337 51.3565 1.5212 52.2247 2.48586C52.4176 2.72702 52.6439 2.94964 52.8295 3.20193C52.9185 3.32808 53.0001 3.46165 53.0743 3.59893C53.3526 4.10723 53.5678 4.64151 53.757 5.17949C53.8312 5.36871 53.8943 5.56536 53.9462 5.762C54.0019 5.95864 54.0613 6.15157 54.1132 6.34822C54.1874 6.74521 54.295 7.14221 54.3247 7.54662C54.347 7.77666 54.3766 8.00298 54.3915 8.22931C54.4063 8.45934 54.436 8.68566 54.4954 8.91199C54.5288 9.04185 54.4471 9.08266 54.2653 9.03443C53.9537 8.9528 53.6309 8.89344 53.4379 8.70051C53.3081 8.56694 53.2079 8.45192 53.245 8.28125C53.2932 8.03266 53.1114 7.79892 53.271 7.5392C53.2932 7.5021 53.2784 7.45387 53.2636 7.41676C52.9259 6.75263 52.8814 6.04027 52.6217 5.36871C52.5512 5.1461 52.4213 4.94946 52.3063 4.74539C52.2321 4.61553 52.1764 4.47455 52.0985 4.34469C51.9909 4.15547 51.9056 3.9514 51.7794 3.7696C51.6718 3.64345 51.5309 3.5507 51.5902 3.32066C51.6013 3.27243 51.542 3.20564 51.49 3.20935C51.2934 3.21306 51.2118 3.10918 51.1264 3.00529C50.9075 2.71218 50.6515 2.44876 50.3844 2.20388C50.1692 2.04434 49.9429 1.88851 49.698 1.78462C49.5013 1.71042 49.3121 1.62879 49.1155 1.57314C48.9151 1.52862 48.7185 1.47667 48.5292 1.42473C48.366 1.39876 48.2027 1.36166 48.0469 1.32455C47.8911 1.28003 47.7241 1.28003 47.5646 1.26148C47.4904 1.25406 47.4124 1.27632 47.3419 1.26519C47.2047 1.26519 47.0637 1.29858 46.9375 1.22809C46.8002 1.15017 46.6815 1.13162 46.5591 1.29487C46.4886 1.38392 46.3773 1.38392 46.2845 1.37279C46.1658 1.35424 46.0396 1.31713 45.9135 1.28745C45.7651 1.25035 45.6093 1.20212 45.4831 1.34311C45.42 1.42844 45.3013 1.42844 45.1974 1.41731C45.0861 1.40618 44.9711 1.40618 44.8598 1.42102C44.7522 1.44328 44.6483 1.47667 44.5481 1.51749C44.4479 1.5583 44.344 1.59911 44.2513 1.65848C44.1585 1.72155 44.0695 1.78462 43.9841 1.85141C43.7393 2.01837 43.5426 2.25582 43.3311 2.45618C43.2347 2.56748 43.1419 2.68621 43.0492 2.80123C42.9527 2.91254 42.8636 3.02755 42.7857 3.1537C42.6596 3.34663 42.5 3.50988 42.3813 3.71024C41.9732 4.29274 41.6021 4.90864 41.2831 5.56536C41.2237 5.69521 41.1532 5.82507 41.1347 5.96606C41.1235 6.3074 40.99 6.5968 40.8824 6.90846C40.8119 7.09397 40.771 7.28691 40.7488 7.48355C40.7414 7.68019 40.7488 7.88054 40.7599 8.07719C40.7636 8.16994 40.7859 8.2627 40.7748 8.35174C40.7488 8.50757 40.7339 8.6634 40.7302 8.81923C40.7228 8.97135 40.7302 9.1346 40.7414 9.30898C40.7636 9.64662 40.7933 9.98796 40.7785 10.3256C40.7525 10.8747 40.6634 11.4238 40.5892 11.9692C40.5299 12.3922 40.452 12.8152 40.3852 13.2381C40.3815 13.2641 40.3963 13.2938 40.3889 13.3235C40.3407 13.5646 40.1217 13.6388 39.7878 13.5275C39.491 13.4273 39.3203 13.2678 39.324 13.0489C39.3315 12.8077 39.3574 12.5703 39.3723 12.3291L39.3315 12.3217Z" fill="black"/>
<path d="M39.8835 15.6284C40.7851 15.6284 41.5161 14.8976 41.5161 13.9961C41.5161 13.0946 40.7851 12.3638 39.8835 12.3638C38.9819 12.3638 38.251 13.0946 38.251 13.9961C38.251 14.8976 38.9819 15.6284 39.8835 15.6284Z" fill="black"/>
<path d="M41.9694 14.5815C41.8544 14.7188 41.743 14.8486 41.5835 14.9265C41.4351 14.997 41.2978 15.0304 41.2978 15.1937C41.2978 15.2345 41.2533 15.2456 41.231 15.2716C41.1902 15.3198 41.142 15.3569 41.1012 15.4089C41.0826 15.4312 41.1012 15.4979 41.0641 15.4979C40.8934 15.4979 40.7858 15.535 40.719 15.6946C40.5669 15.613 40.5224 15.7354 40.4333 15.8133C40.3443 15.8838 40.2367 15.8801 40.1439 15.9989C40.1179 16.0322 40.0845 16.0471 40.0549 16.0285C39.8694 15.9246 39.7061 15.958 39.5243 15.958C39.3314 15.9543 39.1458 15.8541 39.0494 15.6538C38.9974 15.5499 38.9195 15.5054 38.8416 15.4497C38.7526 15.3866 38.6412 15.3421 38.5522 15.2679C38.4223 15.1603 38.2999 15.049 38.1255 14.9451C37.8918 14.8004 37.7063 14.574 37.595 14.3069C37.5393 14.1696 37.5727 14.0212 37.6061 13.8839C37.6654 13.6019 37.799 13.3533 37.9326 13.1233C38.0328 12.9489 38.1292 12.7782 38.2368 12.6112C38.3444 12.4591 38.4409 12.281 38.5893 12.1511C39.0197 11.7541 39.6393 11.5352 40.2701 11.5612C40.4222 11.5649 40.5817 11.5686 40.7376 11.5983C40.8155 11.6168 40.8897 11.6391 40.9602 11.6799C41.2199 11.8172 41.4425 12.0064 41.6392 12.2105C41.9211 12.5036 42.1475 12.8561 42.2625 13.2494C42.3218 13.4758 42.3404 13.6947 42.4443 13.9247C42.474 13.9915 42.3923 14.0101 42.2142 13.9878C41.9026 13.9507 41.5798 13.9321 41.3943 13.8802C41.2681 13.8431 41.1642 13.8245 41.2051 13.7689C41.257 13.6798 41.1012 13.6501 41.2533 13.5203C41.2755 13.5017 41.2607 13.4906 41.2459 13.4795C40.975 13.3533 40.9602 13.1492 40.8043 12.9711C40.7561 12.9155 40.6782 12.9006 40.6151 12.8709C40.5743 12.8524 40.5372 12.8264 40.4964 12.8079C40.4407 12.7708 40.3888 12.7188 40.322 12.7114C40.2701 12.704 40.2144 12.7559 40.207 12.563C40.207 12.5222 40.1736 12.5296 40.155 12.5704C40.0883 12.7337 40.0586 12.704 40.0178 12.6966C39.9102 12.678 39.7989 12.6446 39.6875 12.6706C39.6059 12.6854 39.5317 12.73 39.4724 12.7967C39.3759 12.8969 39.3276 13.0379 39.2831 13.1418C39.2423 13.2272 39.1941 13.2939 39.1644 13.3719C39.157 13.3904 39.1755 13.4275 39.1681 13.4424C39.1533 13.472 39.1718 13.5203 39.105 13.5129C39.0308 13.5054 39.0011 13.5277 39.1273 13.6205C39.1978 13.6724 39.1755 13.6835 39.157 13.6984C39.1347 13.7132 39.0679 13.7169 39.0049 13.7281C38.9344 13.7392 38.849 13.7615 38.9566 13.8208C39.0123 13.8505 38.9752 13.8691 38.9307 13.8876C38.7414 13.973 38.76 14.1177 38.8305 14.2141C38.9269 14.3514 39.0791 14.4405 39.2089 14.4924C39.2572 14.5147 39.2943 14.5444 39.3314 14.5703C39.4575 14.6371 39.5428 14.7447 39.6764 14.8301C39.7024 14.8486 39.7284 14.8709 39.7618 14.8412C39.836 14.7781 39.8916 14.7967 39.9621 14.8449C40.0474 14.9006 40.1291 14.8226 40.1699 14.7336C40.181 14.7113 40.1847 14.6779 40.1996 14.6779C40.348 14.7039 40.3554 14.511 40.4407 14.459C40.5149 14.4108 40.6374 14.3811 40.7487 14.3032C40.834 14.2475 40.9305 14.1733 41.0047 14.0768C41.0084 14.0694 40.9936 14.062 41.001 14.0546C41.0529 14.0026 41.2755 13.9692 41.6058 14.0138C41.8989 14.0546 42.0695 14.1399 42.0547 14.2438C42.0324 14.3551 41.9879 14.4627 41.9397 14.5666L41.9694 14.5815Z" fill="black"/>
<path d="M57.9585 12.3217C58.0327 11.9729 58.0846 11.6205 58.1885 11.2754C58.2813 10.9675 58.3778 10.6669 58.2739 10.3516C58.2479 10.2699 58.2702 10.1809 58.2702 10.0993C58.2702 9.94344 58.2702 9.79132 58.259 9.63549C58.2553 9.56499 58.1922 9.49079 58.2145 9.42771C58.311 9.10863 58.3555 8.78584 58.2553 8.45192C58.4 8.20333 58.3332 7.95104 58.3184 7.68761C58.311 7.55775 58.3258 7.4279 58.3295 7.29433C58.3407 7.16447 58.3518 7.03461 58.3221 6.89733C58.3073 6.82313 58.3147 6.74521 58.3444 6.68214C58.4371 6.48549 58.515 6.29256 58.5744 6.0885C58.6375 5.88815 58.6635 5.67666 58.7302 5.47631C58.797 5.25741 58.8786 5.04592 58.9825 4.84557C59.1013 4.64893 59.2385 4.46341 59.3944 4.29645C59.5576 4.11465 59.6949 3.91059 59.8136 3.69911C59.9509 3.44681 60.1105 3.20564 60.2663 2.95706C60.5223 2.62314 60.7597 2.27437 61.012 1.91819C61.3311 1.42102 61.7652 0.994344 62.2587 0.62332C62.5147 0.441518 62.8264 0.352472 63.1232 0.256006C63.7317 0.0927554 64.355 -4.52661e-07 64.9746 0.0111303L65.3234 0L65.6684 0.0185509C65.8985 0.0296816 66.1322 0.0296814 66.3623 0.070494C66.7964 0.115017 67.2267 0.192932 67.6497 0.31537C68.8852 0.738337 69.976 1.5212 70.8443 2.48586C71.0372 2.72702 71.2635 2.94964 71.449 3.20193C71.5381 3.32808 71.6197 3.46165 71.6939 3.59893C71.9722 4.10723 72.1874 4.64151 72.3766 5.17949C72.4508 5.36871 72.5139 5.56536 72.5658 5.762C72.6215 5.95864 72.6808 6.15157 72.7328 6.34822C72.807 6.74521 72.9146 7.14221 72.9443 7.54662C72.9665 7.77666 72.9962 8.00298 73.0111 8.22931C73.0259 8.45934 73.0556 8.68566 73.1149 8.91199C73.1483 9.04185 73.0667 9.08266 72.8849 9.03443C72.5732 8.9528 72.2504 8.89344 72.0575 8.70051C71.9276 8.56694 71.8275 8.45192 71.8646 8.28125C71.9128 8.03266 71.731 7.79892 71.8905 7.5392C71.9128 7.5021 71.898 7.45387 71.8831 7.41676C71.5455 6.75263 71.501 6.04027 71.2413 5.36871C71.1708 5.1461 71.0409 4.94946 70.9259 4.74539C70.8517 4.61553 70.796 4.47455 70.7181 4.34469C70.6105 4.15547 70.5252 3.9514 70.399 3.7696C70.2914 3.64345 70.1504 3.5507 70.2098 3.32066C70.2209 3.27243 70.1616 3.20564 70.1096 3.20935C69.913 3.21306 69.8314 3.10918 69.746 3.00529C69.5271 2.71218 69.2711 2.44876 69.004 2.20388C68.7888 2.04434 68.5624 1.88851 68.3176 1.78462C68.1209 1.71042 67.9317 1.62879 67.7351 1.57314C67.5347 1.52862 67.3381 1.47667 67.1488 1.42473C66.9856 1.39876 66.8223 1.36166 66.6665 1.32455C66.5107 1.28003 66.3437 1.28003 66.1842 1.26148C66.11 1.25406 66.032 1.27632 65.9615 1.26519C65.8243 1.26519 65.6833 1.29858 65.5571 1.22809C65.4198 1.15017 65.3011 1.13162 65.1787 1.29487C65.1082 1.38392 64.9969 1.38392 64.9041 1.37279C64.7854 1.35424 64.6592 1.31713 64.5331 1.28745C64.3847 1.25035 64.2288 1.20212 64.1027 1.34311C64.0396 1.42844 63.9209 1.42844 63.817 1.41731C63.7057 1.40618 63.5907 1.40618 63.4794 1.42102C63.3718 1.44328 63.2679 1.47667 63.1677 1.51749C63.0675 1.5583 62.9637 1.59911 62.8709 1.65848C62.7781 1.72155 62.6891 1.78462 62.6038 1.85141C62.3589 2.01837 62.1622 2.25582 61.9507 2.45618C61.8543 2.56748 61.7615 2.68621 61.6688 2.80123C61.5723 2.91254 61.4833 3.02755 61.4053 3.1537C61.2792 3.34663 61.1196 3.50988 61.0009 3.71024C60.5928 4.29274 60.2218 4.90864 59.9027 5.56536C59.8433 5.69521 59.7728 5.82507 59.7543 5.96606C59.7431 6.3074 59.6096 6.5968 59.502 6.90846C59.4315 7.09397 59.3907 7.28691 59.3684 7.48355C59.361 7.68019 59.3684 7.88054 59.3795 8.07719C59.3832 8.16994 59.4055 8.2627 59.3944 8.35174C59.3684 8.50757 59.3536 8.6634 59.3499 8.81923C59.3424 8.97135 59.3499 9.1346 59.361 9.30898C59.3832 9.64662 59.4129 9.98796 59.3981 10.3256C59.3721 10.8747 59.2831 11.4238 59.2089 11.9692C59.1495 12.3922 59.0716 12.8152 59.0048 13.2381C59.0011 13.2641 59.0159 13.2938 59.0085 13.3235C58.9603 13.5646 58.7414 13.6388 58.4074 13.5275C58.1106 13.4273 57.94 13.2678 57.9437 13.0489C57.9511 12.8077 57.9771 12.5703 57.9919 12.3291L57.9585 12.3217Z" fill="black"/>
<path d="M58.5114 15.6284C59.413 15.6284 60.1439 14.8976 60.1439 13.9961C60.1439 13.0946 59.413 12.3638 58.5114 12.3638C57.6098 12.3638 56.8789 13.0946 56.8789 13.9961C56.8789 14.8976 57.6098 15.6284 58.5114 15.6284Z" fill="black"/>
<path d="M60.5963 14.5815C60.4813 14.7188 60.37 14.8486 60.2105 14.9265C60.062 14.997 59.9248 15.0304 59.9248 15.1937C59.9248 15.2345 59.8802 15.2456 59.858 15.2716C59.8209 15.3198 59.7689 15.3569 59.7281 15.4089C59.7096 15.4312 59.7281 15.4979 59.691 15.4979C59.5203 15.4979 59.4127 15.535 59.346 15.6946C59.1938 15.613 59.1493 15.7354 59.0603 15.8133C58.9712 15.8838 58.8636 15.8801 58.7709 15.9989C58.7449 16.0322 58.7115 16.0471 58.6818 16.0285C58.4963 15.9246 58.3331 15.958 58.1512 15.958C57.9583 15.9543 57.7728 15.8541 57.6763 15.6538C57.6244 15.5499 57.5465 15.5054 57.4686 15.4497C57.3795 15.3866 57.2682 15.3421 57.1792 15.2679C57.0493 15.1603 56.9269 15.049 56.7525 14.9451C56.5187 14.8004 56.3332 14.574 56.2219 14.3069C56.1663 14.1696 56.1996 14.0212 56.233 13.8839C56.2924 13.6019 56.426 13.3533 56.5595 13.1233C56.6597 12.9489 56.7562 12.7782 56.8638 12.6112C56.9714 12.4591 57.0678 12.281 57.2163 12.1511C57.6466 11.7541 58.2663 11.5352 58.897 11.5612C59.0491 11.5649 59.2087 11.5686 59.3645 11.5983C59.4424 11.6168 59.5166 11.6391 59.5871 11.6799C59.8468 11.8172 60.0695 12.0064 60.2661 12.2105C60.5481 12.5036 60.7744 12.8561 60.8894 13.2494C60.9488 13.4758 60.9673 13.6947 61.0712 13.9247C61.1009 13.9915 61.0193 14.0101 60.8412 13.9878C60.5295 13.9507 60.2067 13.9321 60.0212 13.8802C59.8951 13.8431 59.7912 13.8245 59.832 13.7689C59.8839 13.6798 59.7281 13.6501 59.8802 13.5203C59.9025 13.5017 59.8877 13.4906 59.8728 13.4795C59.602 13.3533 59.5871 13.1492 59.4313 12.9711C59.3831 12.9155 59.3051 12.9006 59.2421 12.8709C59.2013 12.8524 59.1642 12.8264 59.1233 12.8079C59.0677 12.7708 59.0157 12.7188 58.949 12.7114C58.897 12.704 58.8414 12.7559 58.8339 12.563C58.8339 12.5222 58.8005 12.5296 58.782 12.5704C58.7152 12.7337 58.6855 12.704 58.6447 12.6966C58.5371 12.678 58.4258 12.6446 58.3145 12.6706C58.2329 12.6854 58.1587 12.73 58.0993 12.7967C58.0028 12.8969 57.9546 13.0379 57.9101 13.1418C57.8693 13.2272 57.821 13.2939 57.7914 13.3719C57.7839 13.3904 57.8025 13.4275 57.7951 13.4424C57.7802 13.472 57.7988 13.5203 57.732 13.5129C57.6578 13.5054 57.6281 13.5277 57.7542 13.6205C57.8247 13.6724 57.8025 13.6835 57.7839 13.6984C57.7617 13.7132 57.6949 13.7169 57.6318 13.7281C57.5613 13.7392 57.476 13.7615 57.5836 13.8208C57.6392 13.8505 57.6021 13.8691 57.5576 13.8876C57.3684 13.973 57.3869 14.1177 57.4574 14.2141C57.5576 14.3514 57.706 14.4405 57.8359 14.4924C57.8841 14.5147 57.9212 14.5444 57.9583 14.5703C58.0845 14.6371 58.1698 14.7447 58.3034 14.8301C58.3293 14.8486 58.3553 14.8709 58.3887 14.8412C58.4629 14.7781 58.5186 14.7967 58.5891 14.8449C58.6744 14.9006 58.756 14.8226 58.7968 14.7336C58.808 14.7113 58.808 14.6779 58.8265 14.6779C58.9749 14.7039 58.9824 14.511 59.0677 14.459C59.1419 14.4108 59.2643 14.3811 59.3756 14.3032C59.461 14.2475 59.5574 14.1733 59.6316 14.0768C59.6354 14.0694 59.6205 14.062 59.6279 14.0546C59.6799 14.0026 59.9025 13.9692 60.2327 14.0138C60.5258 14.0546 60.6965 14.1399 60.6817 14.2438C60.6594 14.3551 60.6149 14.4627 60.5666 14.5666L60.5963 14.5815Z" fill="black"/>
<path d="M0.871826 38.8013L58.5666 39.317C58.6037 40.0702 58.9896 46.7117 62.6887 48.0696C62.9967 48.1847 63.7276 48.5186 64.4437 48.0066C47.7994 49.7541 29.6673 50.0843 12.6371 50.9785C11.3719 50.7299 7.73583 49.8469 4.66744 46.5707C1.79939 43.5022 1.0796 40.1036 0.871826 38.8013Z" fill="#EBC564"/>
<path d="M6.94898 38.3236C8.63716 38.4126 10.3439 38.4794 12.0135 38.5981C13.505 38.7057 14.9706 38.8133 16.4955 38.7243C16.8888 38.702 17.3155 38.728 17.7273 38.7317C18.4731 38.7354 19.2226 38.7391 19.9683 38.7428C20.3097 38.7428 20.6696 38.6835 20.9812 38.7057C22.5358 38.8245 24.0793 38.8653 25.6413 38.7651C26.8546 38.9172 28.0493 38.8245 29.27 38.7948C30.4907 38.7614 31.7299 38.8022 32.9394 38.7057C33.2585 38.6798 33.6259 38.6723 33.9524 38.6946C35.9188 38.8319 37.889 38.8059 39.8702 38.7911C41.9925 38.7762 44.1148 38.8356 46.2185 38.984C47.339 39.0656 48.5189 39.0693 49.6691 39.0805C51.0419 39.0916 52.411 39.0619 53.7838 39.0656C54.5852 39.0619 55.3866 39.0582 56.1843 39.0545C57.0785 39.0397 57.9727 39.0285 58.8668 39.0137L58.9373 39.7817L58.9856 40.1564L59.0301 40.4347C59.249 41.7147 59.5681 42.9836 60.0578 44.1524C60.5402 45.3174 61.2303 46.4045 62.1653 47.0278C62.4918 47.2504 62.8591 47.4025 63.2561 47.5324C63.5974 47.6326 63.8089 47.6066 64.0464 47.4582L64.5102 48.6863C64.102 48.7197 63.6976 48.7531 63.2932 48.7827C60.5587 49.0202 57.8243 49.1723 55.0898 49.3578C53.0343 49.4877 50.9751 49.6435 48.9196 49.7919C47.0014 49.9292 45.0869 50.0999 43.1687 50.2223C37.4808 50.5933 31.7893 50.8864 26.1051 51.1981C24.7397 51.2834 23.3744 51.3651 22.009 51.4504C21.3263 51.4912 20.6436 51.5209 19.9609 51.5469L16.1616 51.6916L14.2619 51.7732L13.3121 51.814L12.8372 51.8363L12.6405 51.8474C12.5626 51.8585 12.4884 51.8326 12.4142 51.8177L12.1359 51.7584C8.38486 50.9235 4.93801 48.7011 2.7304 45.5363C1.46891 43.748 0.622966 41.7184 0.0812664 39.611C-0.0671446 39.0137 -0.00406997 38.8059 0.203705 39.0026C0.578443 39.3328 0.930919 39.5739 1.36873 40.4681C1.67297 41.0729 1.96238 41.6109 2.24436 42.3752C2.67104 43.4882 3.42422 44.4826 4.00303 45.5029C4.08836 45.6476 4.23677 45.8368 4.37776 45.9704C5.59473 47.2319 6.97866 48.3115 8.50359 49.1538C9.2679 49.573 10.0656 49.9292 10.8893 50.2223C11.3011 50.3633 11.7204 50.4932 12.1434 50.5971C12.3511 50.6379 12.5923 50.7195 12.7222 50.7084L13.3863 50.6787C14.5476 50.6304 15.7126 50.534 16.8777 50.4709L19.1409 50.3633C20.2392 50.3188 21.3374 50.3039 22.432 50.2409C23.2556 50.1926 24.0571 50.0999 24.8102 50.252C24.9698 50.2854 25.4002 50.2557 25.5523 50.2038C26.1311 50.0108 26.8138 49.9997 27.4965 49.9774C29.3405 49.9144 31.1845 49.8661 33.0285 49.7808C34.3902 49.7214 35.7556 49.6324 37.1135 49.5285C39.2209 49.369 41.3135 49.1723 43.421 49.0016C45.1796 48.8718 46.9494 48.7419 48.7155 48.6121C49.1237 48.5787 49.5244 48.5156 49.9325 48.4859C50.682 48.4266 51.4648 48.3412 52.1735 48.3486C52.9601 48.3598 53.5686 48.3301 54.2809 48.126C54.6779 48.0147 55.3235 47.9739 55.8467 47.9442C56.5219 47.9108 57.1935 47.9145 57.8539 47.9183C58.6479 47.9183 59.39 47.922 60.2322 47.7365C60.6812 47.6363 61.3156 47.6177 61.8351 47.6029C62.681 47.5843 63.5307 47.5398 64.3803 47.4767L66.2985 47.3357L64.7439 48.4377C64.3506 48.716 63.8126 48.8458 63.3451 48.779C63.1114 48.7493 62.8925 48.69 62.6996 48.6195L62.5623 48.5676C62.5252 48.5564 62.4844 48.5379 62.4324 48.5156L62.1467 48.3969C61.7757 48.2188 61.4269 47.9925 61.1079 47.7365C60.7962 47.473 60.5179 47.1799 60.2656 46.8683C59.4085 45.7737 58.8965 44.5123 58.5218 43.2471C58.34 42.6126 58.1879 41.9707 58.0728 41.3215C58.0135 40.9987 57.9652 40.6722 57.9207 40.3457L57.9059 40.2232C57.9022 40.1861 57.9022 40.201 57.8985 40.1824L57.8873 40.1342L57.8688 40.0451C57.8391 40.0451 57.802 40.0526 57.776 40.0526L57.7315 40.0563L57.7092 40.06H57.6981H57.6499L56.7446 40.0748C55.5128 40.0934 54.2735 40.0859 53.038 40.0859C49.1905 40.0859 45.3503 40.008 41.5102 39.9227C40.757 39.9041 39.989 39.8819 39.2469 39.9079C37.5291 39.9672 35.8186 39.9338 34.1045 39.867C32.0416 39.7854 29.9861 39.8299 27.9343 39.8782C27.4557 39.8893 26.9733 39.9227 26.5021 39.9041C23.2037 39.7891 19.9127 39.9116 16.6217 39.8485C13.9577 39.7965 11.3011 39.6852 8.64458 39.5888C6.5928 39.5034 4.54844 39.4144 2.49665 39.3291C2.36308 39.3216 2.22209 39.3365 2.08852 39.3291C0.923498 39.2697 0.552471 39.0471 1.10901 38.7169C1.60248 38.4238 2.37422 38.2605 3.42793 38.2753L6.9193 38.357L6.94898 38.3236Z" fill="black"/>
</svg>
