<svg width="178" height="189" viewBox="0 0 178 189" fill="none" xmlns="http://www.w3.org/2000/svg">
<path d="M147.291 55.6494C150.179 53.6609 149.564 45.5048 145.044 42.4877C143.055 41.1606 139.646 40.3809 137.548 42.1009C135.059 44.1372 135.797 48.5533 137.206 51.0831C139.404 55.0403 144.868 57.3183 147.291 55.6494Z" fill="#F1D1D5"/>
<path d="M149.22 54.4745C149.367 53.8544 149.446 53.2525 149.379 52.6646C149.325 52.1426 149.213 51.6607 149.382 51.1651C149.429 51.0354 149.39 50.8924 149.39 50.7577L149.365 50.0199C149.368 49.9108 149.447 49.7802 149.404 49.6789C149.193 49.1851 149.061 48.7082 149.111 48.1691C148.805 47.831 148.852 47.4193 148.785 47.0152C148.72 46.6057 148.521 46.2451 148.51 45.8062C148.51 45.6897 148.462 45.5682 148.388 45.4861C147.926 44.9742 147.644 44.3874 147.269 43.8217C146.87 43.2224 146.292 42.7237 145.605 42.4602C145.237 42.326 144.922 42.1004 144.588 41.9234C144.198 41.7012 143.804 41.4716 143.38 41.292C142.766 41.0434 142.148 40.8238 141.49 40.5957C140.613 40.2813 139.61 40.1599 138.574 40.3633C138.052 40.4848 137.558 40.7819 137.143 41.145C136.292 41.8504 135.745 42.8448 135.484 43.8092C135.272 44.5402 135.16 45.265 135.111 45.9879C135.061 46.6616 135.039 47.3398 135.12 48.0064C135.243 48.9944 135.49 49.9606 135.857 50.9028C136.219 51.8558 136.785 52.7546 137.415 53.5606C137.719 53.9533 138.034 54.3317 138.375 54.689C138.548 54.8687 138.746 55.0145 138.942 55.1656C139.681 55.7054 140.471 56.1592 141.301 56.536C142.491 57.0686 143.761 57.5143 145.223 57.5033C146.043 57.5031 146.907 57.3348 147.844 56.9666C148.114 56.8633 148.108 56.7139 147.873 56.5361C147.469 56.217 147.108 55.8464 146.737 55.723C146.464 55.5987 146.282 55.5262 146.069 55.6384C145.909 55.7084 145.732 55.7234 145.556 55.7202C145.374 55.715 145.2 55.7374 145.02 55.8796C144.969 55.9164 144.892 55.8942 144.834 55.8671C143.811 55.4502 142.768 55.2712 141.756 54.8037C141.433 54.6489 141.148 54.4224 140.858 54.2121C140.671 54.0703 140.478 53.9447 140.287 53.8136C140.027 53.6024 139.715 53.4515 139.491 53.1922C139.322 53.0017 139.199 52.7853 138.842 52.8078C138.767 52.8112 138.684 52.7015 138.701 52.6219C138.779 52.3074 138.603 52.1877 138.48 52.0204C138.114 51.5987 137.768 51.1539 137.509 50.6551C137.312 50.2892 137.191 49.8835 137.108 49.4735C136.98 48.8329 136.959 48.1881 136.947 47.5653C136.948 47.0449 136.902 46.5322 136.965 46.0408C136.976 45.9283 137.03 45.8134 137.051 45.7048C137.083 45.5019 137.152 45.2945 137.105 45.1057C137.038 44.8855 137.054 44.7076 137.332 44.6008C137.483 44.5396 137.51 44.3839 137.546 44.2684C137.579 44.1093 137.554 43.9284 137.57 43.7505C137.56 43.5263 137.595 43.3126 137.858 43.2619C137.987 43.2291 138.066 43.1113 138.105 42.9723C138.326 42.3853 138.942 42.0899 139.558 42.0456C140.407 41.9697 141.274 42.1765 142.086 42.4854C142.401 42.6126 142.724 42.7183 143.035 42.8564C144.007 43.2972 144.856 43.7728 145.611 44.5205C145.76 44.6667 145.914 44.8149 145.996 45.0101C146.187 45.4596 146.445 45.8419 146.742 46.238C147.094 46.7157 147.224 47.3145 147.296 47.9044C147.312 48.045 147.297 48.1865 147.35 48.31C147.715 49.1903 147.609 50.1682 147.646 51.0701C147.678 51.8044 147.721 52.5427 147.612 53.2438C147.524 53.7691 147.401 54.3061 147.135 54.7171C147.119 54.7421 147.079 54.7518 147.062 54.7823C146.923 54.9949 147.004 55.3611 147.446 55.6759C147.84 55.9546 148.292 55.9421 148.551 55.6019C148.843 55.2372 149.03 54.8276 149.176 54.4277L149.22 54.4745Z" fill="#F8AFB8"/>
<path d="M158 67.3513C159.75 65.2102 157.675 60.8634 155.322 58.5887C153.538 56.8653 150.094 54.878 148.147 56.1145C145.819 57.5913 145.9 63.4882 149.077 66.4433C151.641 68.8314 156.329 69.3928 158 67.3513Z" fill="#F1D1D5"/>
<path d="M159.439 65.88C159.411 65.588 159.379 65.3068 159.305 65.0408C159.251 64.77 159.145 64.5231 159.028 64.2904C158.809 63.8674 158.558 63.5127 158.565 63.0433C158.574 62.918 158.489 62.8137 158.449 62.707L158.211 62.0996C158.177 62.0077 158.221 61.8707 158.149 61.8012C157.807 61.4621 157.562 61.1093 157.467 60.6334C157.104 60.452 157.035 60.0897 156.886 59.7597C156.722 59.4365 156.473 59.1801 156.358 58.8074C156.328 58.7046 156.271 58.6102 156.185 58.5604C155.651 58.2613 155.278 57.8247 154.849 57.4231C154.393 56.9933 153.838 56.6863 153.207 56.5536C152.872 56.4804 152.58 56.3246 152.278 56.1777C151.923 56.011 151.577 55.7992 151.197 55.6664C150.644 55.4704 150.089 55.2799 149.438 55.1521C149.222 55.1041 148.986 55.0974 148.75 55.0906C148.512 55.1202 148.261 55.1203 148.013 55.2134C147.888 55.2535 147.763 55.2936 147.641 55.3411L147.301 55.5352C147.064 55.6631 146.874 55.8323 146.692 56.011C146.493 56.1891 146.37 56.4076 146.26 56.6247C146.137 56.8432 146.078 57.0726 146.008 57.2981C145.737 58.1912 145.717 59.066 145.73 59.9035C145.757 60.5321 145.774 61.1568 145.845 61.7831C145.909 62.3636 145.961 62.9584 146.125 63.5327C146.344 64.3906 146.728 65.2169 147.208 65.9986C147.681 66.7837 148.346 67.4924 149.074 68.0828C149.422 68.3694 149.782 68.6417 150.161 68.8782C150.353 68.991 150.556 69.0896 150.762 69.1774C151.535 69.4779 152.337 69.661 153.147 69.7915C154.313 69.9539 155.534 70.0143 156.794 69.5989C157.507 69.3754 158.201 68.9675 158.904 68.4344C159.107 68.2818 159.058 68.1476 158.786 68.0361C158.322 67.83 157.879 67.5698 157.512 67.5338C157.24 67.4897 157.057 67.4535 156.92 67.6116C156.808 67.7176 156.664 67.7753 156.519 67.8203C156.369 67.8634 156.239 67.9325 156.125 68.1112C156.095 68.1613 156.027 68.1612 155.969 68.1522C155.008 68.0338 154.105 68.1754 153.147 68.0152C152.841 67.9647 152.55 67.8399 152.262 67.7225C152.069 67.6642 151.887 67.5735 151.696 67.5098C151.417 67.4199 151.141 67.3192 150.887 67.1773C150.701 67.0483 150.57 66.8716 150.246 67.0043C150.181 67.0298 150.089 66.9471 150.093 66.8689C150.115 66.5583 149.949 66.4917 149.805 66.3839C149.418 66.1017 149.043 65.7871 148.741 65.4072C148.634 65.264 148.536 65.112 148.439 64.96C148.356 64.8011 148.29 64.63 148.222 64.4642C148.022 63.9381 147.951 63.3791 147.859 62.8433C147.789 62.3955 147.693 61.9559 147.671 61.5131C147.665 61.4128 147.699 61.3028 147.698 61.2045C147.692 61.0187 147.734 60.8197 147.625 60.6509C147.521 60.466 147.494 60.3033 147.723 60.1297C147.844 60.033 147.845 59.8801 147.828 59.7577C147.813 59.599 147.721 59.4308 147.666 59.2636C147.597 59.0669 147.503 58.8549 147.726 58.6975C147.846 58.619 147.829 58.4656 147.798 58.3319C147.691 57.7538 147.993 57.2274 148.368 56.9906C148.624 56.8268 148.885 56.7815 149.162 56.7785C149.451 56.7922 149.76 56.8683 150.079 56.9666C150.209 57.014 150.333 57.0594 150.467 57.096L150.867 57.2421C151.694 57.5932 152.575 58.0133 153.41 58.5267C153.575 58.6297 153.747 58.7292 153.861 58.8872C154.125 59.2532 154.44 59.5152 154.789 59.7654C155.213 60.0796 155.475 60.5547 155.677 61.0391C155.727 61.1552 155.749 61.2796 155.832 61.3711C156.398 62.0006 156.57 62.8535 156.872 63.5701C157.124 64.1524 157.383 64.7185 157.5 65.2878C157.58 65.7214 157.628 66.1431 157.527 66.5534C157.517 66.5804 157.484 66.5867 157.475 66.6137C157.421 66.8269 157.621 67.1511 158.107 67.347C158.328 67.4279 158.535 67.4484 158.713 67.3971C158.801 67.3741 158.884 67.331 158.959 67.2785C159.017 67.2201 159.07 67.1415 159.102 67.0551C159.18 66.8571 159.253 66.6572 159.277 66.4577C159.306 66.2602 159.35 66.0558 159.341 65.8626L159.439 65.88Z" fill="#F8AFB8"/>
<path d="M133.898 74.2875C133.898 74.2875 125.928 72.5513 123.302 69.8648C121.3 67.8167 119.426 63.8615 121.269 60.6947C122.562 58.4786 125.493 56.8116 127.723 57.6141C136.664 60.8503 133.898 74.2875 133.898 74.2875Z" fill="#F1D1D5"/>
<path d="M132.066 72.9683C131.476 72.9242 130.896 72.8348 130.296 72.8177C129.762 72.8061 129.233 72.7782 128.789 72.4507C128.673 72.3655 128.526 72.3486 128.393 72.2938C128.152 72.1996 127.907 72.1161 127.679 72.0023C127.575 71.952 127.497 71.8133 127.384 71.8028C126.829 71.7469 126.319 71.5667 125.927 71.1661C125.449 71.1816 125.174 70.8297 124.861 70.5624C124.699 70.4358 124.546 70.3005 124.392 70.1705C124.312 70.1045 124.239 70.0351 124.174 69.9622C124.113 69.8786 124.064 69.7935 124.019 69.6976C123.977 69.5963 123.905 69.5087 123.804 69.4658C123.222 69.1489 122.858 68.5689 122.545 68.0013C122.207 67.382 121.836 66.8054 121.396 66.2159C121.163 65.8981 121.047 65.5126 120.965 65.1336C120.906 64.9098 120.9 64.6749 120.874 64.4448L120.862 63.7548C120.865 63.0943 121.029 62.4438 121.366 61.9056C121.829 61.1927 122.393 60.621 123.046 60.1428C123.364 59.8916 123.64 59.5883 123.957 59.3244C124.592 58.8093 125.327 58.3735 126.108 58.2302C126.399 58.1893 126.694 58.1686 126.971 58.233C127.25 58.2737 127.487 58.3787 127.805 58.5316C128.371 58.7752 128.846 59.1691 129.314 59.5301C130.693 60.6341 131.615 62.1836 132.121 63.8996C132.241 64.3107 132.316 64.7423 132.385 65.172C132.43 65.3844 132.468 65.6002 132.52 65.8091C132.711 66.5953 132.86 67.4094 132.926 68.2357C133.025 69.4233 132.988 70.6288 132.91 71.8313C132.866 72.507 132.818 73.2063 132.55 73.8247C132.474 73.999 132.596 74.0498 132.876 74.0542C133.366 74.0373 133.88 74.0228 134.216 73.723C134.444 73.5184 134.621 73.3196 134.584 73.0183C134.534 72.5838 134.796 72.1526 134.539 71.7158C134.506 71.6548 134.52 71.5679 134.543 71.503C134.955 70.2754 134.777 68.9855 134.634 67.733C134.588 67.324 134.594 66.9039 134.55 66.4895C134.519 66.2211 134.471 65.9522 134.42 65.6887C134.327 65.3057 134.207 64.931 134.121 64.5446C134.068 64.2555 134.064 63.9478 133.713 63.7831C133.64 63.7501 133.61 63.5982 133.655 63.523C133.825 63.2422 133.712 63.0169 133.618 62.7868C133.337 62.1818 133.008 61.59 132.644 61.0282C132.513 60.8152 132.388 60.6042 132.245 60.3926C132.115 60.1796 131.979 59.9647 131.834 59.7585C131.407 59.1003 130.894 58.4596 130.281 57.9234C130.016 57.7102 129.747 57.4896 129.446 57.3245C129.157 57.1452 128.858 56.9747 128.543 56.8292C128.403 56.7597 128.279 56.647 128.132 56.5809C127.82 56.461 127.463 56.2998 127.13 56.3558C126.766 56.4127 126.517 56.4256 126.182 56.2177C125.993 56.0994 125.697 56.1383 125.475 56.2102C125.18 56.2801 124.931 56.4586 124.69 56.6155C124.411 56.8259 124.183 57.0305 123.801 57.0196C123.585 57.008 123.394 57.1954 123.24 57.3476C122.598 58.0499 121.934 58.5915 121.277 59.2333C120.408 60.0857 119.645 61.2523 119.375 62.5622C119.257 63.0702 119.236 63.5955 119.253 64.1037C119.274 64.9014 119.452 65.6709 119.712 66.3844C119.97 67.1033 120.318 67.7757 120.728 68.3971C120.881 68.6489 121.067 68.8763 121.184 69.1453C121.461 69.7611 121.91 70.2743 122.438 70.7062C123.142 71.2449 123.74 71.7879 124.368 72.2627C124.514 72.3833 124.649 72.5182 124.816 72.5794C125.977 73.0402 126.991 73.717 128.133 74.079C129.056 74.3674 130.009 74.5256 130.946 74.6779C131.676 74.7916 132.409 74.8635 133.137 74.9334C133.184 74.9384 133.227 74.9723 133.276 74.9719C133.701 74.9986 133.904 74.6932 133.824 74.1431C133.763 73.6555 133.566 73.3387 133.216 73.2595C132.825 73.1719 132.432 73.1079 132.037 73.0312L132.066 72.9683Z" fill="#F8AFB8"/>
<path d="M134.083 75.3224C131.122 75.3798 128.276 81.2605 128.814 86.1731C128.863 86.6258 129.506 91.9564 132.569 92.7081C135.316 93.387 138.613 90.0289 139.572 86.7841C141.083 81.6588 137.204 75.2623 134.083 75.3224Z" fill="#F1D1D5"/>
<path d="M131.795 75.3928C131.583 75.6397 131.374 75.8758 131.217 76.137C131.039 76.3903 130.906 76.654 130.798 76.933C130.696 77.1776 130.62 77.4193 130.517 77.6511C130.416 77.8776 130.279 78.0848 130.095 78.2688C130 78.3625 129.965 78.5089 129.898 78.6253C129.775 78.8438 129.69 79.0762 129.575 79.2912C129.521 79.388 129.384 79.4605 129.374 79.5731C129.345 80.12 129.208 80.5966 128.91 81.0448C128.999 81.4878 128.776 81.829 128.618 82.2121C128.478 82.5958 128.46 83.012 128.242 83.3916C128.186 83.4937 128.159 83.6185 128.182 83.7247C128.241 84.0649 128.245 84.3908 128.251 84.724C128.24 85.0567 128.218 85.3855 128.223 85.7241C128.197 86.4495 128.399 87.1541 128.745 87.7827C128.935 88.1157 129.032 88.4879 129.138 88.8513C129.277 89.2756 129.375 89.728 129.55 90.1533C129.802 90.772 130.091 91.3735 130.448 92.0061L130.637 92.3264L130.878 92.6226C131.034 92.8327 131.242 93.0006 131.461 93.1724C131.895 93.5088 132.446 93.7283 133.016 93.8447C133.594 93.9213 134.187 93.7889 134.685 93.5847C135.704 93.1916 136.48 92.5441 137.176 91.8797C137.692 91.3703 138.194 90.8678 138.649 90.3112C139.064 89.7952 139.515 89.2804 139.844 88.6837C140.34 87.8116 140.743 86.8258 140.934 85.7994C141.136 84.7769 141.168 83.735 141.077 82.7097C141.029 82.2206 140.996 81.7247 140.897 81.2414C140.851 80.998 140.778 80.763 140.699 80.526C140.396 79.662 139.977 78.8475 139.517 78.0609C138.841 76.9442 138.052 75.8535 136.873 75.0063C136.193 74.5374 135.412 74.1421 134.378 73.9051C134.082 73.8456 133.99 73.9777 134.097 74.2556C134.269 74.7409 134.364 75.235 134.591 75.569C134.75 75.8047 134.846 75.9931 135.088 76.02C135.454 76.0741 135.638 76.4597 136.089 76.4471C136.157 76.4472 136.202 76.5068 136.239 76.5569C136.838 77.4985 137.595 78.259 138.159 79.2305C138.339 79.5414 138.449 79.894 138.571 80.2323L138.814 80.8907C138.936 81.2109 139.078 81.5261 139.139 81.8609C139.181 82.1151 139.15 82.3672 139.464 82.549C139.53 82.5855 139.541 82.7241 139.483 82.7825C139.254 83.0053 139.305 83.2015 139.339 83.4099C139.416 83.9708 139.465 84.54 139.413 85.1026C139.377 85.5184 139.266 85.9247 139.107 86.3078C138.861 86.8977 138.491 87.424 138.122 87.9321C137.824 88.3622 137.522 88.7849 137.184 89.1756C137.103 89.2624 136.985 89.3173 136.91 89.4062C136.774 89.577 136.561 89.6892 136.5 89.9059C136.426 90.1422 136.299 90.2732 136.001 90.2501C135.834 90.2381 135.707 90.3509 135.611 90.4628C135.49 90.6086 135.398 90.7771 135.302 90.9563C135.19 91.1788 135.056 91.3624 134.775 91.327C134.624 91.3027 134.507 91.4067 134.401 91.5275C133.96 92.0153 133.288 92.0944 132.791 91.8946C132.109 91.6149 131.658 90.9906 131.317 90.2293C131.187 89.9307 131.041 89.6263 130.92 89.3061C130.557 88.304 130.207 87.1838 129.987 86.0929C129.953 85.8845 129.919 85.6579 129.954 85.4441C129.983 85.1975 130.025 84.9493 130.025 84.6982C130.017 84.4505 130.01 84.2027 129.993 83.9457C129.964 83.6409 130.002 83.3363 130.079 83.04C130.144 82.7452 130.256 82.4554 130.377 82.175C130.432 82.0419 130.513 81.9186 130.532 81.7845C130.649 80.8106 131.226 79.9862 131.615 79.1548C131.94 78.4834 132.23 77.7746 132.653 77.2189C132.978 76.7987 133.324 76.4046 133.742 76.1836C133.769 76.1753 133.805 76.1945 133.829 76.1788C134.04 76.072 134.179 75.7065 133.986 75.2133C133.894 74.9959 133.753 74.8281 133.574 74.732C133.388 74.6211 133.186 74.6208 132.983 74.706L132.65 74.8475C132.545 74.9009 132.457 74.9731 132.361 75.0358C132.173 75.1633 131.98 75.2889 131.832 75.443L131.795 75.3928Z" fill="#F8AFB8"/>
<path d="M113.311 82.2356C113.311 82.2356 107.126 78.3774 105.334 74.7157C103.673 71.3161 102.223 65.8806 104.884 63.8947C107.416 62.0088 112.604 64.0022 114.894 67.4416C119.216 73.9327 113.311 82.2356 113.311 82.2356Z" fill="#F1D1D5"/>
<path d="M112.002 80.3351C111.453 80.0792 110.932 79.7786 110.364 79.5403C109.862 79.3204 109.361 79.1004 109.065 78.6188C108.987 78.4983 108.849 78.4234 108.744 78.3239C108.555 78.1384 108.354 77.967 108.179 77.7746C108.102 77.685 108.081 77.5243 107.979 77.4686C107.477 77.1995 107.071 76.8185 106.862 76.2829C106.416 76.0955 106.296 75.6535 106.123 75.2718C105.967 74.8779 105.718 74.5542 105.698 74.0877C105.693 73.9693 105.653 73.8444 105.58 73.7568C105.139 73.2037 104.944 72.532 104.772 71.8629C104.594 71.1426 104.335 70.46 103.996 69.7788C103.804 69.4148 103.76 69.0004 103.709 68.6023C103.663 68.126 103.706 67.6395 103.746 67.1766C103.793 66.4954 104.016 65.8357 104.417 65.3576C104.967 64.7255 105.606 64.4325 106.322 64.3692C106.681 64.3413 107.047 64.2116 107.462 64.1979C108.277 64.1466 109.18 64.2561 110.031 64.5606C110.674 64.7773 111.272 65.1366 111.815 65.5433C112.334 65.9167 112.742 66.4087 113.157 66.8664C113.306 67.0436 113.436 67.2256 113.58 67.4008C113.715 67.5848 113.828 67.7792 113.952 67.9592C114.168 68.3567 114.353 68.7732 114.552 69.1647C114.669 69.5994 114.843 70.012 114.929 70.4476L115.038 71.1058C115.053 71.2154 115.075 71.3216 115.09 71.4313L115.1 71.7719L115.104 72.4162C115.105 72.631 115.055 72.8516 115.04 73.0604C115.016 73.2781 115.024 73.4895 115.013 73.7057C114.968 74.1121 114.962 74.5141 114.892 74.9234C114.811 75.3288 114.776 75.7445 114.648 76.1449C114.358 77.3068 113.889 78.4399 113.359 79.5385C113.054 80.1558 112.741 80.7948 112.247 81.2575C112.109 81.3846 112.203 81.48 112.454 81.5964C112.906 81.7858 113.385 81.9669 113.813 81.8172C114.107 81.7164 114.354 81.5924 114.439 81.2927C114.566 80.8614 114.984 80.5549 114.912 80.0323C114.901 79.9611 114.953 79.8879 114.998 79.831C115.852 78.8016 116.155 77.4854 116.438 76.2233C116.512 75.8032 116.66 75.3979 116.749 74.9709C116.795 74.6938 116.828 74.4181 116.856 74.1405C116.912 73.7381 116.843 73.3212 116.886 72.9202C116.899 72.7659 116.929 72.6175 116.917 72.4661C116.892 72.3162 116.832 72.178 116.678 72.048C116.612 71.9934 116.615 71.8351 116.675 71.7713C116.909 71.5323 116.876 71.2693 116.814 71.02L116.552 70.0116C116.472 69.6763 116.305 69.364 116.192 69.035C116.093 68.8029 116.043 68.5394 115.924 68.3121C115.812 68.0815 115.715 67.8439 115.613 67.6044C115.339 66.8432 114.907 66.1156 114.4 65.4588C114.178 65.194 113.944 64.9307 113.684 64.7013C113.435 64.463 113.166 64.2424 112.89 64.0253C112.762 63.9234 112.668 63.7787 112.532 63.6984C112.283 63.5403 112.05 63.3079 111.758 63.2687C111.432 63.223 111.222 63.1278 111.047 62.8007C110.949 62.6177 110.698 62.5323 110.494 62.4701C110.227 62.3969 109.933 62.4122 109.659 62.4098C109.324 62.4221 109.016 62.4752 108.709 62.228C108.537 62.1103 108.267 62.1281 108.052 62.1656C107.092 62.3602 106.159 62.3991 105.18 62.7333C103.832 63.1535 102.716 64.4974 102.369 65.816C102.209 66.3392 102.154 66.8581 102.119 67.3721C102.047 68.9625 102.418 70.4271 102.91 71.7952C103.006 72.0691 103.117 72.3361 103.162 72.6158C103.252 73.2736 103.526 73.8638 103.86 74.4265C103.957 74.5967 104.054 74.7669 104.144 74.9405C104.222 75.1102 104.308 75.2946 104.408 75.4904L104.679 76.0732L104.967 76.6256C105.055 76.8046 105.128 76.9905 105.259 77.118C106.166 78.0556 106.882 79.0952 107.842 79.887C108.614 80.5241 109.477 81.0292 110.325 81.5229C110.982 81.9038 111.662 82.2381 112.35 82.5689C112.397 82.5921 112.423 82.6383 112.471 82.6561C112.872 82.8331 113.173 82.6124 113.28 82.0695C113.383 81.5865 113.302 81.2202 112.995 81.0222L111.948 80.3827L112.002 80.3351Z" fill="#F8AFB8"/>
<path d="M118.009 82.8866C118.009 82.8866 106.692 81.7592 103.416 88.5794C101.961 91.6062 102.518 96.1335 104.689 97.1473C107.333 98.3765 111.618 94.9628 112.542 93.9592C114.89 91.4056 118.009 82.8866 118.009 82.8866Z" fill="#F1D1D5"/>
<path d="M115.947 81.9924C115.357 82.1139 114.768 82.2172 114.209 82.4233C113.705 82.6127 113.23 82.8066 112.692 82.7203C112.554 82.6945 112.411 82.7523 112.274 82.7757L111.513 82.8959C111.396 82.9144 111.253 82.8375 111.158 82.8949C110.666 83.1684 110.172 83.3308 109.604 83.3255C109.269 83.6563 108.835 83.6384 108.414 83.7356C107.989 83.8254 107.618 84.0514 107.16 84.0984C107.04 84.1095 106.913 84.155 106.827 84.2399C106.305 84.7473 105.702 85.0722 105.124 85.4979C104.516 85.9556 104.021 86.5893 103.767 87.3173C103.707 87.5158 103.611 87.695 103.52 87.8762C103.435 88.0594 103.339 88.2387 103.242 88.4179L102.92 89.0657C102.826 89.2887 102.727 89.5097 102.65 89.7386C102.436 90.4077 102.271 91.0763 102.066 91.7729C101.804 92.7063 101.706 93.7118 101.844 94.7421C101.902 95.2715 102.179 95.7708 102.462 96.2538C102.778 96.7305 103.132 97.2029 103.666 97.5512C104.185 97.9063 104.8 98.1186 105.372 98.1622C106.239 98.2525 107.04 98.1225 107.79 97.931C108.485 97.7379 109.163 97.5261 109.799 97.2258C110.731 96.7701 111.6 96.2362 112.436 95.6232C112.643 95.4598 112.851 95.3092 113.058 95.1277C113.269 94.9536 113.497 94.7307 113.671 94.5246C113.864 94.3135 114.05 94.106 114.202 93.8919C114.364 93.6818 114.534 93.4682 114.673 93.2556C114.963 92.8472 115.258 92.4589 115.519 92.0459C115.654 91.8442 115.764 91.6271 115.867 91.4134C116.265 90.6095 116.592 89.7981 116.951 88.9985C117.457 87.8482 117.954 86.7068 118.404 85.5422C118.658 84.8815 118.877 84.2144 119.271 83.6051C119.383 83.4318 119.283 83.3215 118.998 83.297C118.504 83.2574 118.002 83.1721 117.619 83.3814C117.359 83.525 117.142 83.6662 117.112 83.9493C117.058 84.3645 116.698 84.68 116.812 85.1564C116.83 85.2243 116.786 85.294 116.741 85.3509C115.985 86.3303 115.675 87.497 115.203 88.6046C115.052 88.9661 114.834 89.2965 114.647 89.6388L114.302 90.3151C114.14 90.6417 114.017 90.9948 113.814 91.3002C113.661 91.5325 113.458 91.7214 113.568 92.0739C113.589 92.1492 113.504 92.265 113.417 92.2698C113.094 92.2988 113.006 92.5056 112.879 92.6858C112.719 92.9396 112.564 93.1955 112.383 93.4232C112.214 93.6677 112.024 93.8679 111.798 94.0671C111.466 94.3561 111.091 94.6111 110.69 94.8199C110.073 95.1517 109.422 95.3915 108.795 95.6339C108.27 95.8282 107.764 96.0412 107.258 96.1505C107.143 96.1818 107.015 96.1472 106.901 96.1731C106.692 96.2254 106.482 96.1793 106.31 96.3C106.122 96.4275 105.949 96.4316 105.797 96.2107C105.723 96.0612 105.601 96.0595 105.494 96.0692C105.389 96.0371 105.21 96.1248 105.077 96.1192C104.905 96.1543 104.688 96.1117 104.681 95.864C104.687 95.7131 104.546 95.6618 104.423 95.58C103.865 95.2474 103.623 94.5162 103.581 93.8271C103.514 92.8716 103.662 91.8967 103.933 91.0036C104.03 90.6534 104.128 90.3031 104.248 89.9735C104.617 88.9631 105.152 88.0011 105.893 87.1633C106.049 87.0057 106.183 86.8221 106.393 86.7335C106.848 86.4953 107.256 86.2158 107.661 85.8798C108.163 85.4937 108.791 85.3187 109.416 85.1983C109.566 85.1734 109.725 85.1761 109.852 85.1124C110.785 84.6696 111.861 84.6766 112.876 84.4781C113.705 84.3216 114.541 84.1125 115.402 83.9678C116.061 83.8592 116.736 83.7384 117.404 83.6701C117.447 83.6677 117.494 83.6908 117.534 83.6811C117.909 83.6281 118.058 83.303 117.928 82.7715C117.799 82.3019 117.536 82.016 117.165 82.009C116.758 82.0011 116.353 82.0368 115.948 82.0725L115.947 81.9924Z" fill="#F8AFB8"/>
<path d="M92.6236 75.124C90.5287 73.348 84.9907 75.3301 82.7191 79.1671C80.6979 82.5872 81.0596 87.8332 83.4719 89.0086C85.841 90.1681 89.6364 87.139 91.4555 84.4229C93.383 81.5443 94.5747 76.7739 92.6236 75.124Z" fill="#F1D1D5"/>
<path d="M91.0043 73.6695L90.5515 73.7184C90.407 73.7452 90.2639 73.7848 90.1248 73.8136C89.8391 73.8746 89.5741 73.9799 89.3213 74.1019C89.0946 74.2028 88.885 74.3406 88.6676 74.4326C88.4468 74.5173 88.2299 74.5912 87.9788 74.5913C87.8495 74.5931 87.7344 74.6735 87.6095 74.7136C87.3921 74.8057 87.1802 74.8997 86.9614 74.979C86.8586 75.0089 86.7156 74.9811 86.6462 75.0538C86.2756 75.4144 85.909 75.697 85.3942 75.8151C85.2186 76.2287 84.8145 76.2954 84.483 76.4989C84.3182 76.5979 84.1691 76.721 84.0038 76.8382C83.8493 76.9594 83.6948 77.0806 83.5015 77.1569C83.4002 77.1995 83.2998 77.2731 83.2515 77.3718C83.1154 77.6773 82.9405 77.938 82.746 78.1854C82.5746 78.4535 82.3639 78.695 82.1816 78.9591C81.8067 79.5326 81.5639 80.1972 81.5678 80.8907C81.552 81.2524 81.4762 81.6106 81.3882 81.952C81.309 82.3702 81.1717 82.7793 81.1195 83.2073C81.0345 83.8255 80.9697 84.4388 80.8674 85.0874C80.73 85.9497 80.7527 86.8766 81.0481 87.8114C81.1195 88.0518 81.2642 88.2762 81.4 88.4911C81.5613 88.7032 81.7448 88.905 81.9377 89.0979C82.3495 89.4628 82.8405 89.7952 83.4025 89.9332C83.9527 90.1036 84.5012 90.0774 85.0031 90.028C85.7543 89.9166 86.425 89.6901 87.0604 89.4261C87.6589 89.1793 88.2309 88.9045 88.7681 88.5741C90.3261 87.5448 91.6801 86.2695 92.7898 84.6906C93.0499 84.314 93.3262 83.9434 93.5504 83.5476C93.6652 83.3507 93.7658 83.1425 93.8482 82.9337C94.1654 82.1493 94.3996 81.3407 94.5871 80.5089C94.8592 79.3283 95.0478 78.0743 94.8234 76.6939C94.6692 75.9088 94.3491 75.0753 93.7502 74.2501C93.5786 74.0159 93.4301 74.0535 93.3221 74.3325C93.1174 74.809 92.8611 75.2421 92.8011 75.6244C92.7402 75.9083 92.71 76.0749 92.8414 76.2515C92.9508 76.3711 92.9825 76.5358 93.0068 76.704C93.0459 76.8652 93.0943 77.0176 93.2519 77.1732C93.298 77.2145 93.296 77.2873 93.2816 77.3433C93.0452 78.3593 93.0436 79.3693 92.8086 80.3981C92.7245 80.7287 92.5791 81.043 92.4464 81.3559L92.2032 81.9714C92.0872 82.272 91.9963 82.5878 91.8337 82.8653C91.7184 83.0804 91.5157 83.2329 91.6572 83.5663C91.6861 83.6381 91.6102 83.7452 91.5301 83.7465C91.2131 83.7593 91.1352 83.9391 91.0356 84.1109C90.7499 84.5578 90.4636 85.0228 90.0974 85.4218C89.834 85.7236 89.5244 85.9842 89.1958 86.2132C88.6885 86.579 88.1205 86.8431 87.5956 87.1229C87.149 87.3395 86.7284 87.6023 86.2873 87.7535C86.186 87.7961 86.0715 87.791 85.9688 87.8208C85.7888 87.8776 85.5843 87.9008 85.4534 88.0245C85.3766 88.1006 85.3023 88.153 85.2237 88.1672C85.1435 88.1685 85.061 88.1261 84.9639 88.0232C84.9109 87.9671 84.8569 87.9474 84.7969 87.9439C84.7463 87.9315 84.6932 87.9427 84.6475 87.9505C84.5206 87.996 84.406 88.0583 84.2766 88.1274C84.1915 88.1759 84.1143 88.2028 84.0455 88.1899C83.9768 88.1771 83.8972 88.1602 83.8826 88.0324C83.8646 87.8972 83.7422 87.9138 83.6263 87.8959C83.0931 87.8297 82.7455 87.2556 82.6349 86.6701C82.4503 85.8677 82.5008 84.992 82.6156 84.1582C82.6741 83.8304 82.6834 83.5031 82.7473 83.1774C82.9199 82.1686 83.1126 81.155 83.4959 80.2233C83.5792 80.0455 83.6395 79.847 83.7871 79.7111C83.9662 79.556 84.0948 79.3886 84.2184 79.2011C84.3563 79.0248 84.4745 78.8353 84.5839 78.6365C84.7361 78.4042 84.9257 78.204 85.1417 78.0318C85.37 77.8763 85.5983 77.7209 85.8511 77.5989C85.9691 77.544 86.1028 77.5133 86.1909 77.423C86.8347 76.8008 87.7325 76.5898 88.5061 76.2661C89.1361 76.0002 89.7739 75.7127 90.4126 75.5908C90.8973 75.5045 91.3829 75.4492 91.8168 75.5526C91.8438 75.5624 91.8555 75.5973 91.8771 75.6052C92.0904 75.6586 92.4342 75.4719 92.6192 74.9822C92.7826 74.5519 92.6594 74.0843 92.2591 73.9564L91.9383 73.8454C91.8317 73.8187 91.7265 73.8047 91.616 73.7888C91.4003 73.759 91.1865 73.7238 90.986 73.7363L91.0043 73.6695Z" fill="#F8AFB8"/>
<path d="M88.2894 70.7103C88.2894 70.7103 75.6922 55.537 83.5764 51.3743C86.2925 49.9414 90.612 52.2667 92.5723 55.3163C94.8185 58.8073 94.5093 64.0288 91.622 66.5506C91.2972 66.8361 88.2894 70.7103 88.2894 70.7103Z" fill="#F1D1D5"/>
<path d="M87.6186 68.4879C87.17 68.0729 86.7515 67.626 86.2807 67.2213C85.8596 66.8653 85.4404 66.5039 85.285 65.9572C85.2454 65.8141 85.132 65.7053 85.0555 65.5793C84.9182 65.3516 84.7756 65.1218 84.6477 64.8852C84.5889 64.778 84.6097 64.6203 84.5229 64.5395C84.1047 64.1418 83.7904 63.6779 83.6812 63.1051C83.2869 62.8264 83.2272 62.3697 83.1064 61.9459C82.9709 61.5289 82.7636 61.1408 82.7456 60.6871C82.7473 60.5652 82.7126 60.4423 82.6444 60.3439C82.2093 59.7746 82.058 59.0824 81.917 58.4123C81.7903 57.6862 81.5825 56.9978 81.3481 56.2814C81.2298 55.9013 81.2181 55.4805 81.2875 55.0894C81.3054 54.9735 81.3179 54.8555 81.3431 54.7362L81.4527 54.4026C81.5175 54.1752 81.6234 53.9689 81.724 53.7607C82.0193 53.1704 82.4673 52.6481 83.0806 52.3945C83.2601 52.2886 83.4819 52.2348 83.6805 52.1604C83.7779 52.1286 83.8812 52.0806 83.9746 52.0596L84.2563 52.0094C84.4343 51.9581 84.6372 51.9894 84.8127 51.9616C85.0034 51.9762 85.1872 51.976 85.3774 52.0087C85.7577 52.0741 86.1647 52.033 86.5828 52.1122C87.4181 52.2398 88.2945 52.5233 89.0895 52.9791C89.6836 53.3309 90.2167 53.7829 90.6848 54.2785C91.1171 54.7549 91.4436 55.3029 91.7524 55.8322C92.6425 57.4191 92.9684 59.3265 92.7431 61.0999C92.6854 61.5259 92.5718 61.9376 92.4439 62.3379C92.3944 62.5403 92.318 62.7329 92.2685 62.9353C92.062 63.6683 91.7581 64.3657 91.3105 64.9371C91.1642 65.1532 90.9684 65.3205 90.7902 65.5065C90.7976 65.503 90.5564 65.7273 90.5165 65.7862L90.3338 66.0012L90.0059 66.3958C89.5815 66.9206 89.1737 67.4331 88.7729 67.9603C88.3174 68.5533 87.8869 69.1616 87.3087 69.6546C87.1482 69.792 87.2046 69.9228 87.4708 70.0324C87.9295 70.2183 88.3927 70.4427 88.8361 70.3352C89.1385 70.2619 89.3903 70.1763 89.5219 69.8998C89.7063 69.4956 90.1677 69.2722 90.2024 68.7581C90.2098 68.6874 90.2753 68.6256 90.3294 68.578C90.8539 68.1816 91.2808 67.7007 91.6806 67.2098L91.9425 66.8952L92.2955 66.5158C92.5392 66.2679 92.7151 65.9709 92.9283 65.7058C93.0411 65.5143 93.1736 65.3361 93.3027 65.1505C93.4317 64.9649 93.5337 64.7694 93.6466 64.5779C93.7939 64.3255 93.8764 64.0495 93.9805 63.7813C94.0976 63.377 94.1857 62.9682 94.2772 62.5668C94.3622 62.2671 94.4998 61.9744 94.2413 61.6595C94.1902 61.598 94.2239 61.4388 94.2982 61.3863C94.5786 61.1887 94.5535 60.9222 94.5553 60.6657C94.5407 59.9683 94.4459 59.2722 94.3142 58.5933C94.2305 58.085 94.1339 57.5781 94.0266 57.0673C93.871 56.2694 93.6245 55.4689 93.2403 54.7099C92.9145 54.0764 92.4641 53.5322 92.0098 52.9987C91.9024 52.8737 91.821 52.7276 91.7096 52.6134C91.5011 52.3964 91.297 52.1504 91.016 52.0477C90.7174 51.9264 90.5037 51.8238 90.3976 51.4604C90.338 51.2549 90.1013 51.1317 89.9093 51.037C89.6652 50.9172 89.3772 50.8671 89.0982 50.8264C88.7704 50.7679 88.4539 50.7625 88.2077 50.4643C88.0723 50.2985 87.7961 50.2833 87.5798 50.2717C86.6082 50.2658 85.7012 50.0998 84.695 50.1548C84.524 50.1535 84.3519 50.1887 84.1819 50.2184C84.0098 50.2535 83.8348 50.2631 83.6637 50.3291L83.1474 50.5019C82.989 50.5665 82.8429 50.6479 82.6934 50.7219C82.5439 50.7958 82.3889 50.8678 82.2409 50.9546L81.8119 51.2572C81.5118 51.4415 81.2656 51.713 81.0072 51.9676C80.6257 52.3917 80.329 52.9019 80.1193 53.4255C79.7977 54.2389 79.6563 55.1121 79.6988 55.9176C79.6942 56.3324 79.7689 56.7149 79.8159 57.1057C79.8999 57.4794 79.9598 57.8687 80.0732 58.2286C80.1578 58.5168 80.2424 58.8049 80.2798 59.088C80.3516 59.7634 80.5959 60.3855 80.9125 60.9605C81.2874 61.661 81.5286 62.3922 81.7732 63.1308C81.8319 63.3053 81.8685 63.4902 81.968 63.6368C82.6555 64.6719 83.0715 65.8467 83.7708 66.8493C84.3373 67.6626 85.0041 68.4023 85.6694 69.1292C86.1812 69.6898 86.7284 70.2204 87.2829 70.7476C87.3183 70.785 87.3349 70.8401 87.3722 70.8721C87.7005 71.1636 88.0531 71.0535 88.3237 70.5644C88.5705 70.1402 88.6104 69.7628 88.373 69.4739C88.111 69.1516 87.8304 68.847 87.5664 68.53L87.6186 68.4879Z" fill="#F8AFB8"/>
<path d="M68.6446 62.556C68.6446 62.556 76.8053 64.0737 79.4442 68.7861C81.7318 72.8678 81.3839 78.9999 78.4688 80.3908C75.6958 81.7111 71.6253 78.1845 69.2438 74.8462C65.8769 70.1313 68.6446 62.556 68.6446 62.556Z" fill="#F1D1D5"/>
<path d="M70.4998 63.8817C71.0894 63.944 71.6741 64.0535 72.2786 64.109C72.8196 64.1536 73.3508 64.2251 73.7754 64.5885C73.8819 64.6825 74.0283 64.7176 74.1574 64.7832C74.3887 64.9044 74.6333 65.0061 74.8494 65.1524C74.9476 65.2189 75.0108 65.3644 75.1247 65.3877C75.6785 65.4981 76.1582 65.7775 76.5021 66.2278C76.96 66.3155 77.2209 66.6741 77.4622 67.0195C77.5902 67.1888 77.7389 67.335 77.8802 67.4846C78.0028 67.6519 78.1141 67.8334 78.1811 68.0355C78.2144 68.1456 78.2826 68.244 78.3754 68.3086C78.6296 68.5178 78.8332 68.7821 79.0112 69.0492C79.1572 69.3537 79.2998 69.6507 79.4035 69.9703C79.6388 70.6504 79.915 71.3025 80.2762 71.9735C80.4772 72.3286 80.5292 72.7395 80.5925 73.1363C80.6147 73.3771 80.6261 73.614 80.6302 73.8544L80.6134 74.5709C80.6163 74.915 80.5647 75.2574 80.515 75.5945C80.431 75.9251 80.3685 76.2637 80.2142 76.5687C79.8576 77.3938 79.4083 78.1544 78.8914 78.6638C78.7571 78.7801 78.6615 78.9411 78.5365 79.0486C78.4784 79.107 78.4238 79.1727 78.3672 79.2439L78.1738 79.3876C77.6836 79.7904 76.9197 79.9032 76.0978 79.6887C75.4891 79.5276 74.8885 79.2102 74.3416 78.796C73.8281 78.4246 73.3757 77.9531 72.9227 77.4998C72.245 76.8234 71.62 76.0868 71.0432 75.3187C70.7558 74.932 70.4851 74.5329 70.2326 74.1345C70.0454 73.7415 69.8022 73.4015 69.676 72.9757C69.607 72.779 69.5287 72.5912 69.4872 72.3862L69.3628 71.7711C69.3066 71.573 69.2872 71.3577 69.233 71.1541C69.0326 70.395 68.9469 69.5736 68.9285 68.7523C68.9151 67.5654 69.0805 66.3581 69.3128 65.169C69.4412 64.4994 69.5813 63.7973 69.938 63.2233C70.0356 63.0568 69.9226 62.9971 69.6455 62.951C69.1595 62.8898 68.6494 62.8443 68.2765 63.0939C68.0222 63.2705 67.817 63.4466 67.8062 63.7611C67.7971 64.2049 67.478 64.6089 67.6754 65.0914C67.7008 65.1558 67.6747 65.2442 67.6456 65.3071C67.0889 66.5123 67.1251 67.8546 67.192 69.1468C67.2198 69.5734 67.175 69.998 67.219 70.4306C67.2457 70.7098 67.2595 70.9904 67.3318 71.2618C67.4261 71.6576 67.5277 72.05 67.6475 72.4428C67.7301 72.7364 67.7134 73.0671 68.0931 73.2181C68.1742 73.2477 68.2226 73.4001 68.1822 73.4772C68.0352 73.7788 68.1577 74.0134 68.2842 74.2372L68.8653 75.1109L69.4888 75.9022C69.7924 76.2948 70.0867 76.6963 70.3642 77.1101C70.8139 77.7399 71.2499 78.4074 71.7901 78.9907C72.24 79.4858 72.7628 79.9156 73.3077 80.3352C73.4378 80.4317 73.5379 80.5602 73.6753 80.6532C73.9144 80.8202 74.18 81.0152 74.466 81.0707C74.7996 81.113 75.0305 81.1851 75.2286 81.5147C75.3546 81.6894 75.6327 81.7665 75.8572 81.8056C76.1619 81.8435 76.4794 81.8125 76.7832 81.752C77.1662 81.6592 77.4671 81.5731 77.8941 81.6618C78.0081 81.685 78.1428 81.6852 78.2716 81.6343C78.4005 81.5834 78.5264 81.5069 78.6322 81.4353C79.5571 80.7811 80.2311 80.0596 80.7744 79.2599C81.5024 78.1723 81.923 76.9541 82.1328 75.7262C82.1974 75.2476 82.237 74.7537 82.2234 74.2711C82.2193 72.7568 81.8741 71.2711 81.2692 69.8925C81.1404 69.625 81.0115 69.3574 80.9397 69.0679C80.84 68.7374 80.7107 68.4207 80.5391 68.1192C80.342 67.8206 80.1228 67.5322 79.8902 67.2635C79.5874 66.9692 79.3161 66.6557 79.0561 66.3279C78.7769 66.0361 78.5169 65.7084 78.2363 65.4037C78.1018 65.2689 77.988 65.1109 77.8289 65.0099C76.7217 64.3359 75.737 63.5107 74.5754 63.0189C73.6363 62.6391 72.6566 62.4037 71.6868 62.2085C70.9321 62.0614 70.1758 61.9689 69.4171 61.8999C69.3699 61.8949 69.3198 61.8644 69.2727 61.8594C68.8274 61.8376 68.6274 62.1503 68.7283 62.6955C68.8072 63.1837 68.9984 63.4985 69.3512 63.5723L70.5342 63.8208L70.4998 63.8817Z" fill="#F8AFB8"/>
<path d="M68.3636 61.8585C68.3636 61.8585 70.6229 57.3678 67.2694 52.8844C65.8637 50.9989 63.1242 49.3611 60.8713 50.3141C58.7822 51.2045 58.0793 54.7877 59.1717 57.1957C60.7676 60.7062 68.3636 61.8585 68.3636 61.8585Z" fill="#F1D1D5"/>
<path d="M69.6562 60.6034C69.6535 60.1247 69.6468 59.6568 69.5325 59.1986C69.4186 58.7895 69.2928 58.4128 69.4389 58.013C69.4764 57.9103 69.4378 57.7982 69.4355 57.6871C69.4211 57.492 69.3938 57.2983 69.3868 57.0997C69.382 57.0122 69.478 56.9003 69.4201 56.8241C69.1798 56.4423 69.0703 56.0716 69.1083 55.6322C68.8168 55.391 68.8536 55.0553 68.7883 54.7314C68.7377 54.4005 68.5395 54.1383 68.5337 53.7687C68.5328 53.6704 68.501 53.573 68.4318 53.511C68.2242 53.3249 68.0422 53.1359 67.9029 52.9135C67.7617 52.6966 67.6318 52.4654 67.4744 52.2425C67.1458 51.7672 66.6795 51.4009 66.119 51.2084C65.8198 51.1052 65.5773 50.9308 65.3254 50.7653C65.0215 50.5747 64.7368 50.3481 64.4102 50.1859C63.9348 49.9449 63.4476 49.7363 62.9191 49.5064C62.2055 49.1967 61.3165 49.0985 60.458 49.3361C59.9934 49.4848 59.6017 49.8194 59.3171 50.1625C58.7149 50.8551 58.4301 51.6513 58.2211 52.4079C58.0738 52.9787 57.9466 53.5447 57.8701 54.1231C57.8147 54.6602 57.7244 55.209 57.7702 55.7709C57.8021 56.1867 57.8722 56.5982 57.9767 57.0161C58.0364 57.2216 58.1068 57.4311 58.1739 57.6332C58.2699 57.8397 58.3767 58.0503 58.4855 58.2554C58.9414 59.0528 59.5616 59.7019 60.2022 60.2116C60.5095 60.477 60.8138 60.7168 61.1349 60.9443C61.2935 61.0635 61.4659 61.1449 61.6383 61.2262C61.9634 61.3756 62.2871 61.5123 62.6132 61.6253C62.9409 61.7511 63.2616 61.8622 63.5898 61.9698C64.5142 62.2892 65.4378 62.5776 66.3801 62.7811C66.9137 62.8964 67.4483 62.9754 67.9709 63.2214C68.1236 63.2895 68.2088 63.1736 68.1842 62.889C68.149 62.3984 68.167 61.8967 67.9743 61.569C67.8459 61.3506 67.7272 61.1725 67.51 61.1973C67.1939 61.241 66.9402 60.9462 66.5865 61.16C66.5383 61.1914 66.4828 61.1589 66.4382 61.1303C65.6654 60.5969 64.7833 60.5134 63.9433 60.231C63.6672 60.1485 63.4301 59.9762 63.1678 59.8559L62.6669 59.6177C62.4243 59.5107 62.159 59.4321 61.9469 59.275C61.783 59.1539 61.6637 58.994 61.3578 59.1272C61.2934 59.1527 61.2154 59.0813 61.2248 59.0051C61.2607 58.7059 61.1133 58.6398 60.9739 58.5521C60.6337 58.293 60.2753 58.0335 60.0247 57.6969C59.9133 57.5827 59.8555 57.4391 59.7958 57.3009C59.7434 57.1593 59.6743 57.03 59.646 56.8726C59.5376 56.3982 59.5846 55.9009 59.6123 55.4394C59.6252 55.0522 59.6508 54.6635 59.7143 54.2886C59.7331 54.2036 59.7991 54.1236 59.8125 54.0366C59.8334 53.8789 59.9304 53.7306 59.8678 53.5668C59.7928 53.3863 59.8186 53.2488 60.0792 53.1725C60.2189 53.1255 60.2549 53.0101 60.2669 52.9103C60.2798 52.7742 60.2476 52.6277 60.2302 52.4743C60.1956 52.2841 60.188 52.1037 60.4205 52.0539C60.5449 52.032 60.5716 51.9254 60.5787 51.8054C60.6021 51.5568 60.7223 51.3619 60.8828 51.2245C61.0412 51.0925 61.2413 51.0309 61.4734 50.9993C62.0814 50.9275 62.6803 51.1157 63.2347 51.3917C63.4518 51.5017 63.6802 51.5973 63.8987 51.72C64.5773 52.1088 65.2765 52.5419 65.8959 53.0928C66.0167 53.1982 66.1482 53.3075 66.2021 53.4619C66.3283 53.8204 66.5599 54.1254 66.8342 54.3971C66.9838 54.5743 67.0892 54.772 67.1758 54.9874C67.2517 55.1989 67.2759 55.4343 67.3188 55.6521C67.3359 55.7564 67.3254 55.8689 67.3646 55.9628C67.7268 56.5974 67.5998 57.3472 67.677 58.0246C67.7484 58.5835 67.8281 59.1699 67.8345 59.7725C67.8378 60.233 67.8385 60.7171 67.7724 61.1829C67.768 61.2119 67.7365 61.2311 67.7301 61.2655C67.71 61.5215 67.9731 61.7401 68.4959 61.8515C68.9631 61.9303 69.3049 61.8163 69.3894 61.5348C69.4911 61.2229 69.5402 60.904 69.582 60.5885L69.6562 60.6034Z" fill="#F8AFB8"/>
<path d="M53.2857 75.807C55.3566 74.3465 54.8416 70.3918 53.6705 68.0653C52.4077 65.5706 49.6326 63.4605 46.6913 63.6659C46.0386 63.7091 44.5925 63.8116 43.7018 64.8581C41.9697 66.8833 43.4245 71.1323 45.7647 73.494C47.5549 75.2994 51.1573 77.3077 53.2857 75.807Z" fill="#F1D1D5"/>
<path d="M55.0526 74.8428C55.1778 74.2822 55.2116 73.7372 55.1096 73.2284C55.0135 72.7707 54.8794 72.3665 55.0157 71.9263C55.0518 71.8109 55.0151 71.6934 54.9966 71.5764L54.9347 70.9413C54.9265 70.8464 55.0063 70.7286 54.9577 70.6435C54.722 70.2327 54.5731 69.8354 54.6122 69.3597C54.2976 69.0977 54.3369 68.7385 54.2579 68.385C54.1788 68.0316 53.9797 67.7383 53.9454 67.3461C53.9411 67.2404 53.8911 67.1425 53.8165 67.0785C53.3546 66.6832 53.0624 66.2089 52.697 65.7508C52.3124 65.2612 51.79 64.8805 51.1745 64.7046C50.8552 64.6063 50.5709 64.429 50.2861 64.2698C49.9438 64.0835 49.6134 63.8648 49.2445 63.7178C48.7121 63.4987 48.1712 63.3195 47.5911 63.1137C46.7904 62.8579 46.0096 62.7318 45.1002 62.8406C44.6435 62.9003 44.1979 63.1478 43.7964 63.4421C42.959 64.0242 42.4705 65.0094 42.2961 65.8889C42.1624 66.5566 42.1128 67.2122 42.1418 67.8536C42.1724 68.4404 42.197 69.0435 42.3392 69.6099C42.7514 71.2978 43.5241 72.854 44.6676 74.2334C44.9365 74.5704 45.22 74.9006 45.5208 75.2004C45.673 75.354 45.8424 75.4771 46.0117 75.6002C46.6559 76.0499 47.335 76.4205 48.0496 76.7612C49.0677 77.2434 50.1916 77.654 51.5166 77.6482C52.2666 77.6405 53.0626 77.423 53.8686 77.1111C54.1022 77.025 54.0882 76.879 53.8604 76.6978C53.4692 76.3772 53.1159 76.0032 52.7795 75.868C52.53 75.7462 52.3738 75.6708 52.1996 75.7787C51.9365 75.9458 51.6271 75.7532 51.3264 76.0231C51.2816 76.0618 51.2202 76.0455 51.1682 76.0204C50.3111 75.6338 49.437 75.4614 48.5658 75.0634C48.2912 74.9264 48.0458 74.7265 47.7998 74.5448L47.3108 74.2069C47.0771 74.0419 46.808 73.9068 46.6103 73.6937C46.4528 73.5381 46.3676 73.3355 46.0254 73.4004C45.9521 73.4165 45.8766 73.3215 45.8988 73.2439C45.9818 72.9496 45.8449 72.8383 45.7193 72.7128C45.3964 72.356 45.0681 71.9972 44.8142 71.586C44.619 71.2819 44.4849 70.9451 44.3783 70.5999C44.2336 70.0571 44.1529 69.507 44.1006 68.9796C44.0457 68.5431 43.9815 68.1154 43.9841 67.706C43.9886 67.6097 44.0404 67.5183 44.043 67.4274C44.0334 67.2524 44.1216 67.0948 44.0314 66.9393C43.9309 66.7618 43.9547 66.6296 44.1942 66.5273C44.3305 66.4729 44.366 66.3757 44.3652 66.2774C44.358 66.1461 44.3449 66.0311 44.3092 65.8772C44.2741 65.7051 44.2847 65.5253 44.5088 65.5153C44.6288 65.5223 44.6628 65.4123 44.6915 65.3003C44.8382 64.8149 45.3919 64.6069 45.9272 64.6003C46.1129 64.5947 46.3021 64.5965 46.4982 64.613C46.7091 64.6227 46.8938 64.6534 47.0658 64.6856C47.4245 64.7432 47.7614 64.8602 48.091 64.9806C48.2168 65.0388 48.3484 65.0807 48.4781 65.1281L48.8612 65.2864C49.6387 65.6562 50.42 66.0825 51.1352 66.6562C51.2795 66.7641 51.4179 66.8881 51.5007 67.047C51.679 67.4306 51.9475 67.7185 52.2301 68.0178C52.5765 68.3771 52.7139 68.856 52.7854 69.3476C52.8059 69.4592 52.7895 69.5879 52.8448 69.6878C53.2286 70.3976 53.159 71.2418 53.2454 71.9777C53.3192 72.5804 53.4131 73.1781 53.368 73.7374C53.334 74.1659 53.2567 74.5786 53.0517 74.9385C53.0384 74.9582 53 74.9626 52.9867 74.9822C52.8739 75.1737 52.982 75.5317 53.4022 75.8567C53.7728 76.133 54.1994 76.1724 54.4284 75.8641C54.5657 75.7061 54.6707 75.5362 54.756 75.353C54.8575 75.1757 54.9226 74.9974 54.9843 74.8117L55.0526 74.8428Z" fill="#F8AFB8"/>
<path d="M54.3383 76.3366C54.3383 76.3366 58.978 78.54 60.7282 82.3826C63.3209 88.0763 61.4789 93.5707 58.5948 94.3237C56.191 94.9521 53.0106 91.42 51.7027 87.8921C49.9675 83.2038 54.3383 76.3366 54.3383 76.3366Z" fill="#F1D1D5"/>
<path d="M55.5593 78.0069C56.0544 78.194 56.5205 78.4439 57.0318 78.6368C57.4817 78.8134 57.9365 79.0102 58.1713 79.4573C58.2355 79.5665 58.3479 79.6443 58.4382 79.7324C58.5972 79.9008 58.7636 80.0657 58.9019 80.2571C58.9632 80.3407 58.9644 80.4882 59.0484 80.5433C59.4721 80.8084 59.8053 81.1873 59.9038 81.6888C60.2947 81.8928 60.3137 82.3101 60.4144 82.6715C60.491 83.0486 60.6979 83.3875 60.6535 83.7939C60.6396 83.8991 60.6581 84.0161 60.7194 84.0997C61.0941 84.6163 61.162 85.2352 61.2304 85.8359C61.2864 86.4872 61.4142 87.1096 61.6231 87.7616C61.7278 88.1122 61.7282 88.4798 61.6834 88.8371C61.6547 89.2676 61.5121 89.6748 61.4166 90.087C61.3282 90.3793 61.227 90.673 61.0973 90.9441C60.946 91.2073 60.8144 91.4838 60.6008 91.6997C60.0794 92.3054 59.4923 92.7891 58.9327 93.0134C58.7896 93.053 58.6754 93.1644 58.5451 93.2025C58.4841 93.2354 58.4231 93.2682 58.3602 93.3064C58.3011 93.3339 58.2446 93.3377 58.1876 93.3597C57.7243 93.5212 56.9673 93.3304 56.3142 92.9387C55.8207 92.6298 55.3741 92.2094 54.991 91.7325C54.6324 91.2892 54.3447 90.786 54.0604 90.2901C53.63 89.5572 53.2679 88.7879 52.9846 88.0046C52.9264 87.8118 52.8431 87.6038 52.7992 87.4224L52.6855 86.8787C52.6322 86.7061 52.6507 86.5046 52.6269 86.3183C52.6158 86.1305 52.592 85.9442 52.6159 85.7447L52.661 85.1855C52.6863 84.9988 52.7373 84.8091 52.7626 84.6224L52.8426 84.0514C52.9194 83.3384 53.0552 82.598 53.2686 81.8797C53.5803 80.8422 54.0113 79.8299 54.4803 78.8315C54.7475 78.2677 55.0152 77.6857 55.4553 77.2524C55.5808 77.1267 55.4831 77.0421 55.2277 76.9365C54.7704 76.7633 54.2875 76.593 53.8833 76.727C53.606 76.8156 53.3807 76.9293 53.313 77.1985C53.218 77.5925 52.8318 77.8617 52.9274 78.3376C52.9401 78.4035 52.8928 78.4659 52.8495 78.5174C52.0613 79.4176 51.7877 80.5854 51.499 81.7109L51.1602 82.8059C51.0861 83.0422 51.0499 83.2923 51.0136 83.5424C50.9902 83.7238 50.9723 83.907 50.9563 84.0849C50.9511 84.2668 50.9405 84.4467 50.9151 84.6334C50.871 84.9051 50.7595 85.1767 51.0599 85.4273C51.1203 85.48 51.1053 85.6215 51.0384 85.6706C50.7815 85.8707 50.8004 86.1042 50.8501 86.3367C50.914 86.6479 50.9416 86.9581 51.0384 87.263C51.1427 87.5644 51.2267 87.8707 51.3275 88.1647C51.4846 88.5896 51.6344 89.0179 51.7748 89.4551C52.0087 90.1224 52.2274 90.8147 52.5694 91.4541C52.8507 91.9917 53.2171 92.4808 53.5943 92.9738C53.6821 93.0855 53.7399 93.2291 53.8351 93.3374C54.0004 93.5387 54.1848 93.7714 54.4275 93.8785C54.7045 93.9919 54.8925 94.0974 54.9589 94.4523C55.0043 94.6465 55.2262 94.7766 55.4074 94.8673C55.6387 94.9886 55.938 95.0244 56.1935 95.0626C56.3566 95.0855 56.5296 95.0814 56.6741 95.1219C56.8239 95.1644 56.9659 95.2285 57.1318 95.3442C57.3026 95.4801 57.5882 95.4864 57.8266 95.4205C58.8886 95.196 59.7065 94.7844 60.4441 94.2577C61.433 93.5288 62.1383 92.5371 62.6196 91.488C62.7898 91.0725 62.9423 90.6383 63.0295 90.1985C63.3539 88.8411 63.2902 87.4398 63.0366 86.1222C62.9839 85.8641 62.9185 85.6075 62.9317 85.3367C62.9144 84.7302 62.7619 84.1417 62.486 83.606C62.3371 83.276 62.2212 82.9397 62.1032 82.6087C61.9819 82.2704 61.9244 81.9248 61.7819 81.5604C61.7212 81.3913 61.6901 81.2084 61.5905 81.0618C60.8833 80.0807 60.3128 79.0271 59.4416 78.2433C58.7388 77.6191 57.9315 77.1465 57.132 76.7197C56.5098 76.3944 55.8605 76.1265 55.2067 75.8876C55.1635 75.8718 55.1301 75.829 55.0869 75.8133C54.6973 75.6893 54.4315 75.9474 54.3668 76.4933C54.3022 76.9719 54.3725 77.3161 54.6539 77.4679L55.6007 77.9608L55.5593 78.0069Z" fill="#F8AFB8"/>
<path d="M39.1594 85.7605C37.4334 87.7021 32.2485 86.555 29.3635 83.7065C27.0413 81.4127 25.3305 77.1436 27.0527 75.1454C28.6996 73.236 32.8729 74.1177 35.3567 75.7846C39.0175 78.2367 40.9775 83.7177 39.1594 85.7605Z" fill="#F1D1D5"/>
<path d="M37.4298 85.7838C37.0687 86.0009 36.6203 86.0882 36.1591 86.2443C35.7461 86.369 35.2992 86.4691 34.9005 86.2193C34.7983 86.1636 34.6745 86.1674 34.5624 86.1387C34.3566 86.0818 34.1502 86.0432 33.9543 85.9594C33.8644 85.9204 33.7987 85.7984 33.7058 85.8012C33.4689 85.8127 33.2478 85.7809 33.0371 85.7039C32.8244 85.6323 32.6329 85.5194 32.4724 85.3383C32.0595 85.3957 31.83 85.0852 31.5654 84.8538C31.3008 84.6224 30.9851 84.4642 30.8126 84.1317C30.7714 84.0432 30.7007 83.9684 30.6089 83.9348C30.0572 83.7516 29.704 83.3102 29.3705 82.8822C29.0257 82.401 28.6283 81.9801 28.1394 81.5749C27.8817 81.3583 27.7081 81.0622 27.5656 80.7651C27.3882 80.4124 27.29 80.0275 27.1677 79.6582C26.9901 79.1217 26.9152 78.5554 26.98 78.0095C27.0808 77.2807 27.3015 76.6265 27.6186 76.2279C27.662 76.1763 27.6871 76.1242 27.7142 76.0668C27.7556 76.0207 27.7842 75.976 27.8113 75.9185C27.8547 75.7996 27.9443 75.7221 28.0147 75.6131C28.3401 75.2421 28.953 74.9392 29.6451 74.8553C30.1691 74.7956 30.719 74.8495 31.2574 74.985C31.7615 75.114 32.236 75.3241 32.7084 75.5396C33.4059 75.8434 34.0757 76.2229 34.6564 76.6617C35.2258 77.1147 35.75 77.6247 36.1953 78.2161C36.4018 78.5059 36.5916 78.808 36.7592 79.1203C36.844 79.2738 36.9509 79.4169 37.0524 79.5581C37.4118 80.0998 37.7707 80.6597 38.0102 81.2616C38.3662 82.1144 38.5545 83.0406 38.5125 83.8092C38.5129 84.2441 38.4031 84.645 38.1312 84.7355C38.0668 84.761 38.1546 84.8727 38.3741 85.0264C38.7688 85.287 39.2019 85.5432 39.6312 85.4244C39.8815 85.326 40.1279 85.171 40.1416 84.8821C40.1385 84.6727 40.2204 84.4821 40.2551 84.2866C40.277 84.0925 40.2793 83.8851 40.1464 83.6957C40.1096 83.6455 40.1136 83.5673 40.1354 83.5079C40.4369 82.3809 39.9623 81.2827 39.5111 80.3217L39.1061 79.3347C39.0121 79.1227 38.8866 78.9299 38.763 78.7316C38.5929 78.4429 38.3431 78.2046 38.1784 77.9178C38.05 77.6994 37.955 77.4565 37.5982 77.4609C37.5235 77.4642 37.4538 77.353 37.4761 77.2754C37.5576 76.9683 37.3848 76.8378 37.2361 76.6916C37.0418 76.4859 36.8121 76.3101 36.5951 76.1328C36.3821 75.9448 36.1464 75.7852 35.9201 75.6167C35.5907 75.3617 35.2525 75.0972 34.9103 74.8436C34.3831 74.4427 33.845 74.0379 33.2366 73.7421C32.7307 73.4838 32.18 73.3316 31.6259 73.172C31.4976 73.1374 31.3724 73.0611 31.2402 73.0373C31.0034 72.9814 30.7362 72.9082 30.4977 72.9742C30.2297 73.0539 30.0287 73.0846 29.7769 72.8517C29.6331 72.7257 29.3937 72.7607 29.2088 72.7973C28.9729 72.8397 28.7338 72.9912 28.5228 73.1162C28.261 73.2962 28.049 73.4575 27.6838 73.4344C27.4838 73.4287 27.2742 73.5665 27.1398 73.7501C26.5189 74.4603 26.0018 75.1717 25.6929 75.9836C25.274 77.08 25.2708 78.2118 25.4284 79.2555C25.4838 79.6738 25.6184 80.0598 25.7456 80.4493C26.1719 81.6462 26.8623 82.7068 27.7131 83.6301C27.8863 83.8098 28.0541 83.9875 28.1899 84.2024C28.3375 84.4523 28.5205 84.6723 28.7389 84.8623C28.9499 85.0558 29.1817 85.2262 29.4326 85.3608C29.7297 85.5367 29.9953 85.7317 30.2663 85.9287C30.5279 86.1345 30.795 86.3423 31.062 86.5502C31.1847 86.6501 31.2995 86.7717 31.4528 86.8216C32.4691 87.1745 33.406 87.7618 34.5111 87.9389C35.395 88.0842 36.3323 88.0164 37.2576 87.7971C37.9725 87.6173 38.6916 87.2921 39.2861 86.7376C39.3255 86.6969 39.3806 86.6802 39.4145 86.6375C39.7257 86.2551 39.5301 85.9693 39.0237 85.7292C38.5734 85.5034 38.3396 85.4057 38.1492 85.5077L38.0006 85.6126L37.8236 85.6949C37.7144 85.7591 37.589 85.8174 37.4479 85.8516L37.4298 85.7838Z" fill="#F8AFB8"/>
<path d="M40.2229 86.42C38.455 85.1738 34.3456 87.8555 32.0445 90.4996C29.5399 93.3817 27.5167 98.1485 29.1924 99.9488C30.0947 100.915 31.7715 100.701 32.6007 100.594C36.6887 100.066 39.5705 95.9502 40.5417 92.4037C40.7577 91.5946 41.8642 87.5769 40.2229 86.42Z" fill="#F1D1D5"/>
<path d="M38.3078 85.3633C37.7388 85.5964 37.2415 85.8679 36.8252 86.2364C36.4536 86.5661 36.138 86.9102 35.6528 87.0146C35.5264 87.0419 35.4378 87.1504 35.3286 87.2146L34.75 87.5912C34.663 87.6451 34.5141 87.6336 34.4535 87.7156C34.1668 88.1314 33.8282 88.4548 33.3551 88.6433C33.2233 89.0545 32.8466 89.1802 32.5327 89.4024C32.2154 89.6172 31.9898 89.9329 31.6101 90.1004C31.5122 90.1504 31.4227 90.2279 31.3817 90.3232C31.1248 90.9091 30.7206 91.3616 30.3336 91.851C29.9273 92.3763 29.6389 92.9814 29.5268 93.657C29.4638 94.0137 29.309 94.3368 29.1724 94.6605C29.0067 95.0471 28.7923 95.4158 28.657 95.8196C28.4384 96.4012 28.2542 96.9892 28.0394 97.6273C27.9071 98.0567 27.81 98.5234 27.8461 99.0449C27.8533 99.1762 27.8659 99.3094 27.8804 99.4372C27.9166 99.5729 27.9527 99.7086 27.9943 99.8463C28.0573 100.126 28.2446 100.385 28.4064 100.646C28.7973 101.169 29.4344 101.42 29.9626 101.533C31.0484 101.746 31.9737 101.527 32.8099 101.367C33.482 101.22 34.1649 101.078 34.8037 100.821C35.4086 100.608 36.0036 100.353 36.559 100.023C38.1716 98.9957 39.4678 97.5768 40.465 95.9874C40.7143 95.6069 40.9581 95.2244 41.1769 94.8266C41.2809 94.6258 41.3761 94.4156 41.4477 94.2029C41.5884 93.8011 41.7109 93.3987 41.8137 92.9831C41.92 92.5749 41.9982 92.1931 42.0864 91.7843C42.3142 90.6243 42.5386 89.4569 42.3883 88.0913C42.3665 87.8996 42.3196 87.6926 42.287 87.497C42.2347 87.288 42.1716 87.0751 42.1066 86.8676C41.9352 86.4314 41.7305 85.9524 41.3301 85.506C41.1064 85.2467 40.952 85.3005 40.8818 85.5933C40.7306 86.1077 40.5235 86.5403 40.4379 86.9255C40.3943 87.1791 40.307 87.3677 40.4518 87.5247C40.6406 87.7957 40.4955 88.1592 40.7944 88.4644C40.8385 88.5112 40.8311 88.5819 40.8167 88.6379C40.5149 89.6484 40.5148 90.6712 40.3049 91.7152C40.237 92.0518 40.095 92.3735 39.9785 92.6923L39.7643 93.3122C39.6719 93.6153 39.5756 93.9293 39.4346 94.2146C39.3139 94.4277 39.1308 94.5935 39.2871 94.9201C39.3233 94.9885 39.2475 95.0955 39.1654 95.1023C38.8498 95.1278 38.7827 95.3115 38.6866 95.4908L38.2899 96.191C38.1416 96.4125 37.9968 96.6413 37.8289 96.8494C37.5817 97.1572 37.2898 97.4364 36.972 97.6694C36.7353 97.8646 36.4584 98.0023 36.2045 98.1607C35.9296 98.293 35.6797 98.4405 35.4107 98.5566C34.9734 98.7643 34.5593 98.9927 34.1133 99.1237C34.0105 99.1536 33.8926 99.1411 33.7933 99.1783C33.6113 99.2404 33.3971 99.2234 33.2529 99.3667C33.0934 99.535 32.9252 99.5594 32.7048 99.3747C32.5807 99.262 32.4464 99.3109 32.2798 99.348C32.0944 99.4028 31.933 99.5092 31.7628 99.6063C31.5665 99.7244 31.3649 99.8406 31.168 99.6584C31.0635 99.559 30.9185 99.604 30.799 99.6461C30.2418 99.8467 29.7803 99.5679 29.6678 99.1716C29.4967 98.6007 29.6409 97.8205 29.932 97.0571C30.0425 96.7546 30.1369 96.446 30.2568 96.1346C30.6372 95.1773 31.055 94.1847 31.5518 93.227C31.6465 93.035 31.7411 92.843 31.9035 92.7002C32.2697 92.3685 32.5249 91.9718 32.7678 91.5583C33.0517 91.0496 33.5275 90.7029 34.0116 90.3837C34.1247 90.3086 34.2644 90.2617 34.3456 90.1566C34.9448 89.4385 35.8237 89.0614 36.5479 88.5543C37.1383 88.1453 37.7041 87.7028 38.2914 87.4029C38.74 87.181 39.1855 87.0008 39.5404 87.0018C39.564 87.0043 39.589 87.0196 39.6052 87.0255C39.6868 87.0369 39.798 86.9673 39.9195 86.8525C40.0357 86.7357 40.1716 86.5649 40.23 86.3045C40.2839 86.0731 40.2612 85.8504 40.1626 85.6674C40.0622 85.4898 39.8849 85.3883 39.6589 85.3364C39.4196 85.3041 39.1881 85.3175 38.964 85.3275C38.7535 85.3669 38.5343 85.3971 38.3381 85.4479L38.3078 85.3633Z" fill="#F8AFB8"/>
<path d="M46.3165 83.7753C47.2265 83.2626 48.1242 82.7331 48.9857 82.1353C49.8487 81.5503 50.6822 80.9117 51.4342 80.1943C52.7902 78.9136 53.8559 77.4717 54.9744 75.9695C55.2639 75.5792 55.4902 75.1107 55.7371 74.6864C56.187 73.9076 56.6384 73.1416 57.1697 72.4416C57.4155 72.121 57.7471 71.8502 57.9668 71.5508C58.4957 70.807 59.1254 70.1061 59.7742 69.4367C60.4264 68.7747 61.1213 68.1466 61.8687 67.5929C62.8038 66.4585 64.0272 65.6745 65.2556 64.9106C66.482 64.1522 67.7542 63.3859 69.1225 63.01C69.4888 62.9295 69.8812 62.7605 70.2357 62.6451C72.3366 61.7897 74.7853 61.6922 76.8186 62.631C79.0066 63.6325 80.9021 65.3845 82.9763 66.8651C84.0726 67.6698 85.1603 68.5817 86.2491 69.4571C87.5519 70.4843 88.8488 71.5278 90.2156 72.4803C92.2001 73.8546 94.2028 75.162 96.2258 76.4645C98.9257 78.2104 101.78 79.786 104.793 81.0768C106.323 81.7337 107.956 82.2262 109.597 82.6297C112.871 83.4584 116.28 83.9015 119.7 83.626C120.985 83.5444 122.26 83.306 123.519 82.9944C124.14 82.8046 124.774 82.6444 125.373 82.3794C125.684 82.2481 125.965 82.167 126.298 81.9945C126.632 81.8348 126.923 81.6411 127.203 81.4434C128.227 80.7029 129.079 79.8809 129.919 79.055C130.755 78.2272 131.565 77.3841 132.354 76.5331C137.015 71.4868 141.577 66.2756 145.872 60.8877L148.994 57.055C149.505 56.4271 150.018 55.7939 150.529 55.1661C151.477 54.0121 152.435 52.8984 153.496 51.9386C154.549 50.9696 155.717 50.1349 156.963 49.3897C160.547 47.2754 164.69 46.2107 168.898 45.8922C171.287 45.7057 173.714 45.7349 176.096 46.1214C176.763 46.2241 176.997 46.1198 176.776 45.8187C176.389 45.3035 176.089 44.7654 174.919 44.3807C174.121 44.1505 173.369 43.9306 172.355 44.0073C170.891 44.0729 169.327 43.9299 167.914 44.3446C167.713 44.4062 167.418 44.4269 167.181 44.4383C162.849 44.5949 158.562 46.1523 154.948 48.586C153.768 49.3858 152.595 50.2314 151.569 51.2285C150.9 51.8718 150.272 52.5491 149.674 53.249C148.811 54.269 148.016 55.3382 147.186 56.3701C146.56 57.1456 145.895 57.8582 145.571 58.7444C145.504 58.9281 145.172 59.3336 145.006 59.438C144.365 59.8346 143.887 60.5053 143.381 61.1533C142.027 62.9127 140.669 64.6701 139.248 66.3802C138.198 67.6442 137.106 68.8742 135.989 70.0707C134.256 71.9303 132.468 73.7392 130.709 75.5707C129.97 76.3358 129.244 77.0994 128.5 77.8443C127.758 78.5839 126.999 79.3047 126.229 79.8688C126.051 79.9874 125.868 80.1041 125.691 80.1864C125.502 80.2829 125.373 80.3339 125.14 80.42C124.744 80.5634 124.347 80.7304 123.939 80.8571C123.53 80.971 123.134 81.1144 122.757 81.2583C122.338 81.3992 121.956 81.523 121.572 81.5848C121.183 81.6265 120.798 81.6264 120.377 81.5707C119.903 81.4771 119.18 81.562 118.584 81.5832C118.2 81.5959 117.816 81.6396 117.43 81.6577C117.042 81.6811 116.655 81.6993 116.274 81.7193C115.812 81.728 115.364 81.7297 114.908 81.704C114.451 81.6654 113.991 81.5649 113.517 81.404C113.006 81.2111 112.271 81.1264 111.664 81.0454C108.971 80.7046 106.348 79.7708 103.84 78.6219C100.436 77.0597 97.189 75.169 94.0683 73.1162C92.8448 72.3079 91.6139 71.503 90.4243 70.6519C88.5843 69.3182 86.7915 67.9221 85.0372 66.4544L82.3674 64.2234C81.4569 63.4804 80.5247 62.7295 79.4572 62.0639C78.622 61.5505 77.7096 61.064 76.7404 60.7161C75.6333 60.2932 74.4206 60.1257 73.2675 60.1638C72.1188 60.2402 70.9798 60.4242 69.926 60.8109C68.6416 61.242 67.4288 61.7788 66.2773 62.3993C65.1258 63.0197 64.0091 63.6958 62.9631 64.4466C62.4745 64.7949 61.9643 65.1352 61.5273 65.5267C59.9933 66.9261 58.5615 68.3138 57.1256 69.7797C56.3921 70.5467 55.7018 71.3969 55.1195 72.2866C54.5299 73.1797 54.0513 74.0705 53.5807 74.8724C53.1964 75.522 52.7988 76.124 52.3438 76.6988C51.8928 77.2628 51.3941 77.8401 50.865 78.3327C49.8131 79.3509 48.5536 80.2504 47.2401 81.0628C45.2025 82.3149 43.0187 83.3973 40.7663 84.3321C40.6154 84.3933 40.4561 84.4269 40.3051 84.4881C39.0289 85.0141 38.696 85.4559 39.4883 85.7515C40.1927 86.0027 41.1787 85.9526 42.3806 85.4792C43.7059 84.9528 44.997 84.3527 46.2714 83.6976L46.3165 83.7753Z" fill="#F8AFB8"/>
<path d="M138.622 48.0907C138.808 48.0851 138.977 48.1099 139.189 48.065C139.379 48.0304 139.572 47.9904 139.58 48.2018C139.579 48.2563 139.635 48.2525 139.664 48.2751C139.715 48.3185 139.769 48.3564 139.811 48.4085C139.832 48.4346 139.793 48.5245 139.837 48.5221C140.042 48.4807 140.177 48.53 140.174 48.7556C140.395 48.6527 140.375 48.8414 140.416 48.9663C140.452 49.0838 140.568 49.1199 140.538 49.3174C140.531 49.37 140.543 49.4049 140.583 49.3951C140.832 49.3695 140.92 49.5303 141.017 49.6823C141.124 49.8437 141.296 49.925 141.57 49.8964C141.716 49.8824 141.787 49.9572 141.859 50.0267C141.946 50.1074 141.99 50.2397 142.065 50.3346C142.174 50.4724 142.255 50.6367 142.266 50.8736C142.281 51.1852 142.328 51.4595 142.397 51.7054C142.438 51.8303 142.566 51.8649 142.669 51.9333C142.88 52.0595 143.12 52.1591 143.31 52.3083C143.454 52.4162 143.552 52.5682 143.648 52.7256C143.736 52.8683 143.771 53.0585 143.845 53.2081C144.072 53.6586 144.298 54.0963 144.505 54.5518C144.557 54.6624 144.577 54.7922 144.617 54.8989C144.64 54.956 144.671 55.0042 144.712 55.0435C144.856 55.2005 145.021 55.3527 145.155 55.5239C145.348 55.766 145.508 56.0326 145.692 56.2836C145.799 56.4267 145.924 56.5523 145.883 56.7822C145.872 56.8456 145.99 56.7907 146.215 56.6279C146.605 56.3478 147.016 56.0629 147.21 55.8337C147.34 55.6791 147.434 55.5544 147.335 55.5242C147.188 55.4891 147.317 55.2726 147.016 55.3404C146.976 55.3502 146.973 55.3247 146.975 55.3011C147.072 54.8525 146.747 54.6849 146.536 54.4423C146.467 54.3621 146.447 54.2505 146.397 54.1526C146.364 54.0916 146.329 54.036 146.282 53.9819C146.216 53.909 146.12 53.8553 146.08 53.7614C146.051 53.6896 146.08 53.5776 145.811 53.6937C145.754 53.7157 145.742 53.6808 145.788 53.6238C145.964 53.425 145.904 53.3905 145.863 53.3512C145.748 53.2296 145.609 53.1237 145.509 52.9953C145.435 52.8949 145.393 52.7754 145.363 52.6417C145.318 52.4293 145.314 52.189 145.261 51.98C145.213 51.8094 145.123 51.6721 145.056 51.5192C145.039 51.4823 145.057 51.4155 145.038 51.384C145.005 51.323 145.002 51.2301 144.889 51.2378C144.769 51.2489 144.712 51.2218 144.841 51.018C144.914 50.9036 144.865 50.8677 144.811 50.8479C144.749 50.8188 144.639 50.8339 144.535 50.851C144.407 50.8655 144.281 50.8928 144.356 50.7185C144.397 50.6232 144.314 50.6172 144.237 50.6259C143.889 50.6578 143.764 50.4959 143.673 50.2913C143.551 50.0076 143.454 49.7027 143.325 49.417C143.274 49.3063 143.194 49.2221 143.13 49.1311C142.91 48.8428 142.606 48.6521 142.286 48.4737C142.225 48.4392 142.157 48.4082 142.137 48.3275C142.097 48.1353 141.956 48.053 141.788 48.01C141.58 47.9586 141.498 47.7633 141.418 47.5627C141.4 47.513 141.4 47.4457 141.357 47.4299C141.035 47.337 140.944 46.9668 140.673 46.8189C140.453 46.7016 140.174 46.6609 139.906 46.6059C139.7 46.5673 139.478 46.5537 139.266 46.5313C139.253 46.5327 139.257 46.5037 139.239 46.5032C139.11 46.505 138.888 46.7607 138.626 47.21C138.394 47.6092 138.294 47.8666 138.375 47.9144C138.46 47.9642 138.567 47.9909 138.664 48.0264L138.622 48.0907Z" fill="#F8AFB8"/>
<path d="M107.336 66.1191C107.477 66.3179 107.579 66.5264 107.768 66.712C107.934 66.8769 108.108 67.0384 107.975 67.2529C107.942 67.3084 107.986 67.3552 107.992 67.4063C108 67.5012 108.021 67.5946 108.019 67.6855C108.021 67.7292 107.932 67.7886 107.969 67.8206C108.159 67.988 108.234 68.1685 108.097 68.3939C108.337 68.5063 108.212 68.6811 108.171 68.8437C108.136 69.0083 108.206 69.1504 108.072 69.334C108.036 69.3821 108.029 69.4347 108.066 69.4667C108.297 69.6735 108.282 69.9315 108.293 70.1866C108.304 70.4598 108.42 70.7107 108.682 70.9165C108.819 71.0278 108.853 71.1689 108.887 71.31C108.93 71.4786 108.912 71.6619 108.941 71.832C108.985 72.0808 108.989 72.3393 108.912 72.6174C108.81 72.9966 108.746 73.3715 108.743 73.7318C108.738 73.9136 108.861 74.0627 108.946 74.2162C109.121 74.5251 109.338 74.8188 109.506 75.1312C109.623 75.3638 109.701 75.619 109.761 75.8737C109.82 76.1156 109.829 76.3761 109.882 76.616C110.055 77.3343 110.262 78.0409 110.48 78.7514C110.533 78.924 110.559 79.1049 110.605 79.2809C110.628 79.3689 110.668 79.4447 110.713 79.5224C110.879 79.8038 111.074 80.0768 111.235 80.3562C111.473 80.7616 111.681 81.1806 111.935 81.5737C112.08 81.798 112.241 82.0101 112.247 82.3124C112.247 82.3979 112.374 82.3524 112.593 82.1876C112.98 81.9001 113.387 81.6078 113.57 81.3565C113.694 81.1871 113.783 81.0423 113.666 80.9934C113.505 80.916 113.619 80.67 113.295 80.6862C113.251 80.6886 113.245 80.6556 113.249 80.6266C113.319 80.0827 112.956 79.7848 112.718 79.4158C112.639 79.2953 112.622 79.1419 112.567 79.0057C112.532 78.9192 112.496 78.8326 112.445 78.7529C112.378 78.6363 112.273 78.5369 112.235 78.4066C112.205 78.3038 112.245 78.1776 111.949 78.2165C111.885 78.2237 111.874 78.1706 111.928 78.123C112.134 77.9469 112.072 77.8814 112.03 77.8111C111.919 77.6114 111.779 77.4254 111.69 77.2154C111.624 77.0624 111.594 76.8924 111.586 76.712C111.578 76.4333 111.612 76.1395 111.602 75.8662C111.594 75.6366 111.521 75.4326 111.491 75.2133C111.485 75.1622 111.516 75.0939 111.508 75.0482C111.485 74.9602 111.514 74.8482 111.397 74.7994C111.269 74.7466 111.226 74.6816 111.412 74.5232C111.519 74.4334 111.477 74.363 111.435 74.3109C111.38 74.242 111.267 74.2005 111.155 74.1537C111.022 74.0989 110.887 74.0496 111.023 73.8969C111.096 73.8135 111.017 73.7603 110.935 73.7179C110.576 73.5439 110.513 73.2636 110.503 72.9722C110.489 72.575 110.522 72.1647 110.526 71.7681C110.529 71.6098 110.495 71.4687 110.476 71.3208C110.405 70.8601 110.232 70.4293 110.048 69.9946C110.012 69.908 109.969 69.8249 109.999 69.7257C110.071 69.4948 110 69.3035 109.878 69.118C109.733 68.8937 109.781 68.6294 109.834 68.367C109.845 68.3036 109.892 68.2413 109.862 68.1876C109.66 67.8197 109.829 67.3914 109.718 67.0079C109.63 66.6942 109.451 66.3961 109.298 66.0951C109.176 65.8604 109.029 65.6233 108.901 65.3867C108.895 65.372 108.913 65.3543 108.901 65.3376C108.816 65.2023 108.47 65.1924 107.956 65.3106C107.507 65.4161 107.246 65.5415 107.272 65.6733C107.299 65.8178 107.356 65.9614 107.396 66.1045L107.336 66.1191Z" fill="#F8AFB8"/>
<path d="M86.629 84.9801C86.5777 84.8021 86.5514 84.6394 86.4588 84.4403C86.3745 84.2686 86.2868 84.0896 86.4869 84.0279C86.542 84.0113 86.516 83.9651 86.5353 83.9292C86.5624 83.8718 86.5861 83.8069 86.6294 83.7554C86.6501 83.7323 86.7498 83.7443 86.7273 83.7054C86.6361 83.519 86.6531 83.3721 86.8728 83.3237C86.7217 83.1338 86.908 83.11 87.0192 83.0404C87.1284 82.9762 87.1355 82.8563 87.3306 82.8418C87.3818 82.836 87.4132 82.8169 87.3961 82.78C87.3099 82.5464 87.4463 82.4247 87.5738 82.2937C87.7032 82.1573 87.7414 81.9691 87.6523 81.71C87.6053 81.5703 87.6625 81.4809 87.7177 81.3969C87.7807 81.2914 87.8973 81.2238 87.9746 81.1295C88.0859 80.9926 88.2311 80.8802 88.4548 80.8211C88.7537 80.7404 89.0114 80.6386 89.2386 80.5195C89.3532 80.4573 89.3608 80.3192 89.4003 80.2111C89.4778 79.9822 89.5214 79.7287 89.6314 79.5116C89.7088 79.35 89.8343 79.2244 89.9652 79.1008C90.0922 78.9879 90.2633 78.9218 90.3937 78.8163C90.7864 78.5127 91.1717 78.2125 91.58 77.933C91.6784 77.8648 91.7979 77.8227 91.8997 77.7619C91.9534 77.7325 91.9927 77.6918 92.0287 77.6437C92.1572 77.4763 92.2735 77.2922 92.4162 77.1361C92.621 76.9108 92.8523 76.7136 93.0625 76.4903C93.1807 76.3681 93.2885 76.2238 93.5195 76.2285C93.5868 76.2286 93.5098 76.1209 93.319 75.9225C92.9848 75.58 92.6383 75.2206 92.3825 75.0659C92.2126 74.961 92.0692 74.8841 92.0607 74.9912C92.0492 75.1401 91.8114 75.0533 91.929 75.3351C91.9441 75.3774 91.9186 75.3803 91.895 75.3778C91.4389 75.352 91.3214 75.7072 91.1195 75.958C91.0536 76.038 90.9414 76.0767 90.8558 76.1434C90.8037 76.1856 90.7495 76.2332 90.7116 76.2867C90.653 76.3633 90.6155 76.4659 90.5319 76.5272C90.4669 76.5709 90.349 76.5584 90.5167 76.8034C90.5535 76.8536 90.5166 76.8708 90.4557 76.8363C90.2249 76.6968 90.2066 76.7637 90.1707 76.8118C90.0722 76.9473 89.9967 77.1034 89.884 77.2276C89.8013 77.3199 89.6921 77.3841 89.5613 77.4404C89.3606 77.5202 89.1261 77.5754 88.9323 77.67C88.7735 77.7528 88.6573 77.8696 88.5181 77.9657C88.4846 77.9902 88.4193 77.9847 88.3912 78.0112C88.3371 78.0588 88.2436 78.0798 88.2789 78.1845C88.3156 78.3021 88.2992 78.3635 88.0743 78.2751C87.9446 78.2278 87.9229 78.2872 87.9105 78.3378C87.8976 78.4066 87.9329 78.5113 87.9647 78.6087C88.0067 78.7282 88.0542 78.8496 87.8715 78.8135C87.7683 78.7942 87.7824 78.8728 87.8093 78.95C87.9145 79.2824 87.7771 79.4405 87.5931 79.5754C87.3442 79.7539 87.0628 79.9205 86.8099 80.1099C86.7095 80.1834 86.645 80.2762 86.5697 80.3651C86.3343 80.6404 86.2188 80.9902 86.116 81.3385C86.0977 81.4053 86.0829 81.4795 86.0071 81.5192C85.8227 81.6049 85.7782 81.7602 85.7804 81.9386C85.7816 82.1534 85.6069 82.2794 85.4322 82.4054C85.3914 82.4334 85.3235 82.4515 85.3185 82.4987C85.3072 82.8314 84.9654 83.0127 84.8892 83.3217C84.824 83.5674 84.8614 83.8505 84.8738 84.1184C84.8897 84.3263 84.9306 84.5495 84.9647 84.7579C84.9662 84.7707 84.9406 84.7736 84.9455 84.7938C84.9782 84.9221 85.2871 85.0656 85.7892 85.2C86.2353 85.3202 86.5075 85.3461 86.5318 85.2631C86.5545 85.1673 86.5576 85.0582 86.5642 84.9564L86.629 84.9801Z" fill="#F8AFB8"/>
<path d="M133.902 74.2882C131.978 72.63 129.63 70.2899 127.39 67.1504C125.212 64.0945 123.779 61.1946 122.842 58.8803C124.286 57.6931 126.174 57.0536 127.726 57.6148C136.668 60.851 133.904 74.2828 133.902 74.2882Z" fill="#F8AFB8"/>
<path d="M133.058 72.4059C132.602 72.129 132.169 71.8236 131.694 71.5643C131.269 71.3357 130.846 71.1016 130.646 70.6427C130.591 70.5247 130.477 70.4522 130.396 70.3553C130.245 70.1836 130.088 70.0098 129.947 69.8238C129.886 69.7402 129.885 69.5928 129.795 69.5356C129.364 69.274 129.021 68.9221 128.862 68.4353C128.456 68.2744 128.354 67.8821 128.185 67.5388C128.017 67.1954 127.748 66.9075 127.674 66.5069C127.652 66.4007 127.604 66.2974 127.522 66.2368C127.031 65.837 126.746 65.292 126.462 64.747C126.16 64.1651 125.778 63.6337 125.278 63.1572C125.014 62.9077 124.845 62.5825 124.682 62.2594C124.483 61.8807 124.351 61.4711 124.182 61.0786C124.059 60.7948 123.951 60.5042 123.856 60.2121C123.811 60.0671 123.764 59.9092 123.735 59.7701C123.718 59.6659 123.712 59.5656 123.715 59.4747C123.72 59.342 123.736 59.2315 123.755 59.1465C123.95 59.0829 124.106 59.0418 124.241 59.0238L124.33 59.0137C124.371 59.0039 124.348 59.0323 124.427 59L124.798 58.8905C125.145 58.7966 125.45 58.6143 125.777 58.5072C126.104 58.4 126.435 58.3312 126.765 58.317C127.106 58.3067 127.381 58.34 127.777 58.4969L128.193 58.6489L128.584 58.853C128.848 58.9861 129.083 59.1639 129.32 59.3362C129.545 59.4919 129.725 59.7045 129.922 59.8866L130.45 60.5023C131.465 61.7305 132.086 63.2497 132.417 64.8406C132.497 65.225 132.524 65.6207 132.571 66.0115C132.591 66.2086 132.618 66.4023 132.664 66.5965C132.798 67.3192 132.913 68.0595 132.954 68.8032C133.016 69.8732 132.967 70.9637 132.885 72.0424C132.84 72.6508 132.795 73.2773 132.545 73.8289C132.513 73.8972 132.515 73.9773 132.579 73.97L132.602 73.9725C132.794 74.018 132.993 74.0601 133.203 74.1061C133.756 74.2347 133.987 74.2886 133.886 74.2639C133.553 74.1853 133.179 74.1036 132.778 74.0121C132.807 74.0165 132.841 74.023 132.875 74.0294C133.361 74.0415 133.869 74.025 134.204 73.7616C134.43 73.5806 134.604 73.4054 134.57 73.1297C134.517 72.7369 134.78 72.3549 134.522 71.9544C134.487 71.8989 134.504 71.8193 134.531 71.7618C134.939 70.6615 134.794 69.4999 134.689 68.3777C134.658 68.011 134.68 67.6331 134.656 67.263C134.646 67.0207 134.606 66.7793 134.571 66.5399C134.513 66.1943 134.405 65.8545 134.362 65.5021C134.322 65.2425 134.363 64.9634 134.025 64.7973C133.952 64.7642 133.934 64.6291 133.988 64.5633C134.196 64.3144 134.112 64.1064 134.029 63.8984C133.832 63.3304 133.579 62.7845 133.328 62.246L133.054 61.6376C132.971 61.4296 132.881 61.225 132.785 61.0184C132.514 60.3683 132.174 59.7234 131.743 59.1251C131.362 58.6429 130.905 58.2186 130.423 57.8281C130.309 57.7375 130.219 57.613 130.102 57.5332C129.891 57.3707 129.671 57.1861 129.406 57.1567C129.114 57.1174 128.929 57.0375 128.781 56.7385C128.699 56.5614 128.481 56.4878 128.297 56.4389C128.069 56.3742 127.722 56.3697 127.451 56.4057C127.106 56.445 126.829 56.5335 126.49 56.3546C126.309 56.2639 126.058 56.3313 125.866 56.4205C125.039 56.8045 124.297 57.06 123.54 57.3896C122.907 57.6791 122.309 58.0915 121.667 58.5245C121.456 58.7169 121.238 58.9126 121.001 59.1079C120.758 59.2028 121.075 59.3247 121.212 59.436L121.726 59.7892L121.992 59.966L122.124 60.0571L122.154 60.1417L122.263 60.4633L122.392 60.8655C122.516 61.2476 122.676 61.6125 122.837 61.9774C123.332 63.1199 123.992 64.1815 124.703 65.2009C124.843 65.4051 124.992 65.6004 125.075 65.8266C125.265 66.3617 125.598 66.8079 125.982 67.2174C126.444 67.7111 126.742 68.3038 127.066 68.8935C127.138 69.0303 127.19 69.1901 127.298 69.2969C128.057 70.052 128.561 71.02 129.318 71.7804C129.927 72.3947 130.631 72.9153 131.318 73.4299C131.853 73.8274 132.42 74.1875 132.977 74.5383C133.011 74.5629 133.032 74.6071 133.073 74.6283C133.403 74.8161 133.714 74.6357 133.923 74.1303C134.11 73.6843 134.106 73.3275 133.859 73.1148C133.587 72.8868 133.298 72.6711 133.019 72.4466L133.058 72.4059Z" fill="#F8AFB8"/>
<path d="M133.716 92.766C133.112 90.2119 132.577 86.6661 132.851 82.4609C133.036 79.6745 133.533 77.2592 134.082 75.3221C137.203 75.262 141.082 81.6585 139.571 86.7838C138.743 89.5864 136.171 92.4685 133.716 92.766Z" fill="#F8AFB8"/>
<path d="M134.169 90.8905C133.966 90.4424 133.812 89.9758 133.584 89.5252C133.383 89.1209 133.181 88.7166 133.296 88.2686C133.327 88.1512 133.277 88.0351 133.266 87.9147C133.247 87.6994 133.226 87.4895 133.226 87.2693C133.226 87.171 133.314 87.0625 133.278 86.976C133.089 86.5393 133.025 86.0934 133.189 85.6449C132.959 85.3035 133.116 84.9567 133.182 84.6074C133.254 84.26 133.213 83.9022 133.392 83.5633C133.437 83.4754 133.463 83.3688 133.435 83.2788C133.282 82.7085 133.376 82.1488 133.481 81.5931C133.589 80.9957 133.601 80.3936 133.488 79.7644C133.427 79.4296 133.487 79.0964 133.546 78.7687C133.615 78.3776 133.751 78.0048 133.853 77.6255C133.919 77.3617 134.017 77.0424 134.103 76.841C134.193 76.6288 134.284 76.4786 134.396 76.3726C134.451 76.325 134.503 76.2828 134.546 76.2494C134.571 76.1792 134.71 76.2851 134.789 76.3201C134.873 76.3753 134.946 76.4265 135.012 76.4811C135.133 76.5865 135.212 76.6888 135.26 76.7739C135.252 76.7956 135.427 76.9207 135.558 76.999C135.695 77.0921 135.837 77.1744 135.97 77.2783C136.512 77.6905 137.049 78.199 137.479 78.7973C137.798 79.2504 138.04 79.7614 138.228 80.2837C138.404 80.7764 138.483 81.2955 138.582 81.7969C138.873 83.2812 138.853 84.8111 138.409 86.1251C138.3 86.4405 138.15 86.7347 137.987 87.0303C137.913 87.1811 137.84 87.3318 137.772 87.4846C137.519 88.0597 137.219 88.6299 136.829 89.1429C136.278 89.8788 135.593 90.498 134.883 90.949C134.487 91.1961 134.055 91.4059 133.659 91.3163C133.55 91.295 133.532 91.4291 133.606 91.6951C133.746 92.1504 133.898 92.6407 134.261 92.8531C134.498 92.9763 134.755 93.0765 134.973 92.8989C135.278 92.6674 135.742 92.6715 135.898 92.2265C135.92 92.167 135.987 92.1362 136.049 92.1161C137.136 91.7723 137.816 90.8326 138.411 89.9597C138.608 89.6705 138.845 89.4079 139.039 89.1113C139.159 88.9164 139.274 88.7195 139.375 88.5113C139.516 88.2077 139.615 87.8884 139.751 87.5829C139.863 87.3604 140.016 87.141 139.823 86.8497C139.777 86.7902 139.822 86.666 139.9 86.639C140.201 86.5348 140.226 86.3171 140.251 86.1122C140.34 85.5506 140.351 84.9849 140.352 84.4281C140.362 84.0153 140.38 83.599 140.397 83.1827C140.426 82.5321 140.444 81.8647 140.353 81.2069C140.272 80.6568 140.106 80.1243 139.939 79.5918C139.899 79.4669 139.894 79.3303 139.851 79.2108C139.767 78.99 139.707 78.7353 139.526 78.5773C139.312 78.4074 139.211 78.248 139.289 77.9335C139.331 77.7527 139.215 77.582 139.097 77.4531C138.956 77.2853 138.753 77.1557 138.556 77.0409C138.322 76.8941 138.086 76.7836 138.045 76.4622C138.017 76.2867 137.84 76.167 137.671 76.093C137.314 75.9135 136.987 75.7204 136.676 75.4968L136.435 75.3352L136.319 75.25L136.155 75.147C135.939 75.0007 135.709 74.8741 135.471 74.7563C135.302 74.6641 135.124 74.6171 134.944 74.5392C134.767 74.4868 134.586 74.4453 134.405 74.4037C134.221 74.373 134.043 74.3388 133.844 74.3149L133.546 74.2737C133.447 74.2617 133.379 74.2798 133.293 74.2792L132.925 75.2714C132.804 75.6192 132.671 75.9812 132.567 76.3167L132.453 76.6793L132.375 76.9445L132.232 77.4864C131.945 78.6065 131.834 79.7663 131.786 80.9187C131.776 81.1477 131.779 81.3753 131.71 81.5954C131.545 82.0984 131.545 82.6189 131.601 83.1355C131.674 83.7563 131.56 84.37 131.465 84.9842C131.442 85.1292 131.389 85.275 131.41 85.4176C131.564 86.4047 131.388 87.4061 131.536 88.3912C131.656 89.1881 131.905 89.965 132.147 90.7272C132.336 91.3168 132.572 91.8931 132.811 92.4641C132.828 92.501 132.812 92.5442 132.829 92.5811C132.98 92.9057 133.334 92.9249 133.801 92.6543C134.221 92.4097 134.423 92.1407 134.357 91.8531C134.277 91.5359 134.173 91.2163 134.087 90.8972L134.169 90.8905Z" fill="#F8AFB8"/>
<path d="M88.2879 70.7092C87.3725 67.6494 86.5124 64.1198 85.8878 60.1801C85.3586 56.851 85.0846 53.7622 84.9694 50.9763C87.5977 50.7056 90.919 52.7458 92.5763 55.3173C94.8224 58.8082 94.5132 64.0297 91.6259 66.5515C91.2957 66.8351 88.2879 70.7092 88.2879 70.7092Z" fill="#F8AFB8"/>
<path d="M88.5323 68.5381C88.2721 68.0265 88.0542 67.4998 87.7591 67C87.4988 66.5558 87.2385 66.1116 87.2791 65.5814C87.2921 65.4453 87.223 65.3159 87.1922 65.1822C87.141 64.9369 87.0824 64.695 87.0439 64.4482C87.0235 64.3366 87.0984 64.1986 87.041 64.1042C86.7778 63.6344 86.6301 63.1334 86.7057 62.5914C86.4138 62.2336 86.5004 61.8121 86.4976 61.4007C86.4948 60.9893 86.3843 60.5876 86.4838 60.1646C86.5124 60.0526 86.5087 59.9287 86.4661 59.8274C86.1834 59.2097 86.155 58.5501 86.1191 57.8939C86.0774 57.1866 85.9369 56.4983 85.6632 55.8226C85.5187 55.4636 85.4844 55.0714 85.4536 54.6865C85.4174 54.2324 85.4397 53.7689 85.4291 53.3118C85.423 53.1442 85.4223 52.9786 85.4215 52.813L85.4248 52.5692L85.4408 52.3913C85.4638 52.1608 85.5098 51.951 85.5827 51.8185L85.6458 51.7129C85.642 51.6564 85.7603 51.718 85.8183 51.7269L86.0114 51.7852C86.1337 51.836 86.2344 51.8789 86.3223 51.9233C86.4082 51.973 86.4799 52.0115 86.5349 52.0622L86.5722 52.0942L86.6891 52.143C86.7701 52.1726 86.8452 52.2185 86.9243 52.2535C87.2819 52.4147 87.6759 52.5097 88.0576 52.6552C88.8209 52.9464 89.5884 53.3432 90.2561 53.8627C90.7543 54.2591 91.192 54.7375 91.5391 55.2624C91.6995 55.5109 91.847 55.7608 91.9577 56.0278L92.1321 56.4222L92.2823 56.8323C92.883 58.4237 93.0179 60.2001 92.6606 61.815C92.5622 62.2017 92.428 62.5691 92.2815 62.9198C92.2217 63.1001 92.135 63.2705 92.0752 63.4507C91.8364 64.1045 91.5096 64.714 91.064 65.2126L90.813 65.4639L90.592 65.6832C90.5226 65.7559 90.5093 65.7755 90.4773 65.8128L90.3906 65.9159L89.7855 66.6502C89.395 67.1323 89.0173 67.6129 88.6505 68.0974C88.2289 68.6477 87.8324 69.2133 87.2882 69.6636C87.206 69.7377 87.2089 69.7633 87.1851 69.8954C87.1859 69.9937 87.2792 70.0401 87.4389 70.0556C87.9317 70.1988 88.3608 70.4659 88.7949 70.3672C89.086 70.3082 89.3318 70.2388 89.4468 69.9746C89.6159 69.5954 90.0492 69.3985 90.0686 68.9095C90.0687 68.8422 90.1322 68.7857 90.1898 68.7455C90.6842 68.3811 91.0845 67.9394 91.4543 67.4804C91.6315 67.2635 91.8286 66.9924 91.9659 66.8344C92.1766 66.5929 92.4158 66.3741 92.5961 66.1153C92.86 65.7953 93.1239 65.4752 93.354 65.1306C93.488 64.8978 93.6058 64.6591 93.7256 64.4151C93.8599 64.0476 93.9705 63.6777 94.0866 63.3098C94.1907 63.0416 94.3474 62.7804 94.1124 62.4679C94.0634 62.401 94.1073 62.264 94.185 62.2189C94.4861 62.0655 94.4732 61.8158 94.5001 61.5745C94.5532 60.9263 94.5006 60.2824 94.4607 59.637C94.4365 59.4016 94.4197 59.1627 94.4102 58.9204L94.3489 58.1998C94.2719 57.4551 94.1939 56.6794 93.9365 55.9423C93.736 55.3178 93.3958 54.7403 93.0496 54.179C92.9658 54.0565 92.9119 53.9021 92.8227 53.7777C92.6599 53.5528 92.5035 53.2935 92.2579 53.161C91.976 53.0273 91.8145 52.8826 91.7699 52.5356C91.7426 52.3419 91.5561 52.1818 91.3862 52.0769C91.1662 51.9414 90.9231 51.8526 90.6721 51.7854C90.3724 51.7004 90.0958 51.6361 89.9188 51.3326C89.8291 51.1589 89.5929 51.0849 89.3953 51.0556C88.5119 50.892 87.8022 50.5715 86.9096 50.2822C85.9384 50.0069 84.926 49.9616 83.8624 49.9895C83.8447 50.6751 83.8165 51.4059 83.8198 52.1849L83.8263 53.0386L83.8465 53.6707C83.8893 54.9786 84.0834 56.2744 84.3252 57.557C84.3745 57.8077 84.4272 58.0658 84.4145 58.3184C84.3757 58.9106 84.485 59.4833 84.6527 60.0468C84.8591 60.7224 84.8772 61.4272 84.8953 62.132C84.9034 62.2942 84.8766 62.4682 84.925 62.6206C85.2654 63.7004 85.2603 64.8377 85.5624 65.9218C85.8068 66.7951 86.154 67.6385 86.5011 68.4819C86.7665 69.1301 87.0722 69.7685 87.3672 70.4029C87.3877 70.4472 87.3754 70.4978 87.3979 70.5367C87.5807 70.8913 87.9404 70.9125 88.3901 70.5868C88.7842 70.296 88.9681 69.9773 88.8629 69.6449C88.746 69.2776 88.6015 68.9186 88.4773 68.5547L88.5323 68.5381Z" fill="#F8AFB8"/>
<path d="M78.4668 80.3879C77.9668 77.884 76.952 74.2918 74.7624 70.4112C72.741 66.8248 70.4197 64.2435 68.6427 62.553C68.6427 62.553 76.8033 64.0708 79.4423 68.7831C81.7352 72.8669 81.3873 78.999 78.4668 80.3879Z" fill="#F8AFB8"/>
<path d="M78.8122 78.224C78.5559 77.7017 78.3218 77.1691 77.9918 76.681C77.7039 76.2452 77.4062 75.8363 77.3869 75.3025C77.3817 75.1659 77.2978 75.0434 77.2469 74.9145L76.9885 74.2138C76.9533 74.1091 76.9957 73.9592 76.929 73.8736C76.5807 73.4524 76.3332 73.0067 76.2706 72.4571C75.898 72.1863 75.8702 71.7596 75.7395 71.3628C75.6143 70.9679 75.3711 70.628 75.3236 70.188C75.3105 70.073 75.261 69.957 75.1795 69.8782C74.6947 69.3948 74.4022 68.8041 74.0787 68.2143C73.7307 67.5911 73.2715 67.0375 72.6873 66.5913C72.5322 66.4795 72.3855 66.3279 72.278 66.2029C72.174 66.0853 72.0739 65.9569 71.9773 65.8358C71.7384 65.5342 71.588 65.2588 71.3966 65.0113C71.1087 64.6427 70.8797 64.3141 71.0085 64.2631C71.0729 64.2377 71.1565 64.2437 71.2503 64.2719L71.3117 64.2882L71.3279 64.2941L71.38 64.3192L71.4841 64.3695L71.8519 64.5529C72.0798 64.6668 72.2625 64.7702 72.4147 64.8565C72.6509 64.9979 72.6009 64.9 72.6924 64.8844C72.8443 64.8542 73.0945 64.8231 73.5611 64.9875L73.626 65.0112L73.7355 65.0635L73.9545 65.168L74.3961 65.3844C74.6828 65.5382 74.9544 65.717 75.2298 65.885C75.7296 66.2268 76.1768 66.6291 76.6003 67.0288C76.7711 67.1647 76.9159 67.3217 77.0606 67.4787C77.2054 67.6357 77.3595 67.7838 77.4914 67.9423C77.7293 68.2803 78.0154 68.587 78.1834 68.9484C78.5937 69.619 78.8903 70.45 79.0911 71.2583C79.2001 71.6472 79.2211 72.0591 79.2898 72.4578C79.3077 72.6603 79.3403 72.856 79.3837 73.0556C79.5065 73.7925 79.6179 74.5436 79.575 75.2812C79.5395 76.3339 79.304 77.3809 78.8757 78.1676C78.7687 78.4102 78.62 78.5825 78.4747 78.7622C78.3108 78.8922 78.1376 79.031 77.941 79.0327C77.8368 79.0497 77.8656 79.1889 78.023 79.4117C78.2996 79.7945 78.6067 80.1946 79.073 80.2425C79.364 80.2508 79.655 80.1917 79.8211 79.9217C79.9216 79.7134 80.0826 79.5579 80.2224 79.3763C80.3407 79.1867 80.4393 78.9839 80.4136 78.7356C80.4083 78.6663 80.4468 78.5946 80.4921 78.5377C81.3036 77.5235 81.3508 76.1873 81.3339 74.993C81.3434 74.5983 81.3622 74.1948 81.3608 73.7963C81.3445 73.5392 81.3174 73.2782 81.2883 73.0226C81.2279 72.6514 81.1144 72.2915 81.0614 71.9169C81.0092 71.6406 81.0323 71.3428 80.7003 71.1786C80.6266 71.1456 80.5998 71.0011 80.6491 70.9333C80.8387 70.6657 80.7392 70.4518 80.6619 70.2276L80.2681 69.361L79.8153 68.5218C79.548 68.1302 79.3536 67.6733 79.0715 67.2886C78.8676 66.9752 78.6769 66.6422 78.4321 66.3568C78.204 66.0591 77.9671 65.752 77.6922 65.4985C77.2466 65.0417 76.7306 64.694 76.2245 64.3192C76.1066 64.2394 76.01 64.1183 75.8902 64.044C75.6648 63.9065 75.4577 63.7022 75.1889 63.6836C74.8951 63.6498 74.7006 63.5787 74.5733 63.2566C74.5527 63.2123 74.5301 63.1734 74.4948 63.136C74.4359 63.0961 74.3662 63.0523 74.2871 63.0173C74.1363 62.9438 73.9742 62.8846 73.8264 62.8367C73.4476 62.7167 73.0929 62.6483 72.7641 62.6262C72.3572 62.6 72.0874 62.6178 71.5429 62.2474C71.2463 62.0533 70.9628 62.0416 70.7696 62.0506C70.3273 62.0544 69.9739 62.0661 69.5159 61.9784C68.9034 61.7608 68.1775 61.4343 67.3906 61.1407L66.0192 60.6029L65.2038 60.2866L64.7067 60.105C65.2704 60.7581 66.0407 61.6336 66.9553 62.6169C67.2414 62.9235 67.5668 63.2568 67.8779 63.5787L68.3607 64.0674L68.8024 64.535C69.2725 65.0252 69.663 65.4986 70.0898 65.973L70.6756 66.6831L70.9694 67.0355L71.175 67.2943C71.5655 67.7677 71.9486 68.2445 72.3243 68.7248C72.468 68.9182 72.6319 69.1066 72.7146 69.3328C72.9089 69.857 73.2184 70.3008 73.5608 70.7383C73.9773 71.2579 74.1994 71.8903 74.4 72.5147C74.445 72.6598 74.4639 72.8259 74.5458 72.9539C75.1209 73.8438 75.3164 74.9013 75.715 75.8554C76.0441 76.6309 76.4337 77.3918 76.777 78.1787C77.04 78.7831 77.3193 79.3935 77.5636 80.0156C77.5787 80.0579 77.5664 80.1084 77.5835 80.1453C77.7299 80.4989 78.0906 80.5511 78.5663 80.2716C78.983 80.0197 79.1938 79.7108 79.1073 79.3608C79.0091 78.9758 78.876 78.6026 78.7537 78.2333L78.8122 78.224Z" fill="#F8AFB8"/>
<path d="M45.7614 73.4921C43.4212 71.1304 41.9664 66.8814 43.6985 64.8561C43.8905 64.6323 44.1066 64.4602 44.3363 64.3175C45.0501 65.8338 46.0039 67.548 47.2781 69.3242C49.3134 72.1685 51.5066 74.2621 53.3587 75.7472C53.3346 75.7629 53.3139 75.7859 53.2898 75.8016C51.1595 77.3077 47.557 75.2995 45.7614 73.4921Z" fill="#F8AFB8"/>
<path d="M45.492 71.8939C45.1749 71.6556 44.9045 71.373 44.5731 71.1234C44.283 70.8949 43.988 70.6462 43.9901 70.255C43.9892 70.1567 43.9132 70.0799 43.8848 69.99C43.8276 69.8282 43.7575 69.6678 43.715 69.4992C43.7009 69.4205 43.7639 69.315 43.7129 69.2535C43.4445 68.9656 43.3183 68.6071 43.4329 68.2264C43.3053 68.1062 43.2691 67.9705 43.2659 67.8285C43.2789 67.6924 43.3253 67.5317 43.3535 67.4379C43.4171 67.2468 43.3713 67.0035 43.568 66.9345C43.6157 66.9213 43.6403 66.8874 43.6223 66.8195C43.5089 66.3923 43.6956 66.0991 43.9012 65.9722C44.0002 65.8858 44.105 65.7833 44.2261 65.6193C44.3794 65.3507 44.4102 65.4844 44.5134 65.4364C44.539 65.4335 44.5606 65.4414 44.5891 65.464C44.6745 65.532 44.7588 65.7036 44.8362 65.8605C44.9656 66.1099 45.057 66.4128 45.1687 66.6435C45.3005 66.9366 45.5351 67.451 45.6489 67.9275C45.8121 68.5873 46.0431 69.229 46.3297 69.8359C46.4791 70.1477 46.7363 70.3826 46.9693 70.6331C47.4355 71.1341 47.941 71.5944 48.415 72.0738C48.7723 72.4371 49.0941 72.8302 49.4159 73.2234C49.571 73.4025 49.7073 73.5994 49.853 73.7873L50.0722 74.0756C50.1335 74.1593 50.1384 74.1794 50.1752 74.2296C50.3341 74.4653 50.3659 74.5626 50.378 74.6467C50.379 74.6777 50.3711 74.6993 50.3489 74.7096C50.2615 74.7144 50.1597 74.7078 50.0875 74.6876C50.0025 74.6688 49.8955 74.5929 49.8493 74.5516C49.8263 74.5309 49.8263 74.5309 49.8351 74.5402C49.8488 74.5697 49.8527 74.6263 49.7751 74.604C49.0962 74.3499 48.4147 73.9355 47.7774 73.5006C47.4224 73.2484 47.0439 72.9938 46.8553 72.588C46.8039 72.4773 46.6819 72.543 46.5208 72.7659C46.242 73.1601 45.9357 73.5627 45.9214 73.9371C45.9087 74.1897 45.9355 74.4016 46.1422 74.4894C46.4394 74.598 46.5578 74.9781 46.9692 74.9079C47.0277 74.8987 47.0665 74.9435 47.0999 74.9863C47.3637 75.3705 47.7329 75.634 48.1326 75.8474C48.3354 75.9461 48.5422 76.0338 48.753 76.1108C48.9676 76.177 49.169 76.2628 49.4525 76.3419C49.6239 76.3923 49.7895 76.4589 49.9604 76.5275C50.1318 76.5778 50.3067 76.6356 50.4855 76.6826C50.7184 76.7493 50.9332 76.7481 51.1528 76.7671C51.3125 76.7826 51.4482 76.7464 51.5977 76.7398C51.7471 76.7331 51.8877 76.7172 52.0356 76.6977C52.1487 76.69 52.2833 76.6902 52.3821 76.6712C52.4707 76.6301 52.5253 76.5643 52.4779 76.4428C52.4593 76.3932 52.5763 76.3746 52.6843 76.4141C53.0832 76.5292 53.2156 76.4184 53.3671 76.339C53.4689 76.2782 53.5605 76.1953 53.6589 76.1271L53.802 76.0202L53.8729 75.9603C53.8936 75.9372 53.8612 75.9254 53.8543 75.9107C53.7596 75.7842 53.6615 75.6504 53.6038 75.5068C53.5817 75.4497 53.5577 75.3981 53.5559 75.3362C53.336 75.1334 53.1491 74.9242 52.9587 74.7076C52.7507 74.4724 52.5613 74.2195 52.3327 73.94C52.1027 73.6477 51.8726 73.3554 51.6425 73.0631C51.4031 72.7797 51.3051 72.6458 51.1677 72.4854C51.0357 72.3269 50.9057 72.1631 50.7831 71.9958C50.7252 71.9196 50.7028 71.8134 50.6449 71.7371C50.536 71.5993 50.4591 71.4242 50.2808 71.3591C50.0863 71.288 49.9724 71.1974 50.0387 70.9154C50.0777 70.7582 49.9698 70.6514 49.8736 70.5795C49.7508 70.4795 49.5833 70.4183 49.4178 70.3517C49.2179 70.2787 49.0234 70.2076 49.04 69.9442C49.0495 69.8007 48.9116 69.7258 48.7878 69.6622C48.2382 69.4063 47.9327 68.9517 47.6902 68.4589C47.358 67.7924 47.0867 67.0931 46.8096 66.4101C46.7651 66.2468 46.4117 65.6216 46.1746 65.1308C45.7547 64.2853 45.326 63.3631 44.8968 62.5265C44.667 62.6691 44.4801 62.7784 44.3488 62.8529C44.1225 63.003 43.8321 63.2277 43.6088 63.4033C43.408 63.5504 43.2421 63.7531 43.0424 63.8639C42.7955 63.9697 42.626 64.2324 42.4428 64.4656C42.2822 64.7376 42.1495 65.0504 42.0601 65.3791C41.9931 65.814 41.8534 66.1794 41.8188 66.6261C41.789 66.8418 41.7356 67.055 41.7092 67.2781C41.6987 67.3907 41.6991 67.5071 41.6886 67.6197L41.6636 67.8556C41.6413 68.0005 41.6135 68.1435 41.6517 68.2738C41.9132 69.1839 41.9615 70.1079 42.3657 70.9293C42.6911 71.581 43.1699 72.1479 43.6463 72.6711C44.0315 73.0752 44.4527 73.4312 44.8965 73.7587C44.9249 73.7813 44.9347 73.8216 44.9632 73.8443C45.2293 74.0211 45.5274 73.8422 45.8063 73.3806C46.0526 72.9746 46.1396 72.6695 45.9786 72.5065C45.8113 72.3107 45.6086 72.1448 45.4433 71.9435L45.492 71.8939Z" fill="#F8AFB8"/>
<path d="M59.0025 94.1748C58.1841 91.9894 57.3875 89.6099 56.667 87.0561C55.5793 83.2106 54.8431 79.6099 54.3359 76.3379C54.3359 76.3379 58.9756 78.5413 60.7258 82.3839C63.1917 87.8047 61.6395 93.0253 59.0025 94.1748Z" fill="#F8AFB8"/>
<path d="M59.1783 92.249C58.9081 91.8318 58.6768 91.392 58.3643 90.99C58.0926 90.6274 57.8189 90.2702 57.8358 89.8048C57.8429 89.6849 57.7713 89.5791 57.7346 89.4616C57.6696 89.2541 57.6099 89.0485 57.5576 88.8396C57.5367 88.7461 57.5968 88.615 57.5389 88.5388C57.2549 88.1594 57.0831 87.7414 57.1315 87.2568C56.8228 86.9787 56.8862 86.6038 56.8563 86.2499C56.8337 85.8925 56.6922 85.5591 56.7685 85.1828C56.7878 85.0796 56.7761 84.9773 56.7276 84.8922C56.4089 84.3899 56.3341 83.8236 56.2519 83.2608C56.1599 82.6576 55.9691 82.0734 55.6426 81.5254C55.4691 81.2293 55.4003 80.8979 55.3423 80.5705C55.2657 80.1935 55.2472 79.758 55.1951 79.4144C55.1446 79.0162 55.1285 78.6245 55.2217 78.4197C55.2296 78.398 55.2409 78.3838 55.2523 78.3696C55.3109 78.293 55.3704 78.2474 55.4275 78.2253C55.457 78.2116 55.4825 78.2087 55.5135 78.2078C55.5263 78.2063 55.5444 78.2068 55.5552 78.2108C55.568 78.2093 55.5808 78.2079 55.625 78.2546C55.7737 78.4008 55.8919 78.5298 55.9891 78.6326C56.0754 78.7316 56.1118 78.7326 56.1609 78.7322C56.1865 78.7293 56.2121 78.7264 56.2445 78.7382C56.3369 78.7536 56.4489 78.7823 56.5874 78.839C56.609 78.8469 56.6144 78.8489 56.6448 78.8661L56.7647 78.9405C56.8452 78.9883 56.9237 79.0415 57.0003 79.1001C57.1501 79.2099 57.3072 79.3163 57.4549 79.4316C57.8889 79.7861 58.2849 80.1941 58.6159 80.6458C58.7813 80.847 58.9131 81.0728 59.0342 81.2947C59.168 81.5151 59.2669 81.7472 59.388 81.969C59.4816 82.1318 59.5551 82.2995 59.6231 82.4653C59.6892 82.6364 59.774 82.7899 59.8268 82.9807C59.9383 83.346 60.0901 83.7016 60.1687 84.0733C60.262 84.4381 60.3607 84.8048 60.4137 85.1794C60.4869 85.5491 60.5217 85.9232 60.5531 86.2899C60.5958 86.6423 60.5383 87.0011 60.5446 87.3525C60.5306 87.525 60.5274 87.7014 60.5369 87.8764C60.5714 88.5198 60.5438 89.165 60.4333 89.7861C60.2678 90.6749 59.9166 91.502 59.4561 92.1422C59.2039 92.4972 58.8977 92.8324 58.5247 92.8308C58.4299 92.839 58.4532 92.9762 58.5959 93.2059C58.8538 93.6064 59.1368 94.0221 59.5544 94.1196C59.8295 94.1711 60.0832 94.1474 60.2496 93.9265C60.3511 93.7492 60.5037 93.6335 60.6479 93.4902C60.7847 93.3503 60.8789 93.1765 60.8709 92.9469C60.869 92.885 60.9197 92.83 60.9699 92.7932C61.8395 92.0392 62.0511 90.8732 62.1991 89.831C62.2345 89.4826 62.3589 89.1422 62.3816 88.7953C62.4025 88.5702 62.4309 88.3417 62.4229 88.1122C62.4032 87.7804 62.3708 87.4501 62.3674 87.1242C62.3653 86.8785 62.4345 86.622 62.1286 86.4368C62.0697 86.3969 62.0679 86.2676 62.124 86.2146C62.3538 86.0046 62.2922 85.8045 62.2542 85.6068C62.2074 85.3325 62.1203 85.068 62.0387 84.8054C61.959 84.5374 61.89 84.2734 61.801 84.0143C61.6792 83.6268 61.6017 83.2188 61.4946 82.8244C61.3575 82.2109 61.215 81.528 60.923 80.9191C60.8104 80.6575 60.6736 80.4115 60.5181 80.1832C60.3666 79.9442 60.2132 79.7105 60.043 79.489C59.9714 79.3833 59.9278 79.251 59.8489 79.1486C59.7012 78.9661 59.5673 78.7457 59.3517 78.6486C59.1091 78.5415 58.9574 78.4371 58.9486 78.1093C58.9429 77.9235 58.7883 77.7935 58.6415 77.7092C58.4628 77.5949 58.2427 77.5268 58.0315 77.468C57.8123 77.4308 57.4277 77.2597 57.1713 76.872C57.0193 76.6511 56.7226 76.5243 56.5153 76.4547C56.3296 76.393 56.1508 76.346 55.9853 76.2794C55.8144 76.2109 55.6474 76.1315 55.499 76.1018C55.112 76.2054 54.7897 76.1489 54.4845 76.1292L54.2285 76.1092C54.1671 76.0929 54.1621 76.14 54.1375 76.1739L54.071 76.2721C54.0217 76.3399 53.9912 76.39 53.9036 76.4621C53.8288 76.5327 53.7451 76.594 53.6561 76.6534C53.5744 76.7093 53.417 76.8049 53.295 76.8705C53.319 77.2407 53.3533 77.6329 53.3925 78.0453C53.4201 78.3555 53.4672 78.6789 53.5178 79.0098L53.6575 79.9183C53.8185 81.0366 54.1186 82.1262 54.4517 83.2094C54.5147 83.4223 54.5906 83.6338 54.5952 83.8559C54.5969 84.371 54.7451 84.8538 54.9483 85.3201C55.1962 85.8822 55.2572 86.4863 55.3162 87.0958C55.3322 87.2364 55.3133 87.3888 55.3696 87.5196C55.7644 88.4171 55.8125 89.4085 56.1562 90.3119C56.4337 91.0441 56.8087 91.7445 57.1728 92.441C57.4541 92.9786 57.7703 93.5045 58.0757 94.0264C58.0948 94.0579 58.0898 94.1051 58.1123 94.1439C58.2986 94.4386 58.656 94.4161 59.0895 94.0845C59.4728 93.7897 59.6433 93.4906 59.5312 93.2108C59.4053 92.9015 59.2574 92.6024 59.1187 92.2946L59.1783 92.249Z" fill="#F8AFB8"/>
<path d="M27.0595 75.1428C28.63 76.9293 30.4127 78.8055 32.4273 80.7174C34.6014 82.7795 36.7268 84.5727 38.7297 86.1313C36.6879 87.5289 32.0408 86.3516 29.3629 83.7074C27.048 81.4101 25.3319 77.139 27.0595 75.1428Z" fill="#F8AFB8"/>
<path d="M27.4896 76.8624C27.8701 77.1116 28.2265 77.3766 28.641 77.5832C29.0088 77.7665 29.3772 77.9317 29.5388 78.3276C29.5814 78.4289 29.6835 78.4846 29.7542 78.5594C29.8867 78.6997 30.0211 78.8346 30.1497 78.9857C30.2041 79.0546 30.2039 79.1892 30.283 79.2242C30.6803 79.3939 30.9935 79.6431 31.1566 80.0517C31.5315 80.1152 31.644 80.4442 31.824 80.7059C32.002 80.9731 32.2715 81.1573 32.3801 81.4971C32.4085 81.5871 32.4664 81.6633 32.5509 81.7003C33.0489 81.9129 33.3781 82.3026 33.7294 82.6821C34.1018 83.0876 34.555 83.4063 35.1007 83.6057C35.3925 83.7123 35.6197 83.9117 35.8416 84.1091C36.1346 84.3631 36.2641 84.5452 36.4643 84.7347C36.7372 84.9936 36.9697 85.2624 36.9199 85.4156C36.908 85.448 36.8927 85.4731 36.8794 85.4927C36.9392 85.6309 36.1863 85.6131 35.9205 85.5527C35.7377 85.5165 35.77 85.5957 35.6943 85.6354C35.6239 85.6771 35.5408 85.7202 35.4198 85.7495C35.2719 85.7689 35.1455 85.7963 34.7652 85.7308C34.2812 85.6642 33.8131 85.4871 33.3657 85.2869C32.9473 85.0911 32.5766 84.8148 32.1941 84.571C31.6388 84.1966 31.1136 83.7903 30.6478 83.3385C30.1969 82.8797 29.798 82.3788 29.4534 81.8303C29.2862 81.5671 29.1672 81.2725 29.0295 80.9956C28.9643 80.8554 28.8918 80.7187 28.8045 80.5888C28.5109 80.1018 28.2177 79.5966 28.0362 79.0709C27.7592 78.3205 27.6414 77.5364 27.7156 76.9143C27.7456 76.564 27.8243 76.2314 28.107 76.1448C28.1714 76.1193 28.089 76.0096 27.8641 75.854C27.4694 75.5934 27.0363 75.3371 26.6356 75.4112C26.3756 75.4693 26.1645 75.5943 26.1283 75.8445C26.1285 76.0283 26.0491 76.1952 25.9987 76.3667C25.9611 76.5367 25.9613 76.7205 26.08 76.8986C26.1113 76.9468 26.0931 77.0136 26.0807 77.0642C25.716 78.0456 26.117 79.0434 26.4784 79.8982C26.594 80.1854 26.6727 80.4897 26.7862 80.7823C26.8666 80.9648 26.9577 81.1512 27.0528 81.3268C27.2077 81.5733 27.3828 81.8148 27.523 82.0682C27.6303 82.2605 27.6653 82.4999 28.0168 82.4935C28.0915 82.4902 28.1469 82.5901 28.1138 82.6637C27.993 82.9442 28.1274 83.0791 28.2491 83.2154C28.5788 83.5869 28.942 83.934 29.3131 84.2594C29.5731 84.5198 29.8426 84.7714 30.0968 85.048C30.5036 85.4599 30.9059 85.9009 31.3836 86.2531C31.7827 86.552 32.2242 86.7684 32.6672 86.9976C32.7713 87.0479 32.8596 87.1414 32.9657 87.1863C33.1617 87.2702 33.3507 87.4066 33.5719 87.371C33.8187 87.3326 33.9759 87.3716 34.1249 87.6343C34.2097 87.7878 34.3964 87.8131 34.5507 87.8266C34.5979 87.8316 34.647 87.8312 34.6982 87.8254C34.7675 87.8201 34.8442 87.8114 34.9208 87.8026C35.0742 87.7852 35.2187 87.7584 35.3505 87.733C35.5152 87.7013 35.6617 87.6691 35.8165 87.6644C35.9753 87.6489 36.135 87.6644 36.3472 87.7542C36.5776 87.8445 36.8479 87.8085 36.9891 87.707C37.7155 87.3783 38.2943 87.1855 39.0521 86.9051C39.326 86.8092 39.6358 86.6651 39.9565 86.5251C40.1769 86.3912 40.2153 86.3195 40.476 86.1759C40.1006 85.8121 39.6898 85.411 39.2304 84.992C38.8226 84.6164 38.3514 84.2299 37.9057 83.8404L36.9392 83.0158L36.3738 82.5519L35.2088 81.667C35.0556 81.5498 34.8931 81.4414 34.7887 81.2746C34.5465 80.8983 34.2048 80.6265 33.8331 80.3866C33.3863 80.1008 33.071 79.6732 32.7703 79.2388C32.6968 79.1384 32.6513 79.0116 32.5531 78.9451C31.8608 78.4594 31.4383 77.7049 30.8302 77.1397C30.3355 76.6834 29.7734 76.2942 29.2284 75.8747C28.8043 75.5605 28.3747 75.2443 27.9452 74.9281C27.9167 74.9055 27.9123 74.8672 27.8838 74.8445C27.6339 74.6736 27.3147 74.8264 27.0162 75.2747C26.7537 75.6748 26.6898 76.0006 26.8753 76.197C27.0838 76.4141 27.3165 76.6154 27.5363 76.8182L27.4896 76.8624Z" fill="#F8AFB8"/>
<path d="M47.5289 119.776L40.0334 129.195L27.7408 124.134C27.2821 123.948 26.8199 124.392 26.9922 124.859L31.8933 138.115L23.7379 149.356C23.4197 149.791 23.8287 150.382 24.3479 150.234L35.4619 147.172L39.6369 156.665C39.8539 157.161 40.5818 157.096 40.708 156.567L43.9016 143.249L59.6791 138.302C60.1989 138.136 60.2142 137.407 59.699 137.225L46.7717 132.661L48.5284 120.209C48.6212 119.636 47.8913 119.321 47.5289 119.776Z" fill="#F1D1D5"/>
<path d="M43.1245 123.986C42.6443 124.68 42.1587 125.372 41.6804 126.061L40.9627 127.103L40.613 127.625L40.4381 127.886C40.383 127.97 40.3145 128.073 40.2913 128.12L39.9168 128.742C39.7272 128.692 39.5213 128.635 39.314 128.565L39.15 128.511L38.9447 128.436L38.534 128.286C37.9922 128.076 37.4603 127.839 36.9334 127.554C36.5857 127.366 36.178 127.242 35.8077 127.082L33.7521 126.221C33.4412 126.083 33.1491 125.86 32.8495 125.775C32.1475 125.567 31.4588 125.34 30.7839 125.075C30.4454 124.945 30.1109 124.805 29.7804 124.653C29.4229 124.492 28.9902 124.285 28.5649 124.074C28.4608 124.024 28.3512 123.972 28.2432 123.932C27.9198 123.912 27.6762 123.842 27.3832 123.839C27.075 123.861 26.7684 124.147 26.7178 124.453C26.6861 124.607 26.7297 124.739 26.7457 124.88L26.8202 125.329C26.8856 125.653 27.0099 126.017 27.1214 126.383C27.3278 126.991 27.5324 127.605 27.7423 128.22C27.935 128.799 28.1204 129.381 28.2473 129.973C28.3166 130.286 28.4286 130.633 28.5658 130.928C29.4198 132.698 30.0328 134.557 30.6748 136.421L31.008 137.369L31.2513 138.028L30.8164 138.665L30.2193 139.561C29.8272 140.165 29.4513 140.775 29.0916 141.391C28.5234 142.359 27.8305 143.3 27.1597 144.231C26.7563 144.782 26.3441 145.323 25.9319 145.865L24.6422 147.568C24.2935 148.053 23.8656 148.57 23.6251 149.028C23.5092 149.261 23.3748 149.444 23.3027 149.675C23.2394 149.916 23.347 150.224 23.5512 150.403C23.6523 150.495 23.7707 150.557 23.8866 150.575C24.0006 150.598 24.1049 150.581 24.214 150.584C24.4307 150.577 24.6691 150.579 24.9502 150.547C25.5279 150.458 26.1862 150.282 26.847 150.15C28.1571 149.899 29.4403 149.639 30.7402 149.367C32.0184 149.087 33.2967 148.807 34.573 148.532C34.6752 148.52 34.7593 148.508 34.8493 148.48C34.8733 148.532 34.8973 148.583 34.9267 148.637L34.9718 148.714C34.9821 148.737 34.9772 148.716 35.0027 148.781L35.0835 148.945L35.7121 150.259L37.465 153.943L38.6275 156.444C38.8479 156.947 39.1335 157.205 39.3529 157.426C39.4702 157.524 39.5546 157.628 39.698 157.705C39.8522 157.786 40.0639 157.826 40.2792 157.807C40.6022 157.778 40.8895 157.595 40.989 157.423C41.1127 157.236 41.2525 157.054 41.3915 156.774C41.5354 156.514 41.6358 156.122 41.7214 155.737L42.0018 154.584L42.7796 151.5L44.2732 145.97L44.5941 144.74L44.6756 144.433L44.7161 144.288L44.7319 144.245L44.7877 144.076L58.508 140.049L59.9929 139.605C60.4871 139.443 60.7873 139.191 60.9734 138.983C61.1694 138.749 61.2708 138.639 61.3858 138.307C61.4988 137.981 61.4936 137.526 61.4041 137.218C61.3577 137.06 61.3239 136.968 61.2651 136.861L61.1823 136.702C61.1475 136.646 61.0965 136.585 61.0562 136.527C61.0146 136.457 60.9277 136.376 60.8462 136.297C60.7776 136.217 60.6558 136.148 60.5487 136.072C60.3145 135.925 59.9736 135.819 59.6548 135.703L57.745 135.029L50.5825 132.59L48.2634 131.78L49.1195 125.631C49.2577 124.616 49.4013 123.603 49.5394 122.588C49.6139 122.082 49.6938 121.578 49.7865 121.073L49.8574 120.695L49.8955 120.507L49.9109 120.414C49.9223 120.333 49.9348 120.215 49.9339 120.116C49.9424 119.691 49.7849 119.217 49.4999 118.874C49.2168 118.525 48.8412 118.296 48.4182 118.197C47.9411 118.078 47.4834 118.174 47.177 118.325C46.8632 118.48 46.6958 118.67 46.6214 118.79C46.4701 119.053 46.5807 119.069 46.8787 118.957C47.4191 118.769 47.9659 118.932 48.2622 119.261C48.4124 119.42 48.5192 119.63 48.5297 119.836C48.5451 120.062 48.425 120.19 48.318 120.432C48.0324 121.063 47.7971 121.657 47.7516 122.486C47.6864 123.687 47.2894 124.907 47.4134 126.11C47.4303 126.282 47.3818 126.515 47.3363 126.707C47.1048 127.676 46.9166 128.66 46.7485 129.64L46.5152 131.116L46.2524 132.993L51.0203 134.594C52.1142 134.969 53.1918 135.405 54.2779 135.802C54.9803 136.059 55.6901 136.312 56.4019 136.56L57.1608 136.813L57.7037 136.986C58.0696 137.108 58.4464 137.233 58.7794 137.361C59.0634 137.422 59.1085 137.818 58.9318 138.017C58.8505 138.122 58.7389 138.142 58.6681 138.202C58.5918 138.26 58.5426 138.328 58.5002 138.41C58.479 138.452 58.3427 138.506 58.2016 138.54C58.0935 138.568 57.9784 138.581 57.9003 138.577C57.5553 138.549 57.3258 138.557 57.1134 138.602C56.8332 138.665 56.4841 138.782 56.1698 138.888C54.4247 139.457 52.6899 140.048 50.9419 140.591C49.6492 140.995 48.3393 141.362 47.032 141.705L45.3691 142.132L44.5387 142.343L43.3026 142.676L43.0126 143.721L42.7986 144.457L42.3989 145.836C41.9157 147.528 41.4865 149.239 41.0303 150.94C40.9245 151.33 40.779 151.712 40.6786 152.104C40.5827 152.467 40.4848 152.836 40.3815 153.202C40.3326 153.386 40.2911 153.567 40.2549 153.75C40.2277 153.875 40.2435 153.831 40.2405 153.873L40.2512 153.944C40.3049 154.166 40.234 154.544 40.0724 154.216C39.9852 154.019 39.934 154.025 39.9105 154.022C39.8795 154.023 39.8052 154.075 39.6677 153.982C39.6352 154.038 39.372 153.568 39.2064 153.25C39.0324 152.905 38.8865 152.533 38.7967 152.109C38.6986 151.656 38.3943 151.098 38.1286 150.652C37.7692 150.043 37.432 149.423 37.1116 148.792L36.8759 148.314L36.6064 147.744L35.9305 146.241L33.9883 146.763L32.6963 147.081L28.1288 148.15L26.9858 148.412L26.4381 148.536L26.3122 148.546C26.154 148.543 26.0453 148.589 25.982 148.511C25.936 148.402 26.0713 148.317 26.1112 148.258L26.1919 148.171L26.2239 148.134L26.2332 148.125L26.2938 148.043L26.4337 147.861C27.5442 146.381 28.6262 144.877 29.6975 143.37L33.2561 138.307L33.0172 137.687C32.8409 137.23 32.6647 136.774 32.4885 136.318C32.3548 135.963 32.232 135.611 32.1293 135.256C31.6467 133.609 31.0294 132.03 30.3663 130.459C29.9637 129.516 29.6108 128.554 29.2781 127.587L29.0349 126.861L28.9161 126.499L28.8539 126.317C28.8319 126.26 28.8476 126.285 28.8427 126.264C28.8374 126.195 28.8498 126.144 28.8685 126.127C28.8837 126.102 28.9751 126.153 28.9702 126.133C28.9707 126.115 28.9855 126.108 29.0036 126.109C29.0144 126.113 29.0272 126.111 29.038 126.115L29.0542 126.121L29.1603 126.166L30.1584 126.586L32.1466 127.447C33.4712 128.029 34.7904 128.609 36.1348 129.137C37.5784 129.695 39.0186 130.245 40.4568 130.802L41.7067 129.157L42.3376 128.286L43.5974 126.547C44.7858 124.887 45.9689 123.224 47.1554 121.57C47.2312 121.462 47.3395 121.367 47.4119 121.253C48.0724 120.3 48.0412 119.799 47.2921 119.905C46.627 119.998 45.9412 120.434 45.2971 121.258C44.585 122.168 43.896 123.098 43.1962 124.024L43.1245 123.986Z" fill="#F8AFB8"/>
</svg>
