<svg width="206" height="148" viewBox="0 0 206 148" fill="none" xmlns="http://www.w3.org/2000/svg">
<path d="M1.36834 26.2994C1.34533 26.098 1.51217 25.9312 1.70776 25.9542C10.5437 26.8401 19.9837 27.4154 29.9587 27.5247C34.1006 27.5707 38.1446 27.5362 42.0852 27.4269C42.1599 27.4269 42.229 27.4499 42.2922 27.4959C42.9135 28.0137 45.8818 30.2917 49.7591 29.4691C52.7159 28.842 54.3784 26.7941 54.8501 26.1671C54.8674 26.1383 54.8904 26.1211 54.9192 26.1038C58.5721 23.5612 62.3515 20.7712 66.2 17.7165C71.5844 13.4424 76.4396 9.1797 80.7943 5.05509C80.9899 4.87101 81.312 5.00332 81.3178 5.27369C81.5766 15.496 82.2267 26.3914 83.4347 37.8678C84.2171 45.3404 85.1778 52.5024 86.265 59.348C86.288 59.4746 86.2247 59.6011 86.1097 59.6701C80.9496 62.6155 75.7838 65.5665 70.6237 68.5119C68.1559 69.9212 65.6938 71.3249 63.2259 72.7343C63.1856 72.7573 63.1453 72.7918 63.1223 72.8321C60.9709 76.2261 57.5826 78.1532 54.4014 77.6872C53.0208 77.4859 51.9106 76.8646 51.0937 76.2318C51.0477 76.1973 50.9959 76.1743 50.9384 76.1686C45.7955 75.6681 40.3709 75.2884 34.6988 75.0871C25.5465 74.7649 16.9808 74.9375 9.0883 75.4265C8.92723 75.438 8.78916 75.3287 8.7604 75.1734C7.60413 68.9491 6.49965 62.581 5.46994 56.0748C3.85921 45.8697 2.5016 35.9407 1.36834 26.2994Z" fill="#C0E3EB"/>
<path d="M13.2072 26.0695C16.5379 26.3974 19.9032 26.639 23.2052 26.9094C26.1562 27.1337 29.0555 27.3868 32.0814 27.174C32.8637 27.1279 33.7036 27.1567 34.5205 27.151C35.9989 27.1337 37.483 27.1165 38.9615 27.0992C39.6345 27.0877 40.3421 26.9841 40.9691 27.0129L41.9241 27.0474C42.1427 27.0474 42.367 27.0647 42.5281 27.2315L42.9768 27.5939C43.2414 27.7952 43.5175 27.9908 43.8109 28.1577C44.3862 28.5028 45.0074 28.7847 45.6517 28.9803C46.9345 29.3887 48.3267 29.429 49.6095 29.0896C50.5932 28.986 51.5481 28.6236 52.3765 28.0771C53.2106 27.5191 53.9124 26.8346 54.5107 25.9947C54.6258 25.8279 54.8386 25.684 54.9594 25.592L55.3678 25.2871C57.3065 23.8432 59.3256 22.4396 61.1319 20.8691C61.6094 20.4549 62.1789 20.0005 62.7081 19.6381C65.9123 17.4176 68.9037 14.9152 71.8548 12.3323C74.5297 9.98525 77.2047 7.64394 79.8681 5.31414C79.9659 5.22785 80.0464 5.18184 80.127 5.13007L80.3686 4.9805L80.8518 4.68137C80.9783 4.55481 81.2315 4.56056 81.3983 4.71013C81.5651 4.84819 81.5076 5.0898 81.5421 5.3084C81.5881 5.94694 81.6342 6.5567 81.6629 7.20099C81.6744 7.79926 81.6802 8.39753 81.6917 9.00155C81.7204 10.1463 81.7665 11.3026 81.8125 12.4416C81.9276 15.1568 82.1346 17.872 82.3245 20.5815C82.5948 24.522 82.9573 28.4223 83.4692 32.3053C84.1538 37.4999 84.8959 42.7174 85.6955 47.9293C86.1039 50.5812 86.4145 53.2965 86.7827 55.9714L87.2199 59.0606C87.2544 59.2964 87.2429 59.515 87.2027 59.7106C87.1566 59.9177 87.0301 60.1248 86.8805 60.2571C86.7367 60.4067 86.5354 60.5332 86.3283 60.6425L85.799 60.9359L84.3321 61.747L81.3925 63.3635L75.5249 66.6195C71.964 68.6156 68.4262 70.6635 64.8941 72.7114L63.7839 73.3615C63.7379 73.3845 63.7206 73.442 63.6919 73.4765L63.5078 73.7584C63.3755 73.9713 63.2144 74.1726 63.0648 74.3739C62.4493 75.1851 61.7417 75.9271 60.9363 76.5772C59.3429 77.8715 57.2835 78.7689 55.0745 78.7114C54.2633 78.6826 53.4523 78.5388 52.6929 78.2512C52.3132 78.1131 51.9451 77.9405 51.5942 77.7507C51.4158 77.6529 51.249 77.5493 51.0822 77.4458C50.9326 77.3538 50.691 77.1812 50.7025 77.187C50.668 77.1467 50.6105 77.1467 50.5587 77.1467L50.087 77.1064L49.0342 77.0201L46.9288 76.8591C44.1216 76.652 41.3143 76.4966 38.507 76.3816C32.8867 76.1515 27.2607 76.1055 21.6462 76.2378C18.9482 76.301 16.2503 76.4449 13.5581 76.5944C12.885 76.6347 12.2119 76.6692 11.5389 76.7095L10.5264 76.767L9.86491 76.8073C9.53126 76.8188 9.18036 76.8705 8.86396 76.836C8.57058 76.79 8.35772 76.7095 8.12762 76.5657C8.01256 76.4909 7.90327 76.3931 7.81123 76.301C7.71919 76.209 7.6559 76.1112 7.58687 75.9962C7.44881 75.7718 7.36827 75.4669 7.328 75.162L7.18994 74.3452L6.87932 72.4814L6.25803 68.7479L5.00973 61.2868L4.10081 55.9484L3.27243 50.5927C2.73744 47.0204 2.22545 43.448 1.74798 39.8642C1.20724 35.8029 0.724056 31.7415 0.0912718 27.709C-0.0870584 26.5757 -0.000790649 26.196 0.321354 26.5872C0.885108 27.266 1.44885 27.7895 1.96659 29.6994C2.31749 30.9937 2.61662 32.2017 2.75469 33.8412C2.95603 36.2228 3.50831 38.6907 3.54282 41.055C3.54858 41.3886 3.62909 41.8661 3.69812 42.2515C4.99245 49.1718 5.88987 56.1785 7.09216 63.1391C7.47183 65.4171 7.91479 67.6837 8.32322 69.956L9.07681 74.2934C9.11132 74.4775 9.12282 74.6616 9.18035 74.8399C9.22637 74.9262 9.32415 74.9607 9.41619 74.9492L9.69234 74.9377L11.1592 74.8687C12.2465 74.8169 13.3395 74.7651 14.4209 74.7191C16.0604 74.6328 17.6539 74.489 19.1381 74.7421C19.4487 74.7939 20.3116 74.7594 20.6107 74.6903C21.767 74.4027 23.1246 74.42 24.488 74.42C28.1524 74.4315 31.8168 74.535 35.4812 74.6731C38.1906 74.7824 40.9058 74.8917 43.6096 75.001C45.7093 75.0987 47.8032 75.2081 49.8914 75.3404L50.6738 75.3922C50.8578 75.4094 51.0707 75.4094 51.2548 75.4669C51.4446 75.5302 51.5941 75.6625 51.7667 75.7718C52.1637 76.0364 52.5721 76.2608 53.0035 76.4391C53.8607 76.79 54.7753 76.9338 55.6842 76.8533C57.2087 76.7267 58.6871 76.0249 59.9124 75.0125C60.5279 74.5062 61.0859 73.9137 61.5806 73.2752C61.7014 73.1084 61.828 72.953 61.9373 72.7862L62.1041 72.5331L62.2422 72.326C62.294 72.2455 62.3515 72.1707 62.409 72.1017C62.5298 71.9636 62.6909 71.8658 62.8577 71.7738L63.1799 71.5839L63.7494 71.2503C64.4512 70.8361 65.1185 70.3932 65.8203 69.9847C67.1089 69.2369 68.4377 68.4027 69.7033 67.7872C71.1069 67.1027 72.1711 66.5217 73.3044 65.607C73.9372 65.095 75.059 64.468 75.9794 63.9733C77.1587 63.3347 78.3552 62.7537 79.5402 62.1785C80.9611 61.4881 82.29 60.8553 83.6763 59.8659C84.0215 59.6185 84.4529 59.3597 84.9016 59.1123C84.9592 59.0835 85.0167 59.0606 85.0857 59.0318C85.1605 58.9973 85.1375 58.9225 85.149 58.8592C85.149 58.8362 85.149 58.8189 85.1547 58.7959C85.1547 58.7614 85.1605 58.7902 85.1547 58.6981L85.1317 58.4853L85.0914 58.0596L85.0052 57.2082L84.8153 55.4997C84.6715 54.3607 84.5335 53.2217 84.3896 52.0827C84.0733 49.8046 83.7569 47.5209 83.4462 45.2428C82.5776 39.0473 81.8067 32.846 81.2142 26.6102C80.9841 24.1711 80.8058 21.709 80.6447 19.2584C80.4664 16.6065 80.3341 13.9545 80.2363 11.3026L80.127 7.74749L80.1327 7.52315C80.1327 7.47138 80.0752 7.47138 80.0579 7.50589L79.9717 7.57492L79.8911 7.63819L79.8681 7.65545L79.7933 7.72448L79.4654 8.01786L78.1596 9.19139L75.5192 11.5039C74.3802 12.4876 73.2066 13.4656 72.1079 14.455C69.5652 16.756 66.8903 18.873 64.129 20.8922C61.339 22.9631 58.5606 25.0225 55.7821 27.0819C55.7936 27.0762 55.736 27.151 55.69 27.2085L55.5462 27.3868L55.2528 27.732C55.0514 27.9563 54.8444 28.1749 54.6258 28.382C53.8492 29.1298 52.9345 29.7972 51.9278 30.2228C50.1215 30.9822 48.0736 31.1893 46.1637 30.7923C45.2088 30.5968 44.2999 30.2689 43.4485 29.8432C43.0228 29.6303 42.6086 29.3945 42.2117 29.1241C42.1139 29.0608 42.0161 28.986 41.9125 28.917L41.7745 28.8135C41.763 28.8077 41.763 28.8077 41.763 28.8077C41.7572 28.802 41.7457 28.802 41.7342 28.8077L37.1609 28.894C35.5732 28.917 33.9797 28.9343 32.392 28.94C27.0881 28.9515 21.7958 28.6121 16.5207 28.2325C12.4478 27.9276 8.39223 27.5076 4.34241 27.0301C4.07779 27.0014 3.79593 26.9956 3.53131 26.9611C2.95605 26.8863 2.47857 26.8058 2.1104 26.7195C2.01836 26.6965 1.9321 26.6735 1.85156 26.6505C1.81129 26.639 1.77102 26.6275 1.7365 26.616L1.68471 26.5987L1.67323 26.593H1.66747L1.69623 26.2881V26.2823C1.69048 26.2593 1.70198 26.2823 1.69623 26.2766C1.66747 26.2766 1.78827 26.2708 1.6272 26.2823C1.57543 26.2823 1.51215 26.2593 1.48339 26.173C1.45462 26.0982 1.47763 25.9372 1.66172 25.8509C2.71444 25.477 4.22735 25.3734 6.31554 25.5575C8.61082 25.7646 10.9004 25.9774 13.1956 26.15L13.2072 26.0695Z" fill="#A0D0DB"/>
<path d="M56.2088 27.9335C56.2203 28.526 56.2778 29.1128 56.2376 29.7053C56.1915 30.2346 56.1455 30.7523 56.4044 31.2298C56.4734 31.3506 56.4619 31.5001 56.4907 31.6382L56.646 32.386C56.6748 32.5011 56.7898 32.5989 56.7783 32.7139C56.715 33.2604 56.7668 33.7897 57.0314 34.2786C56.8876 34.7216 57.1177 35.0955 57.2558 35.4924C57.3938 35.8894 57.4168 36.315 57.6527 36.689C57.716 36.7868 57.7505 36.9076 57.739 37.0226C57.6699 37.7129 57.8483 38.363 58.0036 39.0187C58.1704 39.7206 58.2279 40.4396 58.1417 41.1817C58.0956 41.5729 58.1647 41.9698 58.228 42.3552C58.3027 42.8154 58.4408 43.2642 58.5271 43.7244C58.6594 44.3859 58.8262 45.0417 59.0851 45.6803C59.4302 46.5316 59.7351 47.4003 59.9883 48.2747C60.1206 48.7176 60.1206 49.1951 60.1608 49.6553C60.2356 50.5814 60.2759 51.5191 60.3737 52.4395C60.4484 53.1356 60.5807 53.8202 60.7188 54.5047C60.8511 55.1433 61.0409 55.7703 61.1848 56.4088L62.4273 62.0694C62.5251 62.5238 62.6632 62.9668 62.7725 63.4212C62.83 63.6456 62.8703 63.8757 62.8991 64.1058C63.0199 64.9572 63.1177 65.8086 63.2615 66.6542C63.4571 67.868 63.7044 69.0645 63.9345 70.2553C64.0553 70.9398 64.1934 71.5899 64.4925 72.2112C64.5788 72.3838 64.4695 72.4758 64.1819 72.4758C63.6929 72.4758 63.1867 72.5046 62.83 72.2457C62.5884 72.0731 62.3986 71.8948 62.3986 71.6014C62.3986 71.1757 62.0937 70.8018 62.3008 70.3416C62.3295 70.2783 62.3008 70.1978 62.2663 70.1345C61.6967 69.0185 61.6565 67.7874 61.4724 66.5909C61.4091 66.1997 61.2941 65.8201 61.2136 65.4289C61.1618 65.1758 61.1157 64.9227 61.0755 64.6695C61.0237 64.3014 61.0065 63.9217 60.9202 63.5593C60.8569 63.2832 60.7188 63.0301 60.9604 62.7367C61.0122 62.6734 60.9719 62.5296 60.8971 62.4893C60.6038 62.334 60.598 62.1039 60.5692 61.8738C60.4887 61.2525 60.4312 60.6255 60.3219 60.0099C60.2413 59.5555 60.132 59.101 59.994 58.6581C59.7811 57.9678 59.5223 57.2832 59.3209 56.5872C59.1541 56.0062 59.0448 55.4136 58.901 54.8269C58.8665 54.6888 58.7917 54.5623 58.7629 54.4299C58.7112 54.1768 58.6076 53.9237 58.6594 53.6706C58.7169 53.3887 58.7054 53.1816 58.4408 52.9745C58.2912 52.8595 58.2682 52.6409 58.2625 52.4625C58.2567 52.2324 58.3085 51.9908 58.3603 51.755C58.4235 51.4731 58.4926 51.2085 58.274 50.9496C58.1589 50.8115 58.1819 50.5872 58.2164 50.4031C58.3718 49.592 58.2279 48.8154 58.0266 48.0503C57.7562 47.0148 57.4456 45.9794 57.1637 44.9439C57.0544 44.5355 56.9796 44.1271 56.8934 43.7129C56.6345 42.4358 56.4907 41.1357 56.3584 39.8414C56.3296 39.5882 56.3123 39.3236 56.226 39.0878C56.0189 38.5298 55.9442 37.9603 55.9269 37.3735C55.9039 36.6659 55.691 35.9987 55.4725 35.3314C55.4207 35.176 55.3344 35.0265 55.3286 34.8654C55.2596 33.7494 54.8454 32.6909 54.6728 31.6037C54.5405 30.7178 54.506 29.8146 54.4198 28.9287L54.345 27.8933L54.2414 26.8808C54.2356 26.8348 54.2012 26.8003 54.2012 26.7542C54.1724 26.3688 54.4657 26.1387 55.0065 26.1617C55.4897 26.1847 55.8176 26.3688 55.9039 26.7312C56.0017 27.1282 56.0765 27.5366 56.1283 27.9278L56.2088 27.9335Z" fill="#A0D0DB"/>
<path d="M6.59872 22.0777C7.62268 22.4459 8.66388 22.7738 9.67058 23.165C10.5737 23.5159 11.4596 23.8553 12.4491 23.8955C12.7022 23.9071 12.9668 23.9991 13.2257 24.0451C13.6974 24.1372 14.1634 24.2292 14.6408 24.304C14.8594 24.3385 15.101 24.2867 15.2909 24.3557C16.24 24.6952 17.2122 24.908 18.2247 24.8965C18.9552 25.2416 19.7376 25.2014 20.5199 25.2532C21.3023 25.2992 22.0847 25.4602 22.8728 25.397C23.0799 25.3797 23.3157 25.397 23.5171 25.4545C24.7424 25.8054 26.0022 25.8802 27.2678 25.9722C28.6254 26.0643 29.9657 26.2483 31.2946 26.5647C32.0021 26.7316 32.7557 26.7834 33.4921 26.8294C34.3722 26.8869 35.2523 26.8754 36.1325 26.9041C37.4095 26.9444 38.6751 26.9272 39.9464 26.8121L40.585 26.7488C40.8208 26.7316 40.9474 26.7086 41.3213 26.6913L42.3223 26.6395L42.8457 26.6165L42.9148 26.6108C42.932 26.6165 42.9263 26.6453 42.932 26.6625L42.9608 26.7776L43.0126 27.0134L43.2312 28.0029L43.3405 28.4976L43.4153 28.8083L43.7086 30.0566C43.9042 30.9022 43.9848 31.7881 44.0941 32.6567C44.3127 34.3998 44.5082 36.1428 44.7613 37.8858C44.9569 39.1917 45.2043 40.4917 45.4689 41.7861C45.7163 42.9941 46.0212 44.1907 46.28 45.393L48.5696 56.1158L49.1678 58.6814C49.2656 59.1071 49.3462 59.5443 49.421 59.9757L50.2436 64.7907L51.5264 71.6708C51.7622 72.9766 51.9751 74.2709 52.3778 75.5538C52.4238 75.7608 52.4411 76.0255 52.3893 76.2901C52.3375 76.5547 52.2225 76.8021 52.0959 76.9747C51.8313 77.3198 51.6184 77.4061 51.5149 77.4521C51.4861 77.4636 51.4631 77.4694 51.4458 77.4694C51.5091 77.4521 51.256 77.5269 51.0259 77.5097C50.7901 77.5039 50.5197 77.4061 50.3356 77.2795C49.9674 77.0034 49.9099 76.7676 49.8754 76.6755C49.8466 76.572 49.8582 76.5547 49.8812 76.5835C49.9099 76.618 49.9387 76.7158 50.1055 76.9229C50.1918 77.0207 50.3299 77.153 50.5254 77.245C50.721 77.3428 50.9684 77.3716 51.1582 77.3486C51.2445 77.3371 51.3596 77.3083 51.3826 77.2968L51.3883 77.2795L51.4056 77.2393C51.4171 77.2105 51.4343 77.176 51.4516 77.1472C51.5724 76.9114 51.676 76.6007 51.6414 76.3016C51.6127 76.014 51.4516 75.7781 51.3251 75.7206C51.0777 75.6055 50.8476 75.4445 50.6462 75.1568C50.3759 74.7714 50.1573 74.4032 50.1228 73.8683C50.0767 73.0917 49.7086 72.3323 49.8466 71.5269C49.8639 71.4119 49.8236 71.2623 49.7833 71.1415C49.0355 68.9671 48.7824 66.6833 48.3912 64.4283C48.2647 63.6919 48.0748 62.9671 47.9253 62.2308C47.8275 61.7533 47.7354 61.2816 47.6492 60.8041C47.5284 60.1081 47.4478 59.4062 47.2925 58.7217C47.1774 58.204 46.9934 57.715 47.1832 57.1915C47.2235 57.0822 47.1602 56.8118 47.0739 56.7256C46.746 56.4034 46.6942 55.9662 46.6252 55.5348C46.4296 54.367 46.257 53.1935 46.0384 52.0314C45.8774 51.1685 45.676 50.3114 45.4574 49.4658C45.118 48.1485 44.7268 46.8484 44.3989 45.5253C44.1228 44.4208 43.91 43.299 43.6569 42.1888C43.5993 41.9299 43.4958 41.6883 43.444 41.4294C43.3462 40.9577 43.1966 40.4687 43.2081 40.0028C43.2196 39.4908 43.1736 39.0996 42.863 38.6797C42.6904 38.4438 42.6329 38.0354 42.5926 37.696C42.5466 37.2646 42.5639 36.8216 42.5754 36.3901C42.5926 35.8724 42.6214 35.3835 42.3568 34.8715C42.213 34.5954 42.2014 34.1869 42.2072 33.8475C42.2417 32.3461 41.9656 30.8792 41.6607 29.418L41.5112 28.722L41.4249 28.4688C41.4076 28.4343 41.4018 28.3883 41.3788 28.3653L41.2408 28.3883L40.9992 28.4343C40.0442 28.4746 38.98 28.5149 37.9791 28.5321C37.1795 28.5494 36.3799 28.5149 35.5802 28.4919C33.0894 28.4171 30.6157 28.1525 28.1479 27.8246C27.6647 27.7555 27.1757 27.6865 26.6925 27.6807C25.5765 27.675 24.4778 27.5139 23.3905 27.2896C22.0789 27.0192 20.7501 26.9272 19.4212 26.8236C19.1106 26.8006 18.7942 26.8064 18.4951 26.7373C16.4126 26.2599 14.2727 26.116 12.1902 25.6386C10.5047 25.2532 8.85373 24.7527 7.20849 24.2407C5.93717 23.8495 4.68311 23.4066 3.4348 22.9694C3.35426 22.9406 3.25646 22.9406 3.17592 22.9061C2.46836 22.6415 2.32453 22.2503 2.80199 21.8419C3.22768 21.4795 3.76843 21.3529 4.41847 21.5255L6.56421 22.1468L6.59872 22.0777Z" fill="#A0D0DB"/>
<path d="M77.6089 6.28017C76.746 6.88419 75.8946 7.51121 75.0087 8.06345C74.2149 8.55818 73.4268 9.0299 72.8112 9.76047C72.6502 9.95031 72.4258 10.0884 72.236 10.2552C71.8851 10.5543 71.5284 10.8477 71.1833 11.1526C71.0279 11.2907 70.9186 11.5093 70.746 11.607C69.9062 12.096 69.1353 12.6655 68.5026 13.4134C67.7777 13.7125 67.306 14.305 66.7595 14.8285C66.213 15.352 65.586 15.7949 65.1028 16.3874C64.9762 16.5485 64.8094 16.6981 64.6311 16.8016C63.5611 17.4114 62.6407 18.211 61.6972 18.9934C60.6675 19.8275 59.6896 20.5638 58.6311 21.3462C58.0673 21.7546 57.5784 22.2896 57.0952 22.8073C56.5199 23.4286 55.9907 24.0959 55.4039 24.7172C54.5468 25.6204 53.6782 26.4947 52.7232 27.3576C51.9466 27.9789 51.1298 28.2665 50.3934 28.6059C50.2209 28.6865 50.008 28.7728 49.7779 28.8533C49.5593 28.9453 49.3349 28.9971 49.1106 29.0604C48.6619 29.1812 48.2074 29.2502 47.7587 29.302C46.8383 29.3998 45.9236 29.2502 45.0493 29.0892C44.1691 28.9281 43.3177 28.698 42.4836 28.4276C42.2708 28.3471 42.0982 28.3241 41.7588 28.163L41.195 27.8811C40.8211 27.697 40.4414 27.5187 40.0618 27.3404C38.917 26.8226 37.732 26.3739 36.5412 25.9655C35.4309 25.5801 34.2919 25.2867 33.1644 24.9588C29.8279 23.9866 26.4397 23.1985 23.0226 22.629C22.2 22.4967 21.3716 22.4047 20.549 22.2954C20.1406 22.2378 19.7264 22.1803 19.318 22.1055C17.7993 21.8467 16.2748 21.6108 14.7389 21.444C12.5414 21.2081 10.3324 21.0931 8.12341 21.024C6.86934 20.9895 5.6153 20.9492 4.37275 21.1333C4.02759 21.1851 3.90677 21.0585 4.03333 20.7767C4.24617 20.2935 4.41873 19.793 5.02276 19.4939C5.43119 19.2983 5.82238 19.1429 6.33436 19.2177C7.0822 19.3213 7.8703 19.1084 8.60088 19.4191C8.70443 19.4651 8.85401 19.4536 8.97481 19.4363C11.1838 19.1775 13.3928 19.4996 15.5845 19.7757C16.2978 19.862 17.0227 19.9023 17.7417 19.9771C18.2077 20.0288 18.6737 20.0979 19.1339 20.1669C19.8069 20.282 20.4742 20.4258 21.1473 20.5236C21.6535 20.5926 22.1655 20.5868 22.5624 20.955C22.6487 21.0298 22.9133 21.0643 23.0169 21.0183C23.4253 20.8227 23.8337 20.9435 24.2479 21.0355C25.3639 21.2829 26.4684 21.5935 27.5844 21.8582C28.407 22.0653 29.2354 22.2378 30.0695 22.4047C31.3581 22.6693 32.6582 22.8994 33.9353 23.2273C35.0052 23.5034 36.058 23.8486 37.1107 24.1937C37.3523 24.2742 37.6112 24.3088 37.8528 24.3951C38.2957 24.5504 38.7789 24.6712 39.1586 24.9243C39.5786 25.2004 39.9237 25.3615 40.4299 25.3212C40.7176 25.2982 41.0857 25.4708 41.3791 25.6204C41.7588 25.8102 42.104 26.0633 42.4434 26.3107C42.4836 26.3452 42.5699 26.397 42.5699 26.4085C42.5814 26.4257 42.5814 26.4372 42.6159 26.4602C42.7195 26.512 42.8288 26.5638 42.9381 26.604C43.1567 26.6846 43.3925 26.7249 43.6571 26.7018C43.939 26.6731 44.2899 26.8054 44.5775 26.9262C45.8431 27.4497 47.2583 27.559 48.5238 27.3059C48.7424 27.2713 48.9438 27.2023 49.1509 27.1505C49.3579 27.07 49.5133 27.024 49.7664 26.9204C50.2266 26.7364 50.6811 26.5638 51.0722 26.3854C51.2678 26.2934 51.4461 26.2014 51.5957 26.1036C51.6705 26.0576 51.7395 26.0058 51.7913 25.9598L52.0444 25.7412C52.3838 25.4593 52.7175 25.1429 53.0396 24.8207C53.5458 24.3145 54.0636 23.8083 54.5641 23.256C56.1115 21.559 57.7682 19.701 59.8219 18.2168C60.2131 17.9292 60.5928 17.676 60.9264 17.3539C61.6915 16.6176 62.5371 15.9963 63.4173 15.4095C64.4757 14.702 65.4076 13.8391 66.3223 12.9704C66.5352 12.7691 66.7308 12.539 66.9666 12.3664C68.6291 11.1929 70.0385 9.72595 71.6147 8.46038C72.8918 7.43642 74.2264 6.48151 75.5322 5.49207L78.5811 3.23129C78.6501 3.17951 78.6961 3.10474 78.7652 3.05872C79.3519 2.63302 79.7488 2.73658 79.8409 3.3521C79.9214 3.89285 79.7431 4.41058 79.2484 4.84202C78.7019 5.31373 78.1382 5.76244 77.5744 6.21114L77.6089 6.28017Z" fill="#A0D0DB"/>
<path d="M75.0317 4.23791C74.6233 4.42774 74.2321 4.64635 73.7949 4.80167C73.4038 4.93973 73.0183 5.06629 72.8227 5.44596C72.771 5.54375 72.6616 5.58402 72.5811 5.6588C72.4373 5.78536 72.2877 5.90617 72.1497 6.04423C72.0864 6.10751 72.0807 6.23981 71.9944 6.26857C71.5859 6.40663 71.2523 6.63674 71.0567 7.02792C70.677 7.06818 70.5447 7.39034 70.3491 7.64921C70.1535 7.90807 69.8832 8.08064 69.7566 8.41429C69.7221 8.50058 69.6646 8.57536 69.5783 8.60988C69.072 8.80547 68.7326 9.19089 68.3817 9.56481C68.0021 9.96749 67.5534 10.2839 67.0126 10.4967C66.725 10.606 66.5006 10.8189 66.2763 11.0202C66.0117 11.2561 65.7931 11.5437 65.5399 11.7968C65.1775 12.165 64.8381 12.5504 64.5678 13.0164C64.2053 13.6319 63.8084 14.2186 63.3827 14.7709C63.1641 15.0528 62.8593 15.2426 62.5716 15.4612C62.0079 15.8927 61.4153 16.2953 60.8688 16.7498C60.4604 17.0892 60.0807 17.4689 59.7183 17.86C59.3789 18.2225 59.0798 18.6309 58.7461 19.0048L55.7893 22.301C55.5535 22.5656 55.3464 22.8533 55.1163 23.1294C55.0012 23.2675 54.8746 23.3883 54.7481 23.5091C54.2649 23.952 53.7702 24.3777 53.2985 24.8379C52.6254 25.488 51.9754 26.1668 51.3138 26.8226C50.9341 27.1965 50.543 27.5531 50.2898 28.0421C50.2208 28.1802 50.0942 28.1226 49.9274 27.8925C49.6455 27.4956 49.3349 27.0929 49.3062 26.7133C49.2832 26.4544 49.2889 26.2358 49.4903 26.1265C49.7779 25.9712 49.8527 25.58 50.2726 25.5627C50.3301 25.5627 50.3646 25.5052 50.3877 25.4534C50.7961 24.5618 51.5727 24.0268 52.2515 23.3998C52.4758 23.1927 52.6542 22.9453 52.8555 22.721C52.9878 22.5772 53.1259 22.4333 53.2697 22.301C53.4768 22.1054 53.7184 21.9386 53.9025 21.7258C54.0405 21.5647 54.1268 21.3518 54.4662 21.4209C54.5353 21.4324 54.61 21.3461 54.587 21.2713C54.5123 20.9779 54.6618 20.8744 54.7941 20.7536C55.1508 20.4314 55.5247 20.1323 55.8699 19.7987C56.123 19.5513 56.3473 19.2752 56.5602 18.9818C56.8881 18.5331 57.1757 18.0441 57.5151 17.6012C57.797 17.2273 58.1191 16.8993 58.424 16.5484C58.493 16.4679 58.5333 16.3529 58.6023 16.2781C58.7346 16.1343 58.8439 15.9502 59.0395 15.8869C59.2581 15.8236 59.3904 15.7258 59.3674 15.4267C59.3559 15.2599 59.4882 15.1563 59.6033 15.0758C59.7528 14.978 59.9427 14.9262 60.1268 14.8687C60.3511 14.8054 60.564 14.7536 60.61 14.4775C60.633 14.328 60.7941 14.2532 60.9321 14.2129C61.5592 14.0115 61.9848 13.5859 62.376 13.1199C62.8938 12.4756 63.4173 11.8313 63.935 11.1928C64.1421 10.9454 64.3779 10.7211 64.6023 10.491C65.3098 9.77765 66.0979 9.16213 66.9033 8.55811C67.0586 8.4373 67.2255 8.328 67.3405 8.16118C67.5994 7.77575 67.9503 7.50538 68.3415 7.27527C68.8132 6.9934 69.1526 6.57346 69.492 6.14201C69.5725 6.04422 69.6301 5.91766 69.7336 5.85438C70.4757 5.39418 70.9704 4.65785 71.6607 4.14587C72.2187 3.73168 72.84 3.39228 73.444 3.03562C73.91 2.76525 74.3989 2.51789 74.8821 2.25902C74.9109 2.24176 74.9282 2.20151 74.9627 2.18425C75.2446 2.05194 75.5322 2.25326 75.7508 2.74223C75.9464 3.17943 75.9579 3.51308 75.745 3.67991C75.5034 3.86399 75.2503 4.02507 74.9972 4.1919L75.0317 4.23791Z" fill="#A0D0DB"/>
<path d="M50.4824 22.3359C51.1612 21.1222 51.8228 19.8853 52.5821 18.7233C53.2667 17.6879 53.9512 16.7042 54.4747 15.5479C54.6013 15.243 54.8371 14.9726 55.0155 14.685C55.3606 14.1673 55.723 13.661 56.1142 13.1721C56.281 12.942 56.4191 12.6601 56.6262 12.4933C57.6444 11.6591 58.6396 10.8825 59.5485 9.95637C60.4689 9.51342 61.165 8.81161 61.9473 8.17883C62.7297 7.54604 63.5983 7.01105 64.3289 6.32649C64.5245 6.14241 64.7661 5.96408 65.0019 5.84328C66.4516 5.1127 67.7804 4.19804 69.1265 3.29489C69.8456 2.81167 70.5819 2.35145 71.324 1.92001L72.44 1.28148L72.5781 1.20094L72.6471 1.16066L72.6817 1.14341L72.6989 1.13191H72.7047L72.8657 1.36777L72.8715 1.37353C72.906 1.40804 72.883 1.38503 72.8772 1.39078C72.8772 1.39653 72.8887 1.36776 72.883 1.39652V1.40804L72.9175 1.66115H72.906H72.8657L72.7852 1.6669L72.6241 1.67265L72.302 1.68415C71.3873 1.71292 70.4496 1.90276 69.5407 2.12711C68.4593 2.38598 67.4065 2.75989 66.3653 3.14531C64.8524 3.69756 63.4027 4.38787 62.0624 5.26226C61.1765 5.85478 60.3021 6.46455 59.468 7.11459C59.048 7.43674 58.6569 7.7934 58.2542 8.1213C58.0528 8.29387 57.8457 8.4492 57.6559 8.62753L57.0921 9.17403C56.3098 9.88735 55.5159 10.6122 54.7566 11.3773C53.2667 12.919 51.9609 14.662 50.9254 16.5834C50.1603 18.0273 49.5563 19.5632 49.073 21.1336C48.8429 21.8642 48.6646 22.6121 48.492 23.3656L48.2504 24.4989C48.1239 25.0914 47.9571 25.7587 47.8017 26.3915L47.6234 27.1106L47.5313 27.473L47.5084 27.565L47.4968 27.6111C47.4911 27.6168 47.4738 27.5996 47.4623 27.5938L47.307 27.5075L46.0414 26.8287L44.8161 26.1614C44.5745 26.0291 44.494 25.9946 44.3559 25.9256L43.9705 25.7357C42.9465 25.2295 41.9053 24.7463 40.8526 24.2976C38.7472 23.3887 36.6072 22.566 34.4327 21.8527C33.3857 21.5076 32.3273 21.2142 31.2745 20.9323L29.6983 20.4779C27.7482 19.9083 25.7923 19.4136 23.7904 19.0627C20.9314 18.5565 18.0321 18.2919 15.127 18.2056C13.4818 18.1538 11.825 18.1538 10.2028 18.4012C9.74836 18.4702 9.59305 18.3552 9.74262 18.0675C10.0072 17.5728 10.2143 17.0551 11.0139 16.7329C11.5547 16.5143 12.0609 16.3475 12.7512 16.4108C13.7407 16.4971 14.7934 16.2785 15.7598 16.6064C15.8979 16.6524 16.0935 16.6466 16.2603 16.6351C19.1884 16.428 22.1164 16.9285 24.9812 17.5038C25.9189 17.6878 26.8681 17.8432 27.8057 18.0445C28.4098 18.1883 29.0195 18.3264 29.612 18.499C30.4807 18.7406 31.3378 19.0455 32.2007 19.2871C32.8507 19.4769 33.5123 19.592 34.0013 20.0637C34.1048 20.1615 34.4442 20.265 34.5823 20.242C35.123 20.15 35.6407 20.3685 36.1642 20.5756C37.5794 21.1279 38.9658 21.7377 40.3521 22.3474C41.3818 22.7904 42.4173 23.2333 43.447 23.6705L44.6493 24.1883C45.029 24.3551 45.5237 24.5795 45.679 24.6312L46.237 24.8441C46.2715 24.8498 46.3175 24.8901 46.3348 24.8613L46.3578 24.706L46.3923 24.4241L46.4153 24.217L46.4269 24.1192L46.4326 24.0962L46.4441 24.0272L46.4729 23.8949C46.5476 23.5382 46.634 23.1816 46.7145 22.8192C46.8871 22.1001 47.0711 21.381 47.284 20.6734C47.3818 20.3455 47.4221 20.0004 47.5429 19.6725C47.75 19.0742 47.9168 18.4184 48.2447 17.9065C48.5841 17.3312 48.8257 16.8767 48.889 16.2209C48.9062 16.0369 48.9752 15.8183 49.073 15.6054C49.1766 15.3926 49.3089 15.174 49.4239 14.9841C49.7231 14.4894 50.0797 14.035 50.4652 13.615C50.6895 13.3562 50.9081 13.1146 51.1037 12.8442C51.3108 12.5853 51.5006 12.3034 51.6445 11.9583C51.7998 11.5901 52.1564 11.1759 52.5016 10.8883C53.9225 9.53643 55.3491 8.2191 56.8275 6.93052C58.8697 5.2105 61.1075 3.78961 63.5063 2.61609C64.444 2.15588 65.4277 1.7877 66.4171 1.4368C67.9588 0.901805 69.5465 0.504879 71.1515 0.234507C71.5541 0.171229 71.9568 0.107951 72.3595 0.0561782L72.6644 0.0159059C72.6069 0.0216585 72.906 -0.0301035 73.1476 0.0274223C73.4007 0.073443 73.6481 0.205744 73.8322 0.378322C74.2003 0.729229 74.3614 1.22971 74.2291 1.7532C74.16 2.01206 74.0105 2.24791 73.8322 2.40898C73.7919 2.44925 73.7459 2.48377 73.6999 2.51828L73.6711 2.53554L73.6366 2.55856L73.51 2.63908L73.2512 2.80591C72.5666 3.24311 71.8878 3.64579 71.2147 4.04847C70.6855 4.36487 70.139 4.67549 69.6558 5.04366C68.534 5.88929 67.3433 6.60837 66.1352 7.29868C64.6798 8.13281 63.3567 9.14526 62.0796 10.1922C61.7862 10.4396 61.5101 10.7157 61.1937 10.9228C60.1123 11.6649 59.1055 12.5048 58.2369 13.4022C57.3913 14.2651 56.7355 15.2833 56.0337 16.3648C54.9177 18.1135 53.8534 19.9716 52.841 21.87C52.0586 23.3426 51.282 24.8211 50.4652 26.3167C50.4076 26.4145 50.3789 26.5296 50.3213 26.6274C49.8151 27.4788 49.3664 27.5823 49.1191 26.9323C48.9005 26.3685 48.9235 25.707 49.2916 24.9361L50.5399 22.3762L50.4824 22.3359Z" fill="#A0D0DB"/>
<path d="M76.2219 89.4039L70.7225 99.2984L55.6967 98.2859C53.2864 98.1249 51.1752 99.8909 50.9106 102.295C49.7198 113.151 48.529 124.011 47.3382 134.867C46.993 138.031 49.0697 140.947 52.1761 141.666C57.5203 142.909 63.3189 144.025 69.5489 144.905C76.2219 145.848 82.5095 146.401 88.3369 146.677C92.496 146.872 96.0856 143.852 96.6263 139.728C97.4202 133.653 97.984 127.037 98.168 119.95C98.2888 115.239 98.2313 110.752 98.0357 106.501C97.9207 103.883 95.8728 101.766 93.2611 101.559C88.7971 101.197 84.3331 100.84 79.8691 100.478L77.6773 89.634C77.5335 88.915 76.5786 88.7654 76.2219 89.4039Z" fill="#C0E3EB"/>
<path d="M72.9158 97.055L72.1162 98.3436C71.7825 98.9016 71.4431 99.4596 71.1095 100.012C70.6377 99.9658 70.166 99.9198 69.7001 99.868L68.7279 99.753C68.0836 99.6667 67.4393 99.5861 66.8008 99.4998C64.7759 99.218 62.7855 98.9361 60.6973 98.9533C60.1565 98.9591 59.5813 98.8843 59.0175 98.844C57.9993 98.7808 56.9753 98.7175 55.9571 98.6542C55.4797 98.6197 55.0712 98.7232 54.6743 98.7635C53.7136 98.8498 52.7702 99.333 52.1317 100.092C51.8153 100.472 51.5737 100.921 51.4298 101.392C51.2803 101.87 51.2573 102.347 51.2458 102.9C50.8431 104.522 50.8258 106.167 50.7108 107.83C50.5957 109.492 50.3656 111.178 50.3541 112.834C50.3541 113.272 50.3139 113.772 50.2333 114.209C49.7559 116.861 49.5315 119.542 49.2841 122.24C49.0195 125.128 48.6456 128.004 48.1279 130.846C47.9898 131.605 47.8805 132.382 47.7827 133.164C47.6964 133.941 47.5699 134.757 47.5526 135.5C47.5526 136.403 47.7655 137.294 48.1624 138.1C48.5708 138.899 49.1461 139.601 49.8421 140.159C50.3484 140.562 50.9179 140.872 51.5219 141.085C52.1144 141.292 52.7875 141.402 53.449 141.54C54.7721 141.799 56.1067 142.029 57.4413 142.224C61.0137 142.742 64.6033 143.214 68.2044 143.634C70.0337 143.847 71.886 144.169 73.7269 144.422C77.4143 144.939 81.1074 145.388 84.8236 145.676L86.9175 145.814C87.6079 145.848 88.3499 145.906 88.9597 145.889C90.2253 145.837 91.4851 145.451 92.5321 144.75C93.533 144.117 94.3211 143.202 94.8791 142.184C95.138 141.661 95.3681 141.126 95.4889 140.556C95.5752 140.28 95.6039 139.987 95.65 139.705C95.696 139.411 95.7248 139.066 95.7593 138.744C96.6164 131.047 97.0133 123.31 96.9271 115.578C96.904 113.72 96.8235 111.868 96.743 110.016C96.7085 109.089 96.6739 108.157 96.6394 107.231L96.6164 106.587C96.5991 106.414 96.5992 106.265 96.5704 106.104C96.5301 105.787 96.4266 105.488 96.3173 105.195C96.0642 104.62 95.673 104.09 95.1668 103.699C94.672 103.302 94.0623 103.038 93.4352 102.934L93.1936 102.9C93.1189 102.888 92.9865 102.882 92.883 102.871L92.2329 102.813L90.9386 102.704L78.7604 101.709L77.84 97.1183C77.5639 95.7376 77.2877 94.357 77.0116 92.9764L76.5629 90.917L76.4421 90.405L76.3788 90.1461L76.35 90.0196L76.3328 89.9563L76.327 89.9218L76.3213 89.9045V89.8988V89.893C75.8898 89.9793 76.9081 89.7722 76.8045 89.7952C76.9311 89.7665 76.931 89.7377 76.9138 89.7607C76.8965 89.778 76.885 89.824 76.8908 89.801C76.8908 89.778 76.8793 89.7377 76.8793 89.7434C76.885 89.755 76.9023 89.7722 76.9368 89.7952C76.9943 89.8298 76.9943 89.8297 76.9195 89.7837C76.9023 89.7722 76.8793 89.7435 76.8793 89.7492C76.8678 89.7262 76.8908 89.778 76.8505 89.6917C76.8103 89.5824 76.8333 89.4443 76.9426 89.3465C77.0461 89.2487 77.2417 89.1912 77.4603 89.3005C77.5638 89.358 77.6731 89.4558 77.7479 89.5996C77.817 89.7319 77.886 89.87 77.955 90.0311C78.329 90.8882 78.6396 91.6936 78.7949 92.8211C79.0192 94.4548 79.583 96.1116 79.6175 97.7568C79.6233 97.9869 79.7038 98.3148 79.7728 98.5737L80.1813 100.092C80.607 100.104 80.8658 100.11 81.4699 100.144L83.0576 100.242C84.1161 100.317 85.1688 100.403 86.2272 100.495L92.5666 101.082C92.9578 101.116 93.3547 101.145 93.7919 101.203C94.2118 101.283 94.6318 101.387 95.0287 101.554C95.8283 101.87 96.5531 102.388 97.1226 103.043C97.8647 103.889 98.3422 104.971 98.4515 106.087C98.5493 107.646 98.5263 109.112 98.5953 110.62C98.6413 111.753 98.7449 112.852 98.4688 113.876C98.4112 114.088 98.4285 114.687 98.4975 114.894C98.7621 115.693 98.7276 116.631 98.7046 117.569C98.6528 120.094 98.5205 122.619 98.394 125.145C98.3019 127.014 98.2099 128.884 98.1236 130.748C97.9855 133.641 97.8302 136.529 97.5541 139.417L97.5081 139.871L97.4333 140.372C97.393 140.706 97.2895 141.028 97.2089 141.356C97.1169 141.684 96.9903 141.994 96.8753 142.311C96.7257 142.615 96.5992 142.932 96.4208 143.219C95.742 144.393 94.8158 145.44 93.6768 146.205C93.4122 146.378 93.1591 146.567 92.883 146.717C92.6126 146.878 92.3307 147.033 92.0316 147.143C90.9559 147.591 89.7133 147.868 88.6146 147.758C88.2982 147.735 88.0566 147.701 87.8092 147.678C87.5618 147.655 87.326 147.637 87.0901 147.632C86.6184 147.614 86.1582 147.643 85.6577 147.73C85.094 147.827 84.2081 147.758 83.4833 147.684C82.5571 147.591 81.6482 147.43 80.7508 147.264C79.6751 147.068 78.6741 146.861 77.489 146.918C76.8505 146.947 75.9934 146.803 75.2858 146.66C72.1909 146.032 69.0385 145.63 65.8803 145.204C61.6004 144.629 57.332 143.956 53.0866 143.116L51.8325 142.857C51.3436 142.742 50.8604 142.587 50.4001 142.374C49.4797 141.954 48.6399 141.344 47.9553 140.596C46.8911 139.429 46.1835 137.921 46.0397 136.334C45.9476 135.563 46.0339 134.683 46.1145 134.096L46.3388 132.14L47.2937 124.322C47.4203 123.298 47.5584 122.263 47.6216 121.245C47.7597 118.898 48.0416 116.579 48.381 114.261C48.7894 111.465 48.9965 108.664 49.1978 105.868C49.2439 105.218 49.2611 104.551 49.3532 103.912L49.5718 102.238C49.6466 101.571 49.8479 100.817 50.1758 100.173C50.8258 98.8613 51.9648 97.8143 53.3339 97.2851C54.0185 97.0205 54.7548 96.8824 55.4854 96.8882L55.7616 96.8939L55.9802 96.9054L56.4001 96.9284L57.24 96.9745C58.3617 97.0377 59.4835 97.1068 60.6052 97.1988C62.308 97.3311 64.0108 97.4864 65.7078 97.6533L68.2562 97.9064L69.5275 98.0329L69.8439 98.0675C69.9187 98.0732 69.8956 98.0732 69.9129 98.0789L69.9417 98.0847L70.0682 98.1135L70.1488 98.0157C71.5697 95.6686 72.9905 93.3331 74.4172 90.9918C74.515 90.8364 74.584 90.6524 74.6818 90.497C75.5217 89.1394 76.0624 88.8633 76.1545 89.7722C76.2293 90.5776 75.9531 91.6303 75.2456 92.8844L72.8582 97.0147L72.9158 97.055Z" fill="#A0D0DB"/>
<path d="M72.9273 112.093C73.3472 111.834 73.7269 111.506 74.0663 111.126C74.2332 110.936 74.3885 110.735 74.5438 110.522C74.7164 110.28 74.8775 110.045 75.0673 109.82C75.7288 109.009 76.4134 108.302 77.0749 107.456C77.2475 107.237 77.5121 107.071 77.7537 106.904C77.9781 106.754 78.214 106.616 78.4843 106.513C78.7604 106.398 79.0826 106.351 79.3875 106.369C79.4508 106.375 79.5083 106.38 79.5773 106.38C79.6866 106.409 79.8017 106.432 79.911 106.461C80.0145 106.501 80.1123 106.564 80.1928 106.633C80.6933 107.122 80.8659 107.629 81.0845 108.135C81.2858 108.641 81.4699 109.141 81.654 109.653C81.6022 110.516 81.8323 111.293 81.9244 112.133C81.9589 112.547 81.9704 112.973 81.9646 113.393V114.025C81.9704 114.169 81.9934 114.29 82.0221 114.394C82.0509 114.503 82.0567 114.612 82.0049 114.756C81.9991 114.779 81.9761 114.819 81.9876 114.831L82.0452 114.854L82.166 114.894C82.2522 114.917 82.3443 114.94 82.4421 114.963L82.747 115.026L83.2474 115.113C83.9147 115.228 84.5821 115.36 85.2494 115.527C86.6645 115.912 88.0624 116.614 89.0461 117.776C89.5523 118.392 90.0643 119.076 90.2541 119.91C90.3461 120.417 90.3289 120.911 90.1966 121.4C90.0585 121.883 89.8054 122.338 89.4775 122.712C89.3452 122.856 89.2071 122.999 89.0576 123.126C88.9138 123.253 88.839 123.316 88.7182 123.402C88.6261 123.471 88.5398 123.529 88.4478 123.586L88.3155 123.673C88.2982 123.684 88.258 123.696 88.2637 123.713C88.2867 123.73 88.3097 123.753 88.327 123.776C88.4996 123.966 88.6376 124.173 88.7584 124.363L88.8045 124.438L88.8677 124.553L88.9886 124.789C89.0691 124.95 89.1438 125.105 89.2186 125.272C89.4085 125.709 89.5638 126.169 89.6731 126.647C89.7709 127.124 89.8572 127.602 89.8112 128.2C89.7651 128.775 89.5523 129.379 89.2072 129.868C89.0346 130.115 88.839 130.34 88.6204 130.53C88.5168 130.627 88.4018 130.719 88.2925 130.806C88.2062 130.869 88.2637 130.835 88.235 130.858L88.2062 130.886C88.1544 130.95 88.0509 130.967 88.0106 131.019C88.0394 131.076 88.0566 131.134 88.0796 131.203L88.1141 131.306L88.2637 131.669C88.5111 132.278 88.7412 132.905 88.885 133.596C88.9598 133.935 89.0116 134.303 89.0231 134.7C89.0288 134.902 89.0115 135.114 88.977 135.339C88.9483 135.46 88.9195 135.58 88.8792 135.701C88.8332 135.816 88.7814 135.931 88.7239 136.041C88.258 136.834 87.5331 137.231 86.8773 137.461C85.3414 137.962 83.909 137.956 82.4881 137.962C81.165 137.945 79.8592 137.899 78.5591 137.778C76.6377 137.582 74.7336 137.318 72.8468 137.024L70.0165 136.57L68.6014 136.334L66.1393 135.88L65.9782 135.851C65.9552 135.839 65.9092 135.851 65.9092 135.828L65.9149 135.747L65.9437 135.425L66.0012 134.781L66.1163 133.469L66.214 132.043C66.2486 131.588 66.3003 131.134 66.3579 130.679L67.0137 125.634L67.8535 118.397C68.0203 117.028 68.2102 115.665 68.2102 114.29C68.2102 113.905 68.354 113.795 68.6129 113.968C69.0616 114.267 69.5333 114.52 69.7461 115.21C69.89 115.676 69.9878 116.108 69.8554 116.649C69.6599 117.437 69.7864 118.305 69.4125 119.059C69.3607 119.168 69.355 119.329 69.355 119.462C69.4125 121.855 68.9695 124.202 68.6647 126.56C68.5669 127.331 68.5266 128.113 68.4576 128.884C68.4116 129.385 68.354 129.891 68.2907 130.392C68.1987 131.116 68.0721 131.841 68.0089 132.572C67.9858 132.848 67.9801 133.118 67.9398 133.383C67.9283 133.446 67.9168 133.521 67.9053 133.567C67.8938 133.613 67.8765 133.653 67.8535 133.699C67.8133 133.791 67.75 133.895 67.6695 134.016C67.6004 134.119 67.5832 134.372 67.6464 134.407C67.704 134.528 67.9801 134.441 68.1297 134.459C68.2907 134.464 68.4231 134.505 68.5669 134.533L70.2926 134.913C70.8967 135.045 71.4949 135.172 72.0989 135.281C72.9963 135.448 73.8995 135.569 74.8027 135.661C76.2063 135.799 77.6099 135.868 79.002 135.954C80.1641 136.023 81.3261 136.127 82.4651 136.115C82.7297 136.115 82.9886 136.064 83.2474 136.058C83.7249 136.046 84.2139 135.972 84.6396 136.018C85.1171 136.069 85.5082 136.035 85.8189 135.707C85.9857 135.523 86.2848 135.437 86.4632 135.35C86.6702 135.264 86.8371 135.189 86.9636 135.126L86.9981 135.109C87.1477 135.086 87.2685 134.585 86.9751 134.182C86.8313 133.964 86.768 133.596 86.7163 133.274C86.6472 132.871 86.5494 132.514 86.3826 132.089C86.1122 131.462 85.7958 130.869 85.4795 130.282C85.514 130.196 85.6693 130.144 85.7613 130.087L86.0835 129.914C86.2963 129.793 86.5264 129.661 86.7795 129.54C87.3778 129.235 87.4296 129.126 87.6252 128.925C88.1372 128.338 88.1199 127.705 87.9243 126.733C87.8265 126.29 87.6827 125.864 87.4986 125.456C87.4468 125.358 87.4066 125.254 87.349 125.162L87.303 125.07C87.2743 125.013 87.2513 124.961 87.2167 124.909L87.0211 124.599C87.1419 124.127 87.1074 123.782 87.0959 123.54C87.0902 123.304 87.188 122.994 87.2513 122.424C87.4814 122.303 87.6827 122.16 87.8898 122.022L88.0566 121.883L88.1544 121.786C88.281 121.659 88.396 121.527 88.4766 121.389C88.6779 121.067 88.7699 120.721 88.7527 120.365C88.7354 120.1 88.5916 119.732 88.304 119.37C87.7287 118.633 86.7508 117.995 85.6981 117.54C85.2839 117.356 84.8467 117.184 84.3865 117.115C83.8572 117.028 83.3395 116.936 82.816 116.85L82.3616 116.769C82.0854 116.718 81.8208 116.695 81.5505 116.66L79.9915 116.442C80.4402 113.393 80.3597 112.743 80.1698 111.374C80.1181 111.086 80.0375 110.804 80.0087 110.522C79.957 109.901 79.8189 109.285 79.6003 108.791C79.5428 108.67 79.491 108.543 79.4278 108.451C79.399 108.405 79.3702 108.348 79.3357 108.302L79.2437 108.192C79.2149 108.146 79.1861 108.135 79.1631 108.118C79.1631 108.118 79.1631 108.118 79.1574 108.118C79.1516 108.118 79.1401 108.123 79.1344 108.129C79.1286 108.135 79.1229 108.141 79.1229 108.146C79.1171 108.146 79.1344 108.152 79.0999 108.164C79.0711 108.169 79.0193 108.204 78.979 108.221C78.795 108.319 78.5591 108.491 78.329 108.687C77.7998 109.141 77.2705 109.74 76.7931 110.39C76.5515 110.718 76.3386 111.04 76.097 111.42C75.8209 111.874 75.493 112.288 75.1306 112.674C74.0088 113.859 72.4729 114.589 70.9082 114.733C70.8046 114.745 70.7011 114.785 70.5975 114.785C69.6829 114.791 69.4873 114.405 69.8439 113.899C70.1661 113.433 70.5688 113.145 71.1498 113.001C71.7883 112.829 72.4153 112.559 72.9676 112.156L72.9273 112.093Z" fill="#A0D0DB"/>
<path d="M69.6865 114.014C68.8121 113.606 61.955 112.242 60.4075 112.363C59.5159 116.01 57.6175 130.766 57.5312 133.527C58.8198 133.993 66.0221 134.907 67.3336 134.792C68.7488 130.576 69.8418 115.51 69.6865 114.014Z" fill="#A0D0DB"/>
<path d="M66.9172 114.158C66.2212 113.893 65.5021 113.669 64.8118 113.381C64.1962 113.123 63.5807 112.869 62.8961 112.927C62.7178 112.944 62.5395 112.881 62.3612 112.858C62.0448 112.823 61.6881 112.772 61.4638 112.772C61.3429 112.766 61.2567 112.858 61.1531 112.823C61.0151 112.772 60.8712 112.737 60.7217 112.72C60.6757 112.703 60.6642 112.731 60.6527 112.76L60.6181 112.846C60.5951 112.904 60.5779 112.967 60.5606 113.036C60.5261 113.169 60.4973 113.307 60.4916 113.445C60.4858 113.514 60.4858 113.583 60.4916 113.652C60.4916 113.732 60.4916 113.824 60.4973 113.911C60.1752 114.394 60.25 114.946 60.227 115.481C60.2097 116.022 60.0717 116.557 60.1579 117.103C60.181 117.247 60.1752 117.414 60.1234 117.546C59.807 118.375 59.7495 119.243 59.6689 120.118C59.5884 121.05 59.3986 121.97 59.0765 122.862C58.9039 123.339 58.8406 123.857 58.7773 124.357C58.6968 124.956 58.6853 125.565 58.6277 126.169C58.5472 127.044 58.5012 127.918 58.5587 128.798C58.6277 129.978 58.668 131.163 58.6853 132.325C58.6853 132.422 58.691 132.405 58.691 132.434C58.691 132.451 58.691 132.468 58.691 132.486C58.691 132.52 58.6853 132.56 58.6738 132.601C58.6738 132.635 58.6392 132.699 58.6507 132.727C58.6795 132.745 58.7083 132.768 58.7485 132.785C58.7831 132.802 58.8233 132.819 58.8693 132.842L58.9441 132.871L58.9844 132.888L59.0879 132.917L59.9508 133.13C60.5318 133.268 61.1186 133.389 61.7054 133.498C62.5913 133.653 63.4944 133.74 64.3918 133.803C64.8118 133.832 65.2317 133.843 65.6459 133.849H65.9565H66.1119L66.1924 133.843C66.2902 133.838 66.388 133.826 66.4398 133.82C66.4858 133.815 66.5318 133.809 66.5721 133.797C66.5893 133.757 66.5893 133.7 66.6008 133.653L66.6181 133.515L66.6238 133.435L66.6584 133.228C66.7734 132.641 66.8539 132.031 66.9402 131.421C67.0955 130.196 67.2221 128.965 67.3199 127.723C67.3659 127.124 67.3832 126.526 67.4119 125.928C67.4292 125.629 67.4579 125.33 67.4982 125.036C67.642 123.932 67.7916 122.833 67.9009 121.723C68.0562 120.135 68.1655 118.541 68.2748 116.959C68.3036 116.511 68.3439 116.062 68.3496 115.619C68.3554 115.401 68.3554 115.17 68.3381 114.963L68.3093 114.641C68.2978 114.526 68.2806 114.428 68.2576 114.365C68.2115 114.204 68.3381 114.129 68.6142 114.169C69.0917 114.244 69.6094 114.354 69.8798 114.802C70.0696 115.107 70.2077 115.389 70.1214 115.757C70.0006 116.286 70.1847 116.862 69.8683 117.368C69.8223 117.437 69.828 117.546 69.8395 117.638C70.0696 119.226 69.7647 120.791 69.5864 122.355C69.5231 122.867 69.5346 123.385 69.4944 123.903C69.4714 124.236 69.4369 124.57 69.3966 124.904C69.3391 125.387 69.2355 125.864 69.2067 126.348C69.1837 126.716 69.2355 127.078 68.9076 127.372C68.8386 127.435 68.8328 127.625 68.8904 127.7C69.1205 127.987 69.0514 128.286 69.0054 128.585L68.5912 131.007C68.5049 131.606 68.4244 132.215 68.3784 132.825L68.3036 133.538C68.2921 133.671 68.2863 133.751 68.2633 133.924C68.2461 134.085 68.2058 134.263 68.1655 134.436L67.9297 135.512C67.9354 135.638 67.8261 135.621 67.7398 135.632L67.4752 135.661L66.9402 135.707C66.6353 135.73 66.3535 135.719 66.0486 135.719L65.4158 135.701L64.2193 135.644C64.0352 135.638 63.8511 135.673 63.667 135.655C63.3334 135.627 62.971 135.65 62.6718 135.523C62.3382 135.379 62.0678 135.322 61.7169 135.512C61.5213 135.615 61.2337 135.563 61.0036 135.506C60.7102 135.437 60.4225 135.299 60.1407 135.172C59.807 135.017 59.4964 134.85 59.0879 134.959C58.9786 134.988 58.8521 134.977 58.7313 134.942C58.6622 134.925 58.6277 134.908 58.5299 134.873C58.4322 134.839 58.3344 134.804 58.2423 134.769C57.8454 134.626 57.4887 134.47 57.1378 134.332L56.8732 134.229L56.7409 134.177L56.6719 134.154C56.6719 134.131 56.6776 134.102 56.6776 134.079L56.7179 133.481C56.7294 133.095 56.7639 132.699 56.7869 132.302L56.8157 131.502C56.8445 130.093 56.8559 128.695 56.9077 127.297C56.9307 126.75 56.9882 126.204 57.04 125.657C57.1953 123.96 57.4887 122.281 57.8051 120.607C57.8684 120.279 57.9374 119.945 57.9374 119.611C57.9317 118.841 58.0697 118.093 58.2653 117.351C58.5012 116.459 58.5472 115.544 58.6047 114.618C58.6162 114.405 58.599 114.181 58.6565 113.974C58.7083 113.796 58.7543 113.611 58.7945 113.427L58.8866 112.996L59.0017 112.49L59.2548 111.5L59.3181 111.247L59.3468 111.121L59.3641 111.057C59.3698 111.04 59.4043 111.052 59.4216 111.046L59.9278 111.023C60.2672 111.011 60.6009 110.988 60.9403 110.988L61.9355 111.046C62.3151 111.08 62.6948 111.121 63.063 111.19C64.2595 111.408 65.4043 111.753 66.5491 112.104C67.435 112.375 68.2978 112.685 69.1895 113.025C69.247 113.048 69.316 113.042 69.3793 113.071C69.5116 113.128 69.6094 113.192 69.6899 113.272C69.782 113.358 69.828 113.45 69.8395 113.537C69.8625 113.715 69.7302 113.893 69.5231 114.095C69.1837 114.451 68.8156 114.635 68.3841 114.515L66.923 114.1L66.9172 114.158Z" fill="#A0D0DB"/>
<path d="M116.295 28.1492C115.765 27.5337 115.288 26.8779 114.856 26.1991C114.638 25.8597 114.448 25.5088 114.258 25.1579C114.08 24.7955 113.896 24.41 113.792 24.0131C113.355 22.6037 113.401 21.2059 113.516 19.762C113.562 19.3881 113.706 19.0026 113.85 18.6345C114.109 17.9672 114.471 17.3401 114.897 16.7706C115.11 16.5233 115.259 16.1839 115.512 16.0113C115.806 15.7754 116.133 15.5798 116.444 15.3842C116.761 15.2117 117.071 15.0391 117.382 14.8492C117.98 14.4581 118.607 14.1129 119.205 13.7045C119.481 13.624 119.74 13.5204 119.993 13.4169C120.252 13.3191 120.505 13.2098 120.759 13.089C121.265 12.8589 121.737 12.554 122.26 12.3469C122.778 12.1283 123.307 11.9269 123.836 11.7198C124.365 11.5185 124.9 11.3459 125.412 11.1043C125.683 10.9778 126.005 10.8685 126.298 10.811C127.207 10.6902 128.087 10.5003 128.973 10.3047C129.865 10.1437 130.751 9.93655 131.642 9.75822C132.603 9.6029 133.57 9.45335 134.542 9.37281C135.514 9.31529 136.486 9.27501 137.453 9.29802C138.488 9.3498 139.558 9.26351 140.611 9.22324C141.865 9.20598 143.113 9.06789 144.367 9.0909C145.276 9.0794 146.185 9.07365 147.088 9.06215C147.991 9.0679 148.9 9.05067 149.809 9.01615C151.023 8.98739 152.242 9.00464 153.462 9.0104C154.682 9.04491 155.907 9.11969 157.126 9.18872C158.369 9.28652 159.617 9.53961 160.854 9.74671C162.091 9.97106 163.316 10.2299 164.547 10.4715L168.223 11.2769C169.144 11.4898 170.064 11.6911 170.984 11.8867L173.746 12.5195C175.46 12.9336 177.186 13.2961 178.883 13.7966C180.148 14.136 181.391 14.5674 182.645 14.9643C183.266 15.1772 183.882 15.413 184.503 15.6316L185.429 15.971L186.344 16.3507C188.794 17.3286 191.193 18.4906 193.483 19.8943L194.311 20.389L195.117 20.9297C195.651 21.2921 196.204 21.6373 196.71 22.063L197.475 22.6843L197.855 23.0007L198.206 23.3516C198.631 23.7888 199.086 24.203 199.488 24.6689C199.885 25.1521 200.277 25.5951 200.679 26.1128C201.525 27.2691 202.002 28.6497 202.123 30.0016C202.313 31.9459 201.91 33.8558 200.996 35.5758C200.53 36.3927 199.983 37.1693 199.345 37.8481C198.7 38.5212 198.004 39.1309 197.251 39.6429C195.565 40.8164 193.632 41.5528 191.964 42.3294C191.533 42.548 191.383 42.4732 191.412 42.1625C191.487 41.6103 191.59 41.0408 192.321 40.454C192.815 40.0513 193.276 39.7119 193.972 39.4588C194.996 39.0907 195.841 38.3428 196.837 37.9344C196.98 37.8769 197.136 37.7215 197.256 37.595C197.803 37.0197 198.309 36.4272 198.735 35.7829C199.172 35.1444 199.557 34.4771 199.822 33.7695C200.357 32.3486 200.57 30.7494 200.213 29.2595C200.11 28.7705 199.903 28.3103 199.667 27.8846C199.431 27.4474 199.109 27.085 198.758 26.6881C198.315 26.1819 197.883 25.6641 197.389 25.2039C197.032 24.8645 196.721 24.4848 196.336 24.1742C195.962 23.8521 195.594 23.5299 195.208 23.225C194.61 22.7821 193.966 22.4542 193.586 21.8214C193.512 21.6833 193.166 21.4877 193.011 21.4705C192.419 21.4072 191.918 21.0563 191.406 20.7227L189.243 19.4858C188.501 19.1119 187.765 18.7265 187.005 18.3756C185.872 17.8866 184.727 17.4149 183.554 17.0467L182.19 16.6095L180.81 16.2299L179.429 15.8502L178.043 15.5051C176.507 15.0909 174.948 14.7054 173.395 14.343C173.032 14.2682 172.664 14.2337 172.302 14.1532C171.64 14.0094 170.933 13.8886 170.334 13.67C169.661 13.4226 169.126 13.2845 168.442 13.3766C168.056 13.4284 167.493 13.2846 167.027 13.181C166.434 13.0372 165.853 12.8359 165.284 12.6403C164.599 12.3987 163.955 12.1685 163.167 12.2203C162.741 12.2433 162.183 12.0938 161.728 11.9557C160.728 11.6336 159.704 11.4495 158.668 11.2769C158.15 11.1964 157.633 11.1216 157.109 11.0583L155.539 10.9317L153.41 10.7879L151.282 10.7189C149.861 10.6499 148.446 10.6901 147.025 10.6729C145.915 10.6786 144.804 10.6844 143.688 10.6901C140.237 10.7649 136.791 10.8915 133.38 11.2712C132.712 11.3574 132.022 11.4035 131.384 11.5818C130.642 11.7831 129.894 11.9384 129.146 12.0823C128.404 12.2548 127.662 12.4044 126.908 12.5425C126.016 12.7495 125.136 12.9912 124.279 13.3018C123.439 13.647 122.582 13.9518 121.794 14.3775C121.42 14.5674 121.058 14.786 120.672 14.9298C120.022 15.2232 119.378 15.5396 118.757 15.8847L117.865 16.4542L117.422 16.7419C117.267 16.8397 117.18 16.9317 117.06 17.0237C116.156 17.7888 115.535 18.8531 115.253 20.0093C115.023 20.9413 115 21.9422 115.253 22.8799C115.299 23.1215 115.403 23.3458 115.478 23.5759C115.593 23.806 115.662 24.0074 115.811 24.2605C116.087 24.7437 116.381 25.2269 116.714 25.6814C117.727 27.0908 118.987 28.3563 120.442 29.3745C120.54 29.4378 120.655 29.4838 120.753 29.5529C121.587 30.1109 121.76 30.5481 121.075 30.7954C120.471 31.0025 119.677 30.8817 118.849 30.3007C117.934 29.6622 117.106 28.9143 116.346 28.1032L116.295 28.1492Z" fill="#A0D0DB"/>
<path d="M130.585 97.7432L121.265 109.145C120.834 109.674 120.989 110.468 121.599 110.79L125.787 113.011C126.253 113.258 126.822 113.137 127.15 112.723L135.192 102.506L130.585 97.7432Z" fill="#C0E3EB"/>
<path d="M130.056 99.6993C129.642 100.027 129.251 100.378 128.802 100.666C128.399 100.925 128.002 101.178 127.835 101.638C127.789 101.759 127.68 101.834 127.605 101.931C127.461 102.11 127.318 102.282 127.185 102.472C127.128 102.558 127.134 102.702 127.047 102.754C126.622 103.019 126.294 103.358 126.127 103.835C125.724 103.985 125.615 104.365 125.431 104.698C125.247 105.026 124.971 105.291 124.873 105.682C124.844 105.786 124.786 105.883 124.7 105.941C124.177 106.286 123.849 106.792 123.504 107.293C123.135 107.828 122.681 108.288 122.117 108.656C121.968 108.754 121.835 108.875 121.72 109.001C121.623 109.111 121.519 109.22 121.439 109.341C121.249 109.64 121.335 110.031 121.536 110.278C121.674 110.474 121.922 110.554 122.129 110.623C122.393 110.721 122.698 110.819 122.997 110.888C123.809 111.084 124.597 111.32 125.373 111.596C125.511 111.647 125.644 111.711 125.776 111.786C125.891 111.855 126.075 111.964 126.064 111.975C126.087 111.998 126.115 112.033 126.144 112.05C126.253 112.119 126.42 112.136 126.547 112.05L126.645 111.975L126.852 111.757L127.272 111.291C127.686 110.819 128.06 110.313 128.422 109.801C128.762 109.323 129.049 108.806 129.383 108.322L132.351 104.037C132.587 103.692 132.8 103.329 133.03 102.984C133.087 102.898 133.151 102.811 133.214 102.731L133.306 102.616H133.312C133.323 102.622 133.346 102.622 133.375 102.61C133.387 102.599 133.387 102.576 133.375 102.553L131.091 100.154C130.666 99.6936 130.251 99.2161 129.711 98.8767C129.555 98.7789 129.613 98.6524 129.855 98.5028C130.28 98.2497 130.7 97.9678 131.114 97.9908C131.396 98.0023 131.632 98.0368 131.759 98.2669C131.937 98.6006 132.368 98.7272 132.409 99.1874C132.414 99.2506 132.478 99.2967 132.529 99.3254C133.024 99.6015 133.427 99.964 133.795 100.361C133.979 100.556 134.157 100.764 134.336 100.971L134.6 101.281L134.94 101.661C135.199 101.943 135.504 102.207 135.808 102.495L135.688 102.662C135.509 102.904 135.319 103.145 135.124 103.381L134.71 103.858C134.6 103.985 134.491 104.112 134.399 104.25C134.255 104.457 134.18 104.704 133.812 104.71C133.738 104.71 133.668 104.825 133.692 104.9C133.789 105.205 133.634 105.348 133.502 105.504C133.139 105.935 132.754 106.344 132.409 106.792C132.156 107.12 131.931 107.471 131.724 107.839C131.402 108.403 131.126 109.001 130.798 109.565C130.522 110.037 130.2 110.468 129.906 110.923C129.837 111.026 129.803 111.158 129.734 111.262C129.601 111.452 129.504 111.676 129.297 111.791C129.066 111.918 128.934 112.05 128.986 112.367C129.009 112.545 128.877 112.689 128.761 112.804C128.612 112.948 128.416 113.051 128.221 113.155C128.088 113.241 127.899 113.396 127.761 113.511C127.611 113.638 127.467 113.77 127.312 113.948C127.145 114.15 126.794 114.207 126.524 114.161C126.087 114.104 125.701 113.948 125.356 113.724L124.999 113.5C124.902 113.442 124.804 113.39 124.706 113.339C124.505 113.241 124.297 113.149 124.09 113.068C123.176 112.723 122.261 112.372 121.346 112.027C120.685 111.774 120.15 111.297 119.908 110.664C119.707 110.181 119.69 109.623 119.851 109.116C119.937 108.863 120.052 108.627 120.225 108.409C120.305 108.294 120.397 108.19 120.489 108.087L120.662 107.885C121.047 107.442 121.444 107.017 121.847 106.585C122.002 106.418 122.169 106.252 122.273 106.044C122.514 105.567 122.865 105.182 123.256 104.825C123.728 104.399 124.05 103.853 124.367 103.306C124.441 103.18 124.487 103.03 124.597 102.932C125.339 102.242 125.787 101.316 126.46 100.568C127.007 99.9639 127.623 99.4232 128.227 98.8709C128.693 98.4453 129.181 98.0368 129.659 97.6226C129.688 97.5939 129.699 97.5479 129.734 97.5191C130.016 97.289 130.349 97.4213 130.648 97.8758C130.913 98.2842 130.971 98.6351 130.758 98.8767C130.528 99.1471 130.269 99.3945 130.027 99.6533L130.056 99.6993Z" fill="#A0D0DB"/>
<path d="M163.369 104.751L167.908 115.75C168.127 116.273 168.708 116.543 169.248 116.365L172.907 115.18C173.494 114.99 173.804 114.346 173.586 113.765L169.369 102.519L163.369 104.751Z" fill="#C0E3EB"/>
<path d="M164.755 105.941C164.824 106.407 164.922 106.861 164.945 107.339C164.962 107.765 164.973 108.184 165.284 108.501C165.365 108.581 165.37 108.702 165.416 108.806C165.497 108.99 165.572 109.18 165.658 109.358C165.698 109.439 165.825 109.49 165.83 109.582C165.842 110.031 165.957 110.434 166.279 110.75C166.199 111.136 166.469 111.371 166.659 111.648C166.849 111.924 166.929 112.252 167.211 112.487C167.286 112.551 167.338 112.637 167.343 112.729C167.378 113.287 167.637 113.753 167.884 114.225C167.982 114.409 168.062 114.604 168.131 114.8C168.166 114.898 168.195 115.001 168.224 115.105L168.258 115.26L168.27 115.369C168.275 115.479 168.281 115.605 168.31 115.738C168.367 116.008 168.643 116.152 168.897 116.163C169.052 116.175 169.201 116.117 169.34 116.048C169.46 115.991 169.656 115.904 169.823 115.841C170.323 115.651 170.812 115.427 171.267 115.116C171.462 114.984 171.658 114.857 171.853 114.731L172.153 114.547L172.296 114.461L172.342 114.409C172.411 114.334 172.446 114.259 172.452 114.173C172.452 114.069 172.544 114.018 172.549 113.903V113.822V113.776L172.515 113.644L172.383 113.103C172.291 112.746 172.199 112.384 172.089 112.033C171.928 111.504 171.71 110.992 171.485 110.485C171.278 110.014 171.008 109.565 170.789 109.093L168.879 104.905C168.805 104.739 168.718 104.572 168.632 104.411L168.597 104.347C168.586 104.33 168.592 104.342 168.586 104.336H168.569C168.557 104.336 168.551 104.342 168.54 104.347C168.528 104.359 168.528 104.359 168.528 104.353C168.534 104.348 168.534 104.342 168.54 104.33C168.54 104.313 168.54 104.301 168.528 104.296C168.523 104.29 168.517 104.29 168.505 104.284C168.5 104.284 168.505 104.278 168.482 104.284L168.287 104.353L165.531 105.354C165.008 105.538 164.479 105.694 164.013 106.033C163.88 106.125 163.794 106.027 163.748 105.745C163.673 105.262 163.575 104.767 163.725 104.405C163.829 104.163 163.932 103.962 164.168 103.951C164.507 103.933 164.749 103.605 165.152 103.766C165.209 103.789 165.267 103.755 165.307 103.72C166.095 103.076 167.027 102.921 167.976 102.604C168.35 102.478 168.73 102.282 169.127 102.121L169.639 101.92L169.731 102.173C169.863 102.553 169.961 102.95 170.116 103.289C170.174 103.421 170.248 103.542 170.289 103.68C170.317 103.795 170.306 103.899 170.214 104.048C170.174 104.106 170.225 104.215 170.306 104.227C170.605 104.284 170.645 104.463 170.703 104.641C170.858 105.113 170.991 105.59 171.169 106.056C171.301 106.401 171.468 106.729 171.658 107.045C171.951 107.54 172.291 108.018 172.572 108.518C172.808 108.938 172.992 109.375 173.205 109.807C173.257 109.904 173.343 109.991 173.389 110.089C173.47 110.273 173.608 110.451 173.585 110.658C173.562 110.894 173.602 111.055 173.89 111.153C174.051 111.21 174.097 111.377 174.126 111.515C174.16 111.694 174.143 111.895 174.12 112.09C174.097 112.326 174.062 112.551 174.304 112.706C174.367 112.746 174.402 112.815 174.419 112.884C174.425 112.919 174.431 112.959 174.431 112.999V113.057L174.442 113.149C174.517 113.678 174.528 114.144 174.39 114.599C174.264 115.047 173.999 115.456 173.619 115.749C173.47 115.87 173.297 115.956 173.107 116.043C172.791 116.169 172.688 116.232 172.509 116.319L172.02 116.56L171.042 117.043C170.743 117.187 170.427 117.297 170.116 117.417C170.013 117.458 169.581 117.63 169.247 117.682C168.897 117.74 168.54 117.705 168.206 117.601C167.533 117.394 166.987 116.865 166.739 116.198L166.619 115.876L166.555 115.686L166.429 115.3C166.365 115.105 166.308 114.909 166.187 114.742C165.899 114.363 165.756 113.926 165.652 113.465C165.531 112.913 165.232 112.441 164.922 111.97C164.853 111.86 164.749 111.763 164.72 111.636C164.507 110.767 163.949 110.037 163.662 109.203C163.426 108.524 163.282 107.811 163.115 107.109C162.989 106.562 162.891 106.01 162.776 105.458C162.77 105.423 162.736 105.394 162.73 105.36C162.678 105.044 162.954 104.819 163.495 104.756C163.972 104.704 164.295 104.79 164.398 105.055C164.507 105.348 164.588 105.653 164.686 105.952L164.755 105.941Z" fill="#A0D0DB"/>
<path d="M156.615 30.9269C156.472 31.0765 156.362 31.2375 156.178 31.3814C156.011 31.5079 155.839 31.6345 155.971 31.8128C156.006 31.8588 155.96 31.8991 155.954 31.9394C155.942 32.0142 155.931 32.089 155.931 32.1695C155.931 32.204 156.023 32.2558 155.983 32.2845C155.799 32.4168 155.73 32.5664 155.873 32.7505C155.637 32.8368 155.77 32.9863 155.816 33.1187C155.862 33.251 155.793 33.3718 155.942 33.5213C155.983 33.5616 155.988 33.6019 155.954 33.6306C155.741 33.7975 155.77 34.0103 155.781 34.2174C155.793 34.4418 155.701 34.6489 155.465 34.8272C155.338 34.925 155.321 35.0458 155.304 35.1608C155.281 35.2989 155.321 35.4484 155.315 35.5923C155.304 35.7993 155.333 36.0122 155.453 36.2365C155.614 36.5414 155.73 36.8348 155.799 37.1282C155.833 37.2778 155.741 37.4043 155.684 37.5366C155.568 37.8013 155.413 38.0601 155.321 38.3305C155.252 38.5318 155.241 38.7447 155.235 38.9633C155.229 39.1646 155.292 39.3717 155.292 39.5731C155.304 40.1713 155.304 40.7638 155.315 41.3564C155.315 41.5002 155.356 41.6497 155.361 41.7936C155.367 41.8683 155.356 41.9374 155.338 42.0064C155.269 42.2595 155.183 42.5069 155.126 42.7657C155.045 43.1339 154.999 43.5021 154.918 43.8702C154.872 44.0773 154.803 44.2787 154.918 44.5145C154.953 44.5778 154.821 44.5778 154.55 44.5088C154.084 44.3937 153.595 44.2787 153.331 44.1291C153.152 44.0313 153.014 43.9393 153.101 43.8702C153.221 43.7667 153.026 43.5999 153.331 43.5251C153.377 43.5136 153.365 43.4906 153.348 43.4675C153.089 43.0534 153.319 42.7197 153.417 42.3631C153.452 42.248 153.417 42.1215 153.423 42.0006C153.429 41.9201 153.44 41.8453 153.457 41.7705C153.486 41.6612 153.549 41.5577 153.549 41.4427C153.544 41.3564 153.469 41.2586 153.762 41.2298C153.825 41.2241 153.814 41.178 153.751 41.1493C153.503 41.0457 153.544 40.9824 153.561 40.9134C153.613 40.7293 153.687 40.551 153.716 40.3612C153.739 40.2231 153.716 40.0793 153.682 39.9297C153.624 39.6996 153.509 39.458 153.457 39.2337C153.411 39.0438 153.429 38.8597 153.411 38.6699C153.406 38.6239 153.359 38.5779 153.359 38.5319C153.359 38.4513 153.313 38.365 153.411 38.3075C153.526 38.2442 153.555 38.1867 153.336 38.0716C153.216 38.0083 153.239 37.9451 153.267 37.8933C153.308 37.83 153.405 37.7783 153.503 37.7265C153.618 37.6632 153.745 37.6057 153.584 37.4906C153.498 37.4274 153.567 37.3756 153.636 37.3295C153.952 37.1455 153.969 36.9039 153.929 36.6565C153.877 36.3171 153.785 35.9777 153.728 35.6383C153.705 35.506 153.716 35.3794 153.722 35.2529C153.733 34.8559 153.866 34.4763 154.009 34.0966C154.038 34.0218 154.073 33.947 154.038 33.8665C153.952 33.6709 154.01 33.5041 154.119 33.343C154.251 33.1474 154.188 32.9231 154.125 32.6987C154.107 32.647 154.061 32.5894 154.09 32.5434C154.28 32.2328 154.102 31.8588 154.211 31.5309C154.297 31.2663 154.475 31.0189 154.637 30.7716C154.757 30.576 154.913 30.3919 155.056 30.2021C155.068 30.1906 155.045 30.1733 155.056 30.1618C155.149 30.0583 155.494 30.0755 155.994 30.2194C156.437 30.3459 156.69 30.4667 156.661 30.576C156.633 30.6911 156.569 30.8061 156.523 30.9154C156.569 30.9154 156.592 30.9212 156.615 30.9269Z" fill="#A0D0DB"/>
<path d="M131.355 102.362C129.404 100.884 118.981 92.6402 117.968 78.5061C117.008 65.1313 124.964 53.2868 135.203 47.2638C145.437 41.2466 159.841 39.935 171.214 47.5744C184.416 56.4392 185.412 71.8963 185.527 74.3527C185.665 77.2865 186.027 88.8492 177.37 98.5136C168.223 108.724 155.769 109.288 152.127 109.288C148.906 109.282 139.874 108.822 131.355 102.362Z" fill="#C0E3EB"/>
<path d="M124.205 96.3852C122.686 94.251 121.357 91.95 120.408 89.5512C119.534 87.417 118.993 85.2425 118.308 83.0047C118.147 82.4237 118.055 81.7736 117.929 81.1524L117.727 79.4439L117.624 78.5925C117.601 78.3048 117.601 78.023 117.584 77.7353C117.561 77.2118 117.445 76.6653 117.463 76.1821C117.681 73.7948 117.952 71.4593 118.349 69.0892C118.665 68.2091 118.97 67.3404 119.2 66.443C119.511 65.5744 119.741 64.6712 120.092 63.8026C120.46 62.9397 120.805 62.0595 121.259 61.2312C121.472 60.8112 121.685 60.3855 121.892 59.9656C122.111 59.5514 122.347 59.143 122.554 58.7288C122.784 58.2916 123.054 57.7854 123.388 57.4114C125.269 55.0299 127.242 52.7288 129.52 50.6867C131.953 48.5064 134.766 46.7289 137.769 45.5324C138.172 45.377 138.575 45.2102 138.977 45.0377C139.386 44.8766 139.8 44.7327 140.214 44.5774C140.628 44.4279 141.037 44.2495 141.457 44.1172C141.877 43.9849 142.297 43.8468 142.717 43.7145L143.464 43.4729L144.224 43.2716L145.742 42.8632L147.284 42.5468L148.055 42.3914L148.837 42.2879C151.857 41.868 154.901 41.7874 157.944 42.0233C162.005 42.3742 166.101 43.4845 169.788 45.4633C170.248 45.728 170.709 45.9983 171.169 46.2802C171.399 46.424 171.629 46.5563 171.853 46.7059L172.498 47.1949C173.349 47.8564 174.229 48.4777 174.989 49.2428C178.158 52.1363 180.707 55.6684 182.49 59.5169C183.859 62.3989 184.883 65.4421 185.579 68.5485C186.212 71.4478 186.597 74.4334 186.517 77.4305C186.436 81.86 185.556 86.3009 183.83 90.4313C183.422 91.4725 182.898 92.4677 182.398 93.4687C181.823 94.4294 181.299 95.4245 180.632 96.3277C179.395 98.203 177.882 99.877 176.283 101.459C175.472 102.172 174.707 102.943 173.832 103.582C173.401 103.91 172.987 104.261 172.544 104.571L171.192 105.474C170.749 105.791 170.26 106.027 169.788 106.297C169.311 106.556 168.845 106.832 168.344 107.045C164.714 108.776 160.814 109.846 156.862 110.329C151.196 111.066 145.34 110.422 139.961 108.489C138.425 107.959 136.958 107.258 135.503 106.544C134.076 105.779 132.655 104.991 131.303 104.088C130.538 103.593 130.377 103.323 130.82 103.294C131.2 103.271 131.557 103.225 131.988 103.265C132.425 103.3 132.92 103.438 133.633 103.703C134.582 104.094 135.463 104.416 136.527 105.066C138.091 105.986 139.932 106.493 141.532 107.309C141.762 107.424 142.113 107.522 142.4 107.591C145.006 108.172 147.641 108.598 150.298 108.753C152.95 108.909 155.637 108.794 158.272 108.351C159.134 108.218 159.986 108.005 160.831 107.804C161.671 107.557 162.517 107.338 163.334 107.039C163.869 106.861 164.41 106.682 164.927 106.464C165.451 106.245 165.992 106.073 166.498 105.825C167.24 105.48 168.005 105.169 168.718 104.761L169.805 104.18C170.156 103.967 170.496 103.737 170.841 103.513C171.1 103.34 171.353 103.168 171.606 103.001C171.853 102.828 172.084 102.633 172.325 102.46C172.803 102.103 173.309 101.816 173.827 101.563C174.039 101.453 174.523 101.01 174.649 100.809C175.155 100.055 175.869 99.3363 176.582 98.6115C178.469 96.6096 180.114 94.3661 181.385 91.9155C181.88 91.0181 182.26 90.0689 182.651 89.1312C182.99 88.1705 183.336 87.2098 183.571 86.2204C183.986 84.7017 184.256 83.1485 184.434 81.5896C184.618 80.0306 184.687 78.4659 184.676 76.9012C184.664 75.5954 184.595 74.278 184.457 72.9895C184.313 71.6894 184.089 70.395 183.819 69.118C183.675 68.5312 183.491 67.9559 183.347 67.3749C183.192 66.8457 183.031 66.2992 182.87 65.7642C182.697 65.2292 182.524 64.7115 182.404 64.1995C182.283 63.63 182.093 63.1468 181.909 62.6808C181.713 62.2149 181.495 61.7719 181.15 61.3462C180.764 60.8688 180.425 59.9886 180.045 59.3213C179.821 58.8841 179.608 58.4412 179.401 57.9925C179.182 57.5553 178.941 57.1296 178.716 56.7039C178.204 55.6512 177.56 54.7538 176.668 53.8679C176.145 53.4307 175.558 52.7174 175.086 52.1133C172.906 49.5362 170.018 47.5227 166.9 46.1249C162.655 44.2323 158.001 43.4097 153.405 43.542C152.956 43.5362 152.502 43.565 152.053 43.5995L150.701 43.6915C149.804 43.7951 148.901 43.8986 148.009 44.0482C142.463 44.9859 137.119 47.1546 132.58 50.4911C132.12 50.796 131.7 51.1699 131.269 51.515C130.837 51.8659 130.412 52.2226 130.044 52.6253C129.612 53.0855 129.146 53.5054 128.726 53.9772C128.306 54.4431 127.881 54.9033 127.449 55.3578L126.235 56.7902C125.821 57.2619 125.465 57.7796 125.073 58.2686C123.244 60.6847 121.904 63.4344 121.001 66.2762C120.759 66.932 120.638 67.628 120.425 68.2781C119.723 70.5619 119.315 72.9492 119.309 75.3365C119.286 77.7181 119.482 80.1054 119.994 82.4295C120.719 86.2089 122.226 89.8388 124.268 93.158C125.884 95.7007 127.783 98.088 129.98 100.193C130.124 100.332 130.297 100.447 130.441 100.585C131.706 101.752 131.976 102.333 130.993 102.247C130.124 102.149 129.014 101.591 127.84 100.452C126.54 99.1982 125.361 97.8233 124.28 96.3852H124.205Z" fill="#A0D0DB"/>
<path d="M124.275 80.0412C122.521 68.3692 128.762 56.7087 138.588 51.4164C147.487 46.6245 156.334 48.6666 158.751 49.2591C160.747 49.7539 171.728 52.6877 177.682 63.7269C178.332 64.9292 184.89 77.6136 178.143 90.3499C173.276 99.5425 164.676 102.712 163.059 103.276C152.135 107.084 142.776 102.413 140.285 101.119C137.69 99.7841 126.277 93.3815 124.275 80.0412Z" fill="#C0E3EB"/>
<path d="M123.443 72.2062C123.541 71.6598 123.645 71.1132 123.8 70.5783C123.95 70.0433 124.07 69.5025 124.237 68.9733C124.421 68.4498 124.605 67.9321 124.789 67.4143C124.962 66.8966 125.227 66.4076 125.445 65.9129C125.825 65.0213 126.343 64.2044 126.768 63.3473C126.998 62.9273 127.252 62.5189 127.476 62.0932C127.7 61.6675 127.919 61.2303 128.166 60.8046C128.414 60.3559 128.742 59.913 129.041 59.4758C129.639 58.7164 130.185 57.9168 130.841 57.2093C131.129 56.8756 131.365 56.4614 131.664 56.1853C133.205 54.8737 134.724 53.6081 136.306 52.3483C137.014 51.9974 137.71 51.6465 138.366 51.2208C139.05 50.8584 139.717 50.4327 140.436 50.0991C141.863 49.403 143.416 48.9658 144.906 48.4366C145.303 48.2985 145.775 48.2007 146.195 48.1489C148.755 47.8671 151.303 47.7347 153.88 47.8958C156.63 48.0857 159.357 48.7415 161.848 49.8747C163.171 50.4787 164.546 51.1 165.857 51.7961C167.422 52.613 168.935 53.5391 170.344 54.6148C172.386 56.1738 174.233 57.9629 175.907 59.9245C177.011 61.2533 178.012 62.6627 178.87 64.2159C179.692 65.7633 180.359 67.3856 180.912 69.0538C181.452 70.7566 181.757 72.5629 181.953 74.352C182.315 77.9473 181.999 81.6002 181.038 85.069C180.894 85.7306 180.653 86.3633 180.423 87.0019C180.193 87.6347 179.997 88.2905 179.686 88.8945L178.841 90.7411L177.84 92.5071C176.522 94.6643 174.935 96.6662 173.071 98.3978C170.31 100.963 167.077 102.988 163.516 104.34C159.949 105.611 156.107 106.221 152.31 105.968C150.486 105.859 148.668 105.635 146.891 105.203C146.005 104.984 145.125 104.726 144.268 104.421C142.674 103.857 141.121 103.155 139.648 102.367C138.153 101.562 136.732 100.664 135.374 99.6691C131.48 96.8503 128.103 93.2089 125.831 88.8887C125.532 88.2617 125.186 87.6634 124.939 87.0192L124.174 85.0921L123.553 83.1189C123.34 82.4631 123.219 81.7785 123.035 81.1112C122.839 80.3577 122.92 80.093 123.248 80.3347C123.817 80.7431 124.381 81.0365 124.904 82.1985C125.296 82.9751 125.681 83.6712 125.917 84.6894C126.159 85.4027 126.452 86.1275 126.774 86.8236C127.142 87.5081 127.436 88.2157 127.694 88.929C127.769 89.1304 127.942 89.3834 128.086 89.5905C130.68 93.2319 133.798 96.5224 137.531 99.0478C138.745 99.8762 140.045 100.561 141.374 101.188C142.231 101.596 143.106 101.976 143.992 102.315C145.274 102.816 146.586 103.282 147.938 103.564C148.444 103.684 148.95 103.753 149.439 103.851C149.928 103.961 150.4 104.081 150.849 104.271C151.038 104.352 151.585 104.415 151.786 104.363C152.551 104.145 153.391 104.265 154.248 104.248C156.555 104.283 158.873 104.024 161.117 103.431C161.928 103.167 162.768 102.954 163.55 102.614C164.339 102.287 165.109 101.918 165.857 101.504C168.175 100.227 170.258 98.5876 172.116 96.7583C173.663 95.2223 175.067 93.5253 176.189 91.6615C176.459 91.2358 176.637 90.7641 176.885 90.3326C177.126 89.9415 177.299 89.4985 177.489 89.0786C177.679 88.6529 177.88 88.2444 178.104 87.8705C178.576 87.0306 178.8 86.3001 178.887 85.4027C178.904 84.8907 179.082 84.1313 179.266 83.5216C179.393 83.1304 179.479 82.7335 179.577 82.3308C179.681 81.9339 179.784 81.5369 179.882 81.1458C180.009 80.674 180.06 80.2023 180.124 79.7249C180.17 79.2474 180.21 78.7527 180.095 78.2235C180.043 77.9416 180.032 77.6079 180.037 77.2628C180.049 76.9176 180.066 76.561 180.066 76.2388C180.158 73.397 179.537 70.5035 178.501 67.817C178.15 66.9024 177.759 66.005 177.328 65.1363C176.914 64.2677 176.356 63.4853 175.838 62.657C174.733 61.075 173.525 59.5621 172.11 58.2505C171.593 57.704 170.988 57.238 170.43 56.7318C169.849 56.2486 169.251 55.7884 168.641 55.3397C164.799 52.6302 160.409 50.6628 155.75 49.8805C154.835 49.7309 153.903 49.5871 152.989 49.5928C150.877 49.5813 148.801 49.6389 146.724 49.915C144.222 50.2486 141.834 51.1288 139.671 52.3541C139.154 52.6129 138.693 52.9926 138.187 53.2572C136.45 54.2352 134.851 55.4777 133.47 56.9216C132.078 58.354 130.824 59.9187 129.742 61.5985C129.265 62.2543 128.897 62.9734 128.471 63.6637C128.068 64.3655 127.735 65.1018 127.361 65.8266C126.722 67.3108 126.118 68.8295 125.739 70.4172C125.106 72.8505 124.778 75.3759 124.841 77.9128C124.853 78.0796 124.893 78.2522 124.904 78.4133C124.985 79.8457 124.697 80.3807 124.111 79.7536C123.852 79.4718 123.622 79.0863 123.449 78.5974C123.363 78.35 123.271 78.0796 123.231 77.7863C123.19 77.4871 123.167 77.165 123.161 76.8198L123.144 75.6693L123.225 74.5245C123.254 74.1449 123.277 73.7594 123.317 73.3798L123.489 72.2465L123.443 72.2062Z" fill="#A0D0DB"/>
<path d="M151.028 61.8475C150.976 62.3134 150.964 62.7794 150.866 63.2511C150.78 63.671 150.688 64.0795 150.907 64.4649C150.964 64.5627 150.941 64.6835 150.958 64.7928C150.987 64.9941 151.016 65.1897 151.062 65.3911C151.079 65.4831 151.194 65.5636 151.171 65.6499C151.074 66.0871 151.085 66.5071 151.321 66.8983C151.148 67.2549 151.355 67.5483 151.465 67.8647C151.58 68.1811 151.58 68.5205 151.793 68.8138C151.85 68.8944 151.879 68.9864 151.862 69.0785C151.752 69.6307 151.896 70.1427 152.017 70.6662C152.149 71.2242 152.172 71.7994 152.051 72.392C151.988 72.7084 152.04 73.019 152.086 73.3239C152.138 73.692 152.253 74.0487 152.328 74.4111C152.431 74.9404 152.569 75.4581 152.799 75.9586C153.104 76.6316 153.369 77.3219 153.587 78.0122C153.645 78.1905 153.668 78.3689 153.679 78.5587C153.702 78.8579 153.725 79.157 153.748 79.4561L153.794 80.0084L153.133 80.4743L152.811 80.6987L152.655 80.808L152.558 80.8713C152.293 81.0381 152.028 81.2107 151.775 81.3947C151.321 81.7169 150.901 82.0793 150.492 82.4532C150.107 82.7984 149.762 83.1953 149.382 83.552L145.994 86.6814C145.724 86.9345 145.476 87.2106 145.206 87.4637C145.074 87.5903 144.93 87.7111 144.78 87.8204C144.234 88.2288 143.67 88.62 143.129 89.0399L140.828 90.8635C140.391 91.2029 139.931 91.5193 139.597 91.991C139.505 92.1233 139.384 92.0543 139.258 91.8012C139.033 91.364 138.786 90.9268 138.815 90.5356C138.832 90.271 138.872 90.0524 139.091 89.9661C139.407 89.8453 139.534 89.4541 139.965 89.4829C140.029 89.4886 140.069 89.4369 140.098 89.3851C140.638 88.5337 141.495 88.0678 142.266 87.4925C142.519 87.3084 142.732 87.0668 142.968 86.8597C143.123 86.7274 143.279 86.5951 143.44 86.4743C143.676 86.2959 143.935 86.1464 144.153 85.9451C144.314 85.7897 144.429 85.5826 144.763 85.6804C144.832 85.6977 144.913 85.6171 144.907 85.5366C144.866 85.2317 145.028 85.1397 145.177 85.0304C145.58 84.737 145.994 84.4609 146.379 84.1445C146.667 83.9144 146.926 83.6498 147.173 83.3679C147.553 82.9365 147.904 82.4647 148.289 82.0333C148.611 81.6766 148.974 81.366 149.319 81.0266C149.4 80.9461 149.446 80.8368 149.532 80.762C149.681 80.6239 149.808 80.4456 150.015 80.3938C150.245 80.342 150.383 80.2558 150.389 79.9509C150.395 79.7783 150.539 79.6805 150.659 79.6115C150.82 79.5194 151.016 79.4791 151.212 79.4331C151.321 79.4101 151.459 79.3698 151.522 79.3468C151.563 79.3411 151.586 79.3008 151.534 79.226C151.482 79.1455 151.551 79.1627 151.655 79.1627H151.672C151.735 79.1455 151.781 79.0995 151.804 79.0477C151.816 79.0189 151.827 78.9902 151.833 78.9556L151.839 78.9039L151.833 78.7946C151.804 78.4897 151.735 78.1848 151.655 77.8857C151.43 77.0631 151.16 76.2462 150.93 75.4236C150.838 75.1014 150.786 74.7735 150.717 74.4456C150.516 73.4274 150.435 72.392 150.366 71.3565C150.354 71.1552 150.349 70.948 150.268 70.7525C150.084 70.3095 150.05 69.8493 150.061 69.3833C150.078 68.8196 149.906 68.2846 149.722 67.7554C149.681 67.6288 149.607 67.508 149.607 67.3814C149.612 66.484 149.256 65.6384 149.175 64.7583C149.112 64.0449 149.146 63.3144 149.158 62.5895C149.169 62.0315 149.21 61.4678 149.238 60.904C149.238 60.8695 149.215 60.835 149.215 60.7947C149.244 60.4726 149.566 60.3288 150.101 60.3978C150.573 60.4611 150.866 60.6279 150.901 60.9155C150.935 61.2262 150.941 61.5426 150.958 61.859L151.028 61.8475Z" fill="#A0D0DB"/>
<path d="M148.282 78.6607C148.328 76.8544 150.318 75.4277 151.975 75.4277C153.609 75.4277 155.622 76.8141 155.668 78.6607C155.714 80.5073 153.776 82.141 152.09 82.1985C150.29 82.2618 148.236 80.5303 148.282 78.6607Z" fill="#C0E3EB"/>
<path d="M147.72 77.4186C147.956 77.1482 148.192 76.9066 148.502 76.7628C148.778 76.6363 149.043 76.5672 149.124 76.2739C149.147 76.1991 149.227 76.1761 149.279 76.13C149.377 76.0438 149.48 75.9747 149.572 75.8884C149.613 75.8482 149.613 75.7389 149.676 75.7331C149.987 75.7216 150.217 75.6468 150.395 75.3822C150.665 75.4973 150.792 75.2902 150.982 75.1636C151.172 75.0428 151.39 75.0485 151.591 74.853C151.649 74.8012 151.718 74.7839 151.781 74.8127C152.161 74.9738 152.5 74.945 152.863 74.9853C153.248 75.0198 153.599 75.2211 153.829 75.5663C153.95 75.7446 154.111 75.8482 154.278 75.946C154.462 76.0783 154.686 76.1703 154.87 76.3141C155.129 76.5327 155.405 76.7398 155.722 76.9699C156.153 77.2748 156.521 77.7465 156.706 78.3218C156.803 78.6152 156.723 78.9316 156.654 79.2192C156.504 79.8002 156.194 80.2834 155.883 80.7034C155.641 81.014 155.423 81.3304 155.164 81.6238C154.928 81.8941 154.704 82.1933 154.41 82.4234C153.979 82.7628 153.484 83.0446 152.909 83.2287C152.339 83.4186 151.655 83.4646 151.045 83.3783C150.752 83.338 150.458 83.3035 150.171 83.223C150.033 83.177 149.9 83.1194 149.774 83.0504C149.313 82.78 148.911 82.4406 148.537 82.0782C148.008 81.5547 147.53 80.9392 147.248 80.1741C147.104 79.7254 147.024 79.2767 146.869 78.7762C146.823 78.6324 146.949 78.5922 147.225 78.6497C147.703 78.7417 148.209 78.7935 148.497 78.9143C148.686 78.9948 148.865 79.0466 148.807 79.1616C148.744 79.3457 148.997 79.432 148.796 79.6851C148.767 79.7254 148.796 79.7484 148.824 79.7657C149.319 80.0706 149.463 80.525 149.837 80.8989C149.952 81.0197 150.119 81.0773 150.263 81.152C150.355 81.2096 150.452 81.2499 150.539 81.3131C150.665 81.3994 150.792 81.5029 150.941 81.5432C151.062 81.5662 151.183 81.5202 151.206 81.8194C151.212 81.8826 151.281 81.8826 151.315 81.8251C151.459 81.595 151.534 81.641 151.626 81.6583C151.862 81.7273 152.103 81.7561 152.351 81.7273C152.535 81.6928 152.707 81.6065 152.857 81.4915C153.093 81.2959 153.271 81.0427 153.438 80.8241C153.582 80.6401 153.743 80.4905 153.858 80.3122C153.887 80.2661 153.875 80.1971 153.904 80.1569C153.962 80.0878 153.962 79.9728 154.082 79.9728C154.226 79.9728 154.278 79.9095 154.128 79.7197C154.048 79.6161 154.088 79.5701 154.134 79.5298C154.192 79.4838 154.307 79.4723 154.41 79.4435C154.537 79.4148 154.686 79.3688 154.537 79.2307C154.456 79.1617 154.537 79.1214 154.606 79.0811C154.939 78.9085 154.905 78.6036 154.784 78.3851C154.612 78.0744 154.324 77.8501 154.025 77.6717C153.904 77.6027 153.818 77.5107 153.703 77.4416C153.363 77.2115 153.024 76.9412 152.638 76.7398C152.564 76.6938 152.489 76.6593 152.397 76.688C152.196 76.7743 152.057 76.7225 151.891 76.6535C151.689 76.5615 151.471 76.7053 151.298 76.8721C151.258 76.9124 151.229 76.9757 151.177 76.9814C150.786 76.9929 150.591 77.3956 150.32 77.574C150.096 77.7235 149.82 77.8386 149.595 78.0226C149.411 78.1607 149.244 78.316 149.106 78.5173C149.101 78.5289 149.118 78.5461 149.112 78.5634C149.026 78.6727 148.681 78.7302 148.169 78.6267C147.72 78.5346 147.455 78.3333 147.507 78.1147C147.559 77.8788 147.668 77.6602 147.783 77.4589L147.72 77.4186Z" fill="#A0D0DB"/>
<path d="M147.648 31.893C146.987 31.8412 146.659 31.0704 147.073 30.5526C148.155 29.195 150.26 27.1874 153.412 26.848C157.042 26.4568 160.707 28.4242 162.714 31.8413C163.054 32.4165 162.594 33.1298 161.932 33.078C157.169 32.6811 152.412 32.2899 147.648 31.893Z" fill="#C0E3EB"/>
<path d="M146.227 30.369C146.285 30.2712 146.354 30.1907 146.429 30.1159C146.504 30.0353 146.532 30.0296 146.584 29.9835C146.682 29.9088 146.774 29.834 146.872 29.7649C147.067 29.6211 147.269 29.4946 147.487 29.3853C147.878 29.1955 148.258 29.0459 148.471 28.6547C148.523 28.5511 148.644 28.5109 148.73 28.4419L149.213 28.068C149.282 28.0047 149.317 27.8781 149.403 27.8551C149.846 27.7516 150.226 27.602 150.53 27.2568C150.922 27.3201 151.152 27.0497 151.451 26.8772C151.75 26.7046 152.084 26.6528 152.377 26.417C152.457 26.3537 152.555 26.3134 152.647 26.3249C153.223 26.4112 153.746 26.2904 154.304 26.2444C154.897 26.1868 155.501 26.3076 156.024 26.6125C156.306 26.7679 156.611 26.8484 156.91 26.9289C157.261 27.0382 157.635 27.0958 157.986 27.2281C158.498 27.4121 158.992 27.6077 159.545 27.7631C160.269 27.9817 160.983 28.3153 161.621 28.764C161.938 28.9999 162.179 29.3277 162.398 29.6556L162.565 29.8973L162.645 30.0181L162.755 30.2021L163.192 30.9327C163.318 31.1686 163.37 31.4102 163.462 31.6403L163.589 31.9797C163.606 32.089 163.612 32.1983 163.606 32.3134C163.595 32.6585 163.456 33.0209 163.221 33.297C162.985 33.5789 162.668 33.7572 162.358 33.8263C162.064 33.9126 161.679 33.9413 161.276 33.9298H160.258L155.771 33.8781C155.409 33.8723 155.052 33.9068 154.69 33.9068C154.511 33.9068 154.333 33.8953 154.154 33.8723C153.493 33.7918 152.837 33.694 152.17 33.6249L149.322 33.3661C148.782 33.3085 148.247 33.228 147.7 33.3373C147.545 33.3661 147.51 33.2337 147.585 32.9634C147.723 32.4917 147.838 32.0027 148.12 31.7381C148.31 31.5598 148.488 31.4275 148.695 31.5137C149 31.6403 149.351 31.4447 149.639 31.7611C149.679 31.8071 149.742 31.7956 149.794 31.7841C150.749 31.5367 151.664 31.7841 152.59 31.8992C152.895 31.9394 153.2 31.9107 153.51 31.9222C153.706 31.9279 153.907 31.9452 154.103 31.9682C154.39 32.0027 154.672 32.0717 154.96 32.0717C155.178 32.0717 155.397 31.997 155.564 32.2961C155.598 32.3594 155.713 32.3536 155.759 32.2903C155.932 32.043 156.11 32.0832 156.289 32.1062C156.766 32.1638 157.249 32.2501 157.727 32.2846C158.084 32.3133 158.446 32.3019 158.803 32.2673C159.361 32.2156 159.924 32.112 160.482 32.066L160.655 32.0545L160.735 32.0487L160.764 32.043L160.874 32.02C160.943 32.0085 161.006 31.997 161.052 31.9739C161.075 31.9624 161.058 31.9107 161.069 31.8934C161.109 31.8704 161.063 31.7899 161.201 31.8417C161.362 31.8934 161.426 31.8186 161.092 31.6633C160.908 31.5828 160.925 31.5885 160.948 31.577C160.983 31.5713 161.086 31.5598 161.161 31.5195C161.265 31.4792 161.316 31.3527 161.104 31.3642C161.052 31.3699 161.029 31.3584 161.029 31.3354C161.023 31.3124 161.052 31.2951 161.023 31.2088C160.891 30.6163 160.488 30.1907 160.011 29.8915C159.372 29.4658 158.67 29.1667 157.98 28.9308C157.704 28.8446 157.451 28.7238 157.18 28.6432C156.352 28.3728 155.529 28.114 154.661 27.9932C154.494 27.9759 154.316 27.9472 154.149 27.9989C153.763 28.1312 153.395 28.137 152.998 28.1197C152.521 28.114 152.089 28.3326 151.704 28.5914C151.612 28.6547 151.537 28.7525 151.434 28.7698C150.697 28.9423 150.191 29.5521 149.593 29.9721C149.104 30.323 148.569 30.6624 148.08 31.0708L147.936 31.1916L147.901 31.2204L147.74 31.0938L147.706 31.0708C147.666 31.0535 147.671 31.0593 147.689 31.0593C147.729 31.0535 147.694 31.0535 147.677 31.0823C147.677 31.0766 147.671 31.0881 147.677 31.0823C147.666 31.0881 147.648 31.2089 147.654 31.3642C147.654 31.5252 147.66 31.7439 147.539 31.9855C147.435 32.2041 147.251 32.3536 147.033 32.3824C146.814 32.4112 146.555 32.3191 146.388 32.0948C146.009 31.6115 145.974 30.9155 146.256 30.3977L146.227 30.369Z" fill="#A0D0DB"/>
<path d="M108.158 23.1618C108.152 23.3459 108.181 23.507 108.135 23.7198C108.095 23.9097 108.055 24.0995 108.262 24.0995C108.314 24.0995 108.308 24.1513 108.331 24.18C108.371 24.2261 108.406 24.2836 108.457 24.3238C108.48 24.3411 108.578 24.3066 108.567 24.3468C108.521 24.5482 108.567 24.6805 108.785 24.6805C108.676 24.8991 108.86 24.8818 108.981 24.9221C109.096 24.9624 109.125 25.0774 109.32 25.0544C109.372 25.0486 109.407 25.0659 109.395 25.1004C109.349 25.3478 109.504 25.4341 109.648 25.5434C109.798 25.6527 109.861 25.831 109.809 26.1014C109.78 26.2452 109.844 26.32 109.907 26.3948C109.982 26.4868 110.103 26.5386 110.183 26.6191C110.304 26.7399 110.459 26.832 110.684 26.8722C110.983 26.924 111.253 27.0045 111.483 27.1081C111.598 27.1599 111.616 27.2979 111.662 27.413C111.748 27.6373 111.805 27.8905 111.909 28.1033C111.989 28.2644 112.11 28.3851 112.243 28.506C112.363 28.6153 112.536 28.69 112.668 28.7936C113.054 29.11 113.422 29.4321 113.802 29.7485C113.894 29.8233 114.009 29.8808 114.106 29.9499C114.152 29.9844 114.193 30.0304 114.221 30.0822C114.331 30.2663 114.429 30.4676 114.549 30.6459C114.722 30.899 114.923 31.1349 115.096 31.3938C115.194 31.5376 115.274 31.6986 115.499 31.7447C115.562 31.7562 115.47 31.8482 115.24 32.0035C114.843 32.2682 114.429 32.5558 114.152 32.6651C113.963 32.7399 113.813 32.7859 113.83 32.6881C113.848 32.5443 113.606 32.5961 113.773 32.3372C113.796 32.3027 113.773 32.2912 113.75 32.2912C113.307 32.2509 113.261 31.9057 113.105 31.6411C113.054 31.5548 112.956 31.5088 112.881 31.4398C112.835 31.3938 112.795 31.342 112.76 31.2902C112.709 31.2097 112.691 31.1061 112.616 31.0486C112.559 31.0026 112.444 31.0083 112.634 30.784C112.674 30.738 112.639 30.715 112.576 30.7495C112.34 30.8703 112.323 30.807 112.294 30.7552C112.214 30.6172 112.156 30.4676 112.058 30.3468C111.984 30.2547 111.88 30.1915 111.759 30.1397C111.575 30.0592 111.345 30.0074 111.161 29.9211C111.011 29.8463 110.908 29.737 110.776 29.6507C110.747 29.6277 110.678 29.6392 110.655 29.6162C110.609 29.576 110.517 29.5587 110.551 29.4551C110.592 29.3401 110.574 29.2883 110.356 29.3804C110.229 29.4321 110.206 29.3803 110.2 29.3343C110.189 29.271 110.223 29.1733 110.258 29.0755C110.298 28.9604 110.35 28.8396 110.166 28.8914C110.068 28.9202 110.08 28.8396 110.103 28.7648C110.206 28.4427 110.068 28.2989 109.884 28.1896C109.637 28.04 109.355 27.9192 109.102 27.7812C109.004 27.7236 108.935 27.6488 108.854 27.574C108.613 27.3497 108.469 27.0506 108.331 26.7399C108.302 26.6824 108.285 26.6134 108.204 26.5961C108.02 26.5501 107.957 26.4178 107.934 26.2567C107.905 26.0554 107.721 25.9806 107.531 25.9058C107.485 25.8885 107.416 25.8885 107.41 25.8483C107.347 25.5434 106.99 25.4686 106.858 25.2155C106.755 25.0141 106.726 24.7495 106.68 24.5022C106.645 24.3123 106.634 24.0995 106.611 23.8924C106.611 23.8809 106.582 23.8809 106.582 23.8694C106.582 23.7428 106.829 23.5127 107.272 23.2308C107.664 22.9835 107.911 22.8742 107.963 22.949C108.014 23.0353 108.043 23.1388 108.083 23.2308C108.124 23.1906 108.141 23.1733 108.158 23.1618Z" fill="#A0D0DB"/>
<path d="M106.956 51.281C106.306 51.7355 105.38 51.4076 105.184 50.6367C103.188 42.8592 106.214 34.518 112.887 29.8756C119.543 25.2448 128.385 25.2851 134.983 29.8239C135.639 30.2726 135.627 31.2505 134.977 31.7107C125.635 38.2341 116.298 44.7576 106.956 51.281Z" fill="#C0E3EB"/>
<path d="M104.052 49.3017C104.04 48.7552 104.006 48.2145 104 47.6737C104.029 47.133 104.04 46.598 104.115 46.0688C104.196 45.5971 104.27 45.1369 104.328 44.6767C104.403 44.2164 104.443 43.7562 104.408 43.273C104.408 43.0257 104.489 42.7668 104.529 42.5137L104.644 41.8234L104.8 41.1388C104.846 40.9317 104.805 40.6901 104.88 40.506C105.081 40.0573 105.3 39.6201 105.455 39.1599C105.622 38.7055 105.795 38.2568 105.893 37.7678C106.134 37.4572 106.336 37.1408 106.479 36.7956C106.554 36.623 106.623 36.4447 106.686 36.2664L106.928 35.7486C107.101 35.4092 107.273 35.0583 107.486 34.7362C107.693 34.414 107.889 34.0804 108.044 33.718C108.119 33.5224 108.268 33.3441 108.418 33.2002C108.654 32.9874 108.872 32.7688 109.085 32.5444C109.304 32.3258 109.534 32.113 109.747 31.8886C110.167 31.4284 110.621 31.0085 111.076 30.5713C111.565 30.1111 112.117 29.7257 112.669 29.3575C113.256 29.0354 113.831 28.696 114.47 28.4946C114.809 28.3796 115.131 28.2242 115.459 28.0804C115.793 27.9481 116.126 27.7986 116.449 27.6547C116.834 27.4707 117.242 27.3441 117.634 27.1773C118.025 27.0047 118.433 26.8781 118.847 26.7631C120.038 26.3949 121.252 26.1706 122.477 25.8887C124.128 25.5665 125.854 25.4918 127.574 25.6759C128.454 25.7564 129.306 26.0613 130.14 26.3432C131.808 26.9299 133.355 27.7986 134.811 28.765L135.311 29.0929C135.507 29.2252 135.697 29.3748 135.841 29.5588C136.134 29.9213 136.283 30.393 136.255 30.8589C136.232 31.3249 136.042 31.7794 135.708 32.1188C135.547 32.2913 135.34 32.4294 135.145 32.5732L134.748 32.8666C133.798 33.5684 132.889 34.3162 131.94 35.0238L123.53 41.2826L121.534 42.8185C121.2 43.0717 120.855 43.3133 120.51 43.5491L116.633 46.1551L111.139 49.9633C110.098 50.6766 109.039 51.3727 108.096 52.2183C107.831 52.4541 107.664 52.4139 107.613 52.1147C107.526 51.5913 107.388 51.0793 107.722 50.4983C107.946 50.1071 108.176 49.7619 108.637 49.5318C109.304 49.1924 109.81 48.5654 110.575 48.387C110.685 48.364 110.8 48.2663 110.886 48.18C112.485 46.667 114.378 45.5568 116.19 44.3372C116.782 43.9403 117.34 43.4858 117.916 43.0659C118.289 42.7955 118.669 42.5252 119.055 42.2663C119.613 41.8867 120.194 41.5415 120.728 41.1388C121.137 40.8339 121.482 40.4772 122.023 40.4485C122.138 40.4427 122.345 40.2759 122.385 40.1666C122.529 39.7467 122.891 39.5281 123.237 39.298C124.174 38.6652 125.129 38.0554 126.055 37.4054C126.74 36.9222 127.401 36.4102 128.052 35.8809C129.058 35.0583 130.03 34.1954 131.037 33.3786C131.883 32.694 132.769 32.0612 133.626 31.3997C133.724 31.3249 133.816 31.2386 133.913 31.1523C133.948 31.1178 134.034 31.0488 134.028 31.043C134.034 31.0315 134.046 31.02 134.057 31.0085C134.144 30.9337 134.126 30.8474 134.218 30.7496C134.345 30.6231 134.213 30.4505 133.971 30.5943C133.931 30.6116 133.925 30.6288 133.879 30.6231C133.81 30.6001 133.741 30.5655 133.666 30.5253C133.528 30.4505 133.39 30.3527 133.269 30.2607C132.959 30.0248 132.654 29.7889 132.36 29.5243C132.009 29.2022 131.647 28.9433 131.123 28.903C130.985 28.8915 130.836 28.8398 130.692 28.765C130.542 28.7017 130.393 28.6212 130.261 28.5406C129.11 27.7985 127.729 27.5282 126.378 27.4131C124.531 27.2808 122.684 27.4649 120.924 27.8791C120.579 27.9711 120.234 28.0459 119.889 28.1207L118.87 28.4198C116.765 29.0699 114.775 30.0421 112.963 31.3077L112.428 31.6873C112.261 31.8311 112.105 31.9807 111.962 32.1418C111.795 32.3258 111.628 32.5042 111.45 32.6767C111.288 32.8608 111.122 33.0449 110.949 33.2175L110.426 33.7352L109.919 34.2702C109.488 34.6844 109.166 35.1906 108.838 35.6796C108.539 36.1916 108.274 36.7208 108.044 37.2616C107.941 37.5204 107.871 37.7908 107.733 38.0209C106.796 39.6719 106.479 41.5702 106.18 43.4053C105.95 44.901 105.801 46.4197 105.858 47.9614L105.904 48.853C105.921 49.1522 105.973 49.4455 106.008 49.7447L106.059 50.1934L106.082 50.4005C106.082 50.4177 106.077 50.435 106.082 50.4522C106.082 50.5155 106.123 50.6018 106.215 50.6478C106.238 50.6593 106.267 50.6421 106.29 50.6536C106.387 50.6938 106.502 50.7571 106.64 50.8607C106.773 50.97 106.922 51.1253 106.888 51.4532C106.853 51.7293 106.635 52.0169 106.255 52.1262C105.887 52.2413 105.358 52.1665 104.943 51.7753C104.719 51.5625 104.546 51.2864 104.449 50.993C104.391 50.8262 104.385 50.7514 104.368 50.6593L104.322 50.3832L104.132 49.2845L104.052 49.3017Z" fill="#A0D0DB"/>
<path d="M204.997 40.2241C204.836 40.1896 204.698 40.1781 204.514 40.1033C204.353 40.0343 204.186 39.9595 204.181 40.155C204.181 40.2068 204.135 40.1896 204.112 40.2068C204.071 40.2356 204.025 40.2586 203.991 40.2989C203.973 40.3161 204.002 40.4139 203.968 40.3967C203.795 40.3161 203.68 40.3334 203.68 40.5405C203.496 40.3967 203.508 40.575 203.473 40.6785C203.438 40.7821 203.341 40.7879 203.358 40.9719C203.364 41.0237 203.352 41.0467 203.318 41.0352C203.105 40.9489 203.024 41.0755 202.932 41.1905C202.834 41.3113 202.679 41.3343 202.449 41.2423C202.328 41.1905 202.259 41.2365 202.196 41.2826C202.115 41.3343 202.069 41.4379 202 41.5012C201.897 41.5932 201.816 41.7197 201.782 41.9211C201.736 42.1915 201.667 42.4273 201.575 42.6229C201.529 42.7207 201.408 42.715 201.31 42.7322C201.115 42.7725 200.896 42.7782 200.712 42.8415C200.574 42.8875 200.464 42.9796 200.361 43.0831C200.263 43.1809 200.2 43.3247 200.108 43.4283C199.832 43.7274 199.55 44.015 199.274 44.3142C199.205 44.3832 199.159 44.4868 199.095 44.5615C199.067 44.6018 199.026 44.6248 198.98 44.6421C198.819 44.7111 198.647 44.7629 198.491 44.8434C198.267 44.9585 198.066 45.1023 197.841 45.2173C197.715 45.2806 197.577 45.3266 197.536 45.5337C197.525 45.5913 197.444 45.4877 197.312 45.2461C197.082 44.8262 196.835 44.3889 196.742 44.1128C196.679 43.923 196.639 43.7734 196.725 43.808C196.852 43.854 196.806 43.6181 197.03 43.8195C197.059 43.8482 197.07 43.831 197.07 43.808C197.105 43.3995 197.404 43.4225 197.634 43.3247C197.709 43.296 197.749 43.2039 197.812 43.1522C197.853 43.1176 197.893 43.0889 197.945 43.0658C198.014 43.0313 198.1 43.0371 198.152 42.9738C198.192 42.9278 198.192 42.8242 198.382 43.0371C198.422 43.0831 198.44 43.0544 198.411 42.9911C198.307 42.7495 198.365 42.7495 198.405 42.7265C198.526 42.6747 198.652 42.6459 198.762 42.5769C198.842 42.5251 198.9 42.4388 198.946 42.3353C199.02 42.1742 199.061 41.9729 199.136 41.8175C199.199 41.691 199.297 41.6105 199.371 41.5069C199.389 41.4839 199.383 41.4206 199.406 41.3976C199.44 41.3574 199.458 41.2768 199.544 41.3286C199.642 41.3861 199.688 41.3804 199.613 41.156C199.567 41.0295 199.613 41.0179 199.653 41.0179C199.711 41.0179 199.797 41.0697 199.878 41.1215C199.981 41.1848 200.079 41.248 200.039 41.0697C200.016 40.9719 200.085 41.0007 200.148 41.0352C200.43 41.1905 200.551 41.087 200.649 40.9374C200.775 40.7361 200.884 40.4945 201.005 40.2816C201.051 40.2011 201.12 40.1493 201.183 40.086C201.379 39.9019 201.638 39.8214 201.908 39.7466C201.96 39.7351 202.018 39.7236 202.035 39.6546C202.075 39.4935 202.19 39.4533 202.328 39.4648C202.501 39.4763 202.57 39.3152 202.633 39.1541C202.65 39.1138 202.645 39.0506 202.685 39.0506C202.95 39.0448 203.019 38.7284 203.237 38.6479C203.416 38.5846 203.64 38.6076 203.858 38.6076C204.025 38.6076 204.209 38.6421 204.382 38.6536C204.393 38.6536 204.388 38.6306 204.405 38.6306C204.514 38.6536 204.716 38.9298 204.951 39.39C205.164 39.7984 205.262 40.0515 205.193 40.086C205.118 40.1205 205.032 40.1263 204.946 40.1436C204.974 40.1838 204.986 40.2011 204.997 40.2241Z" fill="#A0D0DB"/>
<path d="M180.432 40.4536C180.029 39.8438 180.294 39.004 180.978 38.7451C190.286 35.213 200.14 39.7633 202.913 47.2589C204.99 52.8735 202.994 59.8801 197.776 64.5684C197.252 65.0344 196.43 64.9251 196.05 64.3326C190.844 56.3768 185.638 48.4152 180.432 40.4536Z" fill="#C0E3EB"/>
<path d="M182.004 37.5481C182.481 37.4331 182.976 37.3928 183.465 37.3353C183.954 37.2835 184.437 37.226 184.926 37.2663C185.357 37.2835 185.783 37.3065 186.203 37.295C186.629 37.318 187.043 37.3065 187.474 37.2145C187.699 37.1685 187.94 37.1857 188.17 37.2087C188.596 37.2317 189.016 37.2663 189.442 37.2778C189.637 37.2778 189.85 37.2145 190.023 37.2778C190.448 37.4273 190.874 37.5482 191.306 37.6287C191.731 37.738 192.163 37.8243 192.611 37.8473C192.922 38.0256 193.233 38.1637 193.56 38.2615C193.888 38.3593 194.234 38.4168 194.573 38.5088C194.901 38.6239 195.223 38.7677 195.545 38.9C195.873 39.0265 196.201 39.1531 196.54 39.2624C196.719 39.3142 196.914 39.412 197.058 39.5328C197.938 40.2691 198.864 40.8961 199.745 41.6382C199.992 41.8223 200.199 42.0467 200.406 42.2768C200.613 42.5011 200.815 42.737 201.01 42.9728C201.361 43.4733 201.683 44.0025 201.931 44.5548C202.149 45.1761 202.54 45.7168 202.77 46.3324C203.104 47.0342 203.426 47.7532 203.633 48.5068C203.955 49.5998 204.111 50.7216 204.295 51.8606C204.508 53.3908 204.444 54.99 204.116 56.5374C204.024 56.9286 203.892 57.314 203.748 57.6937C203.593 58.0676 203.403 58.43 203.236 58.7982C202.517 60.2479 201.58 61.5594 200.561 62.7732C200.193 63.2449 199.773 63.6706 199.376 64.1193C199.175 64.3437 198.956 64.545 198.749 64.7579L198.352 65.149C198.191 65.2986 198.013 65.4252 197.812 65.523C197.075 65.8796 196.126 65.7301 195.528 65.1318C195.378 64.988 195.252 64.8039 195.125 64.6256L194.872 64.2862L194.4 63.6361L188.93 55.8471L187.578 54.0005C187.353 53.6899 187.146 53.3735 186.945 53.0514L184.696 49.456L181.394 44.3649C180.772 43.3985 180.18 42.4206 179.426 41.5462C179.214 41.3046 179.265 41.1435 179.564 41.0917C180.076 41.0054 180.588 40.8674 181.123 41.1723C181.492 41.3794 181.802 41.5865 181.998 42.0122C182.28 42.6277 182.849 43.0994 182.97 43.8127C182.987 43.9105 183.074 44.0198 183.148 44.1004C184.5 45.573 185.444 47.3333 186.496 49.013C186.842 49.5595 187.238 50.0773 187.607 50.6123C187.842 50.9574 188.078 51.3083 188.303 51.665C188.631 52.1827 188.924 52.7177 189.275 53.2182C189.539 53.5921 189.862 53.92 189.85 54.4205C189.85 54.524 189.994 54.7196 190.097 54.7541C190.494 54.8864 190.679 55.2201 190.88 55.5422C191.426 56.4109 191.95 57.2968 192.514 58.1539C192.933 58.7867 193.382 59.4022 193.848 60.0005C194.573 60.9324 195.344 61.8298 196.057 62.7617C196.339 63.1184 196.73 63.6821 196.753 63.6764C196.868 63.7799 197.047 63.7914 197.167 63.7109C197.231 63.6706 197.225 63.5843 197.277 63.5326C197.403 63.3945 197.536 63.2565 197.662 63.1184C197.806 62.9803 197.944 62.848 198.099 62.7387C198.444 62.5028 198.698 62.2785 198.755 61.8355C198.784 61.5882 199.002 61.3351 199.187 61.1337C199.428 60.8806 199.681 60.6333 199.957 60.3974C200.291 60.1213 200.561 59.8222 200.642 59.3505C200.688 59.1031 200.872 58.827 201.056 58.6141C201.838 57.6592 202.276 56.4626 202.465 55.2546C202.753 53.6151 202.719 51.9469 202.396 50.3822C202.281 49.7666 202.143 49.1569 201.965 48.5644C201.361 46.7465 200.441 45.0207 199.141 43.5366C199.014 43.3928 198.893 43.2375 198.755 43.0994C198.611 42.9671 198.462 42.8463 198.301 42.737C197.932 42.4839 197.599 42.2135 197.231 41.9661C196.874 41.713 196.552 41.4081 196.178 41.1665C195.741 40.8616 195.292 40.5625 194.786 40.3842L194.044 40.0965C193.796 40.0045 193.526 39.9585 193.273 39.8837C193.031 39.8262 192.784 39.7916 192.56 39.6939C190.966 39.0668 189.229 39.0496 187.555 38.9921C187.215 38.9921 186.87 38.9863 186.525 38.9748C186.18 38.9518 185.841 39.0035 185.495 39.0093C185.15 39.0323 184.799 39.0151 184.46 39.0726L183.424 39.2107L183.022 39.2624L182.625 39.3487L181.831 39.5213C181.123 39.6939 181.198 39.5846 181.049 39.7744C181.037 39.7974 181.054 39.8204 181.049 39.8434C181.008 39.9355 180.939 40.039 180.836 40.1713C180.721 40.2921 180.56 40.4417 180.243 40.4129C179.973 40.3842 179.703 40.1943 179.576 39.8549C179.449 39.5213 179.49 39.0438 179.806 38.6354C179.979 38.4168 180.203 38.2327 180.456 38.1061L180.646 38.0256C180.703 38.0026 180.732 37.9969 180.778 37.9854L181.02 37.9163L181.998 37.6459L182.004 37.5481Z" fill="#A0D0DB"/>
</svg>
