<svg width="65" height="64" viewBox="0 0 65 64" fill="none" xmlns="http://www.w3.org/2000/svg">
<path d="M1.44428 25.2777L9.56693 9.15898C9.62446 9.04393 9.73376 8.95763 9.86031 8.92887L48.2243 0.524347C48.3394 0.501337 48.4602 0.524339 48.558 0.587617L63.6125 10.7467C63.7793 10.8618 63.8483 11.0746 63.7735 11.2644L43.8293 61.6628C43.72 61.939 43.3691 62.0253 43.1448 61.8297L1.54783 25.7955C1.39251 25.6689 1.35224 25.4561 1.44428 25.2777Z" fill="#F1D1D5"/>
<path d="M4.37255 17.6271C5.49431 15.654 6.5988 13.6464 7.74932 11.7135C7.99668 11.2994 8.23829 10.8909 8.48565 10.4767L8.84807 9.85539L9.22198 9.18814C9.30252 9.05583 9.3658 8.91201 9.48085 8.81421C9.5959 8.70491 9.75122 8.67612 9.90079 8.64161L10.7292 8.46331C11.2411 8.34826 11.7531 8.21015 12.2651 8.05483C12.7713 7.89951 13.3408 7.81323 13.8758 7.69817C14.8538 7.47958 15.8375 7.26103 16.8096 7.03668C17.2526 6.93314 17.7013 6.73179 18.1212 6.67427C20.1922 6.38664 22.2286 5.98394 24.2362 5.36266C25.8757 5.23035 27.4059 4.72984 28.9936 4.31565C30.5756 3.90146 32.2151 3.58513 33.7625 3.0789C34.1709 2.94084 34.6484 2.82 35.0799 2.75672C37.703 2.3713 40.2687 1.73853 42.8573 1.12301C44.2437 0.79511 45.6358 0.490184 47.028 0.219813L47.5515 0.122064L47.8621 0.0645518C47.9829 0.0415414 48.098 0.0184749 48.2188 0.00696973C48.4546 -0.0275458 48.6905 0.0703043 48.8803 0.208366L49.3865 0.57647C49.956 1.00216 50.5198 1.43361 51.0778 1.8708C52.2686 2.80272 53.5802 3.68288 54.863 4.54577C56.3932 5.57548 57.9521 6.55342 59.4881 7.56588C60.1611 8.00307 60.8284 8.44028 61.4957 8.87748L63.6127 10.2293C63.8888 10.4249 64.1879 10.609 64.2397 10.9657C64.2742 11.2878 64.1419 11.6042 64.0211 11.9436L63.7392 12.7605L63.4861 13.5198C62.3759 16.8966 61.2138 20.2791 60.0058 23.6444C59.3903 25.3587 58.6482 27.0557 57.9406 28.7469C56.5255 32.141 55.0758 35.5119 53.678 38.9117C52.631 41.4659 51.63 44.0488 50.6464 46.6317C49.749 49.0478 48.8515 51.4639 47.9484 53.8799L45.9177 59.2414L45.4115 60.5817L45.0088 61.6287C44.8708 62.0371 44.6694 62.3938 44.4451 62.6066C44.3358 62.7102 44.238 62.808 44.0827 62.8885C43.9331 62.9691 43.749 63.0208 43.5707 63.0381C43.3923 63.0496 43.2428 63.0323 43.1047 62.992C42.9609 62.9633 42.7998 62.8943 42.6387 62.8137C42.3051 62.6296 41.9887 62.3018 41.6608 62.0429L40.9705 61.4561L32.2036 54.0698L27.9639 50.5549C27.2621 49.9682 26.566 49.3642 25.8757 48.7601L18.2075 42.0066L7.16256 32.4056C5.08012 30.582 3.01494 28.7469 0.82896 27.0614C0.754176 26.9981 0.685145 26.9463 0.621866 26.8945L0.558588 26.837L0.4723 26.7507C0.414774 26.6932 0.368752 26.63 0.322732 26.5667C0.23069 26.4401 0.167411 26.3078 0.115638 26.1812C-0.0799497 25.6635 0.0120914 25.2379 0.104133 25.002C0.207679 24.7661 0.305473 24.6914 0.339989 24.7316C0.380257 24.7719 0.351496 24.9272 0.368753 25.186C0.403269 25.6347 0.639124 25.9799 0.938258 26.1755C1.00729 26.2157 1.10508 26.2733 1.15686 26.2791H1.28917C1.38121 26.2848 1.47325 26.2906 1.57104 26.3021C1.96222 26.3481 2.41667 26.4862 3.00919 26.8083C3.81455 27.2513 4.54513 27.6885 5.33898 28.4708C6.49525 29.6098 7.92765 30.5532 8.9401 31.8188C9.08392 31.9971 9.33703 32.1984 9.54988 32.3595C13.3638 35.23 16.8672 38.4975 20.4568 41.6557C21.6303 42.6854 22.8441 43.6749 24.0406 44.6873L26.3417 46.6777C27.4519 47.6499 28.5334 48.6509 29.6609 49.5943C30.5123 50.3076 31.3867 50.9404 31.9562 51.8148C32.077 51.9989 32.5257 52.367 32.727 52.4476C33.4921 52.764 34.1652 53.3853 34.8555 53.995C36.7136 55.6288 38.5544 57.2855 40.4298 58.9077L41.4767 59.7994L42.4834 60.645C42.725 60.8291 42.9379 61.0362 43.1795 61.18C43.3176 61.2318 43.4844 61.1397 43.5304 60.9959L43.6742 60.576C44.1057 59.3219 44.5429 58.0736 44.9743 56.8195C45.446 55.4849 45.912 54.1446 46.3837 52.81C47.189 50.578 48.0462 48.3575 48.8803 46.1255C49.0701 45.6077 49.2197 45.0843 49.4153 44.5723C49.7777 43.6289 50.1056 42.6222 50.5428 41.7708C51.026 40.8274 51.3482 40.0738 51.4862 39.0843C51.5668 38.5263 51.8947 37.7267 52.1765 37.0767C52.539 36.2425 52.9531 35.443 53.3616 34.6491C53.8505 33.6999 54.3223 32.814 54.5811 31.6807C54.7192 31.0767 55.0873 30.3001 55.4037 29.6789C56.7959 26.9176 57.9176 24.0183 58.9934 21.0902L61.024 15.5045L62.0307 12.7087L62.2838 12.0126L62.4104 11.6617C62.4392 11.5812 62.4334 11.5869 62.4392 11.5754L62.4449 11.5409C62.4507 11.4949 62.4737 11.4547 62.4622 11.4086C62.4449 11.3626 62.3874 11.3511 62.3529 11.3281L62.2896 11.2993L61.9617 11.0922C60.5638 10.2063 59.1832 9.28015 57.7968 8.36549C55.6396 6.9446 53.5054 5.50069 51.3769 4.03954L48.2245 1.85936C48.1958 1.83059 48.1555 1.79604 48.1095 1.81905H48.0922L48.0404 1.83056L47.8046 1.87656L47.3329 1.97438L45.4403 2.35983C44.4508 2.56117 43.4384 2.7567 42.4777 3.02132C40.2514 3.63109 38.0022 4.09134 35.7414 4.50553C33.0147 5.00025 30.3397 5.68482 27.6705 6.38088C27.0492 6.54195 26.428 6.73751 25.8009 6.85256C21.4462 7.66943 17.1836 8.84297 12.8576 9.74037L11.2124 10.074L10.7982 10.1545L10.6946 10.1776L10.6429 10.1891C10.6371 10.1891 10.6371 10.1891 10.6371 10.1891L10.6314 10.1833C10.6199 10.1776 10.6026 10.1776 10.5911 10.1891C9.45209 12.2773 8.31883 14.3655 7.17981 16.4479C5.84521 18.8582 4.51637 21.2685 3.18177 23.6789C3.09548 23.8342 3.02645 24.0183 2.94016 24.1736C2.16931 25.5369 1.64007 25.8304 1.51352 24.933C1.39846 24.1391 1.62857 23.0921 2.27286 21.8323L4.45309 17.6847L4.37255 17.6271Z" fill="#F8AFB8"/>
<path d="M3.79198 24.1449C4.56858 24.0817 5.33943 23.9838 6.11603 23.9666C6.81209 23.9551 7.49665 23.9493 8.13519 23.633C8.30201 23.5524 8.4976 23.5409 8.68168 23.5007C9.00958 23.4201 9.34323 23.3453 9.67113 23.2533C9.8207 23.213 9.95876 23.0807 10.1026 23.0807C10.8274 23.0749 11.5235 22.9599 12.1735 22.6263C12.7603 22.7125 13.255 22.4364 13.7785 22.2408C14.302 22.051 14.8657 21.9647 15.3604 21.6771C15.4927 21.6023 15.6538 21.5448 15.8034 21.539C16.718 21.516 17.5752 21.2456 18.4438 20.9925C19.3757 20.7222 20.3249 20.5611 21.3086 20.5381C21.8321 20.5266 22.3498 20.4 22.8618 20.2792C23.4716 20.1353 24.0641 19.934 24.6681 19.7729C25.5425 19.5428 26.4054 19.2782 27.2453 18.9215C28.367 18.4441 29.5118 18.0126 30.6681 17.6215C31.2548 17.4201 31.8819 17.3454 32.4974 17.2418C33.7284 17.0232 34.9652 16.8506 36.1848 16.609C37.1052 16.4307 38.0141 16.1949 38.9173 15.9475C39.7629 15.7174 40.5913 15.4297 41.4312 15.1939C43.9278 14.4921 46.4301 13.8133 48.9325 13.1172C49.5308 12.9504 50.1233 12.7491 50.7216 12.5765C51.0207 12.4902 51.3256 12.4154 51.6305 12.3521C52.7637 12.1163 53.897 11.8977 55.0245 11.6446C56.641 11.2879 58.246 10.8967 59.8624 10.5343C60.7771 10.333 61.6975 10.1546 62.5719 9.7922C62.8193 9.68865 62.9286 9.79796 62.894 10.0856C62.8365 10.5918 62.8193 11.1038 62.4511 11.4893C62.198 11.7481 61.9564 11.9552 61.5709 11.9725C61.013 11.9955 60.501 12.3464 59.9085 12.1853C59.8222 12.1623 59.7186 12.2025 59.6381 12.237C58.1424 12.9216 56.5202 13.1229 54.9325 13.4566C54.4147 13.5659 53.9085 13.7385 53.3965 13.8708C53.0629 13.9571 52.7292 14.0376 52.3956 14.1124C51.9066 14.2159 51.4119 14.285 50.9287 14.4231C50.5663 14.5266 50.2326 14.6992 49.8357 14.4978C49.7551 14.4576 49.5653 14.5151 49.5135 14.5956C49.3122 14.912 49.0073 14.9523 48.7024 15.0156C47.8798 15.1882 47.0514 15.332 46.2346 15.5276C45.6305 15.6714 45.0323 15.8554 44.4455 16.0568C43.5308 16.3732 42.6334 16.7356 41.7188 17.0404C40.9537 17.2936 40.1713 17.4949 39.3947 17.725C39.2164 17.7768 39.0496 17.8746 38.8713 17.9264C38.5434 18.0184 38.2039 18.1622 37.8703 18.145C37.5021 18.1277 37.226 18.168 36.9556 18.4729C36.8061 18.6397 36.5184 18.6972 36.2768 18.726C35.972 18.7662 35.6556 18.749 35.3392 18.7317C34.9652 18.7087 34.6086 18.68 34.2692 18.9388C34.0851 19.0769 33.7917 19.0884 33.5501 19.0826C32.4686 19.0481 31.4447 19.3127 30.438 19.6291C29.0688 20.0605 27.7112 20.5265 26.3421 20.9637C25.8071 21.1363 25.2606 21.2687 24.7141 21.4182C23.0229 21.8727 21.3029 22.2005 19.5828 22.5227C19.2434 22.586 18.8983 22.6435 18.5819 22.7701C17.8456 23.0634 17.0862 23.213 16.3039 23.3108C15.3662 23.4316 14.4803 23.7365 13.5944 24.0529C13.3873 24.1277 13.186 24.2312 12.9731 24.26C11.4832 24.4728 10.0738 25.0423 8.6069 25.3357C7.41611 25.5716 6.20807 25.7154 5.00578 25.8765C4.07386 26.003 3.14194 26.095 2.21002 26.2043C2.14674 26.2101 2.08922 26.2503 2.03169 26.2561C1.4967 26.3021 1.25509 26.0088 1.38165 25.4508C1.49095 24.9503 1.77283 24.6109 2.24454 24.5131C2.76227 24.4038 3.28576 24.3233 3.80924 24.2255C3.80349 24.191 3.79774 24.168 3.79198 24.1449Z" fill="#F8AFB8"/>
<path d="M12.2345 10.5223C12.7005 11.1896 13.2009 11.8396 13.6266 12.5357C14.0063 13.1569 14.3745 13.7667 14.99 14.1867C15.1511 14.296 15.2604 14.4685 15.3984 14.6123C15.6458 14.8712 15.8874 15.1359 16.1405 15.3832C16.2556 15.4983 16.4454 15.5558 16.5259 15.6881C16.9171 16.3381 17.3888 16.9076 18.0216 17.3333C18.2575 17.9086 18.7637 18.2135 19.2124 18.5932C19.4252 18.7772 19.6266 18.9786 19.8279 19.1742L19.9775 19.3122L20.0868 19.3985C20.1616 19.4503 20.2363 19.4905 20.3054 19.5136L20.3399 19.5251C20.4204 19.5423 20.4837 19.5884 20.5355 19.6919C20.5988 19.8645 20.7771 19.968 20.9094 19.9048C21.0302 19.8415 21.0877 19.6919 21.174 19.5711C21.2546 19.4445 21.3293 19.3065 21.3984 19.1742L21.7205 18.5816C22.2095 17.69 22.7905 16.8616 23.4923 16.1138C23.8662 15.7168 24.1539 15.2336 24.4415 14.7619C24.7809 14.2039 25.0743 13.6114 25.4022 13.0477C25.8796 12.225 26.3226 11.3909 26.685 10.505C27.1682 9.31995 27.6975 8.1522 28.2612 7.00744C28.5258 6.48395 28.7272 6.23086 29.3369 5.3047C29.4462 5.14938 29.567 5.01704 29.6878 4.91349C29.8662 4.76392 30.033 4.64314 30.2861 4.57987C30.5277 4.51659 30.7866 4.53957 30.9822 4.6201C31.4194 4.74091 31.8623 5.16659 32.2823 5.47147C32.8115 5.89717 33.3062 6.29985 33.8297 6.70254C34.6063 7.3008 35.4232 7.8531 36.24 8.39959C37.0051 8.90582 37.8047 9.36598 38.5698 9.86646L41.4346 11.7476L42.867 12.691L43.5803 13.1627L43.6724 13.2203C43.6954 13.2375 43.6896 13.226 43.6954 13.2317L43.7242 13.2432L43.7759 13.2605C43.822 13.2662 43.8622 13.3007 43.891 13.2432C43.9025 13.203 43.8852 13.1454 43.8737 13.1109C43.868 13.0937 43.8565 13.0822 43.8507 13.0707L43.8392 13.0592L43.8795 12.8406C43.9428 12.5184 44.0175 12.202 44.1038 11.8856L45.0588 8.37656L46.3358 3.33153C46.5832 2.3766 46.8536 1.43317 46.9398 0.443721C46.9629 0.167597 47.1124 0.110119 47.354 0.276944C47.774 0.564573 48.2284 0.823431 48.3895 1.34692C48.4988 1.70358 48.5736 2.02569 48.4068 2.39386C48.1709 2.92885 48.2399 3.56739 47.82 4.0506C47.7625 4.11963 47.7452 4.23468 47.7395 4.33247C47.6474 6.0525 47.0722 7.66323 46.6235 9.30847C46.4796 9.84346 46.3934 10.3957 46.2725 10.9422C46.1978 11.2931 46.1115 11.644 46.0194 11.995C45.8871 12.5012 45.7146 12.9959 45.611 13.5136C45.5592 13.761 45.519 14.0256 45.4499 14.2672C45.3867 14.5088 45.2659 14.6986 45.099 14.7446C45.03 14.7676 44.9782 14.9805 44.9782 15.1128C44.9897 15.3602 44.8574 15.5385 44.6791 15.6133C44.495 15.6938 44.3052 15.6421 44.1498 15.5673C43.9428 15.481 43.7127 15.3602 43.4883 15.1934L42.4758 14.434L41.659 13.8358C41.1297 13.4618 40.5717 13.1167 40.008 12.7888C39.1278 12.2826 38.2247 11.8223 37.3503 11.3104C36.6197 10.8789 35.9237 10.4015 35.2046 9.95276C35.0378 9.84921 34.8479 9.78019 34.6868 9.67089C34.3877 9.46955 34.0426 9.30273 33.824 9.03236C33.5766 8.73323 33.3522 8.54339 32.9381 8.53189C32.7022 8.52614 32.4606 8.3363 32.2708 8.16947C32.0234 7.95663 31.8163 7.69776 31.6092 7.44464C31.4884 7.28932 31.3676 7.13976 31.2295 7.01896C31.1835 6.96143 31.1202 6.9384 31.0455 6.99592C30.9764 7.07071 30.9534 6.95567 30.8614 6.86363C30.7348 6.74857 30.66 6.83483 30.5622 6.90386C30.499 6.96139 30.4644 6.99021 30.3839 7.10526C30.2746 7.26633 30.1711 7.43315 30.0675 7.59997C29.8662 7.93362 29.6763 8.27879 29.498 8.62395L27.4501 12.6508C27.1797 13.1742 26.8748 13.6804 26.5814 14.1924C25.6668 15.7859 24.6486 17.3103 23.6189 18.829C23.4175 19.1282 23.2047 19.4273 23.0609 19.7552L22.9343 20.0371L22.6639 20.5203C22.4684 20.8482 22.2843 21.2221 22.0427 21.4694C21.7838 21.7111 21.5825 21.8319 21.2891 21.9124C20.9899 21.9987 20.616 21.9699 20.3744 21.8606C20.1213 21.757 19.8279 21.5787 19.5633 21.3026C19.3274 21.0437 19.0858 20.7906 18.8442 20.5375L18.5969 20.2901L18.384 20.0888C18.1021 19.8242 17.8088 19.5711 17.5154 19.318C17.3428 19.1684 17.1415 19.0361 17.0034 18.8577C16.0255 17.6152 14.7829 16.6315 13.7474 15.4465C12.9076 14.4916 12.1425 13.4676 11.3601 12.4666C10.7561 11.69 10.1808 10.8904 9.58831 10.1081C9.54804 10.0563 9.48477 10.0218 9.45025 9.97004C9.12235 9.50983 9.25466 9.15312 9.81267 8.9863C10.3074 8.84248 10.7561 8.9288 11.0897 9.30272C11.4637 9.7169 11.8146 10.1483 12.1712 10.574L12.2345 10.5223Z" fill="#F8AFB8"/>
<path d="M23.5001 23.9143C23.9258 24.898 24.3802 25.8702 24.7599 26.8654C25.0993 27.757 25.4215 28.6314 26.0312 29.3908C26.1923 29.5864 26.2901 29.8394 26.4167 30.0638C26.6525 30.4722 26.8826 30.8864 27.1242 31.2833C27.2335 31.4674 27.4291 31.617 27.4981 31.8068C27.8375 32.7388 28.2805 33.6074 28.919 34.3725C29.1031 35.1491 29.6151 35.7244 30.0523 36.3572C30.4895 36.9899 30.8346 37.6975 31.3524 38.2727C31.4904 38.4281 31.617 38.6179 31.6918 38.8135C32.1405 39.9813 32.8078 41.0282 33.4636 42.0925C34.1654 43.2315 34.7694 44.4222 35.2469 45.6763C35.5 46.3436 35.8682 46.9879 36.2306 47.6207C36.6563 48.3743 37.1337 49.0933 37.5767 49.8354C38.2152 50.9169 38.8825 51.9697 39.6303 52.9764C40.0963 53.6034 40.5565 54.2419 41.011 54.8862L41.3504 55.3694L41.4942 55.519C41.5805 55.6053 41.6553 55.6744 41.7185 55.7204L41.7645 55.7549C41.8221 55.7951 41.8681 55.8814 41.9256 56.008C41.9486 56.077 41.9946 56.1518 42.0637 56.1748C42.127 56.1978 42.1902 56.1748 42.196 56.1345C42.2823 55.7089 42.3916 55.6801 42.5181 53.4711C42.5987 52.1768 42.6274 50.8767 42.6389 49.5823C42.6504 48.3743 42.6044 47.1605 42.6102 45.9524L42.685 35.1894L42.662 32.6007C42.662 32.1693 42.6735 31.7378 42.6965 31.3064L42.9553 26.5202L43.2257 19.6574C43.2832 18.3573 43.3695 17.063 43.2602 15.7686C43.2315 15.4062 43.3638 15.2912 43.6341 15.4408C44.1059 15.6939 44.5948 15.8952 44.8594 16.528C45.0378 16.9537 45.1701 17.3564 45.0838 17.8741C44.9515 18.6277 45.1471 19.433 44.8307 20.1694C44.7847 20.2729 44.7962 20.4283 44.8077 20.5491C45.055 22.7926 44.7962 25.0303 44.6754 27.268C44.6351 27.9986 44.6638 28.735 44.6523 29.4713C44.6466 29.9488 44.6293 30.4205 44.6063 30.898C44.5718 31.5883 44.497 32.2786 44.497 32.9689C44.497 33.4924 44.5661 33.9986 44.2669 34.4588C44.2036 34.5566 44.2094 34.827 44.2727 34.9248C44.52 35.3044 44.474 35.7301 44.451 36.1616C44.3877 37.3236 44.3014 38.4798 44.2612 39.6419C44.2324 40.499 44.2439 41.3619 44.2727 42.219C44.3245 43.5536 44.4222 44.8825 44.4683 46.2113C44.5028 47.3273 44.4798 48.4433 44.4855 49.5593C44.4855 49.8182 44.5315 50.0771 44.5315 50.3302C44.5258 50.8019 44.5718 51.3024 44.4625 51.7453C44.3417 52.2343 44.3072 52.6197 44.5258 53.0856C44.6466 53.3445 44.6178 53.7529 44.5833 54.0808C44.5603 54.2937 44.5258 54.5066 44.4798 54.7137L44.4107 55.0243L44.3705 55.1796L44.3302 55.4499C44.1921 56.3358 44.0598 56.9341 44.1921 58.0501C44.2382 58.3723 44.2036 58.6484 44.1289 58.8555C44.0886 58.9475 44.0426 59.0224 43.9965 59.0971C43.9505 59.1547 43.8988 59.2006 43.8527 59.2524C43.7664 59.3387 43.6917 59.3905 43.6226 59.4768C43.5536 59.5343 43.5018 59.6091 43.4385 59.6838C43.358 59.7586 43.1969 59.8565 43.0129 59.891C42.8288 59.9313 42.6274 59.914 42.5066 59.8507C42.3973 59.7874 42.3226 59.7069 42.2305 59.6378L41.9371 59.3905C41.73 59.2064 41.4769 59.0051 41.2296 58.6196L40.7406 57.8086L40.1308 56.8133L39.8144 56.3013L39.6016 55.9677L38.7905 54.7194L37.1682 52.2228C36.7483 51.567 36.3571 50.8939 35.9602 50.2266C34.7176 48.1442 33.5901 46.0043 32.4684 43.8585C32.2498 43.4386 32.0312 43.0071 31.7551 42.6217C31.1223 41.7358 30.616 40.7866 30.1558 39.8087C29.6036 38.6294 28.8788 37.5479 28.1539 36.4779C27.9871 36.2306 27.7858 35.989 27.6592 35.7244C26.7561 33.849 25.5308 32.1635 24.5528 30.3342C23.7647 28.8558 23.0571 27.3313 22.3381 25.8184C21.7801 24.6506 21.2508 23.4656 20.7101 22.292C20.6756 22.2173 20.6123 22.1482 20.5778 22.0734C20.2786 21.3946 20.4627 21.0265 21.084 21.0725C21.6363 21.1128 22.108 21.4062 22.4244 21.9872C22.7753 22.6315 23.1032 23.2873 23.4368 23.9373L23.5001 23.9143Z" fill="#F8AFB8"/>
</svg>
