<svg width="46" height="85" viewBox="0 0 46 85" fill="none" xmlns="http://www.w3.org/2000/svg">
<path d="M40.7108 34.5823L44.2015 27.4726C44.2272 27.417 44.1972 27.3528 44.1374 27.34L31.274 24.6022C31.2141 24.5893 31.1799 24.5209 31.2098 24.4653L38.2981 11.2469C38.3324 11.1827 38.281 11.1014 38.2083 11.11L25.4776 12.2864C25.4134 12.2907 25.3663 12.235 25.3749 12.1752L27.6079 0.933087C27.6464 0.740586 27.3983 0.629363 27.2828 0.783364L16.5669 14.6991L31.0045 39.9253L40.7108 34.5823Z" fill="#3D649C"/>
<path d="M42.4436 29.6542L42.9613 28.7302L43.0896 28.4992C43.1324 28.4222 43.1837 28.3324 43.1965 28.311L43.3463 28.0714L43.5216 27.7891C43.5687 27.7463 43.5559 27.665 43.5003 27.665L43.3634 27.618L43.0639 27.5153C42.9484 27.4768 42.8757 27.4469 42.6704 27.387C41.4469 27.0148 40.2448 26.6469 38.9444 26.4929C38.6107 26.4544 38.2599 26.3518 37.9134 26.279L36.0398 25.8898C35.7531 25.8341 35.4409 25.8427 35.1799 25.7614C34.6324 25.5903 34.0805 25.4406 33.5244 25.308C33.2463 25.2438 32.9683 25.1839 32.686 25.1283L32.2197 25.0427L31.7021 24.9529C31.4711 24.9144 31.2657 24.846 31.0818 24.7818C31.039 24.7476 30.9748 24.7347 30.9534 24.6492C30.9363 24.5722 30.9877 24.5166 31.0048 24.4524C31.0561 24.3241 31.1117 24.1957 31.1802 24.0589C31.3256 23.7851 31.4796 23.5156 31.6165 23.2375C31.8475 22.7712 32.0528 22.3007 32.2796 21.8301C32.7287 20.889 33.2592 19.9693 33.6356 19.0025C33.734 18.7458 33.8709 18.4635 34.0249 18.2325C34.9404 16.8165 35.689 15.3107 36.459 13.8007L36.9723 12.8168L37.1691 12.4532L37.3359 12.158L37.6012 11.7088C37.6225 11.6703 37.6653 11.6276 37.6397 11.5848C37.6183 11.542 37.5712 11.5591 37.5327 11.5548L37.2974 11.5591H36.1381C35.1756 11.5677 34.1746 11.6618 33.195 11.7559C32.0272 11.8671 30.8679 12.0211 29.7001 12.1409C29.1054 12.2051 28.5151 12.2735 27.9248 12.3377C27.266 12.4189 26.6072 12.5002 25.9527 12.5815C25.7859 12.6029 25.6276 12.5986 25.4907 12.5858C25.418 12.5815 25.3538 12.5729 25.2896 12.5644C25.2297 12.5558 25.157 12.5601 25.1057 12.4874C25.0458 12.3676 25.0544 12.2564 25.033 12.1195C25.0201 11.9869 25.0159 11.8286 25.0458 11.6575C25.2126 10.4554 25.3837 9.25337 25.5506 8.04703C25.7131 6.92196 25.8842 5.7969 26.0596 4.67184L26.0939 4.44511L26.1024 4.38095C26.1067 4.33817 26.1153 4.29967 26.1238 4.25689C26.1409 4.17561 26.1666 4.08578 26.1922 3.98311L26.3163 3.52966L26.3591 3.37566C26.3847 3.32005 26.3377 3.26016 26.2992 3.26872C26.2479 3.30722 26.2051 3.36283 26.1495 3.41416L25.7944 3.79917L25.5805 4.03872L25.5249 4.10289L25.4308 4.21411L25.157 4.55634L24.0619 5.92524C22.9711 7.30269 21.9102 8.70581 20.8535 10.1132L17.9489 14.083L17.5725 14.5878L17.4613 14.7503L23.9892 25.7272L25.8072 28.7259C26.1067 29.2264 26.3976 29.7355 26.6842 30.2446L29.8583 35.9169L31.377 38.5863L35.1457 36.5201C36.6943 35.6774 38.2471 34.8518 39.7229 33.9064C40.1379 33.6411 40.3218 33.6497 40.262 33.9149C40.155 34.3812 40.1122 34.8261 39.4791 35.4207C39.0471 35.8228 38.6364 36.1779 37.9862 36.473C37.0493 36.9008 36.1766 37.5724 35.1885 37.8719C35.0473 37.9147 34.8719 38.0216 34.7308 38.1157C34.1532 38.4964 33.5672 38.8601 32.9768 39.2108L32.0785 39.7327L30.8636 40.4086L30.0722 39.0141L29.469 37.9275L28.2627 35.7501C27.7793 34.8817 27.2489 34.039 26.7441 33.1791L25.7816 31.5022C25.3239 30.6852 24.8875 29.851 24.4084 29.051C24.0448 28.4436 23.647 27.8832 23.5143 27.2244C23.4844 27.0875 23.2919 26.771 23.185 26.6811C22.7657 26.3432 22.4962 25.8256 22.2096 25.3165C21.4396 23.9434 20.6867 22.5573 19.8996 21.1927C19.3178 20.1832 18.7104 19.1822 18.0944 18.1983L17.072 16.5898L16.5586 15.7856L16.4303 15.5845L16.2378 15.2765L15.8442 14.6391L16.5458 13.6723L17.0078 13.0178C17.8847 11.7901 18.8002 10.5795 19.6943 9.36031C19.8996 9.07798 20.0793 8.77853 20.2889 8.50047C20.6739 7.98714 21.0461 7.42247 21.4696 6.98613C21.9401 6.50274 22.2695 6.09635 22.5091 5.50173C22.6459 5.16806 22.9882 4.73601 23.2748 4.3895C23.4587 4.16706 23.6512 3.95317 23.848 3.74355L24.1432 3.43127L24.2929 3.27727L24.3314 3.2345L24.3956 3.16177L24.5196 3.02061C24.9132 2.57571 25.264 2.18216 25.6062 1.76293C25.7773 1.55332 25.9484 1.33087 26.1238 1.08704C26.2136 0.971537 26.3078 0.821814 26.3976 0.706313C26.4446 0.642146 26.4917 0.586534 26.5302 0.539479C26.573 0.492423 26.62 0.432533 26.6628 0.394033C27.0478 0.00903068 27.3387 0.0432534 27.5098 0.0133087C27.5611 0.0133087 27.574 -0.0166359 27.6852 0.0133087C27.7921 0.0389756 27.9248 0.133088 27.9462 0.20581C27.9718 0.329867 27.9847 0.449644 28.006 0.603646L28.0317 0.838925C28.0403 0.920204 28.0488 1.00576 28.0574 1.10843C28.0702 1.29665 28.0873 1.5191 28.0274 1.83993C27.8392 2.72116 27.6681 3.56817 27.5055 4.428L27.3344 5.36484L27.1933 6.19902L26.62 9.67259L26.4789 10.541L26.4104 10.9773C26.3933 11.0714 26.3976 11.0672 26.3976 11.0885L26.3933 11.1399L26.389 11.3195C26.3805 11.358 26.4404 11.3452 26.466 11.3324L26.5601 11.3067L26.6543 11.281L26.6756 11.2768L26.7911 11.2597L27.0435 11.2297C28.0873 11.1014 29.1397 10.9987 30.192 10.8875C31.6935 10.7292 33.195 10.5923 34.7008 10.464L37.5242 10.2287C37.6995 10.2159 37.8792 10.1945 38.0461 10.1859C38.2172 10.1774 38.3498 10.2116 38.4696 10.2458C38.7006 10.3271 38.8417 10.434 38.9529 10.5324C39.0043 10.5624 39.1155 10.7463 39.1112 10.7891C39.1326 10.8618 39.1497 10.9431 39.1583 11.0372C39.1754 11.2254 39.1668 11.4821 39.0128 11.7858L38.307 13.0692C38.1359 13.3772 37.9648 13.6895 37.7937 13.9975C37.6397 14.2798 37.4899 14.5664 37.3573 14.8573C36.7413 16.192 36.0312 17.4668 35.2869 18.7287C34.3885 20.2473 33.6228 21.8301 32.8656 23.4086L32.7373 23.6867L32.7031 23.7551L32.686 23.7894V23.7936L32.6902 23.8065C32.6945 23.8193 32.7031 23.8236 32.6902 23.8321C32.6817 23.8407 32.656 23.8535 32.656 23.8706C32.6603 23.8749 32.6731 23.8835 32.686 23.8877L32.7159 23.8963L32.9726 23.9519L33.8452 24.1316L35.5949 24.4695C36.7627 24.692 37.9263 24.9187 39.0856 25.1796C40.0908 25.4064 41.0918 25.6502 42.0886 25.8983L42.8372 26.0865L44.005 26.3646C44.2403 26.4116 44.4713 26.4758 44.6168 26.587C44.7708 26.694 44.8692 26.8052 44.9504 26.9164C45.0617 27.1004 45.0445 27.2116 45.0574 27.3784C45.0574 27.5453 45.0232 27.742 44.9162 27.9517L44.39 28.9698C43.5473 30.5098 42.7046 32.0412 41.8661 33.5812C41.8105 33.6839 41.772 33.7994 41.7164 33.8978C41.2287 34.7662 40.8608 34.9416 40.724 34.347C40.5999 33.8208 40.7154 33.1406 41.1175 32.3364C41.5624 31.4466 42.0287 30.5697 42.4821 29.6842L42.4436 29.6542Z" fill="black"/>
<path d="M35.1936 71.0415C34.9541 70.0234 34.445 69.0865 33.6793 68.3764C31.9981 66.8065 30.2314 64.7959 28.6914 62.2549C22.4201 51.8983 24.7643 40.6862 25.5728 37.4222L24.5077 27.8699L19.4812 23.96L11.7855 25.9449L8.6199 28.55L9.8348 37.4222C10.6433 40.6862 12.9875 51.8983 6.71628 62.2549C5.29605 64.5991 3.67904 66.4985 2.11764 68.0085C1.18508 68.9111 0.594739 70.1132 0.500628 71.4094C0.440738 72.2521 0.410795 73.159 0.432184 74.1172C0.457851 75.4519 0.577629 76.6711 0.735908 77.7576C1.8738 81.3211 8.45734 84.7904 18.399 84.6577C27.9085 84.5294 35.0011 81.3981 35.3819 77.7576C35.553 76.7695 35.6727 75.5332 35.6086 74.1172C35.5658 72.9708 35.4032 71.9398 35.1936 71.0415Z" fill="#F4E2B2"/>
<path d="M30.4836 65.8614C29.8805 65.0529 29.3115 64.2144 28.7939 63.3503C28.2635 62.4947 27.8528 61.5707 27.4207 60.6852C27.2282 60.2874 27.0956 59.8639 26.9288 59.4618C26.7748 59.0511 26.5908 58.6533 26.4539 58.2383C26.3171 57.8234 26.1673 57.4084 26.0133 56.9978C25.9363 56.7924 25.8465 56.5871 25.7738 56.3775C25.7011 56.1679 25.6283 55.9583 25.5556 55.7444C25.4016 55.308 25.2733 54.8204 25.1578 54.3498C24.9738 53.49 24.7557 52.6344 24.6316 51.7617C24.5674 51.3682 24.4177 50.9575 24.4049 50.5896C24.3065 48.7544 24.2765 46.9449 24.2038 45.1097C24.4092 43.6895 24.4391 42.2864 24.5931 40.8576C24.6744 40.1432 24.7984 39.4288 24.9311 38.7187C24.9995 38.3636 25.0679 38.0086 25.1364 37.6535L25.1621 37.5209L25.1749 37.4396C25.1877 37.3797 25.1621 37.3412 25.1492 37.2642L25.0508 36.7423C24.9781 36.3745 24.9182 35.951 24.8968 35.5702C24.7771 33.2688 24.4733 30.9887 24.1824 28.6915L24.1097 28.1012L22.9932 27.2328L21.7484 26.2361L20.5249 25.2179C20.1314 24.8843 19.6736 24.495 19.4255 24.264L19.2245 24.2982L19.0405 24.3324L18.7967 24.3838L18.309 24.4907C17.9839 24.5677 17.6545 24.6447 17.3251 24.7217C16.6706 24.8885 16.0118 25.0554 15.3573 25.2222L13.6034 25.6928L11.9009 26.1633L11.0453 26.8863L9.92451 27.8317L8.93634 28.6787C9.039 29.2904 9.14167 29.8979 9.24434 30.5053L9.5994 32.4817C9.87745 34.0003 10.1555 35.5275 10.4336 37.0546C10.4678 37.2856 10.4849 37.3327 10.5491 37.5594C10.6004 37.7519 10.656 37.9401 10.7031 38.1326C10.8015 38.5176 10.8998 38.8984 10.9811 39.2876C11.071 39.6726 11.1522 40.0619 11.2207 40.4512C11.2977 40.8405 11.3661 41.2298 11.4217 41.6233C11.6699 43.2189 11.734 44.8745 11.6955 46.5043C11.7041 47.3214 11.6185 48.1341 11.5715 48.9469L11.4303 50.1618L11.3576 50.7693L11.2549 51.3724L11.0453 52.5788C10.964 52.9766 10.8613 53.3745 10.7672 53.7723C10.6004 54.5722 10.3437 55.3465 10.1085 56.1294C9.35556 58.465 8.33317 60.7109 7.08832 62.8284C5.90337 64.7876 4.51308 66.6314 2.90035 68.2741L2.48113 68.7018C2.36135 68.8387 2.24585 68.9713 2.1389 69.1211C1.92501 69.412 1.7539 69.7242 1.61273 70.0536C1.47584 70.383 1.38173 70.7252 1.32612 71.0717C1.27051 71.3969 1.28334 71.8204 1.27479 72.2225L1.25768 73.4374C1.24912 73.8395 1.24056 74.2459 1.27051 74.648C1.31329 75.4565 1.39029 76.2607 1.49723 77.0607L1.54001 77.3601L1.5614 77.5098C1.56568 77.5398 1.56568 77.5355 1.56995 77.5483L1.65979 77.7494L1.75818 77.9804C1.93357 78.2756 2.1004 78.5836 2.35279 78.8531C2.56668 79.1397 2.85757 79.3878 3.11852 79.6445C3.41369 79.8797 3.70458 80.1236 4.02114 80.3375C5.29592 81.2016 6.76321 81.8347 8.28183 82.3138C9.74484 82.7715 11.2592 83.0753 12.7949 83.2549C13.1756 83.3148 13.5606 83.3533 13.9456 83.3875C14.3306 83.4218 14.7157 83.4774 15.1049 83.4988C17.9711 83.7084 20.8971 83.657 23.7504 83.2335C25.7909 82.9298 27.81 82.4593 29.6837 81.7106C30.6205 81.3385 31.5189 80.8936 32.3188 80.3546C33.1102 79.8199 33.8075 79.1611 34.1668 78.451C34.2738 78.2499 34.3379 78.0531 34.385 77.8392L34.4534 77.4371L34.5176 77.0136C34.5946 76.4532 34.6417 75.8843 34.6545 75.3196C34.6802 74.186 34.5647 73.0524 34.3037 71.9615C34.154 71.3498 34.1882 71.1316 34.4449 71.3156C34.877 71.645 35.3347 71.8974 35.6855 73.031C35.9122 73.7967 36.0619 74.5453 35.9763 75.5378C35.9122 76.2522 35.8608 76.9922 35.7453 77.7066C35.694 78.0617 35.6213 78.4809 35.4373 78.8231C35.2662 79.1696 35.0481 79.4862 34.7786 79.7343C34.6374 79.884 34.4492 80.1065 34.2909 80.2861C33.5808 81.0946 32.691 81.7149 31.7627 82.224C30.8301 82.7373 29.842 83.1266 28.841 83.456C26.8304 84.1062 24.7471 84.4655 22.6638 84.6923C21.3035 84.8377 19.9346 84.9618 18.5614 84.996C18.1165 85.0046 17.6716 84.996 17.2267 84.996L16.5594 84.9874L15.892 84.9489L14.9253 84.8848C14.6044 84.8591 14.2836 84.812 13.9585 84.7778C13.3125 84.7179 12.6751 84.6153 12.0377 84.5212C11.5544 84.4655 11.0795 84.3757 10.6218 84.2773C10.1598 84.1832 9.72773 84.0335 9.32989 83.8196C9.16306 83.7255 8.66683 83.6185 8.48289 83.6014C8.12783 83.5886 7.75566 83.5159 7.37494 83.4132C7.00277 83.2934 6.62632 83.1351 6.24987 82.9854C5.24887 82.532 4.25642 82.0486 3.35808 81.3898C2.45974 80.7439 1.61701 79.9867 0.996729 79.0242C0.894062 78.8402 0.761451 78.6691 0.680173 78.4723L0.423502 77.8692C0.397835 77.8093 0.397837 77.7408 0.385003 77.6767L0.363613 77.5269L0.320835 77.2275L0.239556 76.6286C0.141167 75.8287 0.0684438 75.0244 0.0256658 74.2202L0.00855744 72.3423L0 71.4011C0.00855561 71.0675 0.0513341 70.7252 0.124057 70.3958C0.269502 69.7285 0.534727 69.0911 0.906896 68.5136C1.09084 68.227 1.30045 67.9532 1.53146 67.6966L2.17313 67.0207C3.5463 65.5448 4.80398 63.9449 5.83921 62.221C6.08732 61.8274 6.25843 61.3953 6.48088 60.9889C6.68193 60.6125 6.88727 60.2275 7.07977 59.8425C7.25516 59.4489 7.43483 59.0639 7.63161 58.7132C8.09361 57.9432 8.30322 57.2673 8.43583 56.4502C8.52139 55.9925 8.69678 55.2866 8.88928 54.722L9.06895 54.1787L9.22723 53.6311C9.33845 53.2675 9.44967 52.9039 9.56089 52.5446C9.68495 52.1082 9.77906 51.6804 9.8689 51.2441C9.9074 51.0259 9.95018 50.8035 9.97156 50.5725C9.9844 50.3415 9.98868 50.1062 9.98012 49.8581C9.97157 49.5929 9.99295 49.2849 10.0357 48.964C10.07 48.6475 10.0999 48.3181 10.1384 48.0229C10.3223 46.7182 10.3266 45.3921 10.2753 44.0617C10.1897 42.7356 10.0229 41.4094 9.76623 40.1004C9.66784 39.6598 9.58656 39.2149 9.47534 38.7786C9.41973 38.5604 9.37267 38.338 9.31279 38.1198L9.22723 37.7947L9.18017 37.6236C9.16734 37.5722 9.15878 37.5295 9.15023 37.4824L9.13739 37.3926L8.6925 34.6719C8.39733 32.8495 8.09789 31.0272 7.80272 29.2006C7.75138 28.8584 7.70005 28.5161 7.64872 28.1739C8.73956 27.2585 9.83468 26.3387 10.9255 25.4233L11.3405 25.0768L15.3915 24.0202L19.6907 22.9336L24.1183 26.4542C24.5204 26.7708 24.9225 27.0916 25.3246 27.4125C25.3674 27.7803 25.4059 28.1482 25.4487 28.5118C25.4786 28.7557 25.5128 28.9952 25.5513 29.2348C25.8593 31.2197 26.0604 33.2046 26.2229 35.2023C26.27 35.8055 26.3299 36.4044 26.3941 37.0033L26.424 37.2942C26.4283 37.3626 26.4454 37.4311 26.4411 37.4995L26.3941 37.7006L26.2786 38.184C26.2144 38.4706 26.1588 38.7572 26.0989 39.0438C25.8807 40.1945 25.7396 41.3624 25.6497 42.5259C25.6155 43.0692 25.6069 43.6211 25.5556 44.1558C25.3802 46.0252 25.4401 47.9031 25.654 49.7554C25.7396 50.6837 25.9278 51.5992 26.0861 52.5103C26.2957 53.413 26.4796 54.3241 26.7534 55.2096C27.5576 58.0972 28.7768 60.8692 30.4238 63.3931C31.0654 64.3641 31.7627 65.2967 32.5199 66.1865C32.8963 66.6314 33.2899 67.0677 33.692 67.4869C33.8973 67.7051 34.0898 67.8848 34.3337 68.15C34.5604 68.4024 34.7614 68.6719 34.9368 68.9585C35.0267 69.1082 35.1379 69.258 35.2149 69.4162C35.5486 70.105 35.5871 70.614 35.5272 70.845C35.463 71.0803 35.2962 71.0461 35.0224 70.7937C34.5304 70.3488 34.0727 69.6686 33.3156 68.9072C32.3274 67.9789 31.3777 66.9308 30.5264 65.8485L30.4836 65.8614Z" fill="black"/>
<path d="M29.1743 72.6887C32.4041 72.0641 34.6328 71.1401 34.8253 69.9766L29.1743 72.6887Z" fill="white"/>
<path d="M29.3334 72.0258C29.4275 72.0943 29.5131 72.1371 29.6157 72.2397C29.7056 72.3338 29.7954 72.4237 29.8382 72.2911C29.851 72.2568 29.8724 72.2782 29.8938 72.274C29.928 72.2654 29.9622 72.2611 29.9922 72.2397C30.005 72.2312 30.005 72.1585 30.0264 72.1798C30.1248 72.2825 30.2018 72.2953 30.2403 72.1542C30.3344 72.2996 30.3601 72.1713 30.4029 72.1114C30.4456 72.0472 30.5098 72.0686 30.5312 71.9317C30.5355 71.8975 30.5526 71.8804 30.5697 71.8975C30.6895 72.0087 30.7665 71.9403 30.8435 71.8804C30.929 71.8162 31.0317 71.8333 31.1643 71.9574C31.237 72.0216 31.2884 72.0045 31.3397 71.9873C31.3996 71.966 31.4466 71.9061 31.5023 71.8718C31.5835 71.8291 31.6563 71.7563 31.7076 71.6195C31.776 71.4355 31.8488 71.2815 31.93 71.1617C31.9728 71.1018 32.0455 71.1318 32.1097 71.1318C32.238 71.1361 32.3792 71.1703 32.5033 71.1575C32.5974 71.1446 32.6744 71.0933 32.7471 71.0377C32.8155 70.9863 32.8626 70.8879 32.9225 70.8281C33.1022 70.6484 33.2733 70.4773 33.393 70.2933C33.423 70.2506 33.4401 70.1864 33.4615 70.1393C33.47 70.1179 33.4872 70.1008 33.5043 70.0923C33.5813 70.0581 33.6583 70.0367 33.7053 69.9939C33.7481 69.9639 33.7695 69.934 33.7866 69.9083C33.8165 69.8784 33.8208 69.8613 33.8337 69.8484C33.8722 69.8356 33.8465 69.8185 33.7994 69.8057C33.8337 69.8099 33.8722 69.8185 34.039 69.8442C34.3855 69.9083 34.7491 69.9811 34.9416 70.0837C35.0742 70.1522 35.1683 70.2249 35.1042 70.2591C35.0186 70.3019 35.1256 70.4345 34.9031 70.4046C34.8732 70.4003 34.8732 70.4131 34.8817 70.4302C34.9972 70.7254 34.7491 70.8323 34.6037 70.935C34.5523 70.9735 34.5395 71.0462 34.4967 71.0933C34.471 71.1232 34.4411 71.1489 34.4069 71.1703C34.3598 71.2002 34.2914 71.2088 34.2572 71.2558C34.2315 71.2901 34.2358 71.3671 34.0818 71.2173C34.0518 71.1874 34.039 71.2045 34.0604 71.2516C34.1459 71.427 34.1032 71.4312 34.0732 71.4441C33.9877 71.4868 33.8893 71.4997 33.8123 71.5467C33.7567 71.581 33.7096 71.6408 33.6754 71.7178C33.6155 71.8291 33.5727 71.9745 33.5043 72.0857C33.4487 72.1798 33.3717 72.2226 33.3032 72.2911C33.2861 72.3082 33.2861 72.351 33.269 72.3681C33.239 72.3895 33.2177 72.4494 33.1578 72.4023C33.0936 72.3467 33.0594 72.3467 33.0893 72.5221C33.1064 72.6205 33.0722 72.6205 33.0423 72.6162C33.0038 72.6076 32.9439 72.5563 32.8925 72.5092C32.8284 72.4494 32.7642 72.3852 32.7685 72.5221C32.7728 72.5948 32.7257 72.5691 32.6872 72.5349C32.5075 72.3809 32.4091 72.4322 32.3236 72.5221C32.2038 72.6461 32.0926 72.8001 31.9685 72.9242C31.9215 72.9755 31.8616 72.9969 31.8103 73.0269C31.6391 73.1252 31.4466 73.121 31.2499 73.1124C31.2114 73.1124 31.1686 73.1039 31.1472 73.1509C31.0873 73.2579 31.0017 73.2579 30.9076 73.2194C30.7921 73.1723 30.7151 73.2664 30.6339 73.3648C30.6167 73.3862 30.6039 73.4332 30.5782 73.4247C30.3986 73.3605 30.2831 73.5701 30.1205 73.5659C29.9879 73.5659 29.8425 73.4889 29.7013 73.4332C29.5901 73.3862 29.4788 73.3177 29.3676 73.2621C29.3591 73.2579 29.3591 73.275 29.3505 73.2707C29.2863 73.2279 29.2222 72.9841 29.1708 72.5991C29.1281 72.2568 29.1238 72.0558 29.1751 72.0558C29.2307 72.0515 29.2863 72.0729 29.342 72.0815L29.3334 72.0258Z" fill="black"/>
<path d="M2.08379 69.7155C2.11374 69.8267 2.17362 69.9294 2.23351 70.0363C2.2934 70.1476 2.34901 70.2588 2.4089 70.3743C2.50729 70.5967 2.64418 70.8021 2.89658 70.8234C2.96502 70.8234 3.00352 70.8791 3.05913 70.909C3.15752 70.9603 3.25163 71.0202 3.35858 71.0587C3.40563 71.0758 3.48691 71.0373 3.51686 71.0758C3.67086 71.2897 3.88047 71.4095 4.14569 71.3796C4.25264 71.602 4.47081 71.5507 4.65903 71.5721C4.84725 71.5892 5.01837 71.679 5.22798 71.6148C5.28359 71.5977 5.3392 71.602 5.3777 71.6405C5.62154 71.8544 5.92098 71.8972 6.22043 71.9357C6.54126 71.9827 6.84071 72.0982 7.11877 72.3207C7.26849 72.4362 7.44816 72.4704 7.61927 72.5046C7.8246 72.5474 8.04277 72.5388 8.24811 72.5645C8.55183 72.603 8.85984 72.603 9.17212 72.5388C9.59562 72.449 10.0106 72.3891 10.4212 72.3506C10.6308 72.3335 10.8319 72.4105 11.033 72.4576C11.4394 72.556 11.8457 72.68 12.2564 72.7485C12.5644 72.8041 12.881 72.8083 13.1975 72.8126C13.4927 72.8083 13.7879 72.7613 14.083 72.7527C14.9514 72.7228 15.8241 72.6843 16.6882 72.6201C16.8978 72.603 17.1032 72.5645 17.3128 72.5431C17.4154 72.5303 17.5224 72.5303 17.6251 72.5388C18.0101 72.5602 18.3951 72.5945 18.7801 72.5987C19.3319 72.6073 19.8837 72.5859 20.4356 72.5816C20.7479 72.5816 21.0644 72.5945 21.3681 72.4661C21.4537 72.4319 21.4879 72.526 21.4622 72.7314C21.4237 73.0907 21.3938 73.4629 21.2484 73.681C21.15 73.8307 21.0601 73.942 20.9275 73.8949C20.7393 73.8265 20.5468 73.9976 20.3586 73.788C20.3329 73.758 20.2944 73.7709 20.2645 73.7837C19.7212 74.0446 19.1651 73.9249 18.6175 73.8949C18.4378 73.8864 18.2582 73.9291 18.0785 73.9377C17.963 73.942 17.8432 73.9462 17.7277 73.9377C17.5566 73.9291 17.3898 73.8949 17.2187 73.9077C17.0903 73.9163 16.9663 73.9847 16.8551 73.7709C16.8337 73.7281 16.7652 73.7366 16.7396 73.788C16.6454 73.9805 16.5385 73.9591 16.4358 73.9505C16.1492 73.9249 15.8669 73.8864 15.5803 73.8778C15.3707 73.8692 15.1568 73.8949 14.9429 73.9291C14.6135 73.989 14.2798 74.0789 13.9461 74.1302C13.6681 74.1687 13.39 74.1601 13.112 74.1772C13.0478 74.1815 12.9794 74.2157 12.9152 74.2157C12.7954 74.2157 12.6714 74.25 12.5644 74.1772C12.4489 74.0917 12.3548 74.0703 12.2265 74.2329C12.1537 74.3227 12.0554 74.3056 11.9741 74.2799C11.8714 74.25 11.773 74.173 11.6746 74.096C11.5591 74.0061 11.4522 73.912 11.3067 74.0275C11.2297 74.0874 11.1356 74.0361 11.0586 73.9805C10.725 73.7366 10.3656 73.7067 9.99773 73.7195C9.50151 73.7324 8.99672 73.7666 8.49194 73.7666C8.29516 73.7709 8.10266 73.7366 7.90589 73.7152C7.29844 73.6468 6.71238 73.4629 6.1306 73.2575C6.01509 73.2147 5.90387 73.1677 5.77982 73.172C5.48892 73.1891 5.23226 73.0821 4.98414 72.9495C4.68897 72.7741 4.35103 72.7442 4.0088 72.6928C3.92753 72.68 3.83769 72.6929 3.76924 72.6501C3.30296 72.3506 2.72118 72.2822 2.23779 71.9528C1.84851 71.6747 1.50629 71.3282 1.21112 70.909C1.09134 70.7636 0.997228 70.5711 0.903116 70.4042C0.821838 70.216 0.74056 70.0363 0.689226 69.8396C0.68067 69.8139 0.655005 69.7968 0.650727 69.7711C0.599394 69.5358 0.817561 69.4032 1.21112 69.3348C1.5619 69.2749 1.76723 69.2621 1.82285 69.369C1.89129 69.4888 1.94262 69.6214 2.03246 69.7454L2.08379 69.7155Z" fill="black"/>
<path d="M10.3743 30.6763C10.2417 30.672 8.4108 30.6677 7.56808 32.0409C7.04618 32.8964 7.20019 33.8119 7.26435 34.1627C7.58519 35.908 9.11664 36.9347 9.84387 37.4224C13.8222 40.096 21.3341 38.402 22.2752 38.1795" fill="#F4E2B2"/>
<path d="M9.55291 31.395C9.3048 31.365 9.06524 31.3864 8.80002 31.3907C8.56474 31.3864 8.29951 31.4249 8.21396 31.6688C8.19257 31.7329 8.12413 31.7458 8.08562 31.7928C8.01718 31.8784 7.9359 31.9511 7.88885 32.0495C7.86318 32.0923 7.8974 32.1735 7.85034 32.1949C7.63218 32.3147 7.49956 32.5371 7.57229 32.7895C7.36695 32.9222 7.45679 33.1318 7.49956 33.3072C7.54234 33.4825 7.51668 33.6708 7.66212 33.8248C7.70062 33.8675 7.72201 33.9146 7.7049 33.9659C7.61934 34.2739 7.73912 34.5434 7.89312 34.7873C8.0514 35.0525 8.16262 35.3263 8.23535 35.6728C8.27813 35.8567 8.40218 35.9979 8.52624 36.1262C8.67596 36.2802 8.86419 36.3915 9.0353 36.5198C9.28341 36.708 9.56147 36.8535 9.8823 36.9347C10.0962 36.9946 10.3101 37.0331 10.5069 37.0759C10.7079 37.1144 10.8876 37.1828 11.0844 37.2128C11.2854 37.247 11.448 37.3711 11.6234 37.4737C11.7945 37.5807 11.9913 37.6534 12.1752 37.7475C12.3634 37.8374 12.5517 37.9315 12.757 37.9828C13.0607 38.0641 13.3687 38.1368 13.6895 38.1411C13.989 38.1496 14.2842 38.1411 14.5836 38.124C15.4648 38.124 16.3461 38.0427 17.223 37.9272C17.4326 37.893 17.6422 37.8374 17.8519 37.7989C17.9545 37.7817 18.0615 37.7732 18.1684 37.7646C18.562 37.7475 18.9555 37.7432 19.3491 37.6962C19.9138 37.6406 20.4699 37.5336 21.0303 37.4481C21.3468 37.3967 21.6677 37.3582 21.95 37.1786C22.027 37.1272 22.0783 37.2128 22.0912 37.4224C22.1168 37.7817 22.1553 38.1539 22.0441 38.3977C21.9714 38.5603 21.8901 38.6886 21.7489 38.6672C21.5436 38.6287 21.3682 38.8341 21.1415 38.6587C21.1073 38.633 21.073 38.6501 21.0431 38.6672C20.5169 39.0095 19.918 38.971 19.3405 39.0095C19.1523 39.0266 18.9684 39.0865 18.7801 39.1164C18.6604 39.1335 18.5363 39.1464 18.4122 39.1549C18.2326 39.1677 18.0529 39.1464 17.8775 39.172C17.7449 39.1934 17.6166 39.2704 17.484 39.0651C17.4583 39.0223 17.3856 39.0394 17.3642 39.0907C17.2786 39.2918 17.1674 39.2747 17.0562 39.2704C16.7525 39.2619 16.453 39.2447 16.1493 39.2447C15.9268 39.2447 15.7001 39.2704 15.4777 39.3132C15.1269 39.3816 14.7718 39.4544 14.4168 39.5014C14.1173 39.5399 13.8179 39.4971 13.5142 39.4971C13.4457 39.4971 13.3687 39.5271 13.3003 39.5228C13.1719 39.5185 13.0308 39.5271 12.9238 39.4415C12.804 39.3389 12.7099 39.3046 12.5474 39.4458C12.4575 39.5271 12.3506 39.4929 12.265 39.4586C12.1538 39.4201 12.0597 39.3132 11.9656 39.2191C11.8544 39.1036 11.756 38.9881 11.5763 39.0694C11.4779 39.1121 11.3838 39.0394 11.3154 38.971C11.0116 38.6287 10.6438 38.5047 10.2545 38.3764C9.98925 38.2737 9.72402 38.1753 9.4588 38.0726C9.21497 37.97 8.96685 37.8587 8.71446 37.7261C8.51768 37.6235 8.34229 37.4823 8.16263 37.3454C7.60651 36.9091 7.14023 36.3059 6.84934 35.6001C6.78517 35.4632 6.74667 35.3177 6.65256 35.1979C6.43867 34.9199 6.36595 34.5477 6.37022 34.2183C6.3745 33.8162 6.27611 33.4098 6.25472 32.9607C6.24617 32.858 6.22478 32.7425 6.259 32.6441C6.38306 32.2976 6.49 31.9468 6.65256 31.6046C6.81512 31.2709 7.02901 30.9373 7.32418 30.7063C7.79901 30.317 8.36796 30.1459 8.88558 30.0731C9.29197 30.0132 9.68552 30.0304 10.0705 30.0817C10.0962 30.086 10.1219 30.0646 10.1475 30.0731C10.3785 30.1159 10.4384 30.3769 10.34 30.7619C10.2673 31.1041 10.1775 31.3051 10.0363 31.3137C9.87802 31.3223 9.71119 31.3223 9.54863 31.3394L9.55291 31.395Z" fill="black"/>
<path d="M17.9666 11.9267C16.5036 11.6145 12.7905 11.1097 9.46234 13.317C4.60703 16.5382 3.1098 23.8618 5.98876 28.7043C7.98222 32.0581 11.4472 33.1703 12.3541 33.4612C13.5733 33.8548 18.0992 35.0911 22.1204 32.4987C26.5265 29.6583 28.3745 23.4725 26.2741 18.536C24.0668 13.3299 18.5484 12.0508 17.9666 11.9267Z" fill="#F4E2B2"/>
<path d="M14.9117 12.2646C14.0903 12.2089 13.2604 12.2646 12.4348 12.3629C11.7033 12.4528 10.9547 12.6111 10.343 13.0859C10.1804 13.1971 9.99646 13.2955 9.81679 13.3982C9.49595 13.5821 9.21362 13.8302 8.91845 14.0527C8.78156 14.1511 8.70028 14.3307 8.57195 14.4163C8.25539 14.6345 7.93028 14.8612 7.68216 15.1606C7.55383 15.3061 7.42978 15.4515 7.31 15.6055C7.19877 15.7638 7.11322 15.9392 7.02338 16.1146C6.77955 16.3114 6.59132 16.5509 6.46299 16.8247C6.33466 17.0985 6.19777 17.368 6.09938 17.6589C5.99671 17.9455 5.86838 18.2193 5.76143 18.5059C5.6716 18.7968 5.59032 19.0919 5.55182 19.3871C5.52615 19.5454 5.50476 19.725 5.44059 19.8705C5.02993 20.7646 4.96576 21.7613 4.94865 22.7323C4.94437 23.7804 5.02992 24.8071 5.11548 25.8637C5.15398 26.1418 5.21387 26.4241 5.28231 26.7064C5.37643 26.9802 5.48765 27.2497 5.5946 27.5192C5.87693 28.1438 6.24482 28.7256 6.65549 29.2688C7.2501 30.056 7.99444 30.7233 8.83289 31.2152C9.96651 31.8655 11.1729 32.3317 12.422 32.6483C13.0594 32.8151 13.6796 33.0205 14.3299 33.1574C15.6175 33.4269 16.9564 33.5338 18.2655 33.3541C19.2451 33.213 20.199 32.8879 21.0589 32.4087C21.8631 31.9553 22.5561 31.3478 23.1935 30.7062C25.0629 28.7512 26.1067 26.0562 26.1623 23.3911C26.1623 23.0703 26.1409 22.7495 26.1281 22.4329L25.9997 21.4875C25.927 21.1795 25.8885 20.8672 25.8201 20.5592C25.5762 19.417 25.1484 18.3091 24.4982 17.3423C24.0234 16.6536 23.4673 16.0205 22.8342 15.4601C22.1925 14.9082 21.4824 14.4291 20.7295 14.0142C19.8825 13.5479 18.9542 13.1501 18.0131 13.0217C17.7521 12.9875 17.7008 12.8848 17.8334 12.7009C18.073 12.3929 18.3125 12.0635 18.8601 12.0079C19.2322 11.9737 19.583 11.9779 19.9637 12.1918C20.5156 12.487 21.1829 12.6453 21.6235 13.133C21.6834 13.2057 21.7946 13.2613 21.8888 13.3041C23.5999 14.0441 24.9559 15.4943 25.8714 17.107C25.9484 17.2396 26.0339 17.368 26.1067 17.5006L26.3163 17.907C26.4575 18.1765 26.6115 18.446 26.7098 18.7369L26.9237 19.293C26.9879 19.4812 27.0307 19.6737 27.082 19.8662C27.1547 20.1443 27.2232 20.4266 27.2531 20.7132C27.2873 20.9998 27.3558 21.2779 27.3772 21.5645C27.4242 21.9923 27.5397 22.4158 27.313 22.8051C27.2702 22.8863 27.2788 23.1088 27.3301 23.1901C27.5312 23.5024 27.4585 23.8617 27.4285 24.2167C27.2916 25.175 27.0735 26.1204 26.7312 27.0273C26.5002 27.7032 26.2222 28.3619 25.9099 29.0122C25.4179 30.0089 24.8148 30.98 24.0319 31.8227C23.3646 32.5157 22.586 33.1017 21.7476 33.598C21.5508 33.7092 21.3669 33.8375 21.1615 33.9359C20.9776 34.0343 20.7851 34.1241 20.5883 34.1969C20.3915 34.2696 20.199 34.3466 20.0022 34.368C19.5616 34.4108 19.2494 34.4963 18.89 34.7359C18.689 34.8813 18.3339 34.9369 18.043 34.9498C17.6708 34.9883 17.2944 34.9326 16.9351 34.8941C16.4987 34.8257 16.1094 34.7487 15.6432 34.8471C15.3908 34.907 15.0528 34.8257 14.779 34.753C13.5855 34.3979 12.3963 34.1156 11.2285 33.722C9.6414 33.1873 8.09711 32.3788 6.80094 31.1981C6.53999 30.9757 6.31754 30.7105 6.08227 30.4581C5.87265 30.1843 5.64165 29.9233 5.45343 29.6324C4.20431 27.8529 3.68669 25.684 3.64819 23.5965C3.6653 23.1858 3.66531 22.7666 3.65247 22.3602C3.65675 21.8939 3.6482 21.4191 3.75086 20.9571C3.79364 20.7261 3.83642 20.4951 3.88775 20.2683C3.94336 20.0416 4.02464 19.8192 4.09736 19.5967C4.25564 19.0577 4.47381 18.5401 4.64064 18.0011C4.86309 17.4878 5.0342 16.9445 5.29943 16.444C5.41921 16.2087 5.50476 15.9477 5.66732 15.7381C6.22771 15.0109 6.77099 14.2751 7.43405 13.6335L7.93028 13.1501L8.47356 12.718C8.83289 12.4228 9.23073 12.179 9.6414 11.9566C10.3087 11.6101 11.0189 11.3534 11.7375 11.1694C12.4605 10.994 13.192 10.8999 13.9192 10.8657C15.0443 10.8101 16.1479 10.9342 17.2174 11.1694C17.2858 11.1865 17.3628 11.178 17.4356 11.1951C18.0473 11.3577 18.1671 11.6528 17.8163 11.9694C17.504 12.256 17.1062 12.3843 16.6014 12.3202C16.041 12.2517 15.4763 12.2004 14.9117 12.1961V12.2646Z" fill="black"/>
<path d="M11.3202 9.03937C7.91934 17.8303 26.1984 45.4221 32.0034 44.4639C36.247 41.3496 40.4863 38.2354 44.7299 35.1212C44.8796 35.0099 44.8069 34.7747 44.6229 34.7661L30.9254 34.103C30.827 34.0988 30.7585 34.0004 30.7885 33.902L35.5711 19.5114C35.6096 19.4002 35.5411 19.2804 35.4256 19.2591L21.6939 16.3801C21.604 16.363 21.5484 16.2646 21.5826 16.179L27.5759 0.650597C27.64 0.479485 27.4604 0.321206 27.2978 0.406762L11.3202 9.03937Z" fill="#EAC464"/>
<path d="M11.9087 14.8531C12.1782 16.4658 12.6444 18.0743 13.1235 19.6528C13.5556 21.0602 14.039 22.4376 14.809 23.7424C15.0058 24.0803 15.1683 24.4696 15.3523 24.8289C15.6902 25.4877 16.0325 26.1422 16.3961 26.7839C16.5629 27.079 16.7982 27.3528 16.9308 27.6352C17.581 29.0297 18.351 30.3601 19.2964 31.5836C19.8098 32.683 20.5755 33.5984 21.3155 34.5481C22.0556 35.4978 22.77 36.4988 23.6127 37.3458C23.8352 37.5725 24.0747 37.842 24.2587 38.103C25.3966 39.6729 26.7569 41.0803 28.2541 42.2866C29.0584 42.924 29.8968 43.5315 30.7866 43.8951C31.0091 43.9892 31.2315 44.0448 31.4539 44.0919C31.5737 44.1004 31.6507 44.1218 31.7363 44.1133C31.7791 44.1133 31.8218 44.1133 31.8646 44.109L31.9758 44.0405L33.2677 43.2107C34.2131 42.616 35.1542 41.923 36.074 41.2471C37.1691 40.4386 38.2385 39.5959 39.3294 38.7831C40.1208 38.1928 40.9036 37.5939 41.6779 36.9907L42.2554 36.5373L42.542 36.3106L42.7302 36.1523C42.9784 35.9469 43.1965 35.7544 43.3762 35.5833L43.5473 35.4208C43.573 35.3951 43.6072 35.3737 43.6072 35.3309C43.6072 35.2882 43.5772 35.2411 43.5259 35.224C43.3077 35.2026 43.0981 35.2325 42.9099 35.2325L42.3923 35.2582L42.1656 35.271C42.1527 35.2753 42.0458 35.271 41.9645 35.271H41.7164C40.3988 35.2582 39.0727 35.2497 37.7509 35.2368C36.4076 35.2154 35.0387 35.0999 33.687 35.0101L31.0689 34.8347C30.8679 34.8219 30.6968 34.762 30.5599 34.6978C30.423 34.6208 30.3246 34.5951 30.2134 34.4412C30.115 34.2786 30.1321 34.1759 30.1193 34.0176C30.115 33.8679 30.1321 33.6883 30.1963 33.4958L30.8165 31.7376L31.8004 28.9442C32.4678 27.0149 33.0966 25.0685 33.7169 23.1221L34.2388 21.4495L34.4955 20.611L34.6152 20.2217L34.6537 20.0677C34.6666 20.0036 34.688 19.9479 34.6965 19.8881C34.688 19.8111 34.5896 19.8239 34.534 19.8111L34.35 19.7854L34.303 19.7768L34.1661 19.7512L33.8966 19.6998L21.5765 17.2914C21.3925 17.2529 21.2428 17.1802 21.123 17.1032C21.0033 17.0176 20.9177 16.9492 20.8322 16.838C20.7894 16.7781 20.7466 16.7011 20.7252 16.6326C20.7038 16.5685 20.6953 16.5171 20.6824 16.4487C20.661 16.3204 20.6568 16.1749 20.6867 16.0081C20.7723 15.6701 20.9391 15.3108 21.0589 14.96L21.2856 14.3483L22.1283 12.0768L23.5101 8.24815C23.7411 7.61075 23.9892 6.97764 24.2373 6.34452L25.2169 3.87195L25.7089 2.63567L25.7645 2.49022L25.7687 2.48594L25.7773 2.47311L25.7944 2.43889L25.8286 2.37044C25.8415 2.33194 25.803 2.35333 25.7901 2.36189L17.7136 6.70386C15.9084 7.67064 14.0989 8.61604 12.3621 9.68121C11.8744 9.98066 11.6691 9.98494 11.7589 9.7026C11.9129 9.21493 11.9942 8.74865 12.7557 8.09842C13.2733 7.65781 13.7652 7.26425 14.5138 6.92203C15.6004 6.42152 16.6313 5.67719 17.7692 5.30929C17.9318 5.25796 18.1371 5.1339 18.304 5.02696C19.7926 4.08584 21.3327 3.22172 22.8898 2.38755L25.2896 1.12132L26.0554 0.719209C26.3077 0.586597 26.5687 0.441152 26.7826 0.376985C27.0007 0.304262 27.1847 0.252928 27.3644 0.197317C27.4499 0.175928 27.5312 0.116038 27.651 0.180205C27.7622 0.235817 27.8306 0.372707 27.7964 0.458263C27.728 0.774821 27.7023 1.10421 27.5483 1.56194C27.2403 2.39183 26.9323 3.22172 26.6243 4.0559L25.8158 6.1563C25.418 7.17014 24.9902 8.17542 24.618 9.19354C24.3357 9.96355 24.1132 10.7293 23.6469 11.3453C23.5486 11.4736 23.4031 11.88 23.3988 12.0383C23.3732 12.65 23.1079 13.2746 22.8598 13.9034L22.2524 15.4349L22.0385 15.9653C22.0171 16.0081 22.0043 16.0637 22.0385 16.1022C22.0684 16.145 22.1241 16.1407 22.1668 16.1535L22.4449 16.2177L24.3143 16.6198C25.6404 16.8936 26.9751 17.1417 28.3055 17.3727C30.3717 17.7192 32.4336 18.0657 34.504 18.4122L35.2013 18.5448C35.4622 18.5833 35.7061 18.6603 35.8729 18.7715C35.9585 18.8272 36.0312 18.8657 36.1039 18.9598C36.1766 19.0496 36.2237 19.1651 36.2323 19.2549C36.2579 19.4346 36.2665 19.6613 36.1852 19.9137C35.813 21.0901 35.4409 22.2708 35.073 23.4515C34.9532 23.8407 34.8634 24.2343 34.7436 24.6193C34.5169 25.3294 34.3158 26.0909 34.0292 26.7325C33.7126 27.4469 33.5073 28.0202 33.4431 28.7559C33.4089 29.1709 33.195 29.7741 33.0153 30.266C32.7843 30.8949 32.5106 31.5066 32.2411 32.1055C32.1598 32.2851 32.0828 32.4648 32.0058 32.6402L31.8946 32.9054C31.8774 32.9396 31.8518 33.0124 31.8475 33.0209L31.8261 33.0637C31.8004 33.1236 31.7748 33.1878 31.7662 33.2476C31.7662 33.3033 31.732 33.3589 31.8133 33.3803C31.9031 33.3717 31.963 33.3503 32.0186 33.3631C32.0528 33.3674 32.0871 33.376 32.1213 33.3888C32.1084 33.3974 32.3352 33.423 32.4549 33.4401C34.7179 33.7567 37.0151 33.8508 39.3166 33.9021L41.6565 33.9492L43.2521 33.992L44.2574 34.0219C44.5954 34.0348 44.8093 34.1289 44.9846 34.2101C45.1515 34.2957 45.2755 34.377 45.3825 34.454C45.4295 34.4796 45.498 34.5481 45.5408 34.6764C45.5878 34.7962 45.5878 34.9203 45.5707 34.9673C45.545 35.0828 45.5065 35.2197 45.4424 35.378C45.3654 35.5405 45.2713 35.7373 45.0231 35.9469L43.3676 37.2089L42.3966 37.9618C41.4298 38.7104 40.4416 39.4419 39.462 40.182C37.9348 41.3284 36.3991 42.4535 34.8505 43.57L33.6912 44.4042L33.1095 44.8191L32.8186 45.0287C32.6731 45.1314 32.4721 45.2982 32.2838 45.3795C32.0614 45.3923 31.8432 45.4266 31.6208 45.418C31.3983 45.4094 31.27 45.3966 31.1074 45.3624C30.9492 45.3367 30.8037 45.2982 30.6626 45.2554C30.5171 45.2169 30.3845 45.1656 30.2519 45.11C29.7257 44.8961 29.2637 44.6309 28.8316 44.3443C28.1558 43.8908 27.5483 43.3775 26.9451 42.8984C25.5591 41.7861 24.3956 40.4857 23.3261 39.1253C22.0428 37.4827 20.7509 35.8742 19.5146 34.223C19.228 33.838 18.92 33.4573 18.6719 33.0551C16.9265 30.2403 15.117 27.464 13.6925 24.4653C12.546 22.0355 11.5878 19.5116 10.9162 16.885C10.4157 14.8574 10.0564 12.7484 10.343 10.5753C10.3601 10.4341 10.3601 10.2801 10.3943 10.1389C10.5184 9.51866 10.7408 9.14221 10.9119 9.01387C11.083 8.88126 11.2114 9.00104 11.3055 9.3176C11.4809 9.88227 11.5194 10.5753 11.5065 11.5592C11.4894 12.6457 11.6263 13.7622 11.8402 14.8659L11.9087 14.8531Z" fill="black"/>
<path d="M26.9457 26.0737C26.7062 25.9497 26.4709 25.7614 26.4024 25.4962C26.3811 25.2952 26.4153 25.1369 26.2313 25.0855C26.1843 25.0727 26.1843 25.0257 26.1629 24.9957C26.1158 24.9401 26.0944 24.8759 26.0559 24.816C26.0388 24.7904 25.9575 24.7947 25.9661 24.7562C25.996 24.615 25.9832 24.4866 25.8977 24.3883C25.8677 24.354 25.8292 24.3155 25.7822 24.2813C25.9019 24.1487 25.7693 24.0418 25.7351 23.892C25.7009 23.7466 25.7822 23.6311 25.7308 23.4557C25.718 23.4086 25.7308 23.3616 25.7736 23.3402C26.0217 23.2119 26.1586 23.0536 26.334 22.9081C26.5008 22.7584 26.6677 22.7071 26.9115 22.737C27.0398 22.7541 27.1254 22.6943 27.2109 22.6429C27.3136 22.5788 27.3906 22.4761 27.489 22.3991C27.6259 22.2836 27.7585 22.1681 27.8654 21.9884C28.0023 21.7446 28.1649 21.5307 28.3446 21.3425C28.4815 21.2227 28.6953 21.1714 28.8921 21.1542C29.2857 21.1072 29.6664 21.2355 29.9573 21.4451C30.184 21.5991 30.338 21.8002 30.522 22.0355C30.676 22.2237 30.8129 22.3007 30.9369 22.5274C31.0481 22.7199 31.1722 22.9167 31.215 23.1092C31.2706 23.3103 31.2749 23.5284 31.2364 23.738C31.1594 24.1573 30.9027 24.5551 30.5434 24.8246L30.4193 24.9144C30.3808 24.9487 30.368 24.9658 30.3423 24.9914C30.2995 25.0385 30.2525 25.0855 30.2054 25.1326C30.1584 25.1754 30.107 25.2096 30.0471 25.2395C29.8375 25.3508 29.6194 25.4449 29.4183 25.5604C29.1231 25.7187 28.8194 25.8641 28.5157 26.0095C28.3403 26.0865 28.1606 26.1464 28.0366 26.3389C28.0023 26.3903 27.9467 26.3133 27.8826 26.1165C27.7671 25.7743 27.6387 25.4278 27.6259 25.1925C27.6173 25.0342 27.6173 24.9102 27.7029 24.9273C27.8269 24.9487 27.8483 24.7519 28.0366 24.9016C28.0622 24.923 28.0751 24.9059 28.0879 24.8845C28.2419 24.5252 28.5841 24.5294 28.8493 24.384C28.9392 24.3412 29.0033 24.2514 29.0803 24.1915C29.1317 24.153 29.183 24.1145 29.2429 24.0845C29.3242 24.0418 29.4226 24.0204 29.491 23.9562C29.5424 23.9091 29.5637 23.815 29.7348 23.9562C29.7691 23.9861 29.7905 23.9605 29.7734 23.9134C29.6921 23.7338 29.7349 23.7338 29.7734 23.7166C29.8675 23.6739 29.9787 23.6097 30.0257 23.507C30.06 23.4343 30.0471 23.3402 29.9915 23.2675C29.906 23.1434 29.7263 23.0878 29.6536 23.0707C29.5723 22.998 29.4696 22.8696 29.3926 22.8226C29.3798 22.8183 29.3456 22.8397 29.337 22.8397C29.3242 22.8354 29.2857 22.8654 29.3242 22.7969C29.367 22.7242 29.3541 22.6857 29.2515 22.8397C29.1958 22.9253 29.2001 22.9167 29.2044 22.8996C29.2087 22.8782 29.2258 22.8055 29.2301 22.7328C29.2386 22.6472 29.2172 22.5531 29.183 22.6942C29.1659 22.7712 29.1616 22.7242 29.1445 22.6771C29.1103 22.5702 29.0547 22.5402 29.0119 22.5488C28.9862 22.5531 28.9606 22.5659 28.9392 22.583C28.905 22.6087 28.8622 22.6429 28.828 22.6771C28.6269 22.8654 28.4472 23.0793 28.2547 23.2675C28.182 23.3445 28.1007 23.4044 28.0237 23.4685C27.7799 23.6696 27.489 23.7894 27.1896 23.9049C27.1639 23.9134 27.1211 23.9305 27.1083 23.9391C27.0954 23.9434 27.0912 23.9562 27.0912 23.9776C27.1126 24.0674 27.1083 24.0418 27.0356 24.0289C26.9457 24.0161 27.0056 24.0974 27.0954 24.1102C27.1168 24.1145 27.1596 24.1145 27.1468 24.1188C27.1254 24.123 27.1168 24.1273 27.1168 24.1316L27.1297 24.123C27.1339 24.123 27.1382 24.1145 27.1425 24.1145L27.181 24.1615C27.2281 24.2257 27.2794 24.2856 27.3179 24.354C27.3521 24.4268 27.3692 24.5123 27.3863 24.6107L27.3906 24.6278V24.6321V24.6364C27.4591 24.5808 26.8088 25.1069 27.0826 24.8845L27.0869 24.8802C27.0912 24.8759 27.0954 24.8717 27.104 24.8588C27.1168 24.8417 27.1339 24.816 27.1425 24.7818C27.1511 24.7562 27.1596 24.7305 27.1639 24.7005C27.1682 24.6749 27.1639 24.7262 27.1682 24.739C27.181 24.7818 27.2109 24.8203 27.2537 24.8503C27.258 24.8545 27.258 24.8374 27.2666 24.8417C27.3136 24.8845 27.4591 25.0984 27.566 25.4705C27.6601 25.8042 27.6131 26.0352 27.4591 26.0566C27.2922 26.0823 27.1168 26.0566 26.95 26.0095L26.9457 26.0737Z" fill="black"/>
<path d="M16.4535 10.9735C16.214 10.8494 15.9787 10.6612 15.9102 10.396C15.8889 10.1949 15.9231 10.0367 15.7391 9.98533C15.6921 9.9725 15.6921 9.92544 15.6707 9.8955C15.6236 9.83988 15.6022 9.77572 15.5637 9.71583C15.5466 9.69016 15.4654 9.69444 15.4739 9.65594C15.5039 9.51477 15.491 9.38644 15.4055 9.28805C15.3755 9.25382 15.337 9.21532 15.29 9.1811C15.4097 9.04849 15.2771 8.94154 15.2429 8.79182C15.2087 8.64638 15.29 8.53088 15.2386 8.35549C15.2258 8.30843 15.2386 8.26137 15.2814 8.23999C15.5295 8.11165 15.6664 7.95337 15.8418 7.80793C16.0086 7.6582 16.1755 7.60687 16.4193 7.63682C16.5476 7.65393 16.6332 7.59404 16.7188 7.5427C16.8214 7.47854 16.8984 7.37587 16.9968 7.29887C17.1337 7.18337 17.2663 7.06787 17.3733 6.8882C17.5101 6.64436 17.6727 6.43047 17.8524 6.24225C17.908 6.19092 17.9935 6.14814 18.0705 6.11819C18.1775 6.07969 18.2887 6.06258 18.3999 6.04975C18.7935 6.00269 19.1742 6.13103 19.4651 6.34064C19.6918 6.49464 19.8458 6.6957 20.0298 6.93098C20.1838 7.1192 20.3207 7.1962 20.4447 7.42292L20.6116 7.71809C20.9666 8.3726 20.6843 9.24955 20.0512 9.71583L19.9357 9.81422C19.8972 9.84844 19.8843 9.86555 19.8587 9.89122C19.8159 9.93827 19.7688 9.98533 19.7218 10.0324C19.6747 10.0752 19.6234 10.1094 19.5635 10.1393C19.3539 10.2506 19.1357 10.3447 18.9347 10.4602C18.6395 10.6184 18.3358 10.7639 18.032 10.9093C17.8566 10.9863 17.677 11.0462 17.5529 11.2387C17.5187 11.2901 17.4631 11.2131 17.3989 11.0163C17.2834 10.6741 17.1551 10.3276 17.1423 10.0923C17.1337 9.934 17.1337 9.80994 17.2193 9.82705C17.3433 9.84844 17.3647 9.65166 17.5529 9.80138C17.5786 9.82277 17.5914 9.80566 17.6043 9.78427C17.7583 9.42494 18.1005 9.42921 18.3657 9.28377C18.4555 9.24099 18.5197 9.15116 18.5967 9.09127C18.648 9.05277 18.6994 9.01427 18.7593 8.98432C18.8405 8.94154 18.9389 8.92016 19.0074 8.85599C19.0587 8.80893 19.0801 8.71482 19.2512 8.85599C19.2854 8.88593 19.3068 8.86027 19.2897 8.81321C19.2084 8.63354 19.2512 8.63354 19.2897 8.61643C19.3838 8.57365 19.4951 8.50949 19.5421 8.40682C19.5763 8.3341 19.5635 8.23998 19.5079 8.16726C19.4608 8.09454 19.3667 8.04321 19.294 8.00898C19.2469 7.99187 19.2042 7.97904 19.1699 7.97048C19.0887 7.89776 18.986 7.76943 18.909 7.72237C18.8962 7.71809 18.8619 7.73948 18.8534 7.73948C18.8405 7.7352 18.802 7.76515 18.8405 7.6967C18.8833 7.62398 18.8705 7.58548 18.7678 7.73948C18.7122 7.82504 18.7165 7.81648 18.7208 7.79937C18.725 7.77798 18.7422 7.70526 18.7464 7.63254C18.755 7.54698 18.7336 7.45287 18.6994 7.59404C18.6823 7.67104 18.678 7.62398 18.6609 7.57692C18.6267 7.4657 18.5668 7.43576 18.524 7.44859C18.4983 7.45715 18.4769 7.46998 18.4555 7.48709C18.4213 7.51276 18.3828 7.5427 18.3486 7.57692C18.1475 7.76515 17.9679 7.97904 17.7754 8.16726C17.7027 8.24426 17.6214 8.30415 17.5444 8.36832C17.3005 8.56938 17.0096 8.68915 16.7102 8.80466C16.6845 8.81321 16.6418 8.83032 16.6289 8.83888C16.6161 8.84316 16.6118 8.85599 16.6118 8.87738C16.6332 8.96721 16.6289 8.94154 16.5562 8.92871C16.4664 8.91588 16.5263 8.99716 16.6161 9.00999C16.6375 9.01427 16.6803 9.01427 16.6674 9.01855C16.646 9.02282 16.6375 9.0271 16.6375 9.03138L16.6503 9.02282C16.6546 9.02282 16.6589 9.01427 16.6631 9.01427L16.7016 9.06132C16.7487 9.12549 16.8 9.18538 16.8385 9.25382C16.8728 9.32655 16.8899 9.4121 16.907 9.51049L16.9113 9.5276V9.53188V9.53616C16.9797 9.48055 16.3295 10.0067 16.6033 9.78427L16.6075 9.77999C16.6118 9.77572 16.6161 9.77144 16.6246 9.75861C16.6375 9.7415 16.6546 9.71583 16.6631 9.68161C16.6717 9.65594 16.6803 9.63027 16.6845 9.60033C16.6888 9.57466 16.6845 9.62599 16.6888 9.63883C16.7016 9.68161 16.7316 9.72011 16.7744 9.75005C16.7786 9.75433 16.7786 9.73722 16.7872 9.74149C16.8343 9.78427 16.9797 9.99816 17.0866 10.3703C17.1808 10.704 17.1337 10.935 16.9797 10.9564C16.8129 10.9821 16.6375 10.9564 16.4706 10.9093L16.4535 10.9735Z" fill="black"/>
<path d="M34.5191 41.4048C34.271 41.2979 34.0229 41.1225 33.9373 40.8658C33.9031 40.6648 33.9245 40.5065 33.7363 40.468C33.6892 40.4594 33.6849 40.4124 33.6593 40.3824C33.6079 40.3311 33.5823 40.2669 33.5395 40.2113C33.5181 40.1857 33.4411 40.1942 33.4496 40.1557C33.471 40.0103 33.4496 39.8862 33.3555 39.7921C33.3256 39.7579 33.2828 39.7237 33.2315 39.6937C33.3427 39.5526 33.2015 39.4542 33.1587 39.3087C33.116 39.1676 33.1844 39.0435 33.1245 38.8724C33.1117 38.8253 33.116 38.7783 33.1587 38.7569C33.3983 38.6114 33.5224 38.4446 33.6892 38.2863C33.8432 38.128 34.0058 38.0639 34.2539 38.0724C34.3822 38.081 34.4635 38.0168 34.5448 37.9569C34.6431 37.8842 34.7116 37.7773 34.8057 37.696C34.934 37.5719 35.0581 37.4436 35.1522 37.2597C35.272 37.0073 35.4217 36.7805 35.5885 36.5838C35.7169 36.4554 35.9265 36.387 36.119 36.357C36.5083 36.2843 36.8933 36.3827 37.2013 36.5709C37.4408 36.7078 37.6077 36.9003 37.8044 37.1228C37.9713 37.2982 38.1125 37.3666 38.2493 37.5848C38.3734 37.7687 38.5103 37.9569 38.5659 38.1452C38.6343 38.3419 38.6515 38.5558 38.6301 38.7697C38.583 39.1932 38.352 39.6082 38.0141 39.8991L37.9028 40.0017C37.8643 40.0402 37.8558 40.0531 37.8344 40.083C37.7916 40.1343 37.7531 40.1857 37.7103 40.2327C37.6676 40.2798 37.6162 40.3183 37.5606 40.3525C37.3596 40.4766 37.1499 40.5878 36.9532 40.7161C36.6666 40.8915 36.3757 41.0626 36.0848 41.2252C35.9179 41.315 35.7425 41.3877 35.6313 41.5845C35.6014 41.6401 35.5415 41.5631 35.4602 41.3706C35.3233 41.037 35.1693 40.699 35.1436 40.468C35.1265 40.314 35.118 40.1899 35.2035 40.1985C35.3276 40.2113 35.3404 40.0146 35.5329 40.1472C35.5586 40.1643 35.5757 40.1472 35.58 40.1258C35.7126 39.7579 36.0505 39.7365 36.3072 39.5739C36.3928 39.5226 36.4484 39.4328 36.5254 39.3643C36.5724 39.3216 36.6238 39.2831 36.6794 39.2488C36.7564 39.1975 36.8548 39.1718 36.9189 39.1034C36.966 39.0521 36.9788 38.9579 37.1628 39.0863C37.2013 39.1119 37.2227 39.0863 37.197 39.0392C37.1029 38.8638 37.1457 38.8638 37.1799 38.8424C37.2697 38.7911 37.3767 38.7227 37.4152 38.6157C37.4451 38.5387 37.4237 38.4489 37.3638 38.3762C37.2697 38.2607 37.0858 38.2136 37.0131 38.205C36.9232 38.1366 36.8163 38.0168 36.735 37.974C36.7222 37.974 36.6879 37.9954 36.6837 37.9954C36.6708 37.9912 36.6366 38.0254 36.6666 37.9527C36.7051 37.8757 36.6879 37.8414 36.5981 38.004C36.5468 38.0938 36.551 38.0853 36.5553 38.0682C36.5596 38.0468 36.5724 37.9698 36.5724 37.897C36.5767 37.8115 36.5468 37.7217 36.5254 37.8628C36.5168 37.9398 36.504 37.897 36.4869 37.85C36.4484 37.7473 36.3885 37.7174 36.3457 37.7302C36.3201 37.7345 36.2987 37.7516 36.2773 37.773C36.2473 37.7987 36.2045 37.8372 36.1703 37.8714C35.9821 38.0724 35.8153 38.2992 35.6399 38.5002C35.5714 38.5815 35.4987 38.6499 35.4217 38.7184C35.1907 38.9365 34.9084 39.0734 34.6175 39.2103C34.5918 39.2232 34.5533 39.2403 34.5405 39.2488C34.5277 39.2531 34.5234 39.2659 34.5277 39.2873C34.5533 39.3772 34.5533 39.3515 34.472 39.3429C34.3822 39.3344 34.4464 39.4114 34.5362 39.4199C34.5576 39.4242 34.6004 39.4199 34.5875 39.4242C34.5662 39.4285 34.5576 39.4371 34.5619 39.4413L34.5747 39.4328C34.579 39.4328 34.5833 39.4242 34.5875 39.4242L34.6303 39.467C34.6816 39.5269 34.7373 39.5868 34.78 39.6509C34.8185 39.7237 34.8442 39.8049 34.8656 39.8991L34.8699 39.9162V39.9204V39.9247C34.934 39.8648 34.3223 40.4381 34.5833 40.1942L34.5875 40.1899C34.5918 40.1814 34.5961 40.1814 34.6046 40.1686C34.6132 40.1514 34.6303 40.1215 34.6389 40.0916C34.6474 40.0659 34.6517 40.0402 34.656 40.0103C34.656 39.9846 34.656 40.0359 34.6645 40.0488C34.6774 40.0873 34.7116 40.1258 34.7586 40.1514C34.7629 40.1557 34.7629 40.1386 34.7672 40.1429C34.8143 40.1814 34.9768 40.3867 35.1094 40.7503C35.2249 41.0755 35.195 41.3107 35.041 41.345C34.8742 41.3792 34.6988 41.3706 34.5319 41.3321L34.5191 41.4048Z" fill="black"/>
</svg>
