<svg width="95" height="22" viewBox="0 0 95 22" fill="none" xmlns="http://www.w3.org/2000/svg">
<path d="M80.3104 15.116C79.9926 15.116 79.4959 15.0564 79.0059 15.01C78.7542 14.9902 78.4893 14.924 78.2377 14.8908C78.0457 14.8644 77.8669 14.8445 77.7212 14.7121C77.5887 14.5862 77.4364 14.5862 77.2643 14.626C77.1517 14.6524 77.0259 14.6856 76.9199 14.6657C76.4299 14.5399 75.9531 14.3677 75.4763 14.1558C75.3174 14.1028 75.165 14.0035 75.0194 13.9042C74.8803 13.8048 74.7479 13.7055 74.6485 13.5466C74.5227 13.3479 74.3174 13.3479 74.1188 13.2486C73.8737 13.136 73.8274 13.0433 73.887 12.7718C73.9333 12.5996 73.9069 12.5334 73.7744 12.5334C73.6486 12.5268 73.5095 12.5665 73.4234 12.3413C73.1321 11.699 73.1321 10.9441 73.3506 10.3415C73.4168 10.1759 73.483 9.85805 73.7082 10.0633C73.7214 10.0766 73.7612 10.07 73.7678 10.0567C73.9002 9.81832 74.0393 9.57992 74.2115 9.3945C74.2181 9.03029 74.5889 8.86473 74.7677 8.5866C74.8008 8.527 74.8869 8.45416 74.9399 8.45416C75.2247 8.45416 75.4498 8.1363 75.7213 8.15617C75.9001 8.1959 75.9796 8.11644 76.0524 7.97737C76.1186 7.85155 76.218 7.76546 76.3901 7.73898C77.1914 7.57342 77.9662 7.686 78.6681 7.82506C79.1118 7.91115 79.5356 8.01048 79.9462 8.12968C80.6879 8.35483 81.4627 8.36145 82.1977 8.18266C82.3037 8.15617 82.4096 8.1363 82.5222 8.11643L82.8401 8.0171C83.052 7.95751 83.2771 7.89128 83.4957 7.81844C83.6745 7.76546 83.8135 7.69262 83.9592 7.58005C85.1048 6.68606 86.6014 6.20265 88.1245 6.22251C88.3563 6.23576 88.5814 6.32847 88.8 6.34171C89.0251 6.35495 89.2436 6.32185 89.4688 6.44104C89.6145 6.52051 89.8264 6.547 90.0052 6.53375C90.8131 6.52713 91.515 7.03041 92.0845 7.55356C92.2633 7.73898 92.4421 7.91777 92.5944 8.11643C92.7401 8.32172 92.8858 8.52038 93.0447 8.71243C93.1838 8.91771 93.3295 9.12299 93.4884 9.32166C93.6407 9.52032 93.7599 9.75209 93.8924 9.97062C93.9387 10.0567 94.0049 10.1296 94.0248 10.2156C94.1374 10.6328 94.197 11.0566 94.2764 11.4606C94.336 11.6526 94.3824 11.8447 94.3956 12.0433C94.4155 12.242 94.4552 12.4473 94.4155 12.646C94.3956 12.785 94.389 12.9307 94.389 13.0764C94.4023 13.3678 94.336 13.6525 94.2632 13.9306C94.1705 14.2021 93.9983 14.4405 93.7665 14.6127C93.5877 14.8842 93.4487 15.1822 93.2301 15.4206C93.1242 15.5464 93.0381 15.7252 92.9123 15.7848C92.5348 15.9173 92.3891 16.149 92.2236 16.4802C92.1375 16.6656 91.9322 16.8377 91.7468 16.9768C91.6144 17.0828 91.4687 17.1755 91.3031 17.096C91.2501 17.0695 91.0846 17.1026 91.0449 17.149C90.8859 17.3212 90.6608 17.3212 90.4754 17.3741C90.2038 17.4536 89.9721 17.5264 89.7138 17.394C89.6343 17.3543 89.4688 17.3741 89.3893 17.4205C89.1112 17.586 88.7867 17.5927 88.4622 17.6125C88.1642 17.586 87.853 17.5463 87.5484 17.4668C86.5484 17.2351 85.5816 16.745 84.8002 16.1292C84.6943 16.0431 84.5751 15.957 84.4559 15.9107C84.0387 15.7319 83.7142 15.467 83.3963 15.2418C83.2705 15.169 83.1248 15.1028 82.999 15.0564C83.0056 14.8312 82.8268 14.9571 82.7341 14.924C82.6017 14.8975 82.509 14.7783 82.3567 14.7849C82.2639 14.7915 82.1712 14.7716 82.0851 14.7452C81.9924 14.7319 81.8931 14.712 81.8004 14.6988C81.4759 14.6657 81.3104 14.5266 81.2375 14.1624C81.2243 14.1028 81.2177 14.0432 81.211 13.9836C81.1978 13.8181 81.264 13.732 81.4627 13.6856C81.7077 13.6194 81.9858 13.5664 82.2308 13.626C82.7474 13.785 83.2573 13.8644 83.7341 14.0697C84.4294 14.3743 85.0254 14.7783 85.5816 15.169C85.9458 15.4206 86.3167 15.6524 86.714 15.8246C87.0848 16.01 87.4888 16.0894 87.8927 16.1689C88.0649 16.2153 88.257 16.2285 88.4358 16.2616C88.6212 16.2947 88.7933 16.3278 88.939 16.3411C89.4887 16.4603 90.0648 16.3212 90.6144 16.1358C90.7601 16.1027 90.9058 16.0431 91.025 15.9438C91.4687 15.6391 91.813 15.2551 92.217 14.9173C92.2567 14.8776 92.3097 14.8246 92.3097 14.7783C92.3097 14.4405 92.515 14.2353 92.6673 13.9969C93.005 13.3413 93.1706 12.6195 93.0977 11.9109C93.0182 11.0368 92.5878 10.2355 91.9653 9.46072C91.5812 9.0038 91.1442 8.62634 90.7137 8.26874C90.4356 8.05021 90.1178 7.93764 89.8065 7.83168C89.2304 7.6264 88.6079 7.49396 87.9523 7.51382C86.8332 7.56018 85.6942 7.91777 84.6148 8.4343C84.542 8.46741 84.4691 8.51376 84.4029 8.56012C84.1711 8.73229 83.9857 8.87798 83.6943 9.03691C83.3765 9.20246 83.0652 9.3945 82.701 9.48059C81.9991 9.73223 81.2441 9.73885 80.5554 9.70574C79.2575 9.59979 78.1384 9.26206 77.2907 9.2157C76.7279 9.19584 76.357 9.26868 75.9332 9.57992L75.6816 9.79845C75.5955 9.87129 75.5226 9.98387 75.4432 10.0766C75.271 10.2752 75.1386 10.454 75.0459 10.6328C74.8538 11.0434 74.8406 11.3679 74.9068 11.7453C74.9399 11.8579 74.9929 11.9705 75.0988 12.0698C75.5293 12.6195 76.4431 12.9506 77.3239 13.1625C77.549 13.2088 77.7477 13.2817 77.9 13.4936C77.9794 13.5929 78.1516 13.6459 78.2907 13.6658C78.6946 13.732 79.1118 13.8114 79.529 13.7121C79.8005 13.6525 80.0455 13.7518 80.3038 13.7651C80.3237 13.7651 80.3568 13.8247 80.3502 13.8446C80.3104 13.9571 80.3766 13.9902 80.4826 13.9836C80.6813 13.977 80.8733 13.8379 81.0653 13.9505C81.2971 14.083 81.1448 14.328 81.2441 14.5001C81.3501 14.6922 81.1051 14.8246 81.0852 15.0034C81.0852 15.0299 80.9726 15.0564 80.9064 15.063C80.7541 15.0961 80.615 15.0961 80.3104 15.116Z" fill="#C0E3EB"/>
<path d="M9.11704 7.8978C8.4151 7.90442 7.32907 7.99713 6.30264 8.30837C5.75963 8.46068 5.22986 8.65272 4.73983 8.90436C4.36899 9.08316 4.04451 9.30168 3.70678 9.40764C3.39554 9.50697 3.1439 9.75199 2.95186 10.0434C2.81942 10.2222 2.71346 10.4539 2.56115 10.6195C1.93868 11.4009 1.495 12.3214 1.47513 13.3279C1.44864 13.9901 1.56122 14.6391 1.65393 15.2881C1.71353 15.7185 1.96517 16.0033 2.21018 16.3013C2.53467 16.6522 2.56116 16.8045 2.59427 17.2085C2.60751 17.4535 2.68035 17.5992 2.85915 17.6455C3.03795 17.6919 3.15715 17.6654 3.42203 18.0031C3.80611 18.4601 4.21668 18.864 4.69347 19.1752C5.17026 19.4732 5.68679 19.6851 6.24305 19.7911C6.55428 19.8639 7.14365 19.8176 6.95161 20.0957C6.93837 20.109 6.98472 20.1487 7.00459 20.1487C7.58071 20.1752 8.17008 20.1156 8.75282 20.0096C9.36206 19.6653 10.2163 19.6322 10.8851 19.3011C11.011 19.2415 11.256 19.162 11.3487 19.162C11.9049 19.1819 12.6201 18.7514 13.183 18.7316C13.5406 18.7183 13.7856 18.5925 14.0042 18.4203C14.2094 18.268 14.4478 18.1356 14.8385 18.0362C15.7325 17.8045 16.6662 17.6257 17.6264 17.6257C18.58 17.619 19.5601 17.8045 20.4475 18.215C21.454 18.672 22.4937 19.0759 23.5334 19.3209C24.4737 19.5395 25.4604 19.5461 26.3742 19.2017C27.2947 18.8839 28.149 18.3144 29.0827 17.8641C30.1422 17.3475 31.3938 16.9635 32.5725 17.235C33.0295 17.3409 33.4268 17.4535 33.8638 17.5992C34.7446 17.8707 35.5525 18.321 36.3736 18.6852C37.1948 19.0693 38.0093 19.3275 38.9033 19.4534C40.6979 19.7712 42.4924 19.9302 44.2473 19.5593C44.7771 19.46 45.3333 19.3938 45.83 19.2084C46.3333 18.9898 46.7703 18.7779 47.3067 18.5726C47.6842 18.4534 48.1146 18.1687 48.4325 17.9303C49.8364 16.8244 51.3926 15.7715 52.7368 14.5994C53.1408 14.1954 53.5381 13.7848 53.8295 13.3081C54.1142 12.8379 54.293 12.3081 54.2533 11.7784C54.2202 11.242 53.9619 10.7321 53.5845 10.3149C53.207 9.89767 52.7236 9.55995 52.2137 9.26857C52.0217 9.16262 51.8296 9.06991 51.6376 8.9772C50.7767 8.5269 49.8297 8.1362 48.8629 7.97064C47.9424 7.81171 47.0153 7.7786 46.0684 7.719C45.7373 7.69914 45.3995 7.70576 45.0751 7.72562C43.7573 7.81833 42.4924 8.06335 41.2144 8.04348C40.4793 8.21566 39.6979 8.41432 38.9231 8.57325C38.5258 8.63285 38.0689 8.75867 37.7444 8.73218C36.8438 8.63285 36.1683 8.69907 35.2876 8.65272C34.8174 8.61299 34.1353 8.30175 33.6784 7.91767C33.3407 7.65278 33.0758 7.39452 32.9897 7.11639C32.9765 7.07666 32.9103 6.99057 32.8308 6.91111C32.7513 6.84488 32.6586 6.78528 32.6056 6.76542C32.2083 6.66609 31.8706 6.46742 31.4468 6.50054C30.8574 6.50716 30.3806 6.65284 29.7316 6.56676C29.533 6.54027 29.1092 6.54027 28.8708 6.5204C28.4867 6.51378 28.0629 6.38134 27.7119 6.13632C27.3543 5.89792 27.0828 5.57344 26.8577 5.24233C26.414 4.58675 26.1292 3.89805 25.7849 3.30206C25.2419 2.30212 24.5201 1.63329 23.5135 1.40151C22.5202 1.14325 21.3481 1.25583 20.2488 1.46773C19.9508 1.53396 19.6528 1.64653 19.3879 1.75911C18.5204 2.21603 17.8119 2.75905 17.2689 3.59343C17.0636 3.92454 16.8914 4.29537 16.7126 4.68608C16.3749 4.8715 16.4345 5.22247 16.2557 5.53371C16.1365 5.74562 16.0239 5.93766 15.8451 6.13632C15.6862 6.34161 15.5206 6.54027 15.2955 6.7588C15.0571 7.05679 14.6796 7.24221 14.322 7.43425C14.1366 7.49385 13.9446 7.54683 13.7525 7.5998L13.4678 7.67265L13.1963 7.69251C12.8916 7.71238 12.6201 7.73224 12.4082 7.69913C12.1963 7.6594 12.0241 7.61305 11.8851 7.56007C11.6069 7.44749 11.4745 7.30843 11.4414 7.12301C11.4348 7.06341 11.4215 7.00381 11.4348 6.94421C11.4679 6.77866 11.6533 6.71244 12.1367 6.71244C12.7327 6.72569 13.3221 6.55351 13.8121 6.41445C14.3485 6.22241 14.7789 5.8317 15.0703 5.33504C15.3617 4.82514 15.5802 4.27551 15.8451 3.71263C16.2292 2.88487 16.7656 2.03724 17.547 1.42138C17.9178 1.08365 18.3681 0.884991 18.8052 0.646595L19.4939 0.408199C19.7257 0.322112 19.9574 0.25589 20.1958 0.229402L21.1163 0.0704728C21.4275 0.0439844 21.7321 -0.00237182 22.05 0.00425029C22.6791 -0.015616 23.3281 0.0307385 23.9704 0.216157C24.5797 0.388332 25.1823 0.679705 25.6789 1.10352C26.1822 1.52071 26.5795 2.03724 26.8841 2.55376C27.4338 3.47423 27.8179 4.46755 28.2947 5.03043C28.692 5.54033 29.2813 5.64628 30.0429 5.50722C30.8971 5.36153 32.0163 5.19598 33.0427 5.76548C33.546 6.06348 33.9036 6.45418 34.2281 6.73893C34.7843 7.24221 35.2611 7.49385 35.9101 7.5998C36.0624 7.63954 36.2279 7.65278 36.4001 7.65278C36.5723 7.6594 36.7378 7.68589 36.9166 7.67265C37.2742 7.63954 37.6252 7.67265 38.0027 7.60643C38.155 7.58656 38.3669 7.56669 38.4596 7.52034C38.8039 7.36141 39.2013 7.22234 39.6118 7.12301C40.0489 7.02368 40.4992 6.92435 40.9296 6.82502C43.3202 6.30187 45.7836 6.24889 48.2073 6.59987C49.684 6.82502 51.1542 7.2091 52.5647 7.92429C53.2666 8.2885 53.9553 8.73881 54.5447 9.40102C55.134 10.0434 55.5976 10.9903 55.591 11.9903C55.5711 13.2286 54.9817 14.2352 54.3593 15.0033C53.7169 15.7847 52.962 16.3741 52.26 16.884C51.3661 17.5462 50.5251 18.1952 49.598 18.7779C47.8961 19.8308 45.9624 20.6321 43.903 20.95C42.1415 21.2612 40.3204 21.0361 38.698 20.7447C38.4993 20.7116 38.2874 20.6718 38.049 20.6189C37.8172 20.5725 37.5921 20.5063 37.3736 20.4334C36.9299 20.2944 36.5127 20.109 36.1087 19.9235C35.3075 19.5395 34.6055 19.1024 33.9301 18.7845C33.7446 18.6918 33.5526 18.6256 33.3738 18.566C32.1355 18.1687 31.2084 18.374 29.9237 19.0229C29.3145 19.3209 28.6986 19.705 27.9702 20.0758C27.2484 20.4467 26.3809 20.791 25.4604 20.897C23.7188 21.0957 22.1427 20.6255 20.7521 20.0758L19.7323 19.6454L19.3349 19.4865L18.9244 19.3673C18.3681 19.2348 17.7788 19.1951 17.1695 19.2348C15.4941 19.3408 13.726 19.9831 11.8851 20.5924C10.3686 21.0758 8.7462 21.6254 6.89864 21.5592C5.91856 21.5261 4.89214 21.2413 4.02464 20.7182C3.15715 20.2083 2.46845 19.46 1.98503 18.7249C1.83272 18.513 1.68042 18.2879 1.53473 18.0561C1.38242 17.831 1.23011 17.5992 1.10429 17.3608C0.422217 16.1754 -0.0545741 14.7782 0.00502487 13.3279C0.0381354 11.8711 0.673856 10.4738 1.60757 9.44075C2.05788 8.93085 2.56778 8.54677 3.07768 8.4077C3.3227 8.32824 3.74651 8.10308 4.08424 7.92429C5.05769 7.40776 6.1106 7.0899 7.15027 6.77204C7.84559 6.56013 8.50781 6.57338 9.17664 6.57338C9.22299 6.57338 9.30908 6.62635 9.28259 6.65284C9.17664 6.77204 9.33557 6.78528 9.60045 6.79191C10.0905 6.79191 10.6269 6.68595 11.0772 6.86475C11.6069 7.07004 11.1566 7.25546 11.3288 7.46074C11.501 7.68589 10.8984 7.72563 10.8322 7.8978C10.8189 7.91767 10.5739 7.91767 10.4348 7.91767C10.0905 7.88455 9.78587 7.85807 9.11704 7.8978Z" fill="#C0E3EB"/>
</svg>
