<svg width="696" height="196" viewBox="0 0 696 196" fill="none" xmlns="http://www.w3.org/2000/svg">
<path d="M653.305 150.674C653.512 150.07 655.998 143.265 663.136 141.741C667.923 140.717 673.025 142.448 676.16 146.337C680.854 152.17 678.203 159.228 677.949 159.867C677.616 160.713 675.165 166.597 668.757 168.168C663.867 169.364 658.655 167.558 655.48 163.698C650.878 158.101 653.104 151.273 653.305 150.674Z" fill="#F1D1D5"/>
<path d="M654.301 146.975C654.997 146.158 655.751 145.376 656.602 144.76C657.39 144.231 658.15 143.771 658.863 143.144C659.047 142.983 659.289 142.862 659.507 142.741C659.921 142.54 660.324 142.304 660.75 142.126C660.945 142.045 661.118 141.872 661.314 141.832C662.274 141.648 663.195 141.476 664.121 141.165C664.892 141.297 665.599 141.084 666.364 141.056C667.129 141.004 667.883 141.159 668.66 141.13C668.867 141.13 669.097 141.171 669.287 141.245C670.437 141.729 671.593 142.114 672.704 142.689C673.889 143.299 674.936 144.185 675.683 145.272C675.891 145.554 676.086 145.853 676.316 146.124C676.523 146.411 676.73 146.705 676.938 146.992C677.202 147.32 677.398 147.694 677.628 148.051C677.869 148.402 678.042 148.787 678.22 149.172C678.715 150.3 679.106 151.468 679.388 152.682C679.802 154.304 679.86 156.03 679.653 157.727C679.532 158.595 679.25 159.424 678.888 160.269C678.14 161.897 677.133 163.312 675.948 164.595C675.068 165.556 674.096 166.447 673.009 167.195C672.002 167.903 670.903 168.507 669.718 168.904C666.215 170.135 662.217 169.767 658.863 168.098C658.046 167.713 657.269 167.236 656.527 166.706C656.171 166.419 655.808 166.143 655.498 165.803C654.295 164.607 653.34 163.18 652.621 161.65C651.592 159.452 651.172 157.007 651.293 154.649C651.362 153.297 651.597 152.003 651.827 150.645C651.896 150.254 652.075 150.156 652.282 150.398C652.656 150.795 653.082 151.105 653.214 151.744C653.312 152.175 653.386 152.555 653.243 153.021C653.03 153.711 653.197 154.459 652.898 155.149C652.851 155.247 652.863 155.391 652.886 155.506C653.231 157.577 653.53 159.619 654.479 161.489C654.646 161.782 654.825 162.07 655.009 162.357C655.21 162.628 655.434 162.887 655.636 163.157C655.762 163.335 655.906 163.502 656.056 163.663C656.205 163.824 656.343 163.997 656.493 164.152C656.93 164.612 657.373 165.078 657.896 165.447C658.098 165.579 658.299 165.7 658.483 165.843C658.673 165.976 658.834 166.137 658.949 166.378C658.995 166.482 659.225 166.597 659.34 166.58C659.772 166.517 660.094 166.729 660.456 166.89C661.417 167.351 662.435 167.713 663.494 167.897C664.276 168.035 665.076 168.052 665.858 167.983C667.072 167.868 668.245 167.535 669.333 167.075C670.242 166.695 671.139 166.281 671.927 165.694C672.117 165.567 672.272 165.401 672.445 165.257C672.606 165.124 672.767 164.992 672.928 164.854C673.083 164.71 673.239 164.584 673.417 164.486C673.82 164.285 674.061 164.026 674.176 163.588C674.228 163.33 674.47 163.076 674.671 162.869C674.918 162.593 675.223 162.357 675.499 162.099C675.839 161.794 676.161 161.489 676.241 160.983C676.287 160.712 676.5 160.43 676.679 160.194C677.484 159.193 677.8 157.83 677.91 156.524C678.065 154.729 677.835 152.94 677.306 151.312C677.087 150.68 676.863 150.047 676.564 149.454C675.666 147.596 674.291 145.951 672.6 144.708L672.088 144.352C671.91 144.248 671.72 144.156 671.536 144.081C670.65 143.748 669.804 143.391 668.918 143.069C667.848 142.689 666.686 142.655 665.576 142.787C665.317 142.827 665.058 142.873 664.805 142.891C664.581 142.902 664.357 142.902 664.138 142.931L663.476 143.04C663.045 143.15 662.619 143.282 662.205 143.42C661.388 143.759 660.6 144.139 659.858 144.605C658.639 145.324 657.471 146.21 656.464 147.309C655.693 148.154 654.986 149.098 654.399 150.11C654.364 150.179 654.353 150.26 654.313 150.323C653.99 150.887 653.611 150.99 653.231 150.507C652.903 150.07 652.851 149.495 653.156 148.902C653.502 148.246 653.904 147.631 654.336 147.038L654.301 146.975Z" fill="#F8AFB8"/>
<path d="M638.228 166.574C638.407 166.637 638.573 166.66 638.763 166.769C638.936 166.861 639.103 166.965 639.177 166.769C639.195 166.718 639.246 166.741 639.275 166.729C639.339 166.706 639.402 166.689 639.459 166.648C639.482 166.631 639.482 166.528 639.523 166.551C639.701 166.66 639.845 166.654 639.92 166.447C640.092 166.62 640.138 166.436 640.219 166.338C640.299 166.24 640.414 166.246 640.46 166.056C640.472 166.004 640.495 165.975 640.535 165.998C640.759 166.119 640.897 165.998 641.053 165.895C641.214 165.786 641.409 165.78 641.651 165.918C641.778 165.987 641.875 165.952 641.973 165.918C642.088 165.878 642.18 165.78 642.29 165.722C642.445 165.642 642.589 165.527 642.704 165.325C642.859 165.055 643.026 164.825 643.21 164.635C643.302 164.537 643.44 164.566 643.567 164.56C643.814 164.549 644.079 164.572 644.32 164.537C644.504 164.509 644.665 164.434 644.826 164.342C644.976 164.261 645.108 164.117 645.252 164.025C645.689 163.761 646.132 163.508 646.57 163.243C646.673 163.18 646.771 163.082 646.874 163.013C646.926 162.978 646.984 162.955 647.041 162.944C647.26 162.898 647.484 162.869 647.703 162.806C648.013 162.719 648.307 162.604 648.617 162.518C648.79 162.472 648.974 162.449 649.095 162.242C649.129 162.184 649.187 162.3 649.256 162.57C649.377 163.036 649.515 163.513 649.526 163.812C649.532 164.014 649.526 164.175 649.434 164.129C649.302 164.066 649.267 164.313 649.078 164.071C649.049 164.037 649.037 164.054 649.026 164.077C648.836 164.486 648.485 164.422 648.174 164.486C648.071 164.509 647.996 164.589 647.904 164.635C647.847 164.664 647.783 164.687 647.714 164.704C647.622 164.727 647.513 164.716 647.432 164.767C647.369 164.808 647.335 164.917 647.179 164.67C647.145 164.618 647.116 164.647 647.128 164.716C647.162 164.98 647.099 164.974 647.035 164.986C646.874 165.02 646.708 165.032 646.558 165.084C646.443 165.124 646.345 165.205 646.253 165.302C646.109 165.458 645.983 165.659 645.833 165.803C645.712 165.924 645.569 165.987 645.436 166.085C645.407 166.108 645.39 166.171 645.356 166.188C645.298 166.223 645.252 166.303 645.166 166.234C645.068 166.16 645.011 166.16 645.022 166.401C645.028 166.533 644.97 166.539 644.919 166.533C644.855 166.528 644.769 166.459 644.683 166.395C644.585 166.321 644.487 166.234 644.47 166.424C644.464 166.528 644.389 166.493 644.326 166.447C644.044 166.246 643.86 166.338 643.693 166.476C643.463 166.666 643.25 166.896 643.026 167.091C642.94 167.166 642.836 167.212 642.738 167.264C642.439 167.425 642.094 167.471 641.749 167.506C641.68 167.511 641.611 167.511 641.565 167.58C641.461 167.741 641.306 167.764 641.139 167.736C640.938 167.701 640.794 167.851 640.662 168.006C640.627 168.041 640.61 168.11 640.564 168.104C640.247 168.069 640.046 168.386 639.758 168.432C639.523 168.466 639.258 168.415 638.999 168.38C638.798 168.351 638.591 168.294 638.384 168.253C638.372 168.253 638.366 168.276 638.349 168.271C638.228 168.23 638.084 167.92 637.964 167.414C637.854 166.965 637.831 166.689 637.923 166.666C638.021 166.643 638.13 166.648 638.24 166.643C638.24 166.614 638.234 166.597 638.228 166.574Z" fill="#F8AFB8"/>
<path d="M658.454 173.937C658.31 174.029 658.195 174.139 658.005 174.219C657.833 174.294 657.66 174.363 657.787 174.518C657.821 174.559 657.775 174.582 657.769 174.61C657.758 174.668 657.741 174.72 657.741 174.783C657.741 174.812 657.827 174.864 657.787 174.875C657.603 174.95 657.528 175.053 657.666 175.214C657.43 175.249 657.556 175.376 657.602 175.485C657.643 175.594 657.574 175.675 657.712 175.807C657.746 175.842 657.758 175.876 657.723 175.888C657.505 175.985 657.533 176.146 657.539 176.307C657.545 176.48 657.447 176.618 657.206 176.722C657.079 176.779 657.062 176.865 657.039 176.952C657.01 177.055 657.044 177.17 657.033 177.28C657.016 177.435 657.039 177.596 657.148 177.786C657.298 178.039 657.401 178.275 657.459 178.505C657.487 178.62 657.395 178.706 657.332 178.798C657.211 178.982 657.05 179.155 656.952 179.351C656.878 179.494 656.86 179.65 656.849 179.811C656.837 179.96 656.889 180.127 656.889 180.277C656.883 180.725 656.86 181.174 656.849 181.623C656.849 181.732 656.878 181.847 656.883 181.957C656.883 182.014 656.872 182.06 656.855 182.112C656.78 182.296 656.682 182.468 656.619 182.653C656.527 182.917 656.469 183.188 656.377 183.452C656.325 183.602 656.251 183.746 656.354 183.935C656.383 183.987 656.256 183.97 655.992 183.884C655.537 183.728 655.06 183.579 654.807 183.429C654.634 183.331 654.502 183.245 654.588 183.199C654.709 183.136 654.519 182.986 654.824 182.975C654.864 182.975 654.858 182.952 654.847 182.934C654.605 182.584 654.841 182.365 654.951 182.112C654.985 182.031 654.956 181.928 654.968 181.841C654.974 181.784 654.985 181.726 655.008 181.675C655.037 181.594 655.106 181.525 655.106 181.439C655.106 181.375 655.031 181.289 655.324 181.306C655.388 181.312 655.382 181.272 655.319 181.243C655.077 181.134 655.117 181.088 655.14 181.042C655.198 180.91 655.278 180.783 655.313 180.651C655.336 180.547 655.324 180.438 655.29 180.317C655.238 180.133 655.135 179.937 655.089 179.759C655.054 179.609 655.071 179.471 655.06 179.328C655.06 179.293 655.014 179.247 655.014 179.218C655.02 179.161 654.974 179.086 655.077 179.057C655.192 179.028 655.221 178.988 655.014 178.873C654.899 178.81 654.922 178.764 654.956 178.729C654.997 178.689 655.1 178.66 655.198 178.637C655.313 178.609 655.439 178.58 655.284 178.47C655.204 178.413 655.273 178.378 655.342 178.355C655.658 178.258 655.681 178.079 655.652 177.889C655.612 177.631 655.532 177.354 655.486 177.096C655.468 176.992 655.486 176.9 655.491 176.802C655.514 176.503 655.658 176.238 655.813 175.974C655.842 175.922 655.882 175.87 655.848 175.801C655.767 175.64 655.831 175.525 655.946 175.416C656.084 175.289 656.032 175.111 655.969 174.933C655.957 174.892 655.911 174.841 655.94 174.812C656.136 174.605 655.974 174.3 656.09 174.064C656.182 173.88 656.371 173.719 656.532 173.552C656.659 173.425 656.82 173.305 656.964 173.178C656.975 173.172 656.952 173.155 656.964 173.144C657.062 173.075 657.395 173.138 657.884 173.316C658.316 173.471 658.557 173.598 658.529 173.679C658.494 173.765 658.431 173.84 658.385 173.914C658.408 173.926 658.431 173.932 658.454 173.937Z" fill="#F8AFB8"/>
<path d="M671.8 184.781C671.881 184.631 671.927 184.487 672.053 184.326C672.168 184.182 672.283 184.039 672.099 183.969C672.053 183.952 672.082 183.912 672.07 183.883C672.053 183.831 672.042 183.774 672.013 183.722C672.001 183.699 671.898 183.699 671.927 183.665C672.053 183.515 672.07 183.388 671.869 183.319C672.059 183.176 671.886 183.13 671.794 183.061C671.708 182.992 671.731 182.888 671.541 182.842C671.489 182.83 671.466 182.807 671.495 182.779C671.639 182.589 671.535 182.468 671.455 182.336C671.369 182.198 671.386 182.025 671.547 181.824C671.633 181.714 671.604 181.634 671.581 181.548C671.553 181.45 671.466 181.364 671.426 181.272C671.363 181.133 671.271 181.007 671.081 180.903C670.828 180.765 670.621 180.61 670.46 180.449C670.379 180.368 670.419 180.248 670.425 180.144C670.442 179.931 670.5 179.707 670.488 179.494C670.483 179.339 670.425 179.195 670.356 179.051C670.293 178.919 670.166 178.804 670.097 178.677C669.884 178.292 669.689 177.906 669.476 177.521C669.424 177.429 669.344 177.343 669.286 177.256C669.257 177.21 669.246 177.164 669.24 177.112C669.217 176.923 669.217 176.727 669.183 176.543C669.131 176.278 669.05 176.019 669.004 175.749C668.975 175.599 668.975 175.438 668.786 175.329C668.734 175.3 668.855 175.254 669.125 175.203C669.597 175.11 670.086 175.013 670.379 175.013C670.58 175.013 670.736 175.024 670.678 175.099C670.598 175.214 670.839 175.249 670.58 175.404C670.546 175.427 670.563 175.438 670.58 175.45C670.96 175.628 670.857 175.927 670.885 176.192C670.897 176.278 670.966 176.353 671 176.434C671.023 176.485 671.041 176.543 671.046 176.595C671.058 176.675 671.029 176.767 671.075 176.842C671.11 176.9 671.213 176.934 670.949 177.055C670.891 177.084 670.914 177.107 670.983 177.101C671.248 177.078 671.231 177.135 671.236 177.187C671.248 177.325 671.242 177.469 671.276 177.601C671.305 177.699 671.369 177.785 671.455 177.872C671.587 177.998 671.771 178.113 671.898 178.246C672.001 178.355 672.053 178.482 672.128 178.597C672.145 178.625 672.208 178.637 672.22 178.666C672.243 178.717 672.324 178.758 672.243 178.832C672.157 178.913 672.151 178.965 672.387 178.959C672.519 178.959 672.519 179.005 672.508 179.051C672.49 179.109 672.416 179.178 672.346 179.247C672.26 179.327 672.162 179.413 672.352 179.431C672.45 179.442 672.41 179.5 672.358 179.551C672.128 179.787 672.191 179.948 672.312 180.098C672.473 180.299 672.674 180.489 672.841 180.69C672.904 180.771 672.939 180.857 672.979 180.944C673.106 181.208 673.106 181.502 673.1 181.801C673.1 181.858 673.089 181.922 673.152 181.962C673.296 182.06 673.301 182.186 673.255 182.33C673.198 182.503 673.33 182.629 673.468 182.75C673.503 182.779 673.566 182.802 673.555 182.836C673.485 183.107 673.773 183.285 673.785 183.538C673.796 183.739 673.71 183.964 673.647 184.188C673.595 184.361 673.514 184.539 673.451 184.712C673.445 184.723 673.474 184.729 673.463 184.74C673.411 184.844 673.089 184.953 672.577 185.039C672.122 185.114 671.852 185.126 671.84 185.051C671.829 184.965 671.846 184.873 671.852 184.781C671.846 184.769 671.823 184.775 671.8 184.781Z" fill="#F8AFB8"/>
<path d="M679.071 171.09C679.112 171.262 679.169 171.4 679.181 171.613C679.192 171.797 679.192 171.987 679.388 171.924C679.44 171.906 679.44 171.958 679.468 171.975C679.514 172.01 679.56 172.045 679.618 172.068C679.641 172.079 679.721 172.016 679.721 172.056C679.727 172.257 679.796 172.361 679.998 172.292C679.946 172.528 680.113 172.453 680.233 172.453C680.348 172.453 680.4 172.551 680.579 172.464C680.625 172.441 680.659 172.447 680.659 172.487C680.676 172.729 680.837 172.764 680.993 172.815C681.16 172.873 681.257 173.017 681.269 173.276C681.275 173.414 681.355 173.465 681.424 173.517C681.51 173.58 681.637 173.592 681.735 173.638C681.873 173.707 682.034 173.747 682.253 173.713C682.54 173.667 682.805 173.655 683.041 173.678C683.161 173.69 683.207 173.811 683.277 173.903C683.409 174.081 683.518 174.294 683.662 174.461C683.771 174.581 683.915 174.656 684.065 174.725C684.203 174.789 684.381 174.8 684.525 174.858C684.951 175.024 685.365 175.208 685.79 175.381C685.894 175.421 686.015 175.439 686.118 175.473C686.17 175.49 686.216 175.519 686.256 175.559C686.4 175.697 686.533 175.847 686.688 175.974C686.906 176.152 687.142 176.307 687.361 176.491C687.482 176.595 687.591 176.716 687.815 176.687C687.879 176.675 687.815 176.79 687.637 177.003C687.332 177.371 687.021 177.763 686.791 177.952C686.636 178.079 686.509 178.171 686.498 178.073C686.481 177.935 686.274 178.056 686.366 177.768C686.377 177.728 686.354 177.728 686.331 177.734C685.917 177.837 685.79 177.532 685.589 177.337C685.526 177.274 685.416 177.262 685.336 177.222C685.284 177.193 685.232 177.164 685.192 177.124C685.129 177.067 685.089 176.98 685.002 176.946C684.939 176.923 684.835 176.957 684.956 176.693C684.979 176.635 684.945 176.629 684.899 176.675C684.709 176.859 684.68 176.808 684.646 176.767C684.542 176.664 684.45 176.549 684.335 176.463C684.249 176.405 684.134 176.376 684.013 176.365C683.823 176.347 683.599 176.376 683.415 176.347C683.259 176.33 683.138 176.261 682.995 176.215C682.96 176.204 682.903 176.232 682.874 176.221C682.816 176.198 682.73 176.209 682.742 176.106C682.753 175.985 682.724 175.945 682.546 176.1C682.442 176.186 682.414 176.146 682.391 176.106C682.368 176.054 682.373 175.951 682.385 175.847C682.396 175.726 682.414 175.6 682.258 175.703C682.172 175.761 682.166 175.686 682.172 175.611C682.189 175.277 682.028 175.191 681.838 175.151C681.58 175.093 681.292 175.07 681.027 175.019C680.924 175.001 680.843 174.95 680.751 174.904C680.475 174.771 680.274 174.541 680.078 174.3C680.038 174.254 680.003 174.196 679.929 174.208C679.75 174.225 679.658 174.121 679.601 173.977C679.526 173.805 679.342 173.788 679.152 173.776C679.106 173.776 679.043 173.799 679.025 173.759C678.899 173.5 678.548 173.54 678.37 173.35C678.226 173.195 678.139 172.965 678.036 172.746C677.961 172.58 677.904 172.39 677.835 172.206C677.829 172.194 677.806 172.206 677.806 172.194C677.777 172.079 677.955 171.786 678.295 171.394C678.594 171.044 678.801 170.865 678.864 170.917C678.933 170.98 678.979 171.067 679.037 171.141C679.043 171.13 679.054 171.113 679.071 171.09Z" fill="#F8AFB8"/>
<path d="M694.431 164.117C694.356 163.973 694.27 163.864 694.212 163.68C694.161 163.513 694.109 163.341 693.965 163.467C693.93 163.502 693.913 163.456 693.884 163.45C693.838 163.439 693.787 163.421 693.735 163.421C693.712 163.421 693.66 163.508 693.649 163.467C693.597 163.283 693.51 163.214 693.361 163.352C693.349 163.116 693.223 163.249 693.125 163.289C693.027 163.329 692.964 163.26 692.837 163.398C692.803 163.433 692.774 163.444 692.763 163.41C692.688 163.197 692.544 163.22 692.406 163.231C692.256 163.237 692.136 163.145 692.061 162.909C692.021 162.783 691.946 162.765 691.871 162.748C691.785 162.725 691.675 162.76 691.583 162.748C691.451 162.737 691.301 162.754 691.135 162.869C690.905 163.019 690.686 163.122 690.485 163.185C690.381 163.214 690.312 163.122 690.237 163.065C690.082 162.944 689.938 162.788 689.777 162.696C689.656 162.627 689.518 162.604 689.374 162.599C689.242 162.593 689.092 162.645 688.96 162.645C688.563 162.645 688.172 162.627 687.775 162.622C687.677 162.622 687.574 162.65 687.476 162.656C687.43 162.656 687.384 162.645 687.344 162.627C687.188 162.553 687.039 162.461 686.878 162.403C686.648 162.317 686.412 162.259 686.187 162.173C686.061 162.121 685.94 162.046 685.762 162.156C685.71 162.184 685.739 162.058 685.831 161.799C685.992 161.35 686.153 160.879 686.297 160.62C686.395 160.447 686.475 160.315 686.51 160.401C686.556 160.522 686.699 160.332 686.694 160.631C686.694 160.672 686.711 160.666 686.728 160.654C687.05 160.407 687.229 160.643 687.441 160.752C687.511 160.787 687.603 160.758 687.683 160.769C687.735 160.775 687.781 160.787 687.827 160.81C687.896 160.838 687.953 160.907 688.028 160.907C688.086 160.907 688.166 160.833 688.132 161.12C688.126 161.178 688.155 161.172 688.184 161.114C688.299 160.873 688.333 160.913 688.373 160.936C688.488 160.994 688.592 161.068 688.707 161.103C688.793 161.126 688.897 161.114 689 161.08C689.162 161.028 689.34 160.925 689.501 160.879C689.633 160.838 689.754 160.861 689.881 160.844C689.909 160.838 689.95 160.798 689.978 160.798C690.03 160.798 690.099 160.758 690.116 160.856C690.139 160.971 690.168 160.999 690.283 160.792C690.347 160.677 690.387 160.7 690.41 160.735C690.444 160.775 690.462 160.873 690.479 160.971C690.502 161.086 690.513 161.207 690.623 161.057C690.68 160.976 690.703 161.04 690.72 161.114C690.79 161.425 690.945 161.448 691.112 161.419C691.342 161.379 691.589 161.299 691.819 161.247C691.911 161.23 691.992 161.247 692.078 161.253C692.343 161.276 692.567 161.414 692.791 161.563C692.837 161.592 692.878 161.632 692.941 161.598C693.085 161.517 693.188 161.58 693.275 161.69C693.378 161.822 693.539 161.77 693.7 161.707C693.741 161.695 693.787 161.649 693.81 161.678C693.982 161.868 694.258 161.707 694.454 161.816C694.615 161.908 694.742 162.087 694.88 162.253C694.983 162.38 695.081 162.535 695.185 162.673C695.19 162.685 695.207 162.662 695.213 162.673C695.265 162.765 695.19 163.099 695.006 163.588C694.845 164.02 694.719 164.261 694.649 164.232C694.58 164.198 694.517 164.14 694.448 164.089C694.442 164.071 694.437 164.094 694.431 164.117Z" fill="#F8AFB8"/>
<path d="M683.46 145.013C683.621 145.065 683.765 145.077 683.949 145.169C684.11 145.249 684.271 145.335 684.3 145.14C684.306 145.088 684.352 145.111 684.375 145.094C684.421 145.065 684.473 145.048 684.513 145.008C684.53 144.99 684.513 144.892 684.548 144.91C684.72 145.002 684.841 144.99 684.864 144.783C685.042 144.939 685.048 144.76 685.094 144.662C685.146 144.565 685.244 144.565 685.249 144.375C685.249 144.323 685.267 144.3 685.301 144.311C685.508 144.415 685.612 144.288 685.715 144.185C685.83 144.07 685.997 144.053 686.222 144.168C686.342 144.231 686.417 144.185 686.492 144.145C686.578 144.099 686.641 144.001 686.722 143.938C686.843 143.851 686.941 143.73 686.998 143.529C687.079 143.259 687.176 143.023 687.297 142.833C687.361 142.735 687.481 142.753 687.585 142.741C687.792 142.712 688.016 142.724 688.218 142.678C688.367 142.643 688.488 142.557 688.609 142.459C688.718 142.373 688.804 142.223 688.914 142.131C689.236 141.849 689.558 141.579 689.88 141.297C689.955 141.228 690.018 141.13 690.093 141.061C690.128 141.027 690.174 141.004 690.22 140.986C690.398 140.929 690.582 140.889 690.749 140.814C690.99 140.71 691.221 140.584 691.468 140.48C691.606 140.423 691.756 140.388 691.819 140.187C691.836 140.129 691.905 140.239 692.014 140.492C692.204 140.935 692.406 141.389 692.469 141.677C692.509 141.872 692.538 142.022 692.452 141.987C692.325 141.936 692.342 142.177 692.141 141.953C692.112 141.924 692.101 141.941 692.095 141.964C692.009 142.373 691.704 142.333 691.451 142.413C691.37 142.442 691.318 142.522 691.249 142.574C691.203 142.609 691.157 142.632 691.105 142.649C691.031 142.678 690.939 142.672 690.875 142.724C690.829 142.764 690.818 142.873 690.645 142.643C690.611 142.597 690.588 142.62 690.605 142.689C690.686 142.942 690.628 142.937 690.576 142.954C690.45 142.994 690.306 143.017 690.191 143.075C690.105 143.121 690.036 143.201 689.972 143.305C689.88 143.46 689.811 143.661 689.713 143.811C689.633 143.938 689.524 144.007 689.432 144.11C689.409 144.133 689.408 144.196 689.385 144.214C689.339 144.248 689.316 144.329 689.23 144.271C689.132 144.208 689.086 144.208 689.144 144.438C689.173 144.57 689.127 144.576 689.086 144.576C689.029 144.57 688.948 144.513 688.862 144.455C688.764 144.386 688.666 144.311 688.689 144.496C688.701 144.593 688.638 144.565 688.574 144.524C688.304 144.346 688.16 144.444 688.045 144.588C687.89 144.783 687.752 145.019 687.596 145.22C687.539 145.301 687.458 145.347 687.389 145.404C687.165 145.577 686.883 145.64 686.601 145.692C686.544 145.704 686.486 145.704 686.457 145.773C686.4 145.934 686.273 145.962 686.129 145.945C685.951 145.922 685.859 146.078 685.773 146.239C685.75 146.273 685.744 146.342 685.71 146.342C685.433 146.331 685.33 146.647 685.088 146.705C684.898 146.756 684.663 146.716 684.438 146.699C684.266 146.687 684.076 146.641 683.897 146.613C683.886 146.613 683.886 146.636 683.875 146.63C683.765 146.601 683.593 146.308 683.397 145.824C683.224 145.399 683.155 145.134 683.23 145.105C683.311 145.077 683.403 145.077 683.489 145.065C683.483 145.059 683.472 145.036 683.46 145.013Z" fill="#F8AFB8"/>
<path d="M675.625 129.907C675.476 129.964 675.361 130.039 675.171 130.079C674.998 130.114 674.826 130.148 674.935 130.298C674.964 130.338 674.918 130.35 674.912 130.373C674.895 130.419 674.878 130.465 674.872 130.517C674.872 130.54 674.952 130.597 674.912 130.603C674.728 130.637 674.647 130.712 674.768 130.873C674.532 130.862 674.653 130.994 674.688 131.098C674.722 131.195 674.647 131.253 674.774 131.391C674.809 131.426 674.814 131.454 674.78 131.466C674.561 131.518 674.573 131.661 674.567 131.794C674.561 131.943 674.458 132.047 674.216 132.099C674.089 132.127 674.067 132.196 674.038 132.271C674.003 132.352 674.032 132.461 674.015 132.553C673.992 132.685 673.997 132.823 674.095 133.002C674.222 133.238 674.308 133.462 674.354 133.669C674.377 133.773 674.279 133.83 674.21 133.899C674.078 134.037 673.911 134.164 673.802 134.308C673.721 134.417 673.687 134.549 673.67 134.687C673.652 134.814 673.687 134.963 673.675 135.096C673.641 135.481 673.589 135.861 673.549 136.246C673.537 136.338 673.56 136.442 673.554 136.54C673.554 136.586 673.537 136.632 673.514 136.666C673.428 136.81 673.324 136.948 673.25 137.092C673.146 137.305 673.066 137.529 672.962 137.742C672.899 137.863 672.818 137.972 672.91 138.156C672.933 138.208 672.812 138.168 672.559 138.053C672.128 137.851 671.673 137.644 671.432 137.477C671.271 137.362 671.15 137.27 671.236 137.247C671.363 137.213 671.184 137.052 671.484 137.092C671.524 137.098 671.518 137.08 671.507 137.057C671.294 136.718 671.541 136.568 671.662 136.373C671.702 136.31 671.685 136.217 671.696 136.143C671.708 136.091 671.725 136.045 671.748 136.005C671.783 135.941 671.858 135.895 671.863 135.821C671.869 135.763 671.806 135.682 672.082 135.746C672.139 135.757 672.139 135.729 672.076 135.694C671.846 135.562 671.892 135.527 671.915 135.493C671.978 135.389 672.065 135.297 672.111 135.182C672.139 135.101 672.139 134.998 672.111 134.894C672.07 134.728 671.984 134.543 671.955 134.382C671.932 134.25 671.961 134.135 671.955 134.008C671.955 133.98 671.915 133.934 671.915 133.905C671.921 133.853 671.881 133.784 671.984 133.773C672.099 133.761 672.134 133.732 671.932 133.606C671.823 133.531 671.852 133.496 671.886 133.473C671.932 133.445 672.03 133.439 672.128 133.433C672.243 133.427 672.364 133.422 672.226 133.307C672.151 133.243 672.22 133.226 672.289 133.22C672.605 133.186 672.64 133.036 672.623 132.869C672.605 132.639 672.542 132.392 672.513 132.162C672.502 132.07 672.525 131.995 672.542 131.909C672.588 131.656 672.743 131.449 672.91 131.247C672.945 131.207 672.985 131.172 672.956 131.109C672.887 130.96 672.956 130.868 673.077 130.799C673.221 130.712 673.181 130.551 673.135 130.384C673.123 130.344 673.083 130.298 673.112 130.275C673.319 130.125 673.181 129.838 673.307 129.66C673.411 129.516 673.601 129.406 673.773 129.291C673.905 129.199 674.072 129.125 674.216 129.038C674.228 129.032 674.21 129.015 674.222 129.009C674.32 128.969 674.642 129.073 675.113 129.303C675.528 129.504 675.752 129.654 675.723 129.717C675.683 129.786 675.62 129.838 675.568 129.901C675.579 129.89 675.602 129.895 675.625 129.907Z" fill="#F8AFB8"/>
<path d="M654.795 138.956C654.836 138.795 654.841 138.645 654.928 138.461C655.002 138.294 655.077 138.128 654.882 138.116C654.83 138.11 654.847 138.064 654.83 138.041C654.801 137.995 654.778 137.949 654.738 137.909C654.72 137.892 654.623 137.915 654.64 137.88C654.726 137.702 654.709 137.581 654.496 137.57C654.646 137.386 654.462 137.386 654.358 137.345C654.255 137.305 654.255 137.201 654.059 137.207C654.007 137.207 653.978 137.196 653.996 137.161C654.088 136.948 653.955 136.856 653.846 136.753C653.725 136.643 653.702 136.482 653.806 136.247C653.863 136.12 653.812 136.051 653.771 135.976C653.72 135.89 653.616 135.832 653.553 135.758C653.461 135.643 653.334 135.55 653.127 135.504C652.851 135.441 652.615 135.355 652.419 135.24C652.322 135.182 652.333 135.062 652.31 134.958C652.27 134.751 652.27 134.527 652.212 134.331C652.166 134.187 652.074 134.066 651.976 133.951C651.884 133.848 651.735 133.767 651.631 133.669C651.332 133.364 651.045 133.054 650.745 132.749C650.676 132.674 650.573 132.617 650.498 132.548C650.458 132.513 650.435 132.467 650.418 132.421C650.349 132.248 650.297 132.064 650.216 131.898C650.101 131.662 649.957 131.437 649.848 131.196C649.785 131.058 649.744 130.914 649.537 130.856C649.48 130.839 649.583 130.764 649.831 130.644C650.262 130.431 650.705 130.206 650.987 130.126C651.177 130.074 651.332 130.04 651.298 130.126C651.252 130.252 651.493 130.224 651.28 130.442C651.252 130.471 651.269 130.482 651.292 130.482C651.7 130.546 651.677 130.856 651.769 131.098C651.798 131.179 651.884 131.225 651.942 131.294C651.977 131.334 652.005 131.386 652.028 131.432C652.057 131.506 652.057 131.598 652.115 131.656C652.161 131.702 652.27 131.708 652.046 131.892C651.999 131.932 652.028 131.949 652.092 131.926C652.339 131.834 652.339 131.892 652.356 131.938C652.402 132.064 652.431 132.202 652.5 132.318C652.552 132.404 652.638 132.467 652.742 132.525C652.903 132.611 653.11 132.668 653.259 132.755C653.386 132.83 653.466 132.933 653.57 133.019C653.593 133.042 653.656 133.037 653.679 133.06C653.72 133.1 653.8 133.117 653.748 133.209C653.685 133.307 653.691 133.359 653.921 133.29C654.047 133.249 654.059 133.301 654.059 133.341C654.059 133.399 654.001 133.485 653.95 133.572C653.886 133.675 653.817 133.773 654.001 133.744C654.099 133.727 654.07 133.796 654.036 133.859C653.875 134.141 653.978 134.273 654.128 134.383C654.329 134.527 654.571 134.653 654.784 134.797C654.864 134.854 654.916 134.929 654.979 134.998C655.163 135.211 655.244 135.487 655.313 135.769C655.325 135.827 655.33 135.884 655.405 135.907C655.572 135.959 655.606 136.08 655.595 136.229C655.583 136.408 655.739 136.488 655.906 136.569C655.946 136.586 656.009 136.592 656.009 136.632C656.009 136.908 656.331 137 656.406 137.23C656.464 137.42 656.44 137.656 656.435 137.88C656.429 138.053 656.394 138.243 656.377 138.427C656.377 138.438 656.4 138.438 656.4 138.45C656.377 138.559 656.095 138.749 655.624 138.973C655.204 139.169 654.945 139.249 654.916 139.18C654.882 139.1 654.876 139.008 654.859 138.921C654.841 138.933 654.818 138.945 654.795 138.956Z" fill="#F8AFB8"/>
<path d="M634.84 146.314C634.932 146.463 635.03 146.573 635.11 146.768C635.179 146.941 635.242 147.113 635.398 146.992C635.438 146.964 635.461 147.004 635.49 147.016C635.547 147.027 635.599 147.05 635.657 147.05C635.685 147.05 635.737 146.964 635.749 147.004C635.818 147.194 635.915 147.269 636.082 147.136C636.105 147.372 636.243 147.246 636.347 147.211C636.456 147.171 636.531 147.246 636.669 147.108C636.704 147.073 636.738 147.062 636.75 147.102C636.842 147.32 637.003 147.303 637.164 147.297C637.336 147.297 637.474 147.401 637.566 147.643C637.618 147.769 637.705 147.792 637.791 147.815C637.894 147.844 638.009 147.815 638.113 147.827C638.268 147.844 638.429 147.832 638.619 147.723C638.872 147.579 639.114 147.481 639.344 147.43C639.459 147.401 639.54 147.499 639.632 147.562C639.81 147.689 639.983 147.85 640.167 147.953C640.305 148.028 640.466 148.057 640.627 148.068C640.776 148.08 640.943 148.034 641.093 148.039C641.542 148.057 641.984 148.091 642.433 148.108C642.542 148.114 642.657 148.085 642.767 148.085C642.824 148.085 642.87 148.097 642.922 148.12C643.1 148.201 643.273 148.298 643.457 148.367C643.716 148.465 643.986 148.528 644.245 148.626C644.395 148.684 644.533 148.764 644.728 148.661C644.78 148.632 644.757 148.759 644.665 149.017C644.498 149.466 644.337 149.938 644.182 150.191C644.078 150.364 643.992 150.49 643.946 150.404C643.889 150.277 643.733 150.467 643.727 150.162C643.727 150.122 643.704 150.128 643.687 150.139C643.336 150.375 643.123 150.128 642.876 150.013C642.796 149.972 642.692 150.001 642.606 149.99C642.548 149.984 642.491 149.967 642.439 149.944C642.358 149.909 642.295 149.84 642.209 149.84C642.145 149.84 642.059 149.909 642.088 149.621C642.094 149.558 642.059 149.564 642.025 149.627C641.904 149.863 641.864 149.823 641.818 149.8C641.691 149.742 641.565 149.656 641.432 149.621C641.334 149.593 641.219 149.604 641.104 149.633C640.92 149.679 640.725 149.777 640.546 149.817C640.397 149.852 640.259 149.829 640.115 149.834C640.08 149.834 640.034 149.88 640.006 149.88C639.948 149.875 639.873 149.921 639.844 149.817C639.816 149.702 639.775 149.667 639.66 149.875C639.591 149.99 639.551 149.961 639.517 149.932C639.476 149.892 639.453 149.788 639.43 149.69C639.402 149.57 639.379 149.449 639.269 149.598C639.206 149.679 639.177 149.61 639.16 149.541C639.074 149.224 638.895 149.196 638.705 149.219C638.447 149.253 638.17 149.322 637.912 149.363C637.808 149.38 637.716 149.357 637.618 149.351C637.319 149.322 637.06 149.173 636.801 149.012C636.75 148.983 636.704 148.943 636.635 148.971C636.473 149.046 636.358 148.983 636.255 148.868C636.134 148.73 635.956 148.776 635.772 148.833C635.731 148.845 635.68 148.891 635.651 148.862C635.449 148.661 635.139 148.816 634.915 148.695C634.73 148.597 634.575 148.408 634.414 148.241C634.288 148.109 634.172 147.947 634.057 147.804C634.052 147.792 634.034 147.815 634.023 147.804C633.96 147.706 634.029 147.372 634.218 146.889C634.385 146.458 634.518 146.222 634.592 146.25C634.673 146.285 634.748 146.348 634.828 146.4C634.828 146.36 634.834 146.337 634.84 146.314Z" fill="#F8AFB8"/>
<path d="M67.7372 136.632L73.3 139.025C73.4438 139.071 73.5301 139.221 73.4898 139.37C71.7468 145.784 69.1869 152.187 66.7766 159.119C62.2665 172.108 57.8658 184.465 52.7805 194.785C52.723 194.9 52.5964 194.963 52.4699 194.934C46.2283 193.646 40.0443 191.161 33.1699 189.274C26.2438 187.37 19.7319 185.327 13.6629 183.228C13.5134 183.176 13.4386 183.015 13.4904 182.865C13.6342 182.451 13.778 182.043 13.9218 181.629" fill="#F1D1D5"/>
<path d="M72.3922 137.736L72.8007 137.955C73.002 138.053 73.1861 138.156 73.3874 138.243C73.5658 138.323 73.7096 138.433 73.8361 138.542C73.9569 138.645 74.072 138.76 74.1238 138.939C74.1928 139.111 74.1065 139.272 74.0662 139.445L73.9282 139.945L73.7901 140.429C73.7441 140.59 73.6981 140.757 73.6463 140.86L73.3472 141.573C72.8755 142.649 72.3923 143.685 72.1737 144.864C72.1161 145.169 71.9781 145.474 71.8803 145.773L71.328 147.43C71.2475 147.683 71.2475 147.976 71.1382 148.195C70.5859 149.282 70.143 150.398 69.8956 151.594C69.3664 152.406 69.2053 153.332 68.9464 154.246C68.6876 155.161 68.3194 156.047 68.1641 156.985C68.1238 157.232 68.0433 157.508 67.934 157.732C67.2552 159.107 66.818 160.574 66.3578 162.041C65.863 163.612 65.259 165.148 64.5227 166.62C64.1258 167.403 63.8266 168.265 63.5275 169.111C63.1651 170.112 62.866 171.136 62.515 172.143C62.0088 173.604 61.5314 175.065 61.1344 176.555C60.6052 178.551 60.0069 180.541 59.3454 182.515C59.006 183.516 58.54 184.488 58.0971 185.46C57.2169 187.404 56.262 189.314 55.3416 191.241C55.0597 191.817 54.7836 192.398 54.5132 192.979L53.587 194.952C53.4777 195.176 53.3397 195.36 53.1901 195.51C53.0233 195.659 52.7817 195.757 52.5688 195.688L51.0559 195.487L49.9457 195.268C49.2093 195.113 48.4672 194.952 47.7367 194.768C43.405 193.663 39.1998 192.265 34.9774 191.132C33.9592 190.856 32.9468 190.637 31.9056 190.384C31.3878 190.258 30.8758 190.114 30.3638 189.964C28.4655 189.4 26.5844 188.802 24.6918 188.215C21.9881 187.376 19.2844 186.53 16.6037 185.615L15.2 185.132L13.2902 184.493C12.8932 184.189 12.3755 184.028 12.226 183.493C12.2087 183.435 12.1799 183.383 12.1857 183.326L12.2202 183.136L12.2892 182.762L12.4158 181.997C12.5366 181.226 12.7092 181.042 12.9105 181.393C13.0888 181.675 13.2729 181.893 13.4225 182.123C13.5721 182.348 13.6641 182.578 13.7446 182.825C13.7907 182.94 13.969 183.021 14.1358 183.009C14.2969 183.015 14.4349 183.027 14.5615 183.044C14.7226 183.073 14.8434 183.107 15.0159 183.193C15.8673 183.59 16.8683 183.694 17.6506 184.258C17.7599 184.338 17.944 184.384 18.0936 184.413C20.8088 184.965 23.386 185.96 26.0206 186.789C26.8835 187.059 27.7637 187.266 28.6323 187.502L30.3236 187.985C31.1405 188.227 31.9458 188.503 32.7685 188.704C33.3897 188.854 34.0167 188.94 34.5 189.372C34.6035 189.464 34.9257 189.544 35.0637 189.51C35.5757 189.383 36.0762 189.567 36.5824 189.728L40.6667 191.08C41.6734 191.402 42.6974 191.69 43.7214 191.949C45.3091 192.352 46.9083 192.685 48.496 193.03L50.4806 193.473L51.4758 193.68C51.5794 193.703 51.5794 193.698 51.6312 193.709L51.7462 193.726L51.9705 193.755C52.1431 193.807 52.1201 193.663 52.1489 193.594L52.1546 193.571L52.1834 193.479L52.3387 193.134C52.4538 192.887 52.5803 192.645 52.7299 192.438C53.0808 191.932 53.2937 191.512 53.3224 190.908C53.3397 190.568 53.5583 190.125 53.7424 189.763C53.984 189.297 54.2773 188.865 54.565 188.434C54.9044 187.916 55.2323 187.433 55.3358 186.76C55.3934 186.398 55.635 185.972 55.8478 185.627C56.7912 184.102 57.4528 182.434 58.0396 180.731C58.8392 178.43 59.5697 176.106 60.3061 173.782C60.5995 172.873 60.9158 171.97 61.2322 171.067C62.1987 168.248 63.2571 165.47 64.3156 162.685C64.5227 162.139 64.7413 161.587 64.8851 161.029C65.213 159.734 65.6732 158.492 66.191 157.255C66.818 155.771 67.2725 154.235 67.7154 152.705C67.819 152.348 67.8937 151.974 68.0376 151.64C69.0327 149.282 69.6713 146.808 70.5054 144.427L72.1851 139.761L72.1104 139.698L72.0644 139.658L72.0413 139.635C72.0356 139.629 72.0298 139.623 71.9781 139.6L71.5006 139.359L70.5457 138.87L68.6358 137.886C68.5438 137.84 68.4345 137.817 68.3424 137.765C67.5371 137.34 67.4105 136.914 68.0088 136.603C68.538 136.333 69.1938 136.321 69.9417 136.655C70.77 137.023 71.5811 137.414 72.398 137.794L72.3922 137.736Z" fill="#F8AFB8"/>
<path d="M69.1705 135.021C66.0583 143.765 62.8254 154.109 58.1485 164.009C54.2195 172.327 50.417 179.334 46.4017 186.254C46.3385 186.369 45.3835 186.116 45.257 186.081C32.2159 182.279 19.169 178.477 6.12788 174.674C5.96681 174.628 5.88055 174.455 5.94383 174.3C6.57086 172.718 7.19787 171.136 7.8249 169.554" fill="#F1D1D5"/>
<path d="M68.4637 139.549C67.946 140.694 67.457 141.867 66.8933 142.989C66.3928 143.99 65.8923 144.968 65.668 146.09C65.6104 146.377 65.4666 146.665 65.3688 146.953L64.8223 148.529C64.7418 148.77 64.7418 149.052 64.6325 149.259C64.086 150.289 63.6488 151.353 63.4015 152.498C62.878 153.263 62.7054 154.149 62.4408 155.024C62.1704 155.892 61.7907 156.732 61.6009 157.629C61.5491 157.865 61.4628 158.124 61.342 158.337C60.6115 159.62 60.088 160.989 59.5242 162.358C58.9087 163.819 58.1839 165.223 57.3152 166.546C56.855 167.254 56.4754 168.036 56.0957 168.807C55.6412 169.721 55.2443 170.659 54.7956 171.579C54.1455 172.908 53.5243 174.243 52.972 175.618C52.2357 177.453 51.4303 179.271 50.5674 181.065C50.1302 181.974 49.5665 182.843 49.0315 183.706L47.2597 186.553C46.9951 186.789 46.788 187.18 46.3796 187.134C46.0056 187.152 45.5972 187.042 45.2118 186.945L43.6758 186.456C42.2204 185.995 40.742 185.587 39.2636 185.19C37.883 184.822 36.4908 184.511 35.1102 184.149L22.84 180.904L19.8831 180.168C19.3942 180.042 18.8995 179.898 18.4162 179.754L13.0146 178.091L9.13156 176.947L7.18719 176.377L6.46811 176.164C6.16323 176.066 5.82956 175.997 5.55344 175.871C5.27731 175.744 5.08172 175.572 4.94366 175.399C4.78834 175.227 4.65029 174.904 4.63304 174.703C4.59277 174.45 4.59851 174.128 4.73082 173.783L5.13927 172.764L5.58223 171.643C5.85835 170.929 6.11145 170.21 6.31854 169.474C6.43359 169.06 6.60618 168.979 6.80177 169.232C7.14693 169.664 7.5266 170.055 7.52084 170.837C7.51509 171.372 7.48633 171.856 7.19294 172.402C7.08364 172.598 6.99737 172.811 6.91683 173.023L6.72123 173.553C6.66945 173.696 6.60616 173.84 6.52562 173.99C6.49111 174.065 6.41635 174.145 6.40484 174.237C6.38758 174.329 6.42209 174.421 6.46235 174.467C6.51413 174.525 6.66946 174.559 6.79601 174.577L7.1987 174.634C7.32526 174.651 7.43454 174.669 7.61287 174.709C7.93502 174.778 8.25716 174.847 8.5793 174.927C9.22359 175.083 9.85638 175.261 10.4892 175.451C11.7547 175.831 13.0088 176.251 14.2744 176.636C15.1027 176.889 15.9484 177.085 16.7825 177.309C17.3232 177.459 17.864 177.614 18.399 177.775C19.1813 178.011 19.9522 178.287 20.7345 178.488C21.327 178.644 21.9253 178.724 22.3797 179.15C22.4775 179.242 22.7882 179.317 22.9148 179.282C23.4037 179.15 23.8869 179.322 24.3702 179.472C25.6817 179.875 26.9818 180.3 28.2992 180.68C29.2714 180.962 30.2608 181.204 31.2445 181.428C32.7804 181.773 34.3164 182.066 35.8523 182.417C37.1352 182.711 38.4007 183.067 39.6778 183.39C39.9712 183.464 40.2761 183.493 40.5695 183.574C41.1102 183.717 41.6912 183.821 42.1687 184.057C42.6979 184.316 43.1293 184.465 43.7103 184.39C44.0382 184.35 44.4927 184.494 44.8609 184.626C45.0967 184.713 45.3326 184.81 45.5569 184.914C45.5799 184.96 45.626 185.017 45.695 185.075C45.7353 185.104 45.7928 185.161 45.8446 185.156C45.8791 185.144 45.9136 185.115 45.9481 185.075C45.9769 185.041 45.9999 185 46.0114 184.954C46.0056 184.948 46.0517 184.856 46.0689 184.793C46.0919 184.724 46.1149 184.655 46.138 184.58C46.2242 184.241 46.5061 183.861 46.7535 183.556C47.8407 182.222 48.6633 180.709 49.4227 179.167C50.4524 177.073 51.4246 174.956 52.3968 172.839C52.7764 172.011 53.1906 171.194 53.5875 170.371C54.8186 167.812 56.1359 165.286 57.4015 162.755C57.6489 162.255 57.9135 161.76 58.0861 161.236C58.4945 160.034 59.018 158.895 59.5817 157.756C60.2548 156.387 60.7322 154.943 61.1809 153.493C61.2845 153.154 61.3593 152.803 61.5031 152.487C62.4983 150.26 63.1023 147.89 63.9595 145.612C64.6555 143.766 65.4264 141.948 66.1799 140.119C66.761 138.709 67.3765 137.311 67.9805 135.908C68.0208 135.816 68.0323 135.706 68.0783 135.62C68.4407 134.826 68.8491 134.682 69.2001 135.24C69.5107 135.735 69.574 136.362 69.3036 137.098C69.0102 137.91 68.6881 138.709 68.3774 139.52L68.4637 139.549Z" fill="#F8AFB8"/>
<path d="M27.8327 119.426L69.7633 132.398C69.9358 132.45 70.0106 132.657 69.9186 132.812C64.8966 141.401 61.4968 148.574 59.2936 153.619C57.9129 156.778 57.3031 158.411 55.7442 161.897C52.1661 169.911 48.7491 176.152 46.3848 180.231C46.3272 180.334 46.2064 180.386 46.0856 180.357C37.566 178.603 30.7089 176.768 26.0206 175.404C16.0398 172.517 4.87409 168.3 1.62388 167.052C1.16943 166.873 1.00836 166.315 1.30174 165.924C4.08024 162.271 15.1942 146.722 19.129 140.325C21.9248 135.775 25.2843 129.033 27.4702 119.627C27.5105 119.472 27.6716 119.374 27.8327 119.426Z" fill="#F1D1D5"/>
<path d="M36.3639 121.203C38.6362 122.026 40.943 122.825 43.1807 123.688C45.1769 124.459 47.1327 125.218 49.267 125.707C49.8192 125.834 50.3887 126.047 50.9525 126.219C51.9764 126.53 53.0004 126.841 54.0186 127.151C54.4845 127.289 55.0023 127.347 55.4222 127.514C57.4989 128.325 59.5986 129.021 61.7788 129.51C63.3723 130.235 65.0521 130.586 66.7376 131.034C67.1517 131.149 67.5659 131.264 67.9801 131.379L69.4413 131.811C69.7289 131.897 69.9647 132.018 70.1718 132.139C70.3904 132.225 70.54 132.588 70.3847 132.795C70.1661 133.266 69.9532 133.75 69.7519 134.256C69.6944 134.388 69.6426 134.526 69.5851 134.664C69.5276 134.802 69.4758 134.889 69.4125 135.004C69.2974 135.222 69.1709 135.435 69.0444 135.625C67.4969 137.978 66.2198 140.48 64.9715 143.011C63.6312 145.726 62.262 148.413 60.8239 151.065C60.0588 152.474 59.3915 154.022 58.7472 155.535C57.9764 157.341 57.263 159.164 56.5037 160.977C55.3762 163.6 54.2602 166.2 53.1442 168.806C51.66 172.298 50.0205 175.761 48.2372 179.149C48.0014 179.592 47.8461 179.88 47.3859 180.679L47.0925 181.013L46.9487 181.18C46.8969 181.226 46.8336 181.26 46.7646 181.295C46.4827 181.427 46.2238 181.438 45.9017 181.404C45.7464 181.381 45.5853 181.341 45.4242 181.306L44.9985 181.214L44.452 181.093C43.7272 180.921 43.0024 180.748 42.2833 180.576C38.4636 179.667 34.6784 178.631 30.8932 177.578C28.0514 176.785 25.2039 175.997 22.3736 175.151C19.7332 174.363 17.0927 173.592 14.4695 172.741C12.3181 172.039 10.1781 171.314 8.04391 170.572L4.84547 169.444L3.252 168.869L1.30766 168.156C1.00277 167.954 0.617318 167.811 0.415977 167.534C0.191626 167.264 0.0420816 166.902 0.00756608 166.539C-0.0211968 166.171 0.0248014 165.832 0.272163 165.521L0.870454 164.566C0.985506 164.376 1.03726 164.313 1.10629 164.215L1.3019 163.939L1.69883 163.387L2.48693 162.282L5.60482 157.83C6.72082 156.225 7.79657 154.597 8.88956 152.98C9.43605 152.175 9.99979 151.37 10.5578 150.576C12.6402 147.619 14.7399 144.662 16.7073 141.654C19.5548 137.391 21.8329 132.835 23.6046 128.043C24.6171 125.334 25.4743 122.561 25.992 119.719C26.015 119.621 26.0322 119.529 26.0495 119.449C26.061 119.408 26.0725 119.368 26.0783 119.334C26.0668 119.374 26.1415 119.075 26.2336 118.908C26.642 118.172 27.3323 118.016 27.7062 118.039C28.1032 118.068 28.2413 118.195 28.1952 118.229C28.155 118.275 27.9191 118.241 27.5509 118.356C27.2403 118.465 27.0159 118.672 26.8836 118.908C26.8146 119.029 26.7743 119.155 26.7571 119.282C26.7456 119.339 26.7398 119.42 26.7513 119.454L26.7801 119.512C26.8606 119.673 26.9412 119.84 27.0102 120.035C27.1368 120.421 27.2288 120.916 27.1885 121.635C27.131 122.613 27.0332 123.516 26.6248 124.643C26.0207 126.265 25.6411 128.072 24.7609 129.562C24.6344 129.769 24.5193 130.102 24.433 130.373C23.6392 132.8 22.5979 135.147 21.3726 137.402C20.1588 139.663 18.7265 141.797 17.3056 143.914C16.3909 145.306 15.4705 146.699 14.5558 148.091C13.9518 148.988 13.342 149.88 12.7208 150.766C11.8176 152.049 10.8799 153.314 9.99405 154.603C9.32675 155.581 8.74 156.57 7.88862 157.272C7.71028 157.421 7.36511 157.933 7.29032 158.152C7.0142 158.986 6.42743 159.763 5.84642 160.551L3.49363 163.738L2.3086 165.325L1.8714 165.901C1.71033 166.073 1.6873 166.344 1.81961 166.534C1.93466 166.718 2.17051 166.752 2.3546 166.833L4.54061 167.621C5.31721 167.885 6.09956 168.15 6.87615 168.415C9.74094 169.358 12.6172 170.227 15.4993 171.107C17.9096 171.849 20.3142 172.62 22.736 173.322C23.294 173.483 23.8635 173.598 24.4215 173.759C25.4513 174.052 26.5442 174.311 27.4876 174.673C28.5346 175.076 29.3688 175.329 30.4272 175.375C31.0198 175.404 31.9057 175.651 32.619 175.864C33.5394 176.135 34.4425 176.463 35.3342 176.773C36.4042 177.153 37.4051 177.509 38.6304 177.619C39.2862 177.676 40.1548 177.941 40.8624 178.165C41.8634 178.487 42.8758 178.769 43.8998 179.028C44.4118 179.155 44.9295 179.281 45.4415 179.391L45.7866 179.471C45.9247 179.511 45.965 179.345 46.0283 179.258L46.7761 177.912L47.6102 176.347C49.6811 172.372 51.568 168.317 53.3513 164.215C54.0531 162.61 54.7607 161 55.4337 159.366C56.4979 156.829 57.5564 154.315 58.6954 151.79C59.8402 149.27 61.0597 146.791 62.3253 144.334C62.82 143.374 63.3493 142.401 63.7922 141.429C64.8277 139.18 66.0242 137.034 67.3071 134.929L68.1469 133.531C68.2045 133.427 68.3023 133.278 68.3253 133.209C68.3138 133.134 68.2102 133.151 68.1527 133.128L68.0549 133.111L68.0319 133.105L67.9168 133.071L67.6464 132.996L66.5765 132.697L64.4308 132.11C63.7692 131.932 63.0904 131.782 62.4576 131.564C57.9936 130.039 53.4318 128.877 48.9505 127.439C45.3264 126.277 41.7368 125.023 38.1414 123.786C35.3687 122.82 32.6075 121.853 29.8347 120.887C29.6506 120.823 29.4551 120.783 29.2767 120.72C27.7063 120.156 27.2978 119.673 28.2067 119.414C29.0121 119.184 30.1453 119.253 31.5835 119.707L36.3294 121.255L36.3639 121.203Z" fill="#F8AFB8"/>
<path d="M29.4029 141.28C29.3799 141.815 29.4374 142.345 29.4834 142.897C29.5237 143.38 29.6215 143.904 30.0472 144.203C30.1507 144.278 30.214 144.398 30.2945 144.502C30.4556 144.674 30.6167 144.841 30.8123 144.968C30.8928 145.037 31.0481 145.008 31.1057 145.089C31.2552 145.284 31.4508 145.445 31.6809 145.509C31.796 145.549 31.911 145.578 32.0261 145.601C32.1469 145.618 32.2734 145.583 32.3942 145.555C32.5668 145.687 32.7567 145.727 32.9465 145.675C33.1363 145.629 33.3204 145.595 33.4987 145.503C33.6771 145.422 33.8611 145.382 34.0395 145.313C34.2121 145.227 34.3846 145.129 34.5227 144.991C34.5975 144.922 34.6895 144.847 34.7931 144.83C35.1095 144.778 35.4028 144.657 35.6617 144.479C35.9321 144.324 36.1622 144.093 36.3981 143.886C36.887 143.415 37.4048 142.995 37.98 142.575C38.3022 142.362 38.4977 142.023 38.6876 141.695C38.8889 141.298 39.0154 140.866 39.0615 140.452C39.119 140.153 39.073 139.865 38.981 139.624C38.8717 139.382 38.6761 139.164 38.446 139.014C37.8304 138.6 37.0308 138.502 36.7029 138.726C36.5188 138.818 36.2485 138.899 35.9896 139.094C35.7422 139.29 35.5064 139.549 35.3511 139.831C35.1958 140.101 35.1325 140.429 35.1785 140.59C35.2015 140.665 35.2303 140.74 35.2821 140.797C35.3338 140.855 35.3913 140.907 35.5121 140.976C35.725 141.108 36.0241 141.223 36.3463 141.332C36.9388 141.539 37.6118 141.689 38.2561 141.948C39.2111 142.322 40.143 142.816 41.0116 143.403C41.8745 143.978 42.7259 144.721 43.4105 145.526C43.7384 145.9 44.0547 146.233 44.3193 146.481L44.6875 146.837C45.119 147.246 45.746 147.626 46.4075 147.844C47.3625 148.161 48.444 148.207 49.5427 148.115C50.164 148.063 50.8082 147.988 51.395 147.683C51.5561 147.603 51.6481 147.712 51.6481 147.994C51.6481 148.483 51.6711 148.989 51.4065 149.346C51.2224 149.587 51.0326 149.766 50.7392 149.754C50.3136 149.72 49.8936 150.001 49.4507 149.748C49.3874 149.714 49.3068 149.731 49.2378 149.754C48.0182 150.162 46.6894 149.863 45.5159 149.386C45.1305 149.231 44.7278 149.104 44.3539 148.897C44.1122 148.77 43.8764 148.615 43.6635 148.437C43.3471 148.178 43.0883 147.856 42.8237 147.574C42.6223 147.361 42.3807 147.194 42.4497 146.82C42.467 146.74 42.3635 146.636 42.2772 146.636C41.9493 146.642 41.8342 146.452 41.6962 146.279C41.328 145.814 40.9311 145.365 40.4594 144.985C40.1085 144.709 39.723 144.479 39.3203 144.283C38.6933 143.984 38.026 143.8 37.376 143.599C36.8122 143.42 36.2542 143.236 35.6962 143.058C35.5582 143.018 35.4028 143.012 35.2533 142.954C34.9944 142.857 34.6493 142.759 34.4134 142.494C34.2926 142.35 34.1488 142.195 34.005 142.063C33.8669 141.919 33.6886 141.815 33.4872 141.672C33.2341 141.516 33.1076 141.102 33.0788 140.751C33.0443 140.32 33.1823 139.969 33.3319 139.67C33.516 139.302 33.7403 139.066 33.7634 138.64C33.7806 138.41 33.9877 138.191 34.1833 138.053C34.609 137.743 35.0117 137.461 35.4719 137.225C35.9206 136.989 36.4671 136.799 37.0366 136.799C37.7959 136.788 38.4805 137.035 39.0845 137.415C39.677 137.8 40.2235 138.341 40.5399 139.158C40.6722 139.491 40.6722 139.819 40.701 140.159C40.6952 140.475 40.6434 140.763 40.5917 141.062C40.1372 142.753 39.1133 143.881 37.9915 144.813C37.7729 144.997 37.537 145.169 37.3415 145.376C37.1229 145.629 36.864 145.842 36.5764 146.009C36.3003 146.193 35.9896 146.325 35.6675 146.441C35.2935 146.596 34.8909 146.711 34.5169 146.883C34.1085 146.999 33.7231 147.188 33.2629 147.252C33.0558 147.286 32.843 147.372 32.6244 147.344C31.8708 147.24 31.0942 147.091 30.3866 146.734C29.6848 146.383 29.0923 145.883 28.6838 145.29C28.0223 144.329 27.7519 143.259 27.6196 142.247C27.5218 141.459 27.5621 140.676 27.6541 139.929C27.6599 139.877 27.6426 139.825 27.6484 139.779C27.7289 139.348 28.0741 139.244 28.586 139.451C29.0462 139.635 29.2994 139.871 29.3051 140.199C29.3051 140.561 29.3109 140.924 29.3396 141.286L29.4029 141.28Z" fill="#F8AFB8"/>
<path d="M24.1739 154.516C24.4673 154.637 24.7607 154.724 25.0368 154.902C25.2842 155.057 25.52 155.224 25.7961 155.08C25.8651 155.046 25.9342 155.086 26.0032 155.092C26.1298 155.103 26.2563 155.115 26.3886 155.115C26.4462 155.115 26.521 155.023 26.567 155.063C26.8143 155.247 27.0675 155.328 27.3551 155.19C27.5277 155.437 27.752 155.31 27.9706 155.276C28.1892 155.247 28.3906 155.322 28.6264 155.201C28.6897 155.167 28.753 155.161 28.8047 155.207C29.1039 155.448 29.4433 155.46 29.7884 155.494C30.1566 155.529 30.496 155.678 30.7894 155.972C30.9447 156.127 31.1345 156.185 31.3244 156.236C31.5487 156.306 31.7903 156.334 32.0262 156.392C32.3598 156.484 32.6935 156.582 33.0847 156.593C33.5966 156.622 34.1029 156.731 34.5746 156.904C34.8104 156.996 34.9772 157.197 35.1498 157.37C35.5007 157.715 35.7999 158.1 36.1335 158.428C36.3809 158.676 36.6628 158.877 36.9446 159.061C37.2092 159.228 37.5084 159.349 37.773 159.481C38.5611 159.901 39.332 160.183 40.1143 160.269C40.3041 160.292 40.4997 160.258 40.6896 160.263C40.7816 160.269 40.8794 160.275 40.9772 160.292C41.3339 160.355 41.6963 160.419 42.0587 160.424C42.5879 160.43 43.1114 160.35 43.6406 160.258C43.9398 160.206 44.2504 160.16 44.492 159.918C44.561 159.849 44.6243 159.964 44.6819 160.24C44.7739 160.712 44.8832 161.207 44.8027 161.523C44.7509 161.742 44.6819 161.914 44.5208 161.886C44.2907 161.84 44.1239 162.11 43.8592 161.863C43.8247 161.828 43.7845 161.851 43.7557 161.874C43.2035 162.311 42.5362 162.208 41.9149 162.173C41.7135 162.162 41.5064 162.208 41.2993 162.213C41.167 162.219 41.029 162.202 40.8967 162.185C40.7011 162.15 40.517 162.087 40.3214 162.07C40.1776 162.058 40.0108 162.121 39.9417 161.817C39.9302 161.753 39.8497 161.753 39.8094 161.817C39.6484 162.047 39.5333 161.978 39.4183 161.937C39.1019 161.834 38.8085 161.661 38.5036 161.54C38.2792 161.448 38.0491 161.362 37.796 161.31C37.4221 161.207 37.0137 161.132 36.6513 160.982C36.3406 160.862 36.0933 160.677 35.8114 160.528C35.7481 160.493 35.6618 160.493 35.5985 160.453C35.4892 160.378 35.3397 160.344 35.3052 160.194C35.2649 160.033 35.2016 159.953 34.96 160.05C34.822 160.108 34.7472 160.027 34.6954 159.953C34.6264 159.861 34.5976 159.723 34.5688 159.584C34.5343 159.423 34.5055 159.251 34.2927 159.308C34.1776 159.337 34.1316 159.234 34.1029 159.13C33.982 158.681 33.6599 158.486 33.309 158.353C33.0731 158.267 32.8315 158.187 32.5899 158.135C32.3541 158.072 32.1125 158.026 31.8766 157.991C31.6925 157.951 31.5257 157.887 31.3474 157.853C31.2093 157.818 31.077 157.778 30.9447 157.732C30.7951 157.686 30.6513 157.64 30.5075 157.583L29.6389 157.249C29.5238 157.203 29.4087 157.151 29.2822 157.174C28.983 157.232 28.7299 157.14 28.4711 157.007C28.1662 156.846 27.8211 156.887 27.4817 156.938C27.4011 156.95 27.3148 156.996 27.2458 156.967C26.7396 156.76 26.1931 156.933 25.6753 156.841C25.2554 156.766 24.8412 156.605 24.4155 156.478C24.0876 156.369 23.754 156.26 23.4203 156.156C23.3973 156.15 23.3743 156.173 23.3513 156.162C23.1614 156.093 23.0866 155.753 23.1729 155.23C23.2477 154.77 23.3743 154.499 23.5584 154.505C23.7597 154.516 23.9611 154.557 24.1624 154.585L24.1739 154.516Z" fill="#F8AFB8"/>
<path d="M32.3605 124.88C32.3951 124.552 32.4756 124.206 32.5964 123.884C32.7114 123.597 32.8323 123.332 32.6942 123.05C32.6539 122.975 32.6942 122.901 32.6942 122.826C32.6942 122.688 32.6999 122.55 32.6942 122.412C32.6942 122.348 32.5906 122.274 32.6366 122.216C32.8437 121.946 32.9301 121.681 32.8035 121.359C33.0509 121.186 32.9818 120.945 32.9761 120.703C32.9818 120.462 33.0796 120.254 33.0336 119.984C33.0163 119.909 33.0336 119.84 33.0854 119.794C33.2522 119.662 33.3442 119.501 33.4363 119.334C33.5341 119.173 33.6088 119 33.6894 118.828C33.7699 118.638 33.8907 118.471 34.0518 118.339C34.2071 118.201 34.3797 118.086 34.5868 118.005C34.8169 117.93 34.9607 117.781 35.116 117.631C35.2886 117.447 35.4612 117.263 35.6453 117.085C35.9156 116.832 36.2032 116.602 36.4449 116.268C36.6174 116.067 36.8073 115.859 37.0086 115.675C37.2215 115.509 37.4401 115.33 37.6817 115.192C37.9348 115.066 38.2167 115.031 38.5101 115.02C39.0738 114.962 39.7008 115.048 40.2243 115.135C40.6327 115.209 41.0354 115.25 41.4381 115.324C41.6279 115.347 41.8178 115.388 42.0134 115.417C42.2089 115.445 42.3988 115.48 42.5886 115.549C43.6931 115.905 44.7861 116.544 45.6145 117.551C45.7928 117.804 46.0344 118.028 46.1897 118.304C46.2703 118.442 46.3336 118.592 46.3853 118.736C46.5004 119.006 46.5349 119.3 46.5982 119.587C46.6672 119.869 46.673 120.157 46.696 120.433C46.765 121.238 46.6845 122.015 46.5234 122.751C46.4371 123.171 46.253 123.539 46.2876 123.994C46.2933 124.12 46.161 124.114 45.9136 123.976C45.4822 123.746 45.0277 123.528 44.8034 123.28C44.6538 123.108 44.5387 122.97 44.648 122.855C44.8149 122.682 44.648 122.435 44.9587 122.291C45.0047 122.268 44.999 122.228 44.9875 122.193C44.9357 122.032 44.9069 121.877 44.9069 121.727C44.8954 121.578 44.8839 121.434 44.8954 121.29C44.9012 121.146 44.9357 120.997 44.9414 120.853V120.416C44.9472 120.22 44.8379 120.047 44.7803 119.875C44.7343 119.76 44.7171 119.639 44.6768 119.53C44.6135 119.369 44.5905 119.184 44.5042 119.035C44.4295 118.92 44.2799 118.874 44.4582 118.615C44.4927 118.563 44.441 118.506 44.3719 118.523C44.1073 118.586 44.0728 118.488 44.0038 118.402L43.7506 118.04C43.6529 117.93 43.5493 117.821 43.44 117.723C43.2789 117.574 43.0546 117.493 42.8532 117.413C42.5081 117.321 42.1514 117.292 41.8178 117.252C41.5417 117.211 41.277 117.148 41.0124 117.125C40.9491 117.125 40.8801 117.165 40.8168 117.154C40.7075 117.142 40.581 117.171 40.4947 117.073C40.3969 116.958 40.3049 116.924 40.1726 117.137C40.0978 117.252 40.0172 117.246 39.9424 117.217C39.8504 117.183 39.7584 117.091 39.6663 116.998C39.5628 116.901 39.4477 116.797 39.3499 116.981C39.3039 117.073 39.2061 117.039 39.1198 116.987C38.7459 116.763 38.372 116.889 38.0671 117.091C37.8542 117.229 37.6529 117.372 37.4688 117.551C37.279 117.712 37.1064 117.89 36.9453 118.068C36.8073 118.201 36.6692 118.316 36.5427 118.442C36.117 118.816 35.7143 119.19 35.3001 119.581C35.2253 119.662 35.1505 119.748 35.1333 119.869C35.116 120.007 35.07 120.122 35.001 120.226C34.9492 120.335 34.8744 120.439 34.7824 120.531C34.5465 120.755 34.558 121.094 34.5753 121.405C34.5753 121.48 34.6098 121.555 34.5753 121.618C34.466 121.836 34.4602 122.084 34.4545 122.32C34.4487 122.561 34.5178 122.809 34.4775 123.044C34.466 123.142 34.443 123.24 34.42 123.338C34.4085 123.441 34.397 123.539 34.3797 123.643L34.2646 124.276C34.2301 124.615 34.1899 124.966 34.1553 125.311C34.1553 125.334 34.1783 125.351 34.1783 125.374C34.1438 125.576 33.8332 125.737 33.3097 125.777C32.8495 125.811 32.5561 125.731 32.5216 125.535C32.4871 125.317 32.4756 125.092 32.4583 124.874L32.3605 124.88Z" fill="#F8AFB8"/>
<path d="M46.3679 128.498C46.3909 128.36 46.4196 128.222 46.4426 128.078C46.4829 127.935 46.5289 127.797 46.598 127.658C46.7188 127.411 46.8453 127.181 46.667 126.962C46.621 126.905 46.644 126.836 46.6497 126.773C46.6497 126.658 46.6555 126.542 46.644 126.427C46.6383 126.376 46.5405 126.318 46.575 126.266C46.7533 126.03 46.7763 125.806 46.644 125.547C46.8914 125.386 46.7648 125.191 46.7245 124.989C46.6842 124.788 46.7648 124.61 46.6612 124.38C46.6325 124.316 46.6325 124.259 46.6785 124.213C46.9489 123.965 46.9604 123.649 47.0639 123.344C47.156 123.016 47.3516 122.717 47.714 122.556C47.8981 122.464 47.9844 122.309 48.0822 122.165C48.2145 122.004 48.295 121.797 48.4158 121.624C48.5826 121.359 48.7782 121.129 48.8933 120.784C48.9738 120.554 49.0946 120.364 49.2096 120.163C49.3304 119.962 49.4685 119.772 49.6296 119.605C49.7907 119.438 50.0208 119.357 50.2394 119.288C50.458 119.214 50.6823 119.15 50.9009 119.087C51.131 119.041 51.3496 118.995 51.5682 118.932C51.9019 118.863 52.2125 118.73 52.5519 118.644C52.7072 118.604 52.8625 118.535 53.0236 118.483C53.1904 118.437 53.363 118.397 53.5356 118.368C54.5365 118.241 55.5202 118.345 56.4982 118.615C56.7283 118.684 56.9814 118.725 57.2173 118.811C57.3323 118.857 57.4473 118.915 57.5509 118.978C57.9363 119.242 58.2987 119.536 58.6381 119.864C59.1271 120.324 59.5873 120.847 59.9095 121.469C60.0878 121.825 60.2086 122.188 60.4732 122.516C60.5537 122.608 60.4387 122.677 60.1626 122.717C59.6851 122.792 59.1904 122.895 58.874 122.861C58.6554 122.838 58.5058 122.815 58.5173 122.688C58.5346 122.498 58.2815 122.447 58.4425 122.171C58.4655 122.13 58.4368 122.107 58.408 122.096C57.8788 121.866 57.7292 121.423 57.3668 121.072C57.2517 120.962 57.0907 120.911 56.9526 120.83C56.8606 120.784 56.7743 120.727 56.688 120.669C56.5672 120.583 56.4522 120.473 56.3083 120.422C56.199 120.387 56.061 120.427 56.0782 120.123C56.084 120.059 56.0207 120.048 55.9747 120.1C55.7964 120.312 55.7273 120.255 55.641 120.215C55.4109 120.111 55.1808 119.99 54.9277 119.939C54.7436 119.892 54.548 119.91 54.3582 119.939C54.0648 120.002 53.7714 120.128 53.5241 120.232C53.4205 120.278 53.3228 120.307 53.225 120.33C53.1214 120.364 53.0179 120.404 52.9201 120.445C52.874 120.462 52.8395 120.525 52.7935 120.543C52.7072 120.571 52.6324 120.669 52.5231 120.6C52.4023 120.531 52.316 120.531 52.3045 120.778C52.2988 120.911 52.224 120.934 52.155 120.934C52.0687 120.939 51.9594 120.882 51.8501 120.83C51.7178 120.767 51.5797 120.704 51.5567 120.916C51.5452 121.026 51.4474 121.014 51.3611 120.985C50.9642 120.859 50.7111 121.072 50.4982 121.29C50.2278 121.624 50.0035 121.986 49.8252 122.349C49.7446 122.481 49.6526 122.602 49.5778 122.729C49.4513 122.924 49.2959 123.097 49.1751 123.287C49.0371 123.471 48.8702 123.643 48.7552 123.845C48.7034 123.919 48.6401 124 48.6517 124.098C48.6574 124.328 48.5999 124.518 48.4561 124.69C48.3755 124.799 48.3238 124.914 48.3238 125.047C48.3295 125.179 48.3583 125.311 48.3928 125.444C48.41 125.507 48.4503 125.57 48.4273 125.622C48.3122 125.806 48.3467 126.019 48.3755 126.226C48.41 126.433 48.433 126.629 48.4273 126.836C48.4273 127.17 48.3007 127.52 48.249 127.889C48.2202 128.17 48.1569 128.464 48.1167 128.769C48.1167 128.786 48.1397 128.803 48.1339 128.82C48.0936 128.993 47.7772 129.137 47.2595 129.194C46.7993 129.24 46.5174 129.189 46.4887 129.022C46.4599 128.838 46.4599 128.648 46.4484 128.464L46.3679 128.498Z" fill="#F8AFB8"/>
<path d="M57.5045 132.657C57.539 132.329 57.6196 131.984 57.7404 131.662C57.8554 131.374 57.9762 131.109 57.8324 130.828C57.7921 130.753 57.8324 130.678 57.8324 130.603C57.8324 130.465 57.8381 130.327 57.8324 130.189C57.8266 130.126 57.7289 130.051 57.7749 129.993C57.982 129.723 58.0682 129.458 57.9417 129.136C58.189 128.964 58.12 128.722 58.1143 128.481C58.12 128.239 58.2178 128.032 58.1718 127.761C58.1545 127.687 58.1718 127.618 58.2236 127.572C58.3904 127.439 58.4824 127.278 58.5745 127.111C58.6723 126.95 58.7471 126.778 58.8276 126.605C58.9081 126.415 59.0289 126.249 59.19 126.116C59.3453 125.978 59.5179 125.863 59.725 125.783C59.9551 125.708 60.0989 125.558 60.2542 125.409C60.4268 125.225 60.5994 125.04 60.7835 124.862C61.0538 124.609 61.3415 124.379 61.5831 124.045C61.7557 123.844 61.9455 123.637 62.1468 123.453C62.3597 123.286 62.5783 123.108 62.8199 122.97C63.073 122.843 63.3549 122.808 63.6483 122.797C64.212 122.739 64.839 122.826 65.3625 122.912C65.771 122.987 66.1736 123.027 66.5763 123.102C66.7662 123.125 66.956 123.165 67.1516 123.194C67.3472 123.223 67.537 123.257 67.7268 123.326C68.8313 123.683 69.9243 124.321 70.7527 125.328C70.931 125.581 71.1726 125.806 71.328 126.082C71.4085 126.22 71.4718 126.369 71.5236 126.513C71.6386 126.783 71.6731 127.077 71.7364 127.365C71.8054 127.646 71.8112 127.934 71.8342 128.21C71.9032 129.015 71.8227 129.792 71.6616 130.528C71.5753 130.948 71.3912 131.317 71.4257 131.771C71.4315 131.898 71.2992 131.892 71.0518 131.754C70.6204 131.524 70.166 131.305 69.9416 131.058C69.792 130.885 69.677 130.747 69.7863 130.632C69.9531 130.459 69.7863 130.212 70.0969 130.068C70.1429 130.045 70.1372 130.005 70.1257 129.97C70.0681 129.809 70.0451 129.654 70.0451 129.504C70.0336 129.355 70.0221 129.211 70.0336 129.067C70.0394 128.923 70.0739 128.774 70.0797 128.63V128.193C70.0854 127.997 69.9761 127.825 69.9186 127.652C69.8783 127.537 69.8553 127.416 69.815 127.307C69.7518 127.146 69.7287 126.962 69.6425 126.812C69.5677 126.697 69.4181 126.651 69.5964 126.392C69.6309 126.341 69.5792 126.283 69.5102 126.3C69.2455 126.364 69.211 126.266 69.142 126.179L68.8889 125.817C68.7911 125.708 68.6875 125.598 68.5782 125.501C68.4172 125.351 68.1928 125.271 67.9915 125.19C67.6463 125.098 67.2897 125.069 66.956 125.029C66.6799 124.989 66.4153 124.925 66.1506 124.902C66.0874 124.902 66.0183 124.943 65.955 124.931C65.8457 124.92 65.7192 124.948 65.6329 124.851C65.5351 124.736 65.4431 124.701 65.3107 124.914C65.236 125.029 65.1554 125.023 65.0807 124.994C64.9886 124.96 64.8966 124.868 64.8045 124.776C64.701 124.678 64.5859 124.574 64.4881 124.759C64.4421 124.851 64.3443 124.816 64.258 124.764C63.8841 124.54 63.5102 124.667 63.2053 124.868C62.9925 125.006 62.7911 125.15 62.6071 125.328C62.4172 125.489 62.2446 125.667 62.0836 125.846C61.9455 125.978 61.8074 126.093 61.6809 126.22C61.2552 126.594 60.8525 126.968 60.4383 127.359C60.3635 127.439 60.2888 127.526 60.2715 127.646C60.2543 127.784 60.2082 127.899 60.1392 128.003C60.0874 128.112 60.0126 128.216 59.9206 128.308C59.6847 128.532 59.6962 128.872 59.7135 129.182C59.7135 129.257 59.748 129.332 59.7135 129.395C59.6042 129.614 59.5984 129.861 59.5927 130.097C59.5869 130.339 59.656 130.586 59.6157 130.822C59.6042 130.92 59.5812 131.017 59.5582 131.115C59.5467 131.219 59.5352 131.317 59.5179 131.42L59.4029 132.053C59.3683 132.392 59.3281 132.743 59.2936 133.088C59.2936 133.111 59.3166 133.129 59.3166 133.152C59.282 133.353 58.9714 133.514 58.4479 133.554C57.9877 133.589 57.6943 133.508 57.6598 133.313C57.6253 133.094 57.6138 132.87 57.5965 132.651L57.5045 132.657Z" fill="#F8AFB8"/>
<path d="M70.707 142.166C70.172 143.323 69.6715 144.502 69.0962 145.629C68.5843 146.642 68.078 147.626 67.8479 148.759C67.7904 149.052 67.6466 149.34 67.543 149.633L66.9908 151.227C66.9103 151.468 66.9103 151.756 66.801 151.969C66.2545 153.016 65.8173 154.092 65.5757 155.248C65.0522 156.03 64.8853 156.922 64.6265 157.808C64.3619 158.688 63.9822 159.545 63.8039 160.454C63.7578 160.695 63.6715 160.96 63.5507 161.173C62.8317 162.485 62.3024 163.871 61.7559 165.257C61.1692 166.741 60.4789 168.18 59.6563 169.549C59.2133 170.279 58.8682 171.09 58.5115 171.878C58.0916 172.822 57.7291 173.788 57.3207 174.732C56.7224 176.107 56.1587 177.482 55.664 178.891C55.0024 180.778 54.2833 182.659 53.4952 184.505C53.0926 185.449 52.5691 186.346 52.0744 187.249L50.8836 189.389L50.2795 190.454L49.3706 192.128L47.4895 191.552C46.0111 191.098 44.5154 190.689 43.0255 190.298C41.6276 189.93 40.2183 189.625 38.8204 189.263L26.3948 186.036L23.3977 185.299C22.8972 185.173 22.4025 185.035 21.9135 184.885L16.4371 183.234L8.56755 180.956L8.00953 180.789L7.73342 180.709C7.60111 180.668 7.39978 180.599 7.2387 180.513C6.5714 180.185 6.05939 179.575 5.8408 178.874C5.7315 178.523 5.6855 178.149 5.72001 177.781C5.73727 177.597 5.77178 177.412 5.82356 177.234L5.91558 176.975L5.96737 176.837C6.10543 176.475 6.23197 176.112 6.34703 175.744C6.47933 175.33 6.65194 175.25 6.84177 175.508C7.16967 175.951 7.54358 176.354 7.51482 177.148C7.50906 177.412 7.46305 177.7 7.48606 177.861C7.50332 178.045 7.52631 178.218 7.57233 178.425C7.64711 178.741 7.91174 178.954 8.26265 179.029C8.71135 179.15 9.14856 179.294 9.53974 179.552C9.64904 179.627 9.82734 179.662 9.97691 179.685C12.6288 180.105 15.1542 181.008 17.7141 181.779C18.5483 182.032 19.4054 182.222 20.251 182.446C20.7975 182.596 21.344 182.745 21.8905 182.912C22.6786 183.148 23.461 183.418 24.2606 183.625C24.8646 183.781 25.4686 183.855 25.9288 184.287C26.0266 184.379 26.343 184.454 26.4696 184.419C26.9643 184.287 27.4475 184.459 27.9423 184.603C29.2711 185.006 30.5884 185.426 31.923 185.806C32.9067 186.087 33.9077 186.329 34.9086 186.548C36.4618 186.893 38.0208 187.18 39.574 187.531C40.8683 187.825 42.1569 188.176 43.4512 188.492C43.7503 188.567 44.0552 188.596 44.3544 188.676C44.9009 188.82 45.4876 188.923 45.9708 189.154C46.5116 189.412 46.943 189.562 47.5356 189.487C47.7024 189.464 47.898 189.493 48.0993 189.539L48.1856 189.562L48.1971 189.568C48.2028 189.573 48.2144 189.579 48.2259 189.591L48.3179 189.683C48.3582 189.694 48.4157 189.694 48.4847 189.666C48.5192 189.717 48.7551 189.372 48.8932 189.142C49.0427 188.889 49.1635 188.619 49.2326 188.291C49.3074 187.94 49.572 187.543 49.8021 187.226C50.826 185.817 51.5854 184.252 52.2814 182.659C53.2249 180.496 54.105 178.31 54.9852 176.124C55.3303 175.267 55.71 174.421 56.0781 173.57C57.2114 170.924 58.4367 168.318 59.6563 165.706C59.8979 165.194 60.1452 164.676 60.3178 164.141C60.7205 162.904 61.244 161.765 61.7962 160.603C62.4635 159.217 62.9237 157.744 63.3667 156.272C63.4702 155.927 63.545 155.57 63.6831 155.248C64.6668 152.981 65.2765 150.582 66.1509 148.27C66.8585 146.4 67.6466 144.565 68.429 142.719C69.0272 141.292 69.6658 139.883 70.2985 138.473C70.3388 138.381 70.3561 138.272 70.4021 138.18C70.776 137.38 71.1959 137.242 71.5353 137.812C71.8402 138.318 71.8862 138.951 71.6101 139.687C71.2995 140.504 70.9658 141.309 70.6494 142.12L70.707 142.166Z" fill="#F8AFB8"/>
<path d="M265.802 77.0884C265.589 76.6399 265.341 76.2128 265.169 75.743C265.012 75.3194 264.861 74.9019 264.462 74.6692C264.36 74.6081 264.313 74.492 264.236 74.4032C264.098 74.2378 263.966 74.0726 263.817 73.9182C263.751 73.847 263.613 73.8303 263.576 73.7374C263.421 73.291 263.176 72.9213 262.759 72.688C262.711 72.2801 262.372 72.1184 262.098 71.8906C261.825 71.6628 261.635 71.3581 261.29 71.1962C261.2 71.1527 261.116 71.0809 261.085 70.9939C260.87 70.4423 260.465 70.0493 260.072 69.6396C259.651 69.2002 259.314 68.6954 259.089 68.1035C258.969 67.7843 258.754 67.5301 258.545 67.2762C258.297 66.975 258.002 66.7121 257.737 66.4159C257.356 65.9896 256.951 65.5908 256.475 65.2523C255.836 64.7989 255.227 64.3123 254.66 63.793C254.371 63.5303 254.177 63.1797 253.953 62.8566C253.512 62.2105 253.106 61.5372 252.646 60.9019C252.302 60.4255 251.91 59.9815 251.518 59.549C251.148 59.1402 250.73 58.7753 250.354 58.3719C249.243 57.1798 248.137 55.9821 247.026 54.79C246.76 54.5053 246.465 54.2366 246.194 53.9574C246.056 53.8148 245.935 53.6672 245.814 53.5081C245.376 52.9309 244.955 52.3428 244.505 51.7708C243.862 50.9569 243.196 50.1593 242.554 49.3454C242.192 48.8797 241.847 48.4032 241.36 48.0471C241.22 47.9445 241.288 47.827 241.54 47.6994C241.981 47.4818 242.422 47.2356 242.818 47.2736C243.087 47.3011 243.316 47.3442 243.41 47.5766C243.547 47.9078 243.951 48.0491 243.939 48.4948C243.937 48.5576 243.993 48.6055 244.043 48.636C244.936 49.2193 245.443 50.1138 246.057 50.9266C246.254 51.1915 246.51 51.4186 246.731 51.6673C246.874 51.8272 247.012 51.9927 247.144 52.1636C247.336 52.4111 247.498 52.6861 247.714 52.9117C247.874 53.0837 248.094 53.2066 248.006 53.5464C247.986 53.6199 248.08 53.7036 248.156 53.6951C248.462 53.6611 248.565 53.8308 248.686 53.9842C249.004 54.4024 249.303 54.8429 249.639 55.2447C249.887 55.5458 250.164 55.8195 250.459 56.0825C250.916 56.4889 251.414 56.8569 251.864 57.2688C252.243 57.615 252.573 57.9937 252.934 58.3563C253.017 58.4396 253.13 58.4954 253.213 58.5787C253.357 58.7386 253.547 58.8717 253.608 59.0857C253.668 59.3225 253.766 59.4692 254.076 59.4868C254.249 59.4934 254.358 59.6463 254.434 59.775C254.531 59.9446 254.586 60.1469 254.636 60.349C254.696 60.5915 254.745 60.8222 255.035 60.9019C255.189 60.9421 255.263 61.1222 255.309 61.2727C255.507 61.9552 255.943 62.4523 256.42 62.9167C257.07 63.5479 257.749 64.1515 258.41 64.7774C258.666 65.0217 258.897 65.2936 259.134 65.5544C259.869 66.3718 260.508 67.2656 261.142 68.1649C261.267 68.3413 261.387 68.5289 261.56 68.6614C261.963 68.9685 262.247 69.3626 262.495 69.7953C262.792 70.3157 263.238 70.7046 263.689 71.0993C263.795 71.1892 263.924 71.2628 263.995 71.3798C264.487 72.1937 265.26 72.7724 265.818 73.5315C266.266 74.1435 266.638 74.8212 267.027 75.4824C267.33 75.9916 267.603 76.5225 267.888 77.0425C267.91 77.0776 267.949 77.0963 267.965 77.1312C268.121 77.4346 267.919 77.73 267.417 77.9338C266.972 78.1112 266.627 78.1094 266.44 77.8678C266.238 77.6027 266.058 77.3213 265.873 77.0454C265.838 77.0612 265.82 77.0776 265.802 77.0884Z" fill="#F8AFB8"/>
<path d="M230.747 55.051C238.005 55.2317 242.652 50.3823 243.911 48.9434C250.058 41.9095 247.864 33.0462 247.683 32.37C247.421 31.3934 245.397 24.2639 238.086 20.6495C236.227 19.7318 229.274 16.6916 222.533 20.3055C215.786 23.9191 214.575 31.3366 214.251 33.3374C213.829 35.9293 213.296 42.4691 217.826 48.1962C218.645 49.2284 223.098 54.861 230.747 55.051Z" fill="#F1D1D5"/>
<path d="M235.303 53.6306C236.562 53.3757 237.794 52.9196 239 52.4052C240.071 51.9487 241.112 51.3765 241.912 50.4692C242.122 50.2428 242.384 50.0354 242.622 49.8158C243.035 49.4027 243.454 48.9898 243.8 48.5226C243.958 48.3113 244.055 48.029 244.234 47.8586C245.119 47.0174 245.769 45.9556 246.148 44.8033C246.444 44.42 246.622 43.9807 246.789 43.541C246.938 43.0949 247.003 42.6169 247.118 42.1638C247.211 41.6984 247.303 41.2329 247.396 40.7618C247.454 40.2893 247.501 39.8164 247.485 39.3467C247.466 39.0943 247.471 38.8143 247.526 38.5705C247.825 37.072 247.724 35.5125 247.447 34.0148C247.3 33.197 247.145 32.4304 246.899 31.6546C246.669 30.8737 246.406 30.0914 246.136 29.309C245.84 28.4741 245.37 27.6725 244.858 26.9265C244.235 26.0447 243.53 25.2227 242.758 24.4782C241.655 23.3779 240.383 22.4598 238.992 21.806C237.136 20.9457 235.138 20.3773 233.147 20.0551C232.133 19.9076 231.117 19.6857 230.089 19.6235C228.045 19.488 225.958 19.7226 224.034 20.4897C222.59 21.0635 221.272 21.951 220.161 23.018C219.121 24.0191 218.298 25.2173 217.605 26.4776C216.566 28.3424 215.928 30.4284 215.553 32.5474C215.172 34.6948 215.113 36.8316 215.412 38.9364C215.552 39.9426 215.802 40.9302 216.128 41.8807C216.271 42.3609 216.466 42.8259 216.621 43.3008C217.291 45.0366 218.243 46.6402 219.466 48.0882C221.23 50.1233 223.457 51.7929 225.93 52.7683C227.324 53.3308 228.825 53.6914 230.324 53.6172C230.739 53.6045 230.878 53.7414 230.712 54.0039C230.418 54.4616 230.17 54.9382 229.338 55.1637C228.782 55.2568 228.237 55.3618 227.584 55.1252C227.113 54.9527 226.609 54.8762 226.132 54.7035C225.893 54.6257 225.649 54.5477 225.422 54.4418C225.202 54.3247 224.989 54.1907 224.793 54.0345C224.687 53.9447 224.494 53.8858 224.346 53.8287C221.567 52.8815 219.327 50.8053 217.572 48.5304C217.293 48.148 217.008 47.771 216.717 47.3939C216.45 47.0004 216.183 46.607 215.934 46.2028C215.644 45.6598 215.336 45.1219 215.111 44.547C214.925 44.1395 214.78 43.7165 214.647 43.2881C214.496 42.8705 214.392 42.4319 214.252 42.009C214.064 41.3669 213.829 40.7403 214.015 40.0954C214.055 39.9596 213.976 39.6191 213.899 39.5075C213.582 39.0722 213.546 38.5103 213.527 37.9548C213.452 36.4534 213.573 34.9538 213.791 33.4751C213.953 32.3889 214.133 31.2977 214.376 30.2146C214.751 28.536 215.287 26.8693 216.124 25.2999C216.825 23.9941 217.757 22.7945 218.829 21.7259C219.08 21.4839 219.303 21.2122 219.566 20.9763C219.821 20.7744 220.082 20.5728 220.337 20.3653C220.468 20.2673 220.598 20.1694 220.734 20.0831C220.875 20.0084 221.016 19.9394 221.156 19.8762C221.472 19.7453 221.742 19.6183 221.99 19.462C222.237 19.3113 222.479 19.1547 222.707 18.9118C222.839 18.7796 223.034 18.6555 223.245 18.5435C223.462 18.4374 223.712 18.3669 223.928 18.2951C224.208 18.2086 224.493 18.1337 224.783 18.0819C225.072 18.0472 225.361 18.0182 225.65 17.9836C225.991 17.9394 226.32 17.9291 226.655 17.8962C226.99 17.869 227.316 17.7671 227.671 17.6606C228.05 17.5436 228.604 17.519 229.044 17.5873C230.993 17.8164 232.896 18.038 234.778 18.499C236.05 18.8051 237.301 19.2019 238.524 19.7292C239.723 20.2898 240.926 20.9021 241.995 21.7094C242.858 22.3144 243.624 23.0473 244.355 23.8016C245.478 24.9942 246.429 26.3404 247.197 27.7711C247.953 29.2241 248.553 30.6942 248.933 32.3559C249.069 33.0017 249.143 33.6336 249.269 34.2504C249.56 35.6686 249.567 37.1273 249.386 38.5559C249.159 40.2745 248.944 41.9935 248.459 43.685C248.368 44.0819 248.238 44.4773 248.074 44.8485C247.802 45.5015 247.427 46.1049 247.115 46.7392C246.758 47.349 246.39 47.9526 245.999 48.5439C245.568 49.105 245.171 49.6961 244.702 50.2215C244.233 50.7526 243.731 51.2423 243.195 51.7023C241.469 53.1861 239.428 54.2976 237.282 55.0276C235.62 55.5931 233.866 55.8462 232.139 55.8429C232.024 55.8385 231.908 55.8627 231.793 55.8583C230.799 55.8031 230.524 55.4665 230.976 54.9462C231.374 54.4696 231.941 54.2454 232.733 54.1442C233.611 54.0749 234.481 53.9194 235.34 53.7121L235.303 53.6306Z" fill="#F8AFB8"/>
<path d="M231.947 37.5584C232.221 37.7519 232.483 37.9964 232.691 38.2732C232.8 38.4147 232.887 38.5666 232.961 38.7239C233.048 38.8759 233.099 39.038 233.139 39.1997C233.315 39.8528 233.245 40.4849 233.069 41.0273C232.737 42.0155 232.174 42.7488 231.663 43.6043C231.528 43.8279 231.297 43.9964 231.094 44.1774C230.714 44.4888 230.295 44.7702 229.827 44.9582C229.616 45.0416 229.391 45.2046 229.167 45.2131C228.049 45.2275 227.12 44.8488 226.149 44.497C225.59 43.9037 224.93 43.5524 224.334 43.032C223.744 42.5061 223.297 41.8541 222.755 41.2557C222.612 41.0958 222.488 40.8794 222.415 40.6707C222.037 39.4094 221.739 38.1683 221.738 36.8585C221.739 35.4688 222.184 34.0845 223.003 32.9949C223.439 32.4168 223.865 31.8097 224.358 31.2738C224.941 30.6384 225.58 30.0337 226.317 29.5643C227.397 28.8908 228.573 28.381 229.874 28.1048C231.599 27.7076 233.6 28.0702 235.193 29.1436C235.972 29.711 236.604 30.4788 237.069 31.2744C238.038 32.8672 238.519 34.6015 238.85 36.3185C238.964 36.9692 239.083 37.6143 239.113 38.3247C239.139 39.0006 239.131 39.6637 239.071 40.3306C238.972 41.5679 238.763 42.8182 238.325 44.0196C237.071 47.6034 233.862 50.529 230.055 51.4813C229.147 51.7268 228.214 51.8913 227.28 51.9356C226.812 51.9691 226.341 51.9396 225.876 51.9047C225.016 51.826 224.17 51.6677 223.333 51.4355C222.922 51.3225 222.473 51.1795 222.083 51.0044C221.686 50.8291 221.266 50.6872 220.889 50.4668C218.646 49.34 216.792 47.5475 215.519 45.474C214.804 44.2799 214.259 43.0522 213.704 41.7498C213.551 41.3779 213.64 41.1754 213.952 41.2789C214.488 41.4252 215.005 41.4565 215.476 41.9264C215.798 42.2418 216.069 42.521 216.212 43.0012C216.427 43.7015 216.976 44.2487 217.138 44.987C217.163 45.0909 217.25 45.2086 217.333 45.2976C218.086 46.07 218.824 46.8074 219.627 47.4902C220.418 48.1782 221.311 48.7557 222.273 49.1987C222.59 49.3252 222.913 49.4691 223.243 49.5561C223.574 49.6488 223.917 49.7135 224.254 49.7836C224.694 49.869 225.14 49.9376 225.587 49.9947C226.234 50.0767 226.894 50.142 227.54 50.0981C228.031 50.054 228.485 49.9284 228.973 50.1244C229.075 50.1626 229.335 50.1211 229.408 50.0267C229.692 49.6829 230.091 49.6468 230.47 49.5126C231.501 49.2032 232.519 48.7675 233.396 48.1147C233.738 47.899 234.014 47.6008 234.318 47.3379C234.605 47.0629 234.848 46.7347 235.107 46.4358C235.841 45.4402 236.322 44.309 236.671 43.1613C236.956 42.1999 237.178 41.2075 237.239 40.2033C237.248 39.9691 237.223 39.7393 237.226 39.5107C237.242 39.088 237.178 38.6452 237.251 38.2591C237.335 37.8562 237.286 37.4883 236.989 37.128C236.818 36.927 236.757 36.5644 236.705 36.2707C236.639 35.8964 236.631 35.5014 236.588 35.1223C236.554 34.6634 236.496 34.2208 236.142 33.8469C235.942 33.6563 235.857 33.3042 235.758 33.0316C235.386 31.7819 234.476 30.7347 233.363 30.1945C232.971 30.0422 232.598 29.8621 232.18 29.806C231.981 29.7584 231.781 29.705 231.574 29.7027C231.368 29.6777 231.161 29.6698 230.959 29.6792C230.135 29.6934 229.322 29.8796 228.561 30.2108C227.964 30.4625 227.383 30.7662 226.855 31.1521C225.198 32.3412 223.981 34.0504 223.587 36.0714C223.509 36.4631 223.453 36.867 223.507 37.258C223.634 38.1551 223.78 39.0015 224.065 39.836C224.401 40.8326 225.23 41.7165 226.098 42.3503C226.3 42.501 226.532 42.6071 226.71 42.7627C227.028 43.0208 227.377 43.2286 227.718 43.356C228.059 43.472 228.391 43.5134 228.674 43.4899C229.206 43.4245 229.784 43.0691 230.294 42.5224C230.714 42.0981 231.062 41.5567 231.273 41.01C231.484 40.4633 231.511 39.9266 231.356 39.6062C231.251 39.3448 230.945 39.0699 230.503 38.8871C230.061 38.7043 229.523 38.6151 228.97 38.6168C228.895 38.6197 228.825 38.6513 228.75 38.6485C228.128 38.6704 227.809 38.4294 228.015 37.8425C228.202 37.3292 228.7 36.9536 229.454 36.9596C230.277 36.9739 231.128 37.1438 231.91 37.6198L231.947 37.5584Z" fill="#F8AFB8"/>
<path d="M486.608 2.27094L496.239 30.0481C496.433 30.6581 496.136 31.3176 495.55 31.5806L469.831 43.0727C469.176 43.3643 468.405 43.0514 468.143 42.3825L457.418 13.8225C457.156 13.1584 457.498 12.4165 458.167 12.1737L484.979 1.46438C485.653 1.22162 486.39 1.58776 486.608 2.27094Z" fill="#F1D1D5"/>
<path d="M489.046 7.16802C489.448 8.62657 489.884 10.0903 490.242 11.5485C490.562 12.8506 490.873 14.1283 491.447 15.3741C491.595 15.6965 491.69 16.0672 491.813 16.4138L492.484 18.3028C492.589 18.5908 492.772 18.8649 492.838 19.138C493.162 20.4937 493.58 21.8161 494.178 23.0815C494.359 24.1684 494.833 25.1359 495.248 26.1468C495.659 27.1576 495.986 28.2213 496.475 29.1938C496.542 29.3209 496.604 29.4626 496.656 29.609L496.732 29.8238C496.761 29.9116 496.789 30.0287 496.798 30.1261C496.871 30.7545 496.598 31.3802 496.123 31.7463C496.005 31.8378 495.873 31.9146 495.741 31.9719L495.434 32.1008L494.828 32.3636C494.022 32.7221 493.226 33.105 492.424 33.483C490.709 34.2965 488.956 35.027 487.165 35.6355C486.208 35.9636 485.251 36.3938 484.313 36.8145C483.194 37.3165 482.095 37.8673 480.981 38.3791C479.364 39.1252 477.771 39.896 476.211 40.7351C475.17 41.2961 474.119 41.8521 473.063 42.4033L471.475 43.2178L470.678 43.6202L470.278 43.8214L470.165 43.874L469.989 43.9456C469.867 43.9884 469.745 44.0215 469.619 44.0399C469.102 44.1282 468.558 44.0119 468.117 43.726C467.895 43.583 467.701 43.3965 467.547 43.1763C467.47 43.0686 467.403 42.9512 467.351 42.834C467.327 42.7754 467.293 42.7021 467.279 42.6582L467.241 42.5508C467.041 41.97 466.842 41.3891 466.642 40.8132C465.838 38.4996 465.064 36.1814 464.235 33.8774C463.617 32.1445 462.949 30.4259 462.277 28.7121L460.339 23.9411L457.53 16.8415L456.829 15.0641L456.476 14.1754C456.266 13.6724 456.252 13.0298 456.466 12.501C456.669 11.9624 457.097 11.5035 457.619 11.2595L458.572 10.8584L460.33 10.1183L463.7 8.66597C464.262 8.42717 464.833 8.19819 465.399 7.97889L471.742 5.51886L480.8 1.92247C481.654 1.58383 482.513 1.24524 483.368 0.906597L484.003 0.64405L484.32 0.510344C484.437 0.46749 484.486 0.42408 484.745 0.343436C485.589 0.0777204 486.561 0.31436 487.198 0.952262C487.56 1.3105 487.669 1.65209 487.673 1.81273C487.676 1.97825 487.589 1.9824 487.419 1.86908C487.129 1.68177 486.828 1.59659 486.507 1.53558C486.186 1.48431 485.826 1.45219 485.441 1.56101C485.309 1.59888 485.197 1.65637 485.099 1.72372C485.001 1.79593 484.854 1.88722 484.722 1.96402C484.453 2.11759 484.155 2.25632 483.799 2.36537C482.765 2.68309 481.781 3.27864 480.704 3.44513C480.553 3.46824 480.353 3.55909 480.197 3.64057C477.352 5.07278 474.336 6.1191 471.367 7.27288C470.396 7.6495 469.443 8.07495 468.481 8.47599L466.601 9.22976C465.688 9.58739 464.761 9.91571 463.857 10.2929C463.178 10.5794 462.538 10.9198 461.832 10.9433C461.686 10.947 461.329 11.1047 461.222 11.206C460.814 11.6067 460.238 11.8113 459.667 12.0306L458.51 12.4738C458.295 12.5597 458.168 12.5927 458.06 12.6795C457.948 12.7662 457.859 12.8774 457.795 13.0034C457.736 13.1343 457.705 13.2752 457.714 13.4165C457.723 13.4895 457.727 13.5577 457.756 13.6261C457.775 13.6895 457.823 13.8116 457.851 13.8994L458.28 15.0613C458.709 16.2037 459.176 17.3367 459.649 18.4551C460.404 20.1891 461.154 21.9181 461.904 23.652C462.52 25.1075 463.087 26.5917 463.684 28.0567C463.822 28.3936 463.995 28.7163 464.129 29.058C464.377 29.6831 464.673 30.3279 464.824 30.9473C464.989 31.6349 465.164 32.1522 465.579 32.691C465.81 32.9946 466 33.5364 466.152 33.9854C466.342 34.5613 466.484 35.1465 466.62 35.7268C466.785 36.4242 466.93 37.0775 467.339 37.7379C467.555 38.095 467.711 38.6414 467.824 39.0949C468.074 40.0947 468.387 41.0804 468.734 42.0567C468.758 42.1348 468.768 42.1446 468.782 42.1739C468.797 42.1983 468.811 42.2277 468.825 42.2521C468.859 42.3011 468.902 42.3452 468.951 42.3797C469.048 42.4535 469.169 42.4934 469.291 42.4944C469.349 42.4949 469.408 42.4856 469.466 42.4666C469.5 42.4571 469.515 42.4475 469.559 42.4284L469.735 42.3471L470.433 42.0121C472.96 40.7671 475.481 39.5269 478.008 38.2868C479 37.8033 480.006 37.3442 481.012 36.8803C484.134 35.4357 487.294 34.0839 490.459 32.7468C491.079 32.4841 491.714 32.2215 492.301 31.9148C492.98 31.5553 493.674 31.2251 494.373 30.9144L495.154 30.5751C495.203 30.5463 495.252 30.4883 495.267 30.4154C495.272 30.396 495.268 30.3716 495.273 30.3522L495.173 30.035L494.955 29.3811C494.807 28.9467 494.65 28.5122 494.488 28.0826C494.169 27.2185 493.825 26.3689 493.482 25.5143C493.325 25.1188 493.138 24.723 493.015 24.3181C492.157 21.493 491.006 18.7775 490.079 15.986C489.333 13.7264 488.661 11.4432 487.978 9.16465C487.462 7.40341 486.946 5.64217 486.43 3.88094C486.397 3.76385 486.339 3.65144 486.306 3.53923C486.022 2.53429 486.186 2.12678 486.762 2.44782C487.271 2.73424 487.714 3.31216 488.014 4.20528C488.346 5.19115 488.655 6.18655 488.973 7.17717L489.046 7.16802Z" fill="#F8AFB8"/>
<path d="M483.04 7.75092L490.198 28.4215C490.411 29.0462 490.085 29.7249 489.46 29.9438L472.582 35.813C471.962 36.027 471.283 35.7051 471.064 35.0852L464.055 15.3698C463.84 14.7694 464.138 14.105 464.729 13.8616L481.459 7.04209C482.094 6.77468 482.817 7.10177 483.04 7.75092Z" fill="#F1D1D5"/>
<path d="M484.927 11.0666C485.176 12.0859 485.455 13.1005 485.666 14.1244C485.853 15.036 486.031 15.933 486.467 16.7786C486.582 16.9985 486.638 17.257 486.719 17.4961C486.871 17.9305 487.023 18.3698 487.185 18.7994C487.262 18.9947 487.411 19.1809 487.449 19.371C487.636 20.3216 487.91 21.2389 488.366 22.0992C488.437 22.8688 488.802 23.524 489.103 24.2176C489.404 24.9111 489.617 25.6478 489.996 26.3031C490.097 26.4791 490.183 26.6891 490.225 26.8841C490.286 27.1864 490.361 27.479 490.447 27.7718L490.579 28.2109C490.627 28.3524 490.693 28.5963 490.687 28.7909C490.693 29.2047 490.544 29.6221 490.264 29.9313C490.126 30.0859 489.955 30.2208 489.764 30.3117L489.618 30.3738L489.505 30.4167L489.291 30.4977C488.065 30.9696 486.811 31.3537 485.524 31.6158C484.837 31.7563 484.153 31.999 483.48 32.2368C482.679 32.5175 481.898 32.847 481.102 33.1375C479.945 33.5613 478.812 34.0145 477.703 34.536C476.218 35.2394 474.713 35.9086 473.19 36.5436L472.897 36.658C472.745 36.7152 472.55 36.7672 472.37 36.7803C472 36.8162 471.626 36.7451 471.291 36.5866C470.961 36.4233 470.671 36.1727 470.469 35.8645C470.364 35.7127 470.292 35.5418 470.23 35.3709L470.13 35.0635C469.618 33.4532 469.139 31.8285 468.607 30.2229C468.208 29.0175 467.765 27.8214 467.313 26.635C466.893 25.5268 466.42 24.4376 465.991 23.3292L463.064 15.7078C462.802 15.0146 462.916 14.1881 463.369 13.5882C463.59 13.2883 463.894 13.0425 464.236 12.8846L464.822 12.6266L467.133 11.5794C467.519 11.4073 467.909 11.245 468.305 11.0925L472.685 9.38066L478.93 6.85657C479.521 6.62287 480.117 6.38921 480.703 6.14087L480.923 6.04531L481.035 5.99756L481.25 5.92142C481.542 5.83132 481.859 5.79981 482.166 5.82663C482.783 5.88032 483.375 6.18201 483.794 6.66727C484.03 6.94175 484.097 7.18077 484.091 7.29754C484.08 7.41913 483.997 7.43306 483.842 7.36366C483.58 7.25446 483.317 7.21825 483.055 7.18692C482.792 7.16046 482.525 7.14369 482.237 7.17056C482.043 7.18845 481.886 7.25532 481.749 7.32235C481.671 7.36552 481.642 7.38475 481.525 7.44221C481.422 7.49005 481.31 7.53294 481.183 7.56599C480.461 7.76455 479.805 8.23621 479.035 8.28837C478.928 8.29724 478.791 8.36427 478.684 8.4218C476.757 9.50616 474.664 10.1998 472.613 11.0008C471.944 11.2631 471.294 11.5742 470.63 11.856C470.2 12.0375 469.771 12.2189 469.336 12.3857C468.706 12.6337 468.062 12.8524 467.441 13.1248C466.973 13.3303 466.547 13.5897 466.027 13.5416C465.92 13.531 465.675 13.6459 465.611 13.733C465.483 13.9023 465.322 14.0226 465.141 14.1185C465.053 14.1665 464.946 14.2094 464.867 14.2477C464.809 14.2764 464.745 14.3051 464.691 14.3485C464.427 14.5362 464.302 14.9099 464.412 15.2272C464.611 15.8275 464.816 16.4375 465.03 17.0379C465.315 17.8336 465.63 18.6149 465.96 19.3866C466.476 20.5881 467.031 21.7704 467.542 22.9719C467.967 23.978 468.348 25.0081 468.753 26.0237C468.849 26.2581 468.973 26.4782 469.064 26.7174C469.231 27.1519 469.441 27.5917 469.516 28.0303C469.599 28.5177 469.708 28.8788 470.041 29.2319C470.23 29.433 470.353 29.8136 470.443 30.1258C470.561 30.5259 470.626 30.945 470.696 31.3544C470.775 31.8467 470.839 32.3096 471.157 32.755C471.325 32.9949 471.414 33.3801 471.47 33.7018C471.535 34.0528 471.61 34.4038 471.7 34.7501L471.724 34.8428C471.728 34.8623 471.733 34.8769 471.738 34.8964C471.747 34.9306 471.767 34.9648 471.791 34.9991C471.834 35.0627 471.897 35.1119 471.965 35.1465C472.037 35.1812 472.115 35.2013 472.198 35.1922C472.29 35.1832 472.31 35.1737 472.52 35.0975L473.521 34.7113L478.922 32.5017C479.63 32.2154 480.347 31.9584 481.065 31.6916C483.291 30.8677 485.555 30.1413 487.815 29.4247C488.249 29.2871 488.742 29.1402 489.103 28.9631C489.158 28.8856 489.153 28.8272 489.154 28.7834C489.182 28.8615 489.054 28.4662 488.988 28.2418L488.77 27.4759C488.429 26.2417 487.938 25.0696 487.441 23.9023C487.326 23.6288 487.182 23.3648 487.102 23.0819C486.544 21.1207 485.687 19.2643 485.065 17.3318C484.562 15.7654 484.132 14.1752 483.688 12.5946L482.7 8.91677C482.676 8.83383 482.633 8.76047 482.61 8.67754C482.435 7.97525 482.633 7.66535 483.157 7.84482C483.623 8.00435 483.994 8.37727 484.199 8.99706C484.427 9.68031 484.63 10.3682 484.844 11.0562L484.927 11.0666Z" fill="#F8AFB8"/>
<path d="M476.275 17.9183C476.361 18.0942 476.467 18.2508 476.529 18.4606C476.586 18.646 476.633 18.8362 476.842 18.8136C476.896 18.8092 476.915 18.858 476.949 18.8826C477.012 18.922 477.075 18.9712 477.143 19.001C477.176 19.0158 477.25 18.9678 477.259 19.0117C477.311 19.2116 477.422 19.3342 477.637 19.3019C477.63 19.5257 477.81 19.4834 477.942 19.5088C478.078 19.5342 478.159 19.6371 478.34 19.5899C478.384 19.5756 478.432 19.5906 478.461 19.6395C478.595 19.9229 478.838 20.0174 479.114 20.1607C479.41 20.3092 479.627 20.5251 479.552 20.7143C479.522 20.8114 479.624 20.8852 479.711 20.9638C479.808 21.0619 479.987 21.1218 480.059 21.2538C480.107 21.3564 480.101 21.4877 480.066 21.5799C480.031 21.6673 479.997 21.7059 480.001 21.7838C480 21.9785 479.978 22.285 479.626 22.5109C479.449 22.6214 479.152 22.6579 478.908 22.7095C478.66 22.761 478.416 22.8028 478.192 22.84L478.021 22.8678L477.914 22.8766C477.841 22.8858 477.773 22.895 477.705 22.909C477.495 22.9462 477.305 23.0323 477.114 23.1232C476.938 23.2094 476.776 23.3444 476.6 23.4354L475.036 24.2356C474.909 24.3027 474.797 24.3894 474.67 24.4614C474.606 24.4949 474.543 24.5187 474.474 24.5376C474.221 24.5989 473.967 24.6455 473.718 24.7165L472.66 25.0486C472.46 25.1054 472.25 25.1426 472.093 25.3311C472.048 25.3843 471.996 25.2865 471.944 25.0574C471.855 24.6624 471.746 24.2527 471.768 23.99C471.779 23.8149 471.799 23.6739 471.901 23.704C472.047 23.7489 472.107 23.5304 472.3 23.7218C472.329 23.7512 472.349 23.7319 472.364 23.7077C472.62 23.3301 473.009 23.3576 473.365 23.2729C473.482 23.2447 473.58 23.1676 473.687 23.1198C473.756 23.0863 473.829 23.0625 473.907 23.0437C474.015 23.0154 474.136 23.0163 474.234 22.9636C474.307 22.9252 474.362 22.8235 474.511 23.0291C474.54 23.0732 474.579 23.0443 474.574 22.9858C474.562 22.757 474.635 22.7576 474.703 22.7435C474.888 22.7012 475.078 22.6784 475.254 22.6166C475.386 22.569 475.508 22.4921 475.621 22.4005C475.797 22.2559 475.959 22.0674 476.14 21.9277C476.292 21.8122 476.458 21.7405 476.615 21.6444C476.649 21.6204 476.674 21.5622 476.713 21.5479C476.782 21.5144 476.841 21.437 476.933 21.4864C477.034 21.5408 477.098 21.5413 477.109 21.3321C477.115 21.2153 477.178 21.2061 477.237 21.2066C477.31 21.2071 477.397 21.2565 477.484 21.3059C477.552 21.3795 477.609 21.4578 477.572 21.3164C477.543 21.2431 477.577 21.2823 477.625 21.3217C477.843 21.4986 477.989 21.4317 477.995 21.3587C478.02 21.2567 477.914 21.1634 477.768 21.1038C477.71 21.0741 477.695 21.0545 477.657 21.0445C477.54 21.0192 477.628 21.0102 477.643 20.9422C477.648 20.9276 477.653 20.9082 477.604 20.9272C477.487 20.9652 477.511 20.9557 477.531 20.8829C477.531 20.8731 477.541 20.8683 477.532 20.8537C477.512 20.834 477.493 20.8144 477.473 20.7996C477.43 20.7701 477.386 20.7405 477.338 20.7207C477.241 20.6809 477.129 20.6557 477.017 20.6305C476.964 20.6203 476.901 20.6295 476.867 20.5903C476.655 20.3063 476.266 20.2788 476.015 20.0529C475.812 19.8711 475.653 19.6216 475.489 19.3867C475.36 19.2055 475.249 19.0002 475.129 18.8094C475.12 18.7947 475.1 18.8043 475.09 18.7896C475.028 18.6723 475.162 18.4106 475.456 18.082C475.717 17.7921 475.912 17.6476 475.995 17.7165C476.086 17.7902 476.164 17.8882 476.251 17.9716L476.275 17.9183Z" fill="#F8AFB8"/>
<path d="M496.577 31.1221L485.753 1.01839L505.381 10.2111C505.876 10.4633 506.252 10.8898 506.437 11.4121L515.257 37.8004C515.48 38.435 515.212 39.1385 514.62 39.4598L488.754 51.1114C488.27 51.3751 487.686 51.3947 487.187 51.1619L469.101 43.8313C468.917 43.7471 468.919 43.4794 469.105 43.3982L496.489 31.1603C496.543 31.1364 496.606 31.132 496.665 31.152L514.048 39.2654" fill="#F1D1D5"/>
<path d="M493.204 23.8085C492.54 21.6762 491.842 19.5338 491.222 17.4067C490.668 15.5089 490.133 13.6453 489.325 11.7941C489.115 11.3154 488.954 10.7787 488.768 10.2661C488.43 9.33863 488.092 8.41112 487.754 7.48362C487.597 7.06377 487.357 6.64325 487.243 6.24322L486.855 4.94053L486.651 4.2964L486.423 3.61315C486.066 2.58329 485.699 1.59714 485.236 0.449604L486.003 0.757584C486.521 1.05382 486.977 1.296 487.418 1.51374L488.072 1.83054L488.688 2.11297C489.416 2.43524 490.163 2.72846 490.905 3.04597C492.389 3.67614 493.858 4.4084 495.362 4.95599C495.76 5.10037 496.207 5.2938 496.585 5.49642C498.872 6.7415 501.253 7.79265 503.644 8.86822L505.554 9.74521C505.937 9.9284 506.281 10.2135 506.531 10.5611C506.656 10.7324 506.757 10.9231 506.838 11.1233C506.919 11.3381 506.952 11.4698 507.009 11.6503C507.426 12.9873 507.815 14.3289 508.173 15.6801C508.556 17.119 509.055 18.5881 509.535 20.0326C510.11 21.7505 510.734 23.4542 511.323 25.1674C512.179 27.6566 513.055 30.1168 514.009 32.5483C514.638 34.1791 515.267 35.8147 515.896 37.4552C515.925 37.5382 515.997 37.7042 516.024 37.8699C516.057 38.0357 516.075 38.2062 516.069 38.3716C516.061 38.7122 515.961 39.0473 515.798 39.3477C515.625 39.6481 515.395 39.9042 515.086 40.0964C515.018 40.1445 514.915 40.1923 514.862 40.2211L514.715 40.2929L514.417 40.4365L512.047 41.5951C510.434 42.3754 508.75 43.0723 507.089 43.789C503.768 45.2173 500.446 46.6408 497.125 48.0691C494.634 49.1586 492.157 50.2969 489.69 51.4353L488.791 51.8563C488.376 52.0184 487.918 52.0683 487.476 51.9917C487.262 51.9607 487.019 51.8712 486.864 51.8066L486.418 51.6375L485.53 51.2994L481.978 49.937L471.479 45.8267L469.616 45.0863C469.237 44.9275 468.766 44.7874 468.534 44.5762C468.293 44.3747 468.168 44.179 468.081 44.0274C468.057 43.9834 468.033 43.9492 468.019 43.9053C468 43.8564 467.981 43.7833 467.972 43.7053C467.954 43.5494 467.985 43.3696 468.019 43.3066C468.093 43.1514 468.173 42.9671 468.364 42.7545C468.467 42.6483 468.58 42.5421 468.761 42.4462C468.937 42.3503 469.147 42.2644 469.338 42.1735L470.52 41.638L475.757 39.2225C477.394 38.4522 479.03 37.6867 480.667 36.9212C481.483 36.5385 482.314 36.1704 483.139 35.8072L492.351 31.7692L496.02 30.1392C496.41 29.9672 496.819 29.9753 497.207 30.1634L497.983 30.525L499.185 31.0848L501.586 32.2042L506.381 34.4528C508.844 35.6117 511.297 36.7949 513.805 37.8179C514.509 38.1059 514.687 38.3069 514.331 38.4013C513.717 38.5618 513.184 38.7765 511.897 38.4449C511.028 38.2188 510.227 37.9835 509.257 37.4646C507.852 36.7134 506.25 36.1747 504.938 35.288C504.754 35.1648 504.459 35.0359 504.216 34.9415C502.848 34.3998 501.495 33.8145 500.146 33.2098L498.134 32.2882L497.13 31.8177L496.728 31.6246C496.675 31.5998 496.617 31.5604 496.553 31.5745C496.495 31.5886 496.441 31.6223 496.382 31.6413L491.625 33.7053C490.218 34.3217 488.831 34.9919 487.428 35.6327L484.698 36.8566C483.369 37.4396 482.026 37.9982 480.717 38.6057C479.725 39.0649 478.791 39.5684 477.792 39.7501C477.583 39.7873 477.065 40.0362 476.903 40.1712C476.285 40.687 475.455 41.0355 474.625 41.3987L471.298 42.8513L470.151 43.3482C470.058 43.3961 469.95 43.4245 469.867 43.4822C469.784 43.5545 469.802 43.7007 469.899 43.7453L470.481 43.9836L472.597 44.8136C473.441 45.132 474.285 45.4503 475.125 45.7686C477.75 46.7293 480.366 47.685 482.991 48.6505C484.083 49.0682 485.174 49.4859 486.271 49.9085L487.091 50.2266L487.499 50.3857C487.62 50.4353 487.659 50.4454 487.741 50.4607C487.892 50.4862 488.043 50.4729 488.184 50.4205C488.219 50.4062 488.253 50.3918 488.287 50.3775L488.385 50.3248L488.497 50.2721L488.893 50.0855C489.382 49.8559 489.851 49.592 490.34 49.3672C491.243 48.9511 492.172 48.4719 493.055 48.1578C494.037 47.8105 494.779 47.4952 495.572 46.9225C496.018 46.6 496.799 46.2608 497.439 45.9934C498.264 45.6496 499.104 45.3547 499.929 45.0645C500.919 44.7172 501.852 44.3987 502.82 43.7981C503.339 43.4762 504.125 43.176 504.774 42.9427C507.635 41.9146 510.419 40.6377 513.185 39.3217L513.888 38.9866L514.24 38.8191C514.299 38.7904 514.323 38.7663 514.372 38.7229C514.544 38.5588 514.6 38.3013 514.519 38.0865L513.467 35.1868L511.343 29.329C510.791 27.7962 510.268 26.2491 509.736 24.7019C508.908 22.3005 508.105 19.8896 507.317 17.4789L506.144 13.8579L505.56 12.0474C505.513 11.901 505.456 11.7107 505.437 11.6765C505.403 11.5984 505.365 11.5251 505.317 11.4565C505.225 11.3195 505.085 11.2016 504.954 11.1226C504.518 10.9098 504.072 10.6969 503.636 10.4841C503.185 10.2711 502.729 10.063 502.278 9.87439C500.182 9.00077 498.151 8.02546 496.129 7.00156C493.696 5.7699 491.208 4.69354 488.715 3.62688C488.443 3.51273 488.172 3.40345 487.9 3.2893C487.88 3.29401 487.876 3.29884 487.861 3.28412C487.832 3.25468 487.784 3.22022 487.735 3.19062C487.745 3.2345 487.773 3.31261 487.802 3.36638L488.741 5.87086C489.393 7.60886 490.046 9.35174 490.66 11.104C491.815 14.428 492.898 17.7707 493.99 21.1039C494.821 23.6854 495.657 26.262 496.488 28.8386C496.54 29.0094 496.621 29.1755 496.678 29.3463C497.138 30.82 497.037 31.374 496.374 30.8381C495.789 30.3612 495.232 29.4806 494.765 28.1676L493.268 23.8042L493.204 23.8085Z" fill="#F8AFB8"/>
</svg>
