<svg width="53" height="52" viewBox="0 0 53 52" fill="none" xmlns="http://www.w3.org/2000/svg">
<path d="M1.98199 20.6561L8.5779 7.56708C8.62461 7.47366 8.71336 7.40358 8.81613 7.38022L39.9692 0.555423C40.0626 0.536737 40.1607 0.555416 40.2401 0.6068L52.465 8.85637C52.6004 8.9498 52.6565 9.12265 52.5958 9.2768L36.4003 50.2023C36.3115 50.4265 36.0266 50.4966 35.8444 50.3377L2.06607 21.0766C1.93995 20.9738 1.90725 20.801 1.98199 20.6561Z" fill="#CAEAE3"/>
<path d="M4.36025 14.4428C5.27116 12.8406 6.16805 11.2103 7.10232 9.64075C7.30319 9.30442 7.49938 8.97274 7.70025 8.63641L7.99454 8.13187L8.29818 7.59004C8.36357 7.4826 8.41496 7.3658 8.50839 7.28639C8.60181 7.19763 8.72794 7.17425 8.84939 7.14623L9.52206 7.00144C9.93781 6.90802 10.3536 6.79587 10.7693 6.66974C11.1804 6.54362 11.6428 6.47355 12.0773 6.38012C12.8714 6.20261 13.6702 6.02515 14.4597 5.84297C14.8193 5.75888 15.1837 5.59538 15.5247 5.54867C17.2064 5.3151 18.86 4.9881 20.4903 4.48359C21.8217 4.37615 23.0642 3.96972 24.3535 3.63338C25.6381 3.29705 26.9695 3.04017 28.226 2.62909C28.5577 2.51698 28.9454 2.41886 29.2958 2.36747C31.4259 2.05449 33.5093 1.54066 35.6114 1.04083C36.7372 0.774567 37.8676 0.526955 38.9981 0.307403L39.4232 0.228027L39.6755 0.181325C39.7735 0.162639 39.867 0.143909 39.9651 0.134566C40.1566 0.106538 40.3481 0.185996 40.5023 0.298108L40.9134 0.597022C41.3758 0.9427 41.8336 1.29305 42.2867 1.64807C43.2537 2.40482 44.3187 3.11955 45.3605 3.82025C46.603 4.65641 47.869 5.45054 49.1162 6.27269C49.6627 6.62771 50.2046 6.98275 50.7465 7.33777L52.4655 8.43552C52.6898 8.59434 52.9327 8.74384 52.9747 9.03346C53.0027 9.29505 52.8953 9.55195 52.7972 9.82756L52.5683 10.4909L52.3628 11.1075C51.4612 13.8496 50.5176 16.5963 49.5366 19.3291C49.0368 20.7211 48.4342 22.0992 47.8596 23.4725C46.7105 26.2286 45.5333 28.966 44.3982 31.7267C43.548 33.8008 42.7352 35.8982 41.9364 37.9957C41.2076 39.9576 40.4789 41.9196 39.7455 43.8815L38.0965 48.2352L37.6855 49.3236L37.3585 50.1738C37.2464 50.5054 37.0829 50.7951 36.9007 50.9679C36.8119 51.052 36.7325 51.1314 36.6064 51.1968C36.4849 51.2622 36.3355 51.3043 36.1906 51.3183C36.0458 51.3276 35.9244 51.3136 35.8123 51.2809C35.6955 51.2575 35.5647 51.2015 35.4339 51.1361C35.163 50.9866 34.906 50.7204 34.6398 50.5102L34.0792 50.0337L26.9601 44.0357L23.5173 41.1815C22.9474 40.705 22.3822 40.2145 21.8217 39.724L15.5948 34.2399L6.62584 26.4435C4.93483 24.9627 3.25782 23.4725 1.48272 22.1038C1.42199 22.0524 1.36593 22.0104 1.31455 21.9683L1.26317 21.9216L1.1931 21.8515C1.14638 21.8048 1.10901 21.7535 1.07164 21.7021C0.9969 21.5993 0.945515 21.4919 0.903473 21.3891C0.744648 20.9687 0.819389 20.623 0.89413 20.4315C0.978214 20.24 1.05763 20.1793 1.08565 20.212C1.11835 20.2447 1.095 20.3707 1.10901 20.581C1.13704 20.9453 1.32856 21.2256 1.57147 21.3844C1.62753 21.4171 1.70694 21.4638 1.74898 21.4685H1.85642C1.93116 21.4732 2.00591 21.4779 2.08532 21.4872C2.40297 21.5246 2.772 21.6367 3.25315 21.8983C3.90713 22.258 4.50039 22.613 5.14503 23.2483C6.08397 24.1732 7.24713 24.9393 8.06928 25.967C8.18607 26.1118 8.3916 26.2753 8.56444 26.4061C11.6615 28.7371 14.5064 31.3904 17.4213 33.955C18.3742 34.7911 19.3599 35.5946 20.3315 36.4168L22.2 38.033C23.1016 38.8225 23.9798 39.6353 24.8954 40.4014C25.5867 40.9806 26.2968 41.4945 26.7592 42.2045C26.8573 42.354 27.2217 42.653 27.3852 42.7184C28.0065 42.9753 28.553 43.4798 29.1136 43.975C30.6224 45.3016 32.1173 46.6469 33.6401 47.9642L34.4903 48.6883L35.3078 49.375C35.504 49.5245 35.6768 49.6927 35.873 49.8095C35.9851 49.8515 36.1206 49.7767 36.1579 49.6599L36.2747 49.3189C36.6251 48.3006 36.9801 47.2869 37.3305 46.2686C37.7135 45.1848 38.0919 44.0964 38.4749 43.0127C39.1289 41.2002 39.8249 39.3971 40.5023 37.5846C40.6564 37.1642 40.7779 36.7391 40.9367 36.3233C41.231 35.5573 41.4973 34.7398 41.8523 34.0484C42.2447 33.2823 42.5063 32.6704 42.6184 31.8669C42.6838 31.4138 42.9501 30.7645 43.1789 30.2366C43.4732 29.5593 43.8096 28.91 44.1412 28.2653C44.5383 27.4945 44.9213 26.7751 45.1316 25.8549C45.2437 25.3644 45.5426 24.7338 45.7996 24.2293C46.93 21.9871 47.8409 19.6327 48.7145 17.255L50.3634 12.7191L51.1809 10.4489L51.3865 9.88361L51.4892 9.59867C51.5126 9.53327 51.5079 9.53793 51.5126 9.52859L51.5173 9.50059C51.5219 9.46322 51.5406 9.43053 51.5313 9.39316C51.5173 9.35579 51.4705 9.34644 51.4425 9.32775L51.3911 9.30437L51.1249 9.13621C49.9897 8.41683 48.8686 7.66475 47.7428 6.92201C45.9911 5.7682 44.258 4.59568 42.5296 3.40917L39.9697 1.63878C39.9464 1.61542 39.9137 1.58736 39.8763 1.60604H39.8623L39.8203 1.6154L39.6287 1.65275L39.2457 1.73218L37.7088 2.04518C36.9054 2.20867 36.0832 2.36745 35.3031 2.58233C33.4953 3.07749 31.6688 3.45124 29.833 3.78757C27.6188 4.18931 25.4466 4.7452 23.2791 5.31043C22.7746 5.44123 22.2701 5.60003 21.7609 5.69345C18.2247 6.35678 14.7633 7.30974 11.2505 8.03847L9.91446 8.30938L9.57812 8.37479L9.49404 8.39349L9.45199 8.40284C9.44732 8.40284 9.44732 8.40284 9.44732 8.40284L9.44265 8.39817C9.43331 8.39349 9.4193 8.3935 9.40995 8.40284C8.48503 10.0985 7.56478 11.7942 6.63986 13.4852C5.55611 15.4425 4.47704 17.3998 3.39329 19.3571C3.32322 19.4832 3.26716 19.6327 3.19709 19.7588C2.57114 20.8659 2.14137 21.1042 2.0386 20.3754C1.94518 19.7308 2.13203 18.8806 2.65522 17.8576L4.42565 14.4896L4.36025 14.4428Z" fill="#8ED8C8"/>
<path d="M3.88888 19.7355C4.51951 19.6841 5.14547 19.6047 5.7761 19.5907C6.34133 19.5813 6.89721 19.5767 7.41573 19.3198C7.5512 19.2544 7.71002 19.245 7.85951 19.2123C8.12577 19.1469 8.39671 19.0862 8.66298 19.0114C8.78443 18.9787 8.89654 18.8713 9.01332 18.8713C9.60191 18.8666 10.1671 18.7732 10.695 18.5023C11.1715 18.5724 11.5732 18.3481 11.9983 18.1893C12.4234 18.0351 12.8812 17.9651 13.2829 17.7315C13.3904 17.6708 13.5211 17.6241 13.6426 17.6194C14.3853 17.6007 15.0814 17.3812 15.7867 17.1756C16.5435 16.9561 17.3143 16.8253 18.1131 16.8066C18.5381 16.7972 18.9586 16.6944 19.3743 16.5963C19.8695 16.4796 20.3506 16.3161 20.8411 16.1853C21.5512 15.9984 22.2519 15.7835 22.9339 15.4939C23.8448 15.1062 24.7744 14.7558 25.7133 14.4382C26.1898 14.2747 26.699 14.214 27.1988 14.1299C28.1984 13.9524 29.2028 13.8122 30.1931 13.616C30.9405 13.4712 31.6786 13.2797 32.412 13.0789C33.0987 12.892 33.7713 12.6584 34.4534 12.4669C36.4807 11.897 38.5127 11.3458 40.5448 10.7806C41.0306 10.6451 41.5117 10.4816 41.9975 10.3415C42.2404 10.2714 42.488 10.2107 42.7356 10.1593C43.6559 9.96778 44.5761 9.79028 45.4917 9.58474C46.8043 9.29512 48.1076 8.97745 49.4203 8.68315C50.163 8.51966 50.9104 8.37483 51.6205 8.08053C51.8213 7.99645 51.9101 8.08521 51.8821 8.31877C51.8353 8.72985 51.8213 9.14563 51.5224 9.45861C51.3168 9.66882 51.1206 9.83697 50.8076 9.85098C50.3545 9.86967 49.9388 10.1546 49.4576 10.0238C49.3876 10.0051 49.3035 10.0378 49.2381 10.0658C48.0235 10.6217 46.7062 10.7852 45.4169 11.0562C44.9965 11.1449 44.5854 11.2851 44.1697 11.3925C43.8988 11.4626 43.6278 11.528 43.3569 11.5887C42.9598 11.6728 42.5581 11.7289 42.1657 11.841C41.8714 11.9251 41.6005 12.0652 41.2782 11.9017C41.2128 11.869 41.0586 11.9157 41.0166 11.9811C40.8531 12.238 40.6055 12.2707 40.3579 12.3221C39.6899 12.4623 39.0172 12.5791 38.3539 12.7379C37.8634 12.8547 37.3776 13.0041 36.9011 13.1676C36.1584 13.4245 35.4297 13.7188 34.6869 13.9664C34.0656 14.1719 33.4303 14.3355 32.7997 14.5223C32.6549 14.5643 32.5194 14.6437 32.3746 14.6858C32.1083 14.7605 31.8327 14.8773 31.5618 14.8633C31.2628 14.8493 31.0386 14.882 30.8191 15.1296C30.6976 15.2651 30.464 15.3118 30.2678 15.3351C30.0203 15.3678 29.7633 15.3538 29.5064 15.3398C29.2028 15.3211 28.9132 15.2977 28.6375 15.5079C28.4881 15.6201 28.2498 15.6294 28.0536 15.6247C27.1754 15.5967 26.3439 15.8116 25.5264 16.0685C24.4147 16.4188 23.3122 16.7972 22.2005 17.1523C21.766 17.2924 21.3223 17.3999 20.8785 17.5213C19.5051 17.8904 18.1084 18.1566 16.7117 18.4182C16.4361 18.4696 16.1558 18.5163 15.8989 18.6191C15.3009 18.8573 14.6843 18.9787 14.049 19.0581C13.2876 19.1562 12.5682 19.4038 11.8488 19.6608C11.6806 19.7215 11.5172 19.8056 11.3443 19.8289C10.1344 20.0018 8.98996 20.4642 7.79878 20.7025C6.83181 20.894 5.85084 21.0108 4.87453 21.1416C4.11778 21.2444 3.36102 21.3191 2.60427 21.4078C2.55288 21.4125 2.50617 21.4452 2.45946 21.4499C2.02502 21.4872 1.82883 21.249 1.9316 20.7959C2.02035 20.3895 2.24925 20.1139 2.6323 20.0345C3.05271 19.9457 3.47781 19.8803 3.9029 19.8009C3.89822 19.7729 3.89355 19.7542 3.88888 19.7355Z" fill="#8ED8C8"/>
<path d="M10.7468 8.67397C11.1252 9.21584 11.5316 9.7437 11.8772 10.3089C12.1856 10.8134 12.4845 11.3086 12.9843 11.6496C13.1151 11.7384 13.2039 11.8785 13.316 11.9953C13.5169 12.2055 13.7131 12.4204 13.9186 12.6213C14.012 12.7147 14.1662 12.7614 14.2316 12.8688C14.5492 13.3967 14.9323 13.8591 15.4461 14.2048C15.6377 14.6719 16.0487 14.9195 16.4131 15.2278C16.5859 15.3773 16.7494 15.5408 16.9129 15.6997L17.0344 15.8118L17.1231 15.8818C17.1839 15.9239 17.2446 15.9566 17.3007 15.9752L17.3287 15.9846C17.3941 15.9986 17.4455 16.036 17.4875 16.1201C17.5389 16.2602 17.6837 16.3443 17.7911 16.2929C17.8892 16.2415 17.936 16.12 18.006 16.0219C18.0714 15.9192 18.1321 15.8071 18.1882 15.6997L18.4498 15.2185C18.8469 14.4944 19.3187 13.8217 19.8886 13.2145C20.1922 12.8922 20.4258 12.4998 20.6593 12.1167C20.9349 11.6636 21.1732 11.1825 21.4394 10.7247C21.8272 10.0567 22.1869 9.37932 22.4811 8.65994C22.8735 7.69764 23.3033 6.74939 23.7611 5.81979C23.976 5.3947 24.1395 5.18918 24.6346 4.4371C24.7234 4.31097 24.8215 4.20351 24.9196 4.11942C25.0644 3.99797 25.1999 3.89989 25.4054 3.84851C25.6016 3.79712 25.8118 3.81578 25.9706 3.88118C26.3256 3.97928 26.6853 4.32495 27.0263 4.57253C27.4561 4.91821 27.8578 5.24521 28.2829 5.5722C28.9136 6.05802 29.5769 6.5065 30.2402 6.95027C30.8615 7.36135 31.5108 7.73502 32.1321 8.14143L34.4584 9.66896L35.6216 10.4351L36.2008 10.8181L36.2756 10.8648C36.2942 10.8789 36.2896 10.8695 36.2943 10.8741L36.3176 10.8835L36.3597 10.8975C36.397 10.9022 36.4297 10.9302 36.4531 10.8835C36.4624 10.8508 36.4484 10.8041 36.4391 10.7761C36.4344 10.762 36.425 10.7527 36.4204 10.7434L36.411 10.734L36.4437 10.5565C36.4951 10.2949 36.5558 10.038 36.6259 9.78107L37.4014 6.93157L38.4384 2.83481C38.6393 2.05937 38.8588 1.29327 38.9289 0.489798C38.9476 0.265574 39.069 0.2189 39.2652 0.354368C39.6062 0.587934 39.9752 0.798137 40.106 1.22323C40.1948 1.51285 40.2555 1.77442 40.1201 2.07338C39.9285 2.50782 39.9846 3.02634 39.6436 3.41873C39.5969 3.47478 39.5829 3.5682 39.5782 3.64762C39.5034 5.04434 39.0363 6.35232 38.672 7.68832C38.5552 8.12276 38.4851 8.57119 38.387 9.01496C38.3263 9.29991 38.2562 9.5849 38.1815 9.86985C38.074 10.2809 37.9339 10.6827 37.8498 11.1031C37.8078 11.304 37.7751 11.5188 37.719 11.715C37.6676 11.9112 37.5695 12.0653 37.4341 12.1027C37.378 12.1214 37.336 12.2942 37.336 12.4017C37.3453 12.6025 37.2379 12.7473 37.093 12.8081C36.9436 12.8735 36.7894 12.8315 36.6633 12.7707C36.4951 12.7007 36.3083 12.6025 36.1261 12.4671L35.3039 11.8505L34.6406 11.3647C34.2108 11.061 33.7577 10.7808 33.2999 10.5145C32.5852 10.1034 31.8518 9.72968 31.1418 9.31393C30.5485 8.96358 29.9833 8.57587 29.3994 8.21151C29.2639 8.12742 29.1098 8.07137 28.979 7.98262C28.736 7.81912 28.4558 7.68366 28.2783 7.46411C28.0774 7.2212 27.8952 7.06705 27.5589 7.0577C27.3674 7.05303 27.1712 6.89888 27.017 6.76341C26.8161 6.59057 26.648 6.38036 26.4798 6.17482C26.3817 6.04869 26.2836 5.92724 26.1715 5.82914C26.1341 5.78243 26.0827 5.76373 26.022 5.81044C25.966 5.87117 25.9473 5.77775 25.8725 5.70301C25.7698 5.60958 25.709 5.67963 25.6296 5.73568C25.5782 5.7824 25.5502 5.8058 25.4848 5.89923C25.3961 6.03002 25.312 6.16548 25.2279 6.30095C25.0644 6.57189 24.9102 6.85218 24.7654 7.13246L23.1024 10.4024C22.8829 10.8275 22.6353 11.2385 22.3971 11.6543C21.6543 12.9482 20.8275 14.1862 19.9913 15.4194C19.8278 15.6623 19.655 15.9052 19.5382 16.1715L19.4354 16.4004L19.2159 16.7927C19.0571 17.059 18.9076 17.3626 18.7114 17.5635C18.5012 17.7597 18.3377 17.8578 18.0994 17.9232C17.8565 17.9933 17.5529 17.9699 17.3567 17.8811C17.1512 17.797 16.9129 17.6522 16.6981 17.428C16.5065 17.2178 16.3103 17.0123 16.1141 16.8068L15.9133 16.6059L15.7404 16.4424C15.5115 16.2275 15.2733 16.022 15.0351 15.8164C14.8949 15.695 14.7314 15.5875 14.6193 15.4427C13.8252 14.4337 12.8162 13.6349 11.9753 12.6726C11.2933 11.8972 10.672 11.0657 10.0367 10.2529C9.54625 9.62225 9.07912 8.97294 8.59797 8.33764C8.56527 8.2956 8.51389 8.26758 8.48586 8.22554C8.2196 7.85183 8.32704 7.56217 8.78016 7.4267C9.18189 7.30992 9.54625 7.38001 9.81719 7.68365C10.1208 8.01998 10.4058 8.37031 10.6954 8.71599L10.7468 8.67397Z" fill="#8ED8C8"/>
<path d="M19.8934 19.5487C20.2391 20.3475 20.6082 21.137 20.9165 21.9451C21.1921 22.6692 21.4537 23.3792 21.9488 23.9959C22.0796 24.1547 22.159 24.3602 22.2618 24.5424C22.4533 24.874 22.6402 25.2104 22.8364 25.5327C22.9251 25.6822 23.084 25.8036 23.14 25.9578C23.4156 26.7145 23.7753 27.4199 24.2938 28.0412C24.4433 28.6718 24.8591 29.139 25.2141 29.6528C25.5691 30.1667 25.8494 30.7412 26.2698 31.2084C26.3819 31.3345 26.4847 31.4887 26.5454 31.6475C26.9098 32.5958 27.4516 33.4459 27.9842 34.3101C28.5541 35.235 29.0446 36.202 29.4323 37.2203C29.6378 37.7622 29.9368 38.2854 30.2311 38.7993C30.5768 39.4112 30.9645 39.9951 31.3242 40.5977C31.8427 41.4759 32.3846 42.3308 32.9918 43.1483C33.3702 43.6575 33.7439 44.1759 34.1129 44.6991L34.3886 45.0915L34.5053 45.213C34.5754 45.283 34.6361 45.3391 34.6875 45.3765L34.7249 45.4045C34.7716 45.4372 34.809 45.5073 34.8557 45.6101C34.8744 45.6661 34.9117 45.7268 34.9678 45.7455C35.0192 45.7642 35.0706 45.7455 35.0752 45.7128C35.1453 45.3672 35.2341 45.3438 35.3368 43.55C35.4022 42.499 35.4256 41.4432 35.4349 40.3922C35.4443 39.4112 35.4069 38.4255 35.4116 37.4446L35.4723 28.7045L35.4536 26.6024C35.4536 26.2521 35.463 25.9017 35.4816 25.5514L35.6919 21.6649L35.9114 16.092C35.9581 15.0362 36.0282 13.9852 35.9394 12.9341C35.9161 12.6398 36.0235 12.5464 36.2431 12.6679C36.6261 12.8734 37.0232 13.0369 37.2381 13.5508C37.3829 13.8965 37.4903 14.2234 37.4202 14.6439C37.3128 15.2558 37.4716 15.9098 37.2147 16.5077C37.1773 16.5918 37.1867 16.7179 37.196 16.816C37.3969 18.6379 37.1867 20.455 37.0886 22.2721C37.0559 22.8654 37.0792 23.4633 37.0699 24.0613C37.0652 24.449 37.0512 24.832 37.0325 25.2197C37.0045 25.7803 36.9438 26.3408 36.9438 26.9014C36.9438 27.3265 36.9998 27.7376 36.7569 28.1113C36.7055 28.1907 36.7102 28.4103 36.7616 28.4897C36.9625 28.798 36.9251 29.1437 36.9064 29.494C36.855 30.4376 36.7849 31.3765 36.7522 32.3201C36.7289 33.0162 36.7382 33.7168 36.7616 34.4129C36.8036 35.4966 36.883 36.5757 36.9204 37.6548C36.9484 38.561 36.9298 39.4673 36.9344 40.3735C36.9344 40.5837 36.9718 40.7939 36.9718 40.9995C36.9671 41.3825 37.0045 41.7889 36.9157 42.1486C36.8176 42.5457 36.7896 42.8586 36.9671 43.237C37.0652 43.4472 37.0419 43.7789 37.0138 44.0451C36.9952 44.218 36.9671 44.3909 36.9298 44.559L36.8737 44.8112L36.841 44.9374L36.8083 45.1569C36.6962 45.8763 36.5887 46.3621 36.6962 47.2684C36.7336 47.53 36.7055 47.7542 36.6448 47.9224C36.6121 47.9971 36.5747 48.0578 36.5374 48.1186C36.5 48.1653 36.4579 48.2026 36.4206 48.2447C36.3505 48.3147 36.2898 48.3568 36.2337 48.4268C36.1777 48.4736 36.1356 48.5343 36.0842 48.595C36.0188 48.6557 35.8881 48.7352 35.7386 48.7632C35.5891 48.7959 35.4256 48.7819 35.3275 48.7305C35.2387 48.6791 35.178 48.6137 35.1033 48.5577L34.865 48.3568C34.6969 48.2073 34.4913 48.0438 34.2905 47.7308L33.8934 47.0722L33.3982 46.264L33.1413 45.8483L32.9685 45.5774L32.3098 44.5637L30.9925 42.5363C30.6515 42.0038 30.3338 41.4573 30.0115 40.9154C29.0025 39.2244 28.0869 37.4867 27.176 35.7442C26.9985 35.4032 26.821 35.0529 26.5968 34.7399C26.0829 34.0205 25.6719 33.2497 25.2982 32.4556C24.8497 31.498 24.2611 30.6198 23.6725 29.7509C23.5371 29.55 23.3736 29.3539 23.2708 29.139C22.5374 27.6161 21.5424 26.2474 20.7483 24.762C20.1083 23.5614 19.5337 22.3235 18.9498 21.0949C18.4967 20.1466 18.0669 19.1844 17.6278 18.2314C17.5998 18.1707 17.5484 18.1146 17.5204 18.0539C17.2775 17.5027 17.427 17.2037 17.9315 17.2411C18.3799 17.2738 18.763 17.5121 19.0199 17.9839C19.3049 18.5071 19.5711 19.0396 19.8421 19.5675L19.8934 19.5487Z" fill="#8ED8C8"/>
</svg>
