<svg width="48" height="54" viewBox="0 0 48 54" fill="none" xmlns="http://www.w3.org/2000/svg">
<path d="M48 3.94172C47.7348 5.02885 47.5492 6.12922 47.178 7.20309C46.8466 8.17089 46.5019 9.11221 46.8731 10.0933C46.9659 10.3452 46.8864 10.6236 46.8864 10.8887C46.8864 11.366 46.8864 11.8565 46.9261 12.3338C46.9394 12.5592 47.1648 12.7846 47.0852 12.9834C46.714 13.9778 46.6079 14.9853 47.0189 15.9797C46.5151 16.7619 46.8731 17.5308 47.0322 18.313C47.1913 19.0952 47.0852 19.9039 47.4697 20.6728C47.5758 20.885 47.6155 21.1104 47.536 21.3225C47.1117 22.5952 47.2708 23.8547 47.3769 25.1274C47.4962 26.493 47.3636 27.8585 46.8864 29.2107C46.6345 29.9399 46.6477 30.6956 46.6477 31.4381C46.6477 32.3263 46.7935 33.2013 46.8333 34.0896C46.9129 35.4286 46.9924 36.7676 47.072 38.1464C47.178 40.0423 46.8731 42.0309 46.1307 43.9002C45.9318 44.3642 45.6666 44.8017 45.3617 45.2127L44.3409 46.3529C42.9223 47.8245 41.2519 48.9514 39.5284 49.8926C38.2556 50.6351 36.8901 51.2317 35.5113 51.7885C34.2121 52.2392 32.873 52.7298 31.4545 52.8889C30.9507 52.9419 30.3806 53.0082 29.9166 53.0347L28.5378 53.1142L25.7802 53.2733L20.2783 53.5915C19.39 53.6446 18.515 53.7771 17.64 53.8434C17.2025 53.8832 16.7518 53.8832 16.3143 53.8567C14.6836 53.7904 13.0529 53.6711 11.409 53.6313L4.38242 53.5252C3.05666 53.4854 1.7309 53.3926 0.405134 53.7373C0.0339217 53.8301 -0.085402 53.5385 0.0604339 52.9021C0.31233 51.8017 0.511194 50.6483 1.14756 49.9987C1.58506 49.5612 1.98279 49.2165 2.51309 49.3888C3.28203 49.6275 4.10401 49.1237 4.87296 49.7998C4.97902 49.8926 5.1381 49.8661 5.27068 49.8264C7.56425 49.0839 9.85782 49.5082 12.1514 49.6142C12.9071 49.654 13.6495 49.5347 14.4052 49.5082C14.8957 49.4949 15.373 49.4949 15.8635 49.5082C16.5662 49.5347 17.2821 49.654 17.9847 49.601C18.515 49.5612 19.0321 49.3623 19.5094 50.012C19.6154 50.1445 19.8938 50.118 19.9866 49.9589C20.3711 49.3623 20.8086 49.4286 21.2461 49.4419C22.4393 49.4949 23.6192 49.6142 24.8124 49.6142C25.6874 49.6142 26.5757 49.5214 27.4507 49.3888C28.7897 49.1635 30.2613 48.8586 31.3617 48.5801L32.8068 48.2089C33.284 48.0764 33.7348 47.8907 34.1855 47.7316C34.3844 47.6256 34.5568 47.4267 34.7556 47.3472C35.1401 47.1881 35.4715 46.9097 35.8958 46.923C36.3731 46.9495 36.731 46.8567 36.7841 46.1805C36.8238 45.8093 37.1155 45.6634 37.3806 45.5706C37.6988 45.4116 38.1098 45.3718 38.5208 45.3187C39.0113 45.2525 39.4886 45.1331 39.5549 44.5366C39.5947 44.2316 39.8996 44.046 40.2045 43.94C40.8939 43.7146 41.3712 43.2506 41.8219 42.76C42.1932 42.2165 42.5246 41.6464 42.7102 40.9968C43.2803 39.2866 43.3863 37.51 43.2272 35.8263C43.1875 35.4949 43.1875 35.19 43.1742 34.832L43.1212 33.6388C42.9886 31.1596 43.1477 28.6937 43.3333 26.2146C43.3731 25.724 43.4261 25.2335 43.3068 24.7562C43.0284 23.6558 43.0947 22.5554 43.2935 21.4418C43.5189 20.116 43.2935 18.7903 43.0549 17.4645C43.0019 17.1596 42.8693 16.8414 42.9091 16.5365C43.214 14.4152 42.6704 12.294 42.7898 10.1728C42.8826 8.46259 43.2007 6.75235 43.4659 5.02886C43.678 3.70309 43.9564 2.3906 44.1951 1.06484C44.2083 0.972037 44.1553 0.892475 44.1818 0.799672C44.3541 0.0439875 45.1364 -0.194664 46.3295 0.163292C47.3901 0.481475 48 0.972041 47.9867 1.64818C47.9602 2.40386 47.8674 3.14627 47.8144 3.90195L48 3.94172Z" fill="#8ED6C7"/>
</svg>
