<svg width="178" height="154" viewBox="0 0 178 154" fill="none" xmlns="http://www.w3.org/2000/svg">
<path d="M50.4052 20.311C44.3269 17.9731 37.5335 15.9104 30.9876 15.6903C29.2365 15.5895 26.5595 15.5895 24.4967 15.8095C22.929 15.9379 21.4071 16.2771 19.9036 16.6713C18.4275 17.148 16.9515 17.6798 15.6038 18.4682C12.8626 19.9626 10.5156 22.1904 8.66369 24.8307C8.39782 25.2341 8.12278 25.6467 7.84774 26.0592C7.6002 26.481 7.38018 26.9119 7.16931 27.2969C5.09736 31.285 3.85053 35.6947 3.06209 40.187C2.6587 42.424 2.39283 44.716 2.21864 46.9896L2.18197 48.6582L2.16363 49.4925L2.23697 50.3176L2.39283 51.9678C2.48451 52.5087 2.62203 53.0404 2.74121 53.5813C3.45631 56.5976 4.89567 59.4121 6.90344 61.8141C8.90205 64.2253 11.4049 66.2422 14.1553 67.8925C17.1899 69.7261 21.0495 71.5596 24.7534 72.9257C30.3366 75.0068 36.1674 76.4828 42.0441 77.7663C44.987 78.4081 47.9391 78.9857 50.9095 79.5816C53.8799 80.1958 56.8503 80.7367 59.8574 81.626C60.3249 81.7544 60.7833 81.9194 61.2417 82.0936C61.6909 82.2403 62.1493 82.4786 62.5802 82.7078C63.3962 83.1662 64.0379 83.6705 64.588 84.1472C65.679 85.1007 66.2474 85.9349 66.2749 86.2283C66.2932 86.3933 66.7975 87.1176 67.1825 87.8877C67.5859 88.6486 67.8518 89.4463 67.7693 89.5563C67.5309 89.8863 66.8983 88.832 65.2573 87.1818C64.423 86.3658 63.3045 85.4307 61.801 84.5964C60.4074 83.8905 58.3171 83.4138 56.016 82.9004C51.8538 82.0111 47.499 81.241 43.2267 80.3517C35.0673 78.6556 26.862 76.8129 19.1059 73.1365C16.3556 71.8347 13.0368 70.0653 10.2956 68.0208C8.36115 66.5448 6.50006 64.9312 4.99652 62.9785C4.1714 62.0617 3.57549 60.9799 2.8879 59.9622L2.06278 58.312C1.93443 58.037 1.77858 57.7711 1.66856 57.4777L1.35685 56.6068C0.44006 54.3148 0.137519 51.8486 0 49.4283C0.00916792 46.9713 0.210863 44.6335 0.559244 42.2865C0.9718 39.2886 1.61355 36.199 2.43867 33.3569C3.02541 31.4867 3.63967 29.6256 4.51062 27.847C4.89567 26.9394 5.40907 26.0868 5.8858 25.2158C6.42671 24.3815 6.92178 23.5197 7.55436 22.7405C8.73703 21.1361 10.1489 19.6784 11.7349 18.4315C13.3118 17.1755 15.0629 16.1212 16.9331 15.3511C18.7026 14.6177 20.5178 14.0584 22.3697 13.7467C23.2865 13.545 24.2308 13.49 25.1659 13.3617C26.1102 13.325 27.0545 13.2242 28.008 13.2608C29.9883 13.2333 32.0235 13.4259 34.068 13.6459C36.1033 13.9301 38.1569 14.2693 40.1372 14.7552C42.7683 15.3603 45.3445 16.1396 47.8841 17.0105C50.4236 17.8631 52.9264 18.8166 55.4201 20.0634C57.8679 21.3469 60.0957 23.0155 62.1035 24.9224C64.0746 26.866 65.7248 29.103 67.1275 31.4683C70.483 36.9507 72.1607 43.3958 73.0133 49.7767C73.8476 56.1942 73.8109 62.6576 73.49 68.9101C73.2792 72.7973 72.7475 77.3996 71.8673 81.8369C71.3631 84.4314 70.8864 86.43 70.5105 87.9152C70.3179 88.667 70.1529 89.2446 69.9971 89.7855C69.8229 90.4089 69.2911 90.8581 68.8327 90.9773C68.3652 91.124 67.9435 91.0415 67.6317 90.904C66.99 90.5831 66.88 90.143 66.8616 90.0513C66.8525 89.923 66.9258 90.0238 67.155 90.2347C67.3751 90.4455 67.8976 90.7389 68.4844 90.5556C68.7686 90.4731 69.0619 90.2622 69.227 89.9413C69.3828 89.5654 69.3186 89.3821 69.3553 89.1162C69.4195 88.1444 69.5387 86.8701 69.6762 85.4582C69.8596 83.4596 70.2354 81.0668 70.8314 76.6845C71.6381 70.5695 71.9498 64.4728 71.6748 58.5504C71.4823 53.8014 70.9047 49.2999 69.8412 44.2209C69.612 43.3133 69.3828 42.369 69.0986 41.4247C68.7777 40.4987 68.5119 39.5544 68.1451 38.6743C66.5683 34.6496 64.4872 30.7716 61.4801 27.6086L60.3524 26.426L59.1148 25.3442L58.5005 24.8032C58.2805 24.6382 58.0513 24.4824 57.8312 24.3173L56.4836 23.3455C56.016 23.043 55.5301 22.7771 55.0442 22.4929C54.5583 22.2179 54.0907 21.9062 53.5682 21.6861C52.5322 21.2277 51.5329 20.7235 50.4052 20.311Z" fill="#8ED6C7"/>
<path d="M77.8802 49.7589C77.541 50.474 76.4867 50.3181 76.3858 49.5297C75.5607 42.8371 74.5064 32.4774 79.2737 20.3482C86.6539 1.56314 109.592 -5.12027 116.78 6.578C124.811 19.6515 105.127 29.2778 97.0686 33.4308C89.7343 37.2264 81.9599 41.1227 77.8802 49.7589Z" fill="#8ED6C7"/>
<path d="M75.2869 45.4219C75.2319 43.6709 75.2044 41.9106 75.3144 40.1871C75.4153 38.6469 75.5803 37.1433 75.5619 35.5756C75.5528 35.1722 75.6261 34.7322 75.6628 34.3104C75.727 33.5403 75.8186 32.7794 75.9195 32.0184C75.9653 31.6701 75.9286 31.2942 76.0112 30.9733C76.4054 29.4148 76.7538 27.8654 77.0288 26.2793C77.5055 25.1058 77.7439 23.9048 78.0831 22.6855C78.459 21.4845 78.8991 20.2927 79.2933 19.0917C79.3941 18.7708 79.5225 18.4132 79.6967 18.1199C80.6868 16.323 81.7136 14.5627 82.8963 12.8667C84.1615 11.0606 85.6925 9.43785 87.4161 8.09017C88.3328 7.37507 89.268 6.60497 90.2306 5.90821C91.3674 5.06476 92.5593 4.30382 93.7969 3.59789C95.603 2.61692 97.4916 1.79181 99.4444 1.13172C100.755 0.700825 102.112 0.361613 103.506 0.169086C104.899 -0.00510408 106.329 -0.0601102 107.76 0.0774086C109.217 0.233263 110.666 0.691658 112.014 1.33341C113.352 1.98434 114.608 2.85529 115.617 3.94627C116.643 5.02808 117.432 6.30242 118.064 7.61344C118.972 9.60288 119.522 11.8857 119.201 14.1227C118.963 16.2129 118.129 18.1749 117.001 19.8893C115.305 22.4288 113.086 24.5099 110.748 26.3435C108.401 28.1771 105.899 29.7723 103.35 31.2575C102.121 31.9726 100.902 32.6785 99.6644 33.3478C99.0501 33.687 98.4176 34.0079 97.7941 34.3196C95.4747 35.4931 93.1552 36.6391 90.9549 37.9318C87.8103 39.7837 84.8582 41.9381 82.4837 44.6243C81.1452 46.137 79.9717 47.8239 79.1833 49.6759C78.9541 50.1893 78.7799 50.3084 78.679 50.0242C78.5048 49.5292 78.2848 49.0891 78.5507 48.0715C78.789 47.4114 78.9816 46.7696 79.5408 46.0912C79.935 45.6053 80.2743 45.0552 80.6868 44.5693C80.8885 44.3218 81.0902 44.0743 81.3011 43.8359C81.5303 43.6159 81.7594 43.405 82.0162 43.2216C82.1537 43.1208 82.3187 42.9283 82.447 42.7632C84.8399 39.9487 88.0303 37.9318 91.2208 36.1623L94.3562 34.4021L96.419 33.3295C97.4183 32.8161 98.4451 32.3393 99.426 31.8076C100.169 31.4042 100.856 30.955 101.636 30.7899C101.801 30.7533 102.186 30.5332 102.296 30.4049C102.717 29.9282 103.332 29.6164 103.937 29.2589C105.569 28.3238 107.182 27.352 108.713 26.2702C109.841 25.4634 110.923 24.5833 111.931 23.6481C113.48 22.1813 114.883 20.5677 115.947 18.7891C116.845 17.3131 117.542 15.7087 117.734 14.0493L117.78 13.4717C117.771 13.2792 117.762 13.0867 117.771 12.8942C117.789 12.5458 117.744 12.1882 117.707 11.8307C117.689 11.4731 117.615 11.1339 117.588 10.8039C117.569 10.428 117.496 10.1071 117.386 9.7954C117.285 9.48369 117.148 9.19949 116.918 8.91528C116.79 8.75943 116.671 8.5394 116.561 8.30103C116.433 8.06267 116.304 7.8243 116.185 7.5951C115.91 7.00836 115.598 6.46745 115.277 5.91737C115.057 5.61483 114.865 5.29395 114.617 5.01892C114.351 4.76222 114.076 4.48718 113.719 4.28548C113.325 4.08379 112.885 3.67123 112.472 3.38703C111.601 2.7086 110.565 2.23187 109.474 1.92016C108.392 1.58095 107.237 1.47093 106.1 1.43426C102.983 1.37009 99.9119 2.20437 97.0515 3.41453C95.9422 3.91877 94.8237 4.43217 93.7786 5.06476C90.4781 6.96252 87.4986 9.41952 85.0416 12.3533C84.5465 12.9125 84.0881 13.5268 83.6847 14.1502C82.8046 15.617 81.8878 17.0381 81.1085 18.5599C80.8518 19.0092 80.6593 19.4859 80.4484 19.9535C80.2376 20.421 80.0542 20.8978 79.8892 21.3928L79.3941 22.8597L78.9816 24.3541C78.8532 24.8125 78.7524 25.2892 78.624 25.7476C77.6431 28.9197 77.2397 32.211 76.9646 35.4931C76.7354 38.1518 76.6346 40.8288 76.7079 43.5242C76.7354 44.5602 76.7813 45.6053 76.8454 46.6413L76.9463 48.1998L77.0471 49.4833C77.0563 49.5017 77.0746 49.5017 77.093 49.52C77.1938 49.5933 77.3222 49.6209 77.478 49.6025C77.6156 49.5933 77.8356 49.6209 77.7989 50.0059C77.7622 50.3268 77.2947 50.7668 76.6346 50.5927C76.3137 50.5193 75.9745 50.2443 75.8186 49.85C75.782 49.7584 75.7545 49.6392 75.7361 49.5658L75.6995 49.3825C75.6811 49.2541 75.6628 49.1258 75.6445 48.9974C75.5069 47.8056 75.4152 46.6138 75.3236 45.4128L75.2869 45.4219Z" fill="#8ED6C7"/>
<path d="M136.675 34.4662C137.271 33.9987 137.986 33.5953 138.499 32.981C138.637 32.816 138.921 32.6602 139.15 32.5593C139.847 32.2568 140.516 31.8992 141.195 31.5142C141.296 31.4592 141.415 31.4133 141.497 31.3492C142.332 30.6432 143.386 30.3315 144.321 29.8089C144.99 29.4606 145.715 29.213 146.338 28.7546C146.696 28.5163 147.172 28.3512 147.603 28.1771C148.254 27.9112 148.923 27.6912 149.584 27.4803L150.583 27.1594L151.6 26.8935C152.022 26.7835 152.398 26.7102 152.536 27.0311C152.618 27.2053 152.994 27.2419 153.067 27.4803C153.269 28.0945 152.856 28.718 151.875 29.0938C151.435 29.2497 150.968 29.3964 150.528 29.5797L149.272 30.1115C148.859 30.304 148.438 30.469 147.97 30.5607C147.64 30.6341 147.282 30.8174 146.961 31.0008C146.045 31.4958 145.082 31.8626 144.147 32.3026C143.844 32.4401 143.514 32.5593 143.258 32.7518C142.561 33.2469 141.837 33.6778 141.112 34.1362C140.764 34.3562 140.443 34.5671 140.067 34.7596C139.691 34.9613 139.343 35.273 138.985 35.5297C138.032 36.2265 137.152 36.9966 136.153 37.6475C135.199 38.6468 133.934 39.3894 133.1 40.5171C132.843 40.8655 132.485 41.223 132.073 41.498C131.11 42.1398 130.936 42.149 130.771 41.3514C130.734 41.1588 130.725 40.948 130.734 40.7279C130.753 40.4254 130.872 40.1412 131.229 39.7836C131.724 39.2794 132.137 38.711 132.568 38.1609C132.916 37.73 133.228 37.29 133.732 36.9416C133.916 36.8224 134.071 36.6299 134.227 36.474C134.952 35.7131 135.74 35.0347 136.675 34.4662Z" fill="#8ED6C7"/>
<path d="M154.826 22.8877C154.872 22.1909 155.055 21.2099 155.33 20.2748C155.477 19.7889 155.642 19.3122 155.816 18.8446C155.935 18.4962 156.073 18.1662 156.293 17.9278C156.495 17.717 156.586 17.4327 156.632 17.1119C156.66 16.9102 156.705 16.681 156.788 16.4976C157.191 15.6542 157.668 14.8566 158.154 14.059C158.484 13.5364 158.832 13.0413 159.273 12.6654C159.566 12.4271 159.658 12.1154 159.804 11.8036C159.969 11.4186 160.116 11.3361 160.483 11.2811C160.712 11.2444 160.813 11.1711 160.813 10.9969C160.813 10.8318 160.767 10.7035 161.042 10.4468C161.473 10.0984 161.904 9.75003 162.435 9.48416C162.949 9.21829 163.563 8.99826 164.232 9.02577C164.608 9.00743 165.287 9.13578 164.993 9.38331C164.975 9.39248 165.012 9.44749 165.03 9.45666C165.571 9.64919 166.002 9.99756 166.359 10.3826C166.946 10.6852 167.148 11.4003 167.505 11.8862C167.579 11.9778 167.661 12.1795 167.652 12.262C167.624 12.7296 168 13.3164 167.89 13.7839C167.826 14.0681 167.9 14.2698 168.01 14.4807C168.12 14.6732 168.175 14.8932 168.147 15.2141C168.019 16.736 167.294 18.1203 166.378 19.2297C165.8 19.9356 165.131 20.559 164.416 21.0724C164.095 21.3016 163.774 21.5216 163.462 21.7508L163.38 21.815C163.371 21.8059 163.407 21.8425 163.352 21.7967C163.297 21.7508 163.288 21.7325 163.242 21.705C163.169 21.65 163.114 21.6408 163.114 21.6408C163.123 21.6317 163.151 21.54 163.105 21.5125C163.086 21.5125 163.068 21.4483 163.041 21.3841C163.013 21.3016 163.031 21.3566 163.031 21.3383C163.05 21.3383 163.151 21.2649 163.224 21.2191L163.691 20.8799C164.324 20.4123 164.966 19.9448 165.635 19.523C166.414 19.0371 167.258 18.6612 168.12 18.3862C168.459 18.2762 168.761 18.1753 169.082 18.0287C170.347 17.4327 171.897 17.1944 173.354 17.6436C174.088 17.8453 174.73 18.267 175.335 18.6796C175.637 18.8904 175.903 19.1747 176.187 19.4222C176.435 19.7064 176.682 20.0089 176.884 20.339C176.994 20.5498 177.067 20.779 177.15 20.9991C177.214 21.2283 177.223 21.4666 177.287 21.6867C177.379 21.9067 177.342 22.1451 177.352 22.3743C177.352 22.4934 177.352 22.6035 177.333 22.7226C177.297 22.8327 177.251 22.9518 177.205 23.0618C177.122 23.2085 177.095 23.4102 177.012 23.5753C176.93 23.7403 176.847 23.9236 176.792 24.0795C176.673 24.4645 176.398 24.7396 176.169 25.0605C175.912 25.3447 175.601 25.5739 175.298 25.8122C174.656 26.2248 173.978 26.5548 173.281 26.8024C172.841 26.9949 172.364 27.0957 171.906 27.2149C171.448 27.3433 170.98 27.4258 170.512 27.5175C169.577 27.7375 168.633 27.8933 167.689 28.0584C167.514 28.0767 167.34 28.1042 167.166 28.1134C166.625 28.1225 166.057 28.1317 165.516 28.1409L165.553 27.545C165.782 27.6091 166.02 27.6642 166.249 27.7008C166.616 27.7558 166.983 27.82 167.349 27.8842C167.707 27.9759 168.074 28.0767 168.431 28.1959C168.679 28.2784 168.945 28.3517 169.192 28.4434C169.687 28.6268 170.219 28.7551 170.677 29.0485C170.907 29.186 171.136 29.3327 171.337 29.4886C171.53 29.6719 171.704 29.8828 171.86 30.0936C172.117 30.2678 172.337 30.497 172.557 30.7262L172.887 31.0654L173.162 31.4597C173.254 31.5972 173.373 31.7255 173.446 31.8722C173.519 32.0281 173.584 32.1748 173.602 32.3123C173.721 33.0366 173.822 33.5591 173.877 34.3017C173.904 34.7051 173.648 35.2827 173.281 35.6677C173.144 35.8053 173.015 35.9519 172.859 36.0345C172.703 36.0986 172.538 36.1353 172.383 36.117C172.337 36.1078 172.227 36.1353 172.126 36.172C172.016 36.1903 171.906 36.2086 171.86 36.2362C171.668 36.337 171.438 36.4012 171.237 36.392C171.026 36.3828 170.824 36.3553 170.632 36.3553C170.072 36.3553 169.687 36.2637 169.275 36.0711C169.137 36.007 168.844 35.9611 168.679 35.9795C167.615 36.0986 166.451 35.9061 165.323 35.5577C163.453 35.026 161.665 34.045 160.217 32.6973C160.006 32.5231 159.813 32.3123 159.603 32.1473C159.245 31.8722 158.915 31.5605 158.64 31.203C158.347 30.8546 158.072 30.497 157.842 30.1028C157.659 29.8003 157.411 29.5344 157.237 29.2319C157.32 28.9018 157.017 28.7918 156.889 28.5718C156.705 28.2692 156.623 27.9484 156.44 27.6091C156.21 27.1966 156.009 26.7107 155.871 26.234C155.614 25.4363 155.67 25.0238 156.018 24.8313C156.073 24.8038 156.137 24.7671 156.201 24.7487C156.375 24.7029 156.513 24.8038 156.678 25.143C156.889 25.5555 157.109 25.9956 157.256 26.4081C157.411 26.8574 157.595 27.2974 157.824 27.7008C158.072 28.095 158.319 28.4801 158.576 28.8468C159.355 29.947 160.253 30.8913 161.253 31.7805C161.574 32.0647 161.913 32.3398 162.28 32.569C162.628 32.8257 163.013 33.0274 163.389 33.2474C164.113 33.6416 164.911 33.8983 165.708 34.1275C166.423 34.3292 167.166 34.4759 167.872 34.6501C168.505 34.806 169.146 34.916 169.797 34.9985C170.109 35.026 170.476 35.0993 170.742 35.0993C171.007 35.1085 171.282 35.136 171.521 35.0718C171.787 35.0627 172.007 34.9251 172.19 34.806C172.502 34.5493 172.603 34.1917 172.658 33.8158C172.648 33.6141 172.667 33.4216 172.603 33.2016C172.593 32.9907 172.474 32.7707 172.401 32.5507C172.383 32.4498 172.309 32.3306 172.236 32.2939C171.759 32.0281 171.466 31.533 170.989 31.1663C169.779 30.2128 168.202 29.5802 166.579 29.1677L165.314 28.8926H165.305C164.718 28.7643 164.342 28.1776 164.471 27.5908C164.581 27.1141 164.984 26.7749 165.452 26.7382C167.111 26.6007 168.77 26.4448 170.347 26.0414C170.98 25.9222 171.558 25.6839 172.163 25.5097C172.722 25.2713 173.327 25.0788 173.831 24.7946C173.996 24.7121 174.152 24.6296 174.317 24.5379C174.455 24.437 174.583 24.327 174.72 24.217C175.005 24.0153 175.188 23.7678 175.399 23.5386C175.729 23.0985 175.986 22.6585 175.967 22.1909C175.986 22.0809 175.995 21.9617 175.949 21.8425C175.921 21.7233 175.912 21.6042 175.876 21.485C175.738 21.2558 175.683 20.9991 175.472 20.7882C175.326 20.5957 175.179 20.394 174.959 20.229C174.766 20.0548 174.574 19.8714 174.326 19.7247C173.859 19.4038 173.419 19.138 172.933 18.9913C171.961 18.6704 170.879 18.7163 169.806 19.0188C169.66 19.0646 169.513 19.1105 169.376 19.1838C168.44 19.6055 167.533 20.1281 166.634 20.7149C166.185 21.0082 165.736 21.32 165.296 21.65L164.627 22.1542L164.269 22.4293L164.058 22.5851L163.911 22.686C163.866 22.7135 163.792 22.7501 163.728 22.7868L163.627 22.8327C163.655 22.8235 163.481 22.8877 163.361 22.906C163.224 22.9243 163.077 22.9335 162.93 22.906C162.793 22.8877 162.665 22.8418 162.555 22.7868C162.481 22.741 162.518 22.7868 162.298 22.6126C162.124 22.4659 161.968 22.2367 161.904 21.9984C161.867 21.8792 161.858 21.7692 161.849 21.6683C161.849 21.6042 161.849 21.5766 161.849 21.5308C161.858 21.4483 161.867 21.3658 161.895 21.2833C161.922 21.2008 161.95 21.1183 161.986 21.0449L162.041 20.9532C162.078 20.8891 162.142 20.7974 162.179 20.7699L162.243 20.6965C162.325 20.614 162.362 20.5865 162.399 20.5498L162.591 20.394L162.912 20.1373L163.508 19.6514C163.893 19.3213 164.251 18.9821 164.581 18.6246C165.241 17.9095 165.791 17.1302 166.112 16.3143C166.561 15.2141 166.588 14.0681 166.13 12.9313C165.956 12.4912 165.663 11.9687 165.397 11.6203C165.122 11.2536 164.828 11.006 164.544 10.9144C163.948 10.676 162.931 11.2077 162.023 11.9228C161.748 12.1245 161.5 12.3996 161.253 12.6654C160.033 14.0315 159.043 15.6817 158.246 17.3961C158.044 17.8086 157.851 18.1937 157.54 18.4596C157.393 18.5879 157.219 18.8996 157.127 19.1655C156.843 19.9173 156.568 20.7057 156.531 21.5125C156.504 22.0442 156.348 22.5026 156.302 22.9977C156.302 23.0343 156.229 23.0894 156.201 23.071C156.082 22.9885 156.036 23.1077 156.045 23.3094C156.045 23.7036 156.22 24.0795 156.174 24.4554C156.119 24.9229 155.789 24.6662 155.633 24.8863C155.468 25.1521 155.211 24.6112 155 24.5746C154.964 24.5654 154.89 24.3087 154.881 24.1712C154.835 23.8595 154.808 23.5478 154.826 22.8877Z" fill="#8ED6C7"/>
<path d="M156.661 21.6953C156.661 21.6953 150.445 23.2814 151.197 27.8378C151.82 31.5875 156.844 31.1474 158.797 30.5149C156.248 27.627 156.661 21.6953 156.661 21.6953Z" fill="#8ED6C7"/>
<path d="M156.588 23.0614C156.441 23.0798 156.203 23.0981 155.974 23.1348C155.854 23.1531 155.726 23.1623 155.607 23.1898C155.524 23.2081 155.442 23.2356 155.323 23.1531C155.213 23.0706 155.158 23.1256 155.121 23.2264C155.103 23.2906 155.075 23.364 155.029 23.3823C154.818 23.4648 154.58 23.5107 154.378 23.6115C154.241 23.6757 154.103 23.7307 153.92 23.694C153.792 23.6757 153.792 23.804 153.782 23.914C153.773 24.0607 153.718 24.0424 153.517 23.8957C153.388 23.804 153.361 23.8224 153.416 23.9324C153.471 24.0424 153.544 24.1524 153.471 24.1982C153.269 24.3449 153.086 24.5099 152.921 24.675C152.866 24.7208 152.838 24.8492 152.618 24.62C152.609 24.6108 152.572 24.5925 152.563 24.5925C152.462 24.6658 152.389 24.7667 152.306 24.8492C152.426 25.0967 152.123 25.0967 152.16 25.2801C152.169 25.3167 152.141 25.3534 152.096 25.3534C151.857 25.3442 151.949 25.5643 151.738 25.5826C151.601 25.6009 151.628 25.6743 151.72 25.7568C151.802 25.8393 151.839 25.9035 151.821 25.9677C151.692 26.2885 151.692 26.6369 151.656 26.967C151.656 27.1778 151.674 27.3978 151.628 27.6179C151.564 28.0213 151.674 28.4247 151.83 28.7822C151.903 29.0022 151.995 29.2223 152.077 29.4698C152.123 29.5615 152.178 29.6257 152.279 29.6623C153.049 29.9099 153.654 30.1574 154.378 30.3591C154.488 30.3866 154.571 30.5241 154.69 30.5149C154.809 30.5058 154.91 30.4691 155.02 30.5516C155.094 30.6158 155.204 30.5883 155.295 30.5333C155.68 30.2766 156.047 30.3958 156.423 30.4141C156.67 30.4233 156.927 30.5058 157.175 30.4783C157.431 30.4691 157.67 30.3774 157.917 30.3132C157.963 30.3041 158 30.2766 158.046 30.2766C158.256 30.2766 158.486 30.3224 158.669 30.2307L158.724 30.2032L158.586 30.6983C158.44 30.5699 158.275 30.4599 158.156 30.2949C158.11 30.2307 158.046 30.1757 157.991 30.1299C157.761 29.919 157.468 29.7173 157.624 29.3139L157.385 28.8464C157.34 28.773 157.257 28.6905 157.294 28.608C157.385 28.3696 157.294 28.2505 157.028 28.1588C156.881 28.1129 156.835 27.9846 156.753 27.8837C156.698 27.8104 156.652 27.7371 156.799 27.627C156.845 27.5904 156.854 27.4987 156.808 27.4895C156.652 27.4162 156.735 27.2878 156.689 27.1962C156.625 27.0586 156.606 26.9394 156.716 26.7928C156.753 26.7469 156.725 26.6644 156.67 26.6277C156.313 26.4077 156.221 26.0868 156.129 25.766C156.001 25.2434 155.919 24.7025 155.937 24.1616C155.937 24.0882 155.937 24.0057 155.9 23.9415C155.772 23.7032 155.79 23.4556 155.79 23.2081C155.79 23.1073 155.754 23.0156 155.735 22.9147C155.964 22.8414 155.744 22.7772 155.735 22.713C155.717 22.6214 155.799 22.5297 155.754 22.4197C155.699 22.2913 155.744 22.1446 155.763 22.0071C155.772 21.8879 155.827 21.8054 155.928 21.7504C155.955 21.7412 155.983 21.7229 156.01 21.7229C156.038 21.7962 156.084 21.8696 156.139 21.9063C156.258 21.9888 156.377 21.9613 156.46 21.8971C156.515 21.8604 156.56 21.8054 156.606 21.7504C156.661 21.6862 156.707 21.6221 156.771 21.6587C156.808 21.6679 156.826 21.7412 156.845 21.7596C156.863 21.7779 156.872 21.8054 156.881 21.8237C156.927 21.9521 157.019 22.0896 156.982 22.2088C156.89 22.4747 157.019 22.7314 157.083 22.9789C157.184 23.3548 157.275 23.7123 157.294 24.0882C157.303 24.3358 157.349 24.5741 157.367 24.8217C157.395 25.0509 157.505 25.2709 157.578 25.4909C157.642 25.6926 157.734 25.8851 157.743 26.0868C157.761 26.4444 157.899 26.7744 157.954 27.1228C157.972 27.2145 157.991 27.3062 158.036 27.3795C158.201 27.6546 158.385 27.9021 158.44 28.223C158.44 28.2596 158.449 28.2963 158.495 28.3055C158.797 28.333 158.788 28.5255 158.862 28.6722C159.082 29.0389 159.302 29.3965 159.558 29.699L159.622 29.7815L160.613 31.0375L159.146 31.5326C158.513 31.7434 157.917 31.8718 157.294 31.9451C156.881 32.0001 156.469 32.0735 156.056 31.991C155.799 31.9451 155.561 32.0001 155.304 31.9818C154.846 31.9543 154.388 31.8443 153.92 31.7251C153.132 31.5326 152.297 31.2209 151.582 30.6158C151.536 30.5699 151.481 30.5424 151.417 30.5058C150.638 30.0749 150.17 29.1581 150.042 28.3421C149.877 27.5629 149.849 26.8019 149.987 26.0043C150.134 25.4818 150.335 24.9775 150.629 24.5466C150.849 24.1799 151.115 23.859 151.399 23.5657C151.555 23.419 151.711 23.2723 151.866 23.1164C152.031 22.9881 152.215 22.8781 152.407 22.7956C152.526 22.7497 152.618 22.6764 152.728 22.6122C153.242 22.2913 153.773 22.0346 154.323 21.8237C154.452 21.7687 154.598 21.7596 154.773 21.9063C154.864 21.9704 154.974 21.9796 155.048 21.9521C155.277 21.8879 155.515 21.8696 155.699 21.6954C155.818 21.5854 155.992 21.6312 156.139 21.6221C156.148 21.6221 156.184 21.6771 156.194 21.7046C156.212 21.8238 156.258 21.8513 156.313 21.8421C156.414 21.8146 156.487 21.6496 156.615 21.7504C156.67 21.8329 156.524 21.8879 156.496 21.9888C156.441 22.0805 156.487 22.2546 156.295 22.2455C156.111 22.1905 156.084 22.4288 156.469 22.6305C156.56 22.6764 156.661 22.6947 156.762 22.7039L156.89 22.713V22.7497C156.89 22.7955 156.89 22.8414 156.909 22.8872C156.918 22.9147 156.872 22.9514 156.854 22.9606C156.78 23.0064 156.716 23.0156 156.588 23.0614Z" fill="#8ED6C7"/>
<path d="M134.667 22.6211C134.74 21.4751 134.914 20.265 135.079 19.0456C135.134 18.7156 135.29 18.2205 135.492 17.8355C135.794 17.2854 136.143 16.5978 137.032 16.2219C137.472 16.0569 137.958 16.0752 138.343 16.1944C138.526 16.2586 138.719 16.3228 138.884 16.4053L139.324 16.6803C139.517 16.7903 139.636 16.9462 139.782 17.047C140.498 17.5788 141.066 18.3122 141.451 19.1006C141.836 19.8983 142.047 20.7509 142.184 21.5852C142.386 22.7678 142.313 23.9505 142.276 25.1148C142.267 25.7657 142.102 26.5175 141.955 27.2051C141.479 29.277 140.754 31.2481 139.883 33.1551C139.617 33.751 139.342 34.2461 139.113 34.2185C138.985 34.2094 138.664 34.6403 138.517 34.5944C138.132 34.4569 138.27 33.5768 138.847 32.0824C139.104 31.4132 139.379 30.7347 139.608 30.0471C140.048 28.7361 140.323 27.3976 140.681 26.0591C140.8 25.5824 140.864 24.9773 140.892 24.4455C140.983 22.9145 140.919 21.4018 140.388 20.0541C140.222 19.6232 140.002 19.1923 139.718 18.8531C139.012 17.973 137.793 17.1112 137.371 17.6246C137.069 17.8721 136.849 18.4039 136.647 18.9356C136.427 19.4949 136.344 20.1825 136.253 20.8242C136.024 22.557 136.024 24.3447 135.959 26.1324C136.079 28.2136 136.024 30.4139 136.335 32.4858C136.436 33.1276 136.5 33.8977 136.509 34.6494C136.537 36.4188 136.491 36.6114 135.996 35.9788C135.877 35.8229 135.758 35.6212 135.648 35.392C135.483 35.062 135.382 34.6586 135.308 33.9068C135.208 32.8617 135.043 31.8257 134.905 30.8173C134.795 30.0013 134.685 29.2312 134.694 28.3236C134.694 28.0027 134.667 27.6452 134.639 27.3151C134.52 25.8116 134.502 24.2622 134.667 22.6211Z" fill="#8ED6C7"/>
<path d="M145.53 39.9765C146.309 40.0957 147.18 40.2607 147.941 40.0498C148.143 40.004 148.464 40.0132 148.702 39.9673L149.252 39.9032L149.766 39.7473C150.132 39.674 150.407 39.4264 150.737 39.2522C150.829 39.1881 150.912 39.1239 150.985 39.0505C151.159 38.8672 151.242 38.7022 151.297 38.6013C151.287 38.528 151.315 38.6013 151.269 38.4913C151.132 38.2713 150.618 37.9596 150.114 37.8037C149.39 37.5562 148.592 37.3178 147.776 37.2536C147.318 37.217 146.786 37.1069 146.291 37.0336C144.787 36.7952 143.266 36.6302 141.734 36.5019C141.258 36.4652 140.845 36.4193 140.799 36.1993C140.772 36.0801 140.387 35.9701 140.368 35.8143C140.332 35.4109 141.01 35.1267 142.257 35.1633C142.816 35.1817 143.385 35.2367 143.944 35.2825C145.017 35.3742 146.098 35.4017 147.162 35.6951C147.538 35.7959 148.015 35.8509 148.445 35.9334C149.06 36.0343 149.665 36.1901 150.27 36.401C150.866 36.621 151.471 36.8594 152.058 37.3636C152.241 37.5287 152.433 37.7487 152.543 38.0512C152.672 38.3446 152.663 38.7113 152.58 38.9955C152.333 39.7473 151.865 40.0773 151.434 40.4166L150.728 40.8658C150.481 40.9941 150.215 41.0766 149.958 41.1775C149.711 41.2875 149.463 41.3425 149.216 41.3792C148.968 41.425 148.711 41.4892 148.455 41.4892C147.923 41.4984 147.354 41.5717 146.804 41.5259C145.365 41.4434 143.962 41.1317 142.651 40.6091C141.056 40.1782 139.58 39.2981 138.076 38.6655C137.609 38.473 137.086 38.1704 136.61 37.822C135.509 36.9694 135.454 36.8136 136.124 36.7586C136.28 36.7402 136.472 36.7494 136.674 36.7677C136.967 36.7861 137.251 36.9052 137.746 37.1803C138.434 37.5745 139.158 37.8587 139.864 38.1246C140.433 38.3354 140.983 38.5188 141.579 38.803C141.789 38.9039 142.046 38.9864 142.275 39.0597C143.348 39.3806 144.402 39.6831 145.53 39.9765Z" fill="#8ED6C7"/>
<path d="M55.8853 107.578L57.4439 146.038C57.4439 146.038 46.0115 147.074 46.3599 136.512C46.7082 125.941 56.6646 128.609 56.6646 128.609" fill="#8ED6C7"/>
<path d="M58.3422 131.536C58.443 133.497 58.4522 135.606 58.8097 137.586C58.9014 138.118 58.9014 138.943 58.8831 139.594C58.8281 141.547 58.8006 143.491 58.8922 145.507C58.8922 145.663 58.8922 145.828 58.9014 145.984V146.067C58.9106 146.818 58.3238 147.433 57.5904 147.479C57.3795 147.488 57.242 147.488 57.0953 147.506C54.0608 147.772 50.907 146.938 48.3308 144.884C47.414 144.187 46.6989 143.215 46.1397 142.207C45.8371 141.712 45.6904 141.153 45.4521 140.621C45.232 140.089 45.1587 139.539 44.9937 138.989C44.7095 137.77 44.737 136.303 44.9203 135.001C45.1862 133.03 45.8921 130.885 47.5057 129.28C48.2758 128.464 49.2843 127.905 50.2836 127.502C51.3012 127.135 52.3464 126.952 53.364 126.906C54.6292 126.851 55.7018 127.062 55.7843 127.502C55.8393 127.74 56.7653 128.088 56.7286 128.418C56.6736 128.822 56.2611 129.079 55.5643 129.244C54.8675 129.418 53.8499 129.491 52.6489 129.739C51.5762 129.959 50.5769 130.344 49.816 131.013C49.1101 131.673 48.6517 132.553 48.3125 133.525C48.1933 134.038 48.0558 134.552 47.9458 135.084C47.8907 135.634 47.7716 136.193 47.7074 136.752C47.6799 137.146 47.6891 137.596 47.7074 138.054C47.7441 138.503 47.8907 138.925 47.9733 139.347C48.34 140.483 48.7984 141.547 49.6143 142.354C50.4119 143.17 51.4387 143.811 52.6122 144.242C53.3457 144.545 54.1799 144.728 54.9684 144.811C55.7568 144.857 56.6278 144.866 57.3429 144.802L56.2152 146.094C56.1327 144.692 56.0685 143.289 56.0135 141.877C55.9768 140.786 55.9127 139.732 55.9218 138.622C55.931 137.476 55.8027 136.248 55.7385 135.056C55.5735 131.902 55.3168 128.758 55.2984 125.586C54.895 121.918 55.0326 118.031 54.5283 114.364C54.3725 113.227 54.29 111.87 54.3358 110.532C54.4641 107.415 54.6017 107.076 55.5093 108.231C55.7293 108.506 55.9402 108.872 56.1419 109.285C56.4261 109.872 56.6003 110.578 56.6828 111.898C56.802 113.731 57.0678 115.538 57.3062 117.307C57.4987 118.728 57.7096 120.076 57.7188 121.653C57.7188 122.221 57.8013 122.835 57.8654 123.413C58.1496 126.044 58.3238 128.703 58.3422 131.536Z" fill="#8ED6C7"/>
<path d="M66.6336 153.578L65.5977 122.049C65.5977 122.049 75.0131 117.695 76.425 125.432C77.8093 133.014 66.0285 133.894 66.0285 133.894" fill="#8ED6C7"/>
<path d="M64.4781 133.187C64.3956 131.519 64.4139 129.722 64.0839 128.035C63.9922 127.576 64.0105 126.88 64.038 126.329C64.1022 124.927 64.148 123.533 64.1297 122.094V122.03C64.1205 121.443 64.4689 120.93 64.9823 120.71C65.294 120.572 65.5415 120.48 65.8258 120.37C66.0825 120.269 66.385 120.214 66.6142 120.104C67.806 119.609 69.0895 119.344 70.4464 119.307C71.7941 119.279 73.2701 119.509 74.6361 120.26C74.8837 120.361 75.1037 120.535 75.3146 120.71C75.5254 120.884 75.7455 121.049 75.9471 121.241C76.268 121.663 76.6714 122.076 76.9006 122.543C77.4323 123.478 77.6982 124.404 77.9824 125.376C78.2666 126.458 78.1749 127.952 77.6432 129.19C76.8548 131.088 75.3054 132.353 73.8019 133.169C72.2708 133.994 70.6756 134.48 69.0895 134.819C68.0994 135.03 67.2193 135.103 67.0451 134.691C66.9442 134.471 66.1191 134.379 66.055 134.067C65.9083 133.251 67.0909 132.619 69.2637 131.949C70.2355 131.638 71.2073 131.308 72.0691 130.849C72.8851 130.4 73.6002 129.85 74.1136 129.217C74.6453 128.594 74.957 127.934 75.1862 127.164C75.3421 126.614 75.2596 125.834 75.0029 125.174C74.7553 124.184 74.2878 123.442 73.6552 122.919C73.0226 122.387 72.1241 122.094 71.1065 122.03C70.4647 121.975 69.7496 122.011 69.0987 122.167C68.0994 122.415 67.0359 122.772 66.1375 123.185L66.8709 121.993C66.8984 122.781 66.9259 123.579 66.9626 124.377C66.9901 125.303 67.0359 126.201 67.0084 127.145C66.9809 128.117 67.1001 129.162 67.1459 130.18C67.2743 132.866 67.4852 135.543 67.4668 138.239C67.8244 141.365 67.641 144.665 68.0994 147.792C68.2369 148.763 68.3103 149.919 68.2369 151.046C68.0719 153.705 67.9252 153.989 67.0359 152.999C66.8251 152.761 66.6142 152.449 66.4125 152.101C66.1283 151.605 65.9724 151 65.8991 149.873C65.8074 148.305 65.5599 146.774 65.3399 145.27C65.1657 144.06 64.9731 142.914 64.9823 141.576C64.9915 141.09 64.909 140.567 64.854 140.081C64.5973 137.863 64.4597 135.598 64.4781 133.187Z" fill="#8ED6C7"/>
<path d="M29.9064 60.1351C34.4995 62.152 33.1977 57.4672 34.0686 52.6632C36.1497 41.1025 39.7252 38.6913 37.6441 33.8231C35.563 28.955 32.6293 31.4486 31.0157 38.9572C29.2096 47.3366 27.101 58.8974 29.9064 60.1351Z" fill="#8ED6C7"/>
<path d="M32.4072 60.0703C32.5539 60.0245 32.6273 59.8594 32.7556 59.7586C32.8381 59.6027 32.939 59.4652 33.0032 59.291C33.1407 58.9518 33.2324 58.5851 33.324 58.2092C33.4707 57.54 33.5716 56.8615 33.5624 56.1464C33.5624 55.9631 33.5899 55.7614 33.5991 55.578L33.6724 54.5329C33.6816 54.377 33.6633 54.2028 33.6908 54.0561C33.8283 53.3411 33.9658 52.6259 34.0391 51.9109C34.2408 51.3699 34.2683 50.8107 34.3692 50.2515C34.47 49.6922 34.6167 49.133 34.6809 48.5646C34.6992 48.4179 34.7359 48.2437 34.7909 48.1062C35.0843 47.2352 35.3226 46.3459 35.561 45.4566C35.8361 44.5032 36.1661 43.5772 36.5695 42.6696C36.7803 42.1929 36.9637 41.6703 37.1379 41.166C37.3488 40.561 37.5229 39.9559 37.688 39.3416C37.9355 38.4615 38.0914 37.5447 38.018 36.6554C37.9447 35.4636 37.5046 34.3359 36.927 33.3091C36.7895 33.0433 36.6153 32.8141 36.4595 32.5574C36.2761 32.3465 36.1111 32.099 35.8911 31.9615C35.0843 31.228 33.9658 32.1173 33.3607 33.1625C32.8656 33.9326 32.5081 34.8218 32.2147 35.7111C31.9397 36.5454 31.7288 37.4072 31.5455 38.269C31.0046 40.8452 30.5278 43.4489 30.1061 46.0526L29.8402 47.932L29.7027 48.8671C29.5194 50.0223 29.3543 51.1866 29.2351 52.3509C29.0701 54.0103 28.9784 55.688 29.1343 57.3016C29.1893 57.7508 29.2535 58.2092 29.391 58.6034C29.5194 59.0068 29.7302 59.3644 29.9778 59.5111C30.1153 59.5661 30.1336 59.6486 30.0419 59.7128C29.8677 59.8228 29.6019 59.9603 29.226 59.6394C28.9784 59.4194 28.7859 59.1443 28.7034 58.7593C28.5751 58.2 28.4009 57.6041 28.4742 57.0449C28.4834 56.9624 28.4742 56.8524 28.4559 56.7607C28.2267 55.1013 28.4192 53.4327 28.6117 51.7825L28.7859 50.1598L28.9326 49.1146L29.1801 47.6019C29.2351 47.2169 29.2626 46.8502 29.4277 46.5201C29.4643 46.4559 29.4919 46.2542 29.4735 46.1809C29.4185 45.8967 29.4827 45.585 29.5469 45.2733L30.0511 42.7429C30.1703 42.1195 30.2803 41.4961 30.3903 40.8635C30.5553 39.8917 30.6837 38.9291 30.8854 37.9481C31.0504 37.1322 31.2704 36.3254 31.5271 35.5278C31.5913 35.3444 31.6188 35.1519 31.6921 34.9685C31.8205 34.6385 31.9305 34.2718 32.1047 33.9784C32.3156 33.6575 32.4256 33.3917 32.5264 33.0433C32.5906 32.8507 32.7465 32.5665 32.9023 32.3557C33.1223 32.0898 33.3332 31.8331 33.6266 31.6222C33.7824 31.4939 33.9475 31.3747 34.14 31.2739C34.2317 31.2189 34.3233 31.1638 34.415 31.0997C34.5159 31.0447 34.6351 31.008 34.7451 30.953C34.9834 30.8063 35.4143 30.8521 35.6985 30.953C36.3678 31.1822 36.7162 31.6956 37.0921 32.1356L37.5413 32.8599L37.9172 33.6025C38.5864 34.9594 38.8523 36.5821 38.6231 38.104C38.5314 38.6999 38.3847 39.2775 38.2289 39.8459C37.7063 41.5969 37.0462 43.238 36.4778 44.9249C36.3678 45.2549 36.2394 45.585 36.1661 45.9242C35.9827 46.6943 35.7535 47.4461 35.5335 48.207C35.2493 49.1146 35.0843 50.0498 34.9284 50.9849C34.8918 51.2049 34.8734 51.425 34.8276 51.6358C34.4334 53.1302 34.3875 54.5879 34.2775 56.1189C34.2225 56.7332 34.1767 57.3566 34.0758 57.9892C33.9841 58.6218 33.8558 59.2727 33.5166 59.9236C33.269 60.4095 32.719 60.9229 32.1047 60.9413C31.8205 60.9871 31.5455 60.9413 31.2796 60.9046C31.0321 60.8312 30.7754 60.7762 30.537 60.6937L30.3536 60.6295C29.8311 60.4003 29.7302 60.217 30.0511 60.1161C30.3353 60.0061 30.6837 60.0978 31.1237 60.1712C31.6096 60.3087 32.0955 60.3178 32.4347 60.0886L32.4072 60.0703Z" fill="#8ED6C7"/>
<path d="M31.2925 64.275C27.6162 64.3667 27.6987 67.4379 29.0831 68.7398C30.4674 70.0416 33.1536 69.3449 33.6303 67.2638C34.1071 65.1826 33.0253 64.2292 31.2925 64.275Z" fill="#8ED6C7"/>
<path d="M30.611 64.6667C30.4185 64.6667 30.2168 64.6483 30.0151 64.6575C29.8409 64.6667 29.6392 64.6483 29.5201 64.8042C29.4834 64.8409 29.4375 64.85 29.3917 64.8775C29.3092 64.9142 29.2359 64.96 29.1808 65.0242C29.1533 65.0517 29.1442 65.1067 29.1075 65.1159C28.915 65.1617 28.7958 65.3084 28.7316 65.4826C28.5941 65.556 28.5574 65.7026 28.5391 65.8402C28.5207 65.9777 28.4382 66.0969 28.4932 66.2527C28.5024 66.2894 28.5024 66.3261 28.4841 66.3627C28.3741 66.5644 28.4016 66.7936 28.4474 67.0137C28.4932 67.2429 28.5391 67.4721 28.5574 67.7288C28.5574 67.8663 28.6399 67.9855 28.7041 68.1046C28.7958 68.233 28.8966 68.3613 29.0158 68.4714C29.1717 68.6364 29.3642 68.7739 29.5842 68.8289C29.8684 68.9206 30.1618 68.9298 30.4369 68.9389C30.5744 68.9298 30.7119 68.9848 30.8586 68.9848C31.1428 69.0123 31.4453 69.0031 31.7295 68.9206C31.9496 68.8656 32.1512 68.7556 32.3254 68.618C32.4905 68.4989 32.628 68.3338 32.738 68.1688C33.1139 67.7104 33.2147 67.1053 33.2239 66.4911C33.2147 66.3536 33.1964 66.216 33.1597 66.0877C33.1505 66.0235 33.1322 65.9685 33.123 65.9043C33.0864 65.6751 33.0039 65.4735 32.8663 65.3176C32.6646 65.0976 32.3621 64.9417 32.0046 64.8684C31.8029 64.8225 31.5828 64.795 31.3628 64.8592C31.2986 64.8775 31.2803 64.8225 31.2986 64.7125C31.3353 64.52 31.3628 64.3275 31.4912 64.2083C31.5737 64.1258 31.6562 64.0799 31.7662 64.1166C31.9129 64.1624 32.0962 64.1166 32.2154 64.2541C32.2338 64.2724 32.2613 64.2816 32.2888 64.2816C32.7563 64.2725 33.2056 64.575 33.4623 64.9692C33.5539 65.0884 33.6456 65.2168 33.719 65.3634C33.7556 65.4551 33.8015 65.5468 33.8198 65.6476C33.8473 65.7943 33.8656 65.9318 33.884 66.0694C33.9023 66.1702 33.9482 66.2802 33.829 66.3719C33.8015 66.3902 33.8106 66.4453 33.8381 66.4636C33.9482 66.5369 33.9207 66.6286 33.9115 66.7203C33.884 66.9587 33.8198 67.1787 33.7648 67.4079C33.719 67.5821 33.6823 67.7563 33.6181 67.9213C33.5448 68.1872 33.4256 68.4622 33.2514 68.7006C33.1139 68.9023 32.9305 69.0764 32.738 69.2231C32.6922 69.2598 32.6555 69.3056 32.6096 69.3423C32.5271 69.4065 32.4355 69.4707 32.3346 69.489C32.2154 69.5073 32.1421 69.5257 32.0779 69.6449C32.0412 69.709 31.9496 69.7365 31.8762 69.7549C31.7845 69.7732 31.6745 69.7549 31.5828 69.7457C31.4637 69.7365 31.3628 69.709 31.2528 69.7915C31.1978 69.8374 31.1061 69.8282 31.0328 69.8099C30.7119 69.709 30.4093 69.709 30.0885 69.654C29.6576 69.599 29.2175 69.4615 28.8416 69.1865C28.6766 69.0948 28.5758 68.9481 28.4382 68.8289C28.0715 68.4072 27.8515 67.8846 27.7782 67.3437C27.7506 67.2429 27.7598 67.1328 27.7231 67.0228C27.6406 66.7845 27.6681 66.5278 27.7323 66.2802C27.8148 65.9869 27.8698 65.6935 27.9798 65.4001C28.0074 65.3359 28.0257 65.2534 28.0715 65.1984C28.3924 64.8225 28.7041 64.4008 29.1533 64.2083C29.5017 64.0433 29.8868 63.9699 30.2352 63.9607C30.5102 63.9241 30.7852 63.9607 31.0511 63.9883C31.0694 63.9883 31.0878 63.9791 31.1061 63.9791C31.262 63.9974 31.3078 64.1258 31.2436 64.3458C31.1886 64.5292 31.1061 64.6483 30.9869 64.6483C30.8586 64.6575 30.7119 64.6392 30.5835 64.6575L30.611 64.6667Z" fill="#8ED6C7"/>
<path d="M46.4906 70.4784C49.3602 69.1124 48.2142 66.7196 46.6648 66.1787C45.1155 65.6377 43.236 67.1321 43.5936 68.9382C43.942 70.7534 45.1338 71.1202 46.4906 70.4784Z" fill="#8ED6C7"/>
<path d="M46.8654 69.8911C47.0212 69.8269 47.1862 69.7719 47.3421 69.7077C47.4796 69.6436 47.6538 69.5977 47.6905 69.4235C47.6997 69.3869 47.7363 69.3594 47.7638 69.3227C47.8097 69.2677 47.8555 69.2035 47.8738 69.1302C47.883 69.1027 47.8647 69.0477 47.8922 69.0293C48.0297 68.9285 48.0755 68.7726 48.0572 68.6168C48.1489 68.5159 48.1214 68.3876 48.0847 68.2684C48.048 68.1584 48.0664 68.03 47.9655 67.9383C47.938 67.9108 47.9288 67.8833 47.9288 67.8467C47.9563 67.6541 47.8463 67.4799 47.7363 67.3333C47.6171 67.1682 47.5071 67.0032 47.4154 66.8015C47.3696 66.6915 47.2596 66.6273 47.1771 66.554C47.0579 66.4806 46.9295 66.4256 46.8012 66.3798C46.6178 66.3064 46.4161 66.2698 46.2328 66.3156C45.9761 66.3523 45.7469 66.4623 45.536 66.554C45.426 66.609 45.3068 66.6182 45.1968 66.664C44.9676 66.7373 44.7292 66.8382 44.5367 67.0032C44.39 67.1224 44.2708 67.2782 44.1883 67.4433C44.1058 67.5991 44.06 67.7733 44.0325 67.9383C43.9133 68.4242 44.0416 68.9101 44.2525 69.3869C44.3075 69.4877 44.3717 69.5886 44.445 69.6711C44.4725 69.7169 44.5092 69.7536 44.5367 69.7994C44.6376 69.9553 44.7567 70.0836 44.9126 70.157C45.1326 70.2578 45.4077 70.2762 45.7102 70.212C45.8752 70.1845 46.0586 70.1295 46.2053 70.0011C46.2419 69.9644 46.2786 70.0011 46.3153 70.1111C46.3611 70.2945 46.4253 70.487 46.3703 70.6337C46.3336 70.7346 46.2878 70.8171 46.1869 70.8171C46.0494 70.8262 45.9302 70.9454 45.7744 70.8629C45.756 70.8537 45.7285 70.8629 45.7102 70.8721C45.3435 71.0646 44.8759 70.9729 44.5275 70.7437C44.4084 70.6795 44.2892 70.6062 44.1792 70.5237C44.115 70.4595 44.0508 70.4045 43.9958 70.3312C43.9225 70.2303 43.8583 70.1203 43.7941 70.0103C43.7391 69.9369 43.6658 69.8636 43.7391 69.7444C43.7574 69.7169 43.7299 69.6802 43.7024 69.6711C43.5741 69.6527 43.5649 69.5702 43.5466 69.4969C43.4824 69.2952 43.4549 69.1027 43.4274 68.901C43.4091 68.7451 43.3632 68.5984 43.3541 68.4426C43.3174 68.195 43.299 67.9383 43.3541 67.6816C43.3907 67.4708 43.4732 67.2691 43.5741 67.0766C43.5924 67.0307 43.6016 66.9757 43.6291 66.9299C43.6749 66.8474 43.7208 66.7648 43.8033 66.719C43.895 66.6732 43.95 66.6182 43.95 66.499C43.95 66.4256 44.0141 66.3706 44.0691 66.334C44.1425 66.2789 44.2342 66.2606 44.3167 66.2423C44.4175 66.2148 44.5092 66.2056 44.5642 66.0956C44.5917 66.0314 44.6742 66.0131 44.7384 66.0039C45.041 65.9764 45.2793 65.8756 45.5544 65.793C45.9119 65.683 46.3245 65.628 46.7278 65.7014C46.8929 65.7197 47.0304 65.793 47.1862 65.8481C47.6355 66.0497 48.0022 66.3981 48.2497 66.8107C48.3047 66.884 48.3414 66.9757 48.4056 67.049C48.5614 67.2141 48.6348 67.4341 48.6623 67.6541C48.699 67.92 48.7631 68.1767 48.7906 68.4609C48.7906 68.5251 48.809 68.5984 48.7906 68.6534C48.6623 69.0752 48.5706 69.5336 48.2681 69.8544C48.0389 70.1111 47.7547 70.3037 47.4796 70.432C47.2688 70.5512 47.0396 70.6154 46.8104 70.6887C46.792 70.6979 46.7829 70.707 46.7737 70.7162C46.6453 70.7529 46.5537 70.652 46.517 70.432C46.4803 70.2395 46.4986 70.1111 46.5903 70.0653C46.6912 70.0103 46.8104 69.9828 46.902 69.9186L46.8654 69.8911Z" fill="#8ED6C7"/>
<path d="M46.3432 61.3485C49.4603 62.3294 49.6528 60.505 52.5774 54.6559C55.5019 48.8068 56.9963 44.2595 56.0245 40.8215C55.0527 37.3744 52.5132 37.4385 50.3679 44.4612C48.7818 49.641 44.0695 60.6334 46.3432 61.3485Z" fill="#8ED6C7"/>
<path d="M48.4426 61.1013C48.9377 60.8996 49.3503 60.4045 49.7353 59.9186C50.0745 59.4785 50.3862 59.0018 50.5788 58.4609C50.6338 58.3234 50.7163 58.1859 50.7804 58.0392L51.1472 57.2691C51.2022 57.1499 51.2205 57.0124 51.2847 56.9115C51.5964 56.4073 51.8623 55.8847 52.064 55.3255C52.3482 54.9496 52.4949 54.5187 52.669 54.0878C52.8524 53.6661 53.0724 53.2444 53.2008 52.8043C53.2375 52.6851 53.2925 52.5568 53.3566 52.4559C53.7325 51.8142 54.0076 51.1174 54.2826 50.4206C54.5668 49.6689 54.8785 48.9354 55.1994 48.202C55.3827 47.8169 55.5019 47.386 55.6211 46.9643C55.7586 46.4601 55.8595 45.9559 55.942 45.4425C56.0703 44.709 56.1437 43.9573 56.0795 43.2238C56.0153 42.2428 55.8045 41.2802 55.4378 40.4093C55.2361 39.9875 55.0435 39.5383 54.7502 39.2449C54.4568 38.9516 54.1176 38.8966 53.7325 39.0616C53.3383 39.2174 53.0083 39.6117 52.6965 39.9784C52.2565 40.5835 51.8989 41.2619 51.6147 41.977C51.3397 42.6371 51.1197 43.3247 50.918 44.0123C50.3221 46.0842 49.607 48.1562 48.9285 50.2006C48.7727 50.6957 48.6168 51.1907 48.461 51.6858L48.2134 52.4192C47.8926 53.3269 47.5717 54.2253 47.2875 55.1421C46.8841 56.444 46.5174 57.7733 46.3248 59.0752C46.2698 59.4419 46.2332 59.8086 46.2607 60.1478C46.2698 60.4778 46.3982 60.7896 46.4807 60.7987C46.5174 60.7896 46.5082 60.8629 46.4624 60.9454C46.3707 61.0829 46.0956 61.2755 45.8114 60.9362C45.6464 60.7162 45.5272 60.4503 45.5547 60.1203C45.5822 59.6436 45.5456 59.1485 45.7289 58.7084C45.7564 58.6443 45.7656 58.5526 45.7748 58.4792C45.8848 57.1132 46.3432 55.8205 46.7557 54.5279L47.1408 53.2535L47.4158 52.4376C47.5533 52.0434 47.7092 51.6583 47.8375 51.2549C47.9384 50.9524 48.0026 50.659 48.2043 50.4298C48.2501 50.384 48.2959 50.2281 48.2868 50.1639C48.2593 49.9164 48.3601 49.678 48.4518 49.4397L49.1761 47.4686C49.3503 46.9827 49.4969 46.4876 49.6436 45.9925C49.8453 45.2224 50.0562 44.434 50.2579 43.6639C50.4321 43.0038 50.6796 42.362 50.9271 41.7294C50.9821 41.5828 51.0372 41.4269 51.0922 41.2802C51.2022 41.0052 51.3397 40.721 51.4955 40.4918C51.6697 40.2351 51.8164 40.0425 51.8989 39.7492C51.9356 39.5842 52.1098 39.3733 52.2565 39.2083C52.4307 38.9882 52.6782 38.8232 52.9166 38.6582C53.2283 38.4748 53.5217 38.3556 53.925 38.1906C54.1542 38.1356 54.5026 38.1631 54.741 38.3006C55.2452 38.5848 55.5569 38.9974 55.7861 39.4191C56.0245 39.8317 56.1804 40.2717 56.3362 40.7026C56.7121 41.8945 56.8129 43.1688 56.7213 44.3973C56.6754 44.8832 56.6112 45.3599 56.5104 45.8367C56.2354 47.3127 55.722 48.7154 55.1536 50.0814C55.0435 50.3473 54.9243 50.6223 54.8327 50.8882C54.6218 51.5116 54.3468 52.1075 54.0442 52.6943C53.6775 53.391 53.375 54.1153 53.0541 54.8396C52.9808 55.0046 52.9257 55.1788 52.8341 55.3346C52.229 56.4256 51.7889 57.5991 51.2205 58.7176C50.7346 59.6161 50.267 60.5512 49.4144 61.3396C49.0936 61.6513 48.6168 61.8622 48.1676 61.9264C47.7 62.0089 47.2783 61.8989 46.8749 61.8164C46.8199 61.8072 46.7649 61.798 46.7191 61.7797C46.279 61.6238 46.1873 61.4588 46.444 61.3213C46.6732 61.1929 46.9666 61.1746 47.3333 61.2296C47.7275 61.2755 48.1126 61.2755 48.4518 61.1288L48.4426 61.1013Z" fill="#8ED6C7"/>
<path d="M10.5147 44.6148C10.4964 44.899 10.4414 45.2015 10.5881 45.4949C10.6247 45.5774 10.5972 45.6874 10.5697 45.7791C10.4872 46.0541 10.4139 46.3384 10.4322 46.6317C10.4322 46.6776 10.4139 46.7234 10.4322 46.7601C10.5789 47.1543 10.4414 47.5577 10.5055 47.9611C10.5422 48.2361 10.5147 48.5295 10.6706 48.7954C10.7531 48.942 10.7531 49.1254 10.7714 49.2996C10.8448 49.813 10.9089 50.3264 11.019 50.8398C11.0465 50.9957 11.0556 51.1423 10.8173 51.234C10.6797 51.289 10.6156 51.4449 10.4322 51.5091C9.9738 51.6649 9.56124 51.5366 9.38705 51.1148C9.31371 50.9223 9.25871 50.7206 9.21287 50.5281C9.12119 50.1522 8.92866 49.7855 9.002 49.3729C9.02951 49.2262 8.9745 49.0612 8.93783 48.9054C8.81864 48.4745 8.86448 48.0252 8.87365 47.5852C8.87365 47.4477 8.91032 47.301 8.87365 47.1635C8.80031 46.8059 8.77281 46.4484 8.78197 46.0908C8.78197 45.9166 8.77281 45.7516 8.81865 45.5774C8.86449 45.4032 8.81865 45.2015 8.81865 45.0182C8.82782 44.5231 8.80031 44.0097 8.93783 43.5238C8.86448 42.9187 9.14869 42.3503 9.07535 41.7269C9.04784 41.5344 9.09369 41.3143 9.21287 41.1218C9.50624 40.6634 9.62542 40.6267 10.0471 40.9935C10.1663 41.0576 10.258 41.1493 10.3497 41.2502C10.478 41.3785 10.5239 41.5069 10.4964 41.6994C10.4505 41.9653 10.5055 42.2586 10.5514 42.5337C10.5881 42.7537 10.6431 42.9646 10.5697 43.1846C10.5422 43.2671 10.5605 43.3588 10.5697 43.4413C10.6247 43.8263 10.6064 44.2114 10.5147 44.6148Z" fill="#8ED6C7"/>
<path d="M16.4667 25.7828C16.7326 25.3611 17.1635 25.0035 17.3744 24.4993C17.4294 24.3617 17.6127 24.2334 17.7594 24.1326C18.2178 23.8117 18.6304 23.5275 19.0429 23.2433C19.1071 23.1974 19.1896 23.1608 19.2355 23.1149C19.3638 22.9774 19.5105 22.8582 19.6572 22.7574C19.8222 22.6657 19.9872 22.5923 20.1614 22.5098C20.5098 22.3723 20.8307 22.189 21.1882 22.0881C21.4357 22.0056 21.6925 21.9414 21.94 21.8589C22.1875 21.7764 22.4442 21.6939 22.7009 21.6297C22.9851 21.538 23.3427 21.5197 23.6636 21.4922C24.6354 21.5105 25.6072 21.6114 26.4964 21.9323C26.7806 22.0148 27.019 22.1064 26.9732 22.3631C26.9457 22.5098 27.1382 22.6657 27.0832 22.849C26.9457 23.3166 26.4873 23.5733 25.8639 23.4725C25.5796 23.4358 25.3046 23.3074 25.0204 23.3258C24.4795 23.3258 23.9569 23.3166 23.416 23.2891C23.2235 23.2616 22.9851 23.3166 22.7834 23.3533C22.215 23.5641 21.6099 23.6191 21.0599 23.885C20.8765 23.9584 20.684 24.0225 20.519 24.1234C20.1431 24.4809 19.7122 24.7285 19.3363 25.0952C19.1529 25.2602 18.9879 25.4252 18.7771 25.5719C18.5662 25.7278 18.4287 25.9845 18.2545 26.1862C18.0161 26.452 17.8236 26.7637 17.6219 27.0663C17.411 27.3597 17.2185 27.6622 16.9985 27.9556C16.6776 28.744 16.1092 29.4683 15.9625 30.3301C15.9167 30.5959 15.8158 30.8893 15.6508 31.146C15.2657 31.7511 15.1741 31.7878 14.7615 31.3752C14.6698 31.2744 14.5873 31.146 14.514 31.0177C14.4131 30.8251 14.404 30.6326 14.5048 30.3209C14.6607 29.89 14.7248 29.4316 14.8348 28.9915C14.9082 28.634 14.9907 28.2856 15.2107 27.9647C15.2932 27.8456 15.3391 27.6897 15.3849 27.5522C15.6416 26.9196 15.9717 26.3237 16.4667 25.7828Z" fill="#8ED6C7"/>
<path d="M19.3905 96.3499C19.4913 95.8273 19.693 95.0481 20.0322 94.3146C20.1973 93.9296 20.4081 93.5628 20.6465 93.2053C20.8024 92.9394 20.9674 92.6827 21.2608 92.5727C21.5175 92.4719 21.6275 92.2518 21.7191 91.986C21.7925 91.8301 21.875 91.6376 22.0125 91.5184L22.4617 91.1242C22.6268 91.0142 22.801 90.9133 22.966 90.8125C23.3052 90.6108 23.6352 90.4091 24.002 90.2807C24.4695 90.0882 24.9371 89.8957 25.4138 89.9782C25.7255 90.0149 25.9181 89.8315 26.1473 89.6573C26.4315 89.4373 26.5506 89.5198 26.8165 89.7765C26.9724 89.9415 27.0732 89.9507 27.1466 89.7948C27.2199 89.6298 27.2382 89.474 27.5224 89.4556C27.9258 89.4006 28.32 89.4189 28.7143 89.4373L29.8969 89.5015C30.117 89.529 30.5112 89.5106 30.3462 89.8773C30.337 89.8957 30.3553 89.9507 30.3737 89.9507L31.4371 90.1524C31.8864 89.9048 32.3356 90.2807 32.794 90.2532C32.8857 90.2441 33.0324 90.2899 33.069 90.3449C33.2982 90.6841 33.8208 90.6199 34.05 90.9133C34.1967 91.1058 34.3525 91.115 34.5451 91.0417C34.7193 90.9775 34.8934 90.9683 35.1043 91.06C36.0944 91.5001 37.0571 92.0593 37.8639 92.8111C38.3864 93.2695 38.8173 93.8287 39.1382 94.4338C39.6974 95.5339 40.11 96.6891 40.2475 97.8993C40.3209 98.596 40.2383 99.2928 40.0733 99.9529C40.0091 100.219 39.9725 100.448 39.9816 100.714C40.0733 102.859 38.964 105.014 37.3229 106.48C37.0571 106.691 36.7362 106.82 36.4795 107.021C36.232 107.241 36.0211 107.471 35.6727 107.571C35.4435 107.654 35.1868 107.819 35.0035 107.993C34.5817 108.387 34.05 108.635 33.4908 108.772C32.9407 108.91 32.3906 108.928 31.8497 109.002C31.1254 109.029 30.4103 108.992 29.6861 108.928C28.9618 108.882 28.21 108.809 27.4766 108.58C27.3391 108.552 27.2016 108.507 27.0824 108.433C26.5231 108.112 26.0556 107.654 25.6338 107.205L25.313 106.893L25.0471 106.535C24.8546 106.297 24.7354 106.022 24.6345 105.729C24.552 105.527 24.497 105.325 24.4329 105.124C24.1303 104.335 24.002 103.418 24.497 102.712L24.607 102.025L24.7812 101.346C24.8271 101.117 24.8729 100.842 25.0104 100.695C25.368 100.283 25.4963 99.9162 25.4597 99.3753C25.4413 99.0819 25.6338 98.7519 25.7439 98.4402C25.8264 98.211 25.9639 98.0093 26.2298 97.991C26.3123 97.9818 26.4773 97.8168 26.4956 97.7343C26.569 97.4042 26.8715 97.2667 27.0365 97.0467C27.3116 96.7441 27.5591 96.5058 27.9533 96.4507C28.0817 96.4324 28.265 96.2857 28.3292 96.1665C28.8151 95.4148 29.8144 94.8922 30.9971 94.993C31.9597 95.0572 32.9132 95.6715 33.3899 96.4232C33.8758 97.175 34.16 97.9451 34.2425 98.7611C34.2884 98.9811 34.3067 99.2194 34.3434 99.4486C34.5451 100.2 34.3342 101.136 33.8483 101.86C33.6833 102.153 33.4724 102.428 33.2616 102.685C32.8948 102.621 32.9132 102.987 32.7207 103.125C32.464 103.327 32.1706 103.391 31.8955 103.593C31.5472 103.831 31.1071 103.932 30.7037 104.023C30.0253 104.17 29.6586 103.959 29.5486 103.483C29.5302 103.4 29.5119 103.318 29.5119 103.235C29.5027 103.006 29.5852 102.887 29.8419 102.786C30.1536 102.667 30.4562 102.465 30.7587 102.41C31.4371 102.291 31.9322 101.796 32.2348 101.328C32.7207 100.622 32.6931 99.8154 32.5373 98.9444C32.4456 98.376 32.2072 97.8168 31.9139 97.4042C31.6297 96.9916 31.1988 96.8541 30.8046 96.845C30.447 96.845 30.062 96.955 29.6586 97.1017C28.916 97.3492 28.2925 97.9909 27.715 98.6327C27.5591 98.7977 27.4216 98.9903 27.3207 99.1919C26.9907 99.9254 26.6973 100.659 26.3765 101.411C26.3398 101.484 26.2848 101.594 26.3214 101.658C26.5231 102.135 26.2939 102.538 26.2481 102.96C26.0922 104.069 26.2664 105.105 26.7432 105.82C27.0549 106.242 27.4858 106.554 28.0175 106.792C28.5859 106.966 29.2093 107.122 29.9153 107.113C30.7587 107.159 31.6663 106.976 32.574 106.911C33.1515 106.884 33.5549 106.664 34.0225 106.49C34.8568 106.141 35.6636 105.664 36.3236 104.995C37.4605 103.858 38.2306 102.337 38.5331 100.76C38.5514 100.65 38.5515 100.54 38.5515 100.43C38.5056 98.9719 38.4139 97.5876 37.8272 96.3499C37.2954 95.1856 36.3328 94.2596 35.1777 93.572C34.3892 93.1044 33.5183 92.7011 32.5831 92.4169C31.813 92.1785 30.9787 92.0776 30.1536 91.9126C29.7044 91.8026 29.2735 91.8393 28.8335 91.7934C28.6134 91.7751 28.3934 91.7568 28.1734 91.7293C27.9625 91.7201 27.7516 91.7201 27.5316 91.6926C27.2749 91.6651 27.009 91.6926 26.7523 91.7018C25.4872 91.8851 24.3045 92.3343 23.406 93.1778C23.1585 93.352 22.9843 93.572 22.6268 93.6087C22.4434 93.627 22.2601 93.8012 22.1592 93.9846C22.0125 94.2321 21.8383 94.4705 21.7375 94.7455C21.6183 95.0114 21.5266 95.2956 21.5266 95.589C21.4991 95.974 21.3249 96.2857 21.2424 96.6524C21.2332 96.6799 21.1507 96.7166 21.1232 96.6983C20.9765 96.6249 20.9215 96.7074 20.9032 96.8633C20.8665 97.1475 21.0407 97.45 20.8757 97.7159C20.6923 98.0551 20.3531 97.8259 20.1056 97.9726C19.9772 98.0735 19.8581 98.0001 19.748 97.8901C19.638 97.7984 19.5372 97.6792 19.4088 97.6609C19.3722 97.6517 19.3355 97.4592 19.3355 97.3584C19.3172 97.0833 19.3355 96.845 19.3905 96.3499Z" fill="#8ED6C7"/>
<path d="M17.4105 90.9668C17.3738 90.8934 17.328 90.7834 17.2821 90.6642C17.2546 90.6092 17.2363 90.5359 17.2088 90.4809C17.1904 90.4442 17.1629 90.4075 17.2271 90.2608C17.2821 90.1233 17.2363 90.1325 17.1629 90.1875C17.1079 90.2242 17.0529 90.27 17.0346 90.2517C16.9704 90.1692 16.9337 90.0408 16.8604 89.9583C16.8146 89.9033 16.7779 89.8483 16.8237 89.6649C16.8512 89.5457 16.7596 89.6374 16.6587 89.7108C16.5487 89.8024 16.567 89.7474 16.7045 89.4816C16.7871 89.3165 16.7871 89.2982 16.6954 89.4174C16.6037 89.5366 16.512 89.6649 16.4845 89.6374C16.402 89.5549 16.3103 89.4907 16.2278 89.3991C16.2095 89.3716 16.1178 89.4082 16.347 89.0965C16.3562 89.0782 16.3837 89.0323 16.3837 89.0323C16.3562 88.9865 16.3195 88.9407 16.2828 88.8948C16.072 89.1057 16.1636 88.8215 16.0353 88.904C16.0078 88.9223 15.9986 88.904 16.017 88.8581C16.1361 88.6014 15.9436 88.7573 16.0353 88.5373C16.0903 88.3998 16.0353 88.4456 15.9436 88.5464C15.8611 88.6381 15.7969 88.684 15.7694 88.6656C15.6411 88.5739 15.4944 88.5098 15.366 88.4181C15.2835 88.3631 15.2102 88.2989 15.1735 88.1705C15.1093 87.9505 14.9626 87.8588 14.8343 87.7213C14.7609 87.648 14.7334 87.5013 14.7059 87.3638C14.6968 87.3088 14.6693 87.2813 14.6051 87.2996C14.1009 87.4921 13.835 87.2996 13.5966 87.0887C13.5599 87.0612 13.5966 86.9145 13.5416 86.9145C13.4866 86.9145 13.4133 86.9421 13.4133 86.8412C13.4133 86.777 13.3583 86.7862 13.2849 86.8229C12.9549 87.0246 12.8999 86.8229 12.7898 86.6854C12.7257 86.5937 12.6982 86.447 12.6248 86.3736C12.5515 86.3003 12.4231 86.282 12.3223 86.2453C12.3039 86.2361 12.2764 86.2453 12.2673 86.227C12.2214 86.1353 12.2214 85.9794 12.1298 85.9611C12.0381 85.9519 11.9097 85.9886 11.8455 85.9336C11.8272 85.9153 11.7905 85.9152 11.7447 85.9152C11.5797 85.9428 11.3963 86.0161 11.5247 85.631C11.4605 85.6035 11.4055 85.5669 11.3413 85.5394C11.3138 85.521 11.2405 85.5485 11.2588 85.4752C11.3138 85.2552 11.2313 85.2735 11.0296 85.4569C10.9196 85.5577 10.8646 85.5394 10.7912 85.5577C10.7362 85.576 10.6996 85.576 10.7912 85.3835C10.8187 85.3285 10.8187 85.2735 10.7821 85.301C10.6537 85.411 10.6996 85.2643 10.6537 85.2735C10.5804 85.2735 10.5529 85.2368 10.6079 85.0626C10.6262 85.0076 10.5895 84.9985 10.5437 85.0351C10.232 85.2827 10.1036 85.2552 9.97529 85.2185C9.76443 85.1543 9.5719 85.0535 9.43438 84.8793C9.41605 84.8518 9.38855 84.8334 9.34271 84.8518C9.18685 84.9159 9.12268 84.8426 9.04933 84.7693C9.02183 84.7418 8.96682 84.7601 8.92098 84.7509C9.0585 84.4942 8.88431 84.7051 8.85681 84.7051C8.82014 84.6959 8.83847 84.6042 8.77429 84.6226C8.69178 84.6501 8.67344 84.5767 8.63677 84.5309C8.5726 84.4576 8.66428 84.2467 8.93932 83.8341C8.98516 83.7608 9.031 83.6966 9.07684 83.6233C9.20519 83.4307 9.2877 83.3391 9.35188 83.3207C9.43439 83.2932 9.5444 83.229 9.56273 83.2932C9.59941 83.4399 9.7736 83.3757 9.90195 83.3666C10.0945 83.3574 10.2778 83.3666 10.4062 83.4582C10.4887 83.5224 10.5804 83.5683 10.6721 83.6233C10.7546 83.6691 10.8921 83.6508 11.0021 83.6691C11.1029 83.6783 11.2038 83.6783 11.2588 83.7608C11.3505 83.8983 11.5247 83.9166 11.6163 84.045C11.6439 84.0817 11.6714 84.1092 11.7172 84.1092C11.8914 84.0908 12.0564 84.1 12.1298 84.2284C12.1389 84.2467 12.1481 84.265 12.1756 84.2284C12.414 83.99 12.414 84.1367 12.4873 84.1733C12.6707 84.265 12.8357 84.3842 13.0099 84.4851C13.2207 84.6134 13.4408 84.7326 13.6425 84.8609C13.7708 84.9434 13.9267 84.9893 14 85.1543C14.0459 85.2552 14.1559 85.246 14.2384 85.301C14.3759 85.3927 14.4767 85.5394 14.6143 85.631C14.8526 85.7869 15.1093 85.9244 15.3569 86.0711C15.3752 86.0803 15.4027 86.0803 15.4302 86.0711C15.7969 85.9886 15.9894 86.1811 16.1911 86.337C16.3837 86.4928 16.6129 86.5937 16.8054 86.7495C16.9337 86.8504 17.0438 86.9971 17.1629 87.1254C17.2546 87.2263 17.3646 87.3271 17.4471 87.4371C17.5388 87.5563 17.6855 87.6205 17.7038 87.8497C17.713 87.9139 17.7497 87.9414 17.7772 87.978C17.9239 88.1614 18.0706 88.3356 18.2173 88.5189C18.2539 88.5648 18.2539 88.6473 18.1531 88.8765C18.0981 88.9865 18.0981 89.069 18.1164 89.0965C18.1714 89.179 18.1989 89.3165 18.3456 89.2615C18.4465 89.2249 18.4098 89.3716 18.4373 89.4357C18.4373 89.4357 18.4006 89.5091 18.3823 89.5366C18.2906 89.6558 18.2723 89.7016 18.2906 89.7199C18.3181 89.7474 18.4556 89.6283 18.4006 89.7933C18.3273 89.9858 18.1164 90.2333 17.9881 90.4534C17.8505 90.6917 17.713 90.7926 17.5755 90.9943C17.5572 91.0218 17.5205 91.031 17.5022 91.031C17.4838 91.031 17.4563 91.0034 17.4105 90.9668Z" fill="#8ED6C7"/>
<path d="M15.073 98.458C15.0364 98.4122 14.9814 98.3297 14.9355 98.2563C14.908 98.2197 14.8805 98.1647 14.853 98.128C14.8347 98.1005 14.8072 98.0913 14.8163 97.9263C14.8255 97.7796 14.798 97.8071 14.7613 97.8896C14.7338 97.9446 14.7063 98.0088 14.6972 97.9996C14.6421 97.9538 14.5871 97.8621 14.5321 97.8255C14.4955 97.798 14.4588 97.7613 14.4496 97.5871C14.4405 97.4679 14.4038 97.5962 14.3579 97.6971C14.3029 97.8254 14.3029 97.7704 14.3396 97.4771C14.3579 97.2937 14.3579 97.2754 14.3213 97.4221C14.2846 97.5688 14.2571 97.7246 14.2296 97.7063C14.1654 97.6696 14.0921 97.6604 14.0279 97.6146C14.0096 97.6054 13.9637 97.6788 14.0371 97.2937C14.0371 97.2754 14.0462 97.2204 14.0462 97.2204C14.0187 97.1929 13.9821 97.1654 13.9546 97.147C13.8629 97.4312 13.872 97.1379 13.8079 97.2662C13.7987 97.2937 13.7804 97.2845 13.7895 97.2387C13.8079 96.9637 13.7254 97.1745 13.7345 96.9545C13.7437 96.8078 13.7162 96.872 13.6795 97.0003C13.6428 97.1195 13.6153 97.1837 13.597 97.1837C13.4962 97.1654 13.3953 97.1745 13.2945 97.147C13.2303 97.1287 13.1753 97.1104 13.1294 97.0187C13.0469 96.8537 12.9277 96.8445 12.8269 96.7803C12.7627 96.7436 12.7169 96.6336 12.671 96.5236C12.6527 96.4778 12.6344 96.4594 12.5977 96.5144C12.3227 96.9178 12.121 96.8628 11.9284 96.7986C11.9009 96.7895 11.8918 96.6428 11.8551 96.6703C11.8184 96.6886 11.7818 96.7528 11.7634 96.6611C11.7543 96.597 11.7176 96.6336 11.6809 96.707C11.5159 97.037 11.4425 96.8812 11.3509 96.817C11.2867 96.7711 11.2409 96.652 11.1858 96.6153C11.1217 96.5878 11.0483 96.6245 10.975 96.6428C10.9658 96.6428 10.9475 96.6611 10.9383 96.652C10.8925 96.5969 10.8558 96.4503 10.8008 96.4869C10.7458 96.5144 10.6724 96.6153 10.6174 96.5878C10.5991 96.5786 10.5808 96.597 10.5533 96.6153C10.4616 96.7161 10.3607 96.8628 10.3607 96.4686C10.3149 96.4686 10.2691 96.4686 10.2324 96.4686C10.214 96.4686 10.1774 96.5236 10.1682 96.4503C10.159 96.2394 10.1132 96.2852 10.0215 96.5419C9.97567 96.6795 9.93901 96.6886 9.90233 96.7436C9.87483 96.7803 9.84733 96.7986 9.86566 96.5878C9.87483 96.5236 9.85649 96.4778 9.84732 96.5144C9.79231 96.6703 9.79232 96.5236 9.76481 96.5419C9.71897 96.5786 9.69147 96.5511 9.69147 96.3769C9.69147 96.3219 9.66397 96.3219 9.64563 96.3769C9.50811 96.7345 9.41643 96.7711 9.33392 96.7986C9.18723 96.8445 9.04971 96.8353 8.93053 96.7528C8.91219 96.7436 8.89386 96.7345 8.86635 96.7711C8.78384 96.8995 8.72884 96.8628 8.66467 96.8353C8.64633 96.8262 8.60965 96.8628 8.58215 96.8812C8.61882 96.5969 8.55464 96.8537 8.53631 96.8628C8.5088 96.872 8.49964 96.7803 8.47213 96.8353C8.42629 96.8995 8.39879 96.8353 8.37129 96.817C8.31628 96.7803 8.33462 96.5511 8.41713 96.0652C8.4263 95.9827 8.44463 95.9002 8.46297 95.8177C8.49964 95.5885 8.53631 95.4785 8.57298 95.4326C8.61882 95.3776 8.67383 95.2584 8.70133 95.3134C8.75634 95.4235 8.84802 95.2859 8.92137 95.2218C9.04055 95.1301 9.15057 95.0476 9.25141 95.0751C9.31559 95.0934 9.37976 95.0934 9.44394 95.0934C9.50811 95.1026 9.58145 95.0201 9.6548 94.9834C9.71897 94.9467 9.78315 94.9009 9.82899 94.9467C9.9115 95.0201 10.0215 94.9651 10.104 95.0292C10.1224 95.0476 10.1499 95.0659 10.1774 95.0384C10.2782 94.9376 10.3791 94.8734 10.4524 94.9559C10.4616 94.9651 10.4707 94.9742 10.4799 94.9376C10.5808 94.6258 10.6083 94.745 10.6633 94.745C10.7916 94.7359 10.92 94.7634 11.0483 94.7817C11.2042 94.8 11.36 94.8 11.5159 94.8275C11.6167 94.8367 11.7176 94.8092 11.7909 94.9192C11.8368 94.9926 11.9101 94.9284 11.9651 94.9376C12.066 94.9559 12.1668 95.0384 12.2677 95.0567C12.451 95.0842 12.6344 95.0934 12.8177 95.1026C12.8269 95.1026 12.8452 95.0934 12.8636 95.0751C13.0744 94.8276 13.2303 94.9192 13.3861 94.9651C13.542 95.0109 13.6979 95.0017 13.8537 95.0476C13.9546 95.0751 14.0554 95.1576 14.1471 95.2126C14.2296 95.2584 14.3121 95.2951 14.3854 95.3593C14.468 95.4235 14.5688 95.4143 14.6238 95.5976C14.6422 95.6527 14.6696 95.6618 14.6972 95.6802C14.8255 95.7718 14.9539 95.8544 15.0822 95.9552C15.1097 95.9827 15.1372 96.0469 15.1189 96.3036C15.1097 96.4319 15.128 96.4961 15.1464 96.5144C15.2014 96.5603 15.2381 96.6703 15.3206 96.5603C15.3756 96.4869 15.3847 96.6336 15.4122 96.6703C15.4122 96.6703 15.4031 96.7528 15.3939 96.7895C15.3572 96.9362 15.3664 96.9912 15.3756 96.9912C15.4031 97.0003 15.4581 96.8353 15.4581 97.0095C15.4581 97.2112 15.3756 97.5229 15.3389 97.7796C15.3022 98.0547 15.2381 98.2013 15.1922 98.4489C15.1831 98.4855 15.1647 98.5131 15.1555 98.5131C15.128 98.4764 15.1189 98.4672 15.073 98.458Z" fill="#8ED6C7"/>
<path d="M21.0035 108.644C20.9393 108.635 20.8384 108.626 20.7376 108.617C20.6826 108.608 20.6276 108.589 20.5726 108.589C20.5359 108.589 20.5084 108.598 20.3984 108.479C20.2975 108.369 20.2975 108.406 20.325 108.498C20.3434 108.553 20.3709 108.626 20.3525 108.626C20.27 108.635 20.1692 108.617 20.0867 108.635C20.0317 108.644 19.9766 108.654 19.8391 108.525C19.7475 108.443 19.8025 108.562 19.8483 108.672C19.9033 108.8 19.8575 108.764 19.6741 108.534C19.5641 108.397 19.5366 108.378 19.6191 108.516C19.7016 108.644 19.7841 108.773 19.7566 108.791C19.6741 108.819 19.6099 108.864 19.5183 108.883C19.4908 108.892 19.5091 108.974 19.2982 108.644C19.2891 108.626 19.2524 108.589 19.2524 108.589C19.2065 108.589 19.1607 108.598 19.124 108.608C19.2524 108.874 19.0507 108.672 19.0874 108.809C19.0965 108.837 19.0782 108.837 19.0507 108.8C18.8673 108.589 18.9498 108.809 18.8032 108.644C18.7023 108.543 18.7298 108.599 18.794 108.727C18.849 108.837 18.8765 108.901 18.8582 108.919C18.7573 108.984 18.684 109.066 18.5831 109.13C18.519 109.167 18.4548 109.204 18.3539 109.176C18.1614 109.121 18.0606 109.204 17.9322 109.24C17.8589 109.259 17.7397 109.222 17.6205 109.176C17.5747 109.158 17.5472 109.167 17.5563 109.231C17.6113 109.726 17.4096 109.845 17.1988 109.946C17.1621 109.965 17.0613 109.864 17.0429 109.91C17.0338 109.955 17.0429 110.029 16.9604 109.974C16.9054 109.937 16.9054 109.992 16.9237 110.075C17.0246 110.432 16.8504 110.386 16.722 110.405C16.6395 110.423 16.5112 110.368 16.4378 110.395C16.3645 110.423 16.3278 110.515 16.2728 110.579C16.2636 110.588 16.2636 110.615 16.2453 110.615C16.1628 110.606 16.0344 110.533 16.0069 110.606C15.9794 110.67 15.9886 110.799 15.9336 110.817C15.9153 110.826 15.9061 110.854 15.9061 110.89C15.8969 111.037 15.9244 111.221 15.6311 110.936C15.5944 110.973 15.5577 111.01 15.521 111.037C15.5027 111.055 15.5119 111.12 15.4569 111.074C15.2918 110.927 15.2918 111 15.3927 111.248C15.4477 111.386 15.4294 111.413 15.4294 111.486C15.4294 111.532 15.4294 111.569 15.2918 111.404C15.2552 111.358 15.2093 111.331 15.2277 111.376C15.2918 111.523 15.1818 111.422 15.1818 111.468C15.1727 111.532 15.136 111.532 14.9985 111.404C14.9526 111.367 14.9435 111.386 14.9618 111.441C15.1085 111.798 15.0535 111.89 14.9985 111.981C14.9068 112.128 14.7968 112.229 14.6318 112.256C14.6134 112.256 14.5859 112.275 14.5951 112.321C14.6134 112.477 14.5401 112.495 14.4759 112.522C14.4484 112.532 14.4484 112.587 14.4392 112.614C14.2559 112.385 14.3934 112.623 14.3842 112.642C14.3751 112.669 14.3017 112.614 14.3017 112.669C14.3109 112.742 14.2467 112.724 14.2009 112.733C14.1275 112.752 13.9808 112.577 13.6966 112.174C13.6508 112.11 13.6049 112.036 13.5591 111.972C13.4308 111.78 13.3757 111.679 13.3666 111.615C13.3574 111.541 13.3299 111.413 13.3849 111.431C13.5133 111.468 13.4858 111.303 13.5041 111.193C13.5316 111.037 13.5683 110.89 13.6783 110.835C13.7425 110.799 13.7975 110.744 13.8525 110.698C13.9075 110.652 13.9167 110.533 13.9442 110.46C13.9717 110.386 13.99 110.304 14.0633 110.295C14.1917 110.285 14.2375 110.157 14.3567 110.139C14.3842 110.13 14.4209 110.13 14.4209 110.084C14.4392 109.937 14.4759 109.809 14.5951 109.809C14.6042 109.809 14.6226 109.809 14.6042 109.772C14.4576 109.469 14.5767 109.534 14.6134 109.497C14.7143 109.387 14.8426 109.314 14.9618 109.222C15.0993 109.112 15.2368 108.993 15.3835 108.883C15.4752 108.819 15.5394 108.709 15.6861 108.727C15.7777 108.736 15.7869 108.644 15.8419 108.608C15.9428 108.534 16.0803 108.525 16.1811 108.452C16.3553 108.333 16.5112 108.195 16.6762 108.058C16.6854 108.048 16.6854 108.03 16.6854 108.003C16.6854 107.663 16.8779 107.608 17.0429 107.517C17.1988 107.434 17.3271 107.297 17.4921 107.205C17.6022 107.141 17.7397 107.132 17.8589 107.095C17.9597 107.067 18.0514 107.031 18.1614 107.003C18.2806 106.985 18.3539 106.893 18.5373 106.985C18.5923 107.012 18.6198 106.994 18.6565 106.985C18.8307 106.948 18.9957 106.912 19.1699 106.884C19.2157 106.875 19.2799 106.912 19.4449 107.104C19.5274 107.196 19.5824 107.232 19.6099 107.232C19.6924 107.223 19.8025 107.269 19.7841 107.132C19.775 107.04 19.885 107.132 19.94 107.141C19.94 107.141 19.995 107.205 20.0133 107.232C20.0958 107.361 20.1325 107.398 20.1417 107.388C20.1692 107.379 20.105 107.214 20.2242 107.333C20.3617 107.48 20.5267 107.764 20.6826 107.966C20.8476 108.186 20.9026 108.342 21.0401 108.543C21.0585 108.571 21.0585 108.608 21.0585 108.617C21.0585 108.608 21.0401 108.617 21.0035 108.644Z" fill="#8ED6C7"/>
<path d="M28.4866 112.928C28.4408 112.964 28.3674 113.028 28.2849 113.083C28.2483 113.111 28.1933 113.138 28.1566 113.175C28.1291 113.203 28.1199 113.221 27.9549 113.221C27.8082 113.221 27.8357 113.248 27.9182 113.285C27.9732 113.303 28.0374 113.331 28.0282 113.349C27.9824 113.413 27.8999 113.468 27.854 113.533C27.8265 113.578 27.799 113.615 27.6157 113.624C27.4965 113.633 27.6248 113.67 27.7257 113.716C27.854 113.762 27.799 113.762 27.5057 113.743C27.3223 113.734 27.304 113.734 27.4507 113.771C27.5973 113.798 27.7532 113.826 27.744 113.853C27.7165 113.927 27.6982 114 27.6615 114.074C27.6523 114.092 27.7257 114.138 27.3406 114.074C27.3223 114.074 27.2673 114.064 27.2673 114.064C27.2398 114.092 27.2123 114.129 27.194 114.165C27.4782 114.248 27.1848 114.257 27.3223 114.321C27.3498 114.33 27.3406 114.349 27.2948 114.349C27.0198 114.339 27.2398 114.422 27.0106 114.422C26.8639 114.422 26.9281 114.449 27.0656 114.477C27.1848 114.504 27.249 114.532 27.249 114.55C27.2306 114.651 27.2398 114.761 27.2215 114.862C27.2031 114.926 27.194 114.99 27.1023 115.045C26.9372 115.137 26.9281 115.256 26.8731 115.366C26.8364 115.43 26.7264 115.485 26.6164 115.531C26.5705 115.55 26.5614 115.577 26.6072 115.605C27.0198 115.87 26.9739 116.081 26.9097 116.283C26.9006 116.31 26.7539 116.329 26.7814 116.365C26.7997 116.402 26.8639 116.439 26.7814 116.457C26.7172 116.476 26.7539 116.503 26.8272 116.54C27.1573 116.696 27.0106 116.778 26.9464 116.879C26.9006 116.943 26.7814 116.998 26.7539 117.062C26.7264 117.126 26.7722 117.209 26.7814 117.282C26.7814 117.291 26.7997 117.31 26.7906 117.319C26.7356 117.374 26.5889 117.411 26.6255 117.475C26.6622 117.539 26.7539 117.603 26.7356 117.658C26.7264 117.677 26.7447 117.695 26.7722 117.722C26.8731 117.814 27.0289 117.915 26.6255 117.933C26.6255 117.979 26.6255 118.025 26.6255 118.071C26.6255 118.089 26.6806 118.126 26.6072 118.135C26.3963 118.153 26.4422 118.199 26.6989 118.282C26.8364 118.327 26.8456 118.364 26.9006 118.401C26.9373 118.428 26.9648 118.456 26.7539 118.437C26.6897 118.437 26.6439 118.447 26.6897 118.465C26.8456 118.511 26.6989 118.52 26.7264 118.557C26.7631 118.602 26.7447 118.63 26.5614 118.639C26.5064 118.639 26.5064 118.667 26.5614 118.685C26.9281 118.813 26.9556 118.905 26.9923 118.997C27.0381 119.143 27.0381 119.29 26.9556 119.418C26.9464 119.437 26.9372 119.455 26.9739 119.483C27.1023 119.565 27.0656 119.62 27.0473 119.684C27.0381 119.712 27.0748 119.739 27.0931 119.767C26.8089 119.739 27.0656 119.803 27.0748 119.822C27.0839 119.849 26.9923 119.858 27.0473 119.895C27.1114 119.941 27.0564 119.968 27.0289 120.005C26.9923 120.06 26.7722 120.06 26.2772 119.996C26.1947 119.987 26.1121 119.978 26.0296 119.959C25.8004 119.923 25.6904 119.904 25.6354 119.868C25.5804 119.822 25.4612 119.767 25.5162 119.739C25.6262 119.684 25.4887 119.593 25.4245 119.51C25.3237 119.391 25.2412 119.281 25.2687 119.171C25.287 119.107 25.2779 119.033 25.287 118.969C25.287 118.905 25.2045 118.823 25.1678 118.758C25.1312 118.694 25.0762 118.63 25.122 118.575C25.1953 118.483 25.1312 118.373 25.1953 118.282C25.2137 118.254 25.232 118.236 25.1953 118.199C25.0945 118.098 25.0212 117.997 25.1128 117.915C25.122 117.906 25.1312 117.897 25.0945 117.887C24.7736 117.796 24.902 117.759 24.8928 117.704C24.8836 117.567 24.9111 117.438 24.9203 117.301C24.9295 117.136 24.9295 116.971 24.9478 116.806C24.957 116.705 24.9203 116.595 25.0303 116.512C25.1037 116.457 25.0303 116.393 25.0395 116.329C25.0578 116.219 25.1403 116.118 25.1495 116.008C25.177 115.825 25.177 115.632 25.1862 115.44C25.1862 115.43 25.1678 115.412 25.1495 115.394C24.902 115.183 24.9845 115.018 25.0212 114.853C25.0578 114.697 25.0487 114.523 25.0853 114.367C25.1128 114.257 25.1862 114.156 25.2412 114.055C25.287 113.973 25.3237 113.881 25.3787 113.798C25.4429 113.707 25.4245 113.606 25.6171 113.533C25.6721 113.514 25.6812 113.487 25.6996 113.459C25.7913 113.322 25.8738 113.184 25.9655 113.056C25.993 113.019 26.0571 113.001 26.3138 113.01C26.4422 113.01 26.5064 113.001 26.5247 112.973C26.5705 112.918 26.6806 112.873 26.5614 112.79C26.488 112.735 26.6255 112.726 26.6714 112.689C26.6714 112.689 26.7539 112.698 26.7906 112.698C26.9373 112.726 26.9923 112.726 26.9923 112.708C27.0014 112.68 26.8364 112.625 27.0106 112.625C27.2123 112.625 27.5332 112.689 27.7807 112.717C28.0557 112.744 28.2116 112.799 28.45 112.836C28.4866 112.845 28.5141 112.863 28.5141 112.873C28.4958 112.863 28.4866 112.882 28.4866 112.928Z" fill="#8ED6C7"/>
<path d="M37.3217 111.514C37.2942 111.551 37.2484 111.615 37.1934 111.67C37.1659 111.697 37.1292 111.734 37.1109 111.771C37.0925 111.789 37.0925 111.807 36.9458 111.881C36.8083 111.945 36.845 111.945 36.9367 111.927C36.9917 111.908 37.065 111.89 37.0558 111.908C37.0375 111.954 36.9825 112.018 36.9642 112.064C36.955 112.092 36.9367 112.128 36.7808 112.211C36.68 112.266 36.7991 112.229 36.9092 112.202C37.0375 112.165 36.9917 112.192 36.7258 112.312C36.5608 112.385 36.5424 112.403 36.6891 112.348C36.8358 112.293 36.9733 112.238 36.9733 112.257C36.9733 112.302 36.9825 112.339 36.9733 112.394C36.9733 112.413 37.0558 112.394 36.6891 112.541C36.6708 112.55 36.625 112.568 36.625 112.568C36.6158 112.596 36.5975 112.623 36.5883 112.642C36.8725 112.55 36.6158 112.688 36.7533 112.66C36.7808 112.651 36.7716 112.669 36.735 112.688C36.4874 112.807 36.7075 112.743 36.5058 112.843C36.3774 112.908 36.4416 112.889 36.5699 112.843C36.6891 112.807 36.7533 112.788 36.7625 112.798C36.7808 112.853 36.8266 112.898 36.845 112.953C36.8542 112.99 36.8633 113.027 36.7991 113.091C36.68 113.21 36.7166 113.265 36.6983 113.338C36.6891 113.384 36.6158 113.458 36.5241 113.531C36.4874 113.558 36.4874 113.577 36.5424 113.568C36.9917 113.513 37.0283 113.623 37.0375 113.751C37.0375 113.769 36.9183 113.843 36.9458 113.843C36.9825 113.852 37.0467 113.843 36.9733 113.889C36.9275 113.925 36.9642 113.925 37.0467 113.907C37.3951 113.824 37.2942 113.934 37.2667 114.008C37.2484 114.054 37.1567 114.136 37.1567 114.182C37.1567 114.228 37.2209 114.246 37.2575 114.274C37.2667 114.283 37.285 114.283 37.2759 114.292C37.2392 114.338 37.1292 114.42 37.1842 114.439C37.23 114.448 37.3401 114.439 37.3401 114.475C37.3401 114.484 37.3584 114.494 37.3951 114.494C37.5142 114.494 37.6884 114.466 37.3401 114.659C37.3584 114.677 37.3767 114.695 37.3859 114.723C37.3951 114.732 37.4592 114.723 37.3859 114.759C37.2025 114.86 37.2575 114.86 37.5142 114.787C37.6518 114.741 37.6701 114.759 37.7343 114.75C37.7801 114.741 37.8076 114.75 37.6151 114.833C37.5601 114.86 37.5234 114.888 37.5601 114.879C37.7159 114.833 37.5876 114.897 37.6243 114.906C37.6701 114.906 37.6609 114.934 37.5051 115.016C37.4501 115.044 37.4684 115.053 37.5234 115.035C37.8901 114.934 37.9543 114.961 38.0093 114.989C38.101 115.035 38.1468 115.099 38.1193 115.2C38.1193 115.209 38.1193 115.227 38.156 115.218C38.3027 115.2 38.2843 115.245 38.2843 115.282C38.2843 115.3 38.3302 115.291 38.3485 115.3C38.0827 115.42 38.3394 115.328 38.3577 115.328C38.376 115.337 38.3027 115.383 38.3577 115.374C38.431 115.365 38.3852 115.401 38.3852 115.429C38.376 115.465 38.1743 115.566 37.7159 115.759C37.6426 115.786 37.5601 115.823 37.4867 115.85C37.2759 115.933 37.1659 115.979 37.1109 115.979C37.0467 115.988 36.9275 116.015 36.9642 115.979C37.0467 115.905 36.8908 115.924 36.7991 115.915C36.6708 115.905 36.5608 115.887 36.5516 115.832C36.5424 115.795 36.5149 115.768 36.4966 115.731C36.4783 115.704 36.3774 115.704 36.3224 115.685C36.2674 115.676 36.2032 115.667 36.2216 115.621C36.2582 115.548 36.1666 115.52 36.1941 115.456C36.2032 115.438 36.2032 115.42 36.1757 115.42C36.0474 115.42 35.9557 115.401 36.0015 115.328C36.0107 115.319 36.0107 115.31 35.974 115.319C35.6623 115.42 35.754 115.346 35.7357 115.328C35.6807 115.273 35.6623 115.2 35.6165 115.135C35.5706 115.053 35.5156 114.98 35.479 114.897C35.4515 114.842 35.3873 114.815 35.4606 114.723C35.5065 114.668 35.424 114.668 35.4148 114.631C35.3873 114.576 35.4331 114.494 35.4056 114.439C35.3689 114.338 35.2956 114.255 35.2406 114.164C35.2406 114.154 35.2223 114.154 35.1948 114.154C34.9014 114.173 34.9197 114.063 34.9014 113.962C34.883 113.87 34.8097 113.797 34.7914 113.705C34.7822 113.641 34.8097 113.559 34.828 113.494C34.8372 113.439 34.8372 113.375 34.8647 113.311C34.8922 113.247 34.8372 113.201 34.9839 113.082C35.0297 113.045 35.0206 113.027 35.0297 113.008C35.0664 112.908 35.0939 112.807 35.1306 112.706C35.1397 112.678 35.1948 112.642 35.424 112.532C35.534 112.477 35.589 112.44 35.5981 112.422C35.6257 112.376 35.699 112.302 35.5706 112.321C35.4881 112.33 35.6073 112.257 35.6348 112.229C35.6348 112.229 35.7173 112.192 35.7448 112.183C35.8915 112.128 35.9282 112.11 35.9282 112.101C35.9282 112.082 35.7632 112.128 35.9099 112.055C36.084 111.963 36.3958 111.853 36.625 111.752C36.8817 111.642 37.0283 111.606 37.2575 111.514C37.285 111.505 37.3217 111.496 37.3309 111.505C37.3217 111.477 37.3217 111.487 37.3217 111.514Z" fill="#8ED6C7"/>
<path d="M42.2349 106.719C42.2441 106.774 42.2624 106.866 42.2716 106.958C42.2807 107.003 42.2807 107.068 42.2899 107.104C42.2991 107.132 42.3082 107.159 42.2349 107.297C42.1615 107.425 42.1982 107.416 42.2716 107.352C42.3174 107.315 42.3724 107.26 42.3724 107.279C42.3999 107.343 42.4091 107.444 42.4366 107.508C42.4549 107.544 42.4733 107.59 42.3999 107.764C42.3541 107.874 42.4457 107.783 42.5283 107.7C42.6291 107.609 42.6016 107.654 42.4458 107.911C42.3541 108.067 42.3449 108.085 42.4366 107.966C42.5283 107.847 42.6199 107.719 42.6383 107.746C42.6841 107.801 42.7391 107.847 42.7758 107.911C42.785 107.929 42.8583 107.884 42.6291 108.195C42.6199 108.214 42.5924 108.25 42.5924 108.259C42.6016 108.296 42.6199 108.333 42.6383 108.37C42.84 108.149 42.7116 108.415 42.8216 108.324C42.84 108.305 42.8491 108.324 42.8308 108.36C42.6933 108.599 42.8583 108.443 42.7575 108.635C42.6933 108.764 42.7391 108.718 42.8308 108.617C42.9133 108.525 42.9683 108.48 42.9775 108.489C43.0508 108.544 43.1517 108.58 43.225 108.645C43.2709 108.681 43.3167 108.727 43.3167 108.828C43.3167 109.011 43.4084 109.066 43.4726 109.167C43.5092 109.222 43.5001 109.341 43.4909 109.46C43.4909 109.506 43.5001 109.534 43.5551 109.497C43.9676 109.25 44.1235 109.378 44.261 109.516C44.2793 109.534 44.2243 109.671 44.261 109.662C44.2977 109.653 44.3618 109.616 44.3343 109.708C44.316 109.772 44.3618 109.754 44.426 109.699C44.7102 109.47 44.7102 109.635 44.7652 109.736C44.8019 109.8 44.7836 109.928 44.8294 109.983C44.8752 110.038 44.9578 110.029 45.0219 110.047C45.0311 110.047 45.0586 110.038 45.0586 110.056C45.0769 110.13 45.0403 110.267 45.1136 110.267C45.1778 110.267 45.2786 110.203 45.3153 110.249C45.3245 110.267 45.352 110.258 45.3795 110.249C45.5078 110.194 45.6545 110.102 45.4895 110.46C45.5262 110.478 45.5628 110.496 45.6087 110.515C45.627 110.524 45.682 110.487 45.6545 110.561C45.572 110.762 45.6362 110.735 45.8195 110.542C45.9204 110.441 45.9571 110.441 46.0121 110.414C46.0579 110.386 46.0854 110.386 45.9754 110.561C45.9387 110.616 45.9387 110.661 45.9662 110.634C46.0762 110.515 46.0212 110.652 46.0579 110.643C46.1129 110.625 46.1221 110.661 46.0487 110.827C46.0212 110.882 46.0487 110.882 46.0854 110.845C46.3605 110.579 46.4521 110.588 46.5438 110.597C46.6905 110.616 46.8005 110.68 46.8739 110.808C46.883 110.827 46.9014 110.836 46.938 110.817C47.0664 110.735 47.103 110.79 47.1397 110.836C47.1581 110.854 47.1947 110.836 47.2314 110.827C47.0756 111.074 47.2497 110.863 47.2681 110.863C47.2956 110.863 47.2589 110.946 47.3139 110.918C47.3781 110.882 47.3781 110.946 47.3964 110.973C47.4239 111.028 47.3139 111.221 47.0297 111.633C46.9839 111.697 46.938 111.771 46.883 111.835C46.7455 112.018 46.6722 112.11 46.6172 112.138C46.553 112.174 46.4521 112.248 46.4613 112.193C46.4613 112.073 46.3238 112.156 46.2229 112.183C46.0762 112.22 45.9479 112.248 45.8746 112.183C45.8287 112.138 45.7645 112.119 45.7095 112.083C45.6545 112.055 45.5537 112.092 45.4803 112.101C45.4162 112.101 45.3336 112.119 45.3061 112.064C45.2695 111.963 45.1411 111.972 45.0953 111.872C45.0861 111.844 45.0678 111.826 45.0311 111.835C44.8936 111.881 44.7836 111.899 44.7561 111.789C44.7561 111.78 44.7469 111.762 44.7194 111.798C44.4994 112.046 44.5177 111.917 44.481 111.899C44.3618 111.853 44.2702 111.771 44.1601 111.716C44.0318 111.642 43.8943 111.569 43.7659 111.487C43.6834 111.432 43.5826 111.422 43.5642 111.285C43.5551 111.202 43.4634 111.23 43.4175 111.193C43.335 111.138 43.2892 111.019 43.2067 110.964C43.06 110.863 42.9041 110.781 42.7483 110.698C42.7391 110.689 42.7208 110.698 42.6933 110.707C42.3999 110.845 42.3082 110.698 42.189 110.597C42.079 110.496 41.9323 110.441 41.8223 110.341C41.749 110.276 41.694 110.157 41.639 110.066C41.5931 109.992 41.529 109.928 41.4923 109.836C41.4464 109.745 41.3548 109.717 41.3823 109.516C41.3914 109.46 41.3731 109.442 41.3548 109.415C41.2814 109.277 41.2081 109.149 41.1439 109.011C41.1256 108.975 41.1347 108.91 41.2631 108.69C41.3273 108.58 41.3364 108.516 41.3364 108.498C41.3089 108.434 41.3181 108.324 41.2081 108.388C41.1256 108.434 41.1806 108.296 41.1806 108.25C41.1806 108.25 41.2264 108.177 41.2447 108.149C41.3364 108.03 41.3548 107.984 41.3456 107.975C41.3273 107.957 41.2081 108.076 41.2814 107.929C41.3731 107.746 41.5748 107.499 41.7215 107.288C41.8773 107.058 41.9874 106.948 42.134 106.747C42.1524 106.719 42.1799 106.701 42.1982 106.701C42.189 106.683 42.2074 106.692 42.2349 106.719Z" fill="#8ED6C7"/>
<path d="M43.1323 93.3884C43.1965 93.4159 43.2882 93.4525 43.3798 93.4892C43.4257 93.5075 43.4807 93.5442 43.5265 93.5625C43.5632 93.5717 43.5907 93.5717 43.664 93.7184C43.7282 93.8559 43.7466 93.8101 43.7374 93.7184C43.7374 93.6542 43.7282 93.5809 43.7466 93.59C43.8291 93.5992 43.9299 93.6542 44.0033 93.6542C44.0583 93.6542 44.1133 93.6726 44.2141 93.8192C44.2783 93.9201 44.26 93.7917 44.2508 93.6726C44.2416 93.535 44.2691 93.5809 44.3792 93.8559C44.4525 94.0209 44.4617 94.0393 44.425 93.8926C44.3883 93.7459 44.3425 93.5992 44.37 93.5992C44.4525 93.5901 44.535 93.5625 44.6267 93.5717C44.6542 93.5717 44.6634 93.48 44.7734 93.8651C44.7825 93.8834 44.8009 93.9293 44.8009 93.9293C44.8467 93.9384 44.8926 93.9476 44.9292 93.9476C44.8834 93.6542 45.0209 93.9109 45.0301 93.7642C45.0301 93.7367 45.0484 93.7367 45.0667 93.7826C45.1859 94.0393 45.1676 93.8009 45.2684 94.0026C45.3326 94.131 45.3326 94.0668 45.3051 93.9293C45.2776 93.8101 45.2776 93.7367 45.2959 93.7276C45.406 93.6909 45.516 93.6267 45.626 93.5992C45.6993 93.5809 45.7727 93.5625 45.8643 93.6176C46.0385 93.7184 46.1577 93.6726 46.2952 93.6726C46.3778 93.6726 46.4786 93.7459 46.5794 93.8192C46.6253 93.8467 46.6528 93.8468 46.662 93.7917C46.7445 93.2967 46.9828 93.2417 47.2212 93.1958C47.2579 93.1867 47.3312 93.315 47.3587 93.2783C47.3862 93.2417 47.3954 93.1683 47.4596 93.2325C47.5054 93.2783 47.5237 93.2325 47.5237 93.15C47.5237 92.7741 47.6888 92.8749 47.8171 92.8841C47.8996 92.8933 48.0096 92.9758 48.0922 92.9666C48.1747 92.9575 48.2297 92.8841 48.303 92.8383C48.3122 92.8291 48.3214 92.8108 48.3397 92.8108C48.4222 92.8383 48.5231 92.9391 48.5689 92.8841C48.6147 92.8291 48.6422 92.7099 48.7064 92.7008C48.7247 92.7008 48.7431 92.6733 48.7522 92.6366C48.7981 92.4991 48.8348 92.3157 49.0273 92.6641C49.0731 92.6366 49.119 92.6183 49.1648 92.5907C49.1923 92.5816 49.1923 92.5082 49.2381 92.5816C49.3573 92.7649 49.3848 92.7008 49.3482 92.4257C49.3298 92.279 49.3665 92.2515 49.3757 92.1874C49.3848 92.1415 49.4032 92.1049 49.4857 92.3065C49.5132 92.3616 49.5499 92.3982 49.5407 92.3524C49.5224 92.1874 49.5957 92.3157 49.614 92.279C49.6415 92.224 49.6782 92.2332 49.7699 92.3891C49.7974 92.4441 49.8249 92.4257 49.8157 92.3615C49.7791 91.9765 49.8524 91.9032 49.9349 91.8298C50.0633 91.7106 50.2099 91.6465 50.375 91.6648C50.4025 91.6648 50.4208 91.6648 50.43 91.619C50.4575 91.4631 50.5308 91.4631 50.6042 91.4631C50.6317 91.4631 50.65 91.4081 50.6683 91.3806C50.7784 91.6464 50.7142 91.3897 50.7234 91.3714C50.7417 91.3439 50.7967 91.4264 50.8059 91.3622C50.8242 91.2889 50.8792 91.3256 50.9159 91.3256C50.9892 91.3256 51.0901 91.5364 51.2459 92.004C51.2734 92.0865 51.3009 92.1599 51.3284 92.2424C51.4018 92.4624 51.4293 92.5724 51.4109 92.6366C51.3926 92.7099 51.3926 92.8383 51.3376 92.8016C51.2276 92.7283 51.2001 92.9025 51.1451 92.9941C51.0717 93.1408 50.9892 93.2692 50.8792 93.2967C50.8059 93.315 50.7325 93.3517 50.6683 93.3792C50.6042 93.4067 50.5583 93.5167 50.5033 93.59C50.4575 93.6542 50.4116 93.7276 50.3383 93.7184C50.2099 93.7001 50.1274 93.8101 50.0083 93.7917C49.9808 93.7917 49.9441 93.7826 49.9257 93.8284C49.8616 93.9659 49.7974 94.076 49.6782 94.0393C49.669 94.0393 49.6507 94.0301 49.6599 94.0759C49.7149 94.406 49.6232 94.3143 49.5682 94.3418C49.4307 94.4152 49.2932 94.461 49.1465 94.516C48.9723 94.5894 48.8073 94.6627 48.6331 94.7269C48.5231 94.7635 48.4314 94.8461 48.2938 94.791C48.2113 94.7544 48.1655 94.8461 48.1013 94.8644C47.9821 94.9011 47.8446 94.8827 47.7254 94.9194C47.5237 94.9836 47.3312 95.0753 47.1295 95.1669C47.1204 95.1761 47.1112 95.1944 47.102 95.2219C47.0012 95.5428 46.7995 95.552 46.607 95.5978C46.4236 95.6345 46.2677 95.7353 46.0844 95.772C45.9652 95.7995 45.8277 95.7812 45.6902 95.7812C45.5801 95.7812 45.4793 95.7903 45.3693 95.7812C45.2501 95.772 45.1493 95.827 44.9934 95.6987C44.9476 95.662 44.9109 95.6712 44.8742 95.662C44.7 95.6437 44.5167 95.6437 44.3425 95.6162C44.2966 95.607 44.2416 95.5612 44.1316 95.332C44.0766 95.2219 44.0308 95.1669 44.0033 95.1669C43.9208 95.1486 43.8291 95.0844 43.8016 95.2219C43.7832 95.3136 43.7007 95.1944 43.6457 95.1669C43.6457 95.1669 43.609 95.0844 43.5999 95.0569C43.5632 94.9102 43.5357 94.8644 43.5174 94.8644C43.4807 94.8644 43.5082 95.0386 43.4257 94.8919C43.3248 94.7085 43.2515 94.3968 43.1598 94.1585C43.059 93.9018 43.0498 93.7367 42.9765 93.4984C42.9673 93.4709 42.9765 93.4342 42.9856 93.425C43.059 93.4067 43.0865 93.4067 43.1323 93.3884Z" fill="#8ED6C7"/>
<path d="M34.663 87.3297C34.718 87.3297 34.7914 87.3206 34.8739 87.3206C34.9197 87.3206 34.9656 87.3206 35.0022 87.3206C35.0297 87.3206 35.0481 87.3114 35.1948 87.3756C35.3323 87.4398 35.3048 87.4123 35.2314 87.3481C35.1856 87.3114 35.1306 87.2656 35.1398 87.2656C35.1948 87.2472 35.2773 87.2472 35.3323 87.2289C35.3598 87.2106 35.4056 87.2014 35.5707 87.2656C35.6807 87.3114 35.5706 87.2289 35.4881 87.1647C35.3781 87.0822 35.4331 87.1006 35.6898 87.2381C35.8549 87.3206 35.8732 87.3298 35.7448 87.2472C35.6165 87.1647 35.479 87.0914 35.4973 87.0822C35.5431 87.0547 35.5615 87.0089 35.6165 86.9814C35.6348 86.9722 35.5706 86.9172 35.9099 87.1189C35.9282 87.1281 35.974 87.1556 35.974 87.1556C36.0015 87.1464 36.029 87.1372 36.0566 87.1281C35.809 86.963 36.0749 87.0731 35.974 86.9814C35.9557 86.963 35.9649 86.963 36.0107 86.9814C36.2582 87.1006 36.0749 86.963 36.2766 87.0547C36.4049 87.1097 36.3499 87.073 36.2399 86.9997C36.1391 86.9264 36.0841 86.8897 36.0932 86.8805C36.1299 86.8255 36.1391 86.7522 36.1757 86.6972C36.2032 86.6605 36.2307 86.633 36.3224 86.633C36.4874 86.6422 36.5149 86.578 36.5975 86.5321C36.6433 86.5046 36.7441 86.523 36.8633 86.5321C36.9092 86.5413 36.9275 86.5321 36.8817 86.4863C36.5608 86.1563 36.6433 86.0462 36.7441 85.9454C36.7625 85.9271 36.8908 85.9821 36.8725 85.9546C36.8542 85.9271 36.8083 85.8721 36.8908 85.8996C36.9458 85.9179 36.9183 85.8812 36.8633 85.8262C36.5883 85.597 36.7441 85.6062 36.8267 85.5695C36.8817 85.5512 37.0008 85.5695 37.0375 85.542C37.0742 85.5145 37.0467 85.4412 37.0559 85.3953C37.0559 85.3861 37.0467 85.3678 37.0559 85.3678C37.12 85.3586 37.2484 85.3953 37.23 85.3403C37.2117 85.2945 37.1384 85.212 37.1659 85.1845C37.175 85.1753 37.1659 85.157 37.1475 85.1295C37.0742 85.0286 36.955 84.9094 37.3217 85.0561C37.3309 85.0286 37.3401 85.0011 37.3401 84.9736C37.3401 84.9553 37.2942 84.9094 37.3676 84.9461C37.5693 85.0194 37.5326 84.9736 37.3126 84.8177C37.1934 84.7352 37.1934 84.7077 37.1475 84.6619C37.12 84.6252 37.1017 84.6069 37.2942 84.6986C37.3492 84.7261 37.3951 84.7352 37.3584 84.7077C37.23 84.616 37.3584 84.6711 37.3401 84.6436C37.3126 84.5977 37.3401 84.5977 37.5051 84.6619C37.5601 84.6802 37.5601 84.6711 37.5142 84.6344C37.2117 84.4052 37.1934 84.3318 37.1842 84.2677C37.1659 84.1577 37.1934 84.066 37.2942 84.0293C37.3126 84.0201 37.3126 84.011 37.285 83.9835C37.1842 83.8826 37.23 83.8551 37.2575 83.8276C37.2667 83.8184 37.2392 83.7818 37.23 83.7543C37.4867 83.8918 37.2575 83.7451 37.2484 83.7268C37.2392 83.7084 37.3309 83.7359 37.285 83.6901C37.2392 83.6351 37.2942 83.6442 37.3217 83.6351C37.3676 83.6167 37.5693 83.7084 38.0002 83.956C38.0735 83.9926 38.1468 84.0385 38.2202 84.0751C38.4219 84.1943 38.5227 84.2493 38.5594 84.2952C38.6052 84.3502 38.6969 84.4235 38.6511 84.4235C38.5411 84.4144 38.6511 84.5244 38.6969 84.6069C38.7611 84.7169 38.8161 84.8269 38.7703 84.8819C38.7428 84.9186 38.7336 84.9644 38.7152 85.0011C38.6969 85.0378 38.7611 85.1203 38.7794 85.1845C38.7978 85.2395 38.8344 85.3036 38.7886 85.3128C38.7061 85.3403 38.7427 85.432 38.6602 85.4595C38.6419 85.4687 38.6236 85.4778 38.6419 85.5053C38.7152 85.6154 38.7611 85.707 38.6694 85.7162C38.6602 85.7162 38.6419 85.7162 38.6786 85.7437C38.9444 85.9271 38.8344 85.8996 38.8253 85.9362C38.8069 86.0279 38.7611 86.0921 38.7244 86.1746C38.6877 86.2754 38.6511 86.3671 38.6052 86.468C38.5777 86.523 38.5869 86.6055 38.4677 86.6147C38.3944 86.6147 38.4402 86.688 38.4219 86.7247C38.3852 86.7889 38.2935 86.8163 38.2569 86.8714C38.1927 86.9722 38.1652 87.0914 38.1193 87.2106C38.1193 87.2197 38.1285 87.2381 38.1377 87.2472C38.321 87.4764 38.2202 87.5498 38.1468 87.6323C38.0827 87.7148 38.0643 87.8248 37.991 87.9073C37.9451 87.9623 37.8535 87.9898 37.7893 88.0357C37.7343 88.0724 37.6884 88.109 37.6151 88.1365C37.5418 88.164 37.5326 88.2374 37.3492 88.2007C37.2942 88.1915 37.2851 88.2099 37.2667 88.219C37.1567 88.2649 37.0559 88.3199 36.9458 88.3566C36.9183 88.3657 36.8542 88.3566 36.625 88.2465C36.5149 88.1915 36.4508 88.1732 36.4324 88.1824C36.3774 88.2007 36.2766 88.1824 36.3591 88.274C36.4141 88.3382 36.2857 88.2924 36.2399 88.2924C36.2399 88.2924 36.1666 88.2557 36.1391 88.2374C36.0107 88.1549 35.9649 88.1365 35.9557 88.1457C35.9374 88.1549 36.0841 88.2649 35.9282 88.1915C35.7448 88.109 35.4698 87.9348 35.2498 87.8156C35.0022 87.6873 34.8831 87.5865 34.6722 87.4673C34.6447 87.4489 34.6172 87.4214 34.6172 87.4214C34.6355 87.3573 34.6539 87.3573 34.663 87.3297Z" fill="#8ED6C7"/>
<path d="M24.3424 85.4765C24.3791 85.4398 24.4433 85.3848 24.5074 85.339C24.5441 85.3115 24.59 85.284 24.6083 85.2565C24.6266 85.2381 24.6358 85.2198 24.7917 85.1831C24.9383 85.1556 24.9017 85.1464 24.81 85.1373C24.755 85.1373 24.6816 85.1281 24.6816 85.1189C24.7091 85.0731 24.7825 85.0181 24.81 84.9723C24.8283 84.9356 24.8467 84.9081 25.0209 84.8622C25.1309 84.8347 25.0025 84.8347 24.8925 84.8256C24.755 84.8164 24.81 84.8072 25.1034 84.7614C25.2867 84.7339 25.3051 84.7247 25.1492 84.7339C24.9933 84.743 24.8467 84.7614 24.8467 84.7431C24.865 84.688 24.8558 84.6422 24.8833 84.5872C24.8925 84.5689 24.81 84.5505 25.2042 84.523C25.2225 84.523 25.2776 84.5139 25.2776 84.5139C25.2959 84.4864 25.3142 84.4589 25.3326 84.4314C25.0392 84.4314 25.3234 84.3672 25.1767 84.358C25.1492 84.358 25.1584 84.3488 25.2042 84.3397C25.4792 84.2938 25.25 84.2847 25.4701 84.2388C25.6076 84.2113 25.5434 84.2113 25.4059 84.2113C25.2867 84.2113 25.2134 84.2113 25.2134 84.193C25.2134 84.1196 25.1767 84.0555 25.1767 83.9821C25.1767 83.9363 25.1767 83.8904 25.2592 83.8446C25.3967 83.7529 25.3876 83.6704 25.4151 83.5879C25.4334 83.5421 25.5343 83.487 25.6259 83.4229C25.6626 83.4045 25.6718 83.3862 25.6168 83.3679C25.1584 83.2762 25.1584 83.1295 25.1859 82.9828C25.1859 82.9645 25.3234 82.9278 25.2959 82.9095C25.2684 82.8911 25.195 82.882 25.2776 82.8453C25.3326 82.827 25.2959 82.8086 25.2134 82.7994C24.8558 82.7628 24.9842 82.6803 25.03 82.5978C25.0575 82.5428 25.1675 82.4877 25.1859 82.4419C25.2042 82.3961 25.14 82.3502 25.1125 82.3044C25.1034 82.2952 25.085 82.2861 25.0942 82.2769C25.14 82.231 25.2684 82.176 25.2225 82.1485C25.1767 82.1119 25.0667 82.0935 25.085 82.0477C25.085 82.0385 25.0667 82.0202 25.0392 82.011C24.92 81.9743 24.7458 81.9377 25.14 81.846C25.1309 81.8185 25.1125 81.791 25.1034 81.7543C25.0942 81.736 25.03 81.7268 25.1125 81.7085C25.3142 81.6535 25.2592 81.6351 24.9933 81.626C24.8467 81.626 24.8283 81.5985 24.7733 81.5893C24.7275 81.5801 24.7 81.571 24.9108 81.5343C24.975 81.5251 25.0117 81.5068 24.975 81.5068C24.8192 81.5068 24.9567 81.4701 24.92 81.4518C24.8742 81.4334 24.8925 81.4059 25.0667 81.3693C25.1217 81.3601 25.1125 81.3418 25.0575 81.3418C24.6725 81.3326 24.6266 81.2776 24.5716 81.2226C24.4891 81.1309 24.4616 81.0392 24.5166 80.9384C24.5258 80.92 24.5258 80.9109 24.4799 80.9017C24.3333 80.8742 24.3608 80.8283 24.3699 80.7825C24.3699 80.7642 24.3333 80.755 24.3058 80.7367C24.59 80.6908 24.3241 80.7092 24.3058 80.7C24.2874 80.6817 24.3791 80.6633 24.3149 80.645C24.2416 80.6267 24.2966 80.5992 24.3058 80.5717C24.3241 80.5258 24.5533 80.4891 25.0392 80.4341C25.1217 80.425 25.2042 80.4158 25.2867 80.4066C25.5159 80.3791 25.6351 80.3791 25.6901 80.3883C25.7543 80.4066 25.8826 80.4158 25.8368 80.4433C25.7359 80.5075 25.901 80.535 25.9743 80.5717C26.0935 80.6267 26.1943 80.6908 26.1943 80.7642C26.1943 80.81 26.2127 80.8559 26.2218 80.9017C26.231 80.9475 26.3319 80.975 26.3777 81.0209C26.4235 81.0576 26.4877 81.0851 26.4602 81.1309C26.4052 81.2042 26.4969 81.2684 26.4419 81.3418C26.4327 81.3601 26.4235 81.3784 26.451 81.3968C26.5702 81.4426 26.6619 81.4976 26.5977 81.571C26.5886 81.5801 26.5794 81.5893 26.6252 81.5893C26.9553 81.5893 26.8453 81.6351 26.8544 81.6718C26.8911 81.7635 26.9003 81.846 26.9186 81.9377C26.9461 82.0477 26.9736 82.1577 26.992 82.2677C27.0011 82.3319 27.0561 82.3961 26.9645 82.4786C26.9094 82.5244 26.9828 82.5611 26.992 82.5978C27.0011 82.6711 26.9369 82.7536 26.9461 82.827C26.9553 82.9553 27.0011 83.0837 27.0378 83.2028C27.0378 83.212 27.0561 83.2212 27.0836 83.2212C27.3678 83.3129 27.3312 83.432 27.322 83.5512C27.3128 83.6612 27.3678 83.7713 27.3587 83.8813C27.3587 83.9546 27.3037 84.0371 27.267 84.1196C27.2395 84.1838 27.2212 84.248 27.1845 84.3122C27.1386 84.3855 27.1753 84.4497 27.0103 84.5322C26.9644 84.5597 26.9644 84.578 26.9461 84.5964C26.8911 84.7064 26.8361 84.8072 26.7719 84.9172C26.7536 84.9448 26.6986 84.9723 26.4419 85.0181C26.3227 85.0364 26.2585 85.0639 26.2493 85.0823C26.2127 85.1281 26.121 85.1831 26.2493 85.2106C26.3319 85.229 26.1943 85.2656 26.1577 85.3023C26.1577 85.3023 26.0752 85.3206 26.0385 85.3206C25.8826 85.3298 25.8368 85.339 25.8368 85.3573C25.8276 85.3756 26.0018 85.3756 25.8368 85.4123C25.6443 85.4582 25.3142 85.4673 25.0667 85.504C24.7917 85.5407 24.6358 85.5315 24.3883 85.559C24.3516 85.559 24.3241 85.559 24.3149 85.5498C24.3424 85.5223 24.3424 85.504 24.3424 85.4765Z" fill="#8ED6C7"/>
</svg>
