<svg width="90" height="60" viewBox="0 0 90 60" fill="none" xmlns="http://www.w3.org/2000/svg">
<path d="M14.0896 23.4786C14.965 25.8048 15.9683 28.6721 16.9765 31.9917C19.1798 39.2704 19.5241 42.5852 21.6782 49.1655C22.4651 51.5655 23.4979 54.4278 24.87 57.6245C25.1602 57.8015 25.711 58.0819 26.4536 58.1458C27.4225 58.2294 28.1602 57.8999 28.4651 57.7425L42.9685 23.4786C40.5439 23.4294 38.1045 23.395 35.6455 23.3704C28.3274 23.2966 21.1421 23.336 14.0896 23.4786Z" fill="#DDAF3F"/>
<path d="M16.3037 27.5803C16.6234 28.8294 16.9529 30.0835 17.1939 31.3376C17.4053 32.4589 17.5971 33.5556 18.0447 34.6327C18.1578 34.913 18.2119 35.2327 18.2955 35.5327L18.743 37.1753C18.8119 37.4261 18.9644 37.6671 18.9939 37.9032C19.1512 39.0786 19.3922 40.2245 19.8201 41.336C19.8594 42.2704 20.2135 43.1163 20.5037 43.9917C20.7939 44.8671 21.0152 45.7769 21.4086 46.6081C21.5119 46.8294 21.6103 47.09 21.6545 47.3261C21.9398 48.7868 22.4611 50.1835 23.0021 51.5753C23.5824 53.0654 24.1037 54.5753 24.5513 56.1097C24.6103 56.3162 24.6742 56.5179 24.748 56.7244C24.8169 56.9261 24.9054 57.1474 24.9644 57.2999C24.9939 57.5015 25.1906 57.5605 25.348 57.6441C25.5152 57.7228 25.7267 57.7966 25.9185 57.8458C26.3906 57.9687 26.8923 57.9687 27.3693 57.8654C27.6005 57.8162 27.8513 57.7326 28.0234 57.6539C28.107 57.6048 28.2251 57.5851 28.2742 57.4966L28.3874 57.2162C28.948 55.8392 29.489 54.4277 29.9464 53.0015C30.5611 51.0884 31.2202 49.1802 31.9136 47.2818C32.2677 46.3179 32.73 45.3786 33.1579 44.4343C34.0185 42.5507 34.9136 40.6819 35.7546 38.7835C36.3891 37.3622 36.9792 35.9163 37.5596 34.4704C38.1005 33.1229 38.5973 31.7557 39.1333 30.4032L40.5891 26.7442L41.3169 24.9147C41.4006 24.7081 41.376 24.7573 41.3956 24.7032L41.4251 24.6098L41.4694 24.4475L41.2235 24.4721L41.1694 24.477L41.1448 24.4819H41.1301H41.0514L40.4219 24.4868L37.8989 24.5016C36.8661 24.5163 35.8333 24.5311 34.7956 24.5753C34.2792 24.5901 33.7628 24.595 33.2464 24.5901L27.4923 24.5508L19.2545 24.5753C17.6955 24.5753 16.1365 24.5508 14.5922 24.6885C14.1594 24.7278 14.0168 24.6196 14.1742 24.3835C14.4447 23.9753 14.6611 23.5475 15.4037 23.2967C15.9053 23.1294 16.3775 23.0016 17.007 23.0557C17.9217 23.1393 18.8807 22.9426 19.7808 23.1885C19.9086 23.2229 20.0906 23.2081 20.2431 23.1934C22.9283 22.8983 25.6283 23.036 28.3283 23.0557C29.2087 23.0606 30.0939 23.0114 30.9743 22.9967C31.5448 22.9868 32.1202 22.9819 32.6907 22.9819C33.5218 22.9868 34.353 23.0212 35.1841 22.9967C35.8087 22.9721 36.4186 22.918 36.9792 23.1639C37.0973 23.218 37.4268 23.2081 37.5399 23.154C37.9874 22.9376 38.5038 22.9671 39.0202 22.9819L40.9973 23.0458L43.5399 23.1049L43.4219 23.3852C43.1612 24.0098 42.9055 24.6294 42.6547 25.2688C42.4727 25.7557 42.2907 26.2426 42.1088 26.7294C41.5727 28.2393 41.0415 29.7442 40.5104 31.254C40.0481 32.5081 39.5366 33.7524 39.0546 35.0065C38.9415 35.2966 38.8678 35.5966 38.7497 35.8819C38.5382 36.4081 38.3563 36.9835 38.071 37.4458C37.7612 37.9573 37.5645 38.3802 37.53 38.9606C37.5104 39.2851 37.3136 39.7327 37.1366 40.0917C36.9153 40.554 36.6448 40.9917 36.3841 41.4196C36.0694 41.936 35.7595 42.4179 35.6464 43.072C35.5825 43.4212 35.3513 43.8491 35.1497 44.1884C34.2546 45.6933 33.5858 47.3163 32.9661 48.9589C32.1349 51.1917 31.3038 53.4245 30.4726 55.6572L29.9611 56.9654L29.6956 57.6146L29.4792 58.1408L29.3365 58.4359C29.307 58.4802 29.307 58.549 29.248 58.5687L29.1005 58.6425C28.948 58.7212 28.8005 58.7999 28.6431 58.8687C28.5005 58.9326 28.2939 59.0064 28.1906 59.0408C27.9693 59.1146 27.7382 59.1687 27.5021 59.208C27.0349 59.2867 26.5529 59.2917 26.0808 59.2228C25.8447 59.1884 25.6136 59.1343 25.3873 59.0654C25.2742 59.031 25.1611 58.9917 25.0529 58.9474L24.8808 58.8736L24.6447 58.7654C24.4923 58.6867 24.3447 58.6031 24.1972 58.5146C24.1332 58.4605 24.03 58.4458 23.9955 58.3621L23.8873 58.131C23.8136 57.9785 23.7496 57.8113 23.6808 57.6539L23.5726 57.3933C23.0168 56.031 22.5103 54.654 22.0283 53.2671C21.8414 52.7212 21.6595 52.1654 21.4332 51.6441C20.9021 50.4392 20.5135 49.1851 20.1939 47.9114C19.8053 46.3769 19.3037 44.8868 18.8267 43.3917C18.7135 43.0425 18.5807 42.6982 18.507 42.3442C18.0103 39.8802 17.243 37.5245 16.6184 35.1393C16.1168 33.2065 15.6496 31.2639 15.1233 29.336C14.7151 27.8458 14.3119 26.3557 13.8643 24.8753C13.8348 24.777 13.7807 24.6835 13.7512 24.5901C13.5053 23.7442 13.6774 23.3803 14.243 23.6163C14.7397 23.8229 15.1578 24.2999 15.4234 25.0573C15.7135 25.8934 15.9742 26.7393 16.2348 27.5852L16.3037 27.5803Z" fill="black"/>
<path d="M23.8674 17.4094C27.4133 6.9684 37.8446 -0.566066 49.2889 0.378201C60.9742 1.33722 68.9562 10.7406 71.3366 20.0013C74.0661 30.6243 70.1661 43.967 59.2726 49.4112C49.7905 54.1523 38.9364 50.9555 32.1937 45.2948C24.7527 39.0489 20.2526 28.0767 23.8674 17.4094Z" fill="#6AB9CA"/>
<path d="M26.3899 10.8832C27.5555 9.28977 28.9669 7.87829 30.4522 6.64878C31.1456 6.13238 31.8047 5.59631 32.5227 5.13402C32.8768 4.89303 33.2162 4.6373 33.5653 4.38648C33.9244 4.15533 34.2834 3.90943 34.6326 3.64385C34.8145 3.51106 35.0112 3.37828 35.2178 3.26024C35.4293 3.15205 35.6457 3.04385 35.8572 2.94057L36.9981 2.34549L38.1785 1.83401C38.5375 1.68155 38.8818 1.42581 39.2408 1.35204C40.1162 1.14548 40.9621 0.87991 41.8424 0.717614C42.2801 0.62909 42.7031 0.496302 43.1408 0.417613C43.5785 0.338925 44.0162 0.250399 44.4539 0.152038C45.8556 0.171711 47.213 -0.0200927 48.6244 0.0044975C49.3326 -0.0250108 50.031 0.0979402 50.7392 0.161875C51.4474 0.211055 52.1359 0.363515 52.8392 0.442203C53.2081 0.491384 53.6359 0.550401 53.9802 0.707778C54.5114 0.919254 55.0474 1.12089 55.5835 1.3127L57.1474 2.00122C57.413 2.1045 57.6688 2.23237 57.9196 2.37008L58.6819 2.76352C58.9327 2.89631 59.1983 3.01434 59.4393 3.16188L60.172 3.61434C62.2622 4.90287 64.1065 6.58976 65.5672 8.52255C65.936 9.0537 66.3639 9.55534 66.7475 10.0963C67.1164 10.6471 67.5344 11.1635 67.8836 11.7242C68.2918 12.3931 68.7442 13.0373 69.1082 13.7357L69.6787 14.7685L70.1754 15.8357C71.1147 17.916 71.8033 20.0898 72.3049 22.3226C72.9541 25.3128 73.082 28.4554 72.6787 31.5488C72.6246 31.9423 72.5656 32.3357 72.5016 32.7292C72.4033 33.1177 72.3049 33.5062 72.2065 33.8947C72.0984 34.2833 72.0147 34.6767 71.882 35.0554L71.4836 36.1915C70.3967 39.2062 68.7639 42.0194 66.6737 44.439C65.0803 46.239 63.2409 47.8325 61.2098 49.121C59.3163 50.3358 57.2261 51.2505 55.0425 51.8456C53.4294 52.3128 51.7474 52.4948 50.0753 52.6079C49.2392 52.5981 48.3933 52.6571 47.5621 52.5686C47.1441 52.5391 46.7261 52.5145 46.308 52.4751L45.0638 52.2981C44.6457 52.2489 44.2375 52.1653 43.8293 52.0718C43.4211 51.9833 43.008 51.8997 42.5998 51.8013C41.7982 51.5604 40.9769 51.3686 40.1998 51.0636C38.6063 50.5325 37.0916 49.8046 35.6162 49.0128C34.2096 48.2259 32.8473 47.3456 31.5686 46.3423C31.2489 46.0964 30.9538 45.8112 30.6489 45.5456C30.3489 45.2702 30.0342 45.0145 29.7637 44.7095C27.644 42.5653 25.8882 40.0964 24.521 37.4259C23.5522 35.5079 22.7849 33.4915 22.2489 31.4013C21.7423 29.3062 21.4915 27.1521 21.4964 24.9931C21.5013 22.539 21.9194 20.1144 22.5194 17.7488C22.6767 17.0799 22.844 16.9029 22.9964 17.2226C23.262 17.7685 23.5718 18.2259 23.4981 19.3521C23.4882 19.7357 23.4981 20.1095 23.4636 20.4931C23.444 20.8816 23.3456 21.275 23.2669 21.7275C23.1587 22.3914 23.0653 23.08 23.0505 23.7636C23.0407 24.1078 23.0308 24.4521 23.0013 24.7914C22.9718 25.1308 22.9226 25.4701 22.8882 25.8046C22.8636 25.9914 22.8882 26.2669 22.9177 26.4882C23.1735 28.4652 23.5325 30.4226 24.1276 32.321C24.7128 34.2144 25.4407 36.0882 26.4292 37.8193C26.744 38.3898 27.1227 38.9259 27.4719 39.4718C27.8505 40.003 28.2587 40.5144 28.6424 41.0357L29.4637 42.0046L29.8719 42.4866L30.3096 42.9439C30.7325 43.3866 31.1407 43.8489 31.603 44.2521C32.0506 44.6702 32.4981 45.0931 32.9998 45.4522C33.7227 46.0325 34.5145 46.4505 35.0752 47.1341C35.1981 47.2669 35.626 47.5079 35.8031 47.5472C36.4719 47.7095 37.1358 48.0784 37.8096 48.4325C39.649 49.362 41.5818 50.1194 43.5883 50.6063L44.7047 50.8522C45.0785 50.9161 45.4621 50.9604 45.8359 51.0145C46.5884 51.1423 47.3507 51.1472 48.108 51.1915C50.4589 51.2358 52.7851 50.8817 54.9982 50.2079C55.4704 50.0948 55.913 49.903 56.3704 49.7407C56.8278 49.5784 57.2802 49.421 57.713 49.1997C58.1507 48.9882 58.5983 48.8063 59.0212 48.5751L60.2655 47.8374C60.4524 47.7194 60.6491 47.6112 60.8212 47.4735C60.9934 47.3308 61.1655 47.1931 61.3425 47.0604C61.6671 46.8194 62.0065 46.5686 62.336 46.3226C62.6557 46.0669 62.9557 45.7866 63.2704 45.5702C63.6147 45.3144 63.9393 45.103 64.1852 44.8226C64.4311 44.5423 64.6475 44.2472 64.8442 43.8931C64.9524 43.6915 65.1344 43.4751 65.3213 43.2439C65.4983 42.998 65.695 42.7521 65.877 42.5358C66.1082 42.2554 66.3541 41.98 66.6 41.7144C66.8262 41.4292 67.0475 41.139 67.2737 40.8587C67.8393 40.1948 68.2868 39.5013 68.5869 38.6013C68.6262 38.4833 68.6803 38.3554 68.7393 38.2226C68.7885 38.0849 68.8475 37.9472 68.9114 37.8046C69.0393 37.5243 69.1819 37.2439 69.3196 36.9931C70.4852 34.7456 71.0951 32.1931 71.2918 29.6406C71.5524 26.1685 71.1688 22.6669 70.0819 19.4111C69.9738 19.0914 69.8852 18.7668 69.7672 18.4521L69.4033 17.5078C69.1819 16.8685 68.8672 16.2734 68.5918 15.6537C66.7377 11.9062 64.1655 8.46354 60.8507 5.90123C60.2262 5.36517 59.513 4.92746 58.8147 4.51926C58.4114 4.27828 57.9786 4.11107 57.5655 3.88975L56.9458 3.575C56.7392 3.47172 56.5229 3.39303 56.3114 3.29959L55.0376 2.74385L53.7294 2.27663C51.6048 1.56352 49.3474 1.33237 47.1343 1.4209C46.6179 1.47008 46.1015 1.54385 45.59 1.55368C45.1425 1.54385 44.7047 1.62745 44.2621 1.67663C43.8244 1.74549 43.3769 1.77008 42.9441 1.88319C42.0785 2.08975 41.208 2.27663 40.3769 2.60122C39.526 2.86188 38.7195 3.24549 37.908 3.59959C37.4998 3.77172 37.1211 4.00779 36.7227 4.20451C36.3293 4.41107 35.926 4.60287 35.5571 4.84877C33.0784 6.29959 30.7965 8.12911 28.8932 10.3275C27.4325 12.0242 26.1686 13.9078 25.185 15.9439C25.1259 16.0816 25.0866 16.234 25.0276 16.3668C24.5063 17.5373 24.0735 17.8422 23.8817 17.1144C23.7981 16.7898 23.7833 16.3963 23.8472 15.939C23.8817 15.7127 23.9308 15.4668 24.0046 15.2062C24.0981 14.9554 24.2112 14.6947 24.344 14.4144C24.644 13.8045 24.9391 13.1947 25.3177 12.6242C25.6768 12.0488 26.0161 11.4635 26.4341 10.9275L26.3899 10.8832Z" fill="black"/>
<path d="M22.6526 23.4782C22.987 23.6995 23.6116 24.0733 24.4575 24.3438C29.2034 25.8684 35.3658 22.4061 35.3215 19.8193C35.3018 18.6242 33.8018 18.398 33.6592 16.8783C33.4379 14.4538 36.9297 11.4144 39.2412 11.9751C40.7756 12.3489 40.9232 14.0898 41.8822 14.0111C43.5051 13.8783 45.4134 8.68497 43.6183 5.63582C42.9888 4.56371 42.3592 4.54403 41.656 3.2211C41.6461 3.20143 41.6363 3.18175 41.6215 3.15716C41.4248 2.77356 41.3904 2.57684 41.174 1.99161C41.1592 1.95226 41.1346 1.88833 41.1002 1.7998C39.1133 2.24242 33.2067 3.83585 28.3969 9.36857C23.4051 15.1177 22.7706 21.4815 22.6526 23.4782Z" fill="#26786A"/>
<path d="M25.7703 23.9209C26.5719 24.1422 27.4424 24.2012 28.3129 24.216C29.09 24.2357 29.8867 24.1668 30.5949 23.7635C30.7769 23.6652 30.9933 23.6062 31.19 23.5275C31.5441 23.3701 31.9031 23.2029 32.2326 23.0012C32.3851 22.9127 32.4982 22.7406 32.6507 22.6816C33.3933 22.3717 34.0917 21.8701 34.4408 21.157C34.9523 20.798 35.1195 20.0947 34.9523 19.6423C34.8195 19.1996 34.3081 18.8308 33.7277 18.339C33.5753 18.2062 33.4228 18.0046 33.3589 17.7931C33.2458 17.4734 33.2113 17.1439 33.2064 16.8341L33.2261 16.3718L33.3097 15.9292C33.4523 15.3489 33.6835 14.8128 33.9785 14.321C34.3081 13.7997 34.7212 13.3423 35.1884 12.9636C35.6654 12.5948 36.2015 12.2948 36.772 12.103C37.3769 11.9112 38.0114 11.7095 38.6802 11.7095C39.0737 11.7145 39.4819 11.7686 39.8507 11.9554C40.2245 12.1276 40.5343 12.4128 40.7802 12.7079C40.8884 12.8358 40.9868 12.9636 41.0852 13.0866C41.1884 13.2194 41.2475 13.2882 41.3311 13.3767C41.4835 13.539 41.7098 13.6767 41.936 13.5981C42.0884 13.5538 42.2114 13.4554 42.3147 13.3522C42.418 13.244 42.477 13.1358 42.5852 12.9587C43.1753 11.8423 43.4114 10.4653 43.4212 9.19646C43.4163 8.54728 43.4507 7.89811 43.3376 7.27844C43.2344 6.66369 43.0081 6.07845 42.6688 5.61125C42.5016 5.3801 42.2606 5.15387 41.9704 4.84896C41.6852 4.54896 41.4245 4.18503 41.2229 3.82602C41.1393 3.67848 41.0606 3.53094 40.9868 3.36864C40.9475 3.28995 40.913 3.20635 40.8786 3.12274L40.8245 2.98504C40.7802 2.85225 40.736 2.72439 40.6819 2.59652C40.5737 2.62111 40.4606 2.65553 40.3524 2.68504L39.8606 2.8375C38.9114 3.14241 38.0015 3.56044 37.1064 3.98831C34.4507 5.25715 32.0556 7.01779 30.0884 9.15711C29.631 9.68334 29.1933 10.2243 28.79 10.7899C28.5736 11.0604 28.367 11.3407 28.1654 11.621C27.3785 12.639 26.6801 13.7308 26.1047 14.8866C25.2637 16.5341 24.6736 18.3095 24.2555 20.1144C24.0195 21.1373 23.8326 22.1849 23.8867 23.2275C23.9014 23.5176 23.7883 23.6062 23.5572 23.4832C23.1637 23.2668 22.7457 23.0799 22.5539 22.5291C22.4309 22.1554 22.3424 21.7963 22.4703 21.3586C22.6522 20.7291 22.6031 20.0111 22.9916 19.4357C23.0457 19.357 23.0703 19.2242 23.0801 19.121C23.267 17.1833 24.1227 15.3882 25.0326 13.6915L25.4801 12.8554C25.6227 12.5702 25.7703 12.2948 25.9424 12.0243C26.1588 11.6751 26.3703 11.321 26.6211 10.9964L27.167 10.2833C27.3539 10.0522 27.5506 9.83088 27.7326 9.5899C27.8703 9.41285 27.9883 9.22105 28.1359 9.06367C28.2883 8.91121 28.4605 8.78335 28.6867 8.71449C28.7801 8.68499 28.9326 8.50794 28.9424 8.40466C28.9867 8.01122 29.2867 7.77516 29.5523 7.51942C30.2802 6.82599 31.0867 6.22107 31.8785 5.60633C32.1785 5.38993 32.4785 5.16863 32.7736 4.9424L33.6785 4.28831C34.6228 3.62438 35.5868 2.9752 36.6294 2.43914C37.4999 1.99161 38.4196 1.64243 39.3491 1.32276C39.4573 1.28833 39.5606 1.24407 39.6688 1.19981L39.7474 1.16538L39.8802 1.12112C39.9688 1.09161 40.0622 1.06211 40.1556 1.03752C40.6622 0.90473 41.213 0.742438 41.7147 0.63916C41.7737 0.816208 41.8327 0.998173 41.877 1.17522C41.9753 1.55882 42.0589 1.86374 42.1721 2.15882C42.2016 2.23259 42.2311 2.30144 42.2606 2.37521C42.2999 2.46373 42.3196 2.48832 42.3442 2.51291C42.3934 2.56701 42.4524 2.61127 42.5311 2.66045C42.7081 2.75881 42.836 3.00963 42.9442 3.18176C43.0819 3.40799 43.2048 3.64405 43.4262 3.94405C43.6967 4.31289 43.9721 4.7506 44.3753 5.13912C44.5917 5.35551 44.7393 5.74895 44.7934 6.07353C45.054 7.49483 45.0786 8.81777 44.9311 10.1555C44.8327 11.0063 44.636 11.8473 44.3016 12.6784C44.1294 13.0915 43.9278 13.5046 43.6278 13.9128L43.5048 14.0751L43.3229 14.2669C43.2048 14.3997 43.0622 14.503 42.9245 14.6161C42.6393 14.8325 42.3147 14.9456 41.9753 15.0095C41.813 15.0046 41.6458 15.0292 41.4835 14.9948C41.1983 14.9554 40.9376 14.8226 40.6966 14.6505C40.4556 14.4784 40.2589 14.2325 40.077 14.0013C39.8311 13.6817 39.6884 13.4997 39.5261 13.3472C39.2802 13.1308 39.113 13.0522 38.8179 13.0226C38.5327 12.9981 38.1737 13.0325 37.7999 13.1604C37.0523 13.421 36.2802 13.9177 35.6802 14.5472C35.5572 14.6653 35.4392 14.7931 35.3458 14.9308C35.2376 15.0636 35.1589 15.2062 35.0949 15.3538C35.0064 15.521 34.9769 15.6931 34.9031 15.8505C34.8736 16.0079 34.7949 16.1702 34.7851 16.3128C34.7212 16.6079 34.7113 16.8636 34.7605 17.0702C34.8097 17.3406 35.0753 17.5964 35.5622 18.0587C35.7933 18.2898 36.0982 18.639 36.2654 19.121C36.3491 19.357 36.3933 19.6128 36.4032 19.8488C36.4032 19.9619 36.4032 20.075 36.3982 20.1882L36.354 20.5078C36.2802 20.8914 36.172 21.2652 35.9851 21.5406C35.3261 22.5193 34.5589 23.1685 33.7621 23.7635C32.9605 24.3389 32.0998 24.8111 31.1802 25.1258C29.6949 25.6324 28.1064 25.8143 26.5375 25.6471C25.3277 25.5291 24.1277 25.1357 23.0998 24.516C23.0309 24.4766 22.9522 24.457 22.8834 24.4127C22.308 24.0193 22.3276 23.6553 22.8096 23.4488C23.2424 23.257 23.6654 23.2422 24.1326 23.4488C24.649 23.675 25.185 23.8521 25.7506 23.9652L25.7703 23.9209Z" fill="black"/>
<path d="M63.7775 7.05237C62.8037 7.4704 61.4709 8.0704 59.9168 8.87204C56.3168 10.736 54.3545 11.6901 54.4086 12.9442C54.4528 13.9474 57.3102 14.4294 57.7283 16.7163C58.1119 18.831 62.5381 16.9622 63.7627 18.7523C64.2939 19.5294 64.4168 20.3064 64.5939 21.3933C64.6972 22.0425 64.7217 22.5884 64.7021 23.0556C64.6283 24.8064 64.4217 25.5736 64.4414 26.0704C64.4857 27.0786 65.848 28.4851 71.9759 30.1031C72.0448 29.4786 72.1185 28.6769 72.1529 27.7376C72.1529 27.7376 72.2021 26.5425 72.1677 25.4802C72.1185 23.8327 71.6857 20.8622 70.8103 18.2458C68.9169 12.5409 64.7906 8.10974 63.7775 7.05237Z" fill="#26786A"/>
<path d="M61.5292 8.89656C60.7816 9.14738 60.0292 9.40312 59.2865 9.65394C58.6128 9.86542 57.9488 10.0621 57.3931 10.5244C57.2505 10.6425 57.0636 10.7113 56.9013 10.8048C56.6013 10.9769 56.3062 11.1539 56.0308 11.3507C55.9029 11.4392 55.8242 11.6015 55.6914 11.6605C55.3865 11.8031 55.0767 12.0195 54.9045 12.2408C54.7275 12.4621 54.6537 12.7916 54.8111 13.0228C54.7914 13.249 54.9832 13.4162 55.1701 13.5343C55.3963 13.6769 55.657 13.7851 55.9127 13.9228C56.4291 14.1982 56.8964 14.5818 57.4177 14.9654C57.5505 15.0785 57.6931 15.2212 57.7619 15.3884C57.8111 15.5162 57.8701 15.6343 57.9193 15.7621L58.0472 16.1458C58.1062 16.3966 58.1603 16.6917 58.1996 16.7851C58.3177 17.0802 58.5783 17.1933 58.9718 17.2671C59.8177 17.3949 60.8407 17.3507 61.8439 17.6163C62.3702 17.7638 62.9554 17.8425 63.4669 18.1769C63.7718 18.3736 64.003 18.6785 64.1702 18.9589C64.3472 19.249 64.4849 19.5638 64.5833 19.8884C64.7259 20.3556 64.8145 20.8179 64.9226 21.2704C65.0308 21.7277 65.1292 22.2097 65.1981 22.6966C65.2817 23.3605 65.3161 23.9753 65.321 24.6245C65.321 24.9441 65.3112 25.2687 65.3063 25.5687C65.3063 25.7163 65.3013 25.8589 65.3161 25.9622C65.321 26.0163 65.3309 26.0507 65.3407 26.0654C65.3456 26.0851 65.3604 26.1048 65.3751 26.1245C65.4587 26.2966 65.7981 26.7245 66.2554 27.0392C67.1751 27.6933 68.321 28.2343 69.4866 28.6671L70.1506 28.8982L70.7702 29.0851C70.9768 29.1343 71.203 29.2081 71.3555 29.1982C71.3604 28.9868 71.3456 28.7851 71.3309 28.6179C71.326 28.6081 71.3309 28.4605 71.3309 28.3622L71.3358 28.0425C71.3457 27.831 71.3407 27.6146 71.3309 27.3933L71.2719 25.4458C71.2276 24.831 71.1391 24.1917 71.0309 23.5622C70.8145 22.2982 70.5194 21.0392 70.1407 19.8294C69.9588 19.2441 69.7325 18.6835 69.4915 18.1277L69.1571 17.2867C68.7587 16.2392 68.2866 15.2064 67.7259 14.2179C66.9341 12.7966 65.985 11.4539 64.9817 10.1556C64.4112 9.42279 63.821 8.69492 63.098 8.11459C62.8915 7.9523 62.9161 7.81459 63.1521 7.72115C63.5653 7.55885 63.9685 7.36705 64.4603 7.53918C64.7948 7.65721 65.0849 7.79492 65.2964 8.13426C65.5964 8.62115 66.1276 8.96541 66.2751 9.55558C66.2948 9.63919 66.3735 9.72279 66.4423 9.78673C67.6866 10.9375 68.4932 12.4425 69.2801 13.9228C69.5309 14.4097 69.8309 14.872 70.0719 15.3687C70.2292 15.6884 70.3916 16.008 70.5145 16.3425L70.7899 17.0703C70.8686 17.3162 70.9522 17.5622 71.0506 17.8031C71.203 18.1622 71.3899 18.5064 71.2571 18.9146C71.2276 18.9982 71.3014 19.19 71.3752 19.2441C71.6653 19.4507 71.7243 19.7704 71.7981 20.0851C71.9899 20.9359 72.1227 21.7966 72.2653 22.6523L72.5948 24.5605C72.6834 25.0572 72.7522 25.5736 72.7965 26.0605C72.8457 26.5573 72.8948 27.054 72.9293 27.5556C72.9489 27.7622 72.9391 27.9786 72.9342 28.195L72.9244 28.5195L72.9047 28.9425L72.7916 31.0769L72.7866 31.2048C72.7817 31.2196 72.7965 31.2638 72.7768 31.2589L72.7227 31.2491L72.5014 31.2097C72.3539 31.1851 72.2014 31.1556 72.0391 31.1114C71.4588 30.9589 70.7948 30.8458 70.2637 30.5999C69.9292 30.4081 69.6588 30.3146 69.2702 30.3884C69.0489 30.4327 68.7587 30.3294 68.5227 30.2261C68.2227 30.0884 67.9423 29.9163 67.6718 29.7245C67.3423 29.5032 67.0522 29.2769 66.6096 29.2376C66.3686 29.213 66.103 29.0261 65.8964 28.854C65.444 28.4704 64.9768 28.1064 64.5194 27.6392C64.2981 27.3884 64.0669 27.1277 63.9095 26.754C63.8358 26.5671 63.7767 26.3654 63.7571 26.154C63.7374 25.9474 63.7423 25.79 63.7472 25.6376C63.7915 24.8507 63.8259 24.1868 63.8112 23.4687C63.8062 23.0999 63.7915 22.7802 63.7472 22.4654C63.7079 22.1409 63.644 21.831 63.5653 21.4966C63.4374 20.9359 63.344 20.4146 63.1817 20.0163C63.1177 19.8589 63.0489 19.7212 62.9702 19.5835C62.9308 19.5195 62.8816 19.4408 62.8472 19.3917C62.8275 19.372 62.8128 19.3474 62.7882 19.3277C62.7046 19.2441 62.4685 19.131 62.1292 19.0671C61.4407 18.9294 60.5505 18.949 59.5718 18.8556C59.1783 18.8113 58.7652 18.7572 58.2685 18.6343C57.9931 18.5753 57.6193 18.4081 57.339 18.1572C57.0537 17.9113 56.8472 17.5818 56.7341 17.2228C56.7095 17.1343 56.6849 17.0408 56.6652 16.9474L56.6406 16.849L56.6013 16.6474C56.557 16.5294 56.5373 16.4064 56.4734 16.2884C56.3455 15.9933 56.0898 15.7228 55.7603 15.4917C55.4308 15.2556 55.0373 15.0589 54.5799 14.8031L54.4127 14.7097L54.3144 14.6507L54.1767 14.5621C54.0045 14.4343 53.8472 14.2818 53.7094 14.1244C53.498 13.8294 53.3406 13.5097 53.3012 13.1556C53.257 12.8064 53.3111 12.4474 53.4291 12.108C53.4931 11.9359 53.5619 11.7736 53.6652 11.6162C53.7586 11.4589 53.8668 11.3015 53.9799 11.1785C54.0685 11.0703 54.157 10.972 54.2455 10.8884C54.334 10.7998 54.4275 10.7113 54.5111 10.6375C55.2193 10.0277 55.898 9.60968 56.6013 9.24082C57.7521 8.66541 58.8734 8.19328 60.0538 7.74082C60.9685 7.39164 61.8882 7.07689 62.798 6.74738C62.8571 6.7277 62.9112 6.67852 62.9702 6.65885C63.4964 6.4818 63.762 6.67852 63.7079 7.19492C63.6587 7.6523 63.4276 8.01131 62.9849 8.21295C62.498 8.43427 61.9964 8.63099 61.5046 8.83754L61.5292 8.89656Z" fill="black"/>
<path d="M12.1628 27.7079C12.1628 27.7079 2.15454 23.9849 1.1906 31.1948C0.393869 37.1456 7.57916 37.2144 9.20212 37.1554C9.48245 37.1456 9.76278 37.1407 10.048 37.1456L29.2383 37.4751C29.2383 37.4751 37.6089 36.1325 34.6629 27.7571C33.158 23.4735 25.8399 25.1554 25.8399 25.1554C25.8399 25.1554 25.1612 20.5669 18.876 20.5669C11.9956 20.5718 12.1628 27.7079 12.1628 27.7079Z" fill="white"/>
<path d="M8.35072 27.5408C7.35236 27.3293 6.32448 27.2359 5.3212 27.2851C4.87365 27.3097 4.42119 27.3638 4.00315 27.5261C3.58512 27.6785 3.18676 27.9195 2.90151 28.2785C2.82282 28.3671 2.73921 28.4458 2.65561 28.5392C2.57692 28.6277 2.47364 28.7064 2.4097 28.8097C2.14413 29.1589 1.93757 29.5573 1.79494 29.9753C1.72609 30.1671 1.76052 30.3983 1.67691 30.5704C1.5933 30.7868 1.52937 31.0179 1.46543 31.2442C1.42609 31.4753 1.37691 31.7114 1.37691 31.9425C1.35232 32.4098 1.43101 32.8868 1.62773 33.3049C1.62773 34.0524 2.15888 34.6475 2.71462 35.0705C3.26545 35.5082 3.91463 35.9016 4.63759 36.0147C4.82939 36.0492 5.04087 36.0984 5.21792 36.177C6.30973 36.6541 7.55891 36.7279 8.76384 36.6885C10.1065 36.6098 11.4589 36.7082 12.7819 36.9C13.4901 37.0033 14.2327 37.0131 14.9606 37.023C15.8262 37.0377 16.6918 36.9984 17.5623 36.9984C18.8213 36.9984 20.0705 36.9689 21.3197 36.8557C22.9918 36.7082 24.6738 36.5951 26.3607 36.5262C27.2164 36.4918 28.0869 36.5656 28.9525 36.6098L29.1148 36.6197C29.1492 36.6197 29.1541 36.6246 29.1738 36.6246C29.1787 36.6295 29.2918 36.6098 29.3853 36.5902C29.5771 36.5557 29.7689 36.5066 29.9607 36.4574C30.3443 36.3541 30.723 36.2311 31.0918 36.0787C31.8197 35.7738 32.5132 35.3705 33.0738 34.8393C33.9345 34.0524 34.4558 32.9655 34.5492 31.8098C34.6476 30.7278 34.4066 29.6163 34.0427 28.549C33.9787 28.3671 33.9148 28.1703 33.846 28.008C33.782 27.8556 33.7132 27.708 33.6246 27.5753C33.4574 27.3048 33.2509 27.0588 33.005 26.8572C32.5033 26.4539 31.8591 26.1785 31.141 26.0359C30.4279 25.8834 29.6607 25.8441 28.8935 25.8637C28.5099 25.8736 28.1213 25.908 27.7328 25.9523C27.541 25.9769 27.3443 26.0015 27.1525 26.031L26.7344 26.0998C26.5377 26.1342 26.3459 26.1687 26.1492 26.2129C25.8394 26.0211 25.5885 25.8883 25.4213 25.7801L25.2639 25.6621L24.723 25.2785C24.6787 25.1064 24.6246 24.9342 24.5557 24.7818L24.4869 24.6342C24.4721 24.5998 24.4574 24.5703 24.4377 24.5408C24.3639 24.4178 24.3 24.2899 24.2115 24.1768C24.1279 24.0588 24.0492 23.9408 23.9557 23.8375C23.8672 23.7293 23.7787 23.6162 23.6705 23.5227C23.5525 23.3998 23.4344 23.2817 23.3016 23.1784L23.1098 23.0112L22.8984 22.8637C22.382 22.4948 21.7819 22.2047 21.1131 22.0325C20.459 21.8358 19.736 21.7669 19.0131 21.7374C18 21.7473 17.0114 21.8751 16.1803 22.2784C15.3491 22.6768 14.6803 23.3309 14.2081 24.1621C13.9376 24.6342 13.7212 25.1506 13.5737 25.7014C13.436 26.2523 13.3622 26.8326 13.3967 27.3933C13.4163 27.708 13.313 27.7375 13.077 27.6687C12.6737 27.4769 12.2409 27.2654 12.0786 26.6064C11.9803 26.1588 11.9262 25.7211 12.1376 25.2096C12.4229 24.4818 12.6098 23.6063 13.2639 23.0801C13.3573 23.0063 13.436 22.8735 13.495 22.7555C14.0803 21.7325 15.118 20.9456 16.259 20.5866C16.5344 20.4587 16.8344 20.4391 17.1245 20.3702L17.5623 20.2866C17.7098 20.262 17.8573 20.2669 18.0049 20.2571L18.8852 20.2227L19.7557 20.2817C20.1344 20.2866 20.5082 20.3751 20.8918 20.4046C21.2705 20.4538 21.6442 20.5571 22.018 20.6505L22.7262 20.9161C22.9574 21.0194 23.1787 21.1473 23.4 21.2653C24.0295 21.6538 24.5803 22.1555 25.0623 22.7161C25.4213 23.1342 25.7754 23.5867 25.7508 24.1424C25.7459 24.2309 25.8 24.3539 25.8492 24.4375C25.8689 24.467 25.8885 24.4867 25.9033 24.4965C26.0164 24.5457 26.0803 24.6047 26.1246 24.6883C26.1246 24.7326 26.1787 24.6834 26.2082 24.6834C26.2426 24.6736 26.2771 24.6637 26.3115 24.6539C26.3754 24.6391 26.4443 24.6293 26.5082 24.6195L26.5918 24.6096L26.9164 24.5703L27.364 24.526C27.659 24.5014 27.959 24.4867 28.259 24.4768C28.859 24.4621 29.4541 24.4719 30.059 24.5211C30.9443 24.5998 31.8492 24.7326 32.7246 25.0768C33.4033 25.3326 34.0624 25.7506 34.5886 26.326C34.8394 26.6211 35.0755 26.9457 35.2378 27.2998C35.3312 27.4818 35.4001 27.649 35.4591 27.8113L35.6509 28.3081C36.0394 29.4294 36.2312 30.6638 36.1476 31.9327C36.1132 32.2229 36.1279 32.5229 36.0542 32.818C35.946 33.354 35.7788 33.9344 35.4591 34.3573C35.1099 34.8295 34.8443 35.1639 34.6427 35.6951C34.5296 36 34.1755 36.3344 33.8656 36.5607C33.4673 36.8557 33.0246 37.0672 32.5869 37.2344C32.0558 37.4361 31.5689 37.564 31.0722 37.9082C30.8066 38.0951 30.3689 38.1886 30.0049 38.223L29.3213 38.2918L29.1049 38.2722L28.9672 38.2574L28.6771 38.2082C28.3131 38.1689 27.9492 38.1492 27.5853 38.1345C26.8574 38.105 26.1246 38.1148 25.3918 38.1345L19.4262 38.3459C18.6491 38.3705 17.8672 38.3656 17.0852 38.3656C14.6606 38.3754 12.2163 38.2623 9.82122 38.1689C9.59007 38.164 9.38843 38.1541 9.13269 38.159C8.87695 38.164 8.62121 38.1689 8.37039 38.1886C7.21465 38.2623 6.04415 38.1049 4.90808 37.7213C4.22447 37.4902 3.54086 37.2246 2.872 36.8607C2.20314 36.5016 1.55396 36.0147 1.02773 35.3705C0.781824 35.0754 0.545757 34.7459 0.408051 34.3869C0.167066 33.7573 0.0490324 33.1081 0.0146059 32.4786C-0.0198205 31.8491 0.00476984 31.2442 0.108049 30.6491C0.186738 30.0491 0.373625 29.4392 0.6392 28.8441C0.914611 28.254 1.31789 27.6982 1.8097 27.2408C2.62118 26.508 3.62446 26.0801 4.58349 25.8982C5.54743 25.7014 6.48678 25.7113 7.38678 25.79C8.78351 25.9228 10.0966 26.2769 11.3606 26.7244C11.4442 26.7539 11.5376 26.7638 11.6212 26.7933C12.3393 27.0785 12.4622 27.4523 11.9803 27.7474C11.5622 28.0179 11.0557 28.1015 10.436 27.9343C9.75237 27.7572 9.06384 27.5851 8.36548 27.4818L8.35072 27.5408Z" fill="black"/>
<path d="M86.8435 27.7462C83.0861 28.0708 79.0483 28.2872 74.7598 28.3216C69.463 28.3659 64.5302 28.1397 60.0154 27.7462C59.9564 27.7462 59.1695 27.7315 58.7121 27.0478C58.4367 26.6347 58.358 26.0937 58.5744 25.5773L58.6974 25.2822C59.4597 23.4724 58.1367 21.4707 56.1744 21.4707H45.635C44.5333 21.4707 43.5399 22.1297 43.112 23.1429C41.6071 27.4855 39.9349 31.9659 38.0759 36.5644C34.9874 44.1924 32.2627 51.5449 28.4709 57.7417C28.2152 58.1598 27.4873 58.5286 27.4873 58.5286C34.7906 58.6024 46.9137 59.2024 59.0908 59.4385C64.9236 59.3598 70.6384 59.1926 76.2204 58.9467C76.427 58.9467 76.9729 58.9172 77.5188 58.5532C77.8975 58.3024 78.2024 57.9434 78.3844 57.5106C78.9844 56.1089 79.9287 53.945 81.1483 51.3088C83.4598 46.3121 84.4484 44.6251 85.791 41.5562C86.7894 39.2841 88.1369 35.9053 89.3714 31.5577C89.4107 31.4594 89.9271 30.1757 86.8435 27.7462Z" fill="#EBC564"/>
<path d="M79.3727 28.9178C77.2678 28.8981 75.153 28.8686 73.0776 28.726C71.2235 28.5981 69.4137 28.4358 67.5202 28.4997C67.0333 28.5194 66.5022 28.4604 65.9956 28.4407C65.071 28.3915 64.1415 28.3424 63.2169 28.2932C62.7939 28.2735 62.3464 28.3227 61.9579 28.2686C61.3038 28.1751 60.6448 28.0817 59.9907 28.0079H60.0152C59.6316 27.9833 59.2972 27.8702 58.9874 27.6637C58.6824 27.4571 58.4464 27.1571 58.3136 26.8177C58.1808 26.4784 58.1464 26.0948 58.2251 25.7259C58.2447 25.6325 58.2742 25.544 58.3038 25.4554L58.3824 25.2292C58.4316 25.0767 58.4611 24.9538 58.4956 24.8161C58.7562 24.2013 58.6677 23.444 58.2792 22.8833C57.9005 22.3177 57.2808 21.939 56.6267 21.8603C56.4644 21.8259 56.3021 21.8407 56.1251 21.8308L55.5546 21.8407L54.4136 21.8603C53.6562 21.8751 52.8988 21.8997 52.1513 21.9734C51.7578 22.0128 51.3004 22.0275 50.9021 21.998C49.6824 21.9193 48.4676 21.8948 47.248 21.8948L46.3332 21.8997L45.8758 21.9046L45.6447 21.9095L45.4529 21.9193C44.9463 21.9734 44.4545 22.1948 44.0955 22.5489C43.9037 22.7357 43.7365 22.962 43.6233 23.198C43.5742 23.2915 43.5201 23.4636 43.466 23.6112L43.3086 24.0685C43.0922 24.6882 42.866 25.303 42.6299 25.9177C42.1627 27.1423 41.6561 28.3571 41.1201 29.5473C40.5446 30.8161 40.0332 32.1785 39.5118 33.5112L37.6872 38.2719C36.7922 40.5687 35.9364 42.8605 35.1249 45.1769C34.0331 48.2704 32.838 51.3688 31.3921 54.3786C30.7626 55.6819 30.02 56.941 29.2233 58.1901C28.9626 58.5836 28.6774 58.7803 28.4265 58.9623C28.2446 59.0852 28.0872 59.1787 27.8757 59.2869L27.497 57.659C30.7282 57.7574 33.9348 57.9442 37.1512 58.0869C39.6938 58.2 42.2463 58.2738 44.7938 58.3279C47.1693 58.382 49.5447 58.382 51.9201 58.4164L57.1972 58.4852C58.9382 58.5393 60.7038 58.4311 62.4595 58.3623L73.0088 57.9246L75.5415 57.8016L76.176 57.7672C76.2448 57.7623 76.2694 57.7623 76.2891 57.7623L76.3678 57.7524C76.4219 57.7426 76.4711 57.7328 76.5252 57.7131C76.7268 57.6492 76.9039 57.536 77.0465 57.3787C77.1153 57.3 77.1744 57.2164 77.2235 57.1278L77.258 57.059L77.3071 56.9459L77.435 56.6557L77.9563 55.4901L79.9186 51.1819C80.5826 49.7507 81.276 48.3294 81.9695 46.913C82.9678 44.8769 83.9809 42.8999 84.8564 40.8687C85.7416 38.8375 86.5334 36.767 87.2367 34.667C87.6203 33.5358 87.9793 32.3948 88.299 31.2489L88.3482 31.0719L88.7318 31.2834C88.7662 31.303 88.8006 31.3178 88.8351 31.3325L88.7564 31.303L88.5793 31.2588C88.4761 31.2391 88.3875 31.2293 88.3138 31.2194C88.3138 31.2194 88.3138 31.2047 88.3088 31.1801C88.3039 31.1358 88.2793 31.0522 88.2449 30.9637C88.176 30.7866 88.0433 30.5702 87.8908 30.3637C87.5662 29.9407 87.1334 29.5325 86.6515 29.1588C86.1301 28.7702 86.0269 28.5489 86.3662 28.5194C86.9515 28.4899 87.5367 28.3374 88.5547 29.0948C88.8941 29.3604 89.2138 29.6506 89.4695 30.044C89.5974 30.2407 89.7154 30.467 89.7843 30.7325C89.8482 31.003 89.9072 31.2981 89.7498 31.7014L89.7449 31.7162L89.7597 31.667C89.2679 33.0785 88.9777 34.6424 88.2597 35.9555C88.1613 36.1424 88.0679 36.4277 88.0039 36.6637C87.3941 38.7834 86.5924 40.8539 85.6629 42.8654C84.7285 44.8769 83.676 46.8146 82.717 48.7917C82.0875 50.0852 81.5121 51.4081 80.9465 52.7311L79.8104 55.2885L78.9596 57.1377L78.7481 57.6C78.6793 57.7623 78.5809 57.9492 78.4727 58.1065C78.2514 58.4311 77.9662 58.7065 77.6317 58.918C77.3809 59.0754 77.1055 59.1934 76.8202 59.2623C76.5399 59.3361 76.2301 59.341 76.0038 59.341C75.512 59.3459 75.0301 59.3164 74.5678 59.2082C74.3711 59.1639 73.835 59.1885 73.6481 59.2524C72.9251 59.4984 72.0842 59.4984 71.2333 59.5131C68.9514 59.5623 66.6645 59.5869 64.3825 59.6557C62.6956 59.7049 60.9989 59.7885 59.3169 59.8918C56.6906 59.9459 54.0841 59.9951 51.4676 60C49.2791 60 47.0807 59.941 44.8873 59.9115C44.3807 59.9016 43.8791 59.9361 43.3725 59.9213C42.443 59.9016 41.4643 59.9213 40.5938 59.8131C39.625 59.6951 38.8725 59.6508 37.9676 59.818C37.461 59.9115 36.6643 59.877 36.0151 59.8328C35.179 59.7787 34.3528 59.6803 33.5413 59.577C32.5626 59.459 31.6528 59.341 30.5905 59.4639C30.0249 59.5328 29.2429 59.4688 28.6036 59.4049L27.4774 59.3065L27.1282 57.8115C27.4134 57.6983 27.7823 57.4475 27.856 57.3393C28.9675 55.6672 29.9167 53.8426 30.7675 51.9934C32.3807 48.4819 33.7331 44.8523 35.0905 41.208C35.6217 39.7818 36.1823 38.3556 36.743 36.9244C38.4889 32.508 40.225 28.1063 41.8528 23.6554L42.1037 22.9767L42.1676 22.8046C42.1873 22.7505 42.2365 22.6472 42.2709 22.5735C42.3496 22.4112 42.4233 22.2833 42.5168 22.1505C42.866 21.6144 43.3529 21.1767 43.8988 20.8669C44.2184 20.6849 44.5627 20.5521 44.9217 20.4734C45.2709 20.3898 45.6939 20.3849 45.9152 20.38C46.4463 20.3702 46.9775 20.3652 47.5037 20.3652C48.5611 20.3652 49.6234 20.3898 50.6808 20.4243C51.9595 20.4685 53.2332 20.4685 54.507 20.4439L55.4611 20.4243L55.9382 20.4095L56.1742 20.4046L56.4988 20.4144C57.3742 20.4538 58.2497 20.8423 58.8939 21.457C59.2038 21.7374 59.4497 22.0816 59.6611 22.4456C59.848 22.8194 60.0054 23.2226 60.0447 23.6407C60.1185 24.221 60.0546 24.8161 59.8775 25.362C59.8333 25.4899 59.7792 25.6472 59.7349 25.7505L59.6218 26.0161C59.5972 26.0702 59.5874 26.1243 59.5874 26.1784C59.5825 26.2768 59.6415 26.4046 59.7103 26.4686C59.7448 26.4981 59.789 26.5276 59.848 26.5522C59.8775 26.562 59.9169 26.5718 59.9513 26.5817L60.0054 26.5915H60.0251C60.0349 26.621 60.0202 26.4194 60.0152 27.3538L60.1136 26.5964C62.5382 26.7784 64.9677 26.8669 67.3923 26.9899C70.6579 27.1522 73.9235 27.2948 77.194 27.3145C79.717 27.3292 82.24 27.3096 84.7678 27.2161C84.9351 27.2112 85.1072 27.1768 85.2695 27.1719C86.7056 27.1227 87.1875 27.3686 86.5482 27.8702C85.9777 28.3128 85.0383 28.6178 83.7301 28.6965C82.2842 28.785 80.8383 28.8243 79.3924 28.8588L79.3727 28.9178Z" fill="black"/>
</svg>
