<svg width="241" height="257" viewBox="0 0 241 257" fill="none" xmlns="http://www.w3.org/2000/svg">
<path d="M109.82 208.575C107.577 213.499 95.0197 214.761 89.2183 208.707C86.6663 206.042 84.5636 201.073 86.6115 197.422C89.0348 193.092 95.9429 193.024 100.166 194.484C106.77 196.757 111.703 204.445 109.82 208.575Z" fill="#CAEAE3"/>
<path d="M108.555 211.823C107.653 212.213 106.76 212.496 105.848 212.552C105.041 212.61 104.278 212.57 103.571 212.96C103.387 213.067 103.159 213.046 102.954 213.082L101.827 213.244C101.662 213.278 101.484 213.432 101.319 213.395C100.512 213.206 99.7516 213.134 98.9461 213.355C98.3502 212.983 97.7371 213.164 97.1052 213.171C96.4656 213.183 95.8642 212.978 95.1943 213.079C95.0173 213.11 94.82 213.071 94.6752 212.98C93.7731 212.416 92.8057 212.146 91.8451 211.729C90.827 211.283 89.9139 210.54 89.3283 209.566C89.0254 209.044 88.5976 208.626 88.239 208.167C87.7962 207.633 87.3412 207.097 86.9542 206.501C86.4112 205.635 85.9111 204.756 85.3874 203.818C84.6735 202.57 84.2188 201.079 84.2488 199.45C84.2929 198.624 84.6111 197.793 85.0511 197.066C85.8934 195.582 87.2568 194.483 88.6518 193.827C89.7053 193.308 90.7764 192.943 91.8613 192.673C92.8713 192.415 93.896 192.2 94.9306 192.144C96.4648 192.065 97.9992 192.18 99.5294 192.482C101.075 192.776 102.593 193.394 103.987 194.134C104.665 194.49 105.325 194.866 105.96 195.288C106.28 195.503 106.554 195.764 106.837 196.021C107.856 197 108.758 198.077 109.554 199.237C110.684 200.901 111.703 202.71 112.08 204.934C112.301 206.181 112.278 207.539 111.971 209.061C111.887 209.5 111.658 209.53 111.325 209.221C110.731 208.693 110.071 208.245 109.783 207.714C109.521 207.332 109.362 207.076 109.475 206.723C109.538 206.46 109.513 206.187 109.461 205.92C109.404 205.645 109.391 205.376 109.559 205.063C109.601 204.977 109.546 204.865 109.49 204.785C108.581 203.342 108.028 201.806 107.045 200.395C106.723 199.946 106.302 199.574 105.904 199.189C105.638 198.943 105.396 198.684 105.145 198.429C104.754 198.092 104.441 197.658 103.987 197.388C103.652 197.182 103.29 197.053 103.228 196.504C103.213 196.39 103.024 196.294 102.907 196.341C102.451 196.545 102.221 196.308 101.934 196.167C101.194 195.724 100.426 195.318 99.5981 195.059C98.9891 194.859 98.3401 194.784 97.6948 194.768C96.6873 194.747 95.7017 194.888 94.7526 195.039C93.9619 195.179 93.1708 195.248 92.4413 195.477C92.2731 195.523 92.1131 195.636 91.9539 195.698C91.654 195.8 91.3578 195.962 91.0582 195.94C90.7056 195.899 90.4396 195.971 90.3523 196.422C90.3 196.668 90.0705 196.75 89.9048 196.835C89.672 196.929 89.3902 196.939 89.1243 197.011C88.7811 197.056 88.4658 197.168 88.4597 197.582C88.4446 197.785 88.287 197.938 88.0862 198.034C87.2538 198.528 86.971 199.543 87.0697 200.492C87.183 201.801 87.7308 203.064 88.4188 204.214C88.697 204.658 88.9444 205.12 89.238 205.555C90.1695 206.913 91.1207 208.075 92.4603 209.022C92.7224 209.208 92.9891 209.402 93.3077 209.474C94.0421 209.643 94.6924 209.933 95.374 210.276C96.1947 210.683 97.1396 210.719 98.0553 210.67C98.2732 210.657 98.4842 210.596 98.686 210.643C100.122 210.959 101.579 210.535 102.959 210.35C104.083 210.2 105.216 210.066 106.252 209.711C107.027 209.436 107.809 209.105 108.362 208.59C108.396 208.56 108.4 208.496 108.442 208.461C108.727 208.193 109.305 208.217 109.903 208.804C110.432 209.328 110.535 210.018 110.088 210.503C109.612 211.045 109.04 211.439 108.472 211.769L108.555 211.823Z" fill="#82C8B9"/>
<path d="M130.488 221.694C127.706 224.93 120.543 222.949 116.453 219.986C113.355 217.74 109.408 213.042 110.762 209.752C112.379 205.818 121.36 204.352 126.705 208.383C131.023 211.634 133.139 218.606 130.488 221.694Z" fill="#CAEAE3"/>
<path d="M128.639 224.274C128.188 224.31 127.752 224.337 127.328 224.296C126.902 224.286 126.498 224.192 126.113 224.077C125.411 223.858 124.805 223.574 124.094 223.709C123.906 223.757 123.724 223.657 123.551 223.624L122.565 223.427C122.416 223.4 122.219 223.504 122.094 223.412C121.487 222.984 120.885 222.708 120.137 222.691C119.763 222.189 119.194 222.181 118.653 222.043C118.118 221.882 117.661 221.572 117.064 221.498C116.899 221.48 116.74 221.418 116.642 221.301C116.043 220.571 115.28 220.121 114.554 219.578C113.778 219.001 113.162 218.24 112.791 217.317C112.589 216.828 112.274 216.426 111.969 216.008C111.62 215.512 111.206 215.045 110.901 214.503C110.455 213.716 110.016 212.924 109.646 211.968C109.515 211.654 109.441 211.297 109.367 210.94C109.348 210.571 109.281 210.189 109.355 209.787C109.383 209.586 109.41 209.386 109.449 209.188L109.653 208.619C109.783 208.225 109.989 207.89 110.212 207.566C110.428 207.215 110.727 206.969 111.027 206.744C111.326 206.499 111.659 206.347 111.983 206.179C113.266 205.527 114.59 205.261 115.866 205.055C116.829 204.927 117.782 204.785 118.753 204.724C119.652 204.664 120.57 204.583 121.486 204.678C122.849 204.78 124.208 205.141 125.524 205.659C126.845 206.166 128.101 206.987 129.194 207.933C129.723 208.385 130.233 208.859 130.695 209.371C130.918 209.631 131.122 209.913 131.311 210.203C131.976 211.296 132.47 212.466 132.887 213.661C133.447 215.388 133.868 217.227 133.576 219.254C133.429 220.396 132.996 221.561 132.375 222.773C132.198 223.122 131.981 223.084 131.739 222.701C131.301 222.052 130.786 221.448 130.632 220.9C130.492 220.5 130.388 220.232 130.591 219.98C130.722 219.781 130.771 219.548 130.8 219.315C130.825 219.075 130.895 218.86 131.136 218.638C131.204 218.578 131.186 218.476 131.156 218.39C130.718 216.962 130.689 215.552 130.188 214.139C130.029 213.688 129.761 213.279 129.505 212.873C129.364 212.595 129.178 212.345 129.029 212.071C128.818 211.671 128.59 211.279 128.306 210.931C128.06 210.684 127.756 210.532 127.871 210.004C127.892 209.899 127.741 209.781 127.624 209.808C127.158 209.925 127.012 209.691 126.809 209.501C126.276 208.989 125.697 208.504 125.039 208.147C124.793 208.024 124.535 207.916 124.278 207.809C124.014 207.726 123.737 207.672 123.466 207.613C122.613 207.451 121.745 207.493 120.906 207.498C120.207 207.513 119.513 207.485 118.834 207.571C118.68 207.588 118.522 207.67 118.373 207.695C118.089 207.737 117.798 207.854 117.512 207.733C117.203 207.625 116.949 207.628 116.747 208.023C116.632 208.233 116.4 208.275 116.21 208.283C115.965 208.302 115.684 208.208 115.415 208.169C115.098 208.117 114.751 208.032 114.571 208.413C114.485 208.617 114.247 208.632 114.036 208.621C113.128 208.614 112.41 209.215 112.151 209.848C111.971 210.281 111.973 210.69 112.043 211.111C112.141 211.547 112.34 211.996 112.576 212.454C112.683 212.638 112.785 212.815 112.877 213.008L113.206 213.576C113.963 214.738 114.838 215.965 115.843 217.095C116.044 217.317 116.241 217.552 116.512 217.682C117.139 217.985 117.622 218.393 118.096 218.856C118.688 219.416 119.48 219.685 120.271 219.862C120.461 219.906 120.655 219.906 120.817 220.007C121.926 220.698 123.268 220.73 124.438 220.995C125.391 221.222 126.32 221.463 127.217 221.487C127.897 221.492 128.551 221.452 129.147 221.188C129.185 221.165 129.186 221.114 129.224 221.091C129.534 220.953 130.08 221.169 130.509 221.855C130.691 222.17 130.778 222.478 130.748 222.763C130.737 222.902 130.694 223.04 130.634 223.167C130.561 223.271 130.456 223.373 130.333 223.445C130.054 223.617 129.77 223.782 129.473 223.872C129.181 223.97 128.882 224.092 128.586 224.13L128.639 224.274Z" fill="#82C8B9"/>
<path d="M134.533 183.209C134.533 183.209 129.748 171.567 124.959 168.301C121.309 165.812 114.795 164.029 110.48 167.682C107.461 170.244 105.718 175.145 107.538 178.317C114.863 191.03 134.533 183.209 134.533 183.209Z" fill="#CAEAE3"/>
<path d="M132.036 180.781C131.81 179.897 131.518 179.04 131.33 178.133C131.168 177.323 130.984 176.528 130.366 175.942C130.206 175.788 130.14 175.57 130.021 175.382C129.813 175.041 129.621 174.691 129.386 174.376C129.282 174.231 129.05 174.15 129.004 173.982C128.769 173.153 128.358 172.427 127.644 171.939C127.539 171.21 126.93 170.885 126.44 170.482C126.204 170.27 125.957 170.075 125.718 169.875C125.596 169.771 125.471 169.68 125.343 169.6C125.199 169.529 125.057 169.479 124.899 169.437C124.734 169.399 124.581 169.313 124.489 169.172C123.85 168.372 122.871 167.976 121.925 167.653C120.893 167.308 119.917 166.899 118.903 166.389C118.357 166.121 117.74 166.048 117.142 166.025C116.786 165.996 116.428 166.05 116.071 166.072L115.02 166.241C114.017 166.423 113.073 166.847 112.346 167.505C111.388 168.4 110.671 169.411 110.12 170.531C109.824 171.082 109.438 171.583 109.122 172.136C108.511 173.24 108.047 174.474 108.039 175.699C108.056 176.152 108.104 176.606 108.276 177.009C108.413 177.422 108.636 177.754 108.954 178.196C109.477 178.99 110.203 179.606 110.878 180.22C112.926 182.017 115.529 183.001 118.272 183.308C118.929 183.378 119.605 183.376 120.277 183.366C120.611 183.377 120.949 183.376 121.281 183.399C122.527 183.477 123.804 183.485 125.077 183.362C126.908 183.192 128.73 182.812 130.536 182.37C131.55 182.12 132.6 181.86 133.467 181.285C133.711 181.123 133.821 181.295 133.903 181.719C134.01 182.468 134.126 183.252 133.761 183.844C133.512 184.245 133.257 184.567 132.79 184.592C132.116 184.634 131.532 185.148 130.799 184.875C130.697 184.842 130.569 184.886 130.477 184.939C128.722 185.895 126.715 185.972 124.773 186.093C124.139 186.132 123.503 186.256 122.861 186.299C122.445 186.325 122.024 186.324 121.61 186.318C121.003 186.28 120.401 186.198 119.791 186.172C119.337 186.169 118.869 186.245 118.524 185.758C118.454 185.655 118.215 185.65 118.114 185.74C117.733 186.074 117.36 185.961 116.985 185.881C115.99 185.617 115.002 185.277 114.051 184.875C113.692 184.734 113.338 184.601 112.978 184.44C112.619 184.3 112.256 184.151 111.903 183.986C110.788 183.515 109.677 182.908 108.697 182.121C108.302 181.776 107.894 181.427 107.563 181.015C107.212 180.623 106.872 180.214 106.567 179.776C106.423 179.582 106.219 179.424 106.079 179.218C105.813 178.777 105.471 178.277 105.467 177.756C105.455 177.188 105.408 176.806 105.002 176.354C104.771 176.097 104.75 175.637 104.8 175.28C104.826 174.813 105.031 174.387 105.204 173.978C105.449 173.498 105.698 173.097 105.579 172.519C105.503 172.194 105.736 171.853 105.926 171.579C106.82 170.414 107.464 169.26 108.262 168.089C109.323 166.54 110.89 165.066 112.807 164.302C113.547 163.986 114.34 163.813 115.116 163.701C116.334 163.518 117.551 163.582 118.705 163.785C119.867 163.983 120.982 164.331 122.037 164.786C122.46 164.951 122.856 165.173 123.296 165.277C124.306 165.532 125.207 166.077 126.005 166.763C127.013 167.687 127.999 168.449 128.89 169.276C129.113 169.465 129.354 169.633 129.492 169.871C130.505 171.51 131.806 172.869 132.663 174.506C133.35 175.832 133.847 177.236 134.331 178.618C134.7 179.697 135.007 180.791 135.309 181.878C135.33 181.949 135.393 182.004 135.405 182.079C135.56 182.718 135.151 183.109 134.294 183.135C133.537 183.174 133.002 182.96 132.788 182.449C132.549 181.879 132.346 181.299 132.123 180.72L132.036 180.781Z" fill="#82C8B9"/>
<path d="M136.151 183.211C135.441 178.697 143.609 172.788 151.218 172.283C151.919 172.236 160.19 171.777 162.158 176.229C163.929 180.219 159.715 186.132 155.044 188.463C147.664 192.14 136.901 187.969 136.151 183.211Z" fill="#CAEAE3"/>
<path d="M135.644 179.717C135.961 179.327 136.264 178.946 136.619 178.638C136.955 178.299 137.32 178.026 137.715 177.786C138.059 177.566 138.406 177.385 138.73 177.166C139.047 176.952 139.325 176.688 139.555 176.359C139.672 176.189 139.885 176.096 140.044 175.963C140.343 175.718 140.673 175.526 140.968 175.293C141.101 175.185 141.174 174.958 141.343 174.912C142.166 174.722 142.853 174.384 143.453 173.81C144.151 173.827 144.609 173.396 145.148 173.053C145.693 172.736 146.321 172.598 146.839 172.164C146.979 172.052 147.162 171.977 147.329 171.982C147.862 171.981 148.358 171.898 148.866 171.819C149.368 171.712 149.862 171.59 150.378 171.506C151.473 171.271 152.598 171.388 153.646 171.745C154.203 171.945 154.795 171.991 155.375 172.055C156.057 172.151 156.771 172.179 157.465 172.33C158.472 172.546 159.464 172.823 160.521 173.194L161.059 173.396L161.573 173.682C161.935 173.862 162.246 174.133 162.566 174.419C163.194 174.989 163.676 175.766 164.006 176.601C164.278 177.459 164.237 178.396 164.061 179.206C163.738 180.861 162.963 182.214 162.141 183.45C161.507 184.373 160.878 185.271 160.155 186.111C159.483 186.881 158.822 187.705 158.004 188.365C156.813 189.354 155.424 190.231 153.916 190.798C152.417 191.381 150.843 191.709 149.26 191.848C148.504 191.907 147.742 191.99 146.981 191.969C146.599 191.965 146.222 191.917 145.841 191.861C144.446 191.634 143.096 191.217 141.777 190.73C139.899 190.004 138.029 189.098 136.424 187.535C135.529 186.628 134.718 185.549 134.079 184.042C133.909 183.607 134.085 183.433 134.536 183.52C135.32 183.65 136.096 183.662 136.664 183.917C137.065 184.095 137.378 184.191 137.483 184.55C137.664 185.092 138.3 185.267 138.402 185.956C138.42 186.059 138.523 186.112 138.609 186.154C140.201 186.811 141.561 187.757 143.188 188.351C143.709 188.542 144.275 188.614 144.821 188.707L145.887 188.899C146.406 188.998 146.924 189.129 147.449 189.132C147.846 189.128 148.221 189.013 148.582 189.44C148.655 189.531 148.868 189.51 148.941 189.406C149.218 188.999 149.53 189.023 149.856 189.019C150.729 188.984 151.607 188.906 152.448 188.674C153.07 188.508 153.657 188.229 154.196 187.886C155.026 187.353 155.726 186.649 156.399 185.951C156.972 185.382 157.533 184.811 158.035 184.191C158.145 184.045 158.197 183.851 158.312 183.712C158.534 183.46 158.648 183.107 158.961 182.956C159.3 182.78 159.464 182.551 159.349 182.105C159.286 181.854 159.423 181.631 159.567 181.455C159.756 181.232 159.987 181.047 160.234 180.852C160.541 180.622 160.784 180.369 160.655 179.951C160.577 179.729 160.704 179.523 160.859 179.33C161.481 178.528 161.42 177.485 160.983 176.785C160.374 175.824 159.304 175.306 158.056 174.994C157.567 174.877 157.065 174.738 156.546 174.639C154.926 174.358 153.13 174.127 151.413 174.087C151.087 174.091 150.734 174.101 150.419 174.212C150.052 174.323 149.686 174.453 149.304 174.52C148.926 174.576 148.548 174.631 148.153 174.675C147.682 174.713 147.229 174.852 146.8 175.05C146.369 175.228 145.959 175.476 145.566 175.735C145.378 175.854 145.213 176.012 145.014 176.076C143.566 176.516 142.469 177.614 141.311 178.43C140.378 179.104 139.379 179.735 138.649 180.528C138.098 181.135 137.593 181.767 137.369 182.461C137.364 182.505 137.403 182.554 137.386 182.595C137.28 182.944 136.763 183.255 135.961 183.094C135.606 183.012 135.313 182.844 135.119 182.597C134.9 182.344 134.845 182.037 134.92 181.707L135.045 181.162C135.098 180.988 135.184 180.835 135.254 180.672C135.397 180.353 135.536 180.026 135.73 179.759L135.644 179.717Z" fill="#82C8B9"/>
<path d="M141.06 149.79C141.06 149.79 133.532 141.432 127.486 139.697C121.874 138.089 113.226 137.35 110.925 141.927C108.742 146.283 113.168 153.628 119.01 156.18C130.036 160.999 141.06 149.79 141.06 149.79Z" fill="#CAEAE3"/>
<path d="M137.822 148.313C137.285 147.547 136.688 146.837 136.173 146.038C135.704 145.335 135.234 144.632 134.423 144.313C134.219 144.226 134.068 144.037 133.888 143.905C133.556 143.667 133.241 143.408 132.902 143.195C132.745 143.101 132.495 143.112 132.383 142.972C131.839 142.282 131.151 141.768 130.281 141.596C129.876 140.969 129.172 140.905 128.546 140.745C127.905 140.614 127.346 140.322 126.632 140.419C126.451 140.442 126.25 140.415 126.098 140.329C125.138 139.808 124.065 139.691 123.002 139.61C121.86 139.534 120.753 139.325 119.627 138.993C119.023 138.8 118.381 138.844 117.762 138.874C117.026 138.932 116.299 139.128 115.606 139.314C114.584 139.569 113.642 140.085 113.024 140.823C112.211 141.828 111.938 142.879 112.035 143.983C112.089 144.536 111.991 145.127 112.082 145.762C112.223 147.014 112.633 148.357 113.325 149.566C113.827 150.486 114.534 151.297 115.298 152.013C116.005 152.701 116.863 153.188 117.67 153.695C117.979 153.875 118.291 154.022 118.596 154.194C118.912 154.35 119.237 154.468 119.544 154.608C120.206 154.83 120.889 154.998 121.538 155.196C122.229 155.257 122.903 155.41 123.588 155.423L124.617 155.411C124.788 155.404 124.955 155.409 125.126 155.403L125.646 155.327L126.626 155.158C126.953 155.102 127.274 154.967 127.588 154.888C127.912 154.792 128.235 154.748 128.56 154.672C129.166 154.495 129.775 154.378 130.378 154.161C130.972 153.93 131.594 153.764 132.168 153.462C133.855 152.708 135.45 151.69 136.977 150.589C137.833 149.959 138.719 149.312 139.289 148.437C139.445 148.193 139.615 148.309 139.86 148.66C140.269 149.295 140.673 149.974 140.561 150.665C140.487 151.139 140.365 151.548 139.933 151.758C139.312 152.067 138.959 152.785 138.145 152.815C138.034 152.818 137.937 152.916 137.863 153C136.529 154.574 134.611 155.39 132.769 156.16C132.151 156.386 131.575 156.72 130.95 156.97C130.542 157.114 130.132 157.239 129.718 157.356C129.121 157.549 128.469 157.557 127.872 157.73C127.641 157.792 127.423 157.877 127.19 157.899C126.956 157.902 126.73 157.848 126.49 157.649C126.39 157.563 126.15 157.61 126.069 157.719C125.769 158.139 125.361 158.16 124.966 158.133L123.363 158.006C122.832 157.976 122.312 157.805 121.782 157.723C121.403 157.635 120.989 157.629 120.611 157.509C120.231 157.402 119.844 157.318 119.453 157.227C118.222 157.017 117.001 156.556 115.866 155.963C115.404 155.697 114.941 155.412 114.522 155.08C114.093 154.764 113.686 154.416 113.282 154.055C113.092 153.888 112.847 153.784 112.688 153.599C112.381 153.264 111.965 152.972 111.827 152.539C111.67 152.056 111.469 151.762 110.925 151.585C110.62 151.485 110.423 151.127 110.273 150.834C110.09 150.448 110.034 149.998 109.957 149.581C109.885 149.068 109.883 148.587 109.425 148.186C109.2 147.958 109.154 147.543 109.153 147.205C109.19 145.695 108.998 144.267 109.242 142.689C109.517 140.528 111.258 138.471 113.168 137.589C113.92 137.204 114.694 136.981 115.465 136.79C117.862 136.251 120.187 136.421 122.398 136.8C122.84 136.872 123.276 136.968 123.713 136.961C124.736 136.921 125.707 137.179 126.652 137.534C126.936 137.636 127.221 137.737 127.509 137.827C127.788 137.901 128.091 137.981 128.416 138.08L129.374 138.335L130.291 138.624C130.587 138.709 130.889 138.77 131.118 138.935C132.786 140.06 134.559 140.868 136.02 142.114C137.196 143.114 138.196 144.289 139.175 145.445C139.93 146.341 140.621 147.284 141.309 148.24C141.357 148.304 141.434 148.331 141.474 148.401C141.851 148.962 141.597 149.479 140.801 149.787C140.095 150.073 139.516 150.05 139.133 149.636L137.879 148.218L137.822 148.313Z" fill="#82C8B9"/>
<path d="M143.316 156.75C143.316 156.75 138.555 139.861 148.034 133.047C152.241 130.021 159.269 129.648 161.394 132.674C163.974 136.359 159.942 143.789 158.666 145.463C155.419 149.717 143.316 156.75 143.316 156.75Z" fill="#CAEAE3"/>
<path d="M141.401 153.86C141.427 152.931 141.425 152.009 141.588 151.104C141.74 150.287 141.907 149.513 141.631 148.719C141.554 148.517 141.603 148.283 141.602 148.068L141.58 146.88C141.576 146.698 141.421 146.501 141.483 146.342C141.766 145.521 141.879 144.726 141.718 143.865C142.131 143.267 141.987 142.611 142.021 141.945C142.043 141.276 142.286 140.652 142.234 139.943C142.219 139.757 142.254 139.552 142.359 139.399C142.99 138.469 143.321 137.466 143.812 136.473C144.344 135.425 145.173 134.503 146.211 133.921C146.496 133.776 146.743 133.582 146.993 133.395C147.249 133.216 147.495 133.022 147.742 132.828L148.639 132.163C148.952 131.961 149.262 131.751 149.588 131.571C150.547 131.066 151.519 130.636 152.522 130.136C153.87 129.488 155.371 129.068 156.973 129C157.793 128.945 158.626 129.232 159.436 129.531C160.246 129.883 161.059 130.293 161.732 131.011C162.411 131.705 162.899 132.581 163.12 133.438C163.49 134.732 163.509 135.984 163.42 137.174C163.313 138.283 163.174 139.369 162.889 140.417C162.448 141.956 161.871 143.419 161.165 144.855C160.972 145.213 160.8 145.57 160.58 145.934C160.372 146.3 160.095 146.707 159.828 147.026C159.56 147.377 159.294 147.716 159.01 148.004C158.735 148.307 158.456 148.623 158.17 148.891C157.628 149.442 157.118 149.995 156.56 150.503C156.29 150.762 155.99 150.988 155.693 151.201C154.579 152.022 153.434 152.737 152.316 153.499C150.705 154.578 149.105 155.64 147.456 156.637C146.521 157.2 145.566 157.713 144.747 158.476C144.514 158.693 144.319 158.57 144.205 158.144C144.012 157.404 143.747 156.665 143.962 156.027C144.11 155.592 144.266 155.225 144.688 155.103C145.305 154.909 145.687 154.277 146.441 154.322C146.549 154.331 146.643 154.246 146.718 154.161C148.002 152.749 149.691 151.964 151.247 150.949C151.756 150.623 152.199 150.201 152.668 149.826L153.603 149.12C154.055 148.785 154.559 148.503 154.968 148.112C155.28 147.818 155.512 147.458 156.077 147.53C156.197 147.542 156.351 147.382 156.334 147.248C156.291 146.749 156.582 146.56 156.821 146.318C157.164 146.007 157.511 145.703 157.808 145.366C158.134 145.044 158.387 144.702 158.629 144.305C158.979 143.722 159.265 143.084 159.474 142.419C159.812 141.392 160.001 140.338 160.2 139.319C160.354 138.471 160.541 137.644 160.571 136.846C160.588 136.662 160.501 136.477 160.509 136.297C160.533 135.966 160.406 135.659 160.543 135.365C160.686 135.045 160.646 134.781 160.269 134.61C160.022 134.538 159.987 134.353 159.972 134.187C159.896 134.037 159.981 133.741 159.936 133.541C159.943 133.27 159.82 132.952 159.442 133.007C159.214 133.057 159.098 132.857 158.941 132.692C158.285 131.933 157.109 131.764 156.051 131.885C154.581 132.04 153.14 132.528 151.856 133.18C151.35 133.423 150.844 133.665 150.376 133.937C148.94 134.77 147.623 135.842 146.549 137.193C146.352 137.472 146.109 137.726 146.031 138.069C145.792 138.823 145.477 139.519 145.076 140.224C144.624 141.091 144.527 142.092 144.513 143.075C144.516 143.309 144.562 143.549 144.5 143.76C144.079 145.297 144.379 146.929 144.351 148.526C144.336 149.827 144.244 151.153 144.256 152.501C144.268 153.53 144.266 154.588 144.343 155.622C144.351 155.689 144.399 155.753 144.395 155.817C144.415 156.401 143.961 156.715 143.119 156.66C142.371 156.591 141.865 156.269 141.755 155.707C141.633 155.09 141.578 154.465 141.523 153.84L141.401 153.86Z" fill="#82C8B9"/>
<path d="M124.685 120.278C121.423 117.573 122.942 108.625 128.16 104.141C132.811 100.149 140.879 99.2853 143.315 102.634C145.714 105.921 142.135 112.503 138.498 115.998C134.644 119.702 127.717 122.798 124.685 120.278Z" fill="#CAEAE3"/>
<path d="M122.038 118.209L121.991 117.508C121.992 117.281 122.014 117.053 122.02 116.834C122.036 116.384 122.125 115.953 122.242 115.536C122.334 115.164 122.487 114.809 122.568 114.453C122.637 114.095 122.691 113.746 122.624 113.364C122.592 113.167 122.683 112.971 122.71 112.77C122.791 112.415 122.877 112.068 122.939 111.714C122.956 111.55 122.876 111.34 122.967 111.215C123.416 110.555 123.746 109.922 123.787 109.108C124.368 108.73 124.36 108.098 124.58 107.539C124.686 107.262 124.833 107.003 124.967 106.72C125.109 106.452 125.252 106.185 125.316 105.871C125.353 105.705 125.438 105.533 125.575 105.433C126.002 105.144 126.351 104.808 126.675 104.446C127.036 104.113 127.346 103.728 127.698 103.38C128.469 102.656 129.413 102.108 130.468 101.927C131.013 101.806 131.537 101.594 132.032 101.369C132.646 101.136 133.23 100.817 133.866 100.622C134.783 100.327 135.697 100.063 136.655 99.7329C137.928 99.2918 139.342 99.0766 140.842 99.2737C141.227 99.3174 141.606 99.4767 141.97 99.6252C142.335 99.8132 142.691 100.038 143.036 100.279C143.701 100.806 144.339 101.462 144.7 102.279C145.107 103.069 145.215 103.91 145.275 104.685C145.308 105.857 145.145 106.937 144.915 107.973C144.701 108.949 144.437 109.892 144.08 110.797C142.936 113.441 141.363 115.842 139.263 117.953C138.761 118.45 138.273 118.969 137.732 119.417C137.463 119.644 137.174 119.853 136.879 120.034C135.773 120.728 134.607 121.301 133.394 121.81C131.674 122.542 129.819 123.166 127.662 123.197C126.427 123.174 125.075 122.912 123.66 122.225C123.258 122.027 123.275 121.791 123.67 121.552C124.339 121.113 124.928 120.607 125.492 120.412C125.907 120.243 126.152 120.153 126.456 120.305C126.667 120.439 126.926 120.443 127.188 120.434C127.443 120.45 127.688 120.483 127.967 120.68C128.042 120.739 128.152 120.716 128.233 120.679C129.713 120.047 131.247 119.772 132.747 119.138C133.226 118.921 133.665 118.616 134.104 118.33L134.974 117.794C135.399 117.537 135.855 117.314 136.233 116.992C136.528 116.759 136.705 116.41 137.25 116.535C137.367 116.56 137.509 116.416 137.49 116.294C137.424 115.809 137.676 115.642 137.91 115.444C138.512 114.89 139.141 114.33 139.649 113.666C140.037 113.184 140.349 112.644 140.608 112.083C141.028 111.214 141.276 110.279 141.56 109.407C141.768 108.67 142.054 107.96 142.165 107.249C142.203 107.084 142.164 106.911 142.182 106.747C142.219 106.458 142.2 106.141 142.352 105.909C142.447 105.772 142.507 105.645 142.507 105.522C142.488 105.4 142.401 105.286 142.219 105.166C142.119 105.1 142.075 105.024 142.053 104.933C142.021 104.86 142.023 104.776 142.023 104.705C142.058 104.5 142.122 104.309 142.192 104.094C142.243 103.951 142.263 103.827 142.225 103.726C142.186 103.625 142.139 103.508 141.941 103.521C141.731 103.53 141.723 103.339 141.665 103.168C141.421 102.376 140.455 102.002 139.536 101.992C138.267 101.928 136.95 102.24 135.714 102.639C135.232 102.816 134.737 102.919 134.259 103.103C132.773 103.637 131.285 104.203 129.973 105.036C129.725 105.211 129.44 105.356 129.273 105.617C129.086 105.931 128.866 106.171 128.614 106.41C128.384 106.666 128.128 106.897 127.855 107.117C127.543 107.411 127.29 107.753 127.087 108.127C126.912 108.516 126.737 108.905 126.62 109.322C126.568 109.516 126.558 109.727 126.444 109.885C125.672 111.031 125.594 112.452 125.31 113.714C125.076 114.743 124.811 115.79 124.798 116.793C124.797 117.552 124.844 118.305 125.118 118.936C125.14 118.975 125.196 118.983 125.214 119.014C125.353 119.323 125.162 119.896 124.468 120.309C123.858 120.673 123.114 120.612 122.812 120.038L122.557 119.581C122.488 119.426 122.438 119.27 122.384 119.106C122.281 118.787 122.17 118.471 122.135 118.163L122.038 118.209Z" fill="#82C8B9"/>
<path d="M116.81 114.88C116.81 114.88 90.3645 99.828 86.1639 112.928C84.7184 117.44 89.4147 123.376 94.576 125.533C100.485 128.005 108.334 126.129 111.388 121.063C111.734 120.493 116.81 114.88 116.81 114.88Z" fill="#CAEAE3"/>
<path d="M113.253 114.459C112.502 113.889 111.71 113.374 110.969 112.768C110.314 112.224 109.652 111.684 108.78 111.595C108.552 111.573 108.356 111.431 108.144 111.348C107.761 111.201 107.373 111.046 106.98 110.916C106.801 110.855 106.567 110.929 106.421 110.819C105.704 110.291 104.914 109.938 104.015 109.927C103.485 109.403 102.775 109.435 102.099 109.366C101.429 109.272 100.783 109.062 100.089 109.157C99.9044 109.192 99.7083 109.172 99.5404 109.095C98.5583 108.588 97.4659 108.544 96.4098 108.51C95.2725 108.514 94.1707 108.383 93.0191 108.22C92.4097 108.143 91.7674 108.238 91.1919 108.449C91.0205 108.508 90.8447 108.558 90.6701 108.629L90.1929 108.885C89.8648 109.045 89.5799 109.261 89.2906 109.47C88.4733 110.078 87.8006 110.899 87.5804 111.899C87.4679 112.201 87.446 112.552 87.3864 112.874C87.3644 113.03 87.3192 113.2 87.3125 113.348L87.3121 113.789C87.2821 114.073 87.3842 114.373 87.3894 114.647C87.4628 114.933 87.512 115.212 87.6129 115.493C87.8148 116.053 87.8619 116.682 88.095 117.296C88.5138 118.531 89.1804 119.786 90.0871 120.871C90.7816 121.679 91.6119 122.367 92.491 122.945C93.3312 123.473 94.2517 123.822 95.1391 124.148C97.7897 125.073 100.775 125.054 103.409 124.234C104.041 124.032 104.636 123.749 105.209 123.446C105.504 123.317 105.776 123.149 106.07 123.019C107.128 122.508 108.105 121.858 108.853 121.024C109.142 120.744 109.343 120.401 109.578 120.081C109.575 120.093 109.85 119.666 109.929 119.589L110.207 119.254L110.718 118.649C111.401 117.863 112.07 117.106 112.763 116.355C113.541 115.503 114.349 114.685 114.942 113.674C115.108 113.393 115.322 113.443 115.56 113.818C115.966 114.465 116.432 115.108 116.388 115.811C116.358 116.29 116.296 116.696 115.911 116.97C115.347 117.359 115.131 118.12 114.36 118.312C114.254 118.342 114.178 118.458 114.12 118.553C113.659 119.457 113.044 120.235 112.406 120.975L111.998 121.457L111.517 122.096C111.206 122.533 110.802 122.88 110.457 123.275C110.196 123.498 109.961 123.748 109.714 123.994C109.467 124.24 109.197 124.447 108.937 124.67C108.593 124.962 108.196 125.162 107.816 125.392C107.233 125.679 106.636 125.923 106.051 126.17C105.619 126.38 105.211 126.668 104.663 126.36C104.556 126.299 104.323 126.393 104.263 126.52C104.038 126.999 103.627 127.033 103.238 127.105C102.174 127.27 101.091 127.314 100.024 127.297C99.2291 127.306 98.433 127.296 97.6281 127.271C96.3739 127.249 95.0913 127.09 93.8348 126.711C92.7846 126.387 91.8364 125.849 90.9036 125.302C90.6847 125.173 90.4408 125.089 90.2373 124.95C89.8514 124.692 89.4226 124.448 89.191 124.049C88.9262 123.628 88.7128 123.331 88.1322 123.267C87.8039 123.232 87.5529 122.906 87.3573 122.64C87.1096 122.301 86.956 121.877 86.8189 121.464C86.6418 120.982 86.5483 120.502 86.0289 120.209C85.7405 120.048 85.6431 119.632 85.5672 119.307C85.2965 117.832 84.8 116.499 84.6125 114.955C84.5646 114.696 84.5716 114.425 84.5709 114.158C84.5779 113.888 84.5453 113.619 84.5996 113.341L84.723 112.51C84.7785 112.252 84.8628 112.009 84.9349 111.761C85.0071 111.514 85.0747 111.26 85.1667 111.011L85.5108 110.278C85.7101 109.772 86.0561 109.325 86.3735 108.864C86.915 108.17 87.6102 107.582 88.3492 107.123C89.4984 106.415 90.7868 105.965 92.0222 105.812C92.6512 105.694 93.2524 105.704 93.8588 105.67C94.4491 105.697 95.0567 105.683 95.6342 105.759C96.0947 105.81 96.5552 105.861 96.9955 105.841C98.0409 105.768 99.0518 105.972 100.011 106.298C101.176 106.679 102.352 106.848 103.54 107.021C103.821 107.063 104.111 107.069 104.361 107.181C106.119 107.946 108.016 108.262 109.727 109.054C111.116 109.696 112.419 110.51 113.703 111.325C114.692 111.951 115.646 112.64 116.596 113.34C116.662 113.384 116.751 113.394 116.809 113.442C117.34 113.863 117.268 114.428 116.598 114.971C116.02 115.46 115.457 115.622 114.954 115.339C114.394 115.028 113.856 114.684 113.303 114.368L113.253 114.459Z" fill="#82C8B9"/>
<path d="M99.1305 87.2288C99.1305 87.2288 103.634 99.2184 111.505 101.958C118.322 104.334 127.545 102.154 128.873 97.3507C130.132 92.7821 123.678 87.5478 117.964 84.8287C109.894 80.9835 99.1305 87.2288 99.1305 87.2288Z" fill="#CAEAE3"/>
<path d="M101.644 89.6904C101.898 90.5695 102.222 91.4284 102.469 92.3317C102.682 93.1417 102.934 93.9295 103.6 94.4767C103.772 94.6132 103.865 94.8261 103.999 95.0047C104.246 95.3235 104.466 95.6677 104.746 95.9565C104.874 96.0878 105.112 96.1446 105.178 96.3115C105.495 97.123 106.049 97.7766 106.826 98.1777C107.082 98.8498 107.697 99.1496 108.287 99.4232C108.579 99.5721 108.841 99.7586 109.106 99.933C109.393 100.074 109.699 100.194 110.024 100.242C110.2 100.263 110.368 100.34 110.491 100.463C110.878 100.793 111.334 101.031 111.788 101.23C112.29 101.37 112.78 101.506 113.293 101.578C114.39 101.752 115.455 101.996 116.571 102.364C117.165 102.574 117.803 102.542 118.423 102.531C118.795 102.5 119.158 102.454 119.524 102.395L120.609 102.177C121.132 102.089 121.638 101.918 122.137 101.752C122.617 101.535 123.114 101.349 123.536 101.032C124.694 100.268 125.728 99.3806 126.363 98.4582C126.503 98.2228 126.722 98.0342 126.852 97.8153C126.925 97.7114 127.01 97.6106 127.103 97.5054L127.269 97.1729C127.749 96.3198 127.715 95.1288 127.168 93.9378C126.759 93.0565 126.115 92.2295 125.338 91.5102C124.636 90.83 123.798 90.2696 122.987 89.7036C121.777 88.8561 120.489 88.105 119.167 87.4355C118.502 87.103 117.823 86.7992 117.149 86.5229C116.502 86.3444 115.92 86.0664 115.239 85.9895C114.922 85.9376 114.615 85.8692 114.292 85.8614L113.324 85.8381C113.008 85.806 112.676 85.8346 112.352 85.807C111.145 85.7071 109.874 85.7981 108.621 85.9914C106.814 86.2906 105.024 86.8672 103.281 87.5404C102.298 87.9158 101.269 88.3178 100.493 89.0143C100.266 89.2074 100.145 89.0519 100 88.6433C99.7765 87.9214 99.57 87.1587 99.8487 86.5249C100.048 86.0909 100.261 85.7317 100.736 85.6306C101.408 85.4973 101.935 84.9037 102.721 85.0736C102.826 85.0949 102.953 85.0313 103.041 84.9702C104.722 83.7998 106.771 83.4933 108.753 83.2468C109.408 83.1742 110.041 82.9917 110.71 82.9422C111.142 82.9074 111.572 82.8528 112.004 82.8896C112.63 82.9262 113.254 82.9749 113.883 83.0511C114.351 83.0976 114.849 82.9831 115.181 83.5193C115.248 83.6344 115.492 83.6669 115.599 83.5848C116.017 83.2803 116.407 83.4033 116.781 83.5351L118.265 84.1826L119.635 84.9167C120.313 85.2722 121.002 85.6112 121.706 85.9214C122.784 86.4351 123.915 86.9175 124.947 87.5812C125.82 88.1314 126.614 88.8099 127.398 89.5247C127.58 89.6964 127.802 89.8138 127.981 89.9976C128.299 90.3159 128.666 90.6669 128.828 91.0864C128.982 91.5819 129.154 91.9132 129.708 92.1254C130.007 92.2698 130.199 92.6715 130.319 93.0021C130.459 93.4548 130.497 93.9456 130.487 94.4235C130.449 95.0303 130.399 95.5107 130.649 96.1355C130.715 96.3024 130.752 96.5069 130.709 96.7164C130.666 96.9259 130.584 97.1378 130.504 97.3178C129.759 98.8993 128.844 100.118 127.776 101.158C126.32 102.557 124.582 103.525 122.773 104.174C122.063 104.401 121.324 104.594 120.587 104.704C118.285 105.105 115.935 104.981 113.677 104.433C113.236 104.31 112.795 104.186 112.336 104.155C111.807 104.092 111.291 103.981 110.787 103.802C110.28 103.583 109.783 103.327 109.312 103.046C108.783 102.666 108.234 102.338 107.666 102.031C107.147 101.686 106.579 101.379 106.041 101.034C105.8 100.866 105.529 100.736 105.333 100.522C104.01 99.021 102.491 97.7473 101.431 96.1149C100.601 94.7904 99.9798 93.3655 99.4221 91.9445C98.9954 90.8375 98.651 89.7135 98.3418 88.5794C98.3216 88.509 98.2617 88.4412 98.2414 88.3709C98.0883 87.7003 98.5097 87.3121 99.3651 87.3186C100.128 87.307 100.658 87.5126 100.865 88.0287L101.561 89.7592L101.644 89.6904Z" fill="#82C8B9"/>
<path d="M97.9964 86.9966C97.9964 86.9966 91.7823 91.6386 84.0675 87.7514C80.8243 86.1236 77.5981 82.4027 78.4391 78.7232C79.2291 75.3094 84.4838 73.2764 88.4364 74.2874C94.1998 75.7665 97.9964 86.9966 97.9964 86.9966Z" fill="#CAEAE3"/>
<path d="M96.4371 89.2949C95.7091 89.4197 94.9965 89.5356 94.2695 89.4853C93.6173 89.4225 93.0112 89.3329 92.443 89.6625C92.2972 89.7472 92.1164 89.7187 91.947 89.7451C91.6467 89.7757 91.3451 89.7865 91.0415 89.8293C90.9073 89.8456 90.7631 90.0216 90.6317 89.9542C89.987 89.692 89.3942 89.6254 88.737 89.8015C88.2919 89.4235 87.7919 89.57 87.2821 89.5579C86.7658 89.5702 86.314 89.3397 85.7509 89.4304C85.6014 89.4556 85.4449 89.4335 85.332 89.3451C84.9933 89.0798 84.6571 88.8541 84.2818 88.7025C83.9141 88.5464 83.5279 88.4113 83.1469 88.2321C82.3364 87.861 81.6541 87.2511 81.2107 86.4515C80.9733 86.0248 80.6431 85.7033 80.3238 85.3652C79.9523 84.9548 79.5314 84.5832 79.1971 84.1307C78.7028 83.4734 78.2546 82.7893 77.7631 82.0483C77.1003 81.0475 76.7117 79.7234 76.8414 78.3552C76.9421 77.6091 77.3449 76.9239 77.7896 76.3991C78.6796 75.2978 79.8126 74.6506 80.9057 74.1292C81.7334 73.7516 82.559 73.406 83.4171 73.1339C84.2182 72.9051 85.0277 72.6201 85.8937 72.5384C86.534 72.4747 87.1781 72.4704 87.8411 72.5167C88.1695 72.552 88.5067 72.6026 88.8318 72.65C89.1715 72.7402 89.5201 72.8458 89.861 72.9559C91.1952 73.4337 92.3486 74.2012 93.2955 75.0372C93.7814 75.4325 94.2277 75.8303 94.6599 76.2568C94.8837 76.4656 95.0537 76.7056 95.2237 76.9456C95.5383 77.3993 95.8331 77.8543 96.0927 78.3194C96.3721 78.7832 96.6273 79.2406 96.8792 79.7102C97.6134 81.0287 98.3004 82.3542 98.8632 83.7311C99.1822 84.5106 99.4461 85.3016 99.9607 86.0292C100.105 86.243 99.9522 86.4036 99.5131 86.4428C98.7584 86.5216 98.0009 86.684 97.4512 86.4796C97.0848 86.3433 96.7823 86.211 96.7613 85.8742C96.7427 85.3822 96.2265 85.0762 96.456 84.4813C96.4907 84.3996 96.4263 84.3241 96.3709 84.2639C95.3523 83.2335 94.9879 81.9158 94.3326 80.7157C94.1329 80.3185 93.8072 80.0046 93.5538 79.6386L93.057 78.9417C92.8291 78.6019 92.6383 78.22 92.3425 77.9401C92.1142 77.7236 91.8392 77.5856 91.9592 77.085C91.9805 76.9802 91.8511 76.8809 91.7379 76.9158C91.2929 77.0508 91.1528 76.8448 90.982 76.6565C90.4968 76.2094 90.006 75.7349 89.4271 75.4447C89.2236 75.3063 88.9899 75.2572 88.7639 75.2036C88.5346 75.1622 88.3194 75.092 88.0728 75.0915C87.3228 75.0546 86.5799 75.2599 85.8863 75.4263C85.3014 75.5502 84.7177 75.6939 84.1653 75.8913C84.0412 75.9427 83.9374 76.0645 83.8089 76.1083C83.5749 76.1825 83.3757 76.3699 83.1101 76.3188C82.8157 76.2536 82.6136 76.3298 82.5679 76.7463C82.5342 76.9711 82.3685 77.0569 82.2202 77.102C82.0168 77.1583 81.7856 77.1489 81.5479 77.1636C81.2495 77.1623 80.9734 77.1994 80.9604 77.5661C80.9606 77.761 80.8058 77.8303 80.6255 77.8733C80.2541 77.9759 79.9903 78.211 79.8248 78.4918C79.667 78.7681 79.6273 79.0887 79.6418 79.4497C79.6964 80.3929 80.1436 81.252 80.7124 82.02C80.9379 82.3202 81.1447 82.6415 81.39 82.9404C82.1635 83.8667 83.0098 84.8123 84.0137 85.605C84.2062 85.7601 84.4077 85.9305 84.6568 85.9707C85.2355 86.0659 85.7613 86.3355 86.248 86.6791C86.5574 86.8587 86.8862 86.9656 87.2368 87.0392C87.5785 87.0975 87.9428 87.0709 88.2852 87.0774C88.4481 87.0752 88.6163 87.029 88.7696 87.0632C89.8312 87.4426 90.9362 87.0478 91.9861 86.9825C92.8545 86.9404 93.7669 86.9036 94.6841 86.7511C95.3847 86.632 96.1203 86.5027 96.8102 86.2769C96.8531 86.2623 96.8737 86.2093 96.9242 86.1902C97.3078 86.0908 97.7108 86.4316 98.0208 87.1958C98.2665 87.8845 98.1853 88.4345 97.7804 88.6386C97.3339 88.8772 96.8626 89.0377 96.3946 89.1862L96.4371 89.2949Z" fill="#82C8B9"/>
<path d="M115.125 60.328C113.464 63.8676 107.317 64.1504 103.467 62.9978C99.3365 61.7513 95.3831 58.1035 94.9029 53.5794C94.7928 52.5761 94.5589 50.3515 95.9089 48.7164C98.5193 45.5394 105.367 46.6051 109.585 49.5245C112.81 51.758 116.832 56.6902 115.125 60.328Z" fill="#CAEAE3"/>
<path d="M114.136 63.2715C113.318 63.6127 112.499 63.8108 111.698 63.793C110.977 63.7702 110.327 63.6754 109.695 64.0011C109.529 64.0869 109.341 64.0629 109.158 64.0663L108.176 64.1432C108.03 64.1563 107.873 64.3093 107.73 64.2585C107.043 64.0109 106.399 63.8918 105.687 64.0793C105.204 63.6718 104.669 63.8284 104.111 63.8035C103.552 63.7785 103.053 63.555 102.448 63.6086C102.286 63.6306 102.124 63.581 102.007 63.4849C101.282 62.8896 100.482 62.5734 99.688 62.1416C98.8406 61.6892 98.1215 60.9981 97.6884 60.1103C97.4531 59.6516 97.1071 59.2675 96.7885 58.8776C96.4133 58.4078 95.992 57.9647 95.6692 57.4439C95.1931 56.694 94.7751 55.9205 94.3061 55.0946C93.7018 53.947 93.3 52.7947 93.2203 51.3838C93.1881 50.6739 93.4441 49.9302 93.783 49.2409C94.4419 47.8119 95.807 46.8043 97.0963 46.3025C98.0747 45.9195 99.0573 45.6675 100.04 45.5388C100.939 45.4272 101.862 45.3022 102.761 45.3656C105.437 45.5373 108.009 46.2921 110.413 47.6579C110.997 47.9755 111.575 48.3174 112.112 48.6937C112.386 48.8835 112.619 49.1077 112.851 49.3318C113.708 50.1893 114.454 51.1213 115.164 52.1152C116.171 53.5321 117.098 55.129 117.446 57.1437C117.636 58.2852 117.52 59.5532 117.263 60.8618C117.195 61.2398 116.97 61.2578 116.633 60.9606C116.041 60.4526 115.377 60.0166 115.081 59.5418C114.829 59.1956 114.672 58.9786 114.789 58.685C114.972 58.2401 114.596 57.822 114.925 57.2924C114.972 57.2139 114.931 57.1251 114.879 57.0527C114.06 55.8548 113.563 54.5732 112.724 53.3567C112.442 52.9765 112.072 52.6575 111.729 52.3328L111.084 51.6808C110.771 51.3702 110.493 50.9978 110.116 50.7547C109.837 50.5573 109.506 50.4824 109.513 49.9451C109.518 49.8295 109.353 49.7403 109.241 49.795C108.816 50.0004 108.61 49.8222 108.386 49.6652C107.757 49.2708 107.123 48.8687 106.43 48.5937C105.916 48.3791 105.368 48.266 104.814 48.1969C103.951 48.1234 103.093 48.1489 102.278 48.2115C101.6 48.2457 100.933 48.2633 100.312 48.3775C100.166 48.4104 100.042 48.5136 99.9042 48.5421C99.6358 48.5747 99.4201 48.7511 99.1596 48.656C98.8627 48.5511 98.6684 48.6229 98.5774 49.0143C98.5315 49.2359 98.3933 49.3161 98.2438 49.3413C98.0424 49.3658 97.8641 49.3769 97.6207 49.3642C97.3499 49.3571 97.0794 49.4217 97.1246 49.7649C97.1677 49.9452 97.0096 50.0266 96.8472 50.1003C96.1493 50.4539 95.9824 51.3512 96.1166 52.1662C96.1581 52.45 96.2118 52.7369 96.2897 53.0304C96.3611 53.3481 96.4576 53.6205 96.5529 53.8731C96.7369 54.4025 97.0054 54.883 97.2771 55.3513C97.3994 55.5267 97.4987 55.7154 97.6056 55.8996L97.9493 56.4391C98.7205 57.5206 99.5787 58.5928 100.643 59.5249C100.846 59.7151 101.071 59.892 101.335 59.975C101.966 60.1426 102.476 60.4728 103.006 60.8216C103.646 61.2512 104.41 61.3309 105.176 61.3071C105.351 61.3082 105.543 61.2486 105.709 61.3058C106.891 61.6976 108.155 61.3645 109.296 61.2975C110.232 61.2473 111.165 61.229 112.003 61.0099C112.644 60.8427 113.251 60.6141 113.742 60.2057C113.769 60.1802 113.765 60.1208 113.791 60.0953C114.052 59.8723 114.625 59.9401 115.232 60.4909C115.751 60.9796 115.926 61.6171 115.519 62.048C115.316 62.2993 115.086 62.5045 114.831 62.6834C114.589 62.8854 114.336 63.0324 114.07 63.1762L114.136 63.2715Z" fill="#82C8B9"/>
<path d="M116.214 61.7815C116.214 61.7815 120.812 68.237 127.121 69.861C136.47 72.2666 144.321 67.9881 144.688 63.4034C144.996 59.5821 138.773 55.7016 133.06 54.6648C125.47 53.2914 116.214 61.7815 116.214 61.7815Z" fill="#CAEAE3"/>
<path d="M119.081 63.1854C119.499 63.8873 120.004 64.528 120.435 65.2529C120.824 65.8889 121.246 66.5269 121.988 66.7631C122.172 66.8313 122.32 66.9811 122.478 67.0946C122.777 67.2908 123.072 67.4991 123.4 67.6577C123.544 67.7283 123.768 67.6905 123.875 67.8032C124.391 68.3756 125.057 68.7796 125.845 68.7943C126.261 69.3332 126.9 69.2497 127.476 69.3053C128.069 69.3201 128.64 69.5432 129.245 69.3663C129.401 69.3168 129.584 69.3134 129.728 69.384C130.614 69.8142 131.572 69.7506 132.503 69.6927C133.508 69.6024 134.488 69.6289 135.535 69.7706C136.096 69.8352 136.654 69.7368 137.185 69.5726C137.831 69.4131 138.411 69.0867 139.012 68.8306C139.432 68.6175 139.851 68.3846 140.228 68.1146C140.587 67.8139 140.972 67.5394 141.242 67.1567C142.022 66.2014 142.599 65.1792 142.789 64.2685C142.811 64.0405 142.949 63.837 142.972 63.6287C143.005 63.5272 143.039 63.4257 143.08 63.3198C143.106 63.2227 143.096 63.1358 143.114 63.0432C143.235 62.2959 142.741 61.1971 141.97 60.3104C141.368 59.6439 140.609 59.0786 139.781 58.625C139.011 58.1996 138.169 57.898 137.339 57.5996C136.11 57.1431 134.843 56.8003 133.577 56.5808C133.269 56.5443 132.93 56.4738 132.643 56.4559L131.786 56.4296C131.509 56.3951 131.208 56.4775 130.919 56.4915C130.63 56.5254 130.341 56.5394 130.044 56.6294L129.207 56.8485C128.93 56.9373 128.656 57.0658 128.379 57.1546L127.533 57.4299C126.47 57.7386 125.382 58.1443 124.348 58.662C122.856 59.415 121.434 60.3426 120.043 61.324C119.259 61.8818 118.447 62.4454 117.907 63.2306C117.75 63.4552 117.595 63.3296 117.366 62.97C116.979 62.3219 116.591 61.6341 116.685 60.9839C116.745 60.5387 116.857 60.1659 117.248 59.9904C117.821 59.74 118.126 59.0807 118.875 59.0978C118.978 59.0993 119.06 59.0107 119.127 58.931C120.282 57.491 121.983 56.7608 123.615 56.019L125.187 55.2093C125.526 55.0331 125.897 54.9107 126.267 54.7882C126.536 54.7039 126.81 54.6272 127.076 54.555C127.35 54.4981 127.621 54.4335 127.898 54.3447C128.299 54.2045 128.681 53.9619 129.143 54.3508C129.239 54.4284 129.45 54.3675 129.507 54.2527C129.742 53.8085 130.101 53.7742 130.468 53.7872C130.958 53.8005 131.437 53.7588 131.926 53.8238C132.412 53.901 132.9 53.9462 133.374 54.0201C134.062 54.1444 134.753 54.2565 135.455 54.3521C136.532 54.5277 137.642 54.6734 138.706 55.0209C139.599 55.3035 140.44 55.7284 141.291 56.1687C141.484 56.272 141.718 56.3211 141.908 56.4365C142.259 56.6335 142.662 56.851 142.89 57.1908C143.137 57.5811 143.348 57.8384 143.905 57.8436C144.212 57.8603 144.469 58.1624 144.656 58.4133C144.903 58.7321 145.038 59.1771 145.165 59.555C145.243 59.7967 145.284 60.0606 145.384 60.2692C145.489 60.4853 145.625 60.6837 145.845 60.9047C146.098 61.1276 146.184 61.5597 146.148 61.9398C146.093 63.6136 145.688 64.9672 145.086 66.2296C144.246 67.9284 142.929 69.2671 141.465 70.2809C140.879 70.6514 140.261 71 139.616 71.2509C137.641 72.1095 135.495 72.3901 133.425 72.3598C133.018 72.3492 132.611 72.3189 132.203 72.4119C131.277 72.549 130.342 72.4759 129.454 72.201C128.912 72.0637 128.37 71.9781 127.835 71.888C127.289 71.7948 126.748 71.8005 126.156 71.6822C125.883 71.6356 125.596 71.6375 125.347 71.5257C123.666 70.7155 121.912 70.1326 120.486 69.0201C119.348 68.1204 118.413 67.0212 117.549 65.9215C116.887 65.0639 116.305 64.1495 115.766 63.2206C115.731 63.1591 115.657 63.12 115.621 63.0586C115.328 62.5001 115.648 62.0268 116.46 61.7814C117.17 61.5543 117.712 61.5684 118.018 61.955L119.022 63.2607L119.081 63.1854Z" fill="#82C8B9"/>
<path d="M126.443 36.186C128.928 33.0406 125.789 25.4723 120.684 21.8563C116.574 18.9461 109.627 17.4969 107.055 20.6516C104.598 23.668 107.061 29.7709 110.263 33.0956C114.974 37.9968 123.829 39.4984 126.443 36.186Z" fill="#CAEAE3"/>
<path d="M126.012 33.5508C126.245 32.9437 126.256 32.239 126.369 31.4962C126.447 30.8351 126.479 30.1292 125.992 29.5907C125.88 29.4505 125.852 29.2613 125.779 29.0989C125.637 28.8015 125.523 28.4983 125.342 28.2232C125.259 28.0971 125.056 28.0302 125.035 27.8883C124.989 27.5253 124.881 27.1979 124.707 26.8985C124.541 26.5946 124.318 26.3341 124 26.1391C123.976 25.4963 123.442 25.2312 123.019 24.8916C122.597 24.552 122.271 24.1148 121.72 23.9423C121.574 23.9036 121.441 23.8164 121.365 23.6859C120.939 22.8971 120.173 22.4794 119.433 22.088C118.609 21.6938 117.862 21.2033 117.115 20.5697C116.716 20.2365 116.22 20.0526 115.73 19.916C115.146 19.7415 114.535 19.696 113.941 19.6096C113.078 19.4843 112.198 19.5232 111.386 19.7686C110.306 20.1181 109.371 20.6296 108.851 21.2188C108.784 21.2985 108.712 21.3507 108.632 21.4074C108.573 21.4826 108.513 21.5381 108.433 21.5948C108.264 21.6928 108.17 21.8497 108.024 21.9861C107.548 22.5805 107.253 23.5931 107.311 24.6673C107.362 25.4794 107.592 26.3003 107.943 27.0819C108.275 27.813 108.722 28.4772 109.176 29.137C109.826 30.1148 110.583 31.0302 111.406 31.7943C112.247 32.5374 113.163 33.1963 114.182 33.7137C114.678 33.9493 115.188 34.1562 115.707 34.3267C115.963 34.4142 116.21 34.5381 116.452 34.6543C117.371 35.0545 118.319 35.449 119.298 35.6506C120.689 35.9618 122.147 35.9984 123.303 35.7276C123.964 35.611 124.544 35.3363 124.608 34.8988C124.629 34.7941 124.823 34.8974 125.115 35.1894C125.618 35.719 126.124 36.308 126.059 36.9921C125.977 37.3989 125.808 37.8151 125.372 37.9137C125.053 37.9654 124.786 38.1411 124.498 38.2465C124.209 38.3321 123.895 38.3914 123.571 38.2405C123.485 38.1981 123.367 38.2253 123.283 38.2743C121.652 39.036 119.856 38.6108 118.274 38.1841L116.665 37.8347C116.318 37.7489 115.991 37.6102 115.657 37.4759C115.172 37.2952 114.743 36.9799 114.263 36.8069C113.896 36.6706 113.502 36.5917 113.412 36.0484C113.397 35.934 113.21 35.8582 113.098 35.9129C112.653 36.1195 112.408 35.8921 112.146 35.7055C111.781 35.4657 111.452 35.1641 111.124 34.8822C110.781 34.6092 110.475 34.2942 110.159 33.9957C109.682 33.564 109.189 33.1213 108.712 32.6697C107.961 31.9767 107.201 31.2683 106.588 30.4235C106.059 29.7246 105.679 28.9289 105.288 28.13C105.201 27.9445 105.051 27.7748 104.979 27.5804C104.83 27.2357 104.647 26.8494 104.683 26.4693C104.732 26.0407 104.725 25.7269 104.303 25.4071C104.073 25.2226 104.062 24.8495 104.067 24.5588C104.068 24.1888 104.234 23.7848 104.367 23.4305C104.57 22.9844 104.758 22.6187 104.624 22.0702C104.562 21.7679 104.715 21.4123 104.958 21.1586C105.869 20.0241 106.811 19.0468 107.961 18.3588C109.514 17.427 111.233 17.1173 112.861 17.0757C113.511 17.0472 114.134 17.1477 114.76 17.236C116.693 17.5613 118.491 18.3245 120.123 19.3685C120.442 19.5832 120.757 19.7903 121.121 19.9388C121.54 20.0956 121.923 20.3144 122.271 20.595C122.622 20.8635 122.943 21.1697 123.215 21.5147C123.562 21.9187 123.93 22.2696 124.303 22.6283C124.686 22.9704 125.073 23.3201 125.461 23.6699C125.646 23.8294 125.862 23.9711 125.979 24.1905C126.789 25.6395 127.933 26.9047 128.5 28.5359C128.959 29.8397 129.108 31.2821 129.024 32.7469C128.944 33.8815 128.643 35.0615 127.961 36.1142C127.91 36.185 127.899 36.2731 127.843 36.3362C127.346 36.912 126.859 36.6918 126.358 35.9871C125.894 35.3638 125.682 35.0348 125.786 34.7182L125.906 34.4642L125.983 34.173C126.051 33.9898 126.106 33.7836 126.12 33.56L126.012 33.5508Z" fill="#82C8B9"/>
<path d="M127.73 37.6237C125.361 35.2734 128.328 28.3078 131.725 24.0995C135.43 19.5181 142.127 15.1602 145.313 17.2211C147.025 18.3317 147.151 20.9368 147.211 22.2257C147.511 28.5785 142.034 34.0656 136.907 36.4963C135.736 37.0424 129.93 39.8056 127.73 37.6237Z" fill="#CAEAE3"/>
<path d="M125.61 34.9948C125.811 34.0675 126.089 33.2389 126.537 32.5071C126.938 31.8537 127.376 31.2816 127.403 30.5163C127.411 30.3169 127.552 30.1531 127.62 29.9699L128.036 28.9895C128.095 28.8426 128.037 28.6195 128.145 28.5054C128.7 27.9579 129.1 27.3563 129.259 26.5868C129.848 26.2757 129.938 25.6696 130.191 25.1328C130.432 24.5929 130.851 24.1651 131.003 23.5432C131.052 23.381 131.146 23.224 131.28 23.1362C132.101 22.588 132.679 21.852 133.319 21.1322C134.007 20.3735 134.849 19.7723 135.845 19.42C136.37 19.2282 136.819 18.906 137.274 18.6113C137.817 18.2554 138.319 17.8304 138.897 17.5161C139.721 17.0273 140.565 16.589 141.477 16.0909C142.093 15.7741 142.776 15.501 143.578 15.4153C143.78 15.3909 143.985 15.3741 144.183 15.3618C144.399 15.3802 144.615 15.3986 144.836 15.4246C145.278 15.4448 145.721 15.6599 146.162 15.8354C147.061 16.2885 147.614 17.1887 147.928 17.9607C148.545 19.553 148.461 21.0178 148.443 22.3314C148.401 23.3919 148.369 24.4678 148.151 25.5074C147.989 26.484 147.763 27.4565 147.412 28.3892C146.285 31.116 144.478 33.4675 142.332 35.4106C141.821 35.8918 141.306 36.3653 140.76 36.8049C140.483 37.017 140.189 37.2182 139.885 37.3843C139.313 37.7062 138.735 38.0007 138.131 38.2689C137.539 38.5403 136.98 38.762 136.383 39.006C134.682 39.6646 132.969 40.32 130.854 40.4595C130.556 40.478 130.229 40.4625 129.923 40.4656C129.592 40.4425 129.251 40.404 128.918 40.3611C128.21 40.2182 127.427 40.0362 126.641 39.5482C126.186 39.2781 126.227 39.029 126.653 38.8435C127.393 38.4753 127.995 38.0441 128.557 37.8103C128.93 37.6757 129.193 37.4923 129.471 37.67C129.934 37.8838 130.447 37.5655 130.991 37.9373C131.074 37.9918 131.179 37.9614 131.261 37.9245C132.715 37.1938 134.268 36.9182 135.798 36.318C136.291 36.1243 136.742 35.8218 137.195 35.559L138.079 35.0665C138.514 34.8446 138.965 34.6137 139.361 34.3226C139.652 34.0818 139.855 33.7589 140.393 33.9084C140.507 33.9451 140.649 33.8011 140.637 33.6745C140.591 33.1882 140.852 33.0368 141.098 32.8425L142.055 32.0511C142.352 31.7662 142.661 31.4845 142.932 31.1734C143.333 30.7149 143.678 30.1963 143.946 29.6506C144.179 29.2384 144.314 28.7806 144.486 28.3523C144.613 27.899 144.77 27.4796 144.874 27.0396C145.072 26.3194 145.307 25.6286 145.386 24.9157C145.404 24.7516 145.353 24.5758 145.383 24.4148C145.428 24.1217 145.345 23.8008 145.523 23.5431C145.736 23.2554 145.728 22.9934 145.388 22.7083C145.183 22.55 145.221 22.3329 145.233 22.0697C145.266 21.7733 145.384 21.4995 145.486 21.2147C145.613 20.8847 145.735 20.547 145.405 20.2971C145.226 20.165 145.255 19.9326 145.287 19.7397C145.442 18.8392 144.894 18.213 144.261 18.1489C143.348 18.0427 142.201 18.4719 141.12 19.1198C140.69 19.3693 140.247 19.5957 139.806 19.8617C138.454 20.6975 137.058 21.5996 135.737 22.6124C135.471 22.808 135.205 23.0035 135.032 23.2887C134.626 23.9343 134.092 24.4289 133.53 24.9093C132.833 25.4776 132.435 26.2939 132.08 27.1153C131.996 27.3075 131.963 27.5323 131.825 27.684C130.895 28.7878 130.559 30.2246 129.984 31.4615C129.521 32.4686 129.002 33.4475 128.704 34.4205C128.488 35.1618 128.334 35.8873 128.431 36.4261C128.441 36.4613 128.471 36.4952 128.485 36.5182C128.524 36.6391 128.448 36.8267 128.306 37.0424C128.16 37.2503 127.937 37.5028 127.557 37.6617C127.22 37.8059 126.876 37.8313 126.571 37.7309C126.275 37.6261 126.073 37.3841 125.933 37.0548C125.819 36.6999 125.777 36.3446 125.732 36.0014C125.735 35.671 125.722 35.3298 125.747 35.0181L125.61 34.9948Z" fill="#82C8B9"/>
<path d="M125.355 47.5892C124.821 49.1098 124.258 50.6164 123.582 52.0862C122.926 53.5549 122.18 54.9932 121.293 56.3291C119.712 58.7341 117.809 60.7416 115.828 62.8455C115.313 63.3905 114.662 63.8606 114.084 64.3499C113.022 65.2432 111.979 66.1353 111.059 67.1311C110.638 67.5908 110.316 68.1676 109.92 68.582C108.933 69.586 108.037 70.7314 107.195 71.8974C106.365 73.0666 105.598 74.2916 104.958 75.5762C103.487 77.3024 102.625 79.3724 101.795 81.4444C100.973 83.5119 100.152 85.651 99.9493 87.8312C99.9256 88.4094 99.7746 89.0511 99.6947 89.6208C98.9609 93.0431 99.4724 96.7896 101.446 99.6259C103.557 102.68 106.73 105.088 109.538 107.841C111.056 109.289 112.734 110.696 114.357 112.115C116.269 113.817 118.203 115.507 120.019 117.327C122.641 119.972 125.167 122.662 127.691 125.385C131.071 129.017 134.233 132.928 137.006 137.159C138.416 139.306 139.604 141.654 140.659 144.039C142.8 148.79 144.391 153.849 144.894 159.119C145.116 161.094 145.097 163.096 144.963 165.093C144.842 166.087 144.769 167.093 144.528 168.075C144.413 168.583 144.365 169.032 144.192 169.583C144.04 170.134 143.824 170.628 143.599 171.108C142.75 172.863 141.73 174.378 140.702 175.877C139.669 177.369 138.607 178.828 137.526 180.255C131.115 188.695 124.426 197.03 117.398 205.008L112.415 210.782C111.599 211.728 110.775 212.678 109.959 213.624C108.461 215.375 107.027 217.131 105.855 219.001C104.666 220.861 103.713 222.861 102.916 224.955C100.669 230.969 100.168 237.551 100.817 244.029C101.177 247.709 101.875 251.388 103.104 254.903C103.44 255.889 103.344 256.273 102.827 256.018C101.94 255.568 101.042 255.258 100.143 253.584C99.5779 252.434 99.0412 251.35 98.8845 249.789C98.59 247.548 97.9514 245.209 98.2007 242.951C98.2405 242.63 98.1923 242.176 98.1458 241.813C97.2169 235.189 98.4284 228.257 101.152 222.11C102.05 220.101 103.018 218.092 104.257 216.265C105.054 215.074 105.914 213.939 106.816 212.841C108.133 211.255 109.544 209.76 110.888 208.22C111.898 207.06 112.801 205.858 114.06 205.128C114.321 204.976 114.848 204.363 114.962 204.081C115.392 203.001 116.282 202.094 117.13 201.151C119.438 198.621 121.743 196.083 123.958 193.464C125.596 191.528 127.17 189.537 128.687 187.518C131.046 184.385 133.312 181.181 135.621 178.015C136.584 176.686 137.549 175.377 138.48 174.047C139.404 172.721 140.295 171.373 140.944 170.052C141.077 169.749 141.204 169.439 141.282 169.148C141.378 168.836 141.42 168.626 141.488 168.248C141.6 167.609 141.746 166.959 141.829 166.306C141.892 165.654 142.003 165.014 142.12 164.403C142.221 163.728 142.307 163.114 142.297 162.514C142.256 161.912 142.152 161.326 141.954 160.702C141.684 160.007 141.618 158.886 141.49 157.975C141.406 157.387 141.369 156.793 141.292 156.201C141.223 155.605 141.147 155.013 141.075 154.429C140.963 153.724 140.845 153.043 140.683 152.357C140.501 151.673 140.225 151.002 139.853 150.325C139.422 149.6 139.095 148.507 138.809 147.606C137.566 143.607 135.441 139.873 133.019 136.372C129.729 131.622 125.982 127.197 122.023 123.009C120.465 121.368 118.911 119.714 117.297 118.136C114.775 115.7 112.171 113.352 109.469 111.082L105.36 107.627C103.986 106.444 102.594 105.23 101.296 103.787C100.291 102.657 99.3057 101.402 98.516 100.023C97.5754 98.4547 96.9943 96.6574 96.7415 94.8953C96.5482 93.1295 96.521 91.3494 96.8246 89.6442C97.1336 87.5768 97.6225 85.5896 98.255 83.673C98.8875 81.7564 99.6138 79.8778 100.473 78.0863C100.87 77.2503 101.25 76.3835 101.727 75.6141C103.44 72.9065 105.163 70.3574 107.003 67.7811C107.971 66.4601 109.076 65.1823 110.271 64.058C111.469 62.9216 112.694 61.9546 113.785 61.0236C114.669 60.2647 115.476 59.4986 116.227 58.6525C116.963 57.8153 117.705 56.9021 118.311 55.9656C119.575 54.0933 120.602 51.9374 121.482 49.7231C122.836 46.2901 123.892 42.6808 124.706 39.007C124.758 38.7611 124.766 38.51 124.819 38.2642C125.274 36.1836 125.856 35.5589 126.518 36.683C127.089 37.6855 127.279 39.197 126.883 41.1505C126.441 43.3058 125.877 45.4289 125.225 47.5416L125.355 47.5892Z" fill="#82C8B9"/>
<path d="M96.0032 197.442C96.0447 197.726 96.1278 197.975 96.1168 198.31C96.1155 198.608 96.1065 198.911 96.4299 198.867C96.5124 198.85 96.5218 198.937 96.5638 198.974C96.6436 199.041 96.7155 199.112 96.8062 199.162C96.8515 199.187 96.9776 199.104 96.9857 199.171C96.9779 199.493 97.0893 199.685 97.4313 199.62C97.3346 199.984 97.6159 199.903 97.8165 199.93C98.0049 199.954 98.0908 200.12 98.383 200.022C98.461 199.998 98.5172 200.006 98.5132 200.07C98.541 200.454 98.8092 200.545 99.0664 200.652C99.3402 200.77 99.5102 201.01 99.5406 201.434C99.5586 201.659 99.6913 201.747 99.8163 201.838C99.9624 201.949 100.175 201.979 100.34 202.068C100.578 202.197 100.85 202.275 101.213 202.229C101.69 202.167 102.119 202.164 102.512 202.204C102.712 202.231 102.799 202.416 102.931 202.555C103.18 202.842 103.396 203.179 103.674 203.428C103.876 203.618 104.134 203.725 104.398 203.828C104.639 203.925 104.938 203.926 105.185 203.998C105.93 204.222 106.656 204.448 107.404 204.64C107.586 204.688 107.789 204.683 107.962 204.716C108.054 204.734 108.136 204.769 108.207 204.82C108.484 204.998 108.76 205.208 109.056 205.364C109.476 205.593 109.924 205.764 110.355 205.975C110.601 206.099 110.825 206.256 111.164 206.132C111.257 206.098 111.206 206.292 111.019 206.678C110.698 207.346 110.376 208.046 110.08 208.403C109.88 208.642 109.716 208.819 109.644 208.676C109.551 208.464 109.256 208.716 109.278 208.242C109.282 208.178 109.243 208.18 109.208 208.191C108.552 208.458 108.21 208.01 107.785 207.754C107.644 207.671 107.469 207.67 107.307 207.621C107.205 207.587 107.112 207.549 107.017 207.492C106.888 207.412 106.781 207.28 106.627 207.245C106.51 207.221 106.348 207.295 106.452 206.855C106.47 206.762 106.414 206.754 106.34 206.838C106.085 207.16 106.016 207.077 105.946 207.025C105.73 206.884 105.532 206.701 105.31 206.584C105.137 206.499 104.944 206.467 104.733 206.456C104.398 206.445 104.032 206.504 103.7 206.481C103.428 206.454 103.195 206.353 102.945 206.293C102.884 206.277 102.788 206.323 102.735 206.302C102.633 206.269 102.491 206.289 102.473 206.116C102.457 205.93 102.4 205.85 102.126 206.101C101.971 206.242 101.904 206.179 101.859 206.102C101.798 206.014 101.791 205.844 101.789 205.681C101.777 205.483 101.784 205.283 101.54 205.446C101.406 205.534 101.375 205.408 101.367 205.29C101.322 204.751 101.042 204.606 100.707 204.523C100.243 204.413 99.7536 204.348 99.2849 204.23C99.1029 204.181 98.9536 204.083 98.7979 204.01C98.3008 203.754 97.9292 203.344 97.5718 202.905C97.503 202.821 97.4375 202.726 97.3097 202.718C97.0069 202.709 96.8438 202.516 96.7332 202.273C96.599 201.971 96.2804 201.899 95.9541 201.832C95.8736 201.817 95.7713 201.835 95.7357 201.774C95.508 201.311 94.9209 201.272 94.6234 200.9C94.3858 200.597 94.2487 200.184 94.0931 199.792C93.9788 199.489 93.8985 199.156 93.8072 198.839C93.806 198.82 93.7631 198.834 93.7575 198.807C93.7253 198.61 94.054 198.204 94.666 197.684C95.2102 197.225 95.5743 197.003 95.6686 197.113C95.7673 197.23 95.8366 197.385 95.9168 197.523L96.0032 197.442Z" fill="#82C8B9"/>
<path d="M114.967 145.053C115.307 145.215 115.651 145.313 115.984 145.551C116.28 145.759 116.572 145.979 116.862 145.719C116.937 145.654 117.02 145.709 117.099 145.704C117.246 145.691 117.393 145.698 117.531 145.669C117.598 145.661 117.664 145.51 117.723 145.558C118.028 145.801 118.323 145.867 118.628 145.597C118.864 145.932 119.095 145.695 119.331 145.589C119.572 145.491 119.807 145.559 120.05 145.306C120.113 145.238 120.191 145.213 120.25 145.262C120.626 145.556 121.014 145.465 121.405 145.412C121.823 145.355 122.235 145.464 122.618 145.806C122.824 145.984 123.048 145.998 123.271 146.012C123.539 146.031 123.813 145.955 124.079 145.954C124.469 145.954 124.863 145.889 125.264 145.697C125.813 145.441 126.365 145.243 126.912 145.142C127.187 145.085 127.447 145.232 127.703 145.319C128.219 145.502 128.724 145.753 129.244 145.923C129.629 146.038 130.037 146.089 130.44 146.111C130.824 146.135 131.222 146.079 131.601 146.095C132.738 146.163 133.868 146.288 135.006 146.428C135.283 146.462 135.564 146.453 135.844 146.475C135.984 146.486 136.11 146.526 136.24 146.574C136.712 146.751 137.18 146.973 137.648 147.143C138.327 147.395 139.02 147.598 139.686 147.879C140.066 148.038 140.431 148.226 140.892 148.154C141.022 148.13 140.987 148.335 140.796 148.713C140.463 149.378 140.129 150.075 139.796 150.421C139.572 150.654 139.376 150.829 139.271 150.665C139.109 150.44 138.766 150.68 138.704 150.183C138.696 150.116 138.644 150.115 138.601 150.13C137.793 150.383 137.243 149.912 136.618 149.649C136.414 149.562 136.176 149.577 135.955 149.531C135.813 149.5 135.672 149.469 135.538 149.414C135.342 149.342 135.163 149.21 134.955 149.187C134.791 149.17 134.61 149.264 134.589 148.804C134.583 148.705 134.499 148.703 134.441 148.798C134.229 149.157 134.113 149.081 133.995 149.036C133.662 148.922 133.341 148.759 132.998 148.681C132.748 148.621 132.482 148.621 132.206 148.658C131.78 148.721 131.343 148.851 130.925 148.909C130.574 148.959 130.244 148.904 129.903 148.917C129.824 148.922 129.728 148.987 129.657 148.988C129.517 148.977 129.354 149.05 129.249 148.886C129.134 148.706 129.024 148.657 128.833 148.983C128.725 149.169 128.607 149.125 128.517 149.075C128.397 149.01 128.304 148.849 128.203 148.692C128.084 148.505 127.972 148.313 127.777 148.56C127.67 148.694 127.568 148.589 127.481 148.475C127.12 147.976 126.677 147.956 126.232 148.02C125.625 148.105 125.01 148.266 124.409 148.379C124.169 148.426 123.946 148.412 123.716 148.423C122.997 148.439 122.296 148.292 121.585 148.13C121.444 148.099 121.306 148.055 121.164 148.128C120.832 148.3 120.523 148.243 120.208 148.108C119.828 147.948 119.439 148.092 119.055 148.243C118.962 148.277 118.88 148.365 118.79 148.335C118.177 148.127 117.572 148.498 116.959 148.433C116.459 148.385 115.958 148.193 115.459 148.041C115.07 147.918 114.67 147.76 114.276 147.629C114.252 147.623 114.23 147.656 114.201 147.642C113.973 147.549 113.865 147.027 113.906 146.213C113.945 145.502 114.065 145.073 114.272 145.076C114.499 145.078 114.733 145.127 114.961 145.149L114.967 145.053Z" fill="#82C8B9"/>
<path d="M138.044 108.51C137.759 108.479 137.505 108.483 137.178 108.396C136.894 108.315 136.599 108.229 136.559 108.55C136.548 108.638 136.471 108.611 136.422 108.65C136.342 108.707 136.25 108.76 136.183 108.84C136.154 108.878 136.199 109.026 136.134 109.002C135.826 108.914 135.607 108.979 135.593 109.326C135.264 109.148 135.278 109.437 135.202 109.625C135.134 109.808 134.953 109.851 134.984 110.151C134.989 110.231 134.968 110.284 134.908 110.268C134.53 110.2 134.381 110.439 134.217 110.668C134.044 110.902 133.769 111.011 133.351 110.945C133.126 110.911 133.006 111.022 132.893 111.129C132.75 111.253 132.678 111.448 132.556 111.591C132.378 111.797 132.246 112.048 132.217 112.404C132.175 112.88 132.089 113.298 131.97 113.676C131.906 113.867 131.698 113.915 131.545 114.004C131.218 114.184 130.844 114.318 130.544 114.544C130.32 114.705 130.162 114.93 130.01 115.162C129.873 115.385 129.818 115.663 129.693 115.889C129.338 116.568 128.985 117.234 128.671 117.93C128.594 118.098 128.562 118.29 128.497 118.461C128.467 118.551 128.415 118.622 128.352 118.689C128.132 118.93 127.884 119.156 127.685 119.415C127.398 119.787 127.161 120.191 126.878 120.571C126.724 120.783 126.534 120.986 126.604 121.335C126.622 121.438 126.437 121.35 126.085 121.113C125.474 120.698 124.835 120.268 124.531 119.921C124.326 119.691 124.17 119.494 124.331 119.452C124.554 119.395 124.358 119.057 124.818 119.16C124.886 119.171 124.884 119.132 124.873 119.096C124.711 118.411 125.219 118.136 125.546 117.762C125.65 117.64 125.678 117.459 125.757 117.311C125.807 117.221 125.864 117.126 125.936 117.054C126.036 116.944 126.182 116.859 126.253 116.716C126.301 116.605 126.251 116.43 126.668 116.618C126.754 116.661 126.77 116.6 126.702 116.517C126.428 116.204 126.524 116.158 126.588 116.09C126.767 115.904 126.984 115.748 127.142 115.543C127.26 115.392 127.328 115.209 127.379 114.995C127.446 114.669 127.466 114.298 127.558 113.978C127.641 113.714 127.787 113.506 127.896 113.269C127.924 113.211 127.898 113.114 127.931 113.064C127.988 112.969 127.995 112.821 128.164 112.847C128.352 112.871 128.441 112.829 128.246 112.511C128.139 112.327 128.224 112.278 128.297 112.246C128.398 112.208 128.567 112.233 128.723 112.255C128.916 112.287 129.114 112.326 129.009 112.058C128.952 111.907 129.076 111.907 129.2 111.927C129.734 111.997 129.937 111.746 130.092 111.43C130.296 111.004 130.474 110.531 130.693 110.096C130.778 109.924 130.901 109.801 131.016 109.662C131.371 109.231 131.871 108.961 132.373 108.711C132.469 108.665 132.578 108.623 132.618 108.497C132.699 108.194 132.923 108.084 133.194 108.039C133.521 107.983 133.665 107.684 133.81 107.385C133.841 107.315 133.85 107.207 133.921 107.187C134.423 107.08 134.607 106.512 135.056 106.313C135.411 106.148 135.851 106.128 136.262 106.075C136.582 106.043 136.932 106.045 137.258 106.041C137.278 106.04 137.275 106 137.307 106.002C137.511 106.017 137.812 106.448 138.152 107.174C138.454 107.82 138.567 108.226 138.447 108.286C138.308 108.346 138.143 108.38 137.99 108.417L138.044 108.51Z" fill="#82C8B9"/>
<path d="M134.532 183.214C131.494 180.738 127.307 177.801 121.934 175.244C116.704 172.757 111.912 171.361 108.144 170.561C106.729 173.075 106.266 176.114 107.537 178.322C114.862 191.035 134.524 183.218 134.532 183.214Z" fill="#82C8B9"/>
<path d="M131.446 182.439C130.902 181.82 130.321 181.244 129.8 180.592C129.338 180.008 128.868 179.429 128.117 179.249C127.923 179.197 127.782 179.043 127.613 178.946C127.311 178.762 127.005 178.57 126.685 178.407C126.541 178.337 126.317 178.375 126.206 178.254C125.692 177.67 125.065 177.243 124.283 177.133C123.929 176.558 123.306 176.51 122.739 176.346C122.172 176.182 121.662 175.852 121.033 175.848C120.866 175.842 120.696 175.797 120.582 175.689C119.842 175.051 118.937 174.765 118.033 174.479C117.067 174.177 116.157 173.741 115.299 173.11C114.849 172.776 114.309 172.607 113.774 172.445C113.145 172.246 112.487 172.155 111.846 172.004C111.381 171.894 110.911 171.808 110.441 171.741C110.209 171.712 109.956 171.684 109.737 171.678C109.574 171.68 109.42 171.698 109.283 171.726C109.083 171.77 108.919 171.824 108.795 171.876C108.751 172.189 108.73 172.436 108.74 172.647L108.748 172.785C108.744 172.849 108.781 172.807 108.754 172.936L108.687 173.529C108.638 174.081 108.443 174.594 108.368 175.12C108.294 175.645 108.278 176.167 108.346 176.672C108.422 177.193 108.547 177.602 108.892 178.162L109.235 178.753L109.65 179.292C109.923 179.657 110.257 179.966 110.582 180.28C110.879 180.579 111.251 180.795 111.58 181.045L112.658 181.682C114.798 182.893 117.273 183.427 119.779 183.502C120.385 183.52 120.993 183.454 121.6 183.421C121.904 183.398 122.206 183.387 122.513 183.404C123.647 183.413 124.803 183.388 125.944 183.25C127.586 183.056 129.23 182.688 130.847 182.273C131.759 182.041 132.699 181.804 133.469 181.275C133.565 181.209 133.687 181.189 133.693 181.289L133.703 181.324C133.824 181.603 133.941 181.894 134.068 182.2C134.412 183.006 134.556 183.343 134.492 183.196C134.282 182.712 134.058 182.165 133.81 181.58C133.825 181.622 133.844 181.673 133.863 181.723C134.012 182.458 134.124 183.234 133.814 183.814C133.6 184.206 133.381 184.518 132.952 184.54C132.342 184.566 131.832 185.067 131.154 184.783C131.06 184.745 130.944 184.792 130.864 184.849C129.302 185.765 127.498 185.858 125.765 186.001C125.2 186.052 124.631 186.187 124.062 186.25C123.692 186.301 123.314 186.305 122.941 186.316C122.4 186.322 121.855 186.248 121.308 186.278C120.903 186.288 120.49 186.425 120.147 185.957C120.076 185.854 119.866 185.863 119.781 185.964C119.459 186.346 119.12 186.275 118.782 186.205C117.866 186.059 116.968 185.821 116.083 185.585L115.085 185.333C114.746 185.263 114.411 185.18 114.071 185.09C113.01 184.854 111.939 184.511 110.914 184.018C110.079 183.568 109.311 182.988 108.588 182.36C108.42 182.212 108.206 182.11 108.053 181.952C107.75 181.677 107.41 181.392 107.294 180.997C107.156 180.564 106.985 180.305 106.49 180.16C106.199 180.083 106.029 179.771 105.905 179.505C105.745 179.177 105.645 178.65 105.627 178.229C105.593 177.695 105.653 177.249 105.29 176.783C105.103 176.532 105.138 176.132 105.222 175.817C105.583 174.458 105.771 173.261 106.068 172.021C106.337 170.983 106.803 169.963 107.288 168.871C107.523 168.499 107.762 168.114 107.995 167.702C108.073 167.307 108.344 167.756 108.55 167.934L109.225 168.619L109.565 168.976L109.739 169.152L109.876 169.176L110.394 169.255L111.04 169.342C111.653 169.427 112.251 169.573 112.849 169.719C114.718 170.163 116.508 170.879 118.249 171.686C118.597 171.843 118.934 172.017 119.3 172.082C120.164 172.227 120.931 172.612 121.657 173.084C122.531 173.654 123.512 173.947 124.495 174.28C124.723 174.353 124.979 174.389 125.171 174.524C126.522 175.474 128.129 175.979 129.488 176.925C130.585 177.684 131.566 178.613 132.533 179.519C133.281 180.224 133.98 180.988 134.664 181.741C134.71 181.786 134.783 181.805 134.826 181.862C135.2 182.312 135.01 182.833 134.298 183.287C133.671 183.692 133.128 183.782 132.738 183.464C132.319 183.112 131.913 182.732 131.497 182.368L131.446 182.439Z" fill="#82C8B9"/>
<path d="M162.555 177.956C158.512 177.726 152.981 177.867 146.666 179.417C142.483 180.449 138.947 181.854 136.152 183.209C136.901 187.967 147.664 192.138 155.044 188.461C159.079 186.448 162.764 181.765 162.555 177.956Z" fill="#82C8B9"/>
<path d="M159.829 179.148C159.093 178.959 158.343 178.851 157.597 178.627C156.928 178.43 156.26 178.233 155.61 178.528C155.44 178.606 155.25 178.562 155.064 178.578C154.732 178.606 154.407 178.63 154.073 178.691C153.923 178.716 153.783 178.88 153.641 178.849C152.927 178.679 152.232 178.702 151.595 179.072C151.014 178.814 150.53 179.146 150.017 179.341C149.508 179.543 148.954 179.578 148.487 179.941C148.366 180.032 148.211 180.101 148.067 180.083C147.159 180.004 146.334 180.298 145.518 180.607C144.639 180.932 143.728 181.112 142.741 181.11C142.216 181.107 141.726 181.288 141.244 181.465C140.669 181.676 140.139 181.983 139.59 182.24C139.207 182.411 138.748 182.647 138.465 182.831C138.167 183.025 137.964 183.205 137.833 183.404C137.775 183.499 137.725 183.589 137.686 183.663C137.586 183.721 137.784 183.904 137.859 184.014C137.965 184.127 138.063 184.224 138.164 184.31C138.356 184.465 138.533 184.557 138.675 184.608C138.706 184.59 138.943 184.822 139.097 184.999C139.276 185.183 139.439 185.376 139.633 185.551C140.405 186.262 141.322 186.941 142.347 187.434C143.121 187.796 143.963 188.026 144.807 188.172C145.603 188.305 146.413 188.287 147.201 188.302C149.535 188.343 151.854 187.901 153.731 186.873C154.18 186.623 154.587 186.315 154.992 185.988C155.201 185.835 155.411 185.683 155.624 185.539C156.43 184.999 157.215 184.39 157.89 183.66C158.86 182.625 159.616 181.417 160.11 180.217C160.378 179.548 160.581 178.835 160.338 178.258C160.276 178.098 160.475 178.034 160.899 178.076C161.629 178.165 162.414 178.264 162.835 178.759C163.086 179.085 163.307 179.449 163.096 179.828C162.827 180.354 162.958 181.058 162.324 181.415C162.24 181.464 162.211 181.573 162.197 181.674C161.967 183.418 160.723 184.704 159.557 185.843C159.171 186.221 158.836 186.651 158.437 187.026C158.173 187.261 157.905 187.489 157.616 187.698C157.193 187.994 156.734 188.23 156.307 188.519C155.999 188.749 155.707 189.041 155.212 188.826C155.11 188.772 154.933 188.875 154.913 188.999C154.836 189.485 154.512 189.581 154.207 189.675C153.378 189.962 152.521 190.13 151.676 190.282C151.051 190.409 150.423 190.547 149.796 190.686C148.815 190.906 147.806 191.112 146.782 191.151C145.925 191.177 145.071 191.067 144.217 190.957C144.016 190.93 143.807 190.959 143.614 190.927C143.256 190.858 142.853 190.835 142.564 190.602C142.248 190.324 141.979 190.213 141.522 190.417C141.259 190.528 140.968 190.399 140.741 190.254C140.448 190.086 140.196 189.811 139.969 189.543C139.682 189.226 139.451 188.899 138.952 188.922C138.678 188.927 138.448 188.691 138.29 188.454C137.921 187.96 137.54 187.514 137.116 187.103L136.806 186.78L136.645 186.627L136.445 186.405C136.164 186.116 135.91 185.802 135.667 185.471C135.481 185.24 135.362 184.981 135.195 184.729C135.068 184.474 134.956 184.211 134.844 183.947C134.748 183.675 134.648 183.415 134.558 183.118L134.415 182.677C134.37 182.529 134.379 182.421 134.355 182.291L135.763 181.464C136.259 181.187 136.774 180.888 137.255 180.64L137.775 180.369L138.157 180.178L138.942 179.815C140.567 179.077 142.299 178.596 144.037 178.213C144.382 178.136 144.728 178.079 145.044 177.916C145.764 177.529 146.555 177.389 147.355 177.335C148.318 177.279 149.219 176.941 150.127 176.63C150.341 176.557 150.548 176.436 150.771 176.43C152.312 176.398 153.786 175.861 155.322 175.821C156.565 175.788 157.813 175.957 159.036 176.119C159.982 176.247 160.922 176.451 161.853 176.66C161.914 176.676 161.975 176.64 162.036 176.657C162.57 176.798 162.695 177.331 162.409 178.113C162.151 178.817 161.796 179.197 161.341 179.174C160.838 179.137 160.325 179.066 159.817 179.022L159.829 179.148Z" fill="#82C8B9"/>
<path d="M116.813 114.876C111.918 114.31 106.323 113.954 100.17 114.066C94.9694 114.159 90.2027 114.574 85.9391 115.15C86.2357 119.216 90.23 123.712 94.5832 125.537C100.492 128.01 108.342 126.134 111.395 121.068C111.737 120.49 116.813 114.876 116.813 114.876Z" fill="#82C8B9"/>
<path d="M113.578 115.829C112.731 115.572 111.872 115.382 111.033 115.069C110.288 114.793 109.543 114.517 108.749 114.722C108.545 114.778 108.33 114.708 108.119 114.697C107.732 114.685 107.349 114.661 106.964 114.67C106.789 114.668 106.599 114.819 106.44 114.758C105.656 114.484 104.855 114.395 104.052 114.656C103.429 114.309 102.812 114.554 102.187 114.66C101.561 114.767 100.921 114.707 100.305 114.972C100.142 115.046 99.9532 115.074 99.7878 115.036C98.7732 114.773 97.7634 114.908 96.7568 115.03C95.671 115.157 94.5875 115.129 93.4872 114.895C92.9028 114.772 92.2977 114.826 91.7046 114.883C91.0048 114.95 90.3068 115.109 89.6094 115.216C89.3532 115.252 89.1013 115.295 88.8495 115.339L88.48 115.409L88.2141 115.482C87.8701 115.578 87.5638 115.705 87.382 115.851L87.2386 115.976C87.1517 115.985 87.2771 116.148 87.3063 116.234L87.4469 116.512C87.557 116.684 87.6493 116.825 87.7404 116.947C87.8392 117.064 87.9169 117.162 88.0087 117.232L88.0674 117.28L88.1731 117.445C88.2399 117.56 88.3298 117.662 88.4043 117.772C88.7456 118.272 88.9959 118.845 89.3199 119.386C89.9678 120.467 90.7774 121.526 91.7466 122.401C92.483 123.051 93.3277 123.587 94.2187 123.973C94.6394 124.15 95.0588 124.307 95.4943 124.403L96.1405 124.562L96.8041 124.679C99.3835 125.163 102.119 124.89 104.476 123.912C105.037 123.658 105.559 123.356 106.052 123.038C106.31 122.899 106.546 122.721 106.804 122.582C107.732 122.043 108.57 121.383 109.208 120.571L109.522 120.122L109.796 119.727C109.887 119.602 109.914 119.577 109.962 119.518L110.095 119.359L111.048 118.242C111.675 117.519 112.303 116.815 112.941 116.127C113.663 115.339 114.416 114.584 114.953 113.636C115.044 113.491 115.083 113.488 115.278 113.417C115.427 113.392 115.523 113.521 115.589 113.759C115.94 114.469 116.461 115.049 116.428 115.735C116.417 116.194 116.378 116.586 116.007 116.832C115.477 117.191 115.294 117.902 114.556 118.063C114.454 118.082 114.386 118.193 114.34 118.291C113.919 119.141 113.356 119.868 112.758 120.553C112.477 120.881 112.118 121.253 111.915 121.505C111.605 121.89 111.337 122.312 110.992 122.656C110.577 123.143 110.162 123.63 109.7 124.072C109.383 124.339 109.052 124.582 108.713 124.83C108.191 125.133 107.659 125.4 107.131 125.676C106.752 125.906 106.397 126.215 105.859 125.942C105.744 125.885 105.548 125.989 105.5 126.119C105.348 126.618 104.965 126.666 104.606 126.772C103.636 127.027 102.643 127.12 101.652 127.234C101.288 127.26 100.92 127.299 100.55 127.35L99.4383 127.451C98.2861 127.534 97.0867 127.625 95.8974 127.432C94.8947 127.296 93.9256 126.935 92.9796 126.56C92.7709 126.465 92.5218 126.425 92.3087 126.323C91.9232 126.136 91.4872 125.969 91.2196 125.631C90.9407 125.239 90.6773 125.033 90.138 125.058C89.8364 125.069 89.543 124.829 89.3378 124.599C89.0727 124.301 88.8723 123.956 88.7025 123.592C88.4927 123.16 88.3205 122.757 87.8117 122.57C87.5238 122.481 87.3476 122.141 87.2499 121.849C86.7635 120.551 86.0853 119.559 85.4053 118.281C84.7255 116.88 84.3841 115.354 84.1399 113.73C85.1767 113.519 86.2794 113.279 87.4638 113.074L88.7626 112.854L89.7284 112.715C91.7269 112.427 93.7479 112.373 95.7618 112.395C96.156 112.402 96.5623 112.413 96.9426 112.326C97.8319 112.107 98.7315 112.119 99.6327 112.222C100.715 112.354 101.79 112.191 102.866 112.029C103.115 111.998 103.372 111.91 103.616 111.943C105.349 112.169 107.075 111.855 108.804 112.022C110.196 112.158 111.571 112.458 112.946 112.758C114.002 112.987 115.054 113.279 116.098 113.557C116.171 113.576 116.244 113.544 116.309 113.567C116.897 113.75 117.026 114.29 116.653 115.061C116.317 115.738 115.882 116.104 115.349 116.033C114.759 115.955 114.175 115.832 113.589 115.741L113.578 115.829Z" fill="#82C8B9"/>
<path d="M128.87 97.3517C124.931 97.2665 119.2 96.6922 112.715 94.4109C106.722 92.3058 102.175 89.4744 99.1278 87.2298C99.1278 87.2298 103.632 99.2194 111.502 101.959C118.324 104.343 127.547 102.163 128.87 97.3517Z" fill="#82C8B9"/>
<path d="M125.674 98.4573C124.812 98.2087 123.939 97.9964 123.109 97.6265C122.369 97.3066 121.668 96.9644 120.852 97.0788C120.643 97.1077 120.434 97.0133 120.224 96.9706L119.09 96.7667C118.922 96.7414 118.705 96.8463 118.557 96.7681C117.824 96.3523 117.08 96.0963 116.228 96.1493C115.716 95.6561 115.06 95.7287 114.422 95.6371C113.789 95.5533 113.207 95.2753 112.525 95.3216C112.347 95.3327 112.158 95.2888 112.016 95.1862C111.151 94.5798 110.175 94.2945 109.192 93.9619C108.151 93.601 107.186 93.0525 106.351 92.2852C106.139 92.0796 105.87 91.8975 105.651 91.7679C105.444 91.6416 105.222 91.5241 105.012 91.4099C104.489 91.1282 104.03 90.9738 103.603 90.7499C102.965 90.4117 102.404 90.1522 102.362 90.3617C102.34 90.4664 102.372 90.5917 102.44 90.7267L102.481 90.8156L102.495 90.8387L102.547 90.911L102.651 91.0556L103.029 91.5651C103.263 91.8806 103.47 92.1303 103.642 92.3383C103.92 92.6591 103.758 92.6095 103.759 92.7526C103.754 92.9915 103.774 93.38 104.15 94.0448L104.203 94.1369L104.312 94.2892L104.53 94.5938L104.978 95.2063C105.288 95.6006 105.633 95.965 105.963 96.3382C106.617 97.0055 107.348 97.5764 108.07 98.1123C108.322 98.3352 108.6 98.5128 108.877 98.6904C109.155 98.8681 109.421 99.0623 109.697 99.2201C110.275 99.4904 110.818 99.8424 111.412 100C112.542 100.443 113.884 100.67 115.166 100.757C115.787 100.818 116.418 100.739 117.042 100.736C117.355 100.709 117.661 100.706 117.976 100.718C119.128 100.706 120.3 100.673 121.409 100.409C122.998 100.071 124.526 99.4315 125.606 98.5689C125.945 98.341 126.167 98.0687 126.401 97.7996C126.554 97.5156 126.718 97.2151 126.668 96.916C126.666 96.753 126.885 96.7593 127.266 96.9384C127.922 97.2556 128.613 97.6143 128.811 98.3099C128.902 98.7497 128.891 99.2078 128.525 99.5328C128.236 99.7417 128.043 100.028 127.805 100.29C127.548 100.52 127.267 100.725 126.883 100.753C126.776 100.763 126.677 100.841 126.603 100.925C125.281 102.431 123.264 102.863 121.444 103.159C120.847 103.279 120.239 103.417 119.634 103.522C119.239 103.566 118.835 103.596 118.439 103.62C117.858 103.628 117.281 103.553 116.698 103.573C116.264 103.568 115.818 103.684 115.479 103.224C115.409 103.121 115.182 103.119 115.092 103.212C114.737 103.572 114.385 103.479 114.023 103.421L112.601 103.057L111.204 102.595C110.537 102.294 109.79 102.122 109.13 101.797C108.599 101.571 108.042 101.371 107.542 101.076C107.028 100.81 106.498 100.533 106.039 100.183C105.225 99.6295 104.557 98.9392 103.852 98.2711C103.699 98.1136 103.489 97.9994 103.343 97.8374C103.074 97.532 102.708 97.2724 102.607 96.869C102.477 96.4317 102.316 96.1553 101.793 96.0487C101.72 96.0293 101.655 96.0055 101.588 95.9619C101.512 95.8832 101.426 95.7891 101.352 95.6784C101.2 95.4691 101.066 95.2387 100.953 95.027C100.669 94.4839 100.47 93.9634 100.348 93.4699C100.198 92.8587 100.152 92.4439 99.443 91.7165C99.0683 91.3182 98.9741 90.8905 98.9358 90.5946C98.8223 89.9216 98.745 89.3815 98.4885 88.7094C97.9928 87.8374 97.3013 86.8225 96.6432 85.706L95.4568 83.7674L94.7566 82.6138L94.3468 81.9075C95.4908 82.588 97.0284 83.5225 98.7688 84.6472C99.3117 84.9992 99.9056 85.4037 100.478 85.7897L101.351 86.3917L102.18 86.9367C103.052 87.5189 103.876 87.9846 104.712 88.5054L105.949 89.204L106.563 89.5556L107.012 89.7981C107.836 90.2639 108.664 90.7175 109.495 91.159C109.827 91.3253 110.157 91.5235 110.523 91.5882C111.372 91.7423 112.13 92.0929 112.887 92.4952C113.788 92.988 114.809 93.1552 115.812 93.2917C116.044 93.321 116.302 93.305 116.518 93.3949C118.025 94.0291 119.684 94.0412 121.241 94.3898C122.508 94.6809 123.769 95.0679 125.057 95.3775C126.046 95.6143 127.049 95.8741 128.06 96.0777C128.128 96.0894 128.201 96.057 128.262 96.0731C128.839 96.2003 129.015 96.7342 128.719 97.5322C128.448 98.2331 128.036 98.6366 127.481 98.5995C126.869 98.554 126.266 98.4523 125.672 98.3659L125.674 98.4573Z" fill="#82C8B9"/>
<path d="M109.582 49.5156C105.364 46.5961 98.5166 45.5305 95.9062 48.7075C95.6179 49.0595 95.4145 49.4341 95.2596 49.8215C97.7556 50.4976 100.617 51.4849 103.659 52.9423C108.528 55.2685 112.3 58.0367 115.055 60.4506C115.072 60.4097 115.102 60.3721 115.119 60.3312C116.833 56.6889 112.812 51.7567 109.582 49.5156Z" fill="#82C8B9"/>
<path d="M107.082 49.5405C106.634 49.1229 106.132 48.7882 105.664 48.352C105.239 47.9728 104.781 47.5916 104.187 47.7001C104.038 47.7253 103.901 47.6304 103.756 47.6116C103.495 47.5681 103.233 47.5049 102.965 47.4858C102.842 47.4855 102.698 47.6097 102.591 47.5488C102.081 47.2185 101.503 47.1233 100.955 47.3999C100.738 47.2384 100.523 47.22 100.306 47.2534C100.103 47.3098 99.871 47.4236 99.736 47.4917C99.4628 47.6399 99.0808 47.6358 99.0289 47.9533C99.0217 48.0293 98.9769 48.0758 98.8689 48.0666C98.1892 48.0094 97.7942 48.3721 97.6567 48.7187C97.5521 48.8922 97.4246 49.0791 97.2081 49.3074C96.8413 49.6125 97.0527 49.6233 97.0076 49.7931C97.01 49.8327 97.0279 49.8635 97.0699 49.9006C97.1962 50.0121 97.4797 50.0939 97.7389 50.1692C98.1526 50.2986 98.6374 50.356 99.018 50.4635C99.4988 50.5848 100.344 50.8027 101.098 50.8472C102.144 50.9174 103.182 51.0955 104.181 51.3675C104.695 51.5105 105.121 51.8379 105.564 52.1246C106.451 52.6978 107.287 53.3419 108.143 53.933C108.791 54.3779 109.475 54.7609 110.159 55.1439C110.473 55.3312 110.808 55.4853 111.133 55.6561L111.63 55.9115C111.774 55.9821 111.806 55.9841 111.892 56.0265C112.293 56.2044 112.449 56.2265 112.58 56.2223C112.628 56.2154 112.658 56.1976 112.668 56.1612C112.652 56.027 112.614 55.8741 112.564 55.7699C112.513 55.6458 112.369 55.5036 112.293 55.4447C112.256 55.4152 112.256 55.4152 112.272 55.4261C112.321 55.439 112.408 55.4296 112.353 55.3177C111.784 54.3548 110.971 53.431 110.139 52.5799C109.66 52.1085 109.171 51.602 108.504 51.4248C108.322 51.3764 108.389 51.1734 108.684 50.8687C109.208 50.339 109.737 49.7652 110.302 49.6425C110.682 49.5553 111.011 49.5388 111.2 49.8293C111.445 50.2515 112.055 50.329 112.059 50.973C112.061 51.0644 112.139 51.1112 112.213 51.1504C112.868 51.4477 113.368 51.9376 113.8 52.4874C114.004 52.769 114.193 53.0596 114.367 53.359C114.525 53.6673 114.71 53.9501 114.906 54.3595C115.029 54.6064 115.175 54.84 115.325 55.0812C115.448 55.3281 115.583 55.5782 115.702 55.8372C115.866 56.1731 115.922 56.4997 116.011 56.8283C116.077 57.0668 116.059 57.2827 116.089 57.5115C116.119 57.7403 116.133 57.9582 116.143 58.1882C116.162 58.362 116.198 58.5666 116.196 58.7218C116.157 58.8674 116.072 58.9682 115.875 58.9287C115.794 58.9138 115.798 59.0966 115.887 59.2502C116.169 59.8252 116.036 60.0561 115.956 60.3077C115.892 60.4788 115.79 60.6402 115.713 60.8081L115.589 61.0544L115.517 61.1782C115.488 61.2158 115.461 61.1697 115.437 61.1633C115.219 61.0535 114.99 60.9405 114.756 60.8914C114.663 60.8733 114.578 60.8508 114.484 60.8646C114.116 60.5852 113.748 60.3575 113.368 60.1267C112.955 59.874 112.519 59.6544 112.033 59.3824C111.527 59.1116 111.021 58.8408 110.515 58.57C110.02 58.2826 109.79 58.1696 109.509 58.0041C109.233 57.8463 108.949 57.6929 108.662 57.5517C108.531 57.4843 108.363 57.4788 108.232 57.4114C107.993 57.2831 107.706 57.2135 107.559 56.9601C107.399 56.6837 107.231 56.5351 106.82 56.7117C106.592 56.8134 106.4 56.6782 106.265 56.5514C106.08 56.3918 105.942 56.1539 105.796 55.9203C105.632 55.6363 105.471 55.3599 105.075 55.4561C104.86 55.5092 104.709 55.3198 104.579 55.1489C104.042 54.3828 103.269 54.0411 102.455 53.8054C101.353 53.4802 100.218 53.2565 99.1053 53.0194C98.8454 52.9958 97.8003 52.6273 96.9907 52.3992C95.593 51.989 94.0765 51.5861 92.6898 51.1593C92.8447 50.7719 92.9604 50.4584 93.0382 50.2388C93.2052 49.8546 93.4684 49.353 93.675 48.9663C93.8445 48.6216 94.1078 48.315 94.2223 47.9817C94.3165 47.5781 94.67 47.2499 94.9749 46.9088C95.3449 46.5915 95.7845 46.3056 96.2597 46.0812C96.9023 45.8622 97.4199 45.5517 98.0893 45.3788C98.409 45.2754 98.7185 45.1368 99.0504 45.0366C99.2185 44.9904 99.3956 44.9595 99.5637 44.9132L99.9154 44.8118C100.13 44.7389 100.339 44.6582 100.548 44.681C102.001 44.8333 103.418 44.6577 104.774 45.0506C105.852 45.3693 106.842 45.9441 107.766 46.527C108.483 47.0034 109.138 47.5474 109.755 48.1334C109.797 48.1706 109.861 48.1745 109.903 48.2117C110.243 48.5684 110.052 49.0695 109.425 49.6175C108.875 50.1012 108.435 50.3154 108.144 50.1148C107.801 49.9134 107.494 49.6501 107.144 49.4531L107.082 49.5405Z" fill="#82C8B9"/>
<path d="M144.572 64.0647C141.031 63.4099 137.201 62.8407 133.127 62.4338C126.992 61.8171 121.323 61.6685 116.215 61.7793C116.215 61.7793 120.813 68.2347 127.122 69.8588C136.022 72.1451 143.535 68.3808 144.572 64.0647Z" fill="#82C8B9"/>
<path d="M141.693 64.8521C140.986 64.554 140.256 64.321 139.561 63.9546C138.937 63.6394 138.321 63.3198 137.618 63.4709C137.438 63.5139 137.258 63.4336 137.069 63.4095C136.737 63.3666 136.408 63.3313 136.077 63.3082C135.929 63.3015 135.746 63.4282 135.615 63.3608C134.962 63.0315 134.28 62.883 133.557 63.087C133.052 62.6929 132.499 62.8904 131.953 62.9402C131.404 63.0022 130.86 62.877 130.308 63.0942C130.157 63.1514 129.998 63.1612 129.856 63.1104C129.007 62.7615 128.126 62.8003 127.249 62.827C126.308 62.8498 125.369 62.7172 124.449 62.3688C123.952 62.1849 123.43 62.1697 122.917 62.1698C122.323 62.155 121.657 62.2441 121.121 62.2576C120.502 62.2881 119.903 62.3691 119.617 62.5659C119.586 62.5837 119.567 62.6047 119.549 62.6258C119.448 62.7354 119.395 62.8382 119.377 62.9308C119.364 62.9793 119.366 63.0189 119.373 63.0662C119.375 63.086 119.38 63.1135 119.389 63.1289C119.39 63.1487 119.392 63.1685 119.475 63.223C119.737 63.4096 119.964 63.5545 120.147 63.6744C120.32 63.7789 120.332 63.8339 120.344 63.9087C120.347 63.9483 120.349 63.9879 120.376 64.034C120.424 64.1702 120.498 64.3326 120.622 64.5278C120.639 64.5585 120.644 64.5662 120.678 64.6078L120.824 64.7698C120.918 64.8792 121.02 64.9843 121.13 65.0848C121.337 65.2827 121.541 65.4928 121.756 65.6862C122.411 66.25 123.138 66.7417 123.913 67.1231C124.263 67.32 124.642 67.4596 125.012 67.5837C125.382 67.7277 125.762 67.8155 126.131 67.9396C126.404 68.038 126.679 68.1045 126.949 68.1632C127.226 68.2175 127.482 68.305 127.787 68.3338C128.372 68.4048 128.953 68.5397 129.539 68.559C130.118 68.6025 130.702 68.6537 131.285 68.6333C131.867 68.6449 132.444 68.5971 133.01 68.546C133.557 68.5159 134.086 68.3319 134.622 68.2468C134.88 68.1791 135.147 68.1267 135.416 68.0941C136.403 67.973 137.375 67.7574 138.289 67.4222C139.595 66.9314 140.757 66.175 141.606 65.303C142.077 64.8242 142.504 64.2687 142.401 63.7024C142.388 63.5561 142.603 63.5546 142.99 63.7095C143.668 63.9935 144.376 64.3114 144.636 64.9196C144.789 65.3238 144.821 65.7155 144.53 66.0279C144.288 66.2299 144.153 66.4928 143.975 66.7505C143.799 66.9961 143.56 67.1859 143.209 67.2356C143.115 67.2494 143.045 67.3413 143.003 67.4274C142.091 68.9517 140.377 69.5872 138.833 70.0929C138.313 70.2405 137.83 70.5212 137.309 70.649C136.972 70.7415 136.633 70.8462 136.282 70.8958C135.773 70.9553 135.262 70.995 134.766 71.0776C134.392 71.1406 134.021 71.3148 133.657 70.9C133.581 70.8212 133.384 70.8533 133.319 70.9528C133.061 71.3586 132.741 71.3189 132.43 71.3143C132.001 71.3172 131.576 71.2561 131.155 71.2028C130.726 71.1539 130.306 71.1203 129.889 71.0548C129.267 70.9741 128.626 70.9662 127.998 70.9098C127.029 70.8667 125.953 70.8342 124.95 70.5545C124.522 70.4539 124.111 70.3123 123.723 70.1376C123.319 69.9719 122.922 69.8016 122.54 69.6027C122.36 69.5224 122.147 69.4919 121.971 69.3995C121.653 69.2243 121.283 69.0803 121.077 68.7789C120.849 68.4391 120.649 68.2368 120.149 68.3116C119.865 68.3531 119.626 68.1533 119.458 67.9529C119.237 67.7122 119.074 67.3961 118.928 67.091C118.812 66.7681 118.448 66.2299 117.79 65.9447C117.414 65.7733 117.141 65.3567 116.98 65.0605C116.836 64.795 116.716 64.536 116.571 64.3024C116.42 64.0612 116.255 63.8289 116.17 63.6115C116.223 62.9957 116.05 62.5212 115.938 62.0628L115.839 61.6793C115.798 61.5903 115.868 61.5701 115.913 61.5235L116.044 61.3961C116.134 61.303 116.202 61.2431 116.288 61.0906C116.375 60.9579 116.445 60.8143 116.511 60.663C116.574 60.5239 116.677 60.259 116.744 60.0559C117.313 59.9927 117.918 59.9392 118.555 59.8876C119.034 59.8459 119.538 59.8305 120.054 59.8183L121.472 59.7858C123.215 59.7292 124.951 59.8916 126.686 60.1058C127.027 60.1443 127.368 60.2027 127.707 60.1498C128.49 60.0136 129.264 60.1087 130.027 60.2919C130.947 60.517 131.882 60.447 132.824 60.3725C133.042 60.3589 133.268 60.2892 133.482 60.3395C134.952 60.6975 136.471 60.5036 137.936 60.7824C139.123 61.0069 140.288 61.3878 141.445 61.7534C142.337 62.036 143.221 62.3747 144.097 62.6981C144.149 62.7187 144.22 62.6984 144.285 62.7222C144.783 62.9259 144.845 63.4749 144.458 64.2228C144.113 64.8846 143.705 65.2241 143.249 65.1292C142.746 65.0213 142.251 64.877 141.746 64.7493L141.693 64.8521Z" fill="#82C8B9"/>
<path d="M107.052 20.6595C110.189 22.5644 113.52 24.7675 116.967 27.3132C120.686 30.0609 123.983 32.807 126.89 35.4301C128.464 31.9516 125.423 25.2085 120.685 21.8521C116.571 18.954 109.62 17.4971 107.052 20.6595Z" fill="#82C8B9"/>
<path d="M109.781 20.8526C110.262 21.3636 110.76 21.8337 111.186 22.4078C111.563 22.9173 111.914 23.4324 112.559 23.5713C112.724 23.6087 112.836 23.7489 112.969 23.8361C113.218 23.9996 113.459 24.1676 113.723 24.3222C113.842 24.3863 114.047 24.3497 114.121 24.4604C114.486 25.0184 114.949 25.4271 115.614 25.5648C115.811 26.1173 116.341 26.1996 116.787 26.4026C117.241 26.6011 117.594 26.9609 118.139 27.0344C118.284 27.0532 118.415 27.1207 118.494 27.239C118.951 27.9384 119.632 28.3336 120.303 28.7651C121.02 29.2217 121.626 29.8243 122.076 30.5997C122.316 31.0143 122.68 31.3059 123.04 31.5898C123.505 31.9666 123.816 32.1142 124.158 32.3674C124.625 32.7122 125.096 32.9931 125.315 32.8761C125.361 32.8493 125.395 32.8194 125.422 32.7939C125.648 32.8475 125.418 31.7084 125.255 31.3208C125.15 31.0529 125.279 31.0806 125.319 30.9549C125.364 30.8368 125.407 30.6988 125.419 30.5072C125.408 30.2772 125.416 30.0779 125.214 29.5177C124.982 28.8003 124.587 28.1368 124.162 27.511C123.752 26.928 123.233 26.4392 122.759 25.9238C122.041 25.181 121.282 24.4924 120.47 23.9066C119.652 23.345 118.783 22.874 117.857 22.4981C117.412 22.3149 116.933 22.2135 116.475 22.0789C116.244 22.0177 116.017 21.9443 115.796 21.8467C114.977 21.5317 114.131 21.2224 113.283 21.0882C112.069 20.8694 110.846 20.9017 109.92 21.182C109.396 21.322 108.912 21.531 108.857 21.9839C108.835 22.0886 108.646 21.993 108.349 21.6933C107.847 21.1638 107.341 20.5748 107.346 19.9461C107.364 19.5353 107.497 19.181 107.867 19.0586C108.147 19.0094 108.379 18.8438 108.626 18.7211C108.874 18.6181 109.153 18.5689 109.456 18.7013C109.538 18.7359 109.634 18.6902 109.708 18.6578C111.101 17.8394 112.725 18.1798 114.12 18.4987C114.588 18.5969 115.071 18.6344 115.547 18.7282C115.845 18.8011 116.153 18.8893 116.446 18.9865C116.862 19.1555 117.276 19.3564 117.699 19.5012C118.02 19.6125 118.393 19.6012 118.478 20.1368C118.493 20.2512 118.66 20.3085 118.763 20.2384C119.156 19.9793 119.397 20.1472 119.637 20.2954C120.29 20.6962 120.916 21.1545 121.51 21.6306C121.976 21.9556 122.43 22.2972 122.919 22.6089C123.655 23.116 124.433 23.6084 125.097 24.2393C125.658 24.7652 126.106 25.3776 126.573 25.9889C126.678 26.1335 126.844 26.2425 126.941 26.3916C127.121 26.6668 127.379 26.9172 127.385 27.2629C127.393 27.6482 127.494 27.8765 127.933 28.0321C128.189 28.1196 128.278 28.3965 128.34 28.6273C128.361 28.6976 128.373 28.7724 128.378 28.8516C128.389 28.9583 128.396 29.0772 128.404 29.1961C128.418 29.4338 128.417 29.6606 128.413 29.8676C128.41 30.1263 128.4 30.3576 128.435 30.5941C128.454 30.8395 128.521 31.078 128.714 31.3761C128.913 31.7018 128.932 32.1223 128.815 32.3641C128.512 33.5563 128.375 34.4875 128.153 35.7144C128.081 36.1563 127.945 36.6659 127.819 37.1908C127.675 37.5616 127.576 37.6393 127.428 38.0741C126.775 37.6017 126.054 37.0857 125.294 36.5006C124.614 35.9821 123.9 35.3703 123.188 34.7981L121.675 33.5519L120.818 32.8177L119.159 31.2862C118.94 31.0851 118.732 30.8674 118.45 30.7536C117.813 30.487 117.308 30.0411 116.843 29.5411C116.289 28.9392 115.554 28.5752 114.813 28.2355C114.641 28.1508 114.436 28.1158 114.309 27.9845C113.384 27.0636 112.124 26.6249 111.102 25.8533C110.275 25.2246 109.533 24.4754 108.748 23.7605C108.157 23.2007 107.561 22.6332 106.965 22.0658C106.923 22.0286 106.863 22.0323 106.821 21.9951C106.494 21.6615 106.64 21.1354 107.241 20.5611C107.778 20.0544 108.256 19.8696 108.604 20.0985C108.99 20.3569 109.359 20.6561 109.726 20.9356L109.781 20.8526Z" fill="#82C8B9"/>
</svg>
