<svg width="51" height="61" viewBox="0 0 51 61" fill="none" xmlns="http://www.w3.org/2000/svg">
<path d="M38.9107 41.3973C38.2394 41.5695 38.0604 41.1529 38.2808 40.4954C39.5855 36.6156 49.7376 21.668 44.1675 19.3443C43.9369 19.2479 43.6856 19.2376 43.4239 19.2995C45.1521 16.3458 45.0557 14.0771 43.7097 13.454C42.4566 12.8757 40.2327 13.5986 38.1947 16.0773L38.1912 16.0738C38.174 13.6296 37.2618 12.6864 36.4837 12.528C35.5749 12.3421 34.0774 12.7036 32.5351 15.1547C32.1323 13.9773 31.4679 13.5057 30.9068 13.4403C29.4058 13.2578 26.4349 14.683 25.0234 24.5288L35.8951 48.6267C38.3909 47.6008 50.0853 45.5284 49.7961 41.955C49.5035 38.3094 42.0951 40.5849 38.9107 41.3973Z" fill="#F29AA6"/>
<path d="M36.5537 28.7695C36.9496 28.0294 37.3421 27.2824 37.7793 26.5766C38.1717 25.9466 38.5642 25.3373 38.8086 24.6213C38.874 24.4354 38.9876 24.2563 39.0806 24.0773C39.2492 23.7468 39.4283 23.4232 39.6073 23.0996C39.6899 22.9516 39.7278 22.7692 39.8276 22.6452C40.313 22.0359 40.7605 21.4231 41.1771 20.7518C41.6694 20.3697 42.0033 19.874 42.5059 19.4712C42.7607 19.2749 43.0533 19.1097 43.401 19.0202C43.5731 18.9754 43.7625 18.9617 43.9518 18.972C44.1446 18.9858 44.3374 19.0512 44.4854 19.0959C44.6541 19.1476 44.8434 19.2474 44.9777 19.3748C45.3977 19.7466 45.6972 20.2285 45.8796 20.7277C46.0621 21.2303 46.1447 21.7467 46.1585 22.2597C46.1929 23.3647 45.9175 24.4181 45.5147 25.3889C45.2978 25.9053 45.1154 26.4561 44.9192 26.9932C44.6851 27.6301 44.4682 28.2704 44.21 28.8969C43.8347 29.8058 43.4561 30.7043 43.1118 31.6234C42.6505 32.849 42.1341 34.0608 41.5833 35.2553C41.3045 35.8612 40.9499 36.443 40.6194 37.0248L39.6348 38.7736C39.4765 39.0663 39.3181 39.3589 39.1735 39.6515C39.1012 39.7995 39.0289 39.9441 38.9601 40.0921L38.8224 40.402C38.7811 40.5052 38.7397 40.6223 38.7604 40.7393C38.7707 40.7944 38.8086 40.8495 38.8637 40.8702C38.9188 40.8908 38.9773 40.8874 39.0358 40.877C39.0943 40.8667 39.1494 40.8461 39.2045 40.8323L39.4317 40.7669L40.1581 40.5638C41.0704 40.3056 41.9792 40.0198 42.9156 39.8064C44.3064 39.4966 45.7213 39.2212 47.2532 39.2935C47.6353 39.3107 48.0312 39.3692 48.434 39.4794C48.8333 39.5895 49.2533 39.7651 49.6286 40.0749C50.0038 40.3779 50.2964 40.8288 50.4341 41.2867C50.4754 41.4003 50.503 41.5174 50.5168 41.6275C50.5305 41.7446 50.565 41.8444 50.5615 41.9787C50.565 42.106 50.5615 42.2369 50.5581 42.3677C50.5409 42.4916 50.5099 42.619 50.4823 42.7429C50.3515 43.2042 50.1209 43.6139 49.8558 43.9237C49.5942 44.2542 49.305 44.5124 49.0089 44.7568C48.8574 44.8704 48.706 44.9771 48.5511 45.0839L48.0829 45.3696C46.909 46.0168 45.7041 46.4678 44.4992 46.8843C42.7744 47.4764 41.0394 47.9722 39.3112 48.43C38.3404 48.6917 37.3317 48.9292 36.4745 49.3182C36.2542 49.4284 36.1509 49.3871 36.175 49.1977C36.2198 48.8741 36.2542 48.5367 36.6708 48.2304C36.9531 48.0204 37.225 47.8517 37.6312 47.7794C38.2199 47.6796 38.7879 47.3869 39.3938 47.4007C39.4799 47.4041 39.5935 47.3628 39.683 47.3284C41.3079 46.6778 43.012 46.2956 44.6541 45.7138C45.1911 45.5279 45.7041 45.2835 46.217 45.046C46.5475 44.8911 46.878 44.7327 47.1981 44.564C47.6663 44.3231 48.1311 44.0649 48.5201 43.7309C48.675 43.6104 48.7886 43.4624 48.9263 43.3419C49.0433 43.2077 49.1914 43.1044 49.3463 43.0011C49.3807 42.9804 49.4255 42.9254 49.4599 42.8668C49.4874 42.8049 49.5012 42.736 49.4943 42.6982C49.4668 42.3987 49.5081 42.1611 49.4771 41.8719C49.4323 41.476 49.274 41.1215 48.9883 40.8598C48.6991 40.6016 48.3066 40.4364 47.8935 40.3469C47.2773 40.2057 46.6129 40.2298 45.9691 40.2987C44.9639 40.4157 43.9759 40.6739 42.9844 40.9356C42.1582 41.1559 41.3217 41.3728 40.492 41.6206C40.2992 41.6792 40.1168 41.7618 39.924 41.8169C39.8242 41.8478 39.7209 41.8754 39.621 41.9064C39.4833 41.9442 39.3491 41.9855 39.2114 42.02C39.053 42.0475 38.8981 42.0716 38.7466 42.0923C38.5986 42.106 38.4747 42.0785 38.3542 42.0441C38.1063 41.9546 37.8894 41.7997 37.7552 41.5897C37.6244 41.3831 37.5417 41.1765 37.4798 40.9115C37.4385 40.7634 37.4591 40.5362 37.5314 40.2884C37.5968 40.0543 37.7242 39.7548 37.7655 39.6756C37.917 39.3554 38.1098 39.0697 38.2991 38.7943C38.5297 38.4638 38.7535 38.1643 38.8533 37.7409C38.9084 37.5137 39.0806 37.2486 39.232 37.0386C39.9033 36.1125 40.43 35.1039 40.9154 34.0745C41.573 32.6769 42.1926 31.2688 42.771 29.854C43.0016 29.3031 43.2323 28.7489 43.4595 28.1946C43.8038 27.334 44.1377 26.4734 44.4234 25.6058C44.7092 24.7417 44.957 23.8673 45.0706 23.0067C45.1154 22.6693 45.1429 22.3285 45.0913 22.0118C44.9777 21.2785 44.7849 20.6933 44.3615 20.2905C44.2341 20.1666 44.0688 20.0702 43.8933 19.9876C43.8072 19.9566 43.7211 19.9462 43.5834 19.9876C43.308 20.0702 42.9603 20.3387 42.6643 20.652C42.5231 20.8034 42.3992 20.9756 42.2477 21.1236C41.721 21.6469 41.2838 22.2906 40.8879 22.9551C40.492 23.6229 40.1409 24.3217 39.7794 25.0171C39.1838 26.1704 38.5504 27.3065 37.9617 28.4597C37.5039 29.3513 37.0494 30.2395 36.6295 31.1484C36.6019 31.2069 36.5916 31.2757 36.5606 31.3343C36.3162 31.8472 36.0649 31.9505 35.8686 31.5856C35.6965 31.2654 35.6793 30.8489 35.879 30.3634C36.0993 29.8299 36.3437 29.3066 36.5881 28.7833L36.5537 28.7695Z" fill="black"/>
<path d="M32.2754 27.0797C32.4338 26.7871 32.5818 26.491 32.7746 26.2156C32.9467 25.9712 33.1223 25.7371 33.1292 25.4273C33.1326 25.3481 33.1808 25.2792 33.2049 25.2035C33.2531 25.0692 33.3047 24.935 33.3426 24.7973C33.3598 24.7353 33.3323 24.6492 33.3701 24.601C33.5664 24.3566 33.6972 24.0915 33.711 23.7748C33.921 23.6096 33.9175 23.3617 33.9726 23.1311C34.0277 22.9004 34.1482 22.6939 34.1482 22.4391C34.1482 22.3703 34.1688 22.3048 34.2101 22.2532C34.4649 21.9537 34.5888 21.5957 34.73 21.2411C34.8814 20.8624 35.0949 20.5113 35.3909 20.2118C35.5458 20.05 35.6491 19.8503 35.7558 19.6575C35.8798 19.4269 35.9762 19.179 36.0932 18.9449C36.2688 18.6075 36.4271 18.2598 36.5442 17.888C36.706 17.3854 36.8816 16.9103 37.126 16.4249C37.2637 16.1874 37.4565 15.9774 37.6492 15.7812C38.0245 15.3818 38.4376 15.0204 38.861 14.6692C39.1743 14.4042 39.4876 14.1322 39.8146 13.874L40.2794 13.5125C40.4446 13.4024 40.6064 13.2819 40.782 13.1855C41.3053 12.8963 41.887 12.6657 42.548 12.5934C42.8751 12.5521 43.2262 12.5658 43.5842 12.6381C43.9319 12.7242 44.3209 12.8688 44.6308 13.1476C44.9234 13.3989 45.1816 13.7122 45.3227 14.0461C45.4088 14.2148 45.4467 14.3835 45.4845 14.5522C45.605 15.1822 45.5396 15.7605 45.4432 16.3045C45.3021 17.0825 45.0576 17.802 44.7409 18.4733C44.5585 18.8554 44.3485 19.21 44.2245 19.6162C44.1901 19.7298 44.1041 19.7264 43.9836 19.6024C43.7736 19.3924 43.5429 19.1928 43.4809 18.9483C43.4396 18.7797 43.4224 18.642 43.5257 18.5215C43.6806 18.3459 43.6703 18.0808 43.9113 17.9466C43.9457 17.9259 43.956 17.8812 43.9629 17.8433C44.0386 17.1617 44.3347 16.5799 44.4414 15.9361C44.469 15.7295 44.4621 15.5127 44.4414 15.3096C44.438 15.1753 44.4173 15.0479 44.4036 14.9171C44.3795 14.7312 44.3554 14.5419 44.2693 14.3801C44.2452 14.3147 44.1867 14.2733 44.1626 14.2114C44.1385 14.1494 44.1282 14.084 44.1488 13.9842C44.1591 13.9429 44.1006 13.8878 44.0559 13.8947C43.8734 13.9394 43.8183 13.8602 43.7254 13.8017C43.4947 13.6434 43.1918 13.5297 42.8751 13.5263C42.758 13.5194 42.6375 13.5401 42.5239 13.5538C42.4069 13.5814 42.2933 13.6158 42.1797 13.6537C41.832 13.7914 41.5221 14.0083 41.2157 14.2114C41.0918 14.3043 40.961 14.3904 40.8336 14.473C40.7097 14.5694 40.5823 14.6555 40.4653 14.7553C40.4102 14.8035 40.3758 14.8723 40.3207 14.9205C40.2174 15.0032 40.1313 15.1133 40.004 15.1546C39.8594 15.196 39.7664 15.2579 39.763 15.4473C39.763 15.554 39.6769 15.6263 39.6012 15.6814C39.5048 15.7536 39.3774 15.7915 39.2604 15.8432C39.1192 15.9051 38.9781 15.9568 38.9505 16.1392C38.9368 16.2356 38.8404 16.3045 38.7509 16.3527C38.3515 16.5626 38.1071 16.9103 37.9109 17.289C37.6458 17.8157 37.4083 18.3666 37.1707 18.907C37.0778 19.1205 36.9642 19.3236 36.8609 19.5301C36.5373 20.1739 36.1655 20.7867 35.8075 21.4098C35.7352 21.5303 35.6594 21.6542 35.6285 21.7919C35.5527 22.1121 35.4047 22.3944 35.2257 22.6663C35.0122 22.9934 34.9124 23.372 34.8229 23.7473C34.8022 23.8368 34.7988 23.9297 34.7541 24.0089C34.4477 24.5494 34.3582 25.1759 34.1275 25.7405C33.9382 26.1984 33.7041 26.6425 33.4872 27.0969C33.3185 27.448 33.1464 27.7992 32.9777 28.1503C32.9674 28.1744 32.9742 28.202 32.9605 28.2261C32.8572 28.4257 32.6438 28.4395 32.3718 28.257C32.1308 28.0952 32.0172 27.9059 32.0792 27.7131C32.148 27.4997 32.2341 27.2897 32.3133 27.0797H32.2754Z" fill="black"/>
<path d="M37.6571 15.3474C37.7053 15.1409 37.7259 14.9309 37.7776 14.714C37.8292 14.5178 37.8671 14.3146 37.7156 14.1666C37.6777 14.1287 37.6812 14.0737 37.664 14.0255C37.6295 13.9394 37.5951 13.8602 37.5504 13.781C37.5297 13.7466 37.4574 13.7363 37.4574 13.695C37.4643 13.485 37.3679 13.3094 37.1751 13.2371C37.1786 13.0478 37.003 13.0065 36.8722 12.972C36.7448 12.9273 36.6312 12.8481 36.49 12.9101C36.4522 12.9307 36.4212 12.9273 36.3937 12.9066C36.2078 12.7689 35.9702 12.793 35.7602 12.8619C35.6466 12.8963 35.533 12.9135 35.4125 12.9376C35.292 12.9548 35.1612 12.9514 35.0235 12.9617C34.8755 12.9652 34.7378 13.0202 34.6276 13.1097C34.4899 13.213 34.3591 13.3197 34.2455 13.4471C34.0699 13.6192 33.9047 13.8017 33.8152 14.053C33.6775 14.3628 33.5673 14.6864 33.433 14.9791C33.3608 15.1236 33.2437 15.2476 33.137 15.3749L32.8065 15.7571C32.7067 15.8948 32.6034 16.0325 32.5104 16.1736C32.3693 16.3871 32.2591 16.6177 32.1731 16.8656C32.0905 17.0928 32.0388 17.3303 31.9596 17.5575C31.7531 18.2426 31.5431 18.9208 31.3882 19.6231C31.3469 19.7918 31.3262 19.9639 31.2918 20.1291C31.2711 20.2118 31.2505 20.2944 31.2229 20.377C31.1196 20.6799 31.006 20.976 30.9096 21.2824C30.7651 21.7162 30.6721 22.1671 30.5482 22.6078C30.4793 22.8591 30.3967 23.1069 30.4242 23.3789C30.4311 23.4546 30.352 23.4615 30.197 23.3961C29.9285 23.286 29.6462 23.1827 29.512 23.0209C29.419 22.9107 29.3536 22.8109 29.419 22.7179C29.5154 22.5802 29.4259 22.3909 29.6325 22.2842C29.66 22.2704 29.66 22.236 29.6566 22.2084C29.5739 21.7162 29.7874 21.2962 29.9457 20.8624C29.9939 20.7213 30.0077 20.5663 30.0387 20.4183C30.0593 20.3219 30.0869 20.229 30.1179 20.136C30.1626 20.0018 30.228 19.8744 30.2624 19.7367C30.2865 19.6334 30.2693 19.5164 30.4587 19.4785C30.5 19.4716 30.5069 19.4131 30.4759 19.3821C30.352 19.2616 30.3967 19.1824 30.4277 19.0998C30.5172 18.876 30.6136 18.6592 30.6962 18.4354C30.7582 18.2701 30.7995 18.098 30.8305 17.919C30.8787 17.6436 30.8856 17.351 30.951 17.0756C31.006 16.8449 31.0955 16.628 31.1678 16.4043C31.1851 16.3526 31.1782 16.2872 31.1954 16.239C31.2298 16.1461 31.2401 16.0325 31.3365 15.974C31.4398 15.9085 31.4914 15.8431 31.4123 15.6917C31.371 15.6056 31.4191 15.5333 31.4639 15.4782C31.5224 15.4059 31.6119 15.3543 31.7014 15.3027C31.8047 15.2407 31.908 15.1891 31.8839 15.0376C31.8701 14.955 31.9459 14.8999 32.0147 14.862C32.3245 14.6899 32.4691 14.4248 32.6309 14.1494C32.8272 13.7673 33.0613 13.3851 33.3332 13.0168C33.4503 12.8791 33.5845 12.7552 33.7188 12.6312C34.1594 12.2594 34.7102 11.9806 35.3333 11.8773C35.4573 11.8635 35.5847 11.8566 35.6983 11.8085C35.9737 11.7052 36.2869 11.7258 36.5692 11.8257C36.9479 11.9462 37.3197 12.0839 37.6467 12.2801C37.7259 12.3248 37.812 12.3627 37.8636 12.4316C38.2148 12.9066 38.5659 13.3232 38.7071 13.8224C38.8138 14.2217 38.8172 14.6245 38.7897 15.0032C38.7759 15.2992 38.7243 15.5849 38.6657 15.8638C38.6623 15.881 38.6761 15.9017 38.6726 15.9189C38.6313 16.0772 38.4317 16.1254 38.1184 16.0566C37.8395 15.9981 37.6777 15.9085 37.6812 15.7812C37.6881 15.64 37.6915 15.4989 37.6984 15.3577L37.6571 15.3474Z" fill="black"/>
<path d="M31.8239 14.762C31.8067 14.583 31.7516 14.4212 31.7172 14.2284C31.6897 14.0597 31.6243 13.8773 31.4384 13.8669C31.3902 13.8669 31.3695 13.8222 31.3316 13.805C31.2662 13.7706 31.2008 13.7361 31.1285 13.7189C31.0941 13.712 31.0459 13.7533 31.0253 13.7292C30.9185 13.595 30.7292 13.5674 30.5777 13.6742C30.4469 13.5606 30.3195 13.6535 30.2128 13.7327C30.1027 13.8015 29.9684 13.8084 29.8961 13.9564C29.8754 13.9943 29.8479 14.0184 29.81 14.0115C29.693 13.9909 29.6 14.0391 29.514 14.0907C29.4279 14.1458 29.3453 14.2043 29.2764 14.2869C29.1973 14.3696 29.1112 14.4384 29.0114 14.49C28.9115 14.5451 28.8117 14.6071 28.6843 14.645C28.5535 14.6897 28.4571 14.7792 28.3814 14.8859C28.2884 15.0064 28.223 15.151 28.1369 15.2784C28.0165 15.4643 27.9373 15.6812 27.8994 15.9084C27.8478 16.2148 27.8168 16.528 27.7376 16.8103C27.6963 16.9515 27.6068 17.0789 27.5276 17.2062C27.3761 17.4644 27.1799 17.7088 27.0594 17.9911C26.963 18.2011 26.8976 18.4215 26.8357 18.6418C26.7771 18.8483 26.7771 19.0755 26.7358 19.2855C26.605 19.9086 26.5155 20.5421 26.426 21.1755C26.4019 21.327 26.4053 21.4819 26.395 21.6368C26.3881 21.7125 26.3744 21.7883 26.3571 21.864C26.2848 22.1394 26.2022 22.4114 26.1403 22.6902C26.0473 23.0861 26.0026 23.4958 25.9234 23.8951C25.8786 24.1223 25.8201 24.3496 25.8752 24.5905C25.8889 24.6594 25.8098 24.6663 25.6514 24.6215C25.376 24.5389 25.0834 24.4632 24.9319 24.3255C24.8286 24.2325 24.7529 24.1499 24.8114 24.0604C24.894 23.933 24.7873 23.7678 24.9801 23.661C25.0077 23.6473 25.0042 23.6163 24.9973 23.5922C24.8734 23.1584 25.0283 22.7694 25.1385 22.3735C25.1729 22.2427 25.1695 22.105 25.1867 21.9742C25.197 21.8881 25.2142 21.8021 25.2349 21.7194C25.2658 21.5955 25.3175 21.4785 25.3278 21.3511C25.3381 21.2547 25.3003 21.1514 25.4896 21.1067C25.5275 21.0963 25.5309 21.0481 25.4965 21.0206C25.3588 20.9208 25.3967 20.8485 25.4173 20.7727C25.4793 20.5696 25.5585 20.3699 25.6067 20.1634C25.6445 20.0119 25.6514 19.8501 25.6617 19.6883C25.6755 19.437 25.6583 19.1788 25.679 18.9275C25.6996 18.7175 25.7375 18.5144 25.7857 18.3079C25.796 18.2597 25.7788 18.2046 25.7926 18.1564C25.8167 18.0703 25.8132 17.9705 25.8924 17.9085C25.9819 17.8431 26.0163 17.7777 25.9165 17.6503C25.8614 17.578 25.8924 17.5092 25.9268 17.4541C25.9716 17.3852 26.0439 17.3302 26.1265 17.2751C26.2229 17.2131 26.3193 17.158 26.2642 17.0238C26.2332 16.9515 26.2952 16.8964 26.3537 16.8551C26.6153 16.6726 26.7048 16.4179 26.8012 16.1528C26.8563 15.9703 26.9148 15.7845 26.9699 15.602C27.0353 15.4195 27.1076 15.2371 27.1834 15.0512C27.2419 14.9066 27.3211 14.7758 27.414 14.645C27.6825 14.2353 28.044 13.8773 28.4743 13.5915C28.5604 13.5365 28.6464 13.4848 28.7084 13.3953C28.8668 13.2094 29.0802 13.0855 29.3246 13.0304C29.4761 12.9994 29.6035 12.9375 29.7412 12.8789C29.8823 12.8273 30.02 12.755 30.1715 12.693C30.2438 12.6689 30.3126 12.6276 30.3884 12.6311C30.4538 12.6345 30.5192 12.6345 30.5812 12.6345L30.7774 12.6448L30.9736 12.6483C31.0425 12.6517 31.1251 12.662 31.2008 12.6724C31.5038 12.7171 31.7895 12.8238 32.0167 12.9925C32.3816 13.2714 32.5882 13.6501 32.7259 13.9978C32.836 14.2697 32.8842 14.5486 32.9187 14.8102C32.9221 14.8274 32.9393 14.8412 32.9393 14.8584C32.9496 15.0133 32.7706 15.1166 32.4539 15.1579C32.1751 15.1958 32.0029 15.1786 31.9651 15.0787C31.9272 14.9686 31.8997 14.855 31.8584 14.7448L31.8239 14.762Z" fill="black"/>
<path d="M38.4483 44.8713C36.968 37.5697 32.4583 17.8231 27.4115 19.8577C26.8434 20.0883 26.389 20.6598 26.1377 21.4103L26.0344 21.1486C25.0258 18.312 23.0153 16.8902 21.1288 17.5064C20.2922 17.7784 19.5762 18.4772 19.1528 19.3964V19.3929C18.3919 16.6974 16.3436 15.1758 14.4777 15.5304C12.4363 15.9194 10.6668 18.3085 11.765 21.4688C11.8889 21.8578 12.0266 22.2571 12.154 22.653L12.1471 22.6496C10.9801 20.9799 8.95932 21.0453 7.7854 22.0402C4.86955 24.5086 12.123 40.2686 14.1817 45.5495C14.3573 46.0005 13.8409 46.3998 13.4484 46.121C10.6634 44.1484 4.32563 40.1619 1.36158 42.4271C1.11027 42.6578 0.869292 42.971 0.683393 43.4151C0.535363 43.7697 0.635196 44.1794 0.917487 44.4376C3.99514 47.2398 6.40493 49.567 8.06425 51.2057C10.629 53.7325 12.2057 55.4056 15.0045 57.1028C16.86 58.2285 18.5296 58.9273 19.6863 59.3508C20.0926 59.4919 28.0346 62.0842 34.1141 56.8928C35.7287 55.5158 36.8028 53.9356 37.5223 52.4588C38.6687 50.1075 38.9682 47.4361 38.4483 44.8713Z" fill="#F0D0D5"/>
<path d="M16.1129 34.8154C16.0406 34.4609 15.9511 34.1097 15.9098 33.7483C15.8719 33.4247 15.841 33.1045 15.631 32.8429C15.5759 32.774 15.5656 32.6845 15.5311 32.6019C15.4726 32.4573 15.4141 32.3093 15.3487 32.1681C15.3177 32.1027 15.2385 32.0545 15.2316 31.9857C15.2006 31.6448 15.1077 31.335 14.8943 31.0665C14.9252 30.7808 14.7462 30.5811 14.6189 30.3539C14.488 30.1301 14.4226 29.8754 14.2402 29.6723C14.192 29.6172 14.1541 29.5483 14.1472 29.4795C14.1059 29.0526 13.9235 28.6774 13.7548 28.2952C13.5758 27.8856 13.4518 27.4552 13.4243 26.9939C13.4105 26.7495 13.3279 26.5154 13.2487 26.2848C13.1558 26.0128 13.0284 25.7512 12.9251 25.4827C12.7771 25.0902 12.6084 24.7115 12.3846 24.3466C12.0886 23.8612 11.8166 23.362 11.5687 22.8525C11.4414 22.5943 11.3897 22.3052 11.3174 22.0263C11.2796 21.8852 11.2451 21.7509 11.2107 21.6029L11.1143 21.1485C11.0765 21.0004 11.0696 20.8386 11.0455 20.6837C11.0248 20.5288 11.0007 20.3739 11.0007 20.2155C10.9869 19.9814 10.9663 19.7473 10.9732 19.5098C10.9628 19.2723 10.9869 19.0347 11.0076 18.7972C11.0283 18.5734 11.0696 18.3531 11.104 18.1293C11.1625 17.9125 11.2038 17.6818 11.3002 17.4718C11.7959 16.2049 12.9079 15.1102 14.3675 14.7694C14.7221 14.6971 15.0939 14.6386 15.4588 14.6661C15.6447 14.6696 15.8237 14.7109 15.9959 14.7556C16.6465 14.9346 17.2111 15.272 17.6999 15.6645C18.3919 16.2359 18.9462 16.9313 19.3317 17.699C19.5486 18.1362 19.707 18.5872 19.9342 19.0175C19.9996 19.138 19.9376 19.2 19.7655 19.2C19.466 19.2 19.1596 19.2206 18.9358 19.0829C18.7878 18.9865 18.6535 18.9039 18.6329 18.7352C18.6053 18.4805 18.3644 18.3152 18.4057 18.0226C18.4091 17.9813 18.3781 17.9434 18.3471 17.9125C17.8239 17.3926 17.4521 16.7971 16.8806 16.3633C16.6982 16.2222 16.4813 16.1327 16.2713 16.05C16.137 15.9846 15.9993 15.9468 15.8616 15.8951C15.6619 15.8297 15.4554 15.7609 15.2454 15.7574C15.0836 15.7574 14.9425 15.8125 14.7807 15.6541C14.7462 15.6232 14.6602 15.6438 14.6361 15.6851C14.5431 15.8469 14.4226 15.871 14.2952 15.8951C13.9579 15.9846 13.6102 16.1017 13.321 16.3186C13.1007 16.47 12.9182 16.6697 12.7702 16.8866C12.5464 17.2308 12.395 17.6061 12.2986 17.9882C12.2469 18.1431 12.2228 18.3049 12.1746 18.4598C12.154 18.6216 12.1161 18.78 12.1092 18.9383C12.1092 19.0141 12.1333 19.0898 12.1264 19.1656C12.1092 19.2998 12.154 19.4444 12.0989 19.5718C12.03 19.7129 12.0266 19.8334 12.1815 19.9539C12.2676 20.0193 12.2676 20.1364 12.2641 20.2327C12.271 20.3567 12.2435 20.4841 12.2125 20.6183C12.1712 20.7767 12.1643 20.935 12.3089 21.0624C12.3881 21.1313 12.3846 21.2517 12.3881 21.3722C12.3846 21.8817 12.5533 22.3362 12.753 22.7837C13.0249 23.3896 13.321 23.9817 13.5964 24.5841C13.7031 24.8182 13.7926 25.0627 13.8856 25.3071C14.1782 26.0576 14.3882 26.839 14.6257 27.6067C14.6705 27.7582 14.7118 27.9131 14.7944 28.0508C14.9838 28.3641 15.0939 28.7049 15.1731 29.0595C15.2695 29.4864 15.476 29.865 15.686 30.2437C15.7342 30.3332 15.8031 30.4158 15.8272 30.5122C15.9993 31.187 16.3814 31.7757 16.6087 32.4263C16.7911 32.953 16.9219 33.5004 17.07 34.0409C17.1836 34.4574 17.28 34.8843 17.3867 35.3043C17.3936 35.3318 17.4177 35.3525 17.4245 35.3835C17.4762 35.6279 17.3213 35.7759 16.9873 35.7897C16.6947 35.8 16.4847 35.714 16.4021 35.504C16.3126 35.2768 16.2437 35.0392 16.1646 34.8051L16.1129 34.8154Z" fill="black"/>
<path d="M21.9953 32.9976C21.9437 32.6947 21.8748 32.3952 21.8542 32.0819C21.837 31.803 21.8232 31.5276 21.6373 31.3108C21.5891 31.2557 21.5822 31.1765 21.5547 31.1076C21.5065 30.9837 21.4617 30.8598 21.4032 30.7393C21.3791 30.6842 21.2999 30.6463 21.2999 30.5878C21.293 30.2952 21.2207 30.0301 21.028 29.8064C21.0796 29.5585 20.9143 29.3932 20.8042 29.2005C20.694 29.0111 20.6458 28.7942 20.4771 28.6256C20.4324 28.5808 20.4014 28.5223 20.4014 28.4637C20.3911 28.0954 20.2396 27.7787 20.0985 27.4551C19.9435 27.1074 19.8816 26.7321 19.885 26.3362C19.8885 26.1262 19.8265 25.9266 19.768 25.7304C19.6957 25.4963 19.5924 25.2759 19.5098 25.0453C19.3927 24.7114 19.2585 24.3843 19.0657 24.0745C18.8109 23.6579 18.5803 23.2311 18.3772 22.7938C18.3255 22.6837 18.2911 22.5666 18.2636 22.4461C18.2429 22.3188 18.2085 22.2396 18.1878 22.0158C18.15 21.4581 18.2223 20.9211 18.3428 20.3944C18.4357 20.0019 18.539 19.6129 18.6836 19.2342C18.8247 18.8831 18.9762 18.5251 19.1999 18.198C19.5373 17.723 19.9849 17.303 20.5391 17.0069C21.1002 16.7177 21.7337 16.5766 22.3809 16.6144C22.6873 16.6317 23.0005 16.6661 23.2932 16.7556C23.4377 16.8038 23.5858 16.852 23.7132 16.9277C24.2089 17.1859 24.6254 17.5405 24.9869 17.9123C25.5102 18.4459 25.9267 19.0449 26.2434 19.6783C26.4259 20.0398 26.5602 20.4081 26.7839 20.749C26.8493 20.8454 26.7874 20.9039 26.6187 20.9211C26.3226 20.9521 26.0231 21.0037 25.8028 20.9073C25.6513 20.8419 25.5377 20.7765 25.5136 20.6319C25.4826 20.4185 25.2761 20.2808 25.3277 20.0226C25.3346 19.9847 25.3071 19.9537 25.283 19.9262C24.8148 19.4924 24.5497 18.9588 24.1194 18.5285C23.9782 18.3942 23.8095 18.2875 23.6443 18.1911C23.5376 18.1292 23.4377 18.0534 23.3241 17.9984C23.1727 17.9054 23.0143 17.8125 22.8422 17.7643C22.7079 17.7333 22.5771 17.7574 22.491 17.5646C22.4704 17.5267 22.3947 17.5267 22.3671 17.5612C22.2501 17.7023 22.1502 17.6713 22.0401 17.6713C21.7509 17.6438 21.4514 17.6851 21.1691 17.7711C20.966 17.8503 20.7732 17.9639 20.6183 18.1188C20.3704 18.3529 20.1983 18.649 20.0434 18.9313C19.916 19.1723 19.7886 19.4098 19.7026 19.6646C19.6785 19.7231 19.6922 19.7954 19.6716 19.8539C19.6337 19.9606 19.6337 20.0845 19.5545 20.1706C19.4581 20.2636 19.4306 20.36 19.5408 20.4942C19.6027 20.5665 19.5786 20.6595 19.558 20.7352C19.527 20.8316 19.4581 20.9245 19.4065 21.0209C19.3342 21.138 19.2619 21.255 19.3755 21.3858C19.434 21.4547 19.3996 21.5511 19.3755 21.6337C19.3445 21.7163 19.3273 21.8437 19.3101 21.8816C19.3067 21.9022 19.3136 21.9573 19.3204 22.0089C19.3273 22.0606 19.3377 22.1088 19.3514 22.1604C19.3996 22.3601 19.4719 22.5494 19.5545 22.7388C19.7749 23.2517 20.0193 23.7578 20.243 24.2673C20.3326 24.4669 20.398 24.6735 20.4703 24.88C20.6975 25.5169 20.8489 26.1744 21.0004 26.8354C21.0348 26.9628 21.0624 27.0971 21.1347 27.2107C21.2999 27.4723 21.3791 27.7615 21.4307 28.0644C21.4961 28.4259 21.6717 28.746 21.8507 29.0662C21.892 29.1385 21.954 29.2073 21.9712 29.29C22.0951 29.8614 22.4291 30.3537 22.6115 30.9011C22.7596 31.3452 22.8525 31.8099 22.9661 32.2678C23.0522 32.6224 23.121 32.9838 23.2037 33.3419C23.2105 33.366 23.2312 33.3832 23.2346 33.4073C23.2725 33.6138 23.1107 33.755 22.7871 33.786C22.5014 33.8135 22.2983 33.7481 22.2329 33.5725C22.1571 33.3797 22.102 33.1766 22.0366 32.9804L21.9953 32.9976Z" fill="black"/>
<path d="M25.9861 25.3215L25.6281 24.0959C25.5764 23.9238 25.5799 23.8308 25.5558 23.7138C25.5351 23.6002 25.5317 23.4831 25.5213 23.3695C25.5041 23.1389 25.5041 22.9082 25.5179 22.6776C25.5454 22.2163 25.6384 21.7618 25.8002 21.3281C25.962 20.8978 26.1995 20.4846 26.5369 20.1507C27.1359 19.5207 28.0998 19.3693 28.8469 19.6653C29.6008 19.9614 30.1688 20.5156 30.7059 21.0837C30.9847 21.3832 31.2188 21.7515 31.446 22.1027C31.8557 22.7464 32.2206 23.4143 32.558 24.0925C32.7129 24.4023 32.9194 24.7052 33.0296 25.0047C33.5804 26.4816 34.0968 27.9481 34.6992 29.4043C34.9643 30.6058 35.4118 31.7246 35.794 32.8951C36.1761 34.0656 36.4756 35.2808 36.8784 36.4306C36.9851 36.737 37.0849 37.0916 37.1469 37.4152C37.5221 39.3671 38.0041 41.2881 38.4447 43.2366C38.5618 43.7564 38.6754 44.2796 38.7821 44.8029C38.8888 45.34 38.9577 45.8839 38.9852 46.4313C39.0437 47.5225 38.9336 48.6207 38.6685 49.6673C38.3828 50.7792 37.9869 51.9187 37.4326 52.9515C36.7854 54.1839 35.9833 55.3441 34.9953 56.3424C34.6373 56.7004 34.2655 57.0516 33.8592 57.3511C33.4599 57.6609 33.0743 57.9948 32.6337 58.2496L31.9899 58.6592C31.7765 58.7969 31.5424 58.8933 31.3186 59.0138C31.0914 59.1274 30.8677 59.2479 30.637 59.3581L29.9278 59.6438C28.661 60.1395 27.3115 60.4666 25.9379 60.594C24.5643 60.7213 23.177 60.6904 21.8034 60.4976C21.1045 60.3977 20.4091 60.2463 19.7137 60.0328C19.3316 59.9123 19.0321 59.7781 18.6982 59.6438C18.3711 59.5061 18.051 59.365 17.7308 59.2169C15.1799 58.0361 12.8114 56.4388 10.7837 54.511C9.25523 53.0788 7.82657 51.5848 6.29118 50.2009C4.8694 48.8996 3.45107 47.5983 2.02929 46.297L0.425055 44.8098C0.218501 44.5964 0.0807982 44.321 0.0257171 44.0283C-0.0328065 43.7426 0.0119459 43.4052 0.12555 43.1505C0.287351 42.7615 0.524887 42.3759 0.841603 42.0558C0.876029 42.0248 0.944882 41.949 0.999963 41.9146L1.14111 41.8148C1.23061 41.7563 1.31668 41.6874 1.41651 41.6392L1.70224 41.4877L2.00175 41.3672C2.40109 41.2261 2.81419 41.1366 3.22042 41.1125C4.03286 41.0505 4.81088 41.1572 5.55447 41.3294C7.03822 41.684 8.40147 42.2761 9.70965 42.9474C10.3637 43.2847 11.0006 43.6428 11.6272 44.018C11.9404 44.2074 12.2503 44.3967 12.5567 44.5929L12.7873 44.741L12.8906 44.8064L12.9009 44.8133L12.9457 44.8373C12.9732 44.8477 12.9939 44.8718 13.0145 44.8442C13.0352 44.8201 13.018 44.7823 13.0007 44.7616L12.9801 44.7341L12.9698 44.7237L12.9663 44.7203V44.7169L12.9525 44.6859L12.9284 44.6274L12.5153 43.6875C12.2434 43.0575 11.9783 42.4207 11.7201 41.7838C10.7562 39.4153 9.81981 37.0296 8.93852 34.6164C8.31197 32.8848 7.71296 31.1394 7.21035 29.3493C6.96248 28.4507 6.73527 27.5453 6.56659 26.6124C6.40479 25.676 6.26709 24.7259 6.33938 23.6862C6.36003 23.3936 6.40823 23.0872 6.4943 22.7705C6.5838 22.4572 6.71462 22.1233 6.94871 21.81C7.01068 21.7343 7.06576 21.6551 7.14494 21.5828C7.21723 21.5105 7.29641 21.4348 7.35838 21.3935C7.48919 21.2902 7.62001 21.1938 7.76116 21.1112C8.04001 20.9391 8.33951 20.8117 8.65278 20.7153C9.27589 20.5328 9.94719 20.495 10.5944 20.6465C11.2416 20.7876 11.8544 21.1146 12.3329 21.5622C12.6083 21.81 12.7288 22.0166 12.7701 22.1268C12.808 22.2404 12.7529 22.2645 12.6083 22.2094C12.4844 22.1646 12.3639 22.1302 12.2434 22.0923C12.116 22.0613 11.9852 22.0269 11.8475 21.9822C11.5617 21.9064 11.2416 21.7722 10.77 21.6723C10.4498 21.6 10.14 21.5932 9.8267 21.6104C9.51342 21.631 9.18638 21.6792 8.82147 21.7825C8.55639 21.8513 8.30509 21.9891 8.08132 22.1577C7.85067 22.3195 7.7164 22.5123 7.60624 22.7705C7.40313 23.28 7.36182 23.8825 7.28953 24.4608C7.26887 24.6261 7.29297 24.867 7.32051 25.0598C7.59247 26.7983 8.08476 28.5093 8.59426 30.2133C9.11409 31.9174 9.68211 33.6111 10.3018 35.2877C10.708 36.3824 11.1659 37.4599 11.6099 38.5443L12.4706 40.6512C12.8871 41.6736 13.2865 42.703 13.7168 43.7151C13.7994 43.9044 13.882 44.0972 13.9612 44.2831C14.0611 44.5137 14.1678 44.7754 14.2607 45.0164C14.3502 45.2573 14.3881 45.4777 14.4053 45.6498C14.4397 45.8185 14.3743 46.025 14.2091 46.149C14.1437 46.2006 14.0094 46.3039 13.8545 46.3314C13.6961 46.3693 13.5584 46.3177 13.5034 46.3073C13.2865 46.2695 12.9422 46.1352 12.5635 45.877C12.264 45.6808 11.9542 45.4811 11.6409 45.278C10.0987 44.2797 8.49442 43.3536 6.78347 42.7064C5.53038 42.2417 4.16368 41.9146 2.91058 42.1418C2.43207 42.2313 1.98109 42.4241 1.62651 42.7064C1.57143 42.7477 1.48536 42.8475 1.41995 42.9336C1.3511 43.0231 1.28914 43.1161 1.23406 43.2159C1.17898 43.3157 1.13078 43.419 1.08947 43.5257C1.06537 43.5877 1.05848 43.6084 1.0516 43.6462C1.04816 43.6806 1.04127 43.7151 1.04472 43.7495C1.0516 43.8872 1.11701 44.018 1.23061 44.1041L1.82618 44.6308L3.01731 45.6945C4.33925 46.8857 5.64743 48.1078 6.96248 49.3161C7.26543 49.595 7.58559 49.8532 7.88853 50.132C8.44967 50.6415 9.03835 51.1786 9.50654 51.719C10.0229 52.3146 10.4532 52.7552 11.0695 53.1477C11.4172 53.368 11.875 53.8052 12.2571 54.1495C12.746 54.5936 13.2211 55.0445 13.7134 55.4645C14.302 55.9706 14.8804 56.425 15.655 56.7658C16.0715 56.9448 16.5982 57.2753 17.0389 57.537C17.5208 57.8296 18.0234 58.0981 18.5364 58.3391C18.7946 58.4596 19.0528 58.5766 19.3178 58.6868C19.5864 58.7969 19.8411 58.9037 20.0959 58.9794C21.1665 59.2996 22.306 59.4786 23.4352 59.5509C24.9705 59.6473 26.5128 59.544 27.9897 59.1963C29.4665 58.852 30.8676 58.2565 32.1139 57.4337C33.0881 56.7899 34.0142 56.0498 34.7853 55.165C35.3877 54.4834 35.9213 53.7364 36.3758 52.948C36.8371 52.1528 37.202 51.33 37.4636 50.4659C37.9869 48.7378 38.0833 46.8788 37.7528 45.0887C37.6151 44.3554 37.4705 43.5946 37.2846 42.8751C36.8508 41.2089 36.4859 39.5392 36.1176 37.8627C35.6735 35.8419 35.0813 33.8728 34.4273 31.9346C34.2758 31.4836 34.0968 31.0327 33.966 30.5817C33.4978 29.0084 32.9366 27.4696 32.2791 25.9859C31.6216 24.5124 30.8849 23.0597 29.9726 21.8617C29.6042 21.3866 29.1911 20.9597 28.7711 20.7222C28.358 20.4812 27.9759 20.464 27.611 20.6292C27.2805 20.7773 26.9569 21.2248 26.7917 21.7377C26.6126 22.2541 26.5644 22.8394 26.6264 23.4143C26.6367 23.5175 26.6643 23.6553 26.6712 23.7275C26.6677 23.7207 26.6918 23.8067 26.7125 23.8618L26.7676 24.0477L26.9913 24.7879L27.4354 26.2682L28.3236 29.2288C28.3615 29.3596 28.42 29.487 28.4579 29.6178C28.7883 30.7435 28.7126 31.1635 28.241 30.7332C27.8244 30.3545 27.4251 29.6694 27.0946 28.6607L26.024 25.318L25.9861 25.3215Z" fill="black"/>
<path d="M16.1129 34.8154C16.0406 34.4609 15.9511 34.1097 15.9098 33.7483C15.8719 33.4247 15.841 33.1045 15.631 32.8429C15.5759 32.774 15.5656 32.6845 15.5311 32.6019C15.4726 32.4573 15.4141 32.3093 15.3487 32.1681C15.3177 32.1027 15.2385 32.0545 15.2316 31.9857C15.2006 31.6448 15.1077 31.335 14.8943 31.0665C14.9252 30.7808 14.7462 30.5811 14.6189 30.3539C14.488 30.1301 14.4226 29.8754 14.2402 29.6723C14.192 29.6172 14.1541 29.5483 14.1472 29.4795C14.1059 29.0526 13.9235 28.6774 13.7548 28.2952C13.5758 27.8856 13.4518 27.4552 13.4243 26.9939C13.4105 26.7495 13.3279 26.5154 13.2487 26.2848C13.1558 26.0128 13.0284 25.7512 12.9251 25.4827C12.7771 25.0902 12.6084 24.7115 12.3846 24.3466C12.0886 23.8612 11.8166 23.362 11.5687 22.8525C11.4414 22.5943 11.3897 22.3052 11.3174 22.0263C11.2796 21.8852 11.2451 21.7509 11.2107 21.6029L11.1143 21.1485C11.0765 21.0004 11.0696 20.8386 11.0455 20.6837C11.0248 20.5288 11.0007 20.3739 11.0007 20.2155C10.9869 19.9814 10.9663 19.7473 10.9732 19.5098C10.9628 19.2723 10.9869 19.0347 11.0076 18.7972C11.0283 18.5734 11.0696 18.3531 11.104 18.1293C11.1625 17.9125 11.2038 17.6818 11.3002 17.4718C11.7959 16.2049 12.9079 15.1102 14.3675 14.7694C14.7221 14.6971 15.0939 14.6386 15.4588 14.6661C15.6447 14.6696 15.8237 14.7109 15.9959 14.7556C16.6465 14.9346 17.2111 15.272 17.6999 15.6645C18.3919 16.2359 18.9462 16.9313 19.3317 17.699C19.5486 18.1362 19.707 18.5872 19.9342 19.0175C19.9996 19.138 19.9376 19.2 19.7655 19.2C19.466 19.2 19.1596 19.2206 18.9358 19.0829C18.7878 18.9865 18.6535 18.9039 18.6329 18.7352C18.6053 18.4805 18.3644 18.3152 18.4057 18.0226C18.4091 17.9813 18.3781 17.9434 18.3471 17.9125C17.8239 17.3926 17.4521 16.7971 16.8806 16.3633C16.6982 16.2222 16.4813 16.1327 16.2713 16.05C16.137 15.9846 15.9993 15.9468 15.8616 15.8951C15.6619 15.8297 15.4554 15.7609 15.2454 15.7574C15.0836 15.7574 14.9425 15.8125 14.7807 15.6541C14.7462 15.6232 14.6602 15.6438 14.6361 15.6851C14.5431 15.8469 14.4226 15.871 14.2952 15.8951C13.9579 15.9846 13.6102 16.1017 13.321 16.3186C13.1007 16.47 12.9182 16.6697 12.7702 16.8866C12.5464 17.2308 12.395 17.6061 12.2986 17.9882C12.2469 18.1431 12.2228 18.3049 12.1746 18.4598C12.154 18.6216 12.1161 18.78 12.1092 18.9383C12.1092 19.0141 12.1333 19.0898 12.1264 19.1656C12.1092 19.2998 12.154 19.4444 12.0989 19.5718C12.03 19.7129 12.0266 19.8334 12.1815 19.9539C12.2676 20.0193 12.2676 20.1364 12.2641 20.2327C12.271 20.3567 12.2435 20.4841 12.2125 20.6183C12.1712 20.7767 12.1643 20.935 12.3089 21.0624C12.3881 21.1313 12.3846 21.2517 12.3881 21.3722C12.3846 21.8817 12.5533 22.3362 12.753 22.7837C13.0249 23.3896 13.321 23.9817 13.5964 24.5841C13.7031 24.8182 13.7926 25.0627 13.8856 25.3071C14.1782 26.0576 14.3882 26.839 14.6257 27.6067C14.6705 27.7582 14.7118 27.9131 14.7944 28.0508C14.9838 28.3641 15.0939 28.7049 15.1731 29.0595C15.2695 29.4864 15.476 29.865 15.686 30.2437C15.7342 30.3332 15.8031 30.4158 15.8272 30.5122C15.9993 31.187 16.3814 31.7757 16.6087 32.4263C16.7911 32.953 16.9219 33.5004 17.07 34.0409C17.1836 34.4574 17.28 34.8843 17.3867 35.3043C17.3936 35.3318 17.4177 35.3525 17.4245 35.3835C17.4762 35.6279 17.3213 35.7759 16.9873 35.7897C16.6947 35.8 16.4847 35.714 16.4021 35.504C16.3126 35.2768 16.2437 35.0392 16.1646 34.8051L16.1129 34.8154Z" fill="black"/>
<path d="M21.9953 32.9976C21.9437 32.6947 21.8748 32.3952 21.8542 32.0819C21.837 31.803 21.8232 31.5276 21.6373 31.3108C21.5891 31.2557 21.5822 31.1765 21.5547 31.1076C21.5065 30.9837 21.4617 30.8598 21.4032 30.7393C21.3791 30.6842 21.2999 30.6463 21.2999 30.5878C21.293 30.2952 21.2207 30.0301 21.028 29.8064C21.0796 29.5585 20.9143 29.3932 20.8042 29.2005C20.694 29.0111 20.6458 28.7942 20.4771 28.6256C20.4324 28.5808 20.4014 28.5223 20.4014 28.4637C20.3911 28.0954 20.2396 27.7787 20.0985 27.4551C19.9435 27.1074 19.8816 26.7321 19.885 26.3362C19.8885 26.1262 19.8265 25.9266 19.768 25.7304C19.6957 25.4963 19.5924 25.2759 19.5098 25.0453C19.3927 24.7114 19.2585 24.3843 19.0657 24.0745C18.8109 23.6579 18.5803 23.2311 18.3772 22.7938C18.3255 22.6837 18.2911 22.5666 18.2636 22.4461C18.2429 22.3188 18.2085 22.2396 18.1878 22.0158C18.15 21.4581 18.2223 20.9211 18.3428 20.3944C18.4357 20.0019 18.539 19.6129 18.6836 19.2342C18.8247 18.8831 18.9762 18.5251 19.1999 18.198C19.5373 17.723 19.9849 17.303 20.5391 17.0069C21.1002 16.7177 21.7337 16.5766 22.3809 16.6144C22.6873 16.6317 23.0005 16.6661 23.2932 16.7556C23.4377 16.8038 23.5858 16.852 23.7132 16.9277C24.2089 17.1859 24.6254 17.5405 24.9869 17.9123C25.5102 18.4459 25.9267 19.0449 26.2434 19.6783C26.4259 20.0398 26.5602 20.4081 26.7839 20.749C26.8493 20.8454 26.7874 20.9039 26.6187 20.9211C26.3226 20.9521 26.0231 21.0037 25.8028 20.9073C25.6513 20.8419 25.5377 20.7765 25.5136 20.6319C25.4826 20.4185 25.2761 20.2808 25.3277 20.0226C25.3346 19.9847 25.3071 19.9537 25.283 19.9262C24.8148 19.4924 24.5497 18.9588 24.1194 18.5285C23.9782 18.3942 23.8095 18.2875 23.6443 18.1911C23.5376 18.1292 23.4377 18.0534 23.3241 17.9984C23.1727 17.9054 23.0143 17.8125 22.8422 17.7643C22.7079 17.7333 22.5771 17.7574 22.491 17.5646C22.4704 17.5267 22.3947 17.5267 22.3671 17.5612C22.2501 17.7023 22.1502 17.6713 22.0401 17.6713C21.7509 17.6438 21.4514 17.6851 21.1691 17.7711C20.966 17.8503 20.7732 17.9639 20.6183 18.1188C20.3704 18.3529 20.1983 18.649 20.0434 18.9313C19.916 19.1723 19.7886 19.4098 19.7026 19.6646C19.6785 19.7231 19.6922 19.7954 19.6716 19.8539C19.6337 19.9606 19.6337 20.0845 19.5545 20.1706C19.4581 20.2636 19.4306 20.36 19.5408 20.4942C19.6027 20.5665 19.5786 20.6595 19.558 20.7352C19.527 20.8316 19.4581 20.9245 19.4065 21.0209C19.3342 21.138 19.2619 21.255 19.3755 21.3858C19.434 21.4547 19.3996 21.5511 19.3755 21.6337C19.3445 21.7163 19.3273 21.8437 19.3101 21.8816C19.3067 21.9022 19.3136 21.9573 19.3204 22.0089C19.3273 22.0606 19.3377 22.1088 19.3514 22.1604C19.3996 22.3601 19.4719 22.5494 19.5545 22.7388C19.7749 23.2517 20.0193 23.7578 20.243 24.2673C20.3326 24.4669 20.398 24.6735 20.4703 24.88C20.6975 25.5169 20.8489 26.1744 21.0004 26.8354C21.0348 26.9628 21.0624 27.0971 21.1347 27.2107C21.2999 27.4723 21.3791 27.7615 21.4307 28.0644C21.4961 28.4259 21.6717 28.746 21.8507 29.0662C21.892 29.1385 21.954 29.2073 21.9712 29.29C22.0951 29.8614 22.4291 30.3537 22.6115 30.9011C22.7596 31.3452 22.8525 31.8099 22.9661 32.2678C23.0522 32.6224 23.121 32.9838 23.2037 33.3419C23.2105 33.366 23.2312 33.3832 23.2346 33.4073C23.2725 33.6138 23.1107 33.755 22.7871 33.786C22.5014 33.8135 22.2983 33.7481 22.2329 33.5725C22.1571 33.3797 22.102 33.1766 22.0366 32.9804L21.9953 32.9976Z" fill="black"/>
<path d="M25.9861 25.3215L25.6281 24.0959C25.5764 23.9238 25.5799 23.8308 25.5558 23.7138C25.5351 23.6002 25.5317 23.4831 25.5213 23.3695C25.5041 23.1389 25.5041 22.9082 25.5179 22.6776C25.5454 22.2163 25.6384 21.7618 25.8002 21.3281C25.962 20.8978 26.1995 20.4846 26.5369 20.1507C27.1359 19.5207 28.0998 19.3693 28.8469 19.6653C29.6008 19.9614 30.1688 20.5156 30.7059 21.0837C30.9847 21.3832 31.2188 21.7515 31.446 22.1027C31.8557 22.7464 32.2206 23.4143 32.558 24.0925C32.7129 24.4023 32.9194 24.7052 33.0296 25.0047C33.5804 26.4816 34.0968 27.9481 34.6992 29.4043C34.9643 30.6058 35.4118 31.7246 35.794 32.8951C36.1761 34.0656 36.4756 35.2808 36.8784 36.4306C36.9851 36.737 37.0849 37.0916 37.1469 37.4152C37.5221 39.3671 38.0041 41.2881 38.4447 43.2366C38.5618 43.7564 38.6754 44.2796 38.7821 44.8029C38.8888 45.34 38.9577 45.8839 38.9852 46.4313C39.0437 47.5225 38.9336 48.6207 38.6685 49.6673C38.3828 50.7792 37.9869 51.9187 37.4326 52.9515C36.7854 54.1839 35.9833 55.3441 34.9953 56.3424C34.6373 56.7004 34.2655 57.0516 33.8592 57.3511C33.4599 57.6609 33.0743 57.9948 32.6337 58.2496L31.9899 58.6592C31.7765 58.7969 31.5424 58.8933 31.3186 59.0138C31.0914 59.1274 30.8677 59.2479 30.637 59.3581L29.9278 59.6438C28.661 60.1395 27.3115 60.4666 25.9379 60.594C24.5643 60.7213 23.177 60.6904 21.8034 60.4976C21.1045 60.3977 20.4091 60.2463 19.7137 60.0328C19.3316 59.9123 19.0321 59.7781 18.6982 59.6438C18.3711 59.5061 18.051 59.365 17.7308 59.2169C15.1799 58.0361 12.8114 56.4388 10.7837 54.511C9.25523 53.0788 7.82657 51.5848 6.29118 50.2009C4.8694 48.8996 3.45107 47.5983 2.02929 46.297L0.425055 44.8098C0.218501 44.5964 0.0807982 44.321 0.0257171 44.0283C-0.0328065 43.7426 0.0119459 43.4052 0.12555 43.1505C0.287351 42.7615 0.524887 42.3759 0.841603 42.0558C0.876029 42.0248 0.944882 41.949 0.999963 41.9146L1.14111 41.8148C1.23061 41.7563 1.31668 41.6874 1.41651 41.6392L1.70224 41.4877L2.00175 41.3672C2.40109 41.2261 2.81419 41.1366 3.22042 41.1125C4.03286 41.0505 4.81088 41.1572 5.55447 41.3294C7.03822 41.684 8.40147 42.2761 9.70965 42.9474C10.3637 43.2847 11.0006 43.6428 11.6272 44.018C11.9404 44.2074 12.2503 44.3967 12.5567 44.5929L12.7873 44.741L12.8906 44.8064L12.9009 44.8133L12.9457 44.8373C12.9732 44.8477 12.9939 44.8718 13.0145 44.8442C13.0352 44.8201 13.018 44.7823 13.0007 44.7616L12.9801 44.7341L12.9698 44.7237L12.9663 44.7203V44.7169L12.9525 44.6859L12.9284 44.6274L12.5153 43.6875C12.2434 43.0575 11.9783 42.4207 11.7201 41.7838C10.7562 39.4153 9.81981 37.0296 8.93852 34.6164C8.31197 32.8848 7.71296 31.1394 7.21035 29.3493C6.96248 28.4507 6.73527 27.5453 6.56659 26.6124C6.40479 25.676 6.26709 24.7259 6.33938 23.6862C6.36003 23.3936 6.40823 23.0872 6.4943 22.7705C6.5838 22.4572 6.71462 22.1233 6.94871 21.81C7.01068 21.7343 7.06576 21.6551 7.14494 21.5828C7.21723 21.5105 7.29641 21.4348 7.35838 21.3935C7.48919 21.2902 7.62001 21.1938 7.76116 21.1112C8.04001 20.9391 8.33951 20.8117 8.65278 20.7153C9.27589 20.5328 9.94719 20.495 10.5944 20.6465C11.2416 20.7876 11.8544 21.1146 12.3329 21.5622C12.6083 21.81 12.7288 22.0166 12.7701 22.1268C12.808 22.2404 12.7529 22.2645 12.6083 22.2094C12.4844 22.1646 12.3639 22.1302 12.2434 22.0923C12.116 22.0613 11.9852 22.0269 11.8475 21.9822C11.5617 21.9064 11.2416 21.7722 10.77 21.6723C10.4498 21.6 10.14 21.5932 9.8267 21.6104C9.51342 21.631 9.18638 21.6792 8.82147 21.7825C8.55639 21.8513 8.30509 21.9891 8.08132 22.1577C7.85067 22.3195 7.7164 22.5123 7.60624 22.7705C7.40313 23.28 7.36182 23.8825 7.28953 24.4608C7.26887 24.6261 7.29297 24.867 7.32051 25.0598C7.59247 26.7983 8.08476 28.5093 8.59426 30.2133C9.11409 31.9174 9.68211 33.6111 10.3018 35.2877C10.708 36.3824 11.1659 37.4599 11.6099 38.5443L12.4706 40.6512C12.8871 41.6736 13.2865 42.703 13.7168 43.7151C13.7994 43.9044 13.882 44.0972 13.9612 44.2831C14.0611 44.5137 14.1678 44.7754 14.2607 45.0164C14.3502 45.2573 14.3881 45.4777 14.4053 45.6498C14.4397 45.8185 14.3743 46.025 14.2091 46.149C14.1437 46.2006 14.0094 46.3039 13.8545 46.3314C13.6961 46.3693 13.5584 46.3177 13.5034 46.3073C13.2865 46.2695 12.9422 46.1352 12.5635 45.877C12.264 45.6808 11.9542 45.4811 11.6409 45.278C10.0987 44.2797 8.49442 43.3536 6.78347 42.7064C5.53038 42.2417 4.16368 41.9146 2.91058 42.1418C2.43207 42.2313 1.98109 42.4241 1.62651 42.7064C1.57143 42.7477 1.48536 42.8475 1.41995 42.9336C1.3511 43.0231 1.28914 43.1161 1.23406 43.2159C1.17898 43.3157 1.13078 43.419 1.08947 43.5257C1.06537 43.5877 1.05848 43.6084 1.0516 43.6462C1.04816 43.6806 1.04127 43.7151 1.04472 43.7495C1.0516 43.8872 1.11701 44.018 1.23061 44.1041L1.82618 44.6308L3.01731 45.6945C4.33925 46.8857 5.64743 48.1078 6.96248 49.3161C7.26543 49.595 7.58559 49.8532 7.88853 50.132C8.44967 50.6415 9.03835 51.1786 9.50654 51.719C10.0229 52.3146 10.4532 52.7552 11.0695 53.1477C11.4172 53.368 11.875 53.8052 12.2571 54.1495C12.746 54.5936 13.2211 55.0445 13.7134 55.4645C14.302 55.9706 14.8804 56.425 15.655 56.7658C16.0715 56.9448 16.5982 57.2753 17.0389 57.537C17.5208 57.8296 18.0234 58.0981 18.5364 58.3391C18.7946 58.4596 19.0528 58.5766 19.3178 58.6868C19.5864 58.7969 19.8411 58.9037 20.0959 58.9794C21.1665 59.2996 22.306 59.4786 23.4352 59.5509C24.9705 59.6473 26.5128 59.544 27.9897 59.1963C29.4665 58.852 30.8676 58.2565 32.1139 57.4337C33.0881 56.7899 34.0142 56.0498 34.7853 55.165C35.3877 54.4834 35.9213 53.7364 36.3758 52.948C36.8371 52.1528 37.202 51.33 37.4636 50.4659C37.9869 48.7378 38.0833 46.8788 37.7528 45.0887C37.6151 44.3554 37.4705 43.5946 37.2846 42.8751C36.8508 41.2089 36.4859 39.5392 36.1176 37.8627C35.6735 35.8419 35.0813 33.8728 34.4273 31.9346C34.2758 31.4836 34.0968 31.0327 33.966 30.5817C33.4978 29.0084 32.9366 27.4696 32.2791 25.9859C31.6216 24.5124 30.8849 23.0597 29.9726 21.8617C29.6042 21.3866 29.1911 20.9597 28.7711 20.7222C28.358 20.4812 27.9759 20.464 27.611 20.6292C27.2805 20.7773 26.9569 21.2248 26.7917 21.7377C26.6126 22.2541 26.5644 22.8394 26.6264 23.4143C26.6367 23.5175 26.6643 23.6553 26.6712 23.7275C26.6677 23.7207 26.6918 23.8067 26.7125 23.8618L26.7676 24.0477L26.9913 24.7879L27.4354 26.2682L28.3236 29.2288C28.3615 29.3596 28.42 29.487 28.4579 29.6178C28.7883 30.7435 28.7126 31.1635 28.241 30.7332C27.8244 30.3545 27.4251 29.6694 27.0946 28.6607L26.024 25.318L25.9861 25.3215Z" fill="black"/>
<path d="M39.1872 1.16109C39.0667 1.21617 38.9669 1.28158 38.8223 1.31945C38.695 1.35387 38.5676 1.38485 38.5917 1.51911C38.5986 1.55354 38.5641 1.56387 38.5504 1.58796C38.5228 1.62928 38.4953 1.67059 38.4746 1.71534C38.4643 1.736 38.5022 1.78763 38.4746 1.79452C38.3369 1.8255 38.2577 1.8978 38.2887 2.03894C38.1338 2.03206 38.1717 2.1491 38.1579 2.23861C38.1476 2.32812 38.0787 2.37975 38.1166 2.50369C38.1269 2.53467 38.1235 2.56221 38.0959 2.5691C37.9307 2.61729 37.8928 2.74467 37.8446 2.8686C37.793 3.00286 37.6863 3.09925 37.5073 3.144C37.4109 3.1681 37.373 3.23695 37.3317 3.29892C37.2835 3.37466 37.2628 3.47105 37.2215 3.55023C37.1596 3.66727 37.1183 3.79809 37.1251 3.95645C37.132 4.16989 37.1148 4.36956 37.0769 4.55546C37.0563 4.6484 36.9702 4.70349 36.9048 4.76545C36.7706 4.89283 36.6156 5.00643 36.4917 5.14069C36.3988 5.24053 36.3334 5.36101 36.2748 5.48495C36.2197 5.59855 36.1957 5.73625 36.144 5.8533C35.9925 6.201 35.8307 6.54526 35.6758 6.89296C35.638 6.97558 35.6173 7.07197 35.5829 7.15803C35.5657 7.19934 35.5416 7.23721 35.514 7.27508C35.4073 7.4059 35.2937 7.52983 35.1939 7.66409C35.0527 7.85687 34.9253 8.05998 34.7842 8.25277C34.7016 8.36293 34.6086 8.46276 34.6121 8.62457C34.6121 8.66932 34.5432 8.63834 34.4124 8.53506C34.1886 8.35605 33.9511 8.17359 33.8444 8.02556C33.7721 7.92572 33.7204 7.83966 33.7859 7.81901C33.8822 7.78802 33.8168 7.64344 34.0027 7.67442C34.0303 7.67786 34.0303 7.66065 34.0303 7.64344C33.9993 7.34049 34.2162 7.20279 34.3642 7.02033C34.4124 6.96181 34.4296 6.87919 34.464 6.81033C34.4881 6.76558 34.5157 6.72427 34.5432 6.6864C34.588 6.62788 34.6534 6.58657 34.6809 6.51772C34.7016 6.46608 34.6878 6.39378 34.8565 6.44542C34.8909 6.45575 34.9012 6.42821 34.8737 6.39723C34.7635 6.27674 34.8049 6.2492 34.8324 6.21477C34.9116 6.12182 35.0011 6.03576 35.0665 5.93248C35.1147 5.85674 35.1457 5.76724 35.1629 5.67429C35.1904 5.52626 35.1939 5.36102 35.2248 5.21643C35.2524 5.09594 35.3109 4.99266 35.3488 4.87906C35.3591 4.85152 35.3453 4.81365 35.3557 4.78611C35.3763 4.74135 35.3729 4.67594 35.4452 4.66906C35.5244 4.65873 35.5588 4.63463 35.4693 4.51759C35.4176 4.45218 35.4486 4.4212 35.4796 4.40054C35.5175 4.373 35.5863 4.36611 35.6552 4.35923C35.7378 4.35234 35.8204 4.3489 35.7619 4.24218C35.7309 4.1871 35.7825 4.16989 35.8342 4.163C36.058 4.13202 36.1302 3.99432 36.1784 3.84284C36.2404 3.63629 36.2817 3.41252 36.3402 3.20253C36.3643 3.11991 36.4056 3.05105 36.4401 2.97532C36.5537 2.74467 36.7292 2.55877 36.9083 2.37631C36.9427 2.34189 36.984 2.30746 36.9874 2.24894C36.9909 2.11468 37.0701 2.03206 37.1733 1.96665C37.2973 1.88747 37.3248 1.74288 37.3489 1.59485C37.3558 1.56042 37.3455 1.51567 37.3696 1.49502C37.5589 1.36076 37.5589 1.09912 37.7069 0.93732C37.824 0.806503 37.9892 0.706668 38.1441 0.599949C38.2646 0.517327 38.3989 0.445033 38.5263 0.369297C38.5332 0.365854 38.5297 0.348642 38.5366 0.345199C38.6158 0.307331 38.7982 0.40028 39.0358 0.603391C39.2458 0.782405 39.3525 0.913222 39.3077 0.968303C39.2595 1.03027 39.1976 1.07847 39.1425 1.13355C39.1631 1.14387 39.1735 1.1542 39.1872 1.16109Z" fill="black"/>
<path d="M22.8693 9.15803C22.9244 9.03409 22.9622 8.9136 23.0449 8.78623C23.1206 8.67607 23.1998 8.56591 23.0896 8.46951C23.0621 8.44542 23.0827 8.41443 23.0758 8.38689C23.069 8.33525 23.0655 8.28362 23.0518 8.23542C23.0449 8.21132 22.9863 8.19411 23.0036 8.17001C23.0862 8.05296 23.1034 7.9428 22.9863 7.84985C23.1068 7.75346 23.0036 7.68117 22.9554 7.60199C22.9072 7.52281 22.9244 7.4333 22.8142 7.36101C22.7867 7.34035 22.7729 7.31626 22.7867 7.29216C22.8831 7.14413 22.828 7.01331 22.7867 6.88249C22.7419 6.74135 22.7591 6.58987 22.8659 6.43496C22.9209 6.35234 22.9106 6.26972 22.9003 6.19054C22.89 6.09759 22.8418 6.00808 22.8211 5.91169C22.7901 5.77743 22.7385 5.64661 22.6318 5.51924C22.4872 5.35055 22.3701 5.17842 22.2841 5.00285C22.2393 4.91334 22.2703 4.81351 22.2806 4.71712C22.3013 4.52433 22.346 4.33155 22.3529 4.13877C22.3564 3.99418 22.3288 3.85648 22.2944 3.71533C22.2634 3.58451 22.1946 3.46058 22.1567 3.32976C22.05 2.94764 21.9501 2.56207 21.8434 2.17651C21.8193 2.08356 21.7711 1.99405 21.7436 1.9011C21.7298 1.85635 21.7229 1.80815 21.7229 1.75996C21.7195 1.58438 21.7298 1.40881 21.716 1.23324C21.6988 0.981936 21.6644 0.734071 21.6506 0.482764C21.6437 0.341619 21.6506 0.197031 21.5439 0.0662137C21.5129 0.0283455 21.5887 0.00769037 21.7539 0.0042478C22.0431 0.000805238 22.3391 -0.0129652 22.5182 0.0386732C22.6386 0.0730989 22.7316 0.104082 22.6937 0.166048C22.6421 0.255555 22.7832 0.327849 22.618 0.427683C22.5939 0.441453 22.6042 0.458666 22.618 0.468994C22.8383 0.69276 22.7591 0.94751 22.7626 1.19538C22.7626 1.27455 22.8039 1.35373 22.8211 1.43291C22.8314 1.48455 22.8383 1.53619 22.8418 1.58783C22.8452 1.66356 22.8245 1.74274 22.8452 1.81504C22.8624 1.87012 22.9209 1.91831 22.7591 1.99061C22.7247 2.00438 22.7385 2.03536 22.7798 2.0388C22.9416 2.0629 22.9278 2.1111 22.9278 2.15929C22.9278 2.28667 22.9175 2.41749 22.9313 2.54142C22.9416 2.63437 22.976 2.72732 23.0242 2.81682C23.0965 2.95452 23.2032 3.08879 23.2721 3.22993C23.3306 3.34698 23.3513 3.46747 23.3926 3.58451C23.4029 3.61206 23.4373 3.63615 23.4442 3.66369C23.458 3.71533 23.4993 3.76353 23.4511 3.81861C23.396 3.88057 23.3891 3.92189 23.5303 3.95631C23.6094 3.97697 23.606 4.02172 23.5991 4.05959C23.5853 4.10778 23.5372 4.15942 23.4924 4.21106C23.4339 4.27303 23.3754 4.33155 23.4855 4.3763C23.544 4.4004 23.5165 4.4486 23.4821 4.48991C23.334 4.66548 23.365 4.82384 23.427 4.97531C23.5131 5.18531 23.6232 5.39186 23.7162 5.59841C23.7506 5.68104 23.7644 5.76366 23.785 5.84972C23.847 6.11136 23.8332 6.37643 23.8126 6.64495C23.8091 6.69659 23.7988 6.75167 23.8367 6.79987C23.9193 6.91003 23.9158 7.03052 23.878 7.15101C23.8332 7.29904 23.909 7.4333 23.9847 7.56756C24.0019 7.59855 24.0398 7.62953 24.0329 7.66051C23.9778 7.89461 24.143 8.1046 24.1362 8.33525C24.1327 8.52115 24.0673 8.71049 24.0191 8.89983C23.9812 9.04786 23.9227 9.19589 23.8745 9.34048C23.8711 9.35081 23.8849 9.3577 23.8814 9.36802C23.847 9.45409 23.6439 9.49884 23.334 9.4954C23.0552 9.49195 22.8934 9.45409 22.89 9.38179C22.8865 9.30261 22.9037 9.21999 22.9106 9.13737C22.8968 9.15458 22.8831 9.15803 22.8693 9.15803Z" fill="black"/>
<path d="M8.97583 6.15952C9.03435 6.27656 9.1032 6.37984 9.14795 6.52098C9.18582 6.64836 9.22025 6.77573 9.35795 6.74819C9.39238 6.74131 9.40615 6.77573 9.43024 6.7895C9.475 6.8136 9.51286 6.84114 9.56106 6.8618C9.58172 6.86868 9.63336 6.83426 9.64024 6.8618C9.67467 6.9995 9.7504 7.07524 9.89155 7.04081C9.8881 7.19573 10.0086 7.15786 10.0981 7.16474C10.1876 7.17507 10.2427 7.24048 10.3632 7.19917C10.3942 7.18884 10.4217 7.19228 10.4286 7.21982C10.4802 7.38163 10.611 7.41949 10.7384 7.46425C10.8727 7.51244 10.976 7.61916 11.0276 7.79473C11.0551 7.89113 11.124 7.92899 11.1894 7.96686C11.2686 8.01506 11.365 8.03227 11.4476 8.07014C11.5681 8.12866 11.6989 8.16653 11.8607 8.1562C12.0741 8.14587 12.2772 8.1562 12.4631 8.19063C12.5595 8.20784 12.6146 8.29391 12.68 8.35931C12.8108 8.49013 12.9313 8.6416 13.069 8.76209C13.1723 8.8516 13.2962 8.91357 13.4236 8.97209C13.5407 9.02373 13.6784 9.04438 13.7989 9.09602C14.1534 9.24061 14.5046 9.39553 14.8592 9.54011C14.9452 9.57454 15.0416 9.59519 15.1277 9.62618C15.1724 9.64339 15.2103 9.66749 15.2482 9.69503C15.3824 9.79831 15.5098 9.91191 15.651 10.0083C15.8506 10.146 16.0572 10.2665 16.2568 10.4076C16.3705 10.4868 16.4737 10.5763 16.639 10.5729C16.6837 10.5729 16.6562 10.6417 16.5529 10.776C16.3808 11.0066 16.2052 11.2476 16.0572 11.3578C15.9573 11.4335 15.8747 11.4852 15.8506 11.4198C15.8162 11.3234 15.6716 11.3922 15.6992 11.2029C15.7026 11.1753 15.6854 11.1753 15.6682 11.1753C15.3652 11.2166 15.2206 10.9998 15.0313 10.8552C14.9693 10.807 14.8867 10.7932 14.8179 10.7588C14.7731 10.7381 14.7284 10.7106 14.6905 10.6796C14.632 10.6348 14.5838 10.5729 14.5149 10.5453C14.4633 10.5247 14.3875 10.5419 14.4357 10.3732C14.4461 10.3388 14.4151 10.3285 14.3875 10.3594C14.2705 10.473 14.2429 10.4317 14.2051 10.4042C14.1087 10.3285 14.0192 10.2424 13.9125 10.177C13.8333 10.1288 13.7438 10.1013 13.6474 10.0875C13.4959 10.0634 13.3307 10.0634 13.1826 10.0358C13.0587 10.0117 12.9554 9.95666 12.8384 9.91879C12.8108 9.90847 12.773 9.92224 12.7454 9.91191C12.7007 9.89126 12.6353 9.8947 12.6249 9.82585C12.6146 9.74667 12.5871 9.71568 12.47 9.80519C12.4046 9.85683 12.3736 9.82585 12.3495 9.79831C12.322 9.76044 12.3117 9.69159 12.3013 9.62274C12.291 9.54011 12.2841 9.45749 12.1809 9.51602C12.1258 9.547 12.1086 9.49536 12.0982 9.44716C12.0569 9.2234 11.9192 9.15455 11.7643 9.11323C11.5543 9.05471 11.3305 9.02029 11.1171 8.96521C11.0345 8.94455 10.9622 8.90324 10.8864 8.86881C10.6524 8.76209 10.4596 8.58997 10.2668 8.41439C10.2289 8.37997 10.1945 8.33866 10.136 8.33866C10.0017 8.33866 9.91564 8.26292 9.84335 8.15965C9.75729 8.03571 9.6127 8.01506 9.46467 7.9944C9.43024 7.99096 9.38549 8.00129 9.36483 7.97375C9.22369 7.78785 8.96206 7.79129 8.79337 7.65015C8.65567 7.53654 8.55239 7.3713 8.43879 7.21982C8.35272 7.10278 8.27698 6.96852 8.19436 6.84114C8.18748 6.83426 8.17371 6.8377 8.17026 6.83082C8.12895 6.75164 8.21502 6.56574 8.41469 6.32132C8.59026 6.10443 8.71763 5.99771 8.77271 6.03903C8.83468 6.08378 8.88632 6.14574 8.94484 6.20083C8.96205 6.18361 8.96894 6.16984 8.97583 6.15952Z" fill="black"/>
</svg>
