<svg width="155" height="137" viewBox="0 0 155 137" fill="none" xmlns="http://www.w3.org/2000/svg">
<path d="M97.5045 77.5264C97.447 84.0843 97.1479 91.068 96.5151 98.4255C95.5947 109.2 94.099 119.112 92.3387 128.063C97.2341 129.858 102.866 131.606 109.159 133.056C115.044 134.408 120.515 135.271 125.428 135.806C128.091 127.585 130.979 119.146 134.114 110.523C137.105 102.291 140.154 94.3354 143.238 86.6672C127.993 83.6184 112.749 80.5695 97.5045 77.5264Z" fill="#F5E3B4"/>
<path d="M98.1372 85.5511C97.9358 87.7773 97.746 90.0209 97.4411 92.2126C97.1707 94.1685 96.8831 96.0841 96.8774 98.0975C96.8774 98.621 96.7853 99.1732 96.7393 99.714C96.653 100.698 96.561 101.676 96.4747 102.659C96.4344 103.108 96.4804 103.585 96.4056 103.994C96.026 106.013 95.7499 108.032 95.6636 110.092C95.2379 111.651 95.1861 113.233 95.0193 114.832C94.8582 116.431 94.5533 118.042 94.467 119.641C94.444 120.067 94.3807 120.544 94.2772 120.964C93.9723 122.23 93.7134 123.501 93.4776 124.784L93.1324 126.705L93.0116 127.401L92.9656 127.695C93.0346 127.741 93.1497 127.764 93.2417 127.798L94.9387 128.379L96.9061 129.069C98.2119 129.535 99.5178 130.013 100.818 130.502C102.198 131.025 103.694 131.434 105.161 131.819C106.904 132.274 108.676 132.636 110.436 133.01C112.996 133.551 115.562 133.976 118.145 134.241C119.87 134.419 121.602 134.575 123.339 134.707L123.989 134.759L124.317 134.782C124.386 134.787 124.403 134.787 124.421 134.787H124.478C124.622 134.764 124.823 134.857 124.812 134.638L124.852 134.437L125.025 133.856L125.41 132.596C125.934 130.887 126.589 129.184 127.211 127.493C128.448 124.099 129.725 120.728 130.938 117.328C131.859 114.78 132.693 112.191 133.585 109.631C134.442 107.25 135.293 104.868 136.145 102.487L139.124 94.3411L140.614 90.274L141.362 88.2375L141.529 87.7889L141.546 87.7198L141.586 87.576L141.391 87.553L141.345 87.5473L141.086 87.5012L140.447 87.3804L137.893 86.9087L132.572 85.9653C131.686 85.8042 130.8 85.6316 129.92 85.4475L120.106 83.3996L106.03 80.5636C103.366 80.0229 100.72 79.4533 98.0394 79.0737C97.2858 78.9701 97.0729 78.7918 97.4066 78.579C97.9818 78.205 98.4593 77.7909 99.7882 77.7679C100.691 77.7506 101.525 77.7679 102.584 78.0497C104.12 78.4639 105.8 78.5675 107.278 79.16C107.485 79.2405 107.802 79.2923 108.06 79.3268C112.703 79.9193 117.276 81.0123 121.867 81.9672C123.368 82.2779 124.881 82.531 126.388 82.8129L129.316 83.3939C130.731 83.6873 132.141 84.0152 133.562 84.274C134.632 84.4696 135.684 84.5847 136.593 85.0564C136.783 85.1542 137.347 85.252 137.56 85.2232C138.365 85.1196 139.245 85.321 140.125 85.5051L143.888 86.2932L142.231 90.5501C141.592 92.2298 140.988 93.9269 140.407 95.6181C139.521 98.2528 138.635 100.876 137.749 103.516C136.99 105.714 136.168 107.9 135.385 110.092C135.195 110.598 135.069 111.116 134.908 111.628C134.597 112.565 134.321 113.572 133.93 114.418C133.498 115.361 133.216 116.115 133.124 117.093C133.073 117.639 132.785 118.439 132.538 119.089C132.221 119.917 131.853 120.722 131.485 121.516C131.048 122.465 130.622 123.351 130.426 124.473C130.317 125.071 129.995 125.842 129.713 126.469C129.092 127.85 128.54 129.265 128.028 130.697C127.769 131.411 127.527 132.136 127.286 132.86L126.572 135.081L126.181 136.277L126.083 136.577L126.037 136.726C126.008 136.755 125.939 136.726 125.893 136.726L125.278 136.669L123.31 136.484C122.275 136.387 121.234 136.277 120.198 136.162C118.127 135.926 116.056 135.645 113.997 135.305C112.381 135.041 110.77 134.713 109.165 134.362C104.172 133.28 99.2704 131.808 94.4728 130.07C93.9838 129.892 93.4948 129.714 93.0059 129.535C92.5802 129.38 92.1545 129.23 91.7288 129.081L91.0845 128.857L91.004 128.828C90.9924 128.811 91.0097 128.776 91.0097 128.753L91.0385 128.592L91.0903 128.264C91.2226 127.459 91.3606 126.653 91.4929 125.848L91.7863 124.191C91.9934 123.087 92.212 121.988 92.4421 120.889C92.9943 118.237 93.3108 115.557 93.5811 112.882C93.6444 112.26 93.6789 111.622 93.7767 111.012C94.4843 106.744 94.7086 102.429 95.1286 98.1435C95.468 94.6747 95.8304 91.2059 96.1065 87.7313C96.3193 85.0449 96.5264 82.3699 96.6818 79.6777C96.6933 79.4994 96.6702 79.3153 96.6818 79.1427C96.7795 77.6125 97.119 77.1293 97.6309 77.8599C98.0854 78.5099 98.3385 79.5339 98.2983 80.926C98.258 82.462 98.1659 83.9979 98.0854 85.5339L98.1372 85.5511Z" fill="#EBC464"/>
<path d="M97.6539 99.6515C98.2982 99.2833 98.9253 98.8864 99.5983 98.5815C100.202 98.3054 100.795 98.058 101.244 97.5575C101.359 97.4252 101.531 97.3562 101.681 97.2527C101.945 97.0628 102.227 96.9018 102.486 96.7119C102.607 96.6256 102.687 96.4588 102.82 96.4185C103.153 96.3207 103.47 96.1942 103.769 96.0331C104.074 95.8893 104.356 95.6994 104.626 95.4751C104.919 95.4693 105.161 95.3773 105.397 95.2507C105.633 95.1242 105.874 94.9976 106.116 94.8768C106.363 94.756 106.639 94.6985 106.904 94.6122C107.18 94.5432 107.462 94.4857 107.738 94.3649C107.894 94.3246 108.083 94.3131 108.244 94.3476C108.733 94.4626 109.211 94.6295 109.66 94.8768C110.103 95.1242 110.488 95.4924 110.776 95.9008C111.08 96.3437 111.247 96.8442 111.328 97.3275C111.408 97.8164 111.408 98.2996 111.339 98.7656C111.27 99.2661 111.293 99.7723 111.293 100.267C111.299 100.86 111.345 101.452 111.345 102.039C111.345 102.89 111.385 103.736 111.558 104.558C111.679 105.105 111.805 105.64 111.972 106.117C112.139 106.595 112.352 107.021 112.588 107.262C112.824 107.486 112.967 107.659 113.301 107.757C113.629 107.843 114.106 107.814 114.595 107.694C115.09 107.579 115.602 107.383 116.097 107.136C116.845 106.767 117.558 106.278 118.254 105.761C118.904 105.278 119.502 104.725 120.141 104.213C121.09 103.448 122.045 102.677 123.063 101.935C124.104 101.21 125.117 100.445 126.63 99.9736C126.814 99.9219 127.004 99.8701 127.222 99.8413L127.544 99.7953H127.907C128.384 99.7895 128.954 99.9506 129.437 100.255C129.656 100.422 129.886 100.612 130.053 100.819C130.196 101.021 130.369 101.256 130.455 101.458C130.823 102.257 130.864 102.913 130.921 103.511C130.973 104.116 130.979 104.662 131.019 105.168C131.071 105.893 131.174 106.56 131.376 107.026C131.583 107.487 131.813 107.734 132.227 107.889C132.67 108.073 133.378 108.079 134.039 107.751C134.223 107.659 134.327 107.763 134.321 108.05C134.315 108.545 134.327 109.068 133.953 109.431C133.7 109.672 133.418 109.862 133.021 109.793C132.739 109.742 132.446 109.753 132.146 109.701C131.853 109.649 131.554 109.54 131.364 109.281C131.307 109.212 131.209 109.166 131.117 109.137C130.927 109.051 130.731 108.942 130.547 108.827C130.386 108.683 130.214 108.533 130.081 108.361C129.817 108.01 129.627 107.613 129.518 107.21C129.287 106.405 129.282 105.605 129.241 104.846C129.218 104.346 129.132 103.862 129.057 103.391L128.971 102.948C128.931 102.81 128.902 102.666 128.862 102.534C128.747 102.148 128.557 101.837 128.252 101.699C128.143 101.63 128.005 101.653 127.89 101.602C127.757 101.596 127.642 101.51 127.481 101.4C127.418 101.348 127.245 101.377 127.199 101.458C127.113 101.613 127.009 101.699 126.894 101.751C126.779 101.814 126.653 101.849 126.526 101.889C125.842 102.131 125.146 102.482 124.496 102.896C124.012 103.207 123.558 103.563 123.126 103.949C122.453 104.547 121.821 105.197 121.142 105.807C120.572 106.313 119.962 106.779 119.353 107.256C119.209 107.366 119.1 107.515 118.95 107.619C118.68 107.814 118.421 108.062 118.104 108.148C117.759 108.252 117.506 108.367 117.339 108.735C117.242 108.936 116.965 109.068 116.741 109.166C116.436 109.281 116.12 109.339 115.786 109.373C115.591 109.396 115.401 109.414 115.211 109.454C115.021 109.494 114.848 109.575 114.647 109.701C114.446 109.857 114.078 109.845 113.79 109.811C113.14 109.707 112.461 109.511 111.886 109.12C111.311 108.723 110.902 108.16 110.649 107.613C110.292 106.859 110.143 106.123 110.016 105.404C109.901 104.685 109.832 103.983 109.786 103.293C109.752 102.752 109.763 102.217 109.757 101.694C109.752 100.877 109.769 100.083 109.752 99.3293C109.74 98.57 109.677 97.8452 109.51 97.2584C109.435 97.0398 109.36 96.8155 109.205 96.7119C109.033 96.5739 108.906 96.4876 108.745 96.4185C108.601 96.3322 108.417 96.2632 108.193 96.1942C107.612 96.0504 106.864 96.3092 106.191 96.6946C106.03 96.7694 105.886 96.9133 105.713 96.9593C104.488 97.3562 103.453 98.2708 102.314 98.9899C101.387 99.5767 100.421 100.129 99.4718 100.739C98.7412 101.205 97.9991 101.659 97.2685 102.148C97.2225 102.183 97.188 102.234 97.142 102.263C96.7163 102.528 96.3711 102.372 96.2158 101.826C96.072 101.343 96.1525 100.923 96.5034 100.635C96.8946 100.319 97.3088 100.031 97.7115 99.732L97.6539 99.6515Z" fill="#EBC464"/>
<path d="M103.119 116.753C103.321 116.903 103.528 117.012 103.7 117.219C103.856 117.403 104.005 117.587 104.23 117.472C104.287 117.444 104.333 117.49 104.385 117.501C104.477 117.518 104.569 117.541 104.667 117.547C104.713 117.547 104.776 117.467 104.811 117.507C104.96 117.714 105.139 117.806 105.374 117.691C105.466 117.944 105.651 117.829 105.823 117.806C105.99 117.783 106.134 117.864 106.324 117.749C106.375 117.72 106.427 117.714 106.456 117.754C106.64 118.007 106.899 118.013 107.152 118.048C107.428 118.076 107.664 118.214 107.848 118.502C107.946 118.652 108.09 118.692 108.228 118.738C108.389 118.795 108.579 118.79 108.745 118.83C108.993 118.888 109.246 118.922 109.534 118.859C109.919 118.784 110.299 118.744 110.655 118.761C110.839 118.767 110.977 118.899 111.127 118.997C111.426 119.192 111.708 119.417 112.013 119.589C112.243 119.722 112.49 119.802 112.743 119.871C112.979 119.935 113.238 119.946 113.48 120.009C114.187 120.193 114.889 120.4 115.591 120.596C115.758 120.648 115.942 120.665 116.115 120.705C116.201 120.728 116.281 120.763 116.356 120.803C116.638 120.958 116.908 121.143 117.196 121.292C117.604 121.505 118.03 121.695 118.433 121.919C118.663 122.046 118.881 122.195 119.192 122.178C119.278 122.172 119.244 122.299 119.094 122.535C118.83 122.937 118.571 123.363 118.329 123.564C118.168 123.697 118.03 123.794 117.973 123.685C117.886 123.524 117.645 123.656 117.639 123.329C117.639 123.282 117.604 123.282 117.576 123.288C117.035 123.386 116.713 123.035 116.322 122.811C116.195 122.736 116.04 122.725 115.902 122.673C115.81 122.638 115.723 122.604 115.643 122.558C115.522 122.494 115.418 122.391 115.286 122.356C115.183 122.328 115.056 122.368 115.091 122.074C115.096 122.011 115.045 122.005 114.999 122.057C114.826 122.264 114.757 122.207 114.682 122.161C114.481 122.046 114.291 121.913 114.078 121.821C113.923 121.752 113.75 121.724 113.566 121.712C113.284 121.695 112.985 121.729 112.709 121.706C112.479 121.689 112.272 121.614 112.047 121.574C111.996 121.562 111.927 121.597 111.881 121.586C111.789 121.562 111.674 121.58 111.627 121.465C111.576 121.332 111.512 121.286 111.346 121.465C111.248 121.568 111.179 121.522 111.127 121.476C111.058 121.419 111.018 121.304 110.977 121.189C110.926 121.056 110.88 120.918 110.719 121.039C110.632 121.108 110.581 121.022 110.54 120.941C110.379 120.579 110.103 120.492 109.804 120.458C109.401 120.418 108.987 120.423 108.584 120.395C108.429 120.383 108.279 120.337 108.13 120.308C107.664 120.211 107.244 119.981 106.824 119.768C106.744 119.727 106.657 119.676 106.559 119.693C106.324 119.745 106.134 119.653 105.961 119.515C105.748 119.342 105.478 119.371 105.213 119.405C105.15 119.411 105.081 119.451 105.029 119.417C104.678 119.181 104.241 119.302 103.873 119.175C103.574 119.072 103.292 118.847 103.01 118.692C102.786 118.565 102.567 118.404 102.343 118.26C102.326 118.249 102.308 118.272 102.291 118.26C102.164 118.163 102.159 117.818 102.291 117.317C102.412 116.868 102.544 116.621 102.682 116.656C102.832 116.69 102.976 116.753 103.125 116.805L103.119 116.753Z" fill="#EBC464"/>
<path d="M141.949 89.9063L142.651 86.5468C137.422 85.4998 132.193 84.4586 126.964 83.4117L115.418 83.1758L138.221 99.4959C139.458 96.2514 140.701 93.0587 141.949 89.9063Z" fill="#EBC464"/>
<path d="M104.862 70.6115C101.675 46.9626 105.195 21.6339 110.062 17.7739C113.496 15.053 120.796 14.1901 124.317 17.4403C135.051 27.3347 127.095 47.509 129.517 52.3297C130 53.2904 132.089 54.9701 134.384 54.8436C137.709 54.6595 138.56 50.4544 141.598 49.9769C144.946 49.4534 150.106 53.578 150.319 57.5243C150.589 62.5578 143.945 70.9451 134.05 79.666" fill="#F5E3B4"/>
<path d="M103.292 63.7203C103.251 61.7587 103.205 59.7798 103.297 57.8412C103.372 56.1097 103.487 54.4184 103.309 52.6524C103.269 52.1979 103.303 51.7032 103.303 51.2315L103.32 48.6371C103.326 48.2459 103.24 47.8259 103.28 47.4635C103.487 45.6687 103.625 43.8912 103.568 42.0791C103.884 40.6927 103.838 39.3064 103.913 37.8913C103.988 36.4761 104.206 35.0552 104.229 33.6516C104.235 33.2777 104.281 32.852 104.367 32.4838C104.897 30.2518 105.253 28.0025 105.777 25.7475C106.064 24.5452 106.404 23.3487 106.864 22.1867C107.324 21.0304 107.877 19.8914 108.647 18.8847C109.044 18.3497 109.539 17.8147 110.109 17.4178C110.39 17.2222 110.672 17.0208 110.977 16.8655C111.271 16.6872 111.575 16.5319 111.886 16.3938C113.347 15.7093 114.918 15.2663 116.528 15.0938C118.852 14.8521 121.274 15.0362 123.489 16.135C123.667 16.2328 123.863 16.3133 124.036 16.4341L124.547 16.7965C124.904 17.0381 125.157 17.32 125.468 17.5789C125.779 17.8377 126.043 18.1369 126.319 18.4302L126.733 18.8732C126.866 19.0285 126.987 19.1896 127.107 19.3449C128.114 20.6105 128.937 22.0314 129.552 23.5328C130.179 25.063 130.501 26.714 130.714 28.3305C131.134 31.5807 131.008 34.8079 130.749 37.9833C130.536 40.3533 130.323 42.7349 130.105 45.105C130.012 46.2037 129.943 47.2967 129.932 48.3724C129.92 49.4367 129.961 50.5239 130.202 51.3868C130.237 51.5594 130.306 51.6744 130.358 51.8125C130.381 51.893 130.415 51.9218 130.438 51.9678C130.473 52.0138 130.513 52.0714 130.559 52.1289C130.749 52.3533 131.008 52.5891 131.284 52.7904C131.842 53.1931 132.486 53.5095 133.13 53.6591C133.775 53.8259 134.425 53.8029 134.96 53.6246C135.506 53.4462 136.018 53.0608 136.524 52.5316C137.036 52.0023 137.537 51.358 138.158 50.7022C138.774 50.0579 139.556 49.3619 140.609 48.9822C140.868 48.8959 141.144 48.8327 141.414 48.7751C141.679 48.7464 141.949 48.7234 142.219 48.7061C142.478 48.7176 142.731 48.7348 142.99 48.7579C143.243 48.7866 143.479 48.8442 143.727 48.8902C144.682 49.1203 145.55 49.4942 146.35 49.9544C147.874 50.8633 149.232 52.0023 150.273 53.5037C150.543 53.8662 150.756 54.2861 150.981 54.6945C151.165 55.1317 151.366 55.5632 151.475 56.0464C151.613 56.4721 151.654 56.9496 151.705 57.4155C151.7 57.8642 151.694 58.3244 151.648 58.7559C151.567 59.1758 151.504 59.6072 151.401 60.0099L151.032 61.1835C150.463 62.6964 149.698 64.0425 148.892 65.3426C147.725 67.1892 146.407 68.8977 145.021 70.5257C143.635 72.1536 142.191 73.7241 140.684 75.2198C138.975 76.9168 137.209 78.5448 135.523 80.2418C135.052 80.725 134.804 80.771 134.81 80.3971C134.816 79.7528 134.735 79.1488 135.391 78.1766C135.834 77.5208 136.248 76.9168 136.996 76.3185C138.072 75.4384 138.958 74.2649 140.114 73.4883C140.275 73.379 140.465 73.1718 140.609 72.9935C143.169 69.8181 145.999 66.844 148.053 63.3349C148.703 62.1902 149.249 60.9706 149.554 59.728C149.623 59.5267 149.658 59.3254 149.686 59.124L149.79 58.5143C149.813 58.3129 149.807 58.1116 149.813 57.9102C149.824 57.7089 149.836 57.5076 149.796 57.312C149.675 56.173 149.186 55.0224 148.426 54.0848C147.863 53.3542 147.167 52.825 146.695 52.0829C146.597 51.9276 146.194 51.6342 146.005 51.6054C145.326 51.4386 144.682 51.0877 143.997 50.8058C143.071 50.4549 142.076 50.2996 141.19 50.5469C140.753 50.6965 140.338 50.9209 139.953 51.2315C139.573 51.5479 139.211 51.9045 138.866 52.3015C138.348 52.8767 137.842 53.5038 137.22 54.0733C136.611 54.6428 135.823 55.1317 134.937 55.3216C133.556 55.6265 132.164 55.2813 130.973 54.6715C130.375 54.3609 129.817 53.9697 129.311 53.4635C129.184 53.3312 129.058 53.1931 128.942 53.0321C128.822 52.8652 128.707 52.6639 128.638 52.497C128.459 52.1404 128.379 51.801 128.287 51.4501C128.045 50.3111 128.045 49.2411 128.062 48.1826C128.091 47.1299 128.166 46.0944 128.241 45.0705C128.275 44.5988 128.269 44.1213 128.31 43.6553C128.384 42.7924 128.419 41.8778 128.586 41.0839C128.776 40.198 128.856 39.502 128.689 38.6621C128.597 38.1904 128.655 37.4598 128.712 36.8673C128.776 36.1079 128.896 35.3543 128.994 34.6065C129.109 33.7149 129.213 32.8692 128.989 31.9201C128.873 31.4081 128.873 30.7005 128.879 30.1195C128.891 27.5481 128.292 24.9479 127.107 22.6929C126.314 21.157 125.272 19.7764 124.024 18.6258C123.869 18.482 123.713 18.3324 123.558 18.2001L123.098 17.8665C122.954 17.7457 122.764 17.6709 122.603 17.5731C122.436 17.4811 122.269 17.3833 122.08 17.32C121.372 16.9921 120.572 16.8368 119.773 16.716C118.507 16.5607 117.19 16.5894 115.901 16.8023C114.9 16.9691 113.911 17.2222 112.991 17.6019C112.536 17.7917 112.082 17.993 111.673 18.2462C111.455 18.3555 111.265 18.4935 111.075 18.6316C110.983 18.7006 110.868 18.7639 110.799 18.8329L110.592 19.0227C110.016 19.5807 109.499 20.5069 109.073 21.4331C108.647 22.3765 108.268 23.3717 107.94 24.3957C107.681 25.1953 107.434 26.0237 107.29 26.852C106.95 28.7619 106.565 30.6603 106.185 32.5759C105.725 34.8827 105.552 37.2297 105.449 39.571C105.426 40.1175 105.432 40.6698 105.374 41.2047C104.954 44.9497 105.069 48.7234 105.035 52.4798C105.006 55.5229 104.977 58.566 105.063 61.6034C105.138 63.9505 105.23 66.2975 105.397 68.6446C105.409 68.7999 105.455 68.9552 105.46 69.1105C105.552 70.4451 105.271 70.9168 104.672 70.3531C104.149 69.8526 103.758 68.9955 103.637 67.7759C103.493 66.4298 103.413 65.0837 103.326 63.7376L103.292 63.7203Z" fill="#EBC464"/>
<path d="M139.522 53.1416C139.62 53.0554 139.677 52.9748 139.821 52.8713C139.948 52.7792 140.074 52.6929 139.907 52.6814C139.861 52.6814 139.896 52.6526 139.89 52.6411C139.879 52.6181 139.879 52.5894 139.856 52.5664C139.844 52.5549 139.746 52.5721 139.775 52.5491C139.913 52.4513 139.942 52.388 139.758 52.3823C139.959 52.2845 139.792 52.2845 139.718 52.2557C139.643 52.2327 139.672 52.1752 139.499 52.1809C139.453 52.1809 139.436 52.1752 139.459 52.1522C139.62 52.0371 139.534 51.9853 139.47 51.9278C139.401 51.8703 139.436 51.7783 139.614 51.6517C139.706 51.5827 139.689 51.5424 139.677 51.5079C139.66 51.4619 139.591 51.4273 139.557 51.3871C139.511 51.3238 139.436 51.272 139.263 51.2433C139.039 51.2087 138.855 51.157 138.717 51.0937C138.648 51.0649 138.699 50.9959 138.722 50.9384C138.763 50.8233 138.843 50.7025 138.86 50.5932C138.872 50.5127 138.832 50.4494 138.78 50.3861C138.734 50.3286 138.625 50.2826 138.573 50.2308C138.412 50.064 138.262 49.8914 138.107 49.7246C138.067 49.6843 137.998 49.6498 137.952 49.6153C137.929 49.598 137.923 49.575 137.923 49.5463C137.923 49.4542 137.946 49.3507 137.929 49.2586C137.911 49.1263 137.865 49.0055 137.848 48.8732C137.837 48.7984 137.854 48.7179 137.687 48.6891C137.641 48.6834 137.762 48.6431 138.032 48.5741C138.498 48.459 138.981 48.3382 139.269 48.2979C139.464 48.2692 139.608 48.2519 139.551 48.2979C139.464 48.367 139.689 48.3497 139.424 48.4705C139.384 48.4878 139.401 48.4935 139.418 48.4935C139.769 48.5281 139.631 48.7006 139.631 48.8329C139.631 48.8789 139.689 48.902 139.718 48.9422C139.735 48.9652 139.741 48.994 139.746 49.017C139.746 49.0573 139.712 49.1091 139.746 49.1378C139.769 49.1608 139.867 49.1666 139.603 49.2644C139.545 49.2874 139.562 49.2989 139.631 49.2816C139.89 49.2356 139.867 49.2644 139.867 49.2874C139.867 49.3564 139.838 49.4312 139.861 49.4945C139.879 49.5405 139.93 49.575 140.005 49.6095C140.12 49.6556 140.287 49.6901 140.391 49.7418C140.477 49.7821 140.511 49.8396 140.575 49.8914C140.592 49.9029 140.65 49.9029 140.655 49.9144C140.673 49.9374 140.742 49.9489 140.661 49.995C140.569 50.0467 140.557 50.0755 140.788 50.041C140.92 50.018 140.908 50.0467 140.891 50.0697C140.868 50.0985 140.788 50.1503 140.713 50.1963C140.621 50.2538 140.517 50.3056 140.696 50.2883C140.788 50.2768 140.742 50.3171 140.684 50.3516C140.437 50.5069 140.483 50.576 140.581 50.6392C140.713 50.7198 140.885 50.7888 141.023 50.8694C141.081 50.8981 141.098 50.9384 141.127 50.9787C141.219 51.0995 141.185 51.249 141.144 51.4043C141.138 51.4331 141.121 51.4676 141.179 51.4791C141.311 51.5079 141.3 51.5769 141.236 51.6575C141.161 51.7553 141.277 51.8013 141.392 51.8416C141.42 51.8531 141.478 51.8531 141.466 51.8761C141.369 52.0256 141.627 52.0774 141.61 52.204C141.599 52.3075 141.489 52.4341 141.403 52.5549C141.334 52.6469 141.236 52.7505 141.156 52.854C141.15 52.8598 141.173 52.8597 141.167 52.8655C141.104 52.923 140.782 53.0266 140.276 53.1474C139.827 53.2509 139.562 53.2969 139.562 53.2567C139.562 53.2164 139.591 53.1646 139.603 53.1129C139.568 53.1244 139.545 53.1301 139.522 53.1416Z" fill="#EBC464"/>
<path d="M140.932 62.2998C140.995 62.4148 141.053 62.4953 141.116 62.6564C141.168 62.8002 141.225 62.9498 141.277 62.7887C141.288 62.7484 141.306 62.783 141.323 62.783C141.352 62.783 141.375 62.783 141.403 62.7657C141.415 62.76 141.426 62.6622 141.438 62.6967C141.495 62.8578 141.553 62.9038 141.605 62.7254C141.651 62.944 141.691 62.7887 141.737 62.7197C141.783 62.6507 141.823 62.6967 141.869 62.5298C141.881 62.4838 141.892 62.4666 141.904 62.5011C141.973 62.6852 142.048 62.6161 142.117 62.5701C142.192 62.5183 142.272 62.5759 142.347 62.783C142.387 62.8923 142.433 62.8865 142.473 62.8865C142.525 62.8865 142.571 62.8232 142.623 62.806C142.698 62.783 142.767 62.7197 142.836 62.5644C142.934 62.3573 143.026 62.1905 143.123 62.0754C143.169 62.0179 143.221 62.0869 143.273 62.1214C143.371 62.1905 143.469 62.2998 143.572 62.3458C143.647 62.3803 143.722 62.3573 143.796 62.3228C143.866 62.294 143.935 62.202 144.004 62.1617C144.211 62.0524 144.418 61.9546 144.625 61.8453C144.677 61.8165 144.723 61.759 144.774 61.7245C144.797 61.7072 144.826 61.7072 144.849 61.713C144.941 61.736 145.033 61.782 145.125 61.7935C145.258 61.8108 145.39 61.7993 145.522 61.8165C145.597 61.828 145.672 61.8625 145.747 61.7072C145.77 61.6612 145.775 61.7935 145.764 62.0696C145.752 62.5471 145.741 63.0476 145.706 63.3352C145.683 63.5308 145.66 63.6746 145.632 63.6056C145.586 63.502 145.54 63.7264 145.499 63.4388C145.494 63.3985 145.482 63.41 145.476 63.4272C145.35 63.7551 145.217 63.5826 145.091 63.5423C145.051 63.5308 145.005 63.5826 144.964 63.5941C144.936 63.6056 144.907 63.6056 144.884 63.5998C144.843 63.5883 144.803 63.5423 144.763 63.5653C144.734 63.5826 144.705 63.6746 144.677 63.3927C144.671 63.3352 144.654 63.3467 144.648 63.4158C144.625 63.6804 144.602 63.6516 144.579 63.6401C144.51 63.6171 144.447 63.5768 144.378 63.5768C144.326 63.5768 144.28 63.6228 144.228 63.6861C144.153 63.7839 144.073 63.9335 143.998 64.0255C143.935 64.1003 143.871 64.1176 143.808 64.1636C143.791 64.1751 143.779 64.2326 143.762 64.2384C143.733 64.2499 143.704 64.3131 143.681 64.2211C143.653 64.1176 143.63 64.1003 143.607 64.3304C143.589 64.4627 143.566 64.4455 143.549 64.4225C143.526 64.3937 143.503 64.3017 143.474 64.2154C143.446 64.1118 143.417 63.9968 143.388 64.1751C143.371 64.2671 143.348 64.2154 143.331 64.1521C143.25 63.8702 143.164 63.899 143.077 63.9737C142.962 64.0773 142.847 64.2269 142.738 64.3419C142.692 64.3879 142.646 64.3937 142.606 64.4109C142.468 64.4685 142.33 64.3995 142.186 64.3189C142.157 64.3017 142.128 64.2786 142.105 64.3304C142.042 64.4512 141.979 64.4224 141.921 64.3362C141.846 64.2384 141.772 64.3362 141.697 64.4397C141.68 64.4627 141.662 64.5203 141.645 64.503C141.524 64.3707 141.403 64.6065 141.288 64.5548C141.191 64.5145 141.099 64.3764 141.001 64.2614C140.926 64.1693 140.851 64.0485 140.776 63.945C140.771 63.9392 140.765 63.9623 140.759 63.9507C140.719 63.876 140.702 63.5366 140.725 63.0188C140.742 62.5586 140.771 62.294 140.811 62.2998C140.851 62.3113 140.897 62.3515 140.937 62.3745C140.932 62.3458 140.932 62.3228 140.932 62.2998Z" fill="#EBC464"/>
<path d="M128.901 63.5935C128.999 63.6913 129.085 63.7488 129.195 63.8926C129.287 64.0191 129.384 64.1515 129.413 63.9789C129.419 63.9329 129.448 63.9674 129.465 63.9616C129.494 63.9501 129.528 63.9501 129.557 63.9271C129.569 63.9156 129.563 63.8178 129.586 63.8466C129.684 63.9904 129.758 64.0191 129.787 63.8293C129.885 64.0306 129.902 63.8638 129.937 63.789C129.971 63.7085 130.035 63.743 130.046 63.5704C130.052 63.5244 130.063 63.5014 130.081 63.5302C130.201 63.6913 130.27 63.605 130.345 63.5417C130.42 63.4726 130.524 63.5072 130.656 63.6855C130.725 63.7833 130.777 63.766 130.823 63.7545C130.88 63.7373 130.92 63.6683 130.978 63.6337C131.053 63.5877 131.122 63.5129 131.174 63.3403C131.237 63.1102 131.312 62.9261 131.398 62.7881C131.444 62.7191 131.513 62.7708 131.576 62.7938C131.709 62.8341 131.847 62.9146 131.967 62.9319C132.059 62.9434 132.14 62.9031 132.221 62.8514C132.295 62.8053 132.353 62.696 132.428 62.6385C132.64 62.4774 132.859 62.3279 133.072 62.1668C133.124 62.1265 133.17 62.0575 133.216 62.0115C133.239 61.9885 133.267 61.9827 133.302 61.9827C133.411 61.9827 133.532 62.0057 133.636 61.9885C133.791 61.9712 133.941 61.9252 134.096 61.908C134.182 61.8965 134.28 61.9137 134.332 61.7469C134.343 61.7009 134.383 61.8217 134.435 62.092C134.527 62.5638 134.625 63.0527 134.648 63.3403C134.665 63.5359 134.671 63.6855 134.619 63.6222C134.545 63.5359 134.545 63.7603 134.43 63.4899C134.412 63.4497 134.406 63.4669 134.401 63.4842C134.326 63.8351 134.136 63.7028 133.981 63.697C133.929 63.697 133.895 63.7603 133.849 63.7833C133.82 63.8006 133.785 63.8063 133.756 63.8121C133.71 63.8121 133.653 63.7775 133.613 63.8121C133.584 63.8351 133.567 63.9329 133.475 63.6625C133.457 63.605 133.44 63.6222 133.452 63.6912C133.486 63.9501 133.452 63.9329 133.423 63.9271C133.342 63.9271 133.256 63.8984 133.175 63.9214C133.118 63.9386 133.072 63.9904 133.026 64.0652C132.957 64.1802 132.905 64.3471 132.836 64.4564C132.779 64.5484 132.709 64.5772 132.646 64.6404C132.629 64.6577 132.629 64.7152 132.612 64.7267C132.583 64.744 132.566 64.813 132.514 64.7325C132.456 64.6404 132.428 64.6289 132.451 64.859C132.462 64.9913 132.433 64.9856 132.405 64.9683C132.37 64.9453 132.324 64.8648 132.272 64.7843C132.215 64.6922 132.157 64.5886 132.163 64.767C132.163 64.8648 132.128 64.813 132.088 64.7555C131.933 64.5023 131.841 64.5484 131.76 64.6462C131.651 64.7785 131.553 64.9511 131.45 65.0949C131.409 65.1524 131.358 65.1697 131.312 65.1984C131.162 65.2905 130.989 65.2617 130.811 65.2157C130.777 65.2099 130.736 65.1927 130.719 65.2502C130.673 65.3825 130.598 65.371 130.506 65.3077C130.397 65.2329 130.334 65.348 130.27 65.4688C130.253 65.4976 130.247 65.5551 130.224 65.5436C130.058 65.4458 129.971 65.7047 129.822 65.6874C129.701 65.6702 129.557 65.5666 129.425 65.4745C129.321 65.4055 129.206 65.3077 129.097 65.2215C129.091 65.2157 129.091 65.2387 129.08 65.2329C129.016 65.1697 128.924 64.8418 128.832 64.3298C128.752 63.8753 128.723 63.6107 128.769 63.6107C128.821 63.6107 128.878 63.6395 128.93 63.651C128.913 63.6395 128.907 63.6165 128.901 63.5935Z" fill="#EBC464"/>
<path d="M128.303 39.3923C128.182 39.3175 128.073 39.2715 127.941 39.1507C127.82 39.0414 127.699 38.9321 127.682 39.1104C127.676 39.1565 127.647 39.1277 127.624 39.1392C127.59 39.1565 127.555 39.168 127.526 39.191C127.515 39.2025 127.532 39.3003 127.503 39.2773C127.371 39.1565 127.285 39.145 127.279 39.3348C127.141 39.1507 127.147 39.3233 127.112 39.4096C127.078 39.4958 127.003 39.4729 127.009 39.6512C127.009 39.6972 126.997 39.7202 126.974 39.6972C126.819 39.5591 126.75 39.6569 126.675 39.7375C126.595 39.8237 126.474 39.8065 126.301 39.6569C126.209 39.5764 126.157 39.6052 126.106 39.6224C126.042 39.6512 126.002 39.7317 125.945 39.772C125.858 39.8295 125.789 39.9273 125.755 40.1056C125.709 40.3472 125.645 40.5486 125.565 40.7039C125.525 40.7844 125.433 40.7442 125.358 40.7384C125.208 40.7269 125.041 40.6694 124.898 40.6809C124.788 40.6866 124.702 40.7442 124.616 40.8132C124.535 40.8765 124.483 40.9973 124.409 41.0663C124.184 41.2734 123.954 41.4633 123.73 41.6704C123.678 41.7221 123.632 41.7969 123.58 41.8544C123.557 41.8832 123.523 41.8947 123.488 41.9004C123.362 41.9234 123.229 41.9292 123.103 41.958C122.93 42.0098 122.763 42.0845 122.585 42.1363C122.487 42.1651 122.378 42.1651 122.338 42.3492C122.326 42.4009 122.269 42.2859 122.182 42.0213C122.027 41.5668 121.86 41.1008 121.803 40.8132C121.762 40.6234 121.739 40.4738 121.803 40.5198C121.895 40.5946 121.872 40.3645 122.033 40.6119C122.056 40.6464 122.062 40.6291 122.062 40.6119C122.108 40.2437 122.338 40.3415 122.516 40.3127C122.574 40.3012 122.608 40.2322 122.66 40.1977C122.689 40.1747 122.729 40.1574 122.763 40.1517C122.815 40.1402 122.884 40.1632 122.93 40.1229C122.965 40.0941 122.965 39.9906 123.103 40.2437C123.132 40.2955 123.149 40.2725 123.126 40.2092C123.057 39.9561 123.103 39.9676 123.137 39.9618C123.229 39.9446 123.333 39.9561 123.419 39.9158C123.482 39.887 123.528 39.8238 123.569 39.7432C123.632 39.6167 123.672 39.4326 123.741 39.3118C123.799 39.2082 123.874 39.1622 123.937 39.0874C123.954 39.0702 123.948 39.0126 123.966 38.9954C123.994 38.9724 124.012 38.8976 124.075 38.9724C124.15 39.0529 124.184 39.0586 124.132 38.8343C124.104 38.7077 124.138 38.7078 124.173 38.7193C124.213 38.7365 124.276 38.8055 124.34 38.8746C124.414 38.9609 124.489 39.0471 124.466 38.8688C124.455 38.771 124.501 38.8113 124.552 38.8631C124.759 39.0817 124.857 39.0184 124.938 38.9034C125.047 38.748 125.139 38.5524 125.243 38.3914C125.283 38.3281 125.34 38.2993 125.387 38.259C125.548 38.1382 125.749 38.1325 125.956 38.1383C125.996 38.1383 126.042 38.1497 126.06 38.0865C126.094 37.9427 126.186 37.9427 126.295 37.9887C126.428 38.0405 126.485 37.9139 126.543 37.7816C126.554 37.7528 126.56 37.6895 126.589 37.7011C126.79 37.7643 126.859 37.4882 127.032 37.4767C127.17 37.4652 127.342 37.5457 127.509 37.6033C127.636 37.6493 127.774 37.7241 127.912 37.7874C127.923 37.7931 127.918 37.7701 127.929 37.7758C128.01 37.8219 128.154 38.1325 128.315 38.6272C128.458 39.0644 128.522 39.329 128.47 39.3405C128.412 39.352 128.343 39.3348 128.28 39.329C128.286 39.3463 128.297 39.3693 128.303 39.3923Z" fill="#EBC464"/>
<path d="M120.813 27.9906C120.986 28.0424 121.147 28.0539 121.337 28.1517C121.504 28.2323 121.676 28.3243 121.722 28.1229C121.734 28.0712 121.78 28.0942 121.809 28.0769C121.86 28.0482 121.918 28.0251 121.97 27.9906C121.993 27.9734 121.981 27.8756 122.016 27.8928C122.194 27.9906 122.326 27.9791 122.372 27.7663C122.551 27.9273 122.574 27.7433 122.637 27.6397C122.7 27.5362 122.81 27.5362 122.833 27.3463C122.838 27.2946 122.856 27.2658 122.896 27.2831C123.114 27.3866 123.235 27.26 123.362 27.1507C123.5 27.0357 123.678 27.0185 123.92 27.1335C124.046 27.1968 124.133 27.1508 124.219 27.1105C124.322 27.0645 124.397 26.9609 124.489 26.8976C124.627 26.8113 124.748 26.6848 124.829 26.4777C124.938 26.2016 125.07 25.96 125.22 25.7644C125.295 25.6666 125.427 25.6839 125.542 25.6666C125.772 25.6378 126.019 25.6493 126.238 25.5976C126.405 25.5631 126.549 25.471 126.687 25.3732C126.819 25.2812 126.923 25.1316 127.049 25.0338C127.423 24.7404 127.808 24.4701 128.182 24.1824C128.274 24.1134 128.349 24.0156 128.436 23.9408C128.482 23.9006 128.528 23.8775 128.585 23.866C128.781 23.8028 128.988 23.7625 129.183 23.6877C129.459 23.5842 129.724 23.4518 130 23.3483C130.156 23.2908 130.322 23.2562 130.414 23.0491C130.437 22.9916 130.506 23.1009 130.604 23.3598C130.771 23.8085 130.955 24.2745 130.995 24.5678C131.024 24.7692 131.041 24.9245 130.949 24.8842C130.817 24.8324 130.817 25.0741 130.61 24.8497C130.581 24.8152 130.57 24.8382 130.564 24.8612C130.437 25.2754 130.098 25.2351 129.822 25.3157C129.73 25.3444 129.667 25.4307 129.586 25.4825C129.534 25.517 129.477 25.54 129.419 25.5631C129.333 25.5918 129.235 25.586 129.16 25.6436C129.109 25.6896 129.086 25.7989 128.913 25.5631C128.878 25.5113 128.85 25.54 128.867 25.6091C128.93 25.8679 128.867 25.8622 128.815 25.8794C128.671 25.9197 128.516 25.9427 128.378 26.006C128.28 26.052 128.194 26.1383 128.119 26.2419C128.004 26.4029 127.906 26.61 127.791 26.7596C127.693 26.8861 127.567 26.9609 127.458 27.0645C127.435 27.0875 127.423 27.1508 127.4 27.1738C127.348 27.2083 127.314 27.2946 127.228 27.2313C127.13 27.1623 127.072 27.168 127.118 27.4039C127.141 27.5362 127.089 27.5477 127.038 27.5419C126.974 27.5362 126.888 27.4787 126.808 27.4211C126.704 27.3521 126.606 27.2716 126.612 27.4614C126.618 27.5649 126.549 27.5304 126.48 27.4902C126.198 27.3118 126.037 27.4096 125.893 27.5592C125.703 27.7605 125.53 27.9964 125.346 28.2092C125.272 28.2898 125.185 28.3358 125.099 28.3933C124.834 28.5716 124.524 28.6349 124.207 28.6925C124.144 28.704 124.081 28.7039 124.046 28.7787C123.966 28.9456 123.828 28.9743 123.667 28.9571C123.471 28.9341 123.362 29.0951 123.252 29.2562C123.229 29.2965 123.212 29.3597 123.172 29.3597C122.873 29.3482 122.723 29.6704 122.464 29.7337C122.251 29.7855 121.998 29.7452 121.757 29.7279C121.567 29.7164 121.366 29.6704 121.17 29.6416C121.159 29.6416 121.159 29.6646 121.141 29.6589C121.026 29.6301 120.859 29.331 120.687 28.8363C120.537 28.3991 120.485 28.1287 120.566 28.1057C120.658 28.0769 120.756 28.0769 120.854 28.0597C120.831 28.0309 120.819 28.0136 120.813 27.9906Z" fill="#EBC464"/>
<path d="M103.464 19.8855C103.515 20.0638 103.59 20.2134 103.619 20.432C103.642 20.6276 103.659 20.8175 103.861 20.7657C103.912 20.7484 103.924 20.8002 103.953 20.8232C104.004 20.8577 104.056 20.898 104.119 20.921C104.148 20.9325 104.229 20.8692 104.234 20.9153C104.252 21.1223 104.338 21.2374 104.551 21.1684C104.511 21.41 104.689 21.3352 104.81 21.3409C104.936 21.3467 104.994 21.4445 105.178 21.3639C105.224 21.3409 105.264 21.3467 105.27 21.387C105.304 21.6343 105.483 21.6803 105.65 21.7379C105.828 21.8011 105.943 21.9565 105.978 22.2268C105.995 22.3706 106.081 22.4282 106.162 22.4799C106.259 22.549 106.392 22.5605 106.501 22.618C106.656 22.6985 106.835 22.7446 107.065 22.7158C107.37 22.6755 107.652 22.6755 107.91 22.7101C108.043 22.7273 108.1 22.8539 108.175 22.9517C108.33 23.1415 108.463 23.3659 108.629 23.5384C108.756 23.6707 108.917 23.7513 109.078 23.8261C109.233 23.8951 109.423 23.9181 109.579 23.9814C110.045 24.1712 110.505 24.3783 110.971 24.5681C111.08 24.6142 111.212 24.6314 111.327 24.6717C111.385 24.6947 111.437 24.7235 111.477 24.7637C111.644 24.9133 111.793 25.0743 111.966 25.2067C112.213 25.4022 112.478 25.5691 112.725 25.7647C112.863 25.874 112.99 26.0063 113.226 25.9833C113.289 25.9775 113.232 26.0926 113.059 26.3054C112.76 26.6793 112.449 27.0705 112.219 27.2603C112.058 27.3869 111.931 27.4789 111.914 27.3754C111.885 27.2316 111.673 27.3524 111.753 27.0533C111.765 27.013 111.742 27.013 111.713 27.013C111.276 27.105 111.12 26.7829 110.89 26.5758C110.815 26.5067 110.7 26.4953 110.614 26.4492C110.557 26.4205 110.499 26.386 110.453 26.3399C110.378 26.2767 110.332 26.1846 110.24 26.1501C110.171 26.1213 110.062 26.1558 110.171 25.8912C110.194 25.8337 110.154 25.828 110.108 25.874C109.918 26.0581 109.884 26.0005 109.838 25.9603C109.717 25.851 109.613 25.7244 109.481 25.6381C109.383 25.5748 109.262 25.5403 109.13 25.5231C108.923 25.5001 108.687 25.5173 108.486 25.4886C108.319 25.4598 108.181 25.385 108.031 25.339C107.997 25.3275 107.933 25.3562 107.905 25.339C107.847 25.3102 107.749 25.3217 107.755 25.2124C107.755 25.0916 107.726 25.0456 107.542 25.1952C107.439 25.2815 107.398 25.2412 107.375 25.1952C107.347 25.1377 107.347 25.0283 107.352 24.9248C107.358 24.7982 107.37 24.6717 107.209 24.7752C107.122 24.827 107.111 24.7522 107.111 24.6717C107.111 24.3265 106.932 24.2345 106.72 24.1827C106.438 24.1137 106.127 24.0792 105.839 24.0159C105.724 23.9929 105.632 23.9353 105.535 23.8893C105.23 23.7455 105 23.4981 104.769 23.2393C104.723 23.1875 104.683 23.13 104.603 23.1357C104.413 23.1472 104.309 23.038 104.234 22.8884C104.142 22.7043 103.941 22.6813 103.74 22.664C103.694 22.6583 103.625 22.6813 103.602 22.641C103.446 22.3649 103.078 22.3994 102.871 22.1923C102.704 22.0255 102.595 21.7839 102.474 21.5538C102.382 21.3812 102.307 21.1741 102.221 20.99C102.215 20.9785 102.192 20.99 102.187 20.9728C102.146 20.852 102.313 20.5586 102.652 20.1559C102.952 19.805 103.159 19.6209 103.228 19.6842C103.303 19.7475 103.366 19.8395 103.429 19.9201C103.435 19.9201 103.452 19.9028 103.464 19.8855Z" fill="#EBC464"/>
<path d="M110.293 33.7383C110.207 33.583 110.109 33.4622 110.04 33.2666C109.977 33.0882 109.919 32.9099 109.752 33.0192C109.706 33.048 109.689 33.002 109.66 32.9905C109.603 32.9732 109.551 32.9502 109.488 32.9444C109.459 32.9444 109.401 33.025 109.39 32.9847C109.332 32.7949 109.229 32.7086 109.056 32.8351C109.039 32.5935 108.901 32.7143 108.786 32.7431C108.671 32.7719 108.596 32.6971 108.452 32.8236C108.412 32.8582 108.378 32.8639 108.366 32.8236C108.285 32.5993 108.113 32.605 107.952 32.5993C107.779 32.5878 107.641 32.4785 107.555 32.2311C107.509 32.0988 107.423 32.07 107.336 32.0413C107.233 32.0067 107.112 32.0298 107.003 32.0067C106.847 31.978 106.68 31.9837 106.479 32.0758C106.215 32.2023 105.961 32.2829 105.726 32.3232C105.605 32.3404 105.524 32.2426 105.438 32.1736C105.26 32.0355 105.093 31.863 104.909 31.7422C104.765 31.6559 104.61 31.6213 104.443 31.5983C104.293 31.5753 104.115 31.6098 103.96 31.5926C103.499 31.5466 103.045 31.4833 102.59 31.4315C102.481 31.42 102.36 31.4372 102.245 31.4315C102.188 31.4315 102.136 31.4085 102.09 31.3855C101.912 31.2935 101.739 31.1841 101.555 31.1036C101.29 30.9885 101.02 30.908 100.755 30.7872C100.606 30.7239 100.468 30.6319 100.261 30.7239C100.203 30.7469 100.232 30.6261 100.341 30.3673C100.531 29.9243 100.721 29.4641 100.893 29.2225C101.008 29.0557 101.106 28.9349 101.141 29.0269C101.193 29.1535 101.365 28.9809 101.354 29.2858C101.354 29.3261 101.377 29.3203 101.394 29.3088C101.768 29.0959 101.975 29.3548 102.222 29.4871C102.303 29.5274 102.406 29.5101 102.498 29.5274C102.556 29.5389 102.613 29.5562 102.665 29.5849C102.746 29.6252 102.809 29.6942 102.895 29.7057C102.964 29.7115 103.051 29.6482 103.01 29.9358C102.999 29.9934 103.039 29.9934 103.074 29.9358C103.206 29.7057 103.246 29.7517 103.292 29.7747C103.425 29.8438 103.545 29.9358 103.683 29.9819C103.787 30.0164 103.902 30.0106 104.023 29.9876C104.213 29.9531 104.42 29.8668 104.604 29.838C104.759 29.815 104.897 29.8495 105.047 29.8495C105.081 29.8495 105.127 29.8093 105.162 29.815C105.219 29.8208 105.3 29.7863 105.323 29.8898C105.346 30.0049 105.386 30.0451 105.518 29.8438C105.593 29.7345 105.639 29.7633 105.668 29.7978C105.708 29.8438 105.726 29.9473 105.749 30.0451C105.772 30.1659 105.789 30.2925 105.91 30.1487C105.973 30.0739 106.002 30.1429 106.019 30.2177C106.094 30.5398 106.272 30.5801 106.473 30.5686C106.744 30.5513 107.026 30.4996 107.296 30.4766C107.405 30.4651 107.497 30.4938 107.595 30.5111C107.9 30.5629 108.159 30.7297 108.418 30.908C108.47 30.9425 108.516 30.9885 108.59 30.9598C108.757 30.8965 108.872 30.9655 108.976 31.0921C109.097 31.2417 109.281 31.2014 109.465 31.1611C109.511 31.1496 109.563 31.1093 109.591 31.1439C109.787 31.3567 110.115 31.2244 110.339 31.3625C110.523 31.4718 110.673 31.6731 110.828 31.8515C110.949 31.9895 111.058 32.1621 111.173 32.3117C111.179 32.3232 111.196 32.3059 111.208 32.3174C111.271 32.421 111.179 32.7489 110.96 33.2206C110.771 33.6405 110.621 33.8706 110.546 33.8361C110.466 33.7958 110.391 33.7268 110.316 33.6693C110.31 33.6923 110.305 33.7153 110.293 33.7383Z" fill="#EBC464"/>
<path d="M116.941 56.7193C116.952 56.5755 116.935 56.4547 116.981 56.2764C117.021 56.1153 117.062 55.9543 116.895 56.0175C116.849 56.0348 116.86 55.9945 116.843 55.9773C116.814 55.9542 116.785 55.9255 116.745 55.9082C116.728 55.9025 116.647 55.96 116.659 55.9255C116.705 55.7529 116.676 55.6608 116.492 55.7414C116.59 55.5343 116.44 55.6091 116.342 55.6206C116.25 55.6264 116.233 55.5515 116.072 55.6321C116.032 55.6551 116.003 55.6551 116.009 55.6206C116.055 55.4135 115.934 55.3962 115.825 55.3617C115.71 55.3272 115.664 55.2064 115.715 54.9763C115.744 54.8555 115.692 54.821 115.646 54.7807C115.589 54.7347 115.497 54.7289 115.428 54.6944C115.33 54.6426 115.215 54.6196 115.031 54.6657C114.789 54.7289 114.571 54.7519 114.392 54.7462C114.3 54.7404 114.289 54.6427 114.26 54.5679C114.197 54.4183 114.162 54.2399 114.087 54.1134C114.03 54.0156 113.932 53.9581 113.829 53.9121C113.731 53.866 113.593 53.866 113.495 53.8258C113.196 53.705 112.908 53.5784 112.609 53.4576C112.54 53.4289 112.442 53.4231 112.367 53.4001C112.327 53.3886 112.304 53.3656 112.281 53.3368C112.201 53.2275 112.126 53.1067 112.04 53.0031C111.907 52.8593 111.758 52.7443 111.625 52.6005C111.551 52.52 111.493 52.4164 111.309 52.4624C111.257 52.4739 111.338 52.3704 111.528 52.1748C111.861 51.8296 112.206 51.473 112.436 51.2946C112.592 51.1738 112.718 51.0875 112.701 51.1681C112.678 51.2889 112.879 51.1681 112.73 51.4212C112.707 51.4557 112.73 51.4557 112.747 51.45C113.104 51.3349 113.127 51.588 113.242 51.7433C113.276 51.7951 113.363 51.7951 113.414 51.8239C113.449 51.8411 113.483 51.8699 113.506 51.8987C113.541 51.9447 113.552 52.0195 113.616 52.0425C113.662 52.0597 113.754 52.0195 113.593 52.2553C113.558 52.3071 113.587 52.3071 113.639 52.2668C113.834 52.0943 113.846 52.1403 113.869 52.169C113.926 52.2496 113.972 52.3474 114.047 52.4106C114.105 52.4567 114.185 52.4739 114.277 52.4739C114.427 52.4739 114.611 52.4394 114.755 52.4452C114.876 52.4509 114.956 52.5027 115.06 52.5314C115.083 52.5372 115.134 52.5084 115.157 52.5199C115.198 52.5372 115.267 52.5199 115.238 52.612C115.203 52.7155 115.209 52.75 115.393 52.6062C115.497 52.5257 115.514 52.5545 115.52 52.589C115.526 52.635 115.491 52.727 115.462 52.8133C115.422 52.9169 115.376 53.0262 115.531 52.9284C115.612 52.8766 115.6 52.9399 115.577 53.0031C115.48 53.2908 115.589 53.3541 115.733 53.3828C115.928 53.4174 116.153 53.4173 116.348 53.4461C116.429 53.4576 116.481 53.4921 116.544 53.5267C116.734 53.6187 116.837 53.8085 116.935 54.0041C116.952 54.0444 116.969 54.0904 117.033 54.0789C117.182 54.0501 117.228 54.1364 117.24 54.2572C117.257 54.401 117.401 54.401 117.551 54.401C117.585 54.401 117.643 54.378 117.648 54.4068C117.689 54.6254 117.976 54.5621 118.074 54.7174C118.149 54.844 118.166 55.0396 118.189 55.2179C118.212 55.356 118.206 55.5228 118.218 55.6724C118.218 55.6839 118.241 55.6724 118.241 55.6839C118.235 55.7817 118.022 56.0463 117.654 56.4144C117.326 56.7366 117.119 56.9092 117.085 56.8631C117.044 56.8171 117.027 56.7423 116.998 56.6791C116.969 56.6848 116.952 56.7021 116.941 56.7193Z" fill="#EBC464"/>
<path d="M100.45 50.9156C100.438 51.0536 100.45 51.1687 100.404 51.3413C100.364 51.4966 100.323 51.6577 100.484 51.5771C100.525 51.5541 100.519 51.6001 100.53 51.6116C100.559 51.6346 100.582 51.6576 100.622 51.6691C100.64 51.6749 100.714 51.6116 100.703 51.6461C100.657 51.8187 100.686 51.8993 100.852 51.8072C100.755 52.0143 100.899 51.928 100.991 51.9108C101.077 51.8935 101.094 51.9683 101.244 51.8763C101.284 51.8532 101.307 51.8475 101.301 51.882C101.255 52.0834 101.37 52.0891 101.474 52.1121C101.583 52.1351 101.623 52.2444 101.572 52.463C101.543 52.5781 101.589 52.6126 101.629 52.6471C101.681 52.6874 101.767 52.6816 101.83 52.7046C101.917 52.7449 102.032 52.7564 102.199 52.6931C102.429 52.6126 102.63 52.5666 102.797 52.5551C102.883 52.5493 102.889 52.6471 102.918 52.7104C102.975 52.8427 103.004 53.0095 103.073 53.1246C103.125 53.2109 103.217 53.2569 103.309 53.2914C103.395 53.3259 103.527 53.3144 103.62 53.3374C103.896 53.4237 104.166 53.5157 104.442 53.602C104.511 53.625 104.597 53.6193 104.666 53.6308C104.701 53.6365 104.73 53.6595 104.747 53.6825C104.822 53.7803 104.885 53.8896 104.971 53.9759C105.092 54.0967 105.23 54.1946 105.351 54.3211C105.42 54.3901 105.472 54.4822 105.644 54.4247C105.69 54.4074 105.616 54.5109 105.432 54.718C105.115 55.0747 104.787 55.4544 104.569 55.6442C104.419 55.7708 104.304 55.8685 104.321 55.788C104.344 55.673 104.154 55.8053 104.298 55.5464C104.316 55.5119 104.298 55.5119 104.281 55.5234C103.942 55.6672 103.924 55.4256 103.821 55.2933C103.786 55.2473 103.712 55.253 103.66 55.23C103.625 55.2127 103.596 55.1955 103.573 55.1667C103.539 55.1265 103.527 55.0574 103.476 55.0402C103.435 55.0287 103.349 55.0747 103.499 54.8331C103.533 54.7813 103.504 54.7813 103.458 54.8273C103.269 55.0114 103.263 54.9711 103.246 54.9424C103.194 54.8733 103.154 54.7813 103.084 54.7295C103.033 54.6893 102.958 54.6835 102.866 54.6892C102.728 54.7008 102.555 54.7525 102.423 54.764C102.314 54.7698 102.239 54.7295 102.141 54.7123C102.118 54.7065 102.066 54.741 102.049 54.7353C102.015 54.7238 101.945 54.7468 101.98 54.6547C102.015 54.5512 102.009 54.5167 101.836 54.6778C101.738 54.7641 101.721 54.7353 101.721 54.7008C101.715 54.6605 101.75 54.5685 101.779 54.4822C101.819 54.3786 101.859 54.2693 101.721 54.3786C101.646 54.4361 101.658 54.3729 101.681 54.3096C101.779 54.0277 101.675 53.976 101.543 53.9645C101.364 53.9529 101.152 53.9702 100.968 53.9645C100.893 53.9645 100.847 53.9299 100.789 53.9069C100.617 53.8379 100.519 53.6653 100.433 53.4927C100.415 53.4582 100.404 53.4179 100.346 53.4352C100.208 53.4755 100.168 53.4007 100.156 53.2857C100.145 53.1476 100.007 53.1591 99.8688 53.1821C99.8343 53.1878 99.7825 53.2166 99.7767 53.1878C99.7422 52.9865 99.4719 53.067 99.3856 52.9347C99.3165 52.8254 99.305 52.6356 99.282 52.4688C99.2648 52.3364 99.2705 52.1811 99.259 52.0431C99.259 52.0316 99.2418 52.0488 99.2418 52.0373C99.2475 51.9453 99.4489 51.6692 99.7998 51.2895C100.11 50.9501 100.306 50.766 100.341 50.8063C100.375 50.8465 100.392 50.9156 100.415 50.9731C100.415 50.9558 100.433 50.9328 100.45 50.9156Z" fill="#EBC464"/>
<path d="M95.3069 63.3867C94.3923 63.2371 93.5409 63.8871 93.4431 64.8018C93.1497 67.448 92.9944 70.4278 93.0979 73.678C93.1555 75.4958 93.2935 77.2159 93.4833 78.8266C93.5754 79.5974 94.1909 80.19 94.9618 80.259C102.601 80.909 111.339 82.1401 120.848 84.3548C129.776 86.4315 137.698 88.9857 144.515 91.5858C145.274 91.8735 146.125 91.5628 146.516 90.8553C148.628 87.0125 150.739 83.1756 152.85 79.3328C153.339 78.4412 152.902 77.3194 151.935 77.0088C141.293 73.5745 129.661 70.3358 117.092 67.5573C109.562 65.8833 102.285 64.5084 95.3069 63.3867Z" fill="#F5E3B4"/>
<path d="M93.9729 68.5816C93.7715 70.3246 93.6795 72.0907 93.5759 73.8395C93.4839 75.3984 93.4494 76.9401 93.7888 78.5106C93.8118 78.6084 93.8291 78.7234 93.8406 78.8154C93.8578 78.896 93.8693 78.9823 93.8981 79.0628C93.9499 79.2239 94.0304 79.3792 94.1454 79.5058C94.3525 79.7359 94.6459 79.8797 94.9565 79.9142L96.1243 80.0062C96.481 80.0292 96.8664 79.9717 97.1943 80.035C98.805 80.3514 100.416 80.5758 102.061 80.6045C103.298 80.9784 104.563 80.9899 105.846 81.105C107.123 81.2258 108.406 81.4674 109.689 81.5134C110.028 81.5249 110.414 81.5709 110.742 81.6572C112.749 82.1922 114.797 82.5144 116.845 82.894C119.043 83.3025 121.206 83.8547 123.311 84.5853C124.433 84.9707 125.629 85.2756 126.797 85.5863C128.189 85.9544 129.593 86.2881 130.985 86.6735C132.998 87.2372 135 87.801 137.025 88.3072C138.377 88.6409 139.729 89.0148 141.075 89.406C141.748 89.6016 142.421 89.8029 143.088 90.0157L144.095 90.3379L144.596 90.4989L144.849 90.5795C144.929 90.6025 144.924 90.6025 144.964 90.6025C145.217 90.6198 145.435 90.545 145.591 90.2804C145.953 89.6591 146.316 89.0378 146.678 88.4165C148.122 85.9314 149.6 83.4693 151.021 80.9727L151.815 79.5633L152.011 79.2067L152.109 79.0283L152.155 78.942L152.178 78.8902C152.241 78.7637 152.264 78.6256 152.258 78.4818C152.235 78.1999 152.074 77.9295 151.827 77.8087C151.798 77.7972 151.769 77.7743 151.735 77.7685C151.706 77.757 151.677 77.7455 151.597 77.7225L151.211 77.6017L150.44 77.3658C148.513 76.7848 146.569 76.2728 144.636 75.7321C138.901 74.1156 133.131 72.6257 127.326 71.2796C125.934 70.9574 124.531 70.6755 123.133 70.3707C122.437 70.2211 121.735 70.0543 121.045 69.8875C118.467 69.2604 115.884 68.6391 113.296 68.0811C109.58 67.2758 105.846 66.5625 102.113 65.8664C99.9958 65.4752 97.8789 65.0725 95.7332 64.8827C95.1349 64.8309 94.9623 64.6698 95.2269 64.434C95.6871 64.0255 96.0726 63.5826 97.1426 63.4676C97.8674 63.3928 98.5404 63.3525 99.386 63.5711C100.617 63.8875 101.969 63.899 103.142 64.411C103.309 64.48 103.562 64.5145 103.77 64.5376C107.491 64.8885 111.139 65.7916 114.786 66.6142C115.977 66.8846 117.185 67.0917 118.381 67.3505C119.158 67.5116 119.934 67.69 120.705 67.8741C121.827 68.1387 122.937 68.4551 124.065 68.6967C124.91 68.8865 125.75 68.9958 126.446 69.456C126.59 69.5538 127.039 69.6516 127.211 69.6228C127.873 69.5193 128.563 69.7149 129.253 69.9047L134.862 71.4464C136.249 71.8203 137.641 72.1655 139.033 72.4934C141.196 73.0053 143.359 73.4771 145.51 74.0408C147.311 74.5068 149.1 75.0475 150.889 75.5653C151.303 75.6861 151.723 75.7608 152.137 75.8874L152.281 75.9334L152.517 76.0197C152.672 76.083 152.828 76.1578 152.966 76.2556C153.253 76.4397 153.506 76.6812 153.702 76.9574C154.093 77.5096 154.248 78.2114 154.128 78.827C154.064 79.1664 153.949 79.4713 153.794 79.7359C153.667 79.9545 153.593 80.0695 153.506 80.2421C153.345 80.5643 153.219 80.8922 153.138 81.2833C153.046 81.7205 152.707 82.3073 152.425 82.779C152.057 83.3888 151.643 83.9583 151.228 84.522C150.734 85.2008 150.262 85.8279 149.986 86.6965C149.836 87.1625 149.468 87.7205 149.146 88.1692C148.438 89.1586 147.811 90.1768 147.196 91.2468C146.747 92.0407 145.832 92.5296 144.924 92.4606C144.699 92.4433 144.475 92.4031 144.262 92.3283L143.825 92.173L142.968 91.8796C139.85 90.8326 136.703 89.9064 133.533 89.0436C132.297 88.6984 131.054 88.3475 129.811 87.9966C125.946 86.9381 122.086 85.8912 118.191 84.9535C117.426 84.7694 116.65 84.5796 115.884 84.476C114.107 84.2344 112.364 83.872 110.621 83.4866C108.515 83.0206 106.381 82.7847 104.253 82.5949C103.758 82.5489 103.252 82.5431 102.763 82.4568C101.066 82.1692 99.3573 81.9966 97.6488 81.8586L95.0831 81.6687L94.922 81.6572L94.8415 81.6515L94.6919 81.6342C94.4906 81.6112 94.295 81.5594 94.1052 81.4962C93.7197 81.3696 93.3631 81.1568 93.064 80.8864C92.7591 80.616 92.5117 80.2824 92.3391 79.9142C92.2528 79.7301 92.1838 79.5345 92.1378 79.339C92.1148 79.2412 92.0975 79.1434 92.0802 79.0398C92.063 78.919 92.063 78.9133 92.0573 78.8442C91.7754 75.9967 91.7811 73.1377 91.9537 70.3016C92.0227 69.2086 92.1263 68.1156 92.2586 67.0342C92.3276 66.4934 92.4024 65.9527 92.4829 65.4119L92.5462 65.0092L92.5808 64.8079L92.621 64.5606C92.7015 64.1579 92.8799 63.7724 93.1445 63.4676C93.2768 63.3007 93.4264 63.1339 93.5989 63.0131C93.9844 62.7542 94.3641 62.668 94.6574 62.668C94.9508 62.6737 95.1521 62.7485 95.2614 62.8405C95.4858 63.0304 95.3247 63.2144 95.0544 63.4618C94.8128 63.6919 94.6229 63.9335 94.5021 64.1751C94.4388 64.2959 94.387 64.4168 94.3525 64.5376C94.3353 64.5951 94.318 64.6583 94.3065 64.7216C94.295 64.7964 94.2835 64.8712 94.272 64.9517C94.1282 66.1483 93.9959 67.3448 93.9096 68.5529L93.9729 68.5816Z" fill="#EBC464"/>
<path d="M24.2782 110.337C15.5976 111.792 14.7864 115.301 15.402 116.584C16.3109 118.482 24.819 119.236 31.3424 115.784L36.3587 109.796" fill="#F5E3B4"/>
<path d="M22.8915 111.446C22.4485 111.435 22.0113 111.464 21.5511 111.412C21.1484 111.383 20.7342 111.354 20.4121 111.625C20.3258 111.694 20.2165 111.694 20.1187 111.734C19.9404 111.809 19.7621 111.872 19.5895 111.958C19.509 111.999 19.4629 112.12 19.3766 112.12C18.9567 112.137 18.5598 112.263 18.3009 112.608C17.9327 112.58 17.7256 112.85 17.5301 113.092C17.323 113.316 17.0411 113.466 16.9548 113.794C16.9318 113.88 16.8743 113.943 16.7995 113.978C16.3623 114.185 16.0977 114.605 15.9884 115.019C15.8676 115.456 15.7295 115.853 15.672 116.302C15.6662 116.342 15.6662 116.388 15.672 116.428C15.7065 116.641 15.8618 116.785 16.0402 116.911C16.3105 117.096 16.6499 117.182 16.9721 117.274C17.4495 117.418 17.9557 117.469 18.4677 117.4C19.1465 117.303 19.8196 117.205 20.4869 117.113C20.8263 117.067 21.1657 117.142 21.5051 117.17C22.1897 117.228 22.8857 117.297 23.5818 117.268C24.1053 117.239 24.623 117.153 25.1292 117.021C25.6009 116.906 26.0554 116.71 26.5156 116.561C27.8732 116.106 29.1848 115.542 30.3756 114.823L30.4849 114.754C30.5079 114.737 30.4964 114.737 30.5021 114.731C30.5079 114.72 30.5022 114.708 30.4964 114.697L30.4906 114.679C30.4906 114.674 30.4849 114.674 30.4906 114.668L30.5252 114.61L30.6747 114.386C30.7783 114.236 30.8933 114.098 31.0141 113.966C31.4628 113.471 31.923 112.994 32.3602 112.488L34.2125 110.313C34.5692 109.905 34.9431 109.514 35.1675 109.002C35.2308 108.858 35.3631 108.904 35.5356 109.122C35.8405 109.502 36.1742 109.882 36.226 110.267C36.2605 110.526 36.272 110.745 36.0764 110.865C35.7945 111.044 35.7542 111.441 35.3286 111.492C35.271 111.498 35.2365 111.556 35.2193 111.608C34.8741 112.528 34.1378 113.132 33.5107 113.828C33.3037 114.052 33.1483 114.323 32.9642 114.564C32.8434 114.72 32.7169 114.875 32.5846 115.025C32.3948 115.237 32.1704 115.427 32.0036 115.663C31.9403 115.755 31.9 115.841 31.7965 115.951C31.7044 116.049 31.5836 116.123 31.388 116.043C31.3133 116.014 31.204 116.083 31.1982 116.164C31.1752 116.468 30.9969 116.532 30.83 116.595C30.3698 116.785 29.8981 116.94 29.4379 117.119C29.0985 117.251 28.7649 117.412 28.437 117.584C27.925 117.849 27.4187 118.154 26.878 118.378C26.4293 118.562 25.9576 118.683 25.4859 118.816C25.3766 118.844 25.2788 118.919 25.1695 118.948C24.9682 118.994 24.7611 119.086 24.5597 119.023C24.3296 118.954 24.1685 118.948 23.996 119.207C23.8982 119.351 23.7198 119.356 23.5703 119.345C23.3804 119.333 23.1906 119.264 23.0008 119.189C22.7764 119.097 22.5693 119.005 22.345 119.189C22.2242 119.287 22.0459 119.241 21.902 119.184C21.2635 118.919 20.6479 118.936 20.0037 118.977C19.135 119.023 18.2491 119.074 17.3172 118.965C16.9548 118.925 16.5866 118.816 16.2127 118.695C15.8906 118.58 15.5684 118.447 15.2233 118.212C15.137 118.154 15.0565 118.102 14.9644 118.022C14.8724 117.941 14.7573 117.855 14.6768 117.757C14.4985 117.567 14.3604 117.349 14.2396 117.119C13.8829 116.261 13.9807 115.531 14.1706 114.898C14.2684 114.633 14.3719 114.375 14.4524 114.121C14.6078 113.506 15.0162 113.057 15.4476 112.706C15.718 112.511 15.9539 112.298 16.184 112.079C16.4198 111.884 16.6384 111.642 16.8742 111.441C16.9835 111.349 17.0814 111.228 17.2137 111.17C17.6681 110.963 18.0881 110.762 18.508 110.52C18.9279 110.307 19.3536 110.095 19.8023 109.957C20.1647 109.865 20.5329 109.795 20.9068 109.738C21.275 109.686 21.6489 109.669 22.0171 109.634C22.5808 109.571 23.1503 109.611 23.7141 109.606C23.7486 109.606 23.7831 109.577 23.8234 109.577C24.1455 109.588 24.2951 109.911 24.2376 110.446C24.1916 110.923 24.042 111.222 23.7774 111.262C23.484 111.308 23.1848 111.326 22.8857 111.354L22.8915 111.446Z" fill="#EBC464"/>
<path d="M37.4905 108.449C40.6716 108.288 46.8212 102.357 51.3139 107.017C53.5977 109.381 52.3091 114.501 49.6572 116.9C46.1711 120.058 39.1242 119.58 33.9871 114.225" fill="#F5E3B4"/>
<path d="M38.9933 107.195C39.4938 107.121 40 106.971 40.535 106.902C41.0124 106.839 41.4899 106.775 41.8523 106.43C41.9444 106.338 42.0824 106.321 42.1975 106.263C42.4103 106.166 42.6289 106.074 42.836 105.964C42.9338 105.918 42.9971 105.786 43.1064 105.774C43.6241 105.734 44.0843 105.608 44.51 105.297C44.9415 105.389 45.2636 105.147 45.6375 104.998C46.0114 104.854 46.4199 104.843 46.8111 104.653C46.9146 104.601 47.0412 104.584 47.1505 104.607C47.8178 104.785 48.4678 104.802 49.1409 104.969C49.8542 105.142 50.4927 105.579 50.9012 106.171C51.0162 106.327 51.137 106.465 51.2578 106.609C51.3844 106.747 51.5224 106.867 51.6375 107.023C51.7813 107.195 51.9424 107.362 52.0632 107.558C52.1955 107.742 52.3278 107.937 52.4083 108.15C52.696 108.754 52.857 109.387 53.0469 110.043C53.2942 110.923 53.3517 111.872 53.2252 112.787C53.1562 113.253 52.9491 113.69 52.7362 114.104C52.3163 114.944 51.7698 115.703 51.1715 116.417C50.7113 116.946 50.2339 117.475 49.6758 117.924C49.1639 118.35 48.6231 118.764 48.0191 119.057C47.8005 119.178 47.5704 119.276 47.3403 119.356C47.1102 119.443 46.8801 119.54 46.6385 119.609C46.161 119.73 45.6836 119.874 45.1946 119.932C44.2224 120.11 43.2387 120.087 42.255 120.041C41.7948 119.978 41.3116 119.972 40.8514 119.886C40.6213 119.84 40.3912 119.776 40.1668 119.707C39.3385 119.437 38.5504 119.074 37.7853 118.677C36.6923 118.108 35.6395 117.464 34.7134 116.67C34.1669 116.238 33.7067 115.732 33.1084 115.358C32.9358 115.255 32.9876 115.122 33.235 114.979C33.6664 114.731 34.0921 114.449 34.512 114.455C34.7939 114.461 35.0298 114.478 35.1621 114.708C35.3577 115.036 35.8064 115.088 35.9042 115.548C35.9157 115.611 35.9847 115.652 36.0422 115.675C37.1007 116.049 37.8888 116.773 38.861 117.251C39.0163 117.331 39.1774 117.395 39.3442 117.458L39.8504 117.608C40.069 117.677 40.2761 117.763 40.489 117.832C40.7996 117.93 41.1102 118.062 41.4324 118.125C41.6797 118.16 41.9271 118.108 42.0997 118.43C42.1342 118.499 42.2723 118.505 42.3241 118.447C42.5369 118.229 42.7325 118.258 42.9338 118.292C43.4746 118.384 44.0268 118.413 44.5733 118.401C44.976 118.35 45.3787 118.304 45.7526 118.143C46.046 118.033 46.3336 117.924 46.5982 117.763C46.8686 117.619 47.1274 117.475 47.3691 117.303C47.5762 117.17 47.789 117.061 47.9788 116.906C48.1687 116.762 48.3815 116.647 48.5368 116.469C48.6116 116.394 48.6634 116.284 48.7439 116.215C48.8993 116.095 48.9913 115.899 49.1869 115.83C49.4112 115.761 49.532 115.634 49.4745 115.341C49.44 115.18 49.5608 115.059 49.6529 114.956C49.7737 114.823 49.9635 114.737 50.1246 114.622C50.3202 114.49 50.5388 114.369 50.487 114.07C50.4582 113.914 50.5848 113.782 50.7056 113.678C51.2176 113.207 51.4304 112.545 51.4822 111.889C51.557 111.004 51.4534 110.118 51.1888 109.393C51.1313 109.255 51.0795 109.117 51.0392 108.979C50.9759 108.852 50.9184 108.731 50.8666 108.605C50.8149 108.513 50.7516 108.438 50.7056 108.346C50.6596 108.254 50.602 108.179 50.533 108.11C50.4639 108.035 50.4295 107.96 50.3432 107.874L50.0901 107.615C49.7449 107.287 49.3767 106.994 48.9741 106.77C48.8187 106.683 48.6519 106.591 48.4621 106.597C48.0364 106.603 47.6567 106.522 47.2252 106.436C46.7018 106.338 46.1553 106.517 45.6433 106.752C45.5225 106.81 45.4074 106.896 45.2809 106.913C44.3605 107.04 43.5609 107.633 42.6462 108.001C41.8984 108.3 41.0987 108.541 40.2589 108.783C39.6088 108.961 38.93 109.122 38.1649 109.168C38.1131 109.168 38.0671 109.203 38.0153 109.203C37.5436 109.191 37.4286 108.852 37.5667 108.317C37.6817 107.845 37.8025 107.563 38.0729 107.5C38.372 107.437 38.6999 107.356 39.0278 107.259L38.9933 107.195Z" fill="#EBC464"/>
<path d="M29.7369 117.672C27.0275 124.143 31.6295 126.536 32.3141 126.628C34.2872 126.893 40.0801 123.602 35.4435 113.656" fill="#F5E3B4"/>
<path d="M30.1281 118.995C29.9268 119.242 29.7945 119.513 29.5586 119.772C29.3343 119.996 29.1789 120.249 29.294 120.542C29.3285 120.617 29.2767 120.692 29.271 120.761C29.248 120.893 29.248 121.031 29.2652 121.164C29.271 121.227 29.3688 121.29 29.3343 121.348C29.2537 121.486 29.202 121.624 29.1904 121.768C29.1962 121.906 29.248 122.044 29.3515 122.17C29.1502 122.418 29.34 122.613 29.4723 122.797C29.5931 122.987 29.5874 123.217 29.8347 123.344C29.898 123.378 29.9325 123.43 29.9268 123.488C29.8922 123.678 29.9441 123.844 30.0303 123.988C30.1109 124.138 30.2087 124.276 30.3352 124.391C30.5768 124.655 30.7552 124.96 30.8875 125.357C30.9565 125.576 31.1291 125.708 31.2959 125.829C31.4972 125.973 31.7388 126.053 31.9574 126.14C32.1243 126.209 32.2623 126.243 32.4061 126.226C32.5442 126.18 32.6765 126.157 32.8203 126.036C33.1827 125.789 33.4876 125.449 33.7752 125.179C33.9076 125.006 34.1262 124.972 34.3045 124.863C34.6669 124.655 35.0466 124.414 35.3457 124.074C35.4493 123.942 35.5413 123.804 35.6334 123.66C35.7254 123.516 35.7599 123.344 35.8232 123.189C35.944 122.895 35.9325 122.556 35.9843 122.251C36.0993 121.325 36.0763 120.376 35.8462 119.438C35.7944 119.214 35.7139 118.995 35.6563 118.771C35.6161 118.661 35.5873 118.546 35.57 118.431C35.4895 118.006 35.4838 117.568 35.3457 117.143C35.1559 116.533 34.9891 115.923 34.7302 115.325C34.5979 114.985 34.4886 114.629 34.2067 114.353C34.1262 114.278 34.2297 114.192 34.5001 114.111C34.9603 113.973 35.432 113.812 35.7656 113.869C35.99 113.91 36.1741 113.961 36.1683 114.134C36.1626 114.387 36.4617 114.531 36.2834 114.847C36.2604 114.893 36.2891 114.928 36.3179 114.957C36.6113 115.204 36.7493 115.52 36.8471 115.854C36.9449 116.182 37.0024 116.527 37.0887 116.861C37.1463 117.079 37.2268 117.292 37.2958 117.505C37.3361 117.649 37.3706 117.793 37.3936 117.936C37.4282 118.149 37.4339 118.362 37.4914 118.569C37.5259 118.725 37.6353 118.874 37.3649 119.052C37.3074 119.087 37.3303 119.168 37.4051 119.191C37.6755 119.277 37.664 119.415 37.6698 119.547C37.7043 119.91 37.6295 120.278 37.6352 120.64C37.6295 120.911 37.6812 121.181 37.6928 121.457C37.7215 121.889 37.8423 122.349 37.7791 122.803C37.7503 123.183 37.664 123.557 37.5259 123.925C37.4972 124.011 37.5144 124.115 37.4799 124.201C37.4224 124.356 37.4051 124.552 37.2326 124.638C37.0485 124.736 36.9622 124.834 37.0657 125.098C37.1233 125.248 37.0312 125.369 36.9449 125.455C36.8184 125.559 36.6515 125.622 36.4847 125.674C36.2834 125.737 36.1108 125.789 36.0936 126.042C36.082 126.18 35.9325 126.232 35.8059 126.26C35.524 126.329 35.2939 126.439 35.0696 126.554C34.851 126.68 34.6554 126.841 34.431 126.98C34.1492 127.192 33.8213 127.365 33.4819 127.538C33.2978 127.607 33.1022 127.67 32.9066 127.733C32.7053 127.791 32.4522 127.802 32.1703 127.819H32.1588C31.9517 127.796 31.7216 127.756 31.5375 127.681C31.3592 127.624 31.2326 127.561 31.0888 127.492C30.2317 127.089 29.6104 126.427 29.1272 125.685C29.0351 125.536 28.9546 125.38 28.8165 125.265C28.6497 125.139 28.5462 124.966 28.4484 124.788C28.3506 124.615 28.2873 124.42 28.2585 124.218C28.155 123.747 27.9536 123.338 27.7408 122.889C27.689 122.786 27.6315 122.688 27.6315 122.573C27.6545 122.188 27.5682 121.819 27.5567 121.451C27.5222 121.083 27.4762 120.703 27.5625 120.347C27.6257 120.059 27.689 119.766 27.8098 119.507L28.1837 118.73C28.3678 118.333 28.6554 118 28.8855 117.649C28.9028 117.626 28.8913 117.591 28.9086 117.568C29.0581 117.373 29.3975 117.442 29.8405 117.741C30.2317 118.005 30.4387 118.23 30.364 118.397C30.2834 118.587 30.1741 118.765 30.0763 118.949L30.1281 118.995Z" fill="#EBC464"/>
<path d="M35.7303 109.841C32.0832 107.96 40.1138 99.0611 37.7725 95.6958C31.5827 86.8023 22.0794 92.3823 20.0373 98.5146C18.3863 103.462 21.2396 111.061 27.9931 114.225" fill="#F5E3B4"/>
<path d="M33.9586 107.656C34.1599 106.862 34.4533 106.189 34.8387 105.579C35.1839 105.039 35.5463 104.544 35.6441 103.905C35.6671 103.738 35.7707 103.595 35.8397 103.439C35.9605 103.157 36.087 102.881 36.1906 102.594C36.2366 102.461 36.2078 102.295 36.2884 102.185C36.6853 101.673 36.973 101.104 37.0362 100.459C37.4101 100.08 37.4331 99.5678 37.4907 99.0903C37.554 98.6129 37.715 98.1411 37.5827 97.6809C37.5597 97.5601 37.5309 97.4336 37.5712 97.3185C37.6633 96.9791 37.6575 96.6225 37.5309 96.3348C37.5079 96.2543 37.4677 96.191 37.4274 96.1277C37.3814 96.0587 37.3584 96.0012 37.2836 95.9206L36.9097 95.472C36.3632 94.8449 35.8684 94.1949 35.3622 93.5103C35.2357 93.3205 35.0746 93.1537 34.8905 93.0156C34.7122 92.8718 34.5281 92.728 34.3325 92.6129C34.1024 92.4691 33.8665 92.3368 33.6077 92.239C33.3603 92.1297 33.1072 92.0319 32.8541 91.9456C32.1235 91.681 31.3412 91.5602 30.5818 91.658C29.5636 91.7961 28.6144 92.0837 27.7228 92.4691C27.2741 92.6762 26.7794 92.7855 26.3076 92.9811C25.37 93.3607 24.4438 93.8555 23.6442 94.5343C23.0402 95.0348 22.5282 95.6445 22.0967 96.2946C21.6941 96.9043 21.418 97.5774 21.1821 98.2389C20.4688 100.172 20.6413 102.364 21.2626 104.36C21.3316 104.601 21.4467 104.831 21.5388 105.067C21.6308 105.303 21.7343 105.533 21.8551 105.758C21.9702 105.982 22.0623 106.218 22.1543 106.454C22.5512 107.299 22.9596 108.156 23.5349 108.904C24.3288 109.991 25.3009 110.946 26.3767 111.758C26.6873 111.976 27.0095 112.189 27.3316 112.396C27.6595 112.586 28.0219 112.724 28.3901 112.833C28.5972 112.891 28.6029 113.04 28.4131 113.253C28.0852 113.621 27.763 114.013 27.2683 114.076C26.9404 114.11 26.6125 114.139 26.3594 113.88C26.0028 113.506 25.3987 113.432 25.1916 112.879C25.1629 112.805 25.0766 112.753 25.0018 112.712C23.6269 112.051 22.6663 110.82 21.8609 109.577L21.0268 108.375C20.8715 108.099 20.7276 107.817 20.5838 107.529C20.3652 107.121 20.2674 106.661 20.0603 106.252C19.9108 105.942 19.7382 105.637 19.9108 105.257C19.9453 105.177 19.8763 105.01 19.7957 104.969C19.4793 104.803 19.4448 104.509 19.3873 104.227C19.2953 103.848 19.2665 103.457 19.2262 103.071C19.1687 102.686 19.1744 102.295 19.1514 101.903C19.1227 101.616 19.1284 101.328 19.1227 101.035C19.1227 100.741 19.0882 100.448 19.1169 100.155L19.1399 99.4643C19.1457 99.2341 19.1917 99.004 19.2205 98.7682C19.2722 98.2965 19.3758 97.8362 19.5254 97.3875C19.7727 96.634 20.1524 95.9379 20.5723 95.2706C20.6644 95.1095 20.7334 94.9427 20.8369 94.7932C21.0268 94.517 21.2166 94.2121 21.4927 94.0338C21.8091 93.8497 21.999 93.6714 22.0738 93.2802C22.1198 93.0616 22.3384 92.866 22.534 92.7337C22.7871 92.5611 23.0689 92.4346 23.3623 92.331C23.7075 92.1987 24.0354 92.1124 24.2597 91.7615C24.3805 91.5659 24.6624 91.4796 24.8925 91.4221C25.9165 91.1805 26.8311 90.7893 27.8206 90.473C29.1552 90.0588 30.6278 89.8689 32.0947 90.099C32.67 90.1853 33.228 90.3694 33.7688 90.5823C34.6029 90.9274 35.3737 91.3991 36.0525 91.9629C36.7198 92.5381 37.3296 93.1594 37.8358 93.844C38.0487 94.1028 38.2328 94.3904 38.4629 94.6205L38.6642 94.8277C38.7332 94.9082 38.785 94.9427 38.8655 95.075C39.0209 95.3051 39.1589 95.5467 39.2394 95.7999C39.4235 96.3061 39.4466 96.8008 39.4121 97.2495C39.3028 98.3195 39.1532 99.2284 38.9748 100.126C38.9288 100.333 38.9173 100.557 38.8253 100.736C38.2097 102.024 37.8473 103.347 37.2893 104.538C36.8406 105.493 36.3171 106.402 36.0007 107.282C35.7534 107.967 35.6383 108.559 35.8109 108.898C35.8282 108.921 35.8627 108.927 35.88 108.95C36.0008 109.146 36.0295 109.549 35.5866 109.888C35.3852 110.02 35.1321 110.112 34.8963 110.043C34.6431 109.991 34.413 109.802 34.252 109.514C33.9298 108.858 33.9586 108.208 34.0334 107.667L33.9586 107.656Z" fill="#EBC464"/>
<path d="M28.7921 117.798C29.2351 118.327 32.0596 116.417 34.4009 113.765C36.7767 111.084 38.4162 107.892 37.8237 107.506C37.2369 107.127 34.8726 109.848 32.5543 112.523C30.2763 115.151 28.3952 117.32 28.7921 117.798Z" fill="#EBC464"/>
<path d="M29.5527 116.837C29.8691 116.797 30.1912 116.688 30.5536 116.636C30.8758 116.59 31.2037 116.526 31.3475 116.21C31.382 116.13 31.474 116.107 31.5373 116.049C31.6524 115.951 31.7674 115.859 31.8709 115.75C31.917 115.698 31.9112 115.577 31.9802 115.566C32.3197 115.485 32.5843 115.307 32.6878 114.962C33.0157 114.956 33.079 114.668 33.2056 114.45C33.3264 114.231 33.5335 114.082 33.5737 113.788C33.5852 113.713 33.6198 113.644 33.6888 113.621C34.0857 113.455 34.2986 113.115 34.5114 112.782C34.7415 112.425 35.0406 112.132 35.4548 111.907C35.6792 111.792 35.8115 111.591 35.938 111.401C36.0933 111.171 36.1912 110.906 36.3235 110.665C36.5133 110.314 36.6629 109.94 36.7089 109.526C36.7664 108.979 36.8412 108.427 36.8412 108.018C36.8354 107.926 36.8584 107.834 36.8699 107.823C36.8182 107.811 37.0368 107.84 37.1461 107.823C37.2784 107.817 37.3589 107.817 37.4625 107.788C37.6178 107.771 37.7213 107.679 37.7098 107.685C37.7098 107.685 37.6696 107.771 37.7041 107.955C37.7213 108.036 37.7444 108.174 37.7904 108.272C37.8019 108.318 37.8536 108.456 37.8421 108.421L37.8364 108.415C37.7904 108.415 37.6983 108.444 37.6005 108.49C37.3992 108.582 37.1806 108.726 36.9735 108.881C36.6628 109.123 36.3867 109.428 36.1279 109.744C35.8863 110.043 35.6907 110.388 35.4606 110.699C34.776 111.62 34.0914 112.557 33.4184 113.506C33.2573 113.736 33.1193 113.984 32.964 114.214C32.8834 114.329 32.7971 114.438 32.6993 114.536C32.3427 114.91 31.9803 115.267 31.6466 115.646C31.1692 116.187 30.7262 116.762 30.3465 117.286C30.243 117.43 30.1394 117.573 30.0877 117.689C30.0531 117.758 30.0647 117.781 30.0589 117.815L30.0647 117.809C30.0589 117.804 30.0186 117.792 29.9956 117.781C29.9439 117.763 29.8921 117.74 29.8345 117.729C29.7252 117.694 29.6159 117.671 29.5009 117.66C29.3628 117.654 29.3513 117.619 29.2708 117.614C29.2018 117.608 29.1327 117.608 29.0637 117.625C28.9429 117.625 28.9314 117.689 28.9601 117.648C28.9774 117.637 28.9889 117.631 29.0062 117.631C29.0349 117.625 29.0062 117.642 29.0925 117.619C28.8969 117.642 28.6668 117.556 28.5747 117.401C28.4252 117.182 28.3676 116.969 28.5229 116.831C28.7415 116.636 28.707 116.291 29.0867 116.25C29.1385 116.245 29.1558 116.193 29.1673 116.153C29.3398 115.359 29.9496 114.887 30.4443 114.358C30.6054 114.185 30.7204 113.967 30.8642 113.777C30.9563 113.65 31.0541 113.535 31.1634 113.42C31.3187 113.253 31.497 113.115 31.6293 112.931C31.7271 112.793 31.7617 112.609 32.0781 112.678C32.1413 112.695 32.1931 112.615 32.1586 112.546C32.0378 112.281 32.1528 112.195 32.2506 112.097C32.5153 111.827 32.7914 111.574 33.0387 111.286C33.2171 111.073 33.3724 110.837 33.5105 110.584C33.7233 110.193 33.8959 109.773 34.126 109.388C34.3158 109.065 34.5574 108.784 34.776 108.484C34.8278 108.415 34.845 108.312 34.9026 108.249C35.0061 108.128 35.0809 107.961 35.2535 107.921C35.4433 107.875 35.5526 107.8 35.5066 107.518C35.4836 107.363 35.5986 107.271 35.7079 107.207C35.846 107.127 36.0186 107.092 36.2027 107.058C36.4213 107.017 36.6168 107.006 36.7376 106.73C36.8067 106.58 37.0253 106.517 37.3071 106.505C37.3762 106.505 37.4567 106.5 37.566 106.505C37.6178 106.511 37.6581 106.511 37.7156 106.517C37.7789 106.528 37.8422 106.54 37.9054 106.557C38.1643 106.615 38.4749 106.839 38.5957 107.069C38.8373 107.541 38.7395 107.771 38.7395 107.967C38.682 108.341 38.6187 108.599 38.5612 108.876C38.4001 109.6 38.2103 110.273 37.963 110.923C37.8652 111.177 37.7271 111.412 37.6005 111.648C37.1979 112.379 36.6571 113.012 36.0818 113.604C35.9725 113.719 35.846 113.834 35.7827 113.99C35.6389 114.346 35.3743 114.611 35.0637 114.829C34.6897 115.088 34.4596 115.474 34.218 115.853C34.1605 115.945 34.126 116.055 34.0397 116.112C33.4357 116.503 33.0617 117.154 32.4577 117.562C31.9745 117.896 31.4107 118.131 30.8297 118.35C30.6054 118.436 30.3638 118.505 30.1107 118.569C29.846 118.626 29.5929 118.684 29.1845 118.684C29.1385 118.684 29.0694 118.707 29.0004 118.701C28.7013 118.672 28.3964 118.385 28.4424 118.177C28.4654 117.976 28.7185 117.924 28.8969 117.735C28.9314 117.7 28.9774 117.625 28.9774 117.619C28.9889 117.602 28.9889 117.591 28.9947 117.568C29.0234 117.499 29.0177 117.453 29.0292 117.326C29.0349 117.269 29.0234 117.217 29.0234 117.154C29.0234 117.131 29.0234 117.113 29.0234 117.096C29.0234 117.067 29.0407 117.044 29.0637 117.044C29.1845 117.021 29.3858 116.975 29.5814 116.9L29.5527 116.837Z" fill="#EBC464"/>
<path d="M43.4681 39.0942C44.9638 37.7998 47.9839 38.841 52.4134 39.399C52.8736 39.4565 58.3155 40.1181 62.6817 39.1977C66.7546 38.3405 73.3183 35.539 75.1821 30.051C82.4994 8.50186 42.5592 -2.56031 27.9188 1.99574C16.4367 5.57385 -0.0732235 16.4059 0.680365 29.9475C2.00346 53.7287 36.8469 55.0173 41.9436 49.8687C45.6713 46.1066 41.2361 41.027 43.4681 39.0942Z" fill="#F5E3B4"/>
<path d="M52.3282 38.5528C54.7213 38.9613 57.2179 39.1338 59.6397 39.1281C60.727 39.1223 61.8027 39.0591 62.8612 38.8577C63.9197 38.6564 64.9724 38.3285 65.9791 37.8568C66.4968 37.6037 67.0778 37.4023 67.6186 37.1377C68.5908 36.6602 69.5342 36.1195 70.4086 35.4925C70.794 35.1818 71.1564 34.8136 71.5073 34.5318C73.3136 33.2259 74.6943 31.2931 75.0394 29.0611C75.7873 27.4388 75.7642 25.6325 75.6032 23.9125C75.5456 23.4811 75.4824 23.0496 75.4248 22.6124C75.3328 22.1867 75.2062 21.761 75.0969 21.3411C75.0049 20.9096 74.8208 20.5128 74.6483 20.1158C74.4642 19.7189 74.3204 19.3162 74.0615 18.9596C73.8084 18.5799 73.5667 18.1196 73.3654 17.7055C72.0596 15.2088 69.9541 13.1724 67.6589 11.4754C65.1852 9.64611 62.5276 8.08136 59.8008 6.61446C59.0703 6.23479 58.3052 5.88389 57.5228 5.54448C56.7289 5.2396 55.9351 4.91749 55.1355 4.65287C53.2314 3.99708 51.2812 3.49081 49.3196 3.02485C46.4778 2.35755 43.5958 1.92034 40.708 1.79379C36.8653 1.64422 32.942 1.77083 29.3236 2.71426C28.432 2.96737 27.4885 3.24918 26.5566 3.58283C25.619 3.89922 24.6928 4.25016 23.7781 4.61833C20.1253 6.13126 16.5874 8.00086 13.3602 10.3134C10.9499 12.0622 8.69487 14.0641 6.80802 16.3363C5.92788 17.4006 5.12826 18.5165 4.4322 19.6901C3.74764 20.8694 3.16663 22.0947 2.70642 23.3602C2.03912 25.2356 1.66519 27.203 1.72272 29.1646L1.74572 29.9009L1.83202 30.6488C1.8953 31.1435 1.92407 31.644 2.02187 32.1387L2.33249 33.5999C2.43029 34.0888 2.62012 34.549 2.75818 35.0265C3.39096 36.9018 4.28263 38.6794 5.46766 40.2613C6.65844 41.8375 8.09084 43.224 9.67856 44.4205C10.4321 45.0073 11.2605 45.502 12.0716 46.0025C12.923 46.4569 13.7629 46.9171 14.6488 47.3025C15.0802 47.5153 15.5289 47.6994 15.9776 47.8835C16.4263 48.0676 16.8635 48.269 17.3237 48.4243C20.689 49.6956 24.2614 50.5067 27.874 50.8288C30.4569 51.0589 33.0743 51.0762 35.6055 50.7368C36.8595 50.5643 38.1193 50.3284 39.2353 49.9199C39.5115 49.8164 39.7646 49.6956 40.0292 49.5863C40.2536 49.454 40.5067 49.3274 40.6965 49.1893C41.0301 48.9592 41.4271 48.5163 41.6629 48.1021C42.2382 47.1472 42.3015 45.9219 42.0714 44.5355C41.9621 43.8452 41.7837 43.1262 41.6284 42.3265C41.5536 41.9239 41.4788 41.4982 41.4443 41.0207C41.4156 40.5432 41.4213 39.991 41.6226 39.3697C41.8585 38.6679 42.267 38.2767 42.4683 38.1731C42.6811 38.0523 42.7214 38.1559 42.6409 38.4263C42.5028 38.898 42.5143 39.3467 42.5948 39.8127C42.6754 40.2844 42.8364 40.7561 43.055 41.4464C43.3599 42.3783 43.7511 43.2182 43.8662 44.4838C43.941 45.3927 44.0215 46.3648 43.8317 47.337C43.6418 48.3035 43.1413 49.2296 42.4107 49.8164C42.2209 49.9947 41.939 50.2421 41.7032 50.455C40.6217 51.3524 39.3044 51.7837 38.01 52.1231C36.71 52.4338 35.3811 52.6467 34.0523 52.7214C31.3946 52.917 28.7311 52.7387 26.1079 52.3993C24.3937 52.1865 22.6736 51.9103 20.9824 51.5134C19.8836 51.2603 18.8022 50.9324 17.7379 50.5757C16.9671 50.2939 16.1962 50.0235 15.4484 49.6783C15.0745 49.5115 14.6948 49.3619 14.3209 49.1836L13.2164 48.6544C12.1119 48.1137 11.0074 47.5901 10.2423 46.7272C10.0755 46.5546 9.53474 46.2095 9.31614 46.1175C8.89045 45.9622 8.47627 45.7205 8.06208 45.4386C7.6709 45.1338 7.29123 44.7829 6.91156 44.4377C6.38808 43.9775 5.94511 43.4368 5.45614 42.942C5.00169 42.4128 4.5875 41.8548 4.15605 41.3141C3.78213 40.7273 3.37948 40.1578 3.03433 39.5538C2.72369 38.9325 2.35551 38.34 2.08514 37.6957C1.19924 35.8319 0.687248 33.8184 0.313329 31.7993L0.152275 30.6143L0.0717307 30.0218C0.054473 29.8204 0.0487218 29.6191 0.0372166 29.4177C0.0142063 29.015 -0.0145496 28.6066 0.00846071 28.2039C0.0257185 27.8012 0.0141992 27.3928 0.0659725 26.9901C0.198282 25.3737 0.566469 23.7687 1.13022 22.2443C2.0909 19.6901 3.5808 17.3718 5.27781 15.2836C5.67474 14.8062 6.03715 14.2999 6.46284 13.8455C7.22794 12.9941 8.06783 12.1312 8.91921 11.4812C9.87989 10.7736 10.599 10.2041 11.3238 9.35269C11.5309 9.11684 11.83 8.85224 12.1579 8.58762C12.4973 8.33451 12.8597 8.08714 13.1934 7.86279C14.0505 7.30479 14.9479 6.82735 15.8396 6.37865C16.9153 5.85517 17.922 5.38344 18.9805 4.6356C19.5442 4.22717 20.4244 3.84751 21.155 3.57139C22.7714 2.96161 24.3879 2.35178 26.0274 1.78803C27.6439 1.21277 29.3984 0.723825 31.1357 0.447701C35.8701 -0.28863 40.6275 -0.0354884 45.3043 0.620306C46.219 0.769873 47.1394 0.907922 48.0425 1.10926L49.4059 1.39689L50.7578 1.73052C56.355 3.15716 61.797 5.34894 66.6522 8.61066C67.1239 8.93855 67.5956 9.27219 68.0673 9.60584C68.5275 9.9625 68.9877 10.3076 69.4479 10.6355C71.5591 12.206 73.423 14.1792 74.7806 16.5205C76.4488 19.299 77.4095 22.5836 77.3289 25.8914C77.352 26.2768 77.2829 26.6565 77.2484 27.0419C77.2081 27.4216 77.1564 27.807 77.0931 28.1751C76.9378 28.8137 76.7307 29.435 76.5581 30.0678C76.4833 30.3784 76.3568 30.7006 76.2187 31.0227C76.0921 31.3449 75.9656 31.667 75.793 31.9604C75.1717 33.1914 74.3434 34.2901 73.3942 35.2278C71.4958 37.1147 69.2236 38.478 66.8305 39.4042C65.8583 39.7724 64.8689 40.0887 63.8506 40.3303C62.8324 40.572 61.7797 40.7216 60.7558 40.8079C58.6963 40.9747 56.6829 40.9057 54.681 40.7331C53.9044 40.664 53.1451 40.5778 52.3627 40.457C51.5919 40.3304 50.8383 40.198 50.0905 40.0427C48.6006 39.7551 47.1164 39.3812 45.7473 39.2834C45.5747 39.2834 45.3848 39.2949 45.2238 39.3064C44.4989 39.3237 44.148 39.4215 43.9007 39.4215C43.6533 39.3985 43.5037 39.2489 43.7108 38.7772C43.9179 38.386 44.4069 38.0236 45.0397 37.851C45.6725 37.6727 46.4146 37.6554 47.2142 37.759C48.9745 38.0006 50.6197 38.3802 52.2937 38.6218L52.3282 38.5528Z" fill="#EBC464"/>
<path d="M19.6884 43.5687C20.2234 45.6626 22.4324 46.7269 24.0604 46.9225C26.8274 47.2561 30.2904 45.3635 30.5665 42.2456C30.7679 39.9963 29.2607 37.632 27.0114 36.9589C24.279 36.1421 22.0354 38.2935 21.627 38.6847C21.161 39.1277 19.0671 41.1353 19.6884 43.5687Z" fill="#EBC464"/>
<path d="M20.9706 44.3628C21.0683 44.685 21.2467 44.9957 21.425 45.3408C21.5861 45.6457 21.7932 45.9678 22.1786 45.9793C22.2706 45.9851 22.3454 46.0541 22.4259 46.0944C22.5755 46.1634 22.7366 46.221 22.8919 46.2727C22.9667 46.29 23.0702 46.221 23.1278 46.2727C23.4039 46.5259 23.7605 46.6524 24.1172 46.5201C24.3588 46.7617 24.6522 46.6236 24.9111 46.5373C25.1699 46.4683 25.4518 46.4741 25.6819 46.2612C25.7394 46.2037 25.8142 46.1692 25.889 46.1864C26.3435 46.2785 26.7519 46.0714 27.1201 45.8528C27.517 45.617 27.9254 45.4386 28.4202 45.3178C28.679 45.243 28.8919 45.0704 29.0587 44.8748C29.2773 44.6505 29.4154 44.3686 29.5707 44.1098C29.772 43.7243 29.9273 43.2986 29.864 42.8614C29.8007 42.2804 29.6627 41.7742 29.4729 41.3025C29.3808 41.0666 29.3808 40.802 29.3348 40.5431C29.2313 40.0254 29.0529 39.4962 28.7308 39.0417C28.4892 38.7023 28.167 38.4262 27.8103 38.2364C27.4767 38.0523 27.1028 37.9717 26.7519 37.9027C25.7107 37.6899 24.6982 38.0063 23.7951 38.6448C23.5822 38.8001 23.3924 38.9899 23.2026 39.1798C23.1048 39.2718 23.007 39.3581 22.8977 39.4387C22.7136 39.5825 22.495 39.7666 22.3109 39.9334C22.1268 40.106 21.9485 40.2843 21.7932 40.4741C21.3445 41.0263 21.0511 41.6361 20.936 42.1999C20.8613 42.5163 20.8267 42.85 21.0511 43.1146C21.1086 43.1836 20.9878 43.2468 20.7117 43.2814C20.2342 43.3331 19.7395 43.3849 19.4116 43.1836C19.1987 43.0455 19.0434 42.8787 19.101 42.6543C19.1585 42.4933 19.1355 42.3322 19.1412 42.1711C19.1642 42.0101 19.1987 41.849 19.3713 41.7339C19.4231 41.6994 19.4231 41.6419 19.4173 41.5901C19.3656 41.1127 19.5209 40.6524 19.751 40.2612C19.9811 39.8643 20.2802 39.5249 20.5736 39.197C20.7635 38.9784 20.9245 38.7369 21.1201 38.5183C21.2467 38.3802 21.3732 38.2536 21.5228 38.1271C21.7356 37.9487 21.9772 37.8164 22.1786 37.6323C22.3339 37.5 22.4547 37.3044 22.7654 37.4482C22.8286 37.477 22.9092 37.408 22.9092 37.3332C22.8977 37.0341 23.0702 36.9765 23.2313 36.9018C23.6628 36.7062 24.1229 36.5854 24.5774 36.4646C24.9168 36.384 25.262 36.292 25.6244 36.2172C26.1824 36.0907 26.7864 36.0504 27.3904 36.1367C27.8966 36.2115 28.3569 36.4358 28.8113 36.6659C28.9149 36.7234 29.0414 36.7464 29.1392 36.8097C29.3233 36.9247 29.5361 37.034 29.6282 37.2354C29.7145 37.4712 29.8238 37.592 30.1344 37.5978C30.307 37.6035 30.4278 37.7531 30.5026 37.8912C30.5946 38.0695 30.6406 38.2766 30.6636 38.4837C30.6924 38.7368 30.7039 38.9555 30.9628 39.0935C31.1066 39.1683 31.1354 39.3581 31.1296 39.5192C31.1181 40.2153 31.2849 40.7905 31.4115 41.4348C31.5841 42.2919 31.5726 43.2584 31.2907 44.1673C31.2447 44.3514 31.1699 44.5182 31.0778 44.6793C30.9916 44.8403 30.911 45.0129 30.8017 45.1625C30.1804 46.1346 29.2428 46.8192 28.2648 47.2391C28.0692 47.3197 27.8679 47.3944 27.7011 47.521C27.3042 47.8144 26.8267 47.9467 26.3434 47.9697C25.7624 48.0042 25.2102 48.1538 24.6119 48.2631C24.4739 48.2861 24.3243 48.3264 24.1862 48.2977C23.2255 48.0963 22.2706 48.0388 21.4192 47.5613C20.7462 47.1644 20.1652 46.5891 19.728 45.9161C19.3828 45.3983 19.1642 44.8058 19.0549 44.2133C19.0492 44.173 19.0147 44.1443 19.0147 44.104C18.9801 43.7473 19.2908 43.592 19.8315 43.5863C20.3147 43.5747 20.5909 43.6208 20.6656 43.7933C20.7347 43.9947 20.8152 44.2018 20.9245 44.3974L20.9706 44.3628Z" fill="#EBC464"/>
<path d="M11.1617 34.7845C11.5356 34.7845 11.9268 34.7097 12.3467 34.6292C12.7264 34.5717 13.1175 34.4451 13.2959 34.0769C13.3361 33.9791 13.4397 33.9331 13.5145 33.8583C13.6468 33.726 13.7733 33.5879 13.8884 33.4384C13.9402 33.3693 13.9229 33.2371 13.9977 33.1968C14.3601 33.0012 14.642 32.6848 14.6765 32.2706C15.0159 32.1153 15.0044 31.7644 15.0504 31.4595C15.0964 31.1546 15.2402 30.8785 15.1539 30.5506C15.1309 30.4643 15.1367 30.378 15.1827 30.309C15.4646 29.8891 15.4761 29.3828 15.4301 28.9111C15.3841 28.3991 15.3956 27.9217 15.4646 27.3694C15.4876 27.0761 15.3955 26.7941 15.2632 26.541C15.1137 26.2361 14.8836 25.9773 14.665 25.7299C14.5212 25.5343 14.3141 25.3963 14.13 25.2467C13.9171 25.1259 13.71 25.0051 13.4684 24.9533C12.8414 24.7865 12.2431 24.729 11.6679 24.7347C11.524 24.7347 11.3802 24.706 11.2364 24.683C11.0926 24.6484 10.9488 24.6139 10.7993 24.6024C10.2125 24.5276 9.57393 24.5161 8.97566 24.683C8.52696 24.8095 8.10126 25.0339 7.75036 25.333C7.42246 25.6091 7.16934 25.9601 6.9565 26.2995C6.29495 27.3004 6.11088 28.566 6.28921 29.8143C6.32948 30.1077 6.42728 30.4068 6.51357 30.6541C6.54809 30.7404 6.59987 30.9073 6.62863 31.0338C6.76669 31.5458 6.96225 32.0693 7.24412 32.5295C7.65256 33.191 8.19332 33.7203 8.77433 34.0539C9.09648 34.2495 9.46463 34.4048 9.8443 34.2897C9.94785 34.261 9.97085 34.3991 9.90757 34.6637C9.78677 35.1296 9.66598 35.6129 9.34383 35.8545C9.13099 36.0041 8.90664 36.1018 8.69955 35.9638C8.41192 35.7567 7.97471 35.7969 7.8309 35.377C7.81364 35.3195 7.75037 35.2907 7.69284 35.2792C7.18662 35.1527 6.76093 34.8363 6.43878 34.4623C6.11089 34.0827 5.85203 33.6512 5.62193 33.2198C5.47236 32.9379 5.27675 32.6791 5.13294 32.3857C5.04665 32.1958 4.96038 32.006 4.90285 31.8047C4.81081 31.5113 4.77055 31.2122 4.69001 30.9015C4.63248 30.6772 4.51166 30.4643 4.77628 30.2342C4.8338 30.1882 4.80504 30.0732 4.73601 30.0386C4.47139 29.9006 4.47714 29.705 4.48865 29.5151C4.50591 29.0032 4.58646 28.4912 4.69001 27.9907C4.75904 27.6168 4.82229 27.2371 4.90858 26.8517C5.04664 26.2592 5.20772 25.6207 5.56438 25.0684C5.85201 24.6024 6.24896 24.2113 6.66314 23.8489C6.76094 23.7683 6.83571 23.6532 6.93926 23.5784C7.12909 23.4404 7.31893 23.2736 7.55479 23.2506C7.81941 23.2391 7.99197 23.1873 8.11277 22.8824C8.18755 22.7213 8.3889 22.6638 8.54997 22.635C8.76282 22.5947 8.99293 22.6408 9.20578 22.6753C9.46464 22.7213 9.7005 22.8076 9.93061 22.5948C10.0629 22.4912 10.2642 22.5315 10.4253 22.5832C11.1329 22.8364 11.7829 22.8767 12.4848 22.986C13.4224 23.1298 14.3889 23.4691 15.223 24.0731C15.5394 24.3205 15.8328 24.6081 16.0801 24.936C16.897 25.937 17.2076 27.2601 17.1789 28.4394C17.1789 28.6753 17.1559 28.9111 17.1904 29.1354C17.2939 29.6704 17.1788 30.194 16.9948 30.6772C16.7647 31.2582 16.6611 31.8565 16.5001 32.4777C16.4655 32.6215 16.4483 32.7826 16.362 32.9034C16.0801 33.3349 15.7982 33.7606 15.5163 34.192C15.2345 34.6062 14.9296 35.0146 14.5384 35.3425C13.8999 35.8775 13.1003 36.2572 12.2604 36.4758C11.6161 36.6598 10.92 36.6483 10.2873 36.5621C10.247 36.5563 10.201 36.5736 10.1607 36.5678C9.78677 36.4873 9.73501 36.1421 9.91909 35.6301C10.0802 35.1699 10.2355 34.9226 10.4541 34.9111C10.5749 34.8996 10.6957 34.8996 10.8223 34.8996L11.1962 34.8536L11.1617 34.7845Z" fill="#EBC464"/>
<path d="M20.5444 19.667C20.8263 19.8856 21.1484 20.0696 21.4993 20.2652C21.81 20.4493 22.1666 20.6103 22.5118 20.4263C22.5981 20.3745 22.7016 20.4148 22.7937 20.3975C22.9662 20.3745 23.1388 20.3515 23.3056 20.3055C23.3804 20.2825 23.4437 20.1731 23.5185 20.1904C23.9039 20.2709 24.2778 20.202 24.5309 19.8913C24.8761 19.9776 25.0659 19.7072 25.2615 19.4943C25.4628 19.2988 25.7217 19.155 25.8253 18.8616C25.8483 18.781 25.9001 18.712 25.9748 18.689C26.4293 18.5394 26.6997 18.154 26.924 17.7686C27.1771 17.3601 27.4417 16.9977 27.8156 16.6296C28.017 16.434 28.086 16.1636 28.1493 15.9047C28.1781 15.7494 28.1838 15.5884 28.1896 15.4331L28.1608 14.9671C28.1148 14.5241 27.9825 14.0812 27.6776 13.759C27.2807 13.3218 26.8377 13.0112 26.3833 12.7466C26.1532 12.62 25.9863 12.3956 25.7677 12.2231C25.342 11.8664 24.8358 11.5386 24.2778 11.343C23.8579 11.1992 23.4207 11.1589 22.9835 11.1876C22.5751 11.2164 22.1781 11.3545 21.7985 11.4695C20.6652 11.8204 19.7045 12.5222 19.227 13.4311C19.1062 13.6497 19.0372 13.8914 18.9739 14.1272C18.9394 14.2423 18.8992 14.3573 18.8531 14.4724C18.6863 14.898 18.5712 15.3582 18.5712 15.8357C18.5712 16.5145 18.7611 17.176 19.066 17.7513C19.2328 18.0792 19.4514 18.3956 19.8196 18.5164C19.9174 18.551 19.8598 18.6717 19.6527 18.8558C19.2903 19.1722 18.9107 19.5001 18.5252 19.5289C18.2721 19.5404 18.042 19.5116 17.9557 19.293C17.8464 18.9824 17.4667 18.8098 17.5703 18.3956C17.5876 18.3381 17.5473 18.2863 17.507 18.2518C16.7937 17.5557 16.7534 16.4972 16.8225 15.5883C16.8397 15.2834 16.8167 14.9786 16.8627 14.6679C16.88 14.4666 16.9375 14.2767 16.9893 14.0811C17.0813 13.805 17.2251 13.5462 17.3229 13.2758C17.392 13.0745 17.4322 12.8329 17.7659 12.8098C17.8349 12.8041 17.8867 12.7063 17.8522 12.6373C17.7199 12.3669 17.8464 12.2231 17.973 12.0908C18.2951 11.7111 18.6978 11.412 19.0832 11.1244C19.3766 10.9115 19.6643 10.6872 19.9634 10.4801C20.4293 10.1522 20.9298 9.8243 21.4878 9.6172C21.9538 9.45613 22.4543 9.38703 22.9547 9.33526C23.0698 9.32951 23.1906 9.27774 23.3056 9.27199C23.5185 9.26624 23.7601 9.23173 23.9499 9.34678C24.1628 9.48484 24.3181 9.53087 24.5712 9.35254C24.715 9.24899 24.8991 9.31229 25.0372 9.37557C25.2155 9.45611 25.3708 9.60569 25.5204 9.75526C25.6929 9.93359 25.8368 10.1119 26.1244 10.0601C26.2855 10.0256 26.4178 10.1694 26.5213 10.2902C26.947 10.8482 27.459 11.1933 27.9767 11.6363C28.667 12.2231 29.2941 13.0227 29.5932 13.9892C29.668 14.1732 29.691 14.3688 29.7198 14.5644C29.7543 14.76 29.7658 14.9555 29.76 15.1569C29.7888 16.3994 29.2596 17.527 28.598 18.4071C28.4657 18.5797 28.3104 18.7408 28.2241 18.9421C28.0055 19.4023 27.6431 19.7532 27.2231 20.0121C26.7227 20.3342 26.3085 20.7369 25.8368 21.1281C25.7275 21.2143 25.6239 21.3294 25.4916 21.3812C25.2558 21.456 25.0256 21.5365 24.7898 21.6343L24.088 21.8817C23.6335 22.0313 23.1561 22.152 22.6671 22.1578C21.8733 22.1693 21.0621 21.9737 20.3315 21.6343C19.7563 21.3812 19.2558 20.9843 18.8359 20.5701C18.8071 20.5413 18.7611 20.5356 18.7381 20.5068C18.508 20.2422 18.6633 19.9315 19.1063 19.6151C19.4974 19.3275 19.7678 19.2124 19.9346 19.3275C20.0324 19.3908 20.1245 19.4599 20.2223 19.5289L20.5271 19.7129L20.5444 19.667Z" fill="#EBC464"/>
<path d="M37.2158 14.6509C37.3251 14.9097 37.5494 15.1168 37.7623 15.3929C37.9579 15.6345 38.1995 15.8704 38.5274 15.7841C38.6079 15.7668 38.6827 15.8128 38.7632 15.8301C38.907 15.8589 39.0509 15.8819 39.1947 15.8934C39.2637 15.8934 39.3442 15.8071 39.4018 15.8474C39.6836 16.043 40 16.112 40.2992 15.9222C40.5408 16.1408 40.7766 15.9624 41.001 15.8646C41.2253 15.7726 41.4784 15.7783 41.6683 15.5597C41.7201 15.5022 41.7833 15.4735 41.8466 15.4907C42.2493 15.577 42.6059 15.4044 42.9223 15.2088C43.2675 15.0075 43.6184 14.881 44.0556 14.7947C44.2972 14.7544 44.4525 14.5818 44.6078 14.4265C44.6884 14.323 44.7574 14.2136 44.8264 14.0986C44.8782 13.9778 44.9243 13.857 44.9875 13.7477C45.1256 13.4083 45.1888 13.0343 45.068 12.6719C44.9185 12.1945 44.7056 11.7975 44.4755 11.4351C44.3605 11.2568 44.3432 11.0325 44.2742 10.8196C44.1362 10.3997 43.9348 9.96249 43.6184 9.61159C43.3768 9.35272 43.0777 9.15138 42.7498 9.03633C42.4449 8.92703 42.1285 8.90397 41.8351 8.90972C40.9722 8.88095 40.1726 9.27213 39.4765 9.91642C39.3097 10.0775 39.1717 10.2616 39.0221 10.4457C38.9473 10.532 38.8668 10.6182 38.7805 10.6988C38.6251 10.8426 38.4526 11.0037 38.2858 11.182C38.1247 11.3431 37.9751 11.5099 37.8486 11.6825C37.4746 12.1715 37.2215 12.7179 37.1295 13.1436C37.0777 13.3795 37.0604 13.6096 37.2675 13.7246C37.3193 13.7534 37.2043 13.8167 36.9397 13.8972C36.4852 14.0238 35.9962 14.1446 35.6511 14.0008C35.444 13.8973 35.2484 13.7534 35.3232 13.5463C35.4095 13.2645 35.2196 12.925 35.5648 12.7122C35.6108 12.6834 35.6108 12.6316 35.5993 12.5799C35.4958 11.7055 36.0768 11.0382 36.56 10.4745C36.7211 10.2846 36.8419 10.0545 36.9914 9.86467C37.0892 9.73811 37.1928 9.6173 37.3136 9.50225C37.4804 9.33543 37.6875 9.20315 37.8428 9.03057C37.9636 8.89826 38.0442 8.71413 38.3433 8.83493C38.4066 8.86369 38.4698 8.79469 38.4526 8.71991C38.395 8.43228 38.5389 8.369 38.6712 8.28846C39.0278 8.08137 39.4075 7.91453 39.7929 7.77072C40.0748 7.65567 40.3624 7.52911 40.6673 7.41406C41.1333 7.23573 41.6625 7.06894 42.209 7.08619C42.6692 7.08044 43.1064 7.22426 43.5379 7.37382C43.6357 7.41409 43.7507 7.40835 43.8485 7.45437C44.0268 7.5349 44.2282 7.6039 44.326 7.77648C44.4295 7.97782 44.5273 8.08715 44.8207 8.02387C44.9818 7.9951 45.1026 8.12165 45.1831 8.23095C45.2924 8.36901 45.3384 8.57037 45.3845 8.7487C45.442 8.9673 45.4477 9.18013 45.7181 9.24341C45.8619 9.28368 45.8964 9.45625 45.9137 9.59431C45.9597 10.2271 46.1841 10.6988 46.3912 11.2453C46.6615 11.9759 46.8168 12.8273 46.6615 13.7017C46.6443 13.8742 46.5752 14.0411 46.5177 14.2021C46.4602 14.369 46.3911 14.53 46.2991 14.6796C46.0575 15.1801 45.6721 15.5712 45.2752 15.9049C44.8667 16.2155 44.4295 16.4686 43.9808 16.6355C43.8083 16.7103 43.6242 16.7563 43.4804 16.8771C43.1352 17.1475 42.7268 17.2452 42.3126 17.2682C41.8178 17.2855 41.3692 17.4581 40.8859 17.6076C40.7709 17.6421 40.6558 17.7054 40.5408 17.6939C39.7066 17.5961 38.9358 17.74 38.1304 17.5041C37.4976 17.3028 36.8821 16.9346 36.3356 16.4399C35.9157 16.0545 35.5763 15.5483 35.3807 15.0075C35.3692 14.973 35.3347 14.9442 35.3232 14.9097C35.2427 14.576 35.536 14.3977 36.0653 14.2999C36.5427 14.2078 36.7958 14.1791 36.8764 14.2884C36.9511 14.4208 37.0375 14.5703 37.1525 14.7084L37.2158 14.6509Z" fill="#EBC464"/>
<path d="M55.1175 19.5408C55.1521 19.8285 55.2441 20.0873 55.2959 20.398C55.3361 20.6741 55.4397 20.9617 55.7388 20.9904C55.8136 20.9904 55.8539 21.0595 55.9114 21.094C56.0092 21.163 56.1242 21.2148 56.2335 21.2608C56.2853 21.2839 56.3774 21.2091 56.4119 21.2551C56.5729 21.5024 56.8433 21.606 57.1079 21.4564C57.2805 21.6923 57.4991 21.5369 57.6832 21.4449C57.8615 21.3586 58.0744 21.3643 58.2009 21.1458C58.2354 21.0882 58.2814 21.0595 58.339 21.071C58.6841 21.1342 58.9545 20.9272 59.1846 20.7143C59.432 20.4784 59.7081 20.3117 60.0935 20.1851C60.2949 20.1103 60.4214 19.9492 60.525 19.7766C60.6515 19.581 60.709 19.3452 60.7838 19.1266C60.8931 18.8102 60.9277 18.4708 60.8126 18.1429C60.663 17.7057 60.4905 17.3203 60.3064 16.9751C60.2143 16.8025 60.2316 16.607 60.2028 16.4114C60.1396 16.0317 60.0475 15.6291 59.8289 15.2954C59.6621 15.0538 59.4205 14.8697 59.1616 14.7374C58.9142 14.6281 58.6381 14.5936 58.385 14.5706C57.6314 14.4728 56.8951 14.7086 56.3198 15.1688C56.1818 15.2781 56.0725 15.4277 55.9689 15.56C55.9114 15.6233 55.8596 15.6865 55.7906 15.7383C55.5547 15.9339 55.3362 16.164 55.2038 16.4114C55.014 16.768 54.9622 17.1822 54.9852 17.6367C54.9967 17.8956 55.0255 18.1774 55.2614 18.396C55.3304 18.465 55.2211 18.5399 54.945 18.5974C54.4733 18.6952 53.9843 18.816 53.6564 18.7239C53.4378 18.6607 53.2595 18.5743 53.294 18.396C53.3458 18.1486 53.0869 17.9186 53.3573 17.6597C53.3918 17.6252 53.3803 17.5791 53.363 17.5389C53.0006 16.8428 53.34 16.0605 53.7197 15.468C53.8462 15.2724 53.9267 15.0423 54.0591 14.8525C54.1396 14.7201 54.2489 14.6109 54.3524 14.5016C54.5135 14.352 54.7033 14.2311 54.8587 14.0816C54.9737 13.9608 55.06 13.7939 55.3361 13.9493C55.3937 13.9838 55.4512 13.9263 55.4454 13.8515C55.4109 13.5696 55.549 13.5236 55.6755 13.4661C56.0264 13.328 56.3831 13.2244 56.7455 13.1496C57.0159 13.0806 57.2863 13.0116 57.5624 12.9368C57.9938 12.8333 58.477 12.724 58.9603 12.7815C59.3687 12.8218 59.7484 12.9828 60.1281 13.1496C60.2143 13.1957 60.3236 13.2014 60.4042 13.2532C60.5595 13.3395 60.7436 13.42 60.8069 13.5984C60.8816 13.7939 60.9507 13.9032 61.2383 13.8745C61.4051 13.8572 61.4972 13.9895 61.5547 14.1046C61.6295 14.2542 61.6582 14.4325 61.6582 14.6108C61.664 14.8237 61.6525 15.0077 61.8883 15.1055C62.0149 15.1573 62.0379 15.3126 62.0149 15.4449C61.9574 16.0202 62.0839 16.4632 62.222 16.9522C62.4061 17.608 62.5154 18.3212 62.4291 19.0748C62.3888 19.3682 62.2968 19.6501 62.1875 19.9204C61.8538 20.7718 61.2095 21.4506 60.4732 21.9281C60.3236 22.0201 60.1741 22.1064 60.059 22.2388C59.7944 22.5609 59.3975 22.7162 58.989 22.7852C58.4943 22.8543 58.0456 23.0499 57.5221 23.1764C57.4013 23.1994 57.2747 23.2512 57.1539 23.2282C56.3256 23.0729 55.3994 22.9579 54.7264 22.4114C54.1971 21.9742 53.8807 21.3931 53.6449 20.8466C53.4666 20.4209 53.3688 19.9837 53.2997 19.5523C53.294 19.5235 53.2652 19.5062 53.2595 19.4775C53.2365 19.2186 53.5413 19.0461 54.0648 18.9656C54.525 18.8908 54.8127 18.8965 54.8759 19.046C54.9392 19.2129 54.991 19.3912 55.06 19.5638L55.1175 19.5408Z" fill="#EBC464"/>
<path d="M61.7156 28.1641C61.6753 28.4172 61.7041 28.6646 61.6926 28.958C61.6753 29.2226 61.7099 29.516 61.9917 29.585C62.0665 29.6023 62.078 29.677 62.1298 29.7173C62.2161 29.7978 62.2966 29.8784 62.4002 29.9359C62.4462 29.9647 62.5497 29.9186 62.567 29.9704C62.659 30.2408 62.8719 30.4133 63.1595 30.3386C63.2458 30.6204 63.4932 30.5227 63.683 30.5054C63.8728 30.4766 64.0569 30.5515 64.2468 30.3961C64.2928 30.3559 64.3445 30.3386 64.3906 30.3673C64.6724 30.5687 64.9773 30.4536 65.2477 30.3501C65.5411 30.2293 65.8287 30.1775 66.2141 30.2063C66.4212 30.2178 66.5823 30.1085 66.7204 29.9934C66.8929 29.8554 67.0138 29.6655 67.1403 29.4929C67.3244 29.2456 67.4509 28.9522 67.4337 28.6243C67.4107 28.1929 67.3359 27.8189 67.2553 27.4795C67.2151 27.3127 67.2784 27.1459 67.3014 26.9675C67.3416 26.6224 67.3531 26.237 67.2323 25.8803C67.1461 25.6099 66.9677 25.3856 66.7664 25.2073C66.5766 25.0347 66.3292 24.9427 66.1106 24.8564C65.7884 24.7126 65.449 24.6493 65.0981 24.6436C64.7587 24.632 64.356 24.6953 64.0972 24.7988C63.9821 24.8563 63.8383 24.9599 63.7233 25.0404C63.6658 25.0922 63.5967 25.1153 63.5277 25.144C63.2746 25.2476 63.0099 25.3913 62.8028 25.5927C62.5037 25.8861 62.2966 26.2542 62.1758 26.6282C62.1068 26.8353 62.0262 27.0711 62.1873 27.284C62.2276 27.3415 62.101 27.3645 61.8249 27.353C61.3474 27.3185 60.847 27.2839 60.5651 27.0941C60.3752 26.9675 60.2487 26.8237 60.335 26.6742C60.4731 26.4728 60.312 26.168 60.6629 26.0471C60.7089 26.0299 60.7089 25.9838 60.7089 25.9436C60.6341 25.2015 61.1921 24.655 61.6926 24.2466C61.8537 24.1028 61.9917 23.9244 62.1643 23.7864C62.2736 23.6943 62.3944 23.6138 62.5267 23.5505C62.7108 23.4528 62.9237 23.4067 63.102 23.3089C63.2401 23.2399 63.3666 23.0961 63.5737 23.3377C63.6197 23.3895 63.6887 23.355 63.7002 23.2802C63.7463 22.9926 63.9074 22.9983 64.0339 22.9926C64.3906 22.9696 64.7357 23.0156 65.0809 23.0443C65.334 23.0673 65.5986 23.0788 65.869 23.0846C66.2889 23.1018 66.7549 23.1421 67.1806 23.3147C67.543 23.4585 67.8479 23.7058 68.1413 23.959C68.2103 24.0165 68.3081 24.051 68.3713 24.1143C68.4806 24.2408 68.6417 24.3444 68.6475 24.5285C68.6475 24.7298 68.6993 24.8448 68.9754 24.8794C69.1307 24.9024 69.194 25.0404 69.2112 25.1612C69.24 25.3165 69.2227 25.4834 69.1767 25.6503C69.1307 25.8516 69.0674 26.0184 69.2745 26.1565C69.3896 26.2313 69.3608 26.3808 69.309 26.5016C69.1019 27.0194 69.1249 27.4623 69.1249 27.957C69.1249 28.6128 69.0214 29.3261 68.7165 29.9819C68.5957 30.235 68.4231 30.4652 68.239 30.678C67.6695 31.3626 66.8412 31.7652 66.0186 31.9435C65.8517 31.9723 65.6907 31.9953 65.5411 32.0758C65.1902 32.2657 64.7875 32.2887 64.4078 32.1909C63.9534 32.0874 63.4989 32.1219 63.0157 32.0816C62.9006 32.0701 62.7741 32.0931 62.6821 32.0356C62.0205 31.6444 61.2439 31.4028 60.7434 30.7873C60.3465 30.3041 60.1337 29.7 60.0186 29.1133C59.9266 28.6588 59.9381 28.1986 59.9956 27.7614C59.9956 27.7326 59.9726 27.7039 59.9783 27.6751C60.0359 27.4162 60.3753 27.353 60.8987 27.4278C61.3647 27.4911 61.6351 27.5601 61.6466 27.6981C61.6581 27.8535 61.6581 28.0088 61.6754 28.1699L61.7156 28.1641Z" fill="#EBC464"/>
</svg>
