<svg width="206" height="148" viewBox="0 0 206 148" fill="none" xmlns="http://www.w3.org/2000/svg">
<path d="M1.36874 26.2994C1.34573 26.098 1.51257 25.9312 1.70815 25.9542C10.5441 26.8401 19.9841 27.4154 29.9591 27.5247C34.101 27.5707 38.145 27.5362 42.0856 27.4269C42.1603 27.4269 42.2294 27.4499 42.2926 27.4959C42.9139 28.0137 45.8822 30.2917 49.7595 29.4691C52.7163 28.842 54.3788 26.7941 54.8505 26.1671C54.8678 26.1383 54.8908 26.1211 54.9196 26.1038C58.5725 23.5612 62.3519 20.7712 66.2004 17.7165C71.5848 13.4424 76.44 9.1797 80.7947 5.05509C80.9903 4.87101 81.3124 5.00332 81.3182 5.27369C81.577 15.496 82.2271 26.3914 83.4351 37.8678C84.2175 45.3404 85.1782 52.5024 86.2654 59.348C86.2884 59.4746 86.2251 59.6011 86.1101 59.6701C80.95 62.6155 75.7842 65.5665 70.6241 68.5119C68.1563 69.9212 65.6942 71.3249 63.2263 72.7343C63.186 72.7573 63.1457 72.7918 63.1227 72.8321C60.9713 76.2261 57.583 78.1532 54.4018 77.6872C53.0212 77.4859 51.911 76.8646 51.0941 76.2318C51.0481 76.1973 50.9963 76.1743 50.9388 76.1686C45.7959 75.6681 40.3713 75.2884 34.6992 75.0871C25.5469 74.7649 16.9812 74.9375 9.0887 75.4265C8.92762 75.438 8.78956 75.3287 8.7608 75.1734C7.60453 68.9491 6.50005 62.581 5.47033 56.0748C3.85961 45.8697 2.502 35.9407 1.36874 26.2994Z" fill="#C0E3EB"/>
<path d="M13.2072 26.0695C16.5379 26.3974 19.9032 26.639 23.2052 26.9094C26.1562 27.1337 29.0555 27.3868 32.0814 27.174C32.8637 27.1279 33.7036 27.1567 34.5205 27.151C35.9989 27.1337 37.483 27.1165 38.9615 27.0992C39.6345 27.0877 40.3421 26.9841 40.9691 27.0129L41.9241 27.0474C42.1427 27.0474 42.367 27.0647 42.5281 27.2315L42.9768 27.5939C43.2414 27.7952 43.5175 27.9908 43.8109 28.1577C44.3862 28.5028 45.0074 28.7847 45.6517 28.9803C46.9345 29.3887 48.3267 29.429 49.6095 29.0896C50.5932 28.986 51.5481 28.6236 52.3765 28.0771C53.2106 27.5191 53.9124 26.8346 54.5107 25.9947C54.6258 25.8279 54.8386 25.684 54.9594 25.592L55.3678 25.2871C57.3065 23.8432 59.3256 22.4396 61.1319 20.8691C61.6094 20.4549 62.1789 20.0005 62.7081 19.6381C65.9123 17.4176 68.9037 14.9152 71.8548 12.3323C74.5297 9.98525 77.2047 7.64394 79.8681 5.31414C79.9659 5.22785 80.0464 5.18184 80.127 5.13007L80.3686 4.9805L80.8518 4.68137C80.9783 4.55481 81.2315 4.56056 81.3983 4.71013C81.5651 4.84819 81.5076 5.0898 81.5421 5.3084C81.5881 5.94694 81.6342 6.5567 81.6629 7.20099C81.6744 7.79926 81.6802 8.39753 81.6917 9.00155C81.7204 10.1463 81.7665 11.3026 81.8125 12.4416C81.9276 15.1568 82.1346 17.872 82.3245 20.5815C82.5948 24.522 82.9573 28.4223 83.4692 32.3053C84.1538 37.4999 84.8959 42.7174 85.6955 47.9293C86.1039 50.5812 86.4145 53.2965 86.7827 55.9714L87.2199 59.0606C87.2544 59.2964 87.2429 59.515 87.2027 59.7106C87.1566 59.9177 87.0301 60.1248 86.8805 60.2571C86.7367 60.4067 86.5354 60.5332 86.3283 60.6425L85.799 60.9359L84.3321 61.747L81.3925 63.3635L75.5249 66.6195C71.964 68.6156 68.4262 70.6635 64.8941 72.7114L63.7839 73.3615C63.7379 73.3845 63.7206 73.442 63.6919 73.4765L63.5078 73.7584C63.3755 73.9713 63.2144 74.1726 63.0648 74.3739C62.4493 75.1851 61.7417 75.9271 60.9363 76.5772C59.3429 77.8715 57.2835 78.7689 55.0745 78.7114C54.2633 78.6826 53.4523 78.5388 52.6929 78.2512C52.3132 78.1131 51.9451 77.9405 51.5942 77.7507C51.4158 77.6529 51.249 77.5493 51.0822 77.4458C50.9326 77.3538 50.691 77.1812 50.7025 77.187C50.668 77.1467 50.6105 77.1467 50.5587 77.1467L50.087 77.1064L49.0342 77.0201L46.9288 76.8591C44.1216 76.652 41.3143 76.4966 38.507 76.3816C32.8867 76.1515 27.2607 76.1055 21.6462 76.2378C18.9482 76.301 16.2503 76.4449 13.5581 76.5944C12.885 76.6347 12.2119 76.6692 11.5389 76.7095L10.5264 76.767L9.86491 76.8073C9.53126 76.8188 9.18036 76.8705 8.86396 76.836C8.57058 76.79 8.35772 76.7095 8.12762 76.5657C8.01256 76.4909 7.90327 76.3931 7.81123 76.301C7.71919 76.209 7.6559 76.1112 7.58687 75.9962C7.44881 75.7718 7.36827 75.4669 7.328 75.162L7.18994 74.3452L6.87932 72.4814L6.25803 68.7479L5.00973 61.2868L4.10081 55.9484L3.27243 50.5927C2.73744 47.0204 2.22545 43.448 1.74798 39.8642C1.20724 35.8029 0.724056 31.7415 0.0912718 27.709C-0.0870584 26.5757 -0.000790649 26.196 0.321354 26.5872C0.885108 27.266 1.44885 27.7895 1.96659 29.6994C2.31749 30.9937 2.61662 32.2017 2.75469 33.8412C2.95603 36.2228 3.50831 38.6907 3.54282 41.055C3.54858 41.3886 3.62909 41.8661 3.69812 42.2515C4.99245 49.1718 5.88987 56.1785 7.09216 63.1391C7.47183 65.4171 7.91479 67.6837 8.32322 69.956L9.07681 74.2934C9.11132 74.4775 9.12282 74.6616 9.18035 74.8399C9.22637 74.9262 9.32415 74.9607 9.41619 74.9492L9.69234 74.9377L11.1592 74.8687C12.2465 74.8169 13.3395 74.7651 14.4209 74.7191C16.0604 74.6328 17.6539 74.489 19.1381 74.7421C19.4487 74.7939 20.3116 74.7594 20.6107 74.6903C21.767 74.4027 23.1246 74.42 24.488 74.42C28.1524 74.4315 31.8168 74.535 35.4812 74.6731C38.1906 74.7824 40.9058 74.8917 43.6096 75.001C45.7093 75.0987 47.8032 75.2081 49.8914 75.3404L50.6738 75.3922C50.8578 75.4094 51.0707 75.4094 51.2548 75.4669C51.4446 75.5302 51.5941 75.6625 51.7667 75.7718C52.1637 76.0364 52.5721 76.2608 53.0035 76.4391C53.8607 76.79 54.7753 76.9338 55.6842 76.8533C57.2087 76.7267 58.6871 76.0249 59.9124 75.0125C60.5279 74.5062 61.0859 73.9137 61.5806 73.2752C61.7014 73.1084 61.828 72.953 61.9373 72.7862L62.1041 72.5331L62.2422 72.326C62.294 72.2455 62.3515 72.1707 62.409 72.1017C62.5298 71.9636 62.6909 71.8658 62.8577 71.7738L63.1799 71.5839L63.7494 71.2503C64.4512 70.8361 65.1185 70.3932 65.8203 69.9847C67.1089 69.2369 68.4377 68.4027 69.7033 67.7872C71.1069 67.1027 72.1711 66.5217 73.3044 65.607C73.9372 65.095 75.059 64.468 75.9794 63.9733C77.1587 63.3347 78.3552 62.7537 79.5402 62.1785C80.9611 61.4881 82.29 60.8553 83.6763 59.8659C84.0215 59.6185 84.4529 59.3597 84.9016 59.1123C84.9592 59.0835 85.0167 59.0606 85.0857 59.0318C85.1605 58.9973 85.1375 58.9225 85.149 58.8592C85.149 58.8362 85.149 58.8189 85.1547 58.7959C85.1547 58.7614 85.1605 58.7902 85.1547 58.6981L85.1317 58.4853L85.0914 58.0596L85.0052 57.2082L84.8153 55.4997C84.6715 54.3607 84.5335 53.2217 84.3896 52.0827C84.0733 49.8046 83.7569 47.5209 83.4462 45.2428C82.5776 39.0473 81.8067 32.846 81.2142 26.6102C80.9841 24.1711 80.8058 21.709 80.6447 19.2584C80.4664 16.6065 80.3341 13.9545 80.2363 11.3026L80.127 7.74749L80.1327 7.52315C80.1327 7.47138 80.0752 7.47138 80.0579 7.50589L79.9717 7.57492L79.8911 7.63819L79.8681 7.65545L79.7933 7.72448L79.4654 8.01786L78.1596 9.19139L75.5192 11.5039C74.3802 12.4876 73.2066 13.4656 72.1079 14.455C69.5652 16.756 66.8903 18.873 64.129 20.8922C61.339 22.9631 58.5606 25.0225 55.7821 27.0819C55.7936 27.0762 55.736 27.151 55.69 27.2085L55.5462 27.3868L55.2528 27.732C55.0514 27.9563 54.8444 28.1749 54.6258 28.382C53.8492 29.1298 52.9345 29.7972 51.9278 30.2228C50.1215 30.9822 48.0736 31.1893 46.1637 30.7923C45.2088 30.5968 44.2999 30.2689 43.4485 29.8432C43.0228 29.6303 42.6086 29.3945 42.2117 29.1241C42.1139 29.0608 42.0161 28.986 41.9125 28.917L41.7745 28.8135C41.763 28.8077 41.763 28.8077 41.763 28.8077C41.7572 28.802 41.7457 28.802 41.7342 28.8077L37.1609 28.894C35.5732 28.917 33.9797 28.9343 32.392 28.94C27.0881 28.9515 21.7958 28.6121 16.5207 28.2325C12.4478 27.9276 8.39223 27.5076 4.34241 27.0301C4.07779 27.0014 3.79593 26.9956 3.53131 26.9611C2.95605 26.8863 2.47857 26.8058 2.1104 26.7195C2.01836 26.6965 1.9321 26.6735 1.85156 26.6505C1.81129 26.639 1.77102 26.6275 1.7365 26.616L1.68471 26.5987L1.67323 26.593H1.66747L1.69623 26.2881V26.2823C1.69048 26.2593 1.70198 26.2823 1.69623 26.2766C1.66747 26.2766 1.78827 26.2708 1.6272 26.2823C1.57543 26.2823 1.51215 26.2593 1.48339 26.173C1.45462 26.0982 1.47763 25.9372 1.66172 25.8509C2.71444 25.477 4.22735 25.3734 6.31554 25.5575C8.61082 25.7646 10.9004 25.9774 13.1956 26.15L13.2072 26.0695Z" fill="#A0D0DB"/>
<path d="M56.2088 27.9335C56.2203 28.526 56.2778 29.1128 56.2376 29.7053C56.1915 30.2346 56.1455 30.7523 56.4044 31.2298C56.4734 31.3506 56.4619 31.5001 56.4907 31.6382L56.646 32.386C56.6748 32.5011 56.7898 32.5989 56.7783 32.7139C56.715 33.2604 56.7668 33.7897 57.0314 34.2786C56.8876 34.7216 57.1177 35.0955 57.2558 35.4924C57.3938 35.8894 57.4168 36.315 57.6527 36.689C57.716 36.7868 57.7505 36.9076 57.739 37.0226C57.6699 37.7129 57.8483 38.363 58.0036 39.0187C58.1704 39.7206 58.2279 40.4396 58.1417 41.1817C58.0956 41.5729 58.1647 41.9698 58.228 42.3552C58.3027 42.8154 58.4408 43.2642 58.5271 43.7244C58.6594 44.3859 58.8262 45.0417 59.0851 45.6803C59.4302 46.5316 59.7351 47.4003 59.9883 48.2747C60.1206 48.7176 60.1206 49.1951 60.1608 49.6553C60.2356 50.5814 60.2759 51.5191 60.3737 52.4395C60.4484 53.1356 60.5807 53.8202 60.7188 54.5047C60.8511 55.1433 61.0409 55.7703 61.1848 56.4088L62.4273 62.0694C62.5251 62.5238 62.6632 62.9668 62.7725 63.4212C62.83 63.6456 62.8703 63.8757 62.8991 64.1058C63.0199 64.9572 63.1177 65.8086 63.2615 66.6542C63.4571 67.868 63.7044 69.0645 63.9345 70.2553C64.0553 70.9398 64.1934 71.5899 64.4925 72.2112C64.5788 72.3838 64.4695 72.4758 64.1819 72.4758C63.6929 72.4758 63.1867 72.5046 62.83 72.2457C62.5884 72.0731 62.3986 71.8948 62.3986 71.6014C62.3986 71.1757 62.0937 70.8018 62.3008 70.3416C62.3295 70.2783 62.3008 70.1978 62.2663 70.1345C61.6967 69.0185 61.6565 67.7874 61.4724 66.5909C61.4091 66.1997 61.2941 65.8201 61.2136 65.4289C61.1618 65.1758 61.1157 64.9227 61.0755 64.6695C61.0237 64.3014 61.0065 63.9217 60.9202 63.5593C60.8569 63.2832 60.7188 63.0301 60.9604 62.7367C61.0122 62.6734 60.9719 62.5296 60.8971 62.4893C60.6038 62.334 60.598 62.1039 60.5692 61.8738C60.4887 61.2525 60.4312 60.6255 60.3219 60.0099C60.2413 59.5555 60.132 59.101 59.994 58.6581C59.7811 57.9678 59.5223 57.2832 59.3209 56.5872C59.1541 56.0062 59.0448 55.4136 58.901 54.8269C58.8665 54.6888 58.7917 54.5623 58.7629 54.4299C58.7112 54.1768 58.6076 53.9237 58.6594 53.6706C58.7169 53.3887 58.7054 53.1816 58.4408 52.9745C58.2912 52.8595 58.2682 52.6409 58.2625 52.4625C58.2567 52.2324 58.3085 51.9908 58.3603 51.755C58.4235 51.4731 58.4926 51.2085 58.274 50.9496C58.1589 50.8115 58.1819 50.5872 58.2164 50.4031C58.3718 49.592 58.2279 48.8154 58.0266 48.0503C57.7562 47.0148 57.4456 45.9794 57.1637 44.9439C57.0544 44.5355 56.9796 44.1271 56.8934 43.7129C56.6345 42.4358 56.4907 41.1357 56.3584 39.8414C56.3296 39.5882 56.3123 39.3236 56.226 39.0878C56.0189 38.5298 55.9442 37.9603 55.9269 37.3735C55.9039 36.6659 55.691 35.9987 55.4725 35.3314C55.4207 35.176 55.3344 35.0265 55.3286 34.8654C55.2596 33.7494 54.8454 32.6909 54.6728 31.6037C54.5405 30.7178 54.506 29.8146 54.4198 28.9287L54.345 27.8933L54.2414 26.8808C54.2356 26.8348 54.2012 26.8003 54.2012 26.7542C54.1724 26.3688 54.4657 26.1387 55.0065 26.1617C55.4897 26.1847 55.8176 26.3688 55.9039 26.7312C56.0017 27.1282 56.0765 27.5366 56.1283 27.9278L56.2088 27.9335Z" fill="#A0D0DB"/>
<path d="M6.59872 22.0777C7.62268 22.4459 8.66388 22.7738 9.67058 23.165C10.5737 23.5159 11.4596 23.8553 12.4491 23.8955C12.7022 23.9071 12.9668 23.9991 13.2257 24.0451C13.6974 24.1372 14.1634 24.2292 14.6408 24.304C14.8594 24.3385 15.101 24.2867 15.2909 24.3557C16.24 24.6952 17.2122 24.908 18.2247 24.8965C18.9552 25.2416 19.7376 25.2014 20.5199 25.2532C21.3023 25.2992 22.0847 25.4602 22.8728 25.397C23.0799 25.3797 23.3157 25.397 23.5171 25.4545C24.7424 25.8054 26.0022 25.8802 27.2678 25.9722C28.6254 26.0643 29.9657 26.2483 31.2946 26.5647C32.0021 26.7316 32.7557 26.7834 33.4921 26.8294C34.3722 26.8869 35.2523 26.8754 36.1325 26.9041C37.4095 26.9444 38.6751 26.9272 39.9464 26.8121L40.585 26.7488C40.8208 26.7316 40.9474 26.7086 41.3213 26.6913L42.3223 26.6395L42.8457 26.6165L42.9148 26.6108C42.932 26.6165 42.9263 26.6453 42.932 26.6625L42.9608 26.7776L43.0126 27.0134L43.2312 28.0029L43.3405 28.4976L43.4153 28.8083L43.7086 30.0566C43.9042 30.9022 43.9848 31.7881 44.0941 32.6567C44.3127 34.3998 44.5082 36.1428 44.7613 37.8858C44.9569 39.1917 45.2043 40.4917 45.4689 41.7861C45.7163 42.9941 46.0212 44.1907 46.28 45.393L48.5696 56.1158L49.1678 58.6814C49.2656 59.1071 49.3462 59.5443 49.421 59.9757L50.2436 64.7907L51.5264 71.6708C51.7622 72.9766 51.9751 74.2709 52.3778 75.5538C52.4238 75.7608 52.4411 76.0255 52.3893 76.2901C52.3375 76.5547 52.2225 76.8021 52.0959 76.9747C51.8313 77.3198 51.6184 77.4061 51.5149 77.4521C51.4861 77.4636 51.4631 77.4694 51.4458 77.4694C51.5091 77.4521 51.256 77.5269 51.0259 77.5097C50.7901 77.5039 50.5197 77.4061 50.3356 77.2795C49.9674 77.0034 49.9099 76.7676 49.8754 76.6755C49.8466 76.572 49.8582 76.5547 49.8812 76.5835C49.9099 76.618 49.9387 76.7158 50.1055 76.9229C50.1918 77.0207 50.3299 77.153 50.5254 77.245C50.721 77.3428 50.9684 77.3716 51.1582 77.3486C51.2445 77.3371 51.3596 77.3083 51.3826 77.2968L51.3883 77.2795L51.4056 77.2393C51.4171 77.2105 51.4343 77.176 51.4516 77.1472C51.5724 76.9114 51.676 76.6007 51.6414 76.3016C51.6127 76.014 51.4516 75.7781 51.3251 75.7206C51.0777 75.6055 50.8476 75.4445 50.6462 75.1568C50.3759 74.7714 50.1573 74.4032 50.1228 73.8683C50.0767 73.0917 49.7086 72.3323 49.8466 71.5269C49.8639 71.4119 49.8236 71.2623 49.7833 71.1415C49.0355 68.9671 48.7824 66.6833 48.3912 64.4283C48.2647 63.6919 48.0748 62.9671 47.9253 62.2308C47.8275 61.7533 47.7354 61.2816 47.6492 60.8041C47.5284 60.1081 47.4478 59.4062 47.2925 58.7217C47.1774 58.204 46.9934 57.715 47.1832 57.1915C47.2235 57.0822 47.1602 56.8118 47.0739 56.7256C46.746 56.4034 46.6942 55.9662 46.6252 55.5348C46.4296 54.367 46.257 53.1935 46.0384 52.0314C45.8774 51.1685 45.676 50.3114 45.4574 49.4658C45.118 48.1485 44.7268 46.8484 44.3989 45.5253C44.1228 44.4208 43.91 43.299 43.6569 42.1888C43.5993 41.9299 43.4958 41.6883 43.444 41.4294C43.3462 40.9577 43.1966 40.4687 43.2081 40.0028C43.2196 39.4908 43.1736 39.0996 42.863 38.6797C42.6904 38.4438 42.6329 38.0354 42.5926 37.696C42.5466 37.2646 42.5639 36.8216 42.5754 36.3901C42.5926 35.8724 42.6214 35.3835 42.3568 34.8715C42.213 34.5954 42.2014 34.1869 42.2072 33.8475C42.2417 32.3461 41.9656 30.8792 41.6607 29.418L41.5112 28.722L41.4249 28.4688C41.4076 28.4343 41.4018 28.3883 41.3788 28.3653L41.2408 28.3883L40.9992 28.4343C40.0442 28.4746 38.98 28.5149 37.9791 28.5321C37.1795 28.5494 36.3799 28.5149 35.5802 28.4919C33.0894 28.4171 30.6157 28.1525 28.1479 27.8246C27.6647 27.7555 27.1757 27.6865 26.6925 27.6807C25.5765 27.675 24.4778 27.5139 23.3905 27.2896C22.0789 27.0192 20.7501 26.9272 19.4212 26.8236C19.1106 26.8006 18.7942 26.8064 18.4951 26.7373C16.4126 26.2599 14.2727 26.116 12.1902 25.6386C10.5047 25.2532 8.85373 24.7527 7.20849 24.2407C5.93717 23.8495 4.68311 23.4066 3.4348 22.9694C3.35426 22.9406 3.25646 22.9406 3.17592 22.9061C2.46836 22.6415 2.32453 22.2503 2.80199 21.8419C3.22768 21.4795 3.76843 21.3529 4.41847 21.5255L6.56421 22.1468L6.59872 22.0777Z" fill="#A0D0DB"/>
<path d="M77.607 6.28017C76.7441 6.88419 75.8927 7.51121 75.0068 8.06345C74.2129 8.55818 73.4248 9.0299 72.8093 9.76047C72.6482 9.95031 72.4239 10.0884 72.234 10.2552C71.8831 10.5543 71.5265 10.8477 71.1813 11.1526C71.026 11.2907 70.9167 11.5093 70.7441 11.607C69.9042 12.096 69.1334 12.6655 68.5006 13.4134C67.7758 13.7125 67.3041 14.305 66.7576 14.8285C66.2111 15.352 65.584 15.7949 65.1008 16.3874C64.9743 16.5485 64.8075 16.6981 64.6291 16.8016C63.5591 17.4114 62.6387 18.211 61.6953 18.9934C60.6656 19.8275 59.6876 20.5638 58.6292 21.3462C58.0654 21.7546 57.5764 22.2896 57.0932 22.8073C56.518 23.4286 55.9887 24.0959 55.402 24.7172C54.5448 25.6204 53.6762 26.4947 52.7213 27.3576C51.9447 27.9789 51.1278 28.2665 50.3915 28.6059C50.2189 28.6865 50.0061 28.7728 49.7759 28.8533C49.5574 28.9453 49.333 28.9971 49.1086 29.0604C48.6599 29.1812 48.2055 29.2502 47.7568 29.302C46.8364 29.3998 45.9217 29.2502 45.0473 29.0892C44.1672 28.9281 43.3158 28.698 42.4817 28.4276C42.2688 28.3471 42.0962 28.3241 41.7568 28.163L41.1931 27.8811C40.8191 27.697 40.4395 27.5187 40.0598 27.3404C38.9151 26.8226 37.73 26.3739 36.5392 25.9655C35.429 25.5801 34.29 25.2867 33.1625 24.9588C29.826 23.9866 26.4377 23.1985 23.0207 22.629C22.198 22.4967 21.3697 22.4047 20.5471 22.2954C20.1386 22.2378 19.7244 22.1803 19.316 22.1055C17.7973 21.8467 16.2729 21.6108 14.7369 21.444C12.5394 21.2081 10.3304 21.0931 8.12145 21.024C6.86739 20.9895 5.61335 20.9492 4.37079 21.1333C4.02564 21.1851 3.90482 21.0585 4.03137 20.7767C4.24422 20.2935 4.41678 19.793 5.0208 19.4939C5.42924 19.2983 5.82043 19.1429 6.33241 19.2177C7.08024 19.3213 7.86835 19.1084 8.59893 19.4191C8.70248 19.4651 8.85206 19.4536 8.97286 19.4363C11.1819 19.1775 13.3908 19.4996 15.5826 19.7757C16.2959 19.862 17.0207 19.9023 17.7398 19.9771C18.2058 20.0288 18.6717 20.0979 19.1319 20.1669C19.805 20.282 20.4723 20.4258 21.1453 20.5236C21.6515 20.5926 22.1635 20.5868 22.5605 20.955C22.6468 21.0298 22.9114 21.0643 23.0149 21.0183C23.4233 20.8227 23.8318 20.9435 24.246 21.0355C25.362 21.2829 26.4665 21.5935 27.5825 21.8582C28.4051 22.0653 29.2335 22.2378 30.0676 22.4047C31.3562 22.6693 32.6562 22.8994 33.9333 23.2273C35.0033 23.5034 36.056 23.8486 37.1087 24.1937C37.3503 24.2742 37.6092 24.3088 37.8508 24.3951C38.2938 24.5504 38.777 24.6712 39.1567 24.9243C39.5766 25.2004 39.9218 25.3615 40.428 25.3212C40.7156 25.2982 41.0838 25.4708 41.3772 25.6204C41.7568 25.8102 42.102 26.0633 42.4414 26.3107C42.4817 26.3452 42.5679 26.397 42.5679 26.4085C42.5794 26.4257 42.5795 26.4372 42.614 26.4602C42.7175 26.512 42.8268 26.5638 42.9361 26.604C43.1547 26.6846 43.3906 26.7249 43.6552 26.7018C43.9371 26.6731 44.288 26.8054 44.5756 26.9262C45.8412 27.4497 47.2563 27.559 48.5219 27.3059C48.7405 27.2713 48.9418 27.2023 49.1489 27.1505C49.356 27.07 49.5113 27.024 49.7644 26.9204C50.2246 26.7364 50.6791 26.5638 51.0703 26.3854C51.2659 26.2934 51.4442 26.2014 51.5938 26.1036C51.6685 26.0576 51.7376 26.0058 51.7894 25.9598L52.0425 25.7412C52.3819 25.4593 52.7155 25.1429 53.0377 24.8207C53.5439 24.3145 54.0616 23.8083 54.5621 23.256C56.1095 21.559 57.7663 19.701 59.8199 18.2168C60.2111 17.9292 60.5908 17.676 60.9245 17.3539C61.6896 16.6176 62.5352 15.9963 63.4153 15.4095C64.4738 14.702 65.4057 13.8391 66.3204 12.9704C66.5332 12.7691 66.7288 12.539 66.9647 12.3664C68.6272 11.1929 70.0365 9.72595 71.6127 8.46038C72.8898 7.43642 74.2244 6.48151 75.5303 5.49207L78.5791 3.23129C78.6482 3.17951 78.6942 3.10474 78.7632 3.05872C79.35 2.63302 79.7469 2.73658 79.8389 3.3521C79.9195 3.89285 79.7411 4.41058 79.2464 4.84202C78.6999 5.31373 78.1362 5.76244 77.5724 6.21114L77.607 6.28017Z" fill="#A0D0DB"/>
<path d="M75.0317 4.23791C74.6233 4.42774 74.2321 4.64635 73.7949 4.80167C73.4038 4.93973 73.0183 5.06629 72.8227 5.44596C72.771 5.54375 72.6616 5.58402 72.5811 5.6588C72.4373 5.78536 72.2877 5.90617 72.1497 6.04423C72.0864 6.10751 72.0807 6.23981 71.9944 6.26857C71.5859 6.40663 71.2523 6.63674 71.0567 7.02792C70.677 7.06818 70.5447 7.39034 70.3491 7.64921C70.1535 7.90807 69.8832 8.08064 69.7566 8.41429C69.7221 8.50058 69.6646 8.57536 69.5783 8.60988C69.072 8.80547 68.7326 9.19089 68.3817 9.56481C68.0021 9.96749 67.5534 10.2839 67.0126 10.4967C66.725 10.606 66.5006 10.8189 66.2763 11.0202C66.0117 11.2561 65.7931 11.5437 65.5399 11.7968C65.1775 12.165 64.8381 12.5504 64.5678 13.0164C64.2053 13.6319 63.8084 14.2186 63.3827 14.7709C63.1641 15.0528 62.8593 15.2426 62.5716 15.4612C62.0079 15.8927 61.4153 16.2953 60.8688 16.7498C60.4604 17.0892 60.0807 17.4689 59.7183 17.86C59.3789 18.2225 59.0798 18.6309 58.7461 19.0048L55.7893 22.301C55.5535 22.5656 55.3464 22.8533 55.1163 23.1294C55.0012 23.2675 54.8746 23.3883 54.7481 23.5091C54.2649 23.952 53.7702 24.3777 53.2985 24.8379C52.6254 25.488 51.9754 26.1668 51.3138 26.8226C50.9341 27.1965 50.543 27.5531 50.2898 28.0421C50.2208 28.1802 50.0942 28.1226 49.9274 27.8925C49.6455 27.4956 49.3349 27.0929 49.3062 26.7133C49.2832 26.4544 49.2889 26.2358 49.4903 26.1265C49.7779 25.9712 49.8527 25.58 50.2726 25.5627C50.3301 25.5627 50.3646 25.5052 50.3877 25.4534C50.7961 24.5618 51.5727 24.0268 52.2515 23.3998C52.4758 23.1927 52.6542 22.9453 52.8555 22.721C52.9878 22.5772 53.1259 22.4333 53.2697 22.301C53.4768 22.1054 53.7184 21.9386 53.9025 21.7258C54.0405 21.5647 54.1268 21.3518 54.4662 21.4209C54.5353 21.4324 54.61 21.3461 54.587 21.2713C54.5123 20.9779 54.6618 20.8744 54.7941 20.7536C55.1508 20.4314 55.5247 20.1323 55.8699 19.7987C56.123 19.5513 56.3473 19.2752 56.5602 18.9818C56.8881 18.5331 57.1757 18.0441 57.5151 17.6012C57.797 17.2273 58.1191 16.8993 58.424 16.5484C58.493 16.4679 58.5333 16.3529 58.6023 16.2781C58.7346 16.1343 58.8439 15.9502 59.0395 15.8869C59.2581 15.8236 59.3904 15.7258 59.3674 15.4267C59.3559 15.2599 59.4882 15.1563 59.6033 15.0758C59.7528 14.978 59.9427 14.9262 60.1268 14.8687C60.3511 14.8054 60.564 14.7536 60.61 14.4775C60.633 14.328 60.7941 14.2532 60.9321 14.2129C61.5592 14.0115 61.9848 13.5859 62.376 13.1199C62.8938 12.4756 63.4173 11.8313 63.935 11.1928C64.1421 10.9454 64.3779 10.7211 64.6023 10.491C65.3098 9.77765 66.0979 9.16213 66.9033 8.55811C67.0586 8.4373 67.2255 8.328 67.3405 8.16118C67.5994 7.77575 67.9503 7.50538 68.3415 7.27527C68.8132 6.9934 69.1526 6.57346 69.492 6.14201C69.5725 6.04422 69.6301 5.91766 69.7336 5.85438C70.4757 5.39418 70.9704 4.65785 71.6607 4.14587C72.2187 3.73168 72.84 3.39228 73.444 3.03562C73.91 2.76525 74.3989 2.51789 74.8821 2.25902C74.9109 2.24176 74.9282 2.20151 74.9627 2.18425C75.2446 2.05194 75.5322 2.25326 75.7508 2.74223C75.9464 3.17943 75.9579 3.51308 75.745 3.67991C75.5034 3.86399 75.2503 4.02507 74.9972 4.1919L75.0317 4.23791Z" fill="#A0D0DB"/>
<path d="M50.4844 22.3359C51.1632 21.1222 51.8247 19.8853 52.5841 18.7233C53.2686 17.6879 53.9532 16.7042 54.4767 15.5479C54.6032 15.243 54.8391 14.9726 55.0174 14.685C55.3626 14.1673 55.725 13.661 56.1161 13.1721C56.283 12.942 56.421 12.6601 56.6281 12.4933C57.6463 11.6591 58.6416 10.8825 59.5505 9.95637C60.4709 9.51342 61.1669 8.81161 61.9493 8.17883C62.7316 7.54604 63.6003 7.01105 64.3309 6.32649C64.5264 6.14241 64.768 5.96408 65.0039 5.84328C66.4535 5.1127 67.7824 4.19804 69.1285 3.29489C69.8476 2.81167 70.5839 2.35145 71.326 1.92001L72.442 1.28148L72.58 1.20094L72.6491 1.16066L72.6836 1.14341L72.7009 1.13191H72.7066L72.8677 1.36777L72.8734 1.37353C72.9079 1.40804 72.8849 1.38503 72.8792 1.39078C72.8792 1.39653 72.8907 1.36776 72.8849 1.39652V1.40804L72.9195 1.66115H72.9079H72.8677L72.7872 1.6669L72.6261 1.67265L72.3039 1.68415C71.3893 1.71292 70.4516 1.90276 69.5427 2.12711C68.4612 2.38598 67.4085 2.75989 66.3673 3.14531C64.8543 3.69756 63.4047 4.38787 62.0643 5.26226C61.1784 5.85478 60.304 6.46455 59.4699 7.11459C59.05 7.43674 58.6588 7.7934 58.2561 8.1213C58.0548 8.29387 57.8477 8.4492 57.6578 8.62753L57.0941 9.17403C56.3117 9.88735 55.5179 10.6122 54.7585 11.3773C53.2686 12.919 51.9628 14.662 50.9273 16.5834C50.1622 18.0273 49.5582 19.5632 49.075 21.1336C48.8449 21.8642 48.6665 22.6121 48.494 23.3656L48.2524 24.4989C48.1258 25.0914 47.959 25.7587 47.8037 26.3915L47.6253 27.1106L47.5333 27.473L47.5103 27.565L47.4988 27.6111C47.493 27.6168 47.4758 27.5996 47.4643 27.5938L47.3089 27.5075L46.0434 26.8287L44.8181 26.1614C44.5765 26.0291 44.4959 25.9946 44.3579 25.9256L43.9725 25.7357C42.9485 25.2295 41.9073 24.7463 40.8546 24.2976C38.7491 23.3887 36.6091 22.566 34.4347 21.8527C33.3877 21.5076 32.3292 21.2142 31.2765 20.9323L29.7003 20.4779C27.7502 19.9083 25.7943 19.4136 23.7924 19.0627C20.9333 18.5565 18.034 18.2919 15.129 18.2056C13.4837 18.1538 11.827 18.1538 10.2048 18.4012C9.75031 18.4702 9.595 18.3552 9.74457 18.0675C10.0092 17.5728 10.2163 17.0551 11.0159 16.7329C11.5566 16.5143 12.0628 16.3475 12.7532 16.4108C13.7426 16.4971 14.7954 16.2785 15.7618 16.6064C15.8998 16.6524 16.0954 16.6466 16.2623 16.6351C19.1903 16.428 22.1184 16.9285 24.9832 17.5038C25.9208 17.6878 26.87 17.8432 27.8077 18.0445C28.4117 18.1883 29.0215 18.3264 29.614 18.499C30.4826 18.7406 31.3398 19.0455 32.2026 19.2871C32.8527 19.4769 33.5142 19.592 34.0032 20.0637C34.1068 20.1615 34.4462 20.265 34.5842 20.242C35.125 20.15 35.6427 20.3685 36.1662 20.5756C37.5813 21.1279 38.9677 21.7377 40.3541 22.3474C41.3838 22.7904 42.4193 23.2333 43.449 23.6705L44.6512 24.1883C45.0309 24.3551 45.5257 24.5795 45.681 24.6312L46.239 24.8441C46.2735 24.8498 46.3195 24.8901 46.3368 24.8613L46.3598 24.706L46.3943 24.4241L46.4173 24.217L46.4288 24.1192L46.4346 24.0962L46.4461 24.0272L46.4748 23.8949C46.5496 23.5382 46.6359 23.1816 46.7164 22.8192C46.889 22.1001 47.0731 21.381 47.2859 20.6734C47.3837 20.3455 47.424 20.0004 47.5448 19.6725C47.7519 19.0742 47.9187 18.4184 48.2466 17.9065C48.586 17.3312 48.8276 16.8767 48.8909 16.2209C48.9082 16.0369 48.9772 15.8183 49.075 15.6054C49.1785 15.3926 49.3108 15.174 49.4259 14.9841C49.725 14.4894 50.0817 14.035 50.4671 13.615C50.6915 13.3562 50.9101 13.1146 51.1057 12.8442C51.3128 12.5853 51.5026 12.3034 51.6464 11.9583C51.8017 11.5901 52.1584 11.1759 52.5035 10.8883C53.9244 9.53643 55.351 8.2191 56.8295 6.93052C58.8716 5.2105 61.1094 3.78961 63.5082 2.61609C64.4459 2.15588 65.4296 1.7877 66.419 1.4368C67.9607 0.901805 69.5484 0.504879 71.1534 0.234507C71.5561 0.171229 71.9588 0.107951 72.3614 0.0561782L72.6663 0.0159059C72.6088 0.0216585 72.908 -0.0301035 73.1496 0.0274223C73.4027 0.073443 73.6501 0.205744 73.8341 0.378322C74.2023 0.729229 74.3633 1.22971 74.231 1.7532C74.162 2.01206 74.0125 2.24791 73.8341 2.40898C73.7939 2.44925 73.7478 2.48377 73.7018 2.51828L73.673 2.53554L73.6385 2.55856L73.512 2.63908L73.2531 2.80591C72.5686 3.24311 71.8897 3.64579 71.2167 4.04847C70.6874 4.36487 70.141 4.67549 69.6578 5.04366C68.536 5.88929 67.3452 6.60837 66.1372 7.29868C64.6818 8.13281 63.3587 9.14526 62.0816 10.1922C61.7882 10.4396 61.5121 10.7157 61.1957 10.9228C60.1142 11.6649 59.1075 12.5048 58.2389 13.4022C57.3932 14.2651 56.7375 15.2833 56.0356 16.3648C54.9196 18.1135 53.8554 19.9716 52.8429 21.87C52.0606 23.3426 51.284 24.8211 50.4671 26.3167C50.4096 26.4145 50.3808 26.5296 50.3233 26.6274C49.8171 27.4788 49.3684 27.5823 49.121 26.9323C48.9024 26.3685 48.9254 25.707 49.2936 24.9361L50.5419 22.3762L50.4844 22.3359Z" fill="#A0D0DB"/>
<path d="M76.2233 89.4039L70.7239 99.2984L55.6981 98.2859C53.2878 98.1249 51.1766 99.8909 50.912 102.295C49.7212 113.151 48.5304 124.011 47.3396 134.867C46.9944 138.031 49.0711 140.947 52.1775 141.666C57.5217 142.909 63.3203 144.025 69.5503 144.905C76.2233 145.848 82.5109 146.401 88.3383 146.677C92.4974 146.872 96.087 143.852 96.6278 139.728C97.4216 133.653 97.9854 127.037 98.1694 119.95C98.2902 115.239 98.2327 110.752 98.0371 106.501C97.9221 103.883 95.8742 101.766 93.2625 101.559C88.7985 101.197 84.3345 100.84 79.8705 100.478L77.6787 89.634C77.5349 88.915 76.58 88.7654 76.2233 89.4039Z" fill="#C0E3EB"/>
<path d="M72.9158 97.055L72.1162 98.3436C71.7825 98.9016 71.4431 99.4596 71.1095 100.012C70.6377 99.9658 70.166 99.9198 69.7001 99.868L68.7279 99.753C68.0836 99.6667 67.4393 99.5861 66.8008 99.4998C64.7759 99.218 62.7855 98.9361 60.6973 98.9533C60.1565 98.9591 59.5813 98.8843 59.0175 98.844C57.9993 98.7808 56.9753 98.7175 55.9571 98.6542C55.4797 98.6197 55.0712 98.7232 54.6743 98.7635C53.7136 98.8498 52.7702 99.333 52.1317 100.092C51.8153 100.472 51.5737 100.921 51.4298 101.392C51.2803 101.87 51.2573 102.347 51.2458 102.9C50.8431 104.522 50.8258 106.167 50.7108 107.83C50.5957 109.492 50.3656 111.178 50.3541 112.834C50.3541 113.272 50.3139 113.772 50.2333 114.209C49.7559 116.861 49.5315 119.542 49.2841 122.24C49.0195 125.128 48.6456 128.004 48.1279 130.846C47.9898 131.605 47.8805 132.382 47.7827 133.164C47.6964 133.941 47.5699 134.757 47.5526 135.5C47.5526 136.403 47.7655 137.294 48.1624 138.1C48.5708 138.899 49.1461 139.601 49.8421 140.159C50.3484 140.562 50.9179 140.872 51.5219 141.085C52.1144 141.292 52.7875 141.402 53.449 141.54C54.7721 141.799 56.1067 142.029 57.4413 142.224C61.0137 142.742 64.6033 143.214 68.2044 143.634C70.0337 143.847 71.886 144.169 73.7269 144.422C77.4143 144.939 81.1074 145.388 84.8236 145.676L86.9175 145.814C87.6079 145.848 88.3499 145.906 88.9597 145.889C90.2253 145.837 91.4851 145.451 92.5321 144.75C93.533 144.117 94.3211 143.202 94.8791 142.184C95.138 141.661 95.3681 141.126 95.4889 140.556C95.5752 140.28 95.6039 139.987 95.65 139.705C95.696 139.411 95.7248 139.066 95.7593 138.744C96.6164 131.047 97.0133 123.31 96.9271 115.578C96.904 113.72 96.8235 111.868 96.743 110.016C96.7085 109.089 96.6739 108.157 96.6394 107.231L96.6164 106.587C96.5991 106.414 96.5992 106.265 96.5704 106.104C96.5301 105.787 96.4266 105.488 96.3173 105.195C96.0642 104.62 95.673 104.09 95.1668 103.699C94.672 103.302 94.0623 103.038 93.4352 102.934L93.1936 102.9C93.1189 102.888 92.9865 102.882 92.883 102.871L92.2329 102.813L90.9386 102.704L78.7604 101.709L77.84 97.1183C77.5639 95.7376 77.2877 94.357 77.0116 92.9764L76.5629 90.917L76.4421 90.405L76.3788 90.1461L76.35 90.0196L76.3328 89.9563L76.327 89.9218L76.3213 89.9045V89.8988V89.893C75.8898 89.9793 76.9081 89.7722 76.8045 89.7952C76.9311 89.7665 76.931 89.7377 76.9138 89.7607C76.8965 89.778 76.885 89.824 76.8908 89.801C76.8908 89.778 76.8793 89.7377 76.8793 89.7434C76.885 89.755 76.9023 89.7722 76.9368 89.7952C76.9943 89.8298 76.9943 89.8297 76.9195 89.7837C76.9023 89.7722 76.8793 89.7435 76.8793 89.7492C76.8678 89.7262 76.8908 89.778 76.8505 89.6917C76.8103 89.5824 76.8333 89.4443 76.9426 89.3465C77.0461 89.2487 77.2417 89.1912 77.4603 89.3005C77.5638 89.358 77.6731 89.4558 77.7479 89.5996C77.817 89.7319 77.886 89.87 77.955 90.0311C78.329 90.8882 78.6396 91.6936 78.7949 92.8211C79.0192 94.4548 79.583 96.1116 79.6175 97.7568C79.6233 97.9869 79.7038 98.3148 79.7728 98.5737L80.1813 100.092C80.607 100.104 80.8658 100.11 81.4699 100.144L83.0576 100.242C84.1161 100.317 85.1688 100.403 86.2272 100.495L92.5666 101.082C92.9578 101.116 93.3547 101.145 93.7919 101.203C94.2118 101.283 94.6318 101.387 95.0287 101.554C95.8283 101.87 96.5531 102.388 97.1226 103.043C97.8647 103.889 98.3422 104.971 98.4515 106.087C98.5493 107.646 98.5263 109.112 98.5953 110.62C98.6413 111.753 98.7449 112.852 98.4688 113.876C98.4112 114.088 98.4285 114.687 98.4975 114.894C98.7621 115.693 98.7276 116.631 98.7046 117.569C98.6528 120.094 98.5205 122.619 98.394 125.145C98.3019 127.014 98.2099 128.884 98.1236 130.748C97.9855 133.641 97.8302 136.529 97.5541 139.417L97.5081 139.871L97.4333 140.372C97.393 140.706 97.2895 141.028 97.2089 141.356C97.1169 141.684 96.9903 141.994 96.8753 142.311C96.7257 142.615 96.5992 142.932 96.4208 143.219C95.742 144.393 94.8158 145.44 93.6768 146.205C93.4122 146.378 93.1591 146.567 92.883 146.717C92.6126 146.878 92.3307 147.033 92.0316 147.143C90.9559 147.591 89.7133 147.868 88.6146 147.758C88.2982 147.735 88.0566 147.701 87.8092 147.678C87.5618 147.655 87.326 147.637 87.0901 147.632C86.6184 147.614 86.1582 147.643 85.6577 147.73C85.094 147.827 84.2081 147.758 83.4833 147.684C82.5571 147.591 81.6482 147.43 80.7508 147.264C79.6751 147.068 78.6741 146.861 77.489 146.918C76.8505 146.947 75.9934 146.803 75.2858 146.66C72.1909 146.032 69.0385 145.63 65.8803 145.204C61.6004 144.629 57.332 143.956 53.0866 143.116L51.8325 142.857C51.3436 142.742 50.8604 142.587 50.4001 142.374C49.4797 141.954 48.6399 141.344 47.9553 140.596C46.8911 139.429 46.1835 137.921 46.0397 136.334C45.9476 135.563 46.0339 134.683 46.1145 134.096L46.3388 132.14L47.2937 124.322C47.4203 123.298 47.5584 122.263 47.6216 121.245C47.7597 118.898 48.0416 116.579 48.381 114.261C48.7894 111.465 48.9965 108.664 49.1978 105.868C49.2439 105.218 49.2611 104.551 49.3532 103.912L49.5718 102.238C49.6466 101.571 49.8479 100.817 50.1758 100.173C50.8258 98.8613 51.9648 97.8143 53.3339 97.2851C54.0185 97.0205 54.7548 96.8824 55.4854 96.8882L55.7616 96.8939L55.9802 96.9054L56.4001 96.9284L57.24 96.9745C58.3617 97.0377 59.4835 97.1068 60.6052 97.1988C62.308 97.3311 64.0108 97.4864 65.7078 97.6533L68.2562 97.9064L69.5275 98.0329L69.8439 98.0675C69.9187 98.0732 69.8956 98.0732 69.9129 98.0789L69.9417 98.0847L70.0682 98.1135L70.1488 98.0157C71.5697 95.6686 72.9905 93.3331 74.4172 90.9918C74.515 90.8364 74.584 90.6524 74.6818 90.497C75.5217 89.1394 76.0624 88.8633 76.1545 89.7722C76.2293 90.5776 75.9531 91.6303 75.2456 92.8844L72.8582 97.0147L72.9158 97.055Z" fill="#A0D0DB"/>
<path d="M72.9275 112.093C73.3474 111.834 73.7271 111.506 74.0665 111.126C74.2333 110.936 74.3886 110.735 74.5439 110.522C74.7165 110.28 74.8776 110.045 75.0674 109.82C75.729 109.009 76.4135 108.302 77.0751 107.456C77.2477 107.237 77.5123 107.071 77.7539 106.904C77.9782 106.754 78.2141 106.616 78.4845 106.513C78.7606 106.398 79.0827 106.351 79.3876 106.369C79.4509 106.375 79.5084 106.38 79.5774 106.38C79.6867 106.409 79.8018 106.432 79.9111 106.461C80.0147 106.501 80.1124 106.564 80.193 106.633C80.6935 107.122 80.866 107.629 81.0846 108.135C81.286 108.641 81.4701 109.141 81.6542 109.653C81.6024 110.516 81.8325 111.293 81.9245 112.133C81.959 112.547 81.9705 112.973 81.9648 113.393V114.025C81.9705 114.169 81.9935 114.29 82.0223 114.394C82.0511 114.503 82.0568 114.612 82.0051 114.756C81.9993 114.779 81.9763 114.819 81.9878 114.831L82.0453 114.854L82.1661 114.894C82.2524 114.917 82.3445 114.94 82.4423 114.963L82.7471 115.026L83.2476 115.113C83.9149 115.228 84.5822 115.36 85.2495 115.527C86.6647 115.912 88.0625 116.614 89.0462 117.776C89.5524 118.392 90.0644 119.076 90.2542 119.91C90.3463 120.417 90.329 120.911 90.1967 121.4C90.0587 121.883 89.8056 122.338 89.4777 122.712C89.3453 122.856 89.2073 122.999 89.0577 123.126C88.9139 123.253 88.8391 123.316 88.7183 123.402C88.6263 123.471 88.54 123.529 88.448 123.586L88.3156 123.673C88.2984 123.684 88.2581 123.696 88.2639 123.713C88.2869 123.73 88.3099 123.753 88.3271 123.776C88.4997 123.966 88.6378 124.173 88.7586 124.363L88.8046 124.438L88.8679 124.553L88.9887 124.789C89.0692 124.95 89.144 125.105 89.2188 125.272C89.4086 125.709 89.564 126.169 89.6733 126.647C89.7711 127.124 89.8573 127.602 89.8113 128.2C89.7653 128.775 89.5525 129.379 89.2073 129.868C89.0347 130.115 88.8391 130.34 88.6205 130.53C88.517 130.627 88.4019 130.719 88.2926 130.806C88.2063 130.869 88.2639 130.835 88.2351 130.858L88.2063 130.886C88.1546 130.95 88.051 130.967 88.0108 131.019C88.0395 131.076 88.0568 131.134 88.0798 131.203L88.1143 131.306L88.2639 131.669C88.5112 132.278 88.7413 132.905 88.8852 133.596C88.9599 133.935 89.0117 134.303 89.0232 134.7C89.029 134.902 89.0117 135.114 88.9772 135.339C88.9484 135.46 88.9197 135.58 88.8794 135.701C88.8334 135.816 88.7816 135.931 88.7241 136.041C88.2581 136.834 87.5333 137.231 86.8775 137.461C85.3415 137.962 83.9091 137.956 82.4883 137.962C81.1652 137.945 79.8593 137.899 78.5593 137.778C76.6379 137.582 74.7338 137.318 72.8469 137.024L70.0167 136.57L68.6015 136.334L66.1394 135.88L65.9784 135.851C65.9554 135.839 65.9093 135.851 65.9093 135.828L65.9151 135.747L65.9438 135.425L66.0014 134.781L66.1164 133.469L66.2142 132.043C66.2487 131.588 66.3005 131.134 66.358 130.679L67.0138 125.634L67.8537 118.397C68.0205 117.028 68.2104 115.665 68.2104 114.29C68.2104 113.905 68.3542 113.795 68.613 113.968C69.0617 114.267 69.5335 114.52 69.7463 115.21C69.8901 115.676 69.9879 116.108 69.8556 116.649C69.66 117.437 69.7866 118.305 69.4126 119.059C69.3609 119.168 69.3551 119.329 69.3551 119.462C69.4127 121.855 68.9697 124.202 68.6648 126.56C68.567 127.331 68.5268 128.113 68.4577 128.884C68.4117 129.385 68.3542 129.891 68.2909 130.392C68.1988 131.116 68.0723 131.841 68.009 132.572C67.986 132.848 67.9802 133.118 67.94 133.383C67.9285 133.446 67.917 133.521 67.9055 133.567C67.894 133.613 67.8767 133.653 67.8537 133.699C67.8134 133.791 67.7502 133.895 67.6696 134.016C67.6006 134.119 67.5833 134.372 67.6466 134.407C67.7041 134.528 67.9803 134.441 68.1298 134.459C68.2909 134.464 68.4232 134.505 68.567 134.533L70.2928 134.913C70.8968 135.045 71.4951 135.172 72.0991 135.281C72.9965 135.448 73.8997 135.569 74.8028 135.661C76.2064 135.799 77.6101 135.868 79.0022 135.954C80.1642 136.023 81.3262 136.127 82.4653 136.115C82.7299 136.115 82.9887 136.064 83.2476 136.058C83.7251 136.046 84.2141 135.972 84.6397 136.018C85.1172 136.069 85.5084 136.035 85.819 135.707C85.9858 135.523 86.285 135.437 86.4633 135.35C86.6704 135.264 86.8372 135.189 86.9638 135.126L86.9983 135.109C87.1479 135.086 87.2687 134.585 86.9753 134.182C86.8315 133.964 86.7682 133.596 86.7164 133.274C86.6474 132.871 86.5496 132.514 86.3828 132.089C86.1124 131.462 85.796 130.869 85.4796 130.282C85.5141 130.196 85.6694 130.144 85.7615 130.087L86.0836 129.914C86.2965 129.793 86.5266 129.661 86.7797 129.54C87.378 129.235 87.4298 129.126 87.6253 128.925C88.1373 128.338 88.12 127.705 87.9245 126.733C87.8267 126.29 87.6828 125.864 87.4988 125.456C87.447 125.358 87.4067 125.254 87.3492 125.162L87.3032 125.07C87.2744 125.013 87.2514 124.961 87.2169 124.909L87.0213 124.599C87.1421 124.127 87.1076 123.782 87.0961 123.54C87.0903 123.304 87.1881 122.994 87.2514 122.424C87.4815 122.303 87.6828 122.16 87.8899 122.022L88.0568 121.883L88.1546 121.786C88.2811 121.659 88.3962 121.527 88.4767 121.389C88.6781 121.067 88.7701 120.721 88.7528 120.365C88.7356 120.1 88.5918 119.732 88.3041 119.37C87.7289 118.633 86.7509 117.995 85.6982 117.54C85.284 117.356 84.8468 117.184 84.3866 117.115C83.8574 117.028 83.3396 116.936 82.8162 116.85L82.3617 116.769C82.0856 116.718 81.821 116.695 81.5506 116.66L79.9917 116.442C80.4404 113.393 80.3598 112.743 80.17 111.374C80.1182 111.086 80.0377 110.804 80.0089 110.522C79.9571 109.901 79.8191 109.285 79.6005 108.791C79.543 108.67 79.4912 108.543 79.4279 108.451C79.3991 108.405 79.3704 108.348 79.3358 108.302L79.2438 108.192C79.2151 108.146 79.1863 108.135 79.1633 108.118C79.1633 108.118 79.1633 108.118 79.1575 108.118C79.1518 108.118 79.1403 108.123 79.1345 108.129C79.1288 108.135 79.123 108.141 79.123 108.146C79.1173 108.146 79.1345 108.152 79.1 108.164C79.0712 108.169 79.0195 108.204 78.9792 108.221C78.7951 108.319 78.5592 108.491 78.3291 108.687C77.7999 109.141 77.2707 109.74 76.7932 110.39C76.5516 110.718 76.3387 111.04 76.0971 111.42C75.821 111.874 75.4931 112.288 75.1307 112.674C74.009 113.859 72.473 114.589 70.9083 114.733C70.8048 114.745 70.7012 114.785 70.5977 114.785C69.683 114.791 69.4874 114.405 69.8441 113.899C70.1662 113.433 70.5689 113.145 71.1499 113.001C71.7885 112.829 72.4155 112.559 72.9677 112.156L72.9275 112.093Z" fill="#A0D0DB"/>
<path d="M69.6834 114.013C68.8091 113.605 61.952 112.241 60.4045 112.362C59.5129 116.009 57.6145 130.765 57.5282 133.526C58.8168 133.992 66.019 134.906 67.3306 134.791C68.7458 130.575 69.8388 115.509 69.6834 114.013Z" fill="#A0D0DB"/>
<path d="M66.9157 114.157C66.2197 113.892 65.5006 113.668 64.8103 113.38C64.1947 113.122 63.5792 112.868 62.8946 112.926C62.7163 112.943 62.538 112.88 62.3597 112.857C62.0433 112.822 61.6866 112.771 61.4623 112.771C61.3415 112.765 61.2552 112.857 61.1516 112.822C61.0136 112.771 60.8698 112.736 60.7202 112.719C60.6742 112.702 60.6627 112.73 60.6512 112.759L60.6166 112.845C60.5936 112.903 60.5764 112.966 60.5591 113.035C60.5246 113.168 60.4958 113.306 60.4901 113.444C60.4843 113.513 60.4843 113.582 60.4901 113.651C60.4901 113.731 60.4901 113.823 60.4958 113.91C60.1737 114.393 60.2485 114.945 60.2255 115.48C60.2082 116.021 60.0702 116.556 60.1564 117.102C60.1795 117.246 60.1737 117.413 60.1219 117.545C59.8055 118.374 59.748 119.242 59.6675 120.117C59.5869 121.049 59.3971 121.969 59.075 122.861C58.9024 123.338 58.8391 123.856 58.7758 124.356C58.6953 124.955 58.6838 125.564 58.6262 126.168C58.5457 127.043 58.4997 127.917 58.5572 128.797C58.6262 129.977 58.6665 131.162 58.6838 132.324C58.6838 132.421 58.6895 132.404 58.6895 132.433C58.6895 132.45 58.6895 132.467 58.6895 132.485C58.6895 132.519 58.6838 132.56 58.6723 132.6C58.6723 132.634 58.6377 132.698 58.6492 132.726C58.678 132.744 58.7068 132.767 58.7471 132.784C58.7816 132.801 58.8218 132.818 58.8678 132.841L58.9426 132.87L58.9829 132.887L59.0864 132.916L59.9493 133.129C60.5303 133.267 61.1171 133.388 61.7039 133.497C62.5898 133.652 63.4929 133.739 64.3903 133.802C64.8103 133.831 65.2302 133.842 65.6444 133.848H65.955H66.1104L66.1909 133.842C66.2887 133.837 66.3865 133.825 66.4383 133.819C66.4843 133.814 66.5303 133.808 66.5706 133.796C66.5878 133.756 66.5878 133.699 66.5993 133.653L66.6166 133.514L66.6223 133.434L66.6569 133.227C66.7719 132.64 66.8524 132.03 66.9387 131.42C67.0941 130.195 67.2206 128.964 67.3184 127.722C67.3644 127.123 67.3817 126.525 67.4104 125.927C67.4277 125.628 67.4564 125.329 67.4967 125.035C67.6405 123.931 67.7901 122.832 67.8994 121.722C68.0547 120.134 68.164 118.54 68.2733 116.958C68.3021 116.51 68.3424 116.061 68.3481 115.618C68.3539 115.4 68.3539 115.169 68.3366 114.962L68.3078 114.64C68.2963 114.525 68.2791 114.427 68.2561 114.364C68.21 114.203 68.3366 114.128 68.6127 114.169C69.0902 114.243 69.6079 114.353 69.8783 114.801C70.0681 115.106 70.2062 115.388 70.1199 115.756C69.9991 116.285 70.1832 116.861 69.8668 117.367C69.8208 117.436 69.8265 117.545 69.838 117.637C70.0681 119.225 69.7632 120.79 69.5849 122.354C69.5216 122.866 69.5331 123.384 69.4929 123.902C69.4699 124.236 69.4354 124.569 69.3951 124.903C69.3376 125.386 69.234 125.863 69.2053 126.347C69.1822 126.715 69.234 127.077 68.9061 127.371C68.8371 127.434 68.8313 127.624 68.8889 127.699C69.119 127.986 69.0499 128.285 69.0039 128.584L68.5897 131.006C68.5034 131.605 68.4229 132.214 68.3769 132.824L68.3021 133.537C68.2906 133.67 68.2848 133.75 68.2618 133.923C68.2446 134.084 68.2043 134.262 68.164 134.435L67.9282 135.511C67.9339 135.637 67.8246 135.62 67.7383 135.631L67.4737 135.66L66.9387 135.706C66.6338 135.729 66.352 135.718 66.0471 135.718L65.4143 135.7L64.2178 135.643C64.0337 135.637 63.8496 135.672 63.6655 135.654C63.3319 135.626 62.9695 135.649 62.6703 135.522C62.3367 135.378 62.0663 135.321 61.7154 135.511C61.5198 135.614 61.2322 135.562 61.0021 135.505C60.7087 135.436 60.421 135.298 60.1392 135.171C59.8055 135.016 59.4949 134.849 59.0864 134.958C58.9771 134.987 58.8506 134.976 58.7298 134.941C58.6607 134.924 58.6262 134.907 58.5285 134.872C58.4307 134.838 58.3329 134.803 58.2408 134.769C57.8439 134.625 57.4872 134.469 57.1363 134.331L56.8717 134.228L56.7394 134.176L56.6704 134.153C56.6704 134.13 56.6761 134.101 56.6761 134.078L56.7164 133.48C56.7279 133.095 56.7624 132.698 56.7854 132.301L56.8142 131.501C56.843 130.092 56.8544 128.694 56.9062 127.296C56.9292 126.749 56.9867 126.203 57.0385 125.656C57.1938 123.959 57.4872 122.28 57.8036 120.606C57.8669 120.278 57.9359 119.944 57.9359 119.61C57.9302 118.84 58.0682 118.092 58.2638 117.35C58.4997 116.458 58.5457 115.543 58.6032 114.617C58.6147 114.404 58.5975 114.18 58.655 113.973C58.7068 113.795 58.7528 113.61 58.7931 113.426L58.8851 112.995L59.0002 112.489L59.2533 111.499L59.3166 111.246L59.3453 111.12L59.3626 111.056C59.3683 111.039 59.4028 111.051 59.4201 111.045L59.9263 111.022C60.2657 111.01 60.5994 110.987 60.9388 110.987L61.934 111.045C62.3136 111.079 62.6933 111.12 63.0615 111.189C64.258 111.407 65.4028 111.752 66.5476 112.103C67.4335 112.374 68.2963 112.684 69.188 113.024C69.2455 113.047 69.3145 113.041 69.3778 113.07C69.5101 113.127 69.6079 113.191 69.6884 113.271C69.7805 113.357 69.8265 113.449 69.838 113.536C69.861 113.714 69.7287 113.892 69.5216 114.094C69.1822 114.45 68.8141 114.634 68.3826 114.514L66.9215 114.099L66.9157 114.157Z" fill="#A0D0DB"/>
<path d="M116.293 28.1492C115.763 27.5337 115.286 26.8779 114.854 26.1991C114.636 25.8597 114.446 25.5088 114.256 25.1579C114.078 24.7955 113.894 24.41 113.79 24.0131C113.353 22.6037 113.399 21.2059 113.514 19.762C113.56 19.3881 113.704 19.0026 113.848 18.6345C114.107 17.9672 114.469 17.3401 114.895 16.7706C115.108 16.5233 115.257 16.1839 115.51 16.0113C115.804 15.7754 116.132 15.5798 116.442 15.3842C116.759 15.2117 117.069 15.0391 117.38 14.8492C117.978 14.4581 118.605 14.1129 119.203 13.7045C119.48 13.624 119.738 13.5204 119.992 13.4169C120.25 13.3191 120.504 13.2098 120.757 13.089C121.263 12.8589 121.735 12.554 122.258 12.3469C122.776 12.1283 123.305 11.9269 123.834 11.7198C124.363 11.5185 124.898 11.3459 125.41 11.1043C125.681 10.9778 126.003 10.8685 126.296 10.811C127.205 10.6902 128.085 10.5003 128.971 10.3047C129.863 10.1437 130.749 9.93655 131.64 9.75822C132.601 9.6029 133.568 9.45335 134.54 9.37281C135.512 9.31529 136.484 9.27501 137.451 9.29802C138.486 9.3498 139.556 9.26351 140.609 9.22324C141.863 9.20598 143.111 9.06789 144.365 9.0909C145.274 9.0794 146.183 9.07365 147.086 9.06215C147.989 9.0679 148.898 9.05067 149.807 9.01615C151.021 8.98739 152.241 9.00464 153.46 9.0104C154.68 9.04491 155.905 9.11969 157.124 9.18872C158.367 9.28652 159.615 9.53961 160.852 9.74671C162.089 9.97106 163.314 10.2299 164.545 10.4715L168.221 11.2769C169.142 11.4898 170.062 11.6911 170.982 11.8867L173.744 12.5195C175.458 12.9336 177.184 13.2961 178.881 13.7966C180.146 14.136 181.389 14.5674 182.643 14.9643C183.264 15.1772 183.88 15.413 184.501 15.6316L185.427 15.971L186.342 16.3507C188.792 17.3286 191.191 18.4906 193.481 19.8943L194.309 20.389L195.115 20.9297C195.65 21.2921 196.202 21.6373 196.708 22.063L197.473 22.6843L197.853 23.0007L198.204 23.3516C198.629 23.7888 199.084 24.203 199.487 24.6689C199.883 25.1521 200.275 25.5951 200.677 26.1128C201.523 27.2691 202 28.6497 202.121 30.0016C202.311 31.9459 201.908 33.8558 200.994 35.5758C200.528 36.3927 199.981 37.1693 199.343 37.8481C198.698 38.5212 198.002 39.1309 197.249 39.6429C195.563 40.8164 193.63 41.5528 191.962 42.3294C191.531 42.548 191.381 42.4732 191.41 42.1625C191.485 41.6103 191.588 41.0408 192.319 40.454C192.814 40.0513 193.274 39.7119 193.97 39.4588C194.994 39.0907 195.839 38.3428 196.835 37.9344C196.978 37.8769 197.134 37.7215 197.255 37.595C197.801 37.0197 198.307 36.4272 198.733 35.7829C199.17 35.1444 199.556 34.4771 199.82 33.7695C200.355 32.3486 200.568 30.7494 200.211 29.2595C200.108 28.7705 199.901 28.3103 199.665 27.8846C199.429 27.4474 199.107 27.085 198.756 26.6881C198.313 26.1819 197.882 25.6641 197.387 25.2039C197.03 24.8645 196.72 24.4848 196.334 24.1742C195.96 23.8521 195.592 23.5299 195.207 23.225C194.608 22.7821 193.964 22.4542 193.584 21.8214C193.51 21.6833 193.164 21.4877 193.009 21.4705C192.417 21.4072 191.916 21.0563 191.404 20.7227L189.241 19.4858C188.499 19.1119 187.763 18.7265 187.003 18.3756C185.87 17.8866 184.725 17.4149 183.552 17.0467L182.188 16.6095L180.808 16.2299L179.427 15.8502L178.041 15.5051C176.505 15.0909 174.946 14.7054 173.393 14.343C173.03 14.2682 172.662 14.2337 172.3 14.1532C171.638 14.0094 170.931 13.8886 170.332 13.67C169.659 13.4226 169.124 13.2845 168.44 13.3766C168.054 13.4284 167.491 13.2846 167.025 13.181C166.432 13.0372 165.851 12.8359 165.282 12.6403C164.597 12.3987 163.953 12.1685 163.165 12.2203C162.739 12.2433 162.181 12.0938 161.727 11.9557C160.726 11.6336 159.702 11.4495 158.666 11.2769C158.148 11.1964 157.631 11.1216 157.107 11.0583L155.537 10.9317L153.408 10.7879L151.28 10.7189C149.859 10.6499 148.444 10.6901 147.023 10.6729C145.913 10.6786 144.802 10.6844 143.686 10.6901C140.235 10.7649 136.789 10.8915 133.378 11.2712C132.71 11.3574 132.02 11.4035 131.382 11.5818C130.64 11.7831 129.892 11.9384 129.144 12.0823C128.402 12.2548 127.66 12.4044 126.906 12.5425C126.014 12.7495 125.134 12.9912 124.277 13.3018C123.437 13.647 122.58 13.9518 121.792 14.3775C121.418 14.5674 121.056 14.786 120.67 14.9298C120.02 15.2232 119.376 15.5396 118.755 15.8847L117.863 16.4542L117.42 16.7419C117.265 16.8397 117.178 16.9317 117.058 17.0237C116.155 17.7888 115.533 18.8531 115.251 20.0093C115.021 20.9413 114.998 21.9422 115.251 22.8799C115.297 23.1215 115.401 23.3458 115.476 23.5759C115.591 23.806 115.66 24.0074 115.809 24.2605C116.086 24.7437 116.379 25.2269 116.713 25.6814C117.725 27.0908 118.985 28.3563 120.44 29.3745C120.538 29.4378 120.653 29.4838 120.751 29.5529C121.585 30.1109 121.758 30.5481 121.073 30.7954C120.469 31.0025 119.675 30.8817 118.847 30.3007C117.932 29.6622 117.104 28.9143 116.344 28.1032L116.293 28.1492Z" fill="#A0D0DB"/>
<path d="M130.582 97.7441L121.263 109.146C120.831 109.675 120.987 110.469 121.596 110.791L125.784 113.011C126.25 113.259 126.82 113.138 127.148 112.724L135.19 102.507L130.582 97.7441Z" fill="#C0E3EB"/>
<path d="M130.053 99.7003C129.639 100.028 129.248 100.379 128.799 100.667C128.397 100.926 128 101.179 127.833 101.639C127.787 101.76 127.678 101.835 127.603 101.932C127.459 102.111 127.315 102.283 127.183 102.473C127.125 102.559 127.131 102.703 127.045 102.755C126.619 103.02 126.291 103.359 126.124 103.836C125.722 103.986 125.612 104.366 125.428 104.699C125.244 105.027 124.968 105.292 124.87 105.683C124.842 105.787 124.784 105.884 124.698 105.942C124.174 106.287 123.846 106.793 123.501 107.294C123.133 107.829 122.679 108.289 122.115 108.657C121.965 108.755 121.833 108.876 121.718 109.002C121.62 109.112 121.517 109.221 121.436 109.342C121.246 109.641 121.333 110.032 121.534 110.279C121.672 110.475 121.919 110.555 122.126 110.624C122.391 110.722 122.696 110.82 122.995 110.889C123.806 111.085 124.594 111.321 125.371 111.597C125.509 111.648 125.641 111.712 125.773 111.786C125.889 111.856 126.073 111.965 126.061 111.976C126.084 111.999 126.113 112.034 126.142 112.051C126.251 112.12 126.418 112.137 126.544 112.051L126.642 111.976L126.849 111.758L127.269 111.292C127.683 110.82 128.057 110.314 128.42 109.802C128.759 109.324 129.047 108.807 129.38 108.323L132.349 104.038C132.585 103.693 132.797 103.33 133.027 102.985C133.085 102.899 133.148 102.812 133.212 102.732L133.304 102.617H133.309C133.321 102.623 133.344 102.623 133.373 102.611C133.384 102.6 133.384 102.577 133.373 102.554L131.089 100.155C130.663 99.6946 130.249 99.2171 129.708 98.8777C129.553 98.7799 129.61 98.6533 129.852 98.5038C130.278 98.2507 130.698 97.9688 131.112 97.9918C131.394 98.0033 131.63 98.0378 131.756 98.2679C131.935 98.6016 132.366 98.7281 132.406 99.1883C132.412 99.2516 132.475 99.2976 132.527 99.3264C133.022 99.6025 133.424 99.9649 133.793 100.362C133.977 100.557 134.155 100.765 134.333 100.972L134.598 101.282L134.937 101.662C135.196 101.944 135.501 102.208 135.806 102.496L135.685 102.663C135.507 102.904 135.317 103.146 135.121 103.382L134.707 103.859C134.598 103.986 134.489 104.113 134.397 104.251C134.253 104.458 134.178 104.705 133.81 104.711C133.735 104.711 133.666 104.826 133.689 104.901C133.787 105.206 133.632 105.349 133.499 105.505C133.137 105.936 132.751 106.345 132.406 106.793C132.153 107.121 131.929 107.472 131.722 107.84C131.4 108.404 131.123 109.002 130.795 109.566C130.519 110.038 130.197 110.469 129.904 110.924C129.835 111.027 129.8 111.159 129.731 111.263C129.599 111.453 129.501 111.677 129.294 111.792C129.064 111.919 128.932 112.051 128.983 112.367C129.006 112.546 128.874 112.69 128.759 112.805C128.609 112.949 128.414 113.052 128.218 113.156C128.086 113.242 127.896 113.397 127.758 113.512C127.609 113.639 127.465 113.771 127.309 113.949C127.143 114.151 126.792 114.208 126.521 114.162C126.084 114.105 125.699 113.949 125.354 113.725L124.997 113.501C124.899 113.443 124.801 113.391 124.704 113.34C124.502 113.242 124.295 113.15 124.088 113.069C123.173 112.724 122.259 112.373 121.344 112.028C120.682 111.775 120.147 111.298 119.906 110.665C119.705 110.182 119.687 109.624 119.848 109.117C119.935 108.864 120.05 108.628 120.222 108.41C120.303 108.295 120.395 108.191 120.487 108.088L120.659 107.886C121.045 107.443 121.442 107.018 121.844 106.586C122 106.419 122.167 106.253 122.27 106.045C122.512 105.568 122.863 105.183 123.254 104.826C123.726 104.4 124.048 103.854 124.364 103.307C124.439 103.181 124.485 103.031 124.594 102.933C125.336 102.243 125.785 101.317 126.458 100.569C127.005 99.9649 127.62 99.4242 128.224 98.8719C128.69 98.4462 129.179 98.0378 129.656 97.6236C129.685 97.5949 129.697 97.5488 129.731 97.5201C130.013 97.29 130.347 97.4223 130.646 97.8767C130.911 98.2852 130.968 98.6361 130.755 98.8777C130.525 99.1481 130.266 99.3954 130.025 99.6543L130.053 99.7003Z" fill="#A0D0DB"/>
<path d="M163.367 104.752L167.905 115.75C168.124 116.274 168.705 116.544 169.246 116.366L172.905 115.181C173.491 114.991 173.802 114.347 173.583 113.766L169.367 102.52L163.367 104.752Z" fill="#C0E3EB"/>
<path d="M164.752 105.942C164.821 106.408 164.919 106.862 164.942 107.34C164.959 107.766 164.971 108.185 165.282 108.502C165.362 108.582 165.368 108.703 165.414 108.807C165.494 108.991 165.569 109.181 165.655 109.359C165.696 109.44 165.822 109.491 165.828 109.583C165.84 110.032 165.955 110.435 166.277 110.751C166.196 111.137 166.467 111.372 166.656 111.649C166.846 111.925 166.927 112.253 167.209 112.488C167.283 112.552 167.335 112.638 167.341 112.73C167.375 113.288 167.634 113.754 167.882 114.226C167.979 114.41 168.06 114.605 168.129 114.801C168.164 114.899 168.192 115.002 168.221 115.106L168.256 115.261L168.267 115.37C168.273 115.48 168.279 115.606 168.307 115.739C168.365 116.009 168.641 116.153 168.894 116.164C169.049 116.176 169.199 116.118 169.337 116.049C169.458 115.992 169.653 115.905 169.82 115.842C170.321 115.652 170.81 115.428 171.264 115.117C171.46 114.985 171.655 114.858 171.851 114.732L172.15 114.548L172.294 114.462L172.34 114.41C172.409 114.335 172.444 114.26 172.449 114.174C172.449 114.07 172.541 114.019 172.547 113.904V113.823V113.777L172.513 113.645L172.38 113.104C172.288 112.747 172.196 112.385 172.087 112.034C171.926 111.505 171.707 110.993 171.483 110.486C171.276 110.015 171.005 109.566 170.787 109.094L168.877 104.906C168.802 104.74 168.716 104.573 168.63 104.412L168.595 104.348C168.583 104.331 168.589 104.343 168.584 104.337H168.566C168.555 104.337 168.549 104.343 168.537 104.348C168.526 104.36 168.526 104.36 168.526 104.354C168.532 104.348 168.532 104.343 168.537 104.331C168.537 104.314 168.537 104.302 168.526 104.297C168.52 104.291 168.515 104.291 168.503 104.285C168.497 104.285 168.503 104.279 168.48 104.285L168.284 104.354L165.529 105.355C165.005 105.539 164.476 105.695 164.01 106.034C163.878 106.126 163.792 106.028 163.746 105.746C163.671 105.263 163.573 104.768 163.723 104.406C163.826 104.164 163.93 103.963 164.166 103.952C164.505 103.934 164.747 103.606 165.149 103.767C165.207 103.79 165.264 103.756 165.305 103.721C166.093 103.077 167.025 102.922 167.974 102.605C168.348 102.479 168.727 102.283 169.124 102.122L169.636 101.921L169.728 102.174C169.861 102.554 169.958 102.951 170.114 103.29C170.171 103.422 170.246 103.543 170.286 103.681C170.315 103.796 170.304 103.9 170.212 104.049C170.171 104.107 170.223 104.216 170.304 104.228C170.603 104.285 170.643 104.464 170.7 104.642C170.856 105.114 170.988 105.591 171.166 106.057C171.299 106.402 171.466 106.73 171.655 107.046C171.949 107.541 172.288 108.019 172.57 108.519C172.806 108.939 172.99 109.376 173.203 109.808C173.255 109.905 173.341 109.992 173.387 110.09C173.467 110.274 173.606 110.452 173.583 110.659C173.56 110.895 173.6 111.056 173.887 111.154C174.048 111.211 174.095 111.378 174.123 111.516C174.158 111.695 174.141 111.896 174.118 112.091C174.095 112.327 174.06 112.552 174.302 112.707C174.365 112.747 174.399 112.816 174.417 112.885C174.422 112.92 174.428 112.96 174.428 113V113.058L174.44 113.15C174.514 113.679 174.526 114.145 174.388 114.6C174.261 115.048 173.997 115.457 173.617 115.75C173.467 115.871 173.295 115.957 173.105 116.043C172.789 116.17 172.685 116.233 172.507 116.32L172.018 116.561L171.04 117.044C170.741 117.188 170.424 117.298 170.114 117.418C170.01 117.459 169.579 117.631 169.245 117.683C168.894 117.74 168.538 117.706 168.204 117.602C167.531 117.395 166.984 116.866 166.737 116.199L166.616 115.877L166.553 115.687L166.426 115.301C166.363 115.106 166.305 114.91 166.185 114.743C165.897 114.364 165.753 113.927 165.65 113.466C165.529 112.914 165.23 112.442 164.919 111.971C164.85 111.861 164.747 111.764 164.718 111.637C164.505 110.768 163.947 110.038 163.659 109.204C163.423 108.525 163.28 107.812 163.113 107.11C162.986 106.563 162.888 106.011 162.773 105.459C162.768 105.424 162.733 105.395 162.727 105.361C162.676 105.045 162.952 104.82 163.492 104.757C163.97 104.705 164.292 104.791 164.396 105.056C164.505 105.349 164.585 105.654 164.683 105.953L164.752 105.942Z" fill="#A0D0DB"/>
<path d="M156.612 30.9279C156.468 31.0775 156.359 31.2385 156.175 31.3823C156.008 31.5089 155.836 31.6355 155.968 31.8138C156.002 31.8598 155.956 31.9001 155.951 31.9404C155.939 32.0151 155.928 32.0899 155.928 32.1705C155.928 32.205 156.02 32.2567 155.979 32.2855C155.795 32.4178 155.726 32.5674 155.87 32.7515C155.634 32.8377 155.767 32.9873 155.813 33.1196C155.859 33.2519 155.79 33.3727 155.939 33.5223C155.979 33.5626 155.985 33.6029 155.951 33.6316C155.738 33.7984 155.767 34.0113 155.778 34.2184C155.79 34.4427 155.698 34.6498 155.462 34.8282C155.335 34.926 155.318 35.0467 155.301 35.1618C155.278 35.2999 155.318 35.4494 155.312 35.5932C155.301 35.8003 155.329 36.0132 155.45 36.2375C155.611 36.5424 155.726 36.8358 155.795 37.1292C155.83 37.2788 155.738 37.4053 155.68 37.5376C155.565 37.8022 155.41 38.0611 155.318 38.3315C155.249 38.5328 155.237 38.7457 155.232 38.9643C155.226 39.1656 155.289 39.3727 155.289 39.574C155.301 40.1723 155.301 40.7648 155.312 41.3573C155.312 41.5012 155.352 41.6507 155.358 41.7945C155.364 41.8693 155.352 41.9383 155.335 42.0074C155.266 42.2605 155.18 42.5079 155.122 42.7667C155.042 43.1349 154.996 43.503 154.915 43.8712C154.869 44.0783 154.8 44.2796 154.915 44.5155C154.95 44.5788 154.817 44.5788 154.547 44.5097C154.081 44.3947 153.592 44.2797 153.328 44.1301C153.149 44.0323 153.011 43.9402 153.097 43.8712C153.218 43.7677 153.023 43.6009 153.328 43.5261C153.374 43.5146 153.362 43.4915 153.345 43.4685C153.086 43.0543 153.316 42.7207 153.414 42.364C153.448 42.249 153.414 42.1224 153.42 42.0016C153.425 41.9211 153.437 41.8463 153.454 41.7715C153.483 41.6622 153.546 41.5587 153.546 41.4436C153.54 41.3573 153.466 41.2596 153.759 41.2308C153.822 41.225 153.811 41.179 153.747 41.1503C153.5 41.0467 153.54 40.9834 153.558 40.9144C153.609 40.7303 153.684 40.552 153.713 40.3621C153.736 40.2241 153.713 40.0803 153.678 39.9307C153.621 39.7006 153.506 39.459 153.454 39.2346C153.408 39.0448 153.425 38.8607 153.408 38.6709C153.402 38.6249 153.356 38.5789 153.356 38.5328C153.356 38.4523 153.31 38.366 153.408 38.3085C153.523 38.2452 153.552 38.1876 153.333 38.0726C153.212 38.0093 153.236 37.946 153.264 37.8943C153.305 37.831 153.402 37.7792 153.5 37.7275C153.615 37.6642 153.742 37.6067 153.581 37.4916C153.494 37.4283 153.563 37.3765 153.632 37.3305C153.949 37.1464 153.966 36.9048 153.926 36.6575C153.874 36.3181 153.782 35.9787 153.724 35.6393C153.701 35.507 153.713 35.3804 153.719 35.2538C153.73 34.8569 153.862 34.4772 154.006 34.0976C154.035 34.0228 154.07 33.948 154.035 33.8675C153.949 33.6719 154.006 33.5051 154.116 33.344C154.248 33.1484 154.185 32.9241 154.121 32.6997C154.104 32.6479 154.058 32.5904 154.087 32.5444C154.277 32.2337 154.098 31.8598 154.208 31.5319C154.294 31.2673 154.472 31.0199 154.633 30.7726C154.754 30.577 154.91 30.3929 155.053 30.2031C155.065 30.1916 155.042 30.1743 155.053 30.1628C155.145 30.0592 155.491 30.0765 155.991 30.2203C156.434 30.3469 156.687 30.4677 156.658 30.577C156.629 30.692 156.566 30.8071 156.52 30.9164C156.566 30.9164 156.589 30.9221 156.612 30.9279Z" fill="#A0D0DB"/>
<path d="M131.353 102.363C129.403 100.885 118.979 92.6412 117.967 78.5071C117.006 65.1323 124.962 53.2877 135.202 47.2648C145.435 41.2476 159.84 39.936 171.213 47.5754C184.415 56.4401 185.41 71.8973 185.525 74.3537C185.663 77.2875 186.026 88.8502 177.368 98.5145C168.221 108.725 155.767 109.289 152.126 109.289C148.904 109.283 139.873 108.823 131.353 102.363Z" fill="#C0E3EB"/>
<path d="M124.203 96.3862C122.684 94.252 121.355 91.951 120.406 89.5521C119.532 87.4179 118.991 85.2435 118.306 83.0057C118.145 82.4247 118.053 81.7746 117.927 81.1533L117.725 79.4448L117.622 78.5934C117.599 78.3058 117.599 78.0239 117.582 77.7363C117.559 77.2128 117.443 76.6663 117.461 76.1831C117.679 73.7958 117.95 71.4603 118.347 69.0902C118.663 68.21 118.968 67.3414 119.198 66.444C119.509 65.5753 119.739 64.6722 120.09 63.8036C120.458 62.9407 120.803 62.0605 121.257 61.2321C121.47 60.8122 121.683 60.3865 121.89 59.9666C122.109 59.5524 122.345 59.144 122.552 58.7298C122.782 58.2926 123.052 57.7863 123.386 57.4124C125.267 55.0308 127.24 52.7298 129.518 50.6876C131.951 48.5074 134.764 46.7299 137.767 45.5333C138.17 45.378 138.573 45.2112 138.975 45.0386C139.384 44.8776 139.798 44.7337 140.212 44.5784C140.626 44.4288 141.035 44.2505 141.455 44.1182C141.875 43.9859 142.295 43.8478 142.715 43.7155L143.462 43.4739L144.222 43.2726L145.74 42.8641L147.282 42.5478L148.053 42.3924L148.835 42.2889C151.855 41.8689 154.899 41.7884 157.942 42.0242C162.003 42.3752 166.099 43.4854 169.786 45.4643C170.246 45.7289 170.707 45.9993 171.167 46.2812C171.397 46.425 171.627 46.5573 171.851 46.7069L172.496 47.1959C173.347 47.8574 174.227 48.4787 174.987 49.2438C178.156 52.1373 180.705 55.6694 182.488 59.5179C183.857 62.3999 184.881 65.4431 185.577 68.5494C186.21 71.4487 186.595 74.4343 186.515 77.4314C186.434 81.8609 185.554 86.3019 183.828 90.4323C183.42 91.4735 182.896 92.4687 182.396 93.4697C181.821 94.4303 181.297 95.4255 180.63 96.3287C179.393 98.204 177.88 99.878 176.281 101.46C175.47 102.173 174.705 102.944 173.83 103.583C173.399 103.911 172.985 104.261 172.542 104.572L171.19 105.475C170.747 105.792 170.258 106.028 169.786 106.298C169.309 106.557 168.843 106.833 168.342 107.046C164.712 108.777 160.812 109.847 156.86 110.33C151.194 111.067 145.338 110.423 139.959 108.49C138.423 107.96 136.956 107.259 135.501 106.545C134.074 105.78 132.653 104.992 131.301 104.089C130.536 103.594 130.375 103.324 130.818 103.295C131.198 103.272 131.555 103.226 131.986 103.266C132.423 103.301 132.918 103.439 133.631 103.703C134.58 104.095 135.461 104.417 136.525 105.067C138.089 105.987 139.93 106.493 141.53 107.31C141.76 107.425 142.111 107.523 142.398 107.592C145.004 108.173 147.639 108.599 150.296 108.754C152.948 108.91 155.635 108.795 158.27 108.352C159.132 108.219 159.984 108.006 160.829 107.805C161.669 107.558 162.515 107.339 163.332 107.04C163.867 106.862 164.408 106.683 164.925 106.465C165.449 106.246 165.99 106.074 166.496 105.826C167.238 105.481 168.003 105.17 168.716 104.762L169.804 104.181C170.154 103.968 170.494 103.738 170.839 103.514C171.098 103.341 171.351 103.168 171.604 103.002C171.851 102.829 172.082 102.633 172.323 102.461C172.801 102.104 173.307 101.817 173.825 101.564C174.037 101.454 174.521 101.011 174.647 100.81C175.153 100.056 175.867 99.3373 176.58 98.6125C178.467 96.6106 180.112 94.367 181.383 91.9164C181.878 91.019 182.258 90.0699 182.649 89.1322C182.988 88.1715 183.334 87.2108 183.569 86.2214C183.984 84.7027 184.254 83.1495 184.432 81.5905C184.616 80.0316 184.685 78.4669 184.674 76.9022C184.662 75.5963 184.593 74.279 184.455 72.9904C184.312 71.6903 184.087 70.396 183.817 69.1189C183.673 68.5322 183.489 67.9569 183.345 67.3759C183.19 66.8467 183.029 66.3002 182.868 65.7652C182.695 65.2302 182.522 64.7125 182.402 64.2005C182.281 63.631 182.091 63.1478 181.907 62.6818C181.711 62.2158 181.493 61.7729 181.148 61.3472C180.762 60.8697 180.423 59.9896 180.043 59.3223C179.819 58.8851 179.606 58.4421 179.399 57.9934C179.18 57.5562 178.939 57.1305 178.714 56.7049C178.202 55.6521 177.558 54.7547 176.666 53.8688C176.143 53.4316 175.556 52.7183 175.084 52.1143C172.904 49.5371 170.016 47.5237 166.898 46.1258C162.653 44.2332 157.999 43.4106 153.403 43.5429C152.954 43.5372 152.5 43.566 152.051 43.6005L150.699 43.6925C149.802 43.7961 148.899 43.8996 148.007 44.0492C142.461 44.9868 137.117 47.1556 132.578 50.4921C132.118 50.797 131.698 51.1709 131.267 51.516C130.836 51.8669 130.41 52.2236 130.042 52.6263C129.61 53.0865 129.144 53.5064 128.724 53.9781C128.304 54.4441 127.879 54.9043 127.447 55.3588L126.233 56.7912C125.819 57.2629 125.463 57.7806 125.071 58.2696C123.242 60.6857 121.902 63.4354 120.999 66.2772C120.757 66.933 120.636 67.629 120.423 68.2791C119.721 70.5628 119.313 72.9502 119.307 75.3375C119.284 77.7191 119.48 80.1064 119.992 82.4304C120.717 86.2099 122.224 89.8397 124.266 93.159C125.883 95.7016 127.781 98.089 129.978 100.194C130.122 100.332 130.295 100.448 130.439 100.586C131.704 101.753 131.974 102.334 130.991 102.248C130.122 102.15 129.012 101.592 127.838 100.453C126.538 99.1992 125.359 97.8243 124.278 96.3862H124.203Z" fill="#A0D0DB"/>
<path d="M124.277 80.0432C122.522 68.3712 128.764 56.7107 138.589 51.4183C147.489 46.6264 156.336 48.6686 158.752 49.2611C160.748 49.7558 171.73 52.6896 177.684 63.7289C178.334 64.9311 184.892 77.6156 178.144 90.3518C173.277 99.5444 164.677 102.714 163.061 103.278C152.137 107.086 142.777 102.415 140.286 101.121C137.692 99.7861 126.279 93.3834 124.277 80.0432Z" fill="#C0E3EB"/>
<path d="M123.443 72.2082C123.541 71.6617 123.644 71.1152 123.8 70.5802C123.949 70.0452 124.07 69.5045 124.237 68.9753C124.421 68.4518 124.605 67.934 124.789 67.4163C124.962 66.8986 125.226 66.4096 125.445 65.9149C125.825 65.0232 126.342 64.2063 126.768 63.3492C126.998 62.9293 127.251 62.5208 127.476 62.0951C127.7 61.6695 127.919 61.2323 128.166 60.8066C128.413 60.3579 128.741 59.9149 129.04 59.4777C129.639 58.7184 130.185 57.9188 130.841 57.2112C131.129 56.8776 131.364 56.4634 131.664 56.1873C133.205 54.8757 134.724 53.6101 136.306 52.3503C137.014 51.9994 137.71 51.6485 138.365 51.2228C139.05 50.8604 139.717 50.4347 140.436 50.101C141.863 49.405 143.416 48.9678 144.906 48.4385C145.303 48.3005 145.775 48.2027 146.195 48.1509C148.755 47.869 151.303 47.7367 153.88 47.8978C156.63 48.0876 159.357 48.7434 161.847 49.8767C163.171 50.4807 164.545 51.102 165.857 51.798C167.422 52.6149 168.935 53.5411 170.344 54.6168C172.386 56.1757 174.233 57.9648 175.907 59.9264C177.011 61.2553 178.012 62.6647 178.869 64.2179C179.692 65.7653 180.359 67.3875 180.911 69.0558C181.452 70.7586 181.757 72.5648 181.953 74.3539C182.315 77.9493 181.999 81.6022 181.038 85.071C180.894 85.7325 180.653 86.3653 180.423 87.0038C180.192 87.6366 179.997 88.2924 179.686 88.8965L178.841 90.743L177.84 92.5091C176.522 94.6663 174.935 96.6682 173.071 98.3997C170.309 100.965 167.077 102.99 163.516 104.342C159.949 105.613 156.106 106.223 152.31 105.97C150.486 105.861 148.668 105.636 146.891 105.205C146.005 104.986 145.125 104.728 144.268 104.423C142.674 103.859 141.121 103.157 139.648 102.369C138.153 101.564 136.732 100.666 135.374 99.671C131.479 96.8523 128.103 93.2109 125.83 88.8907C125.531 88.2637 125.186 87.6654 124.939 87.0211L124.174 85.094L123.552 83.1208C123.34 82.465 123.219 81.7805 123.035 81.1132C122.839 80.3596 122.92 80.095 123.248 80.3366C123.817 80.745 124.381 81.0384 124.904 82.2004C125.295 82.977 125.681 83.6731 125.917 84.6913C126.158 85.4046 126.452 86.1294 126.774 86.8255C127.142 87.5101 127.435 88.2177 127.694 88.931C127.769 89.1323 127.942 89.3854 128.086 89.5925C130.68 93.2339 133.798 96.5244 137.531 99.0497C138.745 99.8781 140.045 100.563 141.374 101.19C142.231 101.598 143.106 101.978 143.991 102.317C145.274 102.818 146.586 103.284 147.938 103.566C148.444 103.686 148.95 103.755 149.439 103.853C149.928 103.962 150.4 104.083 150.848 104.273C151.038 104.354 151.585 104.417 151.786 104.365C152.551 104.147 153.391 104.267 154.248 104.25C156.555 104.285 158.873 104.026 161.117 103.433C161.928 103.169 162.768 102.956 163.55 102.616C164.338 102.288 165.109 101.92 165.857 101.506C168.175 100.229 170.258 98.5896 172.116 96.7602C173.663 95.2243 175.067 93.5273 176.189 91.6634C176.459 91.2378 176.637 90.766 176.885 90.3346C177.126 89.9434 177.299 89.5005 177.489 89.0805C177.679 88.6549 177.88 88.2464 178.104 87.8725C178.576 87.0326 178.8 86.302 178.887 85.4046C178.904 84.8927 179.082 84.1333 179.266 83.5235C179.393 83.1324 179.479 82.7354 179.577 82.3327C179.68 81.9358 179.784 81.5389 179.882 81.1477C180.008 80.676 180.06 80.2043 180.123 79.7268C180.169 79.2494 180.21 78.7547 180.095 78.2254C180.043 77.9435 180.031 77.6099 180.037 77.2647C180.049 76.9196 180.066 76.5629 180.066 76.2408C180.158 73.399 179.537 70.5054 178.501 67.819C178.15 66.9043 177.759 66.0069 177.328 65.1383C176.913 64.2696 176.355 63.4873 175.838 62.6589C174.733 61.077 173.525 59.564 172.11 58.2524C171.592 57.7059 170.988 57.24 170.43 56.7337C169.849 56.2505 169.251 55.7903 168.641 55.3416C164.799 52.6322 160.409 50.6648 155.75 49.8824C154.835 49.7329 153.903 49.589 152.988 49.5948C150.877 49.5833 148.801 49.6408 146.724 49.9169C144.222 50.2506 141.834 51.1307 139.671 52.356C139.153 52.6149 138.693 52.9946 138.187 53.2592C136.45 54.2371 134.851 55.4797 133.47 56.9236C132.078 58.356 130.824 59.9207 129.742 61.6004C129.265 62.2562 128.897 62.9753 128.471 63.6656C128.068 64.3674 127.735 65.1037 127.361 65.8286C126.722 67.3127 126.118 68.8314 125.738 70.4192C125.106 72.8525 124.778 75.3779 124.841 77.9148C124.853 78.0816 124.893 78.2542 124.904 78.4152C124.985 79.8476 124.697 80.3826 124.11 79.7556C123.852 79.4737 123.622 79.0883 123.449 78.5993C123.363 78.352 123.271 78.0816 123.23 77.7882C123.19 77.4891 123.167 77.1669 123.161 76.8218L123.144 75.6713L123.225 74.5265C123.253 74.1468 123.276 73.7614 123.317 73.3817L123.489 72.2485L123.443 72.2082Z" fill="#A0D0DB"/>
<path d="M151.027 61.8475C150.975 62.3134 150.964 62.7794 150.866 63.2511C150.78 63.671 150.688 64.0795 150.906 64.4649C150.964 64.5627 150.941 64.6835 150.958 64.7928C150.987 64.9941 151.015 65.1897 151.062 65.3911C151.079 65.4831 151.194 65.5636 151.171 65.6499C151.073 66.0871 151.085 66.5071 151.32 66.8983C151.148 67.2549 151.355 67.5483 151.464 67.8647C151.579 68.1811 151.579 68.5205 151.792 68.8138C151.85 68.8944 151.878 68.9864 151.861 69.0785C151.752 69.6307 151.896 70.1427 152.016 70.6662C152.149 71.2242 152.172 71.7994 152.051 72.392C151.988 72.7084 152.039 73.019 152.085 73.3239C152.137 73.692 152.252 74.0487 152.327 74.4111C152.431 74.9404 152.569 75.4581 152.799 75.9586C153.104 76.6316 153.368 77.3219 153.587 78.0122C153.644 78.1905 153.667 78.3689 153.679 78.5587C153.702 78.8579 153.725 79.157 153.748 79.4561L153.794 80.0084L153.132 80.4743L152.81 80.6987L152.655 80.808L152.557 80.8713C152.293 81.0381 152.028 81.2107 151.775 81.3947C151.32 81.7169 150.9 82.0793 150.492 82.4532C150.107 82.7984 149.761 83.1953 149.382 83.552L145.994 86.6814C145.723 86.9345 145.476 87.2106 145.205 87.4637C145.073 87.5903 144.929 87.7111 144.78 87.8204C144.233 88.2288 143.669 88.62 143.129 89.0399L140.828 90.8635C140.391 91.2029 139.93 91.5193 139.597 91.991C139.505 92.1233 139.384 92.0543 139.257 91.8012C139.033 91.364 138.786 90.9268 138.814 90.5356C138.832 90.271 138.872 90.0524 139.09 89.9661C139.407 89.8453 139.533 89.4541 139.965 89.4829C140.028 89.4886 140.068 89.4369 140.097 89.3851C140.638 88.5337 141.495 88.0678 142.266 87.4925C142.519 87.3084 142.732 87.0668 142.968 86.8597C143.123 86.7274 143.278 86.5951 143.439 86.4743C143.675 86.2959 143.934 86.1464 144.153 85.9451C144.314 85.7897 144.429 85.5826 144.762 85.6804C144.831 85.6977 144.912 85.6171 144.906 85.5366C144.866 85.2317 145.027 85.1397 145.177 85.0304C145.579 84.737 145.993 84.4609 146.379 84.1445C146.667 83.9144 146.925 83.6498 147.173 83.3679C147.552 82.9365 147.903 82.4647 148.289 82.0333C148.611 81.6766 148.973 81.366 149.319 81.0266C149.399 80.9461 149.445 80.8368 149.531 80.762C149.681 80.6239 149.807 80.4456 150.015 80.3938C150.245 80.342 150.383 80.2558 150.389 79.9509C150.394 79.7783 150.538 79.6805 150.659 79.6115C150.82 79.5194 151.015 79.4791 151.211 79.4331C151.32 79.4101 151.458 79.3698 151.522 79.3468C151.562 79.3411 151.585 79.3008 151.533 79.226C151.481 79.1455 151.55 79.1627 151.654 79.1627H151.671C151.735 79.1455 151.781 79.0995 151.804 79.0477C151.815 79.0189 151.827 78.9902 151.832 78.9556L151.838 78.9039L151.832 78.7946C151.804 78.4897 151.735 78.1848 151.654 77.8857C151.43 77.0631 151.159 76.2462 150.929 75.4236C150.837 75.1014 150.785 74.7735 150.716 74.4456C150.515 73.4274 150.435 72.392 150.365 71.3565C150.354 71.1552 150.348 70.948 150.268 70.7525C150.084 70.3095 150.049 69.8493 150.061 69.3833C150.078 68.8196 149.905 68.2846 149.721 67.7554C149.681 67.6288 149.606 67.508 149.606 67.3814C149.612 66.484 149.255 65.6384 149.175 64.7583C149.111 64.0449 149.146 63.3144 149.157 62.5895C149.169 62.0315 149.209 61.4678 149.238 60.904C149.238 60.8695 149.215 60.835 149.215 60.7947C149.244 60.4726 149.566 60.3288 150.101 60.3978C150.573 60.4611 150.866 60.6279 150.9 60.9155C150.935 61.2262 150.941 61.5426 150.958 61.859L151.027 61.8475Z" fill="#A0D0DB"/>
<path d="M148.283 78.6626C148.329 76.8563 150.319 75.4297 151.976 75.4297C153.61 75.4297 155.623 76.8161 155.669 78.6626C155.715 80.5092 153.776 82.143 152.091 82.2005C150.29 82.2638 148.237 80.5322 148.283 78.6626Z" fill="#C0E3EB"/>
<path d="M147.72 77.4196C147.955 77.1492 148.191 76.9076 148.502 76.7638C148.778 76.6372 149.043 76.5682 149.123 76.2748C149.146 76.2001 149.227 76.177 149.278 76.131C149.376 76.0447 149.48 75.9757 149.572 75.8894C149.612 75.8492 149.612 75.7398 149.675 75.7341C149.986 75.7226 150.216 75.6478 150.394 75.3832C150.665 75.4982 150.791 75.2912 150.981 75.1646C151.171 75.0438 151.39 75.0495 151.591 74.8539C151.649 74.8022 151.718 74.7849 151.781 74.8137C152.16 74.9747 152.5 74.946 152.862 74.9863C153.248 75.0208 153.599 75.2221 153.829 75.5672C153.95 75.7456 154.111 75.8491 154.277 75.9469C154.462 76.0792 154.686 76.1713 154.87 76.3151C155.129 76.5337 155.405 76.7408 155.721 76.9709C156.153 77.2758 156.521 77.7475 156.705 78.3228C156.803 78.6161 156.722 78.9325 156.653 79.2202C156.504 79.8012 156.193 80.2844 155.882 80.7043C155.641 81.015 155.422 81.3314 155.163 81.6247C154.927 81.8951 154.703 82.1943 154.41 82.4244C153.978 82.7638 153.484 83.0456 152.908 83.2297C152.339 83.4195 151.654 83.4656 151.045 83.3793C150.751 83.339 150.458 83.3045 150.17 83.224C150.032 83.178 149.9 83.1204 149.773 83.0514C149.313 82.781 148.91 82.4416 148.536 82.0792C148.007 81.5557 147.53 80.9402 147.248 80.1751C147.104 79.7264 147.023 79.2777 146.868 78.7772C146.822 78.6334 146.949 78.5931 147.225 78.6507C147.702 78.7427 148.208 78.7945 148.496 78.9153C148.686 78.9958 148.864 79.0476 148.807 79.1626C148.743 79.3467 148.997 79.433 148.795 79.6861C148.766 79.7264 148.795 79.7494 148.824 79.7667C149.319 80.0715 149.463 80.526 149.836 80.8999C149.951 81.0207 150.118 81.0782 150.262 81.153C150.354 81.2105 150.452 81.2508 150.538 81.3141C150.665 81.4004 150.791 81.5039 150.941 81.5442C151.062 81.5672 151.183 81.5212 151.206 81.8203C151.211 81.8836 151.28 81.8836 151.315 81.8261C151.459 81.596 151.533 81.642 151.625 81.6593C151.861 81.7283 152.103 81.757 152.35 81.7283C152.534 81.6938 152.707 81.6075 152.857 81.4924C153.092 81.2969 153.271 81.0437 153.438 80.8251C153.581 80.641 153.742 80.4915 153.857 80.3131C153.886 80.2671 153.875 80.1981 153.904 80.1578C153.961 80.0888 153.961 79.9737 154.082 79.9737C154.226 79.9737 154.277 79.9105 154.128 79.7206C154.047 79.6171 154.088 79.5711 154.134 79.5308C154.191 79.4848 154.306 79.4733 154.41 79.4445C154.536 79.4158 154.686 79.3697 154.536 79.2317C154.456 79.1626 154.536 79.1224 154.605 79.0821C154.939 78.9095 154.905 78.6046 154.784 78.386C154.611 78.0754 154.323 77.851 154.024 77.6727C153.904 77.6037 153.817 77.5116 153.702 77.4426C153.363 77.2125 153.023 76.9421 152.638 76.7408C152.563 76.6948 152.488 76.6602 152.396 76.689C152.195 76.7753 152.057 76.7235 151.89 76.6545C151.689 76.5625 151.47 76.7063 151.298 76.8731C151.257 76.9134 151.229 76.9766 151.177 76.9824C150.786 76.9939 150.59 77.3966 150.32 77.5749C150.095 77.7245 149.819 77.8395 149.595 78.0236C149.411 78.1617 149.244 78.317 149.106 78.5183C149.1 78.5298 149.117 78.5471 149.112 78.5644C149.025 78.6737 148.68 78.7312 148.168 78.6276C147.72 78.5356 147.455 78.3343 147.507 78.1157C147.558 77.8798 147.668 77.6612 147.783 77.4599L147.72 77.4196Z" fill="#A0D0DB"/>
<path d="M147.645 31.894C146.984 31.8422 146.656 31.0714 147.07 30.5536C148.151 29.196 150.257 27.1884 153.409 26.849C157.039 26.4578 160.703 28.4252 162.711 31.8422C163.05 32.4175 162.59 33.1308 161.929 33.079C157.166 32.6821 152.408 32.2909 147.645 31.894Z" fill="#C0E3EB"/>
<path d="M146.224 30.37C146.282 30.2722 146.351 30.1916 146.425 30.1169C146.5 30.0363 146.529 30.0305 146.581 29.9845C146.678 29.9097 146.77 29.8349 146.868 29.7659C147.064 29.6221 147.265 29.4956 147.484 29.3863C147.875 29.1964 148.255 29.0468 148.467 28.6557C148.519 28.5521 148.64 28.5119 148.726 28.4428L149.21 28.0689C149.279 28.0057 149.313 27.8791 149.399 27.8561C149.842 27.7525 150.222 27.603 150.527 27.2578C150.918 27.3211 151.148 27.0507 151.447 26.8781C151.746 26.7056 152.08 26.6538 152.373 26.4179C152.454 26.3547 152.552 26.3144 152.644 26.3259C153.219 26.4122 153.743 26.2914 154.301 26.2453C154.893 26.1878 155.497 26.3086 156.021 26.6135C156.302 26.7688 156.607 26.8494 156.907 26.9299C157.257 27.0392 157.631 27.0967 157.982 27.229C158.494 27.4131 158.989 27.6087 159.541 27.764C160.266 27.9826 160.979 28.3163 161.618 28.765C161.934 29.0008 162.176 29.3287 162.395 29.6566L162.561 29.8983L162.642 30.019L162.751 30.2031L163.188 30.9337C163.315 31.1696 163.367 31.4112 163.459 31.6413L163.585 31.9807C163.603 32.09 163.608 32.1993 163.603 32.3143C163.591 32.6595 163.453 33.0219 163.217 33.298C162.981 33.5799 162.665 33.7582 162.354 33.8272C162.061 33.9135 161.675 33.9423 161.273 33.9308H160.254L155.768 33.879C155.405 33.8733 155.048 33.9078 154.686 33.9078C154.508 33.9078 154.329 33.8963 154.151 33.8733C153.489 33.7927 152.834 33.6949 152.166 33.6259L149.319 33.367C148.778 33.3095 148.243 33.229 147.697 33.3383C147.541 33.367 147.507 33.2347 147.582 32.9644C147.72 32.4926 147.835 32.0037 148.117 31.7391C148.306 31.5608 148.485 31.4284 148.692 31.5147C148.997 31.6413 149.348 31.4457 149.635 31.7621C149.676 31.8081 149.739 31.7966 149.791 31.7851C150.745 31.5377 151.66 31.7851 152.586 31.9001C152.891 31.9404 153.196 31.9116 153.507 31.9231C153.702 31.9289 153.904 31.9462 154.099 31.9692C154.387 32.0037 154.669 32.0727 154.956 32.0727C155.175 32.0727 155.394 31.9979 155.56 32.2971C155.595 32.3603 155.71 32.3546 155.756 32.2913C155.929 32.044 156.107 32.0842 156.285 32.1072C156.763 32.1648 157.246 32.251 157.723 32.2856C158.08 32.3143 158.442 32.3028 158.799 32.2683C159.357 32.2165 159.921 32.113 160.479 32.067L160.651 32.0555L160.732 32.0497L160.761 32.044L160.87 32.021C160.939 32.0095 161.002 31.9979 161.048 31.9749C161.071 31.9634 161.054 31.9116 161.066 31.8944C161.106 31.8714 161.06 31.7909 161.198 31.8426C161.359 31.8944 161.422 31.8196 161.089 31.6643C160.905 31.5838 160.922 31.5895 160.945 31.578C160.979 31.5722 161.083 31.5608 161.158 31.5205C161.261 31.4802 161.313 31.3536 161.1 31.3652C161.048 31.3709 161.025 31.3594 161.025 31.3364C161.02 31.3134 161.048 31.2961 161.02 31.2098C160.887 30.6173 160.485 30.1916 160.007 29.8925C159.369 29.4668 158.667 29.1677 157.976 28.9318C157.7 28.8455 157.447 28.7247 157.177 28.6442C156.348 28.3738 155.526 28.115 154.657 27.9941C154.49 27.9769 154.312 27.9481 154.145 27.9999C153.76 28.1322 153.392 28.1379 152.995 28.1207C152.517 28.1149 152.086 28.3335 151.7 28.5924C151.608 28.6557 151.534 28.7535 151.43 28.7707C150.694 28.9433 150.188 29.5531 149.589 29.973C149.1 30.3239 148.565 30.6633 148.076 31.0718L147.932 31.1926L147.898 31.2213L147.737 31.0948L147.702 31.0718C147.662 31.0545 147.668 31.0602 147.685 31.0602C147.725 31.0545 147.691 31.0545 147.674 31.0833C147.674 31.0775 147.668 31.089 147.674 31.0833C147.662 31.089 147.645 31.2098 147.651 31.3652C147.651 31.5262 147.656 31.7448 147.536 31.9864C147.432 32.205 147.248 32.3546 147.029 32.3834C146.811 32.4121 146.552 32.3201 146.385 32.0957C146.005 31.6125 145.971 30.9165 146.253 30.3987L146.224 30.37Z" fill="#A0D0DB"/>
<path d="M108.158 23.1618C108.152 23.3459 108.181 23.507 108.135 23.7198C108.095 23.9097 108.055 24.0995 108.262 24.0995C108.314 24.0995 108.308 24.1513 108.331 24.18C108.371 24.2261 108.406 24.2836 108.457 24.3238C108.48 24.3411 108.578 24.3066 108.567 24.3468C108.521 24.5482 108.567 24.6805 108.785 24.6805C108.676 24.8991 108.86 24.8818 108.981 24.9221C109.096 24.9624 109.125 25.0774 109.32 25.0544C109.372 25.0486 109.407 25.0659 109.395 25.1004C109.349 25.3478 109.504 25.4341 109.648 25.5434C109.798 25.6527 109.861 25.831 109.809 26.1014C109.78 26.2452 109.844 26.32 109.907 26.3948C109.982 26.4868 110.103 26.5386 110.183 26.6191C110.304 26.7399 110.459 26.832 110.684 26.8722C110.983 26.924 111.253 27.0045 111.483 27.1081C111.598 27.1599 111.616 27.2979 111.662 27.413C111.748 27.6373 111.805 27.8905 111.909 28.1033C111.989 28.2644 112.11 28.3851 112.243 28.506C112.363 28.6153 112.536 28.69 112.668 28.7936C113.054 29.11 113.422 29.4321 113.802 29.7485C113.894 29.8233 114.009 29.8808 114.106 29.9499C114.152 29.9844 114.193 30.0304 114.221 30.0822C114.331 30.2663 114.429 30.4676 114.549 30.6459C114.722 30.899 114.923 31.1349 115.096 31.3938C115.194 31.5376 115.274 31.6986 115.499 31.7447C115.562 31.7562 115.47 31.8482 115.24 32.0035C114.843 32.2682 114.429 32.5558 114.152 32.6651C113.963 32.7399 113.813 32.7859 113.83 32.6881C113.848 32.5443 113.606 32.5961 113.773 32.3372C113.796 32.3027 113.773 32.2912 113.75 32.2912C113.307 32.2509 113.261 31.9057 113.105 31.6411C113.054 31.5548 112.956 31.5088 112.881 31.4398C112.835 31.3938 112.795 31.342 112.76 31.2902C112.709 31.2097 112.691 31.1061 112.616 31.0486C112.559 31.0026 112.444 31.0083 112.634 30.784C112.674 30.738 112.639 30.715 112.576 30.7495C112.34 30.8703 112.323 30.807 112.294 30.7552C112.214 30.6172 112.156 30.4676 112.058 30.3468C111.984 30.2547 111.88 30.1915 111.759 30.1397C111.575 30.0592 111.345 30.0074 111.161 29.9211C111.011 29.8463 110.908 29.737 110.776 29.6507C110.747 29.6277 110.678 29.6392 110.655 29.6162C110.609 29.576 110.517 29.5587 110.551 29.4551C110.592 29.3401 110.574 29.2883 110.356 29.3804C110.229 29.4321 110.206 29.3803 110.2 29.3343C110.189 29.271 110.223 29.1733 110.258 29.0755C110.298 28.9604 110.35 28.8396 110.166 28.8914C110.068 28.9202 110.08 28.8396 110.103 28.7648C110.206 28.4427 110.068 28.2989 109.884 28.1896C109.637 28.04 109.355 27.9192 109.102 27.7812C109.004 27.7236 108.935 27.6488 108.854 27.574C108.613 27.3497 108.469 27.0506 108.331 26.7399C108.302 26.6824 108.285 26.6134 108.204 26.5961C108.02 26.5501 107.957 26.4178 107.934 26.2567C107.905 26.0554 107.721 25.9806 107.531 25.9058C107.485 25.8885 107.416 25.8885 107.41 25.8483C107.347 25.5434 106.99 25.4686 106.858 25.2155C106.755 25.0141 106.726 24.7495 106.68 24.5022C106.645 24.3123 106.634 24.0995 106.611 23.8924C106.611 23.8809 106.582 23.8809 106.582 23.8694C106.582 23.7428 106.829 23.5127 107.272 23.2308C107.664 22.9835 107.911 22.8742 107.963 22.949C108.014 23.0353 108.043 23.1388 108.083 23.2308C108.124 23.1906 108.141 23.1733 108.158 23.1618Z" fill="#A0D0DB"/>
<path d="M106.957 51.281C106.307 51.7355 105.38 51.4076 105.185 50.6367C103.189 42.8592 106.215 34.518 112.888 29.8756C119.543 25.2448 128.385 25.2851 134.983 29.8239C135.639 30.2726 135.628 31.2505 134.978 31.7107C125.635 38.2341 116.299 44.7576 106.957 51.281Z" fill="#C0E3EB"/>
<path d="M104.052 49.3017C104.04 48.7552 104.006 48.2145 104 47.6737C104.029 47.133 104.04 46.598 104.115 46.0688C104.196 45.5971 104.27 45.1369 104.328 44.6767C104.403 44.2164 104.443 43.7562 104.408 43.273C104.408 43.0257 104.489 42.7668 104.529 42.5137L104.644 41.8234L104.8 41.1388C104.846 40.9317 104.805 40.6901 104.88 40.506C105.081 40.0573 105.3 39.6201 105.455 39.1599C105.622 38.7055 105.795 38.2568 105.893 37.7678C106.134 37.4572 106.336 37.1408 106.479 36.7956C106.554 36.623 106.623 36.4447 106.686 36.2664L106.928 35.7486C107.101 35.4092 107.273 35.0583 107.486 34.7362C107.693 34.414 107.889 34.0804 108.044 33.718C108.119 33.5224 108.268 33.3441 108.418 33.2002C108.654 32.9874 108.872 32.7688 109.085 32.5444C109.304 32.3258 109.534 32.113 109.747 31.8886C110.167 31.4284 110.621 31.0085 111.076 30.5713C111.565 30.1111 112.117 29.7257 112.669 29.3575C113.256 29.0354 113.831 28.696 114.47 28.4946C114.809 28.3796 115.131 28.2242 115.459 28.0804C115.793 27.9481 116.126 27.7986 116.449 27.6547C116.834 27.4707 117.242 27.3441 117.634 27.1773C118.025 27.0047 118.433 26.8781 118.847 26.7631C120.038 26.3949 121.252 26.1706 122.477 25.8887C124.128 25.5665 125.854 25.4918 127.574 25.6759C128.454 25.7564 129.306 26.0613 130.14 26.3432C131.808 26.9299 133.355 27.7986 134.811 28.765L135.311 29.0929C135.507 29.2252 135.697 29.3748 135.841 29.5588C136.134 29.9213 136.283 30.393 136.255 30.8589C136.232 31.3249 136.042 31.7794 135.708 32.1188C135.547 32.2913 135.34 32.4294 135.145 32.5732L134.748 32.8666C133.798 33.5684 132.889 34.3162 131.94 35.0238L123.53 41.2826L121.534 42.8185C121.2 43.0717 120.855 43.3133 120.51 43.5491L116.633 46.1551L111.139 49.9633C110.098 50.6766 109.039 51.3727 108.096 52.2183C107.831 52.4541 107.664 52.4139 107.613 52.1147C107.526 51.5913 107.388 51.0793 107.722 50.4983C107.946 50.1071 108.176 49.7619 108.637 49.5318C109.304 49.1924 109.81 48.5654 110.575 48.387C110.685 48.364 110.8 48.2663 110.886 48.18C112.485 46.667 114.378 45.5568 116.19 44.3372C116.782 43.9403 117.34 43.4858 117.916 43.0659C118.289 42.7955 118.669 42.5252 119.055 42.2663C119.613 41.8867 120.194 41.5415 120.728 41.1388C121.137 40.8339 121.482 40.4772 122.023 40.4485C122.138 40.4427 122.345 40.2759 122.385 40.1666C122.529 39.7467 122.891 39.5281 123.237 39.298C124.174 38.6652 125.129 38.0554 126.055 37.4054C126.74 36.9222 127.401 36.4102 128.052 35.8809C129.058 35.0583 130.03 34.1954 131.037 33.3786C131.883 32.694 132.769 32.0612 133.626 31.3997C133.724 31.3249 133.816 31.2386 133.913 31.1523C133.948 31.1178 134.034 31.0488 134.028 31.043C134.034 31.0315 134.046 31.02 134.057 31.0085C134.144 30.9337 134.126 30.8474 134.218 30.7496C134.345 30.6231 134.213 30.4505 133.971 30.5943C133.931 30.6116 133.925 30.6288 133.879 30.6231C133.81 30.6001 133.741 30.5655 133.666 30.5253C133.528 30.4505 133.39 30.3527 133.269 30.2607C132.959 30.0248 132.654 29.7889 132.36 29.5243C132.009 29.2022 131.647 28.9433 131.123 28.903C130.985 28.8915 130.836 28.8398 130.692 28.765C130.542 28.7017 130.393 28.6212 130.261 28.5406C129.11 27.7985 127.729 27.5282 126.378 27.4131C124.531 27.2808 122.684 27.4649 120.924 27.8791C120.579 27.9711 120.234 28.0459 119.889 28.1207L118.87 28.4198C116.765 29.0699 114.775 30.0421 112.963 31.3077L112.428 31.6873C112.261 31.8311 112.105 31.9807 111.962 32.1418C111.795 32.3258 111.628 32.5042 111.45 32.6767C111.288 32.8608 111.122 33.0449 110.949 33.2175L110.426 33.7352L109.919 34.2702C109.488 34.6844 109.166 35.1906 108.838 35.6796C108.539 36.1916 108.274 36.7208 108.044 37.2616C107.941 37.5204 107.871 37.7908 107.733 38.0209C106.796 39.6719 106.479 41.5702 106.18 43.4053C105.95 44.901 105.801 46.4197 105.858 47.9614L105.904 48.853C105.921 49.1522 105.973 49.4455 106.008 49.7447L106.059 50.1934L106.082 50.4005C106.082 50.4177 106.077 50.435 106.082 50.4522C106.082 50.5155 106.123 50.6018 106.215 50.6478C106.238 50.6593 106.267 50.6421 106.29 50.6536C106.387 50.6938 106.502 50.7571 106.64 50.8607C106.773 50.97 106.922 51.1253 106.888 51.4532C106.853 51.7293 106.635 52.0169 106.255 52.1262C105.887 52.2413 105.358 52.1665 104.943 51.7753C104.719 51.5625 104.546 51.2864 104.449 50.993C104.391 50.8262 104.385 50.7514 104.368 50.6593L104.322 50.3832L104.132 49.2845L104.052 49.3017Z" fill="#A0D0DB"/>
<path d="M204.997 40.2241C204.836 40.1896 204.698 40.1781 204.514 40.1033C204.353 40.0343 204.186 39.9595 204.181 40.155C204.181 40.2068 204.135 40.1896 204.112 40.2068C204.071 40.2356 204.025 40.2586 203.991 40.2989C203.973 40.3161 204.002 40.4139 203.968 40.3967C203.795 40.3161 203.68 40.3334 203.68 40.5405C203.496 40.3967 203.508 40.575 203.473 40.6785C203.438 40.7821 203.341 40.7879 203.358 40.9719C203.364 41.0237 203.352 41.0467 203.318 41.0352C203.105 40.9489 203.024 41.0755 202.932 41.1905C202.834 41.3113 202.679 41.3343 202.449 41.2423C202.328 41.1905 202.259 41.2365 202.196 41.2826C202.115 41.3343 202.069 41.4379 202 41.5012C201.897 41.5932 201.816 41.7197 201.782 41.9211C201.736 42.1915 201.667 42.4273 201.575 42.6229C201.529 42.7207 201.408 42.715 201.31 42.7322C201.115 42.7725 200.896 42.7782 200.712 42.8415C200.574 42.8875 200.464 42.9796 200.361 43.0831C200.263 43.1809 200.2 43.3247 200.108 43.4283C199.832 43.7274 199.55 44.015 199.274 44.3142C199.205 44.3832 199.159 44.4868 199.095 44.5615C199.067 44.6018 199.026 44.6248 198.98 44.6421C198.819 44.7111 198.647 44.7629 198.491 44.8434C198.267 44.9585 198.066 45.1023 197.841 45.2173C197.715 45.2806 197.577 45.3266 197.536 45.5337C197.525 45.5913 197.444 45.4877 197.312 45.2461C197.082 44.8262 196.835 44.3889 196.742 44.1128C196.679 43.923 196.639 43.7734 196.725 43.808C196.852 43.854 196.806 43.6181 197.03 43.8195C197.059 43.8482 197.07 43.831 197.07 43.808C197.105 43.3995 197.404 43.4225 197.634 43.3247C197.709 43.296 197.749 43.2039 197.812 43.1522C197.853 43.1176 197.893 43.0889 197.945 43.0658C198.014 43.0313 198.1 43.0371 198.152 42.9738C198.192 42.9278 198.192 42.8242 198.382 43.0371C198.422 43.0831 198.44 43.0544 198.411 42.9911C198.307 42.7495 198.365 42.7495 198.405 42.7265C198.526 42.6747 198.652 42.6459 198.762 42.5769C198.842 42.5251 198.9 42.4388 198.946 42.3353C199.02 42.1742 199.061 41.9729 199.136 41.8175C199.199 41.691 199.297 41.6105 199.371 41.5069C199.389 41.4839 199.383 41.4206 199.406 41.3976C199.44 41.3574 199.458 41.2768 199.544 41.3286C199.642 41.3861 199.688 41.3804 199.613 41.156C199.567 41.0295 199.613 41.0179 199.653 41.0179C199.711 41.0179 199.797 41.0697 199.878 41.1215C199.981 41.1848 200.079 41.248 200.039 41.0697C200.016 40.9719 200.085 41.0007 200.148 41.0352C200.43 41.1905 200.551 41.087 200.649 40.9374C200.775 40.7361 200.884 40.4945 201.005 40.2816C201.051 40.2011 201.12 40.1493 201.183 40.086C201.379 39.9019 201.638 39.8214 201.908 39.7466C201.96 39.7351 202.018 39.7236 202.035 39.6546C202.075 39.4935 202.19 39.4533 202.328 39.4648C202.501 39.4763 202.57 39.3152 202.633 39.1541C202.65 39.1138 202.645 39.0506 202.685 39.0506C202.95 39.0448 203.019 38.7284 203.237 38.6479C203.416 38.5846 203.64 38.6076 203.858 38.6076C204.025 38.6076 204.209 38.6421 204.382 38.6536C204.393 38.6536 204.388 38.6306 204.405 38.6306C204.514 38.6536 204.716 38.9298 204.951 39.39C205.164 39.7984 205.262 40.0515 205.193 40.086C205.118 40.1205 205.032 40.1263 204.946 40.1436C204.974 40.1838 204.986 40.2011 204.997 40.2241Z" fill="#A0D0DB"/>
<path d="M180.435 40.4546C180.032 39.8448 180.297 39.005 180.981 38.7461C190.289 35.214 200.143 39.7643 202.916 47.2599C204.993 52.8744 202.997 59.8811 197.779 64.5694C197.256 65.0354 196.433 64.9261 196.053 64.3336C190.847 56.3778 185.641 48.4162 180.435 40.4546Z" fill="#C0E3EB"/>
<path d="M182.006 37.5491C182.483 37.4341 182.978 37.3938 183.467 37.3363C183.956 37.2845 184.439 37.227 184.928 37.2673C185.359 37.2845 185.785 37.3075 186.205 37.296C186.631 37.319 187.045 37.3075 187.476 37.2155C187.701 37.1694 187.942 37.1867 188.172 37.2097C188.598 37.2327 189.018 37.2672 189.444 37.2787C189.639 37.2787 189.852 37.2155 190.025 37.2787C190.45 37.4283 190.876 37.5491 191.307 37.6297C191.733 37.739 192.165 37.8253 192.613 37.8483C192.924 38.0266 193.235 38.1646 193.562 38.2624C193.89 38.3602 194.236 38.4178 194.575 38.5098C194.903 38.6248 195.225 38.7687 195.547 38.901C195.875 39.0275 196.203 39.1541 196.542 39.2634C196.721 39.3152 196.916 39.413 197.06 39.5338C197.94 40.2701 198.866 40.8971 199.746 41.6392C199.994 41.8233 200.201 42.0476 200.408 42.2777C200.615 42.5021 200.817 42.738 201.012 42.9738C201.363 43.4743 201.685 44.0035 201.932 44.5558C202.151 45.177 202.542 45.7178 202.772 46.3333C203.106 47.0351 203.428 47.7542 203.635 48.5078C203.957 49.6008 204.113 50.7225 204.297 51.8616C204.51 53.3917 204.446 54.991 204.118 56.5384C204.026 56.9296 203.894 57.315 203.75 57.6947C203.595 58.0686 203.405 58.431 203.238 58.7992C202.519 60.2488 201.582 61.5604 200.563 62.7742C200.195 63.2459 199.775 63.6716 199.378 64.1203C199.177 64.3447 198.958 64.546 198.751 64.7588L198.354 65.15C198.193 65.2996 198.015 65.4262 197.814 65.524C197.077 65.8806 196.128 65.731 195.53 65.1328C195.38 64.989 195.254 64.8049 195.127 64.6265L194.874 64.2871L194.402 63.6371L188.932 55.8481L187.58 54.0015C187.355 53.6909 187.148 53.3745 186.947 53.0524L184.698 49.457L181.396 44.3659C180.774 43.3995 180.182 42.4216 179.428 41.5472C179.216 41.3056 179.267 41.1445 179.566 41.0927C180.078 41.0064 180.59 40.8684 181.125 41.1732C181.494 41.3803 181.804 41.5874 182 42.0131C182.282 42.6287 182.851 43.1004 182.972 43.8137C182.989 43.9115 183.075 44.0208 183.15 44.1013C184.502 45.574 185.446 47.3343 186.498 49.014C186.843 49.5605 187.24 50.0783 187.609 50.6133C187.844 50.9584 188.08 51.3093 188.305 51.666C188.632 52.1837 188.926 52.7187 189.277 53.2192C189.541 53.5931 189.864 53.921 189.852 54.4215C189.852 54.525 189.996 54.7206 190.099 54.7551C190.496 54.8874 190.68 55.221 190.882 55.5432C191.428 56.4118 191.952 57.2978 192.516 58.1549C192.935 58.7877 193.384 59.4032 193.85 60.0014C194.575 60.9334 195.346 61.8308 196.059 62.7627C196.341 63.1194 196.732 63.6831 196.755 63.6774C196.87 63.7809 197.049 63.7924 197.169 63.7119C197.233 63.6716 197.227 63.5853 197.279 63.5335C197.405 63.3955 197.537 63.2574 197.664 63.1194C197.808 62.9813 197.946 62.849 198.101 62.7397C198.446 62.5038 198.7 62.2795 198.757 61.8365C198.786 61.5892 199.004 61.3361 199.188 61.1347C199.43 60.8816 199.683 60.6342 199.959 60.3984C200.293 60.1223 200.563 59.8231 200.644 59.3514C200.69 59.1041 200.874 58.8279 201.058 58.6151C201.84 57.6602 202.278 56.4636 202.467 55.2556C202.755 53.6161 202.721 51.9478 202.398 50.3831C202.283 49.7676 202.145 49.1579 201.967 48.5653C201.363 46.7475 200.443 45.0217 199.142 43.5376C199.016 43.3937 198.895 43.2384 198.757 43.1004C198.613 42.9681 198.464 42.8473 198.303 42.738C197.934 42.4849 197.601 42.2145 197.233 41.9671C196.876 41.714 196.554 41.4091 196.18 41.1675C195.743 40.8626 195.294 40.5635 194.788 40.3851L194.046 40.0975C193.798 40.0055 193.528 39.9595 193.275 39.8847C193.033 39.8271 192.786 39.7926 192.562 39.6948C190.968 39.0678 189.231 39.0506 187.557 38.993C187.217 38.993 186.872 38.9873 186.527 38.9758C186.182 38.9527 185.842 39.0045 185.497 39.0103C185.152 39.0333 184.801 39.016 184.462 39.0736L183.426 39.2116L183.024 39.2634L182.627 39.3497L181.833 39.5223C181.125 39.6948 181.2 39.5855 181.051 39.7754C181.039 39.7984 181.056 39.8214 181.051 39.8444C181.01 39.9364 180.941 40.04 180.838 40.1723C180.723 40.2931 180.562 40.4427 180.245 40.4139C179.975 40.3851 179.705 40.1953 179.578 39.8559C179.451 39.5223 179.492 39.0448 179.808 38.6364C179.981 38.4178 180.205 38.2337 180.458 38.1071L180.648 38.0266C180.705 38.0036 180.734 37.9978 180.78 37.9863L181.022 37.9173L182 37.6469L182.006 37.5491Z" fill="#A0D0DB"/>
</svg>
