<svg width="148" height="205" viewBox="0 0 148 205" fill="none" xmlns="http://www.w3.org/2000/svg">
<path d="M14.5337 92.2023L16.5874 99.7842C16.9958 100.67 18.3419 101.93 19.2738 102.212C22.1329 103.075 59.1105 112.538 73.8486 114.494C75.5571 114.718 77.1678 113.654 77.605 111.991C84.6002 85.6616 91.5953 59.3263 98.5905 32.9967C98.7918 32.2258 98.7228 31.4147 98.3891 30.6899C97.4399 28.6305 94.8513 26.6573 93.206 24.5059" fill="#F5E3B4"/>
<path d="M17.2026 98.8927L17.3349 99.5198C17.3464 99.56 17.3867 99.6406 17.4384 99.7326C17.4902 99.8189 17.542 99.9052 17.6053 99.9972C17.8526 100.348 18.1575 100.693 18.4912 100.998C18.8306 101.297 19.1642 101.556 19.5324 101.688C19.9983 101.855 20.4585 102.016 20.9188 102.183C22.5755 102.776 24.215 103.351 25.9983 103.639C26.4585 103.713 26.936 103.874 27.4077 103.99L29.9733 104.622C30.3645 104.714 30.7959 104.72 31.1526 104.841C32.8899 105.439 34.6502 105.917 36.4795 106.181C37.8199 106.739 39.2235 106.906 40.6386 107.176C42.0537 107.447 43.4631 107.826 44.8898 107.988C45.2695 108.028 45.6951 108.114 46.0576 108.229C48.2781 108.931 50.5503 109.391 52.8399 109.846C55.2905 110.346 57.718 110.927 60.1054 111.64C61.3767 112.009 62.7401 112.291 64.0689 112.549C65.6566 112.849 67.2501 113.113 68.8493 113.36C70.0056 113.55 71.1618 113.734 72.3181 113.855C72.8876 113.918 73.4916 113.993 74.0324 114.034C74.5386 114.057 75.0333 113.936 75.4648 113.706C76.04 113.401 76.483 112.895 76.7188 112.325C76.7764 112.181 76.8281 112.037 76.8569 111.888C76.8914 111.75 76.9317 111.52 76.9719 111.341L77.2136 110.191C77.5357 108.655 77.8694 107.119 78.2203 105.589C78.5712 104.03 79.0601 102.471 79.5031 100.923C80.4005 97.8228 81.3324 94.7336 82.201 91.6272C82.8568 89.2916 83.4609 86.9388 84.0534 84.586C84.5826 82.3828 85.1119 80.1853 85.6411 77.9821L90.502 58.4233L91.6295 53.7177C91.8194 52.9353 92.0265 52.153 92.2393 51.3764L94.6266 42.7245L96.2891 36.5174L97.1175 33.4111L97.3246 32.6402C97.3649 32.4791 97.3879 32.3181 97.3936 32.157C97.3994 31.8234 97.3361 31.5069 97.1808 31.1905C96.7839 30.3564 96.0303 29.4763 95.2191 28.6364C94.4023 27.785 93.4991 26.9509 92.6017 26.0017C92.0955 25.461 92.0552 25.1849 92.4464 25.2366C93.1195 25.3114 93.7177 25.2711 94.7072 25.9212C95.386 26.3584 96.0072 26.7726 96.6343 27.5434C97.0887 28.1014 97.6065 28.6364 98.0609 29.2462C98.2853 29.5568 98.4981 29.8732 98.6534 30.2299C98.8203 30.5693 98.9353 30.9835 98.9353 31.3631C98.9411 31.5817 98.9871 31.8866 99.0044 32.1397C99.0216 32.4216 99.0101 32.715 98.9583 32.9969L98.7973 33.7735L98.4521 35.3094C98.2105 36.3276 97.9516 37.3458 97.6755 38.3583C97.1118 40.3774 96.548 42.4023 95.9785 44.4272C95.6161 45.7503 95.3112 47.0907 94.9718 48.4253L94.293 51.0082C93.9536 52.2565 93.5739 53.4991 93.2633 54.7474C93.0274 55.6908 92.8778 56.6285 92.3774 57.4108C92.2738 57.5719 92.153 58.0724 92.176 58.2622C92.2508 58.9985 92.015 59.7694 91.8021 60.546C91.2269 62.6457 90.6228 64.7339 90.0648 66.8336C89.6564 68.3868 89.2825 69.9572 88.9316 71.5219C88.4023 73.9553 87.8731 76.3829 87.3439 78.822C86.8837 80.8526 86.3602 82.8833 85.8712 84.9139C85.7561 85.3857 85.6871 85.8574 85.5721 86.3291C85.3535 87.192 85.1809 88.1066 84.876 88.889C84.5424 89.7576 84.3353 90.4479 84.341 91.3338C84.341 91.8286 84.1339 92.5649 83.9556 93.1574C83.7255 93.9225 83.4321 94.6588 83.1502 95.3894C82.8108 96.2638 82.4772 97.0807 82.3851 98.0989C82.3391 98.6454 82.0918 99.353 81.8732 99.9282C80.9067 102.471 80.2279 105.117 79.6009 107.78L78.9681 110.49L78.6574 111.848L78.5769 112.187C78.5539 112.296 78.5021 112.463 78.4619 112.601C78.3698 112.883 78.2433 113.159 78.0937 113.424C77.4897 114.471 76.4485 115.27 75.2404 115.546C74.9413 115.615 74.6364 115.662 74.3258 115.667C74.0266 115.685 73.67 115.644 73.4744 115.621L72.0765 115.454C70.6096 115.299 69.1657 115.029 67.716 114.799C63.2175 114.034 58.788 113.027 54.3701 111.98C53.5072 111.773 52.627 111.548 51.7584 111.41C49.7507 111.088 47.7948 110.599 45.839 110.064C43.4861 109.414 41.1046 108.954 38.7288 108.482C38.1765 108.373 37.607 108.298 37.072 108.143C33.3213 107.096 29.4959 106.388 25.7394 105.382C24.2207 104.973 22.7078 104.542 21.2006 104.087C20.4471 103.857 19.6992 103.633 18.9111 103.374C18.3071 103.155 17.9159 102.874 17.542 102.586C17.1738 102.293 16.8517 101.982 16.5468 101.637C16.3109 101.372 16.0923 101.09 15.891 100.757L15.7357 100.492C15.6839 100.371 15.6149 100.256 15.5689 100.13L15.4941 99.8189L15.4423 99.6003L15.0454 97.8285L14.2573 94.2849C14.2227 94.1296 14.1595 93.9743 14.1249 93.819C13.8373 92.4729 14.0502 91.9608 14.7232 92.4556C15.3157 92.8928 15.8162 93.6981 16.1326 94.9004C16.4835 96.2293 16.7999 97.5639 17.1336 98.8927H17.2026Z" fill="#EBC464"/>
<path d="M17.6035 95.6426L69.8312 106.797C71.8676 107.234 73.8926 105.991 74.4276 103.978L94.4811 28.4984C95.0563 26.3297 93.693 24.1207 91.4897 23.6662L37.9504 12.6443C35.8967 12.2186 33.8718 13.4957 33.3656 15.5321L14.6237 90.8737C14.0944 93.0194 15.4405 95.1824 17.6035 95.6426Z" fill="#F5E3B4"/>
<path d="M30.035 97.4492C33.4233 98.289 36.8518 99.1059 40.194 99.986C43.1796 100.774 46.1077 101.551 49.2199 102.051C50.0252 102.178 50.8766 102.402 51.705 102.575C53.2179 102.891 54.7251 103.207 56.238 103.53C56.9283 103.668 57.6704 103.731 58.2974 103.898C61.4038 104.726 64.516 105.434 67.7029 105.934C68.3069 106.118 68.911 106.279 69.515 106.423C70.1247 106.584 70.6712 106.642 71.2523 106.532C71.816 106.423 72.351 106.17 72.794 105.813C73.2312 105.445 73.5878 104.991 73.8122 104.473C74.025 103.978 74.1343 103.334 74.3011 102.724L74.7671 100.883C75.0777 99.6524 75.3711 98.4271 75.607 97.2018C75.7335 96.5517 75.9118 95.8154 76.1132 95.1769C77.3327 91.2939 78.3164 87.3476 79.3174 83.3841C80.3931 79.1329 81.5724 74.9163 82.8897 70.7629C83.5916 68.5482 84.2071 66.2011 84.8169 63.9001C85.5187 61.1561 86.2205 58.4121 86.9223 55.6624C87.952 51.6816 88.9415 47.718 89.8389 43.7315C90.4486 41.0681 91.0642 38.3988 91.6797 35.7239C91.9961 34.3893 92.3125 33.0489 92.6289 31.7143L93.1121 29.7067L93.3537 28.7058L93.4687 28.211C93.486 28.0844 93.5263 27.9637 93.5263 27.8371C93.6356 26.8247 93.1523 25.7719 92.3182 25.1737C92.1054 25.0298 91.881 24.9033 91.6394 24.817C91.5186 24.7652 91.3921 24.748 91.2655 24.7019L90.7478 24.5869C90.0575 24.4316 89.3671 24.282 88.6768 24.1324C83.1544 22.9186 77.6376 21.7106 72.1151 20.4968C67.9618 19.6052 63.7854 18.771 59.6148 17.9427C55.7203 17.1948 51.8315 16.447 47.9313 15.6991L39.2794 14.0021L38.1979 13.7893C38.0253 13.7548 37.8182 13.7087 37.6744 13.6915C37.5421 13.6685 37.4098 13.6512 37.2775 13.6512C36.7482 13.634 36.2133 13.772 35.7588 14.0424C35.3044 14.307 34.9247 14.7097 34.6888 15.1757C34.6198 15.2907 34.5853 15.4173 34.5335 15.5381C34.499 15.6761 34.4645 15.7567 34.4184 15.9638L34.1596 17.0337L30.0522 34.1879C29.4079 36.9377 28.7637 39.6874 28.1194 42.4372C27.7972 43.812 27.4521 45.1869 27.1069 46.556L23.2297 61.7946L17.7705 83.6429C17.2527 85.7081 16.735 87.7733 16.223 89.8327L16.0332 90.6093L15.9411 90.9947L15.8951 91.1903L15.8721 91.3226C15.8088 91.6678 15.8203 92.0244 15.9009 92.3638C16.0619 93.0426 16.5279 93.6409 17.1204 93.9458C17.4541 94.1184 17.6899 94.1989 17.7935 94.2909C17.897 94.383 17.8798 94.4808 17.6899 94.5729C17.3563 94.7339 16.9996 94.8605 16.4934 94.8087C16.0044 94.7454 15.3026 94.4808 14.6928 93.5776C14.3017 92.9621 14.06 92.2316 14.0831 91.4434C14.0773 91.2421 14.1118 91.0465 14.1406 90.8452C14.1751 90.6496 14.2154 90.477 14.2556 90.2872C14.3419 89.9133 14.4397 89.5221 14.5605 89.1136C15.2623 86.7263 15.6765 84.1261 16.5509 81.8194C16.6717 81.4915 16.781 81.0025 16.8616 80.6056C18.3112 73.4206 20.2613 66.3162 22.0734 59.1887C22.6659 56.8589 23.1952 54.5118 23.7647 52.1705L24.8922 47.626C25.4502 45.4285 26.0427 43.2368 26.5662 41.0393C26.9631 39.3768 27.2737 37.7488 27.918 36.3222C28.0561 36.023 28.2574 35.1486 28.2632 34.8265C28.3035 33.5897 28.6716 32.2263 29.0168 30.863L31.8355 19.7892L32.825 15.6761C32.894 15.3482 33.0206 14.9283 33.1759 14.5774C33.3485 14.2207 33.5613 13.8813 33.8144 13.5764C34.3322 12.9724 35.011 12.5007 35.7703 12.2476C36.3571 12.0462 36.9956 11.96 37.6169 12.0175L38.0771 12.0808L38.4798 12.1556L39.2851 12.2994L42.5008 12.8689C44.6466 13.2543 46.7865 13.6397 48.938 14.0251C52.5276 14.6867 56.123 15.4115 59.7126 16.1018C60.5409 16.2629 61.3751 16.3779 62.2034 16.539C63.7279 16.8382 65.3386 17.1085 66.748 17.4882C68.3127 17.9139 69.5495 18.19 71.0624 18.2648C71.9081 18.3051 73.2139 18.5869 74.2724 18.8285C75.6357 19.1392 76.9703 19.5073 78.2877 19.864C79.8696 20.2954 81.348 20.7154 83.1083 20.8995C84.0518 20.9973 85.3288 21.3194 86.3643 21.5955C87.5091 21.9004 88.6596 22.1938 89.8216 22.4642L91.5646 22.8669C92.2434 23.0107 92.9395 23.3098 93.5033 23.7528C94.648 24.6214 95.3728 26.0193 95.3844 27.4689C95.3959 27.8313 95.3556 28.1938 95.2751 28.5447C95.2003 28.9013 95.1255 29.1429 95.0564 29.4478L94.6192 31.1908C93.0718 37.5014 91.5244 43.8063 89.9712 50.1169C89.3614 52.5905 88.7114 55.0641 88.0728 57.532C86.0882 65.2232 83.9827 72.8683 81.8715 80.5193C81.4574 82.0207 81.0259 83.5451 80.6807 85.0351C79.8869 88.4924 78.9492 91.8979 77.9598 95.2977C77.3673 97.3456 76.8208 99.3993 76.2973 101.459L75.9118 103L75.722 103.771C75.653 104.042 75.6185 104.243 75.4977 104.611C75.0835 105.946 74.0998 107.108 72.8227 107.717C72.2302 108.005 71.5802 108.195 70.9128 108.241C70.5792 108.27 70.2456 108.258 69.9177 108.218C69.7623 108.195 69.5667 108.166 69.4517 108.137L69.095 108.057C62.4623 106.504 55.7663 105.313 49.1336 103.846C43.7664 102.655 38.4223 101.378 33.0839 100.118C28.9593 99.1289 24.8519 98.1452 20.7331 97.1558C20.4627 97.0925 20.1751 97.0522 19.9047 96.9832C17.5634 96.4079 16.8903 95.9132 18.1099 95.6428C19.1913 95.407 20.8078 95.476 22.9363 95.9419L29.9717 97.5239L30.035 97.4492Z" fill="#EBC464"/>
<path d="M68.2904 72.2411C68.4342 73.3513 69.3201 74.4443 70.4534 74.6457C72.2137 74.9621 74.1063 73.0637 73.8992 71.1999C73.7726 70.0378 72.8292 68.8988 71.6557 68.7147C69.8839 68.4329 68.0545 70.3888 68.2904 72.2411Z" fill="#EBC464"/>
<path d="M69.2633 72.6672C69.2231 72.857 69.2346 73.0526 69.2115 73.2885C69.1885 73.5013 69.2 73.7487 69.4474 73.7544C69.5107 73.7544 69.5164 73.8177 69.5567 73.8407C69.6257 73.8925 69.689 73.95 69.7696 73.9788C69.8041 73.996 69.8904 73.9327 69.9019 73.9788C69.9594 74.2031 70.1377 74.3239 70.3448 74.2031C70.4138 74.4562 70.5979 74.3182 70.7245 74.2607C70.851 74.2089 70.9891 74.2376 71.0926 74.0593C71.1156 74.0075 71.1502 73.9845 71.1847 74.0076C71.4148 74.1571 71.6161 74.0133 71.7772 73.881C71.9555 73.7372 72.1626 73.6681 72.4848 73.6624C72.6516 73.6566 72.7609 73.5588 72.8472 73.4495C72.9622 73.3287 73.0082 73.1562 73.0888 73.0181C73.1981 72.811 73.2556 72.5694 73.1866 72.3163C73.0945 71.9769 72.968 71.7065 72.8644 71.4994C72.7954 71.3959 72.8702 71.2923 72.8817 71.1773C72.9105 70.9529 72.9162 70.671 72.8127 70.4179C72.7379 70.2338 72.5883 70.0843 72.4272 69.975C72.2777 69.8714 72.0821 69.8484 71.9268 69.8139C71.4723 69.6988 71.1329 69.8369 70.7878 70.1073C70.7072 70.1706 70.6497 70.2799 70.5864 70.3604C70.5519 70.4007 70.5174 70.4409 70.4714 70.4639C70.3045 70.5675 70.1262 70.6883 69.9939 70.8494C69.8041 71.0852 69.6948 71.3613 69.6257 71.6145C69.5797 71.7525 69.5452 71.9078 69.7063 72.0171C69.7465 72.0459 69.62 72.0747 69.3496 72.0919C68.8721 72.1207 68.3774 72.1437 68.084 72.0171C67.8827 71.9309 67.7331 71.8273 67.8194 71.7065C67.9287 71.5397 67.7446 71.3096 68.061 71.2003C68.1071 71.1888 68.0955 71.1485 68.0898 71.1197C67.9057 70.5272 68.3256 70.0785 68.665 69.7161C68.7801 69.5953 68.8434 69.4285 68.9584 69.3019C69.0332 69.2214 69.108 69.1409 69.1943 69.0718C69.3324 68.9798 69.4762 68.9107 69.6027 68.8072C69.6948 68.7324 69.7523 68.5771 69.9824 68.7842C70.0284 68.8245 70.0744 68.7899 70.0687 68.7152C70.0342 68.4448 70.1377 68.416 70.2413 68.393C70.5116 68.3125 70.7993 68.2837 71.0811 68.2607C71.2882 68.2319 71.5011 68.2089 71.7312 68.1687C72.0821 68.1226 72.479 68.0939 72.8472 68.1974C73.1578 68.278 73.4224 68.4505 73.6813 68.6289C73.7446 68.6691 73.8309 68.6806 73.8884 68.7266C73.992 68.8129 74.13 68.882 74.1358 69.0373C74.1473 69.2041 74.176 69.3019 74.4464 69.2789C74.596 69.2674 74.6477 69.3825 74.6765 69.4745C74.7168 69.5953 74.688 69.7506 74.6592 69.8887C74.619 70.067 74.5672 70.2108 74.7743 70.2971C74.8893 70.3431 74.8721 70.4697 74.8318 70.579C74.6592 71.0335 74.711 71.3959 74.7513 71.7985C74.8088 72.3393 74.7916 72.9088 74.6362 73.4553C74.5672 73.6624 74.4694 73.8637 74.3544 74.0421C74.0035 74.6231 73.4454 75.0545 72.8184 75.3249C72.6976 75.3824 72.5653 75.4227 72.4675 75.5204C72.2374 75.7621 71.9038 75.8426 71.5644 75.8254C71.1674 75.8138 70.782 75.9116 70.3448 75.9634C70.2413 75.9807 70.132 76.0094 70.0399 75.9692C69.7178 75.8254 69.4071 75.7275 69.1022 75.5952C68.7974 75.4687 68.4982 75.3134 68.2854 75.0718C67.9287 74.6921 67.7389 74.2031 67.6238 73.7314C67.5318 73.369 67.526 72.9893 67.5548 72.6269C67.5548 72.6039 67.5318 72.5867 67.5375 72.5579C67.5778 72.3393 67.9115 72.2587 68.4349 72.2645C68.9009 72.2645 69.1713 72.276 69.1885 72.368C69.2058 72.4716 69.2 72.5867 69.223 72.7017L69.2633 72.6672Z" fill="#EBC464"/>
<path d="M57.3147 82.418C57.8267 84.2243 59.5927 85.7775 61.7212 85.7832C64.3616 85.7947 65.7365 83.4246 65.8112 83.2981C65.9263 83.0967 67.0135 81.0603 65.9723 78.8916C65.8745 78.6845 64.8908 76.7229 62.7681 76.326C60.4038 75.8888 58.2178 77.6893 57.4758 79.6107C57.3492 79.9386 56.9293 81.0719 57.3147 82.418Z" fill="#EBC464"/>
<path d="M58.5342 83.1371C58.5917 83.4477 58.7183 83.7411 58.8333 84.0747C58.9254 84.3796 59.0749 84.6845 59.4143 84.7247C59.5006 84.7305 59.5524 84.8053 59.6214 84.8456C59.7422 84.9203 59.8803 84.9836 60.0126 85.0412C60.0759 85.0584 60.1794 84.9951 60.2197 85.0526C60.4268 85.3173 60.7374 85.4438 61.0653 85.3288C61.2609 85.5877 61.5313 85.4438 61.7556 85.3805C61.9857 85.3058 62.2273 85.3403 62.4114 85.1274C62.4575 85.0757 62.5207 85.0526 62.584 85.0584C62.9752 85.1562 63.3146 84.9433 63.6022 84.7247C63.9186 84.4889 64.2523 84.2991 64.6952 84.1552C64.9311 84.0747 65.0921 83.8964 65.2302 83.7123C65.397 83.4937 65.5121 83.2348 65.5984 82.999C65.7422 82.6366 65.8112 82.2339 65.7364 81.8427C65.6444 81.3135 65.4948 80.8418 65.3222 80.4333C65.2417 80.2262 65.259 80.0019 65.2187 79.7775C65.1842 79.5532 65.1382 79.3231 65.0634 79.116C64.9828 78.8916 64.8735 78.6673 64.7355 78.4602C64.5284 78.1496 64.2465 77.9022 63.9416 77.7181C63.654 77.5455 63.3261 77.4823 63.0327 77.419C62.1353 77.2234 61.2552 77.4477 60.5246 77.977C60.352 78.1093 60.2082 78.2761 60.0586 78.4314C59.9838 78.512 59.9091 78.5867 59.8228 78.65C59.5121 78.9031 59.2188 79.1965 59.0002 79.5359C58.6953 80.0134 58.5227 80.5599 58.4767 81.0949C58.4479 81.394 58.4364 81.7161 58.6608 81.9578C58.7183 82.021 58.6032 82.0843 58.3271 82.1304C57.8554 82.1994 57.3492 82.2742 57.027 82.1131C56.8084 82.0038 56.6416 81.8715 56.6934 81.6701C56.7739 81.394 56.5553 81.0834 56.8717 80.836C56.912 80.8015 56.912 80.7497 56.8947 80.7037C56.6646 79.8523 57.1651 79.0642 57.631 78.4372C57.7864 78.2243 57.9014 77.9827 58.0625 77.7756C58.166 77.6376 58.2868 77.511 58.4134 77.396C58.5975 77.2234 58.8161 77.1026 59.0002 76.93C59.1382 76.8034 59.2418 76.6136 59.5351 76.7747C59.5984 76.8092 59.6674 76.7459 59.6617 76.6654C59.6387 76.372 59.8055 76.326 59.9493 76.257C60.3463 76.0959 60.7662 75.9866 61.1861 75.9118C61.4968 75.8485 61.8132 75.7737 62.1353 75.722C62.6415 75.6357 63.1938 75.5724 63.7345 75.6875C64.189 75.7795 64.6089 75.9808 65.0059 76.2109C65.0979 76.2627 65.213 76.2857 65.2992 76.349C65.4603 76.4583 65.6559 76.5561 65.7192 76.7459C65.7882 76.9588 65.8745 77.0796 66.1679 77.0681C66.3404 77.0623 66.4325 77.2061 66.4958 77.3269C66.5763 77.488 66.6051 77.6778 66.6166 77.8677C66.6396 78.0978 66.6281 78.2934 66.8869 78.4314C67.025 78.5005 67.0365 78.6788 67.025 78.8283C66.979 79.4726 67.117 79.9961 67.2263 80.5714C67.3759 81.3422 67.4047 82.1591 67.2551 82.9587C67.1918 83.2751 67.0883 83.5628 66.9272 83.8964C66.7776 84.1955 66.6511 84.3681 66.5015 84.5752C66.352 84.7708 66.1909 84.9549 66.0126 85.1274C65.6616 85.4726 65.259 85.7717 64.8218 86.0191C64.6434 86.1111 64.4651 86.1974 64.3155 86.3355C63.9704 86.6519 63.5044 86.8072 63.0327 86.8417C62.469 86.8762 61.9455 87.0258 61.376 87.0948C61.2437 87.1178 61.1056 87.1581 60.979 87.1178C60.1104 86.8762 59.1842 86.7669 58.4422 86.2204C57.8554 85.789 57.4297 85.1792 57.1133 84.5637C56.8659 84.0805 56.7164 83.5627 56.6358 83.045C56.6301 83.0105 56.6013 82.9875 56.5956 82.9472C56.5726 82.6366 56.8774 82.4813 57.4124 82.4467C57.8899 82.4122 58.166 82.4467 58.235 82.6078C58.2983 82.7919 58.3616 82.9932 58.4479 83.1773L58.5342 83.1371Z" fill="#EBC464"/>
<path d="M46.5291 71.3846L44.0153 70.8208C43.3135 70.6655 42.8935 69.9349 43.1179 69.2446L43.8254 67.0586C44.044 66.3913 43.6529 65.6722 42.9683 65.4939L38.6826 64.3664C38.0326 64.1938 37.3653 64.5792 37.1869 65.2235L36.4391 67.9273C36.2665 68.56 35.628 68.9397 34.9895 68.7959L32.3145 68.1976C31.6127 68.0423 30.9281 68.514 30.8303 69.2273L30.2838 73.1679C30.1975 73.7776 30.583 74.3586 31.1812 74.5197L33.1831 75.0604C33.8389 75.2388 34.2301 75.9176 34.046 76.5734L33.3155 79.2081C33.1141 79.9271 33.6031 80.6577 34.3394 80.7498L38.1764 81.2445C38.7631 81.3193 39.3154 80.9684 39.4995 80.4046L40.2243 78.1669C40.4256 77.5456 41.0814 77.1889 41.7085 77.3615L44.4812 78.1093C45.1083 78.2761 45.7583 77.931 45.9654 77.3155L47.415 72.9723C47.6566 72.2819 47.2367 71.5456 46.5291 71.3846Z" fill="#EBC464"/>
<path d="M43.6354 71.5686C43.1177 71.3385 42.7207 70.9013 42.5539 70.3951C42.3813 69.8889 42.4734 69.3366 42.7265 68.9167C43.0659 68.3414 43.4053 67.7719 43.4456 67.1219V67.0874C43.4571 66.9723 43.5204 66.8515 43.5204 66.7249C43.5204 66.4776 43.4168 66.2302 43.2327 66.0691C43.1464 65.9944 42.9911 66.0116 42.9278 65.9484C42.8358 65.8621 42.7495 65.816 42.5942 65.747C42.4389 65.6837 42.2778 65.6262 42.1167 65.5744C41.7946 65.4824 41.4609 65.4249 41.11 65.4249C40.6556 65.0797 40.1148 65.1027 39.5913 65.0337C39.3267 64.9992 39.0679 64.9359 38.809 64.8841C38.6019 64.8438 38.4408 64.8381 38.3028 64.9589C38.2337 65.0164 38.1647 65.0624 38.0842 65.074C37.9576 65.0912 37.8368 65.166 37.7563 65.2696C37.716 65.3213 37.6872 65.3846 37.6642 65.4479L37.6297 65.5457L37.5894 65.6952C37.4744 66.1037 37.3881 66.5236 37.2961 66.9435C37.2558 67.1219 37.2155 67.2944 37.1695 67.467L37.0947 67.7259L37.0027 68.0193C36.8013 68.7786 36.0305 69.2848 35.3229 69.1698C35.018 69.1353 34.7189 68.9972 34.5003 68.9454C34.2587 68.8764 34.0113 68.8246 33.7697 68.7729C33.3153 68.6751 32.809 68.6003 32.3834 68.5313C32.2913 68.5198 32.205 68.5025 32.113 68.5025C31.7793 68.5025 31.4687 68.7154 31.3421 69.003C31.2788 69.1468 31.2673 69.3079 31.2789 69.4574L31.2904 70.0845C31.3134 70.608 31.3249 71.1314 31.3306 71.6549L31.3249 73.1563C31.3306 73.1908 31.3421 73.2196 31.3536 73.2484C31.3882 73.3174 31.4169 73.3807 31.4572 73.444C31.4802 73.4727 31.5032 73.5073 31.532 73.5303C31.5492 73.5418 31.5665 73.5533 31.5837 73.5648C31.6068 73.5763 31.601 73.582 31.693 73.6108L33.3843 74.1861C34.345 74.4622 34.9835 75.4286 34.88 76.372C34.8685 76.5446 34.8282 76.7114 34.7764 76.8783L34.6729 77.2349L34.4945 77.8792L34.1724 79.1793L34.1551 79.2541C34.1149 79.4152 34.1724 79.5877 34.2817 79.6855C34.391 79.7891 34.5406 79.8236 34.6671 79.8121L38.1762 80.1055C38.3085 80.1055 38.4063 79.9904 38.4006 79.8869L38.878 78.1553L38.9816 77.7757C39.2347 76.8725 40.0055 76.1362 40.9432 75.9521C41.2251 75.8946 41.5184 75.8888 41.8061 75.9348C41.9499 75.9521 42.0937 75.9924 42.2375 76.0326L42.4676 76.0959L44.6594 76.7575C44.6709 76.769 44.6939 76.7747 44.7111 76.769C44.7342 76.7632 44.7572 76.7402 44.7629 76.7172L45.1253 75.6415L45.8847 73.4094L46.1033 72.7767L46.155 72.6213L46.1665 72.5811L46.1723 72.5696V72.5638L46.2126 72.5753H46.2183L46.2356 72.5811C46.2528 72.5868 46.2643 72.5868 46.2586 72.5868C46.2528 72.5868 46.2356 72.5926 46.2413 72.5926C46.2471 72.5926 46.2586 72.5753 46.2528 72.5811C46.2471 72.5926 46.2413 72.6098 46.2413 72.6156C46.2413 72.6098 46.2356 72.6386 46.2471 72.5983C46.2586 72.5466 46.2701 72.4891 46.2931 72.4258C46.4312 71.9886 46.7418 71.4708 47.3113 71.6262C47.6737 71.7355 48.0246 72.0921 47.9499 72.6098C47.9211 72.7882 47.8808 72.9723 47.829 73.1333L47.714 73.5187C47.6335 73.7719 47.5357 74.0192 47.3171 74.2206C47.2538 74.2781 47.2365 74.3816 47.225 74.4679C47.1387 75.2503 46.9316 75.9924 46.6785 76.7172L46.4829 77.2637C46.4081 77.4823 46.3046 77.7411 46.1493 77.931C45.8386 78.3279 45.3554 78.5638 44.8607 78.5695C44.6709 78.5753 44.4868 78.5465 44.3027 78.5005L43.227 78.2646C42.9106 78.1898 42.5942 78.1036 42.2778 78.0115C41.7716 77.8792 41.4897 77.6779 41.1618 77.8159C40.9144 77.931 40.8397 78.1151 40.4887 78.1841C40.437 78.1956 40.3967 78.2819 40.4024 78.3567C40.4024 78.3912 40.4082 78.4199 40.4255 78.4372C40.598 78.7536 40.4772 79.0297 40.3794 79.3058L39.971 80.4449C39.8214 80.9511 39.4475 81.3768 38.9643 81.5781C38.6767 81.6989 38.3603 81.7392 38.0496 81.7047C37.6412 81.6701 37.3306 81.6587 36.9624 81.6529C36.5022 81.6414 36.042 81.6472 35.5818 81.6472H34.8915C34.6556 81.6414 34.483 81.6587 34.0516 81.6069C33.4591 81.5263 32.9183 81.1697 32.5962 80.6634C32.2683 80.1572 32.1647 79.5129 32.3143 78.9032L32.3488 78.7536C32.3948 78.5408 32.3833 78.3854 32.4236 78.2071C32.4984 77.8907 32.5272 77.5456 32.6997 77.2752C32.7918 77.1256 32.8666 76.9876 32.8896 76.8438C32.9011 76.769 32.9068 76.6942 32.9011 76.6194C32.8953 76.5791 32.8896 76.5388 32.8781 76.4986C32.8666 76.4583 32.8378 76.4641 32.8148 76.4468C32.694 76.3951 32.7055 76.395 32.7285 76.3663C32.7515 76.3375 32.8263 76.2512 32.8321 76.1362C32.8378 76.0614 32.809 75.9751 32.7458 75.9521C32.7343 75.9463 32.7285 75.9464 32.7112 75.9464C32.6767 75.9406 32.6422 75.9348 32.6019 75.9291C32.5272 75.9233 32.4466 75.9291 32.3661 75.9406C32.1475 75.9809 31.9001 75.8543 31.6988 75.7335C31.4975 75.6127 31.3076 75.5149 31.0775 75.4171C30.7381 75.2963 30.4217 75.1352 30.1686 74.8994C29.6509 74.4392 29.3747 73.7316 29.4553 73.0298L29.484 72.6789L29.5876 70.6309L29.6336 69.607L29.6451 69.3539L29.6624 69.164C29.6681 69.0892 29.6796 69.0087 29.6911 68.934C29.7372 68.6291 29.8407 68.3357 30.0018 68.0711C30.485 67.2254 31.532 66.7652 32.5214 66.9551L32.5904 66.9665L33.81 67.2197L34.926 67.4843L35.0583 67.5188L35.0698 67.5246L35.0986 67.5361C35.1216 67.5418 35.1446 67.5476 35.1676 67.5418C35.2194 67.536 35.2654 67.5015 35.2999 67.4498L35.3057 67.4383L35.3344 67.3577L35.3919 67.1851C35.4955 66.8745 35.6048 66.5639 35.6451 66.236C35.6853 65.8621 35.7659 65.4996 35.8637 65.143L35.9212 64.9359C35.9442 64.8496 35.973 64.7691 36.0075 64.6885C36.0708 64.5275 36.1513 64.3779 36.2491 64.2341C36.4447 63.9522 36.692 63.7163 36.9797 63.5495C37.3248 63.3424 37.7102 63.2216 38.1072 63.1871C38.3028 63.1699 38.5041 63.1698 38.7054 63.2044C38.8032 63.2159 38.901 63.2331 39.0046 63.2619L39.2347 63.3137C39.6719 63.4 40.1148 63.469 40.5578 63.5323C40.7649 63.561 40.9835 63.561 41.1733 63.63C41.507 63.7509 41.8521 63.8544 42.1973 63.9407L43.388 64.2226C44.0553 64.4067 44.6364 64.8611 44.9643 65.4651C45.2979 66.0691 45.3784 66.8112 45.1598 67.4843L45.1483 67.5188L45.039 67.8237L44.9643 68.025L44.8089 68.4277L44.4753 69.2216L44.389 69.4171C44.3602 69.4804 44.366 69.4459 44.3545 69.4632C44.3372 69.4747 44.3142 69.492 44.3027 69.515C44.274 69.561 44.2567 69.6243 44.2739 69.6875C44.2912 69.7566 44.3315 69.8256 44.4063 69.8773L44.435 69.8946L44.5386 69.9291L44.7457 70.0039L45.1598 70.1535L45.9882 70.4526C46.0457 70.4699 46.109 70.4641 46.1608 70.4871C46.6383 70.6712 46.7188 71.0394 46.3736 71.4938C46.0687 71.8965 45.6833 72.0806 45.2404 71.9771C45.0218 71.9253 44.8032 71.862 44.5846 71.8045L43.877 71.6031C43.8022 71.5801 43.7217 71.5571 43.6469 71.5284L43.6354 71.5686Z" fill="#EBC464"/>
<path d="M41.8238 24.7537L35.657 50.4103C35.6225 50.5598 35.7146 50.7036 35.8641 50.7382L75.2866 58.809C75.4247 58.8378 75.5627 58.7515 75.603 58.6135L82.3853 32.56C82.4256 32.4104 82.3278 32.2551 82.1782 32.2264L42.1402 24.5524C41.9906 24.5236 41.8526 24.6099 41.8238 24.7537Z" fill="#F5E3B4"/>
<path d="M41.2419 30.6965C40.7471 32.2727 40.2812 33.8662 39.7404 35.4136C39.2572 36.7942 38.7797 38.1461 38.5899 39.6303C38.5439 40.0157 38.4058 40.4068 38.3138 40.798L37.8191 42.9265C37.75 43.2486 37.7615 43.611 37.658 43.9044C37.146 45.3368 36.7548 46.7922 36.5708 48.3109C36.3407 48.8229 36.1796 49.4039 36.1048 49.7836L36.0415 50.1345C36.0128 50.238 36.0128 50.3818 36.1393 50.4394C36.3867 50.4969 36.634 50.5026 36.8641 50.5371L37.2035 50.5832L37.6465 50.658L38.5324 50.8133C39.1191 50.9168 39.7117 51.0031 40.3042 51.0376C40.6206 51.0549 40.9715 51.1124 41.2764 51.2045C43.1172 51.7682 45.0098 52.0904 46.9082 52.4298C48.9446 52.7922 50.958 53.2639 52.9254 53.8794C53.9723 54.2073 55.0998 54.4317 56.1986 54.656C57.5102 54.9206 58.8275 55.1277 60.1448 55.3808C62.049 55.7433 63.9473 56.0711 65.8687 56.3012C68.4343 56.6119 71.0057 56.9743 73.5714 57.377L74.0603 57.4575L74.4573 57.5323C74.5378 57.5496 74.6126 57.5668 74.6989 57.5898C74.8024 57.5956 74.7909 57.4748 74.837 57.4057L74.8887 57.2677L75.0268 56.7902C75.7631 54.2245 76.5397 51.6762 77.2588 49.1105C77.7938 47.1776 78.2827 45.2333 78.7545 43.2831L80.0143 37.8124L80.601 35.3503L80.8944 34.1193L81.044 33.5037L81.0728 33.3369C81.0785 33.2794 81.0958 33.2276 81.0958 33.1701C81.0785 33.1068 80.9922 33.1183 80.9404 33.1068L80.7736 33.0896L80.1581 32.986L77.3048 32.4913L71.5982 31.5076L67.652 30.8691C66.9962 30.7598 66.3404 30.6332 65.6846 30.5009L58.4191 29.0225L47.9896 26.9976C46.0165 26.6064 44.0549 26.1922 42.0645 25.9679C41.9954 25.9621 41.9322 25.9506 41.8746 25.9391C41.9494 25.5364 42.0127 25.1567 42.0817 24.7943C42.0817 24.8001 42.0817 24.7943 42.0817 24.7943C42.0932 24.8001 42.0875 24.7943 42.0817 24.7943C42.0875 24.8001 42.0817 24.7943 42.0817 24.7943L42.03 25.1337L42.122 25.0647C42.1853 25.0187 42.2486 24.9727 42.3176 24.9324C42.5937 24.7598 42.9389 24.6275 43.4336 24.5757C44.1124 24.5067 44.7337 24.4779 45.516 24.6965C46.6493 25.0187 47.9033 25.0302 48.9848 25.5364C49.1402 25.6055 49.3703 25.64 49.5658 25.6572C53.0232 25.9851 56.3999 26.8135 59.7997 27.5038C60.9099 27.7282 62.0375 27.8892 63.1535 28.0906C63.8783 28.2171 64.6031 28.3552 65.3222 28.499C66.3691 28.7118 67.4104 28.9592 68.4631 29.1376C69.257 29.2699 70.0393 29.3274 70.7008 29.7473C70.8389 29.8336 71.2588 29.8969 71.4142 29.8623C72.0239 29.7128 72.674 29.8681 73.324 30.0004C75.0843 30.3571 76.8388 30.7425 78.6049 31.0762C79.2607 31.2027 79.9107 31.312 80.5723 31.4213L81.7401 31.6112C81.9702 31.6457 82.1888 31.6974 82.3728 31.7665C82.5512 31.8355 82.741 31.8873 82.8503 32.0944C82.9308 32.2497 82.9078 32.382 82.9193 32.5431C82.9193 32.6984 82.9078 32.871 82.8676 33.0493L82.672 33.9582L82.5397 34.6197L82.2808 35.9371L81.7401 38.5718C81.3776 40.2573 80.9577 41.9313 80.5723 43.6168C80.4802 44.008 80.44 44.3991 80.3422 44.7903C80.1696 45.5036 80.0373 46.263 79.7727 46.9073C79.4793 47.6206 79.3125 48.1901 79.3585 48.9322C79.3872 49.3464 79.2147 49.9561 79.0651 50.4451C78.8695 51.0721 78.6222 51.6819 78.3748 52.286C78.0757 53.005 77.788 53.6781 77.7478 54.5294C77.7248 54.9839 77.5177 55.5707 77.3278 56.0424C77.1207 56.5659 76.9309 57.0951 76.7526 57.6301C76.718 57.7279 76.6375 57.9925 76.58 58.1938C76.5167 58.4009 76.4649 58.6253 76.3844 58.8151C76.3039 59.005 76.2003 59.1603 76.0968 59.2926C75.9817 59.4307 75.7689 59.54 75.602 59.5515C75.4295 59.5745 75.2339 59.5802 75.021 59.5515C74.8082 59.517 74.5954 59.4652 74.3768 59.4249L73.4276 59.2408L71.7593 58.9417C68.7335 58.447 65.7076 57.9522 62.6817 57.4575C61.4967 57.2619 60.3117 57.0261 59.1324 56.8017C55.4507 56.1057 51.7978 55.2888 48.1507 54.4604C47.4316 54.2993 46.7068 54.1268 45.9877 54.029C44.3252 53.8104 42.703 53.448 41.0808 53.0338C40.1028 52.7864 39.1249 52.5851 38.1355 52.4067L36.5362 52.1364L35.8402 52.0098C35.6043 51.9753 35.38 51.912 35.1959 51.82C35.0118 51.728 34.8737 51.6244 34.7472 51.5036C34.6149 51.3713 34.4883 51.1642 34.4365 51.0089C34.3445 50.7615 34.2812 50.4393 34.3503 50.0654C34.402 49.8123 34.4596 49.5535 34.5113 49.3004L34.5976 48.9207L34.6494 48.7251C35.5295 45.6302 36.0473 42.4605 36.8469 39.3599C37.4912 36.846 38.2332 34.3609 38.9466 31.87C39.5161 29.9544 40.0856 28.0388 40.6551 26.1232C40.6896 25.9966 40.7011 25.8586 40.7414 25.732C41.0808 24.6448 41.495 24.3744 41.8746 25.0187C42.2083 25.5882 42.2946 26.3821 42.0472 27.3773C41.7711 28.476 41.4662 29.569 41.1786 30.6677L41.2419 30.6965Z" fill="#EBC464"/>
<path d="M37.0435 51.3943L43.8143 25.128L41.8814 24.501L35.2947 50.9456L37.0435 51.3943Z" fill="#EBC464"/>
<path d="M52.9491 27.7395C52.719 27.751 52.5062 27.7913 52.253 27.7625C52.0229 27.7337 51.7986 27.705 51.7353 27.9408C51.7181 27.9984 51.6548 27.9983 51.6145 28.0271C51.5397 28.0789 51.465 28.1249 51.4017 28.1824C51.3729 28.2112 51.3902 28.3148 51.3384 28.309C51.0968 28.2745 50.9185 28.3378 50.8609 28.5851C50.6193 28.4758 50.5906 28.6887 50.5043 28.8267C50.418 28.959 50.2684 29.0051 50.2454 29.2237C50.2396 29.2812 50.2109 29.3215 50.1591 29.3157C49.8657 29.2869 49.7047 29.471 49.5321 29.6379C49.348 29.8162 49.1064 29.9025 48.7842 29.8679C48.6117 29.8507 48.5024 29.9312 48.3873 30.006C48.2492 30.098 48.1515 30.2361 48.0249 30.3397C47.8408 30.4892 47.6797 30.6676 47.5647 30.9264C47.4151 31.2716 47.2368 31.5765 47.0355 31.8468C46.9319 31.9849 46.7593 32.0137 46.604 32.0712C46.2934 32.192 45.9655 32.2725 45.6663 32.4106C45.442 32.5142 45.2522 32.6637 45.0623 32.8248C44.8897 32.9743 44.7459 33.1757 44.5791 33.331C44.0729 33.7912 43.5609 34.2342 43.0489 34.6944C42.9281 34.8037 42.8246 34.9417 42.7038 35.0568C42.6462 35.1143 42.5772 35.1603 42.5024 35.1948C42.2378 35.3387 41.9617 35.4594 41.7028 35.6148C41.3289 35.8334 40.978 36.0808 40.6041 36.2936C40.3912 36.4144 40.1669 36.5179 40.0461 36.7768C40.0115 36.8516 39.9253 36.7538 39.7929 36.5064C39.5686 36.0808 39.3327 35.6435 39.2752 35.3387C39.2349 35.1316 39.2177 34.9705 39.3385 34.9762C39.5168 34.9877 39.5168 34.7174 39.7929 34.8842C39.8332 34.9072 39.8505 34.8785 39.8562 34.8555C40.0346 34.355 40.4833 34.2687 40.8572 34.0731C40.978 34.0098 41.07 33.889 41.1736 33.8027C41.2426 33.7452 41.3174 33.6992 41.3979 33.6531C41.513 33.5899 41.6453 33.5611 41.7431 33.4691C41.8179 33.4 41.8466 33.2735 42.0767 33.4633C42.1227 33.5036 42.1573 33.4633 42.14 33.3943C42.0537 33.1354 42.14 33.1182 42.2148 33.0779C42.4104 32.9743 42.6175 32.8938 42.7958 32.773C42.9281 32.6809 43.0432 32.5601 43.1467 32.4221C43.302 32.2035 43.4286 31.9446 43.5954 31.7318C43.7277 31.5534 43.9003 31.4269 44.0499 31.2716C44.0844 31.2371 44.0959 31.1623 44.1304 31.1335C44.1994 31.076 44.2454 30.9725 44.3605 31.0012C44.4928 31.0357 44.5676 31.0127 44.5101 30.7711C44.4813 30.633 44.5503 30.6043 44.6136 30.5928C44.6942 30.5755 44.8092 30.6043 44.9243 30.6388C45.0623 30.6791 45.1946 30.7251 45.1831 30.518C45.1774 30.4087 45.2694 30.4144 45.3557 30.4374C45.7354 30.5237 45.954 30.3569 46.1438 30.1441C46.3969 29.8507 46.6328 29.5285 46.8801 29.2294C46.9779 29.1144 47.0987 29.0281 47.2138 28.9303C47.5647 28.6369 47.9846 28.4471 48.4103 28.2687C48.4966 28.2342 48.5829 28.2054 48.6289 28.1134C48.7382 27.9063 48.9223 27.82 49.1352 27.7797C49.394 27.728 49.5436 27.5151 49.6932 27.2965C49.7277 27.2448 49.7449 27.17 49.8025 27.1527C50.2051 27.0549 50.4007 26.6465 50.7574 26.4739C51.045 26.3359 51.3844 26.2841 51.7123 26.2093C51.9654 26.1518 52.2358 26.123 52.4947 26.0828C52.5119 26.0828 52.5119 26.054 52.5292 26.0482C52.6845 26.0367 52.9088 26.3013 53.1332 26.773C53.3345 27.193 53.4036 27.4634 53.2943 27.5266C53.1735 27.5957 53.0354 27.6359 52.9031 27.6877C52.9261 27.6992 52.9376 27.7165 52.9491 27.7395Z" fill="#EBC464"/>
<path d="M81.0502 36.2706C80.6821 36.4317 80.3312 36.6273 79.9342 36.7481C79.5776 36.8574 79.2267 36.9609 79.0656 37.3118C79.0253 37.4038 78.9275 37.4384 78.8528 37.5016C78.7262 37.6167 78.5881 37.726 78.4673 37.8468C78.4098 37.9043 78.4098 38.0309 78.335 38.0539C77.9611 38.1632 77.662 38.3588 77.5009 38.7212C77.1442 38.7327 77.0407 39.0318 76.8681 39.2677C76.7013 39.4978 76.4539 39.6474 76.3504 39.958C76.3216 40.0385 76.2698 40.1076 76.1951 40.1306C75.7291 40.2801 75.43 40.6253 75.1136 40.9532C74.7742 41.3099 74.3657 41.5745 73.8653 41.7355C73.6006 41.8218 73.3993 42.0002 73.198 42.1727C72.9564 42.3798 72.7608 42.6272 72.5307 42.8458C72.197 43.1622 71.8921 43.5016 71.6505 43.9158C71.3226 44.468 70.966 44.9858 70.5748 45.4747C70.3792 45.7221 70.0916 45.8717 69.827 46.05C69.3035 46.4066 68.757 46.7288 68.245 47.097C67.8653 47.3788 67.5144 47.701 67.175 48.0289C66.8586 48.3395 66.5825 48.6904 66.2718 49.0068C65.3457 49.9387 64.4138 50.8534 63.4876 51.7853C63.2632 52.0097 63.0619 52.257 62.8491 52.4871C62.7398 52.6022 62.619 52.7057 62.4981 52.7978C62.0379 53.1544 61.5662 53.4996 61.1118 53.862C60.4617 54.3855 59.8347 54.9377 59.1904 55.4612C58.8222 55.7603 58.4368 56.0365 58.178 56.4564C58.1032 56.5772 57.9881 56.5024 57.8501 56.2608C57.6027 55.8409 57.3323 55.4152 57.3208 55.0528C57.3151 54.8054 57.3266 54.5983 57.5164 54.5293C57.7925 54.4315 57.8731 54.0691 58.2643 54.1151C58.3218 54.1209 58.3563 54.0748 58.3793 54.0346C58.7877 53.258 59.5241 52.8611 60.1741 52.3606C60.387 52.1995 60.5538 51.9866 60.7494 51.8026C60.8759 51.6818 61.0082 51.5725 61.1405 51.4632C61.3361 51.3079 61.5605 51.1813 61.7388 51.0029C61.8711 50.8649 61.9517 50.6808 62.268 50.7843C62.3313 50.8074 62.4004 50.7326 62.3831 50.6578C62.3141 50.3702 62.4521 50.2896 62.5787 50.1976C62.9123 49.9387 63.2633 49.6971 63.5854 49.421C63.8213 49.2139 64.0341 48.9838 64.2297 48.7307C64.5346 48.3453 64.8049 47.9138 65.1156 47.5342C65.3745 47.212 65.6793 46.9416 65.9555 46.6368C66.0187 46.5677 66.0533 46.4642 66.1223 46.4009C66.2431 46.2801 66.3409 46.1133 66.525 46.0787C66.7263 46.0385 66.8471 45.9637 66.8241 45.6818C66.8126 45.5207 66.9334 45.4345 67.0369 45.3769C67.175 45.2964 67.3476 45.2676 67.5202 45.2389C67.7273 45.1986 67.9286 45.1756 67.9631 44.9167C67.9804 44.7787 68.1299 44.7269 68.2622 44.6981C68.8433 44.5716 69.2344 44.2092 69.5911 43.8065C70.0743 43.26 70.5288 42.679 71.0062 42.1267C71.1903 41.9081 71.4031 41.7183 71.6102 41.5227C72.2488 40.9072 72.9621 40.3895 73.6869 39.8832C73.8307 39.7854 73.9803 39.6876 74.0781 39.538C74.3025 39.1929 74.6189 38.9628 74.9698 38.7672C75.3955 38.5371 75.6888 38.1574 75.9822 37.772C76.0512 37.68 76.0973 37.5707 76.1951 37.5132C76.8566 37.1277 77.2823 36.4604 77.8921 36.006C78.3868 35.6436 78.939 35.3502 79.4798 35.0453C79.8997 34.8094 80.3369 34.5966 80.7626 34.3722C80.7914 34.355 80.8029 34.3205 80.8317 34.309C81.0848 34.1939 81.3666 34.3952 81.6082 34.8727C81.8211 35.2984 81.8556 35.6148 81.6658 35.7644C81.4587 35.9312 81.2286 36.0692 81.0042 36.2246C81.0215 36.2361 81.0387 36.2533 81.0502 36.2706Z" fill="#EBC464"/>
<path d="M80.1072 40.6198C79.7966 40.7407 79.5089 40.8845 79.1695 40.965C78.8704 41.0398 78.5655 41.1031 78.462 41.408C78.4332 41.4885 78.3527 41.5115 78.2951 41.5633C78.1916 41.6553 78.088 41.7474 77.996 41.8452C77.9557 41.8912 77.9672 42.0062 77.904 42.0235C77.5818 42.0925 77.3402 42.2478 77.2424 42.57C76.9318 42.5527 76.8685 42.8174 76.7477 43.0129C76.6269 43.2143 76.4198 43.3293 76.368 43.5997C76.3565 43.6745 76.3163 43.732 76.2472 43.7435C75.8561 43.847 75.6259 44.1347 75.3843 44.4108C75.1255 44.7042 74.7918 44.917 74.3661 45.0206C74.1418 45.0724 73.9807 45.2219 73.8254 45.3657C73.6355 45.5326 73.4917 45.7454 73.3134 45.9295C73.0545 46.1884 72.8244 46.476 72.6519 46.8326C72.4218 47.3101 72.1629 47.7531 71.8753 48.1672C71.7257 48.3743 71.4898 48.4894 71.2827 48.6332C70.8628 48.9151 70.4083 49.1624 70.0057 49.4616C69.7008 49.6859 69.4304 49.9506 69.1658 50.2267C68.9184 50.4798 68.7171 50.7847 68.4755 51.0435C67.7622 51.8201 67.0431 52.5795 66.3298 53.3561C66.1572 53.5402 66.0076 53.753 65.8408 53.9429C65.7602 54.0407 65.6625 54.1212 65.5647 54.2017C65.1965 54.4893 64.8168 54.7654 64.4602 55.0646C63.9482 55.4903 63.4535 55.9447 62.9415 56.3704C62.6481 56.612 62.3432 56.8364 62.1591 57.1988C62.1074 57.3024 61.9981 57.2276 61.8427 56.9917C61.5781 56.589 61.2905 56.1749 61.2387 55.8412C61.2042 55.6169 61.1927 55.427 61.3538 55.381C61.5896 55.312 61.6184 54.9898 61.9693 55.0646C62.0211 55.0761 62.0441 55.0358 62.0613 54.9956C62.3375 54.3225 62.9415 54.0176 63.4592 53.615C63.626 53.4826 63.7526 53.3043 63.9079 53.149C64.0057 53.0512 64.1093 52.9591 64.2186 52.8728C64.3739 52.7463 64.558 52.6485 64.696 52.499C64.7996 52.3839 64.8513 52.2171 65.139 52.3436C65.2022 52.3666 65.2483 52.3034 65.2253 52.2343C65.1332 51.9639 65.2483 51.9064 65.3461 51.8259C65.6164 51.6188 65.8983 51.429 66.1514 51.1989C66.3355 51.032 66.4966 50.8364 66.6462 50.6236C66.8705 50.2957 67.0661 49.9275 67.2962 49.5996C67.4918 49.3293 67.7276 49.0992 67.9347 48.8518C67.9865 48.7943 68.0038 48.7022 68.0555 48.6505C68.1533 48.5527 68.2166 48.4089 68.3777 48.3916C68.556 48.3743 68.6538 48.3168 68.5963 48.0522C68.5675 47.9026 68.6653 47.8394 68.7516 47.7876C68.8667 47.7301 69.0162 47.7128 69.1658 47.7013C69.3441 47.684 69.5225 47.6783 69.5225 47.4424C69.5225 47.3159 69.649 47.2813 69.7641 47.2641C70.2645 47.195 70.5694 46.8959 70.8398 46.5565C71.2022 46.0963 71.5416 45.6016 71.8983 45.1356C72.0363 44.9516 72.2032 44.7962 72.3642 44.6352C72.859 44.129 73.4342 43.7147 74.0152 43.3063C74.1303 43.2258 74.2511 43.151 74.3201 43.0244C74.4812 42.7253 74.7343 42.5412 75.0219 42.3974C75.3728 42.2191 75.5914 41.8969 75.8043 41.569C75.856 41.4943 75.8848 41.3907 75.9596 41.3504C76.5061 41.0513 76.7995 40.476 77.2884 40.1136C77.6854 39.8202 78.1398 39.6016 78.5828 39.3658C78.9222 39.1817 79.2903 39.0264 79.6412 38.8596C79.6643 38.8481 79.67 38.8136 79.693 38.802C79.9059 38.7158 80.182 38.9286 80.4466 39.3831C80.6825 39.7857 80.7515 40.0791 80.6019 40.2057C80.4351 40.338 80.2453 40.453 80.0669 40.5738C80.0784 40.5796 80.0957 40.6026 80.1072 40.6198Z" fill="#EBC464"/>
<path d="M78.3703 48.7364C78.1574 48.7595 77.9676 48.8113 77.726 48.7998C77.5132 48.7882 77.2946 48.771 77.2716 48.9953C77.2658 49.0528 77.2083 49.0529 77.1738 49.0816C77.1162 49.1334 77.0472 49.1794 76.9954 49.2427C76.9724 49.2714 77.0012 49.3692 76.9552 49.3635C76.7251 49.3462 76.5698 49.4153 76.5525 49.6569C76.3109 49.5648 76.3166 49.7719 76.2533 49.9042C76.1958 50.0365 76.0635 50.0883 76.0693 50.3012C76.0693 50.3587 76.052 50.3932 76.006 50.3932C75.7299 50.3817 75.6033 50.5658 75.471 50.7384C75.3272 50.9225 75.1143 51.0145 74.8095 51.003C74.6484 50.9915 74.5563 51.0778 74.4585 51.1583C74.3435 51.2503 74.2745 51.3942 74.1709 51.4977C74.0213 51.653 73.8948 51.8313 73.8315 52.0845C73.7452 52.4239 73.6244 52.7288 73.4806 52.9991C73.4058 53.1372 73.2505 53.1775 73.1124 53.2407C72.8421 53.373 72.5487 53.4709 72.2898 53.6204C72.1 53.7297 71.9389 53.885 71.7894 54.0519C71.6513 54.2072 71.5477 54.4027 71.4154 54.5638C71.0127 55.0355 70.6043 55.49 70.2016 55.956C70.1038 56.071 70.0291 56.2033 69.937 56.3241C69.891 56.3816 69.8335 56.4277 69.7759 56.4679C69.5516 56.6175 69.31 56.7556 69.0914 56.9166C68.7807 57.1467 68.4874 57.3999 68.171 57.63C67.9926 57.7623 67.797 57.8716 67.728 58.1247C67.705 58.1995 67.613 58.1074 67.4577 57.8831C67.1873 57.4861 66.8996 57.0777 66.8019 56.7901C66.7328 56.5945 66.6926 56.4392 66.8076 56.4392C66.9744 56.4392 66.9399 56.1803 67.216 56.3241C67.2563 56.3471 67.2678 56.3184 67.2736 56.2896C67.3599 55.7949 67.7683 55.6913 68.0847 55.4843C68.1882 55.4152 68.2515 55.2944 68.3378 55.2081C68.3953 55.1506 68.4586 55.0988 68.5219 55.0528C68.6197 54.9838 68.7405 54.9492 68.8153 54.8572C68.8728 54.7882 68.8843 54.6616 69.1201 54.8342C69.1719 54.8687 69.1949 54.8285 69.1662 54.7652C69.0511 54.5236 69.1259 54.5005 69.1834 54.4603C69.3503 54.351 69.5286 54.2647 69.6781 54.1381C69.7874 54.0461 69.8795 53.9195 69.9485 53.7815C70.0636 53.5629 70.1384 53.304 70.2592 53.0912C70.357 52.9128 70.495 52.7805 70.6101 52.6252C70.6388 52.5907 70.6331 52.5159 70.6676 52.4871C70.7251 52.4296 70.7481 52.3261 70.8632 52.3491C70.9897 52.3779 71.053 52.3491 70.9725 52.119C70.9265 51.9924 70.984 51.9579 71.0415 51.9406C71.1163 51.9176 71.2256 51.9407 71.3407 51.9637C71.473 51.9924 71.6053 52.0269 71.565 51.8371C71.542 51.7336 71.634 51.7336 71.7146 51.7508C72.0827 51.8141 72.2553 51.6415 72.3991 51.4229C72.5947 51.1295 72.7615 50.8016 72.9514 50.5025C73.0262 50.3874 73.1239 50.2954 73.216 50.1976C73.4979 49.8985 73.8603 49.6914 74.2284 49.4958C74.3032 49.4555 74.378 49.4268 74.4068 49.3347C74.4758 49.1276 74.6369 49.0356 74.8267 48.9838C75.0568 48.9206 75.1661 48.7077 75.2754 48.4891C75.2984 48.4373 75.3042 48.3625 75.3559 48.3453C75.7126 48.2302 75.8392 47.8218 76.144 47.6435C76.3914 47.4939 76.6963 47.4249 76.9897 47.3386C77.214 47.2695 77.4614 47.2293 77.6973 47.1718C77.7145 47.166 77.7087 47.143 77.726 47.1372C77.8698 47.1142 78.1172 47.3559 78.3933 47.7988C78.6407 48.19 78.7442 48.4488 78.6522 48.5121C78.5486 48.5812 78.4278 48.6272 78.3128 48.6847C78.3415 48.6962 78.3588 48.7192 78.3703 48.7364Z" fill="#EBC464"/>
<path d="M65.6503 71.0389C65.7941 72.1492 66.68 73.2422 67.8133 73.4435C69.5736 73.7599 71.4662 71.8616 71.2591 69.9977C71.1325 68.8357 70.1891 67.6967 69.0156 67.5126C67.238 67.2307 65.4145 69.1866 65.6503 71.0389Z" fill="#F5E3B4"/>
<path d="M66.6162 71.465C66.576 71.6549 66.5875 71.8505 66.5645 72.0863C66.5414 72.2992 66.553 72.5465 66.8003 72.5523C66.8636 72.5523 66.8693 72.6156 66.9096 72.6386C66.9786 72.6903 67.0419 72.7479 67.1225 72.7766C67.157 72.7939 67.2433 72.7306 67.2548 72.7766C67.3123 73.001 67.4906 73.1218 67.6977 73.001C67.7667 73.2541 67.9508 73.116 68.0774 73.0585C68.2039 73.0067 68.342 73.0355 68.4455 72.8572C68.4686 72.8054 68.5031 72.7824 68.5376 72.8054C68.7677 72.955 68.969 72.8112 69.1301 72.6788C69.3084 72.535 69.5155 72.466 69.8377 72.4602C70.0045 72.4545 70.1138 72.3567 70.2001 72.2474C70.3151 72.1266 70.3612 71.954 70.4417 71.816C70.551 71.6089 70.6085 71.3672 70.5395 71.1141C70.4475 70.7747 70.3209 70.5044 70.2173 70.2973C70.1483 70.1937 70.2231 70.0902 70.2346 69.9751C70.2634 69.7508 70.2691 69.4689 70.1656 69.2158C70.0908 69.0317 69.9412 68.8821 69.7801 68.7728C69.6306 68.6693 69.435 68.6463 69.2797 68.6118C68.8252 68.4967 68.4858 68.6347 68.1407 68.9051C68.0601 68.9684 68.0026 69.0777 67.9393 69.1582C67.9048 69.1985 67.8703 69.2388 67.8243 69.2618C67.6574 69.3654 67.4791 69.4861 67.3468 69.6472C67.157 69.8831 67.0477 70.1592 66.9786 70.4123C66.9326 70.5504 66.8981 70.7057 67.0592 70.815C67.0995 70.8437 66.9729 70.8725 66.7025 70.8898C66.225 70.9185 65.7303 70.9415 65.437 70.815C65.2356 70.7287 65.086 70.6252 65.1723 70.5044C65.2816 70.3375 65.0975 70.1074 65.4139 69.9981C65.46 69.9866 65.4485 69.9463 65.4427 69.9176C65.2586 69.3251 65.6786 68.8764 66.018 68.5139C66.133 68.3931 66.1963 68.2263 66.3113 68.0998C66.3861 68.0192 66.4609 67.9387 66.5472 67.8697C66.6853 67.7776 66.8291 67.7086 66.9556 67.6051C67.0477 67.5303 67.1052 67.3749 67.3353 67.582C67.3813 67.6223 67.4273 67.5878 67.4216 67.513C67.3871 67.2426 67.4906 67.2139 67.5942 67.1909C67.8645 67.1103 68.1522 67.0816 68.434 67.0586C68.6411 67.0298 68.854 67.0068 69.0841 66.9665C69.435 66.9205 69.8319 66.8917 70.2001 66.9953C70.5107 67.0758 70.7753 67.2484 71.0342 67.4267C71.0975 67.467 71.1838 67.4785 71.2413 67.5245C71.3449 67.6108 71.4829 67.6798 71.4887 67.8351C71.5002 68.002 71.5289 68.0998 71.7993 68.0768C71.9489 68.0653 72.0006 68.1803 72.0294 68.2723C72.0697 68.3931 72.0409 68.5485 72.0122 68.6865C71.9719 68.8649 71.9201 69.0087 72.1272 69.095C72.2423 69.141 72.225 69.2675 72.1847 69.3768C72.0121 69.8313 72.0639 70.1937 72.1042 70.5964C72.1617 71.1371 72.1445 71.7066 71.9891 72.2531C71.9201 72.4602 71.8223 72.6616 71.7073 72.8399C71.3564 73.4209 70.7984 73.8523 70.1713 74.1227C70.0505 74.1802 69.9182 74.2205 69.8204 74.3183C69.5903 74.5599 69.2567 74.6404 68.9173 74.6232C68.5203 74.6117 68.1349 74.7095 67.6977 74.7613C67.5942 74.7785 67.4849 74.8073 67.3928 74.767C67.0707 74.6232 66.76 74.5254 66.4552 74.3931C66.1503 74.2665 65.8511 74.1112 65.6383 73.8696C65.2816 73.4899 65.0918 73.001 64.9767 72.5293C64.8847 72.1669 64.8789 71.7872 64.9077 71.4248C64.9077 71.4017 64.8847 71.3845 64.8904 71.3557C64.9307 71.1371 65.2644 71.0566 65.7879 71.0623C66.2538 71.0623 66.5242 71.0739 66.5414 71.1659C66.5587 71.2695 66.5529 71.3845 66.576 71.4995L66.6162 71.465Z" fill="#EBC464"/>
<path d="M54.669 81.2148C55.181 83.0211 56.947 84.5743 59.0755 84.58C61.7159 84.5915 63.0908 82.2215 63.1656 82.095C63.2806 81.8936 64.3678 79.8572 63.3266 77.6885C63.2288 77.4814 62.2452 75.5198 60.1224 75.1228C57.7581 74.6856 55.5721 76.4862 54.8301 78.4075C54.7035 78.7354 54.2836 79.8687 54.669 81.2148Z" fill="#F5E3B4"/>
<path d="M55.8938 81.9339C55.9513 82.2446 56.0779 82.538 56.1929 82.8716C56.285 83.1765 56.4346 83.4814 56.774 83.5217C56.8602 83.5274 56.912 83.6022 56.981 83.6425C57.1018 83.7173 57.2399 83.7805 57.3722 83.838C57.4355 83.8553 57.539 83.792 57.5793 83.8496C57.7864 84.1142 58.0971 84.2407 58.4249 84.1257C58.6205 84.3845 58.8909 84.2407 59.1153 84.1775C59.3454 84.1027 59.587 84.1372 59.771 83.9243C59.8171 83.8726 59.8803 83.8496 59.9436 83.8553C60.3348 83.9531 60.6742 83.7403 60.9618 83.5217C61.2782 83.2858 61.6119 83.096 62.0548 82.9522C62.2907 82.8716 62.4518 82.6933 62.5898 82.5092C62.7566 82.2906 62.8717 82.0317 62.958 81.7959C63.1018 81.4335 63.1708 81.0365 63.096 80.6396C63.004 80.1104 62.8544 79.6386 62.6819 79.2302C62.6013 79.0231 62.6186 78.7988 62.5783 78.5744C62.5438 78.3501 62.4978 78.12 62.423 77.9129C62.3425 77.6885 62.2332 77.4642 62.0951 77.2571C61.888 76.9464 61.6061 76.6991 61.3012 76.515C61.0136 76.3424 60.6857 76.2791 60.3923 76.2159C59.4949 76.0203 58.6148 76.2446 57.8842 76.7739C57.7116 76.9062 57.5678 77.073 57.4182 77.2283C57.3435 77.3089 57.2687 77.3836 57.1824 77.4469C56.8717 77.7 56.5784 77.9934 56.3598 78.3328C56.0549 78.8103 55.8823 79.3568 55.8363 79.8918C55.8075 80.1909 55.796 80.5131 56.0204 80.7547C56.0779 80.8179 55.9628 80.8812 55.6867 80.9272C55.215 80.9963 54.7088 81.0711 54.3866 80.91C54.168 80.8007 54.0012 80.6684 54.053 80.467C54.1335 80.1909 53.9149 79.8803 54.2313 79.6329C54.2716 79.5984 54.2716 79.5466 54.2543 79.5006C54.0242 78.6492 54.5247 77.8611 54.9907 77.2341C55.146 77.0212 55.261 76.7796 55.4221 76.5725C55.5256 76.4345 55.6464 76.3079 55.773 76.1929C55.9571 76.0203 56.1757 75.8995 56.3598 75.7269C56.4978 75.6003 56.6014 75.4105 56.8948 75.5716C56.958 75.6061 57.0271 75.5428 57.0213 75.4623C56.9983 75.1689 57.1651 75.1229 57.3089 75.0538C57.7059 74.8928 58.1258 74.7835 58.5457 74.7087C58.8564 74.6454 59.1728 74.5706 59.4949 74.5188C60.0011 74.4326 60.5534 74.3693 61.0941 74.4843C61.5486 74.5764 61.9685 74.7777 62.3655 75.0078C62.4575 75.0596 62.5726 75.0826 62.6588 75.1459C62.8199 75.2552 63.0155 75.353 63.0788 75.5428C63.1478 75.7557 63.2341 75.8765 63.5275 75.865C63.7001 75.8592 63.7921 76.003 63.8554 76.1238C63.9359 76.2849 63.9647 76.4747 63.9762 76.6646C63.9992 76.8947 63.9877 77.0903 64.2466 77.2283C64.3846 77.2974 64.3961 77.4757 64.3846 77.6195C64.3386 78.2638 64.4767 78.7873 64.586 79.3625C64.7355 80.1334 64.7643 80.9502 64.6147 81.7498C64.5515 82.0662 64.4479 82.3539 64.2868 82.6875C64.1373 82.9867 64.0107 83.1592 63.8611 83.3663C63.7116 83.5619 63.5505 83.746 63.3722 83.9186C63.0213 84.2637 62.6186 84.5629 62.1814 84.8102C62.0031 84.9023 61.8247 84.9886 61.6752 85.1266C61.33 85.443 60.864 85.5983 60.3923 85.6328C59.8286 85.6674 59.3051 85.8169 58.7356 85.886C58.6033 85.909 58.4652 85.9493 58.3387 85.909C57.47 85.6674 56.5439 85.558 55.8018 85.0116C55.215 84.5801 54.7893 83.9704 54.4729 83.3548C54.2256 82.8716 54.076 82.3539 53.9954 81.8361C53.9897 81.8016 53.9609 81.7786 53.9552 81.7384C53.9322 81.4277 54.2371 81.2724 54.7721 81.2379C55.2495 81.2033 55.5256 81.2379 55.5947 81.3989C55.6579 81.583 55.7212 81.7844 55.8075 81.9684L55.8938 81.9339Z" fill="#EBC464"/>
<path d="M43.8817 70.1824L41.3679 69.6187C40.666 69.4634 40.2461 68.7328 40.4704 68.0424L41.178 65.8565C41.3966 65.1892 41.0054 64.4701 40.3209 64.2918L36.0352 63.1643C35.3852 62.9917 34.7179 63.3771 34.5395 64.0214L33.7917 66.7251C33.6191 67.3579 32.9806 67.7376 32.342 67.5938L29.6671 66.9955C28.9653 66.8402 28.2807 67.3119 28.1829 68.0252L27.6364 71.9657C27.5501 72.5755 27.9356 73.1565 28.5338 73.3176L30.5357 73.8583C31.1915 74.0367 31.5827 74.7155 31.3986 75.3713L30.668 78.0059C30.4667 78.725 30.9557 79.4556 31.692 79.5476L35.529 80.0424C36.1157 80.1171 36.668 79.7662 36.8521 79.2025L37.5769 76.9647C37.7782 76.3434 38.434 75.9868 39.0611 76.1594L41.8338 76.9072C42.4608 77.074 43.1109 76.7289 43.318 76.1133L44.7676 71.7701C45.0092 71.0798 44.5893 70.3435 43.8817 70.1824Z" fill="#F5E3B4"/>
<path d="M40.9884 70.3663C40.4707 70.1362 40.0738 69.699 39.907 69.1928C39.7344 68.6866 39.8264 68.1343 40.0795 67.7144C40.4189 67.1391 40.7583 66.5696 40.7986 65.9196V65.885C40.8101 65.77 40.8734 65.6492 40.8734 65.5227C40.8734 65.2753 40.7698 65.0279 40.5858 64.8669C40.4995 64.7921 40.3441 64.8093 40.2809 64.746C40.1888 64.6598 40.1025 64.6138 39.9472 64.5447C39.7919 64.4814 39.6308 64.4239 39.4698 64.3721C39.1476 64.2801 38.814 64.2226 38.4631 64.2226C38.0086 63.8774 37.4679 63.9004 36.9444 63.8314C36.6452 63.7969 36.2886 63.6991 36.0412 63.6646C35.9032 63.6415 35.7536 63.6646 35.65 63.7566C35.581 63.8141 35.512 63.8601 35.4314 63.8716C35.3049 63.8889 35.1841 63.9637 35.1035 64.0672C35.0633 64.119 35.0345 64.1823 35.0115 64.2456L34.977 64.3434L34.9367 64.4929C34.8217 64.9014 34.7354 65.3213 34.6433 65.7412C34.5973 65.9656 34.5398 66.19 34.4765 66.4086L34.373 66.7595C34.327 66.9148 34.2752 67.0643 34.1946 67.1967C33.8898 67.7489 33.2512 68.0595 32.676 67.9732C32.3711 67.9387 32.0719 67.8007 31.8533 67.7489C31.6117 67.6799 31.3644 67.6281 31.1228 67.5763C30.6683 67.4785 30.1621 67.4037 29.7364 67.3347C29.6443 67.3232 29.5581 67.306 29.466 67.306C29.1324 67.306 28.8217 67.5188 28.6952 67.8064C28.6319 67.9502 28.6204 68.1113 28.6319 68.2609L28.6434 68.8879C28.6664 69.4114 28.6779 69.9349 28.6837 70.4584L28.6779 71.9598C28.6837 71.9943 28.6952 72.0231 28.7067 72.0518C28.7412 72.1209 28.7699 72.1842 28.8102 72.2474C28.8332 72.2762 28.8562 72.3107 28.885 72.3337C28.9023 72.3452 28.9195 72.3567 28.9368 72.3682C28.9598 72.3797 28.954 72.3855 29.0461 72.4143L30.7373 72.9895C31.698 73.2656 32.3366 74.2321 32.233 75.1755C32.2215 75.3481 32.1812 75.5149 32.1295 75.6817L32.0259 76.0384L31.8476 76.6827L31.5254 77.9827L31.5082 78.0575C31.4679 78.2186 31.5254 78.3912 31.6347 78.489C31.744 78.5925 31.8936 78.627 32.0202 78.6155L35.535 78.9031C35.6673 78.8974 35.7593 78.7823 35.7478 78.6845L36.2253 76.953L36.3288 76.5734C36.582 75.6702 37.3528 74.9339 38.2905 74.7498C38.5724 74.6923 38.8657 74.6865 39.1534 74.7325C39.2972 74.7498 39.441 74.7901 39.5848 74.8303L39.8149 74.8936L42.0066 75.5552C42.0182 75.5667 42.0412 75.5724 42.0584 75.5667C42.0814 75.5609 42.1044 75.5379 42.1102 75.5149L42.4726 74.4392L43.2319 72.2072L43.4506 71.5744L43.5023 71.4191L43.5138 71.3788L43.5196 71.3673V71.3615L43.5599 71.373H43.5656L43.5829 71.3788C43.6001 71.3845 43.6116 71.3846 43.6059 71.3846C43.6001 71.3846 43.5829 71.3903 43.5886 71.3903C43.5944 71.3903 43.6059 71.373 43.6001 71.3788C43.5944 71.3903 43.5886 71.4076 43.5886 71.4133C43.5886 71.4076 43.5829 71.4363 43.5944 71.396C43.6059 71.3443 43.6174 71.2867 43.6404 71.2235C43.7784 70.7863 44.0891 70.2685 44.6586 70.4238C45.021 70.5331 45.3719 70.8898 45.2971 71.4075C45.2684 71.5859 45.2281 71.7699 45.1763 71.931L45.0613 72.3165C44.9807 72.5696 44.8829 72.8169 44.6643 73.0183C44.6011 73.0758 44.5838 73.1793 44.5723 73.2656C44.486 74.048 44.2789 74.7901 44.0258 75.5149L43.8302 76.0614C43.7554 76.28 43.6519 76.5389 43.4966 76.7287C43.1859 77.1256 42.7027 77.3615 42.208 77.3672C42.0182 77.373 41.8341 77.3442 41.65 77.2982L40.5743 77.0624C40.2579 76.9876 39.9415 76.9013 39.6251 76.8092C39.1189 76.6769 38.837 76.4756 38.5091 76.6136C38.2617 76.7287 38.1869 76.9128 37.836 76.9818C37.7842 76.9933 37.744 77.0796 37.7497 77.1544C37.7497 77.1889 37.7555 77.2177 37.7728 77.2349C37.9453 77.5513 37.8245 77.8274 37.7267 78.1036L37.3183 79.2426C37.1687 79.7488 36.7948 80.1745 36.3116 80.3758C36.1333 80.4506 35.9434 80.4966 35.7536 80.5081C35.5753 80.5254 35.3394 80.4966 35.1956 80.4851C34.9022 80.4679 34.6031 80.4563 34.3097 80.4506C33.8495 80.4391 33.3893 80.4449 32.9291 80.4449H32.2388C32.0029 80.4391 31.8303 80.4564 31.3989 80.4046C30.8064 80.3241 30.2656 79.9674 29.9435 79.4612C29.6156 78.9549 29.512 78.3107 29.6616 77.7009L29.6961 77.5513C29.7421 77.3385 29.7306 77.1831 29.7709 77.0048C29.8457 76.6884 29.8744 76.3433 30.047 76.0729C30.1391 75.9233 30.2139 75.7853 30.2369 75.6414C30.2484 75.5667 30.2541 75.4919 30.2484 75.4171C30.2426 75.3768 30.2369 75.3366 30.2254 75.2963C30.2139 75.256 30.1851 75.2618 30.1621 75.2445C30.0413 75.1927 30.0528 75.1927 30.0758 75.164C30.0988 75.1352 30.1736 75.0489 30.1793 74.9339C30.1851 74.8591 30.1563 74.7728 30.093 74.7498C30.0815 74.744 30.0758 74.744 30.0585 74.744C30.024 74.7383 29.9895 74.7326 29.9492 74.7268C29.8744 74.721 29.7939 74.7268 29.7134 74.7383C29.4948 74.7786 29.2474 74.652 29.0461 74.5312C28.8447 74.4104 28.6549 74.3126 28.4248 74.2148C28.0854 74.094 27.769 73.9329 27.5159 73.6971C26.9981 73.2369 26.722 72.5293 26.8026 71.8275L26.8313 71.4766L26.9349 69.4287L26.9809 68.4047L26.9924 68.1516L27.0097 67.9618C27.0154 67.887 27.0269 67.8064 27.0384 67.7316C27.0844 67.4268 27.188 67.1334 27.3491 66.8688C27.8323 66.0231 28.8792 65.5629 29.8687 65.7527L29.9377 65.7643L31.2493 66.0404L32.4171 66.3165C32.4516 66.3395 32.5091 66.351 32.5609 66.3338C32.5897 66.3223 32.6127 66.305 32.6357 66.282C32.6472 66.2705 32.6529 66.259 32.6645 66.2417C32.6645 66.2532 32.6875 66.1727 32.7047 66.1324L32.7507 65.9829C32.8543 65.6722 32.9636 65.3616 33.0039 65.0337C33.0441 64.6598 33.1247 64.2974 33.2225 63.9407L33.28 63.7336C33.303 63.6473 33.3318 63.5668 33.3663 63.4862C33.4295 63.3252 33.5101 63.1756 33.6079 63.0318C33.8035 62.7499 34.0508 62.5141 34.3385 62.3472C34.9367 61.9906 35.65 61.8813 36.3288 62.0481L36.5935 62.1056L36.7775 62.1401L37.1515 62.2034L37.9051 62.3185C38.1121 62.3472 38.3307 62.3472 38.5206 62.4163C38.8542 62.5371 39.1994 62.6406 39.5445 62.7269L40.7353 63.0088C41.4026 63.1928 41.9836 63.6473 42.3115 64.2513C42.6452 64.8554 42.7257 65.5974 42.5071 66.2705L42.4956 66.305L42.3863 66.6099L42.3115 66.8112L42.1562 67.2139L41.8226 68.0078L41.7363 68.2034C41.7075 68.2666 41.7133 68.2321 41.696 68.2494C41.6787 68.2609 41.6557 68.2781 41.6442 68.3011C41.6155 68.3472 41.5982 68.4104 41.6155 68.4737C41.6327 68.5427 41.673 68.6118 41.7478 68.6636L41.7765 68.6808L41.8801 68.7153L42.0872 68.7901L42.5014 68.9397L43.3298 69.2388C43.3873 69.2561 43.4505 69.2503 43.5023 69.2733C43.9798 69.4574 44.0603 69.8256 43.7152 70.28C43.4103 70.6827 43.0249 70.8668 42.5819 70.7633C42.3633 70.7115 42.1447 70.6482 41.9261 70.5907L41.2185 70.3893C41.1438 70.3663 41.0632 70.3433 40.9884 70.3145V70.3663Z" fill="#EBC464"/>
<path d="M125.919 29.5222C127.225 29.4532 128.554 29.2634 129.831 28.9183C130.119 28.8435 130.412 28.7802 130.694 28.6939C130.97 28.5904 131.246 28.4868 131.522 28.366C132.08 28.1531 132.581 27.8137 133.053 27.4225C133.3 27.2327 133.593 27.0601 133.852 26.853L134.56 26.3066C134.79 26.1167 134.997 25.9038 135.21 25.6968C135.405 25.5069 135.543 25.2481 135.751 25.0985C136.205 24.6843 136.688 24.2816 137.062 23.7869C137.425 23.2865 137.804 22.786 138.017 22.1934C138.725 21.4859 138.984 20.5252 139.283 19.6163C139.403 19.1446 139.57 18.6901 139.697 18.2184C139.789 17.7409 139.869 17.2635 139.898 16.786C139.915 16.5329 139.915 16.251 139.984 16.0037C140.37 14.508 140.238 12.9203 139.841 11.4361C139.415 9.83692 138.788 8.31249 137.994 6.83407C137.557 6.05172 136.941 5.32687 136.257 4.71709L135.636 4.18214C135.417 4.01532 135.187 3.87147 134.962 3.71615C134.525 3.38825 134.025 3.16393 133.553 2.88781C132.155 2.16298 130.596 1.74876 129.066 1.70274C128.048 1.67973 127.035 1.78904 126.075 2.07092C125.12 2.34129 124.194 2.70371 123.365 3.23295C122.525 3.75644 121.674 4.29714 120.932 4.98745C119.494 6.38532 118.418 8.24345 118.09 10.2741C117.831 11.7698 118.102 13.3517 118.798 14.6978C119.431 15.9691 120.477 16.9816 121.645 17.7065C122.52 18.2415 123.503 18.5866 124.504 18.7304C125.476 18.8512 126.472 18.7649 127.369 18.4025C129.181 17.718 130.55 16.0612 130.872 14.2031C131.045 13.3402 130.901 12.4946 130.562 11.741C130.383 11.3671 130.176 11.0104 129.917 10.6883C128.98 9.50325 127.237 8.83024 125.925 9.36523C124.947 9.71038 124.205 10.5962 124.01 11.6087C123.802 12.5233 124.274 13.5071 125.085 13.9558C125.31 14.0823 125.574 14.1743 125.81 14.2089C126.034 14.2434 126.259 14.2261 126.472 14.1513C126.892 14.0075 127.237 13.6336 127.3 13.2194C127.329 13.0008 127.467 12.9318 127.714 13.0814C127.933 13.2252 128.14 13.3862 128.284 13.6278C128.416 13.8637 128.502 14.1973 128.335 14.623C128.117 15.1868 127.674 15.7276 126.88 15.8771C125.781 16.113 124.441 15.9116 123.768 15.0142C123.682 14.8819 123.509 14.7611 123.383 14.6403C122.779 14.1341 122.364 13.3863 122.22 12.5867C122.077 11.7698 122.226 10.9357 122.56 10.2108C123.216 8.72667 124.677 7.67969 126.242 7.46684C127.271 7.30577 128.33 7.45531 129.262 7.8695C129.871 8.13987 130.441 8.50807 130.913 8.97978C131.609 9.66434 132.086 10.5272 132.414 11.4246C132.656 12.0977 132.834 12.8397 132.523 13.4725C132.472 13.6048 132.443 13.9673 132.489 14.1054C132.679 14.6461 132.483 15.2328 132.265 15.7793C131.626 17.2635 130.504 18.5118 129.118 19.3114C128.105 19.9154 126.943 20.2836 125.753 20.4044C123.889 20.5597 122.013 20.0995 120.385 19.0986C119.039 18.2529 117.923 17.0219 117.176 15.5895C116.986 15.2673 116.807 14.9395 116.669 14.5885C116.416 13.95 116.198 13.2425 116.198 12.5867C116.203 12.2242 116.226 11.9021 116.192 11.5972C116.18 11.2866 116.14 10.9817 116.036 10.6423C115.956 10.2626 116.013 9.63556 116.163 9.18686C116.249 8.89348 116.336 8.60009 116.462 8.31822C116.594 8.04209 116.733 7.7717 116.871 7.50708C117.233 6.8858 117.601 6.34511 117.854 5.61453C117.964 5.20034 118.378 4.78614 118.694 4.44674C119.459 3.75643 120.196 3.06611 121.041 2.50236C121.243 2.34704 121.45 2.20898 121.668 2.07667L122.313 1.67402C122.767 1.44967 123.198 1.17927 123.676 0.995186C124.941 0.442938 126.311 0.103563 127.708 0.0172746L128.761 0L129.814 0.0863028C130.165 0.120818 130.498 0.201312 130.844 0.258838C131.189 0.322117 131.528 0.385415 131.862 0.494714C132.385 0.650034 132.915 0.805331 133.409 1.04694L134.163 1.38063L134.882 1.78905C137.856 3.49756 140.134 6.3681 141.141 9.62406C141.262 9.9347 141.313 10.2741 141.411 10.5905C141.497 10.9127 141.601 11.2348 141.67 11.5512C142.107 13.0238 142.096 14.5885 141.837 16.0842C141.705 16.9989 141.451 17.8445 141.279 18.7304C141.008 19.5818 140.807 20.462 140.439 21.2903C140.278 21.6757 140.174 22.1014 139.933 22.4466C139.536 23.0564 139.179 23.6891 138.736 24.2586C138.523 24.552 138.322 24.8511 138.098 25.1388L137.396 25.9672L137.045 26.3813L136.66 26.761L135.877 27.5203C135.607 27.762 135.313 27.9748 135.032 28.1992C134.738 28.412 134.468 28.6536 134.146 28.832C132.167 30.1033 129.912 30.8856 127.634 31.2251C125.873 31.5242 124.079 31.4206 122.359 31.1675C122.244 31.1445 122.123 31.1502 122.013 31.1272C121.03 30.9259 120.805 30.552 121.34 30.0975C121.576 29.8962 121.847 29.7466 122.163 29.6661C122.479 29.574 122.83 29.5855 123.239 29.5855C123.687 29.597 124.136 29.6431 124.585 29.6431L125.937 29.5913L125.919 29.5222Z" fill="#EBC464"/>
<path d="M111.396 97.0025C110.508 99.7368 109.647 102.509 108.72 105.201C107.892 107.606 107.077 109.963 106.528 112.508C106.39 113.163 106.157 113.85 105.969 114.522C105.632 115.746 105.29 116.976 104.953 118.199C104.806 118.757 104.733 119.371 104.557 119.88C104.346 120.502 104.114 121.137 103.943 121.755C103.864 122.063 103.766 122.368 103.734 122.683C103.684 123 103.64 123.316 103.642 123.634C103.599 124.91 103.882 126.2 104.477 127.321C105.081 129.239 106.686 130.688 108.47 131.496C108.699 131.589 108.923 131.694 109.157 131.781L109.867 132.012L111.375 132.414C112.379 132.691 113.398 132.886 114.408 133.053C114.943 133.139 115.551 133.27 116.076 133.433L117.278 133.789C117.694 133.91 118.057 134.007 118.43 134.046C119.185 134.134 119.969 134.063 120.696 133.807C122.163 133.322 123.356 132.165 123.921 130.734C125.287 127.397 126.703 124.091 128.198 120.829C128.994 119.092 129.7 117.22 130.382 115.384C131.196 113.2 131.922 110.985 132.676 108.778C133.767 105.573 134.771 102.365 135.632 99.119C136.82 94.7888 137.815 90.3736 138.947 85.997C139.231 84.8825 139.55 83.7704 139.879 82.6514C140.064 82.0611 140.171 81.6228 140.232 81.1197C140.276 80.6241 140.291 80.1256 140.213 79.6303C139.943 77.6396 138.663 75.8402 136.782 74.9378C134.751 73.9057 132.631 73.0325 130.448 72.3504C129.631 72.0952 128.799 71.8646 127.965 71.6632L127.338 71.5166C127.131 71.4732 126.901 71.4206 126.742 71.3957C126.39 71.3378 126.025 71.333 125.672 71.3907C124.966 71.4946 124.288 71.8327 123.77 72.3285C123.505 72.5741 123.29 72.861 123.113 73.1732C123.018 73.327 122.954 73.4951 122.889 73.6576L122.804 73.9145L122.719 74.2233C121.835 77.3618 121.053 80.5251 120.258 83.6837C119.081 88.3654 117.988 93.0735 116.982 97.7961C115.942 102.511 115.154 107.276 114.296 112.024L113.701 115.452L113.554 116.311L113.48 116.74L113.447 117.049C113.429 117.45 113.485 117.849 113.614 118.224C113.867 118.973 114.415 119.608 115.112 119.938C115.191 119.982 115.275 120.015 115.359 120.041C115.431 120.074 115.545 120.11 115.669 120.144L116.026 120.247L116.199 120.3L116.335 120.327C116.689 120.408 117.055 120.418 117.413 120.36C118.13 120.249 118.814 119.853 119.283 119.269C119.395 119.12 119.496 118.965 119.59 118.806L119.71 118.551L119.864 118.183L120.471 116.702C120.87 115.709 121.259 114.717 121.629 113.716C123.761 107.981 125.466 102.086 126.794 96.1122C127.548 92.7205 128.19 89.3051 128.513 85.869C128.598 84.907 128.771 84.6069 128.995 85.0069C129.385 85.6911 129.822 86.2552 129.851 87.9633C129.871 89.1173 129.844 90.1951 129.523 91.5791C129.06 93.5782 128.846 95.7552 128.107 97.6598C128.001 97.9303 127.925 98.3366 127.865 98.6662C126.791 104.632 124.821 110.426 122.606 116.077L121.52 118.854C121.355 119.297 121.125 119.84 120.803 120.271C120.488 120.718 120.093 121.109 119.644 121.419C118.494 122.248 116.923 122.5 115.577 122.089L114.886 121.885C114.641 121.799 114.4 121.701 114.174 121.579C113.717 121.335 113.298 121.017 112.95 120.647C112.241 119.901 111.787 118.929 111.654 117.919C111.521 117.151 111.663 116.363 111.798 115.731C111.935 115.07 112.104 114.43 112.363 113.832C112.471 113.579 112.596 112.85 112.576 112.586C112.504 111.558 112.752 110.424 112.975 109.281C113.598 106.203 114.174 103.112 114.857 100.051C115.333 97.7785 115.815 95.4944 116.286 93.2286C117.016 89.7064 117.741 86.1904 118.577 82.6867C119.273 79.7574 120.073 76.8351 120.868 73.9191L121.003 73.4088C121.07 73.2058 121.118 72.9929 121.204 72.7996C121.355 72.3975 121.566 72.0127 121.826 71.6635C122.757 70.3643 124.396 69.4523 125.927 69.5045C126.349 69.5037 126.742 69.5634 127.107 69.6374C127.421 69.7108 127.722 69.7738 128.023 69.8425C128.607 69.9644 129.183 70.0526 129.824 70.1054C130.546 70.1618 131.631 70.5005 132.495 70.8205C133.604 71.2262 134.671 71.7344 135.694 72.2642C136.304 72.5917 136.895 72.9037 137.499 73.226C137.785 73.3714 138.145 73.5673 138.481 73.754C138.647 73.8534 138.819 73.9579 138.991 74.0624C139.158 74.1732 139.331 74.2892 139.505 74.4051C139.876 74.6577 140.266 75.0415 140.603 75.4709C140.93 75.9129 141.226 76.404 141.417 76.8709C141.864 77.8964 142.122 78.9925 142.142 80.0887C142.161 80.6359 142.117 81.1893 142.032 81.7295C142 81.9985 141.917 82.2668 141.862 82.5323L141.654 83.2462C141.1 85.1386 140.588 87.05 140.087 88.9603C139.393 91.5542 138.77 94.1642 138.04 96.7443C137.311 99.3244 136.563 101.9 135.769 104.47C135.145 106.479 134.468 108.481 133.785 110.479C131.654 116.687 129.228 122.786 126.634 128.809C126.379 129.4 126.12 129.992 125.866 130.589C125.739 130.891 125.618 131.186 125.491 131.481C125.334 131.832 125.172 132.177 124.978 132.503C124.093 134.029 122.569 135.172 120.863 135.628C120.013 135.862 119.112 135.933 118.236 135.834C117.299 135.717 116.67 135.484 115.946 135.295C114.239 134.809 112.514 134.423 110.81 133.966L109.529 133.629C109.309 133.57 109.063 133.484 108.831 133.409C108.593 133.339 108.359 133.253 108.135 133.147C107.209 132.781 106.358 132.241 105.579 131.606C104.846 131.03 104.193 130.32 103.69 129.548C102.838 128.175 102.271 126.635 102.08 125.036C102.007 124.234 101.974 123.428 102.081 122.625C102.107 122.426 102.122 122.222 102.155 122.028L102.282 121.438C102.368 121.019 102.46 120.715 102.548 120.372C103.271 117.665 103.983 114.959 104.766 112.276C106.028 107.927 107.385 103.609 108.719 99.2936C109.762 95.9603 110.807 92.6384 111.851 89.3108C111.921 89.09 111.962 88.8548 112.033 88.6397C112.64 86.748 113.139 86.2367 113.386 87.2818C113.604 88.2084 113.503 89.542 113.013 91.2662L111.334 96.9623L111.396 97.0025Z" fill="#EBC464"/>
<path d="M73.8685 164.46C69.1472 158.779 60.0836 149.436 45.8009 142.797C27.4524 134.27 10.6123 134.926 2.53155 135.831C2.13075 135.875 1.97241 136.375 2.27423 136.644C9.46224 143.007 21.5147 152.023 38.5469 158.086C52.6898 163.12 65.224 164.322 73.8685 164.46Z" fill="#F5E3B4"/>
<path d="M68.6175 159.901C67.3634 158.451 65.9972 157.079 64.687 155.694C63.4985 154.471 62.3093 153.279 60.8374 152.352C60.4547 152.113 60.0945 151.787 59.7214 151.508C59.0368 151 58.3401 150.51 57.6454 150.025C57.3251 149.806 56.9292 149.664 56.6487 149.437C55.9624 148.875 55.2551 148.339 54.5064 147.874C53.7645 147.394 53.0002 146.953 52.1804 146.594C51.1043 145.692 49.8177 145.199 48.5626 144.608C47.9343 144.319 47.2987 144.027 46.663 143.735C46.0327 143.44 45.3923 143.168 44.7218 142.981C44.3708 142.878 43.9836 142.727 43.6612 142.552C43.1702 142.285 42.667 142.036 42.1604 141.794C41.6435 141.575 41.1254 141.368 40.6038 141.168L39.0267 140.586C38.4983 140.401 37.9563 140.246 37.4157 140.078C36.8402 139.899 36.27 139.717 35.6959 139.525L33.9732 138.997L32.2621 138.434C31.6885 138.26 31.1129 138.08 30.5408 137.893C29.3273 137.465 28.0073 137.23 26.7157 136.972C25.9496 136.807 25.1716 136.727 24.3998 136.614C23.6281 136.501 22.8515 136.408 22.0735 136.328L20.3877 136.148C19.8257 136.105 19.2622 136.074 18.6988 136.043C17.5734 135.969 16.4469 135.975 15.3245 135.991C12.3165 136.068 9.3088 136.261 6.31397 136.572C5.89299 136.611 5.4666 136.652 5.03823 136.688L4.85299 136.701L4.76946 136.708L4.60049 136.715L4.2948 136.718C4.17773 136.7 4.08358 136.827 4.1391 136.91C4.27312 137.057 4.42392 137.216 4.61567 137.403C5.16097 137.882 5.76315 138.432 6.34881 138.92C7.52672 139.932 8.72226 140.925 9.95973 141.866C11.8064 143.292 13.7445 144.618 15.7199 145.862C16.6418 146.447 17.5718 147.004 18.5249 147.541C19.4658 148.094 20.4251 148.598 21.3761 149.13C24.206 150.677 27.101 152.102 30.045 153.411C32.9992 154.698 36.0038 155.855 39.052 156.899C40.5238 157.379 41.9997 157.82 43.4913 158.237C44.2336 158.453 44.976 158.669 45.7184 158.885C48.464 159.691 51.2415 160.417 54.0507 160.997C58.0761 161.814 62.143 162.395 66.2337 162.758C68.5503 162.968 70.8798 163.13 73.1971 163.027C73.8496 163 74.0578 163.132 73.8082 163.402C73.3793 163.867 73.0297 164.365 71.8948 164.613C71.1212 164.777 70.4008 164.902 69.452 164.775C68.0813 164.601 66.6049 164.706 65.2756 164.296C65.088 164.237 64.8093 164.229 64.5798 164.222C60.498 164.132 56.4589 163.345 52.4709 162.447C51.1659 162.169 49.8575 161.899 48.5499 161.597C47.7112 161.386 46.8652 161.172 46.0313 160.941C44.827 160.571 43.6174 160.202 42.4205 159.836C41.5093 159.578 40.5999 159.375 39.8866 158.823C39.7336 158.708 39.2629 158.563 39.0757 158.571C38.349 158.613 37.6306 158.296 36.8953 158.016C35.9038 157.641 34.9191 157.251 33.9481 156.831C32.9682 156.421 31.9957 156.014 31.0294 155.574C29.5946 154.946 28.1545 154.319 26.7217 153.696C24.5069 152.7 22.2907 151.717 20.1364 150.57C19.2363 150.093 18.3429 149.602 17.4612 149.075C16.5726 148.564 15.7016 148.034 14.8375 147.489C14.438 147.238 14.0093 147.041 13.6166 146.775C12.8928 146.294 12.0936 145.842 11.4859 145.294C10.8106 144.679 10.2401 144.264 9.43286 143.956C8.98117 143.779 8.38926 143.324 7.91626 142.941C7.31382 142.44 6.76076 141.89 6.21367 141.356C5.56952 140.693 4.96892 140.081 4.10255 139.58C3.86883 139.445 3.62395 139.248 3.37846 139.032L3.11218 138.793L2.8044 138.508C2.6564 138.324 2.54334 138.151 2.42151 137.988C2.18325 137.659 1.94901 137.34 1.71134 137.03L1.3524 136.574C1.27331 136.493 1.2917 136.443 1.27254 136.358C1.26277 136.282 1.27063 136.187 1.28584 136.095C1.31426 135.907 1.40259 135.715 1.51831 135.58C1.57447 135.516 1.63805 135.456 1.70079 135.427C1.77432 135.393 1.86808 135.365 1.94901 135.335L2.94966 134.989C4.60321 134.849 6.26415 134.713 7.93048 134.575C11.5586 134.318 15.1981 134.241 18.8466 134.437C20.2791 134.495 21.703 134.68 23.1296 134.839C27.563 135.382 31.9254 136.43 36.1624 137.819C36.9873 138.108 37.8236 138.412 38.6609 138.636C39.6334 138.877 40.5555 139.248 41.4879 139.596L42.8711 140.151L44.219 140.793C45.2973 141.32 46.3988 141.778 47.4752 142.299L49.1047 143.04L50.7172 143.817C51.2218 144.054 51.7441 144.271 52.2033 144.568C55.4668 146.574 58.7858 148.499 61.7993 150.874C64.2282 152.796 66.4819 154.925 68.6167 157.147C70.2655 158.867 71.8096 160.67 73.2861 162.522C73.3812 162.646 73.5067 162.753 73.5997 162.872C74.4158 163.95 74.4242 164.487 73.6149 164.338C72.9025 164.203 72.1384 163.713 71.3519 162.814C70.4788 161.831 69.6092 160.84 68.7024 159.881L68.6175 159.901Z" fill="#EBC464"/>
<path d="M51.3748 145.659C51.4698 147.341 51.4221 150.727 49.654 154.436C48.2882 157.309 46.863 158.811 45.6667 159.855" fill="#F5E3B4"/>
<path d="M52.225 146.332C52.1096 146.534 52.036 146.733 51.8675 146.924C51.722 147.095 51.5672 147.256 51.7206 147.439C51.7621 147.485 51.7182 147.532 51.718 147.581C51.7189 147.666 51.7091 147.756 51.7155 147.839C51.7187 147.881 51.8148 147.925 51.7796 147.963C51.6085 148.131 51.5485 148.3 51.7079 148.499C51.4751 148.615 51.6239 148.769 51.667 148.919C51.7155 149.066 51.6509 149.207 51.8017 149.365C51.8413 149.406 51.8518 149.451 51.8167 149.489C51.5956 149.687 51.6343 149.924 51.6293 150.159C51.6302 150.41 51.5268 150.645 51.2729 150.837C51.1378 150.936 51.1149 151.073 51.0827 151.202C51.0403 151.352 51.0605 151.523 51.0382 151.678C51.0056 151.905 50.9878 152.139 51.0694 152.409C51.1776 152.768 51.2164 153.121 51.2203 153.463C51.2169 153.636 51.0864 153.764 50.9962 153.902C50.8179 154.183 50.5711 154.427 50.3982 154.706C50.2647 154.909 50.1775 155.137 50.0957 155.364C50.0154 155.578 49.9961 155.824 49.9158 156.038C49.6894 156.686 49.4099 157.323 49.0974 157.954C49.0187 158.106 48.9715 158.276 48.8947 158.434C48.8553 158.51 48.8066 158.577 48.7504 158.64C48.536 158.873 48.3028 159.088 48.0863 159.315C47.7785 159.644 47.4727 159.978 47.1348 160.275C46.9456 160.443 46.7335 160.583 46.6481 160.866C46.6215 160.943 46.5242 160.863 46.3602 160.635C46.0744 160.244 45.7739 159.846 45.6681 159.56C45.5962 159.366 45.5457 159.213 45.6582 159.202C45.8253 159.189 45.7732 158.932 46.0682 159.05C46.1106 159.065 46.1188 159.038 46.1216 159.012C46.1723 158.503 46.5567 158.348 46.8407 158.071C46.9307 157.983 46.9791 157.848 47.0448 157.744C47.0862 157.674 47.1424 157.61 47.1985 157.546C47.2811 157.454 47.3917 157.389 47.4427 157.278C47.4855 157.195 47.4578 157.07 47.7395 157.168C47.7966 157.19 47.815 157.14 47.7715 157.089C47.5973 156.883 47.6614 156.841 47.7068 156.782C47.8381 156.623 47.9882 156.481 48.0953 156.307C48.1767 156.178 48.2191 156.028 48.2393 155.867C48.2768 155.62 48.2551 155.346 48.2871 155.101C48.3169 154.9 48.3857 154.721 48.4303 154.526C48.4379 154.481 48.4085 154.418 48.4235 154.376C48.4501 154.298 48.4304 154.195 48.5423 154.166C48.6724 154.136 48.7197 154.082 48.5467 153.913C48.4489 153.814 48.4855 153.764 48.5314 153.722C48.5862 153.671 48.6981 153.642 48.8046 153.615C48.9327 153.58 49.0701 153.554 48.9469 153.403C48.8806 153.323 48.9575 153.282 49.0385 153.253C49.3857 153.13 49.4669 152.885 49.4748 152.625C49.4905 152.269 49.4604 151.906 49.4451 151.55C49.4443 151.416 49.4692 151.284 49.4832 151.156C49.5355 150.75 49.698 150.377 49.8565 149.993C49.8905 149.919 49.9299 149.843 49.8906 149.754C49.8113 149.556 49.8639 149.383 49.973 149.214C50.1066 149.011 50.0335 148.781 49.957 148.558C49.9371 148.504 49.8862 148.449 49.9119 148.403C50.0831 148.069 49.8746 147.705 49.9346 147.37C49.9911 147.091 50.1296 146.819 50.246 146.537C50.3445 146.323 50.4445 146.095 50.5445 145.868C50.5513 145.854 50.527 145.838 50.5338 145.823C50.6024 145.694 50.9427 145.635 51.4644 145.669C51.9241 145.701 52.1978 145.778 52.1945 145.902C52.1899 146.038 52.1509 146.182 52.1281 146.319L52.225 146.332Z" fill="#EBC464"/>
<path d="M102.376 175.456C102.801 175.312 102.891 174.744 102.53 174.48C97.9767 171.11 93.8101 158.01 84.9918 155.729C83.1471 155.252 77.046 152.854 67.2982 157.443C66.7109 157.961 65.4612 159.208 64.9138 161.226C64.9124 161.239 64.909 161.246 64.9076 161.259C64.5168 162.723 64.9227 164.284 65.9175 165.431C68.7681 168.725 75.349 175.055 85.7098 176.864C92.9679 178.128 98.9909 176.636 102.376 175.456Z" fill="#F5E3B4"/>
<path d="M99.8609 172.903C99.2182 171.896 98.6315 170.874 98.1425 169.834C97.7062 168.904 97.3029 167.98 96.6075 167.194C96.4279 166.991 96.3011 166.731 96.1479 166.499C95.8683 166.075 95.5941 165.649 95.2969 165.244C95.1597 165.056 94.9456 164.908 94.8502 164.716C94.3877 163.765 93.8091 162.881 93.0143 162.175C92.6723 161.4 92.0329 160.882 91.4165 160.344C90.8109 159.801 90.2413 159.19 89.5157 158.821C89.3216 158.727 89.131 158.577 88.9788 158.43C88.0604 157.507 86.8814 156.906 85.6623 156.529L84.661 156.244C84.2992 156.144 83.9698 156.033 83.6296 155.926C82.9565 155.715 82.2869 155.497 81.6118 155.28C80.8924 155.044 80.0968 154.982 79.324 154.949C78.8663 154.922 78.4016 154.959 77.9451 154.969L76.5717 155.103C75.248 155.255 73.9477 155.571 72.7183 156.044C71.0799 156.706 69.4816 157.475 67.9435 158.308C67.8328 158.373 67.9064 158.34 67.7069 158.53C67.5642 158.675 67.4269 158.818 67.2916 158.966C67.0156 159.265 66.7658 159.584 66.5475 159.923C66.3292 160.261 66.1425 160.618 65.9873 160.995C65.9078 161.177 65.8416 161.38 65.7856 161.56C65.7276 161.735 65.6898 161.914 65.6668 162.101C65.5633 162.832 65.7093 163.625 66.0773 164.304C66.2243 164.569 66.3769 164.782 66.598 165.032C66.8211 165.286 67.0461 165.547 67.2854 165.796C67.7532 166.297 68.242 166.773 68.7503 167.235C69.6905 168.101 70.7181 168.856 71.749 169.603C74.8003 171.798 78.1753 173.543 81.7555 174.549L82.4004 174.733L83.0549 174.878C83.4929 174.967 83.9206 175.079 84.3633 175.148C84.8006 175.219 85.2385 175.309 85.6731 175.405C87.2909 175.733 88.9322 175.941 90.5829 175.993C92.9532 176.067 95.3263 175.832 97.6558 175.381C98.978 175.125 100.298 174.815 101.515 174.242C101.854 174.079 102.013 174.162 101.969 174.472C101.893 174.997 101.869 175.546 101.308 176.017C100.929 176.336 100.555 176.603 99.9824 176.68C99.1598 176.794 98.3468 177.199 97.4943 177.067C97.3752 177.043 97.2128 177.085 97.0813 177.127C94.7323 177.874 92.2256 177.863 89.791 177.715C88.992 177.661 88.1855 177.653 87.3873 177.568C86.871 177.532 86.3544 177.429 85.8423 177.355C85.0969 177.213 84.3694 177.004 83.628 176.874C83.0778 176.746 82.5098 176.686 82.0961 176.281C82.0062 176.204 81.7231 176.119 81.6004 176.152C81.1421 176.272 80.6977 176.099 80.254 175.945C79.6605 175.717 79.0752 175.461 78.4885 175.218L76.7637 174.402C76.3471 174.189 75.9219 173.984 75.4966 173.78L74.2362 173.142C72.9437 172.467 71.6365 171.785 70.4329 170.936C69.42 170.238 68.464 169.445 67.5398 168.621C67.3225 168.432 67.0808 168.276 66.8776 168.075C66.4927 167.714 66.066 167.357 65.7972 166.929C65.6441 166.697 65.5116 166.489 65.3441 166.318C65.2556 166.228 65.1771 166.165 65.0631 166.072C64.949 165.979 64.8261 165.896 64.6885 165.806C64.3743 165.603 64.0923 165.106 63.94 164.678C63.7418 164.126 63.6716 163.538 63.7024 162.975C63.7383 162.293 63.8849 161.711 63.8901 160.979C63.8944 160.61 64.1051 160.152 64.3214 159.808C64.8027 159.053 65.3222 158.352 65.8946 157.711C66.0367 157.548 66.1882 157.393 66.3397 157.239L66.5777 157.004C66.6966 156.911 66.7867 156.773 66.9304 156.714L67.5471 156.424L68.0916 156.155C70.0624 155.199 72.1284 154.367 74.3175 153.852C75.1715 153.64 76.056 153.527 76.9397 153.446C78.3166 153.304 79.7195 153.349 81.0962 153.539C81.7873 153.633 82.4707 153.773 83.1386 153.936C83.8031 154.108 84.4816 154.317 85.0665 154.505C85.5943 154.672 86.1295 154.842 86.65 155.005C87.8994 155.364 89.012 156.051 89.9686 156.862C91.1217 157.84 92.2306 158.797 93.2798 159.826C93.5279 160.066 93.7935 160.286 93.9882 160.564C95.3657 162.446 96.8305 164.217 98.0091 166.142C98.9625 167.691 99.7884 169.293 100.709 170.786C101.063 171.361 101.425 171.926 101.808 172.446C101.999 172.713 102.202 172.963 102.406 173.2C102.515 173.313 102.612 173.443 102.723 173.543L103.161 173.964C103.314 174.128 103.453 174.34 103.504 174.561C103.606 175.05 103.418 175.439 103.207 175.646C102.992 175.861 102.767 175.901 102.637 175.881C102.357 175.819 102.452 175.563 102.435 175.269C102.424 175.138 102.366 175.031 102.295 174.971C102.259 174.942 102.22 174.919 102.182 174.915C102.131 174.909 102.176 174.917 102.174 174.912C102.18 174.91 102.196 174.904 102.185 174.908C102.191 174.906 102.176 174.917 102.171 174.919L102.153 174.938L102.145 174.947C101.92 175.251 102.084 175.031 102.035 175.098L102.033 175.093L102.025 175.089L102.011 175.083C101.857 174.998 101.7 174.891 101.549 174.763C100.891 174.178 100.381 173.514 99.8994 172.858L99.8609 172.903Z" fill="#EBC464"/>
<path d="M83.1517 162.176C83.0281 161.958 82.8821 161.779 82.7701 161.526C82.6755 161.303 82.5715 161.072 82.3181 161.117C82.2548 161.128 82.22 161.067 82.1682 161.043C82.0795 161.003 81.9922 160.949 81.8967 160.923C81.8544 160.908 81.7673 160.971 81.7439 160.924C81.6325 160.69 81.4607 160.557 81.2012 160.634C81.1451 160.367 80.9347 160.445 80.7583 160.449C80.5853 160.445 80.449 160.342 80.2392 160.438C80.1819 160.466 80.1327 160.466 80.1039 160.421C79.928 160.161 79.6629 160.124 79.3998 160.093C79.1199 160.049 78.8733 159.913 78.6658 159.634C78.552 159.492 78.398 159.457 78.2474 159.415C78.0712 159.37 77.8772 159.393 77.6942 159.362C77.431 159.331 77.1603 159.345 76.8778 159.443C76.5015 159.57 76.1346 159.706 75.7835 159.769C75.6043 159.798 75.4397 159.718 75.2689 159.671C74.9287 159.564 74.5859 159.433 74.2293 159.381C73.9656 159.331 73.6934 159.358 73.4307 159.394C73.1841 159.424 72.938 159.521 72.694 159.575C71.9689 159.72 71.2577 159.904 70.568 160.128C70.3987 160.185 70.2449 160.266 70.0817 160.339C70.0027 160.374 69.9178 160.393 69.8289 160.402C69.5116 160.44 69.1889 160.479 68.8762 160.546C68.43 160.65 67.9944 160.799 67.5528 160.931C67.3041 161.005 67.0439 161.064 66.8624 161.303C66.8137 161.37 66.7428 161.262 66.6611 160.991C66.5278 160.532 66.3757 160.054 66.4 159.739C66.413 159.525 66.4421 159.355 66.5739 159.38C66.7663 159.419 66.8557 159.147 67.1032 159.368C67.1387 159.398 67.1671 159.375 67.1827 159.351C67.5423 158.88 68.0727 158.905 68.5558 158.818C68.7169 158.789 68.8559 158.701 69.009 158.65C69.1061 158.614 69.2092 158.595 69.3123 158.575C69.4626 158.55 69.6214 158.565 69.7617 158.513C69.8696 158.473 69.9643 158.364 70.1167 158.627C70.1494 158.682 70.2014 158.657 70.2118 158.586C70.2466 158.315 70.3435 158.328 70.4378 158.318C70.6938 158.297 70.9563 158.31 71.2063 158.273C71.3909 158.241 71.5749 158.192 71.7578 158.106C72.0411 157.976 72.3233 157.81 72.622 157.706C72.8702 157.614 73.1187 157.59 73.3721 157.545C73.43 157.536 73.4882 157.477 73.5461 157.468C73.6512 157.454 73.7693 157.392 73.8706 157.483C73.9812 157.583 74.0659 157.613 74.1767 157.382C74.2399 157.255 74.3313 157.27 74.4086 157.296C74.5061 157.328 74.5967 157.423 74.6851 157.513C74.7924 157.621 74.8909 157.737 75.0222 157.578C75.0939 157.491 75.1798 157.557 75.2475 157.624C75.5505 157.929 75.871 157.933 76.2051 157.907C76.6584 157.856 77.1259 157.794 77.5967 157.773C77.7839 157.765 77.9575 157.786 78.1351 157.819C78.6889 157.89 79.2131 158.113 79.7143 158.357C79.8124 158.407 79.9071 158.464 80.025 158.451C80.2951 158.418 80.5229 158.536 80.7228 158.695C80.9623 158.895 81.2706 158.916 81.5863 158.94C81.661 158.943 81.7459 158.924 81.8002 158.971C82.1799 159.285 82.7098 159.291 83.1099 159.56C83.4301 159.779 83.6934 160.093 83.9614 160.386C84.1637 160.618 84.3451 160.876 84.5244 161.128C84.5358 161.143 84.5647 161.138 84.5761 161.152C84.6704 161.307 84.5149 161.616 84.1597 161.999C83.8452 162.343 83.6102 162.503 83.5055 162.419C83.3861 162.329 83.2802 162.208 83.1695 162.108L83.1517 162.176Z" fill="#EBC464"/>
<path d="M77.5395 164.298C77.3869 164.084 77.2174 163.908 77.0764 163.66C76.9508 163.436 76.8252 163.213 76.5596 163.274C76.4909 163.287 76.4508 163.229 76.401 163.21C76.305 163.166 76.2054 163.129 76.1026 163.1C76.0548 163.087 75.9717 163.161 75.941 163.111C75.7952 162.882 75.6072 162.756 75.3408 162.848C75.2538 162.58 75.0386 162.678 74.8568 162.684C74.675 162.69 74.5191 162.6 74.3079 162.709C74.2506 162.736 74.1961 162.738 74.1619 162.696C73.9516 162.442 73.6655 162.431 73.3828 162.413C73.0799 162.391 72.8084 162.27 72.5543 162.015C72.4189 161.881 72.2541 161.85 72.0933 161.829C71.8995 161.803 71.7 161.828 71.5014 161.821C71.2207 161.809 70.9324 161.842 70.6417 161.968C70.4481 162.058 70.2613 162.133 70.0744 162.208C69.9293 162.281 69.9243 162.35 69.8789 162.41C69.8517 162.469 69.782 162.396 69.6953 162.361C69.5401 162.29 69.2618 162.184 69.0115 162.154C68.8251 162.131 68.7152 162.166 68.6638 162.209C68.6071 162.255 68.7285 162.351 68.7519 162.397C68.7599 162.419 68.7753 162.444 68.7887 162.463C68.8222 162.488 68.9506 162.52 69.0152 162.545L69.4327 162.679C69.5504 162.715 69.6533 162.745 69.7468 162.765C69.8127 162.778 69.9204 162.787 69.9696 162.787C69.9931 162.784 69.9931 162.784 69.9878 162.786C69.9534 162.793 69.9216 162.823 69.9316 162.85L70.4693 163.375C70.6744 163.581 70.8688 163.791 71.0563 164.016C71.2666 164.27 71.4411 164.543 71.767 164.71C71.8577 164.757 71.7717 164.856 71.5307 165C71.1129 165.247 70.6902 165.514 70.3829 165.578C70.1733 165.625 70.0049 165.651 69.986 165.517C69.9558 165.319 69.6743 165.338 69.7821 165.016C69.7971 164.973 69.7655 164.954 69.7325 164.948C69.4461 164.87 69.2467 164.729 69.0752 164.547C68.8982 164.367 68.7791 164.178 68.5163 163.932C68.3641 163.786 68.1404 163.679 67.9376 163.545C67.8128 163.456 67.6717 163.374 67.5543 163.288C67.3717 163.16 67.251 163.032 66.9923 162.913C66.8075 162.828 66.3778 162.711 66.9113 162.661C67.0238 162.65 66.9223 162.608 66.7177 162.586C65.9244 162.481 65.7975 162.386 65.6585 162.309C65.3509 162.141 65.1091 161.985 64.8183 161.829C64.8393 161.803 64.8475 161.775 64.8503 161.749C64.8311 161.664 64.6511 161.559 64.4455 161.451L64.1903 161.325L64.0627 161.262L64.0035 161.235C64.0069 161.227 64.0211 161.216 64.0245 161.209C64.0948 161.133 64.1779 161.06 64.2994 160.99C64.5087 160.876 64.845 160.807 65.1221 160.71C65.1868 160.686 65.1797 160.634 65.2518 160.613C65.3853 160.576 65.461 160.499 65.7483 160.546C66.0686 160.599 66.2032 160.599 66.0432 160.382C65.9556 160.261 66.128 160.246 66.2755 160.247C66.4647 160.244 66.7344 160.31 66.9839 160.371C67.2886 160.448 67.5406 160.533 67.5677 160.357C67.5863 160.259 67.7935 160.305 67.9663 160.357C68.7166 160.595 69.1328 160.576 69.6583 160.504L70.1858 160.437L70.5457 160.366C70.7916 160.318 71.0342 160.277 71.2808 160.247C71.4728 160.219 71.6645 160.24 71.8523 160.25C72.4467 160.282 73.0203 160.456 73.5749 160.662C73.6818 160.702 73.7926 160.753 73.9139 160.732C74.1996 160.676 74.447 160.781 74.6739 160.93C74.9512 161.115 75.277 161.117 75.6102 161.123C75.6904 161.124 75.7787 161.097 75.8364 161.137C76.2701 161.431 76.8243 161.404 77.275 161.66C77.6384 161.863 77.9467 162.166 78.2512 162.458C78.4878 162.683 78.7002 162.942 78.9139 163.188C78.9252 163.202 78.9597 163.196 78.973 163.215C79.0855 163.37 78.9575 163.687 78.6231 164.093C78.3273 164.454 78.1017 164.624 77.9809 164.546C77.8486 164.453 77.7285 164.344 77.5997 164.245L77.5395 164.298Z" fill="#EBC464"/>
</svg>
