<svg width="104" height="100" viewBox="0 0 104 100" fill="none" xmlns="http://www.w3.org/2000/svg">
<path d="M53.5652 8.78431C53.2988 1.79913 46.9648 1.79913 46.9648 1.79913L40.2934 1.37292C39.5001 1.32556 38.701 1.32556 37.9077 1.39068C29.1052 2.09511 22.4279 9.69593 21.7767 16.7344C21.5044 19.6705 22.3213 22.0443 22.8778 23.6604C23.4816 25.3948 25.6008 31.5512 32.0059 34.7478C33.1306 35.3102 35.9779 36.5652 39.6955 36.577H39.7014L47.391 36.9026L49.0663 34.5051L51.9787 31.0599C57.0815 28.183 55.0155 26.7386 55.2996 26.0874C57.6675 20.6709 53.8079 15.2012 53.5652 8.78431Z" fill="#DDAF3F"/>
<path d="M51.3631 4.74704C51.2092 4.4925 51.002 4.27939 50.8126 4.04853C50.5876 3.84726 50.3805 3.62231 50.1259 3.45064C49.6405 3.07179 49.0781 2.7758 48.4862 2.52718C47.9593 2.30815 47.4088 2.13648 46.8227 2.08913C46.2249 2.01217 45.6211 1.97665 44.9995 2.02401C44.6798 2.04769 44.3365 1.98849 44.005 1.96482C43.4012 1.9293 42.7974 1.88786 42.1936 1.86418C41.9154 1.85234 41.6194 1.93522 41.3708 1.88786C40.1217 1.63924 38.8845 1.50308 37.671 1.8405C37.1856 1.79315 36.7002 1.82274 36.2325 1.9293C35.7708 2.05953 35.315 2.22528 34.8591 2.36143C34.4093 2.53902 33.9534 2.70477 33.5035 2.87052C33.0596 3.05995 32.6334 3.29673 32.2427 3.56312C32.0296 3.69335 31.7928 3.86502 31.556 3.95381C30.0998 4.4925 28.8566 5.487 27.7556 6.57621C26.5716 7.7483 25.4588 8.97366 24.4051 10.2878C24.1268 10.6371 23.896 11.0337 23.6533 11.4303C23.4283 11.8328 23.2566 12.265 23.0672 12.6853C22.86 13.1884 22.712 13.7153 22.5581 14.2362L22.3924 15.0354C22.3332 15.3017 22.2799 15.5681 22.2503 15.8345C21.9898 17.3855 22.1142 18.9719 22.57 20.4459C22.8719 21.4404 23.2744 22.3816 23.7065 23.3643C24.1268 24.3351 24.5767 25.2526 25.0917 26.1465C25.6127 27.0463 26.0922 27.9875 26.6782 28.8577C27.2702 29.722 27.9332 30.533 28.6554 31.2907C29.3953 32.0306 30.2004 32.7173 31.0824 33.2856C32.4084 34.1499 33.8942 34.7773 35.4393 35.1562C36.8422 35.5055 38.2807 35.612 39.7014 35.5824L39.9145 35.5765L40.1513 35.689H40.1572L39.7429 35.5824H39.8612L43.6498 35.6534L45.5441 35.689L46.4912 35.7067H46.6096C46.6511 35.7067 46.6333 35.7067 46.6511 35.7067L46.6984 35.7008L46.7872 35.6949L46.8583 35.5646L47.2253 35.0082L48.0659 33.7473L50.191 31.1131L50.706 30.4619L50.8895 30.2311C50.9783 30.1363 51.0375 30.0002 51.1678 29.9469L51.5052 29.7338L51.665 29.6273C52.0971 29.349 52.5056 29.0531 52.8726 28.7512C53.2456 28.4552 53.5534 28.1473 53.7842 27.875C53.9678 27.6205 54.0329 27.4725 54.027 27.3837C54.0329 27.36 54.027 27.3186 54.021 27.2653C54.021 27.2476 54.0033 27.1943 53.9974 27.1588L53.9382 26.9279C53.8138 26.4958 53.7961 25.963 53.9914 25.5131L54.0684 25.3L54.1039 25.2053L54.1631 25.0514L54.2874 24.7436C54.3644 24.5364 54.3999 24.3173 54.4591 24.1042C54.5242 23.8911 54.5597 23.6721 54.5834 23.4472C54.6071 23.2222 54.6604 23.0032 54.6544 22.7723C54.8024 20.1973 53.8553 17.4328 53.139 14.5322C52.7305 12.8747 52.405 11.1639 52.1267 9.38212C52.0439 8.87895 52.1682 8.7132 52.4642 8.89079C52.9851 9.18677 53.4942 9.40579 53.873 10.1576C54.1394 10.6667 54.3466 11.1284 54.4058 11.7855C54.4768 12.7504 54.9445 13.6857 54.8971 14.6802C54.8912 14.8223 54.9563 15.0058 55.0155 15.1597C55.5424 16.4975 55.9745 17.8827 56.2409 19.333C56.5014 20.7774 56.5902 22.2928 56.3534 23.7846C56.3179 24.1753 56.1995 24.5541 56.1284 24.9448C56.0929 25.1402 56.0337 25.3296 55.9686 25.5131L55.7969 26.0281C55.7496 26.1465 55.72 26.2767 55.7673 26.4011C55.8088 26.5609 55.9449 26.9575 55.9449 27.3364C55.9508 27.7152 55.868 28.1177 55.6963 28.4374C55.4654 28.9169 55.128 29.2898 54.7787 29.6154C54.4295 29.9469 54.0625 30.2192 53.6954 30.5034C53.4113 30.6987 53.1508 30.9296 52.8608 31.0835C52.7187 31.1604 52.5707 31.2315 52.4168 31.2907C52.2925 31.3262 52.1682 31.3321 52.0439 31.3913C51.9314 31.4327 51.7064 31.7228 51.6828 31.859C51.5821 32.3976 51.2033 32.8002 50.8422 33.2146L49.4392 34.8188L48.7703 35.7422L48.0599 36.7427L47.616 37.3879L46.7221 37.3642L45.9999 37.3583L44.6443 37.3701C42.9809 37.4116 41.3175 37.4589 39.6541 37.5004L39.512 37.5063L39.2811 37.4057H39.2752L39.6896 37.5063L39.5475 37.5122C38.038 37.5714 36.5166 37.3761 35.0367 37.0327C34.6934 36.9558 34.3441 36.9084 34.0067 36.8078C33.3911 36.6183 32.7281 36.4348 32.2071 36.0974C31.627 35.7363 31.1949 35.4522 30.52 35.3575C30.1353 35.316 29.6795 34.9727 29.3006 34.7122C28.8211 34.363 28.4245 33.9131 28.0338 33.4987C27.8088 33.2323 27.6017 32.9718 27.3649 32.7351C27.134 32.4924 26.8913 32.2556 26.5657 32.0602C26.2105 31.853 25.9146 31.3854 25.6659 31.0125C24.6537 29.3135 23.6414 27.6679 22.7949 25.9038C22.5048 25.3118 22.2444 24.6962 22.0017 24.0924C21.7649 23.5004 21.5222 22.8848 21.3032 22.2514C20.871 20.9846 20.5573 19.629 20.4744 18.232C20.433 17.6874 20.4507 17.1309 20.4862 16.5863C20.5632 16.0417 20.6046 15.4912 20.7171 14.9584C21.0249 13.2772 21.682 11.7026 22.4989 10.2523C23.3158 8.79607 24.3281 7.45823 25.5002 6.29207C25.9382 5.80666 26.4592 5.40412 26.8854 4.92463C27.9272 3.87094 29.1526 2.99483 30.5082 2.38511C32.1184 1.6274 33.7403 0.875604 35.4807 0.425712C35.682 0.372435 35.8832 0.295479 36.0845 0.242202C36.2917 0.200765 36.4989 0.165247 36.7061 0.147488L37.7835 0.0468543C38.1446 0.0231758 38.5056 0.0113367 38.8667 0.00541706C39.5771 -0.0123418 40.3348 0.0172571 40.9682 0.0409357C42.2883 0.0882927 43.6143 0.12381 44.9285 0.236283L46.5268 0.390193L47.4088 0.478988C47.7344 0.520426 48.0422 0.579622 48.35 0.662497C49.5695 0.964398 50.7356 1.52676 51.7124 2.36143C52.1031 2.66925 52.4168 3.05403 52.7365 3.42105C53.0088 3.8295 53.2988 4.22612 53.4823 4.67009C53.9204 5.53435 54.098 6.45782 54.2282 7.3576C54.2519 7.47599 54.2756 7.59439 54.2815 7.71278C54.3052 8.74871 53.9796 9.0447 53.4054 8.6244C52.8904 8.25739 52.6003 7.7187 52.4109 6.99058C52.1919 6.18551 51.9196 5.38636 51.3986 4.74704H51.3631Z" fill="black"/>
<path d="M29.0751 16.7269C29.7262 9.68847 36.4036 2.08764 45.2061 1.3832C51.1257 0.909629 57.217 3.62083 60.8635 8.77684C64.5751 14.0216 64.9599 20.6635 62.5921 26.0859C62.2369 26.8969 58.8686 34.2728 50.7113 36.1552C45.2298 37.4339 40.7841 35.4863 39.3042 34.7463C32.8991 31.5497 30.7799 25.3933 30.1761 23.6529C29.6197 22.0428 28.8028 19.6631 29.0751 16.7269Z" fill="#EBC564"/>
<path d="M29.5556 11.7911C30.2127 10.5539 31.0296 9.40547 31.9649 8.41689C32.397 7.99068 32.8055 7.55262 33.2494 7.15601C33.4625 6.94882 33.6697 6.73571 33.871 6.51076C34.0841 6.29766 34.2913 6.07863 34.4866 5.84184C34.6938 5.59914 34.9543 5.38011 35.2207 5.18476C35.6943 4.81774 36.1441 4.42113 36.6532 4.09555C36.8782 3.93572 37.0617 3.69301 37.2926 3.58054C37.8668 3.32007 38.4469 3.08329 38.9974 2.79914C39.5775 2.56828 40.1103 2.24862 40.6786 1.97039C41.1818 1.92895 41.6376 1.76912 42.0993 1.62705C42.567 1.49682 43.0228 1.33107 43.4963 1.189C43.9758 1.08836 44.4731 1.01733 44.9644 0.940373C45.4557 0.869337 45.953 0.827901 46.4443 0.727267C46.7048 0.685829 47.0067 0.673989 47.2731 0.709507C48.8655 0.964052 50.4401 1.17716 51.9969 1.61521C53.6544 2.09471 55.2172 2.92346 56.5077 4.04227C57.2003 4.6224 57.9284 5.21436 58.6151 5.83C59.4083 6.5818 60.2193 7.3336 60.8764 8.22154C61.8531 9.48835 62.6878 10.8499 63.4218 12.2883C64.4223 14.2063 65.0024 16.3847 65.18 18.6046C65.2629 19.7412 65.0971 20.8955 64.8958 22.0143C64.4341 24.2401 63.6054 26.4126 62.3682 28.3069C61.4624 29.7336 60.4502 31.0832 59.2663 32.2968C58.1711 33.4274 56.9694 34.4989 55.5842 35.3217C53.5538 36.5767 51.2274 37.3403 48.8477 37.66C46.4562 37.95 44.0113 37.7488 41.6908 37.1094C40.578 36.7957 39.471 36.4346 38.4173 35.9077C37.8964 35.6414 37.3695 35.375 36.8959 35.0316C35.0786 33.8299 33.5158 32.2849 32.2372 30.5623C31.3196 29.331 30.5323 28.0109 29.8989 26.6257C29.5793 25.9391 29.2951 25.2287 29.0465 24.5183C28.8038 23.8257 28.5729 23.1391 28.3598 22.3991C27.8862 20.7298 27.6495 18.9479 27.5903 17.1484C27.5784 16.6393 27.7264 16.4913 27.9928 16.7044C28.4604 17.0596 28.9399 17.3378 29.2418 18.0955C29.449 18.6105 29.6325 19.0604 29.6444 19.6938C29.6681 20.6291 30.1239 21.5112 30.1179 22.4701C30.1179 22.6063 30.189 22.7839 30.2541 22.926C30.8461 24.1987 31.3729 25.4536 32.0004 26.6731C32.616 27.8925 33.3264 29.0705 34.1907 30.142C34.4807 30.4794 34.7708 30.8228 35.1023 31.1247L35.5877 31.5864L36.1027 32.0185C36.5289 32.4092 37.0084 32.7348 37.4642 33.09C37.8135 33.3209 38.1509 33.5754 38.5061 33.7944C38.8731 34.0016 39.2342 34.2206 39.6131 34.3982C40.1932 34.6646 40.7851 34.8067 41.2291 35.2743C41.3238 35.375 41.6494 35.4756 41.7796 35.4401C42.2947 35.3217 42.7801 35.4993 43.2891 35.6177C44.6566 35.9669 46.0714 36.1505 47.4803 36.109C48.5221 36.0735 49.564 35.9018 50.5585 35.6118C52.0976 35.1323 53.5183 34.4042 54.8206 33.5221C55.9157 32.7999 56.9517 31.9712 57.8455 31.0063C58.0646 30.7932 58.2185 30.5268 58.4198 30.3018C58.7986 29.8934 59.1064 29.3902 59.509 29.035C59.947 28.6384 60.2312 28.2596 60.32 27.6854C60.3673 27.3598 60.6278 26.9632 60.829 26.6376C61.0895 26.2173 61.3973 25.8384 61.6519 25.43C61.8058 25.1813 61.9715 24.9386 62.0899 24.6722C62.1965 24.3999 62.2734 24.1158 62.2912 23.7902C62.2912 23.435 62.4629 23.0029 62.6168 22.6418C63.262 21.0376 63.3686 19.238 63.1495 17.5213C62.8299 15.1831 62.013 12.9454 60.7758 10.9979L60.4206 10.4237L60.0358 9.86721C59.7931 9.48835 59.4912 9.14501 59.2189 8.78983C57.4312 6.641 55.1699 4.87694 52.583 3.74629C52.3344 3.62197 52.068 3.5391 51.8075 3.43847C51.547 3.33783 51.2807 3.26088 51.0084 3.21944C49.7652 2.98857 48.5576 2.74587 47.3086 2.59788C45.805 2.43213 44.2836 2.66891 42.8748 3.14248L42.3775 3.30231C42.2177 3.37335 42.0579 3.43847 41.8921 3.4799C39.5657 4.08371 37.553 5.51626 35.7771 7.09681C34.3209 8.36362 32.9831 9.81393 31.9412 11.4773C31.142 12.756 30.4731 14.1353 30.0706 15.6033C30.0469 15.6981 30.0588 15.8046 30.0351 15.9052C29.8397 16.734 29.4431 17.0063 28.9755 16.5209C28.5788 16.0947 28.3361 15.3843 28.5907 14.5378L28.7801 13.8334L29.0347 13.1526L29.2951 12.4778L29.6089 11.8266L29.5556 11.7911Z" fill="black"/>
<path d="M50.2551 10.477C49.9177 10.0922 49.5211 9.7785 49.1126 9.43516C48.7515 9.13325 48.3135 8.86687 47.8221 8.97342C47.6978 8.9971 47.5676 8.96158 47.4433 8.95566C47.2124 8.93198 46.9815 8.9675 46.7566 8.99118C46.65 8.9971 46.5612 9.12733 46.4606 9.10957C45.9693 9.00302 45.4602 9.13917 45.0932 9.48251C44.8801 9.45883 44.7025 9.54171 44.5427 9.64234C44.3947 9.76074 44.2644 9.91465 44.1283 10.0449C43.8678 10.3231 43.5422 10.5362 43.412 10.921C43.3824 11.0216 43.3232 11.1163 43.2344 11.1637C42.7016 11.4834 42.4175 12.0516 42.234 12.6022C42.0446 13.2001 41.8433 13.7447 41.7131 14.3662C41.6716 14.7214 41.719 15.1062 41.8551 15.4377C41.8907 15.5383 41.9262 15.639 41.9676 15.7396L42.1334 16.0119C42.234 16.2013 42.3701 16.3612 42.5004 16.521C42.8792 16.9886 43.3942 17.3261 43.9862 17.4681C44.7794 17.6576 45.6082 17.7464 46.4784 17.9062C46.9223 17.9891 47.3486 18.1962 47.7925 18.4094C48.2306 18.6106 48.6746 18.8533 49.1008 19.1434C49.3316 19.2855 49.4855 19.4098 49.675 19.54L50.2373 19.9189C50.8115 20.2977 51.439 20.6411 52.0547 21.1265C52.6289 21.5586 53.2327 22.1743 53.5405 22.9497C53.7773 23.518 53.8779 24.1041 53.9016 24.6605C53.9253 24.9447 53.9134 25.211 53.9016 25.4774C53.9016 25.726 53.8424 26.0753 53.7891 26.3713C53.5109 27.6203 52.6348 28.7214 51.6285 29.3489C51.149 29.6626 50.6517 29.9468 50.1308 30.1362C49.8703 30.225 49.598 30.3019 49.3257 30.3434C48.8226 30.4263 48.3135 30.4559 47.7925 30.4322C47.2894 30.4026 46.8572 30.3552 46.3896 30.2901C45.0813 30.1125 43.7968 29.7929 42.5773 29.2778C41.8729 28.97 41.2573 28.6504 40.4403 28.2893C40.3279 28.2419 40.2272 28.1294 40.2332 28.0584C40.2332 27.9755 40.3042 27.9045 40.4403 27.8275C40.908 27.573 41.2691 27.2 41.6953 27.1172C41.9854 27.058 42.2222 27.0106 42.4175 27.1941C42.7135 27.4664 43.1752 27.4072 43.412 27.8216C43.4475 27.8808 43.5245 27.8926 43.5896 27.8986C44.7676 27.9755 45.8035 28.3899 46.946 28.5438C47.313 28.5852 47.6978 28.5616 48.0412 28.5379C48.272 28.5201 48.497 28.4964 48.7278 28.4728C49.0593 28.4254 49.4027 28.4076 49.7105 28.2715C49.9532 28.1768 50.1249 28.0051 50.4564 28.1649C50.5274 28.2005 50.6458 28.1235 50.6517 28.0406C50.6754 27.7091 50.8589 27.6499 51.0187 27.5256C51.4568 27.2237 51.8416 26.8449 52.0547 26.3654C52.2027 25.9984 52.2559 25.6373 52.2086 25.2051C52.1612 24.554 51.954 23.9561 51.6877 23.5299C51.4686 23.1688 51.2141 22.8669 50.8234 22.5945C50.7287 22.5354 50.6162 22.5058 50.5215 22.4466C50.3498 22.3282 50.1249 22.2571 49.9946 22.0618C49.8466 21.8428 49.6987 21.7244 49.3731 21.8132C49.1896 21.8605 49.0238 21.748 48.8817 21.6356C48.7042 21.4994 48.5621 21.3041 48.4141 21.1146C48.2306 20.8719 48.124 20.7003 47.8221 20.7358C47.6623 20.7654 47.5143 20.6411 47.4018 20.5167C46.875 19.984 46.141 19.7827 45.3832 19.617C44.3591 19.3861 43.1989 19.1552 42.0801 18.3975C41.6479 18.1015 41.275 17.6931 40.9613 17.2491C40.4936 16.5565 40.1976 15.7573 40.1029 15.0115C40.0792 14.8102 40.0378 14.6563 40.0319 14.4254C40.026 14.2005 40.0141 13.9637 40.0496 13.7506C40.0911 13.3184 40.1917 12.91 40.3338 12.543C40.4344 12.2411 40.5824 11.9747 40.6535 11.6787C40.8429 11.0039 41.2573 10.4356 41.7545 9.97976C42.3524 9.43516 42.8852 8.84911 43.5363 8.32818C43.6784 8.19795 43.8323 8.06179 44.0099 7.99076C45.2352 7.49351 46.5613 7.0081 47.9524 7.17977C49.0653 7.34552 50.0538 7.87237 50.8648 8.49393C51.4923 8.98526 52.0073 9.55947 52.4454 10.181C52.475 10.2225 52.5282 10.2461 52.5519 10.2876C52.7946 10.6724 52.5874 11.0039 52.0488 11.1755C51.5811 11.3531 51.2378 11.3768 51.0247 11.1578C50.7879 10.9151 50.5511 10.6605 50.2847 10.4415L50.2551 10.477Z" fill="black"/>
<path d="M47.8153 4.03055C47.6969 4.08974 47.6141 4.14894 47.4483 4.20221C47.3003 4.25549 47.1464 4.30284 47.3122 4.35612C47.3536 4.36796 47.3181 4.38572 47.3181 4.39756C47.3181 4.42124 47.3181 4.45083 47.3358 4.47451C47.3418 4.48635 47.4424 4.49819 47.4069 4.51003C47.2411 4.56331 47.1938 4.61658 47.3773 4.66986C47.1523 4.71129 47.3122 4.75273 47.3832 4.79417C47.4542 4.8356 47.4069 4.87704 47.5785 4.91848C47.6259 4.93032 47.6437 4.94216 47.6081 4.954C47.4187 5.01911 47.4898 5.09015 47.5371 5.15526C47.5904 5.2263 47.5312 5.30325 47.3181 5.37428C47.2056 5.41572 47.2115 5.45124 47.2115 5.49268C47.2115 5.54003 47.2766 5.58739 47.2944 5.63474C47.3181 5.70578 47.3832 5.77089 47.543 5.84193C47.7561 5.93072 47.9278 6.02544 48.0462 6.11423C48.1054 6.16159 48.0344 6.20894 47.9988 6.2563C47.9278 6.35101 47.8153 6.44572 47.768 6.54044C47.7325 6.61147 47.7561 6.68251 47.7917 6.75354C47.8213 6.81866 47.916 6.88377 47.9574 6.94889C48.0699 7.14423 48.1705 7.33958 48.283 7.53492C48.3126 7.58228 48.3718 7.62964 48.4073 7.67699C48.4251 7.70067 48.4251 7.72435 48.4191 7.74803C48.3955 7.83682 48.3481 7.91969 48.3363 8.00849C48.3185 8.1328 48.3303 8.25711 48.3126 8.38142C48.3007 8.45245 48.2652 8.52349 48.4251 8.59452C48.4724 8.61228 48.3363 8.6182 48.0521 8.61228C47.5608 8.60044 47.0458 8.5886 46.7498 8.55309C46.5485 8.52941 46.4005 8.50573 46.4716 8.48205C46.5781 8.44061 46.3473 8.39918 46.6432 8.35774C46.6847 8.35182 46.6728 8.3459 46.6551 8.33406C46.3177 8.20975 46.4953 8.09136 46.5367 7.96705C46.5485 7.92561 46.4953 7.88418 46.4834 7.84866C46.4716 7.82498 46.4716 7.79538 46.4775 7.77171C46.4893 7.73619 46.5367 7.69475 46.513 7.65923C46.4953 7.62964 46.4005 7.60596 46.6906 7.57636C46.7498 7.57044 46.738 7.5586 46.6669 7.55268C46.3946 7.53492 46.4242 7.51125 46.4361 7.48757C46.4597 7.42245 46.5012 7.36326 46.5012 7.29814C46.5012 7.25078 46.4538 7.20343 46.3887 7.15607C46.2881 7.08504 46.1342 7.014 46.0394 6.93705C45.9625 6.87785 45.9447 6.81274 45.8974 6.75354C45.8855 6.7417 45.8263 6.72394 45.8204 6.7121C45.8086 6.68843 45.7435 6.65883 45.8382 6.63515C45.9447 6.60555 45.9625 6.58779 45.7257 6.56412C45.5896 6.55228 45.6073 6.5286 45.631 6.51084C45.6606 6.48716 45.7553 6.46348 45.8441 6.43981C45.9506 6.41021 46.069 6.38653 45.8855 6.35693C45.7908 6.33917 45.8441 6.32141 45.9092 6.30366C46.1993 6.2267 46.1697 6.14383 46.0927 6.06687C45.9862 5.96032 45.8323 5.84785 45.7139 5.7413C45.6665 5.69986 45.6606 5.65842 45.6428 5.61107C45.5836 5.48084 45.6547 5.34469 45.7375 5.21446C45.7553 5.19078 45.779 5.16118 45.7257 5.1375C45.6014 5.07831 45.631 5.01911 45.7198 4.95992C45.8204 4.88888 45.7198 4.81785 45.6132 4.74681C45.5896 4.72905 45.5304 4.71129 45.5481 4.69945C45.6843 4.58698 45.4416 4.47451 45.4948 4.36204C45.5363 4.27325 45.6783 4.17853 45.7967 4.08974C45.8915 4.01871 46.0158 3.94767 46.1223 3.87664C46.1282 3.87072 46.1046 3.8648 46.1164 3.8648C46.1934 3.82336 46.5426 3.81152 47.0754 3.82928C47.5489 3.84704 47.8213 3.87072 47.8153 3.90623C47.8035 3.94767 47.7621 3.98911 47.7384 4.02463C47.7621 4.03055 47.7857 4.03055 47.8153 4.03055Z" fill="black"/>
<path d="M47.8153 29.1417C47.6969 29.195 47.6141 29.2423 47.4483 29.2956C47.3003 29.3429 47.1464 29.3844 47.3122 29.4317C47.3536 29.4436 47.3181 29.4554 47.3181 29.4673C47.3181 29.4909 47.3181 29.5146 47.3358 29.5324C47.3418 29.5442 47.4424 29.5561 47.4069 29.562C47.2411 29.6093 47.1938 29.6567 47.3773 29.704C47.1523 29.7396 47.3122 29.7751 47.3832 29.8165C47.4542 29.852 47.4069 29.8935 47.5785 29.929C47.6259 29.9408 47.6437 29.9527 47.6081 29.9586C47.4187 30.0178 47.4898 30.077 47.5371 30.1362C47.5904 30.2013 47.5312 30.2664 47.3181 30.3256C47.2056 30.3611 47.2115 30.3966 47.2115 30.4322C47.2115 30.4736 47.2766 30.515 47.2944 30.5565C47.3181 30.6157 47.3832 30.6749 47.543 30.7341C47.7561 30.811 47.9278 30.8939 48.0462 30.9768C48.1054 31.0182 48.0344 31.0596 47.9988 31.1011C47.9278 31.184 47.8153 31.2668 47.768 31.3497C47.7325 31.4089 47.7561 31.474 47.7917 31.5391C47.8213 31.5983 47.916 31.6575 47.9574 31.7108C48.0699 31.8825 48.1705 32.0541 48.283 32.2258C48.3126 32.2672 48.3718 32.3087 48.4073 32.3501C48.4251 32.3679 48.4251 32.3916 48.4191 32.4093C48.3955 32.4863 48.3481 32.5632 48.3363 32.6402C48.3185 32.7527 48.3303 32.8592 48.3126 32.9717C48.3007 33.0368 48.2652 33.096 48.4251 33.1552C48.4724 33.173 48.3363 33.1789 48.0521 33.173C47.5608 33.1611 47.0458 33.1552 46.7498 33.1256C46.5485 33.1078 46.4005 33.0842 46.4716 33.0605C46.5781 33.025 46.3473 32.9835 46.6432 32.948C46.6847 32.9421 46.6728 32.9362 46.6551 32.9302C46.3177 32.8237 46.4953 32.7171 46.5367 32.6106C46.5485 32.5751 46.4953 32.5396 46.4834 32.504C46.4716 32.4804 46.4716 32.4567 46.4775 32.433C46.4893 32.3975 46.5367 32.3679 46.513 32.3324C46.4953 32.3087 46.4005 32.285 46.6906 32.2613C46.7498 32.2554 46.738 32.2436 46.6669 32.2377C46.3946 32.2199 46.4242 32.2021 46.4361 32.1785C46.4597 32.1252 46.5012 32.066 46.5012 32.0127C46.5012 31.9713 46.4538 31.9298 46.3887 31.8884C46.2881 31.8233 46.1342 31.7641 46.0394 31.699C45.9625 31.6457 45.9447 31.5924 45.8974 31.5391C45.8855 31.5273 45.8263 31.5155 45.8204 31.5036C45.8086 31.4799 45.7435 31.4563 45.8382 31.4385C45.9447 31.4148 45.9625 31.3971 45.7257 31.3734C45.5896 31.3615 45.6073 31.3438 45.631 31.326C45.6606 31.3083 45.7553 31.2846 45.8441 31.2668C45.9506 31.2432 46.069 31.2195 45.8855 31.1958C45.7908 31.184 45.8441 31.1603 45.9092 31.1484C46.1993 31.0774 46.1697 31.0064 46.0927 30.9413C45.9862 30.8465 45.8323 30.7518 45.7139 30.6571C45.6665 30.6216 45.6606 30.5802 45.6428 30.5446C45.5836 30.4262 45.6547 30.3138 45.7375 30.1954C45.7553 30.1717 45.779 30.148 45.7257 30.1243C45.6073 30.0651 45.6369 30.0119 45.7198 29.9645C45.8204 29.8994 45.7198 29.8402 45.6132 29.781C45.5896 29.7692 45.5304 29.7514 45.5481 29.7396C45.6843 29.6389 45.4416 29.5383 45.4948 29.4436C45.5363 29.3607 45.6783 29.2838 45.7967 29.2009C45.8915 29.1417 46.0158 29.0766 46.1223 29.0174C46.1282 29.0114 46.1046 29.0115 46.1164 29.0055C46.1934 28.97 46.5426 28.9582 47.0754 28.9759C47.5489 28.9878 47.8213 29.0115 47.8153 29.047C47.8035 29.0825 47.7621 29.118 47.7384 29.1535C47.7621 29.1417 47.7857 29.1417 47.8153 29.1417Z" fill="black"/>
<path d="M22.0443 16.4266C22.1331 16.545 22.2219 16.6279 22.3107 16.7936C22.3877 16.9416 22.4646 17.0955 22.5475 16.9298C22.5652 16.8883 22.5889 16.9238 22.6126 16.9238C22.654 16.9238 22.6896 16.9238 22.731 16.9061C22.7488 16.9002 22.7665 16.7995 22.7843 16.835C22.8671 17.0008 22.9441 17.0482 23.027 16.8646C23.0921 17.0896 23.1513 16.9298 23.2164 16.8587C23.2815 16.7877 23.3466 16.835 23.4058 16.6634C23.4236 16.616 23.4414 16.5983 23.4591 16.6338C23.5597 16.8232 23.6663 16.7522 23.7669 16.7048C23.8794 16.6515 23.986 16.7107 24.0984 16.9238C24.1576 17.0363 24.2168 17.0304 24.276 17.0304C24.3471 17.0304 24.4181 16.9653 24.4891 16.9475C24.5957 16.9238 24.6963 16.8587 24.797 16.6989C24.9331 16.4858 25.0752 16.3141 25.2113 16.1957C25.2824 16.1365 25.3534 16.2076 25.4244 16.2431C25.5665 16.3141 25.7086 16.4266 25.8507 16.4739C25.9572 16.5095 26.0638 16.4858 26.1762 16.4503C26.2769 16.4207 26.3775 16.326 26.4781 16.2845C26.7741 16.172 27.076 16.0714 27.372 15.9589C27.443 15.9293 27.5141 15.8701 27.5851 15.8346C27.6206 15.8169 27.6561 15.8169 27.6917 15.8228C27.8219 15.8465 27.958 15.8938 28.0883 15.9057C28.2777 15.9234 28.4671 15.9116 28.6566 15.9293C28.7631 15.9412 28.8697 15.9767 28.9762 15.8169C29.0058 15.7695 29.0177 15.9057 29.0058 16.1898C28.9881 16.6811 28.9703 17.1961 28.917 17.4921C28.8815 17.6934 28.8519 17.8414 28.8046 17.7704C28.7394 17.6638 28.6743 17.8947 28.6151 17.5987C28.6033 17.5572 28.5914 17.5691 28.5855 17.5868C28.402 17.9243 28.2126 17.7467 28.0291 17.7052C27.9699 17.6934 27.9048 17.7467 27.8456 17.7585C27.8041 17.7704 27.7686 17.7704 27.7272 17.7644C27.668 17.7526 27.6147 17.7052 27.5555 17.7289C27.5141 17.7467 27.4726 17.8414 27.4312 17.5513C27.4253 17.4921 27.4016 17.504 27.3898 17.575C27.3602 17.8473 27.3246 17.8177 27.2891 17.8059C27.1944 17.7822 27.0938 17.7408 26.9991 17.7408C26.928 17.7408 26.857 17.7881 26.786 17.8532C26.6735 17.9539 26.5669 18.1078 26.4545 18.2025C26.3597 18.2794 26.2709 18.2972 26.1762 18.3446C26.1526 18.3564 26.1348 18.4156 26.1111 18.4215C26.0697 18.4334 26.0282 18.4985 25.9927 18.4038C25.9513 18.2972 25.9217 18.2794 25.8802 18.5162C25.8566 18.6524 25.827 18.6346 25.7974 18.6109C25.7619 18.5814 25.7263 18.4866 25.6908 18.3978C25.6494 18.2913 25.6079 18.1729 25.5665 18.3564C25.5428 18.4511 25.5073 18.3978 25.4836 18.3327C25.3652 18.0427 25.2409 18.0723 25.1225 18.1492C24.9568 18.2558 24.791 18.4097 24.6312 18.5281C24.5661 18.5754 24.501 18.5814 24.4359 18.5991C24.2346 18.6583 24.0333 18.5873 23.8321 18.5044C23.7906 18.4866 23.7551 18.463 23.7137 18.5162C23.6249 18.6405 23.5361 18.6109 23.4473 18.5222C23.3407 18.4215 23.2342 18.5222 23.1276 18.6287C23.1039 18.6524 23.0803 18.7116 23.0507 18.6938C22.879 18.5577 22.7073 18.8004 22.5356 18.7471C22.3936 18.7057 22.2574 18.5636 22.1213 18.4452C22.0147 18.3505 21.9082 18.2262 21.8016 18.1196C21.7957 18.1137 21.7898 18.1374 21.7779 18.1255C21.7187 18.0486 21.6951 17.6993 21.7247 17.1665C21.7483 16.693 21.7898 16.4207 21.843 16.4266C21.9022 16.4384 21.9674 16.4799 22.0266 16.5035C22.0384 16.4799 22.0443 16.4562 22.0443 16.4266Z" fill="black"/>
<path d="M23.2264 22.8968C23.3152 23.0152 23.404 23.0981 23.4928 23.2638C23.5697 23.4118 23.6467 23.5657 23.7296 23.4C23.7473 23.3585 23.771 23.3941 23.7947 23.3941C23.8361 23.3941 23.8716 23.3941 23.9131 23.3763C23.9308 23.3704 23.9486 23.2697 23.9663 23.3053C24.0492 23.471 24.1262 23.5184 24.209 23.3349C24.2742 23.5598 24.3334 23.4 24.3985 23.3289C24.4636 23.2579 24.5287 23.3053 24.5879 23.1336C24.6057 23.0862 24.6234 23.0685 24.6412 23.104C24.7418 23.2934 24.8484 23.2224 24.949 23.175C25.0615 23.1218 25.168 23.1809 25.2805 23.3941C25.3397 23.5065 25.3989 23.5006 25.4581 23.5006C25.5291 23.5006 25.6002 23.4355 25.6712 23.4177C25.7778 23.3941 25.8784 23.3289 25.979 23.1691C26.1152 22.956 26.2572 22.7843 26.3934 22.6659C26.4644 22.6067 26.5355 22.6778 26.6065 22.7133C26.7486 22.7843 26.8906 22.8968 27.0386 22.9442C27.1452 22.9797 27.2517 22.956 27.3642 22.9205C27.4649 22.8909 27.5655 22.7962 27.6661 22.7547C27.9621 22.6423 28.264 22.5416 28.56 22.4291C28.631 22.3995 28.7021 22.3404 28.7731 22.3048C28.8086 22.2871 28.8441 22.2871 28.8797 22.293C29.0099 22.3167 29.146 22.364 29.2763 22.3759C29.4657 22.3936 29.6551 22.3818 29.8446 22.3995C29.9511 22.4114 30.0577 22.4469 30.1642 22.2871C30.1938 22.2397 30.2057 22.3759 30.1938 22.66C30.1761 23.1513 30.1583 23.6664 30.105 23.9623C30.0695 24.1636 30.0399 24.3116 29.9925 24.2406C29.9274 24.134 29.8623 24.3649 29.8031 24.0689C29.7972 24.0275 29.7794 24.0393 29.7735 24.0571C29.59 24.3945 29.4006 24.2169 29.2171 24.1755C29.1579 24.1636 29.0928 24.2169 29.0336 24.2287C28.9921 24.2406 28.9566 24.2406 28.9152 24.2347C28.856 24.2228 28.8027 24.1755 28.7435 24.1991C28.7021 24.2169 28.6606 24.3116 28.6192 24.0215C28.6133 23.9623 28.5896 23.9742 28.5777 24.0452C28.5481 24.3175 28.5126 24.2879 28.4771 24.2761C28.3824 24.2524 28.2818 24.211 28.1871 24.211C28.116 24.211 28.045 24.2583 27.9739 24.3234C27.8615 24.4241 27.7549 24.578 27.6424 24.6727C27.5477 24.7497 27.4589 24.7674 27.3642 24.8148C27.3405 24.8266 27.3228 24.8858 27.2991 24.8917C27.2577 24.9036 27.2162 24.9687 27.1807 24.874C27.1393 24.7674 27.1097 24.7497 27.0682 24.9864C27.0446 25.1226 27.015 25.1048 26.9854 25.0812C26.9498 25.0516 26.9143 24.9569 26.8788 24.8681C26.8374 24.7615 26.7959 24.6431 26.7545 24.8266C26.7308 24.9213 26.6953 24.8681 26.6716 24.8029C26.5532 24.5129 26.4289 24.5425 26.3105 24.6194C26.1448 24.726 25.979 24.8799 25.8192 24.9983C25.7541 25.0456 25.689 25.0516 25.6238 25.0693C25.4226 25.1285 25.2213 25.0575 25.02 24.9746C24.9786 24.9569 24.9431 24.9332 24.9016 24.9864C24.8129 25.1108 24.7241 25.0812 24.6353 24.9924C24.5287 24.8917 24.4222 24.9924 24.3156 25.0989C24.2919 25.1226 24.2682 25.1818 24.2386 25.164C24.067 25.0279 23.8953 25.2706 23.7236 25.2173C23.5875 25.1759 23.4454 25.0338 23.3093 24.9154C23.2027 24.8207 23.0962 24.6964 22.9896 24.5898C22.9837 24.5839 22.9778 24.6076 22.9659 24.5957C22.9067 24.5188 22.883 24.1695 22.9126 23.6368C22.9363 23.1632 22.9778 22.8909 23.031 22.8968C23.0902 22.9086 23.1553 22.9501 23.2145 22.9738C23.2264 22.9442 23.2264 22.9205 23.2264 22.8968Z" fill="black"/>
<path d="M28.3184 30.9119C28.4072 31.0303 28.4901 31.1132 28.5789 31.279C28.6558 31.427 28.7269 31.5809 28.8097 31.4151C28.8275 31.3737 28.8512 31.4092 28.8749 31.4092C28.9104 31.4092 28.9518 31.4092 28.9873 31.3914C29.0051 31.3855 29.0228 31.2849 29.0406 31.3204C29.1176 31.4861 29.2004 31.5335 29.2774 31.35C29.3366 31.5749 29.4017 31.4151 29.4609 31.3441C29.5201 31.273 29.5852 31.3204 29.6444 31.1487C29.6622 31.1014 29.6799 31.0836 29.6977 31.1191C29.7983 31.3086 29.8989 31.2375 29.9996 31.1902C30.1061 31.1369 30.2127 31.1961 30.3252 31.4092C30.3844 31.5217 30.4436 31.5157 30.5028 31.5157C30.5738 31.5157 30.6448 31.4506 30.7099 31.4329C30.8106 31.4092 30.9112 31.3441 31.0118 31.1842C31.148 30.9711 31.2841 30.7995 31.4144 30.6811C31.4854 30.6219 31.5505 30.6929 31.6216 30.7284C31.7577 30.7995 31.8998 30.9119 32.0419 30.9593C32.1484 30.9948 32.249 30.9711 32.3556 30.9356C32.4562 30.906 32.5509 30.8113 32.6457 30.7699C32.9357 30.6574 33.2258 30.5568 33.5158 30.4443C33.5869 30.4147 33.652 30.3555 33.723 30.32C33.7586 30.3022 33.7941 30.3022 33.8296 30.3081C33.9598 30.3318 34.09 30.3792 34.2144 30.391C34.3979 30.4088 34.5814 30.3969 34.7708 30.4147C34.8774 30.4265 34.978 30.462 35.0845 30.3022C35.1141 30.2549 35.1201 30.391 35.1141 30.6752C35.0964 31.1665 35.0786 31.6815 35.0313 31.9775C34.9958 32.1788 34.9662 32.3267 34.9247 32.2557C34.8655 32.1492 34.8004 32.38 34.7412 32.084C34.7353 32.0426 34.7175 32.0544 34.7116 32.0722C34.534 32.4096 34.3505 32.232 34.167 32.1906C34.1078 32.1788 34.0486 32.232 33.9894 32.2439C33.9539 32.2557 33.9125 32.2557 33.8769 32.2498C33.8237 32.2379 33.7645 32.1906 33.7112 32.2143C33.6698 32.232 33.6283 32.3267 33.5928 32.0367C33.5869 31.9775 33.5632 31.9893 33.5573 32.0604C33.5277 32.3327 33.4922 32.3031 33.4566 32.2912C33.3619 32.2675 33.2672 32.2261 33.1725 32.2261C33.1015 32.2261 33.0364 32.2735 32.9653 32.3386C32.8588 32.4392 32.7522 32.5931 32.6457 32.6878C32.5569 32.7648 32.4681 32.7826 32.3734 32.8299C32.3497 32.8418 32.3319 32.901 32.3142 32.9069C32.2786 32.9187 32.2372 32.9838 32.2017 32.8891C32.1603 32.7826 32.1307 32.7648 32.0951 33.0016C32.0715 33.1377 32.0419 33.12 32.0123 33.0963C31.9767 33.0667 31.9412 32.972 31.9116 32.8832C31.8702 32.7766 31.8347 32.6582 31.7873 32.8418C31.7636 32.9365 31.734 32.8832 31.7044 32.8181C31.586 32.528 31.4677 32.5576 31.3493 32.6346C31.1894 32.7411 31.0296 32.895 30.8698 33.0134C30.8047 33.0608 30.7455 33.0667 30.6803 33.0845C30.485 33.1437 30.2896 33.0726 30.0943 32.9897C30.0588 32.972 30.0173 32.9483 29.9818 33.0016C29.893 33.1259 29.8102 33.0963 29.7214 33.0075C29.6148 32.9069 29.5142 33.0075 29.4076 33.1141C29.3839 33.1377 29.3603 33.1969 29.3366 33.1792C29.1708 33.043 28.9992 33.2857 28.8334 33.2325C28.6973 33.191 28.5611 33.0489 28.425 32.9305C28.3184 32.8358 28.2178 32.7115 28.1112 32.605C28.1053 32.599 28.0994 32.6227 28.0875 32.6109C28.0283 32.5339 28.0106 32.1847 28.0402 31.6519C28.0639 31.1783 28.1053 30.906 28.1586 30.9119C28.2178 30.9238 28.277 30.9652 28.3362 30.9889C28.3125 30.9593 28.3125 30.9356 28.3184 30.9119Z" fill="black"/>
<path d="M91.0356 62.9252C89.751 61.0309 88.3303 59.3911 86.8859 57.9408C83.0737 54.1286 78.0064 51.8258 72.6432 51.2516C53.7478 49.2271 42.4886 49.7125 41.3224 54.2174C40.251 58.367 55.1625 58.2427 54.3397 61.3565C53.4399 64.7662 39.9727 63.1738 26.0971 60.4389C19.0409 59.0478 16.7204 55.6085 14.3052 58.2131C13.7547 58.8051 13.3876 60.9362 15.6371 63.2922C11.4223 61.1848 9.10182 60.8119 7.98892 62.1142C7.08914 63.162 7.07138 65.7548 9.60499 68.4778C7.61007 66.992 2.21135 65.0207 1.48916 68.5192C1.01559 70.8279 5.23037 74.6342 5.94665 75.2084C11.1855 79.4232 17.6439 82.1699 40.766 83.194C45.3004 83.3953 53.949 81.8029 59.4306 83.567C61.2539 84.6503 64.1308 86.6629 66.6703 90.0667C69.5946 93.9737 70.6838 97.8333 71.1278 99.9999L74.9874 98.0701C77.2842 96.9217 79.8356 96.3889 82.3929 96.5251C84.5358 96.6375 86.6432 95.9864 88.3481 94.684C90.9468 92.701 92.9713 91.9788 95.937 93.358L97.4051 93.7014C97.7307 93.8494 99.0981 93.9441 100.104 93.4409L102.987 92.7838C102.289 86.4972 97.8728 72.9767 91.0356 62.9252Z" fill="#F1D1D6"/>
<path d="M102.989 92.7778C102.285 86.4971 97.8744 72.9766 91.0313 62.9251C89.7882 61.1018 88.4326 59.5094 87.0355 58.1006C83.2055 54.2291 78.1206 51.8435 72.7041 51.2634C53.7672 49.2329 42.4843 49.7124 41.3181 54.2232C40.2467 58.3729 55.1583 58.2486 54.3354 61.3623C53.4357 64.772 39.9685 63.1796 26.0928 60.4448C19.0366 59.0536 16.7161 55.6143 14.3009 58.219C13.1762 59.4325 12.8151 67.0392 33.9186 69.9103" fill="#F1D1D6"/>
<path d="M100.591 85.7751C100.13 83.7802 99.5613 81.7912 99.0049 79.8258C98.5076 78.0736 97.9808 76.351 97.0751 74.7231C96.8383 74.3028 96.6607 73.8115 96.4535 73.3557C96.0628 72.5329 95.6721 71.71 95.2518 70.905C95.0565 70.5379 94.7664 70.2005 94.6184 69.8453C93.8962 68.0872 92.9846 66.4297 91.8362 64.9143C91.5284 64.2394 91.1436 63.612 90.7233 63.0141C90.2912 62.4221 89.8117 61.8716 89.3263 61.3151C88.3614 60.2082 87.3846 59.0479 86.2244 58.1718C85.9225 57.935 85.5851 57.6627 85.3187 57.3845C83.6671 55.7093 81.5952 54.4839 79.4049 53.6019C77.0489 52.6488 74.616 52.0036 72.0883 51.5596C70.7386 51.3051 69.306 51.1689 67.9031 51.0446C66.2337 50.8966 64.5585 50.8256 62.8832 50.7368C60.4562 50.6125 58.041 50.5592 55.6376 50.7131C54.0334 50.8137 52.4291 50.944 50.8427 51.1393C49.2621 51.3346 47.6875 51.601 46.2194 52.0213C45.4736 52.2404 44.7454 52.4771 44.0943 52.785C43.4372 53.0869 42.9044 53.4835 42.5789 53.9452C42.5137 54.0636 42.4309 54.1761 42.3894 54.3122L42.3184 54.5017C42.3184 54.5431 42.3065 54.5845 42.2947 54.62C42.2829 54.7562 42.3066 54.8687 42.4545 55.0699C42.7564 55.4666 43.4668 55.8572 44.1594 56.1591C45.5979 56.7748 47.2139 57.1951 48.83 57.6213C49.9606 57.9173 51.1031 58.2014 52.2634 58.5862C52.5535 58.6868 52.8435 58.7934 53.1395 58.9177C53.2875 58.971 53.4355 59.0538 53.5835 59.1249C53.7255 59.1841 53.9446 59.3321 54.1222 59.4445C54.3234 59.5511 54.4655 59.7228 54.6372 59.8648C54.72 59.9359 54.7674 60.0365 54.8384 60.1194C54.9035 60.2023 54.9687 60.2911 55.0042 60.3917C55.0456 60.4923 55.0989 60.5811 55.1285 60.6877L55.1877 61.0014C55.1995 61.108 55.1758 61.2145 55.1699 61.3211C55.1699 61.3743 55.1522 61.4276 55.1581 61.4809L55.1226 61.6348C55.0338 61.9012 54.8917 62.138 54.7496 62.3748C54.4714 62.7181 54.1103 63.02 53.7196 63.2331C53.3763 63.4225 53.0744 63.535 52.7488 63.6475C52.1154 63.8606 51.4998 63.9671 50.8782 64.0678C49.6469 64.2454 48.4393 64.3046 47.2317 64.3046C43.6681 64.2868 40.1696 63.9198 36.6888 63.4758C33.2081 63.0259 29.751 62.4636 26.3058 61.8479C24.6187 61.5519 22.8605 61.1435 21.2208 60.5515C20.4039 60.2615 19.5929 59.9181 18.8352 59.5866C18.1367 59.2847 17.4381 58.971 16.8699 58.8111L16.4792 58.7224C16.3785 58.7283 16.2601 58.6987 16.1773 58.7046C16.1062 58.7283 16.0115 58.6987 15.9523 58.746C15.9168 58.7579 15.8813 58.7697 15.8458 58.7756C15.8102 58.7875 15.7688 58.8289 15.7333 58.8467C15.6918 58.8703 15.6563 58.894 15.609 58.9118L15.4787 59.0361C15.4314 59.0834 15.3899 59.119 15.3663 59.1308C15.3603 59.1367 15.3722 59.1486 15.3603 59.1426C15.3426 59.1308 15.3426 59.2137 15.3071 59.2729C15.3071 59.3735 15.2775 59.4682 15.2715 59.5748C15.236 60.0306 15.4491 60.5811 15.6978 61.102C16.5739 62.6115 18.2669 63.8843 20.1257 64.7959C20.5755 65.0504 21.0846 65.228 21.5582 65.4471L22.2804 65.7667L23.0381 66.0272L24.5535 66.554L26.1104 66.9862C28.4664 67.6492 30.9053 68.1168 33.362 68.3299C34.0487 68.395 34.2499 68.5608 33.9599 68.8035C33.4508 69.2238 33.0245 69.6737 31.7814 69.7743C30.9408 69.8394 30.1476 69.8927 29.1649 69.5908C28.4487 69.3836 27.6969 69.2593 26.951 69.1054C26.211 68.9219 25.4829 68.6969 24.8199 68.3654C24.6305 68.2707 24.3404 68.2056 24.1037 68.1582C21.9844 67.6196 19.8711 66.9092 17.9531 65.7371C17.4796 65.4352 17.0238 65.0978 16.5679 64.7781C16.1417 64.4052 15.7037 64.0382 15.313 63.6238C14.5375 62.7891 13.8864 61.7828 13.6022 60.6226C13.4365 59.8708 13.3417 59.0479 13.7739 58.2251L13.9633 57.935C14.0403 57.8522 14.1172 57.7811 14.1883 57.7101C14.3362 57.5739 14.4665 57.4259 14.65 57.3194C14.8276 57.2069 14.9874 57.0767 15.2005 57.0116C15.4018 56.9346 15.603 56.8517 15.8162 56.8399C16.3726 56.7334 16.8935 56.8458 17.3849 56.9524C17.8643 57.0885 18.3142 57.2543 18.7464 57.4319C20.0013 57.9646 21.1912 58.5566 22.4462 58.971C23.3933 59.2906 24.3345 59.4682 25.1396 59.9596C25.3113 60.0602 25.8263 60.1608 26.0216 60.1312C26.7734 60.0128 27.5844 60.1963 28.4013 60.3562C30.6093 60.7942 32.8174 61.2264 35.0431 61.5756C36.6888 61.8302 38.3463 62.0255 39.9979 62.1557C42.5611 62.3629 45.1243 62.4458 47.652 62.3748C48.7057 62.3392 49.7535 62.286 50.7539 62.138C51.2452 62.0551 51.7425 61.9663 52.1746 61.8183C52.3818 61.7414 52.6067 61.6703 52.7666 61.5756C52.8435 61.5401 52.8613 61.5283 52.8909 61.4987C52.9205 61.475 52.9501 61.4513 52.9737 61.4217C53.0211 61.3743 53.0389 61.3092 53.0389 61.25C53.0448 61.1849 53.0211 61.1198 52.9915 61.0724C52.9678 61.0251 52.9205 60.9896 52.8731 60.9659C52.8494 60.9541 52.8258 60.9422 52.808 60.9304L52.6837 60.8712C52.3581 60.7054 51.9615 60.5574 51.6063 60.3798C50.7835 59.9951 50.0731 59.7879 49.1674 59.8056C48.6583 59.8116 47.8947 59.6103 47.2731 59.4327C46.4681 59.1959 45.6807 58.8999 44.9053 58.5625C43.9641 58.1481 43.1235 57.7574 41.981 57.2957C41.6731 57.1536 41.312 56.9287 40.9805 56.5617C40.6372 56.2243 40.359 55.656 40.2761 55.1232C40.1932 54.5135 40.3708 53.9334 40.5484 53.5427C40.6372 53.3296 40.7674 53.1342 40.8799 52.9389C41.022 52.7613 41.1463 52.5719 41.3002 52.4179C41.904 51.7727 42.6085 51.3465 43.3129 51.0091C44.0173 50.6717 44.7336 50.4349 45.4558 50.2336C46.1721 50.0264 46.8943 49.8725 47.6105 49.7363C51.5234 49.0378 55.4245 48.9372 59.3137 48.955C60.835 48.9668 62.3623 49.0497 63.8836 49.1385C66.2456 49.2746 68.6016 49.4877 70.9517 49.7482L72.7098 49.9495C73.3077 50.0264 73.9352 50.1093 74.5331 50.2277C75.7466 50.4585 76.9424 50.7782 78.1086 51.1807C79.0202 51.5063 79.9318 51.8852 80.8138 52.2404C82.8739 53.0632 84.7445 54.3004 86.3783 55.7862C87.3669 56.6919 88.2844 57.6331 89.1664 58.5744C90.0544 59.5215 90.9127 60.5042 91.7178 61.5401C92.0967 62.0196 92.4696 62.4991 92.7774 63.0082C94.9262 66.5303 97.0336 70.0525 98.6497 73.8115C99.952 76.8542 101.012 79.9857 101.9 83.1586C102.586 85.6093 103.137 88.0956 103.504 90.6351C103.527 90.8008 103.581 90.9725 103.604 91.1383C103.752 92.6122 103.451 93.0917 102.829 92.482C102.284 91.9492 101.882 91.0968 101.621 89.8596C101.343 88.4922 101.023 87.1188 100.662 85.7632L100.591 85.7751Z" fill="black"/>
<path d="M15.6429 63.2923C11.4281 61.1849 9.10761 60.8119 7.99472 62.1143C6.18331 64.2276 7.94736 72.6039 26.9376 75.6703" fill="#F1D1D6"/>
<path d="M13.9388 63.4283C13.6191 63.156 13.2758 62.9133 12.962 62.6173C12.6838 62.345 12.3937 62.0786 11.9971 62.1201C11.8965 62.1319 11.8077 62.0668 11.713 62.0372C11.5413 61.9839 11.3696 61.9425 11.192 61.9129C11.1092 61.901 11.0085 61.978 10.9434 61.9306C10.6297 61.6998 10.2449 61.5932 9.89565 61.7767C9.62334 61.5459 9.34512 61.7412 9.13201 61.8714C8.91891 62.0017 8.6762 62.0845 8.62292 62.3509C8.61109 62.422 8.58741 62.4812 8.52229 62.4989C8.14935 62.6055 8.04872 63.0613 8.04872 63.452C8.0428 63.89 8.0132 64.3222 7.91849 64.8431C7.85929 65.1213 7.95993 65.3936 8.05464 65.6423C8.17303 65.9442 8.3743 66.2105 8.54597 66.4828C8.80051 66.8795 9.12017 67.2346 9.53455 67.4892C10.0851 67.8325 10.6238 68.1522 11.1565 68.46C11.4229 68.6198 11.6183 68.8744 11.8491 69.0934C12.299 69.5374 12.7667 69.9873 13.2935 70.372C13.6961 70.6444 14.1282 70.8811 14.5781 71.0706C14.9925 71.26 15.4483 71.3666 15.8804 71.5264C17.159 71.9822 18.4673 72.3551 19.7933 72.663C20.1129 72.7281 20.4444 72.7636 20.7641 72.8287C20.9239 72.8583 21.0838 72.9057 21.2377 72.953C21.8178 73.1306 22.3861 73.3437 22.9781 73.4858C23.8186 73.7107 24.6829 73.8646 25.5353 74.0541C26.0208 74.1488 26.5062 74.2731 27.0212 74.2021C27.1632 74.1843 27.1869 74.3205 27.0922 74.5928C26.9265 75.0663 26.7725 75.5577 26.4825 75.8063C26.2871 75.972 26.1095 76.0963 25.9201 75.9898C25.6478 75.83 25.2926 76.0076 25.0558 75.6583C25.0203 75.6109 24.9611 75.6109 24.9079 75.6169C23.9785 75.7767 23.1438 75.4215 22.2973 75.1729C22.0191 75.0959 21.7231 75.0782 21.4449 75.0131C21.2614 74.9716 21.0778 74.9302 20.9003 74.871C20.6398 74.794 20.3853 74.6756 20.1189 74.6164C19.9176 74.575 19.6986 74.6046 19.6039 74.2731C19.5861 74.2021 19.4795 74.1843 19.4204 74.2435C19.2013 74.4566 19.0474 74.3797 18.8876 74.3205C18.4614 74.1488 18.0352 73.9712 17.603 73.8114C17.2834 73.693 16.9519 73.616 16.6085 73.5509C16.0876 73.4325 15.5311 73.3911 15.0043 73.2372C14.5662 73.1188 14.146 72.9412 13.7197 72.7695C13.6191 72.734 13.5007 72.734 13.406 72.6926C13.2284 72.6156 13.0153 72.5682 12.9087 72.3966C12.7844 72.2012 12.6601 72.1065 12.376 72.219C12.2161 72.2841 12.08 72.1775 11.9734 72.0828C11.8373 71.9644 11.7426 71.7868 11.6479 71.6211C11.5295 71.4198 11.4466 71.2126 11.1565 71.2304C11.0026 71.2363 10.902 71.0942 10.831 70.964C10.5231 70.372 10.0555 70.0169 9.55823 69.6558C8.88931 69.1644 8.20855 68.6317 7.61067 67.9687C7.37388 67.7141 7.19037 67.4063 7.00094 67.1103C6.43858 66.1573 6.113 64.9911 6.21955 63.748C6.23731 63.5053 6.29059 63.2566 6.28467 63.0021C6.27283 62.4042 6.53921 61.7531 7.08382 61.2676C7.6817 60.729 8.4039 60.285 9.12609 60.0719C9.29776 60.0127 9.45168 59.9535 9.61743 59.9594C10.1739 60.0068 10.677 60.0364 11.1565 60.0955C11.636 60.1429 12.0918 60.2258 12.5121 60.3856C13.187 60.652 13.7908 61.0309 14.365 61.4156C14.8089 61.7116 15.2292 62.0431 15.6436 62.3687C15.6732 62.3924 15.7147 62.3865 15.7383 62.4101C15.9692 62.6055 15.8922 62.9607 15.5311 63.381C15.2115 63.7539 14.9214 63.9137 14.7024 63.7953C14.4538 63.6592 14.217 63.5112 13.9743 63.3691L13.9388 63.4283Z" fill="black"/>
<path d="M5.92359 67.6787C4.95277 67.2999 3.89907 67.069 2.99336 67.2584C2.59083 67.3472 2.22381 67.5722 1.99295 67.951C1.87455 68.1345 1.80352 68.3535 1.75616 68.5785L1.75024 68.9041C1.75616 69.0106 1.80352 69.1231 1.83312 69.2297C1.86863 69.3421 1.89823 69.4605 1.93375 69.5789C1.96927 69.7032 1.98703 69.8275 2.04622 69.9459C2.21789 70.3781 2.46652 70.7984 2.74474 71.195C2.86905 71.3785 3.094 71.5028 3.18279 71.6922C3.66228 72.5979 4.34304 73.403 5.20731 73.989C5.4145 74.3501 5.70456 74.6343 6.0183 74.8711C6.33204 75.1019 6.69906 75.2973 7.03648 75.5222C7.72316 75.9484 8.37432 76.4516 9.14387 76.7121C9.34514 76.789 9.55825 76.8956 9.72992 77.0199C10.754 77.8368 11.9853 78.2926 13.2166 78.7188C13.8855 78.9319 14.5426 79.1628 15.2056 79.3996C15.8745 79.6186 16.5197 79.9028 17.1827 80.1573C17.8872 80.4296 18.6508 80.6309 19.4085 80.767C20.3083 80.9446 21.2199 81.063 22.1316 81.1755C23.4516 81.3767 24.7717 81.4715 26.1036 81.4892C27.8855 81.4774 29.6673 81.5011 31.455 81.5188C32.3607 81.5366 33.2723 81.6846 34.184 81.7734C36.0072 81.9746 37.8304 82.1877 39.6596 82.3239C40.3522 82.3831 41.0389 82.4186 41.6901 82.4127C42.3649 82.4008 43.0397 82.3653 43.7264 82.312C44.9991 82.2173 46.2778 82.0279 47.5742 81.9095C49.4921 81.7378 51.4279 81.5899 53.3991 81.5721C55.3644 81.5543 57.3771 81.6727 59.4253 82.1877L59.887 82.3061C59.9995 82.318 60.0824 82.4068 60.183 82.4482L60.3961 82.5666L61.0295 82.9277C61.4498 83.1704 61.8583 83.4309 62.2667 83.7032C62.6693 83.9755 63.054 84.2714 63.427 84.5911C64.8063 85.7573 66.0553 87.0714 67.1741 88.4803C68.7843 90.493 70.1102 92.7365 71.0633 95.134C71.5961 96.4955 71.9986 97.8925 72.4722 99.2777C72.6024 99.6684 72.5018 99.8223 72.188 99.7335C71.6494 99.5796 71.1107 99.4908 70.6667 98.9225C70.3648 98.5378 70.1043 98.1885 70.0155 97.6439C69.8735 96.8507 69.3703 96.1462 69.3348 95.3116C69.3348 95.1932 69.2519 95.0511 69.1809 94.9386C67.92 92.9378 66.8248 90.8718 65.3153 89.0486C64.824 88.4566 64.2557 87.9357 63.6934 87.4089C63.3323 87.0655 62.9593 86.7399 62.5864 86.4084C62.0418 85.9349 61.4972 85.4495 60.8934 85.0469C60.4376 84.745 59.9521 84.5319 59.6798 84.0287C59.6502 83.9755 59.5733 83.9163 59.4845 83.8689C59.4075 83.8334 59.3306 83.7979 59.2773 83.8275C58.8629 83.9991 58.4367 83.8216 58.0046 83.7387C56.8384 83.4545 55.6249 83.3006 54.4054 83.2355C53.4997 83.1941 52.5881 83.2237 51.6883 83.3065C50.2854 83.4309 48.8943 83.6558 47.4854 83.8393C46.3074 83.9873 45.1175 84.0939 43.9158 84.2063C43.6376 84.2359 43.3594 84.301 43.0812 84.3188C42.5721 84.3543 42.0156 84.4254 41.5184 84.3306C40.956 84.2182 40.5357 84.1826 40.0444 84.3958C39.7662 84.5141 39.3281 84.4786 38.9729 84.4372C38.5171 84.3839 38.0732 84.2715 37.6292 84.1531C37.1023 84.0169 36.611 83.8808 36.019 84.0228C35.7053 84.0998 35.2791 84.011 34.9357 83.9222C33.4085 83.5433 31.8516 83.4427 30.2829 83.3835C28.1578 83.3065 26.0208 83.2237 23.8838 83.0461C23.0432 82.9928 22.2085 82.8389 21.3738 82.7323C18.7751 82.3416 16.1882 81.7142 13.6783 80.7848C13.187 80.6013 12.6897 80.4118 12.1866 80.2579C11.6064 80.0922 11.0322 79.8909 10.4936 79.6186C10.2212 79.4884 9.94894 79.3582 9.68256 79.2042L8.90709 78.7247C7.68764 77.9197 6.42676 77.1916 5.24283 76.3747C5.1126 76.2918 4.93501 76.1734 4.79294 76.0668C4.65086 75.9603 4.51471 75.8537 4.39632 75.7294C3.57941 74.877 2.75658 74.066 1.97519 73.1425C1.21747 72.2072 0.412402 71.2423 0.063143 69.6618C0.0157859 69.3125 -0.0315715 68.9869 0.0276249 68.5726C0.0690624 68.1464 0.157857 67.8918 0.288089 67.5603C0.542633 66.9269 1.03396 66.2817 1.66145 65.9087C2.28301 65.524 2.94009 65.3819 3.52613 65.3404C4.11218 65.3049 4.65086 65.3641 5.15995 65.4648C6.72866 65.7903 8.04874 66.4533 9.29186 67.2821C9.37474 67.3354 9.47537 67.3709 9.55233 67.4301C9.89567 67.6905 10.0733 67.9628 10.0673 68.1641C10.0673 68.3713 9.88383 68.5134 9.58192 68.6081C9.03732 68.7857 8.52231 68.7738 7.94218 68.466C7.30286 68.1286 6.62802 67.8208 5.94135 67.6018L5.92359 67.6787Z" fill="black"/>
</svg>
