<svg width="131" height="38" viewBox="0 0 131 38" fill="none" xmlns="http://www.w3.org/2000/svg">
<path d="M130.099 23.6779C129.833 23.7342 129.617 23.8242 129.282 23.8388C128.979 23.8565 128.679 23.865 128.839 24.1446C128.882 24.2188 128.802 24.2267 128.782 24.2724C128.749 24.3454 128.698 24.4103 128.68 24.5006C128.673 24.5412 128.794 24.6613 128.731 24.6551C128.4 24.6605 128.253 24.7699 128.436 25.0708C128.034 24.9898 128.215 25.2461 128.246 25.4238C128.276 25.6015 128.145 25.6744 128.335 25.9347C128.383 25.9998 128.39 26.0576 128.323 26.0606C127.939 26.0862 127.927 26.333 127.892 26.5583C127.849 26.8019 127.65 26.9538 127.225 26.9723C127.002 26.982 126.94 27.0967 126.878 27.2113C126.807 27.3442 126.824 27.527 126.772 27.668C126.701 27.877 126.68 28.1196 126.81 28.4407C126.977 28.8766 127.075 29.2708 127.104 29.6232C127.12 29.8059 126.935 29.8767 126.814 29.9759C126.563 30.1704 126.248 30.3363 126.03 30.5563C125.867 30.7245 125.782 30.9386 125.716 31.1608C125.657 31.3648 125.691 31.6319 125.638 31.8491C125.496 32.4865 125.317 33.1075 125.175 33.7449C125.141 33.8941 125.158 34.0769 125.129 34.2393C125.115 34.3205 125.077 34.3803 125.026 34.4452C124.852 34.6632 124.642 34.8648 124.486 35.0909C124.263 35.4185 124.081 35.7755 123.849 36.099C123.723 36.2835 123.551 36.4477 123.668 36.7739C123.704 36.8663 123.494 36.7725 123.097 36.5078C122.401 36.0546 121.669 35.5852 121.296 35.2433C121.04 35.0083 120.848 34.8242 121.009 34.8082C121.227 34.7853 120.963 34.47 121.47 34.6091C121.538 34.6285 121.532 34.5929 121.513 34.5624C121.222 33.9395 121.675 33.7586 121.93 33.4565C122.016 33.3632 122 33.2028 122.044 33.08C122.067 33.0029 122.113 32.9248 122.164 32.8599C122.24 32.7626 122.367 32.6988 122.398 32.5811C122.416 32.4908 122.324 32.3292 122.793 32.5057C122.888 32.5374 122.891 32.4836 122.802 32.4113C122.436 32.1273 122.52 32.0879 122.566 32.0321C122.703 31.874 122.872 31.7413 122.962 31.5628C123.033 31.4299 123.052 31.2634 123.026 31.0766C123 30.7912 122.887 30.4559 122.866 30.1838C122.852 29.9472 122.92 29.7696 122.947 29.5625C122.958 29.5128 122.887 29.4264 122.908 29.3807C122.931 29.3036 122.881 29.1715 123.051 29.182C123.253 29.1955 123.314 29.1571 123.007 28.8884C122.835 28.7348 122.891 28.6831 122.957 28.6579C123.04 28.6184 123.206 28.638 123.377 28.6485C123.579 28.6621 123.786 28.6889 123.57 28.461C123.453 28.3319 123.578 28.3219 123.694 28.3303C124.242 28.3557 124.334 28.1233 124.344 27.832C124.354 27.4421 124.313 27.0186 124.318 26.6155C124.32 26.4632 124.377 26.3354 124.416 26.1994C124.546 25.7864 124.855 25.4864 125.196 25.1896C125.265 25.1329 125.343 25.0802 125.307 24.9654C125.228 24.7002 125.366 24.5645 125.581 24.4745C125.84 24.3603 125.81 24.084 125.771 23.8037C125.759 23.7326 125.701 23.6411 125.758 23.6118C126.139 23.4206 125.969 22.8953 126.226 22.6379C126.432 22.4231 126.788 22.2867 127.104 22.1431C127.354 22.0248 127.646 21.936 127.919 21.839C127.933 21.8339 127.913 21.8034 127.931 21.7893C128.103 21.7459 128.643 22.0089 129.39 22.518C130.054 22.968 130.412 23.2703 130.336 23.3676C130.26 23.4649 130.138 23.5419 130.021 23.632C130.03 23.6361 130.066 23.6524 130.099 23.6779Z" fill="#F8AFB8"/>
<path d="M99.5614 31.9483C99.7902 31.7548 99.9561 31.5551 100.266 31.3759C100.546 31.216 100.821 31.0653 100.578 30.8252C100.517 30.7652 100.582 30.7176 100.593 30.6678C100.603 30.5734 100.625 30.474 100.603 30.3764C100.601 30.3318 100.437 30.2584 100.494 30.229C100.796 30.0681 100.904 29.8754 100.629 29.6322C101.027 29.5254 100.773 29.335 100.685 29.1643C100.587 28.9895 100.688 28.8373 100.425 28.6429C100.351 28.5879 100.33 28.5351 100.387 28.5058C100.745 28.2932 100.657 28.024 100.614 27.7528C100.566 27.4684 100.707 27.2027 101.091 26.98C101.296 26.8636 101.312 26.7063 101.323 26.5581C101.347 26.3825 101.258 26.1894 101.254 26.0015C101.242 25.7334 101.173 25.4724 100.945 25.1734C100.637 24.784 100.401 24.4048 100.241 24.0268C100.162 23.8378 100.311 23.6746 100.389 23.5011C100.553 23.1582 100.794 22.8389 100.917 22.4888C101.009 22.2341 101.011 21.961 100.99 21.6888C100.974 21.4299 100.851 21.1667 100.813 20.9087C100.726 20.147 100.661 19.3844 100.574 18.6227C100.558 18.4399 100.478 18.2509 100.443 18.06C100.429 17.9665 100.435 17.8813 100.462 17.795C100.551 17.4733 100.672 17.1547 100.738 16.834C100.835 16.3732 100.872 15.8971 100.972 15.4272C101.024 15.1653 101.129 14.9056 100.901 14.6066C100.839 14.5243 101.058 14.5237 101.528 14.624C102.345 14.7809 103.203 14.945 103.677 15.1348C104 15.2684 104.243 15.3876 104.108 15.4696C103.907 15.5992 104.271 15.8162 103.751 15.9015C103.679 15.9135 103.699 15.944 103.727 15.9786C104.22 16.5167 103.858 16.9353 103.735 17.3839C103.692 17.529 103.761 17.6916 103.768 17.8479C103.768 17.9464 103.759 18.0408 103.736 18.1403C103.706 18.2804 103.605 18.4101 103.616 18.5574C103.63 18.6732 103.774 18.7922 103.269 18.8187C103.166 18.8276 103.182 18.8896 103.3 18.9203C103.741 19.0622 103.681 19.1454 103.654 19.2317C103.583 19.463 103.481 19.6913 103.452 19.9298C103.428 20.1054 103.476 20.2913 103.565 20.4844C103.695 20.7832 103.918 21.0913 104.039 21.3859C104.139 21.6278 104.131 21.8653 104.187 22.1091C104.194 22.167 104.286 22.2302 104.293 22.288C104.302 22.3906 104.392 22.5075 104.229 22.5773C104.04 22.6571 103.999 22.7261 104.381 22.8751C104.595 22.9598 104.558 23.0419 104.521 23.1018C104.462 23.1849 104.29 23.2506 104.132 23.3112C103.933 23.387 103.726 23.4587 104.019 23.6115C104.17 23.69 104.062 23.7619 103.952 23.8114C103.434 24.0399 103.429 24.3445 103.524 24.6716C103.65 25.1004 103.848 25.5394 103.992 25.9762C104.049 26.1439 104.043 26.3053 104.045 26.4708C104.072 26.9755 103.887 27.4625 103.684 27.9414C103.643 28.0327 103.589 28.129 103.661 28.2378C103.833 28.4899 103.749 28.704 103.583 28.9037C103.374 29.1501 103.508 29.4397 103.654 29.7243C103.689 29.7944 103.777 29.8666 103.73 29.9224C103.443 30.3199 103.786 30.8018 103.648 31.2107C103.532 31.5425 103.25 31.8547 103 32.17C102.814 32.4154 102.564 32.6545 102.342 32.8836C102.324 32.8978 102.366 32.9273 102.349 32.9415C102.202 33.0732 101.605 33.0365 100.724 32.8511C99.9377 32.675 99.4964 32.5107 99.5311 32.3838C99.5649 32.2346 99.6617 32.0916 99.7269 31.9455C99.6426 31.9626 99.602 31.9555 99.5614 31.9483Z" fill="#F8AFB8"/>
<path d="M65.1334 2.15919C64.9225 2.55782 64.7613 2.96771 64.465 3.36111C64.1984 3.71293 63.9266 4.05155 64.194 4.43382C64.2608 4.52939 64.1936 4.6308 64.1934 4.72929C64.188 4.91306 64.1734 5.09275 64.2035 5.27049C64.2115 5.35072 64.3768 5.44647 64.3219 5.52048C64.0288 5.88241 63.9377 6.25793 64.2233 6.64836C63.8278 6.92074 64.0963 7.22687 64.2034 7.5266C64.3104 7.82633 64.2205 8.12568 64.5022 8.42675C64.5772 8.50406 64.6034 8.59244 64.5444 8.67559C64.2064 9.13795 64.2989 9.61738 64.3691 10.0978C64.4362 10.6096 64.3154 11.1252 63.9428 11.6159C63.7484 11.8795 63.7428 12.1618 63.7372 12.4441C63.7294 12.7801 63.8243 13.1072 63.8389 13.4423C63.8643 13.9247 63.9569 14.4041 64.2067 14.899C64.5395 15.5515 64.8053 16.2069 64.9859 16.8571C65.0766 17.1933 64.943 17.517 64.8723 17.8468C64.7309 18.5065 64.5084 19.1519 64.4076 19.8188C64.3305 20.3101 64.3479 20.8107 64.3875 21.3103C64.4212 21.7744 64.5625 22.2427 64.6144 22.7149C64.7509 24.1012 64.8691 25.4792 65.0056 26.8654C65.0425 27.1995 65.1241 27.5317 65.1702 27.8699C65.1953 28.0344 65.1848 28.205 65.1693 28.3623C65.1021 28.9785 64.9943 29.5875 64.9536 30.1936C64.889 31.0738 64.8782 31.9561 64.8085 32.8231C64.7721 33.3216 64.6818 33.8179 64.9367 34.3261C65.0055 34.4663 64.779 34.5075 64.3059 34.4386C63.4726 34.3182 62.6128 34.2079 62.1269 33.9471C61.8013 33.7688 61.5437 33.6099 61.674 33.4162C61.8675 33.1303 61.4863 32.8067 61.9986 32.5426C62.0687 32.5083 62.0526 32.4463 62.0192 32.3985C61.4837 31.5131 61.8183 30.6659 61.9245 29.8153C61.9616 29.5361 61.8819 29.2486 61.8652 28.9673C61.8574 28.7886 61.8628 28.6049 61.8815 28.4161C61.9104 28.1552 61.9972 27.8873 61.9723 27.6242C61.9503 27.4282 61.8025 27.2198 62.3013 27.0593C62.4029 27.028 62.3849 26.9214 62.2712 26.8816C61.8166 26.7223 61.8768 26.563 61.8964 26.3965C61.9531 25.9509 62.0413 25.5084 62.0533 25.0647C62.0569 24.7378 62.0017 24.3955 61.9069 24.0684C61.7546 23.5513 61.517 23.0289 61.3738 22.5159C61.2608 22.0821 61.2556 21.6526 61.1833 21.2261C61.1702 21.1326 61.076 21.0248 61.0671 20.9223C61.0502 20.7395 60.952 20.5423 61.1148 20.3741C61.2949 20.1916 61.3378 20.0465 60.9442 19.8488C60.72 19.7377 60.7538 19.5885 60.7977 19.4657C60.8579 19.3064 61.0166 19.1473 61.1712 18.9973C61.3645 18.8099 61.5587 18.6447 61.2627 18.4249C61.1055 18.3108 61.2063 18.1587 61.3264 18.0371C61.8401 17.5 61.8158 16.9415 61.697 16.3737C61.5472 15.6058 61.3212 14.8367 61.149 14.0698C61.0867 13.7682 61.0781 13.4686 61.0604 13.165C60.9972 12.2277 61.1583 11.303 61.3286 10.3824C61.3655 10.2018 61.4156 10.016 61.3317 9.83617C61.1385 9.41038 61.2104 9.00437 61.3716 8.59447C61.5603 8.09832 61.4131 7.59444 61.2526 7.0956C61.2162 6.98079 61.1169 6.85978 61.1568 6.74614C61.4222 5.95568 61.0379 5.14877 61.1643 4.35095C61.262 3.71552 61.5251 3.07737 61.7527 2.44523C61.9283 1.95414 62.1577 1.46516 62.3647 0.977168C62.377 0.949777 62.3395 0.911128 62.3558 0.874607C62.5005 0.59972 63.0885 0.533822 63.9868 0.705079C64.7855 0.853811 65.2421 1.05774 65.2132 1.31863C65.1852 1.60186 65.1034 1.88296 65.0481 2.15395C65.0522 2.14482 65.0928 2.15201 65.1334 2.15919Z" fill="#F8AFB8"/>
<path d="M86.7529 2.3979C86.501 2.77196 86.2973 3.16249 85.9611 3.52231C85.6587 3.84393 85.3526 4.15187 85.578 4.56029C85.6343 4.6624 85.5567 4.75613 85.5461 4.85405C85.5213 5.03621 85.4878 5.21335 85.4989 5.39328C85.4984 5.4739 85.6526 5.58661 85.5901 5.65439C85.2603 5.98326 85.13 6.34702 85.3727 6.76549C84.9506 6.99448 85.1852 7.32731 85.2599 7.63668C85.3346 7.94606 85.2135 8.23422 85.4618 8.56342C85.5281 8.64824 85.5449 8.73889 85.4774 8.81532C85.0923 9.23931 85.1336 9.72583 85.1525 10.211C85.165 10.727 84.9903 11.2269 84.5679 11.6754C84.3466 11.917 84.3112 12.1971 84.2757 12.4772C84.2325 12.8105 84.2921 13.1458 84.2711 13.4806C84.2454 13.9629 84.2867 14.4494 84.4827 14.9681C84.7446 15.6521 84.9395 16.332 85.0502 16.9976C85.1048 17.3415 84.9377 17.6492 84.8325 17.9697C84.6221 18.6108 84.3325 19.2289 84.1617 19.8814C84.033 20.3618 83.9972 20.8614 83.9838 21.3624C83.9681 21.8274 84.059 22.3081 84.0606 22.7832C84.0496 24.1761 84.0213 25.5589 84.0102 26.9517C84.0116 27.2879 84.0576 27.6268 84.0676 27.968C84.0751 28.1343 84.0466 28.3028 84.0145 28.4576C83.8825 29.0632 83.7109 29.6574 83.6062 30.2558C83.4488 31.1242 83.3446 32.0004 83.1836 32.8551C83.0945 33.3469 82.9522 33.8309 83.1519 34.3632C83.2054 34.5099 82.9759 34.5269 82.5128 34.4083C81.6968 34.2004 80.8536 33.9997 80.398 33.6889C80.0932 33.4771 79.8538 33.2919 80.0039 33.1131C80.2266 32.8492 79.8818 32.4871 80.4191 32.2787C80.4925 32.252 80.483 32.1886 80.4548 32.1376C80.0161 31.2005 80.4386 30.3935 80.6342 29.5588C80.7006 29.2852 80.6519 28.9909 80.665 28.7094C80.6762 28.5309 80.701 28.3487 80.7395 28.1629C80.7959 27.9066 80.9106 27.6494 80.9137 27.3852C80.9126 27.188 80.7876 26.9651 81.3007 26.8583C81.405 26.8379 81.3983 26.73 81.2895 26.6783C80.8544 26.4719 80.9311 26.3198 80.9682 26.1564C81.0718 25.7192 81.2063 25.2885 81.2652 24.8486C81.3034 24.5239 81.2848 24.1777 81.2251 23.8424C81.1284 23.3121 80.9474 22.7675 80.8593 22.2422C80.793 21.7989 80.8332 21.3713 80.8064 20.9394C80.8034 20.8451 80.7211 20.728 80.7231 20.625C80.7256 20.4415 80.6489 20.235 80.8286 20.085C81.0269 19.9226 81.085 19.7829 80.7145 19.5446C80.5034 19.4104 80.5528 19.2656 80.6094 19.1482C80.6861 18.9962 80.8608 18.8547 81.0304 18.722C81.2424 18.556 81.4531 18.4124 81.1819 18.1624C81.0377 18.0324 81.1541 17.8918 81.2863 17.7836C81.8541 17.3038 81.889 16.7459 81.831 16.1687C81.7633 15.3893 81.62 14.6006 81.53 13.8198C81.4999 13.5132 81.5231 13.2144 81.5377 12.9106C81.574 11.9719 81.8322 11.0695 82.0989 10.1721C82.1548 9.99638 82.2242 9.81702 82.1598 9.62927C82.0129 9.18542 82.1273 8.78929 82.331 8.39876C82.5712 7.92539 82.4781 7.40874 82.3713 6.89572C82.3473 6.77771 82.2614 6.64687 82.313 6.53808C82.6607 5.78017 82.364 4.93711 82.5741 4.15715C82.7385 3.53563 83.0677 2.92892 83.361 2.32444C83.5876 1.85469 83.8674 1.39274 84.125 0.929413C84.14 0.903471 84.1068 0.86107 84.1269 0.82648C84.2999 0.568458 84.8916 0.565181 85.7667 0.830571C86.5452 1.06303 86.9776 1.31415 86.9212 1.57051C86.8634 1.84919 86.7524 2.12005 86.6687 2.38366C86.6737 2.37501 86.7133 2.38646 86.7529 2.3979Z" fill="#F8AFB8"/>
<path d="M11.8948 34.8075C12.0344 34.5194 12.1162 34.2383 12.331 33.929C12.5295 33.6563 12.728 33.3835 12.4075 33.2184C12.3253 33.1817 12.3711 33.1036 12.355 33.0417C12.3278 32.9309 12.3097 32.8243 12.2561 32.7237C12.2318 32.68 12.0562 32.6563 12.103 32.6005C12.3188 32.3136 12.3528 32.0659 11.9967 31.9068C12.3343 31.6415 12.0208 31.5343 11.8617 31.3756C11.7117 31.2209 11.7435 31.0271 11.4208 30.9158C11.3346 30.8882 11.2921 30.8363 11.3389 30.7806C11.5873 30.4206 11.4101 30.1553 11.2685 29.8839C11.1126 29.5953 11.1427 29.2582 11.4166 28.8658C11.5642 28.6579 11.5168 28.4944 11.4735 28.3217C11.42 28.1226 11.2691 27.9456 11.2024 27.7515C11.0963 27.4742 10.9232 27.1997 10.5957 26.9767C10.1526 26.6692 9.78461 26.3406 9.50096 25.9948C9.35001 25.8179 9.42964 25.5906 9.43817 25.3753C9.46436 24.9489 9.56163 24.5105 9.54314 24.0861C9.52951 23.7733 9.43158 23.4777 9.30723 23.1921C9.19706 22.9239 8.97112 22.6696 8.84775 22.4064C8.46849 21.6127 8.12479 20.813 7.74553 20.0193C7.65654 19.8262 7.51471 19.6533 7.41251 19.4653C7.36802 19.3687 7.33675 19.2671 7.3278 19.1645C7.28892 18.7857 7.28053 18.3877 7.21523 18.019C7.12893 17.4767 6.98067 16.9504 6.89437 16.4081C6.8452 16.1013 6.84478 15.7835 6.51219 15.5474C6.41991 15.4842 6.63125 15.4034 7.11164 15.3333C7.93431 15.2079 8.78748 15.0633 9.30829 15.0988C9.65854 15.1238 9.92855 15.1568 9.84096 15.3039C9.70247 15.5158 10.1277 15.6181 9.67026 15.9067C9.60926 15.9451 9.63762 15.9797 9.67414 15.996C10.3405 16.3923 10.1647 16.9818 10.2196 17.5211C10.2406 17.6947 10.3591 17.8463 10.4288 18.0089C10.4692 18.1145 10.4964 18.2252 10.5104 18.341C10.5355 18.5056 10.4895 18.6821 10.5633 18.8356C10.622 18.9494 10.8046 19.031 10.3442 19.2525C10.2477 19.297 10.2862 19.358 10.407 19.3572C10.872 19.3459 10.8454 19.4545 10.8544 19.557C10.8843 19.8333 10.8655 20.1206 10.931 20.3908C10.9844 20.5899 11.0998 20.7729 11.2508 20.9498C11.4909 21.2214 11.8153 21.4758 12.0331 21.7483C12.2134 21.9822 12.3003 22.2291 12.4409 22.4781C12.4703 22.535 12.5839 22.5749 12.6041 22.6277C12.6445 22.7334 12.7784 22.826 12.6502 22.9659C12.5047 23.12 12.4822 23.2194 12.9035 23.2324C13.1411 23.2399 13.1368 23.3476 13.1133 23.4247C13.0867 23.5333 12.9585 23.6732 12.8253 23.7998C12.6707 23.9498 12.512 24.1089 12.8368 24.1664C13.0083 24.1992 12.937 24.3097 12.8475 24.4121C12.4507 24.8591 12.5678 25.1853 12.7693 25.4943C13.0518 25.9162 13.4095 26.317 13.7011 26.7429C13.8155 26.9036 13.868 27.0803 13.9428 27.2561C14.159 27.8018 14.1711 28.3877 14.1659 28.9878C14.1667 29.1086 14.1452 29.2304 14.2608 29.3149C14.5203 29.5184 14.5228 29.7824 14.4411 30.0635C14.344 30.4035 14.575 30.6709 14.8192 30.9334C14.88 30.9934 14.9895 31.0423 14.9661 31.1195C14.8462 31.6574 15.3512 32.0472 15.3776 32.5519C15.3951 32.954 15.2491 33.4035 15.1427 33.8379C15.0588 34.1728 14.917 34.5147 14.8067 34.8597C14.7986 34.8779 14.8442 34.8983 14.836 34.9166C14.7463 35.1175 14.1814 35.3032 13.2867 35.4183C12.4945 35.5244 12.0102 35.5052 11.9902 35.3539C11.9692 35.1803 11.997 34.9955 12.0024 34.8118C11.97 34.7863 11.9344 34.7923 11.8948 34.8075Z" fill="#F8AFB8"/>
<path d="M35.5956 33.5332C35.7699 33.1709 35.8768 32.8197 36.1393 32.428C36.3813 32.0821 36.6232 31.7363 36.2584 31.5458C36.1647 31.5039 36.2212 31.4054 36.2051 31.3294C36.1783 31.1936 36.1619 31.0625 36.104 30.9404C36.0777 30.8873 35.875 30.8655 35.9317 30.7946C36.1943 30.4304 36.2443 30.1226 35.838 29.9411C36.241 29.5984 35.8819 29.4793 35.7041 29.2898C35.5367 29.105 35.5819 28.8638 35.2123 28.74C35.1135 28.7095 35.0663 28.6472 35.123 28.5763C35.4266 28.1204 35.2324 27.7998 35.0797 27.4702C34.9113 27.1199 34.9606 26.7017 35.2952 26.2046C35.4753 25.9412 35.4273 25.7409 35.3844 25.5292C35.3309 25.2852 35.1634 25.0728 35.0944 24.8356C34.9832 24.497 34.7941 24.165 34.4236 23.9032C33.9227 23.5419 33.5099 23.1511 33.1956 22.7356C33.0281 22.5232 33.1302 22.2386 33.1493 21.9721C33.1979 21.4435 33.3295 20.8971 33.3263 20.3729C33.3238 19.9867 33.2229 19.6252 33.0908 19.2773C32.9745 18.9502 32.7233 18.6454 32.5914 18.3251C32.1854 17.3597 31.8208 16.3852 31.4148 15.4197C31.3198 15.1847 31.1627 14.977 31.0522 14.7488C31.0047 14.6313 30.9728 14.5069 30.9668 14.3805C30.9379 13.9136 30.9452 13.4216 30.8852 12.9684C30.8083 12.3013 30.6588 11.6568 30.5819 10.9896C30.538 10.6123 30.5511 10.2193 30.1754 9.94137C30.071 9.86725 30.3197 9.75825 30.88 9.6509C31.8398 9.46062 32.8358 9.24523 33.4385 9.26685C33.8438 9.28282 34.1556 9.31208 34.0477 9.49772C33.878 9.7658 34.3669 9.87416 33.8239 10.2506C33.7515 10.3008 33.7829 10.3424 33.8246 10.361C34.5806 10.8225 34.3515 11.5593 34.392 12.2239C34.409 12.4378 34.54 12.6202 34.6139 12.8183C34.6563 12.9472 34.6831 13.083 34.6944 13.2256C34.7165 13.4281 34.6555 13.6484 34.7346 13.8351C34.7978 13.9734 35.0062 14.0664 34.4626 14.3601C34.3487 14.4193 34.3907 14.4931 34.5309 14.4869C35.0709 14.453 35.0354 14.5885 35.0414 14.715C35.0643 15.0553 35.0302 15.4115 35.0946 15.7429C35.148 15.9869 35.2741 16.2083 35.4417 16.4207C35.7086 16.7463 36.0741 17.0471 36.3151 17.3748C36.5143 17.6564 36.6045 17.9581 36.757 18.26C36.7886 18.3292 36.9187 18.3736 36.9399 18.4381C36.9823 18.567 37.1336 18.6759 36.9789 18.8544C36.8035 19.0512 36.7731 19.1751 37.2614 19.1732C37.5367 19.1723 37.5271 19.3056 37.4966 19.402C37.4611 19.5375 37.3063 19.716 37.1463 19.8784C36.9605 20.0705 36.7696 20.2741 37.144 20.3313C37.3416 20.3645 37.2541 20.5043 37.1459 20.6347C36.6664 21.2046 36.7883 21.603 37.0088 21.9766C37.3185 22.4864 37.7163 22.9667 38.0364 23.4811C38.1623 23.6749 38.2156 23.8913 38.2948 24.1055C38.5224 24.7712 38.5113 25.4953 38.4796 26.2377C38.4753 26.3872 38.4451 26.5387 38.5756 26.6383C38.868 26.8789 38.8597 27.2054 38.7528 27.5566C38.6256 27.9812 38.8821 28.3021 39.1542 28.6162C39.2222 28.6879 39.3472 28.7437 39.3166 28.8401C39.1546 29.5106 39.7237 29.9711 39.7328 30.5942C39.7359 31.0908 39.5472 31.6531 39.4052 32.1949C39.2935 32.6127 39.1144 33.0417 38.9717 33.4731C38.9614 33.4961 39.0135 33.5193 39.0033 33.5423C38.8906 33.7946 38.2273 34.0485 37.1843 34.2291C36.2607 34.3943 35.6997 34.3913 35.6829 34.205C35.666 33.9911 35.7061 33.7614 35.7203 33.5339C35.6837 33.5038 35.6422 33.5128 35.5956 33.5332Z" fill="#F8AFB8"/>
</svg>
