<svg width="131" height="39" viewBox="0 0 131 39" fill="none" xmlns="http://www.w3.org/2000/svg">
<path d="M130.099 24.6759C129.833 24.7323 129.618 24.8222 129.283 24.8368C128.979 24.8545 128.68 24.8631 128.839 25.1426C128.883 25.2168 128.803 25.2248 128.782 25.2704C128.75 25.3435 128.699 25.4084 128.68 25.4987C128.673 25.5393 128.795 25.6593 128.732 25.6531C128.401 25.6586 128.253 25.768 128.437 26.0689C128.035 25.9879 128.216 26.2441 128.246 26.4218C128.276 26.5996 128.145 26.6724 128.335 26.9327C128.383 26.9978 128.39 27.0557 128.323 27.0586C127.939 27.0843 127.928 27.331 127.893 27.5563C127.85 27.7999 127.65 27.9519 127.226 27.9704C127.002 27.9801 126.94 28.0947 126.878 28.2093C126.808 28.3422 126.825 28.525 126.773 28.666C126.701 28.8751 126.68 29.1177 126.811 29.4388C126.977 29.8747 127.075 30.2688 127.104 30.6212C127.121 30.804 126.936 30.8747 126.815 30.974C126.564 31.1685 126.249 31.3344 126.03 31.5543C125.867 31.7225 125.783 31.9366 125.716 32.1589C125.658 32.3628 125.692 32.6299 125.639 32.8471C125.496 33.4845 125.318 34.1056 125.175 34.7429C125.141 34.8921 125.158 35.0749 125.13 35.2373C125.115 35.3185 125.078 35.3783 125.027 35.4432C124.853 35.6612 124.642 35.8629 124.486 36.089C124.263 36.4165 124.082 36.7736 123.85 37.097C123.724 37.2816 123.552 37.4458 123.669 37.7719C123.704 37.8644 123.494 37.7706 123.098 37.5058C122.402 37.0527 121.67 36.5832 121.297 36.2414C121.04 36.0063 120.849 35.8222 121.009 35.8063C121.228 35.7833 120.963 35.4681 121.471 35.6071C121.539 35.6265 121.533 35.591 121.513 35.5605C121.222 34.9375 121.675 34.7566 121.931 34.4545C122.016 34.3613 122 34.2008 122.044 34.0781C122.068 34.0009 122.113 33.9228 122.164 33.858C122.241 33.7606 122.368 33.6969 122.398 33.5792C122.417 33.4888 122.325 33.3272 122.793 33.5038C122.889 33.5354 122.891 33.4816 122.803 33.4094C122.437 33.1254 122.52 33.0859 122.567 33.0302C122.703 32.8721 122.872 32.7394 122.963 32.5608C123.033 32.428 123.053 32.2615 123.027 32.0746C123.001 31.7892 122.888 31.454 122.867 31.1818C122.852 30.9452 122.92 30.7676 122.947 30.5606C122.959 30.5108 122.888 30.4244 122.908 30.3787C122.932 30.3016 122.881 30.1695 123.052 30.18C123.254 30.1936 123.315 30.1551 123.007 29.8865C122.835 29.7328 122.891 29.6812 122.957 29.6559C123.04 29.6165 123.207 29.6361 123.377 29.6466C123.58 29.6601 123.787 29.6869 123.571 29.4591C123.453 29.3299 123.578 29.32 123.695 29.3283C124.242 29.3537 124.335 29.1214 124.345 28.83C124.354 28.4401 124.314 28.0166 124.318 27.6136C124.321 27.4613 124.378 27.3334 124.417 27.1975C124.546 26.7845 124.856 26.4845 125.196 26.1876C125.266 26.1309 125.344 26.0783 125.307 25.9635C125.229 25.6983 125.366 25.5625 125.582 25.4725C125.841 25.3583 125.811 25.0821 125.772 24.8018C125.76 24.7307 125.702 24.6392 125.759 24.6098C126.14 24.4186 125.969 23.8934 126.227 23.636C126.432 23.4211 126.789 23.2847 127.105 23.1411C127.355 23.0228 127.646 22.934 127.92 22.837C127.933 22.832 127.914 22.8015 127.931 22.7873C128.104 22.744 128.643 23.007 129.391 23.516C130.055 23.9661 130.413 24.2683 130.336 24.3656C130.26 24.463 130.138 24.5399 130.021 24.6301C130.03 24.6341 130.067 24.6505 130.099 24.6759Z" fill="#EBC464"/>
<path d="M99.5619 32.9463C99.7907 32.7528 99.9566 32.5531 100.267 32.374C100.546 32.2141 100.822 32.0633 100.578 31.8232C100.518 31.7632 100.583 31.7156 100.594 31.6659C100.603 31.5715 100.626 31.472 100.604 31.3745C100.602 31.3298 100.437 31.2564 100.494 31.2271C100.796 31.0662 100.904 30.8735 100.629 30.6303C101.028 30.5234 100.773 30.3331 100.685 30.1623C100.588 29.9875 100.689 29.8354 100.425 29.641C100.351 29.586 100.331 29.5332 100.388 29.5038C100.746 29.2913 100.658 29.022 100.615 28.7509C100.566 28.4665 100.707 28.2007 101.091 27.9781C101.297 27.8617 101.312 27.7043 101.324 27.5561C101.347 27.3805 101.258 27.1874 101.255 26.9996C101.243 26.7315 101.173 26.4704 100.945 26.1715C100.637 25.782 100.402 25.4028 100.242 25.0248C100.162 24.8358 100.312 24.6726 100.389 24.4992C100.553 24.1563 100.794 23.8369 100.918 23.4869C101.01 23.2322 101.011 22.959 100.991 22.6869C100.975 22.4279 100.851 22.1647 100.813 21.9068C100.726 21.1451 100.662 20.3825 100.575 19.6208C100.558 19.438 100.478 19.249 100.443 19.058C100.43 18.9646 100.435 18.8793 100.463 18.7931C100.552 18.4714 100.672 18.1528 100.739 17.832C100.835 17.3713 100.873 16.8951 100.973 16.4252C101.024 16.1633 101.129 15.9036 100.901 15.6047C100.84 15.5223 101.059 15.5217 101.529 15.6221C102.346 15.779 103.204 15.9431 103.677 16.1328C104.001 16.2664 104.243 16.3857 104.108 16.4677C103.908 16.5973 104.271 16.8142 103.751 16.8995C103.68 16.9116 103.699 16.9421 103.728 16.9767C104.221 17.5147 103.859 17.9334 103.735 18.3819C103.692 18.527 103.762 18.6896 103.769 18.846C103.768 18.9445 103.759 19.0389 103.737 19.1383C103.707 19.2784 103.605 19.4082 103.616 19.5554C103.63 19.6712 103.774 19.7903 103.269 19.8167C103.167 19.8257 103.183 19.8876 103.301 19.9183C103.741 20.0603 103.682 20.1435 103.654 20.2297C103.584 20.4611 103.482 20.6893 103.452 20.9279C103.428 21.1035 103.477 21.2894 103.566 21.4825C103.695 21.7812 103.919 22.0893 104.039 22.384C104.139 22.6258 104.132 22.8634 104.187 23.1072C104.194 23.1651 104.286 23.2282 104.293 23.2861C104.302 23.3887 104.392 23.5056 104.23 23.5753C104.041 23.6552 103.999 23.7242 104.382 23.8731C104.596 23.9578 104.559 24.04 104.521 24.0998C104.462 24.183 104.291 24.2486 104.132 24.3093C103.934 24.385 103.727 24.4567 104.02 24.6096C104.171 24.688 104.062 24.7599 103.952 24.8095C103.434 25.038 103.429 25.3426 103.524 25.6697C103.65 26.0984 103.849 26.5374 103.993 26.9743C104.05 27.1419 104.043 27.3033 104.046 27.4689C104.072 27.9735 103.888 28.4605 103.685 28.9394C103.644 29.0307 103.59 29.1271 103.662 29.2358C103.834 29.488 103.749 29.7021 103.583 29.9018C103.375 30.1481 103.508 30.4377 103.655 30.7223C103.689 30.7924 103.777 30.8647 103.731 30.9204C103.444 31.3179 103.787 31.7998 103.648 32.2088C103.533 32.5406 103.251 32.8527 103 33.168C102.814 33.4134 102.565 33.6526 102.342 33.8816C102.325 33.8958 102.366 33.9253 102.349 33.9395C102.203 34.0712 101.606 34.0346 100.725 33.8491C99.9382 33.673 99.4969 33.5087 99.5316 33.3819C99.5654 33.2327 99.6622 33.0897 99.7274 32.9436C99.6431 32.9607 99.6025 32.9535 99.5619 32.9463Z" fill="#EBC464"/>
<path d="M65.1339 3.15724C64.9229 3.55587 64.7617 3.96576 64.4655 4.35916C64.1989 4.71098 63.9271 5.04959 64.1944 5.43187C64.2613 5.52744 64.1941 5.62885 64.1939 5.72734C64.1885 5.91111 64.1739 6.0908 64.204 6.26854C64.212 6.34877 64.3773 6.44451 64.3224 6.51853C64.0293 6.88046 63.9382 7.25597 64.2238 7.64641C63.8283 7.91879 64.0968 8.22491 64.2038 8.52464C64.3109 8.82437 64.221 9.12373 64.5027 9.4248C64.5777 9.50211 64.6039 9.59049 64.5449 9.67363C64.2069 10.136 64.2994 10.6154 64.3696 11.0958C64.4366 11.6077 64.3159 12.1232 63.9433 12.614C63.7489 12.8776 63.7433 13.1598 63.7377 13.4421C63.7299 13.7782 63.8247 14.1053 63.8393 14.4404C63.8648 14.9227 63.9573 15.4021 64.2072 15.8971C64.54 16.5496 64.8058 17.205 64.9863 17.8551C65.0771 18.1914 64.9435 18.515 64.8728 18.8449C64.7314 19.5046 64.5089 20.1499 64.4081 20.8168C64.331 21.3081 64.3484 21.8087 64.388 22.3083C64.4217 22.7724 64.5629 23.2408 64.6149 23.713C64.7513 25.0992 64.8696 26.4772 65.0061 27.8635C65.043 28.1976 65.1246 28.5297 65.1707 28.8679C65.1958 29.0325 65.1853 29.203 65.1698 29.3604C65.1026 29.9766 64.9948 30.5856 64.9541 31.1917C64.8895 32.0719 64.8787 32.9542 64.809 33.8211C64.7725 34.3196 64.6823 34.8159 64.9372 35.3241C65.0059 35.4644 64.7794 35.5055 64.3064 35.4366C63.4731 35.3163 62.6133 35.206 62.1274 34.9451C61.8018 34.7668 61.5442 34.608 61.6745 34.4143C61.868 34.1283 61.4868 33.8047 61.9991 33.5407C62.0692 33.5063 62.0531 33.4443 62.0196 33.3965C61.4842 32.5112 61.8188 31.664 61.925 30.8133C61.9621 30.5342 61.8824 30.2467 61.8657 29.9654C61.8579 29.7867 61.8633 29.6029 61.8819 29.4141C61.9109 29.1532 61.9977 28.8853 61.9728 28.6223C61.9508 28.4263 61.803 28.2179 62.3018 28.0574C62.4034 28.0261 62.3853 27.9194 62.2717 27.8796C61.8171 27.7204 61.8773 27.5611 61.8969 27.3946C61.9536 26.949 62.0418 26.5064 62.0538 26.0628C62.0574 25.7358 62.0022 25.3935 61.9074 25.0664C61.7551 24.5493 61.5175 24.027 61.3742 23.514C61.2613 23.0802 61.2561 22.6507 61.1838 22.2241C61.1707 22.1307 61.0765 22.0229 61.0676 21.9203C61.0506 21.7375 60.9525 21.5403 61.1153 21.3721C61.2954 21.1897 61.3383 21.0446 60.9447 20.8469C60.7205 20.7358 60.7543 20.5866 60.7982 20.4638C60.8584 20.3045 61.0171 20.1454 61.1717 19.9954C61.365 19.8079 61.5592 19.6428 61.2632 19.4229C61.106 19.3089 61.2068 19.1568 61.3268 19.0352C61.8406 18.498 61.8163 17.9395 61.6975 17.3717C61.5477 16.6038 61.3217 15.8348 61.1495 15.0679C61.0871 14.7662 61.0786 14.4667 61.0609 14.163C60.9977 13.2257 61.1588 12.3011 61.3291 11.3805C61.366 11.1998 61.4161 11.0141 61.3322 10.8342C61.139 10.4084 61.2109 10.0024 61.3721 9.59252C61.5608 9.09637 61.4135 8.59248 61.253 8.09364C61.2167 7.97884 61.1174 7.85783 61.1572 7.74418C61.4227 6.95373 61.0384 6.14682 61.1648 5.34899C61.2625 4.71357 61.5256 4.07541 61.7532 3.44328C61.9288 2.95218 62.1582 2.46321 62.3652 1.97522C62.3775 1.94782 62.34 1.90918 62.3563 1.87265C62.501 1.59777 63.089 1.53187 63.9872 1.70313C64.786 1.85186 65.2426 2.05579 65.2136 2.31668C65.1857 2.59991 65.1039 2.881 65.0486 3.152C65.0527 3.14287 65.0933 3.15005 65.1339 3.15724Z" fill="#EBC464"/>
<path d="M86.7534 3.39595C86.5015 3.77001 86.2978 4.16053 85.9616 4.52036C85.6591 4.84197 85.3531 5.14991 85.5784 5.55834C85.6348 5.66045 85.5572 5.75418 85.5466 5.85209C85.5218 6.03425 85.4883 6.21139 85.4994 6.39133C85.4988 6.47195 85.6531 6.58466 85.5906 6.65244C85.2608 6.9813 85.1305 7.34507 85.3732 7.76354C84.9511 7.99252 85.1856 8.32535 85.2604 8.63473C85.3351 8.94411 85.214 9.23226 85.4622 9.56147C85.5286 9.64628 85.5454 9.73694 85.4778 9.81337C85.0928 10.2374 85.1341 10.7239 85.153 11.209C85.1655 11.7251 84.9908 12.225 84.5684 12.6735C84.3471 12.9151 84.3117 13.1951 84.2762 13.4752C84.2329 13.8086 84.2926 14.1439 84.2716 14.4786C84.2459 14.961 84.2872 15.4475 84.4832 15.9661C84.7451 16.6501 84.94 17.33 85.0507 17.9956C85.1053 18.3396 84.9382 18.6473 84.833 18.9678C84.6226 19.6088 84.3329 20.227 84.1621 20.8795C84.0335 21.3598 83.9977 21.8594 83.9843 22.3605C83.9686 22.8255 84.0595 23.3062 84.0611 23.7812C84.0501 25.1741 84.0218 26.5569 84.0107 27.9498C84.0121 28.2859 84.0581 28.6249 84.0681 28.9661C84.0756 29.1323 84.0471 29.3008 84.015 29.4556C83.883 30.0613 83.7114 30.6554 83.6067 31.2538C83.4493 32.1222 83.3451 32.9984 83.1841 33.8531C83.095 34.3449 82.9527 34.8289 83.1524 35.3612C83.2059 35.508 82.9764 35.5249 82.5133 35.4063C81.6973 35.1984 80.854 34.9977 80.3985 34.6869C80.0936 34.4752 79.8543 34.2899 80.0044 34.1111C80.2271 33.8472 79.8823 33.4851 80.4196 33.2768C80.493 33.25 80.4835 33.1867 80.4553 33.1356C80.0166 32.1985 80.4391 31.3915 80.6347 30.5569C80.7011 30.2832 80.6523 29.9889 80.6655 29.7074C80.6767 29.5289 80.7015 29.3468 80.74 29.161C80.7964 28.9046 80.9111 28.6474 80.9142 28.3832C80.9131 28.186 80.7881 27.9631 81.3012 27.8563C81.4055 27.836 81.3988 27.728 81.29 27.6764C80.8549 27.4699 80.9316 27.3179 80.9687 27.1544C81.0723 26.7173 81.2068 26.2866 81.2657 25.8467C81.3039 25.522 81.2853 25.1757 81.2256 24.8404C81.1289 24.3101 80.9479 23.7656 80.8598 23.2403C80.7934 22.797 80.8337 22.3693 80.8069 21.9375C80.8039 21.8432 80.7216 21.726 80.7236 21.6231C80.7261 21.4395 80.6494 21.2331 80.8291 21.083C81.0274 20.9207 81.0855 20.7809 80.715 20.5427C80.5039 20.4085 80.5533 20.2637 80.6099 20.1462C80.6866 19.9942 80.8613 19.8528 81.0309 19.72C81.2429 19.5541 81.4536 19.4104 81.1824 19.1604C81.0382 19.0304 81.1546 18.8898 81.2868 18.7816C81.8546 18.3019 81.8895 17.7439 81.8315 17.1667C81.7638 16.3873 81.6205 15.5987 81.5305 14.8178C81.5004 14.5113 81.5236 14.2125 81.5381 13.9087C81.5745 12.97 81.8326 12.0676 82.0994 11.1702C82.1552 10.9944 82.2247 10.8151 82.1603 10.6273C82.0133 10.1835 82.1278 9.78734 82.3314 9.39681C82.5717 8.92344 82.4786 8.40679 82.3718 7.89376C82.3478 7.77576 82.2619 7.64491 82.3135 7.53612C82.6612 6.77822 82.3645 5.93515 82.5746 5.15519C82.739 4.53368 83.0682 3.92697 83.3615 3.32249C83.5881 2.85274 83.8679 2.39079 84.1254 1.92746C84.1405 1.90152 84.1073 1.85912 84.1274 1.82453C84.3004 1.5665 84.8921 1.56323 85.7672 1.82862C86.5457 2.06108 86.9781 2.31219 86.9217 2.56856C86.8639 2.84724 86.7529 3.1181 86.6692 3.38171C86.6742 3.37306 86.7138 3.3845 86.7534 3.39595Z" fill="#EBC464"/>
<path d="M11.8953 35.8055C12.0349 35.5174 12.1167 35.2363 12.3315 34.9271C12.53 34.6543 12.7285 34.3816 12.408 34.2165C12.3258 34.1798 12.3716 34.1017 12.3555 34.0397C12.3283 33.929 12.3102 33.8223 12.2566 33.7217C12.2323 33.678 12.0567 33.6543 12.1035 33.5986C12.3193 33.3116 12.3533 33.0639 11.9972 32.9049C12.3348 32.6395 12.0213 32.5323 11.8621 32.3736C11.7122 32.219 11.744 32.0251 11.4213 31.9138C11.3351 31.8862 11.2925 31.8344 11.3394 31.7786C11.5878 31.4186 11.4106 31.1533 11.2689 30.882C11.1131 30.5933 11.1432 30.2563 11.4171 29.8638C11.5647 29.656 11.5173 29.4924 11.4739 29.3197C11.4205 29.1206 11.2696 28.9437 11.2029 28.7496C11.0968 28.4722 10.9237 28.1977 10.5962 27.9748C10.153 27.6673 9.7851 27.3386 9.50145 26.9929C9.3505 26.8159 9.43013 26.5886 9.43866 26.3734C9.46484 25.947 9.56212 25.5086 9.54363 25.0841C9.53 24.7714 9.43207 24.4757 9.30772 24.1902C9.19755 23.9219 8.97161 23.6676 8.84823 23.4044C8.46898 22.6107 8.12527 21.811 7.74601 21.0173C7.65703 20.8242 7.5152 20.6513 7.413 20.4633C7.36851 20.3668 7.33724 20.2652 7.32829 20.1626C7.28941 19.7838 7.28102 19.3858 7.21572 19.0171C7.12942 18.4747 6.98116 17.9485 6.89486 17.4061C6.84569 17.0994 6.84527 16.7816 6.51268 16.5454C6.4204 16.4823 6.63173 16.4015 7.11213 16.3313C7.93479 16.2059 8.78797 16.0613 9.30878 16.0968C9.65902 16.1218 9.92904 16.1549 9.84145 16.3019C9.70296 16.5139 10.1282 16.6162 9.67074 16.9047C9.60975 16.9432 9.63811 16.9778 9.67463 16.9941C10.341 17.3903 10.1652 17.9799 10.2201 18.5191C10.241 18.6928 10.3596 18.8443 10.4293 19.0069C10.4697 19.1126 10.4969 19.2233 10.5109 19.3391C10.536 19.5036 10.49 19.6802 10.5638 19.8336C10.6225 19.9475 10.8051 20.029 10.3447 20.2505C10.2482 20.295 10.2866 20.356 10.4075 20.3552C10.8725 20.3439 10.8459 20.4525 10.8549 20.5551C10.8848 20.8313 10.866 21.1186 10.9315 21.3888C10.9849 21.5879 11.1003 21.7709 11.2513 21.9479C11.4914 22.2194 11.8158 22.4739 12.0336 22.7464C12.2139 22.9803 12.3008 23.2272 12.4414 23.4762C12.4708 23.5331 12.5844 23.5729 12.6046 23.6257C12.645 23.7314 12.7789 23.8241 12.6507 23.964C12.5052 24.118 12.4827 24.2175 12.904 24.2304C13.1416 24.238 13.1373 24.3456 13.1138 24.4227C13.0872 24.5313 12.959 24.6712 12.8258 24.7979C12.6712 24.9479 12.5125 25.107 12.8373 25.1644C13.0088 25.1973 12.9375 25.3078 12.848 25.4102C12.4511 25.8572 12.5683 26.1833 12.7698 26.4924C13.0523 26.9143 13.4099 27.315 13.7016 27.741C13.816 27.9016 13.8685 28.0784 13.9433 28.2542C14.1595 28.7998 14.1716 29.3857 14.1664 29.9858C14.1672 30.1066 14.1456 30.2284 14.2612 30.3129C14.5208 30.5165 14.5233 30.7805 14.4416 31.0616C14.3445 31.4015 14.5755 31.669 14.8197 31.9314C14.8805 31.9914 14.99 32.0404 14.9665 32.1175C14.8467 32.6554 15.3516 33.0452 15.3781 33.5499C15.3956 33.952 15.2496 34.4016 15.1432 34.8359C15.0593 35.1708 14.9175 35.5127 14.8072 35.8577C14.799 35.876 14.8447 35.8964 14.8365 35.9146C14.7468 36.1155 14.1819 36.3013 13.2872 36.4164C12.495 36.5225 12.0107 36.5033 11.9907 36.352C11.9697 36.1783 11.9975 35.9936 12.0029 35.8098C11.9704 35.7844 11.9349 35.7904 11.8953 35.8055Z" fill="#EBC464"/>
<path d="M35.5961 34.5313C35.7704 34.169 35.8773 33.8178 36.1398 33.426C36.3818 33.0802 36.6237 32.7343 36.2589 32.5439C36.1652 32.502 36.2217 32.4034 36.2056 32.3275C36.1788 32.1917 36.1624 32.0606 36.1045 31.9384C36.0782 31.8854 35.8755 31.8636 35.9322 31.7926C36.1948 31.4285 36.2448 31.1207 35.8385 30.9392C36.2415 30.5965 35.8824 30.4773 35.7046 30.2878C35.5372 30.103 35.5824 29.8618 35.2128 29.738C35.1139 29.7076 35.0668 29.6453 35.1235 29.5743C35.4271 29.1184 35.2329 28.7978 35.0802 28.4683C34.9118 28.1179 34.9611 27.6997 35.2956 27.2026C35.4758 26.9392 35.4278 26.7389 35.3849 26.5272C35.3314 26.2832 35.1639 26.0708 35.0949 25.8336C34.9837 25.4951 34.7946 25.163 34.4241 24.9012C33.9232 24.5399 33.5104 24.1491 33.1961 23.7336C33.0285 23.5212 33.1307 23.2367 33.1498 22.9701C33.1984 22.4416 33.33 21.8952 33.3267 21.371C33.3243 20.9847 33.2234 20.6232 33.0913 20.2754C32.975 19.9483 32.7237 19.6434 32.5919 19.3232C32.1859 18.3577 31.8213 17.3833 31.4153 16.4178C31.3203 16.1828 31.1632 15.975 31.0527 15.7468C31.0052 15.6293 30.9733 15.505 30.9673 15.3785C30.9384 14.9116 30.9457 14.4197 30.8857 13.9665C30.8088 13.2993 30.6593 12.6548 30.5824 11.9877C30.5385 11.6104 30.5516 11.2173 30.1759 10.9394C30.0715 10.8653 30.3202 10.7563 30.8805 10.6489C31.8403 10.4587 32.8363 10.2433 33.439 10.2649C33.8443 10.2809 34.1561 10.3101 34.0482 10.4958C33.8785 10.7638 34.3674 10.8722 33.8244 11.2486C33.7519 11.2988 33.7834 11.3404 33.825 11.359C34.5811 11.8206 34.352 12.5573 34.3925 13.222C34.4095 13.4359 34.5405 13.6182 34.6144 13.8163C34.6568 13.9453 34.6836 14.0811 34.6949 14.2237C34.7169 14.4261 34.656 14.6465 34.7351 14.8331C34.7983 14.9714 35.0066 15.0645 34.4631 15.3581C34.3491 15.4173 34.3912 15.4911 34.5314 15.485C35.0714 15.4511 35.0359 15.5865 35.0419 15.713C35.0648 16.0534 35.0306 16.4096 35.0951 16.741C35.1485 16.985 35.2746 17.2063 35.4421 17.4187C35.7091 17.7443 36.0746 18.0451 36.3156 18.3729C36.5148 18.6544 36.605 18.9561 36.7575 19.2581C36.7891 19.3272 36.9192 19.3716 36.9404 19.4361C36.9828 19.5651 37.1341 19.674 36.9794 19.8525C36.804 20.0492 36.7736 20.1732 37.2619 20.1712C37.5372 20.1704 37.5276 20.3037 37.4971 20.4001C37.4616 20.5355 37.3068 20.714 37.1468 20.8764C36.961 21.0685 36.7701 21.2721 37.1445 21.3293C37.3421 21.3625 37.2546 21.5023 37.1464 21.6328C36.6668 22.2027 36.7888 22.6011 37.0093 22.9747C37.319 23.4844 37.7168 23.9648 38.0369 24.4792C38.1628 24.673 38.2161 24.8893 38.2953 25.1036C38.5229 25.7692 38.5118 26.4934 38.4801 27.2358C38.4758 27.3852 38.4456 27.5368 38.5761 27.6363C38.8685 27.877 38.8602 28.2034 38.7533 28.5546C38.6261 28.9792 38.8826 29.3002 39.1547 29.6143C39.2227 29.6859 39.3477 29.7418 39.3171 29.8382C39.1551 30.5086 39.7242 30.9692 39.7333 31.5923C39.7364 32.0889 39.5477 32.6511 39.4057 33.193C39.294 33.6108 39.1149 34.0397 38.9722 34.4712C38.9619 34.4941 39.014 34.5174 39.0037 34.5403C38.891 34.7926 38.2277 35.0465 37.1848 35.2272C36.2612 35.3924 35.7002 35.3894 35.6834 35.2031C35.6665 34.9892 35.7066 34.7595 35.7208 34.5319C35.6842 34.5019 35.6427 34.5108 35.5961 34.5313Z" fill="#EBC464"/>
</svg>
