<svg width="609" height="611" viewBox="0 0 609 611" fill="none" xmlns="http://www.w3.org/2000/svg">
<rect x="-12" y="120.81" width="517" height="520" rx="60" transform="rotate(-15 -12 120.81)" fill="#C0E3EB"/>
<path d="M160.998 99.8091C126.498 134.476 153.999 226.809 213.999 292.809C288.999 375.309 243.499 532.309 213.999 546.809C184.499 561.309 375.499 560.309 452.999 506.309C530.499 452.309 270.999 485.309 242.499 420.809C213.999 356.309 501.999 226.809 495.499 305.309C488.999 383.809 425.999 413.309 396.499 420.809C366.999 428.309 348.763 140.397 177.5 212.309C86.9995 250.309 296.999 27.3091 403.999 125.809C510.999 224.309 307.925 305.309 265.999 305.309C224.073 305.309 139.499 342.309 171.499 430.309C197.099 500.709 175.166 528.642 161 533.809" stroke="#FDFDFD" stroke-width="6" stroke-dasharray="10 10"/>
</svg>
