<svg width="634" height="637" viewBox="0 0 634 637" fill="none" xmlns="http://www.w3.org/2000/svg">
<rect y="133.81" width="517" height="520" rx="60" transform="rotate(-15 0 133.81)" fill="#F1D1D5"/>
<path d="M172.997 112.809C138.497 147.475 165.998 239.809 225.998 305.809C300.998 388.309 255.498 545.308 225.998 559.808C196.498 574.308 387.498 573.308 464.998 519.308C542.498 465.308 282.998 498.308 254.498 433.808C225.998 369.308 513.998 239.809 507.498 318.309C500.998 396.809 437.998 426.308 408.498 433.808C378.998 441.308 360.762 153.397 189.498 225.309C98.9983 263.309 308.998 40.3086 415.998 138.809C522.998 237.309 319.923 318.309 277.998 318.309C236.072 318.309 151.498 355.309 183.498 443.309C209.098 513.709 187.165 541.642 172.998 546.809" stroke="#FDFDFD" stroke-width="6" stroke-dasharray="10 10"/>
</svg>
