<svg width="194" height="216" viewBox="0 0 194 216" fill="none" xmlns="http://www.w3.org/2000/svg">
<path d="M177.924 148.049C179.264 149.389 180.634 150.709 181.924 152.059L182.814 152.979L183.844 153.989C183.414 154.309 183.014 154.609 182.614 154.929C182.224 155.249 181.934 155.499 181.604 155.809C181.284 156.109 180.884 156.379 180.524 156.659L178.564 158.219C178.274 158.459 178.004 158.769 177.714 158.969C176.264 159.929 174.884 160.969 173.614 162.169C172.824 162.639 172.314 163.049 171.854 163.469C172.184 163.689 172.514 163.899 172.844 164.119C173.364 164.469 173.944 164.909 174.484 165.299C174.964 165.639 175.774 166.219 176.624 166.779C176.734 166.849 176.844 166.929 176.954 166.999C176.674 167.249 176.324 167.539 175.984 167.779C175.454 168.169 174.924 168.559 174.394 168.949L173.094 169.969C172.244 170.669 171.394 171.369 170.544 172.079L169.204 173.179L168.314 173.859C169.104 174.299 169.904 174.729 170.694 175.169C171.704 175.749 173.204 176.439 174.544 177.069L174.574 177.079L170.094 179.339C168.104 180.329 166.144 181.349 164.214 182.429C161.644 183.879 159.034 185.309 156.404 186.699C155.734 187.049 155.044 187.389 154.354 187.709C153.214 188.249 152.074 188.779 150.934 189.319L149.144 190.159C148.724 190.029 148.254 189.949 147.744 189.919C147.864 189.409 148.054 188.879 148.284 188.319L149.834 186.669L152.874 183.379L155.184 180.819L159.054 176.399L159.254 176.159L158.534 175.929L156.614 175.249L151.294 173.339L159.464 165.319L160.974 163.809L161.314 163.469L161.324 163.449C161.324 163.439 161.324 163.429 161.314 163.429H161.304H161.284L160.444 162.939L153.814 158.999L156.844 156.329L165.954 148.259C167.684 146.739 169.424 145.229 171.044 143.609C171.504 143.159 171.724 143.099 171.704 143.439C171.674 144.029 171.714 144.569 171.054 145.489C170.604 146.109 170.174 146.669 169.434 147.239C168.374 148.069 167.434 149.149 166.284 149.849C166.124 149.949 165.924 150.139 165.774 150.289C164.384 151.709 162.924 153.059 161.434 154.369L157.044 158.179L156.414 158.739L158.354 159.819L160.544 161.089L162.024 161.979L163.944 163.109L163.744 163.299C163.324 163.709 162.914 164.139 162.484 164.539C162.124 164.869 161.804 165.119 161.414 165.319C161.254 165.399 160.914 165.749 160.824 165.909C160.514 166.529 159.944 167.039 159.384 167.559L154.884 171.799L153.874 172.799L155.614 173.369L158.314 174.239L159.884 174.749L162.034 175.479L160.594 177.129C159.224 178.679 157.844 180.239 156.474 181.789L155.594 182.839C155.034 183.469 154.474 184.149 153.884 184.679C153.554 184.969 153.274 185.239 153.024 185.529C152.944 185.619 152.954 185.609 152.934 185.639C152.924 185.659 152.914 185.689 152.914 185.709C152.904 185.759 152.914 185.799 152.964 185.819C153.064 185.869 153.044 185.879 152.964 185.949L152.884 186.009C152.754 186.099 152.504 186.279 152.194 186.529C151.934 186.739 151.614 186.999 151.464 187.159C151.544 187.129 151.754 186.999 152.084 186.769C152.484 186.489 152.424 186.569 152.474 186.609C152.484 186.619 152.484 186.619 152.494 186.629C152.564 186.659 152.724 186.619 152.934 186.549L153.274 186.419L153.454 186.339L153.854 186.149C154.974 185.619 156.084 185.049 157.194 184.479L166.524 179.579L170.224 177.709L171.464 177.089L171.324 177.019L171.284 176.999L171.124 176.919L170.294 176.519L165.444 174.199L168.004 172.179C168.384 171.879 168.774 171.579 169.154 171.269C169.484 171.009 169.814 170.739 170.114 170.459C170.834 169.819 171.564 169.209 172.314 168.609L173.444 167.729L174.014 167.299L174.154 167.189C174.184 167.169 174.174 167.179 174.184 167.169L174.234 167.139C174.294 167.109 174.354 167.079 174.414 167.039C174.354 166.989 174.284 166.929 174.214 166.879L173.124 166.089L169.604 163.549L169.534 163.499C170.274 162.889 171.034 162.229 171.844 161.619C174.894 159.369 177.594 156.979 180.524 154.719L181.544 153.939C181.554 153.939 181.584 153.939 181.614 153.919C181.594 153.889 181.654 153.909 181.544 153.799L180.434 152.739L178.214 150.609L173.284 145.819C173.174 145.719 173.054 145.619 172.944 145.519C172.014 144.599 171.904 144.109 172.664 144.179C173.334 144.249 174.134 144.649 175.004 145.439L177.864 148.089L177.924 148.049Z" fill="#87B1D9"/>
<path d="M70.7742 26.7894C70.4942 27.5594 70.1042 28.2994 69.7642 29.0294C69.3242 29.7194 68.9642 30.4494 68.4542 31.0694C67.5842 32.2094 66.6542 33.2294 65.7442 34.3594C65.5042 34.6494 65.2042 34.9194 64.9242 35.1894C64.4042 35.6694 63.8442 36.1094 63.3142 36.5794C63.0542 36.7694 62.8242 37.0294 62.5642 37.1794C62.2442 37.3694 61.9242 37.5494 61.6042 37.7394L60.6242 38.2494L59.6642 38.7894C59.3342 38.9494 59.0142 39.1294 58.6842 39.3094C58.4042 39.3794 58.1342 39.4694 57.8642 39.5794C57.5942 39.6594 57.3242 39.7494 57.0542 39.8494C56.5142 40.0294 56.0042 40.3194 55.4442 40.4494C54.8842 40.6094 54.3142 40.7494 53.7542 40.8994C53.1742 40.9994 52.6042 41.0994 52.0442 41.2594C51.7442 41.3494 51.3942 41.3894 51.0842 41.3694C50.1342 41.3394 49.2042 41.3794 48.2642 41.2994C47.7942 41.2694 47.3242 41.2794 46.8542 41.2294L45.4442 41.0794C43.4442 40.7794 41.4642 40.1794 39.7242 39.1694C39.2542 38.9194 38.7642 38.6794 38.3042 38.3794C37.8342 38.0894 37.3342 37.8594 36.8942 37.5494C36.3642 37.1794 35.8142 36.8394 35.2842 36.4594C34.7842 36.0494 34.2642 35.6594 33.7642 35.2294C32.3942 33.9294 31.1242 32.5394 30.0242 30.9894C28.5542 28.9194 27.4942 26.4894 27.0042 23.9194C26.8442 23.2694 26.8142 22.5994 26.7942 21.9194C26.7842 21.5794 26.7642 21.2494 26.7742 20.9094L26.8542 19.8994C27.0642 17.2194 27.8642 14.6294 29.0942 12.2794C29.9842 10.4894 31.1842 8.87937 32.5142 7.39937C33.7442 5.99937 35.2042 4.82937 36.7342 3.75937C41.3842 0.719368 47.1342 -0.490634 52.6642 0.179366C53.3342 0.259366 54.0042 0.319369 54.6542 0.479369C55.3042 0.629369 55.9842 0.719368 56.6142 0.939368C57.2542 1.14937 57.9142 1.32937 58.5242 1.60937C60.8442 2.54937 62.9742 3.92937 64.8642 5.57937C67.6042 7.89937 69.6942 10.9694 70.9342 14.3594C71.1342 14.8294 71.2242 15.3394 71.3742 15.8294C71.5142 16.3194 71.6542 16.8094 71.7242 17.3194L72.0042 18.8294C72.0542 19.3394 72.1042 19.8494 72.1642 20.3594C72.2342 20.9294 72.1342 21.1194 71.8742 20.9094C71.4342 20.5494 70.9942 20.2794 70.6942 19.3794C70.5142 18.7694 70.2242 18.2394 70.1842 17.4794C70.1642 16.9194 69.9242 16.3894 69.7942 15.8494C69.6642 15.2994 69.4642 14.7794 69.3742 14.2294C69.3542 14.0694 69.2542 13.8694 69.1742 13.7094C67.6442 10.8194 65.6542 8.17937 63.1142 6.09937C62.7142 5.74937 62.2442 5.47937 61.8042 5.17937C61.3642 4.86937 60.8942 4.61937 60.4242 4.36937L59.5142 3.86937L58.5642 3.43937C57.6642 2.98937 56.7042 2.66937 55.7442 2.35937C55.0042 2.18937 54.2742 2.09937 53.6442 1.69937C53.5142 1.62937 53.1042 1.58937 52.9642 1.61937C52.3942 1.77937 51.7842 1.61937 51.1542 1.59937C50.3042 1.56937 49.4642 1.44937 48.6142 1.50937L47.3442 1.54937C46.9242 1.56937 46.5042 1.64937 46.0842 1.70937C45.4642 1.78937 44.8442 1.88937 44.2442 2.07937C43.6442 2.24937 43.0242 2.37937 42.4542 2.62937C40.6142 3.24937 38.9642 4.26937 37.3842 5.31937C36.7542 5.80937 36.0742 6.23937 35.5042 6.78937L34.6042 7.57937L33.7842 8.44937C33.5342 8.71937 33.3042 8.99937 33.0942 9.29937C32.6842 9.82937 32.2642 10.3694 31.8642 10.8794C31.4242 11.4194 31.0542 11.8494 30.9542 12.5294C30.8942 12.9094 30.6042 13.3894 30.3942 13.8094C30.1542 14.3494 29.8642 14.8694 29.5742 15.3894C29.3142 16.0394 29.0042 16.6494 28.9942 17.4294C29.0042 17.8494 28.8642 18.3894 28.7342 18.8394C28.2642 20.8394 28.3842 22.9894 28.8942 25.0094C29.6342 27.7494 31.0542 30.2494 32.8942 32.3394L33.4242 32.9594L34.0142 33.5394C34.4042 33.9194 34.7742 34.3294 35.2242 34.6594L36.2142 35.4694L37.2642 36.1994C37.9442 36.7194 38.7242 37.0694 39.4542 37.5194C40.9942 38.2594 42.5742 38.9494 44.2442 39.3294C44.5742 39.4094 44.8942 39.5094 45.2342 39.5794C45.5742 39.6294 45.9042 39.6694 46.2342 39.6894C46.6142 39.7094 46.9942 39.7694 47.3742 39.7794L48.5242 39.8194C49.2842 39.8894 50.0442 39.8494 50.8142 39.8494C51.2742 39.8694 51.7342 39.8194 52.1942 39.7494C52.6542 39.6894 53.1042 39.6194 53.5542 39.5394C54.4342 39.2794 55.3442 39.1094 56.1742 38.7294C56.5742 38.5694 56.9642 38.3994 57.3642 38.2694C60.1342 37.2894 62.5142 35.4794 64.5542 33.4494C66.2042 31.7994 67.6342 29.8994 68.6242 27.7594C69.4342 26.1194 69.9142 24.3394 70.1842 22.5094C70.1942 22.3894 70.1842 22.2594 70.1942 22.1394C70.3142 21.0994 70.6342 20.7494 71.0542 21.2694C71.4142 21.7294 71.6642 22.4994 71.5142 23.5194L71.2042 25.1894L70.7142 26.8094L70.7742 26.7894Z" fill="#87B1D9"/>
<path d="M111.665 14.4395C115.615 13.1895 119.805 12.4595 123.905 12.6995C125.735 12.8395 127.515 13.1395 129.275 13.5895C131.015 14.0995 132.735 14.7095 134.415 15.5195C134.865 15.6995 135.275 15.9995 135.715 16.2495C136.155 16.5095 136.585 16.7795 136.985 17.0895L138.095 17.8895C138.455 18.1695 138.785 18.4795 139.135 18.7795C139.845 19.3495 140.465 20.0195 141.115 20.6595C141.715 21.2295 142.285 21.9095 142.765 22.5095C145.015 25.6095 146.365 29.1895 147.285 32.8695C147.675 35.7995 147.985 38.6895 147.915 41.6695C147.845 44.6395 147.355 47.6295 146.815 50.5195C146.705 51.2895 146.445 52.1495 146.225 52.9095C145.485 55.1895 144.695 57.4495 143.755 59.6595C142.835 61.8695 141.805 64.0495 140.605 66.1395C138.065 70.6095 134.835 74.8595 130.485 77.7095C129.905 78.0795 129.285 78.4095 128.665 78.7395C128.015 78.9995 127.385 79.3495 126.685 79.5095C126.015 79.7495 125.295 79.8295 124.585 79.9195C123.865 79.9095 123.145 79.9295 122.445 79.7595C121.615 79.5695 120.785 79.1895 120.175 78.5495C119.545 77.9195 119.225 77.0395 119.135 76.1895C118.955 74.4495 119.495 72.7795 120.145 71.2495C121.135 69.0195 122.495 66.9895 123.975 65.0995C125.465 63.2095 127.115 61.4395 128.845 59.7695C133.505 55.3195 138.995 51.6695 144.975 49.0195C148.015 47.6795 151.275 46.6695 154.545 45.9695C161.105 44.5595 167.935 44.3595 174.535 45.6295L176.405 45.9995L178.225 46.5595C179.465 46.8795 180.605 47.4695 181.775 47.9795C184.015 49.1895 186.215 50.6295 187.875 52.6295C188.075 52.8495 188.295 53.0595 188.485 53.2995L189.005 54.0295C189.345 54.5295 189.725 54.9995 190.025 55.5195C190.585 56.5795 191.215 57.6195 191.585 58.7595C192.505 60.9795 192.925 63.3695 193.155 65.7395C193.455 69.2695 193.095 72.8095 192.335 76.2295C191.575 79.6595 190.425 82.9795 188.995 86.1695C187.535 89.3495 185.765 92.3795 183.785 95.2595C181.805 98.1395 179.505 100.799 177.055 103.299C174.685 105.699 172.075 107.839 169.325 109.809C167.895 110.709 166.505 111.679 164.985 112.429C162.245 113.969 159.295 115.099 156.305 116.059C153.255 116.919 150.245 117.589 147.105 117.929C145.985 118.059 144.855 118.139 143.695 118.139C142.545 118.149 141.375 118.079 140.195 117.849C139.025 117.619 137.805 117.249 136.705 116.489C136.155 116.119 135.665 115.629 135.245 115.079C134.855 114.519 134.545 113.889 134.355 113.249C133.995 111.959 134.015 110.679 134.185 109.499C134.365 108.309 134.695 107.179 135.085 106.099C135.875 103.939 136.925 101.939 138.065 100.009C140.675 95.6495 143.735 91.6695 146.865 87.7595C147.745 86.6695 148.165 86.3895 147.985 86.9495C147.695 87.9095 147.545 88.7195 146.245 90.7195C145.365 92.0795 144.545 93.3395 143.315 94.9095C141.535 97.1995 140.015 99.8395 138.435 102.219C138.205 102.549 137.955 103.079 137.755 103.509C136.875 105.439 136.095 107.439 135.765 109.489C135.605 110.509 135.565 111.559 135.805 112.519C136.015 113.489 136.555 114.349 137.325 114.969C138.905 116.199 141.095 116.499 143.175 116.569C145.285 116.599 147.415 116.379 149.525 116.029C150.895 115.779 152.275 115.529 153.615 115.139C154.955 114.769 156.305 114.419 157.605 113.899C159.325 113.339 160.955 112.549 162.605 111.819C163.755 111.189 164.945 110.619 166.065 109.939C167.165 109.219 168.325 108.599 169.355 107.779C170.145 107.179 170.945 106.619 171.675 106.019C172.415 105.419 173.145 104.859 173.915 104.369C174.235 104.159 174.975 103.429 175.205 103.129C175.625 102.549 176.175 102.019 176.695 101.429C177.215 100.839 177.785 100.249 178.345 99.6495C181.305 96.3695 183.915 92.7695 186.045 88.8895C187.585 86.0095 188.935 82.9995 189.875 79.8895C190.235 78.6795 190.545 77.4595 190.825 76.2395C191.035 74.9995 191.325 73.7795 191.425 72.5295C191.765 70.0495 191.705 67.5395 191.475 65.0795C190.965 60.9995 189.575 56.9295 186.865 53.8695C186.195 53.2095 185.605 52.4895 184.835 51.9395C184.165 51.3995 183.495 50.8195 182.715 50.4195C181.965 49.9695 181.255 49.4895 180.505 49.1595C178.915 48.2695 177.505 47.8995 175.845 47.6095C174.875 47.5595 173.435 47.2095 172.205 47.0395C170.625 46.7995 169.055 46.6195 167.495 46.4895C165.625 46.3395 163.845 46.2895 161.845 46.6095C160.765 46.7795 159.275 46.9095 158.045 47.0595C152.625 47.6795 147.295 49.4795 142.385 51.9995C135.745 55.4495 129.695 60.1395 125.075 65.9295C123.305 68.1995 121.675 70.6695 120.855 73.2895C120.555 74.2995 120.385 75.3295 120.525 76.2095C120.675 77.0895 121.095 77.7095 121.855 78.0995C122.245 78.2795 122.685 78.4195 123.175 78.4895C123.415 78.5295 123.665 78.5095 123.905 78.5295C124.155 78.5295 124.395 78.5795 124.645 78.5195C125.145 78.4395 125.645 78.4195 126.135 78.2295L126.875 78.0095L127.595 77.6795C129.525 76.7995 131.285 75.3995 132.875 73.8495C134.455 72.2795 135.915 70.5395 137.195 68.6695C137.715 67.9495 138.185 67.1795 138.675 66.4295C139.125 65.6495 139.575 64.8795 139.975 64.0995C141.795 60.4595 143.375 56.7295 144.575 52.8495C145.295 50.5095 145.805 48.1195 146.145 45.7195C146.445 43.3095 146.555 40.8895 146.455 38.4895C146.345 37.3795 146.275 36.2495 146.115 35.1695C145.935 33.2495 145.435 31.3995 144.865 29.5895C144.175 27.8295 143.415 26.0795 142.315 24.5495C140.225 21.4395 137.245 18.8595 134.015 16.9995C131.345 15.5395 128.395 14.6195 125.345 14.3095C122.295 14.0095 119.165 14.2395 116.115 14.8995C111.395 15.9095 106.845 17.8095 102.615 20.2195C102.345 20.3895 102.055 20.5695 101.785 20.7295C99.4148 22.1595 98.5748 22.5195 99.3648 21.3595C100.105 20.3495 101.565 19.1095 103.825 17.8695C106.335 16.5195 108.945 15.3795 111.645 14.4695L111.665 14.4395Z" fill="#87B1D9"/>
<path d="M43.1534 12.0394L44.7633 28.1794C44.8633 29.2194 46.0533 29.7694 46.9133 29.1694L60.5634 19.6294C61.4434 19.0194 61.3033 17.6694 60.3233 17.2494L45.0634 10.6494C44.1034 10.2294 43.0534 10.9994 43.1534 12.0394Z" fill="#87B1D9"/>
<path d="M44.1234 14.4794C44.0934 15.1894 44.0934 15.8994 44.0234 16.6094C43.9634 17.2394 43.8934 17.8594 44.0934 18.4794C44.1434 18.6394 44.1334 18.8194 44.1534 18.9894L44.2634 19.9194C44.2834 20.0594 44.3834 20.1994 44.3634 20.3294C44.2934 20.9894 44.3134 21.6294 44.5334 22.2594C44.3934 22.7794 44.5834 23.2594 44.6934 23.7594C44.8034 24.2594 44.8134 24.7794 45.0134 25.2594C45.0634 25.3894 45.0934 25.5394 45.0834 25.6794C45.0034 26.5094 45.1434 27.3194 45.2734 28.1294C45.3734 28.6794 45.9234 29.1294 46.6234 28.9994C47.0034 28.8794 47.4434 28.5394 47.8234 28.2794C48.2934 27.9494 48.7234 27.5794 49.1834 27.2394C49.8534 26.7494 50.4934 26.2294 51.0934 25.6494C51.8934 24.8694 52.7134 24.1194 53.5634 23.3994C53.9934 23.0294 54.5034 22.7494 54.9834 22.4494C55.9534 21.8494 56.9334 21.2694 57.8934 20.6494C58.6134 20.1794 59.3034 19.6794 59.9934 19.1594C60.1834 19.0194 60.2334 18.9694 60.2834 18.8894C60.3334 18.8094 60.3534 18.7294 60.3634 18.6394C60.3834 18.4594 60.3034 18.2894 60.2134 18.1794C60.1734 18.1394 60.1334 18.0994 60.0834 18.0794C60.0334 18.0494 60.0134 18.0494 59.8334 17.9794L59.0034 17.6594L57.3434 17.0194L54.0234 15.7294C53.4934 15.5394 52.9534 15.3394 52.4134 15.1494C52.1434 15.0494 51.8834 14.9394 51.6234 14.8194L48.7434 13.4994L44.6034 11.6894C44.5234 11.6594 44.4734 11.6494 44.3934 11.6994C44.3234 11.7494 44.3134 11.8394 44.3834 11.8794C44.4234 11.8994 44.3034 11.9294 44.0734 11.9294C43.6734 11.8994 43.1734 11.7894 43.1134 11.2494C43.0934 10.8994 43.2434 10.4994 43.6734 10.3294C43.9734 10.2194 44.2934 10.1194 44.6334 10.1294C44.9734 10.1394 45.2834 10.2994 45.4334 10.5094C45.4834 10.5694 45.5834 10.5994 45.6634 10.6194C47.1334 10.9494 48.4334 11.6694 49.7834 12.2894C50.2234 12.4894 50.6834 12.6394 51.1334 12.8194C51.4234 12.9394 51.7134 13.0594 52.0034 13.1894C52.4234 13.3794 52.8234 13.5994 53.2534 13.7594C53.5734 13.8794 53.9134 13.9394 54.1034 14.2894C54.1434 14.3594 54.3134 14.4194 54.3934 14.3894C54.7034 14.2794 54.9534 14.4094 55.2134 14.5294C55.9134 14.8494 56.6034 15.1894 57.3034 15.4894C57.8234 15.7094 58.3634 15.9094 58.9034 16.0794C59.3234 16.2094 59.7434 16.3394 60.1734 16.4694C60.4034 16.5494 60.5534 16.5594 60.8934 16.7194C61.1934 16.8694 61.4534 17.1094 61.6434 17.3994C61.9634 17.8794 62.0634 18.4994 61.9234 19.0794C61.8534 19.3694 61.7134 19.6494 61.5334 19.8894C61.3634 20.1194 61.0534 20.3494 60.9534 20.4294C60.8234 20.5394 60.7134 20.6694 60.5734 20.7694C60.3234 20.9594 60.0834 21.1894 59.8034 21.2894C59.4834 21.3994 59.2634 21.5394 59.1334 21.8694C59.0634 22.0594 58.8334 22.1994 58.6434 22.3094C58.4034 22.4494 58.1234 22.5494 57.8534 22.6394C57.5334 22.7494 57.2234 22.8494 57.0134 23.1794C56.9034 23.3594 56.6634 23.4694 56.4534 23.5494C55.5334 23.8994 54.7534 24.4694 54.0034 25.0794C52.9934 25.9094 51.9834 26.7594 50.9734 27.5894C50.5735 27.9194 50.1534 28.2194 49.7434 28.5194C49.1034 28.9994 48.4434 29.4494 47.7834 29.8994L47.4934 30.0894C47.3434 30.1894 47.1834 30.2594 47.0134 30.3194C46.6734 30.4394 46.3034 30.4794 45.9434 30.4394C45.2334 30.3694 44.5834 29.9594 44.1834 29.3794C44.0334 29.1494 43.9234 28.8894 43.8534 28.6194C43.8134 28.4894 43.8034 28.3494 43.7734 28.2294C43.7634 28.1494 43.7434 28.0794 43.7234 27.9994C43.5534 27.2994 43.5034 26.5894 43.5034 25.8694C43.5034 25.0094 43.3334 24.1594 43.1634 23.3194C43.1234 23.1194 43.0534 22.9294 43.0534 22.7294C43.0334 21.3494 42.6934 20.0094 42.6034 18.6394C42.5234 17.5294 42.5334 16.4194 42.5234 15.3094C42.5334 14.4594 42.5334 13.5894 42.5434 12.7394C42.5434 12.6794 42.5234 12.6294 42.5234 12.5694C42.5434 12.0794 42.8234 11.8994 43.2934 12.0794C43.7134 12.2394 43.9734 12.5394 44.0134 12.9794C44.0534 13.4594 44.0634 13.9494 44.0934 14.4294L44.1234 14.4794Z" fill="#87B1D9"/>
<path d="M18.2635 28.3994C18.7335 28.2594 18.9335 27.7894 18.4935 27.5994C14.7035 25.9594 7.71353 23.8294 3.02353 27.7894C-3.68647 33.4594 5.76352 40.1694 10.4835 35.2494C14.6335 30.9494 13.8735 29.7094 18.2635 28.3994Z" fill="#87B1D9"/>
<path d="M17.4435 27.9394C16.9735 27.6494 16.4835 27.3894 16.0235 27.0894C15.6035 26.8294 15.1835 26.5494 14.6635 26.5594C14.5335 26.5594 14.4035 26.4894 14.2735 26.4594C14.0435 26.3894 13.8035 26.3494 13.5635 26.3094C13.4535 26.2894 13.3235 26.3494 13.2335 26.2994C12.7735 26.0694 12.2735 25.9294 11.7535 26.0294C11.3835 25.7894 10.9835 25.8794 10.5935 25.9294C10.2035 25.9594 9.80353 25.9194 9.42353 26.0794C9.32353 26.1194 9.20352 26.1394 9.10352 26.1094C8.47352 25.9894 7.85355 26.1194 7.25355 26.2894C6.61355 26.4794 5.97353 26.6194 5.29353 26.7394C4.91353 26.7694 4.60354 26.9994 4.27354 27.1694C3.88354 27.3794 3.59354 27.7294 3.24354 27.9794C2.78354 28.4094 2.35353 28.8894 2.11353 29.4694C1.78353 30.2194 1.60352 30.9794 1.63352 31.6594C1.66352 31.9994 1.60352 32.3494 1.66352 32.6994C1.75352 33.3994 2.08354 34.1194 2.62354 34.6994C3.02354 35.1394 3.55352 35.4694 4.10352 35.6994C4.62352 35.9194 5.18353 35.9994 5.73353 36.0494C7.37353 36.1994 8.86352 35.5694 9.85352 34.2894C10.1335 33.9594 10.3935 33.6094 10.6535 33.2594C10.7835 33.0894 10.9335 32.9294 11.0735 32.7594C11.6135 32.1594 12.1235 31.5494 12.6435 30.8894C13.0235 30.4094 13.4135 29.8994 13.9235 29.4094C14.4235 28.9194 15.0435 28.4794 15.6535 28.1894C16.3535 27.8494 17.0535 27.6294 17.6935 27.2894C17.8735 27.1894 17.9635 27.2794 17.9635 27.5294C17.9635 27.9694 17.9935 28.4094 17.7635 28.7494C17.6035 28.9694 17.4735 29.1694 17.2035 29.1995C16.8035 29.2594 16.5335 29.5894 16.0935 29.5494C16.0335 29.5394 15.9635 29.5895 15.9235 29.6295C15.1235 30.4195 14.3735 31.1694 13.6235 32.0994C13.3835 32.3994 13.1835 32.7294 12.9535 33.0394C12.8035 33.2394 12.6535 33.4395 12.4835 33.6294C12.2435 33.9094 11.9735 34.1594 11.7535 34.4394C11.5835 34.6594 11.4635 34.9094 11.1135 34.9194C11.0435 34.9194 10.9535 35.0394 10.9635 35.1094C10.9935 35.4094 10.8335 35.5594 10.6435 35.7194C10.1735 36.1694 9.60353 36.4994 9.01353 36.7894C8.58353 37.0094 8.13352 37.1794 7.66352 37.3294C6.94352 37.5594 6.16354 37.6894 5.37354 37.6394C4.72354 37.5894 4.07353 37.4194 3.45353 37.1694C3.31353 37.1194 3.15353 37.0794 3.01353 37.0194C2.75353 36.8994 2.47353 36.7695 2.29353 36.5595C2.11353 36.2994 1.93352 36.1694 1.60352 36.1194C1.41352 36.0994 1.22352 35.9195 1.10352 35.7395C0.933523 35.5295 0.833538 35.2694 0.743538 35.0194C0.633538 34.7094 0.573526 34.4294 0.293526 34.1994C0.143526 34.0694 0.0735246 33.8194 0.0735246 33.5994C0.0135246 32.6694 -0.0564754 31.7994 0.0735246 30.8994C0.263525 29.6994 0.843525 28.5894 1.57352 27.6894C1.87352 27.3394 2.18353 27.0194 2.54353 26.7394C3.61353 25.7994 4.97352 25.2194 6.32352 24.9394C6.58352 24.8694 6.86353 24.8394 7.11353 24.7494C7.70353 24.5094 8.32354 24.4894 8.93354 24.5094C9.30354 24.5494 9.66354 24.5394 10.0235 24.5094C10.3835 24.5094 10.7435 24.4794 11.1135 24.4594C11.2835 24.4494 11.4535 24.4294 11.6135 24.4594C12.7435 24.6894 13.9035 24.7294 14.9935 25.0694C15.8735 25.3394 16.7035 25.7494 17.5035 26.1594C17.8135 26.3194 18.1235 26.4894 18.4235 26.6694L18.9935 27.0094C19.1635 27.1294 19.3735 27.3694 19.4335 27.6794C19.4935 27.9894 19.4035 28.2594 19.2835 28.4394C19.2235 28.5294 19.1735 28.6294 19.1035 28.6894C18.7935 28.9594 18.5335 28.9194 18.4135 28.8194C18.2835 28.7194 18.2835 28.5194 18.2735 28.2794C18.2635 28.0694 18.2335 27.8894 18.1635 27.8094C18.1235 27.7694 18.1735 27.8094 18.2035 27.8294C18.2335 27.8494 18.2735 27.8694 18.3035 27.8894C18.3735 27.9194 18.4435 27.9094 18.4135 27.9094C18.3935 27.9194 18.2835 27.9994 18.1935 28.1894C18.1835 28.2594 18.1335 28.2394 18.1235 28.2194L18.0635 28.1894L17.9335 28.1294L17.4335 27.8794L17.4435 27.9394Z" fill="#87B1D9"/>
<path d="M20.3638 19.9694C20.6538 20.1294 20.6838 20.4794 20.3538 20.4994C17.5638 20.6894 11.2138 21.6194 10.0038 17.7294C8.33382 12.3794 14.5138 10.2494 16.6338 14.1994C18.4938 17.6694 17.0838 18.1494 20.3638 19.9694Z" fill="#87B1D9"/>
<path d="M19.8238 21.2694C19.4438 21.1994 19.0538 21.1594 18.6738 21.0494C18.3338 20.9494 17.9938 20.8394 17.6638 20.9994C17.5738 21.0394 17.4838 21.0094 17.3838 21.0194C17.2138 21.0294 17.0538 21.0394 16.8838 21.0494C16.8038 21.0594 16.7238 21.1394 16.6538 21.1094C16.3038 20.9794 15.9538 20.9294 15.5938 21.0694C15.3238 20.8794 15.0538 20.9794 14.7638 21.0194C14.4838 21.0594 14.2038 20.9694 13.9038 21.0794C13.8238 21.1094 13.7338 21.1094 13.6638 21.0694C13.2438 20.8194 12.7838 20.7694 12.3238 20.6394C11.8338 20.4994 11.3738 20.1994 11.0738 19.7494C10.9138 19.5194 10.7338 19.3094 10.5338 19.1294C10.3638 18.8594 10.0738 18.6494 9.95379 18.3394C9.71379 17.9094 9.57381 17.4794 9.34381 17.0394C9.05381 16.4394 8.89378 15.7494 8.91378 15.0194C8.93378 14.6494 9.11381 14.2894 9.28381 13.9594C9.67381 13.2994 10.1938 12.7494 10.8138 12.3594C11.2638 12.0594 11.7538 11.8094 12.2738 11.6294C12.7638 11.4794 13.2738 11.3494 13.8038 11.3594C15.3838 11.3794 16.9438 12.4494 17.6838 13.7894C17.8538 14.0694 18.0538 14.3394 18.2138 14.6394C18.2938 14.7894 18.3638 14.9394 18.4238 15.0994C18.6438 15.6794 18.7838 16.3194 18.9238 16.8394C19.1338 17.6294 19.2538 17.7994 19.8038 18.2594C20.0838 18.4894 20.4438 18.7394 20.8638 18.8394C20.9838 18.8694 20.9638 18.9794 20.8038 19.1694C20.5338 19.4894 20.2638 19.8394 19.9438 19.9394C19.7238 20.0094 19.5338 20.0494 19.4038 19.8894C19.2238 19.6694 18.8638 19.6394 18.7938 19.2794C18.7838 19.2294 18.7338 19.1994 18.6938 19.1794C18.2838 19.0194 17.9438 18.6694 17.7438 18.2594C17.5438 17.8494 17.4838 17.4294 17.3938 17.0394C17.3338 16.7894 17.2138 16.5594 17.1238 16.3194L16.9538 15.8594C16.8838 15.6394 16.8238 15.3994 16.7038 15.1894C16.6238 15.0294 16.4738 14.9094 16.6138 14.6594C16.6438 14.6094 16.5938 14.5294 16.5238 14.5194C16.2638 14.5094 16.2238 14.3694 16.1438 14.2594L15.8638 13.7794L15.4938 13.3694C15.2838 13.1994 15.0338 13.0694 14.7838 12.9994C14.3738 12.8994 13.9638 12.9194 13.5938 12.9694C13.2838 12.9994 12.9838 13.0594 12.7038 13.1594C12.6438 13.1894 12.5938 13.2594 12.5338 13.2894C12.4238 13.3394 12.3138 13.4194 12.1838 13.4194C12.0338 13.3994 11.9238 13.4494 11.9338 13.6694C11.9438 13.7994 11.8738 13.8594 11.7938 13.8894C11.7038 13.9394 11.5538 13.9294 11.4338 13.9694C11.2838 14.0094 11.1238 14.0494 11.1538 14.2494C11.1838 14.3594 11.0938 14.4294 11.0038 14.4794C10.9038 14.5394 10.8138 14.5994 10.7338 14.6794C10.6738 14.7694 10.6238 14.8594 10.5838 14.9594C10.4838 15.1494 10.4738 15.3694 10.4938 15.5894C10.5038 16.1794 10.7438 16.7594 10.9838 17.2994C11.0638 17.5194 11.1838 17.6494 11.2538 17.8394C11.5638 18.3194 11.9638 18.7394 12.5838 19.0894C12.6938 19.1694 12.8238 19.2394 12.9738 19.2394C13.3038 19.2594 13.6138 19.3494 13.9338 19.4894C14.3238 19.6494 14.7538 19.6194 15.1838 19.5594C15.2838 19.5494 15.3838 19.5094 15.4838 19.5294C16.1638 19.6694 16.8638 19.4694 17.5638 19.4694C18.1338 19.4794 18.7238 19.5494 19.3238 19.5994C19.5538 19.6294 19.7838 19.6494 20.0238 19.6794L20.2038 19.6994L20.2938 19.7094H20.3138H20.3238C20.3338 19.8494 20.3038 19.3894 20.3438 20.0294V20.0494C20.3438 20.0794 20.3538 20.1094 20.3538 20.1294C20.4038 20.3594 20.4838 20.2694 20.3338 20.2794C20.3038 20.2794 20.2738 20.2994 20.2538 20.3094C20.1938 20.3394 20.1638 20.3694 20.1438 20.3894L20.1238 20.4194C20.1338 20.3994 20.1538 20.3694 20.1638 20.3494C20.2338 20.2294 20.2938 20.0494 20.4838 19.8994C20.6438 19.7794 20.8638 19.7294 21.0638 19.8694C21.1638 19.9394 21.2538 20.0594 21.2938 20.2594C21.3338 20.4494 21.2638 20.7694 21.0438 20.9594C20.8138 21.1694 20.5738 21.1994 20.4238 21.2094H20.2338L19.8438 21.1994L19.8238 21.2694Z" fill="#87B1D9"/>
<path d="M22.8242 32.7493C22.9042 32.4293 22.7042 32.2593 22.3842 32.3593C19.1442 33.2693 16.2842 37.9093 17.8042 41.9093C20.0442 47.8193 26.5742 45.1993 24.8642 40.7393C23.3542 36.8293 22.0542 36.0593 22.8242 32.7493Z" fill="#87B1D9"/>
<path d="M22.0343 33.2493C21.8543 33.2893 21.6743 33.3293 21.4943 33.3593C21.3143 33.4093 21.1343 33.4693 20.9343 33.5193C20.6043 33.6193 20.2343 33.7193 20.0843 34.0793C20.0443 34.1693 19.9543 34.2093 19.8843 34.2793C19.7543 34.3993 19.6543 34.5293 19.5543 34.6693C19.5043 34.7293 19.5243 34.8493 19.4543 34.8793C19.1343 35.0793 18.8743 35.3493 18.8343 35.7393C18.5243 35.8793 18.5043 36.1893 18.4543 36.4693C18.3843 36.7393 18.2443 36.9893 18.2943 37.2893C18.3043 37.3693 18.2943 37.4493 18.2443 37.5093C17.9743 37.8793 17.9243 38.3393 17.9143 38.7793C17.9043 39.2493 17.8443 39.6993 17.7043 40.1993C17.6143 40.4593 17.6943 40.7293 17.7343 40.9893C17.8043 41.2993 17.9543 41.5793 18.0743 41.8693C18.3043 42.2593 18.4843 42.6893 18.8643 42.9593C19.1043 43.1493 19.3043 43.3493 19.5643 43.4793C19.8043 43.6293 20.0143 43.7793 20.2543 43.8593C20.3743 43.9093 20.4643 43.9993 20.5743 44.0593C20.6843 44.1193 20.7843 44.1893 20.8943 44.2493C21.3243 44.4793 21.8343 44.6593 22.3543 44.5893C22.5543 44.5893 22.7343 44.5193 22.9143 44.4393C23.1043 44.3893 23.2443 44.2493 23.4043 44.1393C23.6843 43.9093 23.8443 43.5893 23.9843 43.2993C24.1443 42.8393 24.2343 42.3693 24.1043 41.8693C24.0843 41.6293 23.9343 41.3793 23.8643 41.1393C23.7343 40.8593 23.5943 40.5493 23.4443 40.2693C23.3043 39.9893 23.1243 39.7293 22.9743 39.4493C22.8943 39.3093 22.8243 39.1693 22.7643 39.0193L22.0543 37.3093C21.6943 36.4493 21.3943 35.3593 21.4543 34.3193C21.4843 33.7393 21.5943 33.1893 21.5843 32.6393C21.5743 32.4793 21.6943 32.4593 21.9243 32.5693C22.3143 32.7593 22.7243 32.9193 22.9143 33.1893C23.0443 33.3793 23.1543 33.5293 23.0643 33.7093C22.9343 33.9693 23.1143 34.2593 22.8643 34.5193C22.8343 34.5593 22.8443 34.6093 22.8543 34.6593C23.1443 35.4293 23.2443 36.1693 23.5543 36.9593C23.6543 37.2093 23.8143 37.4393 23.9443 37.6793C24.0243 37.8393 24.1043 37.9993 24.1843 38.1593C24.2843 38.3993 24.3643 38.6493 24.4943 38.8893C24.5843 39.0593 24.7443 39.2093 24.5843 39.4693C24.5543 39.5293 24.6043 39.6193 24.6743 39.6293C24.9343 39.6693 24.9843 39.8293 25.0343 39.9893L25.2443 40.6193L25.4243 41.3193C25.5143 41.6593 25.5443 42.0193 25.6143 42.3893C25.6043 42.6793 25.6443 42.9793 25.6043 43.2793C25.5343 43.5693 25.5143 43.9093 25.3643 44.1793C25.1543 44.6693 24.7843 45.0793 24.3843 45.4293C24.2843 45.5093 24.2043 45.6093 24.1043 45.6893C23.9243 45.8293 23.7143 45.9793 23.4843 45.9793C23.2243 45.9793 23.0743 46.0393 22.8943 46.2693C22.7943 46.3993 22.5843 46.4293 22.4243 46.4393C22.2143 46.4593 21.9943 46.3593 21.7943 46.2793C21.5543 46.1793 21.3543 46.0893 21.0843 46.1693C20.9343 46.2193 20.7543 46.1293 20.6243 46.0393C20.3343 45.8293 20.0743 45.6193 19.7843 45.4793C19.5243 45.2993 19.2543 45.1193 18.9743 44.9593C18.2843 44.4393 17.6343 43.8193 17.1843 43.0893C17.0143 42.7993 16.8443 42.5093 16.7243 42.1893C16.2943 41.1993 16.2443 40.0793 16.3843 39.0493C16.4043 38.8393 16.4443 38.6393 16.4343 38.4393C16.3843 37.9593 16.5343 37.5093 16.7243 37.0893C16.9743 36.5893 17.0943 36.0593 17.2643 35.5293C17.2943 35.3993 17.3243 35.2693 17.4043 35.1693C17.9343 34.4593 18.3143 33.6293 19.0043 33.0193C19.5543 32.5293 20.2243 32.1793 20.9243 31.9193C21.1943 31.8193 21.4643 31.7393 21.7643 31.6993L22.1943 31.6293C22.4243 31.5993 22.7743 31.5493 23.1743 31.8593C23.2743 31.9393 23.3743 32.0393 23.4243 32.1493C23.6043 32.6493 23.3943 32.7993 23.2643 32.8393C23.1143 32.8793 22.9443 32.7893 22.7243 32.6993C22.6243 32.6593 22.5343 32.6393 22.4643 32.6393C22.4443 32.6393 22.5643 32.6193 22.5643 32.6093C22.6243 32.5693 22.5243 32.5993 22.5343 32.8393C22.5343 32.8993 22.5443 32.9693 22.5543 33.0393C22.5743 33.0993 22.5543 33.0493 22.5143 33.0793L22.3443 33.1193C22.2243 33.1493 22.1143 33.1693 21.9943 33.1993L22.0343 33.2493Z" fill="#87B1D9"/>
<path d="M153.363 131.919C154.823 131.659 156.293 133.019 156.623 134.939C156.963 136.869 156.043 138.639 154.583 138.899C153.123 139.159 151.123 138.609 150.783 136.689C150.443 134.759 151.893 132.179 153.363 131.919Z" fill="#87B1D9"/>
<path d="M154.424 131.259C154.724 131.429 154.974 131.639 155.144 131.899C155.294 132.139 155.384 132.379 155.654 132.439C155.724 132.459 155.754 132.529 155.794 132.579C155.884 132.659 155.944 132.759 156.034 132.839C156.074 132.879 156.174 132.879 156.184 132.929C156.214 133.219 156.304 133.429 156.544 133.579C156.454 133.829 156.644 133.939 156.774 134.109C156.884 134.279 156.914 134.479 157.094 134.639C157.144 134.679 157.174 134.739 157.154 134.799C157.054 135.139 157.144 135.439 157.184 135.769C157.234 136.119 157.124 136.479 156.884 136.759C156.754 136.909 156.704 137.079 156.644 137.249C156.574 137.449 156.524 137.669 156.424 137.869C156.284 138.139 156.134 138.409 155.944 138.769C155.714 139.209 155.274 139.609 154.734 139.799C154.494 139.889 154.234 139.859 153.994 139.829C153.504 139.779 153.034 139.629 152.584 139.459C152.244 139.339 151.904 139.199 151.564 139.029C151.254 138.869 150.924 138.679 150.644 138.409C149.824 137.569 149.604 136.349 149.664 135.329C149.684 135.079 149.674 134.819 149.714 134.579C149.724 134.449 149.764 134.339 149.814 134.219C149.974 133.789 150.204 133.399 150.434 133.009C150.774 132.459 151.164 131.909 151.754 131.459C152.104 131.209 152.474 130.999 152.974 130.739C153.114 130.669 153.174 130.769 153.174 131.019C153.164 131.449 153.204 131.889 153.164 132.159C153.134 132.349 153.134 132.499 153.014 132.479C152.834 132.479 152.824 132.719 152.544 132.629C152.504 132.619 152.484 132.649 152.474 132.679C152.314 133.199 151.944 133.479 151.664 133.899C151.584 134.039 151.544 134.199 151.504 134.349L151.394 134.639C151.334 134.779 151.244 134.909 151.234 135.059C151.214 135.169 151.274 135.289 151.014 135.349C150.964 135.359 150.964 135.429 151.014 135.459C151.224 135.579 151.184 135.659 151.174 135.749C151.134 135.989 151.084 136.239 151.124 136.469C151.144 136.649 151.224 136.809 151.324 136.949C151.484 137.169 151.724 137.299 151.914 137.409C152.084 137.499 152.214 137.609 152.394 137.669C152.434 137.689 152.494 137.659 152.534 137.679C152.604 137.709 152.694 137.699 152.734 137.789C152.774 137.899 152.834 137.949 152.974 137.779C153.054 137.679 153.104 137.719 153.154 137.749C153.214 137.789 153.264 137.889 153.324 137.969C153.394 138.069 153.474 138.189 153.584 138.039C153.644 137.959 153.714 138.019 153.764 138.069C154.014 138.319 154.374 138.269 154.554 138.149C154.824 137.989 154.974 137.699 155.074 137.419C155.114 137.309 155.174 137.209 155.214 137.099C155.354 136.759 155.504 136.379 155.614 135.959C155.634 135.879 155.654 135.789 155.614 135.699C155.504 135.509 155.514 135.319 155.554 135.119C155.584 134.869 155.454 134.649 155.274 134.479C155.234 134.439 155.174 134.409 155.164 134.359C155.124 133.979 154.744 133.799 154.564 133.569C154.414 133.369 154.284 133.149 154.104 132.969C153.964 132.839 153.804 132.699 153.594 132.619C153.584 132.619 153.564 132.639 153.554 132.629C153.444 132.579 153.324 132.289 153.334 131.839C153.344 131.439 153.484 131.169 153.694 131.189C153.924 131.199 154.154 131.269 154.354 131.339L154.424 131.259Z" fill="#87B1D9"/>
<path d="M123.505 194.749C123.505 197.879 121.635 199.849 118.965 199.849C116.305 199.849 113.155 196.789 113.155 193.659C113.155 190.529 115.315 187.989 117.975 187.989C120.635 187.989 123.505 191.619 123.505 194.749Z" fill="#87B1D9"/>
<path d="M124.035 196.399C123.835 196.829 123.615 197.259 123.295 197.609C122.995 197.919 122.705 198.159 122.545 198.549C122.505 198.659 122.405 198.719 122.325 198.799C122.185 198.949 122.045 199.079 121.885 199.209C121.815 199.269 121.795 199.399 121.705 199.419C121.275 199.539 120.915 199.679 120.575 199.949C120.215 199.869 119.955 200.069 119.635 200.169C119.315 200.269 118.995 200.249 118.645 200.359C118.555 200.389 118.445 200.399 118.355 200.359C117.835 200.109 117.335 200.019 116.825 199.819C116.295 199.609 115.825 199.259 115.515 198.769C115.345 198.519 115.135 198.309 114.915 198.109C114.675 197.849 114.395 197.629 114.185 197.349C113.875 196.959 113.565 196.569 113.205 196.119C112.745 195.549 112.405 194.849 112.245 194.079C112.155 193.669 112.235 193.289 112.305 192.909C112.435 192.149 112.725 191.429 113.065 190.759C113.335 190.259 113.595 189.749 113.945 189.289C114.275 188.869 114.605 188.409 115.065 188.069C115.725 187.559 116.525 187.179 117.395 187.039C117.815 186.969 118.295 186.959 118.755 187.019C119.215 187.089 119.645 187.219 120.045 187.389C120.435 187.549 120.805 187.729 121.155 187.949C121.315 188.059 121.475 188.189 121.625 188.329C122.165 188.839 122.615 189.409 123.015 189.999C123.595 190.849 124.055 191.769 124.335 192.779C124.485 193.359 124.565 193.939 124.715 194.569C124.765 194.749 124.655 194.799 124.405 194.739C123.985 194.639 123.545 194.559 123.285 194.349C123.115 194.199 122.955 194.079 122.985 193.879C123.035 193.579 122.755 193.349 122.925 193.009C122.945 192.959 122.915 192.909 122.885 192.869C122.345 192.169 122.095 191.379 121.615 190.669C121.465 190.439 121.245 190.259 121.055 190.059L120.675 189.689C120.495 189.509 120.315 189.309 120.095 189.179C119.925 189.089 119.745 189.039 119.705 188.749C119.695 188.689 119.595 188.649 119.545 188.689C119.325 188.819 119.205 188.739 119.055 188.679C118.685 188.499 118.285 188.399 117.885 188.399C117.575 188.409 117.275 188.489 117.005 188.619C116.575 188.809 116.235 189.149 115.925 189.459C115.655 189.719 115.415 189.989 115.205 190.289C115.165 190.359 115.145 190.459 115.105 190.529C115.015 190.649 114.985 190.829 114.835 190.909C114.675 190.999 114.605 191.119 114.715 191.339C114.775 191.459 114.725 191.579 114.665 191.669C114.585 191.779 114.465 191.889 114.355 191.999C114.215 192.129 114.075 192.269 114.195 192.479C114.255 192.589 114.175 192.709 114.105 192.809C113.775 193.269 113.805 193.819 113.935 194.279C114.125 194.929 114.495 195.509 114.915 196.029C115.085 196.229 115.235 196.449 115.405 196.639C115.935 197.249 116.515 197.839 117.175 198.289C117.305 198.379 117.435 198.479 117.595 198.489C117.955 198.549 118.245 198.649 118.545 198.779C118.885 198.909 119.335 198.819 119.695 198.659C119.775 198.619 119.855 198.549 119.935 198.539C120.565 198.489 120.965 197.989 121.355 197.589C121.685 197.259 122.025 196.869 122.285 196.379C122.485 195.999 122.655 195.579 122.775 195.129C122.785 195.099 122.765 195.069 122.775 195.039C122.845 194.789 123.145 194.689 123.595 194.829C123.985 194.949 124.215 195.179 124.185 195.469C124.145 195.789 124.065 196.099 123.975 196.409L124.035 196.399Z" fill="#87B1D9"/>
<path d="M96.7343 70.4294C96.4343 70.4294 96.1743 70.4794 95.8243 70.4294C95.5043 70.3794 95.1943 70.3194 95.2343 70.6594C95.2443 70.7494 95.1643 70.7394 95.1243 70.7794C95.0543 70.8494 94.9843 70.9094 94.9243 70.9994C94.9043 71.0394 94.9843 71.1894 94.9143 71.1794C94.5743 71.1094 94.3743 71.1994 94.4343 71.5594C94.0543 71.3894 94.1343 71.6994 94.0943 71.8894C94.0543 72.0894 93.8843 72.1394 93.9643 72.4594C93.9843 72.5494 93.9743 72.5994 93.9043 72.5894C93.4943 72.5294 93.3843 72.7894 93.2543 73.0294C93.1143 73.2794 92.8343 73.3994 92.3943 73.3294C92.1543 73.2894 92.0543 73.3994 91.9443 73.5094C91.8143 73.6294 91.7543 73.8394 91.6443 73.9794C91.4843 74.1894 91.3643 74.4494 91.3643 74.8194C91.3543 75.3194 91.2943 75.7694 91.1743 76.1594C91.1143 76.3594 90.9043 76.3894 90.7243 76.4694C90.3843 76.6294 89.9843 76.7294 89.6743 76.9193C89.4343 77.0594 89.2643 77.2694 89.1043 77.4994C88.9543 77.7094 88.8843 77.9994 88.7443 78.2194C88.3343 78.8694 87.8943 79.4994 87.4743 80.1494C87.3743 80.3094 87.3143 80.4993 87.2243 80.6693C87.1743 80.7493 87.1143 80.8094 87.0443 80.8694C86.7743 81.0594 86.4743 81.2294 86.2143 81.4394C85.8443 81.7394 85.5143 82.0794 85.1343 82.3794C84.9243 82.5494 84.6843 82.6894 84.6643 83.0694C84.6643 83.1794 84.4943 83.0294 84.1843 82.6594C83.6543 82.0194 83.0943 81.3594 82.8443 80.8994C82.6743 80.5894 82.5643 80.3494 82.7243 80.3694C82.9643 80.3894 82.8243 79.9994 83.2743 80.2594C83.3343 80.2994 83.3443 80.2594 83.3443 80.2194C83.2943 79.4894 83.8443 79.3894 84.2343 79.1194C84.3643 79.0294 84.4143 78.8594 84.5043 78.7394C84.5643 78.6594 84.6343 78.5894 84.7143 78.5294C84.8343 78.4394 84.9943 78.4094 85.0743 78.2794C85.1343 78.1793 85.1043 77.9994 85.5143 78.2894C85.6043 78.3494 85.6243 78.2894 85.5543 78.1894C85.3043 77.7994 85.4043 77.7794 85.4743 77.7294C85.6743 77.5894 85.9043 77.4794 86.0743 77.3094C86.2043 77.1794 86.2843 77.0094 86.3443 76.8094C86.4343 76.4994 86.4543 76.1194 86.5543 75.8094C86.6343 75.5594 86.7843 75.3794 86.9043 75.1594C86.9343 75.1094 86.9043 74.9994 86.9343 74.9594C86.9943 74.8794 86.9943 74.7294 87.1643 74.7794C87.3643 74.8394 87.4443 74.8094 87.2343 74.4494C87.1143 74.2494 87.1943 74.2094 87.2743 74.1894C87.3743 74.1694 87.5443 74.2194 87.7143 74.2694C87.9143 74.3294 88.1143 74.4094 87.9943 74.1094C87.9243 73.9494 88.0543 73.9594 88.1843 73.9994C88.7343 74.1494 88.9343 73.9094 89.0643 73.6094C89.2443 73.1894 89.3643 72.7294 89.5343 72.2994C89.6043 72.1294 89.7143 72.0094 89.8043 71.8794C90.1043 71.4694 90.5543 71.2094 91.0243 70.9694C91.1143 70.9194 91.2143 70.8894 91.2243 70.7494C91.2443 70.4494 91.4443 70.3294 91.7043 70.2794C92.0243 70.2194 92.1043 69.9093 92.1743 69.5993C92.1943 69.5293 92.1743 69.4094 92.2443 69.3894C92.7243 69.2694 92.7543 68.6694 93.1343 68.4394C93.4343 68.2494 93.8543 68.1893 94.2443 68.0993C94.5443 68.0293 94.8843 67.9994 95.2143 67.9494C95.2343 67.9494 95.2243 67.9094 95.2443 67.8994C95.4443 67.8894 95.8843 68.2894 96.4443 68.9994C96.9443 69.6294 97.1843 70.0394 97.0743 70.1194C96.9543 70.2094 96.7943 70.2594 96.6443 70.3294C96.6743 70.3694 96.7043 70.3994 96.7343 70.4294Z" fill="#87B1D9"/>
<path d="M96.7343 84.7895C96.4343 84.7895 96.1743 84.8395 95.8243 84.7895C95.5043 84.7395 95.1943 84.6795 95.2343 85.0195C95.2443 85.1095 95.1643 85.0995 95.1243 85.1395C95.0543 85.2095 94.9843 85.2695 94.9243 85.3595C94.9043 85.3995 94.9843 85.5495 94.9143 85.5395C94.5743 85.4695 94.3743 85.5595 94.4343 85.9195C94.0543 85.7495 94.1343 86.0595 94.0943 86.2495C94.0543 86.4495 93.8843 86.4995 93.9643 86.8195C93.9843 86.9095 93.9743 86.9595 93.9043 86.9495C93.4943 86.8895 93.3843 87.1495 93.2543 87.3895C93.1143 87.6395 92.8343 87.7595 92.3943 87.6895C92.1543 87.6495 92.0543 87.7595 91.9443 87.8695C91.8143 87.9895 91.7543 88.1995 91.6443 88.3395C91.4843 88.5495 91.3643 88.8095 91.3643 89.1795C91.3543 89.6795 91.2943 90.1295 91.1743 90.5195C91.1143 90.7195 90.9043 90.7495 90.7243 90.8295C90.3843 90.9895 89.9843 91.0895 89.6743 91.2795C89.4343 91.4195 89.2643 91.6295 89.1043 91.8595C88.9543 92.0695 88.8843 92.3595 88.7443 92.5795C88.3343 93.2295 87.8943 93.8595 87.4743 94.5095C87.3743 94.6695 87.3143 94.8595 87.2243 95.0295C87.1743 95.1095 87.1143 95.1695 87.0443 95.2295C86.7743 95.4195 86.4743 95.5895 86.2143 95.7995C85.8443 96.0995 85.5143 96.4395 85.1343 96.7395C84.9243 96.9095 84.6843 97.0495 84.6643 97.4295C84.6643 97.5395 84.4943 97.3895 84.1843 97.0195C83.6543 96.3795 83.0943 95.7195 82.8443 95.2595C82.6743 94.9495 82.5643 94.7095 82.7243 94.7295C82.9643 94.7495 82.8243 94.3595 83.2743 94.6195C83.3343 94.6595 83.3443 94.6195 83.3443 94.5795C83.2943 93.8495 83.8443 93.7495 84.2343 93.4795C84.3643 93.3895 84.4143 93.2195 84.5043 93.0995C84.5643 93.0195 84.6343 92.9495 84.7143 92.8895C84.8343 92.7995 84.9943 92.7695 85.0743 92.6395C85.1343 92.5395 85.1043 92.3595 85.5143 92.6495C85.6043 92.7095 85.6243 92.6495 85.5543 92.5495C85.3043 92.1595 85.4043 92.1395 85.4743 92.0895C85.6743 91.9495 85.9043 91.8395 86.0743 91.6695C86.2043 91.5395 86.2843 91.3695 86.3443 91.1695C86.4343 90.8595 86.4543 90.4795 86.5543 90.1695C86.6343 89.9195 86.7843 89.7395 86.9043 89.5195C86.9343 89.4695 86.9043 89.3595 86.9343 89.3195C86.9943 89.2395 86.9943 89.0895 87.1643 89.1395C87.3643 89.1995 87.4443 89.1695 87.2343 88.8095C87.1143 88.6095 87.1943 88.5695 87.2743 88.5495C87.3743 88.5295 87.5443 88.5795 87.7143 88.6295C87.9143 88.6895 88.1143 88.7695 87.9943 88.4695C87.9243 88.3095 88.0543 88.3195 88.1843 88.3595C88.7343 88.5095 88.9343 88.2695 89.0643 87.9695C89.2443 87.5495 89.3643 87.0895 89.5343 86.6595C89.6043 86.4895 89.7143 86.3695 89.8043 86.2395C90.1043 85.8295 90.5543 85.5695 91.0243 85.3295C91.1143 85.2795 91.2143 85.2495 91.2243 85.1095C91.2443 84.8095 91.4443 84.6895 91.7043 84.6395C92.0243 84.5795 92.1043 84.2695 92.1743 83.9595C92.1943 83.8895 92.1743 83.7695 92.2443 83.7495C92.7243 83.6295 92.7543 83.0295 93.1343 82.7995C93.4343 82.6095 93.8543 82.5495 94.2443 82.4595C94.5443 82.3895 94.8843 82.3595 95.2143 82.3095C95.2343 82.3095 95.2243 82.2695 95.2443 82.2595C95.4443 82.2495 95.8843 82.6495 96.4443 83.3595C96.9443 83.9895 97.1843 84.3995 97.0743 84.4795C96.9543 84.5695 96.7943 84.6195 96.6443 84.6895C96.6743 84.7295 96.7043 84.7595 96.7343 84.7895Z" fill="#87B1D9"/>
<path d="M96.7343 99.3493C96.4343 99.3493 96.1743 99.3993 95.8243 99.3493C95.5043 99.2993 95.1943 99.2393 95.2343 99.5793C95.2443 99.6693 95.1643 99.6593 95.1243 99.6993C95.0543 99.7693 94.9843 99.8293 94.9243 99.9193C94.9043 99.9593 94.9843 100.109 94.9143 100.099C94.5743 100.029 94.3743 100.119 94.4343 100.479C94.0543 100.309 94.1343 100.619 94.0943 100.809C94.0543 101.009 93.8843 101.059 93.9643 101.379C93.9843 101.469 93.9743 101.519 93.9043 101.509C93.4943 101.449 93.3843 101.709 93.2543 101.949C93.1143 102.199 92.8343 102.319 92.3943 102.249C92.1543 102.209 92.0543 102.319 91.9443 102.429C91.8143 102.549 91.7543 102.759 91.6443 102.899C91.4843 103.109 91.3643 103.369 91.3643 103.739C91.3543 104.239 91.2943 104.689 91.1743 105.079C91.1143 105.279 90.9043 105.309 90.7243 105.389C90.3843 105.549 89.9843 105.649 89.6743 105.839C89.4343 105.979 89.2643 106.189 89.1043 106.419C88.9543 106.629 88.8843 106.919 88.7443 107.139C88.3343 107.789 87.8943 108.419 87.4743 109.069C87.3743 109.229 87.3143 109.419 87.2243 109.589C87.1743 109.669 87.1143 109.729 87.0443 109.789C86.7743 109.979 86.4743 110.149 86.2143 110.359C85.8443 110.659 85.5143 110.999 85.1343 111.299C84.9243 111.469 84.6843 111.609 84.6643 111.989C84.6643 112.099 84.4943 111.949 84.1843 111.579C83.6543 110.939 83.0943 110.279 82.8443 109.819C82.6743 109.509 82.5643 109.269 82.7243 109.289C82.9643 109.309 82.8243 108.919 83.2743 109.179C83.3343 109.219 83.3443 109.179 83.3443 109.139C83.2943 108.409 83.8443 108.309 84.2343 108.039C84.3643 107.949 84.4143 107.779 84.5043 107.659C84.5643 107.579 84.6343 107.509 84.7143 107.449C84.8343 107.359 84.9943 107.329 85.0743 107.199C85.1343 107.099 85.1043 106.919 85.5143 107.209C85.6043 107.269 85.6243 107.209 85.5543 107.109C85.3043 106.719 85.4043 106.699 85.4743 106.649C85.6743 106.509 85.9043 106.399 86.0743 106.229C86.2043 106.099 86.2843 105.929 86.3443 105.729C86.4343 105.419 86.4543 105.039 86.5543 104.729C86.6343 104.479 86.7843 104.299 86.9043 104.079C86.9343 104.029 86.9043 103.919 86.9343 103.879C86.9943 103.799 86.9943 103.649 87.1643 103.699C87.3643 103.759 87.4443 103.729 87.2343 103.369C87.1143 103.169 87.1943 103.129 87.2743 103.109C87.3743 103.089 87.5443 103.139 87.7143 103.189C87.9143 103.249 88.1143 103.329 87.9943 103.029C87.9243 102.869 88.0543 102.879 88.1843 102.919C88.7343 103.069 88.9343 102.829 89.0643 102.529C89.2443 102.109 89.3643 101.649 89.5343 101.219C89.6043 101.049 89.7143 100.929 89.8043 100.799C90.1043 100.389 90.5543 100.129 91.0243 99.8893C91.1143 99.8393 91.2143 99.8093 91.2243 99.6693C91.2443 99.3693 91.4443 99.2493 91.7043 99.1993C92.0243 99.1393 92.1043 98.8293 92.1743 98.5193C92.1943 98.4493 92.1743 98.3293 92.2443 98.3093C92.7243 98.1893 92.7543 97.5893 93.1343 97.3593C93.4343 97.1693 93.8543 97.1093 94.2443 97.0193C94.5443 96.9493 94.8843 96.9193 95.2143 96.8693C95.2343 96.8693 95.2243 96.8293 95.2443 96.8193C95.4443 96.8093 95.8843 97.2093 96.4443 97.9193C96.9443 98.5493 97.1843 98.9593 97.0743 99.0393C96.9543 99.1293 96.7943 99.1793 96.6443 99.2493C96.6743 99.2793 96.7043 99.3093 96.7343 99.3493Z" fill="#87B1D9"/>
<path d="M96.7343 114.649C96.4343 114.649 96.1743 114.699 95.8243 114.649C95.5043 114.599 95.1943 114.539 95.2343 114.879C95.2443 114.969 95.1643 114.959 95.1243 114.999C95.0543 115.069 94.9843 115.129 94.9243 115.219C94.9043 115.259 94.9843 115.409 94.9143 115.399C94.5743 115.329 94.3743 115.419 94.4343 115.779C94.0543 115.609 94.1343 115.919 94.0943 116.109C94.0543 116.309 93.8843 116.359 93.9643 116.679C93.9843 116.769 93.9743 116.819 93.9043 116.809C93.4943 116.749 93.3843 117.009 93.2543 117.249C93.1143 117.499 92.8343 117.619 92.3943 117.549C92.1543 117.509 92.0543 117.619 91.9443 117.729C91.8143 117.849 91.7543 118.059 91.6443 118.199C91.4843 118.409 91.3643 118.669 91.3643 119.039C91.3543 119.539 91.2943 119.989 91.1743 120.379C91.1143 120.579 90.9043 120.609 90.7243 120.689C90.3843 120.849 89.9843 120.949 89.6743 121.139C89.4343 121.279 89.2643 121.489 89.1043 121.719C88.9543 121.929 88.8843 122.219 88.7443 122.439C88.3343 123.089 87.8943 123.719 87.4743 124.369C87.3743 124.529 87.3143 124.719 87.2243 124.889C87.1743 124.969 87.1143 125.029 87.0443 125.089C86.7743 125.279 86.4743 125.449 86.2143 125.659C85.8443 125.959 85.5143 126.299 85.1343 126.599C84.9243 126.769 84.6843 126.909 84.6643 127.289C84.6643 127.399 84.4943 127.249 84.1843 126.879C83.6543 126.239 83.0943 125.579 82.8443 125.119C82.6743 124.809 82.5643 124.569 82.7243 124.589C82.9643 124.609 82.8243 124.219 83.2743 124.479C83.3343 124.519 83.3443 124.479 83.3443 124.439C83.2943 123.709 83.8443 123.609 84.2343 123.339C84.3643 123.249 84.4143 123.079 84.5043 122.959C84.5643 122.879 84.6343 122.809 84.7143 122.749C84.8343 122.659 84.9943 122.629 85.0743 122.499C85.1343 122.399 85.1043 122.219 85.5143 122.509C85.6043 122.569 85.6243 122.509 85.5543 122.409C85.3043 122.019 85.4043 121.999 85.4743 121.949C85.6743 121.809 85.9043 121.699 86.0743 121.529C86.2043 121.399 86.2843 121.229 86.3443 121.029C86.4343 120.719 86.4543 120.339 86.5543 120.029C86.6343 119.779 86.7843 119.599 86.9043 119.379C86.9343 119.329 86.9043 119.219 86.9343 119.179C86.9943 119.099 86.9943 118.949 87.1643 118.999C87.3643 119.059 87.4443 119.029 87.2343 118.669C87.1143 118.469 87.1943 118.429 87.2743 118.409C87.3743 118.389 87.5443 118.439 87.7143 118.489C87.9143 118.549 88.1143 118.629 87.9943 118.329C87.9243 118.169 88.0543 118.179 88.1843 118.219C88.7343 118.369 88.9343 118.129 89.0643 117.829C89.2443 117.409 89.3643 116.949 89.5343 116.519C89.6043 116.349 89.7143 116.229 89.8043 116.099C90.1043 115.689 90.5543 115.429 91.0243 115.189C91.1143 115.139 91.2143 115.109 91.2243 114.969C91.2443 114.669 91.4443 114.549 91.7043 114.499C92.0243 114.439 92.1043 114.129 92.1743 113.819C92.1943 113.749 92.1743 113.629 92.2443 113.609C92.7243 113.489 92.7543 112.889 93.1343 112.659C93.4343 112.469 93.8543 112.409 94.2443 112.319C94.5443 112.249 94.8843 112.219 95.2143 112.169C95.2343 112.169 95.2243 112.129 95.2443 112.119C95.4443 112.109 95.8843 112.509 96.4443 113.219C96.9443 113.849 97.1843 114.259 97.0743 114.339C96.9543 114.429 96.7943 114.479 96.6443 114.549C96.6743 114.589 96.7043 114.619 96.7343 114.649Z" fill="#87B1D9"/>
<path d="M96.7343 129.659C96.4343 129.659 96.1743 129.709 95.8243 129.659C95.5043 129.609 95.1943 129.549 95.2343 129.889C95.2443 129.979 95.1643 129.969 95.1243 130.009C95.0543 130.079 94.9843 130.139 94.9243 130.229C94.9043 130.269 94.9843 130.419 94.9143 130.409C94.5743 130.339 94.3743 130.429 94.4343 130.789C94.0543 130.619 94.1343 130.929 94.0943 131.119C94.0543 131.319 93.8843 131.369 93.9643 131.689C93.9843 131.779 93.9743 131.829 93.9043 131.819C93.4943 131.759 93.3843 132.019 93.2543 132.259C93.1143 132.509 92.8343 132.629 92.3943 132.559C92.1543 132.519 92.0543 132.629 91.9443 132.739C91.8143 132.859 91.7543 133.069 91.6443 133.209C91.4843 133.419 91.3643 133.679 91.3643 134.049C91.3543 134.549 91.2943 134.999 91.1743 135.389C91.1143 135.589 90.9043 135.619 90.7243 135.699C90.3843 135.859 89.9843 135.959 89.6743 136.149C89.4343 136.289 89.2643 136.499 89.1043 136.729C88.9543 136.939 88.8843 137.229 88.7443 137.449C88.3343 138.099 87.8943 138.729 87.4743 139.379C87.3743 139.539 87.3143 139.729 87.2243 139.899C87.1743 139.979 87.1143 140.039 87.0443 140.099C86.7743 140.289 86.4743 140.459 86.2143 140.669C85.8443 140.969 85.5143 141.309 85.1343 141.609C84.9243 141.779 84.6843 141.919 84.6643 142.299C84.6643 142.409 84.4943 142.259 84.1843 141.889C83.6543 141.249 83.0943 140.589 82.8443 140.129C82.6743 139.819 82.5643 139.579 82.7243 139.599C82.9643 139.619 82.8243 139.229 83.2743 139.489C83.3343 139.529 83.3443 139.489 83.3443 139.449C83.2943 138.719 83.8443 138.619 84.2343 138.349C84.3643 138.259 84.4143 138.089 84.5043 137.969C84.5643 137.889 84.6343 137.819 84.7143 137.759C84.8343 137.669 84.9943 137.639 85.0743 137.509C85.1343 137.409 85.1043 137.229 85.5143 137.519C85.6043 137.579 85.6243 137.519 85.5543 137.419C85.3043 137.029 85.4043 137.009 85.4743 136.959C85.6743 136.819 85.9043 136.709 86.0743 136.539C86.2043 136.409 86.2843 136.239 86.3443 136.039C86.4343 135.729 86.4543 135.349 86.5543 135.039C86.6343 134.789 86.7843 134.609 86.9043 134.389C86.9343 134.339 86.9043 134.229 86.9343 134.189C86.9943 134.109 86.9943 133.959 87.1643 134.009C87.3643 134.069 87.4443 134.039 87.2343 133.679C87.1143 133.479 87.1943 133.439 87.2743 133.419C87.3743 133.399 87.5443 133.449 87.7143 133.499C87.9143 133.559 88.1143 133.639 87.9943 133.339C87.9243 133.179 88.0543 133.189 88.1843 133.229C88.7343 133.379 88.9343 133.139 89.0643 132.839C89.2443 132.419 89.3643 131.959 89.5343 131.529C89.6043 131.359 89.7143 131.239 89.8043 131.109C90.1043 130.699 90.5543 130.439 91.0243 130.199C91.1143 130.149 91.2143 130.119 91.2243 129.979C91.2443 129.679 91.4443 129.559 91.7043 129.509C92.0243 129.449 92.1043 129.139 92.1743 128.829C92.1943 128.759 92.1743 128.639 92.2443 128.619C92.7243 128.499 92.7543 127.899 93.1343 127.669C93.4343 127.479 93.8543 127.419 94.2443 127.329C94.5443 127.259 94.8843 127.229 95.2143 127.179C95.2343 127.179 95.2243 127.139 95.2443 127.129C95.4443 127.119 95.8843 127.519 96.4443 128.229C96.9443 128.859 97.1843 129.269 97.0743 129.349C96.9543 129.439 96.7943 129.489 96.6443 129.559C96.6743 129.599 96.7043 129.629 96.7343 129.659Z" fill="#87B1D9"/>
<path d="M96.7343 144.529C96.4343 144.529 96.1743 144.579 95.8243 144.529C95.5043 144.479 95.1943 144.419 95.2343 144.759C95.2443 144.849 95.1643 144.839 95.1243 144.879C95.0543 144.949 94.9843 145.009 94.9243 145.099C94.9043 145.139 94.9843 145.289 94.9143 145.279C94.5743 145.209 94.3743 145.299 94.4343 145.659C94.0543 145.489 94.1343 145.799 94.0943 145.989C94.0543 146.189 93.8843 146.239 93.9643 146.559C93.9843 146.649 93.9743 146.699 93.9043 146.689C93.4943 146.629 93.3843 146.889 93.2543 147.129C93.1143 147.379 92.8343 147.499 92.3943 147.429C92.1543 147.389 92.0543 147.499 91.9443 147.609C91.8143 147.729 91.7543 147.939 91.6443 148.079C91.4843 148.289 91.3643 148.549 91.3643 148.919C91.3543 149.419 91.2943 149.869 91.1743 150.259C91.1143 150.459 90.9043 150.489 90.7243 150.569C90.3843 150.729 89.9843 150.829 89.6743 151.019C89.4343 151.159 89.2643 151.369 89.1043 151.599C88.9543 151.809 88.8843 152.099 88.7443 152.319C88.3343 152.969 87.8943 153.599 87.4743 154.249C87.3743 154.409 87.3143 154.599 87.2243 154.769C87.1743 154.849 87.1143 154.909 87.0443 154.969C86.7743 155.159 86.4743 155.329 86.2143 155.539C85.8443 155.839 85.5143 156.179 85.1343 156.479C84.9243 156.649 84.6843 156.789 84.6643 157.169C84.6643 157.279 84.4943 157.129 84.1843 156.759C83.6543 156.119 83.0943 155.459 82.8443 154.999C82.6743 154.689 82.5643 154.449 82.7243 154.469C82.9643 154.489 82.8243 154.099 83.2743 154.359C83.3343 154.399 83.3443 154.359 83.3443 154.319C83.2943 153.589 83.8443 153.489 84.2343 153.219C84.3643 153.129 84.4143 152.959 84.5043 152.839C84.5643 152.759 84.6343 152.689 84.7143 152.629C84.8343 152.539 84.9943 152.509 85.0743 152.379C85.1343 152.279 85.1043 152.099 85.5143 152.389C85.6043 152.449 85.6243 152.389 85.5543 152.289C85.3043 151.899 85.4043 151.879 85.4743 151.829C85.6743 151.689 85.9043 151.579 86.0743 151.409C86.2043 151.279 86.2843 151.109 86.3443 150.909C86.4343 150.599 86.4543 150.219 86.5543 149.909C86.6343 149.659 86.7843 149.479 86.9043 149.259C86.9343 149.209 86.9043 149.099 86.9343 149.059C86.9943 148.979 86.9943 148.829 87.1643 148.879C87.3643 148.939 87.4443 148.909 87.2343 148.549C87.1143 148.349 87.1943 148.309 87.2743 148.289C87.3743 148.269 87.5443 148.319 87.7143 148.369C87.9143 148.429 88.1143 148.509 87.9943 148.209C87.9243 148.049 88.0543 148.059 88.1843 148.099C88.7343 148.249 88.9343 148.009 89.0643 147.709C89.2443 147.289 89.3643 146.829 89.5343 146.399C89.6043 146.229 89.7143 146.109 89.8043 145.979C90.1043 145.569 90.5543 145.309 91.0243 145.069C91.1143 145.019 91.2143 144.989 91.2243 144.849C91.2443 144.549 91.4443 144.429 91.7043 144.379C92.0243 144.319 92.1043 144.009 92.1743 143.699C92.1943 143.629 92.1743 143.509 92.2443 143.489C92.7243 143.369 92.7543 142.769 93.1343 142.539C93.4343 142.349 93.8543 142.289 94.2443 142.199C94.5443 142.129 94.8843 142.099 95.2143 142.049C95.2343 142.049 95.2243 142.009 95.2443 141.999C95.4443 141.989 95.8843 142.389 96.4443 143.099C96.9443 143.729 97.1843 144.139 97.0743 144.219C96.9543 144.309 96.7943 144.359 96.6443 144.429C96.6743 144.469 96.7043 144.499 96.7343 144.529Z" fill="#87B1D9"/>
<path d="M96.7343 159.159C96.4343 159.159 96.1743 159.209 95.8243 159.159C95.5043 159.109 95.1943 159.049 95.2343 159.389C95.2443 159.479 95.1643 159.469 95.1243 159.509C95.0543 159.579 94.9843 159.639 94.9243 159.729C94.9043 159.769 94.9843 159.919 94.9143 159.909C94.5743 159.839 94.3743 159.929 94.4343 160.289C94.0543 160.119 94.1343 160.429 94.0943 160.619C94.0543 160.819 93.8843 160.869 93.9643 161.189C93.9843 161.279 93.9743 161.329 93.9043 161.319C93.4943 161.259 93.3843 161.519 93.2543 161.759C93.1143 162.009 92.8343 162.129 92.3943 162.059C92.1543 162.019 92.0543 162.129 91.9443 162.239C91.8143 162.359 91.7543 162.569 91.6443 162.709C91.4843 162.919 91.3643 163.179 91.3643 163.549C91.3543 164.049 91.2943 164.499 91.1743 164.889C91.1143 165.089 90.9043 165.119 90.7243 165.199C90.3843 165.359 89.9843 165.459 89.6743 165.649C89.4343 165.789 89.2643 165.999 89.1043 166.229C88.9543 166.439 88.8843 166.729 88.7443 166.949C88.3343 167.599 87.8943 168.229 87.4743 168.879C87.3743 169.039 87.3143 169.229 87.2243 169.399C87.1743 169.479 87.1143 169.539 87.0443 169.599C86.7743 169.789 86.4743 169.959 86.2143 170.169C85.8443 170.469 85.5143 170.809 85.1343 171.109C84.9243 171.279 84.6843 171.419 84.6643 171.799C84.6643 171.909 84.4943 171.759 84.1843 171.389C83.6543 170.749 83.0943 170.089 82.8443 169.629C82.6743 169.319 82.5643 169.079 82.7243 169.099C82.9643 169.119 82.8243 168.729 83.2743 168.989C83.3343 169.029 83.3443 168.989 83.3443 168.949C83.2943 168.219 83.8443 168.119 84.2343 167.849C84.3643 167.759 84.4143 167.589 84.5043 167.469C84.5643 167.389 84.6343 167.319 84.7143 167.259C84.8343 167.169 84.9943 167.139 85.0743 167.009C85.1343 166.909 85.1043 166.729 85.5143 167.019C85.6043 167.079 85.6243 167.019 85.5543 166.919C85.3043 166.529 85.4043 166.509 85.4743 166.459C85.6743 166.319 85.9043 166.209 86.0743 166.039C86.2043 165.909 86.2843 165.739 86.3443 165.539C86.4343 165.229 86.4543 164.849 86.5543 164.539C86.6343 164.289 86.7843 164.109 86.9043 163.889C86.9343 163.839 86.9043 163.729 86.9343 163.689C86.9943 163.609 86.9943 163.459 87.1643 163.509C87.3643 163.569 87.4443 163.539 87.2343 163.179C87.1143 162.979 87.1943 162.939 87.2743 162.919C87.3743 162.899 87.5443 162.949 87.7143 162.999C87.9143 163.059 88.1143 163.139 87.9943 162.839C87.9243 162.679 88.0543 162.689 88.1843 162.729C88.7343 162.879 88.9343 162.639 89.0643 162.339C89.2443 161.919 89.3643 161.459 89.5343 161.029C89.6043 160.859 89.7143 160.739 89.8043 160.609C90.1043 160.199 90.5543 159.939 91.0243 159.699C91.1143 159.649 91.2143 159.619 91.2243 159.479C91.2443 159.179 91.4443 159.059 91.7043 159.009C92.0243 158.949 92.1043 158.639 92.1743 158.329C92.1943 158.259 92.1743 158.139 92.2443 158.119C92.7243 157.999 92.7543 157.399 93.1343 157.169C93.4343 156.979 93.8543 156.919 94.2443 156.829C94.5443 156.759 94.8843 156.729 95.2143 156.679C95.2343 156.679 95.2243 156.639 95.2443 156.629C95.4443 156.619 95.8843 157.019 96.4443 157.729C96.9443 158.359 97.1843 158.769 97.0743 158.849C96.9543 158.939 96.7943 158.989 96.6443 159.059C96.6743 159.099 96.7043 159.129 96.7343 159.159Z" fill="#87B1D9"/>
<path d="M96.7343 175.039C96.4343 175.039 96.1743 175.089 95.8243 175.039C95.5043 174.989 95.1943 174.929 95.2343 175.269C95.2443 175.359 95.1643 175.349 95.1243 175.389C95.0543 175.459 94.9843 175.519 94.9243 175.609C94.9043 175.649 94.9843 175.799 94.9143 175.789C94.5743 175.719 94.3743 175.809 94.4343 176.169C94.0543 175.999 94.1343 176.309 94.0943 176.499C94.0543 176.699 93.8843 176.749 93.9643 177.069C93.9843 177.159 93.9743 177.209 93.9043 177.199C93.4943 177.139 93.3843 177.399 93.2543 177.639C93.1143 177.889 92.8343 178.009 92.3943 177.939C92.1543 177.899 92.0543 178.009 91.9443 178.119C91.8143 178.239 91.7543 178.449 91.6443 178.589C91.4843 178.799 91.3643 179.059 91.3643 179.429C91.3543 179.929 91.2943 180.379 91.1743 180.769C91.1143 180.969 90.9043 180.999 90.7243 181.079C90.3843 181.239 89.9843 181.339 89.6743 181.529C89.4343 181.669 89.2643 181.879 89.1043 182.109C88.9543 182.319 88.8843 182.609 88.7443 182.829C88.3343 183.479 87.8943 184.109 87.4743 184.759C87.3743 184.919 87.3143 185.109 87.2243 185.279C87.1743 185.359 87.1143 185.419 87.0443 185.479C86.7743 185.669 86.4743 185.839 86.2143 186.049C85.8443 186.349 85.5143 186.689 85.1343 186.989C84.9243 187.159 84.6843 187.299 84.6643 187.679C84.6643 187.789 84.4943 187.639 84.1843 187.269C83.6543 186.629 83.0943 185.969 82.8443 185.509C82.6743 185.199 82.5643 184.959 82.7243 184.979C82.9643 184.999 82.8243 184.609 83.2743 184.869C83.3343 184.909 83.3443 184.869 83.3443 184.829C83.2943 184.099 83.8443 183.999 84.2343 183.729C84.3643 183.639 84.4143 183.469 84.5043 183.349C84.5643 183.269 84.6343 183.199 84.7143 183.139C84.8343 183.049 84.9943 183.019 85.0743 182.889C85.1343 182.789 85.1043 182.609 85.5143 182.899C85.6043 182.959 85.6243 182.899 85.5543 182.799C85.3043 182.409 85.4043 182.389 85.4743 182.339C85.6743 182.199 85.9043 182.089 86.0743 181.919C86.2043 181.789 86.2843 181.619 86.3443 181.419C86.4343 181.109 86.4543 180.729 86.5543 180.419C86.6343 180.169 86.7843 179.989 86.9043 179.769C86.9343 179.719 86.9043 179.609 86.9343 179.569C86.9943 179.489 86.9943 179.339 87.1643 179.389C87.3643 179.449 87.4443 179.419 87.2343 179.059C87.1143 178.859 87.1943 178.819 87.2743 178.799C87.3743 178.779 87.5443 178.829 87.7143 178.879C87.9143 178.939 88.1143 179.019 87.9943 178.719C87.9243 178.559 88.0543 178.569 88.1843 178.609C88.7343 178.759 88.9343 178.519 89.0643 178.219C89.2443 177.799 89.3643 177.339 89.5343 176.909C89.6043 176.739 89.7143 176.619 89.8043 176.489C90.1043 176.079 90.5543 175.819 91.0243 175.579C91.1143 175.529 91.2143 175.499 91.2243 175.359C91.2443 175.059 91.4443 174.939 91.7043 174.889C92.0243 174.829 92.1043 174.519 92.1743 174.209C92.1943 174.139 92.1743 174.019 92.2443 173.999C92.7243 173.879 92.7543 173.279 93.1343 173.049C93.4343 172.859 93.8543 172.799 94.2443 172.709C94.5443 172.639 94.8843 172.609 95.2143 172.559C95.2343 172.559 95.2243 172.519 95.2443 172.509C95.4443 172.499 95.8843 172.899 96.4443 173.609C96.9443 174.239 97.1843 174.649 97.0743 174.729C96.9543 174.819 96.7943 174.869 96.6443 174.939C96.6743 174.979 96.7043 175.009 96.7343 175.039Z" fill="#87B1D9"/>
<path d="M96.7343 189.399C96.4343 189.399 96.1743 189.449 95.8243 189.399C95.5043 189.349 95.1943 189.289 95.2343 189.629C95.2443 189.719 95.1643 189.709 95.1243 189.749C95.0543 189.819 94.9843 189.879 94.9243 189.969C94.9043 190.009 94.9843 190.159 94.9143 190.149C94.5743 190.079 94.3743 190.169 94.4343 190.529C94.0543 190.359 94.1343 190.669 94.0943 190.859C94.0543 191.059 93.8843 191.109 93.9643 191.429C93.9843 191.519 93.9743 191.569 93.9043 191.559C93.4943 191.499 93.3843 191.759 93.2543 191.999C93.1143 192.249 92.8343 192.369 92.3943 192.299C92.1543 192.259 92.0543 192.369 91.9443 192.479C91.8143 192.599 91.7543 192.809 91.6443 192.949C91.4843 193.159 91.3643 193.419 91.3643 193.789C91.3543 194.289 91.2943 194.739 91.1743 195.129C91.1143 195.329 90.9043 195.359 90.7243 195.439C90.3843 195.599 89.9843 195.699 89.6743 195.889C89.4343 196.029 89.2643 196.239 89.1043 196.469C88.9543 196.679 88.8843 196.969 88.7443 197.189C88.3343 197.839 87.8943 198.469 87.4743 199.119C87.3743 199.279 87.3143 199.469 87.2243 199.639C87.1743 199.719 87.1143 199.779 87.0443 199.839C86.7743 200.029 86.4743 200.199 86.2143 200.409C85.8443 200.709 85.5143 201.049 85.1343 201.349C84.9243 201.519 84.6843 201.659 84.6643 202.039C84.6643 202.149 84.4943 201.999 84.1843 201.629C83.6543 200.989 83.0943 200.329 82.8443 199.869C82.6743 199.559 82.5643 199.319 82.7243 199.339C82.9643 199.359 82.8243 198.969 83.2743 199.229C83.3343 199.269 83.3443 199.229 83.3443 199.189C83.2943 198.459 83.8443 198.359 84.2343 198.089C84.3643 197.999 84.4143 197.829 84.5043 197.709C84.5643 197.629 84.6343 197.559 84.7143 197.499C84.8343 197.409 84.9943 197.379 85.0743 197.249C85.1343 197.149 85.1043 196.969 85.5143 197.259C85.6043 197.319 85.6243 197.259 85.5543 197.159C85.3043 196.769 85.4043 196.749 85.4743 196.699C85.6743 196.559 85.9043 196.449 86.0743 196.279C86.2043 196.149 86.2843 195.979 86.3443 195.779C86.4343 195.469 86.4543 195.089 86.5543 194.779C86.6343 194.529 86.7843 194.349 86.9043 194.129C86.9343 194.079 86.9043 193.969 86.9343 193.929C86.9943 193.849 86.9943 193.699 87.1643 193.749C87.3643 193.809 87.4443 193.779 87.2343 193.419C87.1143 193.219 87.1943 193.179 87.2743 193.159C87.3743 193.139 87.5443 193.189 87.7143 193.239C87.9143 193.299 88.1143 193.379 87.9943 193.079C87.9243 192.919 88.0543 192.929 88.1843 192.969C88.7343 193.119 88.9343 192.879 89.0643 192.579C89.2443 192.159 89.3643 191.699 89.5343 191.269C89.6043 191.099 89.7143 190.979 89.8043 190.849C90.1043 190.439 90.5543 190.179 91.0243 189.939C91.1143 189.889 91.2143 189.859 91.2243 189.719C91.2443 189.419 91.4443 189.299 91.7043 189.249C92.0243 189.189 92.1043 188.879 92.1743 188.569C92.1943 188.499 92.1743 188.379 92.2443 188.359C92.7243 188.239 92.7543 187.639 93.1343 187.409C93.4343 187.219 93.8543 187.159 94.2443 187.069C94.5443 186.999 94.8843 186.969 95.2143 186.919C95.2343 186.919 95.2243 186.879 95.2443 186.869C95.4443 186.859 95.8843 187.259 96.4443 187.969C96.9443 188.599 97.1843 189.009 97.0743 189.089C96.9543 189.179 96.7943 189.229 96.6443 189.299C96.6743 189.339 96.7043 189.369 96.7343 189.399Z" fill="#87B1D9"/>
<path d="M98.4352 203.309C98.1352 203.309 97.8752 203.359 97.5252 203.309C97.2052 203.259 96.8952 203.199 96.9352 203.539C96.9452 203.629 96.8652 203.619 96.8252 203.659C96.7552 203.729 96.6852 203.789 96.6252 203.879C96.6052 203.919 96.6852 204.069 96.6152 204.059C96.2752 203.989 96.0752 204.079 96.1352 204.439C95.7552 204.269 95.8352 204.579 95.7952 204.769C95.7552 204.969 95.5852 205.019 95.6652 205.339C95.6852 205.429 95.6752 205.479 95.6052 205.469C95.1952 205.409 95.0852 205.669 94.9552 205.909C94.8152 206.159 94.5352 206.279 94.0952 206.209C93.8552 206.169 93.7552 206.279 93.6452 206.389C93.5152 206.509 93.4552 206.719 93.3452 206.859C93.1852 207.069 93.0652 207.329 93.0652 207.699C93.0552 208.199 92.9952 208.649 92.8752 209.039C92.8152 209.239 92.6052 209.269 92.4252 209.349C92.0852 209.509 91.6852 209.609 91.3752 209.799C91.1352 209.939 90.9652 210.149 90.8052 210.379C90.6552 210.589 90.5852 210.879 90.4452 211.099C90.0352 211.749 89.5952 212.379 89.1752 213.029C89.0752 213.189 89.0152 213.379 88.9252 213.549C88.8752 213.629 88.8152 213.689 88.7452 213.749C88.4752 213.939 88.1752 214.109 87.9152 214.319C87.5452 214.619 87.2152 214.959 86.8352 215.259C86.6252 215.429 86.3852 215.569 86.3652 215.949C86.3652 216.059 86.1952 215.909 85.8852 215.539C85.3552 214.899 84.7952 214.239 84.5452 213.779C84.3852 213.469 84.2652 213.229 84.4252 213.249C84.6652 213.269 84.5252 212.879 84.9752 213.139C85.0352 213.179 85.0452 213.139 85.0452 213.099C84.9952 212.369 85.5452 212.269 85.9352 211.999C86.0652 211.909 86.1152 211.739 86.2052 211.619C86.2652 211.539 86.3352 211.469 86.4152 211.409C86.5352 211.319 86.6952 211.289 86.7752 211.159C86.8352 211.059 86.8052 210.879 87.2152 211.169C87.3052 211.229 87.3252 211.169 87.2552 211.069C87.0052 210.679 87.1052 210.659 87.1752 210.609C87.3752 210.469 87.6052 210.359 87.7752 210.189C87.9052 210.059 87.9852 209.889 88.0452 209.689C88.1352 209.379 88.1552 208.999 88.2552 208.689C88.3352 208.439 88.4852 208.259 88.6052 208.039C88.6352 207.989 88.6052 207.879 88.6352 207.839C88.6952 207.759 88.6952 207.609 88.8752 207.659C89.0752 207.719 89.1552 207.689 88.9452 207.329C88.8252 207.129 88.9052 207.089 88.9852 207.069C89.0852 207.049 89.2552 207.099 89.4252 207.149C89.6252 207.209 89.8252 207.289 89.7052 206.989C89.6352 206.829 89.7652 206.839 89.8952 206.879C90.4452 207.029 90.6452 206.789 90.7752 206.489C90.9552 206.069 91.0752 205.609 91.2452 205.179C91.3152 205.009 91.4252 204.889 91.5152 204.759C91.8152 204.349 92.2652 204.089 92.7352 203.849C92.8252 203.799 92.9252 203.769 92.9352 203.629C92.9552 203.329 93.1552 203.209 93.4152 203.159C93.7352 203.099 93.8152 202.789 93.8852 202.479C93.9052 202.409 93.8852 202.289 93.9552 202.269C94.4352 202.149 94.4652 201.549 94.8452 201.319C95.1452 201.129 95.5652 201.069 95.9552 200.979C96.2552 200.909 96.5952 200.879 96.9252 200.829C96.9452 200.829 96.9352 200.789 96.9552 200.779C97.1552 200.769 97.5952 201.169 98.1552 201.879C98.6552 202.509 98.8952 202.919 98.7852 202.999C98.6652 203.089 98.5052 203.139 98.3552 203.209C98.3752 203.239 98.4052 203.279 98.4352 203.309Z" fill="#87B1D9"/>
<path d="M124.535 171.689C124.525 171.549 124.515 171.399 124.495 171.259C124.425 170.779 124.485 170.299 124.535 169.829C124.545 169.719 124.475 169.619 124.485 169.509C124.515 169.299 124.575 169.089 124.615 168.869C124.625 168.829 124.675 168.789 124.595 168.759C124.135 168.579 124.275 168.399 124.265 168.219C124.255 168.029 124.105 167.839 124.025 167.649C123.955 167.469 123.655 167.289 124.175 167.109C124.345 167.049 124.225 166.969 124.085 166.909C123.855 166.799 123.895 166.699 124.005 166.589C124.255 166.349 123.905 166.109 123.985 165.859C124.015 165.779 124.055 165.689 124.085 165.609C124.095 165.579 124.165 165.549 124.115 165.519C123.745 165.319 124.085 165.129 123.965 164.929C123.785 164.629 124.115 164.319 124.165 164.019C124.255 163.559 124.215 163.089 124.235 162.629C124.245 162.379 124.255 162.129 124.275 161.879C124.305 161.539 124.365 161.199 124.385 160.859C124.385 160.749 124.275 160.629 124.225 160.519C124.095 160.219 124.515 159.909 124.355 159.609C124.235 159.379 124.315 159.149 124.385 158.929C124.405 158.849 124.485 158.779 124.495 158.699C124.525 158.459 124.555 158.209 124.555 157.969C124.555 157.689 124.515 157.409 124.505 157.129C124.485 156.809 124.495 156.489 124.455 156.169C124.415 155.809 124.405 155.439 124.275 155.079C124.065 154.479 124.225 153.879 124.225 153.279C124.225 153.079 124.295 152.889 124.535 152.689C124.795 152.479 124.665 152.269 124.535 152.059C124.345 151.739 124.385 151.419 124.555 151.109C124.675 150.879 124.795 150.659 124.815 150.429C124.825 150.249 124.665 150.069 124.615 149.889C124.595 149.819 124.645 149.749 124.695 149.689C124.905 149.419 125.335 149.149 125.265 148.879C125.255 148.849 125.335 148.819 125.365 148.789C125.615 148.489 125.865 148.189 126.085 147.879C126.135 147.799 126.045 147.729 126.055 147.649C126.055 147.629 126.235 147.599 126.275 147.599C126.495 147.609 126.775 147.619 126.875 147.639C127.015 147.669 127.065 147.709 127.075 147.749C127.085 147.929 127.065 148.119 127.065 148.299C127.065 148.379 127.085 148.449 127.075 148.529C127.065 148.729 127.045 148.939 127.045 149.139C127.045 149.529 127.015 149.909 127.065 150.299C127.145 150.929 127.035 151.559 126.995 152.189C126.985 152.319 127.105 152.449 127.095 152.579C126.985 153.729 127.225 154.879 127.175 156.019C127.155 156.389 127.055 156.769 127.035 157.139C127.015 157.679 127.065 158.219 127.045 158.759C127.025 159.299 126.965 159.839 126.925 160.379C126.885 160.939 126.845 161.489 126.815 162.049C126.795 162.599 126.815 163.149 126.785 163.689C126.745 164.479 126.655 165.269 126.625 166.059C126.615 166.339 126.755 166.619 126.775 166.899C126.795 167.169 126.755 167.429 126.745 167.699C126.745 167.749 126.715 167.809 126.725 167.859C126.775 168.219 126.855 168.589 126.875 168.949C126.905 169.539 126.945 170.119 126.855 170.709C126.775 171.179 126.845 171.649 126.845 172.119C126.845 172.359 126.855 172.609 126.825 172.849C126.815 172.919 126.685 172.979 126.525 173.049C126.415 173.089 126.165 173.129 125.725 173.119C125.315 173.109 125.115 173.079 125.065 173.029C124.895 172.849 124.645 172.669 124.575 172.489C124.485 172.229 124.535 171.969 124.535 171.719C124.545 171.689 124.535 171.689 124.535 171.689Z" fill="#87B1D9"/>
<path d="M134.054 153.199C133.964 153.299 133.874 153.399 133.794 153.509C133.514 153.869 133.154 154.139 132.784 154.419C132.704 154.479 132.684 154.599 132.604 154.659C132.444 154.779 132.254 154.869 132.084 154.979C132.054 154.999 131.984 154.979 132.024 155.069C132.224 155.519 132.004 155.539 131.884 155.659C131.764 155.789 131.734 156.019 131.664 156.199C131.594 156.369 131.674 156.699 131.194 156.439C131.034 156.359 131.064 156.489 131.114 156.629C131.204 156.859 131.094 156.899 130.954 156.889C130.614 156.859 130.694 157.279 130.474 157.379C130.404 157.419 130.314 157.439 130.234 157.469C130.204 157.479 130.134 157.449 130.154 157.509C130.274 157.909 129.904 157.789 129.854 157.999C129.774 158.329 129.334 158.289 129.094 158.439C128.714 158.679 128.424 159.009 128.094 159.289C127.914 159.449 127.734 159.599 127.554 159.749C127.294 159.949 127.024 160.119 126.784 160.339C126.704 160.409 126.704 160.569 126.664 160.679C126.544 160.969 126.044 160.859 125.954 161.169C125.884 161.409 125.674 161.499 125.464 161.589C125.394 161.619 125.294 161.609 125.234 161.649C125.044 161.779 124.864 161.919 124.694 162.079C124.504 162.259 124.334 162.469 124.144 162.659C123.934 162.879 123.714 163.079 123.514 163.309C123.284 163.569 123.044 163.819 122.884 164.149C122.614 164.689 122.084 164.959 121.664 165.339C121.524 165.469 121.344 165.539 121.044 165.479C120.724 165.429 120.664 165.659 120.604 165.879C120.514 166.219 120.254 166.399 119.924 166.469C119.684 166.519 119.444 166.569 119.274 166.699C119.134 166.799 119.114 167.039 119.014 167.189C118.974 167.249 118.904 167.259 118.814 167.259C118.474 167.269 118.004 167.109 117.854 167.329C117.834 167.349 117.764 167.309 117.724 167.309C117.354 167.299 116.954 167.289 116.634 167.249C116.604 167.239 116.574 167.269 116.574 167.289L116.564 167.319C116.534 167.269 116.674 167.479 116.694 167.579C116.694 167.589 116.704 167.629 116.724 167.689C116.734 167.719 116.744 167.719 116.754 167.749C116.764 167.789 116.734 167.809 116.734 167.809C116.744 167.789 116.774 167.759 116.724 167.699C116.704 167.589 116.664 167.469 116.594 167.359C116.524 167.259 116.414 166.999 116.314 166.849C116.254 166.739 116.184 166.629 116.114 166.529L116.064 166.449L116.084 166.439L116.144 166.399L116.314 166.289L116.454 166.159C116.594 166.049 116.744 165.949 116.884 165.829C117.154 165.599 117.434 165.389 117.674 165.109C118.054 164.659 118.564 164.349 119.034 163.989C119.134 163.919 119.134 163.739 119.234 163.669C120.104 163.029 120.734 162.119 121.554 161.419C121.824 161.189 122.154 161.029 122.414 160.799C122.794 160.469 123.134 160.089 123.514 159.749C123.894 159.419 124.304 159.109 124.704 158.789C125.114 158.459 125.524 158.129 125.914 157.789C126.304 157.449 126.664 157.079 127.054 156.749C127.624 156.269 128.224 155.819 128.784 155.329C128.984 155.159 129.074 154.869 129.254 154.669C129.424 154.479 129.624 154.339 129.824 154.179C129.864 154.149 129.914 154.129 129.944 154.089C130.154 153.819 130.344 153.519 130.584 153.269C130.964 152.869 131.334 152.449 131.794 152.139C132.164 151.889 132.444 151.529 132.764 151.229C132.934 151.069 133.084 150.899 133.274 150.769C133.324 150.729 133.464 150.779 133.614 150.849C133.714 150.899 133.914 151.049 134.214 151.379C134.494 151.679 134.604 151.849 134.604 151.919C134.604 152.159 134.654 152.459 134.574 152.619C134.464 152.849 134.244 152.979 134.074 153.159L134.054 153.199Z" fill="#87B1D9"/>
<path d="M118.554 151.789C118.664 151.879 118.764 151.969 118.884 152.049C119.264 152.319 119.554 152.679 119.844 153.039C119.904 153.119 120.034 153.139 120.094 153.219C120.224 153.379 120.324 153.569 120.444 153.739C120.464 153.769 120.454 153.839 120.544 153.799C120.984 153.589 121.014 153.809 121.144 153.929C121.284 154.049 121.514 154.069 121.704 154.139C121.874 154.209 122.204 154.109 121.974 154.599C121.894 154.759 122.034 154.729 122.174 154.669C122.404 154.579 122.444 154.679 122.444 154.829C122.434 155.169 122.844 155.079 122.964 155.299C123.004 155.369 123.034 155.459 123.064 155.539C123.074 155.569 123.044 155.639 123.104 155.619C123.494 155.479 123.404 155.859 123.614 155.899C123.954 155.969 123.934 156.409 124.104 156.649C124.364 157.019 124.714 157.299 125.014 157.619C125.184 157.789 125.354 157.969 125.504 158.149C125.714 158.399 125.914 158.669 126.144 158.899C126.224 158.979 126.384 158.969 126.494 159.009C126.794 159.119 126.714 159.619 127.034 159.699C127.274 159.759 127.374 159.969 127.484 160.169C127.524 160.239 127.514 160.339 127.564 160.399C127.714 160.579 127.864 160.759 128.034 160.919C128.234 161.099 128.454 161.259 128.654 161.439C128.884 161.639 129.104 161.849 129.354 162.039C129.634 162.249 129.894 162.479 130.244 162.629C130.804 162.869 131.114 163.379 131.534 163.769C131.674 163.899 131.754 164.079 131.734 164.379C131.704 164.699 131.944 164.749 132.174 164.789C132.524 164.849 132.724 165.089 132.834 165.419C132.914 165.649 132.984 165.889 133.134 166.049C133.254 166.179 133.484 166.169 133.654 166.249C133.714 166.279 133.734 166.349 133.744 166.439C133.794 166.769 133.704 167.259 133.954 167.379C133.984 167.389 133.954 167.469 133.954 167.509C134.024 167.889 134.064 168.259 134.214 168.629C134.274 168.729 134.344 168.689 134.554 168.789C134.564 168.799 134.574 168.809 134.594 168.829C134.614 168.859 134.744 168.899 134.834 168.909C135.034 168.939 135.194 168.889 135.194 168.919C135.204 169.039 135.204 169.199 135.064 169.349C134.994 169.429 134.904 169.499 134.774 169.539C134.674 169.589 134.434 169.589 134.394 169.599C134.294 169.639 134.174 169.649 134.054 169.629C133.934 169.599 133.934 169.619 133.884 169.589C133.544 169.389 133.454 169.269 133.284 169.139L133.094 168.999L132.634 168.579C132.344 168.329 132.074 168.059 131.764 167.839C131.254 167.489 130.874 166.989 130.454 166.549C130.364 166.459 130.194 166.459 130.114 166.369C129.374 165.529 128.404 164.959 127.634 164.159C127.384 163.899 127.194 163.579 126.944 163.319C126.584 162.949 126.174 162.619 125.804 162.249C125.444 161.879 125.104 161.479 124.764 161.089C124.404 160.689 124.054 160.289 123.684 159.909C123.314 159.529 122.924 159.179 122.564 158.799C122.044 158.239 121.564 157.649 121.034 157.099C120.844 156.909 120.554 156.819 120.344 156.649C120.144 156.489 119.994 156.279 119.814 156.089C119.784 156.049 119.754 155.999 119.714 155.969C119.434 155.759 119.124 155.579 118.854 155.349C118.434 154.979 117.994 154.619 117.654 154.159C117.384 153.789 117.014 153.519 116.684 153.209C116.514 153.049 116.334 152.889 116.194 152.699C116.154 152.649 116.194 152.509 116.264 152.349C116.304 152.249 116.454 152.039 116.774 151.729C117.064 151.439 117.234 151.319 117.294 151.319C117.534 151.319 117.834 151.259 118.004 151.339C118.244 151.449 118.384 151.659 118.564 151.829L118.554 151.789Z" fill="#87B1D9"/>
</svg>
