<svg width="126" height="192" viewBox="0 0 126 192" fill="none" xmlns="http://www.w3.org/2000/svg">
<path d="M59.4546 129.987C59.2646 129.637 59.0246 129.217 58.7946 128.787C58.6946 128.597 58.5146 128.377 58.4646 128.247C58.3546 127.787 58.0946 127.467 57.7846 127.127C57.6246 126.937 57.4646 126.667 57.3046 126.437C56.9946 126.007 56.7046 125.627 56.2646 125.457C55.8146 125.307 55.4046 124.987 55.0246 124.497C54.7846 124.197 54.4246 123.997 54.1346 123.737C53.6446 123.277 53.0546 122.927 52.5646 122.497C52.1746 122.137 51.7446 121.857 51.2946 121.597C50.8546 121.317 50.3946 121.087 49.8646 120.927C49.3246 120.747 48.8146 120.487 48.2546 120.307C47.7046 120.117 47.1646 119.857 46.5946 119.737C46.3946 119.687 46.1546 119.567 46.0446 119.457C45.5246 118.927 44.6146 119.237 44.0146 118.897C44.0046 118.887 43.7746 118.957 43.7146 119.017C43.1846 119.577 42.1246 119.527 41.2046 119.537C40.5646 119.597 39.9146 119.537 39.2946 119.717C38.9446 119.817 38.5546 119.887 38.1846 119.927C37.6346 119.957 37.1346 120.157 36.6246 120.297C36.1146 120.437 35.6446 120.687 35.1846 120.947C34.7546 121.187 34.3046 121.377 33.8546 121.597C33.4046 121.807 32.9046 121.907 32.4446 122.087C32.1746 122.177 31.9746 122.287 31.8346 122.507C31.5246 122.947 31.0946 123.267 30.5546 123.557C30.2946 123.707 29.9946 123.877 29.7846 124.107C29.4746 124.417 29.2246 124.557 28.9446 124.477C28.6846 124.397 28.4846 124.577 28.2946 124.897C27.9746 125.477 27.6346 126.057 27.2546 126.557C26.8246 127.127 26.5246 127.677 26.2246 128.277C26.0446 128.597 25.8846 128.877 25.5946 129.137C25.2046 129.577 24.8946 130.147 24.8846 130.747C24.9446 131.557 24.3846 132.297 24.3646 133.107C23.9046 133.827 23.9946 134.697 23.8546 135.497C23.6846 137.197 23.6946 138.927 24.0446 140.607C24.0846 140.967 24.2646 141.297 24.3646 141.637C25.0746 143.717 26.0446 145.677 27.3246 147.477C28.0846 148.627 29.0646 149.667 30.2146 150.447C30.9746 150.867 31.6446 151.427 32.3746 151.937C32.5946 152.097 32.8246 152.287 33.0746 152.437C33.3346 152.567 33.5946 152.677 33.8446 152.737C34.7046 152.987 35.4346 153.427 36.2746 153.647C36.7946 154.007 37.4946 154.127 38.1446 154.257C38.4946 154.317 38.8646 154.337 39.2146 154.397C40.3046 154.537 41.4046 154.627 42.5146 154.577C42.8046 154.567 43.0946 154.587 43.3746 154.577C43.6646 154.557 43.9446 154.527 44.2346 154.487C46.2246 154.197 48.1446 153.597 50.0146 152.837C50.3946 152.667 50.7546 152.417 51.1346 152.207C51.5146 152.017 51.8646 151.757 52.2146 151.537C52.5646 151.307 52.9546 151.147 53.3246 150.967C53.5346 150.867 53.7946 150.697 53.9746 150.517C54.4046 150.117 54.8146 149.737 55.2446 149.367C55.4546 149.187 55.6846 149.007 55.8946 148.817L56.4846 148.207C56.8346 147.837 57.2946 147.487 57.6446 147.247C58.2446 146.877 58.7346 146.337 59.0646 145.547C59.1946 145.227 59.3946 144.937 59.5046 144.617C59.9746 143.327 60.3146 142.007 60.5346 140.667C60.6446 139.947 60.8746 139.227 60.9846 138.517C61.1646 137.607 61.5446 137.317 62.0746 137.427C62.6646 137.547 63.1446 138.047 63.5846 138.787C63.7346 139.077 63.8646 139.437 63.6646 139.977C63.3546 140.767 63.3146 141.567 63.2546 142.427C63.2446 142.867 63.0846 143.477 62.9046 143.947C62.6146 144.587 62.3546 145.227 62.1046 145.877L61.2146 147.757C60.8946 148.317 60.5346 148.837 60.1646 149.327C59.7946 149.817 59.3346 150.217 58.9046 150.607C58.2346 151.237 57.4446 151.767 56.7546 152.387C55.9846 152.917 55.2846 153.557 54.4646 154.067C53.5846 154.727 52.5646 155.307 51.5446 155.617C51.2246 155.687 50.8646 155.897 50.5146 156.037C50.0046 156.267 49.4946 156.497 48.9546 156.647C48.4246 156.797 47.9046 156.977 47.3546 156.947C47.1646 156.947 46.8746 157.027 46.6546 157.117C46.0746 157.347 45.4746 157.497 44.8646 157.557C44.2546 157.627 43.6446 157.727 43.0246 157.727C41.5446 157.807 40.0646 157.687 38.6146 157.487C36.7346 157.297 34.8846 156.787 33.1146 156.097C32.6146 155.867 32.1346 155.607 31.6546 155.347C31.1846 155.067 30.7446 154.737 30.2746 154.457C29.7746 154.177 29.3346 153.787 28.8546 153.447C28.3746 153.117 27.9346 152.757 27.4846 152.427C26.9646 152.077 26.5146 151.647 26.1246 151.177C25.7146 150.727 25.3146 150.287 24.9046 149.837C24.0646 149.007 23.4546 148.027 22.8846 146.987C21.7446 144.787 20.9846 142.387 20.7246 139.937C20.6346 139.467 20.6846 138.967 20.7346 138.517C20.8146 137.987 20.7346 137.527 20.5746 137.167C20.3146 136.617 20.3346 135.937 20.4746 135.277C20.6946 134.597 20.8346 133.927 20.9646 133.247C21.1446 132.577 21.2646 131.897 21.4046 131.187C21.6246 130.387 21.9046 129.517 22.3546 128.777C22.7146 128.117 23.0946 127.517 23.3646 126.827C23.4146 126.677 23.5146 126.477 23.6246 126.347C24.0946 125.727 24.6246 125.157 25.0546 124.517C25.5246 123.907 26.0246 123.317 26.5446 122.737C28.0746 121.157 29.9546 119.977 31.8946 119.007C32.1746 118.877 32.5246 118.767 32.7346 118.607C33.1946 118.227 33.7546 118.017 34.3046 117.807C34.5846 117.707 34.8646 117.607 35.1546 117.527C35.4446 117.457 35.7346 117.397 36.0146 117.327C38.8246 116.637 41.7246 116.347 44.6146 116.647C45.0346 116.697 45.4646 116.737 45.8846 116.807L47.1446 117.087C47.9946 117.247 48.7946 117.577 49.6146 117.837C49.7346 117.877 49.8646 117.947 49.9646 117.987C50.6546 118.167 51.3446 118.437 51.9946 118.777L53.8946 119.897C54.4246 120.237 54.9546 120.597 55.4546 121.007C55.9246 121.447 56.3946 121.887 56.8646 122.317C58.5646 124.077 60.0346 126.017 61.2446 128.147C62.3746 130.177 63.1946 132.437 63.5146 134.787C63.6146 135.227 63.5746 135.707 63.5646 136.147C63.5346 136.757 63.1746 137.437 62.8946 137.387C62.7646 137.367 62.5846 137.167 62.5046 136.947C62.2046 136.097 61.9646 135.297 61.4546 134.727C61.2246 134.457 61.0146 133.977 60.9546 133.367C60.7946 132.537 60.5346 131.807 60.0446 131.197C59.8146 130.927 59.5146 130.607 59.4546 129.987Z" fill="#87B1D9"/>
<path d="M56.9731 69.7566C56.6631 68.8966 56.3731 68.0066 55.9231 67.1966C55.5531 66.3366 55.0331 65.5666 54.5631 64.7666C54.1331 64.0566 53.6031 63.4266 53.1031 62.7666C52.5231 62.1866 51.9431 61.5665 51.2431 61.0865C50.8731 60.8465 50.5231 60.5266 50.1631 60.2366C49.5131 59.7066 48.7831 59.3066 48.0931 58.8466C47.7731 58.6366 47.3631 58.5466 47.0731 58.3566C46.7031 58.1266 46.3331 57.8966 45.9631 57.6766C45.5731 57.4866 45.1831 57.3066 44.7831 57.1366C44.0031 56.7666 43.1531 56.5366 42.3031 56.3466C41.6931 56.0266 41.0331 55.8765 40.3731 55.7465C39.7131 55.6065 39.0431 55.5166 38.3631 55.4766C37.0131 55.3066 35.6331 55.2366 34.2931 55.3266C33.9431 55.3766 33.5331 55.4166 33.1731 55.4066C30.9831 55.2966 28.8131 55.7666 26.7131 56.3866C24.4531 57.0566 22.3131 58.0165 20.2231 59.0865C19.6831 59.3965 19.1031 59.6966 18.5931 60.0966C18.0831 60.4966 17.5631 60.8865 17.0731 61.3065C16.5231 61.8465 15.9631 62.3666 15.4531 62.9366C14.9831 63.5366 14.4531 64.0966 14.0231 64.7266C12.6831 66.4966 11.7631 68.5366 11.2131 70.6366C10.5031 73.4566 10.4531 76.4066 11.0231 79.2066L11.2331 80.2765L11.5331 81.3365C11.6331 81.6865 11.7131 82.0465 11.8331 82.3965L12.2331 83.4266C13.3431 86.1566 15.0831 88.6566 17.2931 90.6766C18.9731 92.1766 20.8931 93.4166 22.9231 94.3866C24.8631 95.2066 26.8631 95.8765 28.9431 96.2165C30.4731 96.4965 32.0231 96.6566 33.5731 96.6666C35.1231 96.7266 36.6831 96.5866 38.2031 96.3566C38.9631 96.2366 39.7231 96.0765 40.4731 95.8965C40.8531 95.8065 41.2231 95.6965 41.5931 95.5865L42.4631 95.3166L42.9931 95.1465L43.2631 95.0666C43.3231 95.1166 43.3831 95.2066 43.4431 95.2666L46.8731 99.4566C48.2531 101.157 47.8731 100.587 47.9431 100.637C47.9331 100.597 47.9331 100.597 47.9331 100.597L48.5731 92.6666L48.6031 92.2966C48.6631 92.2066 48.7931 92.1466 48.8831 92.0666L49.4831 91.6266L50.0731 91.1866C50.4431 90.8666 50.8331 90.5765 51.1831 90.2465C51.9031 89.5965 52.5831 88.8966 53.2131 88.1566C54.4831 86.6866 55.4931 85.0165 56.2731 83.2465C57.1331 81.2465 57.6831 79.0665 57.6031 76.8965C57.5831 76.2865 57.7031 76.0966 57.9331 76.3266C58.3131 76.7266 58.8031 77.0666 58.9231 78.2066C58.9731 78.5966 59.0031 78.9765 58.9731 79.3665C58.9631 79.7665 58.9031 80.1866 58.7531 80.6366C58.3531 81.9566 58.0531 83.4166 57.2331 84.5466C57.1231 84.7066 57.0031 84.9566 56.9131 85.1566C56.1031 87.0266 54.9231 88.7266 53.4931 90.1966C52.7931 90.9466 52.0131 91.6165 51.2231 92.2465C50.8431 92.5665 50.3431 92.8865 50.1231 93.0565C50.0431 93.2065 50.0731 93.3566 50.0431 93.5966L49.9831 94.3466C49.8831 95.6566 49.8331 96.9665 49.7531 98.2765L49.5731 100.867L49.3731 103.287L49.2831 104.477L49.2631 104.777C49.2731 104.867 49.2331 104.807 49.2031 104.767L49.1131 104.647L48.7431 104.187C48.3731 103.727 47.9931 103.297 47.6231 102.817C47.2631 102.357 46.8831 101.817 46.7131 101.397C46.6431 101.227 46.3331 100.847 46.1731 100.757C45.5831 100.387 45.1231 99.7666 44.6531 99.1566L42.8631 96.8566L42.7831 96.7465C42.7431 96.7465 42.7031 96.7665 42.6631 96.7765L42.4131 96.8466L41.7331 97.0366C41.2231 97.1766 40.7131 97.2965 40.1931 97.3965C38.6631 97.7165 37.1131 97.9466 35.5631 98.0666C34.3531 98.1766 33.1431 98.1166 31.9231 98.1366C30.7131 98.0266 29.4831 97.9965 28.2931 97.7165C27.7931 97.6166 27.2831 97.5266 26.7831 97.4066L25.3031 96.9665C24.3031 96.7066 23.3731 96.2366 22.4031 95.8766C21.9731 95.6766 21.5331 95.4865 21.1031 95.2765C20.3031 94.9065 19.5031 94.4266 18.8531 93.9066C18.1131 93.3566 17.6131 92.8565 16.8031 92.4965C16.3431 92.3065 15.8031 91.7565 15.3631 91.3065C15.0931 91.0165 14.8031 90.7366 14.5631 90.4166L13.8831 89.4566C13.3131 88.7066 12.9431 87.9165 12.2331 87.1866C11.8431 86.7966 11.5631 86.0866 11.3031 85.5366C10.2731 83.0366 9.47313 80.4366 9.19313 77.7366C8.84313 74.0866 9.40314 70.2566 11.1031 66.9166C11.7431 65.5966 12.5531 64.3665 13.4531 63.2165C14.8431 61.3965 16.5931 59.9066 18.4231 58.5966C20.2831 57.2966 22.3431 56.3366 24.4431 55.5366C25.2931 55.2866 26.1431 55.0066 26.9731 54.7366C28.9031 54.1666 30.9031 53.8265 32.9031 53.8365C35.3131 53.7665 37.7131 53.9066 40.0931 54.2666C40.6431 54.3666 41.2131 54.4465 41.7531 54.5865C45.4631 55.6765 49.0831 57.2966 52.0831 59.8166C54.4831 61.8666 56.4331 64.4465 57.7431 67.3065C58.7331 69.5265 59.3031 71.9066 59.4631 74.2966C59.4731 74.4566 59.4831 74.6165 59.4931 74.7765C59.5031 76.1565 59.2331 76.5566 58.7431 75.9366C58.5231 75.6665 58.3531 75.3266 58.2231 74.9066C58.0931 74.4966 58.0231 74.0066 57.9031 73.4466C57.7331 72.1966 57.4231 70.9666 57.0131 69.7666L56.9731 69.7566Z" fill="#87B1D9"/>
<path d="M86.674 72.3666C86.674 64.8566 78.424 58.7567 68.244 58.7567C58.064 58.7567 49.814 64.8466 49.814 72.3666C49.814 78.3866 55.104 83.4766 62.434 85.2766C62.734 85.3466 62.944 85.6167 62.934 85.9267C62.834 87.8467 62.724 90.1866 62.654 91.8066C62.624 92.4266 63.404 92.7266 63.804 92.2466L68.874 86.1566C68.994 86.0166 69.154 85.9367 69.334 85.9267C79.004 85.5167 86.674 79.6066 86.674 72.3666Z" fill="#87B1D9"/>
<path d="M84.894 68.0367C84.454 66.8467 83.714 65.7667 82.914 64.7367C82.554 64.2867 82.184 63.8267 81.744 63.4567C81.524 63.2667 81.314 63.0666 81.074 62.8966C80.824 62.7366 80.574 62.5867 80.304 62.4467C80.034 62.3067 79.774 62.0867 79.484 61.9467C78.964 61.6767 78.474 61.3566 77.924 61.1466C77.674 61.0466 77.384 61.0067 77.174 60.8767C76.644 60.5667 76.074 60.3467 75.504 60.1267C74.924 59.9367 74.324 59.8167 73.714 59.7267C72.824 59.3567 71.864 59.2866 70.904 59.2766C69.954 59.1966 68.974 59.1667 68.034 59.2867C67.784 59.3367 67.504 59.3567 67.244 59.3467C65.704 59.2267 64.174 59.5266 62.674 59.8966C61.074 60.3266 59.524 60.8467 57.964 61.4067C57.554 61.5767 57.154 61.7767 56.744 61.9867C56.344 62.2067 55.974 62.4867 55.604 62.7267C55.154 63.0167 54.764 63.4066 54.354 63.7466C53.954 64.1066 53.604 64.5167 53.224 64.8867C52.194 66.0467 51.394 67.3967 50.974 68.8467C50.444 70.7867 50.434 72.8167 51.034 74.6667C51.304 75.6067 51.684 76.5467 52.164 77.4267C53.154 79.1867 54.614 80.7267 56.344 81.9067C57.644 82.7966 59.094 83.4766 60.594 83.9666C60.894 84.0566 61.184 84.1667 61.484 84.2367L62.524 84.4966C63.224 84.6166 63.774 85.2367 63.734 85.9567L63.704 87.4767L63.654 89.2166L63.634 90.0667L63.644 90.2967C63.654 90.3967 63.624 90.4967 63.684 90.5767C63.744 90.6567 63.884 90.6467 63.944 90.5467L64.104 90.3066L64.144 90.2567L64.164 90.2267L64.254 90.1067L64.644 89.6166L67.804 85.6667L67.994 85.4267C68.294 85.0467 68.754 84.8067 69.234 84.7667L70.114 84.6667C70.604 84.6167 71.084 84.5567 71.564 84.4567C72.074 84.3567 72.584 84.3067 73.084 84.1767C74.954 83.8067 76.794 83.2167 78.474 82.3267C79.654 81.6667 80.804 80.9267 81.784 80.0167C82.754 79.1067 83.624 78.0867 84.274 76.9467C85.004 75.6667 85.464 74.2166 85.394 72.7766C85.384 72.3766 85.504 72.2466 85.734 72.3966C86.124 72.6666 86.554 72.9067 86.734 73.7367C86.774 74.2867 86.864 74.8467 86.574 75.4767C86.374 75.9367 86.254 76.4367 86.014 76.8867C85.814 77.3567 85.564 77.7967 85.184 78.1367C85.084 78.2367 84.984 78.4067 84.914 78.5467C83.504 81.1067 80.974 82.8766 78.374 84.0566C77.954 84.2666 77.524 84.4667 77.084 84.6367C76.644 84.8167 76.224 85.0166 75.764 85.1466C75.184 85.3266 74.604 85.5366 74.004 85.6466C73.144 85.8566 72.254 85.9567 71.384 86.0967C70.734 86.1967 70.054 86.3066 69.494 86.1166C69.384 86.0566 69.084 86.1366 69.054 86.2766C69.034 86.3466 69.014 86.4066 69.004 86.4666C68.884 86.8166 68.544 87.1967 68.254 87.5467L65.394 90.8966C65.054 91.2766 64.524 92.0366 64.084 92.4366C63.844 92.6367 63.684 92.8366 63.364 92.8966C63.064 92.9566 62.704 92.8366 62.494 92.6166C62.314 92.4366 62.264 92.2367 62.214 92.0367C62.164 91.8267 62.104 91.5866 62.104 91.2766L62.114 89.9467L62.104 89.0167L62.094 87.1466C62.094 86.7666 62.104 86.2367 62.094 86.2267C62.104 86.0867 61.964 85.9867 61.834 85.9867L61.754 85.9666L61.524 85.9067L61.064 85.7867C60.754 85.7167 60.454 85.6067 60.154 85.5167C59.834 85.4067 59.494 85.3667 59.184 85.2267C58.604 84.9967 57.974 84.7967 57.484 84.4467C56.934 84.0867 56.514 83.8067 55.884 83.6667C55.524 83.5967 55.084 83.2566 54.734 82.9966C54.284 82.6366 53.894 82.2166 53.514 81.8066C53.074 81.2866 52.704 80.7967 52.114 80.3567C51.774 80.1367 51.504 79.6566 51.274 79.2766C50.314 77.5766 49.544 75.7666 49.194 73.8066C48.764 71.1666 49.264 68.3066 50.694 65.9966C50.964 65.5366 51.244 65.0866 51.594 64.6866C51.914 64.2666 52.264 63.8566 52.644 63.4966C53.774 62.2966 55.124 61.3467 56.534 60.5667C57.944 59.7567 59.464 59.2167 60.994 58.7667C61.604 58.6267 62.214 58.4467 62.814 58.2867C64.194 57.8967 65.614 57.7167 67.034 57.7367C68.744 57.7067 70.434 57.7766 72.144 57.8966C72.534 57.9466 72.944 57.9767 73.324 58.0667C75.984 58.7267 78.684 59.4967 81.014 61.0767C82.894 62.3367 84.524 64.0067 85.674 65.9767C86.564 67.4967 87.124 69.2067 87.264 70.9567C87.264 71.0667 87.294 71.1866 87.294 71.3066C87.294 72.3166 87.014 72.5966 86.534 72.1566C86.084 71.7766 85.904 71.2267 85.714 70.4767L85.594 69.8366L85.404 69.2166L85.214 68.5967L84.944 68.0067L84.894 68.0367Z" fill="#87B1D9"/>
<path d="M54.6846 157.797C54.9346 157.937 55.2446 158.107 55.5546 158.277C55.6946 158.357 55.9046 158.407 55.9646 158.497C56.1646 158.797 56.4346 158.917 56.7646 159.017C56.9446 159.077 57.1146 159.227 57.2846 159.347C57.5946 159.577 57.8946 159.747 58.2746 159.717C58.6446 159.687 59.0246 159.827 59.3846 160.117C59.6046 160.297 59.8946 160.407 60.1446 160.557C60.5746 160.817 61.0346 161.057 61.4146 161.357C62.0346 161.857 62.6446 162.277 63.3946 162.607C64.1746 162.957 64.8946 163.497 65.6246 163.977C65.7546 164.057 65.8946 164.207 65.9346 164.327C66.1246 164.877 66.8846 164.847 67.1546 165.307C67.1646 165.317 67.3546 165.317 67.4146 165.277C68.0446 164.927 68.7346 165.367 69.3446 165.727C69.7646 165.977 70.1646 166.277 70.6246 166.467C70.8846 166.577 71.1546 166.727 71.3946 166.897C72.0846 167.377 72.8046 167.747 73.5946 168.027C74.3246 168.277 74.9846 168.757 75.5146 169.337C75.6646 169.507 75.8146 169.607 76.0246 169.607C76.4746 169.607 76.8446 169.837 77.2046 170.167C77.3846 170.327 77.6046 170.477 77.8246 170.587C78.1246 170.747 78.2846 170.917 78.2546 171.187C78.2146 171.447 78.4046 171.527 78.6846 171.607C79.1746 171.747 79.7146 171.847 80.1346 172.117C80.6046 172.417 81.0946 172.557 81.5646 172.817C81.8146 172.957 82.0446 173.087 82.2346 173.327C82.5346 173.707 82.9446 173.987 83.4546 174.017C83.7746 174.037 84.0546 174.177 84.3346 174.337L81.9846 174.307C82.2646 174.127 82.5646 173.967 82.7746 173.747C83.3946 173.617 83.7646 173.127 84.1546 172.807C85.0046 172.127 85.5446 171.367 85.9146 170.427C85.9746 170.217 86.0246 170.017 86.0446 169.787C86.1446 169.257 86.1646 168.687 86.2146 168.107L86.9546 170.067C86.1646 169.347 85.4046 168.587 84.6546 167.817C83.8746 167.007 83.1446 166.157 82.2146 165.487C81.6446 165.077 81.1446 164.567 80.7046 163.997C80.4346 163.647 80.1046 163.247 79.7446 163.037C79.1046 162.667 78.7646 162.027 78.2146 161.607C78.0346 161.097 77.5546 160.777 77.1946 160.387C76.9946 160.177 76.7646 159.997 76.5646 159.797L74.7246 157.907C74.4046 157.577 74.1246 157.217 73.7946 156.897C72.6546 155.777 71.5146 154.677 70.5046 153.437C70.2946 153.177 70.0346 152.957 69.7946 152.727C69.3246 152.247 68.8346 151.787 68.5646 151.187C68.4846 151.017 68.3446 150.827 68.1946 150.697C67.4946 150.127 67.0646 149.367 66.5046 148.697C66.2546 148.397 66.0746 147.997 65.9946 147.647C65.8646 147.097 65.5846 146.647 65.1146 146.247L64.5646 145.727C63.8146 145.067 63.0446 144.437 62.3146 143.747C61.9246 143.377 61.6046 142.927 61.2946 142.487C60.9046 141.927 61.0146 141.527 61.4446 141.187C61.9146 140.817 62.5046 140.687 63.1646 140.657C63.4146 140.647 63.6446 140.727 63.8246 141.047C64.0846 141.527 64.4546 141.877 64.9846 142.107C65.2546 142.227 65.5246 142.497 65.7346 142.747C66.2946 143.437 66.9646 143.997 67.6046 144.597C68.2046 145.147 68.6846 145.767 69.0546 146.437C69.6446 147.507 70.3946 148.477 71.2746 149.407C71.7846 149.937 72.3446 150.457 72.6746 151.117C72.7746 151.317 73.0046 151.487 73.1746 151.677C73.6846 152.227 74.2946 152.697 74.5946 153.387C74.6446 153.507 74.8046 153.647 74.9346 153.727C75.6346 154.197 76.1646 154.857 76.7546 155.447C77.4646 156.157 78.1246 156.927 78.8446 157.617L81.6946 160.237C82.2346 160.757 82.6846 161.357 83.2046 161.887C83.7546 162.447 84.3046 163.047 84.9246 163.487C85.6246 163.977 86.1046 164.697 86.7746 165.167C87.4346 165.627 87.9846 166.167 88.5446 166.747L89.3346 167.557L89.3746 167.607C89.5746 167.817 89.6646 168.097 89.6346 168.357C89.4846 169.727 89.1646 171.157 88.4646 172.437C88.2946 172.757 88.0546 173.057 87.8046 173.287C87.4946 173.557 87.3046 173.837 87.2646 174.167C87.2046 174.667 86.8446 175.057 86.3946 175.297C85.4646 175.817 84.6646 176.337 83.9046 176.977L83.6746 177.157C83.4046 177.377 83.0346 177.397 82.7446 177.247L82.5246 177.137C82.0946 176.927 81.6846 176.637 81.2946 176.347C80.8846 176.047 80.5246 175.717 80.0246 175.597C79.9146 175.567 79.7746 175.507 79.6946 175.437C78.9146 174.707 77.9346 174.317 77.0346 173.807C75.7546 173.087 74.5646 172.237 73.3246 171.457C73.1446 171.347 72.9746 171.167 72.7946 171.127C72.0046 170.937 71.3746 170.407 70.7246 169.987C69.1046 168.937 67.4046 168.027 65.7246 167.097C64.7346 166.547 63.7746 165.967 62.7946 165.397C62.7246 165.357 62.6546 165.277 62.5846 165.257C61.6546 164.997 60.9146 164.327 60.0646 163.897C59.3346 163.527 58.6446 163.027 57.9646 162.557C56.6546 161.657 55.3046 160.847 53.8846 160.127C52.5446 159.437 51.2446 158.687 49.9246 157.947C49.6746 157.807 49.4346 157.617 49.2246 157.427C48.9346 157.167 48.7746 156.607 48.9446 156.387C49.0246 156.287 49.2246 156.207 49.3846 156.237C50.0046 156.337 50.6046 156.427 51.1846 156.347C51.4546 156.307 51.8446 156.367 52.1846 156.657C52.6546 157.047 53.1846 157.217 53.7446 157.327C54.0646 157.407 54.4146 157.417 54.6846 157.797Z" fill="#87B1D9"/>
<path d="M82.8739 163.827C82.8639 163.867 82.8539 163.917 82.8439 163.967C82.8439 163.987 82.8839 164.047 82.8339 164.037C82.6939 163.987 82.7039 164.047 82.7539 164.127C82.7739 164.177 82.7339 164.177 82.7039 164.187C82.6539 164.207 82.6439 164.257 82.8039 164.417C82.9639 164.577 83.0039 164.667 82.9239 164.687C82.8739 164.697 82.9039 164.767 82.8839 164.797C82.8539 164.857 82.8539 164.927 82.7739 164.947C82.6439 164.977 82.5639 165.037 82.5939 165.187C82.6239 165.347 82.4939 165.387 82.4239 165.477C82.4139 165.497 82.3539 165.477 82.2839 165.447C81.9539 165.277 82.2539 165.597 82.0239 165.497C82.0139 165.497 82.0939 165.577 82.1439 165.617C82.6239 166.027 82.5639 166.107 82.5239 166.197C82.5039 166.257 82.4239 166.277 82.4639 166.387C82.4839 166.447 82.4739 166.487 82.4339 166.507C82.3439 166.567 82.3339 166.687 82.4239 166.887C82.5139 167.067 82.4139 167.127 82.1839 167.077C82.1139 167.067 82.1039 167.077 82.1739 167.167C82.3339 167.347 82.3039 167.397 82.2039 167.397C82.1539 167.397 82.1239 167.417 82.1239 167.457C82.1239 167.507 82.0539 167.497 81.8439 167.357C81.6439 167.227 81.6539 167.267 81.7039 167.347C81.7839 167.487 81.9139 167.657 81.8639 167.707C81.8139 167.757 81.8939 167.897 81.8839 167.967C81.8739 168.007 81.8639 168.037 81.7639 168.007C81.6039 167.957 81.5439 167.997 81.7139 168.187C81.9339 168.437 81.7139 168.387 81.7839 168.537C81.5539 168.477 81.6639 168.657 81.6039 168.717C81.4839 168.847 81.3839 168.987 81.2839 169.127C81.2639 169.157 81.2739 169.217 81.2739 169.257C81.2639 169.527 81.1339 169.717 80.9439 169.857C80.8239 169.947 80.6539 169.997 80.7039 170.217C80.7339 170.347 80.6639 170.407 80.5239 170.417C80.4339 170.427 80.3539 170.437 80.4039 170.547C80.4939 170.727 80.2639 170.657 80.2739 170.777C80.0439 170.687 80.0839 170.797 80.0239 170.837C79.9939 170.857 79.9939 170.907 79.9739 170.937C79.8939 171.017 79.8039 171.087 79.7139 171.157C79.6639 171.197 79.5839 171.207 79.5439 171.247C79.4139 171.407 79.2939 171.567 79.0239 171.617C78.9639 171.627 78.9639 171.677 78.9339 171.707C78.8739 171.767 78.8239 171.837 78.5839 171.757C78.5139 171.737 78.4639 171.737 78.4639 171.767C78.4539 171.907 78.1939 171.837 78.0539 171.877C77.9939 171.897 77.8239 171.837 77.6539 171.757C77.3639 171.627 77.2339 171.607 77.2139 171.687C77.2039 171.717 77.1739 171.737 77.1639 171.767C77.1239 171.897 77.1139 172.047 77.0439 172.147C77.0039 172.207 76.8839 172.197 76.7639 172.197C76.6039 172.187 76.3039 171.997 75.8639 171.667C75.3939 171.307 75.0139 170.977 74.6639 170.647C74.5239 170.517 74.4639 170.437 74.5839 170.467C74.7539 170.507 74.7939 170.457 74.6739 170.287C74.6139 170.197 74.6439 170.157 74.7039 170.157C74.8539 170.127 74.8739 170.007 74.9239 169.907C74.9739 169.817 75.1139 169.797 75.3539 169.857C75.7339 169.947 75.9739 169.937 76.1039 169.837C76.1839 169.777 76.2239 169.697 76.4839 169.767C76.5639 169.787 76.5539 169.737 76.5839 169.727C76.6739 169.677 76.6639 169.547 76.9439 169.647C76.9939 169.667 76.9939 169.637 76.9839 169.607C76.9239 169.437 77.0739 169.407 77.1539 169.337C77.2439 169.247 77.3939 169.197 77.4739 169.097C77.5739 168.967 77.5939 168.777 77.6939 168.647C77.7539 168.567 77.9039 168.567 77.9739 168.497C78.0539 168.427 78.1539 168.377 78.1139 168.227C78.0739 168.067 78.2839 168.087 78.2339 167.927C78.1939 167.767 78.2539 167.697 78.3339 167.637C78.5139 167.507 78.6439 167.337 78.8039 167.187C78.8339 167.157 78.8939 167.147 78.9839 167.167C79.0839 167.187 79.0939 167.147 78.9639 167.007C78.7539 166.797 78.7839 166.747 78.9039 166.757C79.1439 166.787 79.2039 166.687 79.1439 166.497C79.1139 166.387 79.1739 166.337 79.2539 166.307C79.3239 166.277 79.4239 166.277 79.3239 166.127C79.3039 166.097 79.2939 166.067 79.3239 166.067C79.5639 166.077 79.4839 165.857 79.5239 165.717C79.5739 165.517 79.7539 165.427 79.8639 165.277C79.8839 165.257 79.9439 165.267 79.9039 165.207C79.7539 164.977 79.9039 164.957 79.9639 164.887C80.1339 164.707 80.1539 164.427 80.2139 164.167C80.2439 164.017 80.3139 163.887 80.3639 163.747C80.3639 163.737 80.4039 163.747 80.3939 163.727C80.2439 163.477 80.4539 163.467 80.4539 163.317C80.4539 163.187 80.5639 163.137 80.6539 163.067C80.8239 162.937 80.9039 162.757 80.9139 162.507C80.9239 162.277 80.9839 162.087 81.0339 161.887C81.0439 161.847 81.0939 161.837 81.1539 161.837C81.2339 161.837 81.5839 162.017 81.8039 162.187C81.9039 162.267 82.0339 162.377 82.0739 162.437C82.2339 162.637 82.3839 162.837 82.6539 163.117C82.7839 163.247 82.8839 163.377 82.7939 163.377C82.6839 163.387 82.7539 163.527 82.8839 163.707C82.9339 163.747 83.0539 163.887 82.8739 163.827Z" fill="#87B1D9"/>
<path d="M91.8531 176.147C92.0731 176.317 92.3631 176.457 92.6431 176.627C92.7731 176.707 92.9631 176.737 93.0231 176.817C93.2231 177.077 93.4831 177.187 93.7831 177.177C93.9431 177.177 94.1131 177.297 94.2831 177.317C94.5931 177.417 94.8931 177.357 95.0731 177.117C95.1531 176.967 95.2331 176.867 95.3331 176.797C95.4331 176.717 95.5431 176.627 95.6931 176.587C95.8731 176.477 96.0231 176.327 96.1731 176.137C96.4531 175.867 96.6831 175.477 96.9831 175.147C97.4631 174.617 97.8431 174.017 98.1331 173.277C98.4331 172.517 98.9431 171.777 99.4231 171.027C99.5131 170.897 99.6531 170.757 99.7831 170.717C100.333 170.537 100.353 169.777 100.853 169.537C100.863 169.527 100.883 169.337 100.853 169.267C100.723 168.927 100.813 168.587 100.993 168.257C101.203 167.937 101.483 167.617 101.793 167.357C102.003 167.177 102.223 166.997 102.453 166.827C102.693 166.667 102.923 166.497 103.143 166.297C103.393 166.077 103.733 165.917 104.043 165.767C104.983 165.407 105.873 165.077 106.823 164.797C107.263 164.657 107.733 164.587 108.183 164.637C108.413 164.647 108.643 164.677 108.863 164.717C109.093 164.767 109.323 164.857 109.543 164.937C109.803 165.047 109.993 165.057 110.253 165.017C110.813 164.937 111.423 165.087 112.053 165.597C112.363 165.787 112.693 166.157 113.003 166.437C113.423 166.867 113.533 167.307 113.413 167.557C113.303 167.817 113.383 168.067 113.593 168.457C113.903 169.117 114.103 169.837 114.033 170.467C113.943 171.157 113.973 171.747 113.833 172.327C113.763 172.657 113.693 172.927 113.483 173.197C113.183 173.617 112.973 174.087 113.033 174.607C113.103 175.287 112.623 175.897 112.493 176.527C112.023 177.037 111.913 177.717 111.633 178.297C111.043 179.517 110.463 180.707 109.963 181.887C109.853 182.137 109.803 182.397 109.723 182.657C109.253 184.177 108.813 185.737 108.823 186.627C108.833 186.737 108.813 186.887 108.843 186.937C108.853 186.977 108.853 187.017 108.853 187.057C108.873 187.077 108.883 187.097 108.893 187.117C108.913 187.207 109.033 187.267 109.253 187.307C109.383 187.327 109.603 187.347 109.743 187.437C109.973 187.477 110.193 187.557 110.413 187.667C110.543 187.707 110.673 187.747 110.813 187.777C110.923 187.777 111.043 187.767 111.133 187.707C111.393 187.497 111.533 187.657 111.653 187.467C111.923 187.557 112.033 187.267 112.203 186.997C112.303 186.847 112.353 186.657 112.433 186.457C112.703 185.867 112.923 185.117 113.163 184.327C113.283 183.917 113.453 183.497 113.573 183.047C114.003 181.517 114.423 179.697 115.943 178.097C116.243 177.777 116.583 177.417 116.973 177.137C117.743 176.577 118.703 176.177 119.533 176.297C119.773 176.307 120.053 176.337 120.303 176.297C120.863 176.217 121.413 176.327 121.923 176.417C122.463 176.637 122.983 176.787 123.473 177.157C123.943 177.417 124.243 177.937 124.353 178.317C124.513 178.957 124.683 179.477 124.953 180.077C125.063 180.317 125.093 180.587 125.173 180.837C125.443 181.847 125.533 182.877 125.463 183.887C125.433 184.427 125.243 184.967 125.053 185.457C124.793 186.097 124.383 186.187 123.883 185.977C123.323 185.767 122.903 185.367 122.503 184.917C122.343 184.737 122.283 184.547 122.423 184.277C122.643 183.877 122.683 183.437 122.483 183.017C122.393 182.797 122.383 182.517 122.413 182.287C122.473 181.657 122.273 181.097 122.103 180.797C121.913 180.557 121.933 180.417 121.793 180.077C121.723 179.947 121.593 179.857 121.463 179.737C121.323 179.627 121.103 179.597 120.913 179.517C120.503 179.387 120.043 179.407 119.673 179.507C119.233 179.637 118.903 179.877 118.393 180.097C118.233 180.157 118.133 180.357 118.023 180.507C117.673 180.977 117.503 181.617 117.033 182.127C116.943 182.217 116.903 182.407 116.893 182.547C116.813 183.327 116.523 184.077 116.313 184.867C116.053 185.817 115.723 186.787 115.303 187.777C115.033 188.407 114.703 189.067 114.183 189.657C113.673 190.247 112.923 190.717 112.143 190.907C111.233 191.127 110.373 190.937 109.603 190.757C109.193 190.667 108.773 190.567 108.353 190.387C107.933 190.257 107.533 190.017 107.113 189.817C106.673 189.537 106.283 189.127 106.053 188.637C105.903 188.407 105.833 188.157 105.753 187.917C105.663 187.677 105.583 187.437 105.543 187.207C105.263 186.267 105.413 185.397 105.603 184.567C106.063 182.857 106.713 181.307 107.423 179.817C107.563 179.527 107.743 179.247 107.943 179.007C108.173 178.727 108.293 178.437 108.223 178.137C108.113 177.687 108.293 177.287 108.573 176.927C109.153 176.187 109.523 175.377 109.753 174.467C109.873 173.947 110.123 173.427 110.353 172.937C110.563 172.517 110.773 172.107 110.743 171.637C110.733 171.537 110.743 171.407 110.793 171.317C111.223 170.487 111.143 169.507 110.913 168.987C110.733 168.617 110.603 168.397 110.173 168.187C109.983 168.077 109.703 168.007 109.463 167.927C109.173 167.887 108.893 167.817 108.583 167.797C108.403 167.797 108.203 167.737 108.053 167.787C107.403 168.027 106.773 168.027 106.153 168.157C104.653 168.567 103.493 169.687 102.583 171.087C102.033 171.897 101.513 172.797 101.003 173.747C100.963 173.817 100.893 173.877 100.873 173.947C100.663 174.847 100.043 175.627 99.5431 176.537C99.1031 177.317 98.4531 178.127 97.4431 178.817C96.9531 179.147 96.3631 179.417 95.7231 179.567C95.4031 179.647 95.0731 179.647 94.7531 179.677C94.4331 179.687 94.1431 179.627 93.8331 179.597C92.6931 179.367 91.7531 178.927 90.9831 178.457C89.4731 177.567 88.3231 176.477 87.1931 175.387C86.9831 175.177 86.8131 174.927 86.6531 174.677C86.4431 174.337 86.4431 173.747 86.6731 173.597C86.7831 173.527 86.9931 173.507 87.1431 173.587C87.7131 173.857 88.2531 174.117 88.8331 174.177C89.1131 174.207 89.4631 174.347 89.7131 174.697C90.0531 175.187 90.5631 175.427 91.0731 175.617C91.3031 175.727 91.6431 175.757 91.8531 176.147Z" fill="#87B1D9"/>
<path d="M84.4835 121.307L88.3935 120.777C89.2135 120.667 89.7935 121.537 89.3835 122.257L87.4235 125.687C87.2635 125.967 87.2435 126.317 87.3935 126.607L89.1035 130.167C89.4635 130.907 88.8135 131.737 88.0035 131.567L84.1435 130.757C83.8235 130.687 83.4935 130.787 83.2535 131.007L80.3935 133.737C79.7935 134.307 78.8135 133.947 78.7235 133.127L78.2935 129.207C78.2535 128.877 78.0635 128.597 77.7735 128.437L74.3035 126.567C73.5835 126.177 73.6135 125.127 74.3635 124.787L77.9635 123.167C78.2635 123.037 78.4735 122.757 78.5335 122.437L79.2435 118.557C79.3935 117.747 80.4035 117.457 80.9535 118.067L83.6035 120.987C83.8335 121.227 84.1635 121.347 84.4835 121.307Z" fill="#87B1D9"/>
<path d="M86.7736 120.277H87.7936C88.2636 120.257 88.7336 120.247 89.0836 120.477C89.7236 120.897 89.8836 121.687 89.6836 122.337C89.6436 122.517 89.4936 122.697 89.4036 122.857L88.9736 123.637C88.9136 123.757 88.9136 123.927 88.8236 124.017C88.3936 124.487 88.0536 124.997 87.8836 125.607C87.4436 125.877 87.5336 126.347 87.8036 126.627C88.0636 127.037 88.2436 127.497 88.5836 127.867C88.6736 127.967 88.7536 128.087 88.7836 128.217C88.8536 128.487 88.9436 128.747 89.0536 129.007C89.1736 129.277 89.2636 129.457 89.4536 129.837C89.6036 130.117 89.7036 130.407 89.6936 130.717C89.6836 131.277 89.2936 131.807 88.7636 131.977C88.5036 132.067 88.2136 132.057 87.9436 131.987C87.6636 131.917 87.3936 131.807 87.2236 131.727C86.8036 131.547 86.3536 131.457 85.9036 131.357C85.3736 131.247 84.8236 131.187 84.2936 131.097L84.1736 131.077C83.8936 131.007 83.5936 131.127 83.4436 131.357C83.2236 131.617 82.9736 131.917 82.7536 132.217C82.4936 132.557 82.2436 132.887 81.9836 133.227L81.5836 133.717L81.3836 133.957L81.0536 134.317C80.8036 134.587 80.5036 134.787 80.1736 134.897C79.3336 135.167 78.3536 134.657 78.0436 133.847C77.9636 133.647 77.9036 133.437 77.8836 133.207L77.8436 132.607L77.8136 131.797L77.7236 130.167L77.6736 129.557L77.6536 129.347C77.6436 129.297 77.6336 129.257 77.6136 129.217C77.5736 129.137 77.5036 129.067 77.4136 129.027L76.9336 128.787C76.2536 128.447 75.5436 128.157 74.8536 127.827C74.5436 127.637 73.2736 127.237 73.0036 126.367C72.6536 125.527 72.9836 124.467 73.8136 123.987L77.1136 122.337C77.2036 122.287 77.3936 122.197 77.3936 122.187C77.4036 122.167 77.4036 122.147 77.3936 122.127L77.3836 122.107C77.3836 122.077 77.3636 122.167 77.3836 122.007C77.4136 121.737 77.4636 121.467 77.5236 121.207L77.8336 119.727L77.9836 118.987L78.0936 118.407C78.1436 118.167 78.2036 117.937 78.3236 117.747C78.6136 117.177 79.1636 116.767 79.7736 116.637C80.3936 116.507 81.0536 116.647 81.5636 117.047C81.6936 117.157 81.8136 117.267 81.9336 117.397L82.2336 117.727L82.5936 118.127L83.3136 118.937L84.1336 119.847L84.3436 120.067L84.4536 120.177L84.4836 120.207L84.4936 120.217C84.6036 120.117 84.3536 120.347 84.3736 120.327C84.3736 120.347 84.3736 120.377 84.3836 120.397C84.4136 120.787 84.2936 121.317 83.7536 121.317C83.3636 121.257 83.1336 121.117 82.9536 120.847C82.7036 120.437 82.2136 120.187 82.0836 119.677C82.0636 119.607 81.9936 119.537 81.9236 119.497C81.6336 119.287 81.3636 119.057 81.1136 118.807C80.8736 118.597 80.7836 118.437 80.5536 118.327C80.3436 118.227 80.0736 118.247 79.8736 118.377C79.6536 118.507 79.5836 118.757 79.5436 119.007C79.4636 119.357 79.4136 119.897 79.3536 120.327C79.3036 120.627 79.2536 120.917 79.1936 121.207C79.1036 121.647 78.9936 122.027 78.9236 122.517C78.8736 122.927 78.6036 123.387 78.1436 123.347C78.1036 123.347 78.0536 123.357 78.0036 123.377C77.9236 123.407 77.8736 123.457 77.8536 123.507C77.7336 123.807 77.4736 123.897 77.2236 124.007C76.5536 124.287 75.8636 124.557 75.2036 124.857C74.9236 124.987 74.8236 125.037 74.6536 125.137C74.5036 125.227 74.4136 125.397 74.4136 125.567C74.3936 125.827 74.5836 126.067 74.8036 126.137C74.9236 126.177 74.9936 126.177 75.1336 126.227L75.7136 126.467C76.3636 126.747 76.9836 127.067 77.6236 127.357C77.7736 127.427 77.9336 127.457 78.0836 127.527C78.5136 127.697 79.0236 128.117 79.1136 128.617C79.1736 128.867 79.1736 129.167 79.2036 129.317C79.2236 129.447 79.2836 129.577 79.4036 129.707C79.5336 129.857 79.5536 130.107 79.5536 130.317C79.5536 130.587 79.5036 130.857 79.4636 131.127C79.4036 131.447 79.3436 131.747 79.5336 132.077C79.5836 132.167 79.6036 132.267 79.6036 132.377C79.6036 132.437 79.6036 132.487 79.5936 132.547L79.5636 132.597C79.4436 132.757 79.4436 133.047 79.6436 133.147C79.8236 133.267 80.0736 133.157 80.1736 132.977L80.1936 132.957L80.2536 132.877L80.3936 132.717L80.7036 132.367L81.3136 131.677L81.9236 130.987L82.2336 130.637L82.3836 130.467L82.4636 130.377L82.6136 130.227C83.0736 129.777 83.7636 129.587 84.4036 129.717L84.8836 129.807C85.6336 129.937 86.3836 130.097 87.1236 130.267L87.6836 130.397C87.8136 130.427 87.7736 130.427 87.7936 130.427L87.8336 130.447C87.8836 130.477 87.9536 130.477 88.0136 130.437C88.0536 130.407 88.0936 130.347 88.0336 130.297L87.9536 130.247C87.9636 130.317 87.7836 129.947 87.6936 129.737C87.5836 129.497 87.4936 129.247 87.4036 128.997C87.2636 128.607 87.0836 128.237 86.8936 127.887L86.5836 127.357L86.5036 127.217C86.4536 127.137 86.4136 127.047 86.3736 126.957C86.2936 126.787 86.2436 126.597 86.2136 126.407C86.1536 126.057 86.1736 125.667 86.3336 125.337C86.5336 124.997 86.7336 124.667 86.9336 124.337C87.0936 124.057 87.2436 123.767 87.3936 123.477L87.8436 122.607L88.0736 122.177C88.1336 122.077 88.1036 122.127 88.1136 122.107H88.1236C88.1436 122.117 88.2036 122.077 88.2036 122.007C88.2036 121.977 88.1836 121.937 88.1536 121.917C88.1336 121.907 88.1136 121.897 88.0936 121.887C88.0336 121.887 87.8436 121.897 87.7336 121.897C86.9236 121.917 86.1036 121.927 85.2836 121.947C85.2336 121.947 85.1736 121.977 85.1236 121.977C84.6536 121.977 84.4736 121.697 84.6336 121.227C84.7736 120.807 85.0436 120.537 85.4636 120.487C85.9236 120.437 86.3836 120.407 86.8436 120.367L86.7736 120.277Z" fill="#87B1D9"/>
<path d="M57.1748 147.767C57.1648 147.697 57.1448 147.607 57.1248 147.517C57.1148 147.477 57.0748 147.427 57.1048 147.397C57.1948 147.307 57.1548 147.237 57.1048 147.157C57.0748 147.117 57.0948 147.057 57.1048 147.007C57.1148 146.907 57.1048 146.827 56.9648 146.747C56.8248 146.677 56.7748 146.577 56.8048 146.467C56.8248 146.397 56.7848 146.317 56.7848 146.247C56.7748 146.117 56.7548 145.997 56.7848 145.867C56.8348 145.667 56.8548 145.487 56.7848 145.277C56.7148 145.067 56.7548 144.837 56.7548 144.617C56.7548 144.577 56.7848 144.527 56.8348 144.507C57.0448 144.397 56.7948 144.237 56.9448 144.117C56.9448 144.117 56.8848 144.077 56.8448 144.067C56.4648 143.977 56.4748 143.767 56.4648 143.587C56.4548 143.467 56.4848 143.337 56.4348 143.217C56.4048 143.147 56.4048 143.067 56.4148 142.997C56.4448 142.787 56.4048 142.587 56.2948 142.377C56.1948 142.187 56.2248 141.977 56.3648 141.797C56.4048 141.747 56.4048 141.697 56.3448 141.647C56.2048 141.547 56.2148 141.437 56.2648 141.317C56.2948 141.257 56.2948 141.187 56.2948 141.127C56.2848 141.037 56.3248 140.987 56.4748 140.967C56.6148 140.947 56.6048 140.897 56.5548 140.827C56.4748 140.697 56.3548 140.567 56.3648 140.437C56.3748 140.297 56.2948 140.167 56.2848 140.027C56.2748 139.957 56.2748 139.887 56.3448 139.817C56.4448 139.707 56.4748 139.587 56.3348 139.457C56.1548 139.297 56.2948 139.127 56.2148 138.957C56.3548 138.807 56.2548 138.627 56.2748 138.457C56.3148 138.107 56.3448 137.757 56.3848 137.407C56.3948 137.337 56.3748 137.257 56.3648 137.177C56.3248 136.717 56.3548 136.267 56.4648 135.817C56.5248 135.537 56.6248 135.267 56.5648 134.967C56.5248 134.777 56.5648 134.607 56.6548 134.437C56.7148 134.337 56.7648 134.207 56.7248 134.097C56.6448 133.897 56.8148 133.747 56.7948 133.567C56.9548 133.467 56.9248 133.317 56.9548 133.187C56.9748 133.117 56.9648 133.037 56.9848 132.967C57.0448 132.747 57.0948 132.537 57.1548 132.317C57.1848 132.207 57.2448 132.097 57.2648 131.987C57.3448 131.587 57.4348 131.187 57.6248 130.817C57.6648 130.737 57.6648 130.657 57.6948 130.567C57.7448 130.407 57.7748 130.237 57.9548 130.117C58.0048 130.087 58.0448 130.027 58.0448 129.977C58.0548 129.747 58.2448 129.577 58.3548 129.377C58.4048 129.287 58.5248 129.207 58.6548 129.167C58.8648 129.097 58.9648 128.997 58.9848 128.837C58.9948 128.777 59.0248 128.717 59.0348 128.657C59.0748 128.407 59.0948 128.157 59.1748 127.907C59.2148 127.777 59.3148 127.667 59.4148 127.557C59.5448 127.417 59.7648 127.447 60.0648 127.577C60.3948 127.717 60.6548 127.877 60.8948 128.067C60.9848 128.137 61.0348 128.207 60.9448 128.257C60.8148 128.347 60.7848 128.457 60.8548 128.617C60.8948 128.697 60.8648 128.787 60.8248 128.847C60.7048 129.027 60.6848 129.237 60.6348 129.447C60.5948 129.637 60.4848 129.797 60.3048 129.937C60.0248 130.157 59.8548 130.417 59.7548 130.717C59.6948 130.887 59.6648 131.067 59.4848 131.207C59.4348 131.247 59.4348 131.317 59.4148 131.377C59.3548 131.547 59.3648 131.747 59.1548 131.877C59.1148 131.897 59.1148 131.957 59.1248 131.997C59.1748 132.217 59.0748 132.407 59.0248 132.607C58.9648 132.847 58.8648 133.077 58.8248 133.327C58.7748 133.637 58.7748 133.967 58.7248 134.277C58.6948 134.457 58.5948 134.627 58.5548 134.807C58.5148 134.997 58.4548 135.197 58.5048 135.387C58.5548 135.607 58.4248 135.797 58.4748 136.007C58.5248 136.207 58.4948 136.397 58.4548 136.597C58.3648 136.997 58.3248 137.417 58.2548 137.817C58.2448 137.897 58.2048 137.977 58.1548 138.047C58.0848 138.127 58.0948 138.207 58.2048 138.277C58.3748 138.387 58.3648 138.497 58.2948 138.597C58.1448 138.817 58.1448 139.047 58.2148 139.287C58.2548 139.427 58.2348 139.577 58.1948 139.717C58.1648 139.837 58.1048 139.957 58.1948 140.077C58.2148 140.107 58.2248 140.137 58.2148 140.167C58.0848 140.417 58.1848 140.677 58.2048 140.937C58.2348 141.297 58.1648 141.657 58.1448 142.017C58.1448 142.067 58.1048 142.127 58.1348 142.167C58.2848 142.357 58.2148 142.557 58.2048 142.747C58.1748 143.227 58.2548 143.697 58.3048 144.167C58.3348 144.457 58.3548 144.727 58.3848 144.997C58.3848 145.017 58.3648 145.037 58.3748 145.057C58.5348 145.287 58.4448 145.527 58.4948 145.757C58.5448 145.957 58.5148 146.167 58.4948 146.367C58.4548 146.757 58.5148 147.147 58.6048 147.527C58.6948 147.887 58.7548 148.257 58.8148 148.627C58.8248 148.697 58.8048 148.767 58.7848 148.837C58.7448 148.937 58.5248 149.057 58.3548 149.057C58.2748 149.057 58.1748 149.027 58.1348 148.997C57.9848 148.867 57.8348 148.737 57.5948 148.637C57.4848 148.587 57.3848 148.507 57.4248 148.397C57.4648 148.247 57.3748 148.117 57.2448 147.987C57.1748 147.947 57.0648 147.877 57.1748 147.767Z" fill="#87B1D9"/>
<path d="M49.0834 153.237C49.0634 153.127 49.0234 152.987 48.9934 152.847C48.9834 152.787 48.9234 152.707 48.9534 152.667C49.0234 152.527 48.9834 152.417 48.9234 152.287C48.8934 152.217 48.9034 152.127 48.9134 152.037C48.9234 151.877 48.9034 151.747 48.7534 151.627C48.6134 151.517 48.5534 151.367 48.5734 151.177C48.5834 151.067 48.5434 150.947 48.5334 150.827C48.5134 150.627 48.4734 150.417 48.4934 150.217C48.5334 149.897 48.5134 149.597 48.4434 149.277C48.3634 148.937 48.4034 148.577 48.4034 148.217C48.4034 148.157 48.4334 148.077 48.4834 148.037C48.6934 147.847 48.4334 147.607 48.5834 147.407C48.5834 147.407 48.5234 147.337 48.4834 147.327C48.1034 147.197 48.0934 146.857 48.0734 146.567C48.0634 146.367 48.1034 146.167 48.0434 145.967C48.0134 145.857 48.0134 145.727 48.0234 145.607C48.0534 145.267 48.0234 144.937 47.9134 144.607C47.8134 144.297 47.8534 143.967 47.9834 143.667C48.0234 143.577 48.0234 143.507 47.9634 143.437C47.8234 143.277 47.8334 143.097 47.9034 142.907C47.9334 142.807 47.9434 142.707 47.9334 142.607C47.9234 142.467 47.9634 142.377 48.1134 142.337C48.2634 142.297 48.2434 142.217 48.2034 142.107C48.1334 141.907 48.0234 141.687 48.0334 141.487C48.0534 141.257 47.9734 141.057 47.9734 140.837C47.9734 140.717 47.9734 140.617 48.0434 140.497C48.1534 140.317 48.1834 140.117 48.0534 139.927C47.8834 139.677 48.0334 139.397 47.9634 139.137C48.1234 138.887 48.0334 138.607 48.0634 138.337L48.2534 136.667C48.2634 136.547 48.2534 136.427 48.2534 136.307C48.2534 135.577 48.3234 134.857 48.4734 134.147C48.5634 133.697 48.6934 133.257 48.6634 132.797C48.6434 132.507 48.6934 132.227 48.8034 131.947C48.8734 131.777 48.9434 131.577 48.9034 131.407C48.8434 131.107 49.0234 130.847 49.0234 130.567C49.2034 130.397 49.1734 130.167 49.2234 129.957C49.2534 129.847 49.2534 129.727 49.2734 129.607C49.3534 129.257 49.4334 128.917 49.5134 128.567C49.5534 128.387 49.6334 128.217 49.6634 128.037C49.7834 127.407 49.9234 126.777 50.1634 126.177C50.2134 126.057 50.2234 125.917 50.2634 125.787C50.3234 125.527 50.3834 125.257 50.5834 125.047C50.6434 124.987 50.6834 124.897 50.6934 124.817C50.7334 124.457 50.9534 124.157 51.0834 123.827C51.1434 123.677 51.2734 123.537 51.4134 123.447C51.6434 123.307 51.7534 123.117 51.7934 122.877C51.8134 122.777 51.8334 122.687 51.8634 122.587C51.9334 122.187 51.9834 121.787 52.0834 121.407C52.1334 121.197 52.2534 120.997 52.3634 120.817C52.5134 120.577 52.7434 120.557 53.0434 120.677C53.3734 120.807 53.6334 121.007 53.8634 121.257C53.9534 121.357 53.9934 121.447 53.8934 121.567C53.7434 121.737 53.7034 121.937 53.7634 122.167C53.7934 122.287 53.7534 122.437 53.7034 122.547C53.5534 122.867 53.5134 123.217 53.4434 123.547C53.3734 123.857 53.2434 124.137 53.0434 124.397C52.7334 124.797 52.5234 125.247 52.3834 125.737C52.3034 126.017 52.2534 126.317 52.0534 126.557C51.9934 126.627 51.9934 126.747 51.9634 126.837C51.8834 127.127 51.8634 127.427 51.6434 127.667C51.6034 127.707 51.5934 127.797 51.6034 127.857C51.6234 128.197 51.5034 128.517 51.4334 128.837C51.3434 129.227 51.2134 129.607 51.1434 130.007C51.0734 130.517 51.0034 131.027 50.9434 131.537C50.8934 131.827 50.7734 132.107 50.7134 132.407C50.6534 132.717 50.5734 133.027 50.6034 133.337C50.6334 133.677 50.4734 133.997 50.5034 134.327C50.5334 134.647 50.4834 134.957 50.4334 135.267C50.3134 135.917 50.2334 136.587 50.1234 137.237C50.1034 137.367 50.0634 137.497 49.9934 137.607C49.9234 137.747 49.9234 137.867 50.0234 137.977C50.1834 138.147 50.1734 138.317 50.0934 138.497C49.9334 138.857 49.9034 139.227 49.9634 139.617C49.9934 139.847 49.9634 140.087 49.9134 140.307C49.8734 140.507 49.8134 140.697 49.9034 140.897C49.9234 140.937 49.9334 140.997 49.9134 141.047C49.7734 141.457 49.8534 141.877 49.8634 142.287C49.8834 142.867 49.7734 143.447 49.7734 144.027C49.7734 144.107 49.7334 144.207 49.7734 144.277C49.9234 144.587 49.8534 144.907 49.8334 145.217C49.7934 145.987 49.8634 146.737 49.9534 147.497C50.0034 147.937 50.0234 148.387 50.0534 148.827C50.0534 148.857 50.0334 148.897 50.0534 148.927C50.2134 149.287 50.1334 149.677 50.2234 150.047C50.2934 150.367 50.2834 150.697 50.2834 151.027C50.3034 151.647 50.3334 152.267 50.5134 152.867C50.6634 153.437 50.7734 154.017 50.8934 154.587C50.9134 154.697 50.9134 154.817 50.8934 154.927C50.8734 155.077 50.6634 155.287 50.5034 155.307C50.4234 155.317 50.3234 155.277 50.2734 155.227C50.1034 155.027 49.9334 154.827 49.6734 154.687C49.5534 154.617 49.4434 154.487 49.4634 154.307C49.4834 154.057 49.3734 153.857 49.2134 153.657C49.1134 153.537 48.9934 153.427 49.0834 153.237Z" fill="#87B1D9"/>
<path d="M40.3741 154.407C40.3541 154.277 40.3341 154.127 40.3141 153.967C40.3041 153.897 40.2541 153.807 40.2841 153.757C40.3641 153.607 40.3241 153.477 40.2641 153.327C40.2341 153.247 40.2441 153.147 40.2541 153.057C40.2541 152.887 40.2441 152.727 40.1041 152.597C39.9641 152.467 39.9141 152.297 39.9441 152.087C39.9641 151.957 39.9241 151.827 39.9141 151.697C39.9041 151.477 39.8741 151.247 39.9041 151.027C39.9541 150.677 39.9641 150.337 39.8841 149.977C39.8041 149.597 39.8341 149.197 39.8441 148.807C39.8441 148.737 39.8741 148.647 39.9241 148.607C40.1441 148.407 39.8941 148.127 40.0441 147.917C40.0441 147.917 39.9841 147.837 39.9441 147.827C39.5641 147.667 39.5741 147.297 39.5641 146.987C39.5541 146.767 39.5941 146.547 39.5441 146.327C39.5141 146.197 39.5141 146.067 39.5241 145.937C39.5541 145.557 39.5141 145.197 39.4241 144.827C39.3341 144.487 39.3841 144.117 39.5241 143.787C39.5641 143.687 39.5741 143.607 39.5041 143.527C39.3641 143.347 39.3741 143.147 39.4341 142.937C39.4641 142.827 39.4741 142.717 39.4641 142.607C39.4541 142.457 39.4941 142.357 39.6441 142.307C39.7941 142.267 39.7741 142.177 39.7341 142.047C39.6641 141.827 39.5441 141.587 39.5741 141.357C39.5941 141.107 39.5241 140.877 39.5341 140.637C39.5341 140.507 39.5341 140.387 39.6141 140.267C39.7241 140.067 39.7541 139.847 39.6241 139.637C39.4541 139.357 39.6041 139.047 39.5341 138.757C39.6941 138.477 39.5941 138.167 39.6341 137.867L39.8541 136.017C39.8641 135.887 39.8541 135.757 39.8541 135.617C39.8441 134.807 39.9741 134.017 40.1241 133.217C40.2241 132.717 40.3441 132.227 40.3341 131.707C40.3241 131.387 40.3941 131.067 40.5041 130.767C40.5741 130.577 40.6441 130.357 40.6141 130.167C40.5641 129.827 40.7441 129.547 40.7541 129.237C40.9341 129.047 40.9241 128.787 40.9841 128.557C41.0141 128.427 41.0241 128.297 41.0541 128.177C41.1441 127.797 41.2341 127.407 41.3341 127.017C41.3941 126.827 41.4541 126.617 41.5041 126.427C41.6641 125.727 41.8241 125.027 42.0841 124.357C42.1441 124.217 42.1641 124.067 42.2041 123.917C42.2841 123.627 42.3541 123.337 42.5641 123.097C42.6241 123.027 42.6741 122.937 42.6841 122.847C42.7341 122.437 42.9841 122.117 43.1341 121.757C43.2041 121.597 43.3441 121.437 43.4941 121.347C43.7241 121.187 43.8541 120.987 43.9141 120.717C43.9441 120.607 43.9741 120.507 44.0041 120.397C44.0941 119.957 44.1841 119.517 44.3141 119.097C44.3841 118.867 44.5141 118.647 44.6441 118.447C44.8141 118.187 45.0441 118.177 45.3441 118.317C45.6641 118.467 45.9141 118.697 46.1241 118.967C46.2041 119.077 46.2341 119.177 46.1241 119.307C45.9641 119.487 45.9041 119.707 45.9441 119.967C45.9641 120.097 45.9141 120.257 45.8541 120.387C45.6841 120.737 45.6141 121.117 45.5241 121.487C45.4341 121.827 45.2941 122.137 45.0741 122.417C44.7241 122.857 44.4941 123.347 44.3341 123.887C44.2441 124.197 44.1741 124.527 43.9541 124.787C43.8841 124.867 43.8841 124.997 43.8541 125.097C43.7641 125.417 43.7341 125.757 43.5041 126.017C43.4641 126.067 43.4541 126.157 43.4541 126.227C43.4641 126.607 43.3141 126.957 43.2341 127.317C43.1341 127.747 42.9941 128.177 42.9141 128.607C42.8041 129.167 42.7441 129.737 42.6641 130.307C42.6141 130.627 42.4841 130.947 42.4141 131.267C42.3441 131.607 42.2441 131.957 42.2641 132.297C42.2841 132.677 42.1341 133.027 42.1541 133.397C42.1841 133.757 42.1341 134.087 42.0641 134.437C41.9041 135.157 41.8341 135.897 41.7241 136.627C41.7041 136.767 41.6641 136.917 41.5941 137.047C41.5141 137.197 41.5141 137.337 41.6141 137.457C41.7641 137.637 41.7541 137.837 41.6641 138.027C41.4841 138.427 41.4741 138.837 41.5241 139.267C41.5541 139.517 41.5241 139.787 41.4741 140.037C41.4341 140.257 41.3641 140.467 41.4541 140.687C41.4741 140.737 41.4841 140.797 41.4641 140.847C41.3041 141.297 41.3741 141.767 41.3941 142.227C41.4041 142.877 41.3241 143.517 41.2941 144.167C41.2941 144.257 41.2541 144.367 41.2841 144.437C41.4241 144.777 41.3341 145.137 41.3241 145.477C41.2941 146.327 41.3741 147.177 41.4241 148.027C41.4541 148.527 41.4541 149.017 41.4941 149.517C41.4941 149.557 41.4741 149.597 41.4941 149.627C41.6641 150.027 41.5741 150.467 41.6341 150.887C41.6841 151.247 41.6641 151.617 41.6541 151.987C41.6241 152.687 41.6941 153.377 41.8241 154.067C41.9441 154.717 42.0241 155.377 42.1041 156.027C42.1241 156.147 42.1041 156.287 42.0841 156.407C42.0541 156.577 41.8341 156.787 41.6741 156.787C41.5941 156.787 41.4941 156.737 41.4441 156.677C41.2841 156.437 41.1241 156.197 40.8841 156.017C40.7741 155.937 40.6641 155.777 40.6941 155.577C40.7241 155.307 40.6241 155.067 40.4841 154.847C40.3941 154.737 40.2741 154.607 40.3741 154.407Z" fill="#87B1D9"/>
<path d="M32.5936 152.517C32.5636 152.397 32.5336 152.257 32.5036 152.107C32.4936 152.047 32.4336 151.967 32.4636 151.917C32.5336 151.767 32.4836 151.657 32.4236 151.517C32.3836 151.447 32.3936 151.347 32.3936 151.267C32.3836 151.107 32.3636 150.967 32.2136 150.847C32.0736 150.737 32.0036 150.577 32.0236 150.377C32.0336 150.257 31.9836 150.137 31.9736 150.017C31.9536 149.807 31.9136 149.597 31.9236 149.387C31.9536 149.057 31.9436 148.737 31.8536 148.407C31.7536 148.057 31.7636 147.677 31.7536 147.317C31.7536 147.257 31.7836 147.167 31.8236 147.127C32.0336 146.927 31.7736 146.677 31.9136 146.467C31.9136 146.467 31.8536 146.397 31.8136 146.387C31.4336 146.257 31.4236 145.907 31.4036 145.607C31.3836 145.397 31.4136 145.187 31.3536 144.987C31.3236 144.867 31.3136 144.737 31.3136 144.617C31.3336 144.257 31.2736 143.927 31.1736 143.577C31.0736 143.257 31.1136 142.917 31.2436 142.597C31.2836 142.507 31.2836 142.427 31.2236 142.357C31.0836 142.187 31.0836 142.007 31.1436 141.807C31.1736 141.707 31.1736 141.597 31.1636 141.497C31.1536 141.357 31.1936 141.257 31.3336 141.217C31.4736 141.177 31.4636 141.087 31.4136 140.967C31.3336 140.757 31.2136 140.537 31.2336 140.327C31.2536 140.087 31.1836 139.877 31.1736 139.657C31.1736 139.537 31.1736 139.427 31.2436 139.307C31.3536 139.117 31.3736 138.917 31.2436 138.717C31.0636 138.457 31.2136 138.157 31.1436 137.887C31.2936 137.627 31.1936 137.327 31.2336 137.047L31.4436 135.307C31.4536 135.187 31.4436 135.057 31.4436 134.937C31.4236 134.177 31.5536 133.427 31.7136 132.677C31.8136 132.207 31.9436 131.747 31.9236 131.257C31.9236 130.957 31.9836 130.657 32.1036 130.377C32.1736 130.197 32.2536 129.997 32.2236 129.817C32.1736 129.497 32.3636 129.237 32.3736 128.937C32.5536 128.767 32.5535 128.517 32.6135 128.307C32.6435 128.187 32.6535 128.067 32.6835 127.947C32.7835 127.587 32.8836 127.227 32.9836 126.867C33.0436 126.687 33.1136 126.497 33.1736 126.317C33.3536 125.667 33.5236 125.007 33.8136 124.397C33.8736 124.267 33.9036 124.127 33.9436 123.997C34.0336 123.727 34.1136 123.457 34.3236 123.247C34.3836 123.187 34.4336 123.097 34.4536 123.017C34.5136 122.637 34.7836 122.347 34.9436 122.017C35.0136 121.867 35.1636 121.737 35.3136 121.657C35.5536 121.527 35.6936 121.347 35.7636 121.097C35.8036 120.997 35.8335 120.897 35.8635 120.797C35.9735 120.397 36.0836 119.987 36.2336 119.597C36.3136 119.387 36.4536 119.197 36.6036 119.017C36.7836 118.787 37.0236 118.807 37.3036 118.967C37.6136 119.147 37.8436 119.377 38.0336 119.657C38.1136 119.767 38.1336 119.867 38.0136 119.967C37.8436 120.117 37.7736 120.317 37.8036 120.557C37.8236 120.677 37.7636 120.827 37.6936 120.937C37.5136 121.247 37.4236 121.597 37.3136 121.927C37.2136 122.237 37.0536 122.517 36.8336 122.757C36.4736 123.137 36.2235 123.577 36.0436 124.077C35.9436 124.357 35.8636 124.657 35.6336 124.897C35.5636 124.967 35.5536 125.087 35.5236 125.187C35.4236 125.477 35.3936 125.797 35.1436 126.027C35.1036 126.067 35.0836 126.157 35.0836 126.217C35.0836 126.577 34.9236 126.887 34.8436 127.217C34.7336 127.617 34.5936 128.007 34.5036 128.417C34.3836 128.937 34.3135 129.467 34.2236 129.997C34.1636 130.297 34.0336 130.587 33.9636 130.887C33.8936 131.207 33.7936 131.527 33.8036 131.847C33.8236 132.207 33.6636 132.527 33.6936 132.877C33.7236 133.217 33.6736 133.527 33.5936 133.847C33.4336 134.517 33.3736 135.207 33.2636 135.897C33.2436 136.027 33.2036 136.167 33.1436 136.287C33.0736 136.427 33.0636 136.557 33.1736 136.677C33.3236 136.847 33.3136 137.027 33.2336 137.207C33.0536 137.577 33.0535 137.967 33.1135 138.367C33.1535 138.597 33.1236 138.847 33.0836 139.087C33.0436 139.297 32.9836 139.487 33.0736 139.697C33.0936 139.747 33.1036 139.807 33.0836 139.847C32.9336 140.267 33.0135 140.707 33.0435 141.127C33.0735 141.737 33.0136 142.337 32.9936 142.937C32.9936 143.027 32.9536 143.127 32.9936 143.197C33.1436 143.517 33.0536 143.847 33.0636 144.167C33.0736 144.967 33.1736 145.747 33.2636 146.537C33.3136 146.997 33.3336 147.457 33.4036 147.917C33.4036 147.947 33.3936 147.987 33.4036 148.017C33.5936 148.387 33.5235 148.787 33.6135 149.177C33.6835 149.507 33.6735 149.857 33.6835 150.197C33.6835 150.847 33.8036 151.487 33.9736 152.117C34.1336 152.717 34.2536 153.317 34.3736 153.917C34.3936 154.027 34.3936 154.157 34.3836 154.277C34.3636 154.437 34.1536 154.657 33.9936 154.667C33.9136 154.677 33.8036 154.637 33.7636 154.577C33.5836 154.367 33.4136 154.157 33.1636 154.007C33.0436 153.937 32.9336 153.797 32.9436 153.617C32.9636 153.357 32.8436 153.147 32.6936 152.947C32.6336 152.827 32.5136 152.717 32.5936 152.517Z" fill="#87B1D9"/>
<path d="M25.9343 147.417C25.9143 147.337 25.8843 147.227 25.8643 147.127C25.8543 147.077 25.8043 147.027 25.8243 146.987C25.9043 146.877 25.8543 146.797 25.7943 146.697C25.7643 146.647 25.7743 146.577 25.7743 146.517C25.7743 146.397 25.7543 146.297 25.6043 146.227C25.4543 146.157 25.4043 146.037 25.4243 145.897C25.4343 145.807 25.3943 145.727 25.3843 145.637C25.3643 145.487 25.3243 145.337 25.3443 145.187C25.3743 144.947 25.3743 144.717 25.2843 144.487C25.1943 144.237 25.2143 143.967 25.1943 143.707C25.1943 143.657 25.2143 143.597 25.2643 143.567C25.4643 143.417 25.2043 143.247 25.3443 143.097C25.3443 143.097 25.2843 143.047 25.2443 143.037C24.8643 142.957 24.8543 142.697 24.8343 142.487C24.8243 142.337 24.8443 142.187 24.7843 142.037C24.7543 141.957 24.7443 141.857 24.7443 141.777C24.7543 141.517 24.7143 141.277 24.5843 141.037C24.4643 140.807 24.4943 140.557 24.6343 140.327C24.6743 140.257 24.6743 140.207 24.6043 140.147C24.4643 140.027 24.4643 139.897 24.5143 139.757C24.5443 139.687 24.5443 139.607 24.5343 139.527C24.5243 139.427 24.5543 139.357 24.7043 139.317C24.8443 139.287 24.8343 139.227 24.7843 139.137C24.7043 138.987 24.5843 138.827 24.5843 138.677C24.5943 138.507 24.5043 138.357 24.4843 138.187C24.4743 138.097 24.4743 138.017 24.5443 137.927C24.6443 137.797 24.6643 137.637 24.5243 137.497C24.3443 137.307 24.4743 137.097 24.4043 136.897C24.5443 136.707 24.4443 136.497 24.4643 136.297C24.4943 135.877 24.5443 135.457 24.5843 135.037C24.5943 134.947 24.5743 134.857 24.5743 134.767C24.5443 134.217 24.5843 133.667 24.7143 133.127C24.7943 132.787 24.9043 132.457 24.8543 132.097C24.8243 131.877 24.8643 131.657 24.9743 131.457C25.0343 131.327 25.1043 131.177 25.0643 131.047C24.9943 130.807 25.1743 130.627 25.1643 130.407C25.3343 130.287 25.3043 130.107 25.3543 129.947C25.3743 129.857 25.3743 129.767 25.4043 129.687C25.4843 129.427 25.5543 129.167 25.6343 128.907C25.6743 128.777 25.7443 128.647 25.7743 128.507C25.8843 128.027 26.0343 127.557 26.2643 127.117C26.3143 127.027 26.3243 126.917 26.3543 126.827C26.4243 126.637 26.4843 126.437 26.6843 126.297C26.7443 126.257 26.7843 126.197 26.7943 126.137C26.8343 125.857 27.0543 125.657 27.1943 125.427C27.2543 125.327 27.3943 125.237 27.5343 125.187C27.7543 125.117 27.8743 124.987 27.9243 124.807C27.9543 124.737 27.9743 124.667 28.0043 124.597C28.0843 124.307 28.1543 124.007 28.2743 123.727C28.3343 123.577 28.4543 123.447 28.5843 123.327C28.7443 123.177 28.9643 123.217 29.2443 123.387C29.5543 123.577 29.7843 123.767 29.9943 124.007C30.0743 124.097 30.1043 124.177 30.0043 124.227C29.8543 124.317 29.8043 124.457 29.8543 124.637C29.8843 124.727 29.8343 124.827 29.7843 124.907C29.6343 125.117 29.5743 125.357 29.5043 125.587C29.4343 125.807 29.3043 125.997 29.1043 126.147C28.7843 126.387 28.5843 126.697 28.4443 127.047C28.3643 127.247 28.3043 127.457 28.1143 127.617C28.0543 127.667 28.0543 127.747 28.0243 127.817C27.9443 128.017 27.9343 128.247 27.7143 128.407C27.6743 128.437 27.6643 128.497 27.6743 128.547C27.6943 128.807 27.5843 129.027 27.5143 129.267C27.4343 129.547 27.3143 129.827 27.2443 130.117C27.1643 130.487 27.1543 130.877 27.0843 131.247C27.0443 131.467 26.9343 131.667 26.8743 131.877C26.8243 132.107 26.7643 132.337 26.7943 132.567C26.8343 132.827 26.6943 133.057 26.7343 133.307C26.7743 133.547 26.7343 133.767 26.6943 134.007C26.6043 134.487 26.5543 134.987 26.4743 135.467C26.4643 135.557 26.4243 135.657 26.3643 135.747C26.2943 135.847 26.2943 135.947 26.4043 136.027C26.5743 136.147 26.5743 136.277 26.5043 136.407C26.3643 136.677 26.3543 136.947 26.4343 137.237C26.4843 137.407 26.4543 137.587 26.4243 137.747C26.3943 137.897 26.3343 138.037 26.4243 138.177C26.4443 138.207 26.4543 138.257 26.4443 138.287C26.3243 138.587 26.4343 138.897 26.4643 139.207C26.5043 139.637 26.4443 140.067 26.4443 140.497C26.4443 140.557 26.4043 140.627 26.4443 140.677C26.6043 140.897 26.5543 141.137 26.5543 141.367C26.5543 141.937 26.6643 142.497 26.7443 143.057C26.7943 143.397 26.8443 143.717 26.8943 144.047C26.8943 144.067 26.8843 144.097 26.8943 144.117C27.0743 144.377 27.0043 144.667 27.0743 144.937C27.1343 145.167 27.1243 145.417 27.1243 145.667C27.1243 146.137 27.2243 146.587 27.3643 147.037C27.5043 147.457 27.5943 147.897 27.6943 148.317C27.7143 148.397 27.7043 148.487 27.6843 148.577C27.6643 148.697 27.4443 148.857 27.2843 148.877C27.2043 148.887 27.1043 148.867 27.0543 148.827C26.8843 148.677 26.7243 148.537 26.4743 148.437C26.3543 148.387 26.2543 148.297 26.2743 148.167C26.3043 147.977 26.1943 147.837 26.0443 147.697C25.9643 147.637 25.8443 147.557 25.9343 147.417Z" fill="#87B1D9"/>
<path d="M13.984 145.087C13.884 145.057 13.744 145.027 13.604 144.987C13.524 144.967 13.454 144.927 13.374 144.917C13.324 144.907 13.274 144.907 13.184 144.747C13.104 144.597 13.074 144.647 13.064 144.747C13.054 144.817 13.044 144.897 13.014 144.897C12.884 144.887 12.734 144.837 12.604 144.837C12.514 144.837 12.424 144.827 12.304 144.657C12.224 144.547 12.214 144.697 12.204 144.827C12.184 144.987 12.154 144.927 12.034 144.627C11.964 144.437 11.944 144.417 11.964 144.587C11.984 144.757 12.024 144.917 11.974 144.917C11.824 144.927 11.684 144.967 11.544 144.967C11.504 144.967 11.454 145.067 11.374 144.647C11.374 144.627 11.354 144.577 11.344 144.577C11.274 144.567 11.204 144.567 11.134 144.567C11.134 144.897 10.974 144.617 10.924 144.777C10.914 144.807 10.884 144.807 10.864 144.757C10.734 144.477 10.704 144.737 10.594 144.517C10.524 144.377 10.504 144.447 10.514 144.607C10.524 144.747 10.514 144.827 10.464 144.837C10.264 144.877 10.084 144.957 9.884 144.997C9.764 145.017 9.634 145.047 9.494 144.987C9.234 144.877 9.024 144.947 8.794 144.957C8.664 144.957 8.504 144.887 8.354 144.807C8.294 144.777 8.244 144.777 8.214 144.847C7.944 145.407 7.544 145.497 7.134 145.557C7.074 145.567 6.974 145.437 6.924 145.477C6.874 145.517 6.834 145.607 6.754 145.527C6.694 145.477 6.654 145.537 6.624 145.627C6.524 146.047 6.284 145.957 6.074 145.947C5.934 145.947 5.774 145.857 5.644 145.867C5.504 145.877 5.394 145.967 5.264 146.027C5.244 146.037 5.224 146.067 5.194 146.057C5.074 146.027 4.924 145.917 4.834 145.987C4.744 146.057 4.674 146.197 4.564 146.197C4.524 146.197 4.494 146.227 4.464 146.267C4.354 146.427 4.254 146.637 4.014 146.247C3.934 146.277 3.854 146.307 3.764 146.337C3.724 146.347 3.694 146.427 3.634 146.357C3.484 146.157 3.424 146.237 3.414 146.537C3.404 146.697 3.344 146.737 3.304 146.807C3.274 146.867 3.244 146.897 3.154 146.687C3.124 146.627 3.074 146.587 3.074 146.637C3.064 146.817 2.974 146.677 2.934 146.727C2.874 146.787 2.814 146.787 2.704 146.607C2.674 146.547 2.634 146.567 2.624 146.637C2.584 147.077 2.434 147.157 2.284 147.247C2.044 147.387 1.784 147.467 1.504 147.467C1.464 147.467 1.424 147.477 1.404 147.527C1.324 147.707 1.194 147.707 1.074 147.717C1.024 147.727 0.993999 147.777 0.943999 147.807C0.833999 147.507 0.874 147.807 0.844 147.827C0.804 147.857 0.733999 147.767 0.693999 147.847C0.643999 147.937 0.564002 147.897 0.494002 147.897C0.374002 147.897 0.263999 147.667 0.123999 147.147C0.103999 147.057 0.0739992 146.977 0.0539992 146.887C-0.00600079 146.647 -0.0159996 146.517 0.0240004 146.447C0.0740004 146.367 0.114 146.217 0.184 146.247C0.344 146.327 0.434001 146.127 0.544001 146.017C0.704001 145.847 0.874 145.697 1.074 145.657C1.204 145.637 1.324 145.587 1.454 145.547C1.574 145.507 1.674 145.387 1.774 145.297C1.874 145.227 1.964 145.137 2.074 145.147C2.274 145.167 2.444 145.037 2.644 145.047C2.694 145.047 2.744 145.047 2.784 145.007C2.924 144.847 3.064 144.717 3.254 144.747C3.274 144.747 3.304 144.757 3.304 144.707C3.304 144.337 3.434 144.437 3.524 144.407C3.764 144.317 4.014 144.257 4.264 144.187C4.564 144.097 4.864 143.997 5.164 143.917C5.354 143.867 5.524 143.767 5.734 143.827C5.864 143.867 5.954 143.757 6.074 143.727C6.284 143.677 6.504 143.697 6.714 143.647C7.064 143.557 7.414 143.447 7.764 143.337C7.784 143.327 7.804 143.307 7.824 143.277C8.074 142.907 8.404 142.887 8.734 142.827C9.044 142.767 9.334 142.657 9.644 142.597C9.854 142.557 10.074 142.577 10.294 142.567C10.474 142.557 10.644 142.537 10.824 142.547C11.014 142.557 11.194 142.477 11.424 142.617C11.494 142.657 11.544 142.647 11.604 142.647C11.894 142.657 12.184 142.647 12.474 142.667C12.544 142.667 12.624 142.717 12.744 142.977C12.804 143.107 12.864 143.157 12.914 143.157C13.044 143.167 13.184 143.247 13.264 143.087C13.314 142.977 13.424 143.117 13.504 143.137C13.514 143.137 13.544 143.227 13.544 143.257C13.574 143.417 13.604 143.467 13.634 143.467C13.694 143.467 13.704 143.267 13.794 143.427C13.904 143.627 13.944 143.977 14.034 144.247C14.134 144.537 14.104 144.717 14.164 144.977C14.174 145.017 14.154 145.057 14.134 145.067C14.104 145.067 14.064 145.067 13.984 145.087Z" fill="#87B1D9"/>
<path d="M20.0743 154.097C20.0043 154.097 19.9043 154.097 19.8043 154.097C19.7543 154.097 19.6843 154.087 19.6443 154.087C19.6043 154.087 19.5843 154.097 19.4443 153.997C19.3143 153.897 19.3243 153.937 19.3843 154.027C19.4243 154.077 19.4643 154.147 19.4443 154.157C19.3643 154.177 19.2543 154.167 19.1843 154.197C19.1343 154.217 19.0843 154.227 18.9143 154.117C18.8043 154.047 18.8943 154.167 18.9643 154.267C19.0543 154.387 19.0043 154.357 18.7543 154.147C18.6043 154.017 18.5743 154.007 18.6943 154.127C18.8043 154.247 18.9243 154.367 18.9043 154.377C18.8343 154.417 18.7843 154.477 18.7043 154.507C18.6843 154.517 18.7143 154.607 18.4143 154.297C18.3943 154.277 18.3543 154.247 18.3543 154.247C18.3143 154.257 18.2743 154.267 18.2343 154.277C18.4343 154.527 18.1743 154.347 18.2543 154.487C18.2643 154.517 18.2543 154.517 18.2143 154.487C17.9743 154.297 18.1243 154.507 17.9243 154.357C17.8043 154.267 17.8343 154.327 17.9343 154.437C18.0243 154.537 18.0643 154.607 18.0443 154.617C17.9643 154.687 17.9143 154.787 17.8343 154.857C17.7843 154.897 17.7343 154.947 17.6243 154.927C17.4243 154.897 17.3443 154.997 17.2243 155.047C17.1543 155.077 17.0343 155.057 16.9043 155.027C16.8543 155.017 16.8243 155.027 16.8543 155.087C17.0543 155.577 16.8843 155.717 16.7143 155.857C16.6843 155.877 16.5543 155.797 16.5543 155.837C16.5543 155.877 16.5843 155.957 16.4943 155.917C16.4343 155.887 16.4443 155.947 16.4843 156.017C16.6843 156.357 16.5043 156.337 16.3843 156.377C16.3043 156.407 16.1643 156.367 16.1043 156.407C16.0343 156.447 16.0343 156.537 15.9943 156.607C15.9843 156.617 15.9943 156.647 15.9743 156.647C15.8943 156.657 15.7443 156.597 15.7343 156.667C15.7243 156.737 15.7743 156.857 15.7243 156.887C15.7043 156.897 15.7043 156.927 15.7143 156.957C15.7543 157.097 15.8243 157.287 15.4643 157.037C15.4343 157.077 15.4143 157.117 15.3843 157.157C15.3743 157.177 15.4043 157.247 15.3243 157.197C15.1243 157.077 15.1343 157.147 15.3143 157.377C15.4143 157.507 15.3943 157.537 15.4243 157.607C15.4443 157.657 15.4443 157.687 15.2643 157.547C15.2143 157.507 15.1643 157.487 15.1843 157.527C15.2843 157.667 15.1543 157.577 15.1643 157.627C15.1743 157.687 15.1343 157.697 14.9743 157.587C14.9243 157.547 14.9143 157.577 14.9543 157.627C15.1943 157.967 15.1743 158.067 15.1443 158.167C15.0943 158.327 15.0143 158.437 14.8643 158.497C14.8443 158.507 14.8243 158.517 14.8443 158.567C14.9143 158.717 14.8443 158.747 14.7843 158.787C14.7643 158.797 14.7743 158.847 14.7743 158.887C14.5343 158.677 14.7343 158.897 14.7343 158.917C14.7343 158.947 14.6443 158.897 14.6643 158.957C14.6943 159.037 14.6243 159.017 14.5843 159.037C14.5243 159.057 14.3243 158.907 13.9343 158.537C13.8643 158.477 13.8043 158.417 13.7343 158.347C13.5543 158.177 13.4643 158.077 13.4443 158.017C13.4143 157.937 13.3543 157.827 13.4143 157.837C13.5443 157.857 13.4743 157.697 13.4643 157.587C13.4443 157.427 13.4443 157.277 13.5243 157.207C13.5743 157.157 13.6143 157.097 13.6643 157.047C13.7043 156.997 13.6843 156.877 13.6843 156.787C13.6943 156.707 13.6843 156.617 13.7543 156.607C13.8743 156.577 13.8843 156.447 13.9943 156.407C14.0243 156.397 14.0543 156.387 14.0443 156.347C14.0243 156.197 14.0143 156.067 14.1343 156.047C14.1443 156.047 14.1643 156.047 14.1343 156.007C13.9143 155.727 14.0443 155.777 14.0643 155.727C14.1343 155.607 14.2343 155.507 14.3243 155.407C14.4343 155.277 14.5343 155.137 14.6443 155.017C14.7143 154.937 14.7443 154.827 14.8943 154.827C14.9843 154.827 14.9743 154.727 15.0143 154.687C15.0943 154.607 15.2243 154.577 15.3043 154.487C15.4443 154.347 15.5543 154.187 15.6743 154.027C15.6843 154.017 15.6743 153.997 15.6743 153.967C15.5743 153.627 15.7443 153.547 15.8843 153.427C16.0143 153.317 16.1043 153.167 16.2343 153.067C16.3243 152.997 16.4543 152.957 16.5643 152.907C16.6543 152.867 16.7343 152.817 16.8343 152.777C16.9443 152.737 16.9843 152.647 17.1943 152.707C17.2543 152.727 17.2743 152.707 17.3143 152.697C17.4743 152.637 17.6243 152.577 17.7943 152.527C17.8343 152.517 17.9043 152.537 18.1243 152.707C18.2343 152.787 18.3043 152.817 18.3243 152.817C18.4043 152.797 18.5243 152.827 18.4643 152.687C18.4243 152.597 18.5643 152.677 18.6243 152.677C18.6243 152.677 18.6943 152.737 18.7243 152.757C18.8443 152.877 18.8843 152.907 18.8943 152.897C18.9243 152.887 18.8043 152.727 18.9543 152.837C19.1343 152.967 19.3743 153.227 19.5743 153.417C19.8043 153.617 19.8943 153.767 20.0843 153.957C20.1143 153.987 20.1243 154.017 20.1243 154.027C20.1243 154.057 20.1043 154.067 20.0743 154.097Z" fill="#87B1D9"/>
<path d="M43.6948 64.1866C43.5048 64.0266 43.2548 63.9766 43.0048 64.0266L28.3048 67.2966C27.9348 67.3766 27.6648 67.7066 27.6648 68.0966V81.0166C26.9848 80.6066 26.1348 80.3466 25.2148 80.3466C22.9648 80.3466 21.1348 81.8166 21.1348 83.6166C21.1348 85.4166 22.9648 86.8866 25.2148 86.8866C27.4648 86.8866 29.2948 85.4166 29.2948 83.6166V73.6566L42.3648 70.7566V77.7566C41.6848 77.3466 40.8348 77.0866 39.9148 77.0866C37.6648 77.0866 35.8348 78.5566 35.8348 80.3566C35.8348 82.1566 37.6648 83.6266 39.9148 83.6266C42.1648 83.6266 43.9948 82.1566 43.9948 80.3566V64.8366C44.0048 64.5666 43.8948 64.3366 43.6948 64.1866Z" fill="#87B1D9"/>
<path d="M38.9348 65.6666C37.5448 65.8766 36.1448 66.1166 34.7548 66.2766C33.5148 66.4266 32.2948 66.5566 31.0848 66.9766C30.7748 67.0866 30.4148 67.1266 30.0848 67.2066L29.1748 67.4066L28.7248 67.5066C28.6048 67.5366 28.4948 67.5566 28.3848 67.5966C28.1748 67.6766 28.1048 67.9266 28.0548 68.0866C28.0248 68.1966 28.0148 68.3066 27.9948 68.4266L27.9548 68.9066C27.9348 69.2266 27.9248 69.5566 27.9148 69.8766C27.9048 70.5266 27.9348 71.1666 28.0148 71.8166C27.8248 72.8266 27.9648 73.8266 28.0248 74.8366C28.0848 75.8566 28.0448 76.8866 28.1948 77.8866C28.2348 78.1566 28.2448 78.4566 28.2248 78.7266C28.2048 78.9566 28.1848 79.0866 28.1748 79.4066L28.1448 80.2566L28.1248 81.0866C28.1048 81.3466 28.1748 81.7266 28.0048 81.7066C27.4648 81.4166 26.8648 81.0766 26.3348 80.9366C26.0148 80.8566 25.9148 80.8566 25.7148 80.8366C25.5348 80.8266 25.3448 80.8166 25.1648 80.8266C23.5948 80.8966 21.9448 81.7066 21.4948 83.2366C21.2448 84.0566 21.6448 85.0166 22.3348 85.5966C23.1448 86.3266 24.2748 86.6166 25.3448 86.5766C26.1248 86.5466 26.9048 86.3266 27.5248 85.8966C28.1548 85.4866 28.6348 84.8566 28.7448 84.1866C28.7848 83.9566 28.7848 83.7666 28.7648 83.5066L28.7048 82.6766L28.5948 81.0166L28.4148 77.6966C28.3848 77.1366 28.3948 76.5666 28.4048 75.9966C28.4248 75.3466 28.4348 74.6866 28.4548 74.0366L28.4748 72.9466L35.2348 71.6266C36.9148 71.2866 38.5848 70.8966 40.2548 70.4966L43.1748 69.7866L43.2548 73.4866L43.2948 75.7166L43.3148 77.4866L43.3248 78.4666L43.3348 78.9566C43.3448 79.1566 43.3048 79.1766 43.2948 79.3366C42.5548 78.9466 41.7048 78.3766 41.0248 78.1766L40.7648 78.1066L40.6248 78.0866L40.3848 78.0566C40.2248 78.0466 40.0548 78.0366 39.8948 78.0466C39.2348 78.0766 38.5948 78.2566 38.0748 78.5766C36.9848 79.2366 36.6648 80.3966 37.2848 81.2266C37.7148 81.8266 38.5348 82.2366 39.3848 82.3266C39.8148 82.3766 40.2548 82.3666 40.6748 82.2966C41.4548 82.1666 42.1748 81.7566 42.5548 81.2266C42.7448 80.9566 42.8448 80.6766 42.8648 80.3866L42.8848 78.8366L42.9048 69.7566L42.9148 67.1866L42.8848 65.9066L42.8548 65.2666L42.8348 64.9466L42.8248 64.8666V64.8466V64.8366C42.7448 64.8366 43.5648 64.8366 43.2148 64.8366H43.2248C43.2448 64.8266 43.2048 64.8466 43.2248 64.8366C43.1948 64.8566 43.3048 64.7666 43.4048 64.7366C43.5048 64.7066 43.6148 64.6966 43.7248 64.7366C43.8348 64.7666 43.9248 64.8866 44.0048 65.0366C44.0848 65.1766 44.1648 65.3466 44.2248 65.5566C44.3948 66.1166 44.5248 66.6366 44.4648 67.3266C44.3748 68.3266 44.5648 69.3866 44.3148 70.3766C44.2748 70.5166 44.2948 70.7166 44.3048 70.8866C44.5848 73.8366 44.4348 76.8066 44.4048 79.7766C44.3948 80.2366 44.4348 80.7966 44.2548 81.3366C44.0948 81.8666 43.7848 82.3366 43.4048 82.7166C42.9048 83.2066 42.2948 83.5566 41.6448 83.7666C40.6948 84.0666 39.6848 84.0666 38.7248 83.8566C38.0148 83.7066 37.2648 83.4266 36.9048 82.8166C36.8248 82.6966 36.5448 82.4366 36.4148 82.3766C35.8848 82.1366 35.5648 81.4866 35.4748 80.8366C35.3448 79.9466 35.6348 79.0166 36.2048 78.3666C36.7548 77.6966 37.5048 77.2466 38.2848 76.9866C38.8648 76.7966 39.4848 76.6966 40.0948 76.6966C40.4048 76.6966 40.7148 76.7166 41.0148 76.7666C41.1948 76.7866 41.3648 76.8266 41.5148 76.8766C41.6148 76.9066 41.7048 76.9466 41.7848 76.9766C41.9248 77.0966 41.8648 76.8866 41.8548 76.7766L41.8248 76.4166C41.8048 76.1466 41.7748 76.0966 41.7548 75.6166L41.6248 73.2466L41.6048 72.6266L41.5948 72.3166L41.5848 72.2066L41.5548 71.8266L41.2548 71.9166L41.1148 71.9566L40.7048 72.0566C40.3748 72.1366 40.0548 72.2566 39.7248 72.3366C39.1148 72.4866 38.4848 72.6766 37.8948 72.7266C37.2348 72.7866 36.7348 72.8766 36.1948 73.2066C35.8848 73.3866 35.3648 73.4966 34.9248 73.5766C34.3748 73.6766 33.8048 73.7166 33.2548 73.7666C32.5948 73.8166 31.9648 73.8566 31.3048 74.1666C31.1248 74.2466 30.9048 74.3066 30.6748 74.3466L30.5148 74.3766H30.4648L30.3548 74.3666C30.2948 74.3566 30.2348 74.3566 30.1748 74.3566C30.1548 74.4066 30.1348 74.4766 30.1148 74.5566L30.0948 74.6766L30.0748 75.0066C30.0548 75.4466 30.0348 75.8866 30.0348 76.3366C30.0248 77.2266 30.0448 78.1066 30.0748 78.9966L30.2348 82.9266L30.2548 83.4166L30.2648 83.6666L30.2548 83.9966C30.2148 84.4366 30.1248 84.8766 29.9348 85.2766C29.5648 86.0766 28.9648 86.7066 28.2748 87.1566C27.1948 87.8566 25.8948 88.1066 24.6548 88.0066C23.6848 87.9166 22.7048 87.6066 21.8748 86.9966C21.0448 86.4066 20.3248 85.4766 20.1348 84.3366C19.9248 83.2166 20.2948 82.0066 20.9948 81.2066C21.6748 80.3866 22.5848 79.8766 23.5148 79.6066C24.2548 79.3966 25.0148 79.3366 25.7648 79.3566C25.9648 79.3566 26.1648 79.3766 26.3548 79.4066C26.4948 79.4266 26.4348 79.4166 26.4648 79.4166H26.4948C26.5348 79.4166 26.5548 79.4266 26.5848 79.4366C26.6248 79.4566 26.6048 79.3766 26.6248 79.3566L26.6448 79.2966C26.6448 79.2666 26.6548 79.2966 26.6548 79.2266L26.6648 78.9366C26.7548 77.2166 26.6648 75.5066 26.5748 73.7966C26.5548 73.3966 26.5048 72.9966 26.5248 72.6066C26.5848 71.2366 26.5648 69.8666 26.5348 68.4866C26.4748 67.8266 26.6448 67.1566 27.1148 66.6966C27.3448 66.4666 27.6248 66.2966 27.9348 66.1866C28.0948 66.1366 28.2648 66.1066 28.4248 66.0666L28.6748 66.0066C29.3448 65.8466 30.0148 65.6966 30.6848 65.5566C32.8548 65.1066 35.0448 64.7466 37.2348 64.3666L42.2948 63.5266C42.4048 63.5066 42.5148 63.4666 42.6248 63.4466C42.7548 63.4266 42.8248 63.4166 42.9848 63.4066C43.1648 63.3966 43.3248 63.4166 43.4548 63.4566C43.7248 63.5366 43.8748 63.6966 43.9248 63.8166C44.0348 64.0666 43.8048 64.1166 43.5248 64.2266C43.4048 64.2866 43.3048 64.3566 43.2248 64.4366C43.1748 64.4766 43.1748 64.5166 43.1148 64.5566C43.0548 64.6066 42.9848 64.6466 42.9048 64.6966C42.6148 64.8666 42.2548 65.0066 41.8248 65.0966L38.9748 65.6566L38.9348 65.6666Z" fill="#87B1D9"/>
<path d="M17.7844 13.5067C18.0844 13.4767 18.3344 13.4067 18.6944 13.4467C19.0144 13.4767 19.3344 13.5068 19.2644 13.1768C19.2444 13.0868 19.3344 13.0967 19.3644 13.0467C19.4244 12.9667 19.4944 12.9067 19.5444 12.8167C19.5644 12.7767 19.4744 12.6267 19.5444 12.6367C19.8844 12.6767 20.0844 12.5767 19.9944 12.2267C20.3844 12.3667 20.2844 12.0667 20.3144 11.8667C20.3344 11.6667 20.5044 11.6067 20.3944 11.2867C20.3644 11.2067 20.3744 11.1467 20.4444 11.1567C20.8544 11.1867 20.9444 10.9167 21.0644 10.6667C21.1844 10.4067 21.4544 10.2667 21.9044 10.3067C22.1444 10.3267 22.2444 10.2067 22.3444 10.0967C22.4644 9.96673 22.5044 9.75674 22.6044 9.60674C22.7544 9.38674 22.8444 9.11673 22.8244 8.74673C22.7944 8.24673 22.8244 7.79672 22.9144 7.39672C22.9544 7.19672 23.1744 7.14673 23.3344 7.05673C23.6644 6.87673 24.0444 6.73673 24.3544 6.52673C24.5844 6.36673 24.7344 6.14673 24.8844 5.90673C25.0144 5.68673 25.0744 5.39674 25.1944 5.16674C25.5644 4.48674 25.9444 3.82672 26.3144 3.14672C26.4044 2.98672 26.4544 2.78672 26.5344 2.61672C26.5744 2.52672 26.6344 2.46673 26.7044 2.40673C26.9644 2.19673 27.2444 2.00673 27.4944 1.77673C27.8444 1.44673 28.1444 1.08674 28.4944 0.756738C28.6944 0.566738 28.9244 0.416737 28.9144 0.036737C28.9144 -0.073263 29.0944 0.0667419 29.4244 0.416742C30.0044 1.01674 30.6044 1.63674 30.8844 2.06674C31.0744 2.35674 31.2044 2.59672 31.0444 2.58672C30.8044 2.57672 30.9744 2.96675 30.5044 2.73675C30.4344 2.70675 30.4344 2.74674 30.4344 2.78674C30.5344 3.51674 29.9944 3.64674 29.6244 3.94674C29.5044 4.04674 29.4644 4.21673 29.3844 4.34673C29.3244 4.42673 29.2643 4.50674 29.1844 4.56674C29.0744 4.65674 28.9144 4.70673 28.8444 4.84673C28.7944 4.94673 28.8344 5.13672 28.4044 4.86672C28.3144 4.80672 28.2944 4.86673 28.3644 4.96673C28.6444 5.33673 28.5444 5.36674 28.4744 5.41674C28.2844 5.56674 28.0644 5.69673 27.9044 5.87673C27.7844 6.00673 27.7144 6.19672 27.6744 6.39672C27.6144 6.71672 27.6144 7.09673 27.5444 7.40673C27.4844 7.66673 27.3444 7.85672 27.2444 8.08672C27.2244 8.13672 27.2544 8.24674 27.2244 8.28674C27.1744 8.37674 27.1844 8.52675 27.0044 8.48675C26.8044 8.44675 26.7244 8.47674 26.9544 8.81674C27.0844 9.00673 27.0143 9.05674 26.9344 9.07675C26.8343 9.10674 26.6644 9.06673 26.4944 9.02673C26.2944 8.97673 26.0844 8.91675 26.2244 9.20675C26.3044 9.36675 26.1744 9.35674 26.0444 9.32675C25.4844 9.21675 25.3044 9.46674 25.1944 9.78674C25.0444 10.2167 24.9544 10.6867 24.8244 11.1267C24.7744 11.2967 24.6744 11.4267 24.5844 11.5667C24.3144 12.0067 23.8843 12.2867 23.4344 12.5667C23.3443 12.6167 23.2444 12.6667 23.2444 12.7967C23.2444 13.1067 23.0544 13.2367 22.7944 13.2967C22.4844 13.3767 22.4244 13.6867 22.3744 14.0067C22.3644 14.0767 22.3944 14.1967 22.3244 14.2167C21.8544 14.3767 21.8644 14.9667 21.5044 15.2267C21.2144 15.4367 20.8044 15.5267 20.4144 15.6467C20.1144 15.7367 19.7744 15.7867 19.4644 15.8667C19.4444 15.8667 19.4543 15.9067 19.4344 15.9167C19.2343 15.9367 18.7644 15.5767 18.1544 14.9067C17.6144 14.3167 17.3444 13.9267 17.4444 13.8367C17.5644 13.7367 17.7144 13.6767 17.8544 13.5967C17.8444 13.5567 17.8144 13.5367 17.7844 13.5067Z" fill="#87B1D9"/>
<path d="M32.1535 13.5067C32.4535 13.4767 32.7035 13.4067 33.0635 13.4467C33.3835 13.4767 33.7035 13.5068 33.6335 13.1768C33.6135 13.0868 33.7035 13.0967 33.7335 13.0467C33.7935 12.9667 33.8635 12.9067 33.9135 12.8167C33.9335 12.7767 33.8435 12.6267 33.9135 12.6367C34.2535 12.6767 34.4535 12.5767 34.3635 12.2267C34.7535 12.3667 34.6535 12.0667 34.6835 11.8667C34.7035 11.6667 34.8735 11.6067 34.7635 11.2867C34.7335 11.2067 34.7435 11.1467 34.8135 11.1567C35.2235 11.1867 35.3135 10.9167 35.4335 10.6667C35.5535 10.4067 35.8235 10.2667 36.2735 10.3067C36.5135 10.3267 36.6135 10.2067 36.7135 10.0967C36.8335 9.96673 36.8735 9.75674 36.9735 9.60674C37.1235 9.38674 37.2135 9.11673 37.1935 8.74673C37.1635 8.24673 37.1935 7.79672 37.2835 7.39672C37.3235 7.19672 37.5435 7.14673 37.7035 7.05673C38.0335 6.87673 38.4135 6.73673 38.7235 6.52673C38.9535 6.36673 39.1035 6.14673 39.2535 5.90673C39.3835 5.68673 39.4435 5.39674 39.5635 5.16674C39.9335 4.48674 40.3135 3.82672 40.6835 3.14672C40.7735 2.98672 40.8235 2.78672 40.9035 2.61672C40.9435 2.52672 41.0035 2.46673 41.0735 2.40673C41.3335 2.19673 41.6135 2.00673 41.8635 1.77673C42.2135 1.44673 42.5135 1.08674 42.8635 0.756738C43.0635 0.566738 43.2935 0.416737 43.2835 0.036737C43.2835 -0.073263 43.4635 0.0667419 43.7935 0.416742C44.3735 1.01674 44.9735 1.63674 45.2535 2.06674C45.4435 2.35674 45.5735 2.59672 45.4135 2.58672C45.1735 2.57672 45.3435 2.96675 44.8735 2.73675C44.8035 2.70675 44.8035 2.74674 44.8035 2.78674C44.9035 3.51674 44.3635 3.64674 43.9935 3.94674C43.8735 4.04674 43.8335 4.21673 43.7535 4.34673C43.6935 4.42673 43.6335 4.50674 43.5535 4.56674C43.4435 4.65674 43.2835 4.70673 43.2135 4.84673C43.1635 4.94673 43.2035 5.13672 42.7735 4.86672C42.6835 4.80672 42.6635 4.86673 42.7335 4.96673C43.0135 5.33673 42.9135 5.36674 42.8435 5.41674C42.6535 5.56674 42.4335 5.69673 42.2735 5.87673C42.1535 6.00673 42.0835 6.19672 42.0435 6.39672C41.9835 6.71672 41.9835 7.09673 41.9135 7.40673C41.8535 7.66673 41.7135 7.85672 41.6135 8.08672C41.5935 8.13672 41.6235 8.24674 41.5935 8.28674C41.5435 8.37674 41.5535 8.52675 41.3735 8.48675C41.1735 8.44675 41.0935 8.47674 41.3235 8.81674C41.4535 9.00673 41.3835 9.05674 41.3035 9.07675C41.2035 9.10674 41.0335 9.06673 40.8635 9.02673C40.6635 8.97673 40.4535 8.91675 40.5935 9.20675C40.6735 9.36675 40.5435 9.35674 40.4135 9.32675C39.8535 9.21675 39.6735 9.46674 39.5635 9.78674C39.4135 10.2167 39.3235 10.6867 39.1935 11.1267C39.1435 11.2967 39.0435 11.4267 38.9535 11.5667C38.6835 12.0067 38.2535 12.2867 37.8035 12.5667C37.7135 12.6167 37.6135 12.6667 37.6135 12.7967C37.6135 13.1067 37.4235 13.2367 37.1635 13.2967C36.8535 13.3767 36.7935 13.6867 36.7435 14.0067C36.7335 14.0767 36.7635 14.1967 36.6935 14.2167C36.2235 14.3767 36.2335 14.9667 35.8735 15.2267C35.5835 15.4367 35.1735 15.5267 34.7835 15.6467C34.4835 15.7367 34.1435 15.7867 33.8335 15.8667C33.8135 15.8667 33.8335 15.9067 33.8035 15.9167C33.6035 15.9367 33.1335 15.5767 32.5235 14.9067C31.9835 14.3167 31.7135 13.9267 31.8135 13.8367C31.9335 13.7367 32.0835 13.6767 32.2235 13.5967C32.2135 13.5567 32.1835 13.5367 32.1535 13.5067Z" fill="#87B1D9"/>
<path d="M46.7043 13.5067C47.0043 13.4767 47.2543 13.4067 47.6143 13.4467C47.9343 13.4767 48.2543 13.5068 48.1843 13.1768C48.1643 13.0868 48.2543 13.0967 48.2843 13.0467C48.3443 12.9667 48.4143 12.9067 48.4643 12.8167C48.4843 12.7767 48.3943 12.6267 48.4643 12.6367C48.8043 12.6767 49.0043 12.5767 48.9143 12.2267C49.3043 12.3667 49.2043 12.0667 49.2343 11.8667C49.2543 11.6667 49.4243 11.6067 49.3143 11.2867C49.2843 11.2067 49.2943 11.1467 49.3643 11.1567C49.7743 11.1867 49.8643 10.9167 49.9843 10.6667C50.1043 10.4067 50.3743 10.2667 50.8243 10.3067C51.0643 10.3267 51.1643 10.2067 51.2643 10.0967C51.3843 9.96673 51.4243 9.75674 51.5243 9.60674C51.6743 9.38674 51.7643 9.11673 51.7443 8.74673C51.7143 8.24673 51.7443 7.79672 51.8343 7.39672C51.8743 7.19672 52.0943 7.14673 52.2543 7.05673C52.5843 6.87673 52.9643 6.73673 53.2743 6.52673C53.5043 6.36673 53.6543 6.14673 53.8043 5.90673C53.9343 5.68673 53.9943 5.39674 54.1143 5.16674C54.4843 4.48674 54.8643 3.82672 55.2343 3.14672C55.3243 2.98672 55.3743 2.78672 55.4543 2.61672C55.4943 2.52672 55.5543 2.46673 55.6243 2.40673C55.8843 2.19673 56.1643 2.00673 56.4143 1.77673C56.7643 1.44673 57.0643 1.08674 57.4143 0.756738C57.6143 0.566738 57.8443 0.416737 57.8343 0.036737C57.8343 -0.073263 58.0143 0.0667419 58.3443 0.416742C58.9243 1.01674 59.5243 1.63674 59.8043 2.06674C59.9943 2.35674 60.1243 2.59672 59.9643 2.58672C59.7243 2.57672 59.8943 2.96675 59.4243 2.73675C59.3543 2.70675 59.3543 2.74674 59.3543 2.78674C59.4543 3.51674 58.9143 3.64674 58.5443 3.94674C58.4243 4.04674 58.3843 4.21673 58.3043 4.34673C58.2443 4.42673 58.1843 4.50674 58.1043 4.56674C57.9943 4.65674 57.8343 4.70673 57.7643 4.84673C57.7143 4.94673 57.7543 5.13672 57.3243 4.86672C57.2343 4.80672 57.2143 4.86673 57.2843 4.96673C57.5643 5.33673 57.4643 5.36674 57.3943 5.41674C57.2043 5.56674 56.9843 5.69673 56.8243 5.87673C56.7043 6.00673 56.6343 6.19672 56.5943 6.39672C56.5343 6.71672 56.5343 7.09673 56.4643 7.40673C56.4043 7.66673 56.2643 7.85672 56.1643 8.08672C56.1443 8.13672 56.1743 8.24674 56.1443 8.28674C56.0943 8.37674 56.1043 8.52675 55.9243 8.48675C55.7243 8.44675 55.6443 8.47674 55.8743 8.81674C56.0043 9.00673 55.9343 9.05674 55.8543 9.07675C55.7543 9.10674 55.5843 9.06673 55.4143 9.02673C55.2143 8.97673 55.0043 8.91675 55.1443 9.20675C55.2243 9.36675 55.0943 9.35674 54.9643 9.32675C54.4043 9.21675 54.2243 9.46674 54.1143 9.78674C53.9643 10.2167 53.8743 10.6867 53.7443 11.1267C53.6943 11.2967 53.5943 11.4267 53.5043 11.5667C53.2343 12.0067 52.8043 12.2867 52.3543 12.5667C52.2643 12.6167 52.1643 12.6667 52.1643 12.7967C52.1643 13.1067 51.9743 13.2367 51.7143 13.2967C51.4043 13.3767 51.3443 13.6867 51.2943 14.0067C51.2843 14.0767 51.3143 14.1967 51.2443 14.2167C50.7743 14.3767 50.7843 14.9667 50.4243 15.2267C50.1343 15.4367 49.7243 15.5267 49.3343 15.6467C49.0343 15.7367 48.6943 15.7867 48.3843 15.8667C48.3643 15.8667 48.3843 15.9067 48.3543 15.9167C48.1543 15.9367 47.6843 15.5767 47.0743 14.9067C46.5343 14.3167 46.2643 13.9267 46.3643 13.8367C46.4843 13.7367 46.6343 13.6767 46.7743 13.5967C46.7643 13.5567 46.7343 13.5367 46.7043 13.5067Z" fill="#87B1D9"/>
<path d="M62.0031 13.5067C62.3031 13.4767 62.5531 13.4067 62.9131 13.4467C63.2331 13.4767 63.5531 13.5068 63.4831 13.1768C63.4631 13.0868 63.5531 13.0967 63.5831 13.0467C63.6431 12.9667 63.7131 12.9067 63.7631 12.8167C63.7831 12.7767 63.6931 12.6267 63.7631 12.6367C64.1031 12.6767 64.3031 12.5767 64.2131 12.2267C64.6031 12.3667 64.5031 12.0667 64.5331 11.8667C64.5531 11.6667 64.7231 11.6067 64.6131 11.2867C64.5831 11.2067 64.5931 11.1467 64.6631 11.1567C65.0731 11.1867 65.1631 10.9167 65.2831 10.6667C65.4031 10.4067 65.6731 10.2667 66.1231 10.3067C66.3631 10.3267 66.4631 10.2067 66.5631 10.0967C66.6831 9.96673 66.7231 9.75674 66.8231 9.60674C66.9731 9.38674 67.0631 9.11673 67.0431 8.74673C67.0131 8.24673 67.0431 7.79672 67.1331 7.39672C67.1731 7.19672 67.3931 7.14673 67.5531 7.05673C67.8831 6.87673 68.2631 6.73673 68.5731 6.52673C68.8031 6.36673 68.9531 6.14673 69.1031 5.90673C69.2331 5.68673 69.2931 5.39674 69.4131 5.16674C69.7831 4.48674 70.1631 3.82672 70.5331 3.14672C70.6231 2.98672 70.6731 2.78672 70.7531 2.61672C70.7931 2.52672 70.8531 2.46673 70.9231 2.40673C71.1831 2.19673 71.4631 2.00673 71.7131 1.77673C72.0631 1.44673 72.3631 1.08674 72.7131 0.756738C72.9131 0.566738 73.1431 0.416737 73.1331 0.036737C73.1331 -0.073263 73.3131 0.0667419 73.6431 0.416742C74.2231 1.01674 74.8231 1.63674 75.1031 2.06674C75.2931 2.35674 75.4231 2.59672 75.2631 2.58672C75.0231 2.57672 75.1931 2.96675 74.7231 2.73675C74.6531 2.70675 74.6531 2.74674 74.6531 2.78674C74.7531 3.51674 74.2131 3.64674 73.8431 3.94674C73.7231 4.04674 73.6831 4.21673 73.6031 4.34673C73.5431 4.42673 73.4831 4.50674 73.4031 4.56674C73.2931 4.65674 73.1331 4.70673 73.0631 4.84673C73.0131 4.94673 73.0531 5.13672 72.6231 4.86672C72.5331 4.80672 72.5131 4.86673 72.5831 4.96673C72.8631 5.33673 72.7631 5.36674 72.6931 5.41674C72.5031 5.56674 72.2831 5.69673 72.1231 5.87673C72.0031 6.00673 71.9331 6.19672 71.8931 6.39672C71.8331 6.71672 71.8331 7.09673 71.7631 7.40673C71.7031 7.66673 71.5631 7.85672 71.4631 8.08672C71.4431 8.13672 71.4731 8.24674 71.4431 8.28674C71.3931 8.37674 71.4031 8.52675 71.2231 8.48675C71.0231 8.44675 70.9431 8.47674 71.1731 8.81674C71.3031 9.00673 71.2331 9.05674 71.1531 9.07675C71.0531 9.10674 70.8831 9.06673 70.7131 9.02673C70.5131 8.97673 70.3031 8.91675 70.4431 9.20675C70.5231 9.36675 70.3931 9.35674 70.2631 9.32675C69.7031 9.21675 69.5231 9.46674 69.4131 9.78674C69.2631 10.2167 69.1731 10.6867 69.0431 11.1267C68.9931 11.2967 68.8931 11.4267 68.8031 11.5667C68.5331 12.0067 68.1031 12.2867 67.6531 12.5667C67.5631 12.6167 67.4631 12.6667 67.4631 12.7967C67.4631 13.1067 67.2731 13.2367 67.0131 13.2967C66.7031 13.3767 66.6431 13.6867 66.5931 14.0067C66.5831 14.0767 66.6131 14.1967 66.5431 14.2167C66.0731 14.3767 66.0831 14.9667 65.7231 15.2267C65.4331 15.4367 65.0231 15.5267 64.6331 15.6467C64.3331 15.7367 63.9931 15.7867 63.6831 15.8667C63.6631 15.8667 63.6831 15.9067 63.6531 15.9167C63.4531 15.9367 62.9831 15.5767 62.3731 14.9067C61.8331 14.3167 61.5631 13.9267 61.6631 13.8367C61.7831 13.7367 61.9331 13.6767 62.0731 13.5967C62.0631 13.5567 62.0331 13.5367 62.0031 13.5067Z" fill="#87B1D9"/>
<path d="M77.0148 13.5067C77.3148 13.4767 77.5648 13.4067 77.9248 13.4467C78.2448 13.4767 78.5648 13.5068 78.4948 13.1768C78.4748 13.0868 78.5648 13.0967 78.5948 13.0467C78.6548 12.9667 78.7248 12.9067 78.7748 12.8167C78.7948 12.7767 78.7048 12.6267 78.7748 12.6367C79.1148 12.6767 79.3148 12.5767 79.2248 12.2267C79.6148 12.3667 79.5148 12.0667 79.5448 11.8667C79.5648 11.6667 79.7348 11.6067 79.6248 11.2867C79.5948 11.2067 79.6048 11.1467 79.6748 11.1567C80.0848 11.1867 80.1748 10.9167 80.2948 10.6667C80.4148 10.4067 80.6848 10.2667 81.1348 10.3067C81.3748 10.3267 81.4748 10.2067 81.5748 10.0967C81.6948 9.96673 81.7348 9.75674 81.8348 9.60674C81.9848 9.38674 82.0748 9.11673 82.0548 8.74673C82.0248 8.24673 82.0548 7.79672 82.1448 7.39672C82.1848 7.19672 82.4048 7.14673 82.5648 7.05673C82.8948 6.87673 83.2748 6.73673 83.5848 6.52673C83.8148 6.36673 83.9648 6.14673 84.1148 5.90673C84.2448 5.68673 84.3048 5.39674 84.4248 5.16674C84.7948 4.48674 85.1748 3.82672 85.5448 3.14672C85.6348 2.98672 85.6848 2.78672 85.7648 2.61672C85.8048 2.52672 85.8648 2.46673 85.9348 2.40673C86.1948 2.19673 86.4748 2.00673 86.7248 1.77673C87.0748 1.44673 87.3748 1.08674 87.7248 0.756738C87.9248 0.566738 88.1548 0.416737 88.1448 0.036737C88.1448 -0.073263 88.3248 0.0667419 88.6548 0.416742C89.2348 1.01674 89.8348 1.63674 90.1148 2.06674C90.3048 2.35674 90.4348 2.59672 90.2748 2.58672C90.0348 2.57672 90.2048 2.96675 89.7348 2.73675C89.6648 2.70675 89.6648 2.74674 89.6648 2.78674C89.7648 3.51674 89.2248 3.64674 88.8548 3.94674C88.7348 4.04674 88.6948 4.21673 88.6148 4.34673C88.5548 4.42673 88.4948 4.50674 88.4148 4.56674C88.3048 4.65674 88.1448 4.70673 88.0748 4.84673C88.0248 4.94673 88.0648 5.13672 87.6348 4.86672C87.5448 4.80672 87.5248 4.86673 87.5948 4.96673C87.8748 5.33673 87.7748 5.36674 87.7048 5.41674C87.5148 5.56674 87.2948 5.69673 87.1348 5.87673C87.0148 6.00673 86.9448 6.19672 86.9048 6.39672C86.8448 6.71672 86.8448 7.09673 86.7748 7.40673C86.7148 7.66673 86.5748 7.85672 86.4748 8.08672C86.4548 8.13672 86.4848 8.24674 86.4548 8.28674C86.4048 8.37674 86.4148 8.52675 86.2348 8.48675C86.0348 8.44675 85.9548 8.47674 86.1848 8.81674C86.3148 9.00673 86.2348 9.05674 86.1648 9.07675C86.0648 9.10674 85.8948 9.06673 85.7248 9.02673C85.5248 8.97673 85.3148 8.91675 85.4548 9.20675C85.5348 9.36675 85.4048 9.35674 85.2748 9.32675C84.7148 9.21675 84.5348 9.46674 84.4248 9.78674C84.2748 10.2167 84.1848 10.6867 84.0548 11.1267C84.0048 11.2967 83.9048 11.4267 83.8148 11.5667C83.5448 12.0067 83.1148 12.2867 82.6648 12.5667C82.5748 12.6167 82.4748 12.6667 82.4748 12.7967C82.4748 13.1067 82.2848 13.2367 82.0248 13.2967C81.7148 13.3767 81.6548 13.6867 81.6048 14.0067C81.5948 14.0767 81.6248 14.1967 81.5548 14.2167C81.0848 14.3767 81.0948 14.9667 80.7348 15.2267C80.4448 15.4367 80.0348 15.5267 79.6448 15.6467C79.3448 15.7367 79.0048 15.7867 78.6948 15.8667C78.6748 15.8667 78.6948 15.9067 78.6648 15.9167C78.4648 15.9367 77.9948 15.5767 77.3848 14.9067C76.8448 14.3167 76.5748 13.9267 76.6748 13.8367C76.7948 13.7367 76.9448 13.6767 77.0848 13.5967C77.0748 13.5567 77.0448 13.5367 77.0148 13.5067Z" fill="#87B1D9"/>
<path d="M91.8935 13.5067C92.1935 13.4767 92.4435 13.4067 92.8035 13.4467C93.1235 13.4767 93.4435 13.5068 93.3735 13.1768C93.3535 13.0868 93.4435 13.0967 93.4735 13.0467C93.5335 12.9667 93.6035 12.9067 93.6535 12.8167C93.6735 12.7767 93.5835 12.6267 93.6535 12.6367C93.9935 12.6767 94.1935 12.5767 94.1035 12.2267C94.4935 12.3667 94.3935 12.0667 94.4235 11.8667C94.4435 11.6667 94.6135 11.6067 94.5135 11.2867C94.4835 11.2067 94.4935 11.1467 94.5635 11.1567C94.9735 11.1867 95.0635 10.9167 95.1835 10.6667C95.3035 10.4067 95.5735 10.2667 96.0235 10.3067C96.2635 10.3267 96.3635 10.2067 96.4635 10.0967C96.5835 9.96673 96.6235 9.75674 96.7235 9.60674C96.8735 9.38674 96.9635 9.11673 96.9435 8.74673C96.9135 8.24673 96.9435 7.79672 97.0335 7.39672C97.0735 7.19672 97.2935 7.14673 97.4535 7.05673C97.7835 6.87673 98.1635 6.73673 98.4735 6.52673C98.7035 6.36673 98.8535 6.14673 99.0035 5.90673C99.1335 5.68673 99.1935 5.39674 99.3135 5.16674C99.6835 4.48674 100.063 3.82672 100.433 3.14672C100.523 2.98672 100.573 2.78672 100.653 2.61672C100.693 2.52672 100.753 2.46673 100.823 2.40673C101.083 2.19673 101.363 2.00673 101.613 1.77673C101.963 1.44673 102.263 1.08674 102.613 0.756738C102.813 0.566738 103.043 0.416737 103.033 0.036737C103.033 -0.073263 103.213 0.0667419 103.543 0.416742C104.123 1.01674 104.723 1.63674 105.003 2.06674C105.193 2.35674 105.323 2.59672 105.163 2.58672C104.924 2.57672 105.093 2.96675 104.623 2.73675C104.553 2.70675 104.553 2.74674 104.553 2.78674C104.653 3.51674 104.113 3.64674 103.743 3.94674C103.623 4.04674 103.583 4.21673 103.503 4.34673C103.443 4.42673 103.383 4.50674 103.303 4.56674C103.193 4.65674 103.033 4.70673 102.963 4.84673C102.913 4.94673 102.953 5.13672 102.523 4.86672C102.433 4.80672 102.413 4.86673 102.483 4.96673C102.763 5.33673 102.663 5.36674 102.593 5.41674C102.403 5.56674 102.183 5.69673 102.023 5.87673C101.903 6.00673 101.833 6.19672 101.793 6.39672C101.733 6.71672 101.733 7.09673 101.663 7.40673C101.603 7.66673 101.463 7.85672 101.363 8.08672C101.343 8.13672 101.373 8.24674 101.343 8.28674C101.293 8.37674 101.303 8.52675 101.123 8.48675C100.923 8.44675 100.843 8.47674 101.073 8.81674C101.203 9.00673 101.133 9.05674 101.053 9.07675C100.953 9.10674 100.783 9.06673 100.613 9.02673C100.413 8.97673 100.203 8.91675 100.343 9.20675C100.423 9.36675 100.293 9.35674 100.163 9.32675C99.6035 9.21675 99.4235 9.46674 99.3135 9.78674C99.1635 10.2167 99.0735 10.6867 98.9435 11.1267C98.8935 11.2967 98.7935 11.4267 98.7035 11.5667C98.4335 12.0067 98.0035 12.2867 97.5535 12.5667C97.4635 12.6167 97.3635 12.6667 97.3635 12.7967C97.3635 13.1067 97.1735 13.2367 96.9135 13.2967C96.6035 13.3767 96.5435 13.6867 96.4935 14.0067C96.4835 14.0767 96.5135 14.1967 96.4435 14.2167C95.9735 14.3767 95.9835 14.9667 95.6235 15.2267C95.3335 15.4367 94.9235 15.5267 94.5335 15.6467C94.2335 15.7367 93.8935 15.7867 93.5835 15.8667C93.5635 15.8667 93.5835 15.9067 93.5535 15.9167C93.3535 15.9367 92.8835 15.5767 92.2735 14.9067C91.7335 14.3167 91.4635 13.9267 91.5635 13.8367C91.6835 13.7367 91.8335 13.6767 91.9735 13.5967C91.9535 13.5567 91.9235 13.5367 91.8935 13.5067Z" fill="#87B1D9"/>
</svg>
