<svg width="73" height="64" viewBox="0 0 73 64" fill="none" xmlns="http://www.w3.org/2000/svg">
<path d="M64.5379 3.39907C64.3879 4.00907 64.1279 4.56907 63.8879 5.14907C63.7079 5.73907 63.4679 6.32906 63.4579 6.95906C63.3279 8.56907 63.5079 10.1391 64.5179 11.3791C64.5679 11.4691 64.7279 11.5191 64.7279 11.6091C64.8079 12.6091 65.7279 12.8791 66.3879 13.4191C67.5879 14.3891 69.1179 15.1191 70.0379 16.5791C70.4279 17.3091 70.9079 17.9991 71.2579 18.7491L71.8379 19.8591C71.9979 20.2691 72.1979 20.6691 72.3079 21.1091C72.6379 22.0891 72.7179 23.1491 72.8479 24.1791C72.9979 25.4391 72.7979 26.7291 72.4079 27.8891C72.0179 29.0491 71.4379 30.0991 70.8079 31.0491C69.1979 33.4691 67.3579 35.5991 66.4279 37.7091C66.1879 38.2791 66.0179 38.8091 65.9479 39.2691C65.8779 39.7291 65.9179 40.0891 66.0179 40.4191C66.1179 40.7591 66.2779 41.0991 66.5879 41.4691L67.2379 42.3291C67.5079 42.6591 67.7479 43.0291 67.9879 43.3891C68.2079 43.7091 68.3279 44.0891 68.4679 44.4691C68.5579 44.7191 68.6079 45.0191 68.7579 45.1991C69.4079 45.9691 69.6979 46.9391 69.7679 47.9591C69.8579 48.9691 69.8079 49.9791 69.8979 51.0191C69.4279 51.8991 69.5279 52.7091 69.4779 53.6891C69.4479 54.4691 68.9679 55.2391 68.5679 55.9391C68.3279 56.3091 67.9879 56.6391 67.8079 56.9991C67.0779 58.5791 65.4879 59.3891 64.1379 60.3191C63.2079 60.3691 62.4579 60.8591 61.5579 61.0791C60.6079 61.2991 59.5779 61.3891 58.5379 61.1991C57.7079 61.0491 56.8579 60.7291 56.0979 60.2491C55.9279 60.1391 55.6779 59.9791 55.5779 59.8891L55.2579 59.6191L54.6079 59.0891C54.2779 58.8391 53.9779 58.4891 53.5979 58.3391C51.1479 57.2691 48.8179 56.2691 46.6779 56.3891C46.4279 56.3891 46.1779 56.4291 45.9379 56.5091L45.5779 56.5891L45.2279 56.7091C44.4379 56.9491 43.6379 57.3391 42.9079 57.9191L42.3979 58.2991L41.7879 58.7691C41.3779 59.0791 41.0179 59.4291 40.6079 59.7591C38.7679 61.4491 36.2079 62.7091 33.4179 62.9591C31.3179 63.1691 29.2579 62.7491 27.5479 61.9991C26.7279 61.6391 25.8679 61.3991 25.0479 61.1691C24.3579 60.9891 23.7779 60.7491 23.2679 60.2491C22.8379 59.8191 22.3079 59.6291 21.6279 59.6791C21.0779 59.7291 20.5079 59.3591 19.9879 59.1191L19.4679 58.8691L19.2079 58.7491L19.0179 58.6791L18.6379 58.5291L18.4479 58.4391L18.2679 58.4091C18.0179 58.3691 17.7579 58.2791 17.4979 58.3291C17.3579 58.3391 17.2279 58.3291 17.0779 58.3491L16.6379 58.4691C16.5079 58.5091 16.3879 58.5191 16.2779 58.6291C15.4279 59.3791 14.4679 60.2991 13.1579 61.1291C11.8679 61.9691 10.1179 62.5791 8.39789 62.6091L7.67789 62.6391C7.44789 62.6291 7.21788 62.5891 6.98788 62.5691C6.53788 62.5091 6.04786 62.4891 5.61786 62.3791C4.76786 62.1491 3.86787 61.9691 3.09787 61.6491C2.55787 61.4391 2.01788 61.2191 1.57788 60.8991C1.13788 60.5791 0.717871 60.2291 0.317871 59.8691C-0.122129 59.4691 -0.102121 59.0791 0.357879 58.6491C0.667879 58.3591 1.00788 58.1191 1.35788 57.8791C1.48788 57.7891 1.72787 57.7391 1.84787 57.7991C2.52787 58.1191 3.28787 58.1791 3.81787 58.8191C4.14787 59.2291 4.53787 59.5891 5.00787 59.7691C5.48787 59.9391 5.99786 60.0591 6.52786 60.0491C6.94786 60.0091 7.36788 60.0091 7.76788 59.9991C8.16788 59.9091 8.54789 59.7991 8.89789 59.6291C9.11789 59.4591 9.41788 59.3891 9.69788 59.4291C10.0979 59.4691 10.4879 59.3691 10.8879 59.2991C11.2679 59.1491 11.6479 58.9991 12.0079 58.7691C12.7279 58.3191 13.3379 57.7091 13.9979 57.0191C14.2979 56.6691 14.7379 56.4391 15.2179 56.2791C16.1379 56.0591 17.0979 55.7491 18.0779 55.8691C18.2679 55.8891 18.4779 55.8591 18.6479 55.7891C19.4679 55.5191 20.4079 55.6391 20.9179 56.2391C20.9879 56.3191 21.1179 56.3691 21.2279 56.3691C22.4879 56.3991 23.4279 57.2191 24.4879 57.6691C25.7079 58.1991 26.9979 58.5091 28.2179 58.8591C28.6679 58.9591 29.0879 59.2091 29.5379 59.3391C30.3779 59.5991 31.2279 59.8291 32.0979 59.8791C32.7679 59.9591 33.4179 59.8091 34.0779 59.8391C34.4979 59.8091 35.0279 60.2091 35.4579 60.0791C35.8779 59.9191 36.1479 59.3991 36.4779 59.0991C36.6179 58.9491 36.8279 58.8691 37.0279 58.8091C37.3079 58.7291 37.5879 58.6391 37.8679 58.5291C38.1279 58.3991 38.3779 58.2391 38.6279 58.0791L39.3679 57.5791L40.0479 56.9891C40.4979 56.5991 40.9979 56.2591 41.5179 55.8691C42.7179 54.9891 44.1379 54.2291 45.6379 54.1491C46.9979 54.0691 48.3579 53.7591 49.7079 54.1391C50.9779 54.4991 52.2379 54.8791 53.4279 55.4291C54.0479 55.7091 54.6279 56.0691 55.2079 56.4091C55.6379 56.6791 56.0679 56.9491 56.4779 57.2391C56.9079 57.5291 57.2779 57.8291 57.7079 58.0091C58.5679 58.4091 59.5979 58.4491 60.5179 58.1791C60.8179 58.0791 61.1379 58.0291 61.4579 57.9891C61.9679 57.9491 62.5279 57.9691 63.0079 57.7491C63.4479 57.5191 63.6679 56.9591 64.0479 56.7191C65.7079 55.6991 66.5579 53.8091 66.8979 52.0391C67.0579 51.2691 67.0079 50.4691 66.8879 49.6991C66.7279 48.9291 66.5779 48.1691 66.4179 47.3791C66.3179 46.8691 65.9379 46.4291 65.6379 45.9991C65.4379 45.6791 65.1479 45.3991 65.0279 45.0691C64.8779 44.5391 64.5779 44.0791 64.2679 43.6391C63.9379 43.1791 63.5679 42.6891 63.2979 42.1391C63.0479 41.5891 62.8279 40.9291 62.9679 40.3391C63.2679 38.9991 63.3479 37.8291 63.6879 36.5591C63.7879 36.1591 63.8379 35.7091 64.0779 35.4091C65.2679 34.0391 65.9279 32.4091 66.9879 31.0991C67.7779 30.1291 68.3579 29.0491 69.3079 28.2191C69.6179 27.9391 69.7379 27.4791 69.9279 27.0991C70.2179 26.5891 70.1879 25.9691 70.7079 25.5391C70.8279 25.4491 70.8979 25.2591 70.8779 25.1091C70.8079 24.0891 70.6779 23.1191 70.3579 22.2191C70.0379 21.3191 69.5179 20.5391 68.7879 19.8191C67.5579 18.5891 66.6079 17.2991 65.3579 16.1391C64.9779 15.7791 64.3979 15.5991 64.1579 14.9691C64.0979 14.7791 63.6979 14.6791 63.4579 14.5091C63.3079 14.3991 63.1579 14.3091 62.9979 14.1991C62.8279 14.0691 62.6579 13.9391 62.4979 13.8191C62.3379 13.6891 62.1779 13.5491 62.0379 13.3991C61.8979 13.2191 61.7679 13.0291 61.6779 12.8291C61.3479 12.2091 61.0479 11.4691 60.7579 10.7791C60.5379 10.0591 60.2879 9.31907 60.2779 8.61907C60.2579 8.28907 60.2179 7.92907 60.2279 7.61907L60.3179 6.70906C60.3679 6.07906 60.5279 5.54906 60.7179 5.01906C60.8279 4.69906 60.9279 4.36906 61.0179 4.04906C61.1279 3.74906 61.2279 3.43908 61.3179 3.12908C61.5079 2.50908 61.6779 1.87907 61.9279 1.30907C62.0379 1.03907 62.1379 0.749083 62.3079 0.509083C62.6779 -0.0009166 63.3279 -0.140932 63.8979 0.149068C64.1679 0.279068 64.4079 0.459058 64.6579 0.639058C65.2879 1.08906 65.3779 1.30907 65.1379 1.92907C64.9179 2.47907 64.6979 2.92907 64.5379 3.39907Z" fill="#87B1D9"/>
</svg>
