<svg width="97" height="100" viewBox="0 0 97 100" fill="none" xmlns="http://www.w3.org/2000/svg">
<path d="M83.6031 49.0746C83.6031 35.026 71.9408 23.7054 57.769 24.2655C44.9752 24.7697 34.5452 35.1381 33.9682 47.9319C33.6265 55.5835 36.7466 62.507 41.8887 67.2795C46.2579 71.3294 48.8738 76.9253 48.8738 82.8853V88.0723H68.6695V83.2774C68.6695 77.2278 71.1622 71.4302 75.6097 67.3243C80.5223 62.7871 83.6031 56.2893 83.6031 49.0746Z" fill="#F5E3B3"/>
<path d="M81.554 41.4622C81.2235 40.4372 80.9267 39.3841 80.4505 38.4038L80.1256 37.6532L79.9632 37.2779L79.7671 36.9194C79.5095 36.4377 79.2518 35.9616 78.9941 35.4854C78.7869 35.0429 78.4788 34.6676 78.2211 34.2587C77.9467 33.861 77.6834 33.4521 77.3865 33.0712C77.0672 32.7071 76.7367 32.3486 76.4006 31.9957L75.8797 31.4748C75.7005 31.3067 75.4932 31.1667 75.2971 31.0098C74.8826 30.7018 74.4905 30.3097 74.0872 29.9624C73.7119 29.6543 73.2974 29.391 72.9109 29.1053C72.5076 28.8365 72.1323 28.5172 71.701 28.2931C71.3145 28.0803 70.8608 27.929 70.5247 27.6994L69.8917 27.2736L69.2195 26.9264C68.7714 26.6967 68.3121 26.4782 67.8527 26.2654C67.3878 26.0693 66.8949 25.9405 66.4132 25.7893L65.685 25.582L65.3209 25.4868L64.9456 25.4308C64.2006 25.1675 63.4388 24.9434 62.6602 24.8426C61.8759 24.7754 61.0917 24.7306 60.3019 24.6858C59.5065 24.7082 58.7111 24.7026 57.9157 24.7138C57.1259 24.7754 56.3361 24.893 55.5743 25.0387C55.171 25.1395 54.7116 25.2571 54.2971 25.3019C51.7764 25.6044 49.3398 26.5062 47.1328 27.7946C44.7634 29.1726 42.5844 30.8362 40.607 32.7407C40.0525 33.2224 39.5876 33.8162 39.1226 34.41C38.6297 34.9869 38.2432 35.6423 37.8399 36.2809C37.3302 37.0203 36.9829 37.8549 36.5852 38.6503C36.3723 39.0424 36.2435 39.4737 36.081 39.8938L35.6049 41.1486C34.7927 43.6132 34.451 46.1955 34.5294 48.7498C34.6807 52.1611 35.5097 55.5164 36.9605 58.558C37.6943 60.104 38.5009 61.65 39.4979 63.0728C39.9909 63.7842 40.523 64.4732 41.0944 65.123C41.3801 65.4478 41.6657 65.7783 41.9738 66.0864L42.9149 67.0499C44.2312 68.383 45.3907 69.8674 46.3542 71.4695C47.805 73.8669 48.8749 76.522 49.379 79.3003C49.6143 80.5887 49.7319 81.9219 49.7655 83.2158L49.8439 86.7839L49.8607 87.1032L67.455 86.8344L67.4438 86.7335C67.4382 86.6775 67.4382 86.7839 67.4326 86.3918L67.3766 83.6863C67.3598 83.2494 67.371 82.7509 67.371 82.2747C67.3766 81.7986 67.4158 81.3169 67.4438 80.8408C67.5447 79.8885 67.6791 78.9363 67.9144 78.0064C68.7378 74.5447 70.3846 71.2902 72.6644 68.5679C73.0621 68.0749 73.5047 67.6156 73.9416 67.1507L75.2523 65.8792C76.0702 65.0894 76.8264 64.2379 77.5097 63.3305C78.8989 61.5324 80.0024 59.5159 80.8202 57.3985C81.7333 54.9955 82.2934 52.4244 82.215 49.8589C82.1926 49.1419 82.3214 48.9066 82.5847 49.1811C83.0216 49.6516 83.5482 50.0493 83.705 51.3825C83.8114 52.2843 83.8394 53.147 83.5482 54.2281C83.128 55.7797 82.8144 57.4937 81.9293 58.8493C81.8061 59.0397 81.6997 59.3478 81.5932 59.5887C81.1787 60.7034 80.6242 61.7621 80.0136 62.7871C79.375 63.7954 78.6749 64.7701 77.8794 65.6663C77.4817 66.1144 77.0728 66.5513 76.6471 66.9658L75.37 68.1814C74.5466 68.9824 73.7679 69.8394 73.0958 70.7749C72.2051 71.9904 71.4993 73.3348 70.9112 74.7183C70.5471 75.6258 70.1942 76.5332 69.9421 77.4743C69.55 78.8354 69.2587 80.2358 69.1747 81.6474C69.1019 82.7061 69.2139 83.7535 68.9338 84.745C68.8778 84.9523 68.889 85.5236 68.9562 85.7253C69.0123 85.8989 69.0571 86.0838 69.0907 86.2742C69.1243 86.4759 69.1467 86.6159 69.1579 86.9128C69.1859 87.4449 69.1803 88.0107 69.1803 88.5596H68.861L64.7999 88.5204L61.1534 88.498C59.3553 88.498 57.5516 88.5428 55.7591 88.6044C54.6164 88.6492 53.4681 88.6941 52.3254 88.7389L50.6113 88.8117L48.0794 88.8789C48.0626 88.1115 48.0458 87.3441 48.029 86.5767C48.001 85.4116 47.9786 84.2465 47.9506 83.0758C47.9282 81.9443 47.8386 80.8464 47.6369 79.7485C47.5249 79.2443 47.3961 78.757 47.256 78.2641C47.032 77.351 46.6511 76.438 46.4102 75.581C46.1301 74.6343 45.8052 73.9173 45.1667 73.2395C44.8082 72.8586 44.4049 72.1696 44.0408 71.6263C43.587 70.9149 43.1277 70.2147 42.6516 69.5313C42.0522 68.7079 41.4809 68.0357 40.5006 67.3131C40.2373 67.1283 39.9797 66.8538 39.7276 66.5681C39.4699 66.2769 39.2235 65.9688 39.0274 65.6663C37.2013 63.1008 35.6441 60.3505 34.535 57.3873C33.0674 53.3654 32.5129 48.9514 33.1907 44.6495C33.3363 43.8093 33.4483 42.9578 33.7116 42.14L34.0589 40.9021C34.1653 40.4876 34.3558 40.1011 34.4958 39.6978C36.3275 34.6732 39.9573 30.4161 44.3657 27.5033C45.2619 26.9768 46.1469 26.3942 47.0544 25.9237L47.833 25.4924C48.0907 25.3467 48.3539 25.2123 48.634 25.1059C49.1829 24.8762 49.7319 24.6578 50.2864 24.4449C50.841 24.2432 51.4235 24.1144 51.9949 23.952L52.8575 23.7279L53.737 23.5935C56.5489 23.1229 59.3945 22.9269 62.2288 23.2238C62.5593 23.2462 62.8954 23.2742 63.2259 23.2966C63.5508 23.3526 63.8813 23.4142 64.2006 23.4982L65.8698 23.9128L67.4943 24.4617L68.2785 24.7306L69.0627 25.0723L70.6367 25.7556L72.1379 26.5847L72.8885 27.0048L73.5943 27.4921L75.0003 28.4836C75.4372 28.8533 75.8629 29.2342 76.2942 29.6151C79.0277 32.1245 81.1339 35.2558 82.5119 38.6447C83.5482 41.283 84.1195 44.0613 84.282 46.8453C84.2876 47.0301 84.3156 47.2206 84.3156 47.3998C84.3268 48.9963 84.0187 49.4724 83.4753 48.7498C83.2345 48.4305 83.0384 48.0328 82.8928 47.5399C82.82 47.2934 82.7583 47.0301 82.7191 46.7388C82.6799 46.4476 82.5903 46.1451 82.5511 45.809L82.3886 44.7055L82.3102 44.151C82.2766 43.9717 82.2262 43.7925 82.1814 43.6076C81.9909 42.8906 81.8621 42.1512 81.6268 41.4454L81.554 41.4622Z" fill="black"/>
<path d="M59.6626 98.6031H57.887C52.9128 98.6031 48.8798 94.57 48.8798 89.5959V88.0723H68.6699V89.5959C68.6699 94.57 64.6368 98.6031 59.6626 98.6031Z" fill="black"/>
<path d="M57.3179 99.3817C56.9706 99.3201 56.6345 99.2192 56.304 99.1128C55.9679 99.0232 55.6542 98.8663 55.3517 98.7095C55.0773 98.5807 54.8364 98.3958 54.5731 98.267C54.3099 98.1438 54.0522 98.0149 53.7441 97.9589C53.5873 97.9253 53.4472 97.8301 53.3128 97.7404C53.0607 97.5892 52.8031 97.4436 52.5566 97.2867C52.4446 97.2139 52.2765 97.2027 52.1925 97.1019C51.9852 96.861 51.7948 96.6202 51.5763 96.4073C51.3523 96.2056 51.1282 96.004 50.8593 95.8303C50.7753 95.5839 50.6409 95.399 50.484 95.2142C50.3328 95.0349 50.1255 94.8893 49.9799 94.6932C49.8287 94.5028 49.6942 94.3011 49.5542 94.0995C49.431 93.8866 49.3021 93.685 49.1173 93.4945C49.0164 93.3993 48.9492 93.2649 48.9324 93.1304C48.8764 92.7271 48.7644 92.3518 48.6803 91.9653C48.5683 91.5844 48.4843 91.2035 48.4059 90.8114C48.3163 90.3857 48.3219 89.9768 48.3331 89.5231C48.3667 88.9853 48.4283 88.47 48.5291 88.0611C48.5515 87.9715 48.5683 87.8819 48.5795 87.7866C49.0388 87.837 49.4366 87.837 49.8455 87.8314L50.2936 87.8202L50.6857 87.7978C50.9434 87.781 51.2066 87.7586 51.4643 87.753C52.2205 87.7306 52.9655 87.669 53.7161 87.5178C54.7188 87.3161 55.727 87.1537 56.7353 87.0416C57.2506 86.9856 57.7716 87.0528 58.2925 87.0864C59.3288 87.1537 60.3651 87.2601 61.4014 87.3049C62.18 87.3385 62.9642 87.3161 63.7428 87.2825C64.471 87.2545 65.1992 87.1649 65.9274 87.1256L67.3109 87.0584L69.7364 86.9912L69.7812 88.5764L69.8036 89.3886L69.8092 89.5959V89.7303V89.9936C69.8092 90.3465 69.8092 90.6994 69.7588 91.0523C69.7252 91.4052 69.686 91.7581 69.5963 92.1054C69.4899 92.6879 69.3331 93.2649 69.1258 93.825C69.0082 94.0995 68.8906 94.374 68.7393 94.6316C68.1792 95.5951 67.4454 96.4353 66.6332 97.1747C65.4624 98.2222 64.0789 99.0568 62.5497 99.4713C62.1127 99.5777 61.6814 99.6898 61.2445 99.7514C60.8076 99.841 60.3707 99.8914 59.9226 99.9866C59.6705 100.043 59.5921 99.9194 59.6817 99.6449C59.8329 99.1744 59.945 98.6815 60.2923 98.3846C60.5275 98.1942 60.7236 98.0037 61.0317 98.0317C61.2557 98.0541 61.4686 97.9869 61.6814 97.9141C61.8943 97.8469 62.1127 97.8245 62.3592 97.8805C62.432 97.8973 62.5105 97.8525 62.5721 97.8133C63.67 97.0795 64.8183 96.5585 65.7705 95.6567C66.0618 95.3542 66.3195 95.0125 66.5435 94.6596C66.706 94.4412 66.846 94.2059 66.9916 93.9763C67.2213 93.6514 67.4062 93.2985 67.563 92.94C67.647 92.6487 67.6638 92.3574 68.0167 92.1838C68.0839 92.1446 68.112 91.9821 68.0615 91.9149C67.8599 91.6404 67.9719 91.422 68.0111 91.1755C68.0615 90.8506 68.1568 90.5257 68.168 90.1953L68.2072 89.6967C68.2184 89.5287 68.2184 89.4335 68.2184 89.299C68.2184 89.0358 68.196 88.7837 68.1624 88.5708L67.8375 88.6212C67.6974 88.6436 67.5686 88.6717 67.451 88.6997L67.2829 88.7445C67.2213 88.7613 67.0925 88.7725 67.0029 88.7893C66.6051 88.8509 66.2018 88.9069 65.8041 88.9517C65.132 89.0245 64.4598 89.0414 63.7932 89.0862C63.6364 89.0974 63.4851 89.1534 63.3283 89.159C63.0426 89.1702 62.7457 89.2318 62.4768 89.1422C62.18 89.0414 61.9503 89.0245 61.6702 89.2486C61.519 89.3774 61.2725 89.3606 61.0709 89.3382C60.8132 89.3102 60.5611 89.2206 60.3091 89.1366C60.0066 89.0358 59.7265 88.9237 59.4016 89.0974C59.228 89.187 58.9871 89.1366 58.7911 89.075C57.9228 88.8005 57.0434 88.8285 56.164 88.9013L52.5902 89.2598C52.1253 89.3046 51.6547 89.3102 51.1842 89.327L50.2264 89.3494C50.1928 89.3494 50.1535 89.3438 50.1031 89.3326L50.0639 89.5063L50.0415 89.6183V90.0608C50.0415 90.1841 50.0359 90.3129 50.0415 90.4361C50.0583 90.5594 50.0863 90.6826 50.1311 90.8002C50.1816 90.9347 50.2152 91.0747 50.2544 91.2091C50.3048 91.3436 50.344 91.478 50.3776 91.6124C50.4392 91.8869 50.5064 92.1558 50.5681 92.4358C50.6241 92.7775 50.8089 93.0744 50.9658 93.3713C51.173 93.6458 51.3635 93.9258 51.6155 94.1555C51.7276 94.2675 51.862 94.3572 51.9404 94.4916C52.5342 95.4102 53.5368 95.9144 54.4387 96.4185C55.1781 96.8442 55.9623 97.2363 56.8305 97.4492C57.161 97.5556 57.5027 97.5892 57.85 97.6732L59.0151 97.8357C59.0655 97.8413 59.1215 97.8189 59.172 97.8301C59.6145 97.9029 59.7545 98.2334 59.5473 98.7375C59.3624 99.1856 59.0711 99.4433 58.6678 99.4377C58.2309 99.4265 57.794 99.3929 57.3011 99.3369L57.3179 99.3817Z" fill="black"/>
<path d="M54.9866 71.2962C54.9418 70.0022 54.8466 68.6971 54.8242 67.4088C54.7962 66.2605 54.7682 65.1233 54.4097 64.0031C54.32 63.7118 54.2976 63.3869 54.236 63.0788C54.1296 62.5187 54.0232 61.9529 53.8943 61.3984C53.8383 61.1463 53.6815 60.8998 53.6647 60.6534C53.5638 59.4602 53.3286 58.2951 52.8412 57.2028C52.7964 56.2562 52.3651 55.4272 51.973 54.5926C51.5865 53.7635 51.228 52.8841 50.6231 52.2399C50.4606 52.0719 50.3038 51.8758 50.1861 51.691C50.0069 51.4109 49.7884 51.1644 49.5532 51.002C49.4243 50.9124 49.3291 50.8732 49.2115 50.8452C49.0938 50.8116 48.9706 50.8172 48.853 50.8452C48.4049 50.9572 48.052 51.5846 47.8839 52.2231C47.5366 53.6291 47.6991 55.2031 48.0016 56.7491C48.0688 57.1748 48.22 57.5445 48.4273 57.9198C48.6569 58.2727 48.9146 58.6144 49.2339 58.8945C49.598 59.2418 50.0237 59.5275 50.4774 59.7515C50.9255 59.9868 51.4017 60.1604 51.889 60.2893C52.5948 60.4853 53.3286 60.5637 54.04 60.5077C54.7514 60.4573 55.4347 60.222 56.0509 59.9028C57.6865 58.9953 58.9245 57.4381 59.5406 55.7857C59.6695 55.3656 59.8319 54.9454 59.8879 54.5421C59.9159 54.4413 59.9271 54.3405 59.9271 54.2453C59.9327 54.15 59.9551 54.0436 59.9439 53.9596L59.9327 53.6907L59.9103 53.5059C59.8879 53.3546 59.8543 53.1698 59.7143 53.0465C59.5742 52.9289 59.3446 52.9401 59.2157 53.0802C59.1485 53.1474 59.0981 53.2258 59.0533 53.321C59.0309 53.3658 59.0141 53.4162 58.9973 53.4667C58.9805 53.5171 58.9693 53.5507 58.9413 53.6851C58.8629 54.122 58.818 54.643 58.8685 55.0183C59.0141 56.2674 60.0728 57.4213 61.3107 57.8414C62.4702 58.2447 63.7586 57.9702 64.9013 57.3709C65.7583 56.934 66.5649 56.3066 67.2371 55.6064C67.8589 54.9455 68.4246 54.0436 68.8111 53.1698C68.9007 52.9737 69.0296 52.6432 69.0128 52.66C69.024 52.6096 69.0352 52.5592 69.0352 52.5144C69.0408 52.4248 69.0352 52.3352 68.9623 52.2903C68.8783 52.2511 68.7887 52.3352 68.7383 52.38C68.7103 52.408 68.6879 52.436 68.6711 52.464L68.6375 52.5088L68.391 52.7777C68.0773 53.1306 67.786 53.5171 67.5284 53.9036C67.2763 54.2901 67.0858 54.6598 66.8954 55.0855C66.8002 55.2927 66.7049 55.5056 66.6265 55.7241C66.5369 55.9369 66.4473 56.161 66.3745 56.3906C65.7639 58.0599 65.4334 59.9084 65.2486 61.7737C64.9965 64.4512 65.0805 67.1903 65.2654 69.9182C65.3718 71.4698 65.5118 73.0214 65.8647 74.5394C65.9599 74.9652 65.8535 75.122 65.5678 74.9988C65.0693 74.7859 64.5596 74.6235 64.1899 73.9065C63.9378 73.4191 63.725 72.9598 63.7362 72.3101C63.7362 71.3802 63.4281 70.4168 63.6521 69.4813C63.6801 69.3525 63.6577 69.162 63.6241 69.0108C63.1312 66.2997 63.2992 63.5101 63.6297 60.7654C63.6857 60.3173 63.7474 59.8692 63.7922 59.4154C63.8594 58.9673 63.9154 58.5136 64.005 58.0655L64.1955 57.1972L64.4419 56.3402C64.7108 55.5168 65.0581 54.7214 65.4502 53.9372C65.7415 53.3434 66.0608 52.7497 66.6433 52.4696C66.761 52.408 66.9738 52.1447 67.0018 52.0103C67.0578 51.7526 67.1867 51.5285 67.3547 51.3269C67.5452 51.1028 67.8364 50.8452 68.0997 50.6379C68.4694 50.3578 68.8503 50.1226 69.2312 49.9993C69.3264 49.9713 69.4217 49.9545 69.5169 49.9321C69.6121 49.9209 69.7129 49.9153 69.8082 49.9153C69.9986 49.9489 70.2227 49.9657 70.3739 50.1282C70.71 50.3914 70.822 50.8059 70.85 51.2093C70.8725 51.6182 70.8108 52.0551 70.6988 52.4976C70.6596 52.66 70.598 52.8225 70.5476 52.9849C70.4972 53.1474 70.4243 53.3098 70.3851 53.4274C70.2843 53.6851 70.1723 53.9372 70.0546 54.178C69.8194 54.671 69.5561 55.1527 69.2536 55.612C69.0296 55.9649 68.7775 56.329 68.4862 56.6651C68.2005 56.9956 67.9037 57.3037 67.5844 57.6006C66.9458 58.1831 66.2344 58.7096 65.4278 59.113C64.0891 59.7963 62.375 60.0596 60.773 59.5499C60.4145 59.4266 60.0392 59.3202 59.7087 59.1242C59.0981 58.7769 58.4875 58.3175 58.1403 57.735C57.7594 57.0852 57.5241 56.5979 57.0928 55.9817C56.9751 55.8025 56.8799 55.5504 56.8351 55.2647C56.7847 54.9959 56.7791 54.6374 56.7959 54.4301C56.8127 54.1276 56.8631 53.8308 56.9415 53.5283C56.9807 53.3658 57.0144 53.2706 57.0872 53.0185C57.1656 52.8001 57.2328 52.5872 57.3336 52.3968C57.5577 51.9262 57.8378 51.5678 58.1627 51.2765C58.4876 50.9908 58.8797 50.7499 59.367 50.6323C59.6303 50.5483 59.9607 50.5819 60.2688 50.6939C60.5769 50.8116 60.8402 51.0412 61.025 51.2821C61.4395 51.8142 61.6356 52.576 61.7252 53.2426C61.7812 53.7859 61.7756 54.3461 61.6748 54.8446C61.4956 55.8585 61.1203 56.7771 60.6441 57.6286C59.9944 58.7881 59.0869 59.7963 57.9946 60.6086C56.8967 61.4096 55.5244 61.9585 54.0904 62.0649C52.9701 62.1434 51.8666 61.9529 50.8247 61.572C49.2227 60.9895 47.6823 59.8748 46.8476 58.1607C46.758 57.9478 46.6628 57.7182 46.5844 57.5109L46.4107 56.9284C46.2931 56.5419 46.2091 56.1386 46.1307 55.7409C45.9794 54.9342 45.9234 54.0884 45.9906 53.2314C46.0522 52.5536 46.1979 51.859 46.4443 51.1588C46.5844 50.7499 46.8084 50.3354 47.1445 49.9489C47.5142 49.5344 48.108 49.1535 48.7129 49.0919C49.0154 49.0359 49.3291 49.0639 49.6316 49.1423C49.7772 49.1703 49.9341 49.2263 50.0853 49.2935C50.2197 49.344 50.3262 49.4112 50.4382 49.4784C50.8751 49.7473 51.1944 50.0722 51.4521 50.3914C52.0626 51.17 52.4715 51.9319 52.8637 52.6881C53.2502 53.4443 53.5862 54.2005 53.8999 54.9623C54.0512 55.3151 54.2136 55.668 54.3088 56.0321C54.9362 58.5752 55.6812 61.0343 56.0845 63.5661C56.4038 65.6107 56.5718 67.672 56.7231 69.7222C56.8407 71.3074 56.9023 72.887 56.9639 74.4666C56.9695 74.573 57.0032 74.6739 57.0032 74.7803C57.0256 75.6822 56.7231 75.9958 56.1741 75.6261C55.6924 75.2956 55.3731 74.7355 55.2947 73.9345L55.065 71.2738L54.9866 71.2962Z" fill="black"/>
<path d="M91.0978 24.1595C90.9466 24.1483 90.8177 24.1651 90.6329 24.1203C90.4704 24.0811 90.3024 24.0363 90.3416 24.2155C90.3528 24.2603 90.308 24.2547 90.2912 24.2715C90.2576 24.3051 90.224 24.3331 90.2016 24.3779C90.1904 24.3947 90.2408 24.4788 90.2016 24.4732C90.0223 24.4284 89.9271 24.462 89.9719 24.6524C89.7703 24.5516 89.8263 24.714 89.8151 24.8093C89.8039 24.9101 89.7198 24.9269 89.7815 25.1005C89.7983 25.1454 89.7927 25.1734 89.759 25.1678C89.5462 25.1229 89.507 25.2518 89.451 25.3694C89.3894 25.4982 89.2549 25.5431 89.0253 25.4926C88.902 25.4646 88.8516 25.5151 88.8012 25.5655C88.7396 25.6271 88.7228 25.7279 88.6724 25.8007C88.5995 25.9016 88.5547 26.0304 88.5715 26.2264C88.5939 26.4841 88.5827 26.7138 88.5435 26.9098C88.5211 27.0107 88.4147 27.0219 88.3307 27.0555C88.1626 27.1227 87.9666 27.1619 87.8153 27.2459C87.7033 27.3075 87.6249 27.414 87.5521 27.5204C87.4848 27.6212 87.4624 27.7725 87.4008 27.8789C87.2216 28.1982 87.0311 28.5119 86.8519 28.8256C86.8071 28.904 86.7903 28.9992 86.751 29.0832C86.7342 29.1224 86.7006 29.156 86.667 29.1784C86.5382 29.2681 86.3926 29.3465 86.2693 29.4417C86.0957 29.5818 85.9444 29.7498 85.7652 29.8898C85.6644 29.9683 85.5467 30.0299 85.5635 30.2259C85.5691 30.2819 85.4739 30.1979 85.2947 29.9963C84.9922 29.6434 84.6673 29.2793 84.5217 29.0384C84.4208 28.876 84.348 28.7415 84.432 28.7583C84.5553 28.7807 84.46 28.5679 84.7065 28.7247C84.7401 28.7471 84.7457 28.7247 84.7401 28.7079C84.6785 28.327 84.953 28.299 85.1378 28.1758C85.1994 28.1366 85.2162 28.0469 85.2554 27.9909C85.2835 27.9517 85.3171 27.9181 85.3507 27.8901C85.4067 27.8509 85.4851 27.8341 85.5187 27.7725C85.5411 27.7277 85.5187 27.6268 85.7428 27.7949C85.7876 27.8285 85.7988 27.8005 85.7596 27.7445C85.6083 27.5372 85.6588 27.526 85.6924 27.5036C85.7876 27.442 85.8996 27.3916 85.978 27.3131C86.0397 27.2515 86.0677 27.1675 86.0901 27.0611C86.1181 26.9042 86.1125 26.7082 86.1461 26.5513C86.1741 26.4225 86.2413 26.3385 86.2917 26.2264C86.3029 26.1984 86.2805 26.1424 86.2973 26.12C86.3253 26.0808 86.3141 26.0024 86.4094 26.036C86.5102 26.0752 86.555 26.064 86.4318 25.8679C86.3645 25.7615 86.3982 25.7391 86.4374 25.7335C86.4878 25.7223 86.5774 25.7615 86.667 25.7951C86.7735 25.8343 86.8799 25.8848 86.8015 25.7223C86.7566 25.6383 86.8239 25.6495 86.8911 25.6719C87.1824 25.7727 87.2664 25.6551 87.3168 25.5038C87.384 25.2966 87.4288 25.0557 87.4904 24.8429C87.5129 24.7588 87.5633 24.7028 87.6081 24.6356C87.7425 24.434 87.961 24.3163 88.185 24.2099C88.2298 24.1875 88.2803 24.1707 88.2803 24.1035C88.2747 23.9466 88.3755 23.8962 88.5043 23.8794C88.6612 23.8626 88.6892 23.7058 88.7116 23.5433C88.7172 23.5041 88.7004 23.4481 88.734 23.4369C88.9692 23.3921 88.958 23.084 89.1373 22.9832C89.2829 22.8991 89.4958 22.8823 89.6918 22.8487C89.8431 22.8263 90.0167 22.8263 90.1792 22.8095C90.1904 22.8095 90.1792 22.7871 90.1904 22.7871C90.2912 22.7927 90.5377 23.0168 90.8625 23.4033C91.1482 23.7506 91.2939 23.969 91.2435 24.0082C91.1874 24.0531 91.1034 24.0699 91.0362 24.1035C91.0698 24.1259 91.081 24.1427 91.0978 24.1595Z" fill="black"/>
<path d="M91.2568 30.2595C91.3408 30.3492 91.408 30.4052 91.5089 30.534C91.5985 30.6516 91.6825 30.7749 91.6657 30.6124C91.6601 30.5732 91.6825 30.6012 91.6937 30.5956C91.7105 30.5844 91.7329 30.5788 91.7441 30.562C91.7497 30.5508 91.7273 30.4612 91.7441 30.4892C91.8394 30.618 91.8954 30.646 91.873 30.4724C91.9794 30.6628 91.957 30.506 91.9626 30.4332C91.9682 30.3604 92.0186 30.3884 91.9906 30.2259C91.985 30.1811 91.985 30.1643 92.0074 30.1867C92.1194 30.3379 92.1474 30.2539 92.181 30.1923C92.2147 30.1251 92.2931 30.1587 92.4163 30.3267C92.4835 30.4164 92.5115 30.3996 92.5395 30.3884C92.5731 30.3716 92.5843 30.3043 92.618 30.2763C92.6572 30.2315 92.6908 30.1587 92.6852 29.9963C92.6796 29.7834 92.6908 29.6042 92.7188 29.4753C92.73 29.4081 92.7916 29.4585 92.8364 29.4753C92.9316 29.5089 93.0381 29.5874 93.1221 29.5986C93.1837 29.6098 93.2285 29.5706 93.2733 29.5201C93.3125 29.4753 93.3293 29.3689 93.363 29.3185C93.4694 29.1616 93.5814 29.0216 93.6878 28.8648C93.7158 28.8256 93.727 28.7583 93.7495 28.7191C93.7607 28.6967 93.7775 28.6911 93.7999 28.6911C93.8727 28.6911 93.9511 28.7079 94.0239 28.6911C94.1247 28.6743 94.2088 28.6239 94.3096 28.6071C94.3656 28.5959 94.4328 28.6127 94.4272 28.4503C94.4272 28.4055 94.4776 28.5231 94.5673 28.7751C94.7241 29.2121 94.8865 29.6714 94.9594 29.9402C95.0098 30.1251 95.0434 30.2651 94.9986 30.2091C94.9314 30.1251 94.9762 30.3435 94.8473 30.0915C94.8305 30.0579 94.8249 30.0691 94.8305 30.0915C94.8529 30.422 94.7017 30.2987 94.6009 30.2987C94.5673 30.2987 94.5561 30.3547 94.5337 30.3828C94.5168 30.3996 94.5 30.4052 94.4776 30.4108C94.444 30.4108 94.4048 30.3828 94.3824 30.4108C94.3656 30.4332 94.3768 30.5228 94.2592 30.2763C94.2368 30.2259 94.2312 30.2427 94.248 30.3043C94.3208 30.5508 94.2984 30.5284 94.276 30.5284C94.22 30.5284 94.1584 30.506 94.1135 30.5284C94.0799 30.5452 94.0575 30.5956 94.0463 30.6628C94.0239 30.7749 94.0239 30.9317 94.0015 31.0325C93.9847 31.1165 93.9455 31.1502 93.9175 31.2118C93.9119 31.2286 93.9175 31.279 93.9119 31.2902C93.8951 31.307 93.9007 31.3742 93.8503 31.2958C93.7943 31.2118 93.7719 31.195 93.8335 31.4134C93.8671 31.5367 93.8447 31.5311 93.8279 31.5142C93.7999 31.4918 93.7551 31.419 93.7046 31.3462C93.6486 31.2566 93.5926 31.1614 93.6318 31.3294C93.6542 31.419 93.615 31.3742 93.5814 31.3238C93.4246 31.0885 93.3742 31.1333 93.3461 31.2286C93.3013 31.3574 93.2733 31.5198 93.2341 31.6543C93.2173 31.7047 93.1893 31.7271 93.1669 31.7551C93.0885 31.8447 92.9652 31.8167 92.842 31.7831C92.8196 31.7775 92.7916 31.7607 92.786 31.8167C92.786 31.94 92.73 31.9288 92.6572 31.8727C92.5732 31.8055 92.5507 31.9119 92.5339 32.024C92.5283 32.052 92.5395 32.108 92.5171 32.0912C92.3883 32.0016 92.3827 32.248 92.2819 32.2312C92.1978 32.22 92.0858 32.1192 91.9794 32.0408C91.8954 31.9792 91.8001 31.8895 91.7161 31.8111C91.7105 31.8055 91.7161 31.8279 91.7105 31.8223C91.6545 31.7663 91.5313 31.4582 91.3632 30.9821C91.2176 30.5564 91.1448 30.3099 91.1728 30.3043C91.2064 30.3043 91.2512 30.3267 91.2904 30.3435C91.2736 30.3043 91.268 30.2819 91.2568 30.2595Z" fill="black"/>
<path d="M95.6188 39.306C95.518 39.1828 95.4116 39.0988 95.3164 38.9307C95.2323 38.7795 95.1483 38.6282 95.0363 38.7795C95.0083 38.8187 94.9803 38.7795 94.9579 38.7795C94.9074 38.7795 94.8626 38.7683 94.8122 38.7795C94.7898 38.7851 94.7562 38.8747 94.7394 38.8411C94.6498 38.6787 94.5546 38.6282 94.4369 38.7851C94.3753 38.5666 94.2857 38.7123 94.2017 38.7739C94.1176 38.8355 94.0392 38.7795 93.9496 38.9363C93.9272 38.9755 93.8992 38.9923 93.8824 38.9587C93.7703 38.7683 93.6359 38.8243 93.5015 38.8579C93.3614 38.8971 93.227 38.8243 93.1038 38.617C93.0421 38.505 92.9637 38.505 92.8853 38.4994C92.7957 38.4938 92.7005 38.5442 92.6108 38.5554C92.4764 38.5666 92.3476 38.617 92.2019 38.7571C92.0115 38.9419 91.8266 39.0875 91.6418 39.1884C91.5465 39.2388 91.4625 39.166 91.3785 39.1212C91.2049 39.0371 91.0368 38.9195 90.8632 38.8579C90.7343 38.8131 90.5943 38.8243 90.4599 38.8411C90.331 38.8579 90.2022 38.9363 90.0734 38.9643C89.6925 39.0427 89.3171 39.1044 88.9362 39.1772C88.8466 39.194 88.7514 39.2444 88.6618 39.2724C88.617 39.2836 88.5721 39.2836 88.5273 39.2724C88.3649 39.2332 88.2024 39.1772 88.04 39.1492C87.8047 39.11 87.5695 39.1044 87.3342 39.0651C87.1998 39.0427 87.0709 38.9979 86.9253 39.1324C86.8861 39.1716 86.8805 39.0483 86.9197 38.7795C86.9813 38.3146 87.0429 37.8329 87.1326 37.564C87.1942 37.3791 87.2446 37.2391 87.295 37.3119C87.3678 37.4184 87.4686 37.2111 87.5191 37.4968C87.5247 37.536 87.5415 37.5248 87.5583 37.508C87.8159 37.2111 88.0344 37.4016 88.2641 37.4576C88.3369 37.4744 88.4209 37.4296 88.4937 37.424C88.5441 37.4184 88.5945 37.424 88.6394 37.4296C88.7122 37.4464 88.7794 37.4968 88.8522 37.48C88.9082 37.4688 88.9699 37.3847 88.9923 37.6648C88.9979 37.7208 89.0259 37.7096 89.0427 37.648C89.1043 37.3959 89.1435 37.4296 89.1883 37.4408C89.3059 37.4688 89.4236 37.5248 89.5412 37.5304C89.6308 37.536 89.7205 37.5024 89.8157 37.4464C89.9613 37.3623 90.1126 37.2279 90.2582 37.1551C90.3814 37.0935 90.4991 37.0879 90.6167 37.0487C90.6447 37.0375 90.6727 36.9871 90.7007 36.9815C90.7511 36.9759 90.8071 36.9142 90.8464 37.0095C90.8912 37.1103 90.9248 37.1383 90.992 36.9142C91.0312 36.791 91.0704 36.8078 91.104 36.8302C91.1432 36.8638 91.1824 36.9534 91.2161 37.0431C91.2609 37.1495 91.3001 37.2615 91.3673 37.0991C91.4065 37.0095 91.4401 37.0711 91.4681 37.1327C91.597 37.4184 91.7482 37.4071 91.905 37.3455C92.1179 37.2615 92.3364 37.1327 92.5492 37.0375C92.6332 36.9983 92.7117 36.9983 92.7957 36.987C93.0534 36.9534 93.2942 37.0431 93.5407 37.1383C93.5911 37.1551 93.6359 37.1831 93.6863 37.1383C93.8096 37.0319 93.916 37.0711 94.0224 37.1607C94.1512 37.2671 94.2913 37.1831 94.4313 37.0935C94.4649 37.0711 94.4985 37.0207 94.5321 37.0431C94.7338 37.1943 94.9691 36.9814 95.1819 37.0487C95.35 37.1047 95.5124 37.2503 95.6749 37.3791C95.8037 37.4744 95.9269 37.6088 96.0502 37.7208C96.0558 37.7264 96.067 37.7096 96.0782 37.7152C96.1454 37.7936 96.1454 38.1241 96.067 38.6282C95.9997 39.0707 95.9269 39.3284 95.8597 39.3116C95.7869 39.2948 95.7141 39.25 95.6412 39.2164C95.6188 39.2612 95.6188 39.2836 95.6188 39.306Z" fill="black"/>
<path d="M30.9098 68.2544C30.7698 68.232 30.6521 68.232 30.4785 68.176C30.3272 68.1256 30.1704 68.0695 30.2208 68.2376C30.232 68.2824 30.1928 68.2712 30.176 68.2824C30.148 68.3104 30.12 68.3328 30.0976 68.372C30.0864 68.3888 30.1368 68.4728 30.1032 68.456C29.9407 68.3944 29.8511 68.4168 29.9071 68.5961C29.7167 68.4784 29.7727 68.6353 29.7727 68.7305C29.7727 68.8201 29.6943 68.8313 29.7559 68.9938C29.7727 69.0386 29.7671 69.061 29.7391 69.0498C29.543 68.9882 29.5094 69.1002 29.4646 69.2066C29.4142 69.3187 29.2966 69.3467 29.0837 69.2739C28.9717 69.2347 28.9269 69.2795 28.8821 69.3187C28.8316 69.3691 28.8204 69.4587 28.7756 69.5203C28.714 69.61 28.6804 69.722 28.7084 69.9012C28.742 70.1421 28.7476 70.355 28.7252 70.5342C28.714 70.6238 28.6132 70.6238 28.5404 70.6462C28.3891 70.691 28.2155 70.7078 28.081 70.7751C27.9802 70.8255 27.913 70.9095 27.857 71.0047C27.801 71.0943 27.7898 71.2288 27.7393 71.324C27.5937 71.6041 27.4369 71.873 27.2912 72.1474C27.2576 72.2146 27.2408 72.3043 27.2128 72.3771C27.196 72.4107 27.1736 72.4387 27.14 72.4555C27.0279 72.5283 26.8991 72.5843 26.7927 72.6628C26.6414 72.7748 26.5126 72.9148 26.3614 73.0269C26.2773 73.0885 26.1709 73.1389 26.1933 73.3181C26.1989 73.3686 26.1093 73.2845 25.9356 73.0773C25.6388 72.7188 25.3195 72.3491 25.1738 72.1082C25.073 71.9458 25.0002 71.8169 25.0786 71.8393C25.1906 71.873 25.0954 71.6657 25.3307 71.8337C25.3643 71.8561 25.3643 71.8393 25.3587 71.8169C25.2803 71.4584 25.5323 71.4584 25.6948 71.3632C25.7452 71.3296 25.7564 71.2512 25.7956 71.2008C25.818 71.1672 25.846 71.1392 25.8796 71.1168C25.93 71.0831 26.0029 71.0831 26.0253 71.0271C26.0477 70.9879 26.0141 70.8927 26.2325 71.0719C26.2773 71.1111 26.2829 71.0831 26.2437 71.0271C26.0925 70.8199 26.1373 70.8143 26.1709 70.7975C26.2549 70.7471 26.3558 70.7134 26.423 70.6462C26.4734 70.5958 26.5014 70.5174 26.507 70.4278C26.5238 70.2821 26.507 70.1029 26.5294 69.9628C26.5462 69.8452 26.6078 69.7724 26.6414 69.6772C26.647 69.6548 26.6302 69.5988 26.6414 69.5819C26.6638 69.5483 26.6526 69.4755 26.7367 69.5147C26.8319 69.5595 26.8711 69.5539 26.7479 69.3635C26.6807 69.2571 26.7143 69.2403 26.7479 69.2403C26.7927 69.2347 26.8767 69.2795 26.9607 69.3187C27.0616 69.3691 27.1624 69.4195 27.0784 69.2627C27.0335 69.1786 27.0952 69.1954 27.1568 69.2234C27.4257 69.3467 27.5041 69.2458 27.5377 69.1114C27.5881 68.9266 27.6105 68.7081 27.6609 68.5177C27.6777 68.4448 27.7225 68.3944 27.7561 68.3384C27.8682 68.1648 28.0586 68.0807 28.2603 68.0023C28.2995 67.9855 28.3443 67.9799 28.3387 67.9127C28.3275 67.7671 28.4115 67.7278 28.5292 67.7278C28.6748 67.7278 28.686 67.5822 28.6972 67.4366C28.6972 67.403 28.6804 67.3469 28.714 67.3413C28.9269 67.3245 28.8989 67.0389 29.0613 66.9604C29.1901 66.8988 29.3806 66.9044 29.5598 66.8932C29.6999 66.8876 29.8567 66.9044 30.0024 66.9044C30.0136 66.9044 30.0024 66.882 30.0136 66.8876C30.1088 66.8988 30.3441 67.1341 30.6633 67.5262C30.9434 67.8735 31.0891 68.0919 31.0442 68.1256C30.9938 68.1592 30.921 68.1704 30.8594 68.1928C30.8818 68.2208 30.8986 68.2376 30.9098 68.2544Z" fill="black"/>
<path d="M18.1508 59.7736C18.2909 59.8632 18.4253 59.9137 18.5765 60.0481C18.711 60.1657 18.8398 60.289 18.9182 60.1153C18.9406 60.0705 18.9742 60.0985 19.0022 60.0929C19.0527 60.0817 19.1087 60.0705 19.1591 60.0481C19.1815 60.0369 19.1871 59.9417 19.2151 59.9641C19.3551 60.0985 19.4728 60.1153 19.5512 59.9305C19.68 60.1265 19.7304 59.9529 19.8089 59.8744C19.8817 59.7904 19.9769 59.8184 20.0329 59.6448C20.0497 59.6 20.0721 59.5776 20.1001 59.6C20.2738 59.7512 20.4026 59.656 20.5315 59.5832C20.6715 59.5047 20.8339 59.5327 21.0188 59.7008C21.1196 59.7904 21.198 59.768 21.2821 59.7512C21.3773 59.7288 21.4613 59.6504 21.5565 59.6168C21.691 59.5664 21.8198 59.4767 21.9318 59.3031C22.0775 59.0678 22.2399 58.8774 22.4023 58.7261C22.4864 58.6477 22.5984 58.6981 22.6992 58.7093C22.9065 58.7373 23.1193 58.8045 23.321 58.8101C23.4722 58.8157 23.6123 58.7653 23.7523 58.7037C23.8811 58.6477 23.9988 58.5357 24.1276 58.474C24.5085 58.2892 24.895 58.1211 25.2759 57.9363C25.3655 57.8915 25.4552 57.8186 25.5448 57.7682C25.5896 57.7402 25.64 57.7346 25.6904 57.729C25.8753 57.7178 26.0601 57.729 26.245 57.7066C26.5026 57.673 26.7603 57.6114 27.018 57.5778C27.1636 57.561 27.3205 57.5666 27.4325 57.3929C27.4661 57.3425 27.4997 57.4657 27.5389 57.729C27.6005 58.194 27.6733 58.6701 27.6565 58.9614C27.6453 59.1574 27.6285 59.3087 27.5557 59.2471C27.4493 59.163 27.4045 59.3983 27.2644 59.135C27.2476 59.0958 27.2308 59.1126 27.2196 59.135C27.0292 59.4935 26.7435 59.3759 26.4858 59.3927C26.4018 59.3983 26.329 59.4599 26.2506 59.4935C26.2002 59.5103 26.1441 59.5271 26.0937 59.5271C26.0153 59.5327 25.9257 59.5047 25.8529 59.5383C25.7969 59.5664 25.7576 59.6672 25.6512 59.4039C25.6288 59.3479 25.6008 59.3703 25.6008 59.4375C25.6064 59.6952 25.556 59.6784 25.5056 59.6784C25.3711 59.684 25.2311 59.6672 25.1023 59.6952C25.007 59.7176 24.9174 59.7736 24.8334 59.852C24.7046 59.9753 24.5813 60.1489 24.4469 60.261C24.3349 60.3562 24.2116 60.3954 24.0996 60.4682C24.0716 60.485 24.0548 60.541 24.0268 60.5578C23.9764 60.5802 23.9316 60.6531 23.8643 60.5746C23.7915 60.4906 23.7411 60.4794 23.7355 60.7091C23.7299 60.8379 23.6851 60.8379 23.6403 60.8211C23.5899 60.8043 23.5226 60.7259 23.461 60.6531C23.3882 60.5634 23.3098 60.4682 23.2874 60.6475C23.2706 60.7427 23.2146 60.6979 23.1698 60.6475C22.9569 60.4122 22.7945 60.4682 22.6488 60.5746C22.4472 60.7203 22.2511 60.9051 22.0495 61.0564C21.971 61.118 21.887 61.1404 21.803 61.174C21.5397 61.2805 21.2596 61.2692 20.974 61.2412C20.918 61.2356 20.8563 61.2244 20.8171 61.2805C20.7163 61.4149 20.5931 61.4149 20.453 61.3589C20.2906 61.2917 20.1618 61.4149 20.0385 61.5437C20.0105 61.5717 19.9881 61.6334 19.9489 61.6222C19.6912 61.5381 19.5008 61.807 19.2599 61.807C19.0639 61.807 18.851 61.7118 18.6437 61.6334C18.4813 61.5773 18.3133 61.4877 18.1508 61.4149C18.1396 61.4093 18.134 61.4317 18.1228 61.4261C18.0276 61.3701 17.938 61.0508 17.8819 60.5466C17.8315 60.0985 17.8371 59.8352 17.91 59.8296C17.994 59.824 18.0836 59.8464 18.1732 59.8576C18.1564 59.824 18.1508 59.796 18.1508 59.7736Z" fill="black"/>
<path d="M24.0566 37.2111L31.9211 48.218C33.6016 50.5707 42.2447 47.2826 51.2183 40.8689C60.1919 34.4552 66.1071 27.3469 64.4266 24.9942L56.5621 13.9873L24.0566 37.2111Z" fill="#233857"/>
<path d="M27.4949 40.639C28.1783 41.7873 28.8953 42.9244 29.5339 44.0895C30.1052 45.1314 30.6542 46.1509 31.4832 47.0415C31.696 47.2712 31.8641 47.5625 32.0545 47.8258L32.1834 48.005L32.2954 48.1338C32.3738 48.2123 32.4634 48.2907 32.5699 48.3467C32.7715 48.4755 33.0292 48.5315 33.2869 48.5764C33.5333 48.6044 33.791 48.5259 34.0207 48.5539C35.1746 48.6884 36.4069 48.4139 37.4936 47.8874C38.457 47.7977 39.2805 47.3048 40.1263 46.8679C40.9721 46.431 41.8684 46.0501 42.6302 45.4731C42.8318 45.3219 43.0783 45.1706 43.3135 45.081C44.7531 44.5209 46.0527 43.675 47.341 42.8124C48.719 41.8882 50.1194 40.9975 51.5757 40.1853C52.3488 39.754 53.0881 39.1938 53.7995 38.6281C54.6454 37.9615 55.4408 37.2333 56.2418 36.5163C57.4069 35.48 58.5048 34.3709 59.4683 33.1666C60.7454 31.5534 61.9945 29.8785 62.8796 28.1421C63.098 27.7052 63.3221 27.2738 63.4789 26.8593C63.6414 26.4504 63.7366 26.0359 63.6974 25.7894C63.6974 25.7166 63.675 25.683 63.6694 25.627C63.6358 25.5822 63.6694 25.5878 63.5629 25.4421L63.1148 24.7644L62.2242 23.4144C61.6304 22.5126 61.0311 21.6163 60.4261 20.7257C59.5075 19.3869 58.5496 18.0762 57.5805 16.7766L56.7123 15.6339C56.5555 15.4491 56.4603 15.3482 56.3538 15.225L56.1186 15.4323C56.0289 15.5107 56.0457 15.5051 55.7545 15.7235L44.9772 23.8121L42.4117 25.7838C41.9804 26.1087 41.5435 26.4224 41.1009 26.7305L36.1716 30.153L29.1642 35.1327C27.8366 36.0682 26.4922 36.9812 25.2655 38.0455C24.9238 38.3424 24.7278 38.3256 24.711 38.0119C24.6774 37.463 24.5877 36.9308 25.0583 36.253C25.3776 35.7937 25.6912 35.3904 26.2682 35.0655C27.0972 34.595 27.7862 33.8388 28.7104 33.5251C28.8393 33.4803 28.9905 33.3571 29.1081 33.2562C31.1975 31.3741 33.5837 29.8785 35.8916 28.2765C36.6422 27.7556 37.3648 27.1786 38.1041 26.6297C38.5803 26.2768 39.0676 25.9295 39.5549 25.5878C40.2663 25.0893 40.9945 24.6243 41.6835 24.109C42.2044 23.7169 42.6638 23.2744 43.3079 23.1623C43.4424 23.1399 43.7112 22.9271 43.7729 22.8038C44.0025 22.3277 44.4562 22.0364 44.8988 21.7284C46.0919 20.8993 47.3018 20.0871 48.4837 19.2413C49.3576 18.6139 50.209 17.9529 51.0492 17.2808C52.3488 16.2333 53.6091 15.1522 54.9142 14.1103C55.536 13.6398 56.1634 13.1693 56.7907 12.6987L58.1631 14.5528L59.0033 15.6619C59.1994 15.9196 59.429 16.1437 59.6195 16.4069C59.9724 16.8831 60.3869 17.3536 60.639 17.8577C60.919 18.4179 61.1823 18.8212 61.6977 19.1573C61.9889 19.3421 62.2746 19.7678 62.4987 20.1151C62.7843 20.5632 63.0196 21.045 63.2549 21.5211C63.5349 22.0868 63.787 22.6302 64.3191 23.0783C64.6048 23.3192 64.8513 23.7561 65.0361 24.1258L65.193 24.4283C65.2602 24.5627 65.3666 24.7532 65.4226 24.9212C65.5347 25.2685 65.5795 25.6102 65.5627 25.9183C65.5403 26.54 65.3722 27.0554 65.1986 27.5371C64.8289 28.495 64.3472 29.324 63.843 30.1418C62.4482 32.3264 60.7902 34.2533 59.0201 36.0738C58.3255 36.7852 57.5861 37.4518 56.8411 38.1071C54.5165 40.1461 52.0015 41.9274 49.3912 43.5574C48.8758 43.8767 48.3493 44.1848 47.8676 44.5433C46.7585 45.3667 45.5541 46.0389 44.2994 46.6158C42.787 47.316 41.3474 48.1226 39.8238 48.8396C39.4709 49.0077 39.118 49.1981 38.7427 49.3157C37.4264 49.7023 36.1268 50.128 34.6256 50.3016C33.875 50.3688 33.0404 50.4136 32.0489 50.0215C31.7969 49.9039 31.5448 49.7751 31.3039 49.5678C31.1807 49.4782 31.0743 49.3606 30.9678 49.2373L30.811 49.0525L30.7382 48.9517L30.178 48.1562C28.9905 46.4254 27.8814 44.6441 26.7555 42.874C25.8985 41.4961 25.0471 40.1237 24.19 38.7513C24.134 38.6617 24.05 38.5833 23.9996 38.4936C23.5235 37.7038 23.6243 37.2725 24.2909 37.3341C24.879 37.3902 25.4448 37.7318 25.9209 38.4152C26.4474 39.1658 26.946 39.9388 27.4613 40.7006L27.4949 40.639Z" fill="black"/>
<path d="M46.141 33.7601L6.31989 42.6665L4.30334 39.849L70.3506 1.5459L72.3616 4.36345L46.141 33.7601Z" fill="#3D649D"/>
<path d="M39.3796 36.096C37.4246 36.4209 35.4585 36.7794 33.5148 37.0539C31.7783 37.3003 30.0755 37.53 28.367 38.0733C27.9245 38.2134 27.4316 38.2862 26.961 38.3926L24.4012 38.9808C24.0147 39.076 23.6225 39.2609 23.2584 39.3057C21.4492 39.5521 19.6735 39.905 17.9314 40.4708C16.4974 40.5716 15.1643 41.0309 13.7863 41.4062C12.4083 41.7815 10.98 42.056 9.6356 42.5265C9.2771 42.6498 8.86259 42.7618 8.48729 42.8122L7.45661 42.9746L6.10105 43.2379L4.90793 41.5463L3.55237 39.6866L5.1712 38.7175L6.82364 37.7372C7.36139 37.4292 7.90473 37.1211 8.44808 36.8242C9.53477 36.2304 10.6383 35.6647 11.7586 35.1326C12.9517 34.5668 14.1392 33.8666 15.3043 33.1888C16.6935 32.3822 18.0491 31.5252 19.4326 30.7018C21.438 29.5087 23.4097 28.2987 25.3366 27.0048C27.9133 25.2795 30.5292 23.5767 33.1675 21.913C34.5119 21.0672 35.9402 20.3166 37.3462 19.538C40.1526 17.9864 42.9757 16.474 45.7709 14.9056C47.8714 13.7237 49.9496 12.4969 52.0166 11.259C53.9379 10.0883 55.8536 8.91197 57.7693 7.74126L70.6864 0L73.9296 4.44198L71.6218 7.09149L68.5074 10.7549C67.9864 11.3598 67.4543 11.9648 66.9165 12.5529L60.9229 19.1515L52.4087 28.6628C50.7954 30.4553 49.1598 32.231 47.6754 34.1243C47.2609 34.6564 47.02 34.7348 46.9864 34.3651C46.9304 33.7322 46.796 33.1496 47.3561 32.1021C47.737 31.3908 48.1123 30.7522 48.8125 30.0744C49.8264 29.0885 50.6554 27.8338 51.7869 26.988C51.9493 26.8704 52.1286 26.6463 52.2686 26.4614C54.7949 23.151 57.7021 20.1486 60.5028 17.0621C61.4215 16.0539 62.2897 15.0008 63.1859 13.9757L64.9504 11.9928C65.813 11.0405 66.7037 10.1107 67.5383 9.14163C68.1713 8.40784 68.7258 7.65164 69.5156 7.18111C69.6781 7.08029 70.0086 6.69378 70.0758 6.51453C70.2102 6.17284 70.4119 5.85916 70.6527 5.55668C70.7704 5.40544 70.8992 5.2542 71.0337 5.10856L71.3697 4.73886L71.745 4.33555L70.227 2.13417L68.6922 3.0136C67.3142 3.81462 65.9475 4.65484 64.6031 5.50627C62.5194 6.83942 60.4412 8.17258 58.3575 9.51133C56.6042 10.6092 54.8173 11.6679 53.0472 12.749C52.6383 13.0011 52.2574 13.2811 51.8429 13.5276C51.0867 13.9813 50.3193 14.4967 49.5575 14.8328C48.7117 15.208 48.0843 15.5497 47.4625 16.1715C47.1152 16.5188 46.4543 16.8885 45.9109 17.1798C45.2107 17.5551 44.4881 17.8688 43.7767 18.1824C42.9197 18.5577 42.1187 18.8994 41.3401 19.5492C40.92 19.8965 40.2534 20.2214 39.6932 20.4735C37.2342 21.5825 34.8984 22.9661 32.5849 24.3945C29.4593 26.3438 26.3337 28.2931 23.208 30.2481C21.9813 31.0099 20.7322 31.7437 19.4886 32.483C15.6236 34.7909 11.697 36.9866 7.7703 39.1768C7.3838 39.3953 6.99729 39.6081 6.61079 39.8266L6.32511 39.9946L6.20188 40.0675L6.17947 40.0843C6.14586 40.1067 6.12346 40.1347 6.10105 40.1571L6.05624 40.2243L6.15707 40.3139L6.19628 40.3531L6.21308 40.3699L6.33071 40.5324L6.80684 41.1934L6.85725 41.283L6.98049 41.2774L7.89913 41.1037C10.2798 40.6668 12.6044 40.0507 14.929 39.4289C15.4724 39.2833 16.0101 39.1096 16.5535 39.0032C20.3513 38.2862 24.0595 37.2219 27.8293 36.4321C30.8821 35.7879 33.9461 35.239 37.0045 34.6732C39.374 34.2475 41.7322 33.8274 44.096 33.4017C44.2529 33.3737 44.4097 33.3177 44.561 33.2897C45.9109 33.06 46.4039 33.2897 45.8829 33.9282C45.4236 34.4884 44.5946 34.9421 43.3902 35.1998C42.0571 35.4855 40.7183 35.7487 39.3852 36.0176L39.3796 36.096Z" fill="black"/>
<path d="M44.125 30.9427L4.30396 39.8491L27.5334 7.72456L68.5923 1.73096L44.125 30.9427Z" fill="#3D649D"/>
<path d="M37.5096 33.2448C35.5939 33.5584 33.6726 33.9113 31.7681 34.1746C30.0652 34.4099 28.396 34.6339 26.7267 35.1717C26.2954 35.3117 25.8081 35.3789 25.3487 35.4854L22.8449 36.0623C22.464 36.1519 22.0831 36.3368 21.7246 36.3816C19.9545 36.6169 18.2124 36.9642 16.5096 37.5187C15.1036 37.6139 13.804 38.062 12.4541 38.4317C11.1041 38.8014 9.70375 39.0703 8.393 39.5296C8.12413 39.6361 7.43514 39.8041 6.93661 39.8881C5.60906 40.1066 4.40473 40.3419 3.13879 40.6163C3.64853 39.9049 4.15827 39.1992 4.6624 38.4878C5.15533 37.7876 5.64827 37.0818 6.1412 36.376C7.52477 34.3763 8.99796 32.4381 10.572 30.5953C11.4122 29.615 12.1964 28.5171 12.9694 27.4472C13.8881 26.1701 14.7619 24.8649 15.6693 23.5766C16.9857 21.7113 18.2628 19.8404 19.4672 17.9135C21.0804 15.3424 22.7384 12.7769 24.4301 10.2338C24.783 9.70167 25.1583 9.18073 25.5392 8.66539L26.9564 6.77769C27.3765 6.72168 27.7966 6.67126 28.2167 6.61525C31.3311 6.22874 34.4456 5.88145 37.56 5.47254C39.8958 5.16446 42.2317 4.80036 44.5619 4.43066C46.7353 4.06097 48.903 3.69127 51.0708 3.32157L59.7363 1.91559L64.0719 1.2154L71.5891 0.050293L69.1973 2.95747L67.7857 4.68273L66.7886 5.92626L65.3266 7.76916C64.8337 8.37972 64.3296 8.98468 63.8254 9.57844L58.1567 16.2162L50.113 25.7836C48.5894 27.5873 47.0433 29.3741 45.6486 31.273C45.2565 31.8052 45.0268 31.8892 44.9764 31.5251C44.8924 30.8977 44.7355 30.3264 45.2509 29.2845C45.5982 28.5731 45.9454 27.9345 46.612 27.2512C47.5755 26.2597 48.3429 24.9994 49.4352 24.1423C49.5864 24.0191 49.7601 23.8006 49.8889 23.6158C52.2583 20.2941 55.0087 17.2693 57.6582 14.1661C58.5264 13.1522 59.3442 12.0935 60.1901 11.0628L61.8537 9.0687C62.6659 8.11085 63.5117 7.1754 64.3016 6.20074C64.5984 5.83104 64.8785 5.45574 65.181 5.11405C65.3322 4.9404 65.4835 4.77796 65.6515 4.63232C65.814 4.48668 66.0044 4.32984 66.1613 4.25142C66.3069 4.173 66.5758 3.8257 66.5814 3.71367C66.5926 3.50081 66.6542 3.33837 66.7718 3.15912C66.8894 2.98548 67.0575 2.78942 67.2311 2.59337L67.388 2.40852L65.4835 2.64939L62.7331 3.03029C61.1871 3.25995 59.6411 3.52322 58.1063 3.8089C55.7257 4.26822 53.3562 4.72194 50.9756 5.18126C48.9815 5.54536 46.9705 5.85344 44.9708 6.19514C44.5059 6.27356 44.0577 6.39679 43.5928 6.46961C42.7414 6.60404 41.8563 6.8001 41.0385 6.8281C40.1367 6.86171 39.4365 6.94013 38.6467 7.28743C38.2042 7.47788 37.4704 7.5731 36.871 7.64032C36.098 7.72434 35.325 7.74675 34.5688 7.77476C33.6558 7.80276 32.7987 7.81957 31.8521 8.12765C31.3479 8.2957 30.6197 8.34611 30.0204 8.36852C29.6227 8.38532 29.2306 8.40773 28.8329 8.43573L28.2391 8.48615H27.9982L27.903 8.59258C27.8638 8.63739 27.8638 8.63739 27.7742 8.75502L27.3541 9.30957L26.5307 10.4355C25.9873 11.1917 25.4608 11.9535 24.9342 12.7265C22.9177 15.7177 20.9067 18.7089 18.8902 21.7001C18.1004 22.8708 17.2714 24.0247 16.4536 25.1842C13.9161 28.786 11.2834 32.3149 8.63947 35.8383C8.3818 36.1856 8.11853 36.5328 7.86086 36.8801L7.48556 37.4067L7.39593 37.5411C7.38473 37.5635 7.38473 37.5635 7.37913 37.5747C7.37353 37.5915 7.36792 37.6083 7.36232 37.6251C7.32871 37.782 7.32311 37.8212 7.23909 37.9276C7.31751 37.9164 7.36793 37.9332 7.48556 37.9444C7.52477 37.95 7.57518 37.9444 7.62559 37.9388L8.41541 37.7764C8.99236 37.6531 9.56371 37.5131 10.1407 37.3731C11.2834 37.093 12.4205 36.7849 13.5576 36.4824C14.0897 36.3424 14.6163 36.1631 15.1484 36.0679C18.8678 35.3733 22.4976 34.3202 26.189 33.5472C29.1746 32.9199 32.177 32.3877 35.1738 31.8276C37.4928 31.4131 39.8062 31.0042 42.1196 30.5897C42.2709 30.5616 42.4221 30.5056 42.5733 30.4832C43.8953 30.2648 44.3826 30.4944 43.8729 31.1274C43.4248 31.6875 42.6182 32.1357 41.4362 32.3877C40.1311 32.6678 38.8203 32.9199 37.5152 33.1887L37.5096 33.2448Z" fill="black"/>
<path d="M7.12749 44.0322C7.01546 44.4131 6.93704 44.7997 6.78019 45.175C6.64015 45.511 6.49451 45.8415 6.65136 46.1832C6.69057 46.2728 6.65696 46.3681 6.65696 46.4633C6.65696 46.6313 6.65696 46.7994 6.67376 46.9674C6.67936 47.0458 6.77459 47.1243 6.74098 47.1971C6.58414 47.55 6.53933 47.8973 6.71297 48.2446C6.50011 48.519 6.65136 48.7879 6.71858 49.0624C6.78579 49.3369 6.74098 49.6169 6.90343 49.8914C6.94824 49.9642 6.96504 50.0482 6.93143 50.1211C6.75219 50.5636 6.8194 51.0061 6.86422 51.4542C6.91463 51.9303 6.85861 52.4121 6.65696 52.8882C6.55053 53.1403 6.55613 53.4091 6.55613 53.6668C6.55613 53.9749 6.61775 54.283 6.63455 54.5967C6.65696 55.0448 6.71858 55.4929 6.86982 55.9354C7.07147 56.5292 7.23392 57.1285 7.34595 57.7335C7.40197 58.0416 7.33475 58.3497 7.30114 58.6577C7.23392 59.2739 7.12749 59.8901 7.08268 60.5062C7.04907 60.9712 7.07147 61.4361 7.10508 61.901C7.13309 62.3323 7.22272 62.7636 7.26193 63.2005C7.36836 64.4833 7.46358 65.766 7.57001 67.0488C7.59802 67.3569 7.65403 67.6649 7.68764 67.973C7.70445 68.1243 7.70445 68.2811 7.69885 68.4379C7.67644 69.0093 7.63163 69.5806 7.62043 70.152C7.60362 70.9698 7.61482 71.7876 7.59802 72.611C7.58682 73.076 7.55321 73.5409 7.70445 74.0002C7.74926 74.1291 7.62043 74.1739 7.35155 74.1234C6.88662 74.0394 6.39929 73.9722 6.11921 73.7481C5.92876 73.5969 5.78872 73.4569 5.85594 73.272C5.95676 73.0032 5.7383 72.7119 6.01838 72.4486C6.05759 72.4094 6.04639 72.3534 6.02958 72.3142C5.7103 71.5132 5.87834 70.7121 5.91755 69.9111C5.92876 69.6479 5.87834 69.3846 5.86714 69.1213C5.85594 68.9533 5.85594 68.7796 5.86154 68.6116C5.87274 68.3651 5.91755 68.1187 5.89515 67.8722C5.87834 67.6873 5.78872 67.5081 6.06319 67.3344C6.11921 67.3008 6.10801 67.2 6.04079 67.1664C5.78312 67.032 5.81112 66.8807 5.82233 66.7239C5.84473 66.3094 5.88394 65.8949 5.88394 65.4748C5.88394 65.1667 5.83913 64.8586 5.77751 64.5505C5.68229 64.0744 5.53665 63.5983 5.44702 63.1221C5.3742 62.7244 5.3574 62.3211 5.31258 61.9234C5.30138 61.8338 5.24537 61.7386 5.23977 61.6489C5.22856 61.4809 5.16695 61.3016 5.25657 61.1448C5.3574 60.9656 5.3742 60.8311 5.15014 60.6687C5.0213 60.5791 5.03811 60.4334 5.06052 60.3102C5.08852 60.1589 5.17815 60.0077 5.26217 59.8565C5.363 59.6772 5.47503 59.5092 5.30138 59.3187C5.21176 59.2179 5.26217 59.0722 5.32379 58.9546C5.59826 58.4393 5.57026 57.9127 5.49744 57.3918C5.39661 56.6804 5.25097 55.9746 5.13894 55.2632C5.09412 54.9832 5.08852 54.7087 5.07172 54.4286C5.0157 53.5604 5.08292 52.6978 5.16134 51.8295C5.17815 51.6615 5.20055 51.4878 5.15014 51.3198C5.03251 50.9333 5.06052 50.5468 5.14454 50.1603C5.23977 49.6954 5.14454 49.2304 5.04371 48.7711C5.0213 48.6647 4.96529 48.5526 4.98209 48.4462C5.11093 47.7012 4.88126 46.9618 4.93168 46.2224C4.97089 45.6231 5.10533 45.0237 5.21736 44.4244C5.30698 43.9594 5.42462 43.5001 5.52544 43.0408C5.53105 43.0128 5.50864 42.9792 5.51984 42.9512C5.59266 42.6879 5.92315 42.6039 6.42729 42.7271C6.87542 42.8391 7.13309 43.0128 7.12749 43.248C7.11629 43.5113 7.07707 43.7746 7.04907 44.0322C7.07707 44.0322 7.09948 44.0322 7.12749 44.0322Z" fill="black"/>
<path d="M0.271038 71.52C0.483896 71.3744 0.674347 71.2119 0.926415 71.0943C1.15048 70.9879 1.38014 70.8871 1.35213 70.6238C1.34653 70.5566 1.40814 70.523 1.43055 70.4725C1.48096 70.3829 1.53698 70.2933 1.57619 70.1981C1.59299 70.1533 1.53698 70.0636 1.58739 70.0412C1.82826 69.9348 1.9739 69.7724 1.93469 69.4979C2.20356 69.4643 2.15315 69.2402 2.18115 69.061C2.20916 68.8817 2.33239 68.7585 2.27638 68.5288C2.25957 68.4672 2.27078 68.4168 2.32119 68.3944C2.61247 68.2488 2.69649 67.9855 2.79172 67.7222C2.89815 67.4421 3.0942 67.2181 3.41349 67.0668C3.58153 66.9884 3.65995 66.8428 3.73837 66.7027C3.8336 66.5403 3.87841 66.3442 3.95683 66.1706C4.07446 65.9185 4.15849 65.6553 4.16969 65.3416C4.18089 64.9215 4.22571 64.5238 4.31533 64.1485C4.33774 64.0532 4.38815 63.9748 4.44416 63.8964C4.51138 63.8124 4.55619 63.7844 4.66822 63.6275C5.05473 63.101 5.42443 62.6753 5.73811 62.2272C5.87815 62.0255 6.00699 61.8126 6.13582 61.5718L6.53913 61.8967C6.84161 62.1319 7.1721 62.3112 7.51939 62.58L8.298 63.185L8.78534 63.5267L9.76 64.2101C9.91684 64.3165 10.0961 64.4061 10.2585 64.507C10.337 64.5574 10.4098 64.6246 10.477 64.6918C10.7179 64.9495 10.9475 65.2184 11.1996 65.4592L12.2975 66.4899C12.4991 66.6915 12.684 66.91 12.9977 66.9884C13.0873 67.0108 13.0201 67.1229 12.8184 67.3021C12.4655 67.6102 12.107 67.9407 11.8214 68.0527C11.6253 68.1311 11.4629 68.1759 11.4292 68.0471C11.3732 67.8623 11.0988 67.9015 11.166 67.5822C11.1772 67.5374 11.1436 67.5262 11.11 67.5206C10.533 67.4253 10.2865 66.966 9.94485 66.6075C9.83282 66.4899 9.68158 66.4171 9.55274 66.3218C9.46872 66.2602 9.3903 66.1874 9.31748 66.1146C9.21105 66.0082 9.13263 65.8681 9.00379 65.7841C8.90857 65.7169 8.76853 65.7113 8.87496 65.4368C8.89737 65.3808 8.84135 65.3472 8.78534 65.3864C8.55567 65.5208 8.50526 65.4368 8.43804 65.364C8.26439 65.1791 8.10195 64.9719 7.9115 64.8038C7.77146 64.6806 7.60342 64.5798 7.42417 64.5014C7.09368 64.3277 6.96484 64.4117 6.84161 64.4173C6.75199 64.4341 6.69597 64.4005 6.64556 64.4229C6.63436 64.4285 6.62875 64.4958 6.61755 64.4958C6.60635 64.4958 6.60075 64.5294 6.58954 64.5126C6.58394 64.5126 6.57834 64.5014 6.56714 64.4621C6.52793 64.3333 6.49432 64.3501 6.57274 64.6638C6.61755 64.8374 6.61195 64.8206 6.59514 64.8038C6.57834 64.7758 6.52793 64.6918 6.46631 64.6246C6.39909 64.5406 6.30387 64.4902 6.39909 64.6582C6.45511 64.7478 6.41029 64.7142 6.34868 64.6918C6.28706 64.6638 6.23105 64.6638 6.18623 64.6694C6.13582 64.6862 6.063 64.7702 6.01819 64.8262C5.92296 64.9551 5.86135 65.1063 5.81093 65.2632C5.6821 65.6889 5.58687 66.137 5.46364 66.5683C5.41323 66.7364 5.3348 66.8876 5.26198 67.0444C5.03792 67.5318 4.71304 67.9519 4.37695 68.372C4.30973 68.456 4.23691 68.5344 4.22571 68.6465C4.2033 68.9097 4.06326 69.1002 3.87281 69.2626C3.64315 69.4587 3.58713 69.7556 3.53112 70.0468C3.51991 70.114 3.53112 70.2037 3.4807 70.2485C3.13901 70.5734 3.1054 71.0831 2.83653 71.4528C2.61807 71.7497 2.31559 72.0018 2.02991 72.2594C1.81145 72.4611 1.56499 72.6459 1.33533 72.8364C1.31852 72.8476 1.32972 72.8756 1.31292 72.8868C1.16728 72.9876 0.859197 72.8644 0.461489 72.5451C0.108594 72.2594 -0.0594512 72.0354 0.01897 71.9177C0.108594 71.7833 0.226226 71.6657 0.327053 71.5424L0.271038 71.52Z" fill="black"/>
<path d="M68.8557 91.2035C68.1835 91.506 56.5436 96.6986 55.7538 96.1161C55.3505 95.8192 55.188 95.4215 55.188 95.4215C55.188 95.4215 55.0704 95.1358 55.076 94.7997C55.0928 93.9427 66.7607 89.1869 69.0742 88.2515C69.1302 88.582 69.1694 88.9741 69.1582 89.4222C69.147 90.1504 69.0013 90.761 68.8557 91.2035Z" fill="white" stroke="black" stroke-miterlimit="10" stroke-linecap="round"/>
</svg>
