<svg width="39" height="138" viewBox="0 0 39 138" fill="none" xmlns="http://www.w3.org/2000/svg">
<path d="M0.508993 2.62999C0.437134 2.0824 0.822788 1.58023 1.37038 1.50837L10.2939 0.337344C10.8415 0.265484 11.3436 0.651138 11.4155 1.19873C11.4873 1.74632 11.1017 2.24848 10.5541 2.32034L2.62211 3.36126L3.66302 11.2932C3.73488 11.8408 3.34923 12.343 2.80163 12.4149C2.25405 12.4867 1.75188 12.1011 1.68002 11.5535L0.508993 2.62999ZM26.4608 136.967C25.5397 136.578 25.5397 136.578 25.5398 136.578C25.5401 136.577 25.5403 136.576 25.5408 136.575C25.5417 136.573 25.5432 136.57 25.5452 136.565C25.5492 136.555 25.5554 136.541 25.5637 136.52C25.5803 136.48 25.6054 136.42 25.6385 136.339C25.7045 136.177 25.8024 135.933 25.9279 135.613C26.1789 134.973 26.5405 134.024 26.9797 132.797C27.8582 130.344 29.0467 126.782 30.2818 122.357C32.7527 113.505 35.4053 101.217 36.1399 87.4652C37.6096 59.9555 31.4071 26.7286 0.891402 3.29297L2.10958 1.70677C33.3482 25.6976 39.6258 59.7044 38.1371 87.5719C37.3925 101.509 34.7062 113.945 32.2081 122.895C30.9587 127.371 29.7551 130.98 28.8626 133.472C28.4164 134.718 28.0478 135.685 27.79 136.343C27.6611 136.672 27.5599 136.923 27.4905 137.094C27.4558 137.179 27.429 137.244 27.4108 137.288C27.4016 137.31 27.3946 137.326 27.3898 137.338C27.3874 137.344 27.3855 137.348 27.3842 137.351C27.3835 137.353 27.3829 137.354 27.3826 137.355C27.3822 137.356 27.3819 137.357 26.4608 136.967Z" fill="#F5E3B4"/>
</svg>
