<svg width="54" height="44" viewBox="0 0 54 44" fill="none" xmlns="http://www.w3.org/2000/svg">
<path d="M24.9688 35.1084C24.7646 34.7999 24.6203 34.5129 24.5147 34.2374C24.41 33.9419 24.3809 33.5524 24.4746 33.2143C24.5587 32.8511 24.7473 32.6263 24.957 32.4114C25.1675 32.1765 25.4346 31.9548 25.7396 31.7646L26.6254 31.2076L27.2783 30.8271L28.5093 30.14C29.9842 29.3499 31.4405 28.5783 32.7062 27.3543C33.0311 27.037 33.4487 26.8046 33.8253 26.5322C34.5013 26.0329 35.191 25.5469 35.8607 25.0309C36.1675 24.8006 36.4198 24.4284 36.7344 24.2633C38.2782 23.4512 39.7289 22.4857 41.0141 21.2232C42.2945 20.7098 43.2607 19.7127 44.3259 18.8173C45.3912 17.9218 46.561 17.1647 47.5322 16.1359C47.7906 15.869 48.1169 15.6002 48.4283 15.4267C49.0137 15.1167 49.7163 14.6641 49.9953 14.4958C50.1877 14.3479 50.459 14.2716 50.5427 13.997C50.6337 13.7191 50.4155 13.4859 50.2862 13.2607C49.9021 12.662 49.5148 12.0549 49.1275 11.4479C47.7455 9.27644 46.4966 7.00417 45.4164 4.63423L45.2409 4.24365C45.1856 4.12182 45.1262 4.01169 45.0709 3.88986C44.9691 3.69129 44.8672 3.49274 44.758 3.29755C44.6342 3.10911 44.4138 3.00466 44.2186 3.0556C43.8507 3.21592 43.5403 3.52653 43.2012 3.76197C41.9959 4.67303 40.7885 5.71283 39.5709 6.65906C37.7941 8.05061 36.0656 9.47872 34.4029 11.0337C32.1846 13.1108 29.9115 15.1348 27.6088 17.1036C26.4387 18.1065 25.1326 18.9561 23.8748 19.8422L21.9647 21.1775L21.0065 21.8367L19.6302 22.8171C19.3795 22.992 19.1242 23.11 18.8884 23.1895C18.6422 23.2641 18.447 23.3151 18.1801 23.291C17.9238 23.272 17.65 23.1627 17.4323 22.9981C17.2041 22.8284 17.0625 22.6384 16.9155 22.4116C16.5995 21.9681 16.3987 21.265 16.1756 20.6606L15.7074 19.3048L15.0216 17.3814L14.6258 16.3263C14.5298 16.0759 14.437 15.8338 14.336 15.6152C14.2076 15.3699 13.8423 15.47 13.7974 15.7561L13.5394 16.4945L13.4238 16.8428L13.3738 17.0034L13.2313 17.3936L11.9892 20.6507L4.40298 39.8223C4.07341 40.6429 4.19411 40.42 4.17593 40.5071C4.18054 40.5639 4.25492 40.5786 4.30368 40.5266L4.32965 40.5048L4.55542 40.4888L12.905 40.0674L24.8559 39.3173C25.9879 39.2459 27.1191 39.1945 28.2448 39.1064C28.8112 39.0607 29.3672 39.01 29.9273 38.9475L30.3473 38.9007L30.5594 38.8714L30.6639 38.8526L30.714 38.849L30.7391 38.8473L30.7464 38.8439L30.8483 40.1627L30.8515 40.1711C30.8648 40.273 30.8826 40.2746 30.8657 40.2529C30.852 40.2396 30.8278 40.2213 30.8383 40.2263C30.8488 40.2313 30.8812 40.2262 30.8812 40.2262C30.8739 40.2295 30.8593 40.2362 30.8365 40.2664C30.8023 40.3117 30.7991 40.3033 30.8479 40.2513C30.8707 40.2211 30.8885 40.2228 30.8812 40.2262C30.8739 40.2295 30.8666 40.2329 30.8561 40.2279L30.9127 40.241C30.9515 40.2526 30.9829 40.2675 31.0249 40.2874C31.1604 40.3721 31.2623 40.5707 31.1909 40.8101C31.1573 40.9239 31.0734 41.0413 30.9485 41.1187C30.8309 41.1928 30.7206 41.2634 30.5893 41.3241C29.8807 41.6714 29.2145 41.95 28.2949 41.9035C26.9621 41.8319 25.5995 42.2654 24.2655 41.8996C24.0748 41.8502 23.8125 41.883 23.5996 41.9324C19.7537 42.6985 15.8245 42.6875 11.922 42.8804C10.6477 42.939 9.37519 43.1146 8.09902 43.2133C7.2744 43.2802 6.44658 43.3387 5.61555 43.3888L3.57901 43.4756C3.19222 43.4972 2.78766 43.5172 2.44644 43.4785C2.09883 43.423 1.80509 43.4409 1.49434 43.28C1.08273 43.0576 0.824048 42.45 0.942308 42.0415C1.01769 41.6333 1.16873 41.1311 1.48947 40.6683C1.59289 40.5124 1.70269 40.3732 1.823 40.2389C1.99617 40.0409 2.20236 39.5034 2.20261 39.2576C2.14719 38.4185 2.50146 37.6847 2.83154 36.9326C3.71888 34.9009 4.63772 32.8842 5.49357 30.8375C6.12545 29.3269 6.71623 27.7762 7.27144 26.2223C8.13292 23.8095 8.92416 21.3702 9.80344 18.959C10.1662 17.956 10.5539 16.9512 10.9449 15.9548L11.8854 13.6136C12.0547 13.1815 12.2346 12.7544 12.4446 12.451C12.6537 12.1676 12.8642 11.9326 13.0534 11.7764C13.2394 11.6118 13.3638 11.4658 13.6579 11.3593C13.9269 11.2545 14.2635 11.2365 14.5601 11.3155C15.0045 11.4442 15.1857 11.6257 15.4783 11.8736C15.7604 12.1166 16.0814 12.5283 16.3003 13.1444C16.4169 13.4934 16.5198 13.8291 16.6155 14.1681C16.739 14.6023 16.8538 14.9914 16.9695 15.3605C17.0294 15.5392 17.0893 15.7178 17.1492 15.8965C17.2123 16.0835 17.2283 16.1253 17.2804 16.2388C17.4381 16.6277 17.6509 16.9813 17.9527 17.3429C18.1225 17.5395 18.2774 17.8315 18.4063 18.1453C18.4744 18.3006 18.5311 18.4709 18.5919 18.6295L18.6774 18.8749L18.7149 18.9952C18.7213 19.0119 18.7181 19.0035 18.714 19.0153L18.6822 19.2461C18.6631 19.3532 18.6478 19.5372 18.725 19.6489C18.8117 19.7856 18.913 19.7585 19.0402 19.7095C19.0986 19.6825 19.1578 19.6355 19.2107 19.5717L19.2448 19.5264L19.3611 19.4039C19.4399 19.3183 19.5228 19.221 19.5985 19.1271C19.9393 18.6943 20.5557 18.3307 21.0714 18.0627C23.3611 16.8664 25.4301 15.2513 27.459 13.5762L35.6733 6.66296C36.7458 5.76414 37.8626 4.91363 38.9626 4.04144L41.6744 1.95223L42.7611 1.13532C43.1914 0.779128 43.6574 0.583304 44.067 0.531502C44.4879 0.464606 45.0158 0.564457 45.416 0.801949C45.7993 1.01778 46.1522 1.35579 46.4655 1.85948L47.633 3.87458L48.4616 5.31926L50.1074 8.22362C50.561 9.02604 51.0137 9.84853 51.5242 10.5755L51.8265 11.0057L51.9777 11.2207L52.2147 11.5926C52.5545 12.143 52.9824 12.7215 53.1174 13.2978C53.2729 13.8155 53.2799 14.4609 53.0833 15.0235C52.8949 15.5626 52.5978 15.9752 52.0841 16.3601L51.3579 16.8629L50.8126 17.233L50.0258 17.7344C48.0595 18.9678 46.2604 20.4581 44.4685 21.945C44.0528 22.2945 43.6531 22.6857 43.2045 22.9717C40.0894 24.9722 37.2634 27.4581 34.215 29.5654C32.9801 30.4214 31.7291 31.2357 30.4782 32.0499L28.588 33.258L28.1508 33.5289L28.0496 33.5561L27.8097 33.6474C27.719 33.6795 27.657 33.7867 27.6744 33.877C27.6959 33.9555 27.7498 34.0288 27.7996 34.1139L27.8896 34.259L27.9467 34.3407L28.1471 34.5723L28.9771 35.5053L30.6371 37.3713C30.7426 37.4896 30.8813 37.5827 30.9868 37.701C31.8972 38.754 31.9087 39.4562 30.9801 39.6104C30.156 39.7458 29.2708 39.4083 28.3921 38.5273L25.3567 35.381C25.2681 35.2844 25.1796 35.1878 25.1056 35.0844L24.9688 35.1084Z" fill="#C0E3EB"/>
</svg>
