<svg width="44" height="63" viewBox="0 0 44 63" fill="none" xmlns="http://www.w3.org/2000/svg">
<path d="M25.6224 8.32651C23.7306 9.12838 21.8976 10.1242 20.1315 11.1567C19.7401 11.3955 19.3488 11.6342 18.9618 11.8724C18.5704 12.1112 18.2103 12.3864 17.8347 12.6456C17.0793 13.1645 16.3927 13.7735 15.7206 14.4298C15.3667 14.7579 14.9748 15.1039 14.6098 15.4511L13.6159 16.4049C13.2933 16.7337 12.9905 17.078 12.6822 17.4141C12.4021 17.7244 12.1608 18.0971 11.8798 18.3629C11.2301 19.0567 10.5957 19.7666 9.9969 20.5125C9.44631 21.2883 8.90609 22.0764 8.43331 22.9054C7.98113 23.4954 7.58755 24.1274 7.22199 24.7695L6.95359 25.2526L6.72409 25.7624C6.57256 26.102 6.42103 26.4417 6.2695 26.7814C6.11304 27.1171 5.95269 27.4578 5.79236 27.7985C5.62216 28.1315 5.51395 28.4973 5.37228 28.8447C5.1076 29.5462 4.84784 30.2516 4.63706 30.9556C4.53922 31.3336 4.4262 31.7714 4.28223 32.1369C4.07224 32.6979 3.85346 33.26 3.68133 33.8388C3.52735 34.42 3.38269 35.0044 3.23803 35.5889C3.07964 36.1706 2.99488 36.7703 2.90517 37.3661C2.8248 37.9652 2.69879 38.5564 2.6547 39.1602C2.35474 41.7373 2.27917 44.3234 2.29325 46.9122C2.29847 47.2555 2.30917 47.6071 2.31985 47.9587C2.33933 48.3092 2.38577 48.6609 2.4234 49.0138L2.55002 50.0751C2.60086 50.4263 2.66931 50.7754 2.72895 51.1256C3.00346 52.7901 3.45694 54.4198 3.94355 56.0277L4.22195 56.9012C4.26729 57.0566 4.3123 57.1718 4.35291 57.2875L4.47914 57.6343C4.64755 58.1099 4.81582 58.5097 4.97707 58.888C5.14661 59.2608 5.3086 59.6077 5.47256 59.8963C5.52008 59.9576 5.52387 60.0644 5.62726 60.0699C5.67622 60.0685 5.72644 60.0402 5.75589 59.9876C5.78975 59.9344 5.78188 59.8683 5.77945 59.8106L5.74823 59.0997C5.71004 57.7688 5.64559 57.4906 5.7819 55.4511C5.88308 53.7909 6.10579 52.1386 6.36918 50.4903C6.67451 48.8192 7.10859 47.1417 7.6425 45.5148C8.67248 42.2431 10.0335 39.0882 11.6572 36.0762C11.946 35.5014 12.2922 34.9598 12.6002 34.396L13.0763 33.5576C13.2352 33.2796 13.4176 33.0122 13.5864 32.742L14.6198 31.109C14.9858 30.583 15.3415 30.0448 15.7212 29.5216C17.1233 27.5722 18.6186 25.6921 20.2726 23.945C22.4413 21.6451 24.8262 19.5472 27.376 17.6709C27.6914 17.4322 28.0172 17.2058 28.3381 16.9754L28.8247 16.636L29.1554 16.4134L29.5944 16.1243L30.4816 15.5495L30.9249 15.2599L31.1491 15.117C31.1839 15.1844 31.2087 15.2797 31.2357 15.3568L31.9127 17.3619L33.4344 21.8432C33.4685 21.9419 33.6115 21.9427 33.6422 21.8631C34.6456 20.5776 35.588 19.1923 36.4622 17.7972C36.9013 17.0972 37.3354 16.3933 37.7553 15.6822C39.3114 13.04 40.6461 10.2635 41.6949 7.37371L41.7122 7.33145C41.7194 7.31718 41.7344 7.29306 41.7113 7.28688L41.5742 7.22285L40.1019 6.56329C39.1169 6.13144 38.1291 5.71332 37.1297 5.31C35.1352 4.50283 33.1211 3.75606 31.0863 3.06087C29.8944 2.65372 28.6957 2.26523 27.4875 1.90914C26.8856 1.73084 26.2765 1.56679 25.6679 1.40715L25.4377 1.34975L25.3871 1.33792L25.3832 1.34285C25.3838 1.34725 25.3783 1.33896 25.3789 1.34337C25.3791 1.30761 25.3741 1.30374 25.3806 1.32083C25.3996 1.36769 25.4413 1.38058 25.3848 1.35606C25.3618 1.34988 25.353 1.35093 25.3662 1.34935C25.3926 1.3462 25.4224 1.33371 25.3887 1.35113C25.3424 1.37452 25.281 1.42204 25.1699 1.42636C24.9834 1.43522 24.7451 1.34752 24.6641 1.08027C24.6258 0.946379 24.6312 0.767079 24.7379 0.575696C24.8456 0.393119 25.0707 0.183144 25.4329 0.14887C25.6893 0.127205 25.891 0.170145 26.0944 0.190539C26.2983 0.215337 26.5077 0.248419 26.7133 0.286428C27.1336 0.3658 27.5714 0.478822 28.0562 0.648769C29.4605 1.15118 31.0133 1.4751 32.3285 2.16679C32.5144 2.2652 32.8017 2.35152 33.0378 2.42161C34.8606 2.95003 36.653 3.59819 38.4137 4.31714C39.2962 4.67635 40.1681 5.05915 41.0367 5.45129L42.3607 6.06602C42.657 6.19146 42.886 6.35172 43.1405 6.50002C43.2523 6.57601 43.3173 6.7469 43.2704 6.87756L43.1734 7.30004L42.8197 8.26677L42.4916 9.10987C41.9598 10.4552 41.4143 11.7976 40.7886 13.105C40.3851 13.9526 39.9485 14.7863 39.4874 15.6006C38.8162 16.7883 38.0732 17.9355 37.3341 19.0778C36.7759 19.9394 36.2529 20.7968 35.5217 21.4066C35.3675 21.5366 35.0526 21.9673 34.9762 22.1506C34.9032 22.3245 34.8164 22.4957 34.7159 22.664C34.6053 22.8603 34.4137 23.0886 34.1688 23.2072C33.686 23.4657 33.0291 23.3878 32.6038 23.0053C32.3952 22.8292 32.2546 22.5869 32.1703 22.329L31.2249 19.3466L30.7621 17.9011L30.5988 17.3935L30.515 17.14L30.4939 17.0756L30.4858 17.0453C30.477 17.0463 30.4693 17.0562 30.461 17.0616L30.3489 17.1331C30.0955 17.2928 29.8763 17.4396 29.608 17.6234C29.2606 17.8569 28.9193 18.1031 28.5818 18.3443C27.9036 18.8362 27.2461 19.3523 26.6028 19.8757C24.6066 21.5252 22.7674 23.3302 21.0437 25.242C19.599 26.8347 18.2167 28.5003 16.9702 30.2569C16.6693 30.6546 16.4402 31.0928 16.1535 31.4977C15.6262 32.244 15.1835 33.1008 14.6522 33.7761C14.073 34.5374 13.7189 35.2005 13.4309 36.0433C13.2589 36.5104 12.9232 37.216 12.6148 37.7753C12.213 38.4888 11.8201 39.2011 11.4355 39.908C10.9505 40.7475 10.5664 41.5705 10.3071 42.5796C10.1665 43.1234 9.89516 43.8436 9.63832 44.4236C8.55721 47.0046 7.89249 49.7816 7.48952 52.5809C7.36646 53.5336 7.2434 54.4862 7.16983 55.4418C7.12424 55.9207 7.09186 56.398 7.06828 56.8742L7.01232 57.8278L6.97921 59.1225L6.94975 60.4481C6.89583 60.7448 6.83225 60.9981 6.7713 61.2733L6.67713 61.6821L6.6298 61.8842C6.61514 61.9485 6.60193 61.9501 6.58359 61.9835C6.52469 62.0888 6.46086 62.1902 6.40091 62.2867C6.36213 62.336 6.3591 62.3855 6.28404 62.4302C6.19682 62.4852 6.00461 62.5216 5.90846 62.5018C5.77444 62.4642 5.68185 62.3993 5.56493 62.3552C5.47088 62.353 5.30316 62.1452 5.15266 62.0069L4.92509 61.7839C4.848 61.6993 4.77439 61.6813 4.69318 61.4498L3.91041 59.6807L3.26187 57.9135L3.09714 57.4686L3.00521 57.1848L2.83123 56.6249C2.71506 56.2502 2.59061 55.881 2.49646 55.5036C1.83351 53.1664 1.37385 50.7737 1.14371 48.358C0.921858 45.9369 0.921751 43.5028 1.10201 41.0828C1.22172 40.1395 1.30746 39.1735 1.4106 38.2411C1.55964 37.1693 1.67135 36.084 1.95723 35.0361L2.35443 33.4612C2.50204 32.9389 2.6963 32.4333 2.8675 31.9216C3.69773 29.4464 4.70349 27.0575 5.82566 24.7083C6.1103 24.1741 6.39388 23.6311 6.71303 23.1241C8.96501 19.6128 11.5219 16.2617 14.6849 13.535C17.2354 11.3281 20.065 9.47638 23.0451 7.95064C23.6227 7.66288 24.2047 7.3746 24.7991 7.11609L25.2447 6.92C25.3809 6.86356 25.5937 6.77564 25.5898 6.78057L25.8825 6.68759C25.8637 6.60497 25.8257 6.51125 25.7911 6.40818L25.7775 6.3696C25.7716 6.35691 25.771 6.35251 25.752 6.30565L25.6592 6.08894L25.473 5.65112L24.7286 3.90425C24.6612 3.7515 24.5763 3.60085 24.5089 3.44809C23.9525 2.1165 23.9973 1.59306 24.6494 2.04229C25.2236 2.43828 25.8123 3.21666 26.3557 4.40241L27.3924 6.69057L27.563 7.07219L27.6483 7.26299L27.6907 7.3562L27.7027 7.38157C27.6988 7.3865 27.69 7.38755 27.6817 7.39301L27.6299 7.40812L26.8558 7.73273C26.6005 7.83911 26.3325 7.95148 26.0954 8.06017C25.9343 8.13298 25.7722 8.19698 25.6117 8.27419L25.6224 8.32651Z" fill="#E4C985"/>
</svg>
