<svg width="49" height="113" viewBox="0 0 49 113" fill="none" xmlns="http://www.w3.org/2000/svg">
<path d="M28.8471 106.506C28.721 106.201 28.5602 105.924 28.4729 105.574C28.3934 105.26 28.3243 104.946 27.9878 104.927C27.9037 104.923 27.8715 104.836 27.8213 104.792C27.7209 104.705 27.6205 104.618 27.5056 104.547C27.4562 104.514 27.3236 104.565 27.3137 104.498C27.2431 104.162 27.0755 103.938 26.719 103.932C26.7415 103.58 26.4489 103.59 26.2291 103.516C26.0092 103.442 25.8807 103.252 25.5785 103.273C25.4951 103.279 25.4359 103.257 25.4204 103.185C25.3135 102.779 24.9932 102.618 24.6924 102.435C24.3644 102.238 24.1341 101.94 24.0242 101.492C23.9658 101.255 23.8048 101.125 23.6543 100.994C23.4703 100.834 23.233 100.735 23.04 100.597C22.753 100.387 22.4376 100.22 22.0447 100.143C21.5189 100.038 21.0215 99.8897 20.5733 99.6958C20.3465 99.5965 20.2206 99.3696 20.0657 99.1762C19.7614 98.7943 19.4855 98.3685 19.1619 98.0088C18.9178 97.7379 18.6252 97.5227 18.3173 97.3138C18.0366 97.1187 17.7025 96.985 17.4121 96.8011C16.5618 96.2478 15.7211 95.6835 14.8707 95.1303C14.6625 94.9982 14.4356 94.8988 14.2225 94.7723C14.1187 94.7115 14.024 94.6291 13.9396 94.546C13.6189 94.228 13.3231 93.8926 12.9975 93.5803C12.527 93.1419 12.0322 92.7313 11.5672 92.2978C11.3037 92.0491 11.0596 91.7782 10.6555 91.6912C10.5387 91.668 10.6279 91.5204 10.8884 91.277C11.3408 90.8578 11.8015 90.4067 12.1777 90.2442C12.4317 90.1322 12.6365 90.0655 12.6898 90.2293C12.7643 90.4702 13.1206 90.3982 13.0344 90.8127C13.0228 90.8711 13.0659 90.889 13.1083 90.8965C13.8585 90.9907 14.187 91.5699 14.6271 92.021C14.7735 92.1678 14.9732 92.2534 15.1335 92.3731C15.2435 92.4492 15.3439 92.5364 15.4394 92.6292C15.5747 92.7664 15.6809 92.937 15.8508 93.0456C15.9768 93.1258 16.1603 93.1287 16.0183 93.4947C15.9922 93.5698 16.0576 93.6071 16.1381 93.5596C16.4391 93.371 16.5041 93.4764 16.5892 93.57C16.8151 93.8055 17.0265 94.0578 17.2719 94.2711C17.4559 94.431 17.673 94.5415 17.9104 94.6401C18.2715 94.7877 18.6819 94.8899 19.0382 95.043C19.3354 95.1741 19.5897 95.3658 19.8627 95.5248C19.9281 95.5621 20.0268 95.5499 20.0874 95.5928C20.1974 95.6689 20.3567 95.6997 20.3739 95.8713C20.3926 96.0637 20.4562 96.1483 20.7504 96.0125C20.9176 95.9328 20.9867 96.0222 21.0398 96.1075C21.1048 96.2129 21.1165 96.3797 21.133 96.5408C21.1517 96.7333 21.1551 96.9321 21.4169 96.8561C21.5557 96.8203 21.5957 96.9431 21.6149 97.0675C21.6841 97.6073 22.015 97.846 22.3902 98.0449C22.8956 98.308 23.4398 98.5266 23.9549 98.7786C24.1554 98.8745 24.3275 99.0144 24.5093 99.143C25.0708 99.5332 25.5256 100.046 25.9651 100.565C26.0509 100.669 26.1319 100.779 26.2759 100.816C26.6063 100.897 26.8106 101.124 26.9665 101.406C27.1574 101.739 27.513 101.881 27.8734 102.018C27.9541 102.049 28.0695 102.052 28.1163 102.122C28.4453 102.633 29.0789 102.782 29.4758 103.215C29.7987 103.565 30.0336 104.004 30.2936 104.426C30.4892 104.752 30.6606 105.107 30.8466 105.445C30.8585 105.465 30.9002 105.462 30.9072 105.488C31.0003 105.696 30.7645 106.068 30.2558 106.507C29.8012 106.895 29.4779 107.064 29.3433 106.938C29.1969 106.791 29.0747 106.616 28.9436 106.463C28.8859 106.462 28.8665 106.484 28.8471 106.506Z" fill="#69B9CB"/>
<path d="M12.4749 100.046L20.2879 91.0585C20.4624 90.8577 20.315 90.6219 20.0624 90.5296C15.2498 88.8815 10.5911 87.1126 6.9866 85.7413C6.65815 85.6124 6.36032 85.9213 6.57391 86.2048C7.66489 87.6524 11.7205 97.7951 11.9336 99.8696C11.9477 100.146 12.2907 100.258 12.4749 100.046Z" fill="#69B9CB"/>
<path d="M12.8929 97.9436C13.3437 97.6502 13.7659 97.3222 14.2564 97.0732C14.6963 96.8486 15.1369 96.6345 15.2861 96.1475C15.3247 96.0244 15.4454 95.9531 15.5278 95.8584C15.678 95.6855 15.8283 95.5127 15.9618 95.3253C16.0241 95.2424 16.002 95.0763 16.0984 95.0329C16.5696 94.8062 16.9244 94.4881 17.0618 93.9811C17.516 93.8864 17.6078 93.4768 17.788 93.1343C17.8757 92.9658 17.9962 92.816 18.1006 92.6621C18.1954 92.5193 18.3371 92.2999 18.2971 92.177C18.2864 92.0992 18.3036 92.0456 18.3807 92.0245C18.8354 91.8618 19.06 91.4796 19.1892 91.2296C19.2251 91.1433 19.1545 91.0331 19.0779 90.986C18.9957 90.9342 18.9206 90.908 18.8488 90.8554C18.7165 90.7599 18.6132 90.631 18.4798 90.4466C18.41 90.3467 18.2944 90.2658 18.1642 90.2016C18.0396 90.1422 17.8893 90.0899 17.7119 90.0238C17.3146 89.884 16.896 89.8138 16.489 89.6851C15.9005 89.5063 15.3044 89.37 14.6698 89.3567C13.8142 89.3275 12.9758 89.2448 12.1546 89.1085C11.736 89.0382 11.3689 88.8073 10.9896 88.6244L10.425 88.3392L10.1424 88.1914C10.0498 88.1403 10.065 88.1339 10.0156 88.1007C9.88249 87.9948 9.70699 87.8814 9.52179 87.7792L9.36447 87.7012C9.13758 87.6018 8.92474 87.5539 8.77107 87.5279C8.69181 87.5178 8.60213 87.5084 8.61525 87.696C8.65891 87.871 8.85115 87.9989 8.9217 88.1092L9.50863 88.8641C9.55543 88.9341 9.57701 88.9431 9.64198 89.0485L9.9504 89.6397L10.5624 90.8275C10.7665 91.2007 10.9762 91.5788 11.1804 91.9521C11.2825 92.1387 11.3596 92.3428 11.4311 92.542L12.1703 94.7997C12.5387 95.8736 12.9327 96.9406 13.2436 98.0918C13.3295 98.421 13.4057 98.7613 13.5007 99.1474L13.5706 99.4724L13.608 99.6321L13.6213 99.6731L13.6228 99.6939L12.2659 99.836L12.2402 99.843C12.2104 99.866 12.2533 99.8054 12.2402 99.843C12.2402 99.843 12.1893 99.7889 12.2228 99.818C12.2451 99.8374 12.2402 99.843 12.2402 99.843C12.2358 99.7805 12.256 99.9938 12.184 100.088C12.1184 100.197 11.9824 100.275 11.8168 100.229C11.5742 100.204 11.418 99.8429 11.3492 99.832C11.2648 99.7489 11.2278 99.6677 11.2558 99.5453C11.3033 99.1754 10.9326 98.8923 11.1841 98.4453C11.2215 98.3799 11.1803 98.3147 11.1453 98.2648C10.428 97.3671 10.2841 96.2827 9.94915 95.2378C9.84171 94.8997 9.65236 94.5883 9.50396 94.2635C9.41085 94.0553 9.32258 93.8415 9.24959 93.6214C9.13877 93.3097 9.07302 92.9687 8.92124 92.6704C8.80583 92.4428 8.60995 92.2627 8.85761 91.9103C8.9102 91.8385 8.84449 91.7227 8.74438 91.714C8.3648 91.6777 8.31896 91.4714 8.24742 91.2722C8.04688 90.7259 7.90283 90.2385 7.64726 89.6541C7.41351 89.1573 7.17782 88.7077 6.78676 88.1328L6.3203 87.4532C6.16247 87.2181 6.09166 87.0293 5.97697 86.8122L5.823 86.4825C5.76772 86.366 5.72918 86.2639 5.70323 86.1924C5.6443 86.0237 5.60137 85.8592 5.56401 85.6994C5.53515 85.5862 5.50774 85.4939 5.49076 85.4008C5.45924 85.3245 5.47617 85.1924 5.58061 85.0385C5.6802 84.8901 5.81884 84.7757 5.91457 84.7218C6.00546 84.6736 6.08254 84.6525 6.16858 84.6098C6.25534 84.5776 6.29605 84.4857 6.38767 84.4479C6.58351 84.4028 6.76164 84.2541 7.13954 84.4162C7.4583 84.5563 7.71161 84.659 7.89411 84.5729C7.93992 84.554 7.98984 84.5191 8.03346 84.4689C8.16021 84.3344 8.53813 84.4965 8.83047 84.6331C9.21468 84.8105 9.59987 85.0768 9.93076 85.3155C10.1293 85.4587 10.3118 85.5978 10.4915 85.6952C10.5841 85.7464 10.6752 85.7766 10.7816 85.8006C10.8296 85.813 10.8873 85.8142 10.9401 85.8209C10.9818 85.818 11.0124 85.8054 11.0533 85.7921C11.2269 85.7276 11.383 85.8633 11.5071 85.9908C12.04 86.5714 12.7197 86.7805 13.4165 86.936C14.3679 87.1365 15.3317 87.2891 16.2879 87.484C16.66 87.5628 17.019 87.679 17.3828 87.7897C17.6611 87.875 17.945 87.9651 18.2191 88.0664L19.4459 88.5357L20.2267 88.8424C20.4904 88.9444 20.7437 89.0472 20.9263 89.1863C21.3122 89.463 21.5209 89.7521 21.6664 90.0352C21.7273 90.1566 21.7862 90.3253 21.8139 90.4962C21.8423 90.6775 21.8391 90.7825 21.8583 90.9068C21.9189 91.1749 21.8715 91.5448 21.6357 91.9174C21.3847 92.2962 20.9598 92.6611 20.6121 93.0049C20.391 93.2141 20.1909 93.4218 19.9963 93.6344C19.8404 93.8024 19.7837 93.8902 19.6786 94.0337C19.4924 94.2928 19.3391 94.5706 19.1808 94.854C19.1062 94.9849 19.065 95.1449 18.9513 95.2419C18.1591 95.8943 17.7237 96.8569 17.0143 97.5715C16.4373 98.1565 15.7704 98.6535 15.1257 99.1699C14.6245 99.5663 14.0955 99.9384 13.5831 100.325C13.5485 100.354 13.5465 100.401 13.5063 100.425C13.2012 100.629 12.7947 100.433 12.4043 99.8682C12.0552 99.3689 11.9538 98.9675 12.1726 98.7271C12.4164 98.4691 12.693 98.2298 12.9479 97.9816L12.8929 97.9436Z" fill="#69B9CB"/>
<path d="M31.3539 7.38449C31.0241 7.40429 30.7101 7.46618 30.3507 7.43479C30.028 7.40782 29.7081 7.37074 29.5812 7.68286C29.5495 7.7609 29.4569 7.76315 29.3993 7.7964C29.2842 7.86289 29.169 7.92938 29.0649 8.01506C29.0174 8.05101 29.0226 8.19302 28.9557 8.18048C28.6155 8.13802 28.3492 8.22352 28.227 8.55853C27.9011 8.42253 27.8153 8.70238 27.6741 8.88628C27.5329 9.07018 27.3114 9.12983 27.233 9.42249C27.2113 9.50323 27.1712 9.55196 27.0979 9.54313C26.679 9.512 26.4226 9.7624 26.1514 9.98719C25.8584 10.2332 25.5016 10.3539 25.0423 10.3119C24.7993 10.2901 24.6239 10.3999 24.4511 10.4997C24.24 10.6216 24.0695 10.8138 23.8759 10.9512C23.5835 11.1541 23.3235 11.3981 23.1225 11.7445C22.8524 12.2075 22.55 12.6295 22.2208 12.9902C22.053 13.1723 21.7976 13.2175 21.5643 13.301C21.1041 13.4643 20.6116 13.5865 20.1662 13.7755C19.8305 13.9181 19.5318 14.1247 19.2341 14.3478C18.9582 14.5497 18.723 14.822 18.4546 15.0367C17.6546 15.6606 16.8473 16.2717 16.0474 16.8957C15.8547 17.0496 15.6869 17.2317 15.4979 17.392C15.4066 17.4703 15.2979 17.5331 15.1918 17.5858C14.7867 17.7856 14.3733 17.956 13.9719 18.1621C13.4042 18.4643 12.855 18.7985 12.2937 19.097C11.9728 19.2652 11.6371 19.4078 11.4234 19.7615C11.3633 19.8644 11.2528 19.732 11.1075 19.4065C10.8585 18.8422 10.5819 18.2597 10.5507 17.8512C10.5275 17.5745 10.5311 17.3592 10.7034 17.3621C10.9554 17.3701 11.0033 17.0098 11.3672 17.2262C11.4186 17.2562 11.4496 17.2213 11.4705 17.1836C11.8038 16.5049 12.4585 16.3829 13.0281 16.1137C13.2147 16.0231 13.3606 15.8621 13.5259 15.7495C13.6337 15.6702 13.7489 15.6038 13.8677 15.5437C14.0415 15.4604 14.2374 15.4156 14.3953 15.2902C14.5122 15.1972 14.5747 15.0246 14.8745 15.278C14.9371 15.3272 14.9937 15.2775 14.9749 15.1859C14.8946 14.8399 15.0154 14.8128 15.1316 14.7628C15.4279 14.6259 15.7352 14.5081 16.0168 14.3456C16.2279 14.2237 16.4031 14.0543 16.5736 13.862C16.8307 13.5686 17.0609 13.2138 17.3217 12.9268C17.5424 12.6884 17.8065 12.5104 18.0456 12.3041C18.1022 12.2544 18.1229 12.1571 18.1831 12.1138C18.2909 12.0345 18.3719 11.8939 18.5397 11.9335C18.7278 11.9785 18.8284 11.946 18.7958 11.6236C18.7749 11.4395 18.8819 11.4033 18.9799 11.3808C19.1007 11.3537 19.2622 11.397 19.4199 11.4338C19.608 11.4788 19.797 11.5403 19.8105 11.2681C19.8218 11.1251 19.951 11.1273 20.0748 11.1496C20.6077 11.26 20.9411 11.0248 21.2514 10.7348C21.6647 10.3426 22.0485 9.89918 22.4545 9.49417C22.6105 9.33587 22.7988 9.21863 22.9796 9.08862C23.5313 8.6848 24.1642 8.42174 24.7982 8.17517C24.9244 8.12787 25.0544 8.08698 25.1363 7.9629C25.321 7.67709 25.6018 7.55764 25.9195 7.50216C26.2958 7.42992 26.5465 7.14016 26.7936 6.84399C26.8492 6.77777 26.889 6.66945 26.9704 6.64801C27.5609 6.50335 27.9085 5.9529 28.4471 5.71867C28.8825 5.52704 29.3742 5.44789 29.8576 5.33944C30.2302 5.2608 30.6212 5.21415 31.0012 5.14832C31.0241 5.14363 31.0349 5.10329 31.0615 5.105C31.2887 5.08475 31.5642 5.42897 31.8135 6.05282C32.0322 6.60898 32.087 6.96979 31.9233 7.05574C31.7368 7.14637 31.5318 7.20501 31.3443 7.27915C31.3244 7.33331 31.3391 7.3589 31.3539 7.38449Z" fill="#69B9CB"/>
<path d="M19.9164 20.7609L13.9619 10.4472C13.8289 10.2169 13.5579 10.2795 13.3884 10.4883C10.2632 14.5021 7.07392 18.3311 4.60379 21.2927C4.37498 21.5613 4.57005 21.9435 4.90769 21.8338C6.63161 21.2736 17.5421 20.7412 19.573 21.215C19.8391 21.2918 20.0568 21.004 19.9164 20.7609Z" fill="#69B9CB"/>
<path d="M18.064 19.6808C17.9334 19.159 17.7607 18.6531 17.6849 18.1082C17.6159 17.6192 17.5569 17.1328 17.145 16.8332C17.0411 16.7567 17.013 16.6194 16.9502 16.5106C16.8357 16.3123 16.7212 16.1139 16.5875 15.9266C16.5294 15.8408 16.3652 15.8076 16.3556 15.7023C16.2946 15.183 16.1094 14.7439 15.6747 14.449C15.7331 13.9887 15.3756 13.7685 15.1105 13.4866C14.9797 13.3488 14.8773 13.1861 14.7658 13.0373C14.6616 12.9012 14.5003 12.6957 14.3711 12.6936C14.2941 12.6783 14.249 12.6446 14.2542 12.5649C14.2483 12.082 13.96 11.7451 13.7658 11.5416C13.6959 11.4796 13.5686 11.5105 13.4992 11.5676C13.4234 11.6284 13.3742 11.6909 13.3011 11.7416C13.1678 11.8357 13.0123 11.8914 12.7945 11.9574C12.6773 11.9909 12.5631 12.0739 12.46 12.1761C12.3633 12.2745 12.2649 12.3996 12.1446 12.5458C11.8831 12.876 11.6804 13.2489 11.4263 13.5919C11.0656 14.0901 10.7426 14.6093 10.5235 15.205C10.2174 16.0045 9.86615 16.7703 9.46988 17.5024C9.2672 17.8753 8.92936 18.1472 8.63288 18.4463L8.1794 18.8873L7.94764 19.1064C7.86915 19.1773 7.86814 19.1608 7.82065 19.1967C7.67719 19.2881 7.51284 19.4171 7.35586 19.5589L7.23086 19.6823C7.06306 19.8645 6.94842 20.0501 6.87389 20.187C6.83847 20.2586 6.80036 20.3403 6.98202 20.389C7.16169 20.4047 7.34525 20.2646 7.47248 20.2338L8.37737 19.9246C8.45883 19.9032 8.47435 19.8857 8.59519 19.8586L9.25451 19.7594L10.5769 19.5675C10.9962 19.496 11.422 19.4208 11.8414 19.3493C12.0511 19.3135 12.2691 19.3071 12.4808 19.3043L14.8561 19.3404C15.9915 19.3418 17.1286 19.3166 18.3184 19.3974C18.6575 19.4234 19.0041 19.4622 19.4001 19.498L19.7302 19.5378L19.8934 19.5544L19.9364 19.5552L19.9566 19.5606L19.6491 20.8897L19.6474 20.9163C19.6595 20.952 19.6162 20.8917 19.6474 20.9163C19.6474 20.9163 19.5798 20.9469 19.6181 20.9247C19.6437 20.9099 19.6474 20.9163 19.6474 20.9163C19.5869 20.9001 19.7951 20.9505 19.8606 21.0491C19.9426 21.1468 19.9717 21.3006 19.8743 21.4422C19.7717 21.6635 19.3796 21.6937 19.3469 21.7552C19.2409 21.8079 19.152 21.8165 19.0454 21.7501C18.7112 21.5848 18.3228 21.8431 17.9821 21.4598C17.9324 21.4032 17.8573 21.4209 17.7987 21.4377C16.7164 21.8237 15.6442 21.6067 14.5472 21.5832C14.1926 21.5747 13.8365 21.6524 13.4811 21.6869C13.2539 21.7072 13.023 21.721 12.7912 21.7184C12.4604 21.7217 12.1165 21.6729 11.785 21.7192C11.5323 21.7543 11.2983 21.8808 11.0456 21.5319C10.9949 21.4588 10.864 21.4832 10.8231 21.5751C10.6652 21.9221 10.4553 21.8983 10.2436 21.9011C9.66179 21.9129 9.15404 21.8904 8.51832 21.9418C7.97244 22.001 7.47062 22.0775 6.79974 22.2601L6.00534 22.4799C5.73167 22.5526 5.53009 22.5581 5.28742 22.5958L4.92562 22.634C4.79739 22.6484 4.68838 22.6516 4.61233 22.6528C4.43364 22.6536 4.26405 22.6407 4.10086 22.624C3.98444 22.6144 3.88821 22.6103 3.79468 22.596C3.71223 22.601 3.59284 22.5419 3.4813 22.3931C3.37345 22.2506 3.31038 22.0823 3.29066 21.9742C3.27462 21.8726 3.27977 21.7928 3.26743 21.6976C3.26519 21.605 3.19159 21.5366 3.18566 21.4377C3.20676 21.2379 3.12423 21.021 3.40052 20.7165C3.63672 20.4607 3.81633 20.2546 3.79437 20.0541C3.7914 20.0046 3.77463 19.946 3.74138 19.8884C3.65543 19.7248 3.93174 19.4202 4.15613 19.1883C4.44892 18.8828 4.82613 18.6053 5.15955 18.3701C5.3596 18.229 5.55056 18.1017 5.70115 17.9636C5.77964 17.8927 5.83794 17.8164 5.89526 17.7236C5.92257 17.6822 5.94248 17.6281 5.96609 17.5803C5.97691 17.5399 5.97493 17.507 5.97565 17.4639C5.97116 17.2788 6.15032 17.1754 6.31126 17.0995C7.03378 16.7847 7.45273 16.2102 7.82664 15.6019C8.326 14.7676 8.78402 13.906 9.27969 13.0654C9.47525 12.7392 9.70207 12.4376 9.9252 12.1296C10.0964 11.8943 10.2741 11.6552 10.4591 11.429L11.3022 10.4218L11.8464 9.78346C12.0287 9.5673 12.2084 9.36124 12.3993 9.23393C12.7866 8.95913 13.1279 8.8559 13.443 8.81051C13.5776 8.7925 13.7563 8.79169 13.9269 8.82117C14.1075 8.85336 14.2057 8.89051 14.3295 8.91286C14.6027 8.9428 14.937 9.10809 15.2126 9.45233C15.4891 9.81306 15.6957 10.3335 15.9075 10.7743C16.0334 11.0514 16.1647 11.3083 16.3023 11.5615C16.4104 11.7635 16.475 11.8457 16.5764 11.9919C16.7608 12.2522 16.9736 12.4877 17.19 12.7296C17.2894 12.8427 17.4273 12.9338 17.482 13.0728C17.8409 14.0343 18.6093 14.7594 19.0541 15.6628C19.4193 16.3988 19.6721 17.1912 19.9505 17.9689C20.1621 18.5718 20.3417 19.1932 20.5405 19.8035C20.5563 19.8456 20.6003 19.8628 20.6097 19.9086C20.7038 20.2638 20.3855 20.5841 19.7247 20.7693C19.139 20.9369 18.7264 20.9021 18.5703 20.6169C18.4058 20.3024 18.2696 19.963 18.1179 19.6411L18.064 19.6808Z" fill="#69B9CB"/>
<path d="M46.6562 54.467C46.3555 54.3302 46.049 54.238 45.7461 54.0421C45.4735 53.8674 45.2081 53.6849 44.9499 53.9014C44.8853 53.9555 44.8025 53.9142 44.736 53.9167C44.6031 53.9215 44.4703 53.9264 44.3382 53.9535C44.2794 53.963 44.2176 54.091 44.1643 54.0486C43.8835 53.8519 43.6081 53.8029 43.3434 54.0418C43.119 53.7692 42.9122 53.9763 42.7014 54.0728C42.4905 54.1693 42.2669 54.1184 42.0606 54.3404C42.0037 54.4016 41.9455 54.4259 41.8848 54.3838C41.5291 54.1603 41.1854 54.2617 40.8406 54.3335C40.4665 54.4138 40.0947 54.3535 39.7084 54.1016C39.5039 53.9687 39.2974 53.9837 39.0981 53.991C38.8544 53.9999 38.6138 54.0901 38.3784 54.1209C38.0251 54.1635 37.6811 54.2575 37.3414 54.4696C36.8861 54.7525 36.4214 54.984 35.9618 55.1487C35.7282 55.2312 35.4813 55.1516 35.2361 55.1163C34.7529 55.0453 34.2605 54.923 33.7785 54.8816C33.4151 54.8506 33.0544 54.8934 32.6869 54.9513C32.3486 55.0007 32.0134 55.1313 31.6756 55.1955C30.6767 55.3727 29.6773 55.5352 28.6784 55.7124C28.4361 55.7582 28.2026 55.8408 27.9606 55.894C27.8433 55.9205 27.7178 55.9251 27.5994 55.9221C27.1479 55.9091 26.7028 55.8664 26.2516 55.8608C25.6085 55.8622 24.9667 55.9006 24.331 55.9018C23.9687 55.9004 23.6053 55.8694 23.2509 56.082C23.1497 56.1449 23.114 55.9762 23.1378 55.6204C23.1817 55.0052 23.2098 54.361 23.3734 53.9854C23.4823 53.73 23.5862 53.5414 23.7371 53.6245C23.9561 53.7496 24.167 53.4535 24.3873 53.815C24.4188 53.8656 24.4625 53.8492 24.4986 53.8257C25.1107 53.3818 25.7464 53.5802 26.3758 53.6088C26.5831 53.6159 26.7873 53.5419 26.9861 53.5198C27.1185 53.5001 27.2514 53.4953 27.3845 53.4978C27.577 53.5055 27.7711 53.5575 27.9694 53.5206C28.1162 53.493 28.2522 53.3697 28.3986 53.734C28.4309 53.8067 28.5042 53.7892 28.5304 53.6996C28.6213 53.3562 28.7408 53.3887 28.8668 53.3989C29.1928 53.4164 29.5195 53.4562 29.8444 53.4442C30.088 53.4353 30.3221 53.3675 30.5627 53.2774C30.9272 53.1383 31.2967 52.9325 31.6615 52.8008C31.968 52.6934 32.2847 52.6596 32.5926 52.5891C32.6659 52.5716 32.7296 52.4953 32.8032 52.4852C32.9355 52.4656 33.0728 52.3792 33.2026 52.4927C33.3478 52.6204 33.452 52.6388 33.574 52.3386C33.6416 52.1661 33.7531 52.1841 33.8502 52.2101C33.9697 52.2427 34.0922 52.3565 34.2144 52.4629C34.3595 52.5906 34.4979 52.7334 34.6371 52.4991C34.714 52.378 34.8271 52.4403 34.9261 52.518C35.3455 52.8649 35.7502 52.813 36.1601 52.7018C36.7089 52.5486 37.2555 52.3362 37.8038 52.1682C38.0157 52.1013 38.237 52.0857 38.4576 52.0554C39.1341 51.9566 39.8166 52.0202 40.4922 52.0989C40.626 52.1161 40.7599 52.1408 40.8904 52.0695C41.1874 51.9033 41.4914 51.9291 41.7982 52.0287C42.1646 52.1409 42.5217 52.0021 42.8786 51.8559C42.9587 51.8233 43.0446 51.7462 43.1266 51.7654C43.7161 51.9138 44.2808 51.5899 44.8665 51.6349C45.3409 51.6692 45.8125 51.8293 46.2905 51.9595C46.6566 52.0643 47.024 52.2061 47.3907 52.3257C47.4131 52.3322 47.4415 52.3016 47.4642 52.3156C47.6745 52.4039 47.757 52.8371 47.6854 53.5051C47.6185 54.0989 47.4981 54.4434 47.3133 54.4428C47.106 54.4357 46.8974 54.3916 46.697 54.3694C46.6541 54.408 46.6552 54.4375 46.6562 54.467Z" fill="#69B9CB"/>
<path d="M30.2892 60.9389L29.8515 49.0378C29.8417 48.7721 29.5729 48.7006 29.3255 48.8058C24.6856 50.8912 20.0755 52.7834 16.5068 54.2453C16.1789 54.3757 16.1726 54.8047 16.5223 54.8658C18.308 55.1771 28.2 59.8107 29.7732 61.1797C29.9725 61.3719 30.2996 61.2195 30.2892 60.9389Z" fill="#69B9CB"/>
<path d="M29.1575 59.1174C29.2861 58.5952 29.3702 58.0672 29.5582 57.5502C29.7259 57.0856 29.9013 56.6282 29.6775 56.1707C29.6214 56.0545 29.6609 55.92 29.6563 55.7945C29.6478 55.5656 29.6394 55.3367 29.6088 55.1087C29.5977 55.0056 29.4681 54.8995 29.5088 54.8019C29.6979 54.3144 29.7396 53.8397 29.4933 53.3756C29.7603 52.9962 29.5474 52.6344 29.4449 52.2611C29.3939 52.0782 29.3794 51.8865 29.3505 51.7027C29.3221 51.5337 29.2757 51.2767 29.1625 51.2143C29.1015 51.1648 29.0775 51.1139 29.1193 51.0459C29.3401 50.6164 29.2429 50.1838 29.1664 49.913C29.1336 49.8255 29.0067 49.7932 28.9187 49.8113C28.8232 49.8296 28.7505 49.8618 28.6622 49.8724C28.5003 49.8932 28.3368 49.8696 28.1134 49.8261C27.9942 49.8009 27.8544 49.8208 27.7155 49.8629C27.584 49.9047 27.4385 49.9692 27.2638 50.0422C26.8782 50.2116 26.5246 50.4464 26.1395 50.6306C25.5877 50.9023 25.0593 51.21 24.587 51.634C23.9424 52.1974 23.2737 52.7099 22.581 53.1715C22.2274 53.4063 21.8016 53.4885 21.3996 53.6142L20.7925 53.7918L20.4852 53.877C20.3826 53.903 20.3895 53.8879 20.3307 53.8975C20.1611 53.9111 19.9555 53.9483 19.7504 54.0002L19.5823 54.0507C19.3487 54.1332 19.1606 54.2436 19.0307 54.3297C18.9658 54.3765 18.8939 54.4309 19.0317 54.5589C19.1832 54.6568 19.4109 54.6188 19.5378 54.6511L20.4822 54.8012C20.5642 54.8204 20.5861 54.8122 20.7056 54.8448L21.3347 55.0656L22.5932 55.5146C22.9973 55.6476 23.4088 55.7803 23.8129 55.9133C24.015 55.9798 24.2107 56.0761 24.3991 56.1727L26.4816 57.3159C27.4844 57.8482 28.5012 58.3579 29.5149 58.986C29.8025 59.1676 30.0906 59.364 30.4239 59.5809L30.697 59.7705L30.8334 59.8616L30.8712 59.8823L30.8865 59.8966L29.9929 60.9275L29.979 60.9502C29.9729 60.9873 29.9628 60.9138 29.979 60.9502C29.979 60.9502 29.9049 60.9455 29.9492 60.9439C29.9787 60.9428 29.979 60.9502 29.979 60.9502C29.933 60.9075 30.0935 61.0494 30.1052 61.1673C30.132 61.292 30.0858 61.4415 29.9334 61.5211C29.7393 61.6687 29.3786 61.5119 29.3209 61.551C29.2025 61.548 29.12 61.514 29.0568 61.4055C28.8387 61.103 28.3747 61.1496 28.2528 60.6514C28.2354 60.5781 28.1607 60.5587 28.1011 60.5461C26.964 60.3809 26.1178 59.6876 25.1593 59.1536C24.8498 58.9801 24.4988 58.8822 24.1685 58.7465C23.9582 58.6581 23.7477 58.5623 23.544 58.4515C23.2501 58.2997 22.9691 58.0957 22.6544 57.9815C22.4146 57.8943 22.1486 57.8967 22.0885 57.4701C22.0779 57.3818 21.9507 57.3421 21.8717 57.4041C21.5698 57.637 21.3954 57.5178 21.207 57.4212C20.6872 57.1594 20.249 56.902 19.6631 56.65C19.1529 56.447 18.6736 56.2798 17.9953 56.1273L17.1903 55.9499C16.9145 55.8861 16.7337 55.7967 16.5016 55.7165L16.1639 55.5811C16.0439 55.5337 15.946 55.4856 15.8782 55.4511C15.7199 55.3682 15.5761 55.2774 15.4397 55.1863C15.3413 55.1234 15.2582 55.0747 15.1822 55.0184C15.107 54.9842 15.0291 54.8762 15.0001 54.6924C14.9715 54.516 14.9945 54.3377 15.0276 54.233C15.061 54.1357 15.1028 54.0676 15.1365 53.9777C15.1778 53.8948 15.1448 53.7999 15.1858 53.7097C15.2979 53.5429 15.3264 53.3127 15.7131 53.1728C16.0415 53.0572 16.2967 52.9592 16.3711 52.7716C16.3916 52.7265 16.4042 52.6669 16.4018 52.6004C16.4023 52.4156 16.789 52.2757 17.0959 52.1757C17.4976 52.0426 17.9608 51.9738 18.3655 51.922C18.6083 51.8909 18.8366 51.8677 19.0343 51.8161C19.1369 51.7901 19.2241 51.7499 19.3182 51.6947C19.3617 51.6709 19.4046 51.6324 19.4478 51.6012C19.4762 51.5706 19.4899 51.5405 19.5107 51.5028C19.5933 51.3371 19.8001 51.3295 19.9778 51.3378C20.7636 51.3976 21.4027 51.0858 22.0178 50.7231C22.8494 50.2193 23.6573 49.6721 24.4886 49.161C24.8141 48.9642 25.1556 48.8038 25.4969 48.636C25.7583 48.5081 26.0272 48.3799 26.2965 48.2665L27.5129 47.7708L28.2925 47.4612C28.5548 47.3554 28.8099 47.2573 29.0383 47.2342C29.5091 47.1725 29.8591 47.2409 30.1587 47.3482C30.2862 47.3953 30.4445 47.4781 30.5814 47.584C30.7261 47.697 30.7955 47.7757 30.8944 47.8534C31.1219 48.0077 31.34 48.3102 31.4225 48.7433C31.4981 49.1915 31.4373 49.7482 31.4183 50.2368C31.3999 50.5406 31.3957 50.8291 31.3989 51.1173C31.4 51.3464 31.4185 51.4492 31.4398 51.6259C31.481 51.9422 31.5589 52.2499 31.637 52.5649C31.672 52.7114 31.7512 52.8564 31.7345 53.0049C31.6019 54.0226 31.9418 55.0229 31.9123 56.0294C31.8908 56.8508 31.7435 57.6694 31.6257 58.4869C31.5306 59.1188 31.3987 59.752 31.2889 60.3845C31.2831 60.429 31.314 60.4649 31.3009 60.5097C31.2179 60.8676 30.7867 61.0018 30.116 60.8564C29.5199 60.7305 29.1716 60.5067 29.1671 60.1816C29.1688 59.8267 29.2072 59.463 29.2237 59.1076L29.1575 59.1174Z" fill="#69B9CB"/>
</svg>
