<svg width="59" height="31" viewBox="0 0 59 31" fill="none" xmlns="http://www.w3.org/2000/svg">
<path d="M24.9365 23.8482C24.8568 23.5214 24.825 23.2346 24.825 22.9716C24.8329 22.6926 24.9445 22.3659 25.1517 22.1268C25.3589 21.8638 25.614 21.7522 25.8849 21.6566C26.1639 21.545 26.4906 21.4653 26.8413 21.4254L27.8614 21.3059L28.6026 21.2422L29.9893 21.1465C31.639 21.0589 33.2648 20.9791 34.8747 20.4611C35.2891 20.3256 35.7593 20.2937 36.2056 20.214C37.0105 20.0626 37.8235 19.9271 38.6284 19.7598C38.995 19.688 39.3616 19.4808 39.7122 19.4649C41.4337 19.3852 43.1232 19.1461 44.765 18.6042C46.1358 18.668 47.387 18.2217 48.694 17.8949C50.001 17.5681 51.3559 17.3928 52.6231 16.9226C52.9578 16.803 53.3563 16.7074 53.7069 16.6835C54.3604 16.6516 55.1734 16.5481 55.4921 16.5162C55.7233 16.4684 56.0022 16.5082 56.1775 16.3169C56.3608 16.1257 56.2413 15.8547 56.2014 15.6236C56.058 14.994 55.9145 14.3564 55.7711 13.7188C55.261 11.4395 54.9103 9.12832 54.7509 6.80118L54.727 6.41861C54.7191 6.29906 54.7031 6.18748 54.6952 6.06794C54.6713 5.8687 54.6473 5.66946 54.6155 5.47022C54.5677 5.27098 54.4003 5.10361 54.201 5.07173C53.8026 5.06377 53.4041 5.19929 53.0056 5.26305C51.5631 5.54996 50.0728 5.94046 48.6064 6.25128C46.4625 6.71351 44.3506 7.22354 42.2546 7.86111C39.4572 8.71386 36.628 9.50289 33.7908 10.2361C32.3483 10.6107 30.8341 10.8099 29.3517 11.0569L27.1043 11.4236L25.9806 11.5989L24.3548 11.8778C24.0599 11.9257 23.7809 11.9256 23.5339 11.9017C23.2788 11.8698 23.0796 11.838 22.8405 11.7184C22.6094 11.6069 22.3942 11.4156 22.2508 11.2004C22.0993 10.9772 22.0356 10.7701 21.9798 10.531C21.8443 10.0528 21.9081 9.40724 21.916 8.83343L21.9639 7.55826L22.0117 5.74121L22.0196 4.73703C22.0196 4.49794 22.0196 4.26683 22.0037 4.05165C21.9718 3.80459 21.5973 3.74881 21.4538 3.96399L20.9517 4.46608L20.7206 4.70516L20.617 4.8167L20.346 5.07971L18.0348 7.25546L4.17563 19.959C3.57791 20.5009 3.76918 20.3655 3.72136 20.4292C3.70542 20.4771 3.76919 20.5169 3.83294 20.493L3.86482 20.485L4.08 20.5567L11.9779 23.3461L23.3346 27.2194C24.4105 27.586 25.4785 27.9685 26.5544 28.3192C27.0963 28.4945 27.6303 28.6619 28.1722 28.8213L28.5787 28.9408L28.7859 28.9966L28.8895 29.0205L28.9373 29.0364L28.9612 29.0444L28.9692 29.0444L28.5946 30.1522L28.5946 30.1602C28.5707 30.2479 28.5866 30.2558 28.5787 30.2319C28.5707 30.2159 28.5548 30.1921 28.5627 30.2C28.5707 30.208 28.6026 30.216 28.6026 30.216C28.5946 30.216 28.5787 30.2159 28.5468 30.2319C28.499 30.2558 28.499 30.2478 28.5627 30.2239C28.5946 30.208 28.6105 30.216 28.6026 30.216C28.5946 30.216 28.5866 30.216 28.5787 30.208L28.6265 30.2399C28.6584 30.2638 28.6823 30.2877 28.7141 30.3195C28.8098 30.4391 28.8337 30.6384 28.6823 30.8057C28.6105 30.8854 28.491 30.9492 28.3475 30.9651C28.2121 30.9811 28.0846 30.997 27.9411 30.997C27.1601 31.0129 26.4428 30.989 25.606 30.6065C24.3946 30.0486 22.976 29.8892 21.8682 29.0922C21.7088 28.9807 21.4538 28.909 21.2386 28.8691C17.3973 28.0482 13.7551 26.5659 10.0652 25.2588C8.86178 24.8285 7.61851 24.4937 6.39916 24.0953C5.61016 23.8402 4.82118 23.5772 4.03219 23.3063L2.1115 22.6129C1.7449 22.4854 1.36235 22.3499 1.0595 22.1906C0.756656 22.0152 0.477728 21.9196 0.246608 21.6725C-0.0562381 21.3378 -0.0801562 20.748 0.174872 20.4611C0.390052 20.1583 0.708838 19.8076 1.17108 19.5526C1.3225 19.4649 1.47392 19.3932 1.63332 19.3294C1.86444 19.2338 2.24698 18.8752 2.33465 18.6759C2.58171 17.9746 3.17146 17.5123 3.74528 17.0262C5.29139 15.7112 6.8614 14.4202 8.3836 13.0813C9.50732 12.093 10.6071 11.0569 11.6751 10.0049C13.3327 8.37117 14.9346 6.68961 16.6083 5.06381C17.3016 4.38639 18.0189 3.71692 18.7362 3.05544L20.4417 1.50933C20.7525 1.22242 21.0713 0.943502 21.3741 0.776139C21.669 0.624717 21.9479 0.513122 22.179 0.457334C22.4102 0.393577 22.5775 0.321839 22.8883 0.345748C23.1752 0.361688 23.494 0.473266 23.7411 0.648599C24.1077 0.919566 24.2113 1.13475 24.3946 1.44556C24.5699 1.74841 24.7214 2.20267 24.7054 2.78446C24.6895 3.11121 24.6656 3.42203 24.6337 3.73284C24.5938 4.13133 24.562 4.48996 24.5381 4.83266C24.5301 5.00002 24.5221 5.16739 24.5141 5.33475C24.5062 5.51008 24.5062 5.54996 24.5141 5.66153C24.5221 6.0361 24.5938 6.40266 24.7453 6.80911C24.8329 7.03226 24.8728 7.32716 24.8807 7.63001C24.8887 7.78143 24.8807 7.94084 24.8807 8.09226L24.8728 8.32336L24.8648 8.43495C24.8648 8.45089 24.8648 8.44293 24.8568 8.4509L24.7453 8.62621C24.6895 8.70591 24.6098 8.84936 24.6417 8.9689C24.6735 9.11236 24.7771 9.12831 24.9126 9.13628C24.9764 9.13628 25.0481 9.12034 25.1198 9.08847L25.1677 9.06453L25.3191 9.00874C25.4227 8.96889 25.5343 8.92109 25.6379 8.87327C26.1081 8.65012 26.8094 8.58635 27.3832 8.56244C29.9335 8.45087 32.428 7.9169 34.9066 7.31918L44.9881 4.79282C46.3031 4.46606 47.642 4.1951 48.973 3.90022L52.2325 3.22277L53.5316 2.96779C54.0576 2.84027 54.5597 2.85621 54.9582 2.96779C55.3726 3.07139 55.8269 3.35031 56.1138 3.693C56.3927 4.01179 56.5999 4.41825 56.7115 4.94424L57.0781 7.01633L57.3331 8.49872L57.8272 11.4714C57.9627 12.2923 58.0902 13.1291 58.3054 13.9101L58.4329 14.3723L58.4967 14.6034L58.5843 14.9939C58.7039 15.5678 58.8952 16.1974 58.8155 16.7154C58.7756 17.1936 58.5525 17.7196 58.1699 18.1021C57.8033 18.4687 57.3809 18.6919 56.7673 18.8114L55.9145 18.9469L55.2769 19.0425L54.3684 19.1541C52.105 19.4171 49.9054 19.9511 47.7138 20.485C47.2037 20.6126 46.6937 20.7799 46.1756 20.8437C42.5734 21.2979 39.0667 22.2543 35.4883 22.8201C34.0379 23.0513 32.5874 23.2425 31.1369 23.4338L28.9532 23.7048L28.4512 23.7605L28.3475 23.7446L28.0925 23.7287C27.9969 23.7207 27.9012 23.7845 27.8853 23.8642C27.8773 23.9359 27.9012 24.0156 27.9172 24.1032L27.9491 24.2547L27.973 24.3423L28.0766 24.6053L28.5149 25.6733L29.3916 27.8091C29.4474 27.9446 29.543 28.0721 29.5988 28.2076C30.069 29.4031 29.8299 29.9769 28.9134 29.7537C28.1005 29.5545 27.3992 28.9488 26.8971 27.9048L25.1995 24.2148C25.1517 24.1032 25.1039 23.9917 25.072 23.8801L24.9365 23.8482Z" fill="#69B9CB"/>
</svg>
