<svg width="92" height="80" viewBox="0 0 92 80" fill="none" xmlns="http://www.w3.org/2000/svg">
<path d="M78.1756 1.30957L75.0689 1.71303L34.9242 3.26349C30.7513 3.26349 27.3622 6.64682 27.3622 10.8198L29.9904 67.6736L61.4318 67.5353C60.9592 78.5383 69.8354 77.6738 69.8354 77.6738L67.0111 77.8928C67.0803 77.887 69.9679 77.668 70.0371 77.6623C72.8556 77.3914 76.3946 75.9504 76.4925 71.2068C76.0833 52.4746 75.2706 15.0043 75.2706 15.0043C74.8787 13.8112 74.1409 11.0446 74.896 7.63819C75.628 4.38166 77.3341 2.2433 78.1756 1.30957ZM75.2476 13.7363L75.2533 13.84L75.2476 13.7363Z" fill="#CEE1F2"/>
<path d="M69.3392 15.4593C68.9011 15.3555 68.4631 15.2864 68.0308 15.1307C67.6446 14.9924 67.2642 14.8541 66.878 15.027C66.78 15.0731 66.6705 15.0385 66.561 15.0385C66.3708 15.0443 66.1806 15.05 65.9846 15.0673C65.8982 15.0789 65.806 15.1769 65.7253 15.1423C65.3218 14.9924 64.9241 14.9578 64.5322 15.1423C64.2152 14.929 63.9155 15.0962 63.6042 15.1711C63.293 15.246 62.976 15.2057 62.6705 15.3844C62.5898 15.4305 62.4976 15.4478 62.4111 15.4247C61.9039 15.2518 61.4024 15.3325 60.8952 15.3901C60.3534 15.4535 59.8059 15.4074 59.2641 15.2172C58.9759 15.1135 58.6704 15.1307 58.3765 15.1365C58.0249 15.148 57.6733 15.2172 57.3217 15.246C56.8145 15.2864 56.3073 15.3613 55.8058 15.5284C55.1315 15.7532 54.4571 15.9319 53.777 16.0702C53.4312 16.1394 53.0738 16.076 52.7222 16.0529C52.019 16.0011 51.3158 15.9089 50.6127 15.88C50.0824 15.857 49.5579 15.8916 49.0334 15.9377C48.5435 15.978 48.0536 16.0818 47.5636 16.1336C46.1054 16.2835 44.6529 16.4103 43.1947 16.5602C42.8431 16.5947 42.4973 16.6639 42.1457 16.7043C41.9728 16.7273 41.7941 16.7331 41.6212 16.7273C40.9699 16.7158 40.3186 16.687 39.6673 16.6927C38.7335 16.6985 37.8056 16.7331 36.8718 16.7388C36.3416 16.7388 35.8171 16.7158 35.2926 16.8829C35.1485 16.929 35.0966 16.8022 35.1427 16.5256C35.2292 16.0414 35.2926 15.54 35.5346 15.2518C35.7018 15.0558 35.8574 14.9002 36.0707 14.9694C36.3819 15.0673 36.6989 14.831 37.0102 15.1135C37.0563 15.1538 37.1139 15.1365 37.1658 15.1192C38.0649 14.7676 38.9871 14.9233 39.8978 14.9405C40.1975 14.9463 40.4915 14.8887 40.7912 14.8656C40.9872 14.8541 41.1774 14.8426 41.3733 14.8483C41.6558 14.8483 41.9382 14.8887 42.2149 14.8598C42.4281 14.8368 42.6298 14.7388 42.8258 15.0212C42.8662 15.0789 42.9757 15.0616 43.016 14.9924C43.1601 14.7273 43.333 14.7503 43.5117 14.7561C43.9843 14.7676 44.457 14.7964 44.9296 14.7849C45.2812 14.7734 45.627 14.7215 45.9728 14.6524C46.5089 14.5428 47.0449 14.3757 47.5867 14.2719C48.0363 14.1855 48.4916 14.1567 48.9469 14.099C49.0507 14.0875 49.1544 14.0241 49.2582 14.0183C49.4484 14.001 49.6501 13.9319 49.8346 14.0183C50.0363 14.1163 50.1977 14.1336 50.3764 13.8973C50.4801 13.7647 50.6415 13.7763 50.7798 13.7935C50.9527 13.8166 51.1256 13.9031 51.2986 13.9895C51.5061 14.0875 51.6963 14.197 51.9095 14.0183C52.0248 13.9204 52.1862 13.9722 52.3245 14.0356C52.9182 14.3008 53.5118 14.2604 54.1055 14.1682C54.9067 14.0414 55.7078 13.8742 56.5148 13.7417C56.8318 13.6898 57.1488 13.6725 57.4658 13.6495C58.4514 13.5688 59.437 13.6149 60.4226 13.6725C60.6186 13.684 60.8145 13.7013 61.0047 13.6495C61.4428 13.5227 61.8808 13.5399 62.3189 13.6091C62.8492 13.6956 63.3737 13.5861 63.8982 13.465C64.0192 13.4362 64.1402 13.3786 64.2613 13.3959C65.1086 13.5111 65.9443 13.2518 66.7916 13.2806C67.4775 13.3036 68.1576 13.4247 68.8435 13.5227C69.3737 13.5976 69.8983 13.7071 70.4285 13.7993C70.4631 13.8051 70.4977 13.782 70.5323 13.7878C70.832 13.857 70.9357 14.1912 70.8089 14.7158C70.6937 15.1769 70.5034 15.4535 70.2326 15.4478C69.9328 15.4478 69.6331 15.4132 69.3334 15.3901C69.3392 15.4074 69.3392 15.4305 69.3392 15.4593Z" fill="black"/>
<path d="M69.3054 25.5805C68.8674 25.4767 68.4293 25.4076 67.997 25.2519C67.6108 25.1136 67.2304 24.9753 66.8443 25.1482C66.7463 25.1943 66.6368 25.1597 66.5273 25.1597C66.3371 25.1655 66.1468 25.1712 65.9509 25.1885C65.8644 25.2001 65.7722 25.298 65.6915 25.2635C65.288 25.1136 64.8903 25.079 64.4984 25.2635C64.1814 25.0502 63.8817 25.2174 63.5704 25.2923C63.2592 25.3672 62.9422 25.3269 62.6367 25.5055C62.556 25.5516 62.4638 25.5689 62.3773 25.5459C61.8701 25.373 61.3687 25.4537 60.8615 25.5113C60.3197 25.5747 59.7721 25.5286 59.2303 25.3384C58.9421 25.2346 58.6367 25.2519 58.3427 25.2577C57.9911 25.2692 57.6395 25.3384 57.2879 25.3672C56.7807 25.4076 56.2735 25.4825 55.7721 25.6496C55.0977 25.8744 54.4233 26.0531 53.7432 26.1914C53.3974 26.2606 53.04 26.1972 52.6884 26.1741C51.9853 26.1223 51.2821 26.03 50.5789 26.0012C50.0486 25.9782 49.5241 26.0127 48.9996 26.0589C48.5097 26.0992 48.0198 26.203 47.5299 26.2548C46.0716 26.4047 44.6192 26.5315 43.1609 26.6813C42.8093 26.7159 42.4635 26.7851 42.1119 26.8254C41.939 26.8485 41.7603 26.8543 41.5874 26.8485C40.9361 26.837 40.2848 26.8082 39.6335 26.8139C38.6998 26.8197 37.7718 26.8543 36.8381 26.86C36.3078 26.86 35.7833 26.837 35.2588 27.0041C35.1147 27.0502 35.0628 26.9234 35.1089 26.6468C35.1896 26.1626 35.2588 25.6612 35.5009 25.373C35.668 25.177 35.8236 25.0214 36.0369 25.0905C36.3482 25.1885 36.6652 24.9522 36.9764 25.2404C37.0225 25.2808 37.0801 25.2635 37.132 25.2462C38.0312 24.8946 38.9534 25.0502 39.8641 25.0675C40.1638 25.0733 40.4577 25.0156 40.7574 24.9926C40.9534 24.981 41.1436 24.9695 41.3396 24.9753C41.622 24.9753 41.9044 25.0156 42.1811 24.9868C42.3943 24.9637 42.5961 24.8658 42.792 25.1482C42.8324 25.2058 42.9419 25.1885 42.9823 25.1194C43.1263 24.8542 43.2993 24.8773 43.4779 24.8831C43.9506 24.8946 44.4232 24.9234 44.8958 24.9119C45.2474 24.9003 45.5932 24.8485 45.9391 24.7793C46.4751 24.6698 47.0111 24.5026 47.5529 24.3989C48.0025 24.3124 48.4578 24.2836 48.9132 24.226C49.0169 24.2145 49.1207 24.1511 49.2244 24.1453C49.4146 24.128 49.6163 24.0588 49.8008 24.1453C50.0025 24.2433 50.1639 24.2606 50.3426 24.0242C50.4463 23.8917 50.6077 23.9032 50.7461 23.9205C50.919 23.9436 51.0919 24.03 51.2648 24.1165C51.4723 24.2145 51.6625 24.324 51.8757 24.1453C51.991 24.0473 52.1524 24.0992 52.2907 24.1626C52.8844 24.4277 53.4781 24.3874 54.0717 24.2951C54.8729 24.1683 55.6741 24.0012 56.481 23.8686C56.798 23.8168 57.115 23.7995 57.432 23.7764C58.4176 23.6957 59.4032 23.7418 60.3888 23.7995C60.5848 23.811 60.7808 23.8283 60.971 23.7764C61.409 23.6496 61.8471 23.6669 62.2851 23.7361C62.8154 23.8225 63.3399 23.713 63.8644 23.592C63.9854 23.5631 64.1065 23.5055 64.2275 23.5228C65.0748 23.6381 65.9105 23.3787 66.7578 23.4075C67.4437 23.4306 68.1238 23.5516 68.8097 23.6496C69.34 23.7245 69.8645 23.834 70.3947 23.9263C70.4293 23.932 70.4639 23.909 70.4985 23.9147C70.7982 23.9839 70.902 24.3182 70.7752 24.8427C70.6599 25.3038 70.4697 25.5805 70.1988 25.5747C69.8991 25.5747 69.5993 25.5401 69.2996 25.5171C69.3054 25.5344 69.3054 25.5574 69.3054 25.5805Z" fill="black"/>
<path d="M68.9305 58.3012C68.4925 58.1974 68.0544 58.1283 67.6222 57.9726C67.236 57.8343 66.8556 57.696 66.4694 57.8689C66.3714 57.915 66.2619 57.8804 66.1524 57.8804C65.9622 57.8862 65.7662 57.8919 65.576 57.9092C65.4896 57.9208 65.3973 58.0187 65.3166 57.9842C64.9132 57.8343 64.5155 57.7997 64.1235 57.9842C63.8065 57.7709 63.5068 57.9381 63.1956 58.013C62.8843 58.0879 62.5673 58.0476 62.2618 58.2262C62.1812 58.2724 62.0889 58.2896 62.0025 58.2666C61.4953 58.0937 60.9938 58.1744 60.4866 58.232C59.9448 58.2954 59.3972 58.2493 58.8555 58.0591C58.5673 57.9553 58.2618 57.9726 57.9678 57.9784C57.6162 57.9899 57.2647 58.0591 56.9131 58.0879C56.4059 58.1283 55.8986 58.2032 55.3972 58.3703C54.7228 58.5951 54.0485 58.7738 53.3683 58.9121C53.0225 58.9813 52.6652 58.9179 52.3136 58.8948C51.6104 58.843 50.9072 58.7507 50.204 58.7219C49.6738 58.6989 49.1493 58.7334 48.6248 58.7796C48.1348 58.8199 47.6449 58.9237 47.155 58.9755C45.6968 59.1254 44.2443 59.2522 42.7861 59.402C42.4345 59.4366 42.0886 59.5058 41.7371 59.5461C41.5641 59.5692 41.3855 59.575 41.2125 59.5692C40.5612 59.5577 39.9099 59.5289 39.2586 59.5346C38.3249 59.5404 37.3969 59.575 36.4632 59.5807C35.9329 59.5807 35.4084 59.5577 34.8839 59.7248C34.7398 59.7709 34.688 59.6441 34.7341 59.3675C34.8148 58.8833 34.8839 58.3819 35.126 58.0937C35.2932 57.8977 35.4488 57.7421 35.662 57.8112C35.9733 57.9092 36.2903 57.6729 36.6015 57.9611C36.6476 58.0015 36.7053 57.9842 36.7572 57.9669C37.6563 57.6153 38.5785 57.7709 39.4892 57.7882C39.7889 57.794 40.0828 57.7363 40.3826 57.7133C40.5785 57.7017 40.7687 57.6902 40.9647 57.696C41.2471 57.696 41.5296 57.7363 41.8062 57.7075C42.0195 57.6844 42.2212 57.5865 42.4172 57.8689C42.4575 57.9265 42.567 57.9092 42.6074 57.8401C42.7515 57.5749 42.9244 57.598 43.1031 57.6038C43.5757 57.6153 44.0483 57.6441 44.521 57.6326C44.8725 57.621 45.2184 57.5692 45.5642 57.5C46.1002 57.3905 46.6363 57.2233 47.1781 57.1196C47.6276 57.0331 48.083 57.0043 48.5383 56.9467C48.6421 56.9352 48.7458 56.8718 48.8495 56.866C49.0398 56.8487 49.2415 56.7795 49.4259 56.866C49.6277 56.964 49.789 56.9813 49.9677 56.7449C50.0715 56.6124 50.2329 56.6239 50.3712 56.6412C50.5441 56.6643 50.717 56.7507 50.8899 56.8372C51.0974 56.9352 51.2876 57.0447 51.5009 56.866C51.6162 56.768 51.7775 56.8199 51.9159 56.8833C52.5095 57.1484 53.1032 57.1081 53.6969 57.0158C54.498 56.889 55.2992 56.7219 56.1061 56.5893C56.4231 56.5375 56.7402 56.5202 57.0572 56.4971C58.0428 56.4164 59.0284 56.4625 60.014 56.5202C60.2099 56.5317 60.4059 56.549 60.5961 56.4971C61.0342 56.3703 61.4722 56.3876 61.9103 56.4568C62.4405 56.5432 62.965 56.4337 63.4895 56.3127C63.6106 56.2838 63.7316 56.2262 63.8526 56.2435C64.6999 56.3588 65.5357 56.0994 66.3829 56.1282C67.0688 56.1513 67.749 56.2723 68.4348 56.3703C68.9651 56.4452 69.4896 56.5547 70.0199 56.647C70.0545 56.6527 70.0891 56.6297 70.1236 56.6354C70.4233 56.7046 70.5271 57.0389 70.4003 57.5634C70.285 58.0245 70.0948 58.3012 69.8239 58.2954C69.5242 58.2954 69.2245 58.2608 68.9248 58.2378C68.9305 58.2493 68.9305 58.2724 68.9305 58.3012Z" fill="black"/>
<path d="M66.0364 47.4076C65.5984 47.3039 65.1603 47.2347 64.728 47.0791C64.3419 46.9408 63.9614 46.8024 63.5753 46.9753C63.4773 47.0214 63.3678 46.9869 63.2583 46.9869C63.0681 46.9926 62.8778 46.9984 62.6819 47.0157C62.5954 47.0272 62.5032 47.1252 62.4225 47.0906C62.019 46.9408 61.6213 46.9062 61.2294 47.0906C60.9124 46.8773 60.6127 47.0445 60.3014 47.1194C59.9902 47.1944 59.6732 47.154 59.3677 47.3327C59.287 47.3788 59.1948 47.3961 59.1083 47.373C58.6011 47.2001 58.0997 47.2808 57.5925 47.3385C57.0507 47.4019 56.5031 47.3557 55.9613 47.1655C55.6731 47.0618 55.3677 47.0791 55.0737 47.0848C54.7221 47.0964 54.3705 47.1655 54.0189 47.1944C53.5117 47.2347 53.0045 47.3096 52.5031 47.4768C51.8287 47.7016 51.1543 47.8802 50.4742 48.0186C50.1284 48.0877 49.771 48.0243 49.4194 48.0013C48.7163 47.9494 48.0131 47.8572 47.3099 47.8284C46.7796 47.8053 46.2551 47.8399 45.7249 47.886C45.2349 47.9264 44.745 48.0301 44.2551 48.082C42.7969 48.2318 41.3444 48.3586 39.8862 48.5085C39.5346 48.5431 39.1888 48.6122 38.8372 48.6526C38.6642 48.6757 38.4856 48.6814 38.3127 48.6756C37.6613 48.6641 37.01 48.6353 36.3587 48.6411C35.425 48.6468 34.497 48.6814 33.5633 48.6872C33.033 48.6872 32.5085 48.6641 31.984 48.8313C31.8399 48.8774 31.7881 48.7506 31.8342 48.4739C31.9206 47.9898 31.984 47.4883 32.2261 47.2001C32.3933 47.0042 32.5489 46.8485 32.7621 46.9177C33.0734 47.0157 33.3904 46.7794 33.7016 47.0676C33.7477 47.1079 33.8054 47.0906 33.8573 47.0733C34.7564 46.7217 35.6786 46.8774 36.5893 46.8946C36.889 46.9004 37.183 46.8428 37.4827 46.8197C37.6786 46.8082 37.8688 46.7967 38.0648 46.8024C38.3472 46.8024 38.6297 46.8428 38.9063 46.814C39.1196 46.7909 39.3213 46.6929 39.5173 46.9753C39.5576 47.033 39.6671 47.0157 39.7075 46.9465C39.8516 46.6814 40.0245 46.7044 40.2032 46.7102C40.6758 46.7217 41.1484 46.7505 41.6211 46.739C41.9726 46.7275 42.3185 46.6756 42.6643 46.6065C43.2003 46.4969 43.7364 46.3298 44.2782 46.226C44.7277 46.1396 45.1831 46.1108 45.6384 46.0531C45.7422 46.0416 45.8459 45.9782 45.9497 45.9724C46.1399 45.9552 46.3416 45.886 46.526 45.9724C46.7278 46.0704 46.8891 46.0877 47.0678 45.8514C47.1716 45.7188 47.333 45.7304 47.4713 45.7476C47.6442 45.7707 47.8171 45.8572 47.99 45.9436C48.1975 46.0416 48.3877 46.1511 48.601 45.9724C48.7163 45.8745 48.8777 45.9263 49.016 45.9897C49.6097 46.2549 50.2033 46.2145 50.797 46.1223C51.5982 45.9955 52.3993 45.8283 53.2062 45.6958C53.5232 45.6439 53.8403 45.6266 54.1573 45.6036C55.1429 45.5229 56.1285 45.569 57.1141 45.6266C57.31 45.6381 57.506 45.6554 57.6962 45.6036C58.1343 45.4768 58.5723 45.494 59.0104 45.5632C59.5406 45.6497 60.0651 45.5402 60.5896 45.4191C60.7107 45.3903 60.8317 45.3327 60.9527 45.35C61.8 45.4652 62.6358 45.2059 63.483 45.2347C64.1689 45.2577 64.8491 45.3788 65.5349 45.4768C66.0652 45.5517 66.5897 45.6612 67.12 45.7534C67.1546 45.7592 67.1892 45.7361 67.2237 45.7419C67.5235 45.8111 67.6272 46.1454 67.5004 46.6699C67.3851 47.131 67.1949 47.4076 66.924 47.4019C66.6243 47.4019 66.3246 47.3673 66.0249 47.3442C66.0364 47.3615 66.0364 47.3846 66.0364 47.4076Z" fill="black"/>
<path d="M82.4697 1.40713L82.4639 1.40137C81.7319 1.43019 79.7895 1.60886 77.997 3.04404C75.2938 5.21122 75.1612 8.46199 75.1497 8.95767C75.1843 10.5485 75.2188 12.145 75.2534 13.7358V13.7935C75.2534 13.8108 75.2534 13.8281 75.2534 13.8454L75.9854 14.8598C77.7722 14.4621 79.778 14.1162 82.0028 13.9145C85.1152 13.6263 87.9049 13.6667 90.2623 13.8511C90.2623 12.22 90.2623 10.5946 90.2623 8.96343C90.2623 4.79046 86.8789 1.40713 82.706 1.40713C82.6253 1.3956 82.5504 1.40713 82.4697 1.40713Z" fill="#6AB8C9"/>
<path d="M23.7426 78.6247C19.7944 79.0052 15.1545 74.0541 15.339 67.8926C15.339 67.8119 15.4082 67.7427 15.4946 67.7427L61.4376 67.541C61.5241 67.541 61.5875 67.6102 61.5875 67.6966C61.403 73.8466 66.0948 78.0484 70.0429 77.668L23.7426 78.6247Z" fill="#6AB8C9"/>
<path d="M76.9077 1.98904C75.5013 1.92564 74.0892 1.91411 72.6944 1.82189C71.4494 1.73543 70.2332 1.64321 68.9767 1.868C68.654 1.92564 68.2966 1.90258 67.9565 1.92564C67.3398 1.96022 66.7173 1.98328 66.1006 2.02939C65.8182 2.05244 65.5242 2.16195 65.2649 2.1389C63.968 2.04091 62.6884 2.05821 61.4031 2.29452C60.3887 2.12161 59.4031 2.3291 58.3944 2.45014C57.3858 2.57118 56.3541 2.57694 55.3627 2.79597C55.0976 2.85361 54.7978 2.88819 54.527 2.8709C52.8843 2.77291 51.2589 2.92277 49.6162 3.05534C47.8583 3.19943 46.1003 3.22825 44.3424 3.11874C43.4086 3.0611 42.4346 3.11297 41.4778 3.16485C40.3423 3.22825 39.2068 3.34929 38.0714 3.42422C37.2472 3.48186 36.4229 3.54526 35.6045 3.62595C35.201 3.67206 34.7687 3.70088 34.4056 3.75275C34.0252 3.81039 33.6506 3.90838 33.2875 4.03518C31.3451 4.70378 29.8292 6.17354 29.0972 7.93149C28.7168 8.80758 28.4286 9.78166 28.3825 10.7327C28.4055 12.9748 28.4113 15.263 28.4689 17.5224C28.515 19.2285 28.613 20.9346 28.7283 22.6406C28.8321 24.2314 28.9992 25.8165 29.1087 27.4073L30.0828 41.5458L30.3595 44.9407C30.3998 45.5055 30.4286 46.0761 30.4459 46.641L30.6534 52.9465L31.0453 61.9784C31.1145 63.6844 31.1549 65.3963 31.3912 67.0851C31.4546 67.5577 31.3335 67.7191 31.0511 67.5519C30.5554 67.2637 30.0482 67.0447 29.7254 66.2378C29.5064 65.6902 29.3335 65.183 29.3738 64.4914C29.4315 63.4885 29.1606 62.4452 29.4027 61.4481C29.4373 61.3098 29.4142 61.108 29.3911 60.9467C28.93 58.0187 28.9646 55.0561 28.8666 52.105C28.8321 51.1425 28.7398 50.1742 28.6764 49.2116C28.6361 48.5834 28.6073 47.9609 28.5842 47.3326C28.5496 46.4219 28.5554 45.5113 28.492 44.6064C28.4401 43.9205 28.3191 43.2634 28.5785 42.6294C28.6303 42.4968 28.6015 42.1395 28.5266 42.0127C28.2442 41.5343 28.2442 40.9694 28.2269 40.4046C28.175 38.8772 28.1519 37.344 28.077 35.8166C28.0194 34.6869 27.9271 33.5515 27.8119 32.4275C27.6332 30.6811 27.4026 28.9404 27.2297 27.194C27.0856 25.73 27.0049 24.2603 26.8839 22.7963C26.8551 22.4562 26.7859 22.1219 26.7629 21.7818C26.7225 21.1593 26.6303 20.508 26.6937 19.9201C26.7629 19.2688 26.7629 18.7616 26.5035 18.1622C26.3594 17.8279 26.3479 17.2919 26.3479 16.8538C26.3536 16.2947 26.417 15.7356 26.4804 15.1881C26.5554 14.5252 26.6361 13.9085 26.4286 13.2053C26.3191 12.8249 26.3479 12.3004 26.394 11.8681C26.417 11.6318 26.4401 11.3898 26.4516 11.1534L26.4747 10.7903L26.515 10.3753C26.5784 9.84506 26.6764 9.32055 26.8147 8.80758C27.0856 7.78163 27.5179 6.79603 28.1116 5.90841C28.9128 4.70378 30.0424 3.68359 31.3681 3.02075C32.0309 2.68646 32.7341 2.43861 33.4604 2.27723C33.8235 2.19653 34.1924 2.1389 34.5728 2.10431L35.0857 2.06397L35.5757 2.01786C36.5959 1.91988 37.616 1.86224 38.642 1.78731C41.8236 1.56828 44.9994 1.4703 48.181 1.38384C48.8035 1.36655 49.4433 1.36079 50.0543 1.27433C51.4721 1.08413 52.8843 1.03802 54.3079 1.04378C56.0198 1.05531 57.7143 0.865104 59.4089 0.6749C59.8008 0.62879 60.2043 0.553861 60.5962 0.553861C63.3398 0.553861 66.0545 0.18498 68.7865 0.104288C70.9998 0.0408861 73.2073 0.0639407 75.4149 0.081232C77.1209 0.121578 78.8213 0.156161 80.5273 0.196508C80.6368 0.196508 80.7579 0.173452 80.8674 0.173452C81.8357 0.208035 82.1585 0.53657 81.7204 1.07836C81.3343 1.55676 80.7002 1.84495 79.8299 1.87377C78.8674 1.90258 77.899 1.90258 76.9365 1.91411L76.9077 1.98904Z" fill="black"/>
<path d="M24.4224 77.7369C24.9873 77.8579 25.5579 77.9386 26.117 78.1057C26.6127 78.2556 27.1026 78.4055 27.6156 78.2498C27.7481 78.2095 27.8922 78.2498 28.0248 78.2441C28.2726 78.2441 28.5262 78.2498 28.7741 78.2325C28.8893 78.2268 29.0104 78.1288 29.1141 78.1634C29.6329 78.3248 30.1516 78.3766 30.6761 78.2037C31.0796 78.4285 31.483 78.2671 31.8923 78.2037C32.3015 78.1403 32.7165 78.1864 33.12 78.0193C33.2295 77.9732 33.3505 77.9616 33.46 77.9905C34.1171 78.1807 34.7799 78.1173 35.4428 78.0712C36.1517 78.025 36.8606 78.0884 37.5696 78.2959C37.9442 78.4055 38.3362 78.4055 38.7223 78.4055C39.1834 78.4055 39.6388 78.3478 40.0999 78.3305C40.7685 78.3075 41.4313 78.2498 42.0884 78.1C42.976 77.8982 43.8636 77.7369 44.757 77.6274C45.2123 77.5755 45.6734 77.6389 46.1288 77.6677C47.0452 77.7311 47.9617 77.8348 48.8781 77.8694C49.564 77.8983 50.2556 77.8752 50.9473 77.8349C51.5928 77.8003 52.2326 77.7023 52.8724 77.6619L58.5901 77.3046C59.0454 77.2758 59.5065 77.2124 59.9618 77.1778C60.1924 77.1605 60.4172 77.1547 60.6477 77.1605C61.495 77.1778 62.348 77.2181 63.1953 77.2297H66.8438C67.5354 77.2354 68.2213 77.27 68.9072 77.1086C69.0974 77.0625 69.1608 77.1951 69.0974 77.4717C68.9821 77.9501 68.8899 78.4516 68.5614 78.7398C68.3424 78.9357 68.1349 79.0856 67.8524 79.0164C67.449 78.9184 67.0225 79.1432 66.6248 78.855C66.5671 78.8147 66.4864 78.8262 66.423 78.8493C65.2415 79.1836 64.0426 79.0164 62.8495 78.9876C62.4576 78.9761 62.0714 79.0337 61.6794 79.051C61.4258 79.0625 61.1722 79.0625 60.9186 79.0625C60.5497 79.0568 60.1809 79.0107 59.8177 79.0337C59.5411 79.051 59.2759 79.149 59.0223 78.8608C58.9705 78.8032 58.8264 78.8147 58.7745 78.8839C58.5785 79.149 58.3537 79.1202 58.1232 79.1144C57.5065 79.0971 56.8897 79.0568 56.2673 79.0683C55.8119 79.0741 55.3508 79.1202 54.8955 79.1836C54.1865 79.2873 53.4834 79.4429 52.7744 79.5352C52.1807 79.6159 51.5871 79.6331 50.9934 79.685C50.8551 79.6965 50.7225 79.7542 50.5842 79.7599C50.3306 79.7715 50.0654 79.8406 49.8291 79.7484C49.564 79.6504 49.3623 79.6274 49.1202 79.8637C48.9819 79.9963 48.7686 79.9847 48.5899 79.9617C48.3651 79.9329 48.1403 79.8464 47.9156 79.7599C47.6504 79.6562 47.4026 79.5467 47.1144 79.7254C46.9588 79.8176 46.7455 79.7657 46.5726 79.7023C45.806 79.4314 45.0279 79.4545 44.2498 79.5236C43.195 79.6216 42.1403 79.7657 41.0855 79.8695C40.6705 79.9098 40.2555 79.9156 39.8405 79.9329C38.5494 79.979 37.2641 79.904 35.9788 79.8118C35.7252 79.7945 35.4716 79.7657 35.218 79.8176C34.6416 79.9329 34.071 79.8983 33.4946 79.8118C32.8029 79.7081 32.1171 79.8003 31.4254 79.904C31.264 79.9271 31.1026 79.9847 30.947 79.9617C29.8404 79.8176 28.7395 80.0481 27.6386 79.9905C26.7452 79.9444 25.8576 79.8003 24.97 79.6793C24.2841 79.587 23.5982 79.4602 22.9123 79.345C22.8662 79.3392 22.8201 79.3622 22.774 79.3507C22.382 79.2758 22.2668 78.93 22.457 78.4112C22.6241 77.9501 22.8893 77.685 23.2408 77.6965C23.6328 77.708 24.019 77.7542 24.4109 77.783L24.4224 77.7369Z" fill="black"/>
<path d="M25.4257 46.9756L1.4023 67.7943C1.01036 68.1344 0.958487 68.7281 1.29855 69.1315L3.98447 72.3304C4.32453 72.7339 4.9182 72.7858 5.32743 72.4515L29.6275 52.3705L25.4257 46.9756Z" fill="#3D649C"/>
<path d="M23.4254 49.8053C22.6415 50.3298 21.8749 50.8889 21.0738 51.3731C20.3533 51.8054 19.6443 52.2204 19.1141 52.9005C18.9757 53.0734 18.774 53.2002 18.6011 53.3501C18.2899 53.621 17.9729 53.8919 17.6731 54.1743C17.5348 54.3011 17.4483 54.5086 17.2985 54.595C16.5434 55.0388 15.8691 55.5633 15.333 56.2608C14.6817 56.5317 14.284 57.0907 13.8172 57.5807C13.3503 58.0764 12.8027 58.4913 12.4108 59.0562C12.3071 59.2061 12.163 59.3501 12.0073 59.4481C11.0621 60.0245 10.284 60.7853 9.48282 61.5404C8.62978 62.3473 7.70181 63.0735 6.68739 63.6845C6.14559 64.0073 5.65567 64.4396 5.17728 64.8603C4.60666 65.3618 4.07063 65.9035 3.51155 66.4165C3.22912 66.6701 2.95246 66.9295 2.68157 67.1889L2.2781 67.5866L2.07637 67.7883C2.01297 67.8575 1.98415 67.8921 1.93804 67.9439C1.77089 68.0996 1.66714 68.3186 1.73054 68.5318C1.77665 68.7682 1.98991 68.9065 2.13977 69.0102C2.37032 69.212 2.67004 69.5002 2.92941 69.748C3.45968 70.2552 4.00147 70.7912 4.50292 71.2927L4.54903 71.3273C4.64701 71.4483 4.85451 71.5348 5.01589 71.4022L6.76231 70.1169C7.37327 69.6673 7.97847 69.212 8.57791 68.7509C9.47705 68.0534 10.3416 67.3099 11.2004 66.5549C12.0016 65.8517 12.7624 65.1081 13.5578 64.3992L20.6472 58.1282L22.3245 56.5893C22.6069 56.3357 22.8951 56.0936 23.1948 55.8573L26.4975 53.2348L27.7943 52.1743L26.7107 50.7621C26.0191 49.8515 25.3505 48.9292 24.5263 48.1281C24.2957 47.9033 24.3361 47.7419 24.6242 47.667C25.1315 47.5344 25.6214 47.3557 26.1862 47.6151C26.5666 47.788 26.8952 47.9667 27.12 48.3759C27.4485 48.9638 28.0537 49.3846 28.2324 50.082C28.2554 50.18 28.3476 50.278 28.4341 50.3529C28.5782 50.4855 28.7223 50.6238 28.8549 50.7621C28.9932 50.9005 29.1142 51.0273 29.2987 51.2405C29.6387 51.6267 29.9788 52.0359 30.3073 52.4509L29.3851 53.2117L28.5494 53.8688L27.1372 54.9639C26.63 55.3616 26.1689 55.817 25.679 56.2377C25.362 56.5086 25.0392 56.7795 24.7165 57.0389C24.2438 57.4193 23.7424 57.7709 23.2928 58.1743C22.9528 58.4798 22.6703 58.8314 22.1689 58.8775C22.0651 58.889 21.8865 59.0504 21.8692 59.1599C21.7885 59.5692 21.4772 59.7882 21.1775 60.0245C20.3763 60.6585 19.5637 61.2752 18.774 61.9265C18.1919 62.4107 17.6386 62.9237 17.0968 63.4539C16.2552 64.2724 15.4541 65.1312 14.6126 65.9497C13.9094 66.6298 13.1601 67.2696 12.4339 67.9324C12.2667 68.088 12.1284 68.2725 11.9612 68.4223C11.65 68.699 11.3503 69.0218 10.9929 69.2004C10.5952 69.3964 10.3186 69.5981 10.1572 70.0304C10.065 70.2725 9.78253 70.4915 9.54622 70.6587C9.24074 70.8719 8.89491 71.0391 8.56061 71.2062C8.15715 71.4022 7.76521 71.5809 7.51737 72.0189C7.37904 72.2552 7.07356 72.4339 6.81419 72.5665L6.50295 72.7336C6.39344 72.797 6.33003 72.8258 6.14559 72.9584C5.84011 73.1832 5.53463 73.3676 5.19457 73.4368C4.50292 73.5982 3.77092 73.3215 3.32711 72.7682L3.06774 72.4743L2.88906 72.2783L2.53171 71.8979L0.929379 70.2321L0.646955 69.9324C0.53168 69.8114 0.427931 69.6846 0.335711 69.552C0.157034 69.2869 0.0475217 68.9814 0.012939 68.6586C-0.06199 68.0131 0.191616 67.356 0.693064 66.8892L1.05618 66.5491L1.27521 66.3358C1.75936 65.8574 2.27234 65.4021 2.77955 64.941C4.35306 63.5058 6.0015 62.1629 7.66146 60.8314C7.98424 60.5721 8.3243 60.3127 8.60096 60.0015C9.24074 59.2867 9.9785 58.6931 10.7451 58.134C11.673 57.4596 12.4684 56.6412 13.2581 55.8169C13.4425 55.6267 13.6097 55.4077 13.8172 55.2521C15.2869 54.157 16.5089 52.7852 17.9152 51.6325C19.0564 50.6987 20.2611 49.8399 21.4484 48.9638C22.3648 48.2895 23.3043 47.6382 24.2265 46.9753C24.2899 46.9292 24.3303 46.8658 24.3937 46.8197C24.9297 46.4508 25.3101 46.5776 25.4196 47.1713C25.5176 47.6958 25.3678 48.18 24.924 48.5546C24.4283 48.9696 23.9153 49.3615 23.4139 49.7592L23.4254 49.8053Z" fill="black"/>
<path d="M26.9251 53.419C26.2565 52.7965 22.8444 49.5226 21.0807 43.9779C17.9913 34.2775 22.5735 25.9258 22.879 25.3897C28.1586 16.1216 37.8475 14.3521 39.0694 14.1446C46.8736 12.8535 55.3002 15.6547 60.6547 22.237C65.6 28.3177 67.1044 36.6233 64.551 43.9721C61.4905 52.7849 53.8938 56.4565 51.9572 57.3153C50.7583 57.8455 43.8937 60.7562 35.7668 58.3643C30.7177 56.883 27.6053 54.0587 26.9251 53.419Z" fill="#F4E2B2"/>
<path d="M22.3764 48.9349C21.5868 47.3153 20.9067 45.6265 20.5666 43.8916C20.4456 43.1135 20.2611 42.3584 20.1804 41.5861C20.1286 41.1999 20.0594 40.8195 19.9845 40.4391C19.9383 40.0529 19.8749 39.6667 19.7885 39.2748C19.6905 38.8713 19.7078 38.4218 19.6963 37.9953C19.6444 37.2171 19.679 36.439 19.6963 35.6552C19.6963 35.2978 19.6559 34.9232 19.7136 34.5946C20.0363 32.9923 20.3764 31.4361 20.6588 29.828C21.2237 28.681 21.5003 27.4706 21.9672 26.2717C22.1977 25.6781 22.509 25.0844 22.8491 24.5426C23.1833 23.9893 23.4715 23.4129 23.8116 22.8711C23.9787 22.5772 24.2035 22.2544 24.4341 22.0008C25.8923 20.5137 27.3563 19.0555 29.0336 17.8048C30.8261 16.4733 32.8607 15.4647 34.9933 14.8998C36.123 14.5943 37.2931 14.2427 38.4689 14.0007C39.1721 13.8508 39.8752 13.7759 40.5842 13.6606C41.2931 13.5972 42.0078 13.505 42.7225 13.5165C44.7975 13.4819 46.8609 13.6837 48.9128 14.0641C51.6679 14.5482 54.3481 15.6433 56.7746 17.1707C57.985 17.9834 59.1032 18.9863 60.0888 20.0757C61.0801 21.1593 61.9851 22.3236 62.7401 23.5743C63.1436 24.1853 63.4663 24.8423 63.8179 25.4821C64.1177 26.1449 64.452 26.7962 64.7056 27.4764C65.524 29.5052 66.1119 31.6263 66.4174 33.7992C66.6941 35.8223 66.7805 37.8915 66.5269 39.9376C66.3309 41.4535 65.9909 42.9521 65.5182 44.4103C65.2358 45.125 65.0168 45.8628 64.671 46.5545L64.1811 47.5977L63.6162 48.6064C62.0773 51.2807 59.962 53.6035 57.547 55.5056C56.3827 56.4163 55.1608 57.2578 53.8524 57.9667C53.2011 58.3241 52.5209 58.6411 51.812 58.912C49.2125 59.9033 46.4978 60.4336 43.7485 60.5777C39.8176 60.7852 35.8002 60.0878 32.2152 58.4278C30.1748 57.4826 28.3016 56.2779 26.486 54.9235C25.973 54.5315 25.9154 54.2894 26.2785 54.2491C26.9067 54.1684 27.4601 54.0128 28.4226 54.3989C29.0797 54.6583 29.6734 54.8946 30.342 55.3961C31.3218 56.1338 32.561 56.5142 33.5524 57.2347C33.6965 57.3385 33.927 57.4192 34.1172 57.4768C35.8579 57.9667 37.5985 58.3529 39.3738 58.595C41.149 58.8313 42.9531 58.9005 44.7456 58.7333C45.9157 58.6238 47.0742 58.3759 48.2096 58.0705C48.9474 57.8687 49.6794 57.6612 50.3941 57.4076C51.4374 57.0503 52.4633 56.6353 53.4259 56.0877C54.1521 55.667 54.7861 55.1771 55.57 54.9869C55.7371 54.9523 56.0945 54.6814 56.1752 54.5315C56.5095 53.9782 57.057 53.5747 57.5931 53.1367C59.0167 51.9436 60.3193 50.6006 61.3914 49.0847L61.962 48.2259C62.1407 47.932 62.3021 47.6265 62.4692 47.3268C62.8208 46.7389 63.0571 46.0876 63.3395 45.4709C64.1061 43.4939 64.5442 41.4247 64.6998 39.344C64.8439 37.6091 64.8381 35.8511 64.5903 34.1278C64.5211 33.7301 64.4058 33.3439 64.3424 32.952C64.1868 32.2315 63.9851 31.488 63.8698 30.8021C63.7776 30.0297 63.5701 29.4533 63.1263 28.8654C62.8439 28.5484 62.6364 27.9605 62.4346 27.4937C62.1753 26.8942 61.9678 26.266 61.7084 25.6665C61.6335 25.4821 61.5585 25.3034 61.4836 25.1305C61.3972 24.9576 61.3049 24.7904 61.207 24.6233C61.0052 24.2948 60.792 23.9605 60.4577 23.6896C60.1061 23.3899 59.7948 22.8538 59.4893 22.4388C58.2386 20.5425 56.423 19.0209 54.4288 17.8912C51.6967 16.3869 48.6765 15.4704 45.6217 15.2111C44.4286 15.0785 43.2182 15.0727 42.0194 15.1073L40.6245 15.2168L39.2412 15.407C38.3536 15.5627 37.4372 15.7874 36.5495 16.0699C34.757 16.6117 33.0221 17.3782 31.3967 18.312C30.7512 18.6693 30.1287 19.0901 29.5696 19.5512C28.3073 20.6578 27.1085 21.776 25.9615 22.9922C25.6387 23.3783 25.3275 23.7703 25.022 24.168C24.7165 24.5657 24.4802 25.0152 24.2151 25.436C23.9442 25.874 23.7424 26.266 23.5522 26.7386C23.362 27.1939 23.1891 27.6666 23.0277 28.1392C22.8779 28.5772 22.7799 29.0441 22.6127 29.4706C22.0479 30.9807 21.7194 32.5658 21.5522 34.1566C21.3908 35.7531 21.4196 37.3439 21.5234 38.929C21.5868 39.5688 21.6156 40.2085 21.7366 40.8426L21.8807 41.7936L22.094 42.7331C22.3534 43.9953 22.7684 45.2288 23.2756 46.4219C24.071 48.2663 25.0854 50.0358 26.3477 51.6266C26.4341 51.7303 26.5379 51.8225 26.6243 51.9205C27.3506 52.8024 27.4255 53.2923 26.6474 53.2865C25.9673 53.2635 25.1776 52.8542 24.4802 51.9724C23.7079 50.9983 23.0335 49.9551 22.4398 48.8773L22.3764 48.9349Z" fill="black"/>
<path d="M25.9738 36.848C26.1582 36.4964 26.3081 36.1333 26.5386 35.7932C26.7461 35.4877 26.9536 35.1938 26.8556 34.8307C26.8326 34.7385 26.8844 34.6462 26.9017 34.5598C26.9305 34.3926 26.9651 34.2312 26.9824 34.0641C26.9882 33.9892 26.9075 33.8912 26.9536 33.8278C27.1784 33.5165 27.2879 33.1822 27.1784 32.8018C27.4435 32.577 27.3398 32.2831 27.3225 32.0007C27.3052 31.7182 27.4032 31.4531 27.2879 31.1534C27.2591 31.0727 27.2591 30.992 27.2994 30.9228C27.5646 30.5251 27.5819 30.0756 27.6164 29.626C27.628 29.505 27.6453 29.3897 27.6683 29.2686L27.7087 29.0957L27.7721 28.8594C27.8643 28.5482 27.9853 28.26 28.1294 28.0525C28.2793 27.8335 28.3311 27.5453 28.3888 27.2398C28.4522 26.8882 28.4752 26.4271 28.5386 26.0121C28.5732 25.7758 28.602 25.5279 28.6309 25.2455C28.677 24.8363 28.7288 24.4271 28.7807 24.0005C28.896 23.0207 29.0862 22.4155 29.2418 22.0582C29.2822 21.9659 29.3283 21.9314 29.3686 21.9025C29.3629 21.8795 29.5819 21.8391 29.7433 21.8968C29.824 21.9198 29.847 21.9602 29.8643 21.9948L29.9277 22.1158C29.9681 22.2023 30.0084 22.2887 30.0488 22.3867L30.3312 23.0438C30.4753 23.4069 30.6828 23.6201 30.873 24.1504C31.0286 24.7153 31.2246 25.234 31.3975 25.8911L32.1986 28.992L32.7404 30.8421C32.8269 31.1361 32.9479 31.4243 33.0401 31.724C33.0863 31.8739 33.1208 32.0237 33.1439 32.1736C33.2361 32.7384 33.3053 33.3033 33.409 33.8681L33.8817 36.2716C33.9624 36.727 34.02 37.1881 34.2678 37.6088C34.337 37.7241 34.216 37.7933 33.9393 37.8048C33.4551 37.8221 32.9479 37.8567 32.6252 37.6953C32.4061 37.5858 32.2332 37.482 32.262 37.2803C32.3081 36.9921 32.0315 36.7615 32.262 36.4388C32.2966 36.3927 32.2678 36.3408 32.2447 36.3004C31.7664 35.5857 31.7721 34.7673 31.6511 33.9719C31.6107 33.7125 31.507 33.4647 31.4378 33.2111C31.3917 33.0439 31.3571 32.8825 31.3283 32.7154C31.288 32.4733 31.2822 32.2197 31.213 31.9834C31.1612 31.8047 31.0344 31.6491 31.2764 31.4243C31.3283 31.3782 31.2937 31.286 31.2188 31.2629C30.9364 31.188 30.9306 31.0323 30.9076 30.8767C30.8442 30.4675 30.8038 30.0525 30.7173 29.6433C30.6885 29.505 30.6367 29.3205 30.5963 29.2225C30.556 29.1245 30.5156 29.0381 30.4637 28.9632C30.3139 28.7268 30.1467 28.6577 30.0488 28.6289C29.9681 28.6058 29.9335 28.5193 29.8816 28.5193C29.8701 28.5193 29.8355 28.6346 29.8297 28.6346C29.8124 28.6231 29.7836 28.773 29.8124 28.479C29.847 28.1447 29.8413 28.0064 29.749 28.7211C29.6972 29.1245 29.7029 29.0842 29.7087 28.992C29.7202 28.7384 29.7375 28.4559 29.749 28.1735C29.7663 27.7412 29.7721 27.211 29.7317 27.8738C29.7087 28.2369 29.7145 27.9776 29.7145 27.6663C29.7145 27.3262 29.7145 27.0323 29.6568 26.8594C29.5992 26.6807 29.5531 26.6461 29.5531 26.6634C29.53 26.6922 29.5127 26.9228 29.5012 27.1764C29.4781 27.8796 29.5012 28.5482 29.5473 28.9228L29.5531 28.9862L29.5704 29.1764C29.5819 29.2744 29.5761 29.2917 29.5473 29.3147L29.4954 29.3551L29.4608 29.3897C29.4551 29.3954 29.4493 29.4012 29.4436 29.4127L29.3974 29.5684C29.3513 29.7297 29.2937 29.8969 29.311 30.0698C29.3571 30.4733 29.2533 30.8421 29.1035 31.2053C28.9191 31.6433 28.9306 32.1159 28.9479 32.5886C28.9536 32.6981 28.9882 32.8134 28.9479 32.9171C28.677 33.6203 28.7692 34.3926 28.5848 35.1073C28.4349 35.6895 28.1871 36.2486 27.9623 36.8134C27.7894 37.2515 27.5819 37.678 27.3917 38.1103C27.3801 38.1391 27.3974 38.1737 27.3801 38.2025C27.2591 38.4446 26.9075 38.4619 26.4176 38.2428C25.9853 38.0469 25.7547 37.8278 25.8066 37.5973C25.8643 37.3437 25.9565 37.0901 26.0314 36.8422L25.9738 36.848Z" fill="black"/>
<path d="M27.5705 33.1417C27.6281 33.257 27.6857 33.3377 27.7434 33.4991C27.7952 33.6432 27.8414 33.793 27.8932 33.6317C27.9048 33.5913 27.922 33.6259 27.9336 33.6259C27.9566 33.6259 27.9854 33.6259 28.0085 33.6086C28.02 33.6028 28.0316 33.5048 28.0431 33.5394C28.095 33.7008 28.1468 33.7469 28.2045 33.5683C28.2448 33.7873 28.2852 33.6317 28.3255 33.5625C28.3659 33.4933 28.412 33.5394 28.4523 33.3723C28.4638 33.3262 28.4754 33.3089 28.4869 33.3435C28.5561 33.5279 28.6195 33.4587 28.6886 33.4126C28.7636 33.3608 28.8327 33.4184 28.9077 33.6259C28.948 33.7354 28.9883 33.7296 29.0229 33.7296C29.069 33.7296 29.1151 33.6662 29.1613 33.6489C29.2304 33.6259 29.2938 33.5625 29.363 33.4069C29.4552 33.1994 29.5417 33.0322 29.6339 32.9169C29.68 32.8593 29.7261 32.9285 29.7722 32.9631C29.8644 33.0322 29.9567 33.1417 30.0489 33.1878C30.118 33.2224 30.1872 33.1994 30.2564 33.1648C30.3198 33.136 30.3889 33.0437 30.4523 33.0034C30.6483 32.8939 30.8385 32.7959 31.0345 32.6864C31.0806 32.6576 31.1267 32.5999 31.1728 32.5654C31.1959 32.5481 31.2189 32.5481 31.242 32.5538C31.3284 32.5769 31.4149 32.623 31.5013 32.6345C31.6224 32.6518 31.7492 32.6403 31.8702 32.6576C31.9394 32.6691 32.0086 32.7037 32.0777 32.5481C32.095 32.502 32.1008 32.6345 32.095 32.9112C32.0835 33.3896 32.072 33.891 32.0374 34.1792C32.0143 34.3752 31.9913 34.5193 31.9625 34.4501C31.9221 34.3464 31.876 34.5711 31.8356 34.283C31.8299 34.2426 31.8241 34.2541 31.8126 34.2714C31.6916 34.6 31.5705 34.4271 31.4495 34.3867C31.4091 34.3752 31.3688 34.4271 31.3284 34.4386C31.3054 34.4501 31.2766 34.4501 31.2535 34.4443C31.2189 34.4328 31.1786 34.3867 31.144 34.4098C31.1152 34.4271 31.0864 34.5193 31.0633 34.2368C31.0575 34.1792 31.046 34.1907 31.0402 34.2599C31.023 34.525 30.9999 34.4962 30.9711 34.4847C30.9077 34.4616 30.8443 34.4213 30.7809 34.4213C30.7348 34.4213 30.6887 34.4674 30.6425 34.5308C30.5734 34.6288 30.4985 34.7786 30.4293 34.8709C30.3716 34.9458 30.3082 34.9631 30.2506 35.0092C30.2391 35.0207 30.2218 35.0784 30.2103 35.0841C30.1872 35.0957 30.1584 35.1591 30.1353 35.0668C30.1065 34.9631 30.0892 34.9458 30.0604 35.1763C30.0489 35.3089 30.0258 35.2916 30.0085 35.2686C29.9855 35.2397 29.9624 35.1475 29.9394 35.0611C29.9105 34.9573 29.8875 34.842 29.8587 35.0207C29.8414 35.1129 29.8241 35.0611 29.801 34.9977C29.7203 34.7152 29.6454 34.7441 29.5647 34.819C29.4552 34.9227 29.3515 35.0726 29.242 35.1879C29.2016 35.234 29.1555 35.2397 29.1151 35.257C28.9826 35.3147 28.8558 35.2455 28.7232 35.1648C28.7002 35.1475 28.6713 35.1245 28.6483 35.1763C28.5906 35.2974 28.533 35.2686 28.4754 35.1821C28.4062 35.0841 28.337 35.1821 28.2679 35.2859C28.2506 35.3089 28.2333 35.3665 28.2218 35.3493C28.1065 35.2167 27.997 35.453 27.8875 35.4011C27.7952 35.3608 27.7088 35.2225 27.6166 35.1072C27.5474 35.015 27.4782 34.8939 27.4091 34.7902C27.4033 34.7844 27.3975 34.8075 27.3975 34.7959C27.3572 34.721 27.3457 34.3809 27.363 33.8622C27.3803 33.4011 27.4033 33.136 27.4437 33.1417C27.484 33.1533 27.5243 33.1936 27.5647 33.2167C27.5705 33.1936 27.5705 33.1648 27.5705 33.1417Z" fill="black"/>
<path d="M38.1012 30.8774C37.9859 31.0619 37.9052 31.2463 37.7438 31.4307C37.5997 31.5921 37.4499 31.7535 37.6113 31.9207C37.6516 31.961 37.617 32.0129 37.617 32.0532C37.617 32.1339 37.617 32.2146 37.6343 32.3011C37.6401 32.3357 37.7381 32.376 37.7035 32.4106C37.5421 32.5777 37.496 32.7506 37.6747 32.9178C37.4557 33.0504 37.6113 33.1829 37.6804 33.3155C37.7496 33.4481 37.7035 33.5864 37.8706 33.719C37.9168 33.7535 37.934 33.7939 37.8995 33.8285C37.715 34.0417 37.7842 34.2608 37.8303 34.474C37.8822 34.7046 37.8245 34.9351 37.617 35.1657C37.5075 35.2867 37.5133 35.4193 37.5133 35.5403C37.5133 35.6902 37.5767 35.84 37.594 35.9899C37.617 36.2089 37.6804 36.4222 37.8361 36.6412C38.0436 36.9294 38.2107 37.2233 38.326 37.5115C38.3836 37.6614 38.3145 37.8112 38.2799 37.9611C38.2107 38.2608 38.1012 38.5605 38.0551 38.8602C38.0205 39.085 38.0436 39.3098 38.0781 39.5346C38.107 39.7421 38.1992 39.9554 38.2395 40.1629C38.3548 40.7853 38.447 41.4078 38.5565 42.0303C38.5854 42.1802 38.643 42.33 38.6776 42.4799C38.6949 42.5548 38.6949 42.6298 38.6891 42.7047C38.666 42.9813 38.6199 43.258 38.6084 43.5347C38.5911 43.9324 38.6026 44.3301 38.5854 44.7278C38.5738 44.9526 38.5392 45.1773 38.6949 45.4021C38.741 45.4655 38.6084 45.4828 38.3317 45.4598C37.8534 45.4194 37.3519 45.3848 37.0637 45.2811C36.8677 45.2062 36.7237 45.137 36.7928 45.0505C36.8966 44.918 36.6718 44.7796 36.96 44.6528C37.0003 44.6355 36.9888 44.6067 36.9715 44.5837C36.643 44.1975 36.8159 43.8056 36.8562 43.4194C36.8677 43.2926 36.8159 43.1658 36.8043 43.039C36.7928 42.9583 36.7928 42.8718 36.7986 42.7911C36.8101 42.6701 36.8562 42.5491 36.8332 42.4338C36.8159 42.3416 36.7237 42.2551 37.0061 42.1744C37.0637 42.1571 37.0522 42.111 36.983 42.0937C36.7179 42.0303 36.7467 41.9554 36.7582 41.8805C36.7813 41.6787 36.8216 41.477 36.8216 41.2753C36.8216 41.1254 36.7755 40.9756 36.7121 40.8257C36.6141 40.5951 36.4643 40.3646 36.3721 40.134C36.2971 39.9381 36.2798 39.7479 36.2337 39.5519C36.2222 39.5058 36.1646 39.4654 36.1588 39.4193C36.1473 39.3386 36.0839 39.2522 36.1761 39.1715C36.2798 39.085 36.2971 39.0216 36.0666 38.9409C35.934 38.8948 35.9513 38.8257 35.9744 38.768C36.0032 38.6931 36.0954 38.6182 36.1819 38.549C36.2856 38.4625 36.4009 38.3819 36.2222 38.2896C36.13 38.2378 36.1819 38.1686 36.2453 38.111C36.5277 37.8631 36.4989 37.6095 36.4239 37.3559C36.3202 37.0101 36.1703 36.67 36.0551 36.3242C36.0089 36.1916 36.0032 36.0533 35.9859 35.9207C35.9283 35.5 35.9974 35.0792 36.0781 34.6585C36.0954 34.5778 36.1185 34.4913 36.0666 34.4106C35.9455 34.2204 35.9744 34.036 36.0608 33.8458C36.1588 33.621 36.0608 33.3962 35.9571 33.1714C35.934 33.1195 35.8764 33.0677 35.8937 33.0158C36.0262 32.6527 35.7899 32.2953 35.8418 31.938C35.8821 31.644 36.0205 31.3558 36.1358 31.0676C36.228 30.8428 36.349 30.6181 36.4528 30.3933C36.4585 30.376 36.4355 30.3644 36.447 30.3472C36.5219 30.2204 36.862 30.18 37.3807 30.2376C37.8418 30.2895 38.107 30.376 38.1012 30.4913C38.0897 30.6181 38.0493 30.7449 38.0263 30.8717C38.0551 30.8774 38.0781 30.8774 38.1012 30.8774Z" fill="black"/>
<path d="M53.8763 37.2347C53.8071 37.0099 53.6976 36.8254 53.5708 36.6007C53.4671 36.3989 53.2423 36.203 53.0463 36.3874C53.0002 36.4393 52.9426 36.4047 52.8849 36.4162C52.7869 36.4393 52.689 36.4681 52.6025 36.5257C52.5621 36.5545 52.5622 36.6583 52.5103 36.6468C52.2509 36.6064 52.0088 36.7332 51.9627 37.0214C51.6745 36.9926 51.663 37.252 51.6054 37.4364C51.5477 37.6208 51.3921 37.7534 51.4613 37.9955C51.4786 38.0589 51.467 38.1108 51.4209 38.1338C51.127 38.301 51.0636 38.618 51.0175 38.9235C50.9656 39.252 50.8273 39.5459 50.5621 39.8457C50.418 40.0013 50.3892 40.1915 50.3662 40.3817C50.3316 40.6007 50.3719 40.837 50.3604 41.0561C50.3546 41.3846 50.395 41.7074 50.5391 42.0359C50.7293 42.4682 50.8907 42.8947 51.0232 43.3097C51.0924 43.5229 51.029 43.742 51.0117 43.9552C50.9656 44.3933 50.9079 44.8313 50.9195 45.2751C50.931 45.6037 51.0117 45.9264 51.1039 46.2377C51.1961 46.5259 51.3518 46.8025 51.467 47.0734C51.8013 47.8746 52.2336 48.6642 52.712 49.0792C52.8215 49.1772 52.9541 49.2176 53.0405 49.2406C53.0809 49.2464 53.1097 49.2752 53.127 49.281C53.1443 49.2982 53.1558 49.3155 53.1673 49.3213C53.1731 49.3386 53.1846 49.3501 53.1962 49.3501C53.2077 49.3559 53.1904 49.3674 53.2308 49.3674L53.3518 49.3732C53.4325 49.3789 53.5132 49.3789 53.5881 49.3732C54.0377 49.3501 54.3893 49.206 54.6371 49.0504C54.7754 48.964 54.9138 48.8544 54.8504 48.6527C54.8273 48.6008 54.9541 48.6469 55.1904 48.7853C55.5997 49.0331 56.0262 49.304 56.1703 49.6153C56.2683 49.8227 56.3028 50.0245 56.1357 50.0994C55.9109 50.1974 55.8533 50.5432 55.4959 50.4337C55.4498 50.4164 55.4152 50.451 55.3979 50.4856C55.202 50.7968 54.8849 50.9755 54.5564 51.0562C54.2279 51.1369 53.8936 51.1311 53.5766 51.1369C53.4728 51.1369 53.3691 51.1484 53.2653 51.1657C53.1501 51.1772 53.0175 51.183 52.8965 51.1772C52.7351 51.1542 52.5737 51.1138 52.4296 51.0504C52.3258 50.9986 52.2278 50.9352 52.1356 50.8718C52.0492 50.8026 51.9627 50.7334 51.8705 50.6758C51.7437 50.5893 51.5477 50.5375 51.663 50.2435C51.6861 50.1801 51.6284 50.134 51.5593 50.1571C51.2884 50.2493 51.2192 50.1225 51.1616 50.013C50.9713 49.719 50.8561 49.4078 50.7062 49.1138C50.5967 48.9005 50.4699 48.6931 50.32 48.4913C50.101 48.1801 49.8359 47.8631 49.6572 47.523C49.5016 47.2406 49.4151 46.9351 49.2999 46.6354C49.2768 46.5662 49.2076 46.5086 49.1846 46.4336C49.15 46.3068 49.0578 46.1743 49.1269 46.0359C49.2076 45.8803 49.2076 45.7766 48.9598 45.6786C48.8157 45.6267 48.8157 45.5115 48.8272 45.4135C48.8388 45.2924 48.9137 45.1599 48.9886 45.0331C49.0751 44.8832 49.1788 44.7449 48.9886 44.6123C48.8906 44.5431 48.931 44.4221 48.9886 44.3299C49.2365 43.9091 49.1961 43.5172 49.1096 43.1137C48.9944 42.5662 48.8618 42.0128 48.7811 41.4422C48.7581 41.2174 48.7638 40.9984 48.7696 40.7736C48.7926 40.0762 48.9771 39.3788 49.2537 38.6987C49.3114 38.5661 49.3748 38.4335 49.369 38.2779C49.369 37.9206 49.5304 37.5978 49.7667 37.3154C50.0664 36.9638 50.2048 36.5776 50.418 36.1741C50.4641 36.0819 50.4987 35.9609 50.5852 35.8975C50.8907 35.6785 51.1616 35.4076 51.5189 35.154C51.8647 34.9061 52.3258 34.6698 52.8503 34.6467C53.2711 34.6237 53.7034 34.7274 54.0607 34.9061C54.4181 35.0848 54.6947 35.3211 54.9138 35.5632C55.2481 35.9378 55.444 36.3528 55.5881 36.7505C55.5997 36.7736 55.6342 36.7851 55.64 36.8139C55.7092 37.056 55.4383 37.2808 54.9426 37.4652C54.5045 37.6324 54.2336 37.7015 54.1587 37.5863C54.078 37.4595 54.0089 37.3211 53.9224 37.2001L53.8763 37.2347Z" fill="black"/>
<path d="M36.8846 30.0013C37.0748 30.0128 37.2477 30.0071 37.4552 30.082C37.6396 30.1454 37.8068 30.2261 37.8529 30.0301C37.8644 29.9782 37.9105 29.9955 37.9451 29.9782C38.0027 29.9494 38.0604 29.9264 38.1123 29.886C38.1353 29.8687 38.1238 29.765 38.1641 29.788C38.3486 29.886 38.4754 29.886 38.5445 29.6728C38.7117 29.8514 38.752 29.667 38.8385 29.5748C38.9192 29.4768 39.0345 29.4998 39.1094 29.3096C39.1267 29.2578 39.1613 29.2347 39.1958 29.2635C39.4033 29.4134 39.582 29.3212 39.7665 29.2751C39.9567 29.2174 40.1699 29.2866 40.3313 29.5171C40.4178 29.6382 40.5157 29.6497 40.6137 29.6728C40.729 29.6958 40.8616 29.6785 40.9884 29.7073C41.1671 29.7592 41.3573 29.788 41.6109 29.7823C41.9567 29.7707 42.3025 29.8975 42.5907 30.105C42.7406 30.2146 42.7578 30.399 42.7924 30.5604C42.8616 30.8889 42.8328 31.2059 42.8328 31.4883C42.8328 31.6958 42.8674 31.8976 42.8789 32.1512C42.9077 32.376 42.9308 32.6123 42.9077 32.8486C42.7982 33.5345 42.4639 34.1109 42.1181 34.595C42.0316 34.7103 41.9682 34.8544 41.8818 34.9639C41.8356 35.0215 41.7838 35.0676 41.7261 35.1022C41.5071 35.2348 41.2823 35.3385 41.0691 35.4538C40.7693 35.621 40.4812 35.7939 40.1814 35.9207C40.0085 35.9898 39.8241 36.036 39.7261 36.2492C39.6973 36.3069 39.6339 36.1973 39.5417 35.938C39.3803 35.4884 39.2016 35.0158 39.1555 34.7276C39.1267 34.5259 39.1036 34.376 39.1901 34.4106C39.3169 34.4625 39.3054 34.2261 39.5128 34.4452C39.5417 34.474 39.5532 34.4567 39.559 34.4336C39.6512 34.0186 39.9567 34.0475 40.2045 33.9322C40.2852 33.8976 40.3313 33.8054 40.3889 33.742C40.4293 33.7016 40.4696 33.6671 40.5215 33.644C40.5907 33.6036 40.6829 33.5864 40.729 33.523C40.7636 33.4711 40.7463 33.3673 40.9768 33.5402C41.023 33.5748 41.0402 33.5402 40.9999 33.4826C40.85 33.2636 40.9019 33.2521 40.948 33.2232C41.046 33.1425 41.1728 33.0849 41.242 32.9812C41.2939 32.9062 41.3227 32.8083 41.2996 32.7045C41.2881 32.5431 41.1843 32.376 41.1325 32.2665C41.0691 32.1742 41.0864 32.1108 41.0287 32.0417C41.0172 32.0244 40.9596 32.0128 40.9538 32.0013C40.9423 31.9725 40.8904 31.9667 40.9711 31.9206C41.0691 31.8745 41.0864 31.8342 40.85 31.8284C40.7175 31.8284 40.7232 31.8054 40.7463 31.7765C40.7694 31.7477 40.8558 31.6958 40.9307 31.6497C41.023 31.5921 41.1209 31.5229 40.9423 31.5402C40.8443 31.5517 40.8904 31.5114 40.9423 31.4711C41.167 31.2751 41.0748 31.1598 40.9538 31.131C40.7866 31.0849 40.608 31.131 40.4696 31.1886C40.412 31.2174 40.3832 31.2002 40.3371 31.2059C40.2103 31.2174 40.0777 31.1195 39.8817 31.0388C39.8414 31.0215 39.801 30.9984 39.7665 31.0503C39.6915 31.1713 39.6454 31.1483 39.5359 31.0849C39.4091 31.0042 39.3054 31.1368 39.2247 31.2693C39.2016 31.3039 39.1958 31.3615 39.1613 31.3558C38.9249 31.2924 38.8154 31.5921 38.6137 31.6324C38.4465 31.667 38.2333 31.6209 38.0316 31.6094C37.8759 31.5979 37.6973 31.569 37.5301 31.5633C37.5186 31.5633 37.5243 31.5863 37.5128 31.5863C37.4091 31.569 37.1728 31.327 36.8788 30.8947C36.6194 30.5143 36.5215 30.2491 36.6079 30.1973C36.7059 30.1396 36.8154 30.1108 36.9192 30.082L36.8846 30.0013Z" fill="black"/>
<path d="M38.6594 43.9841C38.7805 44.2204 38.9476 44.4279 39.0802 44.6988C39.2012 44.9409 39.3338 45.1887 39.622 45.1426C39.6969 45.1311 39.7372 45.1945 39.7949 45.2175C39.8986 45.2636 40.0081 45.304 40.1177 45.3386C40.1695 45.3501 40.2502 45.2867 40.2848 45.327C40.4462 45.5576 40.6767 45.6729 40.9419 45.5518C41.0744 45.7997 41.2935 45.6844 41.4664 45.6268C41.6451 45.5749 41.8237 45.621 41.9621 45.4365C41.9966 45.3904 42.0428 45.3731 42.0831 45.3904C42.3482 45.523 42.6191 45.3847 42.7517 45.206C42.8439 45.1311 42.9246 45.0446 43.0399 44.9697C43.1609 44.912 43.282 44.8198 43.4549 44.7507C43.6451 44.6815 43.697 44.4971 43.7776 44.3414C43.8641 44.1512 43.8526 43.9207 43.9044 43.7247C43.9448 43.4192 43.9563 43.1137 43.8238 42.7967C43.7488 42.5892 43.6739 42.3875 43.5932 42.1858C43.524 41.9898 43.4549 41.7938 43.3915 41.6036C43.3281 41.4077 43.3915 41.2117 43.403 41.0042C43.4434 40.6007 43.4895 40.18 43.4491 39.7708C43.4203 39.4595 43.3223 39.1656 43.2013 38.8889C43.0918 38.6238 42.8958 38.399 42.7632 38.1569C42.6479 37.9898 42.55 37.8111 42.4289 37.6555L42.2502 37.4249C42.1926 37.35 42.1292 37.2635 42.0889 37.252C41.939 37.131 41.6796 36.9984 41.3511 36.9119C41.207 36.8601 41.011 36.8658 40.8439 36.837C40.7517 36.8255 40.6652 36.8024 40.5845 36.7678C40.2675 36.6526 39.9274 36.5315 39.5701 36.4624C39.0571 36.3644 38.5153 36.324 37.9735 36.2837C37.6681 36.2606 37.351 36.2203 37.0686 36.3817C36.9937 36.4278 36.9591 36.301 36.9822 36.0185C37.0167 35.5402 37.0513 35.0329 37.2069 34.7505C37.3165 34.5545 37.4202 34.4047 37.5585 34.4796C37.7545 34.5834 37.9735 34.3701 38.158 34.6698C38.181 34.7102 38.2214 34.6986 38.256 34.6871C38.8612 34.3932 39.4491 34.6295 40.0197 34.7678C40.2099 34.8197 40.4116 34.7966 40.6076 34.8312C40.7344 34.8543 40.8612 34.8831 40.9822 34.9177C41.1609 34.9811 41.328 35.0791 41.5125 35.1136C41.6508 35.1482 41.818 35.1136 41.8295 35.4249C41.8295 35.4883 41.9044 35.5056 41.9563 35.4537C42.158 35.2577 42.2618 35.3442 42.3655 35.4018C42.5096 35.4883 42.6422 35.6036 42.7748 35.7015L43.1609 36.0589C43.2474 36.1626 43.3396 36.2606 43.4433 36.3528C43.5298 36.4393 43.6163 36.5315 43.7027 36.6237C43.9851 36.8889 44.2733 37.1598 44.5154 37.471C44.6941 37.7361 44.8324 38.0243 44.9707 38.3125C44.9996 38.3817 45.0745 38.4336 45.1033 38.5027C45.1494 38.6295 45.2532 38.7506 45.2013 38.8947C45.1321 39.0561 45.1379 39.1656 45.3915 39.2405C45.5356 39.2866 45.5471 39.4019 45.5471 39.4999C45.5471 39.6267 45.4722 39.7592 45.403 39.8918C45.3223 40.0474 45.2301 40.1915 45.4261 40.3183C45.5356 40.3875 45.4837 40.5085 45.4319 40.6065C45.1955 41.0388 45.2359 41.425 45.3166 41.8342C45.4146 42.3875 45.5241 42.9581 45.5298 43.5691C45.5183 43.8112 45.501 44.0417 45.4319 44.2838C45.282 45.0216 44.867 45.8112 44.0889 46.4164C43.939 46.5317 43.7488 46.6181 43.6163 46.7737C43.2877 47.1196 42.8439 47.2233 42.4347 47.2118C41.9448 47.1945 41.5125 47.281 41.0629 47.3271C40.9592 47.3386 40.8497 47.3732 40.7517 47.3386C40.1119 47.0792 39.4433 47.0792 38.89 46.7564C38.4462 46.4971 38.0888 46.1282 37.7487 45.7536C37.4836 45.4596 37.2646 45.1426 37.0456 44.7737C37.034 44.7507 36.9937 44.7507 36.9822 44.7161C36.8554 44.4567 37.0974 44.2146 37.5643 43.961C37.9735 43.7305 38.2041 43.5921 38.3021 43.6901C38.4058 43.7996 38.5038 43.9322 38.6248 44.0532L38.6594 43.9841Z" fill="black"/>
<path d="M16.33 74.7916C15.7363 73.6965 15.3041 72.5207 15.0505 71.3161L14.9064 70.4054C14.8545 70.1057 14.8603 69.7944 14.8314 69.4947C14.8257 69.3622 14.7969 69.1258 14.8084 68.9472L14.8718 68.3996L14.9352 67.8693C14.964 67.7022 14.9294 67.4947 15.1196 67.414C15.6268 67.2526 16.4568 67.3621 16.9813 67.3736C17.4943 67.4025 18.0015 67.4255 18.5145 67.4428C19.5347 67.4716 20.5664 67.4659 21.6154 67.3794C22.1572 67.3333 22.7451 67.3679 23.3099 67.3679C24.3359 67.3564 25.3676 67.3506 26.3936 67.3391C26.8604 67.3275 27.3561 67.2295 27.7884 67.2641C29.9268 67.414 32.0536 67.4486 34.1977 67.2641C35.8692 67.4774 37.5119 67.3102 39.1891 67.2353C40.8664 67.1604 42.5725 67.2007 44.2324 67.0221C44.6705 66.9759 45.1777 66.9587 45.6215 66.9875C48.3305 67.1604 51.0395 67.0797 53.76 67.0221C55.2182 66.9875 56.6764 66.9875 58.1347 67.0105L60.3652 67.0739L61.0799 67.097C61.3105 67.1143 61.5122 67.1604 61.6909 67.2123C61.7774 67.2238 61.8869 67.3218 61.8926 67.4198L61.9042 67.7598L61.9272 68.4227L61.933 68.7685L61.9503 69.0567L61.9906 69.633C62.0137 70.0192 62.1232 70.3939 62.1866 70.7743C62.2846 71.1489 62.4056 71.5178 62.5382 71.8867C62.7053 72.2383 62.8264 72.6129 63.0281 72.9415C63.4431 73.7657 64.031 74.4919 64.6765 75.1317C65.3221 75.7772 66.0829 76.3075 66.8956 76.6937C67.1838 76.855 67.5008 76.9415 67.8005 77.0568C68.1117 77.1375 68.4287 77.2239 68.7458 77.2643C69.0628 77.2989 69.3855 77.3334 69.6968 77.2989C70.008 77.2931 70.3423 77.2355 70.6593 77.1778C71.9446 76.9415 73.1723 76.4055 74.06 75.5524C74.6536 74.9818 75.0801 74.2902 75.3337 73.5294C75.5873 72.7628 75.6623 71.9443 75.645 71.1201C75.5355 69.293 75.426 67.4601 75.3165 65.633C75.2185 63.7713 75.2415 61.8692 75.2358 59.9903C75.2242 56.2265 75.2473 52.4685 75.2127 48.7048C75.1839 45.8748 75.1032 43.039 75.0052 40.209C74.8957 37.5692 74.7804 34.9294 74.6709 32.2896L73.8525 8.77338C73.8467 6.54856 74.7228 4.35257 76.2502 2.72142C77.011 1.90873 77.9447 1.24589 78.9649 0.784792C80.8612 -0.0855374 83.0341 -0.223866 85.0342 0.329456C87.0457 0.882778 88.7806 2.20845 89.9334 3.87994C90.7749 5.0788 91.3109 6.4794 91.5011 7.92611C91.5645 8.28922 91.5645 8.65234 91.5876 9.01546C91.5991 9.36705 91.5876 9.64947 91.5934 9.97225V11.8455V13.223C91.6049 13.5285 91.5703 13.8224 91.4838 14.053C91.3916 14.2835 91.2994 14.4565 91.1092 14.6582C90.919 14.8542 90.7115 14.9752 90.4809 15.0271C90.3657 15.0617 90.2562 15.1078 90.1351 15.1308L89.6971 15.1251C89.4089 15.1308 89.1034 15.0962 88.8037 15.0732L88.2619 15.0328C87.0342 14.9521 85.8008 14.8945 84.5731 14.8657C81.7834 14.7908 78.9822 14.8253 76.2214 15.1769C75.449 15.2749 75.1839 15.1712 75.4548 14.8715C75.9217 14.3527 76.2848 13.8224 77.6277 13.4536C78.5384 13.2115 79.3972 13.0213 80.5442 13.0674C82.2099 13.1308 83.9679 12.9175 85.599 13.2634C85.8296 13.3095 86.1639 13.3095 86.4348 13.3037C87.0457 13.2864 87.6625 13.2864 88.2734 13.2979L89.0631 13.3152L89.3743 13.3268C89.478 13.321 89.5818 13.3556 89.674 13.3037C89.7662 13.2518 89.8066 13.1366 89.7893 13.0328L89.7835 12.7216L89.772 12.0126L89.7662 10.1797L89.772 9.2633C89.7662 8.96358 89.7547 8.68693 89.7374 8.39297C89.6683 7.82236 89.576 7.25175 89.3801 6.70419C89.0285 5.60331 88.3945 4.59465 87.5702 3.77619C87.0284 3.24592 86.4002 2.80788 85.7143 2.48511C85.0227 2.17386 84.2906 1.97789 83.5471 1.89144C82.5788 1.78769 81.5874 1.86838 80.6537 2.14504C79.2992 2.53698 78.0312 3.33238 77.1609 4.45632C76.498 5.31512 76.1407 6.26614 75.6277 7.14223C75.4951 7.32667 75.4375 7.90881 75.4663 8.11631C75.6508 8.87713 75.6796 9.81663 75.6853 10.7619C75.7199 13.2979 75.7314 15.834 75.7891 18.3701C75.8352 20.2491 75.9159 22.128 76.0196 23.9955C76.1983 26.9004 76.3712 29.7939 76.5499 32.6988C76.6767 35.1253 76.7459 37.5692 76.8496 40.0073C76.8727 40.5721 76.9418 41.1254 76.9591 41.6903C76.9937 42.722 77.0802 43.8113 77.011 44.7854C76.9303 45.8632 76.9303 46.7048 77.1839 47.7019C77.328 48.261 77.3338 49.1486 77.328 49.8748C77.3165 50.8028 77.2473 51.725 77.1839 52.6357C77.1032 53.725 77.011 54.7452 77.2127 55.921C77.3223 56.5493 77.2819 57.4254 77.2358 58.1401C77.0225 61.2929 77.1148 64.486 77.2646 67.6734L77.4202 70.9184C77.4548 72.0654 77.3107 73.3449 76.8093 74.5092C76.3193 75.685 75.4144 76.7167 74.3597 77.4257C73.2934 78.1231 72.106 78.5438 70.9245 78.7629C70.6939 78.8147 70.4576 78.8378 70.2213 78.8724C69.9734 78.8954 69.7025 78.9012 69.4432 78.9127C69.178 78.9358 68.9244 78.8839 68.6651 78.8666C68.4057 78.8493 68.1521 78.8032 67.91 78.7398C66.9129 78.5208 65.9849 78.1058 65.1722 77.564C62.5958 75.904 60.9474 73.1201 60.4747 70.2037C60.4171 69.8463 60.394 69.5005 60.3479 69.1489L60.3364 69.0163L60.3306 68.9587V68.9529V68.9241L60.3364 68.8665C60.3364 68.8492 60.3479 68.8204 60.3306 68.8088C60.3134 68.8031 60.2961 68.8031 60.2788 68.8031L60.2211 68.7973C60.1866 68.7973 60.2442 68.7915 60.0136 68.7915L56.0482 68.7512C55.0107 68.7397 53.9559 68.7224 52.9357 68.7742C50.5726 68.901 48.221 68.8838 45.8636 68.8146C43.022 68.7281 40.1978 68.8376 37.3735 68.9529C36.7165 68.9817 36.0479 69.0394 35.4023 69.0221C30.8662 68.9068 26.3417 69.1662 21.8171 69.1316L19.0736 69.097L17.7076 69.0797L17.0217 69.0624L16.8488 69.0567C16.7796 69.0567 16.8199 69.0509 16.8026 69.0509L16.7738 69.0394C16.745 69.0336 16.6355 68.9875 16.6413 69.0509L16.6182 69.1258C16.6067 69.1547 16.6067 69.1489 16.6297 69.4198C16.6643 70.244 16.8603 71.0452 17.0851 71.8406C17.4712 73.0567 18.0707 74.221 18.8661 75.2181C19.6615 76.2153 20.6586 77.0625 21.7941 77.5409C21.9439 77.5928 22.1111 77.6159 22.2609 77.6677C22.5837 77.7772 22.8604 77.8234 23.0794 77.9098C23.2984 77.9559 23.4656 78.0193 23.5693 78.1C23.7826 78.2556 23.7768 78.4689 23.3964 78.734C22.7393 79.2297 21.3445 79.3162 19.9554 78.4747C18.4165 77.5698 17.2695 76.2153 16.3992 74.757L16.33 74.7916Z" fill="black"/>
</svg>
