<svg width="91" height="80" viewBox="0 0 91 80" fill="none" xmlns="http://www.w3.org/2000/svg">
<path d="M59.028 78.4413C46.2087 78.8435 33.3894 79.2456 20.5764 79.6541C16.6741 79.7798 13.4441 76.6315 13.4693 72.7292C13.5447 59.0553 13.6264 45.3877 13.7018 31.7138C13.7206 27.9245 16.7998 24.8643 20.5953 24.8643H58.8143C62.6224 24.8643 65.7078 27.9497 65.7078 31.7578V71.5603C65.7015 75.2742 62.7481 78.3219 59.028 78.4413Z" fill="white"/>
<path d="M50.3323 79.6167C47.9004 79.5664 45.4497 79.5601 43.0366 79.4533C40.8875 79.3653 38.7761 79.2648 36.5893 79.5099C36.0237 79.5727 35.4079 79.5539 34.8172 79.5727C33.7427 79.6104 32.6681 79.6544 31.5935 79.6921C31.1034 79.7172 30.5944 79.8366 30.142 79.8178C27.9049 79.7109 25.6803 79.7361 23.4433 80C22.5698 79.9058 21.7026 79.9183 20.8354 79.9686C19.9557 80.0252 19.0068 80 18.1145 79.7424C16.2921 79.2397 14.7651 77.9137 13.7157 76.3427C13.4392 75.9217 13.1878 75.3813 13.081 74.8786C12.8925 74.1245 12.8674 73.3265 12.8799 72.5849C12.9051 71.8749 12.9176 71.1711 12.9239 70.461C12.9302 69.0408 12.9113 67.6206 12.8925 66.2004C12.8548 63.1464 12.9365 60.0987 13.1753 57.0699C13.3009 55.4549 13.3072 53.7645 13.3135 52.1055C13.3261 50.1324 13.2632 48.1592 13.257 46.186C13.2444 43.3206 13.1941 40.4802 13.037 37.6336C12.949 35.7295 12.8548 33.8255 12.7668 31.9152C12.7165 30.8909 12.8548 29.7409 13.2444 28.7166C13.6277 27.6798 14.2435 26.7246 15.029 25.9266C15.8271 25.1159 16.8388 24.5001 17.9322 24.1356C18.4789 23.9471 19.0508 23.834 19.6226 23.7712C19.9054 23.7335 20.1944 23.746 20.4835 23.7272C20.76 23.7209 20.9862 23.7335 21.2376 23.7397C25.1713 23.8151 29.1051 23.9345 33.0451 23.9848C36.0049 24.0225 38.9709 23.9974 41.9307 23.9597C44.6956 23.9031 47.448 23.8403 50.2129 23.7837L56.3523 23.6958L57.8856 23.6769L58.6523 23.6643C58.8974 23.6581 59.2367 23.6769 59.5257 23.6895C60.726 23.7712 61.9074 24.1482 62.9505 24.7515C63.9936 25.3547 64.9111 26.1905 65.6023 27.1896C66.2873 28.1951 66.746 29.3513 66.9345 30.5578C67.0414 31.1548 67.0414 31.8083 67.0476 32.2796L67.0665 33.8129L67.1105 36.8858C67.1545 38.8527 67.1985 40.8195 67.2424 42.7864C67.2613 43.7667 67.2613 44.7533 67.255 45.7399L67.167 56.6865L67.1545 64.5289V68.4501L67.1482 70.4107V71.391C67.1419 71.7178 67.1293 72.1639 67.0791 72.5347C66.8654 74.3193 66.0422 76.0034 64.8168 77.3042C63.5789 78.5861 61.9639 79.5224 60.1856 79.8743C59.1801 80.0566 58.8534 79.8995 59.2115 79.5853C59.488 79.3025 59.7582 79.0323 60.0724 78.7118C60.2358 78.561 60.4181 78.4227 60.6317 78.2468C60.8454 78.0834 61.0905 77.9137 61.3795 77.7064C62.1524 77.1408 62.7557 76.5753 63.5475 75.8149C64.1256 75.2556 64.5403 74.5141 64.8105 73.7412C65.087 72.962 65.219 72.1765 65.3698 71.3407C65.4138 71.1019 65.4012 70.75 65.3824 70.4673C65.0242 65.3647 65.2127 60.237 65.2567 55.1155C65.2693 53.444 65.2127 51.7662 65.1939 50.0884L65.1876 46.827C65.2002 45.2497 65.2504 43.6662 65.2253 42.0952C65.2064 40.9075 65.1059 39.7513 65.4201 38.683C65.4829 38.4568 65.4704 37.8347 65.395 37.6147C65.1059 36.7727 65.1436 35.7924 65.1499 34.8058L65.1687 32.8138L65.1813 31.8209C65.1687 31.5067 65.1813 31.2051 65.131 30.8972C64.9865 29.6781 64.4712 28.503 63.6606 27.573C62.4666 26.1842 60.638 25.3924 58.8471 25.4615C55.8119 25.5872 52.7893 25.7066 49.7479 25.8323C47.2092 25.914 44.6516 25.9328 42.1066 25.9831C41.5159 25.9957 40.9378 26.0585 40.3471 26.0648C39.2663 26.0774 38.1289 26.1465 37.1109 26.046C35.9798 25.9328 35.1 25.914 34.0631 26.1653C33.4787 26.3099 32.5487 26.291 31.7946 26.2659C30.8206 26.2345 29.8592 26.1339 28.9103 26.0397C27.7666 25.9266 26.7046 25.8009 25.473 25.9957C24.8132 26.0962 23.902 26.0397 23.1542 25.9705C22.331 25.8951 21.5015 25.8386 20.672 25.8009C19.9305 25.7632 19.2204 25.8574 18.5292 26.0962C17.153 26.5675 15.9842 27.6169 15.3369 28.9052C14.9034 29.7849 14.6897 30.7526 14.7085 31.7267L14.7902 35.12L14.9536 41.9067C14.9913 43.6787 14.9913 45.4634 14.9976 47.2355C15.029 52.7653 14.9222 58.2889 14.8028 63.8125C14.7777 64.8934 14.7463 65.9994 14.7965 67.0676C14.8531 68.3056 14.8719 69.5372 14.8594 70.7689L14.8279 72.6164C14.8279 72.9117 14.8279 73.1254 14.8405 73.383C14.8782 73.6281 14.8782 73.8794 14.9473 74.1182C15.1673 75.3059 15.8837 76.3742 16.8262 77.1157C17.7877 77.8446 18.9691 78.2405 20.1442 78.2154L20.5652 78.1965L21.0805 78.1525C21.4261 78.1274 21.7654 78.1023 22.1048 78.1023C26.8492 78.1023 31.5684 77.6938 36.3002 77.5995C40.1272 77.5241 43.9541 77.5556 47.7747 77.5618C50.7282 77.587 53.6754 77.6058 56.6226 77.631C56.8174 77.631 57.0184 77.5995 57.2132 77.6058C58.8911 77.6372 59.4378 77.9891 58.6586 78.5798C57.9736 79.1014 56.8739 79.4282 55.3532 79.4659L50.3323 79.5413V79.6167Z" fill="#6AB8C9"/>
<path d="M40.8982 57.5916C40.7034 57.8618 40.3201 57.8807 40.0939 57.6356C38.7428 56.1526 37.0336 54.4999 34.9096 52.8849C33.1941 51.5779 31.5351 50.541 30.0396 49.7178C29.7316 49.5482 29.4049 49.4288 29.0593 49.3659C28.3178 49.2277 27.1489 49.146 25.8293 49.5733C25.8105 49.5796 25.7853 49.5859 25.7665 49.5922C23.5985 50.3211 22.8193 52.9918 24.1578 54.8455C25.6911 56.9632 27.4192 59.1689 29.3672 61.4186C32.2515 64.7491 35.1358 67.6145 37.8568 70.0527C39.1387 71.2027 41.0742 71.2404 42.3875 70.1218C44.1219 68.6451 45.8626 67.1558 47.5969 65.6477C60.479 54.4685 72.5694 43.1888 83.9119 31.9091C84.4398 31.3812 84.798 30.7026 84.8922 29.9611C85.0242 28.9116 84.9865 27.3846 84.0627 25.9519C82.8248 24.0416 80.4683 23.0299 78.0301 23.3378C77.5463 23.4006 77.0813 23.5703 76.6665 23.8342C71.5891 27.0139 65.9335 31.067 60.1397 36.1885C51.7192 43.6412 45.4541 51.1883 40.8982 57.5916Z" fill="#35A089"/>
<path d="M34.7784 53.9279C33.264 52.5831 31.605 51.3766 29.9272 50.2455C29.569 49.9879 29.2548 49.8308 28.8338 49.7365C28.4191 49.636 27.9855 49.5794 27.5519 49.5794C26.7035 49.5857 25.7609 49.7868 25.1326 50.3272C24.8121 50.6037 24.4665 50.9179 24.2528 51.3138C23.8569 52.0239 23.7689 52.9036 24.0077 53.6765C24.1145 54.041 24.3973 54.3112 24.5607 54.6128C25.5284 56.2467 26.647 57.7737 27.998 59.1247C28.7521 60.4192 29.833 61.4184 30.8824 62.4741C31.9318 63.5298 32.9309 64.6609 34.0935 65.5784C34.4014 65.8171 34.7282 66.1251 34.9858 66.4204C35.765 67.3316 36.6133 68.1799 37.4931 68.9905L38.1592 69.5938C38.3729 69.776 38.5614 69.9206 38.7939 70.0337C39.24 70.2662 39.749 70.373 40.2455 70.3416C40.7796 70.3165 41.2949 70.1342 41.7348 69.8389C41.9358 69.7006 42.1872 69.4744 42.4386 69.2733L43.1864 68.6575C44.1918 67.8406 45.2161 67.0551 46.2655 66.301C47.384 65.5029 48.4649 64.5478 49.5269 63.624C50.7837 62.5181 52.0028 61.3618 53.2407 60.2307C55.0442 58.5969 56.7974 56.9316 58.4752 55.1847C60.7186 52.8471 62.9934 50.522 65.287 48.2158C66.4496 47.0407 67.7378 45.9473 68.9757 44.8287C71.4579 42.5916 73.9589 40.3734 76.3908 38.0797C78.2194 36.3579 80.0041 34.5796 81.7636 32.7887L82.989 31.5256L83.278 31.224C83.3534 31.1423 83.4163 31.0606 83.4791 30.9726C83.5985 30.7966 83.699 30.6081 83.7682 30.4133C83.8373 30.2122 83.875 30.03 83.8938 29.8101C83.9127 29.5587 83.919 29.3073 83.9127 29.0623C83.8938 28.5658 83.8059 28.0883 83.6613 27.6358C83.2215 26.3036 82.1092 25.2542 80.7644 24.7955C80.092 24.563 79.3694 24.4687 78.653 24.5127C78.4833 24.519 78.2823 24.5504 78.1315 24.5692C77.9995 24.5944 77.8675 24.6321 77.7356 24.6824C77.6036 24.7326 77.4779 24.7955 77.3585 24.8772L76.8432 25.2165C73.9589 27.108 71.1563 29.1125 68.4479 31.2365C67.1471 32.2545 65.8903 33.3291 64.6335 34.4036L62.742 36.006C60.3918 37.9729 58.1045 40.0215 55.9177 42.1706C52.782 45.2497 49.8348 48.5174 47.0447 51.9107C45.4612 53.8336 43.909 55.788 42.602 57.8994C42.2375 58.4901 41.9861 58.5906 41.8919 58.2073C41.7348 57.5412 41.4897 56.9253 41.961 55.7691C42.2752 54.9836 42.6082 54.2735 43.2869 53.5132C44.2798 52.4135 45.059 51.0373 46.2341 50.1198C46.3975 49.9879 46.5734 49.7491 46.7179 49.5543C49.2315 45.985 52.3735 42.8933 55.5343 39.8832C56.5712 38.903 57.5703 37.8787 58.6198 36.9047C59.2984 36.2763 59.9897 35.6541 60.6998 35.0509C61.724 34.1774 62.786 33.3479 63.8166 32.4807C64.5895 31.8272 65.3059 31.136 66.2171 30.8218C66.4056 30.7527 66.8203 30.4196 66.9209 30.2499C67.3168 29.5838 68.008 29.1063 68.6929 28.6161C70.5341 27.2902 72.4193 26.046 74.3108 24.8017L76.4096 23.413C76.8118 23.1554 77.2643 22.9605 77.7418 22.8537C78.2194 22.7657 78.6467 22.7218 79.1055 22.7218C80.5068 22.7155 81.9521 23.0862 83.1649 23.9094C84.3777 24.7201 85.3517 26.0083 85.7288 27.485C85.8921 28.0945 85.9675 28.7292 85.9613 29.3513C85.955 29.6718 85.9424 29.9483 85.8921 30.3065C85.8356 30.6647 85.735 31.0103 85.5968 31.3371C85.4585 31.6638 85.2763 31.978 85.0627 32.2608C84.9558 32.4053 84.8427 32.5373 84.7233 32.663L84.428 32.9709L83.2969 34.1397C82.9513 34.4979 82.6433 34.8938 82.2852 35.252C81.6379 35.9055 80.9969 36.6344 80.3057 37.1686C79.5391 37.7593 78.9861 38.2683 78.5273 39.0663C78.2697 39.5188 77.6916 40.0529 77.2077 40.4865C76.5919 41.0395 75.9321 41.5359 75.2785 42.0261C74.4993 42.6168 73.7578 43.1572 73.1294 44.0118C72.7901 44.4705 72.1868 44.967 71.6778 45.3503C69.4282 47.0532 67.3733 49.0201 65.3436 51.0059C62.5912 53.708 59.8577 56.4163 57.0676 59.0807C55.9742 60.1239 54.8494 61.1356 53.7246 62.1599C51.9776 63.7434 50.2055 65.2893 48.4146 66.8163L45.7062 69.0848L44.3489 70.2096L43.6702 70.7752C43.4251 70.97 43.268 71.1208 42.9036 71.391C41.8604 72.1325 40.5094 72.3902 39.2777 72.2142C38.5614 72.1137 37.8638 71.8309 37.2606 71.4161C37.1223 71.3156 36.9527 71.1774 36.8521 71.0894L36.5505 70.8255L35.9598 70.2913C35.1806 69.5687 34.4328 68.8146 33.7039 68.0417C31.9569 66.169 30.1346 64.397 28.3814 62.5495C27.9729 62.1222 27.533 61.7011 27.1748 61.2424C25.918 59.6274 24.6298 58.0376 23.3919 56.4101L22.9269 55.8005C22.7321 55.5303 22.5247 55.2098 22.3802 54.8831C22.0785 54.2232 21.9214 53.5006 21.9214 52.7716C21.9214 51.3263 22.5938 49.8685 23.7815 48.951C24.2465 48.574 24.8246 48.3163 25.3525 48.1467C25.8301 48.0021 26.3265 47.9016 26.8292 47.8513C27.3257 47.801 27.8284 47.801 28.3185 47.845C28.8149 47.9016 29.2674 47.9519 29.8707 48.1529C30.1472 48.2535 30.4111 48.3729 30.6561 48.5174L31.2029 48.8505C31.561 49.0704 31.9129 49.2966 32.2648 49.5291C32.9624 49.9941 33.6473 50.4843 34.3197 50.987C36.3871 52.5517 38.2597 54.3364 39.9564 56.2592C40.0695 56.3849 40.2078 56.498 40.3146 56.6237C40.434 56.762 40.5345 56.8939 40.6225 57.0196L40.6539 57.0636L40.6665 57.0887L40.6728 57.1013L40.4654 57.2898L40.4466 57.3087L40.4403 57.3212C40.4403 57.3212 40.4466 57.3401 40.4403 57.3275C40.434 57.3778 40.9179 57.4658 40.6602 57.9245C40.5345 58.1067 40.2078 58.245 39.8559 58.1004C39.6548 57.9999 39.5856 57.9685 39.4788 57.9182C39.3783 57.8679 39.2715 57.8114 39.1709 57.7485C38.7562 57.5035 38.3289 57.1579 37.8827 56.718C36.8961 55.7377 35.8781 54.7888 34.8036 53.9028L34.7784 53.9279Z" fill="black"/>
<path d="M61.8876 7.67846C60.5994 8.11833 59.4431 9.4254 59.5248 10.9901C59.6128 12.737 61.1964 13.9121 62.648 14.1132C64.552 14.3772 66.6571 13.001 66.8079 11.1786C66.9336 9.70817 65.746 8.49537 64.728 7.96123C64.4892 7.83556 63.2764 7.20088 61.8876 7.67846Z" fill="white"/>
<path d="M61.5611 8.85334C61.3223 8.85963 61.1024 8.92875 60.8259 8.97274C60.5745 9.00416 60.3043 9.08585 60.3358 9.36234C60.3483 9.43147 60.2855 9.46289 60.2541 9.51316C60.2038 9.60742 60.1598 9.69539 60.1347 9.79594C60.1221 9.84621 60.2038 9.9279 60.1598 9.95304C59.921 10.085 59.8205 10.3112 59.9839 10.5437C59.7262 10.682 59.8959 10.8768 59.9839 11.0213C60.0656 11.1721 60.053 11.3481 60.2666 11.4423C60.3295 11.4675 60.3609 11.4989 60.3358 11.5492C60.2164 11.8445 60.4112 12.0644 60.5997 12.2278C60.8008 12.4101 60.9264 12.6426 61.0207 13.0008C61.071 13.1893 61.2218 13.2898 61.3663 13.3715C61.536 13.4721 61.7497 13.4972 61.9319 13.5537C62.2021 13.6292 62.4974 13.6354 62.7739 13.4972C63.1321 13.315 63.4275 13.1076 63.6851 12.9191C63.8171 12.8311 63.9805 12.8562 64.1376 12.8311C64.4518 12.7934 64.8037 12.7368 65.0927 12.5609C65.3001 12.4289 65.476 12.2341 65.5703 12.0205C65.6708 11.8257 65.6708 11.5994 65.6834 11.4172C65.7274 10.8705 65.5012 10.462 65.0739 10.0661C64.967 9.97189 64.8351 9.90905 64.7094 9.83992C64.6466 9.80222 64.5963 9.75823 64.546 9.70796C64.3638 9.51316 64.1815 9.33092 63.949 9.20524C63.6286 9.03558 63.2641 8.96017 62.9436 8.94132C62.7614 8.92875 62.5666 8.92246 62.4535 9.13612C62.422 9.19267 62.3655 9.067 62.2838 8.77165C62.1518 8.26893 62.0261 7.7348 62.1078 7.38918C62.1644 7.16296 62.2524 6.96815 62.4095 7.03099C62.6294 7.11269 62.8556 6.85504 63.063 7.17552C63.0881 7.21951 63.1321 7.20694 63.1635 7.18809C63.8108 6.86761 64.4392 7.24465 64.9356 7.56513C65.1053 7.67196 65.3064 7.72851 65.4823 7.82906C65.5954 7.8919 65.7023 7.97359 65.7965 8.06156C65.9348 8.19353 66.0416 8.35691 66.1861 8.4763C66.2929 8.56428 66.4752 8.60827 66.3118 8.90361C66.2804 8.96645 66.3307 9.01044 66.4061 8.98531C66.6951 8.89105 66.7391 9.01672 66.802 9.12355C66.9591 9.4189 67.0596 9.73938 67.1664 10.0599C67.2481 10.2987 67.3298 10.5437 67.4178 10.7951C67.5435 11.191 67.6566 11.6497 67.6 12.1147C67.556 12.498 67.3926 12.8499 67.223 13.1767C67.1853 13.2521 67.179 13.3589 67.135 13.4343C67.047 13.5663 66.9842 13.736 66.8082 13.78C66.6134 13.8177 66.5129 13.8742 66.5694 14.1696C66.6009 14.3392 66.4752 14.4084 66.3746 14.4586C66.2427 14.5215 66.073 14.5215 65.9033 14.5089C65.7023 14.4963 65.5326 14.4649 65.4698 14.71C65.432 14.842 65.2938 14.8482 65.1681 14.8231C64.634 14.7226 64.257 14.8545 63.8234 15.0179C63.2515 15.2253 62.5728 15.3698 61.8942 15.3133C61.6303 15.2944 61.3789 15.219 61.1338 15.131C60.3672 14.8671 59.7136 14.3141 59.2549 13.6291C59.1607 13.4972 59.0915 13.3464 58.9533 13.2458C58.6328 13.007 58.4757 12.6237 58.438 12.2278C58.3877 11.7565 58.2118 11.3418 58.0924 10.8642C58.0673 10.7574 58.0044 10.638 58.0358 10.5312C58.2306 9.79594 58.2369 8.99159 58.6894 8.36319C59.0476 7.87304 59.5628 7.53999 60.0656 7.3012C60.4614 7.11269 60.8825 7.01214 61.2972 6.96187C61.3223 6.96187 61.3412 6.92417 61.3663 6.92417C61.6177 6.9116 61.7811 7.25093 61.8879 7.81649C61.9884 8.31921 62.0199 8.60827 61.9067 8.65854C61.7811 8.70253 61.6428 8.73395 61.5046 8.7905L61.5611 8.85334Z" fill="black"/>
<path d="M0.851513 77.3667C1.32909 78.1397 2.32824 78.6047 3.23941 78.3973C4.59675 78.0894 5.46393 76.3487 4.82926 75.0228C4.34539 74.0111 3.07603 73.4393 2.02033 73.8037C0.644143 74.2813 0.110006 76.1665 0.851513 77.3667Z" fill="white"/>
<path d="M1.86357 77.1723C1.86357 77.3357 1.90756 77.4865 1.93898 77.7064C1.96411 77.9012 2.04581 78.1149 2.23432 77.9892C2.27831 77.9578 2.30345 78.008 2.34115 78.0143C2.40399 78.0269 2.46683 78.0457 2.53596 78.0395C2.56738 78.0332 2.61136 77.9389 2.63021 77.9766C2.73704 78.1651 2.90671 78.2091 3.00725 78.0017C3.1455 78.228 3.22719 78.0269 3.29003 77.9263C3.35287 77.8258 3.47226 77.8321 3.45969 77.6247C3.45341 77.5682 3.46598 77.543 3.50368 77.5556C3.73619 77.6499 3.83045 77.4739 3.89329 77.3294C3.96241 77.1597 4.10694 77.0906 4.38972 77.0277C4.54682 76.9963 4.58453 76.8832 4.62223 76.789C4.65993 76.6633 4.64108 76.525 4.64108 76.3993C4.65365 76.2234 4.59081 76.0286 4.41486 75.8903C4.16978 75.7018 3.95613 75.6013 3.79275 75.5447C3.70477 75.5196 3.74247 75.4316 3.7299 75.3436C3.70477 75.1865 3.66078 74.9729 3.52882 74.8284C3.42827 74.7215 3.28374 74.6775 3.1455 74.6713C3.01353 74.6587 2.87529 74.7404 2.76846 74.7718C2.44169 74.8849 2.30345 75.0797 2.24061 75.3122C2.22176 75.3625 2.24061 75.4505 2.24689 75.5133C2.24689 75.5447 2.23432 75.5699 2.21547 75.5887C2.14635 75.6641 2.05837 75.7647 2.01439 75.8841C1.95783 76.06 1.97668 76.236 1.99554 76.3868C2.00182 76.4685 2.00182 76.569 2.17777 76.5376C2.22176 76.525 2.10864 76.6067 1.84472 76.7575C1.39227 77.0152 0.90841 77.2728 0.581645 77.3105C0.355422 77.3419 0.173183 77.3231 0.204603 77.1911C0.248591 77.0152 -0.0153342 76.9146 0.254876 76.7073C0.29258 76.6758 0.273728 76.657 0.254876 76.6319C-0.172433 76.2611 0.0349405 75.7521 0.179472 75.3625C0.223459 75.2305 0.217172 75.0797 0.254876 74.9352C0.273728 74.8409 0.324 74.7592 0.367987 74.6775C0.430827 74.5581 0.556509 74.4702 0.606781 74.3445C0.650769 74.2502 0.644483 74.1057 0.933545 74.2314C0.9901 74.2565 1.01523 74.2125 0.971247 74.1497C0.814148 73.9046 0.902123 73.8543 0.971247 73.8041C1.17233 73.6595 1.39227 73.5653 1.60593 73.4585C1.76931 73.383 1.91384 73.2762 2.07722 73.1631C2.32858 72.9934 2.62393 72.8049 2.95069 72.7295C3.2209 72.673 3.49112 72.7044 3.76133 72.7358C3.82417 72.7421 3.90586 72.7044 3.96241 72.7232C4.07552 72.7484 4.22005 72.7358 4.27661 72.8803C4.33945 73.0311 4.39601 73.094 4.62223 72.9369C4.75419 72.8489 4.83588 72.918 4.89244 72.9872C4.96785 73.0751 4.99298 73.2197 5.01183 73.3579C5.03697 73.5276 5.0244 73.6847 5.25063 73.6407C5.37631 73.6218 5.40144 73.7349 5.39515 73.8481C5.38259 74.3131 5.56482 74.5519 5.76591 74.8535C6.0424 75.2494 6.27491 75.727 6.36288 76.2422C6.40059 76.4433 6.37545 76.6444 6.35032 76.8392C6.27491 77.4613 5.91672 78.0018 5.47056 78.4102C5.3763 78.4919 5.28833 78.5673 5.24434 78.6867C5.1438 78.9758 4.89244 79.1454 4.60337 79.2208C4.25776 79.3151 4.00012 79.5476 3.66707 79.755C3.59166 79.8053 3.51625 79.8807 3.42828 79.8744C2.8313 79.8367 2.22804 80.0378 1.68134 79.8115C1.24774 79.6293 0.914693 79.2837 0.663334 78.9255C0.462248 78.649 0.336571 78.3285 0.248596 78.0206C0.242312 78.0017 0.210889 77.9955 0.210889 77.9766C0.173185 77.7818 0.474813 77.5619 0.990098 77.3042C1.44254 77.078 1.70019 76.9398 1.73161 76.9963C1.76931 77.0592 1.78816 77.1408 1.82587 77.2163L1.86357 77.1723Z" fill="black"/>
<path d="M76.3289 63.5422C76.1215 63.7685 75.9581 64.0135 75.7193 64.2398C75.4931 64.4408 75.292 64.6545 75.4051 64.9373C75.4365 65.0127 75.3863 65.0755 75.3737 65.1447C75.3549 65.2703 75.3297 65.3897 75.3297 65.5154C75.3297 65.572 75.4303 65.6474 75.3863 65.6914C75.1789 65.9239 75.1161 66.1878 75.2983 66.4517C75.0595 66.6465 75.2292 66.8539 75.3234 67.0361C75.4114 67.2184 75.3863 67.4257 75.6125 67.564C75.669 67.6017 75.7005 67.6457 75.6753 67.7022C75.5559 68.029 75.7382 68.2992 75.9267 68.5003C76.1278 68.7265 76.2723 68.9527 76.3729 69.3361C76.4483 69.5183 76.5928 69.6502 76.7687 69.7194C76.9761 69.8073 77.1898 69.8513 77.416 69.889C77.7239 69.9707 78.0695 69.9582 78.4088 69.8513C78.8739 69.6879 79.32 69.556 79.7788 69.4617C80.0175 69.4177 80.2501 69.5057 80.4826 69.5623C80.9601 69.6754 81.4314 69.8325 81.9216 69.9393C82.2861 70.021 82.6631 70.0587 83.0464 70.0901C83.4046 70.1404 83.7816 70.0964 84.1524 70.1844C85.2395 70.3792 86.3643 70.7814 87.3509 71.4412C87.596 71.5857 87.8474 71.7302 88.0799 71.9062C88.193 71.9942 88.2998 72.0947 88.3878 72.2015C88.7334 72.61 89.0162 73.0499 89.2927 73.4897C89.6823 74.1181 90.0342 74.7591 90.2855 75.4315C90.4301 75.8148 90.518 76.2044 90.7945 76.5375C90.8699 76.6317 90.7505 76.7071 90.4489 76.7511C89.9273 76.8328 89.3932 76.9334 89.0413 76.8705C88.8025 76.8265 88.6203 76.7825 88.6454 76.6254C88.6831 76.3929 88.3815 76.2924 88.5951 75.9908C88.6266 75.9468 88.5951 75.9153 88.5637 75.8902C87.9982 75.4943 87.9039 74.9099 87.596 74.4009C87.5017 74.2313 87.3321 74.1181 87.2064 73.9799C87.1184 73.8919 87.043 73.7977 86.9613 73.7034C86.8482 73.5652 86.7602 73.4018 86.6157 73.2949C86.5089 73.2133 86.3455 73.2133 86.4523 72.8928C86.4775 72.8236 86.4083 72.7922 86.3392 72.8362C86.0816 72.9996 86.0124 72.9179 85.9307 72.8425L85.5977 72.5409C85.4783 72.4529 85.3526 72.3712 85.2207 72.3021C85.0259 72.1953 84.8122 72.1261 84.5797 72.1136C84.4038 72.101 84.2215 72.0947 84.0456 72.0947C83.8633 72.1073 83.6874 72.1261 83.5177 72.1198C83.2349 72.101 82.9584 72.0884 82.6757 72.0696C82.6128 72.0696 82.5374 72.1136 82.4746 72.1136C82.3552 72.1073 82.2169 72.1575 82.1227 72.0444C82.0158 71.9188 81.9216 71.8748 81.7708 72.1136C81.6891 72.2455 81.5823 72.2204 81.5006 72.189C81.3937 72.145 81.2995 72.0382 81.1989 71.9313C81.0795 71.7994 80.9601 71.6737 80.803 71.8496C80.7151 71.9439 80.6145 71.8748 80.5328 71.7994C80.1621 71.46 79.7599 71.4663 79.3389 71.5103C78.7733 71.5794 78.1638 71.6674 77.504 71.6548C77.2526 71.6611 76.9761 71.5668 76.7185 71.5103C75.8764 71.2904 75.0344 70.6494 74.5254 69.8388C74.4248 69.6817 74.3494 69.512 74.2112 69.38C73.8907 69.0721 73.7587 68.6511 73.7399 68.2489C73.7273 67.7651 73.5639 67.3503 73.432 66.9042C73.4005 66.8036 73.344 66.7031 73.3628 66.6025C73.5074 65.9113 73.3377 65.2263 73.5136 64.5917C73.6645 64.0889 73.9347 63.6302 74.1986 63.1966C74.406 62.8573 74.6448 62.5431 74.8835 62.2415C74.8961 62.2226 74.8836 62.1912 74.9024 62.1723C75.0532 62.0027 75.4177 62.0718 75.9204 62.3609C76.3603 62.6185 76.5928 62.8384 76.5237 62.9955C76.4483 63.1715 76.3414 63.3412 76.2597 63.5171L76.3289 63.5422Z" fill="black"/>
<path d="M44.4244 0.313126C44.4936 0.545632 44.5815 0.753002 44.6067 1.01693C44.6318 1.25572 44.6318 1.49451 44.8894 1.50079C44.9586 1.50079 44.9648 1.56992 44.9963 1.60134C45.0591 1.66418 45.1219 1.7333 45.1974 1.78357C45.2288 1.80871 45.3419 1.76472 45.3356 1.82127C45.3356 2.07892 45.4236 2.2423 45.6875 2.26743C45.5995 2.53136 45.8257 2.53136 45.9766 2.60677C46.1274 2.67589 46.1777 2.83299 46.4164 2.84556C46.4793 2.85184 46.5233 2.87698 46.517 2.93354C46.4918 3.25402 46.6866 3.4174 46.8563 3.63106C47.0386 3.84471 47.1077 4.17147 46.9694 4.51081C46.894 4.68676 46.9254 4.85014 46.9254 5.00096C46.9192 5.17691 47.0071 5.35914 46.9883 5.54138C46.982 5.81159 46.9757 6.06923 47.0448 6.38971C47.1202 6.80445 47.1014 7.25061 47.0071 7.62137C46.9631 7.81617 46.7935 7.92928 46.6615 8.04239C46.3976 8.28747 46.1085 8.46342 45.8886 8.68336C45.7252 8.84674 45.6247 9.04154 45.5493 9.23634C45.4864 9.41858 45.499 9.61967 45.4864 9.77048C45.4613 10.003 45.4864 10.1978 45.5493 10.3737C45.5932 10.5308 45.7001 10.7759 45.8195 10.9581C45.876 11.0524 45.9766 11.1278 46.0457 11.2095C46.0834 11.2535 46.1085 11.2975 46.1274 11.3478C46.1902 11.5363 46.2593 11.7499 46.3787 11.9384C46.5547 12.2087 46.7935 12.4537 47.0385 12.7114C47.1768 12.8559 47.3088 13.0256 47.5727 13.0256C47.6481 13.0256 47.5727 13.145 47.3716 13.3712C47.0134 13.7545 46.6489 14.1567 46.3599 14.3264C46.1651 14.4395 45.9954 14.5086 45.9703 14.3829C45.9326 14.2007 45.6498 14.2698 45.7629 13.943C45.7818 13.899 45.7503 13.8865 45.7189 13.8865C45.1534 13.8299 44.9837 13.3461 44.7638 12.9564C44.6883 12.8308 44.5627 12.7302 44.4684 12.6108C44.4119 12.5291 44.3616 12.4474 44.3239 12.3532C44.2673 12.2212 44.2548 12.0704 44.1794 11.951C44.1228 11.8568 43.9845 11.7939 44.2485 11.5991C44.305 11.5614 44.2736 11.5111 44.1982 11.5174C43.9029 11.53 43.9029 11.4294 43.8903 11.3415C43.8526 11.0901 43.8526 10.8513 43.84 10.6C43.8274 10.4114 43.7709 10.2229 43.7332 10.0156C43.6515 9.70136 43.5761 9.34317 43.6075 9.01012C43.6264 8.72106 43.7332 8.48855 43.8149 8.23091C43.8337 8.17436 43.8086 8.09895 43.8337 8.04239C43.8777 7.94813 43.8777 7.80989 44.016 7.79103C44.1668 7.7659 44.2296 7.71563 44.0788 7.49569C43.9908 7.37001 44.0537 7.30717 44.1102 7.26947C44.1856 7.2192 44.3113 7.21291 44.437 7.20663C44.5878 7.19406 44.7323 7.20034 44.6381 7.00554C44.5878 6.905 44.6821 6.87986 44.77 6.87358C45.1659 6.84844 45.2916 6.62222 45.3356 6.37714C45.3922 6.05038 45.3607 5.73618 45.2853 5.50367C45.2602 5.40941 45.2539 5.34029 45.2539 5.2586C45.2225 5.15177 45.2351 4.98839 45.2539 5.00096C45.2665 4.9444 45.2602 4.80616 45.2413 4.65534C45.2288 4.5925 45.2225 4.52338 45.1408 4.49196C44.9523 4.42912 44.902 4.28459 44.8769 4.09607C44.8517 3.86984 44.6318 3.76302 44.4119 3.66876C44.3616 3.64991 44.2799 3.64991 44.2673 3.59964C44.1605 3.24145 43.7269 3.15347 43.5195 2.86441C43.3499 2.63191 43.243 2.31771 43.1174 2.02236C43.0168 1.79614 42.9351 1.5385 42.8346 1.29971C42.8283 1.28086 42.7969 1.29342 42.7969 1.27457C42.7529 1.12376 42.9603 0.815842 43.3813 0.43252C43.752 0.0931866 44.016 -0.0639133 44.1039 0.0240621C44.2045 0.124605 44.2799 0.250287 44.3616 0.369682L44.4244 0.313126Z" fill="black"/>
</svg>
