<svg width="67" height="80" viewBox="0 0 67 80" fill="none" xmlns="http://www.w3.org/2000/svg">
<path d="M51.3068 54.5872C50.4216 54.8141 50.1855 54.2649 50.4761 53.3978C52.1965 48.2819 65.5832 28.5719 58.2384 25.5078C57.9343 25.3807 57.6029 25.3671 57.2579 25.4488C59.5367 21.554 59.4096 18.5625 57.6347 17.7409C55.9823 16.9783 53.0499 17.9315 50.3626 21.1999L50.358 21.1954C50.3353 17.9724 49.1324 16.7286 48.1065 16.5198C46.9081 16.2747 44.9334 16.7513 42.8998 19.9833C42.3687 18.4309 41.4926 17.809 40.7527 17.7227C38.7735 17.4821 34.856 19.3614 32.9948 32.3441L47.3303 64.1199C50.6213 62.7671 66.0416 60.0344 65.6603 55.3225C65.2745 50.5153 55.5057 53.5159 51.3068 54.5872Z" fill="#F29AA6"/>
<path d="M48.2008 37.9371C48.7228 36.9611 49.2403 35.9761 49.8168 35.0455C50.3343 34.2148 50.8518 33.4113 51.1741 32.4671C51.2603 32.222 51.4101 31.9859 51.5327 31.7499C51.7551 31.3141 51.9911 30.8874 52.2272 30.4607C52.3361 30.2655 52.3861 30.0249 52.5177 29.8615C53.1578 29.058 53.7479 28.25 54.2972 27.3648C54.9463 26.861 55.3866 26.2073 56.0494 25.6762C56.3853 25.4174 56.7711 25.1995 57.2296 25.0815C57.4566 25.0225 57.7063 25.0043 57.9559 25.018C58.2101 25.0361 58.4643 25.1224 58.6595 25.1814C58.882 25.2495 59.1316 25.3811 59.3087 25.5491C59.8625 26.0393 60.2574 26.6748 60.498 27.3331C60.7386 27.9958 60.8475 28.6767 60.8657 29.3531C60.9111 30.8102 60.5479 32.1993 60.0168 33.4794C59.7308 34.1603 59.4902 34.8866 59.2315 35.5948C58.9228 36.4345 58.6368 37.2789 58.2964 38.105C57.8016 39.3034 57.3022 40.4882 56.8483 41.7002C56.24 43.3163 55.5591 44.9141 54.8328 46.4893C54.4651 47.2882 53.9976 48.0554 53.5618 48.8226L52.2635 51.1286C52.0547 51.5144 51.8459 51.9003 51.6552 52.2861C51.5599 52.4813 51.4646 52.672 51.3738 52.8672L51.1922 53.2757C51.1377 53.4119 51.0833 53.5662 51.1105 53.7206C51.1241 53.7932 51.1741 53.8658 51.2467 53.8931C51.3193 53.9203 51.3965 53.9158 51.4737 53.9021C51.5508 53.8885 51.6235 53.8613 51.6961 53.8431L51.9957 53.7569L52.9535 53.489C54.1564 53.1486 55.3548 52.7718 56.5896 52.4904C58.4235 52.0818 60.2892 51.7187 62.3092 51.814C62.8131 51.8367 63.3351 51.9139 63.8662 52.0591C64.3928 52.2044 64.9466 52.4359 65.4414 52.8445C65.9362 53.2439 66.322 53.8386 66.5036 54.4423C66.5581 54.5921 66.5944 54.7465 66.6125 54.8917C66.6307 55.0461 66.6761 55.1777 66.6716 55.3547C66.6761 55.5227 66.6716 55.6952 66.667 55.8677C66.6443 56.0311 66.6035 56.1991 66.5671 56.3625C66.3946 56.9708 66.0905 57.511 65.741 57.9195C65.396 58.3553 65.0147 58.6957 64.6243 59.018C64.4246 59.1678 64.2248 59.3086 64.0205 59.4493L63.4032 59.826C61.8553 60.6795 60.2665 61.2741 58.6777 61.8234C56.4034 62.6042 54.1156 63.2578 51.8368 63.8616C50.5567 64.2066 49.2267 64.5198 48.0964 65.0327C47.8058 65.178 47.6696 65.1235 47.7014 64.8739C47.7604 64.4472 47.8058 64.0023 48.3551 63.5983C48.7273 63.3214 49.0859 63.099 49.6216 63.0036C50.3978 62.872 51.1468 62.4861 51.9458 62.5043C52.0592 62.5088 52.209 62.4544 52.3271 62.409C54.4697 61.551 56.7167 61.0471 58.882 60.28C59.5901 60.0349 60.2665 59.7126 60.9428 59.3993C61.3786 59.1951 61.8144 58.9863 62.2366 58.7638C62.8539 58.4461 63.4667 58.1056 63.9797 57.6653C64.184 57.5064 64.3338 57.3112 64.5153 57.1523C64.6697 56.9753 64.8649 56.8391 65.0692 56.7029C65.1145 56.6757 65.1736 56.6031 65.219 56.5259C65.2553 56.4442 65.2734 56.3534 65.2643 56.3035C65.228 55.9086 65.2825 55.5953 65.2416 55.214C65.1826 54.692 64.9738 54.2244 64.5971 53.8794C64.2157 53.539 63.6983 53.3211 63.1535 53.2031C62.341 53.017 61.4649 53.0487 60.616 53.1395C59.2905 53.2939 57.9877 53.6343 56.6803 53.9793C55.5909 54.2698 54.4878 54.5558 53.3938 54.8826C53.1396 54.9598 52.899 55.0688 52.6448 55.1414C52.5132 55.1822 52.377 55.2186 52.2454 55.2594C52.0638 55.3094 51.8867 55.3638 51.7052 55.4092C51.4964 55.4455 51.2921 55.4773 51.0923 55.5045C50.8972 55.5227 50.7337 55.4864 50.5749 55.441C50.248 55.323 49.962 55.1187 49.785 54.8418C49.6125 54.5694 49.5036 54.2971 49.4219 53.9475C49.3674 53.7523 49.3946 53.4527 49.4899 53.1259C49.5762 52.8172 49.7442 52.4223 49.7986 52.3179C49.9984 51.8957 50.2526 51.519 50.5022 51.1558C50.8064 50.72 51.1014 50.3251 51.2331 49.7667C51.3057 49.4671 51.5327 49.1176 51.7324 48.8407C52.6176 47.6196 53.3121 46.2896 53.9522 44.9323C54.8192 43.0893 55.6363 41.2327 56.3989 39.367C56.703 38.6407 57.0072 37.9098 57.3068 37.179C57.7607 36.0442 58.201 34.9093 58.5778 33.7654C58.9546 32.626 59.2814 31.473 59.4312 30.3381C59.4902 29.8933 59.5266 29.4439 59.4585 29.0263C59.3087 28.0594 59.0544 27.2877 58.4961 26.7566C58.3281 26.5931 58.1103 26.466 57.8787 26.3571C57.7653 26.3162 57.6518 26.3026 57.4702 26.3571C57.107 26.466 56.6486 26.8201 56.2582 27.2332C56.0721 27.4329 55.9086 27.6599 55.7089 27.8551C55.0144 28.5451 54.4379 29.3939 53.9159 30.27C53.3938 31.1507 52.9308 32.0722 52.4542 32.9891C51.6689 34.5098 50.8336 36.0078 50.0574 37.5285C49.4536 38.7042 48.8544 39.8754 48.3006 41.0738C48.2643 41.151 48.2507 41.2418 48.2098 41.3189C47.8875 41.9953 47.5562 42.1315 47.2974 41.6503C47.0704 41.2281 47.0477 40.6789 47.311 40.0388C47.6016 39.3352 47.9238 38.6452 48.2461 37.9552L48.2008 37.9371Z" fill="black"/>
<path d="M42.5585 35.7084C42.7673 35.3225 42.9625 34.9321 43.2167 34.569C43.4437 34.2467 43.6752 33.938 43.6843 33.5294C43.6888 33.425 43.7524 33.3343 43.7841 33.2344C43.8477 33.0573 43.9158 32.8803 43.9657 32.6987C43.9884 32.617 43.9521 32.5035 44.002 32.44C44.2608 32.1177 44.4333 31.7682 44.4514 31.3505C44.7283 31.1326 44.7238 30.8058 44.7964 30.5017C44.8691 30.1975 45.0279 29.9252 45.0279 29.5893C45.0279 29.4985 45.0552 29.4122 45.1096 29.3441C45.4456 28.9492 45.609 28.4771 45.7951 28.0095C45.9948 27.5102 46.2763 27.0472 46.6667 26.6523C46.8709 26.4389 47.0071 26.1756 47.1478 25.9214C47.3113 25.6173 47.4384 25.2904 47.5927 24.9818C47.8242 24.5369 48.033 24.0784 48.1874 23.5882C48.4007 22.9254 48.6322 22.299 48.9545 21.6589C49.1361 21.3457 49.3903 21.0688 49.6445 20.8101C50.1393 20.2835 50.684 19.8069 51.2424 19.3438C51.6555 18.9943 52.0685 18.6357 52.4998 18.2952L53.1126 17.8186C53.3305 17.6733 53.5438 17.5145 53.7754 17.3874C54.4653 17.006 55.2325 16.7019 56.1041 16.6066C56.5353 16.5521 56.9983 16.5703 57.4704 16.6656C57.9289 16.7791 58.4418 16.9697 58.8504 17.3374C59.2362 17.6688 59.5767 18.0819 59.7628 18.5222C59.8763 18.7446 59.9262 18.9671 59.9762 19.1895C60.135 20.0202 60.0488 20.7828 59.9217 21.5C59.7356 22.526 59.4133 23.4747 58.9957 24.3599C58.7551 24.8637 58.4782 25.3313 58.3148 25.8669C58.2694 26.0167 58.1559 26.0122 57.997 25.8488C57.7201 25.5719 57.4159 25.3086 57.3342 24.9863C57.2798 24.7639 57.2571 24.5823 57.3933 24.4234C57.5975 24.1919 57.5839 23.8424 57.9017 23.6653C57.9471 23.6381 57.9607 23.5791 57.9698 23.5292C58.0696 22.6304 58.46 21.8632 58.6007 21.0143C58.637 20.742 58.628 20.456 58.6007 20.1882C58.5962 20.0111 58.569 19.8432 58.5508 19.6707C58.519 19.4255 58.4872 19.1759 58.3738 18.9625C58.342 18.8763 58.2648 18.8218 58.233 18.7401C58.2013 18.6584 58.1876 18.5721 58.2149 18.4405C58.2285 18.386 58.1513 18.3134 58.0923 18.3225C57.8517 18.3815 57.7791 18.2771 57.6565 18.1999C57.3524 17.9911 56.9529 17.8413 56.5353 17.8368C56.381 17.8277 56.2221 17.8549 56.0723 17.8731C55.9179 17.9094 55.7681 17.9548 55.6183 18.0047C55.1599 18.1863 54.7513 18.4723 54.3473 18.7401C54.1839 18.8627 54.0114 18.9761 53.8434 19.0851C53.68 19.2122 53.5121 19.3257 53.3577 19.4573C53.2851 19.5209 53.2397 19.6117 53.1671 19.6752C53.0309 19.7842 52.9174 19.9294 52.7495 19.9839C52.5588 20.0384 52.4362 20.1201 52.4317 20.3697C52.4317 20.5105 52.3182 20.6058 52.2183 20.6784C52.0912 20.7737 51.9233 20.8237 51.7689 20.8918C51.5828 20.9735 51.3967 21.0416 51.3604 21.2822C51.3422 21.4093 51.2151 21.5 51.0971 21.5636C50.5705 21.8405 50.2482 22.299 49.9895 22.7983C49.64 23.4928 49.3267 24.2191 49.0135 24.9318C48.891 25.2133 48.7412 25.4811 48.605 25.7535C48.1783 26.6023 47.688 27.4103 47.2159 28.232C47.1206 28.3909 47.0207 28.5543 46.9799 28.7358C46.88 29.158 46.6848 29.5302 46.4488 29.8888C46.1673 30.3201 46.0357 30.8194 45.9177 31.3142C45.8904 31.4322 45.8859 31.5548 45.8269 31.6592C45.4229 32.3719 45.3048 33.1981 45.0007 33.9425C44.751 34.5463 44.4424 35.1319 44.1564 35.7311C43.9339 36.1941 43.707 36.6571 43.4845 37.1201C43.4709 37.1519 43.48 37.1882 43.4618 37.22C43.3257 37.4833 43.0442 37.5014 42.6856 37.2608C42.3678 37.0475 42.2181 36.7978 42.2998 36.5436C42.3906 36.2622 42.504 35.9853 42.6084 35.7084H42.5585Z" fill="black"/>
<path d="M49.6538 20.2379C49.7174 19.9655 49.7446 19.6886 49.8127 19.4026C49.8808 19.1439 49.9307 18.8761 49.731 18.6809C49.6811 18.631 49.6856 18.5583 49.6629 18.4948C49.6175 18.3813 49.5721 18.2769 49.5131 18.1725C49.4859 18.1271 49.3905 18.1135 49.3905 18.059C49.3996 17.7821 49.2725 17.5506 49.0183 17.4552C49.0229 17.2056 48.7913 17.1511 48.6189 17.1057C48.4509 17.0467 48.3011 16.9423 48.115 17.024C48.065 17.0512 48.0242 17.0467 47.9879 17.0195C47.7427 16.8379 47.4295 16.8697 47.1526 16.9605C47.0028 17.0058 46.853 17.0285 46.6941 17.0603C46.5353 17.083 46.3628 17.0785 46.1812 17.0921C45.986 17.0966 45.8044 17.1693 45.6592 17.2873C45.4776 17.4235 45.3051 17.5642 45.1553 17.7321C44.9238 17.9591 44.7059 18.1997 44.5879 18.5311C44.4063 18.9396 44.261 19.3663 44.084 19.7522C43.9887 19.9428 43.8343 20.1063 43.6936 20.2742L43.2578 20.7781C43.1262 20.9597 42.99 21.1412 42.8674 21.3274C42.6813 21.6088 42.5361 21.9129 42.4226 22.2398C42.3136 22.5394 42.2455 22.8526 42.1411 23.1522C41.8688 24.0555 41.5919 24.9498 41.3876 25.8758C41.3331 26.0983 41.3059 26.3252 41.2605 26.5431C41.2333 26.6521 41.206 26.761 41.1697 26.87C41.0335 27.2694 40.8837 27.6598 40.7566 28.0638C40.566 28.6358 40.4434 29.2304 40.28 29.8115C40.1892 30.1429 40.0803 30.4697 40.1166 30.8283C40.1256 30.9282 40.0212 30.9373 39.817 30.851C39.4629 30.7057 39.0907 30.5696 38.9136 30.3562C38.7911 30.211 38.7048 30.0793 38.7911 29.9567C38.9182 29.7752 38.8001 29.5255 39.0725 29.3848C39.1088 29.3666 39.1088 29.3212 39.1043 29.2849C38.9953 28.6358 39.2768 28.082 39.4856 27.51C39.5491 27.3239 39.5673 27.1196 39.6081 26.9244C39.6354 26.7973 39.6717 26.6748 39.7126 26.5522C39.7716 26.3752 39.8578 26.2072 39.9032 26.0256C39.935 25.8894 39.9123 25.7351 40.162 25.6852C40.2164 25.6761 40.2255 25.5989 40.1847 25.5581C40.0212 25.3992 40.0802 25.2948 40.1211 25.1858C40.2391 24.8908 40.3662 24.6048 40.4752 24.3097C40.5569 24.0918 40.6114 23.8649 40.6522 23.6288C40.7158 23.2657 40.7248 22.8798 40.8111 22.5167C40.8837 22.2125 41.0017 21.9266 41.0971 21.6315C41.1198 21.5634 41.1107 21.4772 41.1334 21.4136C41.1788 21.291 41.1924 21.1412 41.3195 21.0641C41.4557 20.9778 41.5238 20.8916 41.4194 20.6918C41.3649 20.5784 41.4284 20.483 41.4875 20.4104C41.5646 20.3151 41.6827 20.247 41.8007 20.1789C41.9369 20.0972 42.073 20.0291 42.0413 19.8294C42.0231 19.7204 42.123 19.6478 42.2138 19.5978C42.6223 19.3709 42.813 19.0213 43.0263 18.6582C43.2851 18.1543 43.5937 17.6504 43.9524 17.1647C44.1067 16.9831 44.2837 16.8197 44.4608 16.6563C45.0418 16.1661 45.7681 15.7984 46.5897 15.6622C46.7532 15.644 46.9211 15.6349 47.0709 15.5714C47.4341 15.4352 47.8472 15.4625 48.2194 15.5941C48.7187 15.753 49.209 15.9345 49.6402 16.1933C49.7446 16.2523 49.8581 16.3022 49.9262 16.393C50.3892 17.0195 50.8522 17.5687 51.0384 18.2269C51.1791 18.7535 51.1836 19.2846 51.1473 19.784C51.1291 20.1743 51.0611 20.5511 50.9839 20.9188C50.9793 20.9415 50.9975 20.9687 50.993 20.9914C50.9385 21.2002 50.6752 21.2638 50.2621 21.173C49.8944 21.0958 49.6811 20.9778 49.6856 20.8099C49.6947 20.6237 49.6992 20.4376 49.7083 20.2515L49.6538 20.2379Z" fill="black"/>
<path d="M41.9637 19.4664C41.941 19.2304 41.8684 19.017 41.823 18.7628C41.7867 18.5404 41.7004 18.2998 41.4553 18.2862C41.3918 18.2862 41.3645 18.2271 41.3146 18.2045C41.2283 18.1591 41.1421 18.1137 41.0468 18.091C41.0014 18.0819 40.9378 18.1364 40.9106 18.1046C40.7699 17.9275 40.5202 17.8912 40.3205 18.032C40.148 17.8822 39.98 18.0047 39.8393 18.1091C39.694 18.1999 39.517 18.209 39.4217 18.4042C39.3944 18.4541 39.3581 18.4859 39.3082 18.4768C39.1538 18.4496 39.0313 18.5131 38.9178 18.5812C38.8043 18.6539 38.6954 18.731 38.6046 18.84C38.5002 18.9489 38.3867 19.0397 38.255 19.1078C38.1234 19.1804 37.9918 19.2621 37.8238 19.3121C37.6513 19.3711 37.5242 19.4891 37.4243 19.6298C37.3018 19.7887 37.2155 19.9794 37.102 20.1473C36.9432 20.3924 36.8388 20.6784 36.7888 20.978C36.7207 21.382 36.6799 21.7951 36.5755 22.1673C36.521 22.3535 36.403 22.5214 36.2986 22.6894C36.0988 23.0298 35.8401 23.3521 35.6812 23.7244C35.5541 24.0013 35.4679 24.2918 35.3861 24.5823C35.309 24.8547 35.309 25.1543 35.2545 25.4312C35.082 26.2528 34.964 27.088 34.846 27.9233C34.8142 28.123 34.8187 28.3273 34.8051 28.5316C34.796 28.6314 34.7779 28.7313 34.7552 28.8312C34.6598 29.1943 34.5509 29.5529 34.4692 29.9206C34.3466 30.4427 34.2876 30.9828 34.1832 31.5094C34.1242 31.809 34.047 32.1086 34.1197 32.4264C34.1378 32.5172 34.0334 32.5262 33.8246 32.4672C33.4614 32.3583 33.0756 32.2584 32.8759 32.0768C32.7397 31.9543 32.6398 31.8453 32.717 31.7273C32.8259 31.5594 32.6852 31.3415 32.9394 31.2007C32.9757 31.1826 32.9712 31.1417 32.9621 31.11C32.7987 30.538 33.003 30.025 33.1482 29.503C33.1936 29.3305 33.1891 29.1489 33.2118 28.9764C33.2254 28.863 33.2481 28.7495 33.2753 28.6405C33.3162 28.4771 33.3843 28.3228 33.3979 28.1548C33.4115 28.0277 33.3616 27.8915 33.6112 27.8325C33.6612 27.8189 33.6657 27.7553 33.6203 27.719C33.4387 27.5874 33.4887 27.4921 33.5159 27.3922C33.5976 27.1244 33.702 26.8611 33.7656 26.5887C33.8155 26.389 33.8246 26.1756 33.8382 25.9623C33.8564 25.6309 33.8337 25.2904 33.8609 24.9591C33.8881 24.6822 33.9381 24.4143 34.0016 24.142C34.0152 24.0784 33.9926 24.0058 34.0107 23.9422C34.0425 23.8288 34.0379 23.6971 34.1423 23.6154C34.2604 23.5292 34.3058 23.4429 34.1741 23.275C34.1015 23.1796 34.1424 23.0888 34.1877 23.0162C34.2468 22.9254 34.3421 22.8528 34.451 22.7802C34.5781 22.6985 34.7052 22.6258 34.6326 22.4488C34.5918 22.3535 34.6735 22.2808 34.7506 22.2264C35.0956 21.9858 35.2136 21.6499 35.3407 21.3003C35.4134 21.0597 35.4906 20.8146 35.5632 20.574C35.6494 20.3334 35.7448 20.0928 35.8446 19.8477C35.9218 19.6571 36.0262 19.4846 36.1488 19.3121C36.5028 18.7719 36.9795 18.2998 37.5469 17.923C37.6604 17.8504 37.7739 17.7823 37.8556 17.6643C38.0644 17.4191 38.3458 17.2557 38.6681 17.1831C38.8679 17.1422 39.0358 17.0605 39.2174 16.9834C39.4035 16.9153 39.5851 16.8199 39.7848 16.7382C39.8801 16.7065 39.9709 16.652 40.0708 16.6565C40.157 16.6611 40.2433 16.6611 40.325 16.6611L40.5838 16.6747L40.8425 16.6792C40.9333 16.6838 41.0422 16.6974 41.1421 16.711C41.5416 16.77 41.9183 16.9107 42.2179 17.1332C42.6991 17.5008 42.9715 18.0002 43.1531 18.4587C43.2983 18.8173 43.3619 19.185 43.4073 19.53C43.4118 19.5527 43.4345 19.5708 43.4345 19.5935C43.4481 19.7978 43.2121 19.934 42.7944 19.9884C42.4267 20.0384 42.1998 20.0157 42.1498 19.884C42.0999 19.7388 42.0636 19.589 42.0091 19.4437L41.9637 19.4664Z" fill="black"/>
<path d="M50.6983 59.1675C48.7463 49.5394 42.7997 23.5014 36.145 26.1842C35.396 26.4884 34.7968 27.2419 34.4654 28.2315L34.3292 27.8865C32.9992 24.146 30.3482 22.2713 27.8606 23.0838C26.7575 23.4424 25.8133 24.3639 25.255 25.5759V25.5714C24.2517 22.0171 21.5508 20.0107 19.0905 20.4782C16.3986 20.9912 14.0653 24.1415 15.5134 28.3087C15.6768 28.8216 15.8584 29.3482 16.0264 29.8702L16.0173 29.8657C14.4784 27.6641 11.8138 27.7503 10.2659 29.0622C6.421 32.317 15.9855 53.0983 18.7001 60.0617C18.9316 60.6564 18.2507 61.183 17.7332 60.8153C14.0608 58.2142 5.70377 52.9576 1.79535 55.9445C1.46398 56.2486 1.14622 56.6617 0.901093 57.2473C0.705899 57.7149 0.83754 58.2551 1.20977 58.5955C5.26799 62.2906 8.44557 65.3592 10.6336 67.52C14.0154 70.8519 16.0945 73.058 19.785 75.296C22.2317 76.7803 24.4333 77.7018 25.9586 78.2602C26.4942 78.4463 36.9666 81.8645 44.9832 75.0191C47.1121 73.2033 48.5284 71.1197 49.4772 69.1723C50.9888 66.0719 51.3837 62.5493 50.6983 59.1675Z" fill="#F0D0D5"/>
<path d="M21.2463 45.9083C21.151 45.4408 21.033 44.9777 20.9785 44.5011C20.9286 44.0744 20.8877 43.6522 20.6108 43.3072C20.5382 43.2165 20.5246 43.0984 20.4792 42.9895C20.402 42.7988 20.3248 42.6036 20.2386 42.4175C20.1977 42.3313 20.0933 42.2677 20.0843 42.1769C20.0434 41.7275 19.9208 41.319 19.6394 40.9649C19.6802 40.5881 19.4442 40.3249 19.2762 40.0253C19.1037 39.7302 19.0175 39.3943 18.7769 39.1265C18.7134 39.0538 18.6634 38.963 18.6543 38.8722C18.5999 38.3094 18.3593 37.8146 18.1368 37.3107C17.9008 36.7705 17.7374 36.2031 17.7011 35.5948C17.6829 35.2725 17.574 34.9638 17.4696 34.6597C17.347 34.3011 17.179 33.9561 17.0429 33.602C16.8477 33.0845 16.6252 32.5852 16.3302 32.104C15.9398 31.464 15.5812 30.8057 15.2543 30.1339C15.0864 29.7935 15.0183 29.4121 14.923 29.0445C14.873 28.8583 14.8276 28.6813 14.7822 28.4861L14.6551 27.8869C14.6052 27.6917 14.5961 27.4784 14.5643 27.2741C14.5371 27.0698 14.5053 26.8655 14.5053 26.6567C14.4872 26.3481 14.4599 26.0394 14.469 25.7262C14.4554 25.4129 14.4872 25.0997 14.5144 24.7865C14.5416 24.4914 14.5961 24.2009 14.6415 23.9059C14.7187 23.6199 14.7732 23.3157 14.9003 23.0388C15.5539 21.3683 17.0202 19.9248 18.9449 19.4754C19.4124 19.3801 19.9027 19.3029 20.3839 19.3392C20.629 19.3438 20.865 19.3982 21.092 19.4573C21.9499 19.6933 22.6944 20.1382 23.339 20.6557C24.2514 21.4092 24.9823 22.3262 25.4907 23.3384C25.7767 23.9149 25.9855 24.5096 26.2851 25.077C26.3713 25.2359 26.2896 25.3176 26.0626 25.3176C25.6677 25.3176 25.2637 25.3449 24.9686 25.1633C24.7734 25.0362 24.5964 24.9272 24.5692 24.7048C24.5329 24.3689 24.2151 24.151 24.2696 23.7651C24.2741 23.7107 24.2333 23.6607 24.1924 23.6199C23.5024 22.9344 23.0122 22.1491 22.2586 21.5772C22.018 21.391 21.7321 21.273 21.4552 21.1641C21.2781 21.0778 21.0965 21.0279 20.915 20.9598C20.6517 20.8735 20.3793 20.7828 20.1024 20.7782C19.8891 20.7782 19.7029 20.8508 19.4896 20.642C19.4442 20.6012 19.3307 20.6284 19.2989 20.6829C19.1764 20.8962 19.0175 20.928 18.8495 20.9598C18.4047 21.0778 17.9462 21.2322 17.5649 21.5181C17.2744 21.7179 17.0338 21.9812 16.8386 22.2671C16.5435 22.7211 16.3438 23.2159 16.2167 23.7197C16.1486 23.924 16.1168 24.1374 16.0533 24.3416C16.026 24.555 15.9761 24.7638 15.967 24.9726C15.967 25.0725 15.9988 25.1724 15.9897 25.2722C15.967 25.4493 16.026 25.6399 15.9534 25.8079C15.8626 25.994 15.8581 26.1529 16.0623 26.3117C16.1758 26.398 16.1758 26.5523 16.1713 26.6794C16.1804 26.8429 16.1441 27.0108 16.1032 27.1878C16.0487 27.3967 16.0396 27.6055 16.2303 27.7734C16.3347 27.8642 16.3302 28.0231 16.3347 28.182C16.3302 28.8538 16.5526 29.453 16.8159 30.0431C17.1745 30.8421 17.5649 31.6228 17.928 32.4172C18.0688 32.7259 18.1868 33.0482 18.3093 33.3705C18.6952 34.3601 18.9721 35.3905 19.2853 36.4028C19.3443 36.6026 19.3988 36.8068 19.5077 36.9884C19.7574 37.4015 19.9027 37.8509 20.0071 38.3184C20.1342 38.8813 20.4065 39.3807 20.6835 39.88C20.747 39.998 20.8378 40.107 20.8696 40.2341C21.0965 41.1238 21.6004 41.9 21.9 42.758C22.1406 43.4525 22.3131 44.1743 22.5083 44.8869C22.6581 45.4362 22.7852 45.9991 22.9259 46.5529C22.935 46.5892 22.9668 46.6165 22.9758 46.6573C23.0439 46.9796 22.8397 47.1748 22.3993 47.193C22.0135 47.2066 21.7366 47.0931 21.6276 46.8162C21.5096 46.5166 21.4188 46.2034 21.3144 45.8947L21.2463 45.9083Z" fill="black"/>
<path d="M29.004 43.5113C28.9359 43.1119 28.8451 42.717 28.8179 42.3039C28.7952 41.9362 28.777 41.573 28.5319 41.287C28.4684 41.2144 28.4593 41.11 28.423 41.0192C28.3594 40.8558 28.3004 40.6924 28.2232 40.5335C28.1915 40.4609 28.0871 40.4109 28.0871 40.3338C28.078 39.9479 27.9827 39.5984 27.7284 39.3033C27.7965 38.9765 27.5786 38.7586 27.4334 38.5044C27.2881 38.2547 27.2246 37.9687 27.0021 37.7463C26.9431 37.6873 26.9023 37.6101 26.9023 37.533C26.8887 37.0472 26.6889 36.6296 26.5028 36.2029C26.2985 35.7444 26.2168 35.2496 26.2214 34.7276C26.2259 34.4507 26.1442 34.1874 26.067 33.9287C25.9717 33.62 25.8355 33.3295 25.7266 33.0253C25.5722 32.585 25.3952 32.1538 25.141 31.7452C24.8051 31.196 24.5009 30.6331 24.2331 30.0566C24.165 29.9113 24.1196 29.757 24.0833 29.5981C24.0561 29.4301 24.0107 29.3257 23.9834 29.0307C23.9335 28.2953 24.0288 27.5871 24.1877 26.8926C24.3103 26.3751 24.4465 25.8622 24.6371 25.3628C24.8232 24.8998 25.023 24.4277 25.318 23.9965C25.7629 23.37 26.353 22.8162 27.0838 22.4259C27.8238 22.0445 28.659 21.8584 29.5124 21.9084C29.9164 21.9311 30.3295 21.9765 30.7154 22.0945C30.906 22.158 31.1012 22.2216 31.2692 22.3214C31.9228 22.6619 32.4721 23.1295 32.9487 23.6197C33.6387 24.3233 34.188 25.1132 34.6056 25.9484C34.8462 26.4251 35.0233 26.9108 35.3183 27.3602C35.4046 27.4873 35.3229 27.5644 35.1004 27.5871C34.71 27.628 34.3151 27.6961 34.0246 27.569C33.8249 27.4827 33.6751 27.3965 33.6433 27.2058C33.6024 26.9244 33.3301 26.7428 33.3982 26.4024C33.4072 26.3524 33.3709 26.3116 33.3391 26.2753C32.7218 25.7033 32.3722 24.9997 31.8048 24.4323C31.6187 24.2552 31.3963 24.1145 31.1784 23.9874C31.0377 23.9057 30.906 23.8058 30.7562 23.7332C30.5565 23.6106 30.3477 23.4881 30.1207 23.4245C29.9437 23.3837 29.7712 23.4154 29.6577 23.1612C29.6305 23.1113 29.5306 23.1113 29.4943 23.1567C29.3399 23.3428 29.2083 23.302 29.063 23.302C28.6817 23.2656 28.2868 23.3201 27.9146 23.4336C27.6467 23.538 27.3925 23.6878 27.1883 23.8921C26.8614 24.2008 26.6345 24.5911 26.4302 24.9634C26.2622 25.2811 26.0943 25.5944 25.9808 25.9303C25.949 26.0074 25.9672 26.1028 25.9399 26.1799C25.89 26.3207 25.89 26.4841 25.7856 26.5976C25.6585 26.7201 25.6222 26.8472 25.7674 27.0243C25.8491 27.1196 25.8174 27.2422 25.7901 27.342C25.7493 27.4691 25.6585 27.5917 25.5904 27.7188C25.4951 27.8731 25.3997 28.0275 25.5495 28.2C25.6267 28.2908 25.5813 28.4179 25.5495 28.5268C25.5087 28.6357 25.486 28.8037 25.4633 28.8536C25.4587 28.8809 25.4678 28.9535 25.4769 29.0216C25.486 29.0897 25.4996 29.1532 25.5178 29.2213C25.5813 29.4846 25.6766 29.7343 25.7856 29.9839C26.0761 30.6603 26.3984 31.3276 26.6935 31.9994C26.8115 32.2627 26.8977 32.5351 26.9931 32.8075C27.2927 33.6472 27.4924 34.5143 27.6921 35.3858C27.7375 35.5538 27.7738 35.7308 27.8692 35.8806C28.0871 36.2256 28.1915 36.6069 28.2596 37.0064C28.3458 37.483 28.5773 37.9052 28.8134 38.3274C28.8678 38.4227 28.9495 38.5135 28.9722 38.6224C29.1357 39.376 29.576 40.0251 29.8166 40.7469C30.0118 41.3324 30.1343 41.9453 30.2841 42.549C30.3976 43.0166 30.4884 43.4932 30.5973 43.9653C30.6064 43.9971 30.6337 44.0198 30.6382 44.0515C30.6881 44.3239 30.4748 44.51 30.0481 44.5509C29.6713 44.5872 29.4035 44.5009 29.3172 44.2694C29.2174 44.0152 29.1447 43.7474 29.0585 43.4886L29.004 43.5113Z" fill="black"/>
<path d="M34.2655 33.3887L33.7934 31.7727C33.7253 31.5458 33.7298 31.4232 33.6981 31.2688C33.6708 31.119 33.6663 30.9647 33.6527 30.8149C33.63 30.5108 33.63 30.2066 33.6481 29.9025C33.6845 29.2942 33.807 28.695 34.0204 28.123C34.2337 27.5556 34.5469 27.0109 34.9918 26.5706C35.7817 25.7399 37.0527 25.5401 38.0377 25.9305C39.0319 26.3209 39.7809 27.0517 40.489 27.8007C40.8567 28.1957 41.1654 28.6814 41.465 29.1444C42.0052 29.9933 42.4863 30.8739 42.9312 31.7682C43.1355 32.1767 43.4078 32.5762 43.5531 32.9711C44.2794 34.9185 44.9603 36.8523 45.7547 38.7725C46.1042 40.3567 46.6944 41.832 47.1982 43.3754C47.7021 44.9188 48.097 46.5212 48.6281 48.0374C48.7689 48.4414 48.9005 48.9089 48.9822 49.3356C49.477 51.9095 50.1125 54.4425 50.6936 57.0118C50.8479 57.6972 50.9977 58.3872 51.1384 59.0772C51.2791 59.7853 51.3699 60.5026 51.4062 61.2243C51.4834 62.6633 51.3382 64.1114 50.9886 65.4914C50.6119 66.9576 50.0898 68.4601 49.359 69.8219C48.5056 71.447 47.4479 72.9768 46.1451 74.2932C45.673 74.7653 45.1827 75.2284 44.6471 75.6233C44.1205 76.0318 43.6121 76.4722 43.0311 76.8081L42.1822 77.3483C41.9008 77.5298 41.5921 77.6569 41.297 77.8158C40.9974 77.9656 40.7024 78.1245 40.3982 78.2698L39.4631 78.6465C37.7926 79.3002 36.0132 79.7314 34.2019 79.8994C32.3907 80.0674 30.5613 80.0265 28.7501 79.7723C27.8286 79.6407 26.9117 79.4409 25.9947 79.1595C25.4908 79.0006 25.0959 78.8236 24.6556 78.6465C24.2243 78.4649 23.8022 78.2788 23.38 78.0836C20.0163 76.5266 16.8932 74.4203 14.2195 71.8783C12.204 69.9899 10.3202 68.0198 8.29561 66.195C6.42084 64.4791 4.55061 62.7632 2.67584 61.0473L0.560481 59.0863C0.288117 58.8048 0.106541 58.4417 0.0339108 58.0558C-0.0432589 57.679 0.0157519 57.2342 0.165552 56.8983C0.378904 56.3853 0.692121 55.8769 1.10975 55.4547C1.15514 55.4139 1.24593 55.314 1.31856 55.2686L1.50467 55.137C1.6227 55.0598 1.73618 54.969 1.86783 54.9055L2.24459 54.7057L2.63952 54.5469C3.16609 54.3608 3.71082 54.2427 4.24647 54.211C5.31777 54.1292 6.34367 54.27 7.32418 54.4969C9.28066 54.9645 11.0783 55.7453 12.8032 56.6304C13.6657 57.0753 14.5055 57.5474 15.3317 58.0422C15.7448 58.2919 16.1533 58.5415 16.5573 58.8003L16.8615 58.9955L16.9976 59.0817L17.0113 59.0908L17.0703 59.1226C17.1066 59.1362 17.1338 59.168 17.161 59.1317C17.1883 59.0999 17.1656 59.0499 17.1429 59.0227L17.1157 58.9864L17.102 58.9728L17.0975 58.9682V58.9637L17.0793 58.9228L17.0476 58.8457L16.5028 57.6064C16.1442 56.7757 15.7947 55.9359 15.4542 55.0961C14.1832 51.973 12.9485 48.8272 11.7864 45.6451C10.9602 43.3618 10.1704 41.0603 9.50763 38.6998C9.18079 37.5151 8.88119 36.3212 8.65876 35.091C8.44541 33.8563 8.26383 32.6034 8.35916 31.2325C8.3864 30.8467 8.44995 30.4427 8.56344 30.0251C8.68146 29.612 8.85396 29.1716 9.16264 28.7586C9.24434 28.6587 9.31697 28.5543 9.42138 28.459C9.51671 28.3636 9.62111 28.2638 9.70282 28.2093C9.87532 28.0731 10.0478 27.946 10.2339 27.8371C10.6016 27.6101 10.9965 27.4421 11.4096 27.315C12.2313 27.0744 13.1164 27.0245 13.9699 27.2242C14.8233 27.4104 15.6313 27.8416 16.2622 28.4317C16.6254 28.7586 16.7843 29.0309 16.8388 29.1762C16.8887 29.326 16.8161 29.3578 16.6254 29.2851C16.462 29.2261 16.3031 29.1807 16.1442 29.1308C15.9763 29.0899 15.8038 29.0445 15.6222 28.9855C15.2454 28.8857 14.8233 28.7086 14.2014 28.577C13.7792 28.4817 13.3707 28.4726 12.9576 28.4953C12.5445 28.5225 12.1132 28.5861 11.6321 28.7222C11.2825 28.813 10.9512 28.9946 10.6561 29.217C10.352 29.4304 10.1749 29.6846 10.0297 30.0251C9.76183 30.6969 9.70736 31.4913 9.61203 32.2539C9.5848 32.4718 9.61658 32.7895 9.65289 33.0438C10.0115 35.3361 10.6606 37.5922 11.3325 39.8392C12.0179 42.0862 12.7669 44.3196 13.584 46.5303C14.1197 47.9738 14.7234 49.3947 15.309 50.8246L16.4438 53.6027C16.9931 54.9509 17.5197 56.3082 18.0871 57.6427C18.196 57.8924 18.305 58.1466 18.4094 58.3917C18.541 58.6959 18.6817 59.0409 18.8043 59.3586C18.9223 59.6764 18.9723 59.9669 18.995 60.1939C19.0404 60.4163 18.9541 60.6887 18.7362 60.8521C18.65 60.9202 18.4729 61.0564 18.2687 61.0927C18.0598 61.1426 17.8783 61.0745 17.8056 61.0609C17.5197 61.011 17.0657 60.8339 16.5664 60.4935C16.1715 60.2347 15.7629 59.9714 15.3498 59.7036C13.3162 58.3872 11.2008 57.1661 8.94474 56.3127C7.2924 55.6999 5.49026 55.2686 3.83792 55.5682C3.20695 55.6863 2.61229 55.9405 2.14473 56.3127C2.0721 56.3672 1.95861 56.4988 1.87236 56.6123C1.78158 56.7303 1.69987 56.8529 1.62724 56.9845C1.55461 57.1162 1.49106 57.2523 1.43658 57.3931C1.40481 57.4748 1.39573 57.502 1.38665 57.552C1.38211 57.5973 1.37303 57.6427 1.37757 57.6881C1.38665 57.8697 1.4729 58.0422 1.6227 58.1557L2.40801 58.8502L3.97865 60.2529C5.72177 61.8235 7.44674 63.435 9.18079 65.0283C9.58026 65.396 10.0024 65.7365 10.4019 66.1042C11.1418 66.776 11.918 67.4841 12.5354 68.1968C13.2163 68.9821 13.7837 69.5632 14.5963 70.0807C15.0548 70.3712 15.6585 70.9477 16.1624 71.4016C16.807 71.9872 17.4334 72.5819 18.0825 73.1357C18.8588 73.803 19.6214 74.4022 20.6428 74.8516C21.192 75.0876 21.8866 75.5234 22.4676 75.8684C23.1031 76.2543 23.7659 76.6083 24.4422 76.9261C24.7827 77.085 25.1231 77.2393 25.4727 77.3846C25.8268 77.5298 26.1627 77.6706 26.4986 77.7704C27.9103 78.1926 29.4129 78.4286 30.9018 78.524C32.9264 78.6511 34.96 78.5149 36.9074 78.0564C38.8548 77.6025 40.7024 76.8171 42.3456 75.7322C43.6303 74.8834 44.8514 73.9074 45.8682 72.7408C46.6626 71.842 47.3662 70.8569 47.9654 69.8174C48.5737 68.7688 49.0548 67.6839 49.3998 66.5445C50.0898 64.2657 50.2169 61.8144 49.7811 59.454C49.5996 58.4871 49.4089 57.4839 49.1638 56.5351C48.5918 54.3381 48.1106 52.1364 47.6249 49.9258C47.0394 47.2611 46.2586 44.6646 45.3961 42.1089C45.1964 41.5143 44.9603 40.9196 44.7878 40.3249C44.1705 38.2504 43.4305 36.2213 42.5635 34.2648C41.6965 32.322 40.7251 30.4064 39.5221 28.8267C39.0364 28.2002 38.4917 27.6373 37.9379 27.3241C37.3931 27.0064 36.8893 26.9837 36.4081 27.2015C35.9723 27.3967 35.5456 27.9869 35.3277 28.6632C35.0917 29.3441 35.0281 30.1158 35.1098 30.8739C35.1234 31.0101 35.1598 31.1917 35.1688 31.287C35.1643 31.2779 35.1961 31.3914 35.2233 31.464L35.2959 31.7092L35.591 32.6851L36.1766 34.6371L37.3477 38.541C37.3977 38.7135 37.4748 38.8814 37.5248 39.0539C37.9606 40.5383 37.8607 41.0921 37.2388 40.5247C36.6895 40.0253 36.163 39.122 35.7272 37.792L34.3154 33.3842L34.2655 33.3887Z" fill="black"/>
<path d="M21.2463 45.9083C21.151 45.4408 21.033 44.9777 20.9785 44.5011C20.9286 44.0744 20.8877 43.6522 20.6108 43.3072C20.5382 43.2165 20.5246 43.0984 20.4792 42.9895C20.402 42.7988 20.3248 42.6036 20.2386 42.4175C20.1977 42.3313 20.0933 42.2677 20.0843 42.1769C20.0434 41.7275 19.9208 41.319 19.6394 40.9649C19.6802 40.5881 19.4442 40.3249 19.2762 40.0253C19.1037 39.7302 19.0175 39.3943 18.7769 39.1265C18.7134 39.0538 18.6634 38.963 18.6543 38.8722C18.5999 38.3094 18.3593 37.8146 18.1368 37.3107C17.9008 36.7705 17.7374 36.2031 17.7011 35.5948C17.6829 35.2725 17.574 34.9638 17.4696 34.6597C17.347 34.3011 17.179 33.9561 17.0429 33.602C16.8477 33.0845 16.6252 32.5852 16.3302 32.104C15.9398 31.464 15.5812 30.8057 15.2543 30.1339C15.0864 29.7935 15.0183 29.4121 14.923 29.0445C14.873 28.8583 14.8276 28.6813 14.7822 28.4861L14.6551 27.8869C14.6052 27.6917 14.5961 27.4784 14.5643 27.2741C14.5371 27.0698 14.5053 26.8655 14.5053 26.6567C14.4872 26.3481 14.4599 26.0394 14.469 25.7262C14.4554 25.4129 14.4872 25.0997 14.5144 24.7865C14.5416 24.4914 14.5961 24.2009 14.6415 23.9059C14.7187 23.6199 14.7732 23.3157 14.9003 23.0388C15.5539 21.3683 17.0202 19.9248 18.9449 19.4754C19.4124 19.3801 19.9027 19.3029 20.3839 19.3392C20.629 19.3438 20.865 19.3982 21.092 19.4573C21.9499 19.6933 22.6944 20.1382 23.339 20.6557C24.2514 21.4092 24.9823 22.3262 25.4907 23.3384C25.7767 23.9149 25.9855 24.5096 26.2851 25.077C26.3713 25.2359 26.2896 25.3176 26.0626 25.3176C25.6677 25.3176 25.2637 25.3449 24.9686 25.1633C24.7734 25.0362 24.5964 24.9272 24.5692 24.7048C24.5329 24.3689 24.2151 24.151 24.2696 23.7651C24.2741 23.7107 24.2333 23.6607 24.1924 23.6199C23.5024 22.9344 23.0122 22.1491 22.2586 21.5772C22.018 21.391 21.7321 21.273 21.4552 21.1641C21.2781 21.0778 21.0965 21.0279 20.915 20.9598C20.6517 20.8735 20.3793 20.7828 20.1024 20.7782C19.8891 20.7782 19.7029 20.8508 19.4896 20.642C19.4442 20.6012 19.3307 20.6284 19.2989 20.6829C19.1764 20.8962 19.0175 20.928 18.8495 20.9598C18.4047 21.0778 17.9462 21.2322 17.5649 21.5181C17.2744 21.7179 17.0338 21.9812 16.8386 22.2671C16.5435 22.7211 16.3438 23.2159 16.2167 23.7197C16.1486 23.924 16.1168 24.1374 16.0533 24.3416C16.026 24.555 15.9761 24.7638 15.967 24.9726C15.967 25.0725 15.9988 25.1724 15.9897 25.2722C15.967 25.4493 16.026 25.6399 15.9534 25.8079C15.8626 25.994 15.8581 26.1529 16.0623 26.3117C16.1758 26.398 16.1758 26.5523 16.1713 26.6794C16.1804 26.8429 16.1441 27.0108 16.1032 27.1878C16.0487 27.3967 16.0396 27.6055 16.2303 27.7734C16.3347 27.8642 16.3302 28.0231 16.3347 28.182C16.3302 28.8538 16.5526 29.453 16.8159 30.0431C17.1745 30.8421 17.5649 31.6228 17.928 32.4172C18.0688 32.7259 18.1868 33.0482 18.3093 33.3705C18.6952 34.3601 18.9721 35.3905 19.2853 36.4028C19.3443 36.6026 19.3988 36.8068 19.5077 36.9884C19.7574 37.4015 19.9027 37.8509 20.0071 38.3184C20.1342 38.8813 20.4065 39.3807 20.6835 39.88C20.747 39.998 20.8378 40.107 20.8696 40.2341C21.0965 41.1238 21.6004 41.9 21.9 42.758C22.1406 43.4525 22.3131 44.1743 22.5083 44.8869C22.6581 45.4362 22.7852 45.9991 22.9259 46.5529C22.935 46.5892 22.9668 46.6165 22.9758 46.6573C23.0439 46.9796 22.8397 47.1748 22.3993 47.193C22.0135 47.2066 21.7366 47.0931 21.6276 46.8162C21.5096 46.5166 21.4188 46.2034 21.3144 45.8947L21.2463 45.9083Z" fill="black"/>
<path d="M29.004 43.5113C28.9359 43.1119 28.8451 42.717 28.8179 42.3039C28.7952 41.9362 28.777 41.573 28.5319 41.287C28.4684 41.2144 28.4593 41.11 28.423 41.0192C28.3594 40.8558 28.3004 40.6924 28.2232 40.5335C28.1915 40.4609 28.0871 40.4109 28.0871 40.3338C28.078 39.9479 27.9827 39.5984 27.7284 39.3033C27.7965 38.9765 27.5786 38.7586 27.4334 38.5044C27.2881 38.2547 27.2246 37.9687 27.0021 37.7463C26.9431 37.6873 26.9023 37.6101 26.9023 37.533C26.8887 37.0472 26.6889 36.6296 26.5028 36.2029C26.2985 35.7444 26.2168 35.2496 26.2214 34.7276C26.2259 34.4507 26.1442 34.1874 26.067 33.9287C25.9717 33.62 25.8355 33.3295 25.7266 33.0253C25.5722 32.585 25.3952 32.1538 25.141 31.7452C24.8051 31.196 24.5009 30.6331 24.2331 30.0566C24.165 29.9113 24.1196 29.757 24.0833 29.5981C24.0561 29.4301 24.0107 29.3257 23.9834 29.0307C23.9335 28.2953 24.0288 27.5871 24.1877 26.8926C24.3103 26.3751 24.4465 25.8622 24.6371 25.3628C24.8232 24.8998 25.023 24.4277 25.318 23.9965C25.7629 23.37 26.353 22.8162 27.0838 22.4259C27.8238 22.0445 28.659 21.8584 29.5124 21.9084C29.9164 21.9311 30.3295 21.9765 30.7154 22.0945C30.906 22.158 31.1012 22.2216 31.2692 22.3214C31.9228 22.6619 32.4721 23.1295 32.9487 23.6197C33.6387 24.3233 34.188 25.1132 34.6056 25.9484C34.8462 26.4251 35.0233 26.9108 35.3183 27.3602C35.4046 27.4873 35.3229 27.5644 35.1004 27.5871C34.71 27.628 34.3151 27.6961 34.0246 27.569C33.8249 27.4827 33.6751 27.3965 33.6433 27.2058C33.6024 26.9244 33.3301 26.7428 33.3982 26.4024C33.4072 26.3524 33.3709 26.3116 33.3391 26.2753C32.7218 25.7033 32.3722 24.9997 31.8048 24.4323C31.6187 24.2552 31.3963 24.1145 31.1784 23.9874C31.0377 23.9057 30.906 23.8058 30.7562 23.7332C30.5565 23.6106 30.3477 23.4881 30.1207 23.4245C29.9437 23.3837 29.7712 23.4154 29.6577 23.1612C29.6305 23.1113 29.5306 23.1113 29.4943 23.1567C29.3399 23.3428 29.2083 23.302 29.063 23.302C28.6817 23.2656 28.2868 23.3201 27.9146 23.4336C27.6467 23.538 27.3925 23.6878 27.1883 23.8921C26.8614 24.2008 26.6345 24.5911 26.4302 24.9634C26.2622 25.2811 26.0943 25.5944 25.9808 25.9303C25.949 26.0074 25.9672 26.1028 25.9399 26.1799C25.89 26.3207 25.89 26.4841 25.7856 26.5976C25.6585 26.7201 25.6222 26.8472 25.7674 27.0243C25.8491 27.1196 25.8174 27.2422 25.7901 27.342C25.7493 27.4691 25.6585 27.5917 25.5904 27.7188C25.4951 27.8731 25.3997 28.0275 25.5495 28.2C25.6267 28.2908 25.5813 28.4179 25.5495 28.5268C25.5087 28.6357 25.486 28.8037 25.4633 28.8536C25.4587 28.8809 25.4678 28.9535 25.4769 29.0216C25.486 29.0897 25.4996 29.1532 25.5178 29.2213C25.5813 29.4846 25.6766 29.7343 25.7856 29.9839C26.0761 30.6603 26.3984 31.3276 26.6935 31.9994C26.8115 32.2627 26.8977 32.5351 26.9931 32.8075C27.2927 33.6472 27.4924 34.5143 27.6921 35.3858C27.7375 35.5538 27.7738 35.7308 27.8692 35.8806C28.0871 36.2256 28.1915 36.6069 28.2596 37.0064C28.3458 37.483 28.5773 37.9052 28.8134 38.3274C28.8678 38.4227 28.9495 38.5135 28.9722 38.6224C29.1357 39.376 29.576 40.0251 29.8166 40.7469C30.0118 41.3324 30.1343 41.9453 30.2841 42.549C30.3976 43.0166 30.4884 43.4932 30.5973 43.9653C30.6064 43.9971 30.6337 44.0198 30.6382 44.0515C30.6881 44.3239 30.4748 44.51 30.0481 44.5509C29.6713 44.5872 29.4035 44.5009 29.3172 44.2694C29.2174 44.0152 29.1447 43.7474 29.0585 43.4886L29.004 43.5113Z" fill="black"/>
<path d="M34.2655 33.3887L33.7934 31.7727C33.7253 31.5458 33.7298 31.4232 33.6981 31.2688C33.6708 31.119 33.6663 30.9647 33.6527 30.8149C33.63 30.5108 33.63 30.2066 33.6481 29.9025C33.6845 29.2942 33.807 28.695 34.0204 28.123C34.2337 27.5556 34.5469 27.0109 34.9918 26.5706C35.7817 25.7399 37.0527 25.5401 38.0377 25.9305C39.0319 26.3209 39.7809 27.0517 40.489 27.8007C40.8567 28.1957 41.1654 28.6814 41.465 29.1444C42.0052 29.9933 42.4863 30.8739 42.9312 31.7682C43.1355 32.1767 43.4078 32.5762 43.5531 32.9711C44.2794 34.9185 44.9603 36.8523 45.7547 38.7725C46.1042 40.3567 46.6944 41.832 47.1982 43.3754C47.7021 44.9188 48.097 46.5212 48.6281 48.0374C48.7689 48.4414 48.9005 48.9089 48.9822 49.3356C49.477 51.9095 50.1125 54.4425 50.6936 57.0118C50.8479 57.6972 50.9977 58.3872 51.1384 59.0772C51.2791 59.7853 51.3699 60.5026 51.4062 61.2243C51.4834 62.6633 51.3382 64.1114 50.9886 65.4914C50.6119 66.9576 50.0898 68.4601 49.359 69.8219C48.5056 71.447 47.4479 72.9768 46.1451 74.2932C45.673 74.7653 45.1827 75.2284 44.6471 75.6233C44.1205 76.0318 43.6121 76.4722 43.0311 76.8081L42.1822 77.3483C41.9008 77.5298 41.5921 77.6569 41.297 77.8158C40.9974 77.9656 40.7024 78.1245 40.3982 78.2698L39.4631 78.6465C37.7926 79.3002 36.0132 79.7314 34.2019 79.8994C32.3907 80.0674 30.5613 80.0265 28.7501 79.7723C27.8286 79.6407 26.9117 79.4409 25.9947 79.1595C25.4908 79.0006 25.0959 78.8236 24.6556 78.6465C24.2243 78.4649 23.8022 78.2788 23.38 78.0836C20.0163 76.5266 16.8932 74.4203 14.2195 71.8783C12.204 69.9899 10.3202 68.0198 8.29561 66.195C6.42084 64.4791 4.55061 62.7632 2.67584 61.0473L0.560481 59.0863C0.288117 58.8048 0.106541 58.4417 0.0339108 58.0558C-0.0432589 57.679 0.0157519 57.2342 0.165552 56.8983C0.378904 56.3853 0.692121 55.8769 1.10975 55.4547C1.15514 55.4139 1.24593 55.314 1.31856 55.2686L1.50467 55.137C1.6227 55.0598 1.73618 54.969 1.86783 54.9055L2.24459 54.7057L2.63952 54.5469C3.16609 54.3608 3.71082 54.2427 4.24647 54.211C5.31777 54.1292 6.34367 54.27 7.32418 54.4969C9.28066 54.9645 11.0783 55.7453 12.8032 56.6304C13.6657 57.0753 14.5055 57.5474 15.3317 58.0422C15.7448 58.2919 16.1533 58.5415 16.5573 58.8003L16.8615 58.9955L16.9976 59.0817L17.0113 59.0908L17.0703 59.1226C17.1066 59.1362 17.1338 59.168 17.161 59.1317C17.1883 59.0999 17.1656 59.0499 17.1429 59.0227L17.1157 58.9864L17.102 58.9728L17.0975 58.9682V58.9637L17.0793 58.9228L17.0476 58.8457L16.5028 57.6064C16.1442 56.7757 15.7947 55.9359 15.4542 55.0961C14.1832 51.973 12.9485 48.8272 11.7864 45.6451C10.9602 43.3618 10.1704 41.0603 9.50763 38.6998C9.18079 37.5151 8.88119 36.3212 8.65876 35.091C8.44541 33.8563 8.26383 32.6034 8.35916 31.2325C8.3864 30.8467 8.44995 30.4427 8.56344 30.0251C8.68146 29.612 8.85396 29.1716 9.16264 28.7586C9.24434 28.6587 9.31697 28.5543 9.42138 28.459C9.51671 28.3636 9.62111 28.2638 9.70282 28.2093C9.87532 28.0731 10.0478 27.946 10.2339 27.8371C10.6016 27.6101 10.9965 27.4421 11.4096 27.315C12.2313 27.0744 13.1164 27.0245 13.9699 27.2242C14.8233 27.4104 15.6313 27.8416 16.2622 28.4317C16.6254 28.7586 16.7843 29.0309 16.8388 29.1762C16.8887 29.326 16.8161 29.3578 16.6254 29.2851C16.462 29.2261 16.3031 29.1807 16.1442 29.1308C15.9763 29.0899 15.8038 29.0445 15.6222 28.9855C15.2454 28.8857 14.8233 28.7086 14.2014 28.577C13.7792 28.4817 13.3707 28.4726 12.9576 28.4953C12.5445 28.5225 12.1132 28.5861 11.6321 28.7222C11.2825 28.813 10.9512 28.9946 10.6561 29.217C10.352 29.4304 10.1749 29.6846 10.0297 30.0251C9.76183 30.6969 9.70736 31.4913 9.61203 32.2539C9.5848 32.4718 9.61658 32.7895 9.65289 33.0438C10.0115 35.3361 10.6606 37.5922 11.3325 39.8392C12.0179 42.0862 12.7669 44.3196 13.584 46.5303C14.1197 47.9738 14.7234 49.3947 15.309 50.8246L16.4438 53.6027C16.9931 54.9509 17.5197 56.3082 18.0871 57.6427C18.196 57.8924 18.305 58.1466 18.4094 58.3917C18.541 58.6959 18.6817 59.0409 18.8043 59.3586C18.9223 59.6764 18.9723 59.9669 18.995 60.1939C19.0404 60.4163 18.9541 60.6887 18.7362 60.8521C18.65 60.9202 18.4729 61.0564 18.2687 61.0927C18.0598 61.1426 17.8783 61.0745 17.8056 61.0609C17.5197 61.011 17.0657 60.8339 16.5664 60.4935C16.1715 60.2347 15.7629 59.9714 15.3498 59.7036C13.3162 58.3872 11.2008 57.1661 8.94474 56.3127C7.2924 55.6999 5.49026 55.2686 3.83792 55.5682C3.20695 55.6863 2.61229 55.9405 2.14473 56.3127C2.0721 56.3672 1.95861 56.4988 1.87236 56.6123C1.78158 56.7303 1.69987 56.8529 1.62724 56.9845C1.55461 57.1162 1.49106 57.2523 1.43658 57.3931C1.40481 57.4748 1.39573 57.502 1.38665 57.552C1.38211 57.5973 1.37303 57.6427 1.37757 57.6881C1.38665 57.8697 1.4729 58.0422 1.6227 58.1557L2.40801 58.8502L3.97865 60.2529C5.72177 61.8235 7.44674 63.435 9.18079 65.0283C9.58026 65.396 10.0024 65.7365 10.4019 66.1042C11.1418 66.776 11.918 67.4841 12.5354 68.1968C13.2163 68.9821 13.7837 69.5632 14.5963 70.0807C15.0548 70.3712 15.6585 70.9477 16.1624 71.4016C16.807 71.9872 17.4334 72.5819 18.0825 73.1357C18.8588 73.803 19.6214 74.4022 20.6428 74.8516C21.192 75.0876 21.8866 75.5234 22.4676 75.8684C23.1031 76.2543 23.7659 76.6083 24.4422 76.9261C24.7827 77.085 25.1231 77.2393 25.4727 77.3846C25.8268 77.5298 26.1627 77.6706 26.4986 77.7704C27.9103 78.1926 29.4129 78.4286 30.9018 78.524C32.9264 78.6511 34.96 78.5149 36.9074 78.0564C38.8548 77.6025 40.7024 76.8171 42.3456 75.7322C43.6303 74.8834 44.8514 73.9074 45.8682 72.7408C46.6626 71.842 47.3662 70.8569 47.9654 69.8174C48.5737 68.7688 49.0548 67.6839 49.3998 66.5445C50.0898 64.2657 50.2169 61.8144 49.7811 59.454C49.5996 58.4871 49.4089 57.4839 49.1638 56.5351C48.5918 54.3381 48.1106 52.1364 47.6249 49.9258C47.0394 47.2611 46.2586 44.6646 45.3961 42.1089C45.1964 41.5143 44.9603 40.9196 44.7878 40.3249C44.1705 38.2504 43.4305 36.2213 42.5635 34.2648C41.6965 32.322 40.7251 30.4064 39.5221 28.8267C39.0364 28.2002 38.4917 27.6373 37.9379 27.3241C37.3931 27.0064 36.8893 26.9837 36.4081 27.2015C35.9723 27.3967 35.5456 27.9869 35.3277 28.6632C35.0917 29.3441 35.0281 30.1158 35.1098 30.8739C35.1234 31.0101 35.1598 31.1917 35.1688 31.287C35.1643 31.2779 35.1961 31.3914 35.2233 31.464L35.2959 31.7092L35.591 32.6851L36.1766 34.6371L37.3477 38.541C37.3977 38.7135 37.4748 38.8814 37.5248 39.0539C37.9606 40.5383 37.8607 41.0921 37.2388 40.5247C36.6895 40.0253 36.163 39.122 35.7272 37.792L34.3154 33.3842L34.2655 33.3887Z" fill="black"/>
<path d="M51.6736 1.5311C51.5148 1.60373 51.3831 1.68998 51.1925 1.73991C51.0245 1.7853 50.8566 1.82616 50.8883 2.0032C50.8974 2.04859 50.852 2.06221 50.8339 2.09398C50.7975 2.14846 50.7612 2.20293 50.734 2.26194C50.7204 2.28918 50.7703 2.35727 50.734 2.36635C50.5524 2.4072 50.448 2.50253 50.4889 2.68864C50.2846 2.67956 50.3345 2.8339 50.3164 2.95193C50.3028 3.06995 50.212 3.13804 50.2619 3.30146C50.2755 3.34232 50.271 3.37863 50.2347 3.38771C50.0168 3.45126 49.9668 3.61922 49.9033 3.78264C49.8352 3.95967 49.6945 4.08678 49.4584 4.14579C49.3313 4.17757 49.2814 4.26835 49.2269 4.35006C49.1634 4.44993 49.1361 4.57703 49.0817 4.68144C48.9999 4.83578 48.9455 5.00828 48.9545 5.21709C48.9636 5.49853 48.9409 5.76182 48.891 6.00694C48.8638 6.12951 48.7503 6.20214 48.664 6.28384C48.487 6.4518 48.2827 6.6016 48.1193 6.77864C47.9967 6.91028 47.9105 7.06916 47.8333 7.23258C47.7607 7.38238 47.7289 7.56395 47.6608 7.71829C47.4611 8.17677 47.2477 8.63071 47.0435 9.08919C46.9935 9.19814 46.9663 9.32524 46.9209 9.43873C46.8982 9.4932 46.8664 9.54313 46.8301 9.59306C46.6894 9.76556 46.5396 9.92898 46.4079 10.106C46.2218 10.3602 46.0539 10.628 45.8678 10.8823C45.7588 11.0275 45.6363 11.1592 45.6408 11.3725C45.6408 11.4315 45.55 11.3907 45.3775 11.2545C45.0824 11.0184 44.7692 10.7778 44.6285 10.5827C44.5332 10.451 44.4651 10.3375 44.5513 10.3103C44.6784 10.2694 44.5922 10.0788 44.8373 10.1196C44.8736 10.1242 44.8736 10.1015 44.8736 10.0788C44.8328 9.67931 45.1188 9.49774 45.314 9.25715C45.3775 9.17998 45.4002 9.07103 45.4456 8.98025C45.4774 8.92123 45.5137 8.86676 45.55 8.81683C45.609 8.73966 45.6953 8.68519 45.7316 8.5944C45.7588 8.52631 45.7407 8.43098 45.9631 8.49907C46.0085 8.51269 46.0221 8.47637 45.9858 8.43552C45.8405 8.27664 45.895 8.24032 45.9313 8.19493C46.0357 8.07237 46.1537 7.95888 46.24 7.8227C46.3035 7.72283 46.3444 7.60481 46.3671 7.48225C46.4034 7.28705 46.4079 7.06916 46.4488 6.87851C46.4851 6.71963 46.5623 6.58345 46.6122 6.43364C46.6258 6.39733 46.6077 6.3474 46.6213 6.31108C46.6485 6.25207 46.644 6.16582 46.7393 6.15674C46.8437 6.14312 46.8891 6.11135 46.7711 5.95701C46.703 5.87076 46.7439 5.82991 46.7847 5.80267C46.8347 5.76635 46.9254 5.75728 47.0162 5.7482C47.1252 5.73912 47.2341 5.73458 47.1569 5.59386C47.1161 5.52123 47.1842 5.49853 47.2523 5.48945C47.5473 5.4486 47.6427 5.26702 47.7062 5.06729C47.7879 4.79492 47.8424 4.49986 47.9196 4.22296C47.9513 4.11401 48.0058 4.02323 48.0512 3.92336C48.201 3.61922 48.4325 3.37409 48.6686 3.1335C48.714 3.08811 48.7684 3.04272 48.773 2.96555C48.7775 2.78851 48.8819 2.67956 49.0181 2.59332C49.1815 2.48891 49.2178 2.29826 49.2496 2.10306C49.2587 2.05767 49.2451 1.99865 49.2768 1.97142C49.5265 1.79438 49.5265 1.44939 49.7217 1.23604C49.876 1.06354 50.0939 0.931897 50.2982 0.791176C50.4571 0.68223 50.6341 0.586903 50.8021 0.487036C50.8112 0.482497 50.8066 0.4598 50.8157 0.455261C50.9201 0.405327 51.1607 0.527891 51.4739 0.795715C51.7508 1.03176 51.8915 1.20426 51.8325 1.27689C51.769 1.3586 51.6873 1.42215 51.6146 1.49478C51.6419 1.5084 51.6555 1.52202 51.6736 1.5311Z" fill="black"/>
<path d="M30.1571 12.0759C30.2297 11.9124 30.2797 11.7536 30.3886 11.5856C30.4885 11.4403 30.5929 11.2951 30.4476 11.168C30.4113 11.1362 30.4386 11.0953 30.4295 11.059C30.4204 10.9909 30.4159 10.9228 30.3977 10.8593C30.3886 10.8275 30.3115 10.8048 30.3342 10.773C30.4431 10.6187 30.4658 10.4734 30.3115 10.3509C30.4703 10.2238 30.3342 10.1285 30.2706 10.024C30.207 9.91964 30.2297 9.80162 30.0845 9.70629C30.0482 9.67905 30.03 9.64728 30.0482 9.6155C30.1753 9.42031 30.1026 9.24781 30.0482 9.07531C29.9892 8.8892 30.0119 8.68946 30.1526 8.48519C30.2252 8.37625 30.2116 8.2673 30.198 8.1629C30.1844 8.04033 30.1208 7.92231 30.0936 7.7952C30.0527 7.61817 29.9846 7.44567 29.8439 7.27771C29.6532 7.05528 29.4989 6.82831 29.3854 6.5968C29.3264 6.47878 29.3673 6.34714 29.3809 6.22003C29.4081 5.96583 29.4671 5.71162 29.4762 5.45741C29.4807 5.26676 29.4444 5.08518 29.399 4.89907C29.3582 4.72657 29.2674 4.56315 29.2175 4.39066C29.0767 3.88678 28.9451 3.37837 28.8044 2.86996C28.7726 2.7474 28.709 2.62937 28.6727 2.50681C28.6546 2.4478 28.6455 2.38424 28.6455 2.32069C28.641 2.08918 28.6546 1.85767 28.6364 1.62617C28.6137 1.29479 28.5683 0.967953 28.5502 0.636577C28.5411 0.450462 28.5502 0.259807 28.4094 0.08731C28.3686 0.0373767 28.4685 0.0101406 28.6863 0.00560119C29.0677 0.00106179 29.458 -0.0170961 29.6941 0.0509949C29.853 0.0963888 29.9755 0.137244 29.9256 0.218953C29.8575 0.336977 30.0436 0.432304 29.8257 0.563947C29.794 0.582104 29.8076 0.604801 29.8257 0.618419C30.1163 0.91348 30.0119 1.2494 30.0164 1.57623C30.0164 1.68064 30.0709 1.78504 30.0936 1.88945C30.1072 1.95754 30.1163 2.02563 30.1208 2.09372C30.1253 2.19359 30.0981 2.298 30.1253 2.39332C30.148 2.46595 30.2252 2.52951 30.0119 2.62483C29.9665 2.64299 29.9846 2.68384 30.0391 2.68838C30.2524 2.72016 30.2343 2.78371 30.2343 2.84726C30.2343 3.01522 30.2207 3.18772 30.2388 3.35114C30.2524 3.4737 30.2978 3.59626 30.3614 3.71429C30.4567 3.89586 30.5974 4.0729 30.6882 4.25901C30.7654 4.41335 30.7926 4.57223 30.8471 4.72657C30.8607 4.76289 30.9061 4.79466 30.9152 4.83098C30.9334 4.89907 30.9878 4.96262 30.9243 5.03525C30.8516 5.11696 30.8426 5.17143 31.0287 5.21683C31.1331 5.24406 31.1285 5.30308 31.1195 5.35301C31.1013 5.41656 31.0378 5.48465 30.9787 5.55274C30.9016 5.63445 30.8244 5.71162 30.9697 5.77063C31.0468 5.80241 31.0105 5.86596 30.9651 5.92043C30.7699 6.15194 30.8108 6.36075 30.8925 6.56049C31.006 6.83739 31.1512 7.10976 31.2738 7.38212C31.3192 7.49106 31.3374 7.60001 31.3646 7.7135C31.4463 8.05849 31.4281 8.40802 31.4009 8.7621C31.3964 8.83019 31.3828 8.90282 31.4327 8.96637C31.5416 9.11163 31.5371 9.27051 31.4872 9.42939C31.4281 9.62458 31.528 9.80162 31.6279 9.97865C31.6506 10.0195 31.7005 10.0604 31.6914 10.1012C31.6188 10.4099 31.8367 10.6868 31.8276 10.9909C31.8231 11.2361 31.7368 11.4857 31.6733 11.7354C31.6233 11.9306 31.5462 12.1258 31.4826 12.3164C31.4781 12.3301 31.4962 12.3391 31.4917 12.3528C31.4463 12.4662 31.1785 12.5253 30.7699 12.5207C30.4022 12.5162 30.1889 12.4662 30.1844 12.3709C30.1798 12.2665 30.2025 12.1576 30.2116 12.0486C30.1934 12.0713 30.1753 12.0759 30.1571 12.0759Z" fill="black"/>
<path d="M11.8362 8.12159C11.9134 8.27593 12.0042 8.41211 12.0632 8.59823C12.1131 8.76619 12.1585 8.93414 12.3401 8.89783C12.3855 8.88875 12.4037 8.93414 12.4354 8.9523C12.4944 8.98408 12.5444 9.02039 12.6079 9.04763C12.6352 9.05671 12.7033 9.01131 12.7123 9.04763C12.7577 9.2292 12.8576 9.32907 13.0437 9.28368C13.0392 9.48795 13.198 9.43802 13.3161 9.44709C13.4341 9.46071 13.5067 9.54696 13.6656 9.49249C13.7065 9.47887 13.7428 9.48341 13.7519 9.51972C13.8199 9.73308 13.9924 9.78301 14.1604 9.84202C14.3374 9.90557 14.4736 10.0463 14.5417 10.2778C14.578 10.4049 14.6688 10.4548 14.7551 10.5048C14.8595 10.5683 14.9866 10.591 15.0955 10.641C15.2544 10.7181 15.4269 10.7681 15.6402 10.7544C15.9217 10.7408 16.1895 10.7544 16.4346 10.7998C16.5617 10.8225 16.6344 10.936 16.7206 11.0223C16.8931 11.1948 17.052 11.3945 17.2336 11.5534C17.3698 11.6714 17.5332 11.7531 17.7011 11.8303C17.8555 11.8984 18.037 11.9256 18.1959 11.9937C18.6635 12.1844 19.1265 12.3886 19.5941 12.5793C19.7075 12.6247 19.8346 12.6519 19.9481 12.6928C20.0071 12.7155 20.0571 12.7472 20.107 12.7836C20.284 12.9197 20.452 13.0695 20.6381 13.1966C20.9014 13.3782 21.1738 13.5371 21.4371 13.7232C21.5869 13.8276 21.723 13.9456 21.9409 13.9411C21.9999 13.9411 21.9636 14.0319 21.8274 14.2089C21.6005 14.5131 21.369 14.8308 21.1738 14.9761C21.0421 15.0759 20.9332 15.144 20.9014 15.0578C20.856 14.9307 20.6654 15.0215 20.7017 14.7718C20.7062 14.7355 20.6835 14.7355 20.6608 14.7355C20.2613 14.79 20.0707 14.504 19.821 14.3133C19.7393 14.2498 19.6304 14.2316 19.5396 14.1862C19.4806 14.159 19.4216 14.1227 19.3716 14.0818C19.2945 14.0228 19.2309 13.9411 19.1401 13.9048C19.072 13.8775 18.9722 13.9002 19.0357 13.6778C19.0493 13.6324 19.0085 13.6188 18.9722 13.6597C18.8178 13.8095 18.7815 13.755 18.7316 13.7187C18.6045 13.6188 18.4864 13.5053 18.3457 13.4191C18.2413 13.3555 18.1233 13.3192 17.9962 13.301C17.7965 13.2693 17.5786 13.2693 17.3834 13.233C17.22 13.2012 17.0838 13.1285 16.9294 13.0786C16.8931 13.065 16.8432 13.0832 16.8069 13.0695C16.7479 13.0423 16.6616 13.0468 16.648 12.956C16.6344 12.8516 16.5981 12.8108 16.4437 12.9288C16.3575 12.9969 16.3166 12.956 16.2848 12.9197C16.2485 12.8698 16.2349 12.779 16.2213 12.6882C16.2077 12.5793 16.1986 12.4703 16.0624 12.5475C15.9898 12.5884 15.9671 12.5203 15.9535 12.4567C15.899 12.1617 15.7174 12.0709 15.5131 12.0164C15.2362 11.9392 14.9412 11.8938 14.6597 11.8212C14.5508 11.794 14.4555 11.7395 14.3556 11.6941C14.0469 11.5534 13.7927 11.3264 13.5385 11.0949C13.4886 11.0495 13.4432 10.995 13.366 10.995C13.189 10.995 13.0755 10.8952 12.9802 10.759C12.8667 10.5956 12.676 10.5683 12.4808 10.5411C12.4354 10.5365 12.3764 10.5502 12.3492 10.5139C12.1631 10.2687 11.8181 10.2733 11.5956 10.0871C11.4141 9.93735 11.2779 9.71946 11.1281 9.51972C11.0146 9.36539 10.9147 9.18835 10.8058 9.02039C10.7967 9.01131 10.7785 9.01585 10.774 9.00677C10.7195 8.90237 10.833 8.65724 11.0963 8.33494C11.3278 8.04896 11.4958 7.90824 11.5684 7.96271C11.6501 8.02172 11.7182 8.10343 11.7954 8.17606C11.8181 8.15337 11.8272 8.13521 11.8362 8.12159Z" fill="black"/>
</svg>
