<svg width="24" height="30" viewBox="0 0 24 30" fill="none" xmlns="http://www.w3.org/2000/svg">
<path d="M2.36941 30H20.6572C21.9674 30 23.0327 28.9347 23.0327 27.6245V14.5163C23.0327 13.2061 21.9674 12.1408 20.6572 12.1408H20.5959V9.00612C20.5959 4.04082 16.5551 0 11.5898 0C6.62452 0 2.5837 4.04082 2.5837 9.00612V12.1408H2.37554C1.06533 12.1408 2.62584e-05 13.2061 2.62584e-05 14.5163V27.6245C-0.00609619 28.9347 1.05921 30 2.36941 30ZM6.52043 9.00612C6.52043 6.21429 8.79186 3.93673 11.5898 3.93673C14.3817 3.93673 16.6592 6.20816 16.6592 9.00612V12.1408H6.52043V9.00612Z" fill="#F39BA6"/>
</svg>
