<svg width="60" height="107" viewBox="0 0 60 107" fill="none" xmlns="http://www.w3.org/2000/svg">
<path d="M0.93558 53.8064C1.37853 53.5763 1.79847 53.3116 2.26443 53.1218C2.68436 52.9492 3.09856 52.7823 3.31716 52.3739C3.37468 52.2704 3.48971 52.2186 3.576 52.1381C3.73707 51.9943 3.89815 51.8562 4.04771 51.7009C4.11674 51.6319 4.12824 51.4938 4.22028 51.4535C4.66323 51.2809 5.02566 51.0221 5.24426 50.5964C5.65269 50.5331 5.80225 50.188 6.02085 49.9061C6.23944 49.6242 6.5386 49.4228 6.68817 49.0719C6.72843 48.9799 6.79744 48.8936 6.88373 48.8591C7.43023 48.6232 7.80993 48.2033 8.20686 47.7949C8.63255 47.3577 9.12727 47.001 9.71403 46.7537C10.0304 46.6214 10.2778 46.397 10.5251 46.1784C10.8185 45.9195 11.0716 45.6147 11.3593 45.3385C11.7734 44.9416 12.1589 44.5217 12.481 44.0327C12.9125 43.3769 13.3784 42.7499 13.8789 42.1631C14.132 41.864 14.4771 41.6569 14.7935 41.421C15.4263 40.9551 16.0879 40.5236 16.7092 40.0404C17.1751 39.678 17.6066 39.2696 18.0265 38.8611C18.4234 38.4757 18.7743 38.0442 19.1655 37.6531C20.3218 36.4968 21.4838 35.3463 22.6401 34.19C22.9162 33.9139 23.1751 33.609 23.4454 33.3271C23.5835 33.1833 23.7273 33.0568 23.8827 32.9302C24.4464 32.47 25.0216 32.027 25.5796 31.5553C26.3735 30.8823 27.1501 30.1862 27.944 29.5132C28.3984 29.1335 28.8644 28.7711 29.2038 28.2706C29.3016 28.1268 29.4224 28.1901 29.5604 28.4374C29.7963 28.8689 30.0609 29.3003 30.0379 29.6973C30.0206 29.9676 29.9861 30.1977 29.756 30.3013C29.4281 30.4508 29.3016 30.8593 28.8529 30.865C28.7896 30.865 28.7436 30.9225 28.7148 30.9743C28.1626 31.889 27.2824 32.4297 26.4886 33.074C26.2297 33.2811 26.0111 33.5457 25.7695 33.7758C25.6142 33.9254 25.4531 34.0692 25.2862 34.2073C25.0446 34.4086 24.7743 34.5812 24.5557 34.8056C24.3889 34.9724 24.2738 35.1967 23.9286 35.1219C23.8539 35.1047 23.7733 35.2025 23.7848 35.2772C23.8309 35.5821 23.664 35.6914 23.5145 35.818C23.106 36.1516 22.6746 36.4681 22.2834 36.819C21.99 37.0778 21.7254 37.3654 21.4723 37.6703C21.0811 38.142 20.7302 38.654 20.3333 39.12C19.9996 39.5112 19.6315 39.8563 19.2806 40.2302C19.2 40.3165 19.1482 40.4316 19.0677 40.5179C18.9124 40.6674 18.7858 40.863 18.573 40.932C18.3371 41.0011 18.1933 41.1046 18.1876 41.4153C18.1876 41.5878 18.038 41.7029 17.9115 41.7834C17.7446 41.887 17.5433 41.9502 17.3419 42.0078C17.1003 42.0768 16.8702 42.1343 16.8012 42.4277C16.7667 42.5831 16.5884 42.6636 16.4388 42.7154C15.76 42.9397 15.2768 43.3942 14.8281 43.8889C14.2183 44.5619 13.6373 45.2638 13.0332 45.9483C12.7974 46.2129 12.5328 46.4545 12.2797 46.7019C11.4858 47.467 10.6114 48.14 9.73127 48.8073C9.55869 48.9396 9.37463 49.0662 9.24807 49.2445C8.95469 49.6587 8.56924 49.9578 8.14355 50.2224C7.63157 50.5388 7.25765 50.9991 6.87798 51.465C6.79169 51.5743 6.72267 51.7067 6.60762 51.7814C5.80801 52.3049 5.25575 53.0987 4.51367 53.6855C3.9154 54.1572 3.24813 54.5541 2.59809 54.9683C2.09761 55.2905 1.5741 55.5839 1.06212 55.8888C1.0276 55.9118 1.01037 55.952 0.975852 55.9693C0.676717 56.1361 0.371829 55.9463 0.147478 55.4516C-0.0481097 55.0144 -0.0596219 54.6692 0.176234 54.4736C0.4351 54.2608 0.711203 54.071 0.981575 53.8754C0.964317 53.8409 0.947085 53.8236 0.93558 53.8064Z" fill="#69B9CB"/>
<path d="M21.7492 17.9332C21.847 25.1929 26.9036 29.6512 28.3992 30.8535C35.7108 36.7269 44.541 34.1957 45.214 33.9886C46.1862 33.6895 53.2792 31.3942 56.6329 23.9504C57.4843 22.0578 60.2743 14.9936 56.3798 8.39536C52.4853 1.79139 44.9782 0.865214 42.9533 0.617853C40.3301 0.295708 33.7319 0.0138382 28.1461 4.75972C27.1394 5.61686 21.6457 10.2822 21.7492 17.9332Z" fill="white"/>
<path d="M23.3536 22.4318C23.6585 23.6801 24.1647 24.8939 24.7285 26.0789C25.229 27.1316 25.8445 28.1498 26.7879 28.9149C27.0238 29.1163 27.2424 29.3694 27.4725 29.5995C27.9039 29.9964 28.3353 30.3991 28.8186 30.727C29.0372 30.8766 29.3248 30.9629 29.5031 31.1355C30.3833 31.9868 31.4763 32.5966 32.6498 32.9303C33.0467 33.2121 33.4954 33.3732 33.9441 33.5228C34.3986 33.6551 34.8818 33.7011 35.342 33.7989C35.8137 33.8737 36.2854 33.9485 36.7629 34.0232C37.2403 34.0635 37.7178 34.0923 38.1895 34.0578C38.4427 34.029 38.7245 34.0232 38.9719 34.0693C40.4906 34.3109 42.0553 34.1498 43.5509 33.8162C44.3678 33.6378 45.1329 33.4537 45.9037 33.1776C46.6803 32.9188 47.4569 32.6254 48.2335 32.3263C49.0619 31.9984 49.85 31.4979 50.5806 30.9571C51.4435 30.3013 52.2431 29.565 52.9622 28.7654C54.0264 27.6206 54.9008 26.3148 55.5048 24.8996C56.2987 23.0128 56.7934 20.9936 57.0407 18.9917C57.15 17.9735 57.3341 16.9496 57.3571 15.9199C57.4147 13.8719 57.0983 11.7952 56.2526 9.90265C55.6199 8.48176 54.6764 7.19893 53.5604 6.12895C52.5135 5.128 51.2767 4.35143 49.9823 3.70714C48.0667 2.7407 45.944 2.18268 43.7983 1.8893C41.6238 1.59017 39.4723 1.61317 37.3669 1.99284C36.3602 2.17117 35.3765 2.4588 34.4331 2.82122C33.9556 2.98229 33.4954 3.19514 33.0237 3.36772C31.3037 4.10405 29.7275 5.11651 28.3181 6.39358C26.3392 8.23441 24.7457 10.5239 23.8598 13.0321C23.3479 14.4472 23.043 15.9601 23.1753 17.4558C23.204 17.87 23.0717 18.0138 22.8014 17.8585C22.3297 17.5824 21.8407 17.3523 21.5818 16.5296C21.4668 15.9774 21.3402 15.4367 21.553 14.7751C21.7084 14.2976 21.7659 13.7914 21.9212 13.3082C21.9902 13.0666 22.0593 12.8192 22.1571 12.5891C22.2664 12.3648 22.3929 12.1461 22.5425 11.9448C22.6288 11.8355 22.6806 11.6399 22.7323 11.4904C23.578 8.67735 25.5799 6.35906 27.8004 4.51824C28.1743 4.22485 28.5425 3.92572 28.9106 3.62083C29.296 3.33896 29.6814 3.05708 30.0784 2.79246C30.6134 2.48182 31.1426 2.15394 31.7121 1.90657C32.1148 1.70523 32.5347 1.54415 32.9604 1.39459C33.3746 1.22776 33.8118 1.10695 34.2318 0.951626C34.8703 0.73878 35.4916 0.479926 36.1473 0.640999C36.2854 0.675514 36.6248 0.583478 36.7341 0.502942C37.1598 0.169292 37.7236 0.111766 38.2816 0.0714983C39.7887 -0.0608112 41.3017 0.00245184 42.7973 0.163524C43.8961 0.284329 45.0006 0.422384 46.0993 0.623724C47.8021 0.934364 49.4991 1.40609 51.1098 2.18269C52.4502 2.83273 53.6927 3.71864 54.8087 4.74835C55.0619 4.98996 55.3438 5.2028 55.5911 5.45591C55.804 5.70327 56.0168 5.95638 56.2354 6.20374C56.3389 6.3303 56.4425 6.45684 56.5345 6.58915C56.615 6.72721 56.6898 6.86529 56.7589 7.00336C56.9027 7.314 57.0408 7.57861 57.2076 7.82021C57.3687 8.06182 57.5355 8.29769 57.7886 8.51629C57.9266 8.64285 58.059 8.83267 58.1798 9.03976C58.2948 9.2526 58.3754 9.49999 58.4559 9.71284C58.5537 9.98896 58.64 10.2708 58.7032 10.5585C58.7493 10.8461 58.7895 11.1337 58.8355 11.4213C58.8931 11.7607 58.9161 12.0886 58.9621 12.4223C59.0024 12.7559 59.1174 13.0781 59.2382 13.429C59.3705 13.8029 59.4166 14.3552 59.3648 14.7981C59.2095 16.754 59.0599 18.6639 58.6687 20.5622C58.4099 21.845 58.0589 23.1106 57.5757 24.3531C57.058 25.5727 56.4885 26.798 55.7177 27.8968C55.1424 28.7826 54.4348 29.5765 53.7043 30.3358C52.548 31.5036 51.2306 32.5046 49.8213 33.3272C48.3889 34.1383 46.9334 34.7941 45.2767 35.2371C44.6324 35.3981 43.9996 35.4959 43.3841 35.6455C41.969 35.9906 40.5021 36.0539 39.0582 35.9273C37.3209 35.7663 35.5836 35.6167 33.8636 35.1968C33.4609 35.122 33.0582 35.0069 32.6786 34.8574C32.0113 34.61 31.39 34.2591 30.7399 33.9715C30.1129 33.6378 29.4916 33.2927 28.8818 32.9245C28.3008 32.5161 27.6911 32.1421 27.1446 31.6934C26.5923 31.2447 26.0803 30.7615 25.5971 30.2438C24.0382 28.5755 22.8416 26.5794 22.0248 24.4624C21.392 22.823 21.0699 21.0799 21.0066 19.3541C21.0066 19.2391 20.9778 19.1241 20.9778 19.009C20.995 18.0138 21.323 17.7262 21.8637 18.1576C22.3584 18.5373 22.6058 19.0953 22.7381 19.8834C22.8416 20.7578 23.0315 21.6207 23.2731 22.4721L23.3536 22.4318Z" fill="#69B9CB"/>
<path d="M39.3915 18.4625C39.2074 18.7444 38.9716 19.0148 38.7012 19.2334C38.5631 19.3484 38.4136 19.4405 38.2583 19.521C38.1087 19.6131 37.9476 19.6706 37.7866 19.7166C37.1365 19.9179 36.498 19.8719 35.9457 19.7166C34.939 19.4232 34.1797 18.8882 33.2996 18.4108C33.0695 18.2842 32.8911 18.0599 32.7013 17.8643C32.3734 17.4961 32.0742 17.0877 31.8671 16.6275C31.7751 16.4204 31.6025 16.2018 31.5853 15.9774C31.5277 14.8614 31.8729 13.918 32.1893 12.9343C32.7645 12.3533 33.0924 11.6802 33.5929 11.0647C34.0991 10.4549 34.7377 9.98323 35.3187 9.41948C35.474 9.26991 35.6869 9.1376 35.8939 9.05707C37.148 8.63137 38.3848 8.28622 39.7022 8.23445C41.1001 8.18268 42.5094 8.57385 43.6369 9.35045C44.2352 9.76464 44.8622 10.1673 45.4202 10.639C46.0818 11.197 46.7146 11.8125 47.2151 12.5316C47.9341 13.5843 48.4921 14.7406 48.82 16.0292C49.286 17.7377 48.9983 19.7511 47.9801 21.3849C47.4394 22.1845 46.6916 22.846 45.9092 23.3407C44.3445 24.3704 42.6187 24.9169 40.9045 25.3139C40.2544 25.4519 39.6101 25.5957 38.8968 25.6533C38.218 25.705 37.5507 25.7223 36.8777 25.6878C35.6293 25.636 34.3638 25.4749 33.1385 25.0838C29.4856 23.9678 26.4195 20.8729 25.315 17.1049C25.0331 16.2075 24.8317 15.2814 24.7512 14.3495C24.6994 13.8835 24.7109 13.4118 24.7282 12.9458C24.7742 12.0829 24.9008 11.2315 25.1021 10.3859C25.1999 9.97172 25.3265 9.51726 25.4875 9.12033C25.6486 8.71765 25.7752 8.29197 25.9823 7.90655C27.0292 5.62277 28.7607 3.70139 30.7972 2.34953C31.9707 1.59019 33.1845 0.997694 34.4731 0.393672C34.8412 0.226847 35.0483 0.307363 34.9563 0.623755C34.8298 1.1645 34.8182 1.68223 34.3638 2.1712C34.0589 2.50485 33.7885 2.78675 33.311 2.94782C32.615 3.18943 32.0858 3.75893 31.3494 3.94877C31.2459 3.97753 31.1308 4.06956 31.0445 4.15585C30.2967 4.9382 29.5834 5.7033 28.9276 6.53167C28.266 7.34854 27.7195 8.26321 27.3111 9.24115C27.196 9.5633 27.0637 9.89117 26.989 10.2248C26.9084 10.5585 26.8566 10.9036 26.7991 11.243C26.7301 11.686 26.6783 12.1347 26.6381 12.5834C26.5805 13.2334 26.5403 13.895 26.6093 14.5393C26.6726 15.0282 26.8164 15.4769 26.6381 15.9716C26.6035 16.0752 26.6553 16.3341 26.7531 16.4031C27.1098 16.6735 27.1615 17.0704 27.3111 17.4443C27.662 18.4625 28.1395 19.4635 28.8298 20.3149C29.0599 20.6485 29.3705 20.9131 29.6466 21.2065C29.9343 21.4826 30.2737 21.7127 30.5843 21.9601C31.614 22.6562 32.7703 23.0934 33.9381 23.3983C34.916 23.6456 35.9227 23.8297 36.9352 23.8527C37.171 23.8527 37.4011 23.8182 37.6312 23.8124C38.0569 23.8124 38.4999 23.7319 38.8911 23.7894C39.2995 23.8585 39.6677 23.7952 40.0186 23.4845C40.2142 23.3062 40.5766 23.2314 40.8699 23.1681C41.2439 23.0876 41.6408 23.0646 42.0205 23.0071C42.4807 22.9553 42.9236 22.8805 43.286 22.5124C43.4701 22.3053 43.821 22.2075 44.0914 22.0982C45.3339 21.6782 46.3522 20.7291 46.8527 19.5958C46.9907 19.1989 47.1575 18.8192 47.1978 18.3993C47.2381 18.1979 47.2841 17.9966 47.2783 17.7895C47.2956 17.5824 47.2956 17.3753 47.2783 17.174C47.2323 16.3513 47.0137 15.546 46.6513 14.7981C46.3752 14.2114 46.0473 13.6419 45.6388 13.1299C44.379 11.5191 42.613 10.3686 40.5651 10.0523C40.1682 9.98897 39.7597 9.94871 39.3685 10.0177C38.4711 10.1788 37.6255 10.3571 36.7971 10.6735C35.8077 11.0475 34.9505 11.9104 34.3465 12.802C34.2027 13.0091 34.1049 13.2449 33.9553 13.429C33.708 13.7569 33.5124 14.1136 33.3973 14.4588C33.2938 14.8039 33.265 15.1375 33.2996 15.4194C33.3858 15.9487 33.7655 16.5124 34.335 17.0014C34.778 17.4041 35.3359 17.7319 35.8939 17.9218C36.4519 18.1116 36.9927 18.1174 37.3091 17.9505C37.568 17.8355 37.8326 17.5191 37.9994 17.0704C38.1662 16.6217 38.2353 16.081 38.2123 15.5287C38.2065 15.4539 38.172 15.3849 38.172 15.3101C38.126 14.6888 38.3561 14.3609 38.9543 14.545C39.4778 14.7118 39.8747 15.1951 39.8978 15.9487C39.915 16.7713 39.777 17.6284 39.3283 18.428L39.3915 18.4625Z" fill="#69B9CB"/>
<path d="M36.0225 65.3003C36.7018 65.8813 37.3677 66.4845 38.0648 67.0297C38.6904 67.5168 39.3071 67.995 39.7674 68.6608C39.888 68.8306 40.0623 68.9737 40.2098 69.1301C40.4779 69.4161 40.755 69.6976 41.0186 69.9881C41.1393 70.1221 41.2153 70.3098 41.3493 70.4126C41.5102 70.5333 41.6621 70.6584 41.8141 70.7924C41.966 70.9265 42.1135 71.0606 42.2163 71.1634C42.3235 71.2885 42.4844 71.3778 42.5291 71.5387C42.5782 71.6907 42.5336 71.8694 42.4174 71.9856C42.4084 72.2448 42.1135 72.3163 41.8856 72.4101C41.6353 72.4995 41.2912 72.6023 40.9963 72.7006C40.3885 72.9062 39.8031 73.2011 39.1686 73.3307C38.9988 73.3665 38.82 73.429 38.6725 73.5184C37.7788 74.0591 36.809 74.4256 35.8393 74.8054C35.3209 75.011 34.807 75.2344 34.3065 75.4802C34.0563 75.6008 33.8105 75.7304 33.5647 75.8645L32.7603 76.3203C32.6084 76.4142 32.4654 76.4991 32.3403 76.5974C32.2152 76.7002 32.1124 76.8432 32.0587 77.0085C31.947 77.3347 32.0498 77.728 32.309 77.9335C32.9882 78.4921 33.4709 78.9346 34.0384 79.4038C34.8428 80.0741 35.6248 80.7578 36.3622 81.4996C37.3453 82.4917 38.3597 83.4659 39.3965 84.4088C39.5484 84.5473 39.7093 84.6814 39.8746 84.811L40.1025 84.9897L40.1696 85.03C40.2321 85.0747 40.3439 85.1015 40.3796 85.1953C40.4288 85.2936 40.3841 85.4321 40.2813 85.4679L40.1249 85.5439C40.0891 85.5618 40.0891 85.5618 40.0176 85.593L39.7629 85.6869C39.0881 85.9371 38.4133 86.1829 37.7296 86.4197C36.7063 86.7728 35.6695 87.0901 34.6328 87.3939C34.1501 87.5369 33.6586 87.6665 33.1715 87.7961L32.4386 87.9928L32.0453 88.1C31.8442 88.1626 31.6387 88.2162 31.4376 88.2832C31.1471 88.3994 30.9326 88.529 30.7494 88.7525C30.5662 88.967 30.4589 89.244 30.4321 89.53C30.4053 89.8116 30.4678 90.102 30.5974 90.3389C30.66 90.4595 30.7494 90.5891 30.8477 90.7098C30.9594 90.826 31.0711 90.9466 31.1784 91.0673L32.7246 92.7878L35.7231 96.1304L37.1397 97.757C37.3766 98.0252 37.6268 98.2888 37.8771 98.548L38.1139 98.7893L38.2122 98.8921H38.2167C38.2346 98.8876 38.2569 98.9145 38.2391 98.9368L38.2346 98.9413C38.2346 98.9457 38.2435 98.9368 38.2033 98.9681L38.0469 99.1066L37.7341 99.3792L37.104 99.9199L32.7335 103.629C31.9113 104.335 31.1024 105.055 30.1997 105.658C29.945 105.828 29.9361 105.966 30.1595 106.06C30.5483 106.216 30.9192 106.413 31.4555 106.248C31.8219 106.136 32.1481 106.011 32.4431 105.689C32.8765 105.22 33.4977 104.92 33.8284 104.348C33.8731 104.268 33.9803 104.192 34.0697 104.138C35.6606 103.129 37.0057 101.819 38.4178 100.59C38.6502 100.389 38.887 100.197 39.1284 100.009C39.4367 99.7591 39.7942 99.5267 39.8523 99.12C39.888 98.9279 39.8657 98.7268 39.7942 98.5525C39.7227 98.3737 39.5886 98.2307 39.4501 98.0833L39.2133 97.833C38.8111 97.4174 38.3865 97.0242 38.0022 96.5952C37.7117 96.2689 37.4749 95.9159 37.0459 95.7818C36.9565 95.755 36.8091 95.5808 36.7912 95.4869C36.7286 95.1249 36.465 94.8792 36.2147 94.62C35.5354 93.9273 34.8428 93.248 34.1769 92.542C33.6854 92.0191 33.2162 91.4739 32.7559 90.9243L32.233 90.2808C32.1481 90.1512 32.0632 90.0439 32.0096 89.9322C31.9649 89.8115 32.0141 89.6686 32.1168 89.5881C32.2196 89.5032 32.3626 89.5166 32.4654 89.4898L32.5324 89.4809L32.5682 89.4764L32.6531 89.4541L32.9882 89.3647L33.663 89.177L35.0081 88.7971C35.2137 88.739 35.4327 88.7167 35.6382 88.6541C36.0181 88.5424 36.4292 88.462 36.7599 88.2832C37.1308 88.0822 37.4302 87.9704 37.8458 88.0241C38.0782 88.0553 38.3999 87.9436 38.6591 87.8408C38.9898 87.7112 39.3071 87.5369 39.6154 87.3671C39.8031 87.2643 39.9819 87.1616 40.174 87.0856C40.2679 87.0454 40.3707 87.0141 40.4734 86.9918C40.6164 86.956 40.8175 86.9113 41.0186 86.8845C41.2421 86.8577 41.4923 86.7773 41.6666 86.6432C41.8454 86.5225 41.9705 86.3661 42.0643 86.1874C42.2431 85.8478 42.2833 85.4188 42.1582 85.0613C42.1001 84.8825 42.0018 84.7216 41.8856 84.592C41.7739 84.4624 41.613 84.3105 41.4387 84.1898C40.9427 83.8189 40.7639 83.6625 40.4868 83.4391C40.2232 83.2201 39.9685 83.0011 39.7138 82.7732L36.0181 79.4529C35.5354 79.0195 35.0305 78.6128 34.53 78.1927L33.6452 77.4643C33.6049 77.4465 33.5737 77.3884 33.6049 77.3481C33.6228 77.3303 33.6452 77.3213 33.6675 77.3034C33.6809 77.2945 33.6675 77.3035 33.6988 77.2856L33.8686 77.2051L34.2127 77.0443L35.5846 76.4008C35.9421 76.2309 36.3041 76.0522 36.6795 75.936C37.5464 75.6589 38.3597 75.2836 39.1596 74.868C40.1249 74.3675 41.1438 74.0055 42.1671 73.6525L42.2565 73.6212L42.3012 73.6078L42.3861 73.5765L42.7346 73.4469C42.967 73.3665 43.1994 73.2547 43.3424 73.1073C43.6954 72.79 43.9233 72.2984 43.9233 71.8069C43.9233 71.5611 43.8697 71.3153 43.7759 71.1008C43.7267 70.9891 43.6731 70.8952 43.6016 70.7924C43.5301 70.6807 43.4318 70.5824 43.3245 70.4886C43.2843 70.4349 43.2173 70.3947 43.1637 70.35C43.1145 70.3009 43.0787 70.2383 43.0341 70.1847C42.967 70.0998 42.9313 70.0685 42.8776 70.0104L42.5872 69.6887L42.0062 69.0452C41.6175 68.6162 41.2287 68.1916 40.8175 67.785C39.8255 66.7974 38.7842 65.8634 37.752 64.916C36.9565 64.1831 36.1432 63.4726 35.3388 62.7531C35.2852 62.704 35.245 62.6414 35.1958 62.5922C34.7311 62.19 34.4048 62.2303 34.3155 62.7218C34.235 63.1553 34.3646 63.5888 34.7534 63.9865C35.1824 64.4244 35.6293 64.8445 36.0672 65.269L36.0225 65.3003Z" fill="#69B9CB"/>
</svg>
