<svg width="75" height="73" viewBox="0 0 75 73" fill="none" xmlns="http://www.w3.org/2000/svg">
<path d="M19.8453 40.7954L1.1551 70.9619C0.959512 71.2726 1.32768 71.6293 1.63257 71.4279L30.2402 52.3639L19.8453 40.7954Z" fill="#F5E3B4"/>
<path d="M18.5693 44.4196C17.9193 45.2479 17.298 46.0993 16.6135 46.8932C16.0037 47.6008 15.3997 48.2911 15.043 49.177C14.951 49.4071 14.7784 49.6084 14.6461 49.827C14.4045 50.2239 14.1571 50.6151 13.927 51.012C13.8235 51.1961 13.7889 51.432 13.6566 51.5816C13.0123 52.3122 12.4716 53.106 12.1149 54.0149C11.5339 54.5384 11.2808 55.2517 10.9414 55.9247C10.602 56.6035 10.1591 57.2306 9.91171 57.9554C9.84843 58.1452 9.73913 58.3466 9.60682 58.5019C8.80721 59.4396 8.2262 60.5096 7.62218 61.5738C6.97214 62.7186 6.2358 63.8001 5.37291 64.801C4.91271 65.336 4.53879 65.9572 4.16487 66.5613C3.73343 67.2631 3.48607 67.7808 3.16392 68.3331L3.06613 68.4999C2.85903 68.8565 2.68071 69.196 2.5599 69.4663C2.50238 69.6044 2.4506 69.7194 2.42759 69.8172C2.41033 69.938 2.73248 70.0474 2.97409 69.8403C4.28568 68.7185 4.9012 68.1087 5.19459 67.775C5.18308 67.775 5.30389 67.6888 5.38442 67.6312L5.64329 67.4529C5.81586 67.3321 5.99419 67.2228 6.17828 67.1078C6.54069 66.8892 6.9031 66.6706 7.26552 66.452C8.70942 65.5718 10.1763 64.7262 11.6145 63.823C12.6902 63.1442 13.7429 62.4194 14.7841 61.6888C15.7563 61.0043 16.6883 60.2679 17.6604 59.5776L26.2721 53.4569L27.296 52.7091L27.808 52.3294L28.0611 52.1396C28.1244 52.0935 28.0841 52.1165 28.0956 52.1108V52.105C28.0899 52.0877 28.0841 52.0935 28.0956 52.0935H28.1014C28.1071 52.0935 28.1129 52.0878 28.1186 52.0763V52.0705V52.0648L28.0726 52.013L27.6987 51.5758L26.1858 49.8443L21.693 44.8165C20.8474 43.8616 20.0248 42.8894 19.0641 42.0495C18.7937 41.8136 18.811 41.6411 19.1101 41.5548C19.6221 41.4052 20.111 41.2096 20.7323 41.4685C21.1523 41.6468 21.5204 41.8366 21.8138 42.2623C22.2337 42.8836 22.9241 43.3208 23.2002 44.0571C23.2404 44.1607 23.3497 44.2642 23.4418 44.3448C25.1503 45.7599 26.4964 47.5145 27.9403 49.177C28.412 49.7177 28.9355 50.2239 29.4245 50.7474C29.7984 51.1501 30.2528 51.6505 30.6498 52.0992L30.9547 52.4501C30.3161 52.8586 29.6776 53.2441 29.1023 53.6525C28.6881 53.9516 28.3257 54.3025 27.785 54.3197C27.6699 54.3255 27.4571 54.4866 27.4168 54.5959C27.2615 55.0159 26.8933 55.2229 26.5367 55.4531C25.576 56.0686 24.6038 56.6668 23.6546 57.2996C22.9528 57.7713 22.274 58.2718 21.6067 58.7895C20.577 59.5949 19.576 60.4405 18.5406 61.2401C17.6719 61.9074 16.7688 62.5287 15.8829 63.1787C15.6758 63.3283 15.5032 63.5124 15.2961 63.662C14.9165 63.9324 14.5425 64.2545 14.1284 64.4213C13.6681 64.6054 13.3402 64.801 13.0986 65.2382C12.9606 65.4856 12.6212 65.6984 12.3393 65.8595C11.9769 66.0666 11.58 66.2219 11.1945 66.3772C10.7286 66.5613 10.2856 66.7224 9.94047 67.1595C9.75639 67.3954 9.39973 67.568 9.09484 67.6888C8.42754 67.9649 7.80051 68.3101 7.19073 68.6898C6.88585 68.8796 6.59246 69.0809 6.29908 69.288L4.92421 70.2602L2.91656 71.6983C2.24351 72.1413 1.81206 72.1988 1.46691 72.2851C1.27707 72.3254 1.15627 72.3426 1.0067 72.3656C0.931921 72.3713 0.880147 72.3829 0.816868 72.3829C0.75359 72.3829 0.62128 72.3311 0.506228 72.2448C0.391176 72.1585 0.28763 72.0377 0.230104 71.9514C0.172578 71.8594 0.178332 71.8307 0.161074 71.7846L0.0632788 71.4625L0.0172592 71.2324C0.00575408 71.1518 0.00575259 71.0368 0 70.9447C0.0230103 70.7146 0.0115053 70.4673 0.247361 70.0531L0.93192 68.9198L2.69221 66.0378L3.64714 64.5249C4.29143 63.5239 4.94723 62.5345 5.60877 61.545C5.86764 61.1596 6.13801 60.7684 6.3336 60.3485C6.7938 59.3821 7.37481 58.5019 8.00185 57.6447C8.75543 56.6093 9.3422 55.4818 9.92321 54.3485C10.0555 54.0839 10.1706 53.802 10.3374 53.5604C11.5282 51.8979 12.3968 50.0456 13.5128 48.3429C14.416 46.9622 15.3997 45.6391 16.3604 44.3045C17.1024 43.2748 17.8733 42.2623 18.6326 41.2384C18.6844 41.1693 18.7074 41.083 18.7592 41.0198C19.2021 40.4445 19.6106 40.433 19.8752 40.9968C20.1053 41.4973 20.0823 42.0438 19.7314 42.5903C19.3459 43.1943 18.9318 43.7868 18.5291 44.3851L18.5693 44.4196Z" fill="#EBC464"/>
<path d="M19.4149 60.2391L19.8464 40.7954L30.2355 52.3581L19.4149 60.2391Z" fill="#EBC464"/>
<path d="M47.7753 52.358L45.6584 49.8441C44.0534 43.7464 38.2203 37.2574 35.3382 34.7953C34.7572 34.3006 32.0247 31.9938 28.7458 29.8021L25.7544 26.2585L20.0536 22.5596L16.4985 26.1607C13.4669 28.5308 15.8197 36.4463 17.3499 40.1337C22.6883 53.0138 38.4791 63.1268 43.5241 58.6168C43.7715 58.3982 43.9959 58.1681 44.203 57.938L47.3266 54.8028L47.7753 52.358Z" fill="#F5E3B4"/>
<path d="M44.5138 48.9351C44.2204 47.7616 43.7717 46.6053 43.3345 45.4491C42.9261 44.4309 42.4947 43.4069 41.7123 42.5728C41.5167 42.3542 41.3671 42.0723 41.1888 41.8307C40.8667 41.382 40.5388 40.939 40.1821 40.5133C40.0268 40.3177 39.7852 40.1682 39.6586 39.9726C39.0661 38.9774 38.3298 38.0857 37.4209 37.3667C36.9664 36.5613 36.2186 36.0493 35.511 35.4971C34.8092 34.9506 34.1131 34.335 33.3135 33.9094C33.1007 33.7943 32.8763 33.639 32.7095 33.4722C31.674 32.4309 30.466 31.6083 29.2349 30.8202L28.7402 30.4981C28.6137 30.4061 28.3145 30.2565 28.165 30.0206C27.9119 29.7157 27.6645 29.4108 27.4229 29.1002C26.9397 28.4732 26.4852 27.8289 26.0538 27.1673L25.8064 26.7992C25.7259 26.6899 25.6453 26.5806 25.5648 26.4655L25.2542 26.2469L24.9033 26.0111L24.1957 25.5509C23.3385 24.9929 22.4469 24.4924 21.5783 23.9517L20.7326 23.4339L20.0883 23.0657C19.887 23.2959 19.7087 23.5145 19.5303 23.7331C19.2715 24.038 19.0184 24.3428 18.771 24.6535C18.1382 25.4301 17.5572 26.1894 16.8554 26.9603C16.4009 27.501 16.1996 28.2948 16.1478 29.1577C16.0903 30.0264 16.0558 30.9871 16.1306 31.9478C16.2916 33.8749 16.6943 35.8423 17.2868 37.7464C17.7355 39.1845 18.3223 40.5594 19.0414 41.8652C19.7087 43.0905 20.5025 44.2353 21.3194 45.3628C23.77 48.682 26.7498 51.6273 30.0921 53.9917C30.8974 54.5554 31.7373 55.0616 32.583 55.5391C33.0029 55.7807 33.4228 56.0223 33.8485 56.2581C34.6309 56.6953 35.4247 57.098 36.2358 57.4317C37.047 57.7768 37.8753 58.0414 38.6979 58.2025C39.2905 58.3348 39.8657 58.3694 40.4237 58.3694C40.9702 58.3406 41.4764 58.2428 41.9194 58.0702C42.1207 57.9552 42.3336 57.8689 42.4947 57.7193L42.6327 57.6216L42.788 57.4605L43.1044 57.1441L44.5368 55.7174L45.463 54.8028C45.7449 54.5209 46.1936 54.0722 46.09 54.1643V54.1412V54.1297V54.124L46.1015 54.0607L46.1706 53.5602C46.2166 53.2266 46.2511 52.8929 46.2799 52.5593C46.3144 52.1278 46.4697 52.0185 46.7113 52.2256C47.1312 52.5823 47.5799 52.8929 47.7295 53.6695C47.8043 54.0894 47.8733 54.4001 47.7698 55.0386C47.6547 55.1594 47.5282 55.2802 47.3844 55.401C46.6538 55.9878 46.1706 56.7932 45.3307 57.2188C45.2156 57.2764 45.0948 57.4145 45.0028 57.5353C44.5886 58.0472 44.1859 58.5822 43.6624 59.0712C43.1159 59.5831 42.4026 59.8708 41.7008 60.0319C40.2742 60.3368 38.8648 60.0894 37.5532 59.7327C36.6903 59.5084 35.8389 59.2438 35.0163 58.9159L34.2282 58.5707L33.4631 58.1853C32.7268 57.7999 32.0307 57.3339 31.3174 56.9197C30.7881 56.5918 30.2186 56.3445 29.931 55.7807C29.8677 55.6656 29.5974 55.4873 29.4593 55.4758C28.9531 55.424 28.5561 55.0904 28.1535 54.7682C27.072 53.8881 26.0653 52.9274 25.0643 51.9667C24.328 51.2534 23.5859 50.5343 22.8611 49.8038C21.7336 48.6705 20.6348 47.5027 19.6454 46.2199C18.817 45.1499 18.1152 43.9822 17.4364 42.7971C17.2868 42.521 17.097 42.2679 16.9474 41.986C16.6886 41.4683 16.3837 40.9275 16.2571 40.3925C16.1248 39.7943 15.981 39.3513 15.5726 38.9026C15.3482 38.6495 15.1929 38.172 15.0951 37.7808C14.9628 37.2746 14.8995 36.7569 14.8535 36.2449C14.796 35.6294 14.7614 35.0542 14.4566 34.4501C14.2897 34.1222 14.2495 33.6275 14.2495 33.2191C14.2437 32.3159 14.2034 31.4185 14.2149 30.5039C14.2265 29.5892 14.2667 28.6515 14.5256 27.6793C14.7097 27.0235 15.0146 26.3505 15.5323 25.7752C15.958 25.3668 16.3204 24.9065 16.7173 24.4751L17.8851 23.1578L18.1785 22.8299L18.3223 22.6631L18.5351 22.433L19.6454 21.2422L19.8697 21.0063C20.8822 21.6391 21.8946 22.2719 22.9071 22.9047L24.6846 24.0322L26.6003 25.292L28.1017 27.1386L29.4708 28.8471L29.5053 28.8874L29.5111 28.8989L29.5226 28.9162C29.5283 28.9277 29.5398 28.9334 29.5456 28.9391L29.8792 29.175C30.1151 29.3361 30.3509 29.4972 30.5983 29.6352C31.7316 30.291 32.7555 31.0849 33.7277 31.9478C34.8897 32.989 36.1611 33.8749 37.3979 34.9276C37.6797 35.1692 37.9846 35.3936 38.2262 35.6639C39.8887 37.5795 41.6835 39.3628 43.0872 41.4913C44.2147 43.2113 45.1466 45.0752 45.8599 47.031C45.9922 47.4107 46.1073 47.8019 46.2281 48.1873C46.2914 48.3771 46.3316 48.5785 46.3777 48.7741L46.4467 49.0732L46.4812 49.2227L46.4985 49.2975C46.4985 49.309 46.4985 49.309 46.4985 49.3148C46.4985 49.3263 46.4927 49.3781 46.51 49.4011C46.533 49.4414 46.5157 49.4298 46.579 49.5104L46.9184 49.9764L47.5972 50.9025C47.6547 50.9831 47.741 51.0521 47.7985 51.1326C48.3048 51.846 48.2185 52.2774 47.5569 52.2947C46.9702 52.3119 46.3949 52.0473 45.8944 51.4375L45.0028 50.3273C44.9798 50.2927 44.9453 50.264 44.928 50.2294L44.8935 50.1087L44.8244 49.8556L44.7382 49.5276L44.5771 48.9293L44.5138 48.9351Z" fill="#EBC464"/>
<path d="M39.14 30.9874C37.7824 29.8312 24.7643 18.8552 20.3003 22.347C17.2686 24.7171 19.6215 32.6327 21.1516 36.3201C26.49 49.2001 42.2809 59.3132 47.3259 54.8031C54.9251 48.0036 43.558 34.7611 39.14 30.9874Z" fill="#F5E3B4"/>
<path d="M35.2681 28.9451C34.388 28.134 33.4618 27.3689 32.5759 26.5751C31.7878 25.8675 30.9882 25.1772 29.9758 24.7687C29.7169 24.6652 29.4695 24.4869 29.2222 24.3431C28.762 24.0899 28.296 23.8426 27.8185 23.6182C27.5999 23.5147 27.3296 23.5032 27.1455 23.3767C26.2308 22.7784 25.2069 22.3297 24.1196 22.2606C23.3545 21.8579 22.4686 21.927 21.7265 22.1514C20.9902 22.3584 20.2999 22.7726 20.0698 23.4917C20.0123 23.6758 19.9317 23.8771 19.8282 24.0497C19.5291 24.5904 19.3852 25.2463 19.345 25.9078C19.3105 26.5751 19.368 27.2539 19.46 27.9269C19.6844 29.3881 19.903 30.8435 20.1273 32.3104C20.2366 33.1043 20.5012 33.8924 20.7716 34.6632C21.0938 35.5779 21.531 36.4465 21.9451 37.3152C22.5664 38.5692 23.3028 39.76 24.1771 40.8415C25.3507 42.2854 26.6047 43.6545 27.9163 44.9604C28.5779 45.6277 29.1819 46.3639 29.8434 47.0543C31.1493 48.4291 32.5299 49.758 34.0486 50.9028C35.1876 51.7657 36.4129 52.5193 37.6842 53.152C38.8692 53.7388 40.1176 54.1817 41.3544 54.4924C42.269 54.734 43.1952 54.8605 44.0696 54.8318C44.9382 54.803 45.7436 54.5902 46.3016 54.1472C46.4396 54.0379 46.5777 53.9344 46.733 53.756C46.8768 53.595 47.0437 53.4454 47.1702 53.2728L47.5556 52.7608L47.872 52.2144C48.2575 51.4665 48.4703 50.6439 48.5278 49.7925C48.5854 48.9699 48.4703 48.1242 48.2805 47.2786C48.1712 46.8587 48.0791 46.433 47.9526 46.0016C47.5154 44.4138 46.8136 42.8434 45.9564 41.342C44.7196 39.1963 43.1952 37.1828 41.55 35.2902C40.618 34.2203 39.6458 33.156 38.5183 32.3507C38.2019 32.1321 38.1904 31.9537 38.4838 31.8387C38.9843 31.6431 39.4733 31.4015 40.1866 31.6776C40.664 31.8674 41.0955 32.0803 41.4579 32.5578C41.9871 33.2481 42.7637 33.7774 43.1031 34.6115C43.1492 34.7323 43.27 34.8531 43.3793 34.9509C45.2719 36.6881 46.6525 38.8971 47.8548 41.1579C48.2517 41.8942 48.6659 42.6363 49.0168 43.4014C49.2354 43.9076 49.4367 44.4196 49.6036 44.9431C49.8452 45.7082 50.0063 46.4963 50.1501 47.2901C50.2651 47.8826 50.4032 48.4867 50.1156 49.0389C50.0523 49.154 50.0638 49.4704 50.1328 49.5854C50.3514 50.0341 50.2766 50.5576 50.1386 51.0581C49.8164 52.4272 49.0628 53.6698 48.1021 54.6592C47.9181 54.8376 47.7512 55.0274 47.5556 55.1999C47.337 55.361 47.1415 55.5623 46.8999 55.6831C46.664 55.8154 46.4339 55.965 46.1808 56.0513L45.8069 56.2009C45.6803 56.2411 45.548 56.2699 45.4214 56.3102C44.6218 56.5288 43.7935 56.5978 42.9881 56.5575C42.177 56.5403 41.3889 56.4022 40.6123 56.2239C39.3179 55.9075 38.0926 55.3955 36.9134 54.8318C36.6372 54.7052 36.3554 54.6016 36.085 54.4636C35.5903 54.2105 35.0668 53.9516 34.6699 53.6007C34.2442 53.1923 33.876 52.9449 33.3122 52.8241C32.9959 52.7551 32.6047 52.479 32.3171 52.2201C31.9374 51.898 31.598 51.5298 31.2816 51.1502C30.8904 50.7072 30.5568 50.27 29.9758 49.9939C29.6536 49.8501 29.3602 49.4819 29.1244 49.1827C28.0947 47.8366 26.9326 46.6401 25.7879 45.3976C24.2404 43.7121 22.7908 41.9115 21.5655 39.9326C21.3239 39.5472 21.0938 39.1502 20.8867 38.7418C20.6681 38.3391 20.461 37.9307 20.2769 37.5107C19.6556 36.2164 19.1897 34.8818 18.787 33.5242C18.3958 32.1666 18.0852 30.7802 17.8896 29.3536C17.8148 28.7956 17.7688 28.2203 17.671 27.6565C17.4639 26.3622 17.4926 24.9586 18.0621 23.5434C18.4073 22.7093 18.9653 21.812 19.8339 21.2367C20.6853 20.6384 21.6863 20.4141 22.5722 20.3623C22.9979 20.3278 23.4063 20.3335 23.7975 20.3968C25.1263 20.6902 26.3229 21.0986 27.4791 21.5646C28.6296 22.0305 29.7341 22.5655 30.7639 23.1983C32.4321 24.228 33.9565 25.4245 35.4407 26.6498C36.5855 27.5933 37.6727 28.5942 38.7484 29.6124C38.8175 29.6815 38.9095 29.7275 38.9785 29.7965C39.5768 30.3948 39.5538 30.8262 38.921 30.9643C38.3573 31.0908 37.7763 30.947 37.201 30.4753L35.3084 28.8991L35.2681 28.9451Z" fill="#EBC464"/>
<path d="M51.9748 9.92676L30.8225 31.6945C29.8733 32.6725 29.557 34.0876 29.9769 35.3819C30.2243 36.1413 30.5694 36.9639 31.0584 37.8095C32.1571 39.7021 33.578 41.0252 34.8493 41.9226C36.276 42.9236 38.2031 42.7912 39.4629 41.5889C46.6364 34.7664 53.8041 27.9496 60.9776 21.127L51.9748 9.92676Z" fill="#F5E3B4"/>
<path d="M41.6312 38.3908C42.471 37.7523 43.2937 37.0793 44.1566 36.481C44.9274 35.946 45.6925 35.4282 46.262 34.6574C46.4116 34.4561 46.6302 34.3007 46.8142 34.1281C47.1479 33.806 47.4873 33.4896 47.8152 33.156C47.9648 33.0064 48.0568 32.782 48.2236 32.6727C49.0347 32.1262 49.7596 31.4935 50.3406 30.6996C51.0366 30.3372 51.4681 29.7102 51.9686 29.1407C52.469 28.5712 53.0616 28.0707 53.4873 27.4321C53.6023 27.2653 53.7519 27.0928 53.9187 26.9777C54.9312 26.2701 55.771 25.3785 56.6282 24.4983C57.5486 23.5549 58.5438 22.6863 59.631 21.9327C59.8554 21.7716 59.9877 21.6795 60.166 21.5357C60.3328 21.3977 60.4939 21.2538 60.655 21.1043L60.3443 20.7131L60.0049 20.3047L59.5965 19.833L58.7566 18.8665C57.9628 17.9173 57.1459 17.0027 56.2542 16.1455C55.0635 14.995 53.9014 13.8158 52.7739 12.5962C52.6301 12.4409 52.4921 12.2798 52.3597 12.1187L52.1642 11.8714L52.1181 11.8024L51.9225 11.4687L51.9168 11.4629L51.6292 11.6758L51.5429 11.7391L51.3243 11.9404L50.8583 12.3719C50.2428 12.9471 49.6273 13.5281 49.0175 14.1206C48.1028 15.0123 47.2284 15.9442 46.3598 16.8877C45.5487 17.762 44.7893 18.6825 43.984 19.5626L36.8105 27.3861L35.1192 29.2959C34.8374 29.6123 34.5382 29.9173 34.2391 30.2164L32.5593 31.8789L31.7482 32.6842C31.5756 32.8626 31.4318 33.0697 31.3283 33.294C31.1787 33.6162 31.1097 33.9786 31.1212 34.341C31.1327 34.5193 31.1615 34.6977 31.2075 34.876C31.2247 34.9508 31.2708 35.0831 31.311 35.1981L31.4433 35.5548C31.8058 36.4982 32.2947 37.3899 32.8872 38.2068C33.5545 39.1329 34.3714 39.99 35.3781 40.548C35.66 40.7034 35.6715 40.8644 35.4126 41.0197C34.9639 41.2843 34.521 41.5893 33.8537 41.4167C33.405 41.2959 33.0023 41.1348 32.6744 40.7034C32.2084 40.0878 31.5066 39.5873 31.3168 38.7935C31.288 38.6842 31.196 38.5634 31.1097 38.4656C30.3619 37.6027 29.8269 36.5673 29.4817 35.4685C29.1135 34.2662 29.3667 32.9201 30.0915 31.9249C30.2065 31.7581 30.3331 31.6027 30.4712 31.4532L30.8393 31.0448L31.5699 30.2394C31.892 29.8942 32.2142 29.5606 32.5478 29.2269C33.0311 28.7437 33.5373 28.2892 33.9975 27.783C34.3426 27.4033 34.6245 26.9835 35.148 26.8454C35.2573 26.8166 35.4356 26.6153 35.4529 26.5002C35.5162 26.0573 35.8326 25.7754 36.1375 25.4763C36.9486 24.6709 37.7827 23.877 38.5765 23.0544C39.1633 22.4446 39.7271 21.8061 40.2678 21.1561C41.1134 20.1494 41.913 19.1081 42.7644 18.1014C43.472 17.2616 44.2313 16.4619 44.9619 15.6393C45.1287 15.4495 45.2668 15.2309 45.4394 15.0411C45.7558 14.6959 46.0549 14.299 46.4231 14.0516C46.8373 13.7755 47.1134 13.5167 47.2629 13.0334C47.3435 12.7631 47.6369 12.4811 47.8785 12.2626C48.1891 11.9807 48.5458 11.7449 48.8967 11.5148C49.3166 11.2329 49.7136 10.9797 49.9609 10.4793C49.9782 10.4447 49.9954 10.4102 50.0184 10.3814C50.0357 10.3527 50.0587 10.3182 50.1162 10.2549C50.214 10.1456 50.3176 10.0363 50.4269 9.9328C50.6455 9.71995 50.8813 9.52437 51.0827 9.3633C51.4163 9.09293 51.727 8.83406 52.0261 8.5752C52.3195 8.99513 52.6014 9.38627 52.8832 9.76019L53.3032 10.3124L53.6771 10.7899C54.0395 11.2501 54.4249 11.6873 54.8161 12.1245L58.7739 16.4562C59.2859 17.0257 59.7748 17.6183 60.2695 18.205L61.1324 19.2462L62.7259 21.2366L61.1785 22.6862L60.2235 23.5606L58.5668 25.0448C58.2159 25.3555 57.8535 25.6661 57.5543 26.0228C56.864 26.8454 56.0759 27.5529 55.2475 28.226C54.2523 29.0371 53.3952 29.9863 52.5438 30.9412C52.3482 31.1656 52.1642 31.4129 51.9398 31.597C50.3636 32.9086 49.0463 34.4906 47.5333 35.8597C46.308 36.9699 45.0194 38.0054 43.7424 39.0581C42.7587 39.8693 41.752 40.6573 40.7568 41.4569C40.6935 41.5087 40.6417 41.5835 40.5784 41.6353C40.0032 42.0782 39.6005 41.9919 39.4912 41.3821C39.3934 40.8414 39.5602 40.3179 40.0377 39.8692C40.5669 39.3802 41.1192 38.9085 41.6599 38.4311L41.6312 38.3908Z" fill="#EBC464"/>
<path d="M51.5771 30.0723L50.5244 11.4167L51.9741 9.92676L60.9826 21.127L51.5771 30.0723Z" fill="#EBC464"/>
<path d="M70.25 25.4183C70.3478 25.2227 70.4341 25.0157 70.5031 24.8086L72.0505 21.0521L67.2126 12.1471L54.3959 1.37256L51.7267 3.98418C50.6797 4.59396 50.0872 6.04367 49.9434 7.49908C49.0632 16.5191 63.1513 29.9054 68.8348 26.891C69.4849 26.5459 69.9278 26.0281 70.227 25.4471H70.2327L70.25 25.4183Z" fill="#F5E3B4"/>
<path d="M70.6759 22.2321L71.0786 21.5245C71.1592 21.3807 71.1822 21.3634 71.2282 21.2887L71.3663 21.0873C71.3202 20.9033 71.303 20.7824 71.1764 20.4143C70.9406 19.6722 70.7105 18.9416 70.1985 18.3376C70.0662 18.1823 69.9971 17.9694 69.8936 17.7854C69.7095 17.4517 69.5312 17.1122 69.3298 16.7843C69.2378 16.6348 69.0652 16.5197 69.0192 16.3644C68.7776 15.5878 68.4439 14.8745 67.909 14.2533C67.8054 13.6032 67.374 13.143 67.0173 12.6252L66.8792 12.4239L66.3212 12.004C66.1084 11.8544 65.8898 11.7106 65.6482 11.6013C65.4929 11.5323 65.3375 11.423 65.234 11.2907C64.5782 10.5026 63.7671 9.9043 62.9617 9.28878C62.0988 8.62723 61.305 7.88512 60.6089 7.03374C60.2408 6.57928 59.7748 6.19962 59.3203 5.81995C58.7796 5.37125 58.2043 4.96857 57.6521 4.52562C56.8525 3.88708 56.0414 3.28309 55.167 2.75385L55.0117 2.65603L54.9139 2.61003L54.7355 2.52949C54.6262 2.48347 54.5284 2.44316 54.4421 2.41439C54.3041 2.62724 54.2063 2.79984 54.1258 2.9379L53.2801 3.93884C53.1651 4.07115 53.0443 4.19773 52.9235 4.31853L52.515 4.70391C52.4575 4.75569 52.4057 4.81321 52.3367 4.84773C52.2734 4.88224 52.1929 4.93979 52.1814 4.93979C52.1354 4.9628 52.0951 4.99732 52.0491 5.02033C51.9628 5.08361 51.8765 5.1584 51.7902 5.24469C51.4566 5.60135 51.1747 6.13061 50.9906 6.70587C50.795 7.28113 50.726 7.90814 50.7145 8.55243C50.703 9.51886 50.9101 10.5026 51.2437 11.4402C51.5486 12.3204 51.98 13.1545 52.4402 13.9714C53.7864 16.4105 55.5869 18.6194 57.6118 20.535C58.1008 20.9952 58.6243 21.4152 59.1478 21.8294L59.9129 22.4679C60.8505 23.2675 61.8285 24.0153 62.8697 24.6194C64.3366 25.4822 66.0164 26.0863 67.3452 25.9598C68.0988 25.908 68.6683 25.5743 68.8811 24.9358C68.9099 24.8495 68.9502 24.8035 69.0192 24.8035L70.5206 24.0959V24.1017L68.9732 24.9185C69.0422 24.8955 69.1343 24.93 69.232 25.0221L70.4631 24.372L70.4573 24.3836L69.2838 24.9358L69.2896 24.9415C69.6405 25.2867 70.0317 25.6664 69.9108 26.2647C69.8246 26.6616 69.6232 27.047 69.1573 27.2311C68.9904 27.3001 68.8236 27.3461 68.6625 27.4266L68.4209 27.536L68.1678 27.605C67.8284 27.7143 67.4718 27.72 67.1439 27.5992C67.0518 27.5705 66.9253 27.5762 66.816 27.5877C65.8495 27.7258 64.8716 27.5129 63.9914 27.1735C63.1113 26.8226 62.3002 26.3394 61.5121 25.8504C61.259 25.6836 60.9943 25.5283 60.7355 25.3787L59.9646 24.8898C59.6425 24.6654 59.3318 24.4238 59.0212 24.1822L57.7384 23.0489C57.4047 22.7843 57.0423 22.5485 56.9618 22.0825C56.9445 21.9847 56.7719 21.8409 56.6684 21.8294C56.2715 21.7949 56.0414 21.5187 55.7998 21.2599C55.167 20.535 54.563 19.793 53.9819 19.0336L52.6473 17.3711C51.9513 16.514 51.261 15.6281 50.6857 14.6502C50.1967 13.839 49.8286 12.9531 49.4892 12.0442C49.4144 11.8314 49.2993 11.6358 49.2303 11.4172C49.1153 11.0203 48.9599 10.5946 48.9829 10.1919C49.029 9.73745 48.9772 9.41535 48.7356 9.01266C48.6033 8.78831 48.5688 8.40859 48.6205 8.09795C48.6666 7.70102 48.7643 7.31559 48.9197 6.94168C49.098 6.49298 49.2993 6.1133 49.2993 5.57256C49.3051 5.27918 49.5122 4.92831 49.7308 4.67519C49.9666 4.39332 50.2198 4.11717 50.5016 3.86406C50.6454 3.7375 50.795 3.6167 50.9561 3.5074C51.0251 3.45563 51.1459 3.38084 51.1804 3.36359C51.2092 3.35208 51.238 3.33484 51.261 3.31183C51.6867 2.92066 52.1008 2.48341 52.4978 2.04046L52.8027 1.69532L53.2801 1.18333L54.3501 0.0385742L56.2485 1.48248L57.468 2.35688C57.98 2.7308 58.469 3.1335 58.9637 3.52467C60.5054 4.74998 61.9665 6.0673 63.4219 7.3904C63.7096 7.64926 63.9914 7.91965 64.3136 8.12674C65.0614 8.60421 65.7115 9.18518 66.3327 9.81221C66.5859 10.0711 66.8562 10.3127 67.1381 10.537L67.5638 10.8707L67.7824 11.0318L68.1793 11.3367L68.4152 11.7336L68.5647 11.958L68.8466 12.3722C68.9847 12.5735 69.1515 12.7691 69.2493 12.9876C69.9396 14.5351 70.9463 15.9042 71.7057 17.4057C71.9588 17.9061 72.1946 18.4124 72.4247 18.9186L72.7641 19.6837L72.8044 19.7815L72.8677 19.9195L73.0345 20.2704L73.3624 20.955L72.8044 22.1343C72.3212 23.0719 71.8092 23.9923 71.3087 24.9243C71.28 24.976 71.2742 25.0393 71.2512 25.0911L71.2742 25.0336L71.257 25.0681C70.9118 25.7181 70.5379 25.7124 70.1812 25.2234C70.0086 24.9991 69.8878 24.7805 69.8476 24.5676L69.8648 24.5216C69.8361 24.3088 69.8706 24.0902 69.9684 23.8601C70.2042 23.3136 70.4689 22.7786 70.722 22.2379L70.6759 22.2321Z" fill="#EBC464"/>
<path d="M55.6962 0.671432C54.2581 0.89003 53.4642 2.50644 53.2974 4.12867C52.469 12.3491 65.7575 24.5504 71.1189 21.8007C73.2301 20.7192 73.0748 17.8256 72.8217 16.8879C70.5379 8.30508 59.677 0.0674104 55.6962 0.671432Z" fill="#F5E3B4"/>
<path d="M54.4933 2.7305C54.1367 3.25973 53.9123 3.92706 53.7397 4.62312C53.5614 5.23865 53.4866 5.91743 53.7627 6.53871C53.8433 6.69978 53.8433 6.88388 53.8835 7.06221C53.9526 7.3786 54.0619 7.68924 54.1654 7.99988C54.2114 8.1437 54.3668 8.25296 54.384 8.39102C54.4243 8.73618 54.4991 9.07557 54.6371 9.38621C54.7579 9.70835 54.9478 9.99599 55.1779 10.2606C55.2239 10.8416 55.6323 11.2271 55.9717 11.647C56.3054 12.0669 56.5815 12.5444 57.0187 12.8838C57.1395 12.9701 57.2488 13.0909 57.3063 13.2174C57.6687 14.0228 58.29 14.6499 58.8998 15.2654C59.5728 15.9154 60.1769 16.6172 60.7349 17.3938C61.034 17.8023 61.4309 18.1532 61.8336 18.4638C62.3053 18.8492 62.8346 19.1599 63.3466 19.4878C64.0829 19.971 64.871 20.3564 65.7051 20.598C66.8154 20.9086 67.9371 21.133 68.9381 21.11C69.4385 21.0927 69.9045 21.1158 70.3359 21.018C70.7674 20.9144 71.1298 20.713 71.4289 20.3851C71.7281 20.063 71.9582 19.6086 72.0732 19.1023C72.1653 18.7227 72.194 18.3085 72.171 17.9058C72.1595 17.7045 72.1365 17.5031 72.0962 17.319C72.079 17.2155 72.056 17.1522 72.0272 17.0544L71.9236 16.7438C71.6705 15.9672 71.2851 15.2424 70.8997 14.5233C69.7607 12.3776 68.2247 10.4332 66.4932 8.70168C66.0733 8.2875 65.6246 7.9078 65.1816 7.52238C64.9573 7.33254 64.7444 7.13125 64.5316 6.92415C63.7492 6.17057 62.9381 5.43993 62.0695 4.78414C60.8269 3.86372 59.4923 3.04116 58.1462 2.4659C57.7665 2.30483 57.3869 2.16099 57.0187 2.08045C56.6505 1.98841 56.2939 1.9884 56.0408 2.06894C55.92 2.12071 55.8509 1.99416 55.8682 1.71804C55.9085 1.24057 55.989 0.705609 56.478 0.452495C56.8059 0.291423 57.1453 0.199367 57.5134 0.366192C58.0312 0.613554 58.6754 0.60206 59.0609 1.09678C59.1126 1.16581 59.2219 1.19455 59.314 1.21756C60.9362 1.61449 62.2421 2.67298 63.4961 3.67393C63.9103 4.00183 64.3533 4.29522 64.7674 4.62312C65.0378 4.83597 65.2967 5.06027 65.5498 5.29613C65.918 5.63553 66.2458 6.01524 66.614 6.34314C66.8901 6.59625 67.218 6.7918 67.241 7.23475C67.2468 7.32679 67.3906 7.45911 67.4884 7.46486C67.8681 7.47637 68.0464 7.73524 68.2477 7.97109C68.7885 8.61538 69.2832 9.29417 69.7837 9.96722C70.1576 10.4619 70.5488 10.951 70.9342 11.4457C71.5382 12.2108 72.148 12.9873 72.6427 13.8502C73.0569 14.575 73.3848 15.3516 73.6724 16.1513C73.7415 16.3526 73.845 16.4792 73.914 16.7265C74.0233 17.1637 74.1211 17.5664 74.0406 17.9461C73.9486 18.3602 73.9025 18.6594 74.0924 19.0794C74.1902 19.3152 74.1096 19.6776 74.0118 19.9595C73.8738 20.3276 73.6552 20.6613 73.3963 20.9604C73.0914 21.3286 72.7463 21.5817 72.5047 22.0649C72.3609 22.318 72.0042 22.5194 71.7051 22.6114C70.3762 23.0198 69.1797 23.0026 68.0234 22.8818C66.4702 22.6747 65.009 22.1685 63.6629 21.5012C63.1337 21.2423 62.639 20.9201 62.1443 20.6037C60.6313 19.5855 59.3082 18.343 58.129 16.9912C57.9046 16.7208 57.6687 16.4504 57.4041 16.2203C56.7828 15.6968 56.2881 15.0583 55.8739 14.3622C55.3677 13.5338 54.7579 12.786 54.1769 11.9979C54.0446 11.8138 53.8778 11.6355 53.7857 11.4342C53.1587 9.99026 52.3303 8.58659 52.037 6.92984C51.8126 5.59524 51.8874 4.16865 52.3764 2.81104C52.5662 2.29331 52.8251 1.78703 53.1817 1.32107C53.5441 0.866617 54.0044 0.435179 54.5911 0.176312C54.6659 0.141797 54.7349 0.0842933 54.8155 0.0555304C55.1664 -0.0537687 55.4252 0.00952935 55.546 0.147591C55.6668 0.285653 55.6553 0.504243 55.5921 0.78612C55.4713 1.28084 55.4022 1.5857 55.1664 1.76403C54.8902 1.96537 54.6256 2.29331 54.4185 2.67299L54.4933 2.7305Z" fill="#EBC464"/>
</svg>
