<svg width="92" height="85" viewBox="0 0 92 85" fill="none" xmlns="http://www.w3.org/2000/svg">
<path d="M4.49552 43.4832L0.512449 28.4704C0.458624 28.2641 0.584216 28.0488 0.795032 27.9995L13.8297 24.9C16.1576 24.9 11.9862 32.5791 14.3814 34.6872C16.8439 36.8582 20.3874 35.9387 20.5399 35.8983C20.8674 35.8086 23.9803 34.9025 24.9401 32.2696C25.8417 29.7981 24.5948 26.4744 21.6075 24.3573C21.0602 23.9715 21.2038 23.1238 21.8407 22.9219C25.6847 21.7154 29.5287 20.5043 33.3727 19.2977C33.5746 19.2349 33.7899 19.347 33.8527 19.5489L37.9524 32.5881C38.0017 32.745 38.1453 32.8617 38.3112 32.8572C39.2307 32.8482 40.0919 31.5699 41.0294 30.2332C42.7653 27.7662 43.5592 27.4836 44.6222 27.21C46.3985 26.757 48.5515 27.9008 49.6773 29.4572C51.31 31.7268 51.0185 35.2479 49.2961 36.8627C46.7528 39.2489 41.6125 36.9883 40.6257 39.0919C40.4283 39.5091 40.4373 39.9262 40.5494 40.294C41.7605 44.2098 42.9716 48.1256 44.1782 52.0369C44.241 52.2343 44.1333 52.4406 43.9404 52.5124L31.9374 56.7242C31.8208 56.7646 31.7221 56.8588 31.6952 56.9843C30.991 59.9627 38.1094 61.6447 36.8086 66.0315C35.8397 69.3058 32.4398 70.6649 32.1886 70.7591C32.0585 70.8085 29.0443 71.9612 26.2499 70.5393C21.4684 68.1037 26.3127 57.6616 21.5222 59.2136C17.6962 60.5234 13.8701 61.8331 10.044 63.1473C9.8287 63.2191 9.59994 63.0935 9.54612 62.8737L6.80103 51.3596C6.79206 51.3192 6.78757 51.2744 6.79206 51.2295C6.83243 50.7316 6.97596 50.328 7.20472 50.005C9.20074 47.1882 16.0141 50.4894 18.5529 47.556C19.7191 46.2103 19.4814 44.0932 19.0508 42.8956C18.1133 40.2985 15.3144 39.4553 14.6819 39.2893C11.5466 38.464 7.81922 40.1729 5.15936 43.6222C4.97097 43.8644 4.57625 43.7882 4.49552 43.4832Z" fill="#CFE2F4"/>
<path d="M1.10426 33.225C0.745423 31.6865 0.382103 30.1435 0.0187832 28.605C-0.0126149 28.3493 -0.0215858 28.1206 0.130919 27.8963C0.278938 27.672 0.498724 27.5958 0.745423 27.5151C0.871015 27.4792 1.00558 27.4523 1.13566 27.4253L1.49449 27.3491L2.0462 27.237C2.78181 27.0934 3.51294 26.9454 4.23958 26.8019C6.84562 26.2995 9.40232 25.8106 12.0084 25.0615C12.3448 24.9628 12.6991 24.8821 13.0579 24.7969C13.2508 24.7565 13.502 24.6892 13.7128 24.6578C13.9236 24.613 14.1479 24.6668 14.3408 24.7655C14.6772 24.9942 14.8028 25.4069 14.8207 25.8106C14.8431 26.2502 14.7938 26.5552 14.7534 26.9005C14.6592 27.5734 14.5157 28.2238 14.3901 28.8741C14.2735 29.4662 14.2197 30.0987 14.1075 30.6369C13.9685 31.3008 13.8698 31.9691 13.8698 32.6329C13.8788 33.2833 13.9999 33.9606 14.4215 34.4047C14.8745 34.8443 15.4666 35.2076 16.0811 35.4318C16.7001 35.6651 17.364 35.7727 18.0278 35.7862C18.5391 35.8669 19.0684 35.8759 19.5887 35.8266C19.8489 35.8041 20.1091 35.7593 20.3558 35.7055C20.598 35.6516 20.8491 35.5619 21.0869 35.4632C22.0512 35.0685 22.9438 34.4854 23.6346 33.7319C24.3164 32.9738 24.7784 32.0274 24.8322 31.0092C24.913 30 24.6483 28.9638 24.1684 28.0802C23.9172 27.6092 23.5942 27.0889 23.2803 26.6494C23.1681 26.4789 23.0425 26.3174 22.9124 26.1604C22.7869 25.999 22.6478 25.8465 22.5043 25.6984C22.3697 25.5459 22.2127 25.4069 22.0602 25.2678C21.9795 25.1961 21.9212 25.1333 21.818 25.0525L21.504 24.8058C21.3425 24.6578 21.1631 24.5277 21.051 24.3528C20.9344 24.1824 20.8671 23.976 20.8536 23.7652C20.8312 23.3481 21.042 22.922 21.3919 22.6977C21.5623 22.59 21.7731 22.5183 21.984 22.451L22.5267 22.2805L23.4686 21.98C24.7246 21.5718 25.9805 21.1637 27.2409 20.7555L30.0533 19.8584C31.0401 19.5579 32.0224 19.2574 33.0047 18.9568C33.3052 18.8851 33.5698 18.8088 33.839 18.9568C34.1036 19.1093 34.1843 19.374 34.2875 19.6655L34.6957 21.0784C34.9334 21.9441 35.1711 22.8053 35.4089 23.6665C35.9247 25.5953 36.5571 27.5868 37.1716 29.538L37.9656 32.0095C38.0194 32.153 38.0463 32.31 38.127 32.4445C38.1719 32.5073 38.2437 32.5522 38.3199 32.5656C38.3962 32.5701 38.4769 32.5612 38.5532 32.5432C38.8582 32.467 39.1049 32.2562 39.3157 32.0409C39.8091 31.525 40.2487 30.8702 40.6837 30.2422C41.1906 29.5111 41.7109 28.7844 42.3613 28.134C42.6842 27.8111 43.0521 27.5061 43.4827 27.2908C43.698 27.1831 43.9177 27.0934 44.142 27.0261C44.3618 26.9544 44.5726 26.9005 44.8193 26.8512C45.7747 26.6852 46.7391 26.9005 47.5868 27.2773C48.4391 27.6631 49.1971 28.2327 49.8251 28.9459C50.6683 29.9148 51.1348 31.1617 51.2783 32.4266C51.4129 33.6915 51.229 35.0147 50.61 36.2123C50.296 36.8044 49.8475 37.3696 49.2689 37.7822C48.6992 38.1994 48.0443 38.4505 47.4029 38.612C46.1156 38.9215 44.8687 38.8856 43.7114 38.917C43.1283 38.9305 42.5452 38.9484 42.0832 39.0516C41.8544 39.1009 41.6661 39.1727 41.5539 39.2534C41.4418 39.3387 41.3924 39.3925 41.3341 39.5495C41.2848 39.6885 41.2758 39.8276 41.3117 39.9935L41.5539 40.8189C41.7244 41.402 41.8993 41.9851 42.0697 42.5682L44.77 51.714C44.8552 52.0594 44.8866 52.3419 44.7296 52.6469C44.5681 52.9385 44.3125 53.0776 43.9761 53.2031L42.5452 53.6876L40.0558 54.5353C38.7774 54.9794 37.4946 55.4234 36.2118 55.872L32.5068 57.1817C32.4575 57.1997 32.4081 57.2131 32.3633 57.24C32.3184 57.267 32.2915 57.3208 32.2915 57.3701C32.2691 57.4733 32.278 57.5764 32.296 57.6796C32.3005 57.7065 32.3094 57.7245 32.3184 57.7559C32.3319 57.7962 32.3363 57.8321 32.3588 57.8725C32.3947 57.9532 32.4261 58.0295 32.4799 58.1102C32.5651 58.2717 32.6907 58.4332 32.8253 58.5902C33.839 59.7564 35.373 60.6669 36.5571 62.1157C37.1447 62.8379 37.6426 63.7888 37.6875 64.8473C37.7099 65.3676 37.6202 65.888 37.4767 66.3544C37.3331 66.812 37.1492 67.256 36.916 67.6732C36.2342 68.9201 35.2025 69.9069 34.0677 70.6605C33.4846 71.0328 32.9195 71.3647 32.1973 71.6114C31.529 71.8267 30.8562 71.9657 30.1654 72.033C28.7973 72.1631 27.3351 72.0061 26.0253 71.3826C25.348 71.0776 24.6797 70.5483 24.2401 69.9204C23.7871 69.2879 23.518 68.5882 23.3386 67.9064C22.9932 66.5339 22.9708 65.2017 22.9573 63.9233C22.9528 63.2864 22.9573 62.654 22.9394 62.0529C22.9214 61.4563 22.8766 60.8508 22.7375 60.4292C22.7106 60.3126 22.6658 60.2498 22.6344 60.169C22.6119 60.1466 22.5985 60.1242 22.585 60.1017C22.5716 60.0748 22.5581 60.0883 22.5491 60.0703C22.5088 60.0434 22.4818 60.0345 22.3249 60.0255C22.1365 60.0524 21.966 60.0838 21.6745 60.187L20.7819 60.5009L17.207 61.7569C14.9329 62.5687 12.6632 63.3761 10.3891 64.1835C10.111 64.2777 9.85086 64.2822 9.63556 64.2463C9.40232 64.2059 9.13767 64.0893 8.94032 63.9189C8.75193 63.7574 8.61736 63.5735 8.50523 63.3043C8.41552 63.0262 8.35721 62.7212 8.28096 62.4297L8.16434 61.9453L7.7427 60.169L6.20868 53.5844L5.82742 51.9383L5.77808 51.7319C5.76911 51.6871 5.74669 51.6063 5.73771 51.5435C5.7422 51.4718 5.72874 51.409 5.72874 51.3372C5.71529 51.2026 5.71529 51.0636 5.73771 50.929C5.75117 50.8348 5.76463 50.7406 5.78705 50.6464C5.86779 50.2652 6.01581 49.866 6.24905 49.5071C6.6976 48.8029 7.42424 48.3364 8.10602 48.0942C8.7923 47.8565 9.44268 47.7802 10.0617 47.7444C11.8244 47.6681 13.4213 47.8924 14.9194 47.8296C15.6595 47.8027 16.3637 47.704 16.9154 47.4663C17.4626 47.2285 17.8529 46.8742 18.0816 46.3539C18.5436 45.3312 18.3866 43.685 17.7677 42.631C17.1397 41.532 15.8883 40.7247 14.5471 40.321C13.0849 39.8769 11.4208 40.1505 9.95402 40.8772C8.4828 41.6038 7.17754 42.7431 6.18177 44.1022C6.14589 44.147 6.11 44.1919 6.07861 44.2368L6.02927 44.2996C5.9889 44.3534 5.90368 44.4521 5.83191 44.5149C5.51793 44.7974 5.11424 44.9006 4.79129 44.8827C4.13193 44.8468 3.74618 44.4207 3.61162 44.147C3.47705 43.8645 3.50397 43.7254 3.53985 43.7389C3.58919 43.7478 3.65647 43.9138 3.88971 44.1336C4.30237 44.5014 4.83166 44.4924 5.18601 44.2547C5.27571 44.1964 5.35197 44.1201 5.41028 44.0349C5.44168 43.9945 5.4641 43.9497 5.48653 43.9048C5.49999 43.8689 5.49999 43.8555 5.50896 43.8241C5.53138 43.7254 5.5583 43.6223 5.59418 43.5146C5.66146 43.2948 5.75117 43.0481 5.90816 42.779C6.05618 42.5009 6.26251 42.1959 6.54509 41.846C7.3121 40.9175 8.19125 40.1191 9.59968 39.5091C10.6268 39.0964 11.7392 38.769 12.8965 38.7331C14.0492 38.7017 15.2154 39.0067 16.135 39.5854C16.3951 39.7513 16.7943 39.9487 17.0948 40.146C17.7901 40.5722 18.4046 41.1508 18.8711 41.8505C19.3241 42.5592 19.5977 43.3756 19.7009 44.1964C19.8085 45.0172 19.7726 45.8874 19.4676 46.7082C19.3151 47.1164 19.0909 47.5066 18.7993 47.8386C18.5078 48.175 18.1399 48.4396 17.7542 48.6415C16.9737 49.0451 16.126 49.1707 15.3141 49.2246C14.4978 49.2739 13.6949 49.238 12.901 49.1932C12.107 49.1528 11.3266 49.099 10.5506 49.1079C9.78358 49.1214 9.0076 49.1842 8.35272 49.4713C7.92212 49.6507 7.57674 49.9647 7.35247 50.3414C7.24482 50.5343 7.17305 50.7451 7.13269 50.9694C7.11474 51.0905 7.0968 51.1847 7.10577 51.2699C7.10577 51.3193 7.11923 51.3551 7.13269 51.4045L7.17754 51.5929L7.92661 54.6071L8.86406 58.5229L9.47408 61.1693L9.74769 62.3489C9.78806 62.4925 9.78806 62.6898 9.95851 62.7482C10.0348 62.7796 10.1155 62.7706 10.1873 62.7392L10.4115 62.6629L10.6896 62.5643C12.0756 62.0753 13.3988 61.5461 14.722 61.3263C15.0001 61.2814 15.7268 61.0213 15.9645 60.8822C16.884 60.3529 18.0368 59.9806 19.1895 59.5904C19.9745 59.3302 20.7236 59.0611 21.5399 58.8144C21.966 58.6888 22.4639 58.6126 22.9887 58.801C23.1143 58.8503 23.2309 58.9266 23.3431 58.9983C23.4372 59.0925 23.5494 59.1822 23.6256 59.2854C23.7826 59.4962 23.8858 59.716 23.9576 59.9358C24.1056 60.3798 24.1504 60.8104 24.1863 61.2321C24.2177 61.6582 24.2222 62.0708 24.2267 62.4835C24.2267 63.3088 24.2087 64.1252 24.2312 64.9326C24.2671 66.1212 24.3747 67.3233 24.8053 68.3729C25.0206 68.8932 25.3301 69.3597 25.7338 69.714L26.0523 69.9562L26.4021 70.1536C26.6578 70.2657 26.9135 70.3869 27.1871 70.4631C28.0169 70.7367 28.9095 70.804 29.7886 70.7322C30.6543 70.6515 31.5649 70.4541 32.3005 70.0863C33.8569 69.2924 35.2295 68.041 35.8754 66.5025C36.0099 66.1885 36.1221 65.8386 36.1849 65.5336C36.2387 65.2196 36.2477 64.9101 36.2028 64.6096C36.0951 64.0086 35.7856 63.4299 35.3236 62.8917C34.8706 62.3534 34.3055 61.8556 33.7134 61.3532C33.1213 60.8463 32.4889 60.3484 31.8923 59.7025C31.6187 59.402 31.3406 59.0701 31.1163 58.653C31.0042 58.4242 30.9145 58.2403 30.8427 57.8994C30.8248 57.7424 30.7978 57.5854 30.7934 57.4284C30.8068 57.2759 30.8023 57.1144 30.8292 56.9619C30.8876 56.7242 30.9324 56.4775 31.0984 56.2936C31.2554 56.1052 31.4527 55.9841 31.6994 55.8854C32.2601 55.6836 32.8253 55.4773 33.3815 55.2799C33.8749 55.105 34.3638 54.948 34.8347 54.8089C36.1759 54.4232 37.2075 54.0778 38.3603 53.4812C39.0062 53.1448 40.0962 52.777 40.9798 52.4855C41.5494 52.2971 42.1191 52.1222 42.6932 51.9517L42.9085 51.8889L42.9623 51.8755H42.9713H42.9893L43.0835 51.8665C43.1642 51.871 43.209 51.7992 43.1911 51.7364V51.7005L43.1866 51.6377C43.1821 51.6198 43.1911 51.6332 43.1777 51.5839L43.1462 51.4628L43.0251 50.9784C42.9444 50.6554 42.8547 50.337 42.765 50.014C42.5766 49.3681 42.3613 48.7177 42.0832 48.0404C41.7737 47.2824 41.4822 46.1924 41.2579 45.2998C41.0112 44.313 40.7465 43.3262 40.4684 42.3394L40.0468 40.8637L39.9392 40.4959C39.8898 40.3344 39.8584 40.164 39.845 39.9846C39.8136 39.6347 39.8764 39.2624 40.0109 38.9395C40.15 38.612 40.3967 38.2891 40.6927 38.0783C40.9888 37.8674 41.3027 37.7418 41.5988 37.6656C42.1909 37.5131 42.7426 37.4907 43.2718 37.4727C44.3349 37.4458 45.3441 37.4817 46.2995 37.3651C46.9454 37.2843 47.5644 37.1408 48.0802 36.8672C48.6005 36.6025 49.0042 36.2168 49.3048 35.7099C49.9058 34.7007 50.0852 33.382 49.8923 32.1799C49.6905 30.9599 49.1164 29.8789 48.1744 29.1298C47.2594 28.3763 46.0259 27.9053 45.0436 28.0937C44.8821 28.1251 44.595 28.2013 44.4022 28.2731C44.2003 28.3449 44.0299 28.4256 43.8639 28.5332C43.532 28.7485 43.1911 29.0715 42.8682 29.4528C42.2088 30.2063 41.6571 31.1079 40.9529 32.0498C40.7735 32.2876 40.5806 32.5298 40.3563 32.772C40.2801 32.8662 40.0378 33.0904 39.8494 33.2519L39.5355 33.4807C39.4278 33.548 39.3157 33.6018 39.208 33.6601C38.764 33.8664 38.293 33.9337 37.8579 33.8081C37.6381 33.7364 37.4453 33.5973 37.3152 33.4583C37.1806 33.3147 37.0461 33.1174 36.9608 32.8617C36.2118 30.4754 35.4672 28.0847 34.7181 25.6984L33.673 22.3119L33.1527 20.6164L33.1034 20.437C33.0809 20.3922 33.0316 20.4101 32.9912 20.4191L30.4749 21.1816C29.1965 21.5718 27.8868 21.9621 26.6443 22.3972C25.5633 22.7739 24.4779 23.1328 23.3879 23.4826L22.6702 23.7114C22.6433 23.7204 22.6119 23.7249 22.585 23.7473C22.5312 23.7921 22.5491 23.8774 22.6074 23.9088C22.6657 23.9491 23.0829 24.3124 23.361 24.5816L23.7961 25.0346L24.1998 25.5145C24.8277 26.3085 25.3346 27.2056 25.6844 28.1789C26.0343 29.1477 26.2048 30.2063 26.0926 31.2828C25.9984 32.3548 25.5454 33.4358 24.8681 34.2746C24.1908 35.1224 23.3431 35.7593 22.446 36.2392C22.0243 36.4635 21.5937 36.6653 21.1362 36.8268C20.9209 36.9076 20.6159 36.9928 20.3916 37.0331C20.1539 37.0825 19.9207 37.1139 19.6874 37.1408C18.0727 37.2888 16.3413 37.1139 14.8028 36.2617L14.2466 35.9163L13.7308 35.5126C13.3091 35.1627 12.9862 34.6424 12.8247 34.1759C12.4928 33.216 12.5287 32.3638 12.578 31.5654C12.7081 29.9776 13.0849 28.5243 13.3181 27.1517C13.3764 26.8108 13.4213 26.4834 13.4347 26.1963C13.4392 26.1201 13.4347 26.1604 13.4392 26.147L12.587 26.3444C10.2815 26.8736 7.97595 27.3895 5.67043 27.8918L2.21216 28.6454L1.78156 28.7396C1.73222 28.7485 1.73671 28.7485 1.73222 28.7485H1.71428L1.67839 28.753C1.63354 28.7575 1.55729 28.762 1.5528 28.8248C1.5528 28.8517 1.55729 28.8741 1.56177 28.901L1.56626 28.9414L1.57074 28.9638V28.9728L1.5842 29.0266L1.79502 29.8878C2.65173 33.4313 3.50397 36.9659 4.3562 40.5049C4.41451 40.7381 4.49525 40.9758 4.54907 41.2046C5.02453 43.223 4.93482 43.9228 4.2934 43.0795C3.72375 42.3304 3.17204 41.0611 2.69659 39.2489L1.16705 33.243L1.10426 33.225Z" fill="black"/>
<path d="M46.2359 50.4043L51.0398 37.7553C51.1115 37.5625 51.2595 37.401 51.4479 37.3202C53.583 36.4232 55.3951 41.6218 59.8716 40.8368C60.6296 40.7023 64.0206 40.1057 65.1195 37.3068C66.0705 34.8802 65.1823 32.2831 63.8636 30.9419C61.7106 28.7486 56.1621 32.7316 53.9508 30.2243C53.7804 30.0269 53.7221 29.7533 53.7938 29.5021C54.8883 25.7119 55.9827 21.9173 57.0816 18.1271C57.2072 17.6965 57.6692 17.4632 58.0909 17.6157L70.2823 22.1191C70.6635 22.2581 71.0941 22.0877 71.2556 21.7154C71.9284 20.1455 70.6725 15.6152 72.3142 13.4263C72.5429 13.1213 75.149 10.5915 79.002 11.8474C81.913 12.7939 83.3663 14.588 83.2766 16.2611C83.0747 19.8629 79.2352 21.9172 78.5355 23.5634C78.365 23.9626 78.5848 24.4246 78.993 24.5726C82.6935 25.9227 86.3985 27.2729 90.1034 28.623C90.5116 28.771 90.7179 29.2285 90.5564 29.6322L86.0127 41.097C85.8602 41.4782 85.4341 41.6935 85.0483 41.5455C83.2407 40.8503 80.2758 35.4094 75.7052 35.4408C75.0817 35.4453 71.3633 36.1002 70.1298 39.0651C68.82 42.2139 71.2466 45.708 72.1258 46.3584C76.535 49.6103 80.9531 45.7304 83.6982 47.5201C83.9853 47.7085 84.0885 48.0808 83.9718 48.4082C82.4199 52.7726 80.8634 57.1369 79.3115 61.5012C79.1679 61.9094 78.7104 62.1202 78.3067 61.9632L69.4928 58.5812C69.125 58.4422 68.6989 58.5902 68.5285 58.9445C67.0259 62.0619 69.8293 64.9774 67.3398 67.7719C66.676 68.5209 64.1327 71.1225 60.652 70.5573C57.6289 70.0684 55.0094 67.8391 54.8928 65.4484C54.6685 60.8733 61.6747 58.8952 60.4053 55.5491C60.3201 55.3248 60.1228 55.1543 59.894 55.0871C55.5117 53.8625 51.1295 52.638 46.7472 51.418C46.3121 51.2969 46.0744 50.8259 46.2359 50.4043Z" fill="#3E649D"/>
<path d="M49.5241 39.9222C49.8425 39.1462 50.161 38.3703 50.4795 37.5943C50.7531 36.7465 51.843 36.5133 52.5472 36.7779C53.229 37.0246 53.6731 37.4373 54.1082 37.8141C54.9514 38.5811 55.705 39.3526 56.6021 39.8998C57.1448 40.2362 57.7324 40.4784 58.3559 40.5906C58.9838 40.6982 59.6163 40.6578 60.2712 40.5278C61.554 40.2811 62.8413 39.7652 63.7653 38.8233C64.2363 38.3434 64.6714 37.7513 64.9091 37.0874C65.3487 35.8764 65.3487 34.5128 64.927 33.2928C64.7387 32.7321 64.3933 32.2118 64.1062 31.7632C63.9313 31.4941 63.7205 31.2025 63.5007 31.0097C63.2764 30.8123 62.9938 30.6733 62.6843 30.5925C62.0609 30.431 61.3656 30.4849 60.6883 30.5836C59.3203 30.7854 57.9836 31.2339 56.5213 31.3864C55.9472 31.373 55.3596 31.3057 54.8079 31.0859C54.5343 30.9738 54.2741 30.8213 54.0409 30.6239C53.9243 30.5118 53.8032 30.3996 53.7045 30.2741C53.6103 30.1395 53.552 29.9825 53.534 29.821C53.5116 29.6596 53.543 29.4936 53.5879 29.3366L53.6955 28.9239L53.9018 28.13C54.0364 27.6007 54.1755 27.0715 54.3145 26.5377C54.8752 24.4071 55.5345 22.2631 56.01 20.1325C56.1356 19.5673 56.3105 18.9259 56.4944 18.3697C56.5841 18.0871 56.6694 17.7642 56.8712 17.5444C57.0686 17.3156 57.3556 17.1676 57.6562 17.1362C57.9612 17.0958 58.2482 17.2125 58.5353 17.3246L59.1677 17.5713L61.6661 18.5177C63.3392 19.1233 65.0212 19.7288 66.7033 20.3343L68.484 20.9757L70.184 21.6037C70.3544 21.6889 70.5742 21.7114 70.7357 21.5903C70.8164 21.5364 70.8747 21.4512 70.9016 21.357C70.9375 21.2673 70.9644 21.1686 70.9779 21.0789C71.0721 20.5362 71.0676 19.8768 71.0676 19.2489C71.0631 17.975 71.0317 16.6608 71.2874 15.36C71.4085 14.8486 71.5475 14.3283 71.8032 13.8394C71.857 13.7138 71.9468 13.6062 72.0185 13.4851L72.1307 13.3101C72.171 13.2518 72.2338 13.189 72.2787 13.1442C72.476 12.9513 72.6869 12.7809 72.9066 12.6239C73.7768 11.9959 74.795 11.5563 75.8581 11.3859C76.486 11.2737 77.1319 11.2872 77.7644 11.3545C78.0783 11.4038 78.3968 11.4487 78.7018 11.5384C79.0158 11.6102 79.3118 11.7178 79.6079 11.821C80.7831 12.2695 81.9403 12.9199 82.7522 13.9605C83.0437 14.3373 83.2814 14.7634 83.416 15.2344C83.5595 15.6964 83.573 16.2212 83.5012 16.6742C83.3936 17.6117 83.0258 18.5088 82.5369 19.2937C82.048 20.0876 81.4424 20.7784 80.8279 21.4377L79.9129 22.4156C79.7649 22.577 79.6213 22.7385 79.4868 22.9045L79.2939 23.1512C79.258 23.1916 79.2356 23.2364 79.2087 23.2723L79.1593 23.353C79.1279 23.3979 79.11 23.4427 79.0876 23.4921C79.0068 23.6266 78.9934 23.8016 79.0741 23.9361C79.1459 24.0797 79.3029 24.1514 79.4464 24.1828L80.8997 24.6583C81.9313 25.0037 82.9675 25.3446 83.9991 25.6899C86.1028 26.4031 88.2154 27.1163 90.3281 27.834C90.8887 28.0179 91.3238 28.5068 91.4135 29.0899C91.4584 29.3411 91.4315 29.5968 91.3552 29.8435C91.3149 29.969 91.2655 30.0946 91.2162 30.2202L91.1265 30.449L90.7901 31.3102C90.5613 31.8843 90.3281 32.4585 90.0993 33.0326C89.6283 34.1764 89.1574 35.3247 88.6909 36.4684L86.7128 41.2858C86.4841 41.9003 85.8875 42.3264 85.2506 42.2905C85.1743 42.2861 85.0936 42.2771 85.0173 42.2591C84.9411 42.2367 84.8693 42.1963 84.7975 42.1694C84.654 42.1022 84.5015 42.0528 84.3624 41.9721C84.2907 41.9317 84.2234 41.8824 84.1561 41.833L83.9812 41.7029C83.8825 41.6312 83.8018 41.5594 83.721 41.4832C83.0617 40.8911 82.5279 40.2856 81.9672 39.7024C80.8638 38.5452 79.7155 37.4418 78.3789 36.7421C77.6208 36.3339 76.8 36.0872 75.9702 36.0603C75.8715 36.0558 75.7504 36.0378 75.6742 36.0423C75.6069 36.0423 75.4902 36.0603 75.396 36.0737C75.1897 36.1051 74.9789 36.15 74.7726 36.2038C74.3554 36.3115 73.9428 36.4505 73.5481 36.6254C72.7586 36.9663 72.0409 37.4552 71.4892 38.0608C70.9465 38.6753 70.5921 39.4288 70.4576 40.2272C70.2019 41.7343 70.7761 43.3536 71.6373 44.6858C71.857 45.0177 72.1037 45.3362 72.3549 45.5873C72.4177 45.6546 72.476 45.704 72.5254 45.7443C72.5747 45.7892 72.6779 45.8475 72.7541 45.9013C72.9156 46.0135 73.0861 46.1076 73.252 46.2063C73.9338 46.5741 74.6739 46.8029 75.4454 46.8881C76.6879 47.0272 77.9842 46.7939 79.3477 46.5248C80.034 46.3947 80.7427 46.2512 81.5232 46.2108C81.9134 46.1929 82.3216 46.2018 82.7432 46.2736C83.1783 46.3633 83.5326 46.4485 84.1202 46.7984C84.5688 47.072 84.8514 47.5744 84.8558 48.0992C84.8648 48.3593 84.793 48.615 84.6988 48.8752L84.5329 49.3506L83.9229 51.1044L82.7028 54.6165L80.2134 61.7798C80.025 62.327 79.581 62.7486 79.0337 62.8921C78.7646 62.9684 78.4775 62.9729 78.1994 62.9101C77.9393 62.8473 77.5805 62.6903 77.4908 62.6634L75.7011 61.9906L72.1172 60.6494L69.4215 59.6537C69.399 59.6447 69.3766 59.6581 69.3676 59.6761C69.3631 59.6851 69.3587 59.703 69.3721 59.6895L69.3766 59.6851L69.3587 59.7344L69.3183 59.8331L69.2689 60.0394C69.1344 60.5821 69.1299 61.1787 69.2017 61.8381C69.3048 62.9415 69.6771 64.2467 69.4618 65.7987C69.3452 66.5164 69.0626 67.2206 68.6724 67.8306C68.4616 68.1042 68.2373 68.4182 68.022 68.6425C67.8022 68.8757 67.5779 69.1 67.3402 69.3108C66.3938 70.1541 65.2949 70.8628 64.0389 71.2889C63.411 71.4907 62.7516 71.6388 62.0788 71.6746C61.415 71.706 60.7152 71.6567 60.0917 71.5132C58.8224 71.244 57.6248 70.7103 56.5707 69.9433C55.9517 69.4857 55.3776 68.9385 54.9066 68.2881C54.4401 67.6377 54.0543 66.8662 53.9198 66.0006C53.7897 65.1304 53.8839 64.2961 54.1441 63.4977C54.4177 62.7172 54.8348 62.0265 55.2968 61.4344C56.2253 60.2457 57.3108 59.3442 58.2168 58.4336C58.6699 57.9806 59.0736 57.5231 59.3113 57.088C59.4279 56.8727 59.4952 56.6753 59.5176 56.4959C59.5356 56.4062 59.5266 56.321 59.5221 56.2313C59.5131 56.1864 59.5042 56.1416 59.4997 56.0967C59.4952 56.0743 59.4952 56.0788 59.4952 56.0698C59.4907 56.0474 59.4728 56.0294 59.4503 56.0249L58.7327 55.8231L57.073 55.3566C55.2789 54.8542 53.4892 54.3519 51.6995 53.8495L49.0082 53.1229L47.6626 52.773L46.9898 52.6026L46.6534 52.5173L46.4829 52.477C46.4695 52.477 46.3977 52.4545 46.3259 52.4321C46.2587 52.4097 46.1959 52.3828 46.1286 52.3514C45.541 52.0778 45.2449 51.5754 45.1418 51.1807C45.0341 50.7725 45.0969 50.454 45.1597 50.2701C45.227 50.0862 45.2943 50.0189 45.3257 50.0459C45.3616 50.0728 45.3526 50.1984 45.375 50.4047C45.4558 51.1179 45.9806 51.6023 46.6085 51.6516C47.1109 51.6202 47.685 51.6158 48.5821 51.7548C49.7887 51.9342 50.9011 52.1271 52.3319 52.5846C54.4042 53.2485 56.6604 53.697 58.6654 54.4909C58.948 54.6031 59.3741 54.7107 59.7195 54.7915C59.8989 54.8363 60.1321 54.8767 60.2981 55.0023C60.473 55.1234 60.6076 55.3028 60.6749 55.5046C60.7601 55.7334 60.8094 55.9397 60.8363 56.1505C60.8408 56.2582 60.8498 56.3658 60.8498 56.4735L60.8184 56.7964C60.7511 57.2226 60.5762 57.6128 60.3698 57.9627C59.9437 58.6624 59.3965 59.2231 58.8538 59.7613C57.7683 60.8333 56.62 61.8291 55.8934 63.0671C55.5301 63.6816 55.3058 64.3544 55.2654 65.0496C55.234 65.7449 55.4 66.4222 55.7498 67.0412C56.4585 68.2747 57.6876 69.2076 59.0332 69.7594C59.9706 70.1361 60.9843 70.3514 61.9756 70.2797C62.9714 70.2079 63.9358 69.876 64.8059 69.3691C65.3711 69.0417 65.9004 68.647 66.3848 68.2029C66.627 67.9831 66.8603 67.7499 67.0801 67.5032C67.2684 67.252 67.4793 67.0143 67.6138 66.7362C68.0758 65.9512 68.1252 65.0093 68.0399 64.0539C67.9502 63.094 67.726 62.1072 67.7304 61.0666C67.717 60.4341 67.8202 59.7837 68.0399 59.1917C68.1117 59.0122 68.1835 58.8194 68.2777 58.6669C68.3763 58.5099 68.5154 58.3798 68.6814 58.2991C69.0133 58.1241 69.408 58.16 69.722 58.3305L69.9418 58.4336L70.1167 58.5233L70.4576 58.7117C70.7043 58.8553 71.4399 59.1244 71.718 59.1737C72.781 59.3621 73.9203 59.8241 75.0731 60.2727L77.419 61.1877L78.0066 61.4164L78.2398 61.5106C78.3071 61.5331 78.3699 61.5645 78.4372 61.5779C78.7243 61.6407 79.0023 61.4164 79.0562 61.1383L80.7158 56.5228C81.5411 54.1994 82.3395 51.8625 83.1155 49.53L83.4878 48.4087C83.5909 48.1844 83.4878 47.8884 83.2501 47.8076C83.2052 47.7807 83.1559 47.7583 83.111 47.7448C83.0706 47.7269 82.9764 47.6865 82.9092 47.6731C82.7611 47.6237 82.6086 47.5923 82.4516 47.5699C82.1332 47.525 81.8013 47.5295 81.4559 47.5609C80.7696 47.6237 80.0564 47.7852 79.3298 47.9377C77.881 48.2472 76.2842 48.5388 74.656 48.2248C73.7858 48.0723 72.947 47.7224 72.1979 47.2694C72.0096 47.1438 71.8391 47.0406 71.6417 46.8926C71.4175 46.7132 71.2605 46.5472 71.108 46.3768C70.803 46.0359 70.5563 45.6815 70.323 45.3137C69.8655 44.5736 69.4977 43.7842 69.2555 42.932C69.0133 42.0842 68.9011 41.1692 69.0043 40.2497C69.103 39.4019 69.3587 38.5587 69.8251 37.823C70.6819 36.455 72.1127 35.5086 73.4449 35.0959C73.8172 34.9748 74.1715 34.8896 74.5169 34.8133C74.8757 34.7416 75.1808 34.6788 75.5979 34.6429C75.9971 34.6384 76.3111 34.6608 76.6744 34.6653C77.0198 34.7191 77.3876 34.7371 77.7554 34.8088C78.6121 34.9299 79.7918 35.5758 80.5947 36.2083C81.6488 37.0112 82.4965 37.9621 83.2814 38.8682C83.7524 39.4109 84.192 39.9447 84.6675 40.3753C84.9635 40.6399 84.9949 40.6444 85.116 40.6937C85.2326 40.7296 85.3582 40.6309 85.3717 40.5098C85.3761 40.4874 85.3761 40.465 85.3806 40.4381C85.3627 40.4515 85.4614 40.1824 85.5376 39.9895C85.6184 39.7832 85.7081 39.5724 85.7933 39.3616C85.9727 38.9354 86.1656 38.5093 86.3405 38.1191C87.0896 36.4819 87.8028 34.8178 88.4935 33.1403C88.8299 32.297 89.1708 31.4582 89.5072 30.615L89.9199 29.5519C89.9917 29.3545 89.8347 29.1392 89.6328 29.1123L88.1706 28.601C86.3719 27.9775 84.5688 27.354 82.7701 26.7306L80.0699 25.7976L79.3971 25.5643L79.0158 25.4343C78.8229 25.367 78.6211 25.2997 78.4506 25.201C78.1142 25.0082 77.8496 24.6897 77.7285 24.3219C77.6029 23.9496 77.6253 23.5414 77.7823 23.1781C77.9438 22.8193 78.2264 22.4111 78.3609 22.2586C78.5269 22.0478 78.6929 21.8594 78.8633 21.6755L79.8411 20.6483C80.4691 19.9845 81.0567 19.3251 81.4918 18.6164C81.7474 18.1948 81.9582 17.7642 82.1018 17.3246C82.1691 17.1048 82.2184 16.8805 82.2633 16.6563C82.2812 16.4365 82.3305 16.1808 82.3126 16.0238C82.2812 15.3017 81.7743 14.5347 81.0298 13.965C80.4691 13.5389 79.8142 13.189 79.1055 12.9334C78.3923 12.6777 77.7061 12.5072 76.9974 12.5028C76.2931 12.4848 75.5979 12.6239 74.9385 12.8795C74.6066 13.0006 74.2926 13.1711 73.9876 13.355C73.6916 13.5344 73.3866 13.7677 73.1803 13.974L73.1444 14.0099C73.1399 14.0144 73.1444 14.0144 73.1444 14.0144L73.0726 13.956L72.8304 13.7721L72.7048 13.6824C72.9066 13.8349 72.1621 13.2787 73.1399 14.0144V14.0188L73.1264 14.0413L73.0995 14.0861L72.9605 14.288C72.8842 14.4136 72.8304 14.5705 72.7631 14.7096C72.6599 15.0236 72.5702 15.36 72.5164 15.7278C72.4088 16.4589 72.3953 17.2528 72.4088 18.0647C72.4177 18.8855 72.4671 19.7153 72.4222 20.6393L72.3908 20.9982C72.3863 21.0565 72.3818 21.1148 72.3684 21.1821L72.3235 21.4333C72.2966 21.6396 72.2293 21.8056 72.1531 21.976C72.0768 22.142 72.0275 22.3303 71.9064 22.4649C71.4578 23.0435 70.6415 23.2588 69.9373 22.9852L69.0626 22.6578C67.7888 22.1734 66.4969 21.6755 65.2276 21.2494C63.7563 20.756 62.2986 20.2357 60.8498 19.6974L58.6788 18.8766L58.1361 18.6702L58.1002 18.6568L58.0912 18.6523L58.0733 18.6433C58.0598 18.6388 58.0509 18.6299 58.0374 18.6254C57.9836 18.6119 57.9208 18.6433 57.9028 18.6971L57.8939 18.7241C57.8894 18.742 57.8939 18.7151 57.8715 18.7913L57.7683 19.1277L57.5664 19.7961L57.1717 21.1327C56.9161 22.0298 56.6649 22.9224 56.4092 23.815C55.9248 25.6092 55.4448 27.3989 54.9604 29.1886L54.8797 29.5026L54.8572 29.5833C54.8483 29.6102 54.8572 29.5968 54.8528 29.6012V29.6147C54.8572 29.6282 54.8662 29.6416 54.8752 29.6461C54.8303 29.6012 55.0725 29.8031 55.3013 29.8838C55.7184 30.0543 56.3554 30.0632 57.0192 29.987C57.6876 29.9062 58.3918 29.7537 59.1274 29.5968C59.8675 29.4443 60.6255 29.2738 61.4822 29.22C61.9083 29.1931 62.3659 29.1931 62.8548 29.2873C63.3392 29.377 63.873 29.5743 64.3215 29.9287C64.4292 30.0184 64.5368 30.1126 64.6355 30.2068L64.8687 30.458C65.0168 30.6284 65.1603 30.8033 65.2859 30.9828C65.546 31.3416 65.7524 31.7273 65.9408 32.1221C66.2951 32.916 66.5373 33.7592 66.6001 34.6339C66.6674 35.5041 66.5911 36.4012 66.3175 37.2489C66.0619 38.0922 65.5729 38.9489 64.936 39.5903C63.9044 40.6534 62.6036 41.2499 61.3297 41.6043C60.6704 41.7792 60.0738 41.9048 59.3292 41.9496C58.6071 41.9855 57.8625 41.8913 57.1807 41.6536C55.7947 41.1961 54.7451 40.2945 53.848 39.4827C53.3995 39.079 52.9689 38.6663 52.5742 38.3927C52.3768 38.2537 52.1929 38.1595 52.0673 38.1281C51.9955 38.1011 51.9417 38.1056 51.8789 38.1281C51.8341 38.146 51.8027 38.1864 51.7847 38.2267C50.4839 41.4383 49.1832 44.6409 47.8824 47.848C47.7927 48.0723 47.7164 48.319 47.6267 48.5388C46.8238 50.4899 46.3394 51.0192 46.3125 49.9427C46.2901 48.9873 46.5906 47.6103 47.2724 45.834L49.5689 39.9581L49.5241 39.9222Z" fill="black"/>
<path d="M64.2227 3.18595C64.4469 3.97538 65.2408 4.65269 66.12 4.61232C67.2413 4.55849 68.0981 3.36088 67.9231 2.23952C67.7796 1.31104 66.9319 0.512628 66.0258 0.53057C64.8237 0.552997 63.8818 2.00179 64.2227 3.18595Z" fill="white"/>
<path d="M64.9858 3.32966C64.9633 3.46423 64.9858 3.58982 64.9768 3.76475C64.9678 3.91726 64.9947 4.09668 65.1652 4.06079C65.2056 4.05182 65.219 4.09219 65.2459 4.11013C65.2953 4.14153 65.3446 4.16844 65.3984 4.1819C65.4253 4.18638 65.4792 4.13256 65.4881 4.16396C65.542 4.32095 65.6676 4.3972 65.8021 4.28058C65.8649 4.46448 65.9815 4.35234 66.0623 4.29403C66.143 4.23572 66.2372 4.26712 66.2865 4.1191C66.3 4.07873 66.3179 4.06079 66.3404 4.07873C66.5018 4.18638 66.623 4.07425 66.7127 3.97108C66.8158 3.86343 66.9369 3.80961 67.1702 3.80064C67.2868 3.78718 67.3496 3.71541 67.3989 3.63468C67.4617 3.54497 67.4707 3.41937 67.5066 3.32069C67.5514 3.17267 67.5604 3.00671 67.4617 2.84524C67.3361 2.63442 67.2061 2.47743 67.0984 2.3653C67.0401 2.30698 67.076 2.23522 67.0805 2.15448C67.0805 2.00198 67.076 1.8091 66.9908 1.65211C66.9324 1.531 66.8158 1.45475 66.7037 1.40093C66.596 1.3471 66.4615 1.36504 66.3628 1.35607C66.0578 1.33813 65.8829 1.45924 65.7214 1.64314C65.6855 1.69697 65.6631 1.75976 65.6406 1.82256C65.6272 1.84947 65.6048 1.86741 65.5823 1.88984C65.4881 1.95264 65.3895 2.04234 65.3222 2.14999C65.228 2.30698 65.1921 2.4864 65.1697 2.64339C65.1517 2.72862 65.1428 2.8273 65.2728 2.86767C65.3087 2.87664 65.2145 2.91252 65.0037 2.96186C64.6404 3.0426 64.2591 3.12333 64.0214 3.074C63.8554 3.0426 63.7343 2.98429 63.7837 2.89458C63.8465 2.76898 63.6805 2.62994 63.9093 2.52229C63.9407 2.50883 63.9317 2.48192 63.9227 2.46398C63.7029 2.07823 63.9631 1.72388 64.156 1.4413C64.2232 1.3471 64.2457 1.22599 64.313 1.12283C64.3533 1.05555 64.3982 0.992752 64.4565 0.938927C64.5372 0.858189 64.6404 0.804365 64.7122 0.719141C64.7615 0.65186 64.7929 0.544208 64.9813 0.683257C65.0217 0.714655 65.0486 0.678772 65.0306 0.624947C64.9678 0.418617 65.0486 0.405161 65.1158 0.373763C65.2997 0.293025 65.4971 0.261627 65.69 0.221258C65.8335 0.19883 65.977 0.145005 66.134 0.104636C66.3718 0.0373546 66.6499 -0.025441 66.9145 0.0104424C67.1343 0.0418405 67.3406 0.131549 67.5335 0.230229C67.5783 0.252656 67.6456 0.24817 67.6905 0.275082C67.7667 0.328908 67.8789 0.35582 67.8878 0.467956C67.9013 0.593548 67.9372 0.65186 68.1301 0.60252C68.2422 0.575607 68.2915 0.647374 68.314 0.71017C68.3454 0.795394 68.3409 0.903043 68.3274 1.01069C68.3095 1.14077 68.2781 1.24842 68.444 1.27982C68.5337 1.29776 68.5337 1.38747 68.5113 1.46821C68.4171 1.80462 68.4979 2.03786 68.5786 2.31147C68.6952 2.67479 68.7625 3.07848 68.7221 3.48217C68.7132 3.64365 68.6504 3.78718 68.5965 3.9352C68.4126 4.39271 68.0448 4.76052 67.6142 5.00722C67.5245 5.05207 67.4348 5.09244 67.372 5.17766C67.2195 5.37054 66.9818 5.45576 66.7396 5.45576C66.448 5.45576 66.1924 5.56341 65.8918 5.63518C65.8245 5.64864 65.7483 5.68452 65.681 5.66209C65.2414 5.50062 64.7525 5.49613 64.3892 5.20458C64.1066 4.97133 63.9272 4.6439 63.8061 4.32543C63.7119 4.07425 63.6715 3.80961 63.6626 3.55394C63.6626 3.536 63.6401 3.52702 63.6401 3.50908C63.6491 3.35209 63.8958 3.2579 64.2995 3.19062C64.6583 3.12782 64.8602 3.09642 64.8826 3.15473C64.9005 3.21753 64.905 3.29378 64.9275 3.37003L64.9858 3.32966Z" fill="black"/>
<path d="M29.3672 81.8203C29.1878 82.7309 29.7261 83.8298 30.6949 84.0047C31.6413 84.1752 32.5205 83.3768 32.6909 82.4842C32.8704 81.5288 32.2514 80.4253 31.2646 80.2997C30.354 80.1831 29.5377 80.9591 29.3672 81.8203Z" fill="white"/>
<path d="M29.9808 82.2602C29.8956 82.3589 29.8508 82.4665 29.7566 82.6056C29.6713 82.7267 29.6041 82.8792 29.7611 82.924C29.8014 82.933 29.788 82.9734 29.8059 82.9958C29.8283 83.0407 29.8553 83.0855 29.8911 83.1214C29.9091 83.1393 29.9808 83.1169 29.9719 83.1483C29.927 83.3008 29.9853 83.4219 30.1558 83.3905C30.102 83.5744 30.2545 83.5341 30.3442 83.5251C30.4339 83.5161 30.4922 83.5879 30.6043 83.4847C30.6312 83.4578 30.6537 83.4533 30.6626 83.4802C30.7254 83.6417 30.869 83.6238 30.9721 83.5789C31.0887 83.5341 31.1964 83.5655 31.3848 83.6686C31.4879 83.7269 31.5642 83.6821 31.636 83.6417C31.7212 83.5924 31.775 83.4937 31.8378 83.4264C31.932 83.3232 31.9948 83.1842 31.9724 83.0137C31.941 82.785 31.8916 82.6011 31.8423 82.4575C31.8199 82.3858 31.8827 82.3499 31.9186 82.2916C31.9903 82.1839 32.0755 82.0359 32.08 81.8744C32.08 81.7578 32.0307 81.6457 31.9589 81.556C31.8916 81.4663 31.775 81.4214 31.6988 81.3676C31.4566 81.2061 31.2368 81.2061 31.1022 81.2913C31.0663 81.3138 31.0439 81.3586 31.0215 81.39C31.008 81.4035 30.9946 81.4124 30.9811 81.408C30.9183 81.408 30.8286 81.4124 30.7523 81.4618C30.6357 81.5291 30.5505 81.6547 30.4698 81.7758C30.4294 81.8386 30.3666 81.9148 30.4698 82.009C30.4967 82.0314 30.398 82.018 30.1872 81.9686C29.8239 81.8789 29.4516 81.7803 29.2542 81.6367C29.1241 81.5425 29.0344 81.4438 29.1152 81.3855C29.2273 81.3138 29.1241 81.1254 29.3753 81.1343C29.4112 81.1388 29.4112 81.1119 29.4067 81.0895C29.3529 80.6768 29.7117 80.4795 29.9943 80.3225C30.0885 80.2687 30.1603 80.179 30.2589 80.1162C30.3173 80.0758 30.389 80.0489 30.4608 80.0264C30.564 79.9995 30.6761 79.9995 30.7793 79.9681C30.8555 79.9412 30.9362 79.8605 31.017 80.0803C31.0349 80.1251 31.0708 80.1117 31.0843 80.0578C31.1381 79.8515 31.2143 79.8829 31.2816 79.8919C31.47 79.9278 31.636 80.0085 31.8064 80.0803C31.932 80.1296 32.0621 80.17 32.2056 80.2103C32.4209 80.2731 32.6676 80.3449 32.865 80.4884C33.0265 80.6095 33.1431 80.771 33.2597 80.9325C33.2866 80.9684 33.3449 80.9953 33.3673 81.0357C33.4122 81.1074 33.484 81.1792 33.4436 81.2779C33.3987 81.3855 33.3898 81.4483 33.5916 81.4887C33.7038 81.5111 33.7082 81.5919 33.6993 81.6591C33.6903 81.7444 33.632 81.8296 33.5692 81.9103C33.4929 82.009 33.4167 82.0853 33.5468 82.1839C33.6185 82.2378 33.5737 82.314 33.5199 82.3678C33.2776 82.6101 33.2418 82.8254 33.2014 83.0855C33.1476 83.4264 33.0579 83.7852 32.865 84.1172C32.7932 84.2472 32.6811 84.3504 32.5734 84.4536C32.2325 84.7765 31.7257 84.947 31.2233 84.9335C31.1246 84.9335 31.026 84.9156 30.9318 84.9559C30.703 85.0501 30.4653 84.9828 30.2679 84.8617C30.0347 84.7048 29.7745 84.6689 29.5054 84.5702C29.4426 84.5522 29.3663 84.5433 29.326 84.4895C29.0703 84.1396 28.6846 83.9153 28.5365 83.5161C28.4244 83.2021 28.4423 82.8612 28.4917 82.5517C28.5276 82.3095 28.6262 82.0808 28.7339 81.87C28.7429 81.8565 28.7249 81.8386 28.7339 81.8251C28.8101 81.704 29.0748 81.7309 29.465 81.852C29.8149 81.9552 30.0122 82.018 29.9988 82.0718C29.9853 82.1301 29.9539 82.1929 29.936 82.2602H29.9808Z" fill="black"/>
<path d="M44.3262 12.3184C44.3801 12.2063 44.4115 12.0987 44.4967 11.9776C44.5774 11.8654 44.6582 11.7533 44.5146 11.7219C44.4787 11.7129 44.4967 11.6815 44.4877 11.6636C44.4743 11.6277 44.4608 11.5918 44.4384 11.5559C44.4294 11.5425 44.3487 11.547 44.3666 11.5245C44.4563 11.4079 44.4608 11.3182 44.3038 11.2868C44.4429 11.1702 44.3038 11.1522 44.2365 11.1119C44.1648 11.0715 44.1782 10.9952 44.0302 10.9818C43.9898 10.9773 43.9719 10.9638 43.9898 10.9414C44.0885 10.7979 44.0078 10.7171 43.936 10.6319C43.8598 10.5422 43.8687 10.4211 43.9809 10.2641C44.0392 10.1789 44.0167 10.1251 43.9943 10.0668C43.9674 9.99948 43.9001 9.95013 43.8598 9.88734C43.8059 9.79763 43.7252 9.71689 43.5772 9.65858C43.3798 9.58233 43.2094 9.49711 43.0793 9.39843C43.012 9.34909 43.0389 9.26386 43.0389 9.18761C43.0389 9.03511 43.0703 8.87363 43.0569 8.72561C43.0434 8.61796 42.9941 8.51928 42.9313 8.42957C42.873 8.34435 42.7743 8.27258 42.7115 8.19184C42.5276 7.94066 42.3571 7.68948 42.1777 7.43829C42.1329 7.37998 42.0656 7.32615 42.0162 7.26784C41.9938 7.24093 41.9804 7.20505 41.9714 7.16917C41.9445 7.03909 41.9355 6.90004 41.8996 6.77445C41.8503 6.59054 41.774 6.41561 41.7247 6.23619C41.6978 6.13303 41.6888 6.02089 41.5363 5.96258C41.4959 5.94464 41.5856 5.90427 41.792 5.84147C42.1508 5.73382 42.5186 5.6172 42.7474 5.58581C42.8999 5.56786 43.021 5.55889 42.9851 5.6172C42.9313 5.70243 43.1152 5.70691 42.9268 5.84147C42.8999 5.85942 42.9133 5.86839 42.9313 5.87287C43.2318 5.9581 43.169 6.18237 43.2049 6.36627C43.2183 6.42458 43.2767 6.46944 43.308 6.52326C43.3305 6.55914 43.3439 6.59503 43.3529 6.63091C43.3664 6.68922 43.3484 6.75202 43.3843 6.80136C43.4112 6.83724 43.4919 6.8507 43.2991 6.96283C43.2587 6.98526 43.2767 7.0032 43.3305 6.99423C43.5323 6.95386 43.5233 6.99423 43.5323 7.03012C43.5503 7.12431 43.5503 7.22748 43.5861 7.31718C43.6131 7.38447 43.6669 7.43829 43.7387 7.48763C43.8463 7.56388 43.9943 7.62668 44.0975 7.70742C44.1827 7.7747 44.2276 7.85544 44.2948 7.93169C44.3083 7.94963 44.3576 7.95412 44.3711 7.97206C44.3935 8.00345 44.4518 8.02588 44.398 8.08419C44.3352 8.15147 44.3307 8.18287 44.5146 8.16045C44.6178 8.14699 44.6178 8.18287 44.6133 8.21427C44.6043 8.25464 44.5505 8.31295 44.4967 8.36678C44.4339 8.43406 44.3666 8.50134 44.5101 8.49685C44.5864 8.49237 44.555 8.54171 44.5191 8.58208C44.3532 8.77046 44.4115 8.87363 44.5101 8.96782C44.6447 9.09342 44.8062 9.21004 44.9452 9.33115C44.9991 9.38049 45.026 9.43879 45.0619 9.49262C45.1695 9.66755 45.1874 9.87388 45.1964 10.0802C45.1964 10.1206 45.1919 10.1654 45.2458 10.1879C45.3624 10.2417 45.3713 10.3314 45.3444 10.439C45.3086 10.5646 45.4162 10.6409 45.5283 10.7127C45.5553 10.7306 45.6046 10.7396 45.6001 10.7665C45.5597 10.9638 45.793 11.0625 45.8109 11.2375C45.8289 11.3765 45.775 11.5469 45.7347 11.7039C45.7033 11.8295 45.6539 11.9596 45.6091 12.0897C45.6046 12.0987 45.627 12.0987 45.6225 12.1076C45.5867 12.1839 45.3444 12.2915 44.9542 12.4037C44.6088 12.5023 44.398 12.5337 44.389 12.4799C44.3756 12.4216 44.3846 12.3543 44.3846 12.287C44.3576 12.305 44.3442 12.314 44.3262 12.3184Z" fill="black"/>
<path d="M54.4407 2.02928C54.3151 2.13245 54.2165 2.2401 54.0595 2.32981C53.9159 2.41054 53.7724 2.4868 53.8576 2.6393C53.88 2.67967 53.8397 2.7021 53.8352 2.73349C53.8217 2.79181 53.7993 2.84563 53.7948 2.90843C53.7903 2.93534 53.8576 2.98468 53.8262 3.00262C53.6692 3.08336 53.602 3.19101 53.6961 3.348C53.5033 3.38837 53.5975 3.51396 53.6199 3.62161C53.6423 3.72926 53.5795 3.81449 53.6782 3.94008C53.7051 3.97596 53.7096 4.00736 53.6782 4.0253C53.4943 4.13295 53.4988 4.29443 53.4898 4.4559C53.4808 4.62635 53.3866 4.77437 53.1848 4.88651C53.0772 4.94482 53.0547 5.03452 53.0278 5.12423C52.9964 5.2274 53.0144 5.34402 52.9964 5.45167C52.9695 5.60866 52.9695 5.77013 53.0413 5.95404C53.1355 6.20074 53.1983 6.43847 53.2252 6.66722C53.2386 6.78384 53.1534 6.87355 53.0996 6.96775C52.9874 7.16062 52.8394 7.34004 52.7452 7.5374C52.6735 7.68542 52.6421 7.84689 52.6196 8.00837C52.5972 8.16087 52.6241 8.32683 52.6062 8.47934C52.5568 8.93685 52.4985 9.3854 52.4492 9.84291C52.4357 9.95056 52.4492 10.0672 52.4447 10.1793C52.4402 10.2331 52.4268 10.287 52.4043 10.3363C52.3281 10.5202 52.2339 10.7041 52.1666 10.8925C52.0679 11.1616 51.9962 11.4397 51.8975 11.7089C51.8437 11.8614 51.7674 12.0094 51.8347 12.1978C51.8526 12.2516 51.754 12.2336 51.5521 12.1574C51.2022 12.0183 50.8389 11.8838 50.646 11.7447C50.516 11.6505 50.4218 11.5698 50.4935 11.525C50.5967 11.4577 50.4621 11.3096 50.7044 11.2872C50.7402 11.2827 50.7358 11.2603 50.7268 11.2424C50.5653 10.9015 50.7761 10.6727 50.8883 10.4126C50.9241 10.3273 50.9107 10.2287 50.9286 10.1345C50.9376 10.0762 50.9555 10.0178 50.978 9.96402C51.0094 9.88328 51.0722 9.81151 51.0767 9.7218C51.0811 9.65452 51.0318 9.57378 51.2605 9.58276C51.3099 9.58276 51.3054 9.54687 51.2605 9.51996C51.0766 9.41679 51.117 9.37194 51.135 9.3226C51.1933 9.18804 51.2695 9.05796 51.3099 8.91891C51.3413 8.81575 51.3413 8.70361 51.3233 8.58699C51.3009 8.40309 51.2336 8.21021 51.2157 8.0308C51.2022 7.87829 51.2292 7.74373 51.2336 7.60019C51.2336 7.5688 51.2022 7.52394 51.2067 7.49254C51.2157 7.43423 51.1843 7.35798 51.2695 7.32658C51.3637 7.2907 51.3951 7.25033 51.2381 7.14268C51.1484 7.08437 51.1753 7.03503 51.2022 7.00363C51.2381 6.95878 51.3233 6.92738 51.4041 6.90047C51.5028 6.86458 51.6014 6.83318 51.4893 6.73002C51.431 6.67619 51.4848 6.64031 51.5476 6.6134C51.8078 6.50575 51.8437 6.32184 51.8392 6.12897C51.8347 5.86881 51.7943 5.5952 51.7809 5.33505C51.7764 5.23188 51.7988 5.13769 51.8123 5.03901C51.8571 4.734 52.0007 4.46039 52.1487 4.19126C52.1756 4.13744 52.2115 4.08361 52.1935 4.01633C52.1442 3.85934 52.207 3.73823 52.3057 3.6261C52.4268 3.49153 52.3999 3.3166 52.3729 3.13718C52.364 3.09682 52.3371 3.04748 52.3595 3.01608C52.5344 2.79629 52.4357 2.49577 52.5479 2.25804C52.6376 2.06517 52.8035 1.89472 52.9516 1.72427C53.0637 1.58971 53.2027 1.46412 53.3283 1.33404C53.3373 1.32507 53.3239 1.31161 53.3328 1.30264C53.4136 1.23087 53.6782 1.28021 54.0505 1.44169C54.3824 1.58522 54.5618 1.70185 54.5304 1.7781C54.4946 1.86332 54.4407 1.94406 54.3914 2.0248C54.4048 2.01583 54.4228 2.02031 54.4407 2.02928Z" fill="black"/>
<path d="M49.9108 69.584C49.8436 69.6826 49.7987 69.7724 49.6955 69.8755C49.6013 69.9697 49.5072 70.0639 49.6462 70.0998C49.6821 70.1088 49.6597 70.1357 49.6641 70.1536C49.6731 70.185 49.6821 70.2209 49.7 70.2478C49.709 70.2613 49.7852 70.2613 49.7673 70.2792C49.6641 70.3779 49.6462 70.4541 49.7987 70.49C49.6462 70.5842 49.7808 70.6067 49.8436 70.647C49.9064 70.6874 49.8884 70.7502 50.0275 70.7726C50.0633 70.7771 50.0813 70.7906 50.0633 70.813C49.9467 70.9341 50.0185 71.0103 50.0768 71.0866C50.1396 71.1718 50.1172 71.275 49.9871 71.4051C49.9153 71.4768 49.9333 71.5262 49.9467 71.5755C49.9647 71.6338 50.0275 71.6831 50.0544 71.7415C50.0947 71.8267 50.1665 71.8985 50.3056 71.9568C50.4939 72.033 50.6464 72.1227 50.7631 72.2169C50.8214 72.2663 50.7855 72.338 50.7765 72.4053C50.7541 72.5399 50.7003 72.6789 50.7003 72.809C50.6958 72.9077 50.7362 72.9929 50.7855 73.0781C50.8304 73.1589 50.9201 73.2261 50.9694 73.3024C51.1174 73.5312 51.252 73.7689 51.3955 73.9976C51.4314 74.0515 51.4897 74.1008 51.5301 74.1546C51.548 74.1815 51.557 74.2129 51.5615 74.2443C51.5704 74.361 51.5615 74.4821 51.5839 74.5987C51.6108 74.7646 51.6602 74.9216 51.6871 75.0831C51.7005 75.1773 51.696 75.276 51.8351 75.3343C51.8755 75.3522 51.7768 75.3836 51.566 75.4285C51.1982 75.5003 50.8169 75.581 50.5926 75.5945C50.4401 75.6034 50.319 75.6034 50.3639 75.5496C50.4267 75.4778 50.2473 75.4644 50.4536 75.3567C50.4805 75.3433 50.4715 75.3343 50.4536 75.3298C50.1665 75.2356 50.2607 75.0427 50.2517 74.8813C50.2472 74.8274 50.1979 74.7871 50.171 74.7377C50.1575 74.7063 50.1441 74.6749 50.1441 74.6391C50.1396 74.5897 50.162 74.5314 50.1351 74.4866C50.1127 74.4552 50.0364 74.4372 50.2428 74.3475C50.2876 74.3296 50.2697 74.3116 50.2158 74.3206C50.0095 74.343 50.0275 74.3071 50.023 74.2757C50.0185 74.1905 50.0319 74.1008 50.0095 74.0201C49.9916 73.9618 49.9467 73.9079 49.8839 73.8586C49.7852 73.7823 49.6507 73.7195 49.5565 73.6433C49.4802 73.5805 49.4488 73.5042 49.3905 73.437C49.3771 73.419 49.3322 73.4145 49.3232 73.3966C49.3053 73.3652 49.247 73.3428 49.3098 73.2934C49.3771 73.2396 49.386 73.2082 49.2021 73.2217C49.099 73.2261 49.1035 73.1992 49.1124 73.1678C49.1259 73.1319 49.1887 73.0871 49.247 73.0422C49.3188 72.9884 49.395 72.9346 49.2515 72.9301C49.1752 72.9256 49.2111 72.8897 49.2515 72.8539C49.4399 72.7013 49.395 72.6027 49.3098 72.513C49.1932 72.3918 49.0496 72.2842 48.9285 72.1631C48.8792 72.1182 48.8613 72.0644 48.8343 72.0106C48.7491 71.8491 48.7581 71.6697 48.776 71.4813C48.7805 71.4454 48.7895 71.4051 48.7446 71.3826C48.637 71.3288 48.6415 71.2481 48.6818 71.1584C48.7357 71.0507 48.637 70.9745 48.5338 70.9072C48.5114 70.8892 48.462 70.8803 48.471 70.8533C48.5383 70.6829 48.323 70.5797 48.323 70.4272C48.323 70.3016 48.3992 70.1581 48.4576 70.0191C48.5024 69.9114 48.5742 69.7993 48.628 69.6871C48.6325 69.6782 48.6145 69.6782 48.619 69.6692C48.6639 69.6019 48.9151 69.5212 49.3143 69.4494C49.6686 69.3866 49.8794 69.3687 49.8839 69.418C49.8884 69.4718 49.8705 69.5301 49.8615 69.5885C49.875 69.5929 49.8929 69.5885 49.9108 69.584Z" fill="black"/>
<path d="M40.2791 79.6319C40.4047 79.5242 40.5034 79.4076 40.6604 79.3089C40.8039 79.2237 40.9474 79.1385 40.8622 78.986C40.8398 78.9456 40.8757 78.9187 40.8847 78.8873C40.8981 78.829 40.9205 78.7707 40.925 78.7079C40.9295 78.6809 40.8622 78.6316 40.8936 78.6137C41.0506 78.524 41.1179 78.4118 41.0192 78.2548C41.2121 78.2055 41.1179 78.0799 41.0955 77.9678C41.073 77.8556 41.1358 77.7704 41.0372 77.6358C41.0102 77.6 41.0058 77.5686 41.0372 77.5506C41.2211 77.434 41.2121 77.2635 41.2211 77.0976C41.23 76.9182 41.3242 76.7657 41.5216 76.6401C41.6292 76.5728 41.6517 76.4831 41.6741 76.3889C41.7055 76.2812 41.6875 76.1601 41.7055 76.048C41.7324 75.8865 41.7279 75.7161 41.6561 75.5277C41.5575 75.2765 41.4947 75.0298 41.4678 74.7966C41.4543 74.6755 41.535 74.5813 41.5934 74.4826C41.7055 74.2807 41.849 74.0879 41.9432 73.8815C42.015 73.7245 42.0464 73.5586 42.0643 73.3881C42.0867 73.2311 42.0598 73.0607 42.0733 72.8992C42.1181 72.4282 42.172 71.9573 42.2213 71.4863C42.2303 71.3742 42.2168 71.2531 42.2258 71.1364C42.2303 71.0781 42.2437 71.0243 42.2617 70.9705C42.3379 70.7776 42.4276 70.5847 42.4949 70.3874C42.5891 70.1048 42.6609 69.8132 42.7551 69.5351C42.8089 69.3737 42.8852 69.2212 42.8134 69.0238C42.7954 68.97 42.8941 68.9834 43.096 69.0597C43.4458 69.1898 43.8136 69.3198 44.0065 69.4589C44.1366 69.5531 44.2353 69.6338 44.1635 69.6832C44.0603 69.7549 44.1994 69.9029 43.9527 69.9343C43.9168 69.9388 43.9213 69.9613 43.9303 69.9792C44.0962 70.3291 43.8854 70.5713 43.7778 70.8449C43.7419 70.9346 43.7553 71.0378 43.7419 71.132C43.7329 71.1947 43.715 71.2531 43.6925 71.3114C43.6611 71.3966 43.6028 71.4728 43.5939 71.5626C43.5894 71.6298 43.6387 71.7151 43.4099 71.7106C43.3606 71.7106 43.3651 71.7465 43.4099 71.7734C43.5939 71.8765 43.558 71.9214 43.5355 71.9752C43.4772 72.1143 43.4055 72.2533 43.3651 72.3968C43.3382 72.5045 43.3382 72.6211 43.3516 72.7422C43.3786 72.9306 43.4458 73.128 43.4638 73.3119C43.4817 73.4689 43.4503 73.6124 43.4503 73.7604C43.4503 73.7963 43.4817 73.8367 43.4772 73.8726C43.4683 73.9354 43.4997 74.0116 43.4144 74.0475C43.3202 74.0879 43.2933 74.1327 43.4503 74.2359C43.54 74.2942 43.5131 74.3435 43.4862 74.3794C43.4503 74.4288 43.3651 74.4601 43.2844 74.4915C43.1857 74.5319 43.087 74.5678 43.1991 74.671C43.2574 74.7293 43.2036 74.7652 43.1453 74.7921C42.8852 74.9132 42.8493 75.1016 42.8582 75.2989C42.8672 75.5681 42.9076 75.8506 42.921 76.1198C42.9255 76.2274 42.9031 76.3261 42.8896 76.4248C42.8448 76.7387 42.7057 77.0258 42.5622 77.3129C42.5353 77.3712 42.4994 77.425 42.5218 77.4923C42.5712 77.6538 42.5129 77.7794 42.4142 77.9005C42.2931 78.044 42.32 78.2234 42.3514 78.4073C42.3604 78.4522 42.3918 78.5015 42.3648 78.5329C42.1899 78.7662 42.2931 79.0757 42.1809 79.3224C42.0912 79.5242 41.9298 79.7036 41.7817 79.8875C41.6696 80.0311 41.5305 80.1656 41.405 80.3047C41.396 80.3136 41.4094 80.3316 41.4005 80.3406C41.3197 80.4168 41.0551 80.372 40.6783 80.2194C40.3464 80.0849 40.1625 79.9638 40.1939 79.883C40.2253 79.7933 40.2836 79.7126 40.3285 79.6229C40.315 79.6453 40.2971 79.6363 40.2791 79.6319Z" fill="black"/>
</svg>
