<svg width="130" height="92" viewBox="0 0 130 92" fill="none" xmlns="http://www.w3.org/2000/svg">
<path d="M81.7834 17.3746L80.1108 14.9007C80.044 14.7998 79.9327 14.737 79.8215 14.7373L74.8634 14.6136C74.8154 14.613 74.7678 14.6238 74.7249 14.6438C66.1658 18.6943 57.4753 22.9784 48.6647 27.5081C37.7073 33.1441 27.1667 38.8495 17.0352 44.5876C12.9051 46.9248 11.3124 52.1989 13.281 57.0149C15.0491 61.3389 17.1389 65.9431 19.6215 70.7371C21.3039 73.9873 23.0166 77.0453 24.7246 79.9046C27.6838 84.8549 33.6979 86.8507 38.3213 84.3978C58.0973 73.9011 77.8734 63.4044 97.656 52.9103C97.8016 52.8309 97.8561 52.6446 97.7827 52.478L81.8206 17.4376C81.8065 17.4097 81.7971 17.3912 81.7834 17.3746Z" fill="white"/>
<path d="M73.2557 16.1791C70.7406 17.3004 68.2204 18.4642 65.7121 19.5362C63.47 20.4957 61.2726 21.4285 59.1122 22.6545C58.5573 22.9708 57.9179 23.246 57.3165 23.5437C56.2293 24.0852 55.1378 24.6288 54.0506 25.1703C53.5587 25.4227 53.0763 25.7569 52.5998 25.9562C51.4302 26.4499 50.279 26.9695 49.1419 27.5171C48.0095 28.074 46.9053 28.6867 45.8157 29.3386C43.966 30.0689 42.3107 31.0997 40.5857 32.0766C38.8631 33.0583 37.0549 33.9648 35.4027 35.0228C34.9619 35.3031 34.4455 35.6015 33.9698 35.8233C31.0672 37.1943 28.288 38.7779 25.4917 40.3695C23.9911 41.2246 22.4854 42.059 20.9679 42.8702L18.6846 44.0731C17.9235 44.474 17.1373 44.8464 16.436 45.2713C14.9458 46.2307 13.7399 47.805 13.1751 49.6208C12.459 51.7659 12.5792 54.2454 13.4289 56.471C14.7512 59.7468 16.2658 62.9732 17.9076 66.1057C20.1203 70.2944 22.4839 74.4357 24.9838 78.4905L25.4616 79.2681C25.6218 79.5326 25.7733 79.738 25.9283 79.9819C26.0725 80.2251 26.2567 80.4324 26.4262 80.6524L26.6848 80.986L26.9707 81.2896C27.7248 82.1109 28.6077 82.8203 29.5693 83.3608C31.4968 84.4397 33.726 84.8374 35.7758 84.4507C36.2936 84.3645 36.7846 84.2044 37.2729 84.0285L37.9827 83.7147L38.7228 83.335L41.6937 81.8058C44.6641 80.2652 47.6196 78.6741 50.5641 77.0824C53.3026 75.5752 56.0324 74.0721 58.7709 72.565L83.1817 59.3004C85.1319 58.2242 87.0758 57.1566 89.0259 56.0804C90 55.5456 90.9855 55.0227 91.969 54.5066L96.3206 52.2414C96.3292 52.2374 96.3487 52.234 96.3416 52.2201L96.3388 52.2041L96.3341 52.1948L96.2745 52.0559L95.4716 50.2685L93.8595 46.7024L85.7523 28.9051C84.2237 25.5357 82.7171 22.1676 81.0713 18.8702C80.8428 18.4076 80.7133 18.0885 80.6918 17.9203C81.058 17.7438 81.2165 17.6698 81.4112 17.5733C80.2798 18.0377 81.0957 17.7032 80.8444 17.8031L80.8732 17.8184C80.8912 17.833 80.9135 17.8456 80.9381 17.8629C81.5805 18.3165 82.1812 18.6458 83.1313 20.1691C83.7798 21.2006 84.354 22.1689 84.9196 23.5495C85.739 25.5477 86.8549 27.5456 87.5142 29.5725C87.6054 29.8577 87.7987 30.2505 87.9586 30.5669C90.848 36.2512 93.3716 42.1232 95.9981 47.9474L97.2256 50.6061L97.893 52.0312C97.9617 52.1775 98.026 52.3257 98.0705 52.466C98.1149 52.6062 98.1613 52.7398 98.1254 52.8888C98.0981 53.0338 98.0152 53.1529 97.909 53.2255C97.8074 53.3074 97.6949 53.3886 97.5667 53.4598L97.1414 53.687L93.8817 55.4199C92.2995 56.2498 90.7009 57.0471 89.1371 57.9029C87.9577 58.5449 86.8475 59.2294 85.6439 59.5723C85.3937 59.643 84.7745 59.9892 84.5846 60.1583C83.8612 60.8119 82.8639 61.3115 81.8781 61.823L73.8959 65.9884C71.9335 67.0301 69.9877 68.1043 68.0641 69.1911C65.0777 70.8886 62.1041 72.5801 59.1201 74.2823C56.6154 75.6862 54.07 77.0515 51.5473 78.4407C50.9619 78.7597 50.4063 79.1166 49.8228 79.429C48.7459 80.0117 47.641 80.665 46.5837 81.1293C45.4106 81.6477 44.5205 82.0973 43.5844 82.8329C43.0569 83.2456 42.1245 83.7265 41.3563 84.1134C40.8663 84.3592 40.3692 84.5911 39.8697 84.8182C39.3636 85.0428 38.8989 85.2652 38.3226 85.4765C36.9872 85.9671 35.6804 86.1683 34.1429 86.3219C33.9347 86.35 33.7038 86.3542 33.4612 86.3351C33.2185 86.316 32.963 86.303 32.7043 86.2626C32.1885 86.164 31.6631 86.0467 31.2032 85.8702C30.1875 85.516 29.1956 85.0414 28.2857 84.4251C27.3781 83.8135 26.5151 83.112 25.7801 82.2761C25.5854 82.0794 25.4117 81.8615 25.2422 81.6415C25.0771 81.4196 24.8843 81.2162 24.7382 80.9796L24.2765 80.2865C24.1219 80.0539 24.0005 79.8346 23.8615 79.6119L22.2531 76.9122C19.3665 72.0086 16.6914 66.9892 14.301 61.8311C13.832 60.8195 13.38 59.7998 12.9367 58.7762L12.2865 57.228L11.9668 56.3652C11.8733 56.0753 11.7969 55.7775 11.7142 55.4883C11.4927 54.5682 11.3491 53.6347 11.3518 52.7078C11.3327 51.7795 11.4403 50.8611 11.6475 49.9825C11.8391 49.094 12.1834 48.2665 12.5792 47.4782C12.9949 46.6978 13.5091 45.9866 14.0999 45.3431C14.7091 44.7255 15.3633 44.1444 16.1169 43.7182C16.4957 43.4725 16.8191 43.316 17.1649 43.1202L18.1924 42.5548L22.3093 40.307C23.3905 39.7223 24.4935 39.1389 25.5275 38.5129C27.924 37.0733 30.3799 35.7612 32.8748 34.5056C35.8788 32.9896 38.7866 31.3461 41.7034 29.7098C42.3803 29.3309 43.0582 28.9227 43.7473 28.5783C46.1597 27.39 48.5307 26.1405 50.9318 24.9402C53.3215 23.728 55.7042 22.5018 58.1241 21.3387C62.032 19.4529 65.9757 17.6482 69.91 15.8249L72.1644 14.7849L73.2918 14.2706L73.8555 14.0135L73.997 13.9475C74.0465 13.9302 74.136 13.8769 74.2093 13.8543C74.2935 13.8322 74.38 13.8149 74.4622 13.7995L74.525 13.7875C74.5355 13.7769 74.5516 13.7981 74.5503 13.7642L74.5807 13.7615L74.7114 13.7581L77.3955 13.9034L78.7016 13.9728L79.468 14.0121C79.6404 14.0179 79.809 14.037 79.9613 14.0868C80.1201 14.1392 80.2744 14.2455 80.3835 14.367C80.4563 14.4481 80.5314 14.5338 80.5984 14.6348L80.8285 14.9645C80.8747 15.0349 80.9253 15.1033 80.9715 15.1738C82.1008 16.9469 82.2403 17.6523 81.3316 17.0699C81.0792 16.9059 80.8076 16.6934 80.5253 16.4283C80.383 16.2934 80.2403 16.1472 80.0905 15.9871C79.943 15.8316 79.7627 15.611 79.7045 15.5692C79.6529 15.53 79.618 15.4715 79.5583 15.4476C79.4962 15.4191 79.4253 15.4464 79.3621 15.4471L79.2642 15.4525C79.1901 15.4526 79.116 15.4527 79.0376 15.4547C78.8828 15.4522 78.7213 15.447 78.5555 15.4438L74.9388 15.3079C74.8994 15.3033 74.8538 15.3073 74.8195 15.3233L74.6567 15.3992L74.1791 15.6277L73.2196 16.0867L73.2557 16.1791Z" fill="#8ED8C8"/>
<path d="M13.005 58.0524C11.1081 53.3933 12.6427 48.291 16.6222 46.0299L24.5352 42.0059L25.7011 46.4463L27.4964 54.1019L32.2871 64.2885L37.9694 73.0209L44.1018 81.1169L37.1328 84.5431C32.678 86.9161 26.8831 84.9854 24.0317 80.1964C22.386 77.4303 20.7357 74.4719 19.1146 71.3276C16.7224 66.6898 14.7087 62.2355 13.005 58.0524Z" fill="#8ED8C8"/>
<path d="M42.2677 79.351C41.9876 78.8831 41.6775 78.4351 41.4397 77.9416C41.2199 77.505 41.0206 77.0696 40.6231 76.7784C40.5206 76.7016 40.4555 76.5796 40.3768 76.4804C40.2322 76.2979 40.0894 76.1091 39.9327 75.9324C39.8628 75.851 39.7326 75.8094 39.6931 75.7189C39.4928 75.2511 39.2268 74.8421 38.8287 74.5293C38.7384 74.1128 38.4186 73.8884 38.1503 73.6065C37.886 73.3226 37.6937 72.9824 37.3674 72.7446C37.2816 72.6817 37.2033 72.5934 37.1656 72.4965C36.9347 71.8956 36.5438 71.4152 36.1746 70.9079C35.7696 70.3685 35.4589 69.7676 35.2451 69.1202C35.1344 68.7737 34.9427 68.455 34.7554 68.1452L34.0535 67.053C33.7202 66.5176 33.3873 65.9929 32.9837 65.4967C32.4522 64.8318 31.9424 64.1402 31.4949 63.4132C31.265 63.0472 31.1173 62.6253 30.9578 62.2201C30.6611 61.4044 30.3582 60.5863 30.0615 59.7706C29.8262 59.1608 29.5668 58.5627 29.3033 57.9664C29.0492 57.4095 28.7749 56.8622 28.537 56.2976C27.8339 54.6257 27.2016 52.9254 26.6239 51.2045C26.4886 50.7877 26.3291 50.3824 26.1857 49.9695C26.1181 49.7611 26.0647 49.5513 26.0153 49.3396C25.8341 48.5562 25.6834 47.7636 25.5165 46.9788C25.2821 45.8541 25.0557 44.7256 24.8682 43.5949C24.771 42.9518 24.6943 42.3099 24.483 41.6777C24.4203 41.4998 24.5146 41.4381 24.7432 41.4874C25.1366 41.578 25.5456 41.6393 25.8139 41.9212C25.9976 42.1123 26.1382 42.2967 26.1233 42.5501C26.104 42.9261 26.3401 43.2946 26.1758 43.6799C26.153 43.7346 26.1776 43.8049 26.2019 43.8644C26.6448 44.9165 26.733 46.0073 26.9438 47.094C27.0178 47.4471 27.1388 47.7942 27.2352 48.1421C27.2932 48.3715 27.3572 48.5926 27.4113 48.824C27.4887 49.1536 27.5317 49.4942 27.6418 49.8191C27.7228 50.0649 27.8585 50.29 27.703 50.5615C27.6721 50.6201 27.7188 50.7455 27.7813 50.7813C28.0285 50.9091 28.0614 51.1177 28.1189 51.3256C28.2705 51.8769 28.3877 52.4392 28.576 52.9839C28.7088 53.3855 28.8662 53.7863 29.0496 54.1691C29.3398 54.769 29.656 55.3509 29.9561 55.9405C30.2042 56.4346 30.4017 56.9475 30.6458 57.4436C30.7025 57.5587 30.7874 57.6604 30.84 57.7775C30.9344 57.9895 31.0716 58.1974 31.0846 58.4265C31.1046 58.6797 31.1632 58.8596 31.421 58.9987C31.5646 59.0777 31.6316 59.2646 31.6793 59.4223C31.7386 59.6238 31.7553 59.8402 31.7761 60.0546C31.8022 60.3103 31.8178 60.5546 32.0546 60.7422C32.1783 60.8416 32.2211 61.0401 32.2425 61.205C32.3323 61.9446 32.6809 62.5822 33.0413 63.2031C33.5534 64.0414 34.1038 64.856 34.6497 65.6617C34.8579 65.9834 35.0579 66.309 35.258 66.6346C35.8797 67.6448 36.4511 68.6846 37.0328 69.725C37.1473 69.9273 37.26 70.136 37.4186 70.3064C37.7783 70.7032 38.0618 71.1476 38.3033 71.6284C38.6028 72.1965 39.0284 72.6767 39.4618 73.1422C39.5654 73.2514 39.6847 73.3419 39.7582 73.4709C40.2738 74.3568 41.0372 75.0474 41.6366 75.8603C42.1249 76.5185 42.5615 77.2234 43.0322 77.9064C43.3918 78.4347 43.7414 78.9732 44.1073 79.504C44.1287 79.5375 44.1744 79.5594 44.1959 79.5929C44.3975 79.9013 44.2892 80.1776 43.8849 80.3385C43.5312 80.4806 43.2152 80.446 42.9969 80.1948C42.7553 79.9165 42.5376 79.6157 42.3099 79.3253L42.2677 79.351Z" fill="#8ED8C8"/>
<path d="M33.2549 39.3966C33.228 39.9192 33.2238 40.4474 33.1723 40.9708C33.1232 41.4382 33.0718 41.9012 33.279 42.3613C33.3318 42.4786 33.3237 42.614 33.3461 42.7403C33.3839 42.9689 33.428 43.2 33.4802 43.4272C33.5059 43.53 33.6015 43.6323 33.5942 43.729C33.552 44.2205 33.6243 44.7012 33.86 45.1586C33.7616 45.5564 33.9775 45.9027 34.1159 46.2641C34.2502 46.6275 34.3052 47.0123 34.5332 47.3528C34.5935 47.4446 34.6357 47.5505 34.6369 47.654C34.642 48.2819 34.8693 48.864 35.0741 49.4512C35.2987 50.0784 35.4521 50.7232 35.5018 51.401C35.5334 51.7586 35.6571 52.1105 35.7765 52.4536C35.9103 52.8666 36.1172 53.2555 36.2794 53.6549C36.5089 54.2414 36.7869 54.8047 37.1358 55.3395C37.5848 56.0568 38.0602 56.767 38.4706 57.4972C38.6952 57.8613 38.829 58.2742 38.9849 58.6711C39.303 59.4674 39.6169 60.2656 39.9857 61.0431C40.2725 61.6242 40.5854 62.1872 40.9346 62.7329C41.248 63.2464 41.6199 63.7265 41.9594 64.222C42.9632 65.6992 44.019 67.1296 45.1366 68.5031C45.4072 68.8287 45.69 69.1486 45.9746 69.462C46.1129 69.6207 46.2453 69.7877 46.3696 69.9585C46.8404 70.5886 47.3135 71.2231 47.8164 71.827C48.5387 72.6932 49.2949 73.5268 50.061 74.3502C50.4961 74.8165 50.9233 75.2975 51.4553 75.6463C51.604 75.7452 51.5769 75.8623 51.3897 75.9791C51.0594 76.1807 50.7383 76.4109 50.3633 76.3598C50.112 76.3264 49.8949 76.2712 49.7462 76.0408C49.5328 75.7097 49.1317 75.545 49.0299 75.1059C49.0136 75.0424 48.9546 74.9938 48.9023 74.9586C47.9531 74.3213 47.2857 73.374 46.5811 72.4829C46.3485 72.1939 46.0798 71.9331 45.8414 71.6523C45.6859 71.469 45.5305 71.2856 45.385 71.0921C45.1751 70.8086 44.9874 70.5092 44.7577 70.2462C44.5854 70.049 44.3792 69.8844 44.4081 69.5582C44.4142 69.4895 44.3227 69.3852 44.2508 69.3812C43.9792 69.3574 43.8667 69.17 43.7421 68.9884L42.7629 67.5104C42.5198 67.1497 42.2427 66.8107 41.9654 66.4718C41.5368 65.9476 41.0678 65.4427 40.6631 64.8961C40.3146 64.4432 40.0144 63.9563 39.6979 63.4771C39.6227 63.3651 39.5235 63.2755 39.4523 63.1615C39.3207 62.9558 39.1525 62.7566 39.1102 62.5192C39.0611 62.2577 38.9816 62.0764 38.7071 61.9554C38.5531 61.8865 38.4652 61.6982 38.3967 61.5391C38.3125 61.3382 38.2787 61.1077 38.2452 60.888C38.2042 60.6226 38.176 60.373 37.928 60.1845C37.7977 60.0823 37.7402 59.8851 37.7143 59.7111C37.6025 58.9478 37.2539 58.2922 36.901 57.6277L36.168 56.2842L35.4651 54.9209C35.2878 54.5616 35.1469 54.185 34.996 53.8186C34.5212 52.6642 34.1868 51.4701 33.8872 50.2759C33.8266 50.0417 33.7781 49.8018 33.6727 49.5781C33.4353 49.0667 33.2978 48.5349 33.2315 47.9856C33.1373 47.329 32.9087 46.7038 32.6819 46.0722C32.6303 45.927 32.5477 45.78 32.5287 45.6301C32.4141 44.5777 32.0218 43.5703 31.8929 42.5192C31.7846 41.6721 31.7706 40.8237 31.7588 39.9798C31.7468 39.3278 31.776 38.6781 31.8032 38.0347C31.8059 37.9896 31.784 37.9452 31.7849 37.9065C31.8124 37.537 32.0715 37.4242 32.4994 37.5925C32.8796 37.7453 33.1145 37.9783 33.1348 38.303C33.1602 38.6581 33.1694 39.0209 33.1845 39.3755L33.2549 39.3966Z" fill="#8ED8C8"/>
<path d="M46.8543 65.2782C47.3772 65.1286 47.8902 64.9479 48.432 64.8368C48.914 64.7365 49.3877 64.6522 49.7486 64.2946C49.8394 64.2035 49.9764 64.1734 50.0925 64.1118C50.2984 64.0012 50.511 63.8932 50.7122 63.773C50.804 63.717 50.8646 63.5868 50.9642 63.5688C51.4709 63.4745 51.9214 63.2882 52.2797 62.914C52.7159 62.919 52.9828 62.6125 53.2919 62.381C53.6054 62.1473 53.9749 62.0058 54.237 61.6897C54.3102 61.6069 54.4016 61.5393 54.5056 61.5192C55.1379 61.3825 55.6596 61.0431 56.1928 60.7159C56.7675 60.3629 57.3852 60.1083 58.064 59.9672C58.4245 59.8954 58.7553 59.719 59.0728 59.5488C59.4562 59.3471 59.8159 59.0972 60.1922 58.881C60.7392 58.571 61.2678 58.2343 61.756 57.8157C62.4048 57.2605 63.0813 56.7397 63.7788 56.2505C64.1341 56.0027 64.5527 55.8614 64.9459 55.6907C65.7434 55.3498 66.5575 55.0427 67.3456 54.6825C67.9382 54.4102 68.5052 54.0966 69.0695 53.7665C69.5966 53.4601 70.0913 53.1098 70.616 52.7986C72.164 51.8777 73.7191 50.9712 75.2695 50.055C75.6434 49.834 75.9987 49.5863 76.3703 49.3605C76.5538 49.2486 76.7465 49.1443 76.9396 49.0517C77.6635 48.7045 78.3945 48.3717 79.1093 48.017C80.1353 47.5011 81.1495 46.9611 82.1778 46.4501C82.761 46.1585 83.356 45.8909 83.8618 45.4639C84.0029 45.3427 84.112 45.4213 84.1709 45.6845C84.2732 46.1353 84.4045 46.5899 84.2532 46.966C84.1518 47.2229 84.0402 47.437 83.7773 47.4977C83.3928 47.5869 83.1344 47.9548 82.6786 47.8878C82.6138 47.8772 82.5507 47.9254 82.5075 47.9699C81.6519 48.7551 80.5795 49.1326 79.5636 49.6139C79.2302 49.7738 78.9271 49.9846 78.6055 50.1686C78.3976 50.2861 78.1874 50.3989 77.9724 50.502C77.6609 50.6514 77.3308 50.774 77.0335 50.9523C76.8084 51.09 76.6249 51.2792 76.2919 51.1533C76.2244 51.1262 76.1043 51.2016 76.0932 51.2784C76.0421 51.5825 75.8396 51.6558 75.6421 51.7505C75.1156 52.0031 74.5772 52.2315 74.0646 52.5012C73.6812 52.7029 73.3188 52.9362 72.9635 53.184C72.4121 53.5734 71.8908 54.002 71.3347 54.3817C70.8724 54.6987 70.382 54.9695 69.9059 55.2693C69.7945 55.3406 69.7041 55.4435 69.5948 55.5078C69.3892 55.6302 69.1939 55.7953 68.9566 55.8198C68.6949 55.8501 68.5123 55.9198 68.4099 56.2189C68.3503 56.3843 68.1636 56.4679 68.0074 56.525C67.8048 56.5983 67.5786 56.6235 67.3568 56.6466C67.0884 56.6742 66.8309 56.6906 66.6697 56.9583C66.5827 57.1012 66.3795 57.1511 66.2043 57.1696C65.442 57.2734 64.7984 57.6297 64.1829 58.032C63.3447 58.5769 62.5298 59.1581 61.6983 59.7057C61.3709 59.9222 61.0294 60.1098 60.6902 60.3022C59.638 60.908 58.5293 61.41 57.4159 61.9024C57.1985 62.0007 56.972 62.0915 56.7851 62.2406C56.3549 62.5898 55.8632 62.8137 55.3457 62.9964C54.7271 63.2158 54.1909 63.592 53.6594 63.9778C53.5352 64.0671 53.4252 64.1853 53.2821 64.2361C52.2986 64.6067 51.4796 65.2791 50.5336 65.715C49.7699 66.0694 48.9659 66.342 48.169 66.629C47.5526 66.8532 46.9289 67.0512 46.3054 67.261C46.2636 67.2751 46.2336 67.3133 46.1917 67.3274C45.8322 67.4344 45.5809 67.2098 45.5123 66.6953C45.4478 66.2443 45.5492 65.9101 45.8519 65.7649C46.1854 65.605 46.5263 65.4712 46.8645 65.3209C46.8732 65.3167 46.8638 65.2974 46.8543 65.2782Z" fill="#8ED8C8"/>
<path d="M73.4446 31.0374C72.913 31.1912 72.3935 31.3809 71.8429 31.4962C71.3565 31.5986 70.8697 31.6893 70.5067 32.0538C70.4115 32.1471 70.2745 32.1771 70.1584 32.2387C69.9482 32.3515 69.7311 32.4615 69.5256 32.5839C69.4338 32.6398 69.3688 32.7722 69.2648 32.7923C68.7493 32.8908 68.2899 33.0814 67.9228 33.4598C67.4822 33.4569 67.2067 33.7676 66.8888 34.0034C66.5709 34.2391 66.1926 34.3849 65.9261 34.7031C65.8529 34.7859 65.757 34.8556 65.6486 34.8779C65.0076 35.0187 64.4728 35.3645 63.9264 35.698C63.3429 36.0552 62.7144 36.321 62.02 36.4636C61.6507 36.5396 61.3156 36.7182 60.9893 36.8926C60.5971 37.0985 60.2329 37.3505 59.8479 37.5709C59.2876 37.8873 58.7528 38.233 58.2558 38.6559C57.5894 39.2195 56.902 39.7515 56.1934 40.2401C55.8337 40.49 55.4087 40.6403 55.0043 40.8105C54.1936 41.1577 53.3643 41.4781 52.5631 41.8446C51.9616 42.1211 51.3838 42.4459 50.8084 42.7754C50.2725 43.086 49.767 43.4475 49.2335 43.7629C47.6548 44.6986 46.0713 45.6247 44.4926 46.5605C44.1143 46.7836 43.7502 47.0356 43.3698 47.2656C43.1819 47.3796 42.9892 47.4839 42.7873 47.5807C42.0502 47.9343 41.306 48.2734 40.576 48.6414C39.5324 49.1657 38.4963 49.7162 37.4528 50.2406C36.8608 50.5364 36.2549 50.8151 35.738 51.2415C35.5926 51.3649 35.4835 51.2863 35.4245 51.023C35.3222 50.5722 35.1909 50.1176 35.3487 49.7325C35.4545 49.4735 35.5705 49.2572 35.8378 49.1944C36.2267 49.1031 36.4914 48.7262 36.956 48.789C37.0209 48.7995 37.084 48.7514 37.1316 48.7048C38.0024 47.9063 39.0947 47.5252 40.1301 47.0285C40.468 46.8665 40.7798 46.6515 41.1058 46.4653C41.3181 46.3457 41.5327 46.2308 41.7521 46.1256C42.07 45.9671 42.4025 45.8493 42.7086 45.6668C42.9381 45.527 43.126 45.3357 43.4633 45.4595C43.5353 45.4845 43.651 45.4111 43.6665 45.3323C43.7176 45.0281 43.9289 44.9506 44.1263 44.8559C44.6616 44.5991 45.2064 44.3616 45.7322 44.0856C46.12 43.8818 46.4912 43.6442 46.8553 43.3922C47.4155 42.9986 47.95 42.5637 48.5169 42.1728C48.988 41.8516 49.4891 41.5696 49.9721 41.2725C50.0834 41.2012 50.1782 41.0963 50.2919 41.0298C50.5018 40.9054 50.7016 40.7381 50.9433 40.7114C51.2094 40.679 51.3963 40.6072 51.5031 40.3061C51.5628 40.1406 51.7538 40.0549 51.9145 39.9957C52.1214 39.9203 52.352 39.893 52.5781 39.8678C52.8509 39.8381 53.1129 39.8196 53.2785 39.5497C53.3699 39.4047 53.5731 39.3549 53.7503 39.3294C54.5258 39.2192 55.1781 38.8587 55.8068 38.4501C56.6582 37.8989 57.4908 37.3092 58.3418 36.7463C58.6736 36.5276 59.0239 36.3358 59.3718 36.1392C60.446 35.5228 61.5723 35.0123 62.7053 34.5046C62.9271 34.4041 63.1579 34.3113 63.3449 34.1621C63.7839 33.8087 64.2844 33.5805 64.8106 33.3936C65.4425 33.1679 65.9851 32.7827 66.5253 32.3926C66.6495 32.3033 66.7639 32.183 66.907 32.1322C67.9081 31.7532 68.7446 31.0723 69.7058 30.6232C70.4828 30.2624 71.3043 29.9814 72.112 29.6832C72.7371 29.4548 73.3741 29.2504 74.004 29.0316C74.0458 29.0175 74.0758 28.9793 74.1177 28.9652C74.4859 28.854 74.7373 29.0785 74.8035 29.5883C74.8636 30.0414 74.7579 30.3777 74.4551 30.5229C74.1196 30.6898 73.7699 30.8278 73.425 30.9754C73.4233 30.994 73.4328 31.0133 73.4446 31.0374Z" fill="#8ED8C8"/>
<path d="M105.833 17.3068C110.062 17.9128 112.731 22.736 110.912 26.493L99.0938 50.9127C99.0279 51.0505 98.8713 51.1122 98.7193 51.059L85.7261 46.48C85.5437 46.4184 85.4399 46.2131 85.4915 46.0368L89.4392 32.8466C89.497 32.6618 89.3759 32.4532 89.1851 32.3955L75.7089 28.5322C75.5073 28.4739 75.3896 28.2412 75.4666 28.0531L80.5241 14.0975C80.5666 13.965 105.833 17.3068 105.833 17.3068Z" fill="white"/>
<path d="M110.889 19.9433C111.348 20.6955 111.648 21.5332 111.81 22.367C111.908 22.7848 111.917 23.204 111.943 23.6154C111.916 24.0235 111.91 24.433 111.809 24.8189C111.683 25.5156 111.387 26.1334 111.092 26.7224C110.787 27.2821 110.511 27.8679 110.284 28.4987C110.168 28.8239 109.979 29.138 109.828 29.4567L109.002 31.2075C108.877 31.4746 108.816 31.7965 108.677 32.0251C107.974 33.1653 107.361 34.3486 106.91 35.637C106.289 36.4853 105.962 37.4844 105.558 38.4633C105.153 39.4422 104.653 40.3865 104.329 41.4013C104.24 41.6684 104.119 41.9623 103.973 42.1993C103.098 43.6458 102.411 45.2079 101.705 46.7732C101.39 47.4674 101.058 48.1583 100.715 48.8374L100.186 49.8464L99.5857 50.9331C99.4827 51.0996 99.3919 51.2491 99.2545 51.3582C99.1022 51.4686 98.8935 51.4471 98.7214 51.3746C98.4392 51.28 98.0989 51.122 97.8727 51.0352C97.6311 50.9387 97.3853 50.844 97.146 50.752C96.6549 50.5739 96.1595 50.3976 95.6684 50.2195C94.5018 49.8077 93.3219 49.4416 92.1515 49.0429C90.4513 48.4614 88.7587 47.9159 87.0477 47.4467L86.5755 47.3162C86.3478 47.2471 86.1225 47.1825 85.8948 47.1133C85.7147 47.0559 85.5487 46.9749 85.4043 46.8953C85.2621 46.8202 85.1267 46.6968 85.0433 46.5323C84.9511 46.3606 84.9452 46.2052 84.9435 46.0478C84.9414 45.8794 84.9647 45.6992 85.0155 45.5117L85.1571 44.9488L85.2456 44.5688L85.4193 43.8328C85.6566 42.8527 85.8981 41.8706 86.1331 40.8859C86.4216 39.7294 86.8245 38.5931 87.191 37.4569L88.3118 34.0494L88.45 33.6237L88.5021 33.4696L88.5333 33.3873L88.5975 33.2162C88.6169 33.162 88.6508 33.0954 88.6226 33.0294C88.5986 32.9615 88.5314 32.942 88.475 32.923L88.2926 32.861L88.0537 32.7801L87.6115 32.647C85.8442 32.108 84.0613 31.6101 82.2854 31.126L77.2999 29.825L75.7405 29.3982C75.4978 29.3304 75.2984 29.2142 75.1354 29.098C74.9793 28.9955 74.8226 28.8199 74.731 28.6084C74.6348 28.3877 74.6328 28.2192 74.6355 28.0089C74.6383 27.7987 74.7066 27.5636 74.7922 27.3317L75.4327 25.4524L76.5342 22.2121L78.7305 15.7289L79.4063 13.7033C79.4411 13.5459 79.5306 13.476 79.6062 13.3787L79.84 13.1005L79.8523 13.0835L79.8565 13.0816C79.7632 12.9386 79.9794 13.2729 79.9609 13.2363L79.9651 13.2344L79.9735 13.2304L80.0091 13.2082L80.0803 13.1638L80.225 13.0796C80.308 13.0071 80.4469 12.9933 80.5833 12.975C80.7156 12.9586 80.8451 12.9266 80.9821 12.9194L81.4037 12.9605L81.8576 13.0035C82.4642 13.0602 83.0651 13.1364 83.6618 13.2147L90.333 14.1438L99.8855 15.427C101.693 15.676 103.493 15.9512 105.292 16.0579C105.796 16.0885 105.958 16.2224 105.762 16.432C105.422 16.799 105.152 17.1902 104.28 17.3191C103.69 17.4073 103.139 17.4603 102.413 17.3011C101.36 17.0735 100.241 17.1142 99.2124 16.7285C99.0645 16.673 98.8539 16.658 98.6778 16.6496C95.5648 16.5163 92.4485 15.9554 89.3302 15.514C88.311 15.3725 87.2916 15.2819 86.269 15.1646L84.2833 14.9136C83.3225 14.7845 82.3603 14.6221 81.4054 14.5354C81.2765 14.5276 81.1476 14.5198 81.0229 14.51C80.9182 14.5192 80.748 14.4402 80.7413 14.6015C80.6549 14.8111 80.5519 14.9777 80.3166 15.2735C80.2241 15.3787 80.1071 15.7437 80.1149 15.8926C80.1475 16.4704 79.926 17.0196 79.7176 17.574C79.1571 19.0773 78.577 20.5727 78.0385 22.0884C77.637 23.207 77.2664 24.3452 76.9149 25.4801L76.3415 27.3791C76.2987 27.5515 76.2597 27.7108 76.2353 27.8578C76.234 27.9374 76.3079 28.0217 76.3919 28.0334L76.6379 28.0771C76.7388 28.081 77.3684 28.2343 77.8444 28.3517C79.3783 28.7282 80.9078 29.1576 82.4448 29.5608C82.7999 29.6554 83.1557 29.7102 83.5108 29.8048C84.1627 29.9816 84.8497 30.1251 85.4466 30.3783C86.1088 30.6577 86.6317 30.8267 87.2914 30.8135C87.4778 30.8115 87.7065 30.852 87.951 30.9133C88.07 30.9427 88.1936 30.9812 88.315 31.0151C88.5016 31.0751 88.6901 31.1286 88.8636 31.1834C89.1328 31.2728 89.4268 31.3394 89.6505 31.4725C89.8788 31.6148 90.0207 31.7409 90.161 31.9354C90.3035 32.1345 90.3949 32.397 90.4025 32.5968C90.4189 32.8038 90.3959 33.0461 90.3108 33.289C90.2035 33.5704 90.1005 33.8499 89.9951 34.1249C89.9281 34.2803 89.8676 34.4383 89.8094 34.6009C89.6973 34.9242 89.6095 35.2644 89.5747 35.6477C89.5346 36.0617 89.3334 36.5789 89.1517 36.9909C88.3572 38.8233 87.7967 40.7784 87.2818 42.7518L86.6909 45.0373L86.6181 45.3253L86.5806 45.467C86.5693 45.5062 86.5734 45.5042 86.5701 45.5284L86.5403 45.706C86.5294 45.7563 86.5212 45.8222 86.5827 45.8614C86.6395 45.8914 86.7016 45.8908 86.7558 45.9051L86.8767 45.9279L87.304 46.0624L88.176 46.3345L89.9179 46.8853C90.9723 47.2194 92.0279 47.5868 93.0854 47.9477C94.2101 48.3281 95.3309 48.7217 96.4523 49.1263L98.13 49.7352L98.3409 49.8121L98.3628 49.8245L98.4108 49.8474C98.4481 49.8696 98.4725 49.8356 98.4843 49.8075L99.761 47.2934C100.056 46.7154 100.362 46.127 100.601 45.5301C101.157 44.1418 101.817 42.824 102.52 41.531C103.368 39.9676 104.063 38.3285 104.755 36.6848C104.917 36.3047 105.056 35.9012 105.244 35.5427C106.583 33.0389 107.633 30.3759 108.903 27.8369L109.683 26.3048L109.881 25.9248L110.025 25.6035C110.139 25.3977 110.193 25.164 110.266 24.938C110.533 24.0284 110.492 22.9915 110.178 22.0023C109.7 20.4738 108.544 19.0747 107.04 18.3789C106.942 18.3398 106.828 18.3195 106.73 18.2804C106.516 18.1766 106.332 18.11 106.187 18.0415C106.041 17.9684 105.937 17.8868 105.87 17.8052C105.739 17.64 105.773 17.4604 106.037 17.2926C106.267 17.1515 106.584 17.0267 106.963 17.0651C107.152 17.0788 107.365 17.0984 107.582 17.1669C107.797 17.2419 108.03 17.3424 108.268 17.4632C109.313 18.0559 110.194 18.9509 110.832 19.9642L110.889 19.9433Z" fill="#8ED8C8"/>
<path d="M111.361 26.0506C113.204 22.3114 110.592 17.5481 106.382 16.9822L99.053 15.9956C98.8965 15.9745 98.7517 16.0704 98.7196 16.2247C98.4987 17.2194 98.0096 20.5284 100.704 25.9042C102.611 29.7073 105.409 32.117 107.265 33.5107C107.431 33.6332 107.647 33.5871 107.732 33.4135L111.361 26.0506Z" fill="#8ED8C8"/>
</svg>
