<svg width="118" height="91" viewBox="0 0 118 91" fill="none" xmlns="http://www.w3.org/2000/svg">
<path d="M77.8755 17.1157L76.3114 14.7886C76.2491 14.6937 76.1402 14.6376 76.0285 14.6429L71.0538 14.7427C71.0056 14.7443 70.9573 14.7568 70.9133 14.7782C62.1254 19.0894 53.1945 23.6331 44.1315 28.4205C32.8601 34.377 22.0041 40.3824 11.5575 46.4014C7.29906 48.8531 5.45157 54.043 7.20295 58.6303C8.77602 62.7489 10.6592 67.1253 12.9279 71.6685C14.4653 74.7486 16.0422 77.6409 17.6237 80.3406C20.3639 85.0142 26.3114 86.6847 31.0708 84.0988C51.4289 73.0332 71.7869 61.9676 92.1515 50.9043C92.3015 50.8207 92.365 50.6375 92.299 50.479L77.9098 17.1753C77.897 17.1488 77.8884 17.1312 77.8755 17.1157Z" fill="white"/>
<path d="M69.456 16.3073C66.8726 17.5113 64.2821 18.7568 61.7081 19.9127C59.407 20.9471 57.1524 21.9536 54.9206 23.2428C54.3472 23.5753 53.691 23.8718 53.0718 24.1885C51.9523 24.7641 50.8284 25.3418 49.709 25.9174C49.2021 26.185 48.7007 26.5316 48.212 26.7468C47.012 27.2799 45.8292 27.8372 44.6593 28.4209C43.4937 29.0135 42.3536 29.6589 41.2263 30.3417C39.3312 31.1357 37.6166 32.2122 35.8346 33.2397C34.0549 34.2716 32.1927 35.2346 30.48 36.3374C30.0231 36.6297 29.4893 36.9431 29.0003 37.1802C26.0152 38.6444 23.1438 40.3091 20.2547 41.9824C18.7043 42.8813 17.1498 43.7605 15.5845 44.6176L13.2302 45.89C12.4455 46.3142 11.6369 46.7117 10.9111 47.1563C9.36602 48.156 8.07675 49.7391 7.42008 51.527C6.59521 53.6413 6.59469 56.0415 7.33998 58.1617C8.50904 61.279 9.8737 64.3396 11.3709 67.3032C13.3905 71.2651 15.5639 75.1742 17.8787 78.993L18.321 79.7254C18.4691 79.9746 18.6113 80.1669 18.7552 80.3964C18.8882 80.6258 19.0633 80.8184 19.2229 81.024L19.4666 81.3357L19.7391 81.6172C20.457 82.3792 21.3099 83.0267 22.2502 83.5067C24.1351 84.4646 26.3567 84.7477 28.4363 84.2778C28.961 84.1703 29.4625 83.9924 29.962 83.7991L30.6909 83.4619L31.4535 83.0594L34.5149 81.4385C37.5765 79.8067 40.6255 78.1265 43.6636 76.4462C46.4904 74.8576 49.3083 73.2732 52.135 71.6845L77.3245 57.6879C79.3376 56.5537 81.3441 55.4282 83.3572 54.294C84.3627 53.7302 85.379 53.1774 86.393 52.6312L90.8785 50.2325C90.8873 50.2283 90.9071 50.2241 90.9007 50.2109L90.8987 50.1956L90.8944 50.1867L90.8412 50.0547L90.1215 48.3575L88.6754 44.9719L81.396 28.0781C80.0243 24.8795 78.6744 21.6811 77.1813 18.5577C76.9742 18.1194 76.8596 17.8158 76.8463 17.6536C77.223 17.4654 77.386 17.3864 77.5865 17.2837C76.4263 17.7865 77.263 17.4243 77.0054 17.5329L77.0337 17.5464C77.051 17.5597 77.0728 17.5709 77.0967 17.5865C77.7203 17.997 78.3081 18.2888 79.1886 19.7229C79.7901 20.6938 80.32 21.6068 80.821 22.9203C81.5471 24.8212 82.5711 26.7082 83.1347 28.6444C83.2124 28.9169 83.3875 29.2891 83.5328 29.5887C86.1593 34.9705 88.409 40.5515 90.7644 46.0811L91.8683 48.6042L92.4696 49.9561C92.5314 50.0948 92.5888 50.2357 92.6266 50.3697C92.6644 50.5037 92.7046 50.6312 92.6612 50.7774C92.6266 50.9194 92.5375 51.0388 92.4271 51.1141C92.321 51.1982 92.2039 51.2822 92.0716 51.3573L91.6329 51.5973L88.2711 53.4291C86.6399 54.3073 84.9938 55.1547 83.3798 56.0572C82.1628 56.7345 81.0131 57.4499 79.7864 57.8381C79.5314 57.9182 78.8919 58.2828 78.6928 58.4556C77.9335 59.1231 76.9066 59.6539 75.8905 60.1957L67.662 64.6055C65.6384 65.7068 63.6296 66.8388 61.6426 67.9821C58.5573 69.767 55.4852 71.5454 52.402 73.3346C49.8153 74.8123 47.1896 76.2545 44.5856 77.7188C43.9814 78.0553 43.4054 78.4273 42.8035 78.7572C41.6924 79.3724 40.5497 80.0572 39.464 80.5565C38.2594 81.1136 37.3426 81.5909 36.3654 82.3478C35.815 82.7726 34.8541 83.2822 34.0629 83.6931C33.5582 83.9542 33.0471 84.2021 32.5339 84.4455C32.0142 84.6867 31.5361 84.924 30.9464 85.1556C29.5799 85.6932 28.2562 85.9488 26.7031 86.1688C26.4924 86.2056 26.2601 86.2203 26.0171 86.213C25.7741 86.2057 25.5179 86.2048 25.2598 86.1776C24.746 86.1057 24.2237 86.0162 23.77 85.8662C22.7662 85.5694 21.7922 85.1547 20.9076 84.5987C20.0251 84.0471 19.192 83.4063 18.494 82.6292C18.3078 82.4474 18.1438 82.2439 17.9842 82.0383C17.8291 81.8306 17.6452 81.6422 17.5099 81.4194L17.0798 80.7682C16.9357 80.5496 16.8243 80.3424 16.6955 80.1328L15.2107 77.5877C12.5487 72.9632 10.105 68.2164 7.95441 63.3221C7.53238 62.3622 7.12796 61.3937 6.73237 60.421L6.15445 58.9489L5.87534 58.1265C5.79546 57.8496 5.73321 57.5641 5.66428 57.2874C5.48659 56.4048 5.38793 55.5058 5.43601 54.6063C5.4622 53.7065 5.61538 52.8104 5.86668 51.9484C6.10276 51.0775 6.48933 50.2587 6.92583 49.4756C7.38195 48.6992 7.93365 47.9854 8.55908 47.3338C9.20175 46.7064 9.88781 46.1125 10.6663 45.6642C11.0592 45.4083 11.3919 45.2415 11.7492 45.0356L12.8097 44.4396L17.0585 42.0687C18.1741 41.4514 19.3115 40.8345 20.3815 40.1794C22.8613 38.672 25.3943 37.2856 27.9639 35.9523C31.0581 34.3427 34.0617 32.6139 37.074 30.8917C37.7731 30.4928 38.4746 30.0654 39.1842 29.6995C41.6676 28.4352 44.1123 27.1135 46.5848 25.8381C49.0465 24.5516 51.5019 23.2519 53.9915 22.0118C58.0125 20.0017 62.0654 18.0687 66.1098 16.118L68.4271 15.005L69.5857 14.454L70.1649 14.1785L70.3103 14.108C70.3609 14.0889 70.4536 14.033 70.5284 14.0077C70.6141 13.9824 70.7019 13.9616 70.7853 13.9429L70.849 13.9283C70.8601 13.9175 70.8752 13.9374 70.8756 13.9045L70.9063 13.9005L71.0378 13.8912L73.7291 13.9083L75.0387 13.9154L75.8073 13.9181C75.9803 13.9158 76.1489 13.9266 76.2995 13.9678C76.4566 14.0113 76.6065 14.1073 76.7103 14.2203C76.7795 14.2955 76.8508 14.3752 76.9131 14.4702L77.1284 14.7794C77.1714 14.8456 77.2188 14.9096 77.2618 14.9759C78.3104 16.6441 78.4161 17.3221 77.5311 16.799C77.2854 16.6515 77.0227 16.4578 76.7519 16.2136C76.6155 16.0893 76.4791 15.9541 76.3364 15.8057C76.1958 15.6616 76.0253 15.4559 75.9688 15.418C75.9188 15.3823 75.8866 15.3272 75.8278 15.3068C75.7667 15.2819 75.6941 15.3117 75.6306 15.3153L75.5319 15.3251C75.4574 15.3286 75.3829 15.3321 75.304 15.3377C75.1484 15.3424 74.9863 15.3448 74.8198 15.3494L71.1906 15.3844C71.1513 15.3817 71.1052 15.3877 71.0699 15.4048L70.9025 15.486L70.4112 15.7298L69.4242 16.2194L69.456 16.3073Z" fill="#EEB6BD"/>
<path d="M7.20222 58.6302C5.45084 54.043 7.29833 48.8531 11.5568 46.4013L20.0015 41.9998L21.0015 46.4013L22.5015 53.9998L27.0015 63.9998L32.5015 72.4998L38.5016 80.3405L31.0701 84.0988C26.3107 86.6846 20.3631 85.0142 17.6229 80.3405C16.0415 77.6409 14.4646 74.7486 12.9272 71.6684C10.6584 67.1253 8.77529 62.7489 7.20222 58.6302Z" fill="#EEB6BD"/>
<path d="M36.5328 79.2294C36.2537 78.7662 35.9415 78.3244 35.7087 77.8332C35.4928 77.3992 35.2987 76.9654 34.886 76.6867C34.7796 76.6131 34.7153 76.4919 34.6354 76.3946C34.4887 76.2154 34.3442 76.0297 34.1842 75.857C34.1129 75.7773 33.9754 75.7406 33.9371 75.6503C33.7434 75.1837 33.4767 74.7797 33.0643 74.4791C32.9861 74.0598 32.6536 73.8456 32.3788 73.5707C32.1084 73.2937 31.9176 72.9564 31.5787 72.7289C31.4896 72.6687 31.4096 72.5823 31.3735 72.4855C31.153 71.885 30.7558 71.4137 30.383 70.9143C29.9733 70.3837 29.6673 69.7866 29.467 69.1381C29.3639 68.7909 29.1729 68.4754 28.986 68.1687L28.2829 67.0893C27.9498 66.5597 27.6167 66.041 27.2064 65.5543C26.6668 64.9017 26.1516 64.221 25.7048 63.5017C25.4748 63.1397 25.3354 62.7176 25.1826 62.3128C24.9012 61.4969 24.6132 60.6787 24.3318 59.8629C24.107 59.2535 23.8558 58.657 23.6002 58.0626C23.3528 57.5078 23.0835 56.9636 22.8537 56.4002C22.1753 54.732 21.5738 53.0319 21.0318 51.3084C20.9054 50.8908 20.7527 50.4859 20.6175 50.0726C20.5543 49.8638 20.5064 49.653 20.463 49.44C20.3039 48.6519 20.1778 47.8532 20.034 47.0631C19.8331 45.9306 19.6409 44.7939 19.4904 43.6533C19.415 43.0042 19.3616 42.3553 19.1633 41.7222C19.1042 41.5441 19.2079 41.4774 19.4505 41.5176C19.8679 41.5927 20.3032 41.6374 20.578 41.9122C20.7663 42.0985 20.9086 42.2798 20.8814 42.5379C20.8439 42.9206 21.0804 43.2848 20.8873 43.6833C20.8603 43.7399 20.8836 43.8103 20.9069 43.8697C21.3345 44.9195 21.3803 46.0237 21.5576 47.1187C21.6212 47.4742 21.7352 47.8216 21.823 48.1709C21.875 48.4015 21.9336 48.6234 21.9812 48.8561C22.0495 49.1876 22.0803 49.5318 22.1837 49.8572C22.2596 50.1034 22.3949 50.3262 22.2163 50.6087C22.1805 50.6696 22.2249 50.795 22.2902 50.8286C22.5494 50.9478 22.5753 51.1584 22.6276 51.3671C22.7654 51.9206 22.8659 52.4868 23.0433 53.0321C23.1676 53.4343 23.3183 53.8347 23.4977 54.2158C23.7817 54.8127 24.0945 55.3902 24.3896 55.9763C24.6334 56.4676 24.8221 56.9802 25.0614 57.4736C25.117 57.5882 25.2034 57.6878 25.2545 57.8045C25.3461 58.0158 25.4838 58.2211 25.4876 58.4533C25.4977 58.7097 25.5524 58.8899 25.8224 59.0202C25.9726 59.0943 26.036 59.2812 26.0801 59.4394C26.1346 59.6415 26.1429 59.8606 26.1556 60.0776C26.1722 60.3362 26.178 60.5838 26.4233 60.7641C26.5513 60.8598 26.5884 61.0595 26.6039 61.2262C26.6671 61.9737 27.0121 62.6064 27.3704 63.2217C27.8816 64.0513 28.4347 64.8552 28.9836 65.6502C29.1922 65.9681 29.392 66.2902 29.5917 66.6124C30.2126 67.6119 30.7782 68.6437 31.3549 69.6756C31.4685 69.8762 31.5799 70.0834 31.7422 70.2496C32.1098 70.6373 32.3936 71.0765 32.6309 71.5546C32.9263 72.1188 33.3608 72.5883 33.8043 73.0426C33.9103 73.149 34.0341 73.2359 34.107 73.3638C34.6198 74.2416 35.4067 74.9103 36.0124 75.7104C36.5061 76.358 36.9423 77.0553 37.416 77.729C37.7776 78.2502 38.1281 78.7822 38.4963 79.3057C38.5178 79.3388 38.5657 79.3591 38.5872 79.3922C38.7894 79.6969 38.6611 79.9822 38.2209 80.163C37.8358 80.3226 37.4988 80.301 37.2762 80.0553C37.0298 79.7829 36.81 79.4868 36.5792 79.2015L36.5328 79.2294Z" fill="#EEB6BD"/>
<path d="M28.0558 39.396C28.0034 39.9275 27.975 40.4637 27.8963 40.9971C27.8227 41.4736 27.7469 41.9457 27.9472 42.4037C27.9983 42.5204 27.9835 42.6582 28.0017 42.7854C28.0318 43.0157 28.0684 43.2483 28.1138 43.4766C28.1367 43.5798 28.234 43.6795 28.2219 43.7779C28.1545 44.2786 28.21 44.7633 28.441 45.2172C28.3179 45.6252 28.5327 45.9673 28.6642 46.328C28.7912 46.6909 28.8324 47.079 29.0605 47.4147C29.1208 47.5052 29.1611 47.6108 29.1576 47.7159C29.1346 48.3529 29.351 48.9336 29.5432 49.5207C29.7546 50.1474 29.8892 50.7951 29.9116 51.4808C29.9291 51.8424 30.0453 52.1941 30.1572 52.5371C30.2815 52.9503 30.4848 53.3361 30.6399 53.7343C30.8584 54.3195 31.1298 54.879 31.4782 55.4066C31.9252 56.115 32.4007 56.815 32.8059 57.5382C33.0293 57.8978 33.1536 58.311 33.3021 58.707C33.6057 59.5013 33.9048 60.2977 34.2634 61.0707C34.5433 61.6479 34.852 62.2056 35.2003 62.7442C35.5117 63.2516 35.887 63.7227 36.2272 64.2107C37.2323 65.6661 38.295 67.0717 39.4263 68.4169C39.7006 68.7356 39.9881 69.0478 40.2779 69.3535C40.4184 69.5085 40.5522 69.6722 40.6772 69.8401C41.1515 70.4591 41.6279 71.0824 42.1376 71.6733C42.8698 72.5209 43.6396 73.3339 44.4205 74.1361C44.864 74.5904 45.2985 75.0599 45.8508 75.3907C46.0052 75.4845 45.9709 75.6046 45.7657 75.7313C45.4039 75.9503 45.0505 76.1979 44.6523 76.1624C44.3854 76.1395 44.1561 76.0929 44.0077 75.8656C43.7948 75.5389 43.374 75.3893 43.2851 74.948C43.2706 74.8843 43.2098 74.8376 43.1555 74.8041C42.1707 74.1987 41.5008 73.2665 40.7887 72.3928C40.5534 72.1097 40.2783 71.8567 40.0363 71.5822C39.8786 71.4029 39.7209 71.2236 39.5743 71.0335C39.3631 70.755 39.1761 70.4593 38.9427 70.2025C38.7677 70.0098 38.5549 69.8518 38.6006 69.5194C38.6102 69.4495 38.5172 69.3476 38.4406 69.3467C38.1516 69.3344 38.04 69.1491 37.9151 68.9702L36.9363 67.513C36.6931 67.1575 36.4124 66.8256 36.1317 66.4937C35.6977 65.9804 35.2197 65.4885 34.8123 64.9514C34.4606 64.507 34.162 64.026 33.8458 63.5535C33.7705 63.4431 33.6686 63.3564 33.5977 63.2439C33.4666 63.0408 33.2959 62.8461 33.2616 62.6069C33.2209 62.3436 33.1443 62.1631 32.8565 62.0524C32.6952 61.9891 32.6099 61.8019 32.5439 61.6434C32.4631 61.4432 32.4375 61.2107 32.4117 60.9892C32.3799 60.7217 32.361 60.4696 32.1048 60.2891C31.9702 60.1911 31.9178 59.9934 31.898 59.818C31.8131 59.0482 31.4706 58.3981 31.1238 57.7391L30.4018 56.4076L29.7129 55.0546C29.5398 54.6978 29.4064 54.3217 29.2619 53.9564C28.8072 52.8056 28.5041 51.6083 28.2382 50.4094C28.1841 50.1744 28.1432 49.933 28.0408 49.7106C27.8104 49.2019 27.6876 48.6683 27.6418 48.1137C27.5709 47.4514 27.3551 46.8269 27.1415 46.1958C27.0929 46.0506 27.0114 45.9051 26.9979 45.7538C26.9232 44.6908 26.5499 43.6855 26.4598 42.6244C26.3825 41.7694 26.406 40.909 26.4316 40.053C26.4484 39.3919 26.5089 38.7312 26.5672 38.0771C26.5721 38.0312 26.5507 37.9871 26.5534 37.9478C26.5996 37.5716 26.8814 37.4458 27.3307 37.598C27.7298 37.7364 27.9701 37.9627 27.9771 38.2913C27.9881 38.6506 27.9815 39.0184 27.9815 39.3775L28.0558 39.396Z" fill="#EEB6BD"/>
<path d="M41.183 65.4095C41.704 65.2494 42.2165 65.0607 42.7545 64.9358C43.2333 64.8233 43.7032 64.726 44.0731 64.3779C44.1661 64.2892 44.3023 64.2558 44.4191 64.1937C44.6263 64.0824 44.8401 63.9733 45.043 63.8531C45.1357 63.7972 45.2007 63.6732 45.2995 63.6525C45.8023 63.5447 46.2535 63.353 46.6214 62.9896C47.0508 62.9772 47.326 62.6805 47.6397 62.4521C47.9579 62.2217 48.3276 62.075 48.5984 61.7695C48.6739 61.6894 48.7666 61.6226 48.8698 61.5998C49.498 61.4475 50.0255 61.11 50.5638 60.7836C51.144 60.4315 51.7626 60.1696 52.4368 60.0113C52.7947 59.9302 53.1276 59.7524 53.4472 59.5811C53.8329 59.3777 54.1972 59.1302 54.5765 58.9136C55.1277 58.6027 55.6618 58.2675 56.1595 57.8574C56.8209 57.3135 57.5081 56.8006 58.2147 56.3164C58.5747 56.0711 58.9926 55.9228 59.3867 55.748C60.1859 55.3985 61 55.0798 61.7906 54.7127C62.3853 54.4352 62.9563 54.1201 63.5253 53.7898C64.0568 53.483 64.5581 53.1365 65.0874 52.8253C66.649 51.9046 68.2171 50.9972 69.7809 50.0809C70.158 49.8599 70.518 49.6146 70.893 49.3892C71.0783 49.2775 71.2723 49.1726 71.4661 49.0786C72.1931 48.726 72.9264 48.3866 73.6447 48.0274C74.6759 47.5055 75.6964 46.9615 76.7298 46.444C77.3159 46.1489 77.9127 45.8758 78.428 45.4571C78.5718 45.3384 78.676 45.4076 78.7235 45.6512C78.806 46.0683 78.917 46.4879 78.7529 46.8451C78.6426 47.0891 78.5241 47.2935 78.2627 47.3604C77.8804 47.4587 77.6112 47.8124 77.1649 47.7676C77.1015 47.7603 77.0374 47.8077 76.9931 47.851C76.1188 48.6179 75.0475 49.0123 74.0276 49.5015C73.6928 49.6639 73.3859 49.8726 73.0617 50.0571C72.8522 50.175 72.6407 50.2885 72.4248 50.3932C72.112 50.5449 71.7819 50.6723 71.4819 50.8505C71.2547 50.9879 71.0664 51.1717 70.7435 51.0671C70.6781 51.0444 70.5567 51.1196 70.5427 51.1917C70.4801 51.4778 70.2777 51.5542 70.0795 51.6504C69.5508 51.9068 69.0114 52.1412 68.4956 52.4131C68.1099 52.6165 67.7436 52.8486 67.3837 53.0939C66.825 53.4792 66.2943 53.8998 65.7313 54.2763C65.2632 54.5904 64.7694 54.8625 64.2884 55.1611C64.1758 55.232 64.0826 55.3317 63.9724 55.396C63.765 55.5184 63.566 55.6802 63.3313 55.7124C63.0724 55.7509 62.8898 55.8231 62.7768 56.1065C62.7114 56.2634 62.5243 56.3487 62.368 56.4081C62.1656 56.4845 61.9418 56.5169 61.7225 56.5471C61.4571 56.5833 61.2027 56.6087 61.0332 56.8651C60.9418 57.0019 60.7396 57.0564 60.5663 57.0806C59.8114 57.2073 59.1633 57.5652 58.5409 57.965C57.6934 58.5067 56.8674 59.0814 56.0264 59.6254C55.6953 59.8404 55.3514 60.0289 55.0096 60.2219C53.9489 60.8289 52.8368 61.341 51.7204 61.8444C51.5024 61.9447 51.2757 62.0383 51.0856 62.1849C50.6478 62.5279 50.1546 62.7562 49.6376 62.9471C49.0194 63.1762 48.4762 63.5485 47.9373 63.9296C47.8114 64.0179 47.6983 64.1326 47.5553 64.1856C46.5717 64.5701 45.7381 65.2302 44.7889 65.6743C44.0224 66.0351 43.2196 66.3211 42.4232 66.6203C41.8072 66.8537 41.1849 67.063 40.5625 67.2833C40.5207 67.2981 40.4896 67.3349 40.4478 67.3498C40.0895 67.4637 39.851 67.2637 39.8042 66.7857C39.7589 66.3669 39.8722 66.0507 40.1762 65.9033C40.5111 65.7409 40.8522 65.6027 41.1913 65.4491C41.2001 65.4448 41.1916 65.4272 41.183 65.4095Z" fill="#EEB6BD"/>
<path d="M67.9228 30.8901C67.393 31.0545 66.8738 31.2519 66.327 31.3811C65.8438 31.4957 65.3607 31.5994 64.9886 31.954C64.8911 32.0448 64.7549 32.0782 64.6381 32.1403C64.4265 32.2538 64.2083 32.3651 64.001 32.4874C63.9083 32.5432 63.839 32.6694 63.7358 32.6923C63.2241 32.8043 62.764 33.0003 62.3873 33.368C61.9535 33.3825 61.6696 33.6835 61.347 33.9161C61.0245 34.1487 60.646 34.2997 60.3707 34.6073C60.2953 34.6874 60.1981 34.7563 60.0905 34.7813C59.4535 34.9379 58.9128 35.2817 58.3613 35.6145C57.7723 35.971 57.1426 36.2437 56.453 36.404C56.0863 36.4894 55.7491 36.6692 55.4206 36.8449C55.0261 37.0525 54.6573 37.3021 54.2692 37.523C53.7048 37.8403 53.1641 38.1842 52.6576 38.5985C51.9786 39.151 51.2803 39.6747 50.5627 40.1588C50.1983 40.4063 49.7737 40.5632 49.3687 40.7379C48.5563 41.0938 47.7267 41.4254 46.9228 41.799C46.3194 42.0808 45.7372 42.4066 45.1573 42.7369C44.617 43.0479 44.1046 43.4053 43.5665 43.7207C41.974 44.6563 40.3773 45.5831 38.7848 46.5187C38.4032 46.7419 38.0345 46.9915 37.6507 47.2212C37.461 47.3349 37.267 47.4399 37.0643 47.5382C36.3242 47.8972 35.5776 48.243 34.8438 48.6152C33.795 49.1456 32.7524 49.7003 31.7036 50.2307C31.1087 50.5301 30.5008 50.8141 29.9745 51.2326C29.8263 51.3534 29.7221 51.2843 29.6746 51.0406C29.5921 50.6235 29.4811 50.2039 29.6519 49.838C29.7666 49.592 29.8895 49.3854 30.1554 49.3163C30.542 49.2159 30.8179 48.8535 31.2729 48.894C31.3364 48.9014 31.4005 48.8539 31.4492 48.8085C32.339 48.0287 33.43 47.6301 34.4698 47.1259C34.809 46.9613 35.1247 46.7483 35.4533 46.5618C35.6672 46.4417 35.8832 46.3261 36.1035 46.2192C36.423 46.0588 36.7552 45.9358 37.064 45.7534C37.2956 45.6138 37.4883 45.4278 37.8156 45.5303C37.8854 45.5509 38.0024 45.4778 38.0208 45.4036C38.0834 45.1175 38.2946 45.0368 38.4929 44.9406C39.0304 44.6799 39.5764 44.4369 40.1054 44.1585C40.4955 43.953 40.8706 43.7167 41.2394 43.4671C41.8069 43.0775 42.3508 42.6505 42.9249 42.2632C43.4017 41.9448 43.9067 41.6618 44.3942 41.3655C44.5068 41.2946 44.6043 41.1929 44.719 41.1264C44.9308 41.0019 45.1343 40.8379 45.3734 40.8035C45.6367 40.7629 45.8237 40.6886 45.941 40.4031C46.0064 40.2462 46.198 40.1587 46.3586 40.0971C46.5654 40.0186 46.7936 39.9841 47.0174 39.9518C47.2872 39.9134 47.546 39.8859 47.7199 39.6274C47.8158 39.4884 48.0179 39.4339 48.1934 39.4031C48.9615 39.2701 49.6185 38.9079 50.2541 38.5017C51.1148 37.9536 51.9585 37.3703 52.8193 36.8113C53.1548 36.5941 53.5075 36.4013 53.8581 36.2041C54.9409 35.5864 56.0706 35.0657 57.2069 34.5472C57.4293 34.4448 57.6604 34.349 57.8505 34.2024C58.2971 33.8552 58.7992 33.6226 59.325 33.4274C59.9564 33.192 60.5063 32.811 61.054 32.4256C61.1799 32.3373 61.2974 32.2205 61.4404 32.1674C62.4416 31.7744 63.2928 31.1057 64.2576 30.6487C65.0372 30.2815 65.8576 29.987 66.6651 29.677C67.2899 29.4392 67.9255 29.2235 68.5546 28.9946C68.5963 28.9798 68.6274 28.9429 68.6692 28.9281C69.0363 28.8099 69.2749 29.0098 69.3195 29.4834C69.3604 29.9044 69.2427 30.2227 68.9387 30.3702C68.6016 30.5391 68.2517 30.6816 67.906 30.8329C67.9036 30.8504 67.9121 30.868 67.9228 30.8901Z" fill="#EEB6BD"/>
<path d="M101.055 16.9812C105.345 17.3877 107.838 22.0343 105.799 25.8312L92.5496 50.5102C92.4757 50.6494 92.3128 50.7175 92.1601 50.6719L79.1115 46.7367C78.9281 46.6841 78.832 46.4859 78.8932 46.3092L83.5619 33.0899C83.6299 32.9045 83.5163 32.7039 83.3241 32.6555L69.7476 29.4498C69.5446 29.4014 69.4356 29.1767 69.5233 28.9872L75.3624 14.9608C75.4122 14.8278 101.055 16.9812 101.055 16.9812Z" fill="white"/>
<path d="M106.12 19.3143C106.552 20.0356 106.815 20.8491 106.939 21.6653C107.018 22.0735 107.006 22.4873 107.012 22.8925C106.963 23.2971 106.937 23.7019 106.814 24.0881C106.65 24.7825 106.316 25.407 105.985 26.003C105.645 26.5705 105.333 27.1625 105.069 27.7966C104.934 28.1234 104.724 28.4428 104.554 28.7649L103.622 30.5341C103.48 30.8039 103.402 31.1249 103.248 31.3574C102.472 32.5175 101.785 33.7159 101.259 35.0104C100.581 35.8782 100.197 36.8809 99.7336 37.8674C99.2705 38.8539 98.7115 39.8107 98.3291 40.8288C98.2251 41.097 98.0857 41.3931 97.9252 41.6343C96.957 43.1052 96.1758 44.6813 95.3749 46.2616C95.0182 46.9625 94.6441 47.6609 94.2591 48.3483L93.6665 49.3704L92.9983 50.4727C92.8846 50.6422 92.7842 50.7942 92.6383 50.9085C92.477 51.0249 92.2647 51.0135 92.0925 50.9501C91.8087 50.8701 91.4688 50.7302 91.242 50.6552C90.9999 50.5712 90.7534 50.4894 90.5134 50.4099C90.0203 50.2572 89.5229 50.1066 89.0298 49.954C87.858 49.6026 86.6703 49.297 85.494 48.9587C83.7852 48.465 82.0826 48.0064 80.3571 47.6243L79.8809 47.5178C79.6517 47.4603 79.4246 47.4072 79.1953 47.3496C79.0141 47.3015 78.8486 47.2294 78.7049 47.1576C78.5634 47.0902 78.4312 46.9747 78.3543 46.8161C78.2686 46.6508 78.2705 46.4975 78.2767 46.3421C78.2831 46.1758 78.3159 45.9966 78.3773 45.809L78.5506 45.246L78.6603 44.8663L78.875 44.1309C79.1672 43.1511 79.4637 42.1692 79.7537 41.185C80.1071 40.0286 80.5764 38.8867 81.0085 37.7465L82.3265 34.3264L82.4893 33.8991L82.5503 33.7443L82.5864 33.6615L82.6607 33.4894C82.6832 33.435 82.7213 33.3675 82.6958 33.3037C82.6747 33.2378 82.607 33.2216 82.5503 33.2056L82.3669 33.153L82.1268 33.0844L81.6814 32.9739C79.902 32.5254 78.1046 32.1183 76.3135 31.7244L71.2826 30.676L69.71 30.3285C69.4654 30.273 69.2674 30.1677 69.1066 30.0606C68.9523 29.9668 68.801 29.8007 68.718 29.596C68.6308 29.3825 68.6372 29.2162 68.6507 29.0083C68.6641 28.8004 68.7459 28.5648 68.845 28.3317L69.5949 26.4443L70.8846 23.1902L73.4576 16.6797L74.2508 14.646C74.2943 14.4889 74.3894 14.4156 74.4716 14.3158L74.7247 14.0298L74.7381 14.0125L74.7425 14.0103C74.6543 13.8735 74.8585 14.1935 74.8414 14.1583L74.8458 14.1561L74.8546 14.1518L74.8921 14.1282L74.9672 14.0809L75.1194 13.9908C75.2079 13.9152 75.3505 13.895 75.491 13.8704C75.627 13.848 75.761 13.8102 75.9014 13.7966L76.3303 13.8171L76.7922 13.838C77.4094 13.8651 78.0199 13.9119 78.6259 13.9608L85.3989 14.5616L95.0994 15.3751C96.9349 15.5352 98.7613 15.7215 100.594 15.7414C101.109 15.7476 101.267 15.8722 101.056 16.0886C100.69 16.4675 100.394 16.8669 99.4966 17.0356C98.8886 17.1509 98.3226 17.2295 97.5883 17.1067C96.5238 16.9318 95.3774 17.0253 94.3455 16.6931C94.1972 16.6453 93.9826 16.6406 93.803 16.6406C90.6273 16.657 87.4699 16.251 84.3045 15.9631C83.2697 15.8718 82.2321 15.8308 81.1927 15.7635L79.1754 15.61C78.1997 15.5281 77.2243 15.4134 76.2524 15.3732C76.121 15.3716 75.9897 15.37 75.8627 15.3663C75.7552 15.3803 75.5853 15.3104 75.5702 15.4701C75.4713 15.6813 75.3576 15.8508 75.102 16.1543C75.0022 16.2626 74.8642 16.6288 74.8646 16.7756C74.8687 17.345 74.6145 17.8982 74.3735 18.4559C73.7245 19.9679 73.0559 21.4731 72.4287 22.9964C71.9618 24.1208 71.5254 25.263 71.1087 26.4012L70.4265 28.3048C70.374 28.4772 70.3262 28.6365 70.2937 28.7828C70.2884 28.8616 70.3597 28.9413 70.445 28.9489L70.6943 28.9804C70.7972 28.9794 71.4331 29.101 71.9137 29.1944C73.4628 29.4934 75.0047 29.8449 76.5556 30.1702C76.9139 30.2468 77.2748 30.284 77.633 30.3606C78.2905 30.5043 78.9856 30.6134 79.583 30.8353C80.2458 31.0798 80.7719 31.2219 81.4469 31.1775C81.6376 31.1667 81.8693 31.1957 82.1162 31.2447C82.2364 31.2681 82.3608 31.3002 82.4831 31.328C82.6708 31.3784 82.8608 31.4223 83.0355 31.4682C83.3061 31.5438 83.6034 31.5955 83.8253 31.7165C84.0515 31.8462 84.1902 31.964 84.3237 32.1495C84.4594 32.3395 84.5396 32.5945 84.5372 32.7916C84.5435 32.9953 84.5078 33.2358 84.4085 33.4799C84.2846 33.7631 84.1651 34.0441 84.0435 34.3208C83.9672 34.4776 83.8973 34.6366 83.8296 34.8C83.6987 35.1248 83.5917 35.4651 83.5367 35.8455C83.4748 36.2565 83.243 36.7771 83.0365 37.1929C82.1316 39.0412 81.4598 40.9997 80.8337 42.9741L80.1141 45.2605L80.0252 45.5485L79.9797 45.6903C79.966 45.7296 79.9704 45.7275 79.9658 45.7515L79.9264 45.9284C79.9127 45.9786 79.9009 46.0442 79.9618 46.0799C80.0184 46.1069 80.082 46.1033 80.1366 46.1149L80.259 46.1317L80.6891 46.2442L81.5667 46.4716L83.3197 46.933C84.3806 47.2129 85.4412 47.5258 86.504 47.832C87.6346 48.1545 88.7605 48.49 89.8864 48.8365L91.5707 49.3583L91.7824 49.4244L91.8042 49.4356L91.8521 49.4559C91.8891 49.476 91.9158 49.4413 91.9293 49.413L93.3616 46.868C93.6927 46.2829 94.035 45.687 94.3095 45.0858C94.9483 43.6876 95.6892 42.3541 96.4738 41.043C97.4193 39.4579 98.2123 37.8052 99.0031 36.1482C99.1873 35.765 99.3499 35.3596 99.5602 34.9964C101.056 32.4588 102.264 29.7775 103.69 27.2083L104.565 25.6574L104.787 25.2725L104.951 24.9481C105.078 24.7394 105.144 24.5059 105.23 24.2792C105.55 23.3676 105.56 22.345 105.289 21.3826C104.878 19.895 103.766 18.5676 102.265 17.9516C102.166 17.9175 102.051 17.903 101.952 17.869C101.739 17.7766 101.554 17.7196 101.41 17.6587C101.264 17.5935 101.162 17.5178 101.097 17.4403C100.972 17.2833 101.016 17.1043 101.294 16.9259C101.536 16.7755 101.867 16.6372 102.252 16.6571C102.444 16.6616 102.661 16.6708 102.879 16.7282C103.096 16.7921 103.329 16.8804 103.566 16.9884C104.604 17.5243 105.459 18.3668 106.061 19.3377L106.12 19.3143Z" fill="#EEB6BD"/>
<path d="M105.792 25.8347C107.831 22.0378 105.342 17.3891 101.048 16.9847L93.5715 16.2791C93.4118 16.264 93.2595 16.3651 93.2204 16.5201C92.9543 17.5199 92.3208 20.8367 94.87 26.0927C96.6735 29.8112 99.4468 32.1069 101.295 33.4257C101.46 33.5416 101.684 33.4873 101.778 33.3111L105.792 25.8347Z" fill="#EEB6BD"/>
</svg>
