<svg width="112" height="85" viewBox="0 0 112 85" fill="none" xmlns="http://www.w3.org/2000/svg">
<path d="M70.029 71.4717C70.1179 71.5711 70.233 71.6286 70.3429 71.7019C70.4579 71.7699 70.5678 71.8692 70.6933 71.9425C70.913 72.0785 71.1589 72.2563 71.4099 72.0837C71.4727 72.0419 71.5459 72.0732 71.6087 72.068C71.729 72.0575 71.8545 72.0575 71.9749 72.0209C72.0324 72.0052 72.0742 71.9111 72.1318 71.932C72.4038 72.0471 72.6758 72.0314 72.8902 71.8117C73.1361 71.9634 73.2982 71.7699 73.4708 71.6443C73.6435 71.5188 73.8579 71.5083 73.9939 71.2886C74.0305 71.2311 74.0828 71.1945 74.1404 71.1997C74.5065 71.2468 74.789 71.0585 75.0714 70.8754C75.3801 70.6923 75.7096 70.5668 76.1124 70.572C76.3268 70.572 76.4994 70.4622 76.6668 70.3628C76.8708 70.2477 77.0434 70.0803 77.2265 69.9391C77.4985 69.7403 77.7548 69.5102 77.9483 69.2016C78.2099 68.7988 78.4766 68.4065 78.7643 68.0613C78.9056 67.8782 79.1253 67.784 79.3188 67.669C79.7111 67.4336 80.1191 67.2034 80.4852 66.9262C80.7572 66.7117 80.9979 66.4659 81.2175 66.1991C81.4268 65.9533 81.5889 65.6656 81.772 65.4093C82.3317 64.6456 82.8443 63.861 83.2471 63.0555C83.336 62.8619 83.3988 62.6527 83.4824 62.4539C83.5191 62.3546 83.5609 62.2656 83.6185 62.1767C83.7178 62.0146 83.8224 61.8524 83.9009 61.685C83.9846 61.5229 84.0787 61.3555 84.1258 61.1881C84.3089 60.7069 84.3612 60.2361 84.3246 59.8804C84.3141 59.6764 84.2671 59.4777 84.0631 59.4097C84.0108 59.394 84.1049 59.3103 84.3194 59.1847C84.696 58.9755 85.0987 58.7663 85.4178 58.8081C85.6375 58.8343 85.8258 58.9023 85.8049 59.0906C85.7944 59.2214 85.8572 59.3312 85.8938 59.4463C85.92 59.5613 85.9147 59.6921 85.7944 59.8177C85.763 59.8543 85.7787 59.8961 85.7997 59.9327C86.1292 60.6023 85.8206 61.2979 85.5747 61.8733C85.4963 62.0669 85.4492 62.2761 85.3812 62.4749C85.3394 62.6056 85.2766 62.7259 85.2086 62.8462C85.1092 63.0189 84.9889 63.1758 84.9052 63.3536C84.8424 63.4844 84.8372 63.6518 84.5495 63.6308C84.4868 63.6256 84.4606 63.6989 84.5024 63.7564C84.6541 63.9761 84.56 64.0598 84.4867 64.1592L83.8695 64.9228C83.7231 65.1164 83.6132 65.3361 83.4981 65.5505C83.3308 65.8958 83.1895 66.2724 82.9908 66.6019C82.8286 66.8844 82.6194 67.1197 82.4258 67.376C82.384 67.4336 82.3683 67.5225 82.316 67.58C82.2323 67.6847 82.1695 67.8259 82.0178 67.852C81.8505 67.8834 81.7615 67.941 81.8086 68.1868C81.8348 68.3228 81.7406 68.396 81.6569 68.4431C81.5523 68.5059 81.4006 68.5216 81.2594 68.5425C81.0868 68.5634 80.9246 68.5739 80.9142 68.7936C80.9089 68.9139 80.7886 68.9505 80.6788 68.9662C80.1923 69.0237 79.9046 69.3062 79.6117 69.6043C79.2246 70.0228 78.8428 70.4517 78.4243 70.8545C78.257 71.0062 78.0739 71.1317 77.8908 71.2677C77.3259 71.6809 76.672 71.9634 76.013 72.2092C75.8822 72.2563 75.741 72.2929 75.6364 72.3923C75.3957 72.6277 75.0871 72.7219 74.7628 72.7637C74.381 72.8265 74.0358 73.0148 73.6905 73.224C73.6121 73.2763 73.5284 73.3391 73.4395 73.3443C73.1099 73.36 72.817 73.4646 72.4875 73.5378L72.0062 73.6581C71.8389 73.6791 71.6662 73.6948 71.4989 73.6895C70.9444 73.6791 70.3743 73.5065 69.846 73.2763C69.642 73.2083 69.4484 73.0618 69.2601 72.9468C69.0718 72.8369 68.8992 72.68 68.7423 72.5335C68.7213 72.5126 68.6847 72.5178 68.6638 72.4969C68.4807 72.3138 68.6115 72.0314 68.9567 71.6862C69.2653 71.3828 69.4746 71.2206 69.5896 71.2939C69.71 71.3932 69.8669 71.4508 70.0081 71.5397L70.029 71.4717Z" fill="black"/>
<path d="M40.7478 39.0155L33.906 14.3108C33.7072 13.5942 34.4604 12.977 35.1195 13.3222C38.7287 15.2053 42.432 17.2296 46.2191 19.416C50.2938 21.7646 54.1698 24.1237 57.8365 26.467C58.1504 26.6658 58.3125 27.0424 58.2236 27.4033C57.2716 31.2531 46.0517 40.0146 41.4801 39.6537C41.1296 39.6275 40.8419 39.3608 40.7478 39.0155Z" fill="white"/>
<path d="M39.1252 35.9715C38.9788 35.0404 38.7957 34.1093 38.6911 33.1783C38.5969 32.3466 38.5132 31.5254 38.1419 30.7512C38.0477 30.5525 38.0163 30.3118 37.9536 30.0974C37.8385 29.6998 37.7339 29.2971 37.6083 28.9048C37.5508 28.7269 37.4148 28.5543 37.3939 28.3817C37.3049 27.5134 37.1166 26.6765 36.7296 25.8866C36.7453 25.1857 36.4262 24.5842 36.1856 23.9461C35.945 23.3131 35.8037 22.6331 35.4742 22.0316C35.3853 21.8695 35.3173 21.6811 35.2963 21.4981C35.1656 20.3996 34.8151 19.3639 34.4804 18.3178C34.3025 17.7633 34.1508 17.2036 34.0253 16.6335C33.8945 16.0477 33.8161 15.556 33.6957 14.7871L33.6905 14.74C33.6644 14.3738 33.5807 14.06 33.7062 13.72C33.8265 13.3904 34.1299 13.1185 34.4751 13.0452C34.904 12.9406 35.2597 13.1655 35.6625 13.3434L36.7662 13.8978C37.7443 14.4104 38.7329 14.8864 39.7634 15.2892C41.1391 15.828 42.5095 16.4086 43.8643 17.031C44.5495 17.3449 45.1929 17.7686 45.8467 18.1661C46.5058 18.5479 47.1335 18.9769 47.7664 19.411C48.3993 19.8399 49.0322 20.2636 49.6704 20.6768C50.6328 21.2941 51.6214 21.8747 52.6153 22.4448C53.5411 22.9731 54.4983 23.4596 55.4294 23.9827L57.5008 25.1543L58.0186 25.4473C58.2488 25.578 58.594 25.7663 58.8032 26.0174C59.2531 26.5248 59.3995 27.2676 59.1328 27.9266C59.1014 28.094 59.0281 28.2771 58.9811 28.3817C58.934 28.4915 58.8921 28.6119 58.8398 28.7112C58.7352 28.91 58.6358 29.1297 58.5208 29.3128C58.2958 29.6998 58.0605 30.0555 57.8094 30.4008C57.3072 31.086 56.7685 31.7189 56.214 32.3257C55.6753 32.9063 55.1417 33.4817 54.5768 34.0309C54.2891 34.2977 53.9962 34.5592 53.6876 34.805C52.5577 35.7204 51.3756 36.5573 50.1621 37.3576C48.4202 38.4927 46.6261 39.5702 44.5547 40.3078C43.9584 40.5065 43.3517 40.6844 42.6769 40.789C42.3369 40.8361 41.9917 40.8884 41.6046 40.8831L41.4634 40.8884H41.3901C41.364 40.8884 41.3012 40.8831 41.2646 40.8779C41.0815 40.857 40.8985 40.8099 40.7258 40.7419C40.3858 40.6059 40.0929 40.3862 39.8732 40.1247C39.6222 39.8265 39.5594 39.565 39.5751 39.4342C39.5908 39.3035 39.6849 39.2982 39.8418 39.3767C40.1138 39.5075 40.3911 39.5441 40.6631 39.565C40.9351 39.5807 41.2071 39.5702 41.4372 39.4761C41.7772 39.3244 42.0806 39.1831 42.5095 39.1779C43.1529 39.1675 43.7387 38.7752 44.424 38.7856C44.5233 38.7908 44.6437 38.7281 44.7326 38.6705C46.3907 37.6558 48.1273 36.7875 49.7645 35.6995C50.2928 35.3438 50.7845 34.9306 51.2814 34.5278L52.2544 33.7537C52.7251 33.377 53.2116 33.0214 53.6457 32.6029C53.9753 32.2891 54.2316 31.9281 54.7076 31.8288C54.807 31.8078 54.9691 31.63 54.9848 31.5254C55.0476 31.1331 55.3143 30.882 55.5759 30.6152C56.2611 29.8882 56.9411 29.1349 57.4119 28.2875C57.4955 28.1306 57.5792 27.9737 57.6368 27.8116C57.7048 27.6599 57.7205 27.5552 57.7518 27.4297C57.8094 27.1839 57.6525 26.9223 57.4328 26.8334L57.302 26.7759L57.234 26.7445L57.1346 26.6974L56.7371 26.5039L55.9472 26.122C55.4189 25.8657 54.8906 25.6094 54.3728 25.3427C53.4993 24.8928 52.6571 24.3959 51.7941 23.9251C51.5953 23.8153 51.3756 23.7421 51.1821 23.6322C50.8211 23.4282 50.4184 23.2504 50.1255 22.9731C49.8011 22.6698 49.5239 22.4762 49.0741 22.4501C48.823 22.4344 48.5249 22.2408 48.2842 22.0735C47.9809 21.859 47.7036 21.5922 47.4316 21.3359C47.1073 21.0273 46.8039 20.7239 46.3227 20.6193C46.0612 20.567 45.7944 20.3264 45.5695 20.1433C44.5861 19.3116 43.4458 18.7153 42.2898 18.1609L37.556 15.943C36.9388 15.6501 36.3373 15.3258 35.7305 15.012L35.516 14.9021L35.4847 14.8864L35.4323 14.8655C35.4062 14.8551 35.38 14.8394 35.3539 14.8446C35.2859 14.8551 35.265 14.923 35.2807 14.9858V15.0224C35.2807 15.0434 35.2702 15.012 35.3068 15.1532L35.4585 15.7757L35.7619 17.0206C35.8613 17.4286 35.9502 17.8418 36.1071 18.2289C36.4628 19.1181 36.693 20.0387 36.876 20.975C37.0957 22.1048 37.4828 23.1771 37.8803 24.2494C37.9745 24.5005 38.0948 24.7464 38.1471 25.0027C38.5185 26.7968 39.2089 28.4968 39.6535 30.27C40.0145 31.7032 40.2865 33.1574 40.5794 34.6063C40.8043 35.7256 41.0031 36.8502 41.2123 37.9696C41.228 38.0429 41.2646 38.1109 41.2803 38.1841C41.3901 38.8275 41.1443 39.1047 40.6055 38.9373C40.1295 38.7856 39.7843 38.4404 39.6326 37.8755C39.4705 37.253 39.3345 36.6201 39.1828 35.9924L39.1252 35.9715Z" fill="black"/>
<path d="M34.5234 14.6139L37.1492 22.5228C37.6095 22.596 38.7184 22.936 40.7218 21.6022C41.4332 21.1314 41.951 20.5717 42.3433 20.033L35.0935 13.9915C34.6437 13.6149 34.3142 14.0647 34.5234 14.6139Z" fill="black"/>
<path d="M35.5788 15.4143C35.5735 15.7386 35.6049 16.0524 35.5578 16.382C35.516 16.6801 35.4741 16.9731 35.6991 17.1875C35.7566 17.245 35.7514 17.3287 35.7723 17.3967C35.8194 17.5223 35.856 17.653 35.9135 17.7733C35.9397 17.8309 36.0443 17.8623 36.0338 17.925C35.9815 18.2389 36.0338 18.5109 36.2744 18.7306C36.1541 19.0026 36.3581 19.1595 36.4889 19.3478C36.6144 19.5361 36.6458 19.761 36.8603 19.9179C36.9178 19.9598 36.9544 20.0173 36.944 20.0801C36.8969 20.4672 37.0643 20.7862 37.2212 21.1106C37.263 21.1995 37.2997 21.2884 37.3258 21.3773C37.352 21.4662 37.3781 21.5709 37.3781 21.6179C37.3886 21.7435 37.3729 21.8899 37.3467 22.0992C37.3415 22.1567 37.3363 22.209 37.3415 22.2613C37.352 22.3084 37.4043 22.3032 37.4357 22.3188C37.5141 22.345 37.603 22.3555 37.6867 22.3659C37.9012 22.3868 38.0895 22.3293 38.2987 22.2875C38.623 22.2299 38.9316 22.0835 39.1775 21.8324C39.507 21.5029 39.8052 21.1681 40.1086 20.8386C40.2602 20.6764 40.459 20.6084 40.6421 20.4986C40.7572 20.4253 40.7624 20.441 40.8147 20.4201C40.8618 20.4044 40.9089 20.3835 40.9559 20.3573C41.0553 20.305 41.1652 20.237 41.2593 20.1481L41.3116 20.0958C41.3273 20.0801 41.2959 20.0696 41.2855 20.0539C41.2541 20.0278 41.2227 20.0016 41.1861 19.9755C41.1129 19.9232 41.0396 19.8761 40.9664 19.8343C40.9298 19.8133 40.8932 19.7976 40.8618 19.7819L40.8095 19.761C40.7886 19.7506 40.7362 19.7192 40.7049 19.6983C40.5532 19.6093 40.4015 19.5204 40.2602 19.4263L37.7129 17.6792C37.5089 17.538 37.284 17.4229 37.0747 17.2869C36.9701 17.2189 36.876 17.1404 36.787 17.0567C36.4523 16.7481 36.128 16.4238 35.7828 16.1204L35.0348 15.4823L34.6581 15.1684L34.4698 15.0115L34.3757 14.9331L34.3548 14.9121L34.3443 14.9017L34.3391 14.8965L34.5117 14.6872L34.5169 14.682C34.5483 14.6454 34.5797 14.6088 34.6058 14.5669C34.7314 14.3943 34.7889 14.2217 34.7837 14.1485C34.7784 14.07 34.7628 14.1171 34.8412 14.1746C35.0034 14.2949 35.2963 14.2949 35.4584 14.2478C35.5108 14.2374 35.5369 14.2269 35.5526 14.2165L35.5631 14.2112C35.5264 14.2269 35.4794 14.2426 35.4271 14.2583C35.0191 14.3891 34.5535 14.5041 34.2763 14.2949C34.0985 14.1641 33.9729 13.8922 34.2397 13.6515C34.4228 13.4842 34.7471 13.3743 34.9668 13.4423C35.1864 13.4894 35.3329 13.6411 35.3224 13.8032C35.3224 13.8503 35.3643 13.8712 35.4009 13.8817C36.0809 14.0595 36.4732 14.5931 36.944 15.0325C37.0957 15.1737 37.2892 15.2731 37.4566 15.3986C37.5664 15.4771 37.671 15.566 37.7704 15.6549C37.9169 15.7857 38.0424 15.9478 38.2046 16.0577C38.3301 16.1414 38.4923 16.1675 38.4295 16.4552C38.419 16.5127 38.487 16.5546 38.5446 16.5232C38.78 16.4081 38.8532 16.5075 38.9473 16.5912C39.1932 16.8161 39.4181 17.062 39.6744 17.2712C39.8627 17.4281 40.0772 17.5537 40.3021 17.6687C40.6526 17.8413 41.0292 17.9826 41.3744 18.1604C41.5156 18.2337 41.6516 18.3226 41.7876 18.4115L41.8975 18.49L42.0596 18.6103L42.3996 18.8561C42.5042 18.9293 42.6507 18.9869 42.7553 19.0653C42.9488 19.2118 43.1633 19.3635 43.2261 19.5309C43.2522 19.625 43.2888 19.6983 43.3725 19.7663C43.4144 19.7976 43.4667 19.829 43.5347 19.8604C43.6027 19.8918 43.7125 19.9232 43.7178 19.965C43.7962 20.0592 43.6498 20.237 43.5242 20.373C43.3621 20.5456 43.1476 20.7026 42.9436 20.8333C42.6925 21.0007 42.4728 21.1001 42.4362 21.3669C42.4153 21.5185 42.2218 21.6336 42.0648 21.7016C41.8713 21.7905 41.7615 21.8219 41.6516 21.869C41.5418 21.9161 41.4372 21.9736 41.3378 22.0312C41.139 22.1567 40.9612 22.2927 40.7886 22.4444C40.3126 22.8472 39.7895 23.2551 39.1252 23.5428C38.8532 23.6527 38.5916 23.7155 38.2621 23.7521C37.603 23.8358 36.9649 23.6736 36.3477 23.5585C36.2954 23.5638 36.3006 23.5062 36.2797 23.4748L36.2378 23.365L36.1541 23.1401C36.1018 22.9884 36.0391 22.8472 36.0024 22.685C35.9187 22.3868 35.8089 21.9945 35.7932 21.8847C35.7618 21.7539 35.7409 21.6127 35.6572 21.5029C35.4584 21.2413 35.3852 20.9432 35.3591 20.6293C35.3277 20.2475 35.1237 19.9284 34.9197 19.6041C34.8726 19.5309 34.7941 19.4629 34.7837 19.3792C34.7104 18.7776 34.3234 18.286 34.1769 17.7054C34.0618 17.2398 34.0305 16.7481 33.9781 16.2564C33.9363 15.8798 33.9311 15.498 33.9049 15.1161C33.9049 15.09 33.8735 15.0743 33.8735 15.0481C33.8735 14.8285 34.1455 14.6663 34.6215 14.614C35.0452 14.5669 35.3224 14.6192 35.3748 14.8023C35.4323 15.0063 35.4637 15.2155 35.5055 15.4195L35.5788 15.4143Z" fill="black"/>
<path d="M57.5282 71.1161C57.319 71.1318 57.1359 71.1841 56.9006 71.1841C56.6913 71.1841 56.4769 71.1945 56.4559 71.4194C56.4507 71.477 56.3932 71.4874 56.367 71.5188C56.3095 71.5764 56.2519 71.6339 56.2101 71.7071C56.1892 71.7385 56.231 71.8274 56.1839 71.8327C55.9642 71.8641 55.823 71.9791 55.8596 72.2093C55.619 72.2041 55.6713 72.4028 55.6661 72.5388C55.6609 72.6801 55.5615 72.7794 55.6661 72.9468C55.6923 72.9887 55.6923 73.0305 55.6556 73.0462C55.4359 73.1717 55.4359 73.3914 55.4569 73.585C55.4726 73.7994 55.4098 73.9825 55.2424 74.2127C55.1587 74.3382 55.1692 74.469 55.2058 74.5893C55.2372 74.7357 55.3313 74.8665 55.3941 75.0025C55.483 75.2013 55.619 75.3843 55.8387 75.5203C56.1316 75.7086 56.3984 75.9074 56.6286 76.1533C56.7489 76.2788 56.7646 76.4566 56.8012 76.6345C56.8849 76.9745 56.911 77.3511 56.9738 77.7016C57.0104 77.9735 57.0889 78.2299 57.1464 78.5019C57.2039 78.7529 57.3033 79.0092 57.3347 79.276C57.4236 80.0658 57.3138 80.8766 57.0941 81.6351C57.0418 81.8181 57.0104 82.0064 56.9529 82.1895C56.9215 82.2784 56.8796 82.3621 56.8273 82.4406C56.639 82.7335 56.4193 82.9898 56.2206 83.2566C55.9276 83.628 55.6452 84.0098 55.3209 84.3341C55.1378 84.5276 54.9338 84.6793 54.8501 84.967C54.824 85.0455 54.7298 84.9827 54.5729 84.7787C54.3009 84.4335 54.008 84.0883 53.9033 83.8215C53.8301 83.6437 53.783 83.4972 53.8929 83.4763C54.0603 83.4449 53.9975 83.199 54.2852 83.2775C54.327 83.288 54.3375 83.2618 54.3375 83.2304C54.3793 82.7387 54.7403 82.54 54.9966 82.2261C55.0803 82.1267 55.1116 81.996 55.1692 81.8757C55.2058 81.8024 55.2476 81.7292 55.2947 81.6612C55.3575 81.5618 55.4569 81.4729 55.4935 81.3578C55.5196 81.2689 55.4778 81.1591 55.7498 81.1904C55.8073 81.1957 55.8178 81.1486 55.7655 81.1068C55.5719 80.9498 55.6243 80.8975 55.6556 80.8295C55.7446 80.6517 55.8439 80.4791 55.8963 80.2855C55.9276 80.1443 55.9276 79.9926 55.891 79.8461C55.8439 79.616 55.7236 79.3911 55.6452 79.1923C55.5719 79.0249 55.5562 78.8575 55.4883 78.7006C55.4726 78.664 55.415 78.6326 55.4046 78.596C55.3836 78.528 55.3209 78.4705 55.3836 78.392C55.4569 78.3031 55.4621 78.2351 55.2424 78.2246C55.1221 78.2194 55.1169 78.1619 55.1221 78.1095C55.1273 78.0415 55.1901 77.9579 55.2424 77.8742C55.3104 77.7695 55.3732 77.6649 55.1953 77.6388C55.1012 77.6283 55.1273 77.5499 55.1587 77.4766C55.2999 77.1576 55.1744 76.9274 54.9966 76.7234C54.756 76.4462 54.463 76.1585 54.212 75.808C54.1126 75.6668 54.0446 75.5099 53.9766 75.3425C53.7569 74.8246 53.7255 74.176 53.8563 73.585C53.8824 73.4699 53.919 73.3548 53.8876 73.2345C53.8301 72.9521 53.9243 72.6905 54.0812 72.4708C54.2747 72.2093 54.3166 71.9059 54.4003 71.5921C54.416 71.5188 54.4107 71.4299 54.463 71.3776C54.8292 71.0376 54.9704 70.5459 55.3418 70.253C55.6399 70.0228 55.9956 69.8868 56.3356 69.7665C56.5972 69.6724 56.8744 69.6201 57.1412 69.5678C57.1569 69.5625 57.1621 69.5364 57.183 69.5364C57.3452 69.5155 57.5387 69.7613 57.727 70.2007C57.8944 70.5878 57.9519 70.8336 57.8525 70.8911C57.7427 70.9487 57.6224 70.9905 57.5021 71.0428L57.5282 71.1161Z" fill="black"/>
<path d="M68.9573 15.3934C68.9311 15.1319 68.8736 14.8808 68.8997 14.6036C68.9206 14.3578 68.9625 14.1224 68.7428 13.9811C68.6853 13.9445 68.6957 13.8765 68.6696 13.8242C68.6225 13.7301 68.5963 13.6255 68.544 13.5313C68.5231 13.4895 68.4185 13.4685 68.4342 13.4162C68.5074 13.1599 68.4865 12.9507 68.2825 12.7676C68.4446 12.5532 68.2668 12.4224 68.1883 12.2498C68.1047 12.0772 68.1413 11.8941 67.9791 11.711C67.9373 11.6639 67.9268 11.6012 67.9582 11.5541C68.1308 11.2559 68.1256 10.9682 68.157 10.6492C68.204 10.3196 68.3871 10.0058 68.7166 9.83318C68.8788 9.73902 68.9834 9.60826 69.0828 9.47226C69.2136 9.3258 69.3077 9.13749 69.4489 8.99626C69.6477 8.78703 69.8465 8.5778 69.9982 8.30581C70.2074 7.93966 70.4532 7.62058 70.6939 7.34335C70.8194 7.20212 71.0025 7.16028 71.1699 7.09228C71.4994 6.95628 71.8342 6.8412 72.1271 6.66336C72.3468 6.52736 72.5298 6.34429 72.692 6.15075C72.8385 5.96244 72.9483 5.74275 73.0686 5.54398C73.44 4.95814 73.7329 4.34092 73.9317 3.69231C73.984 3.54062 73.9944 3.36277 74.0311 3.20585C74.0468 3.12739 74.0729 3.04893 74.1095 2.9757C74.2403 2.7037 74.3658 2.42647 74.46 2.13355C74.5907 1.71509 74.6692 1.27571 74.7529 0.836333C74.8 0.585258 74.8627 0.334182 74.7477 0.0674155C74.7163 -0.00581461 74.8366 -0.0215066 75.0824 0.0308006C75.5114 0.114492 75.9612 0.198184 76.2018 0.360337C76.3692 0.470182 76.4947 0.569564 76.4163 0.679409C76.3012 0.8311 76.479 1.0351 76.1913 1.16064C76.1495 1.17633 76.16 1.21294 76.1704 1.24433C76.3849 1.77786 76.1181 2.2434 75.9507 2.70893C75.8932 2.86062 75.8932 3.03324 75.8514 3.19016C75.8252 3.29477 75.7938 3.39416 75.752 3.49354C75.6892 3.63477 75.6003 3.76554 75.5532 3.912C75.5218 4.02184 75.5532 4.16307 75.276 4.15261C75.2184 4.15261 75.2027 4.21015 75.2498 4.25199C75.4277 4.42461 75.3649 4.50307 75.3126 4.58676C75.1766 4.81168 75.0197 5.02091 74.8837 5.24583C74.7895 5.41322 74.7111 5.59106 74.6431 5.7846C74.5384 6.08275 74.46 6.40705 74.3135 6.69997C74.1984 6.94582 74.0154 7.13935 73.8584 7.36428C73.8218 7.41135 73.8114 7.48981 73.7695 7.53689C73.6911 7.62058 73.644 7.74612 73.508 7.75658C73.3563 7.76181 73.2778 7.80366 73.3249 8.03381C73.3511 8.16458 73.2674 8.21688 73.1889 8.2535C73.0895 8.29535 72.9588 8.28488 72.8332 8.27965C72.6815 8.27442 72.5403 8.2535 72.5246 8.45227C72.5194 8.56211 72.4095 8.56734 72.3154 8.56211C71.9022 8.53073 71.6406 8.7138 71.4105 8.93872C71.0966 9.24211 70.8194 9.56641 70.6049 9.85933C70.516 9.97441 70.4271 10.0581 70.3486 10.1523C70.108 10.4399 69.9145 10.623 69.7262 10.9316C69.6948 10.9944 69.6425 11.0519 69.6791 11.1304C69.7523 11.3082 69.7 11.439 69.6216 11.6012C69.5169 11.7947 69.6268 12.0144 69.7523 12.2027C69.7837 12.2498 69.8413 12.2864 69.8308 12.3387C69.7785 12.7048 70.0976 12.9925 70.1969 13.3482C70.2806 13.6411 70.3068 13.9811 70.3748 14.3159C70.4271 14.5774 70.4637 14.8547 70.5265 15.1267C70.5317 15.1424 70.5579 15.1476 70.5579 15.1685C70.5788 15.3307 70.3486 15.5451 69.9145 15.7439C69.5274 15.9165 69.2659 15.9584 69.1926 15.8276C69.109 15.6811 69.0619 15.519 68.9939 15.3673L68.9573 15.3934Z" fill="black"/>
<path d="M41.8361 83.4453C41.9721 83.4087 42.082 83.3564 42.2598 83.3459C42.4167 83.3354 42.5737 83.325 42.4847 83.1785C42.4638 83.1419 42.5057 83.1367 42.5109 83.1157C42.5266 83.0791 42.5527 83.0425 42.558 82.9954C42.5632 82.9745 42.4952 82.917 42.5266 82.9117C42.6992 82.9013 42.7724 82.8437 42.6731 82.692C42.8823 82.7234 42.7881 82.5979 42.762 82.509C42.7411 82.42 42.8091 82.3782 42.7044 82.2422C42.6783 82.2056 42.6731 82.1794 42.7044 82.1794C42.9032 82.1585 42.9032 82.033 42.9189 81.9127C42.9346 81.7819 43.0392 81.7034 43.2589 81.6878C43.374 81.6773 43.4054 81.6145 43.4315 81.557C43.4681 81.489 43.4524 81.3896 43.4734 81.3164C43.5047 81.2065 43.51 81.081 43.4367 80.9136C43.3426 80.6939 43.2798 80.4899 43.2537 80.3068C43.2432 80.2127 43.3321 80.1761 43.4001 80.1185C43.5257 80.0087 43.6878 79.9198 43.7977 79.8047C43.8814 79.7158 43.918 79.6059 43.9441 79.4856C43.9703 79.3758 43.9494 79.2398 43.9703 79.1299C44.033 78.7952 44.1063 78.4709 44.169 78.1413C44.1847 78.0629 44.1743 77.9687 44.1847 77.885C44.19 77.8432 44.2057 77.8066 44.2318 77.7752C44.3207 77.6601 44.4253 77.5502 44.5038 77.4299C44.6137 77.2573 44.7026 77.069 44.8124 76.8912C44.8752 76.7918 44.9589 76.7029 44.8909 76.5355C44.87 76.4884 44.9798 76.5355 45.1943 76.661C45.5709 76.8859 45.9632 77.1109 46.1619 77.2835C46.2979 77.3986 46.4026 77.4927 46.3241 77.5032C46.209 77.5189 46.3555 77.6758 46.0887 77.613C46.0521 77.6026 46.0573 77.6235 46.0626 77.6392C46.2299 77.9582 45.9946 78.0629 45.869 78.225C45.8272 78.2773 45.8376 78.361 45.8219 78.4238C45.8115 78.4656 45.7906 78.5022 45.7644 78.5389C45.7278 78.5912 45.6598 78.6225 45.6493 78.6905C45.6389 78.7376 45.6912 78.8161 45.4453 78.7324C45.393 78.7167 45.393 78.7429 45.4453 78.7795C45.6389 78.9207 45.597 78.9416 45.5761 78.973C45.5081 79.0567 45.4244 79.1299 45.3773 79.2241C45.3407 79.2921 45.3407 79.381 45.3564 79.4752C45.3773 79.6216 45.4453 79.7942 45.461 79.9355C45.4715 80.0558 45.4401 80.1499 45.4296 80.2598C45.4296 80.2859 45.461 80.3278 45.4558 80.3539C45.4453 80.3958 45.4767 80.4638 45.3826 80.4585C45.278 80.4533 45.2466 80.4742 45.414 80.6102C45.5081 80.6887 45.482 80.7148 45.4453 80.7305C45.4035 80.7515 45.3146 80.7462 45.2256 80.741C45.121 80.7358 45.0112 80.7253 45.1263 80.8404C45.189 80.9031 45.1263 80.9136 45.0635 80.9084C44.7758 80.9031 44.734 81.0287 44.734 81.1804C44.734 81.3844 44.7706 81.6041 44.7758 81.8081C44.781 81.8865 44.7497 81.9545 44.734 82.0225C44.6764 82.237 44.5195 82.4044 44.3521 82.5613C44.3207 82.5927 44.2789 82.6188 44.2998 82.6816C44.3469 82.8176 44.2789 82.8908 44.169 82.9431C44.033 83.0059 44.0592 83.1471 44.0853 83.2936C44.0906 83.3302 44.122 83.3773 44.0958 83.393C43.897 83.5028 44.0017 83.7643 43.8761 83.9108C43.7715 84.0259 43.5937 84.0991 43.4263 84.1828C43.3007 84.2456 43.149 84.2979 43.0078 84.3554C42.9974 84.3607 43.013 84.3763 43.0026 84.3763C42.9137 84.4025 42.626 84.277 42.2284 84.0259C41.8728 83.8062 41.6792 83.6545 41.7158 83.6022C41.7524 83.5499 41.8204 83.508 41.8728 83.461C41.878 83.4662 41.8571 83.4557 41.8361 83.4453Z" fill="black"/>
<path d="M0.224921 45.3389C0.282459 45.4435 0.339997 45.5168 0.397535 45.6632C0.449842 45.794 0.496918 45.93 0.549225 45.7835C0.564918 45.7469 0.575379 45.7783 0.591071 45.7783C0.617225 45.7783 0.643379 45.7783 0.664302 45.7626C0.674764 45.7574 0.690455 45.6685 0.700917 45.6998C0.753224 45.8463 0.805532 45.8882 0.857839 45.726C0.899685 45.9248 0.941531 45.7835 0.978146 45.7208C1.01999 45.658 1.06184 45.6998 1.10368 45.5482C1.11414 45.5063 1.1246 45.4906 1.1403 45.522C1.2083 45.6894 1.27107 45.6266 1.33906 45.5848C1.4123 45.5377 1.48029 45.59 1.55352 45.7783C1.59014 45.8777 1.63199 45.8725 1.6686 45.8725C1.71568 45.8725 1.76275 45.8149 1.80983 45.7992C1.87783 45.7783 1.94583 45.7208 2.0086 45.5795C2.09752 45.3912 2.18644 45.2395 2.27536 45.1349C2.32244 45.0826 2.36952 45.1454 2.41136 45.1768C2.50552 45.2395 2.59444 45.3389 2.68859 45.3808C2.75659 45.4122 2.82982 45.3912 2.89782 45.3598C2.96059 45.3337 3.02859 45.25 3.09136 45.2134C3.28489 45.114 3.4732 45.0251 3.66674 44.9257C3.71381 44.8995 3.76089 44.8472 3.80274 44.8159C3.82366 44.8002 3.84981 44.8002 3.87074 44.8054C3.95443 44.8263 4.04335 44.8682 4.12704 44.8786C4.24735 44.8943 4.37288 44.8839 4.49319 44.8995C4.56119 44.91 4.63442 44.9414 4.70242 44.8002C4.72334 44.7583 4.72858 44.8786 4.72334 45.1297C4.71288 45.5638 4.70242 46.0189 4.66581 46.2805C4.64488 46.4583 4.62396 46.5891 4.59258 46.5263C4.55073 46.4321 4.50888 46.6361 4.46704 46.3746C4.46181 46.338 4.45135 46.3485 4.44611 46.3641C4.32581 46.6623 4.2055 46.5054 4.0852 46.4688C4.04858 46.4583 4.00673 46.5054 3.96489 46.5158C3.93874 46.5263 3.91258 46.5263 3.88643 46.5211C3.84981 46.5106 3.8132 46.4688 3.77658 46.4897C3.75043 46.5054 3.72427 46.5891 3.69812 46.3328C3.69289 46.2805 3.6772 46.2909 3.67197 46.3537C3.65104 46.5943 3.63012 46.5681 3.60397 46.5577C3.5412 46.5368 3.47843 46.5001 3.41566 46.5001C3.36859 46.5001 3.32151 46.542 3.27966 46.5995C3.20643 46.6885 3.13843 46.8245 3.0652 46.9081C3.00767 46.9761 2.9449 46.9918 2.88736 47.0337C2.87167 47.0441 2.86121 47.0964 2.84551 47.1017C2.81936 47.1121 2.79321 47.1697 2.76705 47.086C2.7409 46.9918 2.71998 46.9761 2.69382 47.1854C2.67813 47.3057 2.65721 47.29 2.64152 47.2691C2.62059 47.2429 2.59444 47.1592 2.57352 47.0808C2.54736 46.9866 2.52121 46.882 2.49505 47.0441C2.47936 47.1278 2.45844 47.0808 2.44275 47.0232C2.36429 46.7669 2.28583 46.7931 2.20737 46.8611C2.10275 46.9552 1.99291 47.0912 1.88829 47.1958C1.84644 47.2377 1.8046 47.2429 1.76275 47.2586C1.63199 47.3109 1.50122 47.2481 1.37568 47.1749C1.34953 47.1592 1.32337 47.1383 1.29722 47.1854C1.23968 47.2952 1.18214 47.2691 1.12461 47.1906C1.05661 47.1017 0.983375 47.1906 0.915376 47.2848C0.899683 47.3057 0.883991 47.358 0.868299 47.3423C0.758454 47.222 0.643379 47.4364 0.533534 47.3894C0.444612 47.3528 0.355689 47.2272 0.266767 47.1226C0.198767 47.0389 0.130767 46.9291 0.0575371 46.8349C0.0523064 46.8297 0.0470763 46.8506 0.0418456 46.8401C-2.06551e-07 46.7721 -0.0104614 46.4635 0.0104615 45.9928C0.0261537 45.5743 0.0523071 45.3337 0.0889222 45.3389C0.130768 45.3494 0.167383 45.386 0.209229 45.4069C0.224921 45.3808 0.224921 45.3599 0.224921 45.3389Z" fill="black"/>
<path d="M58.4903 3.83326C58.4066 3.9431 58.3595 4.04772 58.234 4.16279C58.1242 4.26741 58.0091 4.37202 58.1712 4.4191C58.2131 4.42956 58.1869 4.46094 58.1922 4.48187C58.2026 4.51848 58.2079 4.56033 58.234 4.59171C58.2445 4.60741 58.3334 4.60741 58.3072 4.62833C58.1817 4.73817 58.1608 4.82709 58.3386 4.87417C58.1556 4.97879 58.3125 5.01017 58.3857 5.05725C58.4589 5.10432 58.4328 5.17755 58.6002 5.20894C58.642 5.21417 58.6629 5.22986 58.642 5.25601C58.5008 5.39201 58.5845 5.48093 58.6472 5.57509C58.7152 5.67447 58.6891 5.79478 58.5322 5.94124C58.4485 6.0197 58.4694 6.07724 58.4851 6.14001C58.5008 6.20801 58.574 6.26554 58.6054 6.33354C58.6525 6.43293 58.7309 6.51662 58.8931 6.58985C59.1075 6.684 59.2854 6.78862 59.4214 6.89846C59.4894 6.956 59.4423 7.03969 59.4318 7.11815C59.4057 7.26984 59.3377 7.432 59.3325 7.58369C59.3272 7.69353 59.3691 7.79815 59.4214 7.89753C59.4685 7.99168 59.5731 8.07014 59.6306 8.15907C59.798 8.42583 59.9497 8.69783 60.1118 8.96983C60.1485 9.0326 60.2217 9.09014 60.2635 9.15814C60.2845 9.18952 60.2949 9.22613 60.2949 9.26275C60.3001 9.39875 60.2897 9.53475 60.3106 9.67075C60.3368 9.85905 60.3943 10.0421 60.4152 10.2357C60.4309 10.3455 60.4205 10.4554 60.5826 10.5286C60.6297 10.5495 60.5146 10.5861 60.2688 10.628C59.8398 10.7064 59.3952 10.7901 59.1285 10.8006C58.9506 10.8058 58.8094 10.8058 58.8617 10.7483C58.9402 10.6646 58.7257 10.6437 58.9715 10.5286C59.0082 10.5129 58.9925 10.5024 58.9715 10.4972C58.642 10.3821 58.7519 10.1624 58.7466 9.97413C58.7466 9.91136 58.6839 9.86428 58.6577 9.80674C58.642 9.77013 58.6315 9.73352 58.6263 9.69167C58.6211 9.63413 58.6525 9.56613 58.6159 9.51382C58.5897 9.47721 58.5008 9.45105 58.7414 9.3569C58.7937 9.33598 58.7728 9.31506 58.71 9.32552C58.4694 9.34644 58.4903 9.30982 58.4851 9.27321C58.4799 9.17383 58.5008 9.06921 58.4746 8.97506C58.4537 8.90706 58.4014 8.84429 58.3334 8.78675C58.2235 8.69783 58.0614 8.61937 57.9568 8.53045C57.8679 8.45722 57.8365 8.36829 57.7685 8.2846C57.7528 8.26368 57.7005 8.25845 57.69 8.23753C57.6691 8.20091 57.6063 8.17476 57.6796 8.11722C57.758 8.05445 57.7737 8.02307 57.5592 8.0283C57.4389 8.03353 57.4442 7.99691 57.4546 7.96553C57.4703 7.92368 57.5436 7.87138 57.6116 7.81907C57.6952 7.7563 57.7842 7.69876 57.622 7.6883C57.5331 7.68307 57.5749 7.64123 57.6272 7.59938C57.8469 7.42677 57.7999 7.31169 57.7057 7.20708C57.5749 7.06585 57.4076 6.93508 57.2663 6.79908C57.214 6.74677 57.1931 6.684 57.1617 6.62123C57.0676 6.43816 57.0833 6.2237 57.1094 6.01447C57.1146 5.97262 57.1251 5.93078 57.0728 5.89939C56.9473 5.83663 56.9525 5.74247 57.0048 5.63786C57.0676 5.51232 56.9577 5.42863 56.8426 5.34494C56.8165 5.32401 56.7589 5.31355 56.7694 5.28217C56.8479 5.0834 56.602 4.96309 56.6073 4.78525C56.6125 4.63879 56.7014 4.47664 56.7746 4.31972C56.8322 4.19418 56.9159 4.06864 56.9839 3.9431C56.9891 3.93264 56.9682 3.93264 56.9734 3.92218C57.0257 3.84895 57.3239 3.76003 57.7894 3.68157C58.2026 3.61357 58.4485 3.59787 58.4537 3.65541C58.4589 3.71818 58.438 3.78618 58.4276 3.84895C58.4485 3.83849 58.4694 3.83849 58.4903 3.83326Z" fill="black"/>
<path d="M91.0519 65.6705C89.059 63.3062 87.0922 60.9262 85.1307 58.541L85.1098 58.6299C88.0442 62.8982 75.3754 74.2541 69.6321 72.1304C71.1438 73.8409 72.6607 75.5618 74.188 77.2932C77.2585 80.7716 82.4526 81.4411 86.2605 78.7891C87.0609 78.2347 87.8716 77.6227 88.6876 76.9532C89.3048 76.4458 89.8854 75.9384 90.4347 75.431C93.2122 72.8523 93.4894 68.5631 91.0519 65.6705Z" fill="#F29AA6"/>
<path d="M88.5616 63.8504C88.1118 63.139 87.6253 62.4486 87.2121 61.7163L87.1441 61.596L87.1022 61.507L87.0029 61.3187C86.9296 61.188 86.8512 61.052 86.7623 60.9212C86.5844 60.6597 86.3752 60.4086 86.2078 60.3197C86.1241 60.2778 86.0143 60.0947 85.9149 59.9744L85.4598 59.4409C85.4493 59.4828 85.4441 59.5246 85.4703 59.5612C85.533 59.6972 85.69 60.0163 85.6952 60.0477C85.7789 60.1994 85.69 60.9787 85.6533 61.6117C85.6167 61.6483 85.5853 61.6901 85.554 61.7424C85.5383 61.7738 85.5278 61.7843 85.5121 61.8104L85.4598 61.915C85.3918 62.0563 85.3343 62.1975 85.2872 62.344C85.1669 62.6264 85.0937 62.935 84.9629 63.2175C84.717 63.7981 84.33 64.295 84.0894 64.8756C84.0266 65.0325 83.922 65.1895 83.7964 65.2993C83.0432 65.9793 82.426 66.743 81.7303 67.4648C80.9875 68.239 80.1297 68.8928 79.1725 69.3688C78.6651 69.6251 78.1891 69.9599 77.7026 70.2685C77.1273 70.6399 76.5623 71.027 75.9556 71.3513C75.0716 71.8168 74.1771 72.2509 73.2199 72.638C73.0054 72.7322 72.7805 72.8159 72.5504 72.8786L72.2418 73.0094C72.0744 73.0774 71.9541 73.1192 71.8756 73.1349C71.8181 73.1663 71.703 73.1036 71.9331 73.2762C72.1476 73.4383 72.1319 73.5116 72.2365 73.6789L72.315 73.8045C72.315 73.8097 72.3725 73.8882 72.4301 73.9509L72.587 74.1497L73.2147 74.9448C73.6331 75.4783 74.0516 76.0066 74.4857 76.5245L74.7316 76.8174L74.9722 77.0737C75.1343 77.2411 75.2913 77.4189 75.4796 77.5601C75.83 77.874 76.2223 78.1355 76.6199 78.3761C77.3679 78.826 78.2153 79.0718 79.0469 79.2549C80.2866 79.5374 81.5786 79.4903 82.7817 79.1921C83.0851 79.1294 83.3727 79.0038 83.6709 78.9201C83.9481 78.7841 84.2463 78.69 84.513 78.5331C84.785 78.3866 85.057 78.2401 85.3029 78.0571C85.4284 77.9629 85.554 77.8949 85.6847 77.7851L86.0823 77.4608L87.5782 76.1897C87.8346 75.9909 88.0752 75.7712 88.3262 75.5568C88.7761 75.1697 89.2835 74.7722 89.6967 74.4008C90.0838 74.0555 90.4028 73.6423 90.6853 73.2082C91.4647 71.9371 91.7001 70.3574 91.381 68.9085C91.2031 68.0873 90.8527 67.2765 90.2302 66.7012C90.0628 66.5442 90.1047 66.403 90.3505 66.3141C90.7742 66.1676 91.2345 65.9845 91.7262 66.2565C91.8884 66.3507 92.0453 66.4553 92.1761 66.5861C92.3016 66.7221 92.401 66.8895 92.469 67.0935C92.6416 67.6898 93.0444 68.2861 92.8822 68.9451C92.8613 69.0341 92.8927 69.1544 92.924 69.2537C93.1908 70.1377 93.1751 71.1002 92.945 72.0051C92.7148 72.91 92.2807 73.7522 91.7367 74.5002C91.5588 74.746 91.3705 74.9814 91.1874 75.222C90.9834 75.4365 90.7847 75.6928 90.5702 75.8758C90.293 76.1321 90.0105 76.378 89.7228 76.6238C89.3044 76.9795 88.8702 77.3091 88.4413 77.6438C88.1222 77.9054 87.8555 78.214 87.4004 78.2297C87.3063 78.2349 87.1441 78.3761 87.1179 78.4703C87.0238 78.8364 86.7466 79.03 86.4536 79.2183C85.6533 79.7466 84.7641 80.1127 83.8592 80.4004L83.3518 80.5521L82.8392 80.6776C82.4992 80.7718 82.1488 80.8189 81.7983 80.8869C80.7103 81.0543 79.5752 81.0856 78.4559 80.8607C77.5248 80.6672 76.6146 80.322 75.783 79.8407C75.579 79.7466 75.3802 79.6472 75.1919 79.5269C74.8414 79.3124 74.4805 79.0614 74.2399 78.7475C73.9836 78.3918 73.7848 78.1355 73.3559 77.9943C73.1362 77.9211 72.9322 77.6752 72.7753 77.466C72.5765 77.1992 72.4196 76.8958 72.2627 76.5977C72.0744 76.242 71.907 75.902 71.5095 75.6875C71.295 75.5725 71.1276 75.3057 71.0021 75.0755L70.9759 75.0285L70.9236 74.9552L70.8242 74.8088L70.6255 74.5263L70.2279 73.9875C69.9664 73.6371 69.6996 73.3076 69.4172 72.978C69.1399 72.6485 68.8418 72.319 68.5332 71.979L68.0519 71.4611L67.9264 71.3303C67.9055 71.3042 67.9107 71.299 67.9055 71.278L67.8689 71.1839L67.8113 71.0583L67.5498 70.6974L69.0301 71.0531L69.7676 71.2257L70.1442 71.3146L70.3325 71.3617L70.4633 71.3722L71.5095 71.4559C71.703 71.4873 71.8233 71.4402 71.9802 71.4245C72.1267 71.3983 72.2941 71.3565 72.3359 71.346C72.927 71.1839 73.5128 70.9537 74.083 70.6765C74.5904 70.4411 75.103 70.1848 75.5999 69.9076C77.1482 69.0288 78.6546 68.0193 80.0565 66.8633C80.3285 66.6332 80.6109 66.4082 80.8254 66.1258C81.3275 65.4824 81.882 64.9175 82.4312 64.3421C83.0955 63.6516 83.5611 62.799 83.854 61.9621C83.9324 61.7686 83.9481 61.5646 84.037 61.392L84.0789 61.3135C84.1103 61.235 84.1417 61.1304 84.1417 61.0624L84.1992 60.6021L84.2567 60.1418L84.2829 59.9117C84.2934 59.8855 84.2777 59.8071 84.2672 59.7391L84.2306 59.5298L83.9429 57.8665C83.9324 57.7985 83.9115 57.72 83.9115 57.6625L83.9167 57.516L83.9272 57.2231L83.9429 56.632L83.9534 56.3339V56.2606V56.224C83.9534 56.2188 83.9586 56.224 83.9638 56.224H84.0004L84.1417 56.2292L84.2829 56.2345C84.3195 56.292 84.3457 56.3705 84.377 56.4385C84.4398 56.5797 84.5235 56.7209 84.534 56.8935L84.5758 57.1498L84.5967 57.2806C84.6124 57.3172 84.6595 57.3277 84.6909 57.3538C85.078 57.448 85.4703 57.5369 85.8678 57.6677C86.0613 57.5683 86.5583 58.3111 86.9506 58.7923L88.1379 60.3249L88.2792 60.5132L88.3524 60.6074L88.389 60.6597L88.5302 60.8584L88.8127 61.2612L89.3776 62.0667C89.9635 62.8984 90.5179 63.7458 91.0933 64.5827C91.1299 64.6402 91.1927 64.6769 91.2293 64.7344C91.5431 65.2209 91.4228 65.5609 90.8893 65.655C90.4133 65.7387 89.9844 65.6027 89.6601 65.1947C89.2992 64.7449 88.9592 64.2793 88.6139 63.8243L88.5616 63.8504Z" fill="black"/>
<path d="M85.1141 58.63L85.1351 58.541C76.3736 47.8808 67.6383 38.2929 58.7251 27.7059C58.7042 27.685 58.6676 27.6902 58.6624 27.7216C57.747 33.5016 45.9465 41.2849 41.8874 40.3329C41.7671 40.3067 41.6887 40.4427 41.7671 40.5317C51.2295 51.2546 60.2839 61.5225 69.6364 72.1305C75.3798 74.2541 88.0486 62.8982 85.1141 58.63Z" fill="#EAC464"/>
<path d="M81.0443 54.8013C80.1237 53.5459 79.1664 52.301 78.2772 51.0352C77.4821 49.9053 76.708 48.7912 75.6828 47.8287C75.416 47.5777 75.1859 47.2586 74.94 46.9761L73.58 45.4226C73.3708 45.1872 73.0883 44.9989 72.921 44.7583C72.0945 43.5814 71.1896 42.4829 70.1277 41.5048C69.5471 40.5319 68.7155 39.7943 67.9308 38.9888C67.1462 38.1833 66.4296 37.2888 65.5875 36.5513C65.3626 36.3578 65.1324 36.1119 64.9546 35.8661C63.898 34.3858 62.6687 33.0519 61.4447 31.692C61.0315 31.2316 60.6287 30.7661 60.2364 30.2953L59.9592 29.9606L59.7552 29.7043L59.342 29.1603L58.8765 28.5117C58.8608 28.4698 58.8085 28.4698 58.8137 28.5064L58.7875 28.5797L58.7405 28.7314C58.7143 28.836 58.6515 28.9354 58.6045 29.0452C58.3429 29.6101 57.6943 30.74 57.0719 31.5612C56.3082 32.5916 55.466 33.5593 54.5402 34.4381C53.1959 35.7144 51.7574 36.8651 50.2719 37.9741C49.2833 38.7064 48.2372 39.3811 47.1283 39.9722C46.5686 40.2599 45.9984 40.5371 45.3916 40.7673C45.0935 40.8876 44.7797 40.9869 44.4606 41.0863C44.2514 41.1386 44.2409 41.1491 44.2043 41.1648L44.0944 41.2014L44.0787 41.2066C44.0107 41.2276 43.9427 41.238 43.8695 41.2328C43.8329 41.2328 43.7963 41.2223 43.7544 41.2171C43.7335 41.2119 43.7126 41.2328 43.7126 41.2485C43.7178 41.2642 43.7335 41.2746 43.7387 41.2903L44.0003 41.6669L46.2443 44.3765L48.6765 47.2743C49.9058 48.7127 51.1768 50.125 52.4531 51.5269L56.0676 55.4081L66.6859 67.0098L69.2647 69.7716L69.8976 70.4725L70.2114 70.8282L70.3631 71.0008C70.3631 71.0008 70.3684 71.0061 70.3474 71.0008C70.3161 70.9904 70.3893 71.0113 70.4311 71.027C70.473 71.0479 70.5357 71.0427 70.5828 71.0532L70.8967 71.1055L71.2367 71.1159C71.4616 71.1316 71.7074 71.095 71.9428 71.0845C72.1887 71.0375 72.4293 71.0218 72.6803 70.9538C73.6742 70.7288 74.6837 70.3209 75.6462 69.8135C77.0271 69.0812 78.3452 68.1606 79.5535 67.1249C80.1603 66.6123 80.7409 66.063 81.2849 65.4877C81.8341 64.9175 82.3467 64.316 82.8018 63.6935C83.3196 62.9874 83.7799 62.2446 84.0624 61.5019C84.2141 61.1305 84.2821 60.7643 84.3239 60.4243C84.3239 60.1053 84.2978 59.8019 84.1722 59.6188C84.0362 59.4253 84.0938 59.2788 84.3501 59.2369C84.5645 59.216 84.8627 59.1951 85.0928 59.3206C85.3492 59.4357 85.6055 59.6868 85.7362 60.168C85.9141 60.8166 85.8879 61.5018 85.5218 62.2237C85.0039 63.2646 84.4861 64.3787 83.5916 65.1006C83.4661 65.2 83.3353 65.383 83.2307 65.54C82.2735 66.9 81.0757 68.0873 79.7575 69.1073C78.4394 70.1273 77.0009 71.0008 75.4735 71.6861C74.4745 72.1307 73.444 72.5491 72.3299 72.7427C71.608 72.8577 70.8496 72.8839 70.1016 72.727L69.6518 72.591C69.5681 72.5648 69.4896 72.5439 69.4111 72.5178L69.249 72.3294L68.7207 71.707C68.3911 71.3199 68.0616 70.9381 67.7216 70.5667C67.209 70.007 66.6545 69.5101 66.393 68.8196C66.3407 68.6784 66.0635 68.3855 65.9222 68.3227C65.3887 68.0769 64.9912 67.5852 64.5779 67.1092C63.469 65.8224 62.3758 64.5252 61.2512 63.2541C60.4195 62.3126 59.5565 61.392 58.6882 60.4923C57.3229 59.1009 55.9682 57.7148 54.603 56.3287C53.4784 55.157 52.3851 53.9382 51.271 52.7456C51.0147 52.4684 50.727 52.2225 50.4759 51.9453C50.0104 51.4327 49.4873 50.9253 49.1159 50.3813C48.7079 49.7798 48.347 49.3456 47.7507 48.9847C47.4159 48.7807 47.0289 48.3309 46.7255 47.9543C46.3332 47.4678 45.988 46.9552 45.6427 46.4426C45.2295 45.8306 44.8581 45.2552 44.2147 44.7688C43.8695 44.5072 43.5243 44.0365 43.2523 43.6389C42.9907 43.2623 42.8495 43.0426 42.3421 42.4254L41.7145 41.6565C41.6098 41.5309 41.5052 41.4054 41.4215 41.2851C41.3483 41.1648 41.296 41.0497 41.2489 40.9399C41.1705 40.7306 41.1234 40.5476 41.0868 40.3906C41.0763 40.3488 41.0658 40.3122 41.0606 40.2703C41.0554 40.2233 41.0763 40.15 41.1129 40.0977C41.1495 40.0402 41.1861 40.0245 41.2123 40.0193L41.3065 39.9931C41.4111 39.9774 41.6098 39.8833 41.7772 39.8153C41.8923 39.7787 42.0544 39.7473 42.1904 39.7107L42.4049 39.6583C42.4624 39.6322 42.5984 39.6583 42.6926 39.6583C43.0692 39.6427 43.4563 39.6479 43.7806 39.5537L44.1258 39.4648L44.4187 39.3707C45.7107 38.947 46.9609 38.2984 48.1535 37.5713C49.3461 36.839 50.4864 36.0125 51.5639 35.1285C52.4113 34.4329 53.243 33.7162 54.0067 32.9473C54.9586 32.0006 55.8269 30.9858 56.5226 29.9135L56.7632 29.5107C56.8051 29.4427 56.8417 29.3747 56.8783 29.3067L57.0196 29.0347C57.098 28.8778 57.1608 28.7314 57.2183 28.5587L57.3752 28.0304L57.5322 27.5021C57.5531 27.3975 57.6002 27.3714 57.6368 27.3191L57.7519 27.1778C57.8983 27.0105 58.0866 26.7385 58.1808 26.7385L58.3482 26.6495L58.4318 26.6025C58.4423 26.5972 58.4842 26.5868 58.5103 26.5868C58.5312 26.5815 58.5574 26.6025 58.5783 26.6129L59.6768 27.1203L61.654 29.516C62.0934 30.0495 62.5327 30.604 63.014 31.0904C64.1229 32.2203 65.1272 33.4286 66.1053 34.6682C67.2822 36.1642 68.5847 37.5294 69.8976 38.8947C70.201 39.2137 70.5357 39.5171 70.8077 39.8519C72.7065 42.2214 74.8616 44.366 76.8074 46.6937C78.3818 48.5767 79.883 50.5173 81.3843 52.4579C82.5455 53.9539 83.6753 55.4708 84.7999 56.993C84.8732 57.0923 84.9725 57.1813 85.0458 57.2807C85.3596 57.7148 85.5165 58.0496 85.5008 58.2588L85.6002 58.6563C85.4642 58.7505 85.3282 58.7243 85.187 58.5726L85.1765 58.5308C85.119 58.536 85.0458 58.536 84.9673 58.5203C84.3553 58.4366 83.7172 58.0443 83.1052 57.2963L81.1018 54.7908L81.0443 54.8013Z" fill="black"/>
<path d="M48.87 38.4924C49.1368 38.9109 49.4245 39.3084 49.6547 39.7478C49.8587 40.1454 50.0522 40.5377 50.4654 40.7469C50.57 40.7992 50.6328 40.9143 50.7165 40.9927C50.8682 41.1444 51.0146 41.2961 51.1716 41.4426C51.2448 41.5053 51.3756 41.521 51.4174 41.6047C51.6214 42.0232 51.8986 42.3684 52.3223 42.5776C52.4165 42.9647 52.7565 43.1112 53.0442 43.3204C53.3266 43.5296 53.5411 43.8173 53.8915 43.9586C53.9857 43.9952 54.0694 44.0632 54.1112 44.1469C54.378 44.6699 54.8017 45.0361 55.2254 45.4232C55.67 45.8364 56.0466 46.3124 56.3186 46.8825C56.4651 47.1859 56.6952 47.4265 56.9201 47.6671C57.1869 47.9548 57.4903 48.2059 57.7675 48.4831C58.1703 48.8859 58.5887 49.2677 59.07 49.592C59.7133 50.0262 60.3358 50.4917 60.9216 50.9886C61.2198 51.2397 61.4342 51.5797 61.6696 51.8936C62.1404 52.5212 62.5798 53.1751 63.0662 53.7923C63.4272 54.2579 63.8299 54.6868 64.2327 55.1157C64.6093 55.5132 65.033 55.8741 65.4148 56.2717C66.5447 57.4434 67.6588 58.6412 68.773 59.8338C69.0397 60.1215 69.3274 60.3883 69.5994 60.6707C69.7354 60.8119 69.8609 60.9636 69.976 61.1206L71.2889 62.8624C71.9271 63.6836 72.5862 64.4891 73.2138 65.3156C73.5695 65.7864 73.9043 66.2728 74.3803 66.6442C74.5111 66.7488 74.4535 66.8639 74.2181 66.9685C73.8101 67.1516 73.3969 67.366 73.0203 67.3033C72.764 67.2614 72.5495 67.2039 72.4554 66.979C72.3194 66.6494 71.9323 66.4925 71.9323 66.0636C71.9323 66.0008 71.88 65.9538 71.8329 65.9224C70.9751 65.3156 70.4677 64.4212 69.8557 63.6104C69.6569 63.3436 69.4111 63.1187 69.1914 62.8676C69.0502 62.7055 68.9142 62.5381 68.7834 62.3707C68.5899 62.1249 68.4277 61.8529 68.2133 61.6227C68.0511 61.4501 67.8419 61.3298 67.9099 61.0003C67.9256 60.9323 67.8367 60.8433 67.7582 60.8486C67.4705 60.8695 67.3659 60.7021 67.2456 60.5504C66.9265 60.1372 66.6231 59.703 66.2831 59.3055C66.0321 59.0073 65.7548 58.7353 65.4619 58.4738C65.0068 58.071 64.5151 57.7049 64.0653 57.2969C63.6887 56.9569 63.3487 56.5855 62.9878 56.2298C62.9041 56.1461 62.789 56.0938 62.7105 56.0101C62.5641 55.8532 62.3706 55.7225 62.3026 55.5185C62.2241 55.2883 62.1247 55.1471 61.8318 55.1262C61.6644 55.1157 61.5546 54.9692 61.4709 54.8437C61.3662 54.6815 61.2983 54.4828 61.2355 54.2892C61.157 54.0591 61.0943 53.8289 60.817 53.7557C60.6653 53.7139 60.5869 53.5465 60.5293 53.3948C60.2887 52.7357 59.8336 52.2597 59.342 51.8151C58.6777 51.2083 57.9767 50.6382 57.302 50.0471C57.0352 49.817 56.7946 49.5607 56.5435 49.3096C55.7694 48.5354 55.0789 47.6933 54.3832 46.8459C54.2472 46.6785 54.1165 46.5059 53.9386 46.3856C53.5254 46.1032 53.2116 45.7318 52.9343 45.329C52.5943 44.8425 52.1288 44.4816 51.658 44.1207C51.5482 44.037 51.4174 43.9742 51.339 43.8644C50.7793 43.1007 49.9737 42.5829 49.3565 41.882C48.8544 41.317 48.415 40.6894 47.9599 40.0774C47.6042 39.6066 47.2747 39.1149 46.9295 38.6337C46.9085 38.6023 46.8615 38.5866 46.8405 38.5552C46.6522 38.2728 46.7987 37.9798 47.2433 37.7549C47.6356 37.5562 47.9651 37.5405 48.1744 37.7601C48.4045 38.0008 48.6137 38.2623 48.8282 38.5186L48.87 38.4924Z" fill="black"/>
<path d="M67.0423 52.0031C67.1521 52.2594 67.2829 52.4947 67.3614 52.7824C67.4294 53.0387 67.4921 53.2898 67.7589 53.3578C67.8269 53.3735 67.8478 53.4467 67.8949 53.4886C67.9786 53.567 68.057 53.6507 68.146 53.724C68.1878 53.7553 68.2872 53.7344 68.3029 53.792C68.3657 54.064 68.5017 54.2627 68.7789 54.3203C68.7632 54.5923 68.9933 54.6236 69.1712 54.7178C69.3438 54.812 69.4484 54.9741 69.6838 55.0055C69.7466 55.0107 69.7989 55.0421 69.8093 55.0996C69.8983 55.4344 70.1493 55.6122 70.3847 55.8006C70.641 56.0046 70.8241 56.2818 70.9078 56.6427C70.9549 56.8362 71.0804 56.9618 71.2007 57.0925C71.3419 57.2442 71.5302 57.3593 71.6819 57.5058C71.9069 57.715 72.1527 57.8981 72.4613 58.0288C72.8745 58.2015 73.2564 58.4055 73.6121 58.6356C73.7899 58.7559 73.8841 58.9547 74.0044 59.1325C74.2345 59.4882 74.449 59.8648 74.6791 60.2153C74.857 60.4768 75.0767 60.707 75.2964 60.9319C75.5056 61.1411 75.7567 61.3137 75.9711 61.5177L77.8699 63.3537C78.0216 63.5002 78.1994 63.6257 78.3563 63.7722C78.4348 63.8454 78.5028 63.9239 78.5656 64.0076C78.7957 64.3214 79.0154 64.6509 79.256 64.9596L80.3126 66.262C80.5062 66.5131 80.684 66.7746 80.9979 66.9315C81.0868 66.9734 81.0135 67.0675 80.7939 67.1983C80.4172 67.4232 80.0302 67.6691 79.7268 67.7109C79.5228 67.7423 79.3554 67.7528 79.324 67.6168C79.2822 67.418 78.9997 67.3971 79.0886 67.0937C79.0991 67.0519 79.0677 67.0309 79.0363 67.0152C78.461 66.7851 78.236 66.2672 77.917 65.8279C77.8123 65.6866 77.6607 65.5768 77.5403 65.4512C77.4619 65.3675 77.3834 65.2786 77.3154 65.1897C77.216 65.0537 77.1428 64.902 77.0173 64.7869C76.9231 64.698 76.7819 64.6614 76.9074 64.4051C76.9336 64.3528 76.8813 64.3109 76.8185 64.3319C76.5779 64.4156 76.5308 64.3162 76.468 64.2325C76.3007 64.0023 76.1542 63.7617 75.9711 63.5473C75.8351 63.3903 75.673 63.2543 75.5004 63.1288C75.2284 62.9405 74.9198 62.7836 74.653 62.59C74.4281 62.4279 74.245 62.2291 74.041 62.0513C73.9939 62.0094 73.9155 61.9937 73.8736 61.9519C73.7899 61.8734 73.6696 61.8159 73.6644 61.6799C73.6591 61.5282 73.6121 61.4445 73.3819 61.4968C73.2512 61.5282 73.1988 61.4445 73.1622 61.3713C73.1152 61.2719 73.1152 61.1411 73.1047 61.0156C73.0942 60.8639 73.0995 60.7122 72.8902 60.7174C72.7804 60.7227 72.7542 60.6181 72.7438 60.5187C72.7019 60.0898 72.4509 59.8387 72.1632 59.6242C71.7709 59.3313 71.3524 59.0698 70.9549 58.7873C70.7979 58.6775 70.6672 58.5415 70.5259 58.4159C70.0918 58.0236 69.7413 57.5528 69.3961 57.0769C69.3281 56.9827 69.2653 56.8833 69.1555 56.8362C68.8992 56.7212 68.737 56.5172 68.6115 56.2766C68.4598 55.9889 68.1826 55.8215 67.8949 55.6646C67.8269 55.6279 67.7432 55.6123 67.7066 55.5443C67.445 55.0996 66.9429 54.8904 66.6291 54.5033C66.3727 54.1895 66.1792 53.8129 65.9648 53.4572C65.8026 53.18 65.6614 52.8818 65.5045 52.5941C65.494 52.5732 65.4626 52.5732 65.4574 52.5523C65.3789 52.3797 65.5568 52.1181 65.9491 51.8409C66.2943 51.5951 66.5506 51.5061 66.6604 51.6264C66.7807 51.7572 66.8801 51.9089 66.99 52.0554L67.0423 52.0031Z" fill="black"/>
<path d="M90.6116 65.1485C94.1947 64.6778 100.09 63.119 104.729 57.9615C104.912 57.7628 105.2 57.4385 105.561 56.9991C106.309 56.0837 111.571 49.3884 110.269 42.081C109.348 36.9131 105.551 33.738 103.997 32.4408C95.4657 25.3113 82.0071 25.6513 72.6075 30.0975C66.9531 32.7704 63.2079 36.7196 58.9396 41.218C54.0907 46.3284 52.3593 49.7127 45.8942 55.6182C40.0253 60.9797 26.7706 65.5095 22.6279 56.2354C19.887 50.0997 23.8362 42.8029 28.5386 39.246C32.4774 36.2697 36.9235 35.8722 39.9311 36.05L39.4185 32.5245C37.4465 32.0538 34.7841 31.7294 31.7398 32.2316C25.8866 33.194 22.2722 36.6254 20.5356 38.2626C8.63048 49.4825 14.6144 61.372 19.2645 66.2784C25.6251 72.9946 41.4637 73.0679 49.315 65.5095C54.3575 60.6553 54.6033 60.9378 62.146 52.5373C68.9721 44.937 71.9118 43.169 73.8419 42.1961C76.6194 40.7943 80.8563 38.7282 86.1498 39.6121C87.651 39.8632 94.6863 41.0349 96.8571 46.8724C98.4629 51.193 96.3236 55.1265 96.1196 55.4874C94.3516 58.6206 90.9725 60.6397 87.1541 60.9797L90.6116 65.1485Z" fill="#CAEAE3"/>
<path d="M103.468 58.1965C103.824 57.8356 104.195 57.4851 104.535 57.0981C104.886 56.7162 105.221 56.3396 105.529 55.9369C106.157 55.1261 106.732 54.2682 107.261 53.3843C107.794 52.5003 108.244 51.5797 108.668 50.6434C108.851 50.1674 109.07 49.7018 109.217 49.2101L109.463 48.4831L109.662 47.7455C110.122 45.9932 110.294 44.1625 110.038 42.3631C109.798 40.5638 109.091 38.8167 108.035 37.2841C107.486 36.4942 106.874 35.6521 106.183 34.9093C105.561 34.2346 104.886 33.6121 104.18 33.0158C103.829 32.7072 103.458 32.4404 103.092 32.1632C102.72 31.8964 102.37 31.5983 101.978 31.3577C101.617 31.1432 101.24 30.9392 100.874 30.7352C100.691 30.6358 100.513 30.526 100.33 30.4318C100.147 30.3429 99.969 30.2592 99.7964 30.1651C99.3779 29.9401 98.9595 29.7048 98.5358 29.4903L97.2177 28.9306C96.7835 28.7319 96.3232 28.5906 95.8681 28.4494C95.4078 28.3134 94.9632 28.1408 94.4924 28.0414C93.5561 27.8322 92.6251 27.6125 91.6679 27.5183C90.7211 27.3666 89.7586 27.3509 88.8014 27.3143C85.8147 26.9534 82.8279 27.3666 79.9092 28.0571C76.9904 28.7475 74.0612 29.7466 71.5191 31.2635C70.8496 31.6715 70.0859 32.1371 69.4059 32.545C65.2475 35.0296 61.9364 38.7225 58.5992 42.3213C56.8312 44.2619 55.194 46.3123 53.4836 48.3366C51.7731 50.3557 49.9476 52.3015 47.9861 54.0695C47.4682 54.5455 46.9399 55.0162 46.4012 55.4922C45.8781 55.9735 45.3079 56.4442 44.7273 56.8836C43.5609 57.7519 42.316 58.5365 41.0292 59.1956C39.4966 59.9854 37.896 60.6393 36.2379 61.131C34.5745 61.6017 32.8484 61.9051 31.1013 61.8842C29.8355 61.8685 28.5592 61.6697 27.3561 61.2303C26.153 60.8014 25.0284 60.1005 24.1287 59.1747C23.2238 58.2541 22.5281 57.1504 22.0469 55.963C21.5238 54.7861 21.278 53.4993 21.21 52.2178C21.1211 50.4969 21.4088 48.7655 21.9528 47.1388C22.4968 45.5068 23.2918 43.9637 24.2752 42.5514C25.2586 41.1339 26.425 39.8419 27.7798 38.733C28.4598 38.1785 29.1816 37.6764 29.9505 37.2475C30.709 36.8081 31.5145 36.4367 32.3358 36.1281C33.544 35.6783 34.8047 35.3644 36.0914 35.2127C36.7296 35.129 37.3782 35.0872 38.0216 35.0663L38.4348 35.061L38.5551 35.0663L38.8062 35.082C38.8062 34.9721 38.7852 34.8361 38.7748 34.7106L38.6126 33.5127L38.5917 33.3244C38.5655 33.2774 38.4819 33.2826 38.4295 33.2617L38.3354 33.2407L38.0634 33.1884L37.4619 33.089C36.6563 32.9635 35.8456 32.8955 35.0296 32.8746C33.4028 32.8327 31.7708 33.0263 30.1912 33.4186C28.6062 33.8057 27.0893 34.4438 25.6614 35.2493C24.2386 36.0706 22.9152 37.0644 21.686 38.1942C20.7392 39.0468 19.8709 39.9256 19.034 40.8619C18.2285 41.8139 17.4753 42.8077 16.8319 43.8696C15.5608 45.9932 14.6716 48.3471 14.4153 50.7898C14.1642 53.0652 14.431 55.3824 15.1214 57.5636C15.8067 59.7501 16.8894 61.8162 18.239 63.6731C18.7411 64.3583 19.2851 65.0174 19.8657 65.6241C20.4411 66.21 21.0635 66.7435 21.7488 67.2091C23.1244 68.1297 24.678 68.8306 26.2995 69.3066C29.5478 70.269 33.0471 70.4678 36.4314 70.0493C38.1262 69.8453 39.8 69.4635 41.4058 68.9195C43.0117 68.3807 44.5495 67.6589 45.9566 66.7488C46.6627 66.3041 47.3218 65.7915 47.9495 65.2475C48.5458 64.7192 49.2048 64.0549 49.843 63.4482C51.1297 62.2085 52.4479 61.0107 53.6928 59.7919C56.0937 57.4485 58.3272 54.9012 60.5869 52.359C61.7115 51.088 62.878 49.8012 64.081 48.5615C66.3198 46.2705 68.6161 44.0056 71.4354 42.1487C72.1363 41.6884 72.9157 41.2804 73.6271 40.9299C74.3437 40.5742 75.0865 40.2238 75.8449 39.8994C77.3671 39.2561 78.9781 38.7382 80.6467 38.4558C81.8446 38.2518 83.0686 38.1681 84.2873 38.2204L85.2027 38.2884C85.5061 38.3198 85.8094 38.3668 86.1076 38.4035C86.6987 38.4872 87.2793 38.6022 87.8651 38.7382C90.1928 39.2875 92.4943 40.2081 94.482 41.7459C95.4654 42.5253 96.3337 43.4773 97.0189 44.5548C97.181 44.832 97.3589 45.0988 97.5001 45.3865L97.8872 46.2652C98.1278 46.8563 98.3056 47.4735 98.4312 48.1012C98.6875 49.3514 98.6979 50.6434 98.5201 51.883C98.3423 53.128 97.9918 54.3206 97.4687 55.4661C96.522 57.4485 95.0155 59.0282 93.2318 60.1737C92.3426 60.7439 91.3854 61.1937 90.3916 61.5337L89.4186 61.8371C89.4448 61.8685 89.4971 61.9051 89.5233 61.9156L89.5337 61.9208H89.5389L89.6174 62.015L89.9365 62.3863L90.5799 63.1239C91.5266 64.2014 91.7359 64.6303 91.1971 64.3792C90.7316 64.1648 90.2974 63.9869 89.7534 63.6469C89.4814 63.4796 89.1833 63.2703 88.8433 62.9931C88.5085 62.7263 88.111 62.3654 87.567 61.8214C87.3943 61.6436 87.2165 61.4657 87.0439 61.2879L86.7771 61.0107L86.6411 60.8694C86.6254 60.8485 86.5784 60.8171 86.5888 60.8014L86.6097 60.7648C87.2688 60.6288 88.1162 60.4876 88.9793 60.2574C89.1048 60.2313 89.178 60.2051 89.2513 60.179L89.4919 60.1005C89.654 60.0534 89.8162 60.0011 89.9836 59.9384C90.3183 59.8285 90.6531 59.6873 91.0088 59.5513C92.3374 58.9811 93.5718 58.0867 94.5395 56.9725C95.026 56.4181 95.4497 55.8113 95.8158 55.1941C96.1663 54.5612 96.4592 53.8864 96.7207 53.2116C96.862 52.8298 96.9927 52.244 97.0398 51.768C97.2909 49.6286 96.8933 47.4212 95.7531 45.6271C95.4967 45.1616 95.1515 44.7588 94.8272 44.3456C94.4611 43.9637 94.1001 43.5766 93.6765 43.2471C92.8552 42.5671 91.9398 42.0022 90.9669 41.5419C89.0211 40.6318 86.8661 40.0825 84.7162 39.8838C82.5612 39.6955 80.3747 39.9988 78.3034 40.6788C76.9486 41.1182 75.6461 41.7197 74.3594 42.3788C73.0622 43.0117 71.8905 43.7859 70.7607 44.6751C69.3065 45.8259 67.9361 47.1022 66.6075 48.4203C64.6721 50.3347 62.8204 52.3329 61.0054 54.3781C59.6349 55.9159 58.3377 57.4485 56.8522 58.6098C56.5435 58.8556 55.7903 59.635 55.5654 59.9488C54.6919 61.1519 53.4156 62.2974 52.1654 63.4482L49.6547 65.7968C48.7968 66.6023 47.8658 67.3346 46.8772 67.9675C44.8947 69.2386 42.703 70.1278 40.4538 70.7398C37.1166 71.6343 33.6173 71.9272 30.1807 71.5976C27.513 71.3361 24.8558 70.698 22.4078 69.4687C21.1891 68.8515 20.0279 68.0774 19.0131 67.1149C18.0036 66.1629 17.1562 65.1011 16.3716 63.9817C15.0796 62.1039 14.0544 60.022 13.4058 57.8042C12.7624 55.5916 12.4799 53.2378 12.6944 50.9154C12.8042 49.8483 12.9298 48.776 13.2384 47.7403C13.7562 45.8259 14.6507 43.9114 15.723 42.4154C16.926 40.7573 17.967 39.5856 19.1334 38.1053C19.3008 37.9013 19.4996 37.6712 19.7192 37.4305C19.9389 37.2056 20.1848 36.9598 20.4411 36.7192C20.9642 36.2275 21.55 35.741 22.0992 35.3226C23.5063 34.2503 25.065 33.382 26.6761 32.749C28.6167 31.9801 30.5102 31.5721 32.7019 31.1537C33.8893 30.934 35.5683 30.9706 36.9074 31.1798C37.4409 31.2583 37.9692 31.3577 38.4975 31.4728L39.0415 31.5931L39.6535 31.7395L39.9569 31.8127L40.1086 31.8494C40.1348 31.8807 40.1295 31.9487 40.14 31.9958L40.2237 32.6235C40.4015 34.0306 40.5846 35.4376 40.7624 36.8499C40.0249 36.8133 39.2822 36.7662 38.5603 36.761L38.1732 36.7662C38.0634 36.7662 37.9536 36.7715 37.8385 36.7767C37.6188 36.7872 37.3939 36.7924 37.1742 36.8133C36.2902 36.8813 35.4114 37.0173 34.5536 37.2213C32.8274 37.6241 31.1955 38.3564 29.7361 39.3293C26.6761 41.4425 24.3484 44.6856 23.2395 48.1901C22.7112 49.9529 22.5491 51.7941 22.8472 53.5412C22.9204 53.9753 23.0564 54.399 23.1663 54.8227C23.3441 55.2255 23.4644 55.6492 23.6737 56.0415C24.0555 56.8418 24.5577 57.5531 25.1592 58.1547C25.63 58.6254 26.1478 59.0439 26.7336 59.3577C27.309 59.682 27.9367 59.9384 28.601 60.1057C29.2601 60.2836 29.9453 60.383 30.6462 60.4144C31.3471 60.4614 32.0585 60.4196 32.7699 60.3516C34.9877 60.111 37.1951 59.4205 39.2769 58.479C41.3535 57.527 43.3307 56.3082 45.0046 54.8227C46.7516 53.2483 48.4307 51.5901 50.0156 49.8535C51.6005 48.1117 53.086 46.2705 54.6448 44.4188C55.8583 42.9699 57.1765 41.5262 58.4266 40.1453C61.2878 36.9755 64.3478 33.8109 68.0773 31.4047C70.3108 29.9506 72.7222 28.7789 75.2068 27.8845C77.6914 26.9848 80.2649 26.3519 82.8855 25.9857C84.1042 25.8026 85.3491 25.698 86.5679 25.6719C88.702 25.6823 90.8257 25.8602 92.9337 26.2159C95.0312 26.6239 97.1078 27.2045 99.0955 28.0362C101.067 28.9149 102.956 30.0029 104.656 31.3734C106.303 32.681 107.899 34.2503 109.118 36.0967C110.117 37.5822 110.87 39.2718 111.278 41.045C111.665 42.8182 111.738 44.6542 111.492 46.4169C111.001 49.9634 109.468 53.1646 107.538 55.9996C107.156 56.5488 106.758 57.0771 106.324 57.6002C105.88 58.0971 105.456 58.5993 104.975 59.0701C104.044 60.0273 103.024 60.8904 101.931 61.6488C99.7546 63.1814 97.317 64.3008 94.7854 65.0122C94.4506 65.1063 94.1106 65.2162 93.7758 65.2998C92.3165 65.6346 91.3226 65.6817 90.878 65.5928C90.4334 65.5091 90.5276 65.2998 91.1709 64.9651C92.306 64.3531 94.0897 63.7777 96.4435 62.8257C99.0432 61.7743 101.444 60.2417 103.447 58.2698L103.468 58.1965Z" fill="black"/>
<path d="M90.1097 65.7754C89.9528 65.4197 89.7697 65.085 89.6494 64.7031C89.5396 64.3631 89.4402 64.0284 89.1107 63.861C89.027 63.8191 88.9903 63.725 88.9328 63.6518C88.823 63.5262 88.7236 63.3954 88.6085 63.2751C88.5562 63.2228 88.4359 63.2176 88.415 63.1444C88.3104 62.7887 88.122 62.4958 87.7768 62.3336C87.7611 61.9988 87.4787 61.889 87.259 61.7164C87.0393 61.549 86.898 61.3084 86.6104 61.1985C86.5319 61.1724 86.4691 61.1148 86.4482 61.0416C86.3017 60.597 85.9774 60.2989 85.6636 59.9902C85.3288 59.6555 85.0725 59.2632 84.9156 58.7819C84.8319 58.5256 84.6645 58.3321 84.5024 58.1333C84.3088 57.898 84.0735 57.7044 83.8642 57.4795C83.5661 57.1552 83.2418 56.8518 82.8547 56.606C82.3369 56.2764 81.8452 55.9155 81.3901 55.5284C81.1547 55.3297 81.0135 55.0577 80.8409 54.8014C80.5009 54.294 80.1975 53.7657 79.8418 53.2688C79.575 52.8974 79.2717 52.5574 78.9578 52.2278C78.6649 51.9192 78.3301 51.642 78.032 51.3386C77.1532 50.4285 76.2797 49.5131 75.4061 48.603C75.1969 48.3833 74.9615 48.1845 74.7471 47.97C74.6372 47.8654 74.5431 47.7451 74.4489 47.6248C74.1089 47.175 73.7846 46.7147 73.4342 46.2753C72.9372 45.6424 72.4142 45.0304 71.912 44.3975C71.6296 44.0365 71.3628 43.6652 70.9705 43.4036C70.8606 43.3304 70.9234 43.2258 71.1483 43.1002C71.5354 42.8858 71.9277 42.6504 72.2677 42.6504C72.4979 42.6504 72.6914 42.6713 72.7594 42.8544C72.8588 43.1212 73.1936 43.2101 73.1569 43.5762C73.1517 43.6285 73.1936 43.6599 73.2354 43.6861C73.9625 44.1045 74.3443 44.8107 74.8203 45.4436C74.9772 45.6476 75.176 45.8202 75.3486 46.0085C75.4637 46.1341 75.5683 46.2596 75.6729 46.3904C75.8194 46.5839 75.9449 46.7984 76.1123 46.971C76.2431 47.1017 76.4157 47.1854 76.3215 47.4784C76.3006 47.5411 76.3738 47.6039 76.4418 47.5934C76.7086 47.5411 76.7818 47.6771 76.876 47.7974C77.1218 48.1217 77.352 48.467 77.6135 48.7756C77.807 49.0057 78.032 49.215 78.2674 49.4137C78.6335 49.7171 79.0363 49.9891 79.3972 50.2977C79.7006 50.554 79.9621 50.8522 80.2446 51.1242C80.3126 51.1869 80.4067 51.2235 80.4695 51.2915C80.5846 51.4119 80.7415 51.5112 80.7729 51.6839C80.8095 51.8774 80.8827 51.9925 81.1495 51.982C81.2959 51.9768 81.3796 52.0918 81.4372 52.1965C81.5104 52.3272 81.5418 52.4946 81.5732 52.6568C81.6098 52.8555 81.6359 53.0438 81.8818 53.0909C82.0126 53.1171 82.0596 53.2583 82.091 53.3838C82.2165 53.9383 82.5618 54.3201 82.9436 54.6706C83.4615 55.1466 84.0055 55.5964 84.5285 56.0672C84.7325 56.2503 84.9156 56.4595 85.0987 56.6583C85.6793 57.2807 86.171 57.9764 86.6574 58.6826C86.7516 58.8186 86.8457 58.965 86.9817 59.0644C87.306 59.2893 87.5257 59.5979 87.7088 59.9379C87.9285 60.3459 88.2894 60.6441 88.6503 60.9318C88.734 60.9998 88.8439 61.0521 88.8962 61.141C89.2676 61.7844 89.8953 62.2081 90.3242 62.7991C90.6694 63.2751 90.9466 63.8087 91.2396 64.3317C91.4645 64.7345 91.6685 65.153 91.8829 65.5662C91.8986 65.5923 91.93 65.6028 91.9457 65.6342C92.0555 65.8748 91.8725 66.1363 91.4279 66.3403C91.0356 66.5234 90.7426 66.5443 90.5962 66.3613C90.4393 66.1573 90.3033 65.9323 90.1568 65.7179C90.1463 65.7493 90.1254 65.7597 90.1097 65.7754Z" fill="black"/>
</svg>
