<svg width="242" height="257" viewBox="0 0 242 257" fill="none" xmlns="http://www.w3.org/2000/svg">
<path d="M110.821 208.577C108.578 213.501 96.0206 214.763 90.2193 208.709C87.6672 206.043 85.5646 201.075 87.6125 197.424C90.0358 193.094 96.9439 193.026 101.167 194.485C107.771 196.759 112.704 204.447 110.821 208.577Z" fill="#F1D1D5"/>
<path d="M109.555 211.825C108.653 212.215 107.759 212.497 106.848 212.554C106.04 212.612 105.278 212.572 104.571 212.962C104.386 213.069 104.158 213.048 103.954 213.084L102.826 213.246C102.661 213.28 102.484 213.434 102.319 213.397C101.512 213.208 100.751 213.136 99.9458 213.357C99.35 212.985 98.7369 213.166 98.1049 213.173C97.4654 213.185 96.8639 212.98 96.1941 213.081C96.0171 213.112 95.8198 213.073 95.6749 212.982C94.7728 212.418 93.8054 212.148 92.8448 211.731C91.8268 211.285 90.9136 210.542 90.3281 209.568C90.0252 209.046 89.5974 208.628 89.2388 208.169C88.7959 207.635 88.341 207.099 87.9539 206.503C87.4109 205.637 86.9108 204.758 86.3872 203.82C85.6732 202.572 85.2186 201.081 85.2485 199.452C85.2926 198.626 85.6108 197.795 86.0508 197.068C86.8932 195.583 88.2566 194.485 89.6516 193.829C90.7051 193.31 91.7761 192.945 92.861 192.675C93.8711 192.417 94.8958 192.202 95.9303 192.146C97.4645 192.067 98.999 192.182 100.529 192.484C102.075 192.778 103.593 193.396 104.987 194.136C105.665 194.492 106.325 194.868 106.96 195.29C107.279 195.505 107.554 195.766 107.837 196.023C108.856 197.002 109.758 198.079 110.554 199.239C111.684 200.903 112.703 202.712 113.08 204.936C113.301 206.183 113.278 207.541 112.971 209.063C112.887 209.502 112.658 209.532 112.324 209.223C111.731 208.695 111.07 208.247 110.783 207.716C110.52 207.334 110.361 207.078 110.475 206.725C110.538 206.462 110.513 206.189 110.461 205.922C110.404 205.647 110.391 205.378 110.558 205.065C110.601 204.979 110.546 204.867 110.489 204.787C109.58 203.344 109.027 201.807 108.045 200.397C107.723 199.948 107.302 199.576 106.904 199.191C106.638 198.945 106.395 198.686 106.145 198.431C105.754 198.094 105.441 197.66 104.986 197.39C104.651 197.184 104.289 197.055 104.227 196.506C104.212 196.392 104.023 196.296 103.907 196.343C103.45 196.546 103.221 196.31 102.934 196.169C102.194 195.726 101.425 195.32 100.598 195.061C99.9888 194.861 99.3399 194.786 98.6946 194.77C97.6871 194.749 96.7015 194.89 95.7524 195.041C94.9617 195.181 94.1706 195.25 93.441 195.479C93.2729 195.525 93.1129 195.638 92.9537 195.7C92.6538 195.802 92.3576 195.964 92.058 195.942C91.7054 195.901 91.4394 195.973 91.3521 196.424C91.2998 196.67 91.0702 196.752 90.9046 196.837C90.6718 196.931 90.39 196.941 90.124 197.013C89.7808 197.058 89.4656 197.17 89.4595 197.584C89.4443 197.787 89.2868 197.94 89.086 198.036C88.2536 198.53 87.9707 199.545 88.0695 200.494C88.1827 201.803 88.7305 203.066 89.4185 204.216C89.6967 204.66 89.9442 205.122 90.2377 205.557C91.1693 206.915 92.1205 208.077 93.46 209.024C93.7222 209.21 93.9888 209.404 94.3075 209.476C95.0418 209.645 95.6922 209.935 96.3738 210.278C97.1945 210.685 98.1394 210.721 99.055 210.672C99.2729 210.659 99.4839 210.598 99.6857 210.645C101.121 210.961 102.578 210.537 103.959 210.351C105.083 210.202 106.216 210.068 107.252 209.713C108.026 209.438 108.809 209.107 109.362 208.592C109.396 208.562 109.4 208.498 109.441 208.463C109.727 208.195 110.305 208.219 110.902 208.806C111.432 209.33 111.535 210.02 111.088 210.505C110.612 211.047 110.04 211.441 109.472 211.771L109.555 211.825Z" fill="#F8AFB8"/>
<path d="M131.485 221.694C128.704 224.93 121.541 222.949 117.451 219.986C114.352 217.74 110.405 213.042 111.76 209.752C113.376 205.818 122.357 204.352 127.702 208.383C132.021 211.634 134.137 218.606 131.485 221.694Z" fill="#F1D1D5"/>
<path d="M129.638 224.274C129.187 224.31 128.751 224.337 128.327 224.296C127.901 224.286 127.497 224.192 127.112 224.077C126.41 223.858 125.804 223.574 125.093 223.709C124.905 223.757 124.723 223.657 124.55 223.624L123.564 223.427C123.415 223.4 123.218 223.504 123.093 223.412C122.486 222.984 121.884 222.708 121.136 222.691C120.762 222.189 120.193 222.181 119.652 222.043C119.117 221.882 118.66 221.572 118.063 221.498C117.898 221.48 117.739 221.418 117.641 221.301C117.042 220.571 116.279 220.121 115.553 219.578C114.777 219.001 114.161 218.24 113.79 217.317C113.588 216.828 113.273 216.426 112.968 216.008C112.619 215.512 112.205 215.045 111.9 214.503C111.454 213.716 111.015 212.924 110.645 211.968C110.514 211.654 110.44 211.297 110.366 210.94C110.347 210.571 110.28 210.189 110.354 209.787C110.382 209.586 110.409 209.386 110.448 209.188L110.652 208.619C110.782 208.225 110.988 207.89 111.211 207.566C111.427 207.215 111.726 206.969 112.026 206.744C112.325 206.499 112.658 206.347 112.982 206.179C114.265 205.527 115.589 205.261 116.865 205.055C117.828 204.927 118.781 204.785 119.752 204.724C120.651 204.664 121.569 204.583 122.485 204.678C123.848 204.78 125.207 205.141 126.523 205.659C127.844 206.166 129.1 206.987 130.193 207.933C130.722 208.385 131.233 208.859 131.694 209.371C131.917 209.631 132.121 209.913 132.31 210.203C132.975 211.296 133.469 212.466 133.886 213.661C134.446 215.388 134.867 217.227 134.575 219.254C134.428 220.396 133.995 221.561 133.374 222.773C133.197 223.122 132.98 223.084 132.738 222.701C132.3 222.052 131.785 221.448 131.631 220.9C131.491 220.5 131.387 220.232 131.59 219.98C131.721 219.781 131.77 219.548 131.799 219.315C131.824 219.075 131.894 218.86 132.135 218.638C132.203 218.578 132.185 218.476 132.155 218.39C131.717 216.962 131.688 215.552 131.187 214.139C131.028 213.688 130.76 213.279 130.504 212.873C130.363 212.595 130.177 212.345 130.028 212.071C129.817 211.671 129.589 211.279 129.305 210.931C129.059 210.684 128.755 210.532 128.87 210.004C128.891 209.899 128.741 209.781 128.623 209.808C128.157 209.925 128.011 209.691 127.808 209.501C127.275 208.989 126.696 208.504 126.038 208.147C125.792 208.024 125.534 207.916 125.277 207.809C125.013 207.726 124.736 207.672 124.465 207.613C123.612 207.451 122.744 207.493 121.905 207.498C121.206 207.513 120.512 207.485 119.833 207.571C119.679 207.588 119.521 207.67 119.372 207.695C119.088 207.737 118.797 207.854 118.511 207.733C118.202 207.625 117.948 207.628 117.746 208.023C117.631 208.233 117.399 208.275 117.209 208.283C116.964 208.302 116.683 208.208 116.414 208.169C116.097 208.117 115.75 208.032 115.57 208.413C115.484 208.617 115.246 208.632 115.035 208.621C114.127 208.614 113.409 209.215 113.15 209.848C112.97 210.281 112.972 210.69 113.042 211.111C113.14 211.547 113.339 211.996 113.575 212.454C113.682 212.638 113.784 212.815 113.876 213.008L114.205 213.576C114.962 214.738 115.837 215.965 116.842 217.095C117.043 217.317 117.24 217.552 117.511 217.682C118.138 217.985 118.621 218.393 119.095 218.856C119.687 219.416 120.479 219.685 121.27 219.862C121.46 219.906 121.654 219.906 121.816 220.007C122.925 220.698 124.267 220.73 125.437 220.995C126.39 221.222 127.319 221.463 128.216 221.487C128.896 221.492 129.55 221.452 130.146 221.188C130.184 221.165 130.185 221.114 130.223 221.091C130.533 220.953 131.079 221.169 131.508 221.855C131.69 222.17 131.777 222.478 131.747 222.763C131.736 222.902 131.693 223.04 131.633 223.167C131.56 223.271 131.455 223.373 131.332 223.445C131.053 223.617 130.769 223.782 130.472 223.872C130.18 223.97 129.881 224.092 129.585 224.13L129.638 224.274Z" fill="#F8AFB8"/>
<path d="M135.53 183.209C135.53 183.209 130.745 171.567 125.956 168.301C122.306 165.812 115.791 164.029 111.477 167.682C108.458 170.244 106.715 175.145 108.535 178.317C115.86 191.03 135.53 183.209 135.53 183.209Z" fill="#F1D1D5"/>
<path d="M133.034 180.781C132.808 179.897 132.516 179.04 132.329 178.133C132.167 177.323 131.982 176.528 131.365 175.942C131.205 175.788 131.139 175.57 131.02 175.382C130.812 175.041 130.619 174.691 130.385 174.376C130.28 174.231 130.049 174.15 130.002 173.982C129.768 173.153 129.357 172.427 128.642 171.939C128.537 171.21 127.929 170.885 127.438 170.482C127.202 170.27 126.956 170.075 126.716 169.875C126.595 169.771 126.47 169.68 126.341 169.6C126.198 169.529 126.055 169.479 125.898 169.437C125.732 169.399 125.58 169.313 125.488 169.172C124.849 168.372 123.87 167.976 122.923 167.653C121.892 167.308 120.916 166.899 119.902 166.389C119.356 166.121 118.739 166.048 118.141 166.025C117.785 165.996 117.427 166.05 117.07 166.072L116.019 166.241C115.016 166.423 114.072 166.847 113.345 167.505C112.386 168.4 111.67 169.411 111.119 170.531C110.823 171.082 110.437 171.583 110.121 172.136C109.51 173.24 109.045 174.474 109.038 175.699C109.054 176.152 109.102 176.606 109.275 177.009C109.412 177.422 109.635 177.754 109.953 178.196C110.476 178.99 111.202 179.606 111.877 180.22C113.925 182.017 116.528 183.001 119.271 183.308C119.928 183.378 120.604 183.376 121.275 183.366C121.61 183.377 121.948 183.376 122.28 183.399C123.525 183.477 124.803 183.485 126.076 183.362C127.907 183.192 129.728 182.812 131.534 182.37C132.549 182.12 133.599 181.86 134.466 181.285C134.71 181.123 134.82 181.295 134.902 181.719C135.008 182.468 135.125 183.252 134.76 183.844C134.511 184.245 134.256 184.567 133.788 184.592C133.115 184.634 132.53 185.148 131.797 184.875C131.696 184.842 131.567 184.886 131.475 184.939C129.721 185.895 127.713 185.972 125.772 186.093C125.138 186.132 124.502 186.256 123.86 186.299C123.444 186.325 123.022 186.324 122.608 186.318C122.002 186.28 121.4 186.198 120.79 186.172C120.336 186.169 119.868 186.245 119.523 185.758C119.453 185.655 119.214 185.65 119.112 185.74C118.731 186.074 118.359 185.961 117.984 185.881C116.989 185.617 116.001 185.277 115.049 184.875C114.691 184.734 114.336 184.601 113.976 184.44C113.618 184.3 113.255 184.151 112.902 183.986C111.787 183.515 110.676 182.908 109.696 182.121C109.301 181.776 108.893 181.427 108.561 181.015C108.211 180.623 107.871 180.214 107.566 179.776C107.422 179.582 107.218 179.424 107.077 179.218C106.811 178.777 106.47 178.277 106.466 177.756C106.454 177.188 106.406 176.806 106 176.354C105.77 176.097 105.749 175.637 105.799 175.28C105.825 174.813 106.029 174.387 106.203 173.978C106.447 173.498 106.697 173.097 106.577 172.519C106.501 172.194 106.735 171.853 106.925 171.579C107.819 170.414 108.463 169.26 109.261 168.089C110.322 166.54 111.889 165.066 113.806 164.302C114.546 163.986 115.339 163.813 116.115 163.701C117.333 163.518 118.55 163.582 119.704 163.785C120.866 163.983 121.981 164.331 123.035 164.786C123.459 164.951 123.855 165.173 124.295 165.277C125.305 165.532 126.206 166.077 127.004 166.763C128.012 167.687 128.998 168.449 129.889 169.276C130.111 169.465 130.352 169.633 130.491 169.871C131.503 171.51 132.805 172.869 133.662 174.506C134.349 175.832 134.846 177.236 135.33 178.618C135.699 179.697 136.006 180.791 136.308 181.878C136.328 181.949 136.392 182.004 136.404 182.079C136.559 182.718 136.15 183.109 135.293 183.135C134.535 183.174 134.001 182.96 133.786 182.449C133.548 181.879 133.345 181.299 133.122 180.72L133.034 180.781Z" fill="#F8AFB8"/>
<path d="M137.15 183.211C136.44 178.697 144.607 172.788 152.216 172.283C152.917 172.236 161.189 171.777 163.156 176.229C164.928 180.219 160.714 186.132 156.042 188.463C148.662 192.14 137.899 187.969 137.15 183.211Z" fill="#F1D1D5"/>
<path d="M136.643 179.716C136.961 179.326 137.263 178.945 137.618 178.637C137.955 178.298 138.32 178.025 138.715 177.785C139.059 177.565 139.406 177.384 139.73 177.165C140.047 176.951 140.325 176.687 140.555 176.358C140.671 176.188 140.884 176.095 141.043 175.962C141.342 175.717 141.672 175.525 141.968 175.292C142.1 175.184 142.174 174.957 142.342 174.911C143.165 174.721 143.852 174.383 144.453 173.809C145.15 173.826 145.608 173.395 146.148 173.052C146.693 172.735 147.321 172.597 147.839 172.163C147.979 172.051 148.161 171.976 148.328 171.981C148.861 171.98 149.357 171.898 149.865 171.818C150.368 171.711 150.861 171.589 151.377 171.505C152.472 171.27 153.597 171.387 154.645 171.744C155.203 171.944 155.794 171.99 156.375 172.054C157.057 172.151 157.771 172.178 158.464 172.329C159.472 172.545 160.463 172.822 161.521 173.193L162.058 173.395L162.573 173.681C162.934 173.861 163.245 174.132 163.565 174.418C164.193 174.988 164.675 175.765 165.006 176.6C165.278 177.458 165.237 178.395 165.06 179.205C164.738 180.86 163.963 182.213 163.141 183.449C162.506 184.372 161.878 185.27 161.155 186.11C160.483 186.88 159.822 187.704 159.004 188.364C157.812 189.353 156.423 190.23 154.915 190.797C153.416 191.38 151.842 191.708 150.26 191.847C149.504 191.906 148.741 191.989 147.98 191.968C147.598 191.964 147.222 191.916 146.84 191.86C145.446 191.633 144.096 191.216 142.777 190.729C140.898 190.003 139.028 189.097 137.424 187.534C136.528 186.627 135.717 185.548 135.079 184.041C134.908 183.606 135.085 183.432 135.535 183.519C136.319 183.649 137.095 183.661 137.664 183.916C138.065 184.094 138.377 184.19 138.483 184.549C138.664 185.091 139.299 185.266 139.402 185.955C139.42 186.058 139.523 186.111 139.609 186.153C141.201 186.81 142.56 187.756 144.188 188.35C144.709 188.541 145.274 188.613 145.821 188.706L146.887 188.898C147.406 188.997 147.923 189.128 148.448 189.131C148.846 189.127 149.22 189.012 149.581 189.439C149.654 189.53 149.868 189.509 149.941 189.405C150.218 188.998 150.53 189.022 150.855 189.018C151.728 188.983 152.606 188.905 153.447 188.673C154.069 188.508 154.656 188.228 155.196 187.885C156.026 187.352 156.726 186.648 157.398 185.95C157.971 185.381 158.532 184.81 159.035 184.19C159.145 184.044 159.196 183.85 159.311 183.711C159.534 183.459 159.647 183.106 159.96 182.955C160.299 182.779 160.464 182.55 160.349 182.104C160.285 181.853 160.422 181.63 160.567 181.454C160.756 181.231 160.987 181.046 161.233 180.851C161.541 180.621 161.784 180.368 161.654 179.95C161.577 179.728 161.703 179.522 161.858 179.329C162.481 178.527 162.42 177.485 161.982 176.784C161.374 175.823 160.304 175.305 159.055 174.993C158.567 174.876 158.065 174.737 157.546 174.638C155.925 174.357 154.129 174.126 152.413 174.086C152.087 174.09 151.733 174.1 151.418 174.211C151.051 174.322 150.685 174.452 150.304 174.519C149.925 174.575 149.547 174.63 149.152 174.674C148.681 174.712 148.228 174.851 147.799 175.049C147.369 175.227 146.959 175.475 146.565 175.734C146.378 175.853 146.213 176.011 146.014 176.075C144.566 176.515 143.469 177.613 142.31 178.429C141.378 179.103 140.379 179.734 139.649 180.527C139.098 181.134 138.592 181.766 138.369 182.46C138.364 182.504 138.403 182.553 138.385 182.594C138.28 182.943 137.762 183.254 136.961 183.093C136.606 183.011 136.313 182.843 136.118 182.596C135.9 182.343 135.845 182.036 135.92 181.706L136.045 181.161C136.098 180.987 136.184 180.834 136.253 180.671C136.396 180.352 136.535 180.025 136.729 179.758L136.643 179.716Z" fill="#F8AFB8"/>
<path d="M142.061 149.791C142.061 149.791 134.533 141.433 128.487 139.698C122.875 138.09 114.226 137.351 111.926 141.928C109.743 146.284 114.169 153.629 120.011 156.181C131.037 161 142.061 149.791 142.061 149.791Z" fill="#F1D1D5"/>
<path d="M138.822 148.314C138.286 147.548 137.689 146.838 137.174 146.039C136.704 145.336 136.235 144.633 135.424 144.314C135.219 144.227 135.068 144.038 134.889 143.906C134.556 143.668 134.242 143.409 133.902 143.196C133.746 143.102 133.496 143.113 133.384 142.973C132.84 142.283 132.151 141.769 131.282 141.597C130.877 140.97 130.173 140.906 129.546 140.746C128.906 140.615 128.347 140.323 127.633 140.42C127.451 140.443 127.251 140.416 127.098 140.33C126.139 139.809 125.066 139.692 124.003 139.611C122.861 139.535 121.754 139.326 120.628 138.994C120.023 138.801 119.382 138.845 118.763 138.875C118.027 138.933 117.299 139.129 116.607 139.315C115.585 139.57 114.643 140.086 114.024 140.824C113.212 141.829 112.939 142.88 113.036 143.984C113.09 144.537 112.991 145.128 113.082 145.763C113.224 147.015 113.634 148.358 114.325 149.567C114.828 150.487 115.535 151.298 116.299 152.014C117.006 152.702 117.864 153.189 118.671 153.696C118.98 153.876 119.291 154.023 119.596 154.195C119.912 154.35 120.238 154.469 120.545 154.609C121.207 154.831 121.89 154.999 122.538 155.197C123.23 155.258 123.904 155.411 124.589 155.424L125.618 155.412C125.789 155.405 125.956 155.41 126.127 155.404L126.647 155.328L127.627 155.159C127.953 155.103 128.275 154.968 128.588 154.889C128.912 154.793 129.236 154.749 129.561 154.673C130.167 154.496 130.776 154.379 131.379 154.162C131.973 153.931 132.595 153.765 133.169 153.462C134.856 152.709 136.451 151.691 137.978 150.59C138.833 149.96 139.72 149.313 140.29 148.438C140.446 148.194 140.616 148.31 140.86 148.661C141.27 149.296 141.674 149.975 141.562 150.666C141.488 151.14 141.366 151.549 140.934 151.759C140.313 152.068 139.96 152.786 139.146 152.816C139.035 152.819 138.938 152.917 138.863 153.001C137.529 154.575 135.611 155.391 133.77 156.161C133.152 156.387 132.576 156.721 131.951 156.971C131.543 157.115 131.133 157.24 130.718 157.357C130.122 157.55 129.47 157.558 128.872 157.731C128.642 157.793 128.424 157.878 128.191 157.9C127.956 157.903 127.73 157.849 127.491 157.65C127.39 157.564 127.151 157.611 127.07 157.72C126.77 158.14 126.362 158.161 125.966 158.134L124.364 158.007C123.833 157.977 123.313 157.806 122.783 157.724C122.404 157.636 121.99 157.63 121.612 157.51C121.232 157.402 120.845 157.319 120.453 157.228C119.223 157.018 118.001 156.557 116.867 155.964C116.405 155.698 115.942 155.413 115.523 155.081C115.094 154.765 114.686 154.417 114.282 154.056C114.093 153.889 113.848 153.785 113.689 153.6C113.382 153.265 112.966 152.973 112.828 152.54C112.67 152.057 112.469 151.763 111.925 151.586C111.621 151.485 111.424 151.128 111.274 150.835C111.091 150.449 111.035 149.999 110.958 149.582C110.886 149.069 110.884 148.588 110.425 148.187C110.2 147.959 110.155 147.544 110.154 147.206C110.191 145.696 109.999 144.268 110.243 142.69C110.518 140.529 112.259 138.472 114.169 137.59C114.921 137.205 115.694 136.982 116.466 136.791C118.862 136.252 121.188 136.422 123.399 136.801C123.841 136.873 124.276 136.969 124.713 136.962C125.737 136.922 126.708 137.18 127.652 137.535C127.937 137.636 128.222 137.738 128.51 137.828C128.789 137.902 129.092 137.982 129.416 138.081L130.375 138.336L131.292 138.625C131.587 138.71 131.889 138.771 132.118 138.936C133.787 140.061 135.559 140.869 137.021 142.115C138.197 143.115 139.197 144.29 140.175 145.446C140.931 146.342 141.622 147.285 142.31 148.241C142.358 148.305 142.435 148.332 142.475 148.402C142.852 148.963 142.598 149.48 141.801 149.788C141.095 150.074 140.517 150.051 140.134 149.637L138.88 148.219L138.822 148.314Z" fill="#F8AFB8"/>
<path d="M144.314 156.75C144.314 156.75 139.553 139.861 149.032 133.047C153.239 130.021 160.267 129.648 162.392 132.674C164.972 136.359 160.94 143.789 159.664 145.463C156.416 149.717 144.314 156.75 144.314 156.75Z" fill="#F1D1D5"/>
<path d="M142.399 153.86C142.425 152.931 142.423 152.009 142.586 151.104C142.738 150.287 142.904 149.513 142.628 148.719C142.552 148.517 142.601 148.283 142.6 148.068L142.578 146.88C142.574 146.698 142.419 146.501 142.481 146.342C142.764 145.521 142.877 144.726 142.716 143.865C143.129 143.267 142.984 142.611 143.018 141.945C143.04 141.276 143.284 140.652 143.232 139.943C143.217 139.757 143.252 139.552 143.357 139.399C143.988 138.469 144.319 137.466 144.81 136.473C145.341 135.425 146.171 134.503 147.209 133.921C147.494 133.776 147.74 133.582 147.991 133.395C148.247 133.216 148.493 133.022 148.739 132.828L149.637 132.163C149.95 131.961 150.259 131.751 150.586 131.571C151.545 131.066 152.517 130.636 153.52 130.136C154.867 129.488 156.369 129.068 157.971 129C158.791 128.945 159.624 129.232 160.434 129.531C161.244 129.883 162.057 130.293 162.73 131.011C163.409 131.705 163.897 132.581 164.117 133.438C164.488 134.732 164.506 135.984 164.417 137.174C164.311 138.283 164.172 139.369 163.887 140.417C163.446 141.956 162.869 143.419 162.163 144.855C161.97 145.213 161.797 145.57 161.577 145.934C161.37 146.3 161.093 146.707 160.826 147.026C160.558 147.377 160.292 147.716 160.008 148.004C159.733 148.307 159.454 148.623 159.168 148.891C158.626 149.442 158.115 149.995 157.558 150.503C157.288 150.762 156.988 150.988 156.691 151.201C155.577 152.022 154.432 152.737 153.314 153.499C151.703 154.578 150.102 155.64 148.454 156.637C147.519 157.2 146.564 157.713 145.745 158.476C145.512 158.693 145.317 158.57 145.203 158.144C145.01 157.404 144.745 156.665 144.96 156.027C145.108 155.592 145.264 155.225 145.686 155.103C146.302 154.909 146.685 154.277 147.439 154.322C147.547 154.331 147.641 154.246 147.716 154.161C149 152.749 150.689 151.964 152.245 150.949C152.753 150.623 153.196 150.201 153.666 149.826L154.601 149.12C155.053 148.785 155.557 148.503 155.966 148.112C156.278 147.818 156.51 147.458 157.075 147.53C157.195 147.542 157.348 147.382 157.332 147.248C157.289 146.749 157.58 146.56 157.819 146.318C158.162 146.007 158.509 145.703 158.806 145.366C159.132 145.044 159.385 144.702 159.627 144.305C159.976 143.722 160.263 143.084 160.472 142.419C160.81 141.392 160.999 140.338 161.198 139.319C161.352 138.471 161.539 137.644 161.569 136.846C161.586 136.662 161.498 136.477 161.507 136.297C161.53 135.966 161.404 135.659 161.541 135.365C161.684 135.045 161.644 134.781 161.267 134.61C161.02 134.538 160.985 134.353 160.97 134.187C160.893 134.037 160.978 133.741 160.934 133.541C160.941 133.27 160.818 132.952 160.44 133.007C160.212 133.057 160.096 132.857 159.939 132.692C159.283 131.933 158.107 131.764 157.049 131.885C155.579 132.04 154.138 132.528 152.854 133.18C152.348 133.423 151.842 133.665 151.374 133.937C149.938 134.77 148.621 135.842 147.547 137.193C147.35 137.472 147.107 137.726 147.029 138.069C146.79 138.823 146.475 139.519 146.073 140.224C145.622 141.091 145.525 142.092 145.511 143.075C145.513 143.309 145.56 143.549 145.498 143.76C145.076 145.297 145.377 146.929 145.349 148.526C145.334 149.827 145.242 151.153 145.254 152.501C145.266 153.53 145.264 154.588 145.34 155.622C145.349 155.689 145.396 155.753 145.392 155.817C145.413 156.401 144.959 156.715 144.116 156.66C143.368 156.591 142.863 156.269 142.753 155.707C142.631 155.09 142.576 154.465 142.521 153.84L142.399 153.86Z" fill="#F8AFB8"/>
<path d="M125.685 120.277C122.423 117.572 123.943 108.624 129.16 104.14C133.812 100.148 141.88 99.2843 144.315 102.633C146.715 105.92 143.135 112.502 139.499 115.997C135.644 119.701 128.718 122.797 125.685 120.277Z" fill="#F1D1D5"/>
<path d="M123.039 118.208L122.991 117.507C122.993 117.28 123.014 117.052 123.021 116.833C123.036 116.383 123.125 115.952 123.242 115.535C123.334 115.163 123.487 114.808 123.569 114.453C123.638 114.094 123.692 113.745 123.624 113.363C123.592 113.166 123.683 112.97 123.711 112.769C123.792 112.414 123.878 112.067 123.939 111.713C123.957 111.549 123.876 111.339 123.968 111.214C124.416 110.554 124.747 109.921 124.787 109.107C125.368 108.729 125.361 108.097 125.581 107.538C125.687 107.261 125.834 107.002 125.967 106.719C126.11 106.451 126.252 106.184 126.316 105.87C126.354 105.705 126.438 105.532 126.575 105.432C127.003 105.143 127.352 104.807 127.675 104.445C128.036 104.112 128.347 103.727 128.699 103.379C129.469 102.655 130.413 102.107 131.468 101.926C132.013 101.805 132.537 101.593 133.032 101.368C133.646 101.135 134.231 100.816 134.867 100.621C135.783 100.326 136.697 100.062 137.655 99.7319C138.928 99.2908 140.343 99.0756 141.843 99.2727C142.227 99.3164 142.607 99.4758 142.97 99.6242C143.336 99.8122 143.692 100.037 144.037 100.278C144.702 100.805 145.339 101.461 145.7 102.278C146.107 103.068 146.215 103.909 146.276 104.684C146.309 105.856 146.145 106.936 145.915 107.972C145.701 108.948 145.438 109.891 145.081 110.796C143.937 113.44 142.364 115.841 140.264 117.952C139.762 118.449 139.273 118.968 138.732 119.416C138.464 119.643 138.175 119.852 137.88 120.033C136.773 120.727 135.608 121.3 134.395 121.809C132.674 122.541 130.82 123.165 128.662 123.196C127.428 123.173 126.075 122.911 124.66 122.224C124.258 122.026 124.276 121.79 124.67 121.551C125.339 121.112 125.928 120.606 126.493 120.411C126.908 120.242 127.153 120.152 127.456 120.304C127.668 120.438 127.926 120.442 128.188 120.433C128.444 120.449 128.688 120.482 128.967 120.679C129.042 120.738 129.152 120.715 129.234 120.679C130.713 120.046 132.248 119.771 133.747 119.137C134.227 118.92 134.665 118.615 135.105 118.329L135.974 117.793C136.4 117.536 136.855 117.313 137.233 116.991C137.529 116.758 137.706 116.409 138.251 116.534C138.368 116.559 138.51 116.415 138.49 116.293C138.424 115.808 138.676 115.641 138.911 115.443C139.513 114.889 140.142 114.329 140.649 113.665C141.037 113.183 141.35 112.643 141.609 112.082C142.028 111.213 142.276 110.278 142.56 109.406C142.769 108.669 143.055 107.959 143.166 107.248C143.203 107.083 143.165 106.91 143.182 106.746C143.22 106.457 143.2 106.14 143.353 105.908C143.448 105.771 143.507 105.644 143.508 105.521C143.488 105.399 143.402 105.285 143.219 105.165C143.12 105.099 143.075 105.023 143.054 104.933C143.021 104.859 143.024 104.775 143.023 104.704C143.058 104.499 143.122 104.308 143.192 104.093C143.243 103.95 143.263 103.826 143.225 103.725C143.187 103.624 143.14 103.507 142.942 103.52C142.732 103.529 142.724 103.338 142.665 103.167C142.421 102.375 141.455 102.001 140.536 101.991C139.267 101.927 137.95 102.239 136.714 102.638C136.232 102.815 135.737 102.918 135.26 103.102C133.774 103.636 132.286 104.202 130.973 105.035C130.726 105.21 130.44 105.355 130.274 105.616C130.086 105.93 129.867 106.17 129.615 106.409C129.384 106.665 129.128 106.896 128.856 107.116C128.544 107.41 128.291 107.752 128.087 108.126C127.912 108.515 127.738 108.904 127.621 109.321C127.569 109.515 127.558 109.726 127.445 109.884C126.673 111.03 126.594 112.451 126.311 113.713C126.076 114.742 125.811 115.789 125.798 116.792C125.798 117.551 125.845 118.304 126.118 118.935C126.141 118.974 126.197 118.982 126.215 119.013C126.353 119.322 126.162 119.895 125.468 120.308C124.858 120.672 124.115 120.611 123.813 120.037L123.557 119.58C123.488 119.425 123.439 119.269 123.385 119.105C123.281 118.786 123.17 118.47 123.135 118.162L123.039 118.208Z" fill="#F8AFB8"/>
<path d="M117.808 114.882C117.808 114.882 91.3628 99.83 87.1622 112.93C85.7167 117.442 90.413 123.378 95.5743 125.535C101.483 128.007 109.333 126.131 112.386 121.065C112.733 120.495 117.808 114.882 117.808 114.882Z" fill="#F1D1D5"/>
<path d="M114.253 114.459C113.501 113.889 112.71 113.374 111.968 112.768C111.314 112.224 110.652 111.684 109.779 111.595C109.551 111.573 109.355 111.431 109.143 111.348C108.76 111.201 108.373 111.046 107.979 110.916C107.8 110.855 107.566 110.929 107.42 110.819C106.703 110.291 105.914 109.938 105.014 109.927C104.485 109.403 103.775 109.435 103.098 109.366C102.428 109.272 101.783 109.062 101.089 109.157C100.904 109.192 100.708 109.172 100.54 109.095C99.5578 108.588 98.4654 108.544 97.4093 108.51C96.272 108.514 95.1702 108.383 94.0186 108.22C93.4093 108.143 92.7669 108.238 92.1914 108.449C92.02 108.508 91.8442 108.558 91.6696 108.629L91.1924 108.885C90.8643 109.045 90.5794 109.261 90.2902 109.47C89.4728 110.078 88.8001 110.899 88.5799 111.899C88.4674 112.201 88.4455 112.552 88.386 112.874C88.3639 113.03 88.3187 113.2 88.312 113.348L88.3116 113.789C88.2816 114.073 88.3838 114.373 88.3889 114.647C88.4623 114.933 88.5115 115.212 88.6124 115.493C88.8143 116.053 88.8614 116.682 89.0945 117.296C89.5133 118.531 90.18 119.786 91.0866 120.871C91.7812 121.679 92.6114 122.367 93.4905 122.945C94.3307 123.473 95.2513 123.822 96.1386 124.148C98.7892 125.073 101.775 125.054 104.409 124.234C105.04 124.032 105.635 123.749 106.209 123.446C106.503 123.317 106.775 123.149 107.069 123.019C108.127 122.508 109.105 121.858 109.853 121.024C110.141 120.744 110.343 120.401 110.577 120.081C110.574 120.093 110.85 119.666 110.929 119.589L111.206 119.254L111.717 118.649C112.4 117.863 113.069 117.106 113.762 116.355C114.54 115.503 115.349 114.685 115.942 113.674C116.107 113.393 116.321 113.443 116.559 113.818C116.966 114.465 117.431 115.108 117.387 115.811C117.357 116.29 117.295 116.696 116.911 116.97C116.346 117.359 116.131 118.12 115.359 118.312C115.254 118.342 115.177 118.458 115.12 118.553C114.659 119.457 114.043 120.235 113.405 120.975L112.998 121.457L112.516 122.096C112.205 122.533 111.801 122.88 111.456 123.275C111.196 123.498 110.96 123.748 110.713 123.994C110.466 124.24 110.197 124.447 109.936 124.67C109.592 124.962 109.195 125.162 108.816 125.392C108.233 125.679 107.636 125.923 107.05 126.17C106.618 126.38 106.21 126.668 105.662 126.36C105.555 126.299 105.322 126.393 105.263 126.52C105.038 126.999 104.626 127.033 104.237 127.105C103.173 127.27 102.09 127.314 101.023 127.297C100.229 127.306 99.4326 127.296 98.6276 127.271C97.3734 127.249 96.0909 127.09 94.8343 126.711C93.7841 126.387 92.8359 125.849 91.9031 125.302C91.6842 125.173 91.4403 125.089 91.2368 124.95C90.8509 124.692 90.4221 124.448 90.1905 124.049C89.9257 123.628 89.7123 123.331 89.1317 123.267C88.8034 123.232 88.5524 122.906 88.3569 122.64C88.1091 122.301 87.9555 121.877 87.8184 121.464C87.6413 120.982 87.5478 120.502 87.0285 120.209C86.74 120.048 86.6426 119.632 86.5667 119.307C86.296 117.832 85.7995 116.499 85.612 114.955C85.5641 114.696 85.5711 114.425 85.5704 114.158C85.5775 113.888 85.5448 113.619 85.5992 113.341L85.7225 112.51C85.7781 112.252 85.8623 112.009 85.9344 111.761C86.0066 111.514 86.0742 111.26 86.1662 111.011L86.5103 110.278C86.7096 109.772 87.0556 109.325 87.373 108.864C87.9145 108.17 88.6097 107.582 89.3488 107.123C90.4979 106.415 91.7864 105.965 93.0217 105.812C93.6507 105.694 94.2519 105.704 94.8583 105.67C95.4486 105.697 96.0563 105.683 96.6337 105.759C97.0942 105.81 97.5547 105.861 97.995 105.841C99.0404 105.768 100.051 105.972 101.01 106.298C102.175 106.679 103.351 106.848 104.539 107.021C104.82 107.063 105.111 107.069 105.361 107.181C107.118 107.946 109.015 108.262 110.727 109.054C112.115 109.696 113.418 110.51 114.702 111.325C115.692 111.951 116.645 112.64 117.596 113.34C117.662 113.384 117.75 113.394 117.809 113.442C118.34 113.863 118.268 114.428 117.598 114.971C117.019 115.46 116.457 115.622 115.954 115.339C115.394 115.028 114.855 114.684 114.303 114.368L114.253 114.459Z" fill="#F8AFB8"/>
<path d="M100.13 87.2288C100.13 87.2288 104.634 99.2184 112.504 101.958C119.322 104.334 128.545 102.154 129.873 97.3507C131.132 92.7821 124.677 87.5478 118.964 84.8287C110.894 80.9835 100.13 87.2288 100.13 87.2288Z" fill="#F1D1D5"/>
<path d="M102.644 89.6904C102.898 90.5695 103.222 91.4284 103.469 92.3317C103.682 93.1417 103.934 93.9295 104.6 94.4767C104.772 94.6132 104.865 94.8261 104.999 95.0047C105.246 95.3235 105.466 95.6677 105.746 95.9565C105.874 96.0878 106.112 96.1446 106.178 96.3115C106.495 97.123 107.049 97.7766 107.825 98.1777C108.082 98.8498 108.697 99.1496 109.287 99.4232C109.578 99.5721 109.841 99.7586 110.106 99.933C110.393 100.074 110.699 100.194 111.024 100.242C111.2 100.263 111.368 100.34 111.491 100.463C111.878 100.793 112.334 101.031 112.788 101.23C113.29 101.37 113.779 101.506 114.293 101.578C115.389 101.752 116.455 101.996 117.571 102.364C118.165 102.574 118.803 102.542 119.423 102.531C119.795 102.5 120.158 102.454 120.524 102.395L121.608 102.177C122.132 102.089 122.638 101.918 123.137 101.752C123.617 101.535 124.114 101.349 124.536 101.032C125.693 100.268 126.728 99.3806 127.363 98.4582C127.503 98.2228 127.722 98.0342 127.852 97.8153C127.925 97.7114 128.01 97.6106 128.103 97.5054L128.269 97.1729C128.749 96.3198 128.715 95.1288 128.167 93.9378C127.759 93.0565 127.115 92.2295 126.338 91.5102C125.636 90.83 124.797 90.2696 123.987 89.7036C122.776 88.8561 121.489 88.105 120.167 87.4355C119.502 87.103 118.823 86.7992 118.149 86.5229C117.502 86.3444 116.92 86.0664 116.239 85.9895C115.921 85.9376 115.615 85.8692 115.292 85.8614L114.324 85.8381C114.008 85.806 113.676 85.8346 113.352 85.807C112.145 85.7071 110.873 85.7981 109.621 85.9914C107.814 86.2906 106.024 86.8672 104.28 87.5404C103.297 87.9158 102.268 88.3178 101.493 89.0143C101.266 89.2074 101.145 89.0519 101 88.6433C100.776 87.9214 100.57 87.1587 100.848 86.5249C101.048 86.0909 101.261 85.7317 101.735 85.6306C102.407 85.4973 102.935 84.9037 103.721 85.0736C103.826 85.0949 103.953 85.0313 104.041 84.9702C105.722 83.7998 107.771 83.4933 109.752 83.2468C110.408 83.1742 111.041 82.9917 111.71 82.9422C112.141 82.9074 112.572 82.8528 113.003 82.8896C113.63 82.9262 114.254 82.9749 114.883 83.0511C115.351 83.0976 115.849 82.9831 116.181 83.5193C116.247 83.6344 116.492 83.6669 116.598 83.5848C117.017 83.2803 117.406 83.4033 117.78 83.5351L119.264 84.1826L120.634 84.9167C121.313 85.2722 122.002 85.6112 122.705 85.9214C123.783 86.4351 124.915 86.9175 125.947 87.5812C126.82 88.1314 127.614 88.8099 128.398 89.5247C128.58 89.6964 128.802 89.8138 128.98 89.9976C129.298 90.3159 129.666 90.6669 129.828 91.0864C129.982 91.5819 130.153 91.9132 130.707 92.1254C131.007 92.2698 131.199 92.6715 131.319 93.0021C131.458 93.4548 131.497 93.9456 131.487 94.4235C131.449 95.0303 131.399 95.5107 131.649 96.1355C131.715 96.3024 131.751 96.5069 131.709 96.7164C131.666 96.9259 131.584 97.1378 131.504 97.3178C130.759 98.8993 129.844 100.118 128.775 101.158C127.319 102.557 125.582 103.525 123.773 104.174C123.063 104.401 122.323 104.594 121.586 104.704C119.285 105.105 116.934 104.981 114.677 104.433C114.236 104.31 113.795 104.186 113.335 104.155C112.807 104.092 112.291 103.981 111.786 103.802C111.279 103.583 110.782 103.327 110.311 103.046C109.783 102.666 109.233 102.338 108.665 102.031C108.147 101.686 107.579 101.379 107.04 101.034C106.799 100.866 106.529 100.736 106.332 100.522C105.01 99.021 103.491 97.7473 102.431 96.1149C101.601 94.7904 100.98 93.3655 100.422 91.9445C99.9951 90.8375 99.6508 89.7135 99.3416 88.5794C99.3213 88.509 99.2614 88.4412 99.2412 88.3709C99.0881 87.7003 99.5094 87.3121 100.365 87.3186C101.128 87.307 101.658 87.5126 101.865 88.0287L102.561 89.7592L102.644 89.6904Z" fill="#F8AFB8"/>
<path d="M98.9932 86.9966C98.9932 86.9966 92.7792 91.6386 85.0643 87.7514C81.8211 86.1236 78.5949 82.4027 79.436 78.7232C80.2259 75.3094 85.4806 73.2764 89.4332 74.2874C95.1966 75.7665 98.9932 86.9966 98.9932 86.9966Z" fill="#F1D1D5"/>
<path d="M97.4357 89.2949C96.7077 89.4197 95.995 89.5356 95.268 89.4853C94.6158 89.4225 94.0097 89.3329 93.4416 89.6625C93.2957 89.7472 93.115 89.7187 92.9456 89.7451C92.6452 89.7757 92.3436 89.7865 92.04 89.8293C91.9058 89.8456 91.7617 90.0216 91.6302 89.9542C90.9855 89.692 90.3928 89.6254 89.7355 89.8015C89.2904 89.4235 88.7905 89.57 88.2806 89.5579C87.7644 89.5702 87.3126 89.3397 86.7495 89.4304C86.5999 89.4556 86.4434 89.4335 86.3305 89.3451C85.9919 89.0798 85.6557 88.8541 85.2803 88.7025C84.9127 88.5464 84.5265 88.4113 84.1455 88.2321C83.3349 87.861 82.6527 87.2511 82.2092 86.4515C81.9719 86.0248 81.6417 85.7033 81.3223 85.3652C80.9508 84.9548 80.53 84.5832 80.1956 84.1307C79.7013 83.4734 79.2531 82.7893 78.7616 82.0483C78.0988 81.0475 77.7102 79.7234 77.8399 78.3552C77.9407 77.6091 78.3435 76.9239 78.7881 76.3991C79.6781 75.2978 80.8112 74.6506 81.9043 74.1292C82.7319 73.7516 83.5576 73.406 84.4156 73.1339C85.2167 72.9051 86.0263 72.6201 86.8922 72.5384C87.5325 72.4747 88.1766 72.4704 88.8397 72.5167C89.168 72.552 89.5052 72.6026 89.8303 72.65C90.17 72.7402 90.5186 72.8458 90.8595 72.9559C92.1938 73.4337 93.3471 74.2012 94.294 75.0372C94.7799 75.4325 95.2263 75.8303 95.6584 76.2568C95.8822 76.4656 96.0522 76.7056 96.2223 76.9456C96.5369 77.3993 96.8316 77.8543 97.0912 78.3194C97.3706 78.7832 97.6258 79.2406 97.8777 79.7102C98.612 81.0287 99.2989 82.3542 99.8618 83.7311C100.181 84.5106 100.445 85.3016 100.959 86.0292C101.104 86.243 100.951 86.4036 100.512 86.4428C99.7569 86.5216 98.9994 86.684 98.4498 86.4796C98.0834 86.3433 97.7808 86.211 97.7599 85.8742C97.7412 85.3822 97.225 85.0762 97.4545 84.4813C97.4892 84.3996 97.4249 84.3241 97.3694 84.2639C96.3508 83.2335 95.9865 81.9158 95.3312 80.7157C95.1315 80.3185 94.8057 80.0046 94.5523 79.6386L94.0556 78.9417C93.8276 78.6019 93.6368 78.22 93.341 77.9401C93.1128 77.7236 92.8378 77.5856 92.9578 77.085C92.9791 76.9802 92.8496 76.8809 92.7365 76.9158C92.2915 77.0508 92.1513 76.8448 91.9805 76.6565C91.4954 76.2094 91.0045 75.7349 90.4257 75.4447C90.2222 75.3063 89.9884 75.2572 89.7624 75.2036C89.5331 75.1622 89.318 75.092 89.0714 75.0915C88.3213 75.0546 87.5784 75.2599 86.8848 75.4263C86.2999 75.5502 85.7163 75.6939 85.1638 75.8913C85.0397 75.9427 84.9359 76.0645 84.8074 76.1083C84.5734 76.1825 84.3743 76.3699 84.1086 76.3188C83.8142 76.2536 83.6121 76.3298 83.5664 76.7463C83.5327 76.9711 83.367 77.0569 83.2187 77.102C83.0154 77.1583 82.7841 77.1489 82.5464 77.1636C82.248 77.1623 81.9719 77.1994 81.9589 77.5661C81.9591 77.761 81.8043 77.8303 81.624 77.8733C81.2526 77.9759 80.9888 78.211 80.8234 78.4918C80.6655 78.7681 80.6258 79.0887 80.6403 79.4497C80.695 80.3929 81.1422 81.252 81.7109 82.02C81.9364 82.3202 82.1433 82.6415 82.3886 82.9404C83.1621 83.8667 84.0084 84.8123 85.0122 85.605C85.2048 85.7601 85.4063 85.9305 85.6554 85.9707C86.234 86.0659 86.7598 86.3355 87.2465 86.6791C87.556 86.8587 87.8848 86.9656 88.2354 87.0392C88.577 87.0975 88.9413 87.0709 89.2837 87.0774C89.4467 87.0752 89.6148 87.029 89.7681 87.0632C90.8297 87.4426 91.9347 87.0478 92.9846 86.9825C93.853 86.9404 94.7655 86.9036 95.6827 86.7511C96.3832 86.632 97.1189 86.5027 97.8088 86.2769C97.8516 86.2623 97.8722 86.2093 97.9227 86.1902C98.3063 86.0908 98.7093 86.4316 99.0193 87.1958C99.265 87.8845 99.1838 88.4345 98.7789 88.6386C98.3324 88.8772 97.8612 89.0377 97.3931 89.1862L97.4357 89.2949Z" fill="#F8AFB8"/>
<path d="M116.122 60.327C114.461 63.8666 108.314 64.1494 104.464 62.9968C100.334 61.7503 96.3804 58.1025 95.9002 53.5785C95.7901 52.5751 95.5563 50.3505 96.9063 48.7154C99.5166 45.5384 106.364 46.6041 110.582 49.5235C113.808 51.757 117.829 56.6892 116.122 60.327Z" fill="#F1D1D5"/>
<path d="M115.135 63.2715C114.317 63.6127 113.498 63.8108 112.697 63.793C111.976 63.7702 111.326 63.6754 110.694 64.0011C110.528 64.0869 110.34 64.0629 110.157 64.0663L109.176 64.1432C109.029 64.1563 108.872 64.3093 108.729 64.2585C108.042 64.0109 107.398 63.8918 106.686 64.0793C106.203 63.6718 105.668 63.8284 105.11 63.8035C104.551 63.7785 104.052 63.555 103.447 63.6086C103.285 63.6306 103.123 63.581 103.006 63.4849C102.281 62.8896 101.481 62.5734 100.687 62.1416C99.8396 61.6892 99.1205 60.9981 98.6875 60.1103C98.4521 59.6516 98.1061 59.2675 97.7875 58.8776C97.4123 58.4078 96.991 57.9647 96.6683 57.4439C96.1921 56.694 95.7741 55.9205 95.3052 55.0946C94.7009 53.947 94.2991 52.7947 94.2193 51.3838C94.1871 50.6739 94.4431 49.9302 94.7821 49.2409C95.4409 47.8119 96.8061 46.8043 98.0953 46.3025C99.0737 45.9195 100.056 45.6675 101.039 45.5388C101.938 45.4272 102.861 45.3022 103.76 45.3656C106.436 45.5373 109.008 46.2921 111.412 47.6579C111.996 47.9755 112.574 48.3174 113.111 48.6937C113.385 48.8835 113.618 49.1077 113.85 49.3318C114.707 50.1893 115.453 51.1213 116.163 52.1152C117.17 53.5321 118.097 55.129 118.445 57.1437C118.635 58.2852 118.519 59.5532 118.262 60.8618C118.194 61.2398 117.969 61.2578 117.632 60.9606C117.04 60.4526 116.376 60.0166 116.08 59.5418C115.828 59.1956 115.671 58.9786 115.788 58.685C115.971 58.2401 115.595 57.822 115.924 57.2924C115.971 57.2139 115.93 57.1251 115.878 57.0527C115.059 55.8548 114.562 54.5732 113.723 53.3567C113.441 52.9765 113.071 52.6575 112.728 52.3328L112.083 51.6808C111.77 51.3702 111.492 50.9978 111.115 50.7547C110.836 50.5573 110.505 50.4824 110.512 49.9451C110.517 49.8295 110.352 49.7403 110.24 49.795C109.815 50.0004 109.609 49.8222 109.385 49.6652C108.756 49.2708 108.122 48.8687 107.429 48.5937C106.915 48.3791 106.367 48.266 105.813 48.1969C104.95 48.1234 104.092 48.1489 103.277 48.2115C102.599 48.2457 101.932 48.2633 101.311 48.3775C101.166 48.4104 101.041 48.5136 100.903 48.5421C100.635 48.5747 100.419 48.7511 100.159 48.656C99.8618 48.5511 99.6674 48.6229 99.5764 49.0143C99.5305 49.2359 99.3923 49.3161 99.2428 49.3413C99.0415 49.3658 98.8632 49.3769 98.6198 49.3642C98.3489 49.3571 98.0785 49.4217 98.1237 49.7649C98.1667 49.9452 98.0087 50.0266 97.8462 50.1003C97.1483 50.4539 96.9814 51.3512 97.1156 52.1662C97.1571 52.45 97.2108 52.7369 97.2887 53.0304C97.3602 53.3481 97.4566 53.6205 97.5519 53.8731C97.7359 54.4025 98.0044 54.883 98.2762 55.3513C98.3984 55.5267 98.4977 55.7154 98.6046 55.8996L98.9483 56.4391C99.7195 57.5206 100.578 58.5928 101.642 59.5249C101.845 59.7151 102.07 59.892 102.334 59.975C102.965 60.1426 103.475 60.4728 104.005 60.8216C104.645 61.2512 105.409 61.3309 106.175 61.3071C106.35 61.3082 106.542 61.2486 106.708 61.3058C107.89 61.6976 109.154 61.3645 110.295 61.2975C111.231 61.2473 112.164 61.229 113.002 61.0099C113.643 60.8427 114.25 60.6141 114.741 60.2057C114.768 60.1802 114.764 60.1208 114.79 60.0953C115.051 59.8723 115.624 59.9401 116.231 60.4909C116.75 60.9796 116.925 61.6171 116.518 62.048C116.315 62.2993 116.085 62.5045 115.83 62.6834C115.588 62.8854 115.335 63.0324 115.069 63.1762L115.135 63.2715Z" fill="#F8AFB8"/>
<path d="M117.216 61.7815C117.216 61.7815 121.813 68.237 128.122 69.861C137.471 72.2666 145.323 67.9881 145.69 63.4034C145.997 59.5821 139.774 55.7016 134.062 54.6648C126.472 53.2914 117.216 61.7815 117.216 61.7815Z" fill="#F1D1D5"/>
<path d="M120.082 63.1835C120.499 63.8853 121.004 64.5261 121.435 65.251C121.825 65.887 122.246 66.5249 122.989 66.7612C123.172 66.8293 123.321 66.9792 123.479 67.0926C123.777 67.2888 124.073 67.4971 124.401 67.6557C124.544 67.7263 124.769 67.6885 124.875 67.8012C125.392 68.3736 126.057 68.7777 126.846 68.7923C127.261 69.3312 127.9 69.2477 128.476 69.3034C129.07 69.3182 129.641 69.5412 130.246 69.3643C130.402 69.3149 130.585 69.3115 130.728 69.3821C131.614 69.8122 132.573 69.7486 133.504 69.6907C134.508 69.6004 135.488 69.627 136.535 69.7687C137.096 69.8332 137.655 69.7349 138.185 69.5706C138.832 69.4111 139.412 69.0847 140.012 68.8286C140.433 68.6155 140.852 68.3827 141.229 68.1127C141.588 67.8119 141.972 67.5374 142.243 67.1547C143.023 66.1994 143.6 65.1772 143.789 64.2666C143.811 64.0385 143.95 63.835 143.972 63.6268C144.006 63.5253 144.039 63.4238 144.08 63.3178C144.106 63.2208 144.097 63.1338 144.115 63.0412C144.236 62.294 143.742 61.1952 142.971 60.3085C142.368 59.642 141.609 59.0767 140.782 58.6231C140.012 58.1977 139.17 57.896 138.34 57.5977C137.11 57.1412 135.844 56.7983 134.578 56.5788C134.269 56.5423 133.931 56.4719 133.643 56.454L132.786 56.4277C132.51 56.3932 132.209 56.4755 131.919 56.4896C131.631 56.5234 131.342 56.5374 131.045 56.6274L130.207 56.8466C129.93 56.9354 129.656 57.0638 129.379 57.1526L128.533 57.4279C127.471 57.7366 126.382 58.1424 125.349 58.66C123.856 59.4131 122.434 60.3407 121.044 61.322C120.259 61.8799 119.447 62.4434 118.907 63.2287C118.75 63.4532 118.595 63.3276 118.366 62.968C117.98 62.3199 117.591 61.6322 117.686 60.982C117.746 60.5368 117.858 60.1639 118.248 59.9885C118.822 59.7381 119.126 59.0788 119.875 59.0958C119.979 59.0974 120.061 59.0087 120.127 58.929C121.283 57.489 122.983 56.7589 124.616 56.0171L126.188 55.2073C126.527 55.0311 126.897 54.9087 127.267 54.7863C127.537 54.7019 127.81 54.6253 128.076 54.553C128.351 54.4962 128.621 54.4316 128.898 54.3428C129.299 54.2025 129.682 53.96 130.143 54.3489C130.24 54.4264 130.451 54.3656 130.507 54.2507C130.742 53.8066 131.102 53.7723 131.469 53.7853C131.959 53.7985 132.437 53.7568 132.927 53.8219C133.413 53.899 133.901 53.9442 134.375 54.0182C135.062 54.1424 135.753 54.2546 136.455 54.3501C137.532 54.5258 138.643 54.6715 139.707 55.019C140.599 55.3015 141.441 55.7264 142.291 56.1667C142.485 56.27 142.719 56.3191 142.909 56.4346C143.259 56.6315 143.662 56.8491 143.89 57.1888C144.137 57.5792 144.348 57.8365 144.905 57.8416C145.213 57.8583 145.47 58.1605 145.657 58.4114C145.903 58.7301 146.038 59.1751 146.165 59.553C146.244 59.7947 146.284 60.0587 146.384 60.2672C146.489 60.4834 146.625 60.6818 146.846 60.9027C147.098 61.1257 147.185 61.5578 147.149 61.9378C147.094 63.6117 146.689 64.9653 146.087 66.2276C145.246 67.9265 143.929 69.2652 142.465 70.2789C141.88 70.6494 141.261 70.9981 140.616 71.249C138.641 72.1075 136.495 72.3882 134.425 72.3578C134.019 72.3473 133.611 72.3169 133.204 72.4099C132.277 72.547 131.342 72.4739 130.454 72.1991C129.913 72.0617 129.37 71.9761 128.836 71.8861C128.289 71.7928 127.749 71.7986 127.157 71.6803C126.883 71.6336 126.597 71.6355 126.347 71.5238C124.666 70.7136 122.912 70.1306 121.487 69.0182C120.349 68.1185 119.413 67.0193 118.55 65.9196C117.888 65.0619 117.306 64.1476 116.767 63.2186C116.731 63.1572 116.657 63.118 116.622 63.0566C116.328 62.4982 116.649 62.0248 117.461 61.7794C118.171 61.5524 118.712 61.5664 119.019 61.953L120.023 63.2587L120.082 63.1835Z" fill="#F8AFB8"/>
<path d="M127.443 36.184C129.928 33.0386 126.789 25.4704 121.684 21.8544C117.574 18.9442 110.627 17.4949 108.055 20.6497C105.598 23.666 108.061 29.769 111.263 33.0937C115.974 37.9949 124.829 39.4965 127.443 36.184Z" fill="#F1D1D5"/>
<path d="M127.011 33.5498C127.243 32.9427 127.255 32.238 127.368 31.4952C127.446 30.8341 127.478 30.1282 126.991 29.5897C126.879 29.4496 126.851 29.2604 126.777 29.0979C126.636 28.8005 126.521 28.4974 126.341 28.2222C126.258 28.0961 126.055 28.0292 126.034 27.8873C125.988 27.5243 125.88 27.197 125.706 26.8975C125.54 26.5937 125.317 26.3331 124.999 26.1381C124.975 25.4953 124.441 25.2302 124.018 24.8906C123.595 24.551 123.27 24.1139 122.718 23.9413C122.573 23.9027 122.44 23.8155 122.364 23.6849C121.937 22.8962 121.172 22.4785 120.431 22.087C119.608 21.6928 118.861 21.2023 118.114 20.5687C117.715 20.2355 117.219 20.0516 116.729 19.915C116.145 19.7405 115.534 19.695 114.94 19.6087C114.077 19.4834 113.197 19.5222 112.385 19.7676C111.305 20.1171 110.37 20.6286 109.85 21.2178C109.783 21.2975 109.711 21.3497 109.631 21.4064C109.572 21.4817 109.512 21.5371 109.432 21.5938C109.263 21.6918 109.169 21.8487 109.023 21.9851C108.546 22.5795 108.251 23.5921 108.31 24.6663C108.361 25.4785 108.591 26.2994 108.942 27.0809C109.273 27.812 109.72 28.4762 110.175 29.136C110.825 30.1138 111.581 31.0292 112.405 31.7933C113.246 32.5364 114.162 33.1954 115.181 33.7127C115.677 33.9483 116.187 34.1552 116.706 34.3258C116.962 34.4133 117.209 34.5371 117.45 34.6533C118.37 35.0535 119.317 35.448 120.296 35.6496C121.688 35.9608 123.146 35.9974 124.302 35.7267C124.963 35.61 125.543 35.3353 125.607 34.8978C125.628 34.7931 125.822 34.8964 126.114 35.1884C126.616 35.718 127.122 36.307 127.058 36.9911C126.975 37.3979 126.806 37.8141 126.371 37.9127C126.052 37.9644 125.785 38.1401 125.497 38.2455C125.208 38.3311 124.893 38.3904 124.57 38.2395C124.484 38.1972 124.366 38.2244 124.282 38.2734C122.651 39.035 120.854 38.6098 119.273 38.1831L117.664 37.8337C117.317 37.748 116.99 37.6092 116.655 37.4749C116.171 37.2942 115.742 36.9789 115.262 36.8059C114.895 36.6696 114.501 36.5907 114.411 36.0474C114.396 35.933 114.208 35.8572 114.096 35.9119C113.652 36.1185 113.407 35.8911 113.145 35.7046C112.78 35.4648 112.451 35.1631 112.123 34.8812C111.78 34.6082 111.474 34.2932 111.157 33.9947C110.681 33.563 110.188 33.1203 109.711 32.6688C108.96 31.9757 108.2 31.2673 107.586 30.4225C107.058 29.7236 106.678 28.9279 106.286 28.129C106.199 27.9435 106.05 27.7738 105.978 27.5794C105.829 27.2347 105.646 26.8484 105.682 26.4683C105.731 26.0397 105.723 25.726 105.302 25.4062C105.072 25.2216 105.06 24.8485 105.066 24.5578C105.067 24.1879 105.233 23.7838 105.366 23.4295C105.569 22.9834 105.757 22.6177 105.623 22.0692C105.561 21.7669 105.714 21.4113 105.956 21.1576C106.868 20.0231 107.81 19.0458 108.96 18.3578C110.513 17.4261 112.232 17.1163 113.86 17.0748C114.51 17.0462 115.133 17.1467 115.759 17.2351C117.692 17.5603 119.489 18.3235 121.121 19.3675C121.441 19.5823 121.756 19.7893 122.119 19.9378C122.539 20.0946 122.922 20.3134 123.27 20.594C123.621 20.8626 123.942 21.1687 124.214 21.5137C124.561 21.9177 124.929 22.2687 125.301 22.6273C125.684 22.9694 126.072 23.3192 126.46 23.6689C126.645 23.8284 126.86 23.9701 126.977 24.1895C127.787 25.6386 128.932 26.9037 129.499 28.5349C129.958 29.8387 130.107 31.2811 130.023 32.746C129.942 33.8805 129.642 35.0605 128.96 36.1132C128.908 36.184 128.898 36.2721 128.842 36.3353C128.345 36.9111 127.858 36.6908 127.357 35.9862C126.893 35.3628 126.681 35.0338 126.785 34.7172L126.904 34.4632L126.982 34.172C127.05 33.9888 127.105 33.7826 127.119 33.559L127.011 33.5498Z" fill="#F8AFB8"/>
<path d="M128.732 37.6228C126.363 35.2724 129.33 28.3068 132.728 24.0985C136.432 19.5171 143.129 15.1593 146.316 17.2201C148.027 18.3307 148.153 20.9359 148.214 22.2247C148.513 28.5775 143.036 34.0646 137.909 36.4953C136.738 37.0414 130.932 39.8047 128.732 37.6228Z" fill="#F1D1D5"/>
<path d="M126.611 34.9948C126.812 34.0675 127.09 33.2389 127.538 32.5071C127.939 31.8537 128.376 31.2816 128.404 30.5163C128.412 30.3169 128.553 30.1531 128.621 29.9699L129.037 28.9895C129.096 28.8426 129.038 28.6195 129.146 28.5054C129.701 27.9579 130.101 27.3563 130.26 26.5868C130.849 26.2757 130.939 25.6696 131.192 25.1328C131.433 24.5929 131.852 24.1651 132.004 23.5432C132.053 23.381 132.147 23.224 132.281 23.1362C133.102 22.588 133.68 21.852 134.32 21.1322C135.008 20.3735 135.85 19.7723 136.846 19.42C137.371 19.2282 137.82 18.906 138.275 18.6113C138.818 18.2554 139.32 17.8304 139.897 17.5161C140.722 17.0273 141.566 16.589 142.478 16.0909C143.094 15.7741 143.777 15.501 144.579 15.4153C144.781 15.3909 144.986 15.3741 145.184 15.3618C145.4 15.3802 145.616 15.3986 145.837 15.4246C146.279 15.4448 146.722 15.6599 147.163 15.8354C148.062 16.2885 148.615 17.1887 148.929 17.9607C149.546 19.553 149.462 21.0178 149.444 22.3314C149.402 23.3919 149.37 24.4678 149.152 25.5074C148.99 26.484 148.764 27.4565 148.413 28.3892C147.286 31.116 145.479 33.4675 143.333 35.4106C142.822 35.8918 142.306 36.3653 141.761 36.8049C141.484 37.017 141.19 37.2182 140.886 37.3843C140.314 37.7062 139.736 38.0007 139.132 38.2689C138.54 38.5403 137.981 38.762 137.384 39.006C135.683 39.6646 133.97 40.32 131.855 40.4595C131.557 40.478 131.23 40.4625 130.924 40.4656C130.593 40.4425 130.252 40.404 129.919 40.3611C129.211 40.2182 128.428 40.0362 127.642 39.5482C127.187 39.2781 127.228 39.029 127.654 38.8435C128.394 38.4753 128.996 38.0441 129.558 37.8103C129.931 37.6757 130.194 37.4923 130.472 37.67C130.935 37.8838 131.448 37.5655 131.992 37.9373C132.075 37.9918 132.18 37.9614 132.262 37.9245C133.716 37.1938 135.269 36.9182 136.799 36.318C137.292 36.1243 137.743 35.8218 138.196 35.559L139.08 35.0665C139.515 34.8446 139.966 34.6137 140.362 34.3226C140.653 34.0818 140.856 33.7589 141.394 33.9084C141.508 33.9451 141.65 33.8011 141.638 33.6745C141.592 33.1882 141.853 33.0368 142.099 32.8425L143.056 32.0511C143.353 31.7662 143.662 31.4845 143.932 31.1734C144.334 30.7149 144.679 30.1963 144.947 29.6506C145.18 29.2384 145.315 28.7806 145.487 28.3523C145.614 27.899 145.771 27.4796 145.875 27.0396C146.073 26.3194 146.308 25.6286 146.387 24.9157C146.405 24.7516 146.354 24.5758 146.384 24.4148C146.429 24.1217 146.346 23.8008 146.524 23.5431C146.737 23.2554 146.729 22.9934 146.389 22.7083C146.184 22.55 146.222 22.3329 146.234 22.0697C146.267 21.7733 146.385 21.4995 146.487 21.2147C146.614 20.8847 146.736 20.547 146.406 20.2971C146.227 20.165 146.256 19.9326 146.288 19.7397C146.443 18.8392 145.895 18.213 145.262 18.1489C144.349 18.0427 143.202 18.4719 142.121 19.1198C141.691 19.3693 141.248 19.5957 140.807 19.8617C139.455 20.6975 138.059 21.5996 136.738 22.6124C136.472 22.808 136.206 23.0035 136.033 23.2887C135.627 23.9343 135.093 24.4289 134.531 24.9093C133.834 25.4776 133.436 26.2939 133.081 27.1153C132.997 27.3075 132.964 27.5323 132.826 27.684C131.896 28.7878 131.56 30.2246 130.985 31.4615C130.522 32.4686 130.003 33.4475 129.705 34.4205C129.489 35.1618 129.335 35.8873 129.432 36.4261C129.442 36.4613 129.472 36.4952 129.486 36.5182C129.525 36.6391 129.449 36.8267 129.307 37.0424C129.161 37.2503 128.938 37.5028 128.558 37.6617C128.221 37.8059 127.877 37.8313 127.572 37.7309C127.276 37.6261 127.074 37.3841 126.934 37.0548C126.82 36.6999 126.778 36.3446 126.733 36.0014C126.736 35.671 126.723 35.3298 126.748 35.0181L126.611 34.9948Z" fill="#F8AFB8"/>
<path d="M126.354 47.5901C125.82 49.1108 125.258 50.6174 124.581 52.0872C123.925 53.5558 123.179 54.9942 122.292 56.33C120.711 58.7351 118.808 60.7426 116.827 62.8464C116.312 63.3915 115.661 63.8616 115.083 64.3509C114.021 65.2442 112.979 66.1362 112.058 67.1321C111.637 67.5918 111.315 68.1686 110.92 68.583C109.932 69.587 109.037 70.7324 108.195 71.8984C107.364 73.0676 106.597 74.2926 105.957 75.5772C104.486 77.3033 103.624 79.3733 102.795 81.4453C101.973 83.5129 101.151 85.652 100.949 87.8322C100.925 88.4103 100.774 89.0521 100.694 89.6218C99.9602 93.0441 100.472 96.7906 102.446 99.6269C104.557 102.681 107.729 105.089 110.537 107.842C112.055 109.29 113.733 110.697 115.357 112.116C117.268 113.818 119.203 115.508 121.018 117.328C123.641 119.973 126.166 122.663 128.69 125.386C132.07 129.018 135.232 132.929 138.005 137.16C139.415 139.307 140.603 141.655 141.658 144.04C143.799 148.791 145.39 153.85 145.893 159.12C146.115 161.095 146.097 163.097 145.962 165.094C145.841 166.088 145.769 167.094 145.527 168.076C145.412 168.584 145.364 169.033 145.192 169.584C145.039 170.135 144.823 170.629 144.598 171.109C143.749 172.864 142.73 174.379 141.701 175.878C140.669 177.37 139.606 178.828 138.525 180.256C132.114 188.696 125.426 197.031 118.397 205.009L113.415 210.783C112.598 211.729 111.775 212.679 110.958 213.625C109.461 215.376 108.027 217.132 106.854 219.002C105.665 220.862 104.712 222.862 103.915 224.956C101.669 230.97 101.167 237.552 101.816 244.03C102.177 247.71 102.875 251.389 104.103 254.904C104.439 255.89 104.344 256.274 103.827 256.019C102.94 255.569 102.041 255.259 101.142 253.585C100.577 252.435 100.04 251.351 99.8837 249.79C99.5893 247.549 98.9507 245.21 99.2 242.952C99.2397 242.631 99.1915 242.177 99.1451 241.814C98.2162 235.19 99.4277 228.258 102.152 222.111C103.049 220.102 104.018 218.093 105.256 216.266C106.053 215.075 106.913 213.94 107.815 212.842C109.133 211.256 110.543 209.761 111.887 208.221C112.897 207.061 113.8 205.859 115.06 205.129C115.321 204.977 115.847 204.364 115.961 204.082C116.391 203.002 117.281 202.095 118.129 201.152C120.438 198.622 122.742 196.084 124.957 193.465C126.595 191.529 128.169 189.538 129.686 187.519C132.045 184.385 134.311 181.182 136.62 178.016C137.584 176.687 138.548 175.378 139.48 174.048C140.403 172.722 141.294 171.374 141.944 170.053C142.076 169.75 142.204 169.44 142.281 169.149C142.377 168.837 142.42 168.627 142.488 168.249C142.599 167.61 142.746 166.96 142.828 166.307C142.891 165.655 143.002 165.015 143.12 164.404C143.221 163.729 143.306 163.115 143.296 162.515C143.255 161.913 143.151 161.327 142.953 160.703C142.683 160.008 142.617 158.887 142.489 157.976C142.405 157.388 142.368 156.794 142.291 156.202C142.222 155.606 142.146 155.014 142.074 154.43C141.962 153.725 141.844 153.044 141.682 152.358C141.501 151.674 141.224 151.003 140.852 150.326C140.421 149.601 140.095 148.508 139.808 147.607C138.565 143.608 136.44 139.874 134.019 136.373C130.728 131.622 126.981 127.198 123.022 123.01C121.464 121.369 119.91 119.715 118.296 118.137C115.775 115.701 113.171 113.353 110.468 111.083L106.36 107.628C104.985 106.445 103.594 105.231 102.295 103.788C101.29 102.658 100.305 101.403 99.5153 100.024C98.5746 98.4557 97.9935 96.6583 97.7408 94.8963C97.5475 93.1305 97.5203 91.3504 97.8239 89.6452C98.1328 87.5777 98.6218 85.5906 99.2543 83.674C99.8868 81.7574 100.613 79.8788 101.472 78.0873C101.87 77.2513 102.249 76.3845 102.726 75.6151C104.439 72.9075 106.162 70.3584 108.002 67.782C108.97 66.4611 110.076 65.1833 111.271 64.059C112.469 62.9226 113.693 61.9555 114.785 61.0246C115.668 60.2657 116.476 59.4996 117.226 58.6535C117.962 57.8163 118.704 56.9031 119.31 55.9666C120.574 54.0943 121.601 51.9384 122.482 49.7241C123.835 46.2911 124.892 42.6817 125.705 39.0079C125.757 38.7621 125.766 38.511 125.818 38.2652C126.273 36.1846 126.855 35.5598 127.517 36.684C128.089 37.6865 128.278 39.1979 127.883 41.1515C127.44 43.3068 126.876 45.4299 126.224 47.5425L126.354 47.5901Z" fill="#F8AFB8"/>
<path d="M97.002 197.441C97.0435 197.725 97.1266 197.974 97.1156 198.309C97.1143 198.607 97.1053 198.91 97.4287 198.866C97.5112 198.849 97.5205 198.936 97.5626 198.973C97.6423 199.04 97.7143 199.111 97.8049 199.161C97.8502 199.186 97.9763 199.103 97.9845 199.17C97.9767 199.492 98.0881 199.684 98.43 199.619C98.3334 199.983 98.6147 199.902 98.8152 199.929C99.0037 199.953 99.0895 200.119 99.3817 200.021C99.4598 199.997 99.5159 200.005 99.512 200.069C99.5398 200.453 99.808 200.544 100.065 200.651C100.339 200.769 100.509 201.009 100.539 201.433C100.557 201.659 100.69 201.746 100.815 201.837C100.961 201.948 101.174 201.978 101.338 202.067C101.577 202.196 101.848 202.274 102.211 202.228C102.689 202.166 103.118 202.163 103.51 202.203C103.711 202.23 103.798 202.415 103.93 202.554C104.179 202.841 104.394 203.178 104.672 203.427C104.875 203.617 105.132 203.725 105.397 203.827C105.638 203.924 105.936 203.925 106.183 203.997C106.929 204.221 107.655 204.447 108.403 204.639C108.585 204.687 108.787 204.682 108.96 204.715C109.053 204.734 109.135 204.768 109.205 204.819C109.483 204.997 109.759 205.207 110.055 205.363C110.474 205.592 110.923 205.763 111.353 205.975C111.6 206.098 111.824 206.255 112.163 206.131C112.256 206.097 112.204 206.291 112.017 206.677C111.697 207.345 111.375 208.045 111.079 208.402C110.879 208.641 110.715 208.818 110.642 208.676C110.55 208.463 110.255 208.715 110.277 208.241C110.281 208.177 110.242 208.179 110.206 208.19C109.551 208.457 109.209 208.009 108.783 207.753C108.643 207.67 108.468 207.669 108.306 207.62C108.204 207.586 108.11 207.548 108.015 207.491C107.887 207.411 107.779 207.279 107.626 207.244C107.509 207.22 107.347 207.294 107.451 206.854C107.469 206.761 107.413 206.753 107.338 206.837C107.084 207.159 107.015 207.076 106.944 207.024C106.729 206.883 106.53 206.7 106.308 206.583C106.136 206.498 105.943 206.466 105.732 206.455C105.397 206.444 105.031 206.503 104.699 206.48C104.427 206.453 104.194 206.352 103.944 206.292C103.883 206.276 103.787 206.322 103.734 206.301C103.632 206.268 103.49 206.289 103.471 206.115C103.456 205.929 103.399 205.849 103.124 206.1C102.97 206.241 102.903 206.178 102.858 206.101C102.797 206.013 102.79 205.843 102.788 205.68C102.776 205.482 102.783 205.282 102.539 205.445C102.405 205.533 102.373 205.407 102.366 205.289C102.321 204.75 102.041 204.605 101.706 204.522C101.242 204.412 100.752 204.347 100.284 204.229C100.102 204.181 99.9524 204.082 99.7967 204.009C99.2996 203.753 98.928 203.343 98.5706 202.904C98.5018 202.82 98.4362 202.725 98.3085 202.717C98.0057 202.708 97.8425 202.515 97.7319 202.272C97.5978 201.97 97.2792 201.898 96.9528 201.831C96.8724 201.816 96.7701 201.834 96.7345 201.773C96.5068 201.31 95.9197 201.271 95.6222 200.899C95.3846 200.596 95.2475 200.183 95.0919 199.791C94.9776 199.488 94.8972 199.155 94.806 198.838C94.8047 198.819 94.7619 198.833 94.7562 198.806C94.7241 198.609 95.0528 198.203 95.6648 197.683C96.2089 197.224 96.573 197.002 96.6673 197.112C96.7661 197.229 96.8353 197.384 96.9155 197.522L97.002 197.441Z" fill="#F8AFB8"/>
<path d="M115.965 145.052C116.305 145.214 116.649 145.312 116.982 145.55C117.277 145.758 117.569 145.978 117.859 145.718C117.935 145.653 118.018 145.708 118.097 145.703C118.243 145.69 118.391 145.697 118.528 145.668C118.595 145.66 118.662 145.509 118.72 145.557C119.026 145.8 119.32 145.866 119.626 145.596C119.861 145.931 120.093 145.694 120.329 145.588C120.57 145.49 120.804 145.558 121.047 145.305C121.111 145.237 121.189 145.212 121.247 145.261C121.624 145.555 122.012 145.464 122.402 145.411C122.82 145.354 123.233 145.463 123.616 145.805C123.822 145.983 124.045 145.997 124.269 146.011C124.537 146.03 124.81 145.954 125.077 145.953C125.466 145.953 125.86 145.888 126.262 145.696C126.811 145.44 127.363 145.242 127.91 145.141C128.184 145.084 128.444 145.231 128.7 145.318C129.217 145.501 129.721 145.752 130.241 145.922C130.626 146.037 131.035 146.088 131.438 146.11C131.821 146.134 132.219 146.078 132.598 146.094C133.736 146.162 134.865 146.287 136.004 146.427C136.28 146.461 136.562 146.452 136.842 146.474C136.982 146.485 137.107 146.525 137.238 146.573C137.71 146.75 138.177 146.972 138.645 147.142C139.325 147.394 140.018 147.597 140.683 147.878C141.063 148.037 141.429 148.225 141.89 148.153C142.02 148.129 141.985 148.334 141.793 148.712C141.461 149.377 141.126 150.074 140.794 150.42C140.57 150.653 140.374 150.828 140.268 150.664C140.107 150.439 139.764 150.679 139.701 150.182C139.693 150.115 139.641 150.114 139.598 150.129C138.791 150.382 138.241 149.911 137.616 149.648C137.412 149.561 137.174 149.576 136.952 149.53C136.811 149.499 136.67 149.468 136.535 149.413C136.34 149.341 136.161 149.209 135.952 149.186C135.788 149.169 135.607 149.263 135.587 148.803C135.58 148.704 135.497 148.702 135.439 148.797C135.227 149.156 135.111 149.08 134.992 149.035C134.659 148.921 134.339 148.758 133.996 148.68C133.746 148.62 133.479 148.62 133.203 148.657C132.777 148.72 132.34 148.85 131.922 148.908C131.571 148.958 131.242 148.903 130.901 148.916C130.821 148.921 130.726 148.986 130.654 148.987C130.514 148.976 130.352 149.049 130.246 148.885C130.132 148.705 130.021 148.656 129.831 148.982C129.723 149.168 129.605 149.124 129.514 149.074C129.395 149.009 129.301 148.848 129.2 148.691C129.081 148.504 128.97 148.312 128.774 148.559C128.667 148.693 128.565 148.588 128.479 148.474C128.118 147.975 127.675 147.955 127.229 148.019C126.622 148.104 126.008 148.266 125.406 148.378C125.167 148.425 124.943 148.411 124.713 148.422C123.994 148.438 123.293 148.291 122.583 148.129C122.442 148.098 122.304 148.054 122.161 148.127C121.83 148.299 121.52 148.242 121.206 148.107C120.826 147.947 120.437 148.091 120.053 148.242C119.959 148.276 119.877 148.364 119.788 148.334C119.174 148.126 118.569 148.497 117.956 148.432C117.456 148.384 116.955 148.192 116.457 148.04C116.067 147.917 115.668 147.759 115.274 147.629C115.249 147.622 115.228 147.655 115.199 147.641C114.97 147.548 114.862 147.026 114.903 146.212C114.943 145.501 115.063 145.072 115.27 145.075C115.497 145.077 115.731 145.126 115.959 145.148L115.965 145.052Z" fill="#F8AFB8"/>
<path d="M139.043 108.51C138.758 108.48 138.504 108.484 138.176 108.397C137.893 108.315 137.597 108.23 137.558 108.551C137.547 108.639 137.47 108.612 137.421 108.651C137.341 108.708 137.248 108.761 137.182 108.841C137.152 108.879 137.197 109.027 137.132 109.003C136.825 108.915 136.606 108.98 136.592 109.327C136.262 109.149 136.276 109.438 136.201 109.626C136.132 109.809 135.952 109.852 135.983 110.152C135.988 110.232 135.967 110.285 135.906 110.269C135.528 110.201 135.38 110.44 135.216 110.669C135.043 110.903 134.768 111.011 134.35 110.946C134.125 110.912 134.005 111.023 133.892 111.13C133.748 111.254 133.677 111.449 133.555 111.592C133.377 111.798 133.245 112.049 133.215 112.405C133.173 112.88 133.088 113.299 132.968 113.677C132.905 113.868 132.697 113.916 132.543 114.005C132.217 114.185 131.843 114.319 131.543 114.545C131.318 114.706 131.161 114.931 131.009 115.163C130.871 115.386 130.817 115.664 130.692 115.89C130.336 116.569 129.984 117.235 129.669 117.931C129.592 118.098 129.561 118.291 129.496 118.462C129.465 118.552 129.414 118.623 129.351 118.69C129.131 118.931 128.883 119.157 128.684 119.416C128.397 119.788 128.16 120.192 127.877 120.572C127.723 120.784 127.533 120.987 127.602 121.336C127.621 121.439 127.436 121.351 127.083 121.114C126.473 120.699 125.834 120.269 125.53 119.922C125.325 119.692 125.169 119.495 125.33 119.453C125.553 119.396 125.357 119.058 125.816 119.161C125.885 119.172 125.882 119.133 125.872 119.097C125.71 118.411 126.218 118.137 126.545 117.763C126.649 117.641 126.677 117.46 126.756 117.312C126.806 117.222 126.863 117.127 126.934 117.055C127.035 116.945 127.181 116.86 127.251 116.717C127.3 116.606 127.25 116.431 127.667 116.619C127.753 116.662 127.769 116.601 127.7 116.518C127.426 116.205 127.523 116.159 127.586 116.091C127.766 115.905 127.983 115.749 128.141 115.544C128.259 115.393 128.327 115.21 128.377 114.996C128.445 114.67 128.465 114.299 128.557 113.979C128.64 113.715 128.786 113.507 128.894 113.27C128.923 113.212 128.897 113.115 128.929 113.065C128.987 112.97 128.994 112.822 129.162 112.847C129.351 112.872 129.44 112.83 129.245 112.512C129.138 112.328 129.223 112.279 129.296 112.247C129.397 112.208 129.566 112.234 129.722 112.256C129.915 112.288 130.112 112.327 130.008 112.059C129.951 111.908 130.074 111.908 130.199 111.928C130.732 111.998 130.935 111.747 131.091 111.431C131.295 111.005 131.472 110.532 131.692 110.097C131.777 109.925 131.9 109.802 132.015 109.663C132.37 109.232 132.87 108.962 133.372 108.712C133.468 108.666 133.577 108.624 133.617 108.498C133.697 108.195 133.921 108.085 134.193 108.04C134.52 107.984 134.664 107.685 134.808 107.386C134.84 107.316 134.849 107.208 134.919 107.188C135.422 107.081 135.605 106.513 136.054 106.314C136.41 106.149 136.85 106.129 137.26 106.076C137.581 106.044 137.931 106.046 138.257 106.042C138.276 106.041 138.274 106.001 138.306 106.003C138.51 106.018 138.811 106.449 139.15 107.175C139.453 107.821 139.566 108.227 139.446 108.287C139.307 108.347 139.142 108.381 138.989 108.418L139.043 108.51Z" fill="#F8AFB8"/>
<path d="M135.531 183.214C132.493 180.738 128.306 177.801 122.932 175.244C117.703 172.757 112.911 171.361 109.143 170.561C107.728 173.075 107.265 176.114 108.536 178.322C115.861 191.035 135.523 183.218 135.531 183.214Z" fill="#F8AFB8"/>
<path d="M132.445 182.439C131.901 181.82 131.32 181.244 130.799 180.592C130.337 180.008 129.867 179.429 129.116 179.249C128.922 179.197 128.781 179.043 128.612 178.946C128.31 178.762 128.004 178.57 127.684 178.407C127.54 178.337 127.316 178.375 127.205 178.254C126.691 177.67 126.064 177.243 125.282 177.133C124.928 176.558 124.305 176.51 123.738 176.346C123.171 176.182 122.661 175.852 122.032 175.848C121.865 175.842 121.695 175.797 121.581 175.689C120.841 175.051 119.937 174.765 119.032 174.479C118.066 174.177 117.156 173.741 116.298 173.11C115.848 172.776 115.308 172.607 114.773 172.445C114.144 172.246 113.486 172.155 112.845 172.004C112.38 171.894 111.91 171.808 111.44 171.741C111.208 171.712 110.955 171.684 110.736 171.678C110.573 171.68 110.419 171.698 110.282 171.726C110.082 171.77 109.918 171.824 109.794 171.876C109.75 172.189 109.729 172.436 109.739 172.647L109.747 172.785C109.743 172.849 109.78 172.807 109.753 172.936L109.686 173.529C109.637 174.081 109.442 174.594 109.367 175.12C109.293 175.645 109.277 176.167 109.345 176.672C109.421 177.193 109.546 177.602 109.891 178.162L110.234 178.753L110.649 179.292C110.922 179.657 111.256 179.966 111.581 180.28C111.878 180.579 112.25 180.795 112.579 181.045L113.657 181.682C115.797 182.893 118.272 183.427 120.778 183.502C121.384 183.52 121.992 183.454 122.599 183.421C122.903 183.398 123.205 183.387 123.512 183.404C124.646 183.413 125.802 183.388 126.943 183.25C128.585 183.056 130.229 182.688 131.846 182.273C132.758 182.041 133.698 181.804 134.468 181.275C134.564 181.209 134.686 181.189 134.692 181.289L134.702 181.324C134.823 181.603 134.94 181.894 135.067 182.2C135.411 183.006 135.555 183.343 135.491 183.196C135.281 182.712 135.057 182.165 134.809 181.58C134.824 181.622 134.843 181.673 134.862 181.723C135.011 182.458 135.123 183.234 134.813 183.814C134.599 184.206 134.38 184.518 133.951 184.54C133.341 184.566 132.831 185.067 132.153 184.783C132.059 184.745 131.943 184.792 131.863 184.849C130.301 185.765 128.497 185.858 126.764 186.001C126.199 186.052 125.63 186.187 125.061 186.25C124.691 186.301 124.313 186.305 123.94 186.316C123.399 186.322 122.854 186.248 122.307 186.278C121.902 186.288 121.489 186.425 121.146 185.957C121.075 185.854 120.865 185.863 120.78 185.964C120.458 186.346 120.119 186.275 119.781 186.205C118.865 186.059 117.967 185.821 117.082 185.585L116.084 185.333C115.745 185.263 115.41 185.18 115.07 185.09C114.009 184.854 112.938 184.511 111.913 184.018C111.078 183.568 110.31 182.988 109.587 182.36C109.419 182.212 109.205 182.11 109.052 181.952C108.749 181.677 108.409 181.392 108.293 180.997C108.155 180.564 107.984 180.305 107.489 180.16C107.198 180.083 107.028 179.771 106.904 179.505C106.744 179.177 106.644 178.65 106.626 178.229C106.592 177.695 106.652 177.249 106.289 176.783C106.102 176.532 106.137 176.132 106.221 175.817C106.582 174.458 106.77 173.261 107.067 172.021C107.336 170.983 107.802 169.963 108.287 168.871C108.522 168.499 108.761 168.114 108.994 167.702C109.072 167.307 109.343 167.756 109.549 167.934L110.224 168.619L110.564 168.976L110.738 169.152L110.875 169.176L111.393 169.255L112.039 169.342C112.652 169.427 113.25 169.573 113.848 169.719C115.717 170.163 117.507 170.879 119.248 171.686C119.596 171.843 119.933 172.017 120.299 172.082C121.163 172.227 121.93 172.612 122.656 173.084C123.53 173.654 124.511 173.947 125.494 174.28C125.722 174.353 125.978 174.389 126.17 174.524C127.521 175.474 129.128 175.979 130.487 176.925C131.584 177.684 132.565 178.613 133.532 179.519C134.28 180.224 134.979 180.988 135.663 181.741C135.709 181.786 135.782 181.805 135.825 181.862C136.199 182.312 136.009 182.833 135.297 183.287C134.67 183.692 134.127 183.782 133.737 183.464C133.318 183.112 132.912 182.732 132.496 182.368L132.445 182.439Z" fill="#F8AFB8"/>
<path d="M163.555 177.95C159.512 177.72 153.98 177.861 147.665 179.411C143.482 180.443 139.946 181.848 137.151 183.203C137.9 187.961 148.663 192.132 156.043 188.455C160.078 186.442 163.764 181.759 163.555 177.95Z" fill="#F8AFB8"/>
<path d="M160.829 179.144C160.093 178.955 159.343 178.847 158.597 178.623C157.928 178.426 157.26 178.229 156.61 178.524C156.44 178.602 156.25 178.558 156.064 178.574C155.732 178.602 155.407 178.626 155.073 178.687C154.923 178.712 154.783 178.876 154.641 178.845C153.927 178.675 153.232 178.698 152.595 179.068C152.014 178.81 151.53 179.142 151.017 179.337C150.508 179.54 149.954 179.574 149.487 179.937C149.366 180.028 149.211 180.098 149.067 180.079C148.159 180 147.334 180.294 146.518 180.603C145.639 180.928 144.728 181.108 143.741 181.106C143.216 181.103 142.726 181.284 142.244 181.461C141.669 181.672 141.139 181.98 140.59 182.236C140.207 182.407 139.748 182.643 139.465 182.827C139.167 183.021 138.964 183.201 138.833 183.4C138.775 183.495 138.725 183.585 138.686 183.659C138.586 183.717 138.784 183.9 138.859 184.011C138.965 184.123 139.063 184.221 139.164 184.306C139.356 184.461 139.533 184.553 139.675 184.604C139.706 184.586 139.943 184.818 140.097 184.995C140.276 185.179 140.439 185.372 140.633 185.547C141.405 186.258 142.322 186.937 143.347 187.43C144.121 187.792 144.963 188.022 145.807 188.168C146.603 188.302 147.413 188.283 148.201 188.298C150.535 188.339 152.854 187.897 154.731 186.869C155.18 186.619 155.587 186.311 155.992 185.984C156.201 185.831 156.411 185.679 156.624 185.535C157.43 184.995 158.215 184.386 158.89 183.656C159.86 182.621 160.616 181.413 161.11 180.213C161.378 179.544 161.581 178.831 161.338 178.254C161.276 178.094 161.475 178.03 161.899 178.072C162.629 178.161 163.414 178.26 163.835 178.755C164.086 179.081 164.307 179.445 164.096 179.824C163.827 180.35 163.958 181.054 163.324 181.411C163.24 181.46 163.211 181.57 163.197 181.67C162.967 183.414 161.723 184.701 160.557 185.839C160.171 186.217 159.836 186.647 159.437 187.022C159.173 187.257 158.905 187.485 158.616 187.694C158.193 187.99 157.734 188.226 157.307 188.515C156.999 188.745 156.707 189.037 156.212 188.822C156.11 188.768 155.933 188.871 155.913 188.995C155.836 189.481 155.512 189.577 155.207 189.672C154.378 189.958 153.521 190.126 152.676 190.278C152.051 190.405 151.423 190.543 150.796 190.682C149.815 190.902 148.806 191.108 147.782 191.147C146.925 191.173 146.071 191.063 145.217 190.953C145.016 190.926 144.807 190.955 144.614 190.923C144.256 190.854 143.853 190.831 143.564 190.598C143.248 190.32 142.979 190.209 142.522 190.413C142.259 190.525 141.968 190.395 141.741 190.25C141.448 190.082 141.196 189.807 140.969 189.539C140.682 189.223 140.451 188.895 139.952 188.918C139.678 188.923 139.448 188.687 139.29 188.45C138.921 187.956 138.54 187.51 138.116 187.099L137.806 186.776L137.645 186.623L137.445 186.401C137.164 186.112 136.91 185.798 136.667 185.467C136.481 185.236 136.362 184.977 136.195 184.725C136.068 184.47 135.956 184.207 135.844 183.943C135.748 183.671 135.648 183.411 135.558 183.114L135.415 182.674C135.37 182.525 135.379 182.417 135.355 182.288L136.763 181.46C137.259 181.183 137.774 180.884 138.255 180.636L138.775 180.365L139.157 180.174L139.942 179.811C141.567 179.073 143.299 178.592 145.037 178.209C145.382 178.132 145.728 178.075 146.044 177.912C146.764 177.525 147.555 177.385 148.355 177.331C149.318 177.275 150.219 176.937 151.127 176.626C151.341 176.553 151.548 176.432 151.771 176.427C153.312 176.394 154.786 175.857 156.322 175.817C157.565 175.784 158.813 175.953 160.036 176.115C160.982 176.243 161.922 176.448 162.853 176.656C162.914 176.672 162.975 176.637 163.036 176.653C163.57 176.794 163.695 177.328 163.409 178.109C163.151 178.813 162.796 179.193 162.341 179.17C161.838 179.133 161.325 179.062 160.817 179.018L160.829 179.144Z" fill="#F8AFB8"/>
<path d="M117.81 114.875C112.915 114.309 107.321 113.953 101.167 114.065C95.9669 114.158 91.2003 114.573 86.9367 115.149C87.2333 119.215 91.2276 123.711 95.5808 125.536C101.49 128.009 109.339 126.133 112.393 121.067C112.735 120.489 117.81 114.875 117.81 114.875Z" fill="#F8AFB8"/>
<path d="M114.578 115.828C113.73 115.571 112.871 115.381 112.033 115.068C111.288 114.792 110.543 114.516 109.748 114.721C109.545 114.777 109.33 114.707 109.118 114.696C108.732 114.684 108.348 114.66 107.963 114.669C107.788 114.667 107.598 114.818 107.44 114.757C106.655 114.483 105.854 114.394 105.051 114.655C104.429 114.308 103.812 114.553 103.186 114.659C102.56 114.766 101.92 114.706 101.304 114.971C101.142 115.045 100.952 115.073 100.787 115.035C99.7725 114.772 98.7627 114.907 97.7561 115.029C96.6703 115.156 95.5867 115.128 94.4864 114.894C93.9021 114.771 93.2969 114.825 92.7039 114.882C92.0041 114.949 91.306 115.108 90.6087 115.215C90.3524 115.251 90.1006 115.294 89.8488 115.338L89.4793 115.408L89.2133 115.481C88.8694 115.577 88.5631 115.704 88.3813 115.85L88.2378 115.975C88.1509 115.984 88.2764 116.147 88.3056 116.233L88.4462 116.511C88.5563 116.683 88.6486 116.824 88.7397 116.946C88.8385 117.063 88.9162 117.161 89.008 117.231L89.0667 117.279L89.1724 117.444C89.2392 117.559 89.329 117.661 89.4035 117.771C89.7448 118.271 89.9952 118.844 90.3192 119.385C90.9671 120.466 91.7767 121.526 92.7458 122.4C93.4823 123.05 94.327 123.586 95.218 123.972C95.6386 124.149 96.058 124.306 96.4936 124.402L97.1398 124.561L97.8033 124.679C100.383 125.162 103.118 124.889 105.475 123.911C106.036 123.657 106.558 123.355 107.052 123.038C107.309 122.898 107.545 122.72 107.803 122.581C108.732 122.042 109.57 121.382 110.207 120.57L110.521 120.121L110.795 119.726C110.887 119.601 110.913 119.576 110.961 119.517L111.094 119.358L112.047 118.241C112.674 117.518 113.303 116.814 113.94 116.126C114.662 115.338 115.415 114.583 115.953 113.635C116.043 113.49 116.083 113.487 116.277 113.416C116.427 113.391 116.522 113.52 116.589 113.758C116.939 114.468 117.46 115.048 117.427 115.735C117.416 116.193 117.377 116.585 117.006 116.831C116.476 117.19 116.293 117.901 115.556 118.062C115.453 118.081 115.385 118.192 115.339 118.29C114.919 119.14 114.355 119.867 113.758 120.552C113.476 120.88 113.117 121.252 112.914 121.504C112.604 121.889 112.336 122.311 111.991 122.655C111.576 123.142 111.161 123.629 110.699 124.071C110.382 124.338 110.051 124.581 109.712 124.829C109.19 125.132 108.658 125.4 108.13 125.675C107.751 125.905 107.396 126.214 106.858 125.941C106.743 125.884 106.547 125.988 106.499 126.118C106.348 126.617 105.965 126.665 105.605 126.771C104.635 127.026 103.642 127.119 102.651 127.233C102.287 127.259 101.92 127.298 101.549 127.349L100.438 127.45C99.2854 127.533 98.0859 127.624 96.8967 127.431C95.8939 127.295 94.9249 126.934 93.9788 126.559C93.7701 126.465 93.5211 126.424 93.3079 126.322C92.9225 126.135 92.4864 125.968 92.2189 125.63C91.9399 125.238 91.6765 125.032 91.1372 125.057C90.8356 125.068 90.5423 124.828 90.3371 124.598C90.072 124.3 89.8715 123.955 89.7018 123.591C89.492 123.159 89.3198 122.756 88.811 122.569C88.523 122.48 88.3468 122.141 88.2491 121.848C87.7627 120.55 87.0846 119.558 86.4046 118.28C85.7248 116.879 85.3833 115.353 85.1392 113.729C86.176 113.518 87.2787 113.278 88.4631 113.073L89.7619 112.853L90.7276 112.714C92.7262 112.426 94.7472 112.372 96.761 112.394C97.1552 112.401 97.5616 112.412 97.9419 112.325C98.8312 112.106 99.7307 112.118 100.632 112.221C101.714 112.353 102.79 112.19 103.865 112.028C104.114 111.997 104.371 111.909 104.616 111.942C106.348 112.168 108.074 111.854 109.803 112.021C111.195 112.157 112.57 112.457 113.945 112.757C115.001 112.986 116.054 113.279 117.097 113.556C117.17 113.575 117.243 113.543 117.308 113.566C117.896 113.749 118.026 114.289 117.652 115.06C117.316 115.737 116.882 116.103 116.348 116.032C115.759 115.954 115.174 115.831 114.588 115.74L114.578 115.828Z" fill="#F8AFB8"/>
<path d="M129.868 97.3546C125.929 97.2694 120.198 96.6951 113.712 94.4138C107.719 92.3087 103.172 89.4773 100.125 87.2328C100.125 87.2328 104.629 99.2223 112.5 101.962C119.321 104.346 128.544 102.166 129.868 97.3546Z" fill="#F8AFB8"/>
<path d="M126.673 98.4583C125.811 98.2096 124.938 97.9974 124.108 97.6274C123.368 97.3075 122.667 96.9654 121.851 97.0798C121.642 97.1087 121.433 97.0143 121.223 96.9716L120.089 96.7677C119.921 96.7424 119.704 96.8473 119.556 96.769C118.823 96.3533 118.079 96.0973 117.227 96.1503C116.715 95.6571 116.059 95.7297 115.421 95.6381C114.788 95.5542 114.206 95.2762 113.524 95.3226C113.346 95.3337 113.157 95.2898 113.015 95.1872C112.15 94.5808 111.174 94.2955 110.191 93.9629C109.15 93.602 108.185 93.0535 107.35 92.2861C107.138 92.0806 106.869 91.8985 106.65 91.7689C106.443 91.6426 106.221 91.5251 106.011 91.4109C105.488 91.1292 105.029 90.9748 104.602 90.7508C103.964 90.4126 103.403 90.1532 103.361 90.3627C103.339 90.4674 103.371 90.5927 103.439 90.7277L103.48 90.8166L103.494 90.8396L103.546 90.9119L103.65 91.0566L104.028 91.566C104.262 91.8816 104.469 92.1312 104.641 92.3393C104.919 92.66 104.757 92.6105 104.758 92.7536C104.753 92.9925 104.773 93.381 105.149 94.0457L105.202 94.1379L105.311 94.2902L105.529 94.5948L105.977 95.2073C106.287 95.6016 106.632 95.966 106.962 96.3392C107.616 97.0065 108.347 97.5774 109.069 98.1132C109.321 98.3362 109.599 98.5138 109.876 98.6914C110.154 98.869 110.42 99.0633 110.697 99.2211C111.274 99.4914 111.817 99.8434 112.412 100.001C113.541 100.444 114.883 100.671 116.165 100.758C116.786 100.819 117.417 100.74 118.041 100.737C118.354 100.71 118.66 100.707 118.975 100.719C120.127 100.707 121.299 100.674 122.408 100.41C123.997 100.072 125.525 99.4325 126.605 98.5699C126.944 98.342 127.166 98.0697 127.4 97.8006C127.553 97.5166 127.717 97.2161 127.667 96.9169C127.665 96.754 127.884 96.7602 128.265 96.9394C128.921 97.2565 129.612 97.6153 129.81 98.3109C129.901 98.7507 129.89 99.2088 129.524 99.5338C129.235 99.7427 129.042 100.029 128.804 100.29C128.547 100.521 128.266 100.726 127.882 100.753C127.775 100.764 127.676 100.842 127.602 100.926C126.28 102.432 124.263 102.864 122.443 103.16C121.846 103.28 121.238 103.418 120.633 103.523C120.238 103.567 119.834 103.597 119.438 103.621C118.857 103.629 118.28 103.554 117.697 103.574C117.263 103.569 116.817 103.685 116.478 103.225C116.408 103.122 116.181 103.12 116.091 103.213C115.736 103.573 115.384 103.479 115.022 103.422L113.6 103.057L112.203 102.596C111.536 102.295 110.789 102.123 110.129 101.798C109.598 101.572 109.041 101.372 108.541 101.077C108.027 100.811 107.497 100.534 107.038 100.184C106.224 99.6304 105.556 98.9401 104.851 98.2721C104.698 98.1146 104.488 98.0004 104.343 97.8384C104.073 97.533 103.707 97.2734 103.606 96.87C103.476 96.4327 103.315 96.1563 102.792 96.0496C102.719 96.0303 102.654 96.0065 102.587 95.9629C102.511 95.8842 102.425 95.7901 102.351 95.6794C102.199 95.4701 102.065 95.2397 101.952 95.028C101.668 94.4849 101.469 93.9644 101.347 93.4708C101.197 92.8597 101.151 92.4449 100.442 91.7175C100.067 91.3192 99.9731 90.8915 99.9348 90.5956C99.8214 89.9226 99.744 89.3825 99.4875 88.7104C98.9918 87.8384 98.3003 86.8235 97.6423 85.707L96.4558 83.7683L95.7557 82.6147L95.3458 81.9084C96.4898 82.589 98.0275 83.5235 99.7678 84.6482C100.311 85.0002 100.905 85.4047 101.477 85.7907L102.35 86.3927L103.179 86.9377C104.051 87.5198 104.875 87.9856 105.711 88.5063L106.948 89.205L107.562 89.5565L108.011 89.7991C108.835 90.2649 109.663 90.7185 110.494 91.16C110.826 91.3262 111.157 91.5245 111.522 91.5892C112.371 91.7432 113.129 92.0938 113.886 92.4962C114.787 92.989 115.808 93.1562 116.811 93.2927C117.043 93.322 117.301 93.306 117.517 93.3959C119.024 94.03 120.683 94.0422 122.24 94.3908C123.507 94.6819 124.768 95.0688 126.056 95.3785C127.045 95.6153 128.048 95.8751 129.059 96.0787C129.127 96.0904 129.201 96.058 129.261 96.0741C129.838 96.2013 130.014 96.7352 129.718 97.5332C129.447 98.2341 129.035 98.6375 128.48 98.6005C127.868 98.555 127.265 98.4532 126.671 98.3669L126.673 98.4583Z" fill="#F8AFB8"/>
<path d="M110.582 49.5156C106.364 46.5961 99.5166 45.5305 96.9062 48.7075C96.6179 49.0595 96.4145 49.4341 96.2596 49.8215C98.7556 50.4976 101.617 51.4849 104.659 52.9423C109.528 55.2685 113.3 58.0367 116.055 60.4506C116.072 60.4097 116.102 60.3721 116.119 60.3312C117.833 56.6889 113.812 51.7567 110.582 49.5156Z" fill="#F8AFB8"/>
<path d="M108.082 49.5395C107.634 49.1219 107.132 48.7872 106.664 48.351C106.239 47.9718 105.781 47.5906 105.187 47.6991C105.038 47.7243 104.901 47.6294 104.756 47.6106C104.495 47.5672 104.233 47.5039 103.965 47.4848C103.842 47.4845 103.698 47.6087 103.591 47.5478C103.081 47.2176 102.503 47.1223 101.955 47.399C101.738 47.2375 101.523 47.2191 101.306 47.2524C101.103 47.3088 100.871 47.4226 100.736 47.4907C100.463 47.6389 100.081 47.6349 100.029 47.9523C100.022 48.0283 99.9769 48.0748 99.8689 48.0656C99.1892 48.0085 98.7942 48.3711 98.6567 48.7177C98.5521 48.8913 98.4246 49.0782 98.2081 49.3064C97.8413 49.6116 98.0527 49.6223 98.0076 49.7921C98.01 49.8318 98.0279 49.8625 98.0699 49.8996C98.1962 50.0111 98.4797 50.0929 98.7389 50.1682C99.1526 50.2976 99.6374 50.355 100.018 50.4626C100.499 50.5838 101.344 50.8017 102.098 50.8463C103.144 50.9164 104.182 51.0945 105.181 51.3665C105.695 51.5095 106.121 51.837 106.564 52.1236C107.451 52.6968 108.287 53.3409 109.143 53.932C109.791 54.3769 110.475 54.7599 111.159 55.143C111.473 55.3302 111.808 55.4844 112.133 55.6551L112.63 55.9105C112.774 55.9811 112.806 55.9831 112.892 56.0255C113.293 56.2034 113.449 56.2255 113.58 56.2213C113.628 56.2144 113.658 56.1966 113.668 56.1602C113.652 56.026 113.614 55.8732 113.564 55.7689C113.513 55.6448 113.369 55.5027 113.293 55.4437C113.256 55.4142 113.256 55.4142 113.272 55.4251C113.321 55.438 113.408 55.4286 113.353 55.3167C112.784 54.3538 111.971 53.43 111.139 52.5789C110.66 52.1076 110.171 51.601 109.504 51.4238C109.322 51.3754 109.389 51.1724 109.684 50.8677C110.208 50.338 110.737 49.7642 111.302 49.6416C111.682 49.5543 112.011 49.5378 112.2 49.8283C112.445 50.2505 113.055 50.328 113.059 50.972C113.061 51.0634 113.139 51.1102 113.213 51.1494C113.868 51.4467 114.368 51.9366 114.8 52.4865C115.004 52.7681 115.193 53.0586 115.367 53.358C115.525 53.6663 115.71 53.9492 115.906 54.3585C116.029 54.6054 116.175 54.839 116.325 55.0802C116.448 55.3271 116.583 55.5772 116.702 55.8363C116.866 56.1721 116.922 56.4987 117.011 56.8273C117.077 57.0658 117.059 57.2817 117.089 57.5105C117.119 57.7393 117.133 57.9572 117.143 58.1872C117.162 58.3611 117.198 58.5656 117.196 58.7208C117.157 58.8664 117.072 58.9672 116.875 58.9278C116.794 58.9129 116.798 59.0956 116.887 59.2492C117.169 59.8242 117.036 60.0552 116.956 60.3067C116.892 60.4778 116.79 60.6392 116.713 60.8071L116.589 61.0534L116.517 61.1772C116.488 61.2148 116.461 61.1687 116.437 61.1623C116.219 61.0525 115.99 60.9396 115.756 60.8905C115.663 60.8724 115.578 60.8498 115.484 60.8636C115.116 60.5842 114.748 60.3566 114.368 60.1257C113.955 59.873 113.519 59.6534 113.033 59.3814C112.527 59.1106 112.021 58.8398 111.515 58.569C111.02 58.2816 110.79 58.1687 110.509 58.0032C110.233 57.8454 109.949 57.692 109.662 57.5507C109.531 57.4833 109.363 57.4778 109.232 57.4105C108.993 57.2821 108.706 57.2125 108.559 56.9591C108.399 56.6827 108.231 56.5341 107.82 56.7108C107.592 56.8125 107.4 56.6772 107.265 56.5504C107.08 56.3909 106.942 56.1529 106.796 55.9193C106.632 55.6353 106.471 55.3589 106.075 55.4551C105.86 55.5082 105.709 55.3188 105.579 55.1479C105.042 54.3819 104.269 54.0402 103.455 53.8044C102.353 53.4792 101.218 53.2555 100.105 53.0184C99.8454 52.9948 98.8003 52.6263 97.9907 52.3982C96.593 51.988 95.0765 51.5852 93.6898 51.1583C93.8447 50.7709 93.9604 50.4574 94.0382 50.2378C94.2052 49.8536 94.4684 49.352 94.675 48.9653C94.8445 48.6207 95.1078 48.314 95.2223 47.9807C95.3165 47.5772 95.67 47.2489 95.9749 46.9078C96.3449 46.5905 96.7845 46.3046 97.2597 46.0802C97.9023 45.8613 98.4199 45.5507 99.0893 45.3778C99.409 45.2744 99.7185 45.1358 100.05 45.0357C100.219 44.9894 100.396 44.9585 100.564 44.9123L100.915 44.8109C101.13 44.7379 101.339 44.6572 101.548 44.68C103.001 44.8323 104.418 44.6567 105.774 45.0496C106.852 45.3684 107.842 45.9431 108.766 46.526C109.483 47.0024 110.138 47.5464 110.755 48.1324C110.797 48.1696 110.861 48.1736 110.903 48.2107C111.243 48.5674 111.052 49.0685 110.425 49.6165C109.875 50.1002 109.435 50.3145 109.144 50.1138C108.801 49.9124 108.494 49.6491 108.144 49.4521L108.082 49.5395Z" fill="#F8AFB8"/>
<path d="M145.57 64.0628C142.03 63.408 138.2 62.8388 134.126 62.4319C127.99 61.8151 122.322 61.6665 117.214 61.7773C117.214 61.7773 121.811 68.2328 128.121 69.8569C137.021 72.1431 144.534 68.3788 145.57 64.0628Z" fill="#F8AFB8"/>
<path d="M142.691 64.8521C141.985 64.554 141.254 64.321 140.559 63.9546C139.935 63.6394 139.319 63.3198 138.616 63.4709C138.436 63.5139 138.256 63.4336 138.068 63.4095C137.735 63.3666 137.406 63.3313 137.075 63.3082C136.927 63.3015 136.744 63.4282 136.613 63.3608C135.96 63.0315 135.279 62.883 134.556 63.087C134.05 62.6929 133.497 62.8904 132.952 62.9402C132.403 63.0022 131.858 62.877 131.307 63.0942C131.155 63.1514 130.997 63.1612 130.854 63.1104C130.005 62.7615 129.125 62.8003 128.247 62.827C127.306 62.8498 126.367 62.7172 125.447 62.3688C124.95 62.1849 124.428 62.1697 123.915 62.1698C123.322 62.155 122.655 62.2441 122.119 62.2576C121.5 62.2881 120.901 62.3691 120.615 62.5659C120.584 62.5837 120.566 62.6047 120.547 62.6258C120.447 62.7354 120.393 62.8382 120.375 62.9308C120.362 62.9793 120.365 63.0189 120.372 63.0662C120.373 63.086 120.379 63.1135 120.387 63.1289C120.389 63.1487 120.39 63.1685 120.473 63.223C120.735 63.4096 120.963 63.5545 121.145 63.6744C121.319 63.7789 121.33 63.8339 121.343 63.9087C121.345 63.9483 121.348 63.9879 121.374 64.034C121.423 64.1702 121.496 64.3326 121.62 64.5278C121.638 64.5585 121.642 64.5662 121.677 64.6078L121.822 64.7698C121.916 64.8792 122.018 64.9843 122.128 65.0848C122.335 65.2827 122.539 65.4928 122.754 65.6862C123.409 66.25 124.136 66.7417 124.911 67.1231C125.262 67.32 125.64 67.4596 126.01 67.5837C126.381 67.7277 126.76 67.8155 127.13 67.9396C127.402 68.038 127.677 68.1045 127.947 68.1632C128.225 68.2175 128.481 68.305 128.785 68.3338C129.37 68.4048 129.951 68.5397 130.537 68.559C131.116 68.6025 131.7 68.6537 132.283 68.6333C132.865 68.6449 133.443 68.5971 134.008 68.546C134.555 68.5159 135.085 68.3319 135.62 68.2468C135.878 68.1791 136.146 68.1267 136.414 68.0941C137.401 67.973 138.374 67.7574 139.288 67.4222C140.593 66.9314 141.755 66.175 142.604 65.303C143.075 64.8242 143.502 64.2687 143.399 63.7024C143.386 63.5561 143.601 63.5546 143.988 63.7095C144.666 63.9935 145.374 64.3114 145.635 64.9196C145.787 65.3238 145.819 65.7155 145.529 66.0279C145.287 66.2299 145.152 66.4928 144.973 66.7505C144.797 66.9961 144.559 67.1859 144.208 67.2356C144.113 67.2494 144.043 67.3413 144.001 67.4274C143.089 68.9517 141.375 69.5872 139.831 70.0929C139.312 70.2405 138.828 70.5212 138.307 70.649C137.971 70.7415 137.631 70.8462 137.28 70.8958C136.771 70.9553 136.26 70.995 135.764 71.0776C135.39 71.1406 135.02 71.3148 134.656 70.9C134.579 70.8212 134.382 70.8533 134.317 70.9528C134.06 71.3586 133.739 71.3189 133.429 71.3143C132.999 71.3172 132.574 71.2561 132.153 71.2028C131.724 71.1539 131.305 71.1203 130.887 71.0548C130.265 70.9741 129.625 70.9662 128.997 70.9098C128.028 70.8667 126.952 70.8342 125.948 70.5545C125.52 70.4539 125.11 70.3123 124.721 70.1376C124.317 69.9719 123.921 69.8016 123.538 69.6027C123.358 69.5224 123.146 69.4919 122.969 69.3995C122.652 69.2243 122.281 69.0803 122.075 68.7789C121.847 68.4391 121.648 68.2368 121.147 68.3116C120.863 68.3531 120.624 68.1533 120.457 67.9529C120.235 67.7122 120.072 67.3961 119.926 67.091C119.81 66.7681 119.447 66.2299 118.789 65.9447C118.412 65.7733 118.14 65.3567 117.978 65.0605C117.834 64.795 117.715 64.536 117.569 64.3024C117.419 64.0612 117.253 63.8289 117.168 63.6115C117.221 62.9957 117.049 62.5212 116.937 62.0628L116.837 61.6793C116.796 61.5903 116.866 61.5701 116.911 61.5235L117.042 61.3961C117.132 61.303 117.2 61.2431 117.286 61.0906C117.373 60.9579 117.444 60.8143 117.51 60.663C117.573 60.5239 117.676 60.259 117.742 60.0559C118.311 59.9927 118.916 59.9392 119.554 59.8876C120.032 59.8459 120.536 59.8305 121.053 59.8183L122.47 59.7858C124.213 59.7292 125.949 59.8916 127.685 60.1058C128.025 60.1443 128.367 60.2027 128.705 60.1498C129.488 60.0136 130.262 60.1087 131.025 60.2919C131.946 60.517 132.88 60.447 133.822 60.3725C134.04 60.3589 134.266 60.2892 134.48 60.3395C135.95 60.6975 137.469 60.5036 138.934 60.7824C140.122 61.0069 141.287 61.3878 142.443 61.7534C143.335 62.036 144.22 62.3747 145.095 62.6981C145.148 62.7187 145.218 62.6984 145.283 62.7222C145.781 62.9259 145.843 63.4749 145.456 64.2228C145.111 64.8846 144.703 65.2241 144.248 65.1292C143.744 65.0213 143.25 64.877 142.745 64.7493L142.691 64.8521Z" fill="#F8AFB8"/>
<path d="M108.05 20.6585C111.187 22.5634 114.518 24.7665 117.965 27.3123C121.684 30.06 124.98 32.806 127.888 35.4291C129.461 31.9507 126.421 25.2075 121.682 21.8511C117.568 18.953 110.617 17.4961 108.05 20.6585Z" fill="#F8AFB8"/>
<path d="M110.78 20.8536C111.261 21.3646 111.76 21.8347 112.185 22.4088C112.563 22.9182 112.913 23.4334 113.558 23.5723C113.723 23.6097 113.835 23.7499 113.968 23.8371C114.217 24.0006 114.458 24.1685 114.722 24.3231C114.842 24.3873 115.046 24.3507 115.121 24.4614C115.485 25.0194 115.948 25.4281 116.613 25.5657C116.811 26.1182 117.341 26.2006 117.787 26.4036C118.241 26.602 118.593 26.9619 119.139 27.0354C119.283 27.0542 119.414 27.1216 119.493 27.24C119.95 27.9394 120.631 28.3346 121.302 28.7661C122.019 29.2227 122.625 29.8253 123.075 30.6007C123.315 31.0153 123.68 31.3069 124.039 31.5908C124.504 31.9675 124.816 32.1152 125.158 32.3683C125.624 32.7132 126.095 32.9941 126.315 32.877C126.361 32.8503 126.395 32.8204 126.421 32.7949C126.647 32.8484 126.417 31.7093 126.254 31.3218C126.15 31.0538 126.279 31.0816 126.319 30.9558C126.363 30.8377 126.406 30.6998 126.418 30.5082C126.408 30.2781 126.415 30.0788 126.213 29.5187C125.982 28.8013 125.586 28.1378 125.162 27.512C124.752 26.9289 124.232 26.4402 123.759 25.9248C123.04 25.182 122.282 24.4934 121.47 23.9075C120.651 23.3459 119.783 22.875 118.856 22.499C118.412 22.3159 117.932 22.2145 117.474 22.0799C117.244 22.0187 117.016 21.9453 116.796 21.8477C115.977 21.5327 115.13 21.2234 114.283 21.0892C113.068 20.8704 111.845 20.9027 110.92 21.183C110.395 21.323 109.911 21.532 109.856 21.9849C109.835 22.0896 109.646 21.994 109.349 21.6943C108.846 21.1647 108.34 20.5758 108.345 19.9471C108.363 19.5363 108.496 19.182 108.867 19.0595C109.146 19.0104 109.378 18.8448 109.625 18.722C109.873 18.6191 110.153 18.5699 110.455 18.7022C110.537 18.7369 110.633 18.6912 110.707 18.6588C112.1 17.8403 113.724 18.1808 115.12 18.4997C115.587 18.5979 116.071 18.6354 116.546 18.7292C116.845 18.8021 117.152 18.8903 117.445 18.9875C117.861 19.1565 118.275 19.3574 118.698 19.5022C119.019 19.6134 119.392 19.6021 119.477 20.1378C119.492 20.2522 119.659 20.3094 119.762 20.2394C120.155 19.9803 120.397 20.1482 120.636 20.2964C121.29 20.6972 121.915 21.1555 122.509 21.6316C122.975 21.9566 123.43 22.2982 123.918 22.6098C124.654 23.1169 125.432 23.6094 126.096 24.2403C126.657 24.7662 127.105 25.3786 127.573 25.9899C127.677 26.1345 127.843 26.2435 127.94 26.3926C128.12 26.6678 128.378 26.9182 128.384 27.2638C128.392 27.6491 128.494 27.8775 128.933 28.0331C129.189 28.1206 129.278 28.3975 129.34 28.6282C129.36 28.6986 129.372 28.7734 129.377 28.8526C129.388 28.9593 129.395 29.0782 129.403 29.197C129.418 29.4347 129.416 29.6616 129.413 29.8686C129.409 30.1273 129.399 30.3586 129.434 30.5951C129.453 30.8405 129.52 31.0789 129.713 31.3771C129.913 31.7028 129.931 32.1232 129.815 32.3651C129.511 33.5573 129.374 34.4885 129.152 35.7153C129.08 36.1573 128.945 36.6668 128.818 37.1917C128.674 37.5626 128.576 37.6403 128.428 38.0751C127.774 37.6027 127.054 37.0867 126.294 36.5016C125.613 35.9831 124.899 35.3713 124.187 34.7991L122.674 33.5529L121.817 32.8187L120.159 31.2872C119.939 31.0861 119.731 30.8684 119.449 30.7546C118.812 30.488 118.307 30.0421 117.843 29.542C117.288 28.9402 116.554 28.5762 115.813 28.2365C115.64 28.1518 115.435 28.1168 115.308 27.9855C114.384 27.0646 113.123 26.6259 112.101 25.8543C111.274 25.2256 110.532 24.4763 109.748 23.7615C109.156 23.2017 108.56 22.6342 107.964 22.0667C107.922 22.0296 107.862 22.0333 107.82 21.9961C107.493 21.6625 107.64 21.1364 108.24 20.5621C108.777 20.0554 109.255 19.8706 109.603 20.0995C109.989 20.3579 110.358 20.6571 110.725 20.9365L110.78 20.8536Z" fill="#F8AFB8"/>
</svg>
