<svg width="113" height="130" viewBox="0 0 113 130" fill="none" xmlns="http://www.w3.org/2000/svg">
<path d="M83.7388 60.4424L78.6502 60.1386C78.6348 60.1376 78.6194 60.1367 78.6053 60.1405C76.1069 60.6786 73.3127 61.4323 70.3108 62.5045C66.9911 63.6921 64.1001 65.0276 61.6536 66.3248C61.5433 66.3846 61.5328 66.534 61.6335 66.6081C78.0893 79.2967 94.5452 91.9854 111 104.669C111.152 104.785 111.347 104.607 111.248 104.446L83.875 60.5171C83.8435 60.475 83.7957 60.4474 83.7388 60.4424Z" fill="#DCAF3F"/>
<path d="M77.9147 61.0141C76.2762 61.2915 74.6415 61.6587 73.0305 62.0197C71.5904 62.3399 70.1805 62.6974 68.8245 63.369C68.477 63.5429 68.0706 63.667 67.6979 63.8224C67.0161 64.1062 66.3355 64.3946 65.6706 64.7041C65.3652 64.8466 65.0813 65.0692 64.7859 65.1736C64.0116 65.4518 63.1702 65.8188 62.6373 66.0929C62.5129 66.1566 62.3885 66.2202 62.2701 66.2873L62.0941 66.385C62.0354 66.4108 62.0012 66.4907 62.0283 66.5542C62.2376 66.7508 62.5122 66.8894 62.7385 67.0359C62.7989 67.1107 62.8713 67.1923 62.9531 67.2715L63.0759 67.3901L63.2405 67.533C63.4686 67.7245 63.7049 67.9087 63.9482 68.081C64.4311 68.4316 64.9327 68.757 65.4298 69.1038C66.424 69.7974 67.3713 70.5794 68.4044 71.1918C68.6806 71.3553 68.9742 71.5646 69.2146 71.7831C70.6633 73.0977 72.2428 74.2408 73.8193 75.4099C75.5131 76.6588 77.1453 77.9798 78.6915 79.3945C79.5151 80.149 80.4422 80.8555 81.3465 81.553C82.4224 82.3813 83.533 83.17 84.6158 83.9864C86.1926 85.1757 87.7746 86.3282 89.4054 87.4171C91.5845 88.8745 93.7596 90.3734 95.9092 91.9094C97.002 92.6877 98.0515 93.5686 99.1028 94.4187C101.216 96.121 103.3 97.8463 105.43 99.5342L107.009 100.768L107.83 101.382L108.313 101.733C108.463 101.839 108.593 101.93 108.71 102.005C108.741 102.027 108.793 101.978 108.787 101.919C108.772 101.862 108.724 101.815 108.695 101.762L108.49 101.468L107.801 100.501L107.603 100.215L107.512 100.083L107.465 100.02L107.364 99.8698L106.216 98.0909L103.924 94.5364L99.3356 87.4241L97.1013 84.0262C96.7319 83.4582 96.3706 82.883 96.0187 82.3053L92.0914 75.8697L86.3943 66.6948C85.3221 64.956 84.2674 63.2075 83.0865 61.5534C83.0053 61.4387 82.942 61.3344 82.8991 61.2499C82.8881 61.2276 82.8783 61.21 82.8733 61.1911L82.861 61.1641L82.8572 61.15C83.1512 60.9651 83.4418 60.7862 83.723 60.6098L83.177 60.9481L83.1877 60.9503L83.2138 60.9534L83.2613 60.9609L83.4631 60.9977C83.5974 61.0274 83.7377 61.0606 83.8782 61.1138C84.1641 61.2191 84.4762 61.4033 84.8372 61.7512C85.3282 62.226 85.7598 62.6863 86.1474 63.4161C86.7038 64.4746 87.5286 65.441 87.9418 66.5681C88.0002 66.7293 88.1384 66.9247 88.2524 67.0862C90.3458 69.9206 92.0892 72.9953 93.9275 76.0093C94.5301 76.9947 95.1748 77.9487 95.7997 78.9232L96.9919 80.8269C97.5592 81.7561 98.0995 82.6977 98.6925 83.6099C99.1398 84.2985 99.6228 84.932 99.8095 85.6854C99.8465 85.8422 100.085 86.2028 100.216 86.2989C100.71 86.6717 101.049 87.258 101.403 87.8404C102.356 89.3989 103.288 90.9731 104.259 92.5218C104.975 93.6688 105.722 94.7974 106.481 95.9129C107.075 96.7742 107.67 97.6355 108.265 98.4968L108.71 99.1404L109.371 100.136L110.793 102.296C110.991 102.602 111.21 102.927 111.391 103.227C111.483 103.379 111.515 103.482 111.567 103.599C111.598 103.697 111.637 103.803 111.661 103.892C111.758 104.255 111.787 104.495 111.824 104.728L111.87 105.034L111.88 105.107C111.885 105.126 111.888 105.155 111.859 105.198C111.812 105.287 111.668 105.391 111.614 105.396C111.435 105.368 111.272 105.346 111.06 105.327C110.85 105.297 110.695 105.379 110.335 105.263C110.211 105.216 110.086 105.163 109.913 105.043C109.066 104.411 108.147 103.733 107.33 103.022C106.783 102.547 106.327 102.164 105.877 101.825C105.601 101.626 105.315 101.46 104.969 101.32C104.583 101.161 104.081 100.76 103.679 100.428C103.165 99.9996 102.686 99.5318 102.211 99.0781C101.644 98.5277 101.12 98.0061 100.356 97.6046C99.9496 97.3901 99.4784 96.9706 99.1042 96.6111C97.4499 95.0384 95.6177 93.6498 93.76 92.2983C91.2255 90.4764 88.697 88.6579 86.1685 86.8394C85.1786 86.1244 84.2012 85.3809 83.2251 84.642C80.1821 82.3551 77.2027 79.9854 74.2315 77.6085C73.6472 77.1436 73.0578 76.6599 72.4518 76.2462C71.0422 75.285 69.72 74.2347 68.4171 73.1438C66.8465 71.8265 65.1883 70.654 63.5242 69.478C63.1372 69.2028 62.7256 68.9493 62.3678 68.651L61.9371 68.3067L61.3719 67.8568C61.1906 67.7083 60.9798 67.5627 60.8268 67.4067C60.6786 67.2494 60.5907 67.091 60.5361 66.9439C60.4756 66.7934 60.4547 66.6778 60.4407 66.5501C60.4372 66.4804 60.4342 66.375 60.4505 66.2848C60.4654 66.1898 60.4811 66.1351 60.5238 66.0681L60.7446 65.6856C60.7666 65.6544 60.7731 65.6223 60.8045 65.5887L60.9261 65.4954L61.1679 65.3043L63.3908 64.1529C63.9073 63.8933 64.4251 63.6383 64.9454 63.3928C65.9895 62.8958 67.0496 62.4399 68.1331 62.0334C70.6495 61.0913 73.242 60.3765 75.8487 59.8094C76.3547 59.6991 76.8573 59.5947 77.3637 59.5045L78.1249 59.3662L78.3421 59.3282C78.4484 59.3099 78.555 59.3116 78.6637 59.3027C78.7194 59.3029 78.7715 59.3092 78.8237 59.3154L78.9222 59.3244L79.1095 59.3449L82.1408 59.6645C82.276 59.6788 82.4143 59.667 82.5448 59.6825C83.6966 59.8135 84.0427 60.1249 83.4695 60.5312C82.9641 60.8889 82.1847 61.0725 81.1452 61.0024L79.4229 60.8727L78.663 60.8086L78.322 60.8747L77.9008 60.9622L77.9147 61.0141Z" fill="#DCAF3F"/>
<path d="M78.656 60.1777L111.217 104.536C111.298 104.65 111.48 104.556 111.429 104.423C108.002 95.4233 104.129 86.0425 99.7414 76.3602C93.8584 63.38 87.764 51.4215 81.6976 40.4913C81.6403 40.3904 81.4916 40.4201 81.4723 40.5365C80.5259 47.0553 79.5843 53.5728 78.6367 60.0869C78.6301 60.119 78.639 60.152 78.656 60.1777Z" fill="#F5E3B4"/>
<path d="M82.9838 64.8854C83.9523 66.3691 84.9491 67.8451 85.8751 69.3401C86.7026 70.6746 87.5024 71.9812 88.5586 73.1887C88.829 73.5002 89.0661 73.8762 89.3266 74.2258L90.7256 76.1095C90.9435 76.3947 91.2283 76.6468 91.4 76.9292C92.2533 78.3224 93.1788 79.6458 94.2649 80.8706C94.8664 82.0029 95.7166 82.9321 96.5195 83.9296C97.3211 84.9224 98.0577 85.9932 98.9199 86.9293C99.1478 87.1765 99.3849 87.4767 99.5685 87.7661C100.66 89.5199 101.924 91.1466 103.185 92.7946C104.532 94.5607 105.807 96.3766 106.972 98.2571C107.594 99.2576 108.325 100.249 109.04 101.22C109.467 101.797 109.898 102.369 110.339 102.938L110.992 103.794L111.319 104.222L111.399 104.332L111.439 104.386L111.33 104.471L111.322 104.478C111.319 104.484 111.314 104.486 111.314 104.486C111.315 104.49 111.311 104.456 111.315 104.47C111.319 104.484 111.348 104.482 111.308 104.482L111.299 104.485L111.294 104.486C111.405 104.446 111.142 104.542 111.171 104.534L111.169 104.53L111.158 104.507L111.141 104.461L111.106 104.37L111.032 104.187L110.89 103.826L110.601 103.105L110.004 101.669C109.597 100.717 109.181 99.7672 108.739 98.8347C107.558 96.3318 106.386 93.8062 105.228 91.2768C104.641 89.9892 104.137 88.6386 103.605 87.311C102.54 84.6558 101.485 82.0028 100.352 79.376C99.5042 77.4002 98.5965 75.4455 97.6677 73.5066C96.8038 71.6968 95.8812 69.9129 94.9903 68.1154C92.3448 62.7864 89.6193 57.4991 86.7849 52.2763C86.1044 51.0186 85.3993 49.7827 84.6965 48.5361C84.3474 47.9122 84.0112 47.2797 83.6763 46.652L82.7458 44.8954L82.2789 44.0201C82.2263 43.918 82.2373 43.9403 82.236 43.9356L82.2335 43.9262L82.2284 43.9073C82.2208 43.879 82.2048 43.8379 82.1874 43.792C82.1802 43.7838 82.1798 43.7637 82.1691 43.7615C82.1584 43.7593 82.1622 43.7735 82.1588 43.7795L82.1466 43.8282L80.7495 53.3225C80.4314 55.454 80.092 57.5812 79.9138 59.7258C79.9032 59.8751 79.8817 60.0022 79.862 60.0984C79.8498 60.1471 79.8363 60.1911 79.825 60.2245C79.8194 60.2412 79.8091 60.2591 79.8022 60.271L79.7953 60.283C79.4428 60.2309 79.0963 60.1823 78.7605 60.1358L79.5283 60.2484L79.5223 60.245L79.5151 60.2368L79.4993 60.2158L79.4679 60.1737L79.4001 60.0908L79.2695 59.9237C79.1836 59.8103 79.101 59.6909 79.0276 59.5489C78.8773 59.2709 78.7612 58.9129 78.7156 58.3845C78.655 57.6681 78.6237 57.0045 78.8047 56.1526C79.0705 54.9193 79.0739 53.5744 79.4978 52.3846C79.5589 52.2167 79.5819 51.9629 79.5974 51.7567C79.7259 49.8983 79.9601 48.057 80.2346 46.215L80.6779 43.3628L80.9628 41.5787C81.0863 41.0403 81.2441 40.705 81.354 40.3421C81.3791 40.2848 81.378 40.2245 81.4198 40.1729C81.471 40.1187 81.5844 40.1085 81.6326 40.1563L81.8984 40.5448L82.4347 41.3207L82.9792 42.0893C83.1688 42.3821 83.3682 42.7682 83.5657 43.1094C83.976 43.8483 84.3399 44.5087 84.7164 45.2162C85.2555 46.2288 85.7654 47.2644 86.3221 48.2672C86.7421 49.0238 87.1991 49.7299 87.3535 50.5323C87.3835 50.7011 87.6104 51.0951 87.7331 51.2138C88.2153 51.6555 88.5197 52.3015 88.8465 52.9365L91.4328 58.1197C92.0781 59.3968 92.7458 60.663 93.4251 61.9159C94.4725 63.8635 95.555 65.7915 96.5718 67.7573C97.427 69.4027 98.226 71.0834 99.0412 72.7495C99.23 73.1335 99.454 73.4979 99.6346 73.8891C99.9722 74.602 100.366 75.3353 100.6 76.0405C100.861 76.8245 101.105 77.4159 101.598 78.0315C101.873 78.3773 102.14 78.9978 102.343 79.5094C102.605 80.1668 102.821 80.8415 103.034 81.502C103.283 82.2993 103.508 83.0473 104.001 83.8097C104.262 84.2196 104.486 84.8468 104.651 85.3685C105.378 87.6695 106.341 89.9026 107.325 92.1247C108.659 95.1424 110.001 98.1529 111.285 101.189C111.535 101.784 111.782 102.385 112.019 102.988L112.378 103.892L112.424 104.006L112.444 104.062L112.449 104.081C112.465 104.122 112.477 104.169 112.489 104.211C112.511 104.296 112.525 104.404 112.527 104.504C112.534 104.947 112.255 105.355 111.938 105.531C111.63 105.72 111.189 105.772 110.793 105.575C110.6 105.48 110.451 105.338 110.356 105.207L110.317 105.157L110.245 105.06L110.098 104.867C107.679 101.65 105.348 98.3791 103.023 95.0963C102.567 94.4505 102.109 93.7953 101.614 93.1951C100.469 91.8044 99.432 90.3492 98.428 88.8649C97.2152 87.0729 95.8799 85.3894 94.5365 83.7132C94.2245 83.3218 93.8854 82.9428 93.6086 82.5319C91.6583 79.6844 89.4601 77.0246 87.4573 74.2265C85.834 71.9583 84.2857 69.6498 82.7199 67.3511C81.5238 65.5647 80.3254 63.7889 79.1305 62.0072C79.054 61.8913 78.9492 61.783 78.8726 61.6671C78.1996 60.6449 78.2069 60.1629 78.9028 60.3655C79.5227 60.548 80.1813 61.0638 80.825 61.9574C81.5388 62.9434 82.2317 63.9451 82.9327 64.9396L82.9838 64.8854Z" fill="#DCAF3F"/>
<path d="M76.8724 69.3435L111.197 104.69C111.295 104.79 111.174 104.944 111.051 104.881C111.051 104.881 70.5121 88.166 62.9943 84.6225L76.7429 69.3125C76.79 69.2999 76.8388 69.3121 76.8724 69.3435Z" fill="#F5E3B4"/>
<path d="M81.0848 72.6752C82.045 73.8074 83.0416 74.9247 83.962 76.0777C84.7878 77.1044 85.5884 78.1126 86.6235 78.9772C86.89 79.1988 87.1246 79.4897 87.3811 79.7493L88.7626 81.1526C88.9756 81.3633 89.2531 81.5315 89.4272 81.7476C90.2811 82.8224 91.2 83.8191 92.2589 84.6974C92.8671 85.5905 93.695 86.2478 94.4815 86.9768C95.268 87.7059 95.9989 88.5104 96.8375 89.1699C97.0606 89.3426 97.2976 89.5671 97.473 89.7879C98.5623 91.1381 99.8078 92.3353 101.049 93.5539C102.379 94.8598 103.636 96.2309 104.801 97.6769C105.421 98.4454 106.145 99.1862 106.849 99.9071L109.799 102.846L109.993 103.041C110.333 103.405 110.556 103.709 110.789 103.995L111.447 104.809C111.471 104.843 111.498 104.871 111.523 104.905C111.547 104.939 111.539 105.002 111.505 105.046C111.429 105.157 111.351 105.092 111.283 105.085C111.147 105.051 111.013 105.021 110.865 104.995C110.721 104.968 110.585 104.949 110.449 104.935L110.253 104.917C110.185 104.91 110.143 104.921 110.014 104.875L108.017 104.268C107.835 104.21 107.672 104.168 107.465 104.092L106.854 103.867L106.221 103.637L105.902 103.521L105.696 103.45C104.594 103.068 103.493 102.676 102.39 102.274C101.27 101.867 100.176 101.346 99.0811 100.862C96.8853 99.8889 94.7054 98.8814 92.5027 97.9205C90.8498 97.2013 89.1714 96.5192 87.4969 95.8513L82.7841 94.0269C78.1407 92.1789 73.503 90.3142 68.8731 88.4222L65.5262 87.0756L64.6939 86.7227L64.2765 86.5414L63.5213 86.1931L62.1313 85.5499L61.4393 85.2301L61.0933 85.0702L61.0527 85.0507L61.0301 85.0417C61.0335 85.0357 61.0417 85.0284 61.0451 85.0225L61.1148 84.9432L61.2555 84.7893L63.3559 82.4833L65.6111 80.0197L72.0194 72.9165C73.2363 71.5748 74.4642 70.2555 75.572 68.8269C75.6891 68.6793 75.788 68.577 75.8652 68.526L76.3817 68.1906C76.794 68.07 77.1368 68.1803 77.3341 68.2941C77.5373 68.4115 77.6151 68.5321 77.6337 68.5827C77.6476 68.6346 77.6048 68.6258 77.4997 68.5731C77.3959 68.5251 77.211 68.4383 76.9563 68.4307C76.7881 68.4253 76.6266 68.4635 76.4893 68.5357L76.1208 68.7253L76.1274 68.769C76.21 69.2471 76.315 69.7141 75.937 70.4722C75.6692 71.019 75.397 71.5113 74.8644 72.0127C74.0941 72.7395 73.491 73.6944 72.6133 74.3034C72.4892 74.3872 72.3571 74.554 72.2529 74.6931C70.3806 77.1905 68.1795 79.4224 66.0671 81.7215C65.723 82.0966 65.3874 82.4846 65.0565 82.8714L64.1637 83.914L63.7257 84.4103L63.6711 84.4704L63.6548 84.4849L63.6727 84.4952L63.7133 84.5147L63.8743 84.5878L64.1977 84.7386L64.6667 84.9615L64.9042 85.0747L65.2215 85.2221C65.6594 85.4231 66.096 85.6194 66.5395 85.8037C67.206 86.0849 67.8831 86.2925 68.3908 86.7729C68.499 86.8753 68.8494 87.0138 68.9962 87.0149C69.5574 87.0161 70.0968 87.2758 70.6419 87.5188C72.1244 88.1674 73.5943 88.8447 75.0858 89.4708C76.1898 89.9328 77.3077 90.371 78.4239 90.7843C80.1688 91.4132 81.9077 92.0386 83.6539 92.6722C85.1073 93.2124 86.5485 93.8014 87.9975 94.363C88.33 94.4912 88.6784 94.5848 89.0121 94.7177C89.6235 94.9631 90.2831 95.1805 90.8257 95.4898C91.4282 95.8337 91.9173 96.0563 92.5814 96.1209C92.9549 96.1572 93.4701 96.383 93.8913 96.5783C94.4282 96.8285 94.9423 97.1253 95.4491 97.414C96.0575 97.7612 96.6231 98.0998 97.3715 98.2529C97.7718 98.3326 98.2711 98.5929 98.669 98.8147C100.435 99.8067 102.321 100.565 104.226 101.282L106.168 102.005C106.584 102.161 106.586 102.15 106.706 102.184L106.971 102.249C107.127 102.283 107.237 102.299 107.308 102.3C107.344 102.301 107.367 102.295 107.386 102.289C107.396 102.287 107.399 102.281 107.402 102.275C107.42 102.245 107.356 102.196 107.319 102.171L106.954 101.865L106.869 101.792L106.764 101.703L106.744 101.684L106.653 101.591L106.214 101.138L104.462 99.3139L100.998 95.6289C100.545 95.144 100.094 94.6485 99.6085 94.2127C98.4881 93.1992 97.4588 92.1108 96.4643 90.9828C95.2624 89.6274 93.9465 88.3934 92.6307 87.1595C92.3216 86.8735 91.9962 86.6019 91.7164 86.2929C89.7848 84.1377 87.6308 82.2087 85.648 80.1076C84.0461 78.4097 82.5049 76.6551 80.952 74.9137C79.7608 73.5605 78.5755 72.2107 77.389 70.8562C77.3094 70.7664 77.2134 70.6911 77.1337 70.6013C76.4647 69.8205 76.4457 69.3911 77.1021 69.4274C77.6828 69.4638 78.3157 69.7894 78.9557 70.4617C79.6595 71.2028 80.347 71.9584 81.0414 72.702L81.0848 72.6752Z" fill="#DCAF3F"/>
<path d="M66.804 71.7807L62.1637 67.5117L76.8177 69.2896L66.804 71.7807Z" fill="#F5E3B4"/>
<path d="M65.3248 71.3702C65.1097 71.0388 64.876 70.7325 64.6948 70.3768C64.5852 70.194 64.4743 70.0065 64.3594 69.8604C64.2385 69.7109 64.0991 69.5866 63.8565 69.4545C63.7323 69.3868 63.6834 69.2988 63.5981 69.2257C63.4395 69.0863 63.2904 68.9443 63.1151 68.7993C63.037 68.7343 62.8093 68.6387 62.7894 68.5834C62.7093 68.322 62.5509 68.1269 61.8509 67.6829C62.0514 67.6393 61.6207 67.3707 61.2 67.064C61.2142 67.0603 61.2283 67.0565 61.2471 67.0514C61.4455 67.0185 61.8898 67.1116 61.9384 66.9723C61.9544 66.9377 62.049 66.9326 62.2025 66.9773C63.134 67.2482 63.5672 67.2432 64.162 67.2758C64.4689 67.2896 64.8141 67.3335 65.1515 67.4048C65.3226 67.4398 65.4855 67.4821 65.645 67.5303C65.8044 67.5785 65.9651 67.6314 66.0607 67.6867C66.3008 67.8093 66.5652 67.8344 66.8215 67.8668C67.1286 67.9007 67.4386 67.8884 67.7467 67.9069C68.1947 67.9384 68.6398 67.9404 69.0991 67.8629C69.4036 67.8116 69.7107 67.7697 70.0144 67.7338L70.2414 67.7134L70.3548 67.7032L70.5359 67.7002L71.3282 67.7152C71.8931 67.7306 72.3959 67.8536 72.8733 67.9379C73.8399 68.1134 74.6219 68.2979 75.447 68.4356L75.453 68.439C75.5855 68.5753 75.8654 68.6772 76.1123 68.7878C76.3508 68.8856 76.614 68.9818 76.7676 69.1024C76.8431 69.1579 76.9079 69.2113 76.9693 69.2706C76.7054 69.6243 76.6348 70.002 76.7729 70.4045L76.778 70.4234C76.3082 70.5745 75.8384 70.7257 75.372 70.8708C75.1058 70.9523 74.8076 71.0271 74.4974 71.0951L71.1539 71.8546L68.5435 72.4833C68.0906 72.5844 67.6326 72.6667 67.2164 72.9046C67.0979 72.9717 67.0324 72.8781 67.0236 72.6379C67.0084 72.2226 66.9704 71.7983 67.1254 71.5092C67.2298 71.3144 67.3397 71.1587 67.5352 71.172C67.8185 71.1921 68.0487 70.9384 68.3689 71.1153C68.4155 71.1382 68.4648 71.1149 68.5034 71.0894C68.8559 70.8585 69.2361 70.7314 69.6265 70.6419C69.821 70.5949 70.0193 70.5619 70.2164 70.5243L70.6709 70.448C70.8633 70.4116 71.0027 70.3287 71.1558 70.2776C71.2582 70.2451 71.362 70.2173 71.4811 70.1905C71.6486 70.1557 71.9004 70.1337 72.0286 70.0842C72.1332 70.041 72.0187 69.9908 72.7915 70.0465C72.9563 70.0579 73.0056 70.0346 72.8666 70.0062C72.7918 69.9909 72.7229 69.979 72.6635 69.9646C72.3795 69.9043 72.4977 69.8928 72.5993 69.8757C72.9073 69.8184 73.3241 69.7522 73.5928 69.6802C73.786 69.6284 73.8385 69.579 73.7586 69.5448C73.6907 69.5176 73.5328 69.4942 73.3432 69.4844C73.0213 69.4898 72.6947 69.4964 72.3728 69.5019C72.065 69.5035 71.7632 69.5086 71.4554 69.5102C71.3514 69.5179 71.2473 69.5255 71.1433 69.5332C71.0628 69.5346 70.8478 69.5619 71.0766 69.5107C71.329 69.4531 71.3038 69.4346 70.6903 69.5586C70.5853 69.5817 70.4979 69.595 70.4071 69.6143C70.3835 69.6206 70.4011 69.6108 70.42 69.6057C70.4706 69.5871 70.6472 69.5297 70.7789 69.4742C70.9517 69.4026 71.0521 69.3252 70.7165 69.4303C70.5399 69.4877 70.6056 69.4499 70.6533 69.4018C70.8593 69.1899 70.4669 69.1586 70.2557 69.2001L70.1979 69.2105C70.1837 69.2143 70.1649 69.2194 70.1139 69.2179L69.8476 69.2235L69.3117 69.2408L68.2384 69.2707C67.9567 69.2755 67.6816 69.2481 67.4043 69.2315C66.9717 69.2009 66.5435 69.1489 66.1162 69.0815L65.798 69.0253L65.7552 69.0165L65.7492 69.0131L65.7373 69.0062L65.7181 68.9911C65.6882 68.9739 65.6523 68.9532 65.6057 68.9303C65.5711 68.9143 65.5126 68.8845 65.5299 68.9304C65.5791 69.0384 65.5621 69.0127 65.3592 68.9155C65.1516 68.8195 65.1489 68.8657 65.3197 68.9564L65.4487 69.0229C65.5131 69.0561 65.6443 69.1119 65.605 69.0972C65.4704 69.0474 65.5613 69.1038 65.628 69.1264C65.7019 69.1571 65.7563 69.1527 65.7254 69.1508C65.7066 69.1559 65.6655 69.1719 65.6533 69.2207L65.6489 69.2421L65.7178 69.3297L65.857 69.5097L66.1353 69.8696C66.4256 70.2364 66.6914 70.625 66.9701 71.0051C66.9871 71.0308 67.0239 71.0361 67.0409 71.0619C67.1915 71.2843 67.0563 71.5529 66.6661 71.7939C66.3193 72.0081 66.0396 72.0578 65.8734 71.8901C65.688 71.7074 65.5177 71.5054 65.3392 71.3107L65.3248 71.3702Z" fill="#DCAF3F"/>
<path d="M50.871 30.4221C49.8593 29.814 48.8014 29.279 47.7124 28.7977C46.6282 28.3152 45.5223 27.8839 44.4008 27.5074C42.4134 26.8222 40.3597 26.3418 38.1955 26.3356C37.6403 26.3378 37.0392 26.2816 36.4591 26.2855C35.4066 26.2795 34.352 26.36 33.3078 26.4983C32.8332 26.575 32.3492 26.7299 31.9098 26.787C30.8266 26.9307 29.7596 27.1914 28.7298 27.5532C27.7136 27.9467 26.7176 28.4157 25.8274 29.0534C24.2589 29.7617 23.016 30.9688 22.0459 32.3454C21.5519 33.0285 21.1346 33.7719 20.8221 34.5478C20.5037 35.3203 20.3365 36.1482 20.383 36.9442C20.3783 37.1526 20.4081 37.377 20.4319 37.598C20.4369 37.8241 20.4796 38.04 20.5103 38.249C20.5311 38.5719 20.6463 38.8694 20.7296 39.1806C20.776 39.3349 20.8588 39.4744 20.9241 39.6236C20.9928 39.7669 21.0499 39.9234 21.1504 40.0531C21.329 40.3235 21.5031 40.6154 21.7124 40.8119C21.9221 41.0286 22.1936 41.1933 22.4694 41.3367C23.0401 41.6183 23.6866 41.7684 24.3494 41.8283C25.0122 41.8882 25.6902 41.8732 26.3635 41.7838C27.8035 41.595 29.2243 41.184 30.5156 40.5348C31.8069 39.8857 32.9914 39.0074 33.7664 37.7892C34.6206 36.4892 34.9855 34.815 35.026 33.2126C35.0753 31.2845 34.651 29.3619 33.9321 27.5841C32.8872 25.0043 31.0404 22.7505 28.6577 21.4386C27.8631 20.9998 27.0239 20.6587 26.1625 20.4045C25.3033 20.1396 24.4053 20.0315 23.4765 19.9217C21.6418 19.6554 19.7952 19.6652 17.9852 19.8116C16.1472 19.9858 14.3117 20.3766 12.6165 21.0834C10.9226 21.795 9.36322 22.8393 8.06203 24.1682C6.76682 25.5005 5.71496 27.0809 4.92101 28.7942C4.58946 29.4237 4.38436 30.1102 4.11604 30.7682C4.00453 31.1063 3.90967 31.45 3.8054 31.7963C3.69986 32.1378 3.60032 32.4828 3.53283 32.8344L3.30302 33.8812C3.23553 34.2328 3.18942 34.5887 3.13262 34.9425C3.00363 35.649 2.96363 36.3671 2.89154 37.0786C2.69386 39.7539 2.93445 42.4431 3.40947 45.0644C3.77365 47.0081 4.31132 48.9204 5.05447 50.7323C5.79763 52.5441 6.74533 54.2707 7.95744 55.7396C10.4873 58.6946 13.6755 61.1649 17.15 62.9876C18.8305 63.8662 20.584 64.5837 22.3773 65.2046C22.8239 65.3628 23.2705 65.5211 23.7262 65.6567C24.1784 65.7982 24.6298 65.9552 25.0889 66.0848C26.7787 66.6021 28.5032 67.004 30.2468 67.3452C31.987 67.6924 33.7481 67.9481 35.5258 68.1336C40.6078 68.6768 45.7554 68.692 50.8933 68.4824C53.8119 68.3623 56.7268 68.1724 59.6124 67.7782C60.4214 67.6675 60.6963 67.7505 60.4131 68.0133C59.927 68.4619 59.5478 68.9323 58.164 69.293C57.2246 69.5397 56.3471 69.7344 55.1566 69.7603C53.4357 69.7869 51.6319 70.0883 49.9239 69.8992C49.6844 69.8725 49.338 69.8996 49.0566 69.9245C43.9994 70.36 38.8631 70.1043 33.8075 69.4328C32.1548 69.2239 30.4994 68.9853 28.8532 68.6685C27.7913 68.4579 26.7334 68.2058 25.6834 67.9263C24.161 67.5056 22.6665 66.9814 21.1895 66.4475C20.6344 66.2426 20.0827 66.0317 19.5581 65.8085C19.039 65.5686 18.5514 65.295 18.1137 64.9626C17.9337 64.8189 17.3751 64.5441 17.1553 64.4969C16.7276 64.4094 16.3021 64.2354 15.8793 64.0152C15.4565 63.7951 15.0287 63.556 14.6168 63.2824C12.3661 61.8594 10.2779 60.1755 8.41792 58.2689L7.39833 57.1981C7.08286 56.8127 6.7545 56.4359 6.44249 56.0445C6.16095 55.6349 5.86184 55.235 5.58375 54.8195C5.32797 54.3928 5.06397 53.9735 4.81762 53.5443C4.07753 52.1965 3.46187 50.7851 2.94268 49.3377C2.46119 47.8802 2.02434 46.4006 1.76316 44.879C1.29547 42.3416 1.15216 39.7325 1.30153 37.1409C1.353 36.541 1.35949 35.943 1.42637 35.3441C1.50714 34.7969 1.58882 34.2344 1.66707 33.6779C1.78336 33.1314 1.91161 32.5917 2.06537 32.0908C2.25616 31.5394 2.43984 31.0557 2.57255 30.5704C2.70998 30.0839 2.86186 29.6138 2.95332 29.0688C2.99791 28.7638 3.14083 28.3921 3.31203 28.0127C3.48793 27.6321 3.65751 27.228 3.86962 26.8882C4.13694 26.4528 4.40556 26.022 4.68737 25.603C5.00631 25.2093 5.32053 24.8169 5.63601 24.4292C6.03694 23.9832 6.46117 23.5866 6.84921 23.1492C7.28289 22.75 7.69834 22.3204 8.1294 21.836C8.63278 21.3576 9.40415 20.7669 10.1256 20.4422C10.8783 20.0081 11.701 19.722 12.4897 19.3844C12.8982 19.2496 13.3118 19.1338 13.7216 19.0037C13.9277 18.9434 14.1301 18.869 14.3388 18.8182L14.9712 18.6891C15.3936 18.6063 15.811 18.5045 16.2312 18.4323L17.5049 18.2831L18.1417 18.2084L18.7783 18.1894L20.0562 18.1502C20.6362 18.1463 21.2078 18.2054 21.7847 18.2276C22.0727 18.2465 22.3617 18.2499 22.65 18.2888L23.5043 18.4035C24.0788 18.4921 24.6418 18.5383 25.2204 18.6611C25.8059 18.772 26.384 18.9304 26.9507 19.1221C29.2318 19.8852 31.2933 21.3185 32.8423 23.1772C34.0729 24.6209 34.9624 26.3379 35.5585 28.1285C36.0188 29.526 36.2837 30.9859 36.3229 32.471C36.3608 33.9514 36.179 35.4603 35.667 36.9061C35.4057 37.6279 35.0683 38.3297 34.6236 38.9895C34.1648 39.653 33.6097 40.2211 33.0069 40.706C31.8003 41.671 30.4319 42.3155 29.0149 42.7407C27.8993 43.0649 26.7354 43.2656 25.5729 43.3396C24.2388 43.4142 22.8104 43.3068 21.4428 42.5212C21.1068 42.3233 20.7818 42.0718 20.4925 41.7653L20.2826 41.5285C20.2268 41.4525 20.1771 41.38 20.1273 41.3074L19.8262 40.8626C19.6259 40.5677 19.4935 40.2242 19.3318 39.9037C19.2101 39.5625 19.0931 39.2199 19.009 38.8686C18.8159 38.0159 18.8061 37.1495 18.889 36.3087C19.01 35.478 19.2224 34.6682 19.5365 33.9171C20.1575 32.4067 21.1038 31.0921 22.2068 29.9477C22.7309 29.4334 23.2855 28.9008 23.892 28.5059C28.0686 25.6891 33.1513 24.5192 38.0258 24.835C41.981 25.1141 45.8146 26.1837 49.3398 27.8564C52.0607 29.1484 54.6173 30.8078 56.7711 32.9439C56.9109 33.0883 57.0799 33.2098 57.2102 33.3568C57.7998 33.992 58.0924 34.4997 58.1456 34.7735C58.2034 35.046 58.0127 35.1072 57.5862 34.9486C56.8521 34.6603 55.9683 34.0584 54.8587 33.1228C53.6314 32.0875 52.2772 31.1821 50.8669 30.3878L50.871 30.4221Z" fill="#DCAF3F"/>
</svg>
