<svg width="40" height="38" viewBox="0 0 40 38" fill="none" xmlns="http://www.w3.org/2000/svg">
<path d="M10.2782 20.3364C1.59756 21.7918 0.78641 25.3009 1.40194 26.5837C2.31085 28.4821 10.8189 29.2357 17.3424 25.7841L22.3586 19.7957" fill="#CFE2F4"/>
<path d="M8.89147 21.4467C8.44852 21.4352 8.01131 21.464 7.5511 21.4122C7.14842 21.3834 6.73425 21.3547 6.4121 21.625C6.32582 21.6941 6.21651 21.6941 6.11872 21.7343C5.94039 21.8091 5.76207 21.8724 5.58949 21.9587C5.50895 21.999 5.46293 22.1198 5.37665 22.1198C4.95671 22.137 4.55978 22.2636 4.30091 22.6087C3.93275 22.58 3.72564 22.8504 3.53005 23.092C3.32296 23.3163 3.04108 23.4659 2.95479 23.7938C2.93178 23.8801 2.87428 23.9433 2.7995 23.9779C2.3623 24.185 2.09766 24.6049 1.98836 25.0191C1.86756 25.4563 1.7295 25.8532 1.67198 26.3019C1.66623 26.3422 1.66623 26.3882 1.67198 26.4285C1.70649 26.6413 1.86182 26.7851 2.04015 26.9117C2.31052 27.0957 2.64992 27.182 2.97207 27.2741C3.44953 27.4179 3.95575 27.4697 4.46773 27.4007C5.14653 27.3029 5.81959 27.2051 6.48689 27.113C6.82629 27.067 7.16571 27.1418 7.50511 27.1705C8.18967 27.2281 8.88572 27.2971 9.58178 27.2683C10.1053 27.2396 10.623 27.1533 11.1292 27.021C11.6009 26.9059 12.0554 26.7103 12.5156 26.5608C13.8732 26.1063 15.1848 25.5425 16.3756 24.8235L16.4849 24.7544C16.5079 24.7372 16.4964 24.7372 16.5021 24.7314C16.5079 24.7199 16.5022 24.7084 16.4964 24.6969L16.4906 24.6797C16.4906 24.6739 16.4849 24.6739 16.4906 24.6682L16.5252 24.6106L16.6747 24.3863C16.7783 24.2367 16.8933 24.0987 17.0141 23.9663C17.4628 23.4716 17.923 22.9942 18.3602 22.4879L20.2125 20.3135C20.5692 19.905 20.9431 19.5138 21.1675 19.0019C21.2308 18.858 21.3631 18.9041 21.5356 19.1227C21.8405 19.5023 22.1742 19.882 22.226 20.2674C22.2605 20.5263 22.272 20.7449 22.0764 20.8657C21.7945 21.0441 21.7542 21.441 21.3286 21.4927C21.271 21.4985 21.2365 21.556 21.2193 21.6078C20.8741 22.5282 20.1378 23.1322 19.5107 23.8283C19.3037 24.0526 19.1483 24.323 18.9642 24.5646C18.8434 24.72 18.7169 24.8753 18.5846 25.0248C18.3948 25.2377 18.1704 25.4275 18.0036 25.6634C17.9403 25.7554 17.9 25.8417 17.7965 25.951C17.7044 26.0488 17.5836 26.1236 17.388 26.0431C17.3133 26.0143 17.204 26.0833 17.1982 26.1638C17.1752 26.4687 16.9969 26.532 16.83 26.5953C16.3698 26.7851 15.8981 26.9405 15.4379 27.1188C15.0985 27.2511 14.7649 27.4122 14.437 27.5847C13.925 27.8494 13.4187 28.1543 12.878 28.3786C12.4293 28.5627 11.9576 28.6835 11.4859 28.8158C11.3766 28.8445 11.2788 28.9193 11.1695 28.9481C10.9682 28.9941 10.7611 29.0862 10.5597 29.0229C10.3296 28.9539 10.1685 28.9481 9.99595 29.207C9.89816 29.3508 9.71983 29.3565 9.57027 29.345C9.38043 29.3335 9.1906 29.2645 9.00077 29.1897C8.77642 29.0977 8.56931 29.0056 8.34496 29.1897C8.22416 29.2875 8.04585 29.2415 7.90204 29.1839C7.2635 28.9193 6.64795 28.9366 6.00366 28.9769C5.13502 29.0229 4.24913 29.0746 3.31721 28.9653C2.9548 28.9251 2.58664 28.8158 2.21272 28.695C1.89058 28.5799 1.56842 28.4476 1.22326 28.2118C1.13697 28.1542 1.05646 28.1024 0.964422 28.0219C0.872381 27.9414 0.757329 27.8551 0.676793 27.7573C0.498463 27.5675 0.360395 27.3489 0.239591 27.1188C-0.117069 26.2617 -0.0192724 25.531 0.170563 24.8983C0.268357 24.6336 0.371898 24.3748 0.452434 24.1217C0.607754 23.5061 1.01618 23.0574 1.44762 22.7065C1.71799 22.5109 1.95386 22.2981 2.18397 22.0795C2.41982 21.8839 2.63839 21.6423 2.87425 21.441C2.98355 21.3489 3.08136 21.2281 3.21367 21.1706C3.66812 20.9635 4.08806 20.7622 4.508 20.5206C4.92794 20.3077 5.35363 20.0949 5.80233 19.9568C6.16474 19.8648 6.5329 19.7957 6.90682 19.7382C7.27498 19.6864 7.6489 19.6692 8.01706 19.6347C8.58082 19.5714 9.15033 19.6117 9.71408 19.6059C9.7486 19.6059 9.78311 19.5771 9.82338 19.5771C10.1455 19.5886 10.2951 19.9108 10.2376 20.4458C10.1916 20.9232 10.042 21.2224 9.77735 21.2626C9.48397 21.3086 9.18484 21.3259 8.88571 21.3547L8.89147 21.4467Z" fill="#87B1D9"/>
<path d="M23.4904 18.4496C26.6716 18.2885 32.8211 12.3576 37.3139 17.0172C39.5977 19.3815 38.3091 24.5013 35.6571 26.9001C32.1711 30.0583 25.1241 29.5808 19.9871 24.2252" fill="#CFE2F4"/>
<path d="M24.9932 17.1956C25.4937 17.1208 25.9999 16.9712 26.5349 16.9022C27.0124 16.8389 27.4899 16.7756 27.8523 16.4305C27.9443 16.3384 28.0824 16.3212 28.1974 16.2637C28.4103 16.1659 28.6289 16.0738 28.836 15.9645C28.9338 15.9185 28.997 15.7862 29.1063 15.7747C29.6241 15.7344 30.0843 15.6079 30.51 15.2972C30.9414 15.3893 31.2635 15.1477 31.6375 14.9981C32.0114 14.8543 32.4198 14.8428 32.811 14.6529C32.9146 14.6012 33.0411 14.5839 33.1504 14.6069C33.8177 14.7853 34.4678 14.8025 35.1408 14.9693C35.8541 15.1419 36.4927 15.5791 36.9011 16.1716C37.0161 16.3269 37.1369 16.465 37.2577 16.6088C37.3843 16.7469 37.5224 16.8677 37.6374 17.023C37.7813 17.1956 37.9423 17.3624 38.0631 17.558C38.1954 17.7421 38.3277 17.9377 38.4083 18.1505C38.6959 18.7545 38.857 19.3873 39.0468 20.0431C39.2942 20.9232 39.3517 21.8724 39.2251 22.7871C39.1561 23.253 38.949 23.6902 38.7362 24.1044C38.3162 24.9443 37.7698 25.7036 37.1715 26.417C36.7113 26.9462 36.2338 27.4754 35.6758 27.9241C35.1638 28.3498 34.6231 28.764 34.019 29.0574C33.8004 29.1782 33.5703 29.276 33.3402 29.3565C33.1101 29.4428 32.8801 29.5406 32.6384 29.6096C32.161 29.7305 31.6835 29.8743 31.1945 29.9318C30.2224 30.1101 29.2387 30.0871 28.255 30.0411C27.7948 29.9778 27.3116 29.9721 26.8513 29.8858C26.6212 29.8398 26.3911 29.7765 26.1668 29.7075C25.3384 29.4371 24.5503 29.0747 23.7852 28.6777C22.6922 28.1082 21.6395 27.4639 20.7133 26.6701C20.1668 26.2386 19.7066 25.7324 19.1084 25.3585C18.9358 25.255 18.9875 25.1226 19.2349 24.9788C19.6663 24.7315 20.092 24.4496 20.512 24.4554C20.7939 24.4611 21.0297 24.4784 21.162 24.7085C21.3576 25.0364 21.8063 25.0881 21.9041 25.5483C21.9156 25.6116 21.9846 25.6519 22.0422 25.6749C23.1006 26.0488 23.8887 26.7736 24.8609 27.2511C25.0163 27.3316 25.1773 27.3949 25.3442 27.4582L25.8504 27.6078C26.069 27.6768 26.2761 27.7631 26.4889 27.8321C26.7996 27.9299 27.1102 28.0622 27.4323 28.1255C27.6797 28.16 27.9271 28.1082 28.0996 28.4304C28.1342 28.4994 28.2722 28.5052 28.324 28.4476C28.5368 28.2291 28.7324 28.2578 28.9338 28.2923C29.4745 28.3844 30.0268 28.4131 30.5732 28.4016C30.9759 28.3498 31.3786 28.3038 31.7525 28.1427C32.0459 28.0334 32.3336 27.9242 32.5982 27.7631C32.8685 27.6193 33.1274 27.4754 33.369 27.3029C33.5761 27.1705 33.7889 27.0613 33.9788 26.906C34.1686 26.7621 34.3815 26.6471 34.5368 26.4688C34.6116 26.394 34.6633 26.2847 34.7439 26.2156C34.8992 26.0948 34.9912 25.8992 35.1868 25.8302C35.4112 25.7612 35.532 25.6346 35.4745 25.3412C35.4399 25.1802 35.5608 25.0594 35.6528 24.9558C35.7736 24.8235 35.9634 24.7372 36.1245 24.6222C36.3201 24.4899 36.5387 24.369 36.4869 24.0699C36.4582 23.9146 36.5847 23.7823 36.7055 23.6787C37.2175 23.207 37.4303 22.5455 37.4821 21.8897C37.5569 21.0038 37.4533 20.1179 37.1887 19.393C37.1312 19.255 37.0794 19.1169 37.0392 18.9789C36.9759 18.8523 36.9184 18.7315 36.8666 18.6049C36.8148 18.5129 36.7515 18.4382 36.7055 18.3461C36.6595 18.2541 36.6019 18.1793 36.5329 18.1102C36.4639 18.0355 36.4294 17.9607 36.3431 17.8744L36.09 17.6155C35.7448 17.2876 35.3767 16.9942 34.974 16.7699C34.8187 16.6836 34.6518 16.5915 34.462 16.5973C34.0363 16.6031 33.6566 16.5225 33.2252 16.4362C32.7017 16.3385 32.1552 16.5168 31.6432 16.7526C31.5224 16.8102 31.4074 16.8964 31.2808 16.9137C30.3604 17.0402 29.5608 17.6328 28.6461 18.0009C27.8983 18.3001 27.0987 18.5417 26.2588 18.7833C25.6088 18.9616 24.93 19.1227 24.1649 19.1687C24.1131 19.1687 24.0671 19.2032 24.0153 19.2032C23.5436 19.1917 23.4285 18.8523 23.5666 18.3173C23.6817 17.8456 23.8025 17.5637 24.0728 17.5005C24.372 17.4372 24.6999 17.3567 25.0277 17.2589L24.9932 17.1956Z" fill="#87B1D9"/>
<path d="M15.737 27.6711C13.0275 34.1427 17.6296 36.5358 18.3142 36.6278C20.2873 36.8925 26.0801 33.602 21.4436 23.6558" fill="#CFE2F4"/>
<path d="M16.1282 28.9942C15.9269 29.2416 15.7946 29.512 15.5587 29.7708C15.3344 29.9952 15.179 30.2483 15.2941 30.5416C15.3286 30.6164 15.2768 30.6912 15.2711 30.7603C15.2481 30.8926 15.2481 31.0306 15.2653 31.1629C15.2711 31.2262 15.3689 31.2895 15.3344 31.347C15.2538 31.4851 15.202 31.6231 15.1905 31.767C15.1963 31.905 15.248 32.0431 15.3516 32.1696C15.1503 32.417 15.3401 32.6126 15.4724 32.7967C15.5932 32.9865 15.5875 33.2166 15.8348 33.3432C15.8981 33.3777 15.9326 33.4294 15.9269 33.487C15.8923 33.6768 15.9441 33.8437 16.0304 33.9875C16.111 34.137 16.2087 34.2751 16.3353 34.3901C16.5769 34.6547 16.7553 34.9596 16.8876 35.3566C16.9566 35.5752 17.1291 35.7075 17.296 35.8283C17.4973 35.9721 17.7389 36.0527 17.9575 36.1389C18.1244 36.208 18.2624 36.2425 18.4062 36.2252C18.5443 36.1792 18.6766 36.1562 18.8204 36.0354C19.1828 35.788 19.4877 35.4486 19.7753 35.1782C19.9076 35.0057 20.1263 34.9711 20.3046 34.8618C20.667 34.6548 21.0467 34.4131 21.3458 34.0737C21.4494 33.9414 21.5414 33.8034 21.6334 33.6596C21.7255 33.5158 21.76 33.3432 21.8233 33.1879C21.9441 32.8945 21.9326 32.5551 21.9843 32.2502C22.0994 31.324 22.0764 30.3748 21.8463 29.4372C21.7945 29.2128 21.714 28.9942 21.6564 28.7699C21.6162 28.6606 21.5874 28.5455 21.5701 28.4305C21.4896 28.0048 21.4839 27.5676 21.3458 27.1419C21.156 26.5321 20.9891 25.9224 20.7303 25.3241C20.598 24.9847 20.4887 24.628 20.2068 24.3519C20.1262 24.2771 20.2298 24.1908 20.5002 24.1103C20.9604 23.9722 21.4321 23.8111 21.7657 23.8687C21.9901 23.9089 22.1742 23.9607 22.1684 24.1333C22.1627 24.3864 22.4618 24.5302 22.2835 24.8466C22.2605 24.8926 22.2892 24.9271 22.318 24.9559C22.6114 25.2033 22.7494 25.5197 22.8472 25.8533C22.945 26.1812 23.0025 26.5264 23.0888 26.86C23.1464 27.0786 23.2269 27.2915 23.2959 27.5043C23.3362 27.6481 23.3707 27.7919 23.3937 27.9357C23.4282 28.1486 23.434 28.3614 23.4915 28.5685C23.526 28.7238 23.6353 28.8734 23.365 29.0517C23.3075 29.0863 23.3304 29.1668 23.4052 29.1898C23.6756 29.2761 23.6641 29.4142 23.6698 29.5465C23.7044 29.9089 23.6296 30.2771 23.6353 30.6395C23.6296 30.9098 23.6813 31.1802 23.6928 31.4563C23.7216 31.8878 23.8424 32.348 23.7791 32.8024C23.7504 33.1821 23.6641 33.556 23.526 33.9242C23.4973 34.0105 23.5145 34.114 23.48 34.2003C23.4225 34.3556 23.4052 34.5512 23.2326 34.6375C23.0486 34.7353 22.9623 34.8331 23.0658 35.0977C23.1234 35.2473 23.0313 35.3681 22.945 35.4544C22.8185 35.5579 22.6516 35.6212 22.4848 35.673C22.2835 35.7363 22.1109 35.788 22.0936 36.0411C22.0821 36.1792 21.9326 36.231 21.806 36.2597C21.5241 36.3288 21.294 36.4381 21.0697 36.5531C20.8511 36.6797 20.6555 36.8407 20.4311 36.9788C20.1493 37.1916 19.8214 37.3642 19.482 37.5368C19.2979 37.6058 19.1023 37.6691 18.9067 37.7324C18.7054 37.7899 18.4523 37.8014 18.1704 37.8187H18.1589C17.9518 37.7957 17.7217 37.7554 17.5376 37.6806C17.3593 37.6231 17.2327 37.5598 17.0889 37.4908C16.2318 37.0881 15.6105 36.4265 15.1273 35.6845C15.0352 35.5349 14.9547 35.3796 14.8166 35.2645C14.6498 35.138 14.5463 34.9654 14.4485 34.7871C14.3507 34.6145 14.2874 34.4189 14.2586 34.2176C14.1551 33.7458 13.9537 33.3374 13.7409 32.8887C13.6891 32.7852 13.6316 32.6874 13.6316 32.5723C13.6546 32.1869 13.5683 31.8187 13.5568 31.4506C13.5223 31.0824 13.4763 30.7027 13.5625 30.3461C13.6258 30.0585 13.6891 29.7651 13.8099 29.5062L14.1838 28.7296C14.3679 28.3327 14.6555 27.999 14.8856 27.6481C14.9029 27.6251 14.8914 27.5906 14.9087 27.5676C15.0582 27.372 15.3976 27.441 15.8406 27.7401C16.2318 28.0048 16.4388 28.2291 16.3641 28.3959C16.2835 28.5858 16.1742 28.7641 16.0764 28.9482L16.1282 28.9942Z" fill="#87B1D9"/>
<path d="M21.7303 19.8419C18.0832 17.9608 26.1138 9.06155 23.7725 5.69629C17.5827 -3.19721 8.07941 2.38281 6.03724 8.51507C4.38625 13.4623 7.23954 21.0615 13.9931 24.2254" fill="#CFE2F4"/>
<path d="M19.9586 17.6559C20.1599 16.8621 20.4533 16.189 20.8387 15.5793C21.1839 15.0385 21.5463 14.5438 21.6441 13.9052C21.6671 13.7384 21.7707 13.5946 21.8397 13.4393C21.9605 13.1574 22.087 12.8813 22.1906 12.5937C22.2366 12.4613 22.2078 12.2945 22.2884 12.1852C22.6853 11.6732 22.973 11.1037 23.0362 10.4594C23.4101 10.0798 23.4331 9.56778 23.4907 9.09032C23.554 8.61285 23.715 8.14114 23.5827 7.68093C23.5597 7.56012 23.5309 7.43356 23.5712 7.31851C23.6633 6.97911 23.6575 6.62247 23.5309 6.33484C23.5079 6.25431 23.4677 6.191 23.4274 6.12772C23.3814 6.05869 23.3584 6.00117 23.2836 5.92064L22.9097 5.47196C22.3632 4.84492 21.8684 4.19486 21.3622 3.5103C21.2357 3.32047 21.0746 3.15365 20.8905 3.01559C20.7122 2.87178 20.5281 2.72795 20.3325 2.6129C20.1024 2.46909 19.8665 2.3368 19.6077 2.23901C19.3603 2.12971 19.1072 2.03191 18.8541 1.94562C18.1235 1.681 17.3412 1.56019 16.5818 1.65799C15.5636 1.79605 14.6144 2.08366 13.7228 2.46909C13.2741 2.67618 12.7794 2.78549 12.3076 2.98108C11.37 3.36075 10.4438 3.85548 9.6442 4.53428C9.04017 5.03476 8.52819 5.64453 8.09675 6.29457C7.69407 6.90435 7.41796 7.5774 7.18211 8.23895C6.46879 10.1718 6.64134 12.3635 7.26262 14.3597C7.33165 14.6013 7.44672 14.8314 7.53876 15.0673C7.63081 15.3031 7.73434 15.5332 7.85515 15.7576C7.9702 15.9819 8.06225 16.2178 8.15429 16.4536C8.55122 17.2993 8.95964 18.1564 9.53489 18.9042C10.3288 19.9915 11.3009 20.9464 12.3767 21.7575C12.6873 21.9761 13.0095 22.189 13.3316 22.3961C13.6595 22.5859 14.0219 22.724 14.3901 22.8333C14.5972 22.8908 14.6029 23.0403 14.4131 23.2532C14.0852 23.6213 13.763 24.0125 13.2683 24.0758C12.9404 24.1103 12.6125 24.1391 12.3594 23.8802C12.0028 23.5063 11.3987 23.4315 11.1916 22.8793C11.1629 22.8045 11.0766 22.7527 11.0018 22.7124C9.62693 22.0509 8.66627 20.8198 7.86091 19.5773L7.02678 18.375C6.87146 18.0989 6.72763 17.817 6.58382 17.5294C6.36522 17.1209 6.26744 16.6607 6.06035 16.2523C5.91078 15.9417 5.7382 15.6368 5.91077 15.2571C5.94529 15.1766 5.87625 15.0097 5.79571 14.9695C5.47932 14.8027 5.44483 14.5093 5.3873 14.2274C5.29526 13.8477 5.26648 13.4565 5.22621 13.0711C5.16869 12.6857 5.17444 12.2945 5.15143 11.9033C5.12266 11.6157 5.12842 11.3281 5.12267 11.0347C5.12267 10.7413 5.08815 10.4479 5.11691 10.1545L5.13991 9.46425C5.14566 9.23415 5.19169 9.00403 5.22046 8.76818C5.27223 8.29646 5.37579 7.83624 5.52536 7.38754C5.77272 6.63395 6.1524 5.93789 6.57233 5.27059C6.66438 5.10952 6.73338 4.94272 6.83693 4.79315C7.02677 4.51703 7.21661 4.21214 7.49273 4.03381C7.80913 3.84973 7.99897 3.6714 8.07375 3.28022C8.11977 3.06162 8.33836 2.86603 8.53395 2.73372C8.78706 2.56114 9.06894 2.43458 9.36232 2.33103C9.70748 2.19872 10.0354 2.11244 10.2597 1.76153C10.3805 1.56594 10.6624 1.47964 10.8925 1.42211C11.9165 1.1805 12.8311 0.789349 13.8206 0.472957C15.1552 0.0587711 16.6278 -0.131078 18.0947 0.0990251C18.67 0.185314 19.228 0.369412 19.7688 0.582258C20.6029 0.927413 21.3737 1.3991 22.0525 1.96286C22.7198 2.53812 23.3296 3.15941 23.8358 3.84396C24.0487 4.10283 24.2328 4.39045 24.4629 4.62055L24.6642 4.82767C24.7332 4.90821 24.785 4.94272 24.8655 5.07503C25.0209 5.30513 25.1589 5.54674 25.2394 5.79986C25.4235 6.30608 25.4466 6.80078 25.4121 7.24948C25.3028 8.31947 25.1532 9.22837 24.9748 10.1258C24.9288 10.3329 24.9173 10.5572 24.8253 10.7355C24.2097 12.0241 23.8473 13.3473 23.2893 14.538C22.8406 15.493 22.3171 16.4018 22.0007 17.282C21.7534 17.9666 21.6383 18.5591 21.8109 18.8985C21.8282 18.9215 21.8627 18.9272 21.88 18.9503C22.0008 19.1458 22.0295 19.5485 21.5866 19.8879C21.3852 20.0202 21.1321 20.1123 20.8963 20.0432C20.6431 19.9915 20.413 19.8016 20.252 19.514C19.9298 18.8582 19.9586 18.2082 20.0334 17.6674L19.9586 17.6559Z" fill="#87B1D9"/>
<path d="M14.7922 27.7975C15.2352 28.3267 18.0597 26.4168 20.401 23.7649C22.7768 21.0842 24.4163 17.8915 23.8238 17.5061C23.237 17.1264 20.8727 19.8474 18.5544 22.5223C16.2764 25.1513 14.3953 27.32 14.7922 27.7975Z" fill="#87B1D9"/>
<path d="M15.5527 26.8369C15.8691 26.7966 16.1912 26.6873 16.5536 26.6355C16.8758 26.5895 17.2037 26.5262 17.3475 26.2099C17.382 26.1293 17.474 26.1063 17.5373 26.0488C17.6524 25.951 17.7674 25.8589 17.8709 25.7497C17.917 25.6979 17.9112 25.5771 17.9802 25.5656C18.3197 25.485 18.5843 25.3067 18.6878 24.9615C19.0157 24.9558 19.079 24.6682 19.2056 24.4496C19.3264 24.231 19.5335 24.0814 19.5737 23.788C19.5852 23.7132 19.6198 23.6442 19.6888 23.6212C20.0857 23.4544 20.2986 23.1149 20.5114 22.7813C20.7415 22.4246 21.0406 22.1313 21.4548 21.9069C21.6792 21.7919 21.8115 21.5905 21.938 21.4007C22.0933 21.1706 22.1912 20.906 22.3235 20.6644C22.5133 20.3134 22.6629 19.9395 22.7089 19.5253C22.7664 18.9789 22.8412 18.4266 22.8412 18.0182C22.8354 17.9261 22.8584 17.8341 22.8699 17.8226C22.8182 17.8111 23.0368 17.8398 23.1461 17.8226C23.2784 17.8168 23.3589 17.8168 23.4625 17.7881C23.6178 17.7708 23.7213 17.6788 23.7098 17.6845C23.7098 17.6845 23.6696 17.7708 23.7041 17.9549C23.7213 18.0354 23.7444 18.1735 23.7904 18.2713C23.8019 18.3173 23.8536 18.4554 23.8421 18.4209L23.8364 18.4151C23.7904 18.4151 23.6983 18.4439 23.6005 18.4899C23.3992 18.5819 23.1806 18.7257 22.9735 18.8811C22.6628 19.1227 22.3867 19.4276 22.1279 19.744C21.8863 20.0431 21.6907 20.3882 21.4606 20.6989C20.776 21.6193 20.0914 22.557 19.4184 23.5061C19.2573 23.7362 19.1193 23.9836 18.964 24.2137C18.8834 24.3287 18.7971 24.438 18.6993 24.5358C18.3427 24.9097 17.9803 25.2664 17.6466 25.6461C17.1692 26.1869 16.7262 26.7621 16.3465 27.2856C16.243 27.4294 16.1394 27.5732 16.0877 27.6883C16.0531 27.7573 16.0647 27.7803 16.0589 27.8148L16.0647 27.8091C16.0589 27.8033 16.0186 27.7918 15.9956 27.7803C15.9439 27.763 15.8921 27.74 15.8345 27.7285C15.7252 27.694 15.6159 27.671 15.5009 27.6595C15.3628 27.6538 15.3513 27.6192 15.2708 27.6135C15.2018 27.6077 15.1327 27.6077 15.0637 27.625C14.9429 27.625 14.9314 27.6883 14.9601 27.648C14.9774 27.6365 14.9889 27.6307 15.0062 27.6307C15.0349 27.625 15.0062 27.6423 15.0925 27.6192C14.8969 27.6423 14.6668 27.556 14.5747 27.4006C14.4252 27.182 14.3676 26.9692 14.5229 26.8311C14.7415 26.6356 14.707 26.2904 15.0867 26.2501C15.1385 26.2444 15.1558 26.1926 15.1673 26.1523C15.3398 25.3584 15.9496 24.8867 16.4443 24.3575C16.6054 24.1849 16.7204 23.9664 16.8642 23.7765C16.9563 23.65 17.0541 23.5349 17.1634 23.4198C17.3187 23.253 17.497 23.115 17.6293 22.9309C17.7271 22.7928 17.7617 22.6087 18.0781 22.6778C18.1413 22.695 18.1931 22.6145 18.1586 22.5455C18.0378 22.2808 18.1528 22.1945 18.2506 22.0967C18.5153 21.8264 18.7914 21.5733 19.0387 21.2856C19.2171 21.0728 19.3724 20.8369 19.5105 20.5838C19.7233 20.1926 19.8959 19.7727 20.126 19.3873C20.3158 19.0651 20.5574 18.7833 20.776 18.4841C20.8278 18.4151 20.845 18.3115 20.9026 18.2483C21.0061 18.1275 21.0809 17.9606 21.2535 17.9204C21.4433 17.8743 21.5526 17.7996 21.5066 17.5177C21.4836 17.3624 21.5986 17.2703 21.7079 17.207C21.846 17.1265 22.0186 17.092 22.2027 17.0575C22.4213 17.0172 22.6168 17.0057 22.7376 16.7296C22.8067 16.58 23.0253 16.5167 23.3071 16.5052C23.3762 16.5052 23.4567 16.4995 23.566 16.5052C23.6178 16.511 23.6581 16.511 23.7156 16.5167C23.7789 16.5282 23.8422 16.5397 23.9054 16.557C24.1643 16.6145 24.4749 16.8389 24.5957 17.069C24.8373 17.5407 24.7395 17.7708 24.7395 17.9664C24.682 18.3403 24.6187 18.5992 24.5612 18.8753C24.4001 19.6001 24.2103 20.2732 23.963 20.9232C23.8652 21.1763 23.7271 21.4122 23.6005 21.6481C23.1979 22.3786 22.6571 23.0114 22.0818 23.6039C21.9725 23.719 21.846 23.834 21.7827 23.9894C21.6389 24.346 21.3743 24.6106 21.0637 24.8292C20.6897 25.0881 20.4596 25.4735 20.218 25.8532C20.1605 25.9452 20.126 26.0545 20.0397 26.1121C19.4357 26.5032 19.0617 27.1533 18.4577 27.5617C17.9745 27.8953 17.4107 28.1312 16.8297 28.3498C16.6054 28.4361 16.3638 28.5051 16.1107 28.5684C15.846 28.6259 15.5929 28.6835 15.1845 28.6835C15.1385 28.6835 15.0694 28.7065 15.0004 28.7007C14.7013 28.672 14.3964 28.3843 14.4424 28.1772C14.4654 27.9759 14.7185 27.9241 14.8969 27.7343C14.9314 27.6997 14.9774 27.625 14.9774 27.6192C14.9889 27.602 14.9889 27.5905 14.9947 27.5675C15.0234 27.4984 15.0177 27.4524 15.0292 27.3259C15.0349 27.2683 15.0234 27.2166 15.0234 27.1533C15.0234 27.1303 15.0234 27.113 15.0234 27.0957C15.0234 27.067 15.0407 27.044 15.0637 27.044C15.1845 27.021 15.3858 26.975 15.5814 26.9002L15.5527 26.8369Z" fill="#87B1D9"/>
</svg>
