<svg width="37" height="42" viewBox="0 0 37 42" fill="none" xmlns="http://www.w3.org/2000/svg">
<path d="M10.0394 20.6448L8.95791 20.8922L8.41716 21.0188C8.23883 21.059 8.026 21.1108 7.96272 21.1166C7.46224 21.2029 6.96176 21.2834 6.46129 21.3697C6.17941 21.4214 5.89179 21.4732 5.60991 21.525C4.68375 21.7033 3.55623 21.991 3.34913 22.1808C3.33188 22.1981 3.29737 22.2153 3.24559 22.2326C3.19382 22.2441 3.10754 22.2728 3.11329 22.3533C3.11329 22.4339 3.19381 22.4339 3.23983 22.4396L3.42392 22.4627C3.93015 22.5087 4.41337 22.5547 4.95411 22.5892C5.20722 22.6065 5.69044 22.5547 5.79398 22.595C6.06435 22.6985 6.53032 22.7963 7.05956 22.8538C7.32418 22.8826 7.60031 22.8999 7.87643 22.9114H8.30212L8.81409 22.8999C9.84956 23.2163 10.9023 23.153 11.9665 23.1818C13.0307 23.2105 14.1065 23.36 15.1707 23.2853C15.3145 23.2738 15.4641 23.2738 15.6137 23.2796C15.7632 23.2853 16.0336 23.3141 16.2119 23.3486C16.3615 23.3716 16.5111 23.4003 16.6376 23.4521C16.7642 23.5096 16.8965 23.5211 16.9828 23.6477C17.1151 23.872 17.2071 24.1654 17.2762 24.4531L17.4717 25.1606L17.6558 25.7762C17.9089 26.5988 18.1851 27.4157 18.4612 28.2325C19.0537 29.9871 19.5369 31.7761 19.8763 33.5939C20.0777 34.6294 20.3135 35.383 20.5609 36.1883L20.745 36.7636L21.0901 37.7645L21.2569 38.2305L21.3375 38.4663C21.372 38.5296 21.3662 38.662 21.4755 38.6505C21.5791 38.6332 21.5618 38.5066 21.5791 38.4261L21.6251 38.1615L21.7114 37.6265L21.861 36.568C21.953 35.872 22.0163 35.2104 22.0393 34.6697L22.045 34.5374V34.4741L22.0566 34.3647L22.0968 33.9333L22.1831 33.0704L22.3729 31.3389C22.5052 30.1826 22.6491 29.0322 22.7986 27.8759C22.9539 26.7024 23.2416 25.5345 23.4947 24.3668L23.719 23.3141C23.7708 23.0667 23.8399 22.8366 24.0009 22.664C24.1562 22.4972 24.3863 22.3706 24.5992 22.2498L26.2502 21.3466L29.3853 19.6151L30.5531 18.9421L31.3067 18.4991C31.6519 18.2863 31.9798 18.0792 32.2674 17.8893L32.4572 17.7628C32.4802 17.7398 32.532 17.7283 32.5148 17.6822C32.4917 17.6305 32.4227 17.6478 32.3767 17.6478L31.7727 17.6593L30.8005 17.6938L23.5004 17.4809C23.2128 17.4637 22.9712 17.3946 22.7526 17.2566C22.557 17.107 22.3902 16.9057 22.2694 16.6411L21.7229 15.5308L20.8715 13.828L19.1687 10.4282L17.5293 7.24705L17.1323 6.44174L17.0576 6.28641V6.28066C17.0633 6.26915 17.0633 6.2519 17.0576 6.21739C17.0518 6.17712 17.0345 6.11381 17.0115 6.04478C16.977 5.9815 16.9828 6.04481 16.9713 6.07357L16.954 6.22314L16.8677 7.7648L16.5973 12.5164C16.488 14.3112 16.3557 16.106 16.4075 17.9009C16.4133 18.0274 16.4075 18.131 16.3903 18.2115C16.3557 18.3668 16.3327 18.4991 16.304 18.6142C16.1832 18.9881 15.9531 19.2297 15.746 19.3678C15.3203 19.6324 15.0729 19.5691 15.1074 19.5289C15.1189 19.4656 15.4296 19.385 15.7057 18.9996C15.8207 18.8328 15.884 18.6487 15.8955 18.4646C15.9128 18.2057 15.861 18.2575 15.838 18.223L15.6654 18.0907C15.5504 17.9987 15.4411 17.9009 15.3375 17.7916C15.1304 17.5672 14.9464 17.2738 14.8313 16.8366C14.6702 16.2441 14.5494 15.6919 14.6645 14.9728C14.8256 13.9316 14.6645 12.8098 15.0096 11.7974C15.0557 11.6536 15.0557 11.4408 15.0499 11.2682C14.9694 9.71497 15.0154 8.16748 15.1074 6.61428C15.234 4.93453 15.3088 2.24237 15.6712 1.34496C15.7172 1.14362 15.746 0.959528 15.7862 0.758187C15.7977 0.712167 15.8035 0.660393 15.815 0.614373C15.8323 0.562599 15.9128 0.528075 15.9761 0.533828C16.0508 0.539581 16.0624 0.591374 16.0911 0.625889L16.1659 0.740913C16.3787 1.05155 16.5974 1.33345 16.862 1.69586C16.9943 1.87994 17.1438 2.08125 17.2934 2.37463L17.9722 3.81277L18.7546 5.53279C18.9501 5.96999 19.1515 6.40719 19.3643 6.83288C19.6865 7.47717 20.0719 8.06969 20.0949 8.77726C20.1007 8.92682 20.2732 9.26048 20.394 9.35252C20.8485 9.70342 21.0786 10.2499 21.326 10.7964C21.999 12.2576 22.6433 13.7302 23.3394 15.1856L23.5982 15.7149C23.6443 15.7782 23.65 15.899 23.7478 15.899L24.0067 15.9047C24.651 15.9105 25.2895 15.9162 25.928 15.9162L28.695 15.8817L30.0757 15.8645L30.7832 15.8587L31.905 15.8817L33.8436 15.9335C34.1657 15.945 34.5339 15.9393 34.7525 16.0083C34.8791 16.0313 34.9654 16.0715 35.0747 16.106L35.322 16.2154C35.6269 16.3649 35.811 16.4915 35.9951 16.6123C36.0353 16.6525 36.0756 16.6353 36.1216 16.7561C36.1389 16.8079 36.1504 16.8769 36.1446 16.9114C36.1389 16.9459 36.1274 16.9574 36.1216 16.9805L36.0066 17.2681C35.9203 17.4637 35.9088 17.688 35.6787 17.9872C35.5061 18.2633 34.8963 18.5855 34.4189 18.8846C33.9184 19.1895 33.3949 19.4886 32.8829 19.736C32.3364 20.0006 31.7784 20.294 31.6116 20.4033C31.3585 20.5644 31.1341 20.7599 30.9213 21.0188C30.6797 21.3122 30.1907 21.5883 29.7823 21.8011C29.2588 22.0772 28.7123 22.2958 28.1716 22.5144C27.5215 22.7733 26.9117 23.0092 26.3595 23.5384C26.2214 23.6707 25.9798 23.826 25.8245 23.9066C25.7785 23.9353 25.6749 23.9181 25.6289 23.9699C25.6059 23.9929 25.5829 24.0274 25.5599 24.0619C25.5484 24.0907 25.5426 24.0734 25.5254 24.1425L25.4736 24.3208L25.2722 25.0513C25.1457 25.5403 25.0306 26.0292 24.9328 26.524C24.7315 27.5134 24.5704 28.5086 24.4266 29.5096L23.8514 33.5882L23.7133 34.6064L23.4487 36.2804L23.1495 38.15L22.9942 39.1106C22.9425 39.427 22.8964 39.7895 22.8101 39.9908C22.7469 40.1749 22.6778 40.2784 22.6088 40.405C22.5398 40.497 22.4707 40.6006 22.4075 40.6696C22.2751 40.8134 22.1601 40.9112 22.0508 40.9975C21.953 41.0665 21.8495 41.1356 21.7689 41.1816C21.7574 41.1931 21.6769 41.2103 21.5906 41.2161C21.4986 41.2161 21.4698 41.2103 21.4525 41.2046C21.4065 41.1873 21.3605 41.1758 21.303 41.1528C21.1592 41.1011 21.0038 41.0492 20.791 40.9054C20.5954 40.7559 20.3308 40.6063 20.1064 40.0081L19.0134 36.4185L18.2771 33.9219L17.2071 30.1481C17.0288 29.5153 16.8562 28.8653 16.6204 28.267C16.3442 27.5652 16.1026 26.8577 15.8898 26.1444L15.7345 25.6093L15.6597 25.339C15.6482 25.2872 15.6539 25.3045 15.6539 25.2872C15.6539 25.2412 15.6654 25.1606 15.6022 25.1549L15.5561 25.1319L15.5274 25.1204L15.3721 25.1031L14.7048 25.0283C14.256 24.9823 13.8131 24.9478 13.3644 24.919C12.467 24.8615 11.5753 24.827 10.6779 24.7982C10.258 24.7867 9.83806 24.7982 9.42962 24.7464L8.35965 24.6141L6.57634 24.4415L2.35969 24.0849L1.81896 24.0446C1.64638 24.0274 1.42778 24.0216 1.32423 23.9871L1.1344 23.9411L0.996329 23.8836C0.892783 23.849 0.817997 23.8088 0.760471 23.7685C0.484347 23.6075 0.357799 23.4521 0.2485 23.3198C0.185222 23.245 0.167957 23.1933 0.133442 23.13C0.098926 23.0667 0.0701659 23.0092 0.0644133 22.9632L0.024141 22.8136C0.0126358 22.7791 -0.00460931 22.6065 0.00114328 22.5547C0.00114328 22.5202 0.00688954 22.4972 0.0126421 22.4684C0.0356525 22.3189 0.0759234 22.152 0.231243 21.9161C0.260006 21.8644 0.306021 21.8011 0.3693 21.7321C0.426825 21.6631 0.47285 21.6055 0.570644 21.525C0.65118 21.4502 0.737468 21.3754 0.87553 21.3006C0.933056 21.2604 0.996337 21.2201 1.09413 21.1856C1.18042 21.1454 1.26095 21.105 1.39326 21.0705L5.05765 20.0523L6.78919 19.5749L7.6003 19.3505L8.06626 19.2355C9.8093 18.8156 11.5466 18.3956 13.2896 17.9756C13.4047 17.9469 13.514 17.8894 13.629 17.8664C14.6242 17.642 15.0326 17.8721 14.722 18.5107C14.4459 19.0744 13.8821 19.5288 13.002 19.7877C12.0298 20.0753 11.0461 20.3342 10.0682 20.5989L10.0394 20.6448Z" fill="#87B1D9"/>
</svg>
