<svg width="40" height="38" viewBox="0 0 40 38" fill="none" xmlns="http://www.w3.org/2000/svg">
<path d="M10.2785 20.3366C1.5978 21.792 0.786654 25.3011 1.40218 26.5839C2.31109 28.4823 10.8192 29.2359 17.3426 25.7844L22.3589 19.7959" fill="#F1D1D5"/>
<path d="M8.89147 21.4465C8.44852 21.435 8.01131 21.4637 7.5511 21.412C7.14842 21.3832 6.73425 21.3544 6.4121 21.6248C6.32582 21.6938 6.21651 21.6938 6.11872 21.7341C5.94039 21.8089 5.76207 21.8722 5.58949 21.9585C5.50895 21.9987 5.46293 22.1195 5.37665 22.1195C4.95671 22.1368 4.55978 22.2633 4.30091 22.6085C3.93275 22.5797 3.72564 22.8501 3.53005 23.0917C3.32296 23.3161 3.04108 23.4656 2.95479 23.7935C2.93178 23.8798 2.87428 23.9431 2.7995 23.9776C2.3623 24.1847 2.09766 24.6046 1.98836 25.0188C1.86756 25.456 1.7295 25.8529 1.67198 26.3016C1.66623 26.3419 1.66623 26.388 1.67198 26.4282C1.70649 26.6411 1.86182 26.7849 2.04015 26.9114C2.31052 27.0955 2.64992 27.1818 2.97207 27.2738C3.44953 27.4177 3.95575 27.4694 4.46773 27.4004C5.14653 27.3026 5.81959 27.2048 6.48689 27.1128C6.82629 27.0668 7.16571 27.1415 7.50511 27.1703C8.18967 27.2278 8.88572 27.2968 9.58178 27.2681C10.1053 27.2393 10.623 27.153 11.1292 27.0207C11.6009 26.9057 12.0554 26.7101 12.5156 26.5605C13.8732 26.1061 15.1848 25.5423 16.3756 24.8232L16.4849 24.7542C16.5079 24.7369 16.4964 24.737 16.5021 24.7312C16.5079 24.7197 16.5022 24.7082 16.4964 24.6967L16.4906 24.6794C16.4906 24.6737 16.4849 24.6737 16.4906 24.6679L16.5252 24.6104L16.6747 24.3861C16.7783 24.2365 16.8933 24.0984 17.0141 23.9661C17.4628 23.4714 17.923 22.9939 18.3602 22.4877L20.2125 20.3132C20.5692 19.9048 20.9431 19.5136 21.1675 19.0016C21.2308 18.8578 21.3631 18.9038 21.5356 19.1224C21.8405 19.5021 22.1742 19.8818 22.226 20.2672C22.2605 20.5261 22.272 20.7447 22.0764 20.8655C21.7945 21.0438 21.7542 21.4407 21.3286 21.4925C21.271 21.4982 21.2365 21.5558 21.2193 21.6076C20.8741 22.528 20.1378 23.132 19.5107 23.828C19.3037 24.0524 19.1483 24.3228 18.9642 24.5644C18.8434 24.7197 18.7169 24.875 18.5846 25.0246C18.3948 25.2374 18.1704 25.4273 18.0036 25.6631C17.9403 25.7552 17.9 25.8415 17.7965 25.9507C17.7044 26.0485 17.5836 26.1233 17.388 26.0428C17.3133 26.014 17.204 26.0831 17.1982 26.1636C17.1752 26.4685 16.9969 26.5318 16.83 26.595C16.3698 26.7849 15.8981 26.9402 15.4379 27.1185C15.0985 27.2509 14.7649 27.4119 14.437 27.5845C13.925 27.8491 13.4187 28.154 12.878 28.3784C12.4293 28.5624 11.9576 28.6832 11.4859 28.8155C11.3766 28.8443 11.2788 28.9191 11.1695 28.9479C10.9682 28.9939 10.7611 29.0859 10.5597 29.0226C10.3296 28.9536 10.1685 28.9479 9.99595 29.2067C9.89816 29.3505 9.71983 29.3563 9.57027 29.3448C9.38043 29.3333 9.1906 29.2642 9.00077 29.1895C8.77642 29.0974 8.56931 29.0054 8.34496 29.1895C8.22416 29.2873 8.04585 29.2412 7.90204 29.1837C7.2635 28.9191 6.64795 28.9363 6.00366 28.9766C5.13502 29.0226 4.24913 29.0744 3.31721 28.9651C2.9548 28.9248 2.58664 28.8155 2.21272 28.6947C1.89058 28.5797 1.56842 28.4474 1.22326 28.2115C1.13697 28.154 1.05646 28.1022 0.964422 28.0217C0.872381 27.9411 0.757329 27.8549 0.676793 27.7571C0.498463 27.5672 0.360395 27.3486 0.239591 27.1185C-0.117069 26.2614 -0.0192724 25.5308 0.170563 24.898C0.268357 24.6334 0.371898 24.3745 0.452434 24.1214C0.607754 23.5059 1.01618 23.0572 1.44762 22.7063C1.71799 22.5107 1.95386 22.2979 2.18397 22.0793C2.41982 21.8837 2.63839 21.6421 2.87425 21.4407C2.98355 21.3487 3.08136 21.2279 3.21367 21.1704C3.66812 20.9633 4.08806 20.7619 4.508 20.5203C4.92794 20.3075 5.35363 20.0946 5.80233 19.9566C6.16474 19.8645 6.5329 19.7955 6.90682 19.738C7.27498 19.6862 7.6489 19.6689 8.01706 19.6344C8.58082 19.5711 9.15033 19.6114 9.71408 19.6057C9.7486 19.6057 9.78311 19.5769 9.82338 19.5769C10.1455 19.5884 10.2951 19.9105 10.2376 20.4455C10.1916 20.923 10.042 21.2221 9.77735 21.2624C9.48397 21.3084 9.18484 21.3257 8.88571 21.3544L8.89147 21.4465Z" fill="#F8AFB8"/>
<path d="M23.4906 18.4491C26.6718 18.288 32.8214 12.3571 37.3141 17.0167C39.5979 19.381 38.3093 24.5008 35.6574 26.8996C32.1713 30.0578 25.1244 29.5803 19.9873 24.2247" fill="#F1D1D5"/>
<path d="M24.9935 17.1953C25.494 17.1206 26.0002 16.971 26.5352 16.902C27.0126 16.8387 27.4901 16.7754 27.8525 16.4302C27.9446 16.3382 28.0826 16.321 28.1977 16.2634C28.4105 16.1656 28.6291 16.0736 28.8362 15.9643C28.934 15.9183 28.9973 15.7859 29.1066 15.7744C29.6243 15.7342 30.0845 15.6076 30.5102 15.297C30.9417 15.389 31.2638 15.1474 31.6377 14.9979C32.0116 14.854 32.4201 14.8425 32.8113 14.6527C32.9148 14.6009 33.0413 14.5837 33.1506 14.6067C33.8179 14.785 34.468 14.8023 35.141 14.9691C35.8544 15.1417 36.4929 15.5789 36.9013 16.1714C37.0164 16.3267 37.1372 16.4648 37.258 16.6086C37.3846 16.7466 37.5226 16.8674 37.6377 17.0227C37.7815 17.1953 37.9426 17.3622 38.0634 17.5578C38.1957 17.7418 38.328 17.9374 38.4085 18.1503C38.6961 18.7543 38.8572 19.3871 39.047 20.0429C39.2944 20.923 39.3519 21.8722 39.2254 22.7868C39.1563 23.2528 38.9493 23.69 38.7364 24.1042C38.3165 24.9441 37.77 25.7034 37.1717 26.4167C36.7115 26.946 36.234 27.4752 35.676 27.9239C35.1641 28.3496 34.6233 28.7638 34.0193 29.0572C33.8007 29.178 33.5706 29.2758 33.3405 29.3563C33.1104 29.4426 32.8803 29.5404 32.6387 29.6094C32.1612 29.7302 31.6838 29.874 31.1948 29.9315C30.2226 30.1099 29.2389 30.0869 28.2552 30.0408C27.795 29.9776 27.3118 29.9718 26.8516 29.8856C26.6215 29.8395 26.3914 29.7763 26.167 29.7072C25.3387 29.4369 24.5505 29.0744 23.7854 28.6775C22.6925 28.108 21.6397 27.4637 20.7136 26.6698C20.1671 26.2384 19.7069 25.7322 19.1086 25.3583C18.936 25.2547 18.9878 25.1224 19.2351 24.9786C19.6666 24.7312 20.0923 24.4494 20.5122 24.4551C20.7941 24.4609 21.03 24.4781 21.1623 24.7082C21.3579 25.0361 21.8065 25.0879 21.9043 25.5481C21.9158 25.6114 21.9849 25.6516 22.0424 25.6747C23.1009 26.0486 23.889 26.7734 24.8612 27.2509C25.0165 27.3314 25.1776 27.3947 25.3444 27.4579L25.8506 27.6075C26.0692 27.6765 26.2763 27.7628 26.4892 27.8319C26.7998 27.9297 27.1104 28.062 27.4326 28.1253C27.6799 28.1598 27.9273 28.108 28.0999 28.4301C28.1344 28.4992 28.2725 28.5049 28.3242 28.4474C28.5371 28.2288 28.7327 28.2576 28.934 28.2921C29.4748 28.3841 30.027 28.4129 30.5735 28.4014C30.9762 28.3496 31.3788 28.3036 31.7528 28.1425C32.0461 28.0332 32.3338 27.9239 32.5984 27.7628C32.8688 27.619 33.1276 27.4752 33.3692 27.3026C33.5763 27.1703 33.7892 27.061 33.979 26.9057C34.1688 26.7619 34.3817 26.6468 34.537 26.4685C34.6118 26.3937 34.6636 26.2844 34.7441 26.2154C34.8994 26.0946 34.9915 25.899 35.1871 25.83C35.4114 25.7609 35.5322 25.6344 35.4747 25.341C35.4402 25.1799 35.561 25.0591 35.653 24.9556C35.7738 24.8233 35.9637 24.737 36.1248 24.6219C36.3203 24.4896 36.5389 24.3688 36.4872 24.0697C36.4584 23.9143 36.585 23.782 36.7058 23.6785C37.2177 23.2068 37.4306 22.5452 37.4824 21.8894C37.5571 21.0035 37.4536 20.1176 37.189 19.3928C37.1314 19.2547 37.0797 19.1167 37.0394 18.9786C36.9761 18.8521 36.9186 18.7313 36.8668 18.6047C36.8151 18.5127 36.7518 18.4379 36.7058 18.3459C36.6597 18.2538 36.6022 18.179 36.5332 18.11C36.4641 18.0352 36.4296 17.9604 36.3434 17.8741L36.0902 17.6153C35.7451 17.2874 35.3769 16.994 34.9742 16.7696C34.8189 16.6833 34.6521 16.5913 34.4622 16.5971C34.0366 16.6028 33.6569 16.5223 33.2254 16.436C32.7019 16.3382 32.1554 16.5165 31.6435 16.7524C31.5227 16.8099 31.4076 16.8962 31.281 16.9134C30.3606 17.04 29.5611 17.6325 28.6464 18.0007C27.8986 18.2998 27.0989 18.5414 26.2591 18.783C25.609 18.9614 24.9302 19.1225 24.1651 19.1685C24.1133 19.1685 24.0673 19.203 24.0155 19.203C23.5438 19.1915 23.4288 18.8521 23.5668 18.3171C23.6819 17.8454 23.8027 17.5635 24.0731 17.5002C24.3722 17.4369 24.7001 17.3564 25.028 17.2586L24.9935 17.1953Z" fill="#F8AFB8"/>
<path d="M15.737 27.6715C13.0275 34.1432 17.6296 36.5363 18.3142 36.6283C20.2873 36.8929 26.0801 33.6025 21.4436 23.6562" fill="#F1D1D5"/>
<path d="M16.1282 28.9949C15.9269 29.2423 15.7946 29.5127 15.5587 29.7716C15.3344 29.9959 15.179 30.249 15.2941 30.5424C15.3286 30.6172 15.2768 30.692 15.2711 30.761C15.2481 30.8933 15.2481 31.0314 15.2653 31.1637C15.2711 31.2269 15.3689 31.2902 15.3344 31.3478C15.2538 31.4858 15.202 31.6239 15.1905 31.7677C15.1963 31.9057 15.248 32.0438 15.3516 32.1704C15.1503 32.4177 15.3401 32.6133 15.4724 32.7974C15.5932 32.9873 15.5875 33.2173 15.8348 33.3439C15.8981 33.3784 15.9326 33.4302 15.9269 33.4877C15.8923 33.6775 15.9441 33.8444 16.0304 33.9882C16.111 34.1378 16.2087 34.2758 16.3353 34.3909C16.5769 34.6555 16.7553 34.9604 16.8876 35.3573C16.9566 35.5759 17.1291 35.7082 17.296 35.829C17.4973 35.9728 17.7389 36.0534 17.9575 36.1397C18.1244 36.2087 18.2624 36.2432 18.4062 36.2259C18.5443 36.1799 18.6766 36.1569 18.8204 36.0361C19.1828 35.7888 19.4877 35.4493 19.7753 35.179C19.9076 35.0064 20.1263 34.9719 20.3046 34.8626C20.667 34.6555 21.0467 34.4139 21.3458 34.0745C21.4494 33.9422 21.5414 33.8041 21.6334 33.6603C21.7255 33.5165 21.76 33.3439 21.8233 33.1886C21.9441 32.8952 21.9326 32.5558 21.9843 32.2509C22.0994 31.3248 22.0764 30.3756 21.8463 29.4379C21.7945 29.2135 21.714 28.995 21.6564 28.7706C21.6162 28.6613 21.5874 28.5462 21.5701 28.4312C21.4896 28.0055 21.4839 27.5683 21.3458 27.1426C21.156 26.5328 20.9891 25.9231 20.7303 25.3248C20.598 24.9854 20.4887 24.6288 20.2068 24.3526C20.1262 24.2778 20.2298 24.1915 20.5002 24.111C20.9604 23.9729 21.4321 23.8119 21.7657 23.8694C21.9901 23.9097 22.1742 23.9615 22.1684 24.134C22.1627 24.3871 22.4618 24.531 22.2835 24.8473C22.2605 24.8934 22.2892 24.9279 22.318 24.9566C22.6114 25.204 22.7494 25.5204 22.8472 25.854C22.945 26.1819 23.0025 26.5271 23.0888 26.8607C23.1464 27.0793 23.2269 27.2922 23.2959 27.505C23.3362 27.6489 23.3707 27.7927 23.3937 27.9365C23.4282 28.1493 23.434 28.3622 23.4915 28.5692C23.526 28.7246 23.6353 28.8742 23.365 29.0525C23.3075 29.087 23.3304 29.1675 23.4052 29.1905C23.6756 29.2768 23.6641 29.4149 23.6698 29.5472C23.7044 29.9096 23.6296 30.2778 23.6353 30.6402C23.6296 30.9106 23.6813 31.1809 23.6928 31.4571C23.7216 31.8885 23.8424 32.3487 23.7791 32.8032C23.7504 33.1828 23.6641 33.5567 23.526 33.9249C23.4973 34.0112 23.5145 34.1148 23.48 34.2011C23.4225 34.3564 23.4052 34.5519 23.2326 34.6382C23.0486 34.736 22.9623 34.8338 23.0658 35.0985C23.1234 35.248 23.0313 35.3688 22.945 35.4551C22.8185 35.5587 22.6516 35.6219 22.4848 35.6737C22.2835 35.737 22.1109 35.7887 22.0936 36.0419C22.0821 36.1799 21.9326 36.2317 21.806 36.2605C21.5241 36.3295 21.294 36.4388 21.0697 36.5538C20.8511 36.6804 20.6555 36.8415 20.4311 36.9795C20.1493 37.1924 19.8214 37.365 19.482 37.5375C19.2979 37.6066 19.1023 37.6698 18.9067 37.7331C18.7054 37.7906 18.4523 37.8022 18.1704 37.8194H18.1589C17.9518 37.7964 17.7217 37.7561 17.5376 37.6814C17.3593 37.6238 17.2327 37.5605 17.0889 37.4915C16.2318 37.0888 15.6105 36.4273 15.1273 35.6852C15.0352 35.5356 14.9547 35.3803 14.8166 35.2653C14.6498 35.1387 14.5463 34.9661 14.4485 34.7878C14.3507 34.6152 14.2874 34.4196 14.2586 34.2183C14.1551 33.7466 13.9537 33.3381 13.7409 32.8894C13.6891 32.7859 13.6316 32.6881 13.6316 32.5731C13.6546 32.1876 13.5683 31.8195 13.5568 31.4513C13.5223 31.0831 13.4763 30.7035 13.5625 30.3468C13.6258 30.0592 13.6891 29.7658 13.8099 29.5069L14.1838 28.7303C14.3679 28.3334 14.6555 27.9998 14.8856 27.6489C14.9029 27.6258 14.8914 27.5913 14.9087 27.5683C15.0582 27.3727 15.3976 27.4417 15.8406 27.7409C16.2318 28.0055 16.4388 28.2299 16.3641 28.3967C16.2835 28.5865 16.1742 28.7649 16.0764 28.9489L16.1282 28.9949Z" fill="#F8AFB8"/>
<path d="M21.7303 19.8414C18.0832 17.9603 26.1138 9.06106 23.7725 5.6958C17.5827 -3.1977 8.07941 2.38233 6.03724 8.51458C4.38625 13.4618 7.23954 21.061 13.9931 24.2249" fill="#F1D1D5"/>
<path d="M19.9586 17.6559C20.1599 16.8621 20.4533 16.189 20.8387 15.5793C21.1839 15.0385 21.5463 14.5438 21.6441 13.9052C21.6671 13.7384 21.7707 13.5946 21.8397 13.4393C21.9605 13.1574 22.087 12.8813 22.1906 12.5937C22.2366 12.4613 22.2078 12.2945 22.2884 12.1852C22.6853 11.6732 22.973 11.1037 23.0362 10.4594C23.4101 10.0798 23.4331 9.56778 23.4907 9.09032C23.554 8.61285 23.715 8.14114 23.5827 7.68093C23.5597 7.56012 23.5309 7.43356 23.5712 7.31851C23.6633 6.97911 23.6575 6.62247 23.5309 6.33484C23.5079 6.25431 23.4677 6.191 23.4274 6.12772C23.3814 6.05869 23.3584 6.00117 23.2836 5.92064L22.9097 5.47196C22.3632 4.84492 21.8684 4.19486 21.3622 3.5103C21.2357 3.32047 21.0746 3.15365 20.8905 3.01559C20.7122 2.87178 20.5281 2.72795 20.3325 2.6129C20.1024 2.46909 19.8665 2.3368 19.6077 2.23901C19.3603 2.12971 19.1072 2.03191 18.8541 1.94562C18.1235 1.681 17.3412 1.56019 16.5818 1.65799C15.5636 1.79605 14.6144 2.08366 13.7228 2.46909C13.2741 2.67618 12.7794 2.78549 12.3076 2.98108C11.37 3.36075 10.4438 3.85548 9.6442 4.53428C9.04017 5.03476 8.52819 5.64453 8.09675 6.29457C7.69407 6.90435 7.41796 7.5774 7.18211 8.23895C6.46879 10.1718 6.64134 12.3635 7.26262 14.3597C7.33165 14.6013 7.44672 14.8314 7.53876 15.0673C7.63081 15.3031 7.73434 15.5332 7.85515 15.7576C7.9702 15.9819 8.06225 16.2178 8.15429 16.4536C8.55122 17.2993 8.95964 18.1564 9.53489 18.9042C10.3288 19.9915 11.3009 20.9464 12.3767 21.7575C12.6873 21.9761 13.0095 22.189 13.3316 22.3961C13.6595 22.5859 14.0219 22.724 14.3901 22.8333C14.5972 22.8908 14.6029 23.0403 14.4131 23.2532C14.0852 23.6213 13.763 24.0125 13.2683 24.0758C12.9404 24.1103 12.6125 24.1391 12.3594 23.8802C12.0028 23.5063 11.3987 23.4315 11.1916 22.8793C11.1629 22.8045 11.0766 22.7527 11.0018 22.7124C9.62693 22.0509 8.66627 20.8198 7.86091 19.5773L7.02678 18.375C6.87146 18.0989 6.72763 17.817 6.58382 17.5294C6.36522 17.1209 6.26744 16.6607 6.06035 16.2523C5.91078 15.9417 5.7382 15.6368 5.91077 15.2571C5.94529 15.1766 5.87625 15.0097 5.79571 14.9695C5.47932 14.8027 5.44483 14.5093 5.3873 14.2274C5.29526 13.8477 5.26648 13.4565 5.22621 13.0711C5.16869 12.6857 5.17444 12.2945 5.15143 11.9033C5.12266 11.6157 5.12842 11.3281 5.12267 11.0347C5.12267 10.7413 5.08815 10.4479 5.11691 10.1545L5.13991 9.46425C5.14566 9.23415 5.19169 9.00403 5.22046 8.76818C5.27223 8.29646 5.37579 7.83624 5.52536 7.38754C5.77272 6.63395 6.1524 5.93789 6.57233 5.27059C6.66438 5.10952 6.73338 4.94272 6.83693 4.79315C7.02677 4.51703 7.21661 4.21214 7.49273 4.03381C7.80913 3.84973 7.99897 3.6714 8.07375 3.28022C8.11977 3.06162 8.33836 2.86603 8.53395 2.73372C8.78706 2.56114 9.06894 2.43458 9.36232 2.33103C9.70748 2.19872 10.0354 2.11244 10.2597 1.76153C10.3805 1.56594 10.6624 1.47964 10.8925 1.42211C11.9165 1.1805 12.8311 0.789349 13.8206 0.472957C15.1552 0.0587711 16.6278 -0.131078 18.0947 0.0990251C18.67 0.185314 19.228 0.369412 19.7688 0.582258C20.6029 0.927413 21.3737 1.3991 22.0525 1.96286C22.7198 2.53812 23.3296 3.15941 23.8358 3.84396C24.0487 4.10283 24.2328 4.39045 24.4629 4.62055L24.6642 4.82767C24.7332 4.90821 24.785 4.94272 24.8655 5.07503C25.0209 5.30513 25.1589 5.54674 25.2394 5.79986C25.4235 6.30608 25.4466 6.80078 25.4121 7.24948C25.3028 8.31947 25.1532 9.22837 24.9748 10.1258C24.9288 10.3329 24.9173 10.5572 24.8253 10.7355C24.2097 12.0241 23.8473 13.3473 23.2893 14.538C22.8406 15.493 22.3171 16.4018 22.0007 17.282C21.7534 17.9666 21.6383 18.5591 21.8109 18.8985C21.8282 18.9215 21.8627 18.9272 21.88 18.9503C22.0008 19.1458 22.0295 19.5485 21.5866 19.8879C21.3852 20.0202 21.1321 20.1123 20.8963 20.0432C20.6431 19.9915 20.413 19.8016 20.252 19.514C19.9298 18.8582 19.9586 18.2082 20.0334 17.6674L19.9586 17.6559Z" fill="#F8AFB8"/>
<path d="M14.792 27.7977C15.2349 28.3269 18.0594 26.4171 20.4007 23.7651C22.7765 21.0844 24.416 17.8918 23.8235 17.5063C23.2368 17.1267 20.8724 19.8476 18.5541 22.5226C16.2761 25.1515 14.395 27.3202 14.792 27.7977Z" fill="#F8AFB8"/>
<path d="M15.5524 26.8371C15.8688 26.7968 16.191 26.6876 16.5534 26.6358C16.8755 26.5898 17.2034 26.5265 17.3472 26.2101C17.3817 26.1296 17.4738 26.1065 17.5371 26.049C17.6521 25.9512 17.7672 25.8592 17.8707 25.7499C17.9167 25.6981 17.911 25.5773 17.98 25.5658C18.3194 25.4853 18.5841 25.3069 18.6876 24.9618C19.0155 24.956 19.0788 24.6684 19.2053 24.4498C19.3261 24.2312 19.5332 24.0816 19.5735 23.7882C19.585 23.7135 19.6195 23.6444 19.6885 23.6214C20.0855 23.4546 20.2983 23.1152 20.5112 22.7815C20.7413 22.4249 21.0404 22.1315 21.4546 21.9072C21.6789 21.7921 21.8112 21.5908 21.9378 21.4009C22.0931 21.1708 22.1909 20.9062 22.3232 20.6646C22.5131 20.3137 22.6626 19.9398 22.7086 19.5256C22.7662 18.9791 22.8409 18.4269 22.8409 18.0184C22.8352 17.9264 22.8582 17.8343 22.8697 17.8228C22.8179 17.8113 23.0366 17.8401 23.1459 17.8228C23.2782 17.8171 23.3587 17.8171 23.4622 17.7883C23.6176 17.771 23.7211 17.679 23.7096 17.6848C23.7096 17.6848 23.6693 17.771 23.7038 17.9551C23.7211 18.0357 23.7441 18.1737 23.7901 18.2715C23.8016 18.3176 23.8534 18.4556 23.8419 18.4211L23.8361 18.4153C23.7901 18.4153 23.6981 18.4441 23.6003 18.4901C23.399 18.5822 23.1803 18.726 22.9732 18.8813C22.6626 19.1229 22.3865 19.4278 22.1276 19.7442C21.886 20.0433 21.6905 20.3885 21.4603 20.6991C20.7758 21.6195 20.0912 22.5572 19.4182 23.5064C19.2571 23.7365 19.119 23.9838 18.9637 24.2139C18.8832 24.329 18.7969 24.4383 18.6991 24.5361C18.3424 24.91 17.98 25.2667 17.6464 25.6464C17.1689 26.1871 16.726 26.7623 16.3463 27.2858C16.2427 27.4296 16.1392 27.5735 16.0874 27.6885C16.0529 27.7575 16.0644 27.7805 16.0587 27.8151L16.0644 27.8093C16.0587 27.8035 16.0184 27.792 15.9954 27.7805C15.9436 27.7633 15.8918 27.7403 15.8343 27.7288C15.725 27.6943 15.6157 27.6713 15.5006 27.6598C15.3626 27.654 15.3511 27.6195 15.2706 27.6137C15.2015 27.608 15.1325 27.608 15.0634 27.6252C14.9426 27.6252 14.9311 27.6885 14.9599 27.6482C14.9772 27.6367 14.9887 27.631 15.0059 27.631C15.0347 27.6252 15.0059 27.6425 15.0922 27.6195C14.8966 27.6425 14.6665 27.5562 14.5745 27.4009C14.4249 27.1823 14.3674 26.9694 14.5227 26.8314C14.7413 26.6358 14.7068 26.2906 15.0865 26.2504C15.1382 26.2446 15.1555 26.1928 15.167 26.1525C15.3396 25.3587 15.9494 24.887 16.4441 24.3577C16.6051 24.1852 16.7202 23.9666 16.864 23.7768C16.956 23.6502 17.0538 23.5351 17.1631 23.4201C17.3185 23.2532 17.4968 23.1152 17.6291 22.9311C17.7269 22.7931 17.7614 22.609 18.0778 22.678C18.1411 22.6953 18.1928 22.6147 18.1583 22.5457C18.0375 22.2811 18.1526 22.1948 18.2504 22.097C18.515 21.8266 18.7911 21.5735 19.0385 21.2859C19.2168 21.073 19.3721 20.8372 19.5102 20.584C19.7231 20.1929 19.8956 19.773 20.1257 19.3875C20.3156 19.0654 20.5572 18.7835 20.7758 18.4844C20.8276 18.4153 20.8448 18.3118 20.9023 18.2485C21.0059 18.1277 21.0806 17.9609 21.2532 17.9206C21.4431 17.8746 21.5524 17.7998 21.5063 17.5179C21.4833 17.3626 21.5984 17.2706 21.7077 17.2073C21.8458 17.1267 22.0183 17.0922 22.2024 17.0577C22.421 17.0174 22.6166 17.006 22.7374 16.7298C22.8064 16.5803 23.025 16.517 23.3069 16.5055C23.3759 16.5055 23.4565 16.4997 23.5658 16.5055C23.6176 16.5112 23.6578 16.5112 23.7154 16.517C23.7786 16.5285 23.8419 16.54 23.9052 16.5572C24.1641 16.6148 24.4747 16.8391 24.5955 17.0692C24.8371 17.5409 24.7393 17.771 24.7393 17.9666C24.6818 18.3405 24.6185 18.5994 24.561 18.8755C24.3999 19.6004 24.2101 20.2734 23.9627 20.9235C23.8649 21.1766 23.7268 21.4124 23.6003 21.6483C23.1976 22.3789 22.6569 23.0116 22.0816 23.6042C21.9723 23.7192 21.8458 23.8343 21.7825 23.9896C21.6387 24.3463 21.3741 24.6109 21.0634 24.8295C20.6895 25.0883 20.4594 25.4738 20.2178 25.8534C20.1602 25.9455 20.1257 26.0548 20.0394 26.1123C19.4354 26.5035 19.0615 27.1535 18.4575 27.5619C17.9743 27.8956 17.4105 28.1314 16.8295 28.35C16.6051 28.4363 16.3635 28.5054 16.1104 28.5686C15.8458 28.6262 15.5927 28.6837 15.1843 28.6837C15.1382 28.6837 15.0692 28.7067 15.0002 28.701C14.701 28.6722 14.3962 28.3846 14.4422 28.1775C14.4652 27.9761 14.7183 27.9243 14.8966 27.7345C14.9311 27.7 14.9772 27.6252 14.9772 27.6195C14.9887 27.6022 14.9887 27.5907 14.9944 27.5677C15.0232 27.4987 15.0174 27.4527 15.0289 27.3261C15.0347 27.2686 15.0232 27.2168 15.0232 27.1535C15.0232 27.1305 15.0232 27.1132 15.0232 27.096C15.0232 27.0672 15.0404 27.0442 15.0634 27.0442C15.1842 27.0212 15.3856 26.9752 15.5812 26.9004L15.5524 26.8371Z" fill="#F8AFB8"/>
</svg>
