<svg width="37" height="42" viewBox="0 0 37 42" fill="none" xmlns="http://www.w3.org/2000/svg">
<path d="M10.0394 20.6429L8.95791 20.8903L8.41716 21.0168C8.23883 21.0571 8.026 21.1089 7.96272 21.1146C7.46224 21.2009 6.96176 21.2814 6.46129 21.3677C6.17941 21.4195 5.89179 21.4713 5.60991 21.5231C4.68375 21.7014 3.55623 21.989 3.34913 22.1789C3.33188 22.1961 3.29737 22.2134 3.24559 22.2306C3.19382 22.2421 3.10754 22.2709 3.11329 22.3514C3.11329 22.4319 3.19381 22.4319 3.23983 22.4377L3.42392 22.4607C3.93015 22.5068 4.41337 22.5528 4.95411 22.5873C5.20722 22.6045 5.69044 22.5528 5.79398 22.593C6.06435 22.6966 6.53032 22.7943 7.05956 22.8519C7.32418 22.8806 7.60031 22.8979 7.87643 22.9094H8.30212L8.81409 22.8979C9.84956 23.2143 10.9023 23.151 11.9665 23.1798C13.0307 23.2086 14.1065 23.3581 15.1707 23.2833C15.3145 23.2718 15.4641 23.2719 15.6137 23.2776C15.7632 23.2834 16.0336 23.3121 16.2119 23.3466C16.3615 23.3697 16.5111 23.3984 16.6376 23.4502C16.7642 23.5077 16.8965 23.5192 16.9828 23.6457C17.1151 23.8701 17.2071 24.1635 17.2762 24.4511L17.4717 25.1587L17.6558 25.7742C17.9089 26.5968 18.1851 27.4137 18.4612 28.2306C19.0537 29.9851 19.5369 31.7742 19.8763 33.592C20.0777 34.6274 20.3135 35.381 20.5609 36.1864L20.745 36.7616L21.0901 37.7626L21.2569 38.2286L21.3375 38.4644C21.372 38.5277 21.3662 38.66 21.4755 38.6485C21.5791 38.6313 21.5618 38.5047 21.5791 38.4242L21.6251 38.1596L21.7114 37.6245L21.861 36.5661C21.953 35.87 22.0163 35.2084 22.0393 34.6677L22.045 34.5354V34.4721L22.0566 34.3628L22.0968 33.9314L22.1831 33.0685L22.3729 31.3369C22.5052 30.1807 22.6491 29.0302 22.7986 27.8739C22.9539 26.7004 23.2416 25.5326 23.4947 24.3648L23.719 23.3121C23.7708 23.0647 23.8399 22.8346 24.0009 22.6621C24.1562 22.4952 24.3863 22.3687 24.5992 22.2479L26.2502 21.3447L29.3853 19.6132L30.5531 18.9401L31.3067 18.4972C31.6519 18.2843 31.9798 18.0772 32.2674 17.8874L32.4572 17.7608C32.4802 17.7378 32.532 17.7263 32.5148 17.6803C32.4917 17.6285 32.4227 17.6458 32.3767 17.6458L31.7727 17.6573L30.8005 17.6918L23.5004 17.479C23.2128 17.4617 22.9712 17.3927 22.7526 17.2546C22.557 17.105 22.3902 16.9037 22.2694 16.6391L21.7229 15.5288L20.8715 13.8261L19.1687 10.4263L17.5293 7.2451L17.1323 6.43979L17.0576 6.28446V6.2787C17.0633 6.2672 17.0633 6.24995 17.0576 6.21543C17.0518 6.17516 17.0345 6.11186 17.0115 6.04283C16.977 5.97955 16.9828 6.04285 16.9713 6.07162L16.954 6.22119L16.8677 7.76284L16.5973 12.5145C16.488 14.3093 16.3557 16.1041 16.4075 17.8989C16.4133 18.0255 16.4075 18.129 16.3903 18.2096C16.3557 18.3649 16.3327 18.4972 16.304 18.6122C16.1832 18.9861 15.9531 19.2278 15.746 19.3658C15.3203 19.6305 15.0729 19.5672 15.1074 19.5269C15.1189 19.4636 15.4296 19.3831 15.7057 18.9977C15.8207 18.8308 15.884 18.6467 15.8955 18.4626C15.9128 18.2038 15.861 18.2556 15.838 18.2211L15.6654 18.0888C15.5504 17.9967 15.4411 17.8989 15.3375 17.7896C15.1304 17.5653 14.9464 17.2719 14.8313 16.8347C14.6702 16.2422 14.5494 15.6899 14.6645 14.9709C14.8256 13.9296 14.6645 12.8079 15.0096 11.7954C15.0557 11.6516 15.0557 11.4388 15.0499 11.2662C14.9694 9.71302 15.0154 8.16552 15.1074 6.61233C15.234 4.93257 15.3088 2.24041 15.6712 1.34301C15.7172 1.14167 15.746 0.957575 15.7862 0.756234C15.7977 0.710213 15.8035 0.65844 15.815 0.61242C15.8323 0.560646 15.9128 0.526122 15.9761 0.531875C16.0508 0.537627 16.0624 0.58942 16.0911 0.623936L16.1659 0.73896C16.3787 1.0496 16.5974 1.3315 16.862 1.69391C16.9943 1.87799 17.1438 2.07929 17.2934 2.37267L17.9722 3.81082L18.7546 5.53084C18.9501 5.96803 19.1515 6.40524 19.3643 6.83093C19.6865 7.47522 20.0719 8.06774 20.0949 8.7753C20.1007 8.92487 20.2732 9.25852 20.394 9.35056C20.8485 9.70147 21.0786 10.248 21.326 10.7945C21.999 12.2556 22.6433 13.7283 23.3394 15.1837L23.5982 15.713C23.6443 15.7762 23.65 15.897 23.7478 15.897L24.0067 15.9028C24.651 15.9085 25.2895 15.9143 25.928 15.9143L28.695 15.8797L30.0757 15.8625L30.7832 15.8568L31.905 15.8797L33.8436 15.9316C34.1657 15.9431 34.5339 15.9373 34.7525 16.0063C34.8791 16.0294 34.9654 16.0696 35.0747 16.1041L35.322 16.2134C35.6269 16.363 35.811 16.4895 35.9951 16.6103C36.0353 16.6506 36.0756 16.6333 36.1216 16.7541C36.1389 16.8059 36.1504 16.875 36.1446 16.9095C36.1389 16.944 36.1274 16.9555 36.1216 16.9785L36.0066 17.2661C35.9203 17.4617 35.9088 17.6861 35.6787 17.9852C35.5061 18.2613 34.8963 18.5835 34.4189 18.8826C33.9184 19.1875 33.3949 19.4866 32.8829 19.734C32.3364 19.9986 31.7784 20.292 31.6116 20.4013C31.3585 20.5624 31.1341 20.758 30.9213 21.0168C30.6797 21.3102 30.1907 21.5863 29.7823 21.7992C29.2588 22.0753 28.7123 22.2939 28.1716 22.5125C27.5215 22.7713 26.9117 23.0072 26.3595 23.5365C26.2214 23.6688 25.9798 23.8241 25.8245 23.9046C25.7785 23.9334 25.6749 23.9161 25.6289 23.9679C25.6059 23.9909 25.5829 24.0254 25.5599 24.06C25.5484 24.0887 25.5426 24.0715 25.5254 24.1405L25.4736 24.3188L25.2722 25.0494C25.1457 25.5384 25.0306 26.0273 24.9328 26.522C24.7315 27.5115 24.5704 28.5067 24.4266 29.5076L23.8514 33.5862L23.7133 34.6044L23.4487 36.2785L23.1495 38.148L22.9942 39.1087C22.9425 39.4251 22.8964 39.7875 22.8101 39.9888C22.7469 40.1729 22.6778 40.2765 22.6088 40.403C22.5398 40.495 22.4707 40.5986 22.4075 40.6677C22.2751 40.8115 22.1601 40.9093 22.0508 40.9955C21.953 41.0646 21.8495 41.1336 21.7689 41.1797C21.7574 41.1912 21.6769 41.2084 21.5906 41.2141C21.4986 41.2141 21.4698 41.2084 21.4525 41.2026C21.4065 41.1854 21.3605 41.1739 21.303 41.1509C21.1592 41.0991 21.0038 41.0473 20.791 40.9035C20.5954 40.7539 20.3308 40.6044 20.1064 40.0061L19.0134 36.4165L18.2771 33.9199L17.2071 30.1462C17.0288 29.5134 16.8562 28.8633 16.6204 28.2651C16.3442 27.5633 16.1026 26.8557 15.8898 26.1424L15.7345 25.6074L15.6597 25.337C15.6482 25.2852 15.6539 25.3025 15.6539 25.2853C15.6539 25.2392 15.6654 25.1587 15.6022 25.1529L15.5561 25.1299L15.5274 25.1184L15.3721 25.1011L14.7048 25.0264C14.256 24.9803 13.8131 24.9459 13.3644 24.9171C12.467 24.8596 11.5753 24.825 10.6779 24.7962C10.258 24.7847 9.83806 24.7963 9.42962 24.7445L8.35965 24.6122L6.57634 24.4396L2.35969 24.0829L1.81896 24.0427C1.64638 24.0254 1.42778 24.0197 1.32423 23.9852L1.1344 23.9391L0.996329 23.8816C0.892783 23.8471 0.817997 23.8068 0.760471 23.7666C0.484347 23.6055 0.357799 23.4502 0.2485 23.3179C0.185222 23.2431 0.167957 23.1913 0.133442 23.128C0.098926 23.0648 0.0701659 23.0072 0.0644133 22.9612L0.024141 22.8116C0.0126358 22.7771 -0.00460931 22.6046 0.00114328 22.5528C0.00114328 22.5183 0.00688954 22.4953 0.0126421 22.4665C0.0356525 22.3169 0.0759234 22.15 0.231243 21.9142C0.260006 21.8624 0.306021 21.7992 0.3693 21.7301C0.426825 21.6611 0.47285 21.6036 0.570644 21.5231C0.65118 21.4483 0.737468 21.3735 0.87553 21.2987C0.933056 21.2584 0.996337 21.2182 1.09413 21.1837C1.18042 21.1434 1.26095 21.1031 1.39326 21.0686L5.05765 20.0504L6.78919 19.5729L7.6003 19.3486L8.06626 19.2335C9.8093 18.8136 11.5466 18.3936 13.2896 17.9737C13.4047 17.9449 13.514 17.8874 13.629 17.8644C14.6242 17.6401 15.0326 17.8702 14.722 18.5087C14.4459 19.0725 13.8821 19.5269 13.002 19.7858C12.0298 20.0734 11.0461 20.3323 10.0682 20.5969L10.0394 20.6429Z" fill="#EBC464"/>
</svg>
