<svg width="40" height="38" viewBox="0 0 40 38" fill="none" xmlns="http://www.w3.org/2000/svg">
<path d="M10.278 20.3337C1.59731 21.7891 0.786166 25.2982 1.40169 26.581C2.3106 28.4794 10.8187 29.233 17.3421 25.7814L22.3584 19.793" fill="#F5E3B4"/>
<path d="M8.89147 21.4455C8.44852 21.434 8.01131 21.4627 7.5511 21.411C7.14842 21.3822 6.73425 21.3534 6.4121 21.6238C6.32582 21.6928 6.21651 21.6929 6.11872 21.7331C5.94039 21.8079 5.76207 21.8712 5.58949 21.9575C5.50895 21.9977 5.46293 22.1186 5.37665 22.1186C4.95671 22.1358 4.55978 22.2624 4.30091 22.6075C3.93275 22.5788 3.72564 22.8491 3.53005 23.0908C3.32296 23.3151 3.04108 23.4647 2.95479 23.7926C2.93178 23.8788 2.87428 23.9421 2.7995 23.9766C2.3623 24.1837 2.09766 24.6037 1.98836 25.0179C1.86756 25.4551 1.7295 25.852 1.67198 26.3007C1.66623 26.3409 1.66623 26.387 1.67198 26.4272C1.70649 26.6401 1.86182 26.7839 2.04015 26.9104C2.31052 27.0945 2.64992 27.1808 2.97207 27.2729C3.44953 27.4167 3.95575 27.4685 4.46773 27.3994C5.14653 27.3016 5.81959 27.2038 6.48689 27.1118C6.82629 27.0658 7.16571 27.1406 7.50511 27.1693C8.18967 27.2268 8.88572 27.2959 9.58178 27.2671C10.1053 27.2383 10.623 27.1521 11.1292 27.0197C11.6009 26.9047 12.0554 26.7091 12.5156 26.5595C13.8732 26.1051 15.1848 25.5413 16.3756 24.8223L16.4849 24.7532C16.5079 24.736 16.4964 24.736 16.5021 24.7302C16.5079 24.7187 16.5022 24.7072 16.4964 24.6957L16.4906 24.6784C16.4906 24.6727 16.4849 24.6727 16.4906 24.667L16.5252 24.6094L16.6747 24.3851C16.7783 24.2355 16.8933 24.0974 17.0141 23.9651C17.4628 23.4704 17.923 22.9929 18.3602 22.4867L20.2125 20.3122C20.5692 19.9038 20.9431 19.5126 21.1675 19.0006C21.2308 18.8568 21.3631 18.9029 21.5356 19.1215C21.8405 19.5011 22.1742 19.8808 22.226 20.2662C22.2605 20.5251 22.272 20.7437 22.0764 20.8645C21.7945 21.0428 21.7542 21.4397 21.3286 21.4915C21.271 21.4973 21.2365 21.5548 21.2193 21.6066C20.8741 22.527 20.1378 23.131 19.5107 23.8271C19.3037 24.0514 19.1483 24.3218 18.9642 24.5634C18.8434 24.7187 18.7169 24.874 18.5846 25.0236C18.3948 25.2365 18.1704 25.4263 18.0036 25.6621C17.9403 25.7542 17.9 25.8405 17.7965 25.9498C17.7044 26.0476 17.5836 26.1224 17.388 26.0418C17.3133 26.0131 17.204 26.0821 17.1982 26.1626C17.1752 26.4675 16.9969 26.5308 16.83 26.5941C16.3698 26.7839 15.8981 26.9392 15.4379 27.1176C15.0985 27.2499 14.7649 27.4109 14.437 27.5835C13.925 27.8481 13.4187 28.153 12.878 28.3774C12.4293 28.5615 11.9576 28.6822 11.4859 28.8146C11.3766 28.8433 11.2788 28.9181 11.1695 28.9469C10.9682 28.9929 10.7611 29.0849 10.5597 29.0217C10.3296 28.9526 10.1685 28.9469 9.99595 29.2058C9.89816 29.3496 9.71983 29.3553 9.57027 29.3438C9.38043 29.3323 9.1906 29.2633 9.00077 29.1885C8.77642 29.0964 8.56931 29.0044 8.34496 29.1885C8.22416 29.2863 8.04585 29.2403 7.90204 29.1827C7.2635 28.9181 6.64795 28.9354 6.00366 28.9756C5.13502 29.0217 4.24913 29.0734 3.31721 28.9641C2.9548 28.9239 2.58664 28.8146 2.21272 28.6938C1.89058 28.5787 1.56842 28.4464 1.22326 28.2105C1.13697 28.153 1.05646 28.1012 0.964422 28.0207C0.872381 27.9402 0.757329 27.8539 0.676793 27.7561C0.498463 27.5663 0.360395 27.3477 0.239591 27.1176C-0.117069 26.2604 -0.0192724 25.5298 0.170563 24.897C0.268357 24.6324 0.371898 24.3736 0.452434 24.1205C0.607754 23.5049 1.01618 23.0562 1.44762 22.7053C1.71799 22.5097 1.95386 22.2969 2.18397 22.0783C2.41982 21.8827 2.63839 21.6411 2.87425 21.4398C2.98355 21.3477 3.08136 21.2269 3.21367 21.1694C3.66812 20.9623 4.08806 20.7609 4.508 20.5193C4.92794 20.3065 5.35363 20.0937 5.80233 19.9556C6.16474 19.8635 6.5329 19.7945 6.90682 19.737C7.27498 19.6852 7.6489 19.668 8.01706 19.6334C8.58082 19.5702 9.15033 19.6104 9.71408 19.6047C9.7486 19.6047 9.78311 19.5759 9.82338 19.5759C10.1455 19.5874 10.2951 19.9096 10.2376 20.4445C10.1916 20.922 10.042 21.2211 9.77735 21.2614C9.48397 21.3074 9.18484 21.3247 8.88571 21.3535L8.89147 21.4455Z" fill="#EBC464"/>
<path d="M23.4911 18.4481C26.6723 18.287 32.8218 12.3561 37.3146 17.0157C39.5984 19.38 38.3098 24.4998 35.6579 26.8987C32.1718 30.0568 25.1249 29.5794 19.9878 24.2237" fill="#F5E3B4"/>
<path d="M24.9935 17.1953C25.494 17.1206 26.0002 16.971 26.5352 16.902C27.0126 16.8387 27.4901 16.7754 27.8525 16.4302C27.9446 16.3382 28.0826 16.321 28.1977 16.2634C28.4105 16.1656 28.6291 16.0736 28.8362 15.9643C28.934 15.9183 28.9973 15.7859 29.1066 15.7744C29.6243 15.7342 30.0845 15.6076 30.5102 15.297C30.9417 15.389 31.2638 15.1474 31.6377 14.9979C32.0116 14.854 32.4201 14.8425 32.8113 14.6527C32.9148 14.6009 33.0413 14.5837 33.1506 14.6067C33.8179 14.785 34.468 14.8023 35.141 14.9691C35.8544 15.1417 36.4929 15.5789 36.9013 16.1714C37.0164 16.3267 37.1372 16.4648 37.258 16.6086C37.3846 16.7466 37.5226 16.8674 37.6377 17.0227C37.7815 17.1953 37.9426 17.3622 38.0634 17.5578C38.1957 17.7418 38.328 17.9374 38.4085 18.1503C38.6961 18.7543 38.8572 19.3871 39.047 20.0429C39.2944 20.923 39.3519 21.8722 39.2254 22.7868C39.1563 23.2528 38.9493 23.69 38.7364 24.1042C38.3165 24.9441 37.77 25.7034 37.1717 26.4167C36.7115 26.946 36.234 27.4752 35.676 27.9239C35.1641 28.3496 34.6233 28.7638 34.0193 29.0572C33.8007 29.178 33.5706 29.2758 33.3405 29.3563C33.1104 29.4426 32.8803 29.5404 32.6387 29.6094C32.1612 29.7302 31.6838 29.874 31.1948 29.9315C30.2226 30.1099 29.2389 30.0869 28.2552 30.0408C27.795 29.9776 27.3118 29.9718 26.8516 29.8856C26.6215 29.8395 26.3914 29.7763 26.167 29.7072C25.3387 29.4369 24.5505 29.0744 23.7854 28.6775C22.6925 28.108 21.6397 27.4637 20.7136 26.6698C20.1671 26.2384 19.7069 25.7322 19.1086 25.3583C18.936 25.2547 18.9878 25.1224 19.2351 24.9786C19.6666 24.7312 20.0923 24.4494 20.5122 24.4551C20.7941 24.4609 21.03 24.4781 21.1623 24.7082C21.3579 25.0361 21.8065 25.0879 21.9043 25.5481C21.9158 25.6114 21.9849 25.6516 22.0424 25.6747C23.1009 26.0486 23.889 26.7734 24.8612 27.2509C25.0165 27.3314 25.1776 27.3947 25.3444 27.4579L25.8506 27.6075C26.0692 27.6765 26.2763 27.7628 26.4892 27.8319C26.7998 27.9297 27.1104 28.062 27.4326 28.1253C27.6799 28.1598 27.9273 28.108 28.0999 28.4301C28.1344 28.4992 28.2725 28.5049 28.3242 28.4474C28.5371 28.2288 28.7327 28.2576 28.934 28.2921C29.4748 28.3841 30.027 28.4129 30.5735 28.4014C30.9762 28.3496 31.3788 28.3036 31.7528 28.1425C32.0461 28.0332 32.3338 27.9239 32.5984 27.7628C32.8688 27.619 33.1276 27.4752 33.3692 27.3026C33.5763 27.1703 33.7892 27.061 33.979 26.9057C34.1688 26.7619 34.3817 26.6468 34.537 26.4685C34.6118 26.3937 34.6636 26.2844 34.7441 26.2154C34.8994 26.0946 34.9915 25.899 35.1871 25.83C35.4114 25.7609 35.5322 25.6344 35.4747 25.341C35.4402 25.1799 35.561 25.0591 35.653 24.9556C35.7738 24.8233 35.9637 24.737 36.1248 24.6219C36.3203 24.4896 36.5389 24.3688 36.4872 24.0697C36.4584 23.9143 36.585 23.782 36.7058 23.6785C37.2177 23.2068 37.4306 22.5452 37.4824 21.8894C37.5571 21.0035 37.4536 20.1176 37.189 19.3928C37.1314 19.2547 37.0797 19.1167 37.0394 18.9786C36.9761 18.8521 36.9186 18.7313 36.8668 18.6047C36.8151 18.5127 36.7518 18.4379 36.7058 18.3459C36.6597 18.2538 36.6022 18.179 36.5332 18.11C36.4641 18.0352 36.4296 17.9604 36.3434 17.8741L36.0902 17.6153C35.7451 17.2874 35.3769 16.994 34.9742 16.7696C34.8189 16.6833 34.6521 16.5913 34.4622 16.5971C34.0366 16.6028 33.6569 16.5223 33.2254 16.436C32.7019 16.3382 32.1554 16.5165 31.6435 16.7524C31.5227 16.8099 31.4076 16.8962 31.281 16.9134C30.3606 17.04 29.5611 17.6325 28.6464 18.0007C27.8986 18.2998 27.0989 18.5414 26.2591 18.783C25.609 18.9614 24.9302 19.1225 24.1651 19.1685C24.1133 19.1685 24.0673 19.203 24.0155 19.203C23.5438 19.1915 23.4288 18.8521 23.5668 18.3171C23.6819 17.8454 23.8027 17.5635 24.0731 17.5002C24.3722 17.4369 24.7001 17.3564 25.028 17.2586L24.9935 17.1953Z" fill="#EBC464"/>
<path d="M15.737 27.6715C13.0275 34.1432 17.6296 36.5363 18.3142 36.6283C20.2873 36.8929 26.0801 33.6025 21.4436 23.6562" fill="#F5E3B4"/>
<path d="M16.1267 28.993C15.9254 29.2403 15.7931 29.5107 15.5572 29.7696C15.3329 29.994 15.1776 30.247 15.2926 30.5404C15.3271 30.6152 15.2754 30.69 15.2696 30.759C15.2466 30.8913 15.2466 31.0294 15.2639 31.1617C15.2696 31.225 15.3674 31.2883 15.3329 31.3458C15.2524 31.4839 15.2006 31.6219 15.1891 31.7657C15.1948 31.9038 15.2466 32.0419 15.3501 32.1684C15.1488 32.4158 15.3386 32.6114 15.4709 32.7955C15.5918 32.9853 15.586 33.2154 15.8334 33.3419C15.8966 33.3765 15.9311 33.4282 15.9254 33.4858C15.8909 33.6756 15.9427 33.8424 16.029 33.9863C16.1095 34.1358 16.2073 34.2739 16.3338 34.3889C16.5754 34.6535 16.7538 34.9584 16.8861 35.3553C16.9551 35.5739 17.1277 35.7063 17.2945 35.8271C17.4958 35.9709 17.7375 36.0514 17.9561 36.1377C18.1229 36.2067 18.2609 36.2412 18.4048 36.224C18.5428 36.178 18.6751 36.155 18.819 36.0342C19.1814 35.7868 19.4862 35.4474 19.7739 35.177C19.9062 35.0044 20.1248 34.9699 20.3031 34.8606C20.6655 34.6535 21.0452 34.4119 21.3443 34.0725C21.4479 33.9402 21.5399 33.8022 21.632 33.6584C21.724 33.5145 21.7585 33.342 21.8218 33.1866C21.9426 32.8933 21.9311 32.5539 21.9829 32.249C22.0979 31.3228 22.0749 30.3736 21.8448 29.4359C21.793 29.2116 21.7125 28.993 21.655 28.7687C21.6147 28.6594 21.5859 28.5443 21.5687 28.4292C21.4881 28.0035 21.4824 27.5664 21.3443 27.1407C21.1545 26.5309 20.9877 25.9211 20.7288 25.3229C20.5965 24.9835 20.4872 24.6268 20.2053 24.3507C20.1248 24.2759 20.2283 24.1896 20.4987 24.109C20.9589 23.971 21.4306 23.8099 21.7643 23.8674C21.9886 23.9077 22.1727 23.9595 22.167 24.1321C22.1612 24.3852 22.4604 24.529 22.282 24.8454C22.259 24.8914 22.2878 24.9259 22.3165 24.9547C22.6099 25.2021 22.748 25.5184 22.8458 25.8521C22.9436 26.18 23.0011 26.5251 23.0874 26.8588C23.1449 27.0774 23.2254 27.2902 23.2944 27.5031C23.3347 27.6469 23.3693 27.7907 23.3923 27.9345C23.4268 28.1474 23.4325 28.3602 23.4901 28.5673C23.5246 28.7226 23.6339 28.8722 23.3635 29.0505C23.306 29.085 23.329 29.1656 23.4038 29.1886C23.6741 29.2749 23.6626 29.4129 23.6684 29.5452C23.7029 29.9077 23.6281 30.2758 23.6339 30.6382C23.6281 30.9086 23.6799 31.179 23.6914 31.4551C23.7201 31.8865 23.841 32.3468 23.7777 32.8012C23.7489 33.1809 23.6626 33.5548 23.5246 33.923C23.4958 34.0092 23.5131 34.1128 23.4785 34.1991C23.421 34.3544 23.4038 34.55 23.2312 34.6363C23.0471 34.7341 22.9608 34.8319 23.0644 35.0965C23.1219 35.2461 23.0298 35.3669 22.9436 35.4532C22.817 35.5567 22.6502 35.62 22.4833 35.6718C22.282 35.735 22.1094 35.7868 22.0922 36.0399C22.0807 36.178 21.9311 36.2297 21.8045 36.2585C21.5227 36.3275 21.2926 36.4368 21.0682 36.5519C20.8496 36.6784 20.654 36.8395 20.4297 36.9776C20.1478 37.1904 19.8199 37.363 19.4805 37.5356C19.2964 37.6046 19.1008 37.6679 18.9053 37.7312C18.7039 37.7887 18.4508 37.8002 18.1689 37.8175H18.1574C17.9503 37.7945 17.7202 37.7542 17.5361 37.6794C17.3578 37.6219 17.2312 37.5586 17.0874 37.4896C16.2303 37.0869 15.609 36.4253 15.1258 35.6832C15.0338 35.5337 14.9532 35.3784 14.8151 35.2633C14.6483 35.1368 14.5448 34.9642 14.447 34.7858C14.3492 34.6133 14.2859 34.4177 14.2572 34.2163C14.1536 33.7446 13.9523 33.3362 13.7394 32.8875C13.6876 32.7839 13.6301 32.6862 13.6301 32.5711C13.6531 32.1857 13.5668 31.8175 13.5553 31.4493C13.5208 31.0812 13.4748 30.7015 13.5611 30.3449C13.6244 30.0572 13.6876 29.7638 13.8084 29.505L14.1824 28.7284C14.3665 28.3315 14.6541 27.9978 14.8842 27.6469C14.9014 27.6239 14.8899 27.5894 14.9072 27.5664C15.0568 27.3708 15.3962 27.4398 15.8391 27.7389C16.2303 28.0035 16.4374 28.2279 16.3626 28.3947C16.2821 28.5846 16.1728 28.7629 16.075 28.947L16.1267 28.993Z" fill="#EBC464"/>
<path d="M21.7288 19.8414C18.0817 17.9603 26.1123 9.06106 23.771 5.6958C17.5812 -3.1977 8.07794 2.38233 6.03578 8.51458C4.38479 13.4618 7.23808 21.061 13.9916 24.2249" fill="#F5E3B4"/>
<path d="M19.9586 17.6559C20.1599 16.8621 20.4533 16.189 20.8387 15.5793C21.1839 15.0385 21.5463 14.5438 21.6441 13.9052C21.6671 13.7384 21.7707 13.5946 21.8397 13.4393C21.9605 13.1574 22.087 12.8813 22.1906 12.5937C22.2366 12.4613 22.2078 12.2945 22.2884 12.1852C22.6853 11.6732 22.973 11.1037 23.0362 10.4594C23.4101 10.0798 23.4331 9.56778 23.4907 9.09032C23.554 8.61285 23.715 8.14114 23.5827 7.68093C23.5597 7.56012 23.5309 7.43356 23.5712 7.31851C23.6633 6.97911 23.6575 6.62247 23.5309 6.33484C23.5079 6.25431 23.4677 6.191 23.4274 6.12772C23.3814 6.05869 23.3584 6.00117 23.2836 5.92064L22.9097 5.47196C22.3632 4.84492 21.8684 4.19486 21.3622 3.5103C21.2357 3.32047 21.0746 3.15365 20.8905 3.01559C20.7122 2.87178 20.5281 2.72795 20.3325 2.6129C20.1024 2.46909 19.8665 2.3368 19.6077 2.23901C19.3603 2.12971 19.1072 2.03191 18.8541 1.94562C18.1235 1.681 17.3412 1.56019 16.5818 1.65799C15.5636 1.79605 14.6144 2.08366 13.7228 2.46909C13.2741 2.67618 12.7794 2.78549 12.3076 2.98108C11.37 3.36075 10.4438 3.85548 9.6442 4.53428C9.04017 5.03476 8.52819 5.64453 8.09675 6.29457C7.69407 6.90435 7.41796 7.5774 7.18211 8.23895C6.46879 10.1718 6.64134 12.3635 7.26262 14.3597C7.33165 14.6013 7.44672 14.8314 7.53876 15.0673C7.63081 15.3031 7.73434 15.5332 7.85515 15.7576C7.9702 15.9819 8.06225 16.2178 8.15429 16.4536C8.55122 17.2993 8.95964 18.1564 9.53489 18.9042C10.3288 19.9915 11.3009 20.9464 12.3767 21.7575C12.6873 21.9761 13.0095 22.189 13.3316 22.3961C13.6595 22.5859 14.0219 22.724 14.3901 22.8333C14.5972 22.8908 14.6029 23.0403 14.4131 23.2532C14.0852 23.6213 13.763 24.0125 13.2683 24.0758C12.9404 24.1103 12.6125 24.1391 12.3594 23.8802C12.0028 23.5063 11.3987 23.4315 11.1916 22.8793C11.1629 22.8045 11.0766 22.7527 11.0018 22.7124C9.62693 22.0509 8.66627 20.8198 7.86091 19.5773L7.02678 18.375C6.87146 18.0989 6.72763 17.817 6.58382 17.5294C6.36522 17.1209 6.26744 16.6607 6.06035 16.2523C5.91078 15.9417 5.7382 15.6368 5.91077 15.2571C5.94529 15.1766 5.87625 15.0097 5.79571 14.9695C5.47932 14.8027 5.44483 14.5093 5.3873 14.2274C5.29526 13.8477 5.26648 13.4565 5.22621 13.0711C5.16869 12.6857 5.17444 12.2945 5.15143 11.9033C5.12266 11.6157 5.12842 11.3281 5.12267 11.0347C5.12267 10.7413 5.08815 10.4479 5.11691 10.1545L5.13991 9.46425C5.14566 9.23415 5.19169 9.00403 5.22046 8.76818C5.27223 8.29646 5.37579 7.83624 5.52536 7.38754C5.77272 6.63395 6.1524 5.93789 6.57233 5.27059C6.66438 5.10952 6.73338 4.94272 6.83693 4.79315C7.02677 4.51703 7.21661 4.21214 7.49273 4.03381C7.80913 3.84973 7.99897 3.6714 8.07375 3.28022C8.11977 3.06162 8.33836 2.86603 8.53395 2.73372C8.78706 2.56114 9.06894 2.43458 9.36232 2.33103C9.70748 2.19872 10.0354 2.11244 10.2597 1.76153C10.3805 1.56594 10.6624 1.47964 10.8925 1.42211C11.9165 1.1805 12.8311 0.789349 13.8206 0.472957C15.1552 0.0587711 16.6278 -0.131078 18.0947 0.0990251C18.67 0.185314 19.228 0.369412 19.7688 0.582258C20.6029 0.927413 21.3737 1.3991 22.0525 1.96286C22.7198 2.53812 23.3296 3.15941 23.8358 3.84396C24.0487 4.10283 24.2328 4.39045 24.4629 4.62055L24.6642 4.82767C24.7332 4.90821 24.785 4.94272 24.8655 5.07503C25.0209 5.30513 25.1589 5.54674 25.2394 5.79986C25.4235 6.30608 25.4466 6.80078 25.4121 7.24948C25.3028 8.31947 25.1532 9.22837 24.9748 10.1258C24.9288 10.3329 24.9173 10.5572 24.8253 10.7355C24.2097 12.0241 23.8473 13.3473 23.2893 14.538C22.8406 15.493 22.3171 16.4018 22.0007 17.282C21.7534 17.9666 21.6383 18.5591 21.8109 18.8985C21.8282 18.9215 21.8627 18.9272 21.88 18.9503C22.0008 19.1458 22.0295 19.5485 21.5866 19.8879C21.3852 20.0202 21.1321 20.1123 20.8963 20.0432C20.6431 19.9915 20.413 19.8016 20.252 19.514C19.9298 18.8582 19.9586 18.2082 20.0334 17.6674L19.9586 17.6559Z" fill="#EBC464"/>
<path d="M14.791 27.7948C15.2339 28.324 18.0584 26.4142 20.3998 23.7622C22.7756 21.0815 24.4151 17.8888 23.8225 17.5034C23.2358 17.1237 20.8715 19.8447 18.5532 22.5196C16.2751 25.1486 14.3941 27.3173 14.791 27.7948Z" fill="#EBC464"/>
<path d="M15.5515 26.8342C15.8678 26.7939 16.19 26.6846 16.5524 26.6328C16.8745 26.5868 17.2024 26.5236 17.3463 26.2072C17.3808 26.1266 17.4728 26.1036 17.5361 26.0461C17.6512 25.9483 17.7662 25.8563 17.8697 25.747C17.9157 25.6952 17.91 25.5744 17.979 25.5629C18.3184 25.4823 18.5831 25.304 18.6866 24.9589C19.0145 24.9531 19.0778 24.6655 19.2043 24.4469C19.3251 24.2283 19.5322 24.0787 19.5725 23.7853C19.584 23.7105 19.6185 23.6415 19.6876 23.6185C20.0845 23.4517 20.2973 23.1123 20.5102 22.7786C20.7403 22.422 21.0394 22.1286 21.4536 21.9042C21.678 21.7892 21.8103 21.5878 21.9368 21.398C22.0921 21.1679 22.1899 20.9033 22.3223 20.6617C22.5121 20.3108 22.6617 19.9369 22.7077 19.5227C22.7652 18.9762 22.84 18.4239 22.84 18.0155C22.8342 17.9234 22.8572 17.8314 22.8687 17.8199C22.817 17.8084 23.0356 17.8371 23.1449 17.8199C23.2772 17.8141 23.3577 17.8141 23.4613 17.7854C23.6166 17.7681 23.7201 17.6761 23.7086 17.6818C23.7086 17.6818 23.6683 17.7681 23.7029 17.9522C23.7201 18.0327 23.7431 18.1708 23.7892 18.2686C23.8007 18.3146 23.8524 18.4527 23.8409 18.4182L23.8352 18.4124C23.7891 18.4124 23.6971 18.4412 23.5993 18.4872C23.398 18.5792 23.1794 18.7231 22.9723 18.8784C22.6616 19.12 22.3855 19.4249 22.1267 19.7413C21.885 20.0404 21.6895 20.3855 21.4594 20.6962C20.7748 21.6166 20.0902 22.5543 19.4172 23.5034C19.2561 23.7335 19.1181 23.9809 18.9627 24.211C18.8822 24.3261 18.7959 24.4353 18.6981 24.5331C18.3414 24.9071 17.9791 25.2638 17.6454 25.6434C17.1679 26.1842 16.725 26.7594 16.3453 27.2829C16.2418 27.4267 16.1382 27.5705 16.0864 27.6856C16.0519 27.7546 16.0634 27.7776 16.0577 27.8121L16.0634 27.8064C16.0577 27.8006 16.0174 27.7891 15.9944 27.7776C15.9426 27.7604 15.8909 27.7374 15.8333 27.7259C15.724 27.6913 15.6147 27.6683 15.4997 27.6568C15.3616 27.6511 15.3501 27.6165 15.2696 27.6108C15.2006 27.605 15.1315 27.6051 15.0625 27.6223C14.9417 27.6223 14.9302 27.6856 14.9589 27.6453C14.9762 27.6338 14.9877 27.628 15.005 27.628C15.0337 27.6223 15.005 27.6396 15.0913 27.6166C14.8957 27.6396 14.6655 27.5533 14.5735 27.398C14.4239 27.1794 14.3664 26.9665 14.5217 26.8285C14.7403 26.6329 14.7058 26.2877 15.0855 26.2474C15.1373 26.2417 15.1545 26.1899 15.166 26.1496C15.3386 25.3558 15.9484 24.8841 16.4431 24.3548C16.6042 24.1822 16.7192 23.9637 16.863 23.7738C16.9551 23.6473 17.0529 23.5322 17.1622 23.4171C17.3175 23.2503 17.4958 23.1123 17.6281 22.9282C17.7259 22.7901 17.7605 22.606 18.0768 22.6751C18.1401 22.6923 18.1919 22.6118 18.1574 22.5428C18.0366 22.2782 18.1516 22.1918 18.2494 22.0941C18.514 21.8237 18.7902 21.5706 19.0375 21.283C19.2158 21.0701 19.3712 20.8342 19.5092 20.5811C19.7221 20.1899 19.8947 19.77 20.1248 19.3846C20.3146 19.0625 20.5562 18.7806 20.7748 18.4814C20.8266 18.4124 20.8438 18.3089 20.9014 18.2456C21.0049 18.1248 21.0797 17.9579 21.2523 17.9177C21.4421 17.8716 21.5514 17.7969 21.5054 17.515C21.4824 17.3597 21.5974 17.2676 21.7067 17.2044C21.8448 17.1238 22.0174 17.0893 22.2014 17.0548C22.42 17.0145 22.6156 17.003 22.7364 16.7269C22.8055 16.5773 23.0241 16.5141 23.3059 16.5026C23.375 16.5026 23.4555 16.4968 23.5648 16.5026C23.6166 16.5083 23.6568 16.5083 23.7144 16.514C23.7777 16.5255 23.8409 16.5371 23.9042 16.5543C24.1631 16.6118 24.4737 16.8362 24.5945 17.0663C24.8361 17.538 24.7383 17.7681 24.7383 17.9637C24.6808 18.3376 24.6175 18.5965 24.56 18.8726C24.3989 19.5974 24.2091 20.2705 23.9617 20.9205C23.8639 21.1737 23.7259 21.4095 23.5993 21.6454C23.1966 22.3759 22.6559 23.0087 22.0806 23.6012C21.9713 23.7163 21.8448 23.8314 21.7815 23.9867C21.6377 24.3433 21.3731 24.6079 21.0624 24.8265C20.6885 25.0854 20.4584 25.4708 20.2168 25.8505C20.1593 25.9425 20.1248 26.0519 20.0385 26.1094C19.4344 26.5006 19.0605 27.1506 18.4565 27.559C17.9733 27.8927 17.4095 28.1285 16.8285 28.3471C16.6042 28.4334 16.3626 28.5024 16.1094 28.5657C15.8448 28.6232 15.5917 28.6808 15.1833 28.6808C15.1373 28.6808 15.0682 28.7038 14.9992 28.698C14.7001 28.6693 14.3952 28.3816 14.4412 28.1745C14.4642 27.9732 14.7173 27.9214 14.8957 27.7316C14.9302 27.6971 14.9762 27.6223 14.9762 27.6166C14.9877 27.5993 14.9877 27.5878 14.9934 27.5648C15.0222 27.4957 15.0164 27.4497 15.0279 27.3232C15.0337 27.2656 15.0222 27.2139 15.0222 27.1506C15.0222 27.1276 15.0222 27.1103 15.0222 27.0931C15.0222 27.0643 15.0395 27.0413 15.0625 27.0413C15.1833 27.0183 15.3846 26.9723 15.5802 26.8975L15.5515 26.8342Z" fill="#EBC464"/>
</svg>
