<svg width="208" height="238" viewBox="0 0 208 238" fill="none" xmlns="http://www.w3.org/2000/svg">
<path d="M40.6791 167.838C35.6071 169.722 25.8527 161.715 26.0497 153.332C26.1376 149.643 28.1745 144.647 32.2067 143.522C36.9854 142.184 41.9076 147.032 43.8531 151.054C46.9016 157.338 44.9344 166.258 40.6791 167.838Z" fill="#F5E3B4"/>
<path d="M37.4853 169.233C36.5721 168.869 35.7418 168.435 35.0587 167.829C34.4476 167.298 33.9383 166.729 33.1627 166.503C32.9569 166.448 32.8113 166.271 32.6411 166.152L31.7311 165.467C31.5905 165.374 31.3561 165.357 31.266 165.214C30.83 164.509 30.3446 163.919 29.6196 163.505C29.4632 162.819 28.9021 162.513 28.4509 162.07C27.9912 161.626 27.7123 161.055 27.1678 160.651C27.021 160.548 26.9098 160.38 26.8717 160.214C26.6351 159.176 26.1438 158.3 25.7619 157.325C25.3594 156.289 25.2414 155.118 25.5183 154.016C25.6745 153.433 25.6695 152.834 25.7416 152.256C25.8071 151.566 25.8662 150.865 26.0157 150.17C26.2456 149.175 26.5161 148.2 26.8112 147.167C27.192 145.781 27.9278 144.406 29.1029 143.278C29.7194 142.727 30.5329 142.366 31.3587 142.165C33.0048 141.714 34.7455 141.905 36.1943 142.431C37.3054 142.811 38.3197 143.313 39.2767 143.891C40.172 144.425 41.0472 144.999 41.8171 145.693C42.956 146.724 43.9569 147.893 44.8222 149.19C45.7045 150.493 46.3379 152.004 46.797 153.515C47.0236 154.246 47.2223 154.98 47.3712 155.727C47.4445 156.105 47.4532 156.484 47.4705 156.865C47.4963 158.278 47.3693 159.678 47.1092 161.06C46.7272 163.034 46.164 165.034 44.8542 166.87C44.1262 167.906 43.1479 168.848 41.8525 169.705C41.4822 169.955 41.2994 169.814 41.2834 169.359C41.2386 168.566 41.0903 167.782 41.2636 167.203C41.3488 166.748 41.4183 166.455 41.7484 166.286C41.979 166.145 42.1548 165.935 42.3072 165.71C42.4618 165.475 42.6439 165.276 42.9837 165.174C43.0746 165.143 43.1154 165.026 43.1321 164.929C43.5131 163.267 44.2118 161.791 44.518 160.099C44.609 159.554 44.5754 158.994 44.5675 158.44C44.5542 158.078 44.5666 157.723 44.5705 157.366C44.534 156.851 44.6203 156.322 44.4911 155.81C44.4007 155.427 44.2364 155.08 44.5817 154.649C44.6522 154.557 44.5867 154.356 44.4712 154.307C44.0049 154.127 44.0104 153.797 43.9079 153.494C43.7002 152.657 43.445 151.826 43.0446 151.057C42.7571 150.484 42.3523 149.971 41.9081 149.503C41.212 148.774 40.4168 148.175 39.6404 147.609C38.9829 147.148 38.3757 146.636 37.6992 146.28C37.5478 146.194 37.3546 146.16 37.1986 146.091C36.9146 145.951 36.5911 145.855 36.3946 145.627C36.1754 145.348 35.9366 145.211 35.5555 145.467C35.3443 145.603 35.1243 145.498 34.9466 145.442C34.7157 145.343 34.5101 145.15 34.2713 145.013C33.9971 144.801 33.6959 144.656 33.3983 144.944C33.2432 145.077 33.0236 145.073 32.8139 144.999C31.877 144.757 30.9576 145.273 30.3552 146.012C29.5072 147.017 28.9992 148.296 28.6694 149.595C28.551 150.105 28.3983 150.606 28.2971 151.122C27.9921 152.74 27.8399 154.234 28.1141 155.851C28.1669 156.168 28.2174 156.494 28.3915 156.771C28.7898 157.41 29.0435 158.076 29.281 158.801C29.5721 159.669 30.2128 160.365 30.8936 160.979C31.057 161.124 31.249 161.23 31.358 161.407C32.1467 162.647 33.4757 163.38 34.5811 164.228C35.4802 164.919 36.3747 165.627 37.357 166.111C38.0981 166.466 38.8851 166.787 39.6403 166.815C39.6855 166.817 39.7336 166.775 39.7873 166.78C40.1789 166.793 40.5701 167.22 40.5754 168.057C40.5779 168.802 40.1616 169.362 39.5023 169.387C38.7824 169.433 38.0999 169.306 37.4654 169.136L37.4853 169.233Z" fill="#EBC464"/>
<path d="M45.9645 191.74C41.7091 192.052 38.0588 185.579 37.2728 180.59C36.6776 176.809 37.2218 170.697 40.5087 169.336C44.4376 167.705 51.8126 173.036 52.7281 179.667C53.4712 185.022 50.0238 191.44 45.9645 191.74Z" fill="#F5E3B4"/>
<path d="M42.8308 192.251C42.487 191.957 42.1603 191.667 41.8902 191.337C41.5961 191.029 41.3782 190.676 41.1882 190.322C40.8482 189.67 40.6219 189.04 40.0238 188.632C39.8575 188.532 39.8006 188.333 39.7019 188.187L39.1454 187.349C39.0592 187.225 38.8472 187.159 38.8239 187.005C38.6984 186.273 38.4699 185.652 37.9537 185.109C38.0459 184.49 37.6502 184.081 37.3654 183.601C37.1024 183.107 36.9996 182.565 36.6308 182.09C36.5275 181.961 36.459 181.805 36.4723 181.652C36.5678 180.713 36.3476 179.854 36.2206 178.956C36.0816 178 36.1863 177.027 36.5785 176.112C36.7826 175.624 36.845 175.117 36.9268 174.606C37.0315 174.009 37.07 173.386 37.2394 172.788C37.4823 171.916 37.7338 171.046 38.15 170.11C38.2802 169.795 38.4812 169.491 38.6823 169.186C38.9302 168.913 39.153 168.596 39.4906 168.365C39.652 168.242 39.8134 168.12 39.981 168.009L40.5279 167.751C40.8992 167.566 41.2818 167.475 41.6684 167.404C42.0705 167.31 42.4552 167.349 42.8268 167.402C43.2116 167.441 43.5539 167.569 43.9008 167.681C45.2691 168.13 46.3912 168.881 47.4377 169.639C48.2072 170.231 48.9812 170.806 49.7089 171.452C50.3857 172.047 51.0905 172.64 51.6706 173.356C52.5596 174.393 53.2625 175.611 53.8241 176.91C54.3966 178.203 54.7014 179.672 54.802 181.114C54.8549 181.808 54.8797 182.504 54.8423 183.193C54.815 183.534 54.7598 183.878 54.6873 184.217C54.3822 185.459 53.9017 186.635 53.3486 187.773C52.5204 189.389 51.514 190.985 49.8721 192.208C48.9582 192.91 47.8277 193.424 46.531 193.84C46.1587 193.96 46.0326 193.78 46.1326 193.338C46.2833 192.57 46.3483 191.778 46.6279 191.284C46.813 190.901 46.9294 190.638 47.2508 190.605C47.4841 190.557 47.6844 190.427 47.8698 190.284C48.0576 190.132 48.2595 190.03 48.5865 190.044C48.6768 190.05 48.7364 189.965 48.7766 189.884C49.4791 188.565 50.4586 187.55 51.1057 186.198C51.3132 185.766 51.4139 185.288 51.5208 184.82C51.6183 184.525 51.6644 184.216 51.7534 183.918C51.8877 183.485 52.0049 183.048 52.0512 182.601C52.0527 182.252 51.9462 181.93 52.4011 181.638C52.4903 181.579 52.4677 181.389 52.3654 181.325C51.954 181.077 52.0167 180.809 52.0084 180.531C51.995 179.792 51.9302 179.04 51.7184 178.321C51.6324 178.06 51.5269 177.802 51.4214 177.544C51.2942 177.298 51.1367 177.063 50.9877 176.83C50.5003 176.111 49.8578 175.526 49.2627 174.934C48.7584 174.45 48.289 173.938 47.7492 173.518C47.6281 173.421 47.4589 173.367 47.3355 173.278C47.1059 173.107 46.8173 172.983 46.7016 172.695C46.5602 172.4 46.378 172.222 45.9559 172.357C45.7265 172.425 45.5328 172.29 45.3929 172.161C45.2061 172 45.075 171.735 44.9128 171.517C44.7256 171.256 44.5413 170.949 44.1449 171.091C43.939 171.174 43.7607 171.016 43.6191 170.858C42.9841 170.21 42.0511 170.126 41.4202 170.389C40.9866 170.566 40.6975 170.857 40.4483 171.203C40.2094 171.58 40.0317 172.038 39.8727 172.529C39.8176 172.734 39.7647 172.931 39.6924 173.133L39.5224 173.767C39.2326 175.123 38.9816 176.609 38.8894 178.119C38.8736 178.418 38.847 178.723 38.9456 179.007C39.1735 179.665 39.2253 180.295 39.2314 180.958C39.2521 181.772 39.6206 182.523 40.0526 183.209C40.1553 183.374 40.293 183.512 40.335 183.698C40.628 184.971 41.5525 185.945 42.1899 186.961C42.7012 187.796 43.1868 188.625 43.8024 189.277C44.2786 189.763 44.7687 190.197 45.3762 190.434C45.419 190.445 45.4562 190.409 45.4991 190.421C45.8157 190.542 46.0478 191.082 45.8645 191.869C45.7703 192.221 45.6127 192.5 45.3901 192.679C45.2831 192.77 45.1549 192.837 45.0227 192.884C44.8975 192.906 44.7511 192.903 44.614 192.867C44.2944 192.79 43.9772 192.705 43.7041 192.558C43.4287 192.42 43.1315 192.295 42.8956 192.112L42.8308 192.251Z" fill="#EBC464"/>
<path d="M76.0871 167.449C76.0871 167.449 80.961 155.844 79.8963 150.146C79.0845 145.803 75.7513 139.929 70.1183 139.449C66.173 139.118 61.4699 141.34 60.5063 144.868C56.6659 159.029 76.0871 167.449 76.0871 167.449Z" fill="#F5E3B4"/>
<path d="M76.0469 163.969C76.5144 163.185 76.9156 162.374 77.4259 161.601C77.8853 160.915 78.3189 160.223 78.2988 159.372C78.2939 159.15 78.4028 158.949 78.4516 158.733C78.5465 158.345 78.6584 157.961 78.7166 157.572C78.7454 157.396 78.6394 157.175 78.7259 157.023C79.1476 156.273 79.3721 155.469 79.2142 154.618C79.6568 154.029 79.457 153.369 79.3965 152.737C79.3803 152.42 79.3447 152.108 79.3176 151.797C79.3052 151.638 79.282 151.484 79.2478 151.337C79.1966 151.186 79.1321 151.049 79.0505 150.908C78.9604 150.764 78.9137 150.595 78.9488 150.43C79.0649 149.414 78.655 148.44 78.2158 147.541C77.7327 146.566 77.3336 145.587 76.9792 144.508C76.7844 143.932 76.4008 143.444 75.9948 143.004C75.7647 142.731 75.4734 142.515 75.2061 142.278L74.3446 141.652C73.5082 141.07 72.5412 140.7 71.5625 140.649C70.252 140.601 69.0299 140.807 67.8476 141.207C67.2482 141.386 66.6203 141.466 66.006 141.632C64.7923 141.978 63.5904 142.52 62.7169 143.379C62.4077 143.71 62.1197 144.065 61.9557 144.471C61.7597 144.859 61.682 145.252 61.5933 145.789C61.399 146.72 61.4756 147.669 61.5163 148.58C61.688 151.3 62.8273 153.839 64.5457 155.999C64.959 156.514 65.4376 156.992 65.9185 157.46C66.1469 157.705 66.3862 157.944 66.6037 158.195C67.4276 159.133 68.3231 160.044 69.3084 160.859C70.7204 162.037 72.2749 163.06 73.8627 164.027C74.7557 164.57 75.6807 165.13 76.6999 165.339C76.9874 165.398 76.9431 165.597 76.7003 165.955C76.2444 166.559 75.7709 167.194 75.0943 167.353C74.6339 167.459 74.2262 167.506 73.8783 167.193C73.3734 166.745 72.597 166.693 72.2731 165.981C72.2252 165.886 72.1035 165.826 72.0006 165.798C70.0853 165.23 68.6141 163.862 67.1588 162.571C66.6836 162.15 66.1472 161.785 65.6634 161.362C65.3515 161.085 65.0552 160.785 64.7674 160.488C64.366 160.031 63.9995 159.547 63.5872 159.096C63.2697 158.772 62.8846 158.494 62.9871 157.906C63.0107 157.784 62.8457 157.611 62.7102 157.602C62.2048 157.568 62.0211 157.225 61.8133 156.903C61.2987 156.011 60.8429 155.071 60.4564 154.113C60.3031 153.759 60.1474 153.415 60.0072 153.046C59.8538 152.693 59.7027 152.331 59.5711 151.964C59.1185 150.842 58.7643 149.626 58.6303 148.377C58.596 147.853 58.5555 147.318 58.6139 146.792C58.6442 146.267 58.694 145.738 58.789 145.212C58.8253 144.974 58.793 144.717 58.8402 144.472C58.9648 143.973 59.0782 143.378 59.444 143.008C59.8384 142.599 60.0761 142.295 60.11 141.688C60.1287 141.344 60.4401 141.005 60.728 140.788C61.0777 140.477 61.5239 140.321 61.9357 140.156C62.4488 139.99 62.9092 139.884 63.234 139.392C63.411 139.108 63.817 139.033 64.1453 138.974C65.6018 138.786 66.8738 138.428 68.2669 138.167C70.1136 137.826 72.2633 137.897 74.1571 138.716C74.9035 139.018 75.5851 139.457 76.2123 139.929C77.2011 140.662 78.0148 141.57 78.6855 142.53C79.3647 143.493 79.9049 144.53 80.3262 145.598C80.5086 146.015 80.6305 146.452 80.8673 146.837C81.3991 147.733 81.6489 148.755 81.726 149.805C81.7826 151.171 81.9384 152.407 81.9804 153.622C82.0035 153.914 82.0546 154.203 81.9834 154.469C81.5363 156.343 81.4917 158.224 80.9367 159.987C80.4822 161.409 79.8374 162.752 79.1995 164.07C78.6957 165.093 78.1364 166.082 77.5795 167.063C77.544 167.127 77.549 167.211 77.5049 167.273C77.1617 167.834 76.5957 167.82 75.9726 167.23C75.4106 166.721 75.1848 166.192 75.3959 165.679C75.6315 165.108 75.8992 164.555 76.152 163.988L76.0469 163.969Z" fill="#EBC464"/>
<path d="M77.2321 168.598C79.9295 164.91 89.8796 166.528 95.6061 171.564C96.1344 172.027 102.296 177.565 100.529 182.1C98.9517 186.171 91.7879 187.357 86.8401 185.691C79.0279 183.056 74.3892 172.486 77.2321 168.598Z" fill="#F5E3B4"/>
<path d="M79.3495 165.773C79.8499 165.723 80.3331 165.669 80.8019 165.703C81.2799 165.702 81.7309 165.768 82.1791 165.879C82.578 165.967 82.9507 166.085 83.3348 166.161C83.7104 166.234 84.0935 166.245 84.4886 166.176C84.6917 166.138 84.9076 166.224 85.114 166.242C85.4988 166.281 85.8675 166.38 86.2414 166.425C86.4111 166.443 86.624 166.335 86.7754 166.421C87.4913 166.87 88.2148 167.119 89.0456 167.14C89.5258 167.645 90.1542 167.666 90.7784 167.806C91.3871 167.969 91.9281 168.316 92.601 168.377C92.7794 168.397 92.9611 168.474 93.0753 168.596C93.4522 168.973 93.8606 169.266 94.2754 169.57C94.7056 169.851 95.1404 170.114 95.5637 170.421C96.5029 171.031 97.2137 171.91 97.7008 172.905C97.9523 173.441 98.3366 173.893 98.7014 174.349C99.1141 174.901 99.5983 175.426 99.9801 176.024C100.538 176.89 101.042 177.788 101.525 178.8L101.761 179.323L101.922 179.889C102.049 180.273 102.076 180.684 102.099 181.113C102.139 181.96 101.928 182.85 101.57 183.673C101.154 184.471 100.46 185.103 99.7617 185.55C98.3615 186.489 96.8562 186.894 95.4001 187.184C94.2987 187.385 93.219 187.574 92.1131 187.654C91.0936 187.721 90.0431 187.835 88.9986 187.72C87.4574 187.574 85.8551 187.209 84.3893 186.54C82.919 185.889 81.5752 185.005 80.3609 183.981C79.7857 183.487 79.1888 183.006 78.6663 182.452C78.3997 182.178 78.1679 181.877 77.9384 181.568C77.1159 180.419 76.4587 179.168 75.873 177.89C75.0622 176.046 74.3847 174.082 74.36 171.843C74.3707 170.568 74.5632 169.232 75.1808 167.716C75.3689 167.289 75.6164 167.291 75.8727 167.672C76.3333 168.319 76.873 168.877 77.0935 169.46C77.2503 169.869 77.4026 170.158 77.2227 170.487C76.9665 170.997 77.2905 171.571 76.8742 172.13C76.8146 172.215 76.8494 172.326 76.8802 172.417C77.5381 174.008 77.8271 175.639 78.5542 177.212C78.7869 177.715 79.1346 178.167 79.4542 178.62L80.0701 179.511C80.3663 179.949 80.6385 180.408 81.0068 180.782C81.2907 181.06 81.6364 181.245 81.5882 181.802C81.5755 181.918 81.7412 182.054 81.8664 182.032C82.3502 181.941 82.553 182.179 82.786 182.407C83.4262 183.002 84.1013 183.568 84.8584 184.001C85.4149 184.325 86.027 184.544 86.6512 184.684C87.6144 184.896 88.6069 184.895 89.5761 184.879C90.3834 184.884 91.1844 184.878 91.9781 184.797C92.1594 184.772 92.3334 184.671 92.5123 184.655C92.8486 184.635 93.1787 184.466 93.5061 184.581C93.8702 184.697 94.1487 184.652 94.3836 184.256C94.5165 184.034 94.7716 183.974 94.9981 183.952C95.2891 183.929 95.5835 183.962 95.8951 183.999C96.2752 184.055 96.6263 184.048 96.8309 183.662C96.9335 183.451 97.1691 183.394 97.415 183.368C98.4226 183.243 99.1182 182.465 99.3061 181.66C99.5573 180.551 99.1693 179.427 98.5097 178.323C98.2478 177.894 97.9927 177.44 97.6965 177.002C96.7524 175.656 95.6483 174.22 94.4657 172.975C94.2327 172.747 93.9763 172.504 93.6752 172.359C93.338 172.177 92.9877 172.009 92.6707 171.787C92.3645 171.558 92.0583 171.329 91.7481 171.08C91.3894 170.773 90.9712 170.55 90.5283 170.386C90.0985 170.206 89.6332 170.091 89.1719 169.995C88.9553 169.946 88.7272 169.94 88.5415 169.844C87.2078 169.128 85.6555 169.126 84.2601 168.881C83.1242 168.696 81.9724 168.433 80.8952 168.475C80.0764 168.513 79.2718 168.601 78.6225 168.932C78.5876 168.96 78.5801 169.022 78.5389 169.038C78.2174 169.21 77.6321 169.062 77.1806 168.38C76.9877 168.071 76.9006 167.745 76.9382 167.433C76.9631 167.1 77.1418 166.845 77.4291 166.664L77.9034 166.369C78.0642 166.283 78.2329 166.236 78.3977 166.17C78.7249 166.047 79.0543 165.914 79.3803 165.864L79.3495 165.773Z" fill="#EBC464"/>
<path d="M104.379 148.496C104.379 148.496 104.99 137.265 101.955 131.756C99.134 126.645 93.5553 119.995 88.6883 121.594C84.0615 123.12 81.9794 131.439 84.2931 137.38C88.6582 148.593 104.379 148.496 104.379 148.496Z" fill="#F5E3B4"/>
<path d="M103.14 145.16C103.304 144.239 103.386 143.314 103.589 142.385C103.756 141.557 103.923 140.729 103.577 139.929C103.494 139.723 103.522 139.482 103.489 139.262C103.422 138.858 103.384 138.453 103.296 138.061C103.251 137.884 103.067 137.715 103.087 137.537C103.192 136.664 103.071 135.814 102.58 135.076C102.738 134.347 102.287 133.803 101.958 133.246C101.599 132.7 101.411 132.098 100.839 131.66C100.695 131.548 100.572 131.386 100.526 131.218C100.218 130.17 99.5435 129.328 98.8509 128.517C98.0989 127.654 97.4665 126.722 96.9069 125.69C96.6171 125.125 96.1333 124.702 95.6753 124.285C95.1149 123.804 94.4625 123.427 93.842 123.068C92.9404 122.523 91.9099 122.219 90.9503 122.302C89.6649 122.435 88.7277 122.984 88.0137 123.831C87.6598 124.26 87.1717 124.607 86.7863 125.119C85.9989 126.103 85.3365 127.341 84.9672 128.684C84.6704 129.689 84.5943 130.762 84.6262 131.809C84.6376 132.795 84.8971 133.747 85.1076 134.677C85.1987 135.023 85.3138 135.347 85.4071 135.685C85.5199 136.018 85.6653 136.333 85.7828 136.649C86.093 137.275 86.4554 137.877 86.7726 138.477C87.2179 139.01 87.5848 139.595 88.0588 140.09L88.7938 140.81C88.9189 140.926 89.0331 141.049 89.1582 141.165L89.5792 141.48L90.3898 142.056C90.66 142.248 90.9829 142.38 91.26 142.546C91.5566 142.708 91.8159 142.907 92.0993 143.084C92.6518 143.388 93.1648 143.737 93.7437 144.011C94.3272 144.269 94.8837 144.592 95.5027 144.786C97.2269 145.45 99.0738 145.862 100.931 146.167C101.981 146.329 103.066 146.5 104.088 146.287C104.371 146.225 104.408 146.428 104.332 146.848C104.171 147.586 103.975 148.352 103.406 148.76C103.018 149.042 102.643 149.244 102.189 149.086C101.532 148.864 100.774 149.12 100.178 148.566C100.097 148.489 99.9597 148.489 99.8476 148.495C97.7908 148.661 95.8598 147.877 94.0145 147.116C93.4184 146.837 92.7754 146.665 92.1576 146.398C91.7668 146.211 91.3891 146.008 91.0137 145.798C90.4566 145.51 89.9906 145.055 89.4466 144.753C89.2398 144.633 89.026 144.539 88.8455 144.39C88.6782 144.225 88.5567 144.027 88.5296 143.717C88.5189 143.585 88.3166 143.448 88.1828 143.468C87.6733 143.552 87.37 143.277 87.1102 142.978L86.0694 141.753C85.7165 141.355 85.4707 140.866 85.155 140.433C84.9496 140.102 84.6617 139.804 84.4803 139.452C84.2881 139.107 84.0741 138.774 83.8624 138.432C83.1432 137.412 82.6077 136.221 82.2278 134.998C82.09 134.484 81.9654 133.954 81.9055 133.423C81.8261 132.897 81.7855 132.362 81.7559 131.821C81.7407 131.569 81.6416 131.322 81.6608 131.079C81.6813 130.625 81.595 130.124 81.8041 129.721C82.0357 129.268 82.1019 128.918 81.8435 128.408C81.6997 128.121 81.814 127.729 81.9161 127.417C82.0607 127.014 82.3401 126.657 82.5807 126.308C82.8934 125.896 83.2328 125.555 83.1936 124.947C83.1968 124.626 83.4585 124.301 83.6972 124.062C84.7933 123.023 85.6695 121.88 86.96 120.939C88.6854 119.609 91.3718 119.392 93.3446 120.123C94.1476 120.384 94.8516 120.774 95.5315 121.186C97.6042 122.504 99.1247 124.272 100.416 126.106C100.677 126.47 100.916 126.847 101.229 127.151C101.98 127.849 102.482 128.718 102.897 129.638C103.026 129.912 103.155 130.185 103.295 130.452C103.439 130.702 103.596 130.974 103.754 131.274L104.25 132.133L104.692 132.986C104.841 133.256 105.011 133.513 105.056 133.791C105.436 135.768 106.113 137.594 106.262 139.509C106.383 141.048 106.256 142.585 106.127 144.095C106.025 145.262 105.844 146.417 105.653 147.579C105.641 147.658 105.676 147.732 105.655 147.809C105.524 148.472 104.978 148.657 104.198 148.31C103.497 148.012 103.105 147.586 103.128 147.022L103.248 145.133L103.14 145.16Z" fill="#EBC464"/>
<path d="M101.035 155.008C101.035 155.008 109.644 139.718 121.161 141.628C126.273 142.474 131.497 147.191 130.852 150.831C130.061 155.26 121.951 157.645 119.864 157.922C114.558 158.623 101.035 155.008 101.035 155.008Z" fill="#F5E3B4"/>
<path d="M101.733 151.611C102.409 150.974 103.062 150.322 103.818 149.799C104.504 149.33 105.17 148.902 105.538 148.146C105.627 147.95 105.827 147.819 105.979 147.667L106.805 146.813C106.932 146.682 106.962 146.433 107.118 146.364C107.899 145.985 108.543 145.505 109.039 144.784C109.754 144.654 110.117 144.089 110.613 143.643C111.103 143.186 111.717 142.919 112.182 142.382C112.303 142.24 112.473 142.12 112.657 142.087C113.76 141.877 114.705 141.404 115.755 141.051C116.872 140.689 118.111 140.626 119.255 140.951C119.559 141.051 119.871 141.088 120.18 141.134C120.487 141.189 120.799 141.227 121.11 141.264L122.214 141.431C122.579 141.511 122.946 141.581 123.304 141.687C124.338 142.01 125.329 142.394 126.391 142.753C127.801 143.25 129.158 144.018 130.336 145.105C130.954 145.648 131.339 146.44 131.698 147.225C132.02 148.047 132.303 148.913 132.269 149.896C132.257 150.867 131.98 151.831 131.528 152.592C130.873 153.768 129.999 154.664 129.092 155.441C128.232 156.148 127.364 156.816 126.421 157.353C125.019 158.126 123.574 158.75 122.059 159.263C121.669 159.379 121.294 159.508 120.881 159.609C120.475 159.72 119.991 159.811 119.577 159.847C119.139 159.905 118.712 159.956 118.307 159.957C117.898 159.976 117.477 160.002 117.086 159.989C116.313 159.993 115.561 160.021 114.808 159.985C114.433 159.976 114.062 159.923 113.701 159.863C112.333 159.652 111.018 159.346 109.69 159.091C107.789 158.71 105.907 158.326 104.037 157.861C102.978 157.596 101.941 157.281 100.822 157.239C100.504 157.227 100.454 157.002 100.676 156.621C101.063 155.962 101.401 155.253 102.004 154.955C102.417 154.753 102.787 154.604 103.171 154.817C103.743 155.118 104.461 154.943 104.962 155.509C105.031 155.592 105.158 155.598 105.27 155.591C107.177 155.505 108.925 156.148 110.743 156.534C111.333 156.664 111.944 156.681 112.541 156.749L113.701 156.913C114.257 156.998 114.812 157.156 115.378 157.169C115.807 157.183 116.226 157.093 116.573 157.545C116.649 157.639 116.871 157.634 116.955 157.528C117.278 157.145 117.617 157.218 117.957 157.217C118.419 157.24 118.88 157.271 119.328 157.245C119.787 157.248 120.207 157.186 120.659 157.077C121.319 156.914 121.973 156.667 122.592 156.346C123.558 155.86 124.438 155.251 125.301 154.673C126.011 154.183 126.729 153.732 127.315 153.191C127.457 153.073 127.527 152.88 127.66 152.76C127.912 152.542 128.04 152.237 128.345 152.125C128.672 152.002 128.831 151.787 128.687 151.399C128.563 151.173 128.669 151.018 128.777 150.89C128.829 150.73 129.099 150.581 129.209 150.409C129.406 150.223 129.545 149.911 129.239 149.682C129.043 149.556 129.103 149.333 129.109 149.105C129.183 148.105 128.474 147.152 127.641 146.488C126.494 145.555 125.132 144.878 123.764 144.429C123.235 144.241 122.706 144.053 122.183 143.913C120.58 143.484 118.891 143.307 117.176 143.5C116.839 143.556 116.488 143.563 116.19 143.75C115.486 144.113 114.771 144.381 113.988 144.594C113.055 144.886 112.278 145.523 111.571 146.207C111.407 146.374 111.27 146.576 111.076 146.68C109.69 147.467 108.745 148.831 107.594 149.938C106.661 150.846 105.656 151.716 104.71 152.675C103.989 153.41 103.238 154.155 102.56 154.939C102.518 154.992 102.506 155.071 102.458 155.113C102.059 155.539 101.516 155.44 100.96 154.804C100.481 154.225 100.353 153.64 100.673 153.165C101.025 152.643 101.429 152.164 101.833 151.684L101.733 151.611Z" fill="#EBC464"/>
<path d="M113.737 116.069C113.351 111.849 120.764 106.613 127.623 107.146C133.734 107.625 140.039 112.733 139.384 116.821C138.748 120.841 131.558 122.949 126.515 122.838C121.171 122.72 114.091 119.996 113.737 116.069Z" fill="#F5E3B4"/>
<path d="M113.333 112.734L113.796 112.206C113.958 112.047 114.135 111.902 114.295 111.751C114.625 111.445 114.993 111.203 115.371 110.992C115.7 110.795 116.06 110.653 116.369 110.46C116.671 110.256 116.957 110.048 117.18 109.731C117.297 109.569 117.5 109.495 117.662 109.373C117.971 109.18 118.277 108.996 118.571 108.79C118.7 108.686 118.792 108.481 118.945 108.458C119.729 108.31 120.411 108.097 121.017 107.552C121.694 107.697 122.137 107.246 122.688 107.007C122.959 106.887 123.247 106.808 123.541 106.703C123.831 106.615 124.121 106.528 124.389 106.351C124.533 106.261 124.715 106.199 124.882 106.226C125.389 106.325 125.873 106.335 126.358 106.309C126.848 106.33 127.34 106.278 127.835 106.282C128.892 106.317 129.946 106.6 130.819 107.219C131.289 107.52 131.809 107.742 132.318 107.934C132.916 108.204 133.555 108.394 134.142 108.707C134.998 109.148 135.83 109.61 136.739 110.056C137.95 110.646 139.101 111.497 140.019 112.699C140.259 113.002 140.415 113.384 140.566 113.746C140.69 114.138 140.782 114.548 140.855 114.963C140.951 115.806 140.935 116.721 140.611 117.553C140.339 118.399 139.819 119.068 139.312 119.658C138.505 120.508 137.625 121.154 136.728 121.723C135.886 122.26 135.032 122.739 134.138 123.124C131.457 124.179 128.646 124.758 125.668 124.76C124.962 124.755 124.249 124.775 123.551 124.707C123.2 124.678 122.848 124.62 122.511 124.539C121.24 124.244 120.011 123.823 118.794 123.322C117.062 122.619 115.311 121.746 113.767 120.239C112.912 119.348 112.143 118.205 111.632 116.717C111.489 116.292 111.668 116.138 112.116 116.249C112.899 116.413 113.673 116.473 114.209 116.736C114.622 116.911 114.859 117.021 114.965 117.343C115.019 117.588 115.199 117.774 115.39 117.953C115.559 118.146 115.709 118.342 115.765 118.679C115.777 118.774 115.87 118.836 115.954 118.867C117.446 119.469 118.723 120.363 120.231 120.978C120.723 121.165 121.249 121.26 121.762 121.37L122.754 121.608C123.237 121.728 123.716 121.894 124.211 121.934C124.585 121.979 124.957 121.859 125.253 122.333C125.318 122.433 125.52 122.432 125.593 122.332C125.89 121.943 126.186 122.004 126.491 122.031C127.309 122.066 128.15 122.117 128.979 122.008C129.593 121.943 130.197 121.783 130.777 121.571C131.689 121.255 132.526 120.772 133.345 120.357C134.014 119.985 134.719 119.687 135.301 119.264C135.445 119.174 135.54 119.024 135.669 118.921C135.9 118.744 136.11 118.507 136.383 118.451C136.547 118.421 136.679 118.374 136.767 118.287C136.839 118.187 136.859 118.045 136.815 117.832C136.791 117.715 136.814 117.629 136.863 117.55C136.892 117.475 136.953 117.418 137.004 117.368C137.174 117.248 137.354 117.158 137.556 117.056C137.693 116.992 137.795 116.918 137.84 116.82C137.884 116.721 137.934 116.606 137.785 116.474C137.63 116.332 137.76 116.192 137.84 116.029C138.229 115.298 137.812 114.35 137.171 113.691C136.321 112.746 135.171 112.034 134.016 111.439C133.55 111.223 133.129 110.944 132.661 110.736C131.234 110.06 129.783 109.405 128.266 109.063C127.968 109.01 127.664 108.91 127.361 108.976C127.007 109.065 126.681 109.079 126.335 109.069C125.99 109.087 125.646 109.068 125.298 109.03C124.87 109.016 124.449 109.078 124.04 109.198C123.641 109.349 123.242 109.499 122.864 109.71C122.69 109.811 122.533 109.952 122.341 109.983C120.984 110.245 119.922 111.192 118.827 111.881C117.933 112.441 117.004 112.992 116.284 113.69C115.745 114.226 115.245 114.79 114.991 115.43C114.98 115.473 115.013 115.518 115.004 115.553C114.882 115.869 114.342 116.138 113.559 115.938C112.871 115.762 112.39 115.192 112.583 114.573L112.727 114.07C112.788 113.911 112.864 113.766 112.942 113.613C113.095 113.314 113.24 113.013 113.434 112.77L113.333 112.734Z" fill="#EBC464"/>
<path d="M112.005 106.682C112.005 106.682 104.012 77.3221 91.7653 83.5883C87.5477 85.7479 86.6548 93.2643 88.7681 98.4436C91.1853 104.375 98.0534 108.614 103.798 107.203C104.446 107.046 112.005 106.682 112.005 106.682Z" fill="#F5E3B4"/>
<path d="M109.794 103.865C109.667 102.931 109.474 102.006 109.38 101.053C109.304 100.205 109.219 99.3553 108.667 98.6743C108.521 98.4974 108.484 98.2578 108.393 98.0496C108.227 97.6743 108.063 97.2905 107.878 96.9192C107.795 96.7498 107.577 96.6364 107.552 96.4551C107.421 95.5744 107.113 94.7661 106.487 94.1205C106.484 93.3754 105.961 92.8951 105.533 92.3669C105.126 91.8261 104.82 91.2202 104.263 90.7953C104.107 90.6893 103.983 90.5365 103.919 90.3632C103.586 89.309 102.846 88.5043 102.125 87.7321C101.32 86.9284 100.635 86.0556 99.9379 85.1245C99.5628 84.6381 99.0418 84.2504 98.4864 83.9913C98.3241 83.911 98.1641 83.8222 97.991 83.7483L97.4726 83.591C97.128 83.4711 96.7735 83.422 96.4214 83.3644C95.4141 83.214 94.3574 83.3168 93.4934 83.8664C93.2005 83.9992 92.936 84.2316 92.666 84.4166C92.5395 84.5113 92.3873 84.5992 92.2779 84.6986L91.9648 85.0098C91.7422 85.1891 91.6018 85.4731 91.4112 85.6701C91.2605 85.9238 91.0972 86.1557 90.97 86.4248C90.7155 86.9631 90.3027 87.4406 90.0321 88.0389C89.4526 89.2069 89.0336 90.5649 88.9044 91.973C88.822 93.0353 88.9202 94.1092 89.131 95.1397C89.3494 96.108 89.7521 97.0061 90.1467 97.8654C91.3615 100.396 93.4814 102.499 95.9207 103.787C96.5098 104.091 97.1304 104.313 97.7494 104.506C98.0489 104.623 98.3598 104.697 98.6593 104.814C99.768 105.203 100.918 105.438 102.037 105.379C102.439 105.386 102.824 105.287 103.217 105.227C103.206 105.233 103.703 105.128 103.813 105.129L104.246 105.089L105.035 105.025C106.074 104.954 107.083 104.894 108.104 104.855C109.257 104.805 110.407 104.801 111.542 104.508C111.858 104.427 111.973 104.614 111.875 105.048C111.703 105.792 111.576 106.575 111.047 107.04C110.687 107.357 110.355 107.599 109.889 107.52C109.215 107.395 108.524 107.779 107.844 107.367C107.748 107.314 107.612 107.342 107.504 107.368C106.539 107.679 105.553 107.792 104.579 107.862L103.949 107.913L103.157 108.023C102.628 108.111 102.097 108.07 101.573 108.104C101.231 108.077 100.889 108.086 100.54 108.084C100.191 108.083 99.8538 108.038 99.512 108.011C99.0626 107.973 98.6408 107.833 98.2098 107.726C97.5954 107.516 97.0011 107.265 96.4131 107.024C95.9593 106.866 95.4677 106.78 95.2991 106.175C95.2667 106.056 95.0358 105.957 94.9037 106.004C94.4055 106.183 94.0913 105.915 93.7657 105.69C92.8979 105.053 92.1029 104.317 91.3623 103.548C90.7946 102.992 90.2401 102.421 89.6902 101.832C88.8205 100.928 88.0281 99.9074 87.4103 98.7495C86.8992 97.7763 86.6111 96.725 86.3402 95.6784C86.2776 95.4319 86.1652 95.1996 86.1198 94.9577C86.0306 94.5019 85.9008 94.0261 86.0203 93.5802C86.1318 93.0955 86.1917 92.7348 85.8268 92.2787C85.6202 92.0211 85.6744 91.6129 85.7251 91.2865C85.7902 90.8721 85.9822 90.4641 86.1782 90.0755C86.3949 89.6098 86.6687 89.2053 86.5105 88.6299C86.4211 88.3119 86.6468 87.9497 86.8238 87.6663C87.6778 86.434 88.2722 85.1414 89.2337 83.9196C89.3838 83.7025 89.5806 83.5163 89.769 83.3279C89.9659 83.1417 90.1331 82.9292 90.3683 82.7717L91.0441 82.2728C91.2661 82.1301 91.4984 82.0178 91.7244 81.8945C91.9504 81.7713 92.1787 81.6395 92.4195 81.5294L93.182 81.2559C93.6808 81.0404 94.2418 80.9701 94.7926 80.8696C95.6663 80.7637 96.5736 80.8415 97.4208 81.0409C98.7331 81.3558 99.9612 81.9513 100.941 82.7192C101.469 83.0812 101.886 83.5145 102.337 83.9204C102.735 84.3577 103.173 84.7785 103.527 85.2409C103.816 85.6032 104.105 85.9654 104.429 86.2637C105.219 86.953 105.788 87.8131 106.233 88.7227C106.785 89.8172 107.495 90.77 108.211 91.7337C108.379 91.9626 108.58 92.1727 108.677 92.4284C109.375 94.2142 110.49 95.7811 111.136 97.5532C111.661 98.9895 112.004 100.487 112.332 101.972C112.586 103.115 112.771 104.277 112.945 105.444C112.961 105.522 113.016 105.592 113.023 105.668C113.1 106.341 112.649 106.688 111.791 106.596C111.036 106.532 110.524 106.248 110.37 105.692C110.195 105.075 110.059 104.451 109.893 103.836L109.794 103.865Z" fill="#EBC464"/>
<path d="M119.128 74.6447C119.128 74.6447 113.81 86.2959 117.422 93.8063C120.548 100.314 128.601 105.311 132.942 102.863C137.067 100.531 136.222 92.2645 134.118 86.2973C131.149 77.8655 119.128 74.6447 119.128 74.6447Z" fill="#F5E3B4"/>
<path d="M119.156 78.1611C118.712 78.961 118.332 79.7965 117.866 80.609C117.443 81.3317 117.062 82.066 117.144 82.9243C117.169 83.1422 117.083 83.3582 117.052 83.5794C117 83.979 116.911 84.378 116.904 84.7805C116.901 84.9635 117.029 85.1723 116.957 85.3369C116.606 86.1341 116.533 86.9877 116.797 87.821C116.502 88.4771 116.724 89.1245 116.946 89.7354C117.046 90.0472 117.099 90.3646 117.163 90.6757C117.265 90.9789 117.396 91.2803 117.591 91.5441C117.701 91.6838 117.765 91.8571 117.764 92.0315C117.803 92.5381 117.956 93.0294 118.136 93.4911C118.391 93.9454 118.64 94.3888 118.951 94.8031C119.601 95.7033 120.18 96.6302 120.707 97.6812C120.977 98.2498 121.45 98.6798 121.895 99.1114C122.18 99.353 122.469 99.5775 122.769 99.7957L123.688 100.41C124.12 100.718 124.599 100.957 125.068 101.193C125.56 101.38 126.043 101.601 126.565 101.677C127.923 101.958 129.282 102.065 130.384 101.864C130.65 101.797 130.938 101.819 131.184 101.757C131.31 101.735 131.441 101.724 131.581 101.716L131.934 101.599C132.877 101.337 133.697 100.473 134.155 99.2444C134.491 98.3329 134.623 97.293 134.584 96.2352C134.571 95.2575 134.376 94.2681 134.205 93.2942C133.952 91.8387 133.576 90.3963 133.117 88.9869C132.884 88.2811 132.62 87.5855 132.34 86.9134C132.01 86.3286 131.796 85.72 131.371 85.1832C131.183 84.9217 131.016 84.6562 130.793 84.4221L130.127 83.7197C129.927 83.4731 129.672 83.2578 129.463 83.0088C128.682 82.0828 127.721 81.2463 126.7 80.4949C125.213 79.4256 123.541 78.5643 121.834 77.8035C120.874 77.3718 119.863 76.9264 118.822 76.8679C118.526 76.8436 118.55 76.648 118.738 76.2572C119.091 75.5892 119.486 74.9047 120.132 74.6551C120.58 74.4904 120.985 74.3874 121.392 74.6526C121.96 75.0346 122.753 74.9898 123.187 75.6667C123.246 75.756 123.381 75.8013 123.486 75.8203C125.502 76.1858 127.165 77.4217 128.737 78.6517C129.252 79.0651 129.827 79.3848 130.335 79.824C130.664 80.1051 131.006 80.3714 131.284 80.7034C131.701 81.1733 132.106 81.6495 132.496 82.1491C132.793 82.5137 133.226 82.7858 133.08 83.3991C133.046 83.5277 133.195 83.724 133.328 83.7413C133.839 83.8231 134.027 84.1858 134.198 84.5439L134.786 86.0524L135.232 87.5412C135.459 88.2727 135.705 89.0003 135.982 89.7177C136.378 90.8439 136.835 91.9863 137.092 93.1856C137.319 94.1927 137.398 95.234 137.445 96.2941C137.451 96.5439 137.525 96.7842 137.521 97.0403C137.519 97.4903 137.53 97.9986 137.347 98.4089C137.104 98.8677 136.991 99.2232 137.231 99.7655C137.34 100.08 137.191 100.499 137.041 100.817C136.819 101.236 136.498 101.609 136.153 101.939C135.696 102.341 135.321 102.644 135.054 103.262C134.982 103.427 134.863 103.597 134.685 103.715C134.506 103.832 134.298 103.923 134.114 103.993C132.467 104.582 130.959 104.793 129.467 104.77C127.448 104.725 125.537 104.176 123.8 103.353C123.139 103.01 122.48 102.622 121.882 102.177C119.974 100.83 118.404 99.0763 117.199 97.0903C116.975 96.6904 116.752 96.2905 116.45 95.9431C116.121 95.5241 115.835 95.0801 115.607 94.5961C115.404 94.0824 115.235 93.5499 115.101 93.018C114.998 92.3747 114.843 91.7541 114.659 91.1352C114.538 90.5239 114.355 89.905 114.219 89.2805C114.168 88.9911 114.069 88.7074 114.083 88.417C114.213 86.4211 114.044 84.4461 114.453 82.5432C114.806 81.0204 115.377 79.5745 115.991 78.1767C116.474 77.0933 117.027 76.0562 117.613 75.0368C117.648 74.9728 117.654 74.8825 117.69 74.8185C118.057 74.2369 118.629 74.2616 119.228 74.8724C119.775 75.4048 120.003 75.9254 119.783 76.4363L119.048 78.1507L119.156 78.1611Z" fill="#EBC464"/>
<path d="M118.491 73.674C118.491 73.674 110.817 72.5459 108.128 64.3362C106.993 60.8894 107.354 55.9778 110.554 53.9776C113.531 52.1287 118.679 54.4179 120.752 57.9321C123.77 63.0598 118.491 73.674 118.491 73.674Z" fill="#F5E3B4"/>
<path d="M115.762 74.1912C115.16 73.7633 114.575 73.3401 114.097 72.7895C113.682 72.283 113.317 71.7903 112.683 71.6203C112.52 71.5766 112.413 71.4284 112.275 71.327C112.041 71.1358 111.82 70.9297 111.576 70.7447C111.47 70.6611 111.243 70.6831 111.198 70.5424C110.929 69.9006 110.558 69.4336 109.97 69.0921C109.923 68.51 109.467 68.259 109.116 67.8893C108.743 67.532 108.587 67.0493 108.126 66.7143C108.002 66.6261 107.908 66.4996 107.891 66.3572C107.84 65.93 107.762 65.5325 107.605 65.1596C107.456 64.7889 107.279 64.4199 107.137 64.0235C106.829 63.1872 106.779 62.2735 107.033 61.395C107.168 60.9257 107.163 60.4649 107.177 60.0001C107.206 59.4472 107.172 58.8869 107.257 58.3306C107.374 57.5166 107.542 56.7163 107.721 55.8452C107.962 54.6693 108.626 53.4597 109.688 52.5862C110.287 52.1312 111.057 51.9332 111.743 51.8779C113.151 51.7315 114.409 52.0778 115.55 52.4846C116.401 52.8046 117.229 53.1458 118.027 53.5619C118.755 53.9681 119.528 54.3407 120.197 54.8967C120.693 55.3055 121.151 55.7589 121.586 56.2614C121.793 56.519 121.995 56.7936 122.191 57.0575C122.366 57.3618 122.537 57.6834 122.7 58.0026C123.303 59.2852 123.573 60.6441 123.648 61.9049C123.711 62.5282 123.744 63.1251 123.747 63.7323C123.757 64.0382 123.707 64.3281 123.657 64.6179C123.557 65.161 123.443 65.6908 123.296 66.203C123.165 66.7282 123.021 67.2318 122.866 67.7416C122.449 69.1922 121.995 70.6142 121.416 71.9846C121.089 72.7607 120.715 73.5058 120.562 74.3839C120.513 74.6371 120.291 74.642 119.953 74.3586C119.365 73.8793 118.715 73.4571 118.472 72.9234C118.31 72.5675 118.191 72.2598 118.414 72.0073C118.75 71.647 118.603 71.0653 119.186 70.8081C119.268 70.7751 119.277 70.6762 119.28 70.5944C119.292 69.1456 119.968 67.9577 120.356 66.6465C120.497 66.2248 120.489 65.7725 120.57 65.3346L120.713 64.4909C120.793 64.0896 120.929 63.6849 120.919 63.2778C120.911 62.9634 120.815 62.6711 121.254 62.4029C121.344 62.3441 121.323 62.1823 121.218 62.1267C120.809 61.9066 120.856 61.662 120.869 61.4081C120.843 60.7488 120.833 60.0661 120.63 59.4513C120.585 59.2094 120.455 59.0091 120.333 58.8111C120.201 58.6194 120.099 58.4175 119.925 58.2423C119.422 57.6848 118.752 57.3032 118.145 56.9291C117.644 56.602 117.131 56.2898 116.601 56.0376C116.477 55.986 116.318 55.9984 116.196 55.9382C115.978 55.8247 115.705 55.8158 115.554 55.5915C115.392 55.3369 115.196 55.2475 114.868 55.5089C114.685 55.6437 114.507 55.5868 114.371 55.5135C114.187 55.4092 114.031 55.2386 113.853 55.0806C113.643 54.8682 113.422 54.6987 113.153 54.9483C113.015 55.0859 112.857 55.0251 112.699 54.9277C112.364 54.7369 112.011 54.7159 111.696 54.7967C111.389 54.8799 111.133 55.0779 110.888 55.3429C110.258 56.0472 109.965 56.9702 109.822 57.9152C109.768 58.2868 109.686 58.66 109.648 59.0448C109.537 60.2465 109.464 61.5134 109.611 62.784C109.637 63.0299 109.658 63.2929 109.805 63.4978C110.146 63.9751 110.326 64.5379 110.426 65.1252C110.517 65.4712 110.673 65.7796 110.869 66.08C111.068 66.3633 111.344 66.6026 111.581 66.8499C111.698 66.9638 111.849 67.0503 111.933 67.1831C112.413 68.2031 113.473 68.7075 114.26 69.4054C114.902 69.9911 115.572 70.6117 116.327 71.1541C116.906 71.5664 117.517 71.9966 118.164 72.3261C118.204 72.3462 118.256 72.3234 118.305 72.3457C118.647 72.5474 118.689 73.0734 118.367 73.8323C118.052 74.4924 117.605 74.8229 117.175 74.68C116.69 74.5319 116.244 74.3112 115.809 74.0843L115.762 74.1912Z" fill="#EBC464"/>
<path d="M149.471 66.998C145.791 68.3183 141.253 64.1619 139.353 60.6204C137.322 56.8141 137.118 51.4387 139.985 47.9064C140.618 47.1204 142.03 45.3851 144.141 45.188C148.234 44.7961 152.31 50.4003 153.218 55.4495C153.911 59.3108 153.253 65.6406 149.471 66.998Z" fill="#F5E3B4"/>
<path d="M146.689 68.3728C145.871 68.0339 145.152 67.5933 144.6 67.0135C144.107 66.4863 143.716 65.9586 143.039 65.7406C142.861 65.6838 142.745 65.5332 142.614 65.4062L141.867 64.7649C141.754 64.6704 141.535 64.6667 141.47 64.53C141.161 63.8681 140.791 63.3279 140.156 62.9555C140.104 62.3259 139.615 62.0572 139.239 61.6439C138.863 61.2307 138.669 60.7193 138.204 60.3282C138.074 60.2292 137.995 60.0793 137.98 59.9283C137.89 58.9945 137.551 58.205 137.296 57.3374C137.019 56.4177 137.001 55.4205 137.325 54.4872C137.484 53.9968 137.512 53.4806 137.563 52.9798C137.631 52.3824 137.648 51.7712 137.789 51.175C137.985 50.3084 138.238 49.4665 138.492 48.5514C138.879 47.3135 139.412 46.2157 140.356 45.1637C140.836 44.64 141.544 44.2966 142.271 44.0505C143.749 43.5091 145.426 43.7655 146.691 44.3251C147.653 44.7482 148.525 45.2667 149.309 45.872C150.023 46.4309 150.763 46.9966 151.352 47.6783C153.118 49.6953 154.399 52.0508 155.127 54.7178C155.314 55.3561 155.48 56.007 155.592 56.6526C155.651 56.9809 155.656 57.3039 155.661 57.627C155.658 58.8391 155.524 60.0253 155.321 61.2298C155.027 62.943 154.549 64.7263 153.367 66.3945C152.692 67.3348 151.712 68.1472 150.604 68.8886C150.288 69.1072 150.116 68.9601 150.089 68.5118C150.031 67.7335 149.872 66.9557 149.999 66.411C150.067 65.988 150.11 65.7239 150.401 65.5996C150.845 65.4154 150.876 64.854 151.483 64.7135C151.572 64.6913 151.606 64.5993 151.62 64.5113C151.892 63.0862 152.449 61.8295 152.719 60.3765C152.789 59.9083 152.755 59.4211 152.743 58.9494L152.75 58.0323C152.749 57.5909 152.817 57.1313 152.723 56.6926C152.666 56.3558 152.486 56.0685 152.871 55.6939C152.956 55.6157 152.903 55.4361 152.786 55.3954C152.34 55.2393 152.321 54.9677 152.274 54.6978C152.11 53.9737 151.948 53.2411 151.654 52.5558C151.443 52.0398 151.136 51.5717 150.795 51.1311C150.238 50.4672 149.614 49.8775 148.995 49.3439C148.492 48.8876 148.009 48.4273 147.49 48.0676C147.364 47.988 147.203 47.9724 147.086 47.8951C146.873 47.7279 146.596 47.6995 146.479 47.4478C146.344 47.1634 146.156 47.0763 145.815 47.288C145.625 47.4119 145.471 47.3705 145.348 47.2823C145.188 47.1569 145.055 47.0384 144.892 46.857C144.706 46.6601 144.469 46.514 144.258 46.7882C144.16 46.9459 143.991 46.8913 143.824 46.8282C143.081 46.5832 142.328 47.098 141.845 47.7681C141.673 47.9978 141.508 48.2383 141.355 48.5005C141.18 48.7754 141.055 49.0359 140.943 49.2816C140.698 49.7856 140.547 50.3149 140.407 50.8379C140.369 51.0483 140.305 51.2517 140.25 51.4575L140.11 52.0817C139.888 53.3913 139.734 54.756 139.824 56.1677C139.832 56.4456 139.866 56.7304 139.993 56.9758C140.32 57.5411 140.445 58.1353 140.573 58.7576C140.719 59.5136 141.202 60.1117 141.76 60.6378C141.883 60.7626 142.06 60.856 142.137 61.0145C142.693 62.1284 143.821 62.7889 144.673 63.5504C145.369 64.1779 146.041 64.8265 146.787 65.2654C147.358 65.6022 147.948 65.8705 148.584 65.9307C148.621 65.9313 148.66 65.8868 148.697 65.8874C149.039 65.9147 149.395 66.3686 149.433 67.1874C149.453 67.9004 149.125 68.474 148.533 68.4899C148.211 68.5232 147.904 68.5052 147.597 68.4505C147.283 68.4215 147 68.3457 146.711 68.259L146.689 68.3728Z" fill="#EBC464"/>
<path d="M149.211 68.7925C149.211 68.7925 147.88 76.6051 151.181 82.2221C156.073 90.5442 164.645 93.0891 168.153 90.1144C171.077 87.6359 169.436 80.488 166.141 75.7088C161.758 69.361 149.211 68.7925 149.211 68.7925Z" fill="#F5E3B4"/>
<path d="M150.239 71.8146C150.036 72.6056 149.939 73.4157 149.729 74.2325C149.553 74.9573 149.399 75.7061 149.755 76.3989C149.836 76.5769 149.835 76.7878 149.866 76.98C149.937 77.33 149.998 77.6862 150.117 78.0306C150.169 78.1822 150.354 78.3145 150.349 78.4694C150.308 79.2395 150.491 79.9962 151.037 80.5652C150.948 81.2397 151.458 81.6337 151.825 82.0813C152.234 82.5123 152.478 83.0741 153.031 83.3783C153.176 83.454 153.307 83.5811 153.359 83.7326C153.679 84.6639 154.4 85.2982 155.098 85.9171C155.871 86.5653 156.544 87.2785 157.182 88.1203C157.532 88.5633 157.996 88.8898 158.487 89.1499C159.056 89.4954 159.696 89.6762 160.302 89.9211C160.749 90.0686 161.21 90.2012 161.667 90.2778C162.134 90.3201 162.599 90.399 163.062 90.3206C164.289 90.1992 165.42 89.8866 166.199 89.3787C166.376 89.2331 166.618 89.1877 166.782 89.057C166.877 89.009 166.973 88.9611 167.077 88.9155C167.164 88.8653 167.219 88.7973 167.297 88.7448C167.912 88.303 168.342 87.1777 168.426 86.0057C168.474 85.1087 168.339 84.172 168.076 83.2654C167.834 82.4195 167.454 81.61 167.08 80.8114C166.536 79.618 165.885 78.4789 165.147 77.4265C164.956 77.1821 164.767 76.8926 164.576 76.6763L163.991 76.0506C163.82 75.8303 163.549 75.675 163.335 75.4798C163.108 75.2994 162.893 75.1042 162.62 74.9575L161.874 74.5186C161.616 74.3851 161.331 74.2813 161.073 74.1477L160.281 73.7426C159.312 73.2074 158.257 72.7224 157.161 72.3552C155.574 71.829 153.914 71.4759 152.237 71.1829C151.288 71.0205 150.316 70.8427 149.378 71.0142C149.109 71.0614 149.088 70.8629 149.181 70.4468C149.368 69.7157 149.581 68.955 150.109 68.5634C150.466 68.2916 150.81 68.108 151.21 68.2611C151.791 68.4905 152.474 68.2414 152.99 68.7841C153.062 68.8585 153.183 68.8541 153.286 68.8451C155.122 68.6477 156.839 69.3376 158.516 69.9708L160.2 70.5137C160.564 70.6297 160.912 70.8056 161.26 70.9816C161.509 71.1128 161.757 71.2526 161.996 71.3901C162.23 71.5448 162.466 71.6908 162.725 71.8244C163.107 72.0095 163.549 72.1095 163.599 72.711C163.612 72.834 163.804 72.9406 163.925 72.8996C164.406 72.7526 164.684 72.9834 164.933 73.2524C165.27 73.609 165.637 73.9188 165.936 74.3114C166.224 74.7102 166.537 75.088 166.819 75.4759C167.216 76.051 167.624 76.6199 168.052 77.1847C168.687 78.0717 169.367 78.9616 169.872 79.9605C170.301 80.7924 170.594 81.6886 170.882 82.6021C170.945 82.812 171.076 83.0123 171.128 83.2285C171.235 83.6157 171.366 84.055 171.286 84.4562C171.184 84.9067 171.15 85.2377 171.54 85.6361C171.745 85.8656 171.712 86.2612 171.666 86.5705C171.614 86.9701 171.394 87.3798 171.216 87.7363C171.1 87.9626 170.941 88.1774 170.864 88.3957C170.785 88.6226 170.74 88.8587 170.739 89.1709C170.76 89.5071 170.514 89.8733 170.22 90.116C168.995 91.258 167.75 91.9261 166.431 92.3905C164.634 92.9932 162.756 93.0047 161.004 92.6824C160.329 92.529 159.645 92.3366 159.013 92.0568C157.011 91.2631 155.297 89.9403 153.858 88.452C153.579 88.1566 153.313 87.8464 152.959 87.623C152.209 87.0635 151.601 86.3492 151.169 85.5259C150.884 85.0453 150.562 84.6007 150.249 84.1583C149.929 83.7051 149.544 83.3261 149.21 82.8232C149.05 82.5966 148.847 82.3951 148.75 82.1394C148.138 80.3765 147.313 78.7219 147.096 76.9269C146.931 75.4859 147.049 74.0475 147.219 72.6594C147.36 71.5853 147.597 70.5278 147.875 69.4904C147.894 69.4218 147.869 69.3417 147.888 69.2731C148.076 68.6713 148.638 68.5645 149.385 68.9667C150.047 69.3094 150.419 69.7033 150.361 70.1932L150.144 71.8259L150.239 71.8146Z" fill="#EBC464"/>
<path d="M174.568 57.9832C178.55 57.5248 181.698 49.9602 180.658 43.7913C179.82 38.8252 175.946 32.8799 171.896 33.2833C168.024 33.6703 165.438 39.7222 165.341 44.3368C165.192 51.1337 170.376 58.4681 174.568 57.9832Z" fill="#F5E3B4"/>
<path d="M176.129 55.8179C176.723 55.5545 177.231 55.0656 177.837 54.6215C178.361 54.2105 178.883 53.7348 178.921 53.0099C178.942 52.8315 179.056 52.6784 179.119 52.5115C179.23 52.2012 179.364 51.9063 179.432 51.5845C179.462 51.4365 179.367 51.2454 179.452 51.1306C179.677 50.8415 179.833 50.5341 179.922 50.1997C180.021 49.8677 180.048 49.5258 179.961 49.1626C180.4 48.692 180.211 48.1269 180.154 47.5876C180.096 47.0484 180.176 46.5093 179.909 45.9967C179.834 45.8663 179.802 45.7107 179.841 45.5649C180.099 44.7059 179.855 43.8685 179.61 43.0678C179.308 42.2058 179.129 41.3308 179.05 40.3541C179.005 39.8366 178.785 39.3549 178.536 38.9115C178.248 38.3749 177.849 37.9095 177.491 37.4277C176.971 36.7278 176.322 36.1312 175.575 35.729C174.566 35.2103 173.544 34.9089 172.759 34.956C172.656 34.9651 172.568 34.9506 172.471 34.934C172.376 34.9453 172.295 34.9418 172.198 34.9251C172.009 34.8745 171.832 34.9189 171.632 34.9112C170.875 34.9932 169.949 35.4987 169.229 36.2983C168.689 36.9071 168.27 37.6493 167.964 38.4494C167.68 39.2004 167.525 39.9858 167.378 40.7735C167.143 41.9236 167.029 43.1059 167.068 44.2283C167.135 45.3491 167.314 46.4631 167.666 47.5498C167.849 48.0675 168.063 48.5749 168.308 49.0635C168.427 49.3066 168.513 49.5686 168.601 49.822C168.967 50.7561 169.356 51.7057 169.904 52.5417C170.665 53.7473 171.668 54.8063 172.675 55.4347C173.224 55.8207 173.828 56.0376 174.183 55.7744C174.273 55.7156 174.336 55.9255 174.335 56.3389C174.314 57.0685 174.254 57.8425 173.723 58.2793C173.377 58.5082 172.963 58.682 172.586 58.4432C172.324 58.2536 172.011 58.1881 171.733 58.0585C171.469 57.9141 171.205 57.7331 171.083 57.3973C171.053 57.3064 170.95 57.2422 170.856 57.217C169.166 56.5986 168.2 55.0256 167.386 53.6038L166.498 52.2174C166.314 51.9107 166.182 51.5813 166.041 51.2495C165.827 50.7786 165.748 50.2519 165.532 49.7897C165.37 49.4339 165.147 49.0986 165.469 48.6518C165.539 48.5604 165.461 48.374 165.343 48.3332C164.883 48.164 164.871 47.8301 164.819 47.5127C164.731 47.0849 164.713 46.6389 164.681 46.2078C164.633 45.772 164.64 45.3329 164.628 44.8978C164.598 44.2557 164.564 43.5941 164.547 42.9371C164.508 41.9159 164.474 40.8776 164.64 39.8469C164.762 38.9791 165.058 38.1487 165.348 37.3074C165.418 37.1148 165.432 36.8889 165.519 36.7009C165.659 36.3523 165.803 35.95 166.098 35.7073C166.436 35.4396 166.653 35.2129 166.582 34.6885C166.551 34.3951 166.807 34.1238 167.017 33.9228C167.28 33.6624 167.683 33.4948 168.028 33.3391C168.488 33.1682 168.879 33.0434 169.174 32.5618C169.344 32.3041 169.704 32.1616 170.055 32.1546C171.502 32.0002 172.859 31.9778 174.158 32.3076C175.914 32.7505 177.346 33.7499 178.525 34.8743C179.004 35.3151 179.372 35.8273 179.751 36.3332C180.885 37.9326 181.612 39.7448 182.024 41.6378C182.097 42.0159 182.172 42.3853 182.324 42.7474C182.508 43.1553 182.624 43.5814 182.67 44.0257C182.727 44.4637 182.737 44.9075 182.685 45.3437C182.643 45.8748 182.654 46.3831 182.663 46.8999C182.691 47.4129 182.716 47.9343 182.742 48.4558C182.76 48.6994 182.811 48.9522 182.738 49.1899C182.283 50.7863 182.194 52.4901 181.438 54.0426C180.838 55.2878 179.921 56.4113 178.824 57.3855C177.963 58.1289 176.915 58.7486 175.688 59.0078C175.601 59.0214 175.531 59.0762 175.447 59.0813C174.689 59.1352 174.501 58.6347 174.647 57.7824C174.761 57.0135 174.845 56.6317 175.142 56.4817L175.407 56.3871L175.668 56.2364C175.845 56.1555 176.03 56.0488 176.199 55.9009L176.129 55.8179Z" fill="#EBC464"/>
<path d="M174.456 59.9077C174.45 56.5703 181.48 53.7582 186.859 53.1963C192.719 52.5887 200.533 54.2596 201.321 57.9718C201.741 59.9683 199.984 61.8959 199.113 62.848C194.823 67.5427 187.07 67.5329 181.73 65.6151C180.517 65.1706 174.462 63.0061 174.456 59.9077Z" fill="#F5E3B4"/>
<path d="M174.824 56.5524C175.623 56.0405 176.407 55.6532 177.241 55.4541C177.987 55.2772 178.701 55.1837 179.263 54.6635C179.41 54.5282 179.625 54.5124 179.803 54.4314L180.792 54.0347C180.937 53.9725 181.054 53.7743 181.212 53.7705C181.991 53.7771 182.699 53.6362 183.357 53.2058C183.993 53.4039 184.486 53.0397 185.045 52.8402C185.597 52.6299 186.196 52.6249 186.744 52.294C186.894 52.2147 187.071 52.1703 187.228 52.203C188.196 52.398 189.125 52.2888 190.087 52.2339C191.11 52.1865 192.13 52.3587 193.083 52.8161C193.589 53.0528 194.134 53.1438 194.664 53.2583C195.299 53.3917 195.955 53.4479 196.585 53.6351C197.513 53.8746 198.419 54.1633 199.415 54.4578C200.075 54.6713 200.75 54.9625 201.377 55.4704C201.536 55.5958 201.693 55.7298 201.842 55.8615C201.981 56.0275 202.12 56.1934 202.257 56.368C202.555 56.696 202.715 57.1616 202.902 57.5975C203.215 58.5544 202.968 59.5816 202.642 60.3491C201.949 61.9091 200.852 62.8833 199.908 63.7975C199.127 64.5164 198.342 65.2525 197.452 65.8318C196.645 66.406 195.797 66.9322 194.888 67.341C192.16 68.4664 189.219 68.8454 186.328 68.6955C185.627 68.673 184.927 68.6418 184.231 68.5655C183.885 68.5188 183.535 68.4526 183.203 68.3545C182.571 68.1759 181.955 67.9739 181.338 67.7353C180.729 67.5076 180.177 67.2679 179.583 67.0168C177.916 66.2761 176.243 65.5245 174.651 64.1241C174.429 63.9266 174.209 63.6838 173.991 63.4692C173.773 63.2179 173.56 62.9495 173.356 62.6834C172.957 62.0803 172.533 61.3971 172.325 60.4957C172.195 59.9833 172.4 59.836 172.832 60.0069C173.616 60.272 174.346 60.3941 174.908 60.6275C175.267 60.7972 175.583 60.8541 175.653 61.1761C175.828 61.6549 176.415 61.794 176.536 62.4419C176.556 62.5391 176.652 62.5924 176.735 62.624C178.279 63.1387 179.57 64.0453 181.075 64.7058C181.56 64.9185 182.092 65.0244 182.598 65.1599L183.571 65.4389C184.036 65.591 184.518 65.7477 185.003 65.8226C185.379 65.859 185.751 65.7749 186.025 66.2618C186.079 66.3682 186.281 66.3673 186.363 66.2696C186.675 65.8938 186.966 65.9719 187.278 66.0094L188.514 66.1292C188.925 66.1383 189.342 66.1583 189.754 66.1307C190.362 66.0914 190.973 65.9704 191.549 65.7755C192.005 65.6497 192.425 65.4221 192.85 65.2419C193.261 65.012 193.668 64.8272 194.054 64.5904C194.704 64.2224 195.359 63.9018 195.92 63.4548C196.049 63.3515 196.138 63.1915 196.273 63.099C196.512 62.9244 196.681 62.6387 196.99 62.5836C197.344 62.5314 197.523 62.3407 197.486 61.8987C197.453 61.6419 197.634 61.5158 197.829 61.3382C198.062 61.1526 198.34 61.0432 198.613 60.9143C198.936 60.7712 199.262 60.6195 199.206 60.2095C199.173 59.9893 199.359 59.846 199.518 59.7324C200.265 59.2067 200.322 58.3766 199.922 57.8832C199.352 57.161 198.239 56.6514 197.017 56.3423C196.537 56.2136 196.064 56.0593 195.564 55.9346C194.018 55.5663 192.394 55.2138 190.744 54.9923C190.418 54.9416 190.091 54.8909 189.767 54.9694C189.024 55.1378 188.296 55.1083 187.559 55.0485C186.665 54.956 185.805 55.2494 184.973 55.5777C184.778 55.6541 184.595 55.7888 184.39 55.7983C182.952 55.9184 181.696 56.6939 180.414 57.1589C179.374 57.5419 178.314 57.8642 177.414 58.34C176.736 58.7097 176.114 59.1126 175.8 59.5616C175.783 59.5936 175.78 59.6388 175.773 59.6645C175.715 59.7777 175.528 59.8563 175.276 59.9081C175.025 59.9512 174.689 59.9714 174.308 59.8143C173.968 59.6772 173.707 59.4511 173.564 59.1644C173.428 58.8801 173.457 58.5663 173.592 58.2348C173.763 57.904 173.986 57.6235 174.197 57.3493C174.433 57.1186 174.666 56.8684 174.904 56.6657L174.824 56.5524Z" fill="#EBC464"/>
<path d="M165.716 65.2577C164.262 65.9524 162.797 66.6167 161.279 67.1747C159.775 67.7458 158.229 68.2322 156.657 68.5459C153.837 69.1229 151.072 69.1905 148.183 69.2711C147.433 69.2907 146.641 69.1611 145.886 69.0968C144.504 68.9745 143.136 68.8654 141.781 68.9158C141.159 68.9419 140.523 69.1207 139.95 69.1326C138.541 69.1412 137.098 69.315 135.678 69.5408C134.263 69.7776 132.854 70.0983 131.492 70.5513C129.231 70.7264 127.156 71.5764 125.102 72.4504C123.057 73.3268 120.962 74.254 119.274 75.6488C118.847 76.0399 118.286 76.3857 117.826 76.7311C114.883 78.6258 112.589 81.6317 111.972 85.0318C111.297 88.6828 111.829 92.6297 111.86 96.5618C111.904 98.6596 112.092 100.842 112.232 102.993C112.374 105.549 112.542 108.112 112.533 110.682C112.509 114.407 112.385 118.095 112.236 121.804C112.047 126.762 111.507 131.763 110.465 136.713C109.939 139.227 109.113 141.726 108.168 144.156C106.312 149.025 103.849 153.723 100.469 157.797C99.2267 159.348 97.795 160.747 96.2851 162.061C95.4954 162.677 94.7307 163.336 93.865 163.857C93.4233 164.134 93.0719 164.416 92.5593 164.683C92.0615 164.964 91.5587 165.16 91.0605 165.339C89.2175 165.975 87.4246 166.322 85.6363 166.651C83.8503 166.972 82.0673 167.248 80.2934 167.489C69.7884 168.901 59.1631 170.043 48.5505 170.691L40.9431 171.235C39.6972 171.323 38.4426 171.41 37.1966 171.499C34.8985 171.673 32.6427 171.896 30.49 172.385C28.3333 172.855 26.2432 173.59 24.1975 174.503C18.3504 177.154 13.3326 181.443 9.20019 186.474C6.84627 189.326 4.73164 192.417 3.10783 195.768C2.64644 196.701 2.30713 196.904 2.12253 196.358C1.81548 195.412 1.40142 194.557 1.95306 192.738C2.36961 191.527 2.75919 190.381 3.75493 189.169C5.13502 187.379 6.34167 185.276 8.11811 183.859C8.37335 183.661 8.66135 183.306 8.88582 183.017C12.9243 177.685 18.6913 173.653 24.9693 171.246C27.0257 170.464 29.1329 169.733 31.3015 169.322C32.7078 169.046 34.1192 168.855 35.5339 168.719C37.5867 168.534 39.6417 168.478 41.6808 168.345C43.2155 168.241 44.7046 168.034 46.1106 168.411C46.4022 168.489 47.2084 168.429 47.4882 168.311C48.5573 167.853 49.8278 167.844 51.0949 167.78C54.5165 167.63 57.9404 167.473 61.3599 167.194C63.8867 166.989 66.4085 166.7 68.9098 166.35C72.7944 165.811 76.6638 165.157 80.5364 164.559C82.1577 164.304 83.7657 164.064 85.3659 163.785C86.9574 163.504 88.541 163.184 89.9355 162.712C90.2433 162.593 90.5533 162.464 90.8142 162.314C91.1031 162.161 91.2817 162.044 91.5976 161.825C92.1292 161.453 92.6928 161.099 93.2141 160.696C93.7206 160.281 94.2522 159.908 94.7684 159.56C95.3177 159.155 95.8128 158.783 96.2313 158.353C96.6286 157.899 96.9706 157.411 97.2731 156.831C97.5753 156.149 98.3235 155.311 98.8785 154.578C99.2352 154.104 99.6303 153.658 99.9956 153.186C100.37 152.717 100.735 152.245 101.098 151.782C101.519 151.205 101.918 150.641 102.29 150.043C102.647 149.431 102.927 148.761 103.144 148.02C103.354 147.203 103.898 146.201 104.334 145.362C106.291 141.659 107.438 137.519 108.21 133.333C109.255 127.649 109.746 121.872 109.921 116.111C109.984 113.85 110.059 111.581 110.039 109.325C109.986 105.819 109.812 102.317 109.514 98.8002L109.064 93.4509C108.933 91.6422 108.811 89.7993 108.917 87.8612C109.009 86.3513 109.203 84.7677 109.623 83.2353C110.071 81.4623 110.934 79.7823 112.005 78.3599C113.12 76.977 114.362 75.7018 115.784 74.7138C117.467 73.4739 119.221 72.4182 121.025 71.5142C122.829 70.6101 124.673 69.7992 126.549 69.144C127.422 68.8357 128.304 68.4931 129.186 68.2883C132.313 67.5917 135.335 67.0138 138.459 66.5001C140.078 66.2539 141.763 66.1358 143.403 66.1893C145.054 66.2364 146.603 66.4218 148.033 66.5384C149.194 66.629 150.307 66.6607 151.436 66.5957C152.548 66.5261 153.719 66.408 154.81 66.1766C157.029 65.751 159.281 64.9578 161.472 64.0193C164.859 62.5562 168.162 60.758 171.34 58.7424C171.551 58.606 171.735 58.4346 171.946 58.2982C173.741 57.1529 174.594 57.1242 174.265 58.3868C173.958 59.4991 173.021 60.6998 171.357 61.7979C169.518 63.0049 167.615 64.1033 165.658 65.1319L165.716 65.2577Z" fill="#EBC464"/>
<path d="M38.8181 150.191C38.6463 150.421 38.5282 150.655 38.2832 150.884C38.0709 151.093 37.85 151.301 38.1093 151.499C38.1796 151.545 38.1246 151.613 38.128 151.669C38.137 151.773 38.1374 151.874 38.1659 151.974C38.1801 152.023 38.3282 152.054 38.2864 152.107C38.0523 152.329 37.9948 152.543 38.2822 152.74C37.9561 152.928 38.2121 153.07 38.3342 153.232C38.4501 153.382 38.3933 153.56 38.6687 153.698C38.7413 153.736 38.7749 153.782 38.7269 153.824C38.4744 154.115 38.5993 154.369 38.7048 154.627C38.8142 154.904 38.7641 155.194 38.4853 155.514C38.3381 155.686 38.37 155.842 38.3932 155.995C38.4182 156.176 38.5466 156.349 38.5996 156.528C38.677 156.788 38.8128 157.036 39.1018 157.26C39.4822 157.555 39.7872 157.857 40.0362 158.163C40.1583 158.324 40.0884 158.517 40.083 158.708C40.0551 159.087 39.9688 159.477 39.9884 159.85C39.9966 160.128 40.1021 160.386 40.2161 160.646C40.3176 160.885 40.5272 161.097 40.6505 161.323C41.0179 162.01 41.3704 162.683 41.7618 163.348C41.856 163.511 42.0022 163.652 42.1009 163.798C42.1534 163.876 42.1865 163.958 42.2001 164.045C42.27 164.367 42.316 164.71 42.4139 165.03C42.5483 165.489 42.7433 165.927 42.8971 166.382C42.9832 166.644 43.0303 166.914 43.3572 167.066C43.4469 167.108 43.2729 167.208 42.868 167.348C42.1684 167.593 41.4448 167.858 40.9833 167.9C40.6728 167.927 40.4315 167.936 40.4815 167.784C40.5669 167.568 40.1799 167.538 40.5319 167.218C40.58 167.176 40.5503 167.15 40.5183 167.132C39.8662 166.856 39.9424 166.298 39.8235 165.816C39.783 165.658 39.6603 165.533 39.581 165.383C39.533 165.287 39.4937 165.194 39.4676 165.086C39.4334 164.939 39.4513 164.769 39.3674 164.637C39.3024 164.536 39.1355 164.473 39.5206 164.237C39.599 164.184 39.5653 164.138 39.4532 164.145C39.0455 164.192 39.0559 164.084 39.0423 163.998C38.9906 163.745 38.98 163.476 38.9066 163.236C38.845 163.054 38.7315 162.895 38.5899 162.737C38.3614 162.492 38.0615 162.274 37.844 162.023C37.671 161.811 37.5781 161.575 37.444 161.355C37.4126 161.301 37.312 161.265 37.2892 161.213C37.2413 161.117 37.1265 161.031 37.2364 160.895C37.3572 160.753 37.3739 160.656 37.0017 160.639C36.793 160.629 36.7903 160.537 36.8132 160.451C36.8322 160.346 36.9485 160.221 37.0624 160.104C37.1941 159.956 37.3406 159.82 37.0531 159.762C36.8964 159.729 36.9629 159.618 37.0419 159.529C37.3912 159.117 37.2972 158.816 37.1192 158.521C36.8698 158.114 36.5707 157.721 36.3236 157.306C36.2295 157.143 36.1936 156.968 36.1361 156.805C35.9663 156.273 35.995 155.72 36.054 155.157C36.0644 155.049 36.0857 154.936 36.0012 154.839C35.7939 154.618 35.8154 154.367 35.91 154.117C36.0293 153.809 35.8553 153.532 35.6726 153.254C35.6264 153.186 35.5413 153.126 35.5597 153.058C35.7272 152.57 35.3406 152.126 35.3938 151.653C35.4411 151.271 35.6371 150.882 35.8051 150.496C35.9393 150.201 36.1186 149.909 36.2785 149.621C36.2916 149.606 36.2511 149.586 36.2666 149.562C36.3834 149.401 36.9031 149.347 37.703 149.414C38.4124 149.476 38.8263 149.577 38.8153 149.722C38.8019 149.874 38.7411 150.032 38.6998 150.187L38.8181 150.191Z" fill="#EBC464"/>
<path d="M89.3215 126.664C89.4468 127.019 89.6203 127.332 89.6867 127.736C89.7474 128.092 89.7973 128.454 90.1866 128.476C90.2856 128.484 90.3054 128.581 90.3648 128.634C90.4774 128.728 90.5767 128.838 90.6938 128.915C90.747 128.957 90.9008 128.897 90.9082 128.973C90.9512 129.361 91.1127 129.615 91.5192 129.642C91.4478 130.045 91.7795 130.042 92.0212 130.135C92.2606 130.235 92.3776 130.451 92.7287 130.444C92.8213 130.441 92.8938 130.479 92.9012 130.554C92.9578 131.029 93.2966 131.239 93.6091 131.479C93.945 131.734 94.1583 132.104 94.1863 132.617C94.2054 132.888 94.3533 133.057 94.5012 133.225C94.6765 133.428 94.9239 133.568 95.1124 133.756C95.3876 134.032 95.7109 134.266 96.1304 134.415C96.6997 134.623 97.2294 134.875 97.687 135.191C97.9212 135.345 98.0004 135.633 98.119 135.876C98.354 136.371 98.5323 136.906 98.7781 137.394C98.9681 137.748 99.221 138.074 99.4894 138.375C99.7429 138.664 100.064 138.906 100.32 139.186C101.074 140.04 101.783 140.929 102.486 141.834C102.657 142.054 102.863 142.247 103.044 142.461C103.135 142.568 103.196 142.685 103.254 142.811C103.461 143.271 103.634 143.759 103.844 144.21C104.145 144.87 104.489 145.504 104.76 146.174C104.915 146.556 105.04 146.947 105.417 147.223C105.525 147.298 105.355 147.418 104.952 147.549C104.247 147.782 103.517 148.037 103.036 148.046C102.713 148.051 102.451 148.036 102.493 147.845C102.538 147.573 102.126 147.499 102.434 147.104C102.476 147.051 102.44 147.013 102.4 146.993C101.65 146.6 101.596 145.877 101.342 145.249C101.259 145.043 101.081 144.885 100.957 144.695C100.879 144.574 100.802 144.452 100.746 144.317C100.659 144.128 100.626 143.908 100.495 143.745C100.392 143.616 100.197 143.554 100.508 143.215C100.574 143.141 100.517 143.08 100.409 143.106C100.004 143.209 99.9766 143.073 99.9247 142.958C99.7707 142.641 99.6602 142.299 99.4736 142.001C99.3395 141.781 99.1511 141.593 98.93 141.423C98.5855 141.165 98.1844 140.948 97.8485 140.692C97.5657 140.479 97.3722 140.206 97.1221 139.974C97.0627 139.921 96.9489 139.9 96.8981 139.849C96.8073 139.742 96.6405 139.679 96.6824 139.488C96.729 139.28 96.6856 139.168 96.3202 139.263C96.1126 139.317 96.0607 139.202 96.0322 139.103C95.9935 138.973 96.0417 138.793 96.0814 138.611C96.1302 138.394 96.1877 138.18 95.8749 138.215C95.7045 138.234 95.707 138.088 95.7266 137.946C95.8251 137.338 95.527 137.01 95.1677 136.739C94.6787 136.369 94.1308 136.048 93.6263 135.701C93.4241 135.565 93.2762 135.396 93.1066 135.241C92.5874 134.743 92.197 134.142 91.8113 133.524C91.7336 133.402 91.6669 133.274 91.5149 133.224C91.1594 133.111 90.9808 132.851 90.8548 132.533C90.6997 132.151 90.3237 131.977 89.9454 131.811C89.8557 131.769 89.735 131.773 89.6934 131.689C89.4082 131.107 88.7177 130.94 88.3318 130.46C88.0132 130.071 87.7954 129.581 87.5512 129.121C87.3635 128.758 87.1936 128.363 87.0083 127.992C86.9957 127.97 86.9568 127.978 86.9465 127.948C86.8513 127.72 87.1452 127.275 87.7508 126.73C88.2819 126.256 88.671 126.039 88.8149 126.188C88.9737 126.35 89.1038 126.55 89.2494 126.727L89.3215 126.664Z" fill="#EBC464"/>
<path d="M131.503 117.231C131.323 117.009 131.141 116.831 130.972 116.538C130.83 116.279 130.681 116.01 130.426 116.208C130.356 116.262 130.321 116.189 130.259 116.181C130.162 116.164 130.059 116.137 129.956 116.146C129.908 116.152 129.835 116.288 129.806 116.225C129.651 115.945 129.451 115.836 129.195 116.071C129.089 115.711 128.894 115.926 128.707 116.004C128.529 116.085 128.372 115.988 128.18 116.222C128.128 116.281 128.076 116.304 128.044 116.249C127.826 115.934 127.551 115.998 127.273 116.043C126.986 116.085 126.714 115.967 126.466 115.624C126.331 115.441 126.168 115.434 126.013 115.429C125.823 115.415 125.635 115.503 125.447 115.517C125.175 115.536 124.905 115.62 124.632 115.85C124.265 116.156 123.908 116.391 123.556 116.572C123.376 116.662 123.195 116.549 123.023 116.503C122.665 116.398 122.307 116.228 121.935 116.175C121.662 116.129 121.392 116.176 121.12 116.232C120.865 116.292 120.63 116.45 120.381 116.521C119.65 116.748 118.929 116.968 118.214 117.236C118.041 117.3 117.881 117.413 117.714 117.488C117.63 117.53 117.543 117.543 117.451 117.546C117.125 117.56 116.79 117.544 116.466 117.585C116 117.644 115.546 117.762 115.078 117.829C114.819 117.87 114.541 117.878 114.342 118.174C114.282 118.259 114.215 118.066 114.133 117.65C113.997 116.924 113.85 116.168 113.882 115.708C113.9 115.4 113.93 115.151 114.073 115.235C114.271 115.352 114.372 114.975 114.624 115.373C114.664 115.43 114.69 115.4 114.708 115.368C115.08 114.77 115.632 114.936 116.128 114.903C116.288 114.891 116.436 114.784 116.596 114.735C116.696 114.706 116.804 114.68 116.905 114.68C117.053 114.674 117.216 114.717 117.368 114.666C117.481 114.623 117.569 114.463 117.73 114.892C117.761 114.983 117.815 114.951 117.826 114.844C117.854 114.429 117.955 114.465 118.047 114.462C118.306 114.458 118.57 114.501 118.827 114.469C119.017 114.446 119.194 114.365 119.382 114.25C119.66 114.067 119.938 113.82 120.229 113.659C120.474 113.532 120.725 113.489 120.97 113.398C121.03 113.378 121.081 113.29 121.14 113.278C121.248 113.252 121.357 113.153 121.458 113.29C121.574 113.441 121.666 113.474 121.754 113.112C121.809 112.906 121.903 112.932 121.978 112.961C122.077 113.006 122.178 113.143 122.272 113.269C122.386 113.428 122.497 113.596 122.614 113.333C122.681 113.186 122.768 113.273 122.841 113.376C123.168 113.803 123.489 113.77 123.823 113.657C124.269 113.501 124.729 113.293 125.192 113.142C125.374 113.08 125.548 113.081 125.727 113.065C126.284 113.012 126.828 113.176 127.359 113.355C127.459 113.391 127.566 113.438 127.683 113.378C127.955 113.221 128.191 113.302 128.414 113.463C128.684 113.655 128.998 113.546 129.312 113.437C129.384 113.41 129.467 113.341 129.531 113.376C129.961 113.657 130.493 113.386 130.951 113.564C131.319 113.699 131.643 113.998 131.971 114.251C132.219 114.455 132.465 114.705 132.698 114.932C132.712 114.946 132.739 114.916 132.76 114.94C132.893 115.095 132.8 115.612 132.525 116.366C132.281 117.035 132.073 117.402 131.946 117.359C131.805 117.303 131.665 117.21 131.53 117.128L131.503 117.231Z" fill="#EBC464"/>
<path d="M76.0825 167.455C75.6937 163.555 74.8204 158.515 72.8414 152.903C70.9137 147.443 68.5221 143.062 66.4299 139.828C63.6502 140.599 61.1695 142.415 60.5016 144.874C56.6613 159.035 76.0739 167.452 76.0825 167.455Z" fill="#EBC464"/>
<path d="M74.4557 164.722C74.5104 163.9 74.5091 163.082 74.6027 162.253C74.6905 161.513 74.7697 160.772 74.3674 160.113C74.267 159.939 74.2769 159.73 74.2263 159.542C74.1438 159.198 74.0636 158.846 73.9531 158.504C73.9018 158.352 73.7167 158.22 73.7238 158.057C73.7756 157.28 73.6353 156.535 73.1615 155.903C73.3189 155.246 72.9135 154.77 72.6294 154.253C72.3453 153.736 72.2196 153.142 71.7794 152.693C71.6652 152.57 71.5773 152.418 71.5734 152.261C71.5037 151.287 71.0679 150.444 70.6321 149.601C70.1649 148.704 69.8321 147.751 69.6733 146.698C69.5922 146.143 69.3315 145.641 69.0685 145.148C68.7662 144.562 68.366 144.032 68.0202 143.47C67.7708 143.064 67.4997 142.669 67.2154 142.29C67.0722 142.104 66.914 141.906 66.7638 141.746C66.6473 141.632 66.5262 141.535 66.4091 141.458C66.2366 141.348 66.0829 141.27 65.9589 141.218C65.7059 141.408 65.5159 141.568 65.3733 141.723L65.2812 141.827C65.2331 141.869 65.2891 141.866 65.1781 141.937L64.7111 142.308C64.2853 142.663 63.7842 142.887 63.359 143.205C62.9338 143.523 62.5531 143.88 62.2427 144.284C61.9278 144.705 61.7255 145.083 61.5726 145.722L61.3957 146.382L61.3068 147.056C61.2411 147.507 61.2572 147.962 61.2647 148.414C61.2619 148.836 61.3711 149.252 61.4267 149.662L61.7357 150.875C62.3869 153.245 63.7549 155.376 65.4703 157.205C65.8849 157.647 66.3606 158.032 66.8124 158.438C67.0437 158.637 67.2642 158.844 67.4692 159.073C68.263 159.883 69.0956 160.685 69.9988 161.396C71.2948 162.423 72.7157 163.328 74.1504 164.181C74.9583 164.664 75.7896 165.162 76.7082 165.335C76.822 165.356 76.922 165.429 76.8561 165.503L76.8384 165.535C76.726 165.817 76.6027 166.106 76.4748 166.412C76.1468 167.224 76.0097 167.564 76.0682 167.415C76.2638 166.925 76.4925 166.38 76.7328 165.792C76.7128 165.832 76.6904 165.881 76.6681 165.93C76.2528 166.554 75.7815 167.181 75.1518 167.371C74.7234 167.495 74.3476 167.56 74.0295 167.273C73.58 166.858 72.8653 166.85 72.5883 166.17C72.5489 166.076 72.4335 166.027 72.3369 166.01C70.5856 165.55 69.2474 164.337 67.9228 163.21C67.4876 162.846 66.9911 162.538 66.545 162.18C66.2474 161.953 65.9784 161.688 65.7071 161.431C65.3216 161.052 64.9888 160.614 64.5816 160.247C64.2892 159.967 63.9006 159.771 63.9899 159.198C64.0135 159.075 63.8587 158.933 63.7272 158.943C63.2291 158.985 63.0403 158.695 62.8514 158.405C62.3085 157.654 61.844 156.849 61.3859 156.055L60.8603 155.17C60.6714 154.881 60.4934 154.585 60.3177 154.281C59.7367 153.362 59.2239 152.361 58.8501 151.287C58.579 150.378 58.4487 149.424 58.3829 148.469C58.3695 148.245 58.2914 148.022 58.2951 147.802C58.2761 147.393 58.2384 146.951 58.4361 146.59C58.6452 146.187 58.7085 145.882 58.462 145.43C58.3114 145.169 58.4119 144.829 58.5134 144.553C58.6333 144.208 58.9357 143.765 59.2208 143.456C59.5764 143.055 59.9341 142.783 60.0085 142.197C60.0546 141.887 60.3625 141.63 60.6452 141.467C61.8627 140.764 62.8436 140.053 63.9313 139.388C64.8576 138.846 65.9084 138.457 67.0244 138.03C67.4545 137.934 67.8954 137.832 68.3518 137.706C68.6872 137.483 68.5602 137.991 68.5793 138.263L68.5696 139.225L68.557 139.718L68.555 139.966L68.6349 140.079L68.9443 140.502L69.3382 141.021C69.711 141.516 70.0294 142.042 70.3478 142.569C71.3515 144.207 72.1076 145.981 72.7641 147.783C72.898 148.141 73.0125 148.502 73.2249 148.807C73.7317 149.522 74 150.338 74.1774 151.185C74.3906 152.207 74.875 153.109 75.333 154.04C75.4413 154.253 75.5972 154.46 75.6363 154.691C75.9168 156.319 76.6927 157.814 76.9817 159.444C77.218 160.757 77.2513 162.108 77.2914 163.433C77.3194 164.46 77.2718 165.495 77.2203 166.51C77.2214 166.575 77.259 166.64 77.2492 166.711C77.1942 167.293 76.6907 167.526 75.867 167.342C75.1377 167.184 74.6909 166.862 74.6412 166.361C74.5944 165.816 74.578 165.26 74.542 164.708L74.4557 164.722Z" fill="#EBC464"/>
<path d="M99.5855 183.603C96.8956 180.576 92.8927 176.755 87.3387 173.374C83.6558 171.138 80.1653 169.624 77.2328 168.599C74.3899 172.487 79.0286 183.057 86.8408 185.692C91.1141 187.131 97.0338 186.439 99.5855 183.603Z" fill="#EBC464"/>
<path d="M96.8154 182.51C96.4302 181.855 95.9775 181.247 95.6102 180.56C95.2781 179.947 94.9461 179.335 94.2786 179.082C94.1031 179.017 94.0004 178.852 93.8582 178.731C93.6034 178.516 93.3572 178.302 93.0784 178.108C92.955 178.02 92.7395 178.036 92.6619 177.914C92.2784 177.287 91.7718 176.812 91.0602 176.621C90.8333 176.027 90.256 175.919 89.756 175.693C89.2536 175.475 88.8379 175.107 88.2513 175.032C88.101 175.01 87.9427 174.95 87.8542 174.834C87.2696 174.135 86.4793 173.758 85.6844 173.398C84.8341 173.005 84.0634 172.486 83.369 171.785C83.0006 171.411 82.5263 171.192 82.0606 170.975C81.5051 170.716 80.9135 170.557 80.3443 170.35C79.9528 170.199 79.4625 170.04 79.1321 169.97C78.7845 169.895 78.5135 169.878 78.2802 169.925C78.1721 169.951 78.0726 169.98 77.9925 170.004C77.8811 169.975 77.8916 170.244 77.8657 170.375C77.8609 170.53 77.8608 170.668 77.8715 170.799C77.8975 171.045 77.9568 171.235 78.0212 171.372C78.0555 171.381 78.0585 171.713 78.0417 171.947C78.0374 172.203 78.0159 172.455 78.0288 172.716C78.0692 173.765 78.2354 174.894 78.6092 175.968C78.8992 176.772 79.33 177.53 79.8221 178.232C80.289 178.89 80.8737 179.451 81.4197 180.02C83.0363 181.703 84.9862 183.034 87.0386 183.639C87.5336 183.781 88.0384 183.852 88.5563 183.908C88.8118 183.949 89.0674 183.99 89.3206 184.039C90.2712 184.23 91.2574 184.356 92.2506 184.319C93.668 184.276 95.0578 183.959 96.2568 183.463C96.9203 183.181 97.568 182.822 97.806 182.242C97.8754 182.086 98.061 182.182 98.3311 182.511C98.7821 183.092 99.2668 183.718 99.2128 184.365C99.1586 184.773 99.0569 185.187 98.6394 185.305C98.0765 185.485 97.6704 186.074 96.9697 185.878C96.8754 185.852 96.7776 185.909 96.6969 185.97C95.2988 187.038 93.5092 187.064 91.8797 187.041C91.3394 187.034 90.7978 187.1 90.2512 187.082C89.8985 187.061 89.548 187.032 89.1959 186.974C88.6871 186.884 88.1967 186.725 87.6903 186.626C87.3101 186.57 86.8967 186.569 86.7006 186.066C86.6659 185.956 86.4687 185.903 86.3663 185.977C85.9674 186.265 85.6709 186.103 85.3892 185.954C84.6012 185.568 83.8774 185.08 83.173 184.588C82.6428 184.235 82.1018 183.888 81.5607 183.541C80.7129 183.001 79.8548 182.431 79.1043 181.734C78.4812 181.144 77.9566 180.461 77.4319 179.779C77.3098 179.617 77.1418 179.49 77.0282 179.33C76.8245 179.028 76.5561 178.726 76.5171 178.357C76.4919 177.937 76.3801 177.668 75.9138 177.488C75.6486 177.38 75.5352 177.083 75.4772 176.82C75.3901 176.493 75.4071 176.121 75.4367 175.77C75.4589 175.345 75.528 174.95 75.1591 174.612C74.9621 174.421 74.9676 174.092 75.024 173.813C75.1139 173.203 75.1603 172.618 75.153 172.028L75.1627 171.58L75.1578 171.358L75.1736 171.059C75.1804 170.657 75.2238 170.255 75.2866 169.849C75.3195 169.555 75.4187 169.287 75.4797 168.991C75.5704 168.721 75.6782 168.456 75.786 168.191C75.911 167.93 76.025 167.676 76.1717 167.403L76.3832 166.991C76.4565 166.855 76.5395 166.785 76.6145 166.676L78.1944 167.09C78.7408 167.246 79.3153 167.4 79.8314 167.566L80.3904 167.743L80.795 167.879L81.6059 168.179C83.2747 168.81 84.838 169.698 86.3355 170.659C86.6337 170.85 86.9187 171.055 87.2571 171.164C88.039 171.401 88.6965 171.862 89.2991 172.391C90.0182 173.034 90.8942 173.434 91.7548 173.857C91.9576 173.958 92.1891 174.02 92.3502 174.173C93.4604 175.243 94.881 175.908 95.9935 176.969C96.8942 177.826 97.6546 178.829 98.4024 179.811C98.9795 180.572 99.4977 181.381 100.007 182.189C100.039 182.243 100.107 182.261 100.139 182.316C100.415 182.794 100.125 183.259 99.3698 183.608C98.6885 183.921 98.1693 183.938 97.8649 183.6C97.5355 183.217 97.2238 182.803 96.8967 182.412L96.8154 182.51Z" fill="#EBC464"/>
<path d="M112.008 106.684C108.955 102.815 105.261 98.5997 100.839 94.3182C97.1042 90.6985 93.4463 87.614 90.0303 84.9987C87.3582 88.0779 86.9903 94.0809 88.7684 98.4536C91.1855 104.385 98.0536 108.624 103.798 107.213C104.449 107.048 112.008 106.684 112.008 106.684Z" fill="#EBC464"/>
<path d="M109.053 105.063C108.637 104.28 108.165 103.538 107.796 102.723C107.466 102 107.135 101.277 106.43 100.859C106.246 100.754 106.144 100.552 106.003 100.395C105.738 100.113 105.485 99.8244 105.207 99.5571C105.084 99.4323 104.844 99.4045 104.775 99.2484C104.415 98.4995 103.914 97.8688 103.162 97.4837C102.969 96.7979 102.36 96.5336 101.843 96.1653C101.326 95.7971 100.917 95.3014 100.294 95.052C100.127 94.9889 99.9743 94.8743 99.8841 94.7307C99.3546 93.8261 98.5469 93.2054 97.75 92.5783C96.8938 91.8986 96.1491 91.111 95.5385 90.1663C95.2132 89.6656 94.7483 89.2746 94.2896 88.8944C93.7481 88.446 93.143 88.0634 92.5752 87.6447C92.369 87.4884 92.1605 87.3406 91.9519 87.1929L91.6412 86.9809L91.4023 86.8434C91.0909 86.6681 90.7852 86.5402 90.5531 86.5148L90.3638 86.5008C90.2959 86.4459 90.2687 86.65 90.2286 86.7311L90.1311 87.0266C90.0868 87.2261 90.0517 87.3913 90.0298 87.5416C90.0165 87.6943 90.0015 87.8189 90.0168 87.9333L90.0241 88.0087L89.9822 88.1997C89.9477 88.3283 89.939 88.4638 89.9131 88.5947C89.7997 89.1892 89.5703 89.7709 89.4158 90.382C89.1067 91.604 88.9273 92.9251 88.9915 94.2288C89.0504 95.2095 89.2665 96.1863 89.6216 97.0901C89.7932 97.5128 89.978 97.9207 90.2171 98.2972L90.5606 98.8671L90.9453 99.4205C92.4224 101.59 94.5461 103.335 96.9023 104.316C97.4778 104.534 98.0609 104.69 98.6336 104.816C98.9143 104.901 99.2064 104.942 99.487 105.027C100.524 105.305 101.584 105.432 102.608 105.312L103.148 105.217L103.621 105.133C103.775 105.109 103.811 105.11 103.887 105.103L104.094 105.085L105.557 104.971C106.512 104.906 107.454 104.855 108.391 104.821C109.46 104.777 110.526 104.777 111.577 104.489C111.743 104.451 111.773 104.477 111.961 104.565C112.084 104.653 112.06 104.812 111.938 105.027C111.682 105.776 111.639 106.555 111.13 107.016C110.797 107.331 110.491 107.58 110.056 107.491C109.427 107.368 108.794 107.741 108.16 107.332C108.074 107.272 107.947 107.303 107.845 107.34C106.946 107.641 106.034 107.755 105.126 107.815C104.695 107.846 104.178 107.855 103.857 107.888C103.365 107.94 102.877 108.048 102.39 108.047C101.752 108.096 101.114 108.146 100.475 108.131C100.062 108.094 99.6561 108.031 99.2416 107.966C98.6586 107.809 98.0934 107.621 97.5258 107.442C97.0949 107.335 96.626 107.302 96.4398 106.728C96.3987 106.607 96.1867 106.541 96.0608 106.599C95.6003 106.843 95.2964 106.605 94.9678 106.425C94.1022 105.918 93.3357 105.28 92.556 104.658C92.2801 104.419 91.9933 104.186 91.6957 103.959L90.8401 103.243C89.968 102.485 89.0575 101.699 88.3548 100.72C87.744 99.9135 87.3163 98.9719 86.9143 98.0371C86.834 97.8226 86.6867 97.6178 86.6087 97.3947C86.4691 96.9897 86.2803 96.5624 86.3305 96.1348C86.4117 95.6603 86.3721 95.328 85.9735 94.9639C85.753 94.7578 85.7163 94.3804 85.7344 94.0728C85.7583 93.6749 85.8617 93.2891 85.9994 92.9125C86.1577 92.4587 86.3217 92.0524 86.0953 91.5598C85.9556 91.2926 86.0715 90.9286 86.2096 90.6532C86.7863 89.3925 87.0107 88.2121 87.4366 86.8284C87.9501 85.3579 88.7905 84.0392 89.7686 82.7208C90.6501 83.3062 91.5979 83.9185 92.5788 84.6132L93.6511 85.3784L94.4314 85.9643C96.0452 87.1778 97.5095 88.5717 98.9149 90.0143C99.1879 90.2987 99.4671 90.5941 99.7973 90.8021C100.58 91.2781 101.206 91.9238 101.769 92.6352C102.439 93.4948 103.313 94.1425 104.187 94.7902C104.385 94.9442 104.628 95.0646 104.778 95.2609C105.84 96.6481 107.28 97.6498 108.382 98.9925C109.268 100.075 110.025 101.262 110.782 102.448C111.366 103.357 111.901 104.31 112.441 105.244C112.478 105.31 112.553 105.339 112.582 105.402C112.868 105.947 112.576 106.42 111.766 106.699C111.049 106.939 110.484 106.889 110.157 106.461C109.797 105.988 109.472 105.487 109.122 105.008L109.053 105.063Z" fill="#EBC464"/>
<path d="M132.938 102.859C130.219 100.008 126.582 95.5412 123.623 89.3358C120.886 83.6035 119.684 78.3836 119.125 74.6407C119.125 74.6407 113.806 86.292 117.418 93.8024C120.542 100.319 128.594 105.316 132.938 102.859Z" fill="#EBC464"/>
<path d="M129.897 101.377C129.465 100.59 129 99.8221 128.676 98.9726C128.381 98.2227 128.129 97.4842 127.472 96.9866C127.304 96.8589 127.223 96.6444 127.106 96.4659L126.45 95.5182C126.349 95.3809 126.122 95.3017 126.073 95.1415C125.85 94.3282 125.507 93.6206 124.868 93.0543C124.856 92.3436 124.342 91.9302 123.957 91.4134C123.569 90.9052 123.356 90.2966 122.842 89.8466C122.708 89.7281 122.606 89.5627 122.578 89.39C122.398 88.3492 121.911 87.4561 121.453 86.5247C120.975 85.5327 120.683 84.462 120.637 83.3288C120.633 83.0337 120.572 82.714 120.51 82.4675C120.453 82.2319 120.38 81.9917 120.313 81.7623C120.143 81.1932 119.929 80.759 119.786 80.298C119.576 79.6076 119.364 79.027 119.185 79.1446C119.096 79.2034 119.03 79.3142 118.982 79.4577L118.948 79.5497L118.941 79.5754L118.927 79.6635L118.898 79.8395L118.803 80.4666C118.745 80.8553 118.714 81.1778 118.688 81.4465C118.657 81.8701 118.578 81.7202 118.477 81.8219C118.304 81.9869 118.043 82.2753 117.837 83.0104L117.809 83.1133L117.778 83.2979L117.716 83.6672L117.598 84.4166C117.538 84.9151 117.523 85.4165 117.491 85.9134C117.48 86.8476 117.591 87.7688 117.72 88.6581C117.741 88.9943 117.811 89.3163 117.881 89.6383C117.95 89.9602 118.001 90.2862 118.084 90.5933C118.3 91.1934 118.434 91.8265 118.741 92.3592C119.224 93.4718 120.011 94.5831 120.853 95.5533C121.248 96.0357 121.75 96.4274 122.192 96.8676C122.432 97.0698 122.65 97.2844 122.864 97.5163C123.686 98.3246 124.535 99.1312 125.505 99.731C126.866 100.619 128.397 101.25 129.77 101.407C130.171 101.487 130.521 101.452 130.876 101.428C131.186 101.336 131.515 101.24 131.691 100.993C131.805 100.877 131.955 101.037 132.097 101.433C132.335 102.122 132.568 102.864 132.215 103.495C131.968 103.87 131.635 104.185 131.147 104.156C130.795 104.098 130.456 104.163 130.102 104.179C129.758 104.16 129.415 104.105 129.124 103.853C129.041 103.784 128.916 103.769 128.804 103.776C126.804 103.902 125.075 102.777 123.581 101.697C123.075 101.359 122.548 101.025 122.046 100.67C121.736 100.421 121.431 100.155 121.134 99.8921C120.718 99.4868 120.364 99.0244 119.938 98.6254C119.636 98.3146 119.239 98.0797 119.326 97.5149C119.35 97.3925 119.191 97.2305 119.062 97.2327C118.556 97.2349 118.374 96.9197 118.159 96.6232L117.414 95.3576L116.756 94.0418C116.498 93.3571 116.094 92.7065 115.858 92.0092C115.643 91.4738 115.391 90.9378 115.248 90.3755C115.074 89.8236 114.896 89.2522 114.82 88.6803C114.638 87.7127 114.656 86.7527 114.632 85.7813C114.636 85.5617 114.568 85.3324 114.581 85.1151C114.607 84.7086 114.532 84.266 114.747 83.9101C114.965 83.5089 115.048 83.2003 114.754 82.754C114.716 82.6887 114.687 82.6258 114.671 82.548C114.673 82.4382 114.679 82.3113 114.705 82.1804C114.746 81.9249 114.815 81.6677 114.886 81.4385C115.07 80.8538 115.298 80.3452 115.562 79.9104C115.889 79.3734 116.151 79.0483 116.166 78.0323C116.184 77.4858 116.42 77.1173 116.603 76.8813C117 76.3261 117.328 75.8902 117.623 75.2342C117.892 74.2676 118.123 73.0615 118.45 71.8075L118.986 69.5988L119.31 68.2887L119.521 67.4999C119.846 68.7908 120.269 70.5397 120.7 72.5666C120.833 73.1997 120.966 73.906 121.096 74.5842L121.286 75.6273L121.485 76.5996C121.687 77.6278 121.938 78.5407 122.159 79.5003L122.537 80.8696L122.721 81.5531L122.866 82.0421C123.117 82.955 123.38 83.8615 123.653 84.7618C123.77 85.1147 123.863 85.4887 124.075 85.7937C124.565 86.5039 124.851 87.2881 125.1 88.1083C125.387 89.0949 125.988 89.9361 126.599 90.743C126.742 90.9285 126.935 91.0997 127.024 91.3165C127.638 92.8318 128.801 94.0162 129.652 95.3654C130.34 96.4686 130.955 97.6351 131.644 98.7663C132.175 99.6343 132.698 100.528 133.267 101.388C133.307 101.445 133.382 101.474 133.413 101.528C133.73 102.027 133.476 102.528 132.701 102.881C132.014 103.184 131.437 103.177 131.071 102.757C130.672 102.292 130.319 101.793 129.961 101.311L129.897 101.377Z" fill="#EBC464"/>
<path d="M153.225 55.4415C152.317 50.3924 148.241 44.7883 144.148 45.1802C143.695 45.2242 143.286 45.3444 142.902 45.508C144.185 47.7537 145.504 50.478 146.617 53.6617C148.405 58.7537 149.104 63.3795 149.338 67.0351C149.379 67.0185 149.426 67.0129 149.467 66.9964C153.258 65.6412 153.916 59.3115 153.225 55.4415Z" fill="#EBC464"/>
<path d="M151.444 53.6866C151.424 53.0748 151.307 52.4829 151.285 51.843C151.254 51.2741 151.201 50.6811 150.706 50.3369C150.582 50.2487 150.553 50.0846 150.464 49.969C150.311 49.7532 150.17 49.5227 149.995 49.3195C149.908 49.2319 149.719 49.2179 149.687 49.099C149.561 48.5048 149.22 48.0275 148.638 47.8347C148.599 47.5671 148.46 47.4011 148.283 47.2711C148.1 47.1668 147.856 47.083 147.712 47.0354C147.415 46.9464 147.148 46.6728 146.886 46.86C146.827 46.9086 146.763 46.9096 146.693 46.8266C146.254 46.3047 145.718 46.2806 145.376 46.4277C145.179 46.4761 144.957 46.5176 144.642 46.5252C144.167 46.4806 144.309 46.638 144.156 46.7258C144.13 46.7555 144.121 46.7898 144.124 46.8459C144.134 47.014 144.276 47.2726 144.406 47.5094C144.606 47.8939 144.908 48.2779 145.1 48.6235C145.353 49.0498 145.795 49.8022 146.296 50.3682C146.984 51.1592 147.59 52.0199 148.102 52.9199C148.363 53.385 148.432 53.918 148.542 54.4344C148.761 55.4673 148.894 56.5138 149.079 57.5374C149.222 58.3106 149.433 59.0656 149.644 59.8206C149.733 60.1752 149.86 60.5218 149.969 60.8725L150.138 61.405C150.19 61.5565 150.211 61.5806 150.241 61.6715C150.398 62.0811 150.493 62.2076 150.588 62.2974C150.627 62.3261 150.661 62.3353 150.694 62.3164C150.777 62.2102 150.859 62.0759 150.898 61.9668C150.949 61.8428 150.948 61.6403 150.937 61.5454C150.931 61.498 150.931 61.498 150.935 61.5174C150.96 61.5609 151.028 61.6159 151.069 61.4981C151.35 60.4155 151.431 59.1875 151.447 57.9971C151.443 57.3253 151.457 56.6215 151.112 56.0236C151.017 55.8605 151.209 55.7647 151.633 55.7589C152.378 55.7564 153.158 55.7264 153.643 56.0403C153.974 56.2483 154.217 56.4698 154.145 56.8088C154.019 57.2803 154.394 57.7668 153.94 58.2242C153.877 58.2899 153.899 58.3786 153.923 58.4586C154.175 59.1325 154.18 59.8323 154.095 60.5263C154.04 60.8699 153.968 61.2089 153.878 61.5432C153.771 61.873 153.701 62.2034 153.55 62.6315C153.461 62.8927 153.399 63.1607 153.334 63.4374C153.245 63.6986 153.163 63.9706 153.064 64.2381C152.942 64.5913 152.75 64.8615 152.579 65.1558C152.457 65.3712 152.291 65.5105 152.15 65.6933C152.009 65.8761 151.865 66.0394 151.709 66.2091C151.599 66.345 151.48 66.5152 151.368 66.6232C151.238 66.6985 151.106 66.7092 150.995 66.5416C150.949 66.474 150.822 66.6054 150.776 66.7769C150.567 67.3827 150.31 67.4515 150.076 67.5725C149.908 67.6472 149.723 67.6893 149.549 67.7531L149.287 67.8391L149.149 67.8755C149.101 67.8812 149.115 67.8298 149.103 67.808C149.027 67.5764 148.945 67.3338 148.815 67.1336C148.762 67.0552 148.718 66.9791 148.642 66.9218C148.581 66.4643 148.482 66.0428 148.377 65.6104C148.265 65.1392 148.113 64.6759 147.963 64.1394C147.798 63.5897 147.633 63.0401 147.467 62.4904C147.322 61.9368 147.24 61.6942 147.159 61.3785C147.076 61.0714 146.984 60.762 146.882 60.4588C146.837 60.3181 146.722 60.1956 146.677 60.0549C146.6 59.7952 146.447 59.5429 146.523 59.26C146.605 58.9513 146.592 58.7272 146.177 58.5609C145.944 58.4708 145.905 58.2398 145.899 58.0545C145.882 57.8109 145.953 57.5451 146.016 57.277C146.101 56.9598 146.183 56.6512 145.836 56.4386C145.646 56.3235 145.674 56.0828 145.703 55.8701C145.868 54.9492 145.564 54.1604 145.157 53.4172C144.61 52.4068 143.967 51.4444 143.35 50.4888C143.184 50.2879 142.707 49.2873 142.298 48.5527C141.602 47.2728 140.818 45.914 140.142 44.6301C140.526 44.4665 140.829 44.3273 141.04 44.2275C141.43 44.0748 141.971 43.9073 142.391 43.7809C142.755 43.6578 143.158 43.628 143.475 43.474C143.827 43.256 144.309 43.2749 144.766 43.2503C145.252 43.2886 145.765 43.3984 146.259 43.5768C146.868 43.8777 147.453 44.0254 148.048 44.3777C148.347 44.5313 148.663 44.6529 148.968 44.8173C149.12 44.9038 149.267 45.0075 149.418 45.094L149.738 45.2717C149.941 45.372 150.146 45.4637 150.277 45.6274C151.194 46.7646 152.318 47.6447 152.997 48.8834C153.532 49.872 153.823 50.9793 154.062 52.0448C154.23 52.8895 154.306 53.7369 154.327 54.5877C154.33 54.6437 154.372 54.6918 154.376 54.7479C154.363 55.2407 153.873 55.4585 153.043 55.4015C152.311 55.3526 151.849 55.1919 151.786 54.8442C151.687 54.4593 151.657 54.0562 151.55 53.669L151.444 53.6866Z" fill="#EBC464"/>
<path d="M167.603 90.4996C165.569 87.5286 163.27 84.4131 160.684 81.239C156.792 76.4562 152.897 72.3343 149.215 68.793C149.215 68.793 147.884 76.6056 151.185 82.2225C155.845 90.1424 163.813 92.8107 167.603 90.4996Z" fill="#EBC464"/>
<path d="M165.013 89.0167C164.726 88.3056 164.376 87.6236 164.145 86.8726C163.928 86.208 163.72 85.5457 163.117 85.1544C162.959 85.057 162.889 84.8729 162.773 84.7223C162.569 84.4562 162.362 84.1987 162.145 83.9474C162.045 83.8381 161.826 83.7978 161.781 83.6571C161.554 82.9621 161.179 82.3745 160.524 82.0061C160.446 81.3696 159.916 81.1174 159.496 80.7658C159.065 80.4205 158.769 79.9462 158.226 79.7088C158.079 79.6418 157.96 79.5364 157.896 79.3997C157.544 78.5519 156.895 77.9554 156.257 77.3525C155.577 76.7016 155.008 75.9428 154.606 75.0446C154.386 74.563 154.028 74.1823 153.666 73.8188C153.258 73.3878 152.724 72.9783 152.337 72.6079C151.878 72.1912 151.398 71.8235 151.057 71.7596C151.022 71.7505 150.995 71.7521 150.966 71.7538C150.818 71.7599 150.707 71.7947 150.629 71.8472C150.586 71.8723 150.559 71.902 150.531 71.9402C150.517 71.9551 150.502 71.9785 150.497 71.9957C150.484 72.0105 150.471 72.0254 150.491 72.1226C150.544 72.44 150.602 72.7036 150.645 72.9175C150.694 73.1143 150.663 73.1611 150.619 73.2228C150.592 73.2525 150.566 73.2822 150.552 73.3337C150.49 73.464 150.427 73.6308 150.376 73.856C150.366 73.8903 150.364 73.8989 150.359 73.9527L150.347 74.1699C150.336 74.314 150.333 74.4603 150.339 74.609C150.345 74.8955 150.34 75.1882 150.355 75.477C150.418 76.3393 150.582 77.2011 150.859 78.0196C150.966 78.4068 151.135 78.7735 151.308 79.1231C151.467 79.4875 151.673 79.8182 151.845 80.1677C151.968 80.4303 152.115 80.6718 152.264 80.9047C152.421 81.1398 152.54 81.383 152.734 81.6188C153.096 82.0835 153.411 82.5905 153.811 83.0192C154.189 83.4605 154.564 83.9103 154.99 84.3093C155.392 84.7295 155.834 85.1051 156.269 85.4698C156.676 85.8363 157.18 86.0816 157.619 86.4011C157.849 86.5364 158.074 86.6887 158.287 86.8559C159.069 87.4698 159.908 88.0071 160.791 88.4181C162.06 88.9971 163.416 89.2869 164.632 89.2729C165.304 89.2691 165.999 89.1796 166.328 88.7072C166.422 88.5947 166.575 88.7458 166.738 89.1296C167.015 89.8104 167.289 90.5363 167.042 91.15C166.863 91.5432 166.609 91.8425 166.182 91.8568C165.868 91.8279 165.587 91.9179 165.278 91.973C164.98 92.0218 164.677 91.9865 164.394 91.7729C164.318 91.7157 164.203 91.731 164.112 91.7617C162.389 92.1914 160.729 91.4249 159.282 90.6879C158.81 90.4238 158.27 90.279 157.812 90C157.509 89.827 157.196 89.6602 156.913 89.4466C156.511 89.1277 156.123 88.7939 155.714 88.5007C155.406 88.2802 155.021 88.1402 155.058 87.5896C155.06 87.4799 154.898 87.363 154.781 87.3869C154.312 87.491 154.114 87.2357 153.898 87.0125C153.594 86.7102 153.337 86.3657 153.077 86.0298C152.81 85.6916 152.537 85.3705 152.289 85.0283C151.908 84.5309 151.461 84.0713 151.058 83.5865C150.405 82.8693 149.669 82.084 149.159 81.1754C148.928 80.8012 148.739 80.4105 148.588 80.0118C148.421 79.6085 148.262 79.2075 148.133 78.7962C148.063 78.612 147.934 78.4398 147.875 78.2493C147.776 77.901 147.616 77.5366 147.684 77.1782C147.764 76.7769 147.767 76.4927 147.361 76.1909C147.131 76.0191 147.104 75.7086 147.128 75.4485C147.142 75.1215 147.251 74.7831 147.364 74.4642C147.511 74.1545 147.636 73.5171 147.374 72.8496C147.23 72.4617 147.333 71.9748 147.429 71.6513C147.515 71.362 147.614 71.0946 147.677 70.8265C147.742 70.5498 147.79 70.2686 147.884 70.0548C148.358 69.658 148.572 69.2009 148.818 68.7981L149.02 68.457C149.053 68.365 149.117 68.4005 149.182 68.3994L149.365 68.4025C149.494 68.4004 149.585 68.4062 149.753 68.3595C149.909 68.3277 150.06 68.2764 150.214 68.2166C150.357 68.163 150.618 68.049 150.809 67.9531C151.255 68.3116 151.72 68.7026 152.206 69.1177C152.573 69.4275 152.94 69.7739 153.313 70.1311L154.336 71.1129C155.606 72.3077 156.716 73.6526 157.788 75.0336C158.001 75.302 158.201 75.5853 158.477 75.788C159.126 76.2468 159.605 76.862 160.013 77.532C160.504 78.3433 161.212 78.956 161.93 79.5709C162.093 79.7157 162.302 79.8269 162.418 80.014C163.201 81.3083 164.41 82.248 165.246 83.4829C165.925 84.4825 166.477 85.577 167.034 86.6543C167.464 87.4861 167.847 88.3517 168.236 89.2001C168.258 89.2521 168.322 89.2876 168.352 89.3505C168.558 89.8471 168.213 90.2784 167.41 90.5318C166.698 90.7545 166.169 90.7047 165.915 90.3151C165.636 89.8819 165.39 89.4299 165.124 88.9819L165.013 89.0167Z" fill="#EBC464"/>
<path d="M171.889 33.2868C172.752 36.8539 173.541 40.7686 174.17 45.0078C174.846 49.5815 175.226 53.8553 175.419 57.7664C178.994 56.427 181.627 49.5148 180.662 43.7886C179.813 38.8287 175.941 32.8749 171.889 33.2868Z" fill="#EBC464"/>
<path d="M173.677 35.355C173.654 36.0565 173.673 36.7415 173.566 37.4481C173.472 38.0752 173.354 38.6868 173.71 39.2418C173.801 39.3855 173.78 39.5638 173.812 39.7194C173.872 40.0111 173.923 40.3004 174 40.5967C174.038 40.7265 174.209 40.8457 174.183 40.9766C174.045 41.6288 174.082 42.2452 174.453 42.8134C174.201 43.3431 174.517 43.7769 174.688 44.2362C174.867 44.6979 174.861 45.2015 175.194 45.6399C175.282 45.7555 175.327 45.8962 175.299 46.0357C175.126 46.8531 175.326 47.6144 175.494 48.3945C175.676 49.2243 175.677 50.0791 175.445 50.945C175.321 51.408 175.371 51.8718 175.424 52.3269C175.485 52.9222 175.6 53.2471 175.662 53.668C175.747 54.2421 175.88 54.774 176.118 54.8469C176.169 54.8607 176.214 54.8636 176.251 54.8643C176.372 55.0622 177.017 54.0956 177.177 53.7064C177.293 53.4435 177.364 53.5545 177.482 53.4941C177.597 53.4422 177.725 53.3754 177.869 53.2487C178.025 53.0791 178.171 52.9437 178.426 52.4054C178.771 51.7352 178.962 50.987 179.106 50.2444C179.23 49.5425 179.21 48.8294 179.241 48.1302C179.26 47.0971 179.213 46.0736 179.055 45.0848C178.876 44.1086 178.597 43.1608 178.209 42.2393C178.025 41.7948 177.759 41.3834 177.531 40.964C177.412 40.7575 177.303 40.5446 177.217 40.3193C176.862 39.5167 176.484 38.6986 175.981 38.0033C175.279 36.9882 174.393 36.1443 173.542 35.6865C173.073 35.4137 172.583 35.2182 172.223 35.4985C172.134 35.5573 172.068 35.3559 172.071 34.934C172.092 34.2044 172.152 33.4303 172.601 32.99C172.905 32.7131 173.25 32.5574 173.598 32.7334C173.83 32.8966 174.111 32.9444 174.372 33.0328C174.62 33.136 174.852 33.2992 174.972 33.6069C175.005 33.6893 175.106 33.7255 175.181 33.7547C176.743 34.1642 177.648 35.5553 178.407 36.7695C178.667 37.17 178.982 37.5392 179.251 37.942C179.41 38.2052 179.564 38.4856 179.702 38.7613C179.876 39.1755 180.026 39.6108 180.221 40.0124C180.369 40.3184 180.64 40.5749 180.321 41.0131C180.25 41.1045 180.327 41.2629 180.45 41.2865C180.911 41.3826 180.962 41.6719 181.026 41.9464C181.203 42.6922 181.319 43.4586 181.401 44.2157C181.5 44.775 181.578 45.3382 181.702 45.9044C181.862 46.7834 182.062 47.6825 182.083 48.5979C182.107 49.3669 181.989 50.1164 181.886 50.879C181.857 51.055 181.897 51.2495 181.859 51.4233C181.792 51.7451 181.796 52.1047 181.555 52.3526C181.288 52.6301 181.198 52.8633 181.397 53.2844C181.516 53.5275 181.383 53.7858 181.263 53.9926C181.227 54.0566 181.183 54.1183 181.13 54.1777C181.062 54.2605 180.983 54.3496 180.904 54.4387C180.746 54.6169 180.584 54.7757 180.436 54.9196C180.249 55.0995 180.079 55.2559 179.936 55.4473C179.775 55.6341 179.653 55.8495 179.579 56.197C179.488 56.568 179.203 56.8775 178.95 56.9658C177.891 57.5918 177.134 58.1518 176.108 58.8601C175.744 59.121 175.288 59.3846 174.827 59.6654C174.462 59.825 174.338 59.81 173.925 60.0119C173.799 59.2153 173.656 58.3409 173.534 57.3893C173.422 56.5413 173.351 55.6035 173.254 54.6954L173.07 52.7438L172.985 51.6185L172.901 49.3628C172.888 49.0654 172.896 48.7641 172.778 48.4844C172.517 47.8449 172.477 47.1724 172.503 46.4904C172.539 45.6728 172.278 44.8954 171.996 44.1306C171.935 43.9487 171.815 43.7788 171.818 43.5958C171.818 42.2911 171.24 41.0886 171.065 39.8196C170.928 38.7903 170.935 37.7354 170.888 36.6753C170.867 35.861 170.849 35.0383 170.83 34.2155C170.827 34.1594 170.782 34.1199 170.779 34.0639C170.785 33.5968 171.261 33.3292 172.091 33.3496C172.829 33.3728 173.297 33.5809 173.381 33.9893C173.47 34.4451 173.518 34.9174 173.579 35.3749L173.677 35.355Z" fill="#EBC464"/>
</svg>
