<svg width="207" height="238" viewBox="0 0 207 238" fill="none" xmlns="http://www.w3.org/2000/svg">
<path d="M39.6789 167.836C34.6068 169.721 24.8524 161.713 25.0494 153.33C25.1373 149.641 27.1742 144.646 31.2065 143.521C35.9851 142.183 40.9073 147.03 42.8528 151.052C45.9013 157.337 43.9341 166.256 39.6789 167.836Z" fill="#CFE2F4"/>
<path d="M36.4851 169.232C35.5718 168.867 34.7416 168.434 34.0585 167.828C33.4474 167.296 32.938 166.728 32.1624 166.502C31.9566 166.447 31.8111 166.27 31.6408 166.151L30.7308 165.466C30.5903 165.373 30.3559 165.356 30.2657 165.213C29.8297 164.508 29.3444 163.918 28.6193 163.503C28.4629 162.818 27.9019 162.512 27.4507 162.069C26.991 161.624 26.712 161.053 26.1676 160.65C26.0208 160.547 25.9095 160.379 25.8714 160.212C25.6348 159.175 25.1435 158.299 24.7616 157.324C24.3592 156.288 24.2411 155.117 24.518 154.015C24.6742 153.432 24.6692 152.833 24.7414 152.255C24.8068 151.565 24.866 150.864 25.0155 150.169C25.2454 149.174 25.5159 148.199 25.811 147.166C26.1917 145.779 26.9275 144.405 28.1027 143.277C28.7191 142.726 29.5326 142.365 30.3585 142.163C32.0045 141.713 33.7453 141.904 35.1941 142.43C36.3051 142.81 37.3194 143.312 38.2764 143.89C39.1717 144.424 40.047 144.998 40.8169 145.692C41.9557 146.723 42.9567 147.891 43.8219 149.189C44.7043 150.492 45.3377 152.003 45.7967 153.514C46.0234 154.245 46.2221 154.978 46.371 155.726C46.4443 156.104 46.453 156.483 46.4703 156.864C46.496 158.277 46.3691 159.677 46.109 161.059C45.727 163.033 45.1637 165.033 43.8539 166.869C43.126 167.905 42.1477 168.847 40.8522 169.703C40.482 169.953 40.2992 169.812 40.2831 169.358C40.2383 168.565 40.09 167.781 40.2634 167.202C40.3486 166.747 40.4181 166.453 40.7482 166.285C40.9788 166.144 41.1546 165.934 41.3069 165.708C41.4616 165.474 41.6437 165.275 41.9834 165.173C42.0744 165.142 42.1151 165.024 42.1318 164.928C42.5129 163.266 43.2116 161.79 43.5178 160.098C43.6088 159.553 43.5752 158.992 43.5673 158.439C43.554 158.077 43.5664 157.722 43.5703 157.365C43.5337 156.849 43.6201 156.321 43.4909 155.809C43.4004 155.426 43.2362 155.079 43.5815 154.648C43.6519 154.556 43.5864 154.355 43.471 154.306C43.0047 154.125 43.0102 153.796 42.9076 153.493C42.6999 152.656 42.4448 151.825 42.0443 151.056C41.7569 150.483 41.3521 149.97 40.9078 149.502C40.2117 148.773 39.4165 148.174 38.6402 147.608C37.9826 147.147 37.3755 146.635 36.6989 146.279C36.5475 146.192 36.3543 146.159 36.1983 146.09C35.9143 145.949 35.5908 145.853 35.3944 145.626C35.1752 145.347 34.9363 145.209 34.5552 145.466C34.3441 145.602 34.1241 145.497 33.9463 145.44C33.7155 145.342 33.5099 145.149 33.271 145.011C32.9969 144.8 32.6957 144.655 32.398 144.943C32.2429 145.076 32.0234 145.072 31.8136 144.998C30.8768 144.756 29.9574 145.272 29.355 146.011C28.507 147.015 27.9989 148.294 27.6692 149.594C27.5508 150.104 27.3981 150.605 27.2968 151.12C26.9918 152.739 26.8397 154.232 27.1139 155.85C27.1667 156.167 27.2172 156.493 27.3913 156.769C27.7896 157.409 28.0432 158.074 28.2808 158.8C28.5719 159.668 29.2126 160.363 29.8934 160.978C30.0568 161.123 30.2487 161.229 30.3577 161.405C31.1464 162.646 32.4755 163.379 33.5808 164.226C34.4799 164.917 35.3745 165.626 36.3568 166.11C37.0979 166.464 37.8848 166.786 38.6401 166.813C38.6853 166.816 38.7333 166.774 38.7871 166.779C39.1787 166.792 39.5698 167.219 39.5751 168.056C39.5776 168.801 39.1613 169.361 38.5021 169.386C37.7822 169.432 37.0996 169.304 36.4652 169.134L36.4851 169.232Z" fill="#87B1D9"/>
<path d="M44.964 191.739C40.7086 192.051 37.0583 185.577 36.2724 180.588C35.6771 176.808 36.2213 170.696 39.5083 169.335C43.4371 167.704 50.8121 173.034 51.7276 179.666C52.4707 185.021 49.0233 191.439 44.964 191.739Z" fill="#CFE2F4"/>
<path d="M41.8315 192.248C41.4877 191.954 41.161 191.665 40.891 191.335C40.5969 191.026 40.3789 190.674 40.1889 190.32C39.8489 189.668 39.6227 189.038 39.0245 188.629C38.8583 188.53 38.8013 188.331 38.7026 188.185L38.1461 187.346C38.0599 187.222 37.8479 187.156 37.8247 187.003C37.6992 186.271 37.4706 185.649 36.9544 185.107C37.0466 184.488 36.6509 184.079 36.3662 183.598C36.1032 183.105 36.0003 182.563 35.6315 182.087C35.5282 181.958 35.4597 181.802 35.4731 181.65C35.5685 180.71 35.3483 179.852 35.2213 178.954C35.0824 177.998 35.187 177.024 35.5792 176.109C35.7833 175.622 35.8457 175.115 35.9275 174.604C36.0323 174.007 36.0708 173.383 36.2401 172.785C36.483 171.913 36.7345 171.043 37.1507 170.107C37.2809 169.793 37.482 169.488 37.683 169.184C37.9309 168.91 38.1537 168.593 38.4913 168.362C38.6527 168.24 38.8141 168.118 38.9818 168.006L39.5287 167.749C39.9 167.563 40.2826 167.473 40.6691 167.402C41.0712 167.307 41.456 167.346 41.8275 167.4C42.2123 167.439 42.5546 167.567 42.9016 167.678C44.2698 168.128 45.3919 168.879 46.4384 169.637C47.2079 170.229 47.9819 170.804 48.7096 171.449C49.3864 172.044 50.0913 172.637 50.6713 173.353C51.5603 174.391 52.2632 175.608 52.8248 176.908C53.3973 178.2 53.7021 179.67 53.8027 181.112C53.8556 181.806 53.8805 182.502 53.8431 183.19C53.8158 183.532 53.7605 183.876 53.688 184.215C53.3829 185.456 52.9024 186.632 52.3493 187.77C51.5212 189.386 50.5147 190.982 48.8728 192.205C47.9589 192.907 46.8285 193.422 45.5318 193.837C45.1594 193.958 45.0333 193.777 45.1333 193.335C45.284 192.567 45.349 191.776 45.6286 191.281C45.8138 190.899 45.9301 190.636 46.2515 190.603C46.4848 190.555 46.6851 190.425 46.8706 190.281C47.0583 190.13 47.2602 190.027 47.5872 190.042C47.6776 190.047 47.7372 189.962 47.7773 189.881C48.4798 188.562 49.4593 187.547 50.1064 186.195C50.3139 185.764 50.4146 185.286 50.5215 184.818C50.6191 184.523 50.6652 184.213 50.7541 183.915C50.8885 183.483 51.0056 183.046 51.0519 182.599C51.0535 182.25 50.9469 181.927 51.4018 181.636C51.4911 181.577 51.4684 181.387 51.3662 181.323C50.9548 181.075 51.0174 180.807 51.0092 180.529C50.9958 179.79 50.931 179.037 50.7191 178.319C50.6331 178.057 50.5276 177.799 50.4221 177.541C50.2949 177.296 50.1374 177.06 49.9884 176.828C49.501 176.109 48.8585 175.523 48.2634 174.932C47.7591 174.448 47.2898 173.936 46.75 173.516C46.6289 173.419 46.4597 173.364 46.3363 173.276C46.1066 173.104 45.8181 172.981 45.7023 172.693C45.5609 172.397 45.3787 172.22 44.9566 172.355C44.7273 172.422 44.5336 172.288 44.3936 172.158C44.2069 171.998 44.0757 171.733 43.9136 171.515C43.7264 171.253 43.542 170.947 43.1456 171.089C42.9397 171.171 42.7615 171.013 42.6199 170.856C41.9848 170.208 41.0519 170.123 40.4209 170.386C39.9873 170.564 39.6982 170.854 39.4491 171.201C39.2102 171.578 39.0324 172.036 38.8734 172.526C38.8183 172.732 38.7654 172.929 38.6932 173.13L38.5232 173.765C38.2334 175.121 37.9823 176.606 37.8902 178.116C37.8744 178.415 37.8477 178.72 37.9463 179.004C38.1742 179.663 38.2261 180.292 38.2321 180.955C38.2529 181.77 38.6213 182.521 39.0533 183.206C39.1561 183.372 39.2937 183.51 39.3358 183.695C39.6287 184.968 40.5532 185.942 41.1906 186.958C41.7019 187.794 42.1875 188.622 42.8031 189.274C43.2794 189.76 43.7694 190.195 44.3769 190.431C44.4198 190.443 44.457 190.407 44.4998 190.418C44.8165 190.54 45.0485 191.08 44.8652 191.867C44.771 192.218 44.6135 192.498 44.3908 192.677C44.2838 192.768 44.1556 192.835 44.0235 192.882C43.8982 192.903 43.7519 192.901 43.6147 192.864C43.2952 192.788 42.978 192.703 42.7049 192.556C42.4294 192.418 42.1323 192.292 41.8963 192.11L41.8315 192.248Z" fill="#87B1D9"/>
<path d="M75.091 167.451C75.091 167.451 79.9649 155.846 78.9002 150.148C78.0884 145.805 74.7552 139.931 69.1222 139.451C65.1769 139.12 60.4738 141.342 59.5102 144.87C55.6698 159.031 75.091 167.451 75.091 167.451Z" fill="#CFE2F4"/>
<path d="M75.0493 163.968C75.5168 163.184 75.918 162.373 76.4284 161.6C76.8877 160.914 77.3214 160.222 77.3012 159.371C77.2964 159.149 77.4052 158.948 77.4541 158.732C77.5489 158.344 77.6609 157.96 77.7191 157.571C77.7479 157.395 77.6418 157.174 77.7283 157.022C78.1501 156.272 78.3745 155.468 78.2166 154.617C78.6593 154.028 78.4594 153.368 78.399 152.736C78.3828 152.419 78.3471 152.107 78.3201 151.796C78.3077 151.637 78.2844 151.483 78.2503 151.336C78.199 151.185 78.1346 151.048 78.053 150.907C77.9628 150.763 77.9161 150.594 77.9512 150.429C78.0674 149.413 77.6574 148.439 77.2182 147.54C76.7351 146.565 76.336 145.586 75.9817 144.507C75.7868 143.931 75.4032 143.443 74.9972 143.003C74.7671 142.73 74.4758 142.514 74.2085 142.277L73.347 141.651C72.5107 141.069 71.5437 140.699 70.5649 140.648C69.2545 140.6 68.0324 140.806 66.8501 141.206C66.2506 141.385 65.6227 141.465 65.0085 141.631C63.7948 141.977 62.5929 142.519 61.7193 143.378C61.4102 143.709 61.1222 144.064 60.9581 144.47C60.7621 144.858 60.6845 145.251 60.5958 145.788C60.4014 146.719 60.4781 147.668 60.5187 148.579C60.6904 151.299 61.8297 153.838 63.5481 155.998C63.9615 156.513 64.4401 156.991 64.9209 157.459C65.1494 157.704 65.3886 157.943 65.6061 158.194C66.4301 159.132 67.3255 160.043 68.3108 160.858C69.7228 162.036 71.2774 163.059 72.8651 164.026C73.7581 164.569 74.6831 165.129 75.7023 165.338C75.9899 165.397 75.9456 165.596 75.7027 165.954C75.2469 166.558 74.7733 167.193 74.0967 167.352C73.6363 167.458 73.2286 167.505 72.8808 167.192C72.3759 166.744 71.5995 166.692 71.2756 165.98C71.2276 165.885 71.1059 165.825 71.0031 165.797C69.0878 165.229 67.6165 163.861 66.1612 162.57C65.686 162.149 65.1496 161.784 64.6658 161.361C64.354 161.084 64.0576 160.784 63.7698 160.487C63.3684 160.03 63.0019 159.546 62.5896 159.095C62.2721 158.771 61.8871 158.493 61.9896 157.905C62.0132 157.783 61.8481 157.61 61.7126 157.601C61.2072 157.567 61.0235 157.224 60.8158 156.902C60.3011 156.01 59.8454 155.07 59.4589 154.112C59.3055 153.758 59.1498 153.414 59.0096 153.045C58.8562 152.692 58.7052 152.33 58.5735 151.963C58.1209 150.841 57.7667 149.625 57.6327 148.376C57.5984 147.852 57.5579 147.317 57.6163 146.791C57.6467 146.266 57.6965 145.737 57.7914 145.211C57.8277 144.973 57.7954 144.716 57.8426 144.471C57.9673 143.972 58.0807 143.377 58.4465 143.007C58.8409 142.598 59.0785 142.294 59.1124 141.687C59.1311 141.343 59.4426 141.004 59.7304 140.787C60.0801 140.476 60.5263 140.32 60.9382 140.155C61.4512 139.989 61.9116 139.883 62.2364 139.391C62.4134 139.107 62.8195 139.032 63.1477 138.973C64.6042 138.785 65.8763 138.427 67.2694 138.166C69.116 137.825 71.2657 137.896 73.1596 138.715C73.9059 139.017 74.5875 139.456 75.2147 139.928C76.2036 140.661 77.0172 141.569 77.6879 142.529C78.3672 143.492 78.9074 144.529 79.3286 145.597C79.5111 146.014 79.6329 146.451 79.8698 146.836C80.4016 147.732 80.6513 148.754 80.7284 149.804C80.7851 151.17 80.9409 152.406 80.9829 153.621C81.006 153.913 81.0571 154.202 80.9858 154.468C80.5388 156.342 80.4942 158.223 79.9392 159.986C79.4846 161.408 78.8398 162.751 78.2019 164.069C77.6981 165.092 77.1389 166.081 76.5819 167.062C76.5464 167.126 76.5514 167.21 76.5073 167.272C76.1642 167.833 75.5982 167.819 74.9751 167.229C74.4131 166.72 74.1873 166.191 74.3983 165.678C74.634 165.107 74.9017 164.554 75.1545 163.987L75.0493 163.968Z" fill="#87B1D9"/>
<path d="M76.2319 168.599C78.9293 164.911 88.8794 166.529 94.6059 171.565C95.1342 172.028 101.296 177.566 99.5292 182.101C97.9515 186.172 90.7876 187.358 85.8399 185.692C78.0276 183.057 73.389 172.487 76.2319 168.599Z" fill="#CFE2F4"/>
<path d="M78.3495 165.774C78.8499 165.724 79.3331 165.67 79.8019 165.704C80.2799 165.703 80.7309 165.769 81.1791 165.88C81.578 165.968 81.9507 166.086 82.3348 166.162C82.7104 166.235 83.0935 166.246 83.4886 166.177C83.6917 166.139 83.9076 166.225 84.114 166.243C84.4988 166.282 84.8675 166.381 85.2414 166.426C85.4111 166.444 85.624 166.336 85.7754 166.422C86.4913 166.871 87.2148 167.12 88.0456 167.141C88.5258 167.646 89.1542 167.667 89.7784 167.807C90.3871 167.97 90.9281 168.317 91.601 168.378C91.7794 168.398 91.9611 168.475 92.0753 168.597C92.4522 168.974 92.8606 169.267 93.2754 169.571C93.7056 169.852 94.1404 170.115 94.5637 170.422C95.5029 171.032 96.2137 171.911 96.7008 172.906C96.9523 173.442 97.3366 173.894 97.7014 174.35C98.1141 174.902 98.5983 175.427 98.9801 176.025C99.5383 176.891 100.042 177.789 100.525 178.801L100.761 179.323L100.922 179.89C101.049 180.274 101.076 180.685 101.099 181.114C101.139 181.961 100.928 182.851 100.57 183.674C100.154 184.472 99.4604 185.104 98.7617 185.551C97.3615 186.49 95.8562 186.895 94.4001 187.185C93.2987 187.386 92.219 187.575 91.1131 187.655C90.0936 187.722 89.0431 187.836 87.9986 187.721C86.4574 187.575 84.8551 187.21 83.3893 186.541C81.919 185.89 80.5752 185.006 79.3609 183.982C78.7857 183.488 78.1888 183.007 77.6663 182.453C77.3997 182.179 77.1679 181.878 76.9384 181.569C76.1159 180.42 75.4587 179.169 74.873 177.891C74.0622 176.047 73.3847 174.083 73.36 171.844C73.3707 170.569 73.5632 169.233 74.1808 167.717C74.3689 167.289 74.6164 167.291 74.8727 167.673C75.3333 168.32 75.873 168.878 76.0935 169.461C76.2503 169.87 76.4026 170.159 76.2227 170.488C75.9665 170.998 76.2905 171.572 75.8742 172.131C75.8146 172.216 75.8494 172.327 75.8802 172.418C76.5381 174.009 76.8271 175.64 77.5542 177.213C77.7869 177.716 78.1346 178.168 78.4542 178.621L79.0701 179.512C79.3663 179.95 79.6385 180.409 80.0068 180.783C80.2907 181.061 80.6364 181.246 80.5882 181.802C80.5755 181.919 80.7412 182.055 80.8664 182.033C81.3502 181.942 81.553 182.18 81.786 182.408C82.4262 183.003 83.1013 183.569 83.8584 184.002C84.4149 184.326 85.027 184.545 85.6512 184.685C86.6144 184.897 87.6069 184.896 88.5761 184.88C89.3834 184.885 90.1844 184.879 90.9781 184.798C91.1594 184.773 91.3334 184.672 91.5123 184.656C91.8486 184.636 92.1787 184.467 92.5061 184.582C92.8702 184.698 93.1487 184.653 93.3836 184.257C93.5165 184.035 93.7716 183.975 93.9981 183.953C94.2891 183.93 94.5835 183.963 94.8951 184C95.2752 184.056 95.6263 184.049 95.8309 183.663C95.9335 183.452 96.1691 183.395 96.415 183.369C97.4226 183.244 98.1182 182.466 98.3061 181.661C98.5573 180.552 98.1693 179.428 97.5097 178.324C97.2478 177.895 96.9927 177.441 96.6965 177.003C95.7524 175.656 94.6483 174.221 93.4657 172.976C93.2327 172.748 92.9763 172.505 92.6752 172.36C92.338 172.178 91.9877 172.01 91.6707 171.788C91.3645 171.559 91.0583 171.329 90.7481 171.081C90.3894 170.774 89.9712 170.551 89.5283 170.387C89.0985 170.207 88.6332 170.092 88.1719 169.996C87.9553 169.947 87.7272 169.941 87.5415 169.845C86.2078 169.129 84.6555 169.127 83.2601 168.882C82.1242 168.697 80.9724 168.434 79.8952 168.476C79.0764 168.514 78.2718 168.602 77.6225 168.933C77.5876 168.961 77.5801 169.023 77.5389 169.039C77.2174 169.211 76.6321 169.063 76.1806 168.381C75.9877 168.072 75.9006 167.746 75.9382 167.434C75.9631 167.101 76.1418 166.846 76.4291 166.665L76.9034 166.37C77.0642 166.284 77.2329 166.237 77.3977 166.171C77.7249 166.048 78.0543 165.915 78.3803 165.865L78.3495 165.774Z" fill="#87B1D9"/>
<path d="M103.379 148.496C103.379 148.496 103.99 137.265 100.954 131.756C98.1337 126.645 92.5551 119.995 87.688 121.594C83.0612 123.12 80.9792 131.439 83.2928 137.38C87.658 148.593 103.379 148.496 103.379 148.496Z" fill="#CFE2F4"/>
<path d="M102.14 145.16C102.304 144.239 102.386 143.314 102.589 142.385C102.756 141.557 102.922 140.729 102.576 139.929C102.494 139.723 102.521 139.482 102.489 139.262C102.422 138.858 102.384 138.453 102.296 138.061C102.251 137.884 102.067 137.715 102.087 137.537C102.192 136.664 102.071 135.814 101.579 135.076C101.738 134.347 101.286 133.803 100.958 133.246C100.599 132.7 100.411 132.098 99.8389 131.66C99.6944 131.548 99.5722 131.386 99.5255 131.218C99.218 130.17 98.5432 129.328 97.8507 128.517C97.0987 127.654 96.4663 126.722 95.9066 125.69C95.6169 125.125 95.1331 124.702 94.675 124.285C94.1147 123.804 93.4622 123.427 92.8417 123.068C91.9401 122.523 90.9096 122.219 89.9501 122.302C88.6646 122.435 87.7274 122.984 87.0134 123.831C86.6596 124.26 86.1714 124.607 85.786 125.119C84.9987 126.103 84.3362 127.341 83.967 128.684C83.6702 129.689 83.594 130.762 83.6259 131.809C83.6373 132.795 83.8969 133.747 84.1073 134.677C84.1984 135.023 84.3135 135.347 84.4069 135.685C84.5197 136.018 84.6651 136.333 84.7825 136.649C85.0928 137.275 85.4551 137.877 85.7723 138.477C86.2177 139.01 86.5846 139.595 87.0586 140.09L87.7936 140.81C87.9186 140.926 88.0328 141.049 88.1579 141.165L88.5789 141.48L89.3895 142.056C89.6598 142.248 89.9827 142.38 90.2598 142.546C90.5563 142.708 90.8157 142.907 91.0991 143.084C91.6516 143.388 92.1646 143.737 92.7435 144.011C93.3269 144.269 93.8835 144.592 94.5024 144.786C96.2266 145.45 98.0735 145.862 99.9308 146.167C100.981 146.329 102.065 146.5 103.087 146.287C103.37 146.225 103.408 146.428 103.332 146.848C103.171 147.586 102.975 148.352 102.406 148.76C102.018 149.042 101.642 149.244 101.189 149.086C100.531 148.864 99.7735 149.12 99.1778 148.566C99.0973 148.489 98.9594 148.489 98.8474 148.495C96.7906 148.661 94.8595 147.877 93.0142 147.116C92.4182 146.837 91.7751 146.665 91.1574 146.398C90.7665 146.211 90.3888 146.008 90.0135 145.798C89.4563 145.51 88.9903 145.055 88.4464 144.753C88.2395 144.633 88.0258 144.539 87.8453 144.39C87.678 144.225 87.5564 144.027 87.5294 143.717C87.5187 143.585 87.3164 143.448 87.1826 143.468C86.673 143.552 86.3698 143.277 86.11 142.978L85.0691 141.753C84.7163 141.355 84.4704 140.866 84.1547 140.433C83.9493 140.102 83.6615 139.804 83.4801 139.452C83.2878 139.107 83.0738 138.774 82.8621 138.432C82.1429 137.412 81.6074 136.221 81.2275 134.998C81.0898 134.484 80.9652 133.954 80.9052 133.423C80.8258 132.897 80.7853 132.362 80.7556 131.821C80.7405 131.569 80.6413 131.322 80.6605 131.079C80.6811 130.625 80.5947 130.124 80.8039 129.721C81.0354 129.268 81.1016 128.918 80.8432 128.408C80.6995 128.121 80.8137 127.729 80.9159 127.417C81.0604 127.014 81.3399 126.657 81.5804 126.308C81.8931 125.896 82.2326 125.555 82.1933 124.947C82.1966 124.626 82.4582 124.301 82.6969 124.062C83.7931 123.023 84.6693 121.88 85.9597 120.939C87.6852 119.609 90.3715 119.392 92.3444 120.123C93.1474 120.384 93.8513 120.774 94.5312 121.186C96.604 122.504 98.1245 124.272 99.4156 126.106C99.6765 126.47 99.9156 126.847 100.229 127.151C100.98 127.849 101.482 128.718 101.897 129.638C102.026 129.912 102.155 130.185 102.294 130.452C102.439 130.702 102.596 130.974 102.754 131.274L103.25 132.133L103.692 132.986C103.841 133.256 104.011 133.513 104.055 133.791C104.436 135.768 105.113 137.594 105.262 139.509C105.382 141.048 105.255 142.585 105.127 144.095C105.025 145.262 104.844 146.417 104.652 147.579C104.64 147.658 104.676 147.732 104.655 147.809C104.523 148.472 103.978 148.657 103.198 148.31C102.496 148.012 102.105 147.586 102.128 147.022L102.248 145.133L102.14 145.16Z" fill="#87B1D9"/>
<path d="M100.039 155.005C100.039 155.005 108.648 139.715 120.165 141.624C125.277 142.47 130.5 147.187 129.856 150.828C129.064 155.257 120.954 157.641 118.868 157.919C113.561 158.62 100.039 155.005 100.039 155.005Z" fill="#CFE2F4"/>
<path d="M100.736 151.609C101.412 150.972 102.064 150.32 102.82 149.797C103.506 149.328 104.172 148.9 104.54 148.144C104.63 147.948 104.83 147.817 104.981 147.665L105.807 146.811C105.934 146.68 105.964 146.431 106.121 146.362C106.902 145.983 107.545 145.503 108.042 144.782C108.757 144.652 109.119 144.087 109.616 143.641C110.106 143.185 110.719 142.917 111.185 142.38C111.306 142.238 111.476 142.118 111.659 142.085C112.763 141.875 113.707 141.402 114.758 141.049C115.875 140.687 117.114 140.624 118.258 140.949C118.562 141.049 118.874 141.086 119.183 141.132C119.49 141.187 119.802 141.225 120.113 141.262L121.217 141.429C121.582 141.509 121.949 141.579 122.306 141.685C123.341 142.008 124.331 142.393 125.393 142.751C126.804 143.248 128.16 144.016 129.339 145.104C129.956 145.646 130.341 146.438 130.701 147.224C131.023 148.045 131.305 148.911 131.272 149.894C131.26 150.865 130.983 151.829 130.531 152.59C129.876 153.766 129.002 154.662 128.095 155.439C127.235 156.146 126.367 156.814 125.423 157.351C124.021 158.124 122.577 158.748 121.061 159.261C120.672 159.377 120.297 159.506 119.884 159.607C119.478 159.719 118.994 159.809 118.58 159.845C118.142 159.903 117.714 159.954 117.31 159.955C116.9 159.974 116.48 160 116.088 159.987C115.315 159.991 114.563 160.019 113.81 159.983C113.436 159.974 113.064 159.921 112.704 159.861C111.336 159.65 110.021 159.344 108.693 159.089C106.791 158.708 104.91 158.324 103.04 157.859C101.981 157.594 100.944 157.279 99.8251 157.237C99.5066 157.225 99.4565 157 99.6783 156.619C100.066 155.96 100.403 155.251 101.007 154.953C101.419 154.751 101.79 154.602 102.174 154.815C102.746 155.116 103.464 154.941 103.964 155.507C104.034 155.59 104.161 155.596 104.273 155.589C106.18 155.503 107.928 156.146 109.745 156.532C110.335 156.662 110.946 156.679 111.544 156.747L112.704 156.911C113.26 156.996 113.815 157.154 114.381 157.167C114.809 157.181 115.228 157.091 115.576 157.543C115.652 157.637 115.874 157.632 115.958 157.526C116.28 157.143 116.619 157.216 116.96 157.215C117.422 157.238 117.882 157.269 118.331 157.243C118.789 157.246 119.21 157.184 119.662 157.075C120.321 156.912 120.976 156.665 121.595 156.344C122.561 155.858 123.441 155.249 124.304 154.671C125.014 154.181 125.732 153.73 126.318 153.189C126.46 153.071 126.53 152.878 126.663 152.758C126.914 152.54 127.042 152.235 127.348 152.123C127.675 152 127.834 151.785 127.689 151.397C127.566 151.171 127.672 151.016 127.78 150.888C127.832 150.728 128.101 150.58 128.212 150.407C128.409 150.221 128.548 149.909 128.241 149.68C128.045 149.554 128.105 149.331 128.111 149.103C128.186 148.103 127.477 147.15 126.644 146.486C125.497 145.553 124.135 144.876 122.766 144.427C122.238 144.239 121.709 144.051 121.186 143.911C119.583 143.482 117.893 143.305 116.178 143.498C115.842 143.554 115.491 143.561 115.192 143.748C114.489 144.111 113.774 144.379 112.991 144.592C112.058 144.884 111.281 145.521 110.574 146.205C110.409 146.372 110.272 146.574 110.079 146.679C108.692 147.465 107.748 148.829 106.597 149.936C105.664 150.844 104.659 151.714 103.713 152.673C102.992 153.408 102.241 154.154 101.563 154.937C101.521 154.99 101.509 155.069 101.461 155.111C101.062 155.537 100.518 155.438 99.9629 154.802C99.4839 154.223 99.356 153.638 99.6761 153.163C100.027 152.641 100.431 152.162 100.836 151.682L100.736 151.609Z" fill="#87B1D9"/>
<path d="M112.738 116.068C112.352 111.848 119.765 106.612 126.625 107.145C132.736 107.625 139.04 112.732 138.386 116.821C137.75 120.84 130.56 122.948 125.517 122.837C120.173 122.719 113.092 119.995 112.738 116.068Z" fill="#CFE2F4"/>
<path d="M112.336 112.734L112.799 112.205C112.961 112.046 113.138 111.901 113.298 111.751C113.628 111.444 113.996 111.203 114.374 110.992C114.703 110.795 115.063 110.652 115.372 110.459C115.674 110.255 115.96 110.047 116.183 109.73C116.299 109.568 116.503 109.494 116.664 109.372C116.973 109.179 117.28 108.995 117.574 108.789C117.703 108.686 117.795 108.48 117.948 108.457C118.732 108.309 119.414 108.096 120.019 107.551C120.697 107.696 121.14 107.245 121.691 107.007C121.962 106.886 122.25 106.807 122.544 106.702C122.834 106.615 123.124 106.527 123.392 106.35C123.536 106.26 123.717 106.199 123.885 106.225C124.391 106.324 124.876 106.335 125.361 106.308C125.851 106.329 126.343 106.277 126.838 106.281C127.895 106.316 128.949 106.599 129.822 107.219C130.292 107.519 130.812 107.741 131.321 107.933C131.919 108.203 132.558 108.393 133.145 108.706C134.001 109.147 134.832 109.609 135.742 110.055C136.953 110.646 138.104 111.496 139.022 112.698C139.262 113.001 139.417 113.383 139.569 113.745C139.693 114.137 139.785 114.547 139.858 114.962C139.954 115.805 139.938 116.72 139.614 117.552C139.342 118.398 138.822 119.068 138.315 119.658C137.508 120.508 136.628 121.154 135.731 121.722C134.889 122.259 134.035 122.738 133.141 123.123C130.46 124.178 127.649 124.758 124.671 124.759C123.965 124.754 123.252 124.774 122.554 124.706C122.203 124.677 121.851 124.619 121.514 124.538C120.242 124.243 119.014 123.822 117.797 123.322C116.065 122.619 114.314 121.745 112.77 120.238C111.915 119.347 111.146 118.204 110.635 116.716C110.491 116.292 110.671 116.137 111.119 116.248C111.902 116.412 112.676 116.473 113.212 116.736C113.625 116.911 113.862 117.02 113.968 117.343C114.022 117.587 114.202 117.773 114.393 117.953C114.562 118.145 114.711 118.341 114.768 118.678C114.78 118.773 114.873 118.835 114.957 118.867C116.449 119.469 117.726 120.362 119.234 120.977C119.726 121.164 120.252 121.259 120.764 121.369L121.757 121.608C122.24 121.728 122.719 121.893 123.214 121.934C123.588 121.979 123.96 121.858 124.256 122.332C124.321 122.432 124.523 122.431 124.596 122.331C124.893 121.942 125.189 122.003 125.494 122.03C126.312 122.065 127.153 122.116 127.982 122.007C128.596 121.942 129.2 121.782 129.78 121.57C130.692 121.254 131.529 120.771 132.348 120.356C133.017 119.984 133.722 119.686 134.304 119.263C134.448 119.173 134.543 119.024 134.671 118.92C134.903 118.743 135.113 118.506 135.386 118.45C135.55 118.421 135.682 118.373 135.769 118.286C135.842 118.187 135.862 118.045 135.818 117.831C135.794 117.714 135.817 117.628 135.866 117.55C135.895 117.475 135.956 117.418 136.007 117.367C136.177 117.247 136.357 117.157 136.559 117.055C136.696 116.991 136.798 116.917 136.843 116.819C136.887 116.721 136.937 116.605 136.788 116.474C136.633 116.331 136.763 116.191 136.843 116.029C137.232 115.297 136.815 114.349 136.174 113.69C135.324 112.746 134.174 112.033 133.019 111.439C132.553 111.222 132.132 110.944 131.664 110.735C130.237 110.059 128.786 109.404 127.269 109.062C126.971 109.009 126.667 108.91 126.364 108.976C126.01 109.064 125.684 109.078 125.338 109.068C124.993 109.086 124.649 109.067 124.301 109.029C123.873 109.015 123.452 109.077 123.043 109.197C122.644 109.348 122.245 109.498 121.867 109.709C121.693 109.81 121.536 109.951 121.344 109.983C119.987 110.244 118.925 111.191 117.83 111.881C116.936 112.441 116.007 112.991 115.287 113.69C114.748 114.225 114.248 114.79 113.994 115.429C113.982 115.472 114.016 115.518 114.007 115.552C113.885 115.869 113.345 116.137 112.562 115.937C111.874 115.762 111.393 115.192 111.586 114.573L111.73 114.069C111.791 113.911 111.867 113.766 111.945 113.612C112.098 113.313 112.243 113.012 112.437 112.77L112.336 112.734Z" fill="#87B1D9"/>
<path d="M111.007 106.68C111.007 106.68 103.013 77.3199 90.7666 83.5861C86.549 85.7457 85.656 93.2621 87.7694 98.4414C90.1865 104.373 97.0546 108.612 102.799 107.201C103.448 107.044 111.007 106.68 111.007 106.68Z" fill="#CFE2F4"/>
<path d="M108.795 103.863C108.669 102.928 108.475 102.004 108.382 101.05C108.305 100.203 108.221 99.3531 107.668 98.6721C107.522 98.4952 107.485 98.2556 107.394 98.0474C107.228 97.6721 107.065 97.2883 106.879 96.917C106.796 96.7476 106.578 96.6342 106.553 96.4529C106.422 95.5722 106.115 94.764 105.488 94.1183C105.486 93.3732 104.962 92.8929 104.534 92.3647C104.127 91.8239 103.821 91.218 103.264 90.7931C103.109 90.6871 102.984 90.5343 102.92 90.361C102.587 89.3068 101.847 88.5021 101.126 87.7299C100.321 86.9262 99.6361 86.0534 98.9391 85.1223C98.5641 84.6359 98.043 84.2482 97.4876 83.9891C97.3253 83.9088 97.1653 83.82 96.9922 83.7461L96.4738 83.5888C96.1292 83.4689 95.7747 83.4198 95.4226 83.3623C94.4153 83.2118 93.3586 83.3146 92.4946 83.8642C92.2017 83.9971 91.9373 84.2294 91.6672 84.4144C91.5407 84.5091 91.3885 84.597 91.2792 84.6964L90.966 85.0076C90.7434 85.1869 90.603 85.4709 90.4124 85.6679C90.2617 85.9216 90.0985 86.1535 89.9712 86.4226C89.7167 86.9609 89.3039 87.4384 89.0333 88.0367C88.4539 89.2047 88.0348 90.5627 87.9056 91.9708C87.8232 93.0331 87.9214 94.107 88.1323 95.1375C88.3507 96.1058 88.7533 97.0039 89.1479 97.8632C90.3627 100.394 92.4826 102.497 94.9219 103.784C95.511 104.089 96.1316 104.311 96.7506 104.504C97.0501 104.621 97.3611 104.695 97.6605 104.812C98.7693 105.201 99.9194 105.436 101.038 105.377C101.44 105.384 101.825 105.285 102.218 105.225C102.207 105.231 102.704 105.125 102.814 105.127L103.247 105.087L104.037 105.023C105.076 104.952 106.084 104.892 107.105 104.853C108.258 104.803 109.408 104.799 110.543 104.506C110.859 104.425 110.974 104.612 110.877 105.045C110.705 105.79 110.577 106.573 110.048 107.038C109.688 107.355 109.357 107.597 108.891 107.518C108.217 107.393 107.526 107.777 106.846 107.365C106.75 107.312 106.614 107.34 106.505 107.366C105.54 107.677 104.554 107.79 103.58 107.859L102.95 107.911L102.158 108.021C101.629 108.109 101.098 108.067 100.574 108.102C100.232 108.074 99.8899 108.084 99.5411 108.082C99.1924 108.081 98.8551 108.036 98.5132 108.009C98.0638 107.971 97.642 107.831 97.211 107.724C96.5967 107.514 96.0023 107.263 95.4143 107.022C94.9605 106.864 94.4689 106.778 94.3004 106.172C94.2679 106.053 94.0371 105.955 93.9049 106.002C93.4067 106.181 93.0925 105.913 92.7669 105.688C91.8992 105.051 91.1042 104.314 90.3635 103.546C89.7958 102.99 89.2413 102.419 88.6914 101.83C87.8217 100.926 87.0293 99.9052 86.4115 98.7473C85.9004 97.7741 85.6123 96.7228 85.3414 95.6762C85.2788 95.4297 85.1665 95.1974 85.121 94.9555C85.0318 94.4997 84.902 94.0239 85.0215 93.578C85.133 93.0933 85.1929 92.7326 84.8281 92.2765C84.6214 92.0189 84.6756 91.6107 84.7263 91.2843C84.7914 90.8699 84.9835 90.4619 85.1795 90.0733C85.3961 89.6076 85.6699 89.2031 85.5117 88.6277C85.4223 88.3097 85.648 87.9475 85.825 87.6641C86.679 86.4318 87.2735 85.1392 88.2349 83.9174C88.385 83.7003 88.5819 83.5142 88.7702 83.3257C88.9671 83.1395 89.1343 82.927 89.3695 82.7695L90.0454 82.2706C90.2674 82.1279 90.4996 82.0156 90.7256 81.8923C90.9516 81.7691 91.1799 81.6373 91.4207 81.5272L92.1832 81.2537C92.682 81.0382 93.243 80.9679 93.7938 80.8674C94.6676 80.7615 95.5749 80.8393 96.422 81.0387C97.7344 81.3536 98.9624 81.9491 99.942 82.717C100.47 83.079 100.887 83.5123 101.339 83.9182C101.736 84.3555 102.175 84.7763 102.528 85.2387C102.817 85.601 103.106 85.9632 103.431 86.2615C104.22 86.9508 104.789 87.8109 105.234 88.7205C105.787 89.815 106.496 90.7678 107.212 91.7315C107.38 91.9604 107.581 92.1705 107.678 92.4262C108.376 94.212 109.491 95.7789 110.137 97.551C110.662 98.9873 111.005 100.485 111.333 101.97C111.587 103.113 111.772 104.275 111.946 105.442C111.962 105.52 112.017 105.59 112.024 105.665C112.101 106.338 111.65 106.686 110.792 106.594C110.038 106.53 109.526 106.246 109.371 105.69C109.197 105.073 109.061 104.449 108.895 103.834L108.795 103.863Z" fill="#87B1D9"/>
<path d="M118.126 74.6415C118.126 74.6415 112.808 86.2927 116.42 93.8031C119.546 100.311 127.599 105.308 131.94 102.86C136.065 100.528 135.22 92.2613 133.116 86.2942C130.147 77.8623 118.126 74.6415 118.126 74.6415Z" fill="#CFE2F4"/>
<path d="M118.156 78.1601C117.712 78.96 117.331 79.7955 116.866 80.608C116.442 81.3308 116.062 82.065 116.144 82.9233C116.168 83.1412 116.083 83.3572 116.051 83.5785C115.999 83.9781 115.911 84.377 115.904 84.7795C115.901 84.9625 116.029 85.1714 115.957 85.3359C115.606 86.1331 115.533 86.9867 115.797 87.8201C115.502 88.4761 115.723 89.1236 115.946 89.7345C116.046 90.0462 116.099 90.3636 116.162 90.6747C116.265 90.9779 116.395 91.2793 116.591 91.5431C116.701 91.6828 116.765 91.8561 116.764 92.0305C116.803 92.5371 116.956 93.0285 117.136 93.4901C117.391 93.9444 117.639 94.3878 117.951 94.8021C118.601 95.7023 119.18 96.6292 119.707 97.6802C119.977 98.2488 120.45 98.6788 120.895 99.1104C121.179 99.352 121.468 99.5765 121.768 99.7947L122.688 100.409C123.12 100.717 123.598 100.956 124.068 101.192C124.56 101.379 125.043 101.6 125.565 101.676C126.923 101.957 128.282 102.064 129.384 101.863C129.649 101.796 129.938 101.818 130.184 101.756C130.309 101.734 130.441 101.723 130.581 101.715L130.934 101.598C131.877 101.336 132.697 100.472 133.155 99.2435C133.491 98.3319 133.622 97.292 133.584 96.2342C133.57 95.2565 133.376 94.2671 133.205 93.2932C132.952 91.8377 132.576 90.3953 132.117 88.986C131.883 88.2801 131.62 87.5845 131.34 86.9124C131.01 86.3277 130.796 85.719 130.37 85.1822C130.183 84.9207 130.015 84.6552 129.793 84.4211L129.127 83.7188C128.926 83.4721 128.672 83.2568 128.463 83.0078C127.682 82.0818 126.72 81.2453 125.699 80.4939C124.212 79.4247 122.541 78.5633 120.834 77.8025C119.874 77.3708 118.863 76.9254 117.822 76.867C117.525 76.8426 117.55 76.6471 117.738 76.2562C118.091 75.5882 118.486 74.9038 119.132 74.6541C119.58 74.4894 119.985 74.3864 120.391 74.6516C120.96 75.0336 121.753 74.9888 122.187 75.6658C122.246 75.755 122.381 75.8004 122.486 75.8194C124.502 76.1848 126.165 77.4207 127.737 78.6507C128.251 79.0641 128.827 79.3839 129.334 79.823C129.663 80.1041 130.006 80.3704 130.284 80.7024C130.7 81.1723 131.106 81.6485 131.496 82.1481C131.793 82.5127 132.226 82.7848 132.08 83.3981C132.045 83.5267 132.195 83.723 132.328 83.7403C132.839 83.8221 133.027 84.1848 133.197 84.543L133.786 86.0514L134.232 87.5402C134.459 88.2718 134.705 88.9994 134.981 89.7167C135.378 90.843 135.834 91.9853 136.092 93.1846C136.318 94.1917 136.398 95.233 136.445 96.2931C136.451 96.543 136.525 96.7832 136.52 97.0393C136.519 97.4893 136.53 97.9976 136.347 98.4079C136.104 98.8668 135.99 99.2222 136.231 99.7646C136.34 100.079 136.191 100.498 136.041 100.816C135.819 101.235 135.498 101.608 135.152 101.938C134.696 102.34 134.32 102.643 134.054 103.261C133.982 103.426 133.863 103.596 133.684 103.714C133.506 103.831 133.298 103.922 133.113 103.992C131.467 104.581 129.959 104.792 128.467 104.769C126.448 104.724 124.537 104.175 122.8 103.352C122.138 103.009 121.48 102.621 120.882 102.176C118.974 100.829 117.403 99.0754 116.199 97.0893C115.975 96.6894 115.751 96.2895 115.449 95.9421C115.121 95.5232 114.835 95.0791 114.606 94.5951C114.404 94.0815 114.234 93.5489 114.101 93.017C113.998 92.3737 113.843 91.7531 113.659 91.1343C113.538 90.5229 113.355 89.9041 113.219 89.2795C113.168 88.9902 113.069 88.7065 113.083 88.416C113.213 86.4202 113.044 84.4451 113.453 82.5422C113.806 81.0194 114.377 79.5736 114.99 78.1758C115.474 77.0923 116.027 76.0552 116.613 75.0359C116.648 74.9719 116.654 74.8816 116.69 74.8176C117.057 74.236 117.629 74.2606 118.228 74.8714C118.775 75.4038 119.003 75.9244 118.783 76.4353L118.048 78.1497L118.156 78.1601Z" fill="#87B1D9"/>
<path d="M117.491 73.6742C117.491 73.6742 109.817 72.5461 107.128 64.3364C105.993 60.8896 106.353 55.9781 109.554 53.9779C112.531 52.1289 117.679 54.4181 119.751 57.9324C122.77 63.0601 117.491 73.6742 117.491 73.6742Z" fill="#CFE2F4"/>
<path d="M114.761 74.1912C114.159 73.7633 113.574 73.3401 113.097 72.7895C112.681 72.283 112.317 71.7903 111.683 71.6203C111.52 71.5766 111.413 71.4284 111.274 71.327C111.041 71.1358 110.82 70.9297 110.576 70.7447C110.47 70.6611 110.243 70.6831 110.198 70.5424C109.929 69.9006 109.558 69.4336 108.969 69.0921C108.923 68.51 108.467 68.259 108.115 67.8893C107.743 67.532 107.587 67.0493 107.125 66.7143C107.002 66.6261 106.907 66.4996 106.89 66.3572C106.839 65.93 106.762 65.5325 106.605 65.1596C106.456 64.7889 106.279 64.4199 106.137 64.0235C105.828 63.1872 105.779 62.2735 106.033 61.395C106.168 60.9257 106.163 60.4649 106.177 60.0001C106.206 59.4472 106.172 58.8869 106.257 58.3306C106.374 57.5166 106.542 56.7163 106.721 55.8452C106.962 54.6693 107.626 53.4597 108.687 52.5862C109.287 52.1312 110.057 51.9332 110.742 51.8779C112.151 51.7315 113.409 52.0778 114.55 52.4846C115.401 52.8046 116.229 53.1458 117.027 53.5619C117.754 53.9681 118.527 54.3407 119.196 54.8967C119.693 55.3055 120.151 55.7589 120.586 56.2614C120.792 56.519 120.994 56.7936 121.19 57.0575C121.366 57.3618 121.537 57.6834 121.7 58.0026C122.303 59.2852 122.573 60.6441 122.648 61.9049C122.711 62.5282 122.744 63.1251 122.747 63.7323C122.757 64.0382 122.706 64.3281 122.656 64.6179C122.557 65.161 122.442 65.6908 122.296 66.203C122.164 66.7282 122.02 67.2318 121.865 67.7416C121.449 69.1922 120.995 70.6142 120.416 71.9846C120.089 72.7607 119.714 73.5058 119.562 74.3839C119.512 74.6371 119.29 74.642 118.953 74.3586C118.365 73.8793 117.715 73.4571 117.472 72.9234C117.31 72.5675 117.19 72.2598 117.414 72.0073C117.75 71.647 117.602 71.0653 118.186 70.8081C118.268 70.7751 118.276 70.6762 118.28 70.5944C118.291 69.1456 118.968 67.9577 119.356 66.6465C119.497 66.2248 119.489 65.7725 119.57 65.3346L119.713 64.4909C119.793 64.0896 119.929 63.6849 119.919 63.2778C119.911 62.9634 119.815 62.6711 120.254 62.4029C120.344 62.3441 120.323 62.1823 120.218 62.1267C119.808 61.9066 119.855 61.662 119.868 61.4081C119.843 60.7488 119.833 60.0661 119.63 59.4513C119.585 59.2094 119.454 59.0091 119.333 58.8111C119.2 58.6194 119.098 58.4175 118.925 58.2423C118.422 57.6848 117.752 57.3032 117.145 56.9291C116.644 56.602 116.131 56.2898 115.601 56.0376C115.477 55.986 115.317 55.9984 115.196 55.9382C114.978 55.8247 114.705 55.8158 114.553 55.5915C114.392 55.3369 114.195 55.2475 113.868 55.5089C113.685 55.6437 113.507 55.5868 113.37 55.5135C113.187 55.4092 113.031 55.2386 112.852 55.0806C112.643 54.8682 112.422 54.6987 112.153 54.9483C112.015 55.0859 111.856 55.0251 111.699 54.9277C111.364 54.7369 111.011 54.7159 110.696 54.7967C110.388 54.8799 110.133 55.0779 109.888 55.3429C109.258 56.0472 108.964 56.9702 108.822 57.9152C108.768 58.2868 108.686 58.66 108.647 59.0448C108.537 60.2465 108.464 61.5134 108.61 62.784C108.636 63.0299 108.658 63.2929 108.805 63.4978C109.146 63.9751 109.326 64.5379 109.426 65.1252C109.517 65.4712 109.673 65.7796 109.868 66.08C110.068 66.3633 110.344 66.6026 110.581 66.8499C110.697 66.9638 110.849 67.0503 110.933 67.1831C111.413 68.2031 112.472 68.7075 113.26 69.4054C113.902 69.9911 114.572 70.6117 115.327 71.1541C115.906 71.5664 116.517 71.9966 117.163 72.3261C117.204 72.3462 117.256 72.3234 117.305 72.3457C117.646 72.5474 117.689 73.0734 117.366 73.8323C117.052 74.4924 116.605 74.8229 116.174 74.68C115.69 74.5319 115.244 74.3112 114.809 74.0843L114.761 74.1912Z" fill="#87B1D9"/>
<path d="M148.474 66.9965C144.794 68.3169 140.256 64.1604 138.356 60.619C136.325 56.8126 136.121 51.4373 138.988 47.9049C139.621 47.1189 141.033 45.3836 143.144 45.1866C147.237 44.7947 151.313 50.3988 152.221 55.448C152.914 59.3093 152.256 65.6391 148.474 66.9965Z" fill="#CFE2F4"/>
<path d="M145.69 68.3723C144.871 68.0334 144.153 67.5929 143.601 67.013C143.108 66.4858 142.717 65.9582 142.04 65.7401C141.862 65.6833 141.746 65.5328 141.615 65.4057L140.868 64.7644C140.755 64.6699 140.536 64.6662 140.471 64.5295C140.162 63.8676 139.792 63.3274 139.157 62.955C139.105 62.3254 138.616 62.0567 138.24 61.6435C137.864 61.2302 137.67 60.7188 137.205 60.3277C137.075 60.2287 136.996 60.0788 136.981 59.9278C136.891 58.994 136.552 58.2046 136.297 57.3369C136.02 56.4172 136.002 55.42 136.326 54.4867C136.485 53.9963 136.513 53.4801 136.564 52.9793C136.632 52.3819 136.649 51.7707 136.79 51.1745C136.986 50.3079 137.239 49.466 137.493 48.551C137.88 47.313 138.413 46.2153 139.357 45.1632C139.837 44.6395 140.545 44.2961 141.272 44.05C142.75 43.5086 144.427 43.765 145.692 44.3246C146.654 44.7477 147.526 45.2662 148.31 45.8715C149.024 46.4304 149.764 46.9961 150.353 47.6778C152.119 49.6948 153.4 52.0503 154.128 54.7173C154.315 55.3556 154.481 56.0065 154.592 56.6521C154.652 56.9804 154.657 57.3034 154.662 57.6265C154.659 58.8386 154.525 60.0248 154.322 61.2293C154.028 62.9425 153.55 64.7258 152.368 66.394C151.693 67.3343 150.713 68.1467 149.605 68.8881C149.289 69.1067 149.117 68.9596 149.09 68.5113C149.032 67.733 148.873 66.9552 149 66.4105C149.068 65.9875 149.111 65.7234 149.402 65.5991C149.846 65.4149 149.877 64.8535 150.484 64.713C150.573 64.6908 150.607 64.5988 150.621 64.5108C150.893 63.0857 151.45 61.8291 151.72 60.376C151.79 59.9078 151.755 59.4206 151.744 58.9489L151.751 58.0318C151.75 57.5904 151.818 57.1308 151.724 56.6921C151.667 56.3553 151.487 56.068 151.872 55.6934C151.957 55.6152 151.904 55.4356 151.787 55.3949C151.341 55.2388 151.322 54.9672 151.275 54.6973C151.111 53.9732 150.949 53.2406 150.654 52.5553C150.444 52.0393 150.137 51.5712 149.796 51.1306C149.238 50.4667 148.615 49.877 147.996 49.3434C147.493 48.8871 147.01 48.4268 146.491 48.0671C146.365 47.9875 146.204 47.9719 146.087 47.8946C145.874 47.7274 145.597 47.699 145.48 47.4473C145.345 47.1629 145.157 47.0758 144.816 47.2876C144.626 47.4114 144.472 47.37 144.349 47.2818C144.189 47.1564 144.056 47.0379 143.893 46.8565C143.707 46.6596 143.47 46.5135 143.259 46.7877C143.161 46.9454 142.992 46.8908 142.825 46.8277C142.082 46.5827 141.329 47.0975 140.846 47.7676C140.674 47.9973 140.509 48.2378 140.356 48.5001C140.181 48.7749 140.056 49.0354 139.944 49.2812C139.699 49.7852 139.548 50.3144 139.408 50.8374C139.37 51.0478 139.306 51.2513 139.251 51.457L139.111 52.0812C138.889 53.3909 138.735 54.7555 138.825 56.1673C138.833 56.4451 138.867 56.7299 138.994 56.9754C139.321 57.5406 139.446 58.1349 139.574 58.7571C139.72 59.5131 140.203 60.1112 140.761 60.6373C140.884 60.7621 141.061 60.8555 141.138 61.014C141.694 62.1279 142.822 62.7885 143.674 63.5499C144.37 64.1774 145.042 64.826 145.788 65.2649C146.359 65.6018 146.949 65.87 147.585 65.9302C147.622 65.9309 147.661 65.8863 147.698 65.8869C148.04 65.9142 148.396 66.3681 148.434 67.1869C148.454 67.8999 148.126 68.4735 147.534 68.4894C147.212 68.5227 146.905 68.5047 146.598 68.45C146.284 68.421 146.001 68.3452 145.712 68.2585L145.69 68.3723Z" fill="#87B1D9"/>
<path d="M148.213 68.7927C148.213 68.7927 146.882 76.6054 150.183 82.2223C155.075 90.5444 163.646 93.0893 167.154 90.1146C170.079 87.6361 168.438 80.4883 165.142 75.709C160.76 69.3612 148.213 68.7927 148.213 68.7927Z" fill="#CFE2F4"/>
<path d="M149.241 71.8148C149.038 72.6059 148.94 73.416 148.731 74.2327C148.555 74.9575 148.4 75.7064 148.757 76.3992C148.838 76.5771 148.836 76.7881 148.868 76.9802C148.939 77.3302 149 77.6865 149.119 78.0308C149.17 78.1824 149.355 78.3147 149.351 78.4697C149.31 79.2398 149.493 79.9964 150.039 80.5654C149.95 81.24 150.46 81.634 150.827 82.0815C151.235 82.5125 151.48 83.0743 152.033 83.3786C152.178 83.4542 152.309 83.5813 152.36 83.7329C152.681 84.6641 153.402 85.2985 154.1 85.9174C154.873 86.5655 155.545 87.2788 156.184 88.1206C156.534 88.5635 156.997 88.89 157.488 89.1502C158.057 89.4956 158.698 89.6765 159.303 89.9214C159.751 90.0688 160.211 90.2015 160.669 90.2781C161.135 90.3204 161.601 90.3992 162.063 90.3209C163.29 90.1994 164.422 89.8869 165.201 89.379C165.378 89.2334 165.62 89.1879 165.784 89.0572C165.879 89.0093 165.975 88.9614 166.079 88.9158C166.166 88.8655 166.221 88.7976 166.299 88.7451C166.914 88.3033 167.344 87.178 167.428 86.006C167.475 85.1089 167.341 84.1722 167.078 83.2657C166.836 82.4197 166.456 81.6102 166.082 80.8116C165.538 79.6183 164.887 78.4791 164.149 77.4268C163.957 77.1824 163.768 76.8929 163.578 76.6765L162.992 76.0509C162.822 75.8305 162.551 75.6753 162.337 75.48C162.109 75.2997 161.895 75.1044 161.622 74.9577L160.876 74.5189C160.618 74.3853 160.333 74.2815 160.075 74.148L159.283 73.7428C158.314 73.2076 157.259 72.7226 156.162 72.3554C154.576 71.8292 152.915 71.4762 151.239 71.1831C150.29 71.0207 149.317 70.8429 148.38 71.0145C148.11 71.0616 148.09 70.8632 148.183 70.447C148.37 69.716 148.583 68.9552 149.11 68.5636C149.468 68.2919 149.811 68.1082 150.211 68.2613C150.793 68.4907 151.476 68.2417 151.992 68.7843C152.064 68.8587 152.184 68.8543 152.288 68.8453C154.123 68.648 155.841 69.3378 157.518 69.971L159.201 70.514C159.565 70.6299 159.913 70.8058 160.261 70.9818C160.511 71.113 160.758 71.2528 160.997 71.3903C161.232 71.545 161.468 71.6911 161.726 71.8246C162.109 72.0097 162.55 72.1097 162.601 72.7113C162.614 72.8342 162.806 72.9408 162.927 72.8998C163.407 72.7529 163.686 72.9836 163.935 73.2526C164.271 73.6093 164.639 73.919 164.938 74.3116C165.226 74.7105 165.538 75.0882 165.82 75.4762C166.218 76.0513 166.626 76.6201 167.053 77.1849C167.689 78.0719 168.369 78.9619 168.873 79.9608C169.303 80.7926 169.596 81.6889 169.884 82.6023C169.947 82.8123 170.077 83.0125 170.13 83.2287C170.237 83.6159 170.368 84.0552 170.288 84.4565C170.185 84.9069 170.152 85.2379 170.541 85.6363C170.746 85.8658 170.714 86.2615 170.668 86.5707C170.616 86.9703 170.396 87.38 170.217 87.7366C170.102 87.9628 169.943 88.1777 169.866 88.396C169.787 88.6229 169.742 88.859 169.741 89.1711C169.761 89.5074 169.516 89.8736 169.221 90.1162C167.996 91.2583 166.751 91.9263 165.432 92.3907C163.635 92.9935 161.758 93.005 160.006 92.6827C159.33 92.5292 158.647 92.3368 158.014 92.0571C156.012 91.2634 154.299 89.9405 152.86 88.4522C152.581 88.1569 152.315 87.8467 151.961 87.6233C151.211 87.0637 150.603 86.3495 150.171 85.5262C149.886 85.0455 149.564 84.6009 149.251 84.1586C148.931 83.7053 148.546 83.3264 148.212 82.8234C148.052 82.5968 147.849 82.3953 147.752 82.1396C147.14 80.3767 146.315 78.7222 146.097 76.9272C145.932 75.4861 146.051 74.0477 146.221 72.6597C146.362 71.5855 146.599 70.528 146.877 69.4906C146.895 69.422 146.871 69.342 146.889 69.2734C147.078 68.6715 147.64 68.5647 148.387 68.967C149.048 69.3097 149.421 69.7035 149.363 70.1934L149.146 71.8261L149.241 71.8148Z" fill="#87B1D9"/>
<path d="M173.568 57.9813C177.551 57.523 180.699 49.9583 179.659 43.7895C178.821 38.8233 174.947 32.8781 170.896 33.2815C167.025 33.6685 164.438 39.7204 164.341 44.3349C164.193 51.1318 169.377 58.4663 173.568 57.9813Z" fill="#CFE2F4"/>
<path d="M175.131 55.8164C175.725 55.553 176.233 55.0642 176.839 54.6201C177.363 54.209 177.885 53.7334 177.923 53.0084C177.943 52.8301 178.058 52.677 178.121 52.5101C178.232 52.1997 178.366 51.9049 178.434 51.5831C178.464 51.435 178.369 51.2439 178.454 51.1291C178.679 50.8401 178.835 50.5326 178.924 50.1983C179.023 49.8662 179.05 49.5243 178.963 49.1611C179.402 48.6905 179.213 48.1254 179.156 47.5862C179.098 47.0469 179.178 46.5079 178.911 45.9952C178.836 45.8648 178.804 45.7092 178.843 45.5635C179.101 44.7044 178.856 43.8671 178.612 43.0663C178.31 42.2043 178.13 41.3293 178.052 40.3527C178.007 39.8352 177.787 39.3535 177.538 38.9101C177.25 38.3734 176.851 37.9081 176.493 37.4262C175.973 36.7263 175.324 36.1298 174.577 35.7275C173.568 35.2089 172.546 34.9075 171.761 34.9546C171.658 34.9636 171.57 34.9492 171.473 34.9325C171.378 34.9438 171.296 34.9403 171.2 34.9236C171.011 34.8731 170.834 34.9174 170.634 34.9098C169.877 34.9918 168.951 35.4972 168.231 36.2968C167.691 36.9057 167.272 37.6479 166.966 38.448C166.682 39.1989 166.526 39.9844 166.38 40.7721C166.145 41.9222 166.031 43.1044 166.07 44.2269C166.137 45.3476 166.316 46.4616 166.668 47.5484C166.851 48.066 167.065 48.5734 167.31 49.062C167.429 49.3051 167.515 49.5671 167.603 49.8205C167.969 50.7546 168.358 51.7042 168.905 52.5402C169.667 53.7458 170.669 54.8048 171.677 55.4332C172.226 55.8192 172.83 56.0361 173.185 55.7729C173.274 55.7141 173.338 55.9241 173.337 56.3374C173.316 57.067 173.256 57.8411 172.725 58.2778C172.379 58.5067 171.965 58.6806 171.588 58.4417C171.326 58.2521 171.013 58.1866 170.735 58.057C170.471 57.9126 170.207 57.7317 170.085 57.3959C170.055 57.3049 169.952 57.2408 169.858 57.2155C168.168 56.5971 167.201 55.0242 166.388 53.6024L165.5 52.2159C165.316 51.9093 165.184 51.5798 165.043 51.248C164.829 50.7772 164.75 50.2505 164.534 49.7882C164.372 49.4324 164.149 49.0971 164.471 48.6504C164.541 48.559 164.463 48.3725 164.345 48.3318C163.885 48.1625 163.873 47.8286 163.821 47.5112C163.733 47.0834 163.715 46.6374 163.683 46.2063C163.634 45.7706 163.642 45.3315 163.63 44.8963C163.6 44.2542 163.566 43.5926 163.549 42.9357C163.51 41.9144 163.476 40.8761 163.642 39.8454C163.764 38.9776 164.06 38.1472 164.35 37.3059C164.42 37.1133 164.434 36.8875 164.521 36.6995C164.661 36.3509 164.805 35.9485 165.1 35.7059C165.438 35.4381 165.655 35.2114 165.584 34.687C165.553 34.3937 165.809 34.1224 166.019 33.9214C166.282 33.661 166.685 33.4934 167.03 33.3377C167.49 33.1667 167.881 33.0419 168.176 32.5603C168.346 32.3026 168.706 32.1601 169.057 32.1531C170.504 31.9988 171.861 31.9764 173.16 32.3061C174.916 32.749 176.348 33.7485 177.526 34.8728C178.006 35.3137 178.374 35.8258 178.753 36.3317C179.886 37.9311 180.614 39.7434 181.026 41.6364C181.099 42.0144 181.174 42.3839 181.326 42.746C181.51 43.1538 181.626 43.5799 181.672 44.0242C181.729 44.4623 181.739 44.906 181.687 45.3422C181.645 45.8733 181.656 46.3816 181.665 46.8985C181.693 47.4114 181.718 47.9329 181.744 48.4543C181.762 48.6979 181.813 48.9507 181.74 49.1885C181.285 50.7849 181.196 52.4886 180.44 54.0412C179.84 55.2863 178.923 56.4099 177.826 57.384C176.965 58.1274 175.917 58.7471 174.69 59.0063C174.603 59.02 174.533 59.0747 174.449 59.0798C173.691 59.1338 173.503 58.6333 173.649 57.7809C173.763 57.0121 173.847 56.6302 174.144 56.4802L174.409 56.3856L174.67 56.235C174.847 56.154 175.032 56.0473 175.201 55.8994L175.131 55.8164Z" fill="#87B1D9"/>
<path d="M173.459 59.9072C173.452 56.5698 180.482 53.7577 185.861 53.1958C191.722 52.5882 199.535 54.2591 200.323 57.9713C200.744 59.9679 198.987 61.8954 198.116 62.8475C193.825 67.5423 186.072 67.5324 180.733 65.6146C179.519 65.1701 173.465 63.0056 173.459 59.9072Z" fill="#CFE2F4"/>
<path d="M173.825 56.55C174.624 56.0381 175.408 55.6508 176.242 55.4517C176.988 55.2748 177.703 55.1813 178.265 54.6611C178.411 54.5257 178.627 54.51 178.805 54.429L179.793 54.0322C179.938 53.9701 180.056 53.7718 180.213 53.768C180.992 53.7747 181.701 53.6337 182.358 53.2034C182.995 53.4014 183.487 53.0372 184.046 52.8378C184.599 52.6275 185.197 52.6225 185.746 52.2915C185.895 52.2122 186.073 52.1678 186.229 52.2006C187.197 52.3956 188.127 52.2864 189.088 52.2315C190.112 52.1841 191.131 52.3563 192.084 52.8137C192.59 53.0504 193.136 53.1414 193.666 53.2558C194.301 53.3892 194.956 53.4455 195.586 53.6326C196.514 53.8722 197.42 54.1608 198.417 54.4553C199.076 54.6688 199.752 54.9601 200.378 55.468C200.538 55.5934 200.695 55.7274 200.843 55.8591C200.982 56.025 201.122 56.191 201.259 56.3656C201.557 56.6935 201.717 57.1592 201.903 57.5951C202.217 58.552 201.969 59.5791 201.644 60.3466C200.95 61.9067 199.853 62.8808 198.91 63.7951C198.129 64.514 197.344 65.2501 196.453 65.8293C195.647 66.4035 194.798 66.9297 193.889 67.3386C191.162 68.464 188.221 68.8429 185.33 68.6931C184.628 68.6705 183.929 68.6394 183.233 68.5631C182.887 68.5163 182.537 68.4502 182.205 68.352C181.573 68.1734 180.956 67.9715 180.34 67.7329C179.73 67.5051 179.179 67.2655 178.584 67.0144C176.917 66.2736 175.244 65.5221 173.653 64.1216C173.43 63.9241 173.21 63.6814 172.992 63.4667C172.775 63.2155 172.562 62.9471 172.357 62.681C171.958 62.0778 171.535 61.3946 171.326 60.4933C171.197 59.9808 171.402 59.8336 171.834 60.0045C172.617 60.2696 173.347 60.3917 173.91 60.625C174.269 60.7947 174.584 60.8517 174.654 61.1737C174.829 61.6525 175.417 61.7915 175.537 62.4395C175.557 62.5367 175.653 62.59 175.736 62.6215C177.28 63.1362 178.572 64.0429 180.076 64.7033C180.562 64.916 181.094 65.0219 181.6 65.1575L182.572 65.4365C183.037 65.5885 183.519 65.7452 184.004 65.8201C184.38 65.8566 184.752 65.7724 185.026 66.2593C185.08 66.3657 185.283 66.3648 185.364 66.2672C185.676 65.8913 185.968 65.9694 186.279 66.007L187.515 66.1268C187.926 66.1359 188.344 66.1558 188.755 66.1283C189.363 66.089 189.974 65.9679 190.55 65.7731C191.007 65.6473 191.426 65.4197 191.851 65.2395C192.262 65.0096 192.67 64.8248 193.055 64.588C193.705 64.22 194.361 63.8994 194.921 63.4524C195.05 63.3491 195.139 63.1891 195.274 63.0966C195.514 62.9219 195.682 62.6363 195.991 62.5812C196.345 62.529 196.525 62.3382 196.487 61.8962C196.455 61.6395 196.636 61.5133 196.83 61.3357C197.064 61.1502 197.341 61.0407 197.615 60.9119C197.938 60.7687 198.263 60.617 198.208 60.207C198.175 59.9868 198.36 59.8436 198.519 59.73C199.267 59.2043 199.324 58.3741 198.923 57.8808C198.354 57.1586 197.241 56.6489 196.019 56.3398C195.539 56.2112 195.065 56.0568 194.566 55.9322C193.02 55.5638 191.396 55.2114 189.746 54.9899C189.419 54.9391 189.093 54.8884 188.769 54.967C188.025 55.1353 187.298 55.1058 186.56 55.0461C185.666 54.9535 184.807 55.247 183.974 55.5753C183.779 55.6517 183.596 55.7864 183.391 55.7959C181.953 55.9159 180.698 56.6914 179.415 57.1565C178.375 57.5394 177.315 57.8618 176.416 58.3376C175.738 58.7073 175.115 59.1102 174.802 59.5592C174.784 59.5912 174.781 59.6364 174.774 59.6621C174.716 59.7752 174.53 59.8539 174.277 59.9056C174.027 59.9488 173.69 59.969 173.31 59.8119C172.97 59.6748 172.709 59.4486 172.565 59.162C172.43 58.8777 172.459 58.5638 172.594 58.2324C172.765 57.9015 172.987 57.621 173.198 57.3468C173.435 57.1161 173.667 56.866 173.905 56.6633L173.825 56.55Z" fill="#87B1D9"/>
<path d="M164.72 65.2559C163.265 65.9505 161.801 66.6149 160.282 67.1728C158.778 67.7439 157.233 68.2304 155.66 68.5441C152.841 69.1211 150.075 69.1886 147.186 69.2692C146.437 69.2889 145.644 69.1593 144.89 69.0949C143.507 68.9726 142.14 68.8635 140.785 68.9139C140.162 68.9401 139.526 69.1188 138.953 69.1307C137.545 69.1393 136.102 69.3131 134.681 69.539C133.267 69.7757 131.858 70.0965 130.496 70.5494C128.234 70.7245 126.159 71.5746 124.106 72.4486C122.061 73.325 119.965 74.2521 118.277 75.6469C117.851 76.0381 117.29 76.3839 116.829 76.7292C113.887 78.624 111.593 81.6298 110.976 85.0299C110.301 88.681 110.833 92.6279 110.863 96.5599C110.908 98.6578 111.095 100.84 111.235 102.991C111.378 105.547 111.545 108.11 111.537 110.68C111.513 114.405 111.388 118.093 111.24 121.802C111.051 126.76 110.51 131.761 109.469 136.711C108.942 139.225 108.116 141.724 107.171 144.154C105.315 149.023 102.853 153.721 99.4727 157.796C98.2301 159.346 96.7984 160.746 95.2885 162.059C94.4988 162.675 93.7341 163.334 92.8684 163.855C92.4267 164.132 92.0753 164.415 91.5627 164.682C91.0649 164.962 90.5621 165.158 90.0639 165.337C88.2209 165.973 86.428 166.32 84.6397 166.649C82.8537 166.97 81.0707 167.246 79.2968 167.487C68.7919 168.9 58.1666 170.041 47.5539 170.689L39.9466 171.233C38.7006 171.322 37.446 171.408 36.2001 171.497C33.9019 171.672 31.6461 171.894 29.4934 172.383C27.3367 172.853 25.2467 173.589 23.2009 174.502C17.3538 177.153 12.336 181.441 8.20361 186.472C5.84969 189.324 3.73506 192.415 2.11125 195.766C1.64986 196.699 1.31055 196.902 1.12595 196.356C0.818901 195.41 0.404838 194.555 0.956478 192.736C1.37303 191.525 1.7626 190.379 2.75835 189.167C4.13843 187.377 5.34508 185.274 7.12153 183.857C7.37677 183.659 7.66477 183.305 7.88924 183.016C11.9277 177.684 17.6947 173.651 23.9727 171.244C26.0291 170.463 28.1363 169.732 30.305 169.32C31.7113 169.045 33.1226 168.853 34.5373 168.717C36.5901 168.532 38.6451 168.477 40.6842 168.343C42.2189 168.239 43.708 168.032 45.1141 168.409C45.4056 168.487 46.2119 168.427 46.4916 168.309C47.5608 167.851 48.8312 167.843 50.0983 167.778C53.5199 167.629 56.9438 167.471 60.3633 167.193C62.8901 166.987 65.4119 166.698 67.9132 166.349C71.7979 165.809 75.6672 165.155 79.5399 164.557C81.1611 164.302 82.7692 164.062 84.3693 163.783C85.9608 163.502 87.5444 163.182 88.939 162.71C89.2467 162.591 89.5567 162.462 89.8176 162.312C90.1066 162.16 90.2851 162.042 90.601 161.823C91.1326 161.451 91.6962 161.097 92.2175 160.694C92.724 160.279 93.2557 159.907 93.7718 159.558C94.3212 159.154 94.8162 158.781 95.2347 158.351C95.6321 157.897 95.974 157.409 96.2766 156.829C96.5787 156.147 97.327 155.309 97.8819 154.576C98.2387 154.102 98.6337 153.656 98.999 153.184C99.373 152.715 99.7384 152.243 100.101 151.78C100.522 151.203 100.922 150.639 101.293 150.041C101.65 149.429 101.931 148.76 102.148 148.018C102.357 147.201 102.902 146.199 103.338 145.36C105.295 141.657 106.441 137.517 107.213 133.331C108.258 127.647 108.75 121.87 108.924 116.11C108.988 113.848 109.063 111.58 109.043 109.323C108.99 105.817 108.816 102.315 108.518 98.7984L108.067 93.4491C107.936 91.6404 107.814 89.7975 107.92 87.8594C108.012 86.3495 108.207 84.7659 108.627 83.2335C109.074 81.4604 109.938 79.7805 111.008 78.3581C112.123 76.9752 113.365 75.6999 114.788 74.7119C116.471 73.4721 118.224 72.4164 120.028 71.5123C121.833 70.6083 123.677 69.7974 125.552 69.1421C126.425 68.8339 127.307 68.4913 128.189 68.2865C131.316 67.5898 134.338 67.012 137.462 66.4983C139.081 66.2521 140.767 66.134 142.407 66.1874C144.057 66.2346 145.607 66.42 147.036 66.5366C148.197 66.6272 149.31 66.6588 150.439 66.5939C151.552 66.5243 152.723 66.4062 153.814 66.1748C156.032 65.7492 158.285 64.956 160.475 64.0175C163.863 62.5544 167.166 60.7562 170.343 58.7405C170.554 58.6041 170.738 58.4328 170.949 58.2964C172.745 57.151 173.598 57.1223 173.269 58.385C172.962 59.4972 172.024 60.698 170.361 61.796C168.521 63.0031 166.619 64.1015 164.661 65.13L164.72 65.2559Z" fill="#87B1D9"/>
<path d="M37.8193 150.19C37.6475 150.42 37.5295 150.655 37.2845 150.883C37.0721 151.093 36.8512 151.3 37.1105 151.498C37.1808 151.545 37.1258 151.613 37.1292 151.669C37.1382 151.772 37.1386 151.873 37.1671 151.973C37.1813 152.023 37.3294 152.053 37.2876 152.106C37.0535 152.328 36.9961 152.543 37.2834 152.739C36.9573 152.927 37.2133 153.069 37.3354 153.231C37.4513 153.381 37.3945 153.559 37.6699 153.697C37.7425 153.735 37.7762 153.781 37.7281 153.823C37.4756 154.114 37.6005 154.368 37.706 154.626C37.8154 154.903 37.7653 155.193 37.4865 155.514C37.3393 155.685 37.3712 155.841 37.3945 155.994C37.4194 156.176 37.5478 156.348 37.6008 156.527C37.6783 156.787 37.814 157.035 38.103 157.259C38.4835 157.554 38.7885 157.856 39.0374 158.162C39.1595 158.323 39.0896 158.516 39.0842 158.708C39.0563 159.086 38.9701 159.476 38.9896 159.849C38.9979 160.127 39.1033 160.385 39.2174 160.645C39.3188 160.884 39.5285 161.096 39.6517 161.322C40.0191 162.009 40.3716 162.682 40.763 163.348C40.8572 163.511 41.0034 163.651 41.1021 163.797C41.1546 163.875 41.1877 163.958 41.2013 164.044C41.2713 164.366 41.3172 164.709 41.4151 165.029C41.5495 165.488 41.7445 165.926 41.8984 166.381C41.9844 166.643 42.0315 166.913 42.3584 167.065C42.4481 167.107 42.2742 167.208 41.8692 167.347C41.1696 167.592 40.446 167.857 39.9846 167.899C39.6741 167.926 39.4328 167.935 39.4827 167.783C39.5681 167.567 39.1811 167.537 39.5331 167.218C39.5812 167.175 39.5515 167.149 39.5195 167.131C38.8675 166.855 38.9436 166.297 38.8247 165.815C38.7843 165.657 38.6615 165.532 38.5822 165.382C38.5343 165.287 38.495 165.193 38.4688 165.085C38.4347 164.938 38.4525 164.769 38.3686 164.636C38.3036 164.536 38.1367 164.473 38.5218 164.236C38.6002 164.183 38.5665 164.138 38.4544 164.144C38.0467 164.191 38.0571 164.084 38.0435 163.997C37.9918 163.745 37.9813 163.475 37.9078 163.235C37.8463 163.053 37.7327 162.894 37.5911 162.737C37.3627 162.492 37.0627 162.273 36.8452 162.022C36.6722 161.81 36.5793 161.574 36.4452 161.354C36.4138 161.3 36.3132 161.264 36.2904 161.212C36.2425 161.116 36.1277 161.031 36.2376 160.895C36.3584 160.752 36.3751 160.656 36.0029 160.639C35.7942 160.629 35.7915 160.536 35.8145 160.45C35.8335 160.345 35.9497 160.22 36.0636 160.104C36.1953 159.955 36.3418 159.82 36.0543 159.761C35.8977 159.728 35.9642 159.617 36.0432 159.528C36.3924 159.117 36.2984 158.816 36.1204 158.52C35.871 158.113 35.5719 157.72 35.3248 157.305C35.2307 157.142 35.1948 156.967 35.1373 156.805C34.9675 156.272 34.9962 155.719 35.0552 155.156C35.0656 155.049 35.087 154.935 35.0024 154.839C34.7952 154.618 34.8166 154.366 34.9113 154.116C35.0306 153.808 34.8565 153.531 34.6739 153.253C34.6276 153.185 34.5425 153.126 34.5609 153.057C34.7284 152.569 34.3419 152.125 34.395 151.653C34.4424 151.27 34.6384 150.882 34.8064 150.495C34.9405 150.2 35.1198 149.908 35.2797 149.62C35.2929 149.605 35.2523 149.585 35.2678 149.562C35.3846 149.4 35.9044 149.346 36.7042 149.414C37.4137 149.475 37.8275 149.577 37.8165 149.721C37.8032 149.873 37.7423 150.032 37.701 150.186L37.8193 150.19Z" fill="#87B1D9"/>
<path d="M88.3247 126.663C88.45 127.019 88.6234 127.332 88.6898 127.735C88.7506 128.092 88.8005 128.454 89.1898 128.476C89.2887 128.484 89.3086 128.581 89.368 128.634C89.4805 128.728 89.5799 128.838 89.697 128.915C89.7501 128.957 89.904 128.897 89.9114 128.972C89.9543 129.361 90.1159 129.615 90.5224 129.641C90.451 130.045 90.7826 130.042 91.0244 130.134C91.2638 130.235 91.3808 130.45 91.7318 130.443C91.8245 130.441 91.897 130.478 91.9043 130.554C91.9609 131.029 92.2998 131.239 92.6123 131.479C92.9481 131.734 93.1615 132.104 93.1895 132.617C93.2086 132.888 93.3565 133.057 93.5044 133.225C93.6797 133.428 93.9271 133.568 94.1155 133.756C94.3908 134.032 94.7141 134.266 95.1336 134.415C95.7028 134.623 96.2325 134.875 96.6901 135.19C96.9244 135.345 97.0036 135.633 97.1222 135.876C97.3572 136.371 97.5355 136.905 97.7813 137.394C97.9713 137.748 98.2242 138.073 98.4925 138.375C98.7461 138.663 99.0671 138.906 99.3229 139.185C100.077 140.04 100.786 140.928 101.49 141.834C101.66 142.054 101.866 142.247 102.047 142.461C102.138 142.568 102.199 142.685 102.257 142.811C102.464 143.271 102.637 143.758 102.847 144.21C103.148 144.869 103.493 145.504 103.763 146.174C103.918 146.555 104.043 146.947 104.42 147.223C104.528 147.298 104.358 147.417 103.956 147.548C103.25 147.782 102.52 148.037 102.04 148.046C101.717 148.051 101.454 148.036 101.496 147.845C101.542 147.572 101.129 147.499 101.438 147.103C101.479 147.05 101.443 147.013 101.403 146.993C100.654 146.599 100.599 145.877 100.345 145.249C100.262 145.043 100.084 144.885 99.9601 144.695C99.8825 144.573 99.8049 144.451 99.7491 144.317C99.6618 144.128 99.6289 143.908 99.4982 143.744C99.3948 143.616 99.1999 143.554 99.5114 143.215C99.5772 143.141 99.5201 143.079 99.412 143.106C99.0076 143.209 98.9798 143.072 98.9279 142.957C98.7739 142.641 98.6634 142.299 98.4767 142C98.3426 141.781 98.1542 141.592 97.9332 141.423C97.5887 141.165 97.1876 140.947 96.8517 140.692C96.5689 140.478 96.3754 140.206 96.1253 139.974C96.0659 139.921 95.9521 139.9 95.9013 139.849C95.8105 139.742 95.6436 139.679 95.6856 139.488C95.7322 139.28 95.6888 139.167 95.3233 139.262C95.1157 139.317 95.0639 139.202 95.0354 139.103C94.9967 138.973 95.0449 138.793 95.0845 138.61C95.1334 138.394 95.1909 138.179 94.8781 138.215C94.7077 138.234 94.7101 138.087 94.7297 137.946C94.8282 137.338 94.5302 137.01 94.1709 136.739C93.6819 136.369 93.1339 136.048 92.6295 135.701C92.4273 135.564 92.2794 135.396 92.1097 135.24C91.5906 134.743 91.2002 134.142 90.8144 133.524C90.7368 133.402 90.6701 133.274 90.5181 133.224C90.1626 133.11 89.9839 132.851 89.858 132.533C89.7029 132.151 89.3269 131.977 88.9486 131.811C88.8589 131.769 88.7382 131.773 88.6966 131.688C88.4114 131.107 87.7209 130.94 87.3349 130.46C87.0164 130.071 86.7985 129.581 86.5544 129.12C86.3667 128.758 86.1968 128.363 86.0114 127.992C85.9989 127.97 85.96 127.978 85.9497 127.948C85.8545 127.72 86.1484 127.275 86.7539 126.73C87.2851 126.256 87.6742 126.039 87.8181 126.188C87.9768 126.35 88.107 126.55 88.2525 126.727L88.3247 126.663Z" fill="#87B1D9"/>
<path d="M130.503 117.232C130.323 117.009 130.141 116.832 129.972 116.538C129.83 116.28 129.681 116.01 129.426 116.208C129.356 116.263 129.321 116.189 129.258 116.182C129.162 116.165 129.059 116.137 128.955 116.146C128.908 116.152 128.835 116.289 128.806 116.226C128.651 115.945 128.45 115.836 128.195 116.071C128.089 115.712 127.893 115.926 127.707 116.005C127.529 116.086 127.371 115.988 127.18 116.222C127.127 116.281 127.075 116.304 127.044 116.25C126.825 115.934 126.551 115.998 126.272 116.043C125.985 116.086 125.714 115.967 125.466 115.625C125.331 115.442 125.167 115.435 125.012 115.43C124.823 115.416 124.634 115.503 124.447 115.517C124.175 115.536 123.905 115.62 123.632 115.85C123.265 116.156 122.908 116.391 122.556 116.573C122.376 116.662 122.194 116.549 122.023 116.503C121.665 116.398 121.306 116.229 120.935 116.175C120.662 116.13 120.392 116.177 120.12 116.232C119.865 116.293 119.63 116.45 119.381 116.521C118.649 116.748 117.929 116.969 117.214 117.236C117.04 117.3 116.881 117.414 116.714 117.489C116.63 117.53 116.543 117.544 116.451 117.547C116.125 117.56 115.79 117.544 115.466 117.586C115 117.645 114.546 117.762 114.077 117.83C113.818 117.87 113.54 117.879 113.342 118.175C113.282 118.26 113.214 118.067 113.133 117.65C112.997 116.924 112.85 116.168 112.882 115.708C112.9 115.4 112.93 115.151 113.073 115.235C113.271 115.353 113.372 114.976 113.624 115.374C113.663 115.431 113.69 115.401 113.708 115.369C114.079 114.77 114.632 114.937 115.128 114.904C115.287 114.892 115.436 114.784 115.596 114.735C115.695 114.707 115.803 114.681 115.905 114.68C116.053 114.674 116.216 114.718 116.368 114.666C116.48 114.623 116.569 114.463 116.73 114.892C116.761 114.983 116.815 114.952 116.825 114.844C116.854 114.429 116.955 114.465 117.047 114.463C117.306 114.458 117.57 114.502 117.826 114.469C118.016 114.447 118.194 114.366 118.381 114.25C118.66 114.068 118.938 113.82 119.229 113.66C119.474 113.532 119.725 113.489 119.97 113.399C120.03 113.378 120.081 113.291 120.14 113.279C120.248 113.253 120.357 113.153 120.458 113.291C120.574 113.441 120.666 113.475 120.754 113.113C120.809 112.907 120.903 112.932 120.978 112.961C121.076 113.006 121.177 113.143 121.272 113.27C121.386 113.429 121.497 113.597 121.613 113.334C121.681 113.186 121.767 113.274 121.841 113.376C122.167 113.804 122.489 113.77 122.822 113.658C123.269 113.501 123.728 113.294 124.192 113.142C124.374 113.081 124.548 113.082 124.727 113.065C125.283 113.012 125.828 113.176 126.358 113.355C126.459 113.392 126.566 113.439 126.683 113.378C126.955 113.221 127.19 113.303 127.414 113.464C127.684 113.655 127.998 113.547 128.312 113.438C128.384 113.411 128.467 113.341 128.531 113.377C128.961 113.658 129.493 113.387 129.951 113.564C130.319 113.7 130.643 113.998 130.97 114.251C131.219 114.456 131.464 114.705 131.697 114.933C131.712 114.946 131.739 114.916 131.76 114.94C131.893 115.096 131.8 115.613 131.525 116.366C131.281 117.036 131.072 117.403 130.946 117.36C130.805 117.304 130.664 117.211 130.53 117.129L130.503 117.232Z" fill="#87B1D9"/>
<path d="M75.0873 167.453C74.6986 163.554 73.8253 158.514 71.8463 152.902C69.9185 147.442 67.527 143.061 65.4348 139.826C62.6551 140.598 60.1744 142.414 59.5065 144.872C55.6661 159.033 75.0788 167.451 75.0873 167.453Z" fill="#87B1D9"/>
<path d="M73.4591 164.719C73.5138 163.898 73.5125 163.08 73.6061 162.25C73.6939 161.511 73.7731 160.77 73.3708 160.11C73.2704 159.936 73.2804 159.728 73.2297 159.54C73.1472 159.196 73.067 158.844 72.9565 158.501C72.9052 158.35 72.7201 158.218 72.7272 158.054C72.779 157.278 72.6387 156.533 72.1649 155.9C72.3223 155.244 71.917 154.768 71.6328 154.251C71.3487 153.733 71.2231 153.139 70.7828 152.69C70.6686 152.568 70.5807 152.416 70.5769 152.258C70.5071 151.284 70.0713 150.441 69.6355 149.599C69.1683 148.702 68.8355 147.749 68.6767 146.695C68.5956 146.141 68.3349 145.639 68.0719 145.146C67.7696 144.559 67.3694 144.029 67.0236 143.468C66.7742 143.061 66.5031 142.667 66.2189 142.287C66.0756 142.102 65.9174 141.903 65.7672 141.744C65.6507 141.63 65.5296 141.533 65.4125 141.456C65.24 141.345 65.0863 141.267 64.9623 141.216C64.7093 141.405 64.5193 141.566 64.3768 141.72L64.2846 141.824C64.2365 141.867 64.2925 141.863 64.1815 141.935L63.7145 142.306C63.2887 142.66 62.7876 142.884 62.3624 143.202C61.9372 143.52 61.5565 143.878 61.2461 144.282C60.9312 144.703 60.7289 145.08 60.576 145.719L60.3991 146.379L60.3103 147.054C60.2445 147.505 60.2606 147.96 60.2681 148.412C60.2653 148.834 60.3745 149.249 60.4301 149.659L60.7391 150.872C61.3904 153.243 62.7583 155.374 64.4737 157.203C64.8883 157.645 65.3641 158.029 65.8158 158.435C66.0472 158.635 66.2676 158.841 66.4726 159.071C67.2664 159.881 68.0991 160.683 69.0022 161.393C70.2983 162.421 71.7192 163.325 73.1538 164.178C73.9617 164.661 74.793 165.16 75.7117 165.332C75.8254 165.353 75.9254 165.426 75.8596 165.5L75.8418 165.532C75.7294 165.815 75.6061 166.103 75.4782 166.409C75.1502 167.222 75.0131 167.562 75.0716 167.412C75.2672 166.922 75.496 166.377 75.7362 165.789C75.7162 165.83 75.6939 165.879 75.6715 165.928C75.2562 166.552 74.7849 167.179 74.1552 167.369C73.7268 167.493 73.3511 167.558 73.0329 167.27C72.5835 166.856 71.8688 166.848 71.5917 166.167C71.5524 166.074 71.4369 166.025 71.3403 166.008C69.589 165.548 68.2508 164.335 66.9262 163.208C66.491 162.843 65.9945 162.536 65.5484 162.177C65.2508 161.95 64.9818 161.685 64.7105 161.429C64.325 161.05 63.9922 160.611 63.585 160.245C63.2926 159.965 62.904 159.768 62.9933 159.195C63.0169 159.073 62.8621 158.93 62.7306 158.941C62.2326 158.982 62.0437 158.693 61.8548 158.403C61.3119 157.651 60.8475 156.847 60.3893 156.053L59.8637 155.168C59.6748 154.878 59.4968 154.583 59.3211 154.278C58.7401 153.36 58.2273 152.359 57.8535 151.284C57.5824 150.376 57.4521 149.422 57.3863 148.467C57.3729 148.243 57.2948 148.02 57.2985 147.8C57.2795 147.391 57.2418 146.949 57.4395 146.588C57.6487 146.185 57.7119 145.88 57.4655 145.428C57.3148 145.167 57.4153 144.826 57.5168 144.55C57.6367 144.206 57.9392 143.763 58.2243 143.453C58.5798 143.052 58.9375 142.781 59.0119 142.194C59.058 141.885 59.3659 141.627 59.6486 141.464C60.8661 140.761 61.847 140.05 62.9347 139.386C63.861 138.844 64.9118 138.455 66.0278 138.028C66.4579 137.931 66.8988 137.829 67.3553 137.703C67.6906 137.481 67.5636 137.989 67.5828 138.26L67.573 139.223L67.5604 139.716L67.5584 139.963L67.6383 140.076L67.9477 140.499L68.3416 141.018C68.7144 141.513 69.0328 142.04 69.3512 142.566C70.355 144.204 71.111 145.978 71.7675 147.781C71.9015 148.138 72.0159 148.5 72.2283 148.805C72.7351 149.519 73.0034 150.336 73.1808 151.183C73.394 152.205 73.8784 153.106 74.3364 154.038C74.4448 154.251 74.6006 154.458 74.6397 154.689C74.9202 156.317 75.6961 157.811 75.9852 159.442C76.2214 160.755 76.2547 162.105 76.2949 163.43C76.3228 164.458 76.2752 165.492 76.2237 166.508C76.2248 166.572 76.2624 166.638 76.2526 166.708C76.1976 167.291 75.6941 167.524 74.8705 167.34C74.1411 167.181 73.6944 166.859 73.6446 166.359C73.5978 165.813 73.5814 165.258 73.5454 164.706L73.4591 164.719Z" fill="#87B1D9"/>
<path d="M98.587 183.601C95.8971 180.574 91.8942 176.754 86.3401 173.372C82.6572 171.136 79.1668 169.622 76.2343 168.597C73.3914 172.485 78.03 183.055 85.8423 185.69C90.1156 187.129 96.0353 186.437 98.587 183.601Z" fill="#87B1D9"/>
<path d="M95.8176 182.51C95.4324 181.856 94.9797 181.248 94.6123 180.561C94.2803 179.948 93.9483 179.335 93.2808 179.083C93.1053 179.018 93.0026 178.852 92.8604 178.732C92.6056 178.516 92.3594 178.303 92.0806 178.109C91.9572 178.021 91.7417 178.037 91.6641 177.915C91.2806 177.288 90.774 176.812 90.0624 176.622C89.8355 176.028 89.2582 175.919 88.7582 175.693C88.2558 175.476 87.8401 175.107 87.2535 175.033C87.1032 175.011 86.9449 174.95 86.8564 174.835C86.2718 174.136 85.4814 173.759 84.6866 173.399C83.8363 173.005 83.0656 172.486 82.3711 171.786C82.0028 171.411 81.5285 171.192 81.0628 170.976C80.5073 170.717 79.9157 170.558 79.3465 170.35C78.955 170.2 78.4647 170.041 78.1343 169.971C77.7867 169.896 77.5157 169.878 77.2824 169.926C77.1743 169.952 77.0748 169.981 76.9947 170.005C76.8833 169.975 76.8938 170.245 76.8679 170.376C76.8631 170.53 76.863 170.668 76.8737 170.8C76.8997 171.046 76.9589 171.236 77.0234 171.373C77.0577 171.382 77.0607 171.714 77.0439 171.948C77.0396 172.204 77.0181 172.456 77.0309 172.717C77.0714 173.766 77.2376 174.895 77.6114 175.969C77.9014 176.772 78.3322 177.531 78.8243 178.233C79.2912 178.891 79.8759 179.452 80.4219 180.021C82.0385 181.704 83.9884 183.035 86.0408 183.64C86.5358 183.782 87.0406 183.853 87.5585 183.909C87.814 183.95 88.0696 183.991 88.3228 184.04C89.2734 184.23 90.2596 184.357 91.2528 184.32C92.6702 184.277 94.0599 183.96 95.259 183.463C95.9225 183.182 96.5702 182.822 96.8082 182.243C96.8776 182.087 97.0632 182.183 97.3333 182.512C97.7843 183.093 98.2689 183.719 98.215 184.366C98.1608 184.774 98.0591 185.188 97.6416 185.306C97.0787 185.486 96.6726 186.075 95.9719 185.878C95.8776 185.853 95.7798 185.909 95.6991 185.971C94.301 187.039 92.5114 187.065 90.8819 187.041C90.3416 187.034 89.8 187.101 89.2534 187.083C88.9007 187.062 88.5502 187.032 88.1981 186.975C87.6893 186.884 87.1989 186.725 86.6925 186.626C86.3123 186.571 85.8989 186.57 85.7028 186.067C85.6681 185.957 85.4709 185.904 85.3685 185.978C84.9696 186.266 84.6731 186.104 84.3914 185.955C83.6034 185.569 82.8796 185.081 82.1752 184.589C81.645 184.236 81.104 183.888 80.5629 183.541C79.7151 183.002 78.8569 182.432 78.1065 181.734C77.4834 181.145 76.9588 180.462 76.4341 179.779C76.312 179.618 76.144 179.49 76.0304 179.331C75.8267 179.028 75.5583 178.727 75.5193 178.358C75.4941 177.938 75.3823 177.669 74.916 177.489C74.6508 177.381 74.5374 177.084 74.4794 176.82C74.3923 176.494 74.4093 176.122 74.4389 175.771C74.4611 175.345 74.5302 174.95 74.1613 174.612C73.9643 174.422 73.9698 174.093 74.0262 173.814C74.1161 173.204 74.1625 172.619 74.1552 172.029L74.1649 171.581L74.16 171.359L74.1758 171.06C74.1826 170.658 74.226 170.256 74.2888 169.85C74.3217 169.555 74.4209 169.288 74.4819 168.992C74.5726 168.722 74.6804 168.457 74.7882 168.192C74.9132 167.931 75.0272 167.677 75.1739 167.404L75.3854 166.992C75.4587 166.855 75.5417 166.786 75.6167 166.677L77.1966 167.091C77.743 167.247 78.3175 167.401 78.8336 167.567L79.3926 167.744L79.7972 167.88L80.6081 168.18C82.2769 168.811 83.8402 169.698 85.3377 170.66C85.6359 170.85 85.9209 171.055 86.2593 171.164C87.0412 171.401 87.6987 171.862 88.3013 172.392C89.0204 173.034 89.8964 173.435 90.757 173.858C90.9598 173.958 91.1913 174.02 91.3523 174.174C92.4626 175.243 93.8832 175.909 94.9957 176.97C95.8964 177.827 96.6567 178.83 97.4046 179.811C97.9817 180.572 98.4999 181.382 99.0095 182.189C99.0409 182.244 99.1095 182.262 99.1409 182.317C99.417 182.795 99.1272 183.259 98.372 183.608C97.6907 183.922 97.1715 183.939 96.8671 183.6C96.5377 183.218 96.226 182.804 95.8989 182.413L95.8176 182.51Z" fill="#87B1D9"/>
<path d="M111.011 106.68C107.958 102.811 104.263 98.5956 99.8419 94.3141C96.1069 90.6944 92.449 87.6099 89.033 84.9946C86.3609 88.0737 85.993 94.0768 87.771 98.4495C90.1882 104.381 97.0563 108.62 102.801 107.209C103.452 107.043 111.011 106.68 111.011 106.68Z" fill="#87B1D9"/>
<path d="M108.053 105.06C107.638 104.278 107.166 103.535 106.797 102.72C106.467 101.997 106.136 101.275 105.431 100.856C105.247 100.751 105.145 100.55 105.004 100.392C104.739 100.11 104.486 99.8215 104.208 99.5541C104.085 99.4293 103.845 99.4016 103.776 99.2454C103.416 98.4966 102.915 97.8659 102.163 97.4808C101.97 96.795 101.361 96.5307 100.844 96.1624C100.327 95.7942 99.9176 95.2985 99.2952 95.0491C99.1283 94.986 98.9753 94.8714 98.8851 94.7278C98.3556 93.8232 97.5478 93.2024 96.751 92.5754C95.8947 91.8957 95.1501 91.1081 94.5395 90.1634C94.2142 89.6627 93.7492 89.2716 93.2906 88.8914C92.7491 88.4431 92.144 88.0604 91.5762 87.6418C91.3699 87.4855 91.1614 87.3377 90.9529 87.1899L90.6422 86.978L90.4033 86.8405C90.0919 86.6652 89.7862 86.5373 89.5541 86.5119L89.3648 86.4979C89.2969 86.4429 89.2697 86.647 89.2296 86.7282L89.1321 87.0236C89.0878 87.2231 89.0527 87.3884 89.0308 87.5387C89.0175 87.6913 89.0024 87.816 89.0177 87.9303L89.0251 88.0058L88.9832 88.1967C88.9487 88.3253 88.9399 88.4608 88.9141 88.5917C88.8007 89.1862 88.5713 89.768 88.4168 90.379C88.1077 91.6011 87.9283 92.9222 87.9925 94.2259C88.0514 95.2065 88.2675 96.1834 88.6226 97.0872C88.7942 97.5099 88.979 97.9178 89.2181 98.2943L89.5616 98.8642L89.9463 99.4175C91.4234 101.587 93.5471 103.332 95.9033 104.313C96.4788 104.531 97.0619 104.687 97.6346 104.813C97.9152 104.898 98.2073 104.939 98.488 105.024C99.5254 105.302 100.585 105.429 101.609 105.309L102.149 105.214L102.622 105.13C102.775 105.106 102.812 105.107 102.888 105.1L103.095 105.082L104.558 104.969C105.513 104.903 106.455 104.852 107.392 104.818C108.461 104.774 109.527 104.774 110.578 104.486C110.744 104.448 110.774 104.475 110.962 104.562C111.085 104.65 111.061 104.809 110.939 105.024C110.683 105.773 110.64 106.552 110.131 107.013C109.798 107.328 109.492 107.577 109.057 107.488C108.428 107.365 107.795 107.738 107.161 107.329C107.075 107.269 106.948 107.3 106.846 107.337C105.947 107.638 105.035 107.752 104.127 107.812C103.696 107.843 103.179 107.852 102.858 107.885C102.366 107.937 101.878 108.045 101.391 108.044C100.753 108.093 100.115 108.143 99.4757 108.128C99.0629 108.091 98.657 108.028 98.2426 107.963C97.6596 107.806 97.0944 107.618 96.5268 107.439C96.0958 107.332 95.627 107.299 95.4407 106.725C95.3997 106.604 95.1877 106.538 95.0618 106.596C94.6012 106.84 94.2974 106.602 93.9688 106.422C93.1032 105.915 92.3367 105.278 91.5569 104.655C91.2811 104.416 90.9943 104.183 90.6967 103.956L89.8411 103.24C88.9689 102.482 88.0585 101.696 87.3558 100.717C86.745 99.9106 86.3173 98.9689 85.9153 98.0342C85.8349 97.8197 85.6877 97.6149 85.6096 97.3918C85.47 96.9868 85.2813 96.5594 85.3315 96.1318C85.4127 95.6574 85.3731 95.3251 84.9744 94.961C84.754 94.7549 84.7173 94.3775 84.7353 94.0699C84.7593 93.672 84.8627 93.2862 85.0003 92.9096C85.1587 92.4558 85.3227 92.0495 85.0963 91.5569C84.9565 91.2897 85.0725 90.9256 85.2106 90.6502C85.7873 89.3896 86.0117 88.2092 86.4376 86.8255C86.9511 85.3549 87.7914 84.0363 88.7696 82.7179C89.6511 83.3033 90.5989 83.9156 91.5798 84.6103L92.6521 85.3755L93.4324 85.9613C95.0462 87.1748 96.5105 88.5688 97.9159 90.0113C98.1889 90.2958 98.4681 90.5912 98.7983 90.7991C99.5805 91.2752 100.207 91.9209 100.77 92.6323C101.44 93.4919 102.314 94.1396 103.188 94.7873C103.386 94.9413 103.629 95.0617 103.779 95.2579C104.841 96.6452 106.281 97.6469 107.383 98.9896C108.269 100.072 109.026 101.259 109.783 102.445C110.367 103.355 110.902 104.307 111.442 105.241C111.479 105.307 111.554 105.336 111.583 105.399C111.869 105.944 111.577 106.417 110.767 106.696C110.05 106.936 109.485 106.886 109.158 106.458C108.798 105.985 108.473 105.484 108.123 105.005L108.053 105.06Z" fill="#87B1D9"/>
<path d="M131.937 102.859C129.218 100.007 125.581 95.541 122.622 89.3356C119.885 83.6032 118.683 78.3833 118.124 74.6405C118.124 74.6405 112.806 86.2918 116.417 93.8022C119.541 100.318 127.594 105.315 131.937 102.859Z" fill="#87B1D9"/>
<path d="M128.898 101.374C128.466 100.587 128 99.8196 127.677 98.9702C127.381 98.2202 127.129 97.4818 126.472 96.9841C126.304 96.8564 126.224 96.6419 126.106 96.4634L125.45 95.5158C125.349 95.3785 125.122 95.2993 125.073 95.1391C124.85 94.3258 124.507 93.6181 123.868 93.0519C123.857 92.3412 123.343 91.9277 122.957 91.411C122.57 90.9028 122.356 90.2942 121.843 89.8442C121.709 89.7257 121.606 89.5603 121.579 89.3876C121.398 88.3468 120.912 87.4537 120.454 86.5223C119.975 85.5303 119.683 84.4596 119.638 83.3263C119.634 83.0313 119.573 82.7116 119.51 82.4651C119.454 82.2295 119.38 81.9892 119.313 81.7599C119.144 81.1908 118.929 80.7566 118.786 80.2956C118.576 79.6052 118.364 79.0246 118.186 79.1422C118.097 79.2009 118.03 79.3118 117.982 79.4552L117.949 79.5473L117.942 79.573L117.927 79.661L117.898 79.8371L117.804 80.4642C117.746 80.8529 117.714 81.1753 117.688 81.444C117.658 81.8677 117.578 81.7178 117.478 81.8194C117.305 81.9845 117.044 82.2729 116.838 83.0079L116.81 83.1108L116.779 83.2954L116.717 83.6647L116.599 84.4142C116.539 84.9127 116.524 85.4141 116.492 85.9109C116.48 86.8452 116.592 87.7664 116.721 88.6556C116.741 88.9919 116.811 89.3138 116.881 89.6358C116.951 89.9578 117.001 90.2838 117.085 90.5909C117.301 91.1909 117.434 91.8241 117.742 92.3567C118.225 93.4694 119.011 94.5807 119.854 95.5508C120.248 96.0333 120.75 96.425 121.193 96.8652C121.433 97.0673 121.651 97.282 121.864 97.5138C122.686 98.3221 123.536 99.1287 124.505 99.7285C125.866 100.617 127.397 101.248 128.77 101.404C129.172 101.484 129.521 101.449 129.877 101.425C130.186 101.333 130.515 101.238 130.691 100.991C130.805 100.874 130.956 101.034 131.097 101.431C131.336 102.119 131.569 102.862 131.216 103.493C130.968 103.868 130.636 104.183 130.147 104.153C129.795 104.096 129.456 104.161 129.103 104.177C128.759 104.158 128.415 104.103 128.124 103.85C128.041 103.782 127.917 103.767 127.805 103.774C125.805 103.899 124.075 102.774 122.582 101.694C122.075 101.356 121.549 101.022 121.047 100.667C120.737 100.419 120.431 100.153 120.134 99.8897C119.719 99.4844 119.365 99.022 118.939 98.623C118.636 98.3121 118.24 98.0772 118.327 97.5124C118.35 97.3901 118.192 97.2281 118.062 97.2302C117.556 97.2325 117.374 96.9172 117.16 96.6208L116.415 95.3552L115.756 94.0393C115.499 93.3546 115.094 92.704 114.858 92.0068C114.643 91.4714 114.392 90.9353 114.248 90.3731C114.075 89.8212 113.897 89.2497 113.82 88.6779C113.639 87.7103 113.657 86.7503 113.632 85.7788C113.636 85.5593 113.569 85.3299 113.581 85.1127C113.607 84.7062 113.533 84.2636 113.748 83.9076C113.966 83.5065 114.048 83.1978 113.754 82.7515C113.717 82.6863 113.688 82.6233 113.672 82.5456C113.673 82.4358 113.68 82.3089 113.706 82.178C113.747 81.9225 113.816 81.6652 113.886 81.4361C114.07 80.8514 114.299 80.3428 114.562 79.908C114.89 79.3709 115.152 79.0459 115.166 78.0299C115.184 77.4833 115.421 77.1148 115.604 76.8789C116 76.3236 116.329 75.8878 116.624 75.2317C116.892 74.2652 117.123 73.0591 117.45 71.805L117.987 69.5964L118.31 68.2863L118.522 67.4975C118.847 68.7884 119.269 70.5373 119.7 72.5641C119.834 73.1972 119.966 73.9035 120.097 74.5818L120.286 75.6249L120.485 76.5971C120.687 77.6254 120.939 78.5382 121.16 79.4979L121.537 80.8672L121.722 81.5506L121.866 82.0397C122.118 82.9525 122.38 83.8591 122.654 84.7593C122.77 85.1122 122.863 85.4863 123.076 85.7913C123.565 86.5014 123.851 87.2857 124.1 88.1059C124.387 89.0925 124.989 89.9337 125.6 90.7406C125.743 90.926 125.936 91.0972 126.025 91.314C126.639 92.8293 127.801 94.0137 128.652 95.363C129.34 96.4661 129.956 97.6327 130.645 98.7639C131.175 99.6319 131.698 100.526 132.267 101.386C132.307 101.442 132.382 101.472 132.414 101.526C132.73 102.024 132.476 102.526 131.702 102.879C131.014 103.182 130.437 103.174 130.072 102.755C129.673 102.289 129.319 101.79 128.962 101.309L128.898 101.374Z" fill="#87B1D9"/>
<path d="M152.226 55.4381C151.318 50.389 147.242 44.7848 143.149 45.1767C142.696 45.2208 142.287 45.341 141.903 45.5046C143.185 47.7503 144.504 50.4746 145.618 53.6583C147.405 58.7503 148.105 63.3761 148.338 67.0316C148.379 67.0151 148.427 67.0095 148.468 66.9929C152.259 65.6378 152.916 59.3081 152.226 55.4381Z" fill="#87B1D9"/>
<path d="M150.444 53.6837C150.424 53.0719 150.307 52.4799 150.286 51.8401C150.254 51.2712 150.202 50.6782 149.706 50.334C149.582 50.2458 149.553 50.0817 149.464 49.9661C149.311 49.7503 149.171 49.5197 148.995 49.3165C148.908 49.229 148.719 49.215 148.687 49.0961C148.561 48.5018 148.22 48.0246 147.638 47.8318C147.599 47.5641 147.46 47.3982 147.284 47.2682C147.1 47.1639 146.856 47.0801 146.713 47.0325C146.415 46.9435 146.148 46.6699 145.887 46.8571C145.828 46.9056 145.763 46.9067 145.693 46.8237C145.254 46.3017 144.719 46.2777 144.376 46.4248C144.179 46.4731 143.957 46.5146 143.642 46.5223C143.167 46.4777 143.309 46.635 143.157 46.7229C143.13 46.7526 143.121 46.7869 143.124 46.843C143.135 47.0111 143.277 47.2697 143.406 47.5065C143.606 47.891 143.908 48.275 144.1 48.6206C144.353 49.0468 144.795 49.7992 145.296 50.3653C145.984 51.1563 146.59 52.0169 147.102 52.9169C147.364 53.3821 147.432 53.9151 147.542 54.4315C147.761 55.4643 147.895 56.5108 148.08 57.5345C148.222 58.3077 148.433 59.0627 148.644 59.8176C148.733 60.1722 148.861 60.5189 148.969 60.8695L149.139 61.402C149.19 61.5536 149.211 61.5776 149.242 61.6686C149.398 62.0781 149.493 62.2046 149.589 62.2945C149.627 62.3231 149.661 62.3323 149.694 62.3135C149.777 62.2073 149.859 62.073 149.898 61.9638C149.949 61.8398 149.948 61.6374 149.937 61.5425C149.932 61.495 149.931 61.495 149.935 61.5145C149.961 61.558 150.029 61.6129 150.069 61.4952C150.35 60.4126 150.431 59.1846 150.447 57.9942C150.443 57.3224 150.457 56.6185 150.112 56.0206C150.018 55.8576 150.209 55.7617 150.633 55.756C151.378 55.7534 152.158 55.7235 152.644 56.0374C152.974 56.2453 153.218 56.4669 153.145 56.8059C153.019 57.2774 153.394 57.7639 152.941 58.2213C152.877 58.287 152.899 58.3756 152.924 58.4557C153.175 59.1295 153.181 59.8294 153.096 60.5234C153.04 60.867 152.968 61.2059 152.878 61.5403C152.772 61.8701 152.701 62.2005 152.55 62.6285C152.462 62.8897 152.399 63.1578 152.334 63.4345C152.246 63.6957 152.164 63.9677 152.064 64.2352C151.942 64.5884 151.75 64.8586 151.579 65.1528C151.457 65.3682 151.291 65.5076 151.151 65.6903C151.01 65.8731 150.865 66.0365 150.709 66.2061C150.599 66.3421 150.48 66.5123 150.368 66.6202C150.238 66.6956 150.107 66.7063 149.995 66.5386C149.949 66.4711 149.822 66.6024 149.776 66.7739C149.568 67.3797 149.31 67.4486 149.076 67.5695C148.909 67.6442 148.723 67.6863 148.549 67.7502L148.288 67.8362L148.149 67.8726C148.102 67.8783 148.115 67.8268 148.103 67.8051C148.027 67.5734 147.945 67.3309 147.815 67.1306C147.762 67.0522 147.719 66.9762 147.642 66.9189C147.581 66.4614 147.482 66.0399 147.378 65.6075C147.265 65.1362 147.114 64.6729 146.963 64.1364C146.798 63.5868 146.633 63.0371 146.468 62.4875C146.322 61.9338 146.24 61.6913 146.159 61.3756C146.076 61.0685 145.984 60.759 145.882 60.4559C145.837 60.3152 145.723 60.1927 145.678 60.052C145.6 59.7923 145.447 59.54 145.523 59.257C145.606 58.9484 145.592 58.7242 145.177 58.5579C144.944 58.4679 144.905 58.2368 144.9 58.0516C144.882 57.808 144.953 57.5422 145.016 57.2741C145.101 56.9569 145.184 56.6482 144.836 56.4357C144.647 56.3205 144.674 56.0799 144.704 55.8672C144.868 54.9463 144.565 54.1575 144.157 53.4143C143.61 52.4039 142.968 51.4414 142.351 50.4858C142.184 50.285 141.708 49.2844 141.298 48.5497C140.603 47.2699 139.818 45.911 139.142 44.6272C139.526 44.4636 139.83 44.3244 140.04 44.2246C140.43 44.0718 140.971 43.9044 141.391 43.7779C141.755 43.6549 142.158 43.6251 142.475 43.4711C142.827 43.2531 143.309 43.272 143.766 43.2473C144.252 43.2857 144.765 43.3955 145.259 43.5739C145.868 43.8748 146.453 44.0224 147.048 44.3748C147.347 44.5284 147.663 44.6499 147.969 44.8144C148.12 44.9009 148.267 45.0046 148.418 45.0911L148.738 45.2688C148.941 45.3691 149.146 45.4608 149.277 45.6244C150.194 46.7616 151.319 47.6418 151.998 48.8804C152.532 49.8691 152.823 50.9764 153.062 52.0418C153.231 52.8865 153.307 53.734 153.327 54.5848C153.33 54.6408 153.373 54.6889 153.376 54.7449C153.363 55.2378 152.873 55.4556 152.043 55.3986C151.312 55.3497 150.849 55.189 150.786 54.8413C150.687 54.4564 150.657 54.0533 150.55 53.6661L150.444 53.6837Z" fill="#87B1D9"/>
<path d="M166.603 90.4981C164.569 87.5271 162.27 84.4117 159.684 81.2376C155.792 76.4547 151.898 72.3328 148.215 68.7915C148.215 68.7915 146.884 76.6041 150.185 82.2211C154.845 90.141 162.814 92.8092 166.603 90.4981Z" fill="#87B1D9"/>
<path d="M164.014 89.014C163.727 88.3029 163.377 87.621 163.146 86.87C162.929 86.2053 162.72 85.543 162.118 85.1518C161.96 85.0544 161.89 84.8702 161.774 84.7197C161.57 84.4536 161.363 84.196 161.145 83.9447C161.046 83.8354 160.827 83.7951 160.782 83.6544C160.555 82.9594 160.179 82.3718 159.524 82.0034C159.447 81.3669 158.917 81.1147 158.497 80.7631C158.066 80.4179 157.77 79.9435 157.227 79.7062C157.08 79.6391 156.961 79.5337 156.896 79.397C156.545 78.5492 155.896 77.9527 155.258 77.3498C154.578 76.6989 154.009 75.9401 153.607 75.042C153.386 74.5603 153.029 74.1796 152.667 73.8161C152.259 73.3851 151.725 72.9757 151.337 72.6053C150.879 72.1885 150.399 71.8208 150.058 71.757C150.023 71.7478 149.995 71.7495 149.967 71.7511C149.819 71.7572 149.708 71.792 149.63 71.8445C149.586 71.8696 149.56 71.8993 149.531 71.9376C149.518 71.9524 149.503 71.9758 149.498 71.993C149.485 72.0078 149.472 72.0227 149.492 72.1199C149.544 72.4373 149.602 72.7009 149.646 72.9148C149.695 73.1116 149.664 73.1585 149.62 73.2201C149.593 73.2498 149.567 73.2795 149.553 73.331C149.491 73.4613 149.427 73.6281 149.376 73.8533C149.367 73.8876 149.365 73.8962 149.36 73.95L149.347 74.1672C149.336 74.3113 149.334 74.4577 149.34 74.6063C149.346 74.8928 149.341 75.1855 149.356 75.4743C149.419 76.3366 149.583 77.1984 149.86 78.0169C149.967 78.4041 150.135 78.7708 150.308 79.1204C150.468 79.4848 150.673 79.8155 150.846 80.1651C150.969 80.4276 151.115 80.6691 151.264 80.902C151.422 81.1372 151.541 81.3803 151.735 81.6161C152.097 82.0808 152.412 82.5878 152.811 83.0165C153.189 83.4578 153.565 83.9076 153.991 84.3067C154.393 84.7268 154.835 85.1024 155.27 85.4672C155.677 85.8336 156.181 86.0789 156.619 86.3985C156.85 86.5337 157.075 86.686 157.288 86.8532C158.07 87.4671 158.909 88.0044 159.791 88.4154C161.06 88.9944 162.416 89.2842 163.633 89.2702C164.305 89.2664 165 89.177 165.328 88.7045C165.423 88.592 165.575 88.7431 165.739 89.1269C166.016 89.8077 166.29 90.5336 166.043 91.1474C165.864 91.5405 165.609 91.8398 165.183 91.8542C164.869 91.8252 164.588 91.9152 164.279 91.9703C163.981 92.0191 163.678 91.9839 163.395 91.7702C163.318 91.713 163.204 91.7283 163.113 91.7591C161.39 92.1887 159.73 91.4222 158.283 90.6852C157.811 90.4211 157.271 90.2763 156.813 89.9973C156.51 89.8243 156.196 89.6576 155.914 89.4439C155.512 89.125 155.124 88.7912 154.715 88.498C154.407 88.2775 154.021 88.1375 154.059 87.587C154.061 87.4772 153.899 87.3603 153.782 87.3842C153.313 87.4883 153.115 87.233 152.899 87.0098C152.594 86.7075 152.337 86.363 152.078 86.0271C151.81 85.6889 151.538 85.3678 151.29 85.0256C150.908 84.5283 150.462 84.0686 150.059 83.5838C149.406 82.8666 148.67 82.0813 148.159 81.1727C147.929 80.7985 147.74 80.4078 147.589 80.0091C147.421 79.6058 147.262 79.2048 147.134 78.7935C147.064 78.6093 146.935 78.4371 146.876 78.2466C146.776 77.8983 146.617 77.5339 146.685 77.1755C146.765 76.7742 146.768 76.4901 146.362 76.1883C146.132 76.0165 146.105 75.706 146.129 75.4458C146.143 75.1188 146.252 74.7804 146.365 74.4615C146.512 74.1518 146.637 73.5144 146.375 72.8469C146.23 72.4591 146.333 71.9721 146.429 71.6486C146.516 71.3594 146.615 71.0919 146.678 70.8238C146.743 70.5471 146.791 70.2659 146.885 70.0522C147.358 69.6553 147.573 69.1982 147.819 68.7954L148.02 68.4543C148.054 68.3623 148.118 68.3978 148.183 68.3967L148.366 68.3998C148.495 68.3977 148.585 68.4035 148.754 68.3569C148.91 68.325 149.061 68.2737 149.215 68.2139C149.358 68.1603 149.618 68.0463 149.809 67.9504C150.255 68.3089 150.72 68.7 151.206 69.1151C151.574 69.4248 151.94 69.7712 152.313 70.1284L153.337 71.1102C154.606 72.305 155.716 73.65 156.789 75.0309C157.002 75.2993 157.202 75.5826 157.478 75.7853C158.127 76.2441 158.606 76.8593 159.014 77.5293C159.504 78.3406 160.213 78.9533 160.93 79.5682C161.094 79.7131 161.303 79.8242 161.418 80.0113C162.202 81.3056 163.411 82.2453 164.247 83.4802C164.926 84.4798 165.478 85.5743 166.035 86.6516C166.464 87.4834 166.848 88.349 167.236 89.1974C167.259 89.2494 167.323 89.2849 167.352 89.3479C167.559 89.8444 167.214 90.2757 166.411 90.5292C165.699 90.7519 165.17 90.702 164.916 90.3124C164.637 89.8792 164.39 89.4272 164.125 88.9792L164.014 89.014Z" fill="#87B1D9"/>
<path d="M170.888 33.2852C171.752 36.8523 172.541 40.767 173.169 45.0062C173.846 49.5799 174.226 53.8537 174.419 57.7648C177.994 56.4255 180.627 49.5132 179.662 43.787C178.813 38.8271 174.941 32.8733 170.888 33.2852Z" fill="#87B1D9"/>
<path d="M172.677 35.3547C172.654 36.0563 172.673 36.7412 172.566 37.4478C172.472 38.0749 172.354 38.6866 172.71 39.2416C172.801 39.3852 172.78 39.5636 172.812 39.7192C172.872 40.0108 172.923 40.3002 173 40.5965C173.038 40.7263 173.209 40.8454 173.183 40.9763C173.045 41.6285 173.082 42.245 173.453 42.8132C173.201 43.3429 173.517 43.7767 173.688 44.236C173.867 44.6976 173.861 45.2013 174.194 45.6397C174.282 45.7553 174.327 45.896 174.299 46.0355C174.126 46.8529 174.326 47.6141 174.494 48.3942C174.676 49.2241 174.677 50.0788 174.445 50.9448C174.321 51.4078 174.371 51.8715 174.424 52.3267C174.485 52.922 174.6 53.2469 174.662 53.6678C174.747 54.2419 174.88 54.7738 175.118 54.8467C175.169 54.8605 175.214 54.8634 175.251 54.864C175.372 55.062 176.017 54.0954 176.177 53.7062C176.293 53.4433 176.364 53.5543 176.482 53.4938C176.597 53.4419 176.725 53.3752 176.869 53.2484C177.025 53.0788 177.171 52.9435 177.426 52.4052C177.771 51.7349 177.962 50.9867 178.106 50.2442C178.23 49.5422 178.21 48.8292 178.241 48.13C178.26 47.0968 178.213 46.0733 178.055 45.0846C177.876 44.1083 177.597 43.1606 177.209 42.239C177.025 41.7945 176.759 41.3831 176.531 40.9638C176.412 40.7572 176.303 40.5444 176.217 40.319C175.862 39.5164 175.484 38.6983 174.981 38.0031C174.279 36.9879 173.393 36.1441 172.542 35.6862C172.073 35.4135 171.583 35.2179 171.223 35.4982C171.134 35.557 171.068 35.3557 171.071 34.9337C171.092 34.2042 171.152 33.4301 171.601 32.9898C171.905 32.7129 172.25 32.5572 172.598 32.7331C172.83 32.8964 173.111 32.9442 173.372 33.0325C173.62 33.1357 173.852 33.2989 173.972 33.6067C174.005 33.6891 174.106 33.7252 174.181 33.7545C175.743 34.164 176.648 35.555 177.407 36.7692C177.667 37.1698 177.982 37.5389 178.251 37.9418C178.41 38.205 178.564 38.4853 178.702 38.7611C178.876 39.1752 179.026 39.6105 179.221 40.0121C179.369 40.3182 179.64 40.5747 179.321 41.0128C179.25 41.1042 179.327 41.2627 179.45 41.2863C179.911 41.3823 179.962 41.6717 180.026 41.9462C180.203 42.692 180.319 43.4583 180.401 44.2154C180.5 44.7747 180.578 45.338 180.702 45.9042C180.862 46.7832 181.062 47.6822 181.083 48.5976C181.107 49.3667 180.989 50.1161 180.886 50.8787C180.857 51.0548 180.897 51.2492 180.859 51.423C180.792 51.7448 180.796 52.1045 180.555 52.3523C180.288 52.6299 180.198 52.8631 180.397 53.2841C180.516 53.5273 180.383 53.7855 180.263 53.9924C180.227 54.0564 180.183 54.118 180.13 54.1774C180.062 54.2603 179.983 54.3494 179.904 54.4385C179.746 54.6167 179.584 54.7754 179.436 54.9193C179.249 55.0992 179.079 55.2557 178.936 55.447C178.775 55.6338 178.653 55.8492 178.579 56.1968C178.488 56.5677 178.203 56.8773 177.95 56.9656C176.891 57.5916 176.134 58.1516 175.108 58.8599C174.744 59.1208 174.288 59.3844 173.827 59.6651C173.462 59.8248 173.338 59.8097 172.925 60.0117C172.799 59.215 172.656 58.3407 172.534 57.3891C172.422 56.541 172.351 55.6033 172.254 54.6952L172.07 52.7436L171.985 51.6182L171.901 49.3625C171.888 49.0652 171.896 48.7639 171.778 48.4842C171.517 47.8446 171.477 47.1722 171.503 46.4901C171.539 45.6725 171.278 44.8952 170.996 44.1304C170.935 43.9485 170.815 43.7786 170.818 43.5956C170.818 42.2908 170.24 41.0883 170.065 39.8194C169.928 38.79 169.935 37.7351 169.888 36.675C169.867 35.8608 169.849 35.038 169.83 34.2152C169.827 34.1592 169.782 34.1197 169.779 34.0637C169.785 33.5965 170.261 33.3289 171.091 33.3494C171.829 33.3726 172.297 33.5807 172.381 33.989C172.47 34.4448 172.518 34.9172 172.579 35.3746L172.677 35.3547Z" fill="#87B1D9"/>
</svg>
