<svg width="207" height="238" viewBox="0 0 207 238" fill="none" xmlns="http://www.w3.org/2000/svg">
<path d="M39.6791 167.837C34.6071 169.721 24.8527 161.714 25.0497 153.331C25.1376 149.642 27.1745 144.646 31.2067 143.522C35.9854 142.183 40.9076 147.031 42.8531 151.053C45.9016 157.337 43.9344 166.257 39.6791 167.837Z" fill="#F1D1D5"/>
<path d="M36.4853 169.232C35.5721 168.868 34.7418 168.434 34.0587 167.828C33.4476 167.297 32.9383 166.728 32.1627 166.502C31.9569 166.447 31.8113 166.27 31.6411 166.151L30.7311 165.466C30.5905 165.373 30.3561 165.356 30.266 165.213C29.83 164.508 29.3446 163.918 28.6196 163.504C28.4632 162.818 27.9021 162.512 27.4509 162.069C26.9912 161.625 26.7123 161.054 26.1678 160.65C26.021 160.547 25.9098 160.379 25.8717 160.213C25.6351 159.175 25.1438 158.299 24.7619 157.324C24.3594 156.288 24.2414 155.117 24.5183 154.015C24.6745 153.432 24.6695 152.833 24.7416 152.255C24.8071 151.565 24.8662 150.864 25.0157 150.169C25.2456 149.174 25.5161 148.199 25.8112 147.166C26.192 145.78 26.9278 144.405 28.1029 143.278C28.7194 142.726 29.5329 142.365 30.3587 142.164C32.0048 141.713 33.7455 141.904 35.1943 142.43C36.3054 142.81 37.3197 143.312 38.2767 143.89C39.172 144.424 40.0472 144.999 40.8171 145.692C41.956 146.723 42.9569 147.892 43.8222 149.189C44.7045 150.492 45.3379 152.003 45.797 153.514C46.0236 154.245 46.2223 154.979 46.3712 155.726C46.4445 156.104 46.4532 156.483 46.4705 156.865C46.4963 158.277 46.3693 159.677 46.1092 161.059C45.7272 163.034 45.164 165.033 43.8542 166.869C43.1262 167.905 42.1479 168.847 40.8525 169.704C40.4822 169.954 40.2994 169.813 40.2834 169.358C40.2386 168.565 40.0903 167.781 40.2636 167.203C40.3488 166.748 40.4183 166.454 40.7484 166.285C40.979 166.144 41.1548 165.934 41.3072 165.709C41.4618 165.474 41.6439 165.275 41.9837 165.173C42.0746 165.142 42.1154 165.025 42.1321 164.928C42.5131 163.266 43.2118 161.79 43.518 160.098C43.609 159.553 43.5754 158.993 43.5675 158.439C43.5542 158.077 43.5666 157.722 43.5705 157.365C43.534 156.85 43.6203 156.321 43.4911 155.809C43.4007 155.426 43.2364 155.079 43.5817 154.648C43.6522 154.556 43.5867 154.355 43.4712 154.306C43.0049 154.126 43.0104 153.796 42.9079 153.493C42.7002 152.656 42.445 151.825 42.0446 151.056C41.7571 150.483 41.3523 149.97 40.9081 149.502C40.212 148.773 39.4168 148.174 38.6404 147.608C37.9829 147.147 37.3757 146.635 36.6992 146.279C36.5478 146.193 36.3546 146.159 36.1986 146.09C35.9146 145.95 35.5911 145.854 35.3946 145.626C35.1754 145.347 34.9366 145.21 34.5555 145.466C34.3443 145.602 34.1243 145.497 33.9466 145.441C33.7157 145.342 33.5101 145.149 33.2713 145.012C32.9971 144.8 32.6959 144.655 32.3983 144.943C32.2432 145.076 32.0236 145.072 31.8139 144.998C30.877 144.756 29.9576 145.272 29.3552 146.011C28.5072 147.016 27.9992 148.295 27.6694 149.594C27.551 150.104 27.3983 150.606 27.2971 151.121C26.9921 152.739 26.8399 154.233 27.1141 155.85C27.1669 156.167 27.2174 156.493 27.3915 156.77C27.7898 157.409 28.0435 158.075 28.281 158.8C28.5721 159.668 29.2128 160.364 29.8936 160.978C30.057 161.123 30.249 161.229 30.358 161.406C31.1467 162.646 32.4757 163.379 33.5811 164.227C34.4802 164.918 35.3747 165.626 36.357 166.11C37.0981 166.465 37.8851 166.786 38.6403 166.814C38.6855 166.816 38.7336 166.774 38.7873 166.779C39.1789 166.792 39.5701 167.219 39.5754 168.056C39.5779 168.801 39.1616 169.361 38.5023 169.386C37.7824 169.432 37.0999 169.305 36.4654 169.135L36.4853 169.232Z" fill="#F8AFB8"/>
<path d="M44.9653 191.739C40.7098 192.051 37.0595 185.578 36.2736 180.589C35.6783 176.809 36.2225 170.696 39.5095 169.335C43.4383 167.704 50.8133 173.035 51.7288 179.666C52.472 185.021 49.0245 191.439 44.9653 191.739Z" fill="#F1D1D5"/>
<path d="M41.8328 192.249C41.4889 191.955 41.1622 191.665 40.8922 191.335C40.5981 191.027 40.3801 190.674 40.1901 190.32C39.8501 189.669 39.6239 189.038 39.0258 188.63C38.8595 188.53 38.8026 188.331 38.7038 188.185L38.1473 187.347C38.0611 187.223 37.8491 187.157 37.8259 187.003C37.7004 186.271 37.4719 185.65 36.9556 185.107C37.0479 184.488 36.6521 184.079 36.3674 183.599C36.1044 183.105 36.0016 182.563 35.6328 182.088C35.5294 181.959 35.461 181.803 35.4743 181.65C35.5698 180.711 35.3495 179.852 35.2225 178.954C35.0836 177.998 35.1882 177.025 35.5804 176.11C35.7845 175.622 35.8469 175.115 35.9287 174.604C36.0335 174.007 36.072 173.384 36.2414 172.786C36.4843 171.914 36.7357 171.044 37.152 170.108C37.2821 169.793 37.4832 169.489 37.6842 169.184C37.9321 168.911 38.1549 168.594 38.4925 168.363C38.6539 168.24 38.8153 168.118 38.983 168.007L39.5299 167.749C39.9012 167.564 40.2838 167.473 40.6704 167.402C41.0724 167.308 41.4572 167.347 41.8288 167.4C42.2135 167.439 42.5558 167.568 42.9028 167.679C44.271 168.128 45.3931 168.879 46.4397 169.637C47.2091 170.229 47.9832 170.804 48.7108 171.45C49.3876 172.045 50.0925 172.638 50.6725 173.354C51.5615 174.391 52.2644 175.609 52.8261 176.908C53.3986 178.201 53.7033 179.67 53.8039 181.112C53.8568 181.806 53.8817 182.502 53.8443 183.191C53.817 183.533 53.7617 183.876 53.6893 184.215C53.3842 185.457 52.9036 186.633 52.3505 187.771C51.5224 189.387 50.5159 190.983 48.8741 192.206C47.9601 192.908 46.8297 193.423 45.533 193.838C45.1606 193.959 45.0345 193.778 45.1345 193.336C45.2853 192.568 45.3503 191.776 45.6299 191.282C45.815 190.899 45.9314 190.636 46.2527 190.603C46.4861 190.555 46.6864 190.425 46.8718 190.282C47.0595 190.13 47.2614 190.028 47.5884 190.042C47.6788 190.048 47.7384 189.963 47.7785 189.882C48.4811 188.563 49.4605 187.548 50.1077 186.196C50.3151 185.765 50.4158 185.286 50.5227 184.819C50.6203 184.523 50.6664 184.214 50.7554 183.916C50.8897 183.483 51.0068 183.046 51.0531 182.599C51.0547 182.25 50.9481 181.928 51.403 181.636C51.4923 181.577 51.4696 181.387 51.3674 181.323C50.956 181.075 51.0186 180.807 51.0104 180.529C50.997 179.79 50.9322 179.038 50.7203 178.32C50.6343 178.058 50.5288 177.8 50.4233 177.542C50.2961 177.296 50.1386 177.061 49.9897 176.828C49.5022 176.109 48.8597 175.524 48.2646 174.932C47.7604 174.448 47.291 173.936 46.7512 173.516C46.6301 173.419 46.4609 173.365 46.3375 173.277C46.1078 173.105 45.8193 172.981 45.7036 172.693C45.5621 172.398 45.38 172.22 44.9578 172.355C44.7285 172.423 44.5348 172.288 44.3948 172.159C44.2081 171.998 44.0769 171.733 43.9148 171.515C43.7276 171.254 43.5432 170.947 43.1468 171.089C42.9409 171.172 42.7627 171.014 42.6211 170.856C41.9861 170.208 41.0531 170.124 40.4221 170.387C39.9885 170.564 39.6994 170.855 39.4503 171.201C39.2114 171.578 39.0336 172.036 38.8747 172.527C38.8195 172.732 38.7667 172.93 38.6944 173.131L38.5244 173.765C38.2346 175.121 37.9835 176.607 37.8914 178.117C37.8756 178.416 37.8489 178.721 37.9475 179.005C38.1754 179.663 38.2273 180.293 38.2333 180.956C38.2541 181.77 38.6225 182.521 39.0546 183.207C39.1573 183.372 39.2949 183.51 39.337 183.696C39.6299 184.969 40.5544 185.943 41.1919 186.959C41.7032 187.794 42.1887 188.623 42.8043 189.275C43.2806 189.761 43.7706 190.195 44.3781 190.432C44.421 190.443 44.4582 190.407 44.5011 190.419C44.8177 190.54 45.0497 191.08 44.8664 191.867C44.7722 192.219 44.6147 192.498 44.392 192.677C44.285 192.768 44.1568 192.835 44.0247 192.882C43.8995 192.904 43.7531 192.901 43.6159 192.865C43.2964 192.788 42.9792 192.703 42.7061 192.557C42.4307 192.418 42.1335 192.293 41.8976 192.11L41.8328 192.249Z" fill="#F8AFB8"/>
<path d="M75.091 167.449C75.091 167.449 79.9649 155.844 78.9002 150.146C78.0884 145.803 74.7552 139.929 69.1222 139.449C65.1769 139.118 60.4738 141.34 59.5102 144.868C55.6698 159.029 75.091 167.449 75.091 167.449Z" fill="#F1D1D5"/>
<path d="M75.0488 163.967C75.5163 163.183 75.9175 162.372 76.4279 161.599C76.8873 160.913 77.3209 160.221 77.3008 159.37C77.2959 159.148 77.4047 158.947 77.4536 158.731C77.5484 158.343 77.6604 157.959 77.7186 157.57C77.7474 157.394 77.6413 157.173 77.7278 157.021C78.1496 156.271 78.374 155.467 78.2161 154.616C78.6588 154.027 78.4589 153.367 78.3985 152.735C78.3823 152.418 78.3467 152.106 78.3196 151.795C78.3072 151.636 78.2839 151.482 78.2498 151.335C78.1985 151.184 78.1341 151.047 78.0525 150.906C77.9623 150.762 77.9157 150.593 77.9507 150.428C78.0669 149.412 77.6569 148.438 77.2177 147.539C76.7346 146.564 76.3355 145.585 75.9812 144.506C75.7863 143.93 75.4027 143.442 74.9967 143.002C74.7667 142.729 74.4753 142.513 74.208 142.276L73.3465 141.65C72.5102 141.068 71.5432 140.698 70.5644 140.647C69.254 140.6 68.0319 140.805 66.8496 141.205C66.2502 141.384 65.6223 141.464 65.008 141.63C63.7943 141.976 62.5924 142.518 61.7188 143.377C61.4097 143.708 61.1217 144.063 60.9577 144.469C60.7616 144.858 60.684 145.25 60.5953 145.787C60.4009 146.718 60.4776 147.667 60.5182 148.578C60.6899 151.298 61.8292 153.837 63.5476 155.997C63.961 156.512 64.4396 156.99 64.9205 157.458C65.1489 157.703 65.3881 157.942 65.6056 158.193C66.4296 159.131 67.325 160.042 68.3104 160.857C69.7223 162.035 71.2769 163.058 72.8646 164.025C73.7577 164.568 74.6826 165.128 75.7018 165.337C75.9894 165.396 75.9451 165.595 75.7022 165.953C75.2464 166.557 74.7728 167.192 74.0962 167.351C73.6358 167.457 73.2281 167.504 72.8803 167.191C72.3754 166.743 71.599 166.691 71.2751 165.98C71.2272 165.884 71.1055 165.824 71.0026 165.796C69.0873 165.228 67.616 163.86 66.1607 162.569C65.6855 162.148 65.1491 161.783 64.6653 161.36C64.3535 161.083 64.0571 160.783 63.7693 160.486C63.3679 160.029 63.0014 159.545 62.5891 159.094C62.2716 158.77 61.8866 158.493 61.9891 157.904C62.0127 157.782 61.8476 157.609 61.7121 157.6C61.2067 157.566 61.023 157.223 60.8153 156.901C60.3006 156.009 59.8449 155.069 59.4584 154.111C59.305 153.758 59.1493 153.413 59.0091 153.044C58.8557 152.691 58.7047 152.329 58.573 151.962C58.1204 150.84 57.7662 149.624 57.6322 148.375C57.598 147.851 57.5575 147.316 57.6158 146.79C57.6462 146.265 57.696 145.736 57.7909 145.21C57.8272 144.972 57.7949 144.715 57.8421 144.47C57.9668 143.971 58.0802 143.376 58.446 143.006C58.8404 142.597 59.078 142.293 59.1119 141.686C59.1306 141.342 59.4421 141.003 59.7299 140.786C60.0797 140.475 60.5258 140.319 60.9377 140.154C61.4508 139.988 61.9112 139.882 62.2359 139.39C62.4129 139.106 62.819 139.031 63.1472 138.972C64.6037 138.784 65.8758 138.426 67.2689 138.165C69.1155 137.824 71.2653 137.895 73.1591 138.714C73.9055 139.016 74.587 139.455 75.2142 139.927C76.2031 140.66 77.0168 141.568 77.6874 142.528C78.3667 143.492 78.9069 144.528 79.3281 145.596C79.5106 146.013 79.6324 146.45 79.8693 146.835C80.4011 147.731 80.6508 148.753 80.7279 149.803C80.7846 151.169 80.9404 152.405 80.9824 153.621C81.0055 153.912 81.0566 154.201 80.9854 154.467C80.5383 156.341 80.4937 158.222 79.9387 159.985C79.4842 161.407 78.8394 162.75 78.2014 164.068C77.6976 165.091 77.1384 166.08 76.5814 167.061C76.5459 167.125 76.551 167.209 76.5069 167.271C76.1637 167.832 75.5977 167.818 74.9746 167.228C74.4126 166.719 74.1868 166.19 74.3978 165.677C74.6335 165.106 74.9012 164.553 75.154 163.986L75.0488 163.967Z" fill="#F8AFB8"/>
<path d="M76.2321 168.599C78.9295 164.911 88.8796 166.529 94.6061 171.565C95.1344 172.028 101.296 177.566 99.5295 182.101C97.9517 186.172 90.7879 187.358 85.8401 185.692C78.0279 183.057 73.3892 172.487 76.2321 168.599Z" fill="#F1D1D5"/>
<path d="M78.3498 165.774C78.8501 165.724 79.3333 165.67 79.8021 165.704C80.2801 165.703 80.7312 165.769 81.1793 165.88C81.5783 165.968 81.951 166.086 82.3351 166.162C82.7106 166.235 83.0937 166.246 83.4889 166.177C83.6919 166.139 83.9079 166.225 84.1143 166.243C84.499 166.282 84.8677 166.381 85.2416 166.426C85.4114 166.444 85.6242 166.336 85.7756 166.422C86.4915 166.871 87.2151 167.12 88.0458 167.141C88.5261 167.646 89.1544 167.667 89.7786 167.807C90.3873 167.97 90.9283 168.317 91.6012 168.378C91.7796 168.398 91.9613 168.475 92.0756 168.597C92.4525 168.974 92.8609 169.267 93.2756 169.571C93.7058 169.852 94.1406 170.115 94.5639 170.422C95.5032 171.032 96.214 171.911 96.7011 172.906C96.9526 173.442 97.3368 173.894 97.7016 174.35C98.1144 174.902 98.5986 175.427 98.9804 176.025C99.5385 176.891 100.042 177.789 100.525 178.801L100.761 179.323L100.922 179.89C101.049 180.274 101.077 180.685 101.1 181.114C101.139 181.961 100.928 182.851 100.57 183.674C100.154 184.472 99.4606 185.104 98.762 185.551C97.3618 186.49 95.8564 186.895 94.4004 187.185C93.2989 187.386 92.2192 187.575 91.1133 187.655C90.0938 187.722 89.0434 187.836 87.9989 187.721C86.4576 187.575 84.8553 187.21 83.3896 186.541C81.9192 185.89 80.5755 185.006 79.3611 183.982C78.786 183.488 78.1891 183.007 77.6666 182.453C77.3999 182.179 77.1681 181.878 76.9387 181.569C76.1161 180.42 75.4589 179.169 74.8733 177.891C74.0624 176.047 73.385 174.083 73.3602 171.844C73.3709 170.569 73.5635 169.233 74.1811 167.717C74.3691 167.289 74.6167 167.291 74.8729 167.673C75.3336 168.32 75.8732 168.878 76.0938 169.461C76.2505 169.87 76.4028 170.159 76.2229 170.488C75.9667 170.998 76.2908 171.572 75.8744 172.131C75.8149 172.216 75.8496 172.327 75.8804 172.418C76.5383 174.009 76.8274 175.64 77.5545 177.213C77.7872 177.716 78.1348 178.168 78.4545 178.621L79.0703 179.512C79.3666 179.95 79.6387 180.409 80.0071 180.783C80.2909 181.061 80.6366 181.246 80.5885 181.802C80.5758 181.919 80.7414 182.055 80.8666 182.033C81.3505 181.942 81.5532 182.18 81.7862 182.408C82.4264 183.003 83.1016 183.569 83.8586 184.002C84.4151 184.326 85.0272 184.545 85.6514 184.685C86.6146 184.897 87.6072 184.896 88.5763 184.88C89.3836 184.885 90.1847 184.879 90.9784 184.798C91.1596 184.773 91.3336 184.672 91.5126 184.656C91.8488 184.636 92.1789 184.467 92.5064 184.582C92.8705 184.698 93.149 184.653 93.3839 184.257C93.5168 184.035 93.7719 183.975 93.9983 183.953C94.2894 183.93 94.5838 183.963 94.8953 184C95.2755 184.056 95.6265 184.049 95.8311 183.663C95.9337 183.452 96.1693 183.395 96.4152 183.369C97.4228 183.244 98.1184 182.466 98.3064 181.661C98.5576 180.552 98.1696 179.428 97.5099 178.324C97.248 177.895 96.993 177.441 96.6967 177.003C95.7527 175.656 94.6486 174.221 93.466 172.976C93.2329 172.748 92.9765 172.505 92.6754 172.36C92.3383 172.178 91.988 172.01 91.6709 171.788C91.3647 171.559 91.0585 171.329 90.7484 171.081C90.3897 170.774 89.9714 170.551 89.5285 170.387C89.0988 170.207 88.6335 170.092 88.1722 169.996C87.9555 169.947 87.7274 169.941 87.5417 169.845C86.2081 169.129 84.6557 169.127 83.2604 168.882C82.1245 168.697 80.9727 168.434 79.8954 168.476C79.0766 168.514 78.2721 168.602 77.6227 168.933C77.5878 168.961 77.5803 169.023 77.5391 169.039C77.2176 169.211 76.6323 169.063 76.1809 168.381C75.988 168.072 75.9009 167.746 75.9384 167.434C75.9634 167.101 76.1421 166.846 76.4293 166.665L76.9037 166.37C77.0644 166.284 77.2332 166.237 77.3979 166.171C77.7251 166.048 78.0546 165.915 78.3806 165.865L78.3498 165.774Z" fill="#F8AFB8"/>
<path d="M103.379 148.496C103.379 148.496 103.99 137.265 100.955 131.756C98.134 126.645 92.5553 119.995 87.6883 121.594C83.0615 123.12 80.9794 131.439 83.2931 137.38C87.6582 148.593 103.379 148.496 103.379 148.496Z" fill="#F1D1D5"/>
<path d="M102.14 145.16C102.304 144.239 102.386 143.314 102.589 142.385C102.756 141.557 102.923 140.729 102.577 139.929C102.494 139.723 102.522 139.482 102.489 139.262C102.422 138.858 102.384 138.453 102.296 138.061C102.251 137.884 102.067 137.715 102.087 137.537C102.192 136.664 102.071 135.814 101.58 135.076C101.738 134.347 101.287 133.803 100.958 133.246C100.599 132.7 100.411 132.098 99.8392 131.66C99.6947 131.548 99.5725 131.386 99.5258 131.218C99.2183 130.17 98.5435 129.328 97.8509 128.517C97.0989 127.654 96.4665 126.722 95.9069 125.69C95.6171 125.125 95.1333 124.702 94.6753 124.285C94.1149 123.804 93.4625 123.427 92.842 123.068C91.9404 122.523 90.9099 122.219 89.9503 122.302C88.6649 122.435 87.7277 122.984 87.0137 123.831C86.6598 124.26 86.1717 124.607 85.7863 125.119C84.9989 126.103 84.3365 127.341 83.9672 128.684C83.6704 129.689 83.5943 130.762 83.6262 131.809C83.6376 132.795 83.8971 133.747 84.1076 134.677C84.1987 135.023 84.3138 135.347 84.4071 135.685C84.5199 136.018 84.6653 136.333 84.7828 136.649C85.093 137.275 85.4554 137.877 85.7726 138.477C86.2179 139.01 86.5848 139.595 87.0588 140.09L87.7938 140.81C87.9189 140.926 88.0331 141.049 88.1582 141.165L88.5792 141.48L89.3898 142.056C89.66 142.248 89.9829 142.38 90.26 142.546C90.5566 142.708 90.8159 142.907 91.0993 143.084C91.6518 143.388 92.1648 143.737 92.7437 144.011C93.3272 144.269 93.8837 144.592 94.5027 144.786C96.2269 145.45 98.0738 145.862 99.931 146.167C100.981 146.329 102.066 146.5 103.088 146.287C103.371 146.225 103.408 146.428 103.332 146.848C103.171 147.586 102.975 148.352 102.406 148.76C102.018 149.042 101.643 149.244 101.189 149.086C100.532 148.864 99.7737 149.12 99.178 148.566C99.0975 148.489 98.9597 148.489 98.8476 148.495C96.7908 148.661 94.8598 147.877 93.0145 147.116C92.4184 146.837 91.7754 146.665 91.1576 146.398C90.7668 146.211 90.3891 146.008 90.0137 145.798C89.4566 145.51 88.9906 145.055 88.4466 144.753C88.2398 144.633 88.026 144.539 87.8455 144.39C87.6782 144.225 87.5567 144.027 87.5296 143.717C87.5189 143.585 87.3166 143.448 87.1828 143.468C86.6733 143.552 86.37 143.277 86.1102 142.978L85.0694 141.753C84.7165 141.355 84.4707 140.866 84.155 140.433C83.9496 140.102 83.6617 139.804 83.4803 139.452C83.2881 139.107 83.0741 138.774 82.8624 138.432C82.1432 137.412 81.6077 136.221 81.2278 134.998C81.09 134.484 80.9654 133.954 80.9055 133.423C80.8261 132.897 80.7855 132.362 80.7559 131.821C80.7407 131.569 80.6416 131.322 80.6608 131.079C80.6813 130.625 80.595 130.124 80.8041 129.721C81.0357 129.268 81.1019 128.918 80.8435 128.408C80.6997 128.121 80.814 127.729 80.9161 127.417C81.0607 127.014 81.3401 126.657 81.5807 126.308C81.8934 125.896 82.2328 125.555 82.1936 124.947C82.1968 124.626 82.4585 124.301 82.6972 124.062C83.7933 123.023 84.6695 121.88 85.96 120.939C87.6854 119.609 90.3718 119.392 92.3446 120.123C93.1476 120.384 93.8516 120.774 94.5315 121.186C96.6042 122.504 98.1247 124.272 99.4158 126.106C99.6767 126.47 99.9158 126.847 100.229 127.151C100.98 127.849 101.482 128.718 101.897 129.638C102.026 129.912 102.155 130.185 102.295 130.452C102.439 130.702 102.596 130.974 102.754 131.274L103.25 132.133L103.692 132.986C103.841 133.256 104.011 133.513 104.056 133.791C104.436 135.768 105.113 137.594 105.262 139.509C105.383 141.048 105.256 142.585 105.127 144.095C105.025 145.262 104.844 146.417 104.653 147.579C104.641 147.658 104.676 147.732 104.655 147.809C104.524 148.472 103.978 148.657 103.198 148.31C102.497 148.012 102.105 147.586 102.128 147.022L102.248 145.133L102.14 145.16Z" fill="#F8AFB8"/>
<path d="M100.039 155.005C100.039 155.005 108.648 139.715 120.165 141.625C125.277 142.471 130.501 147.188 129.856 150.828C129.064 155.257 120.955 157.642 118.868 157.919C113.562 158.62 100.039 155.005 100.039 155.005Z" fill="#F1D1D5"/>
<path d="M100.736 151.609C101.412 150.972 102.065 150.32 102.82 149.797C103.507 149.328 104.173 148.9 104.541 148.144C104.63 147.948 104.83 147.817 104.981 147.665L105.808 146.811C105.935 146.68 105.965 146.431 106.121 146.362C106.902 145.983 107.546 145.503 108.042 144.782C108.757 144.652 109.12 144.087 109.616 143.641C110.106 143.185 110.72 142.917 111.185 142.38C111.306 142.238 111.476 142.118 111.659 142.085C112.763 141.875 113.708 141.402 114.758 141.049C115.875 140.687 117.114 140.624 118.258 140.949C118.562 141.049 118.874 141.086 119.183 141.132C119.49 141.187 119.802 141.225 120.113 141.262L121.217 141.429C121.582 141.509 121.949 141.579 122.307 141.685C123.341 142.008 124.332 142.393 125.393 142.751C126.804 143.248 128.16 144.016 129.339 145.104C129.957 145.646 130.342 146.438 130.701 147.224C131.023 148.045 131.306 148.911 131.272 149.894C131.26 150.865 130.983 151.829 130.531 152.59C129.876 153.766 129.002 154.662 128.095 155.439C127.235 156.146 126.367 156.814 125.423 157.351C124.022 158.124 122.577 158.748 121.062 159.261C120.672 159.377 120.297 159.506 119.884 159.607C119.478 159.719 118.994 159.809 118.58 159.845C118.142 159.903 117.715 159.954 117.31 159.955C116.901 159.974 116.48 160 116.089 159.987C115.316 159.991 114.564 160.019 113.811 159.983C113.436 159.974 113.065 159.921 112.704 159.861C111.336 159.65 110.021 159.344 108.693 159.089C106.792 158.708 104.91 158.324 103.04 157.859C101.981 157.594 100.944 157.279 99.8253 157.237C99.5068 157.225 99.4568 157 99.6785 156.619C100.066 155.96 100.403 155.251 101.007 154.953C101.419 154.751 101.79 154.602 102.174 154.815C102.746 155.116 103.464 154.941 103.965 155.507C104.034 155.59 104.161 155.596 104.273 155.589C106.18 155.503 107.928 156.146 109.746 156.532C110.335 156.662 110.947 156.679 111.544 156.747L112.704 156.911C113.26 156.996 113.815 157.154 114.381 157.167C114.81 157.181 115.229 157.091 115.576 157.543C115.652 157.637 115.874 157.632 115.958 157.526C116.281 157.143 116.62 157.216 116.96 157.215C117.422 157.238 117.883 157.269 118.331 157.243C118.789 157.246 119.21 157.184 119.662 157.075C120.322 156.912 120.976 156.665 121.595 156.344C122.561 155.858 123.441 155.249 124.304 154.671C125.014 154.181 125.732 153.73 126.318 153.189C126.46 153.071 126.53 152.878 126.663 152.758C126.915 152.54 127.043 152.235 127.348 152.123C127.675 152 127.834 151.785 127.69 151.397C127.566 151.171 127.672 151.016 127.78 150.888C127.832 150.728 128.102 150.58 128.212 150.407C128.409 150.221 128.548 149.909 128.242 149.68C128.046 149.554 128.105 149.331 128.111 149.103C128.186 148.103 127.477 147.15 126.644 146.486C125.497 145.553 124.135 144.876 122.767 144.427C122.238 144.239 121.709 144.051 121.186 143.911C119.583 143.482 117.894 143.305 116.179 143.498C115.842 143.554 115.491 143.561 115.193 143.748C114.489 144.111 113.774 144.379 112.991 144.592C112.058 144.884 111.281 145.521 110.574 146.205C110.41 146.372 110.273 146.574 110.079 146.679C108.692 147.465 107.748 148.829 106.597 149.936C105.664 150.844 104.659 151.714 103.713 152.673C102.992 153.408 102.241 154.154 101.563 154.937C101.521 154.99 101.509 155.069 101.461 155.111C101.062 155.537 100.519 155.438 99.9632 154.802C99.4841 154.223 99.3562 153.638 99.6764 153.163C100.028 152.641 100.432 152.162 100.836 151.682L100.736 151.609Z" fill="#F8AFB8"/>
<path d="M112.738 116.068C112.353 111.848 119.766 106.612 126.625 107.145C132.736 107.624 139.04 112.732 138.386 116.82C137.75 120.84 130.56 122.948 125.517 122.837C120.173 122.719 113.092 119.995 112.738 116.068Z" fill="#F1D1D5"/>
<path d="M112.336 112.733L112.8 112.205C112.962 112.046 113.139 111.901 113.298 111.75C113.628 111.444 113.996 111.202 114.375 110.991C114.703 110.794 115.063 110.652 115.372 110.459C115.674 110.255 115.96 110.047 116.183 109.73C116.3 109.568 116.503 109.494 116.665 109.372C116.974 109.179 117.28 108.995 117.574 108.789C117.703 108.685 117.795 108.48 117.948 108.457C118.732 108.309 119.414 108.096 120.02 107.551C120.698 107.696 121.14 107.245 121.691 107.006C121.962 106.886 122.25 106.807 122.544 106.702C122.834 106.614 123.124 106.527 123.392 106.35C123.536 106.26 123.718 106.199 123.885 106.225C124.392 106.324 124.876 106.334 125.361 106.308C125.851 106.329 126.343 106.277 126.838 106.281C127.895 106.316 128.949 106.599 129.822 107.218C130.293 107.519 130.812 107.741 131.321 107.933C131.92 108.203 132.558 108.393 133.145 108.706C134.001 109.147 134.833 109.609 135.742 110.055C136.953 110.646 138.104 111.496 139.022 112.698C139.263 113.001 139.418 113.383 139.569 113.745C139.694 114.137 139.786 114.547 139.858 114.962C139.954 115.805 139.939 116.72 139.615 117.552C139.342 118.398 138.823 119.067 138.315 119.658C137.509 120.507 136.628 121.154 135.731 121.722C134.889 122.259 134.035 122.738 133.141 123.123C130.46 124.178 127.649 124.757 124.672 124.759C123.965 124.754 123.252 124.774 122.554 124.706C122.203 124.677 121.851 124.619 121.515 124.538C120.243 124.243 119.014 123.822 117.797 123.321C116.065 122.618 114.314 121.745 112.77 120.238C111.915 119.347 111.146 118.204 110.635 116.716C110.492 116.291 110.671 116.137 111.119 116.248C111.902 116.412 112.676 116.472 113.212 116.736C113.625 116.91 113.862 117.02 113.968 117.342C114.022 117.587 114.202 117.773 114.393 117.952C114.562 118.145 114.712 118.341 114.768 118.678C114.78 118.773 114.873 118.835 114.957 118.866C116.45 119.468 117.726 120.362 119.234 120.977C119.726 121.164 120.252 121.259 120.765 121.369L121.758 121.607C122.24 121.728 122.719 121.893 123.214 121.933C123.588 121.978 123.96 121.858 124.256 122.332C124.321 122.432 124.523 122.431 124.596 122.331C124.893 121.942 125.189 122.003 125.495 122.03C126.312 122.065 127.153 122.116 127.982 122.007C128.597 121.942 129.2 121.782 129.781 121.57C130.692 121.254 131.529 120.771 132.348 120.356C133.018 119.984 133.722 119.686 134.304 119.263C134.448 119.173 134.543 119.024 134.672 118.92C134.903 118.743 135.114 118.506 135.386 118.45C135.55 118.42 135.682 118.373 135.77 118.286C135.842 118.186 135.862 118.044 135.818 117.831C135.794 117.714 135.817 117.628 135.866 117.549C135.895 117.475 135.957 117.417 136.007 117.367C136.177 117.247 136.357 117.157 136.559 117.055C136.696 116.991 136.798 116.917 136.843 116.819C136.888 116.72 136.937 116.605 136.788 116.473C136.634 116.331 136.763 116.191 136.843 116.029C137.232 115.297 136.816 114.349 136.174 113.69C135.325 112.745 134.174 112.033 133.019 111.438C132.553 111.222 132.132 110.943 131.664 110.735C130.237 110.059 128.786 109.404 127.27 109.062C126.971 109.009 126.667 108.909 126.365 108.975C126.01 109.064 125.685 109.078 125.338 109.068C124.993 109.086 124.649 109.067 124.301 109.029C123.873 109.015 123.452 109.077 123.043 109.197C122.644 109.348 122.246 109.498 121.867 109.709C121.693 109.81 121.536 109.951 121.344 109.982C119.987 110.244 118.925 111.191 117.83 111.881C116.936 112.44 116.007 112.991 115.287 113.689C114.749 114.225 114.248 114.789 113.994 115.429C113.983 115.472 114.016 115.517 114.007 115.552C113.886 115.868 113.345 116.137 112.562 115.937C111.874 115.761 111.393 115.191 111.586 114.572L111.73 114.069C111.791 113.91 111.867 113.765 111.945 113.612C112.098 113.313 112.243 113.012 112.437 112.769L112.336 112.733Z" fill="#F8AFB8"/>
<path d="M111.007 106.681C111.007 106.681 103.013 77.3202 90.7668 83.5863C86.5492 85.746 85.6563 93.2624 87.7696 98.4416C90.1868 104.373 97.0549 108.612 102.799 107.201C103.448 107.044 111.007 106.681 111.007 106.681Z" fill="#F1D1D5"/>
<path d="M108.795 103.863C108.669 102.929 108.476 102.004 108.382 101.051C108.306 100.203 108.221 99.3534 107.668 98.6723C107.523 98.4955 107.486 98.2559 107.395 98.0476C107.229 97.6724 107.065 97.2885 106.88 96.9172C106.796 96.7479 106.579 96.6344 106.554 96.4531C106.422 95.5725 106.115 94.7642 105.488 94.1185C105.486 93.3735 104.962 92.8932 104.534 92.3649C104.128 91.8241 103.821 91.2182 103.264 90.7933C103.109 90.6874 102.984 90.5346 102.921 90.3612C102.587 89.3071 101.847 88.5023 101.126 87.7301C100.321 86.9264 99.6364 86.0537 98.9394 85.1226C98.5643 84.6361 98.0433 84.2484 97.4879 83.9893C97.3256 83.9091 97.1656 83.8203 96.9924 83.7463L96.474 83.589C96.1294 83.4691 95.775 83.4201 95.4228 83.3625C94.4156 83.2121 93.3589 83.3149 92.4948 83.8644C92.2019 83.9973 91.9375 84.2297 91.6674 84.4146C91.5409 84.5094 91.3887 84.5972 91.2794 84.6966L90.9663 85.0078C90.7436 85.1871 90.6032 85.4711 90.4126 85.6681C90.2619 85.9218 90.0987 86.1537 89.9715 86.4229C89.7169 86.9612 89.3041 87.4387 89.0336 88.037C88.4541 89.205 88.0351 90.563 87.9059 91.9711C87.8234 93.0333 87.9216 94.1072 88.1325 95.1378C88.3509 96.106 88.7535 97.0042 89.1481 97.8634C90.363 100.394 92.4828 102.497 94.9221 103.785C95.5113 104.09 96.1319 104.311 96.7509 104.504C97.0503 104.621 97.3613 104.696 97.6608 104.813C98.7695 105.201 99.9196 105.436 101.038 105.377C101.441 105.384 101.825 105.285 102.218 105.225C102.207 105.231 102.704 105.126 102.814 105.127L103.248 105.087L104.037 105.023C105.076 104.952 106.084 104.892 107.106 104.853C108.258 104.803 109.408 104.799 110.543 104.506C110.859 104.425 110.974 104.612 110.877 105.046C110.705 105.79 110.578 106.574 110.049 107.038C109.688 107.355 109.357 107.597 108.891 107.518C108.217 107.393 107.526 107.777 106.846 107.366C106.75 107.312 106.614 107.34 106.506 107.366C105.54 107.677 104.554 107.79 103.58 107.86L102.95 107.911L102.158 108.021C101.629 108.109 101.098 108.068 100.575 108.102C100.233 108.075 99.8901 108.084 99.5414 108.082C99.1926 108.081 98.8553 108.036 98.5134 108.009C98.0641 107.971 97.6423 107.831 97.2113 107.724C96.5969 107.514 96.0026 107.263 95.4145 107.023C94.9607 106.864 94.4691 106.778 94.3006 106.173C94.2682 106.054 94.0373 105.955 93.9052 106.002C93.4069 106.181 93.0928 105.913 92.7672 105.688C91.8994 105.051 91.1044 104.315 90.3637 103.546C89.7961 102.99 89.2416 102.419 88.6917 101.83C87.822 100.926 87.0296 99.9055 86.4118 98.7475C85.9006 97.7743 85.6126 96.7231 85.3417 95.6764C85.2791 95.4299 85.1667 95.1977 85.1212 94.9558C85.032 94.5 84.9023 94.0241 85.0217 93.5783C85.1332 93.0936 85.1931 92.7328 84.8283 92.2767C84.6216 92.0192 84.6758 91.611 84.7266 91.2846C84.7917 90.8701 84.9837 90.4621 85.1797 90.0736C85.3964 89.6078 85.6702 89.2034 85.5119 88.628C85.4225 88.31 85.6482 87.9477 85.8253 87.6644C86.6792 86.4321 87.2737 85.1395 88.2352 83.9176C88.3852 83.7005 88.5821 83.5144 88.7704 83.3259C88.9673 83.1398 89.1345 82.9273 89.3697 82.7698L90.0456 82.2709C90.2676 82.1282 90.4999 82.0158 90.7259 81.8926C90.9519 81.7694 91.1801 81.6375 91.421 81.5275L92.1835 81.254C92.6823 81.0384 93.2433 80.9682 93.794 80.8677C94.6678 80.7618 95.5751 80.8395 96.4222 81.0389C97.7346 81.3538 98.9626 81.9493 99.9423 82.7172C100.47 83.0792 100.887 83.5126 101.339 83.9185C101.736 84.3558 102.175 84.7765 102.529 85.239C102.818 85.6012 103.106 85.9635 103.431 86.2617C104.22 86.9511 104.789 87.8111 105.235 88.7208C105.787 89.8152 106.496 90.768 107.212 91.7317C107.381 91.9606 107.582 92.1707 107.679 92.4264C108.376 94.2123 109.491 95.7791 110.137 97.5512C110.662 98.9875 111.005 100.485 111.333 101.97C111.587 103.113 111.772 104.275 111.947 105.443C111.962 105.52 112.017 105.59 112.025 105.666C112.102 106.339 111.65 106.686 110.793 106.594C110.038 106.53 109.526 106.246 109.372 105.69C109.197 105.073 109.061 104.449 108.895 103.835L108.795 103.863Z" fill="#F8AFB8"/>
<path d="M118.127 74.6417C118.127 74.6417 112.809 86.293 116.42 93.8034C119.547 100.311 127.599 105.308 131.94 102.86C136.066 100.528 135.221 92.2615 133.116 86.2944C130.147 77.8625 118.127 74.6417 118.127 74.6417Z" fill="#F1D1D5"/>
<path d="M118.156 78.1601C117.712 78.96 117.332 79.7955 116.866 80.608C116.443 81.3308 116.062 82.065 116.144 82.9233C116.169 83.1412 116.083 83.3572 116.052 83.5785C116 83.9781 115.911 84.377 115.904 84.7795C115.901 84.9625 116.029 85.1714 115.957 85.3359C115.606 86.1331 115.533 86.9867 115.797 87.8201C115.502 88.4761 115.724 89.1236 115.946 89.7345C116.046 90.0462 116.099 90.3636 116.163 90.6747C116.265 90.9779 116.396 91.2793 116.591 91.5431C116.701 91.6828 116.765 91.8561 116.764 92.0305C116.803 92.5371 116.956 93.0285 117.136 93.4901C117.391 93.9444 117.64 94.3878 117.951 94.8021C118.601 95.7023 119.18 96.6292 119.707 97.6802C119.977 98.2488 120.45 98.6788 120.895 99.1104C121.18 99.352 121.469 99.5765 121.769 99.7947L122.688 100.409C123.12 100.717 123.599 100.956 124.068 101.192C124.56 101.379 125.043 101.6 125.565 101.676C126.923 101.957 128.282 102.064 129.384 101.863C129.65 101.796 129.938 101.818 130.184 101.756C130.31 101.734 130.441 101.723 130.581 101.715L130.934 101.598C131.877 101.336 132.697 100.472 133.155 99.2435C133.491 98.3319 133.623 97.292 133.584 96.2342C133.571 95.2565 133.376 94.2671 133.205 93.2932C132.952 91.8377 132.576 90.3953 132.117 88.986C131.884 88.2801 131.62 87.5845 131.34 86.9124C131.01 86.3277 130.796 85.719 130.371 85.1822C130.183 84.9207 130.016 84.6552 129.793 84.4211L129.127 83.7188C128.927 83.4721 128.672 83.2568 128.463 83.0078C127.682 82.0818 126.721 81.2453 125.7 80.4939C124.213 79.4247 122.541 78.5633 120.834 77.8025C119.874 77.3708 118.863 76.9254 117.822 76.867C117.526 76.8426 117.55 76.6471 117.738 76.2562C118.091 75.5882 118.486 74.9038 119.132 74.6541C119.58 74.4894 119.985 74.3864 120.392 74.6516C120.96 75.0336 121.753 74.9888 122.187 75.6658C122.246 75.755 122.381 75.8004 122.486 75.8194C124.502 76.1848 126.165 77.4207 127.737 78.6507C128.252 79.0641 128.827 79.3839 129.335 79.823C129.664 80.1041 130.006 80.3704 130.284 80.7024C130.701 81.1723 131.106 81.6485 131.496 82.1481C131.793 82.5127 132.226 82.7848 132.08 83.3981C132.046 83.5267 132.195 83.723 132.328 83.7403C132.839 83.8221 133.027 84.1848 133.198 84.543L133.786 86.0514L134.232 87.5402C134.459 88.2718 134.705 88.9994 134.982 89.7167C135.378 90.843 135.835 91.9853 136.092 93.1846C136.319 94.1917 136.398 95.233 136.445 96.2931C136.451 96.543 136.525 96.7832 136.521 97.0393C136.519 97.4893 136.53 97.9976 136.347 98.4079C136.104 98.8668 135.991 99.2222 136.231 99.7646C136.34 100.079 136.191 100.498 136.041 100.816C135.819 101.235 135.498 101.608 135.153 101.938C134.696 102.34 134.321 102.643 134.054 103.261C133.982 103.426 133.863 103.596 133.685 103.714C133.506 103.831 133.298 103.922 133.114 103.992C131.467 104.581 129.959 104.792 128.467 104.769C126.448 104.724 124.537 104.175 122.8 103.352C122.139 103.009 121.48 102.621 120.882 102.176C118.974 100.829 117.404 99.0754 116.199 97.0893C115.975 96.6894 115.752 96.2895 115.45 95.9421C115.121 95.5232 114.835 95.0791 114.607 94.5951C114.404 94.0815 114.235 93.5489 114.101 93.017C113.998 92.3737 113.843 91.7531 113.659 91.1343C113.538 90.5229 113.355 89.9041 113.219 89.2795C113.168 88.9902 113.069 88.7065 113.083 88.416C113.213 86.4202 113.044 84.4451 113.453 82.5422C113.806 81.0194 114.377 79.5736 114.991 78.1758C115.474 77.0923 116.027 76.0552 116.613 75.0359C116.648 74.9719 116.654 74.8816 116.69 74.8176C117.057 74.236 117.629 74.2606 118.228 74.8714C118.775 75.4038 119.003 75.9244 118.783 76.4353L118.048 78.1497L118.156 78.1601Z" fill="#F8AFB8"/>
<path d="M117.491 73.674C117.491 73.674 109.817 72.5459 107.128 64.3362C105.993 60.8894 106.354 55.9778 109.554 53.9776C112.531 52.1287 117.679 54.4179 119.752 57.9321C122.77 63.0598 117.491 73.674 117.491 73.674Z" fill="#F1D1D5"/>
<path d="M114.762 74.1912C114.16 73.7633 113.575 73.3401 113.097 72.7895C112.682 72.283 112.317 71.7903 111.683 71.6203C111.52 71.5766 111.413 71.4284 111.275 71.327C111.041 71.1358 110.82 70.9297 110.576 70.7447C110.47 70.6611 110.243 70.6831 110.198 70.5424C109.929 69.9006 109.558 69.4336 108.97 69.0921C108.923 68.51 108.467 68.259 108.116 67.8893C107.743 67.532 107.587 67.0493 107.126 66.7143C107.002 66.6261 106.908 66.4996 106.891 66.3572C106.84 65.93 106.762 65.5325 106.605 65.1596C106.456 64.7889 106.279 64.4199 106.137 64.0235C105.829 63.1872 105.779 62.2735 106.033 61.395C106.168 60.9257 106.163 60.4649 106.177 60.0001C106.206 59.4472 106.172 58.8869 106.257 58.3306C106.374 57.5166 106.542 56.7163 106.721 55.8452C106.962 54.6693 107.626 53.4597 108.688 52.5862C109.287 52.1312 110.057 51.9332 110.743 51.8779C112.151 51.7315 113.409 52.0778 114.55 52.4846C115.401 52.8046 116.229 53.1458 117.027 53.5619C117.755 53.9681 118.528 54.3407 119.197 54.8967C119.693 55.3055 120.151 55.7589 120.586 56.2614C120.793 56.519 120.995 56.7936 121.191 57.0575C121.366 57.3618 121.537 57.6834 121.7 58.0026C122.303 59.2852 122.573 60.6441 122.648 61.9049C122.711 62.5282 122.744 63.1251 122.747 63.7323C122.757 64.0382 122.707 64.3281 122.657 64.6179C122.557 65.161 122.443 65.6908 122.296 66.203C122.165 66.7282 122.021 67.2318 121.866 67.7416C121.449 69.1922 120.995 70.6142 120.416 71.9846C120.089 72.7607 119.715 73.5058 119.562 74.3839C119.513 74.6371 119.291 74.642 118.953 74.3586C118.365 73.8793 117.715 73.4571 117.472 72.9234C117.31 72.5675 117.191 72.2598 117.414 72.0073C117.75 71.647 117.603 71.0653 118.186 70.8081C118.268 70.7751 118.277 70.6762 118.28 70.5944C118.292 69.1456 118.968 67.9577 119.356 66.6465C119.497 66.2248 119.489 65.7725 119.57 65.3346L119.713 64.4909C119.793 64.0896 119.929 63.6849 119.919 63.2778C119.911 62.9634 119.815 62.6711 120.254 62.4029C120.344 62.3441 120.323 62.1823 120.218 62.1267C119.809 61.9066 119.856 61.662 119.869 61.4081C119.843 60.7488 119.833 60.0661 119.63 59.4513C119.585 59.2094 119.455 59.0091 119.333 58.8111C119.201 58.6194 119.099 58.4175 118.925 58.2423C118.422 57.6848 117.752 57.3032 117.145 56.9291C116.644 56.602 116.131 56.2898 115.601 56.0376C115.477 55.986 115.318 55.9984 115.196 55.9382C114.978 55.8247 114.705 55.8158 114.554 55.5915C114.392 55.3369 114.196 55.2475 113.868 55.5089C113.685 55.6437 113.507 55.5868 113.371 55.5135C113.187 55.4092 113.031 55.2386 112.853 55.0806C112.643 54.8682 112.422 54.6987 112.153 54.9483C112.015 55.0859 111.857 55.0251 111.699 54.9277C111.364 54.7369 111.011 54.7159 110.696 54.7967C110.389 54.8799 110.133 55.0779 109.888 55.3429C109.258 56.0472 108.965 56.9702 108.822 57.9152C108.768 58.2868 108.686 58.66 108.648 59.0448C108.537 60.2465 108.464 61.5134 108.611 62.784C108.637 63.0299 108.658 63.2929 108.805 63.4978C109.146 63.9751 109.326 64.5379 109.426 65.1252C109.517 65.4712 109.673 65.7796 109.869 66.08C110.068 66.3633 110.344 66.6026 110.581 66.8499C110.698 66.9638 110.849 67.0503 110.933 67.1831C111.413 68.2031 112.473 68.7075 113.26 69.4054C113.902 69.9911 114.572 70.6117 115.327 71.1541C115.906 71.5664 116.517 71.9966 117.164 72.3261C117.204 72.3462 117.256 72.3234 117.305 72.3457C117.647 72.5474 117.689 73.0734 117.367 73.8323C117.052 74.4924 116.605 74.8229 116.175 74.68C115.69 74.5319 115.244 74.3112 114.809 74.0843L114.762 74.1912Z" fill="#F8AFB8"/>
<path d="M148.474 66.996C144.794 68.3164 140.256 64.16 138.357 60.6185C136.326 56.8121 136.121 51.4368 138.988 47.9044C139.621 47.1184 141.033 45.3831 143.144 45.1861C147.237 44.7942 151.313 50.3983 152.221 55.4475C152.914 59.3089 152.256 65.6386 148.474 66.996Z" fill="#F1D1D5"/>
<path d="M145.691 68.3718C144.872 68.0329 144.154 67.5924 143.601 67.0125C143.109 66.4853 142.717 65.9577 142.04 65.7396C141.863 65.6828 141.747 65.5323 141.615 65.4052L140.868 64.7639C140.756 64.6694 140.536 64.6658 140.472 64.529C140.162 63.8671 139.792 63.3269 139.157 62.9545C139.105 62.3249 138.616 62.0562 138.24 61.643C137.864 61.2297 137.67 60.7183 137.205 60.3272C137.075 60.2282 136.996 60.0783 136.981 59.9273C136.892 58.9935 136.552 58.2041 136.297 57.3364C136.02 56.4167 136.002 55.4195 136.326 54.4862C136.485 53.9958 136.513 53.4796 136.564 52.9788C136.633 52.3814 136.649 51.7702 136.791 51.174C136.986 50.3074 137.239 49.4656 137.494 48.5505C137.88 47.3125 138.413 46.2148 139.357 45.1627C139.837 44.639 140.545 44.2956 141.273 44.0495C142.75 43.5081 144.427 43.7645 145.693 44.3241C146.654 44.7472 147.526 45.2657 148.311 45.871C149.025 46.4299 149.764 46.9957 150.354 47.6773C152.12 49.6943 153.4 52.0498 154.128 54.7168C154.315 55.3551 154.481 56.006 154.593 56.6516C154.652 56.9799 154.657 57.3029 154.662 57.626C154.659 58.8381 154.525 60.0244 154.322 61.2288C154.028 62.942 153.55 64.7254 152.368 66.3935C151.694 67.3338 150.713 68.1462 149.605 68.8876C149.289 69.1062 149.117 68.9591 149.09 68.5108C149.032 67.7326 148.873 66.9548 149.001 66.41C149.068 65.987 149.111 65.7229 149.402 65.5986C149.846 65.4145 149.877 64.853 150.485 64.7125C150.573 64.6903 150.607 64.5983 150.622 64.5103C150.893 63.0852 151.45 61.8286 151.72 60.3755C151.791 59.9073 151.756 59.4201 151.744 58.9484L151.751 58.0313C151.75 57.5899 151.818 57.1303 151.724 56.6916C151.667 56.3548 151.487 56.0676 151.872 55.6929C151.958 55.6147 151.905 55.4351 151.787 55.3944C151.342 55.2383 151.323 54.9667 151.275 54.6968C151.111 53.9727 150.949 53.2401 150.655 52.5548C150.444 52.0388 150.137 51.5708 149.796 51.1301C149.239 50.4662 148.616 49.8765 147.996 49.3429C147.493 48.8866 147.01 48.4263 146.491 48.0666C146.365 47.987 146.204 47.9714 146.087 47.8941C145.874 47.7269 145.597 47.6985 145.481 47.4468C145.346 47.1625 145.158 47.0753 144.816 47.2871C144.627 47.4109 144.472 47.3696 144.349 47.2814C144.189 47.156 144.056 47.0374 143.893 46.856C143.707 46.6591 143.47 46.513 143.259 46.7872C143.162 46.9449 142.992 46.8903 142.826 46.8272C142.083 46.5822 141.329 47.097 140.846 47.7671C140.674 47.9968 140.509 48.2373 140.356 48.4996C140.181 48.7744 140.056 49.0349 139.944 49.2807C139.699 49.7847 139.548 50.3139 139.408 50.8369C139.37 51.0473 139.306 51.2508 139.251 51.4565L139.111 52.0807C138.889 53.3904 138.735 54.755 138.825 56.1668C138.833 56.4446 138.867 56.7294 138.995 56.9749C139.321 57.5402 139.447 58.1344 139.574 58.7566C139.721 59.5126 140.204 60.1107 140.761 60.6368C140.884 60.7616 141.061 60.855 141.138 61.0135C141.694 62.1274 142.822 62.788 143.675 63.5494C144.37 64.1769 145.042 64.8255 145.788 65.2644C146.36 65.6013 146.949 65.8695 147.586 65.9298C147.622 65.9304 147.662 65.8858 147.698 65.8865C148.04 65.9137 148.396 66.3676 148.434 67.1864C148.455 67.8994 148.126 68.473 147.534 68.4889C147.212 68.5223 146.905 68.5042 146.598 68.4495C146.284 68.4205 146.001 68.3447 145.712 68.258L145.691 68.3718Z" fill="#F8AFB8"/>
<path d="M148.213 68.7925C148.213 68.7925 146.882 76.6051 150.183 82.2221C155.075 90.5442 163.646 93.0891 167.154 90.1144C170.079 87.6359 168.438 80.488 165.142 75.7088C160.76 69.361 148.213 68.7925 148.213 68.7925Z" fill="#F1D1D5"/>
<path d="M149.241 71.8146C149.038 72.6056 148.941 73.4157 148.731 74.2325C148.555 74.9573 148.4 75.7061 148.757 76.3989C148.838 76.5769 148.837 76.7878 148.868 76.98C148.939 77.33 149 77.6862 149.119 78.0306C149.171 78.1822 149.356 78.3145 149.351 78.4694C149.31 79.2395 149.493 79.9962 150.039 80.5652C149.95 81.2397 150.46 81.6337 150.827 82.0813C151.236 82.5123 151.48 83.0741 152.033 83.3783C152.178 83.454 152.309 83.5811 152.361 83.7326C152.681 84.6639 153.402 85.2982 154.1 85.9171C154.873 86.5653 155.546 87.2785 156.184 88.1203C156.534 88.5633 156.998 88.8898 157.489 89.1499C158.058 89.4954 158.698 89.6762 159.304 89.9211C159.751 90.0686 160.212 90.2012 160.669 90.2778C161.136 90.3201 161.601 90.399 162.063 90.3206C163.291 90.1992 164.422 89.8866 165.201 89.3787C165.378 89.2331 165.62 89.1877 165.784 89.057C165.879 89.009 165.975 88.9611 166.079 88.9155C166.166 88.8653 166.221 88.7973 166.299 88.7448C166.914 88.303 167.344 87.1777 167.428 86.0057C167.476 85.1087 167.341 84.172 167.078 83.2654C166.836 82.4195 166.456 81.61 166.082 80.8114C165.538 79.618 164.887 78.4789 164.149 77.4265C163.957 77.1821 163.769 76.8926 163.578 76.6763L162.993 76.0506C162.822 75.8303 162.551 75.675 162.337 75.4798C162.11 75.2994 161.895 75.1042 161.622 74.9575L160.876 74.5186C160.618 74.3851 160.333 74.2813 160.075 74.1477L159.283 73.7426C158.314 73.2074 157.259 72.7224 156.163 72.3552C154.576 71.829 152.916 71.4759 151.239 71.1829C150.29 71.0205 149.318 70.8427 148.38 71.0142C148.11 71.0614 148.09 70.8629 148.183 70.4468C148.37 69.7157 148.583 68.955 149.111 68.5634C149.468 68.2916 149.812 68.108 150.212 68.2611C150.793 68.4905 151.476 68.2414 151.992 68.7841C152.064 68.8585 152.185 68.8541 152.288 68.8451C154.124 68.6477 155.841 69.3376 157.518 69.9708L159.202 70.5137C159.566 70.6297 159.914 70.8056 160.262 70.9816C160.511 71.1128 160.759 71.2526 160.998 71.3901C161.232 71.5448 161.468 71.6908 161.727 71.8244C162.109 72.0095 162.551 72.1095 162.601 72.711C162.614 72.834 162.806 72.9406 162.927 72.8996C163.408 72.7526 163.686 72.9834 163.935 73.2524C164.272 73.609 164.639 73.9188 164.938 74.3114C165.226 74.7102 165.539 75.088 165.821 75.4759C166.218 76.051 166.626 76.6199 167.054 77.1847C167.689 78.0717 168.369 78.9616 168.874 79.9605C169.303 80.7924 169.596 81.6886 169.884 82.6021C169.947 82.812 170.077 83.0123 170.13 83.2285C170.237 83.6157 170.368 84.055 170.288 84.4562C170.186 84.9067 170.152 85.2377 170.541 85.6361C170.746 85.8656 170.714 86.2612 170.668 86.5705C170.616 86.9701 170.396 87.3798 170.218 87.7363C170.102 87.9626 169.943 88.1774 169.866 88.3957C169.787 88.6226 169.742 88.8587 169.741 89.1709C169.762 89.5071 169.516 89.8733 169.222 90.116C167.997 91.258 166.752 91.9261 165.433 92.3905C163.636 92.9932 161.758 93.0047 160.006 92.6824C159.331 92.529 158.647 92.3366 158.015 92.0568C156.013 91.2631 154.299 89.9403 152.86 88.452C152.581 88.1566 152.315 87.8464 151.961 87.623C151.211 87.0635 150.603 86.3492 150.171 85.5259C149.886 85.0453 149.564 84.6007 149.251 84.1583C148.931 83.7051 148.546 83.3261 148.212 82.8232C148.052 82.5966 147.849 82.3951 147.752 82.1394C147.14 80.3765 146.315 78.7219 146.098 76.9269C145.932 75.4859 146.051 74.0475 146.221 72.6594C146.362 71.5853 146.599 70.5278 146.877 69.4904C146.896 69.4218 146.871 69.3417 146.89 69.2731C147.078 68.6713 147.64 68.5645 148.387 68.9667C149.049 69.3094 149.421 69.7033 149.363 70.1932L149.146 71.8259L149.241 71.8146Z" fill="#F8AFB8"/>
<path d="M173.569 57.9812C177.551 57.5228 180.699 49.9582 179.659 43.7894C178.821 38.8232 174.947 32.878 170.897 33.2814C167.025 33.6684 164.439 39.7202 164.342 44.3348C164.193 51.1317 169.377 58.4662 173.569 57.9812Z" fill="#F1D1D5"/>
<path d="M175.131 55.8159C175.725 55.5525 176.233 55.0637 176.839 54.6196C177.363 54.2085 177.885 53.7329 177.923 53.0079C177.944 52.8296 178.058 52.6765 178.121 52.5096C178.232 52.1993 178.366 51.9044 178.434 51.5826C178.465 51.4345 178.369 51.2434 178.455 51.1286C178.679 50.8396 178.835 50.5322 178.925 50.1978C179.023 49.8657 179.05 49.5238 178.964 49.1606C179.402 48.69 179.214 48.1249 179.156 47.5857C179.098 47.0464 179.178 46.5074 178.911 45.9948C178.836 45.8643 178.804 45.7087 178.843 45.563C179.101 44.7039 178.857 43.8666 178.612 43.0658C178.31 42.2038 178.131 41.3288 178.052 40.3522C178.007 39.8347 177.787 39.353 177.538 38.9096C177.25 38.3729 176.851 37.9076 176.493 37.4257C175.973 36.7259 175.324 36.1293 174.578 35.727C173.568 35.2084 172.546 34.907 171.762 34.9541C171.658 34.9631 171.57 34.9487 171.473 34.932C171.378 34.9433 171.297 34.9398 171.2 34.9231C171.011 34.8726 170.834 34.9169 170.634 34.9093C169.877 34.9913 168.951 35.4967 168.232 36.2963C167.692 36.9052 167.272 37.6474 166.966 38.4475C166.682 39.1984 166.527 39.9839 166.38 40.7716C166.145 41.9217 166.031 43.104 166.07 44.2264C166.137 45.3471 166.317 46.4611 166.669 47.5479C166.852 48.0655 167.065 48.5729 167.311 49.0615C167.429 49.3047 167.515 49.5666 167.604 49.82C167.969 50.7541 168.358 51.7037 168.906 52.5397C169.667 53.7454 170.67 54.8043 171.678 55.4327C172.227 55.8188 172.83 56.0356 173.185 55.7724C173.275 55.7137 173.338 55.9236 173.337 56.337C173.317 57.0665 173.256 57.8406 172.726 58.2774C172.379 58.5062 171.965 58.6801 171.588 58.4412C171.327 58.2516 171.013 58.1861 170.736 58.0566C170.471 57.9122 170.207 57.7312 170.086 57.3954C170.055 57.3044 169.953 57.2403 169.858 57.215C168.168 56.5966 167.202 55.0237 166.388 53.6019L165.501 52.2155C165.316 51.9088 165.184 51.5793 165.043 51.2475C164.829 50.7767 164.75 50.25 164.534 49.7878C164.372 49.4319 164.149 49.0966 164.471 48.6499C164.542 48.5585 164.463 48.372 164.345 48.3313C163.885 48.162 163.874 47.8281 163.821 47.5107C163.733 47.0829 163.715 46.637 163.683 46.2058C163.635 45.7701 163.642 45.331 163.63 44.8958C163.6 44.2537 163.566 43.5921 163.549 42.9352C163.51 41.914 163.476 40.8756 163.642 39.8449C163.764 38.9771 164.06 38.1467 164.35 37.3054C164.42 37.1128 164.434 36.887 164.522 36.699C164.661 36.3504 164.805 35.948 165.1 35.7054C165.438 35.4376 165.655 35.2109 165.585 34.6865C165.553 34.3932 165.809 34.1219 166.019 33.9209C166.282 33.6605 166.685 33.4929 167.03 33.3372C167.49 33.1662 167.882 33.0415 168.176 32.5598C168.346 32.3022 168.706 32.1596 169.057 32.1526C170.504 31.9983 171.861 31.9759 173.16 32.3056C174.916 32.7486 176.349 33.748 177.527 34.8723C178.006 35.3132 178.374 35.8253 178.753 36.3312C179.887 37.9307 180.614 39.7429 181.026 41.6359C181.099 42.0139 181.175 42.3834 181.326 42.7455C181.511 43.1534 181.626 43.5794 181.672 44.0238C181.73 44.4618 181.739 44.9055 181.687 45.3417C181.646 45.8728 181.656 46.3811 181.665 46.898C181.693 47.4109 181.719 47.9324 181.744 48.4539C181.762 48.6974 181.814 48.9502 181.741 49.188C181.285 50.7844 181.196 52.4881 180.44 54.0407C179.84 55.2858 178.923 56.4094 177.826 57.3835C176.965 58.1269 175.917 58.7466 174.69 59.0059C174.604 59.0195 174.534 59.0743 174.45 59.0793C173.691 59.1333 173.503 58.6328 173.649 57.7805C173.763 57.0116 173.847 56.6297 174.145 56.4797L174.409 56.3851L174.67 56.2345C174.848 56.1535 175.032 56.0468 175.201 55.8989L175.131 55.8159Z" fill="#F8AFB8"/>
<path d="M173.459 59.9067C173.453 56.5693 180.482 53.7572 185.862 53.1953C191.722 52.5877 199.535 54.2586 200.323 57.9708C200.744 59.9674 198.987 61.8949 198.116 62.847C193.826 67.5418 186.073 67.5319 180.733 65.6141C179.52 65.1696 173.465 63.0051 173.459 59.9067Z" fill="#F1D1D5"/>
<path d="M173.826 56.5495C174.624 56.0376 175.408 55.6503 176.243 55.4512C176.988 55.2743 177.703 55.1808 178.265 54.6606C178.411 54.5252 178.627 54.5095 178.805 54.4285L179.793 54.0317C179.939 53.9696 180.056 53.7713 180.213 53.7675C180.993 53.7742 181.701 53.6332 182.359 53.2029C182.995 53.4009 183.488 53.0368 184.046 52.8373C184.599 52.627 185.198 52.622 185.746 52.291C185.896 52.2117 186.073 52.1673 186.23 52.2001C187.197 52.3951 188.127 52.2859 189.088 52.231C190.112 52.1836 191.132 52.3558 192.084 52.8132C192.591 53.0499 193.136 53.1409 193.666 53.2553C194.301 53.3887 194.957 53.445 195.586 53.6321C196.515 53.8717 197.421 54.1603 198.417 54.4548C199.076 54.6683 199.752 54.9596 200.378 55.4675C200.538 55.5929 200.695 55.7269 200.843 55.8586C200.983 56.0245 201.122 56.1905 201.259 56.3651C201.557 56.693 201.717 57.1587 201.904 57.5946C202.217 58.5515 201.969 59.5786 201.644 60.3461C200.95 61.9062 199.853 62.8803 198.91 63.7946C198.129 64.5135 197.344 65.2496 196.453 65.8288C195.647 66.4031 194.799 66.9292 193.89 67.3381C191.162 68.4635 188.221 68.8424 185.33 68.6926C184.628 68.67 183.929 68.6389 183.233 68.5626C182.887 68.5159 182.537 68.4497 182.205 68.3515C181.573 68.173 180.956 67.971 180.34 67.7324C179.73 67.5047 179.179 67.265 178.585 67.0139C176.918 66.2732 175.244 65.5216 173.653 64.1211C173.43 63.9236 173.211 63.6809 172.992 63.4662C172.775 63.215 172.562 62.9466 172.358 62.6805C171.959 62.0774 171.535 61.3941 171.326 60.4928C171.197 59.9803 171.402 59.8331 171.834 60.004C172.618 60.2691 173.348 60.3912 173.91 60.6246C174.269 60.7942 174.584 60.8512 174.654 61.1732C174.829 61.652 175.417 61.791 175.537 62.439C175.557 62.5362 175.653 62.5895 175.737 62.621C177.28 63.1358 178.572 64.0424 180.077 64.7029C180.562 64.9156 181.094 65.0214 181.6 65.157L182.573 65.436C183.037 65.5881 183.519 65.7447 184.005 65.8196C184.381 65.8561 184.752 65.7719 185.026 66.2588C185.081 66.3652 185.283 66.3643 185.364 66.2667C185.676 65.8908 185.968 65.9689 186.279 66.0065L187.515 66.1263C187.926 66.1354 188.344 66.1553 188.756 66.1278C189.363 66.0885 189.975 65.9675 190.551 65.7726C191.007 65.6468 191.426 65.4192 191.852 65.239C192.262 65.0091 192.67 64.8243 193.055 64.5875C193.705 64.2195 194.361 63.8989 194.922 63.4519C195.051 63.3486 195.139 63.1886 195.274 63.0961C195.514 62.9214 195.683 62.6358 195.991 62.5807C196.345 62.5285 196.525 62.3377 196.487 61.8957C196.455 61.639 196.636 61.5128 196.83 61.3352C197.064 61.1497 197.341 61.0403 197.615 60.9114C197.938 60.7682 198.264 60.6165 198.208 60.2065C198.175 59.9864 198.361 59.8431 198.52 59.7295C199.267 59.2038 199.324 58.3737 198.923 57.8803C198.354 57.1581 197.241 56.6484 196.019 56.3394C195.539 56.2107 195.066 56.0563 194.566 55.9317C193.02 55.5633 191.396 55.2109 189.746 54.9894C189.42 54.9387 189.093 54.888 188.769 54.9665C188.025 55.1348 187.298 55.1053 186.561 55.0456C185.666 54.953 184.807 55.2465 183.974 55.5748C183.779 55.6512 183.596 55.7859 183.392 55.7954C181.953 55.9154 180.698 56.691 179.416 57.156C178.376 57.539 177.315 57.8613 176.416 58.3371C175.738 58.7068 175.115 59.1097 174.802 59.5587C174.784 59.5907 174.781 59.6359 174.775 59.6616C174.717 59.7747 174.53 59.8534 174.277 59.9051C174.027 59.9483 173.691 59.9685 173.31 59.8114C172.97 59.6743 172.709 59.4481 172.565 59.1615C172.43 58.8772 172.459 58.5633 172.594 58.2319C172.765 57.901 172.987 57.6205 173.199 57.3464C173.435 57.1156 173.668 56.8655 173.906 56.6628L173.826 56.5495Z" fill="#F8AFB8"/>
<path d="M164.72 65.2558C163.266 65.9504 161.801 66.6148 160.282 67.1727C158.779 67.7438 157.233 68.2303 155.66 68.544C152.841 69.1209 150.075 69.1885 147.187 69.2691C146.437 69.2888 145.645 69.1592 144.89 69.0948C143.508 68.9725 142.14 68.8634 140.785 68.9138C140.162 68.9399 139.526 69.1187 138.953 69.1306C137.545 69.1392 136.102 69.313 134.681 69.5389C133.267 69.7756 131.858 70.0964 130.496 70.5493C128.234 70.7244 126.16 71.5744 124.106 72.4485C122.061 73.3248 119.965 74.252 118.278 75.6468C117.851 76.038 117.29 76.3838 116.83 76.7291C113.887 78.6238 111.593 81.6297 110.976 85.0298C110.301 88.6808 110.833 92.6278 110.864 96.5598C110.908 98.6576 111.095 100.84 111.236 102.991C111.378 105.547 111.546 108.11 111.537 110.68C111.513 114.405 111.388 118.093 111.24 121.802C111.051 126.76 110.51 131.761 109.469 136.711C108.942 139.225 108.117 141.724 107.171 144.154C105.315 149.023 102.853 153.721 99.4729 157.795C98.2303 159.346 96.7987 160.745 95.2888 162.059C94.499 162.675 93.7344 163.334 92.8687 163.855C92.4269 164.132 92.0756 164.414 91.5629 164.681C91.0652 164.962 90.5624 165.158 90.0641 165.337C88.2212 165.973 86.4283 166.32 84.64 166.649C82.854 166.97 81.0709 167.246 79.297 167.487C68.7921 168.9 58.1668 170.041 47.5542 170.689L39.9468 171.233C38.7008 171.322 37.4463 171.408 36.2003 171.497C33.9022 171.671 31.6463 171.894 29.4936 172.383C27.337 172.853 25.2469 173.588 23.2012 174.501C17.354 177.153 12.3363 181.441 8.20385 186.472C5.84993 189.324 3.7353 192.415 2.11149 195.766C1.65011 196.699 1.31079 196.902 1.12619 196.356C0.819145 195.41 0.405083 194.555 0.956723 192.736C1.37327 191.525 1.76285 190.379 2.75859 189.167C4.13868 187.377 5.34533 185.274 7.12177 183.857C7.37702 183.659 7.66501 183.304 7.88949 183.015C11.9279 177.683 17.695 173.651 23.9729 171.244C26.0293 170.462 28.1366 169.731 30.3052 169.32C31.7115 169.044 33.1228 168.853 34.5375 168.717C36.5904 168.532 38.6454 168.476 40.6844 168.343C42.2191 168.239 43.7082 168.032 45.1143 168.409C45.4058 168.487 46.2121 168.427 46.4918 168.309C47.561 167.851 48.8315 167.842 50.0986 167.778C53.5202 167.629 56.9441 167.471 60.3635 167.192C62.8904 166.987 65.4122 166.698 67.9135 166.348C71.7981 165.809 75.6674 165.155 79.5401 164.557C81.1613 164.302 82.7694 164.062 84.3695 163.783C85.9611 163.502 87.5447 163.182 88.9392 162.71C89.247 162.591 89.557 162.462 89.8179 162.312C90.1068 162.159 90.2854 162.042 90.6012 161.823C91.1328 161.451 91.6964 161.097 92.2178 160.694C92.7243 160.279 93.2559 159.906 93.772 159.558C94.3214 159.154 94.8165 158.781 95.235 158.351C95.6323 157.897 95.9742 157.409 96.2768 156.829C96.5789 156.147 97.3272 155.309 97.8821 154.576C98.2389 154.102 98.6339 153.656 98.9993 153.184C99.3732 152.715 99.7386 152.243 100.102 151.78C100.523 151.203 100.922 150.639 101.294 150.041C101.65 149.429 101.931 148.759 102.148 148.018C102.358 147.201 102.902 146.199 103.338 145.36C105.295 141.657 106.441 137.517 107.214 133.331C108.259 127.647 108.75 121.87 108.924 116.109C108.988 113.848 109.063 111.58 109.043 109.323C108.99 105.817 108.816 102.315 108.518 98.7983L108.067 93.4489C107.936 91.6403 107.815 89.7974 107.92 87.8592C108.013 86.3493 108.207 84.7658 108.627 83.2334C109.074 81.4603 109.938 79.7804 111.008 78.358C112.123 76.9751 113.365 75.6998 114.788 74.7118C116.471 73.472 118.224 72.4163 120.029 71.5122C121.833 70.6081 123.677 69.7973 125.552 69.142C126.425 68.8337 127.307 68.4912 128.189 68.2864C131.316 67.5897 134.338 67.0119 137.463 66.4981C139.081 66.2519 140.767 66.1339 142.407 66.1873C144.057 66.2345 145.607 66.4198 147.037 66.5365C148.198 66.6271 149.31 66.6587 150.44 66.5937C151.552 66.5242 152.723 66.4061 153.814 66.1747C156.032 65.7491 158.285 64.9559 160.475 64.0174C163.863 62.5543 167.166 60.7561 170.343 58.7404C170.555 58.604 170.738 58.4327 170.949 58.2963C172.745 57.1509 173.598 57.1222 173.269 58.3848C172.962 59.4971 172.024 60.6978 170.361 61.7959C168.521 63.003 166.619 64.1014 164.662 65.1299L164.72 65.2558Z" fill="#F8AFB8"/>
<path d="M37.8196 150.19C37.6478 150.42 37.5297 150.654 37.2847 150.883C37.0723 151.092 36.8514 151.3 37.1108 151.498C37.181 151.544 37.1261 151.612 37.1294 151.668C37.1385 151.772 37.1389 151.873 37.1673 151.973C37.1816 152.022 37.3297 152.053 37.2879 152.106C37.0538 152.328 36.9963 152.542 37.2837 152.739C36.9575 152.927 37.2135 153.069 37.3357 153.231C37.4516 153.381 37.3948 153.559 37.6702 153.697C37.7428 153.735 37.7764 153.781 37.7283 153.823C37.4758 154.114 37.6008 154.368 37.7062 154.626C37.8157 154.903 37.7656 155.193 37.4867 155.513C37.3396 155.685 37.3714 155.841 37.3947 155.994C37.4196 156.175 37.5481 156.348 37.601 156.527C37.6785 156.787 37.8142 157.035 38.1033 157.259C38.4837 157.554 38.7887 157.856 39.0376 158.162C39.1598 158.323 39.0898 158.516 39.0844 158.707C39.0565 159.086 38.9703 159.476 38.9899 159.849C38.9981 160.127 39.1036 160.385 39.2176 160.645C39.3191 160.884 39.5287 161.096 39.6519 161.322C40.0193 162.009 40.3719 162.682 40.7633 163.347C40.8574 163.511 41.0036 163.651 41.1024 163.797C41.1549 163.875 41.1879 163.957 41.2016 164.044C41.2715 164.366 41.3174 164.709 41.4154 165.029C41.5498 165.488 41.7448 165.926 41.8986 166.381C41.9846 166.643 42.0318 166.913 42.3586 167.065C42.4483 167.107 42.2744 167.207 41.8694 167.347C41.1699 167.592 40.4463 167.857 39.9848 167.899C39.6743 167.926 39.433 167.935 39.4829 167.783C39.5684 167.567 39.1813 167.537 39.5334 167.217C39.5814 167.175 39.5518 167.149 39.5198 167.131C38.8677 166.855 38.9438 166.297 38.8249 165.815C38.7845 165.657 38.6617 165.532 38.5824 165.382C38.5345 165.286 38.4952 165.193 38.469 165.085C38.4349 164.938 38.4528 164.768 38.3689 164.636C38.3038 164.535 38.137 164.472 38.5221 164.236C38.6005 164.183 38.5668 164.137 38.4547 164.144C38.047 164.191 38.0574 164.083 38.0438 163.997C37.992 163.744 37.9815 163.475 37.908 163.235C37.8465 163.053 37.7329 162.894 37.5913 162.736C37.3629 162.491 37.063 162.273 36.8454 162.022C36.6724 161.81 36.5795 161.574 36.4454 161.354C36.414 161.3 36.3135 161.264 36.2907 161.212C36.2428 161.116 36.1279 161.03 36.2379 160.894C36.3587 160.752 36.3754 160.655 36.0032 160.638C35.7945 160.628 35.7917 160.536 35.8147 160.45C35.8337 160.345 35.95 160.22 36.0639 160.103C36.1956 159.955 36.342 159.82 36.0545 159.761C35.8979 159.728 35.9644 159.617 36.0434 159.528C36.3927 159.116 36.2987 158.815 36.1206 158.52C35.8713 158.113 35.5722 157.72 35.3251 157.305C35.2309 157.142 35.1951 156.967 35.1375 156.804C34.9678 156.272 34.9965 155.719 35.0555 155.156C35.0659 155.048 35.0872 154.935 35.0027 154.838C34.7954 154.618 34.8169 154.366 34.9115 154.116C35.0308 153.808 34.8567 153.531 34.6741 153.253C34.6279 153.185 34.5428 153.125 34.5611 153.057C34.7287 152.569 34.3421 152.125 34.3953 151.652C34.4426 151.27 34.6386 150.881 34.8066 150.495C34.9407 150.2 35.1201 149.908 35.2799 149.62C35.2931 149.605 35.2526 149.585 35.268 149.561C35.3849 149.4 35.9046 149.346 36.7044 149.413C37.4139 149.475 37.8278 149.576 37.8167 149.721C37.8034 149.873 37.7426 150.032 37.7012 150.186L37.8196 150.19Z" fill="#F8AFB8"/>
<path d="M88.3249 126.664C88.4503 127.019 88.6237 127.332 88.6901 127.736C88.7508 128.092 88.8007 128.454 89.1901 128.476C89.289 128.484 89.3089 128.581 89.3683 128.634C89.4808 128.728 89.5801 128.838 89.6973 128.915C89.7504 128.957 89.9043 128.897 89.9116 128.973C89.9546 129.361 90.1161 129.615 90.5226 129.642C90.4512 130.045 90.7829 130.042 91.0246 130.135C91.2641 130.235 91.381 130.451 91.7321 130.444C91.8247 130.441 91.8972 130.479 91.9046 130.554C91.9612 131.029 92.3 131.239 92.6125 131.479C92.9484 131.734 93.1617 132.104 93.1897 132.617C93.2088 132.888 93.3567 133.057 93.5046 133.225C93.6799 133.428 93.9273 133.568 94.1158 133.756C94.391 134.032 94.7144 134.266 95.1339 134.415C95.7031 134.623 96.2328 134.875 96.6904 135.191C96.9246 135.345 97.0038 135.633 97.1224 135.876C97.3574 136.371 97.5357 136.906 97.7815 137.394C97.9715 137.748 98.2244 138.074 98.4928 138.375C98.7463 138.664 99.0674 138.906 99.3232 139.186C100.077 140.04 100.786 140.929 101.49 141.834C101.661 142.054 101.866 142.247 102.048 142.461C102.138 142.568 102.199 142.685 102.257 142.811C102.465 143.271 102.637 143.759 102.847 144.21C103.148 144.87 103.493 145.504 103.764 146.174C103.919 146.556 104.043 146.947 104.42 147.223C104.529 147.298 104.359 147.418 103.956 147.549C103.25 147.782 102.52 148.037 102.04 148.046C101.717 148.051 101.454 148.036 101.496 147.845C101.542 147.573 101.13 147.499 101.438 147.104C101.48 147.051 101.444 147.013 101.403 146.993C100.654 146.6 100.599 145.877 100.345 145.249C100.262 145.043 100.084 144.885 99.9604 144.695C99.8828 144.574 99.8052 144.452 99.7493 144.317C99.662 144.128 99.6291 143.908 99.4984 143.745C99.3951 143.616 99.2002 143.554 99.5116 143.215C99.5774 143.141 99.5203 143.08 99.4122 143.106C99.0079 143.209 98.98 143.073 98.9281 142.958C98.7741 142.641 98.6636 142.299 98.477 142.001C98.3429 141.781 98.1545 141.593 97.9334 141.423C97.5889 141.165 97.1878 140.948 96.8519 140.692C96.5692 140.479 96.3757 140.206 96.1255 139.974C96.0661 139.921 95.9523 139.9 95.9015 139.849C95.8107 139.742 95.6439 139.679 95.6858 139.488C95.7324 139.28 95.6891 139.168 95.3236 139.263C95.116 139.317 95.0641 139.202 95.0356 139.103C94.9969 138.973 95.0451 138.793 95.0848 138.611C95.1337 138.394 95.1911 138.18 94.8783 138.215C94.7079 138.234 94.7104 138.088 94.73 137.946C94.8285 137.338 94.5304 137.01 94.1711 136.739C93.6821 136.369 93.1342 136.048 92.6297 135.701C92.4275 135.565 92.2796 135.396 92.11 135.241C91.5908 134.743 91.2004 134.142 90.8147 133.524C90.7371 133.402 90.6703 133.274 90.5183 133.224C90.1628 133.111 89.9842 132.851 89.8582 132.533C89.7031 132.151 89.3271 131.977 88.9488 131.811C88.8591 131.769 88.7385 131.773 88.6968 131.689C88.4116 131.107 87.7211 130.94 87.3352 130.46C87.0166 130.071 86.7988 129.581 86.5546 129.121C86.3669 128.758 86.1971 128.363 86.0117 127.992C85.9991 127.97 85.9602 127.978 85.95 127.948C85.8548 127.72 86.1486 127.275 86.7542 126.73C87.2854 126.256 87.6744 126.039 87.8183 126.188C87.9771 126.35 88.1072 126.55 88.2528 126.727L88.3249 126.664Z" fill="#F8AFB8"/>
<path d="M130.503 117.232C130.323 117.01 130.141 116.832 129.972 116.539C129.83 116.28 129.681 116.011 129.426 116.209C129.356 116.263 129.321 116.19 129.259 116.182C129.162 116.165 129.059 116.138 128.956 116.147C128.908 116.153 128.835 116.289 128.806 116.226C128.651 115.946 128.451 115.837 128.195 116.072C128.089 115.712 127.894 115.927 127.707 116.005C127.529 116.086 127.372 115.989 127.18 116.223C127.128 116.282 127.076 116.305 127.044 116.25C126.826 115.934 126.551 115.999 126.273 116.044C125.986 116.086 125.714 115.967 125.466 115.625C125.331 115.442 125.168 115.435 125.013 115.43C124.823 115.416 124.635 115.504 124.447 115.518C124.175 115.537 123.905 115.621 123.632 115.851C123.265 116.157 122.908 116.392 122.556 116.573C122.376 116.663 122.195 116.55 122.023 116.504C121.665 116.399 121.307 116.229 120.935 116.176C120.662 116.13 120.392 116.177 120.12 116.233C119.865 116.293 119.63 116.451 119.381 116.522C118.65 116.749 117.929 116.969 117.214 117.237C117.041 117.301 116.881 117.414 116.714 117.489C116.63 117.531 116.543 117.544 116.451 117.547C116.125 117.561 115.79 117.545 115.466 117.586C115 117.645 114.546 117.763 114.078 117.83C113.819 117.871 113.541 117.879 113.342 118.175C113.282 118.26 113.215 118.067 113.133 117.651C112.997 116.925 112.85 116.169 112.882 115.709C112.9 115.401 112.93 115.152 113.073 115.236C113.271 115.353 113.372 114.976 113.624 115.374C113.664 115.431 113.69 115.401 113.708 115.369C114.08 114.771 114.632 114.937 115.128 114.904C115.288 114.892 115.436 114.785 115.596 114.736C115.696 114.707 115.804 114.681 115.905 114.681C116.053 114.675 116.216 114.718 116.368 114.667C116.481 114.624 116.569 114.464 116.73 114.893C116.761 114.984 116.815 114.952 116.826 114.845C116.854 114.43 116.955 114.466 117.047 114.463C117.306 114.459 117.57 114.502 117.827 114.47C118.017 114.447 118.194 114.366 118.382 114.251C118.66 114.068 118.938 113.821 119.229 113.66C119.474 113.533 119.725 113.49 119.97 113.399C120.03 113.379 120.081 113.291 120.14 113.279C120.248 113.253 120.357 113.154 120.458 113.291C120.574 113.442 120.666 113.475 120.754 113.113C120.809 112.907 120.903 112.933 120.978 112.962C121.077 113.006 121.178 113.144 121.272 113.27C121.386 113.429 121.497 113.597 121.614 113.334C121.681 113.187 121.768 113.274 121.841 113.377C122.168 113.804 122.489 113.771 122.823 113.658C123.269 113.502 123.729 113.294 124.192 113.143C124.374 113.081 124.548 113.082 124.727 113.066C125.284 113.013 125.828 113.177 126.359 113.356C126.459 113.392 126.566 113.439 126.683 113.379C126.955 113.222 127.191 113.303 127.414 113.464C127.684 113.656 127.998 113.547 128.312 113.438C128.384 113.411 128.467 113.342 128.531 113.377C128.961 113.658 129.493 113.387 129.951 113.565C130.319 113.7 130.643 113.999 130.971 114.252C131.219 114.456 131.465 114.706 131.698 114.933C131.712 114.947 131.739 114.917 131.76 114.941C131.893 115.096 131.8 115.613 131.525 116.367C131.281 117.036 131.073 117.403 130.946 117.36C130.805 117.304 130.665 117.211 130.53 117.129L130.503 117.232Z" fill="#F8AFB8"/>
<path d="M75.0876 167.454C74.6989 163.554 73.8255 158.514 71.8465 152.903C69.9188 147.442 67.5272 143.061 65.435 139.827C62.6553 140.598 60.1746 142.414 59.5067 144.873C55.6664 159.034 75.079 167.451 75.0876 167.454Z" fill="#F8AFB8"/>
<path d="M73.4593 164.72C73.514 163.898 73.5127 163.08 73.6064 162.251C73.6942 161.511 73.7734 160.77 73.3711 160.111C73.2706 159.937 73.2806 159.728 73.2299 159.54C73.1474 159.196 73.0673 158.844 72.9568 158.502C72.9055 158.35 72.7204 158.218 72.7274 158.055C72.7793 157.278 72.6389 156.533 72.1651 155.901C72.3226 155.244 71.9172 154.768 71.6331 154.251C71.349 153.734 71.2233 153.14 70.783 152.691C70.6688 152.568 70.5809 152.416 70.5771 152.259C70.5074 151.285 70.0716 150.442 69.6357 149.599C69.1685 148.702 68.8358 147.749 68.6769 146.696C68.5958 146.141 68.3352 145.639 68.0722 145.146C67.7698 144.56 67.3697 144.03 67.0238 143.468C66.7745 143.062 66.5034 142.667 66.2191 142.288C66.0758 142.103 65.9177 141.904 65.7675 141.744C65.651 141.63 65.5299 141.534 65.4128 141.456C65.2402 141.346 65.0865 141.268 64.9625 141.216C64.7096 141.406 64.5196 141.566 64.377 141.721L64.2848 141.825C64.2367 141.867 64.2928 141.864 64.1818 141.935L63.7147 142.306C63.2889 142.661 62.7878 142.885 62.3626 143.203C61.9374 143.521 61.5568 143.878 61.2464 144.282C60.9314 144.703 60.7291 145.081 60.5763 145.72L60.3994 146.38L60.3105 147.054C60.2448 147.506 60.2609 147.96 60.2683 148.412C60.2655 148.834 60.3748 149.25 60.4303 149.66L60.7393 150.873C61.3906 153.243 62.7586 155.374 64.474 157.203C64.8885 157.645 65.3643 158.03 65.8161 158.436C66.0474 158.636 66.2679 158.842 66.4729 159.071C67.2667 159.881 68.0993 160.683 69.0024 161.394C70.2985 162.421 71.7194 163.326 73.1541 164.179C73.962 164.662 74.7933 165.16 75.7119 165.333C75.8257 165.354 75.9256 165.427 75.8598 165.501L75.842 165.533C75.7296 165.815 75.6063 166.104 75.4785 166.41C75.1504 167.222 75.0134 167.562 75.0719 167.413C75.2674 166.923 75.4962 166.378 75.7365 165.79C75.7164 165.83 75.6941 165.879 75.6717 165.928C75.2565 166.552 74.7852 167.18 74.1554 167.369C73.727 167.493 73.3513 167.558 73.0332 167.271C72.5837 166.856 71.869 166.848 71.5919 166.168C71.5526 166.074 71.4372 166.025 71.3406 166.008C69.5892 165.548 68.251 164.335 66.9265 163.208C66.4912 162.844 65.9948 162.536 65.5486 162.178C65.251 161.951 64.982 161.686 64.7108 161.429C64.3253 161.05 63.9925 160.612 63.5852 160.246C63.2928 159.965 62.9043 159.769 62.9936 159.196C63.0171 159.073 62.8624 158.931 62.7309 158.941C62.2328 158.983 62.0439 158.693 61.855 158.404C61.3122 157.652 60.8477 156.847 60.3895 156.054L59.864 155.168C59.6751 154.879 59.4971 154.583 59.3213 154.279C58.7404 153.36 58.2275 152.359 57.8537 151.285C57.5827 150.376 57.4523 149.422 57.3866 148.467C57.3731 148.243 57.295 148.02 57.2987 147.8C57.2798 147.391 57.242 146.949 57.4397 146.589C57.6489 146.185 57.7122 145.88 57.4657 145.428C57.3151 145.168 57.4155 144.827 57.5171 144.551C57.637 144.206 57.9394 143.763 58.2245 143.454C58.58 143.053 58.9377 142.781 59.0122 142.195C59.0583 141.885 59.3662 141.628 59.6488 141.465C60.8664 140.762 61.8472 140.051 62.935 139.386C63.8613 138.844 64.9121 138.455 66.0281 138.028C66.4582 137.932 66.8991 137.83 67.3555 137.704C67.6908 137.481 67.5639 137.989 67.583 138.261L67.5733 139.223L67.5606 139.716L67.5586 139.964L67.6385 140.077L67.9479 140.5L68.3419 141.019C68.7146 141.514 69.033 142.04 69.3514 142.567C70.3552 144.205 71.1113 145.979 71.7678 147.781C71.9017 148.139 72.0162 148.5 72.2285 148.805C72.7354 149.52 73.0037 150.336 73.1811 151.183C73.3943 152.205 73.8786 153.107 74.3366 154.038C74.445 154.251 74.6008 154.458 74.64 154.689C74.9205 156.317 75.6963 157.812 75.9854 159.442C76.2217 160.755 76.2549 162.106 76.2951 163.431C76.323 164.458 76.2755 165.493 76.224 166.508C76.225 166.573 76.2626 166.638 76.2528 166.709C76.1978 167.292 75.6944 167.524 74.8707 167.34C74.1413 167.182 73.6946 166.86 73.6449 166.359C73.5981 165.814 73.5816 165.258 73.5457 164.706L73.4593 164.72Z" fill="#F8AFB8"/>
<path d="M98.588 183.602C95.898 180.575 91.8951 176.754 86.3411 173.373C82.6582 171.137 79.1677 169.623 76.2353 168.598C73.3924 172.486 78.031 183.056 85.8433 185.691C90.1166 187.13 96.0362 186.438 98.588 183.602Z" fill="#F8AFB8"/>
<path d="M95.8178 182.511C95.4327 181.856 94.98 181.248 94.6126 180.561C94.2806 179.948 93.9485 179.336 93.281 179.083C93.1056 179.018 93.0028 178.853 92.8606 178.732C92.6059 178.516 92.3597 178.303 92.0809 178.109C91.9575 178.021 91.742 178.037 91.6643 177.915C91.2809 177.288 90.7742 176.813 90.0626 176.622C89.8358 176.028 89.2584 175.92 88.7584 175.694C88.2561 175.476 87.8403 175.108 87.2538 175.033C87.1034 175.011 86.9451 174.95 86.8567 174.835C86.272 174.136 85.4817 173.759 84.6868 173.399C83.8365 173.006 83.0658 172.487 82.3714 171.786C82.0031 171.412 81.5287 171.193 81.063 170.976C80.5076 170.717 79.916 170.558 79.3468 170.351C78.9553 170.2 78.4649 170.041 78.1345 169.971C77.787 169.896 77.516 169.879 77.2826 169.926C77.1746 169.952 77.075 169.981 76.995 170.005C76.8835 169.976 76.894 170.245 76.8681 170.376C76.8634 170.531 76.8632 170.669 76.8739 170.8C76.8999 171.046 76.9592 171.236 77.0236 171.373C77.0579 171.382 77.061 171.714 77.0441 171.948C77.0398 172.204 77.0184 172.456 77.0312 172.717C77.0717 173.766 77.2378 174.895 77.6116 175.969C77.9017 176.773 78.3325 177.531 78.8245 178.233C79.2914 178.891 79.8762 179.452 80.4221 180.021C82.0387 181.704 83.9886 183.035 86.0411 183.64C86.536 183.782 87.0408 183.853 87.5588 183.909C87.8143 183.95 88.0698 183.991 88.323 184.04C89.2736 184.231 90.2598 184.357 91.253 184.32C92.6704 184.277 94.0602 183.96 95.2592 183.464C95.9228 183.182 96.5705 182.823 96.8084 182.243C96.8778 182.087 97.0635 182.183 97.3335 182.512C97.7845 183.093 98.2692 183.719 98.2152 184.366C98.161 184.774 98.0593 185.188 97.6418 185.306C97.079 185.486 96.6729 186.075 95.9721 185.878C95.8778 185.853 95.78 185.91 95.6993 185.971C94.3012 187.039 92.5116 187.065 90.8821 187.042C90.3418 187.035 89.8003 187.101 89.2537 187.083C88.9009 187.062 88.5505 187.033 88.1983 186.975C87.6896 186.885 87.1992 186.726 86.6927 186.627C86.3125 186.571 85.8992 186.57 85.7031 186.067C85.6683 185.957 85.4712 185.904 85.3687 185.978C84.9699 186.266 84.6733 186.104 84.3916 185.955C83.6036 185.569 82.8798 185.081 82.1754 184.589C81.6452 184.236 81.1042 183.889 80.5632 183.542C79.7153 183.002 78.8572 182.432 78.1067 181.735C77.4836 181.145 76.959 180.462 76.4344 179.78C76.3122 179.618 76.1443 179.49 76.0307 179.331C75.8269 179.029 75.5586 178.727 75.5196 178.358C75.4943 177.938 75.3826 177.669 74.9162 177.489C74.6511 177.381 74.5376 177.084 74.4796 176.821C74.3926 176.494 74.4096 176.122 74.4391 175.771C74.4614 175.345 74.5305 174.951 74.1615 174.613C73.9645 174.422 73.97 174.093 74.0264 173.814C74.1163 173.204 74.1628 172.619 74.1555 172.029L74.1652 171.581L74.1603 171.359L74.1761 171.06C74.1828 170.658 74.2262 170.256 74.289 169.85C74.322 169.556 74.4212 169.288 74.4821 168.992C74.5728 168.722 74.6806 168.457 74.7884 168.192C74.9134 167.931 75.0275 167.677 75.1742 167.404L75.3856 166.992C75.459 166.855 75.542 166.786 75.617 166.677L77.1969 167.091C77.7433 167.247 78.3177 167.401 78.8338 167.567L79.3928 167.744L79.7974 167.88L80.6084 168.18C82.2772 168.811 83.8405 169.699 85.3379 170.66C85.6361 170.851 85.9212 171.056 86.2595 171.165C87.0414 171.402 87.699 171.863 88.3016 172.392C89.0206 173.035 89.8966 173.435 90.7572 173.858C90.9601 173.959 91.1915 174.021 91.3526 174.174C92.4628 175.244 93.8834 175.909 94.996 176.97C95.8966 177.827 96.657 178.83 97.4048 179.812C97.982 180.573 98.5002 181.382 99.0098 182.19C99.0412 182.244 99.1097 182.262 99.1411 182.317C99.4173 182.795 99.1274 183.26 98.3723 183.609C97.6909 183.922 97.1717 183.939 96.8674 183.601C96.5379 183.218 96.2263 182.804 95.8991 182.413L95.8178 182.511Z" fill="#F8AFB8"/>
<path d="M111.012 106.681C107.959 102.812 104.264 98.5968 99.8428 94.3153C96.1078 90.6956 92.45 87.6111 89.034 84.9958C86.3619 88.0749 85.9939 94.078 87.772 98.4507C90.1892 104.382 97.0573 108.621 102.802 107.21C103.453 107.045 111.012 106.681 111.012 106.681Z" fill="#F8AFB8"/>
<path d="M108.054 105.061C107.639 104.279 107.167 103.536 106.798 102.721C106.467 101.998 106.137 101.276 105.432 100.857C105.248 100.752 105.146 100.551 105.005 100.393C104.74 100.111 104.487 99.8224 104.209 99.5551C104.086 99.4303 103.846 99.4026 103.777 99.2464C103.417 98.4975 102.916 97.8669 102.164 97.4817C101.971 96.796 101.362 96.5317 100.845 96.1634C100.328 95.7951 99.9185 95.2995 99.2962 95.05C99.1293 94.9869 98.9762 94.8724 98.8861 94.7288C98.3566 93.8242 97.5488 93.2034 96.752 92.5764C95.8957 91.8967 95.1511 91.1091 94.5404 90.1644C94.2151 89.6637 93.7502 89.2726 93.2915 88.8924C92.75 88.4441 92.145 88.0614 91.5771 87.6428C91.3709 87.4864 91.1624 87.3387 90.9539 87.1909L90.6431 86.979L90.4043 86.8415C90.0929 86.6661 89.7872 86.5383 89.5551 86.5128L89.3658 86.4989C89.2978 86.4439 89.2707 86.648 89.2306 86.7292L89.1331 87.0246C89.0888 87.2241 89.0537 87.3893 89.0318 87.5397C89.0185 87.6923 89.0034 87.8169 89.0187 87.9313L89.0261 88.0068L88.9841 88.1977C88.9497 88.3263 88.9409 88.4618 88.915 88.5927C88.8017 89.1872 88.5723 89.769 88.4177 90.38C88.1087 91.6021 87.9293 92.9232 87.9935 94.2269C88.0523 95.2075 88.2685 96.1843 88.6236 97.0882C88.7952 97.5109 88.9799 97.9188 89.2191 98.2953L89.5626 98.8652L89.9473 99.4185C91.4244 101.588 93.5481 103.333 95.9043 104.314C96.4798 104.532 97.0628 104.688 97.6356 104.814C97.9162 104.899 98.2083 104.94 98.489 105.025C99.5264 105.303 100.586 105.43 101.61 105.31L102.15 105.215L102.623 105.131C102.776 105.107 102.813 105.108 102.889 105.101L103.096 105.083L104.559 104.97C105.514 104.904 106.456 104.853 107.393 104.819C108.462 104.775 109.528 104.775 110.579 104.487C110.745 104.449 110.775 104.476 110.963 104.563C111.086 104.651 111.062 104.81 110.94 105.025C110.684 105.774 110.641 106.553 110.132 107.014C109.799 107.329 109.493 107.578 109.058 107.489C108.429 107.366 107.796 107.739 107.162 107.33C107.076 107.27 106.949 107.301 106.847 107.338C105.948 107.639 105.036 107.753 104.128 107.813C103.697 107.844 103.18 107.853 102.859 107.886C102.367 107.938 101.879 108.046 101.392 108.045C100.754 108.094 100.116 108.144 99.4767 108.129C99.0639 108.092 98.658 108.029 98.2436 107.964C97.6606 107.807 97.0953 107.619 96.5278 107.44C96.0968 107.333 95.628 107.3 95.4417 106.726C95.4007 106.605 95.1886 106.539 95.0628 106.597C94.6022 106.841 94.2983 106.603 93.9698 106.423C93.1042 105.916 92.3376 105.278 91.5579 104.656C91.282 104.417 90.9953 104.184 90.6977 103.957L89.8421 103.241C88.9699 102.483 88.0595 101.697 87.3568 100.718C86.746 99.9116 86.3182 98.9699 85.9163 98.0352C85.8359 97.8207 85.6887 97.6158 85.6106 97.3927C85.471 96.9878 85.2822 96.5604 85.3325 96.1328C85.4137 95.6583 85.3741 95.3261 84.9754 94.962C84.755 94.7559 84.7182 94.3785 84.7363 94.0709C84.7602 93.673 84.8636 93.2872 85.0013 92.9105C85.1597 92.4567 85.3237 92.0504 85.0973 91.5579C84.9575 91.2907 85.0734 90.9266 85.2116 90.6512C85.7883 89.3906 86.0127 88.2102 86.4386 86.8264C86.9521 85.3559 87.7924 84.0373 88.7706 82.7188C89.6521 83.3042 90.5999 83.9166 91.5808 84.6113L92.6531 85.3765L93.4334 85.9623C95.0472 87.1758 96.5115 88.5698 97.9169 90.0123C98.1898 90.2968 98.4691 90.5922 98.7993 90.8001C99.5815 91.2762 100.208 91.9219 100.771 92.6333C101.441 93.4928 102.315 94.1405 103.189 94.7882C103.387 94.9423 103.63 95.0626 103.78 95.2589C104.842 96.6461 106.282 97.6479 107.384 98.9906C108.27 100.073 109.027 101.26 109.784 102.446C110.368 103.356 110.903 104.308 111.442 105.242C111.48 105.308 111.555 105.337 111.584 105.4C111.87 105.945 111.578 106.418 110.768 106.697C110.051 106.937 109.486 106.887 109.159 106.459C108.799 105.986 108.474 105.485 108.124 105.006L108.054 105.061Z" fill="#F8AFB8"/>
<path d="M131.937 102.858C129.218 100.007 125.582 95.5403 122.622 89.3348C119.885 83.6025 118.683 78.3826 118.124 74.6398C118.124 74.6398 112.806 86.291 116.417 93.8014C119.542 100.318 127.594 105.315 131.937 102.858Z" fill="#F8AFB8"/>
<path d="M128.898 101.374C128.466 100.587 128.001 99.8191 127.677 98.9697C127.382 98.2197 127.129 97.4813 126.472 96.9837C126.304 96.856 126.224 96.6415 126.106 96.4629L125.451 95.5153C125.35 95.378 125.123 95.2988 125.074 95.1386C124.851 94.3253 124.507 93.6176 123.869 93.0514C123.857 92.3407 123.343 91.9272 122.958 91.4105C122.57 90.9023 122.356 90.2937 121.843 89.8437C121.709 89.7252 121.606 89.5598 121.579 89.3871C121.399 88.3463 120.912 87.4532 120.454 86.5218C119.975 85.5298 119.683 84.4591 119.638 83.3258C119.634 83.0308 119.573 82.7111 119.51 82.4646C119.454 82.229 119.38 81.9887 119.313 81.7594C119.144 81.1903 118.93 80.7561 118.787 80.2951C118.577 79.6047 118.365 79.0241 118.186 79.1417C118.097 79.2004 118.03 79.3113 117.983 79.4547L117.949 79.5468L117.942 79.5725L117.928 79.6605L117.899 79.8366L117.804 80.4637C117.746 80.8524 117.715 81.1748 117.689 81.4435C117.658 81.8672 117.579 81.7173 117.478 81.8189C117.305 81.984 117.044 82.2724 116.838 83.0074L116.81 83.1103L116.779 83.295L116.717 83.6642L116.599 84.4137C116.539 84.9122 116.524 85.4136 116.492 85.9104C116.48 86.8447 116.592 87.7659 116.721 88.6552C116.741 88.9914 116.811 89.3133 116.881 89.6353C116.951 89.9573 117.002 90.2833 117.085 90.5904C117.301 91.1905 117.434 91.8236 117.742 92.3563C118.225 93.4689 119.011 94.5802 119.854 95.5503C120.249 96.0328 120.75 96.4245 121.193 96.8647C121.433 97.0668 121.651 97.2815 121.864 97.5133C122.686 98.3216 123.536 99.1282 124.506 99.728C125.866 100.616 127.397 101.247 128.771 101.404C129.172 101.484 129.521 101.449 129.877 101.425C130.186 101.333 130.515 101.237 130.692 100.99C130.806 100.874 130.956 101.034 131.098 101.43C131.336 102.119 131.569 102.861 131.216 103.493C130.968 103.867 130.636 104.183 130.148 104.153C129.796 104.095 129.456 104.161 129.103 104.176C128.759 104.157 128.415 104.102 128.125 103.85C128.042 103.781 127.917 103.766 127.805 103.773C125.805 103.899 124.075 102.774 122.582 101.694C122.075 101.356 121.549 101.022 121.047 100.667C120.737 100.418 120.431 100.153 120.134 99.8892C119.719 99.4839 119.365 99.0215 118.939 98.6225C118.637 98.3116 118.24 98.0767 118.327 97.5119C118.351 97.3896 118.192 97.2276 118.063 97.2297C117.557 97.232 117.375 96.9167 117.16 96.6203L116.415 95.3547L115.756 94.0388C115.499 93.3541 115.094 92.7036 114.858 92.0063C114.643 91.4709 114.392 90.9348 114.249 90.3726C114.075 89.8207 113.897 89.2493 113.821 88.6774C113.639 87.7098 113.657 86.7498 113.633 85.7783C113.636 85.5588 113.569 85.3294 113.581 85.1122C113.608 84.7057 113.533 84.2631 113.748 83.9071C113.966 83.506 114.048 83.1974 113.755 82.751C113.717 82.6858 113.688 82.6229 113.672 82.5451C113.674 82.4353 113.68 82.3084 113.706 82.1775C113.747 81.922 113.816 81.6648 113.887 81.4356C114.071 80.8509 114.299 80.3423 114.562 79.9075C114.89 79.3704 115.152 79.0454 115.167 78.0294C115.185 77.4828 115.421 77.1143 115.604 76.8784C116.001 76.3231 116.329 75.8873 116.624 75.2312C116.892 74.2647 117.124 73.0586 117.45 71.8045L117.987 69.5959L118.311 68.2858L118.522 67.497C118.847 68.7879 119.27 70.5368 119.7 72.5636C119.834 73.1967 119.966 73.903 120.097 74.5813L120.286 75.6244L120.485 76.5966C120.688 77.6249 120.939 78.5377 121.16 79.4974L121.537 80.8667L121.722 81.5501L121.866 82.0392C122.118 82.952 122.381 83.8586 122.654 84.7588C122.771 85.1118 122.863 85.4858 123.076 85.7908C123.565 86.5009 123.852 87.2852 124.1 88.1054C124.387 89.092 124.989 89.9332 125.6 90.7401C125.743 90.9255 125.936 91.0967 126.025 91.3135C126.639 92.8289 127.801 94.0132 128.653 95.3625C129.34 96.4657 129.956 97.6322 130.645 98.7634C131.175 99.6314 131.699 100.525 132.268 101.385C132.308 101.442 132.382 101.471 132.414 101.525C132.731 102.024 132.477 102.525 131.702 102.878C131.014 103.181 130.438 103.174 130.072 102.754C129.673 102.289 129.32 101.79 128.962 101.308L128.898 101.374Z" fill="#F8AFB8"/>
<path d="M152.225 55.4396C151.318 50.3904 147.242 44.7863 143.148 45.1782C142.695 45.2223 142.287 45.3424 141.903 45.5061C143.185 47.7518 144.504 50.476 145.617 53.6598C147.405 58.7517 148.104 63.3776 148.338 67.0331C148.379 67.0166 148.426 67.0109 148.468 66.9944C152.258 65.6393 152.916 59.3095 152.225 55.4396Z" fill="#F8AFB8"/>
<path d="M150.444 53.6847C150.424 53.0729 150.307 52.4809 150.285 51.8411C150.254 51.2722 150.201 50.6792 149.706 50.335C149.582 50.2468 149.553 50.0826 149.464 49.967C149.311 49.7513 149.17 49.5207 148.995 49.3175C148.908 49.2299 148.719 49.216 148.687 49.097C148.561 48.5028 148.22 48.0256 147.638 47.8327C147.599 47.5651 147.46 47.3992 147.283 47.2692C147.1 47.1649 146.856 47.0811 146.712 47.0335C146.415 46.9445 146.148 46.6709 145.886 46.8581C145.827 46.9066 145.763 46.9077 145.693 46.8247C145.254 46.3027 144.718 46.2786 144.376 46.4257C144.179 46.4741 143.957 46.5156 143.642 46.5232C143.167 46.4786 143.309 46.636 143.156 46.7239C143.13 46.7536 143.121 46.7879 143.124 46.8439C143.134 47.012 143.276 47.2706 143.406 47.5075C143.606 47.892 143.908 48.276 144.1 48.6216C144.353 49.0478 144.795 49.8002 145.296 50.3663C145.984 51.1573 146.59 52.0179 147.102 52.9179C147.363 53.3831 147.432 53.916 147.542 54.4325C147.761 55.4653 147.894 56.5118 148.079 57.5355C148.222 58.3087 148.433 59.0636 148.644 59.8186C148.733 60.1732 148.86 60.5199 148.969 60.8705L149.138 61.403C149.19 61.5546 149.211 61.5786 149.241 61.6696C149.398 62.0791 149.493 62.2056 149.588 62.2955C149.627 62.3241 149.661 62.3333 149.694 62.3145C149.777 62.2082 149.859 62.074 149.898 61.9648C149.949 61.8408 149.948 61.6384 149.937 61.5435C149.931 61.496 149.931 61.496 149.935 61.5154C149.96 61.5589 150.028 61.6139 150.069 61.4962C150.35 60.4136 150.431 59.1856 150.447 57.9952C150.443 57.3234 150.457 56.6195 150.112 56.0216C150.017 55.8585 150.209 55.7627 150.633 55.7569C151.378 55.7544 152.158 55.7244 152.643 56.0384C152.974 56.2463 153.217 56.4679 153.145 56.8068C153.019 57.2784 153.394 57.7648 152.94 58.2223C152.877 58.288 152.899 58.3766 152.923 58.4567C153.175 59.1305 153.18 59.8304 153.095 60.5244C153.04 60.8679 152.968 61.2069 152.878 61.5413C152.771 61.8711 152.701 62.2014 152.55 62.6295C152.461 62.8907 152.399 63.1588 152.334 63.4354C152.245 63.6966 152.163 63.9687 152.064 64.2361C151.942 64.5893 151.75 64.8596 151.579 65.1538C151.457 65.3692 151.291 65.5085 151.15 65.6913C151.009 65.8741 150.865 66.0375 150.709 66.2071C150.599 66.3431 150.48 66.5133 150.368 66.6212C150.238 66.6965 150.106 66.7073 149.995 66.5396C149.949 66.4721 149.822 66.6034 149.776 66.7749C149.567 67.3807 149.31 67.4496 149.076 67.5705C148.908 67.6452 148.723 67.6873 148.549 67.7511L148.287 67.8372L148.149 67.8736C148.101 67.8792 148.115 67.8278 148.103 67.8061C148.027 67.5744 147.945 67.3319 147.815 67.1316C147.762 67.0532 147.718 66.9771 147.642 66.9199C147.581 66.4624 147.482 66.0409 147.377 65.6085C147.265 65.1372 147.113 64.6739 146.963 64.1374C146.798 63.5878 146.633 63.0381 146.467 62.4884C146.322 61.9348 146.24 61.6923 146.159 61.3766C146.076 61.0694 145.984 60.76 145.882 60.4568C145.837 60.3161 145.722 60.1936 145.677 60.0529C145.6 59.7933 145.447 59.5409 145.523 59.258C145.605 58.9494 145.592 58.7252 145.177 58.5589C144.944 58.4689 144.905 58.2378 144.899 58.0526C144.882 57.809 144.953 57.5432 145.016 57.2751C145.101 56.9579 145.183 56.6492 144.836 56.4367C144.646 56.3215 144.674 56.0808 144.703 55.8682C144.868 54.9473 144.564 54.1584 144.157 53.4152C143.61 52.4049 142.967 51.4424 142.35 50.4868C142.184 50.2859 141.707 49.2854 141.298 48.5507C140.602 47.2709 139.818 45.912 139.142 44.6282C139.526 44.4645 139.829 44.3254 140.04 44.2256C140.43 44.0728 140.971 43.9054 141.391 43.7789C141.755 43.6559 142.158 43.626 142.475 43.472C142.827 43.254 143.309 43.2729 143.766 43.2483C144.252 43.2866 144.765 43.3964 145.259 43.5748C145.868 43.8758 146.453 44.0234 147.048 44.3757C147.347 44.5293 147.663 44.6509 147.968 44.8154C148.12 44.9019 148.267 45.0056 148.418 45.0921L148.738 45.2697C148.941 45.37 149.146 45.4617 149.277 45.6254C150.194 46.7626 151.318 47.6427 151.997 48.8814C152.532 49.8701 152.823 50.9773 153.062 52.0428C153.23 52.8875 153.306 53.735 153.327 54.5858C153.33 54.6418 153.372 54.6899 153.376 54.7459C153.363 55.2388 152.873 55.4566 152.043 55.3996C151.311 55.3507 150.849 55.19 150.786 54.8423C150.687 54.4574 150.657 54.0543 150.55 53.667L150.444 53.6847Z" fill="#F8AFB8"/>
<path d="M166.604 90.4986C164.57 87.5276 162.271 84.4122 159.685 81.2381C155.793 76.4552 151.899 72.3333 148.216 68.792C148.216 68.792 146.886 76.6046 150.187 82.2216C154.846 90.1415 162.815 92.8097 166.604 90.4986Z" fill="#F8AFB8"/>
<path d="M164.015 89.0147C163.728 88.3037 163.378 87.6217 163.147 86.8707C162.93 86.206 162.722 85.5437 162.119 85.1525C161.961 85.0551 161.891 84.8709 161.775 84.7204C161.571 84.4543 161.364 84.1967 161.147 83.9455C161.047 83.8361 160.828 83.7958 160.783 83.6551C160.556 82.9602 160.18 82.3725 159.526 82.0041C159.448 81.3676 158.918 81.1154 158.498 80.7639C158.067 80.4186 157.771 79.9442 157.228 79.7069C157.081 79.6398 156.962 79.5344 156.898 79.3977C156.546 78.5499 155.897 77.9534 155.259 77.3506C154.579 76.6997 154.01 75.9408 153.608 75.0427C153.388 74.561 153.03 74.1804 152.668 73.8169C152.26 73.3858 151.726 72.9764 151.338 72.606C150.88 72.1892 150.4 71.8216 150.059 71.7577C150.024 71.7485 149.996 71.7502 149.968 71.7519C149.82 71.758 149.709 71.7927 149.631 71.8452C149.587 71.8703 149.561 71.9 149.532 71.9383C149.519 71.9531 149.504 71.9766 149.499 71.9937C149.486 72.0086 149.473 72.0234 149.493 72.1207C149.546 72.438 149.604 72.7017 149.647 72.9156C149.696 73.1123 149.665 73.1592 149.621 73.2209C149.594 73.2506 149.568 73.2803 149.554 73.3317C149.492 73.462 149.429 73.6289 149.378 73.8541C149.368 73.8884 149.366 73.897 149.361 73.9507L149.349 74.1679C149.338 74.312 149.335 74.4584 149.341 74.6071C149.347 74.8935 149.342 75.1863 149.357 75.475C149.42 76.3373 149.584 77.1991 149.861 78.0177C149.968 78.4049 150.137 78.7716 150.309 79.1211C150.469 79.4855 150.675 79.8162 150.847 80.1658C150.97 80.4284 151.117 80.6698 151.266 80.9027C151.423 81.1379 151.542 81.3811 151.736 81.6169C152.098 82.0816 152.413 82.5885 152.813 83.0172C153.191 83.4585 153.566 83.9084 153.992 84.3074C154.394 84.7275 154.836 85.1032 155.271 85.4679C155.678 85.8343 156.182 86.0796 156.621 86.3992C156.851 86.5344 157.076 86.6868 157.289 86.854C158.071 87.4678 158.91 88.0051 159.792 88.4161C161.062 88.9951 162.418 89.2849 163.634 89.271C164.306 89.2672 165.001 89.1777 165.33 88.7052C165.424 88.5927 165.577 88.7438 165.74 89.1277C166.017 89.8084 166.291 90.5343 166.044 91.1481C165.865 91.5412 165.611 91.8405 165.184 91.8549C164.87 91.8259 164.589 91.9159 164.28 91.971C163.982 92.0198 163.679 91.9846 163.396 91.771C163.32 91.7137 163.205 91.729 163.114 91.7598C161.391 92.1894 159.731 91.423 158.284 90.686C157.812 90.4218 157.272 90.2771 156.814 89.9981C156.511 89.825 156.198 89.6583 155.915 89.4447C155.513 89.1257 155.125 88.7919 154.716 88.4987C154.408 88.2782 154.023 88.1382 154.06 87.5877C154.062 87.4779 153.9 87.3611 153.783 87.3849C153.314 87.489 153.116 87.2338 152.9 87.0105C152.595 86.7083 152.339 86.3638 152.079 86.0278C151.812 85.6896 151.539 85.3685 151.291 85.0263C150.91 84.529 150.463 84.0693 150.06 83.5846C149.407 82.8674 148.671 82.082 148.161 81.1735C147.93 80.7992 147.741 80.4085 147.59 80.0098C147.423 79.6065 147.264 79.2055 147.135 78.7943C147.065 78.6101 146.936 78.4378 146.877 78.2474C146.777 77.899 146.618 77.5346 146.686 77.1762C146.766 76.7749 146.769 76.4908 146.363 76.189C146.133 76.0172 146.106 75.7067 146.13 75.4466C146.144 75.1195 146.253 74.7812 146.366 74.4623C146.513 74.1526 146.638 73.5152 146.376 72.8476C146.232 72.4598 146.335 71.9728 146.43 71.6493C146.517 71.3601 146.616 71.0926 146.679 70.8245C146.744 70.5479 146.792 70.2666 146.886 70.0529C147.36 69.6561 147.574 69.1989 147.82 68.7961L148.022 68.4551C148.055 68.363 148.119 68.3985 148.184 68.3975L148.367 68.4006C148.496 68.3984 148.586 68.4043 148.755 68.3576C148.911 68.3258 149.062 68.2745 149.216 68.2146C149.359 68.161 149.619 68.047 149.811 67.9512C150.257 68.3096 150.722 68.7007 151.208 69.1158C151.575 69.4256 151.942 69.7719 152.315 70.1291L153.338 71.111C154.608 72.3057 155.718 73.6507 156.79 75.0316C157.003 75.3 157.203 75.5833 157.479 75.7861C158.128 76.2448 158.607 76.86 159.015 77.53C159.506 78.3414 160.214 78.954 160.932 79.5689C161.095 79.7138 161.304 79.825 161.419 80.0121C162.203 81.3063 163.412 82.246 164.248 83.4809C164.927 84.4806 165.479 85.575 166.036 86.6523C166.465 87.4842 166.849 88.3497 167.238 89.1981C167.26 89.2502 167.324 89.2857 167.353 89.3486C167.56 89.8451 167.215 90.2764 166.412 90.5299C165.7 90.7526 165.171 90.7028 164.917 90.3131C164.638 89.8799 164.392 89.428 164.126 88.98L164.015 89.0147Z" fill="#F8AFB8"/>
<path d="M170.888 33.2858C171.752 36.8529 172.541 40.7676 173.169 45.0068C173.846 49.5806 174.226 53.8543 174.419 57.7654C177.994 56.4261 180.627 49.5138 179.662 43.7876C178.813 38.8277 174.941 32.8739 170.888 33.2858Z" fill="#F8AFB8"/>
<path d="M172.677 35.355C172.654 36.0565 172.673 36.7415 172.566 37.4481C172.472 38.0752 172.354 38.6868 172.711 39.2418C172.801 39.3855 172.781 39.5638 172.812 39.7194C172.872 40.0111 172.923 40.3004 173 40.5967C173.039 40.7265 173.209 40.8457 173.183 40.9766C173.045 41.6288 173.082 42.2452 173.454 42.8134C173.201 43.3431 173.517 43.7769 173.688 44.2362C173.868 44.6979 173.861 45.2015 174.194 45.6399C174.283 45.7555 174.328 45.8962 174.299 46.0357C174.126 46.8531 174.327 47.6144 174.494 48.3945C174.676 49.2243 174.677 50.0791 174.445 50.945C174.321 51.408 174.371 51.8718 174.424 52.3269C174.485 52.9222 174.6 53.2471 174.662 53.668C174.747 54.2421 174.88 54.774 175.118 54.8469C175.169 54.8607 175.214 54.8636 175.251 54.8643C175.373 55.0622 176.018 54.0956 176.177 53.7064C176.293 53.4435 176.365 53.5545 176.482 53.4941C176.597 53.4422 176.725 53.3754 176.869 53.2487C177.025 53.0791 177.172 52.9437 177.426 52.4054C177.771 51.7352 177.962 50.987 178.106 50.2444C178.23 49.5425 178.21 48.8294 178.241 48.1302C178.26 47.0971 178.213 46.0736 178.055 45.0848C177.876 44.1086 177.597 43.1608 177.21 42.2393C177.025 41.7948 176.759 41.3834 176.531 40.964C176.412 40.7575 176.304 40.5446 176.217 40.3193C175.862 39.5167 175.484 38.6986 174.981 38.0033C174.279 36.9882 173.394 36.1443 172.542 35.6865C172.073 35.4137 171.583 35.2182 171.223 35.4985C171.134 35.5573 171.069 35.3559 171.071 34.934C171.092 34.2044 171.153 33.4303 171.601 32.99C171.905 32.7131 172.25 32.5574 172.598 32.7334C172.83 32.8966 173.112 32.9444 173.373 33.0328C173.621 33.136 173.853 33.2992 173.972 33.6069C174.005 33.6893 174.106 33.7255 174.181 33.7547C175.744 34.1642 176.648 35.5553 177.407 36.7695C177.667 37.17 177.982 37.5392 178.251 37.942C178.41 38.2052 178.565 38.4856 178.702 38.7613C178.876 39.1755 179.026 39.6108 179.221 40.0124C179.369 40.3184 179.64 40.5749 179.321 41.0131C179.25 41.1045 179.327 41.2629 179.45 41.2865C179.911 41.3826 179.962 41.6719 180.026 41.9464C180.203 42.6922 180.32 43.4586 180.402 44.2157C180.5 44.775 180.579 45.3382 180.703 45.9044C180.862 46.7834 181.063 47.6825 181.084 48.5979C181.107 49.3669 180.989 50.1164 180.886 50.879C180.857 51.055 180.897 51.2495 180.86 51.4233C180.792 51.7451 180.797 52.1047 180.555 52.3526C180.288 52.6301 180.198 52.8633 180.398 53.2844C180.516 53.5275 180.383 53.7858 180.263 53.9926C180.228 54.0566 180.183 54.1183 180.131 54.1777C180.063 54.2605 179.984 54.3496 179.905 54.4387C179.747 54.6169 179.585 54.7757 179.436 54.9196C179.25 55.0995 179.079 55.2559 178.936 55.4473C178.776 55.6341 178.654 55.8495 178.579 56.197C178.489 56.568 178.204 56.8775 177.95 56.9658C176.891 57.5918 176.135 58.1518 175.109 58.8601C174.745 59.121 174.288 59.3846 173.827 59.6654C173.462 59.825 173.338 59.81 172.925 60.0119C172.799 59.2153 172.656 58.3409 172.535 57.3893C172.422 56.5413 172.351 55.6035 172.255 54.6954L172.07 52.7438L171.986 51.6185L171.901 49.3628C171.889 49.0654 171.896 48.7641 171.778 48.4844C171.517 47.8449 171.477 47.1724 171.504 46.4904C171.539 45.6728 171.278 44.8954 170.996 44.1306C170.935 43.9487 170.815 43.7788 170.818 43.5958C170.818 42.2911 170.24 41.0886 170.066 39.8196C169.928 38.7903 169.935 37.7354 169.888 36.6753C169.867 35.861 169.849 35.0383 169.83 34.2155C169.827 34.1594 169.782 34.1199 169.779 34.0639C169.785 33.5968 170.261 33.3292 171.092 33.3496C171.83 33.3728 172.298 33.5809 172.381 33.9893C172.471 34.4451 172.519 34.9174 172.58 35.3749L172.677 35.355Z" fill="#F8AFB8"/>
</svg>
