<svg width="802" height="277" viewBox="0 0 802 277" fill="none" xmlns="http://www.w3.org/2000/svg">
<path d="M642.069 2.97796C641.846 3.05231 641.623 3.14259 641.368 3.21163C641.145 3.27536 640.89 3.33376 640.89 3.59398C640.89 3.65771 640.827 3.68427 640.8 3.73207C640.742 3.81704 640.683 3.89668 640.636 3.98165C640.62 4.02414 640.667 4.11444 640.625 4.13568C640.397 4.23659 640.237 4.40121 640.301 4.66144C640.046 4.71985 640.104 4.93229 640.115 5.10223C640.115 5.27217 640.014 5.41554 640.126 5.61204C640.152 5.66514 640.158 5.71294 640.115 5.7448C639.881 5.94661 639.887 6.21746 639.897 6.47768C639.903 6.75915 639.828 7.01936 639.637 7.30083C639.531 7.44953 639.542 7.61417 639.552 7.77349C639.563 7.95936 639.637 8.14522 639.68 8.32579C639.733 8.59132 639.85 8.84625 640.051 9.07461C640.184 9.22862 640.306 9.37731 640.418 9.52601C640.545 9.66939 640.657 9.81278 640.763 9.95085C640.864 10.0942 640.859 10.2801 640.906 10.4448L641.013 10.9546C641.066 11.1192 641.119 11.2839 641.188 11.4432C641.305 11.6715 641.469 11.8733 641.66 12.0433C641.841 12.2026 642.059 12.3194 642.261 12.4469C642.85 12.8558 643.514 13.1373 644.316 13.6365C644.507 13.7533 644.719 13.8649 644.927 14.0295C645.027 14.1091 645.118 14.1888 645.197 14.3056C645.346 14.5127 645.495 14.7092 645.606 14.9482C645.728 15.1766 645.829 15.4103 645.904 15.6492C646.031 16.0104 646.095 16.2865 646.153 16.5945C646.212 16.8972 646.249 17.2159 646.249 17.5505C646.244 17.9328 646.201 18.2993 646.212 18.8091C646.206 18.9631 646.079 18.9631 645.856 18.8356C645.463 18.6179 645.033 18.4427 644.799 18.2674C644.64 18.1453 644.512 18.0656 644.587 17.97C644.693 17.8266 644.491 17.6726 644.746 17.508C644.783 17.4814 644.767 17.4495 644.751 17.4283C644.417 17.0034 644.475 16.5149 644.342 16.0953C644.305 15.9519 644.172 15.8617 644.098 15.7448C644.05 15.6705 643.981 15.6067 643.928 15.5271C643.859 15.4155 643.79 15.2828 643.673 15.2031C643.588 15.1394 643.461 15.1341 643.551 14.8739C643.572 14.8208 643.514 14.7889 643.461 14.8261C643.243 14.9642 643.201 14.8898 643.126 14.8261C642.935 14.6615 642.754 14.4809 642.537 14.3322C642.377 14.226 642.197 14.1357 642 14.0666C641.703 13.9498 641.358 13.8702 641.06 13.6949C640.805 13.5621 640.598 13.3603 640.375 13.1744C640.322 13.132 640.237 13.116 640.189 13.0683C640.104 12.978 639.982 12.9036 639.982 12.7602C639.982 12.6009 639.94 12.5159 639.69 12.5319C639.552 12.5425 639.51 12.4416 639.483 12.3513C639.451 12.2398 639.467 12.1017 639.483 11.9689C639.504 11.8096 639.531 11.6662 639.334 11.6131C639.228 11.5865 639.234 11.4697 639.249 11.3688C639.297 11.1511 639.271 10.9652 639.228 10.7953C639.191 10.62 639.111 10.4607 639.026 10.3014C638.766 9.87121 638.57 9.43574 638.347 8.97902C638.272 8.79315 638.235 8.59664 638.193 8.40014C638.065 7.7841 638.129 7.14153 638.267 6.52549C638.299 6.40334 638.336 6.2865 638.309 6.15374C638.246 5.85634 638.331 5.57487 638.479 5.32527C638.655 5.01725 638.687 4.68267 638.724 4.32154C638.734 4.24188 638.724 4.14629 638.777 4.08256C639.111 3.63115 639.223 3.05761 639.595 2.63275C639.897 2.30349 640.28 2.04858 640.667 1.84146C640.954 1.66621 641.278 1.54937 641.581 1.43253C641.602 1.42722 641.607 1.39535 641.623 1.39004C641.804 1.33162 642.032 1.55467 642.261 1.98483C642.462 2.3672 642.537 2.62213 642.425 2.70179C642.308 2.79207 642.154 2.84518 642.032 2.93546L642.069 2.97796Z" fill="#A6C5F3"/>
<path d="M649.59 1.5759C649.372 1.61838 649.17 1.69272 648.926 1.72458C648.703 1.74582 648.48 1.78831 648.464 2.02198C648.464 2.0804 648.405 2.10166 648.373 2.13883C648.32 2.20787 648.257 2.27158 648.219 2.35655C648.198 2.39373 648.246 2.4787 648.203 2.48932C647.975 2.54774 647.837 2.69113 647.895 2.9248C647.651 2.95666 647.72 3.15317 647.731 3.29655C647.741 3.43994 647.662 3.56208 647.789 3.7214C647.826 3.76389 647.832 3.80107 647.8 3.82762C647.593 3.99756 647.662 4.22592 647.731 4.4171C647.752 4.52331 647.784 4.62424 647.784 4.73576C647.784 4.84729 647.747 4.97473 647.72 5.11811C647.688 5.27212 647.736 5.40489 647.816 5.51642C647.911 5.64918 648.028 5.76601 648.15 5.87754C648.315 6.05279 648.511 6.19617 648.777 6.27052C649.133 6.37143 649.462 6.48295 649.775 6.63696C649.935 6.71131 650.014 6.88128 650.121 7.02466C650.328 7.31144 650.514 7.64069 650.731 7.93809C650.896 8.16113 651.092 8.35764 651.289 8.57537C651.48 8.76125 651.693 8.95775 651.878 9.17548C652.404 9.84994 652.755 10.7527 652.856 11.6874C652.882 11.9105 652.914 12.1388 652.919 12.3672C652.919 12.4787 652.898 12.5903 652.872 12.7018C652.765 13.1054 652.606 13.4771 652.447 13.833C652.218 14.3428 651.963 14.8207 651.65 15.2456C651.475 15.4899 651.273 15.697 651.204 16.0156C651.183 16.1059 651.077 16.0475 650.896 15.8616C650.588 15.543 650.253 15.219 650.121 14.9641C650.03 14.7889 649.967 14.6455 650.078 14.6083C650.243 14.5446 650.158 14.3056 650.46 14.3375C650.503 14.3428 650.508 14.3109 650.508 14.279C650.482 13.7586 650.811 13.4825 651.002 13.1001C651.061 12.9779 651.061 12.8346 651.082 12.7018C651.098 12.6168 651.119 12.5318 651.14 12.4522C651.177 12.3353 651.236 12.2132 651.236 12.091C651.225 11.9955 651.156 11.9052 651.422 11.8308C651.475 11.8149 651.464 11.7618 651.4 11.7406C651.161 11.6662 651.193 11.5971 651.193 11.5175C651.215 11.3104 651.199 11.1033 651.167 10.9015C651.14 10.7474 651.034 10.62 650.944 10.4978C650.784 10.3067 650.545 10.1739 650.376 10.0199C650.211 9.89772 650.115 9.74902 649.951 9.62156C649.913 9.59501 649.85 9.5897 649.818 9.55784C649.759 9.49942 649.669 9.47286 649.675 9.35603C649.685 9.22857 649.653 9.15955 649.441 9.24452C649.319 9.29232 649.282 9.22859 649.26 9.17017C649.228 9.09582 649.228 8.98429 649.234 8.87277C649.239 8.74 649.25 8.60193 649.064 8.64441C648.968 8.66566 648.942 8.57536 648.942 8.49038C648.92 8.11333 648.697 7.92215 648.432 7.76814C648.076 7.55571 647.683 7.3486 647.306 7.07776C647.157 6.96092 647.04 6.81754 646.913 6.68477C646.525 6.22274 646.249 5.59077 646.185 4.89507C646.169 4.76231 646.185 4.62423 646.127 4.49677C645.984 4.19938 646.015 3.8701 646.138 3.58332C646.286 3.23813 646.297 2.88763 646.35 2.5265C646.361 2.44153 646.35 2.34596 646.403 2.28223C646.759 1.84675 646.886 1.31037 647.258 0.954558C647.556 0.678403 647.927 0.497822 648.278 0.338501C648.549 0.211045 648.835 0.126075 649.117 0.0411043C649.133 0.0357936 649.138 0.0092363 649.159 0.00392562C649.324 -0.0332492 649.547 0.195101 649.77 0.625266C649.972 1.00764 650.046 1.25724 649.94 1.32628C649.823 1.40063 649.696 1.45904 649.574 1.52277L649.59 1.5759Z" fill="#A6C5F3"/>
<path d="M658.181 3.94962C658.016 3.97087 657.873 4.01336 657.671 4.0293C657.491 4.03461 657.305 4.06646 657.363 4.25234C657.379 4.30013 657.331 4.31074 657.315 4.34261C657.283 4.39572 657.257 4.44882 657.241 4.50724C657.236 4.53379 657.299 4.59752 657.267 4.60814C657.087 4.65594 656.997 4.77811 657.124 4.93212C656.901 4.9746 657.029 5.10738 657.082 5.20297C657.135 5.29856 657.092 5.38884 657.252 5.46319C657.294 5.48443 657.31 5.50567 657.283 5.52691C657.129 5.67561 657.214 5.81369 657.31 5.92521C657.4 6.04736 657.416 6.19605 657.347 6.44565C657.31 6.57842 657.368 6.66338 657.432 6.73773C657.501 6.83332 657.623 6.89174 657.714 6.9714C657.841 7.09355 658 7.18385 658.229 7.22102C658.531 7.27413 658.813 7.36441 659.068 7.51842C659.201 7.58746 659.238 7.76269 659.296 7.90077C659.413 8.19286 659.477 8.51682 659.54 8.84077C659.594 9.07975 659.657 9.31342 659.716 9.56302C659.764 9.79138 659.838 10.0357 659.838 10.28C659.827 11.0075 659.578 11.6661 659.291 12.229C659.222 12.3671 659.174 12.5211 659.1 12.6538C659.063 12.7229 659.015 12.7813 658.962 12.8344C658.76 13.0203 658.547 13.1849 658.351 13.3549C658.069 13.5991 657.804 13.8488 657.512 14.0612C657.347 14.1833 657.167 14.2736 657.092 14.5073C657.071 14.5763 656.986 14.4913 656.853 14.2683C656.62 13.8912 656.37 13.5035 656.28 13.238C656.221 13.0574 656.179 12.9194 656.28 12.9247C656.423 12.9353 656.381 12.7069 656.63 12.8503C656.667 12.8716 656.673 12.845 656.678 12.8238C656.726 12.3936 657.06 12.3193 657.305 12.1228C657.384 12.059 657.427 11.9582 657.48 11.8732C657.517 11.8201 657.56 11.7723 657.607 11.7298C657.676 11.6661 657.767 11.6236 657.809 11.5386C657.841 11.4749 657.814 11.374 658.064 11.4802C658.117 11.5014 658.128 11.4642 658.085 11.4164C657.921 11.2359 657.974 11.204 658.011 11.1615C658.107 11.05 658.223 10.9385 658.287 10.8057C658.335 10.7048 658.346 10.5933 658.324 10.4765C658.303 10.2959 658.192 10.1206 658.133 9.98787C658.075 9.87634 658.069 9.78607 658.016 9.7011C658.006 9.67986 657.947 9.66925 657.937 9.64801C657.921 9.61083 657.857 9.58958 657.937 9.54179C658.022 9.48337 658.022 9.44088 657.809 9.47274C657.687 9.48868 657.692 9.46212 657.708 9.43557C657.719 9.39839 657.777 9.33466 657.836 9.26562C657.905 9.18596 657.979 9.09036 657.804 9.12222C657.714 9.13815 657.74 9.07974 657.772 9.02132C657.91 8.75047 657.777 8.6071 657.602 8.5062C657.363 8.36812 657.082 8.2619 656.805 8.10258C656.699 8.04416 656.614 7.95387 656.519 7.86359C656.227 7.58744 656.004 7.17853 655.865 6.68464C655.839 6.58904 655.828 6.48282 655.749 6.40316C655.563 6.22259 655.547 5.95175 655.589 5.71277C655.658 5.42069 655.563 5.14984 655.526 4.84713C655.515 4.77809 655.472 4.69842 655.51 4.64001C655.733 4.23108 655.711 3.74784 655.977 3.40796C656.189 3.14242 656.487 2.97247 656.763 2.82908C656.975 2.71755 657.209 2.6485 657.432 2.58477C657.448 2.57946 657.443 2.55822 657.459 2.55291C657.597 2.52636 657.82 2.7494 658.091 3.1477C658.33 3.49821 658.446 3.7266 658.383 3.77439C658.308 3.8275 658.218 3.86465 658.138 3.91244L658.181 3.94962Z" fill="#A6C5F3"/>
<path d="M647.179 53.1419C647.179 53.1419 648.889 59.1802 649.42 59.2864C659.643 61.3894 666.796 56.7585 666.796 56.7585V51.3682" fill="#CFE2F4"/>
<path d="M648.277 54.1721C648.277 54.5491 648.314 54.9156 648.277 55.298C648.245 55.6431 648.208 55.983 648.452 56.2433C648.516 56.3123 648.511 56.4079 648.537 56.4929C648.59 56.6416 648.638 56.7956 648.702 56.939C648.734 57.0027 648.84 57.0452 648.835 57.1195C648.803 57.4806 648.877 57.8046 649.148 58.0489C649.052 58.3622 649.297 58.5587 649.424 58.6649C649.493 58.7287 649.541 58.803 649.61 58.8561C649.684 58.9092 649.806 58.8614 649.907 58.8136C649.966 58.7818 650.008 58.7711 650.045 58.8083C650.375 59.0367 650.831 59.0526 651.235 59.0738C651.681 59.0898 652.117 59.1747 652.547 59.4084C652.775 59.5252 653.025 59.5624 653.269 59.5624C653.561 59.5678 653.853 59.5199 654.145 59.5146C654.358 59.5093 654.565 59.4934 654.777 59.4669C654.984 59.4297 655.192 59.3659 655.399 59.2916C655.946 59.0845 656.493 58.9198 657.024 58.7446C657.295 58.6649 657.587 58.7021 657.868 58.7021C658.431 58.6703 659.015 58.7074 659.578 58.6278C660.003 58.564 660.423 58.4738 660.826 58.3304C661.203 58.1976 661.57 58.0277 661.936 57.8683C663.03 57.4329 664.098 56.9283 665.08 56.3335C665.197 56.2592 665.308 56.1795 665.42 56.1052C665.5 56.0521 665.478 56.0521 665.478 56.0415V56.0096C665.478 55.9937 665.468 55.9937 665.478 55.999C665.489 55.999 665.505 56.0149 665.521 55.9831C665.537 55.7122 665.547 55.4413 665.553 55.1652L665.574 52.8285C665.585 52.3877 665.616 51.9469 665.473 51.5061C665.431 51.384 665.553 51.3415 665.808 51.3893C666.248 51.469 666.71 51.5327 666.976 51.7451C667.156 51.8885 667.289 52.0213 667.226 52.2018C667.13 52.4621 667.337 52.7329 667.072 52.9878C667.034 53.025 667.045 53.0781 667.061 53.1206C667.364 53.88 667.204 54.6448 667.167 55.4095C667.162 55.5316 667.172 55.6591 667.183 55.7812C667.194 55.9034 667.21 56.0255 667.22 56.2061C667.231 56.4238 667.231 56.6363 667.22 56.8487L667.215 56.9602C667.21 56.9761 667.22 57.0027 667.204 57.0133L667.151 57.0399L666.939 57.1514C666.801 57.2257 666.668 57.2948 666.54 57.3744C666.445 57.4329 666.36 57.5125 666.259 57.555C666.179 57.5869 666.078 57.5869 665.951 57.5019C665.898 57.47 665.818 57.5231 665.818 57.5922C665.813 57.8683 665.664 57.9108 665.526 57.9639C665.154 58.1232 664.767 58.2401 664.395 58.3941C664.124 58.5162 663.853 58.6437 663.593 58.803C663.195 59.0579 662.791 59.3128 662.372 59.5359C662.021 59.7218 661.639 59.8226 661.272 59.9713C661.187 60.0032 661.113 60.0776 661.023 60.1094C660.863 60.1625 660.704 60.2528 660.529 60.1997C660.338 60.1466 660.205 60.1519 660.088 60.3962C660.024 60.5343 659.876 60.5502 659.759 60.5555C659.605 60.5662 659.44 60.4971 659.281 60.444C659.09 60.375 658.914 60.3006 658.75 60.4865C658.659 60.5874 658.516 60.5555 658.394 60.5184C657.857 60.3431 657.353 60.3909 656.854 60.5184C656.169 60.683 655.478 60.8158 654.772 60.9485C654.496 60.9804 654.22 60.9804 653.944 60.991C653.078 61.0388 652.223 60.8689 651.384 60.7149C651.219 60.6883 651.055 60.6405 650.885 60.6564C650.486 60.6989 650.13 60.6139 649.737 60.4706C649.355 60.359 648.978 60.3112 648.659 60.0829C648.351 59.8598 648.128 59.5146 647.905 59.1641C647.815 59.0208 647.735 58.9623 647.709 58.8455C647.534 58.0861 647.098 57.486 646.917 56.7797C646.774 56.2114 646.721 55.6272 646.657 55.0431C646.609 54.5916 646.588 54.1402 646.562 53.6835C646.562 53.6517 646.53 53.6304 646.53 53.5985C646.524 53.3383 646.806 53.1737 647.3 53.1578C647.735 53.1418 648.017 53.2321 648.075 53.4498C648.134 53.6888 648.171 53.9384 648.219 54.1827L648.277 54.1721Z" fill="#A6C5F3"/>
<path d="M647.177 42.2822C642.408 43.3444 631.017 46.6635 631.267 49.8606C631.532 53.3338 641.373 56.3449 656.439 54.996C666.444 54.1038 678.367 50.5669 678.245 47.2477C678.133 44.0932 667.156 41.9105 661.405 41.3529C658.871 41.1086 653.683 40.8271 647.177 42.2822Z" fill="#CFE2F4"/>
<path d="M643.1 44.13C641.894 44.369 640.699 44.6717 639.504 44.9266C638.442 45.155 637.391 45.4099 636.435 45.9834C636.185 46.1268 635.898 46.2277 635.627 46.3552C635.144 46.5942 634.656 46.8225 634.199 47.104C633.986 47.2261 633.822 47.4386 633.615 47.5288C633.115 47.7625 632.638 48.0493 632.25 48.421C631.873 48.7822 631.559 49.2814 631.644 49.7116C631.528 50.0461 631.66 50.471 631.899 50.7843C632.138 51.1082 632.473 51.3632 632.818 51.5915C633.508 52.0589 634.284 52.4943 635.128 52.6749C635.351 52.7174 635.596 52.8077 635.803 52.9032C637.061 53.5405 638.469 53.8167 639.876 54.0344C641.384 54.2681 642.898 54.5018 644.406 54.8151C645.213 54.9797 646.068 55.0275 646.907 55.0541C647.906 55.0913 648.904 55.0435 649.903 55.0222C651.352 54.9904 652.786 54.8735 654.209 54.6398C656.116 54.3265 658.007 53.9919 659.892 53.6096C660.848 53.4131 661.841 53.3175 662.818 53.1688C664.767 52.8714 666.716 52.5315 668.633 52.0376C670.067 51.6659 671.48 51.1932 672.829 50.6197C674.082 50.0886 675.293 49.4247 676.286 48.6547C676.652 48.3732 676.96 48.0546 677.141 47.7625C677.237 47.6191 677.268 47.4917 677.295 47.3908C677.284 47.3005 677.306 47.2368 677.247 47.1359C677.173 46.9447 676.913 46.6526 676.567 46.4083C676.222 46.1587 675.813 45.9357 675.389 45.7285C673.652 44.916 671.66 44.4009 669.685 43.9654C668.729 43.7583 667.762 43.6096 666.791 43.4556L665.341 43.206C663.551 42.8873 661.751 42.6058 659.961 42.4784C657.391 42.2978 654.799 42.3881 652.229 42.6643C650.773 42.8183 649.313 43.0254 647.916 43.4715C647.523 43.5936 647.369 43.5034 647.465 43.2272C647.63 42.7439 647.741 42.2447 648.4 41.8411C648.851 41.5809 649.276 41.3472 649.892 41.326C650.779 41.2729 651.687 40.9542 652.584 41.1295C652.712 41.1507 652.887 41.1242 653.031 41.0923C655.606 40.5506 658.267 40.6834 660.874 40.933C661.729 41.0126 662.584 41.0657 663.434 41.1613C663.986 41.2251 664.533 41.3047 665.08 41.395C665.877 41.5278 666.663 41.7137 667.454 41.8464C668.054 41.9473 668.649 41.9845 669.127 42.3616C669.228 42.4412 669.541 42.4996 669.664 42.4625C670.136 42.3244 670.625 42.4731 671.108 42.6059C672.42 42.9723 673.71 43.4131 674.985 43.9335C675.925 44.3318 676.87 44.7301 677.746 45.4046C678.081 45.6754 678.416 45.9941 678.655 46.4455C678.909 46.8916 678.963 47.5342 678.793 48.0334C678.447 49.0371 677.762 49.6478 677.114 50.1736C675.999 51.0392 674.772 51.6128 673.551 52.1598C673.27 52.2819 673.004 52.4465 672.717 52.5528C672.191 52.7599 671.65 53.0095 671.124 53.0891C670.54 53.1847 670.099 53.2909 669.642 53.6521C669.387 53.8486 668.915 53.976 668.532 54.0504C668.039 54.1566 667.534 54.1991 667.04 54.2362C666.445 54.2787 665.888 54.3053 665.309 54.5974C664.995 54.7514 664.523 54.7992 664.135 54.8151C662.42 54.8895 660.747 55.1922 659.053 55.4789C656.759 55.8719 654.454 56.18 652.128 56.3765C651.214 56.4508 650.301 56.4773 649.382 56.4933C646.525 56.5464 643.662 56.318 640.827 55.8188C640.269 55.7126 639.706 55.5958 639.148 55.532C637.858 55.3887 636.594 55.0434 635.367 54.5283C634.629 54.2203 633.891 53.9123 633.147 53.5352C632.409 53.1528 631.66 52.7121 630.975 51.9951C630.662 51.6606 630.327 51.2516 630.173 50.7152C630.094 50.4922 630.067 50.2426 630.035 49.9983C630.03 49.7381 630.03 49.4088 630.104 49.1645C630.226 48.6175 630.481 48.2405 630.726 47.89C631.23 47.2367 631.777 46.796 632.324 46.3924C633.418 45.6064 634.539 45.0169 635.691 44.5336C637.561 43.7636 639.472 43.2325 641.384 42.7545C642.861 42.3828 644.348 42.0907 645.84 41.8252C645.935 41.8092 646.036 41.7615 646.132 41.7455C646.992 41.6128 647.322 41.8677 647.035 42.42C646.78 42.9139 646.297 43.2803 645.558 43.4609C644.741 43.6627 643.917 43.8485 643.105 44.0557L643.1 44.13Z" fill="#A6C5F3"/>
<path d="M662.997 29.0687C663.348 29.09 663.698 29.1272 664.049 29.2227C664.362 29.3183 664.66 29.3927 664.941 29.2281C665.015 29.1856 665.1 29.2121 665.185 29.2068C665.334 29.1909 665.477 29.1856 665.626 29.159C665.695 29.1484 665.759 29.0528 665.823 29.0793C666.136 29.1962 666.439 29.2599 666.752 29.0953C666.991 29.3024 667.225 29.1484 667.474 29.1165C667.724 29.074 667.963 29.1431 668.228 29.0103C668.297 28.9731 668.377 28.9731 668.435 29.0103C668.802 29.2599 669.205 29.2387 669.604 29.3236C669.816 29.3608 670.029 29.4192 670.225 29.5201C670.416 29.6317 670.597 29.7697 670.756 29.9344C670.926 30.1043 671.128 30.2318 671.335 30.3327C671.585 30.4495 671.829 30.5823 672.073 30.7204C672.408 30.954 672.748 31.1771 673.13 31.4214C673.635 31.7506 674.118 32.218 674.373 32.9455C674.421 33.1314 674.458 33.3651 674.431 33.5297C674.41 33.6996 674.373 33.8643 674.341 34.0289C674.182 34.6874 673.863 35.3088 673.459 35.7921C673.321 35.9939 673.162 36.1585 673.013 36.3338C672.87 36.5196 672.705 36.6736 672.546 36.833C672.397 36.987 672.254 37.141 672.1 37.279C671.946 37.4171 671.797 37.5765 671.632 37.6933C670.661 38.4208 669.614 38.9625 668.579 39.4564C668.335 39.5839 668.085 39.7113 667.841 39.8335C667.718 39.8919 667.586 39.9397 667.453 39.9769L665.987 40.3592C665.297 40.5557 664.612 40.7575 663.921 40.9328C663.528 41.0284 663.13 41.0974 662.78 41.3417C662.679 41.4108 662.615 41.3045 662.594 41.0443C662.551 40.5982 662.487 40.1362 662.604 39.8335C662.684 39.6264 662.764 39.4617 662.934 39.483C663.183 39.5148 663.364 39.2546 663.656 39.4511C663.698 39.4777 663.741 39.4564 663.773 39.4299C664.351 38.9572 665.053 38.9201 665.722 38.7554C665.939 38.7023 666.136 38.5855 666.348 38.5058C666.481 38.4527 666.619 38.4049 666.763 38.3677C666.964 38.3146 667.177 38.2828 667.368 38.1925C667.511 38.1235 667.628 37.996 667.851 38.1925C667.899 38.235 667.973 38.1925 667.979 38.1234C668 37.8579 668.127 37.8367 668.255 37.7942C668.589 37.688 668.935 37.5977 669.248 37.449C669.487 37.3428 669.705 37.2047 669.906 37.0347C670.225 36.7851 670.485 36.4665 670.761 36.201C670.969 35.9673 671.234 35.7921 671.404 35.5584C671.447 35.5053 671.462 35.4256 671.505 35.3778C671.595 35.2928 671.622 35.1601 671.755 35.1388C671.898 35.1123 671.999 35.0539 671.877 34.8361C671.808 34.7193 671.861 34.6556 671.919 34.6131C671.999 34.5546 672.11 34.5175 672.211 34.4697C672.333 34.4113 672.503 34.3475 672.365 34.1829C672.296 34.0979 672.365 34.0342 672.44 33.9758C672.615 33.8484 672.657 33.6678 672.7 33.4925C672.711 33.3385 672.679 33.2164 672.588 33.073C672.365 32.6959 671.962 32.3932 671.558 32.1489C671.383 32.064 671.261 31.9312 671.08 31.8462C670.581 31.5382 670.039 31.2302 669.444 30.9646C669.328 30.9168 669.205 30.8584 669.073 30.869C668.77 30.8903 668.483 30.8372 668.207 30.6991C667.867 30.5504 667.485 30.6248 667.129 30.6832C667.044 30.7044 666.959 30.7575 666.874 30.7363C666.587 30.6779 666.295 30.6885 666.003 30.731C665.711 30.7841 665.424 30.8531 665.127 30.8478C664.649 30.8531 664.155 30.8213 663.656 30.7788C663.268 30.7788 662.875 30.7522 662.477 30.7363C662.45 30.7363 662.429 30.7628 662.402 30.7575C662.174 30.7363 662.025 30.4495 662.009 29.9609C661.999 29.5308 662.094 29.2546 662.302 29.2174C662.53 29.1749 662.769 29.1643 662.997 29.1378V29.0687Z" fill="#A6C5F3"/>
<path d="M637.854 29.2335C638.677 32.0747 645.097 46.5091 646.675 49.3556C648.385 50.0513 650.95 50.7205 655.092 50.4496C659.845 50.1363 662.676 48.4369 664.269 47.4173C664.386 44.1724 663.573 28.9042 663.016 26.0205" fill="#CFE2F4"/>
<path d="M639.488 31.4691C639.669 32.1967 639.881 32.9189 640.03 33.6571C640.158 34.3156 640.285 34.9688 640.689 35.5265C640.795 35.6698 640.832 35.8557 640.906 36.0257C641.039 36.3284 641.167 36.6311 641.31 36.9285C641.374 37.0666 641.522 37.1728 641.549 37.3108C641.687 38.0012 641.926 38.6438 642.351 39.2068C642.383 39.7803 642.733 40.2052 643.009 40.6725C643.286 41.1398 643.471 41.655 643.833 42.0798C643.928 42.1913 644.008 42.3348 644.045 42.4728C644.247 43.3332 644.666 44.1032 645.075 44.8732C645.511 45.7017 645.861 46.5727 646.095 47.4914C646.222 47.9694 646.461 48.4633 646.684 48.8775L646.775 49.0421C646.812 49.0846 646.817 49.1696 646.892 49.1749C647.014 49.2174 647.131 49.2546 647.247 49.2864C647.529 49.3714 647.821 49.4457 648.108 49.5254C648.941 49.7431 649.802 49.86 650.662 49.8175C651.815 49.7697 652.951 49.6529 654.082 49.5042C654.661 49.4351 655.251 49.4564 655.829 49.4298C656.987 49.3767 658.145 49.2492 659.271 48.9572C660.115 48.7341 660.933 48.4049 661.703 47.9959C662.064 47.8047 662.409 47.5923 662.749 47.364L663.004 47.194C663.079 47.1409 663.201 47.0613 663.206 47.0506L663.371 46.9072C663.381 46.8648 663.365 46.801 663.365 46.7532C663.36 46.6948 663.355 46.6948 663.344 46.493L663.296 45.5637L663.174 43.689C663.089 42.441 662.983 41.1876 662.877 39.9343C662.824 39.3342 662.739 38.7341 662.675 38.134C662.643 37.8366 662.627 37.5339 662.616 37.2312C662.579 36.1106 662.553 34.9954 662.494 33.8748C662.404 32.2763 662.282 30.6778 662.16 29.0952C662.085 28.2083 662.038 27.2737 661.767 26.493C661.692 26.2752 661.799 26.1796 662.064 26.2168C662.521 26.2859 662.999 26.3284 663.323 26.732C663.535 27.0028 663.705 27.2683 663.684 27.6454C663.641 28.1871 663.907 28.7341 663.684 29.2811C663.652 29.3608 663.673 29.467 663.7 29.5519C664.13 31.0974 664.082 32.6852 664.146 34.2625C664.167 34.7777 664.247 35.2875 664.289 35.8026C664.316 36.1372 664.337 36.4717 664.353 36.8063C664.369 37.2896 664.353 37.7782 664.401 38.2615C664.433 38.6279 664.539 38.9784 664.289 39.3183C664.236 39.3926 664.263 39.5838 664.327 39.6476C664.581 39.8972 664.566 40.1999 664.576 40.5026C664.597 41.3204 664.587 42.1383 664.619 42.9561C664.64 43.5615 664.704 44.167 664.773 44.7671L664.959 46.1744C664.985 46.4346 665.022 46.578 665.038 47.0028L665.065 47.5658L665.075 47.8526L664.852 48.0119L664.088 48.5429C663.907 48.6598 663.748 48.7713 663.567 48.8828C663.222 49.1006 662.861 49.3077 662.5 49.5095C662.335 49.6051 662.181 49.7272 662.011 49.8122C661.692 49.9662 661.374 50.1627 661.034 50.1999C660.657 50.2424 660.386 50.3114 660.126 50.6247C659.982 50.8 659.68 50.869 659.441 50.9221C659.127 50.9805 658.798 50.9752 658.485 50.9646C658.102 50.9434 657.752 50.9221 657.385 51.1399C657.189 51.262 656.892 51.262 656.642 51.2301C655.559 51.1133 654.523 51.1983 653.466 51.2779C652.032 51.3841 650.572 51.416 649.09 51.2248C648.511 51.1505 647.932 51.0124 647.364 50.8478L647.035 50.7469L646.669 50.6194L646.1 50.4017C646.01 50.3592 645.904 50.3379 645.824 50.2795L645.681 50.014L645.24 49.1696L644.958 48.5801C644.592 47.7941 644.257 47.0082 643.928 46.2169C643.795 45.9088 643.673 45.5902 643.493 45.3087C643.073 44.6608 642.781 43.9598 642.537 43.2376C642.245 42.3666 641.783 41.57 641.331 40.7787C641.225 40.5929 641.092 40.4176 641.023 40.2211C640.545 38.835 639.759 37.5817 639.228 36.2168C638.798 35.1122 638.453 33.9757 638.108 32.8393C637.837 31.963 637.609 31.0655 637.38 30.1627C637.364 30.1043 637.327 30.0458 637.311 29.9821C637.205 29.4351 637.46 29.1961 637.991 29.297C638.469 29.382 638.787 29.5944 638.947 30.0299L639.43 31.4797L639.488 31.4691Z" fill="#A6C5F3"/>
<path d="M637.855 29.2335C638.221 31.6711 647.387 31.4215 652.576 30.593C653.84 30.3912 663.452 28.9361 663.017 26.0152C662.002 19.2069 636.702 21.5436 637.855 29.2335Z" fill="#CFE2F4"/>
<path d="M639.966 29.908C640.545 30.1789 641.204 30.3648 641.852 30.5878C642.431 30.7843 643.025 30.9649 643.652 30.8374C643.811 30.8056 643.987 30.848 644.151 30.848C644.454 30.8534 644.762 30.8587 645.065 30.848C645.203 30.8427 645.352 30.7525 645.479 30.779C646.111 30.9224 646.748 30.9436 647.375 30.7471C647.879 30.9277 648.363 30.7471 648.851 30.6462C649.34 30.5453 649.85 30.54 650.322 30.3329C650.444 30.2798 650.593 30.2479 650.726 30.2586C651.544 30.3382 652.319 30.163 653.116 29.9824C653.96 29.7965 654.815 29.6903 655.691 29.6903C656.159 29.6903 656.626 29.5735 657.083 29.462C657.625 29.3239 658.15 29.1168 658.676 28.9309C659.441 28.6707 660.174 28.3308 660.806 27.8581C661.215 27.5448 661.608 27.2102 661.857 26.8704C661.99 26.7057 662.059 26.5358 662.096 26.4136C662.112 26.2915 662.08 26.2224 662.054 26.1534L662.048 26.1428C661.931 25.8135 661.847 25.4577 661.581 25.1231C661.071 24.4487 660.163 23.8804 659.175 23.5193C658.426 23.2485 657.625 23.0891 656.817 22.9988C656.063 22.9139 655.293 22.9298 654.534 22.9245C652.271 22.9192 649.998 23.1688 647.8 23.6468C647.269 23.7636 646.754 23.9229 646.238 24.0769C645.983 24.1513 645.723 24.2203 645.463 24.2787C644.502 24.5124 643.557 24.7832 642.67 25.1603C641.411 25.6914 640.227 26.4349 639.536 27.3217C639.154 27.8156 638.952 28.3573 639.138 28.8672C639.191 29.0052 639.074 29.0743 638.819 29.053C638.379 28.9999 637.885 28.9415 637.635 28.5007C637.486 28.2033 637.391 27.8634 637.582 27.5182C637.842 27.0403 637.986 26.4189 638.533 26.1853C638.607 26.1534 638.665 26.0684 638.713 25.9941C639.122 25.3249 639.738 24.8257 640.391 24.438C641.045 24.0451 641.751 23.7636 642.447 23.5034C642.903 23.3281 643.344 23.121 643.806 22.9564C644.104 22.8502 644.406 22.7546 644.714 22.6802C645.155 22.5634 645.612 22.4943 646.053 22.3722C646.382 22.2819 646.695 22.1279 647.051 22.3297C647.125 22.3722 647.301 22.3244 647.348 22.2501C647.545 21.9686 647.832 21.9473 648.113 21.9102C648.878 21.8093 649.643 21.7615 650.407 21.6924C650.97 21.6393 651.538 21.5703 652.101 21.4906C652.978 21.3738 653.865 21.2357 654.762 21.2038C655.511 21.1773 656.27 21.2357 657.03 21.2995C657.205 21.3101 657.386 21.2941 657.561 21.3154C657.885 21.3632 658.235 21.3685 658.517 21.5278C658.83 21.6977 659.08 21.7827 659.446 21.6712C659.653 21.6074 659.929 21.7084 660.152 21.8093C660.434 21.942 660.689 22.1332 660.933 22.335C661.225 22.5793 661.469 22.8236 661.894 22.9086C662.128 22.9564 662.351 23.1847 662.51 23.3971C663.057 24.1353 663.578 24.9426 663.758 25.9038C663.774 26.0578 663.79 26.2118 663.79 26.3658C663.769 26.5198 663.764 26.6792 663.721 26.8279C663.588 27.3271 663.318 27.7041 663.047 28.0068C662.771 28.3201 662.473 28.5591 662.176 28.7822C661.576 29.2177 660.96 29.5576 660.333 29.8603C659.844 30.0939 659.335 30.2692 658.835 30.4391C657.269 30.9649 655.67 31.241 654.077 31.4535C653.764 31.496 653.445 31.5278 653.148 31.6234C652.468 31.8465 651.73 31.9261 651.013 31.9314C650.142 31.942 649.297 32.1067 648.442 32.2607C648.246 32.2978 648.044 32.3616 647.842 32.3563C646.456 32.3085 645.075 32.5581 643.668 32.4572C642.532 32.3775 641.395 32.1598 640.253 31.8252C639.812 31.6871 639.366 31.5278 638.926 31.3101C638.485 31.0817 638.028 30.8215 637.624 30.3329C637.571 30.2639 637.502 30.2054 637.455 30.1364C637.253 29.7965 637.285 29.4832 637.412 29.3611C637.534 29.2283 637.741 29.2654 638.002 29.3026C638.474 29.3823 638.687 29.2601 638.91 29.4407C639.17 29.6319 639.552 29.8231 639.961 29.9665L639.966 29.908Z" fill="#A6C5F3"/>
<path d="M640.954 30.6884C644.055 30.9433 648.033 31.0495 650.89 30.5981C651.963 30.4281 659.09 30.3485 661.219 28.2454C659.233 24.9103 640.454 26.5832 640.954 30.6884Z" fill="#A6C5F3"/>
<path d="M642.854 30.051C643.359 30.1838 643.874 30.2793 644.378 30.444C644.83 30.5927 645.276 30.7361 645.743 30.5927C645.865 30.5555 645.993 30.5927 646.12 30.5874C646.349 30.5821 646.577 30.5874 646.805 30.5661C646.912 30.5555 647.018 30.4652 647.113 30.4918C647.591 30.6299 648.064 30.6511 648.531 30.4599C648.914 30.6405 649.27 30.4652 649.625 30.3643C649.987 30.2634 650.364 30.2634 650.698 30.0563C650.778 30.0032 650.911 29.9713 651.027 29.9873C651.681 30.0935 652.254 30.0032 652.865 29.9076C653.508 29.812 654.15 29.8014 654.809 29.9182C655.159 29.9713 655.515 29.9288 655.865 29.8704C656.28 29.812 656.683 29.6792 657.087 29.5837C657.666 29.4509 658.261 29.2385 658.739 28.9464C659.137 28.6171 659.201 28.3887 659.147 28.24V28.2347C659.163 28.2029 659.089 28.1551 659.089 28.1179C659.078 28.0807 659.068 28.0383 659.041 28.0011C658.983 27.9267 658.898 27.8471 658.77 27.7674C658.739 27.7462 658.707 27.7302 658.67 27.709C658.638 27.6877 658.6 27.6771 658.489 27.64C658.303 27.5815 658.112 27.5284 657.915 27.4806C657.331 27.3425 656.715 27.2947 656.104 27.2788C655.531 27.2629 654.957 27.3266 654.384 27.3532C652.684 27.4381 650.985 27.6399 649.323 27.9586C648.924 28.0382 648.531 28.1498 648.138 28.2453C647.942 28.2985 647.745 28.3303 647.544 28.3622C646.805 28.479 646.073 28.6065 645.372 28.7977C644.373 29.0738 643.38 29.4615 642.684 29.9341C642.493 30.0669 642.329 30.205 642.254 30.3218C642.169 30.444 642.217 30.513 642.254 30.5024C642.334 30.4971 642.18 30.5183 641.941 30.5396C641.511 30.5502 641.001 30.4918 640.836 30.0829C640.73 29.812 640.735 29.4987 640.974 29.2916C641.309 29.0207 641.532 28.5852 642.01 28.5906C642.074 28.5906 642.132 28.5375 642.18 28.495C643.019 27.6399 644.193 27.4169 645.26 27.1567C645.616 27.0717 645.956 26.9389 646.306 26.8434C646.535 26.7796 646.763 26.7318 646.997 26.6893C647.337 26.6309 647.676 26.615 648.011 26.5353C648.261 26.4769 648.494 26.3547 648.765 26.5831C648.818 26.6309 648.951 26.599 648.988 26.53C649.137 26.2645 649.349 26.2645 649.562 26.2432C650.135 26.1954 650.709 26.1795 651.277 26.1317C651.697 26.0945 652.121 26.0361 652.541 25.9564C653.194 25.8396 653.847 25.6909 654.517 25.6166C655.074 25.5581 655.637 25.5635 656.205 25.5581C656.338 25.5581 656.471 25.5157 656.604 25.521C656.843 25.5316 657.108 25.4997 657.321 25.6113C657.56 25.7387 657.751 25.7812 658.022 25.6113C658.17 25.5157 658.383 25.5634 658.553 25.6166C658.664 25.6537 658.765 25.7015 658.871 25.76L659.025 25.8502L659.254 25.9671C659.641 26.1795 659.902 26.3601 660.411 26.4079C660.698 26.4344 660.932 26.6256 661.065 26.7796C661.309 27.0558 661.489 27.3054 661.675 27.5656L661.973 27.9745L662.132 28.2029C662.148 28.2719 662.153 28.3303 662.169 28.3994L661.734 28.7977C661.298 29.2013 660.783 29.6208 660.093 29.982L659.54 30.2422C659.355 30.3271 659.137 30.4333 659.047 30.4652C658.808 30.5608 658.563 30.6617 658.319 30.752C657.937 30.8795 657.544 30.9857 657.156 31.0653C655.945 31.3415 654.724 31.4158 653.523 31.4477C653.29 31.453 653.046 31.4477 652.822 31.5167C652.307 31.6654 651.755 31.6707 651.272 31.6389C651.213 31.6336 651.155 31.6336 651.096 31.6336C651.022 31.6389 650.932 31.6495 650.852 31.6548C650.688 31.6761 650.523 31.7079 650.358 31.7345C650.034 31.7982 649.71 31.8779 649.386 31.9522C649.238 31.9894 649.084 32.0478 648.935 32.0425C647.878 31.9894 646.848 32.2337 645.812 32.1806C644.973 32.1381 644.145 31.9894 643.322 31.8407C642.684 31.7292 642.058 31.5751 641.431 31.4318C641.389 31.4211 641.346 31.4371 641.304 31.4264C640.948 31.3308 640.863 31.0069 641.07 30.5449C641.256 30.1307 641.505 29.9076 641.824 29.9341C642.175 29.966 642.525 30.0244 642.876 30.0722L642.854 30.051Z" fill="#A6C5F3"/>
<path d="M722.092 271.674C721.908 270.051 721.983 268.389 722.46 266.87C722.886 265.513 723.501 264.31 724.163 263.039C724.359 262.723 724.594 262.401 724.865 262.124C725.325 261.589 725.866 261.129 726.424 260.703C726.683 260.519 726.924 260.249 727.212 260.14C727.914 259.864 728.638 259.697 729.358 259.576C730.077 259.484 730.801 259.409 731.526 259.369C732.637 259.657 733.73 259.674 734.84 259.887C735.95 260.077 737.02 260.473 738.119 260.681C738.412 260.732 738.734 260.83 738.999 260.968C740.627 261.756 742.278 262.475 743.935 263.079C745.718 263.724 747.495 264.339 749.296 264.926C750.257 265.242 751.304 265.403 752.333 265.484C753.57 265.593 754.767 265.507 756.021 265.392C757.793 265.3 759.53 264.909 761.169 264.293C763.355 263.447 765.426 262.331 767.325 261.008C768.285 260.33 769.298 259.691 770.218 258.943C772.059 257.453 773.71 255.699 774.878 253.645C775.125 253.271 775.275 252.857 775.465 252.454C775.551 252.253 775.649 252.052 775.729 251.845L775.925 251.212C776.224 250.372 776.356 249.521 776.419 248.669C776.437 247.875 776.356 247.087 776.155 246.328C775.936 245.574 775.631 244.844 775.252 244.142C774.095 242.059 772.312 240.265 770.483 238.499C768.642 236.732 766.703 234.972 764.937 232.965C764.092 231.998 763.258 231.003 762.515 229.91C762.159 229.358 761.819 228.788 761.52 228.19C760.98 227.085 760.508 225.929 760.186 224.727C759.829 223.507 759.685 222.196 759.708 220.93C759.743 219.101 760.122 217.335 760.709 215.684C761.29 214.027 762.055 212.468 762.93 211.007C763.925 209.344 765.029 207.774 766.082 206.186C766.37 205.732 766.577 205.674 766.675 206.008C766.841 206.577 767.072 207.095 766.767 207.975C766.548 208.568 766.37 209.12 765.881 209.684C765.185 210.524 764.776 211.594 764.011 212.382C763.902 212.491 763.798 212.687 763.741 212.854C763.131 214.332 762.55 215.793 762.107 217.3C761.658 218.802 761.405 220.361 761.486 221.914C761.537 222.938 761.819 223.91 762.165 224.882C762.389 225.509 762.63 226.13 762.912 226.735C763.309 227.615 763.752 228.489 764.31 229.283C764.73 229.887 765.219 230.405 765.409 231.101C765.449 231.245 765.702 231.544 765.84 231.607C766.381 231.843 766.749 232.32 767.158 232.78C768.245 234.017 769.401 235.22 770.592 236.387C771.49 237.25 772.387 238.107 773.279 238.97C774.659 240.322 776.046 241.749 777.035 243.572C777.461 244.32 777.754 245.16 777.978 246.017C778.186 246.88 778.266 247.777 778.255 248.669C778.243 249.078 778.243 249.486 778.197 249.894C778.122 250.263 778.076 250.648 777.99 251.01C777.886 251.367 777.766 251.712 777.616 252.029C777.535 252.201 777.461 252.368 777.397 252.529C777.317 252.684 777.248 252.834 777.185 252.989C777.064 253.294 776.983 253.611 776.943 253.985C776.903 254.404 776.552 254.939 776.287 255.377C776.12 255.664 775.913 255.917 775.695 256.159C775.476 256.401 775.257 256.636 775.045 256.872C774.797 257.16 774.498 257.384 774.251 257.666C773.992 257.931 773.785 258.253 773.56 258.598C773.325 258.972 772.859 259.369 772.473 259.674C770.707 260.951 768.976 262.222 767.118 263.344C764.604 264.863 761.848 266.048 758.903 266.64C758.322 266.749 757.747 266.876 757.154 266.911L755.451 267.054C753.605 267.204 751.741 267.066 749.952 266.732C748.157 266.404 746.42 265.892 744.74 265.265C744.078 265.018 743.423 264.742 742.761 264.529C741.996 264.27 741.254 263.982 740.569 263.683C739.879 263.378 739.183 263.068 738.487 262.763C736.819 262.027 735.053 261.555 733.327 261.336C732.924 261.279 732.516 261.273 732.136 261.215C731.463 261.089 730.801 261.083 730.163 261.118C729.536 261.181 728.943 261.325 728.414 261.561C728.149 261.681 727.896 261.819 727.643 261.992C727.39 262.153 727.126 262.366 726.913 262.567C726.798 262.671 726.677 262.763 726.568 262.872L726.257 263.212C726.033 263.424 725.866 263.689 725.67 263.936C724.491 265.582 723.801 267.727 723.824 269.913C723.806 271.605 724.209 273.307 724.957 274.872C725.009 274.976 725.078 275.073 725.129 275.171C725.607 276.017 725.526 276.512 724.83 276.402C724.52 276.351 724.203 276.207 723.893 275.965C723.599 275.712 723.34 275.35 723.099 274.895C722.65 273.86 722.311 272.784 722.138 271.679L722.092 271.674Z" fill="#A6C5F3"/>
<path d="M769.377 199.329L762.169 207.923C762.031 208.085 762.129 208.332 762.336 208.361C764.028 208.596 765.943 208.976 768.02 209.586C770.585 210.345 772.783 211.277 774.584 212.18C774.791 212.284 775.021 212.1 774.963 211.875C773.98 207.946 773.002 204.012 772.018 200.083" fill="#CFE2F4"/>
<path d="M768.964 201.107C768.584 201.377 768.228 201.676 767.819 201.918C767.451 202.131 767.083 202.338 766.945 202.752C766.91 202.861 766.807 202.924 766.738 203.011C766.611 203.166 766.479 203.316 766.364 203.482C766.312 203.557 766.324 203.695 766.243 203.736C765.852 203.954 765.553 204.242 765.42 204.673C765.041 204.783 764.96 205.128 764.799 205.421C764.638 205.714 764.391 205.939 764.31 206.295C764.287 206.388 764.241 206.474 764.161 206.526C764.063 206.583 763.965 206.658 763.884 206.721C763.827 206.761 763.769 206.813 763.723 206.865C763.626 206.969 763.545 207.089 763.482 207.193L763.407 207.314C763.332 207.446 763.217 207.561 763.062 207.722C762.999 207.814 763.004 207.935 763.039 207.992C763.079 208.038 763.114 208.079 763.154 208.136C763.24 208.257 763.528 208.297 763.775 208.338C764.086 208.389 764.368 208.378 764.759 208.441C765.294 208.522 765.829 208.579 766.387 208.556C767.135 208.528 767.883 208.562 768.619 208.66C768.993 208.712 769.338 208.896 769.683 209.045C770.379 209.35 771.041 209.713 771.72 210.029C771.973 210.15 772.237 210.259 772.496 210.363L772.692 210.437L772.789 210.472L772.968 210.529C773.043 210.552 773.106 210.558 773.163 210.564C773.273 210.57 773.342 210.558 773.411 210.564C773.445 210.57 773.491 210.587 773.52 210.524C773.549 210.46 773.497 210.38 773.474 210.322C773.417 210.196 773.359 210.086 773.313 210L773.244 209.885L773.209 209.839L773.192 209.816L773.152 209.69L772.795 208.597C772.68 208.246 772.536 207.906 772.416 207.555C772.358 207.383 772.312 207.204 772.272 207.026C772.134 206.359 772.013 205.686 771.858 205.024L771.173 202.182C771.052 201.642 770.949 201.101 770.667 200.6C770.586 200.462 770.701 200.382 770.983 200.37C771.472 200.353 771.973 200.307 772.318 200.497C772.548 200.623 772.732 200.75 772.72 200.986C772.697 201.325 772.997 201.601 772.795 201.981C772.766 202.033 772.795 202.096 772.824 202.142C773.371 202.988 773.434 203.954 773.629 204.892C773.693 205.197 773.819 205.49 773.911 205.789C773.969 205.985 774.021 206.18 774.061 206.376C774.124 206.664 774.147 206.963 774.245 207.239C774.314 207.452 774.458 207.636 774.228 207.9C774.182 207.958 774.222 208.067 774.297 208.09C774.59 208.177 774.607 208.366 774.642 208.545L774.786 209.275L774.878 209.707L774.993 210.178C775.102 210.633 775.315 211.162 775.395 211.611C775.453 211.968 775.51 212.261 775.482 212.543C775.441 212.704 775.28 212.859 775.16 212.917C775.05 212.963 774.952 212.974 774.849 213.003C774.722 213.026 774.567 213.043 774.406 213.043C774.205 212.997 774.021 213.003 773.79 212.911C773.526 212.796 773.261 212.681 772.991 212.577C772.818 212.514 772.634 212.485 772.462 212.416C772.301 212.359 772.134 212.295 771.973 212.232C771.852 212.186 771.783 212.152 771.714 212.071C771.564 211.899 771.42 211.818 771.162 211.962C771.018 212.042 770.862 211.968 770.747 211.898C770.592 211.806 770.465 211.663 770.333 211.519C770.178 211.352 770.034 211.174 769.764 211.266C769.62 211.312 769.482 211.202 769.372 211.105C768.895 210.644 768.302 210.478 767.698 210.386C766.876 210.253 766.042 210.196 765.219 210.127C764.897 210.098 764.581 210.04 764.264 209.994L762.999 209.787L762.262 209.666C762.021 209.626 761.86 209.523 761.658 209.454C761.532 209.356 761.388 209.252 761.296 209.16C761.215 209.057 761.135 208.982 761.06 208.855C760.979 208.717 760.916 208.499 760.91 208.343C760.91 208.205 760.933 208.09 760.962 207.946C761.014 207.722 761.118 207.458 761.25 207.176L761.325 207.038C761.526 206.727 761.773 206.411 762.038 206.106C762.17 205.95 762.308 205.801 762.446 205.657C762.527 205.571 762.556 205.548 762.596 205.507L762.717 205.404C763.148 205.041 763.43 204.558 763.7 204.069C763.764 203.954 763.804 203.822 763.902 203.736C764.575 203.143 764.96 202.315 765.564 201.67C766.053 201.147 766.617 200.692 767.163 200.221C767.583 199.858 768.032 199.513 768.469 199.162C768.498 199.139 768.504 199.093 768.533 199.076C768.791 198.886 769.114 199.03 769.418 199.473C769.689 199.87 769.758 200.198 769.568 200.411C769.361 200.641 769.131 200.854 768.906 201.078L768.964 201.107Z" fill="#A6C5F3"/>
<path d="M769.378 199.329C761.083 196.136 758.368 187.099 757.143 183.015C756.654 181.375 751.712 163.876 763.35 151.807C764.535 150.576 774.734 140.302 785.871 143.65C798.561 147.47 800.391 165.36 800.586 167.586C801.426 177.09 798.216 189.659 788.172 196.136C786.527 197.195 778.048 202.666 769.378 199.329Z" fill="#CFE2F4"/>
<path d="M762.993 196.01C761.647 194.463 760.549 192.726 759.749 190.913C759.036 189.291 758.512 187.669 757.764 186.047C757.574 185.627 757.454 185.144 757.304 184.689C757.039 183.861 756.781 183.032 756.545 182.181C756.441 181.796 756.246 181.41 756.2 181.042C755.964 179.23 755.751 177.447 755.423 175.646C755.527 174.214 755.319 172.833 755.285 171.401C755.25 169.968 755.417 168.524 755.452 167.092C755.458 166.712 755.509 166.281 755.613 165.907C756.2 163.652 756.798 161.414 757.701 159.245C758.644 156.916 760.071 154.787 761.803 153.01C762.263 152.538 762.735 152.055 763.206 151.572C763.689 151.094 764.178 150.628 764.679 150.174C765.87 149.104 767.089 148.068 768.407 147.148C770.316 145.819 772.336 144.651 774.481 143.691C777.335 142.39 780.619 141.723 783.91 142.109C785.578 142.31 787.218 142.897 788.713 143.673C791.739 145.232 794.098 147.746 795.858 150.496C797.198 152.567 798.245 154.793 799.102 157.071C799.896 159.205 800.552 161.38 801.007 163.612C802.41 170.233 801.915 177.291 799.545 183.723C798.953 185.259 798.32 186.795 797.486 188.239L796.859 189.32L796.14 190.344C794.333 192.858 792.078 195.061 789.513 196.804C787.712 198.07 785.756 199.111 783.708 199.939C781.661 200.756 779.498 201.372 777.254 201.584C774.711 201.832 772.111 201.567 769.615 200.888C768.907 200.704 768.735 200.509 769.085 200.336C769.689 200.014 770.178 199.698 771.34 199.709C771.737 199.692 772.111 199.686 772.502 199.715C772.888 199.738 773.302 199.738 773.762 199.83C774.096 199.905 774.441 199.916 774.786 199.916C775.131 199.916 775.482 199.928 775.827 199.911C776.524 199.847 777.214 199.847 777.898 199.864C778.094 199.876 778.364 199.824 778.589 199.772C780.55 199.249 782.449 198.553 784.295 197.713C785.216 197.287 786.125 196.833 786.999 196.321C787.891 195.82 788.707 195.216 789.542 194.647C790.071 194.25 790.554 193.79 791.055 193.353C791.549 192.915 791.975 192.392 792.441 191.926C792.752 191.627 793.01 191.282 793.287 190.954L794.109 189.959L795.208 188.44C795.553 187.922 795.864 187.376 796.18 186.835C796.427 186.432 796.577 185.989 796.801 185.592C797.003 185.19 797.273 184.827 797.555 184.482C797.676 184.338 797.86 183.872 797.86 183.682C797.894 182.969 798.17 182.25 798.429 181.514C799.097 179.523 799.649 177.475 799.919 175.376C800.029 174.605 800.08 173.823 800.138 173.046C800.144 172.264 800.195 171.487 800.144 170.71C800.109 169.508 799.977 168.312 799.81 167.127C799.62 165.942 799.379 164.768 799.108 163.594C798.648 161.639 798.124 159.694 797.411 157.83C797.256 157.399 797.031 156.996 796.865 156.565C796.537 155.788 796.128 155.006 795.852 154.264C795.559 153.435 795.231 152.82 794.621 152.256C794.276 151.94 793.902 151.341 793.58 150.87L792.97 149.949C792.769 149.644 792.573 149.334 792.355 149.046C791.86 148.327 791.313 147.694 790.491 147.234C790.036 147.01 789.53 146.55 789.076 146.21C787.114 144.645 784.531 143.857 781.994 143.834C778.52 143.788 775.143 144.973 772.123 146.705C770.938 147.389 769.77 148.12 768.66 148.943C766.945 150.22 765.271 151.618 763.845 153.165C762.401 154.712 761.135 156.433 760.106 158.291C759.916 158.665 759.72 159.038 759.53 159.407C759.352 159.786 759.202 160.177 759.059 160.563C758.443 162.363 757.902 164.175 757.465 166.039C756.936 168.289 756.867 170.618 757.005 172.908C757.034 173.443 757.12 173.984 757.12 174.507C757.166 176.354 757.419 178.195 757.816 179.995C758.012 180.892 758.248 181.79 758.512 182.636L759.364 185.299C760.295 188.129 761.463 190.856 763.154 193.232C764.478 195.044 766.088 196.643 768.027 197.799C768.153 197.88 768.297 197.937 768.43 198.001C769.557 198.582 769.839 199.082 769.068 199.306C768.723 199.404 768.303 199.416 767.826 199.335C767.342 199.26 766.842 199.007 766.284 198.691C765.099 197.914 763.994 197.011 763.051 195.964L762.993 196.01Z" fill="#A6C5F3"/>
<path d="M764.442 164.952C764.218 165.418 764.028 165.902 763.758 166.368C763.516 166.782 763.326 167.213 763.407 167.696C763.43 167.823 763.372 167.944 763.355 168.07C763.315 168.295 763.303 168.525 763.297 168.755C763.297 168.858 763.384 168.979 763.343 169.071C763.154 169.532 763.044 170.009 763.24 170.486C763.021 170.855 763.177 171.223 763.246 171.597C763.309 171.965 763.315 172.344 763.505 172.695C763.556 172.787 763.579 172.897 763.556 173C763.395 173.616 763.597 174.197 763.717 174.784C763.861 175.411 763.982 176.032 763.919 176.716C763.913 177.073 764.028 177.418 764.137 177.752C764.201 177.953 764.281 178.149 764.362 178.344C764.46 178.534 764.557 178.718 764.644 178.914C764.77 179.19 764.902 179.466 765.052 179.731C765.213 179.99 765.403 180.231 765.604 180.461C766.122 181.094 766.703 181.664 767.209 182.268C767.491 182.555 767.675 182.918 767.882 183.263C768.089 183.614 768.343 183.924 768.573 184.258C768.693 184.419 768.803 184.592 768.935 184.747L769.343 185.196C769.556 185.414 769.769 185.639 769.999 185.834C770.241 186.018 770.488 186.197 770.741 186.375C771.19 186.726 771.737 186.927 772.226 187.209C773.704 187.98 775.286 188.527 776.908 188.826C777.294 188.912 777.702 188.912 778.093 188.964C778.289 188.992 778.484 189.016 778.68 189.05C779.399 189.188 780.13 189.303 780.872 189.343C781.93 189.407 783 189.355 784.059 189.257C784.657 189.2 785.267 189.148 785.813 188.877C785.968 188.803 786.049 188.918 786.043 189.2C786.032 189.689 786.049 190.201 785.796 190.534C785.623 190.764 785.451 190.943 785.18 190.914C784.789 190.874 784.415 191.138 784.013 190.891C783.955 190.856 783.88 190.874 783.823 190.897C782.736 191.322 781.579 191.178 780.463 191.075C780.095 191.046 779.727 191.058 779.353 191.04C779.111 191.035 778.876 190.989 778.64 190.954C778.295 190.897 777.955 190.805 777.616 190.753C777.357 190.718 777.086 190.753 776.92 190.431C776.885 190.367 776.747 190.344 776.69 190.396C776.448 190.603 776.241 190.517 776.034 190.454C775.464 190.298 774.935 190.034 774.377 189.85C773.969 189.694 773.56 189.545 773.134 189.435C772.801 189.349 772.484 189.223 772.151 189.125C771.823 189.016 771.483 188.918 771.179 188.757C770.661 188.498 770.143 188.216 769.666 187.876C769.551 187.802 769.413 187.761 769.303 187.687C769.102 187.543 768.854 187.428 768.734 187.215C768.613 186.962 768.486 186.807 768.153 186.812C767.963 186.812 767.819 186.657 767.704 186.519C767.566 186.341 767.457 186.133 767.382 185.903C767.284 185.633 767.209 185.38 766.893 185.288C766.72 185.236 766.628 185.04 766.565 184.874C766.427 184.5 766.277 184.149 766.065 183.838C765.863 183.522 765.604 183.246 765.391 182.935C765.087 182.527 764.741 182.13 764.454 181.704C764.166 181.273 763.873 180.847 763.597 180.398C763.401 180.041 763.246 179.662 763.073 179.294C762.791 178.718 762.647 178.097 762.469 177.493C762.302 176.883 762.227 176.25 762.118 175.635C762.072 175.393 762.072 175.14 761.98 174.91C761.79 174.369 761.692 173.811 761.756 173.242C761.813 172.563 761.635 171.902 761.549 171.229C761.526 171.073 761.468 170.912 761.485 170.757C761.52 170.486 761.526 170.216 761.531 169.946C761.549 169.675 761.554 169.405 761.554 169.135C761.554 168.594 761.543 168.047 761.664 167.518C761.75 167.087 761.854 166.661 761.98 166.241L762.435 165.01C762.647 164.377 762.998 163.785 763.28 163.186C763.297 163.146 763.292 163.094 763.315 163.06C763.493 162.726 763.85 162.726 764.293 163.06C764.684 163.353 764.868 163.658 764.77 163.957C764.661 164.291 764.517 164.613 764.391 164.941L764.442 164.952Z" fill="#A6C5F3"/>
<path d="M52.8579 175.992L54.07 180.457C54.0737 180.47 54.0773 180.484 54.0847 180.495C55.2709 182.488 56.7283 184.673 58.5197 186.944C60.5023 189.455 62.4881 191.555 64.3122 193.284C64.3956 193.361 64.5271 193.327 64.5617 193.219C70.7099 175.392 76.8581 157.564 83.0026 139.739C83.0581 139.575 82.8482 139.459 82.7387 139.59L52.8827 175.853C52.8556 175.893 52.8457 175.942 52.8579 175.992Z" fill="#A6C5F3"/>
<path d="M55.0362 180.836C55.7492 182.165 56.5384 183.465 57.3154 184.746C58.0078 185.892 58.7235 187.001 59.6938 187.972C59.944 188.221 60.1684 188.535 60.41 188.81C60.8515 189.314 61.2966 189.816 61.7554 190.298C61.9663 190.52 62.24 190.7 62.4153 190.923C62.8788 191.509 63.4381 192.126 63.8281 192.505C63.9189 192.594 64.0097 192.682 64.1017 192.765L64.2366 192.888C64.2759 192.931 64.3545 192.937 64.4012 192.895C64.5097 192.658 64.5494 192.382 64.6099 192.145C64.6567 192.071 64.706 191.986 64.7503 191.892L64.8169 191.752L64.8921 191.569C64.9907 191.318 65.0807 191.061 65.1585 190.802C65.3202 190.285 65.4548 189.76 65.6091 189.232C65.9178 188.176 66.316 187.134 66.5436 186.069C66.6042 185.784 66.6993 185.471 66.8176 185.2C67.5287 183.574 68.0545 181.884 68.6036 180.19C69.1872 178.372 69.8507 176.585 70.6198 174.846C71.0302 173.919 71.3694 172.917 71.7074 171.937C72.1083 170.772 72.4651 169.588 72.8537 168.421C73.42 166.72 73.9531 165.026 74.4175 163.308C75.0399 161.012 75.6993 158.707 76.3979 156.413C76.7509 155.248 77.2046 154.09 77.6313 152.94C78.4835 150.629 79.3638 148.337 80.1988 146.017L80.8032 144.302L81.0932 143.418L81.2549 142.901C81.303 142.741 81.3438 142.602 81.3746 142.481C81.3845 142.448 81.3268 142.417 81.2776 142.439C81.2334 142.468 81.2063 142.523 81.1694 142.564L80.9762 142.825L80.3435 143.698L80.1552 143.951L80.0678 144.067L80.0272 144.126L79.9275 144.256L78.7301 145.759L76.3365 148.759L71.5481 154.765L69.2725 157.671C68.891 158.153 68.501 158.63 68.106 159.1L63.7081 164.341L57.4666 171.898C56.2816 173.324 55.0831 174.737 54.0024 176.232C53.9274 176.335 53.856 176.42 53.7957 176.481C53.7797 176.497 53.7674 176.51 53.7526 176.52L53.733 176.538L53.7219 176.546C53.4777 176.346 53.2397 176.148 53.0066 175.958L53.4557 176.329L53.4544 176.319L53.4495 176.296L53.4422 176.253L53.4155 176.069C53.4022 175.945 53.3901 175.814 53.3952 175.678C53.4029 175.402 53.471 175.08 53.6657 174.669C53.9318 174.109 54.2028 173.605 54.7183 173.06C55.4675 172.275 56.0598 171.286 56.9096 170.604C57.0313 170.507 57.1594 170.331 57.2652 170.187C59.0969 167.565 61.2365 165.176 63.2964 162.722C63.9695 161.918 64.6033 161.087 65.2605 160.268L66.5526 158.691C67.1876 157.934 67.8409 157.197 68.4538 156.423C68.9165 155.839 69.3215 155.24 69.9154 154.861C70.0396 154.784 70.2808 154.475 70.3252 154.333C70.5029 153.801 70.9089 153.339 71.3076 152.867C72.372 151.596 73.4561 150.338 74.507 149.055C75.2859 148.107 76.0403 147.137 76.78 146.162C77.3486 145.401 77.9173 144.64 78.4859 143.879L78.9105 143.31L79.5751 142.453L81.0211 140.604C81.2267 140.346 81.4432 140.063 81.6487 139.82C81.7533 139.698 81.832 139.64 81.9181 139.562C81.9931 139.506 82.0731 139.443 82.1432 139.396C82.4272 139.207 82.6251 139.113 82.8145 139.014L83.064 138.885L83.1242 138.856C83.139 138.846 83.1636 138.835 83.209 138.847C83.2986 138.862 83.4299 138.956 83.4495 139.001C83.4775 139.163 83.5056 139.31 83.5508 139.498C83.5861 139.687 83.7014 139.796 83.7059 140.139C83.7008 140.259 83.692 140.382 83.6389 140.566C83.3403 141.477 83.0232 142.465 82.6484 143.373C82.3982 143.981 82.2009 144.484 82.0393 144.969C81.948 145.264 81.8886 145.559 81.8684 145.896C81.8433 146.275 81.6435 146.822 81.4746 147.264C81.2551 147.83 80.9914 148.378 80.7388 148.918C80.4296 149.565 80.1326 150.166 80.0087 150.94C79.9417 151.351 79.7174 151.878 79.5166 152.304C78.6429 154.182 77.9792 156.16 77.3547 158.149C76.5216 160.857 75.6898 163.558 74.8579 166.259C74.5296 167.318 74.1731 168.373 73.8202 169.427C72.7345 172.706 71.5591 175.955 70.3751 179.199C70.1445 179.836 69.8991 180.483 69.7188 181.124C69.3003 182.615 68.7798 184.056 68.2188 185.492C67.5406 187.225 67.0123 188.99 66.4828 190.762C66.3581 191.175 66.2592 191.602 66.1063 191.996L65.9349 192.466L65.7117 193.083C65.6364 193.282 65.5723 193.505 65.4823 193.682C65.3899 193.855 65.2792 193.976 65.1685 194.066C65.0566 194.162 64.9632 194.213 64.8574 194.262C64.7984 194.285 64.7087 194.318 64.6264 194.33C64.5404 194.345 64.4888 194.347 64.4188 194.33L64.0258 194.251C63.9927 194.241 63.9632 194.245 63.9251 194.227L63.8098 194.15L63.5754 193.997L61.9414 192.419C61.5685 192.05 61.1993 191.678 60.8375 191.302C60.1077 190.548 59.4086 189.768 58.7453 188.954C57.2064 187.062 55.8409 185.04 54.5983 182.962C54.3569 182.559 54.1216 182.157 53.8974 181.747L53.558 181.132L53.4624 180.957C53.4159 180.871 53.3865 180.778 53.3474 180.687C53.3315 180.64 53.3217 180.593 53.312 180.546L53.2912 180.459L53.2546 180.292L52.6517 177.592C52.6248 177.472 52.5746 177.356 52.5502 177.239C52.3294 176.211 52.497 175.823 53.0124 176.198C53.4664 176.529 53.85 177.147 54.0907 178.061L54.4779 179.58L54.6427 180.252L54.7983 180.526L54.9956 180.863L55.0362 180.836Z" fill="#A6C5F3"/>
<path d="M54.1038 180.442L82.8265 139.592C82.9016 139.489 82.7679 139.36 82.6682 139.442C75.92 144.996 68.9732 151.043 61.9163 157.621C52.4559 166.439 43.9354 175.144 36.2912 183.526C36.2211 183.605 36.2897 183.724 36.3954 183.707C42.276 182.633 48.1543 181.556 54.0313 180.485C54.0607 180.481 54.0865 180.464 54.1038 180.442Z" fill="#CFE2F4"/>
<path d="M56.8997 175.356C57.8953 174.093 58.8762 172.809 59.8939 171.579C60.802 170.481 61.6942 169.415 62.4269 168.157C62.6165 167.834 62.8713 167.521 63.0965 167.196L64.3115 165.447C64.4937 165.177 64.6281 164.859 64.8213 164.63C65.7725 163.492 66.6426 162.313 67.3816 161.025C68.1812 160.179 68.7342 159.179 69.3597 158.2C69.9815 157.223 70.6891 156.279 71.2446 155.266C71.3912 154.999 71.5808 154.708 71.7765 154.466C72.9689 153.02 74.0017 151.461 75.0543 149.9C76.1831 148.23 77.3758 146.608 78.6556 145.061C79.3361 144.236 79.9774 143.321 80.6052 142.425C80.9782 141.89 81.345 141.354 81.707 140.81L82.2535 140L82.5268 139.595L82.5983 139.494L82.6339 139.444L82.7382 139.513L82.7468 139.518C82.753 139.519 82.7554 139.523 82.7554 139.523C82.7591 139.52 82.7309 139.534 82.7419 139.526C82.753 139.519 82.742 139.495 82.7542 139.529L82.7591 139.536L82.7615 139.54C82.6953 139.456 82.8535 139.654 82.8388 139.632L82.8351 139.635L82.8191 139.651L82.7847 139.679L82.7158 139.735L82.5805 139.852L82.3112 140.079L81.7749 140.536L80.7122 141.466C80.0112 142.091 79.315 142.724 78.6409 143.374C76.8301 145.114 74.9973 146.854 73.1571 148.582C72.2198 149.46 71.2039 150.284 70.2163 151.126C68.241 152.811 66.2646 154.487 64.3335 156.222C62.8796 157.523 61.4613 158.87 60.0627 160.23C58.7563 161.497 57.4891 162.807 56.2011 164.094C52.3839 167.912 48.6255 171.788 44.9542 175.738C44.0696 176.687 43.2108 177.651 42.3422 178.617C41.9066 179.098 41.46 179.57 41.0171 180.04L39.7758 181.349L39.1581 182.004C39.0856 182.079 39.1016 182.063 39.0979 182.065L39.0905 182.07L39.0757 182.08C39.0536 182.095 39.0229 182.12 38.9884 182.149C38.9835 182.157 38.9663 182.163 38.9675 182.173C38.9687 182.183 38.9798 182.176 38.9859 182.177L39.0314 182.173L47.6017 180.626C49.5271 180.282 51.4549 179.958 53.351 179.49C53.4825 179.456 53.598 179.438 53.6865 179.427C53.7319 179.423 53.7737 179.422 53.8056 179.422C53.8216 179.422 53.84 179.426 53.8523 179.428L53.8646 179.431C53.9219 179.749 53.9804 180.061 54.0377 180.363L53.9121 179.671L53.9109 179.677L53.906 179.685L53.8925 179.705L53.8654 179.744L53.8137 179.826L53.7078 179.987C53.6351 180.094 53.5564 180.199 53.4555 180.304C53.2599 180.513 52.9856 180.717 52.5444 180.909C51.9458 181.169 51.3841 181.388 50.599 181.479C49.4613 181.607 48.3036 181.994 47.1575 181.974C46.9954 181.97 46.7705 182.024 46.5886 182.07C44.953 182.498 43.3016 182.829 41.6379 183.127L39.0564 183.571L37.4394 183.843C36.9406 183.892 36.6065 183.854 36.2626 183.864C36.2061 183.859 36.1544 183.878 36.098 183.857C36.0366 183.829 35.995 183.734 36.0221 183.679L36.2793 183.338L36.7913 182.652L37.2947 181.961C37.4916 181.713 37.766 181.43 38.0022 181.161C38.519 180.594 38.9816 180.09 39.4811 179.561C40.1959 178.804 40.9389 178.066 41.6402 177.297C42.1692 176.716 42.6443 176.119 43.2897 175.754C43.4262 175.679 43.6993 175.37 43.7659 175.23C44.0062 174.687 44.4736 174.238 44.9251 173.773L48.6342 170.048C49.5458 169.123 50.4414 168.182 51.3223 167.235C52.6941 165.771 54.0389 164.281 55.4352 162.838C56.6027 161.626 57.8168 160.452 59.0138 159.268C59.2893 158.995 59.5379 158.696 59.822 158.428C60.3375 157.931 60.8542 157.38 61.3928 156.974C61.9917 156.523 62.4296 156.142 62.8162 155.539C63.0341 155.203 63.4904 154.793 63.8717 154.471C64.3612 154.055 64.8789 153.674 65.3856 153.3C65.9992 152.855 66.5771 152.444 67.0903 151.8C67.3672 151.457 67.8419 151.083 68.2428 150.79C70.0111 149.497 71.6531 148.023 73.2792 146.533C75.4884 144.512 77.6889 142.486 79.9287 140.503C80.3678 140.115 80.813 139.729 81.2632 139.35L81.9372 138.78L82.022 138.707L82.0638 138.674L82.0786 138.664C82.1093 138.639 82.1462 138.614 82.1794 138.592C82.2458 138.548 82.3344 138.505 82.4204 138.474C82.7989 138.34 83.2311 138.462 83.474 138.684C83.7256 138.894 83.8982 139.258 83.8436 139.656C83.8175 139.849 83.7386 140.018 83.6537 140.138L83.6217 140.186L83.5589 140.276L83.4358 140.459C81.369 143.47 79.231 146.423 77.0807 149.372C76.6573 149.952 76.2265 150.536 75.8534 151.135C74.9891 152.523 74.0376 153.836 73.0518 155.129C71.8617 156.691 70.8004 158.327 69.7477 159.968C69.5015 160.35 69.2737 160.751 69.0004 161.108C67.1161 163.61 65.465 166.271 63.6384 168.803C62.1577 170.856 60.6205 172.856 59.0968 174.869C57.9067 176.415 56.7264 177.96 55.54 179.503C55.4625 179.603 55.3997 179.724 55.3221 179.824C54.6379 180.699 54.2213 180.832 54.194 180.175C54.1715 179.589 54.4243 178.873 55.0065 178.06C55.6478 177.161 56.3088 176.275 56.9611 175.384L56.8997 175.356Z" fill="#A6C5F3"/>
<path d="M64.1476 174.733C64.8434 173.58 65.5158 172.399 66.2409 171.273C66.8848 170.266 67.5201 169.285 67.964 168.145C68.0774 167.851 68.2597 167.565 68.4087 167.27L69.2156 165.675C69.3351 165.431 69.3994 165.143 69.5349 164.931C70.212 163.886 70.8032 162.807 71.252 161.641C71.844 160.86 72.1696 159.957 72.5689 159.07C72.9682 158.182 73.4485 157.321 73.7729 156.408C73.8568 156.167 73.9813 155.898 74.1204 155.683C74.9662 154.355 75.6353 152.937 76.324 151.517C77.062 149.995 77.8774 148.517 78.7835 147.096C79.2649 146.34 79.6924 145.503 80.1088 144.689L81.7819 141.301L81.894 141.078C82.1083 140.68 82.3052 140.4 82.4838 140.117L82.9935 139.315C83.0156 139.284 83.0317 139.253 83.0538 139.222C83.076 139.191 83.1325 139.18 83.1804 139.196C83.2983 139.23 83.265 139.316 83.2784 139.376C83.288 139.502 83.3014 139.626 83.322 139.762C83.3403 139.893 83.3635 140.016 83.3903 140.136L83.4318 140.311C83.4452 140.371 83.4673 140.404 83.4647 140.528L83.5209 142.421C83.5243 142.595 83.5351 142.747 83.5299 142.947L83.5131 143.538L83.4987 144.148L83.4909 144.457L83.4894 144.655C83.4805 145.713 83.4618 146.773 83.4356 147.838C83.4095 148.919 83.2789 150.011 83.1791 151.093C82.9782 153.264 82.7429 155.43 82.5542 157.603C82.4143 159.233 82.3136 160.874 82.2241 162.507L82.0196 167.089C81.7748 171.618 81.5139 176.147 81.2273 180.676L81.0383 183.945L80.9757 184.763L80.9407 185.174L80.8597 185.925L80.7091 187.307L80.6344 187.994L80.5971 188.338L80.5921 188.379L80.5908 188.401C80.5847 188.4 80.5761 188.395 80.5699 188.394L80.4816 188.357L80.3085 188.28L77.717 187.141L74.945 185.915L66.9802 182.46C65.4739 181.802 63.9836 181.128 62.4341 180.589C62.2733 180.531 62.1567 180.476 62.0904 180.424L61.6524 180.077C61.4293 179.757 61.4248 179.43 61.4657 179.228C61.5077 179.019 61.589 178.917 61.6271 178.887C61.6677 178.86 61.6725 178.899 61.6576 179.005C61.6464 179.108 61.6253 179.292 61.6925 179.513C61.7365 179.659 61.8162 179.787 61.918 179.884L62.1879 180.146L62.2235 180.128C62.6108 179.919 62.9821 179.693 63.7435 179.799C64.2913 179.871 64.7936 179.962 65.379 180.275C66.2272 180.727 67.2231 180.969 68.0011 181.548C68.1091 181.63 68.2908 181.696 68.4406 181.745C71.1307 182.632 73.6876 183.879 76.2767 185.03C76.699 185.217 77.1299 185.394 77.5583 185.566L78.7136 186.032L79.2672 186.265L79.3348 186.295L79.3519 186.305L79.3557 186.286L79.3606 186.246L79.3768 186.086L79.4129 185.764L79.4689 185.296L79.4975 185.059L79.5323 184.744C79.5784 184.309 79.6208 183.877 79.6509 183.442C79.6998 182.787 79.6823 182.145 79.9484 181.569C80.0051 181.446 80.0228 181.105 79.9813 180.978C79.8198 180.495 79.8869 179.956 79.9381 179.417C80.0667 177.954 80.2236 176.494 80.3301 175.029C80.4079 173.946 80.461 172.858 80.4933 171.778C80.5289 170.095 80.5633 168.419 80.6026 166.733C80.6464 165.327 80.7356 163.917 80.7991 162.508C80.8131 162.185 80.7927 161.858 80.8104 161.533C80.8444 160.936 80.8404 160.305 80.9493 159.749C81.0706 159.131 81.1204 158.646 80.9837 158.056C80.9068 157.725 80.9517 157.216 80.9978 156.797C81.0575 156.263 81.1639 155.735 81.2654 155.215C81.3879 154.592 81.5153 154.007 81.4303 153.319C81.3829 152.952 81.4623 152.447 81.5378 152.04C81.8795 150.234 81.9853 148.393 82.0507 146.547L82.1099 144.667C82.124 144.264 82.1141 144.266 82.1082 144.153L82.0876 143.906C82.0719 143.762 82.0536 143.662 82.034 143.601C82.0242 143.57 82.012 143.552 82.0022 143.537C81.9973 143.53 81.9911 143.528 81.985 143.527C81.9543 143.521 81.9309 143.59 81.9198 143.629L81.762 144.032L81.7237 144.126L81.6781 144.242L81.667 144.265L81.614 144.369L81.3517 144.879L80.2898 146.914L78.1232 150.959C77.8375 151.49 77.5419 152.021 77.3077 152.565C76.7604 153.822 76.1224 155.023 75.4402 156.205C74.6224 157.631 73.9422 159.12 73.2619 160.609C73.1054 160.957 72.9661 161.316 72.7814 161.646C71.487 163.932 70.4517 166.343 69.2187 168.656C68.2222 170.526 67.1594 172.359 66.1114 174.199C65.2924 175.616 64.4747 177.026 63.6534 178.439C63.5992 178.533 63.5622 178.638 63.508 178.732C63.0302 179.533 62.6664 179.674 62.5075 179.099C62.3707 178.589 62.4674 177.951 62.8604 177.205C63.294 176.386 63.7447 175.575 64.1832 174.763L64.1476 174.733Z" fill="#A6C5F3"/>
<path d="M67.5163 187.275L65.1882 192.502L62.4741 179.384L67.5163 187.275Z" fill="#CFE2F4"/>
<path d="M67.5905 188.666C67.3678 188.947 67.172 189.237 66.9186 189.496C66.7931 189.643 66.6639 189.793 66.5716 189.934C66.478 190.081 66.4114 190.237 66.3681 190.484C66.3458 190.61 66.2843 190.678 66.2461 190.772C66.1721 190.949 66.0932 191.119 66.0193 191.311C65.986 191.397 65.9697 191.621 65.9279 191.654C65.7262 191.799 65.6043 191.991 65.4251 192.722C65.3296 192.562 65.2232 193.01 65.0813 193.461C65.074 193.45 65.0666 193.439 65.0568 193.424C64.9711 193.263 64.9225 192.854 64.7886 192.852C64.7542 192.849 64.7224 192.769 64.7165 192.624C64.6797 191.744 64.55 191.373 64.4058 190.852C64.3288 190.584 64.2666 190.274 64.2302 189.964C64.2108 189.806 64.1999 189.654 64.1952 189.503C64.1905 189.352 64.1895 189.198 64.2093 189.1C64.2453 188.858 64.1904 188.623 64.144 188.394C64.0842 188.12 63.9839 187.857 63.9106 187.586C63.808 187.192 63.6808 186.808 63.4811 186.436C63.3488 186.189 63.2239 185.937 63.1051 185.686L63.0218 185.497L62.9802 185.402L62.9251 185.247L62.7087 184.561C62.5583 184.071 62.5184 183.603 62.4527 183.168C62.3238 182.286 62.2561 181.56 62.1356 180.81L62.1368 180.804C62.2156 180.651 62.2222 180.38 62.2459 180.136C62.2609 179.903 62.2674 179.648 62.3267 179.481C62.3526 179.4 62.3797 179.329 62.4129 179.259C62.7936 179.384 63.1388 179.335 63.445 179.1L63.4598 179.09C63.7258 179.45 63.9919 179.811 64.2518 180.17C64.3989 180.375 64.5496 180.61 64.6979 180.857L66.3192 183.513L67.6159 185.576C67.834 185.936 68.0374 186.306 68.3625 186.595C68.4545 186.678 68.393 186.761 68.1889 186.838C67.8362 186.972 67.4822 187.127 67.1887 187.078C66.991 187.044 66.8252 186.995 66.78 186.823C66.7153 186.573 66.4304 186.449 66.4899 186.122C66.4961 186.075 66.4617 186.04 66.4286 186.014C66.128 185.778 65.9085 185.487 65.7186 185.177C65.6218 185.024 65.536 184.863 65.4466 184.704L65.2493 184.335C65.1623 184.18 65.0507 184.084 64.9624 183.968C64.9048 183.889 64.8509 183.808 64.7933 183.713C64.7148 183.579 64.623 183.369 64.5433 183.273C64.4759 183.196 64.4659 183.309 64.29 182.628C64.2521 182.483 64.2178 182.447 64.2335 182.575C64.242 182.644 64.2518 182.706 64.2566 182.762C64.2869 183.023 64.2428 182.925 64.1987 182.843C64.0603 182.594 63.8827 182.255 63.743 182.045C63.6424 181.893 63.5847 181.863 63.5785 181.941C63.5747 182.008 63.6003 182.15 63.6468 182.316C63.7446 182.591 63.8449 182.87 63.9428 183.146C64.0333 183.41 64.1251 183.668 64.2156 183.932C64.2523 184.019 64.2891 184.107 64.3258 184.194C64.3503 184.263 64.436 184.44 64.3257 184.258C64.2031 184.057 64.1945 184.084 64.4788 184.576C64.529 184.66 64.5658 184.731 64.6087 184.804C64.6209 184.822 64.6074 184.81 64.5976 184.795C64.567 184.757 64.4664 184.622 64.3806 184.524C64.269 184.397 64.1733 184.333 64.3608 184.591C64.4614 184.726 64.4098 184.681 64.3546 184.653C64.1128 184.538 64.1995 184.884 64.2963 185.054L64.322 185.101C64.3294 185.112 64.3392 185.126 64.3526 185.171L64.4346 185.398L64.6047 185.854L64.9412 186.768C65.0268 187.009 65.083 187.254 65.1489 187.497C65.2479 187.878 65.3272 188.261 65.3929 188.648L65.4367 188.938L65.4416 188.978L65.4404 188.984L65.4379 188.996L65.4305 189.017C65.4243 189.048 65.4169 189.085 65.4107 189.131C65.4069 189.166 65.3983 189.225 65.4327 189.196C65.5114 189.123 65.4942 189.145 65.4693 189.348C65.4469 189.554 65.4875 189.543 65.516 189.37L65.5358 189.24C65.5457 189.174 65.5557 189.045 65.5545 189.084C65.5506 189.214 65.5728 189.119 65.5729 189.055C65.5779 188.983 65.5584 188.937 65.5657 188.964C65.5755 188.979 65.6012 189.01 65.6467 189.006L65.6664 189.004L65.7218 188.919L65.8362 188.747L66.0652 188.404C66.2967 188.048 66.5539 187.707 66.8001 187.357C66.8173 187.335 66.8112 187.302 66.8285 187.28C66.9762 187.086 67.2463 187.124 67.5666 187.39C67.8512 187.626 67.975 187.853 67.8789 188.044C67.7754 188.256 67.651 188.461 67.5352 188.671L67.5905 188.666Z" fill="#A6C5F3"/>
<path d="M36.5563 212.954C36.3263 214 36.1724 215.065 36.0738 216.141C35.9727 217.213 35.922 218.289 35.9229 219.363C35.9091 221.271 36.0906 223.176 36.7119 225.039C36.8746 225.516 37.0004 226.05 37.1716 226.547C37.4713 227.454 37.8459 228.338 38.2672 229.196C38.4705 229.582 38.744 229.953 38.9203 230.315C39.3576 231.205 39.8907 232.047 40.5001 232.828C41.1328 233.588 41.8246 234.309 42.6308 234.89C43.6942 236.034 45.0923 236.753 46.5571 237.189C47.2877 237.416 48.0479 237.56 48.8057 237.604C49.5624 237.654 50.3229 237.558 50.994 237.288C51.1746 237.231 51.359 237.141 51.5422 237.056C51.7351 236.986 51.9085 236.887 52.0794 236.8C52.351 236.689 52.5736 236.504 52.817 236.342C52.9363 236.257 53.0323 236.146 53.1418 236.046C53.2451 235.946 53.3632 235.851 53.4456 235.727C53.6266 235.495 53.8271 235.261 53.9356 235.024C54.0612 234.781 54.1243 234.5 54.1677 234.221C54.2447 233.649 54.1866 233.049 54.0462 232.462C53.9057 231.875 53.6965 231.296 53.4246 230.743C52.8453 229.559 52.0804 228.456 51.1482 227.533C50.2159 226.61 49.1176 225.846 47.8454 225.532C46.48 225.174 44.9344 225.345 43.5445 225.774C41.8719 226.29 40.3412 227.212 39.0202 228.345C37.104 229.99 35.7004 232.231 35.262 234.661C35.1146 235.471 35.0643 236.292 35.0951 237.106C35.116 237.922 35.2831 238.725 35.4576 239.556C35.7598 241.211 36.3029 242.797 36.953 244.311C37.635 245.841 38.5026 247.307 39.6014 248.56C40.7039 249.811 42.0537 250.85 43.5734 251.584C45.0943 252.312 46.7581 252.759 48.4616 252.946C49.099 253.049 49.7489 253.026 50.3925 253.067C50.7156 253.065 51.0387 253.047 51.3667 253.036C51.691 253.028 52.0165 253.014 52.3384 252.97L53.3053 252.865C53.6272 252.821 53.9467 252.757 54.2674 252.704C54.9125 252.61 55.5417 252.437 56.1745 252.293C58.5327 251.688 60.7759 250.702 62.8929 249.535C64.4592 248.659 65.9482 247.643 67.2913 246.479C68.6344 245.315 69.8451 244 70.7575 242.532C72.5664 239.5 73.7678 236.043 74.3294 232.527C74.5984 230.827 74.7078 229.111 74.7226 227.389C74.7293 226.959 74.7361 226.529 74.7208 226.098C74.7116 225.668 74.7159 225.234 74.6944 224.802C74.65 223.199 74.4963 221.599 74.2849 220.001C74.0796 218.404 73.7896 216.815 73.4344 215.232C72.43 210.704 70.9525 206.272 69.2845 201.914C68.3361 199.439 67.3287 196.987 66.1541 194.619C65.8246 193.955 65.8164 193.695 66.1245 193.862C66.651 194.15 67.1655 194.34 67.8764 195.426C68.3605 196.163 68.7821 196.861 69.1491 197.877C69.6703 199.35 70.4519 200.814 70.7838 202.338C70.8302 202.551 70.9538 202.841 71.0566 203.076C72.8956 207.3 74.1629 211.791 75.0494 216.334C75.3482 217.816 75.6224 219.309 75.8266 220.816C75.9529 221.791 76.0424 222.773 76.1061 223.758C76.1851 225.189 76.167 226.626 76.1355 228.051C76.12 228.588 76.0983 229.123 76.0583 229.639C76.0022 230.155 75.9082 230.653 75.749 231.126C75.6775 231.323 75.6029 231.883 75.626 232.085C75.6746 232.479 75.6482 232.895 75.5812 233.322C75.5143 233.75 75.4325 234.187 75.3164 234.62C74.7443 236.968 73.9008 239.252 72.7994 241.404L72.1737 242.591C71.9336 242.973 71.7046 243.365 71.4583 243.747C71.1876 244.107 70.9303 244.48 70.6534 244.84C70.3605 245.184 70.0763 245.532 69.7785 245.868C68.8336 246.895 67.7979 247.833 66.7034 248.699C65.5893 249.535 64.4432 250.339 63.2102 251.004C61.1632 252.141 58.9606 253.02 56.6884 253.642C56.1576 253.772 55.6414 253.939 55.1069 254.055C54.613 254.144 54.1055 254.237 53.6042 254.33C53.1004 254.389 52.5992 254.435 52.1238 254.447C51.5943 254.443 51.1251 254.425 50.6693 254.451C50.2111 254.474 49.7628 254.48 49.2676 254.559C48.9924 254.609 48.6312 254.593 48.2554 254.556C47.8771 254.515 47.4804 254.486 47.1267 254.402C46.6748 254.298 46.2266 254.192 45.7846 254.071C45.3536 253.911 44.9251 253.754 44.5003 253.595C44.0007 253.379 43.5367 253.129 43.0481 252.922C42.5793 252.665 42.0894 252.432 41.5481 252.201C40.9908 251.907 40.2594 251.415 39.7712 250.888C39.1799 250.366 38.6956 249.742 38.1768 249.161C37.9427 248.849 37.7232 248.527 37.4928 248.212C37.3812 248.052 37.2586 247.899 37.1544 247.735L36.8603 247.228C36.6667 246.889 36.4584 246.559 36.2746 246.219L35.7774 245.167L35.5288 244.64L35.3282 244.098L34.9244 243.011C34.7531 242.513 34.6384 242.004 34.4905 241.502C34.4233 241.248 34.3425 240.999 34.2926 240.74L34.1438 239.972C34.0537 239.452 33.9303 238.954 33.8685 238.421C33.7943 237.885 33.7631 237.342 33.7639 236.799C33.7597 234.617 34.3955 232.429 35.5456 230.558C36.4309 229.082 37.6501 227.819 39.0176 226.788C40.0862 225.988 41.2652 225.337 42.5311 224.873C43.7933 224.412 45.1438 224.132 46.5355 224.153C47.232 224.169 47.9333 224.256 48.6295 224.447C49.3331 224.65 49.9824 224.963 50.574 225.341C51.7534 226.099 52.7039 227.089 53.4799 228.185C54.0818 229.051 54.5915 229.994 54.9917 230.972C55.4421 232.098 55.7634 233.357 55.4838 234.761C55.4108 235.107 55.2887 235.46 55.1088 235.797L54.9659 236.046C54.9167 236.116 54.8687 236.18 54.8207 236.244L54.5253 236.632C54.3296 236.889 54.0726 237.103 53.8438 237.335C53.5855 237.538 53.3248 237.738 53.0469 237.912C52.3695 238.325 51.6272 238.584 50.88 238.757C50.1305 238.893 49.3725 238.945 48.6356 238.892C47.1567 238.795 45.7521 238.362 44.4484 237.745C43.8543 237.443 43.2356 237.12 42.7203 236.713C39.0883 233.936 36.6103 229.904 35.4704 225.62C34.5652 222.137 34.3751 218.53 34.793 215.014C35.1163 212.3 35.8032 209.62 37.0167 207.149C37.1005 206.987 37.156 206.807 37.2447 206.652C37.6204 205.961 37.9723 205.562 38.1923 205.438C38.4099 205.309 38.5178 205.455 38.5049 205.868C38.4695 206.583 38.2077 207.517 37.7244 208.742C37.1893 210.098 36.8028 211.525 36.528 212.968L36.5563 212.954Z" fill="#A6C5F3"/>
<path d="M315.293 74.4085C318.1 72.7242 312.747 41.0797 320.346 40.7134C325.318 40.4707 325.317 63.0182 325.317 63.0182C325.317 63.0182 326.921 39.4668 333.158 39.4668C336.95 39.4668 335.347 63.0182 335.347 63.0182C335.347 63.0182 342.55 41.6887 346.338 42.3167C351.153 43.1208 345.776 65.0213 345.776 65.0213C345.776 65.0213 353.446 53.4835 355.482 54.4303C358.932 56.0337 355.106 65.026 352.756 75.6122C351.143 82.8775 349.825 84.2667 349.064 85.3182C343.811 92.6358 333.672 92.3837 330.851 92.3789C328.029 92.3741 319.641 92.2409 312.557 86.0414C311.444 85.0661 306.757 80.784 304.935 73.6853C303.917 69.7172 303.641 64.2457 305.178 63.6558C309.355 62.0524 312.804 75.2887 315.293 74.4085Z" fill="#CFE2F4"/>
<path d="M315.417 62.1904C315.436 58.7314 315.436 55.2296 315.722 51.7945C315.855 50.2625 316.026 48.7495 316.273 47.2365C316.535 45.7282 316.816 44.2057 317.453 42.7118C317.791 41.9553 318.357 41.1512 319.204 40.7229C319.59 40.5326 320.004 40.4327 320.441 40.428C320.893 40.428 321.336 40.6136 321.669 40.88C322.34 41.4224 322.725 42.1408 323.058 42.8497C323.353 43.5015 323.667 44.1867 323.819 44.8242C324.543 47.9739 324.852 51.1236 325.271 54.2971C325.29 56.795 325.537 59.231 325.642 61.7336C325.661 62.1571 325.67 62.5805 325.68 63.0135L324.961 62.9897C325.09 60.901 325.328 58.8123 325.489 56.7569C325.542 56.1004 325.637 55.3486 325.761 54.6968C326.146 52.708 326.541 50.724 327.021 48.7494C327.507 46.7749 328.049 44.8005 328.906 42.9021C329.305 42.0457 329.762 41.1988 330.409 40.447C331.047 39.7095 331.946 39.0149 333.126 39.0006C333.568 38.9863 333.973 39.2242 334.263 39.543C334.525 39.838 334.686 40.152 334.82 40.4661C335.081 41.0893 335.233 41.7221 335.357 42.3502C335.59 43.6062 335.69 44.8576 335.747 46.1089C335.842 48.4164 335.895 50.8287 335.885 53.1886C335.876 56.0004 335.838 58.8076 335.7 61.6147C335.676 62.0905 335.647 62.5663 335.624 63.0373L335.081 62.9279C336.233 59.5117 337.451 56.1479 338.75 52.8031C339.554 50.743 340.415 48.6971 341.433 46.6941C341.947 45.6949 342.494 44.7053 343.17 43.7489C343.512 43.2732 343.869 42.8022 344.345 42.3644C344.583 42.1456 344.844 41.9315 345.187 41.7554C345.51 41.5794 346.01 41.4366 346.472 41.5128C347.28 41.6317 347.918 42.2074 348.241 42.7593C348.594 43.316 348.765 43.8774 348.903 44.4246C349.25 45.9185 349.255 47.3744 349.207 48.8161C349.15 50.2529 348.998 51.6755 348.817 53.0791C348.275 57.1803 347.433 61.1913 346.448 65.1926L345.192 64.6407C346.058 63.3798 346.943 62.1523 347.856 60.9295C348.889 59.5545 349.94 58.1938 351.082 56.8854C351.658 56.2335 352.248 55.5912 352.914 54.987C353.251 54.6872 353.594 54.3923 354.027 54.1306C354.127 54.064 354.246 54.0021 354.374 53.945C354.512 53.8689 354.674 53.8213 354.836 53.7833C354.993 53.731 355.159 53.7499 355.321 53.7357C355.402 53.7452 355.478 53.7737 355.559 53.7928C355.597 53.8023 355.635 53.8166 355.678 53.8166L355.792 53.8641C356.934 54.4208 357.277 55.4533 357.443 56.3287C357.614 57.4278 357.529 58.4602 357.4 59.4689C357.272 60.4776 357.082 61.4577 356.872 62.4283C356.449 64.3695 355.954 66.2774 355.459 68.1758C354.717 70.9972 354.017 73.7805 353.408 76.64C353.085 78.0768 352.719 79.509 352.262 80.9363C351.8 82.3542 351.253 83.8005 350.354 85.1375L350.021 85.6085C349.911 85.7608 349.826 85.8892 349.693 86.0462L348.969 86.955C348.741 87.269 348.451 87.5307 348.18 87.8067C347.899 88.0731 347.647 88.3728 347.337 88.6107C346.167 89.6337 344.84 90.4473 343.465 91.1324C342.071 91.7795 340.624 92.2743 339.149 92.6406C337.674 92.9975 336.176 93.2163 334.682 93.3495C333.245 93.4732 331.794 93.5018 330.395 93.5066C328.958 93.5113 327.507 93.4352 326.065 93.2496C324.628 93.0641 323.191 92.7691 321.793 92.3599C319.204 91.5796 316.697 90.4568 314.446 88.9248C313.324 88.154 312.263 87.3166 311.259 86.3888C310.269 85.4515 309.365 84.4429 308.537 83.3723C306.339 80.5557 304.702 77.2823 303.827 73.7948C303.399 72.0534 303.132 70.3025 303.032 68.5088C302.985 67.6096 302.98 66.7056 303.085 65.754C303.147 65.2782 303.218 64.7929 303.403 64.2648C303.499 63.9984 303.608 63.7319 303.836 63.4036C304.074 63.0658 304.403 62.7994 304.783 62.6424C305.069 62.5615 305.254 62.4902 305.483 62.4664C305.706 62.4521 305.939 62.414 306.158 62.4568C306.377 62.4806 306.605 62.5092 306.796 62.5853L307.096 62.6852C307.191 62.7233 307.276 62.7709 307.362 62.8137C308.004 63.142 308.49 63.5654 308.904 63.9984C309.313 64.4361 309.674 64.8833 309.998 65.3448C310.654 66.2583 311.197 67.1957 311.73 68.1187C312.263 69.0465 312.767 69.9695 313.29 70.8545C313.552 71.2922 313.818 71.7299 314.099 72.1248C314.37 72.5149 314.67 72.9003 314.937 73.1239C314.97 73.1525 315.003 73.181 315.036 73.2096C315.065 73.2334 315.084 73.2333 315.103 73.2524C315.117 73.2619 315.146 73.2952 315.141 73.2857L315.117 73.3476C315.103 73.3951 315.089 73.4427 315.079 73.4855C315.07 73.5236 315.065 73.5236 315.055 73.5426C315.041 73.5759 315.036 73.614 315.036 73.6473C315.036 73.7567 315.036 73.6901 315.032 73.6949C315.022 73.6901 315.022 73.6759 315.036 73.7044C315.036 73.7044 315.041 73.7281 315.036 73.7139C315.036 73.6901 315.036 73.6616 315.036 73.6473C315.032 73.6711 315.027 73.6949 315.013 73.7234C314.979 73.7662 314.917 73.7853 314.846 73.8138C314.77 73.8233 314.68 73.8138 314.58 73.8091C314.48 73.7853 314.375 73.752 314.261 73.7092C313.804 73.5093 313.266 73.0621 312.638 72.258C311.787 71.1637 311.087 70.0789 310.298 68.5897C309.722 67.5097 309.051 66.4439 308.276 65.5066C307.885 65.0451 307.467 64.6074 307.005 64.2886C306.544 63.9651 306.039 63.7605 305.511 63.8366C305.449 63.8461 305.383 63.8604 305.302 63.8794C305.059 63.9413 304.874 64.1887 304.769 64.4599C304.469 65.2354 304.431 66.1489 304.426 67.0291C304.431 67.9188 304.503 68.8133 304.602 69.703C304.821 71.4825 305.169 73.2524 305.716 74.951C306.815 78.3528 308.675 81.5263 311.106 84.1717C311.896 85.0424 312.772 85.8226 313.704 86.5411C314.627 87.269 315.617 87.9066 316.63 88.4966C317.958 89.234 319.342 89.8811 320.774 90.3949C322.858 91.1276 325.037 91.651 327.24 91.8556C328.906 92.0268 330.523 91.9507 332.05 92.1744C332.369 92.2219 333.254 92.1886 333.559 92.1125C334.734 91.8366 336.104 91.7414 337.46 91.4987C339.287 91.1847 341.09 90.6804 342.77 89.9144C344.449 89.1531 346.005 88.1111 347.295 86.8027C347.804 86.3507 348.189 85.7798 348.622 85.2612C349.055 84.6998 349.436 84.1574 349.754 83.5627C350.387 82.3732 350.825 81.06 351.206 79.7421C351.8 77.6867 352.171 75.5885 352.628 73.457C353.09 71.3397 353.604 69.2368 354.132 67.1433C354.569 65.3924 355.026 63.6463 355.407 61.9002C355.597 61.0295 355.764 60.154 355.878 59.2929C355.987 58.4364 356.059 57.5658 355.954 56.795C355.911 56.4429 355.821 56.1146 355.687 55.8719C355.659 55.8006 355.621 55.753 355.583 55.7007C355.55 55.6436 355.511 55.596 355.469 55.558C355.397 55.4676 355.278 55.3962 355.259 55.3772L355.231 55.3629C355.193 55.3391 355.15 55.3438 355.107 55.3486C355.055 55.3629 355.069 55.3629 354.931 55.4342C354.693 55.577 354.431 55.772 354.175 55.9956C353.656 56.4381 353.156 56.9472 352.671 57.423C351.562 58.5221 350.773 59.4879 350.035 60.7678C349.621 61.4862 348.836 62.5282 348.203 63.3846C347.656 64.1173 347.109 64.85 346.567 65.5684L344.816 64.7977C344.94 64.3695 345.063 63.946 345.187 63.5226C345.625 61.9715 346.02 60.5109 346.196 58.779C346.291 57.8512 346.557 56.5904 346.767 55.558C347.228 53.2837 347.566 50.9666 347.651 48.6543C347.69 47.5029 347.666 46.342 347.48 45.2429C347.385 44.7005 347.247 44.1676 347.023 43.7442C346.805 43.3065 346.51 43.0543 346.219 43.021C346.215 43.021 346.215 43.021 346.21 43.021C346.119 43.0115 346.062 43.0258 345.953 43.0638C345.848 43.0971 345.72 43.1827 345.596 43.2684C345.344 43.4539 345.092 43.7156 344.854 43.9916C344.378 44.553 343.95 45.2049 343.55 45.871C342.751 47.2127 342.056 48.64 341.395 50.0864C340.086 52.984 338.935 55.9719 337.85 58.9788C337.327 60.4347 336.804 61.9049 336.314 63.3655L334.282 62.9611C334.339 62.0143 334.387 61.0485 334.425 60.0874C334.563 56.5286 334.639 52.9697 334.548 49.4346C334.496 47.6694 334.406 45.9043 334.187 44.1914C334.073 43.3398 333.93 42.4881 333.701 41.7268C333.587 41.351 333.449 40.9799 333.292 40.7372C333.254 40.6706 333.216 40.6231 333.183 40.5802C333.135 40.5279 333.159 40.5517 333.14 40.5279C333.116 40.5088 333.083 40.4946 333.045 40.4898L332.95 40.4946C332.897 40.5041 332.845 40.5136 332.797 40.5184C332.693 40.5469 332.593 40.5755 332.488 40.6278C332.279 40.723 332.065 40.8657 331.86 41.0465C331.408 41.4462 330.989 42.0171 330.642 42.6309C330.29 43.2494 329.99 43.9202 329.748 44.6006C329.177 46.185 328.739 47.8407 328.339 49.5107C327.944 51.1855 327.607 52.8793 327.297 54.5826C326.793 57.3992 326.474 60.2682 326.303 63.0944L324.286 63.0278C324.257 61.7336 324.195 60.4157 324.119 59.1168C324.062 58.151 323.962 57.1709 323.919 56.2193C323.748 52.8888 323.41 49.5488 322.663 46.3848C322.473 45.5998 322.249 44.829 321.978 44.1058C321.707 43.3921 321.364 42.6975 320.984 42.2693C320.793 42.0504 320.617 41.9457 320.517 41.9219C320.451 41.9077 320.441 41.8981 320.327 41.9124C320.208 41.9219 320.104 41.9505 320.004 41.979C319.604 42.1027 319.2 42.5405 318.862 43.14C318.324 44.1296 317.991 45.3904 317.748 46.656C317.51 47.9358 317.358 49.2538 317.244 50.5812C317.025 53.2408 316.968 55.9433 316.954 58.6506C316.954 60.7488 316.954 62.8422 316.949 64.9357C316.94 67.0386 316.94 69.1416 316.773 71.2779C316.749 71.5586 316.744 71.8583 316.706 72.1391C316.554 73.3618 316.226 74.2468 315.741 74.5703C315.498 74.7178 315.374 74.6845 315.388 74.5751C315.398 74.4609 315.493 74.2706 315.507 73.9851C315.545 73.4808 315.503 72.867 315.488 72.0963C315.469 71.3255 315.46 70.412 315.479 69.3462C315.517 66.9911 315.484 64.6122 315.455 62.2285L315.417 62.1904Z" fill="#A6C5F3"/>
</svg>
