<svg width="706" height="73" viewBox="0 0 706 73" fill="none" xmlns="http://www.w3.org/2000/svg">
<path d="M14.8596 49.3084L1.4963 53.3812C1.36399 53.41 1.36975 53.5941 1.50206 53.6171L16.4991 55.0034C16.5451 55.0092 16.5853 55.0437 16.5968 55.0897L21.4118 70.8461C21.4463 70.9669 21.6246 70.9611 21.6476 70.8345L24.708 54.3304C24.7137 54.2959 24.7368 54.2671 24.7655 54.2499L35.1029 48.1464C35.2065 48.0831 35.1662 47.9278 35.0454 47.922L23.4597 47.3352C23.4137 47.3352 23.3734 47.3065 23.3561 47.2662L16.1194 32.0046C16.0676 31.8953 15.9008 31.9241 15.8893 32.0449L14.9516 49.1933C14.9516 49.2566 14.9113 49.2969 14.8596 49.3084Z" fill="#CFE2F4"/>
<path d="M10.0394 51.6439L8.95791 51.8913L8.41716 52.0178C8.23883 52.0581 8.026 52.1099 7.96272 52.1156C7.46224 52.2019 6.96176 52.2824 6.46129 52.3687C6.17941 52.4205 5.89179 52.4723 5.60991 52.524C4.68375 52.7024 3.55623 52.99 3.34913 53.1798C3.33188 53.1971 3.29737 53.2143 3.24559 53.2316C3.19382 53.2431 3.10754 53.2718 3.11329 53.3524C3.11329 53.4329 3.19381 53.4329 3.23983 53.4387L3.42392 53.4617C3.93015 53.5077 4.41337 53.5537 4.95411 53.5882C5.20722 53.6055 5.69044 53.5537 5.79398 53.594C6.06435 53.6975 6.53032 53.7953 7.05956 53.8528C7.32418 53.8816 7.60031 53.8989 7.87643 53.9104H8.30212L8.81409 53.8989C9.84956 54.2153 10.9023 54.152 11.9665 54.1808C13.0307 54.2095 14.1065 54.3591 15.1707 54.2843C15.3145 54.2728 15.4641 54.2728 15.6137 54.2786C15.7632 54.2843 16.0336 54.3131 16.2119 54.3476C16.3615 54.3706 16.5111 54.3994 16.6376 54.4511C16.7642 54.5087 16.8965 54.5201 16.9828 54.6467C17.1151 54.8711 17.2071 55.1644 17.2762 55.4521L17.4717 56.1596L17.6558 56.7752C17.9089 57.5978 18.1851 58.4147 18.4612 59.2316C19.0537 60.9861 19.5369 62.7751 19.8763 64.5929C20.0777 65.6284 20.3135 66.382 20.5609 67.1874L20.745 67.7626L21.0901 68.7636L21.2569 69.2296L21.3375 69.4654C21.372 69.5286 21.3662 69.661 21.4755 69.6495C21.5791 69.6322 21.5618 69.5057 21.5791 69.4251L21.6251 69.1605L21.7114 68.6255L21.861 67.5671C21.953 66.871 22.0163 66.2094 22.0393 65.6687L22.045 65.5364V65.4731L22.0566 65.3638L22.0968 64.9323L22.1831 64.0694L22.3729 62.3379C22.5052 61.1816 22.6491 60.0312 22.7986 58.8749C22.9539 57.7014 23.2416 56.5336 23.4947 55.3658L23.719 54.3131C23.7708 54.0657 23.8399 53.8356 24.0009 53.663C24.1562 53.4962 24.3863 53.3697 24.5992 53.2489L26.2502 52.3457L29.3853 50.6141L30.5531 49.9411L31.3067 49.4982C31.6519 49.2853 31.9798 49.0782 32.2674 48.8884L32.4572 48.7618C32.4802 48.7388 32.532 48.7273 32.5148 48.6813C32.4917 48.6295 32.4227 48.6468 32.3767 48.6468L31.7727 48.6583L30.8005 48.6928L23.5004 48.4799C23.2128 48.4627 22.9712 48.3937 22.7526 48.2556C22.557 48.106 22.3902 47.9047 22.2694 47.6401L21.7229 46.5298L20.8715 44.8271L19.1687 41.4273L17.5293 38.2461L17.1323 37.4408L17.0576 37.2854V37.2797C17.0633 37.2682 17.0633 37.2509 17.0576 37.2164C17.0518 37.1761 17.0345 37.1128 17.0115 37.0438C16.977 36.9805 16.9828 37.0438 16.9713 37.0726L16.954 37.2222L16.8677 38.7638L16.5973 43.5155C16.488 45.3103 16.3557 47.1051 16.4075 48.8999C16.4133 49.0264 16.4075 49.13 16.3903 49.2105C16.3557 49.3659 16.3327 49.4981 16.304 49.6132C16.1832 49.9871 15.9531 50.2288 15.746 50.3668C15.3203 50.6314 15.0729 50.5682 15.1074 50.5279C15.1189 50.4646 15.4296 50.3841 15.7057 49.9986C15.8207 49.8318 15.884 49.6477 15.8955 49.4636C15.9128 49.2048 15.861 49.2566 15.838 49.2221L15.6654 49.0898C15.5504 48.9977 15.4411 48.8999 15.3375 48.7906C15.1304 48.5663 14.9464 48.2729 14.8313 47.8357C14.6702 47.2431 14.5494 46.6909 14.6645 45.9718C14.8256 44.9306 14.6645 43.8088 15.0096 42.7964C15.0557 42.6526 15.0557 42.4398 15.0499 42.2672C14.9694 40.714 15.0154 39.1665 15.1074 37.6133C15.234 35.9335 15.3088 33.2414 15.6712 32.344C15.7172 32.1426 15.746 31.9586 15.7862 31.7572C15.7977 31.7112 15.8035 31.6594 15.815 31.6134C15.8323 31.5616 15.9128 31.5271 15.9761 31.5329C16.0508 31.5386 16.0624 31.5904 16.0911 31.6249L16.1659 31.7399C16.3787 32.0506 16.5974 32.3325 16.862 32.6949C16.9943 32.879 17.1438 33.0803 17.2934 33.3737L17.9722 34.8118L18.7546 36.5318C18.9501 36.969 19.1515 37.4062 19.3643 37.8319C19.6865 38.4762 20.0719 39.0687 20.0949 39.7763C20.1007 39.9258 20.2732 40.2595 20.394 40.3515C20.8485 40.7024 21.0786 41.2489 21.326 41.7954C21.999 43.2566 22.6433 44.7293 23.3394 46.1847L23.5982 46.7139C23.6443 46.7772 23.65 46.898 23.7478 46.898L24.0067 46.9037C24.651 46.9095 25.2895 46.9153 25.928 46.9153L28.695 46.8807L30.0757 46.8635L30.7832 46.8577L31.905 46.8807L33.8436 46.9325C34.1657 46.944 34.5339 46.9383 34.7525 47.0073C34.8791 47.0303 34.9654 47.0706 35.0747 47.1051L35.322 47.2144C35.6269 47.364 35.811 47.4905 35.9951 47.6113C36.0353 47.6516 36.0756 47.6343 36.1216 47.7551C36.1389 47.8069 36.1504 47.8759 36.1446 47.9104C36.1389 47.945 36.1274 47.9565 36.1216 47.9795L36.0066 48.2671C35.9203 48.4627 35.9088 48.687 35.6787 48.9862C35.5061 49.2623 34.8963 49.5845 34.4189 49.8836C33.9184 50.1885 33.3949 50.4876 32.8829 50.735C32.3364 50.9996 31.7784 51.293 31.6116 51.4023C31.3585 51.5634 31.1341 51.7589 30.9213 52.0178C30.6797 52.3112 30.1907 52.5873 29.7823 52.8001C29.2588 53.0763 28.7123 53.2949 28.1716 53.5135C27.5215 53.7723 26.9117 54.0082 26.3595 54.5374C26.2214 54.6697 25.9798 54.8251 25.8245 54.9056C25.7785 54.9344 25.6749 54.9171 25.6289 54.9689C25.6059 54.9919 25.5829 55.0264 25.5599 55.0609C25.5484 55.0897 25.5426 55.0725 25.5254 55.1415L25.4736 55.3198L25.2722 56.0504C25.1457 56.5393 25.0306 57.0283 24.9328 57.523C24.7315 58.5124 24.5704 59.5077 24.4266 60.5086L23.8514 64.5872L23.7133 65.6054L23.4487 67.2794L23.1495 69.149L22.9942 70.1097C22.9425 70.426 22.8964 70.7885 22.8101 70.9898C22.7469 71.1739 22.6778 71.2774 22.6088 71.404C22.5398 71.496 22.4707 71.5996 22.4075 71.6687C22.2751 71.8125 22.1601 71.9102 22.0508 71.9965C21.953 72.0655 21.8495 72.1346 21.7689 72.1806C21.7574 72.1921 21.6769 72.2094 21.5906 72.2151C21.4986 72.2151 21.4698 72.2094 21.4525 72.2036C21.4065 72.1863 21.3605 72.1749 21.303 72.1518C21.1592 72.1001 21.0038 72.0483 20.791 71.9045C20.5954 71.7549 20.3308 71.6054 20.1064 71.0071L19.0134 67.4175L18.2771 64.9209L17.2071 61.1472C17.0288 60.5144 16.8562 59.8643 16.6204 59.266C16.3442 58.5642 16.1026 57.8567 15.8898 57.1434L15.7345 56.6084L15.6597 56.338C15.6482 56.2862 15.6539 56.3035 15.6539 56.2862C15.6539 56.2402 15.6654 56.1596 15.6022 56.1539L15.5561 56.1309L15.5274 56.1194L15.3721 56.1021L14.7048 56.0273C14.256 55.9813 13.8131 55.9468 13.3644 55.9181C12.467 55.8605 11.5753 55.826 10.6779 55.7972C10.258 55.7857 9.83806 55.7972 9.42962 55.7455L8.35965 55.6132L6.57634 55.4406L2.35969 55.0839L1.81896 55.0437C1.64638 55.0264 1.42778 55.0207 1.32423 54.9862L1.1344 54.9401L0.996329 54.8826C0.892783 54.8481 0.817997 54.8078 0.760471 54.7676C0.484347 54.6065 0.357799 54.4511 0.2485 54.3188C0.185222 54.2441 0.167957 54.1923 0.133442 54.129C0.098926 54.0657 0.0701659 54.0082 0.0644133 53.9622L0.024141 53.8126C0.0126358 53.7781 -0.00460931 53.6055 0.00114328 53.5538C0.00114328 53.5193 0.00688954 53.4962 0.0126421 53.4675C0.0356525 53.3179 0.0759234 53.151 0.231243 52.9152C0.260006 52.8634 0.306021 52.8001 0.3693 52.7311C0.426825 52.6621 0.47285 52.6046 0.570644 52.524C0.65118 52.4492 0.737468 52.3745 0.87553 52.2997C0.933056 52.2594 0.996337 52.2192 1.09413 52.1846C1.18042 52.1444 1.26095 52.1041 1.39326 52.0696L5.05765 51.0513L6.78919 50.5739L7.6003 50.3495L8.06626 50.2345C9.8093 49.8146 11.5466 49.3946 13.2896 48.9747C13.4047 48.9459 13.514 48.8884 13.629 48.8654C14.6242 48.641 15.0326 48.8711 14.722 49.5097C14.4459 50.0734 13.8821 50.5279 13.002 50.7867C12.0298 51.0744 11.0461 51.3333 10.0682 51.5979L10.0394 51.6439Z" fill="#A6C5F3"/>
<path d="M1.47404 33.54L5.09816 39.2926C5.13843 39.3558 5.23047 39.3674 5.28224 39.3156L7.61203 36.9858C7.66956 36.9282 7.65807 36.8362 7.58904 36.796L1.64085 33.3674C1.5258 33.3098 1.405 33.4307 1.47404 33.54Z" fill="#CFE2F4"/>
<path d="M2.58431 33.7528C2.60157 33.9945 2.6476 34.2188 2.62459 34.4892C2.60158 34.7251 2.5728 34.9609 2.81441 35.0414C2.87769 35.0587 2.87194 35.1277 2.9007 35.168C2.95247 35.2485 3.00425 35.329 3.06753 35.3981C3.09629 35.4326 3.19984 35.4153 3.19409 35.4671C3.16532 35.7202 3.2286 35.9101 3.48171 35.9849C3.37817 36.2322 3.59102 36.2783 3.73483 36.3703C3.87289 36.4623 3.91891 36.6234 4.14326 36.6636C4.20078 36.6751 4.24105 36.7039 4.2353 36.7557C4.21229 37.0663 4.40213 37.2389 4.5747 37.4288C4.62072 37.4805 4.661 37.5323 4.69552 37.5898C4.71853 37.6301 4.73003 37.6646 4.74153 37.7106C4.75879 37.8027 4.7588 37.9235 4.74729 38.0961C4.73579 38.2859 4.81056 38.3952 4.87959 38.493C4.96012 38.6138 5.05792 38.6541 5.1327 38.7404C5.16147 38.7691 5.18447 38.8094 5.23625 38.7979C5.28802 38.7921 5.3283 38.7231 5.35706 38.6656C5.42609 38.5448 5.48361 38.4067 5.52963 38.2513C5.65044 37.8372 5.65619 37.5955 5.63318 37.4575C5.63318 37.4402 5.62743 37.4345 5.63893 37.4172C5.6792 37.377 5.68495 37.377 5.69071 37.377C5.71372 37.377 5.74823 37.377 5.77699 37.3712C5.88629 37.3597 6.11065 37.2907 6.28898 37.1756C6.34651 37.1296 6.42704 37.1008 6.40978 37.0376C6.37526 36.9858 6.28323 36.9743 6.21995 36.9512C6.08189 36.9052 5.8978 36.9052 5.80001 36.8937C5.72522 36.8822 5.66195 36.8765 5.60442 36.8765H5.56415L5.44335 36.8305L5.19023 36.727L4.17203 36.3242C4.01096 36.261 3.82687 36.2264 3.66004 36.1689C3.57951 36.1401 3.49897 36.0999 3.42994 36.0481C3.16532 35.864 2.90646 35.6627 2.63608 35.4959L1.45105 34.7883C1.34175 34.7193 1.23246 34.6445 1.11741 34.5869L1.02537 34.5467L0.979337 34.5294L1.57185 33.4997V33.494L1.57761 33.4883C1.57761 33.4825 1.57762 33.4825 1.58337 33.4767C1.58337 33.4767 1.60062 33.494 1.57761 33.4825C1.57761 33.4882 1.61788 33.4595 1.59487 33.4767C1.57761 33.4825 1.57186 33.4825 1.57761 33.4825H1.58337C1.58337 33.4825 1.58912 33.4825 1.58337 33.4825C1.56036 33.471 1.5431 33.4537 1.52584 33.4422C1.45681 33.3789 1.42804 33.2696 1.48557 33.1776C1.52584 33.1143 1.60062 33.0625 1.68691 33.0395C1.73293 33.028 1.77896 33.028 1.81923 33.0338C1.85949 33.0338 1.85949 33.0223 1.8825 33.0165C1.94578 32.9935 1.99755 32.9993 2.02631 33.0568C2.10685 33.2236 2.35995 33.1085 2.3427 33.4364C2.3427 33.4824 2.37147 33.4882 2.40598 33.4825C2.95823 33.425 3.26311 33.7989 3.63703 34.0578C3.75783 34.144 3.91315 34.1728 4.05122 34.2303C4.1375 34.2706 4.22379 34.3166 4.30433 34.3683C4.41938 34.4431 4.51718 34.5582 4.64949 34.6042C4.74728 34.6387 4.88534 34.6157 4.82206 34.9091C4.81055 34.9724 4.86233 34.9839 4.9141 34.9378C5.10969 34.748 5.16722 34.8171 5.242 34.8631C5.43184 34.9954 5.61592 35.1507 5.81726 35.2658C5.96683 35.3521 6.13941 35.3981 6.32349 35.4326C6.63413 35.4959 7.12885 35.6052 7.57755 35.7663C7.98599 35.8928 8.27363 36.1171 8.46921 36.33C8.51523 36.376 8.60727 36.4105 8.64178 36.4623C8.69931 36.5543 8.81436 36.6176 8.73383 36.7787C8.64179 36.9398 8.57275 36.9743 8.82011 37.0779C8.95242 37.1354 8.92367 37.2331 8.86614 37.3194C8.80287 37.4287 8.63604 37.538 8.46921 37.6243C8.25637 37.7394 8.04351 37.8084 8.09528 37.9983C8.12404 38.1018 7.95723 38.1938 7.81341 38.2456C7.49702 38.3664 7.27843 38.493 7.1001 38.6425C6.95053 38.7633 6.80096 38.9532 6.6514 39.1545C6.45005 39.4192 6.23145 39.7643 6.00135 40.0347C5.76549 40.2993 5.51237 40.4546 5.29378 40.5524C5.21899 40.5926 5.10971 40.6099 4.98315 40.5927C4.8796 40.5812 4.81056 40.5582 4.71852 40.5294C4.44239 40.4489 4.10874 40.2187 3.89014 39.77C3.65429 39.3558 3.4357 38.9417 3.23436 38.5447C3.19409 38.4527 3.16533 38.3607 3.07329 38.3089C2.85469 38.1881 2.7684 37.9867 2.71663 37.7624C2.6591 37.4863 2.4405 37.3195 2.2104 37.1526C2.15863 37.1124 2.07808 37.0893 2.06083 37.0318C1.95153 36.6061 1.53159 36.376 1.34751 35.9964C1.2037 35.6915 1.14042 35.3291 1.05988 34.9839C0.996603 34.7135 0.962082 34.4316 0.910309 34.1555C0.904556 34.1382 0.875794 34.1325 0.875794 34.1153C0.858537 33.9484 1.12316 33.7298 1.60063 33.5112C2.02056 33.3214 2.30243 33.2581 2.36571 33.3789C2.43474 33.5112 2.48077 33.655 2.5383 33.7931L2.58431 33.7528Z" fill="#A6C5F3"/>
<path d="M31.3536 29.2425L28.437 35.3919C28.4082 35.4552 28.437 35.53 28.5003 35.553L31.9173 36.9221C31.9978 36.9567 32.0899 36.8934 32.0841 36.8014L31.5894 29.2884C31.5722 29.1619 31.4053 29.1332 31.3536 29.2425Z" fill="#CFE2F4"/>
<path d="M31.7504 30.3359C31.5491 30.4913 31.3765 30.6639 31.1349 30.7962C30.9163 30.917 30.6977 31.032 30.7552 31.2851C30.7725 31.3484 30.7092 31.3887 30.6919 31.4347C30.6517 31.5267 30.6056 31.6188 30.5769 31.7108C30.5654 31.7568 30.6287 31.8374 30.5826 31.8661C30.3468 31.987 30.2202 32.1538 30.2892 32.4184C30.0189 32.4702 30.0937 32.683 30.0879 32.8613C30.0764 33.0397 29.9671 33.172 30.0476 33.3906C30.0706 33.4481 30.0649 33.4999 30.0189 33.5287C29.737 33.6897 29.6852 33.9543 29.6162 34.2189C29.5702 34.38 29.5357 34.4433 29.4666 34.5123C29.3976 34.5814 29.2883 34.6504 29.133 34.7482L29.1215 34.7597C28.9604 34.8633 28.9086 34.9898 28.8569 35.0991C28.8281 35.1681 28.8108 35.2315 28.8108 35.289C28.8166 35.3695 28.9374 35.3867 29.0064 35.404C29.225 35.4673 29.4896 35.5018 29.7427 35.4385C29.9268 35.3983 30.0131 35.3349 30.1627 35.3062L30.3065 35.3004C30.3525 35.3004 30.3583 35.2775 30.3813 35.2717C30.4158 35.2487 30.4503 35.2257 30.4733 35.2027C30.5194 35.1567 30.5539 35.2429 30.6172 35.3062C30.7264 35.4212 30.922 35.6226 31.1234 35.7491C31.1579 35.7779 31.2039 35.7837 31.2212 35.7607C31.2384 35.7376 31.2269 35.7031 31.2269 35.6686C31.2154 35.5996 31.1982 35.519 31.1752 35.4442C31.1349 35.3004 31.0313 35.1336 30.9853 35.0358C30.8703 35.0071 30.7092 33.9947 30.5539 33.2813C30.5136 33.0972 30.4446 32.9189 30.3985 32.7406C30.3755 32.6485 30.3698 32.5565 30.3698 32.4644C30.3755 32.125 30.3928 31.7799 30.387 31.4347L30.3123 29.9678C30.3065 29.8298 30.3123 29.6917 30.295 29.5536L30.2777 29.4501L30.2662 29.3983L30.2605 29.3753L31.457 29.2948H31.4628C31.48 29.2833 31.457 29.3178 31.4628 29.289C31.457 29.289 31.503 29.312 31.4743 29.3005C31.457 29.289 31.457 29.2832 31.4628 29.289V29.2948C31.4628 29.2948 31.4628 29.3005 31.4628 29.2948C31.4628 29.2717 31.4685 29.2487 31.4743 29.22C31.4973 29.1279 31.5836 29.0531 31.6986 29.0704C31.7792 29.0819 31.8597 29.1337 31.9115 29.2085L31.946 29.266L31.9748 29.2832C31.992 29.2947 32.0093 29.3063 32.0208 29.312C32.0783 29.3523 32.1013 29.4041 32.0668 29.4616C31.9748 29.6284 32.2106 29.7837 31.9287 29.9621C31.8885 29.9851 31.9057 30.0196 31.923 30.0426C32.2796 30.4971 32.1358 30.986 32.1301 31.4693C32.1301 31.6246 32.1876 31.7799 32.2164 31.9352C32.2336 32.0387 32.2394 32.1365 32.2394 32.2401C32.2394 32.3896 32.2049 32.5392 32.2336 32.683C32.2566 32.7923 32.3544 32.8959 32.0783 33.0109C32.0208 33.0339 32.038 33.0915 32.1071 33.1087C32.3717 33.172 32.3487 33.264 32.3487 33.356C32.3429 33.6034 32.3142 33.8565 32.3372 34.1039C32.3544 34.288 32.4062 34.4664 32.481 34.6447C32.6018 34.9841 32.7859 35.4673 32.9067 35.9735C32.9584 36.1806 33.0045 36.4049 33.016 36.6005C33.0275 36.7961 33.0045 36.9687 32.9815 37.1298C32.9699 37.2046 32.993 37.3081 32.9757 37.3714C32.9412 37.4807 32.9239 37.6245 32.8146 37.6187C32.7513 37.6187 32.7226 37.6245 32.6881 37.6762C32.6593 37.728 32.6305 37.8086 32.6421 37.9352C32.6593 38.079 32.5845 38.0905 32.504 38.0962C32.4062 38.102 32.2566 38.033 32.1128 37.9467C31.9287 37.8431 31.7619 37.7108 31.6871 37.9006C31.6469 38.0041 31.4858 37.9122 31.3592 37.8029C30.784 37.2851 30.4158 37.1528 29.9211 37.0435L29.6737 36.986C29.5932 36.9687 29.5587 36.9687 29.4954 36.9629C29.4551 36.9629 29.3688 36.9457 29.271 36.9227L29.0007 36.8652C28.644 36.7789 28.2011 36.7156 27.8444 36.566C27.574 36.4452 27.413 36.2611 27.2922 36.1C27.2346 36.031 27.1713 35.8814 27.1598 35.8009C27.1368 35.7089 27.1253 35.6111 27.1196 35.5076C27.1138 35.2947 27.1656 35.0359 27.2979 34.777C27.4935 34.4088 27.7006 34.0522 27.8962 33.7128L27.9997 33.5402C28.0227 33.4941 28.04 33.4481 28.0342 33.3906C28.0285 33.1317 28.1493 32.9362 28.3219 32.7636C28.529 32.5565 28.5577 32.2631 28.5865 31.9697C28.5922 31.9007 28.5692 31.8202 28.6152 31.7684C28.9259 31.4232 28.9029 30.9228 29.1387 30.5489C29.3286 30.244 29.6047 29.9793 29.8636 29.7032C30.0649 29.4903 30.2892 29.2948 30.5021 29.0934C30.5136 29.0819 30.5021 29.0531 30.5193 29.0416C30.6517 28.9323 30.9853 29.0359 31.4225 29.3235C31.8079 29.5824 32.0035 29.7894 31.9402 29.9103C31.8655 30.0483 31.7619 30.1692 31.6699 30.3015L31.7504 30.3359Z" fill="#A6C5F3"/>
<path d="M5.24154 70.9204L7.37575 64.1669C7.40451 64.0864 7.50232 64.0576 7.57135 64.1152L10.2348 66.4852C10.2866 66.5312 10.2866 66.6175 10.2348 66.6635L5.43713 71.047C5.34509 71.1333 5.20127 71.0412 5.24154 70.9204Z" fill="#CFE2F4"/>
<path d="M4.68373 69.9313C4.86206 69.7587 5.00011 69.5746 5.21871 69.4193C5.4143 69.2812 5.61565 69.1489 5.51786 68.9131C5.49485 68.8498 5.54663 68.8095 5.55813 68.7635C5.58689 68.6715 5.61564 68.5794 5.6329 68.4874C5.63865 68.4414 5.55812 68.3723 5.60414 68.3436C5.81699 68.1998 5.92053 68.0272 5.81123 67.7798C6.07009 67.6993 5.9608 67.5037 5.94354 67.3311C5.92629 67.1643 6.01832 67.0262 5.90327 66.8249C5.87451 66.7731 5.86877 66.7213 5.91479 66.6926C6.1679 66.5085 6.17939 66.2439 6.20816 65.9908C6.25993 65.6629 6.44978 65.2487 6.70865 65.1049C6.78918 65.0588 6.84094 64.9841 6.87546 64.892C6.90422 64.8287 6.92724 64.7597 6.95025 64.6964C7.01928 64.5124 7.05955 64.2707 7.13433 64.0982C7.19761 63.9774 7.20911 63.8335 7.3069 63.7185C7.45647 63.6149 7.51975 63.684 7.61755 63.6207C7.74411 63.5689 7.90518 63.5171 8.10652 63.5229C8.30786 63.5171 8.53221 63.6322 8.76807 63.7703C9.01543 63.9084 9.22827 64.1902 9.42961 64.4146L9.723 64.7482C9.75751 64.8057 9.88406 64.9496 9.9646 65.0473C10.1487 65.2659 10.3155 65.4673 10.4996 65.6571C10.7757 65.9505 10.954 66.2324 11.0806 66.497C11.1209 66.6868 11.0691 66.7789 11.0518 66.9227C11.0231 67.0608 10.9771 67.216 10.8735 67.3713C10.7182 67.5957 10.4823 67.8143 10.281 68.0444L9.95885 68.3953C9.84956 68.5104 9.82654 68.5507 9.75751 68.6312L9.05569 69.4883C8.9464 69.6264 8.85435 69.7875 8.74505 69.9313C8.69328 70.0003 8.63001 70.0636 8.55522 70.1153C8.29636 70.3167 8.02598 70.5008 7.77862 70.7136L6.73165 71.6398C6.6281 71.7261 6.52456 71.8066 6.43252 71.8986L6.36923 71.9734L6.34047 72.0137L6.33472 72.0252C6.31171 72.0482 6.27145 72.0828 6.23693 72.1115C6.1679 72.1691 6.0816 72.2208 5.99531 72.2668C5.62715 72.4624 5.15544 72.4739 4.79303 72.3358C4.42486 72.1978 4.10846 71.9217 3.92438 71.519C3.72304 71.0473 3.83809 70.6964 3.92438 70.5986C4.02217 70.4836 4.10846 70.541 4.21201 70.6964C4.39609 70.9552 4.67222 71.1278 4.93108 71.1508C5.05764 71.1623 5.17845 71.1393 5.25898 71.0818C5.35103 71.0358 5.37979 70.915 5.36829 70.9553C5.36829 70.961 5.36828 70.961 5.36253 70.9495L5.35679 70.9437C5.29926 70.8747 5.24172 70.8114 5.1842 70.7481C5.17845 70.7309 5.17846 70.7079 5.17846 70.6906C5.17846 70.6216 5.19571 70.5756 5.25898 70.5641C5.44307 70.5353 5.41432 70.2592 5.7192 70.3742C5.76522 70.3915 5.77672 70.3569 5.78247 70.3282C5.89752 69.7817 6.35198 69.5976 6.71439 69.3215C6.83519 69.2294 6.90998 69.0914 7.00778 68.9763C7.07105 68.9016 7.14583 68.8383 7.22062 68.775C7.32992 68.6887 7.46797 68.6255 7.55426 68.5162C7.62329 68.4299 7.6348 68.2976 7.89942 68.4414C7.95695 68.4702 7.98571 68.4241 7.95695 68.3608C7.83614 68.1192 7.92243 68.0789 7.99146 68.0271C8.1813 67.8833 8.38265 67.7568 8.55522 67.5957C8.6185 67.5382 8.67602 67.4692 8.72779 67.3944C8.77957 67.3253 8.8371 67.2333 8.84285 67.1873C8.90038 67.0032 8.85435 66.8421 8.81984 66.7443C8.78532 66.6638 8.84284 66.6236 8.77956 66.566C8.75655 66.5488 8.66452 66.5488 8.64727 66.543C8.61275 66.5257 8.5207 66.5315 8.61849 66.497C8.72779 66.4567 8.7163 66.4222 8.45168 66.497C8.30211 66.543 8.31936 66.5372 8.33662 66.52C8.35963 66.5027 8.43441 66.4452 8.49193 66.3819C8.56672 66.3071 8.61275 66.1978 8.46318 66.3014C8.43442 66.3359 8.3999 66.3186 8.37689 66.2899C8.34813 66.2496 8.38264 66.2381 8.38839 66.2036C8.49194 65.9217 8.31936 65.8009 8.22732 65.8239C8.08351 65.8412 8.02598 65.962 8.02598 66.1576C8.03173 66.2151 8.03748 66.2669 8.04323 66.3244C8.04899 66.3762 8.04899 66.3934 8.03173 66.3992C8.00872 66.4107 7.96846 66.4049 7.91094 66.4337C7.89943 66.4394 7.88792 66.4452 7.88792 66.4509C7.87642 66.4855 7.86492 66.543 7.87642 66.5948C7.92244 66.8421 7.83039 67.0434 7.68658 67.2275C7.514 67.4519 7.52551 67.7338 7.54852 68.0156C7.55427 68.0789 7.58879 68.1595 7.54852 68.2113C7.29541 68.5737 7.39319 69.0454 7.21486 69.4366C7.07105 69.7472 6.84095 70.0348 6.6281 70.3224C6.46128 70.5468 6.26569 70.7596 6.08736 70.9782C6.07585 70.9955 6.09312 71.0185 6.07586 71.0301C5.96081 71.1509 5.6214 71.0933 5.14968 70.869C4.72975 70.6734 4.5054 70.495 4.55717 70.3685C4.60894 70.2304 4.69524 70.0981 4.76427 69.9658L4.68373 69.9313Z" fill="#A6C5F3"/>
<path d="M668.634 52.8109L660.053 61.0774C659.811 61.3064 659.995 61.7151 660.328 61.6825C661.416 61.5875 662.743 61.642 664.132 62.1358C665.681 62.684 666.219 63.3982 667.565 63.9969C668.779 64.533 670.646 64.9807 673.421 64.4185C673.617 64.3773 673.744 64.1856 673.7 63.9949C673.456 62.9042 673.138 61.7506 672.742 60.5467C671.726 57.4855 670.431 54.9261 669.177 52.8704C669.064 52.6857 668.796 52.6513 668.634 52.8109Z" fill="#CFE2F4"/>
<path d="M667.962 54.6042C667.534 54.8525 667.132 55.134 666.674 55.3456C666.266 55.5374 665.861 55.7166 665.664 56.1363C665.614 56.2424 665.499 56.3005 665.417 56.3826C665.262 56.5329 665.111 56.6786 664.966 56.8358C664.898 56.9074 664.894 57.0478 664.806 57.0897C664.377 57.2804 664.028 57.5582 663.829 57.9906C663.425 58.0708 663.292 58.4235 663.089 58.7167C662.886 59.0099 662.6 59.2207 662.468 59.5815C662.44 59.6679 662.353 59.7753 662.298 59.7917C662.032 59.8597 661.806 60.0782 661.659 60.2561L661.504 60.456C661.416 60.5841 661.279 60.6906 661.089 60.8503C661.008 60.9404 660.966 61.0741 660.972 61.1718C660.976 61.2823 661.016 61.3258 661.036 61.3556C661.098 61.437 661.412 61.4194 661.677 61.4296C662.007 61.4384 662.364 61.4102 662.66 61.4364C663.246 61.506 663.832 61.5757 664.435 61.651C665.259 61.7184 666.132 62.0581 666.808 62.3736C667.156 62.5318 667.408 62.7619 667.694 62.9457C668.262 63.31 668.893 63.628 669.586 63.7845C670.106 63.9051 670.65 63.9151 671.191 63.8723C671.442 63.8515 671.694 63.802 671.941 63.749L672.037 63.7267C672.061 63.7231 672.064 63.7185 672.076 63.7127L672.141 63.6824L672.26 63.6278C672.314 63.6034 672.365 63.5836 672.406 63.5569C672.452 63.5337 672.464 63.4496 672.427 63.3934C672.367 63.2626 672.323 63.2156 672.25 63.0537C671.984 62.3118 671.737 61.5628 671.461 60.8347C671.319 60.4856 671.138 60.1506 670.973 59.8131C670.891 59.6444 670.828 59.4687 670.765 59.2929C670.536 58.6359 670.307 57.9789 670.023 57.3383C669.621 56.4233 669.153 55.5385 668.682 54.6583C668.546 54.407 668.415 54.1591 668.264 53.9182L668.143 53.7428L668.081 53.6533L668.049 53.6086L668.034 53.5903L668.03 53.5869L668.025 53.5834C667.844 53.6924 669.598 52.6232 668.855 53.0743L668.858 53.0697C668.887 53.0408 668.857 53.0904 668.863 53.0731C668.858 53.0697 668.882 53.0949 668.868 53.0846C668.863 53.0731 668.863 53.0731 668.863 53.0731C668.808 52.8675 668.913 52.6092 669.186 52.6183C669.277 52.6213 669.369 52.6611 669.446 52.7113C669.503 52.7318 669.559 52.7522 669.609 52.7819C669.704 52.8378 669.778 52.9214 669.804 53.0409C669.888 53.3903 670.269 53.6013 670.181 54.0378C670.17 54.1011 670.215 54.1562 670.258 54.1951C671.037 54.9311 671.347 55.9421 671.73 56.8929C671.858 57.2029 672.036 57.4931 672.179 57.7927C672.27 57.989 672.357 58.1899 672.433 58.3967C672.543 58.693 672.61 59.0079 672.739 59.2972C672.837 59.513 673.004 59.7021 672.806 59.9987C672.766 60.0622 672.819 60.1735 672.896 60.195C673.199 60.2695 673.232 60.466 673.274 60.6614C673.396 61.182 673.498 61.7096 673.643 62.2186C673.702 62.4197 673.753 62.5724 673.837 62.8067C673.922 63.0491 674.022 63.3018 674.126 63.5659C674.198 63.7692 674.248 63.9714 674.28 64.1599C674.322 64.3346 674.301 64.5556 674.196 64.7356C674.144 64.8256 674.081 64.9007 674.016 64.9597L673.77 65.107C673.599 65.2022 673.454 65.3306 673.205 65.3755C673.016 65.4282 672.822 65.4774 672.618 65.5198C672.419 65.5656 672.177 65.5933 672.077 65.6122C671.808 65.6561 671.533 65.6885 671.258 65.7208C671.133 65.7353 671.002 65.7957 670.875 65.8021C670.638 65.8124 670.383 65.8666 670.162 65.7595C669.917 65.6353 669.735 65.6005 669.476 65.795C669.328 65.9073 669.115 65.8566 668.952 65.8068C668.74 65.7353 668.542 65.5959 668.361 65.4541C668.138 65.2815 667.952 65.1075 667.634 65.1792C667.462 65.2168 667.287 65.0865 667.157 64.9617C666.596 64.4156 665.981 64.0378 665.404 63.753C664.636 63.3689 663.9 63.2022 663.115 63.1208L662.662 63.0644L662.44 63.0355C662.318 63.0166 662.119 63.0048 661.96 62.9872C661.691 62.9735 661.43 62.9587 661.135 62.9693C660.867 62.9637 660.521 63.0148 660.267 62.9908C659.722 62.952 659.444 62.7382 659.263 62.5964C659.08 62.4178 659.01 62.4159 658.82 62.0244C658.749 61.8499 658.71 61.6418 658.72 61.5129C658.734 61.3874 658.753 61.2942 658.799 61.1559C658.845 60.9681 658.973 60.719 659.051 60.4689C659.075 60.4078 659.099 60.3467 659.131 60.2845L659.271 60.0951C659.733 59.5786 660.322 59.0557 660.889 58.602L661.123 58.411C661.178 58.3659 661.237 58.3161 661.287 58.2675C661.396 58.1692 661.496 58.064 661.594 57.9508C661.787 57.729 661.966 57.4888 662.136 57.2498C662.218 57.139 662.276 57.0029 662.388 56.9207C663.157 56.367 663.668 55.5431 664.38 54.9322C664.956 54.4358 665.596 54.0082 666.218 53.5668C666.702 53.2239 667.206 52.9109 667.696 52.5795C667.726 52.5586 667.744 52.5148 667.774 52.4939C668.064 52.3154 668.378 52.491 668.622 52.973C668.841 53.4011 668.867 53.7427 668.643 53.9486C668.396 54.1742 668.129 54.3699 667.872 54.5805L667.962 54.6042Z" fill="#A6C5F3"/>
<path d="M677.429 20.306C677.282 20.5126 676.982 20.5118 676.844 20.3019C675.425 18.1308 673.939 15.4722 672.65 12.3156C671.935 10.5668 671.376 8.89779 670.937 7.3467C670.878 7.14564 671.008 6.94133 671.208 6.90354C672.61 6.64711 674.532 6.51934 676.623 7.14779C677.583 7.43769 678.002 7.71296 678.971 8.06725C680.262 8.53849 682.123 9.00351 684.638 8.96491C684.929 8.9589 685.105 9.28248 684.938 9.51684C682.434 13.1105 679.931 16.7043 677.429 20.306Z" fill="#CFE2F4"/>
<path d="M675.498 19.7322C675.315 19.2165 675.11 18.7204 674.993 18.1825C674.882 17.7056 674.8 17.2366 674.429 16.8967C674.334 16.812 674.309 16.6718 674.243 16.5582C674.131 16.3528 674.03 16.1416 673.91 15.9454C673.856 15.8548 673.72 15.7967 673.704 15.6921C673.629 15.1851 673.464 14.7326 673.102 14.3708C673.145 13.9368 672.845 13.6644 672.637 13.3375C672.424 13.0153 672.319 12.6361 672.014 12.3522C671.933 12.2779 671.873 12.1757 671.865 12.0699C671.812 11.4282 671.533 10.8773 671.284 10.3055C671.152 10.0001 671.044 9.68306 670.971 9.35666C670.934 9.19346 670.906 9.02912 670.889 8.85893C670.876 8.71287 670.846 8.45412 670.839 8.27007C670.833 8.14354 670.823 8.02163 670.802 7.90553C670.777 7.62952 670.693 7.36645 670.695 7.10297C670.716 6.98897 670.777 6.8771 670.869 6.80188C670.956 6.72322 671.064 6.70314 671.168 6.65892C671.375 6.58313 671.612 6.51521 671.865 6.47372L672.913 6.30647C673.231 6.25547 673.547 6.1964 673.87 6.12811C674.735 5.94675 675.651 5.91013 676.56 6.02654C677.021 6.08185 677.465 6.30404 677.878 6.51029C678.295 6.71998 678.642 6.92771 678.994 7.1101C679.346 7.29248 679.712 7.45638 680.093 7.58915C680.661 7.7889 681.261 7.89759 681.862 7.95682C682.142 7.98538 682.426 7.98866 682.709 7.98384L683.354 7.98301C683.605 7.98295 683.864 7.98168 684.13 7.9712L684.298 7.96693C684.506 7.95672 684.64 7.99865 684.796 8.02896C684.933 8.06627 685.142 8.08485 685.219 8.1351L685.533 8.282C685.629 8.32525 685.722 8.39383 685.818 8.51532C685.913 8.62876 685.98 8.77915 686.02 8.90897C686.061 9.04684 686.058 9.13775 686.057 9.24475C686.056 9.45875 686.038 9.72461 685.91 10.0313C685.78 10.3425 685.523 10.6683 685.325 10.9937L684.732 11.9077L684.057 13.0189C683.839 13.3801 683.641 13.763 683.428 14.1276C683.319 14.3122 683.197 14.4866 683.074 14.6528C682.604 15.2856 682.116 15.9047 681.658 16.5396L679.71 19.2988C679.339 19.8183 678.944 20.3207 678.705 20.9316C678.636 21.1023 678.5 21.073 678.313 20.8622C677.983 20.4956 677.629 20.1326 677.569 19.7222C677.527 19.4405 677.515 19.1955 677.721 19.0254C678.017 18.78 678.061 18.3254 678.506 18.1898C678.569 18.1722 678.6 18.1019 678.624 18.0408C678.981 16.9518 679.758 16.1461 680.421 15.2628C680.637 14.9718 680.799 14.6477 680.997 14.343C681.123 14.1433 681.256 13.9552 681.392 13.7624C681.594 13.4899 681.828 13.2334 681.999 12.9449C682.131 12.728 682.196 12.4676 682.566 12.4417C682.643 12.4344 682.708 12.3179 682.68 12.2398C682.57 11.9435 682.711 11.7829 682.843 11.6154L683.363 10.9341L683.563 10.6743L683.733 10.4353C683.895 10.1975 684.016 9.95758 684.056 9.77906C684.067 9.71573 684.004 9.62629 683.909 9.59108C683.812 9.54783 683.681 9.57954 683.574 9.60767L683.024 9.75067L682.933 9.77639C682.869 9.79395 682.818 9.80574 682.77 9.81288L682.697 9.82358C682.673 9.82715 682.569 9.82189 682.507 9.81874C682.214 9.80865 681.927 9.78933 681.633 9.77119C681.496 9.76265 681.357 9.79556 681.218 9.77896C680.971 9.74564 680.697 9.75728 680.487 9.61563C680.254 9.45683 680.067 9.38989 679.775 9.55237C679.607 9.64292 679.398 9.56681 679.239 9.49165C679.028 9.39947 678.84 9.23817 678.664 9.0791C678.452 8.89259 678.267 8.69789 677.941 8.75008C677.764 8.77625 677.601 8.64819 677.485 8.52565C676.978 7.99195 676.347 7.80971 675.675 7.74048C674.773 7.65163 673.876 7.73078 673.007 7.888C672.532 7.95817 672.657 7.96448 672.59 7.98667C672.568 8.00633 672.548 8.00526 672.53 8.02836C672.518 8.05488 672.529 8.07785 672.525 8.10318L672.519 8.14921C672.521 8.15726 672.517 8.16187 672.52 8.17797L672.57 8.38025L672.788 9.21561C672.845 9.43738 672.9 9.66375 673.022 9.8553C673.306 10.3026 673.457 10.7943 673.574 11.3035C673.71 11.9206 674.044 12.4552 674.385 12.9805C674.465 13.1043 674.579 13.2108 674.62 13.3487C674.91 14.3091 675.56 15.093 675.977 15.9895C676.318 16.7161 676.591 17.4776 676.911 18.2239L677.271 19.1L677.455 19.5375L677.549 19.758L677.557 19.7855L677.563 19.797L677.564 19.805L677.569 19.8085L677.171 20.0646L677.156 20.0751C677.149 20.0843 677.153 20.0797 677.153 20.0797C677.156 20.0751 677.155 20.0671 677.155 20.0671C677.154 20.059 677.161 20.0785 677.146 20.0602L677.141 20.0568C677.173 20.0808 677.21 20.1082 677.255 20.1344C677.339 20.1962 677.433 20.2808 677.478 20.4141C677.57 20.6472 677.437 20.9711 677.082 21.073C676.908 21.1233 676.688 21.1105 676.482 20.993C676.379 20.9383 676.281 20.8582 676.205 20.7585C676.139 20.6737 676.14 20.6817 676.112 20.6324C675.922 20.3192 675.758 19.9898 675.586 19.6616L675.498 19.7322Z" fill="#A6C5F3"/>
<path d="M666.541 53.3338L674.613 53.9748C675.594 54.0517 676.498 53.433 676.77 52.4882C678.098 47.8716 679.363 42.9355 680.504 37.6928C681.696 32.2082 682.628 26.9676 683.347 22.0134C683.516 20.8701 682.702 19.8145 681.557 19.667C678.711 19.3022 675.869 18.9328 673.023 18.568C672.022 18.4405 671.079 19.0444 670.777 20.01C669.293 24.7689 667.889 30.1245 666.75 36.0208C665.709 41.4172 665.042 46.4746 664.635 51.0948C664.536 52.232 665.392 53.2404 666.541 53.3338Z" fill="#CFE2F4"/>
<path d="M670.59 52.8213C671.693 53.0243 672.799 53.1938 673.884 53.4405C674.126 53.4911 674.369 53.5498 674.608 53.605C674.816 53.6523 675.02 53.6675 675.233 53.6319C675.65 53.562 676.048 53.2771 676.212 52.8828C676.304 52.6718 676.408 52.5126 676.478 52.235C676.614 51.7626 676.749 51.2902 676.868 50.8121C676.922 50.5944 676.889 50.3403 676.98 50.15C677.408 49.2068 677.712 48.2366 677.806 47.203C678.223 46.4876 678.265 45.6878 678.394 44.8876C678.523 44.0954 678.761 43.3119 678.781 42.503C678.791 42.2878 678.825 42.0483 678.907 41.8512C679.385 40.6373 679.612 39.358 679.841 38.0741C680.091 36.7049 680.435 35.3548 680.906 34.0352C681.155 33.3322 681.302 32.5744 681.443 31.8259C681.608 30.938 681.714 30.0424 681.853 29.1501C682.061 27.857 682.211 26.5642 682.265 25.257C682.304 24.3835 682.348 23.5135 682.391 22.6355L682.426 21.9806C682.436 21.8517 682.426 21.8161 682.425 21.7505C682.412 21.6908 682.407 21.6298 682.391 21.5747C682.329 21.3495 682.193 21.1557 682.024 21.0161C681.852 20.8812 681.664 20.7774 681.451 20.7267C681.021 20.6505 680.582 20.5756 680.151 20.4994C678.372 20.2031 676.603 19.8642 674.819 19.5852L673.815 19.4416L673.312 19.3761L673.056 19.344L672.931 19.3296L672.848 19.3254C672.424 19.2976 671.998 19.5044 671.764 19.8392C671.71 19.9211 671.66 19.9985 671.628 20.0895C671.61 20.1333 671.597 20.1806 671.586 20.2232L671.528 20.4374L671.293 21.3521L670.836 23.1836C669.905 26.7916 669.102 30.43 668.45 34.0873C668.297 34.9693 668.177 35.8546 668.044 36.7377C667.974 37.1799 667.899 37.6186 667.811 38.0551C667.492 39.6812 667.182 41.306 666.934 42.9421C666.577 45.2852 666.304 47.6405 666.057 50.0003L665.955 51.0063C665.936 51.2147 665.928 51.2446 665.938 51.309C665.939 51.3746 665.96 51.4332 665.973 51.4929C666.057 51.7272 666.297 51.9056 666.524 51.8803C666.64 51.8591 666.684 51.9923 666.601 52.2596C666.515 52.4901 666.401 52.7208 666.206 52.8978C666.017 53.0655 665.742 53.1842 665.367 53.0916C664.868 52.9721 664.369 52.6017 664.252 51.92C664.208 51.6798 664.188 51.436 664.193 51.1886C664.2 50.9285 664.217 50.7697 664.23 50.5499C664.26 50.1424 664.316 49.7395 664.5 49.3669C664.55 49.2609 664.555 49.0998 664.552 48.9686C664.465 46.6047 664.933 44.2864 665.322 41.9674C665.448 41.2086 665.516 40.442 665.63 39.6809C665.701 39.1893 665.784 38.6919 665.88 38.2048C666.014 37.4942 666.193 36.7892 666.31 36.073C666.394 35.5342 666.409 34.9934 666.787 34.5716C666.868 34.4815 666.908 34.1959 666.859 34.088C666.68 33.654 666.801 33.2208 666.905 32.782L667.778 29.2318C667.985 28.3541 668.168 27.4719 668.332 26.5841C668.589 25.2056 668.813 23.8239 669.117 22.4591C669.246 21.889 669.392 21.3164 669.542 20.7473L669.774 19.8948L669.833 19.6806C669.867 19.5769 669.897 19.4777 669.939 19.3728C670.025 19.1711 670.119 18.9762 670.245 18.7972C670.471 18.4636 670.727 18.138 671.081 17.913C671.399 17.7056 671.758 17.5416 672.14 17.4604C672.506 17.3735 672.94 17.3875 673.228 17.4724C673.725 17.6414 674.126 17.7097 674.628 17.545C674.911 17.4539 675.331 17.5152 675.674 17.5837C676.111 17.6713 676.539 17.8176 676.959 17.9571C677.461 18.1296 677.935 18.3022 678.512 18.2005C678.825 18.1461 679.231 18.2546 679.56 18.3623C679.923 18.4813 680.295 18.5784 680.665 18.6595L681.224 18.7742L681.832 18.8817C682.865 19.0826 683.777 19.8525 684.114 20.8841C684.231 21.2287 684.282 21.6035 684.259 21.973L684.187 22.7936L684.047 24.3521C683.95 25.3903 683.848 26.4252 683.73 27.4624C683.636 28.2739 683.5 29.0834 683.373 29.8917C682.976 32.4052 682.414 34.8896 681.804 37.3605C681.687 37.8465 681.554 38.3351 681.498 38.8243C681.366 39.9582 681.088 41.056 680.747 42.1426C680.336 43.4493 680.106 44.7907 679.869 46.1334C679.816 46.4454 679.79 46.77 679.69 47.0685C679.35 48.1056 679.092 49.1677 678.842 50.2285L678.451 51.8158L678.239 52.6038C678.196 52.787 678.039 53.3365 677.788 53.7025C677.392 54.3326 676.794 54.8198 676.108 55.0774C675.77 55.2056 675.406 55.2798 675.046 55.2919C674.867 55.302 674.68 55.2925 674.517 55.2714L674.193 55.2247L671.591 54.8403C670.251 54.6477 668.918 54.4172 667.579 54.2039C667.49 54.1882 667.398 54.2059 667.309 54.1902C666.549 54.0558 666.336 53.6967 666.736 53.2058C667.092 52.775 667.621 52.5446 668.31 52.6115C669.073 52.6837 669.831 52.7813 670.597 52.8696L670.59 52.8213Z" fill="#A6C5F3"/>
</svg>
