<svg width="1339" height="521" viewBox="0 0 1339 521" fill="none" xmlns="http://www.w3.org/2000/svg">
<path d="M45.9533 438.515L281.549 407.16C281.707 407.136 281.85 407.256 281.866 407.414L287.545 458.234C287.561 458.385 287.457 458.528 287.299 458.552L50.3531 492.639C50.1863 492.662 50.0433 492.543 50.0274 492.376L45.6991 438.832C45.6912 438.666 45.8024 438.531 45.9533 438.515Z" fill="#F5E3B4"/>
<path d="M70.9547 434.035C77.9833 433.265 85.0595 432.431 92.0165 431.732C98.235 431.105 104.326 430.501 110.616 429.437C112.237 429.159 114.015 428.976 115.715 428.746C118.812 428.325 121.91 427.904 125.007 427.491C126.421 427.293 127.882 426.967 129.192 426.832C135.665 426.197 142.082 425.402 148.499 424.298C153.566 423.933 158.49 423.052 163.533 422.289C168.576 421.527 173.73 420.899 178.694 420.002C180.012 419.764 181.529 419.541 182.879 419.398C191.067 418.565 199.216 417.389 207.42 416.23C216.203 414.991 225.003 413.903 233.779 413.013C238.449 412.545 243.325 411.885 248.098 411.25C253.776 410.456 259.455 409.662 265.141 408.867C267.73 408.502 270.311 408.145 272.892 407.787C275.553 407.398 278.214 407.017 280.874 406.628C281.12 406.596 281.366 406.588 281.581 406.596C281.795 406.612 282.018 406.58 282.2 406.771C282.423 407.128 282.518 407.557 282.589 408.073L282.915 410.599L283.535 415.165C285.043 426.109 286.505 437.141 287.903 448.196C288.077 449.689 288.26 451.198 288.435 452.699C288.617 454.414 288.808 456.13 288.991 457.845C289.022 458.139 288.991 458.409 288.943 458.639C288.879 458.885 288.832 459.052 288.681 459.274C288.514 459.505 288.339 459.6 288.141 459.719C287.934 459.83 287.688 459.934 287.41 459.981L284.773 460.347C283.447 460.521 282.113 460.704 280.787 460.879C269.446 462.404 258.121 463.936 246.772 465.461C238.258 466.637 229.728 467.899 221.215 469.162C213.273 470.377 205.355 471.592 197.413 472.807C173.873 476.342 150.334 479.876 126.794 483.41C121.139 484.275 115.493 485.149 109.838 486.015C107.011 486.428 104.176 486.841 101.348 487.254L69.8349 491.669L50.6871 494.409C50.1471 494.481 49.6944 494.362 49.3608 494.203C49.2099 494.139 48.9875 493.988 48.8366 493.83C48.6937 493.679 48.5984 493.552 48.4872 493.353C48.3839 493.17 48.2886 492.956 48.241 492.702C48.1933 492.448 48.1854 492.17 48.1616 491.9L48.0504 490.478L47.7804 487.103L47.2403 480.36L46.1602 466.867C45.4852 458.274 44.8419 449.689 43.9365 441.159C43.873 440.563 43.8333 440.063 43.8174 439.666C43.8094 439.468 43.8015 439.293 43.8094 439.15C43.8094 439.062 43.8094 438.983 43.8174 438.912C43.7935 438.451 43.9286 438.03 44.1192 437.72C44.5004 437.093 45.0325 436.871 45.3343 436.799C45.6519 436.728 45.779 436.767 45.7314 436.799C45.6837 436.847 45.4455 436.894 45.1119 437.117C44.7863 437.331 44.3574 437.768 44.278 438.475C44.2621 438.626 44.2701 438.777 44.286 438.912L44.3257 438.983L44.3971 439.118L44.548 439.396C44.6433 439.579 44.7386 439.761 44.8419 439.952C45.0404 440.333 45.231 440.754 45.4216 441.246C45.8029 442.239 46.184 443.55 46.5494 445.591C47.0418 448.354 47.4548 450.936 47.6374 454.406C47.8995 459.433 48.6381 464.699 48.6381 469.678C48.6381 470.377 48.7413 471.394 48.8287 472.212C49.2258 475.77 49.5832 479.336 49.9088 482.909L50.3853 488.27L50.5997 490.796L50.6712 491.677C50.6791 491.749 50.7348 491.812 50.8142 491.836C50.8857 491.852 50.9571 491.828 51.0365 491.82L51.4733 491.757C58.9943 490.716 66.5232 489.668 74.0441 488.62C78.8569 487.945 83.6776 487.182 88.4903 486.467L97.8697 485.109C102.412 484.466 106.971 483.878 111.49 483.195C114.905 482.679 118.209 482.076 121.354 482.02C122.013 482.012 123.808 481.726 124.427 481.543C126.802 480.837 129.629 480.471 132.457 480.074L155.369 476.866C161.015 476.048 166.67 475.182 172.277 474.285C180.997 472.871 189.678 471.465 198.398 470.052C205.696 468.94 213.035 467.82 220.357 466.7C222.049 466.422 223.716 466.152 225.408 465.874C228.521 465.414 231.777 464.85 234.716 464.556C237.98 464.23 240.521 463.889 243.468 463.142C245.128 462.721 247.804 462.356 249.98 462.07C252.784 461.705 255.571 461.435 258.319 461.157C261.623 460.831 264.712 460.537 268.215 459.791C270.089 459.394 272.734 459.092 274.894 458.869C277.141 458.639 279.397 458.385 281.652 458.107L285.036 457.678L286.06 457.551C286.163 457.527 286.354 457.559 286.37 457.408L286.338 457.043C286.076 454.66 285.806 452.27 285.544 449.871L284.631 442.239C283.884 436.235 283.137 430.231 282.391 424.235L281.263 415.237L280.699 410.734C280.612 410.043 280.485 408.979 280.485 409.106C280.469 409.042 280.469 408.971 280.437 408.915C280.374 408.883 280.302 408.931 280.239 408.931L280.104 408.963L279.381 409.066L277.816 409.296C272.71 410.011 267.587 410.726 262.465 411.441C246.541 413.641 230.61 415.666 214.679 417.675C211.55 418.072 208.373 418.461 205.307 418.938C198.207 420.05 191.131 420.947 184.007 421.781C175.43 422.782 166.94 424.052 158.458 425.323C156.481 425.617 154.487 425.966 152.526 426.197C138.834 427.833 125.245 429.969 111.601 431.716C100.562 433.13 89.5228 434.409 78.4915 435.711C69.9699 436.696 61.4642 437.681 52.9585 438.665C52.4025 438.745 51.8148 438.824 51.2668 438.904C46.4144 439.444 44.826 439.182 47.0179 438.165C48.9637 437.268 52.1087 436.473 56.4847 435.91C61.3133 435.306 66.142 434.694 70.9627 434.091L70.9547 434.035Z" fill="#EBC464"/>
<path d="M89.4352 398.615L144.901 392.667C145.052 392.651 145.195 392.762 145.211 392.913L160.173 506.608C160.197 506.759 160.086 506.902 159.935 506.926L105.557 515.583C105.398 515.607 105.255 515.495 105.232 515.337L89.189 398.933C89.1572 398.774 89.2764 398.631 89.4352 398.615Z" fill="#F5E3B4"/>
<path d="M104.216 395.883C108.385 395.597 112.578 395.255 116.708 395.041C120.393 394.85 124.015 394.667 127.731 394.04C128.692 393.881 129.741 393.818 130.749 393.707C132.584 393.5 134.418 393.301 136.253 393.095C137.087 392.992 137.953 392.769 138.731 392.73L141.383 392.571C142.297 392.507 143.051 392.444 144.195 392.333C144.505 392.301 144.798 392.309 145.068 392.317C145.196 392.309 145.354 392.38 145.434 392.499C145.505 392.626 145.521 392.753 145.561 392.888C145.712 393.421 145.767 394.127 145.855 394.66C146.014 395.684 146.188 396.701 146.395 397.717C146.482 400.727 147.086 403.626 147.57 406.604C148.055 409.574 148.396 412.624 149.016 415.547C149.182 416.325 149.317 417.222 149.381 418.017C149.762 422.869 150.485 427.674 151.192 432.518C151.946 437.704 152.55 442.906 152.947 448.108C153.161 450.88 153.55 453.755 153.924 456.574C154.368 459.934 154.893 463.277 155.361 466.637C156.036 471.505 156.759 476.334 157.609 481.146C158.744 487.579 159.824 494.068 160.849 500.564C160.976 501.39 161.095 502.224 161.206 503.058C161.341 504.098 161.468 505.147 161.603 506.187C161.643 506.552 161.603 506.886 161.524 507.164C161.476 507.299 161.453 507.418 161.365 507.553C161.286 507.688 161.159 507.823 161.055 507.903C160.841 508.061 160.579 508.212 160.237 508.308C159.896 508.395 159.515 508.427 159.157 508.49C158.228 508.625 157.307 508.76 156.378 508.887C149.691 509.848 143.004 510.809 136.309 511.77C131.289 512.525 126.262 513.351 121.251 514.192C116.525 515.018 111.816 515.844 107.09 516.67L106.026 516.845C105.669 516.901 105.335 516.877 105.057 516.813C104.914 516.774 104.803 516.758 104.66 516.686C104.525 516.615 104.382 516.496 104.303 516.392C104.152 516.178 104.001 515.932 103.898 515.606C103.803 515.281 103.771 514.899 103.715 514.542L103.294 511.667L102.532 506.529L101.007 496.252L97.9573 475.706C97.4411 472.363 96.9249 469.035 96.4087 465.692C96.1545 464.024 95.9242 462.348 95.7019 460.672L93.2478 442.033L89.6025 415.356C88.9195 410.313 88.2762 405.262 87.3788 400.274C87.3152 399.925 87.2755 399.631 87.2597 399.401C87.2597 399.345 87.2517 399.29 87.2517 399.234V399.194V399.178L87.2438 399.051C87.2279 398.869 87.2438 398.686 87.2755 398.519C87.4026 397.844 87.7918 397.399 88.1412 397.161C88.4986 396.915 88.8163 396.851 89.0069 396.836C89.1975 396.828 89.2769 396.852 89.2451 396.891C89.2134 396.979 88.6336 397.05 88.1412 397.725C87.9427 398.019 87.8473 398.353 87.8473 398.678C87.8473 398.821 87.8871 399.051 87.9109 399.091L87.9824 399.163C88.0777 399.266 88.173 399.369 88.2762 399.472C88.4668 399.687 88.6654 399.909 88.856 400.187C89.2372 400.743 89.6184 401.489 89.9758 402.673C90.4682 404.277 90.8812 405.77 91.0638 407.819C91.3259 410.781 92.0645 413.847 92.0645 416.801C92.0645 417.222 92.1677 417.81 92.2551 418.287C93.8991 426.903 94.86 435.655 96.0116 444.376C96.3848 447.227 96.8534 450.07 97.2664 452.913L98.0368 458.456C98.3942 461.141 98.7039 463.841 99.101 466.51C99.4028 468.527 99.7999 470.473 99.6648 472.355C99.6331 472.752 99.7999 473.808 99.9508 474.165C100.507 475.547 100.697 477.223 100.92 478.899L102.699 492.448C103.159 495.783 103.683 499.127 104.223 502.439C104.621 504.773 105.01 507.108 105.407 509.443L106.002 512.938L106.074 513.374L106.122 513.597L106.201 513.954C106.233 514.05 106.217 514.232 106.376 514.216L106.741 514.137L107.019 514.073L107.638 513.954C111.927 513.168 116.255 512.453 120.568 511.699C121.561 511.524 122.537 511.294 123.538 511.127C125.373 510.817 127.287 510.428 129.026 510.277C130.964 510.11 132.457 509.904 134.172 509.3C135.133 508.967 136.714 508.729 138 508.562C139.652 508.339 141.312 508.204 142.94 508.061C144.894 507.895 146.728 507.76 148.777 507.188C149.873 506.878 151.438 506.711 152.716 506.6C154.098 506.473 155.488 506.322 156.87 506.155L157.91 506.02L158.157 505.989L158.268 505.981L158.49 505.957C158.633 505.925 158.808 505.957 158.935 505.869C158.998 505.734 158.927 505.576 158.927 505.425L158.713 503.709L158.419 501.541L157.783 497.205C156.6 489.525 155.425 481.853 154.241 474.173C153.781 471.163 153.376 468.13 152.955 465.112C151.636 455.709 150.493 446.29 149.365 436.871C149.143 435.02 148.928 433.138 148.618 431.335C147.904 427.15 147.395 422.964 146.951 418.747C146.419 413.672 145.624 408.661 144.822 403.658C144.632 402.49 144.401 401.315 144.274 400.155C144.123 398.765 143.957 397.376 143.782 395.986L143.607 394.667C143.599 394.644 143.607 394.62 143.591 394.604C143.567 394.596 143.544 394.612 143.52 394.612L136.332 395.478C133.68 395.795 131.035 396.097 128.383 396.359C121.839 397.002 115.294 397.519 108.75 398.059C103.699 398.456 98.6562 398.845 93.6052 399.242C93.2716 399.266 92.9302 399.337 92.6045 399.361C89.7296 399.568 88.7686 399.194 90.0473 398.337C91.1829 397.574 93.0334 397.01 95.6304 396.74L104.216 395.93V395.883Z" fill="#EBC464"/>
<path d="M181.004 382.477L230.72 375.448C230.879 375.424 231.022 375.535 231.046 375.686L247.914 491.836C247.938 491.987 247.835 492.13 247.676 492.162L202.86 499.452C202.709 499.476 202.558 499.373 202.534 499.222L180.774 382.81C180.726 382.651 180.837 382.5 181.004 382.477Z" fill="#F5E3B4"/>
<path d="M195.19 379.316C199.208 378.911 203.251 378.45 207.23 378.116C210.787 377.815 214.274 377.529 217.848 376.798C218.769 376.607 219.786 376.52 220.755 376.377C222.518 376.123 224.289 375.861 226.052 375.607C226.854 375.48 227.68 375.233 228.434 375.17L230.031 375.019C230.285 374.995 230.515 374.995 230.737 375.011C230.849 375.019 230.952 375.019 231.055 375.043C231.166 375.075 231.27 375.154 231.325 375.257C231.476 375.654 231.563 376.147 231.611 376.639L231.778 377.957L231.945 379.165C232.183 380.769 232.461 382.365 232.802 383.962C232.921 386.868 233.549 389.664 234.057 392.531C234.565 395.398 234.931 398.336 235.574 401.156C235.749 401.902 235.892 402.768 235.963 403.538C236.384 408.224 237.154 412.854 237.901 417.532C238.695 422.535 239.346 427.554 239.791 432.574C240.029 435.25 240.442 438.022 240.839 440.746C241.316 443.986 241.864 447.211 242.364 450.451C243.079 455.152 243.842 459.806 244.739 464.444C245.93 470.647 247.066 476.897 248.138 483.163C248.352 484.426 248.543 485.697 248.718 486.975C248.916 488.453 249.115 489.938 249.306 491.415C249.345 491.709 249.321 491.979 249.274 492.217C249.21 492.463 249.178 492.638 249.028 492.868C248.861 493.099 248.694 493.186 248.48 493.313C248.273 493.424 248.019 493.528 247.733 493.583C241.062 494.568 234.407 495.545 227.735 496.53C222.883 497.268 218.03 498.094 213.194 498.92C209.906 499.508 206.626 500.095 203.346 500.683C203.052 500.731 202.782 500.723 202.544 500.691C202.306 500.643 202.107 500.627 201.869 500.461C201.646 500.294 201.567 500.127 201.44 499.905C201.321 499.69 201.225 499.42 201.17 499.134L200.654 496.53L192.736 456.542C192.084 453.342 191.433 450.149 190.774 446.948C190.448 445.352 190.147 443.74 189.861 442.136L186.636 424.259L181.887 398.678C180.998 393.841 180.148 388.997 179.036 384.224C178.956 383.89 178.909 383.612 178.877 383.382C178.869 383.326 178.869 383.271 178.861 383.223V383.183C178.845 383.096 178.837 383.001 178.829 382.913C178.821 382.738 178.837 382.564 178.869 382.397C178.996 381.746 179.369 381.317 179.703 381.079C180.045 380.84 180.346 380.769 180.529 380.745C180.712 380.729 180.791 380.753 180.759 380.793C180.735 380.88 180.18 380.967 179.719 381.635C179.528 381.92 179.441 382.246 179.441 382.556C179.441 382.715 179.465 382.866 179.504 383.008C179.544 383.104 179.56 383.072 179.584 383.112C179.687 383.207 179.782 383.294 179.886 383.39C180.092 383.58 180.291 383.795 180.497 384.049C180.902 384.565 181.307 385.264 181.72 386.392C182.276 387.909 182.753 389.338 183.023 391.3C183.412 394.151 184.27 397.074 184.397 399.925C184.413 400.33 184.54 400.894 184.651 401.354C186.652 409.59 187.978 418 189.487 426.363C189.98 429.095 190.56 431.819 191.092 434.543L192.092 439.856C192.561 442.43 192.982 445.027 193.49 447.584C193.879 449.522 194.348 451.372 194.292 453.199C194.276 453.58 194.491 454.596 194.65 454.938C195.261 456.248 195.523 457.853 195.809 459.457L198.152 472.45C198.756 475.65 199.407 478.851 200.09 482.02C201.17 486.944 202.242 491.852 203.322 496.776C203.473 497.506 203.489 497.53 203.545 497.76C203.576 497.848 203.56 497.991 203.687 497.999L203.997 497.935C206.824 497.435 209.66 496.935 212.487 496.426C213.448 496.252 214.393 496.021 215.354 495.854C217.125 495.553 218.968 495.163 220.651 495.013C222.526 494.854 223.971 494.647 225.623 494.052C226.552 493.718 228.077 493.488 229.324 493.321C230.92 493.099 232.524 492.964 234.097 492.837C235.987 492.678 237.758 492.543 239.736 491.979C240.792 491.677 242.301 491.51 243.54 491.399L245.954 491.161L246.478 491.129C246.589 491.137 246.621 491.026 246.605 490.946L246.589 490.692L246.566 490.406L246.486 489.779L246.303 488.381L245.906 485.586C245.628 483.719 245.335 481.861 245.025 479.994C243.778 472.585 242.531 465.191 241.284 457.789C240.8 454.89 240.363 451.968 239.918 449.045C238.52 439.975 237.297 430.89 236.09 421.805C235.852 420.026 235.622 418.207 235.296 416.46C234.542 412.425 234.002 408.383 233.525 404.325C232.953 399.432 232.111 394.596 231.27 389.775C231.071 388.655 230.833 387.519 230.698 386.4C230.459 384.438 230.189 382.484 229.904 380.531L229.467 377.616C229.451 377.56 229.435 377.497 229.371 377.544L229.34 377.56L228.72 377.656L227.267 377.878L224.368 378.323C222.438 378.617 220.5 378.895 218.563 379.149C212.265 379.983 205.959 380.682 199.653 381.412C194.785 381.952 189.924 382.492 185.064 383.032C184.746 383.064 184.413 383.144 184.095 383.175C181.323 383.461 180.386 383.12 181.585 382.23C182.649 381.436 184.428 380.817 186.914 380.475L195.182 379.419L195.19 379.316Z" fill="#EBC464"/>
<path d="M194.436 444.518C195.04 444.574 195.635 444.574 196.247 444.693C196.787 444.796 197.327 444.915 197.803 444.598C197.931 444.518 198.081 444.542 198.216 444.51C198.471 444.463 198.725 444.423 198.971 444.352C199.082 444.32 199.185 444.169 199.297 444.193C199.86 444.312 200.4 444.28 200.885 443.947C201.354 444.169 201.719 443.883 202.116 443.716C202.513 443.549 202.95 443.534 203.315 443.232C203.41 443.152 203.53 443.105 203.649 443.129C204.363 443.256 205.015 443.049 205.674 442.859C206.381 442.66 207.119 442.612 207.882 442.755C208.287 442.835 208.692 442.755 209.081 442.684C209.55 442.596 209.994 442.43 210.455 442.318C211.122 442.16 211.781 441.953 212.417 441.62C213.266 441.175 214.124 440.786 215.006 440.468C215.45 440.301 215.935 440.317 216.411 440.277C217.356 440.206 218.317 440.182 219.254 440.079C219.961 439.999 220.66 439.841 221.351 439.674C221.994 439.515 222.622 439.269 223.265 439.102C225.171 438.602 227.085 438.125 228.991 437.625C229.452 437.506 229.897 437.339 230.357 437.212C230.588 437.148 230.818 437.101 231.056 437.069C231.922 436.95 232.795 436.854 233.661 436.719C234.9 436.521 236.131 436.283 237.37 436.084C238.077 435.973 238.784 435.893 239.443 435.56C239.625 435.465 239.721 435.631 239.721 436.021C239.713 436.696 239.737 437.387 239.466 437.839C239.284 438.141 239.109 438.379 238.815 438.34C238.378 438.276 238.005 438.657 237.529 438.332C237.465 438.284 237.386 438.316 237.322 438.355C236.194 439.015 234.94 438.999 233.725 439.166C233.327 439.221 232.946 439.364 232.549 439.451C232.295 439.507 232.041 439.563 231.779 439.594C231.406 439.65 231.016 439.65 230.651 439.753C230.373 439.825 230.127 439.999 229.801 439.658C229.738 439.586 229.587 439.634 229.555 439.737C229.42 440.127 229.182 440.134 228.944 440.166C228.308 440.254 227.673 440.301 227.045 440.42C226.585 440.508 226.124 440.651 225.679 440.817C224.988 441.08 224.305 441.413 223.615 441.667C223.035 441.874 222.431 442.009 221.843 442.183C221.708 442.223 221.581 442.326 221.446 442.358C221.192 442.422 220.938 442.557 220.676 442.477C220.382 442.39 220.168 442.398 219.985 442.755C219.882 442.954 219.659 442.978 219.469 442.978C219.231 442.978 218.984 442.898 218.738 442.819C218.444 442.724 218.166 442.62 217.92 442.906C217.785 443.065 217.555 443.025 217.364 442.97C216.515 442.731 215.736 442.906 214.966 443.152C213.925 443.486 212.893 443.883 211.853 444.232C211.448 444.367 211.027 444.455 210.614 444.558C209.319 444.868 208.001 445.011 206.675 445.138C206.412 445.162 206.15 445.178 205.912 445.289C205.356 445.559 204.769 445.622 204.165 445.614C203.442 445.606 202.767 445.869 202.092 446.131C201.933 446.194 201.782 446.297 201.624 446.297C200.472 446.313 199.408 446.837 198.28 446.972C197.367 447.084 196.43 447.06 195.5 447.06C194.778 447.068 194.055 447.02 193.332 447.004C193.285 447.004 193.245 447.044 193.197 447.036C192.784 447.004 192.57 446.567 192.633 445.829C192.689 445.178 192.887 444.765 193.245 444.709C193.642 444.653 194.047 444.637 194.452 444.598C194.444 444.582 194.436 444.55 194.436 444.518Z" fill="#EBC464"/>
<path d="M99.4025 455.795C100.086 455.843 100.769 455.835 101.459 455.946C102.071 456.041 102.683 456.153 103.238 455.827C103.381 455.748 103.556 455.764 103.715 455.74C104.009 455.684 104.295 455.644 104.589 455.573C104.724 455.541 104.835 455.382 104.97 455.406C105.613 455.525 106.225 455.478 106.788 455.136C107.313 455.358 107.741 455.057 108.202 454.89C108.663 454.715 109.155 454.699 109.584 454.39C109.695 454.31 109.838 454.262 109.973 454.278C110.783 454.397 111.53 454.175 112.292 453.984C113.11 453.778 113.944 453.715 114.818 453.857C115.278 453.929 115.739 453.85 116.184 453.77C116.716 453.675 117.24 453.5 117.764 453.389C118.534 453.222 119.289 453.008 120.02 452.666C121.004 452.206 121.997 451.808 123.006 451.475C123.522 451.3 124.07 451.308 124.61 451.26C125.69 451.173 126.778 451.141 127.858 451.022C128.668 450.935 129.462 450.768 130.257 450.585C130.995 450.419 131.726 450.165 132.465 449.99C134.656 449.466 136.848 448.957 139.04 448.433C139.565 448.306 140.089 448.139 140.613 448.004C140.875 447.933 141.145 447.893 141.407 447.853C142.4 447.718 143.4 447.615 144.393 447.464C145.815 447.25 147.228 446.988 148.642 446.773C149.444 446.654 150.254 446.567 151.025 446.217C151.239 446.122 151.342 446.281 151.318 446.67C151.287 447.345 151.287 448.044 150.969 448.497C150.755 448.806 150.548 449.045 150.207 449.005C149.714 448.941 149.269 449.331 148.745 449.013C148.674 448.965 148.579 449.005 148.507 449.037C147.205 449.712 145.775 449.712 144.377 449.894C143.925 449.95 143.48 450.101 143.027 450.196C142.733 450.26 142.439 450.307 142.146 450.355C141.717 450.419 141.28 450.427 140.859 450.53C140.541 450.609 140.248 450.784 139.898 450.45C139.827 450.379 139.66 450.427 139.612 450.53C139.445 450.927 139.175 450.927 138.905 450.967C138.183 451.062 137.452 451.125 136.737 451.245C136.205 451.34 135.681 451.483 135.165 451.658C134.363 451.928 133.584 452.277 132.782 452.539C132.115 452.761 131.424 452.897 130.749 453.079C130.59 453.119 130.447 453.222 130.288 453.262C130.003 453.325 129.709 453.468 129.407 453.389C129.081 453.301 128.835 453.317 128.605 453.675C128.478 453.881 128.224 453.905 128.009 453.905C127.739 453.913 127.461 453.834 127.183 453.754C126.85 453.667 126.532 453.564 126.246 453.857C126.087 454.016 125.825 453.985 125.611 453.929C124.65 453.699 123.752 453.881 122.871 454.143C121.672 454.493 120.48 454.906 119.281 455.263C118.812 455.406 118.328 455.493 117.851 455.605C116.366 455.938 114.857 456.097 113.34 456.24C113.047 456.272 112.737 456.288 112.459 456.407C111.816 456.685 111.149 456.756 110.458 456.756C109.632 456.756 108.853 457.026 108.075 457.304C107.892 457.368 107.718 457.479 107.527 457.479C106.209 457.511 104.986 458.051 103.691 458.202C102.643 458.321 101.579 458.313 100.514 458.329C99.6964 458.345 98.8704 458.313 98.0445 458.305C97.9889 458.305 97.9412 458.345 97.8856 458.345C97.4171 458.321 97.1947 457.884 97.29 457.137C97.3774 456.478 97.6156 456.065 98.0286 456.01C98.4813 455.946 98.9499 455.922 99.4025 455.883C99.4105 455.867 99.4105 455.827 99.4025 455.795Z" fill="#EBC464"/>
<path d="M45.7222 405.817C45.7063 405.643 45.5316 405.523 45.3569 405.571C18.8867 412.814 0.906298 436.934 1.67666 462.88C2.53438 491.836 26.5665 516.717 57.365 518.616C57.5397 518.623 57.6906 518.473 57.6668 518.298C53.6879 480.804 49.7011 443.311 45.7222 405.817Z" fill="#F5E3B4"/>
<path d="M35.0554 410.734C33.5623 411.44 32.0057 412.052 30.592 412.925C29.1546 413.751 27.6615 414.498 26.3034 415.443C23.7859 416.976 21.451 418.747 19.4258 420.986C18.9255 421.59 18.306 422.154 17.7421 422.742C16.6779 423.766 15.7805 424.949 14.8513 426.093C14.4383 426.625 14.073 427.237 13.6679 427.705C12.707 428.897 11.7698 430.112 10.8883 431.366C10.11 432.685 9.3714 434.043 8.71222 435.425C7.42564 437.45 6.49645 439.65 5.82139 441.961C4.97955 444.209 4.3442 446.583 3.92328 448.918C3.86769 449.545 3.74855 450.26 3.58971 450.872C3.3594 451.809 3.08938 452.746 2.93849 453.699C2.81142 454.66 2.70023 455.621 2.60493 456.582L2.46197 458.027L2.45403 459.481C2.45403 460.45 2.45403 461.419 2.46197 462.395C2.5811 466.565 3.12909 470.687 3.89151 474.785C4.28066 476.977 5.04308 479.184 5.86904 481.313C6.86177 483.846 8.15629 486.237 9.50641 488.588C11.4998 491.979 13.8744 495.116 16.5985 497.887C20.2517 501.588 24.3418 504.853 28.7575 507.561C31.005 508.927 33.2685 510.372 35.659 511.54C40.4161 513.922 45.491 515.725 50.7564 516.702C51.7412 516.916 52.7419 517.035 53.7346 517.17C54.235 517.242 54.7353 517.305 55.2356 517.345L56.0219 517.409C56.141 517.417 56.2522 517.432 56.3634 517.432C56.5064 517.409 56.4666 517.242 56.4508 517.139L56.3634 516.448L56.0219 513.485C55.5454 509.689 55.0689 505.901 54.5924 502.105L50.5658 468.32C50.2243 465.62 49.8828 462.92 49.5413 460.211C49.3746 458.861 49.2316 457.503 49.0966 456.145L47.6115 441.056L45.348 419.462C44.9271 415.379 44.5459 411.297 43.9026 407.255C43.72 406.119 43.8629 405.738 44.2838 406.119C45.0224 406.786 45.769 407.295 46.3646 409.209C46.7696 410.503 47.1032 411.718 47.1826 413.37C47.2938 415.769 47.8656 418.254 47.7227 420.645C47.6988 420.986 47.7703 421.463 47.8338 421.852C49.0251 428.825 49.5413 435.917 50.2402 442.969C50.4705 445.273 50.7882 447.576 51.0503 449.879L51.5347 454.366C51.7571 456.542 51.9159 458.726 52.178 460.886C52.3766 462.522 52.6704 464.095 52.4401 465.612C52.3925 465.929 52.5036 466.787 52.6307 467.081C53.1152 468.201 53.2184 469.559 53.3534 470.917C53.7108 474.57 54.0444 478.231 54.4335 481.885C54.7274 484.585 55.0689 487.285 55.4421 489.969C56.0378 494.131 56.6414 498.285 57.237 502.454C57.7135 505.941 58.1106 509.451 58.5474 512.953C58.6507 513.763 58.8095 514.557 58.9048 515.368C58.9604 515.844 59.0239 516.328 59.0795 516.821C59.143 517.48 59.3098 518.235 59.151 518.751C59.0795 519.013 59.0001 519.219 58.881 519.41C58.738 519.64 58.4759 519.831 58.3012 519.887C57.92 520.085 57.3164 520.172 56.6652 520.045C55.6407 519.91 54.7353 519.799 53.8538 519.688C53.1628 519.609 52.4798 519.593 51.7174 519.656C50.8676 519.712 49.5652 519.442 48.5089 519.219C47.1667 518.862 45.8484 518.473 44.5856 517.965C43.0528 517.409 41.6868 516.781 39.9635 516.432C39.0501 516.209 37.843 515.709 36.9217 515.185C32.784 512.993 28.6701 510.729 24.8183 508.013C19.5688 504.368 14.8592 499.913 10.9756 494.774C9.43493 492.773 8.09275 490.605 6.85382 488.389C3.02584 481.488 0.754473 473.72 0.206484 465.858C0.127065 464.309 0.0555911 462.745 0.0476492 461.22C0.0158818 460.338 0.00794186 459.457 0 458.575V457.916L0.0635364 457.257L0.198547 455.947L0.500329 453.326C0.627399 452.46 0.857719 451.602 1.04038 450.745C1.87428 446.591 3.14497 442.58 4.58245 438.609C4.9716 437.712 5.32898 436.775 5.77373 435.917C8.9187 429.929 12.6593 424.203 17.5277 419.47C21.4748 415.673 25.9778 412.505 30.7509 409.923C34.5074 408.065 38.3513 406.397 42.3857 405.341C42.6478 405.269 42.9099 405.15 43.172 405.079C43.7438 404.92 44.2282 404.825 44.6094 404.769C44.8 404.745 44.9748 404.73 45.1177 404.737C45.1098 404.745 45.3163 404.706 45.4195 404.722C45.5386 404.73 45.6498 404.761 45.7531 404.801C45.9437 404.88 46.0787 405.007 46.1661 405.127C46.3328 405.373 46.317 405.587 46.2693 405.682C46.2217 405.778 46.1502 405.778 46.0708 405.738C45.9913 405.698 45.8881 405.611 45.7531 405.587C45.626 405.555 45.4592 405.603 45.4274 405.714C44.665 406.62 43.3467 407.43 41.3771 408.049C40.297 408.399 39.2646 408.875 38.1924 409.28L36.604 409.908C36.0719 410.114 35.5795 410.4 35.0633 410.638L35.0554 410.734Z" fill="#EBC464"/>
<path d="M258.182 440.707C257.841 440.429 257.499 440.198 257.372 439.912C257.245 439.658 257.277 439.452 256.586 439.46C256.403 439.46 256.388 439.404 256.292 439.372C256.118 439.317 255.959 439.261 255.744 439.213C255.649 439.19 255.307 439.221 255.323 439.174C255.371 439.023 255.307 438.92 254.91 438.856C254.799 438.832 254.64 438.816 254.45 438.808C254.918 438.642 254.259 438.618 253.949 438.554C253.64 438.491 253.568 438.388 253.1 438.34C252.98 438.324 252.917 438.3 252.933 438.268C253.052 438.086 252.655 437.959 252.401 437.816C252.178 437.697 252.051 437.57 251.885 437.45C251.956 437.427 252.035 437.403 252.131 437.387C252.361 437.347 252.56 437.299 252.742 437.252C252.965 437.196 253.108 437.117 253.29 437.045C253.552 436.942 253.751 436.823 253.64 436.609C253.529 436.41 253.37 436.188 253.203 435.965C253.33 435.878 253.489 435.798 253.671 435.719C253.981 435.584 254.632 435.576 255.149 435.544C256.213 435.465 257.229 435.457 258.095 435.378C258.421 435.346 258.73 435.306 259.04 435.243L259.501 435.147C259.652 435.115 259.826 435.076 259.906 435.052C260.271 434.949 260.621 434.766 260.986 434.655L264.234 433.686C264.496 433.607 264.75 433.487 265.004 433.392C265.132 433.344 265.267 433.329 265.402 433.313C265.902 433.265 266.402 433.249 266.895 433.186L269.015 432.876C269.42 432.828 269.825 432.812 270.191 432.534C270.294 432.455 270.357 432.63 270.373 433.011C270.405 433.678 270.461 434.361 270.333 434.782C270.246 435.068 270.159 435.29 269.984 435.219C269.73 435.115 269.531 435.457 269.237 435.1C269.198 435.052 269.15 435.076 269.118 435.108C268.499 435.664 267.768 435.536 267.069 435.6C266.839 435.616 266.625 435.727 266.402 435.783C266.259 435.822 266.108 435.846 265.965 435.862C265.751 435.886 265.529 435.854 265.322 435.918C265.163 435.965 265.028 436.116 264.822 435.751C264.782 435.671 264.695 435.711 264.679 435.806C264.623 436.18 264.48 436.164 264.353 436.172C263.988 436.204 263.623 436.196 263.265 436.259C263.003 436.307 262.741 436.402 262.495 436.537C262.106 436.736 261.732 437.006 261.343 437.196C261.018 437.355 260.676 437.435 260.343 437.554C260.303 437.57 260.271 437.593 260.231 437.625C260.208 437.649 260.216 437.673 260.2 437.681C260.168 437.705 260.176 437.792 260.088 437.673C259.993 437.546 259.906 437.53 260.088 437.824C260.192 437.99 260.176 437.975 260.144 437.951C260.104 437.919 259.977 437.808 259.826 437.712C259.652 437.593 259.398 437.482 259.644 437.681C259.779 437.792 259.66 437.728 259.509 437.665C258.826 437.387 258.564 437.458 258.611 437.562C258.619 437.577 258.627 437.593 258.635 437.609C258.722 437.736 259.04 437.871 259.382 437.959C259.533 437.998 259.54 438.006 259.596 438.022C259.731 438.054 259.596 438.046 259.255 438.038L259 438.046C258.937 438.046 258.842 438.054 259.127 438.07C259.771 438.11 259.62 438.102 259.318 438.117C258.961 438.141 259.477 438.173 259.866 438.149C259.961 438.149 260.16 438.133 260.096 438.133C260.001 438.141 259.977 438.149 259.985 438.157C260.088 438.197 260.517 438.141 260.47 438.181C260.438 438.229 260.271 438.372 260.287 438.546C260.287 438.673 260.319 438.864 260.454 439.063C260.462 439.078 260.486 439.055 260.493 439.071C260.541 439.198 260.486 439.674 260.152 440.317C259.85 440.881 259.461 441.143 259.167 441.032C258.85 440.913 258.556 440.754 258.27 440.619L258.182 440.707Z" fill="#EBC464"/>
<path d="M202.529 419.819C202.457 419.247 202.394 418.683 202.489 418.119C202.568 417.611 202.703 417.158 202.441 416.721C202.378 416.61 202.418 416.475 202.402 416.348C202.386 416.126 202.378 415.895 202.354 415.673C202.346 415.57 202.211 415.459 202.259 415.363C202.489 414.887 202.576 414.442 202.402 413.926C202.759 413.592 202.608 413.227 202.688 412.735C202.775 412.258 203.053 411.893 203.275 411.4C203.339 411.265 203.45 411.154 203.585 411.13C203.664 411.114 203.736 411.091 203.815 411.075C204.546 410.979 205.205 411.003 205.904 411.234C206.738 411.512 207.214 412.028 207.357 412.528C207.484 412.846 207.707 413.06 207.882 413.267C208.104 413.521 208.287 413.64 208.453 413.846C208.549 413.958 208.62 414.061 208.692 414.124L208.731 414.164C208.747 414.18 208.731 414.085 208.731 414.045L208.715 413.735C208.692 413.521 208.676 413.299 208.652 413.076C208.533 412.123 208.445 411.615 208.366 411.329C208.358 411.289 208.358 411.265 208.358 411.242L208.366 411.226L208.358 411.257L208.374 411.218L208.445 411.059C208.549 410.852 208.66 410.654 208.779 410.455C209.248 409.653 209.859 408.93 210.574 408.263C211.122 407.779 211.733 407.271 212.575 406.985C213.361 406.699 214.354 406.723 215.085 407.04C216.173 407.501 216.943 408.208 217.602 408.907C218.262 409.613 218.81 410.376 219.302 411.138C219.532 411.527 219.834 411.917 220.041 412.338C220.152 412.544 220.247 412.766 220.303 412.997C220.565 413.838 220.684 414.696 220.787 415.546C220.93 416.761 220.954 417.984 220.795 419.175C220.7 419.85 220.541 420.502 220.589 421.217C220.604 421.415 220.414 421.431 220.064 421.272C219.453 420.994 218.81 420.74 218.484 420.383C218.262 420.136 218.095 419.93 218.23 419.723C218.428 419.414 218.174 419.025 218.595 418.731C218.659 418.691 218.643 418.619 218.627 418.564C218.254 417.539 218.468 416.578 218.365 415.578C218.317 415.26 218.198 414.95 218.087 414.649L217.904 414.053C217.833 413.759 217.777 413.449 217.634 413.187C217.531 412.981 217.316 412.846 217.579 412.481C217.634 412.401 217.563 412.298 217.459 412.306C217.07 412.33 217.007 412.139 216.919 411.964C216.689 411.504 216.467 411.027 216.157 410.622C215.935 410.312 215.641 410.066 215.339 409.86C214.862 409.55 214.314 409.383 213.925 409.359C213.592 409.328 213.425 409.343 213.25 409.455C213.203 409.494 213.187 409.582 213.139 409.598C213.052 409.669 213.004 409.772 212.837 409.748C212.647 409.693 212.52 409.788 212.639 410.098C212.71 410.281 212.615 410.36 212.528 410.408C212.408 410.479 212.234 410.519 212.043 410.559C211.829 410.63 211.59 410.693 211.702 410.995C211.765 411.154 211.622 411.242 211.487 411.321C211.193 411.488 210.987 411.726 210.86 412.004C210.828 412.067 210.796 412.123 210.749 412.298L210.645 412.687C210.59 412.957 210.51 413.211 210.502 413.537C210.471 413.974 210.431 414.394 210.415 414.911L210.375 416.515C210.359 417.682 210.336 418.85 210.32 420.009C210.32 420.224 210.304 420.367 210.296 420.533L209.796 419.811L209.232 418.961C208.461 417.825 207.619 416.443 206.905 415.355L206.357 414.641L205.785 414.053L205.594 413.878L205.483 413.767L205.261 413.576C205.11 413.473 205.15 413.457 205.078 413.497C204.975 413.624 204.983 413.6 204.872 413.521L204.848 413.505C204.673 413.426 204.705 413.696 204.832 413.775C204.848 413.87 204.895 413.982 204.856 414.069C204.546 414.736 204.864 415.633 204.864 416.428C204.864 417.055 204.808 417.682 204.88 418.349C204.935 418.858 204.999 419.398 205.142 419.93C205.15 419.962 205.197 419.978 205.205 420.017C205.277 420.327 204.951 420.676 204.26 420.939C203.649 421.161 203.196 421.137 203.037 420.827C202.862 420.486 202.743 420.121 202.632 419.755L202.529 419.819Z" fill="#EBC464"/>
<path d="M165.398 443.161C165.588 443.351 165.787 443.494 165.97 443.74C166.129 443.963 166.287 444.201 166.51 444.003C166.565 443.955 166.613 444.01 166.669 444.018C166.764 444.026 166.859 444.05 166.954 444.042C167.002 444.042 167.066 443.915 167.097 443.963C167.264 444.209 167.447 444.296 167.677 444.09C167.788 444.415 167.971 444.217 168.138 444.146C168.305 444.074 168.455 444.161 168.638 443.955C168.686 443.899 168.741 443.883 168.773 443.931C168.988 444.217 169.25 444.161 169.504 444.138C169.782 444.106 170.036 444.225 170.266 444.543C170.385 444.709 170.536 444.725 170.679 444.749C170.854 444.773 171.037 444.709 171.219 444.717C171.473 444.717 171.735 444.67 172.021 444.495C172.395 444.257 172.768 444.09 173.125 443.979C173.308 443.923 173.467 444.042 173.634 444.114C173.967 444.257 174.293 444.455 174.626 444.574C174.88 444.662 175.143 444.67 175.413 444.662C175.659 444.654 175.921 444.566 176.175 444.55C176.922 444.503 177.66 444.479 178.399 444.439C178.573 444.431 178.764 444.376 178.939 444.352C179.026 444.344 179.113 444.352 179.201 444.376C179.518 444.455 179.828 444.566 180.146 444.63C180.599 444.725 181.067 444.773 181.52 444.868C181.782 444.924 182.028 445.011 182.322 444.836C182.401 444.789 182.401 444.963 182.322 445.345C182.179 445.988 182.036 446.663 181.853 447.036C181.726 447.29 181.623 447.481 181.528 447.37C181.393 447.203 181.194 447.489 181.099 447.068C181.083 447.012 181.051 447.02 181.027 447.044C180.511 447.425 180.098 447.116 179.654 446.997C179.511 446.957 179.352 447.005 179.201 447.005C179.106 447.005 179.01 446.989 178.915 446.965C178.78 446.933 178.645 446.846 178.502 446.854C178.391 446.862 178.272 446.973 178.24 446.568C178.232 446.48 178.176 446.496 178.145 446.584C178.017 446.933 177.938 446.877 177.851 446.854C177.62 446.79 177.398 446.695 177.16 446.663C176.985 446.639 176.802 446.671 176.62 446.734C176.334 446.83 176.04 446.997 175.754 447.076C175.516 447.147 175.285 447.132 175.055 447.163C175 447.171 174.936 447.243 174.888 447.243C174.793 447.243 174.682 447.314 174.61 447.179C174.531 447.028 174.46 446.989 174.317 447.29C174.237 447.457 174.158 447.433 174.094 447.394C174.015 447.338 173.951 447.203 173.88 447.076C173.8 446.917 173.729 446.75 173.586 446.973C173.507 447.092 173.443 447.005 173.387 446.909C173.157 446.488 172.855 446.472 172.546 446.536C172.125 446.623 171.696 446.766 171.275 446.862C171.108 446.901 170.949 446.885 170.79 446.885C170.29 446.893 169.821 446.727 169.353 446.544C169.258 446.512 169.17 446.465 169.067 446.52C168.829 446.647 168.614 446.576 168.416 446.433C168.178 446.258 167.892 446.353 167.614 446.457C167.55 446.48 167.479 446.552 167.423 446.512C167.034 446.266 166.573 446.528 166.16 446.401C165.835 446.298 165.525 446.059 165.215 445.853C164.977 445.694 164.739 445.488 164.5 445.305C164.485 445.289 164.461 445.321 164.445 445.305C164.31 445.178 164.334 444.709 164.508 444.01C164.667 443.391 164.818 443.042 164.945 443.073C165.088 443.105 165.231 443.185 165.374 443.248C165.39 443.224 165.398 443.192 165.398 443.161Z" fill="#EBC464"/>
<path d="M163.86 450.451C164.154 450.673 164.447 450.848 164.717 451.134C164.956 451.388 165.178 451.65 165.512 451.507C165.599 451.467 165.662 451.539 165.742 451.555C165.885 451.587 166.02 451.626 166.163 451.642C166.226 451.65 166.33 451.539 166.377 451.595C166.608 451.88 166.878 452.023 167.227 451.865C167.37 452.222 167.648 452.071 167.894 452.047C168.148 452.023 168.355 452.158 168.649 451.999C168.728 451.96 168.8 451.96 168.847 452.015C169.133 452.373 169.514 452.405 169.895 452.468C170.308 452.532 170.666 452.754 170.944 453.159C171.095 453.374 171.301 453.445 171.508 453.532C171.754 453.628 172.024 453.643 172.278 453.723C172.635 453.834 173.08 453.929 173.287 453.794C173.612 453.628 173.731 453.437 173.771 453.278C173.787 453.191 173.89 453.35 174.001 453.461L174.232 453.691C174.359 453.771 174.406 453.691 174.454 453.596C174.494 453.477 174.446 453.254 174.391 453.064C174.335 452.881 174.2 452.706 174.136 452.595L174.121 452.563L174.097 452.468L174.057 452.27L173.978 451.872L173.819 451.07L173.501 449.474C173.445 449.22 173.35 448.966 173.287 448.712C173.255 448.585 173.247 448.457 173.247 448.322C173.255 447.838 173.287 447.361 173.271 446.877L173.175 444.812C173.168 444.423 173.191 444.026 172.961 443.653C172.897 443.549 173.072 443.502 173.453 443.518C174.121 443.549 174.811 443.557 175.217 443.724C175.494 443.835 175.701 443.939 175.614 444.105C175.487 444.344 175.804 444.566 175.423 444.812C175.367 444.844 175.391 444.892 175.415 444.931C175.907 445.575 175.709 446.265 175.693 446.941C175.693 447.163 175.772 447.377 175.812 447.6C175.836 447.743 175.844 447.886 175.844 448.029C175.844 448.235 175.788 448.45 175.836 448.656C175.868 448.807 176.003 448.958 175.622 449.117C175.542 449.148 175.566 449.236 175.661 449.252C176.027 449.339 175.995 449.474 175.995 449.601C175.987 449.951 175.947 450.3 175.971 450.649C175.987 450.904 176.066 451.166 176.17 451.412C176.249 451.61 176.344 451.801 176.447 451.992L176.59 452.285C176.614 452.341 176.638 452.373 176.654 452.444L176.718 452.683C176.853 453.231 176.916 453.81 177.019 454.414C177.043 454.557 177.131 454.731 177.146 454.874C177.178 455.137 177.289 455.478 177.17 455.605C177.035 455.748 177.019 455.883 177.377 456.471C177.575 456.804 177.575 457.027 177.551 457.178C177.52 457.376 177.401 457.448 177.289 457.495C177.146 457.559 176.995 457.527 177.273 458.194C177.305 458.274 177.321 458.337 177.329 458.385C177.242 458.377 177.035 458.194 176.853 458.027C175.796 457.043 175.304 456.828 174.684 456.63C174.279 456.503 173.843 456.383 173.374 456.256L172.643 456.066L172.254 455.963L172.056 455.907L171.944 455.891C171.714 455.859 171.5 455.78 171.285 455.716C170.61 455.526 169.999 455.184 169.371 454.843C169.252 454.779 169.125 454.7 168.974 454.724C168.625 454.779 168.347 454.644 168.085 454.438C167.767 454.192 167.37 454.215 166.973 454.247C166.878 454.255 166.774 454.303 166.703 454.255C166.179 453.914 165.519 454.072 164.956 453.866C164.503 453.699 164.074 453.405 163.629 453.159C163.288 452.961 162.946 452.73 162.605 452.516C162.581 452.5 162.549 452.532 162.525 452.516C162.335 452.381 162.343 451.904 162.565 451.213C162.764 450.602 162.978 450.268 163.177 450.316C163.399 450.371 163.606 450.467 163.82 450.546L163.86 450.451Z" fill="#EBC464"/>
<path d="M213.956 478.366C213.655 477.802 213.361 477.238 213.226 476.619C213.123 476.055 213.059 475.539 212.662 475.134C212.551 475.031 212.543 474.872 212.503 474.737C212.416 474.49 212.336 474.236 212.257 473.99C212.217 473.879 212.058 473.784 212.074 473.665C212.193 473.077 212.193 472.569 211.939 472.029C212.241 471.608 212.027 471.203 211.987 470.766C211.931 470.329 212.074 469.916 211.939 469.439C211.9 469.312 211.915 469.177 211.987 469.074C212.424 468.455 212.59 467.772 212.948 467.097C213.313 466.374 214.052 465.778 214.894 465.675C215.33 465.604 215.728 465.492 216.14 465.413C216.625 465.326 217.125 465.262 217.618 465.31C218.332 465.381 219.015 465.532 219.762 465.651C220.254 465.731 220.802 465.921 221.287 466.215C221.787 466.509 222.224 466.922 222.565 467.287C222.915 467.668 223.05 468.089 223.241 468.455C223.431 468.82 223.622 469.177 223.836 469.527C223.939 469.741 224.011 469.892 224.162 470.075C224.368 470.337 224.638 470.512 224.853 470.591C225.067 470.678 225.162 470.543 225.266 470.512C225.282 470.496 225.313 470.52 225.313 470.48L225.25 470.313L225.139 470.011C225.067 469.829 224.996 469.662 224.94 469.535C224.877 469.4 224.821 469.289 224.765 469.209C224.742 469.169 224.718 469.13 224.686 469.098C224.662 469.05 224.654 469.13 224.575 468.812C224.456 468.375 224.289 467.946 224.162 467.51C224.098 467.295 224.051 467.073 224.019 466.842C223.9 466.009 223.804 465.175 223.661 464.349L223.018 460.799C222.907 460.124 222.828 459.449 222.494 458.821C222.399 458.647 222.565 458.551 222.955 458.551C223.63 458.551 224.321 458.519 224.773 458.766C225.075 458.932 225.313 459.099 225.274 459.385C225.21 459.806 225.591 460.155 225.274 460.616C225.226 460.68 225.258 460.759 225.297 460.815C225.957 461.887 225.941 463.086 226.108 464.253C226.163 464.635 226.306 465 226.401 465.373C226.457 465.619 226.513 465.858 226.544 466.112C226.6 466.469 226.6 466.842 226.703 467.192C226.775 467.454 226.949 467.692 226.616 468.01C226.544 468.073 226.592 468.216 226.695 468.248C227.084 468.375 227.084 468.566 227.14 468.907C227.267 469.725 227.346 470.488 227.505 471.274C227.64 471.893 227.759 472.426 227.918 473.061C228.053 473.585 228.18 474.109 228.315 474.633L228.506 475.467L228.53 475.571L228.538 475.626C228.538 475.634 228.522 475.626 228.506 475.626L228.371 475.586L228.085 475.491C227.434 475.269 226.727 474.911 226.036 474.61C225.877 474.546 225.734 474.546 225.567 474.467C225.258 474.308 224.924 474.205 224.606 473.839C224.265 473.434 224.051 473.236 223.669 473.347C223.447 473.41 223.145 473.132 222.915 472.894C222.621 472.577 222.391 472.179 222.208 471.806C222.105 471.584 221.994 471.353 221.906 471.203C221.835 471.075 221.724 470.98 221.533 470.925C221.327 470.869 221.239 470.631 221.199 470.424C221.025 469.527 220.604 468.82 220.151 468.399C219.563 467.859 218.833 467.692 217.999 467.581C217.689 467.549 217.411 467.494 217.141 467.486C216.315 467.502 215.815 467.581 215.203 468.121C215.084 468.216 214.965 468.359 214.933 468.526C214.878 468.939 214.695 469.297 214.465 469.702C214.187 470.194 214.227 470.805 214.338 471.369C214.362 471.504 214.433 471.631 214.409 471.758C214.211 472.688 214.671 473.426 214.91 474.197C215.108 474.832 215.291 475.531 215.64 476.206C215.902 476.722 216.204 477.262 216.577 477.755C216.601 477.786 216.657 477.786 216.673 477.826C216.871 478.112 216.704 478.565 216.14 479.041C215.632 479.454 215.172 479.573 214.886 479.303C214.568 479.009 214.298 478.676 214.044 478.334L213.956 478.366Z" fill="#EBC464"/>
<path d="M111.242 426.887C111.512 427.428 111.822 427.952 112.108 428.516C112.346 429.032 112.624 429.532 113.188 429.707C113.331 429.755 113.418 429.89 113.537 429.969C113.759 430.12 113.966 430.279 114.196 430.422C114.299 430.485 114.482 430.438 114.554 430.533C114.895 431.025 115.364 431.343 115.967 431.383C116.229 431.827 116.714 431.819 117.151 431.875C117.579 431.931 117.977 432.129 118.437 431.994C118.556 431.962 118.683 431.97 118.779 432.034C119.382 432.399 120.089 432.407 120.756 432.32C121.471 432.256 122.154 432.217 122.94 432.304C123.361 432.344 123.75 432.185 124.124 432.018C124.568 431.819 124.957 431.51 125.362 431.24C125.942 430.835 126.458 430.342 126.816 429.739C127.284 428.921 127.658 428.111 127.864 427.364C127.959 426.991 128.19 426.689 128.301 426.348C128.539 425.688 128.603 424.974 128.285 424.195C128.055 423.631 127.626 423.131 127.134 422.75C126.673 422.392 126.125 422.194 125.625 422.067C124.116 421.662 122.893 422.385 122.17 423.766C121.995 424.092 121.9 424.465 121.812 424.815C121.773 424.989 121.717 425.164 121.662 425.331C121.479 425.927 121.399 426.554 121.535 427.213C121.725 428.15 122.249 429.056 122.956 429.802C123.353 430.231 123.814 430.652 124.433 430.763C124.6 430.795 124.56 430.978 124.322 431.279C123.901 431.796 123.472 432.344 122.94 432.487C122.591 432.566 122.249 432.598 122.059 432.312C121.781 431.915 121.185 431.788 121.169 431.168C121.169 431.081 121.09 431.025 121.018 430.986C119.763 430.223 119.255 428.706 119.096 427.316C119.049 426.856 118.938 426.387 118.953 425.911C118.945 425.601 119.001 425.291 119.065 424.989C119.168 424.553 119.366 424.156 119.501 423.735C119.597 423.425 119.636 423.06 120.121 423.004C120.224 422.988 120.28 422.837 120.24 422.742C120.057 422.353 120.248 422.138 120.431 421.924C120.915 421.344 121.535 420.876 122.21 420.494C122.71 420.216 123.242 419.97 123.814 419.795C124.703 419.533 125.72 419.462 126.665 419.716C127.459 419.923 128.158 420.351 128.793 420.828C128.936 420.939 129.135 421.003 129.262 421.138C129.516 421.368 129.818 421.598 129.913 421.932C130.008 422.313 130.136 422.535 130.572 422.678C130.826 422.75 130.954 423.052 131.025 423.306C131.12 423.623 131.112 423.989 131.073 424.33C131.041 424.751 130.914 425.109 131.192 425.514C131.343 425.736 131.232 426.062 131.136 426.308C130.644 427.364 130.286 428.253 129.85 429.167C129.262 430.39 128.444 431.454 127.491 432.375C127.118 432.741 126.681 433.035 126.244 433.32C124.91 434.21 123.171 434.718 121.487 434.734C121.161 434.726 120.828 434.702 120.51 434.782C120.137 434.853 119.763 434.853 119.398 434.821C119.033 434.774 118.675 434.671 118.326 434.551C117.5 434.234 116.658 434.123 115.808 433.924C115.61 433.876 115.395 433.868 115.221 433.765C114.061 433.027 112.743 432.582 111.71 431.684C110.892 430.954 110.217 430.088 109.638 429.199C109.177 428.516 108.796 427.785 108.454 427.054C108.43 427.007 108.375 426.983 108.351 426.935C108.168 426.506 108.478 426.133 109.185 425.895C109.812 425.68 110.265 425.68 110.471 425.982L111.147 426.999L111.242 426.887Z" fill="#EBC464"/>
<path d="M119.226 487.23C119.274 486.976 119.282 486.753 119.393 486.475C119.497 486.229 119.6 485.983 119.322 485.927C119.25 485.912 119.274 485.848 119.25 485.8C119.211 485.721 119.179 485.641 119.115 485.57C119.091 485.538 118.949 485.554 118.972 485.506C119.091 485.244 119.076 485.062 118.782 484.998C118.996 484.744 118.742 484.712 118.599 484.617C118.456 484.522 118.456 484.363 118.186 484.331C118.115 484.323 118.075 484.291 118.099 484.236C118.242 483.926 118.067 483.751 117.916 483.561C117.757 483.354 117.741 483.092 117.916 482.767C118.003 482.592 117.956 482.465 117.908 482.338C117.853 482.187 117.71 482.068 117.638 481.933C117.527 481.726 117.368 481.536 117.09 481.393C116.717 481.194 116.407 480.964 116.153 480.71C116.026 480.583 116.066 480.392 116.066 480.225C116.058 479.884 116.121 479.534 116.089 479.201C116.066 478.954 115.978 478.724 115.875 478.502C115.772 478.295 115.605 478.105 115.494 477.89C115.184 477.271 114.914 476.627 114.636 475.984C114.573 475.825 114.461 475.682 114.39 475.524C114.35 475.444 114.334 475.365 114.334 475.285C114.318 474.976 114.334 474.666 114.303 474.356C114.263 473.919 114.191 473.49 114.168 473.046C114.152 472.799 114.183 472.545 113.945 472.323C113.882 472.259 114.056 472.22 114.438 472.212C115.097 472.196 115.788 472.164 116.193 472.236C116.463 472.283 116.677 472.331 116.59 472.442C116.463 472.593 116.78 472.704 116.399 472.879C116.344 472.903 116.367 472.927 116.391 472.95C116.884 473.3 116.701 473.721 116.709 474.134C116.709 474.269 116.804 474.388 116.844 474.515C116.868 474.594 116.884 474.682 116.892 474.769C116.9 474.896 116.86 475.031 116.907 475.142C116.947 475.23 117.09 475.293 116.717 475.452C116.637 475.484 116.669 475.531 116.765 475.531C117.13 475.531 117.106 475.611 117.114 475.69C117.122 475.897 117.106 476.119 117.154 476.318C117.193 476.469 117.281 476.604 117.4 476.739C117.583 476.945 117.837 477.128 118.011 477.326C118.162 477.493 118.226 477.684 118.345 477.851C118.369 477.89 118.456 477.914 118.48 477.954C118.52 478.033 118.623 478.089 118.52 478.2C118.408 478.319 118.393 478.391 118.726 478.383C118.909 478.375 118.917 478.454 118.901 478.518C118.885 478.597 118.782 478.708 118.686 478.811C118.567 478.939 118.448 479.058 118.702 479.082C118.837 479.097 118.782 479.185 118.718 479.264C118.424 479.622 118.536 479.86 118.71 480.074C118.956 480.36 119.258 480.63 119.528 480.9C119.632 481.003 119.687 481.131 119.759 481.25C119.981 481.623 120.037 482.044 120.092 482.481C120.1 482.568 120.108 482.655 120.203 482.703C120.426 482.814 120.465 483.005 120.434 483.219C120.402 483.481 120.616 483.64 120.839 483.783C120.894 483.815 120.982 483.831 120.982 483.894C120.958 484.299 121.41 484.49 121.506 484.839C121.585 485.125 121.546 485.475 121.538 485.808C121.53 486.07 121.49 486.348 121.474 486.618C121.474 486.634 121.506 486.634 121.506 486.658C121.474 486.825 121.085 487.087 120.426 487.373C119.838 487.627 119.473 487.722 119.425 487.603C119.369 487.476 119.354 487.325 119.322 487.19L119.226 487.23Z" fill="#EBC464"/>
<path d="M118.606 484.697C119.083 484.895 119.567 485.054 120.028 485.316C120.441 485.554 120.846 485.793 121.314 485.61C121.433 485.562 121.552 485.626 121.672 485.634C121.886 485.65 122.108 485.673 122.323 485.673C122.426 485.673 122.537 485.546 122.625 485.602C123.053 485.864 123.498 485.959 123.975 485.761C124.237 486.086 124.547 485.896 124.737 485.816C124.936 485.737 125.245 485.832 125.245 485.594C125.238 485.53 125.269 485.515 125.365 485.562C125.436 485.602 125.508 485.634 125.579 485.658L125.682 485.697C125.706 485.705 125.698 485.681 125.706 485.665C125.738 485.483 125.555 485.141 125.452 484.863C125.38 484.665 125.341 484.498 125.357 484.307L125.38 484.157L125.412 483.91C125.436 483.744 125.476 483.577 125.531 483.418C125.666 483.069 125.643 482.719 125.627 482.378C125.65 481.965 125.547 481.552 125.587 481.139C125.611 480.535 125.635 479.932 125.587 479.28C125.523 478.407 125.65 477.493 125.952 476.62C126.135 476.183 126.461 475.818 126.81 475.484C127.493 474.801 128.311 474.253 129.216 473.872C129.899 473.594 130.606 473.34 131.345 473.244C132.02 473.149 132.719 473.078 133.394 473.173C135.379 473.483 137.166 474.404 138.643 475.897C138.985 476.254 139.342 476.62 139.636 477.033C139.771 477.239 139.906 477.462 140.001 477.692C140.375 478.55 140.589 479.447 140.724 480.344C140.915 481.623 140.891 482.933 140.613 484.172C140.438 484.879 140.192 485.538 140.097 486.285C140.073 486.499 139.89 486.483 139.565 486.261C139.009 485.88 138.413 485.515 138.151 485.118C137.976 484.848 137.825 484.625 137.992 484.442C138.222 484.165 138.016 483.767 138.461 483.529C138.524 483.497 138.516 483.426 138.5 483.362C138.215 482.338 138.429 481.433 138.286 480.456C138.238 480.146 138.087 479.852 137.96 479.574L137.73 479.018C137.627 478.74 137.539 478.454 137.365 478.216C137.214 478.041 137.015 477.938 137.198 477.549C137.238 477.469 137.142 477.382 137.047 477.406C136.674 477.501 136.586 477.35 136.467 477.215C136.166 476.842 135.824 476.477 135.411 476.191C135.109 475.984 134.76 475.849 134.394 475.762C133.831 475.635 133.259 475.659 132.751 475.675C132.33 475.698 131.933 475.691 131.567 475.786C131.488 475.81 131.408 475.881 131.329 475.913C131.178 475.953 131.059 476.064 130.9 475.984C130.717 475.889 130.574 475.937 130.582 476.27C130.582 476.453 130.479 476.501 130.384 476.524C130.257 476.556 130.074 476.501 129.891 476.501C129.677 476.493 129.423 476.461 129.463 476.787C129.478 476.953 129.328 476.993 129.177 477.017C128.549 477.168 128.192 477.684 128.049 478.264C127.827 479.042 127.763 479.844 127.795 480.638C127.795 480.94 127.787 481.25 127.763 481.552C127.779 482.028 127.747 482.497 127.763 482.981C127.747 483.219 127.763 483.458 127.771 483.704L127.779 483.902C127.787 484.053 127.803 484.188 127.827 484.315C127.858 484.57 127.93 484.84 127.985 485.094C128.073 485.499 128.144 485.888 128.335 486.333C128.684 487.103 128.915 487.857 129.05 488.501C128.843 488.485 128.549 488.421 128.303 488.374C127.064 488.127 126.159 488.183 125.039 488.231C124.785 488.239 124.515 488.294 124.245 488.247C123.673 488.151 123.594 488.128 123.316 488.104C123.077 488.088 122.839 488.088 122.593 488.088C122.108 488.096 121.632 488.12 121.155 488.04C120.385 487.913 119.631 487.659 118.876 487.436C118.288 487.262 117.717 487.039 117.129 486.841C117.089 486.825 117.049 486.857 117.01 486.841C116.676 486.706 116.613 486.229 116.835 485.531C117.034 484.911 117.288 484.562 117.589 484.601C117.923 484.641 118.257 484.728 118.59 484.8L118.606 484.697Z" fill="#EBC464"/>
<path d="M66.7132 469.336C66.8482 468.947 66.9355 468.55 67.1341 468.161C67.3168 467.812 67.4994 467.462 67.2532 467.137C67.1897 467.049 67.2373 466.954 67.2294 466.859C67.2135 466.692 67.2056 466.517 67.1738 466.35C67.1579 466.271 67.0229 466.199 67.0626 466.128C67.2612 465.763 67.3009 465.405 67.0388 465.072C67.3247 464.778 67.0864 464.524 66.9752 464.254C66.8641 463.984 66.9117 463.698 66.6576 463.436C66.594 463.364 66.5623 463.285 66.602 463.205C66.8244 462.745 66.7052 462.3 66.6179 461.855C66.5702 461.617 66.5543 461.379 66.5861 461.132C66.602 461.013 66.6258 460.886 66.6655 460.767C66.7052 460.616 66.7529 460.45 66.8164 460.314C66.9514 460.021 66.9197 459.727 66.9038 459.417C66.8799 459.06 66.7688 458.623 66.7132 458.21C66.6973 458.019 66.6258 457.765 66.6417 457.598C66.9514 457.606 67.2453 457.575 67.563 457.495C67.8886 457.408 68.3016 457.36 68.7542 457.32C69.1831 457.273 69.8343 457.281 70.0329 457.217C70.3347 457.177 70.6206 457.297 70.9144 457.376C71.4942 457.527 72.0819 457.725 72.6854 457.813C73.1381 457.876 73.5908 457.86 74.0435 457.821C74.4644 457.781 74.8854 457.646 75.2983 457.582C76.5373 457.384 77.7524 457.138 78.9436 456.812C79.2295 456.733 79.5075 456.606 79.7855 456.51C79.9284 456.463 80.0714 456.431 80.2143 456.415C80.7544 456.351 81.3024 456.296 81.8345 456.185C82.5969 456.026 83.3514 455.796 84.0979 455.581C84.5268 455.462 84.9636 455.367 85.3051 455.009C85.4004 454.914 85.4957 455.065 85.591 455.438C85.7419 456.089 85.9166 456.757 85.8372 457.201C85.7816 457.503 85.7101 457.749 85.4957 457.717C85.1859 457.67 85.0033 458.059 84.6221 457.757C84.5665 457.717 84.5188 457.749 84.4871 457.789C83.8358 458.464 82.9622 458.448 82.1601 458.583C81.898 458.631 81.6439 458.758 81.3897 458.829C81.223 458.877 81.0482 458.917 80.8735 458.941C80.6194 458.972 80.3573 458.956 80.119 459.028C79.9364 459.084 79.7696 459.242 79.5393 458.877C79.4916 458.798 79.3963 458.837 79.3725 458.933C79.2931 459.314 79.1263 459.29 78.9754 459.306C78.5466 459.338 78.1177 459.322 77.6968 459.377C77.3791 459.409 77.0773 459.496 76.7676 459.608C76.2911 459.782 75.8066 460.013 75.3142 460.156C74.9012 460.267 74.4803 460.299 74.0674 460.362C73.972 460.378 73.8767 460.457 73.7735 460.465C73.5988 460.481 73.4082 460.561 73.2414 460.434C73.0587 460.291 72.9158 460.259 72.7331 460.569C72.6299 460.743 72.471 460.719 72.3519 460.68C72.1931 460.632 72.0422 460.505 71.8913 460.37C71.7086 460.211 71.5498 460.044 71.3274 460.275C71.2083 460.394 71.0653 460.307 70.9541 460.203C70.4617 459.774 69.8979 459.743 69.3816 459.782C69.0719 459.886 68.9528 460.068 69.0004 460.235L69.0084 460.275L69.0719 460.41C69.1116 460.489 69.1116 460.505 69.0878 460.545L69.064 460.577L69.0481 460.592C69.0401 460.592 69.0401 460.6 69.0401 460.672L69.0004 461.331C68.9925 461.506 68.9687 461.68 69.0481 461.839C69.2387 462.22 69.2228 462.61 69.1275 463.007C69.0243 463.483 69.1831 463.944 69.3578 464.397C69.3975 464.5 69.4849 464.611 69.4611 464.714C69.3181 465.477 69.6914 466.199 69.6676 466.946C69.6517 467.55 69.4928 468.169 69.3737 468.78C69.2784 469.257 69.1354 469.726 69.0243 470.202C69.0163 470.234 69.0481 470.266 69.0401 470.297C68.9528 470.567 68.4921 470.679 67.7694 470.599C67.1261 470.528 66.7529 470.377 66.745 470.139C66.745 469.876 66.7846 469.606 66.8005 469.344L66.7132 469.336Z" fill="#EBC464"/>
<path d="M78.6651 465.358C78.7604 465.16 78.8001 464.977 78.9589 464.755C79.1019 464.556 79.2449 464.365 78.9907 464.318C78.9272 464.302 78.959 464.254 78.9431 464.223C78.9192 464.159 78.8954 464.095 78.8557 464.048C78.8398 464.024 78.6969 464.04 78.7366 463.992C78.9034 463.794 78.9192 463.643 78.6413 463.587C78.8954 463.389 78.6572 463.357 78.5301 463.285C78.411 463.214 78.4348 463.087 78.1807 463.055C78.1171 463.047 78.0853 463.023 78.1171 462.984C78.3077 462.745 78.1727 462.602 78.0615 462.452C77.9424 462.293 77.9742 462.086 78.1965 461.832C78.3157 461.697 78.2839 461.602 78.2601 461.506C78.2283 461.387 78.1171 461.292 78.0695 461.181C77.998 461.022 77.8789 460.871 77.6247 460.744C77.2991 460.577 77.0291 460.379 76.8226 460.172C76.7194 460.069 76.7908 459.926 76.8147 459.791C76.8623 459.529 76.9735 459.259 77.0053 459.013C77.0291 458.822 76.9655 458.647 76.902 458.465C76.8385 458.298 76.6876 458.139 76.6241 457.972C76.4176 457.472 76.2428 456.964 76.0681 456.448C76.0284 456.32 75.9331 456.201 75.8854 456.074C75.8616 456.011 75.8537 455.947 75.8616 455.884C75.8854 455.645 75.949 455.415 75.9649 455.177C75.9887 454.843 75.9728 454.51 76.0125 454.176C76.0284 453.986 76.0919 453.803 75.8854 453.604C75.8299 453.549 76.0046 453.541 76.3858 453.581C77.045 453.644 77.728 453.708 78.1171 453.811C78.3792 453.882 78.5857 453.938 78.4825 454.009C78.3395 454.105 78.6413 454.224 78.2363 454.311C78.1807 454.327 78.1965 454.343 78.2204 454.359C78.6651 454.669 78.4189 454.962 78.3713 455.264C78.3554 455.359 78.4269 455.463 78.4507 455.558C78.4666 455.622 78.4666 455.685 78.4586 455.749C78.4507 455.844 78.3871 455.939 78.4189 456.027C78.4427 456.098 78.5777 456.154 78.1886 456.241C78.1092 456.257 78.133 456.297 78.2204 456.305C78.5857 456.336 78.546 456.392 78.538 456.455C78.5221 456.614 78.4666 456.773 78.4825 456.924C78.4983 457.035 78.5619 457.146 78.6572 457.257C78.8081 457.424 79.0304 457.575 79.1734 457.734C79.2925 457.869 79.3322 458.012 79.4116 458.147C79.4275 458.179 79.5149 458.203 79.5228 458.234C79.5467 458.29 79.642 458.346 79.5228 458.417C79.3958 458.496 79.3719 458.552 79.6976 458.568C79.8802 458.576 79.8723 458.631 79.8405 458.679C79.8087 458.743 79.6975 458.814 79.5864 458.886C79.4513 458.973 79.3084 459.06 79.5625 459.084C79.6975 459.1 79.6261 459.164 79.5467 459.219C79.1972 459.465 79.2687 459.656 79.4037 459.823C79.5943 460.053 79.8484 460.26 80.0549 460.474C80.1343 460.561 80.1661 460.657 80.2138 460.744C80.3567 461.03 80.3408 461.348 80.317 461.681C80.3091 461.745 80.2932 461.816 80.3805 461.856C80.5791 461.943 80.5712 462.086 80.5076 462.253C80.4282 462.452 80.6029 462.571 80.7935 462.682C80.8412 462.706 80.9206 462.722 80.9127 462.761C80.8174 463.071 81.2145 463.214 81.2383 463.484C81.2542 463.706 81.1589 463.968 81.0874 464.23C81.0318 464.429 80.9365 464.651 80.8729 464.866C80.865 464.882 80.9047 464.882 80.8968 464.89C80.8412 465.017 80.4203 465.231 79.7373 465.469C79.1337 465.676 78.7683 465.755 78.7445 465.66C78.7207 465.557 78.7286 465.438 78.7286 465.326L78.6651 465.358Z" fill="#EBC464"/>
<path d="M24.1294 461.903C25.0348 461.029 26.1069 460.561 27.1791 460.45C28.1401 460.37 29.0375 460.465 30.0144 460.624C30.2764 460.656 30.4988 460.839 30.7212 460.974C31.1103 461.236 31.4677 461.546 31.7774 461.871C31.9283 462.014 32.1666 462.101 32.246 462.276C32.6431 463.15 33.0164 463.928 33.6517 464.611C33.7073 465.366 34.1997 465.874 34.5809 466.454C34.9621 467.033 35.2083 467.692 35.7246 468.177C35.8596 468.304 35.9787 468.471 36.0184 468.646C36.3043 469.71 36.9476 470.607 37.6703 471.306C38.4486 472.076 39.1713 472.656 40.1879 473.022C40.7359 473.22 41.3871 473.125 41.9589 472.942C42.6578 472.712 43.2614 472.275 43.8252 471.822C44.6432 471.155 45.2786 470.266 45.5407 469.289C45.8742 467.994 45.7313 466.747 45.3183 465.572C45.1118 464.984 45.0006 464.349 44.7385 463.761C44.2382 462.618 43.3964 461.522 42.3639 461.236C42.2686 461.22 42.1813 461.18 42.0701 461.172L41.7127 461.156L41.3553 461.14L41.0059 461.188C40.7756 461.212 40.5373 461.26 40.3149 461.347C40.0846 461.418 39.8622 461.49 39.6478 461.617C38.8298 462.014 38.115 462.681 37.4082 463.38C36.352 464.428 35.383 465.651 34.3268 466.898C33.7867 467.526 33.2387 468.161 32.5955 468.781C32.2857 469.098 31.9283 469.392 31.563 469.694C31.2215 469.972 30.9038 470.21 30.5385 470.472C29.8555 470.965 29.1407 471.473 28.2989 471.886C27.87 472.084 27.4173 472.259 26.917 472.37C26.0037 472.585 24.9316 472.656 23.8356 472.346C22.7396 472.053 21.7786 471.33 21.1353 470.544C20.2141 469.392 19.7773 468.177 19.5073 466.986C19.2452 465.826 19.1737 464.421 19.4517 463.197C19.7535 461.768 20.365 460.529 21.0003 459.242C21.1909 458.877 21.4133 458.885 21.6277 459.234C22.001 459.838 22.4457 460.378 22.5013 461.045C22.541 461.498 22.5728 461.863 22.3187 462.221C21.9295 462.761 22.0566 463.452 21.5801 464C21.5165 464.079 21.5165 464.214 21.5324 464.317C21.6833 465.262 21.858 466.152 22.1122 467.049C22.3663 467.923 22.7237 468.796 23.3511 469.376C23.7562 469.765 24.2962 469.924 24.8283 469.964C25.1778 469.988 25.5351 469.98 25.9084 469.924C26.4405 469.845 27.0123 469.718 27.5285 469.448C27.9177 469.241 28.2274 468.931 28.7754 469.059C28.8946 469.082 29.0851 468.939 29.109 468.812C29.1884 468.336 29.5061 468.161 29.8237 467.955C30.6497 467.407 31.4121 466.787 32.1189 466.049C32.6431 465.501 33.1117 464.897 33.5644 464.27C34.2712 463.301 34.9462 462.268 35.8357 461.331C36.5664 460.545 37.4876 459.862 38.5519 459.314C38.7981 459.187 39.0125 458.996 39.2984 458.917C39.5446 458.837 39.8067 458.734 40.0608 458.655C40.3308 458.607 40.6008 458.575 40.855 458.607C41.4268 458.663 41.816 458.766 42.3719 458.448C42.7213 458.321 43.3011 458.432 43.6823 458.631C43.9444 458.742 44.1747 458.893 44.3732 459.068C44.5877 459.234 44.7703 459.417 44.9212 459.616C45.1198 459.846 45.2865 460.068 45.4613 460.275C45.6519 460.473 45.8504 460.656 46.1284 460.799C46.446 460.95 46.6367 461.363 46.7637 461.688C47.2561 463.182 47.7644 464.5 48.0185 466.001C48.1853 467.009 48.1933 468.09 47.9471 469.17C47.6929 470.242 47.2164 471.243 46.5811 472.116C46.0807 472.799 45.4454 473.387 44.7465 473.887C44.2065 474.284 43.6029 474.61 42.9516 474.856C42.3004 475.11 41.5936 475.261 40.8391 475.293C40.1005 475.333 39.2984 475.214 38.5757 474.92C37.853 474.634 37.2097 474.221 36.7014 473.744C36.2964 473.371 35.9549 472.974 35.5895 472.632C34.7318 471.846 34.2076 470.893 33.8264 469.94C33.3658 468.796 32.7463 467.788 32.1189 466.835C31.976 466.612 31.7854 466.414 31.698 466.176C31.3803 465.342 30.9277 464.611 30.4511 464.023C29.9746 463.428 29.4584 463.055 29.1566 462.912C29.0295 462.824 28.9184 462.808 28.7754 462.753C28.6245 462.721 28.3863 462.713 28.148 462.729C27.6556 462.776 27.1076 462.919 26.6788 463.166C26.0037 463.555 25.5431 464 25.4398 464.881C25.4319 464.937 25.4716 464.992 25.4637 465.048C25.4239 465.532 25.0586 465.89 24.2803 465.763C23.6053 465.644 23.1129 465.143 23.1764 464.349C23.2399 463.491 23.645 462.61 24.2009 461.982L24.1294 461.903Z" fill="#EBC464"/>
<path d="M294.138 38.5586L275.555 27.3527C275.385 27.2298 275.178 27.4276 275.289 27.6044L289.263 46.3668C289.304 46.4259 289.306 46.5083 289.264 46.5694L276.065 68.4946C275.961 68.6599 276.153 68.8599 276.323 68.755L298.565 55.1498C298.611 55.1206 298.668 55.1173 298.718 55.1326L316.504 60.7344C316.685 60.7883 316.822 60.5805 316.703 60.4349L305.349 46.4432C305.301 46.39 305.292 46.3136 305.321 46.2519L315.434 22.043C315.506 21.8697 315.3 21.707 315.148 21.8191L294.367 38.5454C294.294 38.6111 294.205 38.6064 294.138 38.5586Z" fill="#F5E3B4"/>
<path d="M286.434 35.4161L285.025 34.4239L284.317 33.9307C284.085 33.7665 283.805 33.5745 283.732 33.5073C283.113 33.0189 282.5 32.5244 281.881 32.0359C281.528 31.7641 281.17 31.4856 280.817 31.2138C279.649 30.3292 278.146 29.3256 277.712 29.2835C277.674 29.2815 277.618 29.2596 277.544 29.2177C277.477 29.1698 277.354 29.1 277.267 29.1903C277.174 29.2739 277.258 29.367 277.299 29.4261L277.464 29.6626C277.936 30.2952 278.385 30.9011 278.907 31.5616C279.15 31.8718 279.711 32.3762 279.772 32.5376C279.933 32.9575 280.304 33.5972 280.788 34.2683C281.029 34.6038 281.296 34.9408 281.569 35.2717L282.012 35.7634L282.557 36.3428C283.266 37.8674 284.433 39.0177 285.505 40.2768C286.577 41.5359 287.521 42.9338 288.713 44.0854C288.876 44.2396 289.031 44.4124 289.18 44.5911C289.328 44.7698 289.576 45.112 289.721 45.3539C289.85 45.5505 289.972 45.7531 290.044 45.953C290.109 46.159 290.233 46.3237 290.176 46.5548C290.055 46.9407 289.811 47.3517 289.551 47.7301L288.937 48.6909L288.417 49.5428C287.729 50.6895 287.073 51.8568 286.416 53.0241C285.005 55.5307 283.44 57.9468 281.693 60.2267C280.706 61.5346 280.08 62.5897 279.407 63.7118L278.934 64.5219L278.136 65.9601L277.771 66.6367L277.582 66.9746C277.545 67.0802 277.386 67.211 277.513 67.3253C277.64 67.427 277.769 67.2756 277.88 67.2119L278.233 66.9903L278.941 66.5343L280.318 65.6078C281.218 64.9913 282.048 64.3773 282.696 63.8423L282.855 63.7115L282.928 63.6458L283.067 63.5456L283.607 63.144L284.693 62.3475L286.89 60.7685C288.363 59.7205 289.841 58.6918 291.332 57.6638C292.849 56.6244 294.497 55.7438 296.109 54.8234L297.558 53.9893C297.897 53.7922 298.235 53.633 298.601 53.6398C298.955 53.6459 299.34 53.7803 299.701 53.9007L302.459 54.8697L307.715 56.6928L309.705 57.3427L310.999 57.7531C311.604 57.9308 312.183 58.0944 312.701 58.2295L313.045 58.3173C313.095 58.32 313.162 58.3679 313.197 58.3002C313.233 58.2198 313.142 58.158 313.094 58.1049L312.453 57.4191L311.404 56.332L304.068 47.6788C303.789 47.3287 303.618 46.9779 303.551 46.582C303.52 46.2008 303.58 45.799 303.76 45.3847L304.475 43.6003L305.557 40.8486L307.716 35.3509L309.688 30.1534L310.206 28.8586L310.308 28.6109L310.314 28.6049C310.334 28.5996 310.353 28.5817 310.387 28.5392C310.428 28.4907 310.483 28.405 310.539 28.3067C310.576 28.2012 310.509 28.2736 310.464 28.2901L310.273 28.4255L308.403 29.9269L302.633 34.5494C300.447 36.2871 298.236 37.9983 296.217 39.9221C296.077 40.0601 295.951 40.1611 295.84 40.2248C295.625 40.3462 295.448 40.457 295.285 40.5433C294.728 40.7921 294.21 40.7772 293.835 40.6814C293.088 40.4645 292.904 40.1131 292.986 40.1111C293.071 40.0587 293.487 40.3338 294.219 40.2525C294.531 40.2122 294.809 40.094 295.034 39.9161C295.351 39.6672 295.237 39.6613 295.253 39.5988L295.227 39.2621C295.214 39.0336 295.213 38.8058 295.232 38.5727C295.276 38.1005 295.424 37.5831 295.809 36.9962C296.326 36.1948 296.839 35.4817 297.789 34.8678C299.159 33.9725 300.287 32.6215 301.815 31.9687C302.029 31.8725 302.275 31.6515 302.468 31.4656C304.179 29.7595 306.014 28.2055 307.904 26.6988C309.975 25.1005 313.163 22.391 314.576 21.8776C314.856 21.7216 315.098 21.5637 315.373 21.4011C315.438 21.3666 315.504 21.3195 315.569 21.285C315.647 21.2511 315.77 21.3083 315.829 21.3874C315.9 21.4797 315.852 21.5468 315.842 21.6159L315.787 21.8217C315.649 22.3902 315.551 22.9354 315.407 23.6175C315.332 23.9615 315.255 24.3433 315.071 24.8207L314.115 27.0984L312.94 29.7884C312.639 30.4683 312.343 31.155 312.072 31.8429C311.662 32.8841 311.378 33.9447 310.585 34.7061C310.418 34.8681 310.212 35.4139 310.231 35.649C310.298 36.5384 309.905 37.3717 309.531 38.225C308.542 40.5199 307.51 42.7935 306.552 45.109L306.21 45.9577C306.184 46.0766 306.051 46.2087 306.152 46.3216L306.415 46.6266C307.077 47.3768 307.734 48.1203 308.397 48.8579L311.31 52.0181L312.764 53.595L313.505 54.4063L314.644 55.7259L316.597 58.0189C316.919 58.403 317.308 58.8223 317.455 59.1465C317.56 59.3166 317.603 59.458 317.677 59.6201L317.807 60.0194C317.951 60.5269 317.996 60.8709 318.048 61.209C318.043 61.2973 318.105 61.3259 318.013 61.5045C317.971 61.5782 317.903 61.6632 317.858 61.6924C317.812 61.7216 317.786 61.7203 317.754 61.7375L317.302 61.9033C316.987 62.0068 316.716 62.2265 316.131 62.2714C315.633 62.3588 314.628 61.9891 313.786 61.7482C312.914 61.4868 312.025 61.1928 311.208 60.8583C310.334 60.5019 309.416 60.162 309.116 60.0828C308.668 59.9577 308.209 59.9017 307.689 59.9247C307.099 59.9503 306.272 59.6723 305.602 59.4215C304.739 59.1036 303.919 58.6994 303.105 58.3018C302.131 57.8198 301.225 57.3604 300.041 57.2722C299.744 57.2501 299.314 57.1324 299.06 57.0366C298.979 57.0133 298.891 56.8758 298.784 56.8764C298.733 56.8737 298.669 56.883 298.605 56.8923C298.56 56.9089 298.574 56.8843 298.477 56.9361L298.217 57.0614L297.164 57.5876C296.468 57.9492 295.783 58.3241 295.11 58.7249C293.758 59.52 292.442 60.3675 291.136 61.2409L285.828 64.8122L284.508 65.7102L282.3 67.1431L279.829 68.7392L278.559 69.5574C278.139 69.8262 277.673 70.1495 277.351 70.2589C277.072 70.377 276.881 70.4048 276.663 70.4564C276.485 70.4723 276.294 70.5001 276.148 70.4987C275.845 70.4953 275.612 70.4639 275.399 70.4273C275.218 70.386 275.031 70.3382 274.894 70.2929C274.869 70.2916 274.765 70.2164 274.669 70.1227C274.573 70.0164 274.55 69.9772 274.539 69.9513C274.511 69.8802 274.476 69.8151 274.443 69.7248C274.354 69.5049 274.252 69.2717 274.197 68.8765C274.167 68.4952 274.065 68.0343 274.523 67.1538L277.534 62.1634L279.653 58.72L282.901 53.565C283.446 52.7018 284.018 51.8274 284.464 50.9336C284.988 49.8858 285.554 48.8719 286.157 47.8852L286.614 47.1502L286.849 46.783C286.896 46.716 286.883 46.7406 286.902 46.7226C286.956 46.6749 287.061 46.6044 287.002 46.5254L286.98 46.4484L286.964 46.4032L286.822 46.2058L286.216 45.3574C285.803 44.7913 285.383 44.2439 284.95 43.6957C284.084 42.5994 283.198 41.5336 282.3 40.4671C281.877 39.9701 281.427 39.497 281.063 38.9715L280.105 37.5982L278.452 35.3591L274.485 30.1181L273.97 29.4517C273.81 29.2345 273.59 28.976 273.522 28.8205L273.378 28.5534L273.301 28.3342C273.234 28.1788 273.202 28.0506 273.189 27.9423C273.088 27.4561 273.136 27.1486 273.176 26.885C273.196 26.7342 273.238 26.6605 273.276 26.5549C273.313 26.4493 273.349 26.3564 273.397 26.3019L273.528 26.1001C273.555 26.0509 273.737 25.8518 273.803 25.8047C273.842 25.7688 273.875 25.7516 273.914 25.7283C274.111 25.5996 274.345 25.4728 274.779 25.4073C274.869 25.3867 274.99 25.3742 275.135 25.3756C275.275 25.3703 275.389 25.3638 275.584 25.3931C275.754 25.4084 275.93 25.4304 276.159 25.5122C276.266 25.5369 276.378 25.5682 276.519 25.6453C276.655 25.7031 276.786 25.7543 276.963 25.8713L281.945 29.0465L284.294 30.5507L285.396 31.2546L286.013 31.6733C288.308 33.2506 290.597 34.8211 292.892 36.3983C293.045 36.5013 293.225 36.5679 293.371 36.6769C294.664 37.5934 294.822 38.3041 293.762 38.6085C292.824 38.875 291.714 38.6958 290.501 37.948C289.159 37.1237 287.838 36.2564 286.517 35.4016L286.434 35.4161Z" fill="#EBC464"/>
<path d="M298.449 6.71947L295.568 16.8799C295.537 16.9921 295.619 17.1104 295.733 17.1165L300.843 17.3879C300.97 17.3946 301.064 17.2858 301.039 17.1642L298.822 6.7329C298.769 6.54026 298.504 6.52623 298.449 6.71947Z" fill="#F5E3B4"/>
<path d="M299.357 8.22436C299.096 8.49522 298.884 8.78139 298.548 9.03561C298.252 9.25397 297.95 9.46566 298.107 9.82838C298.153 9.9194 298.068 9.98442 298.051 10.0595C298.012 10.2029 297.972 10.3464 297.958 10.4912C297.948 10.5602 298.076 10.6619 298.01 10.709C297.688 10.9387 297.534 11.2089 297.711 11.579C297.317 11.7163 297.485 12.0099 297.528 12.2716C297.565 12.5267 297.427 12.7471 297.614 13.048C297.66 13.1264 297.669 13.2028 297.603 13.2499C297.22 13.546 297.218 13.9445 297.178 14.341C297.166 14.4479 297.148 14.5482 297.117 14.6478C297.095 14.7162 297.067 14.7654 297.026 14.8264C296.937 14.942 296.798 15.0675 296.586 15.2334C296.355 15.4173 296.307 15.6171 296.265 15.7984C296.21 16.0169 296.265 16.1717 296.243 16.3477C296.239 16.4108 296.217 16.4792 296.284 16.527C296.344 16.5808 296.466 16.5557 296.562 16.5292C296.773 16.4834 296.992 16.4065 297.22 16.2983C297.823 16.0077 298.109 15.7634 298.244 15.5934C298.264 15.5755 298.265 15.5629 298.297 15.5583C298.385 15.563 298.391 15.5697 298.397 15.5763C298.421 15.6029 298.457 15.6428 298.493 15.67C298.62 15.7843 298.933 15.9717 299.251 16.0582C299.364 16.0769 299.481 16.14 299.536 16.0544C299.56 15.9607 299.477 15.8425 299.438 15.7455C299.348 15.5382 299.157 15.3256 299.069 15.2007C299.004 15.1023 298.945 15.0233 298.885 14.9569L298.843 14.9104L298.771 14.723L298.628 14.3231L298.036 12.7288C297.941 12.477 297.79 12.2285 297.683 11.9761C297.633 11.8532 297.596 11.7184 297.584 11.5849C297.522 11.088 297.485 10.5799 297.397 10.0944L296.984 7.99076C296.95 7.79282 296.923 7.58886 296.87 7.39622L296.821 7.24811L296.793 7.177L298.598 6.79199L298.604 6.78608L298.617 6.78675C298.624 6.78077 298.624 6.78077 298.636 6.78144C298.636 6.78144 298.634 6.8193 298.624 6.78077C298.617 6.78674 298.692 6.80338 298.648 6.79472C298.624 6.78076 298.618 6.77412 298.624 6.78077L298.63 6.78742C298.63 6.78742 298.636 6.79406 298.63 6.78742C298.619 6.74889 298.621 6.71099 298.616 6.67911C298.618 6.53365 298.714 6.38694 298.88 6.3578C298.995 6.33859 299.133 6.37121 299.249 6.44699C299.31 6.4882 299.358 6.54136 299.393 6.59384C299.435 6.64036 299.448 6.62838 299.479 6.64898C299.571 6.69818 299.618 6.764 299.581 6.85696C299.472 7.12324 299.868 7.29606 299.471 7.61666C299.418 7.66446 299.441 7.70371 299.484 7.7376C300.124 8.31575 300.009 9.05624 300.098 9.75699C300.124 9.98614 300.252 10.1954 300.329 10.4146C300.372 10.5561 300.408 10.7035 300.432 10.8503C300.465 11.0609 300.434 11.2934 300.518 11.494C300.58 11.6428 300.75 11.7784 300.345 12.01C300.26 12.0624 300.301 12.1341 300.408 12.1461C300.83 12.1749 300.81 12.3131 300.835 12.4473C300.879 12.804 300.891 13.1779 300.967 13.5299C301.023 13.7923 301.149 14.0395 301.3 14.2879C301.549 14.7125 301.937 15.3974 302.217 16.0829C302.495 16.6862 302.535 17.2514 302.492 17.6984C302.486 17.7993 302.542 17.9414 302.518 18.0351C302.472 18.1971 302.518 18.3958 302.248 18.47C301.967 18.531 301.855 18.4871 301.992 18.8804C302.063 19.0929 301.921 19.1612 301.761 19.1844C301.569 19.2248 301.27 19.1457 300.997 19.0426C300.643 18.9162 300.342 18.742 300.176 18.999C300.087 19.1398 299.807 19.0426 299.598 18.9303C299.13 18.6903 298.757 18.5692 298.399 18.5186C298.104 18.4713 297.729 18.4957 297.341 18.532C296.827 18.5743 296.201 18.6803 295.65 18.6953C295.099 18.6976 294.657 18.5665 294.317 18.4156C294.193 18.371 294.059 18.2628 293.948 18.0986C293.853 17.9671 293.808 17.8635 293.746 17.7273C293.552 17.3247 293.471 16.7003 293.763 15.9818C293.996 15.2792 294.248 14.5966 294.497 13.9518C294.561 13.8097 294.638 13.6809 294.602 13.5208C294.515 13.1429 294.658 12.8341 294.863 12.5413C295.122 12.188 295.088 11.7623 295.042 11.3233C295.034 11.2217 294.977 11.1047 295.026 11.025C295.404 10.4567 295.234 9.73268 295.481 9.12575C295.684 8.64299 296.037 8.19352 296.352 7.74203C296.598 7.38815 296.888 7.0555 297.153 6.70893C297.167 6.68436 297.144 6.6452 297.164 6.62727C297.339 6.43409 297.866 6.5127 298.614 6.83718C299.27 7.12509 299.636 7.38497 299.562 7.58352C299.481 7.80066 299.362 8.00317 299.263 8.213L299.357 8.22436Z" fill="#EBC464"/>
<path d="M334.444 36.7709L324.312 39.7885C324.209 39.821 324.152 39.9319 324.191 40.0289L326.159 45.3977C326.202 45.5266 326.371 45.5672 326.471 45.465L334.636 37.0911C334.764 36.9397 334.624 36.7172 334.444 36.7709Z" fill="#F5E3B4"/>
<path d="M333.594 38.3649C333.205 38.2936 332.827 38.2735 332.423 38.1319C332.056 38.0048 331.697 37.8718 331.464 38.2011C331.409 38.2868 331.297 38.2555 331.225 38.2833C331.077 38.3324 330.923 38.3748 330.787 38.4372C330.722 38.4717 330.695 38.6285 330.614 38.6052C330.229 38.4582 329.905 38.4853 329.671 38.8399C329.33 38.5813 329.162 38.8887 328.95 39.0673C328.732 39.2392 328.466 39.2504 328.297 39.5704C328.255 39.6567 328.189 39.7039 328.108 39.6806C327.629 39.5223 327.27 39.7372 326.892 39.9323C326.658 40.0464 326.549 40.0723 326.398 40.0643C326.247 40.0562 326.053 40.0017 325.779 39.9238L325.754 39.9225C325.467 39.844 325.267 39.9156 325.087 39.9693C324.977 40.0078 324.886 40.0536 324.82 40.1134C324.733 40.2036 324.838 40.3611 324.89 40.4587C325.044 40.7769 325.279 41.1185 325.615 41.3451C325.853 41.5159 326.015 41.5498 326.204 41.6927L326.36 41.8529C326.408 41.906 326.44 41.8888 326.471 41.9094C326.533 41.9254 326.596 41.9414 326.646 41.9441C326.747 41.9494 326.683 42.0789 326.676 42.2177C326.657 42.4634 326.627 42.8984 326.69 43.2624C326.693 43.3322 326.734 43.3913 326.778 43.3873C326.823 43.3834 326.851 43.3342 326.891 43.2984C326.958 43.2134 327.033 43.1098 327.096 43.0056C327.22 42.8097 327.305 42.5169 327.371 42.3621C327.284 42.1994 328.286 40.9619 328.949 40.0417C329.12 39.804 329.254 39.539 329.412 39.3007C329.495 39.1785 329.595 39.0763 329.701 38.9807C330.099 38.6348 330.516 38.2963 330.909 37.9312L332.526 36.3214C332.679 36.1714 332.845 36.0346 332.986 35.8713L333.088 35.7438L333.136 35.6768L333.156 35.6462L334.492 36.9447L334.498 36.9513C334.529 36.9593 334.465 36.9686 334.504 36.9453C334.498 36.9387 334.52 37.0158 334.503 36.9706C334.498 36.9387 334.505 36.9327 334.504 36.9453L334.498 36.9513C334.498 36.9513 334.491 36.9573 334.498 36.9513C334.524 36.9274 334.557 36.9102 334.596 36.8869C334.726 36.8179 334.902 36.8399 335.002 36.9907C335.072 37.0957 335.096 37.2425 335.063 37.38L335.033 37.4796L335.043 37.5307C335.047 37.5626 335.052 37.5945 335.057 37.6138C335.071 37.7221 335.035 37.8024 334.932 37.8223C334.644 37.8892 334.71 38.323 334.211 38.1826C334.143 38.16 334.121 38.2158 334.112 38.2596C333.957 39.1435 333.243 39.4852 332.679 39.9804C332.5 40.1417 332.38 40.3694 332.231 40.564C332.129 40.6914 332.022 40.7996 331.902 40.9072C331.729 41.0625 331.521 41.178 331.385 41.3606C331.282 41.5007 331.264 41.7211 330.845 41.5217C330.758 41.4791 330.71 41.5588 330.762 41.6565C330.963 42.0279 330.833 42.0968 330.727 42.1924C330.435 42.4427 330.113 42.6723 329.851 42.9558C329.656 43.1669 329.504 43.412 329.376 43.6836C329.109 44.1756 328.742 44.89 328.283 45.5553C328.097 45.8302 327.886 46.1163 327.672 46.3327C327.458 46.5491 327.235 46.7018 327.025 46.8425C326.927 46.9069 326.831 47.041 326.74 47.0868C326.578 47.1604 326.394 47.2898 326.287 47.1576C326.221 47.0845 326.185 47.0572 326.089 47.0711C325.999 47.0917 325.876 47.1422 325.742 47.2869C325.594 47.4562 325.503 47.3818 325.413 47.2947C325.305 47.1877 325.229 46.9432 325.179 46.6875C325.108 46.3674 325.087 46.0372 324.79 46.148C324.629 46.209 324.568 45.9274 324.563 45.6677C324.563 44.4656 324.334 43.9028 323.946 43.2179L323.756 42.8724C323.692 42.7615 323.656 42.7216 323.597 42.6425C323.555 42.596 323.486 42.4785 323.411 42.3416L323.196 41.9696C322.926 41.468 322.539 40.8906 322.341 40.3233C322.2 39.8856 322.245 39.5083 322.306 39.2015C322.326 39.0634 322.433 38.8349 322.514 38.738C322.596 38.6158 322.697 38.501 322.811 38.3868C323.051 38.1592 323.404 37.9501 323.84 37.8341C324.468 37.6776 325.095 37.5465 325.691 37.4199L325.998 37.3602C326.075 37.339 326.146 37.3112 326.206 37.2448C326.499 36.9693 326.851 36.9057 327.229 36.9258C327.683 36.95 328.052 36.6785 328.421 36.407C328.507 36.342 328.576 36.2318 328.683 36.2312C329.405 36.2315 329.959 35.6852 330.636 35.5693C331.185 35.4719 331.777 35.516 332.365 35.5283C332.82 35.5398 333.279 35.5958 333.733 35.6326C333.758 35.6339 333.779 35.5907 333.81 35.5987C334.074 35.638 334.301 36.131 334.423 36.9347C334.524 37.6487 334.488 38.0897 334.283 38.142C334.046 38.199 333.798 38.2049 333.55 38.236L333.594 38.3649Z" fill="#EBC464"/>
<path d="M259.185 49.8941L269.202 45.3454C269.325 45.295 269.46 45.3781 269.465 45.5176L269.493 51.0555C269.494 51.1631 269.394 51.2527 269.287 51.2407L259.242 50.2514C259.046 50.2347 259.003 49.973 259.185 49.8941Z" fill="#F5E3B4"/>
<path d="M259.748 48.2222C260.133 48.249 260.489 48.2173 260.895 48.3084C261.258 48.391 261.62 48.4861 261.791 48.1282C261.84 48.0359 261.94 48.0539 262.005 48.0194C262.142 47.9571 262.278 47.8947 262.402 47.819C262.461 47.7779 262.457 47.6132 262.538 47.6365C262.925 47.733 263.232 47.6733 263.405 47.2902C263.766 47.5056 263.879 47.1762 264.06 46.977C264.235 46.7838 264.49 46.7467 264.603 46.4048C264.633 46.3178 264.687 46.2574 264.768 46.2807C265.243 46.3818 265.561 46.1203 265.883 45.8907C266.316 45.6099 266.991 45.3991 267.426 45.5487C267.563 45.594 267.703 45.5761 267.845 45.5204C267.948 45.4879 268.052 45.4428 268.149 45.4036C268.433 45.2922 268.754 45.0878 269.031 44.9949C269.236 44.9426 269.415 44.8065 269.649 44.7999C269.924 44.8652 269.91 45.01 270.085 45.0572C270.276 45.1496 270.503 45.2819 270.705 45.5204C270.921 45.747 271.021 46.1257 271.107 46.5415C271.204 46.9706 271.1 47.5092 271.049 47.9748L270.969 48.6601C270.938 48.7597 270.903 49.0553 270.874 49.2499C270.813 49.6895 270.754 50.0913 270.726 50.5011C270.673 51.1247 270.533 51.6235 270.359 52.0445C270.181 52.2881 270.021 52.3239 269.837 52.4533C269.648 52.5635 269.421 52.6716 269.134 52.7133C268.713 52.7669 268.216 52.7215 267.741 52.7279L267.001 52.7202C266.755 52.7135 266.684 52.7287 266.519 52.7326L264.801 52.8122C264.528 52.8293 264.246 52.8903 263.966 52.9134C263.833 52.9253 263.694 52.9179 263.557 52.8852C263.055 52.7953 262.562 52.6742 262.059 52.6096L259.902 52.3621C259.695 52.3321 259.494 52.2961 259.292 52.2854L259.14 52.2899L259.064 52.2986L259.044 52.3039C258.994 52.3012 258.912 52.2906 258.843 52.2806C258.705 52.2606 258.556 52.2146 258.413 52.1627C257.805 51.9406 257.301 51.4077 257.085 50.8457C256.862 50.277 256.852 49.6249 257.126 48.994C257.462 48.2716 257.986 48.04 258.189 48.0382C258.423 48.0316 258.447 48.191 258.375 48.4719C258.267 48.9534 258.354 49.4516 258.597 49.7745C258.715 49.9326 258.867 50.0483 259.017 50.0815C259.166 50.1401 259.335 50.0478 259.277 50.0764C259.27 50.0824 259.27 50.0823 259.277 50.0637L259.278 50.0511C259.298 49.913 259.311 49.7808 259.325 49.6486C259.339 49.624 259.365 49.6002 259.385 49.5822C259.465 49.5106 259.536 49.4827 259.615 49.5438C259.839 49.7266 260.128 49.4067 260.312 49.8783C260.34 49.9494 260.392 49.9268 260.431 49.9035C261.182 49.4689 261.866 49.8026 262.562 49.9345C262.794 49.9784 263.031 49.9214 263.265 49.9149C263.417 49.9103 263.568 49.931 263.719 49.9517C263.932 49.9883 264.148 50.0821 264.364 50.0683C264.536 50.0584 264.7 49.9343 264.809 50.3893C264.836 50.4856 264.919 50.471 264.962 50.3721C265.115 49.9816 265.252 50.0394 265.383 50.0654C265.746 50.1353 266.102 50.2364 266.467 50.2685C266.599 50.2818 266.739 50.2766 266.879 50.2587C267.012 50.2469 267.178 50.2177 267.237 50.1766C267.51 50.0519 267.648 49.8314 267.725 49.69C267.782 49.5665 267.889 49.5911 267.889 49.4583C267.885 49.4138 267.79 49.3075 267.778 49.2815C267.763 49.2238 267.66 49.1234 267.802 49.2005C267.962 49.285 267.99 49.2359 267.628 49.0079C267.42 48.8829 267.445 48.8968 267.482 48.8988C267.526 48.9075 267.67 48.9341 267.803 48.9348C267.967 48.9435 268.141 48.8832 267.866 48.818C267.797 48.8206 267.781 48.7628 267.79 48.7063C267.807 48.6313 267.856 48.6593 267.902 48.6301C268.335 48.4569 268.295 48.1321 268.173 48.0497C268.004 47.9015 267.804 47.9605 267.578 48.1636C267.518 48.23 267.464 48.2904 267.404 48.3568C267.35 48.4172 267.33 48.4352 267.305 48.4212C267.268 48.4066 267.233 48.3541 267.14 48.3175C267.121 48.3102 267.103 48.3029 267.096 48.3088C267.044 48.3314 266.966 48.3779 266.918 48.4449C266.68 48.755 266.352 48.8577 265.99 48.8828C265.552 48.9164 265.238 49.2225 264.936 49.5418C264.869 49.6142 264.812 49.7377 264.71 49.745C264.029 49.829 263.586 50.4318 262.949 50.6321C262.44 50.7886 261.869 50.8215 261.316 50.8743C260.884 50.9146 260.435 50.9098 259.997 50.9308C259.965 50.9354 259.956 50.9793 259.925 50.9714C259.666 50.9639 259.38 50.5121 259.149 49.7342C258.939 49.0461 258.912 48.6017 259.112 48.5301C259.325 48.4465 259.568 48.4087 259.792 48.3511L259.748 48.2222Z" fill="#EBC464"/>
<path d="M1311.31 411.043C1312.75 412.256 1313.99 413.76 1314.79 415.426C1314.97 415.798 1315.11 416.187 1315.27 416.561C1315.41 416.943 1315.51 417.34 1315.64 417.725C1315.69 417.921 1315.78 418.106 1315.81 418.309L1315.95 418.905C1316.04 419.304 1316.17 419.7 1316.22 420.113C1316.28 420.54 1316.34 421.003 1316.33 421.451L1316.33 422.677L1316.2 423.896C1316.19 424.269 1316.15 424.663 1316.06 424.994C1315.58 426.626 1314.97 428.184 1314.25 429.73C1313.44 430.788 1312.84 431.932 1311.96 432.95C1311.56 433.484 1311.04 433.922 1310.57 434.402C1310.31 434.621 1310.05 434.836 1309.8 435.051C1309.67 435.158 1309.54 435.278 1309.41 435.379L1309.01 435.68C1308.72 435.894 1308.39 436.148 1308.05 436.268C1307.04 436.722 1306.02 437.061 1304.97 437.345C1303.93 437.625 1302.85 437.841 1301.72 437.829C1301.12 437.813 1300.5 437.752 1299.9 437.515C1299.31 437.284 1298.73 436.868 1298.39 436.292C1298.03 435.731 1297.93 434.978 1298.11 434.359C1298.28 433.732 1298.63 433.218 1299 432.769C1299.83 431.828 1300.82 431.012 1301.83 430.295C1302.44 429.867 1303.06 429.463 1303.72 429.103C1304.38 428.747 1305.08 428.468 1305.79 428.229C1307.86 427.567 1310.02 427.303 1312.19 427.303C1313.64 427.305 1315.1 427.474 1316.54 427.842C1317.98 428.208 1319.39 428.779 1320.67 429.632C1321.98 430.487 1323.09 431.788 1323.74 433.283C1324.38 434.791 1324.5 436.455 1324.28 437.993C1324.05 439.543 1323.51 441.003 1322.82 442.361C1321.76 444.389 1320.35 446.238 1318.56 447.715C1317.72 448.39 1316.81 449.009 1315.74 449.41C1315.22 449.613 1314.65 449.769 1314.05 449.811C1313.45 449.867 1312.9 449.815 1312.33 449.713C1311.9 449.632 1311.48 449.525 1311.05 449.316C1310.83 449.216 1310.6 449.08 1310.34 448.844C1310.11 448.617 1309.95 448.324 1309.87 448.014C1309.75 447.427 1309.88 446.912 1310.08 446.495C1310.28 446.076 1310.57 445.743 1310.87 445.468C1311.47 444.931 1312.14 444.559 1312.85 444.297C1313.55 444.034 1314.29 443.854 1315.1 443.854C1315.89 443.857 1316.65 444.012 1317.35 444.255C1318.75 444.747 1319.98 445.536 1321.06 446.467C1322.15 447.406 1323.09 448.503 1323.84 449.742C1324.66 451.101 1325.28 452.648 1325.4 454.342C1325.46 455.184 1325.34 456.07 1325.13 456.842C1324.73 458.29 1324.13 459.605 1323.41 460.845C1322.7 462.085 1321.85 463.243 1320.91 464.32C1319.56 465.865 1317.97 467.212 1316.15 468.247C1314.33 469.254 1312.25 469.911 1310.13 469.972C1308.93 470.027 1307.73 469.882 1306.58 469.609C1305.99 469.495 1305.43 469.294 1304.87 469.125C1304.32 468.917 1303.76 468.731 1303.23 468.483C1302.62 468.219 1302.48 468.038 1302.8 467.96C1303.08 467.889 1303.33 467.804 1303.64 467.771C1303.79 467.754 1303.97 467.748 1304.16 467.766C1304.36 467.776 1304.59 467.791 1304.85 467.84C1305.03 467.874 1305.2 467.907 1305.38 467.941C1305.56 467.965 1305.73 467.993 1305.91 468.027C1306.08 468.061 1306.27 468.107 1306.45 468.158C1306.64 468.197 1306.83 468.243 1307.04 468.308C1308.26 468.663 1309.59 468.58 1310.84 468.67C1311.01 468.681 1311.27 468.661 1311.47 468.599C1315.11 467.756 1318.29 465.492 1320.63 462.547C1321.4 461.586 1322.03 460.517 1322.57 459.421C1322.93 458.712 1323.25 457.985 1323.5 457.237C1323.67 456.696 1323.84 456.145 1323.92 455.591C1324 455.039 1324.01 454.477 1323.94 453.918C1323.82 453.072 1323.52 452.315 1323.41 451.513C1323.39 451.343 1323.18 450.933 1323.05 450.818C1322.59 450.371 1322.24 449.767 1321.8 449.199C1320.64 447.682 1319.15 446.362 1317.4 445.602C1316.75 445.32 1316.07 445.143 1315.39 445.1C1314.72 445.048 1314.05 445.205 1313.4 445.443C1312.8 445.672 1312.23 446.001 1311.79 446.411C1311.57 446.618 1311.39 446.849 1311.29 447.075C1311.18 447.303 1311.16 447.544 1311.21 447.674C1311.24 448.001 1312.15 448.273 1312.91 448.35C1313.77 448.455 1314.54 448.342 1315.34 448.025C1316.13 447.724 1316.88 447.231 1317.57 446.678C1317.89 446.421 1318.17 446.118 1318.46 445.832C1319.01 445.299 1319.5 444.67 1319.99 444.141C1320.53 443.555 1320.89 443.026 1321.1 442.304C1321.21 441.895 1321.53 441.332 1321.74 440.848C1322.02 440.236 1322.31 439.63 1322.52 439.005C1322.79 438.261 1322.98 437.515 1322.85 436.676C1322.76 436.232 1322.77 435.622 1322.69 435.128C1322.62 434.584 1322.48 434.038 1322.23 433.535C1322 433.025 1321.69 432.546 1321.31 432.112C1320.57 431.232 1319.57 430.561 1318.52 430.037C1315.62 428.661 1312.24 428.321 1309.08 428.749C1307.84 428.917 1306.62 429.2 1305.47 429.644C1305.02 429.816 1304.59 430.016 1304.17 430.232L1303.56 430.582C1303.35 430.712 1303.14 430.841 1302.94 430.977C1302.12 431.515 1301.34 432.109 1300.68 432.761C1300.01 433.399 1299.46 434.167 1299.36 434.783C1299.27 435.326 1299.65 435.917 1300.33 436.218C1300.87 436.454 1301.61 436.535 1302.31 436.457C1303.14 436.366 1303.97 436.187 1304.8 435.952C1305.62 435.715 1306.48 435.444 1307.22 435.081C1309.09 434.252 1310.62 432.725 1311.8 431.034C1311.93 430.834 1312.07 430.635 1312.2 430.434C1312.33 430.226 1312.45 430.015 1312.58 429.819C1313.51 428.441 1314.17 426.883 1314.56 425.282C1314.95 423.677 1315.04 422.026 1314.87 420.425L1314.83 419.935C1314.8 419.774 1314.76 419.617 1314.74 419.455C1314.67 419.135 1314.61 418.814 1314.54 418.494C1314.32 417.883 1314.18 417.236 1313.88 416.653C1313.34 415.458 1312.6 414.349 1311.68 413.375C1310.28 411.859 1308.5 410.66 1306.57 409.77C1306.44 409.717 1306.3 409.677 1306.17 409.618C1305.06 409.15 1304.74 408.822 1305.43 408.6C1306.03 408.417 1306.92 408.505 1307.98 409.008C1309.15 409.565 1310.25 410.259 1311.26 411.07L1311.31 411.043Z" fill="#EBC464"/>
</svg>
