<svg width="1313" height="358" viewBox="0 0 1313 358" fill="none" xmlns="http://www.w3.org/2000/svg">
<path d="M653.311 38.1158C652.993 38.1158 652.496 38.0562 652.006 38.0098C651.755 37.9899 651.49 37.9237 651.238 37.8906C651.046 37.8641 650.867 37.8442 650.722 37.7118C650.589 37.586 650.437 37.586 650.265 37.6257C650.152 37.6522 650.026 37.6853 649.92 37.6655C649.43 37.5396 648.954 37.3675 648.477 37.1555C648.318 37.1026 648.166 37.0032 648.02 36.9039C647.881 36.8046 647.748 36.7052 647.649 36.5463C647.523 36.3477 647.318 36.3477 647.119 36.2483C646.874 36.1357 646.828 36.043 646.887 35.7715C646.934 35.5994 646.907 35.5331 646.775 35.5331C646.649 35.5265 646.51 35.5662 646.424 35.3411C646.133 34.6987 646.133 33.9438 646.351 33.3412C646.417 33.1757 646.484 32.8578 646.709 33.0631C646.722 33.0763 646.762 33.0697 646.768 33.0565C646.901 32.8181 647.04 32.5797 647.212 32.3943C647.219 32.03 647.589 31.8645 647.768 31.5864C647.801 31.5268 647.887 31.4539 647.94 31.4539C648.225 31.4539 648.45 31.1361 648.722 31.1559C648.901 31.1957 648.98 31.1162 649.053 30.9771C649.119 30.8513 649.218 30.7652 649.391 30.7387C650.192 30.5732 650.967 30.6858 651.669 30.8248C652.112 30.9109 652.536 31.0102 652.947 31.1294C653.688 31.3546 654.463 31.3612 655.198 31.1824C655.304 31.1559 655.41 31.1361 655.523 31.1162L655.841 31.0169C656.052 30.9573 656.278 30.891 656.496 30.8182C656.675 30.7652 656.814 30.6924 656.96 30.5798C658.105 29.6858 659.602 29.2024 661.125 29.2223C661.357 29.2355 661.582 29.3282 661.8 29.3415C662.026 29.3547 662.244 29.3216 662.469 29.4408C662.615 29.5203 662.827 29.5468 663.006 29.5335C663.814 29.5269 664.516 30.0302 665.085 30.5533C665.264 30.7387 665.443 30.9175 665.595 31.1162C665.741 31.3215 665.886 31.5201 666.045 31.7122C666.184 31.9175 666.33 32.1228 666.489 32.3214C666.641 32.5201 666.76 32.7518 666.893 32.9704C666.939 33.0565 667.005 33.1293 667.025 33.2154C667.138 33.6326 667.197 34.0564 667.277 34.4604C667.337 34.6524 667.383 34.8444 667.396 35.0431C667.416 35.2418 667.456 35.447 667.416 35.6457C667.396 35.7848 667.39 35.9305 667.39 36.0761C667.403 36.3675 667.337 36.6523 667.264 36.9304C667.171 37.2019 666.999 37.4403 666.767 37.6125C666.588 37.884 666.449 38.182 666.231 38.4204C666.125 38.5462 666.039 38.725 665.913 38.7846C665.535 38.917 665.39 39.1488 665.224 39.4799C665.138 39.6653 664.933 39.8375 664.747 39.9766C664.615 40.0825 664.469 40.1752 664.304 40.0958C664.251 40.0693 664.085 40.1024 664.045 40.1487C663.886 40.3209 663.661 40.3209 663.476 40.3739C663.204 40.4534 662.973 40.5262 662.714 40.3938C662.635 40.354 662.469 40.3739 662.39 40.4202C662.112 40.5858 661.787 40.5924 661.463 40.6123C661.165 40.5858 660.853 40.5461 660.549 40.4666C659.549 40.2348 658.582 39.7448 657.801 39.1289C657.695 39.0429 657.576 38.9568 657.456 38.9104C657.039 38.7316 656.715 38.4667 656.397 38.2416C656.271 38.1687 656.125 38.1025 655.999 38.0562C656.006 37.831 655.827 37.9568 655.735 37.9237C655.602 37.8972 655.509 37.778 655.357 37.7847C655.264 37.7913 655.172 37.7714 655.086 37.7449C654.993 37.7317 654.894 37.7118 654.801 37.6986C654.476 37.6655 654.311 37.5264 654.238 37.1622C654.225 37.1026 654.218 37.043 654.212 36.9834C654.198 36.8178 654.265 36.7317 654.463 36.6854C654.708 36.6192 654.986 36.5662 655.231 36.6258C655.748 36.7847 656.258 36.8642 656.735 37.0695C657.43 37.3741 658.026 37.778 658.582 38.1687C658.946 38.4204 659.317 38.6521 659.714 38.8243C660.085 39.0097 660.489 39.0892 660.893 39.1687C661.065 39.215 661.257 39.2283 661.436 39.2614C661.622 39.2945 661.794 39.3276 661.94 39.3408C662.489 39.46 663.065 39.321 663.615 39.1356C663.761 39.1025 663.906 39.0429 664.025 38.9435C664.469 38.6389 664.814 38.2548 665.217 37.9171C665.257 37.8774 665.31 37.8244 665.31 37.778C665.31 37.4403 665.515 37.235 665.668 36.9966C666.005 36.341 666.171 35.6192 666.098 34.9107C666.019 34.0365 665.588 33.2353 664.966 32.4605C664.582 32.0036 664.145 31.6261 663.714 31.2685C663.436 31.05 663.118 30.9374 662.807 30.8314C662.231 30.6262 661.608 30.4937 660.953 30.5136C659.834 30.5599 658.695 30.9175 657.615 31.4341C657.542 31.4672 657.47 31.5135 657.403 31.5599C657.172 31.732 656.986 31.8777 656.695 32.0367C656.377 32.2022 656.066 32.3943 655.701 32.4803C655 32.732 654.245 32.7386 653.556 32.7055C652.258 32.5995 651.139 32.2618 650.291 32.2155C649.728 32.1956 649.358 32.2684 648.934 32.5797L648.682 32.7982C648.596 32.871 648.523 32.9836 648.444 33.0763C648.271 33.275 648.139 33.4538 648.046 33.6326C647.854 34.0432 647.841 34.3676 647.907 34.7451C647.94 34.8577 647.993 34.9703 648.099 35.0696C648.53 35.6192 649.444 35.9503 650.324 36.1622C650.55 36.2086 650.748 36.2814 650.9 36.4933C650.98 36.5927 651.152 36.6456 651.291 36.6655C651.695 36.7317 652.112 36.8112 652.53 36.7119C652.801 36.6523 653.046 36.7516 653.304 36.7648C653.324 36.7648 653.357 36.8244 653.351 36.8443C653.311 36.9569 653.377 36.99 653.483 36.9834C653.682 36.9768 653.874 36.8377 654.066 36.9503C654.298 37.0827 654.145 37.3277 654.245 37.4999C654.351 37.6919 654.106 37.8244 654.086 38.0032C654.086 38.0297 653.973 38.0562 653.907 38.0628C653.755 38.0959 653.616 38.0959 653.311 38.1158Z" fill="#F39BA6"/>
<path d="M582.117 30.8978C581.415 30.9044 580.329 30.9971 579.303 31.3084C578.76 31.4607 578.23 31.6527 577.74 31.9044C577.369 32.0832 577.045 32.3017 576.707 32.4076C576.396 32.507 576.144 32.752 575.952 33.0434C575.819 33.2222 575.713 33.4539 575.561 33.6195C574.939 34.4009 574.495 35.3214 574.475 36.3279C574.449 36.9901 574.561 37.6391 574.654 38.2881C574.714 38.7185 574.965 39.0033 575.21 39.3013C575.535 39.6522 575.561 39.8045 575.594 40.2085C575.608 40.4535 575.68 40.5992 575.859 40.6455C576.038 40.6919 576.157 40.6654 576.422 41.0031C576.806 41.4601 577.217 41.864 577.693 42.1752C578.17 42.4732 578.687 42.6851 579.243 42.7911C579.554 42.8639 580.144 42.8176 579.952 43.0957C579.938 43.109 579.985 43.1487 580.005 43.1487C580.581 43.1752 581.17 43.1156 581.753 43.0096C582.362 42.6653 583.216 42.6322 583.885 42.3011C584.011 42.2415 584.256 42.162 584.349 42.162C584.905 42.1819 585.62 41.7514 586.183 41.7316C586.541 41.7183 586.786 41.5925 587.004 41.4203C587.209 41.268 587.448 41.1356 587.839 41.0362C588.733 40.8045 589.666 40.6257 590.626 40.6257C591.58 40.619 592.56 40.8045 593.447 41.215C594.454 41.672 595.494 42.0759 596.533 42.3209C597.474 42.5395 598.46 42.5461 599.374 42.2017C600.295 41.8839 601.149 41.3144 602.083 40.8641C603.142 40.3475 604.394 39.9635 605.573 40.235C606.029 40.3409 606.427 40.4535 606.864 40.5992C607.745 40.8707 608.552 41.321 609.374 41.6852C610.195 42.0693 611.009 42.3275 611.903 42.4534C613.698 42.7712 615.492 42.9302 617.247 42.5593C617.777 42.46 618.333 42.3938 618.83 42.2084C619.333 41.9898 619.77 41.7779 620.307 41.5726C620.684 41.4534 621.115 41.1687 621.432 40.9303C622.836 39.8244 624.393 38.7715 625.737 37.5994C626.141 37.1954 626.538 36.7848 626.829 36.3081C627.114 35.8379 627.293 35.3081 627.253 34.7784C627.22 34.242 626.962 33.7321 626.584 33.3149C626.207 32.8977 625.724 32.5599 625.214 32.2686C625.022 32.1626 624.83 32.0699 624.638 31.9772C623.777 31.5269 622.83 31.1362 621.863 30.9706C620.942 30.8117 620.015 30.7786 619.068 30.719C618.737 30.6991 618.4 30.7058 618.075 30.7256C616.757 30.8183 615.492 31.0634 614.214 31.0435C613.479 31.2157 612.698 31.4143 611.923 31.5733C611.526 31.6329 611.069 31.7587 610.744 31.7322C609.844 31.6329 609.168 31.6991 608.288 31.6527C607.817 31.613 607.135 31.3017 606.678 30.9177C606.341 30.6528 606.076 30.3945 605.99 30.1164C605.976 30.0767 605.91 29.9906 605.831 29.9111C605.751 29.8449 605.659 29.7853 605.606 29.7654C605.208 29.6661 604.871 29.4674 604.447 29.5005C603.857 29.5072 603.381 29.6528 602.732 29.5668C602.533 29.5403 602.109 29.5403 601.871 29.5204C601.487 29.5138 601.063 29.3813 600.712 29.1363C600.354 28.8979 600.083 28.5734 599.858 28.2423C599.414 27.5867 599.129 26.898 598.785 26.3021C598.242 25.3021 597.52 24.6333 596.513 24.4015C595.52 24.1433 594.348 24.2558 593.249 24.4677C592.951 24.534 592.653 24.6465 592.388 24.7591C591.52 25.216 590.812 25.759 590.269 26.5934C590.064 26.9245 589.891 27.2954 589.713 27.6861C589.375 27.8715 589.434 28.2225 589.256 28.5337C589.136 28.7456 589.024 28.9377 588.845 29.1363C588.686 29.3416 588.521 29.5403 588.295 29.7588C588.057 30.0568 587.68 30.2422 587.322 30.4343C587.137 30.4939 586.945 30.5468 586.753 30.5998L586.468 30.6726L586.196 30.6925C585.892 30.7124 585.62 30.7322 585.408 30.6991C585.196 30.6594 585.024 30.613 584.885 30.5601C584.607 30.4475 584.475 30.3084 584.441 30.123C584.435 30.0634 584.422 30.0038 584.435 29.9442C584.468 29.7787 584.653 29.7124 585.137 29.7124C585.733 29.7257 586.322 29.5535 586.812 29.4144C587.349 29.2224 587.779 28.8317 588.07 28.335C588.362 27.8251 588.58 27.2755 588.845 26.7126C589.229 25.8849 589.766 25.0372 590.547 24.4214C590.918 24.0837 591.368 23.885 591.805 23.6466L592.494 23.4082C592.726 23.3221 592.957 23.2559 593.196 23.2294L594.116 23.0705C594.428 23.044 594.732 22.9976 595.05 23.0043C595.679 22.9844 596.328 23.0307 596.97 23.2162C597.58 23.3883 598.182 23.6797 598.679 24.1035C599.182 24.5207 599.58 25.0372 599.884 25.5538C600.434 26.4742 600.818 27.4675 601.295 28.0304C601.692 28.5403 602.281 28.6463 603.043 28.5072C603.897 28.3615 605.016 28.196 606.043 28.7655C606.546 29.0635 606.904 29.4542 607.228 29.7389C607.784 30.2422 608.261 30.4939 608.91 30.5998C609.062 30.6395 609.228 30.6528 609.4 30.6528C609.572 30.6594 609.738 30.6859 609.917 30.6726C610.274 30.6395 610.625 30.6726 611.003 30.6064C611.155 30.5866 611.367 30.5667 611.46 30.5203C611.804 30.3614 612.201 30.2223 612.612 30.123C613.049 30.0237 613.499 29.9243 613.93 29.825C616.32 29.3019 618.784 29.2489 621.207 29.5999C622.684 29.825 624.154 30.2091 625.565 30.9243C626.267 31.2885 626.955 31.7388 627.545 32.401C628.134 33.0434 628.598 33.9903 628.591 34.9903C628.571 36.2286 627.982 37.2352 627.359 38.0033C626.717 38.7847 625.962 39.3741 625.26 39.884C624.366 40.5462 623.525 41.1952 622.598 41.7779C620.896 42.8308 618.962 43.6321 616.903 43.95C615.141 44.2612 613.32 44.0361 611.698 43.7447C611.499 43.7116 611.287 43.6718 611.049 43.6189C610.817 43.5725 610.592 43.5063 610.374 43.4334C609.93 43.2944 609.513 43.109 609.109 42.9235C608.307 42.5395 607.606 42.1024 606.93 41.7845C606.745 41.6918 606.553 41.6256 606.374 41.566C605.135 41.1687 604.208 41.374 602.924 42.0229C602.314 42.3209 601.699 42.705 600.97 43.0758C600.248 43.4467 599.381 43.791 598.46 43.897C596.719 44.0957 595.143 43.6255 593.752 43.0758L592.732 42.6454L592.335 42.4865L591.924 42.3673C591.368 42.2348 590.779 42.1951 590.17 42.2348C588.494 42.3408 586.726 42.9831 584.885 43.5924C583.369 44.0758 581.746 44.6254 579.899 44.5592C578.919 44.5261 577.892 44.2413 577.025 43.7182C576.157 43.2083 575.468 42.46 574.985 41.7249C574.833 41.513 574.68 41.2879 574.535 41.0561C574.382 40.831 574.23 40.5992 574.104 40.3608C573.422 39.1754 572.945 37.7782 573.005 36.3279C573.038 34.8711 573.674 33.4738 574.608 32.4407C575.058 31.9308 575.568 31.5468 576.078 31.4077C576.323 31.3282 576.747 31.1031 577.084 30.9243C578.058 30.4078 579.111 30.0899 580.15 29.772C580.846 29.5601 581.508 29.5734 582.177 29.5734C582.223 29.5734 582.309 29.6264 582.283 29.6528C582.177 29.772 582.336 29.7853 582.6 29.7919C583.09 29.7919 583.627 29.686 584.077 29.8648C584.607 30.07 584.157 30.2555 584.329 30.4607C584.501 30.6859 583.898 30.7256 583.832 30.8978C583.819 30.9177 583.574 30.9177 583.435 30.9177C583.09 30.8846 582.786 30.8581 582.117 30.8978Z" fill="#F39BA6"/>
<path d="M1186.04 52.2891C1185.92 52.4542 1185.75 52.5506 1185.6 52.6882C1185.7 52.4542 1185.78 52.1927 1185.92 52C1186.37 51.3532 1186.83 50.6926 1187.28 50.0319C1187.49 49.2474 1188.68 48.6006 1188.38 47.7335C1188.37 47.6922 1188.63 47.2518 1188.78 47.0729C1189.06 46.7426 1189.37 46.3572 1189.65 46.1921C1190.35 45.7379 1190.65 44.7883 1191.18 44.1276C1191.26 44.0175 1191.34 43.9074 1191.42 43.7973C1191.58 43.5771 1191.78 43.0954 1191.81 42.7238C1191.91 41.9118 1191.62 41.1961 1191.18 40.7006C1190.74 40.1914 1190.09 39.9299 1189.51 39.8886C1189.39 39.8886 1189.18 39.8886 1189.14 39.9024L1189 39.9575L1188.73 40.0675C1188.48 40.1776 1188.05 40.3015 1187.78 40.274C1186.3 40.0951 1184.87 40.4116 1183.43 40.2465C1182.81 40.1776 1181.97 40.0951 1181.71 39.8886C1180.95 39.3381 1180.21 39.5033 1179.44 39.751C1179.13 39.8473 1178.82 39.9162 1178.5 39.9575L1178 40.0125L1177.76 40.0262C1177.78 40.0262 1177.81 40.04 1177.85 40.0538C1177.99 40.1226 1178.06 40.2327 1178.07 40.3566C1178.09 40.4254 1178.05 40.5217 1178.05 40.5355L1178.34 40.1088C1178.67 39.6409 1179.27 39.3243 1179.49 38.8977C1179.73 38.4435 1179.57 37.9618 1179.75 37.4526C1180.06 36.558 1180.25 35.6083 1181.16 34.7413C1181.43 34.4798 1181.69 34.0118 1181.94 33.6265C1182.3 33.0897 1182.67 32.7319 1183.11 32.3465C1183.96 31.5895 1184.67 30.4885 1185.07 29.3187C1185.31 28.6167 1185.6 27.8873 1185.79 27.1992C1185.99 26.5248 1186.32 25.8779 1186.76 25.3136C1187.69 24.13 1188.33 22.8638 1188.97 21.5701C1189.7 20.125 1190.38 18.6386 1191.23 17.2623C1192.69 14.9226 1193.98 12.5003 1195.55 10.2019C1196.27 9.15591 1196.86 7.99982 1197.48 6.87126C1197.53 6.74739 1197.77 6.38955 1197.99 6.23816C1198.22 6.04548 1198.47 5.94914 1198.57 5.88032C1198.84 5.68764 1199.05 5.56378 1199.05 5.41238C1199.06 5.27475 1198.87 5.08207 1198.42 5.01326C1197.97 4.95821 1197.25 5.05454 1196.58 5.68764C1196.43 5.86656 1196.27 6.05925 1196.09 6.25193C1195.99 6.37579 1195.9 6.51342 1195.79 6.66481C1194.01 9.45869 1192.15 12.2113 1190.43 15.0327C1188.52 18.1707 1186.63 21.3499 1184.89 24.5429C1183.04 27.9286 1180.9 31.1629 1179.01 34.5073C1178.34 35.7047 1177.58 36.8745 1176.96 38.0719C1176.68 38.6087 1176.39 39.1317 1176.12 39.6547C1175.9 40.1777 1176 40.797 1176.31 41.2374C1176.6 41.6916 1177.21 41.9668 1177.67 41.9531C1178.78 41.9531 1179.88 41.9806 1180.98 42.0219C1181.8 42.0632 1182.64 42.1045 1183.47 42.1045L1188.16 42.1182H1188.75H1189.04C1189.1 42.1182 1189.1 42.1182 1189.13 42.132C1189.19 42.1457 1189.26 42.2558 1189.25 42.3247C1189.25 42.3522 1189.24 42.366 1189.22 42.3935L1189.07 42.6412L1188.77 43.1504L1188.16 44.1551L1185.9 47.9262L1181.36 55.5234L1179.22 59.0604L1178.14 60.8359L1177.88 61.2763C1177.77 61.469 1177.61 61.813 1177.63 62.1571C1177.65 62.8453 1178.11 63.4095 1178.72 63.616C1179.02 63.7261 1179.38 63.7398 1179.7 63.616C1180 63.5196 1180.29 63.2581 1180.37 63.1893L1181.14 62.5012L1182.68 61.1111C1183.7 60.189 1184.72 59.2394 1185.71 58.2897C1186.11 57.9044 1186.54 57.5465 1186.95 57.2025L1210.51 37.081L1212.47 35.4294L1213.44 34.6037L1213.93 34.1908L1214.19 33.9705C1214.35 33.8192 1214.5 33.6402 1214.6 33.42C1215.03 32.5667 1214.68 31.4794 1213.82 31.039C1213.61 30.9289 1213.38 30.8601 1213.16 30.8326L1212.84 30.7913L1212.21 30.7225L1209.66 30.4472L1204.57 29.8967L1202.02 29.6214L1201.7 29.5939L1201.68 29.7728L1201.66 29.8004C1201.65 29.8141 1201.7 29.7591 1201.69 29.7728C1201.69 29.7728 1201.62 29.7728 1201.65 29.7728C1201.7 29.8004 1201.59 29.7591 1201.84 29.8829L1202.06 29.649L1212.21 19.0652L1215.92 15.1566L1217.78 13.216L1218.72 12.2526L1219.18 11.7709L1219.43 11.5094C1219.58 11.3442 1219.71 11.1378 1219.79 10.9176C1220.04 10.2294 1219.82 9.43117 1219.24 8.97699C1218.99 8.74302 1218.51 8.61916 1218.33 8.60539L1217.82 8.52282L1215.77 8.1925L1211.67 7.53188L1203.48 6.19687C1202.48 6.03172 1201.47 5.90785 1200.47 5.79775C1200.14 5.75646 1199.74 5.78398 1199.48 5.8528C1198.86 6.00419 1198.68 6.596 1199.16 6.9676C1199.57 7.28415 1200.08 7.58693 1200.64 7.86219C1200.77 7.93101 1201.24 7.80714 1201.55 7.83467C1201.99 7.87596 1202.65 7.91724 1202.85 8.04111C1203.48 8.48152 1204.36 8.48152 1205.12 8.63291C1207.18 9.03204 1209.27 9.38989 1211.35 9.74772C1212.34 9.92664 1213.35 10.1469 1214.13 9.80278C1214.19 9.77525 1214.71 9.88535 1214.75 9.95417C1215.1 10.4496 1216.05 10.601 1216.78 10.6974C1217.06 10.7386 1217.35 10.7937 1217.66 10.8488C1217.78 10.8763 1218 10.9176 1218.06 10.9313C1217.96 10.9176 1217.83 10.8763 1217.74 10.7937C1217.55 10.6423 1217.49 10.4083 1217.56 10.2019C1217.6 10.0918 1217.67 10.0092 1217.74 9.96792C1217.81 9.91287 1217.72 10.0367 1217.7 10.078L1217.61 10.257C1217.16 11.3167 1216.44 11.9498 1215.55 12.3902C1214.81 12.748 1214.16 13.3123 1213.51 14.0005C1212.18 15.4043 1210.83 16.7944 1209.55 18.2395C1208.31 19.6158 1207.06 20.937 1205.7 22.1757C1204.21 23.5382 1202.74 24.942 1201.51 26.5386C1201.25 26.8826 1200.98 27.2129 1200.7 27.5432L1200.27 28.0387L1200 28.3553C1199.82 28.5617 1199.68 28.8232 1199.6 29.0985C1199.24 30.2133 1199.87 31.4657 1201 31.8235C1201.14 31.8648 1201.28 31.8923 1201.42 31.9199L1201.61 31.9474L1201.94 31.9887L1202.59 32.0575C1203.4 32.1538 1204.22 32.1676 1205.04 32.2089C1205.12 32.2089 1205.19 32.0988 1205.23 32.03C1205.24 32.0024 1205.12 31.9336 1205.05 31.9336L1204.22 31.8511C1204.14 31.8373 1204.04 31.8098 1204 31.7685C1203.96 31.7409 1203.98 31.6996 1203.96 31.6584C1204.58 31.6859 1205.19 31.6997 1205.81 31.7547C1206.19 31.7822 1206.44 31.9061 1206.52 32.1125C1206.63 32.4016 1207.04 32.608 1207.69 32.6218C1208.65 32.6355 1209.48 32.8695 1210.36 33.0484C1210.84 33.1448 1211.34 33.2136 1211.83 33.2686L1212.58 33.3512L1212.77 33.3787C1212.84 33.3787 1212.92 33.3925 1212.83 33.3925C1212.73 33.3787 1212.6 33.3237 1212.51 33.2549C1212.21 33.0209 1212.21 32.6768 1212.27 32.3878C1212.3 32.1814 1212.55 31.9474 1212.26 32.1814C1212.1 32.3052 1211.94 32.4429 1211.79 32.5805C1211.49 32.8558 1211.21 33.1448 1210.94 33.4475C1210.39 34.0394 1209.87 34.6449 1209.22 35.1542C1209.08 35.2643 1209 35.5395 1208.9 35.7185C1208.77 36.0075 1208.54 36.2827 1208.23 36.3791C1207 36.6956 1205.92 37.7003 1204.84 38.705C1204.46 39.0629 1203.8 39.6684 1203.81 39.7923C1203.87 40.2465 1203.43 40.6456 1202.96 41.0722C1202.35 41.609 1201.91 41.7742 1201.37 41.7742C1200.74 41.7742 1199.54 42.9027 1199.25 43.6597C1200.08 43.6046 1199.25 44.1964 1198.91 44.568C1198.48 45.036 1198.02 45.4764 1197.56 45.9306C1197.15 46.3435 1196.76 46.6738 1196.39 46.5774C1196.09 46.4949 1195.62 46.6875 1195.18 47.0867C1193.6 48.518 1191.89 49.7154 1190.23 51.0091C1186.9 53.5966 1183.74 56.4593 1180.56 59.2669C1180.12 59.666 1179.68 60.0514 1179.26 60.4643L1178.62 61.0974C1178.18 61.5103 1178.8 60.9735 1179.2 61.0974C1179.81 61.2075 1180.12 61.5653 1180.12 62.2122C1180.11 62.3636 1180.07 62.5012 1180.01 62.5838C1179.96 62.6663 1180 62.5975 1180.03 62.5425L1180.11 62.3911L1180.47 61.7993C1182.04 59.1981 1183.59 56.5693 1185.23 54.0232C1186.12 52.6331 1186.77 51.3257 1187.2 49.9356C1187.03 50.8164 1186.58 51.5734 1186.04 52.2891ZM1194.04 48.7382C1194.11 48.7657 1193.94 49.0685 1193.83 49.2475C1193.46 49.8117 1192.94 50.0595 1192.44 50.2521C1192.33 50.2934 1192.22 50.2384 1192.21 50.1696C1192.19 50.1008 1192.29 49.9218 1192.39 49.8255C1192.69 49.5089 1193.02 49.2062 1193.46 48.7933C1193.64 48.7795 1193.91 48.6832 1194.04 48.7382ZM1200.63 28.4654C1200.66 28.4378 1200.74 28.4791 1200.73 28.5204C1200.7 28.6443 1200.71 28.7681 1200.58 28.9195C1200.26 29.2636 1200.16 29.8279 1200.27 30.2546C1200.37 30.695 1200.63 31.0528 1200.89 31.3418C1200.95 31.4106 1200.56 31.3556 1200.38 31.1629C1200 30.7775 1199.64 30.1169 1199.98 29.181C1200.04 29.0709 1200.14 28.892 1200.3 28.7269C1200.48 28.5479 1200.51 28.5617 1200.63 28.4654ZM1212.22 32.9796C1212.16 32.9659 1212.11 32.897 1212.14 32.8695C1212.16 32.842 1212.26 32.7869 1212.32 32.8007L1212.98 32.897C1212.98 32.9108 1212.88 32.897 1212.84 32.8558C1212.83 32.842 1212.78 32.842 1212.76 32.8282C1212.73 32.8695 1212.72 32.9383 1212.74 32.9796C1212.77 33.0897 1213.16 33.131 1212.71 33.0897C1212.54 33.0622 1212.37 33.0209 1212.22 32.9796Z" fill="#F39BA6"/>
<path d="M80.849 321.515C80.8761 320.622 80.9196 319.257 80.9595 317.906L81.0108 315.775C81.0333 315.254 81.0658 314.75 80.9274 314.311C80.8003 313.91 80.8728 313.476 81.0086 313.051C81.0905 312.773 81.1969 312.458 81.2191 312.156L81.3095 310.152C81.3489 309.541 81.3997 308.969 81.5485 308.386C81.7398 307.618 82.0021 306.912 82.1997 306.174C82.3228 305.688 82.6789 305.424 83.0263 305.166C83.4503 304.84 83.5365 304.71 83.5503 304.194C83.5675 303.884 83.6984 303.75 83.9143 303.764C84.1489 303.79 84.2818 303.841 84.6502 303.559C85.6833 302.708 86.9061 302.106 88.1969 301.742C88.5524 301.618 89.252 301.629 88.9637 301.23C88.9487 301.204 88.9856 301.148 89.0166 301.142C89.6722 301.017 90.3369 300.968 91.0055 300.986C91.7439 301.345 92.7662 301.136 93.6031 301.346C93.7671 301.39 94.0636 301.403 94.1689 301.365C94.7854 301.113 95.701 301.439 96.3353 301.258C96.7404 301.139 97.0372 301.234 97.3208 301.405C97.5857 301.564 97.8739 301.663 98.3193 301.694L104.512 302.241C105.782 302.34 107.068 302.428 108.324 302.523C110.522 302.79 112.596 303.982 114.086 305.663C114.955 306.628 115.706 307.729 116.236 308.948C116.413 309.434 116.593 309.885 116.593 310.405C116.682 311.439 116.567 312.44 116.418 313.462C116.265 314.497 116.131 315.544 116.014 316.582C115.79 318.674 115.621 320.781 115.46 322.883C115.413 323.522 115.507 324.184 115.431 324.793C115.349 325.43 115.226 325.997 115.266 326.667C115.303 327.13 115.166 327.694 115.031 328.119C114.648 329.056 114.281 329.961 113.823 330.848C113.351 331.71 112.796 332.55 112.105 333.272C111.211 334.204 110.164 335.051 108.936 335.563C107.699 336.081 106.331 336.271 105.001 336.207C104.749 336.191 104.511 336.179 104.259 336.162C104.03 336.145 103.513 336.131 103.162 336.322C102.787 336.493 102.496 336.788 102.315 337.135C102.134 337.482 102.077 337.884 102.145 338.26C102.232 338.672 102.347 338.871 102.432 339.157C102.768 340.199 103.036 341.245 103.439 342.282C103.577 342.641 103.694 343.024 103.801 343.389C104.217 344.87 104.581 346.38 105.492 347.598L105.718 348.229L105.826 348.537C105.833 348.568 105.829 348.581 105.825 348.595C105.827 348.617 105.771 348.661 105.731 348.672C105.709 348.674 105.7 348.679 105.682 348.666C105.658 348.645 105.678 348.68 105.573 348.579C105.246 348.271 104.908 347.866 104.592 347.679C103.71 347.172 103.173 346.581 102.725 345.766C102.479 345.319 101.979 344.834 101.571 344.366C101.281 344.025 100.976 343.716 100.588 343.663C100.475 343.647 100.109 343.374 100.034 343.244C99.7387 342.733 99.2252 342.463 98.8713 342.09C98.3454 341.54 97.8822 341.137 97.2818 340.837C97.0878 340.741 96.7689 340.429 96.6403 340.226C95.812 338.891 94.6159 337.7 93.4112 336.513L92.6687 335.787L92.2975 335.424L92.1118 335.243L92.0122 335.15C91.9549 335.091 91.8939 335.045 91.8329 335C91.584 334.808 91.2931 334.665 90.9926 334.584C90.856 334.547 90.6524 334.515 90.5582 334.512L90.3013 334.487L89.2652 334.392C88.5406 334.337 87.9362 334.27 87.3292 334.159C86.7171 334.039 86.1197 333.864 85.537 333.635C85.2238 333.492 84.8709 333.361 84.6293 333.143C83.7369 332.457 82.8482 331.758 82.1064 330.893C81.8257 330.547 81.5971 330.171 81.3944 329.779C80.9449 329.681 81.0757 329.248 80.9467 328.964C80.7577 328.577 80.5477 328.213 80.4426 327.731C80.3445 327.141 80.1507 326.525 80.0772 325.898C80.0191 325.377 79.938 324.997 79.8313 324.712C79.7073 324.437 79.518 324.269 79.2485 324.183C79.1615 324.152 79.0709 324.135 78.9852 324.127C78.7334 324.11 78.6015 324.302 78.5248 324.889C78.4374 325.598 78.3863 326.389 78.5704 327.068C78.9627 328.528 79.3832 329.936 80.1406 331.208C80.7115 332.137 81.4074 332.982 82.2355 333.716C83.076 334.432 84.0299 335.024 85.0725 335.45L86.106 335.8L87.1702 336.063L88.255 336.222L89.2688 336.318L90.2293 336.422L90.4552 336.453C90.4825 336.461 90.5098 336.468 90.5371 336.475C90.5831 336.495 90.6254 336.528 90.6678 336.561L91.9575 337.895C92.7636 338.712 93.5861 339.576 94.4279 340.314C95.9408 341.635 97.3388 343.056 98.8294 344.378C99.2129 344.722 99.6102 345.07 99.9504 345.44C101.172 346.755 102.418 348.033 103.793 349.214C103.934 349.34 104.132 349.503 104.189 349.62C104.24 349.729 104.3 349.833 104.36 349.937C104.389 349.967 104.366 349.968 104.429 350.036C104.491 350.104 104.557 350.158 104.628 350.221C104.787 350.337 104.959 350.434 105.16 350.503C105.992 350.785 106.909 350.452 107.399 349.741C107.656 349.386 107.788 348.894 107.752 348.452C107.744 348.238 107.662 347.996 107.623 347.869L107.554 347.689C107.464 347.453 107.368 347.207 107.283 346.98L104.543 339.474L104.125 338.33L104.018 338.045L103.992 337.979L103.997 337.988C104.002 337.997 103.993 338.002 104.007 338.005C104.013 338.036 104.011 338.072 104.003 338.1C103.989 338.154 103.964 338.192 103.89 338.223C103.878 338.242 103.775 338.243 103.855 338.243C104.054 338.267 104.256 338.277 104.494 338.29C106.343 338.412 108.228 338.097 109.945 337.371C110.993 336.905 112.001 336.311 112.884 335.582C113.758 334.835 114.531 333.973 115.122 332.997C115.842 331.784 116.45 330.578 116.787 329.241C116.957 328.635 117.022 328.008 117.092 327.39L117.204 325.744L117.45 322.45L117.941 316.82L118.198 314.004L118.263 313.297L118.3 312.502C118.348 311.966 118.272 311.433 118.248 310.892C118.208 310.603 118.172 310.301 118.146 310.016C117.953 308.06 117.1 306.163 115.867 304.588C114.621 303.01 112.931 301.803 111.088 301.031C110.207 300.685 109.299 300.413 108.364 300.272C107.373 300.116 106.641 300.088 105.816 299.999L100.957 299.583C98.7557 299.41 96.5535 299.296 94.3537 299.146L91.6415 298.968C91.1788 298.946 90.6181 298.935 90.117 298.947C89.605 299.001 89.0816 299.014 88.5736 299.134C86.3872 299.507 84.2744 300.508 82.7594 302.064C82.5496 302.3 82.3125 302.53 82.089 302.763L81.4573 303.508C80.4359 304.779 79.7194 306.278 79.3295 307.843C79.1295 308.617 79.0315 309.447 78.9828 310.202L78.8586 312.387C78.8158 313.093 78.8287 313.756 79.0594 314.315C79.1698 314.586 79.1933 315.127 79.1741 315.554C79.1175 316.776 79.1155 318.012 78.879 319.223C78.7164 320.021 78.8053 320.755 78.7839 321.518C78.7829 321.576 78.8602 321.67 78.9035 321.645C79.0803 321.531 79.1184 321.717 79.1012 322.028C79.0591 322.595 78.821 323.182 78.9611 323.725C79.1302 324.378 79.5152 323.925 79.7768 324.178C80.0621 324.452 80.2884 323.744 80.5586 323.692C80.5982 323.68 80.6514 323.373 80.6767 323.196C80.7392 322.745 80.7747 322.366 80.849 321.515Z" fill="#F39BA6"/>
<path d="M96.8798 328.46C97.1677 328.479 97.4452 328.399 97.6813 328.228C98.543 327.581 99.38 326.97 100.109 326.434C102.259 324.858 104.123 323.505 105.451 322.126C106.931 320.59 107.688 319.079 107.814 317.378C107.934 315.727 107.482 314.164 106.541 312.975C105.591 311.768 104.204 311.045 102.655 310.923C101.494 310.831 100.405 311.125 99.4177 311.776C98.9181 312.11 98.4585 312.514 98.0402 313.01C97.7029 312.466 97.3063 311.979 96.8704 311.584C95.985 310.79 94.9548 310.346 93.7934 310.254C92.2362 310.137 90.7662 310.651 89.6421 311.704C88.5304 312.738 87.8486 314.218 87.7282 315.869C87.6018 317.57 88.1187 319.165 89.3569 320.91C90.4628 322.465 92.0924 324.088 93.9973 325.967C94.6452 326.609 95.379 327.34 96.1328 328.106C96.3334 328.314 96.6007 328.436 96.8798 328.46Z" fill="#F39BA6"/>
<path d="M96.8798 328.46C97.1677 328.479 97.4452 328.399 97.6813 328.228C98.543 327.581 99.38 326.97 100.109 326.434C102.259 324.858 104.123 323.505 105.451 322.126C106.931 320.59 107.688 319.079 107.814 317.378C107.934 315.727 107.482 314.164 106.541 312.975C105.591 311.768 104.204 311.045 102.655 310.923C101.494 310.831 100.405 311.125 99.4177 311.776C98.9181 312.11 98.4585 312.514 98.0402 313.01C97.7029 312.466 97.3063 311.979 96.8704 311.584C95.985 310.79 94.9548 310.346 93.7934 310.254C92.2362 310.137 90.7662 310.651 89.6421 311.704C88.5304 312.738 87.8486 314.218 87.7282 315.869C87.6018 317.57 88.1187 319.165 89.3569 320.91C90.4628 322.465 92.0924 324.088 93.9973 325.967C94.6452 326.609 95.379 327.34 96.1328 328.106C96.3334 328.314 96.6007 328.436 96.8798 328.46Z" fill="#F39BA6"/>
<path d="M98.9572 329.455C99.224 329.197 99.6353 328.81 100.042 328.413C100.258 328.208 100.469 327.994 100.676 327.793C100.833 327.645 101 327.514 101.03 327.265C101.061 327.04 101.227 326.967 101.44 326.936C101.569 326.919 101.729 326.896 101.823 326.819C102.239 326.44 102.664 326.056 103.086 325.686C103.371 325.44 103.643 325.191 103.791 324.828C103.885 324.59 104.121 324.58 104.357 324.548C104.646 324.508 104.666 324.404 104.595 324.041C104.546 323.815 104.592 323.754 104.762 323.829C104.923 323.909 105.064 324.013 105.23 323.859C105.7 323.414 106.183 322.951 106.604 322.419C106.725 322.269 107.008 322.059 106.611 321.872C106.593 321.86 106.563 321.808 106.571 321.803C106.749 321.55 106.921 321.289 107.075 321.016C107.547 320.893 107.51 320.349 107.803 320.076C107.862 320.019 107.917 319.894 107.882 319.834C107.717 319.467 108.098 319.167 107.933 318.823C107.836 318.613 107.928 318.514 108.11 318.409C108.266 318.319 108.371 318.2 108.404 317.997C108.545 317.061 108.537 316.107 108.319 315.17C108.173 314.597 107.954 314.019 107.599 313.543C106.956 312.69 106.242 311.913 105.324 311.403C104.796 311.108 104.192 310.983 103.613 310.959C103.388 310.95 103.19 310.926 102.979 310.841C102.137 310.483 101.128 310.454 100.215 310.773C99.2971 311.084 98.4998 311.683 97.8704 312.393C97.7951 312.482 97.7298 312.589 97.6782 312.7L98.4525 312.761C98.3292 312.647 98.2059 312.534 98.1259 312.395C97.9859 312.153 97.8855 311.899 97.6119 311.745C97.4353 311.639 97.2744 311.42 97.1817 311.22C96.736 310.288 95.6488 309.865 94.6769 309.721C94.0303 309.621 93.3907 309.714 92.7684 309.796C92.1461 309.878 91.5028 309.984 90.8949 310.231C90.7809 310.273 90.667 310.316 90.5718 310.371C90.1191 310.667 89.7774 311.095 89.3794 311.406C88.9937 311.698 88.582 312.005 88.321 312.433C88.2311 312.577 88.1189 312.723 88.0103 312.855C87.5587 313.392 87.1375 314.063 87.4149 314.803C87.3261 315.189 87.2646 315.583 87.2304 315.984C87.2151 316.177 87.1492 316.423 87.2392 316.579C87.4806 317.017 87.4684 317.336 87.2583 317.792C87.1478 318.041 87.2162 318.359 87.2386 318.658C87.2556 318.867 87.3037 319.071 87.5755 319.122C87.6525 319.135 87.7748 319.307 87.7615 319.384C87.7033 319.683 87.9596 319.847 88.0399 320.066C88.1579 320.39 88.3189 320.609 88.6358 320.738C88.7414 320.781 88.8364 320.945 88.8345 321.062C88.8677 321.84 89.2947 322.459 89.7376 323.046C90.4712 323.997 91.28 324.858 92.1554 325.634C92.2737 325.739 92.402 325.861 92.4733 326.005C92.7397 326.486 93.1369 326.834 93.5218 327.201C93.6738 327.344 93.7875 327.521 93.9134 327.679C94.2379 327.561 94.1264 327.868 94.2274 327.983C94.362 328.136 94.5632 328.205 94.6832 328.412C94.7532 328.534 94.8542 328.649 94.9675 328.745C95.0995 328.853 95.2278 328.976 95.3548 329.076C95.742 329.406 96.1354 329.468 96.3869 329.403C96.6471 329.334 96.779 329.142 96.8349 328.879C96.8518 328.789 96.8688 328.698 96.8771 328.612C96.8933 328.36 96.8233 328.239 96.6777 328.127C96.4948 327.99 96.485 327.753 96.2138 327.563C95.7 327.213 95.4173 326.684 95.0667 326.217C94.5501 325.522 94.0211 324.846 93.3983 324.247C92.9984 323.854 92.6158 323.452 92.2369 323.035C91.873 322.645 91.5906 322.196 91.296 321.766C91.0314 321.387 90.7877 320.985 90.4948 320.658C89.9712 320.071 89.6345 319.388 89.2832 318.759C89.1882 318.595 89.1105 318.42 89.0861 318.238C88.9889 317.59 88.9801 316.994 88.8943 316.386C88.8903 316.319 88.8762 316.234 88.9232 316.196C89.2916 315.914 89.1982 315.552 89.286 315.224C89.4993 314.374 89.8828 313.598 90.452 313.004C91.1384 312.273 92.0717 311.849 93.0488 311.782C93.6738 311.744 94.2549 311.87 94.8136 311.998C95.1811 312.075 95.4427 312.328 95.7253 312.557C96.1348 312.887 96.526 313.284 96.8457 313.758L97.9633 315.434L99.1498 313.929C99.2497 313.802 99.3633 313.678 99.4732 313.569C100.37 312.682 101.456 312.263 102.601 312.386C102.678 312.4 102.76 312.422 102.838 312.457C103.81 312.901 104.633 313.326 105.263 314.117C105.849 314.853 106.111 315.845 106.123 316.866C106.133 317.564 106.07 318.235 105.828 318.895C105.623 319.441 105.314 319.965 104.938 320.494C104.537 321.06 103.98 321.555 103.544 322.2C103.412 322.391 103.233 322.541 103.072 322.703C102.22 323.507 101.298 324.27 100.378 325.056C100.152 325.244 99.9763 325.46 99.9531 325.82C99.9415 326 99.8047 326.183 99.6725 326.294C99.2895 326.631 98.9364 327.019 98.4461 327.21C98.118 327.342 97.9655 327.638 97.737 327.862C97.7247 327.88 97.7438 327.973 97.7761 327.989C97.9167 328.093 97.8861 328.18 97.7922 328.257C97.5783 328.427 97.3037 328.331 97.1049 328.527C96.8095 328.755 97.0318 329.1 96.8917 329.378C96.6585 329.674 97.266 329.866 97.401 330.1C97.4123 330.139 97.7384 330.124 97.9093 330.06C98.0988 330.008 98.2821 329.926 98.5072 329.796C98.5938 329.746 98.7917 329.608 98.804 329.59C98.8286 329.553 98.8929 329.504 98.9572 329.455Z" fill="#F39BA6"/>
<path d="M32.3415 57.8772C32.3168 58.0821 32.222 58.2481 32.1597 58.443C32.1261 58.1922 32.0669 57.9245 32.0897 57.6888C32.1596 56.9015 32.2226 56.1023 32.2856 55.3031C32.0722 54.5205 32.7857 53.3616 32.0899 52.7621C32.0574 52.7332 32.0637 52.221 32.1053 51.9904C32.1786 51.5667 32.26 51.0747 32.4158 50.794C32.7966 50.0498 32.584 49.076 32.7066 48.2423C32.7231 48.1057 32.7395 47.9691 32.756 47.8324C32.777 47.566 32.7149 47.0457 32.5529 46.7101C32.2304 45.9587 31.6223 45.4834 30.9931 45.2745C30.3571 45.0537 29.6661 45.1507 29.1449 45.4039C29.0376 45.4659 28.8588 45.5691 28.8299 45.6017L28.7383 45.7182L28.5549 45.9511C28.3954 46.1703 28.0879 46.491 27.8357 46.6047C26.4709 47.1861 25.3897 48.1759 24.0556 48.7554C23.4848 49.0055 22.7165 49.3538 22.3868 49.3057C21.456 49.2075 20.8949 49.7221 20.3513 50.322C20.1372 50.5568 19.8975 50.7747 19.644 50.9687L19.2425 51.2641L19.0348 51.3999C19.0587 51.3861 19.0894 51.3843 19.132 51.3756C19.2856 51.3663 19.4002 51.4273 19.4741 51.5277C19.5204 51.5804 19.5328 51.6845 19.5397 51.6964L19.5767 51.1824C19.6288 50.612 19.995 50.0351 19.9724 49.5555C19.9479 49.0452 19.5759 48.7037 19.4763 48.1732C19.2912 47.2471 18.9832 46.3283 19.3363 45.1233C19.4439 44.7592 19.4364 44.2232 19.4583 43.7656C19.4998 43.1218 19.6428 42.6261 19.8315 42.0721C20.192 40.9899 20.2493 39.6855 20.01 38.4728C19.8736 37.741 19.7592 36.9649 19.582 36.2726C19.4117 35.5922 19.3743 34.8668 19.4736 34.1579C19.6923 32.665 19.6074 31.2519 19.5208 29.808C19.4299 28.1918 19.2708 26.5673 19.3216 24.9488C19.4152 22.1931 19.3244 19.4485 19.534 16.6735C19.6308 15.4098 19.5652 14.1127 19.5373 12.8257C19.5231 12.6909 19.5468 12.264 19.6618 12.0228C19.7681 11.7389 19.9345 11.5316 19.9835 11.4239C20.1255 11.1194 20.2424 10.9089 20.1667 10.7778C20.1098 10.6517 19.8466 10.5811 19.4189 10.7486C19.0099 10.9212 18.4264 11.3693 18.1708 12.2479C18.1292 12.4786 18.0825 12.728 18.0239 12.9843C18.0024 13.1398 17.9877 13.3072 17.9681 13.4933C17.8274 16.8006 17.5947 20.1134 17.5155 23.417C17.4277 27.0911 17.3844 30.7871 17.4672 34.4263C17.5629 38.2805 17.3207 42.1551 17.3599 45.9942C17.3746 47.3683 17.304 48.7599 17.3663 50.1065C17.3963 50.709 17.4075 51.3064 17.4306 51.897C17.5014 52.46 17.8946 52.9482 18.3889 53.1713C18.8663 53.4201 19.5283 53.3558 19.9267 53.1099C20.8802 52.5593 21.8475 52.0327 22.8217 51.5179C23.5575 51.1408 24.3052 50.7568 25.0203 50.3439L29.0916 48.0092L29.6041 47.7133L29.8545 47.5688C29.9021 47.5412 29.9021 47.5412 29.9329 47.5394C29.9993 47.5169 30.1139 47.5779 30.1364 47.6444C30.1502 47.6682 30.1451 47.687 30.147 47.7177L30.1398 48.008L30.1322 48.6003L30.1101 49.7732L30.0409 54.1676L29.9062 63.0178L29.8153 67.1546L29.7733 69.2289L29.7671 69.7411C29.768 69.963 29.7971 70.3435 29.9929 70.6277C30.3489 71.2168 31.0364 71.4715 31.664 71.3475C31.9813 71.2915 32.298 71.1245 32.5102 70.8589C32.7243 70.6241 32.8438 70.2531 32.8809 70.1523L33.2043 69.1709L33.8442 67.1964C34.2652 65.8886 34.6724 64.5569 35.0557 63.239C35.2087 62.7057 35.3993 62.1825 35.5849 61.6781L45.9296 32.4713L46.7963 30.0638L47.2297 28.8601L47.4404 28.2617L47.5567 27.9402C47.6241 27.7265 47.6657 27.4959 47.639 27.257C47.5819 26.3047 46.7403 25.5351 45.7692 25.5872C45.5354 25.5951 45.2983 25.6525 45.0938 25.7388L44.7991 25.8613L44.2164 26.1183L41.8737 27.1529L37.1884 29.2223L34.8458 30.257L34.5578 30.3915L34.6235 30.5602L34.6253 30.5909C34.6203 30.6097 34.6404 30.5345 34.6354 30.5533C34.6354 30.5533 34.5758 30.5877 34.5996 30.5739C34.6611 30.5702 34.5451 30.5895 34.8216 30.5729L34.8952 30.2602L38.3877 16.0228L39.6516 10.7798L40.2903 8.1702L40.6192 6.86789L40.7835 6.21677L40.8673 5.86644C40.9159 5.64771 40.9199 5.407 40.8813 5.175C40.7518 4.45518 40.162 3.87395 39.4343 3.76964C39.1028 3.69088 38.6236 3.82449 38.4618 3.90203L37.9795 4.08513L36.0384 4.8244L32.1563 6.30296L24.3969 9.2413C23.4442 9.60062 22.5122 9.9957 21.587 10.4027C21.2803 10.5321 20.9484 10.7555 20.7564 10.9459C20.2957 11.3866 20.4367 11.9886 21.0396 12.0696C21.5555 12.1373 22.1479 12.1449 22.7742 12.1011C22.9159 12.0988 23.2592 11.7575 23.5471 11.6231C23.9491 11.4386 24.5419 11.1441 24.7707 11.155C25.5392 11.2199 26.302 10.7794 27.0333 10.5321C29.0207 9.84551 31.0113 9.10944 32.99 8.38024C33.9376 8.03972 34.9179 7.72806 35.4252 7.03784C35.4591 6.98648 35.9671 6.82033 36.0373 6.85928C36.583 7.11633 37.4811 6.77263 38.1609 6.49134C38.4319 6.38259 38.7097 6.28574 38.9995 6.18203C39.1205 6.14393 39.3318 6.0696 39.3864 6.05399C39.2961 6.09024 39.1682 6.11641 39.0435 6.09307C38.8009 6.0583 38.6362 5.8832 38.5926 5.67C38.5733 5.55401 38.5916 5.44808 38.6306 5.37792C38.6626 5.29583 38.653 5.44442 38.6498 5.49394L38.6678 5.69018C38.8043 6.83504 38.5011 7.74114 37.9465 8.56984C37.4818 9.25134 37.2038 10.0635 36.9877 10.9828C36.5334 12.8661 36.0604 14.7443 35.6745 16.6358C35.2899 18.447 34.8659 20.2175 34.3052 21.9714C33.6993 23.8946 33.1259 25.8467 32.8633 27.8418C32.8089 28.2705 32.7356 28.6942 32.6624 29.1179L32.5406 29.7603L32.4605 30.1721C32.4088 30.4403 32.4204 30.7356 32.4865 31.0152C32.734 32.1596 33.9085 32.9277 35.0648 32.6733C35.2046 32.6402 35.3376 32.5953 35.4705 32.5503L35.6511 32.4778L35.9579 32.3484L36.5524 32.0846C37.3038 31.762 38.0259 31.361 38.7498 30.9908C38.8213 30.9495 38.8258 30.8197 38.8271 30.7395C38.8253 30.7088 38.6836 30.7111 38.624 30.7455L37.8676 31.0869C37.7892 31.1163 37.692 31.1406 37.6356 31.1254C37.5861 31.1223 37.5773 31.0796 37.5448 31.0508C38.0949 30.7649 38.6263 30.4741 39.1901 30.2121C39.5376 30.0432 39.8141 30.0266 39.9888 30.1641C40.2287 30.3594 40.6895 30.3317 41.2566 30.0202C42.0978 29.5504 42.9299 29.3402 43.7822 29.0547C44.2476 28.8973 44.7111 28.7091 45.1677 28.5091L45.8526 28.209L46.0332 28.1365C46.0928 28.1021 46.1712 28.0727 46.0877 28.1209C45.9974 28.1571 45.8626 28.1714 45.7448 28.16C45.3656 28.1087 45.1935 27.8108 45.1086 27.5261C45.0292 27.3335 45.1268 27.007 44.9935 27.3541C44.9124 27.544 44.8501 27.7389 44.7878 27.9338C44.6632 28.3236 44.5693 28.7115 44.4824 29.1113C44.3015 29.8991 44.1514 30.685 43.8458 31.4495C43.7816 31.6137 43.8478 31.8933 43.8538 32.0964C43.8791 32.4155 43.8261 32.764 43.6001 33.0057C42.6976 33.8923 42.2583 35.3061 41.8309 36.7129C41.6761 37.2155 41.4068 38.0702 41.4806 38.1706C41.7554 38.5364 41.5736 39.1023 41.3817 39.7058C41.1256 40.4734 40.8267 40.8366 40.3619 41.105C39.8136 41.4216 39.3409 42.9976 39.4691 43.7977C40.1567 43.3371 39.7375 44.2625 39.6253 44.7564C39.4898 45.3749 39.3048 45.9903 39.1386 46.6107C38.9874 47.1747 38.8188 47.6535 38.4488 47.7559C38.1453 47.8358 37.8364 48.2366 37.6545 48.8024C36.9995 50.8334 36.1203 52.7237 35.3249 54.6767C33.7342 58.5828 32.4361 62.6379 31.0866 66.659C30.9048 67.2248 30.716 67.7788 30.553 68.3497L30.3213 69.2145C30.1463 69.7923 30.4143 69.0178 30.8219 68.9255C31.4014 68.718 31.8544 68.8697 32.1778 69.4299C32.2416 69.5679 32.2747 69.7077 32.2683 69.8067C32.2619 69.9057 32.2632 69.8255 32.2595 69.7641L32.2553 69.5917L32.2694 68.9003C32.3275 65.8631 32.36 62.8089 32.5053 59.785C32.585 58.1338 32.4915 56.6781 32.166 55.261C32.4634 56.1064 32.4485 56.989 32.3415 57.8772ZM37.491 50.8039C37.5644 50.7933 37.5728 51.1381 37.5669 51.3481C37.5272 52.0226 37.1982 52.4986 36.8654 52.9133C36.7907 53.0041 36.6678 53.0114 36.6215 52.9587C36.5752 52.906 36.5692 52.7029 36.6044 52.5713C36.7084 52.1457 36.843 51.7184 37.018 51.1406C37.166 51.0392 37.3562 50.8182 37.491 50.8039ZM33.0639 29.9508C33.074 29.9132 33.1661 29.9077 33.1748 29.9503C33.2129 30.0714 33.2867 30.1718 33.2432 30.3717C33.1411 30.828 33.3399 31.3648 33.6486 31.6793C33.9522 32.0125 34.3576 32.1916 34.7286 32.3112C34.8107 32.3433 34.4494 32.4883 34.1981 32.4109C33.6717 32.2698 33.0314 31.8766 32.8615 30.8941C32.8541 30.7712 32.8481 30.5681 32.9086 30.3425C32.9741 30.0981 33.0048 30.0962 33.0639 29.9508ZM45.3569 28.0661C45.3023 28.0817 45.2202 28.0496 45.2303 28.012C45.2404 27.9744 45.2963 27.8786 45.3508 27.863L45.9711 27.6161C45.978 27.628 45.8877 27.6643 45.8313 27.6492C45.8125 27.6441 45.7767 27.6648 45.746 27.6666C45.7428 27.7161 45.7653 27.7826 45.8098 27.8046C45.8887 27.8862 46.243 27.7293 45.841 27.9137C45.6723 27.9794 45.5086 28.0262 45.3569 28.0661Z" fill="#F39BA6"/>
<path d="M1274.09 266.157C1274.09 265.667 1274.17 265.178 1274.19 264.677C1274.35 263.053 1274.75 261.407 1275.53 259.894C1275.71 259.571 1275.87 259.227 1276.07 258.904C1276.52 258.292 1277.03 257.725 1277.61 257.247C1277.71 257.158 1277.84 257.091 1277.9 256.968C1278.22 256.368 1278.82 256.056 1279.37 255.734C1279.94 255.4 1280.5 255.022 1281.09 254.733C1281.36 254.588 1281.63 254.421 1281.97 254.321C1282.28 254.221 1282.61 254.11 1282.97 254.221C1283.19 254.276 1283.46 254.165 1283.68 254.054C1284.05 253.865 1284.44 253.898 1284.83 253.932C1285.69 254.065 1286.57 253.965 1287.43 254.176C1287.72 254.254 1288 254.354 1288.28 254.454C1288.38 254.488 1288.48 254.555 1288.58 254.555C1289.3 254.577 1289.91 254.988 1290.56 255.233C1291.59 255.589 1292.4 256.357 1293.24 257.013C1294.49 258.07 1295.61 259.327 1296.36 260.817C1296.55 261.229 1296.72 261.652 1296.89 262.074C1297 262.519 1297.12 262.942 1297.21 263.409C1297.41 264.766 1296.95 266.057 1296.32 267.102C1296.11 267.458 1295.94 267.836 1295.71 268.17C1295.08 269.082 1294.15 269.65 1293.38 270.362C1292.79 270.907 1292.1 271.307 1291.39 271.663C1291.16 271.774 1290.9 271.874 1290.67 271.975C1289.91 272.342 1289.12 272.642 1288.31 272.876C1287.37 273.154 1286.4 273.354 1285.38 273.376C1284.25 273.398 1283.02 273.154 1282.01 272.431C1280.83 271.641 1280.23 270.15 1279.95 269.004C1279.35 267.013 1279.22 264.811 1279.83 262.686C1279.93 262.341 1280.11 262.008 1280.27 261.685C1280.43 261.362 1280.71 261.095 1280.94 260.828C1281.23 260.561 1281.53 260.306 1281.81 260.039C1282.15 259.827 1282.41 259.505 1282.79 259.36C1283.86 258.748 1285.22 258.782 1286.3 259.238C1287.05 259.594 1287.73 260.027 1288.34 260.539C1288.58 260.751 1288.84 260.94 1289.09 261.129C1289.32 261.351 1289.55 261.563 1289.79 261.796C1289.95 261.963 1290.07 262.219 1290.18 262.43C1290.62 263.342 1290.59 264.499 1290.02 265.3C1289.95 265.389 1289.85 265.445 1289.78 265.512C1288.98 266.201 1287.97 266.435 1287.02 266.635C1286.77 266.68 1286.55 266.791 1286.32 266.846C1286.26 266.858 1286.14 266.791 1286.14 266.757C1286.14 266.635 1286.13 266.479 1286.17 266.413C1286.24 266.312 1286.35 266.257 1286.46 266.224C1287 266.079 1287.53 265.89 1288.01 265.656C1288.21 265.556 1288.39 265.445 1288.56 265.322C1289.03 265.011 1289.34 264.644 1289.4 264.277C1289.58 263.598 1288.76 262.519 1287.91 261.796C1286.52 260.55 1284.59 259.905 1283.09 260.728C1282.95 260.828 1282.81 260.929 1282.68 261.04C1282.55 261.151 1282.46 261.307 1282.34 261.418C1281.24 262.541 1280.96 264.421 1281.09 266.168C1281.17 267.058 1281.32 267.948 1281.58 268.826C1281.78 269.783 1282.07 270.406 1282.59 270.94C1283.24 271.619 1284.26 271.975 1285.37 271.975C1286.98 271.975 1288.65 271.418 1290.17 270.651C1291.68 269.883 1293.11 268.893 1294.24 267.636C1295.37 266.357 1296.2 264.766 1295.74 263.22C1295.36 261.585 1294.42 260.105 1293.2 258.893C1291.41 257.18 1289.09 255.912 1286.61 255.522C1285.73 255.355 1284.84 255.444 1283.98 255.522C1283.16 255.656 1282.41 255.812 1281.62 256.179C1281.47 256.245 1281.3 256.301 1281.14 256.379C1280.1 256.891 1279.15 257.536 1278.35 258.303C1277.72 258.926 1277.2 259.649 1276.77 260.45C1276.39 261.262 1276.06 262.119 1275.85 263.031C1275.48 264.488 1275.4 266.023 1275.37 267.558C1275.37 268.359 1275.38 269.149 1275.4 269.95C1275.4 270.172 1275.35 270.395 1275.27 270.617C1275.22 270.762 1275.08 270.907 1274.84 270.884C1274.62 270.873 1274.49 270.762 1274.46 270.595C1274.35 269.994 1274.16 269.394 1274.13 268.782C1274.01 267.914 1274.06 267.036 1274.09 266.157Z" fill="#F39BA6"/>
<path d="M1284.66 287.871C1284.65 287.826 1284.65 287.782 1284.64 287.726C1284.6 287.57 1284.65 287.415 1284.68 287.27C1284.69 287.237 1284.65 287.203 1284.66 287.17C1284.68 287.103 1284.72 287.036 1284.74 286.97C1284.74 286.959 1284.77 286.947 1284.73 286.936C1284.47 286.87 1284.55 286.814 1284.55 286.758C1284.55 286.703 1284.46 286.636 1284.43 286.569C1284.39 286.514 1284.23 286.447 1284.52 286.402C1284.6 286.391 1284.55 286.358 1284.47 286.336C1284.35 286.291 1284.37 286.269 1284.44 286.235C1284.58 286.158 1284.39 286.08 1284.44 286.002C1284.45 285.98 1284.48 285.946 1284.49 285.924C1284.5 285.913 1284.54 285.902 1284.52 285.891C1284.32 285.824 1284.5 285.768 1284.44 285.702C1284.34 285.601 1284.53 285.512 1284.56 285.412C1284.62 285.268 1284.6 285.112 1284.62 284.967C1284.63 284.89 1284.63 284.812 1284.65 284.723C1284.67 284.611 1284.7 284.5 1284.72 284.4C1284.72 284.367 1284.66 284.322 1284.63 284.289C1284.56 284.189 1284.79 284.1 1284.7 284C1284.64 283.922 1284.68 283.855 1284.73 283.777C1284.74 283.755 1284.78 283.733 1284.79 283.71C1284.82 283.632 1284.83 283.555 1284.84 283.477C1284.84 283.388 1284.83 283.299 1284.82 283.21C1284.8 283.11 1284.82 283.01 1284.8 282.898C1284.78 282.776 1284.78 282.665 1284.72 282.542C1284.6 282.342 1284.7 282.153 1284.7 281.964C1284.7 281.897 1284.75 281.842 1284.88 281.786C1285.03 281.719 1284.96 281.652 1284.89 281.586C1284.79 281.474 1284.82 281.374 1284.92 281.274C1284.98 281.207 1285.06 281.13 1285.07 281.063C1285.08 281.007 1284.99 280.941 1284.97 280.885C1284.96 280.863 1284.98 280.84 1285.02 280.818C1285.14 280.74 1285.38 280.662 1285.34 280.573C1285.34 280.562 1285.38 280.551 1285.39 280.551C1285.54 280.462 1285.68 280.373 1285.81 280.273C1285.84 280.251 1285.78 280.229 1285.79 280.195C1285.79 280.184 1285.9 280.184 1285.92 280.184C1286.04 280.195 1286.2 280.195 1286.25 280.206C1286.33 280.217 1286.36 280.229 1286.36 280.24C1286.36 280.295 1286.35 280.362 1286.35 280.418C1286.35 280.44 1286.36 280.462 1286.35 280.496C1286.34 280.562 1286.33 280.629 1286.33 280.696C1286.33 280.818 1286.31 280.941 1286.33 281.074C1286.36 281.274 1286.3 281.474 1286.26 281.675C1286.25 281.719 1286.32 281.764 1286.32 281.797C1286.24 282.164 1286.36 282.542 1286.32 282.909C1286.31 283.032 1286.24 283.143 1286.23 283.265C1286.21 283.443 1286.23 283.61 1286.22 283.788C1286.21 283.966 1286.16 284.133 1286.13 284.311C1286.1 284.489 1286.07 284.667 1286.05 284.845C1286.03 285.023 1286.04 285.201 1286.02 285.368C1285.98 285.624 1285.93 285.868 1285.9 286.124C1285.88 286.213 1285.96 286.302 1285.97 286.402C1285.98 286.491 1285.95 286.569 1285.94 286.658C1285.94 286.68 1285.93 286.692 1285.93 286.714C1285.95 286.836 1286 286.947 1286 287.07C1286.01 287.259 1286.02 287.448 1285.96 287.637C1285.92 287.782 1285.94 287.937 1285.94 288.093C1285.94 288.171 1285.94 288.249 1285.92 288.327C1285.91 288.349 1285.84 288.371 1285.75 288.382C1285.69 288.393 1285.55 288.405 1285.31 288.394C1285.08 288.382 1284.97 288.371 1284.94 288.349C1284.85 288.282 1284.7 288.227 1284.67 288.16C1284.64 288.038 1284.67 287.96 1284.66 287.871C1284.67 287.871 1284.67 287.871 1284.66 287.871Z" fill="#F39BA6"/>
<path d="M1304.97 281.919C1304.93 281.897 1304.89 281.864 1304.85 281.841C1304.7 281.763 1304.6 281.63 1304.5 281.496C1304.48 281.463 1304.43 281.474 1304.4 281.441C1304.36 281.385 1304.33 281.307 1304.29 281.241C1304.28 281.229 1304.29 281.196 1304.26 281.229C1304.04 281.374 1304.05 281.274 1304 281.241C1303.95 281.196 1303.85 281.218 1303.77 281.207C1303.7 281.196 1303.55 281.274 1303.69 281.018C1303.74 280.94 1303.68 280.962 1303.61 281.007C1303.5 281.074 1303.49 281.04 1303.5 280.962C1303.54 280.807 1303.35 280.896 1303.31 280.807C1303.3 280.773 1303.29 280.74 1303.29 280.707C1303.29 280.696 1303.3 280.662 1303.28 280.673C1303.09 280.785 1303.17 280.595 1303.08 280.595C1302.94 280.595 1302.98 280.395 1302.92 280.306C1302.84 280.162 1302.71 280.073 1302.6 279.961C1302.55 279.895 1302.48 279.839 1302.42 279.772C1302.35 279.683 1302.29 279.583 1302.2 279.494C1302.18 279.472 1302.1 279.494 1302.06 279.483C1301.93 279.472 1302.01 279.227 1301.88 279.227C1301.78 279.227 1301.75 279.138 1301.71 279.06C1301.7 279.038 1301.71 278.982 1301.7 278.96C1301.65 278.893 1301.6 278.827 1301.53 278.771C1301.47 278.704 1301.38 278.66 1301.3 278.604C1301.21 278.537 1301.13 278.46 1301.04 278.404C1300.93 278.337 1300.84 278.259 1300.7 278.237C1300.47 278.193 1300.38 277.992 1300.22 277.848C1300.18 277.803 1300.14 277.725 1300.19 277.581C1300.23 277.425 1300.12 277.436 1300.02 277.436C1299.87 277.447 1299.8 277.358 1299.79 277.214C1299.78 277.114 1299.77 277.014 1299.71 276.958C1299.67 276.913 1299.57 276.936 1299.5 276.925C1299.48 276.913 1299.48 276.88 1299.48 276.847C1299.49 276.691 1299.57 276.457 1299.47 276.424C1299.45 276.424 1299.48 276.379 1299.48 276.368C1299.49 276.201 1299.5 276.023 1299.48 275.857C1299.47 275.812 1299.42 275.834 1299.4 275.812C1299.4 275.812 1299.43 275.723 1299.45 275.701C1299.52 275.601 1299.61 275.467 1299.65 275.434C1299.71 275.378 1299.74 275.367 1299.75 275.367C1299.82 275.412 1299.89 275.478 1299.94 275.523L1300.01 275.567L1300.17 275.723C1300.28 275.812 1300.37 275.912 1300.49 275.979C1300.69 276.09 1300.81 276.279 1300.96 276.435C1300.99 276.468 1301.07 276.446 1301.09 276.48C1301.35 276.791 1301.73 276.947 1302 277.225C1302.09 277.314 1302.15 277.447 1302.24 277.536C1302.37 277.67 1302.52 277.77 1302.65 277.903C1302.78 278.037 1302.89 278.182 1303.01 278.326L1303.4 278.749C1303.54 278.882 1303.68 279.005 1303.81 279.138C1304 279.338 1304.17 279.561 1304.36 279.75C1304.43 279.817 1304.55 279.828 1304.63 279.883C1304.7 279.939 1304.75 280.017 1304.82 280.084C1304.83 280.095 1304.84 280.117 1304.85 280.128C1304.96 280.195 1305.08 280.239 1305.18 280.317C1305.34 280.44 1305.51 280.551 1305.62 280.729C1305.71 280.873 1305.85 280.951 1305.97 281.051C1306.04 281.107 1306.11 281.163 1306.15 281.229C1306.16 281.252 1306.13 281.318 1306.09 281.396C1306.06 281.452 1305.98 281.563 1305.82 281.741C1305.66 281.908 1305.57 281.986 1305.55 281.986C1305.44 282.019 1305.31 282.075 1305.23 282.064C1305.08 282.053 1305.04 281.975 1304.97 281.919Z" fill="#F39BA6"/>
<path d="M1311.94 264.189C1311.9 264.2 1311.86 264.2 1311.8 264.211C1311.64 264.244 1311.49 264.2 1311.34 264.166C1311.31 264.155 1311.28 264.2 1311.24 264.189C1311.18 264.166 1311.11 264.133 1311.04 264.1C1311.03 264.1 1311.02 264.066 1311.01 264.111C1310.94 264.367 1310.89 264.278 1310.83 264.278C1310.77 264.278 1310.71 264.367 1310.64 264.4C1310.59 264.433 1310.52 264.6 1310.48 264.311C1310.47 264.222 1310.43 264.278 1310.41 264.355C1310.37 264.478 1310.33 264.456 1310.31 264.389C1310.24 264.244 1310.15 264.433 1310.08 264.389C1310.05 264.378 1310.02 264.344 1310 264.333C1309.99 264.322 1309.98 264.289 1309.96 264.311C1309.89 264.511 1309.84 264.322 1309.78 264.389C1309.68 264.489 1309.59 264.3 1309.49 264.255C1309.34 264.2 1309.19 264.211 1309.04 264.189C1308.96 264.177 1308.89 264.166 1308.8 264.155C1308.69 264.133 1308.59 264.088 1308.47 264.077C1308.44 264.077 1308.4 264.133 1308.36 264.166C1308.26 264.233 1308.17 263.999 1308.07 264.077C1308 264.144 1307.93 264.088 1307.85 264.044C1307.83 264.033 1307.81 263.988 1307.78 263.977C1307.71 263.955 1307.63 263.933 1307.55 263.933C1307.46 263.933 1307.37 263.944 1307.28 263.944C1307.18 263.944 1307.08 263.944 1306.97 263.955C1306.85 263.966 1306.74 263.977 1306.62 264.033C1306.42 264.144 1306.23 264.044 1306.04 264.033C1305.97 264.033 1305.92 263.988 1305.86 263.855C1305.8 263.71 1305.73 263.777 1305.66 263.844C1305.55 263.944 1305.45 263.922 1305.35 263.821C1305.28 263.755 1305.22 263.677 1305.14 263.666C1305.08 263.655 1305.01 263.744 1304.96 263.766C1304.94 263.777 1304.91 263.755 1304.89 263.721C1304.81 263.599 1304.74 263.354 1304.65 263.388C1304.64 263.388 1304.63 263.343 1304.63 263.332C1304.54 263.187 1304.45 263.043 1304.36 262.92C1304.34 262.887 1304.31 262.943 1304.28 262.932C1304.27 262.932 1304.27 262.831 1304.27 262.809C1304.28 262.687 1304.29 262.531 1304.3 262.476C1304.31 262.398 1304.34 262.364 1304.35 262.364C1304.4 262.364 1304.47 262.375 1304.53 262.386C1304.55 262.386 1304.57 262.375 1304.6 262.386C1304.67 262.398 1304.74 262.409 1304.8 262.409C1304.93 262.42 1305.05 262.431 1305.18 262.42C1305.38 262.386 1305.58 262.453 1305.78 262.487C1305.83 262.498 1305.87 262.431 1305.9 262.442C1306.27 262.52 1306.65 262.409 1307.02 262.453C1307.14 262.464 1307.25 262.531 1307.37 262.553C1307.55 262.576 1307.72 262.553 1307.9 262.576C1308.07 262.598 1308.24 262.642 1308.41 262.665C1308.59 262.698 1308.76 262.731 1308.94 262.754C1309.12 262.776 1309.3 262.776 1309.46 262.798C1309.72 262.831 1309.96 262.898 1310.22 262.932C1310.31 262.943 1310.41 262.865 1310.5 262.865C1310.59 262.854 1310.67 262.887 1310.75 262.898C1310.78 262.898 1310.79 262.909 1310.81 262.909C1310.93 262.887 1311.04 262.843 1311.17 262.843C1311.36 262.831 1311.54 262.82 1311.73 262.887C1311.88 262.943 1312.03 262.909 1312.19 262.909C1312.27 262.909 1312.35 262.909 1312.42 262.932C1312.45 262.943 1312.47 263.009 1312.48 263.098C1312.49 263.154 1312.49 263.299 1312.48 263.543C1312.47 263.766 1312.45 263.877 1312.43 263.91C1312.37 263.999 1312.3 264.144 1312.25 264.166C1312.1 264.211 1312.02 264.177 1311.94 264.189C1311.94 264.177 1311.94 264.177 1311.94 264.189Z" fill="#F39BA6"/>
<path d="M1301.66 242.03C1301.65 242.074 1301.62 242.119 1301.61 242.163C1301.57 242.319 1301.47 242.43 1301.37 242.552C1301.35 242.575 1301.37 242.63 1301.35 242.653C1301.3 242.708 1301.23 242.742 1301.18 242.797C1301.17 242.808 1301.13 242.797 1301.17 242.831C1301.37 243.008 1301.27 243.02 1301.25 243.075C1301.22 243.131 1301.27 243.22 1301.27 243.298C1301.28 243.364 1301.39 243.498 1301.11 243.409C1301.02 243.376 1301.07 243.431 1301.12 243.487C1301.21 243.576 1301.18 243.598 1301.11 243.598C1300.96 243.598 1301.08 243.765 1301.01 243.809C1300.99 243.821 1300.96 243.843 1300.92 243.854C1300.91 243.854 1300.87 243.854 1300.89 243.876C1301.05 244.032 1300.84 243.999 1300.87 244.088C1300.91 244.221 1300.7 244.221 1300.62 244.288C1300.51 244.399 1300.46 244.532 1300.37 244.655C1300.32 244.722 1300.28 244.788 1300.23 244.855C1300.17 244.944 1300.08 245.022 1300.02 245.111C1300 245.144 1300.04 245.2 1300.04 245.256C1300.06 245.378 1299.81 245.345 1299.84 245.478C1299.87 245.578 1299.79 245.623 1299.72 245.656C1299.7 245.667 1299.64 245.667 1299.63 245.689C1299.58 245.745 1299.53 245.812 1299.49 245.878C1299.44 245.956 1299.42 246.045 1299.38 246.134C1299.33 246.223 1299.29 246.312 1299.25 246.412C1299.22 246.524 1299.17 246.635 1299.18 246.768C1299.19 246.991 1299.01 247.124 1298.92 247.291C1298.89 247.347 1298.82 247.38 1298.68 247.369C1298.52 247.358 1298.55 247.458 1298.58 247.547C1298.62 247.692 1298.55 247.769 1298.42 247.814C1298.33 247.847 1298.23 247.87 1298.19 247.936C1298.15 247.981 1298.2 248.081 1298.2 248.148C1298.2 248.17 1298.16 248.181 1298.13 248.181C1297.99 248.203 1297.74 248.159 1297.73 248.259C1297.73 248.27 1297.69 248.259 1297.67 248.259C1297.51 248.281 1297.34 248.292 1297.19 248.315C1297.15 248.326 1297.19 248.37 1297.16 248.381C1297.16 248.381 1297.07 248.348 1297.05 248.337C1296.95 248.281 1296.81 248.192 1296.76 248.159C1296.7 248.114 1296.68 248.081 1296.68 248.07C1296.71 248.014 1296.75 247.97 1296.77 247.925C1296.78 247.903 1296.78 247.881 1296.81 247.858C1296.84 247.803 1296.88 247.747 1296.92 247.692C1296.97 247.58 1297.05 247.48 1297.09 247.358C1297.14 247.158 1297.3 247.013 1297.42 246.846C1297.44 246.813 1297.41 246.746 1297.43 246.713C1297.66 246.424 1297.73 246.034 1297.93 245.723C1298 245.623 1298.11 245.545 1298.18 245.445C1298.26 245.3 1298.33 245.133 1298.42 244.989C1298.51 244.844 1298.63 244.71 1298.73 244.566C1298.84 244.421 1298.94 244.277 1299.04 244.132C1299.14 243.987 1299.21 243.821 1299.31 243.676C1299.45 243.465 1299.62 243.264 1299.77 243.053C1299.81 242.975 1299.79 242.864 1299.82 242.775C1299.85 242.697 1299.91 242.63 1299.97 242.564C1299.98 242.552 1300 242.541 1300 242.519C1300.03 242.408 1300.04 242.285 1300.1 242.174C1300.18 242.007 1300.24 241.829 1300.39 241.685C1300.5 241.574 1300.54 241.418 1300.61 241.295C1300.64 241.229 1300.68 241.151 1300.73 241.095C1300.74 241.084 1300.82 241.095 1300.91 241.117C1300.97 241.14 1301.1 241.195 1301.31 241.318C1301.51 241.429 1301.6 241.496 1301.61 241.518C1301.67 241.618 1301.76 241.729 1301.77 241.807C1301.75 241.896 1301.68 241.952 1301.66 242.03C1301.65 242.03 1301.65 242.03 1301.66 242.03Z" fill="#F39BA6"/>
<path d="M1282.45 240.36C1282.46 240.405 1282.47 240.438 1282.49 240.483C1282.55 240.616 1282.54 240.772 1282.52 240.917C1282.52 240.95 1282.57 240.972 1282.56 241.006C1282.55 241.072 1282.52 241.139 1282.51 241.206C1282.51 241.217 1282.48 241.239 1282.54 241.239C1282.79 241.261 1282.72 241.328 1282.74 241.384C1282.75 241.439 1282.84 241.484 1282.89 241.539C1282.94 241.584 1283.1 241.617 1282.82 241.706C1282.74 241.74 1282.8 241.751 1282.88 241.762C1283.01 241.784 1282.99 241.818 1282.94 241.851C1282.8 241.94 1283 241.996 1282.97 242.073C1282.96 242.096 1282.94 242.129 1282.92 242.151C1282.91 242.162 1282.88 242.174 1282.91 242.185C1283.12 242.218 1282.95 242.296 1283.01 242.351C1283.12 242.429 1282.96 242.541 1282.94 242.641C1282.9 242.785 1282.94 242.919 1282.95 243.063C1282.95 243.141 1282.96 243.219 1282.95 243.297C1282.94 243.397 1282.91 243.508 1282.92 243.608C1282.92 243.642 1282.99 243.675 1283.02 243.698C1283.1 243.775 1282.88 243.898 1282.98 243.976C1283.06 244.042 1283.01 244.109 1282.98 244.187C1282.97 244.209 1282.92 244.243 1282.92 244.265C1282.91 244.343 1282.91 244.409 1282.91 244.487C1282.92 244.576 1282.95 244.654 1282.97 244.743C1282.99 244.843 1282.99 244.932 1283.02 245.032C1283.06 245.144 1283.08 245.255 1283.16 245.355C1283.29 245.522 1283.22 245.722 1283.24 245.9C1283.24 245.956 1283.2 246.022 1283.08 246.089C1282.95 246.167 1283.02 246.223 1283.1 246.278C1283.21 246.367 1283.2 246.467 1283.11 246.567C1283.05 246.645 1282.99 246.712 1282.98 246.79C1282.98 246.846 1283.07 246.901 1283.1 246.957C1283.11 246.979 1283.09 247.001 1283.06 247.024C1282.95 247.113 1282.71 247.201 1282.75 247.29C1282.75 247.302 1282.7 247.313 1282.69 247.324C1282.56 247.391 1282.41 247.557 1282.29 247.513C1282.28 247.502 1282.29 247.502 1282.3 247.513C1282.32 247.524 1282.28 247.491 1282.41 247.569C1282.41 247.569 1282.51 247.635 1282.54 247.658C1282.5 247.635 1282.46 247.602 1282.45 247.591C1282.37 247.535 1282.27 247.48 1282.17 247.446C1282.05 247.402 1281.91 247.368 1281.77 247.368C1281.73 247.391 1281.75 247.424 1281.75 247.457C1281.75 247.513 1281.76 247.435 1281.76 247.435C1281.76 247.424 1281.75 247.402 1281.75 247.379C1281.75 247.335 1281.77 247.302 1281.76 247.235C1281.76 247.124 1281.76 247.012 1281.73 246.912C1281.68 246.734 1281.72 246.545 1281.73 246.356C1281.73 246.323 1281.67 246.289 1281.67 246.245C1281.7 245.9 1281.53 245.566 1281.52 245.221C1281.52 245.11 1281.57 244.988 1281.57 244.877C1281.56 244.71 1281.52 244.554 1281.51 244.398C1281.5 244.231 1281.52 244.076 1281.52 243.909C1281.52 243.742 1281.53 243.575 1281.52 243.408C1281.51 243.241 1281.49 243.086 1281.48 242.919C1281.48 242.674 1281.5 242.44 1281.49 242.196C1281.49 242.107 1281.4 242.04 1281.38 241.951C1281.36 241.873 1281.37 241.795 1281.37 241.706C1281.37 241.695 1281.38 241.673 1281.37 241.662C1281.32 241.562 1281.27 241.45 1281.24 241.35C1281.21 241.172 1281.16 241.006 1281.19 240.828C1281.21 240.683 1281.16 240.549 1281.14 240.405C1281.13 240.327 1281.12 240.26 1281.13 240.182C1281.13 240.16 1281.2 240.138 1281.29 240.104C1281.34 240.082 1281.48 240.06 1281.72 240.027C1281.95 240.004 1282.06 239.993 1282.09 240.004C1282.19 240.049 1282.33 240.082 1282.38 240.138C1282.45 240.193 1282.42 240.282 1282.45 240.36Z" fill="#F39BA6"/>
<path d="M1263.93 253.253C1263.98 253.264 1264.03 253.287 1264.08 253.298C1264.26 253.331 1264.4 253.431 1264.55 253.531C1264.58 253.554 1264.64 253.531 1264.66 253.554C1264.73 253.598 1264.78 253.665 1264.84 253.709C1264.85 253.72 1264.85 253.754 1264.88 253.709C1265.05 253.498 1265.07 253.598 1265.14 253.62C1265.2 253.643 1265.29 253.587 1265.38 253.587C1265.46 253.576 1265.58 253.454 1265.53 253.743C1265.5 253.832 1265.56 253.787 1265.62 253.732C1265.7 253.631 1265.73 253.665 1265.74 253.743C1265.76 253.91 1265.92 253.765 1265.98 253.843C1266.01 253.865 1266.03 253.898 1266.04 253.932C1266.05 253.943 1266.04 253.987 1266.06 253.965C1266.21 253.798 1266.19 254.01 1266.28 253.976C1266.43 253.932 1266.45 254.143 1266.54 254.21C1266.67 254.321 1266.83 254.366 1266.98 254.444C1267.06 254.488 1267.15 254.521 1267.22 254.577C1267.32 254.644 1267.42 254.722 1267.53 254.777C1267.56 254.8 1267.63 254.755 1267.67 254.744C1267.81 254.722 1267.81 254.977 1267.94 254.944C1268.04 254.911 1268.1 254.989 1268.16 255.055C1268.19 255.078 1268.19 255.133 1268.21 255.144C1268.29 255.2 1268.35 255.244 1268.43 255.278C1268.52 255.322 1268.62 255.345 1268.72 255.378C1268.83 255.411 1268.93 255.467 1269.04 255.489C1269.18 255.523 1269.3 255.567 1269.44 255.556C1269.69 255.534 1269.85 255.701 1270.04 255.79C1270.11 255.823 1270.15 255.879 1270.17 256.034C1270.18 256.19 1270.28 256.157 1270.38 256.123C1270.52 256.068 1270.62 256.134 1270.69 256.268C1270.73 256.357 1270.78 256.457 1270.86 256.501C1270.91 256.535 1271.01 256.479 1271.08 256.479C1271.1 256.479 1271.12 256.513 1271.12 256.546C1271.17 256.691 1271.16 256.946 1271.27 256.958C1271.28 256.958 1271.27 257.002 1271.28 257.024C1271.32 257.191 1271.37 257.369 1271.41 257.525C1271.42 257.558 1271.47 257.525 1271.49 257.547C1271.49 257.547 1271.47 257.647 1271.46 257.669C1271.4 257.781 1271.33 257.925 1271.31 257.97C1271.27 258.037 1271.24 258.059 1271.23 258.059C1271.17 258.037 1271.11 258.003 1271.06 257.97C1271.03 257.959 1271 257.959 1270.98 257.948C1270.91 257.914 1270.84 257.881 1270.78 257.847C1270.65 257.792 1270.53 257.725 1270.39 257.692C1270.17 257.636 1269.98 257.491 1269.78 257.38C1269.73 257.358 1269.66 257.402 1269.63 257.38C1269.28 257.158 1268.84 257.113 1268.47 256.924C1268.35 256.857 1268.25 256.757 1268.14 256.691C1267.96 256.602 1267.77 256.546 1267.61 256.457C1267.43 256.368 1267.27 256.257 1267.1 256.168C1266.92 256.068 1266.75 255.967 1266.57 255.879C1266.39 255.79 1266.22 255.723 1266.04 255.623C1265.78 255.489 1265.55 255.322 1265.29 255.2C1265.2 255.155 1265.08 255.189 1264.98 255.155C1264.89 255.133 1264.81 255.066 1264.73 255.022C1264.7 255.011 1264.69 254.989 1264.68 254.989C1264.55 254.966 1264.41 254.955 1264.29 254.911C1264.09 254.844 1263.89 254.777 1263.71 254.644C1263.58 254.533 1263.4 254.499 1263.25 254.432C1263.17 254.399 1263.08 254.366 1263.01 254.31C1262.99 254.299 1263 254.221 1263.01 254.132C1263.02 254.076 1263.07 253.943 1263.17 253.72C1263.26 253.509 1263.32 253.42 1263.35 253.398C1263.45 253.342 1263.56 253.231 1263.64 253.231C1263.76 253.164 1263.84 253.231 1263.93 253.253C1263.93 253.253 1263.93 253.264 1263.93 253.253Z" fill="#F39BA6"/>
<path d="M1263.69 282.353C1263.73 282.32 1263.76 282.287 1263.79 282.242C1263.89 282.109 1264.05 282.031 1264.19 281.953C1264.23 281.931 1264.23 281.886 1264.26 281.864C1264.33 281.831 1264.4 281.808 1264.48 281.786C1264.49 281.786 1264.53 281.797 1264.5 281.753C1264.39 281.508 1264.49 281.541 1264.54 281.497C1264.58 281.452 1264.58 281.341 1264.62 281.274C1264.64 281.208 1264.58 281.041 1264.82 281.219C1264.89 281.274 1264.87 281.208 1264.84 281.141C1264.79 281.019 1264.83 281.019 1264.89 281.041C1265.05 281.096 1264.99 280.896 1265.08 280.874C1265.12 280.863 1265.15 280.863 1265.18 280.863C1265.19 280.863 1265.23 280.885 1265.22 280.852C1265.14 280.651 1265.32 280.752 1265.33 280.663C1265.35 280.518 1265.54 280.596 1265.65 280.551C1265.81 280.485 1265.92 280.373 1266.05 280.284C1266.12 280.24 1266.2 280.184 1266.27 280.14C1266.37 280.084 1266.5 280.04 1266.58 279.962C1266.62 279.94 1266.61 279.862 1266.62 279.817C1266.65 279.695 1266.89 279.817 1266.91 279.684C1266.93 279.584 1267.02 279.572 1267.11 279.55C1267.14 279.539 1267.19 279.561 1267.21 279.55C1267.29 279.517 1267.36 279.472 1267.43 279.417C1267.51 279.361 1267.57 279.283 1267.64 279.216C1267.72 279.139 1267.81 279.072 1267.89 278.994C1267.98 278.894 1268.06 278.816 1268.12 278.682C1268.21 278.46 1268.43 278.404 1268.59 278.271C1268.64 278.226 1268.72 278.215 1268.85 278.282C1269 278.349 1269.01 278.249 1269.02 278.149C1269.04 277.993 1269.14 277.948 1269.29 277.948C1269.39 277.948 1269.5 277.959 1269.57 277.915C1269.62 277.882 1269.61 277.77 1269.64 277.715C1269.65 277.692 1269.69 277.692 1269.72 277.704C1269.87 277.737 1270.09 277.87 1270.14 277.781C1270.14 277.77 1270.19 277.804 1270.2 277.804C1270.37 277.848 1270.53 277.893 1270.69 277.926C1270.73 277.937 1270.72 277.882 1270.75 277.87C1270.76 277.87 1270.82 277.937 1270.83 277.959C1270.91 278.06 1271 278.182 1271.03 278.226C1271.08 278.293 1271.08 278.327 1271.07 278.338C1271.02 278.382 1270.97 278.416 1270.91 278.449C1270.89 278.46 1270.88 278.493 1270.86 278.504C1270.8 278.549 1270.73 278.582 1270.68 278.627C1270.57 278.705 1270.46 278.783 1270.37 278.883C1270.22 279.05 1270.01 279.139 1269.83 279.261C1269.8 279.283 1269.8 279.361 1269.77 279.383C1269.41 279.584 1269.19 279.928 1268.85 280.151C1268.74 280.229 1268.61 280.251 1268.5 280.329C1268.34 280.44 1268.21 280.574 1268.06 280.685C1267.91 280.796 1267.74 280.885 1267.59 280.974C1267.42 281.074 1267.25 281.174 1267.1 281.285C1266.94 281.397 1266.8 281.519 1266.64 281.619C1266.41 281.775 1266.16 281.897 1265.94 282.053C1265.86 282.109 1265.83 282.231 1265.76 282.298C1265.69 282.364 1265.61 282.409 1265.53 282.453C1265.52 282.465 1265.49 282.465 1265.48 282.476C1265.41 282.576 1265.33 282.687 1265.24 282.776C1265.09 282.91 1264.95 283.054 1264.75 283.143C1264.59 283.21 1264.49 283.343 1264.36 283.443C1264.29 283.499 1264.24 283.555 1264.15 283.588C1264.13 283.599 1264.06 283.555 1263.99 283.499C1263.95 283.466 1263.85 283.366 1263.7 283.165C1263.57 282.987 1263.5 282.887 1263.5 282.854C1263.49 282.743 1263.46 282.587 1263.48 282.52C1263.55 282.453 1263.64 282.42 1263.69 282.353C1263.69 282.353 1263.7 282.364 1263.69 282.353Z" fill="#F39BA6"/>
<path d="M919.504 288.136L913.238 287.184C912.126 287.009 911.306 288.194 911.848 289.19L914.907 294.738C915.127 295.133 915.127 295.602 914.937 295.997L912.097 301.662C911.599 302.673 912.462 303.814 913.575 303.609L919.797 302.409C920.236 302.321 920.69 302.468 921.012 302.775L925.521 307.225C926.326 308.016 927.687 307.547 927.819 306.42L928.61 300.125C928.668 299.686 928.932 299.291 929.327 299.086L934.948 296.173C935.944 295.66 935.915 294.211 934.904 293.728L929.166 291.034C928.756 290.844 928.478 290.463 928.405 290.024L927.365 283.773C927.175 282.661 925.799 282.236 925.038 283.071L920.704 287.697C920.397 288.048 919.943 288.209 919.504 288.136Z" fill="#F39BA6"/>
<path d="M916.005 286.541L914.907 286.526L914.365 286.511L913.633 286.482C913.194 286.467 912.843 286.511 912.506 286.672C911.466 287.155 911.144 288.429 911.481 289.381C911.554 289.644 911.759 289.922 911.906 290.2L912.55 291.415C912.638 291.606 912.638 291.855 912.769 292.001C913.399 292.733 913.911 293.523 914.175 294.475C914.306 294.578 914.438 294.739 914.511 294.826C914.848 295.207 914.658 295.734 914.35 296.056C913.94 296.686 913.648 297.388 913.135 297.945C913.004 298.091 912.872 298.281 912.828 298.472C912.696 298.925 912.535 299.35 912.345 299.76C912.154 300.184 911.979 300.506 911.642 301.136C911.452 301.487 911.305 301.839 911.261 302.219C911.174 303.068 911.715 303.932 912.52 304.195C912.916 304.342 913.34 304.327 913.765 304.21C914.189 304.108 914.629 303.947 914.892 303.844C915.536 303.581 916.239 303.449 916.927 303.317C917.747 303.156 918.581 303.083 919.416 302.951L919.738 302.907C920.147 302.805 920.587 303.01 920.792 303.346C921.128 303.742 921.48 304.181 921.802 304.62C922.212 305.162 922.622 305.703 923.031 306.245L923.661 307.05L923.983 307.445L924.539 308.075C924.861 308.412 925.198 308.675 925.593 308.851C926.808 309.407 928.375 308.69 928.843 307.489C928.975 307.197 929.048 306.874 929.092 306.523L929.18 305.572L929.253 304.327L929.429 301.824C929.487 301.253 929.561 300.404 929.619 300.287C929.736 299.994 929.956 299.994 930.644 299.643C931.712 299.16 932.781 298.691 933.85 298.208L935.445 297.447C936.587 296.92 937.231 295.749 937.041 294.548C936.953 293.963 936.675 293.406 936.251 292.996C935.87 292.587 935.138 292.279 934.64 292.03L930.644 289.966L930.322 289.791C930.219 289.732 930.058 289.659 930.102 289.659C930.088 289.629 930.088 289.6 930.102 289.586L930.117 289.556L930.131 289.542C930.131 289.542 930.146 289.542 930.131 289.439C930.088 289.029 930.014 288.619 929.941 288.209L929.502 285.926L929.282 284.784L929.136 283.993C929.077 283.627 929.019 283.247 928.872 282.939C928.536 282.046 927.76 281.358 926.852 281.109C925.93 280.861 924.935 281.036 924.173 281.636C923.807 281.929 923.368 282.427 923.119 282.705L922.548 283.32L921.421 284.535L920.147 285.911C919.928 286.131 919.708 286.35 919.474 286.57L919.723 286.804C919.723 286.819 919.723 286.775 919.723 286.819C919.664 287.39 919.855 288.195 920.674 288.122C921.245 287.961 921.553 287.843 921.86 287.404C922.27 286.775 923.002 286.409 923.222 285.633C923.251 285.516 923.368 285.428 923.471 285.355C923.91 285.033 924.334 284.681 924.73 284.315C925.081 284.023 925.227 283.759 925.579 283.583C925.901 283.422 926.325 283.481 926.603 283.715C926.911 283.949 926.925 284.359 927.013 284.74C927.13 285.355 927.189 286.131 927.291 286.804C927.35 287.258 927.423 287.712 927.511 288.166C927.643 288.854 927.789 289.41 927.892 290.2C927.95 290.845 928.404 291.518 929.107 291.43C929.121 291.43 929.136 291.43 929.151 291.43C929.297 291.445 929.487 291.547 929.531 291.664C929.707 292.118 930.102 292.265 930.483 292.426C931.508 292.879 932.547 293.304 933.572 293.787L934.04 294.021L934.406 294.226C934.64 294.358 934.787 294.607 934.772 294.87C934.787 295.368 934.289 295.675 933.908 295.719L933.718 295.763C933.645 295.778 933.484 295.851 933.367 295.895L932.605 296.202C931.61 296.612 930.629 297.095 929.648 297.535C929.414 297.637 929.165 297.681 928.946 297.798C928.228 298.076 927.496 298.72 927.379 299.496C927.277 300.462 927.365 300.653 926.984 301.092C926.794 301.312 926.75 301.707 926.75 302.029C926.735 302.439 926.794 302.863 926.852 303.273C926.925 303.771 927.013 304.239 926.72 304.722C926.574 304.942 926.574 305.498 926.662 305.484C926.823 305.718 926.838 306.172 926.545 306.318C926.252 306.494 925.915 306.274 925.769 306.011L925.74 305.981L925.652 305.864L925.418 305.601L924.949 305.059L924.012 303.961L923.075 302.863L922.607 302.322C922.417 302.117 922.373 302.029 922.007 301.648C921.363 301.019 920.411 300.741 919.518 300.916L918.625 301.063C917.469 301.253 916.312 301.473 915.17 301.721L914.306 301.912C914.116 301.956 914.189 301.956 914.116 301.985C914.043 302.029 913.926 302.029 913.838 301.97C913.765 301.926 913.721 301.824 913.838 301.751L913.94 301.692C913.926 301.809 914.204 301.282 914.38 300.902C914.57 300.506 914.731 300.096 914.892 299.687C915.112 299.101 915.404 298.53 915.712 297.988L916.195 297.183C916.253 297.095 916.414 296.817 916.546 296.554C916.663 296.29 916.751 295.997 916.78 295.705C916.854 295.163 916.81 294.563 916.517 294.08L916.473 293.992L916.019 293.26L915.653 292.616L914.98 291.284L914.321 289.952L913.97 289.293C913.911 289.19 913.955 289.263 913.926 289.234C913.867 289.278 913.706 289.029 913.911 288.941C913.97 288.927 913.897 288.898 914.087 288.912L914.643 288.941C915.887 289 917.146 289.044 918.405 289.102C918.493 289.102 918.566 289.146 918.654 289.146C919.372 289.161 919.664 288.766 919.43 288.063C919.225 287.434 918.815 287.038 918.171 286.95C917.469 286.863 916.766 286.804 916.049 286.731L916.005 286.541Z" fill="#F39BA6"/>
<path d="M893.376 314.896L894.255 317.678C894.416 318.176 895.06 318.278 895.367 317.854L897.036 315.467C897.153 315.306 897.343 315.204 897.548 315.204L900.462 315.233C900.974 315.233 901.281 314.648 900.974 314.238L899.217 311.91C899.1 311.749 899.056 311.529 899.129 311.339L900.052 308.572C900.213 308.075 899.744 307.621 899.261 307.782L896.509 308.733C896.319 308.807 896.099 308.763 895.938 308.645L893.596 306.918C893.186 306.611 892.586 306.918 892.6 307.43L892.644 310.344C892.644 310.549 892.556 310.739 892.381 310.856L890.009 312.54C889.585 312.847 889.687 313.491 890.185 313.652L892.966 314.501C893.157 314.545 893.303 314.692 893.376 314.896Z" fill="#F39BA6"/>
<path d="M893.08 317.487C893.505 317.824 893.798 318.292 894.149 318.453C894.544 318.6 895.159 318.41 895.408 318.249C895.496 318.205 895.569 318.044 895.657 317.941C895.803 317.751 895.964 317.56 896.125 317.385C896.198 317.312 896.33 317.312 896.374 317.195C896.491 316.916 896.594 316.682 896.725 316.477C896.799 316.375 896.872 316.287 896.96 316.199C897.033 316.14 897.106 316.097 897.179 316.067L897.208 316.053C897.135 315.613 897.531 315.555 897.794 315.701C897.926 315.745 898.028 315.76 898.175 315.775C898.409 315.804 898.643 315.848 898.921 315.95C899.068 316.009 899.243 316.038 899.36 315.994C899.478 315.965 899.58 315.936 899.697 315.906C900.122 315.687 900.737 315.745 901.234 315.613C901.542 315.482 901.776 315.101 901.732 314.75C901.732 314.413 901.322 314.091 901.029 313.784C900.693 313.476 900.488 313.183 900.283 312.876C900.078 312.583 899.858 312.115 899.741 311.939L899.697 311.88C899.565 311.719 899.492 311.5 899.624 311.295C899.683 311.207 899.741 311.105 899.814 311.031L899.917 310.914L900.078 310.651C900.312 310.27 900.546 309.846 900.795 309.377C900.985 308.806 901.205 308.104 901.19 307.533C901.117 307.064 900.532 306.625 900.092 306.581C898.965 306.801 897.809 307.24 896.813 307.518C896.564 307.591 896.535 307.65 896.374 307.664C896.228 307.664 896.14 307.533 896.052 307.459C896.081 307.459 895.671 307.123 895.437 306.903L894.573 306.157L894.178 305.952L893.461 305.615C893.344 305.571 893.212 305.498 893.095 305.468C892.992 305.454 892.875 305.454 892.744 305.468C892.217 305.542 891.616 305.849 891.528 306.332L891.221 308.162L891.06 309.114L890.972 309.597C890.958 309.714 890.943 309.699 890.943 309.699L890.928 309.714C890.899 309.743 890.811 309.728 890.782 309.699L890.767 309.685C890.753 309.685 890.826 309.641 890.592 309.816L888.967 311.031C888.688 311.485 888.396 311.939 888.103 312.378C887.883 312.847 888.015 313.974 888.484 314.281L890.621 315.233C891.031 315.409 891.426 315.57 891.821 315.76C892.012 315.848 892.217 315.95 892.407 316.067L892.729 315.043C892.773 315.013 892.831 314.969 892.875 314.94C893.095 314.764 893.241 314.516 893.153 314.252C892.948 313.901 892.992 313.74 892.773 313.754C892.436 313.784 892.436 313.491 891.851 313.696C891.763 313.725 891.719 313.696 891.704 313.666C891.543 313.388 891.265 313.3 890.958 313.139C890.826 313.037 890.738 312.861 890.753 312.7C890.767 312.525 890.899 312.451 891.031 312.334C891.177 312.217 891.411 312.1 891.587 312.012L891.66 311.968C891.777 311.895 891.894 311.822 891.997 311.734C892.07 311.661 892.465 311.339 892.758 311.105C892.992 310.944 893.256 310.665 892.905 310.299C892.831 310.226 892.861 310.094 892.934 310.065C892.978 310.051 893.007 310.021 893.036 310.007C893.256 309.86 893.212 309.553 893.212 309.509C893.183 309.187 893.124 308.806 893.124 308.47C893.139 308.235 893.109 307.986 893.402 307.957C893.607 307.943 893.856 308.104 894.002 308.323C894.12 308.499 894.251 308.689 894.368 308.85L894.442 308.953L894.544 309.128L894.588 309.201C894.603 309.216 894.588 309.216 894.617 309.245L894.822 309.421C894.969 309.553 895.1 309.743 895.276 309.846C895.569 310.036 895.95 310.212 896.301 310.08C896.667 309.933 896.901 309.816 897.326 309.977C897.692 310.021 897.589 310.051 897.604 310.007C897.604 309.963 897.618 309.846 897.662 309.714C897.721 309.553 897.867 309.348 897.809 309.611C897.765 309.758 897.823 309.655 897.926 309.538C898.131 309.275 898.394 309.099 898.541 309.187C898.687 309.26 898.628 309.48 898.497 309.626C898.394 309.787 898.292 309.933 898.189 310.051C898.101 310.124 898.028 310.182 897.97 310.212L897.926 310.226L897.779 310.548C897.662 310.783 897.574 311.031 897.516 311.28C897.399 311.837 897.56 312.393 897.897 312.861L898.014 313.022L898.233 313.33C898.248 313.344 898.233 313.344 898.233 313.344V313.359C898.233 313.374 898.248 313.374 898.277 313.388C898.306 313.403 898.467 313.447 898.511 313.593C898.526 313.637 898.526 313.696 898.409 313.637C898.175 313.505 898.189 313.52 898.175 313.579L898.189 313.623C898.204 313.681 898.16 313.681 898.145 313.652C897.618 313.608 897.062 313.505 896.564 313.681C896.33 313.754 896.067 313.842 895.906 314.018C895.788 314.15 895.671 314.296 895.584 314.442L895.247 314.94C895.247 314.955 895.232 314.94 895.232 314.94C895.218 314.94 895.203 314.911 895.203 314.896C895.188 314.852 895.188 314.75 895.218 314.779C895.247 314.867 895.1 315.218 894.969 315.218C894.939 315.218 894.895 315.218 894.866 315.218C894.734 315.116 894.573 314.984 894.412 314.794C894.398 314.779 894.412 314.735 894.398 314.72C894.266 314.589 893.812 314.603 893.227 314.955C892.714 315.277 892.495 315.731 892.641 316.126C892.787 316.565 892.963 316.96 893.124 317.356L893.08 317.487Z" fill="#F39BA6"/>
</svg>
