<svg width="1360" height="846" viewBox="0 0 1360 846" fill="none" xmlns="http://www.w3.org/2000/svg">
<path d="M0.134214 188.127C-0.132841 185.774 -0.0243379 183.362 0.668335 181.159C1.2859 179.189 2.17888 177.445 3.13861 175.601C3.42236 175.142 3.7645 174.674 4.15673 174.274C4.82437 173.498 5.60886 172.83 6.41837 172.212C6.79392 171.945 7.14442 171.553 7.5617 171.394C8.57984 170.994 9.63135 170.752 10.6745 170.577C11.7177 170.443 12.7693 170.335 13.8208 170.276C15.4315 170.694 17.0171 170.719 18.6278 171.027C20.2385 171.303 21.7907 171.879 23.3847 172.179C23.8103 172.254 24.2776 172.396 24.6615 172.596C27.0233 173.74 29.4184 174.783 31.8219 175.659C34.409 176.594 36.9878 177.487 39.5999 178.338C40.9936 178.797 42.5125 179.031 44.0064 179.147C45.8006 179.306 47.5364 179.181 49.3557 179.014C51.9261 178.88 54.4465 178.313 56.825 177.42C59.9963 176.193 63.0006 174.574 65.7546 172.655C67.1483 171.67 68.6171 170.744 69.9524 169.659C72.6229 167.497 75.0181 164.952 76.7122 161.972C77.071 161.43 77.288 160.829 77.5634 160.245C77.6886 159.953 77.8305 159.661 77.9473 159.36L78.231 158.442C78.665 157.224 78.857 155.989 78.9488 154.754C78.9738 153.602 78.8569 152.459 78.5648 151.357C78.2477 150.264 77.8055 149.204 77.2547 148.186C75.5772 145.165 72.9901 142.561 70.3362 139.999C67.6657 137.437 64.8533 134.883 62.2912 131.971C61.0644 130.568 59.8544 129.125 58.7778 127.539C58.2604 126.738 57.768 125.912 57.334 125.044C56.5496 123.441 55.8652 121.764 55.3978 120.02C54.8804 118.251 54.6718 116.348 54.7052 114.512C54.7553 111.858 55.3061 109.296 56.1573 106.901C57.0002 104.497 58.1101 102.236 59.3786 100.116C60.8224 97.704 62.4247 95.4257 63.9519 93.1224C64.3692 92.4631 64.6697 92.3797 64.8115 92.8637C65.0536 93.6899 65.3874 94.441 64.9451 95.7179C64.628 96.5775 64.3692 97.3786 63.6599 98.1965C62.6501 99.4149 62.0575 100.967 60.9476 102.11C60.789 102.269 60.6388 102.553 60.5554 102.795C59.6708 104.94 58.8279 107.059 58.1853 109.246C57.5343 111.424 57.1671 113.686 57.2839 115.939C57.359 117.424 57.768 118.835 58.2687 120.245C58.5942 121.155 58.9446 122.056 59.3536 122.932C59.9294 124.209 60.5721 125.478 61.3816 126.629C61.9908 127.506 62.7002 128.257 62.9756 129.267C63.034 129.475 63.4012 129.909 63.6015 130.001C64.386 130.343 64.92 131.036 65.5125 131.704C67.0898 133.498 68.7673 135.242 70.4949 136.936C71.7967 138.188 73.0986 139.431 74.3921 140.683C76.395 142.644 78.4063 144.714 79.8417 147.36C80.4593 148.445 80.8849 149.663 81.2104 150.906C81.5108 152.158 81.6277 153.46 81.611 154.754C81.5943 155.346 81.5943 155.939 81.5275 156.531C81.419 157.065 81.3523 157.624 81.2271 158.15C81.0769 158.668 80.9016 159.168 80.6846 159.627C80.5678 159.878 80.4593 160.12 80.3675 160.353C80.2507 160.579 80.1505 160.796 80.0587 161.021C79.8835 161.463 79.7666 161.922 79.7082 162.465C79.6498 163.074 79.1407 163.85 78.7568 164.484C78.5148 164.902 78.2144 165.269 77.8973 165.619C77.5801 165.97 77.263 166.312 76.9542 166.654C76.5954 167.072 76.1614 167.397 75.8026 167.806C75.427 168.19 75.1265 168.657 74.801 169.158C74.4589 169.7 73.7829 170.276 73.2237 170.719C70.6617 172.571 68.1497 174.416 65.4542 176.043C61.8072 178.246 57.8097 179.965 53.5368 180.825C52.6939 180.983 51.8593 181.167 50.9998 181.217L48.5295 181.426C45.8506 181.643 43.1468 181.442 40.5513 180.958C37.9475 180.483 35.4272 179.74 32.9903 178.83C32.0306 178.471 31.0792 178.071 30.1195 177.762C29.0096 177.387 27.9329 176.969 26.9398 176.535C25.9384 176.093 24.9286 175.642 23.9188 175.2C21.4986 174.132 18.9366 173.448 16.4329 173.13C15.8487 173.047 15.2562 173.039 14.7054 172.955C13.7289 172.771 12.7693 172.763 11.8429 172.813C10.9333 172.905 10.0737 173.114 9.30587 173.456C8.92198 173.631 8.5548 173.831 8.1876 174.082C7.8204 174.315 7.4365 174.624 7.12771 174.916C6.96081 175.066 6.78557 175.2 6.62701 175.359L6.17632 175.851C5.85085 176.16 5.60886 176.544 5.32512 176.902C3.6143 179.289 2.61282 182.402 2.64621 185.573C2.62117 188.027 3.20533 190.497 4.29024 192.767C4.36535 192.917 4.46553 193.059 4.54064 193.201C5.23332 194.428 5.11646 195.146 4.10666 194.987C3.65601 194.912 3.197 194.703 2.74635 194.353C2.32073 193.986 1.94518 193.46 1.59467 192.801C0.943723 191.298 0.451355 189.738 0.200992 188.136L0.134214 188.127Z" fill="#A0D0DB"/>
<path d="M68.7297 83.1719L58.2729 95.6399C58.0726 95.8736 58.2144 96.2325 58.5148 96.2742C60.9684 96.6164 63.7474 97.1672 66.7602 98.0518C70.4822 99.1534 73.6702 100.505 76.2824 101.816C76.5828 101.966 76.9166 101.699 76.8332 101.373C75.4061 95.6733 73.9874 89.965 72.5603 84.2651" fill="#C0E3EB"/>
<path d="M68.129 85.7483C67.5782 86.1405 67.0607 86.5745 66.4682 86.925C65.9341 87.2338 65.4 87.5342 65.1997 88.135C65.1496 88.2936 64.9994 88.3855 64.8993 88.5107C64.7157 88.736 64.5237 88.9529 64.3568 89.1949C64.2817 89.3034 64.2984 89.5038 64.1816 89.5622C63.6141 89.8793 63.1802 90.2966 62.9882 90.9225C62.4374 91.0811 62.3205 91.5817 62.0869 92.0074C61.8532 92.433 61.4943 92.7585 61.3775 93.2759C61.3441 93.4094 61.2774 93.5346 61.1605 93.6097C61.0186 93.6932 60.8768 93.8016 60.76 93.8934C60.6765 93.9519 60.593 94.027 60.5263 94.1021C60.3844 94.2523 60.2675 94.4275 60.1757 94.5777L60.0673 94.753C59.9588 94.945 59.7918 95.1119 59.5665 95.3455C59.4747 95.4791 59.4831 95.6543 59.5332 95.7377C59.5916 95.8045 59.6416 95.8629 59.7001 95.9464C59.8252 96.1216 60.2425 96.1801 60.6013 96.2386C61.052 96.3137 61.461 96.2969 62.0285 96.3887C62.8046 96.5056 63.5807 96.5891 64.3902 96.5557C65.4751 96.514 66.56 96.564 67.6283 96.7059C68.1707 96.781 68.6714 97.0481 69.1721 97.265C70.1819 97.7073 71.1417 98.2331 72.1265 98.6921C72.4937 98.8673 72.8775 99.0259 73.2531 99.1761L73.5368 99.2846L73.6787 99.3347L73.9375 99.4181C74.046 99.4515 74.1377 99.4599 74.2212 99.4682C74.3798 99.4766 74.4798 99.4599 74.58 99.4682C74.6301 99.4766 74.6969 99.5016 74.7386 99.4098C74.7803 99.318 74.7053 99.2012 74.6719 99.1177C74.5884 98.9341 74.5049 98.7755 74.4382 98.6503L74.338 98.4834L74.2879 98.4167L74.2629 98.3833L74.2045 98.1997L73.6871 96.6141C73.5202 96.105 73.3115 95.6126 73.1362 95.1035C73.0528 94.8531 72.986 94.5945 72.9276 94.3358C72.7273 93.3677 72.5521 92.3913 72.3268 91.4316L71.3337 87.3089C71.1584 86.5244 71.0082 85.7399 70.5993 85.0139C70.4824 84.8136 70.6493 84.6967 71.0582 84.68C71.7676 84.655 72.4937 84.5883 72.9944 84.8637C73.3282 85.0473 73.5953 85.2309 73.5786 85.573C73.5452 86.0654 73.9792 86.466 73.6871 87.0168C73.6453 87.0919 73.6871 87.1837 73.7288 87.2505C74.5217 88.4773 74.6134 89.8792 74.8971 91.2395C74.9889 91.6818 75.1725 92.1075 75.306 92.5415C75.3895 92.8252 75.4646 93.109 75.523 93.3927C75.6148 93.81 75.6483 94.244 75.7901 94.6445C75.8903 94.9533 76.0989 95.2204 75.7651 95.6043C75.6983 95.6877 75.7567 95.8463 75.8652 95.8797C76.2908 96.0048 76.3159 96.2803 76.3659 96.539L76.5746 97.5989L76.7081 98.2248L76.875 98.9091C77.0336 99.5684 77.3424 100.336 77.4592 100.987C77.5427 101.504 77.6262 101.93 77.5844 102.339C77.526 102.573 77.2923 102.798 77.117 102.882C76.9585 102.948 76.8166 102.965 76.6664 103.007C76.4827 103.04 76.2575 103.065 76.0238 103.065C75.7317 102.998 75.4646 103.007 75.1308 102.873C74.7469 102.706 74.363 102.539 73.9708 102.389C73.7204 102.297 73.4534 102.256 73.2031 102.155C72.9694 102.072 72.7273 101.98 72.4936 101.888C72.3184 101.822 72.2183 101.772 72.1181 101.655C71.9011 101.404 71.6925 101.288 71.317 101.496C71.1083 101.613 70.8829 101.504 70.716 101.404C70.4907 101.271 70.3071 101.062 70.1152 100.854C69.8899 100.612 69.6812 100.353 69.289 100.486C69.0804 100.553 68.8801 100.395 68.7216 100.253C68.0289 99.585 67.1693 99.343 66.293 99.2095C65.0996 99.0175 63.8895 98.9341 62.6961 98.834C62.2287 98.7923 61.7698 98.7088 61.3108 98.6421L59.4747 98.3415L58.4065 98.1663C58.056 98.1079 57.8224 97.9577 57.5303 97.8575C57.3467 97.7157 57.138 97.5654 57.0045 97.4319C56.8877 97.2817 56.7708 97.1732 56.6623 96.9896C56.5455 96.7893 56.4537 96.4721 56.4453 96.2468C56.4453 96.0465 56.4788 95.8797 56.5205 95.671C56.5956 95.3455 56.7458 94.9617 56.9378 94.5528L57.0462 94.3525C57.3383 93.9018 57.6972 93.4428 58.0811 93.0005C58.273 92.7752 58.4733 92.5582 58.6736 92.3495C58.7904 92.2244 58.8322 92.191 58.8906 92.1326L59.0658 91.9823C59.6917 91.4565 60.1006 90.7556 60.4928 90.0462C60.5846 89.8793 60.6431 89.6874 60.785 89.5622C61.7614 88.7026 62.3206 87.5008 63.1969 86.5661C63.9062 85.8067 64.724 85.1473 65.5168 84.463C66.126 83.9373 66.777 83.4366 67.4113 82.9275C67.453 82.8941 67.4613 82.8273 67.503 82.8023C67.8786 82.5269 68.346 82.7356 68.7883 83.3782C69.1805 83.954 69.2807 84.4297 69.0053 84.7385C68.7048 85.0723 68.371 85.3811 68.0455 85.7066L68.129 85.7483Z" fill="#A0D0DB"/>
<path d="M68.7312 83.1737C56.697 78.542 52.7581 65.4312 50.9805 59.506C50.2711 57.1275 43.1023 31.7406 59.9852 14.2318C61.7043 12.4459 76.5009 -2.45914 92.6577 2.39792C111.068 7.9393 113.722 33.8937 114.005 37.1234C115.224 50.9101 110.567 69.1449 95.9959 78.5419C93.6091 80.0775 81.3078 88.0141 68.7312 83.1737Z" fill="#C0E3EB"/>
<path d="M59.4632 78.3544C57.5103 76.1095 55.9163 73.5892 54.7563 70.9604C53.7215 68.6069 52.9621 66.2536 51.8772 63.9001C51.6018 63.2909 51.4265 62.5898 51.2095 61.9305C50.8256 60.7288 50.4501 59.527 50.1079 58.2919C49.9577 57.7328 49.674 57.1736 49.6072 56.6395C49.2651 54.0107 48.9563 51.4236 48.4806 48.8115C48.6308 46.7335 48.3303 44.7305 48.2802 42.6525C48.2301 40.5745 48.4722 38.4798 48.5223 36.4018C48.5306 35.851 48.6057 35.2251 48.756 34.6827C49.6072 31.4112 50.4751 28.1648 51.7854 25.0186C53.154 21.6386 55.2237 18.5509 57.7357 15.9721C58.4033 15.2878 59.0876 14.5868 59.7719 13.8857C60.473 13.1931 61.1824 12.517 61.9084 11.8577C63.6359 10.3055 65.4052 8.8034 67.3163 7.46813C70.087 5.54033 73.0163 3.84619 76.1291 2.4525C80.2685 0.566422 85.0336 -0.401652 89.8072 0.157494C92.2274 0.449585 94.606 1.3008 96.7758 2.42744C101.166 4.68906 104.587 8.33601 107.141 12.3251C109.085 15.3295 110.604 18.5592 111.848 21.8641C112.999 24.9602 113.951 28.1148 114.61 31.3528C116.646 40.9585 115.929 51.1983 112.49 60.5285C111.631 62.7568 110.713 64.985 109.503 67.0797L108.593 68.6487L107.55 70.1342C104.929 73.7812 101.658 76.9774 97.9357 79.5061C95.3236 81.3421 92.4862 82.8526 89.5152 84.0544C86.5442 85.2394 83.4063 86.1324 80.1516 86.4411C76.4629 86.8 72.6907 86.4161 69.0688 85.4314C68.0423 85.1643 67.792 84.8806 68.3011 84.6302C69.1773 84.1629 69.8866 83.7039 71.5724 83.7206C72.1483 83.6956 72.6907 83.6871 73.2582 83.7289C73.8174 83.7623 74.4183 83.7623 75.0859 83.8958C75.57 84.0043 76.0706 84.021 76.5714 84.021C77.0721 84.021 77.5812 84.0377 78.0819 84.0127C79.0917 83.9209 80.0932 83.9208 81.0863 83.9459C81.37 83.9625 81.7622 83.8875 82.0877 83.8124C84.9335 83.053 87.6875 82.0431 90.3664 80.8247C91.7017 80.2071 93.0202 79.5479 94.2888 78.8051C95.5823 78.0791 96.7674 77.2028 97.9775 76.3766C98.7453 75.8007 99.4463 75.1331 100.172 74.4988C100.89 73.8646 101.508 73.1052 102.184 72.4292C102.634 71.9952 103.01 71.4944 103.41 71.0187L104.604 69.575L106.198 67.3718C106.698 66.6207 107.149 65.8279 107.608 65.0435C107.967 64.4593 108.184 63.8167 108.509 63.2408C108.802 62.6566 109.194 62.1308 109.603 61.6301C109.778 61.4215 110.045 60.7455 110.045 60.4701C110.095 59.4352 110.496 58.3921 110.871 57.3239C111.839 54.4364 112.641 51.4654 113.033 48.4193C113.191 47.301 113.266 46.166 113.35 45.0393C113.358 43.9043 113.433 42.7777 113.358 41.6511C113.308 39.9069 113.116 38.1711 112.874 36.4519C112.599 34.7327 112.248 33.0303 111.856 31.3278C111.188 28.4903 110.429 25.6695 109.394 22.9656C109.169 22.3397 108.843 21.7556 108.601 21.1296C108.126 20.003 107.533 18.868 107.132 17.7915C106.707 16.5897 106.231 15.6967 105.346 14.8788C104.846 14.4198 104.303 13.5519 103.836 12.8676L102.951 11.5324C102.659 11.0901 102.376 10.6393 102.058 10.2221C101.341 9.17889 100.548 8.26087 99.3545 7.59323C98.6952 7.26776 97.9608 6.6002 97.3016 6.10781C94.4558 3.83785 90.7086 2.69451 87.0282 2.66113C81.9876 2.59437 77.0888 4.31353 72.7074 6.82551C70.9882 7.81862 69.2941 8.87851 67.6834 10.0719C65.1965 11.9246 62.7679 13.9525 60.6983 16.1974C58.6036 18.4424 56.7676 20.9377 55.2737 23.6333C54.9983 24.1757 54.7146 24.7181 54.4392 25.2523C54.1805 25.8031 53.9635 26.3706 53.7549 26.9297C52.8619 29.5418 52.0774 32.1707 51.4432 34.8746C50.6754 38.1377 50.5753 41.5175 50.7756 44.839C50.8173 45.6152 50.9425 46.3997 50.9425 47.1591C51.0092 49.838 51.3764 52.5086 51.9522 55.1207C52.236 56.4226 52.5782 57.7245 52.9621 58.9512L54.1972 62.8152C55.5492 66.9212 57.2433 70.8769 59.6969 74.3236C61.6163 76.9524 63.953 79.2724 66.7654 80.9499C66.949 81.0667 67.1577 81.1501 67.3497 81.2419C68.9854 82.0848 69.3943 82.8109 68.276 83.1364C67.7753 83.2782 67.166 83.295 66.4734 83.1781C65.7723 83.0696 65.0463 82.7025 64.2368 82.2435C62.5177 81.1168 60.9152 79.8066 59.5466 78.2877L59.4632 78.3544Z" fill="#A0D0DB"/>
<path d="M61.5754 33.2962C61.25 33.9722 60.9746 34.6732 60.5824 35.3492C60.2319 35.95 59.9565 36.576 60.0733 37.277C60.1067 37.4606 60.0232 37.6359 59.9981 37.8195C59.9397 38.145 59.9231 38.4787 59.9147 38.8126C59.9147 38.9628 60.0399 39.1381 59.9814 39.2716C59.706 39.9392 59.5475 40.6319 59.8313 41.3245C59.5141 41.8587 59.7395 42.3928 59.8396 42.9353C59.9314 43.4694 59.9397 44.0201 60.2151 44.5292C60.2902 44.6627 60.3236 44.8213 60.2902 44.9715C60.0565 45.8645 60.3487 46.7073 60.5239 47.5586C60.7325 48.4682 60.9078 49.3695 60.816 50.3626C60.8076 50.8801 60.9745 51.3808 61.1331 51.8649C61.2249 52.157 61.3418 52.4407 61.4586 52.7245C61.6005 52.9999 61.7423 53.2669 61.8675 53.5507C62.0511 53.9513 62.2431 54.3518 62.4601 54.7357C62.6938 55.1112 62.9692 55.4617 63.2612 55.7956C64.0123 56.7136 64.8553 57.5398 65.5897 58.416C65.9986 58.8333 66.2656 59.3591 66.566 59.8598C66.8665 60.3689 67.2337 60.8195 67.5675 61.3035C67.7428 61.5372 67.9014 61.7877 68.0933 62.013L68.6858 62.6639C68.9946 62.981 69.3034 63.3065 69.6372 63.5903C69.9877 63.8573 70.3466 64.116 70.7138 64.3747C71.3647 64.8838 72.1575 65.1758 72.8669 65.5848C75.0117 66.7031 77.3067 67.4959 79.6601 67.9299C80.2192 68.0551 80.8117 68.0551 81.3792 68.1302C81.663 68.1719 81.9467 68.2053 82.2305 68.2554C83.2736 68.4557 84.3336 68.6226 85.4101 68.681C86.9457 68.7728 88.4979 68.6977 90.0335 68.5558C90.9014 68.4723 91.786 68.3972 92.5789 68.005C92.8042 67.8965 92.921 68.0634 92.9127 68.4724C92.896 69.1817 92.921 69.9244 92.5538 70.4085C92.3034 70.7423 92.0531 71.001 91.6609 70.9593C91.0934 70.9009 90.5509 71.2847 89.9667 70.9259C89.8833 70.8758 89.7748 70.9009 89.6914 70.9342C88.1141 71.5518 86.4366 71.3432 84.8175 71.193C84.2834 71.1513 83.7494 71.1679 83.2069 71.1429C82.8564 71.1345 82.5143 71.0677 82.1721 71.0177C81.6714 70.9342 81.179 70.8007 80.6866 70.7256C80.311 70.6755 79.9188 70.7257 79.6768 70.2583C79.6267 70.1665 79.4264 70.1331 79.343 70.2082C78.9925 70.5086 78.692 70.3834 78.3916 70.2916C77.5654 70.0663 76.7976 69.6825 75.9881 69.4154C75.3955 69.1901 74.803 68.973 74.1854 68.8145C73.7014 68.6893 73.2424 68.5057 72.7584 68.3639C72.2827 68.2053 71.7903 68.0634 71.3479 67.8297C70.5969 67.4542 69.8458 67.0452 69.1531 66.5529C68.9862 66.4444 68.786 66.386 68.6274 66.2775C68.3353 66.0689 67.9764 65.9019 67.8011 65.5931C67.6259 65.2259 67.4424 65.0006 66.9583 65.009C66.6829 65.009 66.4743 64.7836 66.3074 64.5834C66.1071 64.3246 65.9485 64.0243 65.84 63.6904C65.6981 63.2982 65.5896 62.9309 65.1306 62.7974C64.8803 62.7223 64.7468 62.4386 64.655 62.1966C64.4547 61.6541 64.2377 61.145 63.9289 60.6943C63.6368 60.2353 63.2612 59.8348 62.9525 59.3841C62.5102 58.7916 62.0094 58.2158 61.5922 57.5982C61.1749 56.9723 60.7493 56.3547 60.3487 55.7038C60.0649 55.1863 59.8396 54.6355 59.5892 54.1014C59.1803 53.2669 58.9717 52.3656 58.713 51.4894C58.471 50.6047 58.3624 49.6867 58.2038 48.7937C58.1371 48.4432 58.1371 48.076 58.0036 47.7422C57.7282 46.9577 57.5863 46.1483 57.6781 45.3221C57.7615 44.3373 57.5028 43.3776 57.3777 42.4011C57.3443 42.1758 57.2608 41.9421 57.2859 41.7168C57.3359 41.3245 57.3443 40.9323 57.3527 40.54C57.3777 40.1478 57.386 39.7556 57.386 39.3634C57.386 38.5789 57.3694 37.786 57.5446 37.0183C57.6698 36.3924 57.82 35.7748 58.0036 35.1656L58.6629 33.3797C58.9717 32.4617 59.4807 31.602 59.8896 30.7341C59.9147 30.6757 59.9064 30.6006 59.9398 30.5505C60.1985 30.0665 60.7159 30.0665 61.3585 30.5505C61.9259 30.9761 62.1931 31.4185 62.0512 31.8525C61.8926 32.3365 61.684 32.8038 61.5004 33.2795L61.5754 33.2962Z" fill="#A0D0DB"/>
<path d="M1279.74 735.788L1305.95 700.211L1357.25 824.325L1312.56 820.736L1279.74 735.788Z" fill="#C0E3EB"/>
<path d="M1286.89 724.07C1289.29 721.107 1291.65 718.086 1294.08 715.19C1296.24 712.603 1298.37 710.083 1300.22 707.178C1300.69 706.427 1301.31 705.685 1301.85 704.942C1302.97 703.415 1304.08 701.888 1305.2 700.36C1305.49 699.96 1305.79 699.476 1306.11 699C1306.3 699.384 1306.49 699.801 1306.65 700.243C1307.05 701.312 1307.43 702.38 1307.82 703.44C1308.12 704.258 1308.44 705.075 1308.76 705.885C1309.42 707.504 1310.13 709.098 1310.92 710.675C1311.67 713.321 1312.91 715.724 1314.05 718.22C1315.19 720.723 1316.19 723.327 1317.46 725.747C1317.79 726.39 1318.14 727.141 1318.37 727.834C1319.81 732.031 1321.6 736.087 1323.37 740.185C1325.26 744.575 1327.01 749.014 1328.55 753.521C1329.37 755.916 1330.39 758.361 1331.38 760.756C1332.57 763.611 1333.83 766.431 1335.03 769.277C1336.77 773.408 1338.56 777.489 1340.47 781.512C1343.02 786.894 1345.53 792.344 1347.98 797.819C1349.22 800.606 1350.32 803.519 1351.45 806.381L1354.82 814.985C1356.02 818.023 1356.78 820.034 1358.87 825.167L1359.05 825.617C1356.18 825.384 1353.3 825.142 1350.41 824.908C1348.15 824.741 1345.89 824.582 1343.63 824.416C1339.32 824.148 1335 823.881 1330.69 823.614L1311.44 822.287L1303.57 802.576C1302.41 799.721 1301.25 796.876 1300.09 794.021C1299.51 792.594 1298.95 791.159 1298.41 789.715L1292.34 773.684L1283.53 750.775C1281.87 746.436 1280.25 742.096 1278.38 737.865C1277.85 736.68 1277.88 736.221 1278.43 736.53C1279.38 737.055 1280.29 737.422 1281.48 739.342C1282.28 740.644 1282.99 741.879 1283.57 743.657C1284.4 746.235 1285.74 748.789 1286.31 751.435C1286.39 751.81 1286.6 752.311 1286.79 752.72C1290.11 759.997 1292.77 767.575 1295.6 775.077C1296.53 777.531 1297.55 779.951 1298.52 782.388L1300.36 787.145C1301.24 789.456 1302.06 791.785 1302.99 794.071C1303.68 795.799 1304.46 797.435 1304.68 799.154C1304.73 799.513 1305.09 800.422 1305.31 800.706C1306.14 801.799 1306.65 803.252 1307.2 804.687C1308.66 808.568 1310.1 812.473 1311.6 816.337L1312.42 818.424L1313.1 820.093C1314.53 820.168 1315.97 820.251 1317.39 820.326C1322.15 820.543 1326.88 820.76 1331.64 820.977C1335.61 821.186 1339.6 821.486 1343.58 821.728C1344.5 821.787 1345.42 821.778 1346.34 821.845C1348.02 821.962 1349.81 822.012 1351.38 822.271C1352.25 822.413 1353.03 822.521 1353.8 822.571C1353.87 822.58 1354.03 822.588 1354.05 822.58L1354.13 822.571C1354.18 822.563 1354.23 822.555 1354.27 822.53C1354.36 822.496 1354.41 822.438 1354.4 822.354C1354.39 822.279 1354.38 822.237 1354.39 822.212C1354.31 822.112 1354.31 822.079 1354.31 822.012C1354.3 821.97 1354.31 821.962 1354.3 821.879L1353.93 820.802C1353.7 820.084 1353.47 819.367 1353.24 818.657C1352.7 816.946 1352.21 815.344 1351.24 813.667C1350.72 812.765 1350.24 811.413 1349.88 810.295C1348.29 805.371 1346.26 800.556 1344.16 795.774C1341.29 789.298 1338.42 782.822 1335.55 776.346C1334.44 773.809 1333.36 771.23 1332.27 768.668C1328.89 760.698 1325.68 752.67 1322.48 744.625C1321.86 743.047 1321.23 741.437 1320.52 739.926C1318.89 736.413 1317.46 732.849 1316.09 729.236C1314.45 724.888 1312.55 720.665 1310.65 716.45C1310.21 715.466 1309.72 714.489 1309.33 713.504C1308.52 711.393 1307.67 709.298 1306.8 707.212L1305.58 704.349C1305.54 704.299 1305.52 704.283 1305.5 704.283C1305.49 704.316 1305.48 704.349 1305.48 704.366C1305.48 704.374 1305.48 704.383 1305.48 704.391L1305.41 704.483L1305.09 704.925L1302.52 708.414C1298.92 713.204 1295.21 717.911 1291.53 722.626C1288.67 726.256 1285.81 729.878 1282.95 733.5C1282.76 733.742 1282.6 734.009 1282.41 734.251C1280.77 736.304 1279.87 736.68 1280.01 735.236C1280.12 733.951 1280.84 732.323 1282.26 730.421L1287.01 724.161L1286.89 724.07Z" fill="#A0D0DB"/>
<path d="M1352.98 821.258C1352.17 820.073 1351.31 818.921 1350.56 817.703C1349.89 816.618 1349.24 815.549 1348.21 814.732C1347.95 814.523 1347.75 814.214 1347.52 813.956C1347.1 813.488 1346.69 813.004 1346.26 812.545C1346.06 812.336 1345.76 812.203 1345.62 811.969C1344.93 810.834 1344.12 809.808 1343.06 808.99C1342.63 808.014 1341.79 807.404 1341.04 806.695C1340.29 805.986 1339.65 805.151 1338.8 804.55C1338.57 804.392 1338.35 804.175 1338.21 803.941C1337.31 802.514 1336.15 801.329 1335 800.119C1333.77 798.825 1332.66 797.423 1331.71 795.888C1331.2 795.07 1330.55 794.335 1329.9 793.601C1329.14 792.733 1328.31 791.924 1327.53 791.072C1326.4 789.837 1325.24 788.644 1323.97 787.534C1322.27 786.057 1320.62 784.529 1319.01 782.952C1318.19 782.151 1317.5 781.208 1316.78 780.307C1315.34 778.504 1313.94 776.668 1312.47 774.89C1311.37 773.555 1310.2 772.27 1309.02 770.993C1307.92 769.8 1306.76 768.673 1305.65 767.496C1302.37 763.991 1299.1 760.469 1295.82 756.964C1295.04 756.121 1294.21 755.312 1293.42 754.477C1293.02 754.06 1292.64 753.626 1292.26 753.184C1290.89 751.548 1289.53 749.896 1288.13 748.277C1286.14 745.957 1284.1 743.662 1282.11 741.342C1280.97 740.023 1279.87 738.679 1278.57 737.528C1278.2 737.202 1278.24 736.96 1278.66 736.835C1279.39 736.61 1280.1 736.326 1280.96 736.676C1281.54 736.919 1282.05 737.169 1282.43 737.761C1282.99 738.621 1283.94 739.214 1284.28 740.24C1284.33 740.382 1284.48 740.524 1284.6 740.632C1286.93 742.568 1288.72 744.997 1290.65 747.292C1291.29 748.043 1291.99 748.727 1292.66 749.453C1293.08 749.921 1293.51 750.405 1293.92 750.889C1294.52 751.59 1295.08 752.333 1295.71 753.009C1296.19 753.518 1296.73 753.935 1296.84 754.686C1296.86 754.845 1297.11 755.103 1297.27 755.137C1297.88 755.262 1298.23 755.721 1298.6 756.155C1299.6 757.34 1300.58 758.558 1301.6 759.718C1302.36 760.578 1303.17 761.413 1303.99 762.214C1305.27 763.457 1306.6 764.65 1307.87 765.902C1308.93 766.954 1309.93 768.064 1310.98 769.14C1311.22 769.391 1311.5 769.591 1311.73 769.85C1312.17 770.317 1312.67 770.759 1312.96 771.294C1313.29 771.886 1313.6 772.295 1314.25 772.537C1314.62 772.671 1314.96 773.096 1315.23 773.447C1315.57 773.906 1315.85 774.415 1316.12 774.915C1316.44 775.516 1316.73 776.092 1317.39 776.468C1317.75 776.668 1318.04 777.127 1318.26 777.519C1319.23 779.238 1320.54 780.69 1321.92 782.084C1323.78 783.979 1325.68 785.831 1327.56 787.717C1328.29 788.46 1328.98 789.236 1329.69 790.004C1331.89 792.391 1333.95 794.894 1335.99 797.398C1336.4 797.89 1336.8 798.4 1337.26 798.825C1338.35 799.802 1339.27 800.912 1340.13 802.08C1341.16 803.482 1342.41 804.692 1343.66 805.894C1343.96 806.178 1344.28 806.428 1344.52 806.745C1346.21 808.965 1348.29 810.826 1350.07 812.962C1351.5 814.69 1352.83 816.509 1354.17 818.304C1355.21 819.689 1356.22 821.108 1357.23 822.501C1357.3 822.593 1357.4 822.66 1357.47 822.752C1358.04 823.561 1357.87 824.12 1356.99 824.271C1356.22 824.396 1355.5 824.162 1354.92 823.486C1354.29 822.735 1353.69 821.959 1353.07 821.199C1353.04 821.216 1353.01 821.233 1352.98 821.258Z" fill="#A0D0DB"/>
<path d="M1307.44 705.375C1307.36 706.844 1307.31 708.321 1307.16 709.773C1307.02 711.075 1306.88 712.352 1307.18 713.654C1307.26 713.987 1307.22 714.363 1307.25 714.713C1307.29 715.356 1307.31 716.007 1307.37 716.65C1307.4 716.942 1307.56 717.242 1307.52 717.518C1307.36 718.87 1307.37 720.213 1307.7 721.54C1307.44 722.608 1307.72 723.626 1307.88 724.67C1308.04 725.721 1308.03 726.789 1308.33 727.816C1308.42 728.091 1308.46 728.408 1308.42 728.684C1308.25 730.395 1308.44 732.089 1308.6 733.8C1308.77 735.627 1308.79 737.463 1308.59 739.299C1308.48 740.276 1308.55 741.294 1308.61 742.287C1308.67 743.472 1308.83 744.649 1308.92 745.834C1309.06 747.553 1309.24 749.255 1309.56 750.95C1309.98 753.211 1310.35 755.498 1310.64 757.793C1310.79 758.961 1310.76 760.155 1310.78 761.34C1310.81 763.71 1310.78 766.08 1310.84 768.442C1310.89 770.219 1311.02 771.997 1311.17 773.774C1311.3 775.427 1311.53 777.079 1311.68 778.731C1312.11 783.639 1312.52 788.546 1312.95 793.453C1313.05 794.63 1313.2 795.806 1313.31 796.983C1313.37 797.567 1313.41 798.16 1313.42 798.752C1313.51 800.947 1313.57 803.142 1313.67 805.328C1313.82 808.466 1314.01 811.604 1314.15 814.742C1314.23 816.52 1314.27 818.306 1314.6 820.058C1314.69 820.551 1314.52 820.726 1314.1 820.559C1313.39 820.275 1312.66 820.058 1312.19 819.232C1311.88 818.673 1311.63 818.147 1311.7 817.421C1311.79 816.37 1311.4 815.293 1311.77 814.25C1311.82 814.1 1311.79 813.891 1311.75 813.724C1311.11 810.686 1311.19 807.598 1311.09 804.519C1311.05 803.518 1310.92 802.508 1310.84 801.506C1310.79 800.855 1310.76 800.204 1310.73 799.553C1310.69 798.602 1310.7 797.651 1310.62 796.708C1310.55 795.998 1310.39 795.314 1310.76 794.646C1310.84 794.504 1310.79 794.129 1310.69 794.004C1310.29 793.52 1310.29 792.927 1310.28 792.335C1310.22 790.741 1310.19 789.147 1310.1 787.553C1310.03 786.376 1309.91 785.199 1309.75 784.031C1309.51 782.212 1309.19 780.409 1308.96 778.598C1308.77 777.079 1308.66 775.552 1308.51 774.025C1308.47 773.674 1308.37 773.324 1308.34 772.973C1308.29 772.322 1308.16 771.646 1308.26 771.029C1308.37 770.344 1308.37 769.81 1308 769.209C1307.79 768.867 1307.78 768.308 1307.79 767.857C1307.8 767.273 1307.9 766.689 1307.99 766.113C1308.11 765.42 1308.23 764.77 1307.94 764.052C1307.78 763.66 1307.83 763.109 1307.9 762.658C1308.19 760.655 1308.05 758.652 1307.83 756.658C1307.53 753.946 1307.16 751.25 1306.86 748.546C1306.73 747.486 1306.66 746.418 1306.58 745.35C1306.31 742.037 1306.24 738.715 1306.17 735.394C1306.15 734.743 1306.15 734.075 1306.05 733.441C1305.8 731.964 1305.75 730.486 1305.79 729.001C1305.83 727.207 1305.6 725.446 1305.34 723.685C1305.29 723.276 1305.19 722.859 1305.19 722.45C1305.23 719.596 1304.73 716.775 1304.64 713.929C1304.58 711.626 1304.65 709.322 1304.69 707.019C1304.73 705.241 1304.8 703.464 1304.86 701.686C1304.86 701.569 1304.83 701.453 1304.83 701.336C1304.88 700.326 1305.35 699.975 1306.14 700.409C1306.83 700.793 1307.25 701.444 1307.29 702.354C1307.33 703.364 1307.32 704.365 1307.34 705.375C1307.37 705.375 1307.41 705.375 1307.44 705.375Z" fill="#A0D0DB"/>
<path d="M1308.31 743.234L1352.29 757.572L1329.82 792.99" fill="#C0E3EB"/>
<path d="M1312.34 743.273C1313.3 743.766 1314.29 744.208 1315.22 744.759C1316.05 745.251 1316.86 745.744 1317.85 745.819C1318.11 745.835 1318.34 745.977 1318.59 746.052C1319.04 746.194 1319.49 746.344 1319.94 746.47C1320.15 746.528 1320.41 746.461 1320.58 746.57C1321.44 747.096 1322.35 747.463 1323.37 747.521C1324 748.064 1324.79 748.08 1325.56 748.222C1326.33 748.364 1327.04 748.673 1327.84 748.681C1328.05 748.681 1328.29 748.731 1328.46 748.84C1329.56 749.482 1330.77 749.774 1331.98 750.092C1333.29 750.434 1334.53 750.934 1335.71 751.627C1336.33 751.994 1337.04 752.22 1337.73 752.445C1338.56 752.712 1339.41 752.896 1340.25 753.138C1341.46 753.497 1342.67 753.797 1343.93 753.964C1345.6 754.198 1347.28 754.49 1348.93 754.848C1349.35 754.94 1349.76 755.074 1350.17 755.232C1350.84 755.483 1351.52 755.733 1352.2 755.983L1354.42 756.81L1351.28 761.341C1350.54 762.409 1349.87 763.528 1349.22 764.654C1348.61 765.706 1348.07 766.799 1347.46 767.851L1342.07 777.206C1341.64 777.957 1341.26 778.733 1340.83 779.484C1340.62 779.86 1340.39 780.227 1340.15 780.586C1339.25 781.921 1338.34 783.24 1337.47 784.583L1333.75 790.383C1333.04 791.477 1332.3 792.545 1331.79 793.755C1331.65 794.097 1331.43 794.097 1331.17 793.763C1330.71 793.196 1330.2 792.645 1330.18 791.902C1330.17 791.393 1330.2 790.951 1330.56 790.559C1331.1 790 1331.26 789.148 1332.01 788.739C1332.12 788.681 1332.18 788.539 1332.23 788.422C1333.03 786.277 1334.45 784.508 1335.7 782.639C1336.11 782.03 1336.44 781.362 1336.82 780.736C1337.06 780.327 1337.32 779.918 1337.57 779.526C1337.96 778.95 1338.38 778.399 1338.73 777.798C1338.99 777.348 1339.14 776.847 1339.74 776.672C1339.87 776.638 1340 776.388 1339.97 776.255C1339.84 775.737 1340.11 775.395 1340.35 775.036C1341 774.068 1341.68 773.117 1342.3 772.132C1342.76 771.406 1343.17 770.638 1343.55 769.87C1344.14 768.669 1344.67 767.425 1345.28 766.232C1345.79 765.23 1346.36 764.27 1346.91 763.286C1347.03 763.06 1347.1 762.802 1347.23 762.576C1347.47 762.167 1347.66 761.692 1348.02 761.391C1348.41 761.049 1348.64 760.74 1348.6 760.173C1348.57 759.856 1348.81 759.522 1349.02 759.255C1349.08 759.171 1349.15 759.088 1349.23 759.013L1349.34 758.896C1349.38 758.854 1349.38 758.888 1349.4 758.879C1349.47 758.879 1349.55 758.871 1349.64 758.838C1349.85 758.788 1350.19 758.554 1349.92 758.512C1349.85 758.504 1349.84 758.487 1349.87 758.462C1349.83 758.445 1349.85 758.395 1349.87 758.345C1349.89 758.245 1349.84 758.153 1349.74 758.061C1349.69 758.02 1349.63 757.978 1349.57 757.936L1349.47 757.878L1349.42 757.853L1349.29 757.803C1348.61 757.552 1347.9 757.36 1347.19 757.185L1341.36 755.842C1340.6 755.658 1339.84 755.433 1339.09 755.216C1336.76 754.54 1334.49 753.688 1332.21 752.829C1331.77 752.662 1331.32 752.478 1330.85 752.403C1329.76 752.228 1328.75 751.852 1327.76 751.41C1326.57 750.868 1325.29 750.601 1324.01 750.342C1323.7 750.283 1323.39 750.267 1323.12 750.142C1321.2 749.307 1319.12 748.99 1317.16 748.281C1315.58 747.705 1314.05 746.995 1312.51 746.311C1311.31 745.785 1310.14 745.218 1308.96 744.667C1308.88 744.634 1308.78 744.634 1308.71 744.6C1308.04 744.266 1307.97 743.724 1308.54 743.115C1309.04 742.572 1309.63 742.364 1310.25 742.581C1310.94 742.823 1311.63 743.106 1312.31 743.373L1312.34 743.273Z" fill="#A0D0DB"/>
<path d="M1315.06 772.92C1315.59 772.861 1316.11 772.761 1316.66 772.769C1317.16 772.778 1317.64 772.794 1317.97 772.394C1318.05 772.294 1318.19 772.285 1318.3 772.235C1318.5 772.144 1318.71 772.052 1318.91 771.943C1319 771.893 1319.05 771.718 1319.15 771.726C1319.67 771.751 1320.12 771.618 1320.45 771.192C1320.92 771.334 1321.15 770.975 1321.44 770.733C1321.73 770.491 1322.11 770.399 1322.33 770.032C1322.39 769.932 1322.48 769.865 1322.59 769.865C1323.24 769.865 1323.74 769.54 1324.26 769.231C1324.81 768.905 1325.43 768.722 1326.13 768.73C1326.51 768.739 1326.82 768.58 1327.14 768.438C1327.52 768.263 1327.86 768.013 1328.23 767.821C1328.76 767.545 1329.27 767.22 1329.72 766.769C1330.32 766.168 1330.96 765.626 1331.62 765.142C1331.96 764.9 1332.38 764.816 1332.77 764.691C1333.57 764.441 1334.39 764.249 1335.16 763.973C1335.75 763.765 1336.3 763.481 1336.85 763.189C1337.36 762.913 1337.83 762.555 1338.33 762.271C1339.83 761.42 1341.35 760.593 1342.85 759.751C1343.21 759.55 1343.55 759.3 1343.91 759.091C1344.08 758.983 1344.27 758.899 1344.47 758.824C1345.18 758.549 1345.9 758.29 1346.61 757.998C1347.62 757.572 1348.61 757.105 1349.62 756.688C1350.2 756.446 1350.78 756.245 1351.26 755.786C1351.39 755.661 1351.52 755.803 1351.63 756.195C1351.81 756.871 1352.02 757.572 1351.92 758.073C1351.85 758.415 1351.77 758.682 1351.49 758.691C1351.1 758.699 1350.88 759.158 1350.38 758.916C1350.32 758.883 1350.26 758.933 1350.21 758.974C1349.42 759.842 1348.34 760.051 1347.34 760.443C1347.01 760.568 1346.72 760.785 1346.41 760.944C1346.21 761.052 1346 761.144 1345.79 761.228C1345.48 761.353 1345.16 761.42 1344.87 761.587C1344.65 761.712 1344.48 761.929 1344.11 761.645C1344.03 761.587 1343.92 761.662 1343.92 761.77C1343.91 762.187 1343.71 762.238 1343.52 762.313C1343 762.513 1342.46 762.68 1341.95 762.913C1341.58 763.089 1341.23 763.306 1340.89 763.556C1340.37 763.948 1339.88 764.407 1339.35 764.783C1338.91 765.1 1338.43 765.342 1337.97 765.626C1337.87 765.693 1337.79 765.818 1337.68 765.876C1337.48 765.985 1337.31 766.168 1337.06 766.135C1336.78 766.093 1336.6 766.143 1336.54 766.544C1336.5 766.769 1336.32 766.827 1336.16 766.861C1335.96 766.903 1335.72 766.869 1335.49 766.836C1335.2 766.794 1334.94 766.736 1334.8 767.078C1334.74 767.261 1334.53 767.261 1334.34 767.245C1333.55 767.153 1332.92 767.47 1332.33 767.862C1331.53 768.388 1330.75 768.972 1329.95 769.515C1329.64 769.723 1329.3 769.89 1328.98 770.065C1327.95 770.616 1326.86 770.992 1325.75 771.359C1325.53 771.434 1325.31 771.493 1325.13 771.651C1324.73 772.018 1324.24 772.194 1323.72 772.294C1323.09 772.419 1322.58 772.803 1322.08 773.187C1321.97 773.278 1321.87 773.412 1321.72 773.445C1320.74 773.671 1319.97 774.389 1319.04 774.731C1318.28 775.006 1317.47 775.148 1316.67 775.323C1316.05 775.457 1315.42 775.549 1314.79 775.657C1314.75 775.665 1314.72 775.715 1314.68 775.715C1314.31 775.757 1314.01 775.357 1313.86 774.597C1313.71 773.929 1313.77 773.479 1314.06 773.362C1314.39 773.228 1314.73 773.145 1315.07 773.037C1315.08 772.986 1315.07 772.953 1315.06 772.92Z" fill="#A0D0DB"/>
<path d="M45.7915 799.188L18.6771 842.951C18.3934 843.402 18.9275 843.919 19.3698 843.627L60.8718 815.97L45.7915 799.188Z" fill="#C0E3EB"/>
<path d="M43.9392 804.448C42.9961 805.649 42.0948 806.884 41.1017 808.036C40.2171 809.063 39.3408 810.064 38.8234 811.349C38.6899 811.683 38.4395 811.975 38.2475 812.292C37.897 812.868 37.5382 813.436 37.2044 814.011C37.0541 814.278 37.0041 814.621 36.8121 814.838C35.8774 815.898 35.093 817.049 34.5755 818.368C33.7327 819.127 33.3655 820.162 32.8731 821.138C32.3807 822.123 31.7381 823.033 31.3792 824.084C31.2874 824.36 31.1289 824.652 30.9369 824.877C29.7769 826.238 28.934 827.79 28.0577 829.334C27.1147 830.995 26.0465 832.563 24.7947 834.016C24.127 834.792 23.5846 835.693 23.0421 836.569C22.4162 837.587 22.0574 838.339 21.59 839.14L21.4481 839.382C21.1477 839.899 20.889 840.391 20.7137 840.784C20.6303 840.984 20.5552 841.151 20.5218 841.293C20.4967 841.468 20.9641 841.627 21.3146 841.326C23.2174 839.699 24.1103 838.814 24.536 838.33C24.5193 838.33 24.6945 838.205 24.8114 838.121L25.1869 837.863C25.4373 837.688 25.696 837.529 25.963 837.362C26.4888 837.045 27.0146 836.728 27.5403 836.411C29.635 835.134 31.7631 833.907 33.8495 832.597C35.4101 831.612 36.9373 830.561 38.4478 829.501C39.8582 828.508 41.2102 827.439 42.6206 826.438L55.1137 817.558L56.5992 816.473L57.342 815.923L57.7092 815.647C57.801 815.58 57.7425 815.614 57.7592 815.605V815.597C57.7509 815.572 57.7425 815.58 57.7592 815.58H57.7676C57.7759 815.58 57.7843 815.572 57.7926 815.555V815.547V815.539L57.7259 815.464L57.1834 814.829L54.9885 812.317L48.4707 805.023C47.244 803.638 46.0506 802.228 44.6569 801.009C44.2646 800.667 44.2897 800.417 44.7236 800.292C45.4664 800.075 46.1757 799.791 47.077 800.166C47.6863 800.425 48.2204 800.7 48.646 801.318C49.2552 802.219 50.2567 802.854 50.6572 803.922C50.7157 804.072 50.8742 804.222 51.0078 804.339C53.4864 806.392 55.4392 808.937 57.5339 811.349C58.2182 812.134 58.9777 812.868 59.687 813.628C60.2295 814.212 60.8888 814.938 61.4646 815.589L61.9069 816.098C60.9806 816.69 60.0542 817.25 59.2197 817.842C58.6188 818.276 58.0931 818.785 57.3086 818.81C57.1417 818.818 56.8329 819.052 56.7745 819.211C56.5491 819.82 56.015 820.12 55.4976 820.454C54.1039 821.347 52.6935 822.215 51.3165 823.133C50.2984 823.817 49.3136 824.543 48.3456 825.295C46.8517 826.463 45.3996 827.69 43.8974 828.85C42.6373 829.818 41.327 830.719 40.0418 831.662C39.7414 831.879 39.491 832.146 39.1906 832.363C38.6398 832.755 38.0973 833.223 37.4965 833.465C36.8288 833.732 36.3531 834.016 36.0026 834.65C35.8023 835.009 35.3099 835.317 34.901 835.551C34.3753 835.852 33.7994 836.077 33.2403 836.302C32.5643 836.569 31.9217 836.803 31.421 837.437C31.1539 837.779 30.6365 838.03 30.1942 838.205C29.2261 838.606 28.3165 839.106 27.4318 839.657C26.9895 839.933 26.5639 840.225 26.1383 840.525L24.1437 841.935L21.2312 844.022C20.2547 844.664 19.6288 844.748 19.1281 844.873C18.8527 844.931 18.6774 844.956 18.4605 844.99C18.352 844.998 18.2769 845.015 18.1851 845.015C18.0933 845.015 17.9013 844.94 17.7344 844.815C17.5675 844.689 17.4173 844.514 17.3338 844.389C17.2504 844.255 17.2587 844.214 17.2337 844.147L17.0918 843.68L17.025 843.346C17.0083 843.229 17.0083 843.062 17 842.928C17.0334 842.595 17.0167 842.236 17.3589 841.635L18.352 839.991L20.9057 835.81L22.291 833.615C23.2257 832.163 24.1771 830.727 25.1368 829.292C25.5124 828.733 25.9046 828.165 26.1884 827.556C26.856 826.154 27.6989 824.877 28.6085 823.634C29.7018 822.132 30.553 820.496 31.3959 818.852C31.5879 818.468 31.7548 818.059 31.9968 817.709C33.7243 815.297 34.9845 812.609 36.6035 810.139C37.9137 808.136 39.3408 806.217 40.7345 804.281C41.8111 802.787 42.9294 801.318 44.031 799.832C44.1061 799.732 44.1394 799.607 44.2146 799.515C44.8572 798.681 45.4497 798.664 45.8336 799.482C46.1674 800.208 46.134 801.001 45.6249 801.794C45.0658 802.67 44.4649 803.53 43.8807 804.398L43.9392 804.448Z" fill="#A0D0DB"/>
<path d="M45.1641 827.395L45.79 799.188L60.8619 815.962L45.1641 827.395Z" fill="#A0D0DB"/>
<path d="M86.3164 815.96L83.2453 812.313C80.9169 803.467 72.4546 794.053 68.2735 790.481C67.4306 789.764 63.4665 786.417 58.7096 783.237L54.37 778.097L46.0996 772.73L40.9421 777.955C36.5441 781.393 39.9574 792.876 42.1773 798.226C49.9219 816.911 72.8301 831.583 80.1491 825.04C80.508 824.723 80.8335 824.389 81.1339 824.055L85.6655 819.507L86.3164 815.96Z" fill="#C0E3EB"/>
<path d="M81.5835 810.994C81.1579 809.291 80.507 807.614 79.8727 805.936C79.2802 804.459 78.6543 802.974 77.5193 801.764C77.2355 801.447 77.0186 801.038 76.7599 800.687C76.2925 800.036 75.8168 799.394 75.2994 798.776C75.0741 798.492 74.7236 798.275 74.54 797.992C73.6804 796.548 72.6122 795.254 71.2936 794.211C70.6343 793.043 69.5494 792.3 68.5229 791.499C67.5047 790.706 66.4949 789.813 65.3349 789.195C65.0261 789.028 64.7007 788.803 64.4586 788.561C62.9565 787.051 61.2039 785.857 59.418 784.714L58.7003 784.247C58.5167 784.113 58.0827 783.896 57.8657 783.554C57.4985 783.112 57.1397 782.669 56.7892 782.219C56.0881 781.309 55.4289 780.374 54.8029 779.415L54.4441 778.88C54.3273 778.722 54.2104 778.563 54.0936 778.396L53.6429 778.079L53.1339 777.737L52.1074 777.069C50.8639 776.26 49.5703 775.534 48.3102 774.749L47.0834 773.998L46.1487 773.464C45.8566 773.798 45.5979 774.115 45.3392 774.432C44.9636 774.875 44.5964 775.317 44.2376 775.768C43.3196 776.894 42.4767 777.996 41.4585 779.114C40.7993 779.899 40.5072 781.05 40.4321 782.302C40.3486 783.562 40.2985 784.956 40.407 786.35C40.6407 789.145 41.2249 791.999 42.0845 794.762C42.7354 796.848 43.5866 798.843 44.6298 800.737C45.5979 802.515 46.7496 804.176 47.9346 805.811C51.4898 810.627 55.8127 814.899 60.6615 818.329C61.8298 819.147 63.0483 819.882 64.275 820.574C64.8843 820.925 65.4935 821.275 66.111 821.617C67.246 822.252 68.3977 822.836 69.5744 823.32C70.7511 823.821 71.9529 824.205 73.1463 824.438C74.0059 824.63 74.8404 824.68 75.6499 824.68C76.4427 824.639 77.1771 824.497 77.8197 824.246C78.1118 824.079 78.4206 823.954 78.6543 823.737L78.8546 823.595L79.0799 823.362L79.5389 822.903L81.6169 820.833L82.9605 819.506C83.3695 819.097 84.0204 818.446 83.8702 818.58V818.546V818.53V818.521L83.8869 818.43L83.987 817.704C84.0538 817.219 84.1039 816.735 84.1456 816.251C84.1957 815.625 84.421 815.467 84.7715 815.767C85.3807 816.285 86.0317 816.735 86.2486 817.862C86.3571 818.471 86.4573 818.922 86.3071 819.848C86.1402 820.024 85.9566 820.199 85.7479 820.374C84.688 821.225 83.987 822.394 82.7686 823.011C82.6017 823.095 82.4264 823.295 82.2929 823.47C81.692 824.213 81.1078 824.989 80.3484 825.698C79.5556 826.441 78.5207 826.858 77.5026 827.092C75.4329 827.534 73.3883 827.176 71.4855 826.658C70.2337 826.333 68.9986 825.949 67.8052 825.473L66.6618 824.972L65.5519 824.413C64.4837 823.854 63.4739 823.178 62.439 822.577C61.6713 822.102 60.8451 821.743 60.4278 820.925C60.336 820.758 59.9437 820.499 59.7435 820.483C59.0091 820.407 58.4332 819.923 57.849 819.456C56.2801 818.179 54.8196 816.785 53.3675 815.392C52.2993 814.357 51.2227 813.314 50.1712 812.254C48.5355 810.61 46.9415 808.916 45.5061 807.055C44.3043 805.502 43.2862 803.808 42.3014 802.089C42.0845 801.689 41.8091 801.321 41.5921 800.912C41.2165 800.161 40.7742 799.377 40.5906 798.601C40.3987 797.733 40.19 797.09 39.5975 796.439C39.272 796.072 39.0467 795.379 38.9048 794.812C38.7129 794.077 38.6211 793.326 38.5543 792.584C38.4709 791.691 38.4208 790.856 37.9785 789.98C37.7365 789.504 37.6781 788.786 37.6781 788.194C37.6697 786.884 37.6113 785.582 37.628 784.255C37.6447 782.928 37.7031 781.568 38.0786 780.157C38.3457 779.206 38.788 778.229 39.5391 777.395C40.1567 776.802 40.6824 776.135 41.2583 775.509L42.9524 773.598L43.378 773.122L43.5866 772.88L43.8954 772.546L45.5061 770.819L45.8316 770.477C47.3004 771.395 48.7692 772.313 50.238 773.231L52.8167 774.866L55.5958 776.694L57.7739 779.373L59.7601 781.851L59.8102 781.91L59.8186 781.927L59.8353 781.952C59.8436 781.968 59.8603 781.977 59.8686 781.985L60.3527 782.327C60.6948 782.561 61.037 782.794 61.3959 782.995C63.0399 783.946 64.5254 785.098 65.9358 786.35C67.6216 787.86 69.4659 789.145 71.2602 790.673C71.6691 791.023 72.1114 791.349 72.4619 791.741C74.8738 794.52 77.4776 797.107 79.5139 800.195C81.1496 802.69 82.5015 805.394 83.5364 808.231C83.7283 808.782 83.8952 809.35 84.0705 809.909C84.1623 810.184 84.2207 810.476 84.2875 810.76L84.3876 811.194L84.4377 811.411L84.4627 811.519C84.4627 811.536 84.4627 811.536 84.4627 811.545C84.4627 811.561 84.4544 811.636 84.4794 811.67C84.5128 811.728 84.4877 811.711 84.5795 811.828L85.0719 812.504L86.0567 813.848C86.1402 813.965 86.2653 814.065 86.3488 814.182C87.0832 815.217 86.958 815.843 85.9983 815.868C85.147 815.893 84.3125 815.509 83.5864 814.624L82.2929 813.013C82.2595 812.963 82.2094 812.922 82.1844 812.871L82.1343 812.696L82.0342 812.329L81.909 811.853L81.6753 810.985L81.5835 810.994Z" fill="#A0D0DB"/>
<path d="M73.7852 784.951C71.8157 783.274 52.9299 767.351 46.4539 772.417C42.0558 775.855 45.4691 787.338 47.689 792.688C55.4336 811.373 78.3419 826.045 85.6608 819.502C96.6852 809.637 80.1946 790.426 73.7852 784.951Z" fill="#C0E3EB"/>
<path d="M68.1644 781.986C66.8876 780.809 65.544 779.699 64.2588 778.547C63.1154 777.521 61.9554 776.519 60.4866 775.927C60.1111 775.777 59.7522 775.518 59.3934 775.309C58.7257 774.942 58.0497 774.583 57.3571 774.258C57.0399 774.108 56.6477 774.091 56.3806 773.907C55.0537 773.039 53.5682 772.388 51.9909 772.288C50.881 771.704 49.5958 771.804 48.5192 772.13C47.451 772.43 46.4495 773.031 46.1157 774.074C46.0323 774.341 45.9154 774.633 45.7652 774.884C45.3312 775.668 45.1226 776.62 45.0642 777.579C45.0141 778.547 45.0976 779.532 45.2311 780.509C45.5566 782.628 45.8737 784.74 46.1992 786.868C46.3577 788.02 46.7416 789.163 47.1339 790.281C47.6012 791.608 48.2355 792.868 48.8363 794.128C49.7376 795.948 50.8059 797.675 52.0744 799.244C53.7769 801.339 55.5962 803.325 57.4989 805.22C58.4587 806.188 59.3349 807.256 60.2947 808.257C62.1891 810.252 64.192 812.18 66.3952 813.84C68.0476 815.092 69.8252 816.186 71.6695 817.104C73.3887 817.955 75.1996 818.597 76.9939 819.048C78.3209 819.398 79.6645 819.582 80.933 819.54C82.1931 819.499 83.3615 819.19 84.171 818.547C84.3713 818.389 84.5716 818.238 84.7969 817.98C85.0056 817.746 85.2476 817.529 85.4312 817.279L85.9903 816.536L86.4493 815.743C87.0085 814.658 87.3173 813.465 87.4007 812.23C87.4842 811.036 87.3173 809.81 87.0419 808.583C86.8833 807.974 86.7498 807.356 86.5662 806.73C85.9319 804.427 84.9138 802.148 83.6703 799.97C81.876 796.857 79.6645 793.936 77.2777 791.191C75.9257 789.639 74.5153 788.095 72.8796 786.926C72.4206 786.609 72.4039 786.35 72.8295 786.184C73.5556 785.9 74.265 785.549 75.2998 785.95C75.9925 786.225 76.6184 786.534 77.1441 787.227C77.9119 788.228 79.0386 788.996 79.531 790.206C79.5977 790.381 79.773 790.557 79.9315 790.698C82.6772 793.219 84.6801 796.423 86.4243 799.703C87.0001 800.771 87.601 801.848 88.1101 802.958C88.4272 803.692 88.7193 804.435 88.9613 805.195C89.3118 806.304 89.5455 807.448 89.7541 808.599C89.9211 809.459 90.1213 810.335 89.7041 811.136C89.6123 811.303 89.629 811.762 89.7291 811.929C90.0462 812.58 89.9377 813.34 89.7374 814.066C89.2701 816.052 88.1769 817.855 86.7832 819.29C86.5161 819.549 86.2741 819.824 85.9903 820.074C85.6732 820.308 85.3895 820.6 85.039 820.775C84.6968 820.967 84.363 821.184 83.9958 821.31L83.4533 821.527C83.2697 821.585 83.0778 821.627 82.8942 821.685C81.7342 822.002 80.5324 822.102 79.364 822.044C78.1873 822.019 77.044 821.819 75.9174 821.56C74.0396 821.101 72.2621 820.358 70.5512 819.54C70.1507 819.357 69.7417 819.206 69.3495 819.006C68.6318 818.639 67.8723 818.263 67.2965 817.754C66.6789 817.162 66.1448 816.803 65.327 816.628C64.868 816.528 64.3005 816.127 63.8832 815.752C63.3324 815.284 62.84 814.75 62.381 814.199C61.8135 813.557 61.3295 812.922 60.4866 812.522C60.0193 812.313 59.5936 811.779 59.2515 811.345C57.7576 809.392 56.0719 807.656 54.4111 805.854C52.1662 803.409 50.0631 800.796 48.2855 797.926C47.935 797.367 47.6012 796.791 47.3008 796.198C46.9837 795.614 46.6832 795.021 46.4162 794.412C45.5149 792.534 44.8389 790.598 44.2547 788.629C43.6872 786.659 43.2365 784.648 42.9528 782.578C42.8443 781.769 42.7775 780.934 42.6357 780.116C42.3352 778.239 42.377 776.202 43.2032 774.149C43.7039 772.939 44.5134 771.637 45.7736 770.803C47.0087 769.935 48.4608 769.609 49.746 769.534C50.3636 769.484 50.9561 769.493 51.5236 769.584C53.4514 770.01 55.1872 770.603 56.8647 771.279C58.5338 771.955 60.1361 772.731 61.6299 773.649C64.0501 775.142 66.2617 776.878 68.4148 778.656C70.0755 780.025 71.6528 781.477 73.2134 782.954C73.3136 783.054 73.4471 783.121 73.5473 783.221C74.4152 784.089 74.3818 784.715 73.4638 784.915C72.6459 785.099 71.8031 784.89 70.9685 784.206L68.2229 781.919L68.1644 781.986Z" fill="#A0D0DB"/>
<path d="M92.4038 754.398L61.7175 785.978C60.3405 787.396 59.8815 789.449 60.4907 791.327C60.8496 792.429 61.3503 793.622 62.0597 794.849C63.6537 797.595 65.715 799.514 67.5593 800.816C69.629 802.268 72.4247 802.076 74.2524 800.332C84.6592 790.434 95.0576 780.545 105.464 770.647L92.4038 754.398Z" fill="#C0E3EB"/>
<path d="M77.4002 795.692C78.6187 794.766 79.8121 793.789 81.0639 792.921C82.1822 792.145 83.2921 791.394 84.1183 790.276C84.3353 789.984 84.6524 789.758 84.9195 789.508C85.4035 789.041 85.8959 788.582 86.3716 788.098C86.5886 787.881 86.7221 787.555 86.9641 787.397C88.1408 786.604 89.1924 785.686 90.0353 784.534C91.0451 784.008 91.671 783.099 92.397 782.273C93.1231 781.446 93.9827 780.72 94.6002 779.794C94.7671 779.552 94.9841 779.302 95.2261 779.135C96.6949 778.108 97.9134 776.815 99.1568 775.538C100.492 774.169 101.936 772.909 103.513 771.816C103.839 771.582 104.031 771.448 104.289 771.24C104.531 771.039 104.765 770.831 104.999 770.614L104.548 770.046L104.056 769.454L103.463 768.77L102.245 767.367C101.093 765.99 99.9079 764.664 98.6144 763.42C96.8869 761.751 95.2011 760.04 93.5654 758.271C93.3567 758.046 93.1565 757.812 92.9645 757.578L92.6808 757.219L92.614 757.119L92.3303 756.635L92.3219 756.627L91.9046 756.936L91.7794 757.028L91.4623 757.32L90.7863 757.945C89.8934 758.78 89.0004 759.623 88.1158 760.482C86.7889 761.776 85.5204 763.128 84.2602 764.497C83.0835 765.765 81.9819 767.1 80.8135 768.377L70.4067 779.727L67.9532 782.498C67.5442 782.957 67.1103 783.399 66.6763 783.833L64.2394 786.245L63.0627 787.413C62.8123 787.672 62.6037 787.972 62.4535 788.298C62.2365 788.765 62.1364 789.291 62.1531 789.817C62.1697 790.075 62.2115 790.334 62.2782 790.593C62.3033 790.701 62.37 790.893 62.4285 791.06L62.6204 791.578C63.1462 792.946 63.8555 794.24 64.7151 795.425C65.6832 796.769 66.8682 798.012 68.3287 798.822C68.7376 799.047 68.7543 799.28 68.3788 799.506C67.7278 799.89 67.0852 800.332 66.1172 800.082C65.4662 799.906 64.882 799.673 64.4063 799.047C63.7303 798.154 62.7122 797.428 62.4368 796.276C62.3951 796.118 62.2615 795.942 62.1364 795.8C61.0515 794.549 60.2753 793.047 59.7746 791.453C59.2405 789.708 59.6077 787.755 60.6592 786.312C60.8261 786.07 61.0097 785.844 61.21 785.627L61.7441 785.035L62.804 783.866C63.2713 783.366 63.7387 782.882 64.2227 782.398C64.9237 781.697 65.6582 781.037 66.3258 780.303C66.8265 779.752 67.2354 779.143 67.9949 778.943C68.1534 778.901 68.4122 778.609 68.4372 778.442C68.529 777.799 68.988 777.39 69.4303 776.956C70.607 775.788 71.8171 774.636 72.9688 773.443C73.82 772.558 74.6379 771.632 75.4223 770.689C76.6491 769.229 77.8091 767.718 79.0443 766.258C80.0708 765.039 81.1724 763.879 82.2322 762.686C82.4743 762.41 82.6745 762.093 82.9249 761.818C83.3839 761.317 83.8179 760.741 84.352 760.382C84.9529 759.982 85.3534 759.606 85.5704 758.905C85.6873 758.513 86.1129 758.104 86.4634 757.787C86.9141 757.378 87.4315 757.036 87.9405 756.702C88.5498 756.293 89.1256 755.926 89.4844 755.2C89.5095 755.15 89.5345 755.1 89.5679 755.058C89.5929 755.016 89.6263 754.966 89.7098 754.874C89.8517 754.716 90.0019 754.557 90.1604 754.407C90.4776 754.098 90.8197 753.814 91.1118 753.581C91.5958 753.189 92.0465 752.813 92.4805 752.438C92.9061 753.047 93.315 753.614 93.7239 754.157L94.3332 754.958L94.8756 755.65C95.4014 756.318 95.9605 756.952 96.528 757.587L102.27 763.871C103.012 764.697 103.722 765.557 104.44 766.408L105.691 767.918L108.003 770.806L105.758 772.909L104.373 774.177L101.969 776.331C101.46 776.781 100.934 777.232 100.5 777.749C99.499 778.943 98.3557 779.969 97.1539 780.946C95.7102 782.122 94.4667 783.499 93.2316 784.885C92.9478 785.21 92.6808 785.569 92.3553 785.836C90.0686 787.739 88.1575 790.034 85.9627 792.02C84.1851 793.631 82.3157 795.133 80.463 796.66C79.0359 797.837 77.5755 798.98 76.1317 800.14C76.0399 800.215 75.9648 800.324 75.873 800.399C75.0385 801.041 74.4543 800.916 74.2957 800.032C74.1538 799.247 74.3959 798.488 75.0885 797.837C75.8563 797.127 76.6575 796.443 77.4419 795.75L77.4002 795.692Z" fill="#A0D0DB"/>
<path d="M91.828 783.624L90.3008 756.56L92.4038 754.398L105.473 770.647L91.828 783.624Z" fill="#A0D0DB"/>
<path d="M118.919 776.88C119.061 776.596 119.186 776.296 119.286 775.995L121.531 770.546L114.513 757.627L95.9189 741.996L92.0466 745.785C90.5278 746.669 89.6682 748.773 89.4595 750.884C88.1827 763.97 108.621 783.39 116.866 779.017C117.809 778.516 118.452 777.765 118.886 776.922H118.894L118.919 776.88Z" fill="#C0E3EB"/>
<path d="M119.538 772.255L120.122 771.229C120.239 771.02 120.272 770.995 120.339 770.887L120.539 770.595C120.472 770.328 120.447 770.152 120.264 769.618C119.922 768.542 119.588 767.482 118.845 766.606C118.653 766.38 118.553 766.071 118.403 765.804C118.136 765.32 117.877 764.828 117.585 764.352C117.451 764.135 117.201 763.968 117.134 763.743C116.784 762.616 116.3 761.582 115.524 760.68C115.373 759.737 114.747 759.07 114.23 758.318L114.03 758.026L113.22 757.417C112.911 757.2 112.594 756.992 112.244 756.833C112.018 756.733 111.793 756.574 111.643 756.382C110.691 755.239 109.515 754.371 108.346 753.478C107.095 752.518 105.943 751.442 104.933 750.207C104.399 749.547 103.723 748.997 103.064 748.446C102.279 747.795 101.445 747.211 100.644 746.568C99.4835 745.642 98.3068 744.766 97.0383 743.998L96.813 743.856L96.6711 743.789L96.4124 743.672C96.2538 743.605 96.112 743.547 95.9868 743.505C95.7865 743.814 95.6446 744.064 95.5278 744.265L94.301 745.717C94.1341 745.909 93.9588 746.092 93.7836 746.268L93.1911 746.827C93.1076 746.902 93.0325 746.985 92.9323 747.035C92.8405 747.085 92.7237 747.169 92.707 747.169C92.6403 747.202 92.5818 747.252 92.5151 747.286C92.3899 747.378 92.2647 747.486 92.1395 747.611C91.6555 748.129 91.2466 748.897 90.9795 749.731C90.6958 750.566 90.5956 751.475 90.5789 752.41C90.5622 753.812 90.8627 755.239 91.3467 756.599C91.789 757.876 92.4149 759.086 93.0826 760.271C95.0354 763.81 97.6475 767.014 100.585 769.793C101.295 770.461 102.054 771.07 102.813 771.671L103.923 772.598C105.284 773.758 106.702 774.842 108.213 775.719C110.341 776.971 112.778 777.847 114.706 777.663C115.799 777.588 116.625 777.104 116.934 776.178C116.976 776.053 117.034 775.986 117.134 775.986L119.312 774.959V774.968L117.067 776.153C117.168 776.119 117.301 776.169 117.443 776.303L119.229 775.36L119.221 775.377L117.518 776.178L117.526 776.186C118.036 776.687 118.603 777.238 118.428 778.106C118.303 778.681 118.01 779.241 117.334 779.508C117.092 779.608 116.85 779.674 116.617 779.791L116.266 779.95L115.899 780.05C115.407 780.209 114.889 780.217 114.414 780.042C114.28 780 114.096 780.008 113.938 780.025C112.536 780.225 111.117 779.917 109.84 779.424C108.563 778.915 107.387 778.214 106.243 777.505C105.876 777.263 105.492 777.037 105.117 776.82L103.998 776.111C103.531 775.786 103.08 775.435 102.63 775.085L100.769 773.44C100.285 773.057 99.7589 772.714 99.6421 772.038C99.6171 771.897 99.3667 771.688 99.2165 771.671C98.6406 771.621 98.3068 771.221 97.9563 770.845C97.0383 769.793 96.162 768.717 95.3192 767.615L93.383 765.203C92.3732 763.96 91.3717 762.675 90.5372 761.256C89.8278 760.079 89.2937 758.794 88.8013 757.476C88.6928 757.167 88.5259 756.883 88.4258 756.566C88.2589 755.99 88.0336 755.373 88.0669 754.788C88.1337 754.129 88.0586 753.662 87.7081 753.078C87.5161 752.752 87.4661 752.201 87.5412 751.751C87.6079 751.175 87.7498 750.616 87.9751 750.073C88.2339 749.422 88.5259 748.871 88.5259 748.087C88.5343 747.661 88.8347 747.152 89.1519 746.785C89.494 746.376 89.8612 745.976 90.2701 745.608C90.4788 745.425 90.6958 745.249 90.9294 745.091C91.0296 745.016 91.2048 744.907 91.2549 744.882C91.2966 744.866 91.3384 744.841 91.3717 744.807C91.9893 744.24 92.5902 743.605 93.166 742.963L93.6083 742.462L94.301 741.719L95.8533 740.059L98.6073 742.153L100.377 743.422C101.119 743.964 101.829 744.549 102.546 745.116C104.783 746.894 106.903 748.805 109.014 750.724C109.431 751.1 109.84 751.492 110.308 751.792C111.393 752.485 112.336 753.328 113.237 754.238C113.604 754.613 113.996 754.964 114.405 755.289L115.023 755.773L115.34 756.007L115.916 756.449L116.258 757.025L116.475 757.35L116.884 757.951C117.084 758.243 117.326 758.527 117.468 758.844C118.469 761.089 119.93 763.075 121.032 765.254C121.399 765.98 121.741 766.714 122.075 767.448L122.567 768.558L122.625 768.7L122.717 768.901L122.959 769.41L123.435 770.403L122.625 772.114C121.924 773.474 121.182 774.809 120.456 776.161C120.414 776.236 120.406 776.328 120.372 776.403L120.406 776.32L120.381 776.37C119.88 777.313 119.337 777.304 118.82 776.595C118.57 776.27 118.394 775.952 118.336 775.644L118.361 775.577C118.319 775.268 118.369 774.951 118.511 774.617C118.853 773.824 119.237 773.048 119.604 772.264L119.538 772.255Z" fill="#A0D0DB"/>
<path d="M97.8072 740.975C95.7209 741.292 94.5692 743.637 94.3272 745.991C93.1254 757.916 112.403 775.617 120.181 771.628C123.244 770.059 123.019 765.861 122.652 764.501C119.339 752.049 103.582 740.099 97.8072 740.975Z" fill="#C0E3EB"/>
<path d="M96.0628 743.961C95.5454 744.729 95.2199 745.697 94.9696 746.707C94.7109 747.6 94.6024 748.585 95.003 749.486C95.1198 749.72 95.1198 749.987 95.1782 750.245C95.2784 750.704 95.4369 751.155 95.5871 751.606C95.6539 751.814 95.8792 751.973 95.9043 752.173C95.9627 752.674 96.0712 753.166 96.2715 753.617C96.4467 754.084 96.7221 754.502 97.0559 754.885C97.1227 755.728 97.7152 756.287 98.2076 756.897C98.6917 757.506 99.0922 758.199 99.7265 758.691C99.9018 758.816 100.06 758.991 100.144 759.175C100.67 760.343 101.571 761.253 102.455 762.146C103.432 763.089 104.308 764.107 105.118 765.234C105.552 765.826 106.127 766.335 106.712 766.786C107.396 767.345 108.164 767.796 108.907 768.272C109.975 768.973 111.118 769.532 112.328 769.882C113.939 770.333 115.566 770.658 117.018 770.625C117.744 770.6 118.42 770.633 119.046 770.491C119.672 770.341 120.198 770.049 120.632 769.573C121.066 769.106 121.4 768.447 121.567 767.712C121.7 767.162 121.742 766.561 121.708 765.977C121.692 765.684 121.658 765.392 121.6 765.125C121.575 764.975 121.542 764.883 121.5 764.741L121.35 764.291C120.982 763.164 120.423 762.113 119.864 761.069C118.212 757.957 115.983 755.136 113.471 752.624C112.862 752.023 112.211 751.472 111.569 750.913C111.243 750.638 110.934 750.346 110.626 750.045C109.491 748.952 108.314 747.892 107.054 746.941C105.251 745.605 103.315 744.412 101.362 743.577C100.811 743.344 100.261 743.135 99.7265 743.018C99.1924 742.885 98.675 742.885 98.3078 743.001C98.1325 743.077 98.0324 742.893 98.0574 742.492C98.1158 741.8 98.2327 741.024 98.942 740.656C99.4177 740.423 99.9101 740.289 100.444 740.531C101.195 740.89 102.13 740.873 102.689 741.591C102.764 741.691 102.923 741.733 103.056 741.766C105.41 742.342 107.304 743.878 109.123 745.33C109.724 745.806 110.367 746.231 110.968 746.707C111.36 747.016 111.736 747.341 112.103 747.683C112.637 748.176 113.113 748.727 113.647 749.202C114.047 749.569 114.523 749.853 114.556 750.496C114.565 750.629 114.773 750.821 114.915 750.83C115.466 750.846 115.725 751.222 116.017 751.564C116.801 752.499 117.519 753.483 118.245 754.46C118.788 755.177 119.355 755.887 119.914 756.605C120.79 757.715 121.675 758.841 122.393 760.093C122.994 761.144 123.469 762.271 123.887 763.431C123.987 763.723 124.137 763.907 124.237 764.266C124.396 764.9 124.538 765.484 124.421 766.035C124.287 766.636 124.22 767.07 124.496 767.679C124.638 768.021 124.521 768.547 124.379 768.956C124.179 769.49 123.862 769.974 123.486 770.408C123.044 770.942 122.543 771.309 122.192 772.01C121.984 772.378 121.466 772.67 121.032 772.803C119.105 773.396 117.369 773.371 115.691 773.195C113.438 772.895 111.318 772.161 109.366 771.192C108.598 770.817 107.88 770.35 107.162 769.891C104.967 768.413 103.048 766.611 101.337 764.65C101.012 764.257 100.67 763.865 100.286 763.531C99.3843 762.772 98.6666 761.846 98.0658 760.836C97.3314 759.634 96.4467 758.549 95.6038 757.406C95.4119 757.139 95.1699 756.88 95.0363 756.588C94.1267 754.493 92.9249 752.457 92.4993 750.053C92.1739 748.117 92.2823 746.048 92.9917 744.078C93.2671 743.327 93.6427 742.593 94.1601 741.917C94.6858 741.257 95.3535 740.631 96.2047 740.256C96.3132 740.206 96.4134 740.122 96.5302 740.081C97.0393 739.922 97.4148 740.014 97.5901 740.214C97.7653 740.414 97.7486 740.732 97.6568 741.14C97.4816 741.858 97.3814 742.3 97.0393 742.559C96.6387 742.851 96.2548 743.327 95.9544 743.878L96.0628 743.961Z" fill="#A0D0DB"/>
</svg>
