<svg width="1347" height="271" viewBox="0 0 1347 271" fill="none" xmlns="http://www.w3.org/2000/svg">
<path d="M58.7537 24.5183C58.044 23.3707 56.9567 21.619 55.8845 19.8824L54.2084 17.134C53.7855 16.4696 53.3627 15.8354 53.2117 15.1558C53.0758 14.5367 52.6529 14.0233 52.1546 13.5702C51.8375 13.2682 51.46 12.936 51.2033 12.5585L49.5724 10.0064C49.059 9.23629 48.5606 8.52655 47.9264 7.87721C47.0958 7.01646 46.22 6.29162 45.4045 5.47618C44.876 4.93255 44.2115 4.85704 43.5622 4.78154C42.7619 4.67583 42.5505 4.57012 42.1428 3.90569C41.8861 3.51307 41.6142 3.43756 41.3424 3.61877C41.0555 3.83018 40.9196 3.99629 40.225 3.90569C38.2317 3.57347 36.178 3.70938 34.2149 4.20771C33.6561 4.31341 32.75 4.85704 32.8255 4.1171C32.8255 4.0718 32.735 4.02649 32.6897 4.04159C31.7383 4.37381 30.8322 4.81174 29.9714 5.34027C29.2768 6.36713 27.7819 6.86545 26.8456 7.7715C26.6644 7.95271 26.2869 8.19433 26.1207 8.22453C25.1241 8.36044 24.1728 9.4779 23.2063 9.71951C22.5872 9.87052 22.2701 10.2178 22.0285 10.6558C21.802 11.0635 21.4999 11.4108 20.9412 11.7883L13.2549 17.1793C11.6693 18.2666 10.0535 19.3539 8.48298 20.426C5.81013 22.4344 3.99805 25.5603 3.31851 28.8825C2.91079 30.8003 2.75974 32.8087 2.98625 34.802C3.12216 35.5721 3.22793 36.297 3.62055 36.9765C4.28499 38.396 5.19103 39.6192 6.15748 40.8423C7.13903 42.0806 8.10545 43.3491 9.0417 44.6175C10.9142 47.1847 12.7263 49.8122 14.5233 52.4398C15.0669 53.2401 15.4444 54.1764 16.0032 54.9163C16.5921 55.6865 17.1811 56.3358 17.6341 57.2419C17.9361 57.8761 18.5401 58.5103 19.0385 58.9633C20.2465 59.8996 21.4093 60.8057 22.6778 61.6211C23.9463 62.3912 25.3054 63.0708 26.755 63.4936C28.6276 64.0372 30.6359 64.3543 32.6292 64.0976C34.6376 63.8409 36.5706 63.0557 38.2619 61.9684C38.579 61.757 38.881 61.5607 39.1981 61.3493C39.485 61.153 40.1494 60.7453 40.7535 60.7301C41.3726 60.6697 41.9767 60.8359 42.475 61.153C42.9733 61.4701 43.3509 61.9533 43.5472 62.4969C43.7435 63.101 43.7434 63.4483 43.8491 63.8862C44.1964 65.502 44.6344 67.0725 44.8911 68.7336C44.9817 69.3074 45.1177 69.8964 45.2536 70.4551C45.8274 72.7051 46.4918 74.9551 46.22 77.2354L46.4012 78.232L46.4918 78.7152C46.5069 78.7605 46.522 78.7757 46.5371 78.7908C46.5522 78.821 46.6579 78.8361 46.7183 78.821C46.7485 78.8059 46.7636 78.8058 46.7787 78.7757C46.7938 78.7303 46.7939 78.7908 46.8543 78.5793C47.0506 77.93 47.1864 77.1448 47.4582 76.6615C48.2284 75.3327 48.4852 74.1548 48.455 72.7504C48.4398 71.9803 48.7267 70.9685 48.908 70.0474C49.0288 69.3829 49.1949 68.7487 49.663 68.3863C49.7989 68.2806 50.0708 67.6463 50.0708 67.4198C50.0708 66.5289 50.5389 65.7889 50.7201 65.0339C50.9919 63.9164 51.2939 63.0406 51.8526 62.1949C52.0338 61.9231 52.2151 61.2738 52.2302 60.9114C52.3057 58.5405 52.9701 56.0791 53.6496 53.6177L54.0724 52.1076L54.2839 51.3525L54.3896 50.975L54.4499 50.7787C54.4801 50.6579 54.5255 50.5522 54.5708 50.4465C54.752 50.0086 55.0238 49.6008 55.356 49.2686C55.5071 49.1176 55.7486 48.9213 55.8694 48.8458L56.1866 48.6193L57.4701 47.7132C58.3762 47.0941 59.1161 46.5505 59.8258 45.9464C60.5356 45.3273 61.185 44.6478 61.7739 43.9078C62.0759 43.485 62.4383 43.0471 62.5893 42.5789C63.2387 41.0084 63.8729 39.4229 64.19 37.7316C64.2957 37.0671 64.3108 36.4027 64.2806 35.7383C64.794 35.2701 64.2957 34.802 64.2504 34.3339C64.2051 33.6845 64.2051 33.0503 63.9786 32.3406C63.6614 31.4949 63.4501 30.5436 63.0726 29.6677C62.7554 28.9429 62.5742 28.3841 62.4987 27.9311C62.4534 27.4781 62.5742 27.1157 62.8611 26.7986C62.9517 26.6929 63.0574 26.6022 63.1632 26.5267C63.4803 26.3153 63.7973 26.4663 64.341 27.1761C64.9903 28.0368 65.6548 29.0335 65.9266 30.0603C66.5156 32.2651 67.0289 34.4245 66.9987 36.6594C66.9534 38.3054 66.6816 39.9363 66.1531 41.5219C65.5944 43.0924 64.7941 44.5874 63.7521 45.9313L62.6648 47.1696L61.4719 48.3173L60.1731 49.3441L58.9198 50.2351L57.7419 51.0958L57.4701 51.3072C57.4399 51.3374 57.4097 51.3676 57.3795 51.3978C57.3342 51.4582 57.304 51.5337 57.2738 51.6092L56.5942 54.3274C56.1563 56.0036 55.7335 57.7553 55.1899 59.356C54.2083 62.2251 53.4533 65.1396 52.502 67.9937C52.2603 68.7336 52.0036 69.4886 51.8375 70.2286C51.2335 72.8712 50.569 75.4837 49.663 78.0659C49.5724 78.3377 49.4365 78.7001 49.4516 78.8965C49.4667 79.0777 49.4667 79.2589 49.4667 79.4401C49.4516 79.5005 49.4818 79.4854 49.4516 79.6213C49.4214 79.7572 49.376 79.878 49.3307 80.0139C49.2099 80.2857 49.0589 80.5424 48.8475 80.7841C47.9716 81.7807 46.522 82.0374 45.3442 81.4787C44.7401 81.2069 44.1965 80.6633 43.9096 80.0592C43.7586 79.7723 43.6831 79.3948 43.6378 79.1985L43.5924 78.9116C43.532 78.534 43.4716 78.1414 43.4112 77.779L41.3273 65.8946L41.0102 64.0825L40.9347 63.6295L40.9196 63.5238V63.5389C40.9196 63.554 40.9347 63.554 40.9196 63.5691C40.9347 63.6144 40.9649 63.6597 40.9951 63.6899C41.0555 63.7503 41.1159 63.7805 41.2367 63.7654C41.2669 63.7805 41.4028 63.705 41.2971 63.7654C41.0555 63.9466 40.7988 64.1127 40.4968 64.309C38.1712 65.8644 35.4682 66.8762 32.6745 67.2235C30.9531 67.4047 29.1863 67.3896 27.4799 67.1027C25.7735 66.7856 24.1124 66.242 22.6023 65.4114C20.7449 64.3695 19.0385 63.252 17.5888 61.757C16.9093 61.0926 16.3506 60.3224 15.7918 59.5674L14.4025 57.4986L11.5937 53.376L6.70109 46.3843L4.23964 42.8961L3.62055 42.0202L2.97122 41.0084C2.5031 40.344 2.20107 39.589 1.82355 38.8641C1.65744 38.4564 1.47617 38.0336 1.29496 37.641C0.0717932 34.9379 -0.24531 31.812 0.177514 28.8221C0.615438 25.817 1.91409 22.963 3.74129 20.5619C4.63224 19.4445 5.61386 18.4025 6.73132 17.5115C7.90918 16.5602 8.84545 15.9713 9.8572 15.2313L15.8975 11.0182C18.6459 9.13058 21.4395 7.31848 24.203 5.46107L27.6157 3.18085C28.2046 2.80333 28.9295 2.3654 29.5939 2.00298C30.3037 1.68587 30.9984 1.30834 31.7534 1.08183C34.8944 -0.0809332 38.4129 -0.36785 41.569 0.523099C42.022 0.674108 42.5052 0.794915 42.9733 0.930822L44.3626 1.42915C46.6579 2.3201 48.7267 3.73958 50.418 5.49128C51.2637 6.35203 52.0187 7.36378 52.6529 8.31513L54.4651 11.0786C55.054 11.9695 55.5372 12.8454 55.658 13.7514C55.7184 14.1894 56.0959 14.9142 56.4433 15.4578C57.4399 17.0132 58.3762 18.629 59.5994 20.0334C60.4148 20.9545 60.8527 21.9814 61.4568 22.9629C61.5021 23.0385 61.4719 23.2197 61.3964 23.2197C61.0793 23.2046 61.1698 23.4764 61.4265 23.869C61.9097 24.5787 62.6648 25.1677 62.8913 25.9831C63.1632 26.9647 62.3175 26.6627 62.1664 27.1912C62.0003 27.765 61.1698 27.01 60.7772 27.1459C60.7168 27.161 60.4148 26.7986 60.2487 26.5871C59.8259 26.0435 59.4937 25.5754 58.7537 24.5183Z" fill="#F8AFB8"/>
<path d="M43.0312 45.7055C42.6688 45.9472 42.246 46.0529 41.808 46.0076C40.1923 45.8113 38.6369 45.6451 37.2778 45.4941C33.2761 45.0562 29.818 44.6938 27.0395 43.8934C23.9438 43.0025 21.8145 41.5981 20.3648 39.4689C18.9605 37.4001 18.3716 35.0142 18.7038 32.749C19.036 30.4537 20.3044 28.4604 22.2373 27.1315C23.687 26.1349 25.3331 25.6969 27.115 25.8026C28.021 25.863 28.9271 26.0443 29.8482 26.3765C29.8784 25.41 30.0294 24.4738 30.3012 23.6281C30.8599 21.9217 31.8717 20.5626 33.3214 19.566C35.2694 18.2371 37.5798 17.7992 39.845 18.3277C42.0799 18.8412 44.0883 20.2606 45.4927 22.3294C46.9423 24.4587 47.4708 26.9352 47.1688 30.1517C46.897 33.0208 45.991 36.3732 44.9188 40.2692C44.5564 41.5981 44.1487 43.1082 43.741 44.6787C43.6353 45.1015 43.3785 45.4639 43.0312 45.7055Z" fill="#F8AFB8"/>
<path d="M43.0312 45.7055C42.6688 45.9472 42.246 46.0529 41.808 46.0076C40.1923 45.8113 38.6369 45.6451 37.2778 45.4941C33.2761 45.0562 29.818 44.6938 27.0395 43.8934C23.9438 43.0025 21.8145 41.5981 20.3648 39.4689C18.9605 37.4001 18.3716 35.0142 18.7038 32.749C19.036 30.4537 20.3044 28.4604 22.2373 27.1315C23.687 26.1349 25.3331 25.6969 27.115 25.8026C28.021 25.863 28.9271 26.0443 29.8482 26.3765C29.8784 25.41 30.0294 24.4738 30.3012 23.6281C30.8599 21.9217 31.8717 20.5626 33.3214 19.566C35.2694 18.2371 37.5798 17.7992 39.845 18.3277C42.0799 18.8412 44.0883 20.2606 45.4927 22.3294C46.9423 24.4587 47.4708 26.9352 47.1688 30.1517C46.897 33.0208 45.991 36.3732 44.9188 40.2692C44.5564 41.5981 44.1487 43.1082 43.741 44.6787C43.6353 45.1015 43.3785 45.4639 43.0312 45.7055Z" fill="#F8AFB8"/>
<path d="M41.0687 48.5741C40.5251 48.4382 39.6945 48.2419 38.864 48.0305C38.426 47.9248 37.9881 47.804 37.5653 47.6982C37.2482 47.6227 36.9311 47.5774 36.7045 47.2754C36.4931 47.0036 36.2213 47.0338 35.9193 47.1546C35.7381 47.2301 35.5116 47.3207 35.3304 47.2905C34.4999 47.1093 33.6542 46.9281 32.8236 46.762C32.2649 46.6563 31.7213 46.5355 31.2532 46.1731C30.9511 45.9315 30.634 46.0976 30.3018 46.2335C29.8941 46.3996 29.7883 46.2788 29.6071 45.7502C29.5014 45.418 29.3957 45.3727 29.2296 45.5992C29.0786 45.8257 28.973 46.0674 28.6408 45.9919C27.6894 45.7653 26.7078 45.5237 25.7564 45.1462C25.4846 45.0405 24.9561 44.9801 25.3337 44.4365C25.3488 44.4063 25.3488 44.3157 25.3337 44.3157C24.9108 44.1194 24.488 43.9079 24.0803 43.6663C23.3705 43.8626 23.0081 43.1227 22.4191 42.9868C22.2983 42.9566 22.1323 42.8358 22.1323 42.7301C22.0719 42.126 21.347 42.0203 21.3017 41.4465C21.2715 41.0992 21.0752 41.0388 20.7581 41.0388C20.4862 41.0388 20.2597 40.9633 20.0634 40.7217C19.1724 39.6042 18.4628 38.3508 18.0399 36.9615C17.7983 36.1008 17.6473 35.1796 17.753 34.2887C17.9493 32.688 18.2967 31.1326 19.1121 29.7736C19.5802 28.9883 20.2748 28.3692 21.0148 27.901C21.3017 27.7198 21.5434 27.5386 21.7548 27.2668C22.5853 26.1645 23.884 25.3641 25.3185 25.0923C26.7531 24.8054 28.2481 24.9866 29.6071 25.4396C29.7732 25.5 29.9394 25.5906 30.0904 25.6963L29.1239 26.3608C29.1994 26.1191 29.275 25.8775 29.275 25.6359C29.275 25.2131 29.2145 24.8054 29.4562 24.3977C29.6072 24.1258 29.6525 23.7181 29.6222 23.3859C29.5014 21.8305 30.6038 20.4563 31.7665 19.5352C32.5367 18.916 33.4427 18.5536 34.3186 18.1912C35.1944 17.8288 36.1156 17.4815 37.0972 17.3456C37.2784 17.3154 37.4596 17.2852 37.6257 17.2852C38.4411 17.3305 39.2113 17.6325 39.9664 17.7382C40.6912 17.8288 41.4614 17.9194 42.1258 18.2818C42.3523 18.4026 42.609 18.5083 42.8506 18.5989C43.8473 18.9614 44.9043 19.5201 45.1006 20.6979C45.5083 21.1359 45.8859 21.604 46.2332 22.1023C46.3993 22.3439 46.6712 22.6158 46.6712 22.8876C46.6863 23.6426 46.9429 24.0503 47.5621 24.4883C47.8943 24.7299 48.0453 25.198 48.2416 25.6057C48.3775 25.8926 48.4681 26.1947 48.151 26.4665C48.0604 26.542 48.0302 26.8591 48.1057 26.9497C48.4077 27.297 48.1963 27.7047 48.2567 28.0521C48.3473 28.5655 48.302 28.9732 47.9849 29.3809C47.8792 29.5168 47.8792 29.8038 47.9698 29.9548C48.5134 30.9967 48.4228 32.1293 48.2869 33.2316C48.0453 35.0286 47.6375 36.7652 47.0788 38.4414C47.0033 38.6679 46.9279 38.9247 46.943 39.1663C46.9581 39.9968 46.7014 40.7519 46.4748 41.522C46.3842 41.824 46.3691 42.1411 46.3238 42.4432C45.8103 42.5338 46.1879 42.8509 46.1426 43.0774C46.0822 43.3794 45.8708 43.621 45.8708 43.9834C45.8708 44.1949 45.8254 44.4214 45.7499 44.6328C45.6593 44.8744 45.5839 45.1311 45.4932 45.3576C45.2365 46.0825 44.7684 46.46 44.3909 46.5657C43.9983 46.6714 43.6811 46.5204 43.4093 46.2184C43.3187 46.1127 43.2281 46.007 43.1526 45.9012C42.9412 45.5841 42.9412 45.3727 43.0469 45.116C43.1828 44.7989 43.0167 44.4818 43.2281 44.0287C43.6358 43.1831 43.6057 42.277 43.7114 41.4012C43.8624 40.1025 44.0436 38.819 44.406 37.5656C44.6325 36.7501 44.8288 35.9347 45.01 35.1041C45.1912 34.3189 45.2214 33.5186 45.2818 32.7333C45.3422 32.0387 45.3573 31.3289 45.4932 30.6796C45.7349 29.5168 45.6593 28.3692 45.6442 27.2819C45.6442 26.995 45.6141 26.7081 45.5084 26.4514C45.1459 25.5302 44.708 24.745 44.3607 23.8842C44.3154 23.7936 44.2701 23.6728 44.1795 23.6577C43.4848 23.5671 43.3339 23.0235 42.9714 22.6611C42.0503 21.7097 40.963 20.9849 39.7701 20.6375C38.3204 20.1996 36.78 20.3506 35.4512 21C34.6055 21.4228 33.9411 22.0268 33.3069 22.6158C32.884 22.9933 32.733 23.5218 32.5367 24.0352C32.2498 24.7752 32.0384 25.5906 31.978 26.4514L31.7817 29.4866L29.0938 28.4145C28.8672 28.3239 28.6256 28.2484 28.3991 28.188C26.5568 27.7047 24.8202 27.9765 23.4158 29.0034C23.3252 29.0789 23.2346 29.1695 23.1591 29.2752C22.2229 30.589 21.4678 31.7669 21.2413 33.2769C21.0299 34.6813 21.4376 36.1763 22.1927 37.5203C22.7061 38.4414 23.2951 39.272 24.1105 39.9515C24.79 40.5102 25.5903 40.9633 26.4812 41.371C27.4326 41.8089 28.535 42.0354 29.592 42.5489C29.9091 42.6999 30.2565 42.7603 30.5887 42.8509C32.3102 43.2586 34.0921 43.5606 35.8891 43.8928C36.3271 43.9683 36.7197 44.1193 37.0217 44.5724C37.1727 44.7989 37.4898 44.9348 37.7465 44.9801C38.5016 45.1311 39.2566 45.3727 40.0419 45.2519C40.5704 45.1764 40.9932 45.4482 41.4613 45.569C41.4916 45.5841 41.5368 45.72 41.5066 45.7653C41.4009 46.007 41.5066 46.0976 41.6878 46.1278C42.0955 46.1882 42.3825 45.8559 42.7902 45.9617C43.349 46.0372 43.3187 46.6563 43.7114 46.913C44.2399 47.1244 43.5905 47.8342 43.5905 48.2419C43.6056 48.3023 43.1678 48.5288 42.8959 48.5741C42.609 48.6496 42.307 48.6798 41.9144 48.6798C41.7633 48.6798 41.4009 48.6496 41.3707 48.6345C41.3103 48.6043 41.1895 48.5892 41.0687 48.5741Z" fill="#F8AFB8"/>
<path d="M1315.4 188.567L1307.69 202.449L1286.61 201.028C1283.23 200.802 1280.26 203.28 1279.89 206.654C1278.22 221.883 1276.55 237.121 1274.88 252.351C1274.4 256.79 1277.31 260.882 1281.67 261.891C1289.17 263.634 1297.3 265.2 1306.04 266.435C1315.4 267.759 1324.23 268.533 1332.4 268.921C1338.24 269.195 1343.27 264.958 1344.03 259.171C1345.15 250.648 1345.94 241.367 1346.2 231.423C1346.36 224.813 1346.28 218.518 1346.01 212.553C1345.85 208.881 1342.98 205.911 1339.31 205.621C1333.05 205.112 1326.78 204.612 1320.52 204.103L1317.45 188.89C1317.24 187.881 1315.91 187.671 1315.4 188.567Z" fill="#F1D1D5"/>
<path d="M1310.76 199.303L1309.64 201.111C1309.17 201.893 1308.7 202.676 1308.23 203.451C1307.57 203.387 1306.91 203.322 1306.25 203.249L1304.89 203.088C1303.98 202.967 1303.08 202.854 1302.18 202.733C1299.34 202.337 1296.55 201.942 1293.62 201.966C1292.86 201.974 1292.05 201.869 1291.26 201.813C1289.84 201.724 1288.4 201.635 1286.97 201.546C1286.3 201.498 1285.73 201.643 1285.17 201.7C1283.82 201.821 1282.5 202.499 1281.6 203.564C1281.16 204.097 1280.82 204.726 1280.62 205.388C1280.41 206.058 1280.38 206.728 1280.36 207.503C1279.79 209.779 1279.77 212.087 1279.61 214.419C1279.45 216.752 1279.12 219.117 1279.11 221.441C1279.11 222.055 1279.05 222.757 1278.94 223.37C1278.27 227.091 1277.95 230.852 1277.61 234.637C1277.24 238.689 1276.71 242.724 1275.99 246.711C1275.79 247.777 1275.64 248.866 1275.5 249.964C1275.38 251.053 1275.2 252.199 1275.18 253.241C1275.18 254.508 1275.48 255.759 1276.03 256.889C1276.61 258.011 1277.41 258.995 1278.39 259.778C1279.1 260.343 1279.9 260.779 1280.75 261.077C1281.58 261.368 1282.52 261.521 1283.45 261.715C1285.31 262.078 1287.18 262.401 1289.05 262.676C1294.06 263.402 1299.1 264.064 1304.15 264.653C1306.72 264.952 1309.32 265.403 1311.9 265.759C1317.07 266.485 1322.26 267.115 1327.47 267.518L1330.41 267.712C1331.38 267.76 1332.42 267.841 1333.27 267.817C1335.05 267.744 1336.82 267.203 1338.28 266.219C1339.69 265.331 1340.79 264.048 1341.58 262.619C1341.94 261.885 1342.26 261.134 1342.43 260.335C1342.55 259.948 1342.59 259.536 1342.66 259.14C1342.72 258.729 1342.76 258.245 1342.81 257.793C1344.02 246.994 1344.57 236.138 1344.45 225.291C1344.42 222.684 1344.31 220.085 1344.19 217.486C1344.14 216.187 1344.1 214.88 1344.05 213.58L1344.02 212.676C1343.99 212.434 1343.99 212.224 1343.95 211.998C1343.89 211.554 1343.75 211.135 1343.6 210.723C1343.24 209.916 1342.69 209.173 1341.98 208.625C1341.29 208.068 1340.43 207.696 1339.55 207.551L1339.21 207.503C1339.11 207.487 1338.92 207.478 1338.78 207.462L1337.87 207.382L1336.05 207.228L1318.96 205.832L1317.67 199.391C1317.28 197.454 1316.9 195.517 1316.51 193.58L1315.88 190.691L1315.71 189.973L1315.62 189.609L1315.58 189.432L1315.56 189.343L1315.55 189.295L1315.54 189.27V189.262V189.254C1314.94 189.375 1316.36 189.085 1316.22 189.117C1316.4 189.077 1316.4 189.036 1316.37 189.069C1316.35 189.093 1316.33 189.158 1316.34 189.125C1316.34 189.093 1316.32 189.036 1316.32 189.044C1316.33 189.061 1316.36 189.085 1316.4 189.117C1316.49 189.166 1316.49 189.166 1316.38 189.101C1316.36 189.085 1316.32 189.044 1316.32 189.053C1316.31 189.02 1316.34 189.093 1316.28 188.972C1316.23 188.819 1316.26 188.625 1316.41 188.488C1316.56 188.35 1316.83 188.27 1317.14 188.423C1317.28 188.504 1317.44 188.641 1317.54 188.843C1317.64 189.028 1317.74 189.222 1317.83 189.448C1318.36 190.651 1318.79 191.781 1319.01 193.362C1319.33 195.655 1320.12 197.979 1320.17 200.287C1320.17 200.61 1320.29 201.07 1320.38 201.433L1320.96 203.564C1321.55 203.58 1321.92 203.588 1322.76 203.637L1324.99 203.774C1326.48 203.879 1327.95 204 1329.44 204.129L1338.33 204.952C1338.88 205.001 1339.44 205.041 1340.05 205.122C1340.64 205.235 1341.23 205.38 1341.79 205.614C1342.91 206.058 1343.93 206.784 1344.73 207.704C1345.77 208.891 1346.44 210.408 1346.59 211.974C1346.73 214.161 1346.69 216.219 1346.79 218.334C1346.86 219.924 1347 221.465 1346.61 222.902C1346.53 223.201 1346.56 224.04 1346.65 224.331C1347.03 225.452 1346.98 226.768 1346.94 228.084C1346.87 231.627 1346.69 235.17 1346.51 238.713C1346.38 241.336 1346.25 243.959 1346.13 246.574C1345.94 250.634 1345.72 254.685 1345.33 258.737L1345.27 259.375L1345.16 260.077C1345.1 260.545 1344.96 260.997 1344.85 261.457C1344.72 261.917 1344.54 262.353 1344.38 262.797C1344.17 263.224 1343.99 263.668 1343.74 264.072C1342.79 265.718 1341.49 267.187 1339.89 268.261C1339.52 268.503 1339.16 268.769 1338.78 268.979C1338.4 269.205 1338 269.423 1337.58 269.576C1336.07 270.206 1334.33 270.593 1332.79 270.44C1332.34 270.407 1332.01 270.359 1331.66 270.327C1331.31 270.294 1330.98 270.27 1330.65 270.262C1329.99 270.238 1329.34 270.278 1328.64 270.399C1327.85 270.537 1326.61 270.44 1325.59 270.335C1324.29 270.206 1323.01 269.98 1321.76 269.746C1320.25 269.471 1318.84 269.181 1317.18 269.261C1316.28 269.302 1315.08 269.1 1314.09 268.898C1309.75 268.018 1305.32 267.454 1300.89 266.856C1294.89 266.049 1288.9 265.105 1282.94 263.927L1281.18 263.563C1280.5 263.402 1279.82 263.184 1279.17 262.885C1277.88 262.296 1276.7 261.441 1275.74 260.391C1274.25 258.753 1273.26 256.638 1273.06 254.411C1272.93 253.329 1273.05 252.095 1273.16 251.271L1273.48 248.527L1274.82 237.559C1274.99 236.122 1275.19 234.669 1275.28 233.241C1275.47 229.948 1275.86 226.695 1276.34 223.443C1276.91 219.52 1277.2 215.59 1277.49 211.667C1277.55 210.755 1277.58 209.819 1277.7 208.923L1278.01 206.575C1278.12 205.638 1278.4 204.581 1278.86 203.677C1279.77 201.837 1281.37 200.368 1283.29 199.625C1284.25 199.254 1285.28 199.06 1286.31 199.069L1286.7 199.077L1287 199.093L1287.59 199.125L1288.77 199.19C1290.34 199.278 1291.92 199.375 1293.49 199.504C1295.88 199.69 1298.27 199.908 1300.65 200.142L1304.23 200.497L1306.01 200.675L1306.45 200.723C1306.56 200.731 1306.53 200.731 1306.55 200.739L1306.59 200.747L1306.77 200.788L1306.88 200.65C1308.87 197.358 1310.87 194.081 1312.87 190.796C1313.01 190.578 1313.1 190.32 1313.24 190.102C1314.42 188.197 1315.18 187.81 1315.31 189.085C1315.41 190.215 1315.02 191.692 1314.03 193.451L1310.68 199.246L1310.76 199.303Z" fill="#F8AFB8"/>
<path d="M1310.78 220.399C1311.37 220.036 1311.9 219.576 1312.38 219.043C1312.61 218.776 1312.83 218.494 1313.05 218.195C1313.29 217.856 1313.52 217.526 1313.78 217.211C1314.71 216.073 1315.67 215.08 1316.6 213.894C1316.84 213.587 1317.21 213.353 1317.55 213.119C1317.87 212.909 1318.2 212.715 1318.58 212.57C1318.96 212.409 1319.42 212.344 1319.84 212.368C1319.93 212.376 1320.01 212.384 1320.11 212.384C1320.26 212.425 1320.42 212.457 1320.58 212.497C1320.72 212.554 1320.86 212.643 1320.97 212.739C1321.68 213.425 1321.92 214.136 1322.22 214.846C1322.51 215.556 1322.76 216.258 1323.02 216.977C1322.95 218.187 1323.27 219.277 1323.4 220.455C1323.45 221.036 1323.47 221.634 1323.46 222.223V223.111C1323.47 223.312 1323.5 223.482 1323.54 223.627C1323.58 223.781 1323.59 223.934 1323.52 224.136C1323.51 224.168 1323.48 224.224 1323.49 224.241L1323.57 224.273L1323.74 224.329C1323.86 224.362 1323.99 224.394 1324.13 224.426L1324.56 224.515L1325.26 224.636C1326.2 224.797 1327.13 224.983 1328.07 225.217C1330.05 225.758 1332.01 226.742 1333.39 228.373C1334.1 229.236 1334.82 230.197 1335.09 231.367C1335.22 232.077 1335.19 232.772 1335.01 233.458C1334.81 234.135 1334.46 234.773 1334 235.298C1333.81 235.499 1333.62 235.701 1333.41 235.879C1333.21 236.056 1333.1 236.145 1332.93 236.266C1332.81 236.363 1332.68 236.444 1332.55 236.524L1332.37 236.646C1332.35 236.662 1332.29 236.678 1332.3 236.702C1332.33 236.726 1332.36 236.759 1332.39 236.791C1332.63 237.057 1332.82 237.348 1332.99 237.614L1333.06 237.719L1333.14 237.88L1333.31 238.211C1333.43 238.437 1333.53 238.655 1333.64 238.889C1333.9 239.503 1334.12 240.148 1334.27 240.818C1334.41 241.488 1334.53 242.158 1334.47 242.997C1334.4 243.804 1334.1 244.652 1333.62 245.338C1333.38 245.685 1333.1 246 1332.8 246.266C1332.65 246.403 1332.49 246.532 1332.34 246.653C1332.22 246.742 1332.3 246.694 1332.26 246.726L1332.22 246.766C1332.14 246.855 1332 246.879 1331.94 246.952C1331.98 247.033 1332.01 247.114 1332.04 247.21L1332.09 247.356L1332.3 247.864C1332.64 248.72 1332.97 249.599 1333.17 250.568C1333.27 251.044 1333.35 251.561 1333.36 252.118C1333.37 252.4 1333.35 252.699 1333.3 253.013C1333.26 253.183 1333.22 253.352 1333.16 253.522C1333.1 253.683 1333.02 253.845 1332.94 253.998C1332.29 255.112 1331.27 255.669 1330.35 255.992C1328.2 256.694 1326.19 256.686 1324.19 256.694C1322.34 256.669 1320.51 256.605 1318.68 256.435C1315.99 256.161 1313.31 255.79 1310.67 255.378L1306.7 254.741L1304.71 254.41L1301.26 253.772L1301.03 253.732C1301 253.716 1300.93 253.732 1300.93 253.699L1300.94 253.586L1300.98 253.134L1301.06 252.23L1301.22 250.39L1301.36 248.389C1301.41 247.751 1301.48 247.114 1301.56 246.476L1302.48 239.398L1303.66 229.244C1303.9 227.324 1304.16 225.411 1304.16 223.482C1304.16 222.941 1304.36 222.788 1304.73 223.03C1305.36 223.45 1306.02 223.805 1306.32 224.773C1306.52 225.427 1306.66 226.032 1306.47 226.791C1306.2 227.897 1306.37 229.115 1305.85 230.173C1305.78 230.326 1305.77 230.552 1305.77 230.738C1305.85 234.095 1305.23 237.388 1304.8 240.697C1304.66 241.779 1304.61 242.876 1304.51 243.958C1304.44 244.66 1304.36 245.37 1304.27 246.072C1304.15 247.089 1303.97 248.106 1303.88 249.131C1303.85 249.519 1303.84 249.898 1303.78 250.269C1303.77 250.358 1303.75 250.463 1303.73 250.528C1303.72 250.592 1303.69 250.649 1303.66 250.713C1303.6 250.842 1303.52 250.988 1303.4 251.157C1303.31 251.302 1303.28 251.657 1303.37 251.706C1303.45 251.875 1303.84 251.754 1304.05 251.778C1304.27 251.787 1304.46 251.843 1304.66 251.883L1307.08 252.416C1307.93 252.602 1308.77 252.779 1309.62 252.933C1310.88 253.167 1312.14 253.336 1313.41 253.465C1315.38 253.659 1317.35 253.756 1319.3 253.877C1320.93 253.974 1322.56 254.119 1324.16 254.103C1324.53 254.103 1324.9 254.03 1325.26 254.022C1325.93 254.006 1326.61 253.901 1327.21 253.966C1327.88 254.038 1328.43 253.99 1328.87 253.53C1329.1 253.272 1329.52 253.151 1329.77 253.03C1330.06 252.908 1330.3 252.804 1330.47 252.715L1330.52 252.691C1330.73 252.658 1330.9 251.956 1330.49 251.391C1330.29 251.084 1330.2 250.568 1330.13 250.116C1330.03 249.551 1329.89 249.051 1329.66 248.453C1329.28 247.574 1328.83 246.742 1328.39 245.919C1328.44 245.798 1328.66 245.725 1328.79 245.645L1329.24 245.402C1329.54 245.233 1329.86 245.047 1330.21 244.878C1331.05 244.45 1331.13 244.297 1331.4 244.014C1332.12 243.191 1332.09 242.303 1331.82 240.939C1331.68 240.318 1331.48 239.721 1331.22 239.148C1331.15 239.01 1331.09 238.865 1331.01 238.736L1330.95 238.607C1330.91 238.526 1330.88 238.453 1330.83 238.381L1330.55 237.945C1330.72 237.283 1330.67 236.799 1330.66 236.46C1330.65 236.129 1330.79 235.693 1330.88 234.894C1331.2 234.725 1331.48 234.523 1331.77 234.329L1332.01 234.135L1332.14 233.998C1332.32 233.821 1332.48 233.635 1332.6 233.441C1332.88 232.989 1333.01 232.505 1332.98 232.005C1332.96 231.633 1332.76 231.117 1332.35 230.608C1331.55 229.575 1330.17 228.68 1328.7 228.042C1328.12 227.784 1327.5 227.542 1326.86 227.445C1326.11 227.324 1325.39 227.194 1324.65 227.073L1324.02 226.96C1323.63 226.888 1323.26 226.855 1322.88 226.807L1320.69 226.5C1321.32 222.223 1321.21 221.311 1320.94 219.39C1320.87 218.986 1320.76 218.591 1320.71 218.195C1320.64 217.324 1320.45 216.46 1320.14 215.766C1320.06 215.597 1319.99 215.419 1319.9 215.29C1319.86 215.225 1319.82 215.145 1319.77 215.08L1319.64 214.927C1319.6 214.862 1319.56 214.846 1319.53 214.822C1319.53 214.822 1319.53 214.822 1319.52 214.822C1319.51 214.822 1319.5 214.83 1319.49 214.838C1319.48 214.846 1319.47 214.854 1319.47 214.862C1319.46 214.862 1319.49 214.87 1319.44 214.886C1319.4 214.894 1319.33 214.943 1319.27 214.967C1319.01 215.104 1318.68 215.346 1318.36 215.621C1317.62 216.258 1316.87 217.098 1316.2 218.01C1315.86 218.47 1315.57 218.922 1315.23 219.454C1314.84 220.092 1314.38 220.673 1313.87 221.214C1312.3 222.877 1310.14 223.902 1307.95 224.103C1307.8 224.119 1307.66 224.176 1307.51 224.176C1306.23 224.184 1305.95 223.643 1306.45 222.933C1306.91 222.279 1307.47 221.876 1308.29 221.674C1309.18 221.432 1310.06 221.053 1310.84 220.488L1310.78 220.399Z" fill="#F8AFB8"/>
<path d="M1306.23 223.096C1305 222.523 1295.38 220.611 1293.21 220.78C1291.96 225.897 1289.29 246.599 1289.17 250.473C1290.98 251.127 1301.08 252.41 1302.92 252.249C1304.91 246.333 1306.44 225.195 1306.23 223.096Z" fill="#F8AFB8"/>
<path d="M1302.34 223.299C1301.37 222.927 1300.36 222.613 1299.39 222.209C1298.53 221.846 1297.66 221.491 1296.7 221.571C1296.45 221.596 1296.2 221.507 1295.95 221.475C1295.51 221.426 1295.01 221.354 1294.69 221.354C1294.52 221.346 1294.4 221.475 1294.26 221.426C1294.06 221.354 1293.86 221.305 1293.65 221.281C1293.59 221.257 1293.57 221.297 1293.55 221.337L1293.51 221.459C1293.47 221.539 1293.45 221.628 1293.42 221.725C1293.38 221.91 1293.34 222.104 1293.33 222.298C1293.32 222.395 1293.32 222.492 1293.33 222.588C1293.33 222.701 1293.33 222.831 1293.34 222.952C1292.88 223.63 1292.99 224.404 1292.96 225.155C1292.93 225.914 1292.74 226.664 1292.86 227.431C1292.89 227.633 1292.88 227.867 1292.81 228.052C1292.37 229.215 1292.29 230.433 1292.17 231.66C1292.06 232.968 1291.79 234.259 1291.34 235.51C1291.1 236.18 1291.01 236.906 1290.92 237.608C1290.81 238.448 1290.79 239.303 1290.71 240.151C1290.6 241.378 1290.54 242.604 1290.62 243.839C1290.71 245.494 1290.77 247.156 1290.79 248.787C1290.79 248.924 1290.8 248.9 1290.8 248.94C1290.8 248.964 1290.8 248.988 1290.8 249.013C1290.8 249.061 1290.79 249.118 1290.78 249.174C1290.78 249.222 1290.73 249.311 1290.75 249.352C1290.79 249.376 1290.83 249.408 1290.88 249.432C1290.93 249.457 1290.99 249.481 1291.05 249.513L1291.16 249.553L1291.21 249.578L1291.36 249.618L1292.57 249.917C1293.38 250.11 1294.21 250.28 1295.03 250.433C1296.27 250.651 1297.54 250.772 1298.8 250.861C1299.39 250.901 1299.98 250.917 1300.56 250.925H1301H1301.21L1301.33 250.917C1301.46 250.909 1301.6 250.893 1301.67 250.885C1301.74 250.877 1301.8 250.869 1301.86 250.853C1301.88 250.796 1301.88 250.716 1301.9 250.651L1301.92 250.457L1301.93 250.344L1301.98 250.054C1302.14 249.231 1302.25 248.375 1302.38 247.52C1302.59 245.8 1302.77 244.073 1302.91 242.33C1302.97 241.491 1303 240.651 1303.04 239.812C1303.06 239.392 1303.1 238.972 1303.16 238.561C1303.36 237.011 1303.57 235.47 1303.72 233.912C1303.94 231.684 1304.09 229.449 1304.25 227.229C1304.29 226.6 1304.34 225.97 1304.35 225.349C1304.36 225.042 1304.36 224.719 1304.34 224.429L1304.3 223.977C1304.28 223.815 1304.26 223.678 1304.22 223.589C1304.16 223.363 1304.34 223.258 1304.72 223.315C1305.39 223.42 1306.12 223.573 1306.5 224.203C1306.77 224.63 1306.96 225.026 1306.84 225.542C1306.67 226.285 1306.93 227.092 1306.48 227.802C1306.42 227.899 1306.43 228.052 1306.44 228.182C1306.77 230.409 1306.34 232.604 1306.09 234.8C1306 235.518 1306.02 236.244 1305.96 236.971C1305.93 237.439 1305.88 237.907 1305.82 238.375C1305.74 239.053 1305.6 239.723 1305.56 240.401C1305.52 240.917 1305.6 241.426 1305.14 241.838C1305.04 241.926 1305.03 242.193 1305.11 242.298C1305.43 242.701 1305.34 243.121 1305.27 243.541L1304.69 246.938C1304.57 247.778 1304.46 248.633 1304.39 249.489L1304.29 250.49C1304.27 250.675 1304.26 250.788 1304.23 251.03C1304.21 251.256 1304.15 251.507 1304.09 251.749L1303.76 253.258C1303.77 253.435 1303.62 253.411 1303.5 253.427L1303.13 253.468L1302.38 253.532C1301.95 253.565 1301.55 253.548 1301.12 253.548L1300.24 253.524L1298.56 253.444C1298.3 253.435 1298.04 253.484 1297.78 253.46C1297.31 253.419 1296.81 253.452 1296.39 253.274C1295.92 253.072 1295.54 252.992 1295.05 253.258C1294.77 253.403 1294.37 253.331 1294.05 253.25C1293.63 253.153 1293.23 252.959 1292.84 252.782C1292.37 252.564 1291.93 252.33 1291.36 252.483C1291.21 252.523 1291.03 252.507 1290.86 252.459C1290.76 252.435 1290.71 252.41 1290.58 252.362C1290.44 252.314 1290.3 252.265 1290.17 252.217C1289.62 252.015 1289.11 251.797 1288.62 251.603L1288.25 251.458L1288.07 251.385L1287.97 251.353C1287.97 251.321 1287.98 251.281 1287.98 251.248L1288.03 250.409C1288.05 249.868 1288.1 249.311 1288.13 248.754L1288.17 247.633C1288.21 245.655 1288.23 243.694 1288.3 241.733C1288.33 240.966 1288.41 240.199 1288.49 239.432C1288.7 237.051 1289.11 234.695 1289.56 232.346C1289.65 231.886 1289.74 231.418 1289.74 230.95C1289.74 229.868 1289.93 228.819 1290.2 227.778C1290.54 226.527 1290.6 225.244 1290.68 223.944C1290.7 223.646 1290.67 223.331 1290.75 223.04C1290.83 222.79 1290.89 222.532 1290.95 222.274L1291.08 221.668L1291.24 220.958L1291.59 219.57L1291.68 219.215L1291.72 219.037L1291.75 218.948C1291.75 218.924 1291.8 218.94 1291.83 218.932L1292.54 218.9C1293.01 218.884 1293.48 218.852 1293.96 218.852L1295.35 218.932C1295.89 218.981 1296.42 219.037 1296.94 219.134C1298.61 219.441 1300.22 219.925 1301.83 220.417C1303.07 220.797 1304.28 221.233 1305.53 221.709C1305.61 221.741 1305.71 221.733 1305.8 221.773C1305.98 221.854 1306.12 221.943 1306.23 222.056C1306.36 222.177 1306.43 222.306 1306.44 222.427C1306.48 222.677 1306.29 222.927 1306 223.21C1305.52 223.71 1305.01 223.969 1304.4 223.799L1302.35 223.218L1302.34 223.299Z" fill="#F8AFB8"/>
</svg>
