<svg width="1325" height="466" viewBox="0 0 1325 466" fill="none" xmlns="http://www.w3.org/2000/svg">
<path d="M1253.59 445.694L1247.47 446.624C1246.38 446.796 1245.58 445.636 1246.11 444.663L1249.1 439.236C1249.31 438.85 1249.31 438.392 1249.13 438.005L1246.35 432.464C1245.86 431.476 1246.71 430.359 1247.79 430.56L1253.88 431.734C1254.31 431.82 1254.75 431.676 1255.07 431.376L1259.48 427.023C1260.27 426.25 1261.6 426.708 1261.73 427.811L1262.5 433.967C1262.56 434.397 1262.81 434.783 1263.2 434.984L1268.7 437.833C1269.67 438.334 1269.64 439.752 1268.66 440.224L1263.04 442.859C1262.64 443.045 1262.37 443.417 1262.3 443.847L1261.28 449.96C1261.1 451.048 1259.75 451.464 1259.01 450.647L1254.77 446.123C1254.47 445.779 1254.02 445.622 1253.59 445.694Z" fill="#69B9CB"/>
<path d="M1250.17 447.257L1249.1 447.271L1248.57 447.286L1247.85 447.314C1247.42 447.328 1247.08 447.286 1246.75 447.128C1245.73 446.656 1245.42 445.41 1245.75 444.479C1245.82 444.222 1246.02 443.949 1246.16 443.677L1246.79 442.489C1246.88 442.303 1246.88 442.06 1247.01 441.916C1247.62 441.201 1248.12 440.427 1248.38 439.497C1248.51 439.396 1248.64 439.239 1248.71 439.153C1249.04 438.781 1248.85 438.265 1248.55 437.95C1248.15 437.335 1247.87 436.647 1247.36 436.103C1247.24 435.96 1247.11 435.774 1247.06 435.588C1246.93 435.144 1246.78 434.729 1246.59 434.328C1246.4 433.913 1246.23 433.598 1245.9 432.982C1245.72 432.638 1245.57 432.295 1245.53 431.923C1245.45 431.092 1245.98 430.247 1246.76 429.99C1247.15 429.847 1247.56 429.861 1247.98 429.975C1248.4 430.076 1248.82 430.233 1249.08 430.333C1249.71 430.591 1250.4 430.72 1251.07 430.849C1251.87 431.006 1252.69 431.078 1253.51 431.207L1253.82 431.25C1254.22 431.35 1254.65 431.149 1254.85 430.82C1255.18 430.434 1255.53 430.004 1255.84 429.575C1256.24 429.045 1256.64 428.515 1257.04 427.985L1257.66 427.198L1257.97 426.811L1258.52 426.196C1258.83 425.866 1259.16 425.608 1259.55 425.437C1260.74 424.893 1262.27 425.594 1262.73 426.768C1262.86 427.055 1262.93 427.37 1262.97 427.713L1263.06 428.644L1263.13 429.861L1263.3 432.309C1263.36 432.868 1263.43 433.698 1263.49 433.813C1263.6 434.099 1263.82 434.099 1264.49 434.443C1265.53 434.915 1266.58 435.373 1267.62 435.846L1269.18 436.59C1270.3 437.106 1270.93 438.251 1270.74 439.425C1270.66 439.998 1270.39 440.542 1269.97 440.943C1269.6 441.344 1268.88 441.644 1268.4 441.888L1264.49 443.907L1264.17 444.078C1264.07 444.136 1263.92 444.207 1263.96 444.207C1263.94 444.236 1263.94 444.264 1263.96 444.279L1263.97 444.307L1263.99 444.322C1263.99 444.322 1264 444.322 1263.99 444.422C1263.94 444.823 1263.87 445.224 1263.8 445.625L1263.37 447.858L1263.16 448.975L1263.01 449.748C1262.96 450.106 1262.9 450.478 1262.76 450.779C1262.43 451.652 1261.67 452.325 1260.78 452.569C1259.88 452.812 1258.9 452.64 1258.16 452.053C1257.8 451.767 1257.37 451.28 1257.13 451.008L1256.57 450.407L1255.47 449.218L1254.22 447.873C1254.01 447.658 1253.79 447.443 1253.56 447.228L1253.81 446.999C1253.81 446.985 1253.81 447.028 1253.81 446.985C1253.75 446.426 1253.94 445.639 1254.74 445.711C1255.3 445.868 1255.6 445.983 1255.9 446.412C1256.3 447.028 1257.01 447.386 1257.23 448.145C1257.26 448.259 1257.37 448.345 1257.47 448.417C1257.9 448.732 1258.32 449.075 1258.7 449.433C1259.05 449.72 1259.19 449.977 1259.53 450.149C1259.85 450.307 1260.26 450.249 1260.54 450.02C1260.84 449.791 1260.85 449.39 1260.94 449.018C1261.05 448.417 1261.11 447.658 1261.21 446.999C1261.27 446.555 1261.34 446.111 1261.42 445.668C1261.55 444.995 1261.7 444.451 1261.8 443.677C1261.85 443.047 1262.3 442.389 1262.98 442.475C1263 442.475 1263.01 442.475 1263.03 442.475C1263.17 442.46 1263.36 442.36 1263.4 442.246C1263.57 441.802 1263.96 441.659 1264.33 441.501C1265.33 441.057 1266.35 440.642 1267.35 440.17L1267.81 439.941L1268.17 439.74C1268.4 439.611 1268.54 439.368 1268.53 439.11C1268.54 438.623 1268.05 438.323 1267.68 438.28L1267.49 438.237C1267.42 438.222 1267.27 438.151 1267.15 438.108L1266.41 437.807C1265.43 437.406 1264.47 436.934 1263.51 436.504C1263.29 436.404 1263.04 436.361 1262.83 436.247C1262.13 435.975 1261.41 435.345 1261.3 434.586C1261.2 433.641 1261.28 433.455 1260.91 433.025C1260.72 432.81 1260.68 432.424 1260.68 432.109C1260.67 431.708 1260.72 431.293 1260.78 430.892C1260.85 430.405 1260.94 429.947 1260.65 429.474C1260.51 429.26 1260.51 428.715 1260.59 428.73C1260.75 428.501 1260.77 428.057 1260.48 427.914C1260.19 427.742 1259.86 427.957 1259.72 428.214L1259.69 428.243L1259.61 428.358L1259.38 428.615L1258.92 429.145L1258 430.219L1257.09 431.293L1256.63 431.822C1256.44 432.023 1256.4 432.109 1256.04 432.481C1255.41 433.097 1254.48 433.369 1253.61 433.197L1252.73 433.054C1251.6 432.868 1250.47 432.653 1249.35 432.409L1248.51 432.223C1248.32 432.18 1248.4 432.18 1248.32 432.152C1248.25 432.109 1248.14 432.109 1248.05 432.166C1247.98 432.209 1247.94 432.309 1248.05 432.381L1248.15 432.438C1248.14 432.324 1248.41 432.839 1248.58 433.211C1248.77 433.598 1248.92 433.999 1249.08 434.4C1249.3 434.972 1249.58 435.531 1249.88 436.06L1250.36 436.848C1250.41 436.934 1250.57 437.206 1250.7 437.464C1250.81 437.721 1250.9 438.008 1250.93 438.294C1251 438.824 1250.96 439.411 1250.67 439.883L1250.63 439.969L1250.18 440.685L1249.83 441.315L1249.17 442.618L1248.52 443.921L1248.18 444.565C1248.12 444.665 1248.17 444.594 1248.14 444.622C1248.08 444.579 1247.92 444.823 1248.12 444.909C1248.18 444.923 1248.11 444.952 1248.29 444.937L1248.84 444.909C1250.06 444.852 1251.29 444.809 1252.52 444.751C1252.6 444.751 1252.68 444.708 1252.76 444.708C1253.46 444.694 1253.75 445.081 1253.52 445.768C1253.32 446.384 1252.92 446.77 1252.29 446.856C1251.6 446.942 1250.91 446.999 1250.21 447.071L1250.17 447.257Z" fill="#69B9CB"/>
<path d="M1228.03 419.528L1228.89 416.808C1229.05 416.321 1229.68 416.221 1229.98 416.636L1231.61 418.97C1231.73 419.127 1231.91 419.227 1232.11 419.227L1234.96 419.199C1235.46 419.199 1235.76 419.771 1235.46 420.172L1233.74 422.449C1233.63 422.606 1233.59 422.821 1233.66 423.007L1234.56 425.713C1234.72 426.2 1234.26 426.644 1233.79 426.486L1231.1 425.556C1230.91 425.484 1230.69 425.527 1230.54 425.642L1228.25 427.331C1227.85 427.632 1227.26 427.331 1227.27 426.83L1227.32 423.981C1227.32 423.78 1227.23 423.594 1227.06 423.48L1224.74 421.833C1224.32 421.533 1224.42 420.903 1224.91 420.745L1227.63 419.915C1227.82 419.872 1227.96 419.728 1228.03 419.528Z" fill="#69B9CB"/>
<path d="M1227.75 416.994C1228.16 416.665 1228.45 416.207 1228.79 416.049C1229.18 415.906 1229.78 416.092 1230.02 416.25C1230.11 416.293 1230.18 416.45 1230.27 416.55C1230.41 416.736 1230.57 416.923 1230.72 417.094C1230.8 417.166 1230.93 417.166 1230.97 417.281C1231.08 417.553 1231.18 417.782 1231.31 417.982C1231.38 418.082 1231.46 418.168 1231.54 418.254C1231.61 418.311 1231.68 418.354 1231.76 418.383L1231.78 418.397C1231.71 418.827 1232.1 418.884 1232.36 418.741C1232.49 418.698 1232.59 418.684 1232.73 418.669C1232.96 418.641 1233.19 418.598 1233.46 418.498C1233.6 418.44 1233.77 418.412 1233.89 418.455C1234 418.483 1234.1 418.512 1234.22 418.54C1234.63 418.755 1235.24 418.698 1235.72 418.827C1236.02 418.956 1236.25 419.328 1236.21 419.672C1236.21 420.001 1235.81 420.316 1235.52 420.617C1235.19 420.917 1234.99 421.204 1234.79 421.504C1234.59 421.791 1234.38 422.249 1234.26 422.421L1234.22 422.478C1234.09 422.635 1234.02 422.85 1234.15 423.051C1234.2 423.136 1234.26 423.237 1234.33 423.308L1234.43 423.423L1234.59 423.681C1234.82 424.053 1235.05 424.468 1235.29 424.926C1235.48 425.485 1235.69 426.172 1235.68 426.73C1235.61 427.188 1235.03 427.618 1234.61 427.661C1233.5 427.446 1232.37 427.017 1231.4 426.745C1231.15 426.673 1231.13 426.616 1230.97 426.601C1230.83 426.601 1230.74 426.73 1230.65 426.802C1230.68 426.802 1230.28 427.131 1230.05 427.346L1229.21 428.076L1228.82 428.277L1228.12 428.606C1228 428.649 1227.88 428.72 1227.76 428.749C1227.66 428.763 1227.55 428.763 1227.42 428.749C1226.9 428.677 1226.32 428.377 1226.23 427.904L1225.93 426.115L1225.77 425.184L1225.69 424.711C1225.67 424.597 1225.66 424.611 1225.66 424.611L1225.64 424.597C1225.61 424.568 1225.53 424.583 1225.5 424.611L1225.48 424.626C1225.47 424.626 1225.54 424.668 1225.31 424.497L1223.72 423.308C1223.45 422.864 1223.17 422.421 1222.88 421.991C1222.66 421.533 1222.79 420.43 1223.25 420.13L1225.34 419.199C1225.74 419.027 1226.13 418.87 1226.52 418.684C1226.7 418.598 1226.9 418.498 1227.09 418.383L1227.4 419.385C1227.45 419.414 1227.5 419.457 1227.55 419.485C1227.76 419.657 1227.9 419.901 1227.82 420.158C1227.62 420.502 1227.66 420.66 1227.45 420.645C1227.12 420.617 1227.12 420.903 1226.54 420.702C1226.46 420.674 1226.42 420.702 1226.4 420.731C1226.24 421.003 1225.97 421.089 1225.67 421.247C1225.54 421.347 1225.46 421.519 1225.47 421.676C1225.48 421.848 1225.61 421.919 1225.74 422.034C1225.89 422.149 1226.11 422.263 1226.29 422.349L1226.36 422.392C1226.47 422.464 1226.59 422.535 1226.69 422.621C1226.76 422.693 1227.15 423.008 1227.43 423.237C1227.66 423.394 1227.92 423.666 1227.58 424.024C1227.5 424.096 1227.53 424.225 1227.6 424.253C1227.65 424.268 1227.68 424.296 1227.7 424.311C1227.92 424.454 1227.88 424.754 1227.88 424.797C1227.85 425.112 1227.79 425.485 1227.79 425.814C1227.8 426.043 1227.78 426.286 1228.06 426.315C1228.26 426.329 1228.51 426.172 1228.65 425.957C1228.76 425.785 1228.89 425.599 1229.01 425.442L1229.08 425.341L1229.18 425.17L1229.22 425.098C1229.24 425.084 1229.22 425.084 1229.25 425.055L1229.45 424.883C1229.59 424.754 1229.72 424.568 1229.89 424.468C1230.18 424.282 1230.55 424.11 1230.9 424.239C1231.25 424.382 1231.48 424.497 1231.9 424.339C1232.26 424.296 1232.16 424.268 1232.17 424.311C1232.17 424.353 1232.19 424.468 1232.23 424.597C1232.29 424.754 1232.43 424.955 1232.37 424.697C1232.33 424.554 1232.39 424.654 1232.49 424.769C1232.69 425.026 1232.94 425.198 1233.09 425.112C1233.23 425.041 1233.17 424.826 1233.04 424.683C1232.94 424.525 1232.84 424.382 1232.74 424.268C1232.66 424.196 1232.59 424.139 1232.53 424.11L1232.49 424.096L1232.34 423.781C1232.23 423.552 1232.14 423.308 1232.09 423.065C1231.97 422.521 1232.13 421.977 1232.46 421.519L1232.57 421.361L1232.79 421.06C1232.8 421.046 1232.79 421.046 1232.79 421.046V421.032C1232.79 421.017 1232.8 421.017 1232.83 421.003C1232.86 420.989 1233.02 420.946 1233.06 420.803C1233.07 420.76 1233.07 420.702 1232.96 420.76C1232.73 420.889 1232.74 420.874 1232.73 420.817L1232.74 420.774C1232.76 420.717 1232.72 420.717 1232.7 420.745C1232.19 420.788 1231.64 420.889 1231.15 420.717C1230.93 420.645 1230.67 420.559 1230.51 420.387C1230.4 420.259 1230.28 420.115 1230.2 419.972L1229.87 419.485C1229.87 419.471 1229.85 419.485 1229.85 419.485C1229.84 419.485 1229.82 419.514 1229.82 419.528C1229.81 419.571 1229.81 419.672 1229.84 419.643C1229.87 419.557 1229.72 419.213 1229.59 419.213C1229.57 419.213 1229.52 419.213 1229.49 419.213C1229.36 419.314 1229.21 419.443 1229.05 419.629C1229.04 419.643 1229.05 419.686 1229.04 419.7C1228.91 419.829 1228.46 419.815 1227.89 419.471C1227.39 419.156 1227.17 418.712 1227.32 418.326C1227.46 417.896 1227.63 417.51 1227.79 417.123L1227.75 416.994Z" fill="#69B9CB"/>
<path d="M64.6849 16.2364C64.2149 15.4764 63.4949 14.3164 62.7849 13.1664L61.6749 11.3464C61.3949 10.9064 61.1149 10.4864 61.0149 10.0364C60.9249 9.6264 60.6449 9.28641 60.3149 8.98641C60.1049 8.78641 59.8549 8.56641 59.6849 8.31641L58.6049 6.6264C58.2649 6.1164 57.9349 5.6464 57.5149 5.2164C56.9649 4.6464 56.3849 4.1664 55.8449 3.6264C55.4949 3.2664 55.0549 3.2164 54.6249 3.1664C54.0949 3.0964 53.9549 3.0264 53.6849 2.5864C53.5149 2.3264 53.3349 2.27641 53.1549 2.39641C52.9649 2.53641 52.8749 2.6464 52.4149 2.5864C51.0949 2.3664 49.7349 2.4564 48.4349 2.7864C48.0649 2.8564 47.4649 3.21641 47.5149 2.72641C47.5149 2.69641 47.4549 2.6664 47.4249 2.6764C46.7949 2.8964 46.1949 3.1864 45.6249 3.5364C45.1649 4.2164 44.1749 4.54641 43.5549 5.14641C43.4349 5.26641 43.1849 5.4264 43.0749 5.4464C42.4149 5.5364 41.7849 6.2764 41.1449 6.4364C40.7349 6.5364 40.5249 6.76641 40.3649 7.05641C40.2149 7.32641 40.0149 7.55641 39.6449 7.80641L34.5549 11.3764C33.5049 12.0964 32.4349 12.8164 31.3949 13.5264C29.6249 14.8564 28.4249 16.9264 27.9749 19.1264C27.7049 20.3964 27.6049 21.7264 27.7549 23.0464C27.8449 23.5564 27.9149 24.0364 28.1749 24.4864C28.6149 25.4264 29.2149 26.2364 29.8549 27.0464C30.5049 27.8664 31.1449 28.7064 31.7649 29.5464C33.0049 31.2464 34.2049 32.9864 35.3949 34.7264C35.7549 35.2564 36.0049 35.8764 36.3749 36.3664C36.7649 36.8764 37.1549 37.3064 37.4549 37.9064C37.6549 38.3264 38.0549 38.7464 38.3849 39.0464C39.1849 39.6664 39.9549 40.2664 40.7949 40.8064C41.6349 41.3164 42.5349 41.7664 43.4949 42.0464C44.7349 42.4064 46.0649 42.6164 47.3849 42.4464C48.7149 42.2764 49.9949 41.7564 51.1149 41.0364C51.3249 40.8964 51.5249 40.7664 51.7349 40.6264C51.9249 40.4964 52.3649 40.2264 52.7649 40.2164C53.1749 40.1764 53.5749 40.2864 53.9049 40.4964C54.2349 40.7064 54.4849 41.0264 54.6149 41.3864C54.7449 41.7864 54.7449 42.0164 54.8149 42.3064C55.0449 43.3764 55.3349 44.4164 55.5049 45.5164C55.5649 45.8964 55.6549 46.2864 55.7449 46.6564C56.1249 48.1464 56.5649 49.6364 56.3849 51.1464L56.5049 51.8064L56.5649 52.1264C56.5749 52.1564 56.5849 52.1664 56.5949 52.1764C56.6049 52.1964 56.6749 52.2064 56.7149 52.1964C56.7349 52.1864 56.7449 52.1864 56.7549 52.1664C56.7649 52.1364 56.7649 52.1764 56.8049 52.0364C56.9349 51.6064 57.0249 51.0864 57.2049 50.7664C57.7149 49.8864 57.8849 49.1064 57.8649 48.1764C57.8549 47.6664 58.0449 46.9964 58.1649 46.3864C58.2449 45.9464 58.3549 45.5264 58.6649 45.2864C58.7549 45.2164 58.9349 44.7964 58.9349 44.6464C58.9349 44.0564 59.2449 43.5664 59.3649 43.0664C59.5449 42.3264 59.7449 41.7464 60.1149 41.1864C60.2349 41.0064 60.3549 40.5764 60.3649 40.3364C60.4149 38.7664 60.8549 37.1364 61.3049 35.5064L61.5849 34.5064L61.7249 34.0064L61.7949 33.7564L61.8349 33.6264C61.8549 33.5464 61.8849 33.4764 61.9149 33.4064C62.0349 33.1164 62.2149 32.8464 62.4349 32.6264C62.5349 32.5264 62.6949 32.3964 62.7749 32.3464L62.9849 32.1964L63.8349 31.5964C64.4349 31.1864 64.9249 30.8264 65.3949 30.4264C65.8649 30.0164 66.2949 29.5664 66.6849 29.0764C66.8849 28.7964 67.1249 28.5064 67.2249 28.1964C67.6549 27.1564 68.0749 26.1064 68.2849 24.9864C68.3549 24.5464 68.3649 24.1064 68.3449 23.6664C68.6849 23.3564 68.3549 23.0464 68.3249 22.7364C68.2949 22.3064 68.2949 21.8864 68.1449 21.4164C67.9349 20.8564 67.7949 20.2264 67.5449 19.6464C67.3349 19.1664 67.2149 18.7964 67.1649 18.4964C67.1349 18.1964 67.2149 17.9564 67.4049 17.7464C67.4649 17.6764 67.5349 17.6164 67.6049 17.5664C67.8149 17.4264 68.0249 17.5264 68.3849 17.9964C68.8149 18.5664 69.2549 19.2264 69.4349 19.9064C69.8249 21.3664 70.1649 22.7964 70.1449 24.2764C70.1149 25.3664 69.9349 26.4464 69.5849 27.4964C69.2149 28.5364 68.6849 29.5264 67.9949 30.4164L67.2749 31.2364L66.4849 31.9964L65.6249 32.6764L64.7949 33.2664L64.0149 33.8364L63.8349 33.9764C63.8149 33.9964 63.7949 34.0164 63.7749 34.0364C63.7449 34.0764 63.7249 34.1264 63.7049 34.1764L63.2549 35.9764C62.9649 37.0864 62.6849 38.2464 62.3249 39.3064C61.6749 41.2064 61.1749 43.1364 60.5449 45.0264C60.3849 45.5164 60.2149 46.0164 60.1049 46.5064C59.7049 48.2564 59.2649 49.9864 58.6649 51.6964C58.6049 51.8764 58.5149 52.1164 58.5249 52.2464C58.5349 52.3664 58.5349 52.4864 58.5349 52.6064C58.5249 52.6464 58.5449 52.6364 58.5249 52.7264C58.5049 52.8164 58.4749 52.8964 58.4449 52.9864C58.3649 53.1664 58.2649 53.3364 58.1249 53.4964C57.5449 54.1564 56.5849 54.3264 55.8049 53.9564C55.4049 53.7764 55.0449 53.4164 54.8549 53.0164C54.7549 52.8264 54.7049 52.5764 54.6749 52.4464L54.6449 52.2564C54.6049 52.0064 54.5649 51.7464 54.5249 51.5064L53.1449 43.6364L52.9349 42.4364L52.8849 42.1364L52.8749 42.0664V42.0764C52.8749 42.0864 52.8849 42.0864 52.8749 42.0964C52.8849 42.1264 52.9049 42.1564 52.9249 42.1764C52.9649 42.2164 53.0049 42.2364 53.0849 42.2264C53.1049 42.2364 53.1949 42.1864 53.1249 42.2264C52.9649 42.3464 52.7949 42.4564 52.5949 42.5864C51.0549 43.6164 49.2649 44.2864 47.4149 44.5164C46.2749 44.6364 45.1049 44.6264 43.9749 44.4364C42.8449 44.2264 41.7449 43.8664 40.7449 43.3164C39.5149 42.6264 38.3849 41.8864 37.4249 40.8964C36.9749 40.4564 36.6049 39.9464 36.2349 39.4464L35.3149 38.0764L33.4549 35.3464L30.2149 30.7164L28.5849 28.4064L28.1749 27.8264L27.7449 27.1564C27.4349 26.7164 27.2349 26.2164 26.9849 25.7364C26.8749 25.4664 26.7549 25.1864 26.6349 24.9264C25.8249 23.1364 25.6149 21.0664 25.8949 19.0864C26.1849 17.0964 27.0449 15.2064 28.2549 13.6164C28.8449 12.8764 29.4949 12.1864 30.2349 11.5964C31.0149 10.9664 31.6349 10.5764 32.3049 10.0864L36.3049 7.2964C38.1249 6.0464 39.9749 4.8464 41.8049 3.6164L44.0649 2.1064C44.4549 1.8564 44.9349 1.56641 45.3749 1.32641C45.8449 1.11641 46.3049 0.866405 46.8049 0.716405C48.8849 -0.0535952 51.2149 -0.243596 53.3049 0.346404C53.6049 0.446404 53.9249 0.526404 54.2349 0.616404L55.1549 0.946404C56.6749 1.5364 58.0449 2.47641 59.1649 3.6364C59.7249 4.20641 60.2249 4.8764 60.6449 5.5064L61.8449 7.3364C62.2349 7.9264 62.5549 8.5064 62.6349 9.1064C62.6749 9.3964 62.9249 9.87641 63.1549 10.2364C63.8149 11.2664 64.4349 12.3364 65.2449 13.2664C65.7849 13.8764 66.0749 14.5564 66.4749 15.2064C66.5049 15.2564 66.4849 15.3764 66.4349 15.3764C66.2249 15.3664 66.2849 15.5464 66.4549 15.8064C66.7749 16.2764 67.2749 16.6664 67.4249 17.2064C67.6049 17.8564 67.0449 17.6564 66.9449 18.0064C66.8349 18.3864 66.2849 17.8864 66.0249 17.9764C65.9849 17.9864 65.7849 17.7464 65.6749 17.6064C65.3949 17.2464 65.1749 16.9364 64.6849 16.2364Z" fill="#69B9CB"/>
<path d="M54.2754 30.2668C54.0354 30.4268 53.7554 30.4968 53.4654 30.4668C52.3954 30.3368 51.3654 30.2268 50.4654 30.1268C47.8154 29.8368 45.5254 29.5968 43.6854 29.0668C41.6354 28.4768 40.2254 27.5468 39.2654 26.1368C38.3354 24.7668 37.9454 23.1868 38.1654 21.6868C38.3854 20.1668 39.2254 18.8468 40.5054 17.9668C41.4654 17.3068 42.5554 17.0168 43.7354 17.0868C44.3354 17.1268 44.9354 17.2468 45.5454 17.4668C45.5654 16.8268 45.6654 16.2068 45.8454 15.6468C46.2154 14.5168 46.8854 13.6168 47.8454 12.9568C49.1354 12.0768 50.6654 11.7868 52.1654 12.1368C53.6454 12.4768 54.9754 13.4168 55.9054 14.7868C56.8654 16.1968 57.2154 17.8368 57.0154 19.9668C56.8354 21.8668 56.2354 24.0868 55.5254 26.6668C55.2854 27.5468 55.0154 28.5468 54.7454 29.5868C54.6754 29.8668 54.5054 30.1068 54.2754 30.2668Z" fill="#69B9CB"/>
<path d="M54.2754 30.2668C54.0354 30.4268 53.7554 30.4968 53.4654 30.4668C52.3954 30.3368 51.3654 30.2268 50.4654 30.1268C47.8154 29.8368 45.5254 29.5968 43.6854 29.0668C41.6354 28.4768 40.2254 27.5468 39.2654 26.1368C38.3354 24.7668 37.9454 23.1868 38.1654 21.6868C38.3854 20.1668 39.2254 18.8468 40.5054 17.9668C41.4654 17.3068 42.5554 17.0168 43.7354 17.0868C44.3354 17.1268 44.9354 17.2468 45.5454 17.4668C45.5654 16.8268 45.6654 16.2068 45.8454 15.6468C46.2154 14.5168 46.8854 13.6168 47.8454 12.9568C49.1354 12.0768 50.6654 11.7868 52.1654 12.1368C53.6454 12.4768 54.9754 13.4168 55.9054 14.7868C56.8654 16.1968 57.2154 17.8368 57.0154 19.9668C56.8354 21.8668 56.2354 24.0868 55.5254 26.6668C55.2854 27.5468 55.0154 28.5468 54.7454 29.5868C54.6754 29.8668 54.5054 30.1068 54.2754 30.2668Z" fill="#69B9CB"/>
<path d="M52.9744 32.1653C52.6144 32.0753 52.0644 31.9453 51.5144 31.8053C51.2244 31.7353 50.9344 31.6553 50.6544 31.5853C50.4444 31.5353 50.2344 31.5053 50.0844 31.3053C49.9444 31.1253 49.7644 31.1453 49.5644 31.2253C49.4444 31.2753 49.2944 31.3353 49.1744 31.3153C48.6244 31.1953 48.0644 31.0753 47.5144 30.9653C47.1444 30.8953 46.7844 30.8153 46.4744 30.5753C46.2744 30.4153 46.0644 30.5253 45.8444 30.6153C45.5744 30.7253 45.5044 30.6453 45.3844 30.2953C45.3144 30.0753 45.2444 30.0453 45.1344 30.1953C45.0344 30.3453 44.9644 30.5053 44.7444 30.4553C44.1144 30.3053 43.4644 30.1453 42.8344 29.8953C42.6544 29.8253 42.3044 29.7853 42.5544 29.4253C42.5644 29.4053 42.5644 29.3453 42.5544 29.3453C42.2744 29.2153 41.9944 29.0753 41.7244 28.9153C41.2544 29.0453 41.0144 28.5553 40.6244 28.4653C40.5444 28.4453 40.4344 28.3653 40.4344 28.2953C40.3944 27.8953 39.9144 27.8253 39.8844 27.4453C39.8644 27.2153 39.7344 27.1753 39.5244 27.1753C39.3444 27.1753 39.1944 27.1253 39.0644 26.9653C38.4744 26.2253 38.0044 25.3953 37.7244 24.4753C37.5644 23.9053 37.4644 23.2953 37.5344 22.7053C37.6644 21.6453 37.8944 20.6153 38.4344 19.7153C38.7444 19.1953 39.2044 18.7853 39.6944 18.4753C39.8844 18.3553 40.0444 18.2353 40.1844 18.0553C40.7344 17.3253 41.5944 16.7953 42.5444 16.6153C43.4944 16.4253 44.4844 16.5453 45.3844 16.8453C45.4944 16.8853 45.6044 16.9453 45.7044 17.0153L45.0644 17.4553C45.1144 17.2953 45.1644 17.1353 45.1644 16.9753C45.1644 16.6953 45.1244 16.4253 45.2844 16.1553C45.3844 15.9753 45.4144 15.7053 45.3944 15.4853C45.3144 14.4553 46.0444 13.5453 46.8144 12.9353C47.3244 12.5253 47.9244 12.2853 48.5044 12.0453C49.0844 11.8053 49.6944 11.5753 50.3444 11.4853C50.4644 11.4653 50.5844 11.4453 50.6944 11.4453C51.2344 11.4753 51.7444 11.6753 52.2444 11.7453C52.7244 11.8053 53.2344 11.8653 53.6744 12.1053C53.8244 12.1853 53.9944 12.2553 54.1544 12.3153C54.8144 12.5553 55.5144 12.9253 55.6444 13.7053C55.9144 13.9953 56.1644 14.3053 56.3944 14.6353C56.5044 14.7953 56.6844 14.9753 56.6844 15.1553C56.6944 15.6553 56.8644 15.9253 57.2744 16.2153C57.4944 16.3753 57.5944 16.6853 57.7244 16.9553C57.8144 17.1453 57.8744 17.3453 57.6644 17.5253C57.6044 17.5753 57.5844 17.7853 57.6344 17.8453C57.8344 18.0753 57.6944 18.3453 57.7344 18.5753C57.7944 18.9153 57.7644 19.1853 57.5544 19.4553C57.4844 19.5453 57.4844 19.7353 57.5444 19.8353C57.9044 20.5253 57.8444 21.2753 57.7544 22.0053C57.5944 23.1953 57.3244 24.3453 56.9544 25.4553C56.9044 25.6053 56.8544 25.7753 56.8644 25.9353C56.8744 26.4853 56.7044 26.9853 56.5544 27.4953C56.4944 27.6953 56.4844 27.9053 56.4544 28.1053C56.1144 28.1653 56.3644 28.3753 56.3344 28.5253C56.2944 28.7253 56.1544 28.8853 56.1544 29.1253C56.1544 29.2653 56.1244 29.4153 56.0744 29.5553C56.0144 29.7153 55.9644 29.8853 55.9044 30.0353C55.7344 30.5153 55.4244 30.7653 55.1744 30.8353C54.9144 30.9053 54.7044 30.8053 54.5244 30.6053C54.4644 30.5353 54.4044 30.4653 54.3544 30.3953C54.2144 30.1853 54.2144 30.0453 54.2844 29.8753C54.3744 29.6653 54.2644 29.4553 54.4044 29.1553C54.6744 28.5953 54.6544 27.9953 54.7244 27.4153C54.8244 26.5553 54.9444 25.7053 55.1844 24.8753C55.3344 24.3353 55.4644 23.7953 55.5844 23.2453C55.7044 22.7253 55.7244 22.1953 55.7644 21.6753C55.8044 21.2153 55.8144 20.7453 55.9044 20.3153C56.0644 19.5453 56.0144 18.7853 56.0044 18.0653C56.0044 17.8753 55.9844 17.6853 55.9144 17.5153C55.6744 16.9053 55.3844 16.3853 55.1544 15.8153C55.1244 15.7553 55.0944 15.6753 55.0344 15.6653C54.5744 15.6053 54.4744 15.2453 54.2344 15.0053C53.6244 14.3753 52.9044 13.8953 52.1144 13.6653C51.1544 13.3753 50.1344 13.4753 49.2544 13.9053C48.6944 14.1853 48.2544 14.5853 47.8344 14.9753C47.5544 15.2253 47.4544 15.5753 47.3244 15.9153C47.1344 16.4053 46.9944 16.9453 46.9544 17.5153L46.8244 19.5253L45.0444 18.8153C44.8944 18.7553 44.7344 18.7053 44.5844 18.6653C43.3644 18.3453 42.2144 18.5253 41.2844 19.2053C41.2244 19.2553 41.1644 19.3153 41.1144 19.3853C40.4944 20.2553 39.9944 21.0353 39.8444 22.0353C39.7044 22.9653 39.9744 23.9553 40.4744 24.8453C40.8144 25.4553 41.2044 26.0053 41.7444 26.4553C42.1944 26.8253 42.7244 27.1253 43.3144 27.3953C43.9444 27.6853 44.6744 27.8353 45.3744 28.1753C45.5844 28.2753 45.8144 28.3153 46.0344 28.3753C47.1744 28.6453 48.3544 28.8453 49.5444 29.0653C49.8344 29.1153 50.0944 29.2153 50.2944 29.5153C50.3944 29.6653 50.6044 29.7553 50.7744 29.7853C51.2744 29.8853 51.7744 30.0453 52.2944 29.9653C52.6444 29.9153 52.9244 30.0953 53.2344 30.1753C53.2544 30.1853 53.2844 30.2753 53.2644 30.3053C53.1944 30.4653 53.2644 30.5253 53.3844 30.5453C53.6544 30.5853 53.8444 30.3653 54.1144 30.4353C54.4844 30.4853 54.4644 30.8953 54.7244 31.0653C55.0744 31.2053 54.6444 31.6753 54.6444 31.9453C54.6544 31.9853 54.3644 32.1353 54.1844 32.1653C53.9944 32.2153 53.7944 32.2353 53.5344 32.2353C53.4344 32.2353 53.1944 32.2153 53.1744 32.2053C53.1344 32.1853 53.0544 32.1753 52.9744 32.1653Z" fill="#69B9CB"/>
<path d="M1295.96 95.2988C1295.96 94.9377 1296.02 94.5766 1296.04 94.2072C1296.15 93.0089 1296.45 91.7942 1297.02 90.678C1297.15 90.44 1297.27 90.1856 1297.42 89.9476C1297.75 89.4962 1298.13 89.0776 1298.55 88.7247C1298.63 88.659 1298.73 88.6098 1298.77 88.5195C1299.01 88.0763 1299.45 87.8465 1299.85 87.6085C1300.28 87.3622 1300.69 87.0832 1301.12 86.8698C1301.32 86.7631 1301.53 86.64 1301.77 86.5661C1302 86.4922 1302.25 86.4102 1302.51 86.4922C1302.68 86.5333 1302.87 86.4512 1303.04 86.3691C1303.31 86.2296 1303.59 86.2542 1303.88 86.2788C1304.52 86.3773 1305.17 86.3035 1305.8 86.4594C1306.02 86.5169 1306.22 86.5907 1306.43 86.6646C1306.5 86.6892 1306.57 86.7384 1306.65 86.7384C1307.18 86.7549 1307.63 87.0586 1308.11 87.2391C1308.87 87.5018 1309.47 88.0681 1310.09 88.5523C1311.01 89.332 1311.83 90.2594 1312.39 91.3592C1312.53 91.6629 1312.66 91.9748 1312.78 92.2867C1312.86 92.615 1312.95 92.9269 1313.02 93.2716C1313.16 94.2729 1312.83 95.2249 1312.36 95.9964C1312.2 96.2591 1312.08 96.5381 1311.91 96.7844C1311.45 97.4574 1310.76 97.876 1310.19 98.4012C1309.76 98.8034 1309.25 99.0989 1308.72 99.3615C1308.55 99.4436 1308.36 99.5174 1308.19 99.5913C1307.63 99.8621 1307.05 100.084 1306.45 100.256C1305.76 100.461 1305.04 100.609 1304.29 100.625C1303.45 100.642 1302.55 100.461 1301.81 99.9278C1300.94 99.3451 1300.49 98.2453 1300.29 97.3999C1299.84 95.9308 1299.74 94.3057 1300.2 92.7381C1300.27 92.4837 1300.4 92.2374 1300.52 91.9994C1300.64 91.7614 1300.84 91.5644 1301.02 91.3675C1301.23 91.1705 1301.45 90.9817 1301.66 90.7847C1301.9 90.6288 1302.1 90.3908 1302.38 90.2841C1303.17 89.8327 1304.17 89.8573 1304.96 90.1938C1305.52 90.4564 1306.02 90.7765 1306.48 91.1541C1306.65 91.31 1306.84 91.4495 1307.02 91.589C1307.2 91.7532 1307.37 91.9091 1307.54 92.0815C1307.67 92.2046 1307.75 92.3934 1307.83 92.5493C1308.16 93.2223 1308.13 94.0759 1307.71 94.6668C1307.67 94.7325 1307.59 94.7735 1307.53 94.8228C1306.94 95.3316 1306.2 95.504 1305.5 95.6517C1305.32 95.6846 1305.15 95.7666 1304.98 95.8077C1304.94 95.8159 1304.85 95.7666 1304.85 95.742C1304.85 95.6517 1304.84 95.5368 1304.87 95.4876C1304.92 95.4137 1305.01 95.3727 1305.09 95.3481C1305.48 95.2414 1305.88 95.1018 1306.23 94.9295C1306.38 94.8556 1306.51 94.7736 1306.64 94.6833C1306.98 94.4535 1307.21 94.1826 1307.25 93.9118C1307.39 93.4111 1306.79 92.615 1306.15 92.0815C1305.13 91.1623 1303.71 90.6862 1302.6 91.2936C1302.49 91.3675 1302.4 91.4413 1302.3 91.5234C1302.2 91.6055 1302.13 91.7204 1302.04 91.8024C1301.24 92.6314 1301.03 94.0184 1301.12 95.307C1301.18 95.9636 1301.3 96.6202 1301.48 97.2686C1301.63 97.9744 1301.85 98.4341 1302.23 98.828C1302.71 99.3287 1303.46 99.5913 1304.28 99.5913C1305.47 99.5913 1306.7 99.1809 1307.82 98.6146C1308.94 98.0483 1310 97.3178 1310.83 96.3904C1311.66 95.4465 1312.27 94.2729 1311.93 93.1321C1311.65 91.9256 1310.96 90.834 1310.06 89.9394C1308.74 88.6754 1307.02 87.7398 1305.19 87.4525C1304.55 87.3294 1303.89 87.3951 1303.26 87.4525C1302.65 87.551 1302.1 87.6659 1301.52 87.9368C1301.4 87.986 1301.28 88.027 1301.16 88.0845C1300.39 88.462 1299.7 88.9381 1299.1 89.5044C1298.64 89.964 1298.25 90.4975 1297.94 91.0884C1297.66 91.6875 1297.41 92.3195 1297.26 92.9925C1296.99 94.0677 1296.93 95.2003 1296.91 96.3329C1296.91 96.9239 1296.91 97.5066 1296.93 98.0976C1296.93 98.2617 1296.89 98.4258 1296.83 98.59C1296.79 98.6967 1296.69 98.8034 1296.51 98.787C1296.35 98.7788 1296.26 98.6967 1296.23 98.5736C1296.15 98.1304 1296.01 97.6872 1295.99 97.2358C1295.9 96.5956 1295.94 95.9472 1295.96 95.2988Z" fill="#69B9CB"/>
<path d="M1303.76 111.322C1303.75 111.289 1303.75 111.256 1303.74 111.215C1303.72 111.1 1303.75 110.985 1303.77 110.879C1303.78 110.854 1303.75 110.829 1303.76 110.805C1303.77 110.755 1303.8 110.706 1303.82 110.657C1303.82 110.649 1303.84 110.641 1303.81 110.632C1303.62 110.583 1303.68 110.542 1303.68 110.501C1303.68 110.46 1303.61 110.411 1303.59 110.361C1303.56 110.32 1303.44 110.271 1303.65 110.238C1303.72 110.23 1303.68 110.206 1303.62 110.189C1303.53 110.156 1303.54 110.14 1303.59 110.115C1303.7 110.058 1303.56 110 1303.59 109.943C1303.6 109.926 1303.63 109.902 1303.64 109.885C1303.64 109.877 1303.67 109.869 1303.65 109.861C1303.5 109.812 1303.64 109.771 1303.59 109.721C1303.52 109.647 1303.66 109.582 1303.68 109.508C1303.73 109.401 1303.72 109.286 1303.73 109.18C1303.73 109.122 1303.73 109.065 1303.75 108.999C1303.77 108.917 1303.79 108.835 1303.8 108.761C1303.8 108.736 1303.76 108.704 1303.73 108.679C1303.68 108.605 1303.86 108.539 1303.79 108.466C1303.74 108.408 1303.77 108.359 1303.81 108.301C1303.82 108.285 1303.85 108.269 1303.86 108.252C1303.87 108.195 1303.88 108.137 1303.89 108.08C1303.89 108.014 1303.88 107.948 1303.87 107.883C1303.86 107.809 1303.87 107.735 1303.87 107.653C1303.85 107.563 1303.85 107.481 1303.8 107.39C1303.72 107.243 1303.79 107.103 1303.79 106.964C1303.79 106.914 1303.82 106.873 1303.92 106.832C1304.03 106.783 1303.98 106.734 1303.93 106.685C1303.86 106.602 1303.87 106.529 1303.95 106.455C1304 106.405 1304.05 106.348 1304.06 106.299C1304.07 106.258 1304 106.209 1303.99 106.167C1303.98 106.151 1304 106.135 1304.02 106.118C1304.11 106.061 1304.29 106.003 1304.26 105.938C1304.26 105.929 1304.29 105.921 1304.3 105.921C1304.41 105.856 1304.51 105.79 1304.6 105.716C1304.63 105.7 1304.59 105.683 1304.6 105.659C1304.6 105.65 1304.67 105.65 1304.69 105.65C1304.78 105.659 1304.89 105.659 1304.93 105.667C1304.99 105.675 1305.01 105.683 1305.01 105.691C1305.01 105.732 1305.01 105.782 1305.01 105.823C1305.01 105.839 1305.01 105.856 1305.01 105.88C1305 105.929 1304.99 105.979 1304.99 106.028C1304.99 106.118 1304.97 106.209 1304.99 106.307C1305.01 106.455 1304.96 106.602 1304.94 106.75C1304.93 106.783 1304.98 106.816 1304.98 106.84C1304.92 107.111 1305.01 107.39 1304.98 107.661C1304.97 107.752 1304.92 107.834 1304.92 107.924C1304.9 108.055 1304.92 108.178 1304.91 108.31C1304.9 108.441 1304.87 108.564 1304.84 108.695C1304.82 108.827 1304.8 108.958 1304.78 109.089C1304.77 109.221 1304.78 109.352 1304.76 109.475C1304.73 109.664 1304.69 109.844 1304.67 110.033C1304.66 110.099 1304.72 110.164 1304.73 110.238C1304.74 110.304 1304.71 110.361 1304.7 110.427C1304.7 110.444 1304.69 110.452 1304.69 110.468C1304.71 110.558 1304.74 110.641 1304.74 110.731C1304.75 110.87 1304.76 111.01 1304.72 111.149C1304.69 111.256 1304.7 111.371 1304.7 111.486C1304.7 111.543 1304.7 111.601 1304.69 111.658C1304.68 111.675 1304.63 111.691 1304.56 111.699C1304.52 111.707 1304.41 111.716 1304.23 111.707C1304.07 111.699 1303.99 111.691 1303.96 111.675C1303.9 111.625 1303.79 111.584 1303.77 111.535C1303.74 111.445 1303.77 111.387 1303.76 111.322C1303.77 111.322 1303.77 111.322 1303.76 111.322Z" fill="#69B9CB"/>
<path d="M1318.74 106.928C1318.71 106.912 1318.69 106.887 1318.65 106.87C1318.55 106.813 1318.47 106.715 1318.4 106.616C1318.38 106.591 1318.34 106.6 1318.33 106.575C1318.29 106.534 1318.27 106.477 1318.24 106.427C1318.24 106.419 1318.24 106.394 1318.22 106.419C1318.06 106.526 1318.06 106.452 1318.03 106.427C1317.99 106.394 1317.92 106.411 1317.86 106.403C1317.81 106.394 1317.69 106.452 1317.8 106.263C1317.83 106.206 1317.79 106.222 1317.74 106.255C1317.66 106.304 1317.65 106.28 1317.66 106.222C1317.69 106.107 1317.55 106.173 1317.52 106.107C1317.51 106.083 1317.51 106.058 1317.51 106.033C1317.51 106.025 1317.51 106 1317.5 106.009C1317.36 106.091 1317.42 105.951 1317.35 105.951C1317.24 105.951 1317.28 105.804 1317.23 105.738C1317.17 105.631 1317.08 105.566 1317 105.483C1316.96 105.434 1316.91 105.393 1316.87 105.344C1316.81 105.278 1316.77 105.204 1316.7 105.139C1316.68 105.122 1316.63 105.139 1316.59 105.13C1316.5 105.122 1316.56 104.942 1316.46 104.942C1316.39 104.942 1316.36 104.876 1316.34 104.819C1316.33 104.802 1316.34 104.761 1316.33 104.745C1316.29 104.695 1316.26 104.646 1316.21 104.605C1316.16 104.556 1316.09 104.523 1316.04 104.482C1315.97 104.433 1315.91 104.375 1315.85 104.334C1315.77 104.285 1315.7 104.228 1315.59 104.211C1315.42 104.178 1315.36 104.031 1315.24 103.924C1315.21 103.891 1315.18 103.834 1315.22 103.727C1315.25 103.612 1315.17 103.62 1315.09 103.62C1314.98 103.629 1314.93 103.563 1314.92 103.456C1314.91 103.382 1314.9 103.308 1314.86 103.267C1314.83 103.235 1314.76 103.251 1314.71 103.243C1314.69 103.235 1314.69 103.21 1314.69 103.185C1314.7 103.07 1314.76 102.898 1314.68 102.873C1314.67 102.873 1314.69 102.841 1314.69 102.832C1314.7 102.709 1314.71 102.578 1314.69 102.455C1314.68 102.422 1314.65 102.438 1314.63 102.422C1314.63 102.422 1314.66 102.356 1314.67 102.34C1314.72 102.266 1314.79 102.168 1314.82 102.143C1314.86 102.102 1314.89 102.094 1314.9 102.094C1314.94 102.127 1314.99 102.176 1315.03 102.209L1315.08 102.241L1315.2 102.356C1315.28 102.422 1315.35 102.496 1315.44 102.545C1315.58 102.627 1315.68 102.767 1315.78 102.882C1315.81 102.906 1315.86 102.89 1315.88 102.914C1316.07 103.144 1316.36 103.259 1316.55 103.464C1316.62 103.53 1316.66 103.629 1316.73 103.694C1316.82 103.793 1316.94 103.867 1317.03 103.965C1317.13 104.064 1317.21 104.17 1317.3 104.277L1317.59 104.589C1317.69 104.687 1317.79 104.778 1317.89 104.876C1318.03 105.024 1318.15 105.188 1318.29 105.327C1318.34 105.377 1318.43 105.385 1318.49 105.426C1318.55 105.467 1318.58 105.524 1318.63 105.574C1318.64 105.582 1318.65 105.598 1318.65 105.607C1318.74 105.656 1318.83 105.689 1318.9 105.746C1319.02 105.836 1319.14 105.918 1319.22 106.05C1319.29 106.156 1319.39 106.214 1319.48 106.288C1319.53 106.329 1319.58 106.37 1319.61 106.419C1319.62 106.435 1319.6 106.485 1319.57 106.542C1319.55 106.583 1319.49 106.665 1319.37 106.797C1319.25 106.92 1319.19 106.977 1319.17 106.977C1319.09 107.002 1318.99 107.043 1318.93 107.035C1318.83 107.026 1318.79 106.969 1318.74 106.928Z" fill="#69B9CB"/>
<path d="M1323.89 93.8441C1323.86 93.8523 1323.82 93.8523 1323.78 93.8605C1323.67 93.8851 1323.55 93.8523 1323.45 93.8276C1323.42 93.8194 1323.4 93.8523 1323.37 93.8441C1323.32 93.8276 1323.27 93.803 1323.22 93.7784C1323.22 93.7784 1323.21 93.7538 1323.2 93.7866C1323.15 93.9754 1323.11 93.9097 1323.07 93.9097C1323.02 93.9097 1322.98 93.9754 1322.93 94C1322.89 94.0246 1322.84 94.1477 1322.81 93.9343C1322.8 93.8687 1322.77 93.9097 1322.76 93.9672C1322.72 94.0575 1322.7 94.0411 1322.68 93.9918C1322.63 93.8851 1322.57 94.0246 1322.51 93.9918C1322.49 93.9836 1322.47 93.959 1322.45 93.9508C1322.45 93.9425 1322.44 93.9179 1322.43 93.9343C1322.37 94.0821 1322.34 93.9426 1322.29 93.9918C1322.22 94.0657 1322.15 93.9261 1322.08 93.8933C1321.97 93.8523 1321.85 93.8605 1321.75 93.8441C1321.69 93.8358 1321.63 93.8276 1321.57 93.8194C1321.48 93.803 1321.41 93.7702 1321.33 93.762C1321.3 93.762 1321.27 93.803 1321.25 93.8276C1321.17 93.8769 1321.11 93.7045 1321.03 93.762C1320.98 93.8112 1320.93 93.7702 1320.87 93.7374C1320.85 93.7291 1320.84 93.6963 1320.82 93.6881C1320.76 93.6717 1320.71 93.6553 1320.65 93.6553C1320.58 93.6553 1320.52 93.6635 1320.45 93.6635C1320.38 93.6635 1320.3 93.6635 1320.22 93.6717C1320.13 93.6799 1320.05 93.6881 1319.96 93.7292C1319.81 93.8112 1319.67 93.7374 1319.53 93.7292C1319.48 93.7292 1319.44 93.6963 1319.4 93.5978C1319.36 93.4911 1319.3 93.5404 1319.25 93.5896C1319.17 93.6635 1319.1 93.6471 1319.02 93.5732C1318.97 93.524 1318.92 93.4665 1318.87 93.4583C1318.83 93.4501 1318.78 93.5158 1318.74 93.5322C1318.72 93.5404 1318.7 93.524 1318.69 93.4994C1318.63 93.4091 1318.57 93.2285 1318.51 93.2531C1318.5 93.2531 1318.49 93.2203 1318.49 93.2121C1318.42 93.1054 1318.36 92.9987 1318.29 92.9084C1318.28 92.8838 1318.26 92.9248 1318.23 92.9166C1318.23 92.9166 1318.23 92.8428 1318.23 92.8263C1318.23 92.7361 1318.24 92.6212 1318.25 92.5801C1318.26 92.5227 1318.28 92.498 1318.28 92.498C1318.33 92.498 1318.37 92.5062 1318.42 92.5145C1318.43 92.5145 1318.45 92.5062 1318.47 92.5145C1318.52 92.5227 1318.57 92.5309 1318.62 92.5309C1318.71 92.5391 1318.8 92.5473 1318.9 92.5391C1319.05 92.5145 1319.2 92.5637 1319.34 92.5883C1319.38 92.5965 1319.41 92.5473 1319.43 92.5555C1319.7 92.613 1319.98 92.5309 1320.25 92.5637C1320.34 92.5719 1320.43 92.6211 1320.52 92.6376C1320.65 92.654 1320.77 92.6376 1320.9 92.654C1321.03 92.6704 1321.16 92.7032 1321.28 92.7196C1321.41 92.7443 1321.54 92.7689 1321.67 92.7853C1321.8 92.8017 1321.94 92.8017 1322.06 92.8181C1322.25 92.8427 1322.43 92.892 1322.62 92.9166C1322.68 92.9248 1322.76 92.8674 1322.82 92.8674C1322.89 92.8592 1322.95 92.8838 1323.01 92.892C1323.03 92.892 1323.04 92.9002 1323.05 92.9002C1323.14 92.8838 1323.22 92.851 1323.32 92.851C1323.45 92.8428 1323.59 92.8346 1323.73 92.8838C1323.84 92.9248 1323.96 92.9002 1324.07 92.9002C1324.13 92.9002 1324.19 92.9002 1324.24 92.9166C1324.26 92.9248 1324.28 92.9741 1324.28 93.0397C1324.29 93.0808 1324.29 93.1875 1324.28 93.368C1324.28 93.5322 1324.26 93.6142 1324.25 93.6389C1324.2 93.7045 1324.15 93.8112 1324.11 93.8276C1324 93.8605 1323.95 93.8358 1323.89 93.8441C1323.89 93.8358 1323.89 93.8358 1323.89 93.8441Z" fill="#69B9CB"/>
<path d="M1316.3 77.4993C1316.29 77.5321 1316.27 77.5649 1316.27 77.5978C1316.23 77.7127 1316.16 77.7948 1316.09 77.885C1316.07 77.9014 1316.09 77.9425 1316.07 77.9589C1316.04 77.9999 1315.99 78.0246 1315.95 78.0656C1315.94 78.0738 1315.91 78.0656 1315.94 78.0902C1316.09 78.2215 1316.01 78.2297 1315.99 78.2708C1315.98 78.3118 1316.01 78.3775 1316.01 78.4349C1316.02 78.4842 1316.1 78.5827 1315.9 78.517C1315.83 78.4924 1315.86 78.5334 1315.9 78.5745C1315.97 78.6401 1315.95 78.6565 1315.9 78.6565C1315.78 78.6565 1315.87 78.7796 1315.82 78.8125C1315.81 78.8207 1315.78 78.8371 1315.76 78.8453C1315.75 78.8453 1315.72 78.8453 1315.73 78.8617C1315.85 78.9766 1315.7 78.952 1315.72 79.0177C1315.75 79.1162 1315.59 79.1161 1315.54 79.1654C1315.45 79.2475 1315.41 79.3459 1315.35 79.4362C1315.31 79.4855 1315.28 79.5347 1315.25 79.584C1315.2 79.6496 1315.13 79.7071 1315.09 79.7727C1315.08 79.7974 1315.11 79.8384 1315.11 79.8794C1315.12 79.9697 1314.94 79.9451 1314.96 80.0436C1314.98 80.1175 1314.92 80.1503 1314.87 80.1749C1314.85 80.1831 1314.81 80.1831 1314.8 80.1995C1314.76 80.2406 1314.73 80.2898 1314.7 80.3391C1314.67 80.3965 1314.65 80.4622 1314.62 80.5278C1314.58 80.5935 1314.55 80.6591 1314.53 80.733C1314.5 80.8151 1314.46 80.8971 1314.47 80.9956C1314.48 81.1598 1314.35 81.2583 1314.28 81.3814C1314.25 81.4224 1314.21 81.4471 1314.1 81.4388C1313.98 81.4306 1314.01 81.5045 1314.03 81.5702C1314.06 81.6769 1314.01 81.7343 1313.91 81.7671C1313.84 81.7918 1313.77 81.8082 1313.74 81.8574C1313.71 81.8903 1313.75 81.9641 1313.75 82.0134C1313.75 82.0298 1313.72 82.038 1313.7 82.038C1313.59 82.0544 1313.41 82.0216 1313.4 82.0955C1313.4 82.1037 1313.37 82.0955 1313.36 82.0955C1313.24 82.1119 1313.11 82.1201 1313 82.1365C1312.97 82.1447 1313 82.1775 1312.98 82.1857C1312.98 82.1857 1312.92 82.1611 1312.9 82.1529C1312.83 82.1119 1312.72 82.0462 1312.69 82.0216C1312.64 81.9887 1312.63 81.9641 1312.63 81.9559C1312.65 81.9149 1312.68 81.882 1312.7 81.8492C1312.7 81.8328 1312.7 81.8164 1312.72 81.8C1312.74 81.7589 1312.78 81.7179 1312.8 81.6769C1312.84 81.5948 1312.9 81.5209 1312.93 81.4306C1312.97 81.2829 1313.08 81.1762 1313.17 81.0531C1313.19 81.0285 1313.16 80.9792 1313.18 80.9546C1313.35 80.7412 1313.4 80.454 1313.55 80.2242C1313.6 80.1503 1313.68 80.0928 1313.73 80.019C1313.8 79.9123 1313.84 79.7892 1313.91 79.6825C1313.98 79.5758 1314.07 79.4773 1314.14 79.3706C1314.22 79.2639 1314.3 79.1572 1314.37 79.0505C1314.44 78.9438 1314.49 78.8207 1314.57 78.714C1314.67 78.558 1314.8 78.4103 1314.9 78.2544C1314.94 78.1969 1314.92 78.1148 1314.94 78.0492C1314.97 77.9917 1315.01 77.9425 1315.05 77.8932C1315.06 77.885 1315.08 77.8768 1315.08 77.8604C1315.1 77.7783 1315.11 77.6881 1315.15 77.606C1315.21 77.4829 1315.26 77.3516 1315.36 77.2449C1315.44 77.1628 1315.48 77.0479 1315.53 76.9576C1315.55 76.9083 1315.58 76.8509 1315.62 76.8099C1315.63 76.8017 1315.68 76.8099 1315.75 76.8263C1315.79 76.8427 1315.89 76.8837 1316.04 76.974C1316.19 77.0561 1316.26 77.1053 1316.27 77.1217C1316.31 77.1956 1316.37 77.2777 1316.38 77.3351C1316.36 77.4008 1316.31 77.4418 1316.3 77.4993C1316.29 77.4993 1316.29 77.4993 1316.3 77.4993Z" fill="#69B9CB"/>
<path d="M1302.13 76.2659C1302.13 76.2987 1302.14 76.3233 1302.16 76.3561C1302.2 76.4546 1302.19 76.5695 1302.18 76.6762C1302.18 76.7009 1302.22 76.7173 1302.21 76.7419C1302.2 76.7911 1302.18 76.8404 1302.17 76.8896C1302.17 76.8978 1302.15 76.9142 1302.19 76.9142C1302.38 76.9307 1302.33 76.9799 1302.34 77.0209C1302.35 77.062 1302.41 77.0948 1302.45 77.1359C1302.49 77.1687 1302.61 77.1933 1302.4 77.259C1302.34 77.2836 1302.39 77.2918 1302.45 77.3C1302.54 77.3164 1302.53 77.341 1302.49 77.3657C1302.39 77.4313 1302.54 77.4723 1302.51 77.5298C1302.5 77.5462 1302.49 77.5708 1302.48 77.5873C1302.47 77.5955 1302.45 77.6037 1302.47 77.6119C1302.63 77.6365 1302.49 77.6939 1302.54 77.735C1302.63 77.7924 1302.5 77.8745 1302.49 77.9484C1302.46 78.0551 1302.49 78.1536 1302.49 78.2603C1302.49 78.3177 1302.5 78.3752 1302.49 78.4326C1302.49 78.5065 1302.47 78.5886 1302.48 78.6624C1302.48 78.687 1302.53 78.7117 1302.55 78.7281C1302.61 78.7855 1302.45 78.8758 1302.52 78.9333C1302.58 78.9825 1302.54 79.0318 1302.52 79.0892C1302.51 79.1056 1302.48 79.1302 1302.48 79.1467C1302.47 79.2041 1302.47 79.2534 1302.47 79.3108C1302.48 79.3765 1302.49 79.4339 1302.51 79.4996C1302.53 79.5735 1302.53 79.6391 1302.55 79.713C1302.58 79.795 1302.59 79.8771 1302.65 79.951C1302.75 80.0741 1302.7 80.2218 1302.71 80.3532C1302.71 80.3942 1302.68 80.4434 1302.59 80.4927C1302.49 80.5501 1302.55 80.5912 1302.61 80.6322C1302.69 80.6979 1302.68 80.7717 1302.62 80.8456C1302.57 80.9031 1302.53 80.9523 1302.52 81.0098C1302.52 81.0508 1302.58 81.0918 1302.61 81.1329C1302.62 81.1493 1302.6 81.1657 1302.58 81.1821C1302.49 81.2478 1302.32 81.3134 1302.35 81.3791C1302.35 81.3873 1302.31 81.3955 1302.31 81.4037C1302.21 81.453 1302.1 81.5761 1302.01 81.5432C1302 81.535 1302.01 81.535 1302.02 81.5432C1302.03 81.5515 1302 81.5268 1302.1 81.5843C1302.1 81.5843 1302.17 81.6335 1302.19 81.6499C1302.17 81.6335 1302.13 81.6089 1302.13 81.6007C1302.07 81.5597 1301.99 81.5186 1301.92 81.494C1301.83 81.4612 1301.73 81.4365 1301.62 81.4365C1301.6 81.453 1301.61 81.4776 1301.61 81.5022C1301.61 81.5433 1301.62 81.4858 1301.62 81.4858C1301.62 81.4776 1301.61 81.4612 1301.61 81.4448C1301.61 81.4119 1301.62 81.3873 1301.62 81.3381C1301.62 81.256 1301.62 81.1739 1301.6 81.1C1301.56 80.9687 1301.59 80.8292 1301.6 80.6897C1301.6 80.665 1301.55 80.6404 1301.55 80.6076C1301.58 80.3532 1301.45 80.1069 1301.44 79.8525C1301.44 79.7704 1301.48 79.6802 1301.48 79.5981C1301.47 79.475 1301.44 79.3601 1301.44 79.2452C1301.43 79.1221 1301.44 79.0072 1301.44 78.884C1301.44 78.7609 1301.45 78.6378 1301.44 78.5147C1301.44 78.3916 1301.42 78.2767 1301.41 78.1536C1301.41 77.973 1301.43 77.8007 1301.42 77.6201C1301.42 77.5544 1301.35 77.5052 1301.34 77.4395C1301.32 77.3821 1301.33 77.3246 1301.33 77.259C1301.33 77.2508 1301.34 77.2343 1301.33 77.2261C1301.3 77.1523 1301.26 77.0702 1301.24 76.9963C1301.21 76.865 1301.17 76.7419 1301.2 76.6106C1301.21 76.5039 1301.17 76.4054 1301.16 76.2987C1301.16 76.2412 1301.15 76.192 1301.16 76.1345C1301.16 76.1181 1301.21 76.1017 1301.27 76.0771C1301.31 76.0607 1301.41 76.0442 1301.59 76.0196C1301.76 76.0032 1301.84 75.995 1301.86 76.0032C1301.94 76.0361 1302.04 76.0607 1302.08 76.1017C1302.13 76.1427 1302.11 76.2084 1302.13 76.2659Z" fill="#69B9CB"/>
<path d="M1288.46 85.7799C1288.5 85.7881 1288.53 85.8045 1288.57 85.8128C1288.71 85.8374 1288.81 85.9112 1288.92 85.9851C1288.94 86.0015 1288.99 85.9851 1289 86.0015C1289.05 86.0343 1289.09 86.0836 1289.13 86.1164C1289.14 86.1246 1289.14 86.1493 1289.17 86.1164C1289.29 85.9605 1289.31 86.0343 1289.35 86.0508C1289.4 86.0672 1289.47 86.0261 1289.54 86.0261C1289.59 86.0179 1289.68 85.9277 1289.64 86.141C1289.63 86.2067 1289.67 86.1739 1289.71 86.1328C1289.77 86.059 1289.79 86.0836 1289.8 86.141C1289.81 86.2642 1289.93 86.1575 1289.98 86.2149C1289.99 86.2313 1290.01 86.2559 1290.02 86.2806C1290.03 86.2888 1290.02 86.3216 1290.04 86.3052C1290.14 86.1821 1290.13 86.338 1290.2 86.3134C1290.31 86.2806 1290.32 86.4365 1290.39 86.4857C1290.49 86.5678 1290.6 86.6007 1290.72 86.6581C1290.77 86.691 1290.84 86.7156 1290.89 86.7566C1290.96 86.8059 1291.04 86.8633 1291.12 86.9043C1291.14 86.9207 1291.19 86.8879 1291.23 86.8797C1291.32 86.8633 1291.32 87.0521 1291.42 87.0274C1291.5 87.0028 1291.54 87.0603 1291.59 87.1095C1291.6 87.1259 1291.6 87.167 1291.62 87.1752C1291.68 87.2162 1291.73 87.2491 1291.78 87.2737C1291.85 87.3065 1291.92 87.3229 1292 87.3475C1292.08 87.3722 1292.15 87.4132 1292.24 87.4296C1292.33 87.4542 1292.42 87.4871 1292.53 87.4789C1292.71 87.4625 1292.83 87.5856 1292.97 87.6512C1293.02 87.6758 1293.06 87.7169 1293.06 87.8318C1293.07 87.9467 1293.15 87.922 1293.22 87.8974C1293.33 87.8564 1293.4 87.9056 1293.45 88.0041C1293.48 88.0698 1293.52 88.1436 1293.57 88.1765C1293.61 88.2011 1293.69 88.1601 1293.74 88.1601C1293.75 88.1601 1293.77 88.1847 1293.77 88.2093C1293.8 88.316 1293.79 88.5048 1293.88 88.513C1293.88 88.513 1293.88 88.5458 1293.88 88.5622C1293.92 88.6853 1293.95 88.8167 1293.98 88.9316C1293.99 88.9562 1294.02 88.9316 1294.04 88.948C1294.04 88.948 1294.02 89.0219 1294.02 89.0383C1293.98 89.1203 1293.93 89.227 1293.91 89.2599C1293.88 89.3091 1293.86 89.3255 1293.85 89.3255C1293.8 89.3091 1293.76 89.2845 1293.72 89.2599C1293.7 89.2517 1293.68 89.2517 1293.66 89.2435C1293.61 89.2188 1293.56 89.1942 1293.52 89.1696C1293.43 89.1286 1293.34 89.0793 1293.23 89.0547C1293.06 89.0136 1292.92 88.9069 1292.78 88.8249C1292.74 88.8085 1292.69 88.8413 1292.67 88.8249C1292.41 88.6607 1292.09 88.6279 1291.82 88.4884C1291.73 88.4391 1291.65 88.3653 1291.57 88.316C1291.44 88.2504 1291.3 88.2093 1291.18 88.1437C1291.05 88.078 1290.93 87.9959 1290.8 87.9303C1290.67 87.8564 1290.54 87.7825 1290.41 87.7169C1290.28 87.6512 1290.15 87.602 1290.02 87.5281C1289.83 87.4296 1289.66 87.3065 1289.47 87.2162C1289.4 87.1834 1289.31 87.208 1289.24 87.1834C1289.17 87.167 1289.12 87.1177 1289.05 87.0849C1289.03 87.0767 1289.03 87.0603 1289.02 87.0603C1288.92 87.0439 1288.82 87.0356 1288.73 87.0028C1288.58 86.9536 1288.44 86.9043 1288.3 86.8058C1288.21 86.7238 1288.07 86.6992 1287.96 86.6499C1287.9 86.6253 1287.84 86.6006 1287.79 86.5596C1287.77 86.5514 1287.78 86.494 1287.79 86.4283C1287.8 86.3873 1287.83 86.2888 1287.9 86.1246C1287.97 85.9687 1288.02 85.903 1288.03 85.8866C1288.11 85.8456 1288.19 85.7635 1288.25 85.7635C1288.34 85.7143 1288.39 85.7635 1288.46 85.7799C1288.46 85.7881 1288.46 85.7799 1288.46 85.7799Z" fill="#69B9CB"/>
<path d="M1288.29 107.249C1288.31 107.224 1288.34 107.199 1288.36 107.167C1288.44 107.068 1288.55 107.011 1288.66 106.953C1288.68 106.937 1288.68 106.904 1288.71 106.887C1288.76 106.863 1288.81 106.846 1288.87 106.83C1288.88 106.83 1288.9 106.838 1288.89 106.805C1288.81 106.625 1288.88 106.649 1288.91 106.617C1288.95 106.584 1288.95 106.502 1288.97 106.452C1288.99 106.403 1288.95 106.28 1289.12 106.411C1289.17 106.452 1289.16 106.403 1289.13 106.354C1289.1 106.264 1289.13 106.264 1289.17 106.28C1289.29 106.321 1289.25 106.173 1289.31 106.157C1289.34 106.149 1289.36 106.149 1289.39 106.149C1289.4 106.149 1289.42 106.165 1289.41 106.141C1289.36 105.993 1289.49 106.067 1289.49 106.001C1289.51 105.894 1289.65 105.952 1289.73 105.919C1289.85 105.87 1289.93 105.788 1290.03 105.722C1290.08 105.689 1290.14 105.648 1290.19 105.615C1290.27 105.574 1290.36 105.541 1290.42 105.484C1290.45 105.468 1290.44 105.41 1290.45 105.377C1290.47 105.287 1290.64 105.377 1290.66 105.279C1290.68 105.205 1290.74 105.197 1290.81 105.18C1290.83 105.172 1290.87 105.189 1290.88 105.18C1290.94 105.156 1291 105.123 1291.05 105.082C1291.1 105.041 1291.15 104.983 1291.2 104.934C1291.26 104.877 1291.33 104.827 1291.38 104.77C1291.45 104.696 1291.51 104.639 1291.56 104.54C1291.62 104.376 1291.78 104.335 1291.9 104.236C1291.94 104.204 1292 104.195 1292.1 104.245C1292.2 104.294 1292.21 104.22 1292.22 104.146C1292.24 104.031 1292.31 103.998 1292.42 103.998C1292.49 103.998 1292.57 104.007 1292.62 103.974C1292.66 103.949 1292.65 103.867 1292.68 103.826C1292.69 103.81 1292.71 103.81 1292.74 103.818C1292.84 103.843 1293.01 103.941 1293.05 103.875C1293.05 103.867 1293.08 103.892 1293.09 103.892C1293.21 103.925 1293.34 103.957 1293.45 103.982C1293.48 103.99 1293.48 103.949 1293.49 103.941C1293.5 103.941 1293.55 103.99 1293.56 104.007C1293.62 104.081 1293.68 104.171 1293.71 104.204C1293.74 104.253 1293.74 104.277 1293.73 104.286C1293.7 104.319 1293.66 104.343 1293.62 104.368C1293.6 104.376 1293.59 104.401 1293.57 104.409C1293.53 104.442 1293.48 104.466 1293.44 104.499C1293.36 104.557 1293.28 104.614 1293.21 104.688C1293.11 104.811 1292.95 104.877 1292.82 104.967C1292.79 104.983 1292.79 105.041 1292.77 105.057C1292.51 105.205 1292.34 105.459 1292.1 105.624C1292.01 105.681 1291.92 105.697 1291.83 105.755C1291.72 105.837 1291.62 105.935 1291.51 106.017C1291.4 106.1 1291.28 106.165 1291.16 106.231C1291.04 106.305 1290.91 106.379 1290.8 106.461C1290.68 106.543 1290.58 106.633 1290.46 106.707C1290.29 106.822 1290.11 106.912 1289.95 107.027C1289.89 107.068 1289.86 107.158 1289.81 107.208C1289.77 107.257 1289.7 107.29 1289.64 107.322C1289.63 107.331 1289.62 107.331 1289.61 107.339C1289.55 107.413 1289.49 107.495 1289.43 107.56C1289.32 107.659 1289.22 107.766 1289.07 107.831C1288.95 107.881 1288.88 107.979 1288.78 108.053C1288.73 108.094 1288.69 108.135 1288.62 108.16C1288.61 108.168 1288.56 108.135 1288.51 108.094C1288.48 108.069 1288.4 107.995 1288.3 107.848C1288.2 107.716 1288.15 107.643 1288.15 107.618C1288.14 107.536 1288.12 107.421 1288.13 107.372C1288.18 107.322 1288.25 107.298 1288.29 107.249C1288.3 107.257 1288.29 107.249 1288.29 107.249Z" fill="#69B9CB"/>
<path d="M7.88161 409.227C1.22543 410.343 0.603455 413.034 1.07543 414.017C1.77237 415.473 8.29623 416.051 13.2983 413.404L17.1447 408.812" fill="#417A87"/>
<path d="M6.81783 410.079C6.47819 410.07 6.14294 410.092 5.79007 410.052C5.4813 410.03 5.16371 410.008 4.9167 410.215C4.85053 410.268 4.76672 410.268 4.69173 410.299C4.55499 410.357 4.41826 410.405 4.28593 410.471C4.22418 410.502 4.18889 410.595 4.12273 410.595C3.80072 410.608 3.49637 410.705 3.29787 410.97C3.01557 410.948 2.85676 411.155 2.70679 411.34C2.54799 411.512 2.33185 411.627 2.26569 411.878C2.24804 411.945 2.20395 411.993 2.14661 412.02C1.81138 412.178 1.60845 412.5 1.52465 412.818C1.43202 413.153 1.32616 413.458 1.28205 413.802C1.27764 413.832 1.27764 413.868 1.28205 413.899C1.30851 414.062 1.42762 414.172 1.56436 414.269C1.77167 414.41 2.03192 414.476 2.27893 414.547C2.64505 414.657 3.0332 414.697 3.42578 414.644C3.94628 414.569 4.46237 414.494 4.97404 414.424C5.23429 414.388 5.49455 414.446 5.7548 414.468C6.27971 414.512 6.81343 414.565 7.34716 414.543C7.74856 414.521 8.14555 414.454 8.53372 414.353C8.89542 414.265 9.24387 414.115 9.59675 414C10.6377 413.652 11.6435 413.219 12.5565 412.668L12.6403 412.615C12.658 412.602 12.6492 412.602 12.6536 412.597C12.658 412.589 12.6536 412.58 12.6492 412.571L12.6448 412.558C12.6448 412.553 12.6403 412.553 12.6448 412.549L12.6712 412.505L12.7859 412.333C12.8653 412.218 12.9535 412.112 13.0461 412.011C13.3902 411.631 13.7431 411.265 14.0783 410.877L15.4987 409.21C15.7721 408.897 16.0589 408.597 16.2309 408.204C16.2794 408.094 16.3809 408.129 16.5132 408.297C16.747 408.588 17.0028 408.879 17.0425 409.174C17.069 409.373 17.0778 409.541 16.9278 409.633C16.7117 409.77 16.6808 410.074 16.3544 410.114C16.3103 410.118 16.2838 410.163 16.2706 410.202C16.0059 410.908 15.4413 411.371 14.9605 411.905C14.8017 412.077 14.6826 412.284 14.5415 412.469C14.4489 412.589 14.3518 412.708 14.2504 412.822C14.1048 412.986 13.9328 413.131 13.8049 413.312C13.7563 413.383 13.7254 413.449 13.646 413.532C13.5755 413.607 13.4828 413.665 13.3329 413.603C13.2755 413.581 13.1917 413.634 13.1873 413.696C13.1697 413.929 13.0329 413.978 12.905 414.027C12.5521 414.172 12.1904 414.291 11.8375 414.428C11.5773 414.529 11.3215 414.653 11.07 414.785C10.6775 414.988 10.2893 415.222 9.87465 415.394C9.53059 415.535 9.1689 415.628 8.80719 415.729C8.72339 415.751 8.6484 415.809 8.5646 415.831C8.41021 415.866 8.25142 415.937 8.09703 415.888C7.92059 415.835 7.79707 415.831 7.66474 416.029C7.58975 416.139 7.45301 416.144 7.33833 416.135C7.19276 416.126 7.04721 416.073 6.90164 416.016C6.72962 415.945 6.57081 415.875 6.39878 416.016C6.30615 416.091 6.16943 416.056 6.05916 416.011C5.56954 415.809 5.09754 415.822 4.60351 415.853C3.93745 415.888 3.25816 415.928 2.54358 415.844C2.26569 415.813 1.9834 415.729 1.69668 415.637C1.44967 415.548 1.20264 415.447 0.937977 415.266C0.871812 415.222 0.810079 415.182 0.739504 415.12C0.668928 415.059 0.580708 414.993 0.518954 414.918C0.382213 414.772 0.276345 414.604 0.183715 414.428C-0.0897667 413.771 -0.0147778 413.21 0.130785 412.725C0.205772 412.522 0.285165 412.324 0.346919 412.13C0.466016 411.658 0.779188 411.314 1.11001 411.045C1.31733 410.895 1.49819 410.732 1.67463 410.564C1.85548 410.414 2.02308 410.229 2.20393 410.074C2.28774 410.004 2.36274 409.911 2.46419 409.867C2.81266 409.708 3.13466 409.554 3.45666 409.369C3.77866 409.205 4.10508 409.042 4.44913 408.936C4.72703 408.866 5.00932 408.813 5.29604 408.769C5.57834 408.729 5.86505 408.716 6.14735 408.689C6.57963 408.641 7.01632 408.672 7.4486 408.667C7.47507 408.667 7.50153 408.645 7.53241 408.645C7.77943 408.654 7.89413 408.901 7.85002 409.311C7.81473 409.677 7.70002 409.907 7.49712 409.938C7.27216 409.973 7.04279 409.986 6.81342 410.008L6.81783 410.079Z" fill="#69B9CB"/>
<path d="M18.0125 407.779C20.4518 407.656 25.1671 403.108 28.6121 406.681C30.3633 408.494 29.3752 412.42 27.3417 414.259C24.6687 416.681 19.2652 416.315 15.3262 412.208" fill="#417A87"/>
<path d="M19.1643 406.819C19.5481 406.761 19.9362 406.647 20.3464 406.594C20.7126 406.545 21.0787 406.497 21.3566 406.232C21.4272 406.162 21.533 406.148 21.6212 406.104C21.7844 406.029 21.952 405.959 22.1108 405.875C22.1858 405.84 22.2344 405.738 22.3182 405.729C22.7152 405.698 23.068 405.601 23.3945 405.363C23.7253 405.434 23.9723 405.248 24.259 405.134C24.5457 405.024 24.8589 405.015 25.1589 404.869C25.2382 404.829 25.3353 404.816 25.4191 404.834C25.9308 404.971 26.4292 404.984 26.9453 405.112C27.4923 405.244 27.9819 405.579 28.2951 406.034C28.3833 406.153 28.4759 406.259 28.5685 406.369C28.6656 406.475 28.7715 406.567 28.8597 406.686C28.97 406.819 29.0935 406.947 29.1861 407.097C29.2875 407.238 29.389 407.388 29.4507 407.551C29.6713 408.014 29.7948 408.499 29.9403 409.002C30.13 409.677 30.1741 410.405 30.0771 411.106C30.0242 411.464 29.8654 411.799 29.7022 412.116C29.3802 412.76 28.9611 413.343 28.5024 413.89C28.1495 414.295 27.7834 414.701 27.3555 415.045C26.9629 415.372 26.5483 415.689 26.0851 415.914C25.9175 416.007 25.7411 416.082 25.5647 416.144C25.3882 416.21 25.2118 416.285 25.0265 416.338C24.6604 416.43 24.2943 416.541 23.9194 416.585C23.1739 416.721 22.4196 416.704 21.6654 416.669C21.3125 416.62 20.942 416.616 20.5891 416.549C20.4126 416.514 20.2362 416.466 20.0642 416.413C19.429 416.205 18.8247 415.927 18.238 415.623C17.3999 415.186 16.5927 414.692 15.8825 414.084C15.4635 413.753 15.1106 413.365 14.6519 413.078C14.5195 412.999 14.5592 412.897 14.7489 412.787C15.0797 412.597 15.4062 412.381 15.7282 412.385C15.9443 412.39 16.1251 412.403 16.2266 412.58C16.3766 412.831 16.7206 412.871 16.7956 413.224C16.8044 413.272 16.8574 413.303 16.9015 413.321C17.7131 413.607 18.3174 414.163 19.0629 414.529C19.182 414.591 19.3055 414.639 19.4334 414.688L19.8215 414.803C19.9892 414.856 20.148 414.922 20.3112 414.975C20.5494 415.05 20.7875 415.151 21.0346 415.2C21.2242 415.226 21.4139 415.186 21.5463 415.433C21.5727 415.486 21.6786 415.491 21.7183 415.447C21.8815 415.279 22.0315 415.301 22.1858 415.328C22.6005 415.398 23.0239 415.42 23.443 415.411C23.7517 415.372 24.0605 415.336 24.3472 415.213C24.5722 415.129 24.7927 415.045 24.9956 414.922C25.203 414.812 25.4014 414.701 25.5867 414.569C25.7455 414.467 25.9087 414.384 26.0543 414.265C26.1998 414.154 26.3631 414.066 26.4821 413.929C26.5395 413.872 26.5792 413.788 26.6409 413.735C26.76 413.643 26.8306 413.493 26.9806 413.44C27.1526 413.387 27.2453 413.29 27.2011 413.065C27.1747 412.941 27.2673 412.849 27.3379 412.769C27.4305 412.668 27.5761 412.602 27.6996 412.513C27.8496 412.412 28.0172 412.319 27.9775 412.09C27.9554 411.971 28.0525 411.869 28.1451 411.79C28.5377 411.428 28.7009 410.921 28.7406 410.418C28.7979 409.739 28.7185 409.06 28.5156 408.504C28.4715 408.398 28.4318 408.292 28.4009 408.186C28.3524 408.089 28.3083 407.997 28.2686 407.899C28.2289 407.829 28.1804 407.772 28.1451 407.701C28.1098 407.63 28.0657 407.573 28.0127 407.52C27.9598 407.463 27.9334 407.405 27.8672 407.339L27.6731 407.141C27.4085 406.889 27.1262 406.664 26.8174 406.492C26.6983 406.426 26.5704 406.356 26.4248 406.36C26.0984 406.364 25.8073 406.303 25.4764 406.237C25.075 406.162 24.656 406.298 24.2634 406.479C24.1708 406.523 24.0826 406.589 23.9855 406.603C23.2798 406.7 22.6666 407.154 21.9653 407.436C21.3919 407.666 20.7787 407.851 20.1347 408.036C19.6363 408.173 19.1158 408.296 18.5291 408.332C18.4894 408.332 18.4541 408.358 18.4144 408.358C18.0527 408.349 17.9645 408.089 18.0704 407.679C18.1586 407.317 18.2512 407.101 18.4586 407.053C18.6879 407.004 18.9393 406.942 19.1908 406.867L19.1643 406.819Z" fill="#69B9CB"/>
<path d="M12.067 414.85C9.98938 419.813 13.5182 421.648 14.0431 421.718C15.556 421.921 19.9979 419.398 16.4427 411.771" fill="#417A87"/>
<path d="M12.3665 415.865C12.2121 416.055 12.1107 416.262 11.9298 416.461C11.7578 416.633 11.6387 416.827 11.7269 417.052C11.7534 417.109 11.7137 417.166 11.7093 417.219C11.6916 417.321 11.6916 417.427 11.7048 417.528C11.7093 417.577 11.7842 417.625 11.7578 417.669C11.696 417.775 11.6563 417.881 11.6475 417.991C11.6519 418.097 11.6916 418.203 11.771 418.3C11.6166 418.49 11.7622 418.64 11.8636 418.781C11.9563 418.926 11.9519 419.103 12.1415 419.2C12.19 419.226 12.2165 419.266 12.2121 419.31C12.1856 419.456 12.2253 419.584 12.2915 419.694C12.3533 419.809 12.4282 419.914 12.5253 420.003C12.7105 420.206 12.8473 420.439 12.9487 420.744C13.0017 420.911 13.134 421.013 13.2619 421.105C13.4163 421.216 13.6016 421.277 13.7692 421.344C13.8971 421.397 14.003 421.423 14.1132 421.41C14.2191 421.374 14.3206 421.357 14.4308 421.264C14.7087 421.075 14.9425 420.814 15.163 420.607C15.2645 420.475 15.4321 420.448 15.5689 420.364C15.8468 420.206 16.1379 420.02 16.3673 419.76C16.4467 419.659 16.5172 419.553 16.5878 419.442C16.6584 419.332 16.6848 419.2 16.7334 419.081C16.826 418.856 16.8172 418.596 16.8569 418.362C16.9451 417.652 16.9275 416.924 16.751 416.205C16.7113 416.033 16.6496 415.865 16.6054 415.693C16.5746 415.609 16.5525 415.521 16.5393 415.433C16.4775 415.106 16.4731 414.771 16.3673 414.445C16.2217 413.977 16.0938 413.51 15.8953 413.051C15.7938 412.791 15.71 412.517 15.4939 412.305C15.4321 412.248 15.5115 412.182 15.7188 412.12C16.0717 412.014 16.4334 411.891 16.6893 411.935C16.8613 411.966 17.0024 412.006 16.998 412.138C16.9936 412.332 17.223 412.442 17.0863 412.685C17.0686 412.72 17.0907 412.747 17.1127 412.769C17.3377 412.958 17.4435 413.201 17.5185 413.457C17.5935 413.708 17.6376 413.973 17.7038 414.229C17.7479 414.396 17.8096 414.56 17.8626 414.723C17.8934 414.833 17.9199 414.943 17.9376 415.054C17.964 415.217 17.9684 415.38 18.0126 415.539C18.039 415.658 18.1228 415.773 17.9155 415.909C17.8714 415.936 17.889 415.997 17.9464 416.015C18.1537 416.081 18.1449 416.187 18.1493 416.289C18.1758 416.567 18.1184 416.849 18.1228 417.127C18.1184 417.334 18.1581 417.541 18.1669 417.753C18.189 418.084 18.2816 418.437 18.2331 418.785C18.211 419.076 18.1449 419.363 18.039 419.645C18.017 419.712 18.0302 419.791 18.0037 419.857C17.9596 419.976 17.9464 420.126 17.8141 420.192C17.6729 420.267 17.6067 420.342 17.6861 420.545C17.7303 420.66 17.6597 420.753 17.5935 420.819C17.4965 420.898 17.3685 420.947 17.2406 420.986C17.0862 421.035 16.9539 421.075 16.9407 421.269C16.9319 421.374 16.8172 421.414 16.7201 421.436C16.504 421.489 16.3275 421.573 16.1555 421.661C15.9879 421.758 15.8379 421.882 15.6659 421.988C15.4498 422.151 15.1984 422.283 14.9381 422.415C14.797 422.468 14.647 422.517 14.497 422.565C14.3426 422.61 14.1485 422.618 13.9324 422.632H13.9236C13.7648 422.614 13.5883 422.583 13.4472 422.526C13.3104 422.482 13.2134 422.433 13.1031 422.38C12.4459 422.071 11.9695 421.564 11.599 420.995C11.5284 420.88 11.4666 420.761 11.3608 420.673C11.2329 420.576 11.1535 420.444 11.0785 420.307C11.0035 420.175 10.955 420.025 10.9329 419.87C10.8535 419.509 10.6991 419.195 10.5359 418.851C10.4962 418.772 10.4521 418.697 10.4521 418.609C10.4698 418.313 10.4036 418.031 10.3948 417.749C10.3683 417.466 10.333 417.175 10.3992 416.902C10.4477 416.681 10.4962 416.456 10.5889 416.258L10.8756 415.662C11.0167 415.358 11.2373 415.102 11.4137 414.833C11.4269 414.815 11.4181 414.789 11.4314 414.771C11.5461 414.621 11.8063 414.674 12.1459 414.904C12.4459 415.106 12.6047 415.278 12.5473 415.406C12.4856 415.552 12.4018 415.689 12.3268 415.83L12.3665 415.865Z" fill="#69B9CB"/>
<path d="M16.6644 408.847C13.8678 407.404 20.0256 400.58 18.2303 398C13.4841 391.181 6.19709 395.459 4.63119 400.161C3.36524 403.955 5.5531 409.782 10.7316 412.208" fill="#417A87"/>
<path d="M15.3051 407.171C15.4595 406.562 15.6845 406.046 15.98 405.579C16.2447 405.164 16.5226 404.785 16.5976 404.295C16.6152 404.167 16.6946 404.057 16.7475 403.938C16.8402 403.722 16.9372 403.51 17.0166 403.289C17.0519 403.188 17.0298 403.06 17.0916 402.976C17.3959 402.584 17.6165 402.147 17.665 401.653C17.9517 401.362 17.9694 400.969 18.0135 400.603C18.062 400.237 18.1855 399.875 18.0841 399.522C18.0664 399.43 18.0444 399.333 18.0753 399.245C18.1458 398.984 18.1414 398.711 18.0444 398.49C18.0267 398.429 17.9959 398.38 17.965 398.331C17.9297 398.279 17.912 398.234 17.8547 398.173L17.568 397.829C17.1489 397.348 16.7696 396.849 16.3814 396.324C16.2844 396.179 16.1609 396.051 16.0197 395.945C15.883 395.835 15.7418 395.725 15.5919 395.636C15.4154 395.526 15.2346 395.425 15.0361 395.35C14.8464 395.266 14.6523 395.191 14.4582 395.125C13.898 394.922 13.2981 394.829 12.7159 394.904C11.9351 395.01 11.2073 395.231 10.5236 395.526C10.1796 395.685 9.80023 395.769 9.43853 395.919C8.71954 396.21 8.00937 396.589 7.39624 397.11C6.93308 397.493 6.5405 397.961 6.20968 398.459C5.90091 398.927 5.6892 399.443 5.50835 399.95C4.96139 401.432 5.09369 403.113 5.57008 404.644C5.62301 404.829 5.71125 405.005 5.78183 405.186C5.8524 405.367 5.9318 405.543 6.02443 405.715C6.11265 405.887 6.18323 406.068 6.25381 406.249C6.55816 406.898 6.87133 407.555 7.31243 408.128C7.92114 408.962 8.6666 409.694 9.49146 410.316C9.72965 410.484 9.97668 410.647 10.2237 410.806C10.4751 410.951 10.753 411.057 11.0353 411.141C11.1941 411.185 11.1985 411.3 11.053 411.463C10.8015 411.745 10.5545 412.045 10.1752 412.094C9.92373 412.12 9.67232 412.142 9.47824 411.944C9.20476 411.657 8.74159 411.6 8.5828 411.176C8.56074 411.119 8.49457 411.079 8.43722 411.048C7.383 410.541 6.64638 409.597 6.02884 408.644L5.38924 407.722C5.27015 407.511 5.15986 407.295 5.04959 407.074C4.88197 406.761 4.807 406.408 4.6482 406.095C4.53351 405.857 4.40118 405.623 4.53351 405.332C4.55998 405.27 4.50704 405.142 4.44528 405.111C4.20268 404.983 4.17623 404.758 4.13212 404.542C4.06155 404.251 4.03948 403.951 4.0086 403.656C3.96449 403.36 3.9689 403.06 3.95126 402.76C3.9292 402.54 3.93362 402.319 3.92921 402.094C3.92921 401.869 3.90274 401.644 3.92479 401.419L3.94243 400.89C3.94684 400.713 3.98213 400.537 4.00419 400.356C4.04388 399.994 4.1233 399.642 4.23798 399.297C4.42765 398.72 4.71878 398.186 5.04078 397.674C5.11136 397.551 5.16427 397.423 5.24367 397.308C5.38924 397.096 5.5348 396.863 5.74653 396.726C5.98914 396.585 6.1347 396.448 6.19205 396.148C6.22733 395.98 6.39495 395.83 6.54492 395.729C6.739 395.597 6.95514 395.5 7.1801 395.42C7.44476 395.319 7.69619 395.253 7.86822 394.984C7.96085 394.834 8.17698 394.767 8.35342 394.723C9.13857 394.538 9.83993 394.238 10.5986 393.995C11.622 393.678 12.7512 393.532 13.876 393.709C14.3171 393.775 14.745 393.916 15.1596 394.079C15.7992 394.344 16.3902 394.706 16.9107 395.138C17.4224 395.579 17.89 396.055 18.2781 396.58C18.4413 396.779 18.5825 396.999 18.759 397.176L18.9133 397.335C18.9663 397.396 19.006 397.423 19.0677 397.524C19.1868 397.701 19.2927 397.886 19.3544 398.08C19.4956 398.468 19.5132 398.848 19.4868 399.192C19.403 400.012 19.2883 400.709 19.1515 401.397C19.1162 401.556 19.1074 401.728 19.0368 401.865C18.5649 402.853 18.287 403.867 17.8591 404.78C17.5151 405.513 17.1136 406.209 16.871 406.884C16.6814 407.409 16.5932 407.864 16.7255 408.124C16.7387 408.141 16.7652 408.146 16.7784 408.164C16.8711 408.314 16.8931 408.622 16.5535 408.883C16.3991 408.984 16.205 409.055 16.0241 409.002C15.83 408.962 15.6536 408.816 15.5301 408.596C15.2831 408.093 15.3051 407.595 15.3625 407.18L15.3051 407.171Z" fill="#69B9CB"/>
<path d="M11.3435 414.948C11.6832 415.354 13.849 413.889 15.6442 411.856C17.466 409.8 18.7231 407.352 18.2688 407.057C17.8189 406.765 16.0059 408.852 14.2283 410.903C12.4815 412.919 11.0392 414.582 11.3435 414.948Z" fill="#69B9CB"/>
<path d="M11.9256 414.211C12.1682 414.18 12.4152 414.097 12.6931 414.057C12.9401 414.022 13.1915 413.973 13.3018 413.73C13.3283 413.669 13.3989 413.651 13.4474 413.607C13.5356 413.532 13.6238 413.461 13.7032 413.378C13.7385 413.338 13.7341 413.245 13.787 413.236C14.0473 413.175 14.2502 413.038 14.3296 412.773C14.581 412.769 14.6295 412.548 14.7265 412.381C14.8192 412.213 14.978 412.098 15.0089 411.873C15.0177 411.816 15.0442 411.763 15.0971 411.745C15.4014 411.618 15.5646 411.357 15.7279 411.101C15.9043 410.828 16.1337 410.603 16.4513 410.431C16.6233 410.343 16.7247 410.188 16.8218 410.043C16.9409 409.866 17.0159 409.663 17.1173 409.478C17.2629 409.209 17.3776 408.922 17.4129 408.605C17.457 408.186 17.5143 407.762 17.5143 407.449C17.5099 407.379 17.5275 407.308 17.5363 407.299C17.4966 407.29 17.6643 407.312 17.7481 407.299C17.8495 407.295 17.9113 407.295 17.9907 407.273C18.1098 407.259 18.1892 407.189 18.1804 407.193C18.1804 407.193 18.1495 407.259 18.1759 407.401C18.1892 407.462 18.2068 407.568 18.2421 407.643C18.2509 407.679 18.2906 407.784 18.2818 407.758L18.2774 407.754C18.2421 407.754 18.1715 407.776 18.0966 407.811C17.9422 407.881 17.7745 407.992 17.6157 408.111C17.3775 408.296 17.1658 408.53 16.9673 408.772C16.7821 409.002 16.6321 409.266 16.4557 409.505C15.9308 410.21 15.4058 410.929 14.8898 411.657C14.7662 411.834 14.6604 412.023 14.5413 412.2C14.4795 412.288 14.4134 412.372 14.3384 412.447C14.0649 412.734 13.787 413.007 13.5312 413.298C13.1651 413.713 12.8254 414.154 12.5343 414.555C12.4549 414.666 12.3755 414.776 12.3358 414.864C12.3093 414.917 12.3182 414.935 12.3138 414.961L12.3182 414.957C12.3138 414.952 12.2829 414.943 12.2652 414.935C12.2255 414.921 12.1858 414.904 12.1417 414.895C12.0579 414.868 11.9741 414.851 11.8859 414.842C11.78 414.838 11.7712 414.811 11.7094 414.807C11.6565 414.802 11.6036 414.802 11.5506 414.816C11.458 414.816 11.4492 414.864 11.4712 414.833C11.4845 414.824 11.4933 414.82 11.5065 414.82C11.5286 414.815 11.5065 414.829 11.5727 414.811C11.4227 414.829 11.2463 414.763 11.1757 414.643C11.061 414.476 11.0169 414.313 11.136 414.207C11.3036 414.057 11.2772 413.792 11.5683 413.761C11.608 413.757 11.6212 413.717 11.6301 413.686C11.7624 413.078 12.2299 412.716 12.6093 412.31C12.7328 412.178 12.821 412.01 12.9313 411.865C13.0018 411.768 13.0768 411.679 13.1607 411.591C13.2798 411.463 13.4165 411.357 13.5179 411.216C13.5929 411.11 13.6194 410.969 13.862 411.022C13.9105 411.035 13.9502 410.974 13.9237 410.921C13.8311 410.718 13.9194 410.652 13.9943 410.577C14.1972 410.369 14.409 410.175 14.5986 409.955C14.7354 409.791 14.8545 409.611 14.9603 409.416C15.1236 409.116 15.2559 408.795 15.4323 408.499C15.5779 408.252 15.7632 408.036 15.9308 407.806C15.9705 407.754 15.9837 407.674 16.0278 407.626C16.1072 407.533 16.1645 407.405 16.2969 407.374C16.4424 407.339 16.5262 407.282 16.4909 407.065C16.4733 406.946 16.5615 406.876 16.6453 406.827C16.7512 406.765 16.8835 406.739 17.0247 406.713C17.1923 406.682 17.3423 406.673 17.4349 406.461C17.4878 406.346 17.6554 406.298 17.8716 406.289C17.9245 406.289 17.9863 406.285 18.0701 406.289C18.1098 406.293 18.1407 406.293 18.1848 406.298C18.2333 406.307 18.2818 406.316 18.3303 406.329C18.5288 406.373 18.767 406.545 18.8596 406.721C19.0449 407.083 18.9699 407.259 18.9699 407.409C18.9258 407.696 18.8773 407.895 18.8332 408.106C18.7097 408.662 18.5641 409.178 18.3744 409.677C18.2995 409.871 18.1936 410.052 18.0966 410.232C17.7878 410.793 17.3731 411.278 16.932 411.732C16.8482 411.82 16.7512 411.909 16.7027 412.028C16.5924 412.301 16.3895 412.504 16.1513 412.672C15.8646 412.87 15.6881 413.166 15.5029 413.457C15.4588 413.528 15.4323 413.611 15.3661 413.655C14.903 413.955 14.6163 414.454 14.1531 414.767C13.7826 415.023 13.3503 415.204 12.9048 415.371C12.7328 415.437 12.5475 415.49 12.3534 415.539C12.1505 415.583 11.9565 415.627 11.6433 415.627C11.608 415.627 11.555 415.645 11.5021 415.64C11.2727 415.618 11.039 415.398 11.0743 415.239C11.0919 415.085 11.286 415.045 11.4227 414.899C11.4492 414.873 11.4845 414.816 11.4845 414.811C11.4933 414.798 11.4933 414.789 11.4977 414.771C11.5198 414.718 11.5153 414.683 11.5242 414.586C11.5286 414.542 11.5198 414.502 11.5198 414.454C11.5198 414.436 11.5198 414.423 11.5198 414.41C11.5198 414.388 11.533 414.37 11.5506 414.37C11.6433 414.352 11.7977 414.317 11.9476 414.26L11.9256 414.211Z" fill="#69B9CB"/>
<path d="M35.9461 436.553C35.2336 432.621 31.8126 429.994 28.4351 430.288C24.6932 430.614 22.5884 434.389 22.2566 437.326C21.8704 440.72 23.7251 444.13 26.9775 445.897C22.5557 445.897 18.4929 446.882 16.1706 449.96C13.9298 452.935 14.2833 456.71 16.3392 459.206C18.9117 462.333 25.4274 462.747 31.1001 457.487C33.6672 462.845 38.8124 465.129 42.2551 463.753C44.1641 462.986 46.0732 460.887 46.3723 458.173C46.7095 455.1 44.8005 452.941 44.485 452.598C47.9006 453.332 51.153 452.103 52.5399 449.683C52.6813 449.433 54.0356 446.98 52.8118 444.619C51.7404 442.552 49.1243 441.405 46.3777 441.96C49.021 437.505 48.9122 432.926 47.063 431.49C45.018 429.907 39.639 431.213 35.9461 436.553Z" fill="#417A87"/>
<path d="M32.2305 432.094C31.0122 431.126 29.3914 430.647 27.8142 430.832C26.4055 430.984 25.0295 431.811 24.2572 433.122C24.0559 433.459 23.8057 433.791 23.6099 434.15C23.2564 434.802 22.9845 435.499 22.8159 436.217C22.7397 436.548 22.7615 436.907 22.6908 437.206C22.3318 438.686 22.5711 440.334 23.3924 441.639C23.5447 442.226 23.8765 442.743 24.2463 443.211C24.5835 443.63 25.1763 444.184 25.9541 444.717C26.3348 444.957 26.7155 445.218 27.118 445.463C27.5204 445.707 27.9338 445.968 28.3091 446.175L28.3254 446.273C28.32 446.289 28.3526 446.311 28.3091 446.316L28.1405 446.322L27.4715 446.355C27.0255 446.382 26.5687 446.425 26.1172 446.485C25.693 446.55 25.0839 446.572 24.5998 446.605L24.0396 446.632C23.8547 446.637 23.6589 446.665 23.561 446.67C23.3163 446.692 23.0715 446.713 22.8322 446.757C22.3481 446.833 21.8695 446.936 21.4018 447.078C20.4663 447.355 19.5744 447.763 18.7749 448.296C17.0562 449.417 15.7291 451.075 15.1145 453.061C14.9513 453.588 14.8861 454.159 14.8861 454.736C14.9078 455.312 14.9949 455.883 15.1526 456.438C15.5442 457.738 16.3165 458.956 17.3662 459.756C18.9162 460.941 21.0047 461.257 22.892 460.909C24.1647 460.686 25.383 460.234 26.5197 459.636L27.3573 459.152C27.6292 458.978 27.8903 458.788 28.1568 458.608C28.4287 458.44 28.6735 458.222 28.9237 458.021L29.2989 457.716C29.56 457.515 29.7558 457.314 29.9842 457.112C30.4465 456.705 30.9143 456.297 31.382 455.883C31.6757 456.411 31.9694 456.971 32.2577 457.515C32.3991 457.792 32.5568 458.086 32.7145 458.325L32.9647 458.75L33.5195 459.549C34.3081 460.582 35.2653 461.485 36.3585 462.171C36.8969 462.53 37.4898 462.785 38.0826 463.014C38.6863 463.199 39.3118 463.367 39.9318 463.378C40.8727 463.421 41.7919 463.242 42.5805 462.763C43.3855 462.296 44.0762 461.599 44.5874 460.811C45.5501 459.326 45.7731 457.466 45.2564 455.84C45.1803 455.611 45.1041 455.388 45.0062 455.171C44.9899 455.138 44.9899 455.122 44.9682 455.078L44.8974 454.932L44.7506 454.643C44.669 454.453 44.4895 454.23 44.3645 454.023C43.739 453.197 42.7056 452.087 41.8735 451.152C42.0094 451.162 42.0312 451.146 42.1889 451.173L42.6023 451.244L43.4453 451.385C44.0436 451.483 44.6581 451.587 45.2346 451.663C45.8492 451.777 46.3387 451.744 46.8772 451.755C47.1763 451.723 47.4102 451.706 47.6712 451.652C48.6937 451.472 49.651 451.054 50.4124 450.439C50.7877 450.129 51.114 449.776 51.3696 449.384C51.5002 449.177 51.6035 449.009 51.696 448.775C51.7885 448.552 51.8754 448.318 51.9353 448.079C52.2072 447.132 52.1746 446.18 51.8156 445.403C51.3968 444.462 50.4994 443.771 49.4606 443.439C49.205 443.352 48.933 443.292 48.6611 443.238C48.5958 443.222 48.5251 443.222 48.4544 443.211L48.3511 443.195C48.3021 443.189 48.3348 443.189 48.1553 443.173C47.7854 443.184 47.4374 443.173 47.0512 443.2L43.8695 443.7C44.3916 442.759 44.9627 441.775 45.4848 440.791L45.8819 440.056C45.9417 439.937 46.0015 439.817 46.0559 439.692L46.1756 439.409C46.2735 439.181 46.3713 438.958 46.4475 438.724C46.7847 437.805 47.0131 436.853 47.0947 435.912C47.1654 435.102 47.1219 434.286 46.9261 433.6C46.888 433.421 46.8065 433.28 46.7521 433.122C46.6705 432.997 46.6161 432.839 46.5236 432.747C46.4475 432.621 46.355 432.567 46.2789 432.475C46.1647 432.431 46.0994 432.339 45.9526 432.301C45.4413 432.089 44.669 432.056 43.913 432.203C43.1462 432.344 42.3684 432.632 41.6342 433.008C40.7966 433.432 39.9916 433.976 39.2791 434.628C38.5612 435.27 37.9195 436.01 37.4028 436.831C37.1145 437.288 36.9078 437.364 36.8154 437.049C36.7392 436.777 36.6468 436.51 36.6304 436.184C36.6087 435.858 36.6576 435.482 36.8969 435.009C37.0492 434.683 37.2178 434.373 37.4463 434.09C37.6638 433.796 37.9249 433.513 38.2893 433.258C39.3009 432.507 40.3452 431.572 41.6179 431.322C41.7973 431.289 42.0203 431.164 42.2161 431.093C43.0646 430.696 44.0055 430.435 44.9899 430.43C45.4848 430.446 45.9906 430.484 46.4801 430.674C46.9805 430.821 47.4428 431.175 47.7855 431.572C48.4544 432.409 48.6992 433.41 48.7808 434.362C48.8569 435.325 48.7699 436.276 48.5958 437.201C48.4707 437.805 48.3348 438.403 48.1498 438.99C47.9812 439.556 47.7148 440.241 47.5897 440.524C47.5081 440.698 47.4374 440.878 47.3395 441.046L47.1981 441.302L47.1273 441.427C47.1273 441.438 47.0784 441.487 47.1165 441.47L47.1872 441.46C47.3177 441.438 47.4428 441.416 47.5733 441.411C47.7583 441.389 47.9432 441.394 48.1335 441.4L48.4218 441.427L48.8243 441.487C49.4171 441.59 49.9936 441.764 50.5429 442.003C51.3696 442.352 52.1746 442.879 52.4792 443.689C52.5444 443.853 52.8164 444.222 52.9469 444.342C53.4799 444.777 53.7246 445.577 53.7681 446.338C53.828 447.382 53.5941 448.394 53.1917 449.319C52.7729 450.26 52.1039 451.07 51.2989 451.679C50.1078 452.593 48.6665 453.12 47.1981 453.294L47.0077 453.322L46.8989 453.333L46.6868 453.354L46.2952 453.376C46.1756 453.371 46.0559 453.376 45.9526 453.365L45.7949 453.354L45.7187 453.349L45.7949 453.425C46.0505 453.691 46.2517 453.947 46.404 454.176C46.4421 454.224 46.4856 454.306 46.5236 454.371L46.5508 454.426L46.5998 454.54L46.7031 454.768C46.8337 455.078 46.9424 455.394 47.0294 455.726C47.3068 456.705 47.3395 457.765 47.1872 458.782C47.0186 459.799 46.6488 460.789 46.1049 461.665C45.8601 462.073 45.6045 462.481 45.2836 462.84C44.6962 463.498 43.9783 464.134 43.1734 464.449C42.2759 464.803 41.5635 464.939 40.715 465.243C40.4757 465.32 40.1494 465.379 39.8122 465.363C39.6436 465.358 39.4695 465.352 39.3009 465.341C39.1323 465.32 38.9691 465.287 38.8169 465.26C38.0174 465.118 37.2994 464.787 36.6304 464.428C35.8418 463.971 35.1892 463.476 34.3244 463.046C33.8621 462.807 33.3454 462.307 32.9864 461.855C32.7743 461.616 32.5894 461.36 32.4045 461.105C32.2087 460.854 32.0238 460.599 31.8606 460.332C31.518 459.854 31.1101 459.13 31.0666 459.038L30.8871 458.679C30.8762 458.668 30.8762 458.635 30.8599 458.652L30.8218 458.684L30.7456 458.75L30.5934 458.886L30.4465 459.021C30.4193 459.043 30.3976 459.07 30.3758 459.087C30.3867 459.081 30.3106 459.141 30.2453 459.19L29.5056 459.761C28.135 460.756 26.6067 461.572 24.937 462.078C23.2727 462.584 21.4562 462.742 19.6451 462.404C18.2364 462.138 16.8223 461.469 15.7291 460.349C14.0866 458.663 13.2925 456.34 13.4122 454.04C13.5427 451.733 14.6848 449.553 16.3382 448.073C16.9909 447.486 17.7306 447.002 18.4485 446.55C19.2806 446.034 20.1889 445.658 21.1081 445.403C21.5704 445.283 22.0327 445.174 22.495 445.098C22.9083 445.022 23.6045 444.946 23.5011 444.978C23.599 444.989 23.7187 444.989 23.8221 444.989L23.9689 444.984L24.0287 444.978C24.0233 444.968 23.9798 444.951 23.958 444.94L23.6752 444.788L23.5664 444.734C23.5501 444.728 23.512 444.696 23.4903 444.679C23.4577 444.647 23.4522 444.663 23.3978 444.598C23.0226 444.19 22.6364 443.766 22.3645 443.276C21.4018 441.601 20.847 439.665 20.9286 437.69C21.0265 435.722 21.6574 433.867 22.805 432.273C23.7242 430.99 25.0784 429.913 26.672 429.407C27.4715 429.173 28.2982 429.075 29.1086 429.113C29.919 429.162 30.7076 429.353 31.4418 429.641C33.7207 430.549 35.3958 432.475 36.1682 434.645C36.2225 434.786 36.3041 434.928 36.3368 435.074C36.5271 435.705 36.4945 436.157 36.3911 436.358C36.2824 436.565 36.0703 436.543 35.7657 436.32C35.2436 435.917 34.8084 435.319 34.357 434.465C33.8567 433.513 33.1279 432.687 32.2631 432.045L32.2305 432.094Z" fill="#69B9CB"/>
<path d="M35.5593 443.244C34.1833 443.445 33.3729 444.892 33.498 446.159C33.6177 447.356 34.5912 448.503 35.8149 448.563C37.2889 448.628 38.5779 447.084 38.3875 445.561C38.2244 444.239 36.968 443.037 35.5593 443.244Z" fill="#69B9CB"/>
<path d="M35.2497 444.152C35.0866 444.108 34.9288 444.125 34.7113 444.114C34.5209 444.103 34.2979 444.13 34.3251 444.353C34.336 444.408 34.2816 444.424 34.2544 444.456C34.2109 444.522 34.1728 444.587 34.1456 444.658C34.1347 444.69 34.2 444.766 34.162 444.777C33.9553 444.843 33.8465 445 33.9662 445.202C33.7269 445.261 33.8519 445.435 33.8955 445.555C33.939 445.68 33.8954 445.805 34.0477 445.914C34.0912 445.941 34.1076 445.974 34.0804 446.001C33.9118 446.191 34.0151 446.382 34.113 446.54C34.2163 446.714 34.2435 446.904 34.1946 447.187C34.1674 447.339 34.249 447.442 34.3251 447.535C34.4176 447.644 34.5644 447.709 34.6786 447.78C34.8473 447.894 35.0539 447.954 35.2715 447.883C35.5652 447.796 35.7664 447.671 35.9187 447.551C35.9948 447.497 36.0764 447.546 36.1743 447.562C36.3592 447.589 36.5985 447.589 36.8052 447.486C36.9629 447.41 37.0772 447.268 37.1642 447.116C37.2458 446.969 37.2566 446.79 37.2893 446.637C37.3926 446.181 37.3219 445.778 37.1207 445.49C37.0717 445.419 36.9901 445.359 36.9249 445.299C36.8977 445.267 36.8705 445.234 36.8542 445.196C36.7943 445.055 36.7236 444.897 36.6094 444.783C36.4463 444.625 36.245 444.538 36.071 444.478C35.9731 444.456 35.8534 444.402 35.7773 444.565C35.7609 444.609 35.7283 444.484 35.7066 444.228C35.6685 443.777 35.6359 443.309 35.7446 443.026C35.8153 442.83 35.9132 442.7 36.022 442.77C36.1689 442.874 36.3919 442.694 36.4789 443.004C36.4898 443.048 36.5224 443.042 36.555 443.031C36.8215 442.939 37.0663 443.015 37.2729 443.14C37.4742 443.271 37.6428 443.45 37.7951 443.63C37.8984 443.739 38.0344 443.82 38.1432 443.929C38.2084 444.005 38.2737 444.081 38.3226 444.168C38.3933 444.299 38.4314 444.44 38.5076 444.565C38.5728 444.652 38.6925 444.728 38.4749 444.913C38.4314 444.951 38.464 444.995 38.5293 444.995C38.7849 444.989 38.7849 445.093 38.8012 445.185C38.8393 445.435 38.823 445.691 38.8176 445.936C38.8176 446.121 38.8285 446.3 38.8557 446.501C38.8774 446.801 38.9264 447.138 38.8557 447.453C38.8067 447.72 38.6707 447.954 38.5347 448.198C38.5021 448.253 38.5076 448.34 38.4695 448.389C38.3988 448.481 38.3553 448.617 38.2139 448.633C38.0561 448.644 37.98 448.688 38.0235 448.933C38.0453 449.069 37.9474 449.123 37.8658 449.156C37.757 449.199 37.6156 449.183 37.4796 449.166C37.3165 449.145 37.1751 449.101 37.1152 449.302C37.0772 449.411 36.963 449.411 36.8596 449.373C36.4245 449.243 36.1036 449.292 35.7229 449.357C35.2171 449.428 34.6569 449.384 34.1402 449.194C33.9444 449.118 33.7703 448.992 33.6017 448.867C33.0851 448.47 32.7696 447.894 32.6173 447.295C32.5847 447.181 32.5738 447.056 32.4868 446.953C32.3019 446.719 32.2693 446.414 32.3345 446.126C32.4052 445.784 32.3399 445.463 32.3073 445.115C32.3019 445.033 32.2638 444.946 32.3019 444.87C32.5575 444.391 32.5793 443.809 32.9654 443.363C33.27 443.015 33.7105 442.787 34.1456 442.64C34.4828 442.52 34.8527 442.504 35.179 442.526C35.2008 442.526 35.2171 442.504 35.2388 442.504C35.4401 442.537 35.5162 442.847 35.5325 443.347C35.5489 443.787 35.5488 444.043 35.4781 444.054C35.3966 444.07 35.2987 444.065 35.2062 444.081L35.2497 444.152Z" fill="#69B9CB"/>
</svg>
