<svg width="1318" height="570" viewBox="0 0 1318 570" fill="none" xmlns="http://www.w3.org/2000/svg">
<path d="M307.033 39.0573L303.511 43.9259C303.501 43.9406 303.49 43.9553 303.485 43.9718C302.44 46.7969 301.421 50.0527 300.589 53.7166C299.67 57.7694 299.169 61.4895 298.911 64.7433C298.901 64.8909 299.043 64.9958 299.18 64.9425C322.21 56.6037 345.24 48.2649 368.265 39.9244C368.476 39.8462 368.422 39.5397 368.2 39.5362L307.193 38.9691C307.131 38.9738 307.074 39.0039 307.033 39.0573Z" fill="#CFE2F4"/>
<path d="M303.915 45.2142C303.155 47.0192 302.486 48.8773 301.826 50.7079C301.233 52.3427 300.697 53.9711 300.507 55.7446C300.46 56.2002 300.326 56.6829 300.245 57.1518C300.096 58.0095 299.952 58.8688 299.839 59.7259C299.788 60.1197 299.83 60.5429 299.747 60.9028C299.533 61.8488 299.366 62.9178 299.302 63.6212C299.286 63.7852 299.271 63.9492 299.263 64.1095L299.248 64.3462C299.237 64.421 299.295 64.5055 299.375 64.5187C299.703 64.4349 300.015 64.2495 300.303 64.1172C300.416 64.1044 300.543 64.0841 300.673 64.0527L300.869 64.0057L301.115 63.9324C301.45 63.8266 301.783 63.7082 302.108 63.5753C302.762 63.3167 303.403 63.0238 304.063 62.7488C305.381 62.1987 306.758 61.7514 308.021 61.1113C308.358 60.94 308.752 60.7805 309.122 60.6796C311.346 60.0705 313.482 59.2227 315.642 58.3945C317.955 57.5001 320.302 56.7124 322.687 56.0697C323.958 55.7278 325.248 55.2528 326.513 54.7946C328.018 54.2487 329.505 53.6431 331.002 53.0827C333.182 52.2669 335.329 51.4226 337.444 50.4896C340.272 49.2444 343.138 48.0294 346.026 46.8632C347.491 46.2688 349.031 45.7823 350.542 45.2745C353.572 44.2496 356.606 43.2682 359.632 42.2179L361.859 41.4286L362.989 41.0001L363.643 40.7415C363.843 40.6599 364.017 40.5878 364.165 40.5198C364.206 40.5027 364.19 40.4192 364.128 40.3875C364.062 40.3668 363.984 40.3846 363.913 40.3803L363.491 40.3984L362.093 40.4713L361.684 40.4874L361.495 40.4942L361.403 40.5013L361.19 40.5067L358.694 40.5237L353.709 40.5539L343.733 40.618L338.94 40.6904C338.141 40.6985 337.341 40.694 336.544 40.6785L327.659 40.513L314.93 40.3747C312.522 40.341 310.116 40.2837 307.724 40.4118C307.558 40.42 307.414 40.417 307.303 40.4061C307.274 40.403 307.25 40.4016 307.228 40.3947L307.194 40.3898L307.177 40.3847C307.179 39.9753 307.185 39.5731 307.188 39.1819L307.179 39.9389L307.188 39.9296L307.207 39.9056L307.245 39.8631L307.409 39.6857C307.524 39.5709 307.645 39.4524 307.787 39.3463C308.073 39.1286 308.454 38.9347 309.028 38.7958C309.811 38.6078 310.542 38.4698 311.513 38.5461C312.917 38.6623 314.4 38.4533 315.783 38.7555C315.98 38.7994 316.262 38.7855 316.494 38.7743C320.638 38.4855 324.799 38.6967 328.959 38.7752C330.32 38.7993 331.677 38.7617 333.041 38.7567L335.689 38.7753C336.972 38.799 338.25 38.8573 339.533 38.8446C340.5 38.8354 341.436 38.7558 342.303 39.0467C342.483 39.1092 342.992 39.1005 343.171 39.0301C343.854 38.7747 344.652 38.8084 345.454 38.8257C347.607 38.8637 349.763 38.9326 351.917 38.9469C353.511 38.9598 355.106 38.9308 356.696 38.882C357.928 38.8355 359.161 38.7891 360.394 38.7427L361.316 38.707L362.723 38.6794L365.772 38.6312C366.201 38.6276 366.663 38.616 367.076 38.6254C367.286 38.6309 367.408 38.6634 367.558 38.6863C367.675 38.7171 367.804 38.7458 367.909 38.7786C368.331 38.9115 368.588 39.0345 368.843 39.1448L369.176 39.2919L369.255 39.3288C369.277 39.3357 369.308 39.3515 369.333 39.4075C369.391 39.5102 369.404 39.7192 369.374 39.7762C369.233 39.9368 369.108 40.0845 368.955 40.2836C368.793 40.4738 368.776 40.6797 368.433 40.9639C368.308 41.057 368.176 41.1484 367.947 41.245C366.783 41.6869 365.526 42.1723 364.303 42.5351C363.485 42.7783 362.815 42.9898 362.193 43.2224C361.821 43.3706 361.475 43.5512 361.117 43.8065C360.714 44.0899 359.998 44.3349 359.413 44.525C358.662 44.7652 357.894 44.9456 357.142 45.1313C356.236 45.3468 355.386 45.5377 354.503 46.044C354.033 46.3122 353.318 46.5154 352.723 46.6602C350.113 47.3104 347.572 48.2542 345.053 49.2467C341.638 50.6148 338.23 51.9791 334.821 53.3434C333.484 53.8755 332.126 54.3772 330.774 54.8805C326.574 56.4602 322.333 57.9241 318.089 59.3754C317.257 59.6625 316.403 59.9426 315.608 60.2836C313.761 61.0774 311.88 61.728 309.97 62.3335C307.667 63.0623 305.452 63.9696 303.229 64.8807C302.711 65.0915 302.198 65.3404 301.675 65.5076L301.06 65.7182L300.255 65.9957C299.993 66.082 299.715 66.1996 299.463 66.253C299.213 66.3009 298.999 66.2881 298.819 66.2494C298.631 66.2143 298.502 66.1619 298.367 66.0951C298.295 66.0545 298.188 65.9908 298.109 65.9175C298.024 65.8426 297.979 65.7924 297.94 65.7075L297.699 65.2459C297.682 65.2044 297.654 65.1775 297.641 65.125L297.625 64.9451L297.588 64.5837L297.849 61.6446C297.917 60.9666 297.991 60.2904 298.076 59.6176C298.243 58.2648 298.46 56.922 298.741 55.5872C299.396 52.4886 300.325 49.4581 301.41 46.5068C301.621 45.9337 301.835 45.3679 302.065 44.8072L302.41 43.9626L302.509 43.7226C302.558 43.6053 302.627 43.5004 302.687 43.3866C302.723 43.3314 302.762 43.2835 302.801 43.2355L302.872 43.1433L303.011 42.9699L305.247 40.1573C305.347 40.0319 305.422 39.8869 305.52 39.7669C306.379 38.7044 306.908 38.5571 306.949 39.3842C306.985 40.1132 306.675 41.0045 305.948 41.9939L304.729 43.6248L304.184 44.34L304.034 44.7209L303.855 45.1952L303.915 45.2142Z" fill="#CFE2F4"/>
<path d="M303.556 43.9478L368.271 39.6268C368.437 39.6186 368.458 39.3781 368.294 39.3445C357.175 37.0592 345.395 34.9762 332.99 33.215C316.359 30.8543 300.61 29.35 285.902 28.4685C285.765 28.4618 285.7 28.6284 285.804 28.7212C291.689 33.7864 297.575 38.8461 303.454 43.9096C303.482 43.9364 303.52 43.9484 303.556 43.9478Z" fill="white"/>
<path d="M310.975 42.6225C313.063 42.5979 315.162 42.5404 317.234 42.5652C319.085 42.5864 320.89 42.6176 322.76 42.3311C323.241 42.2592 323.765 42.2612 324.277 42.2234L327.035 42.0237C327.457 41.9874 327.888 41.8636 328.277 41.8715C330.203 41.9043 332.104 41.821 334.01 41.5157C335.516 41.6338 336.978 41.3761 338.478 41.2087C339.973 41.0395 341.504 40.9843 342.98 40.7191C343.37 40.6488 343.819 40.6029 344.223 40.6033C346.657 40.6274 349.075 40.3988 351.511 40.1882C354.12 39.9655 356.733 39.8465 359.34 39.8768C360.729 39.8914 362.177 39.7921 363.595 39.6952C364.44 39.6354 365.281 39.5684 366.126 39.4903L367.39 39.3814L368.022 39.3271L368.182 39.3171L368.262 39.312L368.278 39.4737L368.28 39.4864C368.283 39.4936 368.282 39.4991 368.282 39.4991C368.287 39.5009 368.251 39.4833 368.267 39.4885C368.283 39.4936 368.299 39.4625 368.274 39.5029L368.271 39.5138L368.269 39.5193C368.3 39.3842 368.229 39.7056 368.239 39.6727L368.234 39.6709L368.205 39.6678L368.148 39.656L368.035 39.6325L367.807 39.5909L367.358 39.5039L366.458 39.3354L364.651 39.0205C363.447 38.8227 362.239 38.6358 361.032 38.4853C357.796 38.0764 354.543 37.6441 351.295 37.1954C349.643 36.9651 347.981 36.6113 346.324 36.3011C343.009 35.6806 339.703 35.051 336.374 34.5163C333.873 34.1095 331.354 33.7757 328.839 33.4728C326.492 33.187 324.134 32.976 321.783 32.7249C314.809 31.9848 307.827 31.3503 300.839 30.8652C299.158 30.7464 297.483 30.6657 295.798 30.5761C294.957 30.5286 294.115 30.4628 293.279 30.3988L290.943 30.2129L289.777 30.1235C289.643 30.1113 289.672 30.1144 289.666 30.1127L289.655 30.1093L289.633 30.1024C289.6 30.092 289.549 30.082 289.493 30.0702C289.48 30.0722 289.46 30.0598 289.451 30.0691C289.442 30.0783 289.458 30.0835 289.462 30.0908L289.503 30.1337L298.062 37.5295C299.98 39.1944 301.881 40.8777 303.901 42.4117C304.043 42.5166 304.156 42.6184 304.239 42.6989C304.28 42.7418 304.315 42.7831 304.341 42.8154C304.354 42.8315 304.365 42.8531 304.373 42.8676L304.38 42.882C304.106 43.1996 303.838 43.5135 303.579 43.8181L304.177 43.1256L304.17 43.1294L304.157 43.1314L304.126 43.1338L304.065 43.1384L303.939 43.1534L303.69 43.1776C303.523 43.1913 303.352 43.1979 303.165 43.1811C302.793 43.1546 302.364 43.0437 301.809 42.7547C301.058 42.3618 300.379 41.9731 299.646 41.2541C298.587 40.2096 297.252 39.3554 296.337 38.1811C296.209 38.0141 295.971 37.8307 295.775 37.6848C294.008 36.3813 292.325 34.9835 290.667 33.5453L288.111 31.3L286.517 29.8879C286.059 29.4245 285.826 29.0555 285.534 28.7165C285.493 28.6554 285.433 28.6182 285.408 28.5441C285.386 28.4589 285.448 28.3396 285.526 28.3219L286.08 28.3034L287.191 28.2608L288.3 28.2056C288.711 28.2023 289.222 28.2482 289.686 28.2675C290.68 28.3271 291.567 28.3829 292.509 28.456C293.857 28.5605 295.21 28.7085 296.559 28.7892C297.577 28.8501 298.569 28.8424 299.465 29.1965C299.651 29.2734 300.187 29.297 300.382 29.25C301.127 29.0499 301.962 29.1559 302.8 29.2326L309.591 29.9394C311.27 30.1056 312.951 30.2425 314.627 30.3595C317.227 30.55 319.829 30.6932 322.427 30.9255C324.605 31.1159 326.782 31.3845 328.955 31.6278C329.456 31.6829 329.96 31.6907 330.463 31.7585C331.386 31.8738 332.364 31.9464 333.214 32.1594C334.158 32.3962 334.901 32.5273 335.825 32.4261C336.343 32.3718 337.129 32.4985 337.766 32.6205C338.586 32.7758 339.394 32.9876 340.185 33.1943C341.135 33.451 342.022 33.6998 343.092 33.6925C343.665 33.6919 344.43 33.8662 345.053 34.0321C347.802 34.764 350.632 35.2199 353.465 35.6466C357.31 36.2289 361.153 36.7985 364.985 37.4429C365.734 37.5702 366.488 37.7048 367.238 37.8503L368.365 38.0658L368.507 38.0925L368.575 38.1077L368.597 38.1146C368.648 38.1247 368.703 38.1419 368.752 38.1575C368.851 38.1885 368.966 38.243 369.067 38.305C369.512 38.5776 369.742 39.114 369.716 39.5402C369.709 39.9661 369.482 40.4375 369.035 40.7071C368.819 40.8381 368.584 40.8967 368.393 40.909L368.319 40.9158L368.177 40.9255L367.892 40.9504C363.162 41.3201 358.434 41.5697 353.698 41.8049C352.768 41.8498 351.826 41.8913 350.916 42.0032C348.808 42.2628 346.705 42.3732 344.594 42.4328C342.044 42.5052 339.525 42.7682 337.008 43.0439C336.422 43.1067 335.83 43.204 335.247 43.2194C331.181 43.3577 327.145 43.8612 323.095 44.0829C319.812 44.2624 316.537 44.3418 313.26 44.4448C310.727 44.5043 308.203 44.5727 305.675 44.6339C305.511 44.6367 305.337 44.6724 305.173 44.6752C303.731 44.6979 303.256 44.3858 303.898 43.8218C304.472 43.3208 305.401 42.992 306.697 42.9172C308.129 42.831 309.564 42.7757 310.996 42.7076L310.975 42.6225Z" fill="#CFE2F4"/>
<path d="M311.536 51.5227L368.404 39.7465C368.566 39.7128 368.642 39.9298 368.502 40.0123C368.502 40.0123 326.232 69.7559 317.952 74.9911L311.423 51.6319C311.44 51.5771 311.483 51.5363 311.536 51.5227Z" fill="white"/>
<path d="M317.517 49.443C319.25 49.2043 320.992 48.92 322.721 48.7341C324.265 48.5623 325.774 48.4038 327.288 47.9214C327.677 47.7965 328.115 47.7472 328.536 47.6564L330.805 47.1702C331.15 47.0916 331.492 46.922 331.817 46.8855C333.426 46.7163 334.999 46.433 336.543 45.9355C337.815 45.8956 338.993 45.4881 340.216 45.1671C341.438 44.8461 342.701 44.6281 343.887 44.2113C344.2 44.0986 344.573 44.005 344.904 43.9703C346.936 43.741 348.914 43.2598 350.912 42.7964C353.052 42.2997 355.21 41.9173 357.386 41.6729C358.543 41.5422 359.737 41.2909 360.899 41.0473L365.688 39.9725L366.005 39.9034C366.582 39.7954 367.025 39.766 367.457 39.715L368.683 39.5759C368.732 39.5732 368.778 39.5634 368.827 39.5607C368.876 39.558 368.933 39.6062 368.956 39.6677C369.018 39.814 368.904 39.8505 368.854 39.9132C368.734 40.0262 368.62 40.1409 368.5 40.2722C368.382 40.3979 368.277 40.5216 368.177 40.647L368.035 40.8314C367.985 40.8941 367.97 40.9434 367.842 41.042L365.975 42.6439C365.803 42.7888 365.658 42.924 365.451 43.0822L364.841 43.5475L364.212 44.0312L363.894 44.2749L363.693 44.4348C362.616 45.2901 361.53 46.1364 360.433 46.9792C359.319 47.8351 358.109 48.5943 356.935 49.3766C354.578 50.945 352.197 52.4756 349.848 54.0584C348.087 55.2473 346.347 56.4849 344.623 57.7278L339.827 61.2607C335.052 64.7096 330.263 68.1424 325.452 71.5501L321.996 74.0268L321.118 74.6313L320.674 74.9317L319.85 75.4624L318.331 76.438L317.575 76.9239L317.197 77.1669L317.152 77.1949L317.129 77.2117C317.125 77.2045 317.123 77.1918 317.119 77.1845L317.084 77.0651L317.02 76.8279L316.056 73.2801L315.032 69.4786L312.022 58.6116C311.457 56.5525 310.922 54.4966 310.202 52.4912C310.129 52.2814 310.09 52.1183 310.088 52.0092L310.081 51.2833C310.222 50.797 310.549 50.5258 310.787 50.4017C311.032 50.2738 311.201 50.2727 311.263 50.2862C311.324 50.3052 311.288 50.3422 311.169 50.4134C311.056 50.4863 310.852 50.6153 310.684 50.8638C310.572 51.0276 310.508 51.2124 310.493 51.3946L310.448 51.8811L310.496 51.9022C311.024 52.1224 311.554 52.3135 312.069 53.169C312.444 53.7812 312.761 54.3635 312.923 55.2104C313.158 56.4363 313.726 57.6402 313.777 58.8983C313.782 59.0747 313.864 59.3117 313.936 59.5033C315.236 62.9453 316.063 66.5464 317.013 70.1017C317.168 70.6812 317.342 71.2605 317.517 71.8342L317.989 73.3818L318.206 74.1313L318.231 74.2237L318.235 74.2491L318.257 74.2378L318.302 74.2098L318.476 74.0958L318.831 73.8696L319.35 73.5442L319.612 73.3796L319.96 73.1573C320.437 72.849 320.908 72.5389 321.372 72.2144C322.073 71.7295 322.708 71.1874 323.507 70.9864C323.677 70.9435 324.037 70.6827 324.131 70.5374C324.487 69.98 325.086 69.6078 325.673 69.2194C327.256 68.1554 328.859 67.122 330.426 66.0346C331.584 65.229 332.727 64.3944 333.844 63.5458C335.573 62.2082 337.295 60.8744 339.03 59.5386C340.487 58.4349 341.984 57.3742 343.46 56.2884C343.797 56.0389 344.111 55.7516 344.454 55.5037C345.085 55.0509 345.718 54.5325 346.369 54.1885C347.092 53.8068 347.623 53.4612 348.108 52.8416C348.38 52.4931 348.931 52.1236 349.391 51.8283C349.98 51.4526 350.6 51.1291 351.208 50.8076C351.938 50.4222 352.633 50.0738 353.258 49.4264C353.591 49.0787 354.166 48.7469 354.638 48.4914C356.742 47.3622 358.689 45.9664 360.607 44.5255L362.554 43.0515C362.973 42.7369 362.964 42.7279 363.073 42.6296L363.306 42.4073C363.438 42.2741 363.524 42.1744 363.57 42.1044C363.593 42.0695 363.602 42.0421 363.609 42.0201C363.612 42.0092 363.608 42.0019 363.604 41.9947C363.586 41.9586 363.497 41.9911 363.448 42.0119L362.913 42.1812L362.786 42.2197L362.632 42.2678L362.6 42.2756L362.451 42.3073L361.722 42.4579L358.799 43.0462L352.943 44.1592C352.174 44.3033 351.396 44.4384 350.655 44.6457C348.939 45.1188 347.205 45.4539 345.454 45.7293C343.346 46.0672 341.286 46.5953 339.226 47.1234C338.746 47.2498 338.27 47.4016 337.786 47.4844C334.421 48.042 331.14 48.9639 327.796 49.6066C325.093 50.1256 322.373 50.5484 319.659 50.9912C317.56 51.3199 315.467 51.6447 313.37 51.9679C313.23 51.9903 313.094 52.0381 312.955 52.0605C311.755 52.2319 311.316 51.9792 311.767 51.3493C312.171 50.7948 312.895 50.3713 313.968 50.1602C315.151 49.929 316.337 49.7232 317.516 49.5031L317.517 49.443Z" fill="#CFE2F4"/>
<path d="M307.596 63.0775L300.415 64.9917L311.453 51.5425L307.596 63.0775Z" fill="white"/>
<path d="M306.25 64.2901C305.784 64.2944 305.332 64.333 304.864 64.2882C304.612 64.2815 304.356 64.2732 304.138 64.2951C303.913 64.3207 303.701 64.3808 303.416 64.5384C303.27 64.6191 303.152 64.6121 303.025 64.6506C302.786 64.7202 302.55 64.7788 302.295 64.8613C302.181 64.8978 301.942 65.0638 301.874 65.0486C301.564 64.9629 301.27 64.9971 300.385 65.4124C300.469 65.1853 299.929 65.4437 299.358 65.6681C299.363 65.6517 299.368 65.6352 299.375 65.6133C299.468 65.3952 299.842 65.0122 299.734 64.8758C299.709 64.838 299.764 64.7406 299.906 64.6163C300.764 63.8612 301.034 63.4273 301.442 62.8563C301.65 62.5599 301.912 62.2443 302.197 61.9538C302.34 61.8058 302.485 61.6705 302.634 61.5424C302.782 61.4144 302.937 61.288 303.052 61.2278C303.326 61.0667 303.518 60.8196 303.713 60.5853C303.941 60.3012 304.124 59.9852 304.338 59.6904C304.653 59.2648 304.936 58.8234 305.15 58.3176C305.291 57.9822 305.444 57.6503 305.6 57.3256L305.724 57.087L305.785 56.9677L305.897 56.7856L306.413 56.0072C306.786 55.4551 307.226 55.0328 307.612 54.6114C308.398 53.7611 309.076 53.1001 309.735 52.3666L309.742 52.3628C309.962 52.3172 310.24 52.1033 310.506 51.9277C310.754 51.7525 311.017 51.5515 311.234 51.4751C311.337 51.4351 311.431 51.4044 311.529 51.3809C311.713 51.8671 312.044 52.1763 312.532 52.2935L312.554 52.3004C312.407 52.8633 312.26 53.4262 312.11 53.9818C312.022 54.2981 311.908 54.642 311.779 54.9935L310.419 58.7992L309.393 61.7932C309.207 62.3076 308.999 62.8151 308.973 63.3795C308.964 63.5398 308.83 63.5457 308.586 63.4025C308.163 63.155 307.717 62.9243 307.527 62.5873C307.4 62.3602 307.314 62.1524 307.451 61.9663C307.65 61.6973 307.544 61.3079 307.922 61.1013C307.975 61.0695 307.983 61.0057 307.982 60.9511C307.975 60.4545 308.089 59.996 308.247 59.5512C308.323 59.3279 308.416 59.1098 308.503 58.89L308.715 58.3897C308.8 58.1754 308.806 57.9843 308.852 57.7997C308.885 57.6773 308.923 57.5565 308.971 57.4211C309.043 57.2324 309.18 56.9682 309.212 56.8093C309.235 56.678 309.113 56.7601 309.657 56.0267C309.773 55.8701 309.781 55.8062 309.665 55.9265C309.602 55.9912 309.547 56.0522 309.495 56.1022C309.255 56.3465 309.318 56.2216 309.366 56.1098C309.504 55.7673 309.701 55.3109 309.8 54.9981C309.871 54.7731 309.855 54.6897 309.77 54.7475C309.7 54.7979 309.577 54.9401 309.447 55.1224C309.249 55.446 309.049 55.775 308.851 56.0986C308.658 56.4057 308.472 56.7091 308.279 57.0162C308.22 57.1246 308.162 57.2329 308.104 57.3412C308.054 57.4221 307.946 57.6532 308.039 57.3933C308.142 57.1059 308.107 57.1192 307.843 57.8078C307.799 57.9268 307.757 58.0221 307.719 58.1247C307.71 58.1521 307.712 58.1284 307.719 58.1065C307.732 58.0444 307.787 57.8324 307.815 57.6663C307.853 57.4492 307.839 57.3003 307.732 57.7006C307.677 57.9125 307.681 57.8233 307.663 57.7454C307.583 57.4065 307.304 57.7769 307.211 58.0132L307.185 58.0773C307.18 58.0938 307.173 58.1158 307.139 58.1655L306.976 58.4339L306.654 58.9779L306.005 60.0642C305.832 60.3473 305.631 60.6036 305.439 60.8689C305.134 61.2798 304.812 61.6728 304.474 62.0551L304.217 62.336L304.181 62.3731L304.174 62.3768L304.16 62.3843L304.133 62.3939C304.097 62.4127 304.053 62.4353 304.001 62.4671C303.963 62.4914 303.897 62.5308 303.953 62.5425C304.092 62.562 304.055 62.5626 303.83 62.7029C303.604 62.8487 303.648 62.8806 303.846 62.7681L303.994 62.6819C304.068 62.6388 304.206 62.5437 304.167 62.5734C304.032 62.6758 304.146 62.6211 304.21 62.569C304.288 62.515 304.318 62.4581 304.296 62.4876C304.289 62.5095 304.279 62.5606 304.32 62.6036L304.339 62.6215L304.469 62.6083L304.736 62.5838L305.27 62.5346C305.819 62.478 306.373 62.4595 306.928 62.4228C306.964 62.4222 306.993 62.3889 307.029 62.3883C307.345 62.3793 307.527 62.6836 307.52 63.2241C307.514 63.7046 307.386 64.0142 307.114 64.0734C306.815 64.1422 306.507 64.1838 306.2 64.2381L306.25 64.2901Z" fill="#CFE2F4"/>
<path d="M256.382 52.7572C255.137 53.3787 253.936 54.0924 252.768 54.8709C251.602 55.644 250.474 56.471 249.39 57.3482C247.451 58.8912 245.674 60.6298 244.299 62.7782C243.95 63.3318 243.514 63.8942 243.151 64.4735C242.479 65.5165 241.892 66.6163 241.369 67.7423C241.145 68.2628 240.993 68.8421 240.771 69.3153C240.229 70.4835 239.813 71.7095 239.522 72.9626C239.27 74.2222 239.106 75.5095 239.177 76.7983C238.89 78.8063 239.304 80.806 240.059 82.6417C240.426 83.5652 240.901 84.4505 241.475 85.2521C242.042 86.0576 242.76 86.7476 243.581 87.2049C243.785 87.3415 244.027 87.4538 244.262 87.5699C244.49 87.7079 244.732 87.8021 244.959 87.9038C245.293 88.0873 245.662 88.161 246.024 88.275C246.207 88.3264 246.398 88.3323 246.588 88.3618C246.774 88.3842 246.966 88.4263 247.158 88.4085C247.54 88.402 247.941 88.4134 248.269 88.3296C248.617 88.2582 248.952 88.0924 249.269 87.9087C249.91 87.5193 250.469 86.9713 250.948 86.35C251.426 85.7287 251.841 85.0449 252.178 84.3187C252.901 82.7672 253.391 81.0941 253.562 79.3992C253.733 77.7042 253.609 75.9706 252.888 74.4291C252.136 72.7572 250.701 71.3351 249.133 70.2811C247.247 69.0123 245.066 68.218 242.843 67.8082C239.617 67.2154 236.207 67.6263 233.395 69.166C232.456 69.6787 231.586 70.2975 230.788 70.9934C229.981 71.6803 229.305 72.5051 228.608 73.3593C227.183 75.0155 226.024 76.8582 225.025 78.751C224.035 80.6891 223.263 82.7618 222.893 84.895C222.529 87.0299 222.582 89.2414 223.08 91.3761C223.586 93.5071 224.492 95.5531 225.694 97.4266C226.11 98.1546 226.663 98.7929 227.148 99.476C227.413 99.8008 227.695 100.113 227.974 100.435C228.246 100.756 228.527 101.074 228.834 101.363L229.729 102.254C230.036 102.543 230.361 102.815 230.677 103.095C231.298 103.67 231.987 104.164 232.649 104.686C235.185 106.575 238.011 108.037 240.919 109.223C243.082 110.09 245.324 110.765 247.596 111.173C249.868 111.58 252.185 111.729 254.413 111.453C258.952 110.807 263.426 109.199 267.437 106.896C269.374 105.781 271.197 104.491 272.949 103.1C273.389 102.756 273.829 102.412 274.252 102.044C274.679 101.684 275.12 101.335 275.54 100.96C277.123 99.6066 278.614 98.1458 280.056 96.6276C281.502 95.1165 282.871 93.5268 284.18 91.8761C287.935 87.1655 291.207 82.0556 294.249 76.8132C295.976 73.8346 297.631 70.8153 299.064 67.6962C299.466 66.8215 299.723 66.6006 299.805 67.0486C299.943 67.8158 300.171 68.4906 299.655 70.095C299.306 71.1853 298.944 72.1812 298.217 73.3816C297.155 75.1099 296.313 77.0946 295.045 78.6736C294.866 78.8949 294.674 79.2566 294.521 79.5521C291.755 84.8572 288.251 89.8037 284.385 94.407C283.132 95.9184 281.847 97.414 280.491 98.8507C279.609 99.7736 278.689 100.666 277.747 101.534C276.366 102.782 274.899 103.936 273.433 105.068C272.878 105.49 272.32 105.905 271.766 106.286C271.199 106.65 270.618 106.962 270.011 107.187C269.754 107.275 269.127 107.657 268.941 107.846C268.584 108.216 268.141 108.529 267.655 108.81C267.169 109.091 266.66 109.365 266.127 109.602C263.288 110.94 260.293 111.952 257.22 112.595L255.51 112.932C254.927 113.002 254.344 113.09 253.758 113.153C253.172 113.174 252.585 113.218 251.996 113.232C251.41 113.216 250.826 113.214 250.243 113.187C248.435 113.071 246.641 112.79 244.873 112.391C243.119 111.947 241.371 111.446 239.693 110.743C236.873 109.603 234.188 108.095 231.705 106.307C231.141 105.876 230.55 105.491 229.997 105.046C229.504 104.619 228.996 104.182 228.492 103.752C228.022 103.291 227.567 102.822 227.166 102.352C226.738 101.814 226.373 101.325 225.974 100.886C225.578 100.441 225.206 99.993 224.722 99.5573C224.447 99.32 224.167 98.9426 223.899 98.5324C223.631 98.1167 223.337 97.6923 223.133 97.2664C222.869 96.7251 222.611 96.1855 222.372 95.6401C222.182 95.0738 221.991 94.5131 221.805 93.954C221.615 93.2732 221.489 92.6004 221.299 91.9377C221.177 91.2539 221.012 90.5689 220.803 89.8338C220.646 89.0304 220.546 87.8896 220.68 86.9667C220.724 85.9434 220.96 84.9442 221.123 83.9463C221.248 83.4547 221.394 82.9701 221.524 82.4803C221.595 82.2371 221.649 81.9888 221.73 81.749L222.002 81.0385C222.187 80.5659 222.349 80.0865 222.543 79.6229L223.201 78.2617L223.529 77.5811L223.913 76.936L224.683 75.6402C225.046 75.061 225.466 74.5298 225.853 73.9701C226.054 73.6956 226.24 73.4104 226.462 73.1483L227.116 72.3712C227.568 71.8559 227.97 71.3252 228.458 70.8274C228.939 70.3153 229.462 69.8406 230.011 69.3983C232.213 67.6124 234.943 66.4688 237.771 66.1042C239.985 65.7936 242.256 65.9951 244.414 66.5352C246.095 66.9614 247.714 67.6216 249.216 68.5222C250.712 69.421 252.098 70.5564 253.212 71.9802C253.765 72.6967 254.249 73.4762 254.624 74.3359C254.994 75.212 255.208 76.1235 255.308 77.0297C255.505 78.8403 255.28 80.6089 254.807 82.2872C254.423 83.6018 253.887 84.8863 253.225 86.0893C252.455 87.4633 251.444 88.816 249.798 89.6791C249.389 89.888 248.933 90.0522 248.445 90.146L248.077 90.205C247.966 90.2123 247.862 90.2159 247.759 90.2195L247.126 90.2376C246.706 90.2502 246.28 90.1646 245.859 90.1226C245.443 90.0278 245.028 89.9275 244.626 89.7888C243.655 89.4414 242.787 88.9031 242.004 88.2887C241.254 87.6429 240.583 86.9193 240.035 86.1317C238.926 84.5586 238.217 82.7859 237.776 80.9649C237.596 80.1183 237.418 79.2298 237.409 78.3767C237.249 72.4409 239.301 66.6458 242.699 61.9977C245.479 58.2407 248.968 55.1047 252.862 52.6569C255.868 50.7682 259.136 49.2753 262.623 48.4846C262.855 48.437 263.082 48.3458 263.311 48.3092C264.316 48.1247 265.006 48.1548 265.312 48.2752C265.619 48.39 265.56 48.6184 265.132 48.9423C264.381 49.4899 263.223 49.9881 261.591 50.4998C259.785 51.0654 258.028 51.8395 256.345 52.7396L256.382 52.7572Z" fill="#CFE2F4"/>
<path d="M25.1073 508.501C25.2581 508.563 25.3956 508.594 25.5594 508.693C25.7029 508.785 25.8465 508.878 25.9048 508.706C25.9235 508.661 25.9581 508.684 25.9897 508.676C26.0425 508.659 26.0954 508.642 26.1438 508.614C26.1655 508.6 26.1664 508.512 26.1962 508.53C26.3493 508.633 26.468 508.636 26.5274 508.449C26.6715 508.609 26.7137 508.447 26.7764 508.363C26.839 508.279 26.9415 508.292 26.9793 508.119C26.9877 508.073 27.01 508.048 27.0395 508.071C27.2283 508.182 27.3434 508.087 27.4685 507.997C27.6039 507.908 27.7641 507.909 27.9672 508.037C28.0762 508.106 28.1558 508.076 28.2355 508.045C28.3306 508.015 28.409 507.928 28.5001 507.882C28.6337 507.819 28.7543 507.719 28.849 507.544C28.9738 507.31 29.117 507.108 29.2727 506.948C29.3508 506.866 29.4677 506.894 29.571 506.896C29.7778 506.895 29.998 506.926 30.2012 506.903C30.3522 506.888 30.4909 506.825 30.6252 506.752C30.7489 506.683 30.8607 506.561 30.9847 506.487C31.3516 506.264 31.7226 506.057 32.0892 505.839C32.1754 505.788 32.2586 505.706 32.3404 505.645C32.3837 505.617 32.4314 505.599 32.4784 505.592C32.6617 505.558 32.8491 505.54 33.0331 505.496C33.2909 505.431 33.5402 505.34 33.798 505.275C33.9452 505.238 34.0962 505.223 34.1961 505.049C34.2254 504.999 34.2697 505.106 34.3306 505.348C34.4363 505.763 34.5513 506.195 34.5586 506.465C34.5668 506.646 34.5623 506.785 34.4825 506.744C34.3728 506.684 34.3425 506.899 34.1818 506.682C34.1582 506.649 34.1465 506.669 34.1347 506.689C33.9758 507.045 33.6805 506.978 33.4242 507.022C33.3404 507.037 33.2733 507.11 33.1985 507.146C33.1504 507.169 33.0972 507.191 33.0446 507.203C32.966 507.218 32.8741 507.201 32.8089 507.249C32.7549 507.281 32.7224 507.377 32.5984 507.151C32.5707 507.103 32.5432 507.127 32.5544 507.19C32.5848 507.425 32.5285 507.415 32.4811 507.428C32.3452 507.449 32.2053 507.455 32.0782 507.498C31.9828 507.533 31.901 507.594 31.8225 507.682C31.6998 507.813 31.5947 507.987 31.4723 508.113C31.3723 508.215 31.2496 508.268 31.1407 508.349C31.1136 508.367 31.1045 508.424 31.0777 508.437C31.0293 508.465 30.9935 508.535 30.915 508.473C30.8318 508.405 30.7858 508.397 30.7967 508.614C30.804 508.734 30.7573 508.736 30.711 508.733C30.6547 508.724 30.5866 508.662 30.5133 508.6C30.4305 508.527 30.348 508.449 30.3363 508.619C30.3299 508.711 30.2703 508.676 30.2165 508.631C29.9812 508.444 29.8263 508.516 29.684 508.631C29.4922 508.788 29.313 508.988 29.1257 509.156C29.0538 509.223 28.969 509.253 28.8883 509.3C28.6362 509.432 28.35 509.459 28.0594 509.475C28.0024 509.476 27.9407 509.472 27.9052 509.537C27.8181 509.676 27.6932 509.688 27.5505 509.657C27.3825 509.62 27.2652 509.746 27.1472 509.883C27.1194 509.912 27.0997 509.972 27.064 509.965C26.7982 509.921 26.6343 510.199 26.3893 510.229C26.1912 510.251 25.9728 510.195 25.7534 510.154C25.585 510.121 25.4132 510.063 25.2404 510.02C25.2301 510.019 25.2236 510.04 25.2136 510.034C25.1128 509.996 24.9927 509.714 24.8898 509.257C24.7988 508.852 24.7794 508.608 24.858 508.593C24.9418 508.578 25.0344 508.584 25.1226 508.58C25.1199 508.544 25.1162 508.523 25.1073 508.501Z" fill="#CFE2F4"/>
<path d="M-0.255331 516.563C-0.115162 516.63 0.0120532 516.659 0.16482 516.768C0.29807 516.86 0.430615 516.962 0.483839 516.79C0.497323 516.744 0.537069 516.768 0.55836 516.759C0.606088 516.741 0.653453 516.729 0.696745 516.701C0.71839 516.687 0.714132 516.599 0.743586 516.622C0.886062 516.73 0.994472 516.732 1.04805 516.555C1.18663 516.719 1.21855 516.556 1.27568 516.477C1.33317 516.393 1.42508 516.41 1.45737 516.242C1.46571 516.196 1.48256 516.176 1.51236 516.194C1.68536 516.309 1.79536 516.213 1.9043 516.133C2.02388 516.048 2.17346 516.053 2.36597 516.185C2.46462 516.254 2.53878 516.228 2.61295 516.202C2.69775 516.172 2.77032 516.094 2.85105 516.048C2.96921 515.984 3.07886 515.893 3.16331 515.718C3.27225 515.488 3.39928 515.295 3.53412 515.139C3.60154 515.061 3.70782 515.094 3.80594 515.096C3.99703 515.099 4.20107 515.138 4.38843 515.12C4.52878 515.109 4.65208 515.045 4.77575 514.976C4.88877 514.912 4.98475 514.794 5.09813 514.725C5.42796 514.515 5.76223 514.315 6.0917 514.111C6.17279 514.059 6.24021 513.981 6.32164 513.925C6.35979 513.897 6.40202 513.884 6.44904 513.877C6.61653 513.847 6.7881 513.833 6.9563 513.793C7.19281 513.737 7.41601 513.649 7.65252 513.593C7.78399 513.56 7.92433 513.549 8.01357 513.38C8.0377 513.33 8.0872 513.437 8.14807 513.679C8.25382 514.094 8.36881 514.526 8.38673 514.791C8.39525 514.967 8.39597 515.107 8.32642 515.066C8.22227 515.002 8.20222 515.218 8.04697 514.995C8.02337 514.963 8.01201 514.977 8.00545 514.997C7.86742 515.35 7.59897 515.269 7.35838 515.31C7.28013 515.32 7.22372 515.388 7.15399 515.425C7.11106 515.448 7.06333 515.465 7.01116 515.472C6.93771 515.487 6.85645 515.466 6.79151 515.508C6.74272 515.541 6.71575 515.632 6.59172 515.407C6.56404 515.358 6.54169 515.382 6.55322 515.44C6.58871 515.675 6.53761 515.667 6.4906 515.674C6.37048 515.691 6.24113 515.693 6.12474 515.731C6.03993 515.761 5.96329 515.823 5.89551 515.907C5.78853 516.034 5.69414 516.203 5.58751 516.325C5.49809 516.422 5.38613 516.471 5.28748 516.552C5.26548 516.571 5.25643 516.628 5.22964 516.641C5.18635 516.669 5.15051 516.739 5.08273 516.673C5.00502 516.6 4.95872 516.597 4.98019 516.81C4.98747 516.93 4.94594 516.932 4.90514 516.924C4.85404 516.915 4.78626 516.849 4.72328 516.787C4.64556 516.715 4.56856 516.632 4.562 516.802C4.55596 516.89 4.50149 516.855 4.45287 516.81C4.23339 516.619 4.0895 516.682 3.96779 516.797C3.79693 516.951 3.63903 517.142 3.46781 517.301C3.40146 517.363 3.32694 517.394 3.25171 517.436C3.02088 517.559 2.76113 517.578 2.49659 517.59C2.44478 517.592 2.38817 517.588 2.35819 517.648C2.28172 517.782 2.1671 517.795 2.0351 517.76C1.87772 517.718 1.77624 517.841 1.67404 517.973C1.65133 518.003 1.63679 518.064 1.60112 518.056C1.35627 518.008 1.21363 518.277 0.989893 518.298C0.807676 518.317 0.605408 518.251 0.406866 518.206C0.254278 518.17 0.0880255 518.107 -0.0689983 518.06C-0.0792891 518.059 -0.0807013 518.08 -0.0906373 518.074C-0.185916 518.031 -0.300898 517.749 -0.409316 517.297C-0.505491 516.892 -0.525194 516.653 -0.456885 516.637C-0.378286 516.622 -0.296317 516.633 -0.213636 516.633C-0.24238 516.6 -0.246459 516.584 -0.255331 516.563Z" fill="#CFE2F4"/>
<path d="M5.01352 515.41L4.1666 475.053L7.47415 473.57L27.507 508.518L32.1158 507.058L12.0256 472.415L1.14558 476.204L1.48045 516.79L5.01352 515.41Z" fill="#CFE2F4"/>
<path d="M4.10461 507.384C4.1608 505.145 4.18753 502.882 4.28347 500.666C4.37338 498.687 4.46595 496.744 4.27943 494.725C4.23258 494.205 4.25102 493.638 4.24195 493.094C4.21709 492.105 4.19258 491.111 4.16771 490.121C4.15227 489.671 4.05556 489.199 4.074 488.781C4.17473 486.72 4.1715 484.668 3.97237 482.607C4.13521 480.994 3.96005 479.411 3.86456 477.796C3.84432 477.34 3.82373 476.889 3.80385 476.427L3.74721 474.774L4.38328 474.472L4.96097 474.191C5.27697 474.032 5.58817 473.867 5.89494 473.692C5.98631 473.641 6.08319 473.586 6.18485 473.536C6.3291 473.468 6.4737 473.396 6.62345 473.323C6.92258 473.184 7.23165 473.05 7.50808 472.94L7.72064 472.856L8.85551 474.992C9.15786 475.556 9.47121 476.11 9.7897 476.664C10.4267 477.773 11.085 478.873 11.7429 479.978C13.1838 482.399 14.5341 484.86 15.7618 487.374C16.4192 488.712 17.1997 490.063 17.9563 491.387C18.8609 492.965 19.8138 494.514 20.7346 496.082C22.0664 498.361 23.4161 500.604 24.8411 502.807C25.4062 503.683 25.9658 504.564 26.5306 505.446L27.3746 506.776C27.5004 506.976 27.6956 507.294 27.7203 507.312L27.8903 507.546L28.279 507.381L29.2861 507.021L30.2983 506.662C30.426 506.609 30.4851 506.577 30.5703 506.541L30.6874 506.493C30.6265 506.4 30.5752 506.319 30.5295 506.233L30.0736 505.421C29.6783 504.707 29.283 503.992 28.8873 503.282C27.1204 500.115 25.3858 496.93 23.6028 493.772C22.2619 491.4 20.8733 489.045 19.4789 486.7C18.1609 484.52 16.8425 482.346 15.5242 480.172L13.3549 476.543L12.2704 474.726L11.728 473.82L11.5923 473.614L2.28544 477.005L2.2952 477.088L2.29893 477.109L2.29822 477.12L2.29804 477.197L2.30622 477.529L2.33339 478.859C2.38418 480.672 2.43496 482.485 2.48575 484.298C2.506 485.204 2.51595 486.11 2.51527 487.019L2.52296 497.106L2.62266 511.558L2.63354 514.174L2.64066 514.971C2.64332 515.007 2.64599 515.044 2.65486 515.065C2.69779 515.042 2.73594 515.014 2.75829 514.989C2.76379 514.985 2.76964 514.975 2.77 514.97L3.09522 514.827L3.76731 514.526C4.46104 514.212 4.73374 514.231 4.56076 514.566C4.41155 514.855 4.28328 515.141 4.05582 515.441C3.94192 515.593 3.80194 515.749 3.62043 515.907C3.43343 516.07 3.23613 516.232 2.88607 516.435C2.37385 516.741 1.76724 517.067 1.08894 517.382C1.04954 516.903 1.03409 516.303 1.05413 515.637C1.06157 515.379 1.06387 515.121 1.07167 514.858L1.07236 514.248C1.06437 513.839 1.05638 513.43 1.04803 513.026C1.03719 512.208 1.04143 511.397 1.16809 510.61C1.20393 510.39 1.19025 510.063 1.17197 509.803C0.839188 505.107 0.958311 500.379 0.952877 495.659C0.950535 494.118 0.891586 492.574 0.863871 491.026L0.833285 488.02C0.830057 486.567 0.858415 485.106 0.829106 483.656C0.806192 482.564 0.71426 481.498 0.958376 480.507C1.00894 480.298 0.991714 479.723 0.928013 479.522C0.804692 479.136 0.751101 478.714 0.724299 478.278C0.713471 478.06 0.708141 477.837 0.702813 477.615C0.704049 477.372 0.70049 477.123 0.702081 476.875L0.698511 475.877L7.24196 473.65L9.56375 472.818C10.4603 472.487 11.3517 472.155 12.2431 471.824C12.3589 472.018 12.4803 472.207 12.5961 472.401C14.1242 474.833 15.6475 477.259 17.1755 479.691C18.4082 481.684 19.6023 483.71 20.8184 485.717C21.1018 486.181 21.4126 486.621 21.6909 487.085C22.2004 487.942 22.7759 488.819 23.1722 489.669C23.6137 490.614 24.0042 491.324 24.6675 492.052C25.0374 492.46 25.4564 493.207 25.7915 493.82C26.2179 494.609 26.5965 495.416 26.9656 496.212C27.4115 497.168 27.8198 498.07 28.5228 498.971C28.898 499.452 29.2802 500.207 29.5732 500.832C30.0471 501.832 30.553 502.818 31.0856 503.79L31.8951 505.247L33.1797 507.46L31.3127 508.071L29.9314 508.534C28.9996 508.853 28.0629 509.165 27.1311 509.484L26.1444 507.823L25.4803 506.733L24.1516 504.558L21.4951 500.198C20.6454 498.8 19.8283 497.379 18.9951 495.967C16.4185 491.571 13.9385 487.124 11.4695 482.668C10.9867 481.798 10.5006 480.901 9.96828 480.073C9.35737 479.111 8.77325 478.135 8.21043 477.15L7.38218 475.666L7.18061 475.29L7.08906 475.118L7.08054 475.092L7.03281 474.959L7.02873 474.944C6.98686 474.951 6.94462 474.964 6.89175 474.981L6.85467 474.994L6.66819 475.074L6.25231 475.257L5.42569 475.624L5.31338 475.678L5.24365 475.715L5.25235 475.814L5.25945 475.861L5.27187 476.13L5.32388 477.251L5.4437 479.487C5.4776 480.12 5.54203 480.761 5.54027 481.386C5.51287 485.758 5.81247 490.111 5.85817 494.472C5.89409 498 5.84734 501.528 5.81672 505.047C5.779 507.769 5.74197 510.48 5.70425 513.202C5.70212 513.383 5.72572 513.566 5.7236 513.746C5.68921 515.295 5.39647 515.792 4.91368 515.071C4.48731 514.431 4.22646 513.416 4.2039 512.018L4.17665 507.389L4.10461 507.384Z" fill="#CFE2F4"/>
<path d="M3.46142 497.262C3.6919 497.293 3.91937 497.293 4.16244 497.367C4.38015 497.434 4.5927 497.5 4.73038 497.303C4.7648 497.253 4.82584 497.268 4.87357 497.25C4.96352 497.22 5.04832 497.19 5.13384 497.149C5.17128 497.131 5.18831 497.034 5.23391 497.048C5.4612 497.126 5.6592 497.103 5.7928 496.89C6.00039 497.028 6.09549 496.849 6.22164 496.744C6.34779 496.639 6.50872 496.629 6.59938 496.439C6.62351 496.389 6.66165 496.36 6.7124 496.374C6.99628 496.456 7.21238 496.321 7.43257 496.202C7.6689 496.073 7.93486 496.04 8.24376 496.133C8.40593 496.181 8.54361 496.133 8.68129 496.086C8.84541 496.03 8.987 495.926 9.14704 495.854C9.37609 495.757 9.59184 495.627 9.78239 495.412C10.0345 495.13 10.3044 494.89 10.5875 494.682C10.7291 494.578 10.9147 494.586 11.087 494.561C11.4315 494.513 11.7839 494.501 12.1196 494.431C12.3712 494.381 12.6109 494.279 12.8458 494.171C13.0646 494.072 13.2667 493.915 13.4806 493.811C14.1229 493.494 14.7696 493.187 15.4116 492.874C15.5668 492.797 15.7135 492.694 15.864 492.611C15.9392 492.569 16.0185 492.544 16.1026 492.524C16.4078 492.447 16.7222 492.386 17.0281 492.298C17.4606 492.173 17.8902 492.016 18.3227 491.891C18.5706 491.82 18.8222 491.77 19.023 491.557C19.0788 491.499 19.1389 491.601 19.1895 491.842C19.2794 492.262 19.3838 492.698 19.3488 492.98C19.3254 493.17 19.2942 493.323 19.1721 493.294C18.9993 493.251 18.9154 493.493 18.6915 493.292C18.6624 493.264 18.6352 493.283 18.618 493.307C18.2894 493.724 17.8194 493.718 17.3883 493.822C17.2462 493.859 17.1262 493.949 16.9878 494.007C16.9027 494.042 16.8124 494.077 16.7231 494.097C16.5913 494.134 16.4465 494.135 16.3232 494.199C16.2322 494.244 16.1626 494.353 15.9912 494.14C15.9581 494.096 15.9096 494.124 15.9102 494.191C15.9137 494.439 15.8259 494.438 15.7418 494.458C15.5156 494.515 15.286 494.546 15.0686 494.624C14.9096 494.68 14.7588 494.768 14.6169 494.877C14.3935 495.043 14.1875 495.256 13.9649 495.411C13.7748 495.543 13.5726 495.627 13.3737 495.738C13.3304 495.766 13.2953 495.825 13.2472 495.848C13.1617 495.888 13.0888 495.971 12.9784 495.922C12.8581 495.867 12.7802 495.872 12.7594 496.098C12.7454 496.227 12.6672 496.237 12.5996 496.242C12.5114 496.247 12.4065 496.193 12.3065 496.145C12.1814 496.084 12.0618 496.019 12.013 496.202C11.9857 496.298 11.8941 496.277 11.8136 496.245C11.4619 496.097 11.1958 496.208 10.9419 496.366C10.6014 496.58 10.2691 496.826 9.92792 497.051C9.7929 497.135 9.64936 497.192 9.51062 497.255C9.07309 497.452 8.59634 497.543 8.11995 497.629C8.02592 497.644 7.92709 497.652 7.85488 497.725C7.68296 497.894 7.47324 497.936 7.25128 497.931C6.97751 497.928 6.76442 498.094 6.55133 498.26C6.50219 498.298 6.4612 498.368 6.3991 498.369C5.9692 498.381 5.64629 498.715 5.24744 498.801C4.92204 498.872 4.5663 498.858 4.21943 498.865C3.95045 498.867 3.67295 498.843 3.40468 498.835C3.38925 498.833 3.37718 498.858 3.3566 498.857C3.19745 498.841 3.05639 498.562 2.97955 498.102C2.90946 497.694 2.92205 497.436 3.05388 497.399C3.196 497.362 3.34149 497.352 3.48769 497.331C3.47438 497.299 3.47029 497.283 3.46142 497.262Z" fill="#CFE2F4"/>
<path d="M-0.805517 474.969C-0.591894 475.02 -0.386436 475.039 -0.16536 475.132C0.0306989 475.212 0.226407 475.298 0.357876 475.116C0.392295 475.067 0.447834 475.086 0.490061 475.074C0.574516 475.048 0.653463 475.028 0.733127 474.997C0.770564 474.979 0.787241 474.887 0.82734 474.905C1.03813 474.998 1.21413 474.994 1.34667 474.797C1.53226 474.954 1.627 474.78 1.74729 474.685C1.86758 474.589 2.01201 474.594 2.10711 474.415C2.13124 474.365 2.16903 474.341 2.20913 474.36C2.47101 474.46 2.67026 474.345 2.87873 474.246C3.103 474.142 3.34696 474.128 3.62836 474.246C3.77917 474.308 3.90586 474.27 4.03254 474.232C4.1853 474.191 4.32103 474.097 4.46972 474.04C4.68192 473.962 4.88631 473.846 5.06994 473.657C5.31514 473.4 5.57329 473.18 5.83889 473.002C5.97427 472.913 6.14371 472.93 6.30464 472.92C6.62134 472.901 6.95136 472.913 7.26434 472.873C7.49907 472.843 7.72157 472.765 7.93962 472.676C8.14703 472.593 8.33705 472.461 8.53967 472.371C9.14203 472.108 9.74847 471.86 10.3556 471.602C10.4995 471.54 10.64 471.451 10.7795 471.378C10.8492 471.342 10.9282 471.321 11.0013 471.311C11.2892 471.258 11.5758 471.226 11.8593 471.163C12.2636 471.072 12.6646 470.955 13.069 470.864C13.3 470.813 13.5344 470.787 13.7287 470.594C13.784 470.541 13.8335 470.648 13.8734 470.894C13.9425 471.317 14.0204 471.762 13.9806 472.038C13.9521 472.228 13.9164 472.37 13.8101 472.337C13.6535 472.285 13.5655 472.511 13.3683 472.296C13.3396 472.263 13.3176 472.282 13.3004 472.307C12.9842 472.693 12.5479 472.648 12.145 472.718C12.0142 472.74 11.895 472.82 11.7728 472.868C11.6931 472.899 11.6086 472.924 11.5249 472.939C11.4044 472.962 11.2706 472.953 11.1532 473.007C11.0677 473.047 10.9988 473.146 10.8487 472.924C10.8159 472.875 10.7726 472.903 10.7735 472.965C10.7671 473.207 10.6848 473.202 10.6113 473.217C10.402 473.255 10.1892 473.266 9.98874 473.324C9.83597 473.366 9.69616 473.444 9.56043 473.538C9.34877 473.684 9.14934 473.877 8.93803 474.017C8.75937 474.134 8.56881 474.198 8.38127 474.294C8.33833 474.317 8.30835 474.377 8.26062 474.394C8.18096 474.425 8.10839 474.503 8.00903 474.444C7.89974 474.38 7.82734 474.38 7.8018 474.601C7.78814 474.724 7.7099 474.734 7.64815 474.729C7.56583 474.724 7.47161 474.666 7.3774 474.607C7.26331 474.538 7.15987 474.463 7.10629 474.64C7.07897 474.737 6.99327 474.705 6.92372 474.664C6.60506 474.487 6.35578 474.578 6.11909 474.712C5.79618 474.897 5.48143 475.113 5.16295 475.308C5.03893 475.382 4.9016 475.424 4.76871 475.477C4.35424 475.64 3.91671 475.687 3.47403 475.734C3.3855 475.744 3.29768 475.743 3.22582 475.81C3.06525 475.965 2.86724 475.987 2.66178 475.968C2.41037 475.94 2.20899 476.086 2.00211 476.238C1.95332 476.27 1.9127 476.335 1.8561 476.331C1.45955 476.309 1.14905 476.613 0.77841 476.665C0.475721 476.706 0.147839 476.663 -0.171175 476.641C-0.418154 476.624 -0.673296 476.575 -0.924356 476.542C-0.939792 476.541 -0.951504 476.561 -0.96694 476.56C-1.11474 476.529 -1.22972 476.247 -1.29041 475.778C-1.33956 475.366 -1.31668 475.109 -1.19621 475.086C-1.06509 475.059 -0.925811 475.064 -0.790612 475.052C-0.798065 475.011 -0.801791 474.99 -0.805517 474.969Z" fill="#CFE2F4"/>
<path d="M35.2291 475.588C35.7119 477.208 36.2256 478.831 36.6566 480.453C37.0427 481.901 37.4207 483.318 38.0749 484.702C38.2466 485.06 38.3579 485.471 38.5022 485.853L39.2827 487.954C39.4055 488.273 39.6069 488.576 39.6892 488.882C40.0869 490.388 40.5752 491.854 41.2588 493.26C41.486 494.465 42.0321 495.542 42.5027 496.665C42.9784 497.789 43.3624 498.968 43.9188 500.046C44.0646 500.33 44.2066 500.67 44.2882 500.986C44.4124 501.434 44.5421 501.877 44.6873 502.322L44.9054 502.983L45.0871 503.497L45.174 503.736C45.1941 503.82 45.278 503.877 45.361 503.873L45.8539 503.772L46.5781 503.615L47.3398 503.44C49.3939 502.967 51.4373 502.497 53.4937 502.065C54.5856 501.825 55.6973 501.447 56.7697 501.04C58.0439 500.554 59.2738 499.962 60.4754 499.331C62.2134 498.417 63.8709 497.321 65.162 495.916C66.0126 494.977 66.7313 493.926 67.0361 492.804C67.188 492.251 67.2424 491.686 67.1815 491.144C67.1602 491.003 67.1533 490.879 67.117 490.731L67.014 490.275C66.9578 489.966 66.8641 489.675 66.7756 489.384C66.418 488.197 65.9224 487.061 65.1478 486.15C64.3676 485.243 63.3344 484.556 62.1483 484.139C60.9739 483.701 59.6668 483.538 58.3563 483.5C56.3782 483.472 54.3752 483.804 52.4237 484.29C50.5978 484.754 48.8169 485.391 47.0536 486.071L46.4163 486.316L45.8337 484.642C48.3608 483.757 50.909 482.79 52.905 481.283C53.8832 480.518 54.6846 479.617 55.2092 478.532C55.4835 478.003 55.6951 477.407 55.8646 476.824C56.023 476.251 56.1211 475.653 56.1575 475.05C56.225 473.845 56.0092 472.626 55.577 471.547C55.3607 471.01 55.096 470.5 54.7807 470.049C53.5669 468.384 51.4015 467.397 49.0819 467.149C47.4208 466.947 45.6891 467.019 43.9759 467.273C42.2616 467.542 40.5572 467.968 38.8822 468.493C36.9883 469.117 35.1128 469.852 33.3742 470.848C33.3151 470.88 33.256 470.913 33.2028 470.935L33.1815 470.944C33.0319 470.639 32.882 470.339 32.7368 470.044L32.7416 470.05C32.7468 470.05 32.7365 470.05 32.7365 470.05C32.7416 470.05 32.7365 470.05 32.7365 470.05C32.7468 470.05 32.7416 470.05 32.7368 470.044L32.869 470.302L32.8759 470.276L32.9088 470.175C32.9343 470.105 32.9595 470.039 32.9953 469.969C33.1284 469.689 33.3452 469.394 33.7398 469.069C34.2722 468.62 34.799 468.253 35.6024 467.998C36.1744 467.8 36.7493 467.56 37.3374 467.353C37.6293 467.244 37.9205 467.145 38.2161 467.057C38.5161 466.979 38.8191 466.933 39.1208 466.907C39.2923 466.893 39.5255 466.811 39.7061 466.741C43.0495 465.487 46.7907 465.063 50.3756 465.78C51.5447 465.995 52.7075 466.375 53.7728 466.971C54.1044 467.185 54.4646 467.36 54.7556 467.638C55.0583 467.897 55.383 468.137 55.6245 468.458C56.4398 469.306 56.9286 470.389 57.2837 471.463C57.5481 472.277 57.7644 473.114 57.5502 473.895C57.5132 474.058 57.519 474.498 57.5859 474.653C57.8024 475.262 57.7009 475.984 57.534 476.681C57.0748 478.541 56.126 480.306 54.7116 481.625C53.6818 482.614 52.4821 483.369 51.263 484.029C49.6633 484.886 48.0119 485.594 46.3348 486.223L45.8338 484.792L46.7812 484.397C48.4453 483.731 50.1629 483.188 51.9113 482.724C52.3163 482.623 52.7088 482.48 53.1235 482.389C53.8793 482.224 54.6733 482.031 55.413 482.025C56.2306 482.014 56.8585 481.98 57.6086 481.747C58.0316 481.611 58.7236 481.623 59.2834 481.677C60.0074 481.747 60.7203 481.905 61.4029 482.128C62.2267 482.402 62.9547 482.716 63.8725 482.975C64.1149 483.059 64.3956 483.187 64.6631 483.355C64.919 483.544 65.191 483.723 65.3936 483.933C66.3409 484.815 67.1012 485.86 67.6438 486.989C68.1813 488.116 68.5282 489.309 68.7347 490.512C68.9019 491.387 68.8466 492.34 68.5856 493.2C68.3345 494.067 67.9128 494.86 67.4144 495.565C66.4074 496.974 65.1214 498.08 63.7789 499.031C62.7195 499.775 61.5907 500.401 60.4504 500.968C56.8863 502.723 53.1045 503.812 49.2999 504.63C48.5499 504.785 47.7904 504.929 47.0636 505.122C46.858 505.18 46.6476 505.233 46.4375 505.281L46.0489 505.367L45.4617 505.487C44.6804 505.645 44.0428 505.296 43.7573 504.563C43.4184 503.63 43.3543 503.434 43.1996 502.979L42.7989 501.742C42.1745 499.775 41.3904 497.876 40.606 495.981C40.4245 495.54 40.2117 495.101 40.0666 494.657C39.0523 491.521 37.7301 488.504 36.6461 485.405C35.7697 482.894 34.9778 480.358 34.1697 477.831C33.5604 475.871 32.9452 473.921 32.3355 471.966C32.2977 471.839 32.2291 471.71 32.1913 471.584C31.8549 470.464 32.0151 470.015 32.6417 470.374C33.1989 470.692 33.687 471.335 34.0374 472.326C34.4271 473.423 34.7906 474.524 35.1645 475.625L35.2291 475.588Z" fill="#CFE2F4"/>
<path d="M44.9384 504.41C48.0942 503.702 49.5058 503.324 51.9311 502.566L39.2038 467.758C37.0768 468.315 34.7999 469.021 32.3713 469.903L44.9384 504.41Z" fill="#CFE2F4"/>
<path d="M48.4734 502.8C48.9961 502.717 49.5202 502.613 50.0388 502.515L50.4318 502.438C50.5365 502.42 50.5934 502.419 50.6875 502.404L51.2506 502.335L51.3968 502.314C51.4387 502.306 51.4011 502.252 51.4084 502.221L51.3769 502.002C51.3516 501.845 51.3118 501.672 51.2621 501.493C51.1498 501.097 50.9711 500.614 50.7412 500.201C50.6219 499.98 50.5574 499.717 50.4708 499.474C50.3047 499.033 50.1441 498.588 49.9729 498.147C49.8938 497.945 49.7356 497.763 49.6922 497.569C49.4902 496.599 49.1925 495.668 48.7045 494.797C48.6243 494.011 48.2358 493.348 47.9118 492.649C47.5881 491.944 47.3606 491.194 46.9566 490.531C46.85 490.353 46.7561 490.139 46.713 489.94C46.4406 488.717 45.9564 487.566 45.4883 486.407C44.9847 485.163 44.5763 483.889 44.2894 482.576C44.1359 481.878 43.8788 481.183 43.6261 480.499C43.3253 479.687 42.9768 478.893 42.6654 478.086C42.2139 476.912 41.73 475.757 41.1716 474.632C40.4223 473.128 39.7108 471.6 39.0316 470.054C38.9469 469.857 38.8674 469.66 38.7883 469.459L38.6932 469.188L38.6728 469.109L38.6334 468.931C38.6293 468.915 38.6256 468.894 38.6211 468.884L38.5796 468.886L38.4962 468.896L38.4073 468.91L38.2766 468.932C38.256 468.931 38.1242 468.968 38.0246 468.987L37.7143 469.064L36.4727 469.376C35.6461 469.594 34.8184 469.826 34.0043 470.085L33.4914 470.251L33.2796 470.325C33.2808 470.382 33.3218 470.462 33.3429 470.531L33.8876 471.928C34.3266 473.059 34.8188 474.169 35.2684 475.296L39.2241 485.334L40.2115 487.734C40.3753 488.133 40.5229 488.541 40.6654 488.949L42.2391 493.493L44.5738 499.972C45.0112 501.201 45.4225 502.434 45.9986 503.601C46.1571 503.927 46.0899 504.078 45.8134 504.038C45.3275 503.963 44.8482 503.94 44.3913 503.444C44.0837 503.107 43.822 502.779 43.702 502.269C43.5311 501.523 43.0664 500.84 43.0542 500.043C43.0517 499.929 42.9889 499.79 42.9294 499.677C41.8889 497.672 41.2629 495.504 40.5253 493.38C40.2837 492.686 39.9891 492.01 39.7261 491.324C39.5553 490.878 39.3895 490.433 39.2345 489.983C39.0054 489.331 38.8086 488.661 38.5531 488.018C38.359 487.534 38.1109 487.082 38.1886 486.555C38.2067 486.443 38.0999 486.192 38.0068 486.119C37.6581 485.852 37.5366 485.44 37.3941 485.032C37.0151 483.931 36.6518 482.825 36.2519 481.728C35.9563 480.916 35.6236 480.118 35.2795 479.334C34.7382 478.113 34.1594 476.91 33.6287 475.684C33.1822 474.661 32.7894 473.61 32.3646 472.573C32.2674 472.333 32.1327 472.112 32.0358 471.868C31.9918 471.756 31.9478 471.644 31.8987 471.532L31.6834 470.98C31.5303 470.576 31.393 470.169 31.3087 469.817C31.2842 469.722 31.2597 469.627 31.2404 469.533L31.2033 469.396C31.2047 469.375 31.176 469.342 31.202 469.339L31.2759 469.318C31.4712 469.259 31.6511 469.199 31.8211 469.133C32.161 469.002 32.4509 468.846 32.7925 468.616C32.8901 468.55 33.0082 468.486 33.147 468.423C33.1951 468.401 33.2486 468.374 33.3019 468.351L33.4245 468.298C33.5893 468.232 33.7688 468.177 33.9319 468.136C34.3483 468.02 34.7862 467.968 35.2087 467.914C35.7196 467.851 36.1983 467.807 36.6797 467.499C36.9339 467.335 37.3417 467.27 37.6752 467.231C38.1506 467.161 38.7739 467.043 39.309 466.93L39.5135 466.887L39.6134 466.863C39.6447 466.86 39.6879 466.832 39.6892 466.889L39.8255 467.312L40.1049 468.133L40.3521 468.822L40.5441 469.337L40.96 470.353L43.3169 475.835C43.624 476.554 43.8941 477.286 44.1799 478.014C45.0631 480.277 45.8349 482.579 46.6016 484.881C46.7516 485.331 46.8953 485.796 47.104 486.219C47.5738 487.202 47.9221 488.224 48.2278 489.264C48.5911 490.519 49.1191 491.708 49.6527 492.893C49.7783 493.17 49.9304 493.439 50.0141 493.724C50.6158 495.72 51.5303 497.603 52.2014 499.567L53.3225 502.953L53.4121 503.228L53.4332 503.297C53.4369 503.318 53.3906 503.314 53.3745 503.324L53.2268 503.365L52.6367 503.526L51.4881 503.84L50.9299 503.988L50.6199 504.059L49.9952 504.197C48.7039 504.48 47.4025 504.685 46.1172 504.881C46.0334 504.896 45.9483 504.931 45.8645 504.946C45.1288 505.045 44.8356 504.798 45.0739 504.266C45.2822 503.795 45.7036 503.457 46.3492 503.315L48.4849 502.857L48.4734 502.8Z" fill="#CFE2F4"/>
<path d="M87.5362 456.852C87.1035 456.755 86.6659 456.653 86.2204 456.591C85.7807 456.519 85.3366 456.437 84.8911 456.375C84.1044 456.238 83.3038 456.152 82.5125 456.382C82.3065 456.445 82.0794 456.44 81.8656 456.467C81.47 456.507 81.0807 456.604 80.6928 456.681C80.5143 456.72 80.346 456.838 80.1843 456.857C79.3536 456.909 78.5383 457.111 77.8302 457.558C77.497 457.592 77.1952 457.696 76.9112 457.842C76.6312 458.003 76.37 458.192 76.0996 458.365C75.5777 458.737 74.9886 459.032 74.5813 459.542C74.4739 459.674 74.3261 459.793 74.1808 459.876C73.2965 460.405 72.6014 461.189 72.031 462.039C71.4247 462.959 70.8645 463.887 70.2807 464.855C70.1333 465.119 70.0057 465.394 69.8929 465.681C69.7951 465.974 69.7125 466.274 69.6302 466.568C69.5436 466.924 69.4875 467.287 69.4267 467.645L69.3051 468.732C69.217 469.786 69.2321 470.842 69.414 471.878C69.6651 473.26 70.0168 474.608 70.4481 475.925C70.6658 476.591 70.8035 477.293 71.0154 477.97C71.4233 479.326 71.9305 480.669 72.6248 481.922C73.1441 482.862 73.7765 483.738 74.4924 484.527C75.1546 485.27 75.9117 485.912 76.6988 486.494C77.8537 487.364 79.1297 488.052 80.4706 488.475C81.8114 488.899 83.2228 489.048 84.6259 488.943L85.6328 488.81L86.6244 488.6C86.9553 488.524 87.2825 488.428 87.6131 488.358C88.8389 488.049 90.0431 487.605 91.1944 487.028C92.8352 486.174 94.3486 485.069 95.7375 483.82L96.3274 483.287L96.8787 482.715C97.2511 482.337 97.5701 481.91 97.8641 481.47C98.0259 481.222 98.181 481.223 98.2988 481.464C98.5027 481.881 98.7432 482.29 98.5848 482.864C98.48 483.26 98.343 483.597 97.977 483.882C97.4672 484.301 97.0837 484.916 96.4309 485.161C96.3406 485.196 96.2512 485.293 96.1783 485.376C94.8966 486.869 93.1528 487.866 91.3852 488.685C90.8126 488.966 90.2349 489.247 89.6388 489.495C89.2507 489.649 88.8497 489.766 88.4532 489.894C88.1628 489.983 87.8597 490.029 87.5655 490.097C87.2714 490.164 86.9724 490.226 86.6745 490.273C86.229 490.361 85.7939 490.522 85.3553 490.285C85.2656 490.238 85.0308 490.268 84.9483 490.34C84.64 490.613 84.2507 490.561 83.8733 490.561C83.3559 490.566 82.8463 490.459 82.338 490.408C81.8336 490.301 81.3277 490.215 80.8309 490.072C80.0952 489.871 79.3663 489.645 78.6567 489.363C77.5485 488.941 76.4694 488.396 75.4997 487.688C75.0794 487.411 74.7162 487.055 74.33 486.734C73.977 486.378 73.5973 486.037 73.2719 485.658C73.1131 485.486 72.9268 485.339 72.7732 485.168C72.5063 484.84 72.1932 484.508 72.0225 484.134C71.8553 483.709 71.6786 483.423 71.2815 483.184C71.0636 483.045 70.8894 482.722 70.7527 482.454C70.5803 482.107 70.4875 481.728 70.3833 481.364C70.2635 480.927 70.1945 480.503 69.8482 480.128C69.6709 479.924 69.587 479.567 69.5345 479.279C69.313 477.992 68.9315 476.776 68.5889 475.522C68.1477 473.822 67.8447 472.069 67.8031 470.273C67.7861 469.92 67.7947 469.569 67.8244 469.214C67.8437 468.859 67.8678 468.509 67.9232 468.156C68.1779 465.961 68.9582 463.792 70.2136 461.929C70.4662 461.564 70.7189 461.199 70.966 460.839C71.1048 460.626 71.2384 460.413 71.397 460.212C71.56 460.021 71.7334 459.832 71.906 459.652C72.2424 459.272 72.6602 458.986 73.0538 458.677C74.0516 458.001 74.9864 457.264 76.0352 456.675C76.2733 456.521 76.5111 456.372 76.7706 456.281C78.5719 455.65 80.3693 454.999 82.2525 454.829C83.771 454.701 85.2892 454.8 86.7736 455.016C87.9139 455.198 89.0386 455.457 90.1268 455.795C90.1978 455.816 90.2804 455.816 90.3514 455.837C90.9733 456.04 91.0895 456.379 90.6852 456.77C90.3307 457.112 89.886 457.263 89.347 457.132C88.7438 457.034 88.1554 456.869 87.5456 456.791L87.5362 456.852Z" fill="#CFE2F4"/>
<path d="M72.8941 460.215C72.8296 460.324 72.6918 460.449 72.2151 460.99C64.7639 469.41 71.1669 487.217 80.8213 489.583C82.0567 489.886 83.199 489.964 84.1072 489.464L72.8941 460.215Z" fill="#CFE2F4"/>
<path d="M71.6486 462.995C71.4043 463.314 71.1699 463.639 70.9448 463.98C70.7446 464.333 70.5044 464.668 70.3139 465.033C70.1317 465.351 69.9391 465.668 69.8221 466.017C69.6899 466.36 69.5978 466.72 69.6024 467.103C69.6044 467.3 69.5237 467.496 69.4892 467.695C69.4435 468.059 69.3874 468.422 69.3619 468.793C69.3553 468.963 69.4307 469.144 69.3892 469.296C69.2806 469.671 69.2287 470.05 69.2175 470.437C69.1964 470.818 69.2473 471.204 69.3401 471.583C69.2468 471.887 69.2622 472.187 69.3093 472.48C69.3563 472.773 69.429 473.068 69.5069 473.362C69.5848 473.657 69.6264 473.955 69.694 474.249C69.7667 474.544 69.8553 474.834 69.9864 475.107C70.054 475.251 70.1147 475.421 70.1243 475.581C70.1756 476.562 70.5365 477.476 70.9036 478.375C71.3237 479.33 71.6701 480.305 72.0096 481.305C72.1847 481.839 72.4807 482.346 72.7887 482.827C73.1521 483.405 73.5921 483.922 74.0211 484.448C74.6407 485.209 75.3597 485.879 76.154 486.43C77.2262 487.15 78.3591 487.74 79.5106 488.135C80.102 488.331 80.6586 488.581 81.2668 488.757C81.5713 488.84 81.8665 488.907 82.1584 488.948L82.3528 488.977L82.4447 488.994C82.5061 489.003 82.573 489.008 82.6403 489.007C82.7799 489.006 82.9265 488.98 83.0748 488.928C83.0521 488.808 83.0095 488.676 82.9676 488.533L82.9169 488.37L82.7996 488.046L82.5237 487.324L81.9402 485.888C81.5724 484.999 81.1514 484.133 80.7732 483.243L77.4451 475.352L76.6132 473.47C76.4747 473.155 76.3519 472.837 76.2346 472.513L74.9414 468.924L73.0084 463.817C72.6459 462.851 72.3102 461.872 71.8144 460.964C71.6771 460.706 71.7477 460.582 72.0211 460.59C72.4901 460.612 72.9571 460.588 73.3762 460.958C73.6586 461.21 73.8951 461.454 73.9858 461.863C74.1152 462.462 74.5291 462.981 74.4999 463.631C74.4935 463.723 74.5481 463.83 74.599 463.917C75.5102 465.474 76.0017 467.193 76.6096 468.874C76.8097 469.42 77.0628 469.949 77.2838 470.492C77.4251 470.843 77.5612 471.193 77.6918 471.549C77.8786 472.063 78.0383 472.596 78.2519 473.097C78.4168 473.48 78.6363 473.821 78.5282 474.264C78.5064 474.355 78.5962 474.553 78.6805 474.605C79.0036 474.793 79.1047 475.125 79.2172 475.443C79.5295 476.313 79.8256 477.191 80.1592 478.052C80.4048 478.689 80.6875 479.313 80.9808 479.933C81.4421 480.891 81.9464 481.825 82.397 482.787C82.776 483.588 83.107 484.412 83.4643 485.228C83.5497 485.415 83.667 485.588 83.7472 485.775C83.8939 486.121 84.0869 486.47 84.1345 486.83C84.1622 487.029 84.1968 487.202 84.2685 487.362C84.3043 487.442 84.346 487.512 84.4031 487.583C84.4603 487.654 84.5192 487.699 84.6368 487.868C84.7603 488.026 84.8788 488.257 84.9805 488.507C85.0873 488.757 85.1927 489.028 85.1902 489.214C85.2188 489.474 85.2327 489.723 85.2424 489.957C85.31 490.101 85.0815 490.116 84.9585 490.175L84.5514 490.307C83.9213 490.522 83.3596 490.571 82.66 490.746C82.188 490.842 81.9045 490.755 81.6011 490.657C80.39 490.227 79.2326 489.842 78.1003 489.32C76.5611 488.624 75.1762 487.639 73.9637 486.481C73.4827 486.034 73.0632 485.519 72.6533 485.015C71.3941 483.408 70.4438 481.595 69.7567 479.713C69.6221 479.342 69.4877 478.965 69.3259 478.613C69.1265 478.206 68.9586 477.791 68.8388 477.354C68.7081 476.926 68.6144 476.485 68.5471 476.036C68.3725 474.97 68.1083 473.928 67.9028 472.859C67.8577 472.613 67.7821 472.359 67.7786 472.111C67.7746 470.369 67.6486 468.597 68.0379 466.851C68.357 465.446 68.9361 464.095 69.6926 462.87C70.2551 461.911 71.0361 461.081 71.8011 460.332C71.851 460.284 71.8865 460.219 71.9363 460.171C72.1622 459.969 72.3586 459.895 72.4833 459.961C72.6025 460.031 72.8107 460.087 72.89 460.361C73.0334 460.831 72.9308 461.268 72.615 461.65L72.0808 462.275L71.5908 462.934L71.6486 462.995Z" fill="#CFE2F4"/>
<path d="M1275.04 109.182L1277.3 110.168C1277.39 110.209 1277.49 110.199 1277.57 110.143L1281.21 107.721C1281.25 107.697 1281.28 107.665 1281.3 107.628C1285.78 100.286 1290.25 92.7046 1294.71 84.8799C1300.25 75.1467 1305.46 65.5733 1310.35 56.1831C1312.35 52.3566 1311.27 47.6392 1307.81 45.067C1304.7 42.7578 1301.24 40.4039 1297.41 38.1085C1294.82 36.5519 1292.29 35.1531 1289.84 33.8993C1285.61 31.7297 1280.41 33.299 1278.1 37.4613C1268.24 55.2687 1258.38 73.0762 1248.51 90.885C1248.44 91.0177 1248.48 91.1834 1248.61 91.2697L1274.99 109.154C1275.01 109.168 1275.02 109.177 1275.04 109.182Z" fill="white"/>
<path d="M1281.66 105.806C1283 103.695 1284.34 101.549 1285.7 99.4779C1286.91 97.6255 1288.11 95.8156 1289.15 93.807C1289.42 93.29 1289.77 92.7606 1290.08 92.2337C1290.64 91.2789 1291.2 90.3204 1291.75 89.3656C1292 88.928 1292.21 88.4347 1292.47 88.0445C1293.11 87.0832 1293.72 86.112 1294.31 85.1273C1294.9 84.1381 1295.44 83.1218 1295.95 82.0838C1296.98 80.6011 1297.74 78.9942 1298.58 77.3919C1299.41 75.7873 1300.33 74.1949 1301.08 72.5694C1301.28 72.1372 1301.53 71.6531 1301.78 71.2465C1303.3 68.7528 1304.64 66.1641 1305.99 63.5607C1306.72 62.1629 1307.46 60.7778 1308.21 59.404L1309.36 57.35C1309.74 56.6654 1310.15 55.9892 1310.48 55.3172C1311.15 53.8473 1311.36 52.0658 1311 50.4311C1310.61 48.4752 1309.48 46.6966 1307.93 45.4774C1305.59 43.7194 1303.13 42.0958 1300.63 40.6066C1297.26 38.6242 1293.8 36.7537 1290.29 35.0167L1289.61 34.6828C1289.39 34.568 1289.19 34.4926 1288.98 34.3905C1288.77 34.2834 1288.55 34.2233 1288.33 34.1463L1288.01 34.0303L1287.67 33.9504C1286.78 33.7246 1285.84 33.6473 1284.92 33.7355C1283.07 33.9154 1281.29 34.7542 1279.97 36.0838C1279.63 36.4112 1279.34 36.7797 1279.07 37.1586L1278.69 37.7525L1278.31 38.4107L1276.81 41.0566C1275.31 43.7107 1273.84 46.3946 1272.38 49.0735C1271.04 51.5847 1269.7 54.0886 1268.35 56.5999L1256.3 78.8593C1255.34 80.6499 1254.39 82.4308 1253.43 84.2213C1252.95 85.1136 1252.46 86.0029 1251.96 86.8861L1249.77 90.7805C1249.77 90.7878 1249.76 90.8002 1249.77 90.8069L1249.78 90.8174L1249.78 90.8219L1249.88 90.8946L1251.22 91.8125L1253.89 93.6385L1267.26 102.72C1269.78 104.443 1272.29 106.175 1274.87 107.785C1275.23 108.012 1275.46 108.183 1275.55 108.297C1275.36 108.614 1275.27 108.749 1275.17 108.92C1275.79 108 1275.35 108.663 1275.49 108.461L1275.46 108.465C1275.44 108.463 1275.42 108.465 1275.39 108.465C1274.74 108.455 1274.16 108.516 1272.83 107.869C1271.93 107.433 1271.11 107.007 1270.12 106.27C1268.68 105.205 1267.03 104.29 1265.7 103.121C1265.51 102.956 1265.21 102.763 1264.96 102.609C1260.47 99.8614 1256.17 96.788 1251.82 93.8025L1249.81 92.4542L1248.72 91.7362C1248.61 91.6626 1248.5 91.5854 1248.41 91.5039C1248.32 91.4224 1248.23 91.3469 1248.2 91.2181C1248.15 91.0966 1248.16 90.9661 1248.21 90.8582C1248.25 90.7458 1248.3 90.6283 1248.36 90.5102L1248.57 90.1253L1250.2 87.1814C1250.99 85.7608 1251.81 84.356 1252.58 82.9256C1253.16 81.8493 1253.68 80.7766 1254.4 79.91C1254.55 79.7303 1254.85 79.1584 1254.92 78.9363C1255.17 78.0834 1255.68 77.2054 1256.18 76.3244L1260.19 69.1734C1261.17 67.4023 1262.13 65.6154 1263.06 63.8305C1264.5 61.0519 1265.94 58.2842 1267.38 55.5033C1268.6 53.1876 1269.86 50.8797 1271.1 48.5657C1271.39 48.0312 1271.64 47.4838 1271.93 46.9552C1272.46 45.975 1272.99 44.9283 1273.56 44.0459C1274.19 43.0646 1274.64 42.2782 1275.01 41.2562C1275.21 40.6817 1275.69 39.8506 1276.08 39.1727C1276.33 38.7411 1276.59 38.3162 1276.86 37.8936C1277.13 37.4695 1277.37 37.0681 1277.7 36.6181C1278.46 35.5749 1279.32 34.7608 1280.36 33.8647C1280.5 33.738 1280.67 33.6175 1280.85 33.5082C1281.03 33.3989 1281.22 33.2787 1281.43 33.177C1281.84 32.9878 1282.27 32.8076 1282.68 32.7046C1283.56 32.4507 1284.48 32.2983 1285.4 32.2928C1286.31 32.285 1287.23 32.3665 1288.12 32.6128C1288.34 32.6597 1288.56 32.7331 1288.77 32.8101C1288.98 32.8908 1289.21 32.9436 1289.42 33.0448L1290.04 33.3243C1290.25 33.4182 1290.43 33.5192 1290.63 33.6137L1292.93 34.7987C1297.08 36.9688 1301.13 39.3325 1305.04 41.9438C1305.8 42.4559 1306.56 42.9826 1307.31 43.5166L1308.43 44.3346L1309.03 44.8122C1309.22 44.9797 1309.4 45.1618 1309.58 45.3344C1310.13 45.9044 1310.63 46.524 1311.02 47.2132C1311.42 47.8922 1311.73 48.6284 1311.95 49.3857C1312.19 50.1425 1312.29 50.9316 1312.33 51.7179C1312.36 52.5083 1312.29 53.2976 1312.14 54.0756C1311.95 54.8438 1311.73 55.6077 1311.36 56.3073C1311.19 56.6823 1311.02 56.9629 1310.86 57.2841L1310.35 58.2263L1308.32 61.9882C1307.79 62.9721 1307.24 63.9661 1306.75 64.9565C1305.63 67.2438 1304.4 69.4665 1303.13 71.6672C1301.6 74.3202 1300.19 77.0188 1298.77 79.7166C1298.44 80.3421 1298.12 80.9898 1297.77 81.5958C1296.52 83.7047 1295.34 85.8378 1294.11 87.9498C1292.89 90.0649 1291.68 92.1867 1290.42 94.2807C1288.39 97.6678 1286.3 101.013 1284.23 104.367L1283.03 106.285L1282.44 107.241L1282.14 107.718L1282.06 107.839C1282.03 107.877 1281.99 107.962 1281.95 108.016C1281.9 108.075 1281.84 108.132 1281.79 108.185L1281.75 108.226C1281.75 108.24 1281.72 108.232 1281.74 108.256L1281.72 108.274L1281.63 108.343L1279.62 109.6L1278.65 110.213L1278.08 110.574C1277.95 110.657 1277.82 110.729 1277.69 110.77C1277.55 110.811 1277.4 110.811 1277.27 110.776C1277.18 110.753 1277.09 110.728 1277 110.687L1276.69 110.559C1276.63 110.531 1276.57 110.506 1276.5 110.477C1274.94 109.736 1274.54 109.283 1275.44 109.253C1275.69 109.246 1275.98 109.266 1276.3 109.319C1276.46 109.347 1276.62 109.383 1276.8 109.425C1276.97 109.466 1277.19 109.538 1277.25 109.539C1277.31 109.542 1277.36 109.567 1277.41 109.555C1277.47 109.544 1277.51 109.488 1277.55 109.455L1277.62 109.402C1277.67 109.364 1277.73 109.326 1277.78 109.285C1277.9 109.208 1278.01 109.129 1278.14 109.048L1280.81 107.309C1280.84 107.292 1280.87 107.266 1280.89 107.237L1280.97 107.097L1281.22 106.685L1281.72 105.856L1281.66 105.806Z" fill="#CFE2F4"/>
<path d="M1276.35 43.6402C1276.78 43.8517 1277.22 44.0317 1277.62 44.2858C1277.99 44.5055 1278.34 44.7353 1278.77 44.747C1278.89 44.7513 1278.99 44.8108 1279.1 44.8452C1279.29 44.9087 1279.49 44.9781 1279.69 45.0306C1279.78 45.056 1279.89 45.0182 1279.97 45.067C1280.33 45.3213 1280.72 45.4948 1281.17 45.5229C1281.42 45.7966 1281.77 45.7984 1282.1 45.8724C1282.43 45.95 1282.73 46.1099 1283.09 46.1185C1283.19 46.1211 1283.29 46.1473 1283.36 46.202C1283.81 46.5429 1284.32 46.7046 1284.83 46.8987C1285.39 47.0984 1285.9 47.3965 1286.35 47.7824C1286.59 47.9911 1286.88 48.1347 1287.17 48.2737L1288.2 48.7416C1288.69 48.9768 1289.18 49.2039 1289.72 49.3709C1290.43 49.5997 1291.13 49.8609 1291.8 50.183C1292.14 50.3426 1292.44 50.5897 1292.75 50.8175C1293.34 51.2892 1293.94 51.7595 1294.53 52.2312C1294.99 52.5765 1295.46 52.9 1295.93 53.2197C1296.37 53.5141 1296.83 53.7902 1297.26 54.0992C1298.55 55.015 1299.8 55.9908 1301.02 57.012C1301.31 57.2618 1301.61 57.4896 1301.91 57.7321C1302.05 57.857 1302.19 57.9906 1302.32 58.1279C1302.81 58.6367 1303.28 59.169 1303.76 59.6866C1304.44 60.4308 1305.12 61.1824 1305.77 61.9565C1306.13 62.4019 1306.48 62.8574 1306.93 63.2329C1307.05 63.337 1307.01 63.4353 1306.81 63.5201C1306.46 63.6614 1306.12 63.8337 1305.79 63.7598C1305.56 63.7107 1305.37 63.6435 1305.27 63.4394C1305.11 63.1381 1304.77 62.9799 1304.72 62.5935C1304.72 62.5388 1304.67 62.4977 1304.62 62.4647C1303.81 61.8886 1303.25 61.0921 1302.6 60.3645C1302.39 60.131 1302.14 59.9274 1301.91 59.7101C1301.76 59.5638 1301.62 59.4271 1301.47 59.2771C1301.26 59.0637 1301.08 58.8232 1300.85 58.6309C1300.68 58.4843 1300.47 58.3831 1300.47 58.0894C1300.47 58.0274 1300.37 57.9555 1300.31 57.9614C1300.06 57.9954 1299.94 57.8516 1299.81 57.7217C1299.44 57.3766 1299.1 57.0045 1298.71 56.6842C1298.43 56.4448 1298.13 56.2193 1297.82 56.0216C1297.33 55.7134 1296.82 55.4331 1296.33 55.1381C1295.91 54.8891 1295.53 54.5984 1295.12 54.3458C1295.03 54.2871 1294.91 54.2541 1294.82 54.1918C1294.65 54.0784 1294.46 53.9913 1294.34 53.821C1294.21 53.6358 1294.09 53.5281 1293.83 53.559C1293.68 53.575 1293.55 53.4665 1293.44 53.3701C1293.3 53.246 1293.19 53.0876 1293.08 52.9328C1292.95 52.749 1292.83 52.5684 1292.56 52.5505C1292.42 52.54 1292.3 52.4095 1292.21 52.2934C1291.81 51.7693 1291.25 51.4634 1290.7 51.1765C1289.93 50.8031 1289.14 50.4686 1288.36 50.1386C1288.05 50.0015 1287.75 49.8571 1287.45 49.7127C1286.52 49.2651 1285.61 48.7676 1284.7 48.2752C1284.52 48.1802 1284.34 48.0793 1284.14 48.0327C1283.69 47.919 1283.27 47.7274 1282.87 47.4852C1282.38 47.2066 1281.84 47.0638 1281.3 46.9365C1281.17 46.9077 1281.03 46.9017 1280.92 46.8414C1280.12 46.433 1279.23 46.309 1278.4 46.002C1277.73 45.7552 1277.08 45.4444 1276.41 45.1688C1275.89 44.9533 1275.38 44.7245 1274.86 44.5105C1274.83 44.4961 1274.79 44.5036 1274.75 44.4893C1274.46 44.359 1274.42 44.087 1274.66 43.7453C1274.87 43.4452 1275.13 43.3021 1275.41 43.3792C1275.72 43.4647 1276.03 43.5804 1276.33 43.6828L1276.35 43.6402Z" fill="#CFE2F4"/>
<path d="M1301.44 69.16C1301.23 68.7414 1301 68.3308 1300.8 67.8984C1300.63 67.5106 1300.47 67.125 1300.1 66.8802C1300.01 66.8179 1299.95 66.7088 1299.88 66.6231C1299.75 66.4667 1299.61 66.3116 1299.47 66.1639C1299.41 66.0982 1299.29 66.0703 1299.25 65.9916C1299.06 65.5889 1298.79 65.2559 1298.41 65.0287C1298.31 64.6682 1297.99 64.5162 1297.72 64.3109C1297.45 64.102 1297.24 63.8339 1296.91 63.6928C1296.82 63.6542 1296.74 63.595 1296.7 63.5155C1296.41 63.0327 1295.98 62.7045 1295.56 62.3602C1295.11 61.9957 1294.7 61.5793 1294.36 61.0818C1294.18 60.8222 1293.93 60.6163 1293.68 60.415C1293.39 60.1675 1293.06 59.9777 1292.76 59.7558C1292.32 59.4253 1291.85 59.1389 1291.35 58.9124C1290.68 58.5985 1290 58.3043 1289.36 57.9597C1289.02 57.7986 1288.74 57.5511 1288.44 57.3278C1287.84 56.8826 1287.24 56.4337 1286.61 56.0302C1286.13 55.7346 1285.64 55.4671 1285.13 55.2324C1284.66 55.0034 1284.16 54.8316 1283.67 54.6304C1282.24 54.0265 1280.79 53.4866 1279.32 53.0239C1278.96 52.9172 1278.6 52.8215 1278.25 52.7318C1278.07 52.6832 1277.89 52.6251 1277.72 52.5597C1277.08 52.325 1276.43 52.088 1275.77 51.8907C1274.83 51.6083 1273.88 51.3692 1272.92 51.1434C1272.38 51.0161 1271.83 50.8733 1271.27 50.8889C1271.11 50.8922 1271.08 50.7871 1271.17 50.5963C1271.33 50.2633 1271.48 49.913 1271.79 49.7514C1272 49.6424 1272.19 49.5687 1272.41 49.6671C1272.72 49.8087 1273.1 49.7209 1273.38 50.0059C1273.42 50.0463 1273.48 50.0522 1273.54 50.0514C1274.56 50.0352 1275.49 50.4097 1276.43 50.7209C1276.74 50.8197 1277.06 50.8773 1277.37 50.9664C1277.57 51.0249 1277.78 51.0833 1277.97 51.1549C1278.26 51.2616 1278.54 51.3925 1278.83 51.4726C1279.05 51.5327 1279.29 51.5494 1279.41 51.8172C1279.44 51.8736 1279.55 51.9052 1279.61 51.8697C1279.83 51.7424 1280 51.827 1280.18 51.9006L1281.59 52.5183C1281.94 52.667 1282.3 52.7804 1282.67 52.8938C1283.23 53.0693 1283.82 53.2082 1284.37 53.4138C1284.84 53.5772 1285.29 53.7927 1285.75 53.9935C1285.86 54.0397 1285.97 54.0559 1286.08 54.1058C1286.27 54.1944 1286.49 54.2581 1286.63 54.4191C1286.78 54.595 1286.92 54.6926 1287.19 54.6388C1287.34 54.6096 1287.49 54.708 1287.61 54.7943C1287.77 54.9045 1287.9 55.0646 1288.02 55.2166C1288.17 55.3998 1288.3 55.5777 1288.58 55.5905C1288.73 55.5996 1288.86 55.7213 1288.95 55.842C1289.38 56.3722 1289.94 56.6923 1290.51 57.0169L1291.67 57.6627L1292.82 58.34C1293.12 58.5227 1293.39 58.7384 1293.67 58.9409C1294.55 59.5789 1295.34 60.323 1296.11 61.0858C1296.26 61.2344 1296.4 61.394 1296.58 61.5104C1296.99 61.7786 1297.34 62.116 1297.63 62.5053C1298 62.9625 1298.45 63.3234 1298.91 63.6903C1299.01 63.7748 1299.14 63.8442 1299.22 63.9499C1299.78 64.7023 1300.53 65.271 1301.1 66.0146C1301.56 66.6117 1301.95 67.2603 1302.33 67.9066C1302.63 68.4044 1302.9 68.9225 1303.17 69.4346C1303.18 69.471 1303.22 69.4935 1303.24 69.524C1303.38 69.8244 1303.23 70.0507 1302.83 70.15C1302.47 70.2358 1302.18 70.1816 1302.02 69.9414C1301.84 69.6804 1301.67 69.4047 1301.5 69.1386L1301.44 69.16Z" fill="#CFE2F4"/>
<path d="M1279.43 56.0697C1279.12 56.4343 1278.83 56.816 1278.49 57.1625C1278.19 57.4718 1277.89 57.7656 1277.78 58.1981C1277.75 58.3078 1277.67 58.3968 1277.61 58.4979C1277.51 58.6782 1277.4 58.86 1277.31 59.0448C1277.27 59.1299 1277.28 59.2525 1277.21 59.3145C1276.89 59.6317 1276.65 59.9866 1276.55 60.4296C1276.23 60.6414 1276.17 60.9911 1276.05 61.3084C1275.92 61.6293 1275.71 61.9124 1275.66 62.2667C1275.64 62.3616 1275.6 62.4549 1275.54 62.5205C1275.14 62.9298 1274.91 63.4288 1274.67 63.9247C1274.4 64.4595 1274.07 64.9455 1273.64 65.381C1273.42 65.61 1273.25 65.8988 1273.1 66.1766C1272.91 66.5094 1272.76 66.8646 1272.58 67.2041C1272.31 67.6947 1272.08 68.1951 1271.9 68.7339C1271.67 69.449 1271.4 70.1534 1271.11 70.8457C1270.96 71.1973 1270.72 71.5044 1270.51 71.82C1270.08 72.4561 1269.63 73.0765 1269.21 73.7217C1268.9 74.208 1268.63 74.7109 1268.36 75.2242C1268.12 75.7024 1267.91 76.1957 1267.66 76.6761C1266.94 78.0953 1266.21 79.5078 1265.48 80.9247C1265.3 81.2665 1265.15 81.6181 1264.98 81.9622C1264.9 82.1323 1264.8 82.3017 1264.7 82.4628C1264.33 83.0671 1263.95 83.6647 1263.59 84.2699C1263.07 85.1433 1262.57 86.028 1262.05 86.8992C1261.75 87.3945 1261.44 87.8785 1261.26 88.4319C1261.2 88.5877 1261.09 88.5857 1260.94 88.4276C1260.69 88.1575 1260.41 87.899 1260.36 87.5568C1260.33 87.324 1260.32 87.1166 1260.48 86.9437C1260.72 86.6904 1260.75 86.3012 1261.1 86.1238C1261.15 86.0993 1261.18 86.034 1261.19 85.981C1261.47 85.0001 1262.08 84.2022 1262.61 83.3584C1262.78 83.0801 1262.91 82.7805 1263.06 82.4909C1263.16 82.3047 1263.26 82.1207 1263.37 81.9412C1263.53 81.6812 1263.72 81.431 1263.86 81.1574C1263.96 80.9483 1264.01 80.7232 1264.3 80.6484C1264.36 80.6343 1264.41 80.5213 1264.39 80.4613C1264.3 80.2197 1264.42 80.0676 1264.52 79.9028C1264.79 79.4633 1265.08 79.035 1265.33 78.5901C1265.52 78.2574 1265.68 77.9125 1265.83 77.5609C1266.07 77.0117 1266.26 76.4496 1266.5 75.9049C1266.7 75.4513 1266.94 75.0166 1267.15 74.5683C1267.2 74.4626 1267.22 74.3448 1267.28 74.2451C1267.37 74.0566 1267.44 73.8428 1267.6 73.7081C1267.77 73.5574 1267.88 73.4177 1267.83 73.1544C1267.8 73.0073 1267.9 72.8557 1267.99 72.738C1268.1 72.5859 1268.25 72.4563 1268.4 72.3303C1268.58 72.1782 1268.75 72.0394 1268.76 71.7694C1268.76 71.6249 1268.89 71.4891 1269 71.3893C1269.5 70.9392 1269.81 70.3681 1270.09 69.7781C1270.46 68.9768 1270.8 68.1611 1271.17 67.3611C1271.31 67.0456 1271.48 66.7435 1271.64 66.4392C1272.14 65.4889 1272.72 64.5845 1273.31 63.6846C1273.42 63.5074 1273.55 63.3311 1273.62 63.1327C1273.78 62.672 1274.04 62.27 1274.33 61.8846C1274.68 61.4231 1274.91 60.8909 1275.13 60.3541C1275.18 60.2293 1275.21 60.0909 1275.29 59.9841C1275.84 59.235 1276.14 58.3525 1276.64 57.5754C1277.04 56.9463 1277.5 56.3556 1277.94 55.758C1278.29 55.2943 1278.65 54.8455 1279.01 54.3885C1279.03 54.3578 1279.04 54.3158 1279.06 54.2851C1279.28 54.0316 1279.55 54.0672 1279.81 54.3993C1280.04 54.6882 1280.1 54.976 1279.95 55.2287C1279.78 55.5071 1279.59 55.7705 1279.41 56.0443C1279.41 56.0517 1279.42 56.0607 1279.43 56.0697Z" fill="#CFE2F4"/>
<path d="M1275.91 94.2805C1276.22 93.9086 1276.51 93.5173 1276.86 93.1635C1277.16 92.8505 1277.47 92.5457 1277.58 92.1073C1277.61 91.994 1277.69 91.905 1277.75 91.8038C1277.85 91.6199 1277.96 91.4344 1278.06 91.2459C1278.1 91.1608 1278.09 91.0346 1278.16 90.969C1278.48 90.6445 1278.73 90.2821 1278.84 89.8318C1279.15 89.6164 1279.22 89.2594 1279.35 88.9348C1279.48 88.6102 1279.69 88.3197 1279.75 87.9618C1279.77 87.8669 1279.81 87.7699 1279.87 87.7006C1280.27 87.284 1280.51 86.774 1280.76 86.2672C1281.03 85.7251 1281.37 85.2258 1281.8 84.7815C1282.03 84.5452 1282.2 84.2528 1282.36 83.9676C1282.55 83.6276 1282.71 83.2686 1282.89 82.9217C1283.16 82.4202 1283.4 81.9103 1283.58 81.3642C1283.82 80.6344 1284.09 79.9167 1284.4 79.2194C1284.55 78.8641 1284.79 78.5474 1285.01 78.2268C1285.44 77.5796 1285.9 76.9424 1286.32 76.2862C1286.63 75.7926 1286.91 75.2764 1287.18 74.758C1287.44 74.2725 1287.65 73.7659 1287.9 73.2782C1288.64 71.8334 1289.38 70.393 1290.12 68.9482C1290.3 68.6028 1290.45 68.2438 1290.63 67.8925C1290.72 67.7186 1290.81 67.5493 1290.91 67.3808C1291.29 66.7655 1291.68 66.1569 1292.05 65.5348C1292.58 64.6468 1293.09 63.7438 1293.61 62.8557C1293.91 62.3531 1294.23 61.8558 1294.42 61.2973C1294.48 61.1378 1294.59 61.1398 1294.74 61.298C1294.99 61.5681 1295.27 61.8266 1295.32 62.1783C1295.35 62.4148 1295.36 62.6258 1295.19 62.8025C1294.95 63.0594 1294.92 63.4581 1294.56 63.6428C1294.51 63.6673 1294.49 63.7327 1294.47 63.7894C1294.18 64.7871 1293.56 65.5974 1293.03 66.4618C1292.86 66.7438 1292.72 67.0506 1292.57 67.3439C1292.47 67.5338 1292.36 67.7215 1292.25 67.9046C1292.09 68.1742 1291.9 68.4222 1291.76 68.7031C1291.65 68.9158 1291.6 69.1446 1291.3 69.2231C1291.24 69.2408 1291.19 69.3502 1291.21 69.4139C1291.3 69.6554 1291.18 69.8149 1291.08 69.9797C1290.81 70.4265 1290.52 70.8644 1290.26 71.3202C1290.06 71.6567 1289.9 72.0088 1289.74 72.3678C1289.5 72.9243 1289.3 73.4974 1289.06 74.0553C1288.86 74.5163 1288.62 74.9643 1288.4 75.4139C1288.35 75.5196 1288.32 75.641 1288.27 75.7444C1288.17 75.9366 1288.1 76.1542 1287.94 76.2925C1287.76 76.4468 1287.66 76.5902 1287.7 76.8571C1287.73 77.0042 1287.63 77.1594 1287.54 77.2809C1287.42 77.4367 1287.27 77.5699 1287.12 77.6995C1286.94 77.8552 1286.76 77.9978 1286.75 78.2714C1286.75 78.4196 1286.62 78.5554 1286.51 78.6611C1286 79.1222 1285.68 79.7006 1285.41 80.3016C1285.03 81.1139 1284.68 81.9443 1284.3 82.7648C1284.16 83.084 1283.99 83.3934 1283.82 83.705C1283.31 84.6736 1282.72 85.5927 1282.12 86.5131C1282 86.694 1281.88 86.874 1281.81 87.0724C1281.64 87.5404 1281.38 87.9498 1281.08 88.3425C1280.72 88.815 1280.5 89.3568 1280.27 89.9009C1280.22 90.0257 1280.19 90.1677 1280.11 90.2745C1279.55 91.0383 1279.24 91.9354 1278.74 92.7294C1278.33 93.3695 1277.86 93.9749 1277.41 94.5857C1277.06 95.0567 1276.69 95.5165 1276.33 95.9831C1276.31 96.0138 1276.3 96.0557 1276.28 96.0865C1276.06 96.3473 1275.79 96.3117 1275.54 95.9819C1275.31 95.6893 1275.24 95.3979 1275.4 95.1452C1275.57 94.8609 1275.76 94.5901 1275.95 94.3149C1275.94 94.3008 1275.93 94.2918 1275.91 94.2805Z" fill="#CFE2F4"/>
<path d="M1257.93 120.216C1254.56 121.939 1250.52 119.673 1250.24 115.897L1248.41 91.3583C1248.39 91.2202 1248.48 91.0929 1248.62 91.0546L1260.14 87.8118C1260.3 87.7642 1260.47 87.8657 1260.51 88.0255L1263.29 100.024C1263.32 100.193 1263.5 100.288 1263.67 100.233L1275.24 96.2008C1275.41 96.1409 1275.6 96.2559 1275.63 96.4377L1277.92 109.586C1277.94 109.708 1257.93 120.216 1257.93 120.216Z" fill="white"/>
<path d="M1253.07 120.872C1252.41 120.541 1251.83 120.063 1251.35 119.517C1251.1 119.251 1250.92 118.939 1250.72 118.642C1250.57 118.319 1250.39 118.007 1250.3 117.663C1250.1 117.071 1250.05 116.45 1250.01 115.852C1250 115.272 1249.95 114.686 1249.85 114.092C1249.79 113.785 1249.8 113.45 1249.77 113.131L1249.63 111.38C1249.6 111.113 1249.51 110.838 1249.51 110.594C1249.54 109.368 1249.48 108.156 1249.26 106.948C1249.36 105.985 1249.17 105.061 1249.05 104.111C1248.92 103.162 1248.89 102.189 1248.69 101.254C1248.64 101.006 1248.6 100.721 1248.61 100.467C1248.63 98.9199 1248.47 97.3834 1248.31 95.8345C1248.25 95.1469 1248.19 94.4528 1248.16 93.7618L1248.11 92.7247L1248.09 91.5926C1248.09 91.4134 1248.09 91.2534 1248.15 91.0998C1248.21 90.9375 1248.37 90.8457 1248.53 90.8114C1248.78 90.7368 1249.1 90.68 1249.3 90.6285C1249.52 90.5764 1249.74 90.5207 1249.96 90.4664C1250.39 90.3468 1250.83 90.2235 1251.27 90.1039C1252.31 89.8113 1253.33 89.4771 1254.36 89.1726C1255.86 88.7319 1257.34 88.268 1258.8 87.7368L1259.2 87.591C1259.4 87.5254 1259.59 87.4576 1259.79 87.392C1259.94 87.3422 1260.1 87.3174 1260.24 87.3028C1260.38 87.286 1260.53 87.3092 1260.66 87.3904C1260.8 87.4724 1260.88 87.5868 1260.94 87.7049C1261.02 87.8312 1261.08 87.9795 1261.12 88.1475L1261.26 88.6463L1261.36 88.9794L1261.54 89.6257C1261.79 90.4896 1262.03 91.3571 1262.28 92.2232C1262.57 93.2468 1262.76 94.3144 1262.98 95.3631L1263.61 98.5193L1263.7 98.9127L1263.72 99.0562L1263.74 99.1345L1263.76 99.2971C1263.77 99.3481 1263.77 99.416 1263.82 99.4513C1263.87 99.4902 1263.93 99.4702 1263.98 99.4553L1264.14 99.4077L1264.35 99.3453L1264.73 99.2169C1266.26 98.7094 1267.78 98.1627 1269.3 97.6093L1273.52 96.0116L1274.85 95.5268C1275.06 95.4525 1275.25 95.4371 1275.42 95.4405C1275.58 95.4372 1275.77 95.4888 1275.93 95.6013C1276.1 95.7184 1276.17 95.8447 1276.26 96.005C1276.35 96.1654 1276.4 96.3785 1276.43 96.5981L1276.77 98.3505L1277.35 101.37L1278.51 107.408L1278.89 109.29C1278.93 109.427 1278.89 109.526 1278.88 109.639L1278.83 109.97L1278.82 109.989L1278.82 109.993C1278.95 110.053 1278.65 109.912 1278.68 109.93L1278.68 109.934L1278.67 109.941L1278.66 109.976L1278.62 110.047L1278.55 110.185C1278.52 110.283 1278.43 110.365 1278.33 110.45C1278.24 110.531 1278.16 110.622 1278.06 110.698L1277.74 110.885L1277.39 111.088C1276.91 111.359 1276.44 111.613 1275.97 111.862L1270.67 114.614L1263.1 118.59C1261.66 119.337 1260.22 120.061 1258.85 120.911C1258.47 121.15 1258.29 121.132 1258.34 120.872C1258.44 120.419 1258.47 119.983 1259.05 119.435C1259.45 119.062 1259.83 118.737 1260.43 118.481C1261.3 118.108 1262.11 117.498 1263.03 117.257C1263.16 117.223 1263.33 117.125 1263.46 117.04C1265.8 115.529 1268.33 114.34 1270.82 113.059C1271.63 112.638 1272.41 112.179 1273.22 111.738L1274.78 110.9C1275.54 110.5 1276.32 110.125 1277.06 109.696C1277.16 109.635 1277.26 109.574 1277.35 109.517C1277.43 109.456 1277.58 109.427 1277.52 109.302C1277.49 109.099 1277.5 108.919 1277.54 108.574C1277.57 108.447 1277.5 108.11 1277.43 108.002C1277.16 107.582 1277.08 107.052 1277 106.525C1276.76 105.098 1276.55 103.667 1276.3 102.243C1276.11 101.189 1275.9 100.137 1275.67 99.0969L1275.27 97.3644C1275.23 97.2119 1275.19 97.0713 1275.15 96.9476C1275.11 96.8867 1275.02 96.8613 1274.96 96.8959L1274.76 96.9902C1274.68 97.0395 1274.15 97.2496 1273.75 97.4072C1272.46 97.9168 1271.15 98.3841 1269.85 98.8751C1269.55 98.9874 1269.27 99.1302 1268.96 99.2425C1268.41 99.4463 1267.84 99.6935 1267.29 99.8111C1266.69 99.9428 1266.23 100.086 1265.75 100.437C1265.62 100.535 1265.43 100.623 1265.22 100.703C1265.12 100.743 1265.02 100.778 1264.91 100.815C1264.75 100.866 1264.59 100.923 1264.44 100.972C1264.2 101.043 1263.96 101.145 1263.74 101.16C1263.51 101.171 1263.35 101.149 1263.16 101.075C1262.97 100.998 1262.79 100.847 1262.7 100.7C1262.6 100.552 1262.51 100.357 1262.47 100.129C1262.43 99.8608 1262.39 99.5962 1262.34 99.3338C1262.33 99.1816 1262.3 99.0308 1262.28 98.8778C1262.22 98.5754 1262.14 98.2727 1262 97.9649C1261.85 97.6312 1261.78 97.136 1261.74 96.7305C1261.53 94.9339 1261.11 93.1656 1260.64 91.4073L1260.09 89.3735L1260.02 89.1182L1259.99 88.9916C1259.98 88.9561 1259.98 88.9597 1259.97 88.9397L1259.92 88.7901C1259.9 88.7464 1259.88 88.6923 1259.82 88.6945C1259.76 88.7013 1259.72 88.7339 1259.67 88.7511L1259.57 88.7965L1259.2 88.9161L1258.45 89.1618L1256.93 89.6473C1256.01 89.9406 1255.08 90.2094 1254.14 90.4841C1253.16 90.7788 1252.16 91.0616 1251.16 91.3362L1249.67 91.7446L1249.48 91.7955L1249.46 91.7975L1249.42 91.8051C1249.38 91.8076 1249.38 91.8459 1249.38 91.8733L1249.52 94.4349C1249.55 95.0248 1249.58 95.6279 1249.66 96.2028C1249.84 97.5404 1249.92 98.8781 1249.96 100.22C1250.01 101.841 1250.2 103.439 1250.4 105.04C1250.44 105.411 1250.51 105.788 1250.53 106.157C1250.62 108.743 1250.99 111.3 1251.14 113.876L1251.23 115.439L1251.25 115.828L1251.28 116.146C1251.28 116.361 1251.34 116.565 1251.39 116.774C1251.58 117.6 1252.05 118.362 1252.71 118.948C1253.72 119.856 1255.17 120.315 1256.57 120.062C1256.66 120.041 1256.75 119.997 1256.84 119.976C1257.04 119.944 1257.21 119.899 1257.34 119.876C1257.48 119.855 1257.59 119.863 1257.68 119.89C1257.84 119.947 1257.9 120.101 1257.77 120.364C1257.66 120.59 1257.49 120.848 1257.19 121.015C1257.05 121.103 1256.88 121.198 1256.69 121.259C1256.5 121.314 1256.29 121.358 1256.06 121.39C1255.04 121.483 1254.01 121.262 1253.1 120.827L1253.07 120.872Z" fill="#CFE2F4"/>
<path d="M1250.24 115.893C1250.52 119.669 1254.55 121.939 1257.93 120.212L1263.8 117.206C1263.93 117.142 1263.99 116.995 1263.95 116.861C1263.67 115.995 1262.58 113.239 1258.21 110.547C1255.11 108.643 1251.98 108.251 1249.98 108.146C1249.81 108.138 1249.67 108.284 1249.68 108.459L1250.24 115.893Z" fill="#CFE2F4"/>
</svg>
