<svg width="95" height="49" viewBox="0 0 95 49" fill="none" xmlns="http://www.w3.org/2000/svg">
<g clip-path="url(#clip0)">
<rect x="-851" y="-2346" width="1440" height="10420" />
<g filter="url(#filter0_d)">
<rect x="-850" y="-282" width="1440" height="2136" />
</g>
<g filter="url(#filter1_d)">
<rect x="-160" y="88" width="245" height="68" rx="10" fill="white"/>
</g>
<path d="M13.5625 38.0214L1.35627 10.1166L93.1274 22.2692L75.5856 47.7054L13.5625 38.0214Z" fill="white"/>
<path d="M9.03003 29.7187C8.08695 27.2679 7.09751 24.8167 6.2058 22.3689C5.40637 20.187 4.6353 18.048 3.54015 15.941C3.25572 15.3982 3.0252 14.7736 2.76878 14.1938C2.24251 12.9999 1.71338 11.8109 1.18712 10.617C1.04866 10.3045 0.863264 9.95835 0.688595 9.60509C0.983917 9.62281 1.29915 9.65206 1.61784 9.70985C2.39071 9.84387 3.16068 9.98284 3.92857 10.114C4.52034 10.2165 5.11789 10.3091 5.71331 10.3938C6.90415 10.5632 8.10305 10.6841 9.315 10.7594C11.1531 11.2229 13.0164 11.3089 14.8972 11.4914C16.7858 11.6718 18.6853 11.9714 20.5673 12.0482C21.0659 12.0704 21.6322 12.125 22.1262 12.2243C25.1297 12.8092 28.1665 13.1409 31.2224 13.497C34.4957 13.8791 37.7473 14.368 40.9696 14.9996C42.6813 15.3369 44.4919 15.5719 46.2639 15.8045C48.3762 16.0808 50.4944 16.3007 52.6074 16.5641C55.6745 16.9467 58.7262 17.2871 61.7862 17.5326C65.8796 17.8633 69.9957 18.247 74.1094 18.6691C76.2019 18.8875 78.3174 19.2387 80.4174 19.5477L86.7157 20.5005C88.9405 20.8351 90.4057 21.0699 94.1886 21.5934L94.5209 21.6391C93.3891 23.2773 92.2523 24.9127 91.1177 26.5559C90.2385 27.8484 89.3644 29.1439 88.4881 30.4314C86.8417 32.915 85.1952 35.3986 83.5488 37.8822L76.1239 48.9131L61.6444 46.8173C59.5408 46.5261 57.4392 46.2427 55.3356 45.9515C54.2853 45.8034 53.2357 45.6424 52.1868 45.4686L40.5256 43.5651L23.8129 40.9306C20.65 40.4263 17.5014 39.8971 14.3313 39.5548C13.4427 39.4602 13.1773 39.2871 13.5515 39.0647C14.1932 38.6779 14.7259 38.2615 16.2831 38.2106C17.3364 38.1811 18.3182 38.1833 19.5778 38.4522C21.4048 38.8428 23.3895 38.9258 25.1643 39.4988C25.4173 39.5784 25.7881 39.6265 26.0984 39.6529C31.5873 40.1782 37.0255 41.2056 42.4822 42.0975C44.2661 42.3902 46.0618 42.6165 47.8501 42.8785L51.3255 43.417C53.0075 43.6906 54.6822 43.9999 56.3665 44.235C57.6364 44.4169 58.8804 44.5174 59.9815 44.9804C60.213 45.0742 60.8825 45.1685 61.1267 45.1367C62.0641 45.0203 63.1093 45.2119 64.1531 45.3828C66.9759 45.8435 69.8021 46.3327 72.6265 46.7677L74.1538 46.9985L75.3832 47.1702C75.9227 46.3392 76.4673 45.5111 77.004 44.6851C78.773 41.9202 80.5333 39.1703 82.3023 36.4054C83.796 34.1059 85.3502 31.8281 86.8667 29.5352C87.218 29.0073 87.5294 28.4564 87.8857 27.9314C88.5364 26.9653 89.1818 25.9165 89.877 25.069C90.2637 24.5949 90.596 24.1689 90.8905 23.7278C90.9214 23.6859 90.981 23.5941 90.9817 23.5813L91.0055 23.5286C91.0178 23.4958 91.0301 23.4631 91.0295 23.4295C91.0384 23.3682 91.0207 23.3181 90.968 23.2944C90.9203 23.2735 90.8926 23.2641 90.8805 23.2505C90.7948 23.2608 90.7749 23.2492 90.7321 23.2312C90.7043 23.2218 90.7051 23.209 90.6496 23.1902L89.8803 23.0384C89.3714 22.9305 88.8653 22.8177 88.3613 22.7127C87.153 22.4469 86.0296 22.1835 84.6918 22.1883C83.9754 22.1865 83.0044 22.0045 82.2132 21.8333C78.7245 21.0879 75.151 20.6388 71.5715 20.2462C66.7161 19.7279 61.8607 19.2097 57.0082 18.6865C55.1083 18.4796 53.1979 18.2335 51.2945 17.9982C45.3719 17.269 39.472 16.42 33.5678 15.5553C32.4105 15.3853 31.2333 15.2038 30.0871 15.1067C27.426 14.8722 24.8069 14.496 22.178 14.0676C19.0158 13.5505 15.842 13.2259 12.6704 12.9092C11.9301 12.8339 11.1775 12.7913 10.4574 12.6811C8.91794 12.4366 7.37409 12.2228 5.82661 12.0268L3.69785 11.7676C3.65646 11.7703 3.6379 11.7795 3.63214 11.7894C3.64632 11.8109 3.66335 11.8274 3.67331 11.8332C3.67829 11.836 3.68329 11.8389 3.68827 11.8418L3.72005 11.9133L3.8748 12.2551L5.07131 14.9917C6.68836 18.7949 8.22107 22.6291 9.76739 26.4512C10.9479 29.4112 12.1264 32.3633 13.302 35.3204C13.3803 35.5184 13.4851 35.7051 13.5634 35.9031C14.2223 37.5921 14.1387 38.2546 13.3228 37.6773C12.5959 37.1646 11.8718 36.1753 11.2249 34.6725L9.12509 29.6806L9.03003 29.7187Z" fill="#8ED8C8"/>
<path d="M89.8319 23.7665C88.8455 23.8414 87.8617 23.9575 86.8755 23.986C85.9977 24.0106 85.1357 24.031 84.2937 24.3619C84.0771 24.4494 83.8266 24.4576 83.5916 24.5079C83.1688 24.596 82.7389 24.6732 82.3154 24.7741C82.1218 24.8217 81.9385 24.9551 81.7502 24.9593C80.8368 24.9766 79.945 25.106 79.0914 25.4569C78.359 25.3794 77.7077 25.6676 77.0254 25.8715C76.343 26.0754 75.6234 26.1714 74.9713 26.4724C74.799 26.5523 74.5918 26.612 74.4034 26.6162C73.2438 26.6574 72.1365 26.9414 71.0172 27.2118C69.8193 27.5033 68.5998 27.6827 67.3553 27.7214C66.6945 27.7385 66.0289 27.8789 65.369 28.0094C64.5891 28.1636 63.8182 28.3828 63.0426 28.5527C61.9141 28.8046 60.8019 29.0858 59.7021 29.4605C58.2364 29.9627 56.7552 30.4228 55.2585 30.8406C54.4984 31.0527 53.6967 31.1412 52.9113 31.259C51.3376 31.4996 49.7584 31.7037 48.191 31.9679C47.0142 32.1653 45.8443 32.4198 44.6765 32.6822C43.5844 32.9285 42.5121 33.2327 41.4271 33.4897C38.2043 34.2395 34.9745 34.9787 31.7517 35.7285C30.9782 35.9063 30.2102 36.1205 29.4387 36.3062C29.0516 36.4015 28.6631 36.4761 28.2696 36.5478C26.8185 36.8061 25.3633 37.0486 23.9165 37.3226C21.8441 37.7137 19.7723 38.1383 17.6999 38.5293C16.5216 38.7524 15.3398 38.9469 14.2036 39.3272C13.8827 39.4342 13.7526 39.3259 13.8217 39.0336C13.9375 38.5226 14.0125 38.0013 14.518 37.609C14.8638 37.3436 15.1888 37.126 15.6748 37.1011C16.3806 37.0636 17.0594 36.7048 17.7901 36.8544C17.892 36.8734 18.0285 36.8326 18.1364 36.7952C20.0947 36.0726 22.16 35.8435 24.1973 35.4787C24.8642 35.3589 25.5144 35.1763 26.1779 35.028C26.6036 34.935 27.0392 34.8477 27.4691 34.7704C28.0947 34.6533 28.7308 34.5756 29.3529 34.4299C29.8207 34.3214 30.2568 34.1414 30.7426 34.3355C30.8458 34.3752 31.0865 34.3149 31.1611 34.2317C31.4458 33.9112 31.8407 33.8602 32.2263 33.7905C33.2789 33.6011 34.3427 33.4382 35.389 33.2253C36.1639 33.0682 36.9411 32.8725 37.7012 32.6604C38.8836 32.3268 40.0562 31.941 41.2406 31.6152C42.2336 31.3449 43.2414 31.1296 44.2436 30.8779C44.4765 30.8197 44.6938 30.7194 44.9288 30.669C45.3573 30.571 45.794 30.4246 46.2135 30.4343C46.6794 30.4443 47.0328 30.3959 47.4016 30.0907C47.6079 29.9175 47.9799 29.8599 48.2812 29.8213C48.6731 29.7753 49.0719 29.7863 49.4629 29.7995C49.9338 29.8123 50.3782 29.8363 50.8296 29.5722C51.0728 29.427 51.4475 29.4109 51.7564 29.4165C53.1164 29.4311 54.4348 29.1494 55.7413 28.8078C57.5136 28.3497 59.2754 27.8524 61.0485 27.3815C61.745 27.1991 62.447 27.0531 63.1498 26.8943C65.3311 26.4066 67.5361 26.039 69.7354 25.6813C70.1674 25.6119 70.6094 25.5482 71.0245 25.4159C71.9813 25.1048 72.9603 24.9393 73.954 24.8289C75.1476 24.6943 76.3014 24.3641 77.4503 24.0311C77.7203 23.9545 77.982 23.8465 78.2547 23.8113C80.1609 23.5701 81.988 22.971 83.876 22.6462C85.402 22.3847 86.9454 22.2196 88.4796 22.0359C89.6661 21.8906 90.8582 21.7818 92.0411 21.6543C92.1189 21.6461 92.1932 21.6093 92.271 21.6011C92.9499 21.5414 93.2262 21.8337 93.0138 22.4086C92.8211 22.9151 92.4342 23.2629 91.8322 23.3737C91.1652 23.4935 90.4948 23.5847 89.8286 23.6916C89.8271 23.7172 89.8284 23.738 89.8319 23.7665Z" fill="#8ED8C8"/>
<path d="M4.9574 11.0129C5.80545 11.569 6.67289 12.103 7.48796 12.6931C8.21624 13.2265 8.92957 13.7513 9.81029 14.0207C10.0383 14.0859 10.2481 14.2402 10.466 14.3461C10.864 14.5427 11.2612 14.752 11.6649 14.9386C11.8479 15.0244 12.0819 15.0333 12.2348 15.1481C12.9873 15.7087 13.7922 16.1669 14.6965 16.4299C15.2451 16.9525 15.9506 17.134 16.628 17.3989C17.3104 17.6667 17.9451 18.0398 18.6615 18.2142C18.8546 18.2593 19.0584 18.3437 19.2113 18.4586C20.1721 19.1528 21.2496 19.6221 22.3255 20.1171C23.477 20.6424 24.5787 21.2652 25.6057 22.0176C26.1512 22.4189 26.782 22.7299 27.395 23.0373C28.1255 23.4059 28.8826 23.7168 29.6216 24.0704C30.6939 24.5833 31.7735 25.0604 32.8941 25.455C34.3909 25.9804 35.8825 26.5493 37.3532 27.1659C38.1024 27.4789 38.8033 27.9102 39.5165 28.3086C40.9428 29.1056 42.3462 29.9423 43.7791 30.7165C44.8575 31.2992 45.9618 31.8372 47.0747 32.3601C48.1071 32.8499 49.1712 33.2849 50.2093 33.7648C53.2883 35.197 56.3586 36.6441 59.4346 38.0813C60.1716 38.4271 60.9258 38.7429 61.6685 39.0787C62.0374 39.2452 62.4026 39.4295 62.762 39.6237C64.101 40.3304 65.4314 41.052 66.7712 41.7458C68.6961 42.7376 70.6355 43.7045 72.5576 44.7013C73.6475 45.2641 74.728 45.8548 75.8864 46.2645C76.2119 46.3794 76.2561 46.5444 76.0127 46.736C75.5988 47.0616 75.2162 47.4253 74.5619 47.4195C74.1217 47.4111 73.7215 47.3794 73.3111 47.0893C72.715 46.6721 71.9401 46.5302 71.4439 45.9515C71.3715 45.8698 71.2355 45.8178 71.1243 45.7802C69.0894 45.1168 67.2749 44.0028 65.3992 43.0062C64.7898 42.681 64.141 42.4127 63.5173 42.1124C63.1115 41.9179 62.7114 41.7135 62.3113 41.5091C61.729 41.2061 61.1668 40.8682 60.5751 40.593C60.1286 40.3884 59.6626 40.2521 59.3935 39.7979C59.3346 39.7041 59.0961 39.5996 58.9868 39.6162C58.5569 39.6935 58.2061 39.4843 57.8466 39.2901C56.875 38.7756 55.9148 38.2412 54.9316 37.7466C54.2062 37.3809 53.4605 37.05 52.7084 36.742C51.5389 36.2594 50.3536 35.8275 49.192 35.3429C48.2192 34.934 47.27 34.4723 46.3066 34.0356C46.0858 33.9348 45.8421 33.8737 45.6213 33.7729C45.2155 33.5784 44.766 33.4251 44.4318 33.1525C44.0607 32.8519 43.7419 32.6678 43.2566 32.6799C42.9805 32.6865 42.6438 32.4988 42.3777 32.3385C42.0318 32.1322 41.7175 31.871 41.4054 31.6178C41.0322 31.3093 40.6868 31.0102 40.1577 30.9372C39.8689 30.8967 39.5573 30.677 39.3113 30.4818C38.2163 29.6171 36.9718 29.0115 35.7063 28.4536C33.9837 27.6982 32.248 26.9883 30.5274 26.2407C29.8516 25.9502 29.1908 25.6219 28.5244 25.3035C26.4545 24.321 24.4459 23.2211 22.4401 22.1162C22.0458 21.9018 21.6472 21.6717 21.2311 21.5179C20.2631 21.1582 19.3669 20.6741 18.4916 20.1421C17.4349 19.4988 16.3032 19.0314 15.1658 18.574C14.9015 18.4679 14.6179 18.3839 14.3738 18.2429C12.6844 17.2343 10.8279 16.5611 9.10028 15.6301C7.70227 14.8761 6.3532 14.0374 4.99259 13.2186C3.94295 12.586 2.90769 11.9285 1.86668 11.281C1.79694 11.2408 1.71565 11.2204 1.64591 11.1802C1.06035 10.8022 1.01507 10.3975 1.5445 10.0787C2.0124 9.79755 2.54478 9.77279 3.10219 10.0614C3.71938 10.3845 4.31433 10.7347 4.92289 11.0727C4.93439 11.0528 4.9459 11.0329 4.9574 11.0129Z" fill="#8ED8C8"/>
<path d="M27.8574 23.5361L51.5715 2.22803L64.9716 27.8463" fill="white"/>
<path d="M29.2685 21.1494C29.8932 20.7462 30.4995 20.3058 31.1476 19.9426C31.7292 19.6141 32.3021 19.3006 32.6863 18.7386C32.7855 18.5899 32.9507 18.4993 33.0818 18.3758C33.3219 18.1556 33.5668 17.9384 33.7969 17.7125C33.9037 17.6081 33.953 17.4307 34.0781 17.3635C34.6883 17.0315 35.2209 16.615 35.6067 16.0274C36.1463 15.8407 36.4295 15.3732 36.7788 14.9637C37.1281 14.5543 37.5598 14.2323 37.8409 13.7569C37.9128 13.6323 38.0233 13.5101 38.1484 13.4429C38.9117 13.0068 39.5031 12.385 40.1095 11.772C40.7625 11.1127 41.4899 10.543 42.309 10.0793C42.7439 9.83221 43.1229 9.48638 43.4961 9.15054C43.9403 8.74938 44.3433 8.30455 44.7754 7.88977C45.4067 7.29108 46.0031 6.67224 46.5371 5.9775C47.2547 5.05667 48.0072 4.15597 48.7909 3.29323C48.9895 3.07578 49.2102 2.87772 49.4458 2.68826C49.8282 2.37101 50.2106 2.05375 50.5931 1.7365L51.8542 0.691066L53.4751 4.13109C53.8596 4.93766 54.2942 5.72662 54.7424 6.50351C55.1602 7.2296 55.6259 7.93023 56.0465 8.65134L59.7731 15.094C60.0719 15.6119 60.4029 16.1085 60.7046 16.6215C60.8568 16.8755 60.9955 17.1415 61.1263 17.4097C61.6157 18.403 62.0893 19.4004 62.5893 20.3866L64.7718 24.6026C65.18 25.4028 65.5616 26.2143 66.1086 26.9353C66.2639 27.1379 66.1891 27.2674 65.8978 27.3118C65.4009 27.3902 64.8966 27.5043 64.4474 27.2583C64.1407 27.0878 63.8853 26.9204 63.7777 26.566C63.628 26.0545 63.1744 25.6664 63.1892 25.0771C63.1917 24.9922 63.13 24.9035 63.0747 24.8383C62.0705 23.6208 61.5033 22.1641 60.8188 20.7726C60.5961 20.3185 60.3125 19.8891 60.0683 19.4492C59.9076 19.1638 59.7527 18.8684 59.6077 18.5788C59.3963 18.1512 59.2142 17.7072 58.9734 17.2959C58.7935 16.9861 58.5493 16.7189 58.6517 16.2998C58.675 16.2136 58.5715 16.0476 58.4803 16.0215C58.1283 15.9179 58.0161 15.6406 57.8853 15.3724C57.5317 14.6502 57.1968 13.9187 56.8218 13.2107C56.5465 12.6864 56.2291 12.1777 55.9031 11.6839C55.3899 10.916 54.8288 10.1736 54.3264 9.39857C53.904 8.74952 53.5296 8.07498 53.1286 7.41176C53.0373 7.25937 52.9059 7.13035 52.8174 6.97298C52.6567 6.68756 52.436 6.41407 52.3803 6.0963C52.3113 5.74422 52.2074 5.49828 51.8543 5.3276C51.6564 5.23324 51.5376 4.97871 51.4501 4.76212C51.4233 4.6935 51.3965 4.62487 51.3775 4.55415L51.348 4.44412C51.3375 4.40483 51.3546 4.42134 51.3583 4.40352C51.3813 4.36367 51.405 4.31097 51.4167 4.24466C51.4588 4.10286 51.4372 3.81805 51.3174 3.96807C51.2894 4.00505 51.2766 4.0043 51.2702 3.98072C51.2488 3.9949 51.2246 3.96767 51.2005 3.94045C51.1493 3.89099 51.0772 3.88923 50.9879 3.91737C50.9457 3.93288 50.9008 3.95338 50.8528 3.97885L50.7834 4.01848L50.7512 4.03973L50.6782 4.09724C50.2929 4.41946 49.9338 4.77678 49.5847 5.13984L46.7721 8.15909C46.4008 8.54917 46.0074 8.91986 45.619 9.29344C44.4101 10.4554 43.1196 11.5171 41.8212 12.5809C41.5692 12.7874 41.3042 12.9931 41.0983 13.2462C40.6198 13.8335 40.0475 14.3068 39.4412 14.7472C38.7061 15.2727 38.1066 15.9429 37.5092 16.6209C37.3708 16.7801 37.2515 16.9637 37.0847 17.08C35.925 17.9382 35.0195 19.0694 33.9201 19.9956C33.0327 20.7387 32.0801 21.4109 31.1394 22.0967C30.4143 22.6279 29.6728 23.1298 28.9356 23.6474C28.8898 23.6807 28.8552 23.7405 28.8094 23.7738C28.38 24.0573 28.0332 23.9103 27.8651 23.3615C27.7139 22.8757 27.7907 22.455 28.1359 22.1562C28.5191 21.8261 28.9244 21.5153 29.3196 21.1988L29.2685 21.1494Z" fill="#8ED8C8"/>
<path d="M47.9065 29.7452C48.0558 29.4062 48.1743 29.0628 48.3691 28.7368C48.5467 28.4408 48.7235 28.1576 48.5965 27.8253C48.5655 27.741 48.6094 27.6534 48.6169 27.5714C48.6312 27.4202 48.6482 27.264 48.6525 27.107C48.6542 27.0349 48.564 26.9496 48.6035 26.8927C48.7997 26.5875 48.8753 26.2725 48.7334 25.9315C48.9792 25.7014 48.8455 25.4382 48.8017 25.1804C48.7579 24.9226 48.8325 24.6668 48.691 24.4058C48.6513 24.3364 48.6431 24.2585 48.6805 24.1938C48.9048 23.8052 48.8831 23.3941 48.8771 22.9788C48.8726 22.5378 48.9759 22.1059 49.2225 21.6903C49.3569 21.469 49.3716 21.225 49.3962 20.9868C49.421 20.7022 49.3894 20.4117 49.4014 20.1263C49.4211 19.7126 49.4023 19.2965 49.2885 18.8722C49.1369 18.3064 49.0318 17.7408 48.9729 17.1754C48.9435 16.8927 49.0403 16.6099 49.1008 16.3326C49.2246 15.773 49.3919 15.2186 49.495 14.6604C49.5718 14.2398 49.5951 13.8082 49.6077 13.3837C49.6187 12.9849 49.5684 12.5772 49.5716 12.1805C49.5812 10.9904 49.6086 9.80391 49.6232 8.61667C49.6273 8.33342 49.5958 8.04291 49.5949 7.75679C49.5906 7.61477 49.6069 7.47142 49.6282 7.33095C49.7083 6.81257 49.8041 6.28998 49.8742 5.76585C49.9682 5.01635 50.0315 4.26243 50.1304 3.5158C50.1844 3.08864 50.2661 2.67087 50.1561 2.22871C50.1274 2.10585 50.2552 2.08002 50.5267 2.15044C50.9936 2.27382 51.484 2.39086 51.7484 2.62322C51.9296 2.78101 52.0602 2.92287 51.9703 3.09015C51.8401 3.32717 52.0393 3.61491 51.7223 3.83041C51.6793 3.85876 51.6891 3.91092 51.6968 3.9552C51.9445 4.72263 51.6952 5.44218 51.5842 6.1752C51.5467 6.41263 51.5756 6.66177 51.5638 6.90075C51.5595 7.05771 51.5424 7.21388 51.5203 7.36719C51.4886 7.59466 51.4163 7.81197 51.4153 8.04386C51.4152 8.21654 51.4872 8.39096 51.1884 8.51735C51.1276 8.54206 51.1322 8.63768 51.197 8.67508C51.4432 8.82387 51.4041 8.96069 51.3828 9.10116C51.324 9.47907 51.2395 9.85543 51.2036 10.2399C51.1788 10.5244 51.1875 10.8085 51.2219 11.094C51.2748 11.5431 51.382 11.9902 51.4221 12.4385C51.459 12.8118 51.4395 13.1792 51.4507 13.551C51.4532 13.6388 51.502 13.7267 51.4994 13.8116C51.4952 13.9686 51.5444 14.1365 51.4382 14.2745C51.3184 14.4245 51.285 14.5514 51.504 14.7243C51.627 14.8219 51.5986 14.9516 51.5638 15.0578C51.5197 15.1917 51.4164 15.3247 51.3159 15.4527C51.1932 15.6077 51.0663 15.747 51.2245 15.9446C51.3111 16.0477 51.2392 16.1723 51.166 16.2761C50.8379 16.7178 50.8115 17.2007 50.8414 17.6896C50.8792 18.3491 50.9605 19.0138 51.0082 19.679C51.0263 19.9352 51.0079 20.197 51.0004 20.4517C50.9754 21.2543 50.8228 22.0364 50.6595 22.8255C50.6295 22.9809 50.5867 23.1356 50.621 23.2948C50.7021 23.6605 50.637 24.0149 50.5185 24.3582C50.3775 24.775 50.4312 25.2112 50.4878 25.6424C50.5023 25.7438 50.5475 25.8497 50.5186 25.9459C50.3137 26.6114 50.4775 27.3171 50.3596 27.993C50.2623 28.5412 50.068 29.0734 49.8965 29.612C49.7633 30.0267 49.5995 30.437 49.4486 30.848C49.4392 30.8758 49.4604 30.908 49.446 30.9329C49.3444 31.1665 49.0017 31.2078 48.4937 31.0407C48.0463 30.8953 47.7974 30.7051 47.8283 30.4905C47.8608 30.2502 47.9289 30.0171 47.9821 29.7755C47.955 29.7532 47.9322 29.7467 47.9065 29.7452Z" fill="#8ED8C8"/>
</g>
<defs>
<filter id="filter0_d" x="-910" y="-332" width="1560" height="2256" filterUnits="userSpaceOnUse" color-interpolation-filters="sRGB">
<feFlood flood-opacity="0" result="BackgroundImageFix"/>
<feColorMatrix in="SourceAlpha" type="matrix" values="0 0 0 0 0 0 0 0 0 0 0 0 0 0 0 0 0 0 127 0"/>
<feOffset dy="10"/>
<feGaussianBlur stdDeviation="30"/>
<feColorMatrix type="matrix" values="0 0 0 0 0 0 0 0 0 0 0 0 0 0 0 0 0 0 0.04 0"/>
<feBlend mode="normal" in2="BackgroundImageFix" result="effect1_dropShadow"/>
<feBlend mode="normal" in="SourceGraphic" in2="effect1_dropShadow" result="shape"/>
</filter>
<filter id="filter1_d" x="-240" y="-2" width="445" height="268" filterUnits="userSpaceOnUse" color-interpolation-filters="sRGB">
<feFlood flood-opacity="0" result="BackgroundImageFix"/>
<feColorMatrix in="SourceAlpha" type="matrix" values="0 0 0 0 0 0 0 0 0 0 0 0 0 0 0 0 0 0 127 0"/>
<feOffset dx="20" dy="10"/>
<feGaussianBlur stdDeviation="50"/>
<feColorMatrix type="matrix" values="0 0 0 0 0 0 0 0 0 0 0 0 0 0 0 0 0 0 0.07 0"/>
<feBlend mode="normal" in2="BackgroundImageFix" result="effect1_dropShadow"/>
<feBlend mode="normal" in="SourceGraphic" in2="effect1_dropShadow" result="shape"/>
</filter>
<clipPath id="clip0">
<rect x="-851" y="-2346" width="1440" height="10420" fill="white"/>
</clipPath>
</defs>
</svg>
