<svg width="885" height="236" viewBox="0 0 885 236" fill="none" xmlns="http://www.w3.org/2000/svg">
<g clip-path="url(#clip0)">
<rect x="-81" y="-2404" width="1440" height="10420"/>
<g filter="url(#filter0_d)">
<rect x="-80" y="-340" width="1440" height="2136"/>
</g>
<rect x="1.5" y="21.5" width="862" height="213" rx="18.5" stroke="#C9D6D4" stroke-width="3"/>
<rect x="20" width="865" height="216" rx="15" fill="#CAEAE3"/>
<g filter="url(#filter1_d)">
<rect x="610" y="30" width="245" height="68" rx="10" fill="white"/>
</g>
<path d="M639.243 76H645.221C646.889 76 648.432 75.1292 649.248 73.7192L654.419 64.7918L654.127 64.577C654.122 64.5727 654.116 64.5684 654.111 64.5642C653.662 64.1842 653.057 63.9891 652.442 64.026C651.813 64.069 651.233 64.3451 650.84 64.7879L649.348 66.4203C649.234 66.5453 649.044 66.5924 648.875 66.5378C648.705 66.4832 648.592 66.3389 648.591 66.1768L648.583 54.9469C648.582 54.1815 647.948 53.559 647.169 53.559C646.407 53.559 645.785 54.1526 645.756 54.8936C645.756 56.0278 645.755 57.2624 645.755 58.4375C645.754 61.0952 645.754 63.3891 645.755 63.6116C645.755 63.7131 645.711 63.8105 645.631 63.8823C645.551 63.9538 645.442 63.9938 645.329 63.9934H645.328C645.215 63.9943 645.107 63.9547 645.027 63.8836C644.947 63.8125 644.902 63.7154 644.901 63.6144C644.9 63.3904 644.901 61.0978 644.901 58.4388C644.901 57.2918 644.902 56.0873 644.902 54.9754C644.901 54.9664 644.901 54.9581 644.901 54.9491C644.901 54.9272 644.901 54.9062 644.902 54.8844C644.902 53.9509 644.902 53.0887 644.902 52.3828C644.902 51.6176 644.268 51 643.488 51H643.445C642.666 51 642.019 51.6127 642.019 52.3785V63.6161C642.019 63.8279 641.828 63.9998 641.592 63.9998C641.356 63.9998 641.165 63.8279 641.165 63.6161V53.8314C641.165 53.0656 640.544 52.4426 639.765 52.4426C638.981 52.4426 638.36 53.0656 638.36 53.8314V63.6161C638.36 63.8279 638.168 63.9998 637.933 63.9998C637.697 63.9998 637.506 63.8279 637.506 63.6161V57.8484C637.506 57.0823 636.858 56.4825 636.078 56.4825H636.037C635.26 56.4825 634.625 57.0896 634.623 57.8531C634.615 61.0048 634.62 66.5616 634.626 71.5357C634.628 74.0002 636.7 76 639.243 76Z" fill="#369E88"/>
<path opacity="0.8" d="M671.9 65.375V65.36C672.995 64.925 673.475 63.935 673.475 62.945C673.475 61.205 672.2 60.35 670.01 60.35H666.305V71H670.52C672.875 71 674.015 69.77 674.015 68.075C674.015 66.605 673.145 65.675 671.9 65.375ZM668.12 61.97H669.665C671.06 61.955 671.63 62.51 671.63 63.35C671.63 64.355 670.745 64.76 669.845 64.76H668.12V61.97ZM669.98 69.38H668.12V66.32H670.01C671.405 66.32 672.125 66.935 672.125 67.88C672.125 68.885 671.255 69.365 669.98 69.38ZM680.823 63.68V67.19C680.823 68.765 679.923 69.59 678.948 69.59C677.943 69.59 677.493 69.14 677.493 67.685V63.68H675.813V68.135C675.813 70.31 676.938 71.12 678.558 71.12C679.413 71.12 680.238 70.745 680.823 70.04V71H682.503V63.68H680.823ZM684.94 71H686.62V59.96H684.94V71ZM689.227 71H690.907V59.96H689.227V71ZM698.079 63.68L696.189 68.63L694.164 63.68H692.394L695.364 70.58L694.044 73.97H695.814L699.834 63.68H698.079ZM702.376 62.6C703.006 62.6 703.516 62.09 703.516 61.475C703.516 60.875 703.006 60.365 702.376 60.365C701.746 60.365 701.251 60.875 701.251 61.475C701.251 62.09 701.746 62.6 702.376 62.6ZM701.536 71H703.216V63.68H701.536V71ZM709.873 63.575C708.928 63.575 708.028 63.965 707.413 64.7H707.398V63.68H705.718V71H707.398V67.325C707.398 65.885 708.148 65.09 709.288 65.09C710.293 65.09 710.878 65.585 710.878 67.13V71H712.558V66.695C712.558 64.49 711.478 63.575 709.873 63.575ZM720.134 63.68V64.46H720.104C719.489 63.875 718.664 63.575 717.824 63.575C715.799 63.575 714.344 65.12 714.344 67.265C714.344 69.44 715.874 70.88 717.914 70.88C718.829 70.88 719.594 70.55 720.149 69.98H720.164V70.76C720.164 71.735 719.429 72.56 717.989 72.56C716.939 72.56 716.294 72.26 715.499 71.84L715.094 73.31C715.919 73.805 716.984 74.075 718.079 74.075C720.794 74.075 721.814 72.47 721.814 70.25V63.68H720.134ZM718.139 69.335C716.954 69.335 716.054 68.525 716.054 67.22C716.054 65.975 716.894 65.105 718.139 65.105C719.309 65.105 720.209 65.945 720.209 67.19C720.209 68.435 719.354 69.335 718.139 69.335ZM728.544 71H730.359V67.205H732.189C734.484 67.205 736.044 66.11 736.044 63.8C736.044 61.82 734.949 60.35 732.399 60.35H728.544V71ZM730.359 65.57V61.97H732.144C733.449 61.97 734.169 62.645 734.169 63.77C734.169 64.82 733.494 65.57 732.009 65.57H730.359ZM741.943 63.575C741.058 63.575 740.233 64.01 739.663 64.79H739.648V63.68H737.968V71H739.648V67.535C739.648 66.335 740.368 65.42 741.643 65.42C741.763 65.42 741.958 65.435 742.153 65.45V63.575H741.943ZM750.234 67.25C750.234 65.12 748.839 63.575 746.679 63.575C744.639 63.575 743.109 65.09 743.109 67.34C743.109 69.62 744.714 71.12 746.844 71.12C748.284 71.12 749.319 70.535 749.934 69.74L748.764 68.735C748.389 69.2 747.789 69.59 746.934 69.59C745.854 69.59 745.074 68.96 744.849 67.925H750.189C750.204 67.79 750.234 67.52 750.234 67.25ZM746.769 65.09C747.729 65.09 748.329 65.69 748.539 66.575H744.879C745.119 65.615 745.839 65.09 746.769 65.09ZM756.572 63.68L754.682 68.9H754.667L752.747 63.68H750.962L753.872 71H755.477L758.372 63.68H756.572ZM766.205 67.25C766.205 65.12 764.81 63.575 762.65 63.575C760.61 63.575 759.08 65.09 759.08 67.34C759.08 69.62 760.685 71.12 762.815 71.12C764.255 71.12 765.29 70.535 765.905 69.74L764.735 68.735C764.36 69.2 763.76 69.59 762.905 69.59C761.825 69.59 761.045 68.96 760.82 67.925H766.16C766.175 67.79 766.205 67.52 766.205 67.25ZM762.74 65.09C763.7 65.09 764.3 65.69 764.51 66.575H760.85C761.09 65.615 761.81 65.09 762.74 65.09ZM772.293 63.575C771.348 63.575 770.448 63.965 769.833 64.7H769.818V63.68H768.138V71H769.818V67.325C769.818 65.885 770.568 65.09 771.708 65.09C772.713 65.09 773.298 65.585 773.298 67.13V71H774.978V66.695C774.978 64.49 773.898 63.575 772.293 63.575ZM779.405 71.12C780.365 71.12 780.83 70.925 781.265 70.685L780.83 69.23C780.44 69.44 780.035 69.545 779.75 69.545C779.27 69.545 779.045 69.275 779.045 68.525V65.105H781.19V63.68H779.045V61.07L777.365 61.25V63.68H776.465V65.105H777.365V68.69C777.365 70.325 778.145 71.12 779.405 71.12ZM783.795 62.6C784.425 62.6 784.935 62.09 784.935 61.475C784.935 60.875 784.425 60.365 783.795 60.365C783.165 60.365 782.67 60.875 782.67 61.475C782.67 62.09 783.165 62.6 783.795 62.6ZM782.955 71H784.635V63.68H782.955V71ZM790.542 71.12C792.792 71.12 794.382 69.575 794.382 67.355C794.382 65.105 792.792 63.575 790.542 63.575C788.232 63.575 786.702 65.195 786.702 67.355C786.702 69.5 788.232 71.12 790.542 71.12ZM790.542 69.59C789.282 69.59 788.412 68.6 788.412 67.355C788.412 66.08 789.267 65.09 790.542 65.09C791.742 65.09 792.672 66.005 792.672 67.355C792.672 68.675 791.727 69.59 790.542 69.59ZM800.486 63.575C799.541 63.575 798.641 63.965 798.026 64.7H798.011V63.68H796.331V71H798.011V67.325C798.011 65.885 798.761 65.09 799.901 65.09C800.906 65.09 801.491 65.585 801.491 67.13V71H803.171V66.695C803.171 64.49 802.091 63.575 800.486 63.575Z" fill="#001951"/>
<g filter="url(#filter2_d)">
<rect x="339" y="30" width="251" height="68" rx="10" fill="white"/>
</g>
<path opacity="0.8" d="M396.305 71H403.325V69.38H398.12V66.53H402.065V64.91H398.12V61.97H403.01V60.35H396.305V71ZM414.226 63.575C413.146 63.575 412.216 63.995 411.601 64.79H411.571C411.136 63.965 410.371 63.575 409.381 63.575C408.541 63.575 407.701 63.965 407.101 64.7H407.086V63.68H405.406V71H407.086V67.355C407.086 65.915 407.836 65.09 408.841 65.09C409.831 65.09 410.296 65.87 410.296 67.19V71H411.976V67.355C411.976 65.915 412.741 65.09 413.686 65.09C414.676 65.09 415.111 65.87 415.111 67.19V71H416.791V66.77C416.791 64.58 415.831 63.575 414.226 63.575ZM422.473 71.12C424.723 71.12 426.313 69.575 426.313 67.355C426.313 65.105 424.723 63.575 422.473 63.575C420.163 63.575 418.633 65.195 418.633 67.355C418.633 69.5 420.163 71.12 422.473 71.12ZM422.473 69.59C421.213 69.59 420.343 68.6 420.343 67.355C420.343 66.08 421.198 65.09 422.473 65.09C423.673 65.09 424.603 66.005 424.603 67.355C424.603 68.675 423.658 69.59 422.473 69.59ZM430.379 71.12C431.339 71.12 431.804 70.925 432.239 70.685L431.804 69.23C431.414 69.44 431.009 69.545 430.724 69.545C430.244 69.545 430.019 69.275 430.019 68.525V65.105H432.164V63.68H430.019V61.07L428.339 61.25V63.68H427.439V65.105H428.339V68.69C428.339 70.325 429.119 71.12 430.379 71.12ZM434.769 62.6C435.399 62.6 435.909 62.09 435.909 61.475C435.909 60.875 435.399 60.365 434.769 60.365C434.139 60.365 433.644 60.875 433.644 61.475C433.644 62.09 434.139 62.6 434.769 62.6ZM433.929 71H435.609V63.68H433.929V71ZM441.516 71.12C443.766 71.12 445.356 69.575 445.356 67.355C445.356 65.105 443.766 63.575 441.516 63.575C439.206 63.575 437.676 65.195 437.676 67.355C437.676 69.5 439.206 71.12 441.516 71.12ZM441.516 69.59C440.256 69.59 439.386 68.6 439.386 67.355C439.386 66.08 440.241 65.09 441.516 65.09C442.716 65.09 443.646 66.005 443.646 67.355C443.646 68.675 442.701 69.59 441.516 69.59ZM451.46 63.575C450.515 63.575 449.615 63.965 449 64.7H448.985V63.68H447.305V71H448.985V67.325C448.985 65.885 449.735 65.09 450.875 65.09C451.88 65.09 452.465 65.585 452.465 67.13V71H454.145V66.695C454.145 64.49 453.065 63.575 451.46 63.575ZM461.766 63.68V64.565H461.736C461.196 63.92 460.401 63.575 459.471 63.575C457.461 63.575 455.946 65.165 455.946 67.37C455.946 69.635 457.461 71.12 459.486 71.12C460.491 71.12 461.286 70.73 461.811 70.025H461.841V71H463.446V63.68H461.766ZM459.756 69.59C458.511 69.59 457.656 68.675 457.656 67.385C457.656 65.975 458.586 65.09 459.756 65.09C460.956 65.09 461.841 66.08 461.841 67.385C461.841 68.705 460.896 69.59 459.756 69.59ZM465.871 71H467.551V59.96H465.871V71ZM482.442 71L479.712 67.055V67.01C481.152 66.605 482.052 65.555 482.052 63.8C482.052 61.82 480.942 60.35 478.407 60.35H474.477V71H476.292V67.205H477.717L480.267 71H482.442ZM476.292 61.97H478.137C479.442 61.97 480.177 62.645 480.177 63.77C480.177 64.82 479.472 65.57 478.017 65.57H476.292V61.97ZM490.913 67.25C490.913 65.12 489.518 63.575 487.358 63.575C485.318 63.575 483.788 65.09 483.788 67.34C483.788 69.62 485.393 71.12 487.523 71.12C488.963 71.12 489.998 70.535 490.613 69.74L489.443 68.735C489.068 69.2 488.468 69.59 487.613 69.59C486.533 69.59 485.753 68.96 485.528 67.925H490.868C490.883 67.79 490.913 67.52 490.913 67.25ZM487.448 65.09C488.408 65.09 489.008 65.69 489.218 66.575H485.558C485.798 65.615 486.518 65.09 487.448 65.09ZM496.146 71.12C497.556 71.12 498.681 70.55 499.311 69.83L498.156 68.81C497.766 69.23 497.106 69.59 496.296 69.59C495.006 69.59 494.121 68.69 494.121 67.34C494.121 66.005 494.991 65.09 496.296 65.09C497.091 65.09 497.721 65.435 498.141 65.93L499.281 64.94C498.546 64.04 497.346 63.575 496.206 63.575C493.986 63.575 492.411 65.105 492.411 67.355C492.411 69.59 493.986 71.12 496.146 71.12ZM504.434 71.12C506.684 71.12 508.274 69.575 508.274 67.355C508.274 65.105 506.684 63.575 504.434 63.575C502.124 63.575 500.594 65.195 500.594 67.355C500.594 69.5 502.124 71.12 504.434 71.12ZM504.434 69.59C503.174 69.59 502.304 68.6 502.304 67.355C502.304 66.08 503.159 65.09 504.434 65.09C505.634 65.09 506.564 66.005 506.564 67.355C506.564 68.675 505.619 69.59 504.434 69.59ZM515.548 63.68V64.46H515.518C514.903 63.875 514.078 63.575 513.238 63.575C511.213 63.575 509.758 65.12 509.758 67.265C509.758 69.44 511.288 70.88 513.328 70.88C514.243 70.88 515.008 70.55 515.563 69.98H515.578V70.76C515.578 71.735 514.843 72.56 513.403 72.56C512.353 72.56 511.708 72.26 510.913 71.84L510.508 73.31C511.333 73.805 512.398 74.075 513.493 74.075C516.208 74.075 517.228 72.47 517.228 70.25V63.68H515.548ZM513.553 69.335C512.368 69.335 511.468 68.525 511.468 67.22C511.468 65.975 512.308 65.105 513.553 65.105C514.723 65.105 515.623 65.945 515.623 67.19C515.623 68.435 514.768 69.335 513.553 69.335ZM523.689 63.575C522.744 63.575 521.844 63.965 521.229 64.7H521.214V63.68H519.534V71H521.214V67.325C521.214 65.885 521.964 65.09 523.104 65.09C524.109 65.09 524.694 65.585 524.694 67.13V71H526.374V66.695C526.374 64.49 525.294 63.575 523.689 63.575ZM529.571 62.6C530.201 62.6 530.711 62.09 530.711 61.475C530.711 60.875 530.201 60.365 529.571 60.365C528.941 60.365 528.446 60.875 528.446 61.475C528.446 62.09 528.941 62.6 529.571 62.6ZM528.731 71H530.411V63.68H528.731V71ZM535.029 71.12C535.989 71.12 536.454 70.925 536.889 70.685L536.454 69.23C536.064 69.44 535.659 69.545 535.374 69.545C534.894 69.545 534.669 69.275 534.669 68.525V65.105H536.814V63.68H534.669V61.07L532.989 61.25V63.68H532.089V65.105H532.989V68.69C532.989 70.325 533.769 71.12 535.029 71.12ZM539.419 62.6C540.049 62.6 540.559 62.09 540.559 61.475C540.559 60.875 540.049 60.365 539.419 60.365C538.789 60.365 538.294 60.875 538.294 61.475C538.294 62.09 538.789 62.6 539.419 62.6ZM538.579 71H540.259V63.68H538.579V71ZM546.166 71.12C548.416 71.12 550.006 69.575 550.006 67.355C550.006 65.105 548.416 63.575 546.166 63.575C543.856 63.575 542.326 65.195 542.326 67.355C542.326 69.5 543.856 71.12 546.166 71.12ZM546.166 69.59C544.906 69.59 544.036 68.6 544.036 67.355C544.036 66.08 544.891 65.09 546.166 65.09C547.366 65.09 548.296 66.005 548.296 67.355C548.296 68.675 547.351 69.59 546.166 69.59ZM556.11 63.575C555.165 63.575 554.265 63.965 553.65 64.7H553.635V63.68H551.955V71H553.635V67.325C553.635 65.885 554.385 65.09 555.525 65.09C556.53 65.09 557.115 65.585 557.115 67.13V71H558.795V66.695C558.795 64.49 557.715 63.575 556.11 63.575Z" fill="#001951"/>
<path d="M371 53C364.384 53 359 58.3835 359 65C359 71.6165 364.384 77 371 77C377.616 77 383 71.6165 383 65C383 58.3835 377.616 53 371 53ZM365 64.25C365 63.44 365.435 62.7335 366.078 62.3375L364.529 61.0835C364.207 60.8225 364.155 60.35 364.417 60.029C364.676 59.708 365.15 59.657 365.471 59.9165L368.663 62.4995C369.195 62.93 369.5 63.5675 369.5 64.25C369.5 65.4905 368.491 66.5 367.25 66.5C366.01 66.5 365 65.4905 365 64.25ZM375.293 72.2675C375.146 72.422 374.948 72.5 374.75 72.5C374.564 72.5 374.378 72.431 374.233 72.293C372.42 70.568 369.58 70.5695 367.766 72.293C367.467 72.5765 366.992 72.569 366.706 72.266C366.421 71.966 366.431 71.4905 366.733 71.2055C369.123 68.93 372.873 68.927 375.266 71.2055C375.567 71.492 375.58 71.9675 375.293 72.2675ZM377.471 61.0835L375.92 62.3375C376.565 62.7335 377 63.44 377 64.25C377 65.4905 375.99 66.5 374.75 66.5C373.509 66.5 372.5 65.4905 372.5 64.25C372.5 63.566 372.805 62.9285 373.336 62.4995L376.529 59.9165C376.851 59.6555 377.324 59.705 377.583 60.0275C377.843 60.35 377.794 60.8225 377.471 61.0835Z" fill="#36A18B"/>
<g filter="url(#filter3_d)">
<rect x="60" y="118" width="190" height="68" rx="10" fill="white"/>
</g>
<path opacity="0.8" d="M113.305 159H115.12V155.205H116.95C119.245 155.205 120.805 154.11 120.805 151.8C120.805 149.82 119.71 148.35 117.16 148.35H113.305V159ZM115.12 153.57V149.97H116.905C118.21 149.97 118.93 150.645 118.93 151.77C118.93 152.82 118.255 153.57 116.77 153.57H115.12ZM126.704 151.575C125.819 151.575 124.994 152.01 124.424 152.79H124.409V151.68H122.729V159H124.409V155.535C124.409 154.335 125.129 153.42 126.404 153.42C126.524 153.42 126.719 153.435 126.914 153.45V151.575H126.704ZM131.71 159.12C133.96 159.12 135.55 157.575 135.55 155.355C135.55 153.105 133.96 151.575 131.71 151.575C129.4 151.575 127.87 153.195 127.87 155.355C127.87 157.5 129.4 159.12 131.71 159.12ZM131.71 157.59C130.45 157.59 129.58 156.6 129.58 155.355C129.58 154.08 130.435 153.09 131.71 153.09C132.91 153.09 133.84 154.005 133.84 155.355C133.84 156.675 132.895 157.59 131.71 157.59ZM141.519 151.575C140.559 151.575 139.749 151.92 139.194 152.565H139.179V147.96H137.499V159H139.104V158.025H139.134C139.674 158.73 140.469 159.12 141.504 159.12C143.544 159.12 145.059 157.635 145.059 155.37C145.059 153.165 143.544 151.575 141.519 151.575ZM141.249 157.59C140.049 157.59 139.104 156.705 139.104 155.385C139.104 154.08 139.974 153.09 141.234 153.09C142.404 153.09 143.349 153.975 143.349 155.385C143.349 156.675 142.479 157.59 141.249 157.59ZM147.12 159H148.8V147.96H147.12V159ZM157.992 155.25C157.992 153.12 156.597 151.575 154.437 151.575C152.397 151.575 150.867 153.09 150.867 155.34C150.867 157.62 152.472 159.12 154.602 159.12C156.042 159.12 157.077 158.535 157.692 157.74L156.522 156.735C156.147 157.2 155.547 157.59 154.692 157.59C153.612 157.59 152.832 156.96 152.607 155.925H157.947C157.962 155.79 157.992 155.52 157.992 155.25ZM154.527 153.09C155.487 153.09 156.087 153.69 156.297 154.575H152.637C152.877 153.615 153.597 153.09 154.527 153.09ZM168.745 151.575C167.665 151.575 166.735 151.995 166.12 152.79H166.09C165.655 151.965 164.89 151.575 163.9 151.575C163.06 151.575 162.22 151.965 161.62 152.7H161.605V151.68H159.925V159H161.605V155.355C161.605 153.915 162.355 153.09 163.36 153.09C164.35 153.09 164.815 153.87 164.815 155.19V159H166.495V155.355C166.495 153.915 167.26 153.09 168.205 153.09C169.195 153.09 169.63 153.87 169.63 155.19V159H171.31V154.77C171.31 152.58 170.35 151.575 168.745 151.575ZM181.19 159.12C182.9 159.12 184.865 158.13 184.865 155.925C184.865 153.87 183.395 153.375 181.565 152.655C180.275 152.16 179.555 151.89 179.57 151.11C179.585 150.315 180.245 149.865 181.07 149.865C181.79 149.865 182.645 150.24 183.515 150.96L184.595 149.535C183.515 148.68 182.33 148.215 181.07 148.23C179.225 148.23 177.695 149.535 177.695 151.2C177.695 153.15 179.3 153.87 180.92 154.44C182.27 154.92 182.975 155.22 182.975 156.15C182.975 156.93 182.375 157.44 181.205 157.44C180.29 157.44 179.24 156.975 178.475 156.045L177.335 157.44C178.445 158.595 179.825 159.12 181.19 159.12ZM190.268 159.12C192.518 159.12 194.108 157.575 194.108 155.355C194.108 153.105 192.518 151.575 190.268 151.575C187.958 151.575 186.428 153.195 186.428 155.355C186.428 157.5 187.958 159.12 190.268 159.12ZM190.268 157.59C189.008 157.59 188.138 156.6 188.138 155.355C188.138 154.08 188.993 153.09 190.268 153.09C191.468 153.09 192.398 154.005 192.398 155.355C192.398 156.675 191.453 157.59 190.268 157.59ZM196.162 159H197.842V147.96H196.162V159ZM205.13 151.68L203.24 156.9H203.225L201.305 151.68H199.52L202.43 159H204.035L206.93 151.68H205.13ZM209.472 150.6C210.102 150.6 210.612 150.09 210.612 149.475C210.612 148.875 210.102 148.365 209.472 148.365C208.842 148.365 208.347 148.875 208.347 149.475C208.347 150.09 208.842 150.6 209.472 150.6ZM208.632 159H210.312V151.68H208.632V159ZM216.969 151.575C216.024 151.575 215.124 151.965 214.509 152.7H214.494V151.68H212.814V159H214.494V155.325C214.494 153.885 215.244 153.09 216.384 153.09C217.389 153.09 217.974 153.585 217.974 155.13V159H219.654V154.695C219.654 152.49 218.574 151.575 216.969 151.575ZM227.231 151.68V152.46H227.201C226.586 151.875 225.761 151.575 224.921 151.575C222.896 151.575 221.441 153.12 221.441 155.265C221.441 157.44 222.971 158.88 225.011 158.88C225.926 158.88 226.691 158.55 227.246 157.98H227.261V158.76C227.261 159.735 226.526 160.56 225.086 160.56C224.036 160.56 223.391 160.26 222.596 159.84L222.191 161.31C223.016 161.805 224.081 162.075 225.176 162.075C227.891 162.075 228.911 160.47 228.911 158.25V151.68H227.231ZM225.236 157.335C224.051 157.335 223.151 156.525 223.151 155.22C223.151 153.975 223.991 153.105 225.236 153.105C226.406 153.105 227.306 153.945 227.306 155.19C227.306 156.435 226.451 157.335 225.236 157.335Z" fill="#001951"/>
<path d="M97.1882 149.854C96.6477 149.854 96.1139 149.974 95.6256 150.206V146.729C95.6256 146.591 95.5707 146.458 95.4731 146.361C95.3754 146.263 95.2429 146.208 95.1048 146.208H92.1489C92.4124 145.652 92.5311 145.039 92.4938 144.425C92.4565 143.811 92.2646 143.217 91.9358 142.697C91.607 142.177 91.1521 141.749 90.6133 141.452C90.0746 141.156 89.4695 141 88.8545 141C88.2395 141 87.6344 141.156 87.0957 141.452C86.557 141.749 86.102 142.177 85.7732 142.697C85.4445 143.217 85.2525 143.811 85.2152 144.425C85.178 145.039 85.2966 145.652 85.5601 146.208H80.5209C80.3827 146.208 80.2502 146.263 80.1526 146.361C80.0549 146.458 80 146.591 80 146.729V151.171C80 151.272 80.0291 151.37 80.0838 151.455C80.1386 151.539 80.2165 151.606 80.3083 151.647C80.4001 151.688 80.5019 151.701 80.6012 151.686C80.7006 151.67 80.7933 151.626 80.8683 151.559C81.2429 151.224 81.7067 151.004 82.2034 150.927C82.7002 150.849 83.2088 150.917 83.6678 151.123C84.1268 151.328 84.5166 151.661 84.7901 152.083C85.0636 152.505 85.2092 152.997 85.2092 153.5C85.2092 154.003 85.0636 154.495 84.7901 154.917C84.5166 155.339 84.1268 155.672 83.6678 155.877C83.2088 156.083 82.7002 156.151 82.2034 156.073C81.7067 155.996 81.2429 155.776 80.8683 155.441C80.7933 155.374 80.7006 155.33 80.6012 155.314C80.5019 155.299 80.4001 155.312 80.3083 155.353C80.2165 155.394 80.1386 155.461 80.0838 155.545C80.0291 155.63 80 155.728 80 155.829V160.271C80 160.409 80.0549 160.542 80.1526 160.639C80.2502 160.737 80.3827 160.792 80.5209 160.792H85.5601C85.2966 161.348 85.178 161.961 85.2152 162.575C85.2525 163.189 85.4445 163.783 85.7732 164.303C86.102 164.823 86.557 165.251 87.0957 165.548C87.6344 165.844 88.2395 166 88.8545 166C89.4695 166 90.0746 165.844 90.6133 165.548C91.1521 165.251 91.607 164.823 91.9358 164.303C92.2646 163.783 92.4565 163.189 92.4938 162.575C92.5311 161.961 92.4124 161.348 92.1489 160.792H95.1048C95.2429 160.792 95.3754 160.737 95.4731 160.639C95.5707 160.542 95.6256 160.409 95.6256 160.271V156.794C96.1197 157.029 96.6601 157.149 97.2069 157.146C97.7537 157.143 98.2928 157.017 98.7844 156.778C99.2759 156.538 99.7073 156.191 100.047 155.763C100.386 155.334 100.625 154.834 100.745 154.301C100.865 153.767 100.863 153.214 100.74 152.681C100.618 152.148 100.377 151.65 100.035 151.223C99.6935 150.796 99.2603 150.451 98.7675 150.214C98.2747 149.977 97.735 149.854 97.1882 149.854Z" fill="#36A18B"/>
<g filter="url(#filter4_d)">
<rect x="496" y="118" width="184" height="68" rx="10" fill="white"/>
</g>
<path opacity="0.8" d="M552.485 159.12C554.195 159.12 556.16 158.13 556.16 155.925C556.16 153.87 554.69 153.375 552.86 152.655C551.57 152.16 550.85 151.89 550.865 151.11C550.88 150.315 551.54 149.865 552.365 149.865C553.085 149.865 553.94 150.24 554.81 150.96L555.89 149.535C554.81 148.68 553.625 148.215 552.365 148.23C550.52 148.23 548.99 149.535 548.99 151.2C548.99 153.15 550.595 153.87 552.215 154.44C553.565 154.92 554.27 155.22 554.27 156.15C554.27 156.93 553.67 157.44 552.5 157.44C551.585 157.44 550.535 156.975 549.77 156.045L548.63 157.44C549.74 158.595 551.12 159.12 552.485 159.12ZM564.847 155.25C564.847 153.12 563.452 151.575 561.292 151.575C559.252 151.575 557.722 153.09 557.722 155.34C557.722 157.62 559.327 159.12 561.457 159.12C562.897 159.12 563.932 158.535 564.547 157.74L563.377 156.735C563.002 157.2 562.402 157.59 561.547 157.59C560.467 157.59 559.687 156.96 559.462 155.925H564.802C564.817 155.79 564.847 155.52 564.847 155.25ZM561.382 153.09C562.342 153.09 562.942 153.69 563.152 154.575H559.492C559.732 153.615 560.452 153.09 561.382 153.09ZM566.885 159H568.565V147.96H566.885V159ZM571.337 159H573.017V153.105H574.817V151.68H573.017V150.525C573.017 149.73 573.287 149.385 573.797 149.385C574.112 149.385 574.532 149.535 575.012 149.76L575.387 148.35C574.997 148.095 574.367 147.84 573.557 147.84C572.117 147.84 571.337 148.71 571.337 150.345V151.68H570.527V153.105H571.337V159ZM575.977 155.19H580.492V153.555H575.977V155.19ZM590.76 159L588.03 155.055V155.01C589.47 154.605 590.37 153.555 590.37 151.8C590.37 149.82 589.26 148.35 586.725 148.35H582.795V159H584.61V155.205H586.035L588.585 159H590.76ZM584.61 149.97H586.455C587.76 149.97 588.495 150.645 588.495 151.77C588.495 152.82 587.79 153.57 586.335 153.57H584.61V149.97ZM599.231 155.25C599.231 153.12 597.836 151.575 595.676 151.575C593.636 151.575 592.106 153.09 592.106 155.34C592.106 157.62 593.711 159.12 595.841 159.12C597.281 159.12 598.316 158.535 598.931 157.74L597.761 156.735C597.386 157.2 596.786 157.59 595.931 157.59C594.851 157.59 594.071 156.96 593.846 155.925H599.186C599.201 155.79 599.231 155.52 599.231 155.25ZM595.766 153.09C596.726 153.09 597.326 153.69 597.536 154.575H593.876C594.116 153.615 594.836 153.09 595.766 153.09ZM606.489 151.68V152.46H606.459C605.844 151.875 605.019 151.575 604.179 151.575C602.154 151.575 600.699 153.12 600.699 155.265C600.699 157.44 602.229 158.88 604.269 158.88C605.184 158.88 605.949 158.55 606.504 157.98H606.519V158.76C606.519 159.735 605.784 160.56 604.344 160.56C603.294 160.56 602.649 160.26 601.854 159.84L601.449 161.31C602.274 161.805 603.339 162.075 604.434 162.075C607.149 162.075 608.169 160.47 608.169 158.25V151.68H606.489ZM604.494 157.335C603.309 157.335 602.409 156.525 602.409 155.22C602.409 153.975 603.249 153.105 604.494 153.105C605.664 153.105 606.564 153.945 606.564 155.19C606.564 156.435 605.709 157.335 604.494 157.335ZM615.335 151.68V155.19C615.335 156.765 614.435 157.59 613.46 157.59C612.455 157.59 612.005 157.14 612.005 155.685V151.68H610.325V156.135C610.325 158.31 611.45 159.12 613.07 159.12C613.925 159.12 614.75 158.745 615.335 158.04V159H617.015V151.68H615.335ZM619.452 159H621.132V147.96H619.452V159ZM629.004 151.68V152.565H628.974C628.434 151.92 627.639 151.575 626.709 151.575C624.699 151.575 623.184 153.165 623.184 155.37C623.184 157.635 624.699 159.12 626.724 159.12C627.729 159.12 628.524 158.73 629.049 158.025H629.079V159H630.684V151.68H629.004ZM626.994 157.59C625.749 157.59 624.894 156.675 624.894 155.385C624.894 153.975 625.824 153.09 626.994 153.09C628.194 153.09 629.079 154.08 629.079 155.385C629.079 156.705 628.134 157.59 626.994 157.59ZM635.179 159.12C636.139 159.12 636.604 158.925 637.039 158.685L636.604 157.23C636.214 157.44 635.809 157.545 635.524 157.545C635.044 157.545 634.819 157.275 634.819 156.525V153.105H636.964V151.68H634.819V149.07L633.139 149.25V151.68H632.239V153.105H633.139V156.69C633.139 158.325 633.919 159.12 635.179 159.12ZM639.569 150.6C640.199 150.6 640.709 150.09 640.709 149.475C640.709 148.875 640.199 148.365 639.569 148.365C638.939 148.365 638.444 148.875 638.444 149.475C638.444 150.09 638.939 150.6 639.569 150.6ZM638.729 159H640.409V151.68H638.729V159ZM646.316 159.12C648.566 159.12 650.156 157.575 650.156 155.355C650.156 153.105 648.566 151.575 646.316 151.575C644.006 151.575 642.476 153.195 642.476 155.355C642.476 157.5 644.006 159.12 646.316 159.12ZM646.316 157.59C645.056 157.59 644.186 156.6 644.186 155.355C644.186 154.08 645.041 153.09 646.316 153.09C647.516 153.09 648.446 154.005 648.446 155.355C648.446 156.675 647.501 157.59 646.316 157.59ZM656.26 151.575C655.315 151.575 654.415 151.965 653.8 152.7H653.785V151.68H652.105V159H653.785V155.325C653.785 153.885 654.535 153.09 655.675 153.09C656.68 153.09 657.265 153.585 657.265 155.13V159H658.945V154.695C658.945 152.49 657.865 151.575 656.26 151.575Z" fill="#001951"/>
<path d="M529.716 150.12C529.298 150.12 528.958 150.46 528.958 150.878C528.958 151.296 529.298 151.636 529.716 151.636C530.134 151.636 530.474 151.296 530.474 150.878C530.474 150.46 530.134 150.12 529.716 150.12Z" fill="#36A18B"/>
<path d="M534.452 148.541C534.455 147.134 534.454 147.13 534.434 147.038C534.007 145.097 532.78 143.303 530.979 141.987C529.227 140.706 527.115 140.001 525.031 140C525.03 140 525.029 140 525.027 140C522.408 140 519.925 141.012 518.038 142.849C516.149 144.687 515.071 147.142 515.003 149.761C514.967 151.185 515.222 152.568 515.764 153.871C516.805 156.378 517.334 159.094 517.334 161.944V165H528.516V161.486H530.775C533.125 161.486 535.03 159.581 535.03 157.232V155.89L535.877 155.894C536.547 155.898 537.011 155.227 536.771 154.601L534.452 148.541ZM529.715 153.101C528.49 153.101 527.493 152.104 527.493 150.878C527.493 150.532 527.572 150.204 527.714 149.912L526.365 148.563C525.986 148.771 525.552 148.89 525.09 148.89C524.623 148.89 524.185 148.768 523.803 148.556L522.447 149.912C522.588 150.204 522.668 150.532 522.668 150.878C522.668 152.104 521.671 153.101 520.445 153.101C519.22 153.101 518.222 152.104 518.222 150.878C518.222 149.652 519.219 148.655 520.445 148.655C520.791 148.655 521.119 148.735 521.411 148.876L522.767 147.52C522.555 147.139 522.433 146.7 522.433 146.233C522.433 144.768 523.625 143.576 525.09 143.576C526.555 143.576 527.747 144.768 527.747 146.233C527.747 146.705 527.623 147.148 527.406 147.533L528.749 148.876C529.042 148.735 529.369 148.655 529.715 148.655C530.941 148.655 531.938 149.652 531.938 150.878C531.938 152.104 530.941 153.101 529.715 153.101Z" fill="#36A18B"/>
<path d="M525.089 145.041C524.432 145.041 523.897 145.576 523.897 146.233C523.897 146.89 524.432 147.425 525.089 147.425C525.747 147.425 526.281 146.89 526.281 146.233C526.281 145.576 525.747 145.041 525.089 145.041Z" fill="#36A18B"/>
<path d="M520.444 150.12C520.027 150.12 519.687 150.46 519.687 150.878C519.687 151.296 520.027 151.636 520.444 151.636C520.862 151.636 521.202 151.296 521.202 150.878C521.202 150.46 520.862 150.12 520.444 150.12Z" fill="#36A18B"/>
<g filter="url(#filter5_d)">
<rect x="78" y="30" width="241" height="68" rx="10" fill="white"/>
</g>
<path opacity="0.8" d="M139.195 71.09C141.07 71.09 142.48 70.22 143.395 69.08L142.06 67.94C141.385 68.78 140.395 69.395 139.195 69.395C137.17 69.395 135.715 67.895 135.715 65.705C135.715 63.455 137.125 61.94 139.195 61.94C140.335 61.94 141.37 62.555 142.06 63.395L143.395 62.27C142.225 60.83 140.65 60.23 139.195 60.23C135.745 60.23 133.825 62.675 133.825 65.705C133.825 69.2 136.3 71.09 139.195 71.09ZM148.569 71.12C150.819 71.12 152.409 69.575 152.409 67.355C152.409 65.105 150.819 63.575 148.569 63.575C146.259 63.575 144.729 65.195 144.729 67.355C144.729 69.5 146.259 71.12 148.569 71.12ZM148.569 69.59C147.309 69.59 146.439 68.6 146.439 67.355C146.439 66.08 147.294 65.09 148.569 65.09C149.769 65.09 150.699 66.005 150.699 67.355C150.699 68.675 149.754 69.59 148.569 69.59ZM158.513 63.575C157.568 63.575 156.668 63.965 156.053 64.7H156.038V63.68H154.358V71H156.038V67.325C156.038 65.885 156.788 65.09 157.928 65.09C158.933 65.09 159.518 65.585 159.518 67.13V71H161.198V66.695C161.198 64.49 160.118 63.575 158.513 63.575ZM168.001 63.68L166.111 68.9H166.096L164.176 63.68H162.391L165.301 71H166.906L169.801 63.68H168.001ZM177.635 67.25C177.635 65.12 176.24 63.575 174.08 63.575C172.04 63.575 170.51 65.09 170.51 67.34C170.51 69.62 172.115 71.12 174.245 71.12C175.685 71.12 176.72 70.535 177.335 69.74L176.165 68.735C175.79 69.2 175.19 69.59 174.335 69.59C173.255 69.59 172.475 68.96 172.25 67.925H177.59C177.605 67.79 177.635 67.52 177.635 67.25ZM174.17 65.09C175.13 65.09 175.73 65.69 175.94 66.575H172.28C172.52 65.615 173.24 65.09 174.17 65.09ZM183.543 63.575C182.658 63.575 181.833 64.01 181.263 64.79H181.248V63.68H179.568V71H181.248V67.535C181.248 66.335 181.968 65.42 183.243 65.42C183.363 65.42 183.558 65.435 183.753 65.45V63.575H183.543ZM187.689 71.12C189.549 71.12 190.419 70.13 190.419 68.9C190.419 67.445 189.444 67.16 187.884 66.545C187.179 66.275 186.729 66.02 186.729 65.66C186.729 65.21 187.194 65.03 187.524 65.03C188.094 65.03 188.769 65.255 189.354 65.81L190.194 64.49C189.384 63.83 188.544 63.575 187.614 63.575C186.114 63.575 185.034 64.445 185.034 65.645C185.034 67.085 186.069 67.625 187.269 68.045C188.229 68.375 188.709 68.555 188.709 68.93C188.709 69.365 188.334 69.65 187.689 69.65C186.789 69.65 186.159 69.365 185.574 68.795L184.734 70.055C185.499 70.73 186.504 71.12 187.689 71.12ZM197.452 63.68V64.565H197.422C196.882 63.92 196.087 63.575 195.157 63.575C193.147 63.575 191.632 65.165 191.632 67.37C191.632 69.635 193.147 71.12 195.172 71.12C196.177 71.12 196.972 70.73 197.497 70.025H197.527V71H199.132V63.68H197.452ZM195.442 69.59C194.197 69.59 193.342 68.675 193.342 67.385C193.342 65.975 194.272 65.09 195.442 65.09C196.642 65.09 197.527 66.08 197.527 67.385C197.527 68.705 196.582 69.59 195.442 69.59ZM203.627 71.12C204.587 71.12 205.052 70.925 205.487 70.685L205.052 69.23C204.662 69.44 204.257 69.545 203.972 69.545C203.492 69.545 203.267 69.275 203.267 68.525V65.105H205.412V63.68H203.267V61.07L201.587 61.25V63.68H200.687V65.105H201.587V68.69C201.587 70.325 202.367 71.12 203.627 71.12ZM208.017 62.6C208.647 62.6 209.157 62.09 209.157 61.475C209.157 60.875 208.647 60.365 208.017 60.365C207.387 60.365 206.892 60.875 206.892 61.475C206.892 62.09 207.387 62.6 208.017 62.6ZM207.177 71H208.857V63.68H207.177V71ZM214.764 71.12C217.014 71.12 218.604 69.575 218.604 67.355C218.604 65.105 217.014 63.575 214.764 63.575C212.454 63.575 210.924 65.195 210.924 67.355C210.924 69.5 212.454 71.12 214.764 71.12ZM214.764 69.59C213.504 69.59 212.634 68.6 212.634 67.355C212.634 66.08 213.489 65.09 214.764 65.09C215.964 65.09 216.894 66.005 216.894 67.355C216.894 68.675 215.949 69.59 214.764 69.59ZM224.708 63.575C223.763 63.575 222.863 63.965 222.248 64.7H222.233V63.68H220.553V71H222.233V67.325C222.233 65.885 222.983 65.09 224.123 65.09C225.128 65.09 225.713 65.585 225.713 67.13V71H227.393V66.695C227.393 64.49 226.313 63.575 224.708 63.575ZM236.258 71H238.073V61.97H241.133V60.35H233.243V61.97H236.258V71ZM244.934 71.12C247.184 71.12 248.774 69.575 248.774 67.355C248.774 65.105 247.184 63.575 244.934 63.575C242.624 63.575 241.094 65.195 241.094 67.355C241.094 69.5 242.624 71.12 244.934 71.12ZM244.934 69.59C243.674 69.59 242.804 68.6 242.804 67.355C242.804 66.08 243.659 65.09 244.934 65.09C246.134 65.09 247.064 66.005 247.064 67.355C247.064 68.675 246.119 69.59 244.934 69.59ZM254.743 63.575C253.768 63.575 252.958 63.92 252.403 64.58V63.68H250.723V73.97H252.403V70.1H252.418C252.958 70.76 253.738 71.12 254.728 71.12C256.768 71.12 258.283 69.635 258.283 67.37C258.283 65.165 256.768 63.575 254.743 63.575ZM254.473 69.59C253.273 69.59 252.328 68.705 252.328 67.385C252.328 66.08 253.198 65.09 254.458 65.09C255.628 65.09 256.573 65.975 256.573 67.385C256.573 68.675 255.703 69.59 254.473 69.59ZM261.184 62.6C261.814 62.6 262.324 62.09 262.324 61.475C262.324 60.875 261.814 60.365 261.184 60.365C260.554 60.365 260.059 60.875 260.059 61.475C260.059 62.09 260.554 62.6 261.184 62.6ZM260.344 71H262.024V63.68H260.344V71ZM267.826 71.12C269.236 71.12 270.361 70.55 270.991 69.83L269.836 68.81C269.446 69.23 268.786 69.59 267.976 69.59C266.686 69.59 265.801 68.69 265.801 67.34C265.801 66.005 266.671 65.09 267.976 65.09C268.771 65.09 269.401 65.435 269.821 65.93L270.961 64.94C270.226 64.04 269.026 63.575 267.886 63.575C265.666 63.575 264.091 65.105 264.091 67.355C264.091 69.59 265.666 71.12 267.826 71.12ZM275.05 71.12C276.91 71.12 277.78 70.13 277.78 68.9C277.78 67.445 276.805 67.16 275.245 66.545C274.54 66.275 274.09 66.02 274.09 65.66C274.09 65.21 274.555 65.03 274.885 65.03C275.455 65.03 276.13 65.255 276.715 65.81L277.555 64.49C276.745 63.83 275.905 63.575 274.975 63.575C273.475 63.575 272.395 64.445 272.395 65.645C272.395 67.085 273.43 67.625 274.63 68.045C275.59 68.375 276.07 68.555 276.07 68.93C276.07 69.365 275.695 69.65 275.05 69.65C274.15 69.65 273.52 69.365 272.935 68.795L272.095 70.055C272.86 70.73 273.865 71.12 275.05 71.12Z" fill="#001951"/>
<path d="M110.5 55C103.608 55 98 59.8873 98 65.8947C98 67.9946 98.6859 70.0287 99.9867 71.7876C99.7405 74.4253 99.0805 76.3835 98.1221 77.3112C97.9955 77.4339 97.9638 77.6215 98.0438 77.7765C98.1146 77.9149 98.2605 78 98.4167 78C98.4359 78 98.455 77.9988 98.4746 77.996C98.6434 77.973 102.563 77.4266 105.399 75.8416C107.009 76.4707 108.724 76.7895 110.5 76.7895C117.393 76.7895 123 71.9022 123 65.8947C123 59.8873 117.393 55 110.5 55ZM104.667 67.5088C103.748 67.5088 103 66.7849 103 65.8947C103 65.0046 103.748 64.2807 104.667 64.2807C105.586 64.2807 106.333 65.0046 106.333 65.8947C106.333 66.7849 105.586 67.5088 104.667 67.5088ZM110.5 67.5088C109.581 67.5088 108.833 66.7849 108.833 65.8947C108.833 65.0046 109.581 64.2807 110.5 64.2807C111.419 64.2807 112.167 65.0046 112.167 65.8947C112.167 66.7849 111.419 67.5088 110.5 67.5088ZM116.333 67.5088C115.414 67.5088 114.667 66.7849 114.667 65.8947C114.667 65.0046 115.414 64.2807 116.333 64.2807C117.253 64.2807 118 65.0046 118 65.8947C118 66.7849 117.253 67.5088 116.333 67.5088Z" fill="#36A18B"/>
<g filter="url(#filter6_d)">
<rect x="270" y="118" width="158" height="68" rx="10" fill="white"/>
</g>
<path opacity="0.8" d="M326.305 159H328.12V155.205H329.95C332.245 155.205 333.805 154.11 333.805 151.8C333.805 149.82 332.71 148.35 330.16 148.35H326.305V159ZM328.12 153.57V149.97H329.905C331.21 149.97 331.93 150.645 331.93 151.77C331.93 152.82 331.255 153.57 329.77 153.57H328.12ZM335.834 159H337.514V147.96H335.834V159ZM345.386 151.68V152.565H345.356C344.816 151.92 344.021 151.575 343.091 151.575C341.081 151.575 339.566 153.165 339.566 155.37C339.566 157.635 341.081 159.12 343.106 159.12C344.111 159.12 344.906 158.73 345.431 158.025H345.461V159H347.066V151.68H345.386ZM343.376 157.59C342.131 157.59 341.276 156.675 341.276 155.385C341.276 153.975 342.206 153.09 343.376 153.09C344.576 153.09 345.461 154.08 345.461 155.385C345.461 156.705 344.516 157.59 343.376 157.59ZM354.26 151.68L352.37 156.63L350.345 151.68H348.575L351.545 158.58L350.225 161.97H351.995L356.015 151.68H354.26ZM365.216 159.12C366.926 159.12 368.891 158.13 368.891 155.925C368.891 153.87 367.421 153.375 365.591 152.655C364.301 152.16 363.581 151.89 363.596 151.11C363.611 150.315 364.271 149.865 365.096 149.865C365.816 149.865 366.671 150.24 367.541 150.96L368.621 149.535C367.541 148.68 366.356 148.215 365.096 148.23C363.251 148.23 361.721 149.535 361.721 151.2C361.721 153.15 363.326 153.87 364.946 154.44C366.296 154.92 367.001 155.22 367.001 156.15C367.001 156.93 366.401 157.44 365.231 157.44C364.316 157.44 363.266 156.975 362.501 156.045L361.361 157.44C362.471 158.595 363.851 159.12 365.216 159.12ZM373.814 155.925L375.719 159H377.609L374.924 154.635L377.564 151.68H375.569L372.569 155.025V147.96H370.889V159H372.569V157.275L373.784 155.925H373.814ZM380.061 150.6C380.691 150.6 381.201 150.09 381.201 149.475C381.201 148.875 380.691 148.365 380.061 148.365C379.431 148.365 378.936 148.875 378.936 149.475C378.936 150.09 379.431 150.6 380.061 150.6ZM379.221 159H380.901V151.68H379.221V159ZM383.508 159H385.188V147.96H383.508V159ZM387.795 159H389.475V147.96H387.795V159ZM394.317 159.12C396.177 159.12 397.047 158.13 397.047 156.9C397.047 155.445 396.072 155.16 394.512 154.545C393.807 154.275 393.357 154.02 393.357 153.66C393.357 153.21 393.822 153.03 394.152 153.03C394.722 153.03 395.397 153.255 395.982 153.81L396.822 152.49C396.012 151.83 395.172 151.575 394.242 151.575C392.742 151.575 391.662 152.445 391.662 153.645C391.662 155.085 392.697 155.625 393.897 156.045C394.857 156.375 395.337 156.555 395.337 156.93C395.337 157.365 394.962 157.65 394.317 157.65C393.417 157.65 392.787 157.365 392.202 156.795L391.362 158.055C392.127 158.73 393.132 159.12 394.317 159.12Z" fill="#001951"/>
<g filter="url(#filter7_d)">
<rect x="270" y="118" width="206" height="68" rx="10" fill="white"/>
</g>
<path opacity="0.8" d="M329.485 159.12C331.195 159.12 333.16 158.13 333.16 155.925C333.16 153.87 331.69 153.375 329.86 152.655C328.57 152.16 327.85 151.89 327.865 151.11C327.88 150.315 328.54 149.865 329.365 149.865C330.085 149.865 330.94 150.24 331.81 150.96L332.89 149.535C331.81 148.68 330.625 148.215 329.365 148.23C327.52 148.23 325.99 149.535 325.99 151.2C325.99 153.15 327.595 153.87 329.215 154.44C330.565 154.92 331.27 155.22 331.27 156.15C331.27 156.93 330.67 157.44 329.5 157.44C328.585 157.44 327.535 156.975 326.77 156.045L325.63 157.44C326.74 158.595 328.12 159.12 329.485 159.12ZM339.342 151.575C338.352 151.575 337.467 151.92 336.852 152.61H336.837V147.96H335.157V159H336.837V155.28C336.837 153.84 337.587 153.09 338.802 153.09C339.807 153.09 340.392 153.6 340.392 155.055V159H342.072V154.62C342.072 152.43 340.947 151.575 339.342 151.575ZM347.727 159.12C349.977 159.12 351.567 157.575 351.567 155.355C351.567 153.105 349.977 151.575 347.727 151.575C345.417 151.575 343.887 153.195 343.887 155.355C343.887 157.5 345.417 159.12 347.727 159.12ZM347.727 157.59C346.467 157.59 345.597 156.6 345.597 155.355C345.597 154.08 346.452 153.09 347.727 153.09C348.927 153.09 349.857 154.005 349.857 155.355C349.857 156.675 348.912 157.59 347.727 157.59ZM361.521 151.68L359.946 156.51H359.916L358.491 151.68H357.081L355.671 156.495H355.641L354.066 151.68H352.356L354.876 159H356.391L357.771 154.395H357.786L359.166 159H360.711L363.231 151.68H361.521ZM365.823 150.6C366.453 150.6 366.963 150.09 366.963 149.475C366.963 148.875 366.453 148.365 365.823 148.365C365.193 148.365 364.698 148.875 364.698 149.475C364.698 150.09 365.193 150.6 365.823 150.6ZM364.983 159H366.663V151.68H364.983V159ZM373.32 151.575C372.375 151.575 371.475 151.965 370.86 152.7H370.845V151.68H369.165V159H370.845V155.325C370.845 153.885 371.595 153.09 372.735 153.09C373.74 153.09 374.325 153.585 374.325 155.13V159H376.005V154.695C376.005 152.49 374.925 151.575 373.32 151.575ZM383.582 151.68V152.46H383.552C382.937 151.875 382.112 151.575 381.272 151.575C379.247 151.575 377.792 153.12 377.792 155.265C377.792 157.44 379.322 158.88 381.362 158.88C382.277 158.88 383.042 158.55 383.597 157.98H383.612V158.76C383.612 159.735 382.877 160.56 381.437 160.56C380.387 160.56 379.742 160.26 378.947 159.84L378.542 161.31C379.367 161.805 380.432 162.075 381.527 162.075C384.242 162.075 385.262 160.47 385.262 158.25V151.68H383.582ZM381.587 157.335C380.402 157.335 379.502 156.525 379.502 155.22C379.502 153.975 380.342 153.105 381.587 153.105C382.757 153.105 383.657 153.945 383.657 155.19C383.657 156.435 382.802 157.335 381.587 157.335ZM391.992 159H399.012V157.38H393.807V154.53H397.752V152.91H393.807V149.97H398.697V148.35H391.992V159ZM409.913 151.575C408.833 151.575 407.903 151.995 407.288 152.79H407.258C406.823 151.965 406.058 151.575 405.068 151.575C404.228 151.575 403.388 151.965 402.788 152.7H402.773V151.68H401.093V159H402.773V155.355C402.773 153.915 403.523 153.09 404.528 153.09C405.518 153.09 405.983 153.87 405.983 155.19V159H407.663V155.355C407.663 153.915 408.428 153.09 409.373 153.09C410.363 153.09 410.798 153.87 410.798 155.19V159H412.478V154.77C412.478 152.58 411.518 151.575 409.913 151.575ZM418.775 151.575C417.8 151.575 416.99 151.92 416.435 152.58V151.68H414.755V161.97H416.435V158.1H416.45C416.99 158.76 417.77 159.12 418.76 159.12C420.8 159.12 422.315 157.635 422.315 155.37C422.315 153.165 420.8 151.575 418.775 151.575ZM418.505 157.59C417.305 157.59 416.36 156.705 416.36 155.385C416.36 154.08 417.23 153.09 418.49 153.09C419.66 153.09 420.605 153.975 420.605 155.385C420.605 156.675 419.735 157.59 418.505 157.59ZM429.642 151.68V152.565H429.612C429.072 151.92 428.277 151.575 427.347 151.575C425.337 151.575 423.822 153.165 423.822 155.37C423.822 157.635 425.337 159.12 427.362 159.12C428.367 159.12 429.162 158.73 429.687 158.025H429.717V159H431.322V151.68H429.642ZM427.632 157.59C426.387 157.59 425.532 156.675 425.532 155.385C425.532 153.975 426.462 153.09 427.632 153.09C428.832 153.09 429.717 154.08 429.717 155.385C429.717 156.705 428.772 157.59 427.632 157.59ZM435.816 159.12C436.776 159.12 437.241 158.925 437.676 158.685L437.241 157.23C436.851 157.44 436.446 157.545 436.161 157.545C435.681 157.545 435.456 157.275 435.456 156.525V153.105H437.601V151.68H435.456V149.07L433.776 149.25V151.68H432.876V153.105H433.776V156.69C433.776 158.325 434.556 159.12 435.816 159.12ZM443.505 151.575C442.515 151.575 441.63 151.92 441.015 152.61H441V147.96H439.32V159H441V155.28C441 153.84 441.75 153.09 442.965 153.09C443.97 153.09 444.555 153.6 444.555 155.055V159H446.235V154.62C446.235 152.43 445.11 151.575 443.505 151.575ZM453.008 151.68L451.118 156.63L449.093 151.68H447.323L450.293 158.58L448.973 161.97H450.743L454.763 151.68H453.008Z" fill="#001951"/>
<path d="M309.1 139C307.572 139 306.225 139.79 305.437 140.987C304.648 139.79 303.301 139 301.774 139C299.191 139 297.387 141.024 297.387 143.922C297.387 147.508 300.495 149.576 304.146 152.776L305.528 153.988L307.469 152.286C310.799 149.372 313.486 147.23 313.486 143.922C313.486 141.024 311.682 139 309.1 139Z" fill="#36A18B"/>
<path d="M311.001 157.394L307.583 159.605H298.838V158.141H303.232C304.097 158.141 304.888 157.76 305.43 157.145C305.884 156.632 306.162 155.958 306.162 155.211H301.592C301.182 155.211 301.021 154.918 300.757 154.727C299.805 153.878 298.589 153.453 297.373 153.453C296.186 153.453 294.686 153.924 293.365 155.211H290V164C294.093 164 303.068 164 307.188 164L315 158.141C314.106 156.881 312.349 156.5 311.001 157.394Z" fill="#36A18B"/>
<g filter="url(#filter8_d)">
<rect x="700" y="118" width="159" height="68" rx="10" fill="white"/>
</g>
<path opacity="0.8" d="M757.485 159.12C759.195 159.12 761.16 158.13 761.16 155.925C761.16 153.87 759.69 153.375 757.86 152.655C756.57 152.16 755.85 151.89 755.865 151.11C755.88 150.315 756.54 149.865 757.365 149.865C758.085 149.865 758.94 150.24 759.81 150.96L760.89 149.535C759.81 148.68 758.625 148.215 757.365 148.23C755.52 148.23 753.99 149.535 753.99 151.2C753.99 153.15 755.595 153.87 757.215 154.44C758.565 154.92 759.27 155.22 759.27 156.15C759.27 156.93 758.67 157.44 757.5 157.44C756.585 157.44 755.535 156.975 754.77 156.045L753.63 157.44C754.74 158.595 756.12 159.12 757.485 159.12ZM769.847 155.25C769.847 153.12 768.452 151.575 766.292 151.575C764.252 151.575 762.722 153.09 762.722 155.34C762.722 157.62 764.327 159.12 766.457 159.12C767.897 159.12 768.932 158.535 769.547 157.74L768.377 156.735C768.002 157.2 767.402 157.59 766.547 157.59C765.467 157.59 764.687 156.96 764.462 155.925H769.802C769.817 155.79 769.847 155.52 769.847 155.25ZM766.382 153.09C767.342 153.09 767.942 153.69 768.152 154.575H764.492C764.732 153.615 765.452 153.09 766.382 153.09ZM771.885 159H773.565V147.96H771.885V159ZM776.337 159H778.017V153.105H779.817V151.68H778.017V150.525C778.017 149.73 778.287 149.385 778.797 149.385C779.112 149.385 779.532 149.535 780.012 149.76L780.387 148.35C779.997 148.095 779.367 147.84 778.557 147.84C777.117 147.84 776.337 148.71 776.337 150.345V151.68H775.527V153.105H776.337V159ZM780.977 155.19H785.492V153.555H780.977V155.19ZM787.795 159H794.815V157.38H789.61V154.53H793.555V152.91H789.61V149.97H794.5V148.35H787.795V159ZM799.237 159.12C801.097 159.12 801.967 158.13 801.967 156.9C801.967 155.445 800.992 155.16 799.432 154.545C798.727 154.275 798.277 154.02 798.277 153.66C798.277 153.21 798.742 153.03 799.072 153.03C799.642 153.03 800.317 153.255 800.902 153.81L801.742 152.49C800.932 151.83 800.092 151.575 799.162 151.575C797.662 151.575 796.582 152.445 796.582 153.645C796.582 155.085 797.617 155.625 798.817 156.045C799.777 156.375 800.257 156.555 800.257 156.93C800.257 157.365 799.882 157.65 799.237 157.65C798.337 157.65 797.707 157.365 797.122 156.795L796.282 158.055C797.047 158.73 798.052 159.12 799.237 159.12ZM806.01 159.12C806.97 159.12 807.435 158.925 807.87 158.685L807.435 157.23C807.045 157.44 806.64 157.545 806.355 157.545C805.875 157.545 805.65 157.275 805.65 156.525V153.105H807.795V151.68H805.65V149.07L803.97 149.25V151.68H803.07V153.105H803.97V156.69C803.97 158.325 804.75 159.12 806.01 159.12ZM815.852 155.25C815.852 153.12 814.457 151.575 812.297 151.575C810.257 151.575 808.727 153.09 808.727 155.34C808.727 157.62 810.332 159.12 812.462 159.12C813.902 159.12 814.937 158.535 815.552 157.74L814.382 156.735C814.007 157.2 813.407 157.59 812.552 157.59C811.472 157.59 810.692 156.96 810.467 155.925H815.807C815.822 155.79 815.852 155.52 815.852 155.25ZM812.387 153.09C813.347 153.09 813.947 153.69 814.157 154.575H810.497C810.737 153.615 811.457 153.09 812.387 153.09ZM824.475 155.25C824.475 153.12 823.08 151.575 820.92 151.575C818.88 151.575 817.35 153.09 817.35 155.34C817.35 157.62 818.955 159.12 821.085 159.12C822.525 159.12 823.56 158.535 824.175 157.74L823.005 156.735C822.63 157.2 822.03 157.59 821.175 157.59C820.095 157.59 819.315 156.96 819.09 155.925H824.43C824.445 155.79 824.475 155.52 824.475 155.25ZM821.01 153.09C821.97 153.09 822.57 153.69 822.78 154.575H819.12C819.36 153.615 820.08 153.09 821.01 153.09ZM835.228 151.575C834.148 151.575 833.218 151.995 832.603 152.79H832.573C832.138 151.965 831.373 151.575 830.383 151.575C829.543 151.575 828.703 151.965 828.103 152.7H828.088V151.68H826.408V159H828.088V155.355C828.088 153.915 828.838 153.09 829.843 153.09C830.833 153.09 831.298 153.87 831.298 155.19V159H832.978V155.355C832.978 153.915 833.743 153.09 834.688 153.09C835.678 153.09 836.113 153.87 836.113 155.19V159H837.793V154.77C837.793 152.58 836.833 151.575 835.228 151.575Z" fill="#001951"/>
<path d="M730.417 148.333C730.992 148.333 731.458 147.867 731.458 147.292C731.458 146.716 730.992 146.25 730.417 146.25C729.841 146.25 729.375 146.716 729.375 147.292C729.375 147.867 729.841 148.333 730.417 148.333Z" fill="#36A18B"/>
<path d="M740.086 157.551C741.244 156.32 742.086 154.824 742.537 153.195C742.988 151.566 743.036 149.851 742.676 148.199C742.316 146.547 741.56 145.008 740.472 143.713C739.384 142.419 737.997 141.409 736.432 140.771C734.866 140.133 733.169 139.885 731.486 140.049C729.803 140.214 728.186 140.785 726.774 141.715C725.361 142.644 724.196 143.903 723.38 145.383C722.563 146.864 722.119 148.521 722.085 150.211L720.074 155.238C719.977 155.481 719.975 155.751 720.068 155.995C720.161 156.239 720.342 156.44 720.576 156.557L722.083 157.31V161.875C722.083 162.151 722.193 162.416 722.388 162.612C722.584 162.807 722.849 162.917 723.125 162.917H728.731L729.485 164.424C729.572 164.597 729.705 164.743 729.869 164.844C730.034 164.946 730.223 165 730.417 165H740.833C740.995 165 741.154 164.963 741.298 164.891C741.442 164.819 741.568 164.714 741.665 164.586C741.762 164.457 741.828 164.307 741.858 164.149C741.887 163.99 741.879 163.827 741.835 163.672L740.086 157.551ZM735.625 144.167H737.708V150.417H735.625V144.167ZM729.375 157.708H727.292V151.458H729.375V157.708ZM727.292 147.292C727.292 146.673 727.475 146.069 727.818 145.555C728.162 145.041 728.65 144.641 729.221 144.404C729.792 144.168 730.42 144.106 731.026 144.227C731.633 144.347 732.189 144.645 732.626 145.082C733.064 145.519 733.361 146.076 733.482 146.682C733.602 147.288 733.54 147.916 733.304 148.487C733.067 149.058 732.667 149.547 732.153 149.89C731.639 150.233 731.035 150.417 730.417 150.417C729.588 150.416 728.794 150.086 728.208 149.5C727.622 148.914 727.293 148.12 727.292 147.292ZM734.583 157.708C733.965 157.708 733.361 157.525 732.847 157.182C732.333 156.838 731.933 156.35 731.696 155.779C731.46 155.208 731.398 154.58 731.518 153.974C731.639 153.367 731.937 152.811 732.374 152.374C732.811 151.936 733.368 151.639 733.974 151.518C734.58 151.398 735.208 151.46 735.779 151.696C736.35 151.933 736.838 152.333 737.182 152.847C737.525 153.361 737.708 153.965 737.708 154.583C737.708 155.412 737.378 156.206 736.792 156.792C736.206 157.378 735.412 157.707 734.583 157.708Z" fill="#36A18B"/>
<path d="M734.583 155.625C735.159 155.625 735.625 155.158 735.625 154.583C735.625 154.008 735.159 153.542 734.583 153.542C734.008 153.542 733.542 154.008 733.542 154.583C733.542 155.158 734.008 155.625 734.583 155.625Z" fill="#36A18B"/>
</g>
<defs>
<filter id="filter0_d" x="-140" y="-390" width="1560" height="2256" filterUnits="userSpaceOnUse" color-interpolation-filters="sRGB">
<feFlood flood-opacity="0" result="BackgroundImageFix"/>
<feColorMatrix in="SourceAlpha" type="matrix" values="0 0 0 0 0 0 0 0 0 0 0 0 0 0 0 0 0 0 127 0"/>
<feOffset dy="10"/>
<feGaussianBlur stdDeviation="30"/>
<feColorMatrix type="matrix" values="0 0 0 0 0 0 0 0 0 0 0 0 0 0 0 0 0 0 0.04 0"/>
<feBlend mode="normal" in2="BackgroundImageFix" result="effect1_dropShadow"/>
<feBlend mode="normal" in="SourceGraphic" in2="effect1_dropShadow" result="shape"/>
</filter>
<filter id="filter1_d" x="530" y="-60" width="445" height="268" filterUnits="userSpaceOnUse" color-interpolation-filters="sRGB">
<feFlood flood-opacity="0" result="BackgroundImageFix"/>
<feColorMatrix in="SourceAlpha" type="matrix" values="0 0 0 0 0 0 0 0 0 0 0 0 0 0 0 0 0 0 127 0"/>
<feOffset dx="20" dy="10"/>
<feGaussianBlur stdDeviation="50"/>
<feColorMatrix type="matrix" values="0 0 0 0 0 0 0 0 0 0 0 0 0 0 0 0 0 0 0.07 0"/>
<feBlend mode="normal" in2="BackgroundImageFix" result="effect1_dropShadow"/>
<feBlend mode="normal" in="SourceGraphic" in2="effect1_dropShadow" result="shape"/>
</filter>
<filter id="filter2_d" x="239" y="-60" width="451" height="268" filterUnits="userSpaceOnUse" color-interpolation-filters="sRGB">
<feFlood flood-opacity="0" result="BackgroundImageFix"/>
<feColorMatrix in="SourceAlpha" type="matrix" values="0 0 0 0 0 0 0 0 0 0 0 0 0 0 0 0 0 0 127 0"/>
<feOffset dy="10"/>
<feGaussianBlur stdDeviation="50"/>
<feColorMatrix type="matrix" values="0 0 0 0 0 0 0 0 0 0 0 0 0 0 0 0 0 0 0.05 0"/>
<feBlend mode="normal" in2="BackgroundImageFix" result="effect1_dropShadow"/>
<feBlend mode="normal" in="SourceGraphic" in2="effect1_dropShadow" result="shape"/>
</filter>
<filter id="filter3_d" x="-40" y="28" width="390" height="268" filterUnits="userSpaceOnUse" color-interpolation-filters="sRGB">
<feFlood flood-opacity="0" result="BackgroundImageFix"/>
<feColorMatrix in="SourceAlpha" type="matrix" values="0 0 0 0 0 0 0 0 0 0 0 0 0 0 0 0 0 0 127 0"/>
<feOffset dy="10"/>
<feGaussianBlur stdDeviation="50"/>
<feColorMatrix type="matrix" values="0 0 0 0 0 0 0 0 0 0 0 0 0 0 0 0 0 0 0.05 0"/>
<feBlend mode="normal" in2="BackgroundImageFix" result="effect1_dropShadow"/>
<feBlend mode="normal" in="SourceGraphic" in2="effect1_dropShadow" result="shape"/>
</filter>
<filter id="filter4_d" x="396" y="28" width="384" height="268" filterUnits="userSpaceOnUse" color-interpolation-filters="sRGB">
<feFlood flood-opacity="0" result="BackgroundImageFix"/>
<feColorMatrix in="SourceAlpha" type="matrix" values="0 0 0 0 0 0 0 0 0 0 0 0 0 0 0 0 0 0 127 0"/>
<feOffset dy="10"/>
<feGaussianBlur stdDeviation="50"/>
<feColorMatrix type="matrix" values="0 0 0 0 0 0 0 0 0 0 0 0 0 0 0 0 0 0 0.05 0"/>
<feBlend mode="normal" in2="BackgroundImageFix" result="effect1_dropShadow"/>
<feBlend mode="normal" in="SourceGraphic" in2="effect1_dropShadow" result="shape"/>
</filter>
<filter id="filter5_d" x="-22" y="-60" width="441" height="268" filterUnits="userSpaceOnUse" color-interpolation-filters="sRGB">
<feFlood flood-opacity="0" result="BackgroundImageFix"/>
<feColorMatrix in="SourceAlpha" type="matrix" values="0 0 0 0 0 0 0 0 0 0 0 0 0 0 0 0 0 0 127 0"/>
<feOffset dy="10"/>
<feGaussianBlur stdDeviation="50"/>
<feColorMatrix type="matrix" values="0 0 0 0 0 0 0 0 0 0 0 0 0 0 0 0 0 0 0.05 0"/>
<feBlend mode="normal" in2="BackgroundImageFix" result="effect1_dropShadow"/>
<feBlend mode="normal" in="SourceGraphic" in2="effect1_dropShadow" result="shape"/>
</filter>
<filter id="filter6_d" x="170" y="28" width="358" height="268" filterUnits="userSpaceOnUse" color-interpolation-filters="sRGB">
<feFlood flood-opacity="0" result="BackgroundImageFix"/>
<feColorMatrix in="SourceAlpha" type="matrix" values="0 0 0 0 0 0 0 0 0 0 0 0 0 0 0 0 0 0 127 0"/>
<feOffset dy="10"/>
<feGaussianBlur stdDeviation="50"/>
<feColorMatrix type="matrix" values="0 0 0 0 0 0 0 0 0 0 0 0 0 0 0 0 0 0 0.05 0"/>
<feBlend mode="normal" in2="BackgroundImageFix" result="effect1_dropShadow"/>
<feBlend mode="normal" in="SourceGraphic" in2="effect1_dropShadow" result="shape"/>
</filter>
<filter id="filter7_d" x="170" y="28" width="406" height="268" filterUnits="userSpaceOnUse" color-interpolation-filters="sRGB">
<feFlood flood-opacity="0" result="BackgroundImageFix"/>
<feColorMatrix in="SourceAlpha" type="matrix" values="0 0 0 0 0 0 0 0 0 0 0 0 0 0 0 0 0 0 127 0"/>
<feOffset dy="10"/>
<feGaussianBlur stdDeviation="50"/>
<feColorMatrix type="matrix" values="0 0 0 0 0 0 0 0 0 0 0 0 0 0 0 0 0 0 0.05 0"/>
<feBlend mode="normal" in2="BackgroundImageFix" result="effect1_dropShadow"/>
<feBlend mode="normal" in="SourceGraphic" in2="effect1_dropShadow" result="shape"/>
</filter>
<filter id="filter8_d" x="620" y="28" width="359" height="268" filterUnits="userSpaceOnUse" color-interpolation-filters="sRGB">
<feFlood flood-opacity="0" result="BackgroundImageFix"/>
<feColorMatrix in="SourceAlpha" type="matrix" values="0 0 0 0 0 0 0 0 0 0 0 0 0 0 0 0 0 0 127 0"/>
<feOffset dx="20" dy="10"/>
<feGaussianBlur stdDeviation="50"/>
<feColorMatrix type="matrix" values="0 0 0 0 0 0 0 0 0 0 0 0 0 0 0 0 0 0 0.07 0"/>
<feBlend mode="normal" in2="BackgroundImageFix" result="effect1_dropShadow"/>
<feBlend mode="normal" in="SourceGraphic" in2="effect1_dropShadow" result="shape"/>
</filter>
<clipPath id="clip0">
<rect x="-81" y="-2404" width="1440" height="10420"/>
</clipPath>
</defs>
</svg>
