<svg width="529" height="240" viewBox="0 0 529 240" fill="none" xmlns="http://www.w3.org/2000/svg">
<g clip-path="url(#clip0)">
<rect x="-762" y="-2720" width="1440" height="10420"/>
<g filter="url(#filter0_d)">
<rect x="-761" y="-656" width="1440" height="2136"/>
</g>
<rect x="20" width="509" height="220" rx="20" fill="#F5E3B4"/>
<rect x="1.5" y="21.5" width="506" height="217" rx="18.5" stroke="#F4E2B4" stroke-width="3"/>
<g filter="url(#filter1_d)">
<rect x="60" y="30" width="234" height="70" rx="10" fill="white"/>
</g>
<path opacity="0.8" d="M126.35 66.56L129.41 71H131.66L127.535 65.105L131.54 60.35H129.23L125.15 65.45H125.12V60.35H123.305V71H125.12V67.985L126.32 66.56H126.35ZM134.069 62.6C134.699 62.6 135.209 62.09 135.209 61.475C135.209 60.875 134.699 60.365 134.069 60.365C133.439 60.365 132.944 60.875 132.944 61.475C132.944 62.09 133.439 62.6 134.069 62.6ZM133.229 71H134.909V63.68H133.229V71ZM141.566 63.575C140.621 63.575 139.721 63.965 139.106 64.7H139.091V63.68H137.411V71H139.091V67.325C139.091 65.885 139.841 65.09 140.981 65.09C141.986 65.09 142.571 65.585 142.571 67.13V71H144.251V66.695C144.251 64.49 143.171 63.575 141.566 63.575ZM151.948 59.96V64.565H151.918C151.363 63.92 150.553 63.575 149.593 63.575C147.583 63.575 146.053 65.165 146.053 67.37C146.053 69.635 147.583 71.12 149.608 71.12C150.643 71.12 151.438 70.73 151.978 70.025H152.008V71H153.613V59.96H151.948ZM149.863 69.59C148.633 69.59 147.763 68.675 147.763 67.385C147.763 65.975 148.708 65.09 149.878 65.09C151.138 65.09 152.008 66.08 152.008 67.385C152.008 68.705 151.063 69.59 149.863 69.59ZM162.694 67.25C162.694 65.12 161.299 63.575 159.139 63.575C157.099 63.575 155.569 65.09 155.569 67.34C155.569 69.62 157.174 71.12 159.304 71.12C160.744 71.12 161.779 70.535 162.394 69.74L161.224 68.735C160.849 69.2 160.249 69.59 159.394 69.59C158.314 69.59 157.534 68.96 157.309 67.925H162.649C162.664 67.79 162.694 67.52 162.694 67.25ZM159.229 65.09C160.189 65.09 160.789 65.69 160.999 66.575H157.339C157.579 65.615 158.299 65.09 159.229 65.09ZM168.602 63.575C167.717 63.575 166.892 64.01 166.322 64.79H166.307V63.68H164.627V71H166.307V67.535C166.307 66.335 167.027 65.42 168.302 65.42C168.422 65.42 168.617 65.435 168.812 65.45V63.575H168.602ZM175.528 63.68V64.46H175.498C174.883 63.875 174.058 63.575 173.218 63.575C171.193 63.575 169.738 65.12 169.738 67.265C169.738 69.44 171.268 70.88 173.308 70.88C174.223 70.88 174.988 70.55 175.543 69.98H175.558V70.76C175.558 71.735 174.823 72.56 173.383 72.56C172.333 72.56 171.688 72.26 170.893 71.84L170.488 73.31C171.313 73.805 172.378 74.075 173.473 74.075C176.188 74.075 177.208 72.47 177.208 70.25V63.68H175.528ZM173.533 69.335C172.348 69.335 171.448 68.525 171.448 67.22C171.448 65.975 172.288 65.105 173.533 65.105C174.703 65.105 175.603 65.945 175.603 67.19C175.603 68.435 174.748 69.335 173.533 69.335ZM184.885 63.68V64.565H184.855C184.315 63.92 183.52 63.575 182.59 63.575C180.58 63.575 179.065 65.165 179.065 67.37C179.065 69.635 180.58 71.12 182.605 71.12C183.61 71.12 184.405 70.73 184.93 70.025H184.96V71H186.565V63.68H184.885ZM182.875 69.59C181.63 69.59 180.775 68.675 180.775 67.385C180.775 65.975 181.705 65.09 182.875 65.09C184.075 65.09 184.96 66.08 184.96 67.385C184.96 68.705 184.015 69.59 182.875 69.59ZM192.859 63.575C191.974 63.575 191.149 64.01 190.579 64.79H190.564V63.68H188.884V71H190.564V67.535C190.564 66.335 191.284 65.42 192.559 65.42C192.679 65.42 192.874 65.435 193.069 65.45V63.575H192.859ZM196.841 71.12C197.801 71.12 198.266 70.925 198.701 70.685L198.266 69.23C197.876 69.44 197.471 69.545 197.186 69.545C196.706 69.545 196.481 69.275 196.481 68.525V65.105H198.626V63.68H196.481V61.07L194.801 61.25V63.68H193.901V65.105H194.801V68.69C194.801 70.325 195.581 71.12 196.841 71.12ZM206.682 67.25C206.682 65.12 205.287 63.575 203.127 63.575C201.087 63.575 199.557 65.09 199.557 67.34C199.557 69.62 201.162 71.12 203.292 71.12C204.732 71.12 205.767 70.535 206.382 69.74L205.212 68.735C204.837 69.2 204.237 69.59 203.382 69.59C202.302 69.59 201.522 68.96 201.297 67.925H206.637C206.652 67.79 206.682 67.52 206.682 67.25ZM203.217 65.09C204.177 65.09 204.777 65.69 204.987 66.575H201.327C201.567 65.615 202.287 65.09 203.217 65.09ZM212.77 63.575C211.825 63.575 210.925 63.965 210.31 64.7H210.295V63.68H208.615V71H210.295V67.325C210.295 65.885 211.045 65.09 212.185 65.09C213.19 65.09 213.775 65.585 213.775 67.13V71H215.455V66.695C215.455 64.49 214.375 63.575 212.77 63.575Z" fill="#001951"/>
<path d="M108.636 77.2729H107.273V69.091H108.646C109.399 69.091 110.009 68.4805 110.009 67.7274C110.009 66.9743 109.399 66.3638 108.646 66.3638H105.909H105.377H103.909H86.0909H85.015H84.0909H81.3729C80.6198 66.3638 80.0093 66.9743 80.0093 67.7274C80.0093 68.4805 80.6198 69.091 81.3729 69.091H82.7273V77.2729H81.3636C80.6105 77.2729 80 77.8834 80 78.6365C80 79.3896 80.6105 80.0001 81.3636 80.0001H84.0909H84.9575H93.6364V77.2729V75.9087C93.6364 75.1555 94.2469 74.545 95 74.545C95.7531 74.545 96.3636 75.1555 96.3636 75.9087V77.2729V80.0001H105.587H105.909H108.636C109.389 80.0001 110 79.3896 110 78.6365C110 77.8834 109.389 77.2729 108.636 77.2729Z" fill="#EAC15B"/>
<path d="M103.909 62.2727C103.909 61.5196 103.298 60.9091 102.545 60.9091H95.4526V58.1818H100.456C101.209 58.1818 101.82 57.5713 101.82 56.8182V51.3636C101.82 50.6105 101.209 50 100.456 50H94.089C93.3359 50 92.7254 50.6105 92.7254 51.3636V56.8182V60.9091H87.4545C86.7014 60.9091 86.0908 61.5196 86.0908 62.2727V63.6364H103.909V62.2727Z" fill="#EAC15B"/>
<g filter="url(#filter2_d)">
<rect x="314" y="30" width="175" height="70" rx="10" fill="white"/>
</g>
<path opacity="0.8" d="M377.305 71H384.325V69.38H379.12V66.53H383.065V64.91H379.12V61.97H384.01V60.35H377.305V71ZM386.511 71H388.191V59.96H386.511V71ZM397.383 67.25C397.383 65.12 395.988 63.575 393.828 63.575C391.788 63.575 390.258 65.09 390.258 67.34C390.258 69.62 391.863 71.12 393.993 71.12C395.433 71.12 396.468 70.535 397.083 69.74L395.913 68.735C395.538 69.2 394.938 69.59 394.083 69.59C393.003 69.59 392.223 68.96 391.998 67.925H397.338C397.353 67.79 397.383 67.52 397.383 67.25ZM393.918 65.09C394.878 65.09 395.478 65.69 395.688 66.575H392.028C392.268 65.615 392.988 65.09 393.918 65.09ZM408.136 63.575C407.056 63.575 406.126 63.995 405.511 64.79H405.481C405.046 63.965 404.281 63.575 403.291 63.575C402.451 63.575 401.611 63.965 401.011 64.7H400.996V63.68H399.316V71H400.996V67.355C400.996 65.915 401.746 65.09 402.751 65.09C403.741 65.09 404.206 65.87 404.206 67.19V71H405.886V67.355C405.886 65.915 406.651 65.09 407.596 65.09C408.586 65.09 409.021 65.87 409.021 67.19V71H410.701V66.77C410.701 64.58 409.741 63.575 408.136 63.575ZM419.668 67.25C419.668 65.12 418.273 63.575 416.113 63.575C414.073 63.575 412.543 65.09 412.543 67.34C412.543 69.62 414.148 71.12 416.278 71.12C417.718 71.12 418.753 70.535 419.368 69.74L418.198 68.735C417.823 69.2 417.223 69.59 416.368 69.59C415.288 69.59 414.508 68.96 414.283 67.925H419.623C419.638 67.79 419.668 67.52 419.668 67.25ZM416.203 65.09C417.163 65.09 417.763 65.69 417.973 66.575H414.313C414.553 65.615 415.273 65.09 416.203 65.09ZM425.756 63.575C424.811 63.575 423.911 63.965 423.296 64.7H423.281V63.68H421.601V71H423.281V67.325C423.281 65.885 424.031 65.09 425.171 65.09C426.176 65.09 426.761 65.585 426.761 67.13V71H428.441V66.695C428.441 64.49 427.361 63.575 425.756 63.575ZM432.867 71.12C433.827 71.12 434.292 70.925 434.727 70.685L434.292 69.23C433.902 69.44 433.497 69.545 433.212 69.545C432.732 69.545 432.507 69.275 432.507 68.525V65.105H434.652V63.68H432.507V61.07L430.827 61.25V63.68H429.927V65.105H430.827V68.69C430.827 70.325 431.607 71.12 432.867 71.12ZM441.419 63.68V64.565H441.389C440.849 63.92 440.054 63.575 439.124 63.575C437.114 63.575 435.599 65.165 435.599 67.37C435.599 69.635 437.114 71.12 439.139 71.12C440.144 71.12 440.939 70.73 441.464 70.025H441.494V71H443.099V63.68H441.419ZM439.409 69.59C438.164 69.59 437.309 68.675 437.309 67.385C437.309 65.975 438.239 65.09 439.409 65.09C440.609 65.09 441.494 66.08 441.494 67.385C441.494 68.705 440.549 69.59 439.409 69.59ZM449.394 63.575C448.509 63.575 447.684 64.01 447.114 64.79H447.099V63.68H445.419V71H447.099V67.535C447.099 66.335 447.819 65.42 449.094 65.42C449.214 65.42 449.409 65.435 449.604 65.45V63.575H449.394ZM456.075 63.68L454.185 68.63L452.16 63.68H450.39L453.36 70.58L452.04 73.97H453.81L457.83 63.68H456.075Z" fill="#001951"/>
<path d="M362.5 62H356.5V59C356.5 58.1 355.9 57.5 355 57.5H350.5V56L356.5 53.75L350.5 51.5C350.5 50.6 349.9 50 349 50C348.1 50 347.5 50.6 347.5 51.5V57.5H343C342.1 57.5 341.5 58.1 341.5 59V62H335.5C334.6 62 334 62.6 334 63.5V80H346V74C346 73.1 346.6 72.5 347.5 72.5H350.5C351.4 72.5 352 73.1 352 74V80H364V63.5C364 62.6 363.4 62 362.5 62ZM340 77H337V74H340V77ZM340 71H337V68H340V71ZM349 66.5C347.35 66.5 346 65.15 346 63.5C346 61.85 347.35 60.5 349 60.5C350.65 60.5 352 61.85 352 63.5C352 65.15 350.65 66.5 349 66.5ZM361 77H358V74H361V77ZM361 71H358V68H361V71Z" fill="#EAC15B"/>
<g filter="url(#filter3_d)">
<rect x="269" y="120" width="179" height="70" rx="10" fill="white"/>
</g>
<path opacity="0.8" d="M332.305 161H334.12V156.725H338.935V161H340.735V150.35H338.935V155.105H334.12V150.35H332.305V161ZM344.08 152.6C344.71 152.6 345.22 152.09 345.22 151.475C345.22 150.875 344.71 150.365 344.08 150.365C343.45 150.365 342.955 150.875 342.955 151.475C342.955 152.09 343.45 152.6 344.08 152.6ZM343.24 161H344.92V153.68H343.24V161ZM352.747 153.68V154.46H352.717C352.102 153.875 351.277 153.575 350.437 153.575C348.412 153.575 346.957 155.12 346.957 157.265C346.957 159.44 348.487 160.88 350.527 160.88C351.442 160.88 352.207 160.55 352.762 159.98H352.777V160.76C352.777 161.735 352.042 162.56 350.602 162.56C349.552 162.56 348.907 162.26 348.112 161.84L347.707 163.31C348.532 163.805 349.597 164.075 350.692 164.075C353.407 164.075 354.427 162.47 354.427 160.25V153.68H352.747ZM350.752 159.335C349.567 159.335 348.667 158.525 348.667 157.22C348.667 155.975 349.507 155.105 350.752 155.105C351.922 155.105 352.822 155.945 352.822 157.19C352.822 158.435 351.967 159.335 350.752 159.335ZM360.918 153.575C359.928 153.575 359.043 153.92 358.428 154.61H358.413V149.96H356.733V161H358.413V157.28C358.413 155.84 359.163 155.09 360.378 155.09C361.383 155.09 361.968 155.6 361.968 157.055V161H363.648V156.62C363.648 154.43 362.523 153.575 360.918 153.575ZM373.502 161.12C375.212 161.12 377.177 160.13 377.177 157.925C377.177 155.87 375.707 155.375 373.877 154.655C372.587 154.16 371.867 153.89 371.882 153.11C371.897 152.315 372.557 151.865 373.382 151.865C374.102 151.865 374.957 152.24 375.827 152.96L376.907 151.535C375.827 150.68 374.642 150.215 373.382 150.23C371.537 150.23 370.007 151.535 370.007 153.2C370.007 155.15 371.612 155.87 373.232 156.44C374.582 156.92 375.287 157.22 375.287 158.15C375.287 158.93 374.687 159.44 373.517 159.44C372.602 159.44 371.552 158.975 370.787 158.045L369.647 159.44C370.757 160.595 372.137 161.12 373.502 161.12ZM382.474 161.12C383.884 161.12 385.009 160.55 385.639 159.83L384.484 158.81C384.094 159.23 383.434 159.59 382.624 159.59C381.334 159.59 380.449 158.69 380.449 157.34C380.449 156.005 381.319 155.09 382.624 155.09C383.419 155.09 384.049 155.435 384.469 155.93L385.609 154.94C384.874 154.04 383.674 153.575 382.534 153.575C380.314 153.575 378.739 155.105 378.739 157.355C378.739 159.59 380.314 161.12 382.474 161.12ZM391.542 153.575C390.552 153.575 389.667 153.92 389.052 154.61H389.037V149.96H387.357V161H389.037V157.28C389.037 155.84 389.787 155.09 391.002 155.09C392.007 155.09 392.592 155.6 392.592 157.055V161H394.272V156.62C394.272 154.43 393.147 153.575 391.542 153.575ZM399.927 161.12C402.177 161.12 403.767 159.575 403.767 157.355C403.767 155.105 402.177 153.575 399.927 153.575C397.617 153.575 396.087 155.195 396.087 157.355C396.087 159.5 397.617 161.12 399.927 161.12ZM399.927 159.59C398.667 159.59 397.797 158.6 397.797 157.355C397.797 156.08 398.652 155.09 399.927 155.09C401.127 155.09 402.057 156.005 402.057 157.355C402.057 158.675 401.112 159.59 399.927 159.59ZM409.121 161.12C411.371 161.12 412.961 159.575 412.961 157.355C412.961 155.105 411.371 153.575 409.121 153.575C406.811 153.575 405.281 155.195 405.281 157.355C405.281 159.5 406.811 161.12 409.121 161.12ZM409.121 159.59C407.861 159.59 406.991 158.6 406.991 157.355C406.991 156.08 407.846 155.09 409.121 155.09C410.321 155.09 411.251 156.005 411.251 157.355C411.251 158.675 410.306 159.59 409.121 159.59ZM415.015 161H416.695V149.96H415.015V161Z" fill="#001951"/>
<path d="M318.999 166.481H289V170H318.999V166.481Z" fill="#EAC15B"/>
<path d="M304 140L289 145.546V148.798H318.999V145.546L304 140Z" fill="#EAC15B"/>
<path d="M295.61 150.556H291.199V164.724H295.61V150.556Z" fill="#EAC15B"/>
<path d="M302.673 150.556H298.262V164.724H302.673V150.556Z" fill="#EAC15B"/>
<path d="M309.737 150.556H305.326V164.724H309.737V150.556Z" fill="#EAC15B"/>
<path d="M316.8 150.556H312.389V164.724H316.8V150.556Z" fill="#EAC15B"/>
<g filter="url(#filter4_d)">
<rect x="80" y="120" width="169" height="70" rx="10" fill="white"/>
</g>
<path opacity="0.8" d="M146.485 161.12C148.195 161.12 150.16 160.13 150.16 157.925C150.16 155.87 148.69 155.375 146.86 154.655C145.57 154.16 144.85 153.89 144.865 153.11C144.88 152.315 145.54 151.865 146.365 151.865C147.085 151.865 147.94 152.24 148.81 152.96L149.89 151.535C148.81 150.68 147.625 150.215 146.365 150.23C144.52 150.23 142.99 151.535 142.99 153.2C142.99 155.15 144.595 155.87 146.215 156.44C147.565 156.92 148.27 157.22 148.27 158.15C148.27 158.93 147.67 159.44 146.5 159.44C145.585 159.44 144.535 158.975 143.77 158.045L142.63 159.44C143.74 160.595 145.12 161.12 146.485 161.12ZM158.847 157.25C158.847 155.12 157.452 153.575 155.292 153.575C153.252 153.575 151.722 155.09 151.722 157.34C151.722 159.62 153.327 161.12 155.457 161.12C156.897 161.12 157.932 160.535 158.547 159.74L157.377 158.735C157.002 159.2 156.402 159.59 155.547 159.59C154.467 159.59 153.687 158.96 153.462 157.925H158.802C158.817 157.79 158.847 157.52 158.847 157.25ZM155.382 155.09C156.342 155.09 156.942 155.69 157.152 156.575H153.492C153.732 155.615 154.452 155.09 155.382 155.09ZM164.08 161.12C165.49 161.12 166.615 160.55 167.245 159.83L166.09 158.81C165.7 159.23 165.04 159.59 164.23 159.59C162.94 159.59 162.055 158.69 162.055 157.34C162.055 156.005 162.925 155.09 164.23 155.09C165.025 155.09 165.655 155.435 166.075 155.93L167.215 154.94C166.48 154.04 165.28 153.575 164.14 153.575C161.92 153.575 160.345 155.105 160.345 157.355C160.345 159.59 161.92 161.12 164.08 161.12ZM172.369 161.12C174.619 161.12 176.209 159.575 176.209 157.355C176.209 155.105 174.619 153.575 172.369 153.575C170.059 153.575 168.529 155.195 168.529 157.355C168.529 159.5 170.059 161.12 172.369 161.12ZM172.369 159.59C171.109 159.59 170.239 158.6 170.239 157.355C170.239 156.08 171.094 155.09 172.369 155.09C173.569 155.09 174.499 156.005 174.499 157.355C174.499 158.675 173.554 159.59 172.369 159.59ZM182.313 153.575C181.368 153.575 180.468 153.965 179.853 154.7H179.838V153.68H178.158V161H179.838V157.325C179.838 155.885 180.588 155.09 181.728 155.09C182.733 155.09 183.318 155.585 183.318 157.13V161H184.998V156.695C184.998 154.49 183.918 153.575 182.313 153.575ZM192.694 149.96V154.565H192.664C192.109 153.92 191.299 153.575 190.339 153.575C188.329 153.575 186.799 155.165 186.799 157.37C186.799 159.635 188.329 161.12 190.354 161.12C191.389 161.12 192.184 160.73 192.724 160.025H192.754V161H194.359V149.96H192.694ZM190.609 159.59C189.379 159.59 188.509 158.675 188.509 157.385C188.509 155.975 189.454 155.09 190.624 155.09C191.884 155.09 192.754 156.08 192.754 157.385C192.754 158.705 191.809 159.59 190.609 159.59ZM202.121 153.68V154.565H202.091C201.551 153.92 200.756 153.575 199.826 153.575C197.816 153.575 196.301 155.165 196.301 157.37C196.301 159.635 197.816 161.12 199.841 161.12C200.846 161.12 201.641 160.73 202.166 160.025H202.196V161H203.801V153.68H202.121ZM200.111 159.59C198.866 159.59 198.011 158.675 198.011 157.385C198.011 155.975 198.941 155.09 200.111 155.09C201.311 155.09 202.196 156.08 202.196 157.385C202.196 158.705 201.251 159.59 200.111 159.59ZM210.096 153.575C209.211 153.575 208.386 154.01 207.816 154.79H207.801V153.68H206.121V161H207.801V157.535C207.801 156.335 208.521 155.42 209.796 155.42C209.916 155.42 210.111 155.435 210.306 155.45V153.575H210.096ZM216.777 153.68L214.887 158.63L212.862 153.68H211.092L214.062 160.58L212.742 163.97H214.512L218.532 153.68H216.777Z" fill="#001951"/>
<path d="M129.25 167H128.5V150.5C128.5 149.6 127.9 149 127 149V147.5C127 146.6 126.4 146 125.5 146H121.75L115 140L107.5 146H104.5C103.6 146 103 146.6 103 147.5V149C102.1 149 101.5 149.6 101.5 150.5V167H100.75C100.3 167 100 167.3 100 167.75V169.25C100 169.7 100.3 170 100.75 170H129.25C129.7 170 130 169.7 130 169.25V167.75C130 167.3 129.7 167 129.25 167ZM114.55 143C115.45 143 116.05 143.6 116.05 144.5C116.05 145.4 115.45 146 114.55 146C113.8 146 113.05 145.4 113.05 144.5C113.05 143.6 113.65 143 114.55 143ZM109 164H104.5V159.5H109V164ZM109 156.5H104.5V152H109V156.5ZM118 167H112V162.5C112 160.85 113.35 159.5 115 159.5C116.65 159.5 118 160.85 118 162.5V167ZM118 156.5H112V152H118V156.5ZM125.5 164H121V159.5H125.5V164ZM125.5 156.5H121V152H125.5V156.5Z" fill="#EAC15B"/>
</g>
<defs>
<filter id="filter0_d" x="-821" y="-706" width="1560" height="2256" filterUnits="userSpaceOnUse" color-interpolation-filters="sRGB">
<feFlood flood-opacity="0" result="BackgroundImageFix"/>
<feColorMatrix in="SourceAlpha" type="matrix" values="0 0 0 0 0 0 0 0 0 0 0 0 0 0 0 0 0 0 127 0"/>
<feOffset dy="10"/>
<feGaussianBlur stdDeviation="30"/>
<feColorMatrix type="matrix" values="0 0 0 0 0 0 0 0 0 0 0 0 0 0 0 0 0 0 0.04 0"/>
<feBlend mode="normal" in2="BackgroundImageFix" result="effect1_dropShadow"/>
<feBlend mode="normal" in="SourceGraphic" in2="effect1_dropShadow" result="shape"/>
</filter>
<filter id="filter1_d" x="-40" y="-60" width="434" height="270" filterUnits="userSpaceOnUse" color-interpolation-filters="sRGB">
<feFlood flood-opacity="0" result="BackgroundImageFix"/>
<feColorMatrix in="SourceAlpha" type="matrix" values="0 0 0 0 0 0 0 0 0 0 0 0 0 0 0 0 0 0 127 0"/>
<feOffset dy="10"/>
<feGaussianBlur stdDeviation="50"/>
<feColorMatrix type="matrix" values="0 0 0 0 0 0 0 0 0 0 0 0 0 0 0 0 0 0 0.05 0"/>
<feBlend mode="normal" in2="BackgroundImageFix" result="effect1_dropShadow"/>
<feBlend mode="normal" in="SourceGraphic" in2="effect1_dropShadow" result="shape"/>
</filter>
<filter id="filter2_d" x="234" y="-60" width="375" height="270" filterUnits="userSpaceOnUse" color-interpolation-filters="sRGB">
<feFlood flood-opacity="0" result="BackgroundImageFix"/>
<feColorMatrix in="SourceAlpha" type="matrix" values="0 0 0 0 0 0 0 0 0 0 0 0 0 0 0 0 0 0 127 0"/>
<feOffset dx="20" dy="10"/>
<feGaussianBlur stdDeviation="50"/>
<feColorMatrix type="matrix" values="0 0 0 0 0 0 0 0 0 0 0 0 0 0 0 0 0 0 0.07 0"/>
<feBlend mode="normal" in2="BackgroundImageFix" result="effect1_dropShadow"/>
<feBlend mode="normal" in="SourceGraphic" in2="effect1_dropShadow" result="shape"/>
</filter>
<filter id="filter3_d" x="169" y="30" width="379" height="270" filterUnits="userSpaceOnUse" color-interpolation-filters="sRGB">
<feFlood flood-opacity="0" result="BackgroundImageFix"/>
<feColorMatrix in="SourceAlpha" type="matrix" values="0 0 0 0 0 0 0 0 0 0 0 0 0 0 0 0 0 0 127 0"/>
<feOffset dy="10"/>
<feGaussianBlur stdDeviation="50"/>
<feColorMatrix type="matrix" values="0 0 0 0 0 0 0 0 0 0 0 0 0 0 0 0 0 0 0.05 0"/>
<feBlend mode="normal" in2="BackgroundImageFix" result="effect1_dropShadow"/>
<feBlend mode="normal" in="SourceGraphic" in2="effect1_dropShadow" result="shape"/>
</filter>
<filter id="filter4_d" x="-20" y="30" width="369" height="270" filterUnits="userSpaceOnUse" color-interpolation-filters="sRGB">
<feFlood flood-opacity="0" result="BackgroundImageFix"/>
<feColorMatrix in="SourceAlpha" type="matrix" values="0 0 0 0 0 0 0 0 0 0 0 0 0 0 0 0 0 0 127 0"/>
<feOffset dy="10"/>
<feGaussianBlur stdDeviation="50"/>
<feColorMatrix type="matrix" values="0 0 0 0 0 0 0 0 0 0 0 0 0 0 0 0 0 0 0.05 0"/>
<feBlend mode="normal" in2="BackgroundImageFix" result="effect1_dropShadow"/>
<feBlend mode="normal" in="SourceGraphic" in2="effect1_dropShadow" result="shape"/>
</filter>
<clipPath id="clip0">
<rect x="-762" y="-2720" width="1440" height="10420" fill="white"/>
</clipPath>
</defs>
</svg>
