<svg width="847" height="236" viewBox="0 0 847 236" fill="none" xmlns="http://www.w3.org/2000/svg">
<g clip-path="url(#clip0)">
<rect x="-70" y="-3040" width="1440" height="10420"/>
<g filter="url(#filter0_d)">
<rect x="-69" y="-976" width="1440" height="2136"/>
</g>
<rect x="1.5" y="21.5" width="822" height="213" rx="18.5" stroke="#E5D6D8" stroke-width="3"/>
<rect x="22" width="825" height="216" rx="20" fill="#F1D1D5"/>
<path opacity="0.8" d="M53.887 79.104C55.369 79.104 57.072 78.246 57.072 76.335C57.072 74.554 55.798 74.125 54.212 73.501C53.094 73.072 52.47 72.838 52.483 72.162C52.496 71.473 53.068 71.083 53.783 71.083C54.407 71.083 55.148 71.408 55.902 72.032L56.838 70.797C55.902 70.056 54.875 69.653 53.783 69.666C52.184 69.666 50.858 70.797 50.858 72.24C50.858 73.93 52.249 74.554 53.653 75.048C54.823 75.464 55.434 75.724 55.434 76.53C55.434 77.206 54.914 77.648 53.9 77.648C53.107 77.648 52.197 77.245 51.534 76.439L50.546 77.648C51.508 78.649 52.704 79.104 53.887 79.104ZM62.3803 72.565C61.5353 72.565 60.8333 72.864 60.3523 73.436V72.656H58.8963V81.574H60.3523V78.22H60.3653C60.8333 78.792 61.5093 79.104 62.3673 79.104C64.1353 79.104 65.4483 77.817 65.4483 75.854C65.4483 73.943 64.1353 72.565 62.3803 72.565ZM62.1463 77.778C61.1063 77.778 60.2873 77.011 60.2873 75.867C60.2873 74.736 61.0413 73.878 62.1333 73.878C63.1473 73.878 63.9663 74.645 63.9663 75.867C63.9663 76.985 63.2123 77.778 62.1463 77.778ZM73.0352 75.75C73.0352 73.904 71.8262 72.565 69.9542 72.565C68.1862 72.565 66.8602 73.878 66.8602 75.828C66.8602 77.804 68.2512 79.104 70.0972 79.104C71.3452 79.104 72.2422 78.597 72.7752 77.908L71.7612 77.037C71.4362 77.44 70.9162 77.778 70.1752 77.778C69.2392 77.778 68.5632 77.232 68.3682 76.335H72.9962C73.0092 76.218 73.0352 75.984 73.0352 75.75ZM70.0322 73.878C70.8642 73.878 71.3842 74.398 71.5662 75.165H68.3942C68.6022 74.333 69.2262 73.878 70.0322 73.878ZM77.6637 79.104C78.8857 79.104 79.8607 78.61 80.4067 77.986L79.4057 77.102C79.0677 77.466 78.4957 77.778 77.7937 77.778C76.6757 77.778 75.9087 76.998 75.9087 75.828C75.9087 74.671 76.6627 73.878 77.7937 73.878C78.4827 73.878 79.0287 74.177 79.3927 74.606L80.3807 73.748C79.7437 72.968 78.7037 72.565 77.7157 72.565C75.7917 72.565 74.4267 73.891 74.4267 75.841C74.4267 77.778 75.7917 79.104 77.6637 79.104ZM82.8083 71.72C83.3543 71.72 83.7963 71.278 83.7963 70.745C83.7963 70.225 83.3543 69.783 82.8083 69.783C82.2623 69.783 81.8333 70.225 81.8333 70.745C81.8333 71.278 82.2623 71.72 82.8083 71.72ZM82.0803 79H83.5363V72.656H82.0803V79ZM90.452 72.656V73.423H90.426C89.958 72.864 89.269 72.565 88.463 72.565C86.721 72.565 85.408 73.943 85.408 75.854C85.408 77.817 86.721 79.104 88.476 79.104C89.347 79.104 90.036 78.766 90.491 78.155H90.517V79H91.908V72.656H90.452ZM88.71 77.778C87.631 77.778 86.89 76.985 86.89 75.867C86.89 74.645 87.696 73.878 88.71 73.878C89.75 73.878 90.517 74.736 90.517 75.867C90.517 77.011 89.698 77.778 88.71 77.778ZM94.1029 79H95.5589V69.432H94.1029V79ZM101.748 79H107.832V77.596H103.321V75.126H106.74V73.722H103.321V71.174H107.559V69.77H101.748V79ZM114.27 69.432V73.423H114.244C113.763 72.864 113.061 72.565 112.229 72.565C110.487 72.565 109.161 73.943 109.161 75.854C109.161 77.817 110.487 79.104 112.242 79.104C113.139 79.104 113.828 78.766 114.296 78.155H114.322V79H115.713V69.432H114.27ZM112.463 77.778C111.397 77.778 110.643 76.985 110.643 75.867C110.643 74.645 111.462 73.878 112.476 73.878C113.568 73.878 114.322 74.736 114.322 75.867C114.322 77.011 113.503 77.778 112.463 77.778Z" fill="#001951"/>
<path opacity="0.8" d="M61.375 160.77L59.386 167.452H59.373L57.566 160.77H55.902L54.082 167.439H54.069L52.093 160.77H50.416L53.341 170H54.81L56.734 163.058H56.76L58.645 170H60.114L63.039 160.77H61.375ZM68.2997 163.565C67.4417 163.565 66.6747 163.864 66.1417 164.462H66.1287V160.432H64.6727V170H66.1287V166.776C66.1287 165.528 66.7787 164.878 67.8317 164.878C68.7027 164.878 69.2097 165.32 69.2097 166.581V170H70.6657V166.204C70.6657 164.306 69.6907 163.565 68.2997 163.565ZM75.6599 170.104C77.6099 170.104 78.9879 168.765 78.9879 166.841C78.9879 164.891 77.6099 163.565 75.6599 163.565C73.6579 163.565 72.3319 164.969 72.3319 166.841C72.3319 168.7 73.6579 170.104 75.6599 170.104ZM75.6599 168.778C74.5679 168.778 73.8139 167.92 73.8139 166.841C73.8139 165.736 74.5549 164.878 75.6599 164.878C76.6999 164.878 77.5059 165.671 77.5059 166.841C77.5059 167.985 76.6869 168.778 75.6599 168.778ZM80.8615 170H82.3175V160.432H80.8615V170ZM90.3771 166.75C90.3771 164.904 89.1681 163.565 87.2961 163.565C85.5281 163.565 84.2021 164.878 84.2021 166.828C84.2021 168.804 85.5931 170.104 87.4391 170.104C88.6871 170.104 89.5841 169.597 90.1171 168.908L89.1031 168.037C88.7781 168.44 88.2581 168.778 87.5171 168.778C86.5811 168.778 85.9051 168.232 85.7101 167.335H90.3381C90.3511 167.218 90.3771 166.984 90.3771 166.75ZM87.3741 164.878C88.2061 164.878 88.7261 165.398 88.9081 166.165H85.7361C85.9441 165.333 86.5681 164.878 87.3741 164.878ZM100.311 170.078C101.936 170.078 103.158 169.324 103.951 168.336L102.794 167.348C102.209 168.076 101.351 168.609 100.311 168.609C98.5558 168.609 97.2948 167.309 97.2948 165.411C97.2948 163.461 98.5168 162.148 100.311 162.148C101.299 162.148 102.196 162.681 102.794 163.409L103.951 162.434C102.937 161.186 101.572 160.666 100.311 160.666C97.3208 160.666 95.6568 162.785 95.6568 165.411C95.6568 168.44 97.8018 170.078 100.311 170.078ZM105.719 170H107.175V160.432H105.719V170ZM114.091 163.656V164.423H114.065C113.597 163.864 112.908 163.565 112.102 163.565C110.36 163.565 109.047 164.943 109.047 166.854C109.047 168.817 110.36 170.104 112.115 170.104C112.986 170.104 113.675 169.766 114.13 169.155H114.156V170H115.547V163.656H114.091ZM112.349 168.778C111.27 168.778 110.529 167.985 110.529 166.867C110.529 165.645 111.335 164.878 112.349 164.878C113.389 164.878 114.156 165.736 114.156 166.867C114.156 168.011 113.337 168.778 112.349 168.778ZM119.679 170.104C121.291 170.104 122.045 169.246 122.045 168.18C122.045 166.919 121.2 166.672 119.848 166.139C119.237 165.905 118.847 165.684 118.847 165.372C118.847 164.982 119.25 164.826 119.536 164.826C120.03 164.826 120.615 165.021 121.122 165.502L121.85 164.358C121.148 163.786 120.42 163.565 119.614 163.565C118.314 163.565 117.378 164.319 117.378 165.359C117.378 166.607 118.275 167.075 119.315 167.439C120.147 167.725 120.563 167.881 120.563 168.206C120.563 168.583 120.238 168.83 119.679 168.83C118.899 168.83 118.353 168.583 117.846 168.089L117.118 169.181C117.781 169.766 118.652 170.104 119.679 170.104ZM125.785 170.104C127.397 170.104 128.151 169.246 128.151 168.18C128.151 166.919 127.306 166.672 125.954 166.139C125.343 165.905 124.953 165.684 124.953 165.372C124.953 164.982 125.356 164.826 125.642 164.826C126.136 164.826 126.721 165.021 127.228 165.502L127.956 164.358C127.254 163.786 126.526 163.565 125.72 163.565C124.42 163.565 123.484 164.319 123.484 165.359C123.484 166.607 124.381 167.075 125.421 167.439C126.253 167.725 126.669 167.881 126.669 168.206C126.669 168.583 126.344 168.83 125.785 168.83C125.005 168.83 124.459 168.583 123.952 168.089L123.224 169.181C123.887 169.766 124.758 170.104 125.785 170.104Z" fill="#001951"/>
<g filter="url(#filter1_d)">
<rect x="137" y="30" width="108" height="68" rx="10" fill="white"/>
</g>
<path opacity="0.8" d="M194.485 71.12C196.195 71.12 198.16 70.13 198.16 67.925C198.16 65.87 196.69 65.375 194.86 64.655C193.57 64.16 192.85 63.89 192.865 63.11C192.88 62.315 193.54 61.865 194.365 61.865C195.085 61.865 195.94 62.24 196.81 62.96L197.89 61.535C196.81 60.68 195.625 60.215 194.365 60.23C192.52 60.23 190.99 61.535 190.99 63.2C190.99 65.15 192.595 65.87 194.215 66.44C195.565 66.92 196.27 67.22 196.27 68.15C196.27 68.93 195.67 69.44 194.5 69.44C193.585 69.44 192.535 68.975 191.77 68.045L190.63 69.44C191.74 70.595 193.12 71.12 194.485 71.12ZM200.367 71H207.117V69.38H202.182V60.35H200.367V71ZM209.166 71H210.981V67.205H212.811C215.106 67.205 216.666 66.11 216.666 63.8C216.666 61.82 215.571 60.35 213.021 60.35H209.166V71ZM210.981 65.57V61.97H212.766C214.071 61.97 214.791 62.645 214.791 63.77C214.791 64.82 214.116 65.57 212.631 65.57H210.981ZM220.93 71.12C222.79 71.12 223.66 70.13 223.66 68.9C223.66 67.445 222.685 67.16 221.125 66.545C220.42 66.275 219.97 66.02 219.97 65.66C219.97 65.21 220.435 65.03 220.765 65.03C221.335 65.03 222.01 65.255 222.595 65.81L223.435 64.49C222.625 63.83 221.785 63.575 220.855 63.575C219.355 63.575 218.275 64.445 218.275 65.645C218.275 67.085 219.31 67.625 220.51 68.045C221.47 68.375 221.95 68.555 221.95 68.93C221.95 69.365 221.575 69.65 220.93 69.65C220.03 69.65 219.4 69.365 218.815 68.795L217.975 70.055C218.74 70.73 219.745 71.12 220.93 71.12Z" fill="#001951"/>
<path opacity="0.8" d="M321.305 71H323.12V67.205H324.95C327.245 67.205 328.805 66.11 328.805 63.8C328.805 61.82 327.71 60.35 325.16 60.35H321.305V71ZM323.12 65.57V61.97H324.905C326.21 61.97 326.93 62.645 326.93 63.77C326.93 64.82 326.255 65.57 324.77 65.57H323.12ZM330.834 71H332.514V59.96H330.834V71ZM340.386 63.68V64.565H340.356C339.816 63.92 339.021 63.575 338.091 63.575C336.081 63.575 334.566 65.165 334.566 67.37C334.566 69.635 336.081 71.12 338.106 71.12C339.111 71.12 339.906 70.73 340.431 70.025H340.461V71H342.066V63.68H340.386ZM338.376 69.59C337.131 69.59 336.276 68.675 336.276 67.385C336.276 65.975 337.206 65.09 338.376 65.09C339.576 65.09 340.461 66.08 340.461 67.385C340.461 68.705 339.516 69.59 338.376 69.59ZM349.26 63.68L347.37 68.63L345.345 63.68H343.575L346.545 70.58L345.225 73.97H346.995L351.015 63.68H349.26ZM360.216 71.12C361.926 71.12 363.891 70.13 363.891 67.925C363.891 65.87 362.421 65.375 360.591 64.655C359.301 64.16 358.581 63.89 358.596 63.11C358.611 62.315 359.271 61.865 360.096 61.865C360.816 61.865 361.671 62.24 362.541 62.96L363.621 61.535C362.541 60.68 361.356 60.215 360.096 60.23C358.251 60.23 356.721 61.535 356.721 63.2C356.721 65.15 358.326 65.87 359.946 66.44C361.296 66.92 362.001 67.22 362.001 68.15C362.001 68.93 361.401 69.44 360.231 69.44C359.316 69.44 358.266 68.975 357.501 68.045L356.361 69.44C357.471 70.595 358.851 71.12 360.216 71.12ZM368.814 67.925L370.719 71H372.609L369.924 66.635L372.564 63.68H370.569L367.569 67.025V59.96H365.889V71H367.569V69.275L368.784 67.925H368.814ZM375.061 62.6C375.691 62.6 376.201 62.09 376.201 61.475C376.201 60.875 375.691 60.365 375.061 60.365C374.431 60.365 373.936 60.875 373.936 61.475C373.936 62.09 374.431 62.6 375.061 62.6ZM374.221 71H375.901V63.68H374.221V71ZM378.508 71H380.188V59.96H378.508V71ZM382.795 71H384.475V59.96H382.795V71ZM389.317 71.12C391.177 71.12 392.047 70.13 392.047 68.9C392.047 67.445 391.072 67.16 389.512 66.545C388.807 66.275 388.357 66.02 388.357 65.66C388.357 65.21 388.822 65.03 389.152 65.03C389.722 65.03 390.397 65.255 390.982 65.81L391.822 64.49C391.012 63.83 390.172 63.575 389.242 63.575C387.742 63.575 386.662 64.445 386.662 65.645C386.662 67.085 387.697 67.625 388.897 68.045C389.857 68.375 390.337 68.555 390.337 68.93C390.337 69.365 389.962 69.65 389.317 69.65C388.417 69.65 387.787 69.365 387.202 68.795L386.362 70.055C387.127 70.73 388.132 71.12 389.317 71.12Z" fill="#001951"/>
<path opacity="0.8" d="M517.305 71H519.12V67.205H520.95C523.245 67.205 524.805 66.11 524.805 63.8C524.805 61.82 523.71 60.35 521.16 60.35H517.305V71ZM519.12 65.57V61.97H520.905C522.21 61.97 522.93 62.645 522.93 63.77C522.93 64.82 522.255 65.57 520.77 65.57H519.12ZM526.834 71H528.514V59.96H526.834V71ZM536.386 63.68V64.565H536.356C535.816 63.92 535.021 63.575 534.091 63.575C532.081 63.575 530.566 65.165 530.566 67.37C530.566 69.635 532.081 71.12 534.106 71.12C535.111 71.12 535.906 70.73 536.431 70.025H536.461V71H538.066V63.68H536.386ZM534.376 69.59C533.131 69.59 532.276 68.675 532.276 67.385C532.276 65.975 533.206 65.09 534.376 65.09C535.576 65.09 536.461 66.08 536.461 67.385C536.461 68.705 535.516 69.59 534.376 69.59ZM545.26 63.68L543.37 68.63L541.345 63.68H539.575L542.545 70.58L541.225 73.97H542.995L547.015 63.68H545.26ZM556.216 71.12C557.926 71.12 559.891 70.13 559.891 67.925C559.891 65.87 558.421 65.375 556.591 64.655C555.301 64.16 554.581 63.89 554.596 63.11C554.611 62.315 555.271 61.865 556.096 61.865C556.816 61.865 557.671 62.24 558.541 62.96L559.621 61.535C558.541 60.68 557.356 60.215 556.096 60.23C554.251 60.23 552.721 61.535 552.721 63.2C552.721 65.15 554.326 65.87 555.946 66.44C557.296 66.92 558.001 67.22 558.001 68.15C558.001 68.93 557.401 69.44 556.231 69.44C555.316 69.44 554.266 68.975 553.501 68.045L552.361 69.44C553.471 70.595 554.851 71.12 556.216 71.12ZM564.814 67.925L566.719 71H568.609L565.924 66.635L568.564 63.68H566.569L563.569 67.025V59.96H561.889V71H563.569V69.275L564.784 67.925H564.814ZM571.061 62.6C571.691 62.6 572.201 62.09 572.201 61.475C572.201 60.875 571.691 60.365 571.061 60.365C570.431 60.365 569.936 60.875 569.936 61.475C569.936 62.09 570.431 62.6 571.061 62.6ZM570.221 71H571.901V63.68H570.221V71ZM574.508 71H576.188V59.96H574.508V71ZM578.795 71H580.475V59.96H578.795V71ZM585.317 71.12C587.177 71.12 588.047 70.13 588.047 68.9C588.047 67.445 587.072 67.16 585.512 66.545C584.807 66.275 584.357 66.02 584.357 65.66C584.357 65.21 584.822 65.03 585.152 65.03C585.722 65.03 586.397 65.255 586.982 65.81L587.822 64.49C587.012 63.83 586.172 63.575 585.242 63.575C583.742 63.575 582.662 64.445 582.662 65.645C582.662 67.085 583.697 67.625 584.897 68.045C585.857 68.375 586.337 68.555 586.337 68.93C586.337 69.365 585.962 69.65 585.317 69.65C584.417 69.65 583.787 69.365 583.202 68.795L582.362 70.055C583.127 70.73 584.132 71.12 585.317 71.12Z" fill="#001951"/>
<g filter="url(#filter2_d)">
<rect x="265" y="30" width="176" height="68" rx="10" fill="white"/>
</g>
<g filter="url(#filter3_d)">
<rect x="461" y="30" width="219" height="68" rx="10" fill="white"/>
</g>
<path opacity="0.8" d="M324.485 71.12C326.195 71.12 328.16 70.13 328.16 67.925C328.16 65.87 326.69 65.375 324.86 64.655C323.57 64.16 322.85 63.89 322.865 63.11C322.88 62.315 323.54 61.865 324.365 61.865C325.085 61.865 325.94 62.24 326.81 62.96L327.89 61.535C326.81 60.68 325.625 60.215 324.365 60.23C322.52 60.23 320.99 61.535 320.99 63.2C320.99 65.15 322.595 65.87 324.215 66.44C325.565 66.92 326.27 67.22 326.27 68.15C326.27 68.93 325.67 69.44 324.5 69.44C323.585 69.44 322.535 68.975 321.77 68.045L320.63 69.44C321.74 70.595 323.12 71.12 324.485 71.12ZM333.562 71.12C335.812 71.12 337.402 69.575 337.402 67.355C337.402 65.105 335.812 63.575 333.562 63.575C331.252 63.575 329.722 65.195 329.722 67.355C329.722 69.5 331.252 71.12 333.562 71.12ZM333.562 69.59C332.302 69.59 331.432 68.6 331.432 67.355C331.432 66.08 332.287 65.09 333.562 65.09C334.762 65.09 335.692 66.005 335.692 67.355C335.692 68.675 334.747 69.59 333.562 69.59ZM342.651 71.12C344.061 71.12 345.186 70.55 345.816 69.83L344.661 68.81C344.271 69.23 343.611 69.59 342.801 69.59C341.511 69.59 340.626 68.69 340.626 67.34C340.626 66.005 341.496 65.09 342.801 65.09C343.596 65.09 344.226 65.435 344.646 65.93L345.786 64.94C345.051 64.04 343.851 63.575 342.711 63.575C340.491 63.575 338.916 65.105 338.916 67.355C338.916 69.59 340.491 71.12 342.651 71.12ZM348.48 62.6C349.11 62.6 349.62 62.09 349.62 61.475C349.62 60.875 349.11 60.365 348.48 60.365C347.85 60.365 347.355 60.875 347.355 61.475C347.355 62.09 347.85 62.6 348.48 62.6ZM347.64 71H349.32V63.68H347.64V71ZM357.192 63.68V64.565H357.162C356.622 63.92 355.827 63.575 354.897 63.575C352.887 63.575 351.372 65.165 351.372 67.37C351.372 69.635 352.887 71.12 354.912 71.12C355.917 71.12 356.712 70.73 357.237 70.025H357.267V71H358.872V63.68H357.192ZM355.182 69.59C353.937 69.59 353.082 68.675 353.082 67.385C353.082 65.975 354.012 65.09 355.182 65.09C356.382 65.09 357.267 66.08 357.267 67.385C357.267 68.705 356.322 69.59 355.182 69.59ZM361.297 71H362.977V59.96H361.297V71ZM381.722 60.35L379.427 68.06H379.412L377.327 60.35H375.407L373.307 68.045H373.292L371.012 60.35H369.077L372.452 71H374.147L376.367 62.99H376.397L378.572 71H380.267L383.642 60.35H381.722ZM387.829 71.12C390.079 71.12 391.669 69.575 391.669 67.355C391.669 65.105 390.079 63.575 387.829 63.575C385.519 63.575 383.989 65.195 383.989 67.355C383.989 69.5 385.519 71.12 387.829 71.12ZM387.829 69.59C386.569 69.59 385.699 68.6 385.699 67.355C385.699 66.08 386.554 65.09 387.829 65.09C389.029 65.09 389.959 66.005 389.959 67.355C389.959 68.675 389.014 69.59 387.829 69.59ZM397.593 63.575C396.708 63.575 395.883 64.01 395.313 64.79H395.298V63.68H393.618V71H395.298V67.535C395.298 66.335 396.018 65.42 397.293 65.42C397.413 65.42 397.608 65.435 397.803 65.45V63.575H397.593ZM402.324 67.925L404.229 71H406.119L403.434 66.635L406.074 63.68H404.079L401.079 67.025V59.96H399.399V71H401.079V69.275L402.294 67.925H402.324ZM413.906 67.25C413.906 65.12 412.511 63.575 410.351 63.575C408.311 63.575 406.781 65.09 406.781 67.34C406.781 69.62 408.386 71.12 410.516 71.12C411.956 71.12 412.991 70.535 413.606 69.74L412.436 68.735C412.061 69.2 411.461 69.59 410.606 69.59C409.526 69.59 408.746 68.96 408.521 67.925H413.861C413.876 67.79 413.906 67.52 413.906 67.25ZM410.441 65.09C411.401 65.09 412.001 65.69 412.211 66.575H408.551C408.791 65.615 409.511 65.09 410.441 65.09ZM419.814 63.575C418.929 63.575 418.104 64.01 417.534 64.79H417.519V63.68H415.839V71H417.519V67.535C417.519 66.335 418.239 65.42 419.514 65.42C419.634 65.42 419.829 65.435 420.024 65.45V63.575H419.814Z" fill="#001951"/>
<path opacity="0.8" d="M520.485 71.12C522.195 71.12 524.16 70.13 524.16 67.925C524.16 65.87 522.69 65.375 520.86 64.655C519.57 64.16 518.85 63.89 518.865 63.11C518.88 62.315 519.54 61.865 520.365 61.865C521.085 61.865 521.94 62.24 522.81 62.96L523.89 61.535C522.81 60.68 521.625 60.215 520.365 60.23C518.52 60.23 516.99 61.535 516.99 63.2C516.99 65.15 518.595 65.87 520.215 66.44C521.565 66.92 522.27 67.22 522.27 68.15C522.27 68.93 521.67 69.44 520.5 69.44C519.585 69.44 518.535 68.975 517.77 68.045L516.63 69.44C517.74 70.595 519.12 71.12 520.485 71.12ZM529.457 71.12C530.867 71.12 531.992 70.55 532.622 69.83L531.467 68.81C531.077 69.23 530.417 69.59 529.607 69.59C528.317 69.59 527.432 68.69 527.432 67.34C527.432 66.005 528.302 65.09 529.607 65.09C530.402 65.09 531.032 65.435 531.452 65.93L532.592 64.94C531.857 64.04 530.657 63.575 529.517 63.575C527.297 63.575 525.722 65.105 525.722 67.355C525.722 69.59 527.297 71.12 529.457 71.12ZM538.526 63.575C537.536 63.575 536.651 63.92 536.036 64.61H536.021V59.96H534.341V71H536.021V67.28C536.021 65.84 536.771 65.09 537.986 65.09C538.991 65.09 539.576 65.6 539.576 67.055V71H541.256V66.62C541.256 64.43 540.131 63.575 538.526 63.575ZM546.911 71.12C549.161 71.12 550.751 69.575 550.751 67.355C550.751 65.105 549.161 63.575 546.911 63.575C544.601 63.575 543.071 65.195 543.071 67.355C543.071 69.5 544.601 71.12 546.911 71.12ZM546.911 69.59C545.651 69.59 544.781 68.6 544.781 67.355C544.781 66.08 545.636 65.09 546.911 65.09C548.111 65.09 549.041 66.005 549.041 67.355C549.041 68.675 548.096 69.59 546.911 69.59ZM556.105 71.12C558.355 71.12 559.945 69.575 559.945 67.355C559.945 65.105 558.355 63.575 556.105 63.575C553.795 63.575 552.265 65.195 552.265 67.355C552.265 69.5 553.795 71.12 556.105 71.12ZM556.105 69.59C554.845 69.59 553.975 68.6 553.975 67.355C553.975 66.08 554.83 65.09 556.105 65.09C557.305 65.09 558.235 66.005 558.235 67.355C558.235 68.675 557.29 69.59 556.105 69.59ZM561.999 71H563.679V59.96H561.999V71ZM570.604 71H572.419V67.205H574.249C576.544 67.205 578.104 66.11 578.104 63.8C578.104 61.82 577.009 60.35 574.459 60.35H570.604V71ZM572.419 65.57V61.97H574.204C575.509 61.97 576.229 62.645 576.229 63.77C576.229 64.82 575.554 65.57 574.069 65.57H572.419ZM582.368 71.12C584.228 71.12 585.098 70.13 585.098 68.9C585.098 67.445 584.123 67.16 582.563 66.545C581.858 66.275 581.408 66.02 581.408 65.66C581.408 65.21 581.873 65.03 582.203 65.03C582.773 65.03 583.448 65.255 584.033 65.81L584.873 64.49C584.063 63.83 583.223 63.575 582.293 63.575C580.793 63.575 579.713 64.445 579.713 65.645C579.713 67.085 580.748 67.625 581.948 68.045C582.908 68.375 583.388 68.555 583.388 68.93C583.388 69.365 583.013 69.65 582.368 69.65C581.468 69.65 580.838 69.365 580.253 68.795L579.413 70.055C580.178 70.73 581.183 71.12 582.368 71.12ZM591.578 63.68L589.688 68.63L587.663 63.68H585.893L588.863 70.58L587.543 73.97H589.313L593.333 63.68H591.578ZM597.849 71.12C599.259 71.12 600.384 70.55 601.014 69.83L599.859 68.81C599.469 69.23 598.809 69.59 597.999 69.59C596.709 69.59 595.824 68.69 595.824 67.34C595.824 66.005 596.694 65.09 597.999 65.09C598.794 65.09 599.424 65.435 599.844 65.93L600.984 64.94C600.249 64.04 599.049 63.575 597.909 63.575C595.689 63.575 594.114 65.105 594.114 67.355C594.114 69.59 595.689 71.12 597.849 71.12ZM606.917 63.575C605.927 63.575 605.042 63.92 604.427 64.61H604.412V59.96H602.732V71H604.412V67.28C604.412 65.84 605.162 65.09 606.377 65.09C607.382 65.09 607.967 65.6 607.967 67.055V71H609.647V66.62C609.647 64.43 608.522 63.575 606.917 63.575ZM615.302 71.12C617.552 71.12 619.142 69.575 619.142 67.355C619.142 65.105 617.552 63.575 615.302 63.575C612.992 63.575 611.462 65.195 611.462 67.355C611.462 69.5 612.992 71.12 615.302 71.12ZM615.302 69.59C614.042 69.59 613.172 68.6 613.172 67.355C613.172 66.08 614.027 65.09 615.302 65.09C616.502 65.09 617.432 66.005 617.432 67.355C617.432 68.675 616.487 69.59 615.302 69.59ZM621.196 71H622.876V59.96H621.196V71ZM628.783 71.12C631.033 71.12 632.623 69.575 632.623 67.355C632.623 65.105 631.033 63.575 628.783 63.575C626.473 63.575 624.943 65.195 624.943 67.355C624.943 69.5 626.473 71.12 628.783 71.12ZM628.783 69.59C627.523 69.59 626.653 68.6 626.653 67.355C626.653 66.08 627.508 65.09 628.783 65.09C629.983 65.09 630.913 66.005 630.913 67.355C630.913 68.675 629.968 69.59 628.783 69.59ZM639.898 63.68V64.46H639.868C639.253 63.875 638.428 63.575 637.588 63.575C635.563 63.575 634.108 65.12 634.108 67.265C634.108 69.44 635.638 70.88 637.678 70.88C638.593 70.88 639.358 70.55 639.913 69.98H639.928V70.76C639.928 71.735 639.193 72.56 637.753 72.56C636.703 72.56 636.058 72.26 635.263 71.84L634.858 73.31C635.683 73.805 636.748 74.075 637.843 74.075C640.558 74.075 641.578 72.47 641.578 70.25V63.68H639.898ZM637.903 69.335C636.718 69.335 635.818 68.525 635.818 67.22C635.818 65.975 636.658 65.105 637.903 65.105C639.073 65.105 639.973 65.945 639.973 67.19C639.973 68.435 639.118 69.335 637.903 69.335ZM644.829 62.6C645.459 62.6 645.969 62.09 645.969 61.475C645.969 60.875 645.459 60.365 644.829 60.365C644.199 60.365 643.704 60.875 643.704 61.475C643.704 62.09 644.199 62.6 644.829 62.6ZM643.989 71H645.669V63.68H643.989V71ZM650.511 71.12C652.371 71.12 653.241 70.13 653.241 68.9C653.241 67.445 652.266 67.16 650.706 66.545C650.001 66.275 649.551 66.02 649.551 65.66C649.551 65.21 650.016 65.03 650.346 65.03C650.916 65.03 651.591 65.255 652.176 65.81L653.016 64.49C652.206 63.83 651.366 63.575 650.436 63.575C648.936 63.575 647.856 64.445 647.856 65.645C647.856 67.085 648.891 67.625 650.091 68.045C651.051 68.375 651.531 68.555 651.531 68.93C651.531 69.365 651.156 69.65 650.511 69.65C649.611 69.65 648.981 69.365 648.396 68.795L647.556 70.055C648.321 70.73 649.326 71.12 650.511 71.12ZM657.284 71.12C658.244 71.12 658.709 70.925 659.144 70.685L658.709 69.23C658.319 69.44 657.914 69.545 657.629 69.545C657.149 69.545 656.924 69.275 656.924 68.525V65.105H659.069V63.68H656.924V61.07L655.244 61.25V63.68H654.344V65.105H655.244V68.69C655.244 70.325 656.024 71.12 657.284 71.12Z" fill="#001951"/>
<path d="M173.25 72.1042C172.981 72.5873 172.588 72.9903 172.113 73.2722C171.637 73.554 171.095 73.7045 170.542 73.7083H165.625L160.656 76.6875C160.495 76.7829 160.312 76.8333 160.125 76.8333C159.946 76.8328 159.77 76.7861 159.615 76.6979C159.454 76.6075 159.32 76.4759 159.226 76.3167C159.133 76.1574 159.084 75.9762 159.083 75.7917V73.5313C158.474 73.3157 157.946 72.9165 157.573 72.3885C157.2 71.8605 157 71.2298 157 70.5833V64.3333C157 63.5045 157.329 62.7097 157.915 62.1236C158.501 61.5376 159.296 61.2083 160.125 61.2083H161.167V65.375C161.167 66.7563 161.715 68.0811 162.692 69.0578C163.669 70.0346 164.994 70.5833 166.375 70.5833H170.719L173.25 72.1042ZM176.792 56H166.375C165.546 56 164.751 56.3292 164.165 56.9153C163.579 57.5013 163.25 58.2962 163.25 59.125V65.375C163.25 66.2038 163.579 66.9987 164.165 67.5847C164.751 68.1708 165.546 68.5 166.375 68.5H171.292L176.26 71.4792C176.421 71.5746 176.605 71.6249 176.792 71.625C176.971 71.6245 177.146 71.5778 177.302 71.4896C177.463 71.3991 177.597 71.2676 177.69 71.1083C177.784 70.9491 177.833 70.7679 177.833 70.5833V68.3229C178.443 68.1074 178.971 67.7082 179.344 67.1802C179.717 66.6522 179.917 66.0215 179.917 65.375V59.125C179.917 58.2962 179.587 57.5013 179.001 56.9153C178.415 56.3292 177.62 56 176.792 56Z" fill="#E9A5AD"/>
<path d="M297.5 75.6217C297.374 75.6217 297.247 75.589 297.134 75.5236C297.011 75.4526 294.087 73.7552 291.122 71.1977C289.365 69.6819 287.962 68.1785 286.952 66.7293C285.646 64.854 284.99 63.0502 285 61.368C285.013 59.4104 285.714 57.5695 286.974 56.1843C288.257 54.7757 289.968 54 291.792 54C294.131 54 296.269 55.3101 297.5 57.3853C298.731 55.3101 300.869 54 303.208 54C304.932 54 306.577 54.6999 307.839 55.9708C309.225 57.3655 310.013 59.3361 310 61.3772C309.989 63.0566 309.32 64.8576 308.011 66.7303C306.999 68.1788 305.598 69.6816 303.847 71.1969C300.893 73.7542 297.99 75.4515 297.868 75.5225C297.754 75.5886 297.627 75.6217 297.5 75.6217Z" fill="#E9A5AD"/>
<g filter="url(#filter4_d)">
<rect x="700" y="30" width="117" height="68" rx="10" fill="white"/>
</g>
<path opacity="0.8" d="M761.9 65.375V65.36C762.995 64.925 763.475 63.935 763.475 62.945C763.475 61.205 762.2 60.35 760.01 60.35H756.305V71H760.52C762.875 71 764.015 69.77 764.015 68.075C764.015 66.605 763.145 65.675 761.9 65.375ZM758.12 61.97H759.665C761.06 61.955 761.63 62.51 761.63 63.35C761.63 64.355 760.745 64.76 759.845 64.76H758.12V61.97ZM759.98 69.38H758.12V66.32H760.01C761.405 66.32 762.125 66.935 762.125 67.88C762.125 68.885 761.255 69.365 759.98 69.38ZM770.887 71.09C772.762 71.09 774.172 70.22 775.087 69.08L773.752 67.94C773.077 68.78 772.087 69.395 770.887 69.395C768.862 69.395 767.407 67.895 767.407 65.705C767.407 63.455 768.817 61.94 770.887 61.94C772.027 61.94 773.062 62.555 773.752 63.395L775.087 62.27C773.917 60.83 772.342 60.23 770.887 60.23C767.437 60.23 765.517 62.675 765.517 65.705C765.517 69.2 767.992 71.09 770.887 71.09ZM782.72 65.375V65.36C783.815 64.925 784.295 63.935 784.295 62.945C784.295 61.205 783.02 60.35 780.83 60.35H777.125V71H781.34C783.695 71 784.835 69.77 784.835 68.075C784.835 66.605 783.965 65.675 782.72 65.375ZM778.94 61.97H780.485C781.88 61.955 782.45 62.51 782.45 63.35C782.45 64.355 781.565 64.76 780.665 64.76H778.94V61.97ZM780.8 69.38H778.94V66.32H780.83C782.225 66.32 782.945 66.935 782.945 67.88C782.945 68.885 782.075 69.365 780.8 69.38ZM793.835 71H795.725L791.735 60.35H789.965L785.99 71H787.88L788.675 68.705H793.025L793.835 71ZM789.23 67.145L790.835 62.525H790.865L792.485 67.145H789.23Z" fill="#001951"/>
<path d="M742.754 56.9082C742.207 56.9082 741.713 57.1159 741.328 57.4472L734.658 53.6356C734.681 53.5087 734.697 53.3794 734.697 53.2461C734.697 52.0345 733.712 51 732.5 51C731.288 51 730.303 52.0345 730.303 53.2461C730.303 53.4563 730.342 53.6554 730.397 53.8481L723.503 58.773C723.146 58.5228 722.714 58.373 722.246 58.373C721.035 58.373 720 59.3588 720 60.5703C720 61.7407 720.971 62.6915 722.126 62.7554L724.409 70.5181C723.556 71.0306 722.979 71.9558 722.979 73.0215C722.979 74.6372 724.292 76 725.908 76C727.319 76 728.5 74.9487 728.776 73.6183L739.257 73.1189C739.585 73.9198 740.371 74.4863 741.289 74.4863C742.501 74.4863 743.486 73.5006 743.486 72.2891C743.486 71.4214 742.977 70.6768 742.245 70.3197L743.254 61.24C744.224 61.0124 745 60.1444 745 59.1055C745 57.8939 743.965 56.9082 742.754 56.9082ZM733.926 54.9043L740.596 58.716C740.573 58.8428 740.557 58.9721 740.557 59.1055C740.557 59.2195 740.573 59.3288 740.59 59.4383L735.374 62.2471C734.956 61.7965 734.403 61.4759 733.775 61.3577L733.368 55.2627C733.574 55.1739 733.758 55.0483 733.926 54.9043ZM731.243 55.0434C731.442 55.1828 731.666 55.2835 731.906 55.3514L732.314 61.4647C731.678 61.6764 731.137 62.0905 730.778 62.6425L724.439 60.5299C724.436 60.3344 724.401 60.1482 724.349 59.9684L731.243 55.0434ZM727.225 70.4189C726.828 70.2165 726.384 70.0918 725.908 70.0918C725.875 70.0918 725.845 70.1004 725.813 70.1015L723.531 62.3445C723.697 62.2236 723.843 62.0785 723.97 61.9167L730.323 64.0341C730.318 64.101 730.303 64.1645 730.303 64.2324C730.303 64.8788 730.52 65.4716 730.876 65.9567L727.225 70.4189ZM739.196 71.6553L728.692 72.1555C728.606 71.8786 728.492 71.6137 728.332 71.3785L732.008 66.8854C732.382 67.0587 732.794 67.1621 733.232 67.1621C733.774 67.1621 734.276 67.0044 734.711 66.7471L739.312 71.3478C739.265 71.4462 739.228 71.5492 739.196 71.6553ZM740.789 70.1545C740.634 70.1908 740.488 70.245 740.348 70.3121L735.747 65.7114C736.004 65.2757 736.162 64.7741 736.162 64.2324C736.162 63.9915 736.125 63.7607 736.069 63.5364L741.285 60.7281C741.438 60.8667 741.61 60.9833 741.798 61.0748L740.789 70.1545Z" fill="#E9A5AD"/>
<path d="M505.613 57.2541C505.403 56.9738 505.107 56.7588 504.726 56.6086C504.747 56.9591 504.722 57.2443 504.652 57.4647L500.148 72.2816C500.068 72.5418 499.893 72.7495 499.623 72.9046C499.352 73.0599 499.072 73.1375 498.782 73.1375H484.926C483.725 73.1375 483.004 72.7877 482.764 72.0866C482.664 71.8163 482.669 71.6013 482.779 71.4412C482.889 71.2909 483.079 71.2157 483.35 71.2157H496.395C497.326 71.2157 497.969 71.043 498.324 70.6977C498.68 70.3524 499.038 69.5841 499.398 68.3933L503.511 54.7921C503.731 54.0515 503.641 53.4009 503.241 52.8406C502.84 52.2803 502.27 52 501.529 52H490.105C489.975 52 489.72 52.0449 489.34 52.135L489.354 52.0899C489.074 52.0299 488.836 52.0025 488.641 52.0073C488.446 52.0125 488.266 52.0699 488.101 52.1802C487.936 52.2903 487.803 52.4078 487.703 52.5328C487.603 52.658 487.505 52.8181 487.41 53.0132C487.315 53.2085 487.235 53.3887 487.17 53.5538C487.105 53.7189 487.03 53.8942 486.945 54.0796C486.86 54.2647 486.778 54.4173 486.697 54.5373C486.637 54.6174 486.552 54.7225 486.442 54.8526C486.332 54.9827 486.242 55.0978 486.172 55.1979C486.102 55.298 486.057 55.388 486.037 55.4682C486.017 55.5581 486.027 55.6908 486.067 55.866C486.107 56.041 486.122 56.1685 486.112 56.2487C486.072 56.6289 485.934 57.1117 485.699 57.6974C485.464 58.2829 485.251 58.7059 485.061 58.966C485.021 59.0159 484.911 59.1285 484.731 59.3037C484.551 59.4788 484.441 59.6313 484.401 59.7614C484.361 59.8114 484.358 59.9516 484.393 60.1818C484.428 60.4121 484.441 60.5721 484.431 60.6621C484.391 61.0025 484.266 61.4528 484.055 62.0133C483.845 62.5737 483.635 63.0342 483.425 63.3944C483.395 63.4544 483.31 63.5694 483.17 63.7397C483.03 63.9099 482.944 64.05 482.915 64.1598C482.895 64.2399 482.897 64.38 482.922 64.5802C482.947 64.7803 482.944 64.9304 482.915 65.0304C482.835 65.4104 482.684 65.8685 482.464 66.4041C482.244 66.9392 482.019 67.3976 481.788 67.7775C481.729 67.8778 481.646 67.9955 481.541 68.1304C481.436 68.2653 481.353 68.3831 481.293 68.4831C481.233 68.5831 481.193 68.6882 481.173 68.7984C481.163 68.8585 481.178 68.956 481.218 69.0913C481.258 69.2262 481.273 69.3338 481.263 69.4141C481.253 69.5541 481.233 69.7395 481.203 69.9698C481.173 70.1997 481.158 70.3346 481.158 70.3746C480.938 70.9753 480.948 71.6109 481.188 72.2817C481.468 73.0619 481.966 73.7203 482.682 74.2557C483.397 74.7912 484.14 75.0586 484.911 75.0586H498.767C499.418 75.0586 500.031 74.8408 500.606 74.4057C501.182 73.9703 501.565 73.4326 501.754 72.7917L505.883 59.1908C506.103 58.47 506.013 57.8245 505.613 57.2541ZM489.64 57.2841L489.955 56.3232C489.995 56.1931 490.078 56.0805 490.203 55.9855C490.328 55.8906 490.455 55.8429 490.586 55.8429H499.713C499.853 55.8429 499.953 55.8904 500.013 55.9855C500.073 56.0806 500.083 56.1931 500.044 56.3232L499.728 57.2841C499.688 57.4142 499.606 57.5265 499.48 57.6219C499.355 57.7168 499.227 57.7643 499.097 57.7643H489.97C489.83 57.7643 489.73 57.7169 489.67 57.6219C489.61 57.5265 489.6 57.4142 489.64 57.2841ZM488.394 61.1272L488.709 60.1665C488.749 60.0364 488.832 59.9238 488.957 59.8288C489.082 59.7337 489.209 59.6862 489.34 59.6862H498.467C498.607 59.6862 498.707 59.7335 498.767 59.8288C498.827 59.9239 498.837 60.0364 498.797 60.1665L498.482 61.1272C498.442 61.2573 498.359 61.37 498.234 61.465C498.109 61.5601 497.982 61.6076 497.851 61.6076H488.724C488.584 61.6076 488.484 61.5602 488.424 61.465C488.364 61.37 488.354 61.2573 488.394 61.1272Z" fill="#E9A5AD"/>
<g filter="url(#filter5_d)">
<rect x="147" y="118" width="150" height="68" rx="10" fill="white"/>
</g>
<path opacity="0.8" d="M205.495 159H207.31V149.97H210.37V148.35H202.48V149.97H205.495V159ZM217.456 155.25C217.456 153.12 216.061 151.575 213.901 151.575C211.861 151.575 210.331 153.09 210.331 155.34C210.331 157.62 211.936 159.12 214.066 159.12C215.506 159.12 216.541 158.535 217.156 157.74L215.986 156.735C215.611 157.2 215.011 157.59 214.156 157.59C213.076 157.59 212.296 156.96 212.071 155.925H217.411C217.426 155.79 217.456 155.52 217.456 155.25ZM213.991 153.09C214.951 153.09 215.551 153.69 215.761 154.575H212.101C212.341 153.615 213.061 153.09 213.991 153.09ZM224.759 151.68V152.565H224.729C224.189 151.92 223.394 151.575 222.464 151.575C220.454 151.575 218.939 153.165 218.939 155.37C218.939 157.635 220.454 159.12 222.479 159.12C223.484 159.12 224.279 158.73 224.804 158.025H224.834V159H226.439V151.68H224.759ZM222.749 157.59C221.504 157.59 220.649 156.675 220.649 155.385C220.649 153.975 221.579 153.09 222.749 153.09C223.949 153.09 224.834 154.08 224.834 155.385C224.834 156.705 223.889 157.59 222.749 157.59ZM232.058 159.12C233.468 159.12 234.593 158.55 235.223 157.83L234.068 156.81C233.678 157.23 233.018 157.59 232.208 157.59C230.918 157.59 230.033 156.69 230.033 155.34C230.033 154.005 230.903 153.09 232.208 153.09C233.003 153.09 233.633 153.435 234.053 153.93L235.193 152.94C234.458 152.04 233.258 151.575 232.118 151.575C229.898 151.575 228.323 153.105 228.323 155.355C228.323 157.59 229.898 159.12 232.058 159.12ZM241.127 151.575C240.137 151.575 239.252 151.92 238.637 152.61H238.622V147.96H236.942V159H238.622V155.28C238.622 153.84 239.372 153.09 240.587 153.09C241.592 153.09 242.177 153.6 242.177 155.055V159H243.857V154.62C243.857 152.43 242.732 151.575 241.127 151.575ZM252.797 155.25C252.797 153.12 251.402 151.575 249.242 151.575C247.202 151.575 245.672 153.09 245.672 155.34C245.672 157.62 247.277 159.12 249.407 159.12C250.847 159.12 251.882 158.535 252.497 157.74L251.327 156.735C250.952 157.2 250.352 157.59 249.497 157.59C248.417 157.59 247.637 156.96 247.412 155.925H252.752C252.767 155.79 252.797 155.52 252.797 155.25ZM249.332 153.09C250.292 153.09 250.892 153.69 251.102 154.575H247.442C247.682 153.615 248.402 153.09 249.332 153.09ZM258.705 151.575C257.82 151.575 256.995 152.01 256.425 152.79H256.41V151.68H254.73V159H256.41V155.535C256.41 154.335 257.13 153.42 258.405 153.42C258.525 153.42 258.72 153.435 258.915 153.45V151.575H258.705ZM262.851 159.12C264.711 159.12 265.581 158.13 265.581 156.9C265.581 155.445 264.606 155.16 263.046 154.545C262.341 154.275 261.891 154.02 261.891 153.66C261.891 153.21 262.356 153.03 262.686 153.03C263.256 153.03 263.931 153.255 264.516 153.81L265.356 152.49C264.546 151.83 263.706 151.575 262.776 151.575C261.276 151.575 260.196 152.445 260.196 153.645C260.196 155.085 261.231 155.625 262.431 156.045C263.391 156.375 263.871 156.555 263.871 156.93C263.871 157.365 263.496 157.65 262.851 157.65C261.951 157.65 261.321 157.365 260.736 156.795L259.896 158.055C260.661 158.73 261.666 159.12 262.851 159.12Z" fill="#001951"/>
<path opacity="0.8" d="M374.305 159H376.12V155.205H377.95C380.245 155.205 381.805 154.11 381.805 151.8C381.805 149.82 380.71 148.35 378.16 148.35H374.305V159ZM376.12 153.57V149.97H377.905C379.21 149.97 379.93 150.645 379.93 151.77C379.93 152.82 379.255 153.57 377.77 153.57H376.12ZM383.834 159H385.514V147.96H383.834V159ZM393.386 151.68V152.565H393.356C392.816 151.92 392.021 151.575 391.091 151.575C389.081 151.575 387.566 153.165 387.566 155.37C387.566 157.635 389.081 159.12 391.106 159.12C392.111 159.12 392.906 158.73 393.431 158.025H393.461V159H395.066V151.68H393.386ZM391.376 157.59C390.131 157.59 389.276 156.675 389.276 155.385C389.276 153.975 390.206 153.09 391.376 153.09C392.576 153.09 393.461 154.08 393.461 155.385C393.461 156.705 392.516 157.59 391.376 157.59ZM402.26 151.68L400.37 156.63L398.345 151.68H396.575L399.545 158.58L398.225 161.97H399.995L404.015 151.68H402.26ZM413.216 159.12C414.926 159.12 416.891 158.13 416.891 155.925C416.891 153.87 415.421 153.375 413.591 152.655C412.301 152.16 411.581 151.89 411.596 151.11C411.611 150.315 412.271 149.865 413.096 149.865C413.816 149.865 414.671 150.24 415.541 150.96L416.621 149.535C415.541 148.68 414.356 148.215 413.096 148.23C411.251 148.23 409.721 149.535 409.721 151.2C409.721 153.15 411.326 153.87 412.946 154.44C414.296 154.92 415.001 155.22 415.001 156.15C415.001 156.93 414.401 157.44 413.231 157.44C412.316 157.44 411.266 156.975 410.501 156.045L409.361 157.44C410.471 158.595 411.851 159.12 413.216 159.12ZM421.814 155.925L423.719 159H425.609L422.924 154.635L425.564 151.68H423.569L420.569 155.025V147.96H418.889V159H420.569V157.275L421.784 155.925H421.814ZM428.061 150.6C428.691 150.6 429.201 150.09 429.201 149.475C429.201 148.875 428.691 148.365 428.061 148.365C427.431 148.365 426.936 148.875 426.936 149.475C426.936 150.09 427.431 150.6 428.061 150.6ZM427.221 159H428.901V151.68H427.221V159ZM431.508 159H433.188V147.96H431.508V159ZM435.795 159H437.475V147.96H435.795V159ZM442.317 159.12C444.177 159.12 445.047 158.13 445.047 156.9C445.047 155.445 444.072 155.16 442.512 154.545C441.807 154.275 441.357 154.02 441.357 153.66C441.357 153.21 441.822 153.03 442.152 153.03C442.722 153.03 443.397 153.255 443.982 153.81L444.822 152.49C444.012 151.83 443.172 151.575 442.242 151.575C440.742 151.575 439.662 152.445 439.662 153.645C439.662 155.085 440.697 155.625 441.897 156.045C442.857 156.375 443.337 156.555 443.337 156.93C443.337 157.365 442.962 157.65 442.317 157.65C441.417 157.65 440.787 157.365 440.202 156.795L439.362 158.055C440.127 158.73 441.132 159.12 442.317 159.12Z" fill="#001951"/>
<path opacity="0.8" d="M581.305 159H583.12V155.205H584.95C587.245 155.205 588.805 154.11 588.805 151.8C588.805 149.82 587.71 148.35 585.16 148.35H581.305V159ZM583.12 153.57V149.97H584.905C586.21 149.97 586.93 150.645 586.93 151.77C586.93 152.82 586.255 153.57 584.77 153.57H583.12ZM590.834 159H592.514V147.96H590.834V159ZM600.386 151.68V152.565H600.356C599.816 151.92 599.021 151.575 598.091 151.575C596.081 151.575 594.566 153.165 594.566 155.37C594.566 157.635 596.081 159.12 598.106 159.12C599.111 159.12 599.906 158.73 600.431 158.025H600.461V159H602.066V151.68H600.386ZM598.376 157.59C597.131 157.59 596.276 156.675 596.276 155.385C596.276 153.975 597.206 153.09 598.376 153.09C599.576 153.09 600.461 154.08 600.461 155.385C600.461 156.705 599.516 157.59 598.376 157.59ZM609.26 151.68L607.37 156.63L605.345 151.68H603.575L606.545 158.58L605.225 161.97H606.995L611.015 151.68H609.26ZM620.216 159.12C621.926 159.12 623.891 158.13 623.891 155.925C623.891 153.87 622.421 153.375 620.591 152.655C619.301 152.16 618.581 151.89 618.596 151.11C618.611 150.315 619.271 149.865 620.096 149.865C620.816 149.865 621.671 150.24 622.541 150.96L623.621 149.535C622.541 148.68 621.356 148.215 620.096 148.23C618.251 148.23 616.721 149.535 616.721 151.2C616.721 153.15 618.326 153.87 619.946 154.44C621.296 154.92 622.001 155.22 622.001 156.15C622.001 156.93 621.401 157.44 620.231 157.44C619.316 157.44 618.266 156.975 617.501 156.045L616.361 157.44C617.471 158.595 618.851 159.12 620.216 159.12ZM628.814 155.925L630.719 159H632.609L629.924 154.635L632.564 151.68H630.569L627.569 155.025V147.96H625.889V159H627.569V157.275L628.784 155.925H628.814ZM635.061 150.6C635.691 150.6 636.201 150.09 636.201 149.475C636.201 148.875 635.691 148.365 635.061 148.365C634.431 148.365 633.936 148.875 633.936 149.475C633.936 150.09 634.431 150.6 635.061 150.6ZM634.221 159H635.901V151.68H634.221V159ZM638.508 159H640.188V147.96H638.508V159ZM642.795 159H644.475V147.96H642.795V159ZM649.317 159.12C651.177 159.12 652.047 158.13 652.047 156.9C652.047 155.445 651.072 155.16 649.512 154.545C648.807 154.275 648.357 154.02 648.357 153.66C648.357 153.21 648.822 153.03 649.152 153.03C649.722 153.03 650.397 153.255 650.982 153.81L651.822 152.49C651.012 151.83 650.172 151.575 649.242 151.575C647.742 151.575 646.662 152.445 646.662 153.645C646.662 155.085 647.697 155.625 648.897 156.045C649.857 156.375 650.337 156.555 650.337 156.93C650.337 157.365 649.962 157.65 649.317 157.65C648.417 157.65 647.787 157.365 647.202 156.795L646.362 158.055C647.127 158.73 648.132 159.12 649.317 159.12Z" fill="#001951"/>
<g filter="url(#filter6_d)">
<rect x="318" y="118" width="186" height="68" rx="10" fill="white"/>
</g>
<g filter="url(#filter7_d)">
<rect x="525" y="118" width="236" height="68" rx="10" fill="white"/>
</g>
<path opacity="0.8" d="M377.485 159.12C379.195 159.12 381.16 158.13 381.16 155.925C381.16 153.87 379.69 153.375 377.86 152.655C376.57 152.16 375.85 151.89 375.865 151.11C375.88 150.315 376.54 149.865 377.365 149.865C378.085 149.865 378.94 150.24 379.81 150.96L380.89 149.535C379.81 148.68 378.625 148.215 377.365 148.23C375.52 148.23 373.99 149.535 373.99 151.2C373.99 153.15 375.595 153.87 377.215 154.44C378.565 154.92 379.27 155.22 379.27 156.15C379.27 156.93 378.67 157.44 377.5 157.44C376.585 157.44 375.535 156.975 374.77 156.045L373.63 157.44C374.74 158.595 376.12 159.12 377.485 159.12ZM383.367 159H390.387V157.38H385.182V154.53H389.127V152.91H385.182V149.97H390.072V148.35H383.367V159ZM392.679 159H399.429V157.38H394.494V148.35H392.679V159ZM405.751 159H407.566V148.35H405.751V159ZM414.392 151.575C413.447 151.575 412.547 151.965 411.932 152.7H411.917V151.68H410.237V159H411.917V155.325C411.917 153.885 412.667 153.09 413.807 153.09C414.812 153.09 415.397 153.585 415.397 155.13V159H417.077V154.695C417.077 152.49 415.997 151.575 414.392 151.575ZM421.668 159.12C423.528 159.12 424.398 158.13 424.398 156.9C424.398 155.445 423.423 155.16 421.863 154.545C421.158 154.275 420.708 154.02 420.708 153.66C420.708 153.21 421.173 153.03 421.503 153.03C422.073 153.03 422.748 153.255 423.333 153.81L424.173 152.49C423.363 151.83 422.523 151.575 421.593 151.575C420.093 151.575 419.013 152.445 419.013 153.645C419.013 155.085 420.048 155.625 421.248 156.045C422.208 156.375 422.688 156.555 422.688 156.93C422.688 157.365 422.313 157.65 421.668 157.65C420.768 157.65 420.138 157.365 419.553 156.795L418.713 158.055C419.478 158.73 420.483 159.12 421.668 159.12ZM428.441 159.12C429.401 159.12 429.866 158.925 430.301 158.685L429.866 157.23C429.476 157.44 429.071 157.545 428.786 157.545C428.306 157.545 428.081 157.275 428.081 156.525V153.105H430.226V151.68H428.081V149.07L426.401 149.25V151.68H425.501V153.105H426.401V156.69C426.401 158.325 427.181 159.12 428.441 159.12ZM435.92 151.575C435.035 151.575 434.21 152.01 433.64 152.79H433.625V151.68H431.945V159H433.625V155.535C433.625 154.335 434.345 153.42 435.62 153.42C435.74 153.42 435.935 153.435 436.13 153.45V151.575H435.92ZM442.586 151.68V155.19C442.586 156.765 441.686 157.59 440.711 157.59C439.706 157.59 439.256 157.14 439.256 155.685V151.68H437.576V156.135C437.576 158.31 438.701 159.12 440.321 159.12C441.176 159.12 442.001 158.745 442.586 158.04V159H444.266V151.68H442.586ZM449.898 159.12C451.308 159.12 452.433 158.55 453.063 157.83L451.908 156.81C451.518 157.23 450.858 157.59 450.048 157.59C448.758 157.59 447.873 156.69 447.873 155.34C447.873 154.005 448.743 153.09 450.048 153.09C450.843 153.09 451.473 153.435 451.893 153.93L453.033 152.94C452.298 152.04 451.098 151.575 449.958 151.575C447.738 151.575 446.163 153.105 446.163 155.355C446.163 157.59 447.738 159.12 449.898 159.12ZM456.956 159.12C457.916 159.12 458.381 158.925 458.816 158.685L458.381 157.23C457.991 157.44 457.586 157.545 457.301 157.545C456.821 157.545 456.596 157.275 456.596 156.525V153.105H458.741V151.68H456.596V149.07L454.916 149.25V151.68H454.016V153.105H454.916V156.69C454.916 158.325 455.696 159.12 456.956 159.12ZM463.513 159.12C465.763 159.12 467.353 157.575 467.353 155.355C467.353 153.105 465.763 151.575 463.513 151.575C461.203 151.575 459.673 153.195 459.673 155.355C459.673 157.5 461.203 159.12 463.513 159.12ZM463.513 157.59C462.253 157.59 461.383 156.6 461.383 155.355C461.383 154.08 462.238 153.09 463.513 153.09C464.713 153.09 465.643 154.005 465.643 155.355C465.643 156.675 464.698 157.59 463.513 157.59ZM473.277 151.575C472.392 151.575 471.567 152.01 470.997 152.79H470.982V151.68H469.302V159H470.982V155.535C470.982 154.335 471.702 153.42 472.977 153.42C473.097 153.42 473.292 153.435 473.487 153.45V151.575H473.277Z" fill="#001951"/>
<path opacity="0.8" d="M586.195 159.09C587.83 159.09 589.39 158.565 590.365 157.755V153.315H585.955V154.935H588.565V156.735C587.845 157.215 587.05 157.44 586.195 157.44C584.065 157.44 582.715 155.82 582.715 153.69C582.715 151.38 584.2 149.94 586.12 149.94C587.32 149.94 588.28 150.375 589.015 151.095L590.29 149.985C589.18 148.785 587.62 148.23 586.135 148.23C582.85 148.23 580.825 150.555 580.825 153.69C580.825 157.065 583.135 159.09 586.195 159.09ZM597.537 151.68V155.19C597.537 156.765 596.637 157.59 595.662 157.59C594.657 157.59 594.207 157.14 594.207 155.685V151.68H592.527V156.135C592.527 158.31 593.652 159.12 595.272 159.12C596.127 159.12 596.952 158.745 597.537 158.04V159H599.217V151.68H597.537ZM602.494 150.6C603.124 150.6 603.634 150.09 603.634 149.475C603.634 148.875 603.124 148.365 602.494 148.365C601.864 148.365 601.369 148.875 601.369 149.475C601.369 150.09 601.864 150.6 602.494 150.6ZM601.654 159H603.334V151.68H601.654V159ZM611.281 147.96V152.565H611.251C610.696 151.92 609.886 151.575 608.926 151.575C606.916 151.575 605.386 153.165 605.386 155.37C605.386 157.635 606.916 159.12 608.941 159.12C609.976 159.12 610.771 158.73 611.311 158.025H611.341V159H612.946V147.96H611.281ZM609.196 157.59C607.966 157.59 607.096 156.675 607.096 155.385C607.096 153.975 608.041 153.09 609.211 153.09C610.471 153.09 611.341 154.08 611.341 155.385C611.341 156.705 610.396 157.59 609.196 157.59ZM620.707 151.68V152.565H620.677C620.137 151.92 619.342 151.575 618.412 151.575C616.402 151.575 614.887 153.165 614.887 155.37C614.887 157.635 616.402 159.12 618.427 159.12C619.432 159.12 620.227 158.73 620.752 158.025H620.782V159H622.387V151.68H620.707ZM618.697 157.59C617.452 157.59 616.597 156.675 616.597 155.385C616.597 153.975 617.527 153.09 618.697 153.09C619.897 153.09 620.782 154.08 620.782 155.385C620.782 156.705 619.837 157.59 618.697 157.59ZM628.862 151.575C627.917 151.575 627.017 151.965 626.402 152.7H626.387V151.68H624.707V159H626.387V155.325C626.387 153.885 627.137 153.09 628.277 153.09C629.282 153.09 629.867 153.585 629.867 155.13V159H631.547V154.695C631.547 152.49 630.467 151.575 628.862 151.575ZM637.099 159.12C638.509 159.12 639.634 158.55 640.264 157.83L639.109 156.81C638.719 157.23 638.059 157.59 637.249 157.59C635.959 157.59 635.074 156.69 635.074 155.34C635.074 154.005 635.944 153.09 637.249 153.09C638.044 153.09 638.674 153.435 639.094 153.93L640.234 152.94C639.499 152.04 638.299 151.575 637.159 151.575C634.939 151.575 633.364 153.105 633.364 155.355C633.364 157.59 634.939 159.12 637.099 159.12ZM648.672 155.25C648.672 153.12 647.277 151.575 645.117 151.575C643.077 151.575 641.547 153.09 641.547 155.34C641.547 157.62 643.152 159.12 645.282 159.12C646.722 159.12 647.757 158.535 648.372 157.74L647.202 156.735C646.827 157.2 646.227 157.59 645.372 157.59C644.292 157.59 643.512 156.96 643.287 155.925H648.627C648.642 155.79 648.672 155.52 648.672 155.25ZM645.207 153.09C646.167 153.09 646.767 153.69 646.977 154.575H643.317C643.557 153.615 644.277 153.09 645.207 153.09ZM659.919 159.09C661.794 159.09 663.204 158.22 664.119 157.08L662.784 155.94C662.109 156.78 661.119 157.395 659.919 157.395C657.894 157.395 656.439 155.895 656.439 153.705C656.439 151.455 657.849 149.94 659.919 149.94C661.059 149.94 662.094 150.555 662.784 151.395L664.119 150.27C662.949 148.83 661.374 148.23 659.919 148.23C656.469 148.23 654.549 150.675 654.549 153.705C654.549 157.2 657.024 159.09 659.919 159.09ZM669.293 159.12C671.543 159.12 673.133 157.575 673.133 155.355C673.133 153.105 671.543 151.575 669.293 151.575C666.983 151.575 665.453 153.195 665.453 155.355C665.453 157.5 666.983 159.12 669.293 159.12ZM669.293 157.59C668.033 157.59 667.163 156.6 667.163 155.355C667.163 154.08 668.018 153.09 669.293 153.09C670.493 153.09 671.423 154.005 671.423 155.355C671.423 156.675 670.478 157.59 669.293 157.59ZM679.942 151.68V155.19C679.942 156.765 679.042 157.59 678.067 157.59C677.062 157.59 676.612 157.14 676.612 155.685V151.68H674.932V156.135C674.932 158.31 676.057 159.12 677.677 159.12C678.532 159.12 679.357 158.745 679.942 158.04V159H681.622V151.68H679.942ZM688.109 151.575C687.164 151.575 686.264 151.965 685.649 152.7H685.634V151.68H683.954V159H685.634V155.325C685.634 153.885 686.384 153.09 687.524 153.09C688.529 153.09 689.114 153.585 689.114 155.13V159H690.794V154.695C690.794 152.49 689.714 151.575 688.109 151.575ZM695.386 159.12C697.246 159.12 698.116 158.13 698.116 156.9C698.116 155.445 697.141 155.16 695.581 154.545C694.876 154.275 694.426 154.02 694.426 153.66C694.426 153.21 694.891 153.03 695.221 153.03C695.791 153.03 696.466 153.255 697.051 153.81L697.891 152.49C697.081 151.83 696.241 151.575 695.311 151.575C693.811 151.575 692.731 152.445 692.731 153.645C692.731 155.085 693.766 155.625 694.966 156.045C695.926 156.375 696.406 156.555 696.406 156.93C696.406 157.365 696.031 157.65 695.386 157.65C694.486 157.65 693.856 157.365 693.271 156.795L692.431 158.055C693.196 158.73 694.201 159.12 695.386 159.12ZM706.615 155.25C706.615 153.12 705.22 151.575 703.06 151.575C701.02 151.575 699.49 153.09 699.49 155.34C699.49 157.62 701.095 159.12 703.225 159.12C704.665 159.12 705.7 158.535 706.315 157.74L705.145 156.735C704.77 157.2 704.17 157.59 703.315 157.59C702.235 157.59 701.455 156.96 701.23 155.925H706.57C706.585 155.79 706.615 155.52 706.615 155.25ZM703.15 153.09C704.11 153.09 704.71 153.69 704.92 154.575H701.26C701.5 153.615 702.22 153.09 703.15 153.09ZM708.653 159H710.333V147.96H708.653V159ZM712.94 159H714.62V147.96H712.94V159ZM720.527 159.12C722.777 159.12 724.367 157.575 724.367 155.355C724.367 153.105 722.777 151.575 720.527 151.575C718.217 151.575 716.687 153.195 716.687 155.355C716.687 157.5 718.217 159.12 720.527 159.12ZM720.527 157.59C719.267 157.59 718.397 156.6 718.397 155.355C718.397 154.08 719.252 153.09 720.527 153.09C721.727 153.09 722.657 154.005 722.657 155.355C722.657 156.675 721.712 157.59 720.527 157.59ZM730.291 151.575C729.406 151.575 728.581 152.01 728.011 152.79H727.996V151.68H726.316V159H727.996V155.535C727.996 154.335 728.716 153.42 729.991 153.42C730.111 153.42 730.306 153.435 730.501 153.45V151.575H730.291Z" fill="#001951"/>
<path d="M191.219 143H167.781C167.35 143 167 143.348 167 143.781V145.344C167 145.775 167.35 146.125 167.781 146.125H168.562V158.625C168.562 159.487 169.264 160.188 170.125 160.188H178.719V162.113L176.723 163.444C176.364 163.683 176.267 164.169 176.506 164.527C176.744 164.884 177.227 164.981 177.589 164.744L179.5 163.47L181.411 164.744C181.544 164.833 181.694 164.875 181.844 164.875C182.095 164.875 182.342 164.753 182.494 164.527C182.733 164.169 182.636 163.683 182.277 163.444L180.281 162.113V160.188H188.875C189.737 160.188 190.438 159.487 190.438 158.625V146.125H191.219C191.65 146.125 192 145.775 192 145.344V143.781C192 143.348 191.65 143 191.219 143Z" fill="#E9A5AD"/>
<path d="M557.5 139C550.635 139 545 144.675 545 151.5C545 158.367 550.675 164 557.5 164C564.366 164 570 158.325 570 151.5C570 144.638 564.326 139 557.5 139ZM562.619 141.787C564.574 142.821 566.228 144.426 567.262 146.381L563.163 148.182C562.592 147.212 561.789 146.408 560.818 145.837L562.619 141.787ZM552.381 141.738L554.182 145.837C553.211 146.408 552.408 147.212 551.837 148.182L547.787 146.381C548.821 144.426 550.426 142.772 552.381 141.738ZM552.381 161.213C550.426 160.179 548.821 158.574 547.787 156.619L551.837 154.818C552.408 155.788 553.211 156.592 554.182 157.163L552.381 161.213ZM552.373 151.5C552.373 148.673 554.673 146.373 557.5 146.373C560.327 146.373 562.627 148.673 562.627 151.5C562.627 154.327 560.327 156.627 557.5 156.627C554.673 156.627 552.373 154.327 552.373 151.5ZM562.619 161.213L560.818 157.163C561.789 156.592 562.592 155.788 563.163 154.818L567.262 156.619C566.228 158.574 564.574 160.179 562.619 161.213Z" fill="#E9A5AD"/>
<path d="M359.339 143.661C356.978 141.3 353.839 140 350.5 140C347.161 140 344.022 141.3 341.661 143.661C339.3 146.022 338 149.161 338 152.5C338 155.839 339.3 158.978 341.661 161.339C344.022 163.7 347.161 165 350.5 165C353.839 165 356.978 163.7 359.339 161.339C361.7 158.978 363 155.839 363 152.5C363 149.161 361.7 146.022 359.339 143.661ZM350.5 144.67C351.537 144.67 352.378 145.511 352.378 146.548C352.378 147.585 351.537 148.426 350.5 148.426C349.463 148.426 348.622 147.585 348.622 146.548C348.622 145.511 349.463 144.67 350.5 144.67ZM352.378 160.52H348.622C347.736 160.52 347.018 159.803 347.018 158.917C347.018 158.031 347.736 157.314 348.622 157.314H348.668V153.365C347.781 153.237 347.099 152.474 347.099 151.552C347.099 150.54 347.919 149.719 348.931 149.719H350.5C351.512 149.719 352.332 150.54 352.332 151.552V157.314H352.378C353.264 157.314 353.982 158.031 353.982 158.917C353.982 159.803 353.264 160.52 352.378 160.52Z" fill="#E9A5AD"/>
</g>
<defs>
<filter id="filter0_d" x="-129" y="-1026" width="1560" height="2256" filterUnits="userSpaceOnUse" color-interpolation-filters="sRGB">
<feFlood flood-opacity="0" result="BackgroundImageFix"/>
<feColorMatrix in="SourceAlpha" type="matrix" values="0 0 0 0 0 0 0 0 0 0 0 0 0 0 0 0 0 0 127 0"/>
<feOffset dy="10"/>
<feGaussianBlur stdDeviation="30"/>
<feColorMatrix type="matrix" values="0 0 0 0 0 0 0 0 0 0 0 0 0 0 0 0 0 0 0.04 0"/>
<feBlend mode="normal" in2="BackgroundImageFix" result="effect1_dropShadow"/>
<feBlend mode="normal" in="SourceGraphic" in2="effect1_dropShadow" result="shape"/>
</filter>
<filter id="filter1_d" x="37" y="-60" width="308" height="268" filterUnits="userSpaceOnUse" color-interpolation-filters="sRGB">
<feFlood flood-opacity="0" result="BackgroundImageFix"/>
<feColorMatrix in="SourceAlpha" type="matrix" values="0 0 0 0 0 0 0 0 0 0 0 0 0 0 0 0 0 0 127 0"/>
<feOffset dy="10"/>
<feGaussianBlur stdDeviation="50"/>
<feColorMatrix type="matrix" values="0 0 0 0 0 0 0 0 0 0 0 0 0 0 0 0 0 0 0.05 0"/>
<feBlend mode="normal" in2="BackgroundImageFix" result="effect1_dropShadow"/>
<feBlend mode="normal" in="SourceGraphic" in2="effect1_dropShadow" result="shape"/>
</filter>
<filter id="filter2_d" x="165" y="-60" width="376" height="268" filterUnits="userSpaceOnUse" color-interpolation-filters="sRGB">
<feFlood flood-opacity="0" result="BackgroundImageFix"/>
<feColorMatrix in="SourceAlpha" type="matrix" values="0 0 0 0 0 0 0 0 0 0 0 0 0 0 0 0 0 0 127 0"/>
<feOffset dy="10"/>
<feGaussianBlur stdDeviation="50"/>
<feColorMatrix type="matrix" values="0 0 0 0 0 0 0 0 0 0 0 0 0 0 0 0 0 0 0.05 0"/>
<feBlend mode="normal" in2="BackgroundImageFix" result="effect1_dropShadow"/>
<feBlend mode="normal" in="SourceGraphic" in2="effect1_dropShadow" result="shape"/>
</filter>
<filter id="filter3_d" x="361" y="-60" width="419" height="268" filterUnits="userSpaceOnUse" color-interpolation-filters="sRGB">
<feFlood flood-opacity="0" result="BackgroundImageFix"/>
<feColorMatrix in="SourceAlpha" type="matrix" values="0 0 0 0 0 0 0 0 0 0 0 0 0 0 0 0 0 0 127 0"/>
<feOffset dy="10"/>
<feGaussianBlur stdDeviation="50"/>
<feColorMatrix type="matrix" values="0 0 0 0 0 0 0 0 0 0 0 0 0 0 0 0 0 0 0.05 0"/>
<feBlend mode="normal" in2="BackgroundImageFix" result="effect1_dropShadow"/>
<feBlend mode="normal" in="SourceGraphic" in2="effect1_dropShadow" result="shape"/>
</filter>
<filter id="filter4_d" x="600" y="-60" width="317" height="268" filterUnits="userSpaceOnUse" color-interpolation-filters="sRGB">
<feFlood flood-opacity="0" result="BackgroundImageFix"/>
<feColorMatrix in="SourceAlpha" type="matrix" values="0 0 0 0 0 0 0 0 0 0 0 0 0 0 0 0 0 0 127 0"/>
<feOffset dy="10"/>
<feGaussianBlur stdDeviation="50"/>
<feColorMatrix type="matrix" values="0 0 0 0 0 0 0 0 0 0 0 0 0 0 0 0 0 0 0.05 0"/>
<feBlend mode="normal" in2="BackgroundImageFix" result="effect1_dropShadow"/>
<feBlend mode="normal" in="SourceGraphic" in2="effect1_dropShadow" result="shape"/>
</filter>
<filter id="filter5_d" x="47" y="28" width="350" height="268" filterUnits="userSpaceOnUse" color-interpolation-filters="sRGB">
<feFlood flood-opacity="0" result="BackgroundImageFix"/>
<feColorMatrix in="SourceAlpha" type="matrix" values="0 0 0 0 0 0 0 0 0 0 0 0 0 0 0 0 0 0 127 0"/>
<feOffset dy="10"/>
<feGaussianBlur stdDeviation="50"/>
<feColorMatrix type="matrix" values="0 0 0 0 0 0 0 0 0 0 0 0 0 0 0 0 0 0 0.05 0"/>
<feBlend mode="normal" in2="BackgroundImageFix" result="effect1_dropShadow"/>
<feBlend mode="normal" in="SourceGraphic" in2="effect1_dropShadow" result="shape"/>
</filter>
<filter id="filter6_d" x="218" y="28" width="386" height="268" filterUnits="userSpaceOnUse" color-interpolation-filters="sRGB">
<feFlood flood-opacity="0" result="BackgroundImageFix"/>
<feColorMatrix in="SourceAlpha" type="matrix" values="0 0 0 0 0 0 0 0 0 0 0 0 0 0 0 0 0 0 127 0"/>
<feOffset dy="10"/>
<feGaussianBlur stdDeviation="50"/>
<feColorMatrix type="matrix" values="0 0 0 0 0 0 0 0 0 0 0 0 0 0 0 0 0 0 0.05 0"/>
<feBlend mode="normal" in2="BackgroundImageFix" result="effect1_dropShadow"/>
<feBlend mode="normal" in="SourceGraphic" in2="effect1_dropShadow" result="shape"/>
</filter>
<filter id="filter7_d" x="425" y="28" width="436" height="268" filterUnits="userSpaceOnUse" color-interpolation-filters="sRGB">
<feFlood flood-opacity="0" result="BackgroundImageFix"/>
<feColorMatrix in="SourceAlpha" type="matrix" values="0 0 0 0 0 0 0 0 0 0 0 0 0 0 0 0 0 0 127 0"/>
<feOffset dy="10"/>
<feGaussianBlur stdDeviation="50"/>
<feColorMatrix type="matrix" values="0 0 0 0 0 0 0 0 0 0 0 0 0 0 0 0 0 0 0.05 0"/>
<feBlend mode="normal" in2="BackgroundImageFix" result="effect1_dropShadow"/>
<feBlend mode="normal" in="SourceGraphic" in2="effect1_dropShadow" result="shape"/>
</filter>
<clipPath id="clip0">
<rect x="-70" y="-3040" width="1440" height="10420" fill="white"/>
</clipPath>
</defs>
</svg>
