<svg width="785" height="406" viewBox="0 0 785 406" fill="none" xmlns="http://www.w3.org/2000/svg">
<path d="M703.132 334.242C705.705 333.474 708.458 333.182 711.068 333.532C711.652 333.608 712.221 333.75 712.792 333.851C713.358 333.979 713.905 334.175 714.464 334.324C714.738 334.414 715.025 334.456 715.296 334.572L716.109 334.879C716.654 335.085 717.225 335.24 717.757 335.502C718.316 335.76 718.91 336.055 719.44 336.411L720.892 337.378L722.246 338.478C722.674 338.791 723.114 339.142 723.439 339.506C725.002 341.358 726.383 343.294 727.658 345.361C728.281 347.151 729.167 348.767 729.693 350.605C730.013 351.502 730.13 352.46 730.331 353.397C730.389 353.876 730.443 354.35 730.498 354.824C730.522 355.063 730.57 355.301 730.586 355.539L730.628 356.255C730.659 356.761 730.704 357.351 730.577 357.855C730.325 359.414 729.934 360.887 729.453 362.354C728.968 363.816 728.381 365.267 727.484 366.599C726.995 367.302 726.436 367.993 725.687 368.518C724.947 369.045 724.005 369.398 723.054 369.353C722.102 369.348 721.13 368.875 720.533 368.178C719.923 367.483 719.579 366.673 719.343 365.871C718.871 364.15 718.67 362.342 718.613 360.571C718.581 359.513 718.583 358.461 718.675 357.391C718.765 356.331 718.98 355.281 719.25 354.254C720.084 351.271 721.458 348.498 723.153 345.921C724.29 344.198 725.639 342.586 727.202 341.162C728.76 339.742 730.545 338.508 732.563 337.651C734.604 336.761 737.014 336.468 739.3 336.864C741.601 337.272 743.667 338.442 745.323 339.906C746.991 341.387 748.307 343.167 749.38 345.053C750.962 347.902 752.057 351.024 752.417 354.304C752.558 355.836 752.58 357.407 752.226 358.985C752.054 359.771 751.799 360.561 751.381 361.306C750.978 362.064 750.48 362.688 749.914 363.283C749.486 363.725 749.03 364.139 748.439 364.495C748.153 364.67 747.81 364.841 747.329 364.962C746.874 365.065 746.402 365.025 745.969 364.878C745.175 364.564 744.664 364.007 744.326 363.442C743.99 362.868 743.815 362.271 743.722 361.7C743.559 360.558 743.639 359.473 743.881 358.428C744.117 357.386 744.48 356.369 745.114 355.406C745.736 354.467 746.512 353.689 747.348 353.047C749.033 351.76 750.931 350.919 752.888 350.354C754.853 349.8 756.891 349.542 758.953 349.617C761.211 349.707 763.539 350.173 765.642 351.362C766.69 351.952 767.654 352.781 768.405 353.638C769.818 355.24 770.909 356.989 771.821 358.812C772.738 360.632 773.455 362.541 773.996 364.508C774.779 367.319 775.134 370.267 774.944 373.237C774.714 376.195 773.871 379.176 772.286 381.744C771.411 383.215 770.3 384.531 769.074 385.689C768.478 386.297 767.805 386.798 767.162 387.341C766.487 387.828 765.824 388.353 765.117 388.786C764.329 389.3 764.004 389.324 764.161 388.884C764.291 388.503 764.386 388.139 764.59 387.743C764.689 387.546 764.818 387.337 764.994 387.117C765.162 386.886 765.357 386.629 765.623 386.351C765.802 386.168 765.976 385.988 766.154 385.804C766.321 385.614 766.491 385.429 766.669 385.246C766.848 385.062 767.044 384.882 767.25 384.703C767.444 384.508 767.652 384.311 767.891 384.115C769.269 382.942 770.207 381.3 771.289 379.889C771.439 379.687 771.618 379.363 771.7 379.078C773.545 374.09 773.345 368.533 771.673 363.446C771.128 361.786 770.35 360.201 769.472 358.695C768.907 357.718 768.293 356.769 767.6 355.885C767.091 355.256 766.571 354.621 765.973 354.095C765.381 353.565 764.717 353.119 763.996 352.768C762.897 352.247 761.766 352.005 760.725 351.512C760.502 351.408 759.855 351.331 759.619 351.392C758.724 351.595 757.729 351.543 756.715 351.614C754.005 351.804 751.263 352.554 748.99 354.039C748.152 354.582 747.406 355.261 746.825 356.03C746.237 356.789 745.899 357.71 745.677 358.664C745.477 359.562 745.421 360.497 745.565 361.343C745.642 361.762 745.777 362.154 745.963 362.455C746.148 362.765 746.422 362.972 746.613 363.021C747.03 363.233 748.059 362.374 748.747 361.527C749.545 360.585 750.016 359.577 750.263 358.379C750.526 357.201 750.524 355.927 750.405 354.675C750.351 354.092 750.207 353.527 750.096 352.953C749.889 351.889 749.525 350.814 749.279 349.816C749.005 348.715 748.664 347.865 747.968 347.052C747.567 346.603 747.142 345.789 746.734 345.158C746.229 344.34 745.733 343.524 745.157 342.78C744.48 341.885 743.744 341.07 742.64 340.575C742.048 340.326 741.326 339.843 740.678 339.549C739.974 339.209 739.216 338.947 738.423 338.85C737.634 338.727 736.822 338.723 736.008 338.835C734.382 339.029 732.808 339.683 731.362 340.524C727.454 342.902 724.409 346.648 722.447 350.74C721.677 352.346 721.053 354.026 720.681 355.741C720.538 356.405 720.438 357.075 720.367 357.742L720.304 358.743C720.298 359.09 720.287 359.441 720.289 359.789C720.29 361.181 720.386 362.574 720.641 363.876C720.88 365.166 721.364 366.419 722.017 367.021C722.59 367.557 723.591 367.565 724.479 366.995C725.186 366.531 725.86 365.718 726.316 364.82C726.852 363.773 727.293 362.638 727.662 361.468C728.022 360.307 728.37 359.075 728.517 357.911C728.995 355.038 728.38 352.02 727.288 349.3C727.154 348.984 727.024 348.665 726.89 348.35C726.742 348.037 726.583 347.731 726.453 347.421C725.54 345.24 724.207 343.231 722.609 341.514C721.008 339.791 719.109 338.4 717.074 337.349L716.46 337.014C716.249 336.917 716.031 336.841 715.816 336.748C715.383 336.578 714.956 336.396 714.522 336.227C713.621 336.014 712.741 335.677 711.812 335.577C709.972 335.279 708.071 335.298 706.198 335.623C703.296 336.107 700.476 337.287 697.91 338.883C697.747 338.993 697.59 339.13 697.419 339.238C695.996 340.187 695.351 340.318 695.624 339.327C695.881 338.465 696.682 337.474 698.11 336.607C699.682 335.659 701.369 334.892 703.123 334.326L703.132 334.242Z" fill="#69B9CB"/>
<path d="M1.19927 101.395C1.15507 101.279 1.21031 101.152 1.32634 101.107C6.26594 99.1459 11.5592 97.2176 17.206 95.3943C23.2009 93.4549 28.9472 91.836 34.3896 90.4823C34.5167 90.4491 34.6383 90.5265 34.6659 90.6536C36.3345 98.3503 38.412 106.522 41.02 115.07C42.6389 120.38 44.3462 125.446 46.0977 130.264C46.1419 130.391 46.07 130.529 45.9374 130.557C41.0476 131.706 35.8317 133.126 30.3672 134.889C23.5435 137.088 17.3331 139.503 11.7581 141.945C11.6199 142.006 11.4652 141.917 11.4487 141.768C10.4983 134.701 9.012 126.805 6.70796 118.324C5.02827 112.152 3.14417 106.5 1.19927 101.395Z" fill="#417A87"/>
<path d="M7.02916 98.0684C8.83593 97.5214 10.6537 96.9523 12.466 96.4937C14.0849 96.0849 15.6762 95.7036 17.2454 95.0351C17.6487 94.8638 18.1129 94.7477 18.5494 94.6096L20.9307 93.8526C21.2899 93.7366 21.6491 93.5267 21.9916 93.4604C23.6934 93.1067 25.3565 92.6647 26.9809 92.0348C28.3402 91.8746 29.5833 91.3773 30.8818 90.9685C31.3459 90.8193 31.8155 90.6922 32.2907 90.5596C32.8267 90.4049 33.3682 90.2557 33.8986 90.1065L34.6113 90.0015C34.7218 89.9905 34.8545 90.0402 34.9373 90.1175C35.0313 90.1838 35.0368 90.3165 35.0865 90.4159C35.2412 90.8137 35.407 91.322 35.512 91.7696L35.8048 93.4272C35.9098 93.9631 36.0258 94.4991 36.1474 95.0351C36.396 96.1014 36.6778 97.1623 36.9596 98.2232C37.5674 100.5 38.0978 102.793 38.5122 105.108C38.7332 106.34 39.0868 107.6 39.4349 108.832C39.8493 110.301 40.3355 111.743 40.7886 113.202C41.4461 115.318 42.1534 117.396 42.9711 119.44C44.0596 122.17 45.1536 124.916 46.2531 127.662C46.3968 128.021 46.5183 128.341 46.662 128.745L46.8333 129.214L46.9106 129.645L47.0598 130.507C47.104 130.662 47.0764 130.767 47.0045 130.9C46.9217 131.032 46.8664 131.137 46.7117 131.176L45.905 131.507L45.5017 131.673L45.021 131.784L44.4298 131.911C41.4737 132.568 38.5177 133.253 35.5949 134.066C33.4013 134.679 31.2244 135.381 29.0695 136.127C27.0583 136.828 25.0803 137.607 23.0967 138.381C21.3783 139.049 19.671 139.735 17.9692 140.447L15.4276 141.53L12.3445 142.895L11.6538 142.967L11.3057 143C11.2118 143 11.0958 142.95 10.9852 142.884C10.93 142.851 10.8803 142.818 10.8416 142.779L10.7863 142.729L10.7587 142.641L10.6427 142.271L10.4106 141.53L10.173 140.79C10.1288 140.69 10.1178 140.464 10.0957 140.387L10.057 140.143L9.89678 139.177C9.6813 137.889 9.45476 136.602 9.20612 135.314C8.92433 133.828 8.59281 132.353 8.26682 130.878C8.10106 130.143 7.95186 129.397 7.80268 128.662C7.25015 125.916 6.64239 123.181 5.95173 120.462C4.95718 116.573 3.79688 112.727 2.54817 108.909C1.83541 106.743 1.11157 104.588 0.172273 102.522C-0.0929408 101.942 -0.0487319 101.704 0.282785 101.831C0.857414 102.052 1.42654 102.19 2.06194 103.124C2.49291 103.759 2.86309 104.367 3.11172 105.262C3.46534 106.561 4.1284 107.832 4.27205 109.174C4.29415 109.362 4.38808 109.616 4.47096 109.821C5.99041 113.484 6.93521 117.363 7.87451 121.219C8.19498 122.474 8.52097 123.733 8.84144 124.993C9.04035 125.811 9.22269 126.634 9.39949 127.457C9.64813 128.656 9.85258 129.866 10.1067 131.06C10.3001 131.961 10.5487 132.822 10.4327 133.69C10.4051 133.872 10.5046 134.347 10.5985 134.502C10.9576 135.104 11.0626 135.856 11.1731 136.613C11.3278 137.629 11.4715 138.646 11.6096 139.668L11.7643 140.878L11.7975 141.144C11.7975 141.226 11.8306 141.331 11.9246 141.348C12.0958 141.337 12.2506 141.226 12.4163 141.166L12.4992 141.132C13.7755 140.558 15.0574 139.983 16.3337 139.414C18.4775 138.436 20.6158 137.458 22.8038 136.563C24.6327 135.817 26.5002 135.149 28.3678 134.48C28.7988 134.325 29.2132 134.132 29.6441 133.983C30.4398 133.712 31.263 133.386 32.0476 133.237C32.9151 133.071 33.5726 132.889 34.2854 132.447C34.6832 132.198 35.3849 132.005 35.954 131.861C36.6888 131.679 37.4348 131.557 38.1696 131.441C39.0537 131.303 39.8769 131.187 40.761 130.784C41.2362 130.568 41.9379 130.441 42.5125 130.358C43.1479 130.264 43.7833 130.159 44.4187 130.043L44.8718 129.977C44.9436 129.96 45.0155 129.96 45.0873 129.933C45.1646 129.889 45.1315 129.806 45.1094 129.745L44.9712 129.341L44.6618 128.502L43.9767 126.689C42.7225 123.407 41.4903 120.125 40.3466 116.799C39.899 115.495 39.4902 114.175 39.0813 112.854C37.8105 108.749 36.7441 104.588 35.7772 100.411C35.5838 99.5934 35.407 98.7536 35.1639 97.9579C34.6003 96.118 34.197 94.256 33.8599 92.3663C33.8102 92.068 33.8102 91.626 33.6223 91.8028L33.5284 91.8359L33.0422 91.9741L31.9924 92.2779L29.9093 92.9189C29.4065 93.0791 28.9037 93.2725 28.3954 93.394C24.8427 94.2394 21.417 95.5047 17.9361 96.5711C15.1182 97.4385 12.2948 98.2618 9.48792 99.1569C7.32201 99.8476 5.1561 100.533 3.00125 101.268C2.85759 101.317 2.71945 101.395 2.58132 101.439C2.2719 101.538 2.01219 101.61 1.79671 101.638C1.74145 101.643 1.69175 101.649 1.64755 101.654L1.57571 101.66C1.52599 101.538 1.47625 101.417 1.42652 101.295V101.29C1.421 101.284 1.42652 101.29 1.42652 101.29C1.42652 101.29 1.44863 101.284 1.43205 101.29C1.38232 101.306 1.32708 101.317 1.27183 101.279C1.21658 101.245 1.16683 101.157 1.21656 101.03C1.28286 100.914 1.33811 100.853 1.38784 100.776C1.44309 100.704 1.50388 100.627 1.57018 100.555C1.70279 100.411 1.85751 100.273 2.03432 100.135C2.39347 99.8697 2.84099 99.6266 3.39352 99.4166C4.60908 98.958 5.8357 98.5381 7.06231 98.1126L7.02916 98.0684Z" fill="#69B9CB"/>
<path d="M18.097 130.104C18.3732 130.132 18.6384 130.132 18.9257 130.204C19.1799 130.27 19.4341 130.342 19.6054 130.126C19.6496 130.071 19.7214 130.088 19.7822 130.066C19.8872 130.027 19.9976 129.999 20.0971 129.95C20.1413 129.927 20.169 129.822 20.2242 129.839C20.4949 129.916 20.727 129.889 20.8983 129.657C21.1359 129.806 21.2629 129.601 21.4177 129.485C21.5724 129.369 21.7658 129.353 21.8873 129.148C21.9205 129.093 21.9702 129.06 22.0255 129.077C22.3625 129.154 22.6222 129.005 22.8929 128.872C23.1802 128.728 23.5007 128.69 23.8653 128.784C24.0587 128.833 24.2245 128.773 24.3903 128.723C24.5836 128.662 24.766 128.541 24.9538 128.463C25.2301 128.353 25.4953 128.204 25.7384 127.971C26.0589 127.662 26.3904 127.391 26.7385 127.165C26.9153 127.049 27.1308 127.049 27.3408 127.021C27.7552 126.96 28.1751 126.938 28.5784 126.855C28.8823 126.795 29.1696 126.679 29.4569 126.557C29.7221 126.441 29.9708 126.27 30.236 126.154C31.0206 125.795 31.8052 125.452 32.5898 125.098C32.7776 125.015 32.9545 124.899 33.1423 124.805C33.2362 124.761 33.3357 124.728 33.4351 124.706C33.8053 124.618 34.1811 124.54 34.5513 124.441C35.0762 124.292 35.5955 124.115 36.1204 123.971C36.4188 123.888 36.7227 123.828 36.9713 123.595C37.0432 123.529 37.1039 123.64 37.1537 123.905C37.2366 124.358 37.3415 124.833 37.2807 125.137C37.2421 125.347 37.1923 125.507 37.0542 125.48C36.8498 125.441 36.7337 125.701 36.4796 125.491C36.4464 125.463 36.4133 125.485 36.3912 125.507C35.9768 125.966 35.4187 125.966 34.8938 126.093C34.7225 126.132 34.5733 126.237 34.4076 126.297C34.3026 126.342 34.1921 126.375 34.0816 126.402C33.9214 126.441 33.7501 126.446 33.6009 126.518C33.4849 126.574 33.3965 126.69 33.2086 126.463C33.1699 126.413 33.1092 126.446 33.1092 126.518C33.0981 126.784 32.9931 126.789 32.8937 126.811C32.6229 126.877 32.3466 126.916 32.0814 127.005C31.8881 127.071 31.7002 127.17 31.5234 127.286C31.2471 127.469 30.993 127.706 30.7167 127.883C30.4846 128.032 30.236 128.126 29.9929 128.248C29.9376 128.275 29.8934 128.347 29.8382 128.369C29.7332 128.414 29.6393 128.507 29.5122 128.458C29.3685 128.402 29.2746 128.408 29.2415 128.651C29.2194 128.789 29.1254 128.806 29.0425 128.811C28.9376 128.817 28.816 128.762 28.6945 128.712C28.5508 128.651 28.4127 128.585 28.3408 128.784C28.3022 128.889 28.1972 128.867 28.1033 128.833C27.6944 128.679 27.3684 128.806 27.059 128.983C26.6391 129.22 26.2302 129.496 25.8158 129.745C25.65 129.839 25.4788 129.905 25.3075 129.977C24.7715 130.204 24.2024 130.309 23.6278 130.408C23.5173 130.43 23.3957 130.441 23.3073 130.519C23.0974 130.706 22.8432 130.756 22.5725 130.756C22.2465 130.756 21.9813 130.939 21.716 131.126C21.6553 131.171 21.6 131.242 21.5282 131.248C21.0143 131.27 20.611 131.635 20.1303 131.74C19.738 131.823 19.3181 131.817 18.9037 131.828C18.5832 131.839 18.2572 131.817 17.9312 131.812C17.9091 131.812 17.8981 131.839 17.876 131.834C17.6881 131.817 17.5389 131.524 17.4671 131.021C17.4063 130.579 17.4395 130.298 17.5942 130.259C17.7655 130.215 17.9423 130.198 18.1191 130.171C18.108 130.148 18.1025 130.126 18.097 130.104Z" fill="#69B9CB"/>
<path d="M32.2307 119.158C31.971 119.142 31.7224 119.164 31.4461 119.103C31.1975 119.053 30.9543 118.998 30.8162 119.219C30.7775 119.275 30.7112 119.263 30.656 119.291C30.5621 119.335 30.4626 119.368 30.3687 119.424C30.3245 119.446 30.3134 119.551 30.2637 119.54C30.004 119.479 29.7885 119.518 29.6504 119.755C29.4128 119.623 29.3133 119.827 29.1807 119.954C29.0481 120.076 28.8713 120.103 28.7719 120.313C28.7442 120.369 28.7056 120.402 28.6503 120.396C28.3298 120.335 28.0978 120.496 27.8547 120.645C27.595 120.799 27.3021 120.86 26.9541 120.788C26.7717 120.75 26.617 120.816 26.4678 120.877C26.291 120.949 26.1363 121.076 25.965 121.164C25.7164 121.291 25.4788 121.451 25.2799 121.695C25.0091 122.021 24.7274 122.302 24.4235 122.545C24.2688 122.667 24.0643 122.678 23.8765 122.722C23.4952 122.805 23.1029 122.849 22.7327 122.954C22.4509 123.032 22.1913 123.159 21.9371 123.297C21.6995 123.424 21.484 123.606 21.2464 123.739C20.5447 124.137 19.843 124.518 19.1413 124.916C18.9755 125.01 18.8153 125.137 18.6495 125.236C18.5667 125.286 18.4783 125.325 18.3843 125.352C18.0473 125.463 17.6992 125.557 17.3677 125.678C16.887 125.855 16.4229 126.054 15.9422 126.231C15.6714 126.33 15.3896 126.402 15.1797 126.651C15.1189 126.717 15.0526 126.612 14.9808 126.358C14.8592 125.91 14.7156 125.452 14.7432 125.148C14.7598 124.938 14.7874 124.778 14.92 124.794C15.1134 124.822 15.1963 124.557 15.4559 124.756C15.4946 124.783 15.5167 124.761 15.5388 124.733C15.8814 124.258 16.4063 124.225 16.8815 124.076C17.0362 124.026 17.1688 123.921 17.318 123.844C17.4119 123.794 17.5113 123.756 17.6108 123.722C17.7544 123.673 17.9147 123.656 18.0473 123.579C18.1468 123.518 18.2186 123.396 18.4175 123.612C18.4617 123.656 18.5114 123.623 18.5059 123.551C18.4893 123.286 18.5888 123.275 18.6772 123.247C18.9258 123.17 19.18 123.115 19.4176 123.01C19.5944 122.938 19.7546 122.827 19.9093 122.7C20.1469 122.501 20.3679 122.258 20.611 122.065C20.8155 121.905 21.0365 121.8 21.252 121.661C21.3017 121.628 21.3348 121.556 21.3846 121.534C21.4785 121.485 21.5559 121.385 21.6829 121.429C21.8211 121.479 21.9095 121.468 21.9205 121.219C21.9261 121.081 22.0145 121.059 22.0918 121.054C22.1913 121.043 22.3073 121.087 22.4288 121.131C22.567 121.181 22.7051 121.242 22.7549 121.043C22.7825 120.938 22.8819 120.954 22.9758 120.982C23.3737 121.109 23.6665 120.971 23.9372 120.777C24.3074 120.518 24.6611 120.225 25.0313 119.954C25.1749 119.849 25.3351 119.777 25.4898 119.7C25.9705 119.451 26.4899 119.308 27.0204 119.181C27.1253 119.153 27.2303 119.136 27.3077 119.053C27.49 118.86 27.722 118.794 27.9707 118.777C28.2746 118.755 28.5066 118.562 28.7332 118.363C28.7884 118.319 28.8271 118.241 28.899 118.236C29.3741 118.18 29.7167 117.799 30.1642 117.672C30.5234 117.567 30.9212 117.551 31.308 117.517C31.6063 117.49 31.9157 117.49 32.2196 117.479C32.2417 117.479 32.2473 117.451 32.2694 117.451C32.4462 117.457 32.6175 117.738 32.7335 118.23C32.833 118.667 32.8329 118.943 32.6893 118.993C32.5346 119.042 32.3688 119.07 32.2086 119.109C32.2141 119.12 32.2252 119.142 32.2307 119.158Z" fill="#69B9CB"/>
<path d="M13.4785 118.285C13.7493 118.28 14.0089 118.247 14.3018 118.285C14.5615 118.318 14.8156 118.357 14.9538 118.125C14.9924 118.064 15.0643 118.07 15.114 118.042C15.2135 117.992 15.3129 117.948 15.4068 117.893C15.451 117.865 15.4566 117.76 15.5118 117.766C15.7826 117.81 16.0091 117.755 16.1472 117.506C16.3959 117.622 16.4953 117.412 16.6279 117.274C16.7661 117.142 16.9484 117.103 17.0423 116.882C17.0644 116.821 17.1086 116.788 17.1639 116.793C17.5009 116.832 17.7385 116.655 17.9872 116.49C18.2524 116.313 18.5563 116.235 18.9209 116.285C19.1143 116.313 19.269 116.235 19.4237 116.164C19.6061 116.075 19.7663 115.937 19.9431 115.838C20.1973 115.694 20.4404 115.517 20.6393 115.257C20.91 114.915 21.2029 114.605 21.5123 114.34C21.6725 114.202 21.8825 114.18 22.0814 114.125C22.4737 114.014 22.8881 113.942 23.2693 113.81C23.5566 113.71 23.8274 113.567 24.0871 113.412C24.3302 113.268 24.5512 113.069 24.7943 112.915C25.5126 112.467 26.2364 112.031 26.9547 111.583C27.126 111.478 27.2862 111.34 27.4575 111.224C27.5403 111.169 27.6343 111.124 27.7282 111.086C28.0763 110.953 28.4355 110.837 28.7835 110.688C29.2753 110.478 29.756 110.24 30.2533 110.036C30.535 109.92 30.8224 109.826 31.0379 109.561C31.0986 109.489 31.176 109.588 31.2589 109.843C31.4025 110.285 31.5628 110.738 31.5462 111.047C31.5351 111.257 31.513 111.423 31.3694 111.412C31.1649 111.395 31.0876 111.671 30.8113 111.489C30.7726 111.462 30.745 111.489 30.7285 111.517C30.3859 112.02 29.8389 112.086 29.3471 112.274C29.1869 112.335 29.0488 112.451 28.8996 112.539C28.8001 112.594 28.7007 112.644 28.5957 112.683C28.4465 112.743 28.2808 112.771 28.1426 112.854C28.0376 112.92 27.9658 113.047 27.7559 112.848C27.7117 112.804 27.6564 112.848 27.6674 112.915C27.6951 113.18 27.5901 113.196 27.4961 113.23C27.242 113.324 26.9768 113.401 26.7281 113.517C26.5458 113.605 26.38 113.727 26.2253 113.865C25.9822 114.081 25.7612 114.34 25.5126 114.55C25.3082 114.727 25.0761 114.849 24.8551 114.998C24.8054 115.031 24.7722 115.108 24.7225 115.136C24.6286 115.191 24.5457 115.296 24.4131 115.263C24.2694 115.224 24.1754 115.241 24.1754 115.489C24.1754 115.628 24.0815 115.655 24.0042 115.672C23.8992 115.688 23.7777 115.65 23.6506 115.617C23.5014 115.572 23.3577 115.523 23.3135 115.727C23.2914 115.838 23.1809 115.826 23.087 115.804C22.6671 115.699 22.3687 115.865 22.0869 116.075C21.7057 116.362 21.3465 116.683 20.9708 116.976C20.8216 117.092 20.6614 117.175 20.5012 117.263C20.0094 117.55 19.4679 117.727 18.9209 117.893C18.816 117.926 18.6999 117.954 18.6226 118.042C18.4402 118.252 18.1971 118.329 17.9374 118.368C17.6225 118.412 17.3849 118.622 17.1528 118.838C17.0976 118.888 17.0534 118.965 16.9871 118.981C16.4898 119.07 16.1472 119.479 15.6831 119.633C15.3129 119.761 14.8985 119.805 14.4952 119.871C14.1858 119.921 13.8598 119.937 13.5448 119.976C13.5227 119.976 13.5117 120.009 13.4951 120.009C13.3073 120.015 13.1249 119.744 12.9868 119.252C12.8652 118.821 12.8652 118.539 13.0089 118.484C13.1691 118.423 13.3404 118.385 13.5061 118.335C13.5006 118.329 13.4896 118.307 13.4785 118.285Z" fill="#69B9CB"/>
<path d="M31.0477 107.036C30.7604 107.014 30.4842 107.019 30.1913 106.953C29.9261 106.892 29.6664 106.826 29.4841 107.047C29.4399 107.102 29.3625 107.091 29.3018 107.113C29.1913 107.152 29.0807 107.185 28.9758 107.235C28.926 107.257 28.9039 107.362 28.8487 107.351C28.5724 107.279 28.3293 107.312 28.147 107.55C27.9039 107.406 27.7713 107.611 27.611 107.732C27.4508 107.854 27.2519 107.87 27.1248 108.086C27.0917 108.141 27.0419 108.174 26.9867 108.163C26.6386 108.091 26.3678 108.246 26.086 108.384C25.7877 108.533 25.4562 108.583 25.0804 108.5C24.8815 108.456 24.7103 108.517 24.539 108.572C24.3345 108.638 24.1522 108.765 23.9533 108.848C23.666 108.97 23.3897 109.119 23.1411 109.357C22.8095 109.677 22.467 109.953 22.1023 110.191C21.92 110.312 21.6934 110.312 21.478 110.351C21.0525 110.423 20.616 110.456 20.1961 110.544C19.8812 110.611 19.5828 110.732 19.2844 110.859C19.0082 110.981 18.754 111.158 18.4777 111.285C17.6655 111.661 16.8478 112.025 16.0356 112.401C15.8422 112.489 15.6543 112.611 15.4609 112.705C15.367 112.755 15.262 112.788 15.1571 112.815C14.7703 112.915 14.3835 112.998 14.0023 113.108C13.4553 113.268 12.9248 113.456 12.3778 113.617C12.0684 113.705 11.7535 113.771 11.4938 114.014C11.422 114.081 11.3557 113.976 11.3059 113.71C11.2175 113.257 11.1125 112.788 11.1733 112.478C11.2175 112.268 11.2617 112.103 11.4054 112.13C11.6153 112.169 11.7369 111.904 11.9966 112.108C12.0353 112.136 12.0684 112.114 12.0905 112.086C12.5215 111.616 13.1016 111.605 13.6431 111.467C13.8199 111.423 13.9746 111.318 14.1459 111.246C14.2564 111.202 14.3669 111.163 14.483 111.13C14.6487 111.086 14.8255 111.075 14.9803 111.003C15.0963 110.948 15.1902 110.826 15.3836 111.047C15.4223 111.091 15.483 111.058 15.4886 110.992C15.4996 110.727 15.6046 110.716 15.7096 110.694C15.9914 110.622 16.2787 110.572 16.5494 110.484C16.7538 110.417 16.9417 110.312 17.1241 110.185C17.4059 109.992 17.6766 109.754 17.9639 109.572C18.2015 109.417 18.4612 109.318 18.7098 109.185C18.7651 109.158 18.8093 109.086 18.87 109.058C18.9805 109.008 19.0745 108.915 19.2071 108.964C19.3563 109.019 19.4502 109.008 19.4889 108.76C19.511 108.622 19.6104 108.6 19.6933 108.6C19.8038 108.594 19.9309 108.644 20.0525 108.693C20.2016 108.749 20.3453 108.815 20.4171 108.616C20.4558 108.506 20.5663 108.528 20.6658 108.561C21.0912 108.705 21.4283 108.572 21.7487 108.39C22.1852 108.141 22.6051 107.854 23.0416 107.599C23.2129 107.5 23.3952 107.434 23.5721 107.356C24.1246 107.119 24.7158 106.997 25.3125 106.881C25.4285 106.859 25.5501 106.843 25.644 106.76C25.865 106.566 26.1247 106.511 26.4065 106.505C26.7436 106.494 27.0198 106.307 27.2906 106.113C27.3569 106.069 27.4066 105.992 27.484 105.986C28.0144 105.947 28.4288 105.577 28.9371 105.461C29.3459 105.367 29.7825 105.367 30.2079 105.345C30.5394 105.329 30.8765 105.34 31.2135 105.34C31.2356 105.34 31.2522 105.312 31.2743 105.312C31.4677 105.323 31.6279 105.616 31.6997 106.119C31.766 106.561 31.7273 106.843 31.5671 106.887C31.3903 106.936 31.208 106.953 31.0256 106.986C31.0312 106.992 31.0367 107.014 31.0477 107.036Z" fill="#69B9CB"/>
<path d="M9.57098 105.704C9.85829 105.715 10.1346 105.693 10.4329 105.748C10.6981 105.798 10.9634 105.853 11.1346 105.621C11.1788 105.561 11.2562 105.572 11.3115 105.55C11.422 105.505 11.5324 105.467 11.6374 105.411C11.6872 105.384 11.7038 105.279 11.7645 105.29C12.0463 105.351 12.2894 105.306 12.4552 105.063C12.7094 105.196 12.8309 104.986 12.9856 104.859C13.1403 104.732 13.3392 104.704 13.4608 104.489C13.4939 104.433 13.5437 104.395 13.5989 104.406C13.947 104.467 14.2178 104.295 14.4885 104.146C14.7813 103.986 15.1129 103.92 15.4941 103.991C15.693 104.03 15.8643 103.958 16.0356 103.892C16.2345 103.815 16.4168 103.682 16.6102 103.594C16.892 103.461 17.1627 103.295 17.4003 103.052C17.7208 102.721 18.0523 102.428 18.4059 102.174C18.5827 102.047 18.8093 102.035 19.0248 101.991C19.4502 101.903 19.8867 101.853 20.3066 101.743C20.6215 101.66 20.9144 101.527 21.2072 101.389C21.478 101.256 21.7321 101.069 21.9973 100.93C22.793 100.516 23.5997 100.124 24.4008 99.7148C24.5942 99.6154 24.771 99.4883 24.9644 99.3833C25.0584 99.3336 25.1578 99.295 25.2628 99.2618C25.644 99.1458 26.0308 99.0463 26.4065 98.9192C26.948 98.7369 27.4729 98.5269 28.0144 98.3446C28.3183 98.2396 28.6332 98.1623 28.8874 97.9136C28.9592 97.8418 29.0255 97.9468 29.0863 98.212C29.1912 98.6651 29.3183 99.1292 29.2686 99.4386C29.2355 99.6485 29.1912 99.8143 29.0476 99.7977C28.8376 99.7701 28.7271 100.041 28.4509 99.8475C28.4122 99.8199 28.379 99.8475 28.3569 99.8696C27.9481 100.356 27.3624 100.394 26.8264 100.555C26.6496 100.604 26.5004 100.72 26.3292 100.792C26.2242 100.842 26.1082 100.886 25.9977 100.919C25.8319 100.969 25.6551 100.991 25.5004 101.069C25.3843 101.129 25.2959 101.256 25.0915 101.041C25.0473 100.997 24.9921 101.035 24.9921 101.102C24.9921 101.367 24.8815 101.383 24.7821 101.411C24.5058 101.494 24.2185 101.555 23.9478 101.66C23.7489 101.737 23.561 101.848 23.3842 101.98C23.1079 102.185 22.8482 102.433 22.5664 102.632C22.3344 102.798 22.0747 102.908 21.8316 103.047C21.7763 103.08 21.7321 103.152 21.6769 103.179C21.5719 103.229 21.4779 103.334 21.3398 103.29C21.1906 103.24 21.0912 103.257 21.0636 103.505C21.047 103.643 20.9475 103.665 20.8647 103.676C20.7541 103.688 20.6271 103.643 20.5 103.599C20.3508 103.549 20.2016 103.489 20.1353 103.693C20.1022 103.804 19.9861 103.787 19.8922 103.759C19.4612 103.632 19.1297 103.781 18.8148 103.98C18.3893 104.246 17.9749 104.549 17.555 104.826C17.3893 104.931 17.2069 105.008 17.0356 105.091C16.4886 105.351 15.903 105.5 15.3118 105.638C15.1957 105.666 15.0741 105.688 14.9857 105.771C14.7758 105.969 14.5106 106.036 14.2343 106.058C13.8973 106.08 13.6321 106.284 13.3613 106.489C13.3006 106.539 13.2453 106.616 13.1735 106.621C12.643 106.682 12.2397 107.075 11.7424 107.207C11.3391 107.318 10.9026 107.34 10.4716 107.378C10.1401 107.412 9.79751 107.412 9.46047 107.428C9.43837 107.428 9.42733 107.456 9.40523 107.456C9.20632 107.45 9.04055 107.168 8.94662 106.671C8.86374 106.229 8.88584 105.947 9.04607 105.898C9.21735 105.842 9.40523 105.815 9.58204 105.776C9.58757 105.748 9.58203 105.726 9.57098 105.704Z" fill="#69B9CB"/>
<path d="M721.281 18.7058L708.973 22.457C708.851 22.4835 708.857 22.653 708.978 22.6742L722.791 23.9511C722.834 23.9564 722.871 23.9882 722.881 24.0306L727.316 38.5428C727.348 38.6541 727.512 38.6487 727.533 38.5322L730.352 23.3312C730.357 23.2994 730.378 23.2729 730.405 23.257L739.926 17.6355C740.021 17.5772 739.984 17.4341 739.873 17.4288L729.202 16.8884C729.16 16.8884 729.123 16.8619 729.107 16.8248L722.442 2.76825C722.394 2.66759 722.24 2.69411 722.23 2.80538L721.366 18.5998C721.366 18.658 721.329 18.6952 721.281 18.7058Z" fill="#417A87"/>
<path d="M716.841 20.8566L715.845 21.0845L715.347 21.201C715.183 21.2381 714.987 21.2858 714.928 21.2911C714.467 21.3706 714.006 21.4448 713.545 21.5242C713.286 21.5719 713.021 21.6196 712.761 21.6673C711.908 21.8315 710.87 22.0965 710.679 22.2713C710.663 22.2872 710.631 22.3031 710.584 22.319C710.536 22.3296 710.456 22.356 710.462 22.4302C710.462 22.5044 710.536 22.5044 710.578 22.5097L710.748 22.5309C711.214 22.5733 711.659 22.6157 712.157 22.6475C712.39 22.6634 712.835 22.6157 712.931 22.6528C713.18 22.7481 713.609 22.8382 714.096 22.8912C714.34 22.9177 714.594 22.9336 714.849 22.9442H715.241L715.712 22.9336C716.666 23.225 717.636 23.1667 718.616 23.1932C719.596 23.2197 720.587 23.3574 721.567 23.2886C721.7 23.278 721.837 23.278 721.975 23.2833C722.113 23.2886 722.362 23.3151 722.526 23.3469C722.664 23.3681 722.802 23.3945 722.918 23.4422C723.035 23.4952 723.157 23.5058 723.236 23.6224C723.358 23.829 723.443 24.0992 723.506 24.3641L723.686 25.0158L723.856 25.5828C724.089 26.3405 724.343 27.0928 724.598 27.8452C725.143 29.4612 725.589 31.109 725.901 32.7832C726.087 33.7369 726.304 34.431 726.532 35.1728L726.701 35.7026L727.019 36.6245L727.173 37.0537L727.247 37.2709C727.279 37.3292 727.273 37.4511 727.374 37.4405C727.469 37.4246 727.454 37.308 727.469 37.2339L727.512 36.9902L727.591 36.4974L727.729 35.5225C727.814 34.8814 727.872 34.2721 727.893 33.774L727.899 33.6522V33.5939L727.909 33.4932L727.946 33.0958L728.026 32.3011L728.201 30.7063C728.322 29.6413 728.455 28.5817 728.593 27.5167C728.736 26.4358 729.001 25.3602 729.234 24.2847L729.44 23.3151C729.488 23.0872 729.552 22.8753 729.7 22.7164C729.843 22.5627 730.055 22.4462 730.251 22.3349L731.772 21.503L734.659 19.9082L735.735 19.2883L736.429 18.8803C736.747 18.6843 737.049 18.4935 737.314 18.3187L737.489 18.2021C737.51 18.181 737.558 18.1703 737.542 18.128C737.52 18.0803 737.457 18.0962 737.414 18.0962L736.858 18.1068L735.963 18.1386L729.239 17.9425C728.974 17.9266 728.752 17.863 728.55 17.7359C728.37 17.5981 728.217 17.4127 728.105 17.169L727.602 16.1464L726.818 14.5781L725.249 11.4467L723.739 8.51673L723.374 7.77501L723.305 7.63194V7.62664C723.31 7.61604 723.31 7.60016 723.305 7.56837C723.3 7.53128 723.284 7.47297 723.263 7.40939C723.231 7.35111 723.236 7.40941 723.225 7.43591L723.21 7.57367L723.13 8.99359L722.881 13.37C722.78 15.0231 722.659 16.6762 722.706 18.3293C722.712 18.4459 722.706 18.5413 722.69 18.6154C722.659 18.7585 722.637 18.8803 722.611 18.9863C722.5 19.3307 722.288 19.5532 722.097 19.6804C721.705 19.9241 721.477 19.8659 721.509 19.8288C721.519 19.7705 721.805 19.6963 722.06 19.3413C722.166 19.1877 722.224 19.0181 722.235 18.8485C722.251 18.6101 722.203 18.6578 722.182 18.626L722.023 18.5042C721.917 18.4194 721.816 18.3293 721.721 18.2287C721.53 18.022 721.36 17.7518 721.254 17.3491C721.106 16.8034 720.995 16.2947 721.101 15.6325C721.249 14.6734 721.101 13.6403 721.419 12.7077C721.461 12.5753 721.461 12.3793 721.456 12.2203C721.382 10.7898 721.424 9.36448 721.509 7.93392C721.625 6.3868 721.694 3.90721 722.028 3.08067C722.07 2.89523 722.097 2.72567 722.134 2.54023C722.145 2.49784 722.15 2.45016 722.16 2.40777C722.176 2.36008 722.251 2.32828 722.309 2.33358C722.378 2.33888 722.388 2.38659 722.415 2.41838L722.484 2.52432C722.68 2.81043 722.881 3.07007 723.125 3.40386C723.247 3.57341 723.384 3.75882 723.522 4.02903L724.147 5.35362L724.868 6.93783C725.048 7.3405 725.234 7.74318 725.43 8.13526C725.726 8.72868 726.081 9.27441 726.102 9.92611C726.108 10.0639 726.267 10.3712 726.378 10.4559C726.797 10.7791 727.008 11.2825 727.236 11.7858C727.856 13.1316 728.45 14.488 729.091 15.8285L729.329 16.316C729.372 16.3742 729.377 16.4855 729.467 16.4855L729.705 16.4908C730.299 16.4961 730.887 16.5014 731.475 16.5014L734.023 16.4696L735.295 16.4537L735.947 16.4484L736.98 16.4696L738.766 16.5173C739.062 16.5279 739.401 16.5226 739.603 16.5862C739.719 16.6074 739.799 16.6444 739.899 16.6762L740.127 16.7769C740.408 16.9147 740.578 17.0312 740.747 17.1425C740.784 17.1796 740.821 17.1637 740.864 17.2749C740.88 17.3226 740.89 17.3862 740.885 17.418C740.88 17.4498 740.869 17.4604 740.864 17.4816L740.758 17.7465C740.678 17.9266 740.668 18.1333 740.456 18.4088C740.297 18.6631 739.735 18.9598 739.295 19.2354C738.834 19.5162 738.352 19.7917 737.881 20.0195C737.377 20.2632 736.863 20.5335 736.71 20.6341C736.477 20.7825 736.27 20.9626 736.074 21.201C735.851 21.4713 735.401 21.7256 735.025 21.9216C734.543 22.1759 734.039 22.3773 733.541 22.5786C732.943 22.817 732.381 23.0343 731.872 23.5217C731.745 23.6436 731.523 23.7866 731.38 23.8608C731.337 23.8873 731.242 23.8714 731.199 23.9191C731.178 23.9403 731.157 23.9721 731.136 24.0039C731.125 24.0304 731.12 24.0145 731.104 24.0781L731.056 24.2423L730.871 24.9152C730.754 25.3655 730.648 25.8159 730.558 26.2715C730.373 27.1829 730.225 28.0995 730.092 29.0214L729.562 32.7779L729.435 33.7158L729.191 35.2576L728.916 36.9796L728.773 37.8643C728.725 38.1558 728.683 38.4896 728.603 38.675C728.545 38.8446 728.481 38.9399 728.418 39.0565C728.354 39.1413 728.291 39.2367 728.232 39.3002C728.111 39.4327 728.005 39.5227 727.904 39.6022C727.814 39.6658 727.718 39.7294 727.644 39.7718C727.634 39.7824 727.56 39.7983 727.48 39.8036C727.395 39.8036 727.369 39.7983 727.353 39.793C727.31 39.7771 727.268 39.7665 727.215 39.7453C727.083 39.6976 726.94 39.6499 726.744 39.5174C726.563 39.3797 726.32 39.242 726.113 38.6909L725.106 35.3848L724.428 33.0853L723.443 29.6095C723.278 29.0267 723.119 28.428 722.902 27.877C722.648 27.2306 722.425 26.5789 722.229 25.9219L722.086 25.4291L722.017 25.1801C722.007 25.1324 722.012 25.1483 722.012 25.1324C722.012 25.0901 722.023 25.0158 721.964 25.0105L721.922 24.9894L721.896 24.9788L721.753 24.9629L721.138 24.894C720.725 24.8516 720.317 24.8198 719.903 24.7933C719.077 24.7404 718.256 24.7085 717.429 24.682C717.042 24.6714 716.655 24.682 716.279 24.6344L715.294 24.5125L713.651 24.3535L709.768 24.025L709.27 23.988C709.111 23.9721 708.909 23.9668 708.814 23.935L708.639 23.8926L708.512 23.8396C708.417 23.8078 708.348 23.7708 708.295 23.7337C708.04 23.5853 707.924 23.4422 707.823 23.3204C707.765 23.2515 707.749 23.2038 707.717 23.1456C707.685 23.0873 707.659 23.0343 707.654 22.9919L707.616 22.8541C707.606 22.8223 707.59 22.6634 707.595 22.6157C707.595 22.5839 707.601 22.5627 707.606 22.5362C707.627 22.3985 707.664 22.2448 707.807 22.0275C707.834 21.9799 707.876 21.9216 707.934 21.858C707.987 21.7944 708.03 21.7415 708.12 21.6673C708.194 21.5984 708.273 21.5295 708.401 21.4606C708.454 21.4236 708.512 21.3865 708.602 21.3547C708.681 21.3176 708.756 21.2805 708.877 21.2487L712.253 20.3109L713.847 19.8711L714.594 19.6645L715.024 19.5586C716.629 19.1718 718.229 18.785 719.834 18.3982C719.94 18.3717 720.041 18.3187 720.147 18.2975C721.064 18.0909 721.44 18.3028 721.154 18.891C720.899 19.4102 720.38 19.8288 719.57 20.0672C718.674 20.3321 717.768 20.5705 716.867 20.8143L716.841 20.8566Z" fill="#69B9CB"/>
<path d="M708.952 4.18241L712.29 9.48077C712.327 9.53905 712.412 9.54967 712.46 9.50198L714.606 7.35612C714.659 7.30314 714.648 7.21839 714.585 7.1813L709.106 4.02343C709 3.97045 708.889 4.08174 708.952 4.18241Z" fill="#417A87"/>
<path d="M709.975 4.37828C709.991 4.60081 710.034 4.80746 710.012 5.05649C709.991 5.27372 709.965 5.49093 710.187 5.56511C710.245 5.581 710.24 5.64457 710.267 5.68166C710.314 5.75583 710.362 5.83002 710.42 5.8936C710.447 5.92539 710.542 5.9095 710.537 5.95718C710.51 6.19031 710.569 6.36517 710.802 6.43405C710.706 6.66188 710.902 6.70429 711.035 6.78906C711.162 6.87383 711.204 7.02213 711.411 7.05922C711.464 7.06981 711.501 7.09632 711.496 7.14401C711.475 7.43012 711.65 7.58909 711.808 7.76394C711.851 7.81163 711.888 7.85933 711.92 7.91231C711.941 7.9494 711.952 7.98117 711.962 8.02355C711.978 8.10833 711.978 8.21962 711.967 8.37857C711.957 8.55341 712.026 8.65405 712.089 8.74412C712.163 8.85539 712.254 8.89251 712.322 8.97198C712.349 8.99847 712.37 9.03555 712.418 9.02495C712.465 9.01965 712.503 8.95608 712.529 8.9031C712.593 8.79184 712.646 8.66463 712.688 8.52157C712.799 8.14009 712.805 7.91755 712.783 7.79039C712.783 7.7745 712.778 7.76923 712.789 7.75333C712.826 7.71624 712.831 7.71627 712.836 7.71627C712.858 7.71627 712.889 7.71627 712.916 7.71097C713.016 7.70037 713.223 7.63675 713.387 7.53078C713.44 7.48839 713.515 7.46191 713.499 7.40362C713.467 7.35594 713.382 7.34533 713.324 7.32414C713.197 7.28175 713.027 7.28176 712.937 7.27116C712.868 7.26057 712.81 7.25532 712.757 7.25532H712.72L712.609 7.21289L712.375 7.11756L711.438 6.74663C711.289 6.68835 711.12 6.65655 710.966 6.60357C710.892 6.57707 710.818 6.54001 710.754 6.49232C710.51 6.32277 710.272 6.13735 710.023 5.9837L708.931 5.33201C708.831 5.26843 708.73 5.1995 708.624 5.14652L708.539 5.10946L708.497 5.09355L709.043 4.14512V4.13988L709.048 4.13458C709.048 4.12928 709.048 4.12927 709.053 4.12397C709.053 4.12397 709.069 4.13987 709.048 4.12927C709.048 4.13457 709.085 4.10807 709.064 4.12397C709.048 4.12927 709.043 4.12927 709.048 4.12927H709.053C709.053 4.12927 709.059 4.12927 709.053 4.12927C709.032 4.11868 709.016 4.10275 709 4.09215C708.937 4.03387 708.91 3.93322 708.963 3.84844C709 3.79016 709.069 3.74248 709.149 3.72129C709.191 3.71069 709.233 3.71069 709.271 3.71599C709.308 3.71599 709.308 3.70537 709.329 3.70008C709.387 3.67888 709.435 3.68422 709.461 3.7372C709.535 3.89085 709.769 3.78484 709.753 4.08685C709.753 4.12923 709.779 4.13457 709.811 4.12927C710.32 4.07629 710.6 4.42068 710.945 4.65911C711.056 4.73858 711.199 4.76504 711.326 4.81802C711.406 4.85511 711.485 4.89749 711.559 4.94518C711.665 5.01406 711.755 5.12004 711.877 5.16243C711.967 5.19422 712.095 5.17304 712.036 5.44326C712.026 5.50154 712.073 5.5121 712.121 5.46971C712.301 5.29486 712.354 5.35851 712.423 5.40089C712.598 5.52275 712.767 5.66578 712.953 5.77175C713.091 5.85123 713.25 5.89363 713.419 5.92543C713.705 5.98371 714.161 6.08435 714.574 6.23271C714.95 6.34927 715.215 6.5559 715.395 6.75194C715.438 6.79432 715.523 6.8261 715.554 6.87379C715.607 6.95856 715.713 7.01687 715.639 7.16522C715.554 7.31358 715.491 7.34538 715.719 7.44075C715.841 7.49373 715.814 7.58376 715.761 7.66324C715.703 7.76391 715.549 7.86459 715.395 7.94407C715.199 8.05003 715.003 8.11363 715.051 8.28847C715.078 8.38384 714.924 8.46858 714.791 8.51627C714.5 8.62753 714.299 8.74413 714.134 8.88189C713.997 8.99315 713.859 9.16801 713.721 9.35345C713.536 9.59717 713.334 9.91509 713.122 10.1641C712.905 10.4078 712.672 10.5508 712.471 10.6409C712.402 10.678 712.301 10.6939 712.185 10.678C712.089 10.6674 712.026 10.6463 711.941 10.6198C711.687 10.5456 711.379 10.3336 711.178 9.92034C710.961 9.53886 710.759 9.15738 710.574 8.79179C710.537 8.70702 710.51 8.62229 710.426 8.57461C710.224 8.46334 710.145 8.27786 710.097 8.07122C710.044 7.8169 709.843 7.66328 709.631 7.50963C709.583 7.47254 709.509 7.4513 709.493 7.39832C709.392 7.00624 709.006 6.79435 708.836 6.44465C708.704 6.16384 708.645 5.83004 708.571 5.51214C708.513 5.26311 708.481 5.00346 708.433 4.74914C708.428 4.73324 708.402 4.72798 708.402 4.71208C708.386 4.55843 708.629 4.35706 709.069 4.15573C709.456 3.98088 709.716 3.92261 709.774 4.03387C709.837 4.15574 709.88 4.28818 709.933 4.41534L709.975 4.37828Z" fill="#69B9CB"/>
<path d="M736.471 0.224905L733.785 5.88882C733.758 5.9471 733.785 6.016 733.843 6.03719L736.99 7.2982C737.065 7.32999 737.149 7.27173 737.144 7.18696L736.688 0.267268C736.673 0.150704 736.519 0.124236 736.471 0.224905Z" fill="#417A87"/>
<path d="M736.838 1.23135C736.652 1.37441 736.493 1.53338 736.271 1.65525C736.069 1.76651 735.868 1.87247 735.921 2.10559C735.937 2.16388 735.879 2.20097 735.863 2.24336C735.826 2.32813 735.783 2.41289 735.757 2.49767C735.746 2.54005 735.804 2.61424 735.762 2.64073C735.545 2.752 735.428 2.9057 735.492 3.14942C735.243 3.19711 735.312 3.39309 735.306 3.55734C735.296 3.72159 735.195 3.84347 735.269 4.04481C735.29 4.0978 735.285 4.14548 735.243 4.17197C734.983 4.32032 734.935 4.56402 734.872 4.80775C734.83 4.9561 734.798 5.01439 734.734 5.07797C734.671 5.14155 734.57 5.20515 734.427 5.29522L734.416 5.30582C734.268 5.4012 734.22 5.51774 734.173 5.61841C734.146 5.68199 734.13 5.74031 734.13 5.7933C734.135 5.86747 734.247 5.88334 734.31 5.89924C734.512 5.95752 734.755 5.98934 734.988 5.93106C735.158 5.89397 735.237 5.83563 735.375 5.80914L735.508 5.80384C735.55 5.80384 735.555 5.78268 735.577 5.77739C735.608 5.75619 735.64 5.735 735.661 5.71381C735.704 5.67142 735.736 5.75086 735.794 5.80914C735.894 5.91511 736.075 6.10056 736.26 6.21713C736.292 6.24362 736.334 6.24893 736.35 6.22773C736.366 6.20654 736.355 6.17473 736.355 6.14294C736.345 6.07936 736.329 6.00518 736.308 5.9363C736.271 5.80384 736.175 5.65021 736.133 5.56014C736.027 5.53364 735.879 4.60117 735.736 3.94417C735.698 3.77463 735.635 3.61034 735.592 3.44609C735.571 3.36132 735.566 3.27656 735.566 3.19178C735.571 2.87918 735.587 2.56126 735.582 2.24336L735.513 0.892314C735.508 0.765154 735.513 0.637944 735.497 0.510783L735.481 0.415449L735.471 0.367782L735.465 0.346568L736.567 0.272383H736.573C736.589 0.261786 736.567 0.293571 736.573 0.267079C736.567 0.267079 736.61 0.288283 736.583 0.277687C736.567 0.26709 736.567 0.261781 736.573 0.267079V0.272383C736.573 0.272383 736.573 0.277681 736.573 0.272383C736.573 0.25119 736.578 0.229994 736.583 0.203502C736.604 0.118728 736.684 0.0498441 736.79 0.0657392C736.864 0.0763359 736.938 0.124016 736.986 0.192895L737.018 0.245865L737.044 0.261776C737.06 0.272373 737.076 0.282995 737.087 0.288294C737.14 0.325382 737.161 0.373073 737.129 0.426056C737.044 0.579709 737.261 0.722762 737.002 0.887011C736.965 0.908204 736.981 0.940002 736.997 0.961196C737.325 1.37977 737.193 1.83012 737.187 2.27518C737.187 2.41823 737.24 2.56126 737.267 2.70431C737.283 2.79968 737.288 2.88977 737.288 2.98514C737.288 3.1229 737.256 3.26067 737.283 3.39312C737.304 3.49379 737.394 3.58914 737.14 3.6951C737.087 3.7163 737.103 3.7693 737.166 3.7852C737.41 3.84348 737.389 3.92822 737.389 4.01299C737.383 4.24082 737.357 4.47397 737.378 4.7018C737.394 4.87135 737.442 5.03563 737.51 5.19988C737.622 5.51249 737.791 5.95752 737.903 6.42377C737.95 6.61451 737.993 6.82113 738.003 7.00127C738.014 7.18142 737.993 7.34039 737.971 7.48875C737.961 7.55762 737.982 7.65302 737.966 7.7113C737.934 7.81197 737.918 7.94439 737.818 7.93909C737.76 7.93909 737.733 7.94438 737.701 7.99206C737.675 8.03975 737.648 8.11397 737.659 8.23053C737.675 8.36299 737.606 8.3736 737.532 8.3789C737.442 8.3842 737.304 8.32061 737.171 8.24114C737.002 8.14577 736.848 8.02386 736.779 8.19871C736.742 8.29408 736.594 8.20935 736.477 8.10868C735.947 7.63183 735.608 7.50993 735.153 7.40926L734.925 7.35629C734.851 7.34039 734.819 7.34037 734.761 7.33507C734.724 7.33507 734.644 7.31921 734.554 7.29801L734.305 7.24504C733.976 7.16557 733.569 7.10727 733.24 6.96952C732.991 6.85825 732.843 6.68867 732.731 6.54032C732.678 6.47674 732.62 6.33897 732.61 6.26479C732.588 6.18002 732.578 6.09001 732.572 5.99464C732.567 5.7986 732.615 5.56016 732.737 5.32174C732.917 4.98264 733.108 4.65415 733.288 4.34155L733.383 4.18257C733.404 4.14019 733.42 4.0978 733.415 4.04481C733.41 3.80639 733.521 3.62626 733.68 3.46731C733.871 3.27657 733.897 3.00635 733.924 2.73613C733.929 2.67255 733.908 2.59839 733.95 2.5507C734.236 2.2328 734.215 1.77185 734.432 1.42745C734.607 1.14664 734.861 0.902867 735.1 0.648546C735.285 0.452507 735.492 0.272396 735.688 0.0869533C735.698 0.0763566 735.688 0.0498183 735.704 0.0392215C735.826 -0.0614473 736.133 0.0339827 736.536 0.298901C736.891 0.537327 737.071 0.728013 737.012 0.839279C736.944 0.96644 736.848 1.07773 736.763 1.1996L736.838 1.23135Z" fill="#69B9CB"/>
<path d="M712.421 38.6117L714.387 32.3914C714.413 32.3172 714.503 32.2907 714.567 32.3437L717.02 34.5267C717.068 34.569 717.068 34.6485 717.02 34.6909L712.601 38.7282C712.517 38.8077 712.384 38.7229 712.421 38.6117Z" fill="#417A87"/>
<path d="M711.908 37.7001C712.072 37.5412 712.199 37.3716 712.4 37.2286C712.581 37.1014 712.766 36.9796 712.676 36.7623C712.655 36.704 712.702 36.667 712.713 36.6246C712.74 36.5398 712.766 36.455 712.782 36.3703C712.787 36.3279 712.713 36.2643 712.755 36.2378C712.951 36.1053 713.047 35.9464 712.946 35.7186C713.185 35.6444 713.084 35.4642 713.068 35.3053C713.052 35.1516 713.137 35.0245 713.031 34.839C713.004 34.7913 712.999 34.7437 713.042 34.7172C713.275 34.5476 713.285 34.3039 713.312 34.0708C713.359 33.7688 713.534 33.3873 713.773 33.2548C713.847 33.2124 713.895 33.1436 713.926 33.0588C713.953 33.0005 713.974 32.9369 713.995 32.8787C714.059 32.7091 714.096 32.4866 714.165 32.3276C714.223 32.2163 714.234 32.0839 714.324 31.9779C714.461 31.8825 714.52 31.9461 714.61 31.8879C714.726 31.8402 714.875 31.7925 715.06 31.7978C715.246 31.7925 715.452 31.8985 715.669 32.0256C715.897 32.1528 716.093 32.4124 716.279 32.619L716.549 32.9263C716.581 32.9793 716.697 33.1118 716.772 33.2018C716.941 33.4032 717.095 33.5886 717.264 33.7634C717.519 34.0337 717.683 34.2933 717.799 34.537C717.837 34.7119 717.789 34.7967 717.773 34.9291C717.746 35.0563 717.704 35.1993 717.609 35.3423C717.466 35.549 717.248 35.7503 717.063 35.9623L716.766 36.2855C716.666 36.3914 716.644 36.4285 716.581 36.5027L715.934 37.2922C715.834 37.4193 715.749 37.5677 715.648 37.7001C715.601 37.7637 715.542 37.822 715.473 37.8697C715.235 38.0551 714.986 38.2247 714.758 38.4207L713.794 39.2737C713.699 39.3532 713.603 39.4274 713.518 39.5121L713.46 39.581L713.434 39.6182L713.428 39.6288C713.407 39.65 713.37 39.6818 713.338 39.7082C713.275 39.7612 713.195 39.8089 713.116 39.8512C712.777 40.0314 712.342 40.042 712.008 39.9148C711.669 39.7877 711.378 39.5334 711.208 39.1625C711.023 38.728 711.129 38.4048 711.208 38.3148C711.298 38.2088 711.378 38.2618 711.473 38.4048C711.643 38.6432 711.897 38.8022 712.135 38.8234C712.252 38.834 712.363 38.8128 712.437 38.7598C712.522 38.7174 712.549 38.6062 712.538 38.6433C712.538 38.6486 712.538 38.6486 712.533 38.638L712.528 38.6327C712.475 38.5691 712.422 38.5108 712.369 38.4525C712.363 38.4366 712.363 38.4154 712.363 38.3995C712.363 38.3359 712.379 38.2936 712.437 38.283C712.607 38.2565 712.581 38.0022 712.861 38.1081C712.904 38.124 712.914 38.0922 712.92 38.0657C713.026 37.5624 713.444 37.3928 713.778 37.1385C713.889 37.0537 713.958 36.9266 714.048 36.8206C714.106 36.7517 714.175 36.6935 714.244 36.6352C714.345 36.5557 714.472 36.4974 714.552 36.3968C714.615 36.3173 714.626 36.1954 714.869 36.3279C714.922 36.3544 714.949 36.312 714.922 36.2537C714.811 36.0312 714.891 35.994 714.954 35.9464C715.129 35.8139 715.315 35.6973 715.473 35.549C715.532 35.496 715.585 35.4324 715.632 35.3636C715.68 35.3 715.733 35.2152 715.738 35.1728C715.791 35.0033 715.749 34.8549 715.717 34.7648C715.685 34.6907 715.738 34.6536 715.68 34.6006C715.659 34.5847 715.574 34.5847 715.558 34.5794C715.526 34.5635 715.442 34.5688 715.532 34.537C715.632 34.5 715.622 34.4682 715.378 34.537C715.24 34.5794 715.256 34.5741 715.272 34.5582C715.293 34.5423 715.362 34.4893 715.415 34.431C715.484 34.3622 715.526 34.2615 715.389 34.3569C715.362 34.3886 715.33 34.3727 715.309 34.3462C715.283 34.3092 715.315 34.2986 715.32 34.2668C715.415 34.0072 715.256 33.8959 715.171 33.9171C715.039 33.933 714.986 34.0442 714.986 34.2244C714.991 34.2774 714.997 34.3251 715.002 34.3781C715.007 34.4258 715.007 34.4416 714.991 34.4469C714.97 34.4575 714.933 34.4522 714.88 34.4787C714.869 34.484 714.859 34.4893 714.859 34.4946C714.848 34.5264 714.838 34.5794 714.848 34.6271C714.891 34.8549 714.806 35.0403 714.673 35.2099C714.514 35.4165 714.525 35.6761 714.546 35.9358C714.552 35.994 714.583 36.0683 714.546 36.1159C714.313 36.4497 714.403 36.8842 714.239 37.2445C714.106 37.5306 713.895 37.7955 713.699 38.0604C713.545 38.267 713.365 38.4631 713.2 38.6644C713.19 38.6803 713.206 38.7016 713.19 38.7122C713.084 38.8234 712.771 38.7704 712.337 38.5638C711.95 38.3836 711.743 38.2194 711.791 38.1028C711.839 37.9757 711.918 37.8538 711.982 37.7319L711.908 37.7001Z" fill="#69B9CB"/>
</svg>
