<svg width="47" height="75" viewBox="0 0 47 75" fill="none" xmlns="http://www.w3.org/2000/svg">
<path d="M8.58641 0.958326C10.8989 1.76369 13.0907 3.01776 14.8337 4.66875C15.2249 5.03692 15.57 5.44536 15.9382 5.82503C16.2891 6.22195 16.5882 6.65914 16.9219 7.06757C17.0772 7.28041 17.2671 7.46451 17.4051 7.69462L17.8423 8.35614C18.1357 8.79909 18.4751 9.21904 18.7282 9.6965C19.0043 10.1855 19.2862 10.7205 19.4875 11.2669L20.0455 12.7569L20.4597 14.2928C20.6093 14.753 20.7474 15.2477 20.7934 15.6907C20.9602 17.8939 20.9487 20.0627 20.7876 22.2716C20.2929 23.9284 20.0858 25.5966 19.4933 27.2361C19.2517 28.0703 18.826 28.8411 18.4751 29.6407C18.2623 30.0261 18.0494 30.4058 17.8366 30.7855C17.7273 30.9753 17.6352 31.1767 17.5202 31.3608L17.1693 31.913C16.9219 32.3042 16.64 32.7644 16.2776 33.0693C15.2594 34.0875 14.1837 34.9676 13.0447 35.796C11.9056 36.6186 10.6976 37.3779 9.32274 37.8842C8.58641 38.143 7.80406 38.3559 6.96993 38.3444C6.14156 38.3386 5.25566 38.097 4.57685 37.5563C3.87504 37.0443 3.40908 36.1757 3.34005 35.3415C3.25952 34.5017 3.43784 33.7193 3.69095 33.0002C4.26046 31.4758 5.07733 30.0319 5.98049 28.6916C6.52123 27.8919 7.08498 27.1153 7.72352 26.3732C8.3563 25.6369 9.07537 24.9754 9.82321 24.3598C12.0322 22.5995 14.5288 21.2822 17.1578 20.2813C18.918 19.614 20.7761 19.1423 22.6917 18.9237C24.6016 18.7051 26.5805 18.7453 28.5306 19.1883C30.5153 19.6197 32.4539 20.6897 33.9323 22.2026C35.4165 23.7328 36.3196 25.7002 36.7626 27.6676C37.2055 29.6522 37.2285 31.6714 37.0157 33.6388C36.6648 36.5898 35.8076 39.4834 34.3235 42.1008C33.6101 43.3089 32.7875 44.4824 31.683 45.4603C31.1365 45.9493 30.5268 46.398 29.8192 46.7259C29.1174 47.071 28.4156 47.2666 27.6792 47.4047C27.127 47.5025 26.569 47.5658 25.9419 47.514C25.6371 47.491 25.2919 47.4335 24.872 47.2666C24.4808 47.0998 24.1529 46.8179 23.9113 46.4785C23.4913 45.8227 23.4108 45.1382 23.4626 44.5399C23.5201 43.9359 23.7099 43.4009 23.9458 42.9292C24.4348 41.9973 25.0733 41.2379 25.8097 40.5937C26.5402 39.9494 27.3513 39.3914 28.335 39.0174C29.2957 38.655 30.2852 38.4939 31.2458 38.4652C33.1787 38.4134 35.031 38.8046 36.7798 39.4316C38.5286 40.0702 40.1738 40.9676 41.658 42.1238C43.2802 43.3951 44.7529 44.9829 45.6733 46.9848C46.1335 47.98 46.4039 49.1075 46.5017 50.1429C46.6915 52.0816 46.565 53.9569 46.2658 55.792C45.9725 57.627 45.4835 59.4219 44.8334 61.1649C43.913 63.6615 42.6014 66.0316 40.8757 68.1255C39.1269 70.1907 36.9121 71.9453 34.3695 72.998C32.9371 73.6193 31.4127 73.9989 29.8882 74.2002C29.1231 74.3326 28.358 74.3441 27.5929 74.4016C26.8336 74.4016 26.0628 74.4361 25.3092 74.3786C24.452 74.3383 24.1989 74.183 24.5498 73.9414C24.849 73.7285 25.1136 73.5099 25.476 73.3258C25.6543 73.2338 25.8614 73.1475 26.1088 73.0785C26.3561 72.9979 26.638 72.9117 26.9832 72.8484C27.2133 72.8081 27.4376 72.7679 27.6677 72.7276C27.8921 72.6758 28.1164 72.6298 28.3465 72.5895C28.5766 72.5493 28.8183 72.5205 29.0656 72.4975C29.313 72.4572 29.5718 72.4227 29.8537 72.4054C31.499 72.2731 33.0694 71.5598 34.6226 71.0938C34.8412 71.0248 35.1461 70.881 35.3589 70.7142C39.3857 68.0105 42.2045 63.7938 43.6829 59.14C44.1661 57.6213 44.4365 56.0336 44.5918 54.4516C44.6954 53.4277 44.7471 52.398 44.7069 51.374C44.6666 50.6377 44.6206 49.8898 44.4595 49.1823C44.3042 48.4747 44.0511 47.7901 43.7059 47.1459C43.1709 46.1737 42.4634 45.3913 41.9571 44.4709C41.8478 44.2753 41.4106 43.8726 41.2036 43.7921C40.4327 43.4642 39.7251 42.8947 38.937 42.4057C36.8316 41.0999 34.404 40.191 31.9304 40.0759C31.0215 40.0299 30.1068 40.1334 29.2669 40.3923C28.4271 40.6397 27.685 41.1401 27.0119 41.7269C26.3849 42.2849 25.8442 42.9465 25.499 43.6483C25.3322 43.9992 25.2229 44.3616 25.1999 44.6837C25.1711 45.0116 25.2632 45.3108 25.3782 45.4488C25.5738 45.8285 26.7933 45.7422 27.754 45.4833C28.847 45.213 29.7329 44.7182 30.5555 43.9647C31.3782 43.2341 32.057 42.2907 32.638 41.3012C32.9083 40.841 33.1039 40.3463 33.3283 39.8631C33.7425 38.9657 34.0473 37.9762 34.3983 37.1076C34.7837 36.1469 34.985 35.3358 34.9045 34.3636C34.847 33.8171 34.9678 32.9887 35.0023 32.3042C35.0655 31.4298 35.1346 30.5611 35.1058 29.704C35.0828 28.6801 34.9735 27.6848 34.4213 26.7299C34.1164 26.2294 33.8403 25.4874 33.5181 24.9236C33.1787 24.2966 32.7588 23.6983 32.2238 23.2036C31.706 22.6916 31.1078 22.2544 30.4462 21.9035C29.1404 21.1787 27.6275 20.822 26.1088 20.6724C21.9497 20.3446 17.6985 21.4893 14.0629 23.4682C12.6362 24.2448 11.2786 25.1537 10.0878 26.2237C9.62762 26.6379 9.19619 27.0808 8.78775 27.5353L8.20673 28.2428C8.0169 28.4959 7.82132 28.7491 7.63723 29.0079C6.89515 30.0377 6.22208 31.1191 5.71586 32.2179C5.20388 33.2994 4.89324 34.4844 5.05431 35.2783C5.19237 35.9801 5.92871 36.5208 6.88939 36.5726C7.66023 36.6071 8.59216 36.3655 9.40902 35.9456C10.364 35.4566 11.2959 34.8526 12.1933 34.1853C13.0792 33.518 13.9938 32.7932 14.7244 32.0108C16.6113 30.1412 17.7675 27.5813 18.4118 24.9869C18.4808 24.682 18.5556 24.3771 18.6247 24.0722C18.6822 23.7616 18.7282 23.4509 18.7972 23.1518C19.2862 21.0521 19.3725 18.8546 19.1079 16.7319C18.8433 14.6034 18.1817 12.5613 17.2383 10.6974L16.9622 10.1222C16.8586 9.93811 16.7378 9.76553 16.6285 9.58145C16.3984 9.22479 16.1798 8.86238 15.9497 8.50572C15.3975 7.86718 14.9257 7.14812 14.293 6.57861C13.0907 5.37632 11.6755 4.37536 10.1166 3.61602C7.71202 2.42523 4.99678 1.79245 2.24705 1.60261C2.06872 1.59686 1.87889 1.61412 1.6948 1.60261C0.135853 1.54509 -0.410633 1.29773 0.319945 0.710969C0.969987 0.210494 2.09174 -0.0943943 3.61042 0.02641C5.27867 0.164472 6.93542 0.49814 8.53464 1.01587L8.58641 0.958326Z" fill="#8ED8C8"/>
</svg>
