<svg width="34" height="26" viewBox="0 0 34 26" fill="none" xmlns="http://www.w3.org/2000/svg">
<path d="M12.0025 4.87466L16.2825 4.22467C17.0425 4.10467 17.6025 4.91466 17.2325 5.59466L15.1425 9.38464C14.9925 9.65464 14.9925 9.97466 15.1225 10.2447L17.0625 14.1147C17.4025 14.8047 16.8125 15.5847 16.0525 15.4447L11.8025 14.6247C11.5025 14.5647 11.1925 14.6647 10.9725 14.8747L7.89253 17.9147C7.34253 18.4547 6.41254 18.1347 6.32254 17.3647L5.78253 13.0647C5.74253 12.7647 5.56253 12.4946 5.29253 12.3546L1.45253 10.3647C0.772534 10.0147 0.792535 9.02467 1.48253 8.69467L5.40253 6.85464C5.68254 6.72464 5.87254 6.46467 5.92254 6.16467L6.63253 1.89465C6.76253 1.13465 7.70253 0.84467 8.22253 1.41467L11.1825 4.57464C11.3925 4.81464 11.7025 4.92466 12.0025 4.87466Z" fill="#C0E3EB"/>
<path d="M14.3926 3.78476L15.1426 3.77475L15.5126 3.76474L16.0126 3.74475C16.3126 3.73475 16.5526 3.76476 16.7826 3.87476C17.4926 4.20476 17.7126 5.07476 17.4826 5.72476C17.4326 5.90476 17.2926 6.09476 17.1926 6.28476L16.7526 7.11475C16.6926 7.24475 16.6926 7.41474 16.6026 7.51474C16.1726 8.01474 15.8226 8.55474 15.6426 9.20474C15.5526 9.27474 15.4626 9.38476 15.4126 9.44476C15.1826 9.70476 15.3126 10.0648 15.5226 10.2848C15.8026 10.7148 16.0026 11.1947 16.3526 11.5747C16.4426 11.6747 16.5326 11.8048 16.5626 11.9348C16.6526 12.2448 16.7626 12.5348 16.8926 12.8148C17.0226 13.1048 17.1426 13.3248 17.3726 13.7548C17.5026 13.9948 17.6026 14.2348 17.6326 14.4948C17.6926 15.0748 17.3226 15.6648 16.7726 15.8448C16.5026 15.9448 16.2126 15.9347 15.9226 15.8547C15.6326 15.7847 15.3326 15.6747 15.1526 15.6047C14.7126 15.4247 14.2326 15.3348 13.7626 15.2448C13.2026 15.1348 12.6326 15.0848 12.0626 14.9948L11.8426 14.9648C11.5626 14.8948 11.2626 15.0347 11.1226 15.2647C10.8926 15.5347 10.6526 15.8347 10.4326 16.1347C10.1526 16.5047 9.87259 16.8748 9.59259 17.2448L9.16259 17.7947L8.94259 18.0648L8.56259 18.4948C8.34259 18.7248 8.11259 18.9047 7.84259 19.0247C7.01259 19.4047 5.94259 18.9148 5.62259 18.0948C5.53259 17.8948 5.48259 17.6748 5.45259 17.4348L5.39259 16.7848L5.34259 15.9348L5.22259 14.2248C5.18259 13.8348 5.13259 13.2547 5.09259 13.1747C5.01259 12.9747 4.86259 12.9747 4.39259 12.7347C3.66259 12.4047 2.93259 12.0848 2.20259 11.7548L1.11259 11.2347C0.33259 10.8747 -0.10741 10.0748 0.0225902 9.25476C0.0825902 8.85476 0.272591 8.47476 0.562591 8.19476C0.822591 7.91476 1.32259 7.70476 1.66259 7.53476L4.39259 6.12476L4.61259 6.00476C4.68259 5.96476 4.79259 5.91476 4.76259 5.91476C4.77259 5.89476 4.77259 5.87475 4.76259 5.86475L4.75259 5.84476L4.74259 5.83475C4.74259 5.83475 4.73259 5.83474 4.74259 5.76474C4.77259 5.48474 4.82259 5.20474 4.87259 4.92474L5.17259 3.36475L5.32259 2.58475L5.42259 2.04474C5.46259 1.79474 5.50259 1.53474 5.60259 1.32474C5.83259 0.714738 6.36259 0.244738 6.98259 0.0747381C7.61259 -0.0952619 8.29259 0.024754 8.81259 0.434754C9.06259 0.634754 9.36259 0.974765 9.53259 1.16477L9.92259 1.58475L10.6926 2.41476L11.5626 3.35474C11.7126 3.50474 11.8626 3.65475 12.0226 3.80475L11.8526 3.96475C11.8526 3.97475 11.8526 3.94476 11.8526 3.97476C11.8926 4.36476 11.7626 4.91475 11.2026 4.86475C10.8126 4.75475 10.6026 4.67476 10.3926 4.37476C10.1126 3.94476 9.61259 3.69476 9.46259 3.16476C9.44259 3.08476 9.36259 3.02476 9.29259 2.97476C8.99259 2.75476 8.70259 2.51474 8.43259 2.26474C8.19259 2.06474 8.09259 1.88474 7.85259 1.76474C7.63259 1.65474 7.34259 1.69474 7.15259 1.85474C6.94259 2.01474 6.93259 2.29475 6.87259 2.55475C6.79259 2.97475 6.75259 3.50475 6.68259 3.96475C6.64259 4.27475 6.59259 4.58475 6.53259 4.89475C6.44259 5.36475 6.34259 5.74476 6.27259 6.28476C6.23259 6.72476 5.92259 7.18476 5.44259 7.12476C5.43259 7.12476 5.42259 7.12476 5.41259 7.12476C5.31259 7.13476 5.18259 7.20476 5.15259 7.28476C5.03259 7.59476 4.76259 7.69475 4.50259 7.80475C3.80259 8.11475 3.09259 8.40474 2.39259 8.73474L2.07259 8.89475L1.82259 9.03476C1.66259 9.12476 1.56259 9.29476 1.57259 9.47476C1.56259 9.81476 1.90259 10.0247 2.16259 10.0547L2.29259 10.0847C2.34259 10.0947 2.45259 10.1447 2.53259 10.1747L3.05259 10.3847C3.73259 10.6647 4.40259 10.9947 5.07259 11.2947C5.23259 11.3647 5.40259 11.3948 5.55259 11.4748C6.04259 11.6648 6.54259 12.1047 6.62259 12.6347C6.69259 13.2947 6.63259 13.4248 6.89259 13.7248C7.02259 13.8748 7.05259 14.1447 7.05259 14.3647C7.06259 14.6447 7.02259 14.9348 6.98259 15.2148C6.93259 15.5548 6.87259 15.8747 7.07259 16.2047C7.17259 16.3547 7.17259 16.7348 7.11259 16.7248C7.00259 16.8848 6.99259 17.1947 7.19259 17.2947C7.39259 17.4147 7.62259 17.2647 7.72259 17.0847L7.74259 17.0648L7.80259 16.9847L7.96259 16.8047L8.28259 16.4348L8.92259 15.6848L9.56259 14.9348L9.88259 14.5648C10.0126 14.4248 10.0426 14.3647 10.2926 14.1047C10.7326 13.6747 11.3826 13.4847 11.9926 13.6047L12.6026 13.7047C13.3926 13.8347 14.1826 13.9848 14.9626 14.1548L15.5526 14.2848C15.6826 14.3148 15.6326 14.3147 15.6826 14.3347C15.7326 14.3647 15.8126 14.3647 15.8726 14.3247C15.9226 14.2947 15.9526 14.2247 15.8726 14.1747L15.8026 14.1347C15.8126 14.2147 15.6226 13.8548 15.5026 13.5948C15.3726 13.3248 15.2626 13.0447 15.1526 12.7647C15.0026 12.3647 14.8026 11.9747 14.5926 11.6047L14.2626 11.0547C14.2226 10.9947 14.1126 10.8048 14.0226 10.6248C13.9426 10.4448 13.8826 10.2447 13.8626 10.0447C13.8126 9.67474 13.8426 9.26475 14.0426 8.93475L14.0726 8.87476L14.3826 8.37476L14.6326 7.93475L15.0926 7.02475L15.5426 6.11475L15.7826 5.66476C15.8226 5.59476 15.7926 5.64476 15.8126 5.62476C15.8526 5.65476 15.9626 5.48474 15.8226 5.42474C15.7826 5.41474 15.8326 5.39475 15.7026 5.40476L15.3226 5.42474C14.4726 5.46474 13.6126 5.49476 12.7526 5.53476C12.6926 5.53476 12.6426 5.56476 12.5826 5.56476C12.0926 5.57476 11.8926 5.30474 12.0526 4.82474C12.1926 4.39474 12.4726 4.12476 12.9126 4.06476C13.3926 4.00476 13.8726 3.96476 14.3626 3.91476L14.3926 3.78476Z" fill="#C0E3EB"/>
<path d="M29.8524 23.1546L29.2524 25.0546C29.1424 25.3946 28.7024 25.4646 28.4924 25.1746L27.3524 23.5446C27.2724 23.4346 27.1424 23.3646 27.0024 23.3646L25.0124 23.3846C24.6624 23.3846 24.4524 22.9846 24.6624 22.7046L25.8624 21.1146C25.9424 21.0046 25.9724 20.8547 25.9224 20.7247L25.2924 18.8346C25.1824 18.4946 25.5024 18.1846 25.8324 18.2946L27.7124 18.9447C27.8424 18.9947 27.9924 18.9646 28.1024 18.8846L29.7024 17.7046C29.9824 17.4946 30.3924 17.7046 30.3824 18.0546L30.3524 20.0446C30.3524 20.1846 30.4124 20.3146 30.5324 20.3946L32.1524 21.5446C32.4424 21.7546 32.3724 22.1946 32.0324 22.3046L30.1324 22.8846C30.0024 22.9146 29.9024 23.0146 29.8524 23.1546Z" fill="#C0E3EB"/>
<path d="M30.0523 24.9245C29.7623 25.1545 29.5623 25.4745 29.3223 25.5845C29.0523 25.6845 28.6323 25.5545 28.4623 25.4445C28.4023 25.4145 28.3523 25.3045 28.2923 25.2345C28.1923 25.1045 28.0823 24.9745 27.9723 24.8545C27.9223 24.8045 27.8323 24.8045 27.8023 24.7245C27.7223 24.5345 27.6523 24.3745 27.5623 24.2345C27.5123 24.1645 27.4623 24.1045 27.4023 24.0445C27.3523 24.0045 27.3023 23.9745 27.2523 23.9545L27.2323 23.9445C27.2823 23.6445 27.0123 23.6045 26.8323 23.7045C26.7423 23.7345 26.6723 23.7445 26.5723 23.7545C26.4123 23.7745 26.2523 23.8045 26.0623 23.8745C25.9623 23.9145 25.8423 23.9345 25.7623 23.9045C25.6823 23.8845 25.6123 23.8645 25.5323 23.8445C25.2423 23.6945 24.8223 23.7345 24.4823 23.6445C24.2723 23.5545 24.1123 23.2945 24.1423 23.0545C24.1423 22.8245 24.4223 22.6045 24.6223 22.3945C24.8523 22.1845 24.9923 21.9845 25.1323 21.7745C25.2723 21.5745 25.4223 21.2545 25.5023 21.1345L25.5323 21.0945C25.6223 20.9845 25.6723 20.8345 25.5823 20.6945C25.5423 20.6345 25.5023 20.5645 25.4523 20.5145L25.3823 20.4345L25.2723 20.2545C25.1123 19.9945 24.9523 19.7045 24.7823 19.3845C24.6523 18.9945 24.5023 18.5145 24.5123 18.1245C24.5623 17.8045 24.9623 17.5045 25.2623 17.4745C26.0323 17.6245 26.8223 17.9245 27.5023 18.1145C27.6723 18.1645 27.6923 18.2045 27.8023 18.2145C27.9023 18.2145 27.9623 18.1245 28.0223 18.0745C28.0023 18.0745 28.2823 17.8445 28.4423 17.6945L29.0323 17.1845L29.3023 17.0445L29.7923 16.8145C29.8723 16.7845 29.9623 16.7345 30.0423 16.7145C30.1123 16.7045 30.1923 16.7045 30.2823 16.7145C30.6423 16.7645 31.0523 16.9745 31.1123 17.3045L31.3223 18.5545L31.4323 19.2045L31.4923 19.5345C31.5023 19.6145 31.5123 19.6045 31.5123 19.6045L31.5223 19.6145C31.5423 19.6345 31.6023 19.6245 31.6223 19.6045L31.6323 19.5945C31.6423 19.5945 31.5923 19.5645 31.7523 19.6845L32.8623 20.5145C33.0523 20.8245 33.2523 21.1345 33.4523 21.4345C33.6023 21.7545 33.5123 22.5245 33.1923 22.7345L31.7323 23.3845C31.4523 23.5045 31.1823 23.6145 30.9123 23.7445C30.7823 23.8045 30.6423 23.8745 30.5123 23.9545L30.2923 23.2545C30.2623 23.2345 30.2223 23.2045 30.1923 23.1845C30.0423 23.0645 29.9423 22.8945 30.0023 22.7145C30.1423 22.4745 30.1123 22.3645 30.2623 22.3745C30.4923 22.3945 30.4923 22.1945 30.8923 22.3345C30.9523 22.3545 30.9823 22.3345 30.9923 22.3145C31.1023 22.1245 31.2923 22.0645 31.5023 21.9545C31.5923 21.8845 31.6523 21.7645 31.6423 21.6545C31.6323 21.5345 31.5423 21.4845 31.4523 21.4045C31.3523 21.3245 31.1923 21.2445 31.0723 21.1845L31.0223 21.1545C30.9423 21.1045 30.8623 21.0545 30.7923 20.9945C30.7423 20.9445 30.4723 20.7245 30.2723 20.5645C30.1123 20.4545 29.9323 20.2645 30.1723 20.0145C30.2223 19.9645 30.2023 19.8745 30.1523 19.8545C30.1223 19.8445 30.1023 19.8245 30.0823 19.8145C29.9323 19.7145 29.9623 19.5045 29.9623 19.4745C29.9823 19.2545 30.0223 18.9945 30.0223 18.7645C30.0123 18.6045 30.0323 18.4345 29.8323 18.4145C29.6923 18.4045 29.5223 18.5145 29.4223 18.6645C29.3423 18.7845 29.2523 18.9145 29.1723 19.0245L29.1223 19.0945L29.0523 19.2145L29.0223 19.2645C29.0123 19.2745 29.0223 19.2745 29.0023 19.2945L28.8623 19.4145C28.7623 19.5045 28.6723 19.6345 28.5523 19.7045C28.3523 19.8345 28.0923 19.9545 27.8523 19.8645C27.6023 19.7645 27.4423 19.6845 27.1523 19.7945C26.9023 19.8245 26.9723 19.8445 26.9623 19.8145C26.9623 19.7845 26.9523 19.7045 26.9223 19.6145C26.8823 19.5045 26.7823 19.3645 26.8223 19.5445C26.8523 19.6445 26.8123 19.5745 26.7423 19.4945C26.6023 19.3145 26.4223 19.1945 26.3223 19.2545C26.2223 19.3045 26.2623 19.4545 26.3523 19.5545C26.4223 19.6645 26.4923 19.7645 26.5623 19.8445C26.6223 19.8945 26.6723 19.9345 26.7123 19.9545L26.7423 19.9645L26.8423 20.1845C26.9223 20.3445 26.9823 20.5145 27.0223 20.6845C27.1023 21.0645 26.9923 21.4445 26.7623 21.7645L26.6823 21.8745L26.5323 22.0845C26.5223 22.0945 26.5323 22.0945 26.5323 22.0945V22.1045C26.5323 22.1145 26.5223 22.1145 26.5023 22.1245C26.4823 22.1345 26.3723 22.1645 26.3423 22.2645C26.3323 22.2945 26.3323 22.3345 26.4123 22.2945C26.5723 22.2045 26.5623 22.2145 26.5723 22.2545L26.5623 22.2845C26.5523 22.3245 26.5823 22.3245 26.5923 22.3045C26.9523 22.2745 27.3323 22.2045 27.6723 22.3245C27.8323 22.3745 28.0123 22.4345 28.1223 22.5545C28.2023 22.6445 28.2823 22.7445 28.3423 22.8445L28.5723 23.1845C28.5723 23.1945 28.5823 23.1845 28.5823 23.1845C28.5923 23.1845 28.6023 23.1645 28.6023 23.1545C28.6123 23.1245 28.6123 23.0545 28.5923 23.0745C28.5723 23.1345 28.6723 23.3745 28.7623 23.3745C28.7823 23.3745 28.8123 23.3745 28.8323 23.3745C28.9223 23.3045 29.0323 23.2145 29.1423 23.0845C29.1523 23.0745 29.1423 23.0445 29.1523 23.0345C29.2423 22.9445 29.5523 22.9545 29.9523 23.1945C30.3023 23.4145 30.4523 23.7245 30.3523 23.9945C30.2523 24.2945 30.1323 24.5645 30.0223 24.8345L30.0523 24.9245Z" fill="#C0E3EB"/>
</svg>
