<svg width="50" height="38" viewBox="0 0 50 38" fill="none" xmlns="http://www.w3.org/2000/svg">
<path d="M31.5044 7.13583L25.2389 6.18429C24.1263 6.00862 23.3065 7.19439 23.8481 8.18986L26.9077 13.7381C27.1273 14.1333 27.1273 14.6018 26.937 14.9971L24.097 20.6625C23.5993 21.6726 24.463 22.8144 25.5756 22.6095L31.7972 21.4091C32.2364 21.3212 32.6902 21.4676 33.0123 21.7751L37.5212 26.2254C38.3263 27.0159 39.6878 26.5474 39.8195 25.4202L40.61 19.1254C40.6686 18.6862 40.9321 18.2909 41.3274 18.0859L46.9488 15.1727C47.9443 14.6604 47.915 13.2111 46.9049 12.728L41.1663 10.0344C40.7564 9.84406 40.4783 9.46348 40.4051 9.0243L39.3657 2.77333C39.1754 1.66075 37.7993 1.23624 37.0381 2.07067L32.7049 6.69663C32.3974 7.04797 31.9436 7.20903 31.5044 7.13583Z" fill="#DAA114"/>
<path d="M28.0051 5.54059L26.9071 5.52594L26.3655 5.51129L25.6335 5.48202C25.1943 5.46738 24.843 5.51131 24.5063 5.67234C23.4669 6.15544 23.1449 7.42906 23.4816 8.3806C23.5548 8.64411 23.7597 8.92225 23.9061 9.2004L24.5502 10.4154C24.6381 10.6057 24.6381 10.8546 24.7698 11.001C25.3993 11.733 25.9117 12.5235 26.1752 13.475C26.3069 13.5775 26.4387 13.7386 26.5119 13.8264C26.8486 14.207 26.6583 14.734 26.3508 15.0561C25.9409 15.6856 25.6482 16.3882 25.1358 16.9445C25.004 17.0909 24.8723 17.2812 24.8284 17.4715C24.6966 17.9254 24.5356 18.3499 24.3453 18.7598C24.155 19.1843 23.9793 19.5064 23.6426 20.1359C23.4523 20.4872 23.3059 20.8386 23.262 21.2192C23.1741 22.0683 23.7158 22.932 24.5209 23.1955C24.9162 23.3419 25.3407 23.3272 25.7653 23.2101C26.1898 23.1076 26.629 22.9466 26.8925 22.8441C27.5366 22.5806 28.2393 22.4489 28.9273 22.3171C29.7471 22.1561 30.5816 22.0829 31.416 21.9511L31.7381 21.9072C32.148 21.8048 32.5872 22.0097 32.7921 22.3464C33.1288 22.7416 33.4801 23.1808 33.8022 23.62C34.2121 24.1616 34.622 24.7033 35.0319 25.245L35.6614 26.0501L35.9835 26.4454L36.5397 27.0749C36.8618 27.4116 37.1985 27.6751 37.5938 27.8507C38.8088 28.407 40.3752 27.6897 40.8437 26.4893C40.9754 26.1965 41.0486 25.8745 41.0925 25.5231L41.1804 24.5716L41.2536 23.3272L41.4292 20.8239C41.4878 20.253 41.561 19.4039 41.6195 19.2868C41.7367 18.994 41.9563 18.994 42.6443 18.6427C43.713 18.1596 44.7816 17.6911 45.8503 17.2081L47.446 16.4468C48.5878 15.9198 49.2319 14.7487 49.0416 13.5482C48.9538 12.9627 48.6757 12.4064 48.2511 11.9965C47.8705 11.5866 47.1385 11.2792 46.6408 11.0303L42.6443 8.96616L42.3222 8.7905C42.2198 8.73195 42.0587 8.65875 42.1026 8.65875C42.088 8.62948 42.088 8.60017 42.1026 8.58553L42.1173 8.55627L42.1319 8.54162C42.1319 8.54162 42.1466 8.5416 42.1319 8.43913C42.088 8.02923 42.0148 7.61934 41.9416 7.20944L41.5024 4.92573L41.2828 3.78387L41.1365 2.99334C41.0779 2.62736 41.0193 2.24674 40.8729 1.93931C40.5362 1.04632 39.7604 0.358277 38.8527 0.109411C37.9305 -0.139456 36.935 0.0362379 36.1738 0.636446C35.8078 0.92923 35.3686 1.42698 35.1197 1.70512L34.5488 2.31995L33.4216 3.53503L32.148 4.91107C31.9284 5.13066 31.7088 5.35027 31.4746 5.56986L31.7234 5.80409C31.7234 5.81873 31.7234 5.77482 31.7234 5.81874C31.6649 6.38967 31.8552 7.19481 32.675 7.12161C33.2459 6.96058 33.5533 6.84348 33.8608 6.4043C34.2707 5.77482 35.0026 5.40885 35.2222 4.63297C35.2515 4.51585 35.3686 4.42802 35.4711 4.35482C35.9103 4.03276 36.3348 3.68138 36.73 3.3154C37.0814 3.02262 37.2278 2.75911 37.5791 2.58344C37.9012 2.42241 38.3257 2.48096 38.6039 2.71519C38.9113 2.94942 38.9259 3.35933 39.0138 3.73995C39.1309 4.3548 39.1894 5.13068 39.2919 5.80409C39.3505 6.2579 39.4237 6.71171 39.5115 7.16552C39.6433 7.85357 39.7896 8.40988 39.8921 9.2004C39.9507 9.84452 40.4045 10.5179 41.1072 10.4301C41.1218 10.4301 41.1365 10.4301 41.1511 10.4301C41.2975 10.4447 41.4878 10.5472 41.5317 10.6643C41.7074 11.1181 42.1026 11.2645 42.4833 11.4255C43.508 11.8794 44.5474 12.3039 45.5721 12.787L46.0406 13.0212L46.4066 13.2262C46.6408 13.3579 46.7872 13.6068 46.7726 13.8703C46.7872 14.368 46.2895 14.6755 45.9088 14.7194L45.7185 14.7633C45.6453 14.7779 45.4843 14.8511 45.3672 14.895L44.606 15.2024C43.6105 15.6123 42.6297 16.0954 41.6488 16.5346C41.4146 16.6371 41.1657 16.681 40.9461 16.7982C40.2288 17.0763 39.4969 17.7204 39.3798 18.4963C39.2773 19.4625 39.3651 19.6528 38.9845 20.092C38.7942 20.3116 38.7503 20.7068 38.7503 21.0289C38.7356 21.4388 38.7942 21.8633 38.8527 22.2732C38.9259 22.7709 39.0138 23.2394 38.721 23.7225C38.5746 23.9421 38.5746 24.4984 38.6624 24.4837C38.8235 24.718 38.8381 25.1718 38.5453 25.3181C38.2525 25.4938 37.9158 25.2742 37.7694 25.0107L37.7402 24.9815L37.6523 24.8643L37.4181 24.6008L36.9496 24.0592L36.0127 22.9613L35.0758 21.8633L34.6074 21.3217C34.4171 21.1167 34.3731 21.0289 34.0072 20.6482C33.363 20.0187 32.4115 19.7406 31.5185 19.9163L30.6255 20.0627C29.469 20.253 28.3125 20.4726 27.1706 20.7215L26.3069 20.9118C26.1166 20.9557 26.1898 20.9557 26.1166 20.985C26.0434 21.0289 25.9263 21.0289 25.8385 20.9703C25.7653 20.9264 25.7214 20.8239 25.8385 20.7507L25.9409 20.6922C25.9263 20.8093 26.2045 20.2823 26.3801 19.9017C26.5704 19.5064 26.7315 19.0965 26.8925 18.6866C27.1121 18.101 27.4049 17.5301 27.7123 16.9884L28.1954 16.1833C28.2539 16.0955 28.415 15.8173 28.5467 15.5538C28.6638 15.2903 28.7517 14.9975 28.781 14.7047C28.8542 14.1631 28.8102 13.5629 28.5174 13.0798L28.4735 12.992L28.0197 12.26L27.6537 11.6159L26.9803 10.2837L26.3216 8.95151L25.9702 8.29277C25.9117 8.1903 25.9556 8.26348 25.9263 8.2342C25.8677 8.27812 25.7067 8.02924 25.9117 7.9414C25.9702 7.92676 25.897 7.8975 26.0873 7.91214L26.6436 7.9414C27.888 7.99996 29.1469 8.0439 30.4059 8.10246C30.4937 8.10246 30.5669 8.14637 30.6548 8.14637C31.3721 8.16101 31.6649 7.76572 31.4307 7.06304C31.2257 6.43355 30.8158 6.03832 30.1717 5.95049C29.469 5.86265 28.7663 5.80411 28.049 5.73091L28.0051 5.54059Z" fill="#DAA114"/>
<path d="M5.37529 33.8965L6.25365 36.6779C6.41468 37.1756 7.0588 37.2781 7.36622 36.8536L9.03509 34.4674C9.15221 34.3063 9.34252 34.2039 9.54747 34.2039L12.4607 34.2331C12.973 34.2331 13.2805 33.6476 12.973 33.2377L11.2163 30.91C11.0992 30.749 11.0553 30.5294 11.1285 30.3391L12.0508 27.5723C12.2118 27.0746 11.7434 26.6207 11.2603 26.7818L8.50808 27.7334C8.31777 27.8066 8.09818 27.7626 7.93715 27.6455L5.59488 25.9181C5.18498 25.6106 4.58477 25.9181 4.59941 26.4304L4.64333 29.3436C4.64333 29.5486 4.55549 29.7389 4.37982 29.856L2.00827 31.5395C1.58373 31.8469 1.6862 32.4911 2.18394 32.6521L4.96539 33.5012C5.1557 33.5451 5.30209 33.6915 5.37529 33.8965Z" fill="#DAA114"/>
<path d="M5.08071 36.4873C5.50525 36.824 5.79803 37.2924 6.14938 37.4535C6.54463 37.5999 7.15948 37.4096 7.40834 37.2486C7.49618 37.2046 7.56938 37.0436 7.65721 36.9411C7.80361 36.7508 7.96464 36.5605 8.12567 36.3848C8.19886 36.3116 8.33061 36.3116 8.37453 36.1945C8.49165 35.9164 8.59412 35.6821 8.72588 35.4772C8.79907 35.3747 8.87227 35.2869 8.9601 35.199C9.0333 35.1405 9.1065 35.0966 9.17969 35.0673L9.20897 35.0527C9.13578 34.6135 9.53103 34.5549 9.79454 34.7013C9.92629 34.7452 10.0288 34.7599 10.1752 34.7745C10.4094 34.8038 10.6436 34.8477 10.9218 34.9502C11.0682 35.0087 11.2438 35.038 11.3609 34.9941C11.478 34.9648 11.5805 34.9355 11.6976 34.9063C12.1222 34.6867 12.737 34.7452 13.2348 34.6135C13.5422 34.4817 13.7764 34.1011 13.7325 33.7498C13.7325 33.4131 13.3226 33.091 13.0298 32.7836C12.6931 32.4761 12.4882 32.1834 12.2832 31.8759C12.0783 31.5832 11.8587 31.1147 11.7416 30.939L11.6976 30.8805C11.5659 30.7195 11.4927 30.4999 11.6244 30.2949C11.683 30.2071 11.7416 30.1046 11.8148 30.0314L11.9172 29.9143L12.0783 29.6508C12.3125 29.2702 12.5467 28.8456 12.7956 28.3771C12.9859 27.8062 13.2055 27.1036 13.1908 26.5326C13.1176 26.0642 12.5321 25.625 12.0929 25.5811C10.9657 25.8007 9.80918 26.2398 8.81371 26.518C8.56485 26.5912 8.53556 26.6497 8.37453 26.6644C8.22814 26.6644 8.14031 26.5326 8.05247 26.4594C8.08175 26.4594 7.67185 26.1227 7.43762 25.9032L6.57391 25.1565L6.17865 24.9516L5.46133 24.6149C5.34422 24.571 5.21246 24.4978 5.09535 24.4685C4.99288 24.4539 4.87576 24.4539 4.74401 24.4685C4.21699 24.5417 3.61679 24.8491 3.52895 25.3322L3.22153 27.1621L3.0605 28.1137L2.97266 28.5968C2.95802 28.7139 2.94338 28.6992 2.94338 28.6992L2.92875 28.7139C2.89947 28.7431 2.81163 28.7285 2.78235 28.6992L2.76771 28.6846C2.75307 28.6846 2.82627 28.6407 2.59204 28.8163L0.96709 30.0314C0.688945 30.4852 0.39616 30.939 0.103375 31.3782C-0.116213 31.8467 0.0155382 32.9739 0.483994 33.2813L2.62132 34.2328C3.03122 34.4085 3.42648 34.5696 3.82174 34.7599C4.01205 34.8477 4.217 34.9502 4.4073 35.0673L4.72937 34.0426C4.77329 34.0133 4.83184 33.9694 4.87576 33.9401C5.09535 33.7644 5.24174 33.5155 5.15391 33.252C4.94896 32.9007 4.99287 32.7397 4.77328 32.7543C4.43658 32.7836 4.43658 32.4908 3.85101 32.6957C3.76318 32.725 3.71926 32.6958 3.70462 32.6665C3.54359 32.3883 3.26545 32.3005 2.95802 32.1394C2.82627 32.037 2.73843 31.8613 2.75307 31.7003C2.76771 31.5246 2.89947 31.4514 3.03122 31.3343C3.17761 31.2172 3.41184 31.1001 3.58751 31.0122L3.66071 30.9683C3.77782 30.8951 3.89493 30.8219 3.99741 30.7341C4.0706 30.6609 4.46586 30.3388 4.75865 30.1046C4.99288 29.9436 5.25638 29.6654 4.90504 29.2994C4.83184 29.2262 4.86112 29.0945 4.93432 29.0652C4.97824 29.0506 5.00751 29.0213 5.03679 29.0067C5.25638 28.8603 5.21246 28.5529 5.21246 28.5089C5.18318 28.1869 5.12463 27.8062 5.12463 27.4695C5.13927 27.2353 5.10999 26.9865 5.40277 26.9572C5.60772 26.9425 5.85659 27.1036 6.00298 27.3232C6.12009 27.4988 6.25185 27.6891 6.36896 27.8502L6.44216 27.9526L6.54463 28.1283L6.58855 28.2015C6.60319 28.2161 6.58855 28.2161 6.61783 28.2454L6.82278 28.4211C6.96917 28.5529 7.10092 28.7431 7.27659 28.8456C7.56938 29.0359 7.95 29.2116 8.30134 29.0798C8.66732 28.9335 8.90155 28.8163 9.32608 28.9774C9.69206 29.0213 9.58959 29.0506 9.60423 29.0067C9.60423 28.9627 9.61887 28.8456 9.66279 28.7139C9.72134 28.5528 9.86774 28.3479 9.80918 28.6114C9.76526 28.7578 9.82382 28.6553 9.92629 28.5382C10.1312 28.2747 10.3947 28.099 10.5411 28.1869C10.6875 28.2601 10.629 28.4796 10.4972 28.626C10.3947 28.7871 10.2923 28.9335 10.1898 29.0506C10.102 29.1238 10.0288 29.1823 9.97021 29.2116L9.92629 29.2262L9.7799 29.5483C9.66279 29.7825 9.57495 30.0314 9.5164 30.2803C9.39928 30.8366 9.56031 31.3928 9.89701 31.8613L10.0141 32.0223L10.2337 32.3298C10.2484 32.3444 10.2337 32.3444 10.2337 32.3444V32.359C10.2337 32.3737 10.2484 32.3737 10.2776 32.3883C10.3069 32.403 10.4679 32.4469 10.5119 32.5932C10.5265 32.6372 10.5265 32.6957 10.4094 32.6372C10.1752 32.5054 10.1898 32.5201 10.1752 32.5786L10.1898 32.6226C10.2044 32.6811 10.1605 32.6811 10.1459 32.6518C9.61887 32.6079 9.06258 32.5054 8.56484 32.6811C8.33062 32.7543 8.06711 32.8421 7.90608 33.0178C7.78896 33.1496 7.67185 33.296 7.58402 33.4423L7.24732 33.9401C7.24732 33.9547 7.23267 33.9401 7.23267 33.9401C7.21804 33.9401 7.2034 33.9108 7.2034 33.8962C7.18876 33.8522 7.18876 33.7497 7.21804 33.779C7.24732 33.8669 7.10092 34.2182 6.96917 34.2182C6.93989 34.2182 6.89597 34.2182 6.86669 34.2182C6.73494 34.1158 6.57391 33.984 6.41288 33.7937C6.39824 33.779 6.41288 33.7351 6.39824 33.7205C6.26649 33.5887 5.81267 33.6034 5.2271 33.9547C4.71473 34.2768 4.49514 34.7306 4.64153 35.1258C4.78792 35.565 4.9636 35.9603 5.12463 36.3555L5.08071 36.4873Z" fill="#DAA114"/>
</svg>
