<svg width="37" height="41" viewBox="0 0 37 41" fill="none" xmlns="http://www.w3.org/2000/svg">
<path d="M14.8596 17.7761L1.4963 21.8489C1.36399 21.8776 1.36975 22.0617 1.50206 22.0847L16.4991 23.4711C16.5451 23.4768 16.5853 23.5113 16.5968 23.5574L21.4118 39.3137C21.4463 39.4345 21.6246 39.4287 21.6476 39.3022L24.708 22.7981C24.7137 22.7635 24.7368 22.7348 24.7655 22.7175L35.1029 16.614C35.2065 16.5507 35.1662 16.3954 35.0454 16.3897L23.4597 15.8029C23.4137 15.8029 23.3734 15.7741 23.3561 15.7339L16.1194 0.472237C16.0676 0.362938 15.9008 0.39174 15.8893 0.512544L14.9516 17.661C14.9516 17.7242 14.9113 17.7646 14.8596 17.7761Z" fill="#8ED8C8"/>
<path d="M10.0394 20.1116L8.95791 20.359L8.41716 20.4856C8.23883 20.5258 8.026 20.5776 7.96272 20.5834C7.46224 20.6697 6.96176 20.7502 6.46129 20.8365C6.17941 20.8882 5.89179 20.94 5.60991 20.9918C4.68375 21.1701 3.55623 21.4578 3.34913 21.6476C3.33188 21.6649 3.29737 21.6821 3.24559 21.6994C3.19382 21.7109 3.10754 21.7396 3.11329 21.8201C3.11329 21.9007 3.19381 21.9007 3.23983 21.9064L3.42392 21.9295C3.93015 21.9755 4.41337 22.0215 4.95411 22.056C5.20722 22.0733 5.69044 22.0215 5.79398 22.0618C6.06435 22.1653 6.53032 22.2631 7.05956 22.3206C7.32418 22.3494 7.60031 22.3667 7.87643 22.3782H8.30212L8.81409 22.3667C9.84956 22.6831 10.9023 22.6198 11.9665 22.6486C13.0307 22.6773 14.1065 22.8268 15.1707 22.7521C15.3145 22.7406 15.4641 22.7406 15.6137 22.7464C15.7632 22.7521 16.0336 22.7809 16.2119 22.8154C16.3615 22.8384 16.5111 22.8671 16.6376 22.9189C16.7642 22.9764 16.8965 22.9879 16.9828 23.1145C17.1151 23.3388 17.2071 23.6322 17.2762 23.9199L17.4717 24.6274L17.6558 25.243C17.9089 26.0656 18.1851 26.8825 18.4612 27.6993C19.0537 29.4539 19.5369 31.2429 19.8763 33.0607C20.0777 34.0962 20.3135 34.8498 20.5609 35.6551L20.745 36.2304L21.0901 37.2313L21.2569 37.6973L21.3375 37.9331C21.372 37.9964 21.3662 38.1288 21.4755 38.1173C21.5791 38.1 21.5618 37.9734 21.5791 37.8929L21.6251 37.6283L21.7114 37.0933L21.861 36.0348C21.953 35.3388 22.0163 34.6772 22.0393 34.1364L22.045 34.0042V33.9409L22.0566 33.8315L22.0968 33.4001L22.1831 32.5372L22.3729 30.8057C22.5052 29.6494 22.6491 28.499 22.7986 27.3427C22.9539 26.1692 23.2416 25.0013 23.4947 23.8335L23.719 22.7808C23.7708 22.5335 23.8399 22.3034 24.0009 22.1308C24.1562 21.964 24.3863 21.8374 24.5992 21.7166L26.2502 20.8134L29.3853 19.0819L30.5531 18.4089L31.3067 17.9659C31.6519 17.7531 31.9798 17.546 32.2674 17.3561L32.4572 17.2296C32.4802 17.2066 32.532 17.1951 32.5148 17.149C32.4917 17.0973 32.4227 17.1146 32.3767 17.1146L31.7727 17.1261L30.8005 17.1606L23.5004 16.9477C23.2128 16.9305 22.9712 16.8614 22.7526 16.7234C22.557 16.5738 22.3902 16.3725 22.2694 16.1079L21.7229 14.9976L20.8715 13.2948L19.1687 9.89504L17.5293 6.71385L17.1323 5.90854L17.0576 5.75321V5.74745C17.0633 5.73595 17.0633 5.7187 17.0576 5.68418C17.0518 5.64391 17.0345 5.58061 17.0115 5.51158C16.977 5.4483 16.9828 5.5116 16.9713 5.54037L16.954 5.68994L16.8677 7.23159L16.5973 11.9832C16.488 13.778 16.3557 15.5728 16.4075 17.3676C16.4133 17.4942 16.4075 17.5978 16.3903 17.6783C16.3557 17.8336 16.3327 17.9659 16.304 18.081C16.1832 18.4549 15.9531 18.6965 15.746 18.8346C15.3203 19.0992 15.0729 19.0359 15.1074 18.9957C15.1189 18.9324 15.4296 18.8518 15.7057 18.4664C15.8207 18.2996 15.884 18.1155 15.8955 17.9314C15.9128 17.6725 15.861 17.7243 15.838 17.6898L15.6654 17.5575C15.5504 17.4655 15.4411 17.3677 15.3375 17.2584C15.1304 17.034 14.9464 16.7406 14.8313 16.3034C14.6702 15.7109 14.5494 15.1587 14.6645 14.4396C14.8256 13.3984 14.6645 12.2766 15.0096 11.2642C15.0557 11.1203 15.0557 10.9075 15.0499 10.735C14.9694 9.18177 15.0154 7.63427 15.1074 6.08108C15.234 4.40132 15.3088 1.70916 15.6712 0.811759C15.7172 0.610419 15.746 0.426325 15.7862 0.224984C15.7977 0.178963 15.8035 0.12719 15.815 0.0811695C15.8323 0.0293962 15.9128 -0.00512771 15.9761 0.000624874C16.0508 0.00637746 16.0624 0.0581704 16.0911 0.0926859L16.1659 0.20771C16.3787 0.518349 16.5974 0.800245 16.862 1.16266C16.9943 1.34674 17.1438 1.54804 17.2934 1.84142L17.9722 3.27957L18.7546 4.99959C18.9501 5.43678 19.1515 5.87399 19.3643 6.29968C19.6865 6.94397 20.0719 7.53649 20.0949 8.24405C20.1007 8.39362 20.2732 8.72727 20.394 8.81931C20.8485 9.17022 21.0786 9.71672 21.326 10.2632C21.999 11.7244 22.6433 13.197 23.3394 14.6524L23.5982 15.1817C23.6443 15.245 23.65 15.3658 23.7478 15.3658L24.0067 15.3715C24.651 15.3773 25.2895 15.383 25.928 15.383L28.695 15.3485L30.0757 15.3313L30.7832 15.3255L31.905 15.3485L33.8436 15.4003C34.1657 15.4118 34.5339 15.4061 34.7525 15.4751C34.8791 15.4981 34.9654 15.5383 35.0747 15.5728L35.322 15.6822C35.6269 15.8317 35.811 15.9583 35.9951 16.0791C36.0353 16.1193 36.0756 16.1021 36.1216 16.2229C36.1389 16.2747 36.1504 16.3437 36.1446 16.3782C36.1389 16.4127 36.1274 16.4242 36.1216 16.4472L36.0066 16.7349C35.9203 16.9305 35.9088 17.1548 35.6787 17.454C35.5061 17.7301 34.8963 18.0523 34.4189 18.3514C33.9184 18.6563 33.3949 18.9554 32.8829 19.2028C32.3364 19.4674 31.7784 19.7608 31.6116 19.8701C31.3585 20.0312 31.1341 20.2267 30.9213 20.4856C30.6797 20.779 30.1907 21.0551 29.7823 21.2679C29.2588 21.544 28.7123 21.7626 28.1716 21.9812C27.5215 22.2401 26.9117 22.476 26.3595 23.0052C26.2214 23.1375 25.9798 23.2928 25.8245 23.3734C25.7785 23.4021 25.6749 23.3849 25.6289 23.4367C25.6059 23.4597 25.5829 23.4942 25.5599 23.5287C25.5484 23.5575 25.5426 23.5402 25.5254 23.6093L25.4736 23.7876L25.2722 24.5181C25.1457 25.0071 25.0306 25.496 24.9328 25.9908C24.7315 26.9802 24.5704 27.9754 24.4266 28.9764L23.8514 33.055L23.7133 34.0732L23.4487 35.7472L23.1495 37.6168L22.9942 38.5774C22.9425 38.8938 22.8964 39.2562 22.8101 39.4576C22.7469 39.6417 22.6778 39.7452 22.6088 39.8718C22.5398 39.9638 22.4707 40.0674 22.4075 40.1364C22.2751 40.2802 22.1601 40.378 22.0508 40.4643C21.953 40.5333 21.8495 40.6024 21.7689 40.6484C21.7574 40.6599 21.6769 40.6771 21.5906 40.6829C21.4986 40.6829 21.4698 40.6771 21.4525 40.6714C21.4065 40.6541 21.3605 40.6426 21.303 40.6196C21.1592 40.5678 21.0038 40.516 20.791 40.3722C20.5954 40.2227 20.3308 40.0731 20.1064 39.4749L19.0134 35.8853L18.2771 33.3887L17.2071 29.6149C17.0288 28.9821 16.8562 28.3321 16.6204 27.7338C16.3442 27.032 16.1026 26.3245 15.8898 25.6111L15.7345 25.0761L15.6597 24.8058C15.6482 24.754 15.6539 24.7713 15.6539 24.754C15.6539 24.708 15.6654 24.6274 15.6022 24.6216L15.5561 24.5987L15.5274 24.5872L15.3721 24.5699L14.7048 24.4951C14.256 24.4491 13.8131 24.4146 13.3644 24.3858C12.467 24.3283 11.5753 24.2938 10.6779 24.265C10.258 24.2535 9.83806 24.265 9.42962 24.2132L8.35965 24.0809L6.57634 23.9083L2.35969 23.5517L1.81896 23.5114C1.64638 23.4942 1.42778 23.4884 1.32423 23.4539L1.1344 23.4079L0.996329 23.3504C0.892783 23.3158 0.817997 23.2756 0.760471 23.2353C0.484347 23.0743 0.357799 22.9189 0.2485 22.7866C0.185222 22.7118 0.167957 22.6601 0.133442 22.5968C0.098926 22.5335 0.0701659 22.476 0.0644133 22.43L0.024141 22.2804C0.0126358 22.2459 -0.00460931 22.0733 0.00114328 22.0215C0.00114328 21.987 0.00688954 21.964 0.0126421 21.9352C0.0356525 21.7857 0.0759234 21.6188 0.231243 21.3829C0.260006 21.3312 0.306021 21.2679 0.3693 21.1989C0.426825 21.1299 0.47285 21.0723 0.570644 20.9918C0.65118 20.917 0.737468 20.8422 0.87553 20.7674C0.933056 20.7272 0.996337 20.6869 1.09413 20.6524C1.18042 20.6122 1.26095 20.5718 1.39326 20.5373L5.05765 19.5191L6.78919 19.0417L7.6003 18.8173L8.06626 18.7023C9.8093 18.2823 11.5466 17.8624 13.2896 17.4424C13.4047 17.4137 13.514 17.3562 13.629 17.3332C14.6242 17.1088 15.0326 17.3389 14.722 17.9775C14.4459 18.5412 13.8821 18.9956 13.002 19.2545C12.0298 19.5421 11.0461 19.801 10.0682 20.0656L10.0394 20.1116Z" fill="#8ED8C8"/>
</svg>
