<svg width="84" height="77" viewBox="0 0 84 77" fill="none" xmlns="http://www.w3.org/2000/svg">
<path d="M26.3566 29.3991C26.6375 28.5797 30.0086 19.3483 39.6926 17.2804C46.185 15.8914 53.1066 18.2403 57.3594 23.5154C63.727 31.428 60.1296 41.0027 59.7863 41.8689C59.3337 43.016 56.0095 50.9989 47.3165 53.1292C40.6836 54.7523 33.6138 52.302 29.3063 47.066C23.0636 39.4733 26.0835 30.2106 26.3566 29.3991Z" fill="#CAEAE3"/>
<path d="M27.7081 24.3815C28.6523 23.2735 29.6745 22.2122 30.8295 21.3772C31.8985 20.6593 32.9286 20.0351 33.8962 19.1845C34.1459 18.966 34.4737 18.8021 34.7702 18.6383C35.332 18.3651 35.8782 18.0452 36.4557 17.8033C36.721 17.694 36.9552 17.4599 37.2205 17.4053C38.5236 17.1556 39.7722 16.9215 41.0285 16.5001C42.0742 16.6796 43.0339 16.3909 44.0718 16.3519C45.1096 16.2816 46.1319 16.4923 47.1853 16.4533C47.4662 16.4533 47.7784 16.5079 48.036 16.6094C49.5966 17.2649 51.1651 17.7877 52.6711 18.568C54.2786 19.3952 55.6989 20.5969 56.7133 22.0717C56.9942 22.4541 57.2595 22.8599 57.5717 23.2266C57.8526 23.6168 58.1335 24.0148 58.4144 24.405C58.7734 24.8497 59.0387 25.357 59.3509 25.8408C59.6786 26.3168 59.9126 26.8396 60.1545 27.3624C60.8256 28.8919 61.3563 30.476 61.7387 32.1225C62.3005 34.3231 62.3786 36.6641 62.0977 38.9661C61.9338 40.1444 61.5514 41.2681 61.0598 42.4152C60.0453 44.6235 58.6797 46.5432 57.0722 48.2833C55.8783 49.5865 54.5596 50.796 53.0847 51.8104C51.7191 52.7703 50.2287 53.5896 48.6212 54.1281C43.8689 55.798 38.4456 55.2986 33.8962 53.0356C32.7881 52.5128 31.7346 51.8651 30.728 51.1472C30.2442 50.757 29.7525 50.3824 29.3312 49.922C27.7003 48.2989 26.4049 46.3637 25.4295 44.288C24.0327 41.3071 23.4631 37.9906 23.6269 34.7913C23.7206 32.9575 24.0405 31.2017 24.3526 29.3601C24.4462 28.8295 24.6882 28.6968 24.9691 29.0246C25.4763 29.563 26.0538 29.9844 26.2332 30.8506C26.3659 31.4358 26.4674 31.9508 26.2723 32.5829C25.9836 33.5193 26.2099 34.5337 25.8041 35.4701C25.7417 35.6028 25.7573 35.7979 25.7885 35.954C26.2567 38.7632 26.6625 41.5334 27.95 44.0695C28.1763 44.4675 28.4182 44.8576 28.6679 45.2478C28.941 45.6146 29.2454 45.9657 29.5185 46.3325C29.6902 46.5744 29.8853 46.8007 30.0882 47.0192C30.2911 47.2377 30.4783 47.4718 30.6812 47.6824C31.2743 48.3067 31.8751 48.9388 32.5852 49.4382C32.8583 49.6177 33.1315 49.7816 33.3812 49.9766C33.6387 50.1561 33.8571 50.3746 34.0132 50.7024C34.0756 50.8428 34.3878 50.9989 34.5439 50.9755C35.1291 50.8896 35.5661 51.1784 36.0577 51.3969C37.3608 52.0211 38.7421 52.5127 40.1779 52.7625C41.2392 52.9497 42.3238 52.9731 43.3851 52.8795C45.0316 52.7234 46.6235 52.2709 48.0983 51.6466C49.3313 51.1316 50.5486 50.5697 51.6177 49.7738C51.8752 49.6021 52.0859 49.3758 52.32 49.1807C52.5385 49.0012 52.757 48.8217 52.9755 48.6345C53.1862 48.4394 53.3968 48.2677 53.6387 48.1351C54.185 47.8619 54.5128 47.5108 54.6688 46.9177C54.7391 46.5666 55.0668 46.2232 55.3399 45.9423C55.6755 45.5677 56.089 45.2478 56.4636 44.8967C56.924 44.4831 57.361 44.0695 57.4702 43.3828C57.5326 43.016 57.8214 42.6337 58.0633 42.3137C59.1558 40.9559 59.585 39.1065 59.7332 37.3352C59.9439 34.9005 59.6317 32.4737 58.9138 30.2653C58.6173 29.4069 58.3129 28.5485 57.9072 27.7448C56.6898 25.2243 54.8249 22.9925 52.5307 21.307L51.8362 20.8232C51.5943 20.6827 51.3367 20.5579 51.087 20.4564C49.8853 20.0038 48.7383 19.52 47.5365 19.083C46.0851 18.568 44.5088 18.5212 43.0027 18.7007C42.6516 18.7553 42.3004 18.8177 41.9571 18.8411C41.6528 18.8567 41.3484 18.8567 41.0519 18.8958L40.1545 19.044C39.5692 19.1923 38.9918 19.3718 38.4299 19.5591C37.3219 20.0195 36.2528 20.5345 35.2462 21.1666C33.5919 22.142 32.0078 23.3437 30.6422 24.8341C29.5965 25.9812 28.6367 27.261 27.8408 28.6344C27.794 28.728 27.7783 28.8373 27.7237 28.9231C27.2867 29.6879 26.7717 29.8283 26.2567 29.1728C25.8119 28.5798 25.7416 27.7994 26.1552 26.9957C26.6234 26.1061 27.1697 25.2711 27.755 24.4674L27.7081 24.3815Z" fill="#8ED8C8"/>
<path d="M5.9053 50.9678C6.1472 51.0537 6.37345 51.0849 6.63096 51.2331C6.86506 51.358 7.09134 51.4985 7.19278 51.2331C7.21619 51.1629 7.28646 51.1941 7.32547 51.1785C7.41131 51.1473 7.49711 51.1239 7.57514 51.0693C7.60635 51.0459 7.60644 50.9054 7.66106 50.9366C7.90297 51.0849 8.098 51.0771 8.19945 50.7962C8.43355 51.0303 8.49599 50.7806 8.60524 50.6479C8.71449 50.5152 8.87059 50.523 8.93302 50.2655C8.94862 50.1953 8.97984 50.1563 9.03446 50.1875C9.3388 50.3514 9.526 50.1875 9.73669 50.047C9.95519 49.8988 10.2205 49.891 10.5483 50.0782C10.72 50.1719 10.8527 50.1251 10.9853 50.0782C11.1414 50.0236 11.2662 49.891 11.4144 49.8129C11.6251 49.7037 11.8202 49.5476 11.9763 49.2745C12.187 48.9077 12.4133 48.5956 12.663 48.3381C12.7878 48.2054 12.9751 48.2445 13.1468 48.2366C13.4823 48.221 13.8413 48.2522 14.1691 48.2054C14.4188 48.1664 14.6373 48.065 14.8558 47.9401C15.0586 47.8309 15.2381 47.6358 15.4332 47.5109C16.0263 47.152 16.6272 46.8086 17.2202 46.4497C17.3607 46.3638 17.4933 46.2312 17.6337 46.1375C17.7039 46.0907 17.782 46.0595 17.86 46.0439C18.1566 45.9815 18.4609 45.9424 18.7575 45.8566C19.1788 45.7396 19.5768 45.5835 19.9982 45.4664C20.2323 45.404 20.4819 45.3728 20.6458 45.0919C20.6926 45.0139 20.7707 45.1699 20.8643 45.5367C21.0282 46.1687 21.2155 46.8164 21.2311 47.2222C21.2389 47.4953 21.2311 47.7138 21.1063 47.6514C20.9268 47.5656 20.88 47.9011 20.6225 47.5734C20.5835 47.5265 20.5678 47.55 20.5522 47.5812C20.2947 48.1352 19.8187 48.0494 19.3973 48.1352C19.2568 48.1664 19.1554 48.2757 19.0306 48.3381C18.9525 48.3771 18.8667 48.4083 18.7731 48.4317C18.6482 48.4629 18.5 48.4473 18.3907 48.5176C18.3049 48.5722 18.258 48.7205 18.0473 48.3849C18.0005 48.3147 17.9615 48.3537 17.9771 48.4473C18.0239 48.8063 17.9381 48.7985 17.8522 48.8141C17.6337 48.8609 17.4075 48.8765 17.2046 48.9468C17.0485 49.0014 16.9158 49.1106 16.791 49.2433C16.5959 49.454 16.4242 49.7271 16.2214 49.9222C16.0575 50.0861 15.8623 50.1719 15.6829 50.3045C15.6439 50.3358 15.6204 50.4216 15.5736 50.445C15.4956 50.4918 15.4332 50.6011 15.3161 50.5074C15.1835 50.406 15.1054 50.406 15.121 50.7337C15.1289 50.9132 15.0509 50.921 14.9806 50.9132C14.8948 50.9054 14.7777 50.8118 14.6607 50.7259C14.528 50.6245 14.3954 50.5074 14.372 50.7649C14.3642 50.9054 14.2627 50.8586 14.1769 50.7962C13.7945 50.523 13.5448 50.6479 13.3185 50.8352C13.0064 51.0927 12.7176 51.4048 12.4133 51.6701C12.2962 51.7716 12.1558 51.834 12.0231 51.9042C11.6174 52.1227 11.1492 52.1852 10.681 52.232C10.5873 52.2398 10.4936 52.2398 10.4312 52.3334C10.2907 52.5519 10.0801 52.5831 9.85376 52.5441C9.58064 52.4973 9.38559 52.7002 9.20612 52.9109C9.1593 52.9577 9.13585 53.0513 9.07342 53.0435C8.64424 52.9967 8.3711 53.4259 7.98093 53.4883C7.66099 53.5351 7.30208 53.4649 6.95093 53.4181C6.67781 53.3791 6.39683 53.301 6.11591 53.2464C6.1003 53.2464 6.09255 53.2776 6.06914 53.2698C5.90527 53.2152 5.71015 52.7938 5.54628 52.1071C5.39801 51.4985 5.36684 51.1239 5.4917 51.0927C5.62435 51.0615 5.77256 51.0693 5.92083 51.0615C5.92083 51.0225 5.9131 50.999 5.9053 50.9678Z" fill="#8ED8C8"/>
<path d="M33.3429 60.956C33.1478 61.0808 32.9918 61.2291 32.7343 61.3383C32.5002 61.4398 32.2661 61.5334 32.4378 61.7441C32.4846 61.7988 32.4221 61.83 32.4143 61.869C32.3987 61.947 32.3753 62.0172 32.3753 62.1031C32.3753 62.1421 32.4924 62.2123 32.4378 62.2279C32.1881 62.3294 32.0865 62.4698 32.2738 62.6883C31.9539 62.7352 32.1256 62.9068 32.188 63.0551C32.2426 63.2034 32.149 63.3126 32.3363 63.4921C32.3831 63.5389 32.3987 63.5857 32.3518 63.6013C32.0553 63.734 32.0944 63.9525 32.1022 64.171C32.11 64.4051 31.9774 64.5924 31.6496 64.7328C31.4779 64.8108 31.4545 64.9279 31.4233 65.0449C31.3843 65.1854 31.4311 65.3415 31.4155 65.4897C31.3921 65.7004 31.4232 65.9189 31.5715 66.1764C31.7744 66.5198 31.9149 66.8397 31.9929 67.1519C32.0319 67.3079 31.9071 67.425 31.8213 67.5498C31.6574 67.7996 31.4389 68.0337 31.3062 68.299C31.2048 68.4941 31.1814 68.7047 31.1658 68.9232C31.1502 69.1261 31.2204 69.3524 31.2204 69.5553C31.2126 70.164 31.1814 70.7727 31.1658 71.3813C31.1658 71.5296 31.2048 71.6856 31.2126 71.8339C31.2126 71.9119 31.197 71.9744 31.1736 72.0446C31.0722 72.2943 30.9395 72.5284 30.8537 72.7781C30.7288 73.1371 30.6507 73.5038 30.5259 73.8628C30.4556 74.0657 30.3543 74.2608 30.4947 74.5183C30.5337 74.5885 30.3621 74.5651 30.0031 74.448C29.3866 74.2374 28.7389 74.0345 28.3956 73.8316C28.1615 73.6989 27.982 73.5819 28.099 73.5194C28.2629 73.4336 28.0054 73.2307 28.419 73.2151C28.4736 73.2151 28.4658 73.1839 28.4502 73.1605C28.1224 72.6845 28.4424 72.3879 28.5907 72.0446C28.6375 71.9353 28.5985 71.7949 28.6141 71.6778C28.6219 71.5998 28.6375 71.5218 28.6687 71.4515C28.7077 71.3423 28.8014 71.2487 28.8014 71.1316C28.8014 71.0458 28.6999 70.9287 29.0979 70.9521C29.1837 70.9599 29.1759 70.9053 29.0901 70.8663C28.7623 70.718 28.8169 70.6556 28.8481 70.5932C28.9262 70.4137 29.0355 70.242 29.0823 70.0625C29.1135 69.9221 29.0978 69.7738 29.051 69.6099C28.9808 69.3602 28.8404 69.0949 28.7779 68.853C28.7311 68.6501 28.7546 68.4628 28.739 68.2677C28.739 68.2209 28.6765 68.1585 28.6765 68.1195C28.6843 68.0414 28.6218 67.94 28.7623 67.901C28.9184 67.862 28.9574 67.8074 28.6765 67.6513C28.5204 67.5655 28.5516 67.503 28.5985 67.4562C28.6531 67.4016 28.7936 67.3626 28.9262 67.3314C29.0823 67.2923 29.2539 67.2533 29.0432 67.1051C28.934 67.027 29.0277 66.9802 29.1213 66.949C29.5505 66.8163 29.5817 66.5744 29.5426 66.3169C29.488 65.9657 29.3788 65.5912 29.3164 65.24C29.293 65.0996 29.3164 64.9747 29.3242 64.8421C29.3554 64.4363 29.5505 64.0773 29.7612 63.7184C29.8002 63.6482 29.8548 63.5779 29.808 63.4843C29.6988 63.2658 29.7846 63.1097 29.9406 62.9615C30.1279 62.7898 30.0577 62.5479 29.9719 62.306C29.9563 62.2513 29.8938 62.1811 29.9328 62.1421C30.1981 61.8612 29.9796 61.4476 30.1357 61.1277C30.2606 60.8779 30.5181 60.6595 30.7366 60.4332C30.9083 60.2615 31.1268 60.0976 31.3218 59.9259C31.3374 59.9181 31.3062 59.8947 31.3218 59.8791C31.4545 59.7855 31.9071 59.8713 32.5704 60.1132C33.1556 60.3239 33.4834 60.4956 33.4443 60.6048C33.3975 60.7219 33.3117 60.8233 33.2493 60.9248C33.2805 60.9404 33.3117 60.9482 33.3429 60.956Z" fill="#8ED8C8"/>
<path d="M51.4469 75.6654C51.5562 75.4626 51.6185 75.2675 51.7902 75.049C51.9463 74.8539 52.1024 74.6588 51.8527 74.5652C51.7903 74.5418 51.8293 74.4871 51.8137 74.4481C51.7902 74.3779 51.7747 74.2999 51.7356 74.2296C51.72 74.1984 51.5796 74.1984 51.6186 74.1516C51.7902 73.9487 51.8137 73.777 51.5406 73.6834C51.7981 73.4883 51.564 73.4259 51.4391 73.3322C51.3221 73.2386 51.3532 73.0981 51.0957 73.0357C51.0255 73.0201 50.9943 72.9889 51.0333 72.9499C51.2284 72.6923 51.088 72.5285 50.9787 72.349C50.8617 72.1617 50.885 71.9276 51.1035 71.6545C51.2206 71.5062 51.1816 71.397 51.1504 71.2799C51.1114 71.1473 50.9943 71.0302 50.9397 70.9054C50.8538 70.7181 50.729 70.5464 50.4715 70.406C50.1281 70.2187 49.8472 70.008 49.6287 69.7895C49.5194 69.6802 49.5741 69.5164 49.5819 69.3759C49.6053 69.0872 49.6833 68.7829 49.6677 68.4941C49.6599 68.2834 49.5819 68.0884 49.4883 67.8933C49.4024 67.7138 49.2307 67.5577 49.1371 67.386C48.8483 66.8632 48.583 66.3404 48.2943 65.8176C48.2241 65.6927 48.1149 65.5757 48.0368 65.4586C47.9978 65.3962 47.9822 65.3338 47.9744 65.2635C47.9431 65.006 47.9432 64.7407 47.8963 64.491C47.8261 64.132 47.7169 63.7809 47.6545 63.4141C47.6155 63.2112 47.6155 62.9927 47.358 62.8445C47.2877 62.8055 47.4516 62.743 47.8183 62.6728C48.4582 62.548 49.1214 62.4153 49.5194 62.4153C49.7925 62.4153 50.0032 62.4309 49.9252 62.5324C49.816 62.6884 50.1438 62.7352 49.7926 62.9459C49.7458 62.9771 49.7692 62.9927 49.7926 63.0083C50.3076 63.2503 50.1671 63.656 50.2061 64.015C50.2217 64.132 50.3154 64.2335 50.3622 64.3427C50.3934 64.413 50.4168 64.491 50.4246 64.5612C50.4402 64.6705 50.4013 64.7953 50.4637 64.8968C50.5105 64.9748 50.651 65.0216 50.292 65.1855C50.214 65.2245 50.2452 65.2557 50.3388 65.2479C50.6978 65.2167 50.6744 65.2947 50.6822 65.365C50.6978 65.5522 50.69 65.7473 50.7368 65.9268C50.7758 66.0595 50.8617 66.1765 50.9787 66.2936C51.1582 66.4652 51.4078 66.6213 51.5795 66.8008C51.72 66.949 51.7902 67.1207 51.8917 67.2768C51.9151 67.3158 52.0009 67.3314 52.0166 67.3704C52.0478 67.4407 52.157 67.4953 52.0478 67.5967C51.9307 67.706 51.9229 67.7762 52.2429 67.7684C52.4224 67.7684 52.4223 67.8308 52.4067 67.8933C52.3833 67.9713 52.2818 68.0649 52.1882 68.1586C52.0712 68.2678 51.9385 68.3849 52.196 68.4083C52.3287 68.4239 52.2741 68.5019 52.2038 68.5722C51.8917 68.8921 51.9776 69.1106 52.1414 69.3135C52.3599 69.5866 52.633 69.8441 52.8593 70.1172C52.9451 70.2265 52.9919 70.3435 53.0466 70.4606C53.2182 70.8195 53.2183 71.2175 53.2105 71.6233C53.2105 71.7013 53.1949 71.7872 53.2807 71.8418C53.4758 71.9744 53.4835 72.1461 53.4211 72.3412C53.3431 72.5753 53.5226 72.747 53.7099 72.9108C53.7567 72.9499 53.8425 72.9811 53.8269 73.0279C53.7333 73.3947 54.1234 73.6366 54.139 73.9799C54.1547 74.253 54.0376 74.5574 53.9518 74.8617C53.8815 75.0958 53.7723 75.3377 53.6865 75.5718C53.6787 75.5874 53.7177 75.5952 53.7021 75.6108C53.6319 75.7513 53.1949 75.8996 52.5004 76.0166C51.8839 76.118 51.5171 76.1336 51.5015 76.0322C51.4859 75.9152 51.5093 75.7903 51.5171 75.6654C51.5093 75.6498 51.4781 75.6576 51.4469 75.6654Z" fill="#8ED8C8"/>
<path d="M61.3112 57.0932C61.3658 57.3273 61.4438 57.5146 61.4594 57.8033C61.475 58.053 61.475 58.3106 61.7403 58.2247C61.8106 58.2013 61.8106 58.2715 61.8496 58.295C61.912 58.3418 61.9745 58.3886 62.0525 58.4198C62.0837 58.4354 62.193 58.3496 62.193 58.4042C62.2008 58.6773 62.2944 58.8178 62.5676 58.7242C62.4973 59.0441 62.7236 58.9426 62.8874 58.9426C63.0435 58.9426 63.1138 59.0753 63.3557 58.9582C63.4181 58.927 63.465 58.9348 63.465 58.9895C63.4884 59.3172 63.7068 59.364 63.9175 59.4343C64.1438 59.5123 64.2765 59.7074 64.2921 60.0585C64.2999 60.2458 64.4091 60.316 64.5028 60.3863C64.6198 60.4721 64.7915 60.4877 64.9242 60.5501C65.1115 60.6438 65.3299 60.6984 65.6264 60.6516C66.0166 60.5892 66.3755 60.5736 66.6955 60.6048C66.8594 60.6204 66.9218 60.7842 67.0154 60.9091C67.1949 61.151 67.3432 61.4397 67.5383 61.666C67.6866 61.8299 67.8816 61.9313 68.0845 62.025C68.2718 62.1108 68.5137 62.1264 68.7088 62.2045C69.2863 62.4308 69.8481 62.6805 70.4255 62.9146C70.566 62.9692 70.7299 62.9926 70.8704 63.0394C70.9406 63.0628 71.003 63.1018 71.0576 63.1565C71.2527 63.3438 71.4322 63.5466 71.6429 63.7183C71.9394 63.9602 72.2593 64.1709 72.5558 64.4206C72.7197 64.5611 72.868 64.7249 73.1723 64.6859C73.2582 64.6703 73.1723 64.8264 72.9304 65.1151C72.5168 65.6145 72.0954 66.1452 71.7833 66.4027C71.5726 66.5744 71.4009 66.6992 71.3853 66.5665C71.3619 66.3793 71.081 66.5431 71.2059 66.153C71.2215 66.0983 71.1903 66.0983 71.1591 66.1062C70.5972 66.2466 70.4255 65.833 70.1524 65.5677C70.0666 65.4819 69.9183 65.4663 69.809 65.4116C69.7388 65.3726 69.6686 65.3336 69.6139 65.279C69.5281 65.201 69.4735 65.0839 69.3565 65.0371C69.2706 65.0059 69.1302 65.0527 69.2941 64.6937C69.3253 64.6157 69.2785 64.6079 69.2161 64.6703C68.9585 64.92 68.9195 64.8498 68.8727 64.7952C68.7322 64.6547 68.6073 64.4987 68.4512 64.3816C68.3342 64.3036 68.1782 64.2645 68.0143 64.2489C67.7568 64.2255 67.4524 64.2645 67.2027 64.2255C66.992 64.2021 66.8282 64.1085 66.6331 64.046C66.5863 64.0304 66.5083 64.0695 66.4692 64.0539C66.3912 64.0226 66.2742 64.0383 66.2898 63.8978C66.3054 63.7339 66.2663 63.6793 66.0244 63.89C65.8839 64.007 65.8449 63.9524 65.8137 63.8978C65.7825 63.8276 65.7904 63.6871 65.806 63.5466C65.8216 63.3828 65.8449 63.2111 65.6342 63.3516C65.5172 63.4296 65.5094 63.3281 65.5172 63.2267C65.5406 62.7741 65.3221 62.6571 65.0646 62.6024C64.7134 62.5244 64.3233 62.4932 63.9643 62.423C63.8238 62.3995 63.7146 62.3293 63.5897 62.2669C63.2152 62.0874 62.9421 61.7753 62.6768 61.4475C62.6222 61.3851 62.5754 61.3071 62.4739 61.3227C62.232 61.3461 62.1071 61.2056 62.0291 61.0105C61.9276 60.7764 61.6779 60.753 61.4204 60.7374C61.358 60.7374 61.2721 60.7686 61.2487 60.714C61.0771 60.3629 60.601 60.4175 60.3591 60.16C60.164 59.9493 60.047 59.6371 59.9066 59.3406C59.8051 59.1143 59.7271 58.8568 59.6335 58.6071C59.6257 58.5915 59.5944 58.6071 59.5944 58.5915C59.5554 58.4354 59.7973 58.0375 60.2577 57.5068C60.6635 57.0308 60.9444 56.7889 61.0302 56.8591C61.1239 56.945 61.1863 57.062 61.2644 57.1635C61.2722 57.1479 61.2878 57.1245 61.3112 57.0932Z" fill="#8ED8C8"/>
<path d="M82.1466 47.6356C82.0452 47.4405 81.9281 47.2923 81.8501 47.0426C81.7799 46.8163 81.7096 46.5822 81.5145 46.7539C81.4677 46.8007 81.4444 46.7383 81.4054 46.7305C81.3429 46.7148 81.2727 46.6914 81.2025 46.6914C81.1712 46.6914 81.101 46.8085 81.0854 46.7539C81.0152 46.5042 80.8981 46.4105 80.6952 46.5978C80.6796 46.2778 80.5079 46.4573 80.3753 46.5119C80.2426 46.5666 80.1568 46.4729 79.9851 46.6602C79.9383 46.707 79.8992 46.7226 79.8836 46.6758C79.7822 46.3871 79.5871 46.4183 79.3998 46.4339C79.1969 46.4417 79.0331 46.3169 78.9316 45.9969C78.877 45.8253 78.7756 45.8018 78.6742 45.7784C78.5571 45.7472 78.4089 45.794 78.284 45.7784C78.1045 45.7628 77.9016 45.7862 77.6753 45.9423C77.3632 46.1452 77.0666 46.2856 76.7935 46.3715C76.6531 46.4105 76.5594 46.2856 76.4579 46.2076C76.2472 46.0437 76.0522 45.833 75.8337 45.7082C75.6699 45.6145 75.4825 45.5833 75.2874 45.5755C75.108 45.5677 74.9051 45.638 74.7256 45.638C74.1872 45.638 73.6566 45.6146 73.1182 45.6068C72.9855 45.6068 72.845 45.6458 72.7124 45.6536C72.6499 45.6536 72.5875 45.638 72.5329 45.6145C72.3222 45.5131 72.1193 45.3883 71.9008 45.3102C71.5887 45.1932 71.2688 45.1152 70.9644 44.9981C70.7927 44.9279 70.6289 44.8264 70.387 44.9747C70.3167 45.0137 70.3558 44.842 70.4806 44.4909C70.6991 43.8822 70.9176 43.2423 71.1126 42.8912C71.2453 42.6571 71.3545 42.4776 71.4014 42.5946C71.4638 42.7585 71.6589 42.501 71.6511 42.9068C71.6511 42.9614 71.6745 42.9536 71.6979 42.938C72.1349 42.6024 72.3768 42.9224 72.6655 43.0707C72.7591 43.1175 72.884 43.0785 72.9933 43.0941C73.0635 43.1019 73.1259 43.1175 73.1884 43.1487C73.282 43.1877 73.36 43.2813 73.4615 43.2813C73.5395 43.2813 73.6488 43.1799 73.602 43.5701C73.5942 43.6481 73.6332 43.6403 73.6722 43.5623C73.8282 43.2345 73.875 43.2891 73.9297 43.3204C74.0857 43.3984 74.2262 43.4998 74.3823 43.5467C74.4994 43.5779 74.6398 43.5623 74.7803 43.5154C74.9988 43.4452 75.2407 43.3048 75.4592 43.2423C75.6387 43.1877 75.8025 43.2189 75.9741 43.1955C76.0132 43.1877 76.0678 43.1331 76.1068 43.1331C76.1771 43.1331 76.2707 43.0785 76.2941 43.2111C76.3253 43.3672 76.3644 43.4062 76.5204 43.1253C76.6063 42.9692 76.6609 43.0004 76.6921 43.0473C76.7389 43.1019 76.7623 43.2345 76.7857 43.3672C76.8169 43.5232 76.8325 43.6871 76.9808 43.4842C77.0588 43.375 77.0901 43.4608 77.1135 43.5623C77.2071 43.9836 77.4178 44.0149 77.6441 43.9758C77.9562 43.9212 78.2917 43.812 78.6039 43.7417C78.7287 43.7183 78.838 43.7417 78.9551 43.7496C79.314 43.7808 79.6184 43.968 79.9227 44.1709C79.9851 44.2099 80.0398 44.2646 80.1256 44.2178C80.3207 44.1085 80.4611 44.1943 80.5782 44.3426C80.7186 44.5221 80.9371 44.4518 81.1556 44.366C81.2102 44.3504 81.2727 44.288 81.3039 44.327C81.538 44.5845 81.9126 44.366 82.1779 44.5143C82.3964 44.6391 82.568 44.881 82.7553 45.1073C82.8958 45.279 83.0285 45.4897 83.1689 45.677C83.1767 45.6926 83.2001 45.6614 83.2079 45.677C83.2781 45.8018 83.1767 46.2544 82.927 46.9177C82.7085 47.503 82.5368 47.8307 82.4432 47.7917C82.3495 47.7449 82.2637 47.6668 82.1701 47.5966C82.1623 47.5732 82.1544 47.6044 82.1466 47.6356Z" fill="#8ED8C8"/>
<path d="M67.2661 21.7204C67.4846 21.7907 67.6796 21.8063 67.9293 21.9311C68.1478 22.0404 68.3663 22.1574 68.4053 21.8921C68.4131 21.8219 68.4756 21.8531 68.5068 21.8297C68.5692 21.7907 68.6394 21.7673 68.6941 21.7126C68.7175 21.6892 68.694 21.5566 68.7408 21.58C68.9749 21.7048 69.1388 21.6892 69.1701 21.4083C69.412 21.619 69.4198 21.3771 69.4822 21.2445C69.5524 21.1118 69.6851 21.1118 69.6929 20.8543C69.6929 20.7841 69.7163 20.7528 69.7631 20.7684C70.044 20.9089 70.1845 20.7372 70.3249 20.5968C70.481 20.4407 70.7073 20.4173 71.0116 20.5733C71.1755 20.6592 71.2769 20.5968 71.3784 20.5421C71.4954 20.4797 71.5813 20.3471 71.6905 20.2612C71.8544 20.1442 71.987 19.9803 72.0651 19.7072C72.1743 19.3404 72.307 19.0205 72.4709 18.763C72.5567 18.6303 72.7206 18.6537 72.861 18.6381C73.142 18.5991 73.4463 18.6147 73.7194 18.5523C73.9223 18.5055 74.0862 18.3884 74.2501 18.2557C74.3983 18.1387 74.5154 17.9358 74.6637 17.8109C75.1007 17.4286 75.5376 17.0618 75.9746 16.6795C76.076 16.5858 76.1619 16.4532 76.2633 16.3595C76.3101 16.3127 76.3726 16.2815 76.4351 16.2581C76.677 16.18 76.9266 16.1254 77.1529 16.024C77.4806 15.8835 77.7928 15.7118 78.1283 15.5714C78.3156 15.4933 78.5185 15.4465 78.6043 15.1734C78.6277 15.0954 78.7214 15.2436 78.8697 15.587C79.1272 16.1879 79.4003 16.8043 79.4861 17.1945C79.5407 17.4598 79.5798 17.6627 79.4628 17.6159C79.2911 17.5456 79.3145 17.8734 79.0414 17.569C79.0023 17.53 78.9867 17.5535 78.9789 17.5847C78.8618 18.1387 78.4482 18.0841 78.1049 18.1933C77.9956 18.2323 77.9254 18.3416 77.8318 18.4118C77.7694 18.4586 77.7069 18.4899 77.6367 18.5133C77.5353 18.5523 77.4104 18.5445 77.3246 18.6147C77.2621 18.6693 77.2466 18.8176 77.0125 18.5055C76.9657 18.443 76.9344 18.4742 76.9578 18.5679C77.0671 18.9112 76.9891 18.9034 76.9189 18.9268C76.7472 18.9815 76.5521 19.0127 76.396 19.0907C76.279 19.1531 76.1853 19.2624 76.0995 19.4028C75.9746 19.6135 75.881 19.8867 75.7484 20.0895C75.6391 20.2612 75.4909 20.3549 75.366 20.4953C75.3348 20.5265 75.3347 20.6124 75.3035 20.6358C75.2411 20.6826 75.2099 20.7918 75.0928 20.7138C74.9601 20.628 74.8978 20.628 74.9758 20.9401C75.0148 21.1196 74.9523 21.1274 74.8977 21.1274C74.8197 21.1196 74.7104 21.0416 74.5934 20.9635C74.4607 20.8699 74.3281 20.7684 74.3593 21.0181C74.3749 21.1508 74.289 21.1118 74.2032 21.0572C73.8364 20.8153 73.6414 20.9479 73.4854 21.143C73.2747 21.4083 73.0874 21.7283 72.8767 22.0014C72.7986 22.1106 72.6894 22.173 72.5958 22.2511C72.2914 22.4852 71.9091 22.571 71.5267 22.6412C71.4487 22.6568 71.3706 22.6569 71.3316 22.7505C71.2536 22.969 71.0818 23.008 70.8868 22.9846C70.6449 22.9534 70.52 23.1641 70.403 23.3826C70.3717 23.4294 70.364 23.523 70.3171 23.523C69.9426 23.5074 69.8021 23.9366 69.4744 24.0146C69.2169 24.0849 68.8969 24.0302 68.5926 24.0068C68.3585 23.9912 68.101 23.9288 67.859 23.8898C67.8434 23.8898 67.8435 23.921 67.8279 23.9132C67.6796 23.8742 67.4455 23.4762 67.1802 22.8207C66.9461 22.2433 66.8525 21.8843 66.9539 21.8453C67.0632 21.8063 67.188 21.8063 67.305 21.7907C67.2972 21.7829 67.2817 21.7517 67.2661 21.7204Z" fill="#8ED8C8"/>
<path d="M56.6362 1.22886C56.4334 1.3069 56.2773 1.40834 56.0197 1.46297C55.7856 1.50979 55.5515 1.5566 55.6998 1.75949C55.7388 1.81411 55.6763 1.82972 55.6685 1.86094C55.6451 1.92336 55.6218 1.98579 55.6139 2.05602C55.6139 2.08723 55.7232 2.16526 55.6685 2.17307C55.4188 2.21989 55.3096 2.32133 55.4734 2.53983C55.1535 2.52422 55.3175 2.7037 55.3643 2.84416C55.4111 2.97682 55.3096 3.05486 55.4813 3.24214C55.5281 3.28896 55.5359 3.32797 55.4891 3.34357C55.1925 3.4138 55.2081 3.6089 55.2003 3.78837C55.1925 3.99126 55.0521 4.13172 54.7244 4.20195C54.5527 4.24097 54.5215 4.33461 54.4825 4.43606C54.4357 4.5453 54.4747 4.69356 54.4513 4.81841C54.42 4.99789 54.4279 5.18518 54.5605 5.42709C54.7322 5.74703 54.8492 6.05135 54.9116 6.33227C54.9428 6.47273 54.8102 6.55077 54.7165 6.64442C54.5371 6.8317 54.3108 7.00336 54.1625 7.19845C54.0533 7.34671 54.0065 7.52619 53.9831 7.71348C53.9597 7.88515 54.0065 8.08804 53.9909 8.26752C53.9441 8.79035 53.8738 9.30537 53.8191 9.8282C53.8035 9.95305 53.8347 10.0935 53.8269 10.2262C53.8269 10.2886 53.8036 10.351 53.7724 10.3978C53.6553 10.5929 53.5149 10.7802 53.4134 10.9753C53.273 11.264 53.1637 11.5684 53.0233 11.8571C52.9374 12.021 52.8281 12.1692 52.953 12.4189C52.9842 12.4892 52.8203 12.4345 52.477 12.2785C51.8917 12.0053 51.2753 11.7244 50.9475 11.4981C50.729 11.342 50.5652 11.2172 50.6823 11.186C50.8539 11.1392 50.612 10.9207 51.0177 10.9753C51.0724 10.9831 51.0646 10.9597 51.049 10.9285C50.7603 10.4681 51.0958 10.2652 51.2597 9.99987C51.3143 9.91404 51.2909 9.78919 51.3065 9.68774C51.3221 9.61751 51.3455 9.55507 51.3767 9.50045C51.4235 9.41461 51.525 9.35218 51.5328 9.25073C51.5406 9.1727 51.4548 9.06347 51.8293 9.14931C51.9074 9.16492 51.9074 9.1259 51.8215 9.07908C51.5094 8.8996 51.5718 8.85278 51.603 8.80596C51.6888 8.6655 51.8059 8.54064 51.8683 8.38457C51.9073 8.27532 51.9073 8.13486 51.8683 7.9944C51.8137 7.7681 51.6967 7.51839 51.6577 7.2999C51.6265 7.12042 51.6655 6.96436 51.6577 6.79268C51.6577 6.75366 51.603 6.69123 51.603 6.65221C51.6108 6.58198 51.5562 6.48835 51.6966 6.47274C51.8527 6.45713 51.8995 6.41811 51.6264 6.24644C51.4782 6.14499 51.5172 6.09817 51.564 6.06696C51.6265 6.02794 51.7591 6.02015 51.8917 6.01234C52.0478 6.00454 52.2117 5.99674 52.0244 5.84067C51.923 5.75483 52.0166 5.73141 52.1102 5.72361C52.5394 5.67679 52.5862 5.4739 52.5628 5.2476C52.5394 4.93547 52.4536 4.59992 52.4146 4.28779C52.399 4.16293 52.4301 4.06149 52.4535 3.94444C52.516 3.60109 52.7267 3.32017 52.953 3.04705C52.9998 2.99243 53.0545 2.94561 53.0155 2.85977C52.9218 2.65688 53.0154 2.53203 53.1793 2.43839C53.3744 2.32134 53.3197 2.10284 53.2573 1.87655C53.2417 1.82192 53.1871 1.75949 53.2261 1.72828C53.507 1.52539 53.3198 1.13522 53.4915 0.893311C53.6319 0.698226 53.8894 0.549962 54.1235 0.393895C54.303 0.26904 54.5293 0.167606 54.7244 0.0505556C54.74 0.0427522 54.7166 0.0193397 54.7322 0.0115363C54.8648 -0.0430874 55.3018 0.0973692 55.9417 0.409505C56.5036 0.682623 56.8079 0.885512 56.7688 0.971349C56.7142 1.06499 56.6284 1.13523 56.5581 1.22106C56.5737 1.20546 56.605 1.21326 56.6362 1.22886Z" fill="#8ED8C8"/>
<path d="M28.3801 13.5036C28.4348 13.2851 28.4426 13.0822 28.5596 12.8325C28.6611 12.6062 28.7625 12.3799 28.4972 12.3643C28.427 12.3565 28.4504 12.2941 28.427 12.2629C28.388 12.2004 28.3568 12.138 28.3021 12.0834C28.2787 12.06 28.146 12.0912 28.1694 12.0444C28.2865 11.8025 28.2631 11.6386 27.9744 11.623C28.1772 11.3733 27.9275 11.3733 27.7871 11.3186C27.6466 11.264 27.6466 11.1235 27.3813 11.1314C27.3111 11.1314 27.2721 11.1158 27.2955 11.0689C27.4203 10.7802 27.2408 10.6554 27.0926 10.5149C26.9287 10.3666 26.8975 10.1481 27.038 9.8282C27.116 9.65652 27.0457 9.56288 26.9911 9.46144C26.9209 9.34439 26.7804 9.26635 26.6946 9.16491C26.5697 9.00884 26.3981 8.88398 26.1171 8.82156C25.7426 8.73572 25.4227 8.61867 25.1573 8.46261C25.0247 8.38457 25.0403 8.2207 25.0091 8.08024C24.9545 7.79931 24.9545 7.49499 24.8764 7.22967C24.814 7.03459 24.6891 6.87071 24.5565 6.71464C24.4316 6.57418 24.2287 6.46493 24.0883 6.33227C23.6825 5.91869 23.2924 5.49732 22.8866 5.08374C22.793 4.9823 22.6525 4.90426 22.551 4.81062C22.4964 4.7638 22.4652 4.70137 22.4418 4.63894C22.3481 4.40484 22.2779 4.15513 22.1687 3.92883C22.0126 3.60889 21.8175 3.30457 21.6693 2.97683C21.5834 2.78955 21.5288 2.59445 21.2478 2.51642C21.1698 2.49301 21.3103 2.39157 21.6458 2.2277C22.2311 1.93897 22.8319 1.63464 23.2143 1.5254C23.4718 1.45517 23.6825 1.40835 23.6357 1.5254C23.5733 1.69707 23.901 1.65805 23.6123 1.95457C23.5733 1.99359 23.5967 2.0092 23.6279 2.0092C24.182 2.09504 24.1507 2.51642 24.2756 2.84416C24.3146 2.95341 24.4317 3.01584 24.5097 3.10948C24.5565 3.16411 24.5956 3.23433 24.6268 3.29676C24.6658 3.3982 24.6657 3.52306 24.7437 3.60109C24.8062 3.66352 24.9544 3.67132 24.6501 3.92103C24.5877 3.97565 24.6268 3.99906 24.7126 3.96785C25.0481 3.84299 25.0481 3.92103 25.0715 3.98346C25.1339 4.15513 25.173 4.34242 25.2666 4.49849C25.3368 4.61554 25.4539 4.70137 25.5944 4.77941C25.8129 4.89646 26.0938 4.97449 26.2967 5.09154C26.4684 5.19298 26.5776 5.33345 26.718 5.4505C26.7492 5.48171 26.8351 5.4739 26.8663 5.50512C26.921 5.55974 27.0302 5.58316 26.96 5.70801C26.8741 5.84067 26.8819 5.9109 27.194 5.81726C27.3657 5.76264 27.3813 5.83286 27.3813 5.88749C27.3813 5.96552 27.3033 6.08257 27.2331 6.19962C27.1472 6.34008 27.0536 6.47274 27.3033 6.43372C27.4359 6.41031 27.397 6.50395 27.3501 6.58979C27.1316 6.97215 27.272 7.15163 27.4749 7.2999C27.748 7.49498 28.0758 7.66666 28.3645 7.86174C28.4738 7.93978 28.5441 8.04121 28.6299 8.13485C28.8796 8.42358 28.9888 8.79814 29.0825 9.1805C29.0981 9.25854 29.1059 9.33659 29.2074 9.3678C29.4337 9.43803 29.4804 9.6019 29.4648 9.80479C29.4492 10.0467 29.6599 10.1559 29.8862 10.2652C29.9409 10.2886 30.0267 10.2964 30.0267 10.351C30.0267 10.7256 30.4637 10.8504 30.5651 11.1626C30.6432 11.4201 30.6119 11.74 30.6041 12.0444C30.5963 12.2785 30.5495 12.536 30.5261 12.7857C30.5261 12.8013 30.5573 12.8013 30.5573 12.8169C30.5261 12.9651 30.1438 13.2227 29.5039 13.527C28.9342 13.7923 28.5831 13.9016 28.5441 13.8079C28.4973 13.6987 28.4894 13.5738 28.466 13.4568C28.4426 13.4724 28.4114 13.488 28.3801 13.5036Z" fill="#8ED8C8"/>
<path d="M1.311 23.4841C1.43585 23.687 1.56849 23.8352 1.67774 24.1005C1.77138 24.3346 1.85721 24.5687 2.06791 24.4049C2.12253 24.3658 2.15377 24.4205 2.19279 24.4361C2.27082 24.4517 2.34099 24.4829 2.41902 24.4829C2.45804 24.4829 2.52829 24.3658 2.5439 24.4205C2.63754 24.678 2.77016 24.7794 2.99646 24.5999C3.02768 24.9199 3.21502 24.7482 3.35548 24.7014C3.50375 24.6468 3.60514 24.7482 3.79242 24.5609C3.83924 24.5141 3.88608 24.4985 3.90168 24.5531C4.02654 24.8497 4.24501 24.8262 4.4635 24.8184C4.69761 24.8184 4.88494 24.9589 5.0098 25.2866C5.08003 25.4583 5.19709 25.4895 5.31414 25.5207C5.4546 25.5598 5.61062 25.5208 5.75108 25.5364C5.96177 25.5598 6.18027 25.5441 6.43778 25.3959C6.78113 25.2008 7.10888 25.0682 7.42102 24.9979C7.57709 24.9589 7.68633 25.0915 7.81119 25.1774C8.05309 25.3491 8.28724 25.5676 8.53694 25.708C8.72423 25.8095 8.94266 25.8485 9.16116 25.8641C9.36405 25.8797 9.59039 25.8173 9.79328 25.8251C10.4019 25.8485 11.0028 25.8953 11.6114 25.9187C11.7597 25.9265 11.9157 25.8875 12.064 25.8875C12.142 25.8875 12.2045 25.9031 12.2747 25.9343C12.5166 26.0436 12.7507 26.1762 13.0005 26.2699C13.3516 26.4025 13.7184 26.4884 14.0695 26.621C14.2724 26.6991 14.4597 26.8083 14.725 26.6678C14.7952 26.6288 14.764 26.8005 14.6391 27.1516C14.4129 27.7603 14.1944 28.4002 13.9837 28.7435C13.8432 28.9776 13.7262 29.1493 13.6637 29.0323C13.5857 28.8606 13.375 29.1181 13.3672 28.7045C13.3672 28.6499 13.336 28.6577 13.3126 28.6733C12.8366 28.9933 12.5479 28.6577 12.2123 28.5016C12.1031 28.447 11.9626 28.486 11.8456 28.4704C11.7675 28.4626 11.6895 28.4392 11.6192 28.408C11.51 28.3612 11.4241 28.2675 11.3071 28.2675C11.2213 28.2675 11.1042 28.3612 11.1432 27.971C11.1511 27.8852 11.1042 27.893 11.0574 27.9788C10.8936 28.2987 10.8389 28.2441 10.7765 28.2129C10.6048 28.1349 10.4331 28.0178 10.2536 27.971C10.121 27.932 9.96497 27.9476 9.8089 27.9866C9.55919 28.049 9.2938 28.1817 9.0519 28.2363C8.84901 28.2831 8.66173 28.2519 8.46664 28.2597C8.41982 28.2597 8.35744 28.3222 8.31843 28.3222C8.24039 28.3143 8.13893 28.3768 8.09991 28.2363C8.06089 28.0803 8.00631 28.0334 7.85024 28.3144C7.7566 28.4704 7.70198 28.4314 7.65516 28.3924C7.60053 28.3378 7.5693 28.1973 7.53809 28.0646C7.49907 27.9008 7.46783 27.7369 7.31957 27.9398C7.23373 28.049 7.19476 27.9554 7.17135 27.8618C7.0543 27.4326 6.81236 27.3936 6.55485 27.4248C6.2037 27.4716 5.82913 27.5652 5.47798 27.6199C5.33752 27.6433 5.21266 27.6121 5.08 27.6043C4.67423 27.5652 4.32304 27.3623 3.97189 27.1439C3.90166 27.1048 3.83929 27.0502 3.74565 27.0892C3.52716 27.1907 3.37106 27.1048 3.2306 26.9488C3.06673 26.7615 2.82485 26.8239 2.57515 26.902C2.52052 26.9176 2.45023 26.98 2.41121 26.941C2.13809 26.6678 1.71678 26.8785 1.41245 26.7147C1.16274 26.582 0.952052 26.3245 0.733557 26.0982C0.561883 25.9187 0.405819 25.7002 0.249751 25.5051C0.241948 25.4895 0.218492 25.5207 0.202885 25.5051C0.117048 25.3725 0.210662 24.9199 0.468174 24.2644C0.694472 23.6791 0.873969 23.3592 0.975413 23.3982C1.08466 23.445 1.18613 23.5309 1.29538 23.6011C1.29538 23.5465 1.3032 23.5153 1.311 23.4841Z" fill="#8ED8C8"/>
</svg>
