<svg width="154" height="179" viewBox="0 0 154 179" fill="none" xmlns="http://www.w3.org/2000/svg">
<path d="M20.3119 127.895C17.9741 133.973 15.9113 140.766 15.6913 147.312C15.5905 149.063 15.5905 151.74 15.8105 153.803C15.9388 155.371 16.2781 156.893 16.6723 158.396C17.149 159.872 17.6807 161.348 18.4692 162.696C19.9636 165.437 22.1914 167.784 24.8317 169.636C25.2351 169.902 25.6477 170.177 26.0602 170.452C26.4819 170.7 26.9128 170.92 27.2979 171.13C31.2859 173.202 35.6957 174.449 40.188 175.238C42.425 175.641 44.7169 175.907 46.9906 176.081L48.6591 176.118L49.4934 176.136L50.3185 176.063L51.9688 175.907C52.5097 175.815 53.0414 175.678 53.5823 175.559C56.5986 174.843 59.4131 173.404 61.8151 171.396C64.2263 169.398 66.2432 166.895 67.8934 164.145C69.727 161.11 71.5606 157.25 72.9266 153.546C75.0078 147.963 76.4838 142.132 77.7673 136.256C78.4091 133.313 78.9866 130.361 79.5826 127.39C80.1968 124.42 80.7377 121.45 81.627 118.442C81.7553 117.975 81.9204 117.516 82.0946 117.058C82.2412 116.609 82.4796 116.15 82.7088 115.72C83.1672 114.904 83.6714 114.262 84.1482 113.712C85.1016 112.621 85.9359 112.052 86.2293 112.025C86.3943 112.007 87.1186 111.502 87.8887 111.117C88.6496 110.714 89.4472 110.448 89.5573 110.531C89.8873 110.769 88.833 111.401 87.1828 113.043C86.3668 113.877 85.4317 114.995 84.5974 116.499C83.8915 117.892 83.4147 119.983 82.9013 122.284C82.012 126.446 81.2419 130.801 80.3526 135.073C78.6566 143.233 76.8138 151.438 73.1375 159.194C71.8357 161.944 70.0662 165.263 68.0218 168.004C66.5458 169.939 64.9322 171.8 62.9794 173.303C62.0626 174.128 60.9808 174.724 59.9632 175.412L58.313 176.237C58.0379 176.365 57.7721 176.521 57.4787 176.631L56.6077 176.943C54.3158 177.86 51.8496 178.162 49.4293 178.3C46.9722 178.291 44.6344 178.089 42.2874 177.741C39.2895 177.328 36.1999 176.686 33.3579 175.861C31.4876 175.274 29.6265 174.66 27.848 173.789C26.9403 173.404 26.0877 172.891 25.2168 172.414C24.3825 171.873 23.5207 171.378 22.7414 170.745C21.137 169.563 19.6794 168.151 18.4325 166.565C17.1765 164.988 16.1222 163.237 15.3521 161.367C14.6187 159.597 14.0594 157.782 13.7477 155.93C13.546 155.013 13.491 154.069 13.3627 153.134C13.326 152.19 13.2251 151.245 13.2618 150.292C13.2343 148.312 13.4268 146.276 13.6469 144.232C13.9311 142.197 14.2703 140.143 14.7562 138.163C15.3613 135.531 16.1405 132.955 17.0115 130.416C17.8641 127.876 18.8176 125.373 20.0644 122.88C21.3479 120.432 23.0165 118.204 24.9234 116.196C26.867 114.225 29.104 112.575 31.4693 111.172C36.9517 107.817 43.3968 106.139 49.7776 105.286C56.1952 104.452 62.6586 104.489 68.9111 104.81C72.7983 105.021 77.4006 105.552 81.8379 106.432C84.4324 106.937 86.431 107.413 87.9162 107.789C88.668 107.982 89.2455 108.147 89.7864 108.303C90.4099 108.477 90.8591 109.009 90.9783 109.467C91.125 109.935 91.0424 110.356 90.9049 110.668C90.5841 111.31 90.144 111.42 90.0523 111.438C89.924 111.447 90.0248 111.374 90.2357 111.145C90.4465 110.925 90.7399 110.402 90.5565 109.815C90.474 109.531 90.2632 109.238 89.9423 109.073C89.5664 108.917 89.3831 108.981 89.1172 108.944C88.1454 108.88 86.871 108.761 85.4592 108.624C83.4606 108.44 81.0677 108.064 76.6855 107.468C70.5705 106.662 64.4738 106.35 58.5513 106.625C53.8024 106.818 49.3009 107.395 44.2219 108.459C43.3142 108.688 42.37 108.917 41.4257 109.201C40.4997 109.522 39.5554 109.788 38.6753 110.155C34.6506 111.732 30.7725 113.813 27.6096 116.82L26.4269 117.947L25.3451 119.185L24.8042 119.799C24.6392 120.019 24.4833 120.249 24.3183 120.469L23.3465 121.816C23.044 122.284 22.7781 122.77 22.4939 123.256C22.2189 123.742 21.9072 124.209 21.6871 124.732C21.2287 125.768 20.7245 126.767 20.3119 127.895Z" fill="#8ED6C7"/>
<path d="M49.7589 100.419C50.474 100.758 50.3181 101.813 49.5297 101.914C42.8371 102.739 32.4774 103.793 20.3482 99.0256C1.56314 91.6454 -5.12027 68.7073 6.578 61.5196C19.6515 53.4885 29.2778 73.1721 33.4308 81.2307C37.2264 88.565 41.1227 96.3394 49.7589 100.419Z" fill="#8ED6C7"/>
<path d="M45.4219 103.012C43.6709 103.067 41.9106 103.095 40.1871 102.985C38.6469 102.884 37.1433 102.719 35.5756 102.737C35.1722 102.747 34.7322 102.673 34.3104 102.637C33.5403 102.572 32.7794 102.481 32.0184 102.38C31.6701 102.334 31.2942 102.371 30.9733 102.288C29.4148 101.894 27.8654 101.546 26.2793 101.271C25.1058 100.794 23.9048 100.555 22.6855 100.216C21.4845 99.8403 20.2927 99.4003 19.0917 99.006C18.7708 98.9052 18.4132 98.7768 18.1199 98.6026C16.323 97.6125 14.5627 96.5857 12.8667 95.403C11.0606 94.1379 9.43785 92.6068 8.09017 90.8833C7.37507 89.9665 6.60497 89.0313 5.90821 88.0687C5.06476 86.9319 4.30382 85.7401 3.59789 84.5024C2.61692 82.6963 1.79181 80.8077 1.13172 78.855C0.700825 77.5439 0.361613 76.1871 0.169086 74.7936C-0.00510408 73.4 -0.0601102 71.9698 0.0774086 70.5396C0.233263 69.0819 0.691658 67.6334 1.33341 66.2857C1.98434 64.9472 2.85529 63.6912 3.94627 62.6827C5.02808 61.6559 6.30242 60.8675 7.61344 60.2349C9.60288 59.3273 11.8857 58.7772 14.1227 59.0981C16.2129 59.3364 18.1749 60.1707 19.8893 61.2984C22.4288 62.9944 24.5099 65.2131 26.3435 67.5509C28.1771 69.8979 29.7723 72.4007 31.2575 74.9494C31.9726 76.1779 32.6785 77.3972 33.3478 78.6349C33.687 79.2492 34.0079 79.8818 34.3196 80.5052C35.4931 82.8247 36.6391 85.1441 37.9318 87.3444C39.7837 90.489 41.9381 93.4411 44.6243 95.8156C46.137 97.1541 47.8239 98.3276 49.6759 99.116C50.1893 99.3452 50.3084 99.5194 50.0242 99.6203C49.5292 99.7945 49.0891 100.015 48.0715 99.7486C47.4114 99.5103 46.7696 99.3177 46.0912 98.7585C45.6053 98.3643 45.0552 98.0251 44.5693 97.6125C44.3218 97.4108 44.0743 97.2091 43.8359 96.9983C43.6159 96.7691 43.405 96.5399 43.2216 96.2832C43.1208 96.1456 42.9283 95.9806 42.7632 95.8523C39.9487 93.4594 37.9318 90.269 36.1623 87.0786L34.4021 83.9431L33.3295 81.8804C32.8161 80.8811 32.3393 79.8542 31.8076 78.8733C31.4042 78.1307 30.955 77.4431 30.7899 76.6638C30.7533 76.4988 30.5332 76.1137 30.4049 76.0037C29.9282 75.582 29.6164 74.9677 29.2589 74.3627C28.3238 72.7308 27.352 71.1172 26.2702 69.5862C25.4634 68.4585 24.5833 67.3767 23.6481 66.3682C22.1813 64.8189 20.5677 63.4162 18.7891 62.3527C17.3131 61.4542 15.7087 60.7575 14.0493 60.5649L13.4717 60.5191C13.2792 60.5283 13.0867 60.5374 12.8942 60.5283C12.5458 60.5099 12.1882 60.5558 11.8307 60.5924C11.4731 60.6108 11.1339 60.6841 10.8039 60.7116C10.428 60.73 10.1071 60.8033 9.7954 60.9133C9.48369 61.0142 9.19949 61.1517 8.91528 61.3809C8.75943 61.5092 8.5394 61.6284 8.30103 61.7384C8.06267 61.8668 7.8243 61.9951 7.5951 62.1143C7.00836 62.3894 6.46745 62.7011 5.91737 63.0219C5.61483 63.242 5.29395 63.4345 5.01892 63.682C4.76222 63.9479 4.48718 64.2229 4.28548 64.5805C4.08379 64.9747 3.67123 65.4148 3.38703 65.8273C2.7086 66.6983 2.23187 67.7343 1.92016 68.8252C1.58095 69.9071 1.47093 71.0622 1.43426 72.199C1.37009 75.3161 2.20437 78.3874 3.41453 81.2478C3.91877 82.3571 4.43217 83.4756 5.06476 84.5207C6.96252 87.8212 9.41952 90.8007 12.3533 93.2577C12.9125 93.7528 13.5268 94.2112 14.1502 94.6146C15.617 95.4947 17.0381 96.4115 18.5599 97.1908C19.0092 97.4475 19.4859 97.64 19.9535 97.8509C20.421 98.0617 20.8978 98.2451 21.3928 98.4101L22.8597 98.9052L24.3541 99.3177C24.8125 99.4461 25.2892 99.5469 25.7476 99.6753C28.9197 100.656 32.211 101.06 35.4931 101.335C38.1518 101.564 40.8288 101.665 43.5242 101.591C44.5602 101.564 45.6053 101.518 46.6413 101.454L48.1998 101.353L49.4833 101.252C49.5017 101.243 49.5017 101.225 49.52 101.206C49.5933 101.105 49.6209 100.977 49.6025 100.821C49.5933 100.684 49.6209 100.464 50.0059 100.5C50.3268 100.537 50.7668 101.005 50.5927 101.665C50.5193 101.986 50.2443 102.325 49.85 102.481C49.7584 102.517 49.6392 102.545 49.5658 102.563L49.3825 102.6C49.2541 102.618 49.1258 102.637 48.9974 102.655C47.8056 102.792 46.6138 102.884 45.4128 102.976L45.4219 103.012Z" fill="#8ED6C7"/>
<path d="M34.4672 41.6242C33.9997 41.0283 33.5963 40.3132 32.982 39.7998C32.817 39.6623 32.6611 39.3781 32.5603 39.1489C32.2578 38.4521 31.9002 37.7829 31.5152 37.1045C31.4601 37.0036 31.4143 36.8844 31.3501 36.8019C30.6442 35.9676 30.3325 34.9133 29.8099 33.9782C29.4615 33.3089 29.214 32.5847 28.7556 31.9613C28.5172 31.6037 28.3522 31.127 28.178 30.6961C27.9122 30.0452 27.6921 29.3759 27.4813 28.7158L27.1604 27.7165L26.8945 26.6989C26.7845 26.2771 26.7112 25.9013 27.032 25.7637C27.2062 25.6812 27.2429 25.3053 27.4813 25.232C28.0955 25.0303 28.7189 25.4429 29.0948 26.4238C29.2507 26.8639 29.3974 27.3315 29.5807 27.7715L30.1125 29.0275C30.305 29.4401 30.47 29.8618 30.5617 30.3294C30.635 30.6594 30.8184 31.017 31.0018 31.3378C31.4968 32.2546 31.8635 33.2173 32.3036 34.1524C32.4411 34.4549 32.5603 34.785 32.7528 35.0417C33.2479 35.7384 33.6788 36.4627 34.1372 37.187C34.3572 37.5353 34.5681 37.8562 34.7606 38.2321C34.9623 38.608 35.274 38.9564 35.5307 39.3139C36.2275 40.2674 36.9976 41.1475 37.6485 42.1468C38.6478 43.1003 39.3904 44.3654 40.5181 45.1997C40.8664 45.4564 41.224 45.814 41.499 46.2265C42.1408 47.1892 42.1499 47.3634 41.3523 47.5284C41.1598 47.565 40.9489 47.5742 40.7289 47.5651C40.4264 47.5467 40.1422 47.4275 39.7846 47.07C39.2804 46.5749 38.712 46.1624 38.1619 45.7315C37.731 45.3831 37.2909 45.0714 36.9426 44.5671C36.8234 44.3838 36.6309 44.2279 36.475 44.0721C35.7141 43.3478 35.0356 42.5594 34.4672 41.6242Z" fill="#8ED6C7"/>
<path d="M22.8877 23.4737C22.1909 23.4279 21.2099 23.2445 20.2748 22.9695C19.7889 22.8228 19.3122 22.6578 18.8446 22.4836C18.4962 22.3644 18.1662 22.2269 17.9278 22.0069C17.717 21.8052 17.4327 21.7135 17.1119 21.6677C16.9102 21.6402 16.681 21.5943 16.4976 21.5118C15.6542 21.1084 14.8566 20.6317 14.059 20.1458C13.5364 19.8157 13.0413 19.4674 12.6654 19.0273C12.4271 18.7339 12.1154 18.6422 11.8036 18.4956C11.4186 18.3305 11.3361 18.1839 11.2811 17.8171C11.2444 17.5879 11.1711 17.4871 10.9969 17.4871C10.8318 17.4871 10.7035 17.5329 10.4468 17.2579C10.0984 16.827 9.75003 16.3961 9.48416 15.8644C9.21829 15.351 8.99826 14.7367 9.02577 14.0675C9.00743 13.6916 9.13578 13.0132 9.38331 13.3065C9.39248 13.3249 9.44749 13.2882 9.45666 13.2698C9.64919 12.7289 9.99756 12.2981 10.3826 11.9405C10.6852 11.3538 11.4003 11.1521 11.8862 10.7945C11.9778 10.7212 12.1795 10.6387 12.262 10.6478C12.7296 10.6753 13.3164 10.2994 13.7839 10.4095C14.0681 10.4736 14.2698 10.4003 14.4807 10.2903C14.6732 10.1803 14.8932 10.1253 15.2141 10.1528C16.736 10.2811 18.1203 11.0054 19.2297 11.9222C19.9356 12.4997 20.559 13.169 21.0724 13.8841C21.3016 14.205 21.5216 14.5259 21.7508 14.8376L21.815 14.9201C21.8059 14.9292 21.8425 14.8926 21.7967 14.9476C21.7508 15.0026 21.7325 15.0118 21.705 15.0576C21.65 15.1309 21.6408 15.1859 21.6408 15.1859C21.6317 15.1768 21.54 15.1493 21.5125 15.1951C21.5125 15.2135 21.4483 15.2318 21.3841 15.2593C21.3016 15.2868 21.3566 15.2685 21.3383 15.2685C21.3383 15.2501 21.2649 15.1493 21.2191 15.0759L20.8799 14.6084C20.4123 13.9758 19.9448 13.334 19.523 12.6648C19.0371 11.8855 18.6612 11.042 18.3862 10.1803C18.2762 9.84105 18.1753 9.53851 18.0287 9.21763C17.4327 7.95246 17.1944 6.40307 17.6436 4.94538C17.8453 4.21194 18.267 3.57018 18.6796 2.9651C18.8904 2.66256 19.1747 2.3967 19.4222 2.11249C19.7064 1.86496 20.0089 1.61743 20.339 1.41573C20.5498 1.30572 20.779 1.23237 20.9991 1.14986C21.2283 1.08568 21.4666 1.07652 21.6867 1.01234C21.9067 0.920664 22.1451 0.957329 22.3743 0.94816C22.4934 0.94816 22.6035 0.948164 22.7226 0.966501C22.8327 1.00317 22.9518 1.04901 23.0618 1.09485C23.2085 1.17736 23.4102 1.20487 23.5753 1.28738C23.7403 1.36989 23.9236 1.4524 24.0795 1.5074C24.4645 1.62659 24.7396 1.90163 25.0605 2.13083C25.3447 2.38753 25.5739 2.69924 25.8122 3.00178C26.2248 3.64353 26.5548 4.32196 26.8024 5.01872C26.9949 5.45878 27.0957 5.93551 27.2149 6.39391C27.3433 6.8523 27.4258 7.31987 27.5175 7.78744C27.7375 8.72256 27.8933 9.66686 28.0584 10.6112C28.0767 10.7853 28.1042 10.9595 28.1134 11.1337C28.1225 11.6746 28.1317 12.243 28.1409 12.7839L27.545 12.7473C27.6091 12.5181 27.6642 12.2797 27.7008 12.0505C27.7558 11.6838 27.82 11.3171 27.8842 10.9504C27.9759 10.5928 28.0767 10.2261 28.1959 9.86856C28.2784 9.62102 28.3517 9.35515 28.4434 9.10762C28.6268 8.61255 28.7551 8.0808 29.0485 7.62241C29.186 7.39321 29.3327 7.16401 29.4886 6.96231C29.6719 6.76979 29.8828 6.5956 30.0936 6.43975C30.2678 6.18305 30.497 5.96302 30.7262 5.74299L31.0654 5.41295L31.4597 5.13791C31.5972 5.04623 31.7255 4.92705 31.8722 4.8537C32.0281 4.78036 32.1748 4.71617 32.3123 4.69784C33.0366 4.57865 33.5591 4.47782 34.3017 4.42281C34.7051 4.39531 35.2827 4.652 35.6677 5.01872C35.8053 5.15624 35.9519 5.2846 36.0345 5.44045C36.0986 5.59631 36.1353 5.76132 36.117 5.91717C36.1078 5.96301 36.1353 6.07302 36.172 6.17387C36.1903 6.28389 36.2086 6.39391 36.2362 6.43975C36.337 6.63228 36.4012 6.86147 36.392 7.06316C36.3828 7.27402 36.3553 7.47572 36.3553 7.66825C36.3553 8.22749 36.2637 8.61254 36.0711 9.0251C36.007 9.16262 35.9611 9.456 35.9795 9.62102C36.0986 10.6845 35.9061 11.8488 35.5577 12.9765C35.026 14.8467 34.045 16.6345 32.6973 18.083C32.5231 18.2939 32.3123 18.4864 32.1473 18.6973C31.8722 19.0548 31.5605 19.3849 31.203 19.6599C30.8546 19.9533 30.497 20.2283 30.1028 20.4575C29.8003 20.6409 29.5344 20.8884 29.2319 21.0626C28.9018 20.9801 28.7918 21.2826 28.5718 21.411C28.2692 21.5943 27.9484 21.6768 27.6091 21.8602C27.1966 22.0894 26.7107 22.2911 26.234 22.4286C25.4363 22.6853 25.0238 22.6303 24.8313 22.2819C24.8038 22.2269 24.7671 22.1627 24.7487 22.0986C24.7029 21.9244 24.8038 21.7868 25.143 21.6218C25.5555 21.411 25.9956 21.1909 26.4081 21.0442C26.8574 20.8884 27.2974 20.705 27.7008 20.4758C28.095 20.2283 28.4801 19.9808 28.8468 19.7241C29.947 18.9448 30.8913 18.0463 31.7805 17.047C32.0647 16.7262 32.3398 16.3869 32.569 16.0202C32.8257 15.6718 33.0274 15.2868 33.2474 14.9109C33.6416 14.1866 33.8983 13.389 34.1275 12.5914C34.3292 11.8763 34.4759 11.1337 34.6501 10.4278C34.806 9.7952 34.916 9.15345 34.9985 8.50253C35.026 8.19082 35.0993 7.82411 35.0993 7.55824C35.1085 7.29237 35.136 7.01732 35.0718 6.77896C35.0627 6.51309 34.9251 6.29306 34.806 6.1097C34.5493 5.79799 34.1917 5.69715 33.8158 5.64215C33.6141 5.65131 33.4216 5.63297 33.2016 5.69715C32.9907 5.70632 32.7707 5.8255 32.5507 5.89885C32.4498 5.91718 32.3306 5.99052 32.2939 6.06386C32.0281 6.54059 31.533 6.83397 31.1663 7.3107C30.2128 8.52087 29.5802 10.0977 29.1677 11.7205L28.8926 12.9856V12.9948C28.7643 13.5816 28.1776 13.9574 27.5908 13.8291C27.1141 13.7191 26.7749 13.3157 26.7382 12.8481C26.6007 11.1887 26.4448 9.52933 26.0414 7.95245C25.9222 7.31986 25.6839 6.74229 25.5097 6.13721C25.2713 5.57796 25.0788 4.97287 24.7946 4.46864C24.7121 4.30362 24.6296 4.14776 24.5379 3.98274C24.437 3.84522 24.327 3.71688 24.217 3.57936C24.0153 3.29516 23.7678 3.1118 23.5386 2.90093C23.0985 2.57089 22.6585 2.31419 22.1909 2.33253C22.0809 2.31419 21.9617 2.30501 21.8425 2.35085C21.7233 2.37836 21.6042 2.38753 21.485 2.4242C21.2558 2.56172 20.9991 2.61673 20.7882 2.82759C20.5957 2.97427 20.394 3.12096 20.229 3.34099C20.0548 3.53351 19.8714 3.72604 19.7247 3.97358C19.4038 4.44114 19.138 4.8812 18.9913 5.36711C18.6704 6.33891 18.7163 7.42072 19.0188 8.49337C19.0646 8.64006 19.1105 8.78673 19.1838 8.92425C19.6055 9.85938 20.1281 10.767 20.7149 11.6655C21.0082 12.1147 21.32 12.5639 21.65 13.004L22.1542 13.6732L22.4293 14.0308L22.5851 14.2416L22.686 14.3883C22.7135 14.4342 22.7501 14.5075 22.7868 14.5717L22.8327 14.6725C22.8235 14.645 22.8877 14.8192 22.906 14.9384C22.9243 15.0759 22.9335 15.2226 22.906 15.3693C22.8877 15.5068 22.8418 15.6352 22.7868 15.7452C22.741 15.8185 22.7868 15.7819 22.6126 16.0019C22.4659 16.1761 22.2367 16.3319 21.9984 16.3961C21.8792 16.4328 21.7692 16.442 21.6683 16.4511C21.6042 16.4511 21.5766 16.4511 21.5308 16.4511C21.4483 16.442 21.3658 16.4328 21.2833 16.4053C21.2008 16.3778 21.1183 16.3503 21.0449 16.3136L20.9532 16.2586C20.8891 16.2219 20.7974 16.1577 20.7699 16.1211L20.6965 16.0569C20.614 15.9744 20.5865 15.9377 20.5498 15.901L20.394 15.7085L20.1373 15.3876L19.6514 14.7917C19.3213 14.4067 18.9821 14.0491 18.6246 13.7191C17.9095 13.059 17.1302 12.5089 16.3143 12.188C15.2141 11.7388 14.0681 11.7113 12.9313 12.1697C12.4912 12.3439 11.9687 12.6373 11.6203 12.9031C11.2536 13.1782 11.006 13.4715 10.9144 13.7557C10.676 14.3517 11.2077 15.3693 11.9228 16.2769C12.1245 16.552 12.3996 16.7995 12.6654 17.047C14.0315 18.2664 15.6817 19.2565 17.3961 20.0541C17.8086 20.2558 18.1937 20.4483 18.4596 20.76C18.5879 20.9067 18.8996 21.0809 19.1655 21.1726C19.9173 21.4568 20.7057 21.7318 21.5125 21.7685C22.0442 21.796 22.5026 21.9519 22.9977 21.9977C23.0343 21.9977 23.0894 22.0711 23.071 22.0986C22.9885 22.2177 23.1077 22.2636 23.3094 22.2544C23.7036 22.2544 24.0795 22.0802 24.4554 22.1261C24.9229 22.1811 24.6662 22.5111 24.8863 22.667C25.1521 22.832 24.6112 23.0887 24.5746 23.2996C24.5654 23.3362 24.3087 23.4096 24.1712 23.4187C23.8595 23.4646 23.5478 23.4921 22.8877 23.4737Z" fill="#8ED6C7"/>
<path d="M21.6953 21.6389C21.6953 21.6389 23.2814 27.8547 27.8378 27.1029C31.5875 26.4795 31.1474 21.4555 30.5149 19.5027C27.627 22.0514 21.6953 21.6389 21.6953 21.6389Z" fill="#8ED6C7"/>
<path d="M23.0624 21.7124C23.0807 21.8591 23.0991 22.0975 23.1357 22.3267C23.1541 22.4458 23.1632 22.5742 23.1908 22.6934C23.2091 22.7759 23.2366 22.8584 23.1541 22.9776C23.0716 23.0876 23.1266 23.1426 23.2274 23.1793C23.2916 23.1976 23.3649 23.2251 23.3833 23.271C23.4658 23.4818 23.5116 23.7202 23.6125 23.9219C23.6766 24.0594 23.7317 24.1969 23.695 24.3803C23.6766 24.5086 23.805 24.5086 23.915 24.5178C24.0617 24.527 24.0434 24.582 23.8967 24.7837C23.805 24.912 23.8233 24.9395 23.9333 24.8845C24.0434 24.8295 24.1534 24.7562 24.1992 24.8295C24.3459 25.0312 24.5109 25.2146 24.6759 25.3796C24.7218 25.4346 24.8501 25.4621 24.6209 25.6821C24.6118 25.6913 24.5934 25.728 24.5934 25.7371C24.6668 25.838 24.7676 25.9113 24.8501 25.9938C25.0977 25.8747 25.0977 26.1772 25.281 26.1405C25.3177 26.1314 25.3544 26.1589 25.3544 26.2047C25.3452 26.4431 25.5652 26.3514 25.5836 26.5622C25.6019 26.6998 25.6753 26.6723 25.7578 26.5806C25.8403 26.4981 25.9045 26.4614 25.9686 26.4797C26.2895 26.6081 26.6379 26.6081 26.9679 26.6447C27.1788 26.6447 27.3988 26.6264 27.6189 26.6723C28.0222 26.7364 28.4256 26.6264 28.7832 26.4706C29.0032 26.3972 29.2232 26.3055 29.4708 26.223C29.5625 26.1772 29.6266 26.1222 29.6633 26.0213C29.9108 25.2512 30.1584 24.6461 30.3601 23.9219C30.3876 23.8119 30.5251 23.7294 30.5159 23.6102C30.5067 23.491 30.4701 23.3901 30.5526 23.2801C30.6168 23.2068 30.5893 23.0968 30.5342 23.0051C30.2775 22.62 30.3967 22.2533 30.4151 21.8774C30.4242 21.6299 30.5067 21.3732 30.4792 21.1257C30.4701 20.869 30.3784 20.6306 30.3142 20.3831C30.3051 20.3372 30.2775 20.3005 30.2775 20.2547C30.2775 20.0438 30.3234 19.8147 30.2317 19.6313L30.2042 19.5763L30.6993 19.7138C30.5709 19.8605 30.4609 20.0255 30.2959 20.1447C30.2317 20.1905 30.1767 20.2547 30.1309 20.3097C29.92 20.5389 29.7183 20.8323 29.3149 20.6764L28.8474 20.9148C28.774 20.9606 28.6915 21.0432 28.609 21.0065C28.3706 20.9148 28.2514 21.0065 28.1598 21.2723C28.1139 21.419 27.9856 21.4649 27.8847 21.5474C27.8114 21.6024 27.738 21.6482 27.628 21.5015C27.5913 21.4557 27.4997 21.4465 27.4905 21.4924C27.4172 21.6482 27.2888 21.5657 27.1971 21.6116C27.0596 21.6757 26.9404 21.6941 26.7937 21.5841C26.7479 21.5474 26.6654 21.5749 26.6287 21.6299C26.4087 21.9874 26.0878 22.0791 25.7669 22.1708C25.2444 22.2992 24.7035 22.3817 24.1625 22.3633C24.0892 22.3633 24.0067 22.3633 23.9425 22.4C23.7042 22.5284 23.4566 22.51 23.2091 22.51C23.1082 22.51 23.0166 22.5467 22.9157 22.565C22.8424 22.3358 22.7782 22.5559 22.714 22.565C22.6223 22.5834 22.5307 22.5008 22.4206 22.5467C22.2923 22.6017 22.1456 22.5559 22.0081 22.5375C21.8889 22.5284 21.8064 22.4734 21.7514 22.3725C21.7422 22.345 21.7239 22.3175 21.7239 22.29C21.7972 22.2625 21.8706 22.2166 21.9072 22.1616C21.9898 22.0425 21.9622 21.9233 21.8981 21.8408C21.8614 21.7858 21.8064 21.7399 21.7514 21.6941C21.6872 21.6391 21.623 21.5932 21.6597 21.529C21.6689 21.4924 21.7422 21.4741 21.7605 21.4557C21.7789 21.4374 21.8064 21.4282 21.8247 21.419C21.9531 21.3732 22.0906 21.2815 22.2098 21.3182C22.4756 21.4099 22.7324 21.2815 22.9799 21.2173C23.3558 21.1165 23.7133 21.0248 24.0892 21.0065C24.3367 20.9973 24.5751 20.9515 24.8226 20.9331C25.0518 20.9056 25.2719 20.7956 25.4919 20.7223C25.6936 20.6581 25.8861 20.5664 26.0878 20.5573C26.4454 20.5389 26.7754 20.4014 27.1238 20.3464C27.2155 20.3281 27.3071 20.3097 27.3805 20.2639C27.6555 20.0989 27.9031 19.9155 28.2239 19.8605C28.2606 19.8605 28.2973 19.8513 28.3064 19.8055C28.3339 19.5029 28.5265 19.5121 28.6732 19.4388C29.0399 19.2187 29.3974 18.9987 29.7 18.742L29.7825 18.6778L31.0385 17.6877L31.5336 19.1546C31.7444 19.7871 31.8728 20.3831 31.9461 21.0065C32.0011 21.419 32.0745 21.8316 31.992 22.2442C31.9461 22.5009 32.0011 22.7392 31.9828 22.9959C31.9553 23.4543 31.8453 23.9127 31.7261 24.3803C31.5336 25.1687 31.2218 26.003 30.6168 26.7181C30.5709 26.7639 30.5434 26.8189 30.5067 26.8831C30.0759 27.6624 29.1591 28.13 28.3431 28.2583C27.5638 28.4233 26.8029 28.4508 26.0053 28.3133C25.4827 28.1666 24.9785 27.9649 24.5476 27.6716C24.1809 27.4515 23.86 27.1857 23.5666 26.9014C23.4199 26.7456 23.2733 26.5897 23.1174 26.4339C22.9891 26.2689 22.879 26.0855 22.7965 25.893C22.7507 25.7738 22.6773 25.6821 22.6132 25.5721C22.2923 25.0587 22.0356 24.527 21.8247 23.9769C21.7697 23.8485 21.7606 23.7019 21.9072 23.5277C21.9714 23.436 21.9806 23.326 21.9531 23.2526C21.8889 23.0234 21.8706 22.7851 21.6964 22.6017C21.5864 22.4825 21.6322 22.3083 21.623 22.1616C21.623 22.1525 21.678 22.1158 21.7055 22.1066C21.8247 22.0883 21.8522 22.0425 21.8431 21.9874C21.8156 21.8866 21.6505 21.8133 21.7514 21.6849C21.8339 21.6299 21.8889 21.7766 21.9897 21.8041C22.0814 21.8591 22.2556 21.8133 22.2464 22.0058C22.1914 22.1891 22.4298 22.2166 22.6315 21.8316C22.6773 21.7399 22.6957 21.6391 22.7048 21.5382L22.714 21.4099H22.7507C22.7965 21.4099 22.8424 21.4099 22.8882 21.3915C22.9157 21.3824 22.9524 21.4282 22.9616 21.4465C23.0074 21.5199 23.0166 21.5841 23.0624 21.7124Z" fill="#8ED6C7"/>
<path d="M22.6211 43.6326C21.4751 43.5592 20.265 43.385 19.0456 43.22C18.7156 43.165 18.2205 43.0092 17.8355 42.8075C17.2854 42.5049 16.5978 42.1566 16.2219 41.2673C16.0569 40.8272 16.0752 40.3413 16.1944 39.9562C16.2586 39.7729 16.3228 39.5804 16.4053 39.4153L16.6803 38.9753C16.7903 38.7828 16.9462 38.6636 17.047 38.5169C17.5788 37.8018 18.3122 37.2334 19.1006 36.8483C19.8983 36.4633 20.7509 36.2524 21.5852 36.1149C22.7678 35.9132 23.9505 35.9865 25.1148 36.0232C25.7657 36.0324 26.5175 36.1974 27.2051 36.3441C29.277 36.8208 31.2481 37.5451 33.1551 38.416C33.751 38.6819 34.2461 38.9569 34.2185 39.1861C34.2094 39.3145 34.6403 39.6354 34.5944 39.782C34.4569 40.1671 33.5768 40.0296 32.0824 39.452C31.4132 39.1953 30.7347 38.9203 30.0471 38.6911C28.7361 38.251 27.3976 37.976 26.0591 37.6184C25.5824 37.4992 24.9773 37.4351 24.4455 37.4076C22.9145 37.3159 21.4018 37.3801 20.0541 37.9118C19.6232 38.0768 19.1923 38.2968 18.8531 38.5811C17.973 39.287 17.1112 40.5063 17.6246 40.928C17.8721 41.2306 18.4039 41.4506 18.9356 41.6523C19.4949 41.8723 20.1825 41.9548 20.8242 42.0465C22.557 42.2757 24.3447 42.2757 26.1324 42.3399C28.2136 42.2207 30.4139 42.2757 32.4858 41.964C33.1276 41.8632 33.8977 41.799 34.6494 41.7898C36.4188 41.7623 36.6114 41.8082 35.9788 42.3032C35.8229 42.4224 35.6212 42.5416 35.392 42.6516C35.062 42.8166 34.6586 42.9175 33.9068 42.9908C32.8617 43.0917 31.8257 43.2567 30.8173 43.3942C30.0013 43.5042 29.2312 43.6142 28.3236 43.6051C28.0027 43.6051 27.6452 43.6326 27.3151 43.6601C25.8116 43.7793 24.2622 43.7976 22.6211 43.6326Z" fill="#8ED6C7"/>
<path d="M39.9765 32.7698C40.0957 31.9905 40.2607 31.1196 40.0498 30.3586C40.004 30.1569 40.0132 29.8361 39.9673 29.5977L39.9032 29.0476L39.7473 28.5342C39.674 28.1675 39.4264 27.8925 39.2522 27.5624C39.1881 27.4707 39.1239 27.3882 39.0505 27.3149C38.8672 27.1407 38.7022 27.0582 38.6013 27.0032C38.528 27.0123 38.6013 26.9848 38.4913 27.0307C38.2713 27.1682 37.9596 27.6816 37.8037 28.1858C37.5562 28.9101 37.3178 29.7077 37.2536 30.5237C37.217 30.9821 37.1069 31.5138 37.0336 32.0089C36.7952 33.5124 36.6302 35.0343 36.5019 36.5653C36.4652 37.042 36.4193 37.4546 36.1993 37.5004C36.0801 37.5279 35.9701 37.913 35.8143 37.9313C35.4109 37.968 35.1267 37.2896 35.1633 36.0427C35.1817 35.4835 35.2367 34.9151 35.2825 34.3558C35.3742 33.2832 35.4017 32.2014 35.6951 31.1379C35.7959 30.762 35.8509 30.2853 35.9334 29.8544C36.0343 29.2401 36.1901 28.6351 36.401 28.03C36.621 27.4341 36.8594 26.829 37.3636 26.2422C37.5287 26.0589 37.7487 25.8663 38.0512 25.7563C38.3446 25.628 38.7113 25.6372 38.9955 25.7197C39.7473 25.9672 40.0773 26.4348 40.4166 26.8657L40.8658 27.5716C40.9941 27.8191 41.0766 28.085 41.1775 28.3417C41.2875 28.5892 41.3425 28.8368 41.3792 29.0843C41.425 29.3318 41.4892 29.5885 41.4892 29.8452C41.4984 30.377 41.5717 30.9454 41.5259 31.4955C41.4434 32.9348 41.1317 34.3375 40.6091 35.6485C40.1782 37.2437 39.2981 38.7198 38.6655 40.2233C38.473 40.6909 38.1704 41.2134 37.822 41.6902C36.9694 42.7903 36.8136 42.8453 36.7586 42.1761C36.7402 42.0202 36.7494 41.8277 36.7677 41.626C36.7861 41.3326 36.9052 41.0484 37.1803 40.5534C37.5745 39.8658 37.8587 39.1415 38.1246 38.4356C38.3354 37.8672 38.5188 37.3171 38.803 36.7212C38.9039 36.5103 38.9864 36.2536 39.0597 36.0244C39.3806 34.9518 39.6831 33.8975 39.9765 32.7698Z" fill="#8ED6C7"/>
<path d="M107.58 122.414L146.04 120.855C146.04 120.855 147.075 132.288 136.514 131.939C125.943 131.591 128.611 121.635 128.611 121.635" fill="#8ED6C7"/>
<path d="M131.536 119.958C133.497 119.857 135.606 119.848 137.586 119.49C138.118 119.398 138.943 119.398 139.594 119.417C141.547 119.472 143.491 119.499 145.507 119.408C145.663 119.408 145.828 119.408 145.984 119.398H146.067C146.818 119.389 147.433 119.976 147.479 120.709C147.488 120.92 147.488 121.058 147.506 121.204C147.772 124.239 146.938 127.393 144.884 129.969C144.187 130.886 143.215 131.601 142.207 132.16C141.712 132.463 141.153 132.609 140.621 132.848C140.089 133.068 139.539 133.141 138.989 133.306C137.77 133.59 136.303 133.563 135.001 133.379C133.03 133.114 130.885 132.408 129.28 130.794C128.464 130.024 127.905 129.016 127.502 128.016C127.135 126.999 126.952 125.953 126.906 124.936C126.851 123.671 127.062 122.598 127.502 122.515C127.74 122.46 128.088 121.535 128.418 121.571C128.822 121.626 129.079 122.039 129.244 122.736C129.418 123.432 129.491 124.45 129.739 125.651C129.959 126.724 130.344 127.723 131.013 128.484C131.673 129.19 132.553 129.648 133.525 129.987C134.038 130.107 134.552 130.244 135.084 130.354C135.634 130.409 136.193 130.528 136.752 130.592C137.146 130.62 137.596 130.611 138.054 130.592C138.503 130.556 138.925 130.409 139.347 130.327C140.483 129.96 141.547 129.501 142.354 128.685C143.17 127.888 143.811 126.861 144.242 125.688C144.545 124.954 144.728 124.12 144.811 123.331C144.857 122.543 144.866 121.672 144.802 120.957L146.094 122.085C144.692 122.167 143.289 122.231 141.877 122.286C140.786 122.323 139.732 122.387 138.622 122.378C137.476 122.369 136.248 122.497 135.056 122.561C131.902 122.726 128.758 122.983 125.586 123.001C121.918 123.405 118.031 123.267 114.364 123.771C113.227 123.927 111.87 124.01 110.532 123.964C107.415 123.836 107.076 123.698 108.231 122.791C108.506 122.57 108.872 122.36 109.285 122.158C109.872 121.874 110.578 121.7 111.898 121.617C113.731 121.498 115.538 121.232 117.307 120.994C118.728 120.801 120.076 120.59 121.653 120.581C122.221 120.581 122.835 120.499 123.413 120.434C126.044 120.15 128.703 119.976 131.536 119.958Z" fill="#8ED6C7"/>
<path d="M153.576 111.667L122.047 112.703C122.047 112.703 117.693 103.288 125.43 101.876C133.012 100.491 133.892 112.272 133.892 112.272" fill="#8ED6C7"/>
<path d="M133.187 113.822C131.519 113.904 129.722 113.886 128.035 114.216C127.576 114.308 126.88 114.289 126.329 114.262C124.927 114.198 123.533 114.152 122.094 114.17H122.03C121.443 114.179 120.93 113.831 120.71 113.317C120.572 113.006 120.48 112.758 120.37 112.474C120.269 112.217 120.214 111.915 120.104 111.686C119.609 110.494 119.344 109.21 119.307 107.853C119.279 106.506 119.509 105.03 120.26 103.664C120.361 103.416 120.535 103.196 120.71 102.985C120.884 102.774 121.049 102.554 121.241 102.353C121.663 102.032 122.076 101.628 122.543 101.399C123.478 100.867 124.404 100.602 125.376 100.317C126.458 100.033 127.952 100.125 129.19 100.657C131.088 101.445 132.353 102.994 133.169 104.498C133.994 106.029 134.48 107.624 134.819 109.21C135.03 110.2 135.103 111.081 134.691 111.255C134.471 111.356 134.379 112.181 134.067 112.245C133.251 112.392 132.619 111.209 131.949 109.036C131.638 108.064 131.308 107.092 130.849 106.231C130.4 105.415 129.85 104.7 129.217 104.186C128.594 103.655 127.934 103.343 127.164 103.114C126.614 102.958 125.834 103.04 125.174 103.297C124.184 103.544 123.442 104.012 122.919 104.645C122.387 105.277 122.094 106.176 122.03 107.193C121.975 107.835 122.011 108.55 122.167 109.201C122.415 110.2 122.772 111.264 123.185 112.162L121.993 111.429C122.781 111.401 123.579 111.374 124.377 111.337C125.303 111.31 126.201 111.264 127.145 111.291C128.117 111.319 129.162 111.2 130.18 111.154C132.866 111.026 135.543 110.815 138.239 110.833C141.365 110.475 144.665 110.659 147.792 110.2C148.763 110.063 149.919 109.99 151.046 110.063C153.705 110.228 153.989 110.375 152.999 111.264C152.761 111.475 152.449 111.686 152.101 111.887C151.605 112.172 151 112.327 149.873 112.401C148.305 112.492 146.774 112.74 145.27 112.96C144.06 113.134 142.914 113.327 141.576 113.317C141.09 113.308 140.567 113.391 140.081 113.446C137.863 113.703 135.598 113.84 133.187 113.822Z" fill="#8ED6C7"/>
<path d="M60.137 148.393C62.154 143.8 57.4691 145.102 52.6652 144.231C41.1044 142.15 38.6933 138.575 33.8251 140.656C28.9569 142.737 31.4506 145.671 38.9591 147.284C47.3386 149.09 58.8993 151.199 60.137 148.393Z" fill="#8ED6C7"/>
<path d="M60.0723 145.893C60.0264 145.746 59.8614 145.673 59.7605 145.544C59.6047 145.462 59.4672 145.361 59.293 145.297C58.9538 145.159 58.5871 145.067 58.2112 144.976C57.5419 144.829 56.8635 144.728 56.1484 144.737C55.965 144.737 55.7633 144.71 55.58 144.701L54.5348 144.627C54.379 144.618 54.2048 144.637 54.0581 144.609C53.343 144.472 52.6279 144.334 51.9128 144.261C51.3719 144.059 50.8127 144.031 50.2534 143.931C49.6942 143.83 49.1349 143.683 48.5665 143.619C48.4198 143.601 48.2456 143.564 48.1081 143.509C47.2372 143.216 46.3479 142.977 45.4586 142.739C44.5051 142.464 43.5792 142.134 42.6715 141.73C42.1948 141.519 41.6722 141.336 41.168 141.162C40.5629 140.951 39.9578 140.777 39.3436 140.612C38.4635 140.364 37.5467 140.208 36.6574 140.282C35.4656 140.355 34.3379 140.795 33.3111 141.373C33.0452 141.51 32.816 141.684 32.5593 141.84C32.3485 142.024 32.1009 142.189 31.9634 142.409C31.23 143.216 32.1193 144.334 33.1644 144.939C33.9345 145.434 34.8238 145.792 35.7131 146.085C36.5474 146.36 37.4092 146.571 38.2709 146.754C40.8471 147.295 43.4508 147.772 46.0545 148.194L47.9339 148.46L48.8691 148.597C50.0242 148.78 51.1885 148.945 52.3529 149.065C54.0123 149.23 55.69 149.321 57.3035 149.166C57.7528 149.11 58.2112 149.046 58.6054 148.909C59.0088 148.78 59.3663 148.57 59.513 148.322C59.568 148.185 59.6505 148.166 59.7147 148.258C59.8247 148.432 59.9622 148.698 59.6414 149.074C59.4213 149.321 59.1463 149.514 58.7612 149.596C58.202 149.725 57.6061 149.899 57.0468 149.826C56.9643 149.816 56.8543 149.826 56.7626 149.844C55.1032 150.073 53.4347 149.881 51.7845 149.688L50.1617 149.514L49.1166 149.367L47.6039 149.12C47.2188 149.065 46.8521 149.037 46.5221 148.872C46.4579 148.835 46.2562 148.808 46.1829 148.826C45.8986 148.881 45.5869 148.817 45.2752 148.753L42.7449 148.249C42.1215 148.13 41.4981 148.02 40.8655 147.909C39.8937 147.744 38.931 147.616 37.9501 147.414C37.1341 147.249 36.3273 147.029 35.5297 146.773C35.3464 146.709 35.1538 146.681 34.9705 146.608C34.6404 146.479 34.2737 146.369 33.9804 146.195C33.6595 145.984 33.3936 145.874 33.0452 145.773C32.8527 145.709 32.5685 145.553 32.3576 145.397C32.0918 145.177 31.8351 144.967 31.6242 144.673C31.4958 144.517 31.3767 144.352 31.2758 144.16C31.2208 144.068 31.1658 143.976 31.1016 143.885C31.0466 143.784 31.0099 143.665 30.9549 143.555C30.8082 143.316 30.8541 142.885 30.9549 142.601C31.1841 141.932 31.6975 141.584 32.1376 141.208L32.8619 140.759L33.6045 140.383C34.9613 139.713 36.584 139.448 38.1059 139.677C38.7018 139.768 39.2794 139.915 39.8478 140.071C41.5989 140.593 43.24 141.254 44.9269 141.822C45.2569 141.932 45.5869 142.06 45.9262 142.134C46.6963 142.317 47.448 142.546 48.209 142.766C49.1166 143.051 50.0517 143.216 50.9868 143.371C51.2069 143.408 51.4269 143.426 51.6378 143.472C53.1321 143.866 54.5898 143.912 56.1209 144.022C56.7351 144.077 57.3586 144.123 57.9911 144.224C58.6237 144.316 59.2747 144.444 59.9256 144.783C60.4115 145.031 60.9249 145.581 60.9432 146.195C60.989 146.479 60.9432 146.754 60.9065 147.02C60.8332 147.268 60.7782 147.524 60.6957 147.763L60.6315 147.946C60.4023 148.469 60.2189 148.57 60.1181 148.249C60.0081 147.965 60.0998 147.616 60.1731 147.176C60.3106 146.69 60.3198 146.204 60.0906 145.865L60.0723 145.893Z" fill="#8ED6C7"/>
<path d="M64.2711 147.007C64.3628 150.684 67.434 150.601 68.7359 149.217C70.0377 147.832 69.341 145.146 67.2599 144.669C65.1787 144.193 64.2253 145.275 64.2711 147.007Z" fill="#8ED6C7"/>
<path d="M64.6647 147.689C64.6647 147.881 64.6464 148.083 64.6556 148.285C64.6647 148.459 64.6464 148.661 64.8022 148.78C64.8389 148.816 64.8481 148.862 64.8756 148.908C64.9123 148.991 64.9581 149.064 65.0223 149.119C65.0498 149.146 65.1048 149.156 65.1139 149.192C65.1598 149.385 65.3065 149.504 65.4807 149.568C65.554 149.706 65.7007 149.742 65.8382 149.761C65.9757 149.779 66.0949 149.862 66.2508 149.807C66.2874 149.797 66.3241 149.797 66.3608 149.816C66.5625 149.926 66.7917 149.898 67.0117 149.852C67.2409 149.807 67.4701 149.761 67.7268 149.742C67.8643 149.742 67.9835 149.66 68.1027 149.596C68.231 149.504 68.3594 149.403 68.4694 149.284C68.6344 149.128 68.772 148.936 68.827 148.716C68.9186 148.431 68.9278 148.138 68.937 147.863C68.9278 147.725 68.9828 147.588 68.9828 147.441C69.0103 147.157 69.0011 146.854 68.9186 146.57C68.8636 146.35 68.7536 146.149 68.6161 145.974C68.4969 145.809 68.3319 145.672 68.1669 145.562C67.7085 145.186 67.1034 145.085 66.4891 145.076C66.3516 145.085 66.2141 145.103 66.0857 145.14C66.0216 145.149 65.9666 145.168 65.9024 145.177C65.6732 145.213 65.4715 145.296 65.3156 145.433C65.0956 145.635 64.9398 145.938 64.8664 146.295C64.8206 146.497 64.7931 146.717 64.8572 146.937C64.8756 147.001 64.8206 147.02 64.7106 147.001C64.518 146.965 64.3255 146.937 64.2063 146.809C64.1238 146.726 64.078 146.644 64.1146 146.534C64.1605 146.387 64.1146 146.204 64.2522 146.084C64.2705 146.066 64.2797 146.039 64.2797 146.011C64.2705 145.543 64.573 145.094 64.9673 144.838C65.0864 144.746 65.2148 144.654 65.3615 144.581C65.4532 144.544 65.5448 144.498 65.6457 144.48C65.7924 144.452 65.9299 144.434 66.0674 144.416C66.1683 144.397 66.2783 144.352 66.37 144.471C66.3883 144.498 66.4433 144.489 66.4616 144.462C66.535 144.352 66.6267 144.379 66.7183 144.388C66.9567 144.416 67.1767 144.48 67.4059 144.535C67.5801 144.581 67.7543 144.618 67.9193 144.682C68.1852 144.755 68.4602 144.874 68.6986 145.048C68.9003 145.186 69.0745 145.369 69.2212 145.562C69.2579 145.608 69.3037 145.644 69.3404 145.69C69.4045 145.773 69.4687 145.864 69.487 145.965C69.5054 146.084 69.5237 146.158 69.6429 146.222C69.7071 146.259 69.7346 146.35 69.7529 146.424C69.7712 146.515 69.7529 146.625 69.7438 146.717C69.7346 146.836 69.7071 146.937 69.7896 147.047C69.8354 147.102 69.8263 147.194 69.8079 147.267C69.7071 147.588 69.7071 147.89 69.6521 148.211C69.5971 148.642 69.4595 149.082 69.1845 149.458C69.0928 149.623 68.9461 149.724 68.827 149.862C68.4052 150.228 67.8827 150.448 67.3418 150.522C67.2409 150.549 67.1309 150.54 67.0209 150.577C66.7825 150.659 66.5258 150.632 66.2783 150.567C65.9849 150.485 65.6915 150.43 65.3982 150.32C65.334 150.292 65.2515 150.274 65.1965 150.228C64.8206 149.907 64.3989 149.596 64.2063 149.146C64.0413 148.798 63.968 148.413 63.9588 148.065C63.9221 147.79 63.9588 147.515 63.9863 147.249C63.9863 147.23 63.9771 147.212 63.9771 147.194C63.9955 147.038 64.1238 146.992 64.3438 147.056C64.5272 147.111 64.6464 147.194 64.6464 147.313C64.6555 147.441 64.6372 147.588 64.6556 147.716L64.6647 147.689Z" fill="#8ED6C7"/>
<path d="M70.4784 131.809C69.1124 128.939 66.7196 130.085 66.1787 131.634C65.6377 133.184 67.1321 135.063 68.9382 134.706C70.7534 134.357 71.1202 133.166 70.4784 131.809Z" fill="#8ED6C7"/>
<path d="M69.8911 131.434C69.8269 131.279 69.7719 131.114 69.7077 130.958C69.6436 130.82 69.5977 130.646 69.4235 130.609C69.3869 130.6 69.3594 130.563 69.3227 130.536C69.2677 130.49 69.2035 130.444 69.1302 130.426C69.1027 130.417 69.0477 130.435 69.0293 130.408C68.9285 130.27 68.7726 130.224 68.6168 130.243C68.5159 130.151 68.3876 130.178 68.2684 130.215C68.1584 130.252 68.03 130.233 67.9383 130.334C67.9108 130.362 67.8833 130.371 67.8467 130.371C67.6541 130.343 67.4799 130.453 67.3333 130.563C67.1682 130.683 67.0032 130.793 66.8015 130.884C66.6915 130.93 66.6273 131.04 66.554 131.123C66.4806 131.242 66.4256 131.37 66.3798 131.499C66.3064 131.682 66.2698 131.884 66.3156 132.067C66.3523 132.324 66.4623 132.553 66.554 132.764C66.609 132.874 66.6182 132.993 66.664 133.103C66.7373 133.332 66.8382 133.571 67.0032 133.763C67.1224 133.91 67.2782 134.029 67.4433 134.111C67.5991 134.194 67.7733 134.24 67.9383 134.267C68.4242 134.387 68.9101 134.258 69.3869 134.047C69.4877 133.992 69.5886 133.928 69.6711 133.855C69.7169 133.827 69.7536 133.791 69.7994 133.763C69.9553 133.662 70.0836 133.543 70.157 133.387C70.2578 133.167 70.2762 132.892 70.212 132.59C70.1845 132.425 70.1295 132.241 70.0011 132.095C69.9644 132.058 70.0011 132.021 70.1111 131.985C70.2945 131.939 70.487 131.874 70.6337 131.93C70.7346 131.966 70.8171 132.012 70.8171 132.113C70.8262 132.25 70.9454 132.37 70.8629 132.525C70.8537 132.544 70.8629 132.571 70.8721 132.59C71.0646 132.956 70.9729 133.424 70.7437 133.772C70.6795 133.891 70.6062 134.011 70.5237 134.121C70.4595 134.185 70.4045 134.249 70.3312 134.304C70.2303 134.377 70.1203 134.442 70.0103 134.506C69.9369 134.561 69.8636 134.634 69.7444 134.561C69.7169 134.542 69.6802 134.57 69.6711 134.597C69.6527 134.726 69.5702 134.735 69.4969 134.753C69.2952 134.817 69.1027 134.845 68.901 134.872C68.7451 134.891 68.5984 134.937 68.4426 134.946C68.195 134.982 67.9383 135.001 67.6816 134.946C67.4708 134.909 67.2691 134.827 67.0766 134.726C67.0307 134.707 66.9757 134.698 66.9299 134.671C66.8474 134.625 66.7648 134.579 66.719 134.497C66.6732 134.405 66.6182 134.35 66.499 134.35C66.4256 134.35 66.3706 134.286 66.334 134.231C66.2789 134.157 66.2606 134.066 66.2423 133.983C66.2148 133.882 66.2056 133.791 66.0956 133.736C66.0314 133.708 66.0131 133.626 66.0039 133.561C65.9764 133.259 65.8756 133.02 65.793 132.745C65.683 132.388 65.628 131.975 65.7014 131.572C65.7197 131.407 65.793 131.269 65.8481 131.114C66.0497 130.664 66.3981 130.298 66.8107 130.05C66.884 129.995 66.9757 129.958 67.049 129.894C67.2141 129.738 67.4341 129.665 67.6541 129.638C67.92 129.601 68.1767 129.537 68.4609 129.509C68.5251 129.509 68.5984 129.491 68.6534 129.509C69.0752 129.638 69.5336 129.729 69.8544 130.032C70.1111 130.261 70.3037 130.545 70.432 130.82C70.5512 131.031 70.6154 131.26 70.6887 131.489C70.6979 131.508 70.707 131.517 70.7162 131.526C70.7529 131.654 70.652 131.746 70.432 131.783C70.2395 131.819 70.1111 131.801 70.0653 131.709C70.0103 131.609 69.9828 131.489 69.9186 131.398L69.8911 131.434Z" fill="#8ED6C7"/>
<path d="M61.3465 131.957C62.3275 128.84 60.5031 128.647 54.6539 125.722C48.8048 122.798 44.2575 121.304 40.8196 122.275C37.3724 123.247 37.4366 125.787 44.4592 127.932C49.6391 129.518 60.6314 134.23 61.3465 131.957Z" fill="#8ED6C7"/>
<path d="M61.0993 129.857C60.8976 129.362 60.4025 128.95 59.9166 128.564C59.4766 128.225 58.9999 127.914 58.4589 127.721C58.3214 127.666 58.1839 127.584 58.0372 127.519L57.2671 127.153C57.1479 127.098 57.0104 127.079 56.9096 127.015C56.4053 126.703 55.8828 126.438 55.3235 126.236C54.9476 125.952 54.5167 125.805 54.0858 125.631C53.6641 125.447 53.2424 125.227 52.8023 125.099C52.6832 125.062 52.5548 125.007 52.454 124.943C51.8122 124.567 51.1154 124.292 50.4187 124.017C49.6669 123.733 48.9335 123.421 48.2 123.1C47.815 122.917 47.3841 122.798 46.9624 122.679C46.4581 122.541 45.9539 122.44 45.4405 122.358C44.7071 122.229 43.9553 122.156 43.2219 122.22C42.2409 122.284 41.2783 122.495 40.4073 122.862C39.9856 123.064 39.5364 123.256 39.243 123.55C38.9496 123.843 38.8946 124.182 39.0596 124.567C39.2155 124.962 39.6097 125.292 39.9764 125.603C40.5815 126.043 41.2599 126.401 41.975 126.685C42.6351 126.96 43.3227 127.18 44.0103 127.382C46.0823 127.978 48.1542 128.693 50.1987 129.371C50.6937 129.527 51.1888 129.683 51.6839 129.839L52.4173 130.086C53.3249 130.407 54.2234 130.728 55.1402 131.012C56.442 131.416 57.7714 131.782 59.0732 131.975C59.4399 132.03 59.8066 132.067 60.1458 132.039C60.4759 132.03 60.7876 131.902 60.7968 131.819C60.7876 131.782 60.8609 131.792 60.9434 131.837C61.081 131.929 61.2735 132.204 60.9343 132.488C60.7143 132.653 60.4484 132.773 60.1183 132.745C59.6416 132.718 59.1465 132.754 58.7065 132.571C58.6423 132.543 58.5506 132.534 58.4773 132.525C57.1113 132.415 55.8186 131.957 54.5259 131.544L53.2516 131.159L52.4356 130.884C52.0414 130.746 51.6563 130.591 51.253 130.462C50.9504 130.361 50.657 130.297 50.4278 130.096C50.382 130.05 50.2262 130.004 50.162 130.013C49.9144 130.041 49.6761 129.94 49.4377 129.848L47.4666 129.124C46.9807 128.95 46.4856 128.803 45.9906 128.656C45.2205 128.454 44.432 128.244 43.6619 128.042C43.0018 127.868 42.3601 127.62 41.7275 127.373C41.5808 127.318 41.4249 127.263 41.2783 127.208C41.0032 127.098 40.719 126.96 40.4898 126.804C40.2331 126.63 40.0406 126.483 39.7472 126.401C39.5822 126.364 39.3713 126.19 39.2063 126.043C38.9863 125.869 38.8213 125.622 38.6562 125.383C38.4729 125.072 38.3537 124.778 38.1887 124.375C38.1337 124.146 38.1612 123.797 38.2987 123.559C38.5829 123.055 38.9955 122.743 39.4172 122.514C39.8297 122.275 40.2698 122.119 40.7007 121.964C41.8925 121.588 43.1669 121.487 44.3954 121.579C44.8813 121.624 45.358 121.689 45.8347 121.789C47.3108 122.064 48.7134 122.578 50.0795 123.146C50.3453 123.256 50.6204 123.375 50.8862 123.467C51.5097 123.678 52.1056 123.953 52.6923 124.256C53.3891 124.622 54.1134 124.925 54.8376 125.246C55.0026 125.319 55.1768 125.374 55.3327 125.466C56.4237 126.071 57.5972 126.511 58.7157 127.079C59.6141 127.565 60.5492 128.033 61.3377 128.885C61.6494 129.206 61.8602 129.683 61.9244 130.132C62.0069 130.6 61.8969 131.022 61.8144 131.425C61.8052 131.48 61.7961 131.535 61.7777 131.581C61.6219 132.021 61.4569 132.112 61.3193 131.856C61.191 131.627 61.1727 131.333 61.2277 130.966C61.2735 130.572 61.2735 130.187 61.1268 129.848L61.0993 129.857Z" fill="#8ED6C7"/>
<path d="M44.6158 167.785C44.9 167.803 45.2025 167.858 45.4959 167.712C45.5784 167.675 45.6884 167.703 45.7801 167.73C46.0551 167.813 46.3393 167.886 46.6327 167.868C46.6785 167.868 46.7244 167.886 46.7611 167.868C47.1553 167.721 47.5587 167.858 47.9621 167.794C48.2371 167.758 48.5305 167.785 48.7963 167.629C48.943 167.547 49.1264 167.547 49.3006 167.528C49.814 167.455 50.3274 167.391 50.8408 167.281C50.9966 167.253 51.1433 167.244 51.235 167.483C51.29 167.62 51.4459 167.684 51.51 167.868C51.6659 168.326 51.5375 168.739 51.1158 168.913C50.9233 168.986 50.7216 169.041 50.5291 169.087C50.1532 169.179 49.7865 169.371 49.3739 169.298C49.2272 169.27 49.0622 169.325 48.9063 169.362C48.4755 169.481 48.0262 169.435 47.5862 169.426C47.4486 169.426 47.302 169.389 47.1644 169.426C46.8069 169.499 46.4493 169.527 46.0918 169.518C45.9176 169.518 45.7526 169.527 45.5784 169.481C45.4042 169.435 45.2025 169.481 45.0191 169.481C44.5241 169.472 44.0107 169.499 43.5248 169.362C42.9197 169.435 42.3513 169.151 41.7279 169.224C41.5353 169.252 41.3153 169.206 41.1228 169.087C40.6644 168.794 40.6277 168.674 40.9944 168.253C41.0586 168.133 41.1503 168.042 41.2511 167.95C41.3795 167.822 41.5078 167.776 41.7004 167.803C41.9662 167.849 42.2596 167.794 42.5346 167.748C42.7547 167.712 42.9655 167.657 43.1856 167.73C43.2681 167.758 43.3598 167.739 43.4423 167.73C43.8273 167.675 44.2124 167.693 44.6158 167.785Z" fill="#8ED6C7"/>
<path d="M25.7847 161.834C25.363 161.568 25.0055 161.137 24.5012 160.926C24.3637 160.871 24.2354 160.688 24.1345 160.541C23.8136 160.083 23.5294 159.67 23.2452 159.258C23.1994 159.194 23.1627 159.111 23.1169 159.065C22.9793 158.937 22.8602 158.79 22.7593 158.644C22.6676 158.479 22.5943 158.314 22.5118 158.139C22.3743 157.791 22.1909 157.47 22.0901 157.113C22.0075 156.865 21.9434 156.608 21.8609 156.361C21.7783 156.113 21.6958 155.857 21.6317 155.6C21.54 155.316 21.5216 154.958 21.4941 154.637C21.5125 153.665 21.6133 152.694 21.9342 151.804C22.0167 151.52 22.1084 151.282 22.3651 151.328C22.5118 151.355 22.6676 151.163 22.851 151.218C23.3186 151.355 23.5753 151.814 23.4744 152.437C23.4377 152.721 23.3094 152.996 23.3277 153.28C23.3277 153.821 23.3186 154.344 23.2911 154.885C23.2635 155.077 23.3186 155.316 23.3552 155.517C23.5661 156.086 23.6211 156.691 23.887 157.241C23.9603 157.424 24.0245 157.617 24.1253 157.782C24.4829 158.158 24.7304 158.589 25.0971 158.964C25.2622 159.148 25.4272 159.313 25.5739 159.524C25.7297 159.735 25.9864 159.872 26.1881 160.046C26.454 160.285 26.7657 160.477 27.0682 160.679C27.3616 160.89 27.6642 161.082 27.9575 161.302C28.746 161.623 29.4702 162.192 30.332 162.338C30.5979 162.384 30.8913 162.485 31.148 162.65C31.753 163.035 31.7897 163.127 31.3772 163.539C31.2763 163.631 31.148 163.713 31.0196 163.787C30.8271 163.888 30.6346 163.897 30.3229 163.796C29.892 163.64 29.4336 163.576 28.9935 163.466C28.636 163.393 28.2876 163.31 27.9667 163.09C27.8475 163.008 27.6917 162.962 27.5541 162.916C26.9215 162.659 26.3256 162.329 25.7847 161.834Z" fill="#8ED6C7"/>
<path d="M96.3489 158.909C95.8264 158.808 95.0471 158.606 94.3136 158.267C93.9286 158.102 93.5619 157.891 93.2043 157.653C92.9384 157.497 92.6817 157.332 92.5717 157.039C92.4709 156.782 92.2509 156.672 91.985 156.58C91.8291 156.507 91.6366 156.424 91.5174 156.287L91.1232 155.838C91.0132 155.673 90.9123 155.498 90.8115 155.333C90.6098 154.994 90.4081 154.664 90.2797 154.297C90.0872 153.83 89.8947 153.362 89.9772 152.885C90.0139 152.574 89.8305 152.381 89.6563 152.152C89.4363 151.868 89.5188 151.749 89.7755 151.483C89.9405 151.327 89.9497 151.226 89.7939 151.153C89.6288 151.079 89.473 151.061 89.4546 150.777C89.3996 150.373 89.418 149.979 89.4363 149.585L89.5005 148.402C89.528 148.182 89.5096 147.788 89.8764 147.953C89.8947 147.962 89.9497 147.944 89.9497 147.926L90.1514 146.862C89.9039 146.413 90.2798 145.964 90.2522 145.505C90.2431 145.414 90.2889 145.267 90.3439 145.23C90.6831 145.001 90.619 144.479 90.9123 144.249C91.1049 144.103 91.114 143.947 91.0407 143.754C90.9765 143.58 90.9673 143.406 91.059 143.195C91.4991 142.205 92.0583 141.242 92.8101 140.435C93.2685 139.913 93.8277 139.482 94.4328 139.161C95.533 138.602 96.6881 138.189 97.8983 138.052C98.5951 137.978 99.2918 138.061 99.9519 138.226C100.218 138.29 100.447 138.327 100.713 138.318C102.858 138.226 105.013 139.335 106.479 140.976C106.69 141.242 106.819 141.563 107.02 141.82C107.24 142.067 107.47 142.278 107.57 142.627C107.653 142.856 107.818 143.112 107.992 143.296C108.386 143.718 108.634 144.249 108.771 144.809C108.909 145.359 108.927 145.909 109.001 146.45C109.028 147.174 108.991 147.889 108.927 148.613C108.881 149.338 108.808 150.089 108.579 150.823C108.551 150.96 108.506 151.098 108.432 151.217C108.111 151.776 107.653 152.244 107.204 152.665L106.892 152.986L106.534 153.252C106.296 153.445 106.021 153.564 105.728 153.665C105.526 153.747 105.324 153.802 105.123 153.866C104.334 154.169 103.417 154.297 102.711 153.802L102.024 153.692L101.345 153.518C101.116 153.472 100.841 153.426 100.695 153.289C100.282 152.931 99.9152 152.803 99.3743 152.84C99.081 152.858 98.7509 152.665 98.4392 152.555C98.21 152.473 98.0083 152.335 97.99 152.07C97.9808 151.987 97.8158 151.822 97.7333 151.804C97.4032 151.73 97.2657 151.428 97.0457 151.263C96.7431 150.988 96.5048 150.74 96.4498 150.346C96.4314 150.218 96.2847 150.034 96.1656 149.97C95.4138 149.484 94.8912 148.485 94.9921 147.302C95.0562 146.34 95.6705 145.386 96.4223 144.909C97.174 144.424 97.9441 144.139 98.7601 144.057C98.9801 144.011 99.2185 143.993 99.4477 143.956C100.199 143.754 101.135 143.965 101.859 144.451C102.152 144.616 102.427 144.827 102.684 145.038C102.62 145.404 102.986 145.386 103.124 145.579C103.326 145.835 103.39 146.129 103.592 146.404C103.83 146.752 103.931 147.192 104.022 147.596C104.169 148.274 103.958 148.641 103.482 148.751C103.399 148.769 103.317 148.787 103.234 148.787C103.005 148.797 102.886 148.714 102.785 148.457C102.666 148.146 102.464 147.843 102.409 147.541C102.29 146.862 101.795 146.367 101.327 146.065C100.621 145.579 99.8144 145.606 98.9434 145.762C98.375 145.854 97.8158 146.092 97.4032 146.385C96.9907 146.67 96.8532 147.101 96.844 147.495C96.844 147.852 96.954 148.237 97.1007 148.641C97.3482 149.383 97.99 150.007 98.6317 150.584C98.7967 150.74 98.9893 150.878 99.191 150.979C99.9244 151.309 100.658 151.602 101.41 151.923C101.483 151.96 101.593 152.015 101.657 151.978C102.134 151.776 102.537 152.005 102.959 152.051C104.068 152.207 105.104 152.033 105.819 151.556C106.241 151.244 106.553 150.814 106.791 150.282C106.965 149.713 107.121 149.09 107.112 148.384C107.158 147.541 106.975 146.633 106.91 145.725C106.883 145.148 106.663 144.744 106.489 144.277C106.14 143.443 105.664 142.636 104.994 141.976C103.857 140.839 102.336 140.069 100.759 139.766C100.649 139.748 100.539 139.748 100.429 139.748C98.9709 139.794 97.5866 139.885 96.3489 140.472C95.1846 141.004 94.2586 141.967 93.571 143.122C93.1035 143.91 92.7001 144.781 92.4159 145.716C92.1775 146.486 92.0767 147.321 91.9116 148.146C91.8016 148.595 91.8383 149.026 91.7925 149.466C91.7741 149.686 91.7558 149.906 91.7283 150.126C91.7191 150.337 91.7191 150.548 91.6916 150.768C91.6641 151.024 91.6916 151.29 91.7008 151.547C91.8841 152.812 92.3334 153.995 93.1768 154.893C93.351 155.141 93.571 155.315 93.6077 155.673C93.626 155.856 93.8002 156.039 93.9836 156.14C94.2311 156.287 94.4695 156.461 94.7445 156.562C95.0104 156.681 95.2946 156.773 95.588 156.773C95.973 156.8 96.2847 156.974 96.6515 157.057C96.679 157.066 96.7156 157.149 96.6973 157.176C96.624 157.323 96.7065 157.378 96.8623 157.396C97.1465 157.433 97.4491 157.259 97.7149 157.424C98.0541 157.607 97.8249 157.946 97.9716 158.194C98.0725 158.322 97.9991 158.441 97.8891 158.551C97.7974 158.661 97.6783 158.762 97.6599 158.89C97.6508 158.927 97.4582 158.964 97.3574 158.964C97.0823 158.982 96.844 158.964 96.3489 158.909Z" fill="#8ED6C7"/>
<path d="M90.9687 160.89C90.8954 160.927 90.7854 160.973 90.6662 161.019C90.6112 161.046 90.5378 161.064 90.4828 161.092C90.4462 161.11 90.4095 161.138 90.2628 161.074C90.1253 161.019 90.1344 161.064 90.1895 161.138C90.2261 161.193 90.272 161.248 90.2536 161.266C90.1711 161.33 90.0428 161.367 89.9603 161.44C89.9053 161.486 89.8502 161.523 89.6669 161.477C89.5477 161.45 89.6394 161.541 89.7127 161.642C89.8044 161.752 89.7494 161.734 89.4835 161.596C89.3185 161.514 89.3002 161.514 89.4193 161.605C89.5385 161.697 89.6669 161.789 89.6394 161.816C89.5569 161.899 89.4927 161.99 89.401 162.073C89.3735 162.091 89.4102 162.183 89.0985 161.954C89.0801 161.945 89.0343 161.917 89.0343 161.917C88.9885 161.945 88.9426 161.981 88.8968 162.018C89.1076 162.229 88.8234 162.137 88.9059 162.265C88.9243 162.293 88.9059 162.302 88.8601 162.284C88.6034 162.165 88.7593 162.357 88.5392 162.265C88.4017 162.21 88.4475 162.265 88.5484 162.357C88.6401 162.44 88.6859 162.504 88.6676 162.531C88.5759 162.66 88.5117 162.806 88.42 162.935C88.365 163.017 88.3009 163.091 88.1725 163.127C87.9525 163.191 87.8608 163.338 87.7233 163.466C87.6499 163.54 87.5033 163.567 87.3657 163.595C87.3107 163.604 87.2832 163.632 87.3016 163.696C87.4941 164.2 87.3016 164.466 87.0907 164.704C87.0632 164.741 86.9165 164.704 86.9165 164.759C86.9165 164.814 86.944 164.888 86.8432 164.888C86.779 164.888 86.7882 164.943 86.8248 165.016C87.0265 165.346 86.8248 165.401 86.6873 165.511C86.5956 165.575 86.4489 165.603 86.3756 165.676C86.3023 165.749 86.2839 165.878 86.2472 165.979C86.2381 165.997 86.2472 166.024 86.2289 166.034C86.1372 166.079 85.9814 166.079 85.963 166.171C85.9539 166.263 85.9905 166.391 85.9355 166.455C85.9172 166.474 85.9172 166.51 85.9172 166.556C85.9447 166.721 86.0181 166.904 85.633 166.776C85.6055 166.84 85.5688 166.895 85.5413 166.959C85.523 166.987 85.5505 167.06 85.4771 167.042C85.2571 166.987 85.2754 167.069 85.4588 167.271C85.5597 167.381 85.5413 167.436 85.5597 167.51C85.578 167.565 85.578 167.601 85.3855 167.51C85.3305 167.482 85.2754 167.482 85.303 167.519C85.413 167.647 85.2663 167.601 85.2755 167.647C85.2755 167.72 85.2388 167.748 85.0646 167.693C85.0096 167.675 85.0004 167.711 85.0371 167.757C85.2846 168.069 85.2571 168.197 85.2204 168.325C85.1563 168.536 85.0554 168.729 84.8812 168.866C84.8537 168.885 84.8354 168.912 84.8537 168.958C84.9179 169.114 84.8446 169.178 84.7712 169.251C84.7437 169.279 84.762 169.334 84.7529 169.38C84.4962 169.242 84.707 169.416 84.707 169.444C84.6979 169.481 84.6062 169.462 84.6245 169.526C84.652 169.609 84.5787 169.627 84.5329 169.664C84.4595 169.728 84.2486 169.637 83.8361 169.361C83.7627 169.316 83.6986 169.27 83.6252 169.224C83.4327 169.096 83.341 169.013 83.3227 168.949C83.2952 168.866 83.231 168.756 83.2952 168.738C83.4419 168.701 83.3777 168.527 83.3685 168.399C83.3594 168.206 83.3685 168.023 83.4602 167.895C83.5244 167.812 83.5702 167.72 83.6252 167.629C83.6711 167.546 83.6527 167.409 83.6711 167.299C83.6802 167.198 83.6802 167.097 83.7627 167.042C83.9003 166.95 83.9186 166.776 84.0469 166.684C84.0836 166.657 84.1111 166.629 84.1111 166.584C84.0928 166.409 84.102 166.244 84.2303 166.171C84.2486 166.162 84.267 166.153 84.2303 166.125C83.9919 165.887 84.1386 165.887 84.1753 165.813C84.267 165.63 84.3862 165.465 84.487 165.291C84.6154 165.08 84.7345 164.86 84.8629 164.658C84.9454 164.53 84.9912 164.374 85.1563 164.301C85.2571 164.255 85.2479 164.145 85.303 164.062C85.3946 163.925 85.5413 163.824 85.633 163.687C85.7889 163.448 85.9264 163.191 86.0731 162.944C86.0822 162.926 86.0822 162.898 86.0731 162.871C85.9905 162.504 86.1831 162.311 86.3389 162.11C86.4948 161.917 86.5956 161.688 86.7515 161.495C86.8523 161.367 86.999 161.257 87.1274 161.138C87.2282 161.046 87.3291 160.936 87.4391 160.854C87.5583 160.762 87.6224 160.615 87.8516 160.597C87.9158 160.588 87.9433 160.551 87.98 160.524C88.1633 160.377 88.3375 160.23 88.5209 160.084C88.5667 160.047 88.6492 160.047 88.8784 160.148C88.9885 160.203 89.071 160.203 89.0985 160.184C89.181 160.129 89.3185 160.102 89.2635 159.955C89.2268 159.854 89.3735 159.891 89.4377 159.863C89.4377 159.863 89.511 159.9 89.5385 159.919C89.6577 160.01 89.7035 160.029 89.7219 160.01C89.7494 159.983 89.6302 159.845 89.7952 159.9C89.9878 159.974 90.2353 160.184 90.4553 160.313C90.6937 160.45 90.7945 160.588 90.9962 160.725C91.0237 160.744 91.0329 160.78 91.0329 160.799C91.0329 160.817 91.0054 160.844 90.9687 160.89Z" fill="#8ED6C7"/>
<path d="M98.458 163.227C98.4122 163.263 98.3297 163.318 98.2563 163.364C98.2197 163.392 98.1647 163.419 98.128 163.447C98.1005 163.465 98.0913 163.493 97.9263 163.483C97.7796 163.474 97.8071 163.502 97.8896 163.538C97.9446 163.566 98.0088 163.593 97.9996 163.603C97.9538 163.658 97.8621 163.713 97.8255 163.768C97.798 163.804 97.7613 163.841 97.5871 163.85C97.4679 163.859 97.5962 163.896 97.6971 163.942C97.8254 163.997 97.7704 163.997 97.4771 163.96C97.2937 163.942 97.2754 163.942 97.4221 163.979C97.5688 164.015 97.7246 164.043 97.7063 164.07C97.6696 164.134 97.6604 164.208 97.6146 164.272C97.6054 164.29 97.6788 164.336 97.2937 164.263C97.2754 164.263 97.2204 164.254 97.2204 164.254C97.1929 164.281 97.1654 164.318 97.147 164.345C97.4312 164.437 97.1379 164.428 97.2662 164.492C97.2937 164.501 97.2845 164.519 97.2387 164.51C96.9637 164.492 97.1745 164.574 96.9545 164.565C96.8078 164.556 96.872 164.584 97.0003 164.62C97.1195 164.657 97.1837 164.684 97.1837 164.703C97.1654 164.804 97.1745 164.904 97.147 165.005C97.1287 165.07 97.1104 165.125 97.0187 165.17C96.8537 165.253 96.8445 165.372 96.7803 165.473C96.7436 165.537 96.6336 165.583 96.5236 165.629C96.4778 165.647 96.4594 165.665 96.5144 165.702C96.9178 165.977 96.8628 166.179 96.7986 166.371C96.7895 166.399 96.6428 166.408 96.6703 166.445C96.6886 166.481 96.7528 166.518 96.6611 166.536C96.597 166.546 96.6336 166.582 96.707 166.619C97.037 166.784 96.8812 166.857 96.817 166.949C96.7711 167.013 96.652 167.059 96.6153 167.114C96.5878 167.178 96.6245 167.251 96.6428 167.325C96.6428 167.334 96.6611 167.352 96.652 167.361C96.5969 167.407 96.4503 167.444 96.4869 167.499C96.5144 167.554 96.6153 167.627 96.5878 167.682C96.5786 167.701 96.597 167.719 96.6153 167.747C96.7161 167.838 96.8628 167.939 96.4686 167.939C96.4686 167.985 96.4686 168.031 96.4686 168.067C96.4686 168.086 96.5236 168.122 96.4503 168.132C96.2394 168.141 96.2852 168.187 96.5419 168.278C96.6795 168.324 96.6886 168.361 96.7436 168.397C96.7803 168.425 96.7986 168.452 96.5878 168.434C96.5236 168.425 96.4778 168.443 96.5144 168.452C96.6703 168.507 96.5236 168.507 96.5419 168.535C96.5786 168.581 96.5511 168.608 96.3769 168.608C96.3219 168.608 96.3219 168.636 96.3769 168.654C96.7345 168.792 96.7711 168.883 96.7986 168.966C96.8445 169.113 96.8353 169.25 96.7528 169.369C96.7436 169.388 96.7345 169.406 96.7711 169.433C96.8995 169.516 96.8628 169.571 96.8353 169.635C96.8262 169.653 96.8628 169.69 96.8812 169.718C96.5969 169.681 96.8537 169.745 96.8628 169.763C96.872 169.791 96.7803 169.8 96.8353 169.828C96.8995 169.874 96.8353 169.901 96.817 169.929C96.7803 169.984 96.5511 169.965 96.0652 169.883C95.9827 169.874 95.9002 169.855 95.8177 169.837C95.5885 169.8 95.4785 169.763 95.4326 169.727C95.3776 169.681 95.2584 169.626 95.3134 169.598C95.4235 169.543 95.2859 169.452 95.2218 169.378C95.1301 169.259 95.0476 169.149 95.0751 169.048C95.0934 168.984 95.0934 168.92 95.0934 168.856C95.1026 168.792 95.0201 168.718 94.9834 168.645C94.9467 168.581 94.9009 168.517 94.9467 168.471C95.0201 168.388 94.9651 168.278 95.0292 168.196C95.0476 168.177 95.0659 168.15 95.0384 168.122C94.9376 168.022 94.8734 167.921 94.9559 167.847C94.9651 167.838 94.9742 167.829 94.9376 167.82C94.6258 167.719 94.745 167.692 94.745 167.637C94.7359 167.508 94.7634 167.38 94.7817 167.251C94.8 167.096 94.8 166.94 94.8275 166.784C94.8367 166.683 94.8092 166.582 94.9192 166.509C94.9926 166.463 94.9284 166.39 94.9376 166.335C94.9559 166.234 95.0384 166.133 95.0567 166.032C95.0842 165.849 95.0934 165.665 95.1026 165.482C95.1026 165.473 95.0934 165.455 95.0751 165.436C94.8276 165.225 94.9192 165.07 94.9651 164.914C95.0109 164.758 95.0017 164.602 95.0476 164.446C95.0751 164.345 95.1576 164.244 95.2126 164.153C95.2584 164.07 95.2951 163.988 95.3593 163.914C95.4235 163.832 95.4143 163.731 95.5976 163.676C95.6527 163.658 95.6618 163.63 95.6802 163.603C95.7718 163.474 95.8544 163.346 95.9552 163.218C95.9827 163.19 96.0469 163.163 96.3036 163.181C96.4319 163.19 96.4961 163.172 96.5144 163.153C96.5603 163.098 96.6703 163.062 96.5603 162.979C96.4869 162.924 96.6336 162.915 96.6703 162.888C96.6703 162.888 96.7528 162.897 96.7895 162.906C96.9362 162.943 96.9912 162.933 96.9912 162.924C97.0003 162.897 96.8353 162.842 97.0095 162.842C97.2112 162.842 97.5229 162.924 97.7796 162.961C98.0547 162.998 98.2013 163.062 98.4489 163.108C98.4855 163.117 98.5131 163.135 98.5131 163.144C98.4764 163.172 98.4672 163.181 98.458 163.227Z" fill="#8ED6C7"/>
<path d="M108.644 157.296C108.635 157.361 108.626 157.461 108.617 157.562C108.608 157.617 108.589 157.672 108.589 157.727C108.589 157.764 108.598 157.791 108.479 157.901C108.369 158.002 108.406 158.002 108.498 157.975C108.553 157.956 108.626 157.929 108.626 157.947C108.635 158.03 108.617 158.131 108.635 158.213C108.644 158.268 108.654 158.323 108.525 158.461C108.443 158.552 108.562 158.497 108.672 158.452C108.8 158.396 108.764 158.442 108.534 158.626C108.397 158.736 108.378 158.763 108.516 158.681C108.644 158.598 108.773 158.516 108.791 158.543C108.819 158.626 108.864 158.69 108.883 158.782C108.892 158.809 108.974 158.791 108.644 159.002C108.626 159.011 108.589 159.047 108.589 159.047C108.589 159.093 108.598 159.139 108.608 159.176C108.874 159.047 108.672 159.249 108.809 159.212C108.837 159.203 108.837 159.222 108.8 159.249C108.589 159.432 108.809 159.35 108.644 159.497C108.543 159.597 108.599 159.57 108.727 159.506C108.837 159.451 108.901 159.423 108.919 159.442C108.984 159.542 109.066 159.616 109.13 159.717C109.167 159.781 109.204 159.845 109.176 159.946C109.121 160.138 109.204 160.239 109.24 160.368C109.259 160.441 109.222 160.56 109.176 160.679C109.158 160.725 109.167 160.753 109.231 160.743C109.726 160.688 109.845 160.89 109.946 161.101C109.965 161.138 109.864 161.239 109.91 161.257C109.955 161.266 110.029 161.257 109.974 161.339C109.937 161.394 109.992 161.394 110.075 161.376C110.432 161.275 110.386 161.449 110.405 161.578C110.423 161.66 110.368 161.789 110.395 161.862C110.423 161.935 110.515 161.972 110.579 162.027C110.588 162.036 110.615 162.036 110.615 162.054C110.606 162.137 110.533 162.265 110.606 162.293C110.67 162.32 110.799 162.311 110.817 162.366C110.826 162.385 110.854 162.394 110.89 162.394C111.037 162.403 111.221 162.375 110.936 162.669C110.973 162.705 111.01 162.742 111.037 162.779C111.055 162.797 111.12 162.788 111.074 162.843C110.927 163.008 111 163.008 111.248 162.907C111.386 162.852 111.413 162.87 111.486 162.87C111.532 162.87 111.569 162.87 111.404 163.008C111.358 163.045 111.331 163.09 111.376 163.072C111.523 163.008 111.422 163.118 111.468 163.118C111.532 163.127 111.532 163.164 111.404 163.301C111.367 163.347 111.386 163.356 111.441 163.338C111.798 163.191 111.89 163.246 111.981 163.301C112.128 163.393 112.229 163.503 112.256 163.668C112.256 163.686 112.275 163.714 112.321 163.705C112.477 163.686 112.495 163.76 112.522 163.824C112.532 163.851 112.587 163.851 112.614 163.861C112.385 164.044 112.623 163.906 112.642 163.916C112.669 163.925 112.614 163.998 112.669 163.998C112.742 163.989 112.724 164.053 112.733 164.099C112.752 164.172 112.577 164.319 112.174 164.603C112.11 164.649 112.036 164.695 111.972 164.741C111.78 164.869 111.679 164.924 111.615 164.933C111.541 164.942 111.413 164.97 111.431 164.915C111.468 164.787 111.303 164.814 111.193 164.796C111.037 164.768 110.89 164.732 110.835 164.622C110.799 164.557 110.744 164.502 110.698 164.447C110.652 164.392 110.533 164.383 110.46 164.356C110.386 164.328 110.304 164.31 110.295 164.236C110.285 164.108 110.157 164.062 110.139 163.943C110.13 163.916 110.13 163.879 110.084 163.879C109.937 163.861 109.809 163.824 109.809 163.705C109.809 163.696 109.809 163.677 109.772 163.696C109.469 163.842 109.534 163.723 109.497 163.686C109.387 163.586 109.314 163.457 109.222 163.338C109.112 163.2 108.993 163.063 108.883 162.916C108.819 162.825 108.709 162.76 108.727 162.614C108.736 162.522 108.644 162.513 108.608 162.458C108.534 162.357 108.525 162.22 108.452 162.119C108.333 161.944 108.195 161.789 108.058 161.624C108.048 161.614 108.03 161.614 108.003 161.614C107.663 161.614 107.608 161.422 107.517 161.257C107.434 161.101 107.297 160.973 107.205 160.808C107.141 160.698 107.132 160.56 107.095 160.441C107.067 160.34 107.031 160.248 107.003 160.138C106.985 160.019 106.893 159.946 106.985 159.763C107.012 159.708 106.994 159.68 106.985 159.643C106.948 159.469 106.912 159.304 106.884 159.13C106.875 159.084 106.912 159.02 107.104 158.855C107.196 158.772 107.232 158.717 107.232 158.69C107.223 158.607 107.269 158.497 107.132 158.516C107.04 158.525 107.132 158.415 107.141 158.36C107.141 158.36 107.205 158.305 107.232 158.286C107.361 158.204 107.398 158.167 107.388 158.158C107.379 158.131 107.214 158.195 107.333 158.076C107.48 157.938 107.764 157.773 107.966 157.617C108.186 157.452 108.342 157.397 108.543 157.26C108.571 157.241 108.608 157.241 108.617 157.241C108.608 157.241 108.617 157.26 108.644 157.296Z" fill="#8ED6C7"/>
<path d="M112.926 149.813C112.962 149.859 113.026 149.932 113.081 150.015C113.109 150.052 113.136 150.107 113.173 150.143C113.201 150.171 113.219 150.18 113.219 150.345C113.219 150.492 113.246 150.464 113.283 150.382C113.301 150.327 113.329 150.262 113.347 150.272C113.411 150.317 113.466 150.4 113.531 150.446C113.577 150.473 113.613 150.501 113.622 150.684C113.632 150.803 113.668 150.675 113.714 150.574C113.76 150.446 113.76 150.501 113.742 150.794C113.732 150.978 113.732 150.996 113.769 150.849C113.797 150.702 113.824 150.547 113.852 150.556C113.925 150.583 113.998 150.602 114.072 150.638C114.09 150.647 114.136 150.574 114.072 150.959C114.072 150.978 114.062 151.033 114.062 151.033C114.09 151.06 114.127 151.088 114.163 151.106C114.246 150.822 114.255 151.115 114.319 150.977C114.328 150.95 114.347 150.959 114.347 151.005C114.337 151.28 114.42 151.06 114.42 151.289C114.42 151.436 114.447 151.372 114.475 151.234C114.502 151.115 114.53 151.051 114.548 151.051C114.649 151.069 114.759 151.06 114.86 151.078C114.924 151.097 114.988 151.106 115.043 151.198C115.135 151.363 115.254 151.372 115.364 151.427C115.428 151.463 115.483 151.573 115.529 151.683C115.548 151.729 115.575 151.738 115.603 151.693C115.868 151.28 116.079 151.326 116.281 151.39C116.309 151.399 116.327 151.546 116.364 151.518C116.4 151.5 116.437 151.436 116.455 151.518C116.474 151.583 116.501 151.546 116.538 151.473C116.694 151.143 116.776 151.289 116.877 151.353C116.941 151.399 116.996 151.518 117.06 151.546C117.124 151.573 117.207 151.528 117.28 151.518C117.29 151.518 117.308 151.5 117.317 151.509C117.372 151.564 117.409 151.711 117.473 151.674C117.537 151.638 117.601 151.546 117.656 151.564C117.675 151.573 117.693 151.555 117.72 151.528C117.812 151.427 117.913 151.271 117.931 151.674C117.977 151.674 118.023 151.674 118.069 151.674C118.087 151.674 118.124 151.619 118.133 151.693C118.151 151.903 118.197 151.858 118.28 151.601C118.325 151.463 118.362 151.454 118.399 151.399C118.426 151.363 118.454 151.335 118.436 151.546C118.436 151.61 118.445 151.656 118.463 151.61C118.509 151.454 118.518 151.601 118.555 151.573C118.601 151.537 118.628 151.555 118.637 151.738C118.637 151.793 118.665 151.793 118.683 151.738C118.811 151.372 118.903 151.344 118.995 151.308C119.141 151.262 119.288 151.262 119.416 151.344C119.435 151.353 119.453 151.363 119.481 151.326C119.563 151.198 119.618 151.234 119.682 151.253C119.71 151.262 119.737 151.225 119.765 151.207C119.737 151.491 119.802 151.234 119.82 151.225C119.847 151.216 119.857 151.308 119.893 151.253C119.939 151.188 119.967 151.243 120.003 151.271C120.058 151.308 120.058 151.528 119.994 152.023C119.985 152.105 119.976 152.188 119.957 152.27C119.921 152.499 119.902 152.609 119.866 152.664C119.82 152.719 119.765 152.839 119.737 152.784C119.682 152.674 119.591 152.811 119.508 152.875C119.389 152.976 119.279 153.059 119.169 153.031C119.105 153.013 119.031 153.022 118.967 153.013C118.903 153.013 118.821 153.095 118.756 153.132C118.692 153.169 118.628 153.224 118.573 153.178C118.481 153.104 118.371 153.169 118.28 153.104C118.252 153.086 118.234 153.068 118.197 153.104C118.096 153.205 117.995 153.279 117.913 153.187C117.904 153.178 117.895 153.169 117.885 153.205C117.794 153.526 117.757 153.398 117.702 153.407C117.565 153.416 117.436 153.389 117.299 153.379C117.134 153.37 116.969 153.37 116.804 153.352C116.703 153.343 116.593 153.379 116.51 153.269C116.455 153.196 116.391 153.269 116.327 153.26C116.217 153.242 116.116 153.159 116.006 153.15C115.823 153.123 115.63 153.123 115.438 153.114C115.428 153.114 115.41 153.132 115.392 153.15C115.181 153.398 115.016 153.315 114.851 153.279C114.695 153.242 114.521 153.251 114.365 153.214C114.255 153.187 114.154 153.114 114.053 153.059C113.971 153.013 113.879 152.976 113.797 152.921C113.705 152.857 113.604 152.875 113.531 152.683C113.512 152.628 113.485 152.619 113.457 152.6C113.32 152.509 113.182 152.426 113.054 152.334C113.017 152.307 112.999 152.243 113.008 151.986C113.008 151.858 112.999 151.793 112.971 151.775C112.916 151.729 112.871 151.619 112.788 151.738C112.733 151.812 112.724 151.674 112.687 151.628C112.687 151.628 112.696 151.546 112.696 151.509C112.724 151.363 112.724 151.308 112.706 151.308C112.678 151.298 112.623 151.463 112.623 151.289C112.623 151.088 112.687 150.767 112.715 150.519C112.742 150.244 112.797 150.088 112.834 149.85C112.843 149.813 112.861 149.786 112.871 149.786C112.861 149.804 112.88 149.813 112.926 149.813Z" fill="#8ED6C7"/>
<path d="M111.514 140.978C111.551 141.005 111.615 141.051 111.67 141.106C111.697 141.133 111.734 141.17 111.771 141.188C111.789 141.207 111.807 141.207 111.881 141.353C111.945 141.491 111.945 141.454 111.927 141.363C111.908 141.308 111.89 141.234 111.908 141.243C111.954 141.262 112.018 141.317 112.064 141.335C112.092 141.344 112.128 141.363 112.211 141.519C112.266 141.619 112.229 141.5 112.202 141.39C112.165 141.262 112.192 141.308 112.312 141.574C112.385 141.739 112.403 141.757 112.348 141.61C112.293 141.463 112.238 141.326 112.257 141.326C112.302 141.326 112.339 141.317 112.394 141.326C112.413 141.326 112.394 141.243 112.541 141.61C112.55 141.629 112.568 141.674 112.568 141.674C112.596 141.684 112.623 141.702 112.642 141.711C112.55 141.427 112.688 141.684 112.66 141.546C112.651 141.519 112.669 141.528 112.688 141.564C112.807 141.812 112.743 141.592 112.843 141.794C112.908 141.922 112.889 141.858 112.843 141.729C112.807 141.61 112.788 141.546 112.798 141.537C112.853 141.519 112.898 141.473 112.953 141.454C112.99 141.445 113.027 141.436 113.091 141.5C113.21 141.619 113.265 141.583 113.338 141.601C113.384 141.61 113.458 141.684 113.531 141.775C113.558 141.812 113.577 141.812 113.568 141.757C113.513 141.308 113.623 141.271 113.751 141.262C113.769 141.262 113.843 141.381 113.843 141.353C113.852 141.317 113.843 141.253 113.889 141.326C113.925 141.372 113.925 141.335 113.907 141.253C113.824 140.904 113.934 141.005 114.008 141.033C114.054 141.051 114.136 141.143 114.182 141.143C114.228 141.143 114.246 141.078 114.274 141.042C114.283 141.033 114.283 141.014 114.292 141.023C114.338 141.06 114.42 141.17 114.439 141.115C114.448 141.069 114.439 140.959 114.475 140.959C114.484 140.959 114.494 140.941 114.494 140.904C114.494 140.785 114.466 140.611 114.659 140.959C114.677 140.941 114.695 140.923 114.723 140.913C114.732 140.904 114.723 140.84 114.759 140.913C114.86 141.097 114.86 141.042 114.787 140.785C114.741 140.648 114.759 140.629 114.75 140.565C114.741 140.519 114.75 140.492 114.833 140.684C114.86 140.739 114.888 140.776 114.879 140.739C114.833 140.583 114.897 140.712 114.906 140.675C114.906 140.629 114.934 140.638 115.016 140.794C115.044 140.849 115.053 140.831 115.035 140.776C114.934 140.409 114.961 140.345 114.989 140.29C115.035 140.198 115.099 140.152 115.2 140.18C115.209 140.18 115.227 140.18 115.218 140.143C115.2 139.997 115.245 140.015 115.282 140.015C115.3 140.015 115.291 139.969 115.3 139.951C115.42 140.217 115.328 139.96 115.328 139.942C115.337 139.923 115.383 139.997 115.374 139.942C115.365 139.868 115.401 139.914 115.429 139.914C115.465 139.923 115.566 140.125 115.759 140.583C115.786 140.657 115.823 140.739 115.85 140.813C115.933 141.023 115.979 141.133 115.979 141.188C115.988 141.253 116.015 141.372 115.979 141.335C115.905 141.253 115.924 141.408 115.915 141.5C115.905 141.629 115.887 141.739 115.832 141.748C115.795 141.757 115.768 141.784 115.731 141.803C115.704 141.821 115.704 141.922 115.685 141.977C115.676 142.032 115.667 142.096 115.621 142.078C115.548 142.041 115.52 142.133 115.456 142.105C115.438 142.096 115.42 142.096 115.42 142.124C115.42 142.252 115.401 142.344 115.328 142.298C115.319 142.289 115.31 142.289 115.319 142.325C115.42 142.637 115.346 142.545 115.328 142.564C115.273 142.619 115.2 142.637 115.135 142.683C115.053 142.729 114.98 142.784 114.897 142.82C114.842 142.848 114.815 142.912 114.723 142.839C114.668 142.793 114.668 142.875 114.631 142.885C114.576 142.912 114.494 142.866 114.439 142.894C114.338 142.93 114.255 143.004 114.164 143.059C114.154 143.059 114.154 143.077 114.154 143.105C114.173 143.398 114.063 143.38 113.962 143.398C113.87 143.416 113.797 143.49 113.705 143.508C113.641 143.517 113.559 143.49 113.494 143.471C113.439 143.462 113.375 143.462 113.311 143.435C113.247 143.407 113.201 143.462 113.082 143.315C113.045 143.27 113.027 143.279 113.008 143.27C112.908 143.233 112.807 143.205 112.706 143.169C112.678 143.16 112.642 143.105 112.532 142.875C112.477 142.765 112.44 142.71 112.422 142.701C112.376 142.674 112.302 142.6 112.321 142.729C112.33 142.811 112.257 142.692 112.229 142.664C112.229 142.664 112.192 142.582 112.183 142.554C112.128 142.408 112.11 142.371 112.101 142.371C112.082 142.371 112.128 142.536 112.055 142.389C111.963 142.215 111.853 141.904 111.752 141.674C111.642 141.418 111.606 141.271 111.514 141.042C111.505 141.014 111.496 140.978 111.505 140.968C111.477 140.978 111.487 140.978 111.514 140.978Z" fill="#8ED6C7"/>
<path d="M106.719 136.065C106.774 136.056 106.866 136.037 106.958 136.028C107.003 136.019 107.068 136.019 107.104 136.01C107.132 136.001 107.159 135.992 107.297 136.065C107.425 136.138 107.416 136.102 107.352 136.028C107.315 135.982 107.26 135.927 107.279 135.927C107.343 135.9 107.444 135.891 107.508 135.863C107.544 135.845 107.59 135.827 107.764 135.9C107.874 135.946 107.783 135.854 107.7 135.772C107.609 135.671 107.654 135.698 107.911 135.854C108.067 135.946 108.085 135.955 107.966 135.863C107.847 135.772 107.719 135.68 107.746 135.662C107.801 135.616 107.847 135.561 107.911 135.524C107.929 135.515 107.884 135.442 108.195 135.671C108.214 135.68 108.25 135.707 108.259 135.707C108.296 135.698 108.333 135.68 108.37 135.662C108.149 135.46 108.415 135.588 108.324 135.478C108.305 135.46 108.324 135.451 108.36 135.469C108.599 135.607 108.443 135.442 108.635 135.542C108.764 135.607 108.718 135.561 108.617 135.469C108.525 135.386 108.48 135.331 108.489 135.322C108.544 135.249 108.58 135.148 108.645 135.075C108.681 135.029 108.727 134.983 108.828 134.983C109.011 134.983 109.066 134.891 109.167 134.827C109.222 134.791 109.341 134.8 109.46 134.809C109.506 134.809 109.534 134.8 109.497 134.745C109.25 134.332 109.378 134.176 109.516 134.039C109.534 134.02 109.671 134.075 109.662 134.039C109.653 134.002 109.616 133.938 109.708 133.965C109.772 133.984 109.754 133.938 109.699 133.874C109.47 133.59 109.635 133.59 109.736 133.535C109.8 133.498 109.928 133.516 109.983 133.47C110.038 133.425 110.029 133.342 110.047 133.278C110.047 133.269 110.038 133.241 110.056 133.241C110.13 133.223 110.267 133.26 110.267 133.186C110.267 133.122 110.203 133.021 110.249 132.984C110.267 132.975 110.258 132.948 110.249 132.92C110.194 132.792 110.102 132.645 110.46 132.81C110.478 132.774 110.496 132.737 110.515 132.691C110.524 132.673 110.487 132.618 110.561 132.645C110.762 132.728 110.735 132.664 110.542 132.48C110.441 132.379 110.441 132.343 110.414 132.288C110.386 132.242 110.386 132.214 110.561 132.324C110.616 132.361 110.661 132.361 110.634 132.334C110.515 132.224 110.652 132.279 110.643 132.242C110.625 132.187 110.661 132.178 110.827 132.251C110.882 132.279 110.882 132.251 110.845 132.214C110.579 131.939 110.588 131.848 110.597 131.756C110.616 131.609 110.68 131.499 110.808 131.426C110.827 131.417 110.836 131.398 110.817 131.362C110.735 131.233 110.79 131.197 110.836 131.16C110.854 131.142 110.836 131.105 110.827 131.068C111.074 131.224 110.863 131.05 110.863 131.032C110.863 131.004 110.946 131.041 110.918 130.986C110.882 130.922 110.946 130.922 110.973 130.903C111.028 130.876 111.221 130.986 111.633 131.27C111.697 131.316 111.771 131.362 111.835 131.417C112.018 131.554 112.11 131.628 112.138 131.683C112.174 131.747 112.248 131.848 112.193 131.839C112.073 131.839 112.156 131.976 112.183 132.077C112.22 132.224 112.248 132.352 112.183 132.425C112.138 132.471 112.119 132.535 112.083 132.59C112.055 132.645 112.092 132.746 112.101 132.819C112.101 132.884 112.119 132.966 112.064 132.994C111.963 133.03 111.972 133.159 111.872 133.205C111.844 133.214 111.826 133.232 111.835 133.269C111.881 133.406 111.899 133.516 111.789 133.544C111.78 133.544 111.762 133.553 111.798 133.58C112.046 133.8 111.917 133.782 111.899 133.819C111.853 133.938 111.771 134.03 111.716 134.14C111.642 134.268 111.569 134.406 111.487 134.534C111.432 134.616 111.422 134.717 111.285 134.736C111.202 134.745 111.23 134.836 111.193 134.882C111.138 134.965 111.019 135.011 110.964 135.093C110.863 135.24 110.781 135.396 110.698 135.552C110.689 135.561 110.698 135.579 110.707 135.607C110.845 135.9 110.698 135.992 110.597 136.111C110.496 136.221 110.441 136.367 110.341 136.477C110.276 136.551 110.157 136.606 110.066 136.661C109.992 136.707 109.928 136.771 109.836 136.808C109.745 136.853 109.717 136.945 109.516 136.918C109.46 136.908 109.442 136.927 109.415 136.945C109.277 137.018 109.149 137.092 109.011 137.156C108.975 137.174 108.91 137.165 108.69 137.037C108.58 136.973 108.516 136.963 108.498 136.963C108.434 136.991 108.324 136.982 108.388 137.092C108.434 137.174 108.296 137.119 108.25 137.119C108.25 137.119 108.177 137.073 108.149 137.055C108.03 136.963 107.984 136.945 107.975 136.954C107.957 136.973 108.076 137.092 107.929 137.018C107.746 136.927 107.499 136.725 107.288 136.578C107.058 136.422 106.948 136.312 106.747 136.166C106.719 136.147 106.701 136.12 106.701 136.102C106.683 136.111 106.692 136.092 106.719 136.065Z" fill="#8ED6C7"/>
<path d="M93.3884 135.167C93.4159 135.103 93.4525 135.012 93.4892 134.92C93.5075 134.874 93.5442 134.819 93.5625 134.773C93.5717 134.737 93.5717 134.709 93.7184 134.636C93.8559 134.572 93.8101 134.553 93.7184 134.562C93.6542 134.562 93.5809 134.572 93.59 134.553C93.5992 134.471 93.6542 134.37 93.6542 134.297C93.6542 134.242 93.6726 134.187 93.8192 134.086C93.9201 134.022 93.7917 134.04 93.6726 134.049C93.535 134.058 93.5809 134.031 93.8559 133.921C94.0209 133.847 94.0393 133.838 93.8926 133.875C93.7459 133.911 93.5992 133.957 93.5992 133.93C93.5901 133.847 93.5625 133.765 93.5717 133.673C93.5717 133.646 93.48 133.636 93.8651 133.526C93.8834 133.517 93.9293 133.499 93.9293 133.499C93.9384 133.453 93.9476 133.407 93.9476 133.371C93.6542 133.416 93.9109 133.279 93.7642 133.27C93.7367 133.27 93.7367 133.251 93.7826 133.233C94.0393 133.114 93.8009 133.132 94.0026 133.031C94.131 132.967 94.0668 132.967 93.9293 132.995C93.8101 133.022 93.7367 133.022 93.7276 133.004C93.6909 132.894 93.6267 132.784 93.5992 132.674C93.5809 132.6 93.5625 132.527 93.6176 132.435C93.7184 132.261 93.6726 132.142 93.6726 132.005C93.6726 131.922 93.7459 131.821 93.8192 131.72C93.8467 131.675 93.8468 131.647 93.7917 131.638C93.2967 131.555 93.2417 131.317 93.1958 131.079C93.1867 131.042 93.315 130.969 93.2783 130.941C93.2417 130.914 93.1683 130.904 93.2325 130.84C93.2783 130.794 93.2325 130.776 93.15 130.776C92.7741 130.776 92.8749 130.611 92.8841 130.483C92.8933 130.4 92.9758 130.29 92.9666 130.208C92.9575 130.125 92.8841 130.07 92.8383 129.997C92.8291 129.988 92.8108 129.978 92.8108 129.96C92.8383 129.878 92.9391 129.777 92.8841 129.731C92.8291 129.685 92.7099 129.658 92.7008 129.593C92.7008 129.575 92.6733 129.557 92.6366 129.548C92.4991 129.502 92.3157 129.465 92.6641 129.273C92.6366 129.227 92.6183 129.181 92.5907 129.135C92.5816 129.108 92.5082 129.107 92.5816 129.062C92.7649 128.942 92.7008 128.915 92.4257 128.952C92.279 128.97 92.2515 128.933 92.1874 128.924C92.1415 128.915 92.1049 128.897 92.3065 128.814C92.3616 128.787 92.3982 128.75 92.3524 128.759C92.1874 128.777 92.3157 128.704 92.279 128.686C92.224 128.658 92.2332 128.622 92.3891 128.53C92.4441 128.502 92.4257 128.475 92.3615 128.484C91.9765 128.521 91.9032 128.447 91.8298 128.365C91.7106 128.237 91.6465 128.09 91.6648 127.925C91.6648 127.897 91.6648 127.879 91.619 127.87C91.4631 127.842 91.4631 127.769 91.4631 127.696C91.4631 127.668 91.4081 127.65 91.3806 127.631C91.6464 127.521 91.3897 127.586 91.3714 127.576C91.3439 127.558 91.4264 127.503 91.3622 127.494C91.2889 127.476 91.3256 127.421 91.3256 127.384C91.3256 127.311 91.5364 127.21 92.004 127.054C92.0865 127.026 92.1599 126.999 92.2424 126.971C92.4624 126.898 92.5724 126.871 92.6366 126.889C92.7099 126.907 92.8383 126.907 92.8016 126.962C92.7283 127.072 92.9025 127.1 92.9941 127.155C93.1408 127.228 93.2692 127.311 93.2967 127.421C93.315 127.494 93.3517 127.567 93.3792 127.631C93.4067 127.696 93.5167 127.741 93.59 127.796C93.6542 127.842 93.7276 127.888 93.7184 127.962C93.7001 128.09 93.8101 128.172 93.7917 128.292C93.7917 128.319 93.7826 128.356 93.8284 128.374C93.9659 128.438 94.076 128.502 94.0393 128.622C94.0393 128.631 94.0301 128.649 94.0759 128.64C94.406 128.585 94.3143 128.677 94.3418 128.732C94.4152 128.869 94.461 129.007 94.516 129.153C94.5894 129.328 94.6627 129.493 94.7269 129.667C94.7635 129.777 94.8461 129.868 94.791 130.006C94.7544 130.088 94.8461 130.134 94.8644 130.198C94.9011 130.318 94.8827 130.455 94.9194 130.574C94.9836 130.776 95.0753 130.969 95.1669 131.17C95.1761 131.179 95.1944 131.189 95.2219 131.198C95.5428 131.299 95.552 131.5 95.5978 131.693C95.6345 131.876 95.7353 132.032 95.772 132.215C95.7995 132.335 95.7812 132.472 95.7812 132.61C95.7812 132.72 95.7903 132.821 95.7812 132.931C95.772 133.05 95.827 133.151 95.6987 133.306C95.662 133.352 95.6712 133.389 95.662 133.426C95.6437 133.6 95.6437 133.783 95.6162 133.957C95.607 134.003 95.5612 134.058 95.332 134.168C95.2219 134.223 95.1669 134.269 95.1669 134.297C95.1486 134.379 95.0844 134.471 95.2219 134.498C95.3136 134.517 95.1944 134.599 95.1669 134.654C95.1669 134.654 95.0844 134.691 95.0569 134.7C94.9102 134.737 94.8644 134.764 94.8644 134.782C94.8644 134.819 95.0386 134.792 94.8919 134.874C94.7085 134.975 94.3968 135.048 94.1585 135.14C93.9018 135.241 93.7367 135.25 93.4984 135.323C93.4709 135.333 93.4342 135.323 93.425 135.314C93.4067 135.241 93.4067 135.213 93.3884 135.167Z" fill="#8ED6C7"/>
<path d="M87.3278 143.637C87.3278 143.582 87.3186 143.508 87.3186 143.426C87.3186 143.38 87.3186 143.334 87.3186 143.298C87.3186 143.27 87.3095 143.252 87.3736 143.105C87.4378 142.968 87.4103 142.995 87.3461 143.068C87.3095 143.114 87.2636 143.169 87.2636 143.16C87.2453 143.105 87.2453 143.023 87.2269 142.968C87.2086 142.94 87.1995 142.894 87.2636 142.729C87.3095 142.619 87.227 142.729 87.1628 142.812C87.0803 142.922 87.0986 142.867 87.2361 142.61C87.3186 142.445 87.3278 142.427 87.2453 142.555C87.1628 142.683 87.0894 142.821 87.0803 142.802C87.0528 142.757 87.0069 142.738 86.9794 142.683C86.9703 142.665 86.9152 142.729 87.1169 142.39C87.1261 142.372 87.1536 142.326 87.1536 142.326C87.1444 142.298 87.1353 142.271 87.1261 142.243C86.9611 142.491 87.0711 142.225 86.9794 142.326C86.9611 142.344 86.9611 142.335 86.9794 142.289C87.0986 142.042 86.9611 142.225 87.0528 142.023C87.1078 141.895 87.0711 141.95 86.9978 142.06C86.9244 142.161 86.8877 142.216 86.8786 142.207C86.8236 142.17 86.7502 142.161 86.6952 142.124C86.6585 142.097 86.631 142.069 86.631 141.977C86.6402 141.812 86.576 141.785 86.5302 141.702C86.5027 141.657 86.521 141.556 86.5302 141.436C86.5394 141.391 86.5302 141.372 86.4843 141.418C86.1543 141.739 86.0443 141.657 85.9434 141.556C85.9251 141.537 85.9801 141.409 85.9526 141.427C85.9251 141.446 85.8701 141.491 85.8976 141.409C85.9159 141.354 85.8793 141.381 85.8243 141.436C85.5951 141.712 85.6042 141.556 85.5676 141.473C85.5492 141.418 85.5676 141.299 85.5401 141.262C85.5126 141.226 85.4392 141.253 85.3934 141.244C85.3842 141.244 85.3659 141.253 85.3659 141.244C85.3567 141.18 85.3934 141.051 85.3384 141.07C85.2925 141.088 85.21 141.161 85.1825 141.134C85.1733 141.125 85.155 141.134 85.1275 141.152C85.0267 141.226 84.9075 141.345 85.0542 140.978C85.0267 140.969 84.9992 140.96 84.9716 140.96C84.9533 140.96 84.9075 141.006 84.9441 140.932C85.0175 140.731 84.9716 140.767 84.8158 140.987C84.7333 141.106 84.7058 141.106 84.6599 141.152C84.6233 141.18 84.6049 141.198 84.6966 141.006C84.7241 140.951 84.7333 140.905 84.7058 140.941C84.6141 141.07 84.6691 140.941 84.6416 140.96C84.5958 140.987 84.5958 140.96 84.6599 140.795C84.6783 140.74 84.6691 140.74 84.6324 140.786C84.4032 141.088 84.3299 141.106 84.2657 141.116C84.1557 141.134 84.064 141.106 84.0274 141.006C84.0182 140.987 84.009 140.987 83.9815 141.015C83.8807 141.116 83.8532 141.07 83.8257 141.042C83.8165 141.033 83.7798 141.061 83.7523 141.07C83.8898 140.813 83.7431 141.042 83.7248 141.051C83.7065 141.061 83.734 140.969 83.6881 141.015C83.6331 141.061 83.6423 141.006 83.6331 140.978C83.6148 140.932 83.7065 140.731 83.954 140.3C83.9907 140.226 84.0365 140.153 84.0732 140.08C84.1924 139.878 84.2474 139.777 84.2932 139.74C84.3482 139.695 84.4216 139.603 84.4216 139.649C84.4124 139.759 84.5224 139.649 84.6049 139.603C84.7149 139.539 84.825 139.484 84.88 139.53C84.9166 139.557 84.9625 139.566 84.9992 139.585C85.0358 139.603 85.1183 139.539 85.1825 139.52C85.2375 139.502 85.3017 139.465 85.3109 139.511C85.3384 139.594 85.43 139.557 85.4575 139.64C85.4667 139.658 85.4759 139.676 85.5034 139.658C85.6134 139.585 85.7051 139.539 85.7142 139.63C85.7142 139.64 85.7142 139.658 85.7418 139.621C85.9251 139.355 85.8976 139.465 85.9343 139.475C86.026 139.493 86.0901 139.539 86.1726 139.575C86.2735 139.612 86.3652 139.649 86.466 139.695C86.521 139.722 86.6035 139.713 86.6127 139.832C86.6127 139.905 86.6861 139.86 86.7227 139.878C86.7869 139.915 86.8144 140.006 86.8694 140.043C86.9702 140.107 87.0894 140.135 87.2086 140.18C87.2178 140.18 87.2361 140.171 87.2453 140.162C87.4745 139.979 87.5478 140.08 87.6303 140.153C87.7129 140.217 87.8229 140.235 87.9054 140.309C87.9604 140.355 87.9879 140.446 88.0337 140.511C88.0704 140.566 88.1071 140.611 88.1346 140.685C88.1621 140.758 88.2354 140.767 88.1988 140.951C88.1896 141.006 88.2079 141.015 88.2171 141.033C88.2629 141.143 88.3179 141.244 88.3546 141.354C88.3638 141.381 88.3546 141.446 88.2446 141.675C88.1896 141.785 88.1713 141.849 88.1804 141.867C88.1988 141.922 88.1804 142.023 88.2721 141.941C88.3363 141.886 88.2904 142.014 88.2904 142.06C88.2904 142.06 88.2538 142.133 88.2354 142.161C88.1529 142.289 88.1346 142.335 88.1437 142.344C88.1529 142.362 88.2629 142.216 88.1896 142.372C88.1071 142.555 87.9329 142.83 87.8137 143.05C87.6853 143.298 87.5845 143.417 87.4653 143.628C87.447 143.655 87.4195 143.683 87.4195 143.683C87.3553 143.664 87.3553 143.646 87.3278 143.637Z" fill="#8ED6C7"/>
<path d="M85.4765 153.957C85.4398 153.921 85.3848 153.857 85.339 153.792C85.3115 153.756 85.284 153.71 85.2565 153.692C85.2381 153.673 85.2198 153.664 85.1831 153.508C85.1556 153.361 85.1464 153.398 85.1373 153.49C85.1373 153.545 85.1281 153.618 85.1189 153.618C85.0731 153.591 85.0181 153.517 84.9723 153.49C84.9356 153.471 84.9081 153.453 84.8622 153.279C84.8347 153.169 84.8347 153.297 84.8256 153.407C84.8164 153.545 84.8072 153.49 84.7614 153.196C84.7339 153.013 84.7247 152.995 84.7339 153.151C84.743 153.306 84.7614 153.453 84.7431 153.453C84.688 153.435 84.6422 153.444 84.5872 153.416C84.5689 153.407 84.5505 153.49 84.523 153.096C84.523 153.077 84.5139 153.022 84.5139 153.022C84.4864 153.004 84.4589 152.986 84.4314 152.967C84.4314 153.261 84.3672 152.976 84.358 153.123C84.358 153.151 84.3488 153.141 84.3397 153.096C84.2938 152.821 84.2847 153.05 84.2388 152.83C84.2113 152.692 84.2113 152.756 84.2113 152.894C84.2113 153.013 84.2113 153.086 84.193 153.086C84.1196 153.086 84.0555 153.123 83.9821 153.123C83.9363 153.123 83.8904 153.123 83.8446 153.041C83.7529 152.903 83.6704 152.912 83.5879 152.885C83.5421 152.866 83.487 152.766 83.4229 152.674C83.4045 152.637 83.3862 152.628 83.3679 152.683C83.2762 153.141 83.1295 153.141 82.9828 153.114C82.9645 153.114 82.9278 152.976 82.9095 153.004C82.8911 153.031 82.882 153.105 82.8453 153.022C82.827 152.967 82.8086 153.004 82.7994 153.086C82.7628 153.444 82.6803 153.316 82.5978 153.27C82.5428 153.242 82.4877 153.132 82.4419 153.114C82.3961 153.096 82.3502 153.16 82.3044 153.187C82.2952 153.196 82.2861 153.215 82.2769 153.206C82.231 153.16 82.176 153.031 82.1485 153.077C82.1119 153.123 82.0935 153.233 82.0477 153.215C82.0385 153.215 82.0202 153.233 82.011 153.261C81.9743 153.38 81.9377 153.554 81.846 153.16C81.8185 153.169 81.791 153.187 81.7543 153.196C81.736 153.206 81.7268 153.27 81.7085 153.187C81.6535 152.986 81.6351 153.041 81.626 153.306C81.626 153.453 81.5985 153.471 81.5893 153.526C81.5801 153.572 81.571 153.6 81.5343 153.389C81.5251 153.325 81.5068 153.288 81.5068 153.325C81.5068 153.481 81.4701 153.343 81.4518 153.38C81.4334 153.426 81.4059 153.407 81.3693 153.233C81.3601 153.178 81.3418 153.187 81.3418 153.242C81.3326 153.627 81.2776 153.673 81.2226 153.728C81.1309 153.811 81.0392 153.838 80.9384 153.783C80.92 153.774 80.9109 153.774 80.9017 153.82C80.8742 153.967 80.8283 153.939 80.7825 153.93C80.7642 153.93 80.755 153.967 80.7367 153.994C80.6908 153.71 80.7092 153.976 80.7 153.994C80.6817 154.012 80.6633 153.921 80.645 153.985C80.6267 154.058 80.5992 154.003 80.5717 153.994C80.5258 153.976 80.4891 153.747 80.4341 153.261C80.425 153.178 80.4158 153.096 80.4066 153.013C80.3791 152.784 80.3791 152.665 80.3883 152.61C80.4066 152.546 80.4158 152.417 80.4433 152.463C80.5075 152.564 80.535 152.399 80.5717 152.325C80.6267 152.206 80.6908 152.105 80.7642 152.105C80.81 152.105 80.8559 152.087 80.9017 152.078C80.9475 152.069 80.975 151.968 81.0209 151.922C81.0576 151.876 81.0851 151.812 81.1309 151.84C81.2042 151.895 81.2684 151.803 81.3418 151.858C81.3601 151.867 81.3784 151.876 81.3968 151.849C81.4426 151.73 81.4976 151.638 81.571 151.702C81.5801 151.711 81.5893 151.72 81.5893 151.675C81.5893 151.345 81.6351 151.455 81.6718 151.445C81.7635 151.409 81.846 151.4 81.9377 151.381C82.0477 151.354 82.1577 151.326 82.2677 151.308C82.3319 151.299 82.3961 151.244 82.4786 151.335C82.5244 151.39 82.5611 151.317 82.5978 151.308C82.6711 151.299 82.7536 151.363 82.827 151.354C82.9553 151.345 83.0837 151.299 83.2028 151.262C83.212 151.262 83.2212 151.244 83.2212 151.216C83.3129 150.932 83.432 150.969 83.5512 150.978C83.6612 150.987 83.7713 150.932 83.8813 150.941C83.9546 150.941 84.0371 150.996 84.1196 151.033C84.1838 151.06 84.248 151.079 84.3122 151.115C84.3855 151.161 84.4497 151.124 84.5322 151.29C84.5597 151.335 84.578 151.335 84.5964 151.354C84.7064 151.409 84.8072 151.464 84.9172 151.528C84.9448 151.546 84.9723 151.601 85.0181 151.858C85.0364 151.977 85.0639 152.041 85.0823 152.05C85.1281 152.087 85.1831 152.179 85.2106 152.05C85.229 151.968 85.2656 152.105 85.3023 152.142C85.3023 152.142 85.3206 152.225 85.3206 152.261C85.3298 152.417 85.339 152.463 85.3573 152.463C85.3756 152.472 85.3756 152.298 85.4123 152.463C85.4582 152.656 85.4673 152.986 85.504 153.233C85.5407 153.508 85.5315 153.664 85.559 153.912C85.559 153.948 85.559 153.976 85.5498 153.985C85.5223 153.957 85.504 153.957 85.4765 153.957Z" fill="#8ED6C7"/>
</svg>
