<svg width="116" height="134" viewBox="0 0 116 134" fill="none" xmlns="http://www.w3.org/2000/svg">
<path d="M57.2753 132.225C57.361 132.408 57.6052 132.44 57.7351 132.285C64.2464 124.533 70.8325 116.393 77.4438 107.86C85.8352 97.0372 93.6274 86.4073 100.864 76.0453C100.959 75.9108 100.908 75.7205 100.765 75.644L10.1385 29.4121C9.90467 29.2947 9.65887 29.5363 9.76838 29.772L57.2753 132.225ZM60.4618 101.284L41.8174 63.1465C41.6942 62.8988 41.9757 62.6499 42.2061 62.7959L73.4008 82.0235C73.5346 82.1057 73.5682 82.279 73.4831 82.4078L60.9329 101.318C60.8195 101.49 60.5583 101.474 60.4618 101.284Z" fill="white"/>
<path d="M57.746 97.6041C57.2991 96.4273 56.8165 95.2578 56.4181 94.073C56.0609 93.0171 55.7174 91.9733 55.0781 91.0272C54.9115 90.7846 54.811 90.484 54.6735 90.2113C54.4272 89.7158 54.186 89.2174 53.9298 88.7276C53.8132 88.5027 53.6083 88.3088 53.5381 88.0836C53.1778 86.9764 52.7129 85.9296 52.0443 84.9672C51.8483 84.064 51.315 83.3357 50.8555 82.5514C50.3961 81.7672 50.0334 80.9204 49.4872 80.1929C49.3415 79.9981 49.2063 79.7639 49.1332 79.5338C48.6554 78.1424 47.9546 76.8597 47.271 75.5606C46.5327 74.1668 45.8978 72.7333 45.3931 71.2378C45.1262 70.442 44.7367 69.6638 44.358 68.8928C44.1347 68.4371 43.8937 67.9851 43.6555 67.5381L43.2929 66.864L42.8639 66.0289C42.4658 65.2358 41.9329 64.3013 41.7495 63.65C41.6338 63.3116 41.5155 63.0146 41.4407 62.7124C41.4299 62.5326 41.6444 62.329 41.7914 62.3305C41.9214 62.3485 42.0215 62.3837 42.1485 62.3967L42.6683 62.4686C42.8554 62.4934 43.0896 62.5309 43.3706 62.6609C43.9605 62.958 44.6057 63.3162 45.2795 63.6778L45.7937 63.9588L46.0548 64.1003L46.2279 64.193L46.8851 64.5376L48.1976 65.2346C49.0845 65.7122 49.9191 66.3065 50.7622 66.8692C52.4532 67.9919 54.123 69.1469 55.8232 70.251C57.1049 71.0787 58.4148 71.8634 59.7319 72.6374C60.9581 73.3576 62.2197 74.0241 63.4509 74.7415L74.0114 80.9064C74.2712 81.0687 74.4611 81.2712 74.5862 81.4647C74.7018 81.6304 74.8087 81.9075 74.8191 82.1672C74.8341 82.5039 74.7511 82.9238 74.4561 83.3333C74.2088 83.7218 73.8814 84.2363 73.8042 84.3672L73.0138 85.6672C72.746 86.1008 72.4645 86.5224 72.1803 86.9389L68.9908 91.5967L64.5027 98.3196C64.0767 98.9508 63.6457 99.5849 63.2305 100.223C63.0228 100.542 62.818 100.866 62.6261 101.19L62.3386 101.681L62.1992 101.935L62.1319 102.06L62.1157 102.089C62.0802 102.143 62.0348 102.202 61.9894 102.262C61.8958 102.375 61.7885 102.477 61.6647 102.562C61.0956 102.957 60.4896 102.908 60.0957 102.744C59.6861 102.575 59.4708 102.294 59.3801 102.114C59.2894 101.934 59.299 101.835 59.3475 101.827C59.4009 101.816 59.4933 101.896 59.675 102.004C60.311 102.38 60.9604 102.079 61.1318 101.628C61.1515 101.57 61.1662 101.515 61.1681 101.46L61.1463 101.353C61.1317 101.282 61.127 101.205 61.1195 101.123C61.1124 100.961 61.1281 100.793 61.1629 100.6C61.2733 100.078 61.4103 99.6134 61.8071 99.1386C62.387 98.4517 62.719 97.5427 63.445 96.9708C63.5459 96.8925 63.6395 96.7322 63.7038 96.6021C64.8863 94.2322 66.4916 92.123 67.9846 89.9458C68.4702 89.2337 68.9071 88.4832 69.3712 87.757C69.6702 87.2854 69.9849 86.8181 70.2947 86.3536C70.749 85.6795 71.2435 85.0287 71.6686 84.3382C71.8308 84.0785 71.9744 83.8096 72.1481 83.5697C72.2311 83.4488 72.3248 83.3349 72.4321 83.2331C72.5415 83.1235 72.6169 83.0932 72.7564 83.0126C72.8639 82.9572 73.0091 82.7139 72.9788 82.6384C72.909 82.506 72.9791 82.3859 72.8373 82.2552C72.6878 82.1688 72.5626 82.1016 72.4388 82.0137L72.3851 81.9782L70.8086 80.9621C70.2347 80.5893 69.6588 80.2244 69.0728 79.8652C68.2085 79.3346 67.3258 78.8413 66.4339 78.3665C65.0521 77.6298 63.6448 76.9411 62.2622 76.1917C61.1064 75.5703 59.9781 74.8932 58.8386 74.2425C58.5718 74.091 58.2895 73.9817 58.0276 73.8273C57.5469 73.5469 57.0134 73.2902 56.6187 72.9402C56.1803 72.549 55.7988 72.291 55.2219 72.2123C54.8971 72.1673 54.497 71.9001 54.1771 71.6796C53.7655 71.3925 53.3894 71.0517 53.019 70.7208C52.5749 70.3197 52.1629 69.9397 51.5335 69.7584C51.1977 69.66 50.8218 69.3656 50.5281 69.1101C49.2259 67.9821 47.7528 67.0989 46.2464 66.2615L45.4789 65.841L45.1112 65.6415L44.9712 65.5829C44.7889 65.5087 44.6438 65.453 44.5259 65.4214C44.413 65.387 44.3274 65.3766 44.2789 65.3847C44.2396 65.3742 44.2216 65.5041 44.2983 65.5794L44.4497 65.7843C44.5897 65.9692 44.6386 66.0538 44.7032 66.1427C44.7147 66.1627 44.6996 66.1249 44.7349 66.1975L44.8572 66.4325L45.0998 66.9102L45.5721 67.8663L46.4969 69.7901L48.2865 73.6723C48.5207 74.1815 48.7477 74.7013 49.0338 75.1739C49.6973 76.2654 50.2305 77.419 50.7159 78.5934C51.3009 80.0093 52.0531 81.3353 52.8182 82.6604C52.9965 82.9693 53.2027 83.2688 53.3404 83.5879C54.2901 85.8427 55.5752 87.9304 56.6025 90.1471C57.4318 91.94 58.1756 93.7691 58.9343 95.5895C59.5036 97.0011 60.0779 98.4099 60.65 99.8266C60.6889 99.917 60.7535 100.006 60.7924 100.096C61.1064 100.905 60.9192 101.305 60.2713 101.161C59.7021 101.038 59.2066 100.64 58.8731 99.9358C58.5014 99.154 58.1576 98.3628 57.8037 97.5774L57.746 97.6041Z" fill="#E4C985"/>
<path d="M64.698 122.566C66.9703 119.932 69.2568 117.277 71.4999 114.673C73.5232 112.356 75.4973 110.08 77.2882 107.499C77.7483 106.834 78.3161 106.161 78.8326 105.491C79.7697 104.272 80.704 103.049 81.6226 101.821C82.0425 101.26 82.4056 100.612 82.8244 100.117C84.8806 97.6615 86.8194 95.1406 88.5784 92.4578C90.239 90.5823 91.5597 88.498 92.974 86.426C94.3883 84.354 95.9147 82.3037 97.2103 80.1873C97.5553 79.6228 97.9792 78.9994 98.3857 78.4724L99.2171 77.3813L99.8902 76.4879L100.114 76.1857C100.217 76.0997 100.191 75.9157 100.062 75.877L99.4022 75.5275L97.339 74.4735C95.9309 73.7719 94.5229 73.0704 93.1069 72.3668C89.1918 70.4291 85.3325 68.3928 81.5641 66.2376C79.5547 65.0927 77.3984 63.9928 75.2852 62.9212C72.7587 61.6631 70.2322 60.405 67.7057 59.1469C64.0464 57.3073 60.3952 55.5162 56.6972 53.8052C51.7587 51.5218 46.8063 49.1799 41.8745 46.793C39.366 45.5776 36.8649 44.2252 34.3767 42.9184C29.3946 40.2948 24.4174 37.6684 19.4353 35.0448C17.5551 34.0778 15.67 33.1136 13.782 32.1445L11.9483 31.2237L11.6402 31.0695L11.4885 30.991C11.4406 30.9655 11.3848 30.9379 11.3329 30.9745C11.2141 31.0564 11.3203 31.1944 11.3621 31.2898L11.5176 31.6052C13.0545 34.7964 14.5906 37.9747 16.1275 41.1659L31.203 72.915C32.4223 75.4526 33.6387 77.9851 34.863 80.5199C35.4702 81.7901 36.0624 83.069 36.6467 84.3457L43.1612 98.5858L52.5791 118.948C54.3515 122.8 56.1011 126.659 58.0151 130.423C58.5529 131.481 58.5975 131.88 58.1602 131.595C57.4038 131.101 56.6952 130.76 55.5816 129.038C54.8286 127.872 54.1515 126.768 53.5002 125.191C52.551 122.903 51.2494 120.626 50.4855 118.29C50.3756 117.962 50.1552 117.511 49.9688 117.154C46.6028 110.668 43.6759 103.941 40.6266 97.2792C39.6301 95.1046 38.5731 92.9515 37.5509 90.7784L35.5884 86.5509C34.6481 84.4966 33.7378 82.425 32.7704 80.3929C32.0365 78.8571 31.2608 77.3985 30.8738 75.8883C30.7903 75.5711 30.4043 74.7644 30.2112 74.5105C29.4641 73.5271 28.9025 72.2438 28.3153 70.9621L23.5806 60.6099C22.3969 58.065 21.1776 55.5274 19.942 53.0191C18.0124 49.1247 16.0865 45.2482 14.1569 41.3538C13.3704 39.7155 12.5761 38.075 11.7868 36.4317L10.6127 33.961L9.86288 32.3746L9.36076 31.3094C9.2058 30.9605 8.9893 30.574 8.91159 30.2668C8.77419 29.6952 8.83908 29.3588 8.86275 29.0661C8.87672 28.9983 8.86574 28.9449 8.91669 28.849C8.96763 28.7532 9.06629 28.6364 9.16726 28.5582C9.27322 28.4771 9.35164 28.4518 9.40511 28.4408C9.46355 28.427 9.53981 28.4095 9.61398 28.3999C9.88783 28.368 10.2306 28.283 10.8095 28.4802C11.4136 28.7558 12.0523 29.0912 12.6737 29.3967C13.1658 29.6506 13.655 29.8996 14.1313 30.1494C14.4667 30.3277 14.7972 30.5089 15.1098 30.6937C16.502 31.5173 17.6148 32.1103 19.0475 32.5785C19.8522 32.8446 21.0308 33.4594 21.9843 33.9717C23.2095 34.6327 24.3985 35.3345 25.5668 36.035C26.9726 36.8707 28.2804 37.6633 29.9272 38.3067C30.8114 38.6531 31.9481 39.2988 32.8695 39.8363C36.9408 42.2284 41.2038 44.3771 45.4893 46.473C51.3115 49.309 57.1278 52.1351 62.9471 54.9661C65.2254 56.0819 67.5002 57.2263 69.7751 58.3706C76.8483 61.9125 83.8565 65.5717 90.8596 69.2337C92.2328 69.9554 93.6275 70.6912 95.0118 71.3401C96.2531 71.9253 97.4823 72.5242 98.7073 73.1388L100.863 74.2388C101.148 74.3866 101.461 74.5251 101.658 74.7169C101.865 74.9157 101.984 75.0864 102.082 75.3022C102.13 75.4204 102.167 75.5651 102.175 75.6935C102.186 75.8269 102.173 75.9204 102.159 76.0347C102.127 76.266 102.037 76.5368 101.852 76.803L100.823 78.2411L100.12 79.1982C97.5907 82.618 95.2053 86.1142 92.7984 89.5962C92.2362 90.4057 91.6912 91.2451 91.101 92.0177C86.9716 97.4175 83.0783 102.973 78.8879 108.302C75.4951 112.619 71.9926 116.827 68.4657 121.015C65.7423 124.248 62.9694 127.43 60.1858 130.604C59.9998 130.812 59.8339 131.053 59.6529 131.258C59.2546 131.707 58.9051 132.068 58.6145 132.335C58.4681 132.473 58.3401 132.573 58.2171 132.671C58.0545 132.838 57.84 132.915 57.6652 132.923C57.4855 132.934 57.3354 132.881 57.231 132.815C57.0113 132.676 56.962 132.499 56.9623 132.419C56.9648 132.331 57.0154 132.315 57.0832 132.329C57.1511 132.343 57.2548 132.396 57.3732 132.394C57.4945 132.397 57.6261 132.315 57.6428 132.206C57.9228 131.16 58.7486 129.76 60.1362 128.102L64.7496 122.609L64.698 122.566Z" fill="#E4C985"/>
<path d="M21.0992 44.6453C21.0089 44.5579 20.9309 44.5033 20.8225 44.3732C20.7278 44.2552 20.6253 44.1351 20.6482 44.3012C20.6533 44.3447 20.6282 44.3128 20.6132 44.3214C20.5933 44.3329 20.5705 44.3394 20.5563 44.3609C20.5492 44.3716 20.5754 44.4628 20.556 44.4408C20.4527 44.3078 20.3919 44.2831 20.4134 44.47C20.2963 44.2785 20.3241 44.4418 20.3159 44.5196C20.3077 44.5975 20.2569 44.567 20.2826 44.7381C20.2907 44.7866 20.2865 44.8023 20.2671 44.7803C20.1423 44.6331 20.1113 44.7175 20.0766 44.784C20.037 44.8534 19.9555 44.8273 19.8192 44.6603C19.7467 44.5693 19.7147 44.5944 19.6819 44.6067C19.6442 44.6218 19.6281 44.6975 19.594 44.7305C19.5478 44.7771 19.5139 44.8564 19.519 45.0262C19.5221 45.2503 19.5073 45.4315 19.4822 45.5722C19.4632 45.6429 19.4009 45.5926 19.3509 45.575C19.2459 45.5426 19.1306 45.4696 19.035 45.4651C18.9651 45.459 18.916 45.5005 18.8678 45.555C18.8245 45.6065 18.805 45.7108 18.7645 45.7673C18.6433 45.937 18.5212 46.0938 18.4021 46.2556C18.3737 46.2986 18.3597 46.3664 18.3314 46.4093C18.3172 46.4308 18.2973 46.4423 18.2766 46.441C18.1946 46.4485 18.106 46.4332 18.0298 46.4506C17.9178 46.4754 17.8232 46.53 17.7113 46.5548C17.6479 46.5715 17.58 46.5575 17.5772 46.7252C17.5774 46.7716 17.5241 46.6562 17.4259 46.3941C17.2548 45.9482 17.0772 45.4795 16.9989 45.2058C16.9438 45.0184 16.9068 44.8738 16.9591 44.9299C17.0337 45.0131 16.9842 44.7892 17.1259 45.0462C17.146 45.081 17.1502 45.0653 17.1466 45.0475C17.1208 44.7037 17.2904 44.8249 17.406 44.818C17.4445 44.8157 17.4564 44.7557 17.4855 44.7256C17.5026 44.7091 17.5225 44.6976 17.5482 44.6961C17.5838 44.6888 17.6296 44.7221 17.6509 44.6899C17.67 44.6656 17.6539 44.5686 17.7828 44.8263C17.8066 44.879 17.8157 44.8604 17.7941 44.7999C17.7095 44.5498 17.7417 44.5711 17.7674 44.5695C17.8266 44.5685 17.8973 44.5875 17.95 44.5637C17.9849 44.5436 18.0075 44.4907 18.0236 44.415C18.0452 44.3028 18.048 44.1351 18.0725 44.028C18.0928 43.9366 18.1397 43.9029 18.1694 43.8392C18.1736 43.8235 18.1677 43.7671 18.1748 43.7564C18.1889 43.7349 18.1901 43.6679 18.2411 43.7447C18.3028 43.8286 18.3243 43.8428 18.2619 43.6197C18.2236 43.4957 18.2471 43.5021 18.2736 43.5134C18.3029 43.5297 18.3539 43.6065 18.4099 43.6805C18.4745 43.7694 18.5341 43.8611 18.4955 43.6908C18.4744 43.5967 18.5132 43.6407 18.5527 43.6976C18.7214 43.9323 18.7775 43.88 18.8156 43.7849C18.8642 43.6506 18.8977 43.4785 18.9406 43.3342C18.9603 43.2763 18.9902 43.259 19.0194 43.2289C19.1088 43.1308 19.2416 43.1537 19.3773 43.1817C19.4059 43.1851 19.4352 43.2014 19.4371 43.1472C19.4422 43.018 19.4994 43.0249 19.5774 43.0795C19.669 43.1461 19.6956 43.0311 19.7143 42.914C19.7178 42.8855 19.7119 42.8291 19.7333 42.8433C19.8779 42.9325 19.8802 42.6721 19.9916 42.6809C20.0822 42.6884 20.2118 42.7863 20.327 42.8592C20.4207 42.918 20.5189 43.0075 20.6212 43.0812C20.6291 43.0833 20.6255 43.0655 20.6283 43.0705C20.6885 43.1287 20.8284 43.4399 21.0097 43.9265C21.1721 44.3574 21.2467 44.6132 21.2161 44.6177C21.1775 44.62 21.1325 44.5995 21.0903 44.584C21.0811 44.6026 21.0877 44.6254 21.0992 44.6453Z" fill="#E4C985"/>
<path d="M19.0518 49.3143C19.157 49.393 19.2421 49.4369 19.3704 49.5555C19.48 49.6649 19.5896 49.7743 19.5718 49.6053C19.5666 49.5618 19.5967 49.5909 19.6116 49.5822C19.6366 49.5679 19.6594 49.5613 19.6756 49.532C19.6827 49.5213 19.6537 49.4251 19.676 49.4521C19.7992 49.5736 19.8671 49.5875 19.8356 49.4064C19.9727 49.5863 19.9399 49.426 19.9502 49.3403C19.9605 49.2546 20.0213 49.2793 19.9856 49.1139C19.9775 49.0655 19.9818 49.0497 20.0061 49.0689C20.1508 49.2045 20.1839 49.1123 20.2286 49.04C20.2753 48.9599 20.3667 48.9802 20.528 49.1329C20.6125 49.2103 20.6474 49.1902 20.6822 49.1701C20.7271 49.1442 20.7432 49.0685 20.7822 49.0326C20.8384 48.9803 20.8744 48.8931 20.8693 48.7233C20.8633 48.4942 20.8803 48.3051 20.9153 48.1587C20.9314 48.083 21.0086 48.1247 21.0657 48.1316C21.1828 48.1503 21.3201 48.204 21.4257 48.2028C21.5056 48.2031 21.5617 48.1508 21.6171 48.0856C21.6654 48.0312 21.687 47.9191 21.7345 47.8518C21.8699 47.6607 22.009 47.4874 22.1473 47.3012C22.1806 47.2554 22.1967 47.1797 22.2272 47.1289C22.2385 47.1024 22.2663 47.0931 22.2891 47.0866C22.3811 47.0733 22.4817 47.075 22.5701 47.0439C22.694 47.0055 22.8057 46.9344 22.9297 46.896C23.0031 46.8736 23.083 46.8739 23.083 46.7013C23.0828 46.6549 23.146 46.7645 23.2592 47.018C23.4531 47.4574 23.6606 47.9088 23.7517 48.1817C23.8117 48.3663 23.8617 48.5102 23.7994 48.4598C23.7177 48.3874 23.7722 48.6083 23.6105 48.3629C23.5854 48.3309 23.5862 48.3437 23.5849 48.3644C23.6135 48.7132 23.4218 48.6113 23.2892 48.6347C23.2457 48.6399 23.2318 48.7077 23.2026 48.7378C23.1806 48.7572 23.1607 48.7687 23.1329 48.7781C23.0923 48.7883 23.0364 48.7607 23.0131 48.8008C22.9968 48.8301 23.01 48.9221 22.8613 48.6759C22.8325 48.626 22.8233 48.6446 22.8479 48.7102C22.9425 48.9545 22.9081 48.9411 22.8825 48.9426C22.8161 48.9543 22.7355 48.9411 22.6807 48.9728C22.6408 48.9958 22.6132 49.0516 22.5951 49.1351C22.5713 49.2551 22.5685 49.4228 22.5369 49.5407C22.5116 49.635 22.4626 49.6766 22.4258 49.751C22.4166 49.7696 22.4276 49.823 22.4155 49.8366C22.3964 49.861 22.3952 49.928 22.3342 49.8569C22.2625 49.7788 22.2361 49.7675 22.3113 49.9898C22.3546 50.1109 22.329 50.1124 22.3025 50.1011C22.2682 50.0877 22.2073 50.0166 22.1463 49.9456C22.0717 49.8624 22.0021 49.7764 22.0535 49.946C22.0796 50.0372 22.0359 49.996 21.9893 49.9498C21.7907 49.7324 21.7296 49.7876 21.6873 49.8984C21.6315 50.0435 21.596 50.2234 21.5431 50.3735C21.5234 50.4314 21.4864 50.4594 21.4523 50.4923C21.3508 50.6041 21.2009 50.5976 21.0432 50.5891C21.0146 50.5856 20.9753 50.5751 20.9763 50.6343C20.9741 50.7685 20.907 50.7674 20.814 50.7214C20.7074 50.6634 20.6837 50.7833 20.6578 50.9112C20.6544 50.9397 20.6604 50.9961 20.6368 50.9898C20.4702 50.9199 20.4707 51.1853 20.3394 51.188C20.2367 51.1942 20.0901 51.1128 19.9521 51.0463C19.8463 51.0011 19.7253 50.9182 19.6159 50.8551C19.608 50.853 19.6145 50.8759 19.6038 50.8688C19.5365 50.8213 19.3739 50.5166 19.1677 50.0445C18.9853 49.625 18.8929 49.3728 18.9335 49.3626C18.9741 49.3525 19.032 49.3722 19.0813 49.377C19.0727 49.362 19.0612 49.3421 19.0518 49.3143Z" fill="#E4C985"/>
<path d="M28.7197 56.4528C28.6066 56.3719 28.5057 56.3238 28.3775 56.2053C28.2599 56.0938 28.1475 55.9794 28.1425 56.1549C28.1427 56.2013 28.1126 56.1722 28.0927 56.1837C28.0628 56.2009 28.0272 56.2083 28.003 56.2355C27.9909 56.2491 28.0121 56.3432 27.9848 56.319C27.8616 56.1976 27.778 56.1794 27.7817 56.3699C27.6496 56.1871 27.6596 56.354 27.6336 56.4355C27.6076 56.5169 27.5369 56.498 27.5498 56.6699C27.55 56.7163 27.5436 56.7398 27.5164 56.7157C27.3638 56.578 27.305 56.6717 27.2426 56.7476C27.1701 56.8293 27.0609 56.8126 26.8968 56.655C26.8093 56.5726 26.7645 56.5985 26.7168 56.6194C26.6591 56.646 26.6252 56.7254 26.5733 56.762C26.4994 56.818 26.4377 56.9067 26.4099 57.0888C26.3753 57.328 26.3227 57.5244 26.252 57.6782C26.2181 57.7575 26.133 57.7136 26.0631 57.7075C25.9253 57.6875 25.7673 57.6325 25.636 57.6353C25.5383 57.6385 25.4565 57.6924 25.3804 57.7563C25.3094 57.8172 25.2649 57.9359 25.1967 58.0018C25 58.2018 24.7917 58.3818 24.5921 58.5768C24.5459 58.6234 24.5091 58.6977 24.4637 58.7571C24.4396 58.7844 24.4118 58.7938 24.3811 58.7982C24.2663 58.818 24.1401 58.8178 24.031 58.8475C23.8714 58.8932 23.7262 58.9638 23.5637 59.0045C23.4725 59.0305 23.3718 59.0289 23.3412 59.2059C23.3315 59.2581 23.2752 59.1378 23.1849 58.8777C23.0238 58.4261 22.859 57.9566 22.7957 57.6743C22.7506 57.4811 22.7264 57.3357 22.7887 57.3861C22.8782 57.4606 22.8465 57.2331 23.0032 57.4814C23.0233 57.5163 23.0275 57.5006 23.0289 57.4799C23.0587 57.1173 23.271 57.2205 23.4372 57.1976C23.4935 57.1917 23.5203 57.1231 23.5672 57.0894C23.5942 57.0671 23.627 57.0548 23.6627 57.0475C23.7112 57.0395 23.7769 57.0613 23.816 57.0254C23.8451 56.9953 23.8418 56.8976 23.9807 57.1496C24.0094 57.1994 24.0186 57.1808 24.0019 57.1174C23.9301 56.8665 23.9695 56.877 24.003 56.8776C24.09 56.8672 24.1806 56.8747 24.2561 56.8444C24.3138 56.8177 24.3543 56.7611 24.3903 56.6739C24.4446 56.5495 24.4752 56.3725 24.5325 56.2531C24.5806 56.1523 24.6503 56.112 24.7049 56.034C24.717 56.0204 24.7131 55.9562 24.728 55.9475C24.7551 55.9253 24.7662 55.8524 24.8271 55.9235C24.8938 56.0046 24.9332 56.0151 24.8758 55.7892C24.8474 55.6594 24.8759 55.6629 24.9102 55.6763C24.9474 55.6947 25.0084 55.7657 25.0694 55.8368C25.139 55.9228 25.2114 56.0139 25.1828 55.8378C25.1667 55.7408 25.2133 55.787 25.2598 55.8331C25.4613 56.0556 25.5452 55.9938 25.6161 55.8865C25.7104 55.7391 25.7866 55.5489 25.8801 55.3887C25.9176 55.3272 25.9674 55.2984 26.0115 55.2597C26.1515 55.1456 26.337 55.1448 26.5283 55.1539C26.5647 55.1595 26.609 55.1671 26.6209 55.1071C26.6488 54.9714 26.7337 54.9689 26.8346 55.0169C26.954 55.0742 27.0084 54.9498 27.0599 54.8204C27.0683 54.789 27.0723 54.7269 27.0988 54.7382C27.286 54.8094 27.339 54.5331 27.4959 54.5288C27.6243 54.5211 27.7867 54.6067 27.9375 54.6724C28.0591 54.7218 28.185 54.8019 28.3152 54.8662C28.323 54.8683 28.3244 54.8476 28.3273 54.8526C28.4024 54.9022 28.5422 55.2134 28.7085 55.7086C28.8531 56.1432 28.9178 56.4048 28.8722 56.4178C28.8187 56.4288 28.7559 56.4119 28.6988 56.405C28.7016 56.41 28.7131 56.43 28.7197 56.4528Z" fill="#E4C985"/>
<path d="M27.5365 67.6115C27.6467 67.6874 27.7368 67.7283 27.8601 67.8498C27.9747 67.9563 28.0893 68.0629 28.0665 67.8967C28.0613 67.8532 28.0914 67.8823 28.1064 67.8737C28.1313 67.8593 28.1591 67.8499 28.1753 67.8206C28.1824 67.8098 28.1534 67.7137 28.1757 67.7407C28.2989 67.8621 28.3718 67.8732 28.3453 67.6892C28.4824 67.8692 28.4545 67.7059 28.4599 67.6231C28.4731 67.5424 28.5309 67.5621 28.5002 67.3939C28.4922 67.3454 28.4963 67.3297 28.5207 67.3488C28.6704 67.4816 28.7035 67.3894 28.7482 67.3172C28.7949 67.237 28.8913 67.2544 29.0525 67.4071C29.1371 67.4845 29.1769 67.4615 29.2118 67.4414C29.2566 67.4155 29.2727 67.3398 29.3168 67.3011C29.37 67.2437 29.4139 67.1586 29.406 66.9838C29.4 66.7548 29.4219 66.5628 29.4569 66.4164C29.473 66.3407 29.5553 66.3796 29.6124 66.3864C29.7345 66.4023 29.8717 66.4559 29.9823 66.4519C30.0672 66.4493 30.1233 66.397 30.1787 66.3318C30.2319 66.2745 30.2507 66.1574 30.3011 66.0951C30.4415 65.9011 30.5905 65.7221 30.7338 65.533C30.7672 65.4872 30.7882 65.4086 30.8187 65.3578C30.835 65.3285 30.8578 65.322 30.8806 65.3155C30.9776 65.2993 31.0803 65.2932 31.1715 65.2671C31.3004 65.2258 31.4171 65.1518 31.5461 65.1106C31.6195 65.0882 31.7044 65.0856 31.7043 64.9129C31.7041 64.8666 31.7674 64.9762 31.8805 65.2297C32.0794 65.6662 32.2869 66.1176 32.378 66.3905C32.4381 66.575 32.4879 66.719 32.4256 66.6686C32.339 66.5991 32.3985 66.8171 32.2269 66.5774C32.2018 66.5454 32.2025 66.5583 32.2012 66.579C32.2249 66.9306 32.0282 66.8316 31.8956 66.855C31.8521 66.8602 31.8382 66.9281 31.8041 66.9611C31.782 66.9804 31.7571 66.9948 31.7293 67.0042C31.6887 67.0144 31.6329 66.9868 31.6046 67.0297C31.5833 67.0619 31.5966 67.1539 31.4507 66.9127C31.4219 66.8629 31.4127 66.8815 31.4372 66.947C31.5318 67.1913 31.4975 67.1779 31.4718 67.1795C31.4005 67.194 31.3198 67.1808 31.26 67.2154C31.2152 67.2412 31.1876 67.297 31.1694 67.3806C31.1407 67.5034 31.1379 67.6711 31.1063 67.789C31.0811 67.8833 31.0271 67.9278 30.9903 68.0021C30.9811 68.0207 30.992 68.0742 30.98 68.0878C30.9608 68.1121 30.9597 68.1792 30.8987 68.1082C30.827 68.03 30.7956 68.0216 30.8758 68.241C30.9191 68.3621 30.8934 68.3636 30.867 68.3523C30.8327 68.3389 30.7717 68.2678 30.7107 68.1967C30.6362 68.1136 30.5666 68.0276 30.613 68.2C30.6391 68.2912 30.5954 68.25 30.5488 68.2039C30.3531 67.9914 30.282 68.0524 30.2368 68.1582C30.1761 68.3062 30.1355 68.489 30.0855 68.6441C30.0658 68.702 30.0238 68.7328 29.9926 68.7708C29.8911 68.8825 29.7312 68.8818 29.5685 68.8761C29.535 68.8756 29.5007 68.8622 29.4967 68.9242C29.4944 69.0584 29.4224 69.0602 29.3294 69.0142C29.2179 68.959 29.1891 69.0819 29.1683 69.2068C29.1648 69.2354 29.1708 69.2918 29.1472 69.2854C28.9757 69.2184 28.9712 69.4867 28.8428 69.4944C28.7351 69.5035 28.5884 69.422 28.4483 69.3634C28.3425 69.3182 28.2166 69.2382 28.1022 69.1781C28.0943 69.1759 28.1008 69.1988 28.0901 69.1917C28.0178 69.147 27.8552 68.8424 27.6462 68.3652C27.4609 67.9408 27.3713 67.6936 27.407 67.6863C27.4476 67.6761 27.5055 67.6959 27.5597 67.6978C27.5595 67.6514 27.548 67.6314 27.5365 67.6115Z" fill="#E4C985"/>
<path d="M35.4085 73.2965C35.2983 73.2206 35.2083 73.1796 35.08 73.061C34.9654 72.9545 34.8507 72.848 34.8736 73.0141C34.8788 73.0576 34.8487 73.0285 34.8366 73.0421C34.8117 73.0565 34.7839 73.0659 34.7677 73.0952C34.7606 73.106 34.7895 73.2022 34.7673 73.1752C34.6469 73.0587 34.5712 73.0426 34.5977 73.2266C34.4556 73.0495 34.4913 73.2149 34.4831 73.2927C34.4699 73.3734 34.412 73.3537 34.4506 73.5241C34.4587 73.5725 34.4544 73.5883 34.4301 73.5691C34.2804 73.4363 34.2472 73.5285 34.2055 73.6058C34.1588 73.6859 34.0623 73.6685 33.899 73.5237C33.8145 73.4463 33.7746 73.4693 33.7398 73.4894C33.6949 73.5153 33.6788 73.591 33.6426 73.6318C33.5894 73.6891 33.5534 73.7764 33.5534 73.949C33.5594 74.1781 33.5453 74.3722 33.5103 74.5186C33.4943 74.5943 33.417 74.5526 33.3549 74.5486C33.2328 74.5327 33.0956 74.4791 32.985 74.4831C32.9001 74.4857 32.844 74.538 32.7886 74.6032C32.7353 74.6605 32.7166 74.7776 32.6691 74.8449C32.5287 75.0389 32.3875 75.22 32.2471 75.414C32.2137 75.4598 32.1977 75.5355 32.1623 75.5892C32.146 75.6185 32.1232 75.6251 32.1004 75.6316C32.0063 75.6527 31.9006 75.6539 31.8123 75.685C31.6862 75.7312 31.5695 75.8052 31.4406 75.8464C31.3672 75.8689 31.2823 75.8714 31.2823 76.0441C31.2825 76.0905 31.2192 75.9809 31.1011 75.7302C30.8973 75.2966 30.6848 74.848 30.5858 74.573C30.5207 74.3914 30.4759 74.2446 30.5332 74.2979C30.6199 74.3674 30.5604 74.1493 30.732 74.389C30.7571 74.421 30.7563 74.4082 30.7576 74.3875C30.729 74.0387 30.9227 74.1327 31.0603 74.1064C31.1038 74.1012 31.1179 74.0334 31.152 74.0004C31.174 73.981 31.1989 73.9667 31.2266 73.9573C31.2673 73.9471 31.3281 73.9718 31.3514 73.9317C31.3677 73.9024 31.3594 73.8075 31.5054 74.0488C31.5341 74.0986 31.5433 74.08 31.5187 74.0145C31.4192 73.773 31.4585 73.7836 31.4842 73.782C31.5555 73.7674 31.6361 73.7806 31.6959 73.7461C31.7408 73.7202 31.7655 73.6594 31.7815 73.5837C31.8102 73.4609 31.8102 73.2882 31.8397 73.1782C31.865 73.0839 31.919 73.0394 31.9508 72.9679C31.96 72.9493 31.949 72.8959 31.9611 72.8823C31.9802 72.8579 31.9785 72.7859 32.0423 72.8619C32.114 72.9401 32.1455 72.9485 32.0653 72.7291C32.022 72.608 32.0476 72.6065 32.0741 72.6178C32.1084 72.6312 32.1694 72.7023 32.2353 72.7705C32.3099 72.8536 32.3845 72.9367 32.333 72.7671C32.307 72.6759 32.3507 72.7171 32.3972 72.7633C32.598 72.9729 32.6641 72.9148 32.7064 72.804C32.7621 72.6589 32.7998 72.4711 32.8526 72.321C32.8723 72.2632 32.9094 72.2351 32.9406 72.1972C33.0421 72.0854 33.1991 72.0811 33.3618 72.0868C33.3953 72.0874 33.4297 72.1008 33.4337 72.0387C33.4359 71.9046 33.5079 71.9028 33.6009 71.9488C33.7125 72.0039 33.7362 71.884 33.7592 71.7512C33.7626 71.7226 33.7538 71.6613 33.7802 71.6726C33.9518 71.7396 33.9513 71.4742 34.0847 71.4636C34.1924 71.4545 34.339 71.536 34.4791 71.5946C34.5849 71.6397 34.708 71.7148 34.8224 71.775C34.8303 71.7771 34.8238 71.7543 34.8345 71.7614C34.9068 71.806 35.0743 72.1078 35.2884 72.582C35.4786 73.0036 35.5711 73.2558 35.5354 73.2631C35.4948 73.2732 35.4369 73.2535 35.3826 73.2516C35.3826 73.2516 35.3942 73.2716 35.4085 73.2965Z" fill="#E4C985"/>
<path d="M36.1155 85.6347C36.2464 85.7118 36.3622 85.7513 36.5082 85.8662C36.6357 85.972 36.7661 86.0827 36.7888 85.9035C36.7936 85.8542 36.8316 85.8855 36.8515 85.874C36.8892 85.8588 36.927 85.8437 36.964 85.8157C36.976 85.8021 36.9649 85.7022 36.9921 85.7264C37.1282 85.847 37.2267 85.8566 37.2458 85.6596C37.3857 85.8445 37.3957 85.6661 37.4346 85.5838C37.4735 85.5016 37.5541 85.5148 37.5611 85.3314C37.5609 85.285 37.5751 85.2636 37.6044 85.2799C37.7748 85.414 37.8565 85.3137 37.9417 85.2312C38.0369 85.143 38.169 85.1532 38.3509 85.3072C38.4483 85.3838 38.506 85.3572 38.5665 85.3355C38.637 85.3081 38.6859 85.2201 38.7556 85.1798C38.8524 85.1173 38.934 85.017 38.9824 84.8363C39.0477 84.5927 39.1331 84.384 39.2315 84.2209C39.2833 84.1379 39.3783 84.176 39.4611 84.1813C39.6267 84.192 39.8125 84.2375 39.9715 84.2254C40.0921 84.2156 40.1917 84.158 40.2877 84.0827C40.3766 84.0181 40.4488 83.8901 40.5348 83.8205C40.795 83.6038 41.0638 83.4021 41.324 83.1855C41.388 83.1352 41.4398 83.0522 41.498 82.992C41.5271 82.9619 41.5648 82.9468 41.6033 82.9445C41.7459 82.9153 41.895 82.9089 42.0347 82.8748C42.235 82.819 42.418 82.7332 42.6211 82.6824C42.7351 82.6497 42.8536 82.6478 42.912 82.4613C42.9296 82.4113 42.9829 82.5267 43.0682 82.7896C43.2165 83.242 43.3763 83.7143 43.4247 84.0052C43.4569 84.1992 43.4791 84.3525 43.4089 84.3C43.3066 84.2262 43.3233 84.4623 43.1588 84.2119C43.1386 84.177 43.1295 84.1956 43.1203 84.2142C43.0449 84.5899 42.7997 84.4989 42.5979 84.5291C42.5316 84.5408 42.487 84.6131 42.4351 84.6497C42.3952 84.6727 42.3575 84.6878 42.3169 84.698C42.2584 84.7118 42.1798 84.6908 42.1308 84.7324C42.0967 84.7654 42.0821 84.8667 41.9433 84.6148C41.9145 84.565 41.8975 84.5814 41.9121 84.6527C41.9739 84.9093 41.9267 84.8967 41.8911 84.904C41.7891 84.923 41.6728 84.9171 41.5773 84.9589C41.5068 84.9863 41.4465 85.0544 41.3977 85.1423C41.3205 85.2733 41.262 85.4598 41.182 85.5857C41.1161 85.6902 41.0264 85.7419 40.9511 85.8186C40.9341 85.8351 40.9301 85.8972 40.913 85.9137C40.8761 85.9417 40.8571 86.0124 40.7912 85.9442C40.7116 85.8639 40.6752 85.8584 40.7148 86.0879C40.7382 86.2206 40.6968 86.2179 40.6653 86.2095C40.6182 86.1969 40.5494 86.1237 40.4884 86.0526C40.4088 85.9723 40.3285 85.8792 40.3472 86.0611C40.3554 86.1559 40.3018 86.1205 40.2523 86.0693C40.033 85.8505 39.9213 85.9217 39.8226 86.0384C39.6956 86.1981 39.5788 86.3984 39.4525 86.5709C39.405 86.6382 39.3423 86.6678 39.2805 86.7101C39.0948 86.8373 38.8687 86.8482 38.6396 86.8542C38.5933 86.8544 38.544 86.8497 38.5243 86.9076C38.4765 87.0548 38.3737 87.0609 38.2551 87.0165C38.1129 86.9658 38.0357 87.0967 37.9642 87.2376C37.948 87.2669 37.9389 87.3319 37.9075 87.3234C37.6875 87.2645 37.5939 87.551 37.4041 87.5676C37.248 87.5847 37.0628 87.5056 36.8792 87.4522C36.7398 87.4064 36.5911 87.3329 36.446 87.2772C36.4381 87.2751 36.4368 87.2957 36.4261 87.2887C36.3381 87.2398 36.1983 86.9286 36.0448 86.4327C35.9101 85.9924 35.8554 85.725 35.9168 85.7162C35.9831 85.7045 36.0559 85.7156 36.1258 85.7217C36.1285 85.6803 36.122 85.6575 36.1155 85.6347Z" fill="#E4C985"/>
<path d="M44.9828 95.6207C44.8826 95.5391 44.8025 95.4923 44.6792 95.3709C44.5695 95.2615 44.4649 95.1492 44.4927 95.3125C44.4979 95.356 44.4678 95.3268 44.4607 95.3376C44.4408 95.3491 44.418 95.3556 44.4067 95.3821C44.3996 95.3928 44.4336 95.4861 44.4113 95.4591C44.2959 95.3398 44.2302 95.3179 44.2666 95.4962C44.1345 95.3134 44.1703 95.4787 44.167 95.5537C44.1638 95.6286 44.1059 95.6089 44.1495 95.7764C44.1625 95.822 44.1583 95.8377 44.1339 95.8185C43.9942 95.68 43.971 95.7664 43.9343 95.8408C43.8975 95.9152 43.811 95.8921 43.6627 95.7386C43.5831 95.6583 43.5532 95.6756 43.5184 95.6957C43.4785 95.7187 43.4673 95.7915 43.4361 95.8295C43.3928 95.8811 43.3618 95.9654 43.3768 96.1294C43.3928 96.3527 43.3936 96.5382 43.3686 96.6789C43.3575 96.7517 43.2852 96.7071 43.2331 96.6973C43.126 96.6728 42.9987 96.6135 42.898 96.6118C42.8231 96.6085 42.777 96.6551 42.7316 96.7146C42.6911 96.7711 42.6795 96.8775 42.642 96.939C42.5265 97.1186 42.4102 97.2854 42.2997 97.4621C42.2713 97.505 42.2602 97.5779 42.2347 97.6258C42.2234 97.6523 42.2035 97.6638 42.1828 97.6624C42.0987 97.6778 42.008 97.6703 41.9297 97.6956C41.8185 97.7332 41.7217 97.7958 41.6077 97.8284C41.5443 97.8451 41.4693 97.8418 41.4794 98.0088C41.4796 98.0551 41.4213 97.9427 41.3031 97.692C41.0993 97.2584 40.8918 96.8069 40.7878 96.5348C40.7228 96.3532 40.6729 96.2093 40.7302 96.2625C40.8069 96.3378 40.7475 96.1197 40.9091 96.3652C40.9292 96.4001 40.9334 96.3843 40.9298 96.3665C40.8861 96.0264 41.065 96.129 41.1827 96.1142C41.2212 96.1119 41.2302 96.0469 41.2593 96.0168C41.2764 96.0004 41.2963 95.9889 41.3241 95.9795C41.3597 95.9722 41.4105 96.0026 41.4339 95.9625C41.4502 95.9332 41.4319 95.8441 41.5779 96.0853C41.6066 96.1352 41.6158 96.1166 41.5863 96.0539C41.4867 95.8125 41.521 95.8259 41.5417 95.8272C41.603 95.8184 41.6788 95.8345 41.7286 95.8057C41.7684 95.7827 41.7882 95.7248 41.7993 95.652C41.818 95.5349 41.808 95.3679 41.8325 95.2608C41.8528 95.1694 41.8918 95.1336 41.9236 95.0621C41.9278 95.0463 41.9169 94.9929 41.929 94.9792C41.9432 94.9578 41.9364 94.8886 42.0003 94.9647C42.067 95.0457 42.0934 95.057 42.0133 94.8376C41.9699 94.7165 41.9906 94.7178 42.0171 94.7291C42.0464 94.7454 42.1073 94.8165 42.1683 94.8876C42.2379 94.9736 42.3075 95.0596 42.2561 94.8901C42.23 94.7988 42.2687 94.8429 42.3153 94.8891C42.5011 95.1073 42.5572 95.0549 42.5896 94.9499C42.6304 94.8134 42.6531 94.6343 42.696 94.4899C42.7107 94.4349 42.7427 94.4098 42.7689 94.3747C42.8555 94.2716 42.9926 94.2789 43.1353 94.2961C43.1639 94.2995 43.1982 94.3129 43.1972 94.2537C43.1945 94.1224 43.2566 94.1264 43.3367 94.1731C43.4383 94.234 43.457 94.1169 43.4651 93.9927C43.4685 93.9642 43.4547 93.9057 43.4812 93.917C43.6378 93.9927 43.6223 93.7359 43.7408 93.7339C43.8335 93.7335 43.9702 93.8207 44.0954 93.8879C44.1912 93.9388 44.3043 94.0197 44.4088 94.0856C44.4167 94.0877 44.4101 94.0649 44.4158 94.0749C44.4831 94.1224 44.6458 94.427 44.8569 94.8963C45.0472 95.3178 45.1446 95.5671 45.109 95.5744C45.0733 95.5817 45.0204 95.5592 44.9761 95.5515C44.9599 95.5808 44.9713 95.6008 44.9828 95.6207Z" fill="#E4C985"/>
<path d="M42.9426 100.704C43.0528 100.78 43.1508 100.823 43.2819 100.946C43.3965 101.053 43.5141 101.164 43.5062 100.989C43.5059 100.943 43.536 100.972 43.551 100.964C43.5759 100.949 43.6087 100.937 43.6278 100.913C43.6399 100.899 43.6138 100.808 43.6381 100.827C43.7614 100.948 43.8421 100.962 43.8255 100.772C43.9626 100.952 43.9398 100.786 43.9579 100.702C43.9761 100.618 44.0419 100.64 44.0211 100.466C44.0131 100.418 44.0222 100.399 44.0466 100.418C44.1963 100.551 44.2423 100.458 44.2969 100.38C44.3565 100.299 44.4578 100.314 44.624 100.464C44.7114 100.546 44.7534 100.515 44.7962 100.497C44.8489 100.473 44.8749 100.392 44.9189 100.353C44.985 100.295 45.0339 100.207 45.0438 100.029C45.0606 99.7931 45.0954 99.6003 45.1454 99.4452C45.1743 99.3688 45.2515 99.4105 45.3215 99.4166C45.4514 99.4346 45.6015 99.4874 45.722 99.4776C45.8119 99.4722 45.8809 99.4191 45.9491 99.3532C46.0074 99.293 46.0468 99.1772 46.0992 99.107C46.2703 98.9086 46.4422 98.7231 46.6161 98.5296C46.6545 98.4809 46.6833 98.4045 46.7217 98.3558C46.7408 98.3315 46.7657 98.3171 46.7964 98.3126C46.9033 98.2908 47.0168 98.2917 47.118 98.2598C47.2648 98.2149 47.3943 98.1402 47.5411 98.0953C47.6245 98.0671 47.7172 98.0667 47.73 97.8932C47.7347 97.844 47.793 97.9564 47.9012 98.2128C48.0851 98.658 48.2777 99.118 48.356 99.3917C48.4111 99.5791 48.4481 99.7238 48.3858 99.6734C48.2963 99.5989 48.3408 99.8256 48.1791 99.5801C48.159 99.5453 48.1548 99.5609 48.1535 99.5816C48.1544 99.9398 47.9449 99.8416 47.7994 99.8658C47.7509 99.8739 47.7291 99.9396 47.69 99.9754C47.663 99.9977 47.6381 100.012 47.6074 100.017C47.5618 100.03 47.5011 100.005 47.4698 100.043C47.4457 100.07 47.4518 100.173 47.308 99.9237C47.2793 99.8738 47.2701 99.8924 47.2897 99.9608C47.3743 100.211 47.3371 100.193 47.3093 100.202C47.2301 100.214 47.1445 100.204 47.0718 100.239C47.0191 100.263 46.9895 100.327 46.9634 100.408C46.9219 100.532 46.9041 100.708 46.8647 100.824C46.8294 100.924 46.7675 100.966 46.7179 101.042C46.7087 101.06 46.7147 101.116 46.7026 101.13C46.6785 101.157 46.6774 101.224 46.6114 101.156C46.5397 101.078 46.5083 101.07 46.5757 101.29C46.614 101.414 46.5805 101.413 46.554 101.402C46.5169 101.383 46.4509 101.315 46.3928 101.249C46.3182 101.166 46.2457 101.075 46.2872 101.25C46.3083 101.344 46.2646 101.303 46.2151 101.252C46.0165 101.035 45.9326 101.096 45.8774 101.208C45.8039 101.357 45.7405 101.546 45.6727 101.705C45.643 101.768 45.5982 101.794 45.5591 101.83C45.4348 101.948 45.2621 101.948 45.0865 101.944C45.053 101.943 45.0137 101.932 45.0068 101.99C44.9917 102.124 44.9147 102.129 44.8168 102.086C44.6973 102.029 44.6637 102.154 44.625 102.283C44.6166 102.315 44.6225 102.371 44.5961 102.36C44.4167 102.29 44.3894 102.565 44.2432 102.577C44.1276 102.584 43.9681 102.503 43.8201 102.442C43.7065 102.395 43.5755 102.318 43.4611 102.258C43.4533 102.255 43.4569 102.273 43.449 102.271C43.3739 102.222 43.2191 101.919 43.0279 101.438C42.8605 101.01 42.778 100.752 42.8215 100.747C42.87 100.739 42.93 100.751 42.9871 100.758C42.9606 100.746 42.9541 100.724 42.9426 100.704Z" fill="#E4C985"/>
<path d="M55.8232 111.899C55.6951 111.827 55.5793 111.788 55.4333 111.673C55.3058 111.567 55.1754 111.456 55.1556 111.64C55.1508 111.69 55.1157 111.663 55.0929 111.67C55.0552 111.685 55.0174 111.7 54.9883 111.73C54.9762 111.744 54.9924 111.841 54.9651 111.817C54.8241 111.699 54.7334 111.692 54.7193 111.886C54.5743 111.704 54.5744 111.876 54.5384 111.964C54.5024 112.051 54.4188 112.033 54.4246 112.215C54.4248 112.262 54.4135 112.288 54.3863 112.264C54.2188 112.135 54.1421 112.232 54.0598 112.32C53.9724 112.41 53.8404 112.4 53.6613 112.251C53.564 112.174 53.5063 112.201 53.4486 112.227C53.3781 112.255 53.3342 112.34 53.2702 112.39C53.1813 112.455 53.1047 112.552 53.0591 112.738C53.0017 112.984 52.9291 113.192 52.8357 113.352C52.7889 113.432 52.6967 113.399 52.6139 113.393C52.4512 113.388 52.2705 113.339 52.1143 113.356C51.9988 113.363 51.902 113.426 51.806 113.501C51.72 113.571 51.6577 113.693 51.5746 113.768C51.3301 113.989 51.0741 114.189 50.8268 114.405C50.7657 114.461 50.7189 114.541 50.6657 114.598C50.6366 114.628 50.6038 114.64 50.5632 114.651C50.4256 114.677 50.2793 114.688 50.1475 114.724C49.9551 114.782 49.78 114.87 49.5847 114.923C49.4756 114.953 49.3551 114.963 49.3096 115.148C49.2998 115.201 49.2387 115.083 49.1483 114.823C48.9872 114.371 48.8224 113.902 48.764 113.617C48.7268 113.426 48.7047 113.272 48.772 113.32C48.8715 113.389 48.8526 113.16 49.0192 113.403C49.0443 113.435 49.0486 113.419 49.0499 113.399C49.1075 113.027 49.3547 113.11 49.5487 113.077C49.615 113.066 49.6517 112.991 49.7037 112.955C49.7356 112.93 49.7734 112.914 49.814 112.904C49.8724 112.89 49.9461 112.914 49.9922 112.868C50.0263 112.835 50.0331 112.731 50.1769 112.98C50.2056 113.03 50.2198 113.009 50.2081 112.943C50.1413 112.689 50.1884 112.701 50.2241 112.694C50.326 112.675 50.4345 112.679 50.5249 112.64C50.5926 112.608 50.648 112.542 50.6918 112.457C50.7612 112.324 50.8145 112.141 50.8867 112.013C50.9477 111.911 51.0345 111.854 51.1019 111.775C51.119 111.759 51.118 111.7 51.135 111.683C51.167 111.658 51.1831 111.582 51.2569 111.653C51.3365 111.733 51.3729 111.739 51.3254 111.507C51.297 111.377 51.3356 111.375 51.3699 111.388C51.417 111.401 51.483 111.469 51.5489 111.537C51.6285 111.618 51.7059 111.706 51.6823 111.527C51.6712 111.427 51.7227 111.47 51.7772 111.518C51.9986 111.729 52.1053 111.661 52.1961 111.542C52.3153 111.38 52.4193 111.181 52.5376 111.006C52.5851 110.939 52.6399 110.907 52.7018 110.865C52.8796 110.736 53.0979 110.723 53.3191 110.715C53.3655 110.714 53.4097 110.722 53.4316 110.656C53.4745 110.512 53.5693 110.504 53.6879 110.548C53.8302 110.599 53.8996 110.466 53.961 110.331C53.9744 110.296 53.9784 110.234 54.0098 110.243C54.2298 110.302 54.3028 110.014 54.4925 109.997C54.6437 109.983 54.831 110.054 55.0067 110.106C55.1432 110.146 55.2919 110.22 55.437 110.276C55.4449 110.278 55.4462 110.257 55.4541 110.259C55.5392 110.303 55.6869 110.616 55.8503 111.106C55.9949 111.541 56.0546 111.806 55.9962 111.819C55.9327 111.836 55.8571 111.82 55.79 111.819C55.8051 111.857 55.8116 111.879 55.8232 111.899Z" fill="#E4C985"/>
</svg>
