<svg width="178" height="154" viewBox="0 0 178 154" fill="none" xmlns="http://www.w3.org/2000/svg">
<path d="M50.4052 20.311C44.3269 17.9731 37.5335 15.9104 30.9876 15.6903C29.2365 15.5895 26.5595 15.5895 24.4967 15.8095C22.929 15.9379 21.4071 16.2771 19.9036 16.6713C18.4275 17.148 16.9515 17.6798 15.6038 18.4682C12.8626 19.9626 10.5156 22.1904 8.66369 24.8307C8.39782 25.2341 8.12278 25.6467 7.84774 26.0592C7.6002 26.481 7.38018 26.9119 7.16931 27.2969C5.09736 31.285 3.85053 35.6947 3.06209 40.187C2.6587 42.424 2.39283 44.716 2.21864 46.9896L2.18197 48.6582L2.16363 49.4925L2.23697 50.3176L2.39283 51.9678C2.48451 52.5087 2.62203 53.0404 2.74121 53.5813C3.45631 56.5976 4.89567 59.4121 6.90344 61.8141C8.90205 64.2253 11.4049 66.2422 14.1553 67.8925C17.1899 69.7261 21.0495 71.5596 24.7534 72.9257C30.3366 75.0068 36.1674 76.4828 42.0441 77.7663C44.987 78.4081 47.9391 78.9857 50.9095 79.5816C53.8799 80.1958 56.8503 80.7367 59.8574 81.626C60.3249 81.7544 60.7833 81.9194 61.2417 82.0936C61.6909 82.2403 62.1493 82.4786 62.5802 82.7078C63.3962 83.1662 64.0379 83.6705 64.588 84.1472C65.679 85.1007 66.2474 85.9349 66.2749 86.2283C66.2932 86.3933 66.7975 87.1176 67.1825 87.8877C67.5859 88.6486 67.8518 89.4463 67.7693 89.5563C67.5309 89.8863 66.8983 88.832 65.2573 87.1818C64.423 86.3658 63.3045 85.4307 61.801 84.5964C60.4074 83.8905 58.3171 83.4138 56.016 82.9004C51.8538 82.0111 47.499 81.241 43.2267 80.3517C35.0673 78.6556 26.862 76.8129 19.1059 73.1365C16.3556 71.8347 13.0368 70.0653 10.2956 68.0208C8.36115 66.5448 6.50006 64.9312 4.99652 62.9785C4.1714 62.0617 3.57549 60.9799 2.8879 59.9622L2.06278 58.312C1.93443 58.037 1.77858 57.7711 1.66856 57.4777L1.35685 56.6068C0.44006 54.3148 0.137519 51.8486 0 49.4283C0.00916792 46.9713 0.210863 44.6335 0.559244 42.2865C0.9718 39.2886 1.61355 36.199 2.43867 33.3569C3.02541 31.4867 3.63967 29.6256 4.51062 27.847C4.89567 26.9394 5.40907 26.0868 5.8858 25.2158C6.42671 24.3815 6.92178 23.5197 7.55436 22.7405C8.73703 21.1361 10.1489 19.6784 11.7349 18.4315C13.3118 17.1755 15.0629 16.1212 16.9331 15.3511C18.7026 14.6177 20.5178 14.0584 22.3697 13.7467C23.2865 13.545 24.2308 13.49 25.1659 13.3617C26.1102 13.325 27.0545 13.2242 28.008 13.2608C29.9883 13.2333 32.0235 13.4259 34.068 13.6459C36.1033 13.9301 38.1569 14.2693 40.1372 14.7552C42.7683 15.3603 45.3445 16.1396 47.8841 17.0105C50.4236 17.8631 52.9264 18.8166 55.4201 20.0634C57.8679 21.3469 60.0957 23.0155 62.1035 24.9224C64.0746 26.866 65.7248 29.103 67.1275 31.4683C70.483 36.9507 72.1607 43.3958 73.0133 49.7767C73.8476 56.1942 73.8109 62.6576 73.49 68.9101C73.2792 72.7973 72.7475 77.3996 71.8673 81.8369C71.3631 84.4314 70.8864 86.43 70.5105 87.9152C70.3179 88.667 70.1529 89.2446 69.9971 89.7855C69.8229 90.4089 69.2911 90.8581 68.8327 90.9773C68.3652 91.124 67.9435 91.0415 67.6317 90.904C66.99 90.5831 66.88 90.143 66.8616 90.0513C66.8525 89.923 66.9258 90.0238 67.155 90.2347C67.3751 90.4455 67.8976 90.7389 68.4844 90.5556C68.7686 90.4731 69.0619 90.2622 69.227 89.9413C69.3828 89.5654 69.3186 89.3821 69.3553 89.1162C69.4195 88.1444 69.5387 86.8701 69.6762 85.4582C69.8596 83.4596 70.2354 81.0668 70.8314 76.6845C71.6381 70.5695 71.9498 64.4728 71.6748 58.5504C71.4823 53.8014 70.9047 49.2999 69.8412 44.2209C69.612 43.3133 69.3828 42.369 69.0986 41.4247C68.7777 40.4987 68.5119 39.5544 68.1451 38.6743C66.5683 34.6496 64.4872 30.7716 61.4801 27.6086L60.3524 26.426L59.1148 25.3442L58.5005 24.8032C58.2805 24.6382 58.0513 24.4824 57.8312 24.3173L56.4836 23.3455C56.016 23.043 55.5301 22.7771 55.0442 22.4929C54.5583 22.2179 54.0907 21.9062 53.5682 21.6861C52.5322 21.2277 51.5329 20.7235 50.4052 20.311Z" fill="#8ED6C7"/>
<path d="M77.8807 49.7589C77.5415 50.474 76.4872 50.3181 76.3863 49.5297C75.5612 42.8371 74.5069 32.4774 79.2742 20.3482C86.6544 1.56314 109.593 -5.12027 116.78 6.578C124.811 19.6515 105.128 29.2778 97.0691 33.4308C89.7348 37.2264 81.9604 41.1227 77.8807 49.7589Z" fill="#8ED6C7"/>
<path d="M75.2874 45.4219C75.2324 43.6709 75.2049 41.9106 75.3149 40.1871C75.4157 38.6469 75.5808 37.1433 75.5624 35.5756C75.5533 35.1722 75.6266 34.7322 75.6633 34.3104C75.7275 33.5403 75.8191 32.7794 75.92 32.0184C75.9658 31.6701 75.9291 31.2942 76.0116 30.9733C76.4059 29.4148 76.7543 27.8654 77.0293 26.2793C77.506 25.1058 77.7444 23.9048 78.0836 22.6855C78.4595 21.4845 78.8995 20.2927 79.2938 19.0917C79.3946 18.7708 79.523 18.4132 79.6972 18.1199C80.6873 16.323 81.7141 14.5627 82.8968 12.8667C84.1619 11.0606 85.693 9.43785 87.4165 8.09017C88.3333 7.37507 89.2685 6.60497 90.2311 5.90821C91.3679 5.06476 92.5598 4.30382 93.7974 3.59789C95.6035 2.61692 97.4921 1.79181 99.4449 1.13172C100.756 0.700825 102.113 0.361613 103.506 0.169086C104.9 -0.00510408 106.33 -0.0601102 107.76 0.0774086C109.218 0.233263 110.666 0.691658 112.014 1.33341C113.353 1.98434 114.609 2.85529 115.617 3.94627C116.644 5.02808 117.432 6.30242 118.065 7.61344C118.973 9.60288 119.523 11.8857 119.202 14.1227C118.963 16.2129 118.129 18.1749 117.001 19.8893C115.305 22.4288 113.087 24.5099 110.749 26.3435C108.402 28.1771 105.899 29.7723 103.35 31.2575C102.122 31.9726 100.903 32.6785 99.6649 33.3478C99.0506 33.687 98.4181 34.0079 97.7946 34.3196C95.4752 35.4931 93.1557 36.6391 90.9554 37.9318C87.8108 39.7837 84.8587 41.9381 82.4842 44.6243C81.1457 46.137 79.9722 47.8239 79.1838 49.6759C78.9546 50.1893 78.7804 50.3084 78.6795 50.0242C78.5053 49.5292 78.2853 49.0891 78.5512 48.0715C78.7895 47.4114 78.9821 46.7696 79.5413 46.0912C79.9355 45.6053 80.2747 45.0552 80.6873 44.5693C80.889 44.3218 81.0907 44.0743 81.3015 43.8359C81.5307 43.6159 81.7599 43.405 82.0166 43.2216C82.1542 43.1208 82.3192 42.9283 82.4475 42.7632C84.8404 39.9487 88.0308 37.9318 91.2212 36.1623L94.3567 34.4021L96.4194 33.3295C97.4188 32.8161 98.4456 32.3393 99.4265 31.8076C100.169 31.4042 100.857 30.955 101.636 30.7899C101.801 30.7533 102.186 30.5332 102.296 30.4049C102.718 29.9282 103.332 29.6164 103.937 29.2589C105.569 28.3238 107.183 27.352 108.714 26.2702C109.841 25.4634 110.923 24.5833 111.932 23.6481C113.481 22.1813 114.884 20.5677 115.947 18.7891C116.846 17.3131 117.542 15.7087 117.735 14.0493L117.781 13.4717C117.772 13.2792 117.762 13.0867 117.772 12.8942C117.79 12.5458 117.744 12.1882 117.707 11.8307C117.689 11.4731 117.616 11.1339 117.588 10.8039C117.57 10.428 117.496 10.1071 117.386 9.7954C117.286 9.48369 117.148 9.19949 116.919 8.91528C116.791 8.75943 116.671 8.5394 116.561 8.30103C116.433 8.06267 116.305 7.8243 116.185 7.5951C115.91 7.00836 115.599 6.46745 115.278 5.91737C115.058 5.61483 114.865 5.29395 114.618 5.01892C114.352 4.76222 114.077 4.48718 113.719 4.28548C113.325 4.08379 112.885 3.67123 112.472 3.38703C111.602 2.7086 110.566 2.23187 109.475 1.92016C108.393 1.58095 107.238 1.47093 106.101 1.43426C102.984 1.37009 99.9124 2.20437 97.052 3.41453C95.9427 3.91877 94.8242 4.43217 93.7791 5.06476C90.4786 6.96252 87.4991 9.41952 85.0421 12.3533C84.547 12.9125 84.0886 13.5268 83.6852 14.1502C82.8051 15.617 81.8883 17.0381 81.109 18.5599C80.8523 19.0092 80.6598 19.4859 80.4489 19.9535C80.2381 20.421 80.0547 20.8978 79.8897 21.3928L79.3946 22.8597L78.9821 24.3541C78.8537 24.8125 78.7529 25.2892 78.6245 25.7476C77.6435 28.9197 77.2402 32.211 76.9651 35.4931C76.7359 38.1518 76.6351 40.8288 76.7084 43.5242C76.7359 44.5602 76.7818 45.6053 76.8459 46.6413L76.9468 48.1998L77.0476 49.4833C77.0568 49.5017 77.0751 49.5017 77.0935 49.52C77.1943 49.5933 77.3227 49.6209 77.4785 49.6025C77.616 49.5933 77.8361 49.6209 77.7994 50.0059C77.7627 50.3268 77.2952 50.7668 76.6351 50.5927C76.3142 50.5193 75.975 50.2443 75.8191 49.85C75.7825 49.7584 75.755 49.6392 75.7366 49.5658L75.6999 49.3825C75.6816 49.2541 75.6633 49.1258 75.6449 48.9974C75.5074 47.8056 75.4157 46.6138 75.3241 45.4128L75.2874 45.4219Z" fill="#8ED6C7"/>
<path d="M136.675 34.4662C137.27 33.9987 137.986 33.5953 138.499 32.981C138.637 32.816 138.921 32.6602 139.15 32.5593C139.847 32.2568 140.516 31.8992 141.194 31.5142C141.295 31.4592 141.414 31.4133 141.497 31.3492C142.331 30.6432 143.386 30.3315 144.321 29.8089C144.99 29.4606 145.714 29.213 146.338 28.7546C146.695 28.5163 147.172 28.3512 147.603 28.1771C148.254 27.9112 148.923 27.6912 149.583 27.4803L150.582 27.1594L151.6 26.8935C152.022 26.7835 152.398 26.7102 152.535 27.0311C152.618 27.2053 152.993 27.2419 153.067 27.4803C153.269 28.0945 152.856 28.718 151.875 29.0938C151.435 29.2497 150.967 29.3964 150.527 29.5797L149.271 30.1115C148.859 30.304 148.437 30.469 147.969 30.5607C147.639 30.6341 147.282 30.8174 146.961 31.0008C146.044 31.4958 145.082 31.8626 144.146 32.3026C143.844 32.4401 143.514 32.5593 143.257 32.7518C142.56 33.2469 141.836 33.6778 141.112 34.1362C140.763 34.3562 140.443 34.5671 140.067 34.7596C139.691 34.9613 139.342 35.273 138.985 35.5297C138.031 36.2265 137.151 36.9966 136.152 37.6475C135.199 38.6468 133.933 39.3894 133.099 40.5171C132.842 40.8655 132.485 41.223 132.072 41.498C131.11 42.1398 130.935 42.149 130.77 41.3514C130.734 41.1588 130.725 40.948 130.734 40.7279C130.752 40.4254 130.871 40.1412 131.229 39.7836C131.724 39.2794 132.136 38.711 132.567 38.1609C132.916 37.73 133.227 37.29 133.732 36.9416C133.915 36.8224 134.071 36.6299 134.227 36.474C134.951 35.7131 135.739 35.0347 136.675 34.4662Z" fill="#8ED6C7"/>
<path d="M154.826 22.8877C154.872 22.1909 155.055 21.2099 155.33 20.2748C155.477 19.7889 155.642 19.3122 155.816 18.8446C155.935 18.4962 156.073 18.1662 156.293 17.9278C156.495 17.717 156.586 17.4327 156.632 17.1119C156.66 16.9102 156.705 16.681 156.788 16.4976C157.191 15.6542 157.668 14.8566 158.154 14.059C158.484 13.5364 158.832 13.0413 159.273 12.6654C159.566 12.4271 159.658 12.1154 159.804 11.8036C159.969 11.4186 160.116 11.3361 160.483 11.2811C160.712 11.2444 160.813 11.1711 160.813 10.9969C160.813 10.8318 160.767 10.7035 161.042 10.4468C161.473 10.0984 161.904 9.75003 162.435 9.48416C162.949 9.21829 163.563 8.99826 164.232 9.02577C164.608 9.00743 165.287 9.13578 164.993 9.38331C164.975 9.39248 165.012 9.44749 165.03 9.45666C165.571 9.64919 166.002 9.99756 166.359 10.3826C166.946 10.6852 167.148 11.4003 167.505 11.8862C167.579 11.9778 167.661 12.1795 167.652 12.262C167.624 12.7296 168 13.3164 167.89 13.7839C167.826 14.0681 167.9 14.2698 168.01 14.4807C168.12 14.6732 168.175 14.8932 168.147 15.2141C168.019 16.736 167.294 18.1203 166.378 19.2297C165.8 19.9356 165.131 20.559 164.416 21.0724C164.095 21.3016 163.774 21.5216 163.462 21.7508L163.38 21.815C163.371 21.8059 163.407 21.8425 163.352 21.7967C163.297 21.7508 163.288 21.7325 163.242 21.705C163.169 21.65 163.114 21.6408 163.114 21.6408C163.123 21.6317 163.151 21.54 163.105 21.5125C163.086 21.5125 163.068 21.4483 163.041 21.3841C163.013 21.3016 163.031 21.3566 163.031 21.3383C163.05 21.3383 163.151 21.2649 163.224 21.2191L163.691 20.8799C164.324 20.4123 164.966 19.9448 165.635 19.523C166.414 19.0371 167.258 18.6612 168.12 18.3862C168.459 18.2762 168.761 18.1753 169.082 18.0287C170.347 17.4327 171.897 17.1944 173.354 17.6436C174.088 17.8453 174.73 18.267 175.335 18.6796C175.637 18.8904 175.903 19.1747 176.187 19.4222C176.435 19.7064 176.682 20.0089 176.884 20.339C176.994 20.5498 177.067 20.779 177.15 20.9991C177.214 21.2283 177.223 21.4666 177.287 21.6867C177.379 21.9067 177.342 22.1451 177.352 22.3743C177.352 22.4934 177.352 22.6035 177.333 22.7226C177.297 22.8327 177.251 22.9518 177.205 23.0618C177.122 23.2085 177.095 23.4102 177.012 23.5753C176.93 23.7403 176.847 23.9236 176.792 24.0795C176.673 24.4645 176.398 24.7396 176.169 25.0605C175.912 25.3447 175.601 25.5739 175.298 25.8122C174.656 26.2248 173.978 26.5548 173.281 26.8024C172.841 26.9949 172.364 27.0957 171.906 27.2149C171.448 27.3433 170.98 27.4258 170.512 27.5175C169.577 27.7375 168.633 27.8933 167.689 28.0584C167.514 28.0767 167.34 28.1042 167.166 28.1134C166.625 28.1225 166.057 28.1317 165.516 28.1409L165.553 27.545C165.782 27.6091 166.02 27.6642 166.249 27.7008C166.616 27.7558 166.983 27.82 167.349 27.8842C167.707 27.9759 168.074 28.0767 168.431 28.1959C168.679 28.2784 168.945 28.3517 169.192 28.4434C169.687 28.6268 170.219 28.7551 170.677 29.0485C170.907 29.186 171.136 29.3327 171.337 29.4886C171.53 29.6719 171.704 29.8828 171.86 30.0936C172.117 30.2678 172.337 30.497 172.557 30.7262L172.887 31.0654L173.162 31.4597C173.254 31.5972 173.373 31.7255 173.446 31.8722C173.519 32.0281 173.584 32.1748 173.602 32.3123C173.721 33.0366 173.822 33.5591 173.877 34.3017C173.904 34.7051 173.648 35.2827 173.281 35.6677C173.144 35.8053 173.015 35.9519 172.859 36.0345C172.703 36.0986 172.538 36.1353 172.383 36.117C172.337 36.1078 172.227 36.1353 172.126 36.172C172.016 36.1903 171.906 36.2086 171.86 36.2362C171.668 36.337 171.438 36.4012 171.237 36.392C171.026 36.3828 170.824 36.3553 170.632 36.3553C170.072 36.3553 169.687 36.2637 169.275 36.0711C169.137 36.007 168.844 35.9611 168.679 35.9795C167.615 36.0986 166.451 35.9061 165.323 35.5577C163.453 35.026 161.665 34.045 160.217 32.6973C160.006 32.5231 159.813 32.3123 159.603 32.1473C159.245 31.8722 158.915 31.5605 158.64 31.203C158.347 30.8546 158.072 30.497 157.842 30.1028C157.659 29.8003 157.411 29.5344 157.237 29.2319C157.32 28.9018 157.017 28.7918 156.889 28.5718C156.705 28.2692 156.623 27.9484 156.44 27.6091C156.21 27.1966 156.009 26.7107 155.871 26.234C155.614 25.4363 155.67 25.0238 156.018 24.8313C156.073 24.8038 156.137 24.7671 156.201 24.7487C156.375 24.7029 156.513 24.8038 156.678 25.143C156.889 25.5555 157.109 25.9956 157.256 26.4081C157.411 26.8574 157.595 27.2974 157.824 27.7008C158.072 28.095 158.319 28.4801 158.576 28.8468C159.355 29.947 160.253 30.8913 161.253 31.7805C161.574 32.0647 161.913 32.3398 162.28 32.569C162.628 32.8257 163.013 33.0274 163.389 33.2474C164.113 33.6416 164.911 33.8983 165.708 34.1275C166.423 34.3292 167.166 34.4759 167.872 34.6501C168.505 34.806 169.146 34.916 169.797 34.9985C170.109 35.026 170.476 35.0993 170.742 35.0993C171.007 35.1085 171.282 35.136 171.521 35.0718C171.787 35.0627 172.007 34.9251 172.19 34.806C172.502 34.5493 172.603 34.1917 172.658 33.8158C172.648 33.6141 172.667 33.4216 172.603 33.2016C172.593 32.9907 172.474 32.7707 172.401 32.5507C172.383 32.4498 172.309 32.3306 172.236 32.2939C171.759 32.0281 171.466 31.533 170.989 31.1663C169.779 30.2128 168.202 29.5802 166.579 29.1677L165.314 28.8926H165.305C164.718 28.7643 164.342 28.1776 164.471 27.5908C164.581 27.1141 164.984 26.7749 165.452 26.7382C167.111 26.6007 168.77 26.4448 170.347 26.0414C170.98 25.9222 171.558 25.6839 172.163 25.5097C172.722 25.2713 173.327 25.0788 173.831 24.7946C173.996 24.7121 174.152 24.6296 174.317 24.5379C174.455 24.437 174.583 24.327 174.72 24.217C175.005 24.0153 175.188 23.7678 175.399 23.5386C175.729 23.0985 175.986 22.6585 175.967 22.1909C175.986 22.0809 175.995 21.9617 175.949 21.8425C175.921 21.7233 175.912 21.6042 175.876 21.485C175.738 21.2558 175.683 20.9991 175.472 20.7882C175.326 20.5957 175.179 20.394 174.959 20.229C174.766 20.0548 174.574 19.8714 174.326 19.7247C173.859 19.4038 173.419 19.138 172.933 18.9913C171.961 18.6704 170.879 18.7163 169.806 19.0188C169.66 19.0646 169.513 19.1105 169.376 19.1838C168.44 19.6055 167.533 20.1281 166.634 20.7149C166.185 21.0082 165.736 21.32 165.296 21.65L164.627 22.1542L164.269 22.4293L164.058 22.5851L163.911 22.686C163.866 22.7135 163.792 22.7501 163.728 22.7868L163.627 22.8327C163.655 22.8235 163.481 22.8877 163.361 22.906C163.224 22.9243 163.077 22.9335 162.93 22.906C162.793 22.8877 162.665 22.8418 162.555 22.7868C162.481 22.741 162.518 22.7868 162.298 22.6126C162.124 22.4659 161.968 22.2367 161.904 21.9984C161.867 21.8792 161.858 21.7692 161.849 21.6683C161.849 21.6042 161.849 21.5766 161.849 21.5308C161.858 21.4483 161.867 21.3658 161.895 21.2833C161.922 21.2008 161.95 21.1183 161.986 21.0449L162.041 20.9532C162.078 20.8891 162.142 20.7974 162.179 20.7699L162.243 20.6965C162.325 20.614 162.362 20.5865 162.399 20.5498L162.591 20.394L162.912 20.1373L163.508 19.6514C163.893 19.3213 164.251 18.9821 164.581 18.6246C165.241 17.9095 165.791 17.1302 166.112 16.3143C166.561 15.2141 166.588 14.0681 166.13 12.9313C165.956 12.4912 165.663 11.9687 165.397 11.6203C165.122 11.2536 164.828 11.006 164.544 10.9144C163.948 10.676 162.931 11.2077 162.023 11.9228C161.748 12.1245 161.5 12.3996 161.253 12.6654C160.033 14.0315 159.043 15.6817 158.246 17.3961C158.044 17.8086 157.851 18.1937 157.54 18.4596C157.393 18.5879 157.219 18.8996 157.127 19.1655C156.843 19.9173 156.568 20.7057 156.531 21.5125C156.504 22.0442 156.348 22.5026 156.302 22.9977C156.302 23.0343 156.229 23.0894 156.201 23.071C156.082 22.9885 156.036 23.1077 156.045 23.3094C156.045 23.7036 156.22 24.0795 156.174 24.4554C156.119 24.9229 155.789 24.6662 155.633 24.8863C155.468 25.1521 155.211 24.6112 155 24.5746C154.964 24.5654 154.89 24.3087 154.881 24.1712C154.835 23.8595 154.808 23.5478 154.826 22.8877Z" fill="#8ED6C7"/>
<path d="M156.66 21.6953C156.66 21.6953 150.444 23.2814 151.196 27.8378C151.819 31.5875 156.843 31.1474 158.796 30.5149C156.247 27.627 156.66 21.6953 156.66 21.6953Z" fill="#8ED6C7"/>
<path d="M156.587 23.0614C156.441 23.0798 156.202 23.0981 155.973 23.1348C155.854 23.1531 155.726 23.1623 155.606 23.1898C155.524 23.2081 155.441 23.2356 155.322 23.1531C155.212 23.0706 155.157 23.1256 155.121 23.2264C155.102 23.2906 155.075 23.364 155.029 23.3823C154.818 23.4648 154.58 23.5107 154.378 23.6115C154.24 23.6757 154.103 23.7307 153.92 23.694C153.791 23.6757 153.791 23.804 153.782 23.914C153.773 24.0607 153.718 24.0424 153.516 23.8957C153.388 23.804 153.36 23.8224 153.415 23.9324C153.47 24.0424 153.544 24.1524 153.47 24.1982C153.269 24.3449 153.085 24.5099 152.92 24.675C152.865 24.7208 152.838 24.8492 152.618 24.62C152.609 24.6108 152.572 24.5925 152.563 24.5925C152.462 24.6658 152.388 24.7667 152.306 24.8492C152.425 25.0967 152.123 25.0967 152.159 25.2801C152.168 25.3167 152.141 25.3534 152.095 25.3534C151.857 25.3442 151.948 25.5643 151.738 25.5826C151.6 25.6009 151.628 25.6743 151.719 25.7568C151.802 25.8393 151.838 25.9035 151.82 25.9677C151.692 26.2885 151.692 26.6369 151.655 26.967C151.655 27.1778 151.673 27.3978 151.628 27.6179C151.563 28.0213 151.673 28.4247 151.829 28.7822C151.903 29.0022 151.994 29.2223 152.077 29.4698C152.123 29.5615 152.178 29.6257 152.278 29.6623C153.049 29.9099 153.654 30.1574 154.378 30.3591C154.488 30.3866 154.57 30.5241 154.69 30.5149C154.809 30.5058 154.91 30.4691 155.02 30.5516C155.093 30.6158 155.203 30.5883 155.295 30.5333C155.68 30.2766 156.046 30.3958 156.422 30.4141C156.67 30.4233 156.927 30.5058 157.174 30.4783C157.431 30.4691 157.669 30.3774 157.917 30.3132C157.963 30.3041 157.999 30.2766 158.045 30.2766C158.256 30.2766 158.485 30.3224 158.669 30.2307L158.724 30.2032L158.586 30.6983C158.439 30.5699 158.274 30.4599 158.155 30.2949C158.109 30.2307 158.045 30.1757 157.99 30.1299C157.761 29.919 157.468 29.7173 157.623 29.3139L157.385 28.8464C157.339 28.773 157.257 28.6905 157.293 28.608C157.385 28.3696 157.293 28.2505 157.027 28.1588C156.881 28.1129 156.835 27.9846 156.752 27.8837C156.697 27.8104 156.652 27.7371 156.798 27.627C156.844 27.5904 156.853 27.4987 156.807 27.4895C156.652 27.4162 156.734 27.2878 156.688 27.1962C156.624 27.0586 156.606 26.9394 156.716 26.7928C156.752 26.7469 156.725 26.6644 156.67 26.6277C156.312 26.4077 156.221 26.0868 156.129 25.766C156.001 25.2434 155.918 24.7025 155.936 24.1616C155.936 24.0882 155.936 24.0057 155.9 23.9415C155.771 23.7032 155.79 23.4556 155.79 23.2081C155.79 23.1073 155.753 23.0156 155.735 22.9147C155.964 22.8414 155.744 22.7772 155.735 22.713C155.716 22.6214 155.799 22.5297 155.753 22.4197C155.698 22.2913 155.744 22.1446 155.762 22.0071C155.771 21.8879 155.826 21.8054 155.927 21.7504C155.955 21.7412 155.982 21.7229 156.01 21.7229C156.037 21.7962 156.083 21.8696 156.138 21.9063C156.257 21.9888 156.377 21.9613 156.459 21.8971C156.514 21.8604 156.56 21.8054 156.606 21.7504C156.661 21.6862 156.707 21.6221 156.771 21.6587C156.807 21.6679 156.826 21.7412 156.844 21.7596C156.862 21.7779 156.872 21.8054 156.881 21.8237C156.927 21.9521 157.018 22.0896 156.982 22.2088C156.89 22.4747 157.018 22.7314 157.082 22.9789C157.183 23.3548 157.275 23.7123 157.293 24.0882C157.302 24.3358 157.348 24.5741 157.367 24.8217C157.394 25.0509 157.504 25.2709 157.578 25.4909C157.642 25.6926 157.733 25.8851 157.743 26.0868C157.761 26.4444 157.898 26.7744 157.953 27.1228C157.972 27.2145 157.99 27.3062 158.036 27.3795C158.201 27.6546 158.384 27.9021 158.439 28.223C158.439 28.2596 158.448 28.2963 158.494 28.3055C158.797 28.333 158.788 28.5255 158.861 28.6722C159.081 29.0389 159.301 29.3965 159.558 29.699L159.622 29.7815L160.612 31.0375L159.145 31.5326C158.513 31.7434 157.917 31.8718 157.293 31.9451C156.881 32.0001 156.468 32.0735 156.056 31.991C155.799 31.9451 155.561 32.0001 155.304 31.9818C154.845 31.9543 154.387 31.8443 153.92 31.7251C153.131 31.5326 152.297 31.2209 151.582 30.6158C151.536 30.5699 151.481 30.5424 151.417 30.5058C150.637 30.0749 150.17 29.1581 150.041 28.3421C149.876 27.5629 149.849 26.8019 149.986 26.0043C150.133 25.4818 150.335 24.9775 150.628 24.5466C150.848 24.1799 151.114 23.859 151.398 23.5657C151.554 23.419 151.71 23.2723 151.866 23.1164C152.031 22.9881 152.214 22.8781 152.407 22.7956C152.526 22.7497 152.618 22.6764 152.728 22.6122C153.241 22.2913 153.773 22.0346 154.323 21.8237C154.451 21.7687 154.598 21.7596 154.772 21.9063C154.864 21.9704 154.974 21.9796 155.047 21.9521C155.276 21.8879 155.515 21.8696 155.698 21.6954C155.817 21.5854 155.991 21.6312 156.138 21.6221C156.147 21.6221 156.184 21.6771 156.193 21.7046C156.212 21.8238 156.257 21.8513 156.312 21.8421C156.413 21.8146 156.487 21.6496 156.615 21.7504C156.67 21.8329 156.523 21.8879 156.496 21.9888C156.441 22.0805 156.487 22.2546 156.294 22.2455C156.111 22.1905 156.083 22.4288 156.468 22.6305C156.56 22.6764 156.661 22.6947 156.762 22.7039L156.89 22.713V22.7497C156.89 22.7955 156.89 22.8414 156.908 22.8872C156.917 22.9147 156.872 22.9514 156.853 22.9606C156.78 23.0064 156.716 23.0156 156.587 23.0614Z" fill="#8ED6C7"/>
<path d="M134.667 22.6211C134.741 21.4751 134.915 20.265 135.08 19.0456C135.135 18.7156 135.291 18.2205 135.492 17.8355C135.795 17.2854 136.143 16.5978 137.033 16.2219C137.473 16.0569 137.959 16.0752 138.344 16.1944C138.527 16.2586 138.719 16.3228 138.884 16.4053L139.325 16.6803C139.517 16.7903 139.636 16.9462 139.783 17.047C140.498 17.5788 141.066 18.3122 141.451 19.1006C141.837 19.8983 142.047 20.7509 142.185 21.5852C142.387 22.7678 142.313 23.9505 142.277 25.1148C142.267 25.7657 142.102 26.5175 141.956 27.2051C141.479 29.277 140.755 31.2481 139.884 33.1551C139.618 33.751 139.343 34.2461 139.114 34.2185C138.985 34.2094 138.664 34.6403 138.518 34.5944C138.133 34.4569 138.27 33.5768 138.848 32.0824C139.105 31.4132 139.38 30.7347 139.609 30.0471C140.049 28.7361 140.324 27.3976 140.681 26.0591C140.801 25.5824 140.865 24.9773 140.892 24.4455C140.984 22.9145 140.92 21.4018 140.388 20.0541C140.223 19.6232 140.003 19.1923 139.719 18.8531C139.013 17.973 137.793 17.1112 137.372 17.6246C137.069 17.8721 136.849 18.4039 136.647 18.9356C136.427 19.4949 136.345 20.1825 136.253 20.8242C136.024 22.557 136.024 24.3447 135.96 26.1324C136.079 28.2136 136.024 30.4139 136.336 32.4858C136.437 33.1276 136.501 33.8977 136.51 34.6494C136.537 36.4188 136.492 36.6114 135.997 35.9788C135.877 35.8229 135.758 35.6212 135.648 35.392C135.483 35.062 135.382 34.6586 135.309 33.9068C135.208 32.8617 135.043 31.8257 134.906 30.8173C134.796 30.0013 134.686 29.2312 134.695 28.3236C134.695 28.0027 134.667 27.6452 134.64 27.3151C134.521 25.8116 134.502 24.2622 134.667 22.6211Z" fill="#8ED6C7"/>
<path d="M145.53 39.9765C146.309 40.0957 147.18 40.2607 147.941 40.0498C148.143 40.004 148.464 40.0132 148.702 39.9673L149.252 39.9032L149.766 39.7473C150.132 39.674 150.407 39.4264 150.737 39.2522C150.829 39.1881 150.912 39.1239 150.985 39.0505C151.159 38.8672 151.242 38.7022 151.297 38.6013C151.287 38.528 151.315 38.6013 151.269 38.4913C151.132 38.2713 150.618 37.9596 150.114 37.8037C149.39 37.5562 148.592 37.3178 147.776 37.2536C147.318 37.217 146.786 37.1069 146.291 37.0336C144.787 36.7952 143.266 36.6302 141.734 36.5019C141.258 36.4652 140.845 36.4193 140.799 36.1993C140.772 36.0801 140.387 35.9701 140.368 35.8143C140.332 35.4109 141.01 35.1267 142.257 35.1633C142.816 35.1817 143.385 35.2367 143.944 35.2825C145.017 35.3742 146.098 35.4017 147.162 35.6951C147.538 35.7959 148.015 35.8509 148.445 35.9334C149.06 36.0343 149.665 36.1901 150.27 36.401C150.866 36.621 151.471 36.8594 152.058 37.3636C152.241 37.5287 152.433 37.7487 152.543 38.0512C152.672 38.3446 152.663 38.7113 152.58 38.9955C152.333 39.7473 151.865 40.0773 151.434 40.4166L150.728 40.8658C150.481 40.9941 150.215 41.0766 149.958 41.1775C149.711 41.2875 149.463 41.3425 149.216 41.3792C148.968 41.425 148.711 41.4892 148.455 41.4892C147.923 41.4984 147.354 41.5717 146.804 41.5259C145.365 41.4434 143.962 41.1317 142.651 40.6091C141.056 40.1782 139.58 39.2981 138.076 38.6655C137.609 38.473 137.086 38.1704 136.61 37.822C135.509 36.9694 135.454 36.8136 136.124 36.7586C136.28 36.7402 136.472 36.7494 136.674 36.7677C136.967 36.7861 137.251 36.9052 137.746 37.1803C138.434 37.5745 139.158 37.8587 139.864 38.1246C140.433 38.3354 140.983 38.5188 141.579 38.803C141.789 38.9039 142.046 38.9864 142.275 39.0597C143.348 39.3806 144.402 39.6831 145.53 39.9765Z" fill="#8ED6C7"/>
<path d="M55.8858 107.58L57.4444 146.04C57.4444 146.04 46.012 147.075 46.3603 136.514C46.7087 125.943 56.6651 128.611 56.6651 128.611" fill="#8ED6C7"/>
<path d="M58.3422 131.536C58.443 133.497 58.4522 135.606 58.8097 137.586C58.9014 138.118 58.9014 138.943 58.8831 139.594C58.8281 141.547 58.8006 143.491 58.8922 145.507C58.8922 145.663 58.8922 145.828 58.9014 145.984V146.067C58.9106 146.818 58.3238 147.433 57.5904 147.479C57.3795 147.488 57.242 147.488 57.0953 147.506C54.0608 147.772 50.907 146.938 48.3308 144.884C47.414 144.187 46.6989 143.215 46.1397 142.207C45.8371 141.712 45.6904 141.153 45.4521 140.621C45.232 140.089 45.1587 139.539 44.9937 138.989C44.7095 137.77 44.737 136.303 44.9203 135.001C45.1862 133.03 45.8921 130.885 47.5057 129.28C48.2758 128.464 49.2843 127.905 50.2836 127.502C51.3012 127.135 52.3464 126.952 53.364 126.906C54.6292 126.851 55.7018 127.062 55.7843 127.502C55.8393 127.74 56.7653 128.088 56.7286 128.418C56.6736 128.822 56.2611 129.079 55.5643 129.244C54.8675 129.418 53.8499 129.491 52.6489 129.739C51.5762 129.959 50.5769 130.344 49.816 131.013C49.1101 131.673 48.6517 132.553 48.3125 133.525C48.1933 134.038 48.0558 134.552 47.9458 135.084C47.8907 135.634 47.7716 136.193 47.7074 136.752C47.6799 137.146 47.6891 137.596 47.7074 138.054C47.7441 138.503 47.8907 138.925 47.9733 139.347C48.34 140.483 48.7984 141.547 49.6143 142.354C50.4119 143.17 51.4387 143.811 52.6122 144.242C53.3457 144.545 54.1799 144.728 54.9684 144.811C55.7568 144.857 56.6278 144.866 57.3429 144.802L56.2152 146.094C56.1327 144.692 56.0685 143.289 56.0135 141.877C55.9768 140.786 55.9127 139.732 55.9218 138.622C55.931 137.476 55.8027 136.248 55.7385 135.056C55.5735 131.902 55.3168 128.758 55.2984 125.586C54.895 121.918 55.0326 118.031 54.5283 114.364C54.3725 113.227 54.29 111.87 54.3358 110.532C54.4641 107.415 54.6017 107.076 55.5093 108.231C55.7293 108.506 55.9402 108.872 56.1419 109.285C56.4261 109.872 56.6003 110.578 56.6828 111.898C56.802 113.731 57.0678 115.538 57.3062 117.307C57.4987 118.728 57.7096 120.076 57.7188 121.653C57.7188 122.221 57.8013 122.835 57.8654 123.413C58.1496 126.044 58.3238 128.703 58.3422 131.536Z" fill="#8ED6C7"/>
<path d="M66.6327 153.576L65.5967 122.047C65.5967 122.047 75.0121 117.693 76.424 125.43C77.8084 133.012 66.0276 133.892 66.0276 133.892" fill="#8ED6C7"/>
<path d="M64.4781 133.187C64.3956 131.519 64.4139 129.722 64.0839 128.035C63.9922 127.576 64.0105 126.88 64.038 126.329C64.1022 124.927 64.148 123.533 64.1297 122.094V122.03C64.1205 121.443 64.4689 120.93 64.9823 120.71C65.294 120.572 65.5415 120.48 65.8258 120.37C66.0825 120.269 66.385 120.214 66.6142 120.104C67.806 119.609 69.0895 119.344 70.4464 119.307C71.7941 119.279 73.2701 119.509 74.6361 120.26C74.8837 120.361 75.1037 120.535 75.3146 120.71C75.5254 120.884 75.7455 121.049 75.9471 121.241C76.268 121.663 76.6714 122.076 76.9006 122.543C77.4323 123.478 77.6982 124.404 77.9824 125.376C78.2666 126.458 78.1749 127.952 77.6432 129.19C76.8548 131.088 75.3054 132.353 73.8019 133.169C72.2708 133.994 70.6756 134.48 69.0895 134.819C68.0994 135.03 67.2193 135.103 67.0451 134.691C66.9442 134.471 66.1191 134.379 66.055 134.067C65.9083 133.251 67.0909 132.619 69.2637 131.949C70.2355 131.638 71.2073 131.308 72.0691 130.849C72.8851 130.4 73.6002 129.85 74.1136 129.217C74.6453 128.594 74.957 127.934 75.1862 127.164C75.3421 126.614 75.2596 125.834 75.0029 125.174C74.7553 124.184 74.2878 123.442 73.6552 122.919C73.0226 122.387 72.1241 122.094 71.1065 122.03C70.4647 121.975 69.7496 122.011 69.0987 122.167C68.0994 122.415 67.0359 122.772 66.1375 123.185L66.8709 121.993C66.8984 122.781 66.9259 123.579 66.9626 124.377C66.9901 125.303 67.0359 126.201 67.0084 127.145C66.9809 128.117 67.1001 129.162 67.1459 130.18C67.2743 132.866 67.4852 135.543 67.4668 138.239C67.8244 141.365 67.641 144.665 68.0994 147.792C68.2369 148.763 68.3103 149.919 68.2369 151.046C68.0719 153.705 67.9252 153.989 67.0359 152.999C66.8251 152.761 66.6142 152.449 66.4125 152.101C66.1283 151.605 65.9724 151 65.8991 149.873C65.8074 148.305 65.5599 146.774 65.3399 145.27C65.1657 144.06 64.9731 142.914 64.9823 141.576C64.9915 141.09 64.909 140.567 64.854 140.081C64.5973 137.863 64.4597 135.598 64.4781 133.187Z" fill="#8ED6C7"/>
<path d="M29.9064 60.137C34.4995 62.154 33.1977 57.4691 34.0686 52.6652C36.1497 41.1044 39.7252 38.6933 37.6441 33.8251C35.563 28.9569 32.6293 31.4506 31.0157 38.9591C29.2096 47.3386 27.101 58.8993 29.9064 60.137Z" fill="#8ED6C7"/>
<path d="M32.4072 60.0723C32.5539 60.0264 32.6273 59.8614 32.7556 59.7605C32.8381 59.6047 32.939 59.4672 33.0032 59.293C33.1407 58.9538 33.2324 58.5871 33.324 58.2112C33.4707 57.5419 33.5716 56.8635 33.5624 56.1484C33.5624 55.965 33.5899 55.7633 33.5991 55.58L33.6724 54.5348C33.6816 54.379 33.6633 54.2048 33.6908 54.0581C33.8283 53.343 33.9658 52.6279 34.0391 51.9128C34.2408 51.3719 34.2683 50.8127 34.3692 50.2534C34.47 49.6942 34.6167 49.1349 34.6809 48.5665C34.6992 48.4198 34.7359 48.2456 34.7909 48.1081C35.0843 47.2372 35.3226 46.3479 35.561 45.4586C35.8361 44.5051 36.1661 43.5792 36.5695 42.6715C36.7803 42.1948 36.9637 41.6722 37.1379 41.168C37.3488 40.5629 37.5229 39.9578 37.688 39.3436C37.9355 38.4635 38.0914 37.5467 38.018 36.6574C37.9447 35.4656 37.5046 34.3379 36.927 33.3111C36.7895 33.0452 36.6153 32.816 36.4595 32.5593C36.2761 32.3485 36.1111 32.1009 35.8911 31.9634C35.0843 31.23 33.9658 32.1193 33.3607 33.1644C32.8656 33.9345 32.5081 34.8238 32.2147 35.7131C31.9397 36.5474 31.7288 37.4092 31.5455 38.2709C31.0046 40.8471 30.5278 43.4508 30.1061 46.0545L29.8402 47.9339L29.7027 48.8691C29.5194 50.0242 29.3543 51.1885 29.2351 52.3529C29.0701 54.0123 28.9784 55.69 29.1343 57.3035C29.1893 57.7528 29.2535 58.2112 29.391 58.6054C29.5194 59.0088 29.7302 59.3663 29.9778 59.513C30.1153 59.568 30.1336 59.6505 30.0419 59.7147C29.8677 59.8247 29.6019 59.9622 29.226 59.6414C28.9784 59.4213 28.7859 59.1463 28.7034 58.7612C28.5751 58.202 28.4009 57.6061 28.4742 57.0468C28.4834 56.9643 28.4742 56.8543 28.4559 56.7626C28.2267 55.1032 28.4192 53.4347 28.6117 51.7845L28.7859 50.1617L28.9326 49.1166L29.1801 47.6039C29.2351 47.2188 29.2626 46.8521 29.4277 46.5221C29.4643 46.4579 29.4919 46.2562 29.4735 46.1829C29.4185 45.8986 29.4827 45.5869 29.5469 45.2752L30.0511 42.7449C30.1703 42.1215 30.2803 41.4981 30.3903 40.8655C30.5553 39.8937 30.6837 38.931 30.8854 37.9501C31.0504 37.1341 31.2704 36.3273 31.5271 35.5297C31.5913 35.3464 31.6188 35.1538 31.6921 34.9705C31.8205 34.6404 31.9305 34.2737 32.1047 33.9804C32.3156 33.6595 32.4256 33.3936 32.5264 33.0452C32.5906 32.8527 32.7465 32.5685 32.9023 32.3576C33.1223 32.0918 33.3332 31.8351 33.6266 31.6242C33.7824 31.4958 33.9475 31.3767 34.14 31.2758C34.2317 31.2208 34.3233 31.1658 34.415 31.1016C34.5159 31.0466 34.6351 31.0099 34.7451 30.9549C34.9834 30.8082 35.4143 30.8541 35.6985 30.9549C36.3678 31.1841 36.7162 31.6975 37.0921 32.1376L37.5413 32.8619L37.9172 33.6045C38.5864 34.9613 38.8523 36.584 38.6231 38.1059C38.5314 38.7018 38.3847 39.2794 38.2289 39.8478C37.7063 41.5989 37.0462 43.24 36.4778 44.9269C36.3678 45.2569 36.2394 45.5869 36.1661 45.9262C35.9827 46.6963 35.7535 47.448 35.5335 48.209C35.2493 49.1166 35.0843 50.0517 34.9284 50.9868C34.8918 51.2069 34.8734 51.4269 34.8276 51.6378C34.4334 53.1321 34.3875 54.5898 34.2775 56.1209C34.2225 56.7351 34.1767 57.3586 34.0758 57.9911C33.9841 58.6237 33.8558 59.2747 33.5166 59.9256C33.269 60.4115 32.719 60.9249 32.1047 60.9432C31.8205 60.989 31.5455 60.9432 31.2796 60.9065C31.0321 60.8332 30.7754 60.7782 30.537 60.6957L30.3536 60.6315C29.8311 60.4023 29.7302 60.2189 30.0511 60.1181C30.3353 60.0081 30.6837 60.0998 31.1237 60.1731C31.6096 60.3106 32.0955 60.3198 32.4347 60.0906L32.4072 60.0723Z" fill="#8ED6C7"/>
<path d="M31.2925 64.2721C27.6162 64.3638 27.6987 67.435 29.0831 68.7369C30.4674 70.0387 33.1536 69.3419 33.6303 67.2608C34.1071 65.1797 33.0253 64.2262 31.2925 64.2721Z" fill="#8ED6C7"/>
<path d="M30.611 64.6657C30.4185 64.6657 30.2168 64.6474 30.0151 64.6565C29.8409 64.6657 29.6392 64.6474 29.5201 64.8032C29.4834 64.8399 29.4375 64.8491 29.3917 64.8766C29.3092 64.9132 29.2359 64.9591 29.1808 65.0232C29.1533 65.0508 29.1442 65.1058 29.1075 65.1149C28.915 65.1608 28.7958 65.3075 28.7316 65.4816C28.5941 65.555 28.5574 65.7017 28.5391 65.8392C28.5207 65.9767 28.4382 66.0959 28.4932 66.2517C28.5024 66.2884 28.5024 66.3251 28.4841 66.3618C28.3741 66.5635 28.4016 66.7927 28.4474 67.0127C28.4932 67.2419 28.5391 67.4711 28.5574 67.7278C28.5574 67.8653 28.6399 67.9845 28.7041 68.1037C28.7958 68.232 28.8966 68.3604 29.0158 68.4704C29.1717 68.6354 29.3642 68.7729 29.5842 68.8279C29.8684 68.9196 30.1618 68.9288 30.4369 68.9379C30.5744 68.9288 30.7119 68.9838 30.8586 68.9838C31.1428 69.0113 31.4453 69.0021 31.7295 68.9196C31.9496 68.8646 32.1512 68.7546 32.3254 68.6171C32.4905 68.4979 32.628 68.3329 32.738 68.1678C33.1139 67.7094 33.2147 67.1044 33.2239 66.4901C33.2147 66.3526 33.1964 66.2151 33.1597 66.0867C33.1505 66.0225 33.1322 65.9675 33.123 65.9034C33.0864 65.6742 33.0039 65.4725 32.8663 65.3166C32.6646 65.0966 32.3621 64.9407 32.0046 64.8674C31.8029 64.8216 31.5828 64.794 31.3628 64.8582C31.2986 64.8766 31.2803 64.8215 31.2986 64.7115C31.3353 64.519 31.3628 64.3265 31.4912 64.2073C31.5737 64.1248 31.6562 64.079 31.7662 64.1156C31.9129 64.1615 32.0962 64.1156 32.2154 64.2531C32.2338 64.2715 32.2613 64.2806 32.2888 64.2806C32.7563 64.2715 33.2056 64.574 33.4623 64.9682C33.5539 65.0874 33.6456 65.2158 33.719 65.3625C33.7556 65.4541 33.8015 65.5458 33.8198 65.6467C33.8473 65.7934 33.8656 65.9309 33.884 66.0684C33.9023 66.1692 33.9482 66.2793 33.829 66.3709C33.8015 66.3893 33.8106 66.4443 33.8381 66.4626C33.9482 66.536 33.9207 66.6276 33.9115 66.7193C33.884 66.9577 33.8198 67.1777 33.7648 67.4069C33.719 67.5811 33.6823 67.7553 33.6181 67.9203C33.5448 68.1862 33.4256 68.4612 33.2514 68.6996C33.1139 68.9013 32.9305 69.0755 32.738 69.2222C32.6922 69.2588 32.6555 69.3047 32.6096 69.3413C32.5271 69.4055 32.4355 69.4697 32.3346 69.488C32.2154 69.5064 32.1421 69.5247 32.0779 69.6439C32.0412 69.7081 31.9496 69.7356 31.8762 69.7539C31.7845 69.7722 31.6745 69.7539 31.5828 69.7447C31.4637 69.7356 31.3628 69.7081 31.2528 69.7906C31.1978 69.8364 31.1061 69.8272 31.0328 69.8089C30.7119 69.7081 30.4093 69.708 30.0885 69.653C29.6576 69.598 29.2175 69.4605 28.8416 69.1855C28.6766 69.0938 28.5758 68.9471 28.4382 68.8279C28.0715 68.4062 27.8515 67.8836 27.7782 67.3427C27.7506 67.2419 27.7598 67.1319 27.7231 67.0219C27.6406 66.7835 27.6681 66.5268 27.7323 66.2793C27.8148 65.9859 27.8698 65.6925 27.9798 65.3991C28.0074 65.335 28.0257 65.2524 28.0715 65.1974C28.3924 64.8216 28.7041 64.3998 29.1533 64.2073C29.5017 64.0423 29.8868 63.9689 30.2352 63.9598C30.5102 63.9231 30.7852 63.9598 31.0511 63.9873C31.0694 63.9873 31.0878 63.9781 31.1061 63.9781C31.262 63.9964 31.3078 64.1248 31.2436 64.3448C31.1886 64.5282 31.1061 64.6474 30.9869 64.6474C30.8586 64.6565 30.7119 64.6382 30.5835 64.6565L30.611 64.6657Z" fill="#8ED6C7"/>
<path d="M46.4902 70.4784C49.3597 69.1124 48.2137 66.7196 46.6644 66.1787C45.115 65.6377 43.2356 67.1321 43.5931 68.9382C43.9415 70.7534 45.1333 71.1202 46.4902 70.4784Z" fill="#8ED6C7"/>
<path d="M46.8654 69.8911C47.0212 69.8269 47.1862 69.7719 47.3421 69.7077C47.4796 69.6436 47.6538 69.5977 47.6905 69.4235C47.6997 69.3869 47.7363 69.3594 47.7638 69.3227C47.8097 69.2677 47.8555 69.2035 47.8738 69.1302C47.883 69.1027 47.8647 69.0477 47.8922 69.0293C48.0297 68.9285 48.0755 68.7726 48.0572 68.6168C48.1489 68.5159 48.1214 68.3876 48.0847 68.2684C48.048 68.1584 48.0664 68.03 47.9655 67.9383C47.938 67.9108 47.9288 67.8833 47.9288 67.8467C47.9563 67.6541 47.8463 67.4799 47.7363 67.3333C47.6171 67.1682 47.5071 67.0032 47.4154 66.8015C47.3696 66.6915 47.2596 66.6273 47.1771 66.554C47.0579 66.4806 46.9295 66.4256 46.8012 66.3798C46.6178 66.3064 46.4161 66.2698 46.2328 66.3156C45.9761 66.3523 45.7469 66.4623 45.536 66.554C45.426 66.609 45.3068 66.6182 45.1968 66.664C44.9676 66.7373 44.7292 66.8382 44.5367 67.0032C44.39 67.1224 44.2708 67.2782 44.1883 67.4433C44.1058 67.5991 44.06 67.7733 44.0325 67.9383C43.9133 68.4242 44.0416 68.9101 44.2525 69.3869C44.3075 69.4877 44.3717 69.5886 44.445 69.6711C44.4725 69.7169 44.5092 69.7536 44.5367 69.7994C44.6376 69.9553 44.7567 70.0836 44.9126 70.157C45.1326 70.2578 45.4077 70.2762 45.7102 70.212C45.8752 70.1845 46.0586 70.1295 46.2053 70.0011C46.2419 69.9644 46.2786 70.0011 46.3153 70.1111C46.3611 70.2945 46.4253 70.487 46.3703 70.6337C46.3336 70.7346 46.2878 70.8171 46.1869 70.8171C46.0494 70.8262 45.9302 70.9454 45.7744 70.8629C45.756 70.8537 45.7285 70.8629 45.7102 70.8721C45.3435 71.0646 44.8759 70.9729 44.5275 70.7437C44.4084 70.6795 44.2892 70.6062 44.1792 70.5237C44.115 70.4595 44.0508 70.4045 43.9958 70.3312C43.9225 70.2303 43.8583 70.1203 43.7941 70.0103C43.7391 69.9369 43.6658 69.8636 43.7391 69.7444C43.7574 69.7169 43.7299 69.6802 43.7024 69.6711C43.5741 69.6527 43.5649 69.5702 43.5466 69.4969C43.4824 69.2952 43.4549 69.1027 43.4274 68.901C43.4091 68.7451 43.3632 68.5984 43.3541 68.4426C43.3174 68.195 43.299 67.9383 43.3541 67.6816C43.3907 67.4708 43.4732 67.2691 43.5741 67.0766C43.5924 67.0307 43.6016 66.9757 43.6291 66.9299C43.6749 66.8474 43.7208 66.7648 43.8033 66.719C43.895 66.6732 43.95 66.6182 43.95 66.499C43.95 66.4256 44.0141 66.3706 44.0691 66.334C44.1425 66.2789 44.2342 66.2606 44.3167 66.2423C44.4175 66.2148 44.5092 66.2056 44.5642 66.0956C44.5917 66.0314 44.6742 66.0131 44.7384 66.0039C45.041 65.9764 45.2793 65.8756 45.5544 65.793C45.9119 65.683 46.3245 65.628 46.7278 65.7014C46.8929 65.7197 47.0304 65.793 47.1862 65.8481C47.6355 66.0497 48.0022 66.3981 48.2497 66.8107C48.3047 66.884 48.3414 66.9757 48.4056 67.049C48.5614 67.2141 48.6348 67.4341 48.6623 67.6541C48.699 67.92 48.7631 68.1767 48.7906 68.4609C48.7906 68.5251 48.809 68.5984 48.7906 68.6534C48.6623 69.0752 48.5706 69.5336 48.2681 69.8544C48.0389 70.1111 47.7547 70.3037 47.4796 70.432C47.2688 70.5512 47.0396 70.6154 46.8104 70.6887C46.792 70.6979 46.7829 70.707 46.7737 70.7162C46.6453 70.7529 46.5537 70.652 46.517 70.432C46.4803 70.2395 46.4986 70.1111 46.5903 70.0653C46.6912 70.0103 46.8104 69.9828 46.902 69.9186L46.8654 69.8911Z" fill="#8ED6C7"/>
<path d="M46.3432 61.3465C49.4603 62.3275 49.6528 60.5031 52.5774 54.6539C55.5019 48.8048 56.9963 44.2575 56.0245 40.8196C55.0527 37.3724 52.5132 37.4366 50.3679 44.4592C48.7818 49.6391 44.0695 60.6314 46.3432 61.3465Z" fill="#8ED6C7"/>
<path d="M48.4426 61.0993C48.9377 60.8976 49.3503 60.4025 49.7353 59.9166C50.0745 59.4766 50.3862 58.9999 50.5788 58.4589C50.6338 58.3214 50.7163 58.1839 50.7804 58.0372L51.1472 57.2671C51.2022 57.1479 51.2205 57.0104 51.2847 56.9096C51.5964 56.4053 51.8623 55.8828 52.064 55.3235C52.3482 54.9476 52.4949 54.5167 52.669 54.0858C52.8524 53.6641 53.0724 53.2424 53.2008 52.8023C53.2375 52.6832 53.2925 52.5548 53.3566 52.454C53.7325 51.8122 54.0076 51.1154 54.2826 50.4187C54.5668 49.6669 54.8785 48.9335 55.1994 48.2C55.3827 47.815 55.5019 47.3841 55.6211 46.9624C55.7586 46.4581 55.8595 45.9539 55.942 45.4405C56.0703 44.7071 56.1437 43.9553 56.0795 43.2219C56.0153 42.2409 55.8045 41.2783 55.4378 40.4073C55.2361 39.9856 55.0435 39.5364 54.7502 39.243C54.4568 38.9496 54.1176 38.8946 53.7325 39.0596C53.3383 39.2155 53.0083 39.6097 52.6965 39.9764C52.2565 40.5815 51.8989 41.2599 51.6147 41.975C51.3397 42.6351 51.1197 43.3227 50.918 44.0103C50.3221 46.0823 49.607 48.1542 48.9285 50.1987C48.7727 50.6937 48.6168 51.1888 48.461 51.6839L48.2134 52.4173C47.8926 53.3249 47.5717 54.2234 47.2875 55.1402C46.8841 56.442 46.5174 57.7714 46.3248 59.0732C46.2698 59.4399 46.2332 59.8066 46.2607 60.1458C46.2698 60.4759 46.3982 60.7876 46.4807 60.7968C46.5174 60.7876 46.5082 60.8609 46.4624 60.9434C46.3707 61.081 46.0956 61.2735 45.8114 60.9343C45.6464 60.7143 45.5272 60.4484 45.5547 60.1183C45.5822 59.6416 45.5456 59.1465 45.7289 58.7065C45.7564 58.6423 45.7656 58.5506 45.7748 58.4773C45.8848 57.1113 46.3432 55.8186 46.7557 54.5259L47.1408 53.2516L47.4158 52.4356C47.5533 52.0414 47.7092 51.6563 47.8375 51.253C47.9384 50.9504 48.0026 50.657 48.2043 50.4278C48.2501 50.382 48.2959 50.2262 48.2868 50.162C48.2593 49.9144 48.3601 49.6761 48.4518 49.4377L49.1761 47.4666C49.3503 46.9807 49.4969 46.4856 49.6436 45.9906C49.8453 45.2205 50.0562 44.432 50.2579 43.6619C50.4321 43.0018 50.6796 42.3601 50.9271 41.7275C50.9821 41.5808 51.0372 41.4249 51.0922 41.2783C51.2022 41.0032 51.3397 40.719 51.4955 40.4898C51.6697 40.2331 51.8164 40.0406 51.8989 39.7472C51.9356 39.5822 52.1098 39.3713 52.2565 39.2063C52.4307 38.9863 52.6782 38.8213 52.9166 38.6562C53.2283 38.4729 53.5217 38.3537 53.925 38.1887C54.1542 38.1337 54.5026 38.1612 54.741 38.2987C55.2452 38.5829 55.5569 38.9955 55.7861 39.4172C56.0245 39.8297 56.1804 40.2698 56.3362 40.7007C56.7121 41.8925 56.8129 43.1669 56.7213 44.3954C56.6754 44.8813 56.6112 45.358 56.5104 45.8347C56.2354 47.3108 55.722 48.7134 55.1536 50.0795C55.0435 50.3453 54.9243 50.6204 54.8327 50.8862C54.6218 51.5097 54.3468 52.1056 54.0442 52.6923C53.6775 53.3891 53.375 54.1134 53.0541 54.8376C52.9808 55.0026 52.9257 55.1768 52.8341 55.3327C52.229 56.4237 51.7889 57.5972 51.2205 58.7157C50.7346 59.6141 50.267 60.5492 49.4144 61.3377C49.0936 61.6494 48.6168 61.8602 48.1676 61.9244C47.7 62.0069 47.2783 61.8969 46.8749 61.8144C46.8199 61.8052 46.7649 61.7961 46.7191 61.7777C46.279 61.6219 46.1873 61.4569 46.444 61.3193C46.6732 61.191 46.9666 61.1727 47.3333 61.2277C47.7275 61.2735 48.1126 61.2735 48.4518 61.1268L48.4426 61.0993Z" fill="#8ED6C7"/>
<path d="M10.5147 44.6148C10.4964 44.899 10.4414 45.2015 10.5881 45.4949C10.6247 45.5774 10.5972 45.6874 10.5697 45.7791C10.4872 46.0541 10.4139 46.3384 10.4322 46.6317C10.4322 46.6776 10.4139 46.7234 10.4322 46.7601C10.5789 47.1543 10.4414 47.5577 10.5055 47.9611C10.5422 48.2361 10.5147 48.5295 10.6706 48.7954C10.7531 48.942 10.7531 49.1254 10.7714 49.2996C10.8448 49.813 10.9089 50.3264 11.019 50.8398C11.0465 50.9957 11.0556 51.1423 10.8173 51.234C10.6797 51.289 10.6156 51.4449 10.4322 51.5091C9.9738 51.6649 9.56124 51.5366 9.38705 51.1148C9.31371 50.9223 9.25871 50.7206 9.21287 50.5281C9.12119 50.1522 8.92866 49.7855 9.002 49.3729C9.02951 49.2262 8.9745 49.0612 8.93783 48.9054C8.81864 48.4745 8.86448 48.0252 8.87365 47.5852C8.87365 47.4477 8.91032 47.301 8.87365 47.1635C8.80031 46.8059 8.77281 46.4484 8.78197 46.0908C8.78197 45.9166 8.77281 45.7516 8.81865 45.5774C8.86449 45.4032 8.81865 45.2015 8.81865 45.0182C8.82782 44.5231 8.80031 44.0097 8.93783 43.5238C8.86448 42.9187 9.14869 42.3503 9.07535 41.7269C9.04784 41.5344 9.09369 41.3143 9.21287 41.1218C9.50624 40.6634 9.62542 40.6267 10.0471 40.9935C10.1663 41.0576 10.258 41.1493 10.3497 41.2502C10.478 41.3785 10.5239 41.5069 10.4964 41.6994C10.4505 41.9653 10.5055 42.2586 10.5514 42.5337C10.5881 42.7537 10.6431 42.9646 10.5697 43.1846C10.5422 43.2671 10.5605 43.3588 10.5697 43.4413C10.6247 43.8263 10.6064 44.2114 10.5147 44.6148Z" fill="#8ED6C7"/>
<path d="M16.4658 25.7838C16.7316 25.362 17.1625 25.0045 17.3734 24.5002C17.4284 24.3627 17.6118 24.2344 17.7584 24.1335C18.2168 23.8127 18.6294 23.5284 19.0419 23.2442C19.1061 23.1984 19.1886 23.1617 19.2345 23.1159C19.3628 22.9784 19.5095 22.8592 19.6562 22.7583C19.8212 22.6667 19.9862 22.5933 20.1604 22.5108C20.5088 22.3733 20.8297 22.1899 21.1872 22.0891C21.4348 22.0066 21.6915 21.9424 21.939 21.8599C22.1865 21.7774 22.4432 21.6949 22.6999 21.6307C22.9842 21.539 23.3417 21.5207 23.6626 21.4932C24.6344 21.5115 25.6062 21.6124 26.4955 21.9332C26.7797 22.0157 27.018 22.1074 26.9722 22.3641C26.9447 22.5108 27.1372 22.6667 27.0822 22.85C26.9447 23.3176 26.4863 23.5743 25.8629 23.4734C25.5787 23.4368 25.3036 23.3084 25.0194 23.3267C24.4785 23.3267 23.956 23.3176 23.415 23.2901C23.2225 23.2626 22.9841 23.3176 22.7825 23.3543C22.214 23.5651 21.609 23.6201 21.0589 23.886C20.8755 23.9593 20.683 24.0235 20.518 24.1244C20.1421 24.4819 19.7112 24.7294 19.3353 25.0962C19.152 25.2612 18.9869 25.4262 18.7761 25.5729C18.5652 25.7287 18.4277 25.9854 18.2535 26.1871C18.0151 26.453 17.8226 26.7647 17.6209 27.0673C17.4101 27.3606 17.2175 27.6632 16.9975 27.9566C16.6766 28.745 16.1082 29.4693 15.9615 30.331C15.9157 30.5969 15.8148 30.8903 15.6498 31.147C15.2648 31.7521 15.1731 31.7887 14.7605 31.3762C14.6688 31.2753 14.5863 31.147 14.513 31.0186C14.4121 30.8261 14.403 30.6336 14.5038 30.3219C14.6597 29.891 14.7239 29.4326 14.8339 28.9925C14.9072 28.635 14.9897 28.2866 15.2098 27.9657C15.2923 27.8465 15.3381 27.6907 15.3839 27.5532C15.6406 26.9206 15.9707 26.3247 16.4658 25.7838Z" fill="#8ED6C7"/>
<path d="M19.39 96.3499C19.4909 95.8273 19.6925 95.0481 20.0318 94.3146C20.1968 93.9296 20.4076 93.5628 20.646 93.2053C20.8019 92.9394 20.9669 92.6827 21.2603 92.5727C21.517 92.4719 21.627 92.2518 21.7187 91.986C21.792 91.8301 21.8745 91.6376 22.012 91.5184L22.4613 91.1242C22.6263 91.0142 22.8005 90.9133 22.9655 90.8125C23.3047 90.6108 23.6348 90.4091 24.0015 90.2807C24.469 90.0882 24.9366 89.8957 25.4133 89.9782C25.725 90.0149 25.9176 89.8315 26.1468 89.6573C26.431 89.4373 26.5502 89.5198 26.816 89.7765C26.9719 89.9415 27.0727 89.9507 27.1461 89.7948C27.2194 89.6298 27.2377 89.474 27.522 89.4556C27.9253 89.4006 28.3196 89.4189 28.7138 89.4373L29.8964 89.5015C30.1165 89.529 30.5107 89.5106 30.3457 89.8773C30.3365 89.8957 30.3548 89.9507 30.3732 89.9507L31.4367 90.1524C31.8859 89.9048 32.3351 90.2807 32.7935 90.2532C32.8852 90.2441 33.0319 90.2899 33.0685 90.3449C33.2977 90.6841 33.8203 90.6199 34.0495 90.9133C34.1962 91.1058 34.3521 91.115 34.5446 91.0417C34.7188 90.9775 34.893 90.9683 35.1038 91.06C36.094 91.5001 37.0566 92.0593 37.8634 92.8111C38.3859 93.2695 38.8168 93.8287 39.1377 94.4338C39.697 95.5339 40.1095 96.6891 40.247 97.8993C40.3204 98.596 40.2379 99.2928 40.0728 99.9529C40.0087 100.219 39.972 100.448 39.9812 100.714C40.0728 102.859 38.9635 105.014 37.3225 106.48C37.0566 106.691 36.7357 106.82 36.479 107.021C36.2315 107.241 36.0206 107.471 35.6722 107.571C35.443 107.654 35.1863 107.819 35.003 107.993C34.5813 108.387 34.0495 108.635 33.4903 108.772C32.9402 108.91 32.3901 108.928 31.8492 109.002C31.1249 109.029 30.4098 108.992 29.6856 108.928C28.9613 108.882 28.2095 108.809 27.4761 108.58C27.3386 108.552 27.2011 108.507 27.0819 108.433C26.5226 108.112 26.0551 107.654 25.6334 107.205L25.3125 106.893L25.0466 106.535C24.8541 106.297 24.7349 106.022 24.6341 105.729C24.5515 105.527 24.4965 105.325 24.4324 105.124C24.1298 104.335 24.0015 103.418 24.4965 102.712L24.6066 102.025L24.7807 101.346C24.8266 101.117 24.8724 100.842 25.0099 100.695C25.3675 100.283 25.4958 99.9162 25.4592 99.3753C25.4408 99.0819 25.6334 98.7519 25.7434 98.4402C25.8259 98.211 25.9634 98.0093 26.2293 97.991C26.3118 97.9818 26.4768 97.8168 26.4951 97.7343C26.5685 97.4042 26.871 97.2667 27.036 97.0467C27.3111 96.7441 27.5586 96.5058 27.9528 96.4507C28.0812 96.4324 28.2646 96.2857 28.3287 96.1665C28.8146 95.4148 29.8139 94.8922 30.9966 94.993C31.9592 95.0572 32.9127 95.6715 33.3894 96.4232C33.8753 97.175 34.1595 97.9451 34.242 98.7611C34.2879 98.9811 34.3062 99.2194 34.3429 99.4486C34.5446 100.2 34.3337 101.136 33.8478 101.86C33.6828 102.153 33.4719 102.428 33.2611 102.685C32.8944 102.621 32.9127 102.987 32.7202 103.125C32.4635 103.327 32.1701 103.391 31.8951 103.593C31.5467 103.831 31.1066 103.932 30.7032 104.023C30.0248 104.17 29.6581 103.959 29.5481 103.483C29.5297 103.4 29.5114 103.318 29.5114 103.235C29.5022 103.006 29.5847 102.887 29.8414 102.786C30.1531 102.667 30.4557 102.465 30.7582 102.41C31.4367 102.291 31.9317 101.796 32.2343 101.328C32.7202 100.622 32.6927 99.8154 32.5368 98.9444C32.4451 98.376 32.2068 97.8168 31.9134 97.4042C31.6292 96.9916 31.1983 96.8541 30.8041 96.845C30.4465 96.845 30.0615 96.955 29.6581 97.1017C28.9155 97.3492 28.2921 97.9909 27.7145 98.6327C27.5586 98.7977 27.4211 98.9903 27.3203 99.1919C26.9902 99.9254 26.6968 100.659 26.376 101.411C26.3393 101.484 26.2843 101.594 26.321 101.658C26.5226 102.135 26.2934 102.538 26.2476 102.96C26.0918 104.069 26.2659 105.105 26.7427 105.82C27.0544 106.242 27.4853 106.554 28.017 106.792C28.5854 106.966 29.2088 107.122 29.9148 107.113C30.7582 107.159 31.6659 106.976 32.5735 106.911C33.1511 106.884 33.5544 106.664 34.022 106.49C34.8563 106.141 35.6631 105.664 36.3232 104.995C37.46 103.858 38.2301 102.337 38.5326 100.76C38.551 100.65 38.551 100.54 38.551 100.43C38.5051 98.9719 38.4134 97.5876 37.8267 96.3499C37.295 95.1856 36.3323 94.2596 35.1772 93.572C34.3887 93.1044 33.5178 92.7011 32.5826 92.4169C31.8125 92.1785 30.9783 92.0776 30.1531 91.9126C29.7039 91.8026 29.273 91.8393 28.833 91.7934C28.6129 91.7751 28.3929 91.7568 28.1729 91.7293C27.962 91.7201 27.7511 91.7201 27.5311 91.6926C27.2744 91.6651 27.0085 91.6926 26.7518 91.7018C25.4867 91.8851 24.304 92.3343 23.4056 93.1778C23.158 93.352 22.9838 93.572 22.6263 93.6087C22.4429 93.627 22.2596 93.8012 22.1587 93.9846C22.012 94.2321 21.8378 94.4705 21.737 94.7455C21.6178 95.0114 21.5261 95.2956 21.5261 95.589C21.4986 95.974 21.3244 96.2857 21.2419 96.6524C21.2328 96.6799 21.1502 96.7166 21.1227 96.6983C20.9761 96.6249 20.9211 96.7074 20.9027 96.8633C20.866 97.1475 21.0402 97.45 20.8752 97.7159C20.6919 98.0551 20.3526 97.8259 20.1051 97.9726C19.9768 98.0735 19.8576 98.0001 19.7476 97.8901C19.6375 97.7984 19.5367 97.6792 19.4083 97.6609C19.3717 97.6517 19.335 97.4592 19.335 97.3584C19.3167 97.0833 19.335 96.845 19.39 96.3499Z" fill="#8ED6C7"/>
<path d="M17.4095 90.9677C17.3728 90.8944 17.327 90.7844 17.2811 90.6652C17.2536 90.6102 17.2353 90.5369 17.2078 90.4818C17.1895 90.4452 17.162 90.4085 17.2261 90.2618C17.2811 90.1243 17.2353 90.1335 17.162 90.1885C17.107 90.2252 17.0519 90.271 17.0336 90.2526C16.9694 90.1701 16.9328 90.0418 16.8594 89.9593C16.8136 89.9043 16.7769 89.8493 16.8227 89.6659C16.8503 89.5467 16.7586 89.6384 16.6577 89.7117C16.5477 89.8034 16.566 89.7484 16.7036 89.4825C16.7861 89.3175 16.7861 89.2992 16.6944 89.4184C16.6027 89.5375 16.511 89.6659 16.4835 89.6384C16.401 89.5559 16.3094 89.4917 16.2268 89.4C16.2085 89.3725 16.1168 89.4092 16.346 89.0975C16.3552 89.0792 16.3827 89.0333 16.3827 89.0333C16.3552 88.9875 16.3185 88.9416 16.2818 88.8958C16.071 89.1067 16.1627 88.8225 16.0343 88.905C16.0068 88.9233 15.9976 88.905 16.016 88.8591C16.1352 88.6024 15.9426 88.7583 16.0343 88.5383C16.0893 88.4007 16.0343 88.4466 15.9426 88.5474C15.8601 88.6391 15.7959 88.6849 15.7684 88.6666C15.6401 88.5749 15.4934 88.5107 15.3651 88.4191C15.2825 88.3641 15.2092 88.2999 15.1725 88.1715C15.1084 87.9515 14.9617 87.8598 14.8333 87.7223C14.76 87.649 14.7325 87.5023 14.705 87.3648C14.6958 87.3098 14.6683 87.2822 14.6041 87.3006C14.0999 87.4931 13.834 87.3006 13.5956 87.0897C13.559 87.0622 13.5956 86.9155 13.5406 86.9155C13.4856 86.9155 13.4123 86.943 13.4123 86.8422C13.4123 86.778 13.3573 86.7872 13.2839 86.8239C12.9539 87.0255 12.8989 86.8238 12.7889 86.6863C12.7247 86.5946 12.6972 86.448 12.6238 86.3746C12.5505 86.3013 12.4222 86.2829 12.3213 86.2463C12.303 86.2371 12.2755 86.2463 12.2663 86.2279C12.2205 86.1363 12.2205 85.9804 12.1288 85.9621C12.0371 85.9529 11.9087 85.9896 11.8446 85.9346C11.8262 85.9162 11.7896 85.9162 11.7437 85.9162C11.5787 85.9437 11.3953 86.0171 11.5237 85.632C11.4595 85.6045 11.4045 85.5678 11.3403 85.5403C11.3128 85.522 11.2395 85.5495 11.2578 85.4762C11.3128 85.2561 11.2303 85.2745 11.0286 85.4578C10.9186 85.5587 10.8636 85.5403 10.7903 85.5587C10.7353 85.577 10.6986 85.577 10.7903 85.3845C10.8178 85.3295 10.8178 85.2745 10.7811 85.302C10.6527 85.412 10.6986 85.2653 10.6527 85.2745C10.5794 85.2745 10.5519 85.2378 10.6069 85.0636C10.6252 85.0086 10.5886 84.9994 10.5427 85.0361C10.231 85.2836 10.1027 85.2561 9.97431 85.2195C9.76345 85.1553 9.57093 85.0544 9.43341 84.8802C9.41507 84.8527 9.38757 84.8344 9.34173 84.8527C9.18588 84.9169 9.1217 84.8436 9.04836 84.7702C9.02085 84.7427 8.96585 84.7611 8.92001 84.7519C9.05753 84.4952 8.88333 84.7061 8.85583 84.7061C8.81916 84.6969 8.83749 84.6052 8.77332 84.6235C8.6908 84.651 8.67247 84.5777 8.6358 84.5319C8.57162 84.4585 8.6633 84.2477 8.93834 83.8351C8.98418 83.7618 9.03002 83.6976 9.07586 83.6242C9.20421 83.4317 9.28672 83.34 9.3509 83.3217C9.43341 83.2942 9.54342 83.23 9.56176 83.2942C9.59843 83.4409 9.77262 83.3767 9.90097 83.3675C10.0935 83.3584 10.2769 83.3675 10.4052 83.4592C10.4877 83.5234 10.5794 83.5692 10.6711 83.6242C10.7536 83.6701 10.8911 83.6518 11.0011 83.6701C11.102 83.6793 11.2028 83.6792 11.2578 83.7618C11.3495 83.8993 11.5237 83.9176 11.6154 84.046C11.6429 84.0826 11.6704 84.1101 11.7162 84.1101C11.8904 84.0918 12.0554 84.101 12.1288 84.2293C12.1379 84.2477 12.1471 84.266 12.1746 84.2293C12.413 83.991 12.413 84.1376 12.4863 84.1743C12.6697 84.266 12.8347 84.3852 13.0089 84.486C13.2198 84.6144 13.4398 84.7336 13.6415 84.8619C13.7698 84.9444 13.9257 84.9903 13.999 85.1553C14.0449 85.2561 14.1549 85.247 14.2374 85.302C14.3749 85.3937 14.4758 85.5403 14.6133 85.632C14.8516 85.7879 15.1083 85.9254 15.3559 86.0721C15.3742 86.0812 15.4017 86.0812 15.4292 86.0721C15.7959 85.9896 15.9885 86.1821 16.1902 86.3379C16.3827 86.4938 16.6119 86.5947 16.8044 86.7505C16.9328 86.8514 17.0428 86.998 17.162 87.1264C17.2536 87.2272 17.3637 87.3281 17.4462 87.4381C17.5378 87.5573 17.6845 87.6215 17.7029 87.8507C17.712 87.9148 17.7487 87.9423 17.7762 87.979C17.9229 88.1624 18.0696 88.3366 18.2163 88.5199C18.2529 88.5658 18.2529 88.6483 18.1521 88.8775C18.0971 88.9875 18.0971 89.07 18.1154 89.0975C18.1704 89.18 18.1979 89.3175 18.3446 89.2625C18.4455 89.2258 18.4088 89.3725 18.4363 89.4367C18.4363 89.4367 18.3996 89.51 18.3813 89.5376C18.2896 89.6567 18.2713 89.7026 18.2896 89.7209C18.3171 89.7484 18.4546 89.6292 18.3996 89.7943C18.3263 89.9868 18.1154 90.2343 17.9871 90.4543C17.8496 90.6927 17.712 90.7936 17.5745 90.9952C17.5562 91.0228 17.5195 91.0319 17.5012 91.0319C17.4828 91.0319 17.4553 91.0044 17.4095 90.9677Z" fill="#8ED6C7"/>
<path d="M15.073 98.458C15.0364 98.4122 14.9814 98.3297 14.9355 98.2563C14.908 98.2197 14.8805 98.1647 14.853 98.128C14.8347 98.1005 14.8072 98.0913 14.8163 97.9263C14.8255 97.7796 14.798 97.8071 14.7613 97.8896C14.7338 97.9446 14.7063 98.0088 14.6972 97.9996C14.6421 97.9538 14.5871 97.8621 14.5321 97.8255C14.4955 97.798 14.4588 97.7613 14.4496 97.5871C14.4405 97.4679 14.4038 97.5962 14.3579 97.6971C14.3029 97.8254 14.3029 97.7704 14.3396 97.4771C14.3579 97.2937 14.3579 97.2754 14.3213 97.4221C14.2846 97.5688 14.2571 97.7246 14.2296 97.7063C14.1654 97.6696 14.0921 97.6604 14.0279 97.6146C14.0096 97.6054 13.9637 97.6788 14.0371 97.2937C14.0371 97.2754 14.0462 97.2204 14.0462 97.2204C14.0187 97.1929 13.9821 97.1654 13.9546 97.147C13.8629 97.4312 13.872 97.1379 13.8079 97.2662C13.7987 97.2937 13.7804 97.2845 13.7895 97.2387C13.8079 96.9637 13.7254 97.1745 13.7345 96.9545C13.7437 96.8078 13.7162 96.872 13.6795 97.0003C13.6428 97.1195 13.6153 97.1837 13.597 97.1837C13.4962 97.1654 13.3953 97.1745 13.2945 97.147C13.2303 97.1287 13.1753 97.1104 13.1294 97.0187C13.0469 96.8537 12.9277 96.8445 12.8269 96.7803C12.7627 96.7436 12.7169 96.6336 12.671 96.5236C12.6527 96.4778 12.6344 96.4594 12.5977 96.5144C12.3227 96.9178 12.121 96.8628 11.9284 96.7986C11.9009 96.7895 11.8918 96.6428 11.8551 96.6703C11.8184 96.6886 11.7818 96.7528 11.7634 96.6611C11.7543 96.597 11.7176 96.6336 11.6809 96.707C11.5159 97.037 11.4425 96.8812 11.3509 96.817C11.2867 96.7711 11.2409 96.652 11.1858 96.6153C11.1217 96.5878 11.0483 96.6245 10.975 96.6428C10.9658 96.6428 10.9475 96.6611 10.9383 96.652C10.8925 96.5969 10.8558 96.4503 10.8008 96.4869C10.7458 96.5144 10.6724 96.6153 10.6174 96.5878C10.5991 96.5786 10.5808 96.597 10.5533 96.6153C10.4616 96.7161 10.3607 96.8628 10.3607 96.4686C10.3149 96.4686 10.2691 96.4686 10.2324 96.4686C10.214 96.4686 10.1774 96.5236 10.1682 96.4503C10.159 96.2394 10.1132 96.2852 10.0215 96.5419C9.97567 96.6795 9.93901 96.6886 9.90233 96.7436C9.87483 96.7803 9.84733 96.7986 9.86566 96.5878C9.87483 96.5236 9.85649 96.4778 9.84732 96.5144C9.79231 96.6703 9.79232 96.5236 9.76481 96.5419C9.71897 96.5786 9.69147 96.5511 9.69147 96.3769C9.69147 96.3219 9.66397 96.3219 9.64563 96.3769C9.50811 96.7345 9.41643 96.7711 9.33392 96.7986C9.18723 96.8445 9.04971 96.8353 8.93053 96.7528C8.91219 96.7436 8.89386 96.7345 8.86635 96.7711C8.78384 96.8995 8.72884 96.8628 8.66467 96.8353C8.64633 96.8262 8.60965 96.8628 8.58215 96.8812C8.61882 96.5969 8.55464 96.8537 8.53631 96.8628C8.5088 96.872 8.49964 96.7803 8.47213 96.8353C8.42629 96.8995 8.39879 96.8353 8.37129 96.817C8.31628 96.7803 8.33462 96.5511 8.41713 96.0652C8.4263 95.9827 8.44463 95.9002 8.46297 95.8177C8.49964 95.5885 8.53631 95.4785 8.57298 95.4326C8.61882 95.3776 8.67383 95.2584 8.70133 95.3134C8.75634 95.4235 8.84802 95.2859 8.92137 95.2218C9.04055 95.1301 9.15057 95.0476 9.25141 95.0751C9.31559 95.0934 9.37976 95.0934 9.44394 95.0934C9.50811 95.1026 9.58145 95.0201 9.6548 94.9834C9.71897 94.9467 9.78315 94.9009 9.82899 94.9467C9.9115 95.0201 10.0215 94.9651 10.104 95.0292C10.1224 95.0476 10.1499 95.0659 10.1774 95.0384C10.2782 94.9376 10.3791 94.8734 10.4524 94.9559C10.4616 94.9651 10.4707 94.9742 10.4799 94.9376C10.5808 94.6258 10.6083 94.745 10.6633 94.745C10.7916 94.7359 10.92 94.7634 11.0483 94.7817C11.2042 94.8 11.36 94.8 11.5159 94.8275C11.6167 94.8367 11.7176 94.8092 11.7909 94.9192C11.8368 94.9926 11.9101 94.9284 11.9651 94.9376C12.066 94.9559 12.1668 95.0384 12.2677 95.0567C12.451 95.0842 12.6344 95.0934 12.8177 95.1026C12.8269 95.1026 12.8452 95.0934 12.8636 95.0751C13.0744 94.8276 13.2303 94.9192 13.3861 94.9651C13.542 95.0109 13.6979 95.0017 13.8537 95.0476C13.9546 95.0751 14.0554 95.1576 14.1471 95.2126C14.2296 95.2584 14.3121 95.2951 14.3854 95.3593C14.468 95.4235 14.5688 95.4143 14.6238 95.5976C14.6422 95.6527 14.6696 95.6618 14.6972 95.6802C14.8255 95.7718 14.9539 95.8544 15.0822 95.9552C15.1097 95.9827 15.1372 96.0469 15.1189 96.3036C15.1097 96.4319 15.128 96.4961 15.1464 96.5144C15.2014 96.5603 15.2381 96.6703 15.3206 96.5603C15.3756 96.4869 15.3847 96.6336 15.4122 96.6703C15.4122 96.6703 15.4031 96.7528 15.3939 96.7895C15.3572 96.9362 15.3664 96.9912 15.3756 96.9912C15.4031 97.0003 15.4581 96.8353 15.4581 97.0095C15.4581 97.2112 15.3756 97.5229 15.3389 97.7796C15.3022 98.0547 15.2381 98.2013 15.1922 98.4489C15.1831 98.4855 15.1647 98.5131 15.1555 98.5131C15.128 98.4764 15.1189 98.4672 15.073 98.458Z" fill="#8ED6C7"/>
<path d="M21.0035 108.644C20.9393 108.635 20.8384 108.626 20.7376 108.617C20.6826 108.608 20.6276 108.589 20.5726 108.589C20.5359 108.589 20.5084 108.598 20.3984 108.479C20.2975 108.369 20.2975 108.406 20.325 108.498C20.3434 108.553 20.3709 108.626 20.3525 108.626C20.27 108.635 20.1692 108.617 20.0867 108.635C20.0317 108.644 19.9766 108.654 19.8391 108.525C19.7475 108.443 19.8025 108.562 19.8483 108.672C19.9033 108.8 19.8575 108.764 19.6741 108.534C19.5641 108.397 19.5366 108.378 19.6191 108.516C19.7016 108.644 19.7841 108.773 19.7566 108.791C19.6741 108.819 19.6099 108.864 19.5183 108.883C19.4908 108.892 19.5091 108.974 19.2982 108.644C19.2891 108.626 19.2524 108.589 19.2524 108.589C19.2065 108.589 19.1607 108.598 19.124 108.608C19.2524 108.874 19.0507 108.672 19.0874 108.809C19.0965 108.837 19.0782 108.837 19.0507 108.8C18.8673 108.589 18.9498 108.809 18.8032 108.644C18.7023 108.543 18.7298 108.599 18.794 108.727C18.849 108.837 18.8765 108.901 18.8582 108.919C18.7573 108.984 18.684 109.066 18.5831 109.13C18.519 109.167 18.4548 109.204 18.3539 109.176C18.1614 109.121 18.0606 109.204 17.9322 109.24C17.8589 109.259 17.7397 109.222 17.6205 109.176C17.5747 109.158 17.5472 109.167 17.5563 109.231C17.6113 109.726 17.4096 109.845 17.1988 109.946C17.1621 109.965 17.0613 109.864 17.0429 109.91C17.0338 109.955 17.0429 110.029 16.9604 109.974C16.9054 109.937 16.9054 109.992 16.9237 110.075C17.0246 110.432 16.8504 110.386 16.722 110.405C16.6395 110.423 16.5112 110.368 16.4378 110.395C16.3645 110.423 16.3278 110.515 16.2728 110.579C16.2636 110.588 16.2636 110.615 16.2453 110.615C16.1628 110.606 16.0344 110.533 16.0069 110.606C15.9794 110.67 15.9886 110.799 15.9336 110.817C15.9153 110.826 15.9061 110.854 15.9061 110.89C15.8969 111.037 15.9244 111.221 15.6311 110.936C15.5944 110.973 15.5577 111.01 15.521 111.037C15.5027 111.055 15.5119 111.12 15.4569 111.074C15.2918 110.927 15.2918 111 15.3927 111.248C15.4477 111.386 15.4294 111.413 15.4294 111.486C15.4294 111.532 15.4294 111.569 15.2918 111.404C15.2552 111.358 15.2093 111.331 15.2277 111.376C15.2918 111.523 15.1818 111.422 15.1818 111.468C15.1727 111.532 15.136 111.532 14.9985 111.404C14.9526 111.367 14.9435 111.386 14.9618 111.441C15.1085 111.798 15.0535 111.89 14.9985 111.981C14.9068 112.128 14.7968 112.229 14.6318 112.256C14.6134 112.256 14.5859 112.275 14.5951 112.321C14.6134 112.477 14.5401 112.495 14.4759 112.522C14.4484 112.532 14.4484 112.587 14.4392 112.614C14.2559 112.385 14.3934 112.623 14.3842 112.642C14.3751 112.669 14.3017 112.614 14.3017 112.669C14.3109 112.742 14.2467 112.724 14.2009 112.733C14.1275 112.752 13.9808 112.577 13.6966 112.174C13.6508 112.11 13.6049 112.036 13.5591 111.972C13.4308 111.78 13.3757 111.679 13.3666 111.615C13.3574 111.541 13.3299 111.413 13.3849 111.431C13.5133 111.468 13.4858 111.303 13.5041 111.193C13.5316 111.037 13.5683 110.89 13.6783 110.835C13.7425 110.799 13.7975 110.744 13.8525 110.698C13.9075 110.652 13.9167 110.533 13.9442 110.46C13.9717 110.386 13.99 110.304 14.0633 110.295C14.1917 110.285 14.2375 110.157 14.3567 110.139C14.3842 110.13 14.4209 110.13 14.4209 110.084C14.4392 109.937 14.4759 109.809 14.5951 109.809C14.6042 109.809 14.6226 109.809 14.6042 109.772C14.4576 109.469 14.5767 109.534 14.6134 109.497C14.7143 109.387 14.8426 109.314 14.9618 109.222C15.0993 109.112 15.2368 108.993 15.3835 108.883C15.4752 108.819 15.5394 108.709 15.6861 108.727C15.7777 108.736 15.7869 108.644 15.8419 108.608C15.9428 108.534 16.0803 108.525 16.1811 108.452C16.3553 108.333 16.5112 108.195 16.6762 108.058C16.6854 108.048 16.6854 108.03 16.6854 108.003C16.6854 107.663 16.8779 107.608 17.0429 107.517C17.1988 107.434 17.3271 107.297 17.4921 107.205C17.6022 107.141 17.7397 107.132 17.8589 107.095C17.9597 107.067 18.0514 107.031 18.1614 107.003C18.2806 106.985 18.3539 106.893 18.5373 106.985C18.5923 107.012 18.6198 106.994 18.6565 106.985C18.8307 106.948 18.9957 106.912 19.1699 106.884C19.2157 106.875 19.2799 106.912 19.4449 107.104C19.5274 107.196 19.5824 107.232 19.6099 107.232C19.6924 107.223 19.8025 107.269 19.7841 107.132C19.775 107.04 19.885 107.132 19.94 107.141C19.94 107.141 19.995 107.205 20.0133 107.232C20.0958 107.361 20.1325 107.398 20.1417 107.388C20.1692 107.379 20.105 107.214 20.2242 107.333C20.3617 107.48 20.5267 107.764 20.6826 107.966C20.8476 108.186 20.9026 108.342 21.0401 108.543C21.0585 108.571 21.0585 108.608 21.0585 108.617C21.0585 108.608 21.0401 108.617 21.0035 108.644Z" fill="#8ED6C7"/>
<path d="M28.4866 112.926C28.4408 112.962 28.3674 113.026 28.2849 113.081C28.2483 113.109 28.1933 113.136 28.1566 113.173C28.1291 113.201 28.1199 113.219 27.9549 113.219C27.8082 113.219 27.8357 113.246 27.9182 113.283C27.9732 113.301 28.0374 113.329 28.0282 113.347C27.9824 113.411 27.8999 113.466 27.854 113.531C27.8265 113.577 27.799 113.613 27.6157 113.622C27.4965 113.632 27.6248 113.668 27.7257 113.714C27.854 113.76 27.799 113.76 27.5057 113.742C27.3223 113.732 27.304 113.732 27.4507 113.769C27.5973 113.797 27.7532 113.824 27.744 113.852C27.7165 113.925 27.6982 113.998 27.6615 114.072C27.6523 114.09 27.7257 114.136 27.3406 114.072C27.3223 114.072 27.2673 114.062 27.2673 114.062C27.2398 114.09 27.2123 114.127 27.194 114.163C27.4782 114.246 27.1848 114.255 27.3223 114.319C27.3498 114.328 27.3406 114.347 27.2948 114.347C27.0198 114.337 27.2398 114.42 27.0106 114.42C26.8639 114.42 26.9281 114.447 27.0656 114.475C27.1848 114.502 27.249 114.53 27.249 114.548C27.2306 114.649 27.2398 114.759 27.2215 114.86C27.2031 114.924 27.194 114.988 27.1023 115.043C26.9372 115.135 26.9281 115.254 26.8731 115.364C26.8364 115.428 26.7264 115.483 26.6164 115.529C26.5705 115.548 26.5614 115.575 26.6072 115.603C27.0198 115.868 26.9739 116.079 26.9097 116.281C26.9006 116.309 26.7539 116.327 26.7814 116.364C26.7997 116.4 26.8639 116.437 26.7814 116.455C26.7172 116.474 26.7539 116.501 26.8272 116.538C27.1573 116.694 27.0106 116.776 26.9464 116.877C26.9006 116.941 26.7814 116.996 26.7539 117.06C26.7264 117.124 26.7722 117.207 26.7814 117.28C26.7814 117.29 26.7997 117.308 26.7906 117.317C26.7356 117.372 26.5889 117.409 26.6255 117.473C26.6622 117.537 26.7539 117.601 26.7356 117.656C26.7264 117.675 26.7447 117.693 26.7722 117.72C26.8731 117.812 27.0289 117.913 26.6255 117.931C26.6255 117.977 26.6255 118.023 26.6255 118.069C26.6255 118.087 26.6806 118.124 26.6072 118.133C26.3963 118.151 26.4422 118.197 26.6989 118.28C26.8364 118.325 26.8456 118.362 26.9006 118.399C26.9373 118.426 26.9648 118.454 26.7539 118.436C26.6897 118.436 26.6439 118.445 26.6897 118.463C26.8456 118.509 26.6989 118.518 26.7264 118.555C26.7631 118.601 26.7447 118.628 26.5614 118.637C26.5064 118.637 26.5064 118.665 26.5614 118.683C26.9281 118.811 26.9556 118.903 26.9923 118.995C27.0381 119.141 27.0381 119.288 26.9556 119.416C26.9464 119.435 26.9372 119.453 26.9739 119.481C27.1023 119.563 27.0656 119.618 27.0473 119.682C27.0381 119.71 27.0748 119.737 27.0931 119.765C26.8089 119.737 27.0656 119.802 27.0748 119.82C27.0839 119.847 26.9923 119.857 27.0473 119.893C27.1114 119.939 27.0564 119.967 27.0289 120.003C26.9923 120.058 26.7722 120.058 26.2772 119.994C26.1947 119.985 26.1121 119.976 26.0296 119.957C25.8004 119.921 25.6904 119.902 25.6354 119.866C25.5804 119.82 25.4612 119.765 25.5162 119.737C25.6262 119.682 25.4887 119.591 25.4245 119.508C25.3237 119.389 25.2412 119.279 25.2687 119.169C25.287 119.105 25.2779 119.031 25.287 118.967C25.287 118.903 25.2045 118.821 25.1678 118.756C25.1312 118.692 25.0762 118.628 25.122 118.573C25.1953 118.481 25.1312 118.371 25.1953 118.28C25.2137 118.252 25.232 118.234 25.1953 118.197C25.0945 118.096 25.0212 117.995 25.1128 117.913C25.122 117.904 25.1312 117.895 25.0945 117.885C24.7736 117.794 24.902 117.757 24.8928 117.702C24.8836 117.565 24.9111 117.436 24.9203 117.299C24.9295 117.134 24.9295 116.969 24.9478 116.804C24.957 116.703 24.9203 116.593 25.0303 116.51C25.1037 116.455 25.0303 116.391 25.0395 116.327C25.0578 116.217 25.1403 116.116 25.1495 116.006C25.177 115.823 25.177 115.63 25.1862 115.438C25.1862 115.428 25.1678 115.41 25.1495 115.392C24.902 115.181 24.9845 115.016 25.0212 114.851C25.0578 114.695 25.0487 114.521 25.0853 114.365C25.1128 114.255 25.1862 114.154 25.2412 114.053C25.287 113.971 25.3237 113.879 25.3787 113.797C25.4429 113.705 25.4245 113.604 25.6171 113.531C25.6721 113.512 25.6812 113.485 25.6996 113.457C25.7913 113.32 25.8738 113.182 25.9655 113.054C25.993 113.017 26.0571 112.999 26.3138 113.008C26.4422 113.008 26.5064 112.999 26.5247 112.971C26.5705 112.916 26.6806 112.871 26.5614 112.788C26.488 112.733 26.6255 112.724 26.6714 112.687C26.6714 112.687 26.7539 112.696 26.7906 112.696C26.9373 112.724 26.9923 112.724 26.9923 112.706C27.0014 112.678 26.8364 112.623 27.0106 112.623C27.2123 112.623 27.5332 112.687 27.7807 112.715C28.0557 112.742 28.2116 112.797 28.45 112.834C28.4866 112.843 28.5141 112.861 28.5141 112.871C28.4958 112.861 28.4866 112.88 28.4866 112.926Z" fill="#8ED6C7"/>
<path d="M37.3222 111.514C37.2947 111.551 37.2489 111.615 37.1939 111.67C37.1663 111.697 37.1297 111.734 37.1113 111.771C37.093 111.789 37.093 111.807 36.9463 111.881C36.8088 111.945 36.8455 111.945 36.9372 111.927C36.9922 111.908 37.0655 111.89 37.0563 111.908C37.038 111.954 36.983 112.018 36.9647 112.064C36.9555 112.092 36.9372 112.128 36.7813 112.211C36.6805 112.266 36.7996 112.229 36.9096 112.202C37.038 112.165 36.9922 112.192 36.7263 112.312C36.5613 112.385 36.5429 112.403 36.6896 112.348C36.8363 112.293 36.9738 112.238 36.9738 112.257C36.9738 112.302 36.983 112.339 36.9738 112.394C36.9738 112.413 37.0563 112.394 36.6896 112.541C36.6713 112.55 36.6254 112.568 36.6254 112.568C36.6163 112.596 36.5979 112.623 36.5888 112.642C36.873 112.55 36.6163 112.688 36.7538 112.66C36.7813 112.651 36.7721 112.669 36.7355 112.688C36.4879 112.807 36.708 112.743 36.5063 112.843C36.3779 112.908 36.4421 112.889 36.5704 112.843C36.6896 112.807 36.7538 112.788 36.763 112.798C36.7813 112.853 36.8271 112.898 36.8455 112.953C36.8546 112.99 36.8638 113.027 36.7996 113.091C36.6804 113.21 36.7171 113.265 36.6988 113.338C36.6896 113.384 36.6163 113.458 36.5246 113.531C36.4879 113.558 36.4879 113.577 36.5429 113.568C36.9922 113.513 37.0288 113.623 37.038 113.751C37.038 113.769 36.9188 113.843 36.9463 113.843C36.983 113.852 37.0472 113.843 36.9738 113.889C36.928 113.925 36.9647 113.925 37.0472 113.907C37.3955 113.824 37.2947 113.934 37.2672 114.008C37.2489 114.054 37.1572 114.136 37.1572 114.182C37.1572 114.228 37.2214 114.246 37.258 114.274C37.2672 114.283 37.2855 114.283 37.2764 114.292C37.2397 114.338 37.1297 114.42 37.1847 114.439C37.2305 114.448 37.3405 114.439 37.3405 114.475C37.3405 114.484 37.3589 114.494 37.3955 114.494C37.5147 114.494 37.6889 114.466 37.3405 114.659C37.3589 114.677 37.3772 114.695 37.3864 114.723C37.3955 114.732 37.4597 114.723 37.3864 114.759C37.203 114.86 37.258 114.86 37.5147 114.787C37.6522 114.741 37.6706 114.759 37.7348 114.75C37.7806 114.741 37.8081 114.75 37.6156 114.833C37.5606 114.86 37.5239 114.888 37.5606 114.879C37.7164 114.833 37.5881 114.897 37.6247 114.906C37.6706 114.906 37.6614 114.934 37.5056 115.016C37.4506 115.044 37.4689 115.053 37.5239 115.035C37.8906 114.934 37.9548 114.961 38.0098 114.989C38.1015 115.035 38.1473 115.099 38.1198 115.2C38.1198 115.209 38.1198 115.227 38.1565 115.218C38.3032 115.2 38.2848 115.245 38.2848 115.282C38.2848 115.3 38.3307 115.291 38.349 115.3C38.0831 115.42 38.3398 115.328 38.3582 115.328C38.3765 115.337 38.3032 115.383 38.3582 115.374C38.4315 115.365 38.3857 115.401 38.3857 115.429C38.3765 115.465 38.1748 115.566 37.7164 115.759C37.6431 115.786 37.5606 115.823 37.4872 115.85C37.2764 115.933 37.1664 115.979 37.1113 115.979C37.0472 115.988 36.928 116.015 36.9647 115.979C37.0472 115.905 36.8913 115.924 36.7996 115.915C36.6713 115.905 36.5613 115.887 36.5521 115.832C36.5429 115.795 36.5154 115.768 36.4971 115.731C36.4788 115.704 36.3779 115.704 36.3229 115.685C36.2679 115.676 36.2037 115.667 36.2221 115.621C36.2587 115.548 36.167 115.52 36.1946 115.456C36.2037 115.438 36.2037 115.42 36.1762 115.42C36.0479 115.42 35.9562 115.401 36.002 115.328C36.0112 115.319 36.0112 115.31 35.9745 115.319C35.6628 115.42 35.7545 115.346 35.7362 115.328C35.6811 115.273 35.6628 115.2 35.617 115.135C35.5711 115.053 35.5161 114.98 35.4795 114.897C35.452 114.842 35.3878 114.815 35.4611 114.723C35.507 114.668 35.4244 114.668 35.4153 114.631C35.3878 114.576 35.4336 114.494 35.4061 114.439C35.3694 114.338 35.2961 114.255 35.2411 114.164C35.2411 114.154 35.2227 114.154 35.1952 114.154C34.9019 114.173 34.9202 114.063 34.9019 113.962C34.8835 113.87 34.8102 113.797 34.7919 113.705C34.7827 113.641 34.8102 113.559 34.8285 113.494C34.8377 113.439 34.8377 113.375 34.8652 113.311C34.8927 113.247 34.8377 113.201 34.9844 113.082C35.0302 113.045 35.0211 113.027 35.0302 113.008C35.0669 112.908 35.0944 112.807 35.1311 112.706C35.1402 112.678 35.1952 112.642 35.4244 112.532C35.5345 112.477 35.5895 112.44 35.5986 112.422C35.6261 112.376 35.6995 112.302 35.5711 112.321C35.4886 112.33 35.6078 112.257 35.6353 112.229C35.6353 112.229 35.7178 112.192 35.7453 112.183C35.892 112.128 35.9287 112.11 35.9287 112.101C35.9287 112.082 35.7637 112.128 35.9103 112.055C36.0845 111.963 36.3962 111.853 36.6254 111.752C36.8821 111.642 37.0288 111.606 37.258 111.514C37.2855 111.505 37.3222 111.496 37.3314 111.505C37.3222 111.477 37.3222 111.487 37.3222 111.514Z" fill="#8ED6C7"/>
<path d="M42.2349 106.719C42.2441 106.774 42.2624 106.866 42.2716 106.958C42.2807 107.003 42.2807 107.068 42.2899 107.104C42.2991 107.132 42.3082 107.159 42.2349 107.297C42.1615 107.425 42.1982 107.416 42.2716 107.352C42.3174 107.315 42.3724 107.26 42.3724 107.279C42.3999 107.343 42.4091 107.444 42.4366 107.508C42.4549 107.544 42.4733 107.59 42.3999 107.764C42.3541 107.874 42.4457 107.783 42.5283 107.7C42.6291 107.609 42.6016 107.654 42.4458 107.911C42.3541 108.067 42.3449 108.085 42.4366 107.966C42.5283 107.847 42.6199 107.719 42.6383 107.746C42.6841 107.801 42.7391 107.847 42.7758 107.911C42.785 107.929 42.8583 107.884 42.6291 108.195C42.6199 108.214 42.5924 108.25 42.5924 108.259C42.6016 108.296 42.6199 108.333 42.6383 108.37C42.84 108.149 42.7116 108.415 42.8216 108.324C42.84 108.305 42.8491 108.324 42.8308 108.36C42.6933 108.599 42.8583 108.443 42.7575 108.635C42.6933 108.764 42.7391 108.718 42.8308 108.617C42.9133 108.525 42.9683 108.48 42.9775 108.489C43.0508 108.544 43.1517 108.58 43.225 108.645C43.2709 108.681 43.3167 108.727 43.3167 108.828C43.3167 109.011 43.4084 109.066 43.4726 109.167C43.5092 109.222 43.5001 109.341 43.4909 109.46C43.4909 109.506 43.5001 109.534 43.5551 109.497C43.9676 109.25 44.1235 109.378 44.261 109.516C44.2793 109.534 44.2243 109.671 44.261 109.662C44.2977 109.653 44.3618 109.616 44.3343 109.708C44.316 109.772 44.3618 109.754 44.426 109.699C44.7102 109.47 44.7102 109.635 44.7652 109.736C44.8019 109.8 44.7836 109.928 44.8294 109.983C44.8752 110.038 44.9578 110.029 45.0219 110.047C45.0311 110.047 45.0586 110.038 45.0586 110.056C45.0769 110.13 45.0403 110.267 45.1136 110.267C45.1778 110.267 45.2786 110.203 45.3153 110.249C45.3245 110.267 45.352 110.258 45.3795 110.249C45.5078 110.194 45.6545 110.102 45.4895 110.46C45.5262 110.478 45.5628 110.496 45.6087 110.515C45.627 110.524 45.682 110.487 45.6545 110.561C45.572 110.762 45.6362 110.735 45.8195 110.542C45.9204 110.441 45.9571 110.441 46.0121 110.414C46.0579 110.386 46.0854 110.386 45.9754 110.561C45.9387 110.616 45.9387 110.661 45.9662 110.634C46.0762 110.515 46.0212 110.652 46.0579 110.643C46.1129 110.625 46.1221 110.661 46.0487 110.827C46.0212 110.882 46.0487 110.882 46.0854 110.845C46.3605 110.579 46.4521 110.588 46.5438 110.597C46.6905 110.616 46.8005 110.68 46.8739 110.808C46.883 110.827 46.9014 110.836 46.938 110.817C47.0664 110.735 47.103 110.79 47.1397 110.836C47.1581 110.854 47.1947 110.836 47.2314 110.827C47.0756 111.074 47.2497 110.863 47.2681 110.863C47.2956 110.863 47.2589 110.946 47.3139 110.918C47.3781 110.882 47.3781 110.946 47.3964 110.973C47.4239 111.028 47.3139 111.221 47.0297 111.633C46.9839 111.697 46.938 111.771 46.883 111.835C46.7455 112.018 46.6722 112.11 46.6172 112.138C46.553 112.174 46.4521 112.248 46.4613 112.193C46.4613 112.073 46.3238 112.156 46.2229 112.183C46.0762 112.22 45.9479 112.248 45.8746 112.183C45.8287 112.138 45.7645 112.119 45.7095 112.083C45.6545 112.055 45.5537 112.092 45.4803 112.101C45.4162 112.101 45.3336 112.119 45.3061 112.064C45.2695 111.963 45.1411 111.972 45.0953 111.872C45.0861 111.844 45.0678 111.826 45.0311 111.835C44.8936 111.881 44.7836 111.899 44.7561 111.789C44.7561 111.78 44.7469 111.762 44.7194 111.798C44.4994 112.046 44.5177 111.917 44.481 111.899C44.3618 111.853 44.2702 111.771 44.1601 111.716C44.0318 111.642 43.8943 111.569 43.7659 111.487C43.6834 111.432 43.5826 111.422 43.5642 111.285C43.5551 111.202 43.4634 111.23 43.4175 111.193C43.335 111.138 43.2892 111.019 43.2067 110.964C43.06 110.863 42.9041 110.781 42.7483 110.698C42.7391 110.689 42.7208 110.698 42.6933 110.707C42.3999 110.845 42.3082 110.698 42.189 110.597C42.079 110.496 41.9323 110.441 41.8223 110.341C41.749 110.276 41.694 110.157 41.639 110.066C41.5931 109.992 41.529 109.928 41.4923 109.836C41.4464 109.745 41.3548 109.717 41.3823 109.516C41.3914 109.46 41.3731 109.442 41.3548 109.415C41.2814 109.277 41.2081 109.149 41.1439 109.011C41.1256 108.975 41.1347 108.91 41.2631 108.69C41.3273 108.58 41.3364 108.516 41.3364 108.498C41.3089 108.434 41.3181 108.324 41.2081 108.388C41.1256 108.434 41.1806 108.296 41.1806 108.25C41.1806 108.25 41.2264 108.177 41.2447 108.149C41.3364 108.03 41.3548 107.984 41.3456 107.975C41.3273 107.957 41.2081 108.076 41.2814 107.929C41.3731 107.746 41.5748 107.499 41.7215 107.288C41.8773 107.058 41.9874 106.948 42.134 106.747C42.1524 106.719 42.1799 106.701 42.1982 106.701C42.189 106.683 42.2074 106.692 42.2349 106.719Z" fill="#8ED6C7"/>
<path d="M43.1323 93.3884C43.1965 93.4159 43.2882 93.4525 43.3798 93.4892C43.4257 93.5075 43.4807 93.5442 43.5265 93.5625C43.5632 93.5717 43.5907 93.5717 43.664 93.7184C43.7282 93.8559 43.7466 93.8101 43.7374 93.7184C43.7374 93.6542 43.7282 93.5809 43.7466 93.59C43.8291 93.5992 43.9299 93.6542 44.0033 93.6542C44.0583 93.6542 44.1133 93.6726 44.2141 93.8192C44.2783 93.9201 44.26 93.7917 44.2508 93.6726C44.2416 93.535 44.2691 93.5809 44.3792 93.8559C44.4525 94.0209 44.4617 94.0393 44.425 93.8926C44.3883 93.7459 44.3425 93.5992 44.37 93.5992C44.4525 93.5901 44.535 93.5625 44.6267 93.5717C44.6542 93.5717 44.6634 93.48 44.7734 93.8651C44.7825 93.8834 44.8009 93.9293 44.8009 93.9293C44.8467 93.9384 44.8926 93.9476 44.9292 93.9476C44.8834 93.6542 45.0209 93.9109 45.0301 93.7642C45.0301 93.7367 45.0484 93.7367 45.0667 93.7826C45.1859 94.0393 45.1676 93.8009 45.2684 94.0026C45.3326 94.131 45.3326 94.0668 45.3051 93.9293C45.2776 93.8101 45.2776 93.7367 45.2959 93.7276C45.406 93.6909 45.516 93.6267 45.626 93.5992C45.6993 93.5809 45.7727 93.5625 45.8643 93.6176C46.0385 93.7184 46.1577 93.6726 46.2952 93.6726C46.3778 93.6726 46.4786 93.7459 46.5794 93.8192C46.6253 93.8467 46.6528 93.8468 46.662 93.7917C46.7445 93.2967 46.9828 93.2417 47.2212 93.1958C47.2579 93.1867 47.3312 93.315 47.3587 93.2783C47.3862 93.2417 47.3954 93.1683 47.4596 93.2325C47.5054 93.2783 47.5237 93.2325 47.5237 93.15C47.5237 92.7741 47.6888 92.8749 47.8171 92.8841C47.8996 92.8933 48.0096 92.9758 48.0922 92.9666C48.1747 92.9575 48.2297 92.8841 48.303 92.8383C48.3122 92.8291 48.3214 92.8108 48.3397 92.8108C48.4222 92.8383 48.5231 92.9391 48.5689 92.8841C48.6147 92.8291 48.6422 92.7099 48.7064 92.7008C48.7247 92.7008 48.7431 92.6733 48.7522 92.6366C48.7981 92.4991 48.8348 92.3157 49.0273 92.6641C49.0731 92.6366 49.119 92.6183 49.1648 92.5907C49.1923 92.5816 49.1923 92.5082 49.2381 92.5816C49.3573 92.7649 49.3848 92.7008 49.3482 92.4257C49.3298 92.279 49.3665 92.2515 49.3757 92.1874C49.3848 92.1415 49.4032 92.1049 49.4857 92.3065C49.5132 92.3616 49.5499 92.3982 49.5407 92.3524C49.5224 92.1874 49.5957 92.3157 49.614 92.279C49.6415 92.224 49.6782 92.2332 49.7699 92.3891C49.7974 92.4441 49.8249 92.4257 49.8157 92.3615C49.7791 91.9765 49.8524 91.9032 49.9349 91.8298C50.0633 91.7106 50.2099 91.6465 50.375 91.6648C50.4025 91.6648 50.4208 91.6648 50.43 91.619C50.4575 91.4631 50.5308 91.4631 50.6042 91.4631C50.6317 91.4631 50.65 91.4081 50.6683 91.3806C50.7784 91.6464 50.7142 91.3897 50.7234 91.3714C50.7417 91.3439 50.7967 91.4264 50.8059 91.3622C50.8242 91.2889 50.8792 91.3256 50.9159 91.3256C50.9892 91.3256 51.0901 91.5364 51.2459 92.004C51.2734 92.0865 51.3009 92.1599 51.3284 92.2424C51.4018 92.4624 51.4293 92.5724 51.4109 92.6366C51.3926 92.7099 51.3926 92.8383 51.3376 92.8016C51.2276 92.7283 51.2001 92.9025 51.1451 92.9941C51.0717 93.1408 50.9892 93.2692 50.8792 93.2967C50.8059 93.315 50.7325 93.3517 50.6683 93.3792C50.6042 93.4067 50.5583 93.5167 50.5033 93.59C50.4575 93.6542 50.4116 93.7276 50.3383 93.7184C50.2099 93.7001 50.1274 93.8101 50.0083 93.7917C49.9808 93.7917 49.9441 93.7826 49.9257 93.8284C49.8616 93.9659 49.7974 94.076 49.6782 94.0393C49.669 94.0393 49.6507 94.0301 49.6599 94.0759C49.7149 94.406 49.6232 94.3143 49.5682 94.3418C49.4307 94.4152 49.2932 94.461 49.1465 94.516C48.9723 94.5894 48.8073 94.6627 48.6331 94.7269C48.5231 94.7635 48.4314 94.8461 48.2938 94.791C48.2113 94.7544 48.1655 94.8461 48.1013 94.8644C47.9821 94.9011 47.8446 94.8827 47.7254 94.9194C47.5237 94.9836 47.3312 95.0753 47.1295 95.1669C47.1204 95.1761 47.1112 95.1944 47.102 95.2219C47.0012 95.5428 46.7995 95.552 46.607 95.5978C46.4236 95.6345 46.2677 95.7353 46.0844 95.772C45.9652 95.7995 45.8277 95.7812 45.6902 95.7812C45.5801 95.7812 45.4793 95.7903 45.3693 95.7812C45.2501 95.772 45.1493 95.827 44.9934 95.6987C44.9476 95.662 44.9109 95.6712 44.8742 95.662C44.7 95.6437 44.5167 95.6437 44.3425 95.6162C44.2966 95.607 44.2416 95.5612 44.1316 95.332C44.0766 95.2219 44.0308 95.1669 44.0033 95.1669C43.9208 95.1486 43.8291 95.0844 43.8016 95.2219C43.7832 95.3136 43.7007 95.1944 43.6457 95.1669C43.6457 95.1669 43.609 95.0844 43.5999 95.0569C43.5632 94.9102 43.5357 94.8644 43.5174 94.8644C43.4807 94.8644 43.5082 95.0386 43.4257 94.8919C43.3248 94.7085 43.2515 94.3968 43.1598 94.1585C43.059 93.9018 43.0498 93.7367 42.9765 93.4984C42.9673 93.4709 42.9765 93.4342 42.9856 93.425C43.059 93.4067 43.0865 93.4067 43.1323 93.3884Z" fill="#8ED6C7"/>
<path d="M34.663 87.3278C34.718 87.3278 34.7914 87.3186 34.8739 87.3186C34.9197 87.3186 34.9656 87.3186 35.0022 87.3186C35.0297 87.3186 35.0481 87.3095 35.1948 87.3736C35.3323 87.4378 35.3048 87.4103 35.2314 87.3461C35.1856 87.3095 35.1306 87.2636 35.1398 87.2636C35.1948 87.2453 35.2773 87.2453 35.3323 87.2269C35.3598 87.2086 35.4056 87.1995 35.5707 87.2636C35.6807 87.3095 35.5706 87.227 35.4881 87.1628C35.3781 87.0803 35.4331 87.0986 35.6898 87.2361C35.8549 87.3186 35.8732 87.3278 35.7448 87.2453C35.6165 87.1628 35.479 87.0894 35.4973 87.0803C35.5431 87.0528 35.5615 87.0069 35.6165 86.9794C35.6348 86.9703 35.5706 86.9152 35.9099 87.1169C35.9282 87.1261 35.974 87.1536 35.974 87.1536C36.0015 87.1444 36.029 87.1353 36.0566 87.1261C35.809 86.9611 36.0749 87.0711 35.974 86.9794C35.9557 86.9611 35.9649 86.9611 36.0107 86.9794C36.2582 87.0986 36.0749 86.9611 36.2766 87.0528C36.4049 87.1078 36.3499 87.0711 36.2399 86.9978C36.1391 86.9244 36.0841 86.8877 36.0932 86.8786C36.1299 86.8236 36.1391 86.7502 36.1757 86.6952C36.2032 86.6585 36.2307 86.631 36.3224 86.631C36.4874 86.6402 36.5149 86.576 36.5975 86.5302C36.6433 86.5027 36.7441 86.521 36.8633 86.5302C36.9092 86.5394 36.9275 86.5302 36.8817 86.4843C36.5608 86.1543 36.6433 86.0443 36.7441 85.9434C36.7625 85.9251 36.8908 85.9801 36.8725 85.9526C36.8542 85.9251 36.8083 85.8701 36.8908 85.8976C36.9458 85.9159 36.9183 85.8793 36.8633 85.8243C36.5883 85.5951 36.7441 85.6042 36.8267 85.5676C36.8817 85.5492 37.0008 85.5676 37.0375 85.5401C37.0742 85.5126 37.0467 85.4392 37.0559 85.3934C37.0559 85.3842 37.0467 85.3659 37.0559 85.3659C37.12 85.3567 37.2484 85.3934 37.23 85.3384C37.2117 85.2925 37.1384 85.21 37.1659 85.1825C37.175 85.1733 37.1659 85.155 37.1475 85.1275C37.0742 85.0267 36.955 84.9075 37.3217 85.0542C37.3309 85.0267 37.3401 84.9992 37.3401 84.9716C37.3401 84.9533 37.2942 84.9075 37.3676 84.9441C37.5693 85.0175 37.5326 84.9716 37.3126 84.8158C37.1934 84.7333 37.1934 84.7058 37.1475 84.6599C37.12 84.6233 37.1017 84.6049 37.2942 84.6966C37.3492 84.7241 37.3951 84.7333 37.3584 84.7058C37.23 84.6141 37.3584 84.6691 37.3401 84.6416C37.3126 84.5958 37.3401 84.5958 37.5051 84.6599C37.5601 84.6783 37.5601 84.6691 37.5142 84.6324C37.2117 84.4032 37.1934 84.3299 37.1842 84.2657C37.1659 84.1557 37.1934 84.064 37.2942 84.0274C37.3126 84.0182 37.3126 84.009 37.285 83.9815C37.1842 83.8807 37.23 83.8532 37.2575 83.8257C37.2667 83.8165 37.2392 83.7798 37.23 83.7523C37.4867 83.8898 37.2575 83.7431 37.2484 83.7248C37.2392 83.7065 37.3309 83.734 37.285 83.6881C37.2392 83.6331 37.2942 83.6423 37.3217 83.6331C37.3676 83.6148 37.5693 83.7065 38.0002 83.954C38.0735 83.9907 38.1468 84.0365 38.2202 84.0732C38.4219 84.1924 38.5227 84.2474 38.5594 84.2932C38.6052 84.3482 38.6969 84.4216 38.6511 84.4216C38.5411 84.4124 38.6511 84.5224 38.6969 84.6049C38.7611 84.7149 38.8161 84.825 38.7703 84.88C38.7428 84.9166 38.7336 84.9625 38.7152 84.9992C38.6969 85.0358 38.7611 85.1183 38.7794 85.1825C38.7978 85.2375 38.8344 85.3017 38.7886 85.3109C38.7061 85.3384 38.7427 85.43 38.6602 85.4575C38.6419 85.4667 38.6236 85.4759 38.6419 85.5034C38.7152 85.6134 38.7611 85.7051 38.6694 85.7142C38.6602 85.7142 38.6419 85.7142 38.6786 85.7418C38.9444 85.9251 38.8344 85.8976 38.8253 85.9343C38.8069 86.026 38.7611 86.0901 38.7244 86.1726C38.6877 86.2735 38.6511 86.3652 38.6052 86.466C38.5777 86.521 38.5869 86.6035 38.4677 86.6127C38.3944 86.6127 38.4402 86.6861 38.4219 86.7227C38.3852 86.7869 38.2935 86.8144 38.2569 86.8694C38.1927 86.9702 38.1652 87.0894 38.1193 87.2086C38.1193 87.2178 38.1285 87.2361 38.1377 87.2453C38.321 87.4745 38.2202 87.5478 38.1468 87.6303C38.0827 87.7129 38.0643 87.8229 37.991 87.9054C37.9451 87.9604 37.8535 87.9879 37.7893 88.0337C37.7343 88.0704 37.6884 88.1071 37.6151 88.1346C37.5418 88.1621 37.5326 88.2354 37.3492 88.1988C37.2942 88.1896 37.2851 88.2079 37.2667 88.2171C37.1567 88.2629 37.0559 88.3179 36.9458 88.3546C36.9183 88.3638 36.8542 88.3546 36.625 88.2446C36.5149 88.1896 36.4508 88.1713 36.4324 88.1804C36.3774 88.1988 36.2766 88.1804 36.3591 88.2721C36.4141 88.3363 36.2857 88.2904 36.2399 88.2904C36.2399 88.2904 36.1666 88.2538 36.1391 88.2354C36.0107 88.1529 35.9649 88.1346 35.9557 88.1437C35.9374 88.1529 36.0841 88.2629 35.9282 88.1896C35.7448 88.1071 35.4698 87.9329 35.2498 87.8137C35.0022 87.6853 34.8831 87.5845 34.6722 87.4653C34.6447 87.447 34.6172 87.4195 34.6172 87.4195C34.6355 87.3553 34.6539 87.3553 34.663 87.3278Z" fill="#8ED6C7"/>
<path d="M24.3424 85.4765C24.3791 85.4398 24.4433 85.3848 24.5074 85.339C24.5441 85.3115 24.59 85.284 24.6083 85.2565C24.6266 85.2381 24.6358 85.2198 24.7917 85.1831C24.9383 85.1556 24.9017 85.1464 24.81 85.1373C24.755 85.1373 24.6816 85.1281 24.6816 85.1189C24.7091 85.0731 24.7825 85.0181 24.81 84.9723C24.8283 84.9356 24.8467 84.9081 25.0209 84.8622C25.1309 84.8347 25.0025 84.8347 24.8925 84.8256C24.755 84.8164 24.81 84.8072 25.1034 84.7614C25.2867 84.7339 25.3051 84.7247 25.1492 84.7339C24.9933 84.743 24.8467 84.7614 24.8467 84.7431C24.865 84.688 24.8558 84.6422 24.8833 84.5872C24.8925 84.5689 24.81 84.5505 25.2042 84.523C25.2225 84.523 25.2776 84.5139 25.2776 84.5139C25.2959 84.4864 25.3142 84.4589 25.3326 84.4314C25.0392 84.4314 25.3234 84.3672 25.1767 84.358C25.1492 84.358 25.1584 84.3488 25.2042 84.3397C25.4792 84.2938 25.25 84.2847 25.4701 84.2388C25.6076 84.2113 25.5434 84.2113 25.4059 84.2113C25.2867 84.2113 25.2134 84.2113 25.2134 84.193C25.2134 84.1196 25.1767 84.0555 25.1767 83.9821C25.1767 83.9363 25.1767 83.8904 25.2592 83.8446C25.3967 83.7529 25.3876 83.6704 25.4151 83.5879C25.4334 83.5421 25.5343 83.487 25.6259 83.4229C25.6626 83.4045 25.6718 83.3862 25.6168 83.3679C25.1584 83.2762 25.1584 83.1295 25.1859 82.9828C25.1859 82.9645 25.3234 82.9278 25.2959 82.9095C25.2684 82.8911 25.195 82.882 25.2776 82.8453C25.3326 82.827 25.2959 82.8086 25.2134 82.7994C24.8558 82.7628 24.9842 82.6803 25.03 82.5978C25.0575 82.5428 25.1675 82.4877 25.1859 82.4419C25.2042 82.3961 25.14 82.3502 25.1125 82.3044C25.1034 82.2952 25.085 82.2861 25.0942 82.2769C25.14 82.231 25.2684 82.176 25.2225 82.1485C25.1767 82.1119 25.0667 82.0935 25.085 82.0477C25.085 82.0385 25.0667 82.0202 25.0392 82.011C24.92 81.9743 24.7458 81.9377 25.14 81.846C25.1309 81.8185 25.1125 81.791 25.1034 81.7543C25.0942 81.736 25.03 81.7268 25.1125 81.7085C25.3142 81.6535 25.2592 81.6351 24.9933 81.626C24.8467 81.626 24.8283 81.5985 24.7733 81.5893C24.7275 81.5801 24.7 81.571 24.9108 81.5343C24.975 81.5251 25.0117 81.5068 24.975 81.5068C24.8192 81.5068 24.9567 81.4701 24.92 81.4518C24.8742 81.4334 24.8925 81.4059 25.0667 81.3693C25.1217 81.3601 25.1125 81.3418 25.0575 81.3418C24.6725 81.3326 24.6266 81.2776 24.5716 81.2226C24.4891 81.1309 24.4616 81.0392 24.5166 80.9384C24.5258 80.92 24.5258 80.9109 24.4799 80.9017C24.3333 80.8742 24.3608 80.8283 24.3699 80.7825C24.3699 80.7642 24.3333 80.755 24.3058 80.7367C24.59 80.6908 24.3241 80.7092 24.3058 80.7C24.2874 80.6817 24.3791 80.6633 24.3149 80.645C24.2416 80.6267 24.2966 80.5992 24.3058 80.5717C24.3241 80.5258 24.5533 80.4891 25.0392 80.4341C25.1217 80.425 25.2042 80.4158 25.2867 80.4066C25.5159 80.3791 25.6351 80.3791 25.6901 80.3883C25.7543 80.4066 25.8826 80.4158 25.8368 80.4433C25.7359 80.5075 25.901 80.535 25.9743 80.5717C26.0935 80.6267 26.1943 80.6908 26.1943 80.7642C26.1943 80.81 26.2127 80.8559 26.2218 80.9017C26.231 80.9475 26.3319 80.975 26.3777 81.0209C26.4235 81.0576 26.4877 81.0851 26.4602 81.1309C26.4052 81.2042 26.4969 81.2684 26.4419 81.3418C26.4327 81.3601 26.4235 81.3784 26.451 81.3968C26.5702 81.4426 26.6619 81.4976 26.5977 81.571C26.5886 81.5801 26.5794 81.5893 26.6252 81.5893C26.9553 81.5893 26.8453 81.6351 26.8544 81.6718C26.8911 81.7635 26.9003 81.846 26.9186 81.9377C26.9461 82.0477 26.9736 82.1577 26.992 82.2677C27.0011 82.3319 27.0561 82.3961 26.9645 82.4786C26.9094 82.5244 26.9828 82.5611 26.992 82.5978C27.0011 82.6711 26.9369 82.7536 26.9461 82.827C26.9553 82.9553 27.0011 83.0837 27.0378 83.2028C27.0378 83.212 27.0561 83.2212 27.0836 83.2212C27.3678 83.3129 27.3312 83.432 27.322 83.5512C27.3128 83.6612 27.3678 83.7713 27.3587 83.8813C27.3587 83.9546 27.3037 84.0371 27.267 84.1196C27.2395 84.1838 27.2212 84.248 27.1845 84.3122C27.1386 84.3855 27.1753 84.4497 27.0103 84.5322C26.9644 84.5597 26.9644 84.578 26.9461 84.5964C26.8911 84.7064 26.8361 84.8072 26.7719 84.9172C26.7536 84.9448 26.6986 84.9723 26.4419 85.0181C26.3227 85.0364 26.2585 85.0639 26.2493 85.0823C26.2127 85.1281 26.121 85.1831 26.2493 85.2106C26.3319 85.229 26.1943 85.2656 26.1577 85.3023C26.1577 85.3023 26.0752 85.3206 26.0385 85.3206C25.8826 85.3298 25.8368 85.339 25.8368 85.3573C25.8276 85.3756 26.0018 85.3756 25.8368 85.4123C25.6443 85.4582 25.3142 85.4673 25.0667 85.504C24.7917 85.5407 24.6358 85.5315 24.3883 85.559C24.3516 85.559 24.3241 85.559 24.3149 85.5498C24.3424 85.5223 24.3424 85.504 24.3424 85.4765Z" fill="#8ED6C7"/>
</svg>
