<svg width="54" height="48" viewBox="0 0 54 48" fill="none" xmlns="http://www.w3.org/2000/svg">
<path d="M3.94172 0C5.02885 0.265152 6.12922 0.450763 7.20309 0.821976C8.17089 1.15342 9.11221 1.49812 10.0933 1.12691C10.3452 1.0341 10.6236 1.11365 10.8887 1.11365C11.366 1.11365 11.8565 1.11365 12.3338 1.07387C12.5592 1.06062 12.7846 0.835233 12.9834 0.914779C13.9778 1.28599 14.9853 1.39206 15.9797 0.981071C16.7619 1.48486 17.5308 1.1269 18.313 0.967811C19.0952 0.808719 19.9039 0.914778 20.6728 0.530307C20.885 0.424246 21.1104 0.384479 21.3225 0.464025C22.5952 0.888269 23.8547 0.729171 25.1274 0.62311C26.493 0.503791 27.8585 0.636371 29.2107 1.11365C29.9399 1.36554 30.6956 1.35228 31.4381 1.35228C32.3263 1.35228 33.2013 1.20645 34.0896 1.16668C35.4286 1.08713 36.7676 1.00759 38.1464 0.92804C40.0423 0.821979 42.0309 1.1269 43.9002 1.86933C44.3642 2.06819 44.8017 2.33335 45.2127 2.63827L46.3529 3.65911C47.8245 5.07767 48.9514 6.74813 49.8926 8.47162C50.6351 9.74435 51.2317 11.1099 51.7885 12.4887C52.2392 13.7879 52.7298 15.127 52.8889 16.5455C52.9419 17.0493 53.0082 17.6194 53.0347 18.0834L53.1142 19.4622L53.2733 22.2198L53.5915 27.7217C53.6446 28.61 53.7771 29.485 53.8434 30.36C53.8832 30.7975 53.8832 31.2482 53.8567 31.6857C53.7904 33.3164 53.6711 34.9471 53.6313 36.591L53.5252 43.6176C53.4854 44.9433 53.3926 46.2691 53.7373 47.5949C53.8302 47.9661 53.5385 48.0854 52.9021 47.9396C51.8017 47.6877 50.6483 47.4888 49.9987 46.8524C49.5612 46.4149 49.2165 46.0172 49.3888 45.4869C49.6275 44.718 49.1237 43.896 49.7998 43.127C49.8926 43.021 49.8661 42.8619 49.8264 42.7293C49.0839 40.4357 49.5082 38.1422 49.6142 35.8486C49.654 35.0929 49.5347 34.3505 49.5082 33.5948C49.4949 33.1043 49.4949 32.627 49.5082 32.1365C49.5347 31.4338 49.654 30.7179 49.601 30.0153C49.5612 29.4849 49.3623 28.9679 50.012 28.4906C50.1445 28.3846 50.118 28.1062 49.9589 28.0134C49.3623 27.6289 49.4286 27.1914 49.4419 26.7539C49.4949 25.5607 49.6142 24.3808 49.6142 23.1876C49.6142 22.3126 49.5214 21.4243 49.3888 20.5493C49.1635 19.2103 48.8586 17.7387 48.5802 16.6383L48.2089 15.1932C48.0764 14.716 47.8907 14.2652 47.7316 13.8144C47.6256 13.6156 47.4268 13.4432 47.3472 13.2444C47.1881 12.8599 46.9097 12.5285 46.923 12.1042C46.9495 11.6269 46.8567 11.269 46.1805 11.2159C45.8093 11.1762 45.6634 10.8845 45.5706 10.6194C45.4116 10.3012 45.3718 9.89019 45.3187 9.4792C45.2525 8.98867 45.1331 8.5114 44.5366 8.44511C44.2316 8.40534 44.046 8.10041 43.94 7.79549C43.7146 7.10609 43.2506 6.62882 42.76 6.17806C42.2165 5.80684 41.6464 5.4754 40.9968 5.2898C39.2866 4.71972 37.51 4.61366 35.8263 4.77275C35.4949 4.81252 35.19 4.81252 34.832 4.82577L33.6388 4.87881C31.1596 5.01138 28.6937 4.85229 26.2146 4.66669C25.724 4.62692 25.2335 4.57388 24.7562 4.6932C23.6558 4.97161 22.5554 4.90532 21.4418 4.70646C20.116 4.48108 18.7903 4.70646 17.4645 4.9451C17.1596 4.99813 16.8414 5.1307 16.5365 5.09093C14.4152 4.78601 12.294 5.32956 10.1728 5.21025C8.46259 5.11744 6.75235 4.79927 5.02886 4.53411C3.70309 4.32199 2.3906 4.04358 1.06484 3.80494C0.972037 3.79168 0.892475 3.84472 0.799672 3.8182C0.0439877 3.64585 -0.194664 2.86365 0.163292 1.67046C0.481475 0.609853 0.972041 2.83243e-06 1.64818 0.0132605C2.40386 0.0397757 3.14627 0.132575 3.90195 0.185606L3.94172 0Z" fill="#8ED6C7"/>
</svg>
