<svg width="148" height="131" viewBox="0 0 148 131" fill="none" xmlns="http://www.w3.org/2000/svg">
<path d="M146.203 42.8668C146.751 42.9386 147.136 43.4406 147.065 43.9882C146.993 44.5358 146.491 44.9216 145.943 44.8499L146.203 42.8668ZM5.08695 92.534L8.3487 81.4573L16.3106 89.8204L5.08695 92.534ZM146.073 43.8584C145.943 44.8499 145.943 44.8499 145.943 44.8499C145.943 44.8498 145.942 44.8498 145.941 44.8497C145.94 44.8494 145.937 44.849 145.932 44.8485C145.924 44.8475 145.911 44.8458 145.894 44.8437C145.859 44.8393 145.806 44.8328 145.735 44.8244C145.594 44.8077 145.381 44.7833 145.099 44.7537C144.536 44.6944 143.698 44.6137 142.61 44.5293C140.433 44.3605 137.251 44.1769 133.249 44.1194C125.243 44.0045 113.959 44.3944 100.86 46.4152C74.6584 50.4576 41.2455 61.0177 12.278 87.0681L10.9407 85.581C40.284 59.1926 74.103 48.5196 100.555 44.4386C113.784 42.3977 125.182 42.0034 133.278 42.1196C137.326 42.1777 140.549 42.3635 142.764 42.5353C143.872 42.6212 144.728 42.7035 145.308 42.7647C145.599 42.7953 145.82 42.8205 145.971 42.8383C146.046 42.8472 146.103 42.8542 146.142 42.859C146.161 42.8615 146.176 42.8634 146.186 42.8647C146.191 42.8653 146.195 42.8658 146.198 42.8662C146.199 42.8664 146.201 42.8665 146.201 42.8666C146.202 42.8668 146.203 42.8668 146.073 43.8584Z" fill="#25786A"/>
</svg>
