<svg width="45" height="72" viewBox="0 0 45 72" fill="none" xmlns="http://www.w3.org/2000/svg">
<path d="M16.3813 11.6322V17.7465C16.3813 18.0258 16.0482 18.1728 15.8424 17.9817L0.380178 3.69534C0.179307 3.50917 0.287084 3.17601 0.556546 3.14172L22.4417 0.314815C22.7357 0.27562 22.917 0.623472 22.721 0.843941L18.5517 5.54728C18.3753 5.74815 18.5076 6.05681 18.7722 6.0764C25.1511 6.49774 29.9034 8.46726 32.4755 10.3094C45.5273 19.6377 48.1729 44.0999 37.6345 70.7864C37.5316 71.0412 37.1739 71.0608 37.0466 70.8158C35.7189 68.1947 34.396 65.5736 33.0683 62.9573C32.9899 62.8006 32.7989 62.7369 32.6421 62.8153L22.8631 67.6411C22.574 67.7832 22.285 67.4549 22.4564 67.1854C35.9344 45.6726 37.3993 24.7673 28.1788 16.0416C26.3122 14.2729 22.917 11.9752 16.7341 11.3138C16.5528 11.2942 16.3813 11.4411 16.3813 11.6322Z" fill="#8ED8C8"/>
<path d="M13.133 16.4335C11.1733 14.4934 9.17932 12.5581 7.27349 10.6033C5.56853 8.85917 3.90277 7.14931 1.98225 5.56194C1.65399 5.29738 1.16405 4.82704 0.718216 4.4057C0.561439 4.25382 0.434063 4.10194 0.326278 3.96476C0.228292 3.84228 0.14008 3.7296 0.0567922 3.61691C-0.026496 3.49933 -0.0166782 3.29356 0.0764086 3.15638C0.174395 3.0045 0.326258 2.9947 0.458539 2.95061C0.600619 2.90651 0.747619 2.86242 0.909297 2.82323C1.5854 2.69585 2.47215 2.60766 2.99638 2.52437C3.5451 2.44598 4.11343 2.2892 4.62785 2.25491C7.16079 2.06383 9.66434 1.77967 12.163 1.30444C14.1521 1.23585 16.0677 0.853705 18.0323 0.54015C18.5566 0.461761 19.0857 0.383366 19.6148 0.304978L21.5942 0.0257211C21.9028 -0.0134734 22.1576 0.00122513 22.3878 0.0110237L22.7112 0.0355218C22.8141 0.0453204 22.9121 0.0355161 23.0199 0.113905C23.1227 0.187395 23.2011 0.314778 23.2256 0.437261C23.255 0.569542 23.2109 0.65773 23.1766 0.736119C23.108 0.897796 23.0345 1.08887 22.9366 1.29954C22.8386 1.53961 22.5593 1.85806 22.2997 2.16182C22.04 2.46068 21.746 2.79383 21.5109 3.03389L20.678 3.90107L19.9431 4.68496L19.414 5.25328C19.3699 5.30227 19.3209 5.34637 19.2866 5.40026C19.2523 5.45905 19.2523 5.52764 19.2817 5.58644C19.3405 5.72362 19.5021 5.70401 19.6246 5.71871C19.8843 5.74321 20.144 5.75301 20.3987 5.78241L20.9082 5.8363C21.1091 5.8559 21.3149 5.88529 21.5158 5.90978C22.3242 6.01757 23.1325 6.14006 23.936 6.31153C25.6557 6.65448 27.3508 7.17381 28.9627 7.86951C30.5648 8.57501 32.1277 9.46668 33.426 10.6474C34.8272 11.8624 36.1941 13.244 37.3552 14.7432C38.7368 16.5266 39.9176 18.4618 40.8582 20.5146C42.2349 23.4934 43.1413 26.6289 43.8517 29.8086C44.7728 34.071 45.101 38.4853 44.9737 42.8848C44.9247 45.1238 44.6111 47.3873 44.2779 49.6165C43.9399 51.8457 43.4696 54.0504 42.9649 56.2404C42.4162 58.4205 41.8479 60.5958 41.162 62.7368C40.6623 64.3487 40.138 65.9557 39.5697 67.548L39.359 68.1457C39.2904 68.3465 39.2316 68.5327 39.0994 68.7875L38.4184 70.2034L38.0754 70.9138L37.9039 71.2714L37.8157 71.4478C37.7864 71.5164 37.7619 71.5556 37.7129 71.5752C37.5365 71.7026 37.1641 71.6977 37.0172 71.5801C36.8751 71.4772 36.7281 71.3547 36.5566 71.1783C36.2872 70.9187 36.0667 70.3797 35.8315 69.9486L35.2632 68.8561L34.3617 67.1413L32.6862 63.9715C32.6372 63.9029 32.6176 63.7853 32.5147 63.7951C32.4265 63.8245 32.353 63.8784 32.2746 63.9127L23.6176 68.2975C23.2991 68.4494 23.0689 68.4641 22.8631 68.4837C22.6622 68.4935 22.5054 68.4788 22.3682 68.4641C22.2311 68.4298 22.1478 68.4739 21.942 68.3269C21.746 68.1849 21.5745 67.9301 21.6137 67.7978L22.1086 66.4407L22.3535 65.7597L22.476 65.4167L22.5397 65.2453L22.5691 65.162C22.5838 65.1277 22.6132 65.0836 22.6377 65.0493C22.8239 64.7406 23.0051 64.4271 23.1815 64.1135L23.4755 63.5893L24.0536 62.5556C24.4211 61.855 24.8032 61.1642 25.1609 60.4587C26.5964 57.6465 27.88 54.7608 28.9774 51.8065C29.7417 49.7439 30.3982 47.6519 30.9469 45.5305C31.2164 44.4722 31.4858 43.4091 31.721 42.341C32.5882 38.3922 33.083 34.3454 32.8332 30.3475C32.6421 27.4961 32.0983 24.6643 30.9763 22.0971C30.4227 20.8135 29.7319 19.5984 28.8941 18.5059C28.0465 17.4183 27.0667 16.4482 25.9496 15.6496C23.4167 13.8271 20.2714 12.8325 17.077 12.5777C16.9643 12.5679 16.8614 12.5532 16.7683 12.5434C16.7243 12.5385 16.6801 12.5287 16.6361 12.5238H16.6213H16.6116H16.6067L16.6997 11.6371V11.6322C16.7095 11.6518 16.6997 11.6371 16.6899 11.6322C16.6997 11.6322 16.6899 11.6322 16.6948 11.6322C16.7046 11.6371 16.7046 11.642 16.6997 11.6371V11.6322V11.6371C16.6361 12.2446 16.6801 11.8036 16.6654 11.9408H16.6704L16.685 11.931L16.7144 11.9163C16.8761 11.833 17.0525 11.7596 17.2583 11.691C17.6747 11.5489 18.2136 11.4607 19.0318 11.4852C20.1391 11.5342 21.1875 11.6616 22.4711 12.176C23.3971 12.5532 24.3525 12.9452 25.2539 13.44C26.1554 13.9349 27.0079 14.5277 27.6791 15.2626C27.8702 15.4683 28.1788 15.7231 28.4238 15.9436C30.6628 17.8837 32.1766 20.5636 33.0977 23.3611C34.0041 26.1782 34.3422 29.1374 34.3765 32.0623C34.401 33.9779 34.3177 35.8935 34.1021 37.7994C34.0433 38.4167 33.9502 39.0291 33.8522 39.6464C33.7689 40.2637 33.6464 40.8712 33.5289 41.4787C33.1761 43.2474 32.7205 44.9916 32.2306 46.7161C32.0542 47.3726 31.8827 48.0144 31.6671 48.6317C31.4663 49.249 31.2262 49.8419 30.9028 50.3759C30.7705 50.6013 30.5501 51.2725 30.5158 51.5272C30.3786 52.4973 29.9622 53.5408 29.5163 54.5697C28.3307 57.3525 26.9736 60.0569 25.5234 62.7025C25.2637 63.1974 24.9845 63.6824 24.7101 64.1674L24.0487 65.3433L23.5245 66.2545L23.402 66.4701C23.3579 66.5387 23.3775 66.6416 23.4461 66.6955C23.5098 66.7543 23.6176 66.7641 23.7008 66.72L23.9458 66.5877L24.5778 66.2447C25.0384 65.9949 25.2343 65.8724 26.0476 65.4462L28.0808 64.3634L30.114 63.2856L31.1331 62.7466L31.7259 62.438C32.0003 62.3008 32.2844 62.1293 32.5539 62.0754C32.6862 62.046 32.794 62.0264 32.9262 62.0362C33.0585 62.046 33.1957 62.0901 33.3084 62.1587C33.5142 62.2959 33.6856 62.4821 33.8326 62.7515C34.4597 63.947 35.0868 65.1473 35.714 66.3525L36.586 68.0281L36.8065 68.4494L36.9388 68.6944L37.0662 68.9198C37.1152 68.9933 37.1445 69.0618 37.2033 69.0912C37.2425 69.0961 37.2866 69.0716 37.3062 69.0275L37.3748 68.8267C37.4581 68.5866 37.5414 68.3465 37.6198 68.1016C37.6982 67.8811 37.7766 67.6655 37.8549 67.45C37.9578 67.1707 38.0656 66.8963 38.1832 66.6318C38.6976 65.4706 39.0014 64.5251 39.1778 63.3541C39.2709 62.6976 39.5648 61.6982 39.8294 60.8898C40.1429 59.8462 40.5006 58.8223 40.8288 57.8081C41.0199 57.1957 41.211 56.6029 41.3726 55.9905C41.5245 55.3781 41.6372 54.7412 41.7058 54.0504C41.7891 53.3106 41.9949 52.3111 42.2055 51.4978C43.0629 47.8919 43.4059 44.1293 43.4108 40.3911C43.3863 35.3203 42.7543 30.2544 41.26 25.4825C40.6672 23.6159 39.9666 21.7835 39.0945 20.0443C37.7374 17.3448 35.9883 14.8559 33.813 12.8227L32.985 12.078L32.1081 11.3921C31.5251 10.9365 30.9175 10.5592 30.2708 10.1918C28.9725 9.47648 27.5762 8.89836 26.1407 8.43783C25.0139 8.07528 23.838 7.76662 22.6769 7.59515C22.0057 7.49226 21.3345 7.41387 20.6584 7.34038L19.9382 7.26689L19.4384 7.2277C19.3454 7.2277 19.2817 7.2081 19.2278 7.18361L19.0514 7.12482L18.341 6.88475L17.9883 6.76227L17.8119 6.70348C17.7825 6.69368 17.7482 6.68387 17.7286 6.67408L17.6845 6.62509C17.5571 6.48301 17.4248 6.19394 17.4053 5.97837C17.3906 5.7824 17.4052 5.64032 17.464 5.41985C17.5228 4.98872 18.1107 4.45469 18.5223 3.97946L19.4189 2.9947L20.1293 2.22551L20.3301 2.00994C20.3742 1.96095 20.3693 1.97074 20.3742 1.96095L20.3938 1.94625L20.4722 1.87276L20.629 1.71108C20.6486 1.68169 20.6878 1.66209 20.6927 1.62289C20.6976 1.5837 20.6584 1.5543 20.6192 1.5641L20.3987 1.6033L20.2811 1.6278L20.2273 1.64249L20.2028 1.64739L20.0607 1.66699L18.7378 1.86296L16.0971 2.2696C15.328 2.39209 14.5489 2.53907 13.7847 2.62235C11.3154 2.88692 8.85595 3.22007 6.4014 3.56302L2.72202 4.08235L2.61425 4.09704V4.10194V4.10684C2.61425 4.11174 2.61425 4.11174 2.61425 4.11174C2.61914 4.11664 2.61915 4.11664 2.61915 4.11664L2.8151 4.30281C5.98006 7.27669 9.08623 10.2996 12.1973 13.3126L14.0002 15.0617L14.8968 15.9387L15.1859 16.2522L15.3377 16.4188C15.3818 16.4776 15.4553 16.5462 15.5337 16.5119C15.6121 16.4825 15.5974 16.4041 15.6072 16.3404L15.6268 16.1297L15.6464 15.9044L15.6562 15.7819L15.6611 15.7182L15.666 15.581L15.7003 14.3268C15.7052 14.1063 15.6856 13.8761 15.6954 13.6605C15.7591 11.7596 16.0481 11.1569 16.4891 12.0535C16.6851 12.4504 16.8418 12.9648 16.9447 13.5968C16.9986 13.9104 17.0378 14.2533 17.0623 14.6257C17.077 14.8118 17.0868 15.0029 17.0917 15.2038C17.0917 15.3018 17.0966 15.4046 17.0966 15.5075C17.0966 15.6349 17.0966 15.7672 17.0966 15.8995L17.0917 17.0214C17.1064 17.4085 17.0574 17.7465 16.9643 17.9817C16.9251 18.1091 16.8761 18.2021 16.832 18.3001C16.7879 18.3883 16.7585 18.4814 16.641 18.5745C16.5332 18.6627 16.3764 18.7264 16.2392 18.7362C16.0971 18.746 16.0188 18.697 15.9159 18.6676C15.715 18.5892 15.4749 18.4961 15.2055 18.3001C14.936 18.0797 14.6665 17.8004 14.3971 17.5603L13.1821 16.4139L13.133 16.4335Z" fill="#8ED8C8"/>
</svg>
