<svg width="38" height="66" viewBox="0 0 38 66" fill="none" xmlns="http://www.w3.org/2000/svg">
<path d="M26.0899 -5.14811e-07C27.334 2.84266 37.6589 27.3689 25.0803 44.4068C23.4035 46.6846 21.0356 49.1967 17.6641 51.5105C16.7566 49.8638 15.8491 48.2111 14.9416 46.5644C14.8395 46.3721 14.575 46.354 14.4368 46.5223L0.914632 63.4881C0.764386 63.6805 0.884584 63.9629 1.13099 63.981L22.3879 65.3813C22.6102 65.3933 22.7725 65.1709 22.6884 64.9666L20.3265 58.9988C22.8807 57.3581 33.5542 50.1222 36.9017 36.1433C41.7156 16.1124 27.0155 0.919508 26.0899 -5.14811e-07Z" fill="#EEB6BD"/>
</svg>
