<svg width="140" height="140" viewBox="0 0 140 140" fill="none" xmlns="http://www.w3.org/2000/svg">
<path d="M2.00509 102.19C1.45282 102.193 1.00283 101.747 1.00003 101.195C0.997219 100.643 1.44266 100.193 1.99494 100.19L2.00509 102.19ZM135.132 33.9423L133.394 45.3578L124.377 38.145L135.132 33.9423ZM2.00001 101.19C1.99494 100.19 1.99485 100.19 1.99505 100.19C1.99551 100.19 1.99601 100.19 1.99693 100.19C1.99875 100.19 2.00175 100.19 2.0059 100.19C2.01421 100.19 2.02715 100.19 2.04467 100.189C2.07971 100.189 2.1331 100.188 2.20443 100.187C2.34708 100.185 2.5615 100.18 2.84455 100.171C3.41068 100.154 4.25128 100.121 5.34125 100.058C7.52131 99.9315 10.6984 99.6844 14.672 99.2015C22.6201 98.2355 33.7488 96.327 46.4549 92.5579C71.8721 85.0183 103.555 70.0479 128.744 40.3282L130.27 41.6214C104.754 71.7265 72.6837 86.8637 47.0236 94.4754C34.1911 98.2819 22.9501 100.21 14.9133 101.187C10.8943 101.675 7.67517 101.926 5.45703 102.055C4.34793 102.119 3.48896 102.153 2.90528 102.17C2.61344 102.179 2.39041 102.184 2.23934 102.187C2.1638 102.188 2.10625 102.189 2.06707 102.189C2.0475 102.19 2.03251 102.19 2.02215 102.19C2.01699 102.19 2.01297 102.19 2.01013 102.19C2.0087 102.19 2.00745 102.19 2.00673 102.19C2.00576 102.19 2.00509 102.19 2.00001 101.19Z" fill="#25786A"/>
</svg>
