<svg width="65" height="65" viewBox="0 0 65 65" fill="none" xmlns="http://www.w3.org/2000/svg">
<path d="M24.7045 59.3257L38.7873 33.7918C39.0183 33.448 39.4917 33.3578 39.8355 33.5889L45.9048 37.7084C46.3951 38.0409 47.0657 37.6971 47.0826 37.1054L47.787 10.4894C47.8039 9.84137 47.0601 9.48074 46.5585 9.88085L44.5298 11.5376C44.4621 11.594 44.4058 11.6616 44.3607 11.7293L18.0998 55.0541C17.9195 55.3471 17.9646 55.7303 18.2125 55.9783L20.957 58.7227C21.2782 59.0665 24.4396 59.7258 24.7045 59.3257Z" fill="#69B9CB"/>
<path d="M26.4288 53.826C27.3305 52.5299 28.1927 51.1943 29.1394 49.9319C29.9904 48.8105 30.8244 47.7172 31.3147 46.3704C31.4387 46.021 31.681 45.6998 31.8613 45.3617C32.1938 44.7474 32.5376 44.1444 32.8532 43.5245C32.9997 43.2428 33.0391 42.8877 33.2195 42.651C34.1099 41.4901 34.865 40.2616 35.3496 38.8753C36.1611 38.03 36.5049 36.9537 36.9726 35.9111C37.0853 35.6519 37.2149 35.3983 37.3389 35.1391L37.7898 34.2599C37.9588 33.9218 38.1335 33.5668 38.342 33.2794C38.5167 32.9807 38.8379 32.7384 39.193 32.6426C39.5931 32.5242 39.9819 32.6651 40.3426 32.9018C41.5316 33.8204 42.0501 34.2487 42.8616 34.7897C43.2392 35.0432 43.628 35.2968 44.0112 35.5448L44.5466 35.8773L44.9072 36.0915L45.0425 36.1703C45.2848 36.3 45.4933 36.4972 45.7582 36.6043C46.0456 36.6775 46.3499 36.4408 46.3443 36.1647C46.3724 35.8998 46.4175 35.6294 46.4683 35.3307L46.5528 34.8629L46.6655 34.1754C46.8402 33.1329 46.8627 32.0396 46.8909 30.9633C46.9247 29.6897 46.8684 28.4048 46.8796 27.1312C46.8965 25.2771 46.8571 23.4344 46.6936 21.5916C46.4682 19.1233 46.3105 16.6437 46.2147 14.1585L46.2034 13.6852L46.2034 13.2682C46.2034 13.1893 46.209 13.116 46.2259 13.0315C46.2485 12.8624 46.2936 12.6595 46.3217 12.4397C46.3386 12.1974 46.0512 12.0791 45.9272 12.2143L45.4031 12.5242C45.3017 12.5806 45.2003 12.6482 45.127 12.7553L45.0707 12.8342L45.0425 12.8737L44.9749 12.9751L44.71 13.3752L43.6674 14.9813C42.6362 16.5986 41.6669 18.2554 40.7089 19.9122C39.8185 21.4676 39.0013 23.0512 38.1166 24.6122L30.2553 38.4358L28.4181 41.7832C28.1082 42.3411 27.7757 42.8877 27.4432 43.4231L23.6731 49.4248L20.1397 55.2123C20.1172 55.2348 20.0946 55.2799 20.1228 55.3081C20.1904 55.3757 20.0214 55.2179 20.506 55.7026L21.5148 56.7339L21.9881 57.2073C22.005 57.2242 22.0163 57.2354 22.0388 57.2354L22.0557 57.241L22.1797 57.2749L22.4615 57.3425C22.6588 57.3819 22.8673 57.4214 23.0701 57.4439C23.459 57.4946 23.9323 57.5172 24.1521 57.4665C24.1634 57.4552 24.2254 57.4608 24.1972 57.4552C24.1916 57.4383 24.1972 57.489 24.1972 57.5341L24.2029 57.6637C24.2085 57.7482 24.2198 57.8384 24.231 57.9173C24.2479 58.0807 24.2761 58.2329 24.3099 58.3794C24.3043 58.7908 24.5353 59.1233 24.5128 59.1571C24.5635 59.2416 24.6311 59.2529 24.6199 59.2529C24.6142 59.2472 24.5353 59.2247 24.5015 59.112C24.5072 59.0838 24.4451 58.9767 24.4113 58.8866C24.3775 58.7964 24.3494 58.7006 24.3324 58.6048C24.3268 58.5541 24.3156 58.509 24.3212 58.4583C24.3212 58.4358 24.3212 58.4132 24.3155 58.3738L24.3043 58.3174L24.3043 58.3287L24.2986 58.447C24.2986 58.6161 24.2141 58.7795 24.1183 58.9317C23.9098 59.2303 23.5829 59.4783 23.087 59.6023C22.7489 59.6812 22.4221 59.7375 22.0783 59.7319C21.7233 59.715 21.419 59.6812 20.9174 59.4276C20.7596 59.3261 20.6018 59.236 20.4722 59.0951L20.1228 58.7457L19.4973 58.154C19.0746 57.7426 18.7252 57.3594 18.4209 56.7733C18.3308 56.6042 18.1223 56.4296 17.9588 56.2774C17.694 56.0689 17.4855 55.7589 17.4742 55.4095C17.4517 55.0601 17.6151 54.7727 17.7672 54.4403L18.3251 53.409L18.838 52.513C19.1817 51.9212 19.5424 51.3352 19.9087 50.7547L22.1346 47.2777C22.7094 46.3647 23.211 45.3898 23.7576 44.46C24.107 43.8514 24.4733 43.2484 24.8453 42.651C25.3863 41.7832 25.9667 40.9435 26.4739 40.0531C26.8515 39.3825 27.1276 38.6781 27.832 38.2892C27.9785 38.2104 28.1701 37.8497 28.1589 37.6806C28.1307 37.0213 28.4914 36.5028 28.8351 35.9675C29.7481 34.5135 30.6892 33.0765 31.5739 31.6057C32.2333 30.5181 32.8362 29.3966 33.4223 28.2695C34.3296 26.5169 35.1637 24.7361 36.0766 22.9892C36.8374 21.5296 37.6771 20.1039 38.4773 18.6612C38.6633 18.3287 38.7929 17.9624 38.9845 17.6356C39.3338 17.0269 39.6382 16.3507 40.089 15.8548C40.5849 15.3025 40.9061 14.8348 40.9794 14.0853C41.0245 13.6682 41.3513 13.1611 41.6275 12.761C41.8078 12.5017 42.005 12.2594 42.2135 12.0171L42.5235 11.6621C42.6362 11.5381 42.7095 11.4648 42.9067 11.2112C43.0983 10.952 43.3124 10.7378 43.5378 10.5462C43.7689 10.3377 43.9999 10.2645 44.231 10.1236C44.6818 9.86436 45.0988 9.57133 45.5779 9.14868C45.8371 8.92326 46.1639 8.70911 46.4908 8.51751C46.6542 8.42171 46.8176 8.32592 46.9754 8.25829C47.0994 8.25829 47.2403 8.27518 47.3812 8.31462C47.6968 8.39352 48.0518 8.5795 48.2941 8.8331C48.5533 9.09232 48.6322 9.35155 48.7055 9.61641C48.7844 9.88691 48.8633 10.2025 48.8971 10.5857C48.9365 10.9632 48.8915 11.4141 48.8802 11.8311L48.8408 13.0878L48.8295 13.9895L48.8464 15.6068L49.1281 24.398C49.162 25.5476 49.1394 26.6973 49.1338 27.8525C49.1225 29.6446 49.0718 31.431 48.9985 33.2174L48.8464 36.7846C48.8464 37.6524 48.5195 38.2273 48.2265 38.6105C47.894 39.0557 47.1558 39.4445 46.5753 39.4389C46.102 39.4389 45.5159 39.3262 44.8565 38.9148C44.4395 38.633 44.0281 38.3682 43.6055 38.1146C43.1885 37.8666 42.7714 37.6186 42.3544 37.3707C42.0107 37.1622 41.6782 36.9424 41.3513 36.717C41.0245 36.4916 40.7032 36.2605 40.3764 36.0238L40.1397 35.8435L40.0157 35.7533L40.0045 35.7308L39.9481 35.6406C39.8974 35.5674 39.8129 35.4716 39.7227 35.5166C39.6438 35.5617 39.6269 35.6688 39.5931 35.7477L38.4942 38.1089C38.3138 38.5146 38.1617 38.9486 37.925 39.3205C36.2795 41.9128 35.0904 44.7587 33.5463 47.4073C32.3009 49.5544 30.9371 51.6282 29.6072 53.7133C28.5759 55.3306 27.5108 56.9142 26.4626 58.5146C26.395 58.6161 26.3555 58.7457 26.2823 58.8528C25.6624 59.7544 25.0932 59.8277 24.7044 59.0331C24.3663 58.323 24.3888 57.5228 24.8734 56.6662C25.4088 55.7251 25.9836 54.8009 26.5359 53.8767L26.4288 53.826Z" fill="#69B9CB"/>
<path d="M21.7338 21.3822L28.6371 23.7434C29.0541 23.8899 29.2175 24.3915 28.9639 24.7465L11.483 49.824C11.2688 50.1283 11.3477 50.5453 11.6521 50.7482L20.9842 57.0936C21.2885 57.2965 21.7056 57.2176 21.9084 56.9133L39.102 31.1878C39.3387 30.8384 39.8346 30.7933 40.1277 31.0976L45.4249 36.5414C45.825 36.9527 46.5238 36.6935 46.5633 36.1244L48.4398 8.03196C48.4736 7.52478 47.9439 7.16413 47.4875 7.39518L21.6605 20.1706C21.1308 20.4185 21.1815 21.1906 21.7338 21.3822Z" fill="white"/>
<path d="M29.0267 22.6902C29.3141 22.8649 29.5395 23.0452 29.7255 23.2312C29.9171 23.4341 30.0692 23.744 30.0918 24.0596C30.1312 24.3921 30.0298 24.6513 29.9058 24.9106C29.7875 25.1867 29.6128 25.4741 29.393 25.7502L28.7562 26.5561L28.2772 27.1252L27.3642 28.1734C26.2597 29.4019 25.1664 30.6079 24.3944 32.1126C24.1972 32.5014 23.8872 32.8565 23.628 33.2284C23.1659 33.9046 22.6869 34.5753 22.236 35.2628C22.0275 35.5727 21.9148 35.9785 21.6781 36.2377C20.5173 37.5113 19.4916 38.875 18.7139 40.4191C17.6995 41.3433 17.1304 42.5437 16.4372 43.6989C15.7441 44.8542 14.91 45.9362 14.3465 47.1647C14.1944 47.4859 13.9802 47.8353 13.7492 48.1002C13.3096 48.5848 12.808 49.2329 12.6051 49.4808C12.4755 49.6781 12.2501 49.8471 12.2614 50.1063C12.267 50.3712 12.5432 50.4783 12.7348 50.6135C13.2814 50.9573 13.8337 51.3067 14.3859 51.6561C16.3583 52.9071 18.2405 54.2934 19.9988 55.8263L20.2862 56.0799C20.3764 56.1588 20.4665 56.2264 20.5567 56.3053C20.7145 56.4293 20.8723 56.5533 21.0357 56.6716C21.2104 56.7787 21.4471 56.7787 21.6105 56.6603C21.8979 56.3842 22.0839 56.0066 22.3206 55.6797C23.1377 54.4568 23.9154 53.1269 24.7325 51.8702C25.9216 50.0275 27.0543 48.1734 28.0856 46.2405C29.4606 43.6595 30.9032 41.101 32.391 38.5764C33.1461 37.2915 34.076 36.0799 34.9495 34.857L36.2794 33.0086L36.95 32.09L37.9024 30.7432C38.0771 30.5008 38.2744 30.3036 38.466 30.1458C38.6688 29.988 38.8322 29.8697 39.0858 29.7852C39.3282 29.7006 39.6156 29.6837 39.8692 29.7344C40.134 29.7852 40.3256 29.8866 40.5341 30.0162C40.968 30.2585 41.3794 30.7601 41.7795 31.1715L42.6474 32.107L43.8984 33.4256L44.6029 34.1413C44.7719 34.3104 44.9354 34.4738 45.0988 34.6147C45.296 34.7668 45.6003 34.5414 45.5496 34.2878L45.5496 33.5778L45.544 33.2453L45.5384 33.0932L45.544 32.7156L45.6398 29.5428L46.4569 10.7601C46.4964 9.95426 46.4569 10.1853 46.4457 10.1064C46.4231 10.0613 46.3498 10.0782 46.3217 10.1402L46.3048 10.1684L46.1019 10.2698L38.5449 13.8821L27.7756 19.1737C26.7556 19.6753 25.73 20.1599 24.7212 20.6727C24.214 20.932 23.7181 21.1912 23.2222 21.4617L22.8503 21.6646L22.6643 21.7716L22.5741 21.828L22.5291 21.8506L22.5065 21.8618L22.5009 21.8674L21.9824 20.8193L21.9768 20.8136C21.9317 20.7347 21.9148 20.7404 21.9374 20.7516C21.9543 20.7573 21.9824 20.7629 21.9712 20.7629C21.9599 20.7629 21.9317 20.7798 21.9317 20.7798C21.9373 20.7742 21.9486 20.7629 21.9599 20.7291C21.9768 20.6784 21.9825 20.684 21.9543 20.746C21.943 20.7798 21.9261 20.7854 21.9317 20.7798C21.9373 20.7742 21.943 20.7685 21.9543 20.7685L21.8979 20.7798C21.8585 20.7855 21.8247 20.7855 21.7796 20.7855C21.6274 20.7686 21.4696 20.6446 21.4583 20.4191C21.4527 20.3121 21.4921 20.1825 21.5823 20.0697C21.6668 19.9627 21.7457 19.8612 21.8472 19.7598C22.3882 19.1963 22.9123 18.706 23.7745 18.3848C25.0255 17.9227 26.1414 17.0323 27.4882 16.8125C27.6798 16.7787 27.9109 16.6491 28.0912 16.5251C31.3879 14.3893 35.0115 12.8621 38.5448 11.1771C39.7001 10.6305 40.8159 9.98807 41.9599 9.40762C42.6981 9.03005 43.442 8.65812 44.1915 8.29182L46.0399 7.42396C46.3893 7.2549 46.7556 7.08018 47.0824 6.97875C47.4206 6.88858 47.6854 6.75899 48.0236 6.77026C48.4744 6.7928 48.9083 7.19292 48.9309 7.57612C48.9929 7.94242 49.0154 8.41577 48.8689 8.92295C48.8238 9.09201 48.7674 9.24982 48.6998 9.40761C48.604 9.63866 48.5871 10.1628 48.666 10.3656C48.9872 11.0362 48.897 11.7801 48.8351 12.5296C48.6716 14.5527 48.4744 16.5758 48.3448 18.5989C48.249 20.0923 48.2039 21.6026 48.1926 23.1016C48.1757 25.429 48.232 27.7508 48.1982 30.0838C48.187 31.0531 48.1532 32.0337 48.1137 33.0086L48.001 35.3078C47.9841 35.7305 47.9559 36.1531 47.8601 36.4856C47.7587 36.8012 47.6403 37.0773 47.5164 37.2802C47.398 37.4887 47.3304 37.6578 47.0937 37.8607C46.8796 38.0523 46.5753 38.1988 46.2766 38.2495C45.8258 38.3171 45.6003 38.2382 45.251 38.1481C44.9128 38.0579 44.4845 37.8438 44.0844 37.4211C43.8647 37.1788 43.6618 36.9421 43.4645 36.6998C43.2109 36.3898 42.9799 36.1137 42.7545 35.8545C42.6418 35.7305 42.5291 35.6065 42.4163 35.4825C42.298 35.3529 42.2698 35.3247 42.1853 35.2515C41.9148 34.9922 41.6049 34.7838 41.2104 34.6034C40.9906 34.5076 40.7539 34.3273 40.5341 34.1188C40.4214 34.0173 40.3143 33.899 40.2073 33.7919L40.0495 33.6229L39.9762 33.5383C39.9649 33.5271 39.9706 33.5327 39.9706 33.5214L39.9255 33.3185C39.9086 33.2227 39.8635 33.065 39.7565 33.003C39.6325 32.9241 39.5479 32.9861 39.4465 33.0762C39.4014 33.1213 39.362 33.1833 39.3338 33.2565L39.3169 33.3073L39.2493 33.4538C39.2042 33.5552 39.1591 33.6679 39.1197 33.775C38.945 34.2653 38.4941 34.8063 38.1053 35.2289C36.3809 37.1112 34.9946 39.2526 33.6646 41.4279L28.3223 50.343C27.6235 51.5039 26.8683 52.6423 26.1357 53.7919L24.3099 56.5758L23.5716 57.6747C23.2898 58.1368 22.9235 58.4805 22.5629 58.6834C22.1966 58.9032 21.6781 59.0272 21.2329 58.9877C20.8103 58.9596 20.3763 58.8187 19.9255 58.5256L18.2011 57.3197L16.9726 56.4518L14.5212 54.6992C13.8449 54.2146 13.1631 53.713 12.4586 53.3129L12.0416 53.0762L11.8331 52.9579L11.495 52.7437C11.0047 52.4225 10.4243 52.1125 10.1143 51.6899C9.80437 51.3236 9.59023 50.7939 9.59023 50.2529C9.59023 49.7344 9.73111 49.2779 10.0805 48.7595L10.5877 48.0607L10.9709 47.5422L11.5344 46.8209C12.9489 45.0345 14.1267 43.1016 15.2989 41.1743C15.5694 40.7234 15.8117 40.2444 16.1329 39.833C18.3589 36.9646 20.1622 33.8088 22.2924 30.8784C23.1546 29.6894 24.045 28.5285 24.9354 27.3676L26.2879 25.6319L26.6035 25.2374L26.688 25.1754L26.8796 25.0063C26.9528 24.9444 26.9754 24.8317 26.9303 24.764C26.8852 24.7077 26.812 24.6682 26.7387 24.6175L26.6091 24.533L26.5302 24.4879L26.271 24.3752L25.2059 23.93L23.0757 23.0396C22.9405 22.9832 22.7827 22.9607 22.6474 22.9043C21.4696 22.3915 21.2329 21.8167 22.0388 21.3264C22.7545 20.8925 23.6787 20.8249 24.772 21.2081L28.5815 22.617C28.6942 22.662 28.8069 22.7071 28.9083 22.7635L29.0267 22.6902Z" fill="#69B9CB"/>
</svg>
