<svg width="89" height="135" viewBox="0 0 89 135" fill="none" xmlns="http://www.w3.org/2000/svg">
<path d="M42.0207 91.8731C41.8864 91.6257 41.7168 91.3288 41.5542 91.0249C41.4835 90.8906 41.3563 90.7351 41.321 90.6433C41.2432 90.3181 41.0594 90.092 40.8403 89.8517C40.7273 89.7174 40.6142 89.5265 40.5011 89.364C40.282 89.0601 40.077 88.7915 39.766 88.6713C39.448 88.5653 39.1582 88.3391 38.8896 87.9928C38.72 87.7808 38.4655 87.6394 38.2606 87.4557C37.9143 87.1305 37.4973 86.8832 37.1509 86.5792C36.8753 86.3248 36.5714 86.1269 36.2533 85.9431C35.9423 85.7452 35.6172 85.5827 35.2426 85.4696C34.8609 85.3424 34.5005 85.1586 34.1047 85.0314C33.716 84.8971 33.3343 84.7133 32.9314 84.6285C32.7901 84.5932 32.6204 84.5084 32.5427 84.4306C32.1752 84.056 31.532 84.2751 31.1079 84.0348C31.1008 84.0277 30.9383 84.0772 30.8959 84.1196C30.5213 84.5154 29.7721 84.4801 29.1218 84.4872C28.6695 84.5296 28.2101 84.4872 27.7719 84.6144C27.5245 84.6851 27.2489 84.7345 26.9874 84.7628C26.5986 84.784 26.2452 84.9254 25.8848 85.0243C25.5243 85.1233 25.1921 85.3 24.867 85.4837C24.5631 85.6534 24.245 85.7876 23.927 85.9431C23.6089 86.0916 23.2555 86.1622 22.9304 86.2895C22.7396 86.3531 22.5982 86.4308 22.4993 86.5863C22.2802 86.8973 21.9762 87.1235 21.5946 87.3284C21.4108 87.4344 21.1988 87.5546 21.0504 87.7172C20.8313 87.9363 20.6546 88.0352 20.4567 87.9787C20.2729 87.9221 20.1315 88.0493 19.9972 88.2755C19.7711 88.6855 19.5308 89.0954 19.2622 89.4488C18.9583 89.8517 18.7462 90.2404 18.5342 90.6645C18.407 90.8906 18.2939 91.0885 18.0889 91.2723C17.8133 91.5833 17.5942 91.9861 17.5871 92.4102C17.6295 92.9827 17.2337 93.5057 17.2196 94.0782C16.8945 94.5871 16.9581 95.202 16.8591 95.7674C16.739 96.969 16.746 98.1917 16.9934 99.3791C17.0217 99.6336 17.1489 99.8668 17.2196 100.107C17.7214 101.577 18.407 102.963 19.3117 104.235C19.8488 105.048 20.5415 105.783 21.3543 106.334C21.8914 106.631 22.365 107.027 22.8809 107.387C23.0364 107.5 23.199 107.634 23.3757 107.74C23.5595 107.832 23.7432 107.91 23.9199 107.952C24.5277 108.129 25.0437 108.44 25.6374 108.596C26.0049 108.85 26.4997 108.935 26.9591 109.027C27.2065 109.069 27.468 109.083 27.7153 109.126C28.4857 109.225 29.2632 109.288 30.0477 109.253C30.2527 109.246 30.4577 109.26 30.6556 109.253C30.8605 109.239 31.0584 109.218 31.2634 109.189C32.6699 108.984 34.0269 108.56 35.3486 108.023C35.6172 107.903 35.8716 107.726 36.1402 107.578C36.4088 107.444 36.6562 107.26 36.9036 107.104C37.1509 106.942 37.4266 106.829 37.6881 106.701C37.8365 106.631 38.0203 106.511 38.1475 106.383C38.4514 106.101 38.7412 105.832 39.0451 105.571C39.1935 105.443 39.3561 105.316 39.5045 105.182L39.9215 104.751C40.1689 104.489 40.494 104.242 40.7414 104.072C41.1655 103.811 41.5118 103.429 41.745 102.871C41.8369 102.644 41.9783 102.439 42.056 102.213C42.3882 101.302 42.6285 100.369 42.784 99.4215C42.8618 98.9126 43.0243 98.4038 43.1021 97.902C43.2293 97.2588 43.4979 97.0538 43.8725 97.1316C44.2895 97.2164 44.6287 97.5698 44.9397 98.0928C45.0457 98.2977 45.1376 98.5522 44.9962 98.9339C44.7771 99.4922 44.7489 100.058 44.7065 100.665C44.6994 100.976 44.5863 101.408 44.4591 101.74C44.2541 102.192 44.0704 102.644 43.8937 103.104L43.2646 104.433C43.0384 104.828 42.784 105.196 42.5225 105.542C42.261 105.889 41.9359 106.171 41.6319 106.447C41.1584 106.892 40.6 107.267 40.1124 107.705C39.5681 108.08 39.0734 108.532 38.4938 108.892C37.8718 109.359 37.1509 109.769 36.43 109.988C36.2038 110.037 35.9494 110.186 35.702 110.285C35.3416 110.447 34.9811 110.61 34.5994 110.716C34.2248 110.822 33.8573 110.949 33.4686 110.928C33.3343 110.928 33.1293 110.985 32.9738 111.048C32.5639 111.211 32.1398 111.317 31.7087 111.359C31.2775 111.409 30.8464 111.479 30.4082 111.479C29.3622 111.536 28.3161 111.451 27.2913 111.31C25.9625 111.175 24.655 110.815 23.404 110.327C23.0506 110.165 22.7113 109.981 22.372 109.797C22.0399 109.599 21.7289 109.366 21.3967 109.168C21.0433 108.97 20.7323 108.695 20.3931 108.454C20.0538 108.221 19.7428 107.967 19.4248 107.733C19.0572 107.486 18.7392 107.182 18.4635 106.85C18.1737 106.532 17.891 106.221 17.6012 105.903C17.0075 105.316 16.5764 104.623 16.1735 103.888C15.3678 102.333 14.8306 100.637 14.6469 98.9056C14.5833 98.5734 14.6186 98.22 14.654 97.902C14.7105 97.5274 14.654 97.2022 14.5409 96.9478C14.3571 96.5591 14.3712 96.0784 14.4702 95.612C14.6257 95.1313 14.7246 94.6578 14.8165 94.1772C14.9437 93.7036 15.0285 93.223 15.1275 92.7212C15.283 92.1558 15.4809 91.5409 15.7989 91.0178C16.0534 90.5514 16.322 90.1273 16.5128 89.6396C16.5481 89.5336 16.6188 89.3922 16.6966 89.3004C17.0288 88.8622 17.4033 88.4593 17.7073 88.007C18.0395 87.5758 18.3928 87.1588 18.7604 86.7489C19.8418 85.6322 21.1705 84.7981 22.5417 84.1126C22.7396 84.0207 22.987 83.9429 23.1354 83.8299C23.4605 83.5613 23.8563 83.4128 24.245 83.2644C24.4429 83.1937 24.6408 83.1231 24.8458 83.0665C25.0508 83.017 25.2557 82.9746 25.4536 82.9252C27.4397 82.4375 29.4894 82.2325 31.532 82.4445C31.8288 82.4799 32.1328 82.5082 32.4296 82.5576L33.3202 82.7555C33.9209 82.8686 34.4863 83.1019 35.0659 83.2856C35.1507 83.3139 35.2426 83.3634 35.3133 83.3917C35.801 83.5189 36.2887 83.7097 36.7481 83.95L38.091 84.7416C38.4655 84.9819 38.8401 85.2364 39.1935 85.5261C39.5257 85.8371 39.8579 86.1481 40.1901 86.452C41.3916 87.696 42.4306 89.0671 43.2858 90.5726C44.0845 92.0073 44.664 93.6047 44.8902 95.2656C44.9609 95.5766 44.9326 95.9159 44.9256 96.2269C44.9044 96.658 44.6499 97.1386 44.452 97.1033C44.3601 97.0891 44.2329 96.9478 44.1764 96.7923C43.9643 96.1915 43.7947 95.6261 43.4342 95.2232C43.2717 95.0324 43.1233 94.6931 43.0809 94.262C42.9678 93.6754 42.784 93.1594 42.4377 92.7283C42.2751 92.5374 42.0631 92.3113 42.0207 91.8731Z" fill="#A6C5F3"/>
<path d="M40.2684 49.3024C40.0493 48.6946 39.8443 48.0656 39.5263 47.4931C39.2648 46.8852 38.8973 46.341 38.5651 45.7756C38.2611 45.2738 37.8865 44.8285 37.5332 44.362C37.1232 43.9521 36.7133 43.5139 36.2185 43.1746C35.957 43.005 35.7096 42.7788 35.4552 42.5739C34.9958 42.1993 34.4798 41.9165 33.9922 41.5914C33.766 41.443 33.4762 41.3794 33.2712 41.2451C33.0097 41.0825 32.7482 40.92 32.4867 40.7645C32.2111 40.6302 31.9354 40.503 31.6527 40.3828C31.1014 40.1213 30.5006 39.9587 29.8999 39.8245C29.4687 39.5983 29.0023 39.4923 28.5358 39.4004C28.0693 39.3014 27.5958 39.2378 27.1151 39.2096C26.161 39.0894 25.1856 39.0399 24.2385 39.1035C23.9911 39.1389 23.7014 39.1671 23.4469 39.1601C21.8991 39.0823 20.3653 39.4145 18.8811 39.8527C17.2838 40.3263 15.7712 41.0048 14.2941 41.761C13.9124 41.9801 13.5025 42.1922 13.142 42.4749C12.7815 42.7576 12.414 43.0333 12.0677 43.3301C11.679 43.7118 11.2832 44.0793 10.9227 44.4822C10.5905 44.9062 10.2159 45.302 9.91199 45.7473C8.9649 46.9983 8.31466 48.4402 7.92593 49.9244C7.42411 51.9176 7.38877 54.0026 7.79164 55.9816L7.94006 56.7378L8.1521 57.487C8.22278 57.7344 8.27932 57.9888 8.36413 58.2362L8.64685 58.9642C9.43138 60.8937 10.6612 62.6607 12.2232 64.0884C13.4106 65.1486 14.7676 66.025 16.2024 66.7106C17.5735 67.2901 18.9871 67.7637 20.4572 68.004C21.5386 68.2019 22.6341 68.315 23.7296 68.322C24.8252 68.3644 25.9277 68.2655 27.0021 68.1029C27.5392 68.0181 28.0764 67.905 28.6065 67.7778C28.875 67.7142 29.1365 67.6364 29.3981 67.5587L30.013 67.3679L30.3876 67.2477L30.5784 67.1912C30.6208 67.2265 30.6632 67.2901 30.7056 67.3325L33.1299 70.294C34.1052 71.4955 33.8367 71.0926 33.8861 71.128C33.8791 71.0997 33.8791 71.0997 33.8791 71.0997L34.3314 65.4949L34.3526 65.2334C34.395 65.1698 34.4869 65.1274 34.5505 65.0708L34.9746 64.7598L35.3916 64.4488C35.6531 64.2227 35.9287 64.0177 36.1761 63.7845C36.685 63.3251 37.1656 62.8303 37.6109 62.3073C38.5085 61.2683 39.2224 60.088 39.7737 58.837C40.3815 57.4234 40.7702 55.8826 40.7137 54.3489C40.6996 53.9177 40.7844 53.7835 40.9469 53.946C41.2155 54.2287 41.5618 54.4691 41.6466 55.2748C41.682 55.5504 41.7032 55.819 41.682 56.0946C41.6749 56.3774 41.6325 56.6742 41.5265 56.9923C41.2438 57.9252 41.0317 58.9571 40.4522 59.7558C40.3744 59.8689 40.2896 60.0456 40.226 60.1869C39.6535 61.5086 38.8195 62.7102 37.8088 63.7491C37.3141 64.2792 36.7628 64.7528 36.2044 65.198C35.9358 65.4242 35.5824 65.6504 35.4269 65.7705C35.3704 65.8766 35.3916 65.9826 35.3704 66.1522L35.328 66.6823C35.2573 67.6082 35.222 68.5341 35.1654 69.46L35.0382 71.2905L34.8968 73.001L34.8332 73.842L34.8191 74.0541C34.8262 74.1177 34.7979 74.0753 34.7767 74.047L34.7131 73.9622L34.4516 73.6371C34.1901 73.3119 33.9215 73.008 33.66 72.6688C33.4055 72.3436 33.137 71.962 33.0168 71.6651C32.9673 71.545 32.7482 71.2764 32.6351 71.2128C32.2181 70.9513 31.893 70.5131 31.5608 70.0819L30.2957 68.4563L30.2391 68.3786C30.2109 68.3786 30.1826 68.3927 30.1543 68.3998L29.9776 68.4493L29.497 68.5835C29.1365 68.6825 28.7761 68.7673 28.4086 68.838C27.3272 69.0641 26.2317 69.2267 25.1361 69.3115C24.2809 69.3893 23.4257 69.3469 22.5634 69.361C21.7082 69.2833 20.8389 69.2621 19.9978 69.0642C19.6444 68.9935 19.284 68.9299 18.9306 68.8451L17.8845 68.5341C17.1777 68.3503 16.5204 68.0181 15.8349 67.7637C15.5309 67.6223 15.22 67.488 14.916 67.3396C14.3506 67.0781 13.7852 66.7388 13.3258 66.3713C12.8027 65.9826 12.4494 65.6292 11.8769 65.3747C11.5517 65.2404 11.1701 64.8517 10.8591 64.5337C10.6683 64.3287 10.4633 64.1308 10.2937 63.9046L9.81304 63.2261C9.41018 62.696 9.14867 62.1377 8.64685 61.6217C8.3712 61.3461 8.1733 60.8442 7.98954 60.4555C7.26155 58.6886 6.69612 56.8509 6.49822 54.9426C6.25085 52.3628 6.64665 49.6558 7.84818 47.2952C8.30053 46.3622 8.87302 45.4929 9.50913 44.6801C10.4916 43.3937 11.7284 42.3406 13.0218 41.4147C14.3365 40.4959 15.7924 39.8174 17.2767 39.252C17.8775 39.0753 18.4782 38.8774 19.0649 38.6865C20.429 38.2837 21.8425 38.0434 23.2561 38.0504C24.9594 38.0009 26.6557 38.0999 28.3379 38.3544C28.7266 38.425 29.1295 38.4816 29.5111 38.5805C32.1333 39.3509 34.6919 40.4959 36.8122 42.277C38.5085 43.7259 39.8867 45.5494 40.8126 47.5708C41.5124 49.1399 41.9152 50.822 42.0283 52.5113C42.0354 52.6243 42.0424 52.7374 42.0495 52.8505C42.0566 53.8259 41.8657 54.1086 41.5194 53.6704C41.3639 53.4795 41.2438 53.2392 41.1519 52.9424C41.06 52.6526 41.0105 52.3063 40.9257 51.9105C40.8056 51.027 40.5865 50.1577 40.2967 49.3095L40.2684 49.3024Z" fill="#A6C5F3"/>
<path d="M61.2586 51.1477C61.2586 45.8397 55.4277 41.5283 48.2326 41.5283C41.0375 41.5283 35.2065 45.8326 35.2065 51.1477C35.2065 55.4025 38.9454 59 44.1262 60.2723C44.3382 60.3217 44.4866 60.5126 44.4796 60.7317C44.4089 62.0887 44.3311 63.7426 44.2817 64.8876C44.2605 65.3258 44.8118 65.5378 45.0945 65.1985L48.6779 60.8942C48.7627 60.7953 48.8758 60.7388 49.003 60.7317C55.8376 60.4419 61.2586 56.2648 61.2586 51.1477Z" fill="#A6C5F3"/>
<path d="M60.0012 48.0875C59.6902 47.2464 59.1672 46.4831 58.6018 45.7551C58.3473 45.4371 58.0858 45.112 57.7748 44.8504C57.6193 44.7162 57.4709 44.5748 57.3013 44.4546C57.1246 44.3415 56.9479 44.2355 56.7571 44.1366C56.5662 44.0376 56.3825 43.8821 56.1775 43.7832C55.81 43.5924 55.4636 43.3662 55.0749 43.2178C54.8982 43.1471 54.6932 43.1188 54.5448 43.0269C54.1702 42.8078 53.7674 42.6523 53.3645 42.4968C52.9545 42.3625 52.5305 42.2777 52.0993 42.2141C51.4703 41.9526 50.7918 41.9031 50.1133 41.8961C49.4418 41.8395 48.7492 41.8183 48.0848 41.9031C47.9081 41.9385 47.7102 41.9526 47.5264 41.9455C46.438 41.8607 45.3566 42.0728 44.2964 42.3343C43.1656 42.6382 42.0701 43.0057 40.9675 43.4015C40.6777 43.5217 40.395 43.663 40.1052 43.8115C39.8225 43.967 39.561 44.1649 39.2995 44.3345C38.9814 44.5395 38.7058 44.8151 38.416 45.0554C38.1333 45.3098 37.8859 45.5996 37.6173 45.8611C36.8893 46.681 36.3239 47.6352 36.027 48.66C35.6524 50.0312 35.6454 51.4659 36.0695 52.7735C36.2603 53.4379 36.5289 54.1023 36.8681 54.7242C37.5678 55.9682 38.5997 57.0566 39.8225 57.8906C40.7413 58.5197 41.7661 59.0003 42.8263 59.3466C43.0384 59.4102 43.2433 59.488 43.4554 59.5374L44.1904 59.7212C44.6852 59.806 45.0739 60.2442 45.0456 60.7531L45.0244 61.8274L44.9891 63.0572L44.9749 63.658L44.982 63.8206C44.9891 63.8912 44.9679 63.9619 45.0103 64.0185C45.0527 64.075 45.1516 64.0679 45.194 63.9972L45.3071 63.8276L45.3354 63.7923L45.3495 63.7711L45.4132 63.6863L45.6888 63.3399L47.9222 60.5481L48.0565 60.3785C48.2686 60.1099 48.5937 59.9403 48.9329 59.912L49.5549 59.8414C49.9012 59.806 50.2405 59.7636 50.5797 59.6929C50.9402 59.6223 51.3007 59.5869 51.6541 59.495C52.9758 59.2335 54.2762 58.8165 55.4636 58.1875C56.2976 57.721 57.1104 57.198 57.8031 56.5548C58.4887 55.9116 59.1036 55.1907 59.563 54.385C60.0789 53.4803 60.4041 52.4554 60.3546 51.4377C60.3475 51.155 60.4323 51.0631 60.5949 51.1691C60.8705 51.3599 61.1745 51.5296 61.3017 52.1162C61.3299 52.5049 61.3936 52.9007 61.1886 53.346C61.0472 53.6711 60.9624 54.0245 60.7928 54.3426C60.6514 54.6748 60.4747 54.9857 60.2062 55.226C60.1355 55.2967 60.0648 55.4169 60.0153 55.5158C59.0188 57.3252 57.2306 58.5762 55.393 59.4102C55.0961 59.5586 54.7922 59.7 54.4812 59.8201C54.1702 59.9474 53.8734 60.0887 53.5482 60.1806C53.1383 60.3078 52.7284 60.4562 52.3043 60.534C51.6965 60.6824 51.0674 60.7531 50.4525 60.852C49.9931 60.9227 49.5125 61.0005 49.1167 60.8662C49.039 60.8238 48.8269 60.8803 48.8057 60.9793C48.7916 61.0287 48.7774 61.0711 48.7704 61.1136C48.6856 61.3609 48.4453 61.6295 48.2403 61.8769L46.2189 64.2446C45.9786 64.5132 45.604 65.0503 45.293 65.3331C45.1234 65.4744 45.0103 65.6158 44.7841 65.6582C44.5721 65.7006 44.3176 65.6158 44.1692 65.4603C44.042 65.3331 44.0066 65.1917 43.9713 65.0504C43.936 64.9019 43.8936 64.7323 43.8936 64.5132L43.9006 63.5732L43.8936 62.9159L43.8865 61.5942C43.8865 61.3256 43.8936 60.951 43.8865 60.9439C43.8936 60.845 43.7946 60.7743 43.7027 60.7743L43.6462 60.7602L43.4836 60.7178L43.1585 60.6329C42.9394 60.5835 42.7274 60.5057 42.5153 60.4421C42.2892 60.3644 42.0488 60.3361 41.8297 60.2371C41.4198 60.0746 40.9745 59.9332 40.6282 59.6859C40.2395 59.4314 39.9426 59.2335 39.4974 59.1346C39.2429 59.0851 38.9319 58.8448 38.6846 58.661C38.3665 58.4066 38.0909 58.1097 37.8223 57.8199C37.5113 57.4524 37.2498 57.1061 36.8328 56.7951C36.5925 56.6396 36.4016 56.3003 36.2391 56.0318C35.5606 54.8302 35.0163 53.551 34.769 52.1657C34.465 50.2997 34.8184 48.2783 35.8291 46.6457C36.02 46.3205 36.2179 46.0025 36.4653 45.7198C36.6914 45.4229 36.9388 45.1331 37.2074 44.8787C38.006 44.0306 38.9602 43.3591 39.9568 42.8078C40.9533 42.2353 42.0276 41.8537 43.109 41.5356C43.5402 41.4367 43.9713 41.3094 44.3954 41.1964C45.3707 40.9207 46.3744 40.7935 47.378 40.8076C48.5866 40.7864 49.7811 40.8359 50.9897 40.9207C51.2653 40.956 51.5551 40.9773 51.8237 41.0409C53.7037 41.5073 55.6121 42.0516 57.2589 43.1683C58.5876 44.0588 59.7397 45.2392 60.5525 46.6315C61.1815 47.7058 61.5773 48.9145 61.6763 50.1513C61.6763 50.2291 61.6975 50.3139 61.6975 50.3987C61.6975 51.1125 61.4996 51.3104 61.1603 50.9995C60.8423 50.7309 60.715 50.3422 60.5808 49.8121L60.4959 49.3597L60.3617 48.9215L60.2274 48.4833L60.0365 48.0663L60.0012 48.0875Z" fill="#A6C5F3"/>
<path d="M38.6496 111.528C38.8263 111.627 39.0454 111.747 39.2645 111.867C39.3634 111.924 39.5119 111.959 39.5543 112.023C39.6956 112.235 39.8865 112.32 40.1197 112.39C40.2469 112.433 40.3671 112.539 40.4872 112.623C40.7063 112.786 40.9184 112.906 41.1869 112.885C41.4484 112.864 41.717 112.963 41.9715 113.168C42.127 113.295 42.3319 113.373 42.5086 113.479C42.8125 113.662 43.1377 113.832 43.4062 114.044C43.8445 114.398 44.2756 114.694 44.8057 114.928C45.357 115.175 45.8659 115.557 46.3818 115.896C46.4737 115.952 46.5726 116.058 46.6009 116.143C46.7352 116.532 47.2724 116.511 47.4632 116.836C47.4703 116.843 47.6046 116.843 47.647 116.815C48.0922 116.567 48.5799 116.878 49.011 117.133C49.3079 117.309 49.5906 117.521 49.9157 117.656C50.0995 117.734 50.2903 117.84 50.46 117.96C50.9476 118.299 51.4565 118.56 52.0149 118.758C52.5308 118.935 52.9973 119.274 53.3719 119.684C53.4779 119.804 53.5839 119.875 53.7324 119.875C54.0504 119.875 54.3119 120.038 54.5664 120.271C54.6936 120.384 54.8491 120.49 55.0046 120.568C55.2166 120.681 55.3297 120.801 55.3085 120.992C55.2802 121.176 55.4145 121.232 55.6124 121.289C55.9587 121.388 56.3404 121.458 56.6373 121.649C56.9694 121.861 57.3158 121.96 57.648 122.144C57.8247 122.243 57.9872 122.335 58.1215 122.504C58.3335 122.773 58.6233 122.971 58.9838 122.992C59.21 123.006 59.4079 123.105 59.6058 123.218L57.9448 123.197C58.1427 123.07 58.3547 122.957 58.5032 122.801C58.9414 122.709 59.2029 122.363 59.4785 122.137C60.0793 121.656 60.461 121.119 60.7225 120.455C60.7649 120.306 60.8002 120.165 60.8144 120.002C60.885 119.628 60.8992 119.225 60.9345 118.815L61.4575 120.2C60.8992 119.691 60.362 119.154 59.8319 118.61C59.2806 118.037 58.7647 117.437 58.1074 116.963C57.7045 116.673 57.3511 116.313 57.0401 115.91C56.8493 115.663 56.6161 115.38 56.3616 115.232C55.9093 114.97 55.669 114.518 55.2802 114.221C55.153 113.86 54.8138 113.634 54.5593 113.359C54.418 113.21 54.2554 113.083 54.114 112.942L52.8136 111.606C52.5874 111.372 52.3895 111.118 52.1562 110.892C51.3505 110.1 50.5448 109.323 49.8309 108.446C49.6825 108.263 49.4987 108.107 49.3291 107.945C48.9969 107.605 48.6506 107.28 48.4598 106.856C48.4032 106.736 48.3043 106.602 48.1983 106.51C47.7035 106.107 47.3996 105.57 47.0038 105.096C46.8271 104.884 46.6999 104.601 46.6433 104.354C46.5514 103.965 46.3535 103.647 46.0213 103.365L45.6326 102.997C45.1025 102.531 44.5583 102.085 44.0424 101.598C43.7667 101.336 43.5405 101.018 43.3214 100.707C43.0458 100.311 43.1235 100.029 43.4274 99.7883C43.7596 99.5267 44.1766 99.4349 44.6431 99.4137C44.8198 99.4066 44.9824 99.4631 45.1096 99.6893C45.2934 100.029 45.5549 100.276 45.9295 100.439C46.1203 100.523 46.3111 100.714 46.4596 100.891C46.8554 101.379 47.3289 101.774 47.7812 102.198C48.2053 102.587 48.5446 103.025 48.8061 103.499C49.2231 104.255 49.7532 104.941 50.3751 105.598C50.7356 105.973 51.1314 106.34 51.3646 106.807C51.4353 106.948 51.5979 107.068 51.718 107.202C52.0785 107.591 52.5096 107.923 52.7217 108.411C52.757 108.496 52.8701 108.595 52.962 108.651C53.4567 108.984 53.8313 109.45 54.2483 109.867C54.7501 110.369 55.2166 110.913 55.7255 111.401L57.7398 113.253C58.1215 113.62 58.4396 114.044 58.8071 114.419C59.1958 114.815 59.5846 115.239 60.0228 115.55C60.5175 115.896 60.8568 116.405 61.3303 116.737C61.7968 117.062 62.1855 117.444 62.5813 117.854L63.1397 118.426L63.168 118.462C63.3093 118.61 63.3729 118.808 63.3517 118.992C63.2457 119.96 63.0195 120.971 62.5248 121.875C62.4046 122.101 62.235 122.313 62.0583 122.476C61.8392 122.667 61.7049 122.865 61.6766 123.098C61.6342 123.451 61.3798 123.727 61.0617 123.897C60.4044 124.264 59.839 124.632 59.3018 125.084L59.1393 125.211C58.9484 125.367 58.6869 125.381 58.482 125.275L58.3265 125.197C58.0226 125.049 57.7328 124.844 57.4571 124.639C57.1673 124.427 56.9129 124.194 56.5595 124.109C56.4818 124.088 56.3828 124.045 56.3263 123.996C55.775 123.48 55.0823 123.204 54.4462 122.844C53.5415 122.335 52.7005 121.734 51.8241 121.183C51.6968 121.105 51.5767 120.978 51.4495 120.949C50.8911 120.815 50.4458 120.441 49.9864 120.144C48.8414 119.402 47.6399 118.758 46.4525 118.101C45.7528 117.712 45.0743 117.302 44.3816 116.9C44.3321 116.871 44.2827 116.815 44.2332 116.801C43.5759 116.617 43.0529 116.143 42.4521 115.839C41.9361 115.578 41.4485 115.224 40.9678 114.892C40.0419 114.256 39.0878 113.684 38.0842 113.175C37.1371 112.687 36.2182 112.157 35.2853 111.634C35.1086 111.535 34.939 111.401 34.7905 111.266C34.5856 111.083 34.4725 110.687 34.5926 110.531C34.6492 110.461 34.7905 110.404 34.9036 110.425C35.3418 110.496 35.7659 110.56 36.1758 110.503C36.3667 110.475 36.6423 110.517 36.8826 110.722C37.2148 110.998 37.5894 111.118 37.9852 111.196C38.2114 111.252 38.4587 111.259 38.6496 111.528Z" fill="#A6C5F3"/>
<path d="M58.5737 115.79C58.5666 115.819 58.5595 115.854 58.5525 115.889C58.5525 115.903 58.5807 115.946 58.5454 115.939C58.4464 115.903 58.4535 115.946 58.4889 116.002C58.503 116.038 58.4747 116.038 58.4535 116.045C58.4182 116.059 58.4111 116.094 58.5242 116.207C58.6373 116.32 58.6655 116.384 58.609 116.398C58.5737 116.405 58.5949 116.455 58.5807 116.476C58.5595 116.518 58.5595 116.568 58.503 116.582C58.4111 116.603 58.3546 116.646 58.3758 116.752C58.397 116.865 58.3051 116.893 58.2556 116.956C58.2485 116.971 58.2061 116.956 58.1567 116.935C57.9234 116.815 58.1355 117.041 57.9729 116.971C57.9658 116.971 58.0224 117.027 58.0577 117.055C58.397 117.345 58.3546 117.402 58.3263 117.465C58.3121 117.508 58.2556 117.522 58.2839 117.6C58.298 117.642 58.2909 117.67 58.2627 117.684C58.1991 117.727 58.192 117.812 58.2556 117.953C58.3192 118.08 58.2485 118.123 58.086 118.087C58.0365 118.08 58.0294 118.087 58.0789 118.151C58.192 118.278 58.1708 118.314 58.1001 118.314C58.0648 118.314 58.0436 118.328 58.0436 118.356C58.0436 118.391 57.9941 118.384 57.8457 118.285C57.7043 118.193 57.7114 118.222 57.7467 118.278C57.8033 118.377 57.8952 118.497 57.8598 118.533C57.8245 118.568 57.881 118.667 57.8739 118.716C57.8669 118.745 57.8598 118.766 57.7891 118.745C57.676 118.709 57.6336 118.738 57.7538 118.872C57.9093 119.049 57.7538 119.013 57.8033 119.119C57.6407 119.077 57.7185 119.204 57.676 119.246C57.5912 119.338 57.5206 119.437 57.4499 119.536C57.4357 119.557 57.4428 119.6 57.4428 119.628C57.4357 119.819 57.3439 119.953 57.2096 120.052C57.1248 120.116 57.0046 120.151 57.0399 120.307C57.0611 120.399 57.0117 120.441 56.9127 120.448C56.8491 120.455 56.7926 120.462 56.8279 120.54C56.8915 120.667 56.729 120.618 56.736 120.702C56.5735 120.639 56.6017 120.717 56.5593 120.745C56.5381 120.759 56.5381 120.794 56.524 120.816C56.4674 120.872 56.4038 120.922 56.3402 120.971C56.3049 120.999 56.2483 121.006 56.2201 121.035C56.1282 121.148 56.0434 121.261 55.8525 121.296C55.8101 121.303 55.8101 121.339 55.7889 121.36C55.7465 121.402 55.7112 121.452 55.5416 121.395C55.4921 121.381 55.4567 121.381 55.4567 121.402C55.4497 121.501 55.2659 121.452 55.167 121.48C55.1246 121.494 55.0044 121.452 54.8842 121.395C54.6793 121.303 54.5874 121.289 54.5733 121.346C54.5662 121.367 54.545 121.381 54.5379 121.402C54.5097 121.494 54.5026 121.6 54.4531 121.671C54.4248 121.713 54.34 121.706 54.2552 121.706C54.1421 121.699 53.9301 121.565 53.6191 121.331C53.2869 121.077 53.0183 120.844 52.771 120.611C52.672 120.519 52.6296 120.462 52.7144 120.483C52.8346 120.512 52.8628 120.476 52.778 120.356C52.7356 120.293 52.7568 120.264 52.7992 120.264C52.9052 120.243 52.9194 120.158 52.9547 120.088C52.9901 120.024 53.089 120.01 53.2586 120.052C53.5272 120.116 53.6968 120.109 53.7887 120.038C53.8453 119.996 53.8735 119.939 54.0573 119.989C54.1139 120.003 54.1068 119.967 54.128 119.96C54.1916 119.925 54.1845 119.833 54.3824 119.904C54.4178 119.918 54.4178 119.897 54.4107 119.876C54.3683 119.755 54.4743 119.734 54.5309 119.685C54.5945 119.621 54.7005 119.586 54.757 119.515C54.8277 119.423 54.8418 119.289 54.9125 119.197C54.9549 119.14 55.0609 119.14 55.1104 119.091C55.167 119.042 55.2376 119.006 55.2094 118.9C55.1811 118.787 55.3295 118.801 55.2942 118.688C55.2659 118.575 55.3083 118.526 55.3649 118.483C55.4921 118.391 55.584 118.271 55.6971 118.165C55.7183 118.144 55.7607 118.137 55.8243 118.151C55.8949 118.165 55.902 118.137 55.8101 118.038C55.6617 117.889 55.6829 117.854 55.7677 117.861C55.9374 117.882 55.9798 117.812 55.9374 117.677C55.9162 117.6 55.9586 117.564 56.0151 117.543C56.0646 117.522 56.1353 117.522 56.0646 117.416C56.0504 117.395 56.0434 117.373 56.0646 117.373C56.2342 117.381 56.1777 117.225 56.2059 117.126C56.2413 116.985 56.3685 116.921 56.4462 116.815C56.4604 116.801 56.5028 116.808 56.4745 116.766C56.3685 116.603 56.4745 116.589 56.5169 116.539C56.6371 116.412 56.6512 116.214 56.6936 116.031C56.7148 115.925 56.7643 115.833 56.7996 115.734C56.7996 115.727 56.8279 115.734 56.8208 115.72C56.7148 115.543 56.8632 115.536 56.8632 115.43C56.8632 115.338 56.941 115.303 57.0046 115.253C57.1248 115.161 57.1813 115.034 57.1884 114.857C57.1954 114.695 57.2378 114.56 57.2732 114.419C57.2802 114.391 57.3156 114.384 57.358 114.384C57.4145 114.384 57.6619 114.511 57.8174 114.631C57.8881 114.688 57.98 114.765 58.0082 114.808C58.1213 114.949 58.2273 115.091 58.4182 115.288C58.5101 115.38 58.5807 115.472 58.5171 115.472C58.4394 115.479 58.4888 115.578 58.5807 115.705C58.6161 115.734 58.7009 115.833 58.5737 115.79Z" fill="#A6C5F3"/>
<path d="M64.9206 124.498C65.0761 124.618 65.2811 124.717 65.479 124.837C65.5709 124.894 65.7052 124.915 65.7476 124.972C65.8889 125.155 66.0727 125.233 66.2847 125.226C66.3978 125.226 66.518 125.311 66.6381 125.325C66.8572 125.396 67.0693 125.353 67.1965 125.184C67.253 125.078 67.3096 125.007 67.3803 124.957C67.4509 124.901 67.5287 124.837 67.6347 124.809C67.7619 124.731 67.8679 124.625 67.974 124.491C68.1719 124.3 68.3344 124.024 68.5464 123.791C68.8857 123.417 69.1543 122.993 69.3592 122.47C69.5713 121.932 69.9317 121.409 70.271 120.879C70.3346 120.787 70.4336 120.688 70.5254 120.66C70.9142 120.533 70.9283 119.996 71.2817 119.826C71.2888 119.819 71.3029 119.685 71.2817 119.635C71.1898 119.395 71.2534 119.155 71.3806 118.922C71.5291 118.695 71.727 118.469 71.9461 118.285C72.0945 118.158 72.25 118.031 72.4126 117.911C72.5822 117.798 72.7448 117.678 72.9002 117.536C73.0769 117.381 73.3172 117.268 73.5363 117.162C74.2007 116.907 74.8298 116.674 75.5012 116.476C75.8122 116.377 76.1444 116.328 76.4624 116.363C76.625 116.37 76.7876 116.391 76.9431 116.419C77.1056 116.455 77.2682 116.518 77.4237 116.575C77.6074 116.653 77.7417 116.66 77.9255 116.632C78.3213 116.575 78.7524 116.681 79.1977 117.041C79.4168 117.176 79.65 117.437 79.8691 117.635C80.166 117.939 80.2437 118.25 80.1589 118.427C80.0812 118.611 80.1377 118.787 80.2861 119.063C80.5052 119.529 80.6466 120.038 80.5971 120.483C80.5335 120.971 80.5547 121.388 80.4558 121.798C80.4063 122.031 80.3568 122.222 80.2084 122.413C79.9964 122.71 79.8479 123.042 79.8903 123.41C79.9398 123.89 79.6006 124.321 79.5087 124.767C79.1765 125.127 79.0987 125.608 78.9008 126.018C78.4838 126.88 78.0739 127.721 77.7205 128.555C77.6428 128.732 77.6074 128.915 77.5509 129.099C77.2187 130.174 76.9077 131.276 76.9148 131.905C76.9218 131.983 76.9077 132.089 76.9289 132.124C76.936 132.153 76.936 132.181 76.936 132.209C76.9501 132.223 76.9572 132.237 76.9643 132.251C76.9784 132.315 77.0632 132.357 77.2187 132.386C77.3106 132.4 77.4661 132.414 77.565 132.478C77.7276 132.506 77.8831 132.562 78.0386 132.64C78.1305 132.668 78.2223 132.697 78.3213 132.718C78.399 132.718 78.4838 132.711 78.5474 132.668C78.7312 132.52 78.8302 132.633 78.915 132.499C79.1058 132.562 79.1836 132.357 79.3037 132.167C79.3744 132.061 79.4097 131.926 79.4663 131.785C79.6571 131.368 79.8126 130.838 79.9822 130.28C80.067 129.99 80.1872 129.693 80.272 129.375C80.5759 128.293 80.8728 127.007 81.9471 125.876C82.1591 125.65 82.3994 125.396 82.6751 125.198C83.2193 124.802 83.8978 124.519 84.4845 124.604C84.6541 124.611 84.852 124.632 85.0287 124.604C85.4245 124.548 85.8132 124.625 86.1737 124.689C86.5553 124.844 86.9229 124.95 87.2692 125.212C87.6014 125.396 87.8134 125.763 87.8911 126.032C88.0042 126.484 88.1244 126.852 88.3152 127.276C88.393 127.445 88.4142 127.636 88.4707 127.813C88.6616 128.527 88.7252 129.255 88.6757 129.969C88.6545 130.35 88.5202 130.732 88.3859 131.078C88.2021 131.531 87.9124 131.594 87.559 131.446C87.1632 131.297 86.8663 131.015 86.5836 130.697C86.4705 130.569 86.4281 130.435 86.5271 130.244C86.6826 129.961 86.7108 129.651 86.5695 129.354C86.5059 129.198 86.4988 129 86.52 128.838C86.5624 128.392 86.421 127.997 86.3009 127.785C86.1666 127.615 86.1807 127.516 86.0818 127.276C86.0323 127.184 85.9404 127.12 85.8485 127.035C85.7496 126.958 85.5941 126.936 85.4598 126.88C85.17 126.788 84.8449 126.802 84.5834 126.873C84.2724 126.965 84.0392 127.134 83.6787 127.29C83.5656 127.332 83.4949 127.474 83.4172 127.58C83.1698 127.912 83.0497 128.364 82.7175 128.725C82.6539 128.788 82.6256 128.923 82.6185 129.021C82.562 129.573 82.357 130.103 82.2086 130.661C82.0248 131.333 81.7916 132.018 81.4948 132.718C81.3039 133.163 81.0707 133.63 80.7031 134.047C80.3427 134.464 79.8126 134.796 79.2613 134.93C78.6181 135.086 78.0103 134.951 77.4661 134.824C77.1763 134.761 76.8794 134.69 76.5826 134.563C76.2857 134.471 76.003 134.301 75.7062 134.16C75.3952 133.962 75.1196 133.672 74.957 133.326C74.851 133.163 74.8015 132.987 74.745 132.817C74.6813 132.647 74.6248 132.478 74.5965 132.315C74.3986 131.651 74.5046 131.036 74.6389 130.449C74.964 129.241 75.4235 128.145 75.9253 127.092C76.0242 126.887 76.1515 126.689 76.2928 126.519C76.4554 126.322 76.5402 126.117 76.4907 125.905C76.413 125.586 76.5402 125.304 76.7381 125.049C77.148 124.526 77.4095 123.954 77.5721 123.311C77.6569 122.943 77.8336 122.576 77.9962 122.229C78.1446 121.932 78.293 121.643 78.2718 121.31C78.2647 121.24 78.2718 121.148 78.3071 121.084C78.6111 120.498 78.5545 119.805 78.392 119.437C78.2647 119.176 78.1729 119.02 77.8689 118.872C77.7347 118.794 77.5367 118.745 77.3671 118.688C77.1622 118.66 76.9643 118.611 76.7452 118.596C76.6179 118.596 76.4766 118.554 76.3706 118.589C75.9112 118.759 75.4659 118.759 75.0277 118.851C73.9675 119.141 73.1476 119.932 72.5044 120.922C72.1157 121.494 71.7482 122.13 71.3877 122.802C71.3595 122.851 71.31 122.894 71.2958 122.943C71.1474 123.579 70.7092 124.131 70.3558 124.774C70.0448 125.325 69.5854 125.897 68.8716 126.385C68.5252 126.618 68.1082 126.809 67.6559 126.915C67.4297 126.972 67.1965 126.972 66.9703 126.993C66.7441 127 66.5392 126.958 66.3201 126.936C65.5143 126.774 64.85 126.463 64.3057 126.131C63.2385 125.502 62.4257 124.731 61.627 123.961C61.4786 123.812 61.3584 123.636 61.2454 123.459C61.0969 123.219 61.0969 122.802 61.2595 122.696C61.3372 122.646 61.4857 122.632 61.5917 122.689C61.9945 122.879 62.3762 123.063 62.7861 123.106C62.984 123.127 63.2314 123.226 63.4081 123.473C63.6484 123.82 64.0089 123.989 64.3693 124.123C64.5319 124.201 64.7722 124.222 64.9206 124.498Z" fill="#A6C5F3"/>
<path d="M59.7103 85.7387L62.4739 85.3641C63.0534 85.2863 63.4634 85.9013 63.1736 86.4101L61.7883 88.8344C61.6752 89.0323 61.6611 89.2797 61.7671 89.4847L62.9757 92.0008C63.2301 92.5238 62.7707 93.1105 62.1982 92.9903L59.47 92.4178C59.2439 92.3683 59.0106 92.439 58.841 92.5945L56.8196 94.524C56.3955 94.9269 55.7029 94.6725 55.6393 94.0929L55.3353 91.3223C55.3071 91.0891 55.1728 90.8911 54.9678 90.7781L52.5153 89.4564C52.0064 89.1807 52.0276 88.4386 52.5577 88.1983L55.1021 87.0533C55.3141 86.9614 55.4626 86.7635 55.505 86.5374L56.0068 83.795C56.1128 83.2225 56.8266 83.0176 57.2154 83.4487L59.0884 85.5125C59.2509 85.6822 59.4842 85.767 59.7103 85.7387Z" fill="#A6C5F3"/>
<path d="M61.3307 85.0103H62.0516C62.3838 84.9961 62.716 84.9891 62.9634 85.1516C63.4157 85.4485 63.5288 86.0068 63.3874 86.4662C63.3592 86.5935 63.2532 86.7207 63.1895 86.8338L62.8856 87.3851C62.8432 87.4699 62.8432 87.59 62.7796 87.6537C62.4757 87.9858 62.2354 88.3463 62.1152 88.7774C61.8042 88.9683 61.8679 89.3005 62.0587 89.4984C62.2425 89.7881 62.3697 90.1132 62.61 90.3748C62.6736 90.4454 62.7301 90.5303 62.7513 90.6221C62.8008 90.813 62.8644 90.9967 62.9422 91.1805C63.027 91.3713 63.0906 91.4985 63.2249 91.7671C63.3309 91.965 63.4016 92.17 63.3945 92.3891C63.3874 92.7849 63.1118 93.1595 62.7372 93.2797C62.5534 93.3433 62.3485 93.3362 62.1576 93.2867C61.9597 93.2373 61.7689 93.1595 61.6488 93.103C61.3519 92.9757 61.0338 92.9121 60.7158 92.8415C60.3412 92.7637 59.9525 92.7213 59.5779 92.6577L59.4931 92.6436C59.2952 92.5941 59.0831 92.6789 58.9771 92.8415C58.8216 93.0252 58.6449 93.2372 58.4894 93.4493C58.3057 93.6896 58.129 93.9228 57.9452 94.1631L57.6625 94.5095L57.5211 94.6791L57.2879 94.9335C57.1112 95.1244 56.8992 95.2657 56.6659 95.3435C56.0722 95.5343 55.3796 95.1738 55.1605 94.6013C55.1039 94.46 55.0615 94.3116 55.0474 94.149L55.0191 93.7249L54.9979 93.1524L54.9343 92.0004L54.899 91.5692L54.8848 91.4208C54.8777 91.3855 54.8707 91.3572 54.8565 91.3289C54.8283 91.2724 54.7788 91.2229 54.7152 91.1946L54.3759 91.025C53.8953 90.7847 53.3935 90.5797 52.9058 90.3465C52.6867 90.2122 51.7891 89.9295 51.5983 89.3146C51.3509 88.7209 51.5841 87.9717 52.1708 87.6325L54.5032 86.4662C54.5668 86.4309 54.7011 86.3673 54.7011 86.3602C54.7081 86.3461 54.7081 86.332 54.7011 86.3178L54.694 86.3037C54.694 86.2825 54.6798 86.3461 54.694 86.233C54.7152 86.0422 54.7505 85.8514 54.7929 85.6676L55.012 84.6215L55.1181 84.0985L55.1958 83.6886C55.2311 83.5189 55.2735 83.3564 55.3584 83.2221C55.5633 82.8192 55.9521 82.5295 56.3832 82.4376C56.8214 82.3457 57.2879 82.4446 57.6483 82.7274C57.7402 82.8051 57.825 82.8828 57.9099 82.9747L58.1219 83.208L58.3763 83.4907L58.8852 84.0632L59.4648 84.7063L59.6132 84.8618L59.691 84.9396L59.7122 84.9608L59.7192 84.9679C59.797 84.8972 59.6203 85.0598 59.6344 85.0456C59.6344 85.0598 59.6344 85.0809 59.6415 85.0951C59.6627 85.3707 59.5779 85.7453 59.1962 85.7453C58.9206 85.7029 58.758 85.604 58.6308 85.4131C58.4541 85.1234 58.1078 84.9467 58.0159 84.5862C58.0017 84.5367 57.9523 84.4872 57.9028 84.459C57.6978 84.3105 57.507 84.148 57.3303 83.9713C57.1607 83.8229 57.0971 83.7098 56.9345 83.632C56.7861 83.5614 56.5952 83.5755 56.4539 83.6674C56.2984 83.7593 56.2489 83.936 56.2206 84.1127C56.1641 84.36 56.1288 84.7417 56.0863 85.0456C56.051 85.2576 56.0157 85.4626 55.9733 85.6676C55.9097 85.9786 55.8319 86.2472 55.7824 86.5935C55.7471 86.8833 55.5563 87.2084 55.2311 87.1801C55.2029 87.1801 55.1675 87.1872 55.1322 87.2013C55.0757 87.2225 55.0403 87.2578 55.0262 87.2932C54.9414 87.5052 54.7576 87.5688 54.5809 87.6466C54.1074 87.8445 53.6197 88.0353 53.1532 88.2474C52.9553 88.3392 52.8846 88.3746 52.7645 88.4452C52.6584 88.5089 52.5948 88.629 52.5948 88.7492C52.5807 88.9329 52.715 89.1026 52.8705 89.152C52.9553 89.1803 53.0048 89.1803 53.1037 89.2156L53.5137 89.3853C53.9731 89.5832 54.4113 89.8093 54.8636 90.0143C54.9696 90.0638 55.0827 90.085 55.1887 90.1345C55.4927 90.2546 55.8531 90.5515 55.9167 90.9048C55.9591 91.0815 55.9591 91.2936 55.9803 91.3996C55.9945 91.4915 56.0369 91.5834 56.1217 91.6753C56.2136 91.7813 56.2277 91.958 56.2277 92.1064C56.2277 92.2972 56.1924 92.4881 56.1641 92.6789C56.1217 92.9051 56.0793 93.1171 56.2136 93.3503C56.2489 93.414 56.263 93.4846 56.263 93.5624C56.263 93.6048 56.263 93.6401 56.256 93.6825L56.2348 93.7179C56.15 93.8309 56.15 94.0359 56.2913 94.1066C56.4185 94.1914 56.5952 94.1137 56.6659 93.9864L56.6801 93.9723L56.7225 93.9158L56.8214 93.8027L57.0405 93.5553L57.4717 93.0676L57.9028 92.5799L58.1219 92.3326L58.2279 92.2124L58.2845 92.1488L58.3905 92.0428C58.7156 91.7247 59.2033 91.5904 59.6556 91.6823L59.9949 91.7459C60.525 91.8378 61.0551 91.9509 61.5781 92.0711L61.9739 92.1629C62.0658 92.1841 62.0375 92.1841 62.0516 92.1841L62.0799 92.1983C62.1152 92.2195 62.1647 92.2195 62.2071 92.1912C62.2354 92.17 62.2637 92.1276 62.2212 92.0923L62.1647 92.0569C62.1718 92.1064 62.0446 91.8449 61.9809 91.6965C61.9032 91.5268 61.8396 91.3501 61.776 91.1734C61.677 90.8978 61.5498 90.6363 61.4155 90.3889L61.1964 90.0143L61.1399 89.9154C61.1045 89.8588 61.0763 89.7952 61.048 89.7316C60.9914 89.6115 60.9561 89.4771 60.9349 89.3429C60.8925 89.0955 60.9066 88.8198 61.0197 88.5866C61.1611 88.3463 61.3024 88.113 61.4438 87.8798C61.5569 87.6819 61.6629 87.477 61.7689 87.272L62.087 86.6571L62.2495 86.3532C62.2919 86.2825 62.2707 86.3178 62.2778 86.3037H62.2849C62.299 86.3108 62.3414 86.2825 62.3414 86.233C62.3414 86.2118 62.3273 86.1835 62.3061 86.1694C62.2919 86.1623 62.2778 86.1553 62.2637 86.1482C62.2212 86.1482 62.087 86.1553 62.0092 86.1553C61.4367 86.1694 60.8572 86.1765 60.2776 86.1906C60.2423 86.1906 60.1998 86.2118 60.1645 86.2118C59.8323 86.2118 59.7051 86.0139 59.8182 85.6817C59.9171 85.3849 60.108 85.194 60.4048 85.1587C60.7299 85.1234 61.0551 85.1021 61.3802 85.0739L61.3307 85.0103Z" fill="#A6C5F3"/>
<path d="M40.409 104.439C40.4019 104.39 40.3878 104.326 40.3736 104.262C40.3666 104.234 40.3383 104.199 40.3595 104.178C40.4231 104.114 40.3948 104.064 40.3595 104.008C40.3383 103.98 40.3524 103.937 40.3595 103.902C40.3666 103.831 40.3595 103.775 40.2606 103.718C40.1616 103.669 40.1263 103.598 40.1475 103.52C40.1616 103.471 40.1333 103.414 40.1333 103.365C40.1263 103.273 40.1121 103.188 40.1333 103.096C40.1687 102.955 40.1828 102.828 40.1333 102.679C40.0839 102.531 40.1121 102.368 40.1121 102.213C40.1121 102.184 40.1333 102.149 40.1687 102.135C40.3171 102.057 40.1404 101.944 40.2464 101.859C40.2464 101.859 40.204 101.831 40.1757 101.824C39.9072 101.76 39.9142 101.612 39.9072 101.485C39.9001 101.4 39.9213 101.308 39.886 101.223C39.8648 101.174 39.8648 101.117 39.8718 101.068C39.893 100.919 39.8648 100.778 39.787 100.63C39.7163 100.495 39.7375 100.347 39.8365 100.22C39.8648 100.184 39.8648 100.149 39.8223 100.114C39.7234 100.043 39.7305 99.9651 39.7658 99.8803C39.787 99.8379 39.787 99.7884 39.787 99.746C39.7799 99.6824 39.8082 99.6471 39.9142 99.6329C40.0132 99.6188 40.0061 99.5835 39.9708 99.534C39.9142 99.4421 39.8294 99.3502 39.8365 99.2583C39.8436 99.1594 39.787 99.0675 39.7799 98.9686C39.7729 98.9191 39.7729 98.8696 39.8223 98.8201C39.893 98.7424 39.9142 98.6576 39.8153 98.5657C39.6881 98.4526 39.787 98.3325 39.7305 98.2123C39.8294 98.1063 39.7587 97.9791 39.7729 97.8589C39.8011 97.6115 39.8223 97.3642 39.8506 97.1168C39.8577 97.0673 39.8436 97.0108 39.8365 96.9542C39.8082 96.6291 39.8294 96.311 39.9072 95.993C39.9496 95.7951 40.0202 95.6043 39.9778 95.3922C39.9496 95.2579 39.9778 95.1378 40.0415 95.0176C40.0839 94.9469 40.1192 94.8551 40.0909 94.7773C40.0344 94.636 40.1545 94.5299 40.1404 94.4027C40.2535 94.332 40.2323 94.226 40.2535 94.1341C40.2676 94.0847 40.2606 94.0281 40.2747 93.9787C40.3171 93.8232 40.3524 93.6747 40.3948 93.5192C40.416 93.4415 40.4585 93.3638 40.4726 93.286C40.5291 93.0033 40.5927 92.7206 40.727 92.4591C40.7553 92.4025 40.7553 92.346 40.7765 92.2824C40.8118 92.1693 40.8331 92.0491 40.9603 91.9643C40.9956 91.9431 41.0239 91.9007 41.0239 91.8654C41.0309 91.7028 41.1652 91.5827 41.243 91.4413C41.2783 91.3777 41.3631 91.3211 41.455 91.2929C41.6034 91.2434 41.6741 91.1727 41.6883 91.0596C41.6953 91.0172 41.7165 90.9748 41.7236 90.9324C41.7519 90.7557 41.766 90.579 41.8226 90.4023C41.8508 90.3104 41.9215 90.2327 41.9922 90.1549C42.0841 90.056 42.2396 90.0772 42.4516 90.1691C42.6848 90.268 42.8686 90.3811 43.0382 90.5154C43.1018 90.5649 43.1372 90.6144 43.0736 90.6497C42.9817 90.7133 42.9605 90.791 43.01 90.9041C43.0382 90.9607 43.017 91.0243 42.9887 91.0667C42.9039 91.1939 42.8898 91.3423 42.8545 91.4908C42.8262 91.6251 42.7484 91.7381 42.6212 91.8371C42.4233 91.9926 42.3032 92.1763 42.2325 92.3884C42.1901 92.5085 42.1689 92.6358 42.0417 92.7347C42.0063 92.763 42.0063 92.8125 41.9922 92.8549C41.9498 92.975 41.9568 93.1164 41.8084 93.2083C41.7801 93.2224 41.7801 93.2648 41.7872 93.2931C41.8226 93.4486 41.7519 93.5829 41.7165 93.7242C41.6741 93.8938 41.6034 94.0564 41.5752 94.2331C41.5398 94.4522 41.5398 94.6854 41.5045 94.9045C41.4833 95.0318 41.4126 95.1519 41.3843 95.2791C41.3561 95.4134 41.3137 95.5548 41.349 95.6891C41.3843 95.8446 41.2925 95.9789 41.3278 96.1273C41.3631 96.2686 41.3419 96.4029 41.3137 96.5443C41.2501 96.827 41.2218 97.1238 41.1723 97.4066C41.1652 97.4631 41.137 97.5197 41.1016 97.5691C41.0522 97.6257 41.0592 97.6822 41.137 97.7317C41.2571 97.8094 41.2501 97.8872 41.2006 97.9579C41.0946 98.1133 41.0946 98.2759 41.144 98.4455C41.1723 98.5445 41.1582 98.6505 41.1299 98.7494C41.1087 98.8343 41.0663 98.9191 41.1299 99.0039C41.144 99.0251 41.1511 99.0463 41.144 99.0675C41.0522 99.2442 41.1228 99.428 41.137 99.6117C41.1582 99.8662 41.1087 100.121 41.0946 100.375C41.0946 100.41 41.0663 100.453 41.0875 100.481C41.1935 100.615 41.144 100.757 41.137 100.891C41.1158 101.23 41.1723 101.562 41.2076 101.895C41.2289 102.1 41.243 102.29 41.2642 102.481C41.2642 102.495 41.2501 102.51 41.2571 102.524C41.3702 102.686 41.3066 102.856 41.3419 103.018C41.3773 103.16 41.3561 103.308 41.3419 103.45C41.3137 103.725 41.3561 104.001 41.4197 104.269C41.4833 104.524 41.5257 104.785 41.5681 105.047C41.5752 105.096 41.561 105.146 41.5469 105.195C41.5186 105.266 41.3631 105.351 41.243 105.351C41.1864 105.351 41.1158 105.33 41.0875 105.308C40.9815 105.217 40.8755 105.125 40.7058 105.054C40.6281 105.019 40.5574 104.962 40.5857 104.884C40.6139 104.778 40.5503 104.686 40.4585 104.595C40.409 104.566 40.3312 104.517 40.409 104.439Z" fill="#A6C5F3"/>
<path d="M34.6915 108.306C34.6774 108.228 34.6491 108.129 34.6279 108.03C34.6209 107.988 34.5784 107.931 34.5996 107.903C34.6491 107.804 34.6209 107.726 34.5784 107.634C34.5572 107.585 34.5643 107.521 34.5714 107.458C34.5784 107.345 34.5643 107.253 34.4583 107.168C34.3593 107.09 34.3169 106.984 34.3311 106.85C34.3381 106.772 34.3099 106.687 34.3028 106.602C34.2887 106.461 34.2604 106.313 34.2745 106.171C34.3028 105.945 34.2887 105.733 34.2392 105.507C34.1826 105.267 34.2109 105.012 34.2109 104.758C34.2109 104.715 34.2321 104.659 34.2675 104.631C34.4159 104.496 34.2321 104.327 34.3381 104.185C34.3381 104.185 34.2957 104.136 34.2675 104.129C33.9989 104.037 33.9918 103.797 33.9777 103.592C33.9706 103.45 33.9989 103.309 33.9565 103.168C33.9353 103.09 33.9353 102.998 33.9423 102.913C33.9635 102.673 33.9423 102.44 33.8646 102.206C33.7939 101.987 33.8222 101.754 33.9141 101.542C33.9423 101.478 33.9423 101.429 33.8999 101.379C33.801 101.266 33.808 101.139 33.8575 101.005C33.8787 100.934 33.8858 100.863 33.8787 100.793C33.8717 100.694 33.8999 100.63 34.0059 100.602C34.112 100.574 34.0978 100.517 34.0696 100.439C34.0201 100.298 33.9423 100.142 33.9494 100.001C33.9635 99.8386 33.907 99.6972 33.907 99.5417C33.907 99.4569 33.907 99.3862 33.9565 99.3014C34.0342 99.1742 34.0554 99.0328 33.9635 98.8985C33.8434 98.7218 33.9494 98.5239 33.8999 98.3402C34.013 98.1635 33.9494 97.9656 33.9706 97.7747L34.1049 96.5944C34.112 96.5096 34.1049 96.4248 34.1049 96.34C34.1049 95.824 34.1544 95.3151 34.2604 94.8133C34.324 94.4952 34.4159 94.1843 34.3947 93.8592C34.3805 93.6542 34.4159 93.4563 34.4936 93.2584C34.5431 93.1382 34.5926 92.9969 34.5643 92.8767C34.5219 92.6647 34.6491 92.4809 34.6491 92.283C34.7763 92.1629 34.7551 92.0003 34.7905 91.8519C34.8117 91.7741 34.8117 91.6893 34.8258 91.6045C34.8824 91.3571 34.9389 91.1168 34.9954 90.8694C35.0237 90.7422 35.0803 90.6221 35.1015 90.4949C35.1863 90.0496 35.2852 89.6043 35.4549 89.1802C35.4902 89.0954 35.4973 88.9965 35.5255 88.9046C35.5679 88.7208 35.6104 88.53 35.7517 88.3816C35.7941 88.3392 35.8224 88.2755 35.8295 88.219C35.8577 87.9646 36.0132 87.7525 36.1051 87.5193C36.1475 87.4133 36.2394 87.3143 36.3383 87.2507C36.5009 87.1518 36.5786 87.0175 36.6069 86.8478C36.6211 86.7772 36.6352 86.7135 36.6564 86.6429C36.7059 86.3602 36.7412 86.0774 36.8119 85.8089C36.8472 85.6604 36.932 85.5191 37.0098 85.3919C37.1158 85.2222 37.2784 85.2081 37.4904 85.2929C37.7236 85.3848 37.9074 85.5262 38.07 85.7029C38.1336 85.7735 38.1618 85.8371 38.0912 85.922C37.9852 86.0421 37.9569 86.1835 37.9993 86.346C38.0205 86.4308 37.9922 86.5369 37.9569 86.6146C37.8509 86.8408 37.8226 87.0882 37.7731 87.3214C37.7236 87.5405 37.6318 87.7384 37.4904 87.9221C37.2713 88.2049 37.1229 88.5229 37.0239 88.8693C36.9674 89.0672 36.932 89.2792 36.7907 89.4488C36.7483 89.4983 36.7483 89.5831 36.7271 89.6467C36.6705 89.8517 36.6564 90.0637 36.5009 90.2333C36.4726 90.2616 36.4656 90.3252 36.4726 90.3676C36.4868 90.6079 36.4019 90.8341 36.3525 91.0603C36.2889 91.3359 36.197 91.6045 36.1475 91.8872C36.098 92.2477 36.0486 92.6081 36.0062 92.9686C35.9708 93.1736 35.886 93.3715 35.8436 93.5835C35.8012 93.8026 35.7446 94.0217 35.7658 94.2408C35.787 94.4811 35.674 94.7073 35.6952 94.9405C35.7164 95.1667 35.681 95.3858 35.6457 95.6049C35.5609 96.0643 35.5043 96.5379 35.4266 96.9973C35.4125 97.0892 35.3842 97.181 35.3347 97.2588C35.2852 97.3577 35.2852 97.4426 35.3559 97.5203C35.469 97.6405 35.4619 97.7606 35.4054 97.8878C35.2923 98.1423 35.2711 98.4038 35.3135 98.6794C35.3347 98.842 35.3135 99.0116 35.2782 99.1671C35.2499 99.3085 35.2075 99.4427 35.2711 99.5841C35.2852 99.6124 35.2923 99.6548 35.2782 99.6901C35.1792 99.9799 35.2358 100.277 35.2428 100.567C35.257 100.976 35.1792 101.386 35.1792 101.796C35.1792 101.853 35.1509 101.924 35.1792 101.973C35.2852 102.192 35.2358 102.418 35.2216 102.637C35.1933 103.182 35.2428 103.712 35.3064 104.249C35.3418 104.56 35.3559 104.878 35.3771 105.189C35.3771 105.21 35.363 105.238 35.3771 105.26C35.4902 105.514 35.4337 105.79 35.4973 106.051C35.5467 106.277 35.5397 106.511 35.5397 106.744C35.5538 107.182 35.575 107.62 35.7022 108.044C35.8083 108.447 35.886 108.857 35.9708 109.26C35.9849 109.338 35.9849 109.423 35.9708 109.5C35.9567 109.606 35.8083 109.755 35.6952 109.769C35.6386 109.776 35.5679 109.748 35.5326 109.712C35.4125 109.571 35.2923 109.43 35.1085 109.331C35.0237 109.281 34.946 109.189 34.9601 109.062C34.9742 108.885 34.8965 108.744 34.7834 108.603C34.7127 108.518 34.6279 108.44 34.6915 108.306Z" fill="#A6C5F3"/>
<path d="M28.5354 109.133C28.5213 109.041 28.5072 108.935 28.493 108.822C28.486 108.772 28.4506 108.709 28.4718 108.673C28.5284 108.567 28.5001 108.475 28.4577 108.369C28.4365 108.313 28.4436 108.242 28.4506 108.179C28.4506 108.058 28.4436 107.945 28.3446 107.853C28.2457 107.762 28.2103 107.641 28.2315 107.493C28.2457 107.401 28.2174 107.309 28.2103 107.217C28.2032 107.062 28.182 106.899 28.2032 106.744C28.2386 106.496 28.2457 106.256 28.1891 106.002C28.1326 105.733 28.1538 105.45 28.1608 105.175C28.1608 105.125 28.182 105.062 28.2174 105.033C28.3729 104.892 28.1962 104.694 28.3022 104.546C28.3022 104.546 28.2598 104.489 28.2315 104.482C27.9629 104.369 27.97 104.108 27.9629 103.888C27.9559 103.733 27.9841 103.577 27.9488 103.422C27.9276 103.33 27.9276 103.238 27.9347 103.146C27.9559 102.878 27.9276 102.623 27.864 102.362C27.8004 102.121 27.8357 101.86 27.9347 101.627C27.9629 101.556 27.97 101.499 27.9205 101.443C27.8216 101.316 27.8286 101.174 27.8711 101.026C27.8923 100.948 27.8993 100.87 27.8923 100.793C27.8852 100.687 27.9135 100.616 28.0195 100.581C28.1255 100.552 28.1114 100.489 28.0831 100.397C28.0336 100.241 27.9488 100.072 27.97 99.9092C27.9841 99.7325 27.9347 99.57 27.9417 99.4003C27.9417 99.3085 27.9417 99.2237 27.9983 99.1388C28.076 98.9975 28.0972 98.842 28.0053 98.6936C27.8852 98.4957 27.9912 98.2766 27.9417 98.0716C28.0548 97.8737 27.9841 97.6546 28.0124 97.4425L28.1679 96.135C28.175 96.0431 28.1679 95.9512 28.1679 95.8523C28.1608 95.2798 28.2527 94.7214 28.3587 94.156C28.4294 93.8026 28.5142 93.4563 28.5072 93.0888C28.5001 92.8626 28.5496 92.6364 28.6273 92.4244C28.6768 92.2901 28.7263 92.1346 28.7051 92.0003C28.6697 91.76 28.7969 91.5621 28.804 91.343C28.9312 91.2087 28.9242 91.0249 28.9666 90.8624C28.9878 90.7705 28.9948 90.6786 29.016 90.5938C29.0797 90.3252 29.1433 90.0496 29.2139 89.7739C29.2564 89.6396 29.2988 89.4912 29.3341 89.3569C29.4472 88.8622 29.5603 88.3674 29.744 87.8939C29.7864 87.7949 29.8006 87.6889 29.8289 87.5829C29.8854 87.3779 29.9349 87.173 30.0833 87.0033C30.1257 86.9539 30.161 86.8902 30.1681 86.8266C30.2034 86.5368 30.3801 86.3107 30.4862 86.0562C30.5356 85.9432 30.6346 85.8301 30.7406 85.7665C30.9032 85.6534 30.995 85.512 31.0375 85.3212C31.0587 85.2434 31.0799 85.1727 31.1011 85.095C31.1647 84.784 31.2283 84.473 31.3202 84.1762C31.3696 84.0136 31.4615 83.8581 31.5534 83.7168C31.6736 83.533 31.8361 83.5259 32.0482 83.6249C32.2743 83.7309 32.451 83.8935 32.5994 84.0843C32.656 84.162 32.6772 84.2327 32.5994 84.3246C32.4864 84.4518 32.444 84.6073 32.4722 84.7911C32.4864 84.883 32.451 84.9961 32.4086 85.0879C32.2885 85.3353 32.239 85.6039 32.1754 85.8654C32.1118 86.1057 32.0128 86.3248 31.8573 86.5227C31.61 86.8337 31.4474 87.18 31.3343 87.5617C31.2707 87.7808 31.2212 88.014 31.0657 88.1978C31.0162 88.2543 31.0163 88.3462 30.995 88.4169C30.9314 88.6431 30.9102 88.8834 30.7477 89.0671C30.7194 89.1025 30.7123 89.1661 30.7123 89.2156C30.7194 89.4841 30.6134 89.7315 30.5568 89.986C30.4862 90.2899 30.3872 90.5938 30.3307 90.8977C30.2529 91.2935 30.2105 91.6964 30.154 92.0992C30.1186 92.3254 30.0267 92.5516 29.9773 92.7778C29.9278 93.0181 29.8571 93.2655 29.8713 93.5058C29.8854 93.7743 29.7794 94.0217 29.7935 94.2832C29.8147 94.5376 29.7794 94.7709 29.7299 95.0183C29.6168 95.5272 29.5673 96.0502 29.4896 96.5661C29.4755 96.6651 29.4472 96.7711 29.3977 96.863C29.3412 96.969 29.3412 97.068 29.4118 97.1528C29.5179 97.28 29.5108 97.4213 29.4472 97.5556C29.32 97.8383 29.3129 98.1281 29.3482 98.4321C29.3694 98.6087 29.3482 98.7996 29.3129 98.9763C29.2846 99.1318 29.2352 99.2802 29.2988 99.4357C29.3129 99.471 29.32 99.5134 29.3058 99.5488C29.1927 99.8668 29.2422 100.199 29.2564 100.524C29.2634 100.984 29.2069 101.436 29.1857 101.895C29.1857 101.959 29.1574 102.037 29.1786 102.086C29.2776 102.326 29.2139 102.581 29.2069 102.821C29.1857 103.422 29.2422 104.023 29.2776 104.623C29.2988 104.977 29.2988 105.323 29.327 105.677C29.327 105.705 29.3129 105.733 29.327 105.754C29.4472 106.037 29.3836 106.348 29.426 106.645C29.4613 106.899 29.4472 107.161 29.4401 107.422C29.4189 107.917 29.4684 108.405 29.5603 108.892C29.6451 109.352 29.7016 109.818 29.7582 110.278C29.7723 110.363 29.7582 110.462 29.744 110.546C29.7228 110.666 29.5673 110.815 29.4543 110.815C29.3977 110.815 29.327 110.78 29.2917 110.737C29.1786 110.568 29.0655 110.398 28.8959 110.271C28.8181 110.214 28.7404 110.101 28.7616 109.96C28.7828 109.769 28.7121 109.599 28.6132 109.444C28.5496 109.366 28.4648 109.274 28.5354 109.133Z" fill="#A6C5F3"/>
<path d="M23.0364 107.797C23.0152 107.712 22.994 107.613 22.9728 107.507C22.9657 107.464 22.9233 107.408 22.9445 107.372C22.994 107.266 22.9586 107.189 22.9162 107.09C22.888 107.04 22.895 106.97 22.895 106.913C22.888 106.8 22.8738 106.701 22.7678 106.616C22.6688 106.538 22.6194 106.425 22.6335 106.284C22.6406 106.199 22.6052 106.114 22.5982 106.03C22.584 105.881 22.5558 105.733 22.5628 105.584C22.584 105.351 22.577 105.125 22.5134 104.892C22.4427 104.644 22.4497 104.376 22.4427 104.121C22.4427 104.079 22.4639 104.015 22.4922 103.987C22.6406 103.846 22.4568 103.669 22.5558 103.52C22.5558 103.52 22.5134 103.471 22.4851 103.464C22.2165 103.372 22.2094 103.125 22.1953 102.913C22.1812 102.764 22.2024 102.616 22.16 102.474C22.1388 102.39 22.1317 102.298 22.1317 102.213C22.1458 101.958 22.1034 101.725 22.0327 101.478C21.9621 101.252 21.9903 101.011 22.0822 100.785C22.1105 100.722 22.1105 100.665 22.0681 100.616C21.9691 100.495 21.9691 100.368 22.0115 100.227C22.0327 100.156 22.0327 100.078 22.0257 100.008C22.0186 99.9088 22.0469 99.8381 22.1458 99.8099C22.2448 99.7816 22.2377 99.718 22.2024 99.6332C22.1458 99.4847 22.061 99.3293 22.0751 99.1808C22.0893 99.0112 22.0398 98.8628 22.0327 98.7073C22.0327 98.6225 22.0327 98.5447 22.0822 98.4599C22.16 98.3256 22.1741 98.1843 22.0822 98.0429C21.955 97.8591 22.061 97.6471 22.0115 97.4563C22.1176 97.2725 22.0469 97.0605 22.0751 96.8626L22.2236 95.6328C22.2306 95.5479 22.2236 95.4561 22.2236 95.3713C22.2094 94.8341 22.3013 94.304 22.4144 93.7739C22.4851 93.4417 22.577 93.1166 22.5628 92.7703C22.5628 92.5583 22.6052 92.3462 22.6901 92.1483C22.7395 92.0211 22.7961 91.8797 22.7749 91.7525C22.7395 91.5263 22.8738 91.3426 22.8809 91.1305C23.0081 91.0104 23.0081 90.8337 23.0505 90.6853C23.0717 90.6004 23.0788 90.5156 23.1 90.4308C23.1707 90.1764 23.2413 89.9219 23.312 89.6675C23.3544 89.5403 23.4039 89.406 23.4463 89.2788C23.5735 88.8194 23.6937 88.3529 23.8987 87.9217C23.9411 87.8298 23.9623 87.7309 23.9905 87.639C24.0541 87.4482 24.1107 87.2574 24.2591 87.1089C24.3015 87.0665 24.3369 87.0029 24.351 86.9464C24.3934 86.6778 24.5842 86.4728 24.6973 86.2396C24.7468 86.1336 24.8528 86.0417 24.9588 85.9851C25.1285 85.8933 25.2274 85.766 25.2769 85.5893C25.3052 85.5187 25.3264 85.448 25.3476 85.3773C25.4253 85.0946 25.5031 84.8048 25.6091 84.5292C25.6656 84.3807 25.7646 84.2465 25.8706 84.1192C25.9978 83.9567 26.1674 83.9708 26.3653 84.0839C26.5844 84.2111 26.747 84.3737 26.8813 84.5716C26.9378 84.6493 26.952 84.72 26.8671 84.7907C26.747 84.8967 26.6975 85.038 26.7187 85.2077C26.7329 85.2925 26.6905 85.3985 26.641 85.4763C26.5138 85.6954 26.4501 85.9428 26.3724 86.176C26.3017 86.3951 26.1886 86.593 26.0331 86.7626C25.7787 87.0312 25.602 87.3422 25.4748 87.6956C25.4041 87.8935 25.3476 88.1055 25.185 88.2751C25.1355 88.3246 25.1285 88.4094 25.1073 88.4801C25.0366 88.6851 25.0154 88.9112 24.8387 89.0738C24.8104 89.1021 24.7963 89.1657 24.7963 89.2081C24.7963 89.4625 24.6832 89.6816 24.6266 89.9149C24.5489 90.1976 24.4499 90.4732 24.3863 90.763C24.3015 91.1305 24.252 91.5051 24.1884 91.8797C24.146 92.0918 24.0541 92.2967 24.0047 92.5088C23.9552 92.735 23.8845 92.9611 23.8916 93.1873C23.9057 93.4417 23.7926 93.6679 23.8138 93.9153C23.835 94.1556 23.7997 94.3747 23.7432 94.6009C23.6301 95.0744 23.5877 95.5621 23.5099 96.0498C23.4958 96.1416 23.4675 96.2406 23.4251 96.3254C23.3756 96.4244 23.3686 96.5163 23.4463 96.6011C23.5523 96.7212 23.5453 96.8484 23.4887 96.9757C23.3615 97.2372 23.3615 97.5128 23.4039 97.7955C23.4322 97.9581 23.411 98.1348 23.3827 98.3044C23.3544 98.4528 23.312 98.5871 23.3756 98.7356C23.3898 98.7709 23.3968 98.8133 23.3827 98.8416C23.2767 99.1384 23.3332 99.4494 23.3544 99.7463C23.3756 100.177 23.3332 100.601 23.3191 101.026C23.3191 101.089 23.2908 101.16 23.3191 101.209C23.4251 101.435 23.3615 101.669 23.3686 101.895C23.3756 102.46 23.4463 103.012 23.5099 103.57C23.5453 103.895 23.5594 104.22 23.6089 104.545C23.6089 104.567 23.6018 104.595 23.6089 104.616C23.7432 104.878 23.6937 105.16 23.7573 105.436C23.8068 105.669 23.7997 105.916 23.8068 106.157C23.8068 106.616 23.8916 107.069 24.0117 107.514C24.1248 107.938 24.2096 108.362 24.2945 108.786C24.3086 108.864 24.3086 108.956 24.3015 109.04C24.2874 109.154 24.139 109.309 24.0259 109.316C23.9693 109.323 23.8916 109.295 23.8633 109.253C23.7361 109.104 23.6159 108.956 23.4392 108.85C23.3544 108.8 23.2767 108.701 23.2837 108.574C23.2979 108.39 23.2131 108.242 23.1071 108.1C23.0646 108.016 22.9798 107.938 23.0364 107.797Z" fill="#A6C5F3"/>
<path d="M18.3304 104.192C18.3163 104.135 18.2951 104.057 18.2809 103.987C18.2739 103.951 18.2385 103.916 18.2527 103.888C18.3092 103.81 18.2739 103.754 18.2315 103.683C18.2103 103.647 18.2173 103.598 18.2173 103.556C18.2173 103.471 18.2032 103.4 18.0972 103.351C17.9912 103.301 17.9558 103.216 17.9699 103.117C17.977 103.054 17.9487 102.997 17.9417 102.934C17.9275 102.828 17.8993 102.722 17.9134 102.616C17.9346 102.446 17.9346 102.283 17.871 102.121C17.8074 101.944 17.8215 101.753 17.8074 101.57C17.8074 101.534 17.8215 101.492 17.8569 101.471C17.9982 101.365 17.8145 101.244 17.9134 101.138C17.9134 101.138 17.871 101.103 17.8427 101.096C17.5741 101.039 17.5671 100.856 17.5529 100.707C17.5459 100.601 17.56 100.495 17.5176 100.389C17.4964 100.333 17.4893 100.262 17.4893 100.205C17.4964 100.022 17.4681 99.8521 17.3762 99.6824C17.2914 99.5199 17.3126 99.3432 17.4116 99.1806C17.4399 99.1311 17.4399 99.0958 17.3904 99.0534C17.2914 98.9686 17.2914 98.8767 17.3268 98.7777C17.348 98.7283 17.348 98.6717 17.3409 98.6152C17.3338 98.5445 17.355 98.495 17.4611 98.4668C17.56 98.4456 17.5529 98.4032 17.5176 98.3395C17.4611 98.2335 17.3762 98.1204 17.3762 98.0144C17.3833 97.8943 17.3197 97.7882 17.3056 97.6681C17.2985 97.6045 17.2985 97.5479 17.348 97.4843C17.4187 97.3925 17.4328 97.2794 17.3338 97.1804C17.2066 97.0461 17.2985 96.8977 17.249 96.7563C17.348 96.622 17.2773 96.4736 17.2914 96.3323C17.3126 96.0354 17.348 95.7386 17.3762 95.4417C17.3833 95.3781 17.3692 95.3145 17.3692 95.2509C17.348 94.8622 17.3762 94.4734 17.4681 94.0918C17.5247 93.8514 17.6024 93.6182 17.5671 93.3638C17.5459 93.2083 17.5741 93.0528 17.6519 92.9114C17.6943 92.8196 17.7438 92.7135 17.7155 92.6217C17.666 92.452 17.7932 92.3248 17.7862 92.1693C17.9063 92.0845 17.8851 91.9573 17.9205 91.8442C17.9346 91.7806 17.9346 91.717 17.9558 91.6604C18.0124 91.4767 18.0618 91.2929 18.1184 91.1091C18.1466 91.0172 18.1961 90.9254 18.2173 90.8264C18.2951 90.4872 18.4011 90.155 18.5636 89.844C18.599 89.7804 18.6061 89.7026 18.6273 89.639C18.6767 89.5047 18.7191 89.3634 18.8605 89.2644C18.9029 89.2362 18.9312 89.1937 18.9382 89.1513C18.9665 88.9534 19.122 88.8121 19.221 88.6495C19.2634 88.5788 19.3623 88.5152 19.4613 88.4799C19.6168 88.4304 19.7016 88.3385 19.7369 88.2113C19.7581 88.1618 19.7723 88.1124 19.7935 88.0629C19.85 87.8579 19.8995 87.6459 19.9843 87.448C20.0267 87.342 20.1115 87.2501 20.2034 87.1653C20.3165 87.0593 20.472 87.0875 20.6699 87.2077C20.889 87.342 21.0515 87.4763 21.2 87.6459C21.2565 87.7095 21.2777 87.766 21.207 87.8014C21.101 87.865 21.0657 87.9639 21.101 88.0912C21.1222 88.1548 21.0869 88.2254 21.0515 88.282C20.9455 88.4304 20.9031 88.6 20.8536 88.7626C20.8042 88.9181 20.7123 89.0524 20.5709 89.1584C20.3447 89.328 20.2034 89.5471 20.1044 89.7945C20.0479 89.9359 20.0055 90.0843 19.8712 90.1974C19.8288 90.2327 19.8288 90.2893 19.8076 90.3387C19.751 90.4801 19.744 90.6426 19.5885 90.7557C19.5602 90.7769 19.5531 90.8194 19.5602 90.8547C19.5743 91.0385 19.4966 91.1939 19.4471 91.3636C19.3906 91.5615 19.3058 91.7594 19.2563 91.9643C19.1998 92.2258 19.1927 92.5015 19.1432 92.763C19.1149 92.9185 19.0372 93.0599 18.9948 93.2083C18.9594 93.3708 18.917 93.5334 18.9382 93.696C18.9665 93.8797 18.8676 94.0423 18.8958 94.219C18.9241 94.3886 18.8958 94.5441 18.8676 94.7137C18.804 95.053 18.7686 95.4064 18.7121 95.7456C18.705 95.8092 18.6767 95.8799 18.6343 95.9435C18.5848 96.0142 18.5848 96.0849 18.6626 96.1414C18.7827 96.2262 18.7828 96.3181 18.7333 96.41C18.6343 96.6008 18.6273 96.7917 18.6838 96.9967C18.7191 97.1168 18.6979 97.244 18.6767 97.3571C18.6555 97.4631 18.6131 97.5621 18.6767 97.661C18.6909 97.6822 18.6979 97.7176 18.6909 97.7388C18.6061 97.9508 18.6838 98.1699 18.705 98.389C18.7333 98.6929 18.6909 98.9968 18.6909 99.3008C18.6909 99.3432 18.6626 99.3927 18.6909 99.428C18.804 99.5835 18.7686 99.7531 18.7686 99.9157C18.7686 100.319 18.8464 100.714 18.9029 101.11C18.9382 101.35 18.9736 101.577 19.0089 101.81C19.0089 101.824 19.0019 101.845 19.0089 101.859C19.1361 102.043 19.0867 102.248 19.1361 102.439C19.1786 102.601 19.1715 102.778 19.1715 102.955C19.1715 103.287 19.2422 103.605 19.3411 103.923C19.4401 104.22 19.5037 104.531 19.5743 104.828C19.5885 104.884 19.5814 104.948 19.5673 105.012C19.5531 105.096 19.3977 105.209 19.2846 105.224C19.228 105.231 19.1573 105.217 19.122 105.188C19.0019 105.082 18.8888 104.983 18.7121 104.913C18.6273 104.877 18.5566 104.814 18.5707 104.722C18.5919 104.588 18.5142 104.489 18.4082 104.39C18.3516 104.347 18.2668 104.291 18.3304 104.192Z" fill="#A6C5F3"/>
<path d="M9.88368 102.545C9.813 102.524 9.71406 102.503 9.61511 102.475C9.55856 102.46 9.50909 102.432 9.45254 102.425C9.4172 102.418 9.38186 102.418 9.31825 102.305C9.26171 102.199 9.24051 102.234 9.23344 102.305C9.22637 102.354 9.2193 102.411 9.1981 102.411C9.10622 102.404 9.0002 102.369 8.90832 102.369C8.84471 102.369 8.7811 102.361 8.69628 102.241C8.63974 102.164 8.63267 102.27 8.62561 102.361C8.61147 102.475 8.59027 102.432 8.50545 102.22C8.45598 102.086 8.44184 102.072 8.45598 102.192C8.47011 102.312 8.49838 102.425 8.46304 102.425C8.35703 102.432 8.25808 102.46 8.15913 102.46C8.13085 102.46 8.09552 102.531 8.03897 102.234C8.03897 102.22 8.02484 102.185 8.01777 102.185C7.9683 102.178 7.91882 102.178 7.86935 102.178C7.86935 102.411 7.75626 102.213 7.72092 102.326C7.71385 102.347 7.69265 102.347 7.67851 102.312C7.58663 102.114 7.56543 102.298 7.48768 102.142C7.43821 102.043 7.42407 102.093 7.43114 102.206C7.43821 102.305 7.43114 102.361 7.3958 102.369C7.25444 102.397 7.12722 102.453 6.98587 102.482C6.90105 102.496 6.80917 102.517 6.71022 102.475C6.52645 102.397 6.37803 102.446 6.21547 102.453C6.12358 102.453 6.0105 102.404 5.90448 102.347C5.86208 102.326 5.82674 102.326 5.80553 102.376C5.6147 102.771 5.33199 102.835 5.04221 102.877C4.9998 102.884 4.92912 102.793 4.89378 102.821C4.85844 102.849 4.83017 102.913 4.77363 102.856C4.73122 102.821 4.70295 102.863 4.68174 102.927C4.61107 103.224 4.44144 103.16 4.29302 103.153C4.19407 103.153 4.08098 103.089 3.9891 103.097C3.89015 103.104 3.8124 103.167 3.72052 103.21C3.70638 103.217 3.69224 103.238 3.67104 103.231C3.58623 103.21 3.48021 103.132 3.4166 103.181C3.35299 103.231 3.30351 103.33 3.22577 103.33C3.1975 103.33 3.17629 103.351 3.15509 103.379C3.07734 103.492 3.00666 103.641 2.83703 103.365C2.78049 103.386 2.72395 103.408 2.66034 103.429C2.63207 103.436 2.61087 103.492 2.56846 103.443C2.46244 103.302 2.42003 103.358 2.41296 103.57C2.4059 103.683 2.36349 103.711 2.33522 103.761C2.31401 103.803 2.29281 103.825 2.2292 103.676C2.208 103.634 2.17266 103.605 2.17266 103.641C2.16559 103.768 2.10198 103.669 2.07371 103.704C2.0313 103.747 1.98889 103.747 1.91115 103.62C1.88994 103.577 1.86167 103.591 1.8546 103.641C1.82633 103.952 1.72032 104.008 1.6143 104.072C1.44467 104.171 1.26091 104.227 1.06301 104.227C1.03474 104.227 1.00646 104.234 0.992325 104.27C0.935782 104.397 0.843901 104.397 0.759087 104.404C0.723748 104.411 0.702543 104.446 0.667204 104.468C0.589458 104.256 0.61773 104.468 0.596527 104.482C0.568255 104.503 0.518779 104.439 0.490508 104.496C0.455169 104.56 0.398628 104.531 0.349153 104.531C0.264339 104.531 0.186591 104.369 0.0876406 104.001C0.0735049 103.938 0.0523015 103.881 0.0381658 103.817C-0.00424127 103.648 -0.0113083 103.556 0.0169631 103.506C0.0523024 103.45 0.0805737 103.344 0.130049 103.365C0.243134 103.422 0.306745 103.28 0.384492 103.203C0.497577 103.082 0.61773 102.976 0.759087 102.948C0.850969 102.934 0.935784 102.899 1.02767 102.87C1.11248 102.842 1.18316 102.757 1.25384 102.694C1.32452 102.644 1.38813 102.581 1.46587 102.588C1.60723 102.602 1.72739 102.51 1.86874 102.517C1.90408 102.517 1.93942 102.517 1.96769 102.489C2.06664 102.376 2.16559 102.284 2.29988 102.305C2.31402 102.305 2.33522 102.312 2.33522 102.277C2.33522 102.015 2.4271 102.086 2.49071 102.065C2.66034 102.001 2.83703 101.959 3.01373 101.909C3.22577 101.846 3.4378 101.775 3.64984 101.718C3.78413 101.683 3.90428 101.612 4.05271 101.655C4.14459 101.683 4.2082 101.605 4.29302 101.584C4.44144 101.549 4.59693 101.563 4.74536 101.527C4.99273 101.464 5.2401 101.386 5.48748 101.308C5.50161 101.301 5.51575 101.287 5.52989 101.266C5.70659 101.004 5.93982 100.99 6.17306 100.948C6.39216 100.906 6.59713 100.828 6.81624 100.785C6.96466 100.757 7.12015 100.771 7.27564 100.764C7.40287 100.757 7.52302 100.743 7.65024 100.75C7.78453 100.757 7.91175 100.701 8.07432 100.799C8.12379 100.828 8.15913 100.821 8.20154 100.821C8.4065 100.828 8.61147 100.821 8.81644 100.835C8.86591 100.835 8.92246 100.87 9.00727 101.054C9.04968 101.146 9.09208 101.181 9.12742 101.181C9.21931 101.188 9.31825 101.245 9.3748 101.132C9.41014 101.054 9.48789 101.153 9.54443 101.167C9.5515 101.167 9.5727 101.231 9.5727 101.252C9.5939 101.365 9.61511 101.4 9.63631 101.4C9.67872 101.4 9.68578 101.259 9.74939 101.372C9.82714 101.513 9.85541 101.761 9.91902 101.952C9.9897 102.157 9.9685 102.284 10.0109 102.467C10.018 102.496 10.0038 102.524 9.9897 102.531C9.9685 102.531 9.94023 102.531 9.88368 102.545Z" fill="#A6C5F3"/>
<path d="M14.1882 108.913C14.1388 108.913 14.0681 108.913 13.9974 108.913C13.9621 108.913 13.9126 108.906 13.8843 108.906C13.856 108.906 13.8419 108.913 13.7429 108.842C13.6511 108.772 13.6581 108.8 13.7005 108.863C13.7288 108.899 13.7571 108.948 13.7429 108.955C13.6864 108.969 13.6087 108.962 13.5592 108.984C13.5238 108.998 13.4885 109.005 13.3684 108.927C13.2906 108.878 13.3542 108.962 13.4037 109.033C13.4673 109.118 13.432 109.097 13.2553 108.948C13.1493 108.856 13.128 108.849 13.2129 108.934C13.2906 109.019 13.3754 109.104 13.3613 109.111C13.3118 109.139 13.2765 109.181 13.2199 109.203C13.2058 109.21 13.227 109.273 13.015 109.054C13.0008 109.04 12.9726 109.019 12.9726 109.019C12.9443 109.026 12.916 109.033 12.8877 109.04C13.0291 109.217 12.8453 109.09 12.9019 109.189C12.9089 109.21 12.9019 109.21 12.8736 109.189C12.704 109.054 12.81 109.203 12.6686 109.097C12.5838 109.033 12.605 109.075 12.6757 109.153C12.7393 109.224 12.7676 109.273 12.7534 109.28C12.6969 109.33 12.6616 109.401 12.605 109.45C12.5697 109.478 12.5343 109.514 12.4566 109.5C12.3152 109.478 12.2587 109.549 12.1739 109.584C12.1244 109.606 12.0396 109.591 11.9477 109.57C11.9124 109.563 11.8912 109.57 11.9124 109.613C12.0537 109.959 11.9336 110.058 11.8134 110.157C11.7922 110.171 11.7003 110.114 11.7003 110.143C11.7003 110.171 11.7215 110.228 11.6579 110.199C11.6155 110.178 11.6226 110.22 11.6509 110.27C11.7922 110.51 11.665 110.496 11.5802 110.524C11.5236 110.546 11.4247 110.517 11.3823 110.546C11.3328 110.574 11.3328 110.637 11.3045 110.687C11.2975 110.694 11.3045 110.715 11.2904 110.715C11.2339 110.722 11.1278 110.68 11.1208 110.729C11.1137 110.779 11.149 110.864 11.1137 110.885C11.0996 110.892 11.0996 110.913 11.1066 110.934C11.1349 111.033 11.1844 111.168 10.9299 110.991C10.9087 111.019 10.8946 111.047 10.8734 111.076C10.8663 111.09 10.8875 111.139 10.831 111.104C10.6896 111.019 10.6967 111.069 10.8239 111.231C10.8946 111.323 10.8805 111.344 10.9017 111.394C10.9158 111.429 10.9158 111.45 10.7886 111.351C10.7532 111.323 10.7179 111.309 10.732 111.337C10.8027 111.436 10.7108 111.373 10.7179 111.408C10.725 111.45 10.6967 111.457 10.5836 111.38C10.5483 111.351 10.5412 111.373 10.5695 111.408C10.7391 111.648 10.725 111.719 10.7038 111.79C10.6684 111.903 10.6119 111.98 10.5059 112.023C10.4917 112.03 10.4776 112.037 10.4917 112.072C10.5412 112.178 10.4917 112.199 10.4493 112.228C10.4352 112.235 10.4423 112.27 10.4423 112.298C10.2726 112.15 10.414 112.305 10.414 112.32C10.414 112.341 10.3504 112.305 10.3645 112.348C10.3857 112.404 10.3362 112.39 10.308 112.404C10.2656 112.419 10.1242 112.313 9.84856 112.051C9.79909 112.009 9.75668 111.966 9.70721 111.917C9.57999 111.797 9.51637 111.726 9.50224 111.684C9.48104 111.627 9.43863 111.549 9.48104 111.556C9.57292 111.57 9.52345 111.457 9.51638 111.38C9.50224 111.266 9.50224 111.16 9.55878 111.111C9.59412 111.076 9.62239 111.033 9.65773 110.998C9.686 110.963 9.67187 110.878 9.67187 110.814C9.67893 110.758 9.67187 110.694 9.72135 110.687C9.80616 110.666 9.81323 110.574 9.89097 110.546C9.91218 110.539 9.93338 110.531 9.92631 110.503C9.91217 110.397 9.90511 110.305 9.98992 110.291C9.99699 110.291 10.0111 110.291 9.98992 110.263C9.83443 110.065 9.92631 110.1 9.94045 110.065C9.98992 109.98 10.0606 109.909 10.1242 109.839C10.202 109.747 10.2726 109.648 10.3504 109.563C10.3999 109.507 10.4211 109.429 10.5271 109.429C10.5907 109.429 10.5836 109.358 10.6119 109.33C10.6684 109.273 10.7603 109.252 10.8169 109.189C10.9158 109.09 10.9936 108.977 11.0784 108.863C11.0854 108.856 11.0784 108.842 11.0784 108.821C11.0077 108.581 11.1278 108.524 11.2268 108.439C11.3187 108.362 11.3823 108.256 11.4742 108.185C11.5378 108.135 11.6297 108.107 11.7074 108.072C11.771 108.044 11.8276 108.008 11.8982 107.98C11.976 107.952 12.0043 107.888 12.1527 107.93C12.1951 107.945 12.2092 107.93 12.2375 107.923C12.3506 107.881 12.4566 107.839 12.5768 107.803C12.605 107.796 12.6545 107.81 12.81 107.93C12.8877 107.987 12.9372 108.008 12.9514 108.008C13.0079 107.994 13.0927 108.015 13.0503 107.916C13.022 107.853 13.121 107.909 13.1634 107.909C13.1634 107.909 13.2129 107.952 13.2341 107.966C13.3189 108.051 13.3472 108.072 13.3542 108.065C13.3754 108.058 13.2906 107.945 13.3966 108.022C13.5238 108.114 13.6935 108.298 13.8348 108.432C13.9974 108.574 14.061 108.68 14.1953 108.814C14.2165 108.835 14.2236 108.856 14.2236 108.863C14.2236 108.885 14.2094 108.892 14.1882 108.913Z" fill="#A6C5F3"/>
<path d="M30.8828 45.3665C30.7485 45.2534 30.5718 45.218 30.3951 45.2534L20.0054 47.5646C19.7439 47.6211 19.5531 47.8544 19.5531 48.13V57.2617C19.0724 56.9719 18.4717 56.7881 17.8214 56.7881C16.2312 56.7881 14.9377 57.8271 14.9377 59.0993C14.9377 60.3715 16.2312 61.4105 17.8214 61.4105C19.4117 61.4105 20.7051 60.3715 20.7051 59.0993V52.0597L29.9428 50.01V54.9575C29.4622 54.6678 28.8614 54.484 28.2112 54.484C26.6209 54.484 25.3275 55.523 25.3275 56.7952C25.3275 58.0674 26.6209 59.1064 28.2112 59.1064C29.8014 59.1064 31.0949 58.0674 31.0949 56.7952V45.8259C31.1019 45.635 31.0242 45.4725 30.8828 45.3665Z" fill="#A6C5F3"/>
<path d="M27.5189 46.4126C26.5365 46.561 25.547 46.7307 24.5646 46.8437C23.6881 46.9498 22.8259 47.0417 21.9707 47.3385C21.7516 47.4163 21.4971 47.4445 21.2639 47.5011L20.6207 47.6424L20.3026 47.7131C20.2178 47.7343 20.1401 47.7484 20.0623 47.7767C19.9139 47.8333 19.8644 48.0099 19.8291 48.123C19.8079 48.2008 19.8008 48.2785 19.7867 48.3634L19.7584 48.7026C19.7443 48.9288 19.7372 49.162 19.7301 49.3882C19.7231 49.8476 19.7443 50.2999 19.8008 50.7593C19.6665 51.4732 19.7655 52.18 19.8079 52.8938C19.8503 53.6147 19.822 54.3427 19.928 55.0495C19.9563 55.2404 19.9634 55.4524 19.9493 55.6432C19.9351 55.8058 19.921 55.8977 19.9139 56.1238L19.8927 56.7246L19.8786 57.3112C19.8644 57.495 19.9139 57.7636 19.7938 57.7495C19.4121 57.5445 18.988 57.3042 18.6134 57.2052C18.3873 57.1487 18.3166 57.1487 18.1752 57.1345C18.048 57.1275 17.9137 57.1204 17.7865 57.1275C16.6768 57.177 15.5106 57.7495 15.1926 58.8308C15.0159 59.4104 15.2986 60.0889 15.7863 60.4988C16.3588 61.0148 17.1575 61.2198 17.9137 61.1915C18.465 61.1703 19.0163 61.0148 19.4545 60.7109C19.8998 60.4211 20.239 59.9758 20.3168 59.5023C20.3451 59.3397 20.3451 59.2054 20.3309 59.0217L20.2885 58.435L20.2108 57.2618L20.0835 54.9152C20.0623 54.5194 20.0694 54.1166 20.0765 53.7137C20.0906 53.2543 20.0977 52.7878 20.1118 52.3284L20.1259 51.558L24.9038 50.6251C26.0912 50.3847 27.2715 50.1091 28.4519 49.8264L30.5157 49.3246L30.5722 51.9397L30.6005 53.5158L30.6146 54.7668L30.6217 55.4595L30.6288 55.8058C30.6358 55.9472 30.6076 55.9613 30.6005 56.0744C30.0775 55.7987 29.4767 55.3959 28.9961 55.2545L28.8123 55.205L28.7134 55.1909L28.5438 55.1697C28.4307 55.1626 28.3105 55.1556 28.1974 55.1626C27.731 55.1838 27.2786 55.311 26.9111 55.5372C26.1407 56.0037 25.9145 56.8236 26.3527 57.4102C26.6566 57.8343 27.2362 58.124 27.837 58.1877C28.1409 58.223 28.4519 58.2159 28.7487 58.1665C29.3 58.0746 29.8089 57.7848 30.0775 57.4102C30.2118 57.2194 30.2824 57.0215 30.2966 56.8165L30.3107 55.721L30.3249 49.3034L30.3319 47.4869L30.3107 46.5822L30.2895 46.1299L30.2754 45.9037L30.2683 45.8472V45.833V45.826C30.2118 45.826 30.7913 45.826 30.544 45.826H30.551C30.5652 45.8189 30.5369 45.833 30.551 45.826C30.5298 45.8401 30.6076 45.7765 30.6782 45.7553C30.7489 45.7341 30.8267 45.727 30.9044 45.7553C30.9822 45.7765 31.0458 45.8613 31.1023 45.9673C31.1589 46.0663 31.2154 46.1864 31.2578 46.3349C31.378 46.7307 31.4699 47.0982 31.4274 47.5859C31.3638 48.2927 31.4981 49.0419 31.3214 49.7416C31.2932 49.8405 31.3073 49.9819 31.3144 50.102C31.5123 52.1871 31.4062 54.2862 31.385 56.3853C31.378 56.7105 31.4062 57.1063 31.279 57.4879C31.1659 57.8625 30.9468 58.1947 30.6782 58.4633C30.3249 58.8096 29.8937 59.057 29.4343 59.2054C28.7629 59.4175 28.049 59.4175 27.3705 59.269C26.8687 59.163 26.3386 58.9651 26.0841 58.534C26.0276 58.4492 25.8297 58.2654 25.7378 58.223C25.3632 58.0534 25.1371 57.5939 25.0734 57.1345C24.9816 56.5055 25.1865 55.8482 25.5894 55.3888C25.9781 54.9152 26.5082 54.5972 27.0595 54.4134C27.4694 54.2791 27.9077 54.2085 28.3388 54.2085C28.5579 54.2085 28.777 54.2226 28.989 54.2579C29.1163 54.2721 29.2364 54.3003 29.3424 54.3357C29.4131 54.3569 29.4767 54.3852 29.5333 54.4064C29.6322 54.4912 29.5898 54.3427 29.5827 54.265L29.5615 54.0106C29.5474 53.8197 29.5262 53.7844 29.5121 53.4451L29.4202 51.77L29.406 51.3318L29.399 51.1127L29.3919 51.035L29.3707 50.7664L29.1587 50.83L29.0597 50.8583L28.7699 50.929C28.5367 50.9855 28.3105 51.0703 28.0773 51.1269C27.6461 51.2329 27.2009 51.3672 26.7839 51.4025C26.3174 51.4449 25.964 51.5085 25.5823 51.7418C25.3632 51.869 24.9957 51.9467 24.6847 52.0033C24.296 52.074 23.8931 52.1022 23.5044 52.1376C23.0379 52.1729 22.5926 52.2012 22.1262 52.4203C21.9989 52.4768 21.8434 52.5192 21.6809 52.5475L21.5678 52.5687H21.5325L21.4547 52.5616C21.4123 52.5546 21.3699 52.5546 21.3275 52.5546C21.3133 52.5899 21.2992 52.6394 21.2851 52.6959L21.2709 52.7808L21.2568 53.014C21.2427 53.325 21.2285 53.6359 21.2285 53.954C21.2215 54.583 21.2356 55.205 21.2568 55.8341L21.3699 58.6117L21.384 58.9581L21.3911 59.1347L21.384 59.368C21.3558 59.679 21.2921 59.9899 21.1579 60.2727C20.8963 60.8381 20.4723 61.2834 19.9846 61.6014C19.2213 62.0962 18.3024 62.2729 17.426 62.2022C16.7404 62.1386 16.0478 61.9195 15.4612 61.4883C14.8745 61.0713 14.3657 60.414 14.2314 59.6083C14.0829 58.8167 14.3444 57.9615 14.8392 57.3961C15.3198 56.8165 15.963 56.456 16.6203 56.2652C17.1433 56.1168 17.6805 56.0744 18.2106 56.0885C18.3519 56.0885 18.4933 56.1026 18.6276 56.1238C18.7265 56.138 18.6841 56.1309 18.7053 56.1309H18.7265C18.7548 56.1309 18.7689 56.138 18.7901 56.145C18.8184 56.1592 18.8043 56.1026 18.8184 56.0885L18.8325 56.0461C18.8325 56.0249 18.8396 56.0461 18.8396 55.9966L18.8467 55.7916C18.9103 54.576 18.8467 53.3674 18.7831 52.1588C18.7689 51.8761 18.7336 51.5934 18.7477 51.3177C18.7901 50.3494 18.776 49.3811 18.7548 48.4058C18.7124 47.9393 18.8325 47.4657 19.1647 47.1406C19.3273 46.978 19.5252 46.8579 19.7443 46.7801C19.8574 46.7448 19.9775 46.7236 20.0906 46.6953L20.2673 46.6529C20.7409 46.5398 21.2144 46.4338 21.6879 46.3349C23.2217 46.0168 24.7695 45.7624 26.3174 45.4938L29.8937 44.9001C29.9715 44.886 30.0492 44.8577 30.127 44.8436C30.2188 44.8294 30.2683 44.8223 30.3814 44.8153C30.5086 44.8082 30.6217 44.8224 30.7136 44.8506C30.9044 44.9072 31.0104 45.0202 31.0458 45.1051C31.1235 45.2818 30.961 45.3171 30.7631 45.3948C30.6783 45.4373 30.6076 45.4867 30.551 45.5433C30.5157 45.5715 30.5157 45.5998 30.4733 45.6281C30.4309 45.6634 30.3814 45.6917 30.3249 45.727C30.1199 45.8472 29.8655 45.9461 29.5615 46.0097L27.5472 46.4055L27.5189 46.4126Z" fill="#A6C5F3"/>
<path d="M12.5698 9.54636C12.7818 9.52516 12.9585 9.47569 13.2129 9.50396C13.4391 9.52516 13.6653 9.54637 13.6158 9.31313C13.6017 9.24952 13.6653 9.25659 13.6865 9.22125C13.7289 9.1647 13.7784 9.12229 13.8137 9.05868C13.8278 9.03041 13.7642 8.92439 13.8137 8.93146C14.054 8.95973 14.1954 8.88905 14.1318 8.64168C14.4074 8.74063 14.3367 8.52858 14.3579 8.38722C14.3721 8.24587 14.4922 8.20347 14.4145 7.9773C14.3933 7.92075 14.4003 7.87834 14.4498 7.88541C14.7396 7.90662 14.8032 7.71579 14.888 7.53909C14.9728 7.35533 15.1637 7.25637 15.4817 7.28464C15.6513 7.29878 15.722 7.21397 15.7927 7.13622C15.8775 7.04434 15.9058 6.89592 15.9765 6.7899C16.0825 6.63441 16.1461 6.44357 16.132 6.18206C16.1108 5.82866 16.132 5.51061 16.1956 5.22789C16.2238 5.08654 16.3793 5.0512 16.4924 4.98759C16.7257 4.86037 16.9942 4.76142 17.2133 4.61299C17.3759 4.49991 17.4819 4.34442 17.5879 4.17479C17.6798 4.0193 17.7222 3.81434 17.807 3.65178C18.0685 3.17116 18.3371 2.70467 18.5986 2.22406C18.6622 2.11097 18.6976 1.96961 18.7541 1.84946C18.7824 1.78585 18.8248 1.74345 18.8743 1.70104C19.058 1.55262 19.2559 1.41832 19.4326 1.25576C19.68 1.02253 19.8921 0.76809 20.1394 0.534851C20.2808 0.400562 20.4433 0.294543 20.4363 0.0259651C20.4363 -0.0517812 20.5635 0.0471722 20.7967 0.294547C21.2067 0.718618 21.6307 1.15682 21.8286 1.46074C21.9629 1.66571 22.0548 1.83533 21.9417 1.82826C21.7721 1.82119 21.8923 2.09685 21.5601 1.93429C21.5106 1.91309 21.5106 1.94135 21.5106 1.96962C21.5813 2.48558 21.1996 2.57746 20.9381 2.7895C20.8533 2.86018 20.825 2.98033 20.7685 3.07221C20.7261 3.12875 20.6836 3.18529 20.6271 3.2277C20.5494 3.29131 20.4363 3.32665 20.3868 3.4256C20.3515 3.49628 20.3797 3.63056 20.0758 3.43973C20.0122 3.39732 19.9981 3.43973 20.0475 3.51041C20.2454 3.77192 20.1748 3.79313 20.1253 3.82847C19.991 3.93449 19.8355 4.02637 19.7224 4.15359C19.6376 4.24547 19.5881 4.37975 19.5599 4.52111C19.5175 4.74728 19.5175 5.01586 19.468 5.23497C19.4256 5.41873 19.3266 5.55302 19.2559 5.71558C19.2418 5.75092 19.263 5.82867 19.2418 5.85694C19.2065 5.92055 19.2135 6.02658 19.0863 5.99831C18.945 5.97004 18.8884 5.99123 19.051 6.23154C19.1429 6.36583 19.0934 6.40117 19.0368 6.41531C18.9662 6.43651 18.846 6.40823 18.7259 6.37996C18.5845 6.34462 18.4361 6.30223 18.535 6.50719C18.5916 6.62028 18.4997 6.61321 18.4078 6.592C18.012 6.51426 17.8848 6.69095 17.807 6.91712C17.701 7.22104 17.6374 7.55322 17.5455 7.86421C17.5102 7.98436 17.4395 8.07625 17.3759 8.1752C17.1851 8.48618 16.8811 8.68408 16.5631 8.88198C16.4995 8.91732 16.4288 8.95267 16.4288 9.04455C16.4288 9.26365 16.2945 9.35554 16.1107 9.39794C15.8916 9.45449 15.8492 9.67358 15.8139 9.89975C15.8068 9.94923 15.828 10.034 15.7786 10.0482C15.4464 10.1613 15.4534 10.5783 15.199 10.762C14.994 10.9105 14.7042 10.9741 14.4286 11.0589C14.2166 11.1225 13.9763 11.1578 13.7572 11.2144C13.743 11.2144 13.7501 11.2426 13.7359 11.2497C13.5946 11.2639 13.2624 11.0094 12.8313 10.5359C12.4496 10.1189 12.2588 9.8432 12.3294 9.77959C12.4143 9.70891 12.5203 9.66651 12.6192 9.60997C12.6122 9.5817 12.591 9.56756 12.5698 9.54636Z" fill="#A6C5F3"/>
<path d="M22.7255 9.54636C22.9375 9.52516 23.1142 9.47569 23.3687 9.50396C23.5949 9.52516 23.821 9.54637 23.7716 9.31313C23.7574 9.24952 23.821 9.25659 23.8422 9.22125C23.8846 9.1647 23.9341 9.12229 23.9695 9.05868C23.9836 9.03041 23.92 8.92439 23.9695 8.93146C24.2098 8.95973 24.3511 8.88905 24.2875 8.64168C24.5632 8.74063 24.4925 8.52858 24.5137 8.38722C24.5278 8.24587 24.648 8.20347 24.5702 7.9773C24.549 7.92075 24.5561 7.87834 24.6056 7.88541C24.8953 7.90662 24.959 7.71579 25.0438 7.53909C25.1286 7.35533 25.3194 7.25637 25.6375 7.28464C25.8071 7.29878 25.8778 7.21397 25.9485 7.13622C26.0333 7.04434 26.0615 6.89592 26.1322 6.7899C26.2382 6.63441 26.3018 6.44357 26.2877 6.18206C26.2665 5.82866 26.2877 5.51061 26.3513 5.22789C26.3796 5.08654 26.5351 5.0512 26.6482 4.98759C26.8814 4.86037 27.15 4.76142 27.3691 4.61299C27.5317 4.49991 27.6377 4.34442 27.7437 4.17479C27.8356 4.0193 27.878 3.81434 27.9628 3.65178C28.2243 3.17116 28.4929 2.70467 28.7544 2.22406C28.818 2.11097 28.8533 1.96961 28.9099 1.84946C28.9382 1.78585 28.9806 1.74345 29.03 1.70104C29.2138 1.55262 29.4117 1.41832 29.5884 1.25576C29.8358 1.02253 30.0478 0.76809 30.2952 0.534851C30.4365 0.400562 30.5991 0.294543 30.592 0.0259651C30.592 -0.0517812 30.7193 0.0471722 30.9525 0.294547C31.3624 0.718618 31.7865 1.15682 31.9844 1.46074C32.1187 1.66571 32.2106 1.83533 32.0975 1.82826C31.9279 1.82119 32.048 2.09685 31.7158 1.93429C31.6663 1.91309 31.6663 1.94135 31.6663 1.96962C31.737 2.48558 31.3554 2.57746 31.0939 2.7895C31.009 2.86018 30.9808 2.98033 30.9242 3.07221C30.8818 3.12875 30.8394 3.18529 30.7829 3.2277C30.7051 3.29131 30.592 3.32665 30.5426 3.4256C30.5072 3.49628 30.5355 3.63056 30.2316 3.43973C30.168 3.39732 30.1538 3.43973 30.2033 3.51041C30.4012 3.77192 30.3305 3.79313 30.281 3.82847C30.1468 3.93449 29.9913 4.02637 29.8782 4.15359C29.7934 4.24547 29.7439 4.37975 29.7156 4.52111C29.6732 4.74728 29.6732 5.01586 29.6237 5.23497C29.5813 5.41873 29.4824 5.55302 29.4117 5.71558C29.3976 5.75092 29.4188 5.82867 29.3976 5.85694C29.3622 5.92055 29.3693 6.02658 29.2421 5.99831C29.1007 5.97004 29.0442 5.99123 29.2067 6.23154C29.2986 6.36583 29.2491 6.40117 29.1926 6.41531C29.1219 6.43651 29.0018 6.40823 28.8816 6.37996C28.7403 6.34462 28.5918 6.30223 28.6908 6.50719C28.7473 6.62028 28.6554 6.61321 28.5636 6.592C28.1678 6.51426 28.0405 6.69095 27.9628 6.91712C27.8568 7.22104 27.7932 7.55322 27.7013 7.86421C27.6659 7.98436 27.5953 8.07625 27.5317 8.1752C27.3408 8.48618 27.0369 8.68408 26.7189 8.88198C26.6552 8.91732 26.5846 8.95267 26.5846 9.04455C26.5846 9.26365 26.4503 9.35554 26.2665 9.39794C26.0474 9.45449 26.005 9.67358 25.9697 9.89975C25.9626 9.94923 25.9838 10.034 25.9343 10.0482C25.6021 10.1613 25.6092 10.5783 25.3548 10.762C25.1498 10.9105 24.86 10.9741 24.5844 11.0589C24.3723 11.1225 24.132 11.1578 23.9129 11.2144C23.8988 11.2144 23.9129 11.2426 23.8917 11.2497C23.7504 11.2639 23.4182 11.0094 22.987 10.5359C22.6054 10.1189 22.4145 9.8432 22.4852 9.77959C22.57 9.70891 22.676 9.66651 22.775 9.60997C22.7679 9.5817 22.7467 9.56756 22.7255 9.54636Z" fill="#A6C5F3"/>
<path d="M33.0104 9.54636C33.2225 9.52516 33.3992 9.47569 33.6536 9.50396C33.8798 9.52516 34.1059 9.54637 34.0565 9.31313C34.0423 9.24952 34.1059 9.25659 34.1272 9.22125C34.1696 9.1647 34.219 9.12229 34.2544 9.05868C34.2685 9.03041 34.2049 8.92439 34.2544 8.93146C34.4947 8.95973 34.636 8.88905 34.5724 8.64168C34.8481 8.74063 34.7774 8.52858 34.7986 8.38722C34.8127 8.24587 34.9329 8.20347 34.8551 7.9773C34.8339 7.92075 34.841 7.87834 34.8905 7.88541C35.1803 7.90662 35.2439 7.71579 35.3287 7.53909C35.4135 7.35533 35.6043 7.25637 35.9224 7.28464C36.092 7.29878 36.1627 7.21397 36.2334 7.13622C36.3182 7.04434 36.3465 6.89592 36.4171 6.7899C36.5232 6.63441 36.5868 6.44357 36.5726 6.18206C36.5514 5.82866 36.5726 5.51061 36.6362 5.22789C36.6645 5.08654 36.82 5.0512 36.9331 4.98759C37.1663 4.86037 37.4349 4.76142 37.654 4.61299C37.8166 4.49991 37.9226 4.34442 38.0286 4.17479C38.1205 4.0193 38.1629 3.81434 38.2477 3.65178C38.5092 3.17116 38.7778 2.70467 39.0393 2.22406C39.1029 2.11097 39.1383 1.96961 39.1948 1.84946C39.2231 1.78585 39.2655 1.74345 39.315 1.70104C39.4987 1.55262 39.6966 1.41832 39.8733 1.25576C40.1207 1.02253 40.3327 0.76809 40.5801 0.534851C40.7215 0.400562 40.884 0.294543 40.8769 0.0259651C40.8769 -0.0517812 41.0042 0.0471722 41.2374 0.294547C41.6473 0.718618 42.0714 1.15682 42.2693 1.46074C42.4036 1.66571 42.4955 1.83533 42.3824 1.82826C42.2128 1.82119 42.3329 2.09685 42.0007 1.93429C41.9513 1.91309 41.9513 1.94135 41.9513 1.96962C42.0219 2.48558 41.6403 2.57746 41.3788 2.7895C41.294 2.86018 41.2657 2.98033 41.2091 3.07221C41.1667 3.12875 41.1243 3.18529 41.0678 3.2277C40.99 3.29131 40.8769 3.32665 40.8275 3.4256C40.7921 3.49628 40.8204 3.63056 40.5165 3.43973C40.4529 3.39732 40.4387 3.43973 40.4882 3.51041C40.6861 3.77192 40.6154 3.79313 40.566 3.82847C40.4317 3.93449 40.2762 4.02637 40.1631 4.15359C40.0783 4.24547 40.0288 4.37975 40.0005 4.52111C39.9581 4.74728 39.9581 5.01586 39.9087 5.23497C39.8662 5.41873 39.7673 5.55302 39.6966 5.71558C39.6825 5.75092 39.7037 5.82867 39.6825 5.85694C39.6471 5.92055 39.6542 6.02658 39.527 5.99831C39.3856 5.97004 39.3291 5.99123 39.4916 6.23154C39.5835 6.36583 39.5341 6.40117 39.4775 6.41531C39.4068 6.43651 39.2867 6.40823 39.1665 6.37996C39.0252 6.34462 38.8767 6.30223 38.9757 6.50719C39.0322 6.62028 38.9404 6.61321 38.8485 6.592C38.4527 6.51426 38.3255 6.69095 38.2477 6.91712C38.1417 7.22104 38.0781 7.55322 37.9862 7.86421C37.9509 7.98436 37.8802 8.07625 37.8166 8.1752C37.6257 8.48618 37.3218 8.68408 37.0038 8.88198C36.9402 8.91732 36.8695 8.95267 36.8695 9.04455C36.8695 9.26365 36.7352 9.35554 36.5514 9.39794C36.3323 9.45449 36.2899 9.67358 36.2546 9.89975C36.2475 9.94923 36.2687 10.034 36.2192 10.0482C35.887 10.1613 35.8941 10.5783 35.6397 10.762C35.4347 10.9105 35.1449 10.9741 34.8693 11.0589C34.6572 11.1225 34.4169 11.1578 34.1978 11.2144C34.1837 11.2144 34.1978 11.2426 34.1766 11.2497C34.0353 11.2639 33.7031 11.0094 33.2719 10.5359C32.8903 10.1189 32.6994 9.8432 32.7701 9.77959C32.8549 9.70891 32.961 9.66651 33.0599 9.60997C33.0528 9.5817 33.0316 9.56756 33.0104 9.54636Z" fill="#A6C5F3"/>
<path d="M43.8217 9.54636C44.0337 9.52516 44.2104 9.47569 44.4649 9.50396C44.6911 9.52516 44.9172 9.54637 44.8677 9.31313C44.8536 9.24952 44.9172 9.25659 44.9384 9.22125C44.9808 9.1647 45.0303 9.12229 45.0656 9.05868C45.0798 9.03041 45.0162 8.92439 45.0656 8.93146C45.306 8.95973 45.4473 8.88905 45.3837 8.64168C45.6594 8.74063 45.5887 8.52858 45.6099 8.38722C45.624 8.24587 45.7442 8.20347 45.6664 7.9773C45.6452 7.92075 45.6523 7.87834 45.7018 7.88541C45.9915 7.90662 46.0552 7.71579 46.14 7.53909C46.2248 7.35533 46.4156 7.25637 46.7337 7.28464C46.9033 7.29878 46.974 7.21397 47.0446 7.13622C47.1295 7.04434 47.1577 6.89592 47.2284 6.7899C47.3344 6.63441 47.398 6.44357 47.3839 6.18206C47.3627 5.82866 47.3839 5.51061 47.4475 5.22789C47.4758 5.08654 47.6313 5.0512 47.7444 4.98759C47.9776 4.86037 48.2462 4.76142 48.4653 4.61299C48.6278 4.49991 48.7339 4.34442 48.8399 4.17479C48.9318 4.0193 48.9742 3.81434 49.059 3.65178C49.3205 3.17116 49.5891 2.70467 49.8506 2.22406C49.9142 2.11097 49.9495 1.96961 50.0061 1.84946C50.0344 1.78585 50.0768 1.74345 50.1262 1.70104C50.31 1.55262 50.5079 1.41832 50.6846 1.25576C50.932 1.02253 51.144 0.76809 51.3914 0.534851C51.5327 0.400562 51.6953 0.294543 51.6882 0.0259651C51.6882 -0.0517812 51.8154 0.0471722 52.0487 0.294547C52.4586 0.718618 52.8827 1.15682 53.0806 1.46074C53.2149 1.66571 53.3068 1.83533 53.1937 1.82826C53.024 1.82119 53.1442 2.09685 52.812 1.93429C52.7625 1.91309 52.7625 1.94135 52.7625 1.96962C52.8332 2.48558 52.4516 2.57746 52.19 2.7895C52.1052 2.86018 52.077 2.98033 52.0204 3.07221C51.978 3.12875 51.9356 3.18529 51.8791 3.2277C51.8013 3.29131 51.6882 3.32665 51.6388 3.4256C51.6034 3.49628 51.6317 3.63056 51.3278 3.43973C51.2642 3.39732 51.25 3.43973 51.2995 3.51041C51.4974 3.77192 51.4267 3.79313 51.3772 3.82847C51.243 3.93449 51.0875 4.02637 50.9744 4.15359C50.8896 4.24547 50.8401 4.37975 50.8118 4.52111C50.7694 4.74728 50.7694 5.01586 50.7199 5.23497C50.6775 5.41873 50.5786 5.55302 50.5079 5.71558C50.4938 5.75092 50.515 5.82867 50.4938 5.85694C50.4584 5.92055 50.4655 6.02658 50.3383 5.99831C50.1969 5.97004 50.1404 5.99123 50.3029 6.23154C50.3948 6.36583 50.3453 6.40117 50.2888 6.41531C50.2181 6.43651 50.098 6.40823 49.9778 6.37996C49.8364 6.34462 49.688 6.30223 49.787 6.50719C49.8435 6.62028 49.7516 6.61321 49.6598 6.592C49.264 6.51426 49.1367 6.69095 49.059 6.91712C48.953 7.22104 48.8894 7.55322 48.7975 7.86421C48.7621 7.98436 48.6915 8.07625 48.6279 8.1752C48.437 8.48618 48.1331 8.68408 47.815 8.88198C47.7514 8.91732 47.6808 8.95267 47.6808 9.04455C47.6808 9.26365 47.5465 9.35554 47.3627 9.39794C47.1436 9.45449 47.1012 9.67358 47.0659 9.89975C47.0588 9.94923 47.08 10.034 47.0305 10.0482C46.6983 10.1613 46.7054 10.5783 46.451 10.762C46.246 10.9105 45.9562 10.9741 45.6806 11.0589C45.4685 11.1225 45.2282 11.1578 45.0091 11.2144C44.995 11.2144 45.0091 11.2426 44.9879 11.2497C44.8465 11.2639 44.5144 11.0094 44.0832 10.5359C43.7016 10.1189 43.5107 9.8432 43.5814 9.77959C43.6662 9.70891 43.7722 9.66651 43.8712 9.60997C43.8641 9.5817 43.8429 9.56756 43.8217 9.54636Z" fill="#A6C5F3"/>
<path d="M54.4333 9.54636C54.6453 9.52516 54.822 9.47569 55.0765 9.50396C55.3026 9.52516 55.5288 9.54637 55.4793 9.31313C55.4652 9.24952 55.5288 9.25659 55.55 9.22125C55.5924 9.1647 55.6419 9.12229 55.6772 9.05868C55.6914 9.03041 55.6277 8.92439 55.6772 8.93146C55.9175 8.95973 56.0589 8.88905 55.9953 8.64168C56.2709 8.74063 56.2002 8.52858 56.2214 8.38722C56.2356 8.24587 56.3557 8.20347 56.278 7.9773C56.2568 7.92075 56.2639 7.87834 56.3133 7.88541C56.6031 7.90662 56.6667 7.71579 56.7515 7.53909C56.8363 7.35533 57.0272 7.25637 57.3452 7.28464C57.5149 7.29878 57.5855 7.21397 57.6562 7.13622C57.741 7.04434 57.7693 6.89592 57.84 6.7899C57.946 6.63441 58.0096 6.44357 57.9955 6.18206C57.9743 5.82866 57.9955 5.51061 58.0591 5.22789C58.0874 5.08654 58.2429 5.0512 58.3559 4.98759C58.5892 4.86037 58.8578 4.76142 59.0769 4.61299C59.2394 4.49991 59.3454 4.34442 59.4515 4.17479C59.5433 4.0193 59.5857 3.81434 59.6706 3.65178C59.9321 3.17116 60.2006 2.70467 60.4622 2.22406C60.5258 2.11097 60.5611 1.96961 60.6176 1.84946C60.6459 1.78585 60.6883 1.74345 60.7378 1.70104C60.9216 1.55262 61.1195 1.41832 61.2962 1.25576C61.5435 1.02253 61.7556 0.76809 62.003 0.534851C62.1443 0.400562 62.3069 0.294543 62.2998 0.0259651C62.2998 -0.0517812 62.427 0.0471722 62.6603 0.294547C63.0702 0.718618 63.4943 1.15682 63.6922 1.46074C63.8265 1.66571 63.9183 1.83533 63.8052 1.82826C63.6356 1.82119 63.7558 2.09685 63.4236 1.93429C63.3741 1.91309 63.3741 1.94135 63.3741 1.96962C63.4448 2.48558 63.0631 2.57746 62.8016 2.7895C62.7168 2.86018 62.6885 2.98033 62.632 3.07221C62.5896 3.12875 62.5472 3.18529 62.4906 3.2277C62.4129 3.29131 62.2998 3.32665 62.2503 3.4256C62.215 3.49628 62.2432 3.63056 61.9393 3.43973C61.8757 3.39732 61.8616 3.43973 61.9111 3.51041C62.109 3.77192 62.0383 3.79313 61.9888 3.82847C61.8545 3.93449 61.699 4.02637 61.5859 4.15359C61.5011 4.24547 61.4517 4.37975 61.4234 4.52111C61.381 4.74728 61.381 5.01586 61.3315 5.23497C61.2891 5.41873 61.1901 5.55302 61.1195 5.71558C61.1053 5.75092 61.1265 5.82867 61.1053 5.85694C61.07 5.92055 61.0771 6.02658 60.9498 5.99831C60.8085 5.97004 60.7519 5.99123 60.9145 6.23154C61.0064 6.36583 60.9498 6.40117 60.9004 6.41531C60.8297 6.43651 60.7095 6.40823 60.5894 6.37996C60.448 6.34462 60.2996 6.30223 60.3985 6.50719C60.4551 6.62028 60.3632 6.61321 60.2713 6.592C59.8755 6.51426 59.7483 6.69095 59.6706 6.91712C59.5645 7.22104 59.5009 7.55322 59.4091 7.86421C59.3737 7.98436 59.303 8.07625 59.2394 8.1752C59.0486 8.48618 58.7447 8.68408 58.4266 8.88198C58.363 8.91732 58.2923 8.95267 58.2923 9.04455C58.2923 9.26365 58.158 9.35554 57.9743 9.39794C57.7552 9.45449 57.7128 9.67358 57.6774 9.89975C57.6704 9.94923 57.6916 10.034 57.6421 10.0482C57.3099 10.1613 57.317 10.5783 57.0625 10.762C56.8576 10.9105 56.5678 10.9741 56.2921 11.0589C56.0801 11.1225 55.8398 11.1578 55.6207 11.2144C55.6065 11.2144 55.6207 11.2426 55.5995 11.2497C55.4581 11.2639 55.1259 11.0094 54.6948 10.5359C54.3131 10.1189 54.1223 9.8432 54.193 9.77959C54.2778 9.70891 54.3838 9.66651 54.4828 9.60997C54.4757 9.5817 54.4545 9.56756 54.4333 9.54636Z" fill="#A6C5F3"/>
<path d="M64.9489 9.54636C65.161 9.52516 65.3377 9.47569 65.5921 9.50396C65.8183 9.52516 66.0444 9.54637 65.995 9.31313C65.9808 9.24952 66.0444 9.25659 66.0656 9.22125C66.108 9.1647 66.1575 9.12229 66.1929 9.05868C66.207 9.03041 66.1434 8.92439 66.1929 8.93146C66.4332 8.95973 66.5745 8.88905 66.5109 8.64168C66.7866 8.74063 66.7159 8.52858 66.7371 8.38722C66.7512 8.24587 66.8714 8.20347 66.8007 7.9773C66.7795 7.92075 66.7866 7.87834 66.836 7.88541C67.1258 7.90662 67.1894 7.71579 67.2742 7.53909C67.3591 7.35533 67.5499 7.25637 67.8679 7.28464C68.0376 7.29878 68.1082 7.21397 68.1789 7.13622C68.2637 7.04434 68.292 6.89592 68.3627 6.7899C68.4687 6.63441 68.5323 6.44357 68.5182 6.18206C68.497 5.82866 68.5182 5.51061 68.5818 5.22789C68.6101 5.08654 68.7656 5.0512 68.8786 4.98759C69.1119 4.86037 69.3805 4.76142 69.5996 4.61299C69.7621 4.49991 69.8681 4.34442 69.9742 4.17479C70.066 4.0193 70.1084 3.81434 70.1933 3.65178C70.4548 3.17116 70.7233 2.70467 70.9849 2.22406C71.0485 2.11097 71.0838 1.96961 71.1404 1.84946C71.1686 1.78585 71.211 1.74345 71.2605 1.70104C71.4443 1.55262 71.6422 1.41832 71.8189 1.25576C72.0662 1.02253 72.2783 0.76809 72.5257 0.534851C72.667 0.400562 72.8296 0.294543 72.8225 0.0259651C72.8225 -0.0517812 72.9497 0.0471722 73.183 0.294547C73.5929 0.718618 74.017 1.15682 74.2149 1.46074C74.3492 1.66571 74.441 1.83533 74.328 1.82826C74.1583 1.82119 74.2785 2.09685 73.9463 1.93429C73.8968 1.91309 73.8968 1.94135 73.8968 1.96962C73.9675 2.48558 73.5858 2.57746 73.3243 2.7895C73.2395 2.86018 73.2112 2.98033 73.1547 3.07221C73.1123 3.12875 73.0699 3.18529 73.0133 3.2277C72.9356 3.29131 72.8225 3.32665 72.773 3.4256C72.7377 3.49628 72.766 3.63056 72.462 3.43973C72.3984 3.39732 72.3843 3.43973 72.4338 3.51041C72.6317 3.77192 72.561 3.79313 72.5115 3.82847C72.3772 3.93449 72.2217 4.02637 72.1086 4.15359C72.0238 4.24547 71.9744 4.37975 71.9461 4.52111C71.9037 4.74728 71.9037 5.01586 71.8542 5.23497C71.8118 5.41873 71.7129 5.55302 71.6422 5.71558C71.628 5.75092 71.6492 5.82867 71.628 5.85694C71.5927 5.92055 71.5998 6.02658 71.4725 5.99831C71.3312 5.97004 71.2746 5.99123 71.4372 6.23154C71.5291 6.36583 71.4796 6.40117 71.4231 6.41531C71.3524 6.43651 71.2322 6.40823 71.1121 6.37996C70.9707 6.34462 70.8223 6.30223 70.9213 6.50719C70.9778 6.62028 70.8859 6.61321 70.794 6.592C70.3982 6.51426 70.271 6.69095 70.1933 6.91712C70.0872 7.22104 70.0236 7.55322 69.9318 7.86421C69.8964 7.98436 69.8257 8.07625 69.7621 8.1752C69.5713 8.48618 69.2674 8.68408 68.9493 8.88198C68.8857 8.91732 68.815 8.95267 68.815 9.04455C68.815 9.26365 68.6807 9.35554 68.497 9.39794C68.2779 9.45449 68.2355 9.67358 68.2001 9.89975C68.1931 9.94923 68.2143 10.034 68.1648 10.0482C67.8326 10.1613 67.8397 10.5783 67.5852 10.762C67.3803 10.9105 67.0905 10.9741 66.8148 11.0589C66.6028 11.1225 66.3625 11.1578 66.1434 11.2144C66.1293 11.2144 66.1434 11.2426 66.1222 11.2497C65.9808 11.2639 65.6486 11.0094 65.2175 10.5359C64.8358 10.1189 64.645 9.8432 64.7157 9.77959C64.8005 9.70891 64.9065 9.66651 65.0055 9.60997C64.9913 9.5817 64.9701 9.56756 64.9489 9.54636Z" fill="#A6C5F3"/>
</svg>
