<svg width="87" height="120" viewBox="0 0 87 120" fill="none" xmlns="http://www.w3.org/2000/svg">
<path d="M59.8481 46.1982C61.6469 45.1189 58.217 24.8412 63.086 24.6064C66.272 24.4509 66.272 38.8993 66.272 38.8993C66.272 38.8993 67.2994 23.8076 71.2964 23.8076C73.7264 23.8076 72.6989 38.8993 72.6989 38.8993C72.6989 38.8993 77.3148 25.2314 79.7417 25.6339C82.8271 26.1491 79.3819 40.1829 79.3819 40.1829C79.3819 40.1829 84.2966 32.7895 85.6015 33.3962C87.8119 34.4237 85.3607 40.1859 83.8546 46.9696C82.821 51.6251 81.9765 52.5154 81.4887 53.1892C78.1228 57.8783 71.6257 57.7167 69.8178 57.7136C68.0098 57.7106 62.6347 57.6252 58.095 53.6526C57.3816 53.0276 54.3785 50.2836 53.2108 45.7348C52.5583 43.1921 52.3815 39.6859 53.3663 39.3079C56.0432 38.2804 58.2536 46.7623 59.8481 46.1982Z" fill="#CFE2F4"/>
<path d="M59.9273 38.3692C59.9395 36.1527 59.9395 33.9087 60.1224 31.7075C60.2078 30.7258 60.3175 29.7562 60.4761 28.7867C60.6438 27.8202 60.8236 26.8446 61.2322 25.8873C61.4486 25.4025 61.8115 24.8872 62.3542 24.6129C62.6011 24.4909 62.8664 24.4269 63.1468 24.4238C63.4365 24.4238 63.72 24.5428 63.9334 24.7135C64.3633 25.0611 64.6103 25.5214 64.8237 25.9757C65.0127 26.3934 65.214 26.8324 65.3115 27.2409C65.7749 29.2593 65.9731 31.2776 66.2414 33.3112C66.2536 34.9118 66.4121 36.4728 66.4792 38.0765C66.4914 38.3478 66.4975 38.6192 66.5036 38.8966L66.0432 38.8814C66.1255 37.5429 66.278 36.2045 66.3817 34.8874C66.4152 34.4667 66.4762 33.9849 66.5554 33.5673C66.8024 32.2928 67.0554 31.0215 67.3634 29.7562C67.6744 28.491 68.0219 27.2257 68.5707 26.0092C68.8268 25.4605 69.1195 24.9177 69.5341 24.436C69.9427 23.9635 70.5189 23.5183 71.275 23.5092C71.5586 23.5 71.8177 23.6525 72.0037 23.8568C72.1714 24.0458 72.275 24.247 72.3604 24.4482C72.5281 24.8476 72.6256 25.2531 72.7049 25.6556C72.8543 26.4605 72.9183 27.2623 72.9549 28.0641C73.0159 29.5428 73.0494 31.0886 73.0433 32.6008C73.0372 34.4027 73.0128 36.2015 72.9244 38.0003C72.9092 38.3051 72.8909 38.61 72.8757 38.9119L72.5281 38.8417C73.2659 36.6527 74.0464 34.4972 74.8787 32.3538C75.394 31.0337 75.9458 29.7227 76.5983 28.4391C76.9275 27.7989 77.2782 27.1647 77.7111 26.5519C77.9306 26.247 78.1593 25.9452 78.4642 25.6647C78.6166 25.5245 78.7843 25.3873 79.0038 25.2745C79.2111 25.1617 79.5312 25.0702 79.827 25.119C80.3453 25.1952 80.7538 25.5641 80.9611 25.9178C81.1868 26.2745 81.2965 26.6342 81.3849 26.9848C81.6075 27.9422 81.6105 28.8751 81.5801 29.7989C81.5435 30.7197 81.4459 31.6312 81.3301 32.5306C80.9825 35.1587 80.4428 37.7289 79.8117 40.293L79.0068 39.9393C79.5617 39.1314 80.1288 38.3448 80.7142 37.5612C81.3758 36.6801 82.0496 35.8081 82.7813 34.9697C83.1502 34.552 83.5283 34.1404 83.9551 33.7532C84.1716 33.5612 84.3911 33.3721 84.6685 33.2045C84.7325 33.1618 84.8088 33.1221 84.8911 33.0856C84.9795 33.0368 85.0832 33.0063 85.1868 32.9819C85.2874 32.9484 85.3941 32.9605 85.4978 32.9514C85.5496 32.9575 85.5984 32.9758 85.6502 32.988C85.6746 32.9941 85.699 33.0032 85.7265 33.0032L85.7996 33.0337C86.5314 33.3904 86.7509 34.052 86.8576 34.613C86.9673 35.3173 86.9125 35.9789 86.8301 36.6252C86.7478 37.2716 86.6259 37.8996 86.4917 38.5216C86.2204 39.7655 85.9033 40.9881 85.5862 42.2046C85.1106 44.0126 84.6624 45.7961 84.2722 47.6284C84.0648 48.5492 83.8301 49.4669 83.5374 50.3815C83.2417 51.2901 82.891 52.2169 82.3148 53.0736L82.1014 53.3755C82.0313 53.473 81.9764 53.5554 81.891 53.656L81.4276 54.2383C81.2813 54.4395 81.0953 54.6072 80.9215 54.7841C80.7416 54.9548 80.58 55.1469 80.3819 55.2993C79.6319 55.9548 78.7812 56.4762 77.9001 56.9152C77.0068 57.3298 76.08 57.6469 75.1348 57.8816C74.1897 58.1103 73.2293 58.2506 72.272 58.3359C71.3512 58.4152 70.4214 58.4335 69.525 58.4366C68.6042 58.4396 67.6744 58.3908 66.7506 58.2719C65.8298 58.153 64.9091 57.964 64.0127 57.7018C62.3541 57.2018 60.7474 56.4823 59.3053 55.5005C58.5858 55.0066 57.9059 54.47 57.2626 53.8755C56.6285 53.2749 56.0492 52.6285 55.5187 51.9425C54.1101 50.1376 53.0613 48.04 52.5003 45.8053C52.226 44.6894 52.0552 43.5674 51.9912 42.418C51.9607 41.8418 51.9577 41.2625 52.0247 40.6527C52.0644 40.3478 52.1101 40.0369 52.229 39.6984C52.29 39.5277 52.3601 39.357 52.5064 39.1466C52.6589 38.9302 52.8692 38.7594 53.1132 38.6588C53.2961 38.607 53.415 38.5613 53.5613 38.546C53.7046 38.5369 53.854 38.5125 53.9943 38.5399C54.1345 38.5552 54.2809 38.5735 54.4028 38.6222L54.5949 38.6862C54.6559 38.7106 54.7107 38.7411 54.7656 38.7686C55.1772 38.9789 55.4882 39.2503 55.7534 39.5277C56.0156 39.8082 56.2474 40.0948 56.4547 40.3905C56.8754 40.9759 57.223 41.5765 57.5644 42.168C57.9059 42.7625 58.2291 43.354 58.5645 43.9211C58.7321 44.2016 58.9029 44.4821 59.0828 44.7351C59.2565 44.9851 59.4486 45.2321 59.6194 45.3754C59.6407 45.3937 59.662 45.412 59.6834 45.4303C59.7017 45.4455 59.7139 45.4455 59.7261 45.4577C59.7352 45.4638 59.7535 45.4851 59.7505 45.479L59.7352 45.5187C59.7261 45.5492 59.7169 45.5796 59.7108 45.6071C59.7047 45.6315 59.7017 45.6315 59.6956 45.6437C59.6864 45.665 59.6834 45.6894 59.6834 45.7108C59.6834 45.7809 59.6834 45.7382 59.6803 45.7412C59.6742 45.7382 59.6742 45.729 59.6834 45.7473C59.6834 45.7473 59.6864 45.7626 59.6834 45.7534C59.6834 45.7382 59.6834 45.7199 59.6834 45.7108C59.6803 45.726 59.6773 45.7412 59.6681 45.7595C59.6468 45.787 59.6072 45.7992 59.5614 45.8175C59.5126 45.8236 59.4547 45.8175 59.3907 45.8144C59.3267 45.7992 59.2596 45.7778 59.1864 45.7504C58.8937 45.6223 58.5492 45.3357 58.1468 44.8205C57.601 44.1193 57.1529 43.4241 56.6468 42.4699C56.2778 41.7778 55.848 41.0948 55.351 40.4942C55.101 40.1984 54.8327 39.918 54.537 39.7137C54.2412 39.5064 53.918 39.3753 53.5796 39.4241C53.54 39.4302 53.4973 39.4393 53.4455 39.4515C53.29 39.4911 53.1711 39.6497 53.104 39.8235C52.9119 40.3204 52.8875 40.9058 52.8845 41.4698C52.8875 42.04 52.9333 42.6131 52.9973 43.1833C53.1376 44.3235 53.3601 45.4577 53.7107 46.5461C54.415 48.726 55.6071 50.7596 57.165 52.4548C57.6712 53.0127 58.2321 53.5127 58.8297 53.9731C59.4212 54.4395 60.0553 54.8481 60.7047 55.2261C61.5554 55.6987 62.4426 56.1133 63.3603 56.4426C64.6957 56.9121 66.092 57.2475 67.5036 57.3786C68.5707 57.4883 69.6073 57.4396 70.586 57.5829C70.7903 57.6134 71.3573 57.592 71.5525 57.5432C72.3055 57.3664 73.1836 57.3054 74.0525 57.1499C75.2233 56.9487 76.3788 56.6255 77.455 56.1347C78.5312 55.6469 79.5282 54.9792 80.3544 54.1407C80.6806 53.8511 80.9276 53.4852 81.205 53.1529C81.4825 52.7932 81.7264 52.4456 81.9307 52.0645C82.3362 51.3023 82.6167 50.4608 82.8606 49.6163C83.2417 48.2992 83.4795 46.9547 83.7722 45.5888C84.0679 44.2321 84.3972 42.8845 84.7356 41.543C85.0161 40.421 85.3088 39.3021 85.5527 38.1832C85.6746 37.6252 85.7813 37.0643 85.8545 36.5124C85.9246 35.9636 85.9704 35.4057 85.9033 34.9118C85.8759 34.6862 85.8179 34.4758 85.7326 34.3203C85.7143 34.2746 85.6899 34.2441 85.6655 34.2106C85.6441 34.174 85.6197 34.1435 85.5923 34.1191C85.5466 34.0612 85.4704 34.0155 85.4582 34.0033L85.4399 33.9941C85.4155 33.9789 85.388 33.9819 85.3606 33.9849C85.3271 33.9941 85.3362 33.9941 85.2478 34.0398C85.0954 34.1313 84.9277 34.2563 84.763 34.3996C84.4307 34.6831 84.1106 35.0093 83.7996 35.3142C83.0892 36.0185 82.5831 36.6374 82.1106 37.4576C81.8453 37.9179 81.3422 38.5856 80.9368 39.1344C80.5861 39.6039 80.2355 40.0734 79.888 40.5338L78.766 40.0399C78.8453 39.7655 78.9245 39.4942 79.0038 39.2228C79.2843 38.2289 79.5373 37.2929 79.6501 36.1832C79.7111 35.5887 79.8819 34.7807 80.016 34.1191C80.3117 32.6618 80.5282 31.177 80.5831 29.6953C80.6075 28.9574 80.5922 28.2135 80.4733 27.5092C80.4124 27.1617 80.3239 26.8202 80.1806 26.5489C80.0404 26.2684 79.8514 26.1068 79.6654 26.0855C79.6623 26.0855 79.6623 26.0855 79.6593 26.0855C79.6014 26.0794 79.5648 26.0885 79.4947 26.1129C79.4276 26.1342 79.3453 26.1891 79.266 26.244C79.1044 26.3629 78.9428 26.5306 78.7904 26.7074C78.4855 27.0672 78.2111 27.4849 77.955 27.9117C77.4428 28.7715 76.9977 29.6861 76.5739 30.613C75.7355 32.4697 74.9976 34.3843 74.3025 36.3112C73.9671 37.2441 73.6318 38.1862 73.3177 39.1222L72.0159 38.8631C72.0525 38.2564 72.083 37.6375 72.1074 37.0216C72.1958 34.7411 72.2446 32.4606 72.1866 30.1953C72.1531 29.0642 72.0952 27.933 71.9549 26.8355C71.8817 26.2897 71.7903 25.744 71.6439 25.2562C71.5708 25.0153 71.4823 24.7775 71.3817 24.622C71.3573 24.5793 71.3329 24.5489 71.3116 24.5214C71.2811 24.4879 71.2964 24.5031 71.2842 24.4878C71.2689 24.4756 71.2476 24.4665 71.2232 24.4635L71.1622 24.4665C71.1287 24.4726 71.0951 24.4787 71.0646 24.4818C70.9976 24.5001 70.9335 24.5184 70.8665 24.5519C70.7323 24.6129 70.5951 24.7043 70.464 24.8202C70.1744 25.0763 69.9061 25.4421 69.6835 25.8354C69.4579 26.2318 69.2658 26.6617 69.1103 27.0977C68.7445 28.1129 68.464 29.1739 68.2079 30.244C67.9548 31.3172 67.7384 32.4026 67.5402 33.4941C67.217 35.299 67.0128 37.1374 66.903 38.9484L65.6103 38.9058C65.592 38.0765 65.5524 37.232 65.5036 36.3996C65.467 35.7807 65.403 35.1527 65.3755 34.5429C65.2658 32.4087 65.0493 30.2684 64.5707 28.241C64.4487 27.7379 64.3054 27.244 64.1316 26.7806C63.9578 26.3232 63.7383 25.8781 63.4944 25.6037C63.3725 25.4635 63.2597 25.3964 63.1956 25.3812C63.1529 25.372 63.1468 25.3659 63.0737 25.3751C62.9975 25.3812 62.9304 25.3995 62.8664 25.4177C62.6103 25.497 62.3511 25.7775 62.1346 26.1617C61.7901 26.7958 61.5767 27.6037 61.4212 28.4147C61.2688 29.2349 61.1712 30.0794 61.098 30.93C60.9578 32.6343 60.9212 34.3661 60.9121 36.1008C60.9121 37.4454 60.9121 38.7869 60.909 40.1283C60.9029 41.4759 60.9029 42.8235 60.7962 44.1924C60.781 44.3723 60.7779 44.5644 60.7535 44.7443C60.656 45.5278 60.4456 46.0949 60.1346 46.3022C59.9791 46.3967 59.8998 46.3754 59.909 46.3053C59.9151 46.2321 59.9761 46.1101 59.9852 45.9272C60.0096 45.604 59.9822 45.2107 59.973 44.7168C59.9608 44.2229 59.9547 43.6375 59.9669 42.9546C59.9913 41.4454 59.97 39.921 59.9517 38.3936L59.9273 38.3692Z" fill="#A6C5F3"/>
<path d="M16.9319 34.0919C17.0233 34.1224 17.1056 34.1346 17.2063 34.1864C17.2947 34.2352 17.3831 34.284 17.4105 34.1803C17.4197 34.1529 17.441 34.1651 17.4593 34.159C17.4898 34.1468 17.5203 34.1346 17.5477 34.1163C17.5599 34.1072 17.5569 34.0553 17.5752 34.0645C17.6697 34.1193 17.7398 34.1163 17.7672 34.0035C17.8587 34.0919 17.877 33.9943 17.9105 33.9425C17.9441 33.8907 18.0051 33.8937 18.0203 33.7901C18.0233 33.7626 18.0355 33.7474 18.0538 33.7596C18.1697 33.8175 18.2337 33.7565 18.3038 33.6986C18.3801 33.6407 18.4746 33.6346 18.5996 33.7017C18.6666 33.7382 18.7124 33.7169 18.7581 33.6956C18.813 33.6742 18.8557 33.6193 18.9075 33.5889C18.9837 33.5462 19.0508 33.4821 19.0996 33.3754C19.1636 33.2321 19.2398 33.1071 19.3252 33.0065C19.3679 32.9547 19.438 32.9669 19.499 32.9638C19.6209 32.9547 19.752 32.9638 19.8709 32.9425C19.9593 32.9273 20.0386 32.8845 20.1148 32.8358C20.185 32.79 20.2459 32.7138 20.3161 32.6651C20.5234 32.5187 20.7338 32.3815 20.9411 32.2382C20.9899 32.2047 21.0356 32.1528 21.0813 32.1132C21.1057 32.0949 21.1331 32.0827 21.1606 32.0766C21.2673 32.0492 21.3771 32.0309 21.4838 31.9973C21.6332 31.9486 21.7765 31.8846 21.9258 31.8358C22.0112 31.8083 22.0996 31.7931 22.1515 31.6864C22.1667 31.6559 22.1972 31.7169 22.2429 31.8571C22.3222 32.098 22.4076 32.348 22.4228 32.5065C22.435 32.6132 22.438 32.6956 22.3893 32.6742C22.3222 32.6437 22.313 32.7717 22.2094 32.6498C22.1941 32.6315 22.188 32.6437 22.1819 32.6559C22.1027 32.8724 21.9258 32.8449 21.7764 32.8815C21.7277 32.8937 21.6911 32.9394 21.6484 32.9638C21.621 32.9791 21.5905 32.9943 21.56 33.0035C21.5143 33.0157 21.4594 33.0096 21.4228 33.0401C21.3923 33.0614 21.3771 33.1193 21.2947 32.9913C21.2764 32.9638 21.2612 32.9791 21.2704 33.0157C21.2978 33.1529 21.2642 33.1498 21.2368 33.159C21.1575 33.1773 21.0752 33.1864 21.0021 33.2169C20.9472 33.2413 20.9014 33.2809 20.8588 33.3358C20.7917 33.4181 20.7368 33.5248 20.6697 33.6041C20.6149 33.6681 20.5447 33.7047 20.4837 33.7565C20.4685 33.7687 20.4655 33.8023 20.4502 33.8114C20.4228 33.8297 20.4045 33.8724 20.3557 33.8388C20.3039 33.8023 20.2764 33.7992 20.2917 33.9273C20.3008 33.9974 20.2734 34.0004 20.2459 34.0004C20.2124 33.9974 20.1697 33.9639 20.124 33.9303C20.0722 33.8907 20.0203 33.848 20.0203 33.9486C20.0203 34.0035 19.9837 33.9852 19.9502 33.9608C19.8039 33.8602 19.7154 33.909 19.6362 33.9821C19.5295 34.0827 19.4319 34.2078 19.3282 34.3145C19.2886 34.3572 19.2398 34.3785 19.1941 34.409C19.0508 34.4974 18.8831 34.5249 18.7124 34.5462C18.6788 34.5492 18.6423 34.5492 18.624 34.5888C18.5782 34.6742 18.5051 34.6864 18.4197 34.6742C18.3191 34.659 18.2551 34.7382 18.191 34.8236C18.1758 34.8419 18.1666 34.8785 18.1453 34.8755C17.9868 34.8602 17.9014 35.0309 17.7581 35.0584C17.6422 35.0797 17.5111 35.0553 17.38 35.0401C17.2794 35.0279 17.1758 35.0004 17.0721 34.9822C17.066 34.9822 17.063 34.9944 17.0569 34.9913C16.9959 34.973 16.9136 34.8114 16.8343 34.5462C16.7642 34.3114 16.7428 34.1681 16.7886 34.1559C16.8374 34.1437 16.8922 34.1437 16.9441 34.1376C16.941 34.1163 16.938 34.1041 16.9319 34.0919Z" fill="#A6C5F3"/>
<path d="M2.3003 39.8784C2.38567 39.9119 2.46189 39.9241 2.5564 39.982C2.63872 40.0308 2.72104 40.0857 2.74543 39.982C2.75153 39.9546 2.77592 39.9667 2.78811 39.9606C2.81555 39.9485 2.84299 39.9393 2.86738 39.921C2.87958 39.9119 2.87348 39.8601 2.89177 39.8723C2.98019 39.9302 3.04421 39.9271 3.0686 39.8204C3.15702 39.9119 3.16921 39.8143 3.1997 39.7656C3.23019 39.7137 3.28507 39.7198 3.29727 39.6192C3.30032 39.5917 3.30946 39.5796 3.32775 39.5887C3.43446 39.6497 3.49544 39.5887 3.55641 39.5369C3.62349 39.482 3.71191 39.4789 3.83081 39.5491C3.89179 39.5856 3.93447 39.5674 3.97715 39.5491C4.02594 39.5277 4.06557 39.479 4.1113 39.4485C4.17838 39.4058 4.23935 39.3478 4.28204 39.2411C4.33692 39.1009 4.40399 38.982 4.47716 38.8844C4.51375 38.8357 4.57777 38.8509 4.6357 38.8479C4.74851 38.8418 4.87046 38.857 4.98022 38.8387C5.06254 38.8265 5.13266 38.7838 5.20278 38.7381C5.26681 38.6954 5.31864 38.6222 5.38266 38.5765C5.56864 38.4393 5.75767 38.3082 5.94365 38.174C5.98938 38.1405 6.02596 38.0917 6.0717 38.0551C6.09304 38.0368 6.11743 38.0277 6.14487 38.0216C6.24243 37.9972 6.34304 37.982 6.44061 37.9515C6.5778 37.9088 6.70586 37.8478 6.84305 37.8051C6.91927 37.7808 7.00159 37.7686 7.04732 37.6649C7.05952 37.6344 7.09305 37.6954 7.13879 37.8356C7.21806 38.0765 7.30342 38.3265 7.32476 38.482C7.33696 38.5856 7.34306 38.668 7.30038 38.6466C7.23635 38.6131 7.2333 38.7411 7.13269 38.6161C7.11745 38.5978 7.11135 38.607 7.1083 38.6192C7.04123 38.8326 6.87964 38.796 6.73939 38.8295C6.69366 38.8387 6.66317 38.8814 6.62354 38.9058C6.59915 38.921 6.57171 38.9332 6.54122 38.9393C6.49853 38.9515 6.44975 38.9423 6.41317 38.9698C6.38573 38.9911 6.37353 39.046 6.29121 38.918C6.27292 38.8905 6.26073 38.9058 6.26987 38.9393C6.30036 39.0765 6.26987 39.0735 6.24243 39.0796C6.17231 39.0948 6.09609 39.1009 6.02901 39.1283C5.98023 39.1497 5.93755 39.1893 5.90096 39.2411C5.84304 39.3204 5.79426 39.4241 5.73633 39.5003C5.68755 39.5613 5.62352 39.5948 5.56864 39.6466C5.55645 39.6588 5.5534 39.6924 5.53815 39.7015C5.51376 39.7198 5.49547 39.7625 5.45279 39.7259C5.404 39.6863 5.37657 39.6863 5.39791 39.8113C5.40705 39.8814 5.38266 39.8845 5.35827 39.8814C5.32778 39.8784 5.2851 39.8417 5.24547 39.8082C5.19669 39.7686 5.14791 39.7229 5.15095 39.8235C5.15095 39.8753 5.11741 39.857 5.08693 39.8326C4.94973 39.729 4.86741 39.7717 4.80034 39.8448C4.70582 39.9424 4.62046 40.0613 4.52594 40.1619C4.48936 40.2015 4.44668 40.2229 4.40399 40.2503C4.27289 40.3326 4.12045 40.354 3.96496 40.3723C3.93447 40.3753 3.90093 40.3753 3.88569 40.4119C3.84605 40.4942 3.77898 40.5064 3.69971 40.4912C3.6052 40.4729 3.55032 40.5491 3.49544 40.6314C3.48324 40.6497 3.47715 40.6863 3.45581 40.6833C3.30946 40.665 3.23629 40.8296 3.10519 40.8509C2.99848 40.8692 2.87653 40.8387 2.75762 40.8204C2.66616 40.8052 2.56555 40.7747 2.47103 40.7534C2.46494 40.7534 2.46494 40.7655 2.45884 40.7625C2.40091 40.7411 2.32164 40.5796 2.23932 40.3174C2.16615 40.0826 2.14481 39.9424 2.18444 39.9302C2.23017 39.918 2.27896 39.921 2.32774 39.918C2.30944 39.8997 2.3064 39.8906 2.3003 39.8784Z" fill="#A6C5F3"/>
<path d="M5.36237 38.9824L3.22209 15.2168L5.11236 14.2077L18.3473 34.0037L21.0059 32.9549L7.74959 13.3418L1.4873 16.0187L3.33489 39.9398L5.36237 38.9824Z" fill="#A6C5F3"/>
<path d="M4.49867 34.2875C4.44074 32.9643 4.36452 31.629 4.33099 30.318C4.30355 29.1472 4.27915 27.9978 4.08708 26.8148C4.0383 26.5099 4.0261 26.1746 3.99866 25.8545C3.94378 25.2722 3.8889 24.6868 3.83402 24.1045C3.80659 23.8392 3.73036 23.5648 3.72427 23.3178C3.69988 22.0983 3.61451 20.8879 3.41329 19.6806C3.44378 18.7233 3.27609 17.7964 3.15414 16.8482C3.12365 16.5799 3.09316 16.3147 3.06267 16.0433L2.96206 15.0708L3.32487 14.8665L3.65415 14.6775C3.83403 14.5708 4.01086 14.461 4.18464 14.3452C4.23647 14.3116 4.29135 14.275 4.34928 14.2415C4.4316 14.1957 4.51392 14.147 4.59928 14.0982C4.77002 14.0037 4.94685 13.9122 5.10539 13.836L5.22734 13.7781L5.98345 14.9915C6.18467 15.3116 6.39199 15.6257 6.60236 15.9397C7.0231 16.5677 7.45603 17.1897 7.88897 17.8147C8.83715 19.1836 9.7335 20.58 10.5597 22.0129C11.0018 22.7751 11.5171 23.5404 12.0171 24.2904C12.6146 25.1837 13.2397 26.0587 13.8464 26.9459C14.7244 28.2356 15.6116 29.5039 16.5415 30.7448C16.9104 31.2387 17.2763 31.7356 17.6452 32.2326L18.197 32.9826C18.2794 33.0954 18.4074 33.2753 18.4227 33.2845L18.5324 33.4155L18.755 33.3027L19.3343 33.0497L19.9166 32.7966C19.9898 32.76 20.0233 32.7387 20.0721 32.7143L20.1392 32.6808C20.0995 32.629 20.066 32.5832 20.0355 32.5344L19.7337 32.0741C19.4715 31.6686 19.2093 31.2631 18.9471 30.8606C17.7763 29.0649 16.6239 27.2569 15.444 25.4673C14.5568 24.1227 13.6421 22.7904 12.7244 21.4642C11.8585 20.2324 10.9927 19.0038 10.1268 17.7751L8.69995 15.7232L7.98653 14.6957L7.62981 14.1836L7.5414 14.0677L2.19071 16.4458L2.19985 16.4946L2.2029 16.5068V16.5129L2.20595 16.5586L2.22424 16.7537L2.29437 17.5373C2.39803 18.6044 2.50169 19.6714 2.60535 20.7385C2.65413 21.2721 2.69681 21.8056 2.7334 22.3422L3.14804 28.2905L3.79439 36.8089L3.9072 38.3516L3.94378 38.8211C3.94683 38.8425 3.94988 38.8638 3.95598 38.876C3.98037 38.8608 4.00171 38.8425 4.0139 38.8272C4.01695 38.8242 4.02 38.8181 4.02 38.815L4.20598 38.7175L4.59013 38.5132C4.98648 38.2998 5.14807 38.2998 5.05965 38.5041C4.98343 38.6809 4.91941 38.8547 4.79746 39.0407C4.73648 39.1352 4.66026 39.2327 4.55965 39.3333C4.45599 39.437 4.34623 39.5406 4.14805 39.6748C3.85841 39.876 3.5139 40.0925 3.1267 40.3059C3.08402 40.0254 3.05048 39.6717 3.03523 39.2784C3.02914 39.126 3.01999 38.9735 3.01389 38.8181L2.9895 38.4583C2.96816 38.2175 2.94682 37.9766 2.92548 37.7388C2.88584 37.2571 2.85535 36.7784 2.89804 36.3089C2.91023 36.1778 2.88889 35.9857 2.86755 35.8333C2.48035 33.0771 2.35839 30.2844 2.16327 27.5008C2.09924 26.5923 2.00168 25.6837 1.92241 24.7721L1.78217 23.0008C1.72119 22.1441 1.67851 21.2812 1.60229 20.4275C1.54436 19.7842 1.4468 19.1592 1.55046 18.5647C1.5718 18.4397 1.53826 18.1013 1.49253 17.9854C1.40411 17.7629 1.35533 17.5159 1.32179 17.2598C1.30655 17.1318 1.29435 17.0007 1.28216 16.8696C1.27301 16.7263 1.26081 16.5799 1.25167 16.4336L1.20898 15.8452L4.97733 14.2659L6.31272 13.6805C6.82797 13.4488 7.34018 13.2171 7.85238 12.9854C7.9286 13.0951 8.00787 13.2018 8.08409 13.3116C9.08411 14.6836 10.0811 16.0525 11.0811 17.4245C11.889 18.5495 12.6756 19.6958 13.4744 20.83C13.6604 21.0922 13.8616 21.3391 14.0445 21.6013C14.3799 22.0861 14.7549 22.58 15.0232 23.0648C15.322 23.6044 15.5812 24.0069 16.0019 24.4093C16.2367 24.6349 16.5141 25.0587 16.7367 25.4063C17.0202 25.8544 17.2763 26.3148 17.5263 26.7691C17.8281 27.3149 18.1056 27.8301 18.5568 28.3332C18.7977 28.6015 19.0538 29.0313 19.2519 29.3881C19.5721 29.9582 19.9105 30.5192 20.2642 31.071L20.8008 31.8972L21.6483 33.1503L20.5721 33.5863L19.7763 33.9156C19.2397 34.1412 18.7001 34.3637 18.1635 34.5893L17.5141 33.6503L17.0781 33.0344L16.2062 31.8058L14.4622 29.3423C13.9043 28.5527 13.3647 27.7478 12.8159 26.949C11.1177 24.4612 9.47436 21.9398 7.83714 19.4123C7.51701 18.9184 7.19383 18.4092 6.84627 17.9427C6.44687 17.4001 6.06272 16.8482 5.69076 16.2903L5.14197 15.4488L5.00782 15.2354L4.94685 15.1378L4.94075 15.1226L4.90721 15.0464L4.90417 15.0372C4.87978 15.0433 4.85538 15.0525 4.82489 15.0647L4.80355 15.0738L4.69684 15.1287L4.45904 15.2537L3.98647 15.5037L3.92244 15.5403L3.88281 15.5647L3.89195 15.6226L3.89805 15.65L3.91634 15.8086L3.99256 16.4671L4.15415 17.7812C4.19988 18.1531 4.26391 18.5281 4.2883 18.897C4.44989 21.4763 4.80355 24.0313 5.00782 26.6014C5.17246 28.6807 5.28832 30.7631 5.41332 32.8393C5.50174 34.446 5.59015 36.0467 5.67857 37.6534C5.68466 37.7601 5.70601 37.8669 5.7121 37.9736C5.75479 38.8882 5.60235 39.1931 5.28832 38.7876C5.01087 38.4278 4.81575 37.8394 4.74563 37.0162L4.54135 34.2875H4.49867Z" fill="#A6C5F3"/>
<path d="M3.7088 28.3417C3.846 28.3508 3.98015 28.3417 4.1265 28.3752C4.2576 28.4057 4.38565 28.4362 4.45882 28.3143C4.47711 28.2838 4.5137 28.2899 4.54114 28.2777C4.59297 28.2563 4.64175 28.235 4.69053 28.2076C4.71187 28.1954 4.71797 28.1375 4.74541 28.1436C4.88261 28.1801 4.99846 28.1588 5.06858 28.0277C5.19663 28.1009 5.24541 27.9911 5.31554 27.924C5.38566 27.8569 5.48017 27.8447 5.52591 27.7289C5.5381 27.6984 5.55945 27.6801 5.58993 27.6862C5.76067 27.7228 5.88262 27.6344 6.00762 27.5551C6.14177 27.4698 6.29726 27.4393 6.48324 27.482C6.5808 27.5033 6.66007 27.4697 6.73934 27.4362C6.83385 27.3966 6.91313 27.3295 7.00459 27.2807C7.13569 27.2136 7.25764 27.1283 7.3613 26.9941C7.4985 26.8173 7.64789 26.6649 7.80643 26.5307C7.8857 26.4636 7.99545 26.4606 8.09607 26.4392C8.29729 26.3966 8.50461 26.3752 8.69974 26.3203C8.84608 26.2807 8.98328 26.2106 9.11742 26.1374C9.24243 26.0703 9.35524 25.9697 9.47719 25.8996C9.84305 25.6862 10.212 25.4789 10.5778 25.2685C10.6662 25.2167 10.7485 25.1496 10.8339 25.0947C10.8766 25.0673 10.9223 25.049 10.9711 25.0337C11.1479 24.9758 11.3309 24.927 11.5077 24.863C11.7577 24.7716 12.0047 24.6618 12.2547 24.5703C12.398 24.5185 12.5443 24.4788 12.6541 24.3447C12.6846 24.3081 12.7242 24.366 12.7638 24.5063C12.8339 24.7502 12.9132 25.0033 12.9041 25.171C12.898 25.2838 12.8858 25.3752 12.8126 25.363C12.7089 25.3447 12.6693 25.4911 12.5291 25.3813C12.5108 25.3661 12.4955 25.3783 12.4864 25.3935C12.3095 25.6527 12.0321 25.6679 11.7821 25.7471C11.6998 25.7746 11.6327 25.8325 11.5534 25.8722C11.5047 25.8966 11.4528 25.9209 11.401 25.9362C11.3248 25.9636 11.2394 25.9697 11.1693 26.0124C11.1175 26.0429 11.0809 26.11 10.9711 25.9911C10.9498 25.9667 10.9223 25.985 10.9254 26.0246C10.9376 26.1709 10.8857 26.174 10.837 26.1893C10.7059 26.2319 10.5717 26.2594 10.4467 26.3143C10.3552 26.3539 10.2699 26.4118 10.1906 26.4819C10.0656 26.5886 9.9528 26.7228 9.8278 26.8234C9.72109 26.9088 9.60524 26.9667 9.49243 27.0399C9.46804 27.0582 9.44975 27.0948 9.42231 27.11C9.37353 27.1374 9.33389 27.1893 9.26682 27.1649C9.19365 27.1374 9.14791 27.1435 9.14486 27.2777C9.14181 27.3539 9.09608 27.363 9.05645 27.3691C9.00462 27.3752 8.94059 27.3478 8.87962 27.3234C8.8034 27.2929 8.73023 27.2594 8.70888 27.3691C8.69669 27.4271 8.64181 27.4179 8.59303 27.4027C8.37961 27.3295 8.22717 27.4057 8.08387 27.5094C7.8918 27.6496 7.70582 27.8082 7.51374 27.9545C7.43752 28.0094 7.35521 28.049 7.27594 28.0917C7.02593 28.2259 6.74849 28.299 6.47105 28.3692C6.41617 28.3814 6.35824 28.3905 6.3186 28.4362C6.22409 28.5429 6.10214 28.5765 5.97104 28.5826C5.80945 28.5917 5.69054 28.6984 5.57164 28.8051C5.5442 28.8295 5.52286 28.8722 5.48627 28.8752C5.23322 28.8996 5.05639 29.11 4.82468 29.1771C4.63565 29.232 4.42528 29.2381 4.22101 29.2564C4.06247 29.2685 3.89783 29.2655 3.73929 29.2716C3.73015 29.2716 3.72405 29.2869 3.71186 29.2869C3.61734 29.2838 3.52283 29.1253 3.4588 28.857C3.40088 28.6192 3.39783 28.4667 3.47405 28.4393C3.55637 28.4118 3.64173 28.3996 3.7271 28.3813C3.71795 28.363 3.7149 28.3539 3.7088 28.3417Z" fill="#A6C5F3"/>
<path d="M0.283537 15.3722C0.411588 15.3935 0.533539 15.3966 0.667688 15.4423C0.786592 15.4819 0.905499 15.5246 0.975622 15.4118C0.993915 15.3813 1.02745 15.3904 1.05184 15.3813C1.10062 15.363 1.14635 15.3478 1.19209 15.3264C1.21343 15.3142 1.21953 15.2593 1.24392 15.2685C1.37197 15.3142 1.47563 15.3051 1.54575 15.1831C1.66161 15.2685 1.71039 15.1618 1.77746 15.1008C1.84453 15.0398 1.9299 15.0368 1.97868 14.927C1.99088 14.8965 2.01222 14.8813 2.03661 14.8904C2.19515 14.9392 2.30796 14.863 2.42686 14.7959C2.55491 14.7258 2.69821 14.7075 2.86894 14.7655C2.96041 14.7959 3.03358 14.7685 3.10675 14.741C3.19517 14.7106 3.27139 14.6496 3.35676 14.61C3.47871 14.5551 3.59456 14.4788 3.69518 14.3599C3.82932 14.1983 3.97262 14.0581 4.12201 13.9422C4.19823 13.8843 4.29884 13.8874 4.39336 13.8752C4.57933 13.8508 4.77446 13.8447 4.95739 13.8081C5.09459 13.7807 5.22264 13.7258 5.34764 13.6648C5.46654 13.6069 5.57325 13.5215 5.68911 13.4605C6.03362 13.2807 6.38119 13.1099 6.72876 12.9331C6.81108 12.8904 6.89034 12.8325 6.96961 12.7837C7.00925 12.7593 7.05498 12.7441 7.09766 12.7349C7.26535 12.6922 7.43303 12.6617 7.59767 12.613C7.83243 12.5428 8.06414 12.4575 8.2989 12.3874C8.43305 12.3477 8.57025 12.3233 8.67696 12.2014C8.70745 12.1678 8.74098 12.2288 8.77452 12.3721C8.83245 12.619 8.89647 12.8782 8.88428 13.0429C8.87513 13.1557 8.85989 13.241 8.79586 13.2258C8.70135 13.2014 8.65866 13.3386 8.53366 13.2197C8.51537 13.2014 8.50317 13.2136 8.49403 13.2288C8.32329 13.4697 8.06414 13.4605 7.82938 13.5185C7.75316 13.5367 7.68609 13.5886 7.61597 13.6221C7.57024 13.6435 7.52145 13.6618 7.47267 13.6739C7.40255 13.6922 7.32328 13.6923 7.2562 13.7288C7.20742 13.7563 7.17084 13.8173 7.07328 13.6923C7.05194 13.6648 7.02754 13.6831 7.03059 13.7197C7.03669 13.863 6.98791 13.863 6.94522 13.8752C6.82327 13.9057 6.69827 13.9209 6.58242 13.9636C6.494 13.9941 6.41473 14.0459 6.33851 14.1069C6.2196 14.2014 6.10985 14.3234 5.99094 14.4148C5.89033 14.4911 5.78057 14.5368 5.67386 14.6008C5.64947 14.616 5.63423 14.6526 5.60679 14.6648C5.56105 14.6862 5.52142 14.7349 5.46044 14.7045C5.39337 14.6709 5.35069 14.674 5.34459 14.8051C5.34154 14.8783 5.29581 14.8874 5.25922 14.8874C5.21044 14.8874 5.15251 14.8569 5.09459 14.8264C5.02446 14.7898 4.96044 14.7502 4.93605 14.8569C4.92385 14.9148 4.87202 14.8996 4.82934 14.8783C4.63421 14.7868 4.49092 14.8508 4.35677 14.9392C4.17384 15.0612 3.99701 15.2014 3.81713 15.3295C3.747 15.3783 3.66773 15.4087 3.59151 15.4453C3.3537 15.5581 3.0976 15.6039 2.83845 15.6496C2.78662 15.6587 2.7348 15.6618 2.69516 15.7045C2.60674 15.802 2.49089 15.8234 2.36893 15.8203C2.21954 15.8142 2.10673 15.9087 1.99088 16.0063C1.96344 16.0277 1.9421 16.0673 1.90856 16.0673C1.6738 16.0703 1.50307 16.2624 1.2866 16.3081C1.10977 16.3447 0.914644 16.3325 0.725616 16.3325C0.579273 16.3325 0.426831 16.3142 0.277438 16.3051C0.268292 16.3051 0.262194 16.3173 0.253047 16.3173C0.164631 16.3051 0.0853629 16.1435 0.030484 15.8691C-0.0152484 15.6283 -0.0122007 15.4758 0.0579223 15.4575C0.134143 15.4362 0.216461 15.4331 0.29573 15.4209C0.289633 15.3965 0.286586 15.3844 0.283537 15.3722Z" fill="#A6C5F3"/>
<path d="M21.5672 14.2685C21.9179 15.2045 22.2868 16.1404 22.6069 17.0795C22.8935 17.9179 23.174 18.7381 23.6161 19.5277C23.7319 19.732 23.8142 19.9698 23.9148 20.1893L24.4606 21.3966C24.546 21.5796 24.6771 21.7503 24.738 21.9271C25.0338 22.7991 25.3813 23.6436 25.8417 24.4455C26.0246 25.1467 26.3905 25.7595 26.7137 26.4028C27.0399 27.0461 27.3143 27.726 27.6862 28.3388C27.7838 28.5004 27.8814 28.6955 27.9423 28.8784C28.0338 29.1376 28.1283 29.3937 28.232 29.6498L28.3875 30.0309L28.5155 30.3266L28.5765 30.4638C28.5918 30.5126 28.6436 30.5431 28.6924 30.537L28.979 30.4577L29.3997 30.3358L29.8418 30.2016C31.0339 29.8388 32.2199 29.479 33.415 29.1406C34.0492 28.9546 34.6894 28.6864 35.3053 28.4028C36.037 28.0644 36.7382 27.665 37.4211 27.2443C38.409 26.6345 39.3419 25.9211 40.0462 25.04C40.5096 24.4515 40.8907 23.8021 41.0249 23.1283C41.0919 22.796 41.1011 22.4607 41.0432 22.1436C41.0249 22.0613 41.0157 21.9881 40.9883 21.9027L40.909 21.6375C40.8633 21.4576 40.7962 21.2899 40.7322 21.1222C40.473 20.4362 40.1346 19.7868 39.6407 19.2807C39.1437 18.7777 38.5065 18.4149 37.7901 18.2167C37.0797 18.0063 36.3022 17.9636 35.5278 17.9941C34.3601 18.0582 33.1924 18.3356 32.0613 18.7014C31.0034 19.049 29.979 19.4972 28.9668 19.9698L28.6009 20.1405L28.1893 19.1771C29.6436 18.5521 31.107 17.8783 32.2229 16.9087C32.7686 16.4179 33.2046 15.8538 33.4699 15.1922C33.6101 14.8691 33.7107 14.5093 33.787 14.1587C33.8571 13.8142 33.8906 13.4575 33.8876 13.1008C33.8784 12.3873 33.7016 11.677 33.4028 11.0581C33.2534 10.7501 33.0766 10.4605 32.8723 10.2074C32.0888 9.27448 30.7717 8.78057 29.3936 8.72874C28.4058 8.67691 27.3875 8.78973 26.3875 9.00925C25.3874 9.23791 24.3996 9.55801 23.4331 9.93607C22.3417 10.3812 21.2654 10.8904 20.2807 11.5489C20.2471 11.5703 20.2136 11.5916 20.1831 11.6068L20.1709 11.6129C20.0703 11.4391 19.9697 11.2684 19.8721 11.1007L19.8752 11.1038C19.8782 11.1038 19.8721 11.1038 19.8721 11.1038C19.8751 11.1038 19.8721 11.1038 19.8721 11.1038C19.8782 11.1038 19.8751 11.1038 19.8721 11.1007L19.9605 11.2471L19.9636 11.2318L19.9788 11.1709C19.991 11.1282 20.0032 11.0885 20.0215 11.0458C20.0886 10.8751 20.2044 10.6922 20.4239 10.4849C20.7197 10.1983 21.0154 9.96045 21.4788 9.77752C21.8081 9.63728 22.1374 9.47265 22.4758 9.3263C22.6435 9.25008 22.8112 9.17998 22.9819 9.11595C23.1557 9.05802 23.3325 9.01838 23.5094 8.99094C23.61 8.97569 23.7441 8.91776 23.8478 8.86898C25.7685 7.99396 27.9576 7.59155 30.1009 7.86899C30.7991 7.94826 31.5003 8.12509 32.1528 8.43302C32.357 8.54582 32.5766 8.63421 32.7595 8.78665C32.9485 8.9269 33.1497 9.05498 33.3052 9.23486C33.8205 9.70133 34.1528 10.3202 34.4059 10.9391C34.5949 11.4087 34.7565 11.8934 34.662 12.363C34.6467 12.4605 34.6681 12.7197 34.7138 12.8081C34.8662 13.1587 34.8357 13.5886 34.7656 14.0063C34.5705 15.1222 34.0827 16.2014 33.3022 17.0368C32.7351 17.6618 32.0583 18.1557 31.3662 18.5947C30.4576 19.1649 29.5125 19.6496 28.5491 20.0887L28.1954 19.2655L28.7381 18.9942C29.6924 18.5338 30.6832 18.1435 31.6955 17.799C31.9302 17.7228 32.1558 17.6222 32.3967 17.552C32.8357 17.424 33.2961 17.2777 33.7321 17.2441C34.2138 17.2045 34.5827 17.1587 35.0156 16.9911C35.2595 16.8935 35.6681 16.8722 36.0004 16.8813C36.4303 16.8935 36.8571 16.9575 37.2687 17.0612C37.7657 17.1892 38.2078 17.3447 38.7596 17.4606C38.9059 17.5002 39.0767 17.5643 39.2413 17.6527C39.3998 17.7533 39.5675 17.8478 39.6956 17.9637C40.2901 18.4454 40.781 19.0307 41.1468 19.674C41.5096 20.3173 41.7627 21.0064 41.9334 21.7076C42.0676 22.2167 42.0737 22.7808 41.9548 23.2991C41.842 23.8204 41.6255 24.3052 41.3602 24.7412C40.8236 25.6132 40.1102 26.3174 39.3572 26.9333C38.7626 27.415 38.1224 27.8297 37.473 28.2108C35.4425 29.3907 33.2565 30.1864 31.0461 30.8236C30.6101 30.9455 30.168 31.0614 29.7473 31.2047C29.6284 31.2474 29.5064 31.287 29.3844 31.3236L29.1588 31.3907L28.8174 31.4852C28.3631 31.6102 27.9728 31.4303 27.7747 31.0096C27.5369 30.473 27.4911 30.3602 27.3814 30.098L27.0948 29.3845C26.6466 28.2504 26.107 27.162 25.5673 26.0766C25.4423 25.8235 25.299 25.5735 25.1954 25.3174C24.4697 23.5095 23.5673 21.7838 22.802 20.0002C22.1831 18.5551 21.613 17.0917 21.0337 15.6343C20.5947 14.5032 20.1526 13.3782 19.7136 12.2502C19.6861 12.177 19.6404 12.1038 19.613 12.0306C19.3691 11.3843 19.4453 11.1129 19.8294 11.2989C20.1709 11.4636 20.4849 11.8233 20.7319 12.3934C21.0063 13.0245 21.2654 13.6587 21.5307 14.2929L21.5672 14.2685Z" fill="#A6C5F3"/>
<path d="M28.4636 30.8726C30.2959 30.3269 31.113 30.0464 32.5124 29.5007L23.5915 9.49121C22.3598 9.90585 21.0458 10.415 19.6494 11.0339L28.4636 30.8726Z" fill="#A6C5F3"/>
<path d="M30.4841 29.7808C30.789 29.7107 31.0939 29.6284 31.3957 29.5491L31.6244 29.4881C31.6853 29.4728 31.7189 29.4698 31.7738 29.4576L32.103 29.3936L32.1884 29.3753C32.2128 29.3692 32.1884 29.3387 32.1914 29.3204L32.164 29.1924C32.1427 29.1009 32.1122 29.0003 32.0756 28.8966C31.9933 28.668 31.8683 28.3905 31.7158 28.1557C31.6366 28.0307 31.5878 27.8783 31.5268 27.7381C31.4109 27.485 31.2981 27.2289 31.1792 26.9759C31.1244 26.86 31.0237 26.7594 30.9902 26.6466C30.8317 26.0826 30.6183 25.546 30.2951 25.0521C30.2158 24.5917 29.9597 24.2167 29.7402 23.8173C29.5207 23.4148 29.356 22.9819 29.0908 22.6069C29.0207 22.5063 28.9566 22.3843 28.9231 22.2685C28.7127 21.5581 28.3804 20.8995 28.0572 20.2349C27.7097 19.5215 27.417 18.7867 27.1944 18.0245C27.0755 17.619 26.8956 17.2196 26.7188 16.8263C26.5084 16.3599 26.2706 15.9056 26.0542 15.4422C25.7401 14.7684 25.4078 14.1068 25.0328 13.4665C24.5297 12.6098 24.048 11.7378 23.5846 10.8537C23.5267 10.7408 23.4718 10.628 23.4169 10.5122L23.3498 10.3567L23.3346 10.311L23.3041 10.2073C23.3011 10.1982 23.298 10.186 23.295 10.1799L23.2706 10.1829L23.2218 10.1921L23.17 10.2043L23.0937 10.2226C23.0816 10.2226 23.0053 10.25 22.9474 10.2653L22.7675 10.3232L22.048 10.5579C21.5693 10.7195 21.0907 10.8902 20.6212 11.0762L20.3254 11.1951L20.2035 11.247C20.2065 11.2805 20.234 11.3262 20.2492 11.3659L20.6272 12.1677C20.9321 12.8171 21.2675 13.4513 21.5785 14.0976L24.3194 19.8568L24.9993 21.2319C25.1121 21.4605 25.2157 21.6953 25.3163 21.9301L26.4292 24.5459L28.0694 28.2716C28.3774 28.9789 28.6701 29.6893 29.0573 30.354C29.164 30.54 29.1304 30.6314 28.9658 30.6192C28.6762 30.5948 28.3926 30.6009 28.103 30.3265C27.9078 30.1405 27.7402 29.9576 27.6487 29.6619C27.5176 29.229 27.2158 28.8448 27.1761 28.3753C27.17 28.3082 27.1273 28.2289 27.0877 28.1649C26.3926 27.0246 25.9353 25.7716 25.4139 24.549C25.2432 24.1496 25.042 23.7624 24.859 23.3691C24.7401 23.113 24.6243 22.8569 24.5145 22.5977C24.3529 22.2227 24.2096 21.8355 24.0328 21.4666C23.8986 21.1892 23.734 20.9331 23.7584 20.6191C23.7645 20.552 23.6913 20.4087 23.6334 20.3691C23.4169 20.2258 23.3285 19.988 23.2279 19.7532C22.9596 19.119 22.7005 18.4818 22.42 17.8507C22.2126 17.3843 21.984 16.9269 21.7492 16.4788C21.3803 15.7806 20.9901 15.0946 20.6272 14.3933C20.3224 13.808 20.048 13.2043 19.7553 12.6098C19.6882 12.4726 19.5998 12.3476 19.5327 12.2074C19.5022 12.1433 19.4717 12.0793 19.4382 12.0153L19.2888 11.6982C19.1821 11.4665 19.0845 11.2317 19.0205 11.0275C19.0022 10.9726 18.9839 10.9177 18.9687 10.8628L18.9412 10.7835C18.9412 10.7713 18.923 10.7531 18.9382 10.75L18.9809 10.7347C19.0937 10.6921 19.1973 10.6494 19.2949 10.6037C19.49 10.5122 19.6547 10.4085 19.8467 10.2591C19.9016 10.2165 19.9687 10.1738 20.048 10.1311C20.0754 10.1158 20.1059 10.0975 20.1364 10.0823L20.2065 10.0457C20.301 9.99997 20.4047 9.96034 20.4992 9.92985C20.74 9.84448 20.9962 9.79571 21.2431 9.74693C21.5419 9.689 21.8224 9.64327 22.0937 9.44204C22.237 9.33534 22.4748 9.28045 22.67 9.24386C22.9474 9.18289 23.3102 9.0884 23.6212 8.99998L23.7401 8.96645L23.798 8.94814C23.8163 8.94509 23.8407 8.92681 23.8438 8.96034L23.9413 9.20426L24.1395 9.67681L24.3133 10.0732L24.4474 10.3689L24.734 10.9512L26.3468 14.0885C26.5572 14.5 26.7462 14.9208 26.9444 15.3385C27.5572 16.6373 28.106 17.9635 28.6518 19.2898C28.7585 19.5489 28.8621 19.8172 29.0024 20.0581C29.3195 20.6191 29.5664 21.2075 29.789 21.8081C30.0542 22.5337 30.414 23.2136 30.7768 23.8904C30.8622 24.049 30.9628 24.2014 31.0237 24.3661C31.4597 25.5185 32.0756 26.5917 32.5512 27.7228L33.35 29.6741L33.414 29.8326L33.4293 29.8722C33.4323 29.8844 33.4049 29.8845 33.3957 29.8905L33.3104 29.921L32.9689 30.0399L32.3043 30.2717L31.9811 30.3814L31.8012 30.4363L31.4384 30.543C30.6884 30.7625 29.9292 30.9363 29.1792 31.104C29.1304 31.1162 29.0816 31.1406 29.0329 31.1528C28.603 31.2412 28.4201 31.107 28.539 30.7838C28.6426 30.4972 28.8774 30.2808 29.2524 30.171L30.4933 29.8143L30.4841 29.7808Z" fill="#A6C5F3"/>
<path d="M51.6527 1.09457C51.3935 1.05493 51.1313 1.01226 50.8661 0.99397C50.6039 0.969579 50.3386 0.939094 50.0734 0.920801C49.6039 0.87202 49.1283 0.853714 48.6709 1.0214C48.552 1.06713 48.4179 1.07323 48.2929 1.09762C48.0612 1.13725 47.8356 1.21045 47.6099 1.27142C47.5063 1.30191 47.4118 1.37811 47.3173 1.3964C46.8294 1.46042 46.3569 1.61288 45.9575 1.90557C45.7623 1.9391 45.5886 2.01229 45.427 2.10985C45.2684 2.21656 45.1221 2.33851 44.9697 2.45132C44.677 2.69218 44.3416 2.89034 44.1221 3.20742C44.0642 3.28974 43.9818 3.36595 43.8995 3.42082C43.3995 3.76839 43.0215 4.25928 42.7196 4.78368C42.3995 5.35076 42.1068 5.92087 41.8019 6.51539C41.7257 6.67698 41.6617 6.84467 41.6068 7.01845C41.5611 7.19529 41.5245 7.37517 41.4879 7.552C41.4513 7.76542 41.433 7.98188 41.4117 8.1953L41.3842 8.84165C41.3751 9.46666 41.4269 10.0886 41.5763 10.6923C41.7806 11.4972 42.0428 12.2777 42.3507 13.0368C42.5062 13.421 42.616 13.8295 42.7684 14.2198C43.0641 15.0033 43.4178 15.7747 43.8782 16.485C44.2227 17.0186 44.6312 17.5095 45.0855 17.9454C45.5063 18.357 45.9788 18.7046 46.4666 19.0156C47.1831 19.4821 47.9636 19.8357 48.7715 20.0308C49.5795 20.226 50.4179 20.2565 51.2411 20.1376L51.8295 20.0187L52.4057 19.854C52.5978 19.7961 52.7869 19.726 52.9789 19.6711C53.6893 19.4394 54.3814 19.1284 55.0369 18.7412C55.9698 18.171 56.8174 17.4576 57.5857 16.6649L57.9119 16.3265L58.2138 15.9668C58.418 15.7289 58.5888 15.4637 58.7443 15.1923C58.8296 15.0399 58.9211 15.0338 59.0004 15.171C59.1376 15.4088 59.2961 15.6405 59.226 15.9851C59.1802 16.2229 59.1132 16.4271 58.9089 16.6101C58.6254 16.8783 58.4241 17.2564 58.0491 17.4272C57.9973 17.4515 57.9485 17.5125 57.9089 17.5643C57.2137 18.4973 56.2259 19.1558 55.2168 19.7107C54.8905 19.8997 54.5613 20.0888 54.2198 20.2595C53.9972 20.3662 53.7655 20.4516 53.5369 20.543C53.3692 20.6071 53.1923 20.6467 53.0216 20.6985C52.8509 20.7504 52.6771 20.7991 52.5033 20.8388C52.2442 20.9089 51.9942 21.0217 51.7259 20.8998C51.671 20.8754 51.5338 20.9028 51.488 20.9485C51.3173 21.1223 51.0856 21.1071 50.863 21.1223C50.5582 21.1467 50.2533 21.104 49.9514 21.0949C49.6496 21.0522 49.3478 21.0217 49.049 20.9577C48.6069 20.8693 48.1679 20.7656 47.738 20.6284C47.0673 20.4242 46.4087 20.1467 45.8081 19.7686C45.5489 19.6223 45.3203 19.4272 45.0794 19.2534C44.8569 19.0583 44.619 18.8723 44.4117 18.6619C44.3111 18.5674 44.1953 18.4881 44.0977 18.3936C43.927 18.2107 43.7288 18.0278 43.6129 17.8144C43.4971 17.5705 43.3812 17.4089 43.1373 17.2839C43.0032 17.2107 42.8873 17.0277 42.7958 16.8753C42.68 16.6771 42.6099 16.4576 42.5336 16.2473C42.4452 15.9942 42.3873 15.7472 42.1678 15.5399C42.055 15.4271 41.991 15.2198 41.9483 15.0521C41.7653 14.3021 41.4909 13.6009 41.2379 12.8752C40.9086 11.8905 40.6586 10.8691 40.5611 9.81119C40.5367 9.60387 40.5275 9.39653 40.5306 9.18617C40.5275 8.9758 40.5275 8.76846 40.5458 8.55809C40.6068 7.25319 40.9787 5.9422 41.6434 4.7928C41.7775 4.56718 41.9117 4.34158 42.0428 4.11902C42.116 3.98792 42.1861 3.85681 42.2714 3.73181C42.3599 3.61291 42.4544 3.49399 42.5489 3.38119C42.7318 3.14338 42.9666 2.95743 43.1861 2.75925C43.7471 2.32022 44.2684 1.84765 44.8629 1.4574C44.9971 1.35679 45.1313 1.25923 45.2806 1.1952C46.3172 0.750074 47.3508 0.292738 48.4545 0.115906C49.3447 -0.0212907 50.2441 -0.0243366 51.1283 0.0427376C51.8082 0.103714 52.482 0.210404 53.1375 0.365894C53.1802 0.37504 53.2289 0.372006 53.2716 0.381153C53.6466 0.475667 53.7289 0.670794 53.5064 0.917749C53.3112 1.13422 53.0551 1.24093 52.732 1.18605C52.3722 1.15251 52.0185 1.07933 51.6557 1.05798L51.6527 1.09457Z" fill="#A6C5F3"/>
<path d="M43.1515 3.6748C43.118 3.74188 43.0417 3.82114 42.7826 4.15956C38.7307 9.42793 43.2308 19.669 49.0205 20.672C49.7614 20.8001 50.4382 20.8001 50.9535 20.4677L43.1515 3.6748Z" fill="#A6C5F3"/>
<path d="M42.534 5.36342C42.4029 5.56159 42.2779 5.76281 42.159 5.97318C42.0553 6.18965 41.9273 6.39697 41.8297 6.61953C41.7352 6.81466 41.6346 7.00981 41.5797 7.22018C41.5157 7.4275 41.4761 7.64397 41.4944 7.86958C41.5035 7.98544 41.4639 8.10432 41.4517 8.22322C41.4395 8.43969 41.4212 8.65616 41.4212 8.87567C41.4242 8.97628 41.4761 9.07994 41.4578 9.1714C41.409 9.39701 41.3938 9.62266 41.4029 9.85132C41.406 10.0769 41.4517 10.3025 41.5218 10.522C41.4791 10.705 41.5005 10.8818 41.5401 11.0525C41.5797 11.2233 41.6346 11.394 41.6925 11.5648C41.7505 11.7355 41.7871 11.9093 41.8389 12.08C41.8938 12.2507 41.9578 12.4184 42.0462 12.5739C42.0919 12.6562 42.1346 12.7538 42.1468 12.8483C42.2169 13.4245 42.4669 13.9489 42.72 14.4642C43.0066 15.0099 43.2505 15.5709 43.4913 16.1471C43.6163 16.455 43.8115 16.7417 44.0127 17.013C44.2505 17.3392 44.531 17.6258 44.8054 17.9185C45.2017 18.3423 45.653 18.7081 46.1438 19.0008C46.8054 19.3819 47.4975 19.6838 48.1926 19.8698C48.5494 19.9612 48.8878 20.0862 49.2536 20.1655C49.4366 20.2021 49.6134 20.2295 49.7872 20.2417L49.903 20.2509L49.9579 20.257C49.9945 20.26 50.0341 20.26 50.0738 20.257C50.1561 20.2509 50.2414 20.2295 50.3268 20.1929C50.3085 20.1228 50.278 20.0466 50.2475 19.9643L50.211 19.8698L50.1286 19.6838L49.9366 19.2691L49.5341 18.4459C49.2811 17.9368 48.9975 17.4429 48.7384 16.9337L46.4548 12.4154L45.8877 11.3391C45.7932 11.1593 45.7078 10.9763 45.6255 10.7903L44.717 8.72628L43.3694 5.79331C43.1163 5.23843 42.8785 4.6744 42.5493 4.15915C42.4578 4.0128 42.4944 3.93658 42.656 3.93048C42.9334 3.92439 43.2078 3.89086 43.47 4.09208C43.6468 4.22928 43.7962 4.3634 43.8664 4.60121C43.967 4.94878 44.2322 5.23845 44.2414 5.6226C44.2414 5.67748 44.2779 5.73843 44.3115 5.78721C44.9121 6.66832 45.2719 7.66226 45.6987 8.62874C45.8389 8.94277 46.0097 9.24458 46.1621 9.55556C46.2597 9.75678 46.3542 9.958 46.4457 10.1623C46.5768 10.458 46.6926 10.766 46.839 11.0525C46.9518 11.2721 47.0951 11.4641 47.0493 11.7294C47.0402 11.7843 47.1012 11.8971 47.153 11.9245C47.3512 12.0221 47.4243 12.2142 47.5036 12.3971C47.7231 12.8971 47.9335 13.4032 48.1652 13.8971C48.3359 14.2629 48.528 14.6197 48.7262 14.9733C49.0372 15.5191 49.3725 16.0496 49.6774 16.5984C49.9335 17.0557 50.1622 17.5283 50.4061 17.9947C50.464 18.1014 50.5402 18.199 50.5951 18.3057C50.6957 18.5039 50.8238 18.7021 50.8665 18.9124C50.8908 19.0283 50.9183 19.1289 50.9671 19.2204C50.9915 19.2661 51.0189 19.3057 51.0555 19.3453C51.0921 19.385 51.1287 19.4094 51.2049 19.5039C51.2841 19.5923 51.3634 19.7234 51.4335 19.8667C51.5067 20.01 51.5799 20.1655 51.586 20.2752C51.6134 20.4277 51.6317 20.574 51.647 20.7112C51.6927 20.7936 51.5585 20.8118 51.4884 20.8515L51.2537 20.946C50.8909 21.0984 50.5616 21.1503 50.1561 21.2814C49.8817 21.3576 49.711 21.3179 49.528 21.2722C48.7963 21.0679 48.0981 20.8881 47.4091 20.6259C46.4731 20.2783 45.6164 19.7539 44.8542 19.1197C44.5523 18.8758 44.284 18.5893 44.0218 18.3088C43.2139 17.4124 42.5798 16.3819 42.098 15.2996C42.0035 15.0862 41.909 14.8697 41.7992 14.6684C41.6651 14.4367 41.5492 14.1989 41.4608 13.9459C41.3663 13.6989 41.2931 13.4428 41.2352 13.1806C41.0889 12.5587 40.8907 11.955 40.7261 11.333C40.6895 11.1898 40.6346 11.0434 40.6224 10.897C40.5492 9.86959 40.4029 8.82995 40.5614 7.78421C40.6925 6.94273 40.9791 6.12258 41.3755 5.36952C41.6681 4.7811 42.095 4.25977 42.5157 3.7872C42.5432 3.75671 42.5615 3.71705 42.5889 3.68656C42.7139 3.55851 42.8267 3.50669 42.9029 3.54023C42.9761 3.57681 43.1011 3.60119 43.159 3.75973C43.2627 4.03108 43.22 4.29329 43.0493 4.53109L42.7596 4.92135L42.4974 5.32989L42.534 5.36342Z" fill="#A6C5F3"/>
<path d="M18.9471 68.215L17.2184 68.4589C17.1483 68.468 17.0873 68.5138 17.0599 68.5778L15.7641 71.3919C15.7519 71.4193 15.7458 71.4498 15.7458 71.4802C15.7733 77.5749 15.8922 83.8127 16.1117 90.1909C16.3861 98.1239 16.8007 105.837 17.3343 113.325C17.5508 116.377 19.9563 118.822 23.0021 119.088C25.7369 119.325 28.7003 119.46 31.8619 119.423C34.0053 119.399 36.0541 119.301 37.9962 119.149C41.359 118.883 43.9109 116.005 43.7554 112.636C43.0877 98.2246 42.42 83.8128 41.7554 69.3979C41.7493 69.2912 41.6639 69.2058 41.5572 69.1997L18.9898 68.2119C18.9715 68.2119 18.9593 68.2119 18.9471 68.215Z" fill="#CFE2F4"/>
<path d="M16.2074 72.7123C16.1799 74.4867 16.1738 76.2764 16.122 78.0325C16.0763 79.6026 16.0275 81.1392 16.1434 82.7399C16.1738 83.1515 16.1616 83.5996 16.1708 84.0326C16.1891 84.8161 16.2074 85.6027 16.2257 86.3862C16.2379 86.743 16.2958 87.118 16.2836 87.4503C16.2562 88.2674 16.247 89.0814 16.2562 89.8954C16.2714 90.7095 16.3232 91.5235 16.3995 92.3406C16.3293 93.6181 16.4665 94.8711 16.558 96.1486C16.6525 97.4261 16.686 98.7309 16.8385 99.9901C16.8781 100.325 16.9086 100.71 16.9086 101.048C16.9178 103.118 17.0702 105.179 17.2226 107.252C17.305 108.365 17.3751 109.475 17.43 110.585L17.5031 112.249C17.5275 112.804 17.5306 113.365 17.5824 113.893C17.7226 115.03 18.2592 116.182 19.0824 117.036C20.0428 118.073 21.3873 118.725 22.7776 118.884C24.8417 119.076 26.9271 119.143 28.9942 119.109C31.7625 119.054 34.543 118.899 37.3114 118.64L37.8419 118.591C38.0217 118.576 38.1681 118.548 38.3358 118.53C38.5004 118.518 38.6559 118.472 38.8144 118.439L39.0553 118.387L39.287 118.311C39.909 118.115 40.5035 117.814 41.0279 117.417C42.0767 116.621 42.8389 115.454 43.1407 114.161C43.223 113.838 43.2596 113.509 43.2871 113.176L43.2962 112.676L43.2779 112.14L43.2017 109.984C43.1194 107.826 43.0066 105.661 42.8907 103.502C42.7688 101.487 42.6468 99.4779 42.5249 97.4627L41.5279 79.5477C41.4395 78.1117 41.3541 76.6819 41.2657 75.2459C41.223 74.5294 41.1895 73.8098 41.159 73.0934L41.034 69.9287C41.034 69.9226 41.037 69.9104 41.0279 69.9104L41.0187 69.9074H41.0126L40.9242 69.9013L39.7779 69.8433L37.4882 69.7336L26.0459 69.2214C23.8813 69.1208 21.7227 69.008 19.5672 68.9958C19.2653 68.9927 19.0641 68.9744 18.9696 68.9378C18.9666 68.6756 18.9666 68.5628 18.9635 68.4226C18.93 69.2092 18.9544 68.6421 18.9452 68.8159L18.9605 68.8037C18.9727 68.7976 18.9849 68.7884 19.0001 68.7793C19.3995 68.5415 19.7227 68.2915 20.7654 68.1878C21.4727 68.1146 22.1282 68.0659 23.0002 68.1421C24.2624 68.2518 25.5978 68.1908 26.8356 68.4012C27.0094 68.4317 27.2655 68.4348 27.4728 68.4348C31.2015 68.4256 34.9394 68.6817 38.6772 68.8646L40.3907 68.9317L41.3114 68.9622C41.4059 68.9653 41.5004 68.9714 41.5858 68.9866C41.6712 69.0019 41.7535 69.014 41.8236 69.078C41.8937 69.136 41.9364 69.2183 41.9486 69.3006C41.9669 69.383 41.9822 69.4714 41.9883 69.5659L42.0035 69.8769L42.1163 72.258C42.1651 73.4104 42.1925 74.5629 42.2596 75.7123C42.3084 76.5782 42.3968 77.4166 42.2809 78.2093C42.2566 78.3739 42.287 78.8312 42.3297 78.9898C42.4974 79.5965 42.5157 80.316 42.5431 81.0325L42.7779 86.8405C42.845 88.2735 42.9334 89.7064 43.034 91.1302C43.1956 93.3437 43.3572 95.548 43.5218 97.7614C43.6468 99.6121 43.7413 101.475 43.8541 103.332C43.8785 103.762 43.9304 104.185 43.9517 104.612C43.9944 105.402 44.0676 106.228 44.0523 106.972C44.0371 107.798 44.0554 108.441 44.2139 109.195C44.3023 109.618 44.3267 110.295 44.342 110.85C44.3511 111.204 44.3511 111.557 44.348 111.911C44.3419 112.268 44.345 112.6 44.3145 112.993C44.2444 113.905 44.0279 114.716 43.7291 115.646C43.6926 115.774 43.6377 115.908 43.5675 116.042C43.4974 116.176 43.4273 116.32 43.3419 116.457C43.1621 116.725 42.97 116.993 42.7627 117.207C42.3236 117.689 41.8267 118.122 41.2748 118.466C40.726 118.811 40.1407 119.103 39.5157 119.283C39.3632 119.338 39.2047 119.375 39.0461 119.408C38.8876 119.439 38.7321 119.49 38.5705 119.506L38.0888 119.57C37.9272 119.591 37.7809 119.597 37.6284 119.612L35.7991 119.753C32.4851 119.987 29.1618 120.067 25.8356 119.942C25.1831 119.917 24.5307 119.881 23.8782 119.838L22.8965 119.762L22.3599 119.695C22.1831 119.664 22.0063 119.622 21.8325 119.585C21.2898 119.445 20.7593 119.256 20.2684 118.984C19.7715 118.725 19.3111 118.396 18.8964 118.021C18.4727 117.652 18.119 117.213 17.7989 116.756C17.4879 116.289 17.2379 115.786 17.0428 115.259C16.8659 114.728 16.7196 114.182 16.6799 113.624C16.6434 113.335 16.6403 113.103 16.622 112.847L16.5763 112.091L16.4025 109.066C16.3598 108.274 16.3232 107.469 16.247 106.691C16.0763 104.893 15.9879 103.097 15.9391 101.295C15.8781 99.1243 15.7257 96.9718 15.5793 94.8163C15.5458 94.3162 15.497 93.8071 15.4848 93.3102C15.4513 91.5754 15.375 89.8467 15.3324 88.1149C15.2805 86.3863 15.2196 84.6576 15.2013 82.9258C15.1677 80.127 15.186 77.3312 15.1921 74.5355L15.1982 72.9348L15.2043 72.136L15.2074 71.7367V71.636C15.2104 71.6025 15.2043 71.5354 15.2104 71.4866C15.2196 71.4318 15.2318 71.3769 15.2439 71.3251L15.2531 71.2854C15.25 71.2763 15.2653 71.2732 15.247 71.2641L15.2531 71.2458L15.2836 71.1696L16.0244 69.6665L16.3842 68.9348L16.5946 68.5049C16.6403 68.4073 16.6921 68.3158 16.7562 68.2427C16.8232 68.1665 16.9178 68.1086 17.0092 68.0811C17.0702 68.0628 17.1342 68.0445 17.2043 68.0354L17.4361 67.9988C17.4848 67.9927 17.5336 67.9835 17.5824 67.9774C18.8019 67.8433 19.2105 67.9683 18.6769 68.3219C18.5275 68.4195 18.3477 68.514 18.1373 68.5994C18.0306 68.6421 17.9178 68.6817 17.7958 68.7214C17.6769 68.761 17.5153 68.8006 17.4787 68.822C17.4452 68.8403 17.4056 68.8433 17.3781 68.8707C17.3476 68.8982 17.3446 68.947 17.3293 68.9836L17.308 69.0415C17.2897 69.0841 17.2714 69.1268 17.2531 69.1726C17.2135 69.261 17.1708 69.3525 17.1281 69.447L16.1616 71.4897C16.1495 71.511 16.1403 71.5385 16.1403 71.5628V71.6787L16.1434 72.0202L16.1494 72.7062L16.2074 72.7123Z" fill="#A6C5F3"/>
<path d="M42.5118 108.253C42.1764 108.283 41.8441 108.338 41.5057 108.335C41.2038 108.338 40.9081 108.329 40.6398 108.484C40.5697 108.524 40.4843 108.527 40.4081 108.545C40.2679 108.579 40.1246 108.609 39.9843 108.652C39.9203 108.67 39.8624 108.737 39.8014 108.734C39.4874 108.716 39.1886 108.756 38.9081 108.905C38.652 108.835 38.4416 108.963 38.2129 109.042C37.9843 109.118 37.7434 109.134 37.5239 109.262C37.466 109.295 37.3959 109.317 37.3318 109.31C36.9355 109.271 36.5635 109.365 36.1824 109.438C35.7739 109.524 35.3562 109.533 34.9385 109.469C34.7159 109.432 34.4873 109.454 34.2647 109.475L33.469 109.576C33.0818 109.618 32.7007 109.664 32.3165 109.762C31.8043 109.887 31.283 109.99 30.7586 110.045C30.4933 110.076 30.2189 110.039 29.9506 110.015C29.4171 109.951 28.8805 109.89 28.3469 109.826C27.9445 109.786 27.5421 109.765 27.1396 109.746C26.7616 109.734 26.3835 109.737 26.0054 109.713C24.8865 109.64 23.7707 109.515 22.6578 109.35C22.3895 109.307 22.1212 109.283 21.8529 109.246C21.7188 109.225 21.5877 109.195 21.4566 109.161C20.9718 109.036 20.4901 108.89 20.0084 108.756C19.3194 108.56 18.6303 108.359 17.9504 108.134C17.5663 107.999 17.1882 107.853 16.7797 107.792C16.6638 107.777 16.6547 107.701 16.7431 107.576C16.8986 107.362 17.0419 107.131 17.2706 107.051C17.426 106.996 17.5663 106.966 17.7035 107.051C17.9078 107.176 18.1761 107.143 18.3468 107.359C18.3712 107.39 18.4169 107.396 18.4566 107.399C19.1608 107.445 19.7919 107.719 20.4535 107.917C20.67 107.978 20.8956 108.009 21.1151 108.054C21.2584 108.088 21.3987 108.115 21.542 108.152C21.7462 108.204 21.9475 108.28 22.1578 108.31C22.3164 108.335 22.478 108.32 22.5877 108.496C22.6121 108.533 22.6944 108.542 22.731 108.515C22.8682 108.402 22.9932 108.445 23.1243 108.472C23.4719 108.545 23.8164 108.643 24.17 108.692C24.4292 108.731 24.6945 108.756 24.9567 108.759C25.3682 108.762 25.7768 108.743 26.1853 108.737C26.5268 108.734 26.8652 108.768 27.2067 108.768C27.2859 108.768 27.3652 108.746 27.4445 108.749C27.5878 108.756 27.7402 108.734 27.8713 108.795C28.0177 108.859 28.1335 108.877 28.2799 108.762C28.3622 108.698 28.4841 108.713 28.5848 108.731C28.7128 108.756 28.8378 108.81 28.9628 108.862C29.1122 108.923 29.2524 108.987 29.4201 108.899C29.5085 108.853 29.6305 108.887 29.7281 108.923C30.164 109.091 30.6122 109.07 31.0543 109.036C31.658 108.975 32.2586 108.884 32.8531 108.792C33.0879 108.762 33.3226 108.737 33.5574 108.713C34.2861 108.637 35.0178 108.6 35.7526 108.557C35.8958 108.548 36.0422 108.542 36.1794 108.496C36.4965 108.396 36.8196 108.356 37.152 108.353C37.5483 108.341 37.9294 108.225 38.3044 108.1C38.3928 108.07 38.4751 108.024 38.5666 108.018C39.1977 107.969 39.7861 107.71 40.399 107.588C40.8959 107.487 41.4051 107.432 41.9112 107.35C42.3014 107.289 42.6947 107.237 43.088 107.173C43.1124 107.17 43.1368 107.149 43.1612 107.146C43.3868 107.115 43.5118 107.265 43.4935 107.56C43.4783 107.82 43.3746 108.002 43.1764 108.06C42.9569 108.124 42.7313 108.167 42.5087 108.219L42.5118 108.253Z" fill="#A6C5F3"/>
<path d="M17.8939 102.179C18.1774 102.353 18.4701 102.515 18.7475 102.704C18.9945 102.874 19.2384 103.045 19.5494 103.057C19.6286 103.06 19.7018 103.106 19.778 103.13C19.9152 103.176 20.0555 103.219 20.1957 103.255C20.2597 103.271 20.3421 103.243 20.3939 103.277C20.6561 103.451 20.9427 103.551 21.2598 103.545C21.4549 103.725 21.7049 103.698 21.9427 103.722C22.1805 103.749 22.4092 103.832 22.6592 103.795C22.7263 103.786 22.7964 103.792 22.8543 103.823C23.2049 104.009 23.5891 104.045 23.9702 104.097C24.3787 104.149 24.7781 104.249 25.1684 104.423C25.3757 104.512 25.6043 104.542 25.8269 104.573C26.0922 104.615 26.3635 104.606 26.6287 104.627C27.0159 104.664 27.4031 104.664 27.7934 104.612C28.3117 104.554 28.8331 104.478 29.3483 104.448C29.6105 104.42 29.8757 104.463 30.1379 104.487C30.6654 104.533 31.1928 104.582 31.7233 104.591C32.1227 104.591 32.5191 104.569 32.9154 104.521C33.2843 104.484 33.6502 104.402 34.0161 104.344C35.1045 104.176 36.1807 103.963 37.2417 103.694C37.4948 103.627 37.7478 103.551 37.9978 103.472C38.1228 103.435 38.2509 103.405 38.3789 103.38C38.8545 103.283 39.3332 103.185 39.8027 103.06C40.4765 102.88 41.1412 102.67 41.8028 102.451C42.1778 102.326 42.5589 102.21 42.8942 101.99C42.9888 101.929 43.0467 101.981 43.0619 102.13C43.0863 102.393 43.129 102.658 43.0009 102.871C42.9156 103.015 42.8272 103.13 42.6595 103.152C42.4186 103.182 42.2204 103.377 41.9491 103.307C41.9095 103.298 41.8668 103.319 41.8332 103.341C41.2265 103.728 40.5223 103.85 39.8393 104.012C39.6168 104.066 39.4003 104.152 39.1808 104.213C39.0375 104.252 38.8942 104.292 38.7478 104.323C38.5344 104.365 38.3179 104.39 38.1106 104.451C37.9551 104.496 37.8088 104.573 37.635 104.457C37.5984 104.432 37.5161 104.457 37.4948 104.499C37.4094 104.658 37.2753 104.67 37.1411 104.691L36.0588 104.844C35.7935 104.884 35.5313 104.951 35.2691 105.018C34.8636 105.121 34.4581 105.255 34.0465 105.338C33.702 105.414 33.3514 105.451 33.0008 105.499C32.9185 105.512 32.8423 105.545 32.7599 105.554C32.6105 105.573 32.4551 105.615 32.3118 105.57C32.1532 105.521 32.0313 105.515 31.891 105.646C31.8118 105.719 31.6837 105.716 31.577 105.71C31.4428 105.701 31.3056 105.652 31.1745 105.606C31.016 105.551 30.8697 105.493 30.6989 105.588C30.6075 105.637 30.4825 105.612 30.3788 105.576C29.9245 105.414 29.4672 105.429 29.0038 105.444L28.0617 105.487L27.1166 105.505C26.8696 105.505 26.6227 105.478 26.3787 105.46C25.6104 105.402 24.8574 105.246 24.1135 105.069C23.9671 105.036 23.8208 104.993 23.6683 104.99C23.3208 104.981 22.9884 104.905 22.6653 104.78C22.275 104.64 21.8665 104.591 21.4549 104.539C21.3604 104.527 21.2567 104.533 21.1683 104.499C20.5524 104.252 19.8878 104.188 19.2689 103.951C18.7689 103.762 18.2933 103.515 17.8207 103.268C17.4548 103.079 17.1012 102.865 16.7505 102.655C16.7262 102.64 16.6957 102.64 16.6743 102.627C16.4762 102.499 16.4823 102.307 16.6896 102.097C16.8756 101.911 17.0676 101.838 17.2536 101.923C17.4579 102.015 17.6622 102.118 17.8634 102.216L17.8939 102.179Z" fill="#A6C5F3"/>
<path d="M36.032 101.892C36.0838 101.557 36.1173 101.219 36.1936 100.883C36.2606 100.584 36.3338 100.295 36.2393 99.9929C36.2149 99.9166 36.2332 99.8313 36.2301 99.749C36.224 99.6026 36.221 99.4532 36.2088 99.3069C36.2027 99.2398 36.1509 99.1697 36.1661 99.1087C36.2423 98.7977 36.2576 98.4929 36.1539 98.188C36.2637 97.9441 36.1722 97.7093 36.1295 97.4715C36.0869 97.2306 36.1051 96.9837 36.0076 96.7489C35.9832 96.6849 35.971 96.6148 35.9862 96.5508C36.0716 96.1575 36.0259 95.7702 35.9893 95.38C35.9497 94.9593 35.971 94.5416 36.0655 94.1208C36.1173 93.8983 36.1082 93.6635 36.099 93.4379C36.0899 93.1665 36.0503 92.8952 36.032 92.6239C36.0076 92.2306 35.9649 91.8403 35.8704 91.45C35.7454 90.9317 35.6448 90.4074 35.5655 89.8799C35.5259 89.6116 35.5564 89.3372 35.5655 89.0689C35.5868 88.5262 35.6295 87.9836 35.6387 87.4409C35.6448 87.0323 35.6234 86.6268 35.5929 86.2183C35.5655 85.8372 35.5076 85.4622 35.4771 85.0811C35.3856 83.9561 35.3033 82.831 35.2149 81.706C35.1935 81.4347 35.1539 81.1664 35.1295 80.895C35.1173 80.7609 35.1112 80.6237 35.1112 80.4895C35.1112 79.9865 35.1204 79.4834 35.1143 78.9834C35.1021 78.2639 35.0746 77.5444 35.0655 76.8248C35.0594 76.4163 35.0685 76.0077 34.974 75.6053C34.9466 75.4925 35.0137 75.4529 35.1631 75.4925C35.4192 75.5596 35.6844 75.6114 35.8399 75.8004C35.9466 75.9285 36.0289 76.0504 35.9954 76.2151C35.9466 76.4559 36.0716 76.7029 35.9253 76.9407C35.9039 76.9742 35.9131 77.023 35.9253 77.0596C36.1173 77.7578 36.0472 78.4651 36.0442 79.1694C36.0442 79.4011 36.0777 79.6298 36.093 79.8615C36.1021 80.0109 36.1082 80.1603 36.1082 80.3097C36.1082 80.5261 36.0899 80.7456 36.1082 80.9621C36.1234 81.1268 36.1753 81.2822 36.0289 81.4347C35.9984 81.4651 36.0076 81.5536 36.0442 81.581C36.1875 81.6938 36.1753 81.828 36.1753 81.9652C36.1753 82.331 36.16 82.6969 36.1722 83.0597C36.1814 83.3311 36.2119 83.5993 36.2515 83.8676C36.3155 84.2853 36.407 84.6969 36.4649 85.1146C36.5137 85.4622 36.532 85.8128 36.5686 86.1634C36.5777 86.2457 36.6082 86.325 36.6143 86.4043C36.6265 86.5537 36.6631 86.7091 36.6174 86.8494C36.5686 87.0049 36.5594 87.1268 36.6875 87.2671C36.7576 87.3463 36.7545 87.4744 36.7454 87.5781C36.7332 87.7122 36.6905 87.8464 36.6478 87.9775C36.596 88.136 36.5411 88.2854 36.6387 88.45C36.6905 88.5384 36.6661 88.6665 36.6326 88.7702C36.4984 89.2275 36.5228 89.6879 36.5777 90.1452C36.6509 90.7671 36.7484 91.386 36.8247 92.005C36.8552 92.2489 36.8674 92.4928 36.8826 92.7367C36.9344 93.4958 36.9192 94.258 36.8978 95.0203C36.8948 95.1696 36.8856 95.3221 36.9161 95.4684C36.9893 95.8068 36.9832 96.1452 36.9497 96.4867C36.91 96.8953 36.971 97.3008 37.0381 97.7062C37.0533 97.8008 37.0869 97.8953 37.0777 97.9898C37.0259 98.6453 37.1692 99.2917 37.16 99.9441C37.1539 100.472 37.096 100.999 37.0472 101.526C37.0107 101.935 36.9588 102.34 36.9131 102.749C36.91 102.776 36.9222 102.804 36.9192 102.831C36.8856 103.063 36.7088 103.142 36.4283 103.039C36.1814 102.95 36.035 102.801 36.035 102.59C36.035 102.359 36.0503 102.13 36.0564 101.898C36.0564 101.892 36.0442 101.892 36.032 101.892Z" fill="#A6C5F3"/>
<path d="M23.9597 77.5325C23.9078 77.874 23.8774 78.2185 23.8011 78.56C23.7341 78.8618 23.6609 79.1606 23.7584 79.4655C23.7828 79.5448 23.7645 79.6301 23.7676 79.7124C23.7737 79.8618 23.7767 80.0143 23.7889 80.1637C23.795 80.2308 23.8469 80.3039 23.8316 80.3679C23.7554 80.685 23.7402 80.996 23.8438 81.307C23.7341 81.5539 23.8255 81.7948 23.8682 82.0387C23.9109 82.2826 23.8926 82.5356 23.9902 82.7735C24.0146 82.8375 24.0267 82.9107 24.0115 82.9777C23.9261 83.3771 23.9719 83.7735 24.0085 84.1729C24.0481 84.5997 24.0298 85.0266 23.9322 85.4564C23.8804 85.6851 23.8896 85.9229 23.8987 86.1546C23.9078 86.432 23.9475 86.7065 23.9658 86.9839C23.9902 87.3863 24.0359 87.7827 24.1304 88.179C24.2554 88.7095 24.3591 89.2431 24.4353 89.7766C24.4749 90.0479 24.4475 90.3285 24.4353 90.6029C24.4139 91.1547 24.3743 91.7096 24.3652 92.2614C24.3591 92.676 24.3835 93.0907 24.4109 93.5053C24.4383 93.8925 24.4993 94.2767 24.5298 94.6639C24.6213 95.8102 24.7066 96.9566 24.7981 98.103C24.8194 98.3774 24.8591 98.6517 24.8835 98.9292C24.8957 99.0664 24.9018 99.2036 24.9018 99.3438C24.9018 99.856 24.8926 100.368 24.9018 100.88C24.914 101.612 24.9414 102.347 24.9536 103.079C24.9597 103.493 24.9536 103.911 25.0451 104.32C25.0725 104.435 25.0054 104.475 24.856 104.435C24.5999 104.368 24.3347 104.316 24.1761 104.121C24.0694 103.99 23.9871 103.865 24.0207 103.698C24.0694 103.454 23.9414 103.201 24.0877 102.957C24.1091 102.923 24.0999 102.874 24.0877 102.835C23.8926 102.124 23.9658 101.405 23.9658 100.685C23.9658 100.451 23.9322 100.216 23.917 99.9811C23.9078 99.8286 23.9017 99.6762 23.9017 99.5237C23.8987 99.3012 23.92 99.0816 23.9017 98.8591C23.8865 98.6914 23.8347 98.5329 23.981 98.3774C24.0115 98.3438 24.0024 98.2585 23.9658 98.228C23.8225 98.1152 23.8347 97.9749 23.8347 97.8377C23.8347 97.4658 23.8469 97.0938 23.8347 96.7218C23.8255 96.4474 23.795 96.1731 23.7554 95.8987C23.6914 95.4749 23.5999 95.0541 23.5389 94.6273C23.4902 94.2736 23.4688 93.9139 23.4353 93.5602C23.4261 93.4779 23.3956 93.3956 23.3895 93.3133C23.3773 93.1608 23.3408 93.0023 23.3865 92.859C23.4353 92.7004 23.4444 92.5754 23.3164 92.4322C23.2462 92.3529 23.2493 92.2218 23.2584 92.1151C23.2706 91.9779 23.3133 91.8407 23.356 91.7065C23.4078 91.5449 23.4627 91.3925 23.3652 91.2248C23.3133 91.1333 23.3377 91.0053 23.3682 90.8986C23.5023 90.4321 23.478 89.9657 23.4231 89.4992C23.3499 88.8681 23.2523 88.2369 23.1731 87.6028C23.1426 87.3558 23.1304 87.1058 23.1151 86.8558C23.0633 86.0814 23.0786 85.307 23.0969 84.5296C23.0999 84.3771 23.1091 84.2217 23.0786 84.0753C23.0054 83.7308 23.0115 83.3863 23.045 83.0387C23.0847 82.621 23.0206 82.2094 22.9536 81.7978C22.9383 81.7033 22.9048 81.6057 22.9139 81.5112C22.9658 80.8435 22.8225 80.185 22.8286 79.5203C22.8347 78.9837 22.8926 78.4441 22.9383 77.9075C22.9749 77.4929 23.0267 77.0782 23.0694 76.6636C23.0725 76.6362 23.0603 76.6087 23.0633 76.5813C23.0969 76.3435 23.2737 76.2642 23.5511 76.3679C23.7981 76.4593 23.9444 76.6118 23.9444 76.8221C23.9475 77.0569 23.9322 77.2917 23.9231 77.5264C23.9322 77.5325 23.9444 77.5325 23.9597 77.5325Z" fill="#A6C5F3"/>
<path d="M25.1697 55.1933C26.563 52.9006 29.8435 52.7664 31.4167 54.9402L41.6425 69.0685C41.7004 69.1478 41.6943 69.2575 41.6272 69.3307L35.8771 75.5717C35.7979 75.6601 35.6607 75.6601 35.5784 75.5778L29.4411 69.3704C29.3557 69.2819 29.2124 69.2911 29.1331 69.3856L23.6483 76.1205C23.566 76.2211 23.4105 76.2211 23.3282 76.1205L17.0567 69.038C16.9958 68.974 25.1697 55.1933 25.1697 55.1933Z" fill="#CFE2F4"/>
<path d="M27.8527 52.9891C28.374 52.9433 28.9014 53.0165 29.3923 53.1689C29.6423 53.236 29.871 53.3549 30.0996 53.4616C30.3131 53.5988 30.5326 53.7238 30.7155 53.8976C31.06 54.1781 31.3192 54.5348 31.5631 54.8824C31.7887 55.2269 32.0356 55.5623 32.3192 55.8824C32.4655 56.047 32.5875 56.2513 32.7216 56.4342L33.4594 57.4373C33.5722 57.5897 33.7308 57.7209 33.8192 57.8703C34.2582 58.6203 34.743 59.3306 35.3253 59.977C35.6272 60.5928 36.0845 61.0806 36.5113 61.6081C36.9382 62.1355 37.3223 62.7087 37.7888 63.1996C37.9107 63.3307 38.0388 63.4892 38.1302 63.6447C38.6912 64.5868 39.362 65.4527 40.0297 66.3307C40.3254 66.721 40.615 67.1204 40.8955 67.5228L41.3071 68.1326L41.7431 68.8064C41.8071 68.9162 41.8651 69.0137 41.8894 69.1265C41.9108 69.2484 41.8468 69.3643 41.7644 69.4436C41.6425 69.5808 41.4718 69.7332 41.3681 69.8399C41.2553 69.9527 41.1425 70.0686 41.0327 70.1814C40.8132 70.4162 40.5937 70.654 40.3742 70.8887C39.8589 71.4497 39.365 72.032 38.8559 72.5991C38.115 73.4223 37.3955 74.2516 36.7125 75.1144L36.5235 75.3522C36.429 75.465 36.3375 75.5778 36.243 75.6906C36.1668 75.779 36.0814 75.8522 36.0022 75.9132C35.9259 75.9742 35.8253 76.0168 35.7156 76.0168C35.5997 76.0199 35.5143 75.9772 35.429 75.9315C35.3375 75.8827 35.2461 75.8156 35.1576 75.7303L34.8893 75.4802L34.7064 75.3156L34.3527 74.9955C33.8832 74.5656 33.4137 74.1327 32.9411 73.7028C32.3893 73.1906 31.8771 72.6174 31.3558 72.0656L29.7978 70.3979L29.6027 70.1905L29.5325 70.1143L29.496 70.0716L29.4197 69.9832C29.3954 69.9558 29.3679 69.9162 29.3252 69.9131C29.2825 69.907 29.2551 69.9405 29.2307 69.968L29.1514 70.0564L29.0478 70.1723L28.8649 70.3918C28.1301 71.2668 27.4136 72.1631 26.7063 73.0595L24.752 75.5931L24.13 76.3797C24.0325 76.5016 23.9197 76.5839 23.816 76.6449C23.7215 76.7059 23.5873 76.7455 23.4501 76.7364C23.3069 76.7272 23.2154 76.6785 23.1026 76.6144C22.9898 76.5504 22.88 76.4406 22.7763 76.3217L21.9227 75.3888L20.4501 73.7821L17.5019 70.5716L16.5781 69.5747C16.5019 69.5076 16.4866 69.4344 16.4531 69.3613L16.3616 69.1418L16.3555 69.1295V69.1265C16.2549 69.1387 16.4897 69.1113 16.4653 69.1113V69.1082V69.1021L16.4622 69.0747L16.4561 69.0198L16.447 68.91C16.4287 68.8399 16.4561 68.7545 16.4805 68.6692C16.5049 68.5869 16.5202 68.5015 16.5506 68.4192L16.6787 68.1844L16.8159 67.9314C16.9988 67.593 17.1909 67.2637 17.383 66.9375L19.5598 63.3063L22.6514 58.0928C23.2398 57.108 23.8404 56.1355 24.3495 55.1141C24.4928 54.8275 24.6057 54.7726 24.6697 54.9495C24.7825 55.2574 24.9258 55.5318 24.7764 56.0806C24.6758 56.4525 24.566 56.791 24.2977 57.169C23.9105 57.7178 23.6514 58.3855 23.1849 58.8733C23.1178 58.9434 23.0568 59.0623 23.0081 59.163C22.1544 60.9465 21.069 62.6051 20.0477 64.3002C19.7153 64.8551 19.4104 65.4252 19.0903 65.9893L18.4562 67.0777C18.1452 67.6021 17.8159 68.1174 17.5293 68.6509C17.4927 68.7241 17.4561 68.7972 17.4196 68.8674C17.3982 68.9314 17.3129 69.0076 17.3982 69.0594C17.4897 69.1722 17.5537 69.282 17.6543 69.5076C17.6879 69.593 17.8555 69.7698 17.9379 69.8094C18.258 69.9619 18.4988 70.2546 18.7458 70.5412C19.4165 71.3156 20.0781 72.0991 20.7611 72.8644C21.2641 73.4314 21.7855 73.9863 22.3099 74.529L23.191 75.4284C23.2733 75.5047 23.3495 75.5748 23.4227 75.6327C23.4654 75.6571 23.5294 75.6388 23.5569 75.5931L23.6422 75.462C23.6697 75.404 23.9105 75.0808 24.0934 74.8369C24.6819 74.0503 25.2977 73.2821 25.9014 72.5016C26.0416 72.3217 26.1606 72.1296 26.3008 71.9497C26.56 71.6204 26.81 71.2607 27.0965 70.9863C27.4136 70.6814 27.6362 70.4253 27.7947 70.035C27.8405 69.9253 27.9197 69.8034 28.0142 69.6784C28.06 69.6174 28.1118 69.5564 28.1606 69.4954C28.2398 69.404 28.3161 69.3094 28.3892 69.2241C28.5051 69.093 28.6149 68.9405 28.7429 68.849C28.8771 68.7576 28.9807 68.7119 29.121 68.6875C29.2643 68.6631 29.4289 68.6875 29.5387 68.7423C29.6545 68.7942 29.7795 68.8795 29.8893 69.0015C30.0143 69.1478 30.1393 69.2911 30.2612 69.4344C30.3283 69.5198 30.3984 69.6021 30.4716 69.6845C30.6179 69.846 30.7795 69.9985 30.9777 70.1326C31.1911 70.279 31.4198 70.5503 31.5966 70.779C32.3863 71.7881 33.3009 72.6967 34.2369 73.5839L35.3223 74.6083L35.4595 74.7363L35.5265 74.8004C35.5448 74.8187 35.5448 74.8156 35.557 74.8248L35.6455 74.8949C35.6698 74.9162 35.7034 74.9406 35.74 74.9162C35.7705 74.8918 35.7857 74.8553 35.807 74.8278L35.8497 74.7638L36.0296 74.5534L36.3955 74.1235L37.1302 73.2668C37.5754 72.7485 38.0388 72.2394 38.4992 71.7272C38.987 71.1814 39.4809 70.6418 39.9809 70.1052L40.7309 69.3034L40.8254 69.2027L40.8376 69.1936L40.862 69.1722C40.8833 69.157 40.8711 69.1326 40.8589 69.1173L39.8223 67.6234C39.5845 67.2789 39.3437 66.9252 39.0815 66.6082C38.4717 65.8703 37.926 65.0929 37.4046 64.2972C36.7735 63.3368 36.0631 62.4435 35.3497 61.5502C35.1851 61.3428 35.0022 61.1416 34.8558 60.9251C33.8405 59.3977 32.6667 57.9922 31.6149 56.4952L30.9838 55.5836L30.8283 55.355L30.6911 55.1751C30.6088 55.047 30.496 54.9464 30.3923 54.8366C29.9685 54.4098 29.3984 54.1263 28.7856 54.0165C27.8405 53.8427 26.7947 54.1049 26.0416 54.7787C25.9959 54.8245 25.9563 54.8854 25.9105 54.9312C25.8008 55.0257 25.7185 55.1141 25.6453 55.1781C25.5691 55.2421 25.499 55.2787 25.438 55.294C25.316 55.3214 25.2276 55.2483 25.2032 55.044C25.1849 54.8671 25.1971 54.6446 25.313 54.4342C25.3679 54.3275 25.4319 54.2086 25.5233 54.1019C25.6179 53.9982 25.7307 53.8915 25.8557 53.7879C26.438 53.3519 27.1423 53.1019 27.8496 53.0287L27.8527 52.9891Z" fill="#A6C5F3"/>
<path d="M31.4182 54.9433C29.845 52.7695 26.5644 52.9006 25.1711 55.1964L22.7443 59.1934C22.6924 59.2787 22.7077 59.3915 22.7839 59.4556C23.2717 59.8763 24.9577 61.1324 28.595 61.1324C31.1682 61.1324 33.2078 60.2025 34.4487 59.5257C34.5585 59.4647 34.589 59.3245 34.5158 59.2238L31.4182 54.9433Z" fill="#A6C5F3"/>
</svg>
